<svg xmlns="http://www.w3.org/2000/svg" xmlns:xlink="http://www.w3.org/1999/xlink" width="32" height="32" viewBox="0 0 32 32">
    <defs>
        <circle id="a" cx="16" cy="16" r="16"/>
    </defs>
    <g fill="none" fill-rule="evenodd">
        <mask id="b" fill="#fff">
            <use xlink:href="#a"/>
        </mask>
        <use fill="#D5DFE6" xlink:href="#a"/>
        <path fill="#006BA0" d="M12 6h12a1 1 0 0 1 1 1v12a1 1 0 0 1-1 1H12a1 1 0 0 1-1-1V7a1 1 0 0 1 1-1z" mask="url(#b)"/>
        <path fill="#FFF" d="M8 11h12a1 1 0 0 1 1 1v12a1 1 0 0 1-1 1H8a1 1 0 0 1-1-1V12a1 1 0 0 1 1-1z" mask="url(#b)"/>
        <path fill="#1A4379" d="M11 11h9a1 1 0 0 1 1 1v8h-9a1 1 0 0 1-1-1v-8z" mask="url(#b)"/>
        <path fill="#006BA0" d="M14 17h4v1h-4z" mask="url(#b)"/>
        <path fill="#D5DFE6" fill-rule="nonzero" d="M14 11h4v2l-1-.333-.991.333L15 12.667 14 13z" mask="url(#b)"/>
    </g>
</svg>
