<svg xmlns="http://www.w3.org/2000/svg" xmlns:xlink="http://www.w3.org/1999/xlink" width="68" height="68" viewBox="0 0 68 68">
    <defs>
        <path id="a" d="M18 15h10v4H18a2 2 0 1 1 0-4z"/>
        <path id="b" d="M25 15l1 7.06h4L29 15z"/>
        <circle id="c" cx="17.5" cy="56.5" r="2.5"/>
        <circle id="d" cx="30.5" cy="56.5" r="2.5"/>
        <circle id="e" cx="50.5" cy="56.5" r="2.5"/>
        <path id="f" d="M27 46l1 7.06h4L31 46z"/>
        <linearGradient id="g" x1="100%" x2="0%" y1="88.281%" y2="11.719%">
            <stop offset="0%" stop-color="#CEF2FD"/>
            <stop offset="100%" stop-color="#8BDCFB"/>
        </linearGradient>
        <linearGradient id="h" x1="52.296%" x2="47.704%" y1="100%" y2="0%">
            <stop offset="0%" stop-color="#CEF2FD"/>
            <stop offset="100%" stop-color="#8BDCFB"/>
        </linearGradient>
        <linearGradient id="i" x1="100%" x2="0%" y1="100%" y2="0%">
            <stop offset="0%" stop-color="#CEF2FD"/>
            <stop offset="100%" stop-color="#8BDCFB"/>
        </linearGradient>
        <linearGradient id="j" x1="21.875%" x2="78.125%" y1="0%" y2="100%">
            <stop offset="0%" stop-color="#FFE557"/>
            <stop offset="100%" stop-color="#FFC72C"/>
        </linearGradient>
        <linearGradient id="k" x1="0%" y1="0%" y2="100%">
            <stop offset="0%" stop-color="#2FB7EC"/>
            <stop offset="100%" stop-color="#4A90E2"/>
        </linearGradient>
        <linearGradient id="l" x1="0%" y1="42.969%" y2="57.031%">
            <stop offset="0%" stop-color="#CEF2FD"/>
            <stop offset="100%" stop-color="#EEF2F5"/>
        </linearGradient>
        <linearGradient id="m" x1="72.222%" x2="27.778%" y1="0%" y2="100%">
            <stop offset="0%" stop-color="#2FB7EC"/>
            <stop offset="100%" stop-color="#8BDCFB"/>
        </linearGradient>
        <linearGradient id="n" x1="100%" x2="0%" y1="44.444%" y2="55.556%">
            <stop offset="0%" stop-color="#8BDCFB"/>
            <stop offset="100%" stop-color="#2FB7EC"/>
        </linearGradient>
        <linearGradient id="o" x1="0%" y1="38.005%" y2="61.995%">
            <stop offset="0%" stop-color="#AFC7D1"/>
            <stop offset="100%" stop-color="#AFC7D1"/>
        </linearGradient>
        <path id="p" d="M14 22h34l-1 4H14.67z"/>
        <path id="q" d="M17.384 42H44l-1 4H18z"/>
    </defs>
    <g fill="none" fill-rule="evenodd">
        <circle cx="34" cy="34" r="34" fill="#E6F7FF" fill-rule="nonzero"/>
        <path fill="#FFF" d="M10 22h46.54a2 2 0 0 1 1.958 2.408l-4.166 20A2 2 0 0 1 52.374 46H14l-4-24z"/>
        <g fill-rule="nonzero">
            <use fill="#FFF" xlink:href="#a"/>
            <use fill="#7790A3" fill-opacity=".8" xlink:href="#a"/>
        </g>
        <path fill="#0098D3" d="M18 15h4v4h-4a2 2 0 1 1 0-4z"/>
        <path fill="#AFC7D1" d="M9 15l1 7.06h4L13 15z"/>
        <g fill-rule="nonzero">
            <use fill="#FFF" xlink:href="#b"/>
            <use fill="#7790A3" fill-opacity=".8" xlink:href="#b"/>
        </g>
        <path fill="#AFC7D1" d="M3 15h10v4H3a2 2 0 1 1 0-4z"/>
        <path fill="#2FB7EC" d="M3 15h4v4H3a2 2 0 1 1 0-4z"/>
        <g fill-rule="nonzero">
            <use fill="#2FB7EC" xlink:href="#c"/>
            <use fill="#AFC7D1" xlink:href="#c"/>
        </g>
        <g fill-rule="nonzero">
            <use fill="#FFF" xlink:href="#d"/>
            <use fill="#7790A3" fill-opacity=".8" xlink:href="#d"/>
        </g>
        <g fill-rule="nonzero">
            <use fill="#2FB7EC" xlink:href="#e"/>
            <use fill="#AFC7D1" xlink:href="#e"/>
        </g>
        <g fill-rule="nonzero">
            <use fill="#FFF" xlink:href="#f"/>
            <use fill="#7790A3" fill-opacity=".8" xlink:href="#f"/>
        </g>
        <path fill="#AFC7D1" d="M15 50h37a2 2 0 1 1 0 4H15v-4z"/>
        <path fill="#AFC7D1" fill-rule="nonzero" d="M14 46l1 7.06h4L18 46z"/>
        <g fill-rule="nonzero">
            <path fill="url(#g)" d="M0 0h16v14H0z" transform="translate(17 28)"/>
            <path fill="url(#h)" d="M13 0h3v14h-3z" transform="translate(17 28)"/>
            <path fill="#2FB7EC" d="M20 28h8v5l-2-1-1.652 1L22 32l-2 1z"/>
        </g>
        <path fill="#8BDCFB" fill-rule="nonzero" d="M26 39h4v2h-4z"/>
        <path fill="#2FB7EC" fill-opacity=".5" fill-rule="nonzero" d="M30 39h1v2h-1z"/>
        <path fill="#8BDCFB" fill-rule="nonzero" d="M24 39h1v2h-1z"/>
        <g fill-rule="nonzero">
            <path fill="url(#i)" d="M0 0h10v10H0z" transform="translate(33 16)"/>
            <path fill="#2FB7EC" d="M36 16h4v3h-4z"/>
        </g>
        <g fill-rule="nonzero">
            <path fill="#FFE557" d="M33 26h10v8H33z"/>
            <path fill="url(#j)" d="M0 0h6v8H0z" transform="translate(33 26)"/>
            <path fill="#F0B616" d="M34 26h4v2l-2-1-2 1zM40 26h2v2l-1-1-1 1z"/>
        </g>
        <path fill="#4A90E2" fill-rule="nonzero" d="M33 34h16v8H33z"/>
        <path fill="url(#k)" fill-rule="nonzero" d="M33 34h8v8h-8z"/>
        <path fill="url(#l)" fill-rule="nonzero" d="M33 34h8l-1 3h-7z"/>
        <path fill="url(#m)" fill-rule="nonzero" d="M33 34v3h-2z" opacity=".5"/>
        <path fill="#8BDCFB" fill-rule="nonzero" d="M38 40h3v1h-3z"/>
        <path fill="#2FB7EC" fill-rule="nonzero" d="M41 40h2v1h-2z"/>
        <path fill="url(#n)" fill-rule="nonzero" d="M42 34h8l-1 3h-8z" transform="matrix(-1 0 0 1 91 0)"/>
        <path stroke="url(#o)" stroke-width="4" d="M12.36 24l3.334 20h36.68l4.166-20H12.36z"/>
        <g fill-rule="nonzero">
            <use fill="#FFF" xlink:href="#p"/>
            <use fill="#AFC7D1" fill-opacity=".4" xlink:href="#p"/>
        </g>
        <g fill-rule="nonzero">
            <use fill="#FFF" xlink:href="#q"/>
            <use fill="#AFC7D1" fill-opacity=".4" xlink:href="#q"/>
        </g>
        <path fill="#FFF" fill-rule="nonzero" d="M18 46h9l.624 4h-9.06z"/>
        <path fill="#FFA39E" fill-rule="nonzero" d="M46.565 11.946a1.347 1.347 0 0 0-1.283.328 1.347 1.347 0 0 0-.946-.926 1.34 1.34 0 0 0-1.646.94c-.367 1.368 1.725 3.223 1.725 3.223s2.738-.56 3.105-1.929a1.34 1.34 0 0 0-.955-1.636z"/>
    </g>
</svg>
