<svg xmlns="http://www.w3.org/2000/svg" xmlns:xlink="http://www.w3.org/1999/xlink" width="68" height="68" viewBox="0 0 68 68">
    <defs>
        <path id="a" d="M68 34c0 18.777-15.223 34-34 34C15.222 68 0 52.777 0 34 0 15.222 15.222 0 34 0c18.777 0 34 15.222 34 34"/>
        <linearGradient id="c" x1="62.689%" x2="62.689%" y1="-32.398%" y2="23.673%">
            <stop offset="0%" stop-color="#2FB7EC"/>
            <stop offset="100%" stop-color="#8BDCFB"/>
        </linearGradient>
        <linearGradient id="d" x1="51.128%" x2="55.009%" y1="0%" y2="26.81%">
            <stop offset="0%" stop-color="#CEF2FD"/>
            <stop offset="100%" stop-color="#8BDCFB"/>
        </linearGradient>
        <linearGradient id="e" x1="42.363%" x2="32.541%" y1="0%" y2="27.941%">
            <stop offset="0%" stop-color="#CEF2FD"/>
            <stop offset="100%" stop-color="#8BDCFB"/>
        </linearGradient>
        <linearGradient id="f" x1="100%" x2="-6.882%" y1="1.641%" y2="112.604%">
            <stop offset="0%" stop-color="#326BEE"/>
            <stop offset="100%" stop-color="#1D4BEA"/>
        </linearGradient>
        <linearGradient id="g" x1="0%" y1="11.719%" y2="88.281%">
            <stop offset="0%" stop-color="#FFE557"/>
            <stop offset="100%" stop-color="#FFC72C"/>
        </linearGradient>
    </defs>
    <g fill="none" fill-rule="evenodd">
        <g transform="matrix(-1 0 0 1 68 0)">
            <mask id="b" fill="#fff">
                <use xlink:href="#a"/>
            </mask>
            <use fill="#FFF" xlink:href="#a"/>
            <use fill="#FFA39E" fill-opacity=".24" xlink:href="#a"/>
            <g mask="url(#b)">
                <path fill="url(#c)" d="M9.174 59.016c-.016 4.024.05 7.941.18 11.745h36.42l1.47-2.706 2.358-9.022v-5.625c0-6.193.268-11.874.455-15.402.114-2.121-1.39-3.9-1.39-3.9-2.95-1.521-5.437-2.83-5.437-2.83l-7.706-2.105-8.786-.35-11.76 2.455c-1.276 0-4.763 3.658-4.763 3.658a306.081 306.081 0 0 0-1.04 24.082" transform="translate(1.03 6.94)"/>
                <path fill="url(#d)" d="M4.101 74.067C-3.223 40.179 14.283 31.27 14.283 31.27s4.853-1.907 12.378 7.237c9.522 11.571 4.64 57.508 4.64 65.333 0 7.824-9.193 6.063-17.124 4.498-7.931-1.564-13.39 0-13.782-.782-.367-.734 3.22-29.583 3.664-33.133l.017-.136.025-.22z" transform="translate(1.03 6.94)"/>
                <path fill="url(#e)" d="M63.086 76.796a85.17 85.17 0 0 0 2.969 2.024c6.16 4.019 11.416 6.397 11.416 6.397l3.912-9.46c-15.844-5.6-21.321-19.116-24.842-27.031-3.521-7.917-7.042-13.324-7.042-13.324s-5.142-9.792-9.78 4.055c0 0-16.235 30.12 2.738 71.054 0 0 12.519-6.758 17.018-4.055 4.5 2.703 6.65 2.703 7.238.965.586-1.737-5.196-31.776-5.196-31.776l1.57 1.15z" transform="translate(1.03 6.94)"/>
                <path fill="#1D4BEA" d="M44.14 12.216c.03-.05.1-.04.114.015.314 1.169 2.49 9.184 3.586 10.996 1.127 1.86 5.652 5.448 4.778 10.84-.083.51-.497.898-.995.995l-2.113.415a.065.065 0 0 1-.077-.051l-.332-1.692s-.562 2.572-1.11 2.496c-.548-.074-5.333 1.387-11.444-.09-5.845-1.413 6.502-22.117 7.593-23.924"/>
                <path fill="#FFF" d="M36.551 36.114c-.676-4.859-.182-5.35-.182-5.35.601-.478.983-.072 2.604-.296.627-.086 2.23-.307 3.446-1.242 1.127-.867 1.548-2.059 1.826-2.879 1.481-4.369.109-12.236-.078-13.272 0 0-22.819 5.696-20.856 14.37.64 2.825 1.07 4.73 1.362 6.015l3.094 2.3c.614 1.809 2.25 3.08 4.132 3.21 1.978.138 3.853-1.01 4.652-2.856"/>
                <path fill="#1D4BEA" d="M43.177 21.322c-.004.49.246.89.56.892.312.004.57-.392.574-.882.004-.49-.246-.89-.56-.893-.313-.003-.57.392-.574.883M37.492 21.322c-.004.49.246.89.56.892.312.004.57-.392.574-.882.004-.49-.246-.89-.56-.893-.313-.003-.57.392-.574.883"/>
                <path stroke="#1D4BEA" stroke-linecap="round" stroke-linejoin="round" stroke-width=".5" d="M44.7 17.468a2.832 2.832 0 0 0-1.513-.233"/>
                <path fill="#FFE380" d="M32.242 25.282a2.248 2.248 0 1 0 3.803-2.396 2.248 2.248 0 0 0-3.803 2.396M44.38 25.912a4.117 4.117 0 0 1-.29-.369 2.247 2.247 0 0 1 .803-3.16 15.84 15.84 0 0 1-.513 3.529"/>
                <path fill="#231F20" d="M43.763 11.414s.418.3.651 1.407c.233 1.108-.65-1.407-.65-1.407"/>
                <path stroke="#1D4BEA" stroke-linecap="round" stroke-linejoin="round" stroke-width=".5" d="M38.798 25.99s.4 1.115 1.836 1.15"/>
                <path stroke="#231F20" stroke-linecap="round" stroke-linejoin="round" stroke-width=".5" d="M39.208 17.101a3.486 3.486 0 0 0-1.625-.162 3.52 3.52 0 0 0-1.808.826"/>
                <path stroke="#1D4BEA" stroke-linecap="round" stroke-linejoin="round" stroke-width=".5" d="M40.801 22.383s.368 1.683.152 1.868c-.216.185-.706 0-.706 0"/>
                <path fill="url(#f)" d="M41.424 3.341S36.891.66 34.998.334C33.106.01 27.253.81 24.988 5.695c-2.263 4.886-1.386 8.024-6.157 10.79-4.77 2.764-5.83 8.46-4.995 9.166.836.708 9.692 3.673 10.68 3.828.989.154 3.303-.039 3.578-2.183.277-2.145-1.115-6.575 1.202-7.64 2.317-1.064 4.27-3.537 4.114-6.555 0 0 5.953-.733 8.377-3.473 2.423-2.74 1.717-5.127-.363-6.287" transform="translate(1.03 6.94)"/>
                <path stroke="#FFD560" stroke-linecap="round" stroke-linejoin="round" stroke-width=".773" d="M28.065 36.373c.92 1.616 2.65 2.597 4.452 2.494 1.712-.098 3.256-1.161 4.034-2.753"/>
            </g>
            <g fill-rule="nonzero" mask="url(#b)">
                <path fill="#FFE557" d="M22 49h24v14H22z"/>
                <path fill="url(#g)" d="M0 0h16v14H0z" transform="translate(22 49)"/>
                <g fill="#FFF" transform="translate(32.8 59.055)">
                    <path d="M0 0h3.2v1.618H0z"/>
                    <rect width="3.2" height="1" y="2.023" rx=".2"/>
                </g>
                <path fill="#F0B616" d="M27 49h6v4l-.992-.4L31 53l-1-.4-1 .4-1-.4-1 .4zM39 49h2v4.046l-1-.405-1 .405z"/>
            </g>
            <g mask="url(#b)">
                <path fill="#2FB7EC" d="M16 61.51L12.561 63l2.983 6.38L18.545 65z"/>
                <path fill="#FFF" fill-rule="nonzero" d="M25.997 59.548c-1.57-.18-3.141-.363-4.715-.505-.46-.043-1.006-.105-1.383.105-1.325.737-2.61 1.552-3.899 2.363A10.942 10.942 0 0 0 18.545 65c.79-.396 1.624-.607 2.575-.557 1.973.103 2.79.039 4.77.039 1.172 0 2.208-.494 3.11-1.482h-3c-1.125 0-1.728-1.024-2.155-1.251l.032-.329c.672.077 1.342.16 2.013.23.34.037 1.396-.14 1.815-.488.144-.12.116-.28.129-.434.044-.55-1.459-1.138-1.837-1.18z"/>
            </g>
            <g mask="url(#b)">
                <path fill="#2FB7EC" d="M49.561 61.51L53 63l-2.983 6.38-3-4.38z"/>
                <path fill="#FFF" fill-rule="nonzero" d="M39.564 59.548c1.57-.18 3.141-.363 4.715-.505.46-.043 1.007-.105 1.383.105 1.325.737 2.61 1.552 3.9 2.363A10.942 10.942 0 0 1 47.015 65c-.79-.396-1.624-.607-2.574-.557-1.974.103-2.79.039-4.771.039-1.172 0-2.208-.494-3.11-1.482h3c1.125 0 1.728-1.024 2.155-1.251-.011-.11-.02-.22-.032-.329-.672.077-1.342.16-2.013.23-.34.037-1.396-.14-1.815-.488-.144-.12-.116-.28-.128-.434-.045-.55 1.458-1.138 1.836-1.18z"/>
            </g>
        </g>
        <path fill="#FFA39E" fill-rule="nonzero" d="M11.87 5.891a2.694 2.694 0 0 1 2.566.657 2.694 2.694 0 0 1 1.893-1.851c1.436-.385 2.91.456 3.29 1.879.734 2.737-3.449 6.446-3.449 6.446S10.694 11.9 9.96 9.164c-.38-1.423.475-2.888 1.91-3.273z"/>
    </g>
</svg>
