<svg width="425" height="146" viewBox="0 0 425 146" fill="none" xmlns="http://www.w3.org/2000/svg">
<mask id="mask0" mask-type="alpha" maskUnits="userSpaceOnUse" x="0" y="0" width="425" height="146">
<rect width="425" height="146" fill="#C4C4C4"/>
</mask>
<g mask="url(#mask0)">
<mask id="mask1" mask-type="alpha" maskUnits="userSpaceOnUse" x="14" y="106" width="5" height="10">
<path fill-rule="evenodd" clip-rule="evenodd" d="M16.4243 106.759L18.2962 107.156L16.6212 115.037L14.7493 114.639L16.4243 106.759Z" fill="white"/>
</mask>
<g mask="url(#mask1)">
<path fill-rule="evenodd" clip-rule="evenodd" d="M15.2401 114.744C15.2205 114.739 15.2013 114.733 15.184 114.728C14.9218 114.639 14.7798 114.351 14.871 114.086L17.1345 107.366C17.2238 107.101 17.5163 106.97 17.7728 107.047C18.0331 107.136 18.1751 107.424 18.0835 107.691L15.8204 114.408C15.7373 114.654 15.4856 114.796 15.2401 114.744Z" fill="#231F20"/>
</g>
<path fill-rule="evenodd" clip-rule="evenodd" d="M19.0685 116.084C19.0478 116.08 19.0274 116.074 19.0091 116.068C18.731 115.975 18.5778 115.684 18.6704 115.423L20.9778 108.738C21.0688 108.473 21.3794 108.341 21.6459 108.426C21.9239 108.519 22.0772 108.81 21.9842 109.074L19.6771 115.757C19.5925 116.001 19.3284 116.14 19.0685 116.084Z" fill="#231F20"/>
<path fill-rule="evenodd" clip-rule="evenodd" d="M23.1295 117.43C23.1087 117.426 23.0883 117.419 23.07 117.413C22.7919 117.321 22.6383 117.032 22.7313 116.768L25.0368 110.082C25.1277 109.818 25.4209 109.686 25.7069 109.771C25.9829 109.863 26.1366 110.152 26.0431 110.418L23.738 117.102C23.6534 117.347 23.3893 117.485 23.1295 117.43Z" fill="#231F20"/>
<path fill-rule="evenodd" clip-rule="evenodd" d="M27.4204 118.825C27.3996 118.821 27.3792 118.814 27.3609 118.808C27.0828 118.716 26.9292 118.427 27.0222 118.163L29.3276 111.477C29.4206 111.214 29.7205 111.081 29.9977 111.167C30.2737 111.258 30.4274 111.548 30.334 111.813L28.0289 118.497C27.9443 118.742 27.6802 118.88 27.4204 118.825Z" fill="#231F20"/>
<path fill-rule="evenodd" clip-rule="evenodd" d="M31.6621 120.451C31.6413 120.446 31.621 120.44 31.6027 120.434C31.3246 120.342 31.171 120.053 31.2639 119.789L33.5695 113.103C33.6625 112.839 33.9657 112.711 34.2396 112.792C34.5156 112.884 34.6693 113.173 34.5758 113.439L32.2707 120.123C32.1861 120.368 31.922 120.506 31.6621 120.451Z" fill="#231F20"/>
<path fill-rule="evenodd" clip-rule="evenodd" d="M34.9267 113.42C29.0055 111.356 23.0882 109.294 17.1694 107.229C26.5323 79.939 35.8929 52.6505 45.2557 25.3606C45.7479 23.926 47.2334 23.0844 48.717 23.3997L53.8299 24.4865L34.9267 113.42Z" fill="#B296FF"/>
<path fill-rule="evenodd" clip-rule="evenodd" d="M30.9367 135.024C30.6478 134.963 30.4644 134.691 30.5228 134.416L31.9827 127.558C32.0411 127.283 32.3213 127.11 32.6082 127.171C32.8951 127.232 33.0806 127.504 33.0222 127.779L31.5622 134.637C31.5034 134.914 31.2236 135.085 30.9367 135.024Z" fill="#231F20"/>
<path fill-rule="evenodd" clip-rule="evenodd" d="M34.7174 136.552C34.4306 136.491 34.2451 136.219 34.3035 135.944L35.7613 129.085C35.8197 128.811 36.0999 128.637 36.3868 128.698C36.6737 128.759 36.8592 129.032 36.8008 129.306L35.3429 136.165C35.2846 136.44 35.0043 136.613 34.7174 136.552Z" fill="#231F20"/>
<path fill-rule="evenodd" clip-rule="evenodd" d="M39.0083 137.947C38.7214 137.886 38.536 137.614 38.5944 137.339L40.0522 130.48C40.1106 130.206 40.3908 130.032 40.6777 130.093C40.9646 130.154 41.1501 130.427 41.0917 130.701L39.6338 137.56C39.5755 137.835 39.2952 138.008 39.0083 137.947Z" fill="#231F20"/>
<path fill-rule="evenodd" clip-rule="evenodd" d="M65.0039 138.885C53.9759 135.109 42.9498 131.332 31.9217 127.556L53.8298 24.4861L85.8298 31.2879C86.9102 31.5175 87.5999 32.5796 87.3702 33.66L65.0039 138.885Z" fill="#500FCF"/>
<rect x="49.8235" y="43.4426" width="34.682" height="8.807" transform="rotate(12 49.8235 43.4426)" fill="#F0F5F7"/>
<rect x="45.7949" y="62.3948" width="34.682" height="8.807" transform="rotate(12 45.7949 62.3948)" fill="#F0F5F7"/>
<rect x="41.7668" y="81.3472" width="34.682" height="8.807" transform="rotate(12 41.7668 81.3472)" fill="#F0F5F7"/>
<rect x="37.7385" y="100.299" width="34.682" height="8.807" transform="rotate(12 37.7385 100.299)" fill="#F0F5F7"/>
<path fill-rule="evenodd" clip-rule="evenodd" d="M43.0669 139.293C42.778 139.231 42.5946 138.959 42.653 138.685L44.1129 131.826C44.1713 131.552 44.4515 131.378 44.7384 131.439C45.0253 131.5 45.2107 131.773 45.1524 132.047L43.6924 138.905C43.6336 139.182 43.3538 139.354 43.0669 139.293Z" fill="#231F20"/>
<path fill-rule="evenodd" clip-rule="evenodd" d="M46.8958 140.589C46.6089 140.528 46.4234 140.256 46.4818 139.981L47.9417 133.123C48.0001 132.848 48.2804 132.675 48.5672 132.736C48.8541 132.797 49.0396 133.069 48.9812 133.344L47.5213 140.202C47.4629 140.477 47.1827 140.65 46.8958 140.589Z" fill="#231F20"/>
<path fill-rule="evenodd" clip-rule="evenodd" d="M51.1863 141.984C50.8973 141.923 50.7139 141.651 50.7723 141.376L52.2323 134.518C52.2907 134.243 52.5709 134.07 52.8578 134.131C53.1447 134.192 53.3301 134.464 53.2718 134.739L51.8118 141.597C51.753 141.874 51.4732 142.045 51.1863 141.984Z" fill="#231F20"/>
<path fill-rule="evenodd" clip-rule="evenodd" d="M55.66 143.659C55.3731 143.598 55.1876 143.326 55.246 143.051L56.7039 136.192C56.7623 135.918 57.0425 135.744 57.3294 135.805C57.6163 135.866 57.8018 136.139 57.7434 136.413L56.2855 143.272C56.2271 143.547 55.9469 143.72 55.66 143.659Z" fill="#231F20"/>
<path fill-rule="evenodd" clip-rule="evenodd" d="M59.7197 145.005C59.4328 144.944 59.2473 144.672 59.3057 144.397L60.7636 137.538C60.822 137.264 61.1022 137.09 61.3891 137.151C61.676 137.212 61.8614 137.485 61.8031 137.759L60.3452 144.618C60.2868 144.893 60.0066 145.066 59.7197 145.005Z" fill="#231F20"/>
<mask id="mask2" mask-type="alpha" maskUnits="userSpaceOnUse" x="62" y="138" width="4" height="9">
<path fill-rule="evenodd" clip-rule="evenodd" d="M63.7496 138.247L65.2229 138.56L63.5761 146.308L62.1027 145.995L63.7496 138.247Z" fill="white"/>
</mask>
<g mask="url(#mask2)">
<path fill-rule="evenodd" clip-rule="evenodd" d="M63.0843 146.204C62.8133 146.146 62.6402 145.88 62.6977 145.609L64.1359 138.843C64.1935 138.572 64.4602 138.399 64.7311 138.456C65.0021 138.514 65.1752 138.78 65.1176 139.051L63.6795 145.817C63.6219 146.088 63.3552 146.262 63.0843 146.204Z" fill="#231F20"/>
</g>
<path d="M383.126 40.9279C381.561 49.7997 372.904 55.7419 363.735 54.1252C354.566 52.5085 348.463 43.9636 350.028 35.0918C351.592 26.22 360.25 20.2778 369.418 21.8944C378.587 23.5111 384.69 32.0561 383.126 40.9279Z" fill="#192A32" fill-opacity="0.2" stroke="#192A32" stroke-width="2.5"/>
<path d="M429.094 49.0331C427.532 57.8911 418.789 63.8326 409.486 62.1922C400.184 60.5519 394 51.9785 395.562 43.1206C397.124 34.2626 405.867 28.3212 415.169 29.9615C424.472 31.6018 430.656 40.1752 429.094 49.0331Z" fill="#192A32" fill-opacity="0.2" stroke="#192A32" stroke-width="2.5"/>
<line x1="384.689" y1="35.9702" x2="395.355" y2="37.8508" stroke="#192A32" stroke-width="1.5" stroke-linecap="round"/>
<path d="M373.028 21.7087C373.028 21.7087 384.775 24.6742 392.39 26.017C400.006 27.3598 412.058 28.5907 412.058 28.5907" stroke="#192A32" stroke-width="1.5" stroke-linecap="round"/>
<path d="M354.405 25.8938C354.813 25.9657 355.202 25.6933 355.274 25.2854C355.346 24.8775 355.073 24.4885 354.665 24.4166L354.405 25.8938ZM346.227 30.4711C345.964 30.7914 346.011 31.264 346.331 31.5267C346.651 31.7893 347.124 31.7427 347.387 31.4224L346.227 30.4711ZM351.562 25.1486L352.142 25.6242L351.562 25.1486ZM354.665 24.4166L352.639 24.0593L352.379 25.5366L354.405 25.8938L354.665 24.4166ZM350.982 24.673L346.227 30.4711L347.387 31.4224L352.142 25.6242L350.982 24.673ZM352.639 24.0593C352.017 23.9496 351.383 24.1841 350.982 24.673L352.142 25.6242C352.199 25.5544 352.29 25.5209 352.379 25.5366L352.639 24.0593Z" fill="#192A32"/>
<rect x="346.526" y="30.0027" width="3.5228" height="2.6421" rx="1" transform="rotate(10 346.526 30.0027)" fill="#192A32"/>
<path d="M333.133 81.7237C333.255 80.9225 334.41 80.9225 334.532 81.7237C334.559 81.8993 334.651 82.0584 334.789 82.1694C335.422 82.676 334.845 83.676 334.09 83.3813C333.924 83.3167 333.74 83.3167 333.575 83.3813C332.82 83.676 332.243 82.676 332.875 82.1694C333.014 82.0584 333.106 81.8993 333.133 81.7237Z" fill="white"/>
<path d="M330.491 85.2467C330.613 84.4454 331.768 84.4454 331.89 85.2467C331.917 85.4223 332.009 85.5814 332.147 85.6924C332.78 86.199 332.203 87.1989 331.448 86.9042C331.282 86.8397 331.098 86.8397 330.933 86.9042C330.178 87.1989 329.6 86.199 330.233 85.6924C330.372 85.5814 330.464 85.4223 330.491 85.2467Z" fill="white"/>
<path d="M338.417 86.1271C338.539 85.3258 339.694 85.3258 339.816 86.1271C339.843 86.3026 339.935 86.4617 340.074 86.5728C340.706 87.0793 340.129 88.0793 339.374 87.7846C339.208 87.72 339.025 87.72 338.859 87.7846C338.104 88.0793 337.527 87.0793 338.16 86.5728C338.298 86.4617 338.39 86.3026 338.417 86.1271Z" fill="white"/>
<path d="M336.655 88.7694C336.778 87.9681 337.932 87.9681 338.055 88.7694C338.082 88.945 338.173 89.1041 338.312 89.2151C338.945 89.7217 338.368 90.7217 337.612 90.4269C337.447 90.3624 337.263 90.3624 337.098 90.4269C336.343 90.7217 335.765 89.7217 336.398 89.2151C336.537 89.1041 336.629 88.945 336.655 88.7694Z" fill="white"/>
<path d="M324.326 91.4115C324.448 90.6102 325.603 90.6102 325.725 91.4115C325.752 91.5871 325.844 91.7462 325.983 91.8572C326.615 92.3638 326.038 93.3637 325.283 93.069C325.117 93.0045 324.934 93.0045 324.768 93.069C324.013 93.3637 323.436 92.3638 324.069 91.8572C324.207 91.7462 324.299 91.5871 324.326 91.4115Z" fill="white"/>
<path d="M329.61 95.8153C329.732 95.014 330.887 95.014 331.009 95.8153C331.036 95.9909 331.128 96.15 331.267 96.261C331.899 96.7676 331.322 97.7676 330.567 97.4728C330.401 97.4083 330.218 97.4083 330.052 97.4728C329.297 97.7676 328.72 96.7676 329.353 96.261C329.491 96.15 329.583 95.9909 329.61 95.8153Z" fill="white"/>
<path d="M341.059 95.8153C341.182 95.014 342.336 95.014 342.459 95.8153C342.485 95.9909 342.577 96.15 342.716 96.261C343.349 96.7676 342.771 97.7676 342.016 97.4728C341.851 97.4083 341.667 97.4083 341.502 97.4728C340.747 97.7676 340.169 96.7676 340.802 96.261C340.941 96.15 341.032 95.9909 341.059 95.8153Z" fill="white"/>
<path d="M336.655 100.219C336.778 99.4173 337.932 99.4173 338.055 100.219C338.082 100.394 338.173 100.553 338.312 100.664C338.945 101.171 338.368 102.171 337.612 101.876C337.447 101.812 337.263 101.812 337.098 101.876C336.343 102.171 335.765 101.171 336.398 100.664C336.537 100.553 336.629 100.394 336.655 100.219Z" fill="white"/>
<path d="M342.82 108.145C342.943 107.343 344.097 107.343 344.22 108.145C344.246 108.32 344.338 108.479 344.477 108.59C345.11 109.097 344.532 110.097 343.777 109.802C343.612 109.738 343.428 109.738 343.263 109.802C342.507 110.097 341.93 109.097 342.563 108.59C342.702 108.479 342.793 108.32 342.82 108.145Z" fill="white"/>
<path d="M359.554 97.5763C359.676 96.775 360.831 96.775 360.953 97.5763C360.98 97.7519 361.072 97.911 361.21 98.022C361.843 98.5286 361.266 99.5285 360.511 99.2338C360.345 99.1693 360.162 99.1693 359.996 99.2338C359.241 99.5285 358.664 98.5286 359.296 98.022C359.435 97.911 359.527 97.7519 359.554 97.5763Z" fill="white"/>
<path d="M351.627 99.3377C351.75 98.5365 352.904 98.5365 353.027 99.3377C353.054 99.5133 353.145 99.6724 353.284 99.7835C353.917 100.29 353.339 101.29 352.584 100.995C352.419 100.931 352.235 100.931 352.07 100.995C351.315 101.29 350.737 100.29 351.37 99.7835C351.509 99.6724 351.601 99.5133 351.627 99.3377Z" fill="white"/>
<path d="M358.673 79.9623C358.795 79.161 359.95 79.161 360.072 79.9623C360.099 80.1379 360.191 80.297 360.329 80.408C360.962 80.9145 360.385 81.9145 359.63 81.6198C359.464 81.5552 359.281 81.5552 359.115 81.6198C358.36 81.9145 357.783 80.9145 358.415 80.408C358.554 80.297 358.646 80.1379 358.673 79.9623Z" fill="white"/>
<path d="M351.627 72.036C351.75 71.2347 352.904 71.2347 353.027 72.036C353.054 72.2116 353.145 72.3707 353.284 72.4817C353.917 72.9883 353.339 73.9883 352.584 73.6936C352.419 73.629 352.235 73.629 352.07 73.6936C351.315 73.9883 350.737 72.9883 351.37 72.4817C351.509 72.3707 351.601 72.2116 351.627 72.036Z" fill="white"/>
<path d="M333.133 92.2923C333.255 91.4911 334.41 91.4911 334.532 92.2923C334.559 92.4679 334.651 92.627 334.789 92.738C335.422 93.2446 334.845 94.2446 334.09 93.9499C333.924 93.8853 333.74 93.8853 333.575 93.9499C332.82 94.2446 332.243 93.2446 332.875 92.738C333.014 92.627 333.106 92.4679 333.133 92.2923Z" fill="white"/>
<path d="M345.463 85.2467C345.585 84.4454 346.74 84.4454 346.862 85.2467C346.889 85.4223 346.981 85.5814 347.119 85.6924C347.752 86.199 347.175 87.1989 346.42 86.9042C346.254 86.8397 346.071 86.8397 345.905 86.9042C345.15 87.1989 344.573 86.199 345.205 85.6924C345.344 85.5814 345.436 85.4223 345.463 85.2467Z" fill="white"/>
<path d="M342.82 76.4396C342.943 75.6383 344.097 75.6383 344.22 76.4396C344.246 76.6151 344.338 76.7742 344.477 76.8853C345.11 77.3918 344.532 78.3918 343.777 78.0971C343.612 78.0325 343.428 78.0325 343.263 78.0971C342.507 78.3918 341.93 77.3918 342.563 76.8853C342.702 76.7742 342.793 76.6151 342.82 76.4396Z" fill="white"/>
<path d="M277.908 74.8565C277.908 73.1996 279.251 71.8564 280.908 71.8564H314.54C316.197 71.8564 317.54 73.1996 317.54 74.8564V149C317.54 150.657 316.197 152 314.54 152H280.908C279.251 152 277.908 150.657 277.908 149V74.8565Z" fill="white"/>
<path d="M277.908 74.8565C277.908 73.1996 279.251 71.8564 280.908 71.8564H314.54C316.197 71.8564 317.54 73.1996 317.54 74.8564V149C317.54 150.657 316.197 152 314.54 152H280.908C279.251 152 277.908 150.657 277.908 149V74.8565Z" fill="url(#paint0_linear)"/>
<circle cx="292.396" cy="77.5809" r="0.660525" fill="#48636F"/>
<circle cx="295.038" cy="77.5809" r="0.660525" fill="#48636F"/>
<circle cx="297.68" cy="77.5809" r="0.660525" fill="#48636F"/>
<circle cx="300.322" cy="77.5809" r="0.660525" fill="#48636F"/>
<circle cx="302.964" cy="77.5809" r="0.660525" fill="#48636F"/>
<circle cx="279.714" cy="77.5809" r="0.660525" fill="#48636F"/>
<circle cx="283.236" cy="77.5809" r="0.660525" fill="#48636F"/>
<circle cx="281.299" cy="77.5809" r="0.660525" fill="#48636F"/>
<circle cx="285.174" cy="77.5809" r="0.660525" fill="#48636F"/>
<circle cx="287.464" cy="77.5809" r="0.660525" fill="#48636F"/>
<circle cx="289.754" cy="77.5809" r="0.660525" fill="#48636F"/>
<mask id="mask3" mask-type="alpha" maskUnits="userSpaceOnUse" x="277" y="76" width="2" height="3">
<circle cx="278.128" cy="77.5809" r="0.660525" fill="#C4C4C4"/>
</mask>
<g mask="url(#mask3)">
<rect x="277.908" y="76.9204" width="1.32105" height="1.32105" fill="#48636F"/>
</g>
<circle r="0.660525" transform="matrix(-1 0 0 1 315.646 77.5809)" fill="#48636F"/>
<circle r="0.660525" transform="matrix(-1 0 0 1 312.123 77.5809)" fill="#48636F"/>
<circle r="0.660525" transform="matrix(-1 0 0 1 314.061 77.5809)" fill="#48636F"/>
<circle r="0.660525" transform="matrix(-1 0 0 1 310.186 77.5809)" fill="#48636F"/>
<circle r="0.660525" transform="matrix(-1 0 0 1 307.896 77.5809)" fill="#48636F"/>
<circle r="0.660525" transform="matrix(-1 0 0 1 305.606 77.5809)" fill="#48636F"/>
<mask id="mask4" mask-type="alpha" maskUnits="userSpaceOnUse" x="316" y="76" width="2" height="3">
<circle r="0.660525" transform="matrix(-1 0 0 1 317.231 77.5809)" fill="#C4C4C4"/>
</mask>
<g mask="url(#mask4)">
<rect width="1.32105" height="1.32105" transform="matrix(-1 0 0 1 317.539 76.9204)" fill="#48636F"/>
</g>
<circle cx="292.396" cy="80.223" r="0.660525" fill="#48636F"/>
<circle cx="295.038" cy="80.223" r="0.660525" fill="#48636F"/>
<circle cx="297.68" cy="80.223" r="0.660525" fill="#48636F"/>
<circle cx="300.322" cy="80.223" r="0.660525" fill="#48636F"/>
<circle cx="302.964" cy="80.223" r="0.660525" fill="#48636F"/>
<circle cx="279.714" cy="80.223" r="0.660525" fill="#48636F"/>
<circle cx="283.237" cy="80.223" r="0.660525" fill="#48636F"/>
<circle cx="281.299" cy="80.223" r="0.660525" fill="#48636F"/>
<circle cx="285.174" cy="80.223" r="0.660525" fill="#48636F"/>
<circle cx="287.464" cy="80.223" r="0.660525" fill="#48636F"/>
<circle cx="289.754" cy="80.223" r="0.660525" fill="#48636F"/>
<mask id="mask5" mask-type="alpha" maskUnits="userSpaceOnUse" x="277" y="79" width="2" height="2">
<circle cx="278.128" cy="80.223" r="0.660525" fill="#C4C4C4"/>
</mask>
<g mask="url(#mask5)">
<rect x="277.908" y="79.5625" width="1.32105" height="1.32105" fill="#48636F"/>
</g>
<circle r="0.660525" transform="matrix(-1 0 0 1 315.646 80.223)" fill="#48636F"/>
<circle r="0.660525" transform="matrix(-1 0 0 1 312.123 80.223)" fill="#48636F"/>
<circle r="0.660525" transform="matrix(-1 0 0 1 314.061 80.223)" fill="#48636F"/>
<circle r="0.660525" transform="matrix(-1 0 0 1 310.186 80.223)" fill="#48636F"/>
<circle r="0.660525" transform="matrix(-1 0 0 1 307.896 80.223)" fill="#48636F"/>
<circle r="0.660525" transform="matrix(-1 0 0 1 305.606 80.223)" fill="#48636F"/>
<mask id="mask6" mask-type="alpha" maskUnits="userSpaceOnUse" x="316" y="79" width="2" height="2">
<circle r="0.660525" transform="matrix(-1 0 0 1 317.232 80.223)" fill="#C4C4C4"/>
</mask>
<g mask="url(#mask6)">
<rect width="1.32105" height="1.32105" transform="matrix(-1 0 0 1 317.539 79.5625)" fill="#48636F"/>
</g>
<circle cx="292.396" cy="88.1498" r="0.660525" fill="#48636F"/>
<circle cx="295.038" cy="88.1498" r="0.660525" fill="#48636F"/>
<circle cx="297.68" cy="88.1498" r="0.660525" fill="#48636F"/>
<circle cx="300.322" cy="88.1498" r="0.660525" fill="#48636F"/>
<circle cx="302.964" cy="88.1498" r="0.660525" fill="#48636F"/>
<circle cx="279.714" cy="88.1498" r="0.660525" fill="#48636F"/>
<circle cx="283.237" cy="88.1498" r="0.660525" fill="#48636F"/>
<circle cx="281.299" cy="88.1498" r="0.660525" fill="#48636F"/>
<circle cx="285.174" cy="88.1498" r="0.660525" fill="#48636F"/>
<circle cx="287.464" cy="88.1498" r="0.660525" fill="#48636F"/>
<circle cx="289.754" cy="88.1498" r="0.660525" fill="#48636F"/>
<mask id="mask7" mask-type="alpha" maskUnits="userSpaceOnUse" x="277" y="87" width="2" height="2">
<circle cx="278.128" cy="88.1498" r="0.660525" fill="#C4C4C4"/>
</mask>
<g mask="url(#mask7)">
<rect x="277.909" y="87.4893" width="1.32105" height="1.32105" fill="#48636F"/>
</g>
<circle r="0.660525" transform="matrix(-1 0 0 1 315.646 88.1498)" fill="#48636F"/>
<circle r="0.660525" transform="matrix(-1 0 0 1 312.124 88.1498)" fill="#48636F"/>
<circle r="0.660525" transform="matrix(-1 0 0 1 314.061 88.1498)" fill="#48636F"/>
<circle r="0.660525" transform="matrix(-1 0 0 1 310.186 88.1498)" fill="#48636F"/>
<circle r="0.660525" transform="matrix(-1 0 0 1 307.896 88.1498)" fill="#48636F"/>
<circle r="0.660525" transform="matrix(-1 0 0 1 305.606 88.1498)" fill="#48636F"/>
<mask id="mask8" mask-type="alpha" maskUnits="userSpaceOnUse" x="316" y="87" width="2" height="2">
<circle r="0.660525" transform="matrix(-1 0 0 1 317.232 88.1498)" fill="#C4C4C4"/>
</mask>
<g mask="url(#mask8)">
<rect width="1.32105" height="1.32105" transform="matrix(-1 0 0 1 317.54 87.4893)" fill="#48636F"/>
</g>
<circle cx="292.396" cy="90.7914" r="0.660525" fill="#48636F"/>
<circle cx="295.038" cy="90.7914" r="0.660525" fill="#48636F"/>
<circle cx="297.68" cy="90.7914" r="0.660525" fill="#48636F"/>
<circle cx="300.322" cy="90.7914" r="0.660525" fill="#48636F"/>
<circle cx="302.964" cy="90.7914" r="0.660525" fill="#48636F"/>
<circle cx="279.714" cy="90.7914" r="0.660525" fill="#48636F"/>
<circle cx="283.237" cy="90.7914" r="0.660525" fill="#48636F"/>
<circle cx="281.299" cy="90.7914" r="0.660525" fill="#48636F"/>
<circle cx="285.174" cy="90.7914" r="0.660525" fill="#48636F"/>
<circle cx="287.464" cy="90.7914" r="0.660525" fill="#48636F"/>
<circle cx="289.754" cy="90.7914" r="0.660525" fill="#48636F"/>
<mask id="mask9" mask-type="alpha" maskUnits="userSpaceOnUse" x="277" y="90" width="2" height="2">
<circle cx="278.128" cy="90.7914" r="0.660525" fill="#C4C4C4"/>
</mask>
<g mask="url(#mask9)">
<rect x="277.909" y="90.1309" width="1.32105" height="1.32105" fill="#48636F"/>
</g>
<circle r="0.660525" transform="matrix(-1 0 0 1 315.646 90.7914)" fill="#48636F"/>
<circle r="0.660525" transform="matrix(-1 0 0 1 312.124 90.7914)" fill="#48636F"/>
<circle r="0.660525" transform="matrix(-1 0 0 1 314.061 90.7914)" fill="#48636F"/>
<circle r="0.660525" transform="matrix(-1 0 0 1 310.186 90.7914)" fill="#48636F"/>
<circle r="0.660525" transform="matrix(-1 0 0 1 307.896 90.7914)" fill="#48636F"/>
<circle r="0.660525" transform="matrix(-1 0 0 1 305.606 90.7914)" fill="#48636F"/>
<mask id="mask10" mask-type="alpha" maskUnits="userSpaceOnUse" x="316" y="90" width="2" height="2">
<circle r="0.660525" transform="matrix(-1 0 0 1 317.232 90.7914)" fill="#C4C4C4"/>
</mask>
<g mask="url(#mask10)">
<rect width="1.32105" height="1.32105" transform="matrix(-1 0 0 1 317.54 90.1309)" fill="#48636F"/>
</g>
<circle cx="292.396" cy="82.8651" r="0.660525" fill="#48636F"/>
<circle cx="295.038" cy="82.8651" r="0.660525" fill="#48636F"/>
<circle cx="297.68" cy="82.8651" r="0.660525" fill="#48636F"/>
<circle cx="300.322" cy="82.8651" r="0.660525" fill="#48636F"/>
<circle cx="302.964" cy="82.8651" r="0.660525" fill="#48636F"/>
<circle cx="279.714" cy="82.8651" r="0.660525" fill="#48636F"/>
<circle cx="283.237" cy="82.8651" r="0.660525" fill="#48636F"/>
<circle cx="281.299" cy="82.8651" r="0.660525" fill="#48636F"/>
<circle cx="285.174" cy="82.8651" r="0.660525" fill="#48636F"/>
<circle cx="287.464" cy="82.8651" r="0.660525" fill="#48636F"/>
<circle cx="289.754" cy="82.8651" r="0.660525" fill="#48636F"/>
<mask id="mask11" mask-type="alpha" maskUnits="userSpaceOnUse" x="277" y="82" width="2" height="2">
<circle cx="278.128" cy="82.8651" r="0.660525" fill="#C4C4C4"/>
</mask>
<g mask="url(#mask11)">
<rect x="277.908" y="82.2046" width="1.32105" height="1.32105" fill="#48636F"/>
</g>
<circle r="0.660525" transform="matrix(-1 0 0 1 315.646 82.8651)" fill="#48636F"/>
<circle r="0.660525" transform="matrix(-1 0 0 1 312.123 82.8651)" fill="#48636F"/>
<circle r="0.660525" transform="matrix(-1 0 0 1 314.061 82.8651)" fill="#48636F"/>
<circle r="0.660525" transform="matrix(-1 0 0 1 310.186 82.8651)" fill="#48636F"/>
<circle r="0.660525" transform="matrix(-1 0 0 1 307.896 82.8651)" fill="#48636F"/>
<circle r="0.660525" transform="matrix(-1 0 0 1 305.606 82.8651)" fill="#48636F"/>
<mask id="mask12" mask-type="alpha" maskUnits="userSpaceOnUse" x="316" y="82" width="2" height="2">
<circle r="0.660525" transform="matrix(-1 0 0 1 317.232 82.8651)" fill="#C4C4C4"/>
</mask>
<g mask="url(#mask12)">
<rect width="1.32105" height="1.32105" transform="matrix(-1 0 0 1 317.539 82.2046)" fill="#48636F"/>
</g>
<circle cx="292.396" cy="85.5074" r="0.660525" fill="#48636F"/>
<circle cx="295.038" cy="85.5074" r="0.660525" fill="#48636F"/>
<circle cx="297.68" cy="85.5074" r="0.660525" fill="#48636F"/>
<circle cx="300.322" cy="85.5074" r="0.660525" fill="#48636F"/>
<circle cx="302.964" cy="85.5074" r="0.660525" fill="#48636F"/>
<circle cx="279.714" cy="85.5074" r="0.660525" fill="#48636F"/>
<circle cx="283.237" cy="85.5074" r="0.660525" fill="#48636F"/>
<circle cx="281.299" cy="85.5074" r="0.660525" fill="#48636F"/>
<circle cx="285.174" cy="85.5074" r="0.660525" fill="#48636F"/>
<circle cx="287.464" cy="85.5074" r="0.660525" fill="#48636F"/>
<circle cx="289.754" cy="85.5074" r="0.660525" fill="#48636F"/>
<mask id="mask13" mask-type="alpha" maskUnits="userSpaceOnUse" x="277" y="84" width="2" height="3">
<circle cx="278.128" cy="85.5074" r="0.660525" fill="#C4C4C4"/>
</mask>
<g mask="url(#mask13)">
<rect x="277.909" y="84.8469" width="1.32105" height="1.32105" fill="#48636F"/>
</g>
<circle r="0.660525" transform="matrix(-1 0 0 1 315.646 85.5074)" fill="#48636F"/>
<circle r="0.660525" transform="matrix(-1 0 0 1 312.124 85.5074)" fill="#48636F"/>
<circle r="0.660525" transform="matrix(-1 0 0 1 314.061 85.5074)" fill="#48636F"/>
<circle r="0.660525" transform="matrix(-1 0 0 1 310.186 85.5074)" fill="#48636F"/>
<circle r="0.660525" transform="matrix(-1 0 0 1 307.896 85.5074)" fill="#48636F"/>
<circle r="0.660525" transform="matrix(-1 0 0 1 305.606 85.5074)" fill="#48636F"/>
<mask id="mask14" mask-type="alpha" maskUnits="userSpaceOnUse" x="316" y="84" width="2" height="3">
<circle r="0.660525" transform="matrix(-1 0 0 1 317.232 85.5074)" fill="#C4C4C4"/>
</mask>
<g mask="url(#mask14)">
<rect width="1.32105" height="1.32105" transform="matrix(-1 0 0 1 317.54 84.8469)" fill="#48636F"/>
</g>
<circle cx="292.396" cy="93.434" r="0.660525" fill="#48636F"/>
<circle cx="295.038" cy="93.434" r="0.660525" fill="#48636F"/>
<circle cx="297.68" cy="93.434" r="0.660525" fill="#48636F"/>
<circle cx="300.322" cy="93.434" r="0.660525" fill="#48636F"/>
<circle cx="302.964" cy="93.434" r="0.660525" fill="#48636F"/>
<circle cx="279.714" cy="93.434" r="0.660525" fill="#48636F"/>
<circle cx="283.237" cy="93.434" r="0.660525" fill="#48636F"/>
<circle cx="281.299" cy="93.434" r="0.660525" fill="#48636F"/>
<circle cx="285.174" cy="93.434" r="0.660525" fill="#48636F"/>
<circle cx="287.464" cy="93.434" r="0.660525" fill="#48636F"/>
<circle cx="289.754" cy="93.434" r="0.660525" fill="#48636F"/>
<mask id="mask15" mask-type="alpha" maskUnits="userSpaceOnUse" x="277" y="92" width="2" height="3">
<circle cx="278.128" cy="93.434" r="0.660525" fill="#C4C4C4"/>
</mask>
<g mask="url(#mask15)">
<rect x="277.908" y="92.7734" width="1.32105" height="1.32105" fill="#48636F"/>
</g>
<circle r="0.660525" transform="matrix(-1 0 0 1 315.646 93.434)" fill="#48636F"/>
<circle r="0.660525" transform="matrix(-1 0 0 1 312.123 93.434)" fill="#48636F"/>
<circle r="0.660525" transform="matrix(-1 0 0 1 314.061 93.434)" fill="#48636F"/>
<circle r="0.660525" transform="matrix(-1 0 0 1 310.186 93.434)" fill="#48636F"/>
<circle r="0.660525" transform="matrix(-1 0 0 1 307.896 93.434)" fill="#48636F"/>
<circle r="0.660525" transform="matrix(-1 0 0 1 305.606 93.434)" fill="#48636F"/>
<mask id="mask16" mask-type="alpha" maskUnits="userSpaceOnUse" x="316" y="92" width="2" height="3">
<circle r="0.660525" transform="matrix(-1 0 0 1 317.232 93.434)" fill="#C4C4C4"/>
</mask>
<g mask="url(#mask16)">
<rect width="1.32105" height="1.32105" transform="matrix(-1 0 0 1 317.539 92.7734)" fill="#48636F"/>
</g>
<circle cx="292.396" cy="96.0756" r="0.660525" fill="#48636F"/>
<circle cx="295.038" cy="96.0753" r="0.660525" fill="#48636F"/>
<circle cx="297.68" cy="96.0753" r="0.660525" fill="#48636F"/>
<circle cx="300.322" cy="96.0753" r="0.660525" fill="#48636F"/>
<circle cx="302.964" cy="96.0753" r="0.660525" fill="#48636F"/>
<circle cx="279.714" cy="96.0756" r="0.660525" fill="#48636F"/>
<circle cx="283.237" cy="96.0756" r="0.660525" fill="#48636F"/>
<circle cx="281.299" cy="96.0756" r="0.660525" fill="#48636F"/>
<circle cx="285.174" cy="96.0756" r="0.660525" fill="#48636F"/>
<circle cx="287.464" cy="96.0756" r="0.660525" fill="#48636F"/>
<circle cx="289.754" cy="96.0756" r="0.660525" fill="#48636F"/>
<mask id="mask17" mask-type="alpha" maskUnits="userSpaceOnUse" x="277" y="95" width="2" height="2">
<circle cx="278.128" cy="96.0758" r="0.660525" fill="#C4C4C4"/>
</mask>
<g mask="url(#mask17)">
<rect x="277.908" y="95.4153" width="1.32105" height="1.32105" fill="#48636F"/>
</g>
<circle r="0.660525" transform="matrix(-1 0 0 1 315.646 96.0753)" fill="#48636F"/>
<circle r="0.660525" transform="matrix(-1 0 0 1 312.123 96.0753)" fill="#48636F"/>
<circle r="0.660525" transform="matrix(-1 0 0 1 314.061 96.0753)" fill="#48636F"/>
<circle r="0.660525" transform="matrix(-1 0 0 1 310.186 96.0753)" fill="#48636F"/>
<circle r="0.660525" transform="matrix(-1 0 0 1 307.896 96.0753)" fill="#48636F"/>
<circle r="0.660525" transform="matrix(-1 0 0 1 305.606 96.0753)" fill="#48636F"/>
<mask id="mask18" mask-type="alpha" maskUnits="userSpaceOnUse" x="316" y="95" width="2" height="2">
<circle r="0.660525" transform="matrix(-1 0 0 1 317.232 96.0756)" fill="#C4C4C4"/>
</mask>
<g mask="url(#mask18)">
<rect width="1.32105" height="1.32105" transform="matrix(-1 0 0 1 317.539 95.415)" fill="#48636F"/>
</g>
<circle cx="292.396" cy="104.002" r="0.660525" fill="#48636F"/>
<circle cx="295.038" cy="104.002" r="0.660525" fill="#48636F"/>
<circle cx="297.68" cy="104.002" r="0.660525" fill="#48636F"/>
<circle cx="300.322" cy="104.002" r="0.660525" fill="#48636F"/>
<circle cx="302.964" cy="104.002" r="0.660525" fill="#48636F"/>
<circle cx="279.714" cy="104.002" r="0.660525" fill="#48636F"/>
<circle cx="283.237" cy="104.002" r="0.660525" fill="#48636F"/>
<circle cx="281.299" cy="104.002" r="0.660525" fill="#48636F"/>
<circle cx="285.174" cy="104.002" r="0.660525" fill="#48636F"/>
<circle cx="287.464" cy="104.002" r="0.660525" fill="#48636F"/>
<circle cx="289.754" cy="104.002" r="0.660525" fill="#48636F"/>
<mask id="mask19" mask-type="alpha" maskUnits="userSpaceOnUse" x="277" y="103" width="2" height="2">
<circle cx="278.128" cy="104.003" r="0.660525" fill="#C4C4C4"/>
</mask>
<g mask="url(#mask19)">
<rect x="277.909" y="103.342" width="1.32105" height="1.32105" fill="#48636F"/>
</g>
<circle r="0.660525" transform="matrix(-1 0 0 1 315.646 104.002)" fill="#48636F"/>
<circle r="0.660525" transform="matrix(-1 0 0 1 312.124 104.002)" fill="#48636F"/>
<circle r="0.660525" transform="matrix(-1 0 0 1 314.061 104.002)" fill="#48636F"/>
<circle r="0.660525" transform="matrix(-1 0 0 1 310.186 104.002)" fill="#48636F"/>
<circle r="0.660525" transform="matrix(-1 0 0 1 307.896 104.002)" fill="#48636F"/>
<circle r="0.660525" transform="matrix(-1 0 0 1 305.606 104.002)" fill="#48636F"/>
<mask id="mask20" mask-type="alpha" maskUnits="userSpaceOnUse" x="316" y="103" width="2" height="2">
<circle r="0.660525" transform="matrix(-1 0 0 1 317.232 104.002)" fill="#C4C4C4"/>
</mask>
<g mask="url(#mask20)">
<rect width="1.32105" height="1.32105" transform="matrix(-1 0 0 1 317.54 103.342)" fill="#48636F"/>
</g>
<circle cx="292.396" cy="106.644" r="0.660525" fill="#48636F"/>
<circle cx="295.038" cy="106.644" r="0.660525" fill="#48636F"/>
<circle cx="297.68" cy="106.644" r="0.660525" fill="#48636F"/>
<circle cx="300.322" cy="106.644" r="0.660525" fill="#48636F"/>
<circle cx="302.964" cy="106.644" r="0.660525" fill="#48636F"/>
<circle cx="279.714" cy="106.644" r="0.660525" fill="#48636F"/>
<circle cx="283.237" cy="106.644" r="0.660525" fill="#48636F"/>
<circle cx="281.299" cy="106.644" r="0.660525" fill="#48636F"/>
<circle cx="285.174" cy="106.644" r="0.660525" fill="#48636F"/>
<circle cx="287.464" cy="106.644" r="0.660525" fill="#48636F"/>
<circle cx="289.754" cy="106.644" r="0.660525" fill="#48636F"/>
<mask id="mask21" mask-type="alpha" maskUnits="userSpaceOnUse" x="277" y="105" width="2" height="3">
<circle cx="278.128" cy="106.644" r="0.660525" fill="#C4C4C4"/>
</mask>
<g mask="url(#mask21)">
<rect x="277.909" y="105.984" width="1.32105" height="1.32105" fill="#48636F"/>
</g>
<circle r="0.660525" transform="matrix(-1 0 0 1 315.646 106.644)" fill="#48636F"/>
<circle r="0.660525" transform="matrix(-1 0 0 1 312.124 106.644)" fill="#48636F"/>
<circle r="0.660525" transform="matrix(-1 0 0 1 314.061 106.644)" fill="#48636F"/>
<circle r="0.660525" transform="matrix(-1 0 0 1 310.186 106.644)" fill="#48636F"/>
<circle r="0.660525" transform="matrix(-1 0 0 1 307.896 106.644)" fill="#48636F"/>
<circle r="0.660525" transform="matrix(-1 0 0 1 305.606 106.644)" fill="#48636F"/>
<mask id="mask22" mask-type="alpha" maskUnits="userSpaceOnUse" x="316" y="105" width="2" height="3">
<circle r="0.660525" transform="matrix(-1 0 0 1 317.232 106.644)" fill="#C4C4C4"/>
</mask>
<g mask="url(#mask22)">
<rect width="1.32105" height="1.32105" transform="matrix(-1 0 0 1 317.54 105.984)" fill="#48636F"/>
</g>
<circle cx="292.396" cy="98.7181" r="0.660525" fill="#48636F"/>
<circle cx="295.038" cy="98.7179" r="0.660525" fill="#48636F"/>
<circle cx="297.68" cy="98.7179" r="0.660525" fill="#48636F"/>
<circle cx="300.322" cy="98.7179" r="0.660525" fill="#48636F"/>
<circle cx="302.964" cy="98.7179" r="0.660525" fill="#48636F"/>
<circle cx="279.714" cy="98.7179" r="0.660525" fill="#48636F"/>
<circle cx="283.237" cy="98.7179" r="0.660525" fill="#48636F"/>
<circle cx="281.299" cy="98.7179" r="0.660525" fill="#48636F"/>
<circle cx="285.174" cy="98.7179" r="0.660525" fill="#48636F"/>
<circle cx="287.464" cy="98.7179" r="0.660525" fill="#48636F"/>
<circle cx="289.754" cy="98.7179" r="0.660525" fill="#48636F"/>
<mask id="mask23" mask-type="alpha" maskUnits="userSpaceOnUse" x="277" y="98" width="2" height="2">
<circle cx="278.128" cy="98.7189" r="0.660525" fill="#C4C4C4"/>
</mask>
<g mask="url(#mask23)">
<rect x="277.908" y="98.0574" width="1.32105" height="1.32105" fill="#48636F"/>
</g>
<circle r="0.660525" transform="matrix(-1 0 0 1 315.646 98.7179)" fill="#48636F"/>
<circle r="0.660525" transform="matrix(-1 0 0 1 312.123 98.7179)" fill="#48636F"/>
<circle r="0.660525" transform="matrix(-1 0 0 1 314.061 98.7179)" fill="#48636F"/>
<circle r="0.660525" transform="matrix(-1 0 0 1 310.186 98.7179)" fill="#48636F"/>
<circle r="0.660525" transform="matrix(-1 0 0 1 307.896 98.7179)" fill="#48636F"/>
<circle r="0.660525" transform="matrix(-1 0 0 1 305.606 98.7179)" fill="#48636F"/>
<mask id="mask24" mask-type="alpha" maskUnits="userSpaceOnUse" x="316" y="98" width="2" height="2">
<circle r="0.660525" transform="matrix(-1 0 0 1 317.232 98.7181)" fill="#C4C4C4"/>
</mask>
<g mask="url(#mask24)">
<rect width="1.32105" height="1.32105" transform="matrix(-1 0 0 1 317.539 98.0576)" fill="#48636F"/>
</g>
<circle cx="292.396" cy="101.36" r="0.660525" fill="#48636F"/>
<circle cx="295.038" cy="101.36" r="0.660525" fill="#48636F"/>
<circle cx="297.68" cy="101.36" r="0.660525" fill="#48636F"/>
<circle cx="300.322" cy="101.36" r="0.660525" fill="#48636F"/>
<circle cx="302.964" cy="101.36" r="0.660525" fill="#48636F"/>
<circle cx="279.714" cy="101.36" r="0.660525" fill="#48636F"/>
<circle cx="283.237" cy="101.36" r="0.660525" fill="#48636F"/>
<circle cx="281.299" cy="101.36" r="0.660525" fill="#48636F"/>
<circle cx="285.174" cy="101.36" r="0.660525" fill="#48636F"/>
<circle cx="287.464" cy="101.36" r="0.660525" fill="#48636F"/>
<circle cx="289.754" cy="101.36" r="0.660525" fill="#48636F"/>
<mask id="mask25" mask-type="alpha" maskUnits="userSpaceOnUse" x="277" y="100" width="2" height="3">
<circle cx="278.128" cy="101.361" r="0.660525" fill="#C4C4C4"/>
</mask>
<g mask="url(#mask25)">
<rect x="277.909" y="100.7" width="1.32105" height="1.32105" fill="#48636F"/>
</g>
<circle r="0.660525" transform="matrix(-1 0 0 1 315.646 101.36)" fill="#48636F"/>
<circle r="0.660525" transform="matrix(-1 0 0 1 312.124 101.36)" fill="#48636F"/>
<circle r="0.660525" transform="matrix(-1 0 0 1 314.061 101.36)" fill="#48636F"/>
<circle r="0.660525" transform="matrix(-1 0 0 1 310.186 101.36)" fill="#48636F"/>
<circle r="0.660525" transform="matrix(-1 0 0 1 307.896 101.36)" fill="#48636F"/>
<circle r="0.660525" transform="matrix(-1 0 0 1 305.606 101.36)" fill="#48636F"/>
<mask id="mask26" mask-type="alpha" maskUnits="userSpaceOnUse" x="316" y="100" width="2" height="3">
<circle r="0.660525" transform="matrix(-1 0 0 1 317.232 101.36)" fill="#C4C4C4"/>
</mask>
<g mask="url(#mask26)">
<rect width="1.32105" height="1.32105" transform="matrix(-1 0 0 1 317.54 100.7)" fill="#48636F"/>
</g>
<circle cx="292.396" cy="109.286" r="0.660525" fill="#48636F"/>
<circle cx="295.038" cy="109.286" r="0.660525" fill="#48636F"/>
<circle cx="297.68" cy="109.286" r="0.660525" fill="#48636F"/>
<circle cx="300.322" cy="109.286" r="0.660525" fill="#48636F"/>
<circle cx="302.964" cy="109.286" r="0.660525" fill="#48636F"/>
<circle cx="279.714" cy="109.286" r="0.660525" fill="#48636F"/>
<circle cx="283.237" cy="109.286" r="0.660525" fill="#48636F"/>
<circle cx="281.299" cy="109.286" r="0.660525" fill="#48636F"/>
<circle cx="285.174" cy="109.286" r="0.660525" fill="#48636F"/>
<circle cx="287.464" cy="109.286" r="0.660525" fill="#48636F"/>
<circle cx="289.754" cy="109.286" r="0.660525" fill="#48636F"/>
<mask id="mask27" mask-type="alpha" maskUnits="userSpaceOnUse" x="277" y="108" width="2" height="2">
<circle cx="278.128" cy="109.287" r="0.660525" fill="#C4C4C4"/>
</mask>
<g mask="url(#mask27)">
<rect x="277.908" y="108.626" width="1.32105" height="1.32105" fill="#48636F"/>
</g>
<circle r="0.660525" transform="matrix(-1 0 0 1 315.646 109.286)" fill="#48636F"/>
<circle r="0.660525" transform="matrix(-1 0 0 1 312.123 109.286)" fill="#48636F"/>
<circle r="0.660525" transform="matrix(-1 0 0 1 314.061 109.286)" fill="#48636F"/>
<circle r="0.660525" transform="matrix(-1 0 0 1 310.186 109.286)" fill="#48636F"/>
<circle r="0.660525" transform="matrix(-1 0 0 1 307.896 109.286)" fill="#48636F"/>
<circle r="0.660525" transform="matrix(-1 0 0 1 305.606 109.286)" fill="#48636F"/>
<mask id="mask28" mask-type="alpha" maskUnits="userSpaceOnUse" x="316" y="108" width="2" height="2">
<circle r="0.660525" transform="matrix(-1 0 0 1 317.232 109.287)" fill="#C4C4C4"/>
</mask>
<g mask="url(#mask28)">
<rect width="1.32105" height="1.32105" transform="matrix(-1 0 0 1 317.539 108.626)" fill="#48636F"/>
</g>
<circle cx="292.396" cy="111.929" r="0.660525" fill="#48636F"/>
<circle cx="295.038" cy="111.929" r="0.660525" fill="#48636F"/>
<circle cx="297.68" cy="111.929" r="0.660525" fill="#48636F"/>
<circle cx="300.322" cy="111.929" r="0.660525" fill="#48636F"/>
<circle cx="302.964" cy="111.929" r="0.660525" fill="#48636F"/>
<circle cx="279.714" cy="111.929" r="0.660525" fill="#48636F"/>
<circle cx="283.237" cy="111.929" r="0.660525" fill="#48636F"/>
<circle cx="281.299" cy="111.929" r="0.660525" fill="#48636F"/>
<circle cx="285.174" cy="111.929" r="0.660525" fill="#48636F"/>
<circle cx="287.464" cy="111.929" r="0.660525" fill="#48636F"/>
<circle cx="289.754" cy="111.929" r="0.660525" fill="#48636F"/>
<mask id="mask29" mask-type="alpha" maskUnits="userSpaceOnUse" x="277" y="111" width="2" height="2">
<circle cx="278.128" cy="111.929" r="0.660525" fill="#C4C4C4"/>
</mask>
<g mask="url(#mask29)">
<rect x="277.909" y="111.268" width="1.32105" height="1.32105" fill="#48636F"/>
</g>
<circle r="0.660525" transform="matrix(-1 0 0 1 315.646 111.929)" fill="#48636F"/>
<circle r="0.660525" transform="matrix(-1 0 0 1 312.124 111.929)" fill="#48636F"/>
<circle r="0.660525" transform="matrix(-1 0 0 1 314.061 111.929)" fill="#48636F"/>
<circle r="0.660525" transform="matrix(-1 0 0 1 310.186 111.929)" fill="#48636F"/>
<circle r="0.660525" transform="matrix(-1 0 0 1 307.896 111.929)" fill="#48636F"/>
<circle r="0.660525" transform="matrix(-1 0 0 1 305.606 111.929)" fill="#48636F"/>
<mask id="mask30" mask-type="alpha" maskUnits="userSpaceOnUse" x="316" y="111" width="2" height="2">
<circle r="0.660525" transform="matrix(-1 0 0 1 317.232 111.929)" fill="#C4C4C4"/>
</mask>
<g mask="url(#mask30)">
<rect width="1.32105" height="1.32105" transform="matrix(-1 0 0 1 317.54 111.268)" fill="#48636F"/>
</g>
<circle cx="292.396" cy="119.855" r="0.660525" fill="#48636F"/>
<circle cx="295.038" cy="119.855" r="0.660525" fill="#48636F"/>
<circle cx="297.68" cy="119.855" r="0.660525" fill="#48636F"/>
<circle cx="300.322" cy="119.855" r="0.660525" fill="#48636F"/>
<circle cx="302.964" cy="119.855" r="0.660525" fill="#48636F"/>
<circle cx="279.714" cy="119.855" r="0.660525" fill="#48636F"/>
<circle cx="283.237" cy="119.855" r="0.660525" fill="#48636F"/>
<circle cx="281.299" cy="119.855" r="0.660525" fill="#48636F"/>
<circle cx="285.174" cy="119.855" r="0.660525" fill="#48636F"/>
<circle cx="287.464" cy="119.855" r="0.660525" fill="#48636F"/>
<circle cx="289.754" cy="119.855" r="0.660525" fill="#48636F"/>
<mask id="mask31" mask-type="alpha" maskUnits="userSpaceOnUse" x="277" y="119" width="2" height="2">
<circle cx="278.129" cy="119.855" r="0.660525" fill="#C4C4C4"/>
</mask>
<g mask="url(#mask31)">
<rect x="277.909" y="119.194" width="1.32105" height="1.32105" fill="#48636F"/>
</g>
<circle r="0.660525" transform="matrix(-1 0 0 1 315.646 119.855)" fill="#48636F"/>
<circle r="0.660525" transform="matrix(-1 0 0 1 312.124 119.855)" fill="#48636F"/>
<circle r="0.660525" transform="matrix(-1 0 0 1 314.061 119.855)" fill="#48636F"/>
<circle r="0.660525" transform="matrix(-1 0 0 1 310.186 119.855)" fill="#48636F"/>
<circle r="0.660525" transform="matrix(-1 0 0 1 307.896 119.855)" fill="#48636F"/>
<circle r="0.660525" transform="matrix(-1 0 0 1 305.607 119.855)" fill="#48636F"/>
<mask id="mask32" mask-type="alpha" maskUnits="userSpaceOnUse" x="316" y="119" width="2" height="2">
<circle r="0.660525" transform="matrix(-1 0 0 1 317.232 119.855)" fill="#C4C4C4"/>
</mask>
<g mask="url(#mask32)">
<rect width="1.32105" height="1.32105" transform="matrix(-1 0 0 1 317.54 119.194)" fill="#48636F"/>
</g>
<circle cx="292.396" cy="122.497" r="0.660525" fill="#48636F"/>
<circle cx="295.038" cy="122.497" r="0.660525" fill="#48636F"/>
<circle cx="297.68" cy="122.497" r="0.660525" fill="#48636F"/>
<circle cx="300.322" cy="122.497" r="0.660525" fill="#48636F"/>
<circle cx="302.964" cy="122.497" r="0.660525" fill="#48636F"/>
<circle cx="279.714" cy="122.497" r="0.660525" fill="#48636F"/>
<circle cx="283.237" cy="122.497" r="0.660525" fill="#48636F"/>
<circle cx="281.299" cy="122.497" r="0.660525" fill="#48636F"/>
<circle cx="285.174" cy="122.497" r="0.660525" fill="#48636F"/>
<circle cx="287.464" cy="122.497" r="0.660525" fill="#48636F"/>
<circle cx="289.754" cy="122.497" r="0.660525" fill="#48636F"/>
<mask id="mask33" mask-type="alpha" maskUnits="userSpaceOnUse" x="277" y="121" width="2" height="3">
<circle cx="278.129" cy="122.497" r="0.660525" fill="#C4C4C4"/>
</mask>
<g mask="url(#mask33)">
<rect x="277.909" y="121.837" width="1.32105" height="1.32105" fill="#48636F"/>
</g>
<circle r="0.660525" transform="matrix(-1 0 0 1 315.646 122.497)" fill="#48636F"/>
<circle r="0.660525" transform="matrix(-1 0 0 1 312.124 122.497)" fill="#48636F"/>
<circle r="0.660525" transform="matrix(-1 0 0 1 314.061 122.497)" fill="#48636F"/>
<circle r="0.660525" transform="matrix(-1 0 0 1 310.186 122.497)" fill="#48636F"/>
<circle r="0.660525" transform="matrix(-1 0 0 1 307.896 122.497)" fill="#48636F"/>
<circle r="0.660525" transform="matrix(-1 0 0 1 305.607 122.497)" fill="#48636F"/>
<mask id="mask34" mask-type="alpha" maskUnits="userSpaceOnUse" x="316" y="121" width="2" height="3">
<circle r="0.660525" transform="matrix(-1 0 0 1 317.232 122.497)" fill="#C4C4C4"/>
</mask>
<g mask="url(#mask34)">
<rect width="1.32105" height="1.32105" transform="matrix(-1 0 0 1 317.54 121.837)" fill="#48636F"/>
</g>
<circle cx="292.396" cy="114.571" r="0.660525" fill="#48636F"/>
<circle cx="295.038" cy="114.571" r="0.660525" fill="#48636F"/>
<circle cx="297.68" cy="114.571" r="0.660525" fill="#48636F"/>
<circle cx="300.322" cy="114.571" r="0.660525" fill="#48636F"/>
<circle cx="302.964" cy="114.571" r="0.660525" fill="#48636F"/>
<circle cx="279.714" cy="114.571" r="0.660525" fill="#48636F"/>
<circle cx="283.237" cy="114.571" r="0.660525" fill="#48636F"/>
<circle cx="281.299" cy="114.571" r="0.660525" fill="#48636F"/>
<circle cx="285.174" cy="114.571" r="0.660525" fill="#48636F"/>
<circle cx="287.464" cy="114.571" r="0.660525" fill="#48636F"/>
<circle cx="289.754" cy="114.571" r="0.660525" fill="#48636F"/>
<mask id="mask35" mask-type="alpha" maskUnits="userSpaceOnUse" x="277" y="113" width="2" height="3">
<circle cx="278.128" cy="114.571" r="0.660525" fill="#C4C4C4"/>
</mask>
<g mask="url(#mask35)">
<rect x="277.909" y="113.91" width="1.32105" height="1.32105" fill="#48636F"/>
</g>
<circle r="0.660525" transform="matrix(-1 0 0 1 315.646 114.571)" fill="#48636F"/>
<circle r="0.660525" transform="matrix(-1 0 0 1 312.124 114.571)" fill="#48636F"/>
<circle r="0.660525" transform="matrix(-1 0 0 1 314.061 114.571)" fill="#48636F"/>
<circle r="0.660525" transform="matrix(-1 0 0 1 310.186 114.571)" fill="#48636F"/>
<circle r="0.660525" transform="matrix(-1 0 0 1 307.896 114.571)" fill="#48636F"/>
<circle r="0.660525" transform="matrix(-1 0 0 1 305.606 114.571)" fill="#48636F"/>
<mask id="mask36" mask-type="alpha" maskUnits="userSpaceOnUse" x="316" y="113" width="2" height="3">
<circle r="0.660525" transform="matrix(-1 0 0 1 317.232 114.571)" fill="#C4C4C4"/>
</mask>
<g mask="url(#mask36)">
<rect width="1.32105" height="1.32105" transform="matrix(-1 0 0 1 317.54 113.91)" fill="#48636F"/>
</g>
<circle cx="292.396" cy="117.213" r="0.660525" fill="#48636F"/>
<circle cx="295.038" cy="117.213" r="0.660525" fill="#48636F"/>
<circle cx="297.68" cy="117.213" r="0.660525" fill="#48636F"/>
<circle cx="300.322" cy="117.213" r="0.660525" fill="#48636F"/>
<circle cx="302.964" cy="117.213" r="0.660525" fill="#48636F"/>
<circle cx="279.714" cy="117.213" r="0.660525" fill="#48636F"/>
<circle cx="283.237" cy="117.213" r="0.660525" fill="#48636F"/>
<circle cx="281.299" cy="117.213" r="0.660525" fill="#48636F"/>
<circle cx="285.174" cy="117.213" r="0.660525" fill="#48636F"/>
<circle cx="287.464" cy="117.213" r="0.660525" fill="#48636F"/>
<circle cx="289.754" cy="117.213" r="0.660525" fill="#48636F"/>
<mask id="mask37" mask-type="alpha" maskUnits="userSpaceOnUse" x="277" y="116" width="2" height="2">
<circle cx="278.129" cy="117.213" r="0.660525" fill="#C4C4C4"/>
</mask>
<g mask="url(#mask37)">
<rect x="277.909" y="116.552" width="1.32105" height="1.32105" fill="#48636F"/>
</g>
<circle r="0.660525" transform="matrix(-1 0 0 1 315.646 117.213)" fill="#48636F"/>
<circle r="0.660525" transform="matrix(-1 0 0 1 312.124 117.213)" fill="#48636F"/>
<circle r="0.660525" transform="matrix(-1 0 0 1 314.061 117.213)" fill="#48636F"/>
<circle r="0.660525" transform="matrix(-1 0 0 1 310.186 117.213)" fill="#48636F"/>
<circle r="0.660525" transform="matrix(-1 0 0 1 307.896 117.213)" fill="#48636F"/>
<circle r="0.660525" transform="matrix(-1 0 0 1 305.607 117.213)" fill="#48636F"/>
<mask id="mask38" mask-type="alpha" maskUnits="userSpaceOnUse" x="316" y="116" width="2" height="2">
<circle r="0.660525" transform="matrix(-1 0 0 1 317.232 117.213)" fill="#C4C4C4"/>
</mask>
<g mask="url(#mask38)">
<rect width="1.32105" height="1.32105" transform="matrix(-1 0 0 1 317.54 116.552)" fill="#48636F"/>
</g>
<circle cx="292.396" cy="125.139" r="0.660525" fill="#48636F"/>
<circle cx="295.038" cy="125.139" r="0.660525" fill="#48636F"/>
<circle cx="297.68" cy="125.139" r="0.660525" fill="#48636F"/>
<circle cx="300.322" cy="125.139" r="0.660525" fill="#48636F"/>
<circle cx="302.964" cy="125.139" r="0.660525" fill="#48636F"/>
<circle cx="279.714" cy="125.139" r="0.660525" fill="#48636F"/>
<circle cx="283.237" cy="125.139" r="0.660525" fill="#48636F"/>
<circle cx="281.299" cy="125.139" r="0.660525" fill="#48636F"/>
<circle cx="285.174" cy="125.139" r="0.660525" fill="#48636F"/>
<circle cx="287.464" cy="125.139" r="0.660525" fill="#48636F"/>
<circle cx="289.754" cy="125.139" r="0.660525" fill="#48636F"/>
<mask id="mask39" mask-type="alpha" maskUnits="userSpaceOnUse" x="277" y="124" width="2" height="2">
<circle cx="278.128" cy="125.139" r="0.660525" fill="#C4C4C4"/>
</mask>
<g mask="url(#mask39)">
<rect x="277.909" y="124.478" width="1.32105" height="1.32105" fill="#48636F"/>
</g>
<circle r="0.660525" transform="matrix(-1 0 0 1 315.646 125.139)" fill="#48636F"/>
<circle r="0.660525" transform="matrix(-1 0 0 1 312.124 125.139)" fill="#48636F"/>
<circle r="0.660525" transform="matrix(-1 0 0 1 314.061 125.139)" fill="#48636F"/>
<circle r="0.660525" transform="matrix(-1 0 0 1 310.186 125.139)" fill="#48636F"/>
<circle r="0.660525" transform="matrix(-1 0 0 1 307.896 125.139)" fill="#48636F"/>
<circle r="0.660525" transform="matrix(-1 0 0 1 305.606 125.139)" fill="#48636F"/>
<mask id="mask40" mask-type="alpha" maskUnits="userSpaceOnUse" x="316" y="124" width="2" height="2">
<circle r="0.660525" transform="matrix(-1 0 0 1 317.232 125.139)" fill="#C4C4C4"/>
</mask>
<g mask="url(#mask40)">
<rect width="1.32105" height="1.32105" transform="matrix(-1 0 0 1 317.54 124.478)" fill="#48636F"/>
</g>
<circle cx="292.396" cy="127.781" r="0.660525" fill="#48636F"/>
<circle cx="295.038" cy="127.781" r="0.660525" fill="#48636F"/>
<circle cx="297.68" cy="127.781" r="0.660525" fill="#48636F"/>
<circle cx="300.322" cy="127.781" r="0.660525" fill="#48636F"/>
<circle cx="302.964" cy="127.781" r="0.660525" fill="#48636F"/>
<circle cx="279.714" cy="127.781" r="0.660525" fill="#48636F"/>
<circle cx="283.237" cy="127.781" r="0.660525" fill="#48636F"/>
<circle cx="281.299" cy="127.781" r="0.660525" fill="#48636F"/>
<circle cx="285.174" cy="127.781" r="0.660525" fill="#48636F"/>
<circle cx="287.464" cy="127.781" r="0.660525" fill="#48636F"/>
<circle cx="289.754" cy="127.781" r="0.660525" fill="#48636F"/>
<mask id="mask41" mask-type="alpha" maskUnits="userSpaceOnUse" x="277" y="127" width="2" height="2">
<circle cx="278.128" cy="127.782" r="0.660525" fill="#C4C4C4"/>
</mask>
<g mask="url(#mask41)">
<rect x="277.909" y="127.121" width="1.32105" height="1.32105" fill="#48636F"/>
</g>
<circle r="0.660525" transform="matrix(-1 0 0 1 315.646 127.781)" fill="#48636F"/>
<circle r="0.660525" transform="matrix(-1 0 0 1 312.124 127.781)" fill="#48636F"/>
<circle r="0.660525" transform="matrix(-1 0 0 1 314.061 127.781)" fill="#48636F"/>
<circle r="0.660525" transform="matrix(-1 0 0 1 310.186 127.781)" fill="#48636F"/>
<circle r="0.660525" transform="matrix(-1 0 0 1 307.896 127.781)" fill="#48636F"/>
<circle r="0.660525" transform="matrix(-1 0 0 1 305.606 127.781)" fill="#48636F"/>
<mask id="mask42" mask-type="alpha" maskUnits="userSpaceOnUse" x="316" y="127" width="2" height="2">
<circle r="0.660525" transform="matrix(-1 0 0 1 317.232 127.781)" fill="#C4C4C4"/>
</mask>
<g mask="url(#mask42)">
<rect width="1.32105" height="1.32105" transform="matrix(-1 0 0 1 317.54 127.121)" fill="#48636F"/>
</g>
<circle cx="292.396" cy="135.708" r="0.660525" fill="#48636F"/>
<circle cx="295.038" cy="135.708" r="0.660525" fill="#48636F"/>
<circle cx="297.68" cy="135.708" r="0.660525" fill="#48636F"/>
<circle cx="300.322" cy="135.708" r="0.660525" fill="#48636F"/>
<circle cx="302.964" cy="135.708" r="0.660525" fill="#48636F"/>
<circle cx="279.714" cy="135.708" r="0.660525" fill="#48636F"/>
<circle cx="283.237" cy="135.708" r="0.660525" fill="#48636F"/>
<circle cx="281.299" cy="135.708" r="0.660525" fill="#48636F"/>
<circle cx="285.174" cy="135.708" r="0.660525" fill="#48636F"/>
<circle cx="287.464" cy="135.708" r="0.660525" fill="#48636F"/>
<circle cx="289.754" cy="135.708" r="0.660525" fill="#48636F"/>
<mask id="mask43" mask-type="alpha" maskUnits="userSpaceOnUse" x="277" y="135" width="2" height="2">
<circle cx="278.129" cy="135.708" r="0.660525" fill="#C4C4C4"/>
</mask>
<g mask="url(#mask43)">
<rect x="277.909" y="135.047" width="1.32105" height="1.32105" fill="#48636F"/>
</g>
<circle r="0.660525" transform="matrix(-1 0 0 1 315.646 135.708)" fill="#48636F"/>
<circle r="0.660525" transform="matrix(-1 0 0 1 312.124 135.708)" fill="#48636F"/>
<circle r="0.660525" transform="matrix(-1 0 0 1 314.061 135.708)" fill="#48636F"/>
<circle r="0.660525" transform="matrix(-1 0 0 1 310.186 135.708)" fill="#48636F"/>
<circle r="0.660525" transform="matrix(-1 0 0 1 307.896 135.708)" fill="#48636F"/>
<circle r="0.660525" transform="matrix(-1 0 0 1 305.607 135.708)" fill="#48636F"/>
<mask id="mask44" mask-type="alpha" maskUnits="userSpaceOnUse" x="316" y="135" width="2" height="2">
<circle r="0.660525" transform="matrix(-1 0 0 1 317.232 135.708)" fill="#C4C4C4"/>
</mask>
<g mask="url(#mask44)">
<rect width="1.32105" height="1.32105" transform="matrix(-1 0 0 1 317.54 135.047)" fill="#48636F"/>
</g>
<circle cx="292.396" cy="138.35" r="0.660525" fill="#48636F"/>
<circle cx="295.038" cy="138.35" r="0.660525" fill="#48636F"/>
<circle cx="297.68" cy="138.35" r="0.660525" fill="#48636F"/>
<circle cx="300.322" cy="138.35" r="0.660525" fill="#48636F"/>
<circle cx="302.964" cy="138.35" r="0.660525" fill="#48636F"/>
<circle cx="279.714" cy="138.35" r="0.660525" fill="#48636F"/>
<circle cx="283.237" cy="138.35" r="0.660525" fill="#48636F"/>
<circle cx="281.299" cy="138.35" r="0.660525" fill="#48636F"/>
<circle cx="285.174" cy="138.35" r="0.660525" fill="#48636F"/>
<circle cx="287.464" cy="138.35" r="0.660525" fill="#48636F"/>
<circle cx="289.754" cy="138.35" r="0.660525" fill="#48636F"/>
<mask id="mask45" mask-type="alpha" maskUnits="userSpaceOnUse" x="277" y="137" width="2" height="3">
<circle cx="278.129" cy="138.35" r="0.660525" fill="#C4C4C4"/>
</mask>
<g mask="url(#mask45)">
<rect x="277.909" y="137.689" width="1.32105" height="1.32105" fill="#48636F"/>
</g>
<circle r="0.660525" transform="matrix(-1 0 0 1 315.646 138.35)" fill="#48636F"/>
<circle r="0.660525" transform="matrix(-1 0 0 1 312.124 138.35)" fill="#48636F"/>
<circle r="0.660525" transform="matrix(-1 0 0 1 314.061 138.35)" fill="#48636F"/>
<circle r="0.660525" transform="matrix(-1 0 0 1 310.186 138.35)" fill="#48636F"/>
<circle r="0.660525" transform="matrix(-1 0 0 1 307.896 138.35)" fill="#48636F"/>
<circle r="0.660525" transform="matrix(-1 0 0 1 305.607 138.35)" fill="#48636F"/>
<mask id="mask46" mask-type="alpha" maskUnits="userSpaceOnUse" x="316" y="137" width="2" height="3">
<circle r="0.660525" transform="matrix(-1 0 0 1 317.232 138.35)" fill="#C4C4C4"/>
</mask>
<g mask="url(#mask46)">
<rect width="1.32105" height="1.32105" transform="matrix(-1 0 0 1 317.54 137.689)" fill="#48636F"/>
</g>
<circle cx="292.396" cy="130.423" r="0.660525" fill="#48636F"/>
<circle cx="295.038" cy="130.423" r="0.660525" fill="#48636F"/>
<circle cx="297.68" cy="130.423" r="0.660525" fill="#48636F"/>
<circle cx="300.322" cy="130.423" r="0.660525" fill="#48636F"/>
<circle cx="302.964" cy="130.423" r="0.660525" fill="#48636F"/>
<circle cx="279.714" cy="130.423" r="0.660525" fill="#48636F"/>
<circle cx="283.237" cy="130.423" r="0.660525" fill="#48636F"/>
<circle cx="281.299" cy="130.423" r="0.660525" fill="#48636F"/>
<circle cx="285.174" cy="130.423" r="0.660525" fill="#48636F"/>
<circle cx="287.464" cy="130.423" r="0.660525" fill="#48636F"/>
<circle cx="289.754" cy="130.423" r="0.660525" fill="#48636F"/>
<mask id="mask47" mask-type="alpha" maskUnits="userSpaceOnUse" x="277" y="129" width="2" height="3">
<circle cx="278.128" cy="130.423" r="0.660525" fill="#C4C4C4"/>
</mask>
<g mask="url(#mask47)">
<rect x="277.909" y="129.762" width="1.32105" height="1.32105" fill="#48636F"/>
</g>
<circle r="0.660525" transform="matrix(-1 0 0 1 315.646 130.423)" fill="#48636F"/>
<circle r="0.660525" transform="matrix(-1 0 0 1 312.124 130.423)" fill="#48636F"/>
<circle r="0.660525" transform="matrix(-1 0 0 1 314.061 130.423)" fill="#48636F"/>
<circle r="0.660525" transform="matrix(-1 0 0 1 310.186 130.423)" fill="#48636F"/>
<circle r="0.660525" transform="matrix(-1 0 0 1 307.896 130.423)" fill="#48636F"/>
<circle r="0.660525" transform="matrix(-1 0 0 1 305.606 130.423)" fill="#48636F"/>
<mask id="mask48" mask-type="alpha" maskUnits="userSpaceOnUse" x="316" y="129" width="2" height="3">
<circle r="0.660525" transform="matrix(-1 0 0 1 317.232 130.423)" fill="#C4C4C4"/>
</mask>
<g mask="url(#mask48)">
<rect width="1.32105" height="1.32105" transform="matrix(-1 0 0 1 317.54 129.763)" fill="#48636F"/>
</g>
<circle cx="292.396" cy="133.066" r="0.660525" fill="#48636F"/>
<circle cx="295.038" cy="133.065" r="0.660525" fill="#48636F"/>
<circle cx="297.68" cy="133.065" r="0.660525" fill="#48636F"/>
<circle cx="300.322" cy="133.065" r="0.660525" fill="#48636F"/>
<circle cx="302.964" cy="133.065" r="0.660525" fill="#48636F"/>
<circle cx="279.714" cy="133.065" r="0.660525" fill="#48636F"/>
<circle cx="283.237" cy="133.065" r="0.660525" fill="#48636F"/>
<circle cx="281.299" cy="133.065" r="0.660525" fill="#48636F"/>
<circle cx="285.174" cy="133.065" r="0.660525" fill="#48636F"/>
<circle cx="287.464" cy="133.065" r="0.660525" fill="#48636F"/>
<circle cx="289.754" cy="133.065" r="0.660525" fill="#48636F"/>
<mask id="mask49" mask-type="alpha" maskUnits="userSpaceOnUse" x="277" y="132" width="2" height="2">
<circle cx="278.129" cy="133.066" r="0.660525" fill="#C4C4C4"/>
</mask>
<g mask="url(#mask49)">
<rect x="277.909" y="132.405" width="1.32105" height="1.32105" fill="#48636F"/>
</g>
<circle r="0.660525" transform="matrix(-1 0 0 1 315.646 133.065)" fill="#48636F"/>
<circle r="0.660525" transform="matrix(-1 0 0 1 312.124 133.065)" fill="#48636F"/>
<circle r="0.660525" transform="matrix(-1 0 0 1 314.061 133.065)" fill="#48636F"/>
<circle r="0.660525" transform="matrix(-1 0 0 1 310.186 133.065)" fill="#48636F"/>
<circle r="0.660525" transform="matrix(-1 0 0 1 307.896 133.065)" fill="#48636F"/>
<circle r="0.660525" transform="matrix(-1 0 0 1 305.607 133.065)" fill="#48636F"/>
<mask id="mask50" mask-type="alpha" maskUnits="userSpaceOnUse" x="316" y="132" width="2" height="2">
<circle r="0.660525" transform="matrix(-1 0 0 1 317.232 133.066)" fill="#C4C4C4"/>
</mask>
<g mask="url(#mask50)">
<rect width="1.32105" height="1.32105" transform="matrix(-1 0 0 1 317.54 132.405)" fill="#48636F"/>
</g>
<circle cx="292.396" cy="146.276" r="0.660525" fill="#48636F"/>
<circle cx="295.038" cy="146.276" r="0.660525" fill="#48636F"/>
<circle cx="297.68" cy="146.276" r="0.660525" fill="#48636F"/>
<circle cx="300.322" cy="146.276" r="0.660525" fill="#48636F"/>
<circle cx="302.964" cy="146.276" r="0.660525" fill="#48636F"/>
<circle cx="279.714" cy="146.276" r="0.660525" fill="#48636F"/>
<circle cx="283.237" cy="146.276" r="0.660525" fill="#48636F"/>
<circle cx="281.299" cy="146.276" r="0.660525" fill="#48636F"/>
<circle cx="285.174" cy="146.276" r="0.660525" fill="#48636F"/>
<circle cx="287.464" cy="146.276" r="0.660525" fill="#48636F"/>
<circle cx="289.754" cy="146.276" r="0.660525" fill="#48636F"/>
<mask id="mask51" mask-type="alpha" maskUnits="userSpaceOnUse" x="277" y="145" width="2" height="2">
<circle cx="278.129" cy="146.276" r="0.660525" fill="#C4C4C4"/>
</mask>
<g mask="url(#mask51)">
<rect x="277.909" y="145.615" width="1.32105" height="1.32105" fill="#48636F"/>
</g>
<circle r="0.660525" transform="matrix(-1 0 0 1 315.646 146.276)" fill="#48636F"/>
<circle r="0.660525" transform="matrix(-1 0 0 1 312.124 146.276)" fill="#48636F"/>
<circle r="0.660525" transform="matrix(-1 0 0 1 314.061 146.276)" fill="#48636F"/>
<circle r="0.660525" transform="matrix(-1 0 0 1 310.186 146.276)" fill="#48636F"/>
<circle r="0.660525" transform="matrix(-1 0 0 1 307.896 146.276)" fill="#48636F"/>
<circle r="0.660525" transform="matrix(-1 0 0 1 305.607 146.276)" fill="#48636F"/>
<mask id="mask52" mask-type="alpha" maskUnits="userSpaceOnUse" x="316" y="145" width="2" height="2">
<circle r="0.660525" transform="matrix(-1 0 0 1 317.232 146.276)" fill="#C4C4C4"/>
</mask>
<g mask="url(#mask52)">
<rect width="1.32105" height="1.32105" transform="matrix(-1 0 0 1 317.54 145.615)" fill="#48636F"/>
</g>
<circle cx="292.396" cy="140.992" r="0.660525" fill="#48636F"/>
<circle cx="295.038" cy="140.992" r="0.660525" fill="#48636F"/>
<circle cx="297.68" cy="140.992" r="0.660525" fill="#48636F"/>
<circle cx="300.322" cy="140.992" r="0.660525" fill="#48636F"/>
<circle cx="302.964" cy="140.992" r="0.660525" fill="#48636F"/>
<circle cx="279.714" cy="140.992" r="0.660525" fill="#48636F"/>
<circle cx="283.237" cy="140.992" r="0.660525" fill="#48636F"/>
<circle cx="281.299" cy="140.992" r="0.660525" fill="#48636F"/>
<circle cx="285.174" cy="140.992" r="0.660525" fill="#48636F"/>
<circle cx="287.464" cy="140.992" r="0.660525" fill="#48636F"/>
<circle cx="289.754" cy="140.992" r="0.660525" fill="#48636F"/>
<mask id="mask53" mask-type="alpha" maskUnits="userSpaceOnUse" x="277" y="140" width="2" height="2">
<circle cx="278.128" cy="140.992" r="0.660525" fill="#C4C4C4"/>
</mask>
<g mask="url(#mask53)">
<rect x="277.909" y="140.331" width="1.32105" height="1.32105" fill="#48636F"/>
</g>
<circle r="0.660525" transform="matrix(-1 0 0 1 315.646 140.992)" fill="#48636F"/>
<circle r="0.660525" transform="matrix(-1 0 0 1 312.124 140.992)" fill="#48636F"/>
<circle r="0.660525" transform="matrix(-1 0 0 1 314.061 140.992)" fill="#48636F"/>
<circle r="0.660525" transform="matrix(-1 0 0 1 310.186 140.992)" fill="#48636F"/>
<circle r="0.660525" transform="matrix(-1 0 0 1 307.896 140.992)" fill="#48636F"/>
<circle r="0.660525" transform="matrix(-1 0 0 1 305.606 140.992)" fill="#48636F"/>
<mask id="mask54" mask-type="alpha" maskUnits="userSpaceOnUse" x="316" y="140" width="2" height="2">
<circle r="0.660525" transform="matrix(-1 0 0 1 317.232 140.992)" fill="#C4C4C4"/>
</mask>
<g mask="url(#mask54)">
<rect width="1.32105" height="1.32105" transform="matrix(-1 0 0 1 317.54 140.331)" fill="#48636F"/>
</g>
<circle cx="292.396" cy="143.634" r="0.660525" fill="#48636F"/>
<circle cx="295.038" cy="143.634" r="0.660525" fill="#48636F"/>
<circle cx="297.68" cy="143.634" r="0.660525" fill="#48636F"/>
<circle cx="300.322" cy="143.634" r="0.660525" fill="#48636F"/>
<circle cx="302.964" cy="143.634" r="0.660525" fill="#48636F"/>
<circle cx="279.714" cy="143.634" r="0.660525" fill="#48636F"/>
<circle cx="283.237" cy="143.634" r="0.660525" fill="#48636F"/>
<circle cx="281.299" cy="143.634" r="0.660525" fill="#48636F"/>
<circle cx="285.174" cy="143.634" r="0.660525" fill="#48636F"/>
<circle cx="287.464" cy="143.634" r="0.660525" fill="#48636F"/>
<circle cx="289.754" cy="143.634" r="0.660525" fill="#48636F"/>
<mask id="mask55" mask-type="alpha" maskUnits="userSpaceOnUse" x="277" y="142" width="2" height="3">
<circle cx="278.129" cy="143.634" r="0.660525" fill="#C4C4C4"/>
</mask>
<g mask="url(#mask55)">
<rect x="277.909" y="142.973" width="1.32105" height="1.32105" fill="#48636F"/>
</g>
<circle r="0.660525" transform="matrix(-1 0 0 1 315.646 143.634)" fill="#48636F"/>
<circle r="0.660525" transform="matrix(-1 0 0 1 312.124 143.634)" fill="#48636F"/>
<circle r="0.660525" transform="matrix(-1 0 0 1 314.061 143.634)" fill="#48636F"/>
<circle r="0.660525" transform="matrix(-1 0 0 1 310.186 143.634)" fill="#48636F"/>
<circle r="0.660525" transform="matrix(-1 0 0 1 307.896 143.634)" fill="#48636F"/>
<circle r="0.660525" transform="matrix(-1 0 0 1 305.607 143.634)" fill="#48636F"/>
<mask id="mask56" mask-type="alpha" maskUnits="userSpaceOnUse" x="316" y="142" width="2" height="3">
<circle r="0.660525" transform="matrix(-1 0 0 1 317.232 143.634)" fill="#C4C4C4"/>
</mask>
<g mask="url(#mask56)">
<rect width="1.32105" height="1.32105" transform="matrix(-1 0 0 1 317.54 142.973)" fill="#48636F"/>
</g>
<rect x="112.128" y="16.194" width="73.5016" height="104.326" rx="5" transform="rotate(-7 112.128 16.194)" fill="#F8FAFB" stroke="#192A32" stroke-width="4"/>
<path d="M140.299 43.745L141.345 43.6165L140.312 35.2084L139.392 35.3214L137.553 37.7481L138.263 38.3136L139.436 36.7235L140.299 43.745Z" fill="#333333"/>
<path d="M142.454 39.2193C142.705 41.2615 143.896 43.4569 146.202 43.1736C148.497 42.8919 149.134 40.4721 148.883 38.4299C148.631 36.3752 147.43 34.2065 145.136 34.4882C142.829 34.7715 142.202 37.1646 142.454 39.2193ZM147.811 38.5615C148.017 40.2381 147.689 42.0442 146.088 42.2408C144.487 42.4374 143.731 40.7643 143.525 39.0878C143.32 37.4112 143.65 35.6176 145.25 35.4211C146.851 35.2245 147.606 36.8849 147.811 38.5615Z" fill="#333333"/>
<path d="M150.128 36.9719C150.175 37.35 150.528 37.6265 150.907 37.5801C151.285 37.5336 151.561 37.1798 151.515 36.8016C151.468 36.4234 151.114 36.147 150.736 36.1934C150.358 36.2399 150.082 36.5937 150.128 36.9719ZM150.732 41.8881C150.778 42.2663 151.132 42.5428 151.51 42.4963C151.888 42.4499 152.165 42.096 152.118 41.7179C152.072 41.3397 151.718 41.0633 151.34 41.1097C150.962 41.1561 150.685 41.51 150.732 41.8881Z" fill="#333333"/>
<path d="M153.164 40.9113C153.774 41.6042 154.898 42.106 156.322 41.9311C158.175 41.7036 159.172 40.5447 159 39.1455C158.834 37.7967 157.581 37.2851 156.805 37.3165C157.582 37.0803 158.529 36.3499 158.38 35.1397C158.205 33.7153 156.869 33.0476 155.256 33.2457C153.957 33.4051 153.056 34.0916 152.541 34.897L153.201 35.4813C153.737 34.7374 154.374 34.3008 155.294 34.1878C156.316 34.0625 157.235 34.4614 157.349 35.3943C157.468 36.3649 156.624 36.8908 155.566 37.0208C155.225 37.0626 154.834 37.1106 154.694 37.115L154.812 38.073C154.936 38.045 155.327 37.997 155.68 37.9536C156.915 37.802 157.827 38.1379 157.955 39.1842C158.074 40.1548 157.405 40.8512 156.182 41.0014C155.186 41.1236 154.273 40.7751 153.701 40.1799L153.164 40.9113Z" fill="#333333"/>
<path d="M160.652 40.0303C161.385 40.7849 162.356 41.1903 163.78 41.0154C165.469 40.808 166.638 39.5896 166.427 37.8753C166.215 36.1483 164.824 35.3466 163.425 35.5184C162.58 35.6221 161.905 36.0632 161.551 36.5162L161.192 33.5916L165.289 33.0886L165.175 32.1558L160.031 32.7873L160.589 37.3253L161.39 37.4956C161.889 36.8713 162.49 36.5544 163.234 36.4631C164.368 36.3238 165.249 36.9322 165.385 38.0415C165.511 39.0626 164.813 39.9417 163.666 40.0825C162.632 40.2094 161.851 39.8958 161.21 39.258L160.652 40.0303Z" fill="#333333"/>
<line x1="147.349" y1="112.279" x2="174.328" y2="108.966" stroke="#192A32" stroke-linecap="round"/>
<path d="M228.636 32.1556C228.636 32.1556 229.238 38.3671 232.042 46.8351" stroke="#B296FF" stroke-width="2" stroke-linecap="round" stroke-linejoin="round"/>
<path d="M278.198 13.4709C278.198 13.4709 281.823 18.5713 285.215 26.8368" stroke="#B296FF" stroke-width="2" stroke-linecap="round" stroke-linejoin="round"/>
<path fill-rule="evenodd" clip-rule="evenodd" d="M226.106 33.4904C222.638 19.1416 230.318 4.36583 243.797 -0.959963C257.715 -6.46029 273.938 -0.353613 280.869 13.2289L277.027 15.0508C271.446 4.11199 256.531 -1.26774 245.322 3.16136C234.466 7.45111 227.557 20.2287 230.35 31.7841L226.106 33.4904Z" fill="#500FCF"/>
<path fill-rule="evenodd" clip-rule="evenodd" d="M231.983 59.8452L235.407 58.5787L231.133 47.0316L227.705 48.2976C227.433 48.3985 227.291 48.6966 227.389 48.962L231.305 59.5444C231.404 59.8114 231.708 59.9472 231.983 59.8452Z" fill="#6719FF"/>
<path fill-rule="evenodd" clip-rule="evenodd" d="M235.729 61.447L239.449 60.0576L232.829 42.0653L229.108 43.4513C228.46 43.6924 228.226 44.6808 228.585 45.6585L233.905 60.1144C234.264 61.0921 235.081 61.6885 235.729 61.447Z" fill="#F0F5F7"/>
<mask id="mask57" mask-type="alpha" maskUnits="userSpaceOnUse" x="231" y="39" width="13" height="23">
<path fill-rule="evenodd" clip-rule="evenodd" d="M231.7 41.374L236.592 39.5934L243.977 59.8822L239.085 61.6628L231.7 41.374Z" fill="white"/>
</mask>
<g mask="url(#mask57)">
<path fill-rule="evenodd" clip-rule="evenodd" d="M242.665 60.3401L239.729 61.429C239.424 61.5418 239.069 61.3467 238.94 60.9974L231.94 42.0328C231.81 41.6841 231.954 41.3056 232.258 41.1932L235.194 40.1022C235.497 39.9904 235.853 40.185 235.982 40.5359L242.982 59.4967C243.112 59.8476 242.97 60.2272 242.665 60.3401Z" fill="#6719FF"/>
</g>
<path fill-rule="evenodd" clip-rule="evenodd" d="M293.31 36.785L290.624 37.7791L286.351 26.2279L289.04 25.2326C289.304 25.1349 289.597 25.2727 289.696 25.5381L293.609 36.1227C293.708 36.3898 293.575 36.6866 293.31 36.785Z" fill="#6719FF"/>
<path fill-rule="evenodd" clip-rule="evenodd" d="M291.911 40.9267L288.174 42.3219L281.555 24.3292L285.292 22.9341C285.931 22.6956 286.741 23.2944 287.1 24.2704L292.418 38.7252C292.778 39.7029 292.551 40.6883 291.911 40.9267Z" fill="#F0F5F7"/>
<path fill-rule="evenodd" clip-rule="evenodd" d="M286.17 44.429L289.108 43.3395C289.413 43.2266 289.556 42.8479 289.427 42.4981L282.412 23.4981C282.283 23.1465 281.926 22.9514 281.624 23.0649L278.687 24.1544C278.382 24.2673 278.24 24.6476 278.369 24.9975L285.381 43.9964C285.511 44.3479 285.867 44.5414 286.17 44.429Z" fill="#6719FF"/>
<path d="M422.236 97.2556C423.719 96.8159 428.5 99.0689 427.511 101.377C426.029 104.835 419.598 100.717 422.236 97.2556Z" fill="white"/>
<path d="M420.752 97.4203C420.917 94.453 417.125 91.6505 414.488 95.1124C411.85 98.5743 420.587 100.388 420.752 97.4203Z" fill="white" stroke="white"/>
<path d="M422.401 96.1015C423.61 93.7386 426.489 90.035 428.335 94.1233C430.643 99.2337 422.566 98.5742 422.401 96.1015Z" fill="white"/>
<path d="M422.401 96.1015C423.61 93.7386 426.489 90.035 428.335 94.1233C430.643 99.2337 422.566 98.5742 422.401 96.1015Z" fill="url(#paint1_linear)"/>
<path d="M422.401 96.1015C423.61 93.7386 426.489 90.035 428.335 94.1233C430.643 99.2337 422.566 98.5742 422.401 96.1015Z" stroke="white"/>
<path d="M422.401 96.1015C423.61 93.7386 426.489 90.035 428.335 94.1233C430.643 99.2337 422.566 98.5742 422.401 96.1015Z" stroke="url(#paint2_linear)"/>
<path d="M420.752 97.9148C419.104 99.2886 416.4 102.465 418.774 104.179C421.741 106.322 423.719 99.5633 420.752 97.9148Z" fill="white"/>
<path d="M420.752 97.9148C419.104 99.2886 416.4 102.465 418.774 104.179C421.741 106.322 423.719 99.5633 420.752 97.9148Z" fill="url(#paint3_linear)"/>
<path d="M420.752 97.9148C419.104 99.2886 416.4 102.465 418.774 104.179C421.741 106.322 423.719 99.5633 420.752 97.9148Z" stroke="white"/>
<path d="M420.752 97.9148C419.104 99.2886 416.4 102.465 418.774 104.179C421.741 106.322 423.719 99.5633 420.752 97.9148Z" stroke="url(#paint4_linear)"/>
<path d="M421.906 96.4313C419.873 95.662 417.422 92.376 421.247 91.3209C426.027 90.0021 422.895 95.2774 421.906 96.4313Z" fill="white"/>
<path d="M421.906 96.4313C419.873 95.662 417.422 92.376 421.247 91.3209C426.027 90.0021 422.895 95.2774 421.906 96.4313Z" fill="url(#paint5_linear)"/>
<path d="M421.906 96.4313C419.873 95.662 417.422 92.376 421.247 91.3209C426.027 90.0021 422.895 95.2774 421.906 96.4313Z" stroke="white"/>
<path d="M421.906 96.4313C419.873 95.662 417.422 92.376 421.247 91.3209C426.027 90.0021 422.895 95.2774 421.906 96.4313Z" stroke="url(#paint6_linear)"/>
<circle cx="421.576" cy="97.0908" r="1.31881" fill="#F95671"/>
<path d="M421.081 95.9366C420.751 95.1123 421.411 93.4638 421.081 92.9692" stroke="#FC8FA1" stroke-width="0.5" stroke-linecap="round"/>
<path d="M422.071 96.1011C422.84 95.3318 424.477 93.8262 424.873 93.9581" stroke="#FC8FA1" stroke-width="0.5" stroke-linecap="round"/>
<path d="M421.905 97.9148C422.29 98.3544 423.158 99.2336 423.554 99.2336" stroke="#FC8FA1" stroke-width="0.5" stroke-linecap="round"/>
<path d="M420.751 96.4309C420.422 95.9913 419.663 95.1121 419.268 95.1121" stroke="#FC8FA1" stroke-width="0.5" stroke-linecap="round"/>
<path d="M421.576 95.9366C422.235 94.9475 422.895 93.1341 422.73 92.9692" stroke="#FC8FA1" stroke-width="0.5" stroke-linecap="round"/>
<path d="M420.916 97.0902C420.367 96.9803 419.202 96.6286 418.938 96.1011" stroke="#FC8FA1" stroke-width="0.5" stroke-linecap="round"/>
<path d="M421.905 96.9253C422.62 97.0901 423.719 96.101 425.532 95.6064" stroke="#FC8FA1" stroke-width="0.5" stroke-linecap="round"/>
<circle cx="421.247" cy="92.8046" r="0.329703" fill="#D49E0A"/>
<circle cx="422.895" cy="92.8046" r="0.329703" fill="#D49E0A"/>
<circle cx="424.873" cy="93.7936" r="0.329703" fill="#D49E0A"/>
<circle cx="423.884" cy="99.3988" r="0.329703" fill="#D49E0A"/>
<circle cx="418.939" cy="96.1017" r="0.329703" fill="#D49E0A"/>
<circle cx="419.268" cy="95.1124" r="0.329703" fill="#D49E0A"/>
<path d="M314.806 18.4424C313.323 18.8821 308.542 16.6291 309.531 14.3212C311.013 10.8626 317.444 14.9806 314.806 18.4424Z" fill="white"/>
<path d="M316.29 18.2775C316.125 21.2448 319.917 24.0473 322.554 20.5854C325.192 17.1235 316.455 15.3102 316.29 18.2775Z" fill="white" stroke="white"/>
<path d="M314.641 19.5967C313.432 21.9596 310.553 25.6633 308.707 21.575C306.399 16.4646 314.477 17.124 314.641 19.5967Z" fill="white"/>
<path d="M314.641 19.5967C313.432 21.9596 310.553 25.6633 308.707 21.575C306.399 16.4646 314.477 17.124 314.641 19.5967Z" fill="url(#paint7_linear)"/>
<path d="M314.641 19.5967C313.432 21.9596 310.553 25.6633 308.707 21.575C306.399 16.4646 314.477 17.124 314.641 19.5967Z" stroke="white"/>
<path d="M314.641 19.5967C313.432 21.9596 310.553 25.6633 308.707 21.575C306.399 16.4646 314.477 17.124 314.641 19.5967Z" stroke="url(#paint8_linear)"/>
<path d="M316.29 17.7832C317.938 16.4094 320.642 13.2333 318.268 11.5189C315.301 9.37578 313.323 16.1347 316.29 17.7832Z" fill="white"/>
<path d="M316.29 17.7832C317.938 16.4094 320.642 13.2333 318.268 11.5189C315.301 9.37578 313.323 16.1347 316.29 17.7832Z" fill="url(#paint9_linear)"/>
<path d="M316.29 17.7832C317.938 16.4094 320.642 13.2333 318.268 11.5189C315.301 9.37578 313.323 16.1347 316.29 17.7832Z" stroke="white"/>
<path d="M316.29 17.7832C317.938 16.4094 320.642 13.2333 318.268 11.5189C315.301 9.37578 313.323 16.1347 316.29 17.7832Z" stroke="url(#paint10_linear)"/>
<path d="M315.136 19.2667C317.169 20.036 319.62 23.322 315.795 24.3771C311.015 25.6959 314.147 20.4206 315.136 19.2667Z" fill="white"/>
<path d="M315.136 19.2667C317.169 20.036 319.62 23.322 315.795 24.3771C311.015 25.6959 314.147 20.4206 315.136 19.2667Z" fill="url(#paint11_linear)"/>
<path d="M315.136 19.2667C317.169 20.036 319.62 23.322 315.795 24.3771C311.015 25.6959 314.147 20.4206 315.136 19.2667Z" stroke="white"/>
<path d="M315.136 19.2667C317.169 20.036 319.62 23.322 315.795 24.3771C311.015 25.6959 314.147 20.4206 315.136 19.2667Z" stroke="url(#paint12_linear)"/>
<circle cx="315.465" cy="18.6072" r="1.31881" transform="rotate(-180 315.465 18.6072)" fill="#F95671"/>
<path d="M315.96 19.7612C316.29 20.5854 315.631 22.234 315.96 22.7285" stroke="#FC8FA1" stroke-width="0.5" stroke-linecap="round"/>
<path d="M314.971 19.5964C314.202 20.3657 312.564 21.8713 312.169 21.7394" stroke="#FC8FA1" stroke-width="0.5" stroke-linecap="round"/>
<path d="M315.136 17.783C314.751 17.3434 313.883 16.4641 313.487 16.4641" stroke="#FC8FA1" stroke-width="0.5" stroke-linecap="round"/>
<path d="M316.29 19.2666C316.62 19.7062 317.378 20.5854 317.774 20.5854" stroke="#FC8FA1" stroke-width="0.5" stroke-linecap="round"/>
<path d="M315.466 19.7612C314.806 20.7503 314.147 22.5637 314.312 22.7285" stroke="#FC8FA1" stroke-width="0.5" stroke-linecap="round"/>
<path d="M316.125 18.6071C316.675 18.717 317.84 19.0687 318.103 19.5962" stroke="#FC8FA1" stroke-width="0.5" stroke-linecap="round"/>
<path d="M315.136 18.7718C314.422 18.6069 313.323 19.596 311.509 20.0906" stroke="#FC8FA1" stroke-width="0.5" stroke-linecap="round"/>
<circle cx="315.795" cy="22.8934" r="0.329703" transform="rotate(-180 315.795 22.8934)" fill="#D49E0A"/>
<circle cx="314.147" cy="22.8934" r="0.329703" transform="rotate(-180 314.147 22.8934)" fill="#D49E0A"/>
<circle cx="312.169" cy="21.9044" r="0.329703" transform="rotate(-180 312.169 21.9044)" fill="#D49E0A"/>
<circle cx="311.509" cy="19.9262" r="0.329703" transform="rotate(-180 311.509 19.9262)" fill="#D49E0A"/>
<circle cx="313.158" cy="16.2992" r="0.329703" transform="rotate(-180 313.158 16.2992)" fill="#D49E0A"/>
<circle cx="318.103" cy="19.5963" r="0.329703" transform="rotate(-180 318.103 19.5963)" fill="#D49E0A"/>
<circle cx="317.774" cy="20.5856" r="0.329703" transform="rotate(-180 317.774 20.5856)" fill="#D49E0A"/>
<path d="M239.382 104.705C240.866 105.145 245.646 102.892 244.657 100.584C243.175 97.125 236.744 101.243 239.382 104.705Z" fill="white"/>
<path d="M237.898 104.54C238.063 107.508 234.272 110.31 231.634 106.848C228.996 103.386 237.733 101.573 237.898 104.54Z" fill="white" stroke="white"/>
<path d="M239.547 105.859C240.756 108.222 243.635 111.926 245.482 107.837C247.79 102.727 239.712 103.386 239.547 105.859Z" fill="white"/>
<path d="M239.547 105.859C240.756 108.222 243.635 111.926 245.482 107.837C247.79 102.727 239.712 103.386 239.547 105.859Z" fill="url(#paint13_linear)"/>
<path d="M239.547 105.859C240.756 108.222 243.635 111.926 245.482 107.837C247.79 102.727 239.712 103.386 239.547 105.859Z" stroke="white"/>
<path d="M239.547 105.859C240.756 108.222 243.635 111.926 245.482 107.837C247.79 102.727 239.712 103.386 239.547 105.859Z" stroke="url(#paint14_linear)"/>
<path d="M237.898 104.046C236.25 102.672 233.546 99.496 235.92 97.7815C238.887 95.6385 240.865 102.397 237.898 104.046Z" fill="white"/>
<path d="M237.898 104.046C236.25 102.672 233.546 99.496 235.92 97.7815C238.887 95.6385 240.865 102.397 237.898 104.046Z" fill="url(#paint15_linear)"/>
<path d="M237.898 104.046C236.25 102.672 233.546 99.496 235.92 97.7815C238.887 95.6385 240.865 102.397 237.898 104.046Z" stroke="white"/>
<path d="M237.898 104.046C236.25 102.672 233.546 99.496 235.92 97.7815C238.887 95.6385 240.865 102.397 237.898 104.046Z" stroke="url(#paint16_linear)"/>
<path d="M239.052 105.529C237.019 106.299 234.568 109.585 238.393 110.64C243.174 111.959 240.041 106.683 239.052 105.529Z" fill="white"/>
<path d="M239.052 105.529C237.019 106.299 234.568 109.585 238.393 110.64C243.174 111.959 240.041 106.683 239.052 105.529Z" fill="url(#paint17_linear)"/>
<path d="M239.052 105.529C237.019 106.299 234.568 109.585 238.393 110.64C243.174 111.959 240.041 106.683 239.052 105.529Z" stroke="white"/>
<path d="M239.052 105.529C237.019 106.299 234.568 109.585 238.393 110.64C243.174 111.959 240.041 106.683 239.052 105.529Z" stroke="url(#paint18_linear)"/>
<circle r="1.31881" transform="matrix(1 0 0 -1 238.723 104.87)" fill="#F95671"/>
<path d="M238.228 106.024C237.899 106.848 238.558 108.496 238.228 108.991" stroke="#FC8FA1" stroke-width="0.5" stroke-linecap="round"/>
<path d="M239.217 105.859C239.986 106.628 241.624 108.134 242.02 108.002" stroke="#FC8FA1" stroke-width="0.5" stroke-linecap="round"/>
<path d="M239.052 104.046C239.437 103.606 240.305 102.727 240.701 102.727" stroke="#FC8FA1" stroke-width="0.5" stroke-linecap="round"/>
<path d="M237.898 105.529C237.568 105.969 236.81 106.848 236.414 106.848" stroke="#FC8FA1" stroke-width="0.5" stroke-linecap="round"/>
<path d="M238.722 106.024C239.382 107.013 240.041 108.826 239.876 108.991" stroke="#FC8FA1" stroke-width="0.5" stroke-linecap="round"/>
<path d="M238.063 104.87C237.514 104.98 236.349 105.332 236.085 105.859" stroke="#FC8FA1" stroke-width="0.5" stroke-linecap="round"/>
<path d="M239.052 105.035C239.766 104.87 240.865 105.859 242.679 106.354" stroke="#FC8FA1" stroke-width="0.5" stroke-linecap="round"/>
<circle r="0.329703" transform="matrix(1 0 0 -1 238.393 109.156)" fill="#D49E0A"/>
<circle r="0.329703" transform="matrix(1 0 0 -1 240.041 109.156)" fill="#D49E0A"/>
<circle r="0.329703" transform="matrix(1 0 0 -1 242.02 108.167)" fill="#D49E0A"/>
<circle r="0.329703" transform="matrix(1 0 0 -1 242.679 106.189)" fill="#D49E0A"/>
<circle r="0.329703" transform="matrix(1 0 0 -1 241.031 102.562)" fill="#D49E0A"/>
<circle r="0.329703" transform="matrix(1 0 0 -1 236.085 105.859)" fill="#D49E0A"/>
<circle r="0.329703" transform="matrix(1 0 0 -1 236.415 106.848)" fill="#D49E0A"/>
<path d="M137.785 141.411C136.302 140.972 131.521 143.225 132.51 145.533C133.992 148.991 140.423 144.873 137.785 141.411Z" fill="white"/>
<path d="M139.269 141.576C139.104 138.608 142.896 135.806 145.533 139.268C148.171 142.73 139.434 144.543 139.269 141.576Z" fill="white" stroke="white"/>
<path d="M137.62 140.257C136.411 137.894 133.532 134.191 131.686 138.279C129.378 143.389 137.455 142.73 137.62 140.257Z" fill="white"/>
<path d="M137.62 140.257C136.411 137.894 133.532 134.191 131.686 138.279C129.378 143.389 137.455 142.73 137.62 140.257Z" fill="url(#paint19_linear)"/>
<path d="M137.62 140.257C136.411 137.894 133.532 134.191 131.686 138.279C129.378 143.389 137.455 142.73 137.62 140.257Z" stroke="white"/>
<path d="M137.62 140.257C136.411 137.894 133.532 134.191 131.686 138.279C129.378 143.389 137.455 142.73 137.62 140.257Z" stroke="url(#paint20_linear)"/>
<path d="M139.269 142.07C140.917 143.444 143.621 146.62 141.247 148.335C138.28 150.478 136.302 143.719 139.269 142.07Z" fill="white"/>
<path d="M139.269 142.07C140.917 143.444 143.621 146.62 141.247 148.335C138.28 150.478 136.302 143.719 139.269 142.07Z" fill="url(#paint21_linear)"/>
<path d="M139.269 142.07C140.917 143.444 143.621 146.62 141.247 148.335C138.28 150.478 136.302 143.719 139.269 142.07Z" stroke="white"/>
<path d="M139.269 142.07C140.917 143.444 143.621 146.62 141.247 148.335C138.28 150.478 136.302 143.719 139.269 142.07Z" stroke="url(#paint22_linear)"/>
<path d="M138.115 140.587C140.148 139.818 142.599 136.531 138.774 135.476C133.993 134.158 137.126 139.433 138.115 140.587Z" fill="white"/>
<path d="M138.115 140.587C140.148 139.818 142.599 136.531 138.774 135.476C133.993 134.158 137.126 139.433 138.115 140.587Z" fill="url(#paint23_linear)"/>
<path d="M138.115 140.587C140.148 139.818 142.599 136.531 138.774 135.476C133.993 134.158 137.126 139.433 138.115 140.587Z" stroke="white"/>
<path d="M138.115 140.587C140.148 139.818 142.599 136.531 138.774 135.476C133.993 134.158 137.126 139.433 138.115 140.587Z" stroke="url(#paint24_linear)"/>
<circle r="1.31881" transform="matrix(-1 0 0 1 138.445 141.246)" fill="#F95671"/>
<path d="M138.939 140.092C139.269 139.268 138.61 137.62 138.939 137.125" stroke="#FC8FA1" stroke-width="0.5" stroke-linecap="round"/>
<path d="M137.95 140.257C137.181 139.488 135.543 137.982 135.148 138.114" stroke="#FC8FA1" stroke-width="0.5" stroke-linecap="round"/>
<path d="M138.115 142.071C137.73 142.51 136.862 143.389 136.466 143.389" stroke="#FC8FA1" stroke-width="0.5" stroke-linecap="round"/>
<path d="M139.269 140.587C139.599 140.147 140.357 139.268 140.753 139.268" stroke="#FC8FA1" stroke-width="0.5" stroke-linecap="round"/>
<path d="M138.445 140.092C137.785 139.103 137.126 137.29 137.291 137.125" stroke="#FC8FA1" stroke-width="0.5" stroke-linecap="round"/>
<path d="M139.104 141.246C139.654 141.136 140.819 140.784 141.082 140.257" stroke="#FC8FA1" stroke-width="0.5" stroke-linecap="round"/>
<path d="M138.115 141.081C137.401 141.246 136.302 140.257 134.488 139.762" stroke="#FC8FA1" stroke-width="0.5" stroke-linecap="round"/>
<circle r="0.329703" transform="matrix(-1 0 0 1 138.774 136.96)" fill="#D49E0A"/>
<circle r="0.329703" transform="matrix(-1 0 0 1 137.126 136.96)" fill="#D49E0A"/>
<circle r="0.329703" transform="matrix(-1 0 0 1 135.147 137.949)" fill="#D49E0A"/>
<circle r="0.329703" transform="matrix(-1 0 0 1 134.488 139.927)" fill="#D49E0A"/>
<circle r="0.329703" transform="matrix(-1 0 0 1 136.137 143.554)" fill="#D49E0A"/>
<circle r="0.329703" transform="matrix(-1 0 0 1 141.082 140.257)" fill="#D49E0A"/>
<circle r="0.329703" transform="matrix(-1 0 0 1 140.752 139.268)" fill="#D49E0A"/>
<path d="M8.22965 26.9655C9.71331 26.5259 14.494 28.7789 13.5049 31.0868C12.0226 34.5454 5.59202 30.4274 8.22965 26.9655Z" fill="white"/>
<path d="M6.74604 27.1307C6.91089 24.1634 3.11938 21.3609 0.481685 24.8228C-2.15601 28.2847 6.58118 30.098 6.74604 27.1307Z" fill="white" stroke="white"/>
<path d="M8.39459 25.8119C9.6035 23.4491 12.4829 19.7454 14.3292 23.8337C16.6372 28.9441 8.55944 28.2847 8.39459 25.8119Z" fill="white"/>
<path d="M8.39459 25.8119C9.6035 23.4491 12.4829 19.7454 14.3292 23.8337C16.6372 28.9441 8.55944 28.2847 8.39459 25.8119Z" fill="url(#paint25_linear)"/>
<path d="M8.39459 25.8119C9.6035 23.4491 12.4829 19.7454 14.3292 23.8337C16.6372 28.9441 8.55944 28.2847 8.39459 25.8119Z" stroke="white"/>
<path d="M8.39459 25.8119C9.6035 23.4491 12.4829 19.7454 14.3292 23.8337C16.6372 28.9441 8.55944 28.2847 8.39459 25.8119Z" stroke="url(#paint26_linear)"/>
<path d="M6.74601 27.6255C5.0975 28.9992 2.39393 32.1754 4.76779 33.8898C7.73512 36.0329 9.71328 29.274 6.74601 27.6255Z" fill="white"/>
<path d="M6.74601 27.6255C5.0975 28.9992 2.39393 32.1754 4.76779 33.8898C7.73512 36.0329 9.71328 29.274 6.74601 27.6255Z" fill="url(#paint27_linear)"/>
<path d="M6.74601 27.6255C5.0975 28.9992 2.39393 32.1754 4.76779 33.8898C7.73512 36.0329 9.71328 29.274 6.74601 27.6255Z" stroke="white"/>
<path d="M6.74601 27.6255C5.0975 28.9992 2.39393 32.1754 4.76779 33.8898C7.73512 36.0329 9.71328 29.274 6.74601 27.6255Z" stroke="url(#paint28_linear)"/>
<path d="M7.90016 26.1418C5.86699 25.3725 3.41621 22.0864 7.24076 21.0314C12.0214 19.7126 8.88926 24.9878 7.90016 26.1418Z" fill="white"/>
<path d="M7.90016 26.1418C5.86699 25.3725 3.41621 22.0864 7.24076 21.0314C12.0214 19.7126 8.88926 24.9878 7.90016 26.1418Z" fill="url(#paint29_linear)"/>
<path d="M7.90016 26.1418C5.86699 25.3725 3.41621 22.0864 7.24076 21.0314C12.0214 19.7126 8.88926 24.9878 7.90016 26.1418Z" stroke="white"/>
<path d="M7.90016 26.1418C5.86699 25.3725 3.41621 22.0864 7.24076 21.0314C12.0214 19.7126 8.88926 24.9878 7.90016 26.1418Z" stroke="url(#paint30_linear)"/>
<circle cx="7.5704" cy="26.801" r="1.31881" fill="#F95671"/>
<path d="M7.07588 25.647C6.7462 24.8228 7.40556 23.1742 7.07588 22.6797" stroke="#FC8FA1" stroke-width="0.5" stroke-linecap="round"/>
<path d="M8.06476 25.8121C8.83406 25.0428 10.4716 23.5371 10.8672 23.669" stroke="#FC8FA1" stroke-width="0.5" stroke-linecap="round"/>
<path d="M7.90021 27.6255C8.28486 28.0651 9.15308 28.9443 9.54872 28.9443" stroke="#FC8FA1" stroke-width="0.5" stroke-linecap="round"/>
<path d="M6.74611 26.1418C6.41641 25.7022 5.65809 24.823 5.26245 24.823" stroke="#FC8FA1" stroke-width="0.5" stroke-linecap="round"/>
<path d="M7.57025 25.647C8.22966 24.6579 8.88906 22.8445 8.72421 22.6797" stroke="#FC8FA1" stroke-width="0.5" stroke-linecap="round"/>
<path d="M6.91096 26.8014C6.36145 26.6915 5.1965 26.3398 4.93274 25.8123" stroke="#FC8FA1" stroke-width="0.5" stroke-linecap="round"/>
<path d="M7.90021 26.6364C8.61456 26.8013 9.71357 25.8122 11.5269 25.3176" stroke="#FC8FA1" stroke-width="0.5" stroke-linecap="round"/>
<circle cx="7.24065" cy="22.515" r="0.329703" fill="#D49E0A"/>
<circle cx="8.88915" cy="22.515" r="0.329703" fill="#D49E0A"/>
<circle cx="10.8674" cy="23.5043" r="0.329703" fill="#D49E0A"/>
<circle cx="11.5267" cy="25.4823" r="0.329703" fill="#D49E0A"/>
<circle cx="9.87841" cy="29.109" r="0.329703" fill="#D49E0A"/>
<circle cx="4.93267" cy="25.8119" r="0.329703" fill="#D49E0A"/>
<circle cx="5.26238" cy="24.8231" r="0.329703" fill="#D49E0A"/>
</g>
<defs>
<linearGradient id="paint0_linear" x1="297.724" y1="71.8564" x2="297.724" y2="152" gradientUnits="userSpaceOnUse">
<stop stop-color="white"/>
<stop offset="1" stop-color="white" stop-opacity="0"/>
</linearGradient>
<linearGradient id="paint1_linear" x1="425.575" y1="92.2927" x2="425.575" y2="97.9779" gradientUnits="userSpaceOnUse">
<stop stop-color="white"/>
<stop offset="1" stop-color="white" stop-opacity="0"/>
</linearGradient>
<linearGradient id="paint2_linear" x1="425.575" y1="92.2927" x2="425.575" y2="97.9779" gradientUnits="userSpaceOnUse">
<stop stop-color="white"/>
<stop offset="1" stop-color="white" stop-opacity="0"/>
</linearGradient>
<linearGradient id="paint3_linear" x1="420.03" y1="97.9148" x2="420.03" y2="104.595" gradientUnits="userSpaceOnUse">
<stop stop-color="white"/>
<stop offset="1" stop-color="white" stop-opacity="0"/>
</linearGradient>
<linearGradient id="paint4_linear" x1="420.03" y1="97.9148" x2="420.03" y2="104.595" gradientUnits="userSpaceOnUse">
<stop stop-color="white"/>
<stop offset="1" stop-color="white" stop-opacity="0"/>
</linearGradient>
<linearGradient id="paint5_linear" x1="421.534" y1="91.1108" x2="421.534" y2="96.4313" gradientUnits="userSpaceOnUse">
<stop stop-color="white"/>
<stop offset="1" stop-color="white" stop-opacity="0"/>
</linearGradient>
<linearGradient id="paint6_linear" x1="421.534" y1="91.1108" x2="421.534" y2="96.4313" gradientUnits="userSpaceOnUse">
<stop stop-color="white"/>
<stop offset="1" stop-color="white" stop-opacity="0"/>
</linearGradient>
<linearGradient id="paint7_linear" x1="311.467" y1="23.4055" x2="311.467" y2="17.7203" gradientUnits="userSpaceOnUse">
<stop stop-color="white"/>
<stop offset="1" stop-color="white" stop-opacity="0"/>
</linearGradient>
<linearGradient id="paint8_linear" x1="311.467" y1="23.4055" x2="311.467" y2="17.7203" gradientUnits="userSpaceOnUse">
<stop stop-color="white"/>
<stop offset="1" stop-color="white" stop-opacity="0"/>
</linearGradient>
<linearGradient id="paint9_linear" x1="317.012" y1="17.7832" x2="317.012" y2="11.1031" gradientUnits="userSpaceOnUse">
<stop stop-color="white"/>
<stop offset="1" stop-color="white" stop-opacity="0"/>
</linearGradient>
<linearGradient id="paint10_linear" x1="317.012" y1="17.7832" x2="317.012" y2="11.1031" gradientUnits="userSpaceOnUse">
<stop stop-color="white"/>
<stop offset="1" stop-color="white" stop-opacity="0"/>
</linearGradient>
<linearGradient id="paint11_linear" x1="315.508" y1="24.5872" x2="315.508" y2="19.2667" gradientUnits="userSpaceOnUse">
<stop stop-color="white"/>
<stop offset="1" stop-color="white" stop-opacity="0"/>
</linearGradient>
<linearGradient id="paint12_linear" x1="315.508" y1="24.5872" x2="315.508" y2="19.2667" gradientUnits="userSpaceOnUse">
<stop stop-color="white"/>
<stop offset="1" stop-color="white" stop-opacity="0"/>
</linearGradient>
<linearGradient id="paint13_linear" x1="242.722" y1="109.668" x2="242.722" y2="103.983" gradientUnits="userSpaceOnUse">
<stop stop-color="white"/>
<stop offset="1" stop-color="white" stop-opacity="0"/>
</linearGradient>
<linearGradient id="paint14_linear" x1="242.722" y1="109.668" x2="242.722" y2="103.983" gradientUnits="userSpaceOnUse">
<stop stop-color="white"/>
<stop offset="1" stop-color="white" stop-opacity="0"/>
</linearGradient>
<linearGradient id="paint15_linear" x1="237.176" y1="104.046" x2="237.176" y2="97.3658" gradientUnits="userSpaceOnUse">
<stop stop-color="white"/>
<stop offset="1" stop-color="white" stop-opacity="0"/>
</linearGradient>
<linearGradient id="paint16_linear" x1="237.176" y1="104.046" x2="237.176" y2="97.3658" gradientUnits="userSpaceOnUse">
<stop stop-color="white"/>
<stop offset="1" stop-color="white" stop-opacity="0"/>
</linearGradient>
<linearGradient id="paint17_linear" x1="238.68" y1="110.85" x2="238.68" y2="105.529" gradientUnits="userSpaceOnUse">
<stop stop-color="white"/>
<stop offset="1" stop-color="white" stop-opacity="0"/>
</linearGradient>
<linearGradient id="paint18_linear" x1="238.68" y1="110.85" x2="238.68" y2="105.529" gradientUnits="userSpaceOnUse">
<stop stop-color="white"/>
<stop offset="1" stop-color="white" stop-opacity="0"/>
</linearGradient>
<linearGradient id="paint19_linear" x1="134.446" y1="136.448" x2="134.446" y2="142.134" gradientUnits="userSpaceOnUse">
<stop stop-color="white"/>
<stop offset="1" stop-color="white" stop-opacity="0"/>
</linearGradient>
<linearGradient id="paint20_linear" x1="134.446" y1="136.448" x2="134.446" y2="142.134" gradientUnits="userSpaceOnUse">
<stop stop-color="white"/>
<stop offset="1" stop-color="white" stop-opacity="0"/>
</linearGradient>
<linearGradient id="paint21_linear" x1="139.991" y1="142.07" x2="139.991" y2="148.75" gradientUnits="userSpaceOnUse">
<stop stop-color="white"/>
<stop offset="1" stop-color="white" stop-opacity="0"/>
</linearGradient>
<linearGradient id="paint22_linear" x1="139.991" y1="142.07" x2="139.991" y2="148.75" gradientUnits="userSpaceOnUse">
<stop stop-color="white"/>
<stop offset="1" stop-color="white" stop-opacity="0"/>
</linearGradient>
<linearGradient id="paint23_linear" x1="138.487" y1="135.266" x2="138.487" y2="140.587" gradientUnits="userSpaceOnUse">
<stop stop-color="white"/>
<stop offset="1" stop-color="white" stop-opacity="0"/>
</linearGradient>
<linearGradient id="paint24_linear" x1="138.487" y1="135.266" x2="138.487" y2="140.587" gradientUnits="userSpaceOnUse">
<stop stop-color="white"/>
<stop offset="1" stop-color="white" stop-opacity="0"/>
</linearGradient>
<linearGradient id="paint25_linear" x1="11.5691" y1="22.0032" x2="11.5691" y2="27.6883" gradientUnits="userSpaceOnUse">
<stop stop-color="white"/>
<stop offset="1" stop-color="white" stop-opacity="0"/>
</linearGradient>
<linearGradient id="paint26_linear" x1="11.5691" y1="22.0032" x2="11.5691" y2="27.6883" gradientUnits="userSpaceOnUse">
<stop stop-color="white"/>
<stop offset="1" stop-color="white" stop-opacity="0"/>
</linearGradient>
<linearGradient id="paint27_linear" x1="6.02358" y1="27.6255" x2="6.02358" y2="34.3055" gradientUnits="userSpaceOnUse">
<stop stop-color="white"/>
<stop offset="1" stop-color="white" stop-opacity="0"/>
</linearGradient>
<linearGradient id="paint28_linear" x1="6.02358" y1="27.6255" x2="6.02358" y2="34.3055" gradientUnits="userSpaceOnUse">
<stop stop-color="white"/>
<stop offset="1" stop-color="white" stop-opacity="0"/>
</linearGradient>
<linearGradient id="paint29_linear" x1="7.52776" y1="20.8213" x2="7.52776" y2="26.1418" gradientUnits="userSpaceOnUse">
<stop stop-color="white"/>
<stop offset="1" stop-color="white" stop-opacity="0"/>
</linearGradient>
<linearGradient id="paint30_linear" x1="7.52776" y1="20.8213" x2="7.52776" y2="26.1418" gradientUnits="userSpaceOnUse">
<stop stop-color="white"/>
<stop offset="1" stop-color="white" stop-opacity="0"/>
</linearGradient>
</defs>
</svg>
