<svg width="467" height="187" viewBox="0 0 467 187" fill="none" xmlns="http://www.w3.org/2000/svg">
<mask id="mask0" mask-type="alpha" maskUnits="userSpaceOnUse" x="4" y="135" width="5" height="10">
<path fill-rule="evenodd" clip-rule="evenodd" d="M6.87018 135.574L8.99572 136.026L7.09378 144.974L4.96824 144.522L6.87018 135.574Z" fill="white"/>
</mask>
<g mask="url(#mask0)">
<path fill-rule="evenodd" clip-rule="evenodd" d="M5.52612 144.641C5.50382 144.636 5.48201 144.629 5.46242 144.622C5.16466 144.521 5.0034 144.195 5.10698 143.894L7.67711 136.264C7.77847 135.963 8.11065 135.814 8.40189 135.902C8.69742 136.002 8.85868 136.329 8.75462 136.632L6.18497 144.26C6.09064 144.539 5.80479 144.7 5.52612 144.641Z" fill="#231F20"/>
</g>
<path fill-rule="evenodd" clip-rule="evenodd" d="M9.87279 146.163C9.84919 146.158 9.82606 146.151 9.80529 146.144C9.48954 146.039 9.31556 145.709 9.42067 145.412L12.0407 137.821C12.1439 137.521 12.4967 137.371 12.7992 137.468C13.115 137.572 13.289 137.903 13.1834 138.203L10.5638 145.791C10.4677 146.069 10.1679 146.226 9.87279 146.163Z" fill="#231F20"/>
<path fill-rule="evenodd" clip-rule="evenodd" d="M14.4839 147.691C14.4603 147.686 14.4372 147.679 14.4164 147.672C14.1006 147.568 13.9262 147.239 14.0318 146.94L16.6496 139.348C16.7528 139.048 17.0857 138.898 17.4105 138.995C17.7239 139.1 17.8983 139.428 17.7923 139.73L15.1749 147.319C15.0788 147.597 14.779 147.754 14.4839 147.691Z" fill="#231F20"/>
<path fill-rule="evenodd" clip-rule="evenodd" d="M19.3556 149.275C19.332 149.27 19.3089 149.263 19.2881 149.256C18.9723 149.151 18.7979 148.823 18.9035 148.524L21.5212 140.932C21.6268 140.633 21.9673 140.482 22.2821 140.579C22.5955 140.684 22.77 141.012 22.6639 141.314L20.0466 148.903C19.9505 149.181 19.6507 149.338 19.3556 149.275Z" fill="#231F20"/>
<path fill-rule="evenodd" clip-rule="evenodd" d="M24.172 151.121C24.1484 151.116 24.1253 151.109 24.1045 151.102C23.7888 150.997 23.6143 150.669 23.7199 150.37L26.3378 142.778C26.4434 142.478 26.7876 142.333 27.0987 142.425C27.4121 142.529 27.5865 142.857 27.4804 143.159L24.863 150.749C24.7669 151.027 24.4671 151.184 24.172 151.121Z" fill="#231F20"/>
<path fill-rule="evenodd" clip-rule="evenodd" d="M27.8787 143.137C21.1554 140.794 14.4367 138.452 7.71612 136.108C18.3862 105.008 29.0538 73.9091 39.7237 42.809C40.2159 41.3744 41.7015 40.5328 43.1851 40.8481L49.3427 42.157L27.8787 143.137Z" fill="#9069FF"/>
<path fill-rule="evenodd" clip-rule="evenodd" d="M23.3484 167.669C23.0203 167.599 22.8121 167.29 22.8784 166.978L24.5361 159.191C24.6023 158.879 24.9205 158.682 25.2463 158.751C25.572 158.821 25.7826 159.13 25.7163 159.442L24.0586 167.229C23.9919 167.543 23.6742 167.738 23.3484 167.669Z" fill="#231F20"/>
<path fill-rule="evenodd" clip-rule="evenodd" d="M27.6412 169.403C27.3155 169.334 27.1049 169.025 27.1712 168.713L28.8265 160.925C28.8928 160.613 29.211 160.416 29.5367 160.486C29.8625 160.555 30.0731 160.864 30.0068 161.176L28.3514 168.964C28.2852 169.276 27.967 169.473 27.6412 169.403Z" fill="#231F20"/>
<path fill-rule="evenodd" clip-rule="evenodd" d="M32.5134 170.987C32.1876 170.918 31.9771 170.609 32.0434 170.297L33.6987 162.509C33.765 162.197 34.0832 162 34.4089 162.07C34.7347 162.139 34.9453 162.448 34.879 162.76L33.2236 170.548C33.1573 170.86 32.8392 171.057 32.5134 170.987Z" fill="#231F20"/>
<path fill-rule="evenodd" clip-rule="evenodd" d="M62.0303 172.053C49.5083 167.764 36.9887 163.477 24.4667 159.188L49.3425 42.1569L85.9422 49.9364C87.0226 50.166 87.7123 51.228 87.4827 52.3085L62.0303 172.053Z" fill="#500FCF"/>
<rect x="44.7935" y="63.6814" width="39.38" height="10" transform="rotate(12 44.7935 63.6814)" fill="#F0F5F7"/>
<rect x="40.2195" y="85.2007" width="39.38" height="10" transform="rotate(12 40.2195 85.2007)" fill="#F0F5F7"/>
<rect x="35.6454" y="106.72" width="39.38" height="10" transform="rotate(12 35.6454 106.72)" fill="#F0F5F7"/>
<rect x="31.0714" y="128.239" width="39.38" height="10" transform="rotate(12 31.0714 128.239)" fill="#F0F5F7"/>
<path fill-rule="evenodd" clip-rule="evenodd" d="M37.122 172.515C36.7939 172.445 36.5857 172.136 36.652 171.825L38.3097 164.037C38.376 163.725 38.6941 163.529 39.0199 163.598C39.3457 163.667 39.5562 163.976 39.49 164.288L37.8323 172.075C37.7655 172.39 37.4478 172.584 37.122 172.515Z" fill="#231F20"/>
<path fill-rule="evenodd" clip-rule="evenodd" d="M41.4693 173.987C41.1435 173.918 40.9329 173.609 40.9992 173.297L42.6569 165.51C42.7232 165.198 43.0414 165.001 43.3671 165.07C43.6929 165.139 43.9035 165.449 43.8372 165.761L42.1795 173.548C42.1132 173.86 41.795 174.057 41.4693 173.987Z" fill="#231F20"/>
<path fill-rule="evenodd" clip-rule="evenodd" d="M46.3409 175.571C46.0128 175.502 45.8045 175.193 45.8708 174.881L47.5286 167.094C47.5948 166.782 47.913 166.585 48.2388 166.654C48.5645 166.723 48.7751 167.033 48.7089 167.344L47.0511 175.132C46.9843 175.446 46.6667 175.641 46.3409 175.571Z" fill="#231F20"/>
<path fill-rule="evenodd" clip-rule="evenodd" d="M51.4206 177.474C51.0949 177.404 50.8843 177.095 50.9506 176.783L52.6059 168.995C52.6722 168.683 52.9904 168.487 53.3161 168.556C53.6419 168.625 53.8525 168.934 53.7862 169.246L52.1308 177.034C52.0646 177.346 51.7464 177.543 51.4206 177.474Z" fill="#231F20"/>
<path fill-rule="evenodd" clip-rule="evenodd" d="M56.0303 179.002C55.7046 178.932 55.494 178.623 55.5603 178.311L57.2156 170.523C57.2819 170.212 57.6001 170.015 57.9258 170.084C58.2516 170.153 58.4622 170.462 58.3959 170.774L56.7405 178.562C56.6743 178.874 56.3561 179.071 56.0303 179.002Z" fill="#231F20"/>
<mask id="mask1" mask-type="alpha" maskUnits="userSpaceOnUse" x="58" y="171" width="5" height="10">
<path fill-rule="evenodd" clip-rule="evenodd" d="M60.6061 171.328L62.2791 171.683L60.4091 180.481L58.7362 180.125L60.6061 171.328Z" fill="white"/>
</mask>
<g mask="url(#mask1)">
<path fill-rule="evenodd" clip-rule="evenodd" d="M59.8511 180.362C59.5434 180.297 59.3468 179.994 59.4122 179.687L61.0452 172.004C61.1106 171.696 61.4134 171.5 61.721 171.565C62.0287 171.63 62.2253 171.933 62.1599 172.241L60.5269 179.923C60.4615 180.231 60.1588 180.428 59.8511 180.362Z" fill="#231F20"/>
</g>
<path d="M408.525 58.9437C408.525 69.2701 399.936 77.6937 389.275 77.6937C378.614 77.6937 370.025 69.2701 370.025 58.9437C370.025 48.6173 378.614 40.1937 389.275 40.1937C399.936 40.1937 408.525 48.6173 408.525 58.9437Z" fill="#192A32" fill-opacity="0.2" stroke="#192A32" stroke-width="2.5"/>
<path d="M461.525 58.9437C461.525 69.2561 452.838 77.6937 442.025 77.6937C431.212 77.6937 422.525 69.2561 422.525 58.9437C422.525 48.6314 431.212 40.1937 442.025 40.1937C452.838 40.1937 461.525 48.6314 461.525 58.9437Z" fill="#192A32" fill-opacity="0.2" stroke="#192A32" stroke-width="2.5"/>
<line x1="409.025" y1="53.1938" x2="421.525" y2="53.1938" stroke="#192A32" stroke-width="1.5" stroke-linecap="round"/>
<path d="M393.275 39.4437C393.275 39.4437 406.994 40.4437 415.775 40.4437C424.555 40.4437 438.275 39.4437 438.275 39.4437" stroke="#192A32" stroke-width="1.5" stroke-linecap="round"/>
<path d="M373.275 47.6938C373.689 47.6938 374.025 47.3581 374.025 46.9438C374.025 46.5296 373.689 46.1938 373.275 46.1938V47.6938ZM365.121 54.5762C364.918 54.9372 365.046 55.3945 365.407 55.5975C365.768 55.8006 366.226 55.6726 366.429 55.3115L365.121 54.5762ZM369.988 47.4536L369.334 47.0859L369.988 47.4536ZM373.275 46.1938H370.86V47.6938H373.275V46.1938ZM369.334 47.0859L365.121 54.5762L366.429 55.3115L370.642 47.8213L369.334 47.0859ZM370.86 46.1938C370.228 46.1938 369.644 46.5349 369.334 47.0859L370.642 47.8213C370.686 47.7426 370.769 47.6938 370.86 47.6938V46.1938Z" fill="#192A32"/>
<path d="M457.775 46.6938C457.361 46.6938 457.025 46.3581 457.025 45.9438C457.025 45.5296 457.361 45.1938 457.775 45.1938V46.6938ZM465.929 53.5762C466.132 53.9372 466.004 54.3945 465.643 54.5975C465.282 54.8006 464.824 54.6726 464.621 54.3115L465.929 53.5762ZM461.062 46.4536L461.715 46.0859L461.062 46.4536ZM457.775 45.1938H460.19V46.6938H457.775V45.1938ZM461.715 46.0859L465.929 53.5762L464.621 54.3115L460.408 46.8213L461.715 46.0859ZM460.19 45.1938C460.822 45.1938 461.405 45.5349 461.715 46.0859L460.408 46.8213C460.364 46.7426 460.28 46.6938 460.19 46.6938V45.1938Z" fill="#192A32"/>
<rect x="365.275" y="53.9438" width="4" height="3" rx="1" fill="#192A32"/>
<rect x="462.275" y="53.9438" width="4" height="3" rx="1" fill="#192A32"/>
<path d="M366.48 107.148C366.619 106.238 367.93 106.238 368.069 107.148C368.1 107.347 368.204 107.528 368.362 107.654C369.08 108.229 368.424 109.364 367.567 109.03C367.379 108.956 367.171 108.956 366.983 109.03C366.125 109.364 365.47 108.229 366.188 107.654C366.346 107.528 366.45 107.347 366.48 107.148Z" fill="white"/>
<path d="M363.48 111.148C363.619 110.238 364.93 110.238 365.069 111.148C365.1 111.347 365.204 111.528 365.362 111.654C366.08 112.229 365.424 113.364 364.567 113.03C364.379 112.956 364.171 112.956 363.983 113.03C363.125 113.364 362.47 112.229 363.188 111.654C363.346 111.528 363.45 111.347 363.48 111.148Z" fill="white"/>
<path d="M372.48 112.148C372.619 111.238 373.93 111.238 374.069 112.148C374.1 112.347 374.204 112.528 374.362 112.654C375.08 113.229 374.424 114.364 373.567 114.03C373.379 113.956 373.171 113.956 372.983 114.03C372.125 114.364 371.47 113.229 372.188 112.654C372.346 112.528 372.45 112.347 372.48 112.148Z" fill="white"/>
<path d="M370.48 115.148C370.619 114.238 371.93 114.238 372.069 115.148C372.1 115.347 372.204 115.528 372.362 115.654C373.08 116.229 372.424 117.364 371.567 117.03C371.379 116.956 371.171 116.956 370.983 117.03C370.125 117.364 369.47 116.229 370.188 115.654C370.346 115.528 370.45 115.347 370.48 115.148Z" fill="white"/>
<path d="M356.48 118.148C356.619 117.238 357.93 117.238 358.069 118.148C358.1 118.347 358.204 118.528 358.362 118.654C359.08 119.229 358.424 120.364 357.567 120.03C357.379 119.956 357.171 119.956 356.983 120.03C356.125 120.364 355.47 119.229 356.188 118.654C356.346 118.528 356.45 118.347 356.48 118.148Z" fill="white"/>
<path d="M362.48 123.148C362.619 122.238 363.93 122.238 364.069 123.148C364.1 123.347 364.204 123.528 364.362 123.654C365.08 124.229 364.424 125.364 363.567 125.03C363.379 124.956 363.171 124.956 362.983 125.03C362.125 125.364 361.47 124.229 362.188 123.654C362.346 123.528 362.45 123.347 362.48 123.148Z" fill="white"/>
<path d="M375.48 123.148C375.619 122.238 376.93 122.238 377.069 123.148C377.1 123.347 377.204 123.528 377.362 123.654C378.08 124.229 377.424 125.364 376.567 125.03C376.379 124.956 376.171 124.956 375.983 125.03C375.125 125.364 374.47 124.229 375.188 123.654C375.346 123.528 375.45 123.347 375.48 123.148Z" fill="white"/>
<path d="M370.48 128.148C370.619 127.238 371.93 127.238 372.069 128.148C372.1 128.347 372.204 128.528 372.362 128.654C373.08 129.229 372.424 130.364 371.567 130.03C371.379 129.956 371.171 129.956 370.983 130.03C370.125 130.364 369.47 129.229 370.188 128.654C370.346 128.528 370.45 128.347 370.48 128.148Z" fill="white"/>
<path d="M377.48 137.148C377.619 136.238 378.93 136.238 379.069 137.148C379.1 137.347 379.204 137.528 379.362 137.654C380.08 138.229 379.424 139.364 378.567 139.03C378.379 138.956 378.171 138.956 377.983 139.03C377.125 139.364 376.47 138.229 377.188 137.654C377.346 137.528 377.45 137.347 377.48 137.148Z" fill="white"/>
<path d="M396.48 125.148C396.619 124.238 397.93 124.238 398.069 125.148C398.1 125.347 398.204 125.528 398.362 125.654C399.08 126.229 398.424 127.364 397.567 127.03C397.379 126.956 397.171 126.956 396.983 127.03C396.125 127.364 395.47 126.229 396.188 125.654C396.346 125.528 396.45 125.347 396.48 125.148Z" fill="white"/>
<path d="M387.48 127.148C387.619 126.238 388.93 126.238 389.069 127.148C389.1 127.347 389.204 127.528 389.362 127.654C390.08 128.229 389.424 129.364 388.567 129.03C388.379 128.956 388.171 128.956 387.983 129.03C387.125 129.364 386.47 128.229 387.188 127.654C387.346 127.528 387.45 127.347 387.48 127.148Z" fill="white"/>
<path d="M395.48 105.148C395.619 104.238 396.93 104.238 397.069 105.148C397.1 105.347 397.204 105.528 397.362 105.654C398.08 106.229 397.424 107.364 396.567 107.03C396.379 106.956 396.171 106.956 395.983 107.03C395.125 107.364 394.47 106.229 395.188 105.654C395.346 105.528 395.45 105.347 395.48 105.148Z" fill="white"/>
<path d="M387.48 96.1475C387.619 95.2377 388.93 95.2377 389.069 96.1475C389.1 96.3469 389.204 96.5276 389.362 96.6536C390.08 97.2288 389.424 98.3643 388.567 98.0296C388.379 97.9563 388.171 97.9563 387.983 98.0296C387.125 98.3643 386.47 97.2288 387.188 96.6536C387.346 96.5276 387.45 96.3469 387.48 96.1475Z" fill="white"/>
<path d="M366.48 119.148C366.619 118.238 367.93 118.238 368.069 119.148C368.1 119.347 368.204 119.528 368.362 119.654C369.08 120.229 368.424 121.364 367.567 121.03C367.379 120.956 367.171 120.956 366.983 121.03C366.125 121.364 365.47 120.229 366.188 119.654C366.346 119.528 366.45 119.347 366.48 119.148Z" fill="white"/>
<path d="M380.48 111.148C380.619 110.238 381.93 110.238 382.069 111.148C382.1 111.347 382.204 111.528 382.362 111.654C383.08 112.229 382.424 113.364 381.567 113.03C381.379 112.956 381.171 112.956 380.983 113.03C380.125 113.364 379.47 112.229 380.188 111.654C380.346 111.528 380.45 111.347 380.48 111.148Z" fill="white"/>
<path d="M377.48 101.148C377.619 100.238 378.93 100.238 379.069 101.148C379.1 101.347 379.204 101.528 379.362 101.654C380.08 102.229 379.424 103.364 378.567 103.03C378.379 102.956 378.171 102.956 377.983 103.03C377.125 103.364 376.47 102.229 377.188 101.654C377.346 101.528 377.45 101.347 377.48 101.148Z" fill="white"/>
<path d="M303.775 98.9436C303.775 97.2867 305.118 95.9436 306.775 95.9436H345.775C347.432 95.9436 348.775 97.2867 348.775 98.9436V183.944C348.775 185.6 347.432 186.944 345.775 186.944H306.775C305.118 186.944 303.775 185.6 303.775 183.944V98.9436Z" fill="white"/>
<path d="M303.775 98.9436C303.775 97.2867 305.118 95.9436 306.775 95.9436H345.775C347.432 95.9436 348.775 97.2867 348.775 98.9436V183.944C348.775 185.6 347.432 186.944 345.775 186.944H306.775C305.118 186.944 303.775 185.6 303.775 183.944V98.9436Z" fill="url(#paint0_linear)"/>
<circle cx="320.225" cy="102.444" r="0.75" fill="#48636F"/>
<circle cx="323.225" cy="102.444" r="0.75" fill="#48636F"/>
<circle cx="326.225" cy="102.444" r="0.75" fill="#48636F"/>
<circle cx="329.225" cy="102.444" r="0.75" fill="#48636F"/>
<circle cx="332.225" cy="102.444" r="0.75" fill="#48636F"/>
<circle cx="305.825" cy="102.444" r="0.75" fill="#48636F"/>
<circle cx="309.825" cy="102.444" r="0.75" fill="#48636F"/>
<circle cx="307.625" cy="102.444" r="0.75" fill="#48636F"/>
<circle cx="312.025" cy="102.444" r="0.75" fill="#48636F"/>
<circle cx="314.625" cy="102.444" r="0.75" fill="#48636F"/>
<circle cx="317.225" cy="102.444" r="0.75" fill="#48636F"/>
<mask id="mask2" mask-type="alpha" maskUnits="userSpaceOnUse" x="303" y="101" width="2" height="3">
<circle cx="304.025" cy="102.444" r="0.75" fill="#C4C4C4"/>
</mask>
<g mask="url(#mask2)">
<rect x="303.775" y="101.694" width="1.5" height="1.5" fill="#48636F"/>
</g>
<circle r="0.75" transform="matrix(-1 0 0 1 346.625 102.444)" fill="#48636F"/>
<circle r="0.75" transform="matrix(-1 0 0 1 342.625 102.444)" fill="#48636F"/>
<circle r="0.75" transform="matrix(-1 0 0 1 344.825 102.444)" fill="#48636F"/>
<circle r="0.75" transform="matrix(-1 0 0 1 340.425 102.444)" fill="#48636F"/>
<circle r="0.75" transform="matrix(-1 0 0 1 337.825 102.444)" fill="#48636F"/>
<circle r="0.75" transform="matrix(-1 0 0 1 335.225 102.444)" fill="#48636F"/>
<mask id="mask3" mask-type="alpha" maskUnits="userSpaceOnUse" x="347" y="101" width="3" height="3">
<circle r="0.75" transform="matrix(-1 0 0 1 348.425 102.444)" fill="#C4C4C4"/>
</mask>
<g mask="url(#mask3)">
<rect width="1.5" height="1.5" transform="matrix(-1 0 0 1 348.775 101.694)" fill="#48636F"/>
</g>
<circle cx="320.225" cy="105.444" r="0.75" fill="#48636F"/>
<circle cx="323.225" cy="105.444" r="0.75" fill="#48636F"/>
<circle cx="326.225" cy="105.444" r="0.75" fill="#48636F"/>
<circle cx="329.225" cy="105.444" r="0.75" fill="#48636F"/>
<circle cx="332.225" cy="105.444" r="0.75" fill="#48636F"/>
<circle cx="305.825" cy="105.444" r="0.75" fill="#48636F"/>
<circle cx="309.825" cy="105.444" r="0.75" fill="#48636F"/>
<circle cx="307.625" cy="105.444" r="0.75" fill="#48636F"/>
<circle cx="312.025" cy="105.444" r="0.75" fill="#48636F"/>
<circle cx="314.625" cy="105.444" r="0.75" fill="#48636F"/>
<circle cx="317.225" cy="105.444" r="0.75" fill="#48636F"/>
<mask id="mask4" mask-type="alpha" maskUnits="userSpaceOnUse" x="303" y="104" width="2" height="3">
<circle cx="304.025" cy="105.444" r="0.75" fill="#C4C4C4"/>
</mask>
<g mask="url(#mask4)">
<rect x="303.775" y="104.694" width="1.5" height="1.5" fill="#48636F"/>
</g>
<circle r="0.75" transform="matrix(-1 0 0 1 346.625 105.444)" fill="#48636F"/>
<circle r="0.75" transform="matrix(-1 0 0 1 342.625 105.444)" fill="#48636F"/>
<circle r="0.75" transform="matrix(-1 0 0 1 344.825 105.444)" fill="#48636F"/>
<circle r="0.75" transform="matrix(-1 0 0 1 340.425 105.444)" fill="#48636F"/>
<circle r="0.75" transform="matrix(-1 0 0 1 337.825 105.444)" fill="#48636F"/>
<circle r="0.75" transform="matrix(-1 0 0 1 335.225 105.444)" fill="#48636F"/>
<mask id="mask5" mask-type="alpha" maskUnits="userSpaceOnUse" x="347" y="104" width="3" height="3">
<circle r="0.75" transform="matrix(-1 0 0 1 348.425 105.444)" fill="#C4C4C4"/>
</mask>
<g mask="url(#mask5)">
<rect width="1.5" height="1.5" transform="matrix(-1 0 0 1 348.775 104.694)" fill="#48636F"/>
</g>
<circle cx="320.225" cy="114.444" r="0.75" fill="#48636F"/>
<circle cx="323.225" cy="114.444" r="0.75" fill="#48636F"/>
<circle cx="326.225" cy="114.444" r="0.75" fill="#48636F"/>
<circle cx="329.225" cy="114.444" r="0.75" fill="#48636F"/>
<circle cx="332.225" cy="114.444" r="0.75" fill="#48636F"/>
<circle cx="305.825" cy="114.444" r="0.75" fill="#48636F"/>
<circle cx="309.825" cy="114.444" r="0.75" fill="#48636F"/>
<circle cx="307.625" cy="114.444" r="0.75" fill="#48636F"/>
<circle cx="312.025" cy="114.444" r="0.75" fill="#48636F"/>
<circle cx="314.625" cy="114.444" r="0.75" fill="#48636F"/>
<circle cx="317.225" cy="114.444" r="0.75" fill="#48636F"/>
<mask id="mask6" mask-type="alpha" maskUnits="userSpaceOnUse" x="303" y="113" width="2" height="3">
<circle cx="304.025" cy="114.444" r="0.75" fill="#C4C4C4"/>
</mask>
<g mask="url(#mask6)">
<rect x="303.775" y="113.694" width="1.5" height="1.5" fill="#48636F"/>
</g>
<circle r="0.75" transform="matrix(-1 0 0 1 346.625 114.444)" fill="#48636F"/>
<circle r="0.75" transform="matrix(-1 0 0 1 342.625 114.444)" fill="#48636F"/>
<circle r="0.75" transform="matrix(-1 0 0 1 344.825 114.444)" fill="#48636F"/>
<circle r="0.75" transform="matrix(-1 0 0 1 340.425 114.444)" fill="#48636F"/>
<circle r="0.75" transform="matrix(-1 0 0 1 337.825 114.444)" fill="#48636F"/>
<circle r="0.75" transform="matrix(-1 0 0 1 335.225 114.444)" fill="#48636F"/>
<mask id="mask7" mask-type="alpha" maskUnits="userSpaceOnUse" x="347" y="113" width="3" height="3">
<circle r="0.75" transform="matrix(-1 0 0 1 348.425 114.444)" fill="#C4C4C4"/>
</mask>
<g mask="url(#mask7)">
<rect width="1.5" height="1.5" transform="matrix(-1 0 0 1 348.775 113.694)" fill="#48636F"/>
</g>
<circle cx="320.225" cy="117.444" r="0.75" fill="#48636F"/>
<circle cx="323.225" cy="117.444" r="0.75" fill="#48636F"/>
<circle cx="326.225" cy="117.444" r="0.75" fill="#48636F"/>
<circle cx="329.225" cy="117.444" r="0.75" fill="#48636F"/>
<circle cx="332.225" cy="117.444" r="0.75" fill="#48636F"/>
<circle cx="305.825" cy="117.444" r="0.75" fill="#48636F"/>
<circle cx="309.825" cy="117.444" r="0.75" fill="#48636F"/>
<circle cx="307.625" cy="117.444" r="0.75" fill="#48636F"/>
<circle cx="312.025" cy="117.444" r="0.75" fill="#48636F"/>
<circle cx="314.625" cy="117.444" r="0.75" fill="#48636F"/>
<circle cx="317.225" cy="117.444" r="0.75" fill="#48636F"/>
<mask id="mask8" mask-type="alpha" maskUnits="userSpaceOnUse" x="303" y="116" width="2" height="3">
<circle cx="304.025" cy="117.444" r="0.75" fill="#C4C4C4"/>
</mask>
<g mask="url(#mask8)">
<rect x="303.775" y="116.694" width="1.5" height="1.5" fill="#48636F"/>
</g>
<circle r="0.75" transform="matrix(-1 0 0 1 346.625 117.444)" fill="#48636F"/>
<circle r="0.75" transform="matrix(-1 0 0 1 342.625 117.444)" fill="#48636F"/>
<circle r="0.75" transform="matrix(-1 0 0 1 344.825 117.444)" fill="#48636F"/>
<circle r="0.75" transform="matrix(-1 0 0 1 340.425 117.444)" fill="#48636F"/>
<circle r="0.75" transform="matrix(-1 0 0 1 337.825 117.444)" fill="#48636F"/>
<circle r="0.75" transform="matrix(-1 0 0 1 335.225 117.444)" fill="#48636F"/>
<mask id="mask9" mask-type="alpha" maskUnits="userSpaceOnUse" x="347" y="116" width="3" height="3">
<circle r="0.75" transform="matrix(-1 0 0 1 348.425 117.444)" fill="#C4C4C4"/>
</mask>
<g mask="url(#mask9)">
<rect width="1.5" height="1.5" transform="matrix(-1 0 0 1 348.775 116.694)" fill="#48636F"/>
</g>
<circle cx="320.225" cy="108.444" r="0.75" fill="#48636F"/>
<circle cx="323.225" cy="108.444" r="0.75" fill="#48636F"/>
<circle cx="326.225" cy="108.444" r="0.75" fill="#48636F"/>
<circle cx="329.225" cy="108.444" r="0.75" fill="#48636F"/>
<circle cx="332.225" cy="108.444" r="0.75" fill="#48636F"/>
<circle cx="305.825" cy="108.444" r="0.75" fill="#48636F"/>
<circle cx="309.825" cy="108.444" r="0.75" fill="#48636F"/>
<circle cx="307.625" cy="108.444" r="0.75" fill="#48636F"/>
<circle cx="312.025" cy="108.444" r="0.75" fill="#48636F"/>
<circle cx="314.625" cy="108.444" r="0.75" fill="#48636F"/>
<circle cx="317.225" cy="108.444" r="0.75" fill="#48636F"/>
<mask id="mask10" mask-type="alpha" maskUnits="userSpaceOnUse" x="303" y="107" width="2" height="3">
<circle cx="304.025" cy="108.444" r="0.75" fill="#C4C4C4"/>
</mask>
<g mask="url(#mask10)">
<rect x="303.775" y="107.694" width="1.5" height="1.5" fill="#48636F"/>
</g>
<circle r="0.75" transform="matrix(-1 0 0 1 346.625 108.444)" fill="#48636F"/>
<circle r="0.75" transform="matrix(-1 0 0 1 342.625 108.444)" fill="#48636F"/>
<circle r="0.75" transform="matrix(-1 0 0 1 344.825 108.444)" fill="#48636F"/>
<circle r="0.75" transform="matrix(-1 0 0 1 340.425 108.444)" fill="#48636F"/>
<circle r="0.75" transform="matrix(-1 0 0 1 337.825 108.444)" fill="#48636F"/>
<circle r="0.75" transform="matrix(-1 0 0 1 335.225 108.444)" fill="#48636F"/>
<mask id="mask11" mask-type="alpha" maskUnits="userSpaceOnUse" x="347" y="107" width="3" height="3">
<circle r="0.75" transform="matrix(-1 0 0 1 348.425 108.444)" fill="#C4C4C4"/>
</mask>
<g mask="url(#mask11)">
<rect width="1.5" height="1.5" transform="matrix(-1 0 0 1 348.775 107.694)" fill="#48636F"/>
</g>
<circle cx="320.225" cy="111.444" r="0.75" fill="#48636F"/>
<circle cx="323.225" cy="111.444" r="0.75" fill="#48636F"/>
<circle cx="326.225" cy="111.444" r="0.75" fill="#48636F"/>
<circle cx="329.225" cy="111.444" r="0.75" fill="#48636F"/>
<circle cx="332.225" cy="111.444" r="0.75" fill="#48636F"/>
<circle cx="305.825" cy="111.444" r="0.75" fill="#48636F"/>
<circle cx="309.825" cy="111.444" r="0.75" fill="#48636F"/>
<circle cx="307.625" cy="111.444" r="0.75" fill="#48636F"/>
<circle cx="312.025" cy="111.444" r="0.75" fill="#48636F"/>
<circle cx="314.625" cy="111.444" r="0.75" fill="#48636F"/>
<circle cx="317.225" cy="111.444" r="0.75" fill="#48636F"/>
<mask id="mask12" mask-type="alpha" maskUnits="userSpaceOnUse" x="303" y="110" width="2" height="3">
<circle cx="304.025" cy="111.444" r="0.75" fill="#C4C4C4"/>
</mask>
<g mask="url(#mask12)">
<rect x="303.775" y="110.694" width="1.5" height="1.5" fill="#48636F"/>
</g>
<circle r="0.75" transform="matrix(-1 0 0 1 346.625 111.444)" fill="#48636F"/>
<circle r="0.75" transform="matrix(-1 0 0 1 342.625 111.444)" fill="#48636F"/>
<circle r="0.75" transform="matrix(-1 0 0 1 344.825 111.444)" fill="#48636F"/>
<circle r="0.75" transform="matrix(-1 0 0 1 340.425 111.444)" fill="#48636F"/>
<circle r="0.75" transform="matrix(-1 0 0 1 337.825 111.444)" fill="#48636F"/>
<circle r="0.75" transform="matrix(-1 0 0 1 335.225 111.444)" fill="#48636F"/>
<mask id="mask13" mask-type="alpha" maskUnits="userSpaceOnUse" x="347" y="110" width="3" height="3">
<circle r="0.75" transform="matrix(-1 0 0 1 348.425 111.444)" fill="#C4C4C4"/>
</mask>
<g mask="url(#mask13)">
<rect width="1.5" height="1.5" transform="matrix(-1 0 0 1 348.775 110.694)" fill="#48636F"/>
</g>
<circle cx="320.225" cy="120.444" r="0.75" fill="#48636F"/>
<circle cx="323.225" cy="120.444" r="0.75" fill="#48636F"/>
<circle cx="326.225" cy="120.444" r="0.75" fill="#48636F"/>
<circle cx="329.225" cy="120.444" r="0.75" fill="#48636F"/>
<circle cx="332.225" cy="120.444" r="0.75" fill="#48636F"/>
<circle cx="305.825" cy="120.444" r="0.75" fill="#48636F"/>
<circle cx="309.825" cy="120.444" r="0.75" fill="#48636F"/>
<circle cx="307.625" cy="120.444" r="0.75" fill="#48636F"/>
<circle cx="312.025" cy="120.444" r="0.75" fill="#48636F"/>
<circle cx="314.625" cy="120.444" r="0.75" fill="#48636F"/>
<circle cx="317.225" cy="120.444" r="0.75" fill="#48636F"/>
<mask id="mask14" mask-type="alpha" maskUnits="userSpaceOnUse" x="303" y="119" width="2" height="3">
<circle cx="304.025" cy="120.444" r="0.75" fill="#C4C4C4"/>
</mask>
<g mask="url(#mask14)">
<rect x="303.775" y="119.694" width="1.5" height="1.5" fill="#48636F"/>
</g>
<circle r="0.75" transform="matrix(-1 0 0 1 346.625 120.444)" fill="#48636F"/>
<circle r="0.75" transform="matrix(-1 0 0 1 342.625 120.444)" fill="#48636F"/>
<circle r="0.75" transform="matrix(-1 0 0 1 344.825 120.444)" fill="#48636F"/>
<circle r="0.75" transform="matrix(-1 0 0 1 340.425 120.444)" fill="#48636F"/>
<circle r="0.75" transform="matrix(-1 0 0 1 337.825 120.444)" fill="#48636F"/>
<circle r="0.75" transform="matrix(-1 0 0 1 335.225 120.444)" fill="#48636F"/>
<mask id="mask15" mask-type="alpha" maskUnits="userSpaceOnUse" x="347" y="119" width="3" height="3">
<circle r="0.75" transform="matrix(-1 0 0 1 348.425 120.444)" fill="#C4C4C4"/>
</mask>
<g mask="url(#mask15)">
<rect width="1.5" height="1.5" transform="matrix(-1 0 0 1 348.775 119.694)" fill="#48636F"/>
</g>
<circle cx="320.225" cy="123.444" r="0.75" fill="#48636F"/>
<circle cx="323.225" cy="123.444" r="0.75" fill="#48636F"/>
<circle cx="326.225" cy="123.444" r="0.75" fill="#48636F"/>
<circle cx="329.225" cy="123.444" r="0.75" fill="#48636F"/>
<circle cx="332.225" cy="123.444" r="0.75" fill="#48636F"/>
<circle cx="305.825" cy="123.444" r="0.75" fill="#48636F"/>
<circle cx="309.825" cy="123.444" r="0.75" fill="#48636F"/>
<circle cx="307.625" cy="123.444" r="0.75" fill="#48636F"/>
<circle cx="312.025" cy="123.444" r="0.75" fill="#48636F"/>
<circle cx="314.625" cy="123.444" r="0.75" fill="#48636F"/>
<circle cx="317.225" cy="123.444" r="0.75" fill="#48636F"/>
<mask id="mask16" mask-type="alpha" maskUnits="userSpaceOnUse" x="303" y="122" width="2" height="3">
<circle cx="304.025" cy="123.444" r="0.75" fill="#C4C4C4"/>
</mask>
<g mask="url(#mask16)">
<rect x="303.775" y="122.694" width="1.5" height="1.5" fill="#48636F"/>
</g>
<circle r="0.75" transform="matrix(-1 0 0 1 346.625 123.444)" fill="#48636F"/>
<circle r="0.75" transform="matrix(-1 0 0 1 342.625 123.444)" fill="#48636F"/>
<circle r="0.75" transform="matrix(-1 0 0 1 344.825 123.444)" fill="#48636F"/>
<circle r="0.75" transform="matrix(-1 0 0 1 340.425 123.444)" fill="#48636F"/>
<circle r="0.75" transform="matrix(-1 0 0 1 337.825 123.444)" fill="#48636F"/>
<circle r="0.75" transform="matrix(-1 0 0 1 335.225 123.444)" fill="#48636F"/>
<mask id="mask17" mask-type="alpha" maskUnits="userSpaceOnUse" x="347" y="122" width="3" height="3">
<circle r="0.75" transform="matrix(-1 0 0 1 348.425 123.444)" fill="#C4C4C4"/>
</mask>
<g mask="url(#mask17)">
<rect width="1.5" height="1.5" transform="matrix(-1 0 0 1 348.775 122.694)" fill="#48636F"/>
</g>
<circle cx="320.225" cy="132.444" r="0.75" fill="#48636F"/>
<circle cx="323.225" cy="132.444" r="0.75" fill="#48636F"/>
<circle cx="326.225" cy="132.444" r="0.75" fill="#48636F"/>
<circle cx="329.225" cy="132.444" r="0.75" fill="#48636F"/>
<circle cx="332.225" cy="132.444" r="0.75" fill="#48636F"/>
<circle cx="305.825" cy="132.444" r="0.75" fill="#48636F"/>
<circle cx="309.825" cy="132.444" r="0.75" fill="#48636F"/>
<circle cx="307.625" cy="132.444" r="0.75" fill="#48636F"/>
<circle cx="312.025" cy="132.444" r="0.75" fill="#48636F"/>
<circle cx="314.625" cy="132.444" r="0.75" fill="#48636F"/>
<circle cx="317.225" cy="132.444" r="0.75" fill="#48636F"/>
<mask id="mask18" mask-type="alpha" maskUnits="userSpaceOnUse" x="303" y="131" width="2" height="3">
<circle cx="304.025" cy="132.444" r="0.75" fill="#C4C4C4"/>
</mask>
<g mask="url(#mask18)">
<rect x="303.775" y="131.694" width="1.5" height="1.5" fill="#48636F"/>
</g>
<circle r="0.75" transform="matrix(-1 0 0 1 346.625 132.444)" fill="#48636F"/>
<circle r="0.75" transform="matrix(-1 0 0 1 342.625 132.444)" fill="#48636F"/>
<circle r="0.75" transform="matrix(-1 0 0 1 344.825 132.444)" fill="#48636F"/>
<circle r="0.75" transform="matrix(-1 0 0 1 340.425 132.444)" fill="#48636F"/>
<circle r="0.75" transform="matrix(-1 0 0 1 337.825 132.444)" fill="#48636F"/>
<circle r="0.75" transform="matrix(-1 0 0 1 335.225 132.444)" fill="#48636F"/>
<mask id="mask19" mask-type="alpha" maskUnits="userSpaceOnUse" x="347" y="131" width="3" height="3">
<circle r="0.75" transform="matrix(-1 0 0 1 348.425 132.444)" fill="#C4C4C4"/>
</mask>
<g mask="url(#mask19)">
<rect width="1.5" height="1.5" transform="matrix(-1 0 0 1 348.775 131.694)" fill="#48636F"/>
</g>
<circle cx="320.225" cy="135.444" r="0.75" fill="#48636F"/>
<circle cx="323.225" cy="135.444" r="0.75" fill="#48636F"/>
<circle cx="326.225" cy="135.444" r="0.75" fill="#48636F"/>
<circle cx="329.225" cy="135.444" r="0.75" fill="#48636F"/>
<circle cx="332.225" cy="135.444" r="0.75" fill="#48636F"/>
<circle cx="305.825" cy="135.444" r="0.75" fill="#48636F"/>
<circle cx="309.825" cy="135.444" r="0.75" fill="#48636F"/>
<circle cx="307.625" cy="135.444" r="0.75" fill="#48636F"/>
<circle cx="312.025" cy="135.444" r="0.75" fill="#48636F"/>
<circle cx="314.625" cy="135.444" r="0.75" fill="#48636F"/>
<circle cx="317.225" cy="135.444" r="0.75" fill="#48636F"/>
<mask id="mask20" mask-type="alpha" maskUnits="userSpaceOnUse" x="303" y="134" width="2" height="3">
<circle cx="304.025" cy="135.444" r="0.75" fill="#C4C4C4"/>
</mask>
<g mask="url(#mask20)">
<rect x="303.775" y="134.694" width="1.5" height="1.5" fill="#48636F"/>
</g>
<circle r="0.75" transform="matrix(-1 0 0 1 346.625 135.444)" fill="#48636F"/>
<circle r="0.75" transform="matrix(-1 0 0 1 342.625 135.444)" fill="#48636F"/>
<circle r="0.75" transform="matrix(-1 0 0 1 344.825 135.444)" fill="#48636F"/>
<circle r="0.75" transform="matrix(-1 0 0 1 340.425 135.444)" fill="#48636F"/>
<circle r="0.75" transform="matrix(-1 0 0 1 337.825 135.444)" fill="#48636F"/>
<circle r="0.75" transform="matrix(-1 0 0 1 335.225 135.444)" fill="#48636F"/>
<mask id="mask21" mask-type="alpha" maskUnits="userSpaceOnUse" x="347" y="134" width="3" height="3">
<circle r="0.75" transform="matrix(-1 0 0 1 348.425 135.444)" fill="#C4C4C4"/>
</mask>
<g mask="url(#mask21)">
<rect width="1.5" height="1.5" transform="matrix(-1 0 0 1 348.775 134.694)" fill="#48636F"/>
</g>
<circle cx="320.225" cy="126.444" r="0.75" fill="#48636F"/>
<circle cx="323.225" cy="126.444" r="0.75" fill="#48636F"/>
<circle cx="326.225" cy="126.444" r="0.75" fill="#48636F"/>
<circle cx="329.225" cy="126.444" r="0.75" fill="#48636F"/>
<circle cx="332.225" cy="126.444" r="0.75" fill="#48636F"/>
<circle cx="305.825" cy="126.444" r="0.75" fill="#48636F"/>
<circle cx="309.825" cy="126.444" r="0.75" fill="#48636F"/>
<circle cx="307.625" cy="126.444" r="0.75" fill="#48636F"/>
<circle cx="312.025" cy="126.444" r="0.75" fill="#48636F"/>
<circle cx="314.625" cy="126.444" r="0.75" fill="#48636F"/>
<circle cx="317.225" cy="126.444" r="0.75" fill="#48636F"/>
<mask id="mask22" mask-type="alpha" maskUnits="userSpaceOnUse" x="303" y="125" width="2" height="3">
<circle cx="304.025" cy="126.444" r="0.75" fill="#C4C4C4"/>
</mask>
<g mask="url(#mask22)">
<rect x="303.775" y="125.694" width="1.5" height="1.5" fill="#48636F"/>
</g>
<circle r="0.75" transform="matrix(-1 0 0 1 346.625 126.444)" fill="#48636F"/>
<circle r="0.75" transform="matrix(-1 0 0 1 342.625 126.444)" fill="#48636F"/>
<circle r="0.75" transform="matrix(-1 0 0 1 344.825 126.444)" fill="#48636F"/>
<circle r="0.75" transform="matrix(-1 0 0 1 340.425 126.444)" fill="#48636F"/>
<circle r="0.75" transform="matrix(-1 0 0 1 337.825 126.444)" fill="#48636F"/>
<circle r="0.75" transform="matrix(-1 0 0 1 335.225 126.444)" fill="#48636F"/>
<mask id="mask23" mask-type="alpha" maskUnits="userSpaceOnUse" x="347" y="125" width="3" height="3">
<circle r="0.75" transform="matrix(-1 0 0 1 348.425 126.444)" fill="#C4C4C4"/>
</mask>
<g mask="url(#mask23)">
<rect width="1.5" height="1.5" transform="matrix(-1 0 0 1 348.775 125.694)" fill="#48636F"/>
</g>
<circle cx="320.225" cy="129.444" r="0.75" fill="#48636F"/>
<circle cx="323.225" cy="129.444" r="0.75" fill="#48636F"/>
<circle cx="326.225" cy="129.444" r="0.75" fill="#48636F"/>
<circle cx="329.225" cy="129.444" r="0.75" fill="#48636F"/>
<circle cx="332.225" cy="129.444" r="0.75" fill="#48636F"/>
<circle cx="305.825" cy="129.444" r="0.75" fill="#48636F"/>
<circle cx="309.825" cy="129.444" r="0.75" fill="#48636F"/>
<circle cx="307.625" cy="129.444" r="0.75" fill="#48636F"/>
<circle cx="312.025" cy="129.444" r="0.75" fill="#48636F"/>
<circle cx="314.625" cy="129.444" r="0.75" fill="#48636F"/>
<circle cx="317.225" cy="129.444" r="0.75" fill="#48636F"/>
<mask id="mask24" mask-type="alpha" maskUnits="userSpaceOnUse" x="303" y="128" width="2" height="3">
<circle cx="304.025" cy="129.444" r="0.75" fill="#C4C4C4"/>
</mask>
<g mask="url(#mask24)">
<rect x="303.775" y="128.694" width="1.5" height="1.5" fill="#48636F"/>
</g>
<circle r="0.75" transform="matrix(-1 0 0 1 346.625 129.444)" fill="#48636F"/>
<circle r="0.75" transform="matrix(-1 0 0 1 342.625 129.444)" fill="#48636F"/>
<circle r="0.75" transform="matrix(-1 0 0 1 344.825 129.444)" fill="#48636F"/>
<circle r="0.75" transform="matrix(-1 0 0 1 340.425 129.444)" fill="#48636F"/>
<circle r="0.75" transform="matrix(-1 0 0 1 337.825 129.444)" fill="#48636F"/>
<circle r="0.75" transform="matrix(-1 0 0 1 335.225 129.444)" fill="#48636F"/>
<mask id="mask25" mask-type="alpha" maskUnits="userSpaceOnUse" x="347" y="128" width="3" height="3">
<circle r="0.75" transform="matrix(-1 0 0 1 348.425 129.444)" fill="#C4C4C4"/>
</mask>
<g mask="url(#mask25)">
<rect width="1.5" height="1.5" transform="matrix(-1 0 0 1 348.775 128.694)" fill="#48636F"/>
</g>
<circle cx="320.225" cy="138.444" r="0.75" fill="#48636F"/>
<circle cx="323.225" cy="138.444" r="0.75" fill="#48636F"/>
<circle cx="326.225" cy="138.444" r="0.75" fill="#48636F"/>
<circle cx="329.225" cy="138.444" r="0.75" fill="#48636F"/>
<circle cx="332.225" cy="138.444" r="0.75" fill="#48636F"/>
<circle cx="305.825" cy="138.444" r="0.75" fill="#48636F"/>
<circle cx="309.825" cy="138.444" r="0.75" fill="#48636F"/>
<circle cx="307.625" cy="138.444" r="0.75" fill="#48636F"/>
<circle cx="312.025" cy="138.444" r="0.75" fill="#48636F"/>
<circle cx="314.625" cy="138.444" r="0.75" fill="#48636F"/>
<circle cx="317.225" cy="138.444" r="0.75" fill="#48636F"/>
<mask id="mask26" mask-type="alpha" maskUnits="userSpaceOnUse" x="303" y="137" width="2" height="3">
<circle cx="304.025" cy="138.444" r="0.75" fill="#C4C4C4"/>
</mask>
<g mask="url(#mask26)">
<rect x="303.775" y="137.694" width="1.5" height="1.5" fill="#48636F"/>
</g>
<circle r="0.75" transform="matrix(-1 0 0 1 346.625 138.444)" fill="#48636F"/>
<circle r="0.75" transform="matrix(-1 0 0 1 342.625 138.444)" fill="#48636F"/>
<circle r="0.75" transform="matrix(-1 0 0 1 344.825 138.444)" fill="#48636F"/>
<circle r="0.75" transform="matrix(-1 0 0 1 340.425 138.444)" fill="#48636F"/>
<circle r="0.75" transform="matrix(-1 0 0 1 337.825 138.444)" fill="#48636F"/>
<circle r="0.75" transform="matrix(-1 0 0 1 335.225 138.444)" fill="#48636F"/>
<mask id="mask27" mask-type="alpha" maskUnits="userSpaceOnUse" x="347" y="137" width="3" height="3">
<circle r="0.75" transform="matrix(-1 0 0 1 348.425 138.444)" fill="#C4C4C4"/>
</mask>
<g mask="url(#mask27)">
<rect width="1.5" height="1.5" transform="matrix(-1 0 0 1 348.775 137.694)" fill="#48636F"/>
</g>
<circle cx="320.225" cy="141.444" r="0.75" fill="#48636F"/>
<circle cx="323.225" cy="141.444" r="0.75" fill="#48636F"/>
<circle cx="326.225" cy="141.444" r="0.75" fill="#48636F"/>
<circle cx="329.225" cy="141.444" r="0.75" fill="#48636F"/>
<circle cx="332.225" cy="141.444" r="0.75" fill="#48636F"/>
<circle cx="305.825" cy="141.444" r="0.75" fill="#48636F"/>
<circle cx="309.825" cy="141.444" r="0.75" fill="#48636F"/>
<circle cx="307.625" cy="141.444" r="0.75" fill="#48636F"/>
<circle cx="312.025" cy="141.444" r="0.75" fill="#48636F"/>
<circle cx="314.625" cy="141.444" r="0.75" fill="#48636F"/>
<circle cx="317.225" cy="141.444" r="0.75" fill="#48636F"/>
<mask id="mask28" mask-type="alpha" maskUnits="userSpaceOnUse" x="303" y="140" width="2" height="3">
<circle cx="304.025" cy="141.444" r="0.75" fill="#C4C4C4"/>
</mask>
<g mask="url(#mask28)">
<rect x="303.775" y="140.694" width="1.5" height="1.5" fill="#48636F"/>
</g>
<circle r="0.75" transform="matrix(-1 0 0 1 346.625 141.444)" fill="#48636F"/>
<circle r="0.75" transform="matrix(-1 0 0 1 342.625 141.444)" fill="#48636F"/>
<circle r="0.75" transform="matrix(-1 0 0 1 344.825 141.444)" fill="#48636F"/>
<circle r="0.75" transform="matrix(-1 0 0 1 340.425 141.444)" fill="#48636F"/>
<circle r="0.75" transform="matrix(-1 0 0 1 337.825 141.444)" fill="#48636F"/>
<circle r="0.75" transform="matrix(-1 0 0 1 335.225 141.444)" fill="#48636F"/>
<mask id="mask29" mask-type="alpha" maskUnits="userSpaceOnUse" x="347" y="140" width="3" height="3">
<circle r="0.75" transform="matrix(-1 0 0 1 348.425 141.444)" fill="#C4C4C4"/>
</mask>
<g mask="url(#mask29)">
<rect width="1.5" height="1.5" transform="matrix(-1 0 0 1 348.775 140.694)" fill="#48636F"/>
</g>
<circle cx="320.225" cy="150.444" r="0.75" fill="#48636F"/>
<circle cx="323.225" cy="150.444" r="0.75" fill="#48636F"/>
<circle cx="326.225" cy="150.444" r="0.75" fill="#48636F"/>
<circle cx="329.225" cy="150.444" r="0.75" fill="#48636F"/>
<circle cx="332.225" cy="150.444" r="0.75" fill="#48636F"/>
<circle cx="305.825" cy="150.444" r="0.75" fill="#48636F"/>
<circle cx="309.825" cy="150.444" r="0.75" fill="#48636F"/>
<circle cx="307.625" cy="150.444" r="0.75" fill="#48636F"/>
<circle cx="312.025" cy="150.444" r="0.75" fill="#48636F"/>
<circle cx="314.625" cy="150.444" r="0.75" fill="#48636F"/>
<circle cx="317.225" cy="150.444" r="0.75" fill="#48636F"/>
<mask id="mask30" mask-type="alpha" maskUnits="userSpaceOnUse" x="303" y="149" width="2" height="3">
<circle cx="304.025" cy="150.444" r="0.75" fill="#C4C4C4"/>
</mask>
<g mask="url(#mask30)">
<rect x="303.775" y="149.694" width="1.5" height="1.5" fill="#48636F"/>
</g>
<circle r="0.75" transform="matrix(-1 0 0 1 346.625 150.444)" fill="#48636F"/>
<circle r="0.75" transform="matrix(-1 0 0 1 342.625 150.444)" fill="#48636F"/>
<circle r="0.75" transform="matrix(-1 0 0 1 344.825 150.444)" fill="#48636F"/>
<circle r="0.75" transform="matrix(-1 0 0 1 340.425 150.444)" fill="#48636F"/>
<circle r="0.75" transform="matrix(-1 0 0 1 337.825 150.444)" fill="#48636F"/>
<circle r="0.75" transform="matrix(-1 0 0 1 335.225 150.444)" fill="#48636F"/>
<mask id="mask31" mask-type="alpha" maskUnits="userSpaceOnUse" x="347" y="149" width="3" height="3">
<circle r="0.75" transform="matrix(-1 0 0 1 348.425 150.444)" fill="#C4C4C4"/>
</mask>
<g mask="url(#mask31)">
<rect width="1.5" height="1.5" transform="matrix(-1 0 0 1 348.775 149.694)" fill="#48636F"/>
</g>
<circle cx="320.225" cy="153.444" r="0.75" fill="#48636F"/>
<circle cx="323.225" cy="153.444" r="0.75" fill="#48636F"/>
<circle cx="326.225" cy="153.444" r="0.75" fill="#48636F"/>
<circle cx="329.225" cy="153.444" r="0.75" fill="#48636F"/>
<circle cx="332.225" cy="153.444" r="0.75" fill="#48636F"/>
<circle cx="305.825" cy="153.444" r="0.75" fill="#48636F"/>
<circle cx="309.825" cy="153.444" r="0.75" fill="#48636F"/>
<circle cx="307.625" cy="153.444" r="0.75" fill="#48636F"/>
<circle cx="312.025" cy="153.444" r="0.75" fill="#48636F"/>
<circle cx="314.625" cy="153.444" r="0.75" fill="#48636F"/>
<circle cx="317.225" cy="153.444" r="0.75" fill="#48636F"/>
<mask id="mask32" mask-type="alpha" maskUnits="userSpaceOnUse" x="303" y="152" width="2" height="3">
<circle cx="304.025" cy="153.444" r="0.75" fill="#C4C4C4"/>
</mask>
<g mask="url(#mask32)">
<rect x="303.775" y="152.694" width="1.5" height="1.5" fill="#48636F"/>
</g>
<circle r="0.75" transform="matrix(-1 0 0 1 346.625 153.444)" fill="#48636F"/>
<circle r="0.75" transform="matrix(-1 0 0 1 342.625 153.444)" fill="#48636F"/>
<circle r="0.75" transform="matrix(-1 0 0 1 344.825 153.444)" fill="#48636F"/>
<circle r="0.75" transform="matrix(-1 0 0 1 340.425 153.444)" fill="#48636F"/>
<circle r="0.75" transform="matrix(-1 0 0 1 337.825 153.444)" fill="#48636F"/>
<circle r="0.75" transform="matrix(-1 0 0 1 335.225 153.444)" fill="#48636F"/>
<mask id="mask33" mask-type="alpha" maskUnits="userSpaceOnUse" x="347" y="152" width="3" height="3">
<circle r="0.75" transform="matrix(-1 0 0 1 348.425 153.444)" fill="#C4C4C4"/>
</mask>
<g mask="url(#mask33)">
<rect width="1.5" height="1.5" transform="matrix(-1 0 0 1 348.775 152.694)" fill="#48636F"/>
</g>
<circle cx="320.225" cy="144.444" r="0.75" fill="#48636F"/>
<circle cx="323.225" cy="144.444" r="0.75" fill="#48636F"/>
<circle cx="326.225" cy="144.444" r="0.75" fill="#48636F"/>
<circle cx="329.225" cy="144.444" r="0.75" fill="#48636F"/>
<circle cx="332.225" cy="144.444" r="0.75" fill="#48636F"/>
<circle cx="305.825" cy="144.444" r="0.75" fill="#48636F"/>
<circle cx="309.825" cy="144.444" r="0.75" fill="#48636F"/>
<circle cx="307.625" cy="144.444" r="0.75" fill="#48636F"/>
<circle cx="312.025" cy="144.444" r="0.75" fill="#48636F"/>
<circle cx="314.625" cy="144.444" r="0.75" fill="#48636F"/>
<circle cx="317.225" cy="144.444" r="0.75" fill="#48636F"/>
<mask id="mask34" mask-type="alpha" maskUnits="userSpaceOnUse" x="303" y="143" width="2" height="3">
<circle cx="304.025" cy="144.444" r="0.75" fill="#C4C4C4"/>
</mask>
<g mask="url(#mask34)">
<rect x="303.775" y="143.694" width="1.5" height="1.5" fill="#48636F"/>
</g>
<circle r="0.75" transform="matrix(-1 0 0 1 346.625 144.444)" fill="#48636F"/>
<circle r="0.75" transform="matrix(-1 0 0 1 342.625 144.444)" fill="#48636F"/>
<circle r="0.75" transform="matrix(-1 0 0 1 344.825 144.444)" fill="#48636F"/>
<circle r="0.75" transform="matrix(-1 0 0 1 340.425 144.444)" fill="#48636F"/>
<circle r="0.75" transform="matrix(-1 0 0 1 337.825 144.444)" fill="#48636F"/>
<circle r="0.75" transform="matrix(-1 0 0 1 335.225 144.444)" fill="#48636F"/>
<mask id="mask35" mask-type="alpha" maskUnits="userSpaceOnUse" x="347" y="143" width="3" height="3">
<circle r="0.75" transform="matrix(-1 0 0 1 348.425 144.444)" fill="#C4C4C4"/>
</mask>
<g mask="url(#mask35)">
<rect width="1.5" height="1.5" transform="matrix(-1 0 0 1 348.775 143.694)" fill="#48636F"/>
</g>
<circle cx="320.225" cy="147.444" r="0.75" fill="#48636F"/>
<circle cx="323.225" cy="147.444" r="0.75" fill="#48636F"/>
<circle cx="326.225" cy="147.444" r="0.75" fill="#48636F"/>
<circle cx="329.225" cy="147.444" r="0.75" fill="#48636F"/>
<circle cx="332.225" cy="147.444" r="0.75" fill="#48636F"/>
<circle cx="305.825" cy="147.444" r="0.75" fill="#48636F"/>
<circle cx="309.825" cy="147.444" r="0.75" fill="#48636F"/>
<circle cx="307.625" cy="147.444" r="0.75" fill="#48636F"/>
<circle cx="312.025" cy="147.444" r="0.75" fill="#48636F"/>
<circle cx="314.625" cy="147.444" r="0.75" fill="#48636F"/>
<circle cx="317.225" cy="147.444" r="0.75" fill="#48636F"/>
<mask id="mask36" mask-type="alpha" maskUnits="userSpaceOnUse" x="303" y="146" width="2" height="3">
<circle cx="304.025" cy="147.444" r="0.75" fill="#C4C4C4"/>
</mask>
<g mask="url(#mask36)">
<rect x="303.775" y="146.694" width="1.5" height="1.5" fill="#48636F"/>
</g>
<circle r="0.75" transform="matrix(-1 0 0 1 346.625 147.444)" fill="#48636F"/>
<circle r="0.75" transform="matrix(-1 0 0 1 342.625 147.444)" fill="#48636F"/>
<circle r="0.75" transform="matrix(-1 0 0 1 344.825 147.444)" fill="#48636F"/>
<circle r="0.75" transform="matrix(-1 0 0 1 340.425 147.444)" fill="#48636F"/>
<circle r="0.75" transform="matrix(-1 0 0 1 337.825 147.444)" fill="#48636F"/>
<circle r="0.75" transform="matrix(-1 0 0 1 335.225 147.444)" fill="#48636F"/>
<mask id="mask37" mask-type="alpha" maskUnits="userSpaceOnUse" x="347" y="146" width="3" height="3">
<circle r="0.75" transform="matrix(-1 0 0 1 348.425 147.444)" fill="#C4C4C4"/>
</mask>
<g mask="url(#mask37)">
<rect width="1.5" height="1.5" transform="matrix(-1 0 0 1 348.775 146.694)" fill="#48636F"/>
</g>
<circle cx="320.225" cy="156.444" r="0.75" fill="#48636F"/>
<circle cx="323.225" cy="156.444" r="0.75" fill="#48636F"/>
<circle cx="326.225" cy="156.444" r="0.75" fill="#48636F"/>
<circle cx="329.225" cy="156.444" r="0.75" fill="#48636F"/>
<circle cx="332.225" cy="156.444" r="0.75" fill="#48636F"/>
<circle cx="305.825" cy="156.444" r="0.75" fill="#48636F"/>
<circle cx="309.825" cy="156.444" r="0.75" fill="#48636F"/>
<circle cx="307.625" cy="156.444" r="0.75" fill="#48636F"/>
<circle cx="312.025" cy="156.444" r="0.75" fill="#48636F"/>
<circle cx="314.625" cy="156.444" r="0.75" fill="#48636F"/>
<circle cx="317.225" cy="156.444" r="0.75" fill="#48636F"/>
<mask id="mask38" mask-type="alpha" maskUnits="userSpaceOnUse" x="303" y="155" width="2" height="3">
<circle cx="304.025" cy="156.444" r="0.75" fill="#C4C4C4"/>
</mask>
<g mask="url(#mask38)">
<rect x="303.775" y="155.694" width="1.5" height="1.5" fill="#48636F"/>
</g>
<circle r="0.75" transform="matrix(-1 0 0 1 346.625 156.444)" fill="#48636F"/>
<circle r="0.75" transform="matrix(-1 0 0 1 342.625 156.444)" fill="#48636F"/>
<circle r="0.75" transform="matrix(-1 0 0 1 344.825 156.444)" fill="#48636F"/>
<circle r="0.75" transform="matrix(-1 0 0 1 340.425 156.444)" fill="#48636F"/>
<circle r="0.75" transform="matrix(-1 0 0 1 337.825 156.444)" fill="#48636F"/>
<circle r="0.75" transform="matrix(-1 0 0 1 335.225 156.444)" fill="#48636F"/>
<mask id="mask39" mask-type="alpha" maskUnits="userSpaceOnUse" x="347" y="155" width="3" height="3">
<circle r="0.75" transform="matrix(-1 0 0 1 348.425 156.444)" fill="#C4C4C4"/>
</mask>
<g mask="url(#mask39)">
<rect width="1.5" height="1.5" transform="matrix(-1 0 0 1 348.775 155.694)" fill="#48636F"/>
</g>
<circle cx="320.225" cy="159.444" r="0.75" fill="#48636F"/>
<circle cx="323.225" cy="159.444" r="0.75" fill="#48636F"/>
<circle cx="326.225" cy="159.444" r="0.75" fill="#48636F"/>
<circle cx="329.225" cy="159.444" r="0.75" fill="#48636F"/>
<circle cx="332.225" cy="159.444" r="0.75" fill="#48636F"/>
<circle cx="305.825" cy="159.444" r="0.75" fill="#48636F"/>
<circle cx="309.825" cy="159.444" r="0.75" fill="#48636F"/>
<circle cx="307.625" cy="159.444" r="0.75" fill="#48636F"/>
<circle cx="312.025" cy="159.444" r="0.75" fill="#48636F"/>
<circle cx="314.625" cy="159.444" r="0.75" fill="#48636F"/>
<circle cx="317.225" cy="159.444" r="0.75" fill="#48636F"/>
<mask id="mask40" mask-type="alpha" maskUnits="userSpaceOnUse" x="303" y="158" width="2" height="3">
<circle cx="304.025" cy="159.444" r="0.75" fill="#C4C4C4"/>
</mask>
<g mask="url(#mask40)">
<rect x="303.775" y="158.694" width="1.5" height="1.5" fill="#48636F"/>
</g>
<circle r="0.75" transform="matrix(-1 0 0 1 346.625 159.444)" fill="#48636F"/>
<circle r="0.75" transform="matrix(-1 0 0 1 342.625 159.444)" fill="#48636F"/>
<circle r="0.75" transform="matrix(-1 0 0 1 344.825 159.444)" fill="#48636F"/>
<circle r="0.75" transform="matrix(-1 0 0 1 340.425 159.444)" fill="#48636F"/>
<circle r="0.75" transform="matrix(-1 0 0 1 337.825 159.444)" fill="#48636F"/>
<circle r="0.75" transform="matrix(-1 0 0 1 335.225 159.444)" fill="#48636F"/>
<mask id="mask41" mask-type="alpha" maskUnits="userSpaceOnUse" x="347" y="158" width="3" height="3">
<circle r="0.75" transform="matrix(-1 0 0 1 348.425 159.444)" fill="#C4C4C4"/>
</mask>
<g mask="url(#mask41)">
<rect width="1.5" height="1.5" transform="matrix(-1 0 0 1 348.775 158.694)" fill="#48636F"/>
</g>
<circle cx="320.225" cy="168.444" r="0.75" fill="#48636F"/>
<circle cx="323.225" cy="168.444" r="0.75" fill="#48636F"/>
<circle cx="326.225" cy="168.444" r="0.75" fill="#48636F"/>
<circle cx="329.225" cy="168.444" r="0.75" fill="#48636F"/>
<circle cx="332.225" cy="168.444" r="0.75" fill="#48636F"/>
<circle cx="305.825" cy="168.444" r="0.75" fill="#48636F"/>
<circle cx="309.825" cy="168.444" r="0.75" fill="#48636F"/>
<circle cx="307.625" cy="168.444" r="0.75" fill="#48636F"/>
<circle cx="312.025" cy="168.444" r="0.75" fill="#48636F"/>
<circle cx="314.625" cy="168.444" r="0.75" fill="#48636F"/>
<circle cx="317.225" cy="168.444" r="0.75" fill="#48636F"/>
<mask id="mask42" mask-type="alpha" maskUnits="userSpaceOnUse" x="303" y="167" width="2" height="3">
<circle cx="304.025" cy="168.444" r="0.75" fill="#C4C4C4"/>
</mask>
<g mask="url(#mask42)">
<rect x="303.775" y="167.694" width="1.5" height="1.5" fill="#48636F"/>
</g>
<circle r="0.75" transform="matrix(-1 0 0 1 346.625 168.444)" fill="#48636F"/>
<circle r="0.75" transform="matrix(-1 0 0 1 342.625 168.444)" fill="#48636F"/>
<circle r="0.75" transform="matrix(-1 0 0 1 344.825 168.444)" fill="#48636F"/>
<circle r="0.75" transform="matrix(-1 0 0 1 340.425 168.444)" fill="#48636F"/>
<circle r="0.75" transform="matrix(-1 0 0 1 337.825 168.444)" fill="#48636F"/>
<circle r="0.75" transform="matrix(-1 0 0 1 335.225 168.444)" fill="#48636F"/>
<mask id="mask43" mask-type="alpha" maskUnits="userSpaceOnUse" x="347" y="167" width="3" height="3">
<circle r="0.75" transform="matrix(-1 0 0 1 348.425 168.444)" fill="#C4C4C4"/>
</mask>
<g mask="url(#mask43)">
<rect width="1.5" height="1.5" transform="matrix(-1 0 0 1 348.775 167.694)" fill="#48636F"/>
</g>
<circle cx="320.225" cy="171.444" r="0.75" fill="#48636F"/>
<circle cx="323.225" cy="171.444" r="0.75" fill="#48636F"/>
<circle cx="326.225" cy="171.444" r="0.75" fill="#48636F"/>
<circle cx="329.225" cy="171.444" r="0.75" fill="#48636F"/>
<circle cx="332.225" cy="171.444" r="0.75" fill="#48636F"/>
<circle cx="305.825" cy="171.444" r="0.75" fill="#48636F"/>
<circle cx="309.825" cy="171.444" r="0.75" fill="#48636F"/>
<circle cx="307.625" cy="171.444" r="0.75" fill="#48636F"/>
<circle cx="312.025" cy="171.444" r="0.75" fill="#48636F"/>
<circle cx="314.625" cy="171.444" r="0.75" fill="#48636F"/>
<circle cx="317.225" cy="171.444" r="0.75" fill="#48636F"/>
<mask id="mask44" mask-type="alpha" maskUnits="userSpaceOnUse" x="303" y="170" width="2" height="3">
<circle cx="304.025" cy="171.444" r="0.75" fill="#C4C4C4"/>
</mask>
<g mask="url(#mask44)">
<rect x="303.775" y="170.694" width="1.5" height="1.5" fill="#48636F"/>
</g>
<circle r="0.75" transform="matrix(-1 0 0 1 346.625 171.444)" fill="#48636F"/>
<circle r="0.75" transform="matrix(-1 0 0 1 342.625 171.444)" fill="#48636F"/>
<circle r="0.75" transform="matrix(-1 0 0 1 344.825 171.444)" fill="#48636F"/>
<circle r="0.75" transform="matrix(-1 0 0 1 340.425 171.444)" fill="#48636F"/>
<circle r="0.75" transform="matrix(-1 0 0 1 337.825 171.444)" fill="#48636F"/>
<circle r="0.75" transform="matrix(-1 0 0 1 335.225 171.444)" fill="#48636F"/>
<mask id="mask45" mask-type="alpha" maskUnits="userSpaceOnUse" x="347" y="170" width="3" height="3">
<circle r="0.75" transform="matrix(-1 0 0 1 348.425 171.444)" fill="#C4C4C4"/>
</mask>
<g mask="url(#mask45)">
<rect width="1.5" height="1.5" transform="matrix(-1 0 0 1 348.775 170.694)" fill="#48636F"/>
</g>
<circle cx="320.225" cy="162.444" r="0.75" fill="#48636F"/>
<circle cx="323.225" cy="162.444" r="0.75" fill="#48636F"/>
<circle cx="326.225" cy="162.444" r="0.75" fill="#48636F"/>
<circle cx="329.225" cy="162.444" r="0.75" fill="#48636F"/>
<circle cx="332.225" cy="162.444" r="0.75" fill="#48636F"/>
<circle cx="305.825" cy="162.444" r="0.75" fill="#48636F"/>
<circle cx="309.825" cy="162.444" r="0.75" fill="#48636F"/>
<circle cx="307.625" cy="162.444" r="0.75" fill="#48636F"/>
<circle cx="312.025" cy="162.444" r="0.75" fill="#48636F"/>
<circle cx="314.625" cy="162.444" r="0.75" fill="#48636F"/>
<circle cx="317.225" cy="162.444" r="0.75" fill="#48636F"/>
<mask id="mask46" mask-type="alpha" maskUnits="userSpaceOnUse" x="303" y="161" width="2" height="3">
<circle cx="304.025" cy="162.444" r="0.75" fill="#C4C4C4"/>
</mask>
<g mask="url(#mask46)">
<rect x="303.775" y="161.694" width="1.5" height="1.5" fill="#48636F"/>
</g>
<circle r="0.75" transform="matrix(-1 0 0 1 346.625 162.444)" fill="#48636F"/>
<circle r="0.75" transform="matrix(-1 0 0 1 342.625 162.444)" fill="#48636F"/>
<circle r="0.75" transform="matrix(-1 0 0 1 344.825 162.444)" fill="#48636F"/>
<circle r="0.75" transform="matrix(-1 0 0 1 340.425 162.444)" fill="#48636F"/>
<circle r="0.75" transform="matrix(-1 0 0 1 337.825 162.444)" fill="#48636F"/>
<circle r="0.75" transform="matrix(-1 0 0 1 335.225 162.444)" fill="#48636F"/>
<mask id="mask47" mask-type="alpha" maskUnits="userSpaceOnUse" x="347" y="161" width="3" height="3">
<circle r="0.75" transform="matrix(-1 0 0 1 348.425 162.444)" fill="#C4C4C4"/>
</mask>
<g mask="url(#mask47)">
<rect width="1.5" height="1.5" transform="matrix(-1 0 0 1 348.775 161.694)" fill="#48636F"/>
</g>
<circle cx="320.225" cy="165.444" r="0.75" fill="#48636F"/>
<circle cx="323.225" cy="165.444" r="0.75" fill="#48636F"/>
<circle cx="326.225" cy="165.444" r="0.75" fill="#48636F"/>
<circle cx="329.225" cy="165.444" r="0.75" fill="#48636F"/>
<circle cx="332.225" cy="165.444" r="0.75" fill="#48636F"/>
<circle cx="305.825" cy="165.444" r="0.75" fill="#48636F"/>
<circle cx="309.825" cy="165.444" r="0.75" fill="#48636F"/>
<circle cx="307.625" cy="165.444" r="0.75" fill="#48636F"/>
<circle cx="312.025" cy="165.444" r="0.75" fill="#48636F"/>
<circle cx="314.625" cy="165.444" r="0.75" fill="#48636F"/>
<circle cx="317.225" cy="165.444" r="0.75" fill="#48636F"/>
<mask id="mask48" mask-type="alpha" maskUnits="userSpaceOnUse" x="303" y="164" width="2" height="3">
<circle cx="304.025" cy="165.444" r="0.75" fill="#C4C4C4"/>
</mask>
<g mask="url(#mask48)">
<rect x="303.775" y="164.694" width="1.5" height="1.5" fill="#48636F"/>
</g>
<circle r="0.75" transform="matrix(-1 0 0 1 346.625 165.444)" fill="#48636F"/>
<circle r="0.75" transform="matrix(-1 0 0 1 342.625 165.444)" fill="#48636F"/>
<circle r="0.75" transform="matrix(-1 0 0 1 344.825 165.444)" fill="#48636F"/>
<circle r="0.75" transform="matrix(-1 0 0 1 340.425 165.444)" fill="#48636F"/>
<circle r="0.75" transform="matrix(-1 0 0 1 337.825 165.444)" fill="#48636F"/>
<circle r="0.75" transform="matrix(-1 0 0 1 335.225 165.444)" fill="#48636F"/>
<mask id="mask49" mask-type="alpha" maskUnits="userSpaceOnUse" x="347" y="164" width="3" height="3">
<circle r="0.75" transform="matrix(-1 0 0 1 348.425 165.444)" fill="#C4C4C4"/>
</mask>
<g mask="url(#mask49)">
<rect width="1.5" height="1.5" transform="matrix(-1 0 0 1 348.775 164.694)" fill="#48636F"/>
</g>
<circle cx="320.225" cy="180.444" r="0.75" fill="#48636F"/>
<circle cx="323.225" cy="180.444" r="0.75" fill="#48636F"/>
<circle cx="326.225" cy="180.444" r="0.75" fill="#48636F"/>
<circle cx="329.225" cy="180.444" r="0.75" fill="#48636F"/>
<circle cx="332.225" cy="180.444" r="0.75" fill="#48636F"/>
<circle cx="305.825" cy="180.444" r="0.75" fill="#48636F"/>
<circle cx="309.825" cy="180.444" r="0.75" fill="#48636F"/>
<circle cx="307.625" cy="180.444" r="0.75" fill="#48636F"/>
<circle cx="312.025" cy="180.444" r="0.75" fill="#48636F"/>
<circle cx="314.625" cy="180.444" r="0.75" fill="#48636F"/>
<circle cx="317.225" cy="180.444" r="0.75" fill="#48636F"/>
<mask id="mask50" mask-type="alpha" maskUnits="userSpaceOnUse" x="303" y="179" width="2" height="3">
<circle cx="304.025" cy="180.444" r="0.75" fill="#C4C4C4"/>
</mask>
<g mask="url(#mask50)">
<rect x="303.775" y="179.694" width="1.5" height="1.5" fill="#48636F"/>
</g>
<circle r="0.75" transform="matrix(-1 0 0 1 346.625 180.444)" fill="#48636F"/>
<circle r="0.75" transform="matrix(-1 0 0 1 342.625 180.444)" fill="#48636F"/>
<circle r="0.75" transform="matrix(-1 0 0 1 344.825 180.444)" fill="#48636F"/>
<circle r="0.75" transform="matrix(-1 0 0 1 340.425 180.444)" fill="#48636F"/>
<circle r="0.75" transform="matrix(-1 0 0 1 337.825 180.444)" fill="#48636F"/>
<circle r="0.75" transform="matrix(-1 0 0 1 335.225 180.444)" fill="#48636F"/>
<mask id="mask51" mask-type="alpha" maskUnits="userSpaceOnUse" x="347" y="179" width="3" height="3">
<circle r="0.75" transform="matrix(-1 0 0 1 348.425 180.444)" fill="#C4C4C4"/>
</mask>
<g mask="url(#mask51)">
<rect width="1.5" height="1.5" transform="matrix(-1 0 0 1 348.775 179.694)" fill="#48636F"/>
</g>
<circle cx="320.225" cy="174.444" r="0.75" fill="#48636F"/>
<circle cx="323.225" cy="174.444" r="0.75" fill="#48636F"/>
<circle cx="326.225" cy="174.444" r="0.75" fill="#48636F"/>
<circle cx="329.225" cy="174.444" r="0.75" fill="#48636F"/>
<circle cx="332.225" cy="174.444" r="0.75" fill="#48636F"/>
<circle cx="305.825" cy="174.444" r="0.75" fill="#48636F"/>
<circle cx="309.825" cy="174.444" r="0.75" fill="#48636F"/>
<circle cx="307.625" cy="174.444" r="0.75" fill="#48636F"/>
<circle cx="312.025" cy="174.444" r="0.75" fill="#48636F"/>
<circle cx="314.625" cy="174.444" r="0.75" fill="#48636F"/>
<circle cx="317.225" cy="174.444" r="0.75" fill="#48636F"/>
<mask id="mask52" mask-type="alpha" maskUnits="userSpaceOnUse" x="303" y="173" width="2" height="3">
<circle cx="304.025" cy="174.444" r="0.75" fill="#C4C4C4"/>
</mask>
<g mask="url(#mask52)">
<rect x="303.775" y="173.694" width="1.5" height="1.5" fill="#48636F"/>
</g>
<circle r="0.75" transform="matrix(-1 0 0 1 346.625 174.444)" fill="#48636F"/>
<circle r="0.75" transform="matrix(-1 0 0 1 342.625 174.444)" fill="#48636F"/>
<circle r="0.75" transform="matrix(-1 0 0 1 344.825 174.444)" fill="#48636F"/>
<circle r="0.75" transform="matrix(-1 0 0 1 340.425 174.444)" fill="#48636F"/>
<circle r="0.75" transform="matrix(-1 0 0 1 337.825 174.444)" fill="#48636F"/>
<circle r="0.75" transform="matrix(-1 0 0 1 335.225 174.444)" fill="#48636F"/>
<mask id="mask53" mask-type="alpha" maskUnits="userSpaceOnUse" x="347" y="173" width="3" height="3">
<circle r="0.75" transform="matrix(-1 0 0 1 348.425 174.444)" fill="#C4C4C4"/>
</mask>
<g mask="url(#mask53)">
<rect width="1.5" height="1.5" transform="matrix(-1 0 0 1 348.775 173.694)" fill="#48636F"/>
</g>
<circle cx="320.225" cy="177.444" r="0.75" fill="#48636F"/>
<circle cx="323.225" cy="177.444" r="0.75" fill="#48636F"/>
<circle cx="326.225" cy="177.444" r="0.75" fill="#48636F"/>
<circle cx="329.225" cy="177.444" r="0.75" fill="#48636F"/>
<circle cx="332.225" cy="177.444" r="0.75" fill="#48636F"/>
<circle cx="305.825" cy="177.444" r="0.75" fill="#48636F"/>
<circle cx="309.825" cy="177.444" r="0.75" fill="#48636F"/>
<circle cx="307.625" cy="177.444" r="0.75" fill="#48636F"/>
<circle cx="312.025" cy="177.444" r="0.75" fill="#48636F"/>
<circle cx="314.625" cy="177.444" r="0.75" fill="#48636F"/>
<circle cx="317.225" cy="177.444" r="0.75" fill="#48636F"/>
<mask id="mask54" mask-type="alpha" maskUnits="userSpaceOnUse" x="303" y="176" width="2" height="3">
<circle cx="304.025" cy="177.444" r="0.75" fill="#C4C4C4"/>
</mask>
<g mask="url(#mask54)">
<rect x="303.775" y="176.694" width="1.5" height="1.5" fill="#48636F"/>
</g>
<circle r="0.75" transform="matrix(-1 0 0 1 346.625 177.444)" fill="#48636F"/>
<circle r="0.75" transform="matrix(-1 0 0 1 342.625 177.444)" fill="#48636F"/>
<circle r="0.75" transform="matrix(-1 0 0 1 344.825 177.444)" fill="#48636F"/>
<circle r="0.75" transform="matrix(-1 0 0 1 340.425 177.444)" fill="#48636F"/>
<circle r="0.75" transform="matrix(-1 0 0 1 337.825 177.444)" fill="#48636F"/>
<circle r="0.75" transform="matrix(-1 0 0 1 335.225 177.444)" fill="#48636F"/>
<mask id="mask55" mask-type="alpha" maskUnits="userSpaceOnUse" x="347" y="176" width="3" height="3">
<circle r="0.75" transform="matrix(-1 0 0 1 348.425 177.444)" fill="#C4C4C4"/>
</mask>
<g mask="url(#mask55)">
<rect width="1.5" height="1.5" transform="matrix(-1 0 0 1 348.775 176.694)" fill="#48636F"/>
</g>
<rect x="122.275" y="26.9437" width="84" height="119" rx="5" fill="#F8FAFB" stroke="#192A32" stroke-width="4"/>
<path d="M152.411 59.9438H153.407V51.9398H152.531L150.527 54.0038L151.127 54.6158L152.411 53.2598V59.9438Z" fill="#333333"/>
<path d="M154.953 55.9478C154.953 57.8918 155.817 60.0878 158.013 60.0878C160.197 60.0878 161.073 57.8918 161.073 55.9478C161.073 53.9918 160.197 51.8198 158.013 51.8198C155.817 51.8198 154.953 53.9918 154.953 55.9478ZM160.053 55.9478C160.053 57.5438 159.537 59.1998 158.013 59.1998C156.489 59.1998 155.973 57.5438 155.973 55.9478C155.973 54.3518 156.489 52.7078 158.013 52.7078C159.537 52.7078 160.053 54.3518 160.053 55.9478Z" fill="#333333"/>
<path d="M162.409 54.7238C162.409 55.0838 162.709 55.3838 163.069 55.3838C163.429 55.3838 163.729 55.0838 163.729 54.7238C163.729 54.3638 163.429 54.0638 163.069 54.0638C162.709 54.0638 162.409 54.3638 162.409 54.7238ZM162.409 59.4038C162.409 59.7638 162.709 60.0638 163.069 60.0638C163.429 60.0638 163.729 59.7638 163.729 59.4038C163.729 59.0438 163.429 58.7438 163.069 58.7438C162.709 58.7438 162.409 59.0438 162.409 59.4038Z" fill="#333333"/>
<path d="M164.802 58.7678C165.294 59.4878 166.29 60.0878 167.646 60.0878C169.41 60.0878 170.478 59.1158 170.478 57.7838C170.478 56.4998 169.362 55.8758 168.63 55.8158C169.386 55.6838 170.358 55.1078 170.358 53.9558C170.358 52.5998 169.182 51.8198 167.646 51.8198C166.41 51.8198 165.486 52.3598 164.91 53.0558L165.462 53.6798C166.05 53.0438 166.698 52.7078 167.574 52.7078C168.546 52.7078 169.362 53.1878 169.362 54.0758C169.362 54.9998 168.51 55.3958 167.502 55.3958C167.178 55.3958 166.806 55.3958 166.674 55.3838V56.2958C166.794 56.2838 167.166 56.2838 167.502 56.2838C168.678 56.2838 169.494 56.7038 169.494 57.6998C169.494 58.6238 168.786 59.1998 167.622 59.1998C166.674 59.1998 165.858 58.7678 165.39 58.1438L164.802 58.7678Z" fill="#333333"/>
<path d="M171.926 58.8038C172.526 59.5958 173.39 60.0878 174.746 60.0878C176.354 60.0878 177.59 59.0798 177.59 57.4478C177.59 55.8038 176.378 54.8918 175.046 54.8918C174.242 54.8918 173.558 55.2278 173.174 55.6118V52.8278H177.074V51.9398H172.178V56.2598L172.91 56.5118C173.45 55.9838 174.05 55.7558 174.758 55.7558C175.838 55.7558 176.594 56.4278 176.594 57.4838C176.594 58.4558 175.838 59.1998 174.746 59.1998C173.762 59.1998 173.066 58.8158 172.538 58.1438L171.926 58.8038Z" fill="#333333"/>
<line x1="148.775" y1="140.444" x2="179.775" y2="140.444" stroke="#192A32" stroke-linecap="round"/>
<path d="M247.828 50.8655C247.828 50.8655 248.512 57.9184 251.696 67.5335" stroke="#9069FF" stroke-width="2" stroke-linecap="round" stroke-linejoin="round"/>
<path d="M304.104 29.6495C304.104 29.6495 308.219 35.4408 312.071 44.8259" stroke="#9069FF" stroke-width="2" stroke-linecap="round" stroke-linejoin="round"/>
<path fill-rule="evenodd" clip-rule="evenodd" d="M244.955 52.3812C241.017 36.0887 249.738 19.3114 265.042 13.2641C280.846 7.01872 299.266 13.9526 307.137 29.375L302.775 31.4437C296.437 19.0231 279.502 12.9147 266.775 17.9437C254.448 22.8146 246.602 37.323 249.775 50.4437L244.955 52.3812Z" fill="#500FCF"/>
<path fill-rule="evenodd" clip-rule="evenodd" d="M251.628 82.306L255.517 80.868L250.664 67.7567L246.771 69.1943C246.462 69.3087 246.301 69.6473 246.413 69.9486L250.858 81.9645C250.971 82.2676 251.316 82.4219 251.628 82.306Z" fill="#6719FF"/>
<path fill-rule="evenodd" clip-rule="evenodd" d="M255.882 84.1249L260.106 82.5474L252.59 62.1177L248.364 63.6916C247.629 63.9653 247.362 65.0875 247.771 66.1977L253.81 82.6118C254.219 83.722 255.146 84.3991 255.882 84.1249Z" fill="#F0F5F7"/>
<mask id="mask56" mask-type="alpha" maskUnits="userSpaceOnUse" x="251" y="59" width="15" height="26">
<path fill-rule="evenodd" clip-rule="evenodd" d="M251.307 61.3328L256.862 59.311L265.247 82.3481L259.692 84.3698L251.307 61.3328Z" fill="white"/>
</mask>
<g mask="url(#mask56)">
<path fill-rule="evenodd" clip-rule="evenodd" d="M263.757 82.868L260.423 84.1044C260.077 84.2325 259.674 84.0109 259.528 83.6144L251.58 62.0808C251.432 61.6849 251.596 61.255 251.94 61.1275L255.275 59.8887C255.618 59.7617 256.022 59.9827 256.169 60.3811L264.118 81.9104C264.265 82.3088 264.103 82.7399 263.757 82.868Z" fill="#6719FF"/>
</g>
<path fill-rule="evenodd" clip-rule="evenodd" d="M321.263 56.1222L318.213 57.2509L313.361 44.135L316.415 43.0049C316.714 42.8939 317.047 43.0504 317.159 43.3518L321.603 55.3702C321.715 55.6734 321.564 56.0105 321.263 56.1222Z" fill="#6719FF"/>
<path fill-rule="evenodd" clip-rule="evenodd" d="M319.674 60.8249L315.431 62.409L307.916 41.9791L312.158 40.3949C312.885 40.1242 313.804 40.8041 314.211 41.9123L320.25 58.3252C320.658 59.4353 320.401 60.5541 319.674 60.8249Z" fill="#F0F5F7"/>
<path fill-rule="evenodd" clip-rule="evenodd" d="M313.156 64.8015L316.492 63.5644C316.838 63.4362 317 63.0063 316.854 62.609L308.889 41.0352C308.742 40.6361 308.337 40.4145 307.994 40.5434L304.659 41.7805C304.312 41.9087 304.151 42.3405 304.297 42.7378L312.26 64.3103C312.407 64.7094 312.811 64.9291 313.156 64.8015Z" fill="#6719FF"/>
<path d="M455.635 124.784C457.32 124.285 462.748 126.843 461.625 129.463C459.942 133.39 452.64 128.715 455.635 124.784Z" fill="white"/>
<path d="M453.951 124.971C454.138 121.602 449.833 118.419 446.838 122.35C443.843 126.281 453.763 128.34 453.951 124.971Z" fill="white" stroke="white"/>
<path d="M455.822 123.473C457.195 120.79 460.465 116.585 462.561 121.227C465.182 127.03 456.01 126.281 455.822 123.473Z" fill="white"/>
<path d="M455.822 123.473C457.195 120.79 460.465 116.585 462.561 121.227C465.182 127.03 456.01 126.281 455.822 123.473Z" fill="url(#paint1_linear)"/>
<path d="M455.822 123.473C457.195 120.79 460.465 116.585 462.561 121.227C465.182 127.03 456.01 126.281 455.822 123.473Z" stroke="white"/>
<path d="M455.822 123.473C457.195 120.79 460.465 116.585 462.561 121.227C465.182 127.03 456.01 126.281 455.822 123.473Z" stroke="url(#paint2_linear)"/>
<path d="M453.951 125.532C452.079 127.092 449.009 130.699 451.704 132.645C455.074 135.079 457.32 127.404 453.951 125.532Z" fill="white"/>
<path d="M453.951 125.532C452.079 127.092 449.009 130.699 451.704 132.645C455.074 135.079 457.32 127.404 453.951 125.532Z" fill="url(#paint3_linear)"/>
<path d="M453.951 125.532C452.079 127.092 449.009 130.699 451.704 132.645C455.074 135.079 457.32 127.404 453.951 125.532Z" stroke="white"/>
<path d="M453.951 125.532C452.079 127.092 449.009 130.699 451.704 132.645C455.074 135.079 457.32 127.404 453.951 125.532Z" stroke="url(#paint4_linear)"/>
<path d="M455.261 123.848C452.952 122.974 450.17 119.243 454.512 118.045C459.94 116.548 456.384 122.538 455.261 123.848Z" fill="white"/>
<path d="M455.261 123.848C452.952 122.974 450.17 119.243 454.512 118.045C459.94 116.548 456.384 122.538 455.261 123.848Z" fill="url(#paint5_linear)"/>
<path d="M455.261 123.848C452.952 122.974 450.17 119.243 454.512 118.045C459.94 116.548 456.384 122.538 455.261 123.848Z" stroke="white"/>
<path d="M455.261 123.848C452.952 122.974 450.17 119.243 454.512 118.045C459.94 116.548 456.384 122.538 455.261 123.848Z" stroke="url(#paint6_linear)"/>
<circle cx="454.887" cy="124.597" r="1.49746" fill="#F95671"/>
<path d="M454.325 123.286C453.951 122.35 454.699 120.479 454.325 119.917" stroke="#FC8FA1" stroke-width="0.5" stroke-linecap="round"/>
<path d="M455.448 123.473C456.322 122.6 458.181 120.89 458.63 121.04" stroke="#FC8FA1" stroke-width="0.5" stroke-linecap="round"/>
<path d="M455.261 125.532C455.698 126.032 456.684 127.03 457.133 127.03" stroke="#FC8FA1" stroke-width="0.5" stroke-linecap="round"/>
<path d="M453.951 123.848C453.576 123.349 452.715 122.35 452.266 122.35" stroke="#FC8FA1" stroke-width="0.5" stroke-linecap="round"/>
<path d="M454.887 123.286C455.635 122.163 456.384 120.104 456.197 119.917" stroke="#FC8FA1" stroke-width="0.5" stroke-linecap="round"/>
<path d="M454.138 124.596C453.514 124.472 452.191 124.072 451.892 123.473" stroke="#FC8FA1" stroke-width="0.5" stroke-linecap="round"/>
<path d="M455.261 124.409C456.072 124.597 457.32 123.473 459.379 122.912" stroke="#FC8FA1" stroke-width="0.5" stroke-linecap="round"/>
<circle cx="454.512" cy="119.73" r="0.374365" fill="#D49E0A"/>
<circle cx="456.384" cy="119.73" r="0.374365" fill="#D49E0A"/>
<circle cx="458.63" cy="120.853" r="0.374365" fill="#D49E0A"/>
<circle cx="459.379" cy="123.099" r="0.374365" fill="#D49E0A"/>
<circle cx="457.507" cy="127.217" r="0.374365" fill="#D49E0A"/>
<circle cx="451.892" cy="123.473" r="0.374365" fill="#D49E0A"/>
<circle cx="452.266" cy="122.35" r="0.374365" fill="#D49E0A"/>
<path d="M345.671 23.2775C343.986 23.7766 338.558 21.2184 339.681 18.5979C341.364 14.6709 348.666 19.3467 345.671 23.2775Z" fill="white"/>
<path d="M347.356 23.0902C347.168 26.4594 351.474 29.6416 354.469 25.7107C357.464 21.7799 347.543 19.7209 347.356 23.0902Z" fill="white" stroke="white"/>
<path d="M345.484 24.5878C344.111 27.2707 340.842 31.4761 338.745 26.834C336.125 21.0313 345.297 21.7801 345.484 24.5878Z" fill="white"/>
<path d="M345.484 24.5878C344.111 27.2707 340.842 31.4761 338.745 26.834C336.125 21.0313 345.297 21.7801 345.484 24.5878Z" fill="url(#paint7_linear)"/>
<path d="M345.484 24.5878C344.111 27.2707 340.842 31.4761 338.745 26.834C336.125 21.0313 345.297 21.7801 345.484 24.5878Z" stroke="white"/>
<path d="M345.484 24.5878C344.111 27.2707 340.842 31.4761 338.745 26.834C336.125 21.0313 345.297 21.7801 345.484 24.5878Z" stroke="url(#paint8_linear)"/>
<path d="M347.356 22.5287C349.228 20.9688 352.297 17.3625 349.602 15.4158C346.233 12.9824 343.986 20.6569 347.356 22.5287Z" fill="white"/>
<path d="M347.356 22.5287C349.228 20.9688 352.297 17.3625 349.602 15.4158C346.233 12.9824 343.986 20.6569 347.356 22.5287Z" fill="url(#paint9_linear)"/>
<path d="M347.356 22.5287C349.228 20.9688 352.297 17.3625 349.602 15.4158C346.233 12.9824 343.986 20.6569 347.356 22.5287Z" stroke="white"/>
<path d="M347.356 22.5287C349.228 20.9688 352.297 17.3625 349.602 15.4158C346.233 12.9824 343.986 20.6569 347.356 22.5287Z" stroke="url(#paint10_linear)"/>
<path d="M346.045 24.2133C348.354 25.0868 351.137 28.818 346.794 30.016C341.366 31.5134 344.922 25.5236 346.045 24.2133Z" fill="white"/>
<path d="M346.045 24.2133C348.354 25.0868 351.137 28.818 346.794 30.016C341.366 31.5134 344.922 25.5236 346.045 24.2133Z" fill="url(#paint11_linear)"/>
<path d="M346.045 24.2133C348.354 25.0868 351.137 28.818 346.794 30.016C341.366 31.5134 344.922 25.5236 346.045 24.2133Z" stroke="white"/>
<path d="M346.045 24.2133C348.354 25.0868 351.137 28.818 346.794 30.016C341.366 31.5134 344.922 25.5236 346.045 24.2133Z" stroke="url(#paint12_linear)"/>
<circle cx="346.42" cy="23.4646" r="1.49746" transform="rotate(-180 346.42 23.4646)" fill="#F95671"/>
<path d="M346.981 24.7749C347.356 25.7108 346.607 27.5826 346.981 28.1442" stroke="#FC8FA1" stroke-width="0.5" stroke-linecap="round"/>
<path d="M345.858 24.5877C344.985 25.4612 343.125 27.1708 342.676 27.021" stroke="#FC8FA1" stroke-width="0.5" stroke-linecap="round"/>
<path d="M346.045 22.5287C345.609 22.0295 344.623 21.0312 344.174 21.0312" stroke="#FC8FA1" stroke-width="0.5" stroke-linecap="round"/>
<path d="M347.356 24.2134C347.73 24.7125 348.591 25.7108 349.04 25.7108" stroke="#FC8FA1" stroke-width="0.5" stroke-linecap="round"/>
<path d="M346.42 24.7749C345.671 25.898 344.922 27.957 345.109 28.1442" stroke="#FC8FA1" stroke-width="0.5" stroke-linecap="round"/>
<path d="M347.168 23.4646C347.792 23.5893 349.115 23.9887 349.415 24.5876" stroke="#FC8FA1" stroke-width="0.5" stroke-linecap="round"/>
<path d="M346.045 23.6517C345.234 23.4645 343.986 24.5876 341.927 25.1492" stroke="#FC8FA1" stroke-width="0.5" stroke-linecap="round"/>
<circle cx="346.794" cy="28.3313" r="0.374365" transform="rotate(-180 346.794 28.3313)" fill="#D49E0A"/>
<circle cx="344.922" cy="28.3313" r="0.374365" transform="rotate(-180 344.922 28.3313)" fill="#D49E0A"/>
<circle cx="342.676" cy="27.2083" r="0.374365" transform="rotate(-180 342.676 27.2083)" fill="#D49E0A"/>
<circle cx="341.927" cy="24.9621" r="0.374365" transform="rotate(-180 341.927 24.9621)" fill="#D49E0A"/>
<circle cx="343.799" cy="20.844" r="0.374365" transform="rotate(-180 343.799 20.844)" fill="#D49E0A"/>
<circle cx="349.415" cy="24.5877" r="0.374365" transform="rotate(-180 349.415 24.5877)" fill="#D49E0A"/>
<circle cx="349.04" cy="25.7107" r="0.374365" transform="rotate(-180 349.04 25.7107)" fill="#D49E0A"/>
<path d="M263.635 157.277C265.32 157.776 270.748 155.218 269.625 152.598C267.942 148.671 260.64 153.346 263.635 157.277Z" fill="white"/>
<path d="M261.951 157.09C262.138 160.459 257.833 163.642 254.838 159.711C251.843 155.78 261.763 153.721 261.951 157.09Z" fill="white" stroke="white"/>
<path d="M263.822 158.588C265.195 161.271 268.465 165.476 270.561 160.834C273.182 155.031 264.01 155.78 263.822 158.588Z" fill="white"/>
<path d="M263.822 158.588C265.195 161.271 268.465 165.476 270.561 160.834C273.182 155.031 264.01 155.78 263.822 158.588Z" fill="url(#paint13_linear)"/>
<path d="M263.822 158.588C265.195 161.271 268.465 165.476 270.561 160.834C273.182 155.031 264.01 155.78 263.822 158.588Z" stroke="white"/>
<path d="M263.822 158.588C265.195 161.271 268.465 165.476 270.561 160.834C273.182 155.031 264.01 155.78 263.822 158.588Z" stroke="url(#paint14_linear)"/>
<path d="M261.951 156.529C260.079 154.969 257.009 151.362 259.704 149.416C263.074 146.982 265.32 154.657 261.951 156.529Z" fill="white"/>
<path d="M261.951 156.529C260.079 154.969 257.009 151.362 259.704 149.416C263.074 146.982 265.32 154.657 261.951 156.529Z" fill="url(#paint15_linear)"/>
<path d="M261.951 156.529C260.079 154.969 257.009 151.362 259.704 149.416C263.074 146.982 265.32 154.657 261.951 156.529Z" stroke="white"/>
<path d="M261.951 156.529C260.079 154.969 257.009 151.362 259.704 149.416C263.074 146.982 265.32 154.657 261.951 156.529Z" stroke="url(#paint16_linear)"/>
<path d="M263.261 158.213C260.952 159.087 258.17 162.818 262.512 164.016C267.94 165.513 264.384 159.523 263.261 158.213Z" fill="white"/>
<path d="M263.261 158.213C260.952 159.087 258.17 162.818 262.512 164.016C267.94 165.513 264.384 159.523 263.261 158.213Z" fill="url(#paint17_linear)"/>
<path d="M263.261 158.213C260.952 159.087 258.17 162.818 262.512 164.016C267.94 165.513 264.384 159.523 263.261 158.213Z" stroke="white"/>
<path d="M263.261 158.213C260.952 159.087 258.17 162.818 262.512 164.016C267.94 165.513 264.384 159.523 263.261 158.213Z" stroke="url(#paint18_linear)"/>
<circle r="1.49746" transform="matrix(1 0 0 -1 262.887 157.464)" fill="#F95671"/>
<path d="M262.325 158.775C261.951 159.711 262.699 161.582 262.325 162.144" stroke="#FC8FA1" stroke-width="0.5" stroke-linecap="round"/>
<path d="M263.448 158.588C264.322 159.461 266.181 161.171 266.63 161.021" stroke="#FC8FA1" stroke-width="0.5" stroke-linecap="round"/>
<path d="M263.261 156.529C263.698 156.029 264.684 155.031 265.133 155.031" stroke="#FC8FA1" stroke-width="0.5" stroke-linecap="round"/>
<path d="M261.951 158.213C261.576 158.712 260.715 159.711 260.266 159.711" stroke="#FC8FA1" stroke-width="0.5" stroke-linecap="round"/>
<path d="M262.887 158.775C263.635 159.898 264.384 161.957 264.197 162.144" stroke="#FC8FA1" stroke-width="0.5" stroke-linecap="round"/>
<path d="M262.138 157.465C261.514 157.589 260.191 157.989 259.892 158.588" stroke="#FC8FA1" stroke-width="0.5" stroke-linecap="round"/>
<path d="M263.261 157.652C264.072 157.465 265.32 158.588 267.379 159.149" stroke="#FC8FA1" stroke-width="0.5" stroke-linecap="round"/>
<circle r="0.374365" transform="matrix(1 0 0 -1 262.512 162.331)" fill="#D49E0A"/>
<circle r="0.374365" transform="matrix(1 0 0 -1 264.384 162.331)" fill="#D49E0A"/>
<circle r="0.374365" transform="matrix(1 0 0 -1 266.63 161.208)" fill="#D49E0A"/>
<circle r="0.374365" transform="matrix(1 0 0 -1 267.379 158.962)" fill="#D49E0A"/>
<circle r="0.374365" transform="matrix(1 0 0 -1 265.507 154.844)" fill="#D49E0A"/>
<circle r="0.374365" transform="matrix(1 0 0 -1 259.892 158.588)" fill="#D49E0A"/>
<circle r="0.374365" transform="matrix(1 0 0 -1 260.266 159.711)" fill="#D49E0A"/>
<path d="M144.671 174.921C142.986 174.422 137.558 176.98 138.681 179.601C140.364 183.528 147.666 178.852 144.671 174.921Z" fill="white"/>
<path d="M146.356 175.108C146.168 171.739 150.474 168.557 153.469 172.488C156.464 176.418 146.543 178.477 146.356 175.108Z" fill="white" stroke="white"/>
<path d="M144.484 173.611C143.111 170.928 139.842 166.722 137.745 171.364C135.125 177.167 144.297 176.418 144.484 173.611Z" fill="white"/>
<path d="M144.484 173.611C143.111 170.928 139.842 166.722 137.745 171.364C135.125 177.167 144.297 176.418 144.484 173.611Z" fill="url(#paint19_linear)"/>
<path d="M144.484 173.611C143.111 170.928 139.842 166.722 137.745 171.364C135.125 177.167 144.297 176.418 144.484 173.611Z" stroke="white"/>
<path d="M144.484 173.611C143.111 170.928 139.842 166.722 137.745 171.364C135.125 177.167 144.297 176.418 144.484 173.611Z" stroke="url(#paint20_linear)"/>
<path d="M146.356 175.67C148.227 177.23 151.297 180.836 148.602 182.783C145.233 185.216 142.986 177.542 146.356 175.67Z" fill="white"/>
<path d="M146.356 175.67C148.227 177.23 151.297 180.836 148.602 182.783C145.233 185.216 142.986 177.542 146.356 175.67Z" fill="url(#paint21_linear)"/>
<path d="M146.356 175.67C148.227 177.23 151.297 180.836 148.602 182.783C145.233 185.216 142.986 177.542 146.356 175.67Z" stroke="white"/>
<path d="M146.356 175.67C148.227 177.23 151.297 180.836 148.602 182.783C145.233 185.216 142.986 177.542 146.356 175.67Z" stroke="url(#paint22_linear)"/>
<path d="M145.045 173.985C147.354 173.112 150.137 169.38 145.794 168.182C140.366 166.685 143.922 172.675 145.045 173.985Z" fill="white"/>
<path d="M145.045 173.985C147.354 173.112 150.137 169.38 145.794 168.182C140.366 166.685 143.922 172.675 145.045 173.985Z" fill="url(#paint23_linear)"/>
<path d="M145.045 173.985C147.354 173.112 150.137 169.38 145.794 168.182C140.366 166.685 143.922 172.675 145.045 173.985Z" stroke="white"/>
<path d="M145.045 173.985C147.354 173.112 150.137 169.38 145.794 168.182C140.366 166.685 143.922 172.675 145.045 173.985Z" stroke="url(#paint24_linear)"/>
<circle r="1.49746" transform="matrix(-1 0 0 1 145.42 174.734)" fill="#F95671"/>
<path d="M145.981 173.423C146.356 172.488 145.607 170.616 145.981 170.054" stroke="#FC8FA1" stroke-width="0.5" stroke-linecap="round"/>
<path d="M144.858 173.611C143.985 172.737 142.125 171.027 141.676 171.177" stroke="#FC8FA1" stroke-width="0.5" stroke-linecap="round"/>
<path d="M145.045 175.67C144.609 176.169 143.623 177.167 143.174 177.167" stroke="#FC8FA1" stroke-width="0.5" stroke-linecap="round"/>
<path d="M146.356 173.985C146.73 173.486 147.591 172.488 148.04 172.488" stroke="#FC8FA1" stroke-width="0.5" stroke-linecap="round"/>
<path d="M145.42 173.423C144.671 172.3 143.922 170.241 144.109 170.054" stroke="#FC8FA1" stroke-width="0.5" stroke-linecap="round"/>
<path d="M146.168 174.734C146.792 174.609 148.115 174.21 148.415 173.611" stroke="#FC8FA1" stroke-width="0.5" stroke-linecap="round"/>
<path d="M145.045 174.547C144.234 174.734 142.986 173.611 140.927 173.049" stroke="#FC8FA1" stroke-width="0.5" stroke-linecap="round"/>
<circle r="0.374365" transform="matrix(-1 0 0 1 145.794 169.867)" fill="#D49E0A"/>
<circle r="0.374365" transform="matrix(-1 0 0 1 143.922 169.867)" fill="#D49E0A"/>
<circle r="0.374365" transform="matrix(-1 0 0 1 141.676 170.99)" fill="#D49E0A"/>
<circle r="0.374365" transform="matrix(-1 0 0 1 140.927 173.236)" fill="#D49E0A"/>
<circle r="0.374365" transform="matrix(-1 0 0 1 142.799 177.354)" fill="#D49E0A"/>
<circle r="0.374365" transform="matrix(-1 0 0 1 148.415 173.611)" fill="#D49E0A"/>
<circle r="0.374365" transform="matrix(-1 0 0 1 148.04 172.488)" fill="#D49E0A"/>
<path d="M45.6353 8.92076C47.32 8.42161 52.7483 10.9798 51.6252 13.6003C49.9421 17.5274 42.6404 12.8516 45.6353 8.92076Z" fill="white"/>
<path d="M43.9507 9.10809C44.1378 5.73883 39.8327 2.55669 36.8377 6.48754C33.8427 10.4184 43.7635 12.4774 43.9507 9.10809Z" fill="white" stroke="white"/>
<path d="M45.8224 7.61048C47.1951 4.92753 50.4646 0.722171 52.561 5.36429C55.1816 11.1669 46.0096 10.4182 45.8224 7.61048Z" fill="white"/>
<path d="M45.8224 7.61048C47.1951 4.92753 50.4646 0.722171 52.561 5.36429C55.1816 11.1669 46.0096 10.4182 45.8224 7.61048Z" fill="url(#paint25_linear)"/>
<path d="M45.8224 7.61048C47.1951 4.92753 50.4646 0.722171 52.561 5.36429C55.1816 11.1669 46.0096 10.4182 45.8224 7.61048Z" stroke="white"/>
<path d="M45.8224 7.61048C47.1951 4.92753 50.4646 0.722171 52.561 5.36429C55.1816 11.1669 46.0096 10.4182 45.8224 7.61048Z" stroke="url(#paint26_linear)"/>
<path d="M43.9506 9.66956C42.0788 11.2294 39.009 14.8358 41.7044 16.7825C45.0737 19.2159 47.3198 11.5414 43.9506 9.66956Z" fill="white"/>
<path d="M43.9506 9.66956C42.0788 11.2294 39.009 14.8358 41.7044 16.7825C45.0737 19.2159 47.3198 11.5414 43.9506 9.66956Z" fill="url(#paint27_linear)"/>
<path d="M43.9506 9.66956C42.0788 11.2294 39.009 14.8358 41.7044 16.7825C45.0737 19.2159 47.3198 11.5414 43.9506 9.66956Z" stroke="white"/>
<path d="M43.9506 9.66956C42.0788 11.2294 39.009 14.8358 41.7044 16.7825C45.0737 19.2159 47.3198 11.5414 43.9506 9.66956Z" stroke="url(#paint28_linear)"/>
<path d="M45.2609 7.98494C42.9524 7.11142 40.1696 3.38024 44.5122 2.18227C49.9405 0.684815 46.384 6.67466 45.2609 7.98494Z" fill="white"/>
<path d="M45.2609 7.98494C42.9524 7.11142 40.1696 3.38024 44.5122 2.18227C49.9405 0.684815 46.384 6.67466 45.2609 7.98494Z" fill="url(#paint29_linear)"/>
<path d="M45.2609 7.98494C42.9524 7.11142 40.1696 3.38024 44.5122 2.18227C49.9405 0.684815 46.384 6.67466 45.2609 7.98494Z" stroke="white"/>
<path d="M45.2609 7.98494C42.9524 7.11142 40.1696 3.38024 44.5122 2.18227C49.9405 0.684815 46.384 6.67466 45.2609 7.98494Z" stroke="url(#paint30_linear)"/>
<circle cx="44.8866" cy="8.73366" r="1.49746" fill="#F95671"/>
<path d="M44.325 7.42336C43.9507 6.48745 44.6994 4.61562 44.325 4.05408" stroke="#FC8FA1" stroke-width="0.5" stroke-linecap="round"/>
<path d="M45.4481 7.61057C46.3216 6.73705 48.181 5.02745 48.6302 5.1772" stroke="#FC8FA1" stroke-width="0.5" stroke-linecap="round"/>
<path d="M45.2609 9.66956C45.6977 10.1687 46.6835 11.167 47.1327 11.167" stroke="#FC8FA1" stroke-width="0.5" stroke-linecap="round"/>
<path d="M43.9506 7.98488C43.5763 7.48573 42.7152 6.48743 42.266 6.48743" stroke="#FC8FA1" stroke-width="0.5" stroke-linecap="round"/>
<path d="M44.8866 7.42336C45.6353 6.30026 46.3841 4.24126 46.1969 4.05408" stroke="#FC8FA1" stroke-width="0.5" stroke-linecap="round"/>
<path d="M44.1379 8.73369C43.5139 8.6089 42.1912 8.20958 41.8917 7.6106" stroke="#FC8FA1" stroke-width="0.5" stroke-linecap="round"/>
<path d="M45.2609 8.54653C46.072 8.73371 47.3199 7.61062 49.3789 7.04907" stroke="#FC8FA1" stroke-width="0.5" stroke-linecap="round"/>
<circle cx="44.5122" cy="3.86692" r="0.374365" fill="#D49E0A"/>
<circle cx="46.384" cy="3.86692" r="0.374365" fill="#D49E0A"/>
<circle cx="48.6302" cy="4.98996" r="0.374365" fill="#D49E0A"/>
<circle cx="49.3789" cy="7.23618" r="0.374365" fill="#D49E0A"/>
<circle cx="47.5072" cy="11.3542" r="0.374365" fill="#D49E0A"/>
<circle cx="41.8916" cy="7.61057" r="0.374365" fill="#D49E0A"/>
<circle cx="42.266" cy="6.48752" r="0.374365" fill="#D49E0A"/>
<defs>
<linearGradient id="paint0_linear" x1="326.275" y1="95.9436" x2="326.275" y2="186.944" gradientUnits="userSpaceOnUse">
<stop stop-color="white"/>
<stop offset="1" stop-color="white" stop-opacity="0"/>
</linearGradient>
<linearGradient id="paint1_linear" x1="459.427" y1="119.149" x2="459.427" y2="125.604" gradientUnits="userSpaceOnUse">
<stop stop-color="white"/>
<stop offset="1" stop-color="white" stop-opacity="0"/>
</linearGradient>
<linearGradient id="paint2_linear" x1="459.427" y1="119.149" x2="459.427" y2="125.604" gradientUnits="userSpaceOnUse">
<stop stop-color="white"/>
<stop offset="1" stop-color="white" stop-opacity="0"/>
</linearGradient>
<linearGradient id="paint3_linear" x1="453.13" y1="125.532" x2="453.13" y2="133.117" gradientUnits="userSpaceOnUse">
<stop stop-color="white"/>
<stop offset="1" stop-color="white" stop-opacity="0"/>
</linearGradient>
<linearGradient id="paint4_linear" x1="453.13" y1="125.532" x2="453.13" y2="133.117" gradientUnits="userSpaceOnUse">
<stop stop-color="white"/>
<stop offset="1" stop-color="white" stop-opacity="0"/>
</linearGradient>
<linearGradient id="paint5_linear" x1="454.838" y1="117.807" x2="454.838" y2="123.848" gradientUnits="userSpaceOnUse">
<stop stop-color="white"/>
<stop offset="1" stop-color="white" stop-opacity="0"/>
</linearGradient>
<linearGradient id="paint6_linear" x1="454.838" y1="117.807" x2="454.838" y2="123.848" gradientUnits="userSpaceOnUse">
<stop stop-color="white"/>
<stop offset="1" stop-color="white" stop-opacity="0"/>
</linearGradient>
<linearGradient id="paint7_linear" x1="341.879" y1="28.9125" x2="341.879" y2="22.4572" gradientUnits="userSpaceOnUse">
<stop stop-color="white"/>
<stop offset="1" stop-color="white" stop-opacity="0"/>
</linearGradient>
<linearGradient id="paint8_linear" x1="341.879" y1="28.9125" x2="341.879" y2="22.4572" gradientUnits="userSpaceOnUse">
<stop stop-color="white"/>
<stop offset="1" stop-color="white" stop-opacity="0"/>
</linearGradient>
<linearGradient id="paint9_linear" x1="348.176" y1="22.5287" x2="348.176" y2="14.9437" gradientUnits="userSpaceOnUse">
<stop stop-color="white"/>
<stop offset="1" stop-color="white" stop-opacity="0"/>
</linearGradient>
<linearGradient id="paint10_linear" x1="348.176" y1="22.5287" x2="348.176" y2="14.9437" gradientUnits="userSpaceOnUse">
<stop stop-color="white"/>
<stop offset="1" stop-color="white" stop-opacity="0"/>
</linearGradient>
<linearGradient id="paint11_linear" x1="346.468" y1="30.2545" x2="346.468" y2="24.2133" gradientUnits="userSpaceOnUse">
<stop stop-color="white"/>
<stop offset="1" stop-color="white" stop-opacity="0"/>
</linearGradient>
<linearGradient id="paint12_linear" x1="346.468" y1="30.2545" x2="346.468" y2="24.2133" gradientUnits="userSpaceOnUse">
<stop stop-color="white"/>
<stop offset="1" stop-color="white" stop-opacity="0"/>
</linearGradient>
<linearGradient id="paint13_linear" x1="267.427" y1="162.912" x2="267.427" y2="156.457" gradientUnits="userSpaceOnUse">
<stop stop-color="white"/>
<stop offset="1" stop-color="white" stop-opacity="0"/>
</linearGradient>
<linearGradient id="paint14_linear" x1="267.427" y1="162.912" x2="267.427" y2="156.457" gradientUnits="userSpaceOnUse">
<stop stop-color="white"/>
<stop offset="1" stop-color="white" stop-opacity="0"/>
</linearGradient>
<linearGradient id="paint15_linear" x1="261.13" y1="156.529" x2="261.13" y2="148.944" gradientUnits="userSpaceOnUse">
<stop stop-color="white"/>
<stop offset="1" stop-color="white" stop-opacity="0"/>
</linearGradient>
<linearGradient id="paint16_linear" x1="261.13" y1="156.529" x2="261.13" y2="148.944" gradientUnits="userSpaceOnUse">
<stop stop-color="white"/>
<stop offset="1" stop-color="white" stop-opacity="0"/>
</linearGradient>
<linearGradient id="paint17_linear" x1="262.838" y1="164.254" x2="262.838" y2="158.213" gradientUnits="userSpaceOnUse">
<stop stop-color="white"/>
<stop offset="1" stop-color="white" stop-opacity="0"/>
</linearGradient>
<linearGradient id="paint18_linear" x1="262.838" y1="164.254" x2="262.838" y2="158.213" gradientUnits="userSpaceOnUse">
<stop stop-color="white"/>
<stop offset="1" stop-color="white" stop-opacity="0"/>
</linearGradient>
<linearGradient id="paint19_linear" x1="140.879" y1="169.286" x2="140.879" y2="175.741" gradientUnits="userSpaceOnUse">
<stop stop-color="white"/>
<stop offset="1" stop-color="white" stop-opacity="0"/>
</linearGradient>
<linearGradient id="paint20_linear" x1="140.879" y1="169.286" x2="140.879" y2="175.741" gradientUnits="userSpaceOnUse">
<stop stop-color="white"/>
<stop offset="1" stop-color="white" stop-opacity="0"/>
</linearGradient>
<linearGradient id="paint21_linear" x1="147.176" y1="175.67" x2="147.176" y2="183.255" gradientUnits="userSpaceOnUse">
<stop stop-color="white"/>
<stop offset="1" stop-color="white" stop-opacity="0"/>
</linearGradient>
<linearGradient id="paint22_linear" x1="147.176" y1="175.67" x2="147.176" y2="183.255" gradientUnits="userSpaceOnUse">
<stop stop-color="white"/>
<stop offset="1" stop-color="white" stop-opacity="0"/>
</linearGradient>
<linearGradient id="paint23_linear" x1="145.468" y1="167.944" x2="145.468" y2="173.985" gradientUnits="userSpaceOnUse">
<stop stop-color="white"/>
<stop offset="1" stop-color="white" stop-opacity="0"/>
</linearGradient>
<linearGradient id="paint24_linear" x1="145.468" y1="167.944" x2="145.468" y2="173.985" gradientUnits="userSpaceOnUse">
<stop stop-color="white"/>
<stop offset="1" stop-color="white" stop-opacity="0"/>
</linearGradient>
<linearGradient id="paint25_linear" x1="49.427" y1="3.28577" x2="49.427" y2="9.74106" gradientUnits="userSpaceOnUse">
<stop stop-color="white"/>
<stop offset="1" stop-color="white" stop-opacity="0"/>
</linearGradient>
<linearGradient id="paint26_linear" x1="49.427" y1="3.28577" x2="49.427" y2="9.74106" gradientUnits="userSpaceOnUse">
<stop stop-color="white"/>
<stop offset="1" stop-color="white" stop-opacity="0"/>
</linearGradient>
<linearGradient id="paint27_linear" x1="43.1303" y1="9.66956" x2="43.1303" y2="17.2545" gradientUnits="userSpaceOnUse">
<stop stop-color="white"/>
<stop offset="1" stop-color="white" stop-opacity="0"/>
</linearGradient>
<linearGradient id="paint28_linear" x1="43.1303" y1="9.66956" x2="43.1303" y2="17.2545" gradientUnits="userSpaceOnUse">
<stop stop-color="white"/>
<stop offset="1" stop-color="white" stop-opacity="0"/>
</linearGradient>
<linearGradient id="paint29_linear" x1="44.8381" y1="1.94373" x2="44.8381" y2="7.98494" gradientUnits="userSpaceOnUse">
<stop stop-color="white"/>
<stop offset="1" stop-color="white" stop-opacity="0"/>
</linearGradient>
<linearGradient id="paint30_linear" x1="44.8381" y1="1.94373" x2="44.8381" y2="7.98494" gradientUnits="userSpaceOnUse">
<stop stop-color="white"/>
<stop offset="1" stop-color="white" stop-opacity="0"/>
</linearGradient>
</defs>
</svg>
