<svg xmlns="http://www.w3.org/2000/svg" width="502" height="175" viewBox="0 0 502 175">
    <g fill="none" fill-rule="evenodd">
        <path fill="#FCBF03" d="M0 103.268h117.793V90.86H0zM3.72 174h110.353v-70.732H3.72z"/>
        <path fill="#F4811F" d="M3.72 105.75h110.353v-2.482H3.72z"/>
        <path stroke="#FFF" stroke-width="4" d="M58.897 89.618V174"/>
        <g stroke="#FFF" stroke-linecap="round" stroke-linejoin="round" stroke-width="4">
            <path d="M58.277 89.618s23.658-33.291 31.34-22.758c7.684 10.534-5.944 15.578-31.34 22.758zM58.277 89.618S34.618 56.327 26.935 66.86c-7.682 10.534 5.945 15.578 31.342 22.758z"/>
        </g>
        <path fill="#F3B5C6" d="M84.187 140.4h39.12V86.192h-39.12z"/>
        <path fill="#F3B5C6" d="M80.52 93.584h46.455v-7.392H80.52z"/>
        <path fill="#1A4278" d="M84.187 94.816h39.12v-1.232h-39.12z"/>
        <g stroke="#6719FF" stroke-linecap="round" stroke-linejoin="round" stroke-width="1.5">
            <path d="M103.747 86.192s-6.911-9.916-9.155-6.778c-2.245 3.137 1.736 4.64 9.155 6.778zM103.747 86.192s6.912-9.916 9.156-6.778c2.245 3.137-1.736 4.64-9.156 6.778z"/>
        </g>
        <path stroke="#6719FF" stroke-width="1.5" d="M104.359 86.192V140.4"/>
        <g>
            <path fill="#E6F7FF" d="M166.698 76h26.995V57.8h-26.995z"/>
            <path fill="#E6F7FF" d="M165.471 62.653h29.449V57.8H165.47z"/>
            <path fill="#2FB7EC" d="M166.698 63.867h26.995v-1.214h-26.995z"/>
            <path stroke="#006BA0" d="M166.698 67.675c2.312-.516 4.833-.212 6.323.747 1.6 1.03 1.33 2.379 1.28 2.592-.211.926-1.161 2.114-1.909 2.058-1.199-.088-3.216-3.48-.174-5.319 2.131-1.29 5.35-.97 5.596-.943 3.37.367 4.798 2.191 5.14 2.628 1.148 1.467 1.284 3.582-.177 4.037-.608.188-1.509.096-2.06-.189-2.158-1.116-.465-5.939 3.663-6.476 2.159-.28 4.147.718 4.59.942 3.205 1.611 3.57 4.775 2.13 5.275-.54.188-1.256-.026-1.318-.045-2.268-.7-2.644-4.703.712-6.13 1.053-.45 2.266-.555 3.199-.559"/>
        </g>
        <g>
            <path fill="#EB393A" d="M132.712 130.6h94.967V76h-94.967z"/>
            <path fill="#750517" d="M132.712 90.27h94.967v-1.86h-94.967z"/>
            <path fill="#EB393A" d="M129.011 88.41H231.38V76H129.011z"/>
        </g>
        <g>
            <path fill="#F6E711" d="M121.694 130.6h63.715v-21.338h-63.715zM119.195 108.007h68.713v-6.276h-68.713z"/>
            <path fill="#DE7712" d="M121.694 109.262h63.715v-1.255h-63.715z"/>
            <path stroke="#E4AB0F" d="M121.694 113.382c.38-.16 4.9 3.268 10.916 3.238 3.11-.016 6.715-3.6 10.556-3.592 3.398.006 6.973 3.6 10.552 3.619 3.582.018 7.174-3.542 10.572-3.518 3.844.026 7.438 3.636 10.548 3.664 6.301.053 5.293-3.54 10.571-3.485M121.694 120.559c5.306 0 5.306 3.765 10.614 3.765 5.308 0 5.308-3.765 10.616-3.765 5.31 0 5.31 3.765 10.62 3.765s5.31-3.765 10.617-3.765c5.313 0 5.313 3.765 10.625 3.765s5.312-3.765 10.623-3.765M154.801 130.6v-28.869"/>
            <g stroke="#E4AB0F" stroke-linecap="round" stroke-linejoin="round">
                <path d="M155.565 101.731s-5.396-10.102-7.148-6.906c-1.752 3.197 1.355 4.727 7.148 6.906z"/>
                <path d="M154.038 101.731s5.395-10.102 7.147-6.906c1.752 3.197-1.356 4.727-7.147 6.906z"/>
            </g>
        </g>
        <g>
            <path fill="#DBE65A" d="M69.817 174h52.63v-28.622h-52.63z"/>
            <path fill="#88C43F" d="M69.817 145.378h52.63v-1.245h-52.63z"/>
            <path fill="#DBE65A" d="M67.31 144.133h58.897V140.4H67.31z"/>
            <path stroke="#03918B" d="M69.817 152.953c4.506-.97 9.423-.399 12.327 1.405 3.12 1.937 2.592 4.473 2.498 4.875-.414 1.74-2.266 3.973-3.723 3.868-2.34-.166-6.271-6.544-.341-10.002 4.156-2.423 10.432-1.822 10.911-1.772 6.57.69 9.355 4.12 10.022 4.941 2.238 2.759 2.505 6.735-.346 7.59-1.185.356-2.94.182-4.016-.354-4.208-2.097-.906-11.167 7.142-12.177 4.21-.53 8.086 1.351 8.95 1.77 6.248 3.03 6.96 8.98 4.151 9.92-1.052.353-2.447-.049-2.567-.085-4.423-1.317-5.157-8.843 1.386-11.528 2.055-.843 4.419-1.042 6.237-1.048"/>
        </g>
        <g>
            <path fill="#276B99" d="M120.108 174h117.697v-33.48H120.108z"/>
            <path fill="#001D53" d="M120.108 142.38h117.697v-1.86H120.108z"/>
            <path fill="#276B99" d="M116.39 140.52H244v-9.92H116.39z"/>
            <path stroke="#FFF" d="M120.108 149.2c9.807 0 9.807 3.72 19.615 3.72 9.804 0 9.804-3.72 19.608-3.72 9.809 0 9.809 3.72 19.617 3.72 9.804 0 9.804-3.72 19.61-3.72 9.811 0 9.811 3.72 19.624 3.72 9.81 0 9.81-3.72 19.623-3.72M120.108 160.36c9.807 0 9.807 3.72 19.615 3.72 9.804 0 9.804-3.72 19.608-3.72 9.809 0 9.809 3.72 19.617 3.72 9.804 0 9.804-3.72 19.61-3.72 9.813 0 9.813 3.72 19.624 3.72 9.81 0 9.81-3.72 19.623-3.72"/>
        </g>
        <g>
            <path fill="#76614D" d="M337 70.22h165V59H337z"/>
            <path fill="#8D745C" d="M352.381 174H486.62V70.22H352.38z"/>
            <path fill="#371B00" d="M352.381 73.024H486.62V70.22H352.38zM378.95 174h82.5v-65.915h-82.5z"/>
            <path fill="#D38E4B" d="M449.385 173.653h-55.93c-4.12 0-7.492-3.307-7.492-7.35 0-4.04 3.372-7.347 7.493-7.347h55.93c4.12 0 7.493 3.306 7.493 7.348s-3.373 7.349-7.494 7.349"/>
            <path fill="#1A4278" d="M455.167 171.454h-34.372c-1.53 0-2.777-1.15-2.777-2.565v-.765c0-1.415 1.246-2.565 2.777-2.565h4.249c1.14 0 2.069-.839 2.069-1.869s-.93-1.87-2.069-1.87h-26.51c-1.531 0-2.777-1.15-2.777-2.563v-.301a.35.35 0 0 1 .354-.347.35.35 0 0 1 .354.347v.301c0 1.03.929 1.87 2.07 1.87h26.509c1.53 0 2.777 1.15 2.777 2.563 0 1.414-1.246 2.564-2.777 2.564h-4.25c-1.14 0-2.068.838-2.068 1.87v.765c0 1.032.928 1.871 2.069 1.871h34.372a.35.35 0 0 1 .354.347.35.35 0 0 1-.354.347"/>
            <path fill="#1A4278" d="M456.879 167.519h-12.677c-1.013 0-1.837-.807-1.837-1.8s.824-1.801 1.837-1.801h12.375c.195 0 .354.157.354.347a.35.35 0 0 1-.354.347h-12.375c-.623 0-1.129.497-1.129 1.107s.506 1.105 1.129 1.105h12.677a.35.35 0 0 1 .354.348.35.35 0 0 1-.354.347"/>
            <path fill="#FCBF03" d="M423.368 125.047s-13.806 3.587-14.868 15.508c-1.062 11.92 8.732 19.095 14.277 18.4 5.546-.694 11.093-4.744 11.447-9.837.354-5.091-6.137-10.068-8.261-12.267-2.124-2.198-3.657-4.745-2.595-11.804"/>
            <path fill="#EF5055" d="M421.952 144.721s-4.374 5.847-4.956 9.142c-.582 3.296 3.54 5.557 5.781 5.093 2.242-.465 3.776-2.43 3.659-4.745-.12-2.315-4.484-9.49-4.484-9.49"/>
            <path fill="#1A4278" d="M409.61 174a.35.35 0 0 1-.355-.347.35.35 0 0 1 .354-.347c1.112 0 2.018-.89 2.018-1.98 0-.535-.214-1.037-.6-1.41-.384-.372-.895-.53-1.436-.568-23.203.283-23.301.062-23.433-.242a.347.347 0 0 1 .187-.457.353.353 0 0 1 .305.014c.824.158 9.567.153 22.932-.01a2.733 2.733 0 0 1 1.943.768c.522.506.81 1.184.81 1.906 0 1.475-1.222 2.673-2.726 2.673"/>
        </g>
        <g>
            <path fill="#FCBF03" d="M319.497.364l2.301 4.496c.099.193.29.327.511.358l5.147.721c.556.078.778.737.375 1.114l-3.724 3.5a.64.64 0 0 0-.195.578l.88 4.942c.094.535-.487.941-.984.69l-4.604-2.334a.702.702 0 0 0-.63 0l-4.604 2.333c-.497.252-1.078-.154-.983-.689l.879-4.942a.638.638 0 0 0-.195-.578l-3.725-3.5c-.402-.377-.18-1.036.376-1.114l5.147-.721a.677.677 0 0 0 .51-.358l2.302-4.496c.249-.485.967-.485 1.216 0"/>
            <path fill="#1E6458" d="M283 102.052h22.678L283 155.758h36.593V15.435z"/>
            <path fill="#2A7265" d="M334.569 102.052H359l-39.407-86.617v140.323H359z"/>
            <path fill="#D38E4B" d="M315 174.242h11.26V156H315z"/>
            <path fill="#EB393A" d="M346.333 52.621c0 3.487-2.835 6.314-6.331 6.314-3.5 0-6.335-2.827-6.335-6.314s2.835-6.315 6.335-6.315c3.496 0 6.331 2.828 6.331 6.315M306.926 112.96c0 3.487-2.835 6.314-6.332 6.314-3.5 0-6.335-2.827-6.335-6.314s2.835-6.315 6.335-6.315c3.497 0 6.332 2.828 6.332 6.315M351.963 153.653c0 3.487-2.835 6.315-6.331 6.315-3.5 0-6.336-2.828-6.336-6.315 0-3.487 2.835-6.314 6.336-6.314 3.496 0 6.331 2.827 6.331 6.314"/>
            <path fill="#DBE65A" d="M295.667 87.704c0 3.485-2.835 6.312-6.336 6.312-3.492 0-6.331-2.827-6.331-6.312 0-3.49 2.839-6.317 6.331-6.317 3.5 0 6.336 2.827 6.336 6.317M333.667 73.671c0 3.486-2.835 6.313-6.336 6.313-3.492 0-6.331-2.827-6.331-6.313 0-3.49 2.839-6.316 6.331-6.316 3.5 0 6.336 2.826 6.336 6.316M339.296 128.397c0 3.486-2.835 6.313-6.335 6.313-3.492 0-6.331-2.827-6.331-6.313 0-3.49 2.839-6.316 6.331-6.316 3.5 0 6.335 2.826 6.335 6.316"/>
            <path fill="#276B99" d="M357.593 100.329c0 3.49-2.835 6.316-6.336 6.316-3.496 0-6.331-2.826-6.331-6.316 0-3.486 2.835-6.313 6.331-6.313 3.5 0 6.336 2.827 6.336 6.313M315.37 42.796c0 3.49-2.835 6.317-6.335 6.317-3.496 0-6.331-2.827-6.331-6.317 0-3.485 2.835-6.312 6.331-6.312 3.5 0 6.335 2.827 6.335 6.312M313.963 143.829c0 3.49-2.835 6.316-6.335 6.316-3.497 0-6.332-2.826-6.332-6.316 0-3.486 2.835-6.313 6.332-6.313 3.5 0 6.335 2.827 6.335 6.313"/>
        </g>
    </g>
</svg>
