<svg xmlns="http://www.w3.org/2000/svg" xmlns:xlink="http://www.w3.org/1999/xlink" width="117" height="86" viewBox="0 0 117 86">
    <defs>
        <path id="a" d="M.156.117h18.799v9.794H.155z"/>
        <path id="c" d="M0 47h24.94V.035H0z"/>
        <path id="e" d="M0 .031h26.642v17.837H0z"/>
        <path id="g" d="M.051.031h26.637v17.837H.051z"/>
        <path id="i" d="M.044.078h6.36v6.444H.045z"/>
        <path id="k" d="M.019.078h6.36v6.444H.019z"/>
    </defs>
    <g fill="none" fill-rule="evenodd">
        <path fill="#F7A79A" d="M8.256 81s-1.837 1.741-2.924 2.024C4.245 83.306.09 83.212 0 85h11.651L14 81.988 8.256 81z"/>
        <path fill="#1C4178" d="M13.203 82.383S11.77 84.066 11.676 85h44.847c.382 0 5.44-.466 6.68-3.27 1.24-2.801 2.187-9.068-6.49-12.236-8.674-3.168-11.264-4.168-11.264-4.168L6.213 63s-2.495 9.203-.329 14.902c0 0 1.117 4.76 7.319 4.481"/>
        <path fill="#F7A79A" d="M42.052 65.387c1.649.35 4.095.919 5.68 1.523 2.577.98 5.874 1.862 6.238 0 .364-1.864-2.727-3.629-3.544-4.119-.575-.345-4.778-1.272-7.219-1.791-.256.325-.555.78-.79 1.37-.51 1.269-.44 2.433-.365 3.017M47 61.054s5.462-.274 4.968.412c-.493.685-1.918.515-1.918.515"/>
        <path stroke="#051D36" stroke-linecap="round" stroke-linejoin="round" stroke-width="1.5" d="M55.613 84s2.705-4.557.56-8.743c-2.146-4.185-11.753-8.266-11.753-8.266L42 66"/>
        <path stroke="#051D36" stroke-linecap="round" stroke-linejoin="round" stroke-width=".75" d="M43 82.861c-6.94-1.35-18.066-.533-22.82-.276 0 0-3.552.465-6.18.255"/>
        <path fill="#EEF2F5" d="M30.664 32.258c.5 1.793 1.178 4.252 1.386 6.41.31 3.22.95 11.417 1.166 14.216 0 0 .009.66.14 1.217 0 0 .057.585 1.03.98L45 59.373s-.965 2.005-1.141 3.784l-.02 1.429-10.81-4.453c-1 1.24-1.262 4.866-1.262 4.866s-14.43-.573-21.692-1.623C2.812 62.327 3 55.554 3 55.554v-11.64c.345-14.203 5.165-17.803 7.712-18.712 0 0 1.23-.407 2.312-.066l11.078 3.492s3.75.763 5.47 1.84c0 0 .618.086 1.092 1.79"/>
        <path stroke="#C4CDD5" stroke-linecap="round" stroke-linejoin="round" stroke-width=".75" d="M33 61l-1.74-.456c-3.727-.983-12.336-3.257-14.644-3.94-2.973-.879-2.601-2.05-2.601-2.05L14.479 40M29.5 42v18"/>
        <path fill="#231F20" d="M35.234 11.015c.032-.03.089-.013.092.03.061.893.502 7.028 1.1 8.506.614 1.518 3.738 4.8 2.108 8.572-.155.359-.561.576-.989.572l-1.811-.02c-.031 0-.055-.02-.055-.048l.013-1.275s-.898 1.778-1.337 1.64c-.44-.136-4.631.199-9.42-1.793-4.58-1.906 9.095-15.04 10.3-16.184"/>
        <path fill="#F7A79A" d="M23.875 28.66l.512-2.426c.588-.29.837.108 2.237.2.54.035 1.925.125 3.108-.437 1.097-.522 1.657-1.432 2.032-2.06 2-3.345 2.212-10.052 2.236-10.937 0 0-20.144.811-20 8.284l3.07 3.971-.318 1.501c.938 3.103 3.426 4.635 5.093 4.159 1.264-.361 1.868-1.822 2.03-2.254"/>
        <path fill="#EEAE21" d="M34.361 11s.273.423.277 1.685c.004 1.264-.277-1.685-.277-1.685"/>
        <path stroke="#231F20" stroke-width=".25" d="M34.361 11s.273.423.277 1.685c.004 1.264-.277-1.685-.277-1.685z"/>
        <path fill="#F7A79A" d="M31.052 64.887c1.649.35 4.094.919 5.68 1.523 2.577.98 5.875 1.862 6.238 0 .364-1.864-2.727-3.629-3.544-4.119-.576-.345-4.777-1.272-7.218-1.791-.257.325-.555.78-.792 1.37-.509 1.269-.438 2.433-.364 3.017"/>
        <path fill="#F7A79A" d="M37 62.054s5.463-.274 4.968.412c-.493.685-1.918.515-1.918.515"/>
        <path fill="#231F20" d="M32.096 19.857c-.079.547.037 1.053.26 1.133.223.077.469-.3.548-.846.079-.547-.037-1.054-.26-1.133-.224-.08-.469.298-.548.846M27.096 18.855c-.08.548.037 1.055.26 1.135.223.078.469-.3.548-.847.08-.546-.037-1.054-.26-1.132-.223-.08-.47.298-.548.844"/>
        <path stroke="#231F20" stroke-linecap="round" stroke-linejoin="round" stroke-width=".5" d="M28 23s.099.776 1 1M30.879 20s0 1.82-.202 1.962c-.202.142-.556-.159-.556-.159"/>
        <path fill="#231F20" d="M29 17.887l-3-.573s2.082-.723 3 .573M34 18.842l-2-.42s1.454-.815 2 .42"/>
        <path fill="#231F20" d="M34.821 9.226s-3.456-2.436-5.041-2.92c-1.584-.485-6.8-.77-9.628 2.186-1.892 1.98-2.426 3.631-3.957 4.863-1.364 1.097-1.863.587-3.29 1.506-2.09 1.346-4.464 4.237-3.787 6.27.353 1.065 1.224.942 6.418 3.243 3.006 1.334 4.038 1.969 4.696 1.44 1.061-.854-.506-3.373.883-5.133.846-1.072 1.862-.69 3.127-1.769 1.339-1.14 1.763-2.9 1.902-4.269 0 0 5.292.346 7.879-1.15 2.587-1.496 2.397-3.196.798-4.267"/>
        <g transform="translate(15 .2)">
            <mask id="b" fill="#fff">
                <use xlink:href="#a"/>
            </mask>
            <path fill="#F27D88" d="M18.955 8.26s-2.927-3.151-4.368-4.968C13.147 1.475 9.176-.129 7.25.148c-1.926.277-4.266.43-5.02 2.165-.756 1.736-1.2 3.48-1.313 4.937a7.096 7.096 0 0 1-.761 2.62s15.13.446 18.799-1.61" mask="url(#b)"/>
        </g>
        <path fill="#EF4F55" d="M35.741 9.218s.3.295.254 1.213c-.047.917.057 2.082-.73 1.632-.785-.452-1.172-1.573-2.644-1.977-1.475-.405-3.18-.816-6.687.195-3.506 1.01-8.017 2.699-9.898 2.696 0 0-.89.15-1-.319-.108-.467.044-1.884.208-2.363.166-.48 2.568-1.211 2.872-1.314.303-.102 8.387-2.015 10.056-1.98 1.668.033 5.874.11 7.57 2.217"/>
        <g>
            <path stroke="#3D97D0" stroke-width="1.5" d="M71.761 21.56l1.69-3.625"/>
            <g transform="scale(-1 1) rotate(-25 -.596 205.643)">
                <path fill="#1C4076" d="M13.236 4.659c0 .42-.343.76-.768.76a.764.764 0 0 1-.767-.76c0-.42.343-.761.767-.761.425 0 .768.341.768.76"/>
                <path fill="#3D97D0" d="M20.425 15.154H4.512c-.792 0-1.44-.642-1.44-1.427 0-.784.648-1.427 1.44-1.427h15.913c.792 0 1.44.643 1.44 1.427 0 .785-.648 1.427-1.44 1.427"/>
                <path fill="#1C4076" d="M19.16 19.333H5.777a1.083 1.083 0 0 1-1.085-1.074V9.196c0-.59.488-1.074 1.085-1.074H19.16c.597 0 1.085.483 1.085 1.074v9.063c0 .59-.488 1.074-1.085 1.074"/>
                <path fill="#FEFEFE" d="M8.731 13.871c0 .34-.278.615-.621.615a.618.618 0 0 1-.621-.615c0-.34.277-.616.62-.616.344 0 .622.276.622.616M17.448 13.871c0 .34-.278.615-.621.615a.618.618 0 0 1-.621-.615c0-.34.278-.616.62-.616.344 0 .622.276.622.616M16.3 17.732H8.637a.526.526 0 0 1-.527-.523c0-.287.237-.522.527-.522H16.3c.29 0 .527.235.527.522a.526.526 0 0 1-.527.523"/>
                <path fill="#1C4076" d="M9.291 44.826H6.307a.239.239 0 0 1-.24-.237v-6.911c0-.131.108-.238.24-.238h2.984c.132 0 .24.107.24.238v6.91c0 .132-.108.238-.24.238M18.63 44.826h-2.985a.239.239 0 0 1-.24-.237v-6.911c0-.131.108-.238.24-.238h2.984c.132 0 .24.107.24.238v6.91c0 .132-.108.238-.24.238"/>
                <path fill="#3D97D0" d="M9.516 46.838c0-.936-.773-1.701-1.717-1.701-.944 0-1.717.765-1.717 1.7V47h3.434v-.162zM18.855 46.838c0-.936-.773-1.701-1.718-1.701-.944 0-1.717.765-1.717 1.7V47h3.435v-.162zM21.526 19.978v4.988h3.205v-.632c0-2.406-1.435-4.356-3.205-4.356"/>
                <mask id="d" fill="#fff">
                    <use xlink:href="#c"/>
                </mask>
                <path fill="#1C4076" d="M21.526 32.939h3.205v-7.973h-3.205z" mask="url(#d)"/>
                <path fill="#3D97D0" d="M24.17 36.48a.338.338 0 0 1-.24-.099.333.333 0 0 1 0-.474 1.11 1.11 0 0 0 .332-.795c0-.3-.118-.581-.332-.793a1.143 1.143 0 0 0-1.603 0 1.116 1.116 0 0 0 0 1.588.333.333 0 0 1 0 .474.341.341 0 0 1-.48 0 1.784 1.784 0 0 1 0-2.537c.707-.7 1.856-.7 2.562 0 .342.338.53.79.53 1.268 0 .48-.188.93-.53 1.27a.339.339 0 0 1-.24.098M3.413 19.978v4.988H.208v-.632c0-2.406 1.435-4.356 3.205-4.356" mask="url(#d)"/>
                <path fill="#1C4076" d="M.208 32.939h3.205v-7.973H.208z" mask="url(#d)"/>
                <path fill="#3D97D0" d="M2.852 36.48a.338.338 0 0 1-.24-.099.333.333 0 0 1 0-.474 1.117 1.117 0 0 0 0-1.588 1.142 1.142 0 0 0-1.603 0 1.116 1.116 0 0 0 0 1.588.333.333 0 0 1 0 .474.341.341 0 0 1-.48 0 1.784 1.784 0 0 1 0-2.537 1.826 1.826 0 0 1 2.562 0c.707.7.707 1.838 0 2.537a.338.338 0 0 1-.24.099M10.19 3.506a.336.336 0 0 1-.326-.429 2.767 2.767 0 0 1 2.744-1.976 2.735 2.735 0 0 1 2.477 1.941.334.334 0 0 1-.226.418.338.338 0 0 1-.423-.224 2.057 2.057 0 0 0-1.86-1.465c-.923-.04-1.795.586-2.06 1.493a.339.339 0 0 1-.326.242" mask="url(#d)"/>
                <path fill="#3D97D0" d="M8.834 3.517a.336.336 0 0 1-.327-.426C8.984 1.409 10.443.188 12.137.05c1.938-.168 3.748 1.115 4.31 3.026a.339.339 0 0 1-.65.188C15.32 1.659 13.805.59 12.19.719c-1.413.115-2.631 1.14-3.03 2.552a.34.34 0 0 1-.327.246" mask="url(#d)"/>
                <path fill="#FEFEFE" d="M.207 26.96h3.205v-.447H.207zM.207 28.303h3.205v-.447H.207zM.206 29.534h3.206v-.447H.206zM.206 30.802h3.206v-.447H.206zM.206 32.117h3.206v-.448H.206zM21.526 26.956h3.205v-.448h-3.205zM21.526 28.298h3.205v-.447h-3.205zM21.526 29.53h3.205v-.448h-3.205zM21.526 30.798h3.205v-.448h-3.205zM21.526 32.112h3.205v-.448h-3.205z" mask="url(#d)"/>
                <path fill="#3D97D0" d="M20.58 36.987H4.357a.519.519 0 0 1-.52-.515V20.4c0-.283.234-.514.52-.514H20.58c.286 0 .52.231.52.514v16.072a.519.519 0 0 1-.52.515" mask="url(#d)"/>
            </g>
        </g>
        <g>
            <path fill="#3D97D0" d="M90.878 50.603L85.439 54a.038.038 0 0 1-.051-.013l-3.415-5.465c-.012-.019-.007-.042.01-.053l5.439-3.398c.017-.01.04-.005.052.014l3.414 5.464a.038.038 0 0 1-.01.053M115.632 35.134l-5.44 3.4a.036.036 0 0 1-.05-.012l-3.848-6.16a.037.037 0 0 1 .01-.05l5.44-3.4a.037.037 0 0 1 .05.013l3.85 6.16c.01.017.005.04-.012.05"/>
            <g transform="rotate(-32 101.152 -96.365)">
                <mask id="f" fill="#fff">
                    <use xlink:href="#e"/>
                </mask>
                <path fill="#EF4F55" d="M26.642.031H9.058C4.49.031.468 3.462.039 8.095c-.489 5.285 3.622 9.773 8.713 9.773h16.371c.02 0 .035-.014.037-.034L26.642.036V.031z" mask="url(#f)"/>
            </g>
            <g transform="rotate(-32 88.584 -140.194)">
                <mask id="h" fill="#fff">
                    <use xlink:href="#g"/>
                </mask>
                <path fill="#F27F88" d="M17.631.031h-16.1v.005l-1.48 17.79a.037.037 0 0 0 .037.042h17.848c5.091 0 9.203-4.488 8.713-9.773C26.219 3.462 22.197.03 17.63.03" mask="url(#h)"/>
            </g>
            <g transform="rotate(-32 131.214 -120.286)">
                <mask id="j" fill="#fff">
                    <use xlink:href="#i"/>
                </mask>
                <path fill="#F27F88" d="M6.405 3.3c0 1.78-1.425 3.222-3.181 3.222S.044 5.08.044 3.3 1.468.078 3.224.078c1.756 0 3.18 1.442 3.18 3.222" mask="url(#j)"/>
            </g>
            <path fill="#FEFEFE" d="M88.846 51.872a.813.813 0 0 1-.255 1.121.813.813 0 0 1-1.12-.261.814.814 0 0 1 .256-1.122.814.814 0 0 1 1.12.262"/>
            <g transform="rotate(-32 116.62 -171.183)">
                <mask id="l" fill="#fff">
                    <use xlink:href="#k"/>
                </mask>
                <path fill="#EF4F55" d="M6.379 3.3c0 1.78-1.423 3.222-3.18 3.222C1.443 6.522.02 5.08.02 3.3S1.443.078 3.199.078C4.956.078 6.38 1.52 6.38 3.3" mask="url(#l)"/>
            </g>
            <path fill="#FEFEFE" d="M113.6 36.405a.813.813 0 0 1-.256 1.12.813.813 0 0 1-1.12-.261.814.814 0 0 1 .256-1.121.814.814 0 0 1 1.12.262"/>
            <path fill="#FECF71" d="M80.206 38.045a.813.813 0 0 1-.255 1.121.813.813 0 0 1-1.12-.261.813.813 0 0 1 .256-1.121.813.813 0 0 1 1.12.261M82.798 42.193a.813.813 0 0 1-.255 1.121.813.813 0 0 1-1.12-.261.813.813 0 0 1 .256-1.121.813.813 0 0 1 1.12.261M104.96 22.577a.813.813 0 0 1-.256 1.121.813.813 0 0 1-1.12-.261.813.813 0 0 1 .256-1.121.813.813 0 0 1 1.12.261M107.552 26.725a.813.813 0 0 1-.256 1.121.813.813 0 0 1-1.12-.261.813.813 0 0 1 .256-1.121.813.813 0 0 1 1.12.261"/>
            <g>
                <path fill="#FFD560" d="M39.221 85.245h49.965V35.402H39.22z"/>
                <path fill="#AB7D00" d="M39.222 35.401L35 49.66h49.748L89.187 35.4z"/>
                <path fill="#E4BC4F" d="M69.098 71.523c-.47 0-.908.378-.973.84l-.478 3.44c-.053.374-.235.699-.546.974-.31.276-.66.414-1.05.414-.377 0-.684-.135-.918-.406-.234-.27-.324-.597-.27-.983l.288-2.087c.009-.417-.308-.742-.744-.742h-1.144c-.437 0-.845.325-.953.742l-.297 2.087a1.557 1.557 0 0 1-.547.983c-.31.27-.654.406-1.032.406s-.686-.138-.925-.414c-.24-.275-.333-.6-.28-.975l.64-4.563c.068-.444-.199-.909-.606-1.097 0 0-4.823-1.984-5.137-2.111-.318-.129-.678.16-.802.64l-.295 1.148c-.123.48.155 1.027.618 1.215l3.232 1.32-.484 3.448c-.162 1.157.112 2.146.825 2.967.713.82 1.652 1.231 2.82 1.231 1.077 0 2.061-.358 2.95-1.074.711.716 1.6 1.074 2.667 1.074 1.167 0 2.222-.41 3.165-1.231.943-.82 1.496-1.81 1.658-2.967l.516-3.703c.044-.317-.304-.576-.774-.576h-1.124z"/>
                <path fill="#E4AB0F" d="M89.187 85.245h17.089V35.4h-17.09z"/>
                <path fill="#AB7D00" d="M89.186 35.401l7.05 14.258h17.401L106.276 35.4z"/>
                <path fill="#AF5E0E" d="M43.552 67.732h3.42V52.99h-3.42zM92.185 67.695h3.42V52.952h-3.42zM93.895 85.245h4.194v-2.62h-4.194zM73.93 67.695h8.55v-1.31h-8.55zM75.453 56.394h2.342l-1.17-2.02zM75.937 64.813h1.375v-8.418h-1.375zM78.614 56.394h2.342l-1.172-2.02zM79.097 64.813h1.375v-8.418h-1.375z"/>
            </g>
        </g>
    </g>
</svg>
