<svg xmlns="http://www.w3.org/2000/svg" width="400" height="200" viewBox="0 0 400 200">
    <g fill="none" fill-rule="evenodd">
        <path fill="#E6F7FF" d="M0 200h400V0H0z"/>
        <path fill="#4A5F6E" d="M334.435 162a.433.433 0 0 1-.433-.481l9.13-82.132a.436.436 0 0 1 .865.095l-9.13 82.132a.435.435 0 0 1-.432.386"/>
        <path fill="#FFC72C" d="M356.916 83.988c-.821 7.41-7.494 12.75-14.904 11.929-7.409-.822-12.75-7.495-11.929-14.905.822-7.41 7.494-12.75 14.905-11.928 7.409.82 12.75 7.493 11.928 14.904"/>
        <path fill="#5FA906" d="M340.107 117.863s2.734-14.52 14.988-17.63c5.586-1.417 10.013 4.822 6.631 9.46-3.13 4.293-9.335 8.374-21.619 8.17"/>
        <path fill="#141313" d="M130.162 59.548s-17.249 12.793-18.104-5.134c0 0-1.035-12.48 7.164-15.735 0 0 6.831-3.002 16.865 2.144 0 0 8.52 6.185-5.925 18.725"/>
        <path fill="#4A5F6E" d="M62.564 165a.434.434 0 0 0 .434-.481l-9.131-82.132a.435.435 0 0 0-.865.095l9.131 82.132a.434.434 0 0 0 .431.386"/>
        <path fill="#FFC72C" d="M40.084 86.988c.821 7.41 7.494 12.75 14.903 11.929 7.41-.822 12.75-7.495 11.93-14.905-.823-7.41-7.495-12.75-14.905-11.928-7.41.82-12.75 7.493-11.928 14.904"/>
        <path fill="#5FA906" d="M56.893 120.863s-2.734-14.52-14.988-17.63c-5.587-1.418-10.013 4.822-6.632 9.46 3.131 4.293 9.335 8.374 21.62 8.17"/>
        <path fill="#4A5F6E" d="M82.738 162l.03-.002a.253.253 0 0 0 .23-.276l-5.478-47.498a.258.258 0 0 0-.288-.222.255.255 0 0 0-.23.276l5.477 47.498a.258.258 0 0 0 .26.224"/>
        <path fill="#FFC72C" d="M69.05 116.882a7.997 7.997 0 0 0 8.832 7.068 7.999 7.999 0 1 0-1.764-15.9 7.998 7.998 0 0 0-7.069 8.832"/>
        <path fill="#5FA906" d="M78.94 135.924s-1.545-8.066-8.472-9.795c-3.158-.787-5.66 2.68-3.749 5.256 1.77 2.386 5.278 4.652 12.22 4.539"/>
        <path fill="#FABF86" d="M286.077 163s3.543 3.047 5.64 3.541c2.096.495 10.11.329 10.283 3.459h-22.47l-4.53-5.271L286.077 163z"/>
        <path fill="#2FB7EC" d="M280.007 170h-80.574c-.687 0-9.772-.847-12.001-5.943-2.23-5.096-3.93-16.49 11.659-22.25 15.585-5.76 20.237-7.578 20.237-7.578L289.82 130s4.482 16.732.59 27.095c0 0-2.006 8.653-13.148 8.147 0 0 2.57 3.06 2.744 4.758"/>
        <path stroke="#0098D3" stroke-linecap="round" stroke-linejoin="round" stroke-width=".5" d="M201.536 170s-4.946-8.305-1.023-15.935C204.434 146.438 222 139 222 139M225 165.723c12.445-2.7 32.395-1.065 40.919-.552 0 0 6.369.93 11.081.51"/>
        <path fill="#FFD560" d="M246.282 76.064c-.915 3.228-2.159 7.655-2.54 11.539-.57 5.795-1.742 20.55-2.138 25.588 0 0-.016 1.189-.259 2.19 0 0-.102 1.054-1.888 1.764L220 124.875s1.77 3.608 2.093 6.809l.034 2.572 19.818-8.013c1.835 2.23 2.316 8.758 2.316 8.758s26.456-1.032 39.768-2.921c13.316-1.89 12.97-14.083 12.97-14.083v-20.95C296.367 71.48 287.53 65 282.862 63.363c0 0-2.256-.732-4.24-.118l-20.31 6.283s-6.875 1.376-10.026 3.315c0 0-1.135.153-2.004 3.22"/>
        <path fill="#FABF86" d="M226.9 134.52c-3.16.601-7.849 1.576-10.888 2.608-4.938 1.684-11.258 3.196-11.956 0-.696-3.192 5.227-6.215 6.794-7.057 1.103-.59 9.158-2.18 13.835-3.072a9.39 9.39 0 0 1 1.517 2.348c.974 2.175.842 4.172.697 5.173"/>
        <path stroke="#F0B616" stroke-linecap="round" stroke-linejoin="round" stroke-width=".5" d="M242 126l3.206-.804c6.865-1.731 22.723-5.737 26.976-6.941 5.476-1.548 4.791-3.612 4.791-3.612L276.117 89M249.111 91s-.5 33.125 0 33"/>
        <path fill="#152934" d="M239.03 36.027c-.06-.054-.167-.024-.173.052-.113 1.588-.935 12.495-2.05 15.122-1.148 2.7-6.98 8.532-3.938 15.241.29.636 1.048 1.022 1.846 1.015l3.382-.034c.058 0 .102-.038.102-.086l-.024-2.267s1.676 3.161 2.497 2.916c.82-.243 8.643.353 17.583-3.189 8.548-3.388-16.977-26.736-19.226-28.77"/>
        <path fill="#FABF86" d="M257.73 68.582l-.946-4.583c-1.088-.55-1.549.203-4.138.376-1 .067-3.562.236-5.752-.824-2.028-.987-3.063-2.705-3.759-3.89-3.7-6.321-4.092-18.99-4.135-20.661 0 0 37.266 1.533 37 15.647l-5.68 7.502.589 2.835c-1.736 5.86-6.338 8.755-9.422 7.855-2.338-.681-3.456-3.44-3.757-4.257"/>
        <path fill="#EEAE21" d="M239.277 36s-.546.634-.555 2.528c-.007 1.895.555-2.528.555-2.528"/>
        <path stroke="#231F20" stroke-width=".25" d="M239.277 36s-.546.634-.555 2.528c-.007 1.895.555-2.528.555-2.528z"/>
        <path fill="#FABF86" d="M243.905 133.52c-3.022.601-7.507 1.576-10.415 2.608-4.724 1.684-10.77 3.196-11.437 0-.665-3.192 5-6.217 6.5-7.057 1.054-.59 8.757-2.182 13.232-3.072a9.385 9.385 0 0 1 1.452 2.348c.933 2.175.804 4.172.668 5.173"/>
        <path fill="#FABF86" d="M234 128.107s-10.926-.547-9.937.824c.988 1.37 3.836 1.031 3.836 1.031"/>
        <path stroke="#231F20" stroke-linecap="round" stroke-linejoin="round" stroke-width=".25" d="M252 58s-.198 1.551-2 2M247.242 53s0 2.73.404 2.942c.404.215 1.112-.237 1.112-.237"/>
        <path fill="#231F20" d="M249 47.774l5-1.146s-3.471-1.446-5 1.146M241 49.684l3-.838s-2.181-1.632-3 .838"/>
        <path fill="#F7A29E" d="M255 52a4 4 0 1 0 8 0 4 4 0 0 0-8 0M241 55c2.262.274 4 1.904 4 3.874 0 .785-.274 1.515-.751 2.126a19.488 19.488 0 0 1-1.892-2.836A18.343 18.343 0 0 1 241 55"/>
        <path fill="#152934" d="M239.184 32.807s6.4-4.384 9.335-5.257c2.933-.871 12.594-1.387 17.829 3.937 3.504 3.563 4.493 6.535 7.329 8.753 2.526 1.973 3.45 1.056 6.093 2.71 3.869 2.423 8.266 7.627 7.013 11.288-.655 1.915-2.268 1.694-11.885 5.836-5.568 2.4-7.48 3.544-8.697 2.59-1.966-1.535.936-6.07-1.636-9.237-1.567-1.93-3.447-1.243-5.79-3.184-2.48-2.054-3.265-5.22-3.523-7.685 0 0-9.8.622-14.59-2.071-4.791-2.692-4.44-5.752-1.478-7.68"/>
        <path stroke="#231F20" stroke-width=".5" d="M252.836 50.715c-1.663-.81-2.672-.382-3.024 1.285M245 52.236c-1.1-.48-1.767-.227-2 .764"/>
        <path fill="#E14D4C" d="M177.7 31.638c-2.05-1.146-4.265.761-4.265.761s-.628-2.836-2.967-3.124c-2.705-.332-4.475 2.57-3.878 5.01.598 2.443 4.178 6.087 4.178 6.087s5.072-.817 7.027-2.423c1.952-1.609 2.279-4.984-.094-6.31"/>
        <path fill="#F9BF86" d="M149.882 169.685c-2.56-.76-10.34-4.14-10.34-4.14l-7.13.452c-.17 2.668-.36 6.5 0 6.548.51.06 19.37-.38 19.37-.38s.69-1.71-1.87-2.48M132.412 165.995l-2.06-37.89h9.6l-.41 37.43zM119.582 166.995l-2.06-37.89h9.6l-.41 37.43z"/>
        <path fill="#F9BF86" d="M136.992 169.894c-2.56-.76-10.34-4.14-10.34-4.14l-7.13.453c-.17 2.668-.36 6.5 0 6.548.51.06 19.37-.38 19.37-.38s.69-1.71-1.87-2.48M130.852 72.116l-8.74.76-.25-2.59-.58-6.21 8.74-.77z"/>
        <path fill="#F7AB60" d="M130.162 66.726c-1.31 2.07-6.64 2.4-8.53 1.76l-.36-3.81 8.89 2.05z"/>
        <path fill="#F9BF86" d="M135.172 54.516c2 6.23-3.07 11.85-7 12.18a9.869 9.869 0 0 1-8.74-4.32 18.74 18.74 0 0 1-2.14-4.47c-4.81-1.49-2.6-7.18-.65-4.48 0 0-.12-1.92-.12-2.65 4.17-2.88 7.29-5.79 8.8-8.66a11.337 11.337 0 0 0 9 5.44c1.4 2.91-.34 3.56.78 7"/>
        <path fill="#231F20" d="M124.692 50.226l-5.47.78s3-2.46 5.47-.78M128.793 50.326h5.47s-3.32-3-5.47 0"/>
        <path fill="#F7A29E" d="M127.142 54.425c-.5 0-.5 3.56-.15 3.92a.7.7 0 0 0 1-.1c.39-.55-.45-3.86-.87-3.82"/>
        <path fill="#DD7727" d="M128.262 63.306a3.342 3.342 0 0 1-2.88-1.58l5.47-.47a3.474 3.474 0 0 1-2.59 2.05"/>
        <path fill="#231F20" d="M132.892 52.645c.06.57-.2 1.06-.57 1.09-.37.03-.73-.39-.78-1-.05-.61.2-1.05.57-1.08.37-.03.72.39.78 1M123.322 53.335c0 .56-.2 1-.57 1.09-.37.09-.73-.4-.78-1-.05-.6.19-1.06.56-1.09.37-.03.73.39.79 1"/>
        <path fill="#F7A29E" d="M135.222 55.116h-.32a3 3 0 0 0-2.67 3.35 3 3 0 0 0 2.75 2.79 9.258 9.258 0 0 0 .24-6.14M122.632 59.275a3.122 3.122 0 0 0-5.46-1.73 25.85 25.85 0 0 0 2.36 5.08h.28a3.091 3.091 0 0 0 2.82-3.35"/>
        <path fill="#F9BF86" d="M127.402 83.085c6.22-.59 10.8-6.39 10.24-12.94l-22.56 2.16c.57 6.55 6.06 11.38 12.28 10.78"/>
        <path fill="#F9BF86" d="M137.813 70.215s24.27 11.39 36.83 13.77c.3.031.603-.017.879-.14 1.81-1.16 4.39-.73 7.32-.09 1.27.27-.1.91-3.17.64a38.21 38.21 0 0 1 6.49 1.59c1.14.48.78 2.35-.31 3-1.09.65-3.15.59-4.87.39a18.131 18.131 0 0 1-6.06-1.9l-.27-.09a10.477 10.477 0 0 0-2.12-.35c-.26 0-1.93-.23-2.26-.29l-1.2-.22c-10.89-2-34.3-6.68-37.35-10.21 0-.05-3.48-6.12 6.09-6.1"/>
        <path fill="#EF8D2E" d="M138.59 70.079a23.808 23.808 0 0 1 12.18 5.985l-4.35 9.976a43.569 43.569 0 0 1-5.34-2.274c-1.73-8.061-3.05-13.617-3.08-13.717.197-.02.396-.01.59.03"/>
        <path fill="#DD7727" d="M137.462 69.606v.01-.01z"/>
        <path fill="#EF8D2E" d="M137.974 70.06s-.06.05-.174.14c-1.317 1.023-9.991 7.18-22.083 1.888 0 0-5.054 36.607-2.5 40.877 0 0 23.474 2.462 29.012 0 0 0 1.865-23.823-4.255-42.906"/>
        <path stroke="#DE7712" stroke-width=".5" d="M137.982 71.885l3.65 15.53"/>
        <path fill="#F9BF86" d="M118.022 72.425s24.48 15.22 37.14 18.47a1.31 1.31 0 0 0 .88-.17c1.79-1.46 4.37-.86 7.32 0 1.28.38-.08 1.17-3.16.76a32.72 32.72 0 0 1 6.53 2.19c1.16.64.83 3.06-.25 3.88-1.08.82-3.14.7-4.87.41-3.07-.51-4.45-1.68-6.1-2.58l-.27-.12a8.557 8.557 0 0 0-2.13-.49c-.26 0-1.94-.34-2.28-.42l-1.2-.31c-11-2.81-34.48-9.31-37.59-13.94.04.03-3.61-7.88 5.98-7.68"/>
        <path fill="#EF8D2E" d="M114.412 71.806a2.25 2.25 0 0 1 1.24-.15 24.1 24.1 0 0 1 2.96.72 23.205 23.205 0 0 0 4.56 1.89c1.71.9 3.28 2.046 4.66 3.4l-4.35 10a41.08 41.08 0 0 1-8.31-4c-4.43-2.93-7.68-7.2-.76-11.86"/>
        <path fill="#3FAA7D" d="M113 112h16.296v53h-11.271z"/>
        <path fill="#3FAA7D" d="M142.136 112l-1.683 53h-9.542l-1.775-53z"/>
        <path fill="#152934" d="M186.094 71.83c-.05.36-1.568.028-1.706.03-.137.002-.064-3.238-.06-3.426v-.009c.289-3.864-2.848-7.066-6.404-6.947-3.493.11-6.395 3.41-5.957 7.187 0 0 .127 3.084.077 3.443-.043.36-1.561.027-1.706.03-.138.002-.06-3.435-.06-3.435-.553-4.81 3.134-9.01 7.587-9.153 4.527-.152 8.512 3.93 8.145 8.84v.006c.012.204.127 3.092.084 3.434"/>
        <path fill="#EC2F4D" d="M192.875 68.38l-29.913.572-1.107 19.68c-.14 2.48 1.84 4.557 4.299 4.51l24.544-.47c2.466-.048 4.367-2.212 4.121-4.69l-1.944-19.603z"/>
        <path fill="#152934" d="M162.158 80.02a.41.41 0 0 1-.097-.57.402.402 0 0 1 .563-.098c2.625 1.875 8.147 4.996 15.631 4.858 7.503-.138 12.918-3.476 15.477-5.453a.402.402 0 0 1 .566.075.41.41 0 0 1-.076.572c-2.638 2.04-8.218 5.48-15.953 5.622a26.528 26.528 0 0 1-4.834-.353 27.395 27.395 0 0 1-11.277-4.654"/>
        <path fill="#152934" d="M174.898 80.006l6.895-.128-.02-.992-6.895.128z"/>
        <path stroke="#DE7712" stroke-width=".5" d="M120 74l7.924 3.651"/>
    </g>
</svg>
