<svg xmlns="http://www.w3.org/2000/svg" xmlns:xlink="http://www.w3.org/1999/xlink" width="500" height="186" viewBox="0 0 500 186">
    <defs>
        <path id="a" d="M.001.185h7.963v2.776H.001z"/>
        <path id="c" d="M0 131h399V0H0z"/>
        <path id="e" d="M0 0h70v51H0z"/>
        <path id="g" d="M0 0h45v51H0z"/>
        <path id="i" d="M.062.052h2.93V6H.063z"/>
        <path id="k" d="M0 .019h7.987v22.98H0z"/>
        <path id="m" d="M0 23h8V0H0z"/>
        <path id="o" d="M.029.052h7v1h-7z"/>
        <path id="q" d="M0 5.063h70v-5H0z"/>
        <path id="s" d="M.037.032h4.961v5.967H.037z"/>
        <path id="u" d="M0 .007h4.998v5.979H0z"/>
        <path id="w" d="M0 .045h37.585v17.698H0z"/>
        <path id="y" d="M.001 0H10.68v8.816H0z"/>
        <path id="A" d="M.083.045h19.443v10.759H.083z"/>
        <path id="C" d="M.037.032h4.961v5.967H.037z"/>
        <path id="E" d="M0 .007h4.998v5.979H0z"/>
        <path id="G" d="M0 0h71v52H0z"/>
        <path id="I" d="M0 .045h35.91V33H0z"/>
        <path id="K" d="M.08.003h15.83v12.908H.08z"/>
        <path id="M" d="M.08.002h3.89V38H.08z"/>
        <path id="O" d="M.113.002h4.745V38H.113z"/>
        <path id="Q" d="M0 .017h3.88v.928H0z"/>
        <path id="S" d="M.092.112h3.886v.813H.092z"/>
        <path id="U" d="M.044.06h1.943v.93H.044z"/>
        <path id="W" d="M.002.114H5.91v8.863H.002z"/>
        <path id="Y" d="M.1.142h13.897v12.82H.1z"/>
        <path id="aa" d="M0 .078h5.957v5.876H0z"/>
        <path id="ac" d="M.027.046h7.86V6H.027z"/>
        <path id="ae" d="M.004.147H8.96v6.7H.004z"/>
        <path id="ag" d="M.042.02h14.966v4.608H.042z"/>
        <path id="ai" d="M0 150.825h17.99V.129H0z"/>
        <path id="ak" d="M.08.002h3.89V38H.08z"/>
        <path id="am" d="M.113.002h4.745V38H.113z"/>
        <path id="ao" d="M0 .017h3.88v.928H0z"/>
        <path id="aq" d="M.092.112h3.886v.813H.092z"/>
        <path id="as" d="M.044.06h1.943v.93H.044z"/>
        <path id="au" d="M.042.02h14.966v4.608H.042z"/>
        <path id="aw" d="M0 150.825h17.99V.129H0z"/>
    </defs>
    <g fill="none" fill-rule="evenodd">
        <g transform="translate(62 20)">
            <path fill="#174479" d="M324.386 36h-32.772c-.339 0-.614-.448-.614-1s.275-1 .614-1h32.772c.339 0 .614.448.614 1s-.275 1-.614 1M324.377 24h-34.754c-.344 0-.623-.448-.623-1s.28-1 .623-1h34.754c.344 0 .623.448.623 1s-.28 1-.623 1"/>
            <path fill="#3A95D1" d="M348 28.939c0 7.143-6.046 12.933-13.5 12.933-.837 0-1.657-.074-2.452-.215L325.842 44l.44-4.74.152.052C323.138 36.954 321 33.185 321 28.939 321 21.795 327.046 16 334.5 16S348 21.795 348 28.939"/>
            <path fill="#174479" d="M350.655 20a.687.687 0 0 1-.485-.194.549.549 0 0 1 .046-.833l4.69-3.82a.707.707 0 0 1 .924.041.548.548 0 0 1-.046.832l-4.69 3.821a.694.694 0 0 1-.439.153M348.65 17a.782.782 0 0 1-.176-.02c-.347-.08-.547-.373-.45-.655l1.702-4.937c.096-.283.457-.45.8-.367.346.08.547.373.45.654l-1.701 4.938c-.081.234-.342.387-.626.387"/>
            <g transform="translate(351 20)">
                <mask id="b" fill="#fff">
                    <use xlink:href="#a"/>
                </mask>
                <path fill="#174479" d="M.696 2.96c-.293 0-.566-.147-.661-.381-.118-.288.083-.599.45-.692L7.055.212c.364-.093.756.066.875.354.118.29-.083.6-.45.693L.91 2.934a.875.875 0 0 1-.213.027" mask="url(#b)"/>
            </g>
            <mask id="d" fill="#fff">
                <use xlink:href="#c"/>
            </mask>
            <path fill="#8CCEF1" d="M2 131h310V0H2z" mask="url(#d)"/>
            <path fill="#CCEBF9" d="M16 131h282V52H16z" mask="url(#d)"/>
            <g fill="#FFF" mask="url(#d)">
                <path d="M226 131s2.925-9.582 22.24-5.536c0 0 20.48-21.294 40.379 0 0 0 17.381-1.964 22.088 2.342 0 0 17.293 0 22.886 3.194H226z"/>
            </g>
            <g mask="url(#d)">
                <path fill="#FEFEFE" d="M103 131h30V61h-30z"/>
                <path fill="#3A95D1" d="M109.316 106.781a.785.785 0 0 1-.79.781.785.785 0 0 1-.79-.78c0-.432.354-.782.79-.782.436 0 .79.35.79.781"/>
            </g>
            <path fill="#FEFEFE" d="M220 112h70V81h-70z" mask="url(#d)"/>
            <path fill="#FEFEFE" d="M220 112h70V61h-70z" mask="url(#d)"/>
            <g mask="url(#d)">
                <g transform="translate(220 61)">
                    <mask id="f" fill="#fff">
                        <use xlink:href="#e"/>
                    </mask>
                    <g mask="url(#f)">
                        <g transform="translate(25)">
                            <mask id="h" fill="#fff">
                                <use xlink:href="#g"/>
                            </mask>
                            <g mask="url(#h)">
                                <path fill="#03918B" d="M25.36 61h-3.72c-.352 0-.64-.266-.64-.592v-9.816c0-.326.288-.592.64-.592h3.72c.352 0 .64.266.64.592v9.816c0 .326-.288.592-.64.592"/>
                                <path fill="#2A7265" d="M20.137 49.97L9.32 53.79c-2.147.757-4.456-.594-5.132-3.002-.676-2.409.528-5 2.675-5.758l10.817-3.819c2.147-.758 4.456.592 5.132 3.001.676 2.409-.528 5-2.675 5.758"/>
                                <path fill="#2A7265" d="M29.82 46.898l-7.922 7.923a4.056 4.056 0 0 1-5.719 0 4.056 4.056 0 0 1 0-5.719l7.923-7.923a4.056 4.056 0 0 1 5.719 0 4.056 4.056 0 0 1 0 5.719"/>
                                <path fill="#2A7265" d="M19.18 46.898l7.922 7.923a4.056 4.056 0 0 0 5.718 0 4.055 4.055 0 0 0 0-5.719l-7.922-7.923a4.056 4.056 0 0 0-5.719 0 4.056 4.056 0 0 0 0 5.719"/>
                                <path fill="#2A7265" d="M28.863 49.97l10.817 3.82c2.147.757 4.456-.594 5.132-3.002.676-2.409-.528-5-2.675-5.758L31.32 41.211c-2.147-.758-4.456.592-5.132 3.001-.676 2.409.528 5 2.675 5.758"/>
                                <path fill="#318562" d="M19.438 42.59L9.76 45.822c-1.92.64-3.987-.502-4.592-2.54-.604-2.038.473-4.23 2.394-4.872l9.678-3.231c1.92-.642 3.987.5 4.592 2.539.604 2.038-.473 4.23-2.394 4.872"/>
                                <path fill="#318562" d="M28.968 39.036l-6.932 6.932a3.548 3.548 0 0 1-5.004 0 3.548 3.548 0 0 1 0-5.004l6.932-6.932a3.548 3.548 0 0 1 5.004 0 3.548 3.548 0 0 1 0 5.004"/>
                                <path fill="#318562" d="M20.032 41.036l6.932 6.932a3.548 3.548 0 0 0 5.004 0 3.548 3.548 0 0 0 0-5.004l-6.932-6.932a3.548 3.548 0 0 0-5.004 0 3.548 3.548 0 0 0 0 5.004"/>
                                <path fill="#318562" d="M29.562 42.59l9.678 3.232c1.92.64 3.987-.502 4.592-2.54.604-2.038-.473-4.23-2.394-4.872L31.76 35.18c-1.92-.642-3.987.5-4.592 2.539-.604 2.038.473 4.23 2.394 4.872"/>
                                <path fill="#2A7265" d="M20.89 34.21l-7.97 2.644c-1.582.525-3.283-.41-3.782-2.078-.497-1.667.39-3.461 1.972-3.986l7.97-2.644c1.581-.525 3.284.41 3.781 2.078.498 1.667-.389 3.46-1.97 3.986"/>
                                <path fill="#2A7265" d="M28.189 33.604l-5.447 6.438c-1.08 1.277-2.85 1.277-3.931 0-1.081-1.278-1.081-3.37 0-4.646l5.447-6.438c1.08-1.277 2.85-1.277 3.931 0 1.081 1.278 1.081 3.369 0 4.646"/>
                                <path fill="#2A7265" d="M20.81 33.604l5.447 6.438c1.082 1.277 2.85 1.277 3.932 0 1.081-1.278 1.081-3.37 0-4.646l-5.447-6.438c-1.08-1.277-2.85-1.277-3.931 0-1.081 1.278-1.081 3.369 0 4.646"/>
                                <path fill="#2A7265" d="M28.11 34.21l7.97 2.644c1.582.525 3.283-.41 3.782-2.078.497-1.667-.39-3.461-1.972-3.986l-7.97-2.644c-1.582-.525-3.283.41-3.782 2.078-.497 1.667.39 3.46 1.972 3.986"/>
                                <path fill="#318562" d="M22.192 28.52l-6.832 2.35c-1.356.467-2.814-.365-3.241-1.846-.427-1.483.333-3.077 1.69-3.544l6.83-2.35c1.357-.467 2.815.364 3.242 1.847.427 1.482-.333 3.076-1.69 3.543"/>
                                <path fill="#318562" d="M28.263 26.743l-4.952 5.446c-.983 1.081-2.591 1.081-3.574 0-.983-1.081-.983-2.85 0-3.931l4.952-5.447c.983-1.081 2.591-1.081 3.574 0 .983 1.081.983 2.85 0 3.932"/>
                                <path fill="#318562" d="M20.737 26.743l4.952 5.446c.983 1.081 2.591 1.081 3.574 0 .983-1.081.983-2.85 0-3.931l-4.952-5.447c-.983-1.081-2.59-1.081-3.574 0-.983 1.081-.983 2.85 0 3.932"/>
                                <path fill="#318562" d="M26.808 28.52l6.832 2.35c1.356.467 2.815-.365 3.241-1.846.427-1.483-.333-3.077-1.69-3.544l-6.83-2.35c-1.357-.467-2.815.364-3.242 1.847-.427 1.482.333 3.076 1.69 3.543"/>
                                <path fill="#2A7265" d="M33.183 24.506c3.506-2.157 1.043-4.621 0-5.135-1.042-.514-4.264-1.746-6.443-4.827-2.18-3.082-3.98-.72-4.548 0-.57.718-1.896 2.054-6.255 4.827s0 5.135 0 5.135a25.79 25.79 0 0 0 8.15 1.49 25.772 25.772 0 0 0 9.096-1.49"/>
                                <path fill="#FBB136" d="M24.799 6.195l1.132 2.403a.335.335 0 0 0 .251.19l2.532.386c.274.042.383.394.185.596l-1.832 1.87a.36.36 0 0 0-.096.31l.433 2.64c.046.287-.24.504-.484.369l-2.265-1.247a.32.32 0 0 0-.31 0l-2.265 1.247c-.244.135-.53-.082-.483-.368l.432-2.642a.359.359 0 0 0-.096-.308L20.101 9.77c-.198-.202-.089-.554.185-.596l2.532-.385a.335.335 0 0 0 .25-.191l1.133-2.403a.327.327 0 0 1 .598 0"/>
                                <path fill="#FEFEFE" d="M25 9c-.088 0-.16-.09-.16-.202V6.202c0-.111.072-.202.16-.202.088 0 .16.09.16.202v2.596c0 .111-.072.202-.16.202M27.137 10c-.063 0-.12-.068-.134-.168-.016-.115.031-.228.106-.253l1.725-.574c.073-.025.147.048.163.163.016.115-.031.228-.106.253l-1.725.574a.085.085 0 0 1-.029.005M21.863 10a.085.085 0 0 1-.03-.005l-1.724-.574c-.075-.025-.122-.138-.106-.253.016-.115.09-.188.163-.163l1.725.574c.075.025.122.138.106.253-.014.1-.071.168-.134.168M21.835 14.682c-.048-.073-.044-.201.009-.286l1.232-1.955c.053-.085.134-.094.183-.02.048.074.044.202-.009.286l-1.232 1.957c-.031.05-.073.073-.112.068-.026-.003-.052-.02-.071-.05zM27.113 14.752c-.04.004-.081-.019-.112-.069l-1.233-1.956c-.052-.084-.056-.212-.008-.286.048-.074.13-.065.183.02l1.232 1.955c.053.084.057.212.009.286-.02.03-.045.046-.071.05"/>
                                <path fill="#F17D87" d="M41 49a2 2 0 1 1-4 0 2 2 0 0 1 4 0"/>
                                <path fill="#FEFEFE" d="M40 51c-.044 0-.08-.04-.08-.091v-3.818c0-.05.036-.091.08-.091.044 0 .08.04.08.091v3.818c0 .05-.036.091-.08.091M39 51c-.044 0-.08-.044-.08-.098v-3.804c0-.054.036-.098.08-.098.044 0 .08.044.08.098v3.804c0 .054-.036.098-.08.098"/>
                                <path fill="#FEFEFE" d="M40 51c-.044 0-.08-.044-.08-.098v-3.804c0-.054.036-.098.08-.098.044 0 .08.044.08.098v3.804c0 .054-.036.098-.08.098"/>
                                <path fill="#1A4278" d="M39.093 48c.053 0 .117-.06.165-.294 0 0 .2.667.322-.092 0 0 .355.603.402.202.018-.15.018-.204.018-.204 0-.338-.224-.612-.5-.612s-.5.274-.5.612v.142s0 .247.093.246"/>
                                <path fill="#FEFEFE" d="M39 50c-.044 0-.08-.044-.08-.099V47.1c0-.054.036-.099.08-.099.044 0 .08.045.08.099V49.9c0 .055-.036.099-.08.099M41 50c-.044 0-.08-.044-.08-.099V47.1c0-.055.036-.099.08-.099.044 0 .08.044.08.099V49.9c0 .055-.036.099-.08.099M12.058 41c-.018 0-.036-.012-.047-.033-.019-.036-.013-.085.014-.11l.883-.843c.027-.025.063-.016.081.02.019.035.013.084-.014.109l-.883.843a.048.048 0 0 1-.034.014"/>
                                <path fill="#FEFEFE" d="M12 41c-.044 0-.08-.04-.08-.09v-1.82c0-.05.036-.09.08-.09.044 0 .08.04.08.09v1.82c0 .05-.036.09-.08.09"/>
                                <path fill="#FEFEFE" d="M12.942 41a.048.048 0 0 1-.034-.014l-.883-.843c-.027-.025-.033-.074-.014-.11.018-.035.054-.044.08-.019l.884.843c.027.025.033.074.014.11-.01.021-.029.033-.047.033M29.058 23c-.018 0-.036-.012-.047-.033-.019-.036-.013-.085.014-.11l.883-.843c.027-.025.063-.016.081.02.019.035.013.084-.014.109l-.883.843a.048.048 0 0 1-.034.014"/>
                                <path fill="#FEFEFE" d="M29.436 23.91v-1.82c0-.05.029-.09.064-.09s.064.04.064.09v1.82c0 .05-.029.09-.064.09s-.064-.04-.064-.09z"/>
                                <path fill="#FEFEFE" d="M29.942 23a.048.048 0 0 1-.034-.014l-.883-.843c-.027-.025-.033-.074-.014-.11.018-.035.054-.044.08-.019l.884.843c.027.025.033.074.014.11-.01.021-.029.033-.047.033M18.058 52c-.018 0-.036-.012-.047-.033-.019-.036-.013-.085.014-.11l.883-.842c.027-.026.063-.017.081.019.019.035.013.084-.014.11l-.883.842a.048.048 0 0 1-.034.014"/>
                                <path fill="#FEFEFE" d="M18 54c-.044 0-.08-.061-.08-.136v-2.728c0-.075.036-.136.08-.136.044 0 .08.061.08.136v2.728c0 .075-.036.136-.08.136"/>
                                <path fill="#FEFEFE" d="M18.942 52a.048.048 0 0 1-.034-.014l-.883-.843c-.027-.025-.033-.074-.014-.11.018-.035.054-.044.08-.018l.884.842c.027.025.033.074.014.11-.01.021-.029.033-.047.033M24.058 35c-.018 0-.036-.012-.047-.033-.019-.036-.013-.085.014-.11l.883-.842c.027-.026.063-.017.081.019.019.035.013.084-.014.11l-.883.842a.048.048 0 0 1-.034.014"/>
                                <path fill="#FEFEFE" d="M25 35c-.044 0-.08-.04-.08-.09v-1.82c0-.05.036-.09.08-.09.044 0 .08.04.08.09v1.82c0 .05-.036.09-.08.09"/>
                                <path fill="#FEFEFE" d="M24.942 35a.048.048 0 0 1-.034-.014l-.883-.843c-.027-.025-.033-.074-.014-.11.018-.035.054-.044.08-.018l.884.842c.027.025.033.074.014.11-.01.021-.029.033-.047.033M39.058 43c-.018 0-.036-.012-.047-.033-.019-.036-.013-.085.014-.11l.883-.842c.027-.026.063-.017.081.019.019.035.013.084-.014.11l-.883.842a.048.048 0 0 1-.034.014"/>
                                <path fill="#FEFEFE" d="M39 44c-.044 0-.08-.04-.08-.09v-1.82c0-.05.036-.09.08-.09.044 0 .08.04.08.09v1.82c0 .05-.036.09-.08.09"/>
                                <path fill="#FEFEFE" d="M39.942 43a.048.048 0 0 1-.034-.014l-.883-.843c-.027-.025-.033-.074-.014-.11.018-.035.054-.044.08-.018l.884.842c.027.025.033.074.014.11-.01.021-.029.033-.047.033M23.058 46c-.018 0-.036-.012-.047-.033-.019-.036-.013-.085.014-.11l.883-.842c.027-.026.063-.017.081.019.019.035.013.084-.014.11l-.883.842a.048.048 0 0 1-.034.014"/>
                                <path fill="#FEFEFE" d="M23 48c-.044 0-.08-.061-.08-.136v-2.728c0-.075.036-.136.08-.136.044 0 .08.061.08.136v2.728c0 .075-.036.136-.08.136"/>
                                <path fill="#FEFEFE" d="M23.942 46a.048.048 0 0 1-.034-.014l-.883-.843c-.027-.025-.033-.074-.014-.11.018-.035.054-.044.08-.018l.884.842c.027.025.033.074.014.11-.01.021-.029.033-.047.033M34.058 28c-.018 0-.036-.012-.047-.033-.019-.036-.013-.085.014-.11l.883-.843c.027-.025.063-.016.081.02.019.035.013.084-.014.109l-.883.843a.048.048 0 0 1-.034.014"/>
                                <path fill="#FEFEFE" d="M34 29c-.044 0-.08-.04-.08-.09v-1.82c0-.05.036-.09.08-.09.044 0 .08.04.08.09v1.82c0 .05-.036.09-.08.09"/>
                                <path fill="#FEFEFE" d="M34.942 28a.048.048 0 0 1-.034-.014l-.883-.843c-.027-.025-.033-.074-.014-.11.018-.035.054-.044.08-.019l.884.843c.027.025.033.074.014.11-.01.021-.029.033-.047.033M19.058 28c-.018 0-.036-.012-.047-.033-.019-.036-.013-.085.014-.11l.883-.843c.027-.025.063-.016.081.02.019.035.013.084-.014.109l-.883.843a.048.048 0 0 1-.034.014"/>
                                <path fill="#FEFEFE" d="M20 29c-.044 0-.08-.04-.08-.09v-1.82c0-.05.036-.09.08-.09.044 0 .08.04.08.09v1.82c0 .05-.036.09-.08.09"/>
                                <path fill="#FEFEFE" d="M19.942 28a.048.048 0 0 1-.034-.014l-.883-.843c-.027-.025-.033-.074-.014-.11.018-.035.054-.044.08-.019l.884.843c.027.025.033.074.014.11-.01.021-.029.033-.047.033M31.058 50c-.018 0-.036-.012-.047-.033-.019-.036-.013-.085.014-.11l.883-.842c.027-.026.063-.017.081.019.019.035.013.084-.014.11l-.883.842a.048.048 0 0 1-.034.014M33 51c-.044 0-.08-.061-.08-.136v-2.728c0-.075.036-.136.08-.136.044 0 .08.061.08.136v2.728c0 .075-.036.136-.08.136"/>
                                <path fill="#FEFEFE" d="M31.942 50a.048.048 0 0 1-.034-.014l-.883-.843c-.027-.025-.033-.074-.014-.11.018-.035.054-.044.08-.018l.884.842c.027.025.033.074.014.11-.01.021-.029.033-.047.033"/>
                                <path fill="#F17D87" d="M26 22a2 2 0 1 1-4 0 2 2 0 0 1 4 0"/>
                                <path fill="#1A4278" d="M24.093 20c.053 0 .116-.06.165-.294 0 0 .2.668.322-.091 0 0 .355.602.402.2.018-.149.018-.203.018-.203 0-.338-.224-.612-.5-.612s-.5.274-.5.612v.142s0 .247.093.246"/>
                                <path fill="#FEFEFE" d="M25.9 21.08h-3.8c-.056 0-.1-.035-.1-.08s.044-.08.1-.08h3.8c.055 0 .1.035.1.08s-.045.08-.1.08M23.16 22a.16.16 0 0 1-.16.161.16.16 0 0 1-.16-.161.16.16 0 0 1 .16-.161.16.16 0 0 1 .16.161M24.16 22a.16.16 0 0 1-.16.161.16.16 0 0 1-.16-.161.16.16 0 0 1 .16-.161.16.16 0 0 1 .16.161M26.16 22a.16.16 0 0 1-.16.161.16.16 0 0 1-.16-.161.16.16 0 0 1 .16-.161.16.16 0 0 1 .16.161"/>
                                <path fill="#FEFEFE" d="M24.583 23c-.042 0-.078-.022-.083-.051-.09-.583-.196-.643-.207-.648-.057.025-.192.307-.272.604-.007.027-.04.047-.08.047h-.001c-.04 0-.074-.02-.081-.048-.161-.622-.336-.68-.385-.683h-.006c-.102 0-.243.163-.308.284-.016.03-.063.046-.106.035-.043-.012-.065-.045-.049-.075.034-.063.21-.375.483-.36.187.013.334.178.454.515.087-.234.2-.438.366-.433.105.003.196.073.275.35.065-.223.162-.402.306-.407.116 0 .215.067.334.38.07-.238.19-.496.381-.51.15-.01.268.1.392.358.014.03-.009.063-.052.073-.044.01-.09-.006-.105-.036-.131-.272-.217-.28-.218-.28-.095.007-.239.343-.303.705-.005.029-.038.05-.079.051-.039-.002-.076-.019-.084-.046-.15-.526-.255-.576-.267-.58-.061.03-.173.358-.223.703-.004.03-.04.052-.082.052z"/>
                                <path fill="#FAAF3F" d="M30 43a2 2 0 1 1-4 0 2 2 0 0 1 4 0"/>
                                <path fill="#FEFEFE" d="M29.909 44.08h-3.818c-.05 0-.091-.035-.091-.08s.04-.08.091-.08h3.818c.05 0 .091.035.091.08s-.04.08-.091.08M29.898 42.08h-3.796c-.056 0-.102-.035-.102-.08s.046-.08.102-.08h3.796c.056 0 .102.035.102.08s-.046.08-.102.08"/>
                                <path fill="#1A4278" d="M28.093 41c.053 0 .116-.06.165-.294 0 0 .2.668.322-.091 0 0 .355.602.402.2.018-.149.018-.203.018-.203 0-.338-.224-.612-.5-.612s-.5.274-.5.612v.142s0 .247.093.246"/>
                                <path fill="#FAAF3F" d="M18 33a2 2 0 1 1-4 0 2 2 0 0 1 4 0"/>
                                <path fill="#1A4278" d="M15.093 31c.053 0 .116-.06.165-.294 0 0 .2.668.322-.091 0 0 .355.602.402.2.018-.149.018-.203.018-.203 0-.338-.224-.612-.5-.612s-.5.274-.5.612v.142s0 .247.093.246"/>
                                <path fill="#FEFEFE" d="M16.135 32c0 .075-.06.137-.135.137a.136.136 0 0 1-.135-.137c0-.075.06-.137.135-.137.075 0 .135.062.135.137M16.135 34c0 .075-.06.137-.135.137a.136.136 0 0 1-.135-.137c0-.075.06-.137.135-.137.075 0 .135.062.135.137M17.135 33c0 .075-.06.137-.135.137a.136.136 0 0 1-.135-.137c0-.075.06-.137.135-.137.075 0 .135.062.135.137M15.135 34c0 .075-.06.137-.135.137a.136.136 0 0 1-.135-.137c0-.075.06-.137.135-.137.075 0 .135.062.135.137"/>
                                <path fill="#FEFEFE" d="M16.135 32c0 .075-.06.137-.135.137a.136.136 0 0 1-.135-.137c0-.075.06-.137.135-.137.075 0 .135.062.135.137M15.135 32c0 .075-.06.137-.135.137a.136.136 0 0 1-.135-.137c0-.075.06-.137.135-.137.075 0 .135.062.135.137"/>
                                <path fill="#3B96D1" d="M36 33a2 2 0 1 1-4 0 2 2 0 0 1 4 0"/>
                                <path fill="#1A4278" d="M34.093 31c.053 0 .117-.06.165-.294 0 0 .2.667.322-.092 0 0 .355.603.402.201.018-.149.018-.203.018-.203 0-.338-.224-.612-.5-.612s-.5.274-.5.612v.142s0 .247.093.246"/>
                                <path fill="#FEFEFE" d="M32.861 32.318a.29.29 0 0 0-.1.326c.038.121.127.189.158.197.02-.01.127-.11.155-.214.01-.04.029-.176-.157-.281a.623.623 0 0 0-.056-.028m2.418.003a.37.37 0 0 0-.075.272c.016.117.094.214.193.241a.228.228 0 0 0 .093.007c.018-.006.053-.032.063-.094.022-.126-.067-.301-.274-.426m-1.083.04a.618.618 0 0 0-.112.155c-.079.157-.056.313.053.362.049.022.134.03.182.017.128-.035.143-.257-.017-.436a.75.75 0 0 0-.106-.098m.065.639a.637.637 0 0 1-.251-.048c-.206-.093-.189-.307-.112-.461a.706.706 0 0 1 .169-.212 1.166 1.166 0 0 0-.42-.117c-.018-.002-.394-.036-.66.082.025.01.049.023.072.036.241.136.217.31.204.36-.027.107-.175.31-.376.298-.134-.009-.22-.107-.26-.164-.096-.142-.125-.347.07-.507a1.467 1.467 0 0 0-.567 0c-.05.01-.105-.004-.124-.03-.019-.025.006-.053.056-.063a1.8 1.8 0 0 1 .759.014c.33-.167.806-.128.86-.123.147.014.327.049.497.132a.948.948 0 0 1 .392-.132c.148-.017.378-.012.66.098a.762.762 0 0 1 .167-.085c.138-.051.308-.077.507-.078.053 0 .096.022.096.05 0 .026-.042.048-.095.049-.158 0-.291.02-.396.06a.568.568 0 0 0-.134.07c.277.147.396.37.37.527-.015.084-.07.143-.158.17a.561.561 0 0 1-.279-.004.386.386 0 0 1-.295-.322.436.436 0 0 1 .119-.351 1.09 1.09 0 0 0-.52-.088.69.69 0 0 0-.305.11c.06.04.118.09.17.147.163.184.216.487-.068.564a.572.572 0 0 1-.148.018"/>
                                <path fill="#3B96D1" d="M12 48a2 2 0 1 1-4 0 2 2 0 0 1 4 0"/>
                                <path fill="#1A4278" d="M9.093 47c.053 0 .117-.06.165-.294 0 0 .2.668.322-.091 0 0 .355.602.402.2.018-.149.018-.203.018-.203 0-.338-.224-.612-.5-.612s-.5.274-.5.612v.142S9 47 9.093 47"/>
                                <path fill="#FEFEFE" d="M8.86 47.318a.289.289 0 0 0-.1.326c.04.12.128.189.16.197.02-.01.126-.11.154-.214.01-.039.029-.176-.157-.28a.578.578 0 0 0-.056-.029m2.418.003a.37.37 0 0 0-.075.272c.017.117.094.214.193.24.022.007.07.015.092.008.02-.006.054-.032.064-.094.022-.125-.067-.301-.274-.426m-1.083.04a.613.613 0 0 0-.112.154c-.079.158-.056.314.053.363.049.023.134.03.182.017.128-.035.143-.257-.017-.436a.756.756 0 0 0-.106-.098m.065.639a.635.635 0 0 1-.25-.048c-.207-.094-.19-.307-.112-.462a.698.698 0 0 1 .168-.211 1.17 1.17 0 0 0-.42-.117c-.017-.002-.394-.036-.661.082.026.01.05.023.073.036.241.136.217.31.204.36-.027.107-.17.308-.376.298-.134-.009-.22-.107-.26-.164-.096-.142-.125-.347.07-.507a1.462 1.462 0 0 0-.567 0c-.05.01-.105-.004-.124-.03-.018-.025.006-.053.056-.063.256-.05.534-.043.759.014.331-.167.806-.128.86-.123.147.014.328.05.497.132a.945.945 0 0 1 .392-.132c.148-.017.379-.012.66.098a.77.77 0 0 1 .167-.085c.137-.05.307-.077.506-.078h.001c.053 0 .096.022.096.049 0 .027-.042.05-.095.05-.158 0-.291.02-.396.06a.575.575 0 0 0-.134.07c.277.148.396.37.37.527-.015.084-.07.143-.158.17-.127.039-.275-.004-.282-.005a.384.384 0 0 1-.292-.32.436.436 0 0 1 .119-.352 1.085 1.085 0 0 0-.52-.088.693.693 0 0 0-.306.11c.061.04.119.09.17.147.164.184.217.487-.067.564a.563.563 0 0 1-.148.018"/>
                            </g>
                        </g>
                    </g>
                    <g fill="#FEFEFE" mask="url(#f)">
                        <path d="M10.209 50.125a.47.47 0 0 1-.233-.375.493.493 0 0 1 .44-.527l4.61-.451a.468.468 0 0 1 .51.434.495.495 0 0 1-.44.528l-4.609.45a.46.46 0 0 1-.278-.06M15.837 42.487a.467.467 0 0 1-.228-.379.56.56 0 0 1 .456-.588l4.101-.649c.27-.043.507.15.527.434a.56.56 0 0 1-.457.588l-4.1.648a.45.45 0 0 1-.3-.054M12.765 46.762a.476.476 0 0 1-.232-.36.53.53 0 0 1 .43-.576l4.118-.682c.269-.044.51.14.542.415a.526.526 0 0 1-.43.576l-4.117.683a.47.47 0 0 1-.31-.056M17.512 38.615a.54.54 0 0 1-.258-.343.454.454 0 0 1 .387-.557l2.651-.385a.55.55 0 0 1 .608.41.454.454 0 0 1-.386.559l-2.652.385a.543.543 0 0 1-.35-.069M15.596 36.904c-.154-.088-.228-.288-.171-.506l.687-2.638c.07-.274.32-.468.558-.438.237.032.374.278.302.55l-.686 2.639c-.072.273-.321.468-.56.437a.37.37 0 0 1-.13-.044M12.884 38.363a.458.458 0 0 1-.22-.323l-.577-3.403a.528.528 0 0 1 .39-.596.45.45 0 0 1 .555.37l.576 3.402a.528.528 0 0 1-.39.596.452.452 0 0 1-.334-.046"/>
                    </g>
                    <g mask="url(#f)">
                        <path fill="#FBB136" d="M12.782 39s-1.38 1.227-1.564 1.919c-.184.691 1.118 1.166 1.825 1.068.708-.097 1.192-.51 1.155-.996-.037-.486-1.416-1.991-1.416-1.991"/>
                        <path fill="#EF5055" d="M15 51h-4v-7.58a4.97 4.97 0 0 1 4 0V51z"/>
                        <path fill="#FBB136" d="M18.355 42s-.92 1.226-1.043 1.919c-.123.69.745 1.166 1.217 1.068a.956.956 0 0 0 .77-.995c-.025-.486-.944-1.992-.944-1.992"/>
                        <g transform="translate(17 45)">
                            <mask id="j" fill="#fff">
                                <use xlink:href="#i"/>
                            </mask>
                            <path fill="#EF5055" d="M2.993 6H.062V.364a3.591 3.591 0 0 1 2.931 0V6z" mask="url(#j)"/>
                        </g>
                        <path fill="#FBB136" d="M12.5 38c-.207 0-.375-.154-.375-.344v-2.312c0-.19.168-.344.375-.344s.375.154.375.344v2.312c0 .19-.168.344-.375.344M11.709 38a.29.29 0 0 1-.206-.085l-1.418-1.418a.291.291 0 0 1 .412-.412l1.417 1.418a.29.29 0 0 1-.205.497M14.291 38a.292.292 0 0 1-.206-.497l1.418-1.418a.291.291 0 0 1 .411.412l-1.417 1.418a.29.29 0 0 1-.206.085"/>
                    </g>
                    <g mask="url(#f)">
                        <path fill="#318562" d="M10.593-2L8.147.263l-3.26-.801L3.685 2.54l-3.29.667.277 3.287L-2 8.497l1.703 2.845-1.522 2.941L.972 16.12l-.07 3.299 3.326.466 1.394 3.002 3.204-.997L11.407 24l2.445-2.262 3.26.802 1.204-3.08 3.29-.667-.276-3.288L24 13.503v-.001l-1.703-2.843 1.521-2.941-2.79-1.838.07-3.298-3.326-.466-1.394-3.002-3.203.997L10.593-2zm-.406 8.604l.987.588 1.037-.499.629.95 1.154-.008.147 1.125 1.043.484-.363 1.075.726.882-.804.814.265 1.102-1.084.39-.248 1.108-1.15-.11-.713.892-.987-.588-1.036.499-.63-.95-1.154.008-.146-1.125-1.045-.485.364-1.075-.725-.881.803-.814-.265-1.102 1.084-.391.249-1.107 1.15.11.712-.892z"/>
                        <path fill="#EF5055" d="M13.746 16.518c-.043 0-.087.001-.134.004-.804.053-1.692 1.292-2.291 3.148 2.234-.506 3.44-1.364 3.485-2.003.001-.022.033-.565-.293-.887-.176-.175-.434-.262-.767-.262m-2.968 4.054a.37.37 0 0 1-.279-.128.409.409 0 0 1-.083-.37c.697-2.592 1.903-4.253 3.149-4.333.612-.04 1.108.117 1.464.47.56.552.537 1.356.526 1.511-.103 1.482-2.503 2.44-4.713 2.844a.368.368 0 0 1-.064.006"/>
                        <path fill="#EF5055" d="M7.81 16.518c-.334 0-.591.087-.767.262-.328.323-.295.864-.292.887.043.639 1.25 1.497 3.484 2.003-.598-1.856-1.487-3.095-2.29-3.148a1.999 1.999 0 0 0-.135-.004m2.968 4.054a.368.368 0 0 1-.065-.006c-2.21-.404-4.61-1.363-4.712-2.842-.01-.155-.036-.958.525-1.513.357-.353.845-.509 1.465-.47 1.246.08 2.452 1.741 3.149 4.334a.407.407 0 0 1-.084.369.37.37 0 0 1-.278.128"/>
                        <path fill="#EF5055" d="M7.494 25a.366.366 0 0 1-.23-.081.404.404 0 0 1-.068-.55l3.285-4.428a.365.365 0 0 1 .527-.07.403.403 0 0 1 .067.548l-3.284 4.43a.37.37 0 0 1-.297.151"/>
                        <path fill="#EF5055" d="M14.063 25a.37.37 0 0 1-.298-.152L10.48 20.42a.404.404 0 0 1 .068-.549.364.364 0 0 1 .527.07l3.285 4.429a.405.405 0 0 1-.068.55.366.366 0 0 1-.23.081M16.435 3.36c0 .721-.56 1.305-1.251 1.305-.692 0-1.253-.584-1.253-1.304 0-.72.56-1.305 1.253-1.305.69 0 1.251.584 1.251 1.305"/>
                        <path fill="#FBB136" d="M4.545 9.49c0 .72-.56 1.305-1.252 1.305-.69 0-1.251-.585-1.251-1.305 0-.721.56-1.306 1.251-1.306.692 0 1.252.585 1.252 1.306"/>
                        <path fill="#3B96D1" d="M18.939 14.16c0 .722-.56 1.306-1.253 1.306-.69 0-1.251-.584-1.251-1.305s.56-1.305 1.251-1.305c.692 0 1.253.584 1.253 1.305"/>
                    </g>
                </g>
            </g>
            <path fill="#8CCEF1" d="M220 114h72v-2h-72z" mask="url(#d)"/>
            <g mask="url(#d)">
                <path fill="#3A95D1" d="M305 52l-11.513-18H21.513L10 52z"/>
                <g fill="#3A95D1">
                    <path d="M177.984 52H172v.476c0 1.388 1.33 2.524 2.955 2.524h.107c1.52 0 2.78-.994 2.938-2.258a2.294 2.294 0 0 1-.016-.266V52zM178.016 52v.476c0 .09-.006.179-.016.266.157 1.264 1.417 2.258 2.938 2.258h.106c1.627 0 2.956-1.136 2.956-2.524V52h-5.984zM190.984 52H185v.476c0 1.388 1.329 2.524 2.955 2.524h.107c1.52 0 2.78-.994 2.938-2.258a2.294 2.294 0 0 1-.016-.266V52zM191.016 52v.476c0 .09-.006.179-.016.266.157 1.264 1.418 2.258 2.938 2.258h.107c1.625 0 2.955-1.136 2.955-2.524V52h-5.984zM202.984 52H197v.476c0 1.388 1.33 2.524 2.955 2.524h.108c1.52 0 2.78-.994 2.937-2.258a2.294 2.294 0 0 1-.016-.266V52z"/>
                    <path d="M203.017 52v.476c0 .09-.006.179-.017.266.157 1.264 1.417 2.258 2.938 2.258h.107c1.626 0 2.955-1.136 2.955-2.524V52h-5.983zM214.984 52H209v.476c0 1.388 1.329 2.524 2.955 2.524h.107c1.52 0 2.78-.994 2.938-2.258a2.294 2.294 0 0 1-.016-.266V52zM216.016 52v.476c0 .09-.006.179-.016.266.157 1.264 1.418 2.258 2.938 2.258h.107c1.625 0 2.955-1.136 2.955-2.524V52h-5.984zM227.984 52H222v.476c0 1.388 1.33 2.524 2.955 2.524h.108c1.52 0 2.78-.994 2.937-2.258a2.294 2.294 0 0 1-.016-.266V52z"/>
                    <path d="M228.017 52v.476c0 .09-.006.179-.017.266.158 1.264 1.418 2.258 2.938 2.258h.107c1.626 0 2.955-1.136 2.955-2.524V52h-5.983zM239.984 52H234v.476c0 1.388 1.33 2.524 2.955 2.524h.107c1.52 0 2.78-.994 2.938-2.258a2.294 2.294 0 0 1-.016-.266V52zM241.016 52v.476c0 .09-.006.179-.016.266.157 1.264 1.418 2.258 2.938 2.258h.107c1.625 0 2.955-1.136 2.955-2.524V52h-5.984zM252.983 52H247v.476c0 1.388 1.33 2.524 2.955 2.524h.107c1.52 0 2.781-.994 2.938-2.258a2.133 2.133 0 0 1-.017-.266V52zM253.016 52v.476c0 .09-.006.179-.016.266.157 1.264 1.418 2.258 2.937 2.258h.108c1.625 0 2.955-1.136 2.955-2.524V52h-5.984zM264.984 52H259v.476c0 1.388 1.33 2.524 2.955 2.524h.107c1.52 0 2.78-.994 2.938-2.258a2.294 2.294 0 0 1-.016-.266V52zM266.016 52v.476c0 .09-.006.179-.016.266.157 1.264 1.418 2.258 2.938 2.258h.107c1.626 0 2.955-1.136 2.955-2.524V52h-5.984zM277.983 52H272v.476c0 1.388 1.33 2.524 2.955 2.524h.107c1.52 0 2.781-.994 2.938-2.258a2.294 2.294 0 0 1-.017-.266V52zM278.016 52v.476c0 .09-.006.179-.016.266.157 1.264 1.418 2.258 2.938 2.258h.107c1.625 0 2.955-1.136 2.955-2.524V52h-5.984zM289.984 52H284v.476c0 1.388 1.33 2.524 2.955 2.524h.107c1.52 0 2.78-.994 2.938-2.258a2.294 2.294 0 0 1-.016-.266V52zM291.016 52v.476c0 .09-.006.179-.016.266.157 1.264 1.417 2.258 2.938 2.258h.106c1.627 0 2.956-1.136 2.956-2.524V52h-5.984zM297 52.476c0 1.388 1.325 2.524 2.947 2.524h.106c1.621 0 2.947-1.136 2.947-2.524V52h-6v.476zM15.984 52H10v.476C10 53.864 11.33 55 12.955 55h.107c1.52 0 2.78-.994 2.938-2.258a2.294 2.294 0 0 1-.016-.266V52z"/>
                    <path d="M16.016 52v.476c0 .09-.006.179-.016.266.157 1.264 1.417 2.258 2.938 2.258h.106C20.671 55 22 53.864 22 52.476V52h-5.984zM27.984 52H22v.476C22 53.864 23.329 55 24.955 55h.107c1.52 0 2.78-.994 2.938-2.258a2.294 2.294 0 0 1-.016-.266V52zM29.016 52v.476c0 .09-.006.179-.016.266.157 1.264 1.418 2.258 2.938 2.258h.107C33.67 55 35 53.864 35 52.476V52h-5.984zM40.984 52H35v.476C35 53.864 36.33 55 37.955 55h.108c1.52 0 2.78-.994 2.937-2.258a2.294 2.294 0 0 1-.016-.266V52zM41.017 52v.476c0 .09-.006.179-.017.266.157 1.264 1.417 2.258 2.938 2.258h.107C45.671 55 47 53.864 47 52.476V52h-5.983zM52.984 52H47v.476C47 53.864 48.329 55 49.955 55h.107c1.52 0 2.78-.994 2.938-2.258a2.294 2.294 0 0 1-.016-.266V52zM54.016 52v.476c0 .09-.006.179-.016.266.157 1.264 1.418 2.258 2.938 2.258h.107C58.67 55 60 53.864 60 52.476V52h-5.984zM65.984 52H60v.476C60 53.864 61.33 55 62.955 55h.108c1.52 0 2.78-.994 2.937-2.258a2.294 2.294 0 0 1-.016-.266V52zM66.017 52v.476c0 .09-.006.179-.017.266.158 1.264 1.418 2.258 2.938 2.258h.107C70.671 55 72 53.864 72 52.476V52h-5.983zM77.984 52H72v.476C72 53.864 73.33 55 74.955 55h.107c1.52 0 2.78-.994 2.938-2.258a2.294 2.294 0 0 1-.016-.266V52zM79.016 52v.476c0 .09-.006.179-.016.266.157 1.264 1.418 2.258 2.938 2.258h.107C83.67 55 85 53.864 85 52.476V52h-5.984zM90.983 52H85v.476C85 53.864 86.33 55 87.955 55h.107c1.52 0 2.781-.994 2.938-2.258a2.133 2.133 0 0 1-.017-.266V52zM91.016 52v.476c0 .09-.006.179-.016.266.157 1.264 1.418 2.258 2.937 2.258h.108C95.67 55 97 53.864 97 52.476V52h-5.984zM102.984 52H97v.476C97 53.864 98.33 55 99.955 55h.107c1.52 0 2.78-.994 2.938-2.258a2.294 2.294 0 0 1-.016-.266V52zM103.016 52v.476c0 .09-.006.179-.016.266.157 1.264 1.418 2.258 2.938 2.258h.107c1.626 0 2.955-1.136 2.955-2.524V52h-5.984zM115.983 52H110v.476c0 1.388 1.33 2.524 2.955 2.524h.107c1.52 0 2.781-.994 2.938-2.258a2.294 2.294 0 0 1-.017-.266V52zM116.016 52v.476c0 .09-.006.179-.016.266.157 1.264 1.418 2.258 2.938 2.258h.107c1.625 0 2.955-1.136 2.955-2.524V52h-5.984zM127.984 52H122v.476c0 1.388 1.33 2.524 2.955 2.524h.107c1.52 0 2.78-.994 2.938-2.258a2.294 2.294 0 0 1-.016-.266V52z"/>
                    <path d="M128.016 52v.476c0 .09-.006.179-.016.266.157 1.264 1.417 2.258 2.938 2.258h.106c1.627 0 2.956-1.136 2.956-2.524V52h-5.984zM135.016 52v.476c0 .09-.006.179-.016.266.157 1.264 1.418 2.258 2.938 2.258h.107c1.626 0 2.955-1.136 2.955-2.524V52h-5.984zM146.983 52H141v.476c0 1.388 1.33 2.524 2.955 2.524h.107c1.52 0 2.781-.994 2.938-2.258a2.294 2.294 0 0 1-.017-.266V52zM147.016 52v.476c0 .09-.006.179-.016.266.157 1.264 1.418 2.258 2.938 2.258h.107c1.625 0 2.955-1.136 2.955-2.524V52h-5.984zM158.984 52H153v.476c0 1.388 1.33 2.524 2.955 2.524h.107c1.52 0 2.78-.994 2.938-2.258a2.294 2.294 0 0 1-.016-.266V52zM160.016 52v.476c0 .09-.006.179-.016.266.157 1.264 1.417 2.258 2.938 2.258h.106c1.627 0 2.956-1.136 2.956-2.524V52h-5.984zM166 52.476c0 1.388 1.325 2.524 2.947 2.524h.106c1.621 0 2.947-1.136 2.947-2.524V52h-6v.476z"/>
                </g>
                <path fill="#E6F5FC" d="M304.588 52H172.412c-.228 0-.412-.224-.412-.5s.184-.5.412-.5h132.176c.228 0 .412.224.412.5s-.184.5-.412.5"/>
                <path fill="#E6F5FC" d="M171.498 52H10.502a.5.5 0 1 1 0-1h160.996a.501.501 0 1 1 0 1"/>
            </g>
            <g mask="url(#d)">
                <path fill="#FEFEFE" d="M141 112.429h70.435V61H141z"/>
                <g transform="translate(147 82)">
                    <mask id="l" fill="#fff">
                        <use xlink:href="#k"/>
                    </mask>
                    <path fill="#DC6757" d="M7.987 9.44V23H0V9.44a3.988 3.988 0 0 1 2.824-3.808V.019H5.16v5.613c.632.19 1.196.536 1.657.995a3.958 3.958 0 0 1 1.17 2.814" mask="url(#l)"/>
                    <path fill="#FEFEFE" d="M1.139 11C1.062 11 1 10.928 1 10.84V9.492c0-1.448.688-2.779 1.795-3.473.067-.042.152-.013.188.064.037.078.012.175-.055.217-1.018.638-1.65 1.861-1.65 3.192v1.348c0 .088-.063.16-.14.16M1 14c-.082 0-.148-.075-.148-.168v-1.664C.852 12.075.918 12 1 12c.082 0 .148.075.148.168v1.664c0 .093-.066.168-.148.168"/>
                    <mask id="n" fill="#fff">
                        <use xlink:href="#m"/>
                    </mask>
                    <path fill="#E28575" d="M3 3h2V0H3z" mask="url(#n)"/>
                    <path fill="#FEFEFE" d="M3 17h5v-4H3zM3 2.15h2v-.3H3z" mask="url(#n)"/>
                </g>
                <path fill="#EDC16A" d="M141 108h70v-3h-70z"/>
                <g transform="translate(141 105)">
                    <path fill="#E47737" d="M23.066 2.994a.083.083 0 0 1-.032-.007c-3.195-1.407-7.573-1.1-8.838-.972-2.577.26-7.15.121-7.195.12H2.659a.081.081 0 1 1 0-.163h4.344c.048.002 4.61.14 7.176-.119 1.276-.128 5.69-.438 8.92.985a.081.081 0 0 1-.033.156M25.501 1.777h-.01C22.363 1.35 19.882.23 19.857.218a.082.082 0 0 1 .068-.148c.024.01 2.485 1.121 5.586 1.544a.081.081 0 0 1-.01.162M29.353 1.549c-3.792 0-4.701-1.278-4.755-1.36a.081.081 0 0 1 .135-.09c.022.033 2.089 2.867 12.896-.033a.082.082 0 0 1 .1.057.081.081 0 0 1-.058.1c-3.7.993-6.384 1.326-8.318 1.326M39.917 2.994a.081.081 0 0 1-.01-.162c2.938-.373 7.411-1.001 7.697-1.203.144-.102.237-.238.206-.303-.033-.067-.337-.363-3.144.448a.081.081 0 1 1-.045-.157c2.044-.59 3.167-.712 3.335-.361.08.167-.072.374-.258.506-.41.29-7.018 1.136-7.77 1.231h-.01M52.64 2.994a.081.081 0 0 1-.055-.02c-1.394-1.232-2.596-1.432-2.608-1.434a.082.082 0 0 1-.068-.093.082.082 0 0 1 .093-.068c.05.008 1.258.207 2.691 1.473a.081.081 0 0 1-.054.142M58.045 1.395c-3.138 0-5.41-1.16-5.443-1.178a.081.081 0 1 1 .075-.145c.05.027 5.09 2.599 10.525 0a.081.081 0 0 1 .07.146 12.02 12.02 0 0 1-5.227 1.177M59.442 2.994a.082.082 0 0 1-.04-.152c.084-.048 2.068-1.176 2.785-1.391a.081.081 0 1 1 .047.156c-.7.21-2.732 1.365-2.752 1.376a.082.082 0 0 1-.04.01"/>
                    <g transform="translate(62.482 1.562)">
                        <mask id="p" fill="#fff">
                            <use xlink:href="#o"/>
                        </mask>
                        <path fill="#E47737" d="M.11 1.432a.081.081 0 0 1-.049-.147C1.687.065 5.647.052 5.814.052h3.199a.081.081 0 0 1 0 .162H5.814c-.04 0-4.073.014-5.655 1.201a.08.08 0 0 1-.05.017" mask="url(#p)"/>
                    </g>
                    <mask id="r" fill="#fff">
                        <use xlink:href="#q"/>
                    </mask>
                    <path fill="#E7AC41" d="M65.098 5.143h2.075v-2.23h-2.075z" mask="url(#r)"/>
                    <path fill="#E47737" d="M7.649 1.162c-.298 0-.473-.005-.481-.005H.08a.081.081 0 1 1 0-.163h7.09c.045.002 4.266.13 6.987-.925a.082.082 0 0 1 .059.151c-2.204.855-5.372.942-6.568.942" mask="url(#r)"/>
                    <path fill="#E7AC41" d="M4.487 5.143h2.075v-2.23H4.487z" mask="url(#r)"/>
                </g>
                <g transform="scale(1 -1) rotate(44 194.815 219.328)">
                    <mask id="t" fill="#fff">
                        <use xlink:href="#s"/>
                    </mask>
                    <path fill="#4DC1BD" d="M.037 6S2.33-.472 4.135.062c1.805.535.936 4.56-4.098 5.936" mask="url(#t)"/>
                </g>
                <g transform="scale(1 -1) rotate(44 181.752 198.215)">
                    <mask id="v" fill="#fff">
                        <use xlink:href="#u"/>
                    </mask>
                    <path fill="#4DC1BD" d="M4.998 5.986S3.381-1.008.632.133c-2.75 1.141 4.366 5.853 4.366 5.853" mask="url(#v)"/>
                </g>
                <path fill="#4DC1BD" d="M194.432 66.481s3.712 6.173.938 7.26c-2.774 1.087-.938-7.26-.938-7.26M201.453 69.432s3.712 6.173.938 7.26c-2.775 1.087-.938-7.26-.938-7.26M190.24 63.579s6.614.888 7.687-.484c1.075-1.371.269-3.448-7.688.484M195.846 66.506s6.613.887 7.687-.484c1.075-1.372.27-3.448-7.687.484"/>
                <path fill="#15405E" d="M188.067 62.897a.118.118 0 0 0-.032.054c-.098.384.125 2.544.151 2.79a.099.099 0 0 0 .118.087.113.113 0 0 0 .095-.123c-.086-.818-.19-2.05-.175-2.541a61.565 61.565 0 0 0 5.77 3.453c4.401 2.3 7.815 3.3 10.144 2.973a.115.115 0 0 0 .098-.12.1.1 0 0 0-.114-.092c-5.461.768-15.815-6.422-15.919-6.495a.105.105 0 0 0-.1-.01.112.112 0 0 0-.036.024"/>
                <path fill="#15405E" d="M201.351 69.53a.16.16 0 0 0-.051.11l.007 2.484c.001.065.057.101.126.082.067-.02.122-.088.123-.154l-.008-2.483c0-.065-.056-.101-.124-.081a.17.17 0 0 0-.073.042M195.206 67.124a.115.115 0 0 0-.035.093c.005.057.059.094.117.082l3.248-.637a.116.116 0 0 0 .094-.124.095.095 0 0 0-.116-.082l-3.25.637a.11.11 0 0 0-.058.03M194.346 66.564a.141.141 0 0 0-.046.096l.005 2.538c0 .054.047.083.105.064.057-.019.105-.077.104-.131l-.004-2.538c0-.055-.047-.083-.106-.065a.155.155 0 0 0-.058.036M190.307 63.513a.1.1 0 0 0-.03.08c.005.05.051.081.1.071l3.292-.639a.099.099 0 0 0 .08-.105c-.005-.05-.05-.081-.1-.072l-3.292.639a.1.1 0 0 0-.05.026"/>
                <g>
                    <path fill="#FFF0BB" d="M192 93.883l.11-.112 3.623-3.64c-1.027-1.262-.856-2.859.13-3.628.648-.505 1.644-.65 2.491-.344 1.029.371 1.695 1.354 1.617 2.437l-.002.005c1.183-.145 2.308.393 2.786 1.3.394.746.303 1.658-.206 2.28-.777.947-2.52 1.21-3.976.366L194.906 96 192 93.883z"/>
                    <path fill="#DC6757" d="M186 96.33c1.164-.485 6.208-2.75 7.58-3.974 0 0 .567-.68 1.076-.16l2.139 2.188c.235.241.273.6.087.879-.859 1.285-3.226 4.883-3.92 6.519a.727.727 0 0 1-.413.387l-4.72 1.831"/>
                    <path fill="#FFF0BB" d="M197.5 97.006l4.76-1.85c-.345-1.454.503-2.772 1.703-3.083a2.577 2.577 0 0 1 2.327.592c.737.687.89 1.772.347 2.678l-.005.005c1.099.296 1.846 1.161 1.868 2.113.017.785-.462 1.54-1.18 1.894-1.093.54-2.732.147-3.635-1.1l-4.825 1.71-.117.035-1.243-2.994z"/>
                    <g transform="translate(161 88)">
                        <mask id="x" fill="#fff">
                            <use xlink:href="#w"/>
                        </mask>
                        <path fill="#E47737" d="M1.552 17.743H36.04a1.549 1.549 0 0 0 1.495-1.943c-.716-2.755-2.79-7.927-8.675-12.085-8.448-5.969-20.75-3.88-24.604.746 0 0-4.392 4.812-4.252 11.766a1.553 1.553 0 0 0 1.55 1.516" mask="url(#x)"/>
                    </g>
                    <g transform="translate(168 97)">
                        <mask id="z" fill="#fff">
                            <use xlink:href="#y"/>
                        </mask>
                        <path fill="#E99F22" d="M10.12 8.816c.22-4.89-4.085-4.77-4.085-4.77h2.428c1.157.104 2.11-.79 2.208-1.778C10.782 1.148 9.8-.08 8.463.004H3.754C.59.41.001 6.068.001 6.068v2.748H10.12z" mask="url(#z)"/>
                    </g>
                    <g transform="translate(179 96)">
                        <mask id="B" fill="#fff">
                            <use xlink:href="#A"/>
                        </mask>
                        <path fill="#E99F22" d="M18.295.497l1.177 3.397c.13.375.017.796-.282 1.029-1.38 1.071-5.206 4.088-6.572 5.625a.753.753 0 0 1-.566.256H1.19c-.363 0-.683-.261-.777-.645C.09 8.84-.44 5.809 1.37 3.452 3.66.468 6.743 1.411 8.086 1.372c1.344-.039 7.232-.385 9.09-1.163 0 0 .84-.518 1.12.288" mask="url(#B)"/>
                    </g>
                    <path fill="#F2BC45" d="M193.718 94.7a.305.305 0 0 1-.203-.074c-2.705-2.43-6.273-4.315-10.32-5.451-.148-.041-.23-.179-.181-.307.048-.127.208-.197.355-.156 4.135 1.16 7.784 3.089 10.552 5.576a.22.22 0 0 1-.007.344.305.305 0 0 1-.196.068"/>
                    <path fill="#E47737" d="M176.746 106c-.123 0-.231-.075-.25-.18-.242-1.317-1.017-2.124-2.305-2.401-.136-.03-.218-.146-.183-.26.035-.113.176-.181.31-.152 1.033.222 2.337.88 2.679 2.748.021.116-.074.225-.212.242a.308.308 0 0 1-.04.003M184.274 101a.324.324 0 0 1-.176-.05c-.116-.074-.131-.206-.034-.295 1.875-1.71 4.313-1.568 5.77-1.485.313.019.584.033.796.03.677-.014 2.38-.081 4.07-.2.148-.008.285.075.299.19.014.116-.098.218-.248.229-1.716.12-3.396.186-4.107.2-.238.004-.523-.01-.851-.03-1.44-.083-3.615-.209-5.31 1.336a.312.312 0 0 1-.209.075"/>
                </g>
                <g>
                    <g transform="rotate(-130 89.352 3.603)">
                        <mask id="D" fill="#fff">
                            <use xlink:href="#C"/>
                        </mask>
                        <path fill="#4DC1BD" d="M.037 6S2.33-.472 4.135.062c1.805.535.936 4.56-4.098 5.936" mask="url(#D)"/>
                    </g>
                    <g transform="rotate(-130 98.35 -1.332)">
                        <mask id="F" fill="#fff">
                            <use xlink:href="#E"/>
                        </mask>
                        <path fill="#4DC1BD" d="M4.998 5.986S3.381-1.008.632.133c-2.75 1.141 4.366 5.853 4.366 5.853" mask="url(#F)"/>
                    </g>
                    <path fill="#4DC1BD" d="M157.322 68.433s-4.337 5.75-1.692 7.121c2.646 1.371 1.692-7.121 1.692-7.121M150.032 70.634s-4.338 5.75-1.692 7.121c2.645 1.372 1.692-7.121 1.692-7.121M161.795 65.985s-6.67.191-7.594-1.285c-.926-1.476.092-3.457 7.594 1.285M155.913 68.31s-6.67.19-7.594-1.285c-.926-1.477.092-3.457 7.594 1.284"/>
                    <path fill="#15405E" d="M164.028 65.533a.118.118 0 0 1 .025.058c.058.392-.39 2.517-.442 2.758a.099.099 0 0 1-.126.074.113.113 0 0 1-.082-.131c.172-.805.405-2.02.44-2.51a61.565 61.565 0 0 1-6.098 2.831c-4.618 1.827-8.118 2.465-10.4 1.897a.115.115 0 0 1-.085-.13.1.1 0 0 1 .123-.08c5.35 1.336 16.4-4.733 16.51-4.795a.105.105 0 0 1 .1 0 .112.112 0 0 1 .035.028"/>
                    <path fill="#15405E" d="M150.122 70.742a.16.16 0 0 1 .04.115l-.267 2.469c-.008.065-.067.095-.133.068-.066-.026-.113-.1-.107-.166l.267-2.468c.007-.065.067-.095.133-.068a.17.17 0 0 1 .067.05M156.485 68.99a.115.115 0 0 1 .026.098c-.012.055-.069.086-.125.069l-3.164-.973a.116.116 0 0 1-.08-.133.095.095 0 0 1 .124-.07l3.164.974a.11.11 0 0 1 .055.036M157.4 68.524c.024.03.038.067.035.1l-.27 2.524c-.005.053-.055.077-.111.052-.056-.024-.097-.087-.09-.14l.27-2.525c.004-.054.055-.077.111-.052.02.008.04.024.054.041M161.735 65.912a.1.1 0 0 1 .021.083.082.082 0 0 1-.107.06l-3.206-.98a.099.099 0 0 1-.069-.113c.01-.049.059-.075.108-.06l3.206.979a.1.1 0 0 1 .047.031"/>
                </g>
                <path fill="#8CCEF1" d="M141 114h72v-1.571h-72z"/>
            </g>
            <g mask="url(#d)">
                <path fill="#FEFEFE" d="M24 112.458h70.435V61.625H24z"/>
                <g transform="translate(24 61)">
                    <mask id="H" fill="#fff">
                        <use xlink:href="#G"/>
                    </mask>
                    <use fill="#FFF" xlink:href="#G"/>
                    <g mask="url(#H)">
                        <path fill="#FFF" stroke="#5A7385" stroke-width=".2" d="M2.13 23.153c-.54-4.572.632-10.552 2.888-16.091 2.256-5.54 8.121-5.805 10.828-4.221 2.707 1.582 5.775 5.451 3.159 10.288-2.617 4.836-1.715 12.31-1.715 12.31s.15 1.261-1.173 0c-1.323-1.26-1.443.558-2.827.03s-1.211-1.29-2.29-.938c-1.079.352-1.26.88-2.402-.176-1.143-1.055-2.046.293-2.888 0-.842-.293-.662-1.055-1.684-1.055-1.023 0-1.143.645-1.504.586-.361-.058-.391-.733-.391-.733"/>
                        <path fill="#1E1422" d="M16 9.5a.5.5 0 1 0-1 0 .5.5 0 0 0 1 0M10 6.5a.5.5 0 1 0-1 0 .5.5 0 0 0 1 0M11.468 9.058c-.42-.179-.894.07-1.05.55l-.367 1.134c-.157.481.06 1.021.481 1.2.421.179.894-.07 1.05-.55l.367-1.134c.157-.48-.06-1.021-.481-1.2"/>
                    </g>
                    <path fill="#152934" d="M69.265 11.848s-7.292-3.761-5.587 1.928c0 0-4.781-4.264-10.161 3.449 0 0-5.227-7.441-10.01-3.517 0 0 .945-6.3-5.322-2.268 0 0 3.105-5.879-6.405-5.377 0 0 10.771-4.847 15.042-1.71 2.024 1.493 3.326 3.448 4.574 4.603a2.084 2.084 0 0 1 .707-2.16 2.189 2.189 0 0 1 3.05.259 2.04 2.04 0 0 1 .47 1.697c.223-.19.458-.421.694-.679 4.228-4.562 7.694-7.4 19.463-1.562 0 0-10.009-.869-6.515 5.337" mask="url(#H)" transform="rotate(27 53.78 10.225)"/>
                    <g mask="url(#H)">
                        <g transform="translate(18 29)">
                            <mask id="J" fill="#fff">
                                <use xlink:href="#I"/>
                            </mask>
                            <path fill="#F4B13E" d="M17.038 1.65a.168.168 0 0 1-.11.006C15.923 1.377 1.367-2.37.103 14.235c-1.256 16.498 9.269 19.923 17.707 18.46a12.57 12.57 0 0 1 2.173-.182c2.785.005 10.097-.45 13.59-5.116 4.361-5.828 4.51-34.35-16.535-25.748" mask="url(#J)"/>
                        </g>
                        <g transform="translate(28 23)">
                            <mask id="L" fill="#fff">
                                <use xlink:href="#K"/>
                            </mask>
                            <path fill="#EE7748" d="M6.751 8.36c.104.014.183-.085.134-.174C6.31 7.144 3.79 2.564 3.65 2.16 3.49 1.702 4.154.94 5.325.33c1.171-.61 2.12-.457 2.91 1.22.763 1.617 1.43 4.722 1.38 6.24a.122.122 0 0 0 .154.123c.769-.17 4.107-.774 6.057 1.105 0 0 1.089.75-4.526.91-.073.003-.134.06-.128.13.042.52.184 2.455-.09 2.39-.307-.075-1.656-.794-2.603-1.881a.127.127 0 0 0-.18-.015c-.499.449-2.786 2.488-3.068 2.353-.3-.146-.172-1.53.18-2.648a.12.12 0 0 0-.128-.158c-.975.073-5.473.377-5.191-.166.31-.596 3.238-2.014 6.66-1.572" mask="url(#L)"/>
                        </g>
                        <path fill="#1E1422" d="M34.284 47h3.432c.195 0 .332-.14.268-.276l-1.716-3.585c-.088-.185-.447-.185-.536 0l-1.716 3.585c-.065.135.073.276.268.276M28.284 44h3.432c.195 0 .332-.247.268-.482l-1.716-6.275c-.088-.324-.447-.324-.536 0l-1.716 6.275c-.065.235.073.482.268.482M40.284 44h3.432c.195 0 .332-.247.268-.482l-1.716-6.275c-.088-.324-.447-.324-.536 0l-1.716 6.275c-.065.235.073.482.268.482M35.967 53.725l1.533 2.084a.41.41 0 0 0 .292.178c.69.06 3.25-.171 6.142-6.134.18-.372-.03-.854-.375-.853l-2.68.005c-.136 0-.264.079-.347.215l-1.096 1.786c-.18.294-.534.285-.706-.016l-.997-1.748c-.083-.145-.216-.232-.358-.232l-1.413.003h.074l-1.412.002c-.142 0-.275.087-.358.233l-.993 1.751c-.171.303-.525.312-.706.018l-1.1-1.781a.414.414 0 0 0-.348-.215l-2.68.005c-.345 0-.553.482-.372.853 2.904 5.954 5.464 6.177 6.155 6.114a.412.412 0 0 0 .291-.179l1.528-2.09"/>
                    </g>
                </g>
                <path fill="#8CCEF1" d="M24 114h72v-1.542H24z"/>
            </g>
            <path fill="#9ED8F2" d="M2 84h9v-3H2zM167 30h9v-3h-9zM186 11h9V8h-9zM238 31h9v-3h-9zM267 14h9v-3h-9zM211 23h9v-3h-9zM141 23h9v-3h-9zM17 33h9v-3h-9zM36 11h9V8h-9zM88 31h9v-3h-9zM117 14h9v-3h-9zM61 23h9v-3h-9zM277 30h9v-3h-9zM305 16h9v-3h-9zM0 16h9v-3H0zM300 86h9v-3h-9zM309 56h5v-3h-5zM6 103h8v-3H6z" mask="url(#d)"/>
            <path fill="#FEFEFE" d="M341.395 27.642h-.875c-.365 0-.706.284-.757.63l-.37 2.58a1.171 1.171 0 0 1-.425.732c-.243.206-.515.31-.817.31a.915.915 0 0 1-.714-.304.863.863 0 0 1-.21-.738l.224-1.565c.006-.314-.24-.557-.58-.557h-.888a.784.784 0 0 0-.742.557l-.23 1.565c-.043.29-.185.535-.426.738a1.22 1.22 0 0 1-.803.303.925.925 0 0 1-.72-.31.861.861 0 0 1-.218-.731l.499-3.423c.053-.333-.155-.681-.472-.823 0 0-3.75-1.488-3.995-1.583-.248-.096-.528.12-.623.48l-.23.861c-.096.361.12.77.48.91l2.514.992-.376 2.586c-.127.868.087 1.61.641 2.225.555.616 1.285.923 2.193.923.838 0 1.604-.267 2.295-.805.554.538 1.245.805 2.074.805.908 0 1.729-.307 2.462-.923.734-.615 1.164-1.357 1.29-2.225l.401-2.778c.034-.237-.237-.432-.602-.432" mask="url(#d)"/>
        </g>
        <path fill="#D5DFE6" d="M1 151h463l35 28H36z"/>
        <path fill="#FFF" d="M458 151s-1.427-4.22-17.441-4.827c0 0-8.559-7.173-20.476.607-3.113-1.125-6.855-1.113-9.765.052-3.454 1.38-4.202 3.767-4.318 4.168h52z"/>
        <path fill="#D5DFE6" d="M35 179h464v6H35z"/>
        <path stroke="#C4CDD5" stroke-linecap="round" d="M1 151.6l34.33 26.922M35.5 179H499M67 151.6l34.33 26.922M464 151.6l34.33 26.922M398 151.6l34.33 26.922M332 151.6l34.33 26.922M266 151.6l34.33 26.922M199 151.6l34.33 26.922M133 151.6l34.33 26.922"/>
        <path fill="#D5DFE6" stroke="#C4CDD5" stroke-linejoin="round" d="M1 151.6v5.65l34.33 27.45v-6.014z"/>
        <g fill="#FFF">
            <g transform="translate(319 118.13)">
                <circle cx="12.5" cy="12.371" r="1.5"/>
                <circle cx="31.5" cy="22.371" r="1.5"/>
                <circle cx="1.5" cy="16.371" r="1.5"/>
                <circle cx="20.5" cy="26.371" r="1.5"/>
                <circle cx="29.038" cy="6.317" r="1.5" transform="rotate(-38 29.038 6.317)"/>
                <circle cx="50.167" cy="2.5" r="1.5" transform="rotate(-38 50.167 2.5)"/>
                <circle cx="22.833" cy="16.242" r="1.5" transform="rotate(-38 22.833 16.242)"/>
                <circle cx="43.962" cy="12.424" r="1.5" transform="rotate(-38 43.962 12.424)"/>
            </g>
            <g transform="translate(280 27)">
                <circle cx="32.5" cy="42.371" r="1.5"/>
                <circle cx="51.5" cy="52.371" r="1.5"/>
                <circle cx="21.5" cy="46.371" r="1.5"/>
                <circle cx="40.5" cy="56.371" r="1.5"/>
                <circle cx="49.038" cy="36.317" r="1.5" transform="rotate(-38 49.038 36.317)"/>
                <circle cx="70.167" cy="32.5" r="1.5" transform="rotate(-38 70.167 32.5)"/>
                <circle cx="42.833" cy="46.242" r="1.5" transform="rotate(-38 42.833 46.242)"/>
                <circle cx="63.962" cy="42.424" r="1.5" transform="rotate(-38 63.962 42.424)"/>
                <circle cx="12.5" cy="12.371" r="1.5"/>
                <circle cx="31.5" cy="22.371" r="1.5"/>
                <circle cx="1.5" cy="16.371" r="1.5"/>
                <circle cx="20.5" cy="26.371" r="1.5"/>
                <circle cx="29.038" cy="6.317" r="1.5" transform="rotate(-38 29.038 6.317)"/>
                <circle cx="50.167" cy="2.5" r="1.5" transform="rotate(-38 50.167 2.5)"/>
                <circle cx="22.833" cy="16.242" r="1.5" transform="rotate(-38 22.833 16.242)"/>
                <circle cx="43.962" cy="12.424" r="1.5" transform="rotate(-38 43.962 12.424)"/>
            </g>
            <g transform="translate(380 77)">
                <circle cx="32.5" cy="42.371" r="1.5"/>
                <circle cx="51.5" cy="52.371" r="1.5"/>
                <circle cx="21.5" cy="46.371" r="1.5"/>
                <circle cx="40.5" cy="56.371" r="1.5"/>
                <circle cx="49.038" cy="36.317" r="1.5" transform="rotate(-38 49.038 36.317)"/>
                <circle cx="70.167" cy="32.5" r="1.5" transform="rotate(-38 70.167 32.5)"/>
                <circle cx="42.833" cy="46.242" r="1.5" transform="rotate(-38 42.833 46.242)"/>
                <circle cx="63.962" cy="42.424" r="1.5" transform="rotate(-38 63.962 42.424)"/>
                <circle cx="12.5" cy="12.371" r="1.5"/>
                <circle cx="31.5" cy="22.371" r="1.5"/>
                <circle cx="1.5" cy="16.371" r="1.5"/>
                <circle cx="20.5" cy="26.371" r="1.5"/>
                <circle cx="29.038" cy="6.317" r="1.5" transform="rotate(-38 29.038 6.317)"/>
                <circle cx="50.167" cy="2.5" r="1.5" transform="rotate(-38 50.167 2.5)"/>
                <circle cx="22.833" cy="16.242" r="1.5" transform="rotate(-38 22.833 16.242)"/>
                <circle cx="43.962" cy="12.424" r="1.5" transform="rotate(-38 43.962 12.424)"/>
            </g>
            <g transform="rotate(-61 227.838 -261.642)">
                <circle cx="29.876" cy="43.825" r="1.5"/>
                <circle cx="51.5" cy="52.371" r="1.5"/>
                <circle cx="21.5" cy="46.371" r="1.5"/>
                <circle cx="40.5" cy="56.371" r="1.5"/>
                <circle cx="49.038" cy="36.317" r="1.5" transform="rotate(-38 49.038 36.317)"/>
                <circle cx="70.167" cy="32.5" r="1.5" transform="rotate(-38 70.167 32.5)"/>
                <circle cx="43.802" cy="47.991" r="1.5" transform="rotate(-38 43.802 47.991)"/>
                <circle cx="63.962" cy="42.424" r="1.5" transform="rotate(-38 63.962 42.424)"/>
                <circle cx="12.5" cy="12.371" r="1.5"/>
                <circle cx="31.5" cy="22.371" r="1.5"/>
                <circle cx="1.5" cy="16.371" r="1.5"/>
                <circle cx="20.5" cy="26.371" r="1.5"/>
                <circle cx="29.038" cy="6.317" r="1.5" transform="rotate(-38 29.038 6.317)"/>
                <circle cx="50.167" cy="2.5" r="1.5" transform="rotate(-38 50.167 2.5)"/>
                <circle cx="22.833" cy="16.242" r="1.5" transform="rotate(-38 22.833 16.242)"/>
                <circle cx="43.962" cy="12.424" r="1.5" transform="rotate(-38 43.962 12.424)"/>
            </g>
            <path d="M336 171s1.701-3.767 20.795-4.308c0 0 10.205-6.403 24.413.541 3.713-1.003 8.174-.993 11.644.047 4.118 1.232 5.01 3.362 5.148 3.72h-62zM250 163s1.688-3.716 20.636-4.25c0 0 16.775-6.01 24.364 4.25h-45z"/>
        </g>
        <g>
            <g transform="translate(389.3 113.6)">
                <mask id="N" fill="#fff">
                    <use xlink:href="#M"/>
                </mask>
                <path fill="#8CB8EF" d="M3.97 38H.08V1.572C.08.708.723.002 1.509.002H2.54c.786 0 1.43.706 1.43 1.57V38z" mask="url(#N)"/>
            </g>
            <g transform="translate(449.3 113.6)">
                <mask id="P" fill="#fff">
                    <use xlink:href="#O"/>
                </mask>
                <path fill="#8CB8EF" d="M4.858 38H.113V1.572c0-.864.784-1.57 1.743-1.57h1.258c.96 0 1.744.706 1.744 1.57V38z" mask="url(#P)"/>
            </g>
            <path fill="#CFE1F9" d="M457.855 124.6h-73.11c-1.345 0-2.445-1.124-2.445-2.498v-2.004c0-1.373 1.1-2.498 2.445-2.498h73.11c1.344 0 2.445 1.125 2.445 2.498v2.004c0 1.374-1.1 2.498-2.445 2.498M458.994 139.6h-75.388c-.718 0-1.306-.515-1.306-1.144v-.712c0-.63.588-1.144 1.306-1.144h75.388c.718 0 1.306.515 1.306 1.144v.712c0 .63-.588 1.144-1.306 1.144M457.855 131.6h-73.11c-1.345 0-2.445-1.124-2.445-2.498v-2.004c0-1.373 1.1-2.498 2.445-2.498h73.11c1.344 0 2.445 1.125 2.445 2.498v2.004c0 1.374-1.1 2.498-2.445 2.498"/>
            <path fill="#EBF3FE" d="M389.3 120.6a2 2 0 1 1 4 0 2 2 0 0 1-4 0M389.3 127.6a2 2 0 1 1 4.001 0 2 2 0 0 1-4.001 0M450.3 120.6a2 2 0 1 1 4 0 2 2 0 0 1-4 0M450.3 127.6a2 2 0 1 1 4 0 2 2 0 0 1-4 0M393.44 143.6h-4.282c-1.578 0-2.858-1.16-2.858-2.593v-.407h10v.407c0 1.433-1.28 2.593-2.86 2.593M454.44 143.6h-4.282c-1.578 0-2.858-1.16-2.858-2.593v-.407h10v.407c0 1.433-1.28 2.593-2.86 2.593"/>
            <path fill="#8CB8EF" d="M430.1 119.35h-1.6c-.11 0-.2-.112-.2-.25s.09-.25.2-.25h1.6c.11 0 .2.112.2.25s-.09.25-.2.25M439.04 119.35h-6.48a.256.256 0 0 1-.26-.25c0-.138.117-.25.26-.25h6.48c.143 0 .26.112.26.25s-.117.25-.26.25"/>
            <g transform="translate(382.3 127.6)">
                <mask id="R" fill="#fff">
                    <use xlink:href="#Q"/>
                </mask>
                <path fill="#8CB8EF" d="M3.63.713H.25C.112.713 0 .61 0 .481S.112.249.25.249h3.38c.138 0 .25.104.25.232s-.112.232-.25.232" mask="url(#R)"/>
            </g>
            <path fill="#8CB8EF" d="M387.034 129.35h-4.468c-.147 0-.266-.112-.266-.25s.12-.25.266-.25h4.468c.147 0 .266.112.266.25s-.12.25-.266.25M412.044 129.35h-10.488a.253.253 0 0 1-.256-.25c0-.138.115-.25.256-.25h10.488c.141 0 .256.112.256.25s-.115.25-.256.25M414.04 127.35h-6.48a.255.255 0 0 1-.26-.25c0-.138.116-.25.26-.25h6.48c.144 0 .26.112.26.25s-.116.25-.26.25M434.042 121.35h-10.484a.254.254 0 0 1-.258-.25c0-.138.115-.25.258-.25h10.484c.143 0 .258.112.258.25s-.115.25-.258.25M436.034 127.35h-6.468c-.147 0-.266-.112-.266-.25s.119-.25.266-.25h6.468c.147 0 .266.112.266.25s-.119.25-.266.25"/>
            <g transform="translate(457.3 122.6)">
                <mask id="T" fill="#fff">
                    <use xlink:href="#S"/>
                </mask>
                <path fill="#8CB8EF" d="M3.723.722H.348C.207.722.092.63.092.518c0-.112.115-.203.256-.203h3.375c.141 0 .256.091.256.203 0 .113-.115.204-.256.204" mask="url(#T)"/>
            </g>
            <g transform="translate(458.3 126.6)">
                <mask id="V" fill="#fff">
                    <use xlink:href="#U"/>
                </mask>
                <path fill="#8CB8EF" d="M1.761.757H.271A.23.23 0 0 1 .043.525.23.23 0 0 1 .27.293h1.491a.23.23 0 0 1 .226.232.23.23 0 0 1-.226.232" mask="url(#V)"/>
            </g>
            <path fill="#8CB8EF" d="M458.053 124.35h-73.506a.25.25 0 0 1-.247-.25.25.25 0 0 1 .247-.25h73.506c.137 0 .247.112.247.25s-.11.25-.247.25"/>
        </g>
        <g>
            <path stroke="#F27573" stroke-linecap="round" stroke-linejoin="round" d="M31 86.238l-1-.476M32 87l-2-1M31 88.238l-1-.476M31 89l-2-1M31 90l-2-1"/>
            <path fill="#F7A79A" d="M56 153.506s.737 2.563.494 4.376l-.08.98L58.516 162l1.483-.892s-.378-.115-.755-1.498c-.377-1.382-.054-6.017-.081-6.565 0 0-2.85-.259-3.164.461"/>
            <path fill="#231F20" d="M56.3 158.351v4.165c0 .267.23.484.514.484h1.093c.284 0 .514-.217.514-.484v-.123c2.183 1.262 5.55.265 5.8-.38.25-.647-.093-.647-1.06-.705-.966-.059-1.59-.206-2.589-.646-.997-.44-.939-1.233-.939-1.233v-.945c0-.27-.233-.488-.52-.484-.629.01-1.68.023-2.306.015h-.195s-.312-.06-.312.336"/>
            <path fill="#F7A79A" d="M37.975 150.048s-.917 2.613-2.23 3.957l-.664.759-.081 3.995 1.829.241s-.258-.346.254-1.742 3.608-5.026 3.917-5.498c0 0-2.315-2.1-3.025-1.712"/>
            <path fill="#1A4278" d="M49.917 111.638S58.471 112.74 61 111c0 0-.113 20.797-.34 25.98-.228 5.182-1.138 15.933-1.365 16.398-.227.464-1.819.85-3.334.464 0 0-1.97-10.133-1.137-18.023l-.427-1.392s-2.983 5.956-6.848 10.442c-3.865 4.487-6.972 8.044-6.972 8.044s-2.122-.85-2.577-2.32c0 0 4.244-10.83 8.79-13.923 0 0 1.782-23.92 3.127-25.032"/>
            <path fill="#FEFEFE" d="M67.254 103.62a91.931 91.931 0 0 0 1.37-2.979A84.746 84.746 0 0 0 70 97.265c-.524-.112-2.354-1.133-2.354-1.133l-4.41 5.68s-.73-3.102-1.422-6.093l-.351-1.53c-.768-3.35-4.15-3.79-4.15-3.79l-3.93-.891a4.144 4.144 0 0 0-2.215-.502c-.847.118-2.2.431-3.294 1.466-.996.941-1.838 2.487-1.87 5.022-.079 6.3 1.064 18.506 1.064 18.506h2.602l1.3-17.802-1.08 15.38s-7.355-2.156 0 0c7.356 2.154 11.502-.644 11.502-.644v-5.457c.8 3.05 3.115 1.477 4.331.377 0 0 .865-.837 1.53-2.234"/>
            <path stroke="#103050" stroke-linecap="round" stroke-linejoin="round" stroke-width=".5" d="M57 121l-3 13"/>
            <g transform="translate(66 89)">
                <mask id="X" fill="#fff">
                    <use xlink:href="#W"/>
                </mask>
                <path fill="#F7A79A" d="M6.392 1.42c-.133.664-.45 1.702-.904 2.725-.697 1.57-3.072 4.832-3.072 4.832L.5 8.115s1.797-2.434 1.761-2.82C2.225 4.91 2.01.84 2.464 1.178c.454.338.468 1.385.468 1.385s.2-.943.372-1.641c0 0 .415-1.515 2.585-.396 0 0 .629.263.503.895" mask="url(#X)"/>
            </g>
            <path fill="#F7A79A" d="M47.181 119.38c-.103-.583-.19-1.528-.18-2.503.015-1.495.678-4.877.678-4.877l1.555.137s-.512 2.531-.375 2.836c.137.305 1.471 3.58 1.064 3.437-.408-.142-.723-.996-.723-.996s.14.832.226 1.457c0 0 .16 1.365-1.642 1.093 0 0-.504-.028-.603-.584"/>
            <path fill="#EB482E" d="M61.384 111.868L57.364 113s.804-7.4.09-11.143C56.739 98.114 57.083 90 57.083 90s3.443.44 4.225 3.79l.358 1.529c.703 2.99 1.447 6.091 1.447 6.091l4.49-5.679s1.863 1.02 2.397 1.132c0 0-.574 1.497-1.4 3.376a91.11 91.11 0 0 1-1.396 2.978c-.678 1.396-1.559 2.232-1.559 2.232-1.237 1.1-3.594 2.673-4.41-.376l.149 6.795z"/>
            <path fill="#0F100F" d="M59.128 80.014a.028.028 0 0 1 .051.007c.142.522 1.122 4.104 1.617 4.913.508.832 2.548 2.434 2.154 4.843a.555.555 0 0 1-.449.445l-.952.185a.03.03 0 0 1-.035-.022l-.15-.756s-.253 1.149-.5 1.115c-.247-.033-2.404.62-5.16-.04-2.634-.632 2.932-9.882 3.424-10.69"/>
            <path fill="#F7A79A" d="M56.147 90.672c-.311-2.25-.084-2.478-.084-2.478.277-.221.453-.034 1.198-.137.289-.04 1.026-.142 1.586-.576.518-.401.712-.953.84-1.333.682-2.024.05-5.668-.036-6.148 0 0-10.5 2.639-9.596 6.656.294 1.309.492 2.191.627 2.786l1.423 1.065a2.18 2.18 0 0 0 1.902 1.488 2.179 2.179 0 0 0 2.14-1.323"/>
            <path fill="#231F20" d="M59 83.373c-.002.207.108.376.247.377.138.001.251-.166.253-.373.002-.207-.108-.376-.247-.377-.138-.001-.251.165-.253.373M56 83.373c-.002.207.108.376.246.377.139.001.252-.166.254-.373.002-.207-.109-.376-.247-.377-.138-.001-.251.165-.253.373"/>
            <path stroke="#231F20" stroke-linecap="round" stroke-linejoin="round" stroke-width=".25" d="M60 82.058a2.504 2.504 0 0 0-.476-.1 2.736 2.736 0 0 0-.524-.007"/>
            <path fill="#231F20" d="M59.843 79s.19.178.296.833c.106.655-.296-.833-.296-.833"/>
            <path stroke="#231F20" stroke-linecap="round" stroke-linejoin="round" stroke-width=".25" d="M57 85s.218.97 1 1"/>
            <path stroke="#A91E22" stroke-linecap="round" stroke-linejoin="round" stroke-width=".5" d="M60 102l1 3"/>
            <path fill="#EB482E" d="M53.205 91.532c.292 2.231.486 4.138.578 5.64.1 1.638.477 7.818-.082 11.15-.068.407-.342 1.915-.24 3.91.024.465.063.847.092 1.1 0 0-2.954.043-4.053-.48L49.422 114h-2.426s-1.066-12.21-.992-18.51c.03-2.536.815-4.082 1.743-5.024 1.02-1.034 2.282-1.349 3.071-1.466 0 0 2.162.814 2.387 2.532"/>
            <path stroke="#A91E22" stroke-linecap="round" stroke-linejoin="round" stroke-width=".5" d="M50 96l-.887 15.698-.06.811L49 113"/>
            <path fill="#F27573" d="M49.78 87.566s-.998-.328-2.676.303c-1.678.63-5.204 1.5-8.784.535-3.04-.818-6.177-2.038-7.057-2.388a.22.22 0 0 0-.298.152l-.96 4.236a.21.21 0 0 0 .117.237c.934.446 5.97 2.727 10.48 2.308 4.994-.464 6.552-1.734 7.35-1.924.799-.19 1.439-.055 1.953-.049C50.056 90.978 52 87.9 52 87.9l-2.22-.333z"/>
            <path fill="#F27573" d="M56.908 91.942c.432-.015.78-.186.919-.461a.615.615 0 0 0 .061-.31s-.067-.51-.456-.914c-.39-.405.233-.97.483-1.422.25-.451-.09-1.221-.51-1.317l-6.31-1.433s-.823-.362-1.006.408c-.182.77-.078 1.356.246 1.853.324.497.405 1.06.032 1.777-.373.718-.301.871-.301.871.78-.173 1.472-.162 2.084-.029.979.213 1.344.646 2.35.893.53.13 1.06.165 1.579.128l.829-.044z"/>
            <g transform="translate(46 77)">
                <mask id="Z" fill="#fff">
                    <use xlink:href="#Y"/>
                </mask>
                <path fill="#231F20" d="M13.112 1.488S10.994.312 10.11.169C9.225.027 6.49.377 5.432 2.52c-1.058 2.142-.648 3.517-2.878 4.73C.325 8.46-.17 10.956.22 11.266c.39.31 4.53 1.61 4.991 1.677.462.068 1.543-.017 1.672-.956.13-.94-.521-2.882.562-3.349 1.082-.466 1.995-1.55 1.922-2.873 0 0 2.782-.322 3.915-1.523 1.132-1.2.802-2.247-.17-2.755" mask="url(#Z)"/>
            </g>
            <path stroke="#231F20" stroke-linecap="round" stroke-linejoin="round" stroke-width=".25" d="M58 81.894a2.57 2.57 0 0 0-.947-.074c-.546.06-.91.278-1.053.375"/>
            <path fill="#231F20" d="M35.935 153.153l-3.28 3.362a.542.542 0 0 0 .01.77l.833.806c.217.21.562.205.773-.01l.097-.1c.67 2.63 4.021 4.313 4.72 3.976.699-.337.437-.59-.253-1.351s-1.05-1.34-1.464-2.433c-.414-1.092.255-1.688.255-1.688l.745-.763a.542.542 0 0 0-.016-.775 106.516 106.516 0 0 1-1.769-1.69l-.149-.144s-.19-.28-.502.04"/>
            <path stroke="#231F20" stroke-linecap="round" stroke-linejoin="round" stroke-width=".25" d="M58.068 84s.151.863.063.958c-.089.094-.29 0-.29 0"/>
        </g>
        <g>
            <path fill="#F7A79A" d="M175.57 135c.862 0 1.23-.362 1.453-.644.16-.204.104-.888.104-.888a6.383 6.383 0 0 1-.007-1.15c.097.27.41 1.013.772.96.438-.072-.598-2.32-.598-2.32.223-1.138.55-1.986.55-1.986l-1.718-.972s-1.773 1.985-2.073 4.45c-.306 2.465.78 2.55 1.516 2.55"/>
            <g transform="matrix(-1 0 0 1 207 132)">
                <mask id="ab" fill="#fff">
                    <use xlink:href="#aa"/>
                </mask>
                <path fill="#F7A79A" d="M5.957.675s-.579 1.388-1.32 2.589v.006c0 .138-.006 2.344-.425 2.243-.44-.094-.3-1.213-.3-1.213-.147.176-.3.327-.447.446-1.173.943-1.961 1.773-3.009.71C-.59 4.396.414 3.453.98 3.1c.566-.351 1.725-1.533 1.996-2.08.273-.552.51-.942.51-.942l2.471.597z" mask="url(#ab)"/>
            </g>
            <path stroke="#1C4178" stroke-width=".25" d="M177.016 133.045l-.032-.09"/>
            <path fill="#EF5055" d="M183.336 114.783c3.306 2.8-.437 9.604-.437 9.604s-3.102 5.693-4.377 5.612c-.932-.059-2.033-.817-2.558-1.22a.662.662 0 0 1-.25-.662c.603-2.938 5.306-10.908 6.656-13.157l.6-.96.366.783z"/>
            <path fill="#F7A79A" d="M201 168.836l3.309-1.836s.307.472.691 1.102L201.593 170l-.593-1.164z"/>
            <g transform="matrix(-1 0 0 1 206 168)">
                <mask id="ad" fill="#fff">
                    <use xlink:href="#ac"/>
                </mask>
                <path fill="#051D36" d="M7.088 4.676c-.98-.523-2.547-2.4-2.821-2.923L1.342.046C.748 1.066-.065 2.551.035 2.888c.158.523 4.31 2.923 4.663 3.054.353.13 3.173 0 3.173 0s.196-.742-.783-1.266" mask="url(#ad)"/>
            </g>
            <path fill="#F7A79A" d="M172.315 169l3.685.905s-.13.478-.308 1.095L172 169.905l.315-.905z"/>
            <path fill="#051D36" d="M167.234 170.456c1.315 0 5.466-.456 5.466-.456l3.3 1.132c-.298 1.192-.752 2.892-.914 2.868-.249-.038-9.085-2.706-9.085-2.706s-.082-.838 1.233-.838"/>
            <path fill="#EF5055" d="M191.785 102s5.463 2.003 6.671 5.738c1.209 3.735 6.974 21.705 7.359 23.167.384 1.46.164 2.056-.605 2.381-.768.325-2.745 1.3-3.569.217-.823-1.083-6.534-13.586-6.534-13.586l-.11 1.57-11.201.054s-1.099-5.846-.714-10.339c.384-4.493 2.36-7.416 3.349-8.065.989-.65 5.354-1.137 5.354-1.137"/>
            <path stroke="#D52030" stroke-linecap="round" stroke-linejoin="round" stroke-width=".5" d="M183.6 122s-.824-3.211-1-6.627l.019-.373M191 111l3 9"/>
            <path fill="#1C4178" d="M194.036 128.15c.733-1.905.798-3.355.798-3.355V121l-11.249.054-.8 3.659L172 168.103l6.207 1.897s3.143-9.323 5.71-17.323c.918-2.87 2.299-6.433 3.739-9.926 0 0 .726 4.316 1.556 5.8.825 1.484 12.078 20.461 12.078 20.461l5.71-2.973s-9.17-18.724-9.672-20.54c-.508-1.814-3.29-17.341-3.29-17.341l-.002-.008z"/>
            <path fill="#1C4178" d="M193.2 129c-.088.249-.188.508-.298.767-.03.069-.063.148-.101.233l.398-1z"/>
            <path stroke="#051D36" stroke-linecap="round" stroke-linejoin="round" stroke-width=".5" d="M206 166l-6 3M178 169l-6-2M194 123h-11M192.1 123s-.758 2.593 1.9 4M188.97 123s.169 2.339-.295 4.104C188.21 128.868 175 169 175 169M204 167s-9.793-19.452-9.989-20.283C193.816 145.886 192 134 192 134M193 129l-6 14"/>
            <path fill="#F7A79A" d="M190.434 103.067c.117-.089.296-.252.426-.5.086-.165.123-.315.14-.427-.12-.259-.12-.462-.12-.462s-.06-1.605 0-1.652c0 0-4.12-.325-4 1.33.06.828-.307 1.295-.69 1.556l-.082.051c-.04.127-.104.356-.108.609a4.114 4.114 0 0 0 4.434-.504"/>
            <path fill="#E4866E" d="M186.921 101.541s1.885 1.214 3.954-.307l.025-1.15s-4.34-.61-3.979 1.457"/>
            <path fill="#F7A79A" d="M186.22 95.34s-.848 4.825.79 5.466c1.64.642 4.183-.362 5.51-2.23 1.329-1.87-.423-3.516-1.384-1.2V94l-4.917 1.34z"/>
            <g transform="matrix(-1 0 0 1 193.7 91)">
                <mask id="af" fill="#fff">
                    <use xlink:href="#ae"/>
                </mask>
                <path fill="#0B0D0C" d="M.884 6.848c-.253-1.36 1.063-2.1 1.85-.199V3.235s5.052 3.386 6.052-.14c.063-.226.41-1.32-.098-2.09-.56-.85-2.054-1.165-3.518-.5C4.935.417 3.003-.28 1.524.718-.082 1.803-.604 4.515.884 6.848" mask="url(#af)"/>
            </g>
            <path fill="#231F20" d="M186.23 97.497c.001.276-.1.501-.227.503-.127.001-.231-.221-.233-.497-.002-.276.1-.501.227-.503.126-.001.23.221.233.497M189.23 97.497c.001.276-.1.501-.227.503-.127.001-.231-.221-.233-.497-.002-.276.1-.501.227-.503.126-.001.23.221.233.497"/>
            <path stroke="#231F20" stroke-linecap="round" stroke-linejoin="round" stroke-width=".25" d="M189 98.77s-.218.445-1 .46M186.925 98s-.164.863-.068.958c.097.095.316 0 .316 0"/>
            <path fill="#231F20" d="M188 96.133h2s-1.211-.6-2 0M186 96.133h1s-.605-.6-1 0"/>
            <path stroke="#D52030" stroke-linecap="round" stroke-linejoin="round" stroke-width=".5" d="M186.315 102.586c-.034.06-.31.555.137.971.378.351 1.016.409 1.25.43 1.364.123 2.441-.64 2.642-.789.58-.431.78-.904.856-1.198"/>
        </g>
        <g>
            <path fill="#D2F5EC" d="M19 77.2h3v-46h-3zM17 124.2h5v-44h-5z"/>
            <g transform="translate(11 .2)">
                <g transform="translate(1.47 146.197)">
                    <mask id="ah" fill="#fff">
                        <use xlink:href="#ag"/>
                    </mask>
                    <path fill="#7BE0C3" d="M3.15.02h8.75c1.716 0 3.108 1.402 3.108 3.13v1.478H.042V3.15C.042 1.422 1.433.02 3.15.02" mask="url(#ah)"/>
                </g>
                <path fill="#D2F5EC" d="M6.25 143.137h5.487a2.882 2.882 0 0 1 2.872 2.892v.188H3.38v-.188a2.882 2.882 0 0 1 2.871-2.892"/>
                <mask id="aj" fill="#fff">
                    <use xlink:href="#ai"/>
                </mask>
                <path fill="#7BE0C3" d="M4.901 143.137h8.188v-17.92H4.9zM13.088 125.216H4.901a3.124 3.124 0 0 1 3.114-3.134h1.96c1.72 0 3.113 1.403 3.113 3.134M11.31 80.888H6.679a1.831 1.831 0 0 1 0-3.663h4.631c1 0 1.819.824 1.819 1.832a1.83 1.83 0 0 1-1.819 1.831M6.68 27.202h4.63c1 0 1.819.823 1.819 1.83a1.83 1.83 0 0 1-1.819 1.833H6.68c-1.001 0-1.82-.824-1.82-1.832a1.83 1.83 0 0 1 1.82-1.831M11.365 2.515a2.378 2.378 0 0 1-2.37 2.387 2.378 2.378 0 0 1-2.37-2.387A2.377 2.377 0 0 1 8.995.13a2.378 2.378 0 0 1 2.37 2.386M6.625 6.29a2.726 2.726 0 0 1 2.37-1.387c.979 0 1.885.53 2.37 1.387h-4.74z" mask="url(#aj)"/>
                <path fill="#F9DF93" d="M8.581 27.202c-2.923 0-3.914-4.038-3.914-4.038C4.061 21.887 1.47 10.62 1.47 10.62l3.804-4.33h7.609l3.638 4.33s-3.032 10.824-3.529 12.377c-.496 1.554-1.548 4.205-4.41 4.205" mask="url(#aj)"/>
                <path fill="#7BE0C3" d="M17.43 11.184H.56A.562.562 0 0 1 0 10.62c0-.312.25-.564.56-.564h16.87c.308 0 .56.252.56.564a.562.562 0 0 1-.56.564M14.232 24.06H3.757a.562.562 0 0 1-.56-.563c0-.312.251-.564.56-.564h10.475c.309 0 .56.252.56.564a.562.562 0 0 1-.56.564" mask="url(#aj)"/>
                <path fill="#7BE0C3" d="M7.197 24.06a.56.56 0 0 1-.556-.5L5.212 10.683a.59.59 0 0 1 .04-.278L7.01 6.077a.558.558 0 0 1 .73-.31.566.566 0 0 1 .307.736L6.342 10.7l1.413 12.734a.564.564 0 0 1-.558.627M10.066 24.06a.564.564 0 0 1-.554-.658l2.13-12.73-1.499-4.192a.566.566 0 0 1 .339-.722c.286-.1.611.048.717.341l1.548 4.33c.033.09.04.188.025.284L10.617 23.59a.562.562 0 0 1-.551.47" mask="url(#aj)"/>
                <path fill="#7BE0C3" d="M8.995 27.766a.562.562 0 0 1-.56-.564v-3.705c0-.313.25-.564.56-.564.309 0 .56.251.56.564v3.705a.562.562 0 0 1-.56.564" mask="url(#aj)"/>
            </g>
        </g>
        <g>
            <g transform="translate(389.3 113.6)">
                <mask id="al" fill="#fff">
                    <use xlink:href="#ak"/>
                </mask>
                <path fill="#376EEE" d="M3.97 38H.08V1.572C.08.708.723.002 1.509.002H2.54c.786 0 1.43.706 1.43 1.57V38z" mask="url(#al)"/>
            </g>
            <g transform="translate(449.3 113.6)">
                <mask id="an" fill="#fff">
                    <use xlink:href="#am"/>
                </mask>
                <path fill="#376EEE" d="M4.858 38H.113V1.572c0-.864.784-1.57 1.743-1.57h1.258c.96 0 1.744.706 1.744 1.57V38z" mask="url(#an)"/>
            </g>
            <path fill="#C3D4FA" d="M457.855 124.6h-73.11c-1.345 0-2.445-1.124-2.445-2.498v-2.004c0-1.373 1.1-2.498 2.445-2.498h73.11c1.344 0 2.445 1.125 2.445 2.498v2.004c0 1.374-1.1 2.498-2.445 2.498M458.994 139.6h-75.388c-.718 0-1.306-.515-1.306-1.144v-.712c0-.63.588-1.144 1.306-1.144h75.388c.718 0 1.306.515 1.306 1.144v.712c0 .63-.588 1.144-1.306 1.144M457.855 131.6h-73.11c-1.345 0-2.445-1.124-2.445-2.498v-2.004c0-1.373 1.1-2.498 2.445-2.498h73.11c1.344 0 2.445 1.125 2.445 2.498v2.004c0 1.374-1.1 2.498-2.445 2.498"/>
            <path fill="#EBF3FE" d="M389.3 120.6a2 2 0 1 1 4 0 2 2 0 0 1-4 0M389.3 127.6a2 2 0 1 1 4.001 0 2 2 0 0 1-4.001 0M450.3 120.6a2 2 0 1 1 4 0 2 2 0 0 1-4 0M450.3 127.6a2 2 0 1 1 4 0 2 2 0 0 1-4 0M393.44 143.6h-4.282c-1.578 0-2.858-1.16-2.858-2.593v-.407h10v.407c0 1.433-1.28 2.593-2.86 2.593M454.44 143.6h-4.282c-1.578 0-2.858-1.16-2.858-2.593v-.407h10v.407c0 1.433-1.28 2.593-2.86 2.593"/>
            <path fill="#8CB8EF" d="M430.1 119.35h-1.6c-.11 0-.2-.112-.2-.25s.09-.25.2-.25h1.6c.11 0 .2.112.2.25s-.09.25-.2.25M439.04 119.35h-6.48a.256.256 0 0 1-.26-.25c0-.138.117-.25.26-.25h6.48c.143 0 .26.112.26.25s-.117.25-.26.25"/>
            <g transform="translate(382.3 127.6)">
                <mask id="ap" fill="#fff">
                    <use xlink:href="#ao"/>
                </mask>
                <path fill="#8CB8EF" d="M3.63.713H.25C.112.713 0 .61 0 .481S.112.249.25.249h3.38c.138 0 .25.104.25.232s-.112.232-.25.232" mask="url(#ap)"/>
            </g>
            <path fill="#8CB8EF" d="M387.034 129.35h-4.468c-.147 0-.266-.112-.266-.25s.12-.25.266-.25h4.468c.147 0 .266.112.266.25s-.12.25-.266.25M412.044 129.35h-10.488a.253.253 0 0 1-.256-.25c0-.138.115-.25.256-.25h10.488c.141 0 .256.112.256.25s-.115.25-.256.25M414.04 127.35h-6.48a.255.255 0 0 1-.26-.25c0-.138.116-.25.26-.25h6.48c.144 0 .26.112.26.25s-.116.25-.26.25M434.042 121.35h-10.484a.254.254 0 0 1-.258-.25c0-.138.115-.25.258-.25h10.484c.143 0 .258.112.258.25s-.115.25-.258.25M436.034 127.35h-6.468c-.147 0-.266-.112-.266-.25s.119-.25.266-.25h6.468c.147 0 .266.112.266.25s-.119.25-.266.25"/>
            <g transform="translate(457.3 122.6)">
                <mask id="ar" fill="#fff">
                    <use xlink:href="#aq"/>
                </mask>
                <path fill="#8CB8EF" d="M3.723.722H.348C.207.722.092.63.092.518c0-.112.115-.203.256-.203h3.375c.141 0 .256.091.256.203 0 .113-.115.204-.256.204" mask="url(#ar)"/>
            </g>
            <g transform="translate(458.3 126.6)">
                <mask id="at" fill="#fff">
                    <use xlink:href="#as"/>
                </mask>
                <path fill="#8CB8EF" d="M1.761.757H.271A.23.23 0 0 1 .043.525.23.23 0 0 1 .27.293h1.491a.23.23 0 0 1 .226.232.23.23 0 0 1-.226.232" mask="url(#at)"/>
            </g>
            <path fill="#8CB8EF" d="M458.053 124.35h-73.506a.25.25 0 0 1-.247-.25.25.25 0 0 1 .247-.25h73.506c.137 0 .247.112.247.25s-.11.25-.247.25"/>
        </g>
        <g>
            <path fill="#92F1D3" d="M18 77.2h3v-46h-3zM17 124.2h5v-44h-5z"/>
            <g transform="translate(11 .2)">
                <g transform="translate(.8 146.197)">
                    <mask id="av" fill="#fff">
                        <use xlink:href="#au"/>
                    </mask>
                    <path fill="#2EE3AA" d="M3.15.02h8.75c1.716 0 3.108 1.402 3.108 3.13v1.478H.042V3.15C.042 1.422 1.433.02 3.15.02" mask="url(#av)"/>
                </g>
                <path fill="#92F1D3" d="M5.672 143.137h5.487a2.882 2.882 0 0 1 2.872 2.892v.188H2.8v-.188a2.882 2.882 0 0 1 2.872-2.892"/>
                <path fill="#2EE3AA" d="M4.323 143.137h8.187v-17.92H4.323zM12.51 125.216H4.322a3.124 3.124 0 0 1 3.114-3.134h1.961c1.719 0 3.113 1.403 3.113 3.134"/>
                <mask id="ax" fill="#fff">
                    <use xlink:href="#aw"/>
                </mask>
                <path fill="#2EE3AA" d="M10.85 80.888H6.22a1.831 1.831 0 0 1 0-3.663h4.63c1.001 0 1.82.824 1.82 1.832a1.83 1.83 0 0 1-1.82 1.831M6.32 27.202h4.63c1 0 1.82.823 1.82 1.83a1.83 1.83 0 0 1-1.82 1.833H6.32c-1 0-1.82-.824-1.82-1.832a1.83 1.83 0 0 1 1.82-1.831" mask="url(#ax)"/>
                <g mask="url(#ax)">
                    <path fill="#2EE3AA" d="M10.865 2.515a2.378 2.378 0 0 1-2.37 2.387 2.378 2.378 0 0 1-2.37-2.387A2.377 2.377 0 0 1 8.495.13a2.378 2.378 0 0 1 2.37 2.386M6.125 6.29a2.726 2.726 0 0 1 2.37-1.387c.979 0 1.886.53 2.37 1.387h-4.74z"/>
                    <path fill="#FFE380" d="M8.081 27.202c-2.923 0-3.914-4.038-3.914-4.038C3.561 21.887.97 10.62.97 10.62l3.804-4.33h7.608l3.638 4.33s-3.032 10.824-3.528 12.377c-.497 1.554-1.549 4.205-4.41 4.205"/>
                    <path fill="#2EE3AA" d="M16.93 11.184H.06a.562.562 0 0 1-.56-.564c0-.312.251-.564.56-.564h16.87c.309 0 .56.252.56.564a.562.562 0 0 1-.56.564M13.732 24.06H3.258a.562.562 0 0 1-.56-.563c0-.312.25-.564.56-.564h10.474c.31 0 .56.252.56.564a.562.562 0 0 1-.56.564"/>
                    <path fill="#2EE3AA" d="M6.697 24.06a.56.56 0 0 1-.556-.5L4.713 10.683a.59.59 0 0 1 .039-.278L6.51 6.077a.558.558 0 0 1 .73-.31.566.566 0 0 1 .308.736L5.842 10.7l1.413 12.734a.564.564 0 0 1-.558.627M9.566 24.06a.564.564 0 0 1-.554-.658l2.13-12.73L9.645 6.48a.566.566 0 0 1 .338-.722c.287-.1.612.048.717.341l1.549 4.33c.032.09.04.188.024.284L10.118 23.59a.562.562 0 0 1-.552.47"/>
                    <path fill="#2EE3AA" d="M8.495 27.766a.562.562 0 0 1-.56-.564v-3.705c0-.313.25-.564.56-.564.31 0 .56.251.56.564v3.705a.562.562 0 0 1-.56.564"/>
                </g>
            </g>
        </g>
        <g>
            <path fill="#DE7712" d="M114.202 63.998s7.893.365 5.26-7.997c0 0-6.696-.267-5.26 7.997"/>
            <path fill="#1C4178" d="M113.155 66a.153.153 0 0 1-.106-.043.158.158 0 0 1-.007-.222c3.068-3.307 5.637-8.594 5.663-8.647a.156.156 0 0 1 .208-.072.158.158 0 0 1 .071.21c-.026.053-2.614 5.382-5.715 8.724a.155.155 0 0 1-.114.05"/>
            <path fill="#1C4178" d="M116.833 61a.147.147 0 0 1-.139-.087l-.686-1.741c-.026-.068.014-.141.09-.165.078-.023.161.013.188.08l.642 1.631 1.892-.385c.079-.016.158.027.176.097.018.07-.03.139-.11.155l-2.02.412a.159.159 0 0 1-.033.003"/>
            <path fill="#DE7712" d="M113.245 159.084s.599 7.879 8.578 4.247c0 0-.551-6.68-8.578-4.247"/>
            <path fill="#1C4178" d="M111.13 158.29a.153.153 0 0 1 .03-.111.158.158 0 0 1 .218-.034c3.658 2.642 9.218 4.548 9.274 4.567a.156.156 0 0 1 .097.197.158.158 0 0 1-.2.097c-.056-.02-5.66-1.94-9.356-4.61a.155.155 0 0 1-.063-.106"/>
            <path fill="#1C4178" d="M116.54 161.33a.147.147 0 0 1 .07-.148l1.645-.893c.063-.035.141-.003.174.07.033.074.007.16-.056.195l-1.541.837.613 1.83c.025.077-.008.16-.075.187-.066.027-.141-.014-.167-.09l-.655-1.955a.159.159 0 0 1-.007-.033"/>
            <path fill="#FDD560" d="M135.176 67.463s-4.493 6.5 3.993 8.699c0 0 3.776-5.538-3.993-8.7"/>
            <path fill="#1C4178" d="M134.032 65.514a.153.153 0 0 1 .093-.067.158.158 0 0 1 .192.111c1.179 4.355 4.3 9.335 4.332 9.385a.156.156 0 0 1-.049.215.158.158 0 0 1-.216-.051c-.031-.05-3.178-5.07-4.37-9.47a.155.155 0 0 1 .018-.123"/>
            <path fill="#1C4178" d="M136.324 71.282a.147.147 0 0 1 .147-.071l1.84.34c.071.014.112.087.092.165-.021.078-.096.129-.167.116l-1.724-.32-.676 1.809c-.028.075-.106.12-.175.098-.069-.021-.102-.1-.073-.176l.721-1.93a.159.159 0 0 1 .015-.03"/>
            <path fill="#FDD560" d="M110.883 31.485s-7.688 1.824-2.853 9.137c0 0 6.511-1.59 2.853-9.137"/>
            <path fill="#1C4178" d="M111.337 29.272a.153.153 0 0 1 .114.012c.076.04.107.134.068.21-2.038 4.026-3.05 9.816-3.06 9.874a.156.156 0 0 1-.18.127.158.158 0 0 1-.127-.182c.01-.059 1.03-5.894 3.09-9.962a.155.155 0 0 1 .095-.08"/>
            <path fill="#1C4178" d="M109.18 35.092a.147.147 0 0 1 .157.045l1.14 1.485c.044.057.025.14-.042.183-.068.044-.157.032-.202-.025l-1.067-1.391-1.712.892c-.072.037-.16.017-.196-.045-.037-.061-.009-.142.063-.18l1.828-.952c.01-.005.02-.01.031-.012"/>
            <path fill="#DB2441" d="M120.061 82.26s-2.091-7.62-9.23-2.533c0 0 1.815 6.452 9.23 2.532"/>
            <path fill="#1C4178" d="M122.289 82.636a.153.153 0 0 1-.008.114.158.158 0 0 1-.209.075c-4.094-1.896-9.916-2.705-9.974-2.713a.156.156 0 0 1-.133-.175.158.158 0 0 1 .178-.133c.059.008 5.926.823 10.064 2.74.04.018.07.053.082.092"/>
            <path fill="#1C4178" d="M116.397 80.684a.147.147 0 0 1-.04.158l-1.444 1.19c-.056.047-.138.031-.184-.035-.046-.066-.038-.156.018-.202l1.353-1.115-.951-1.68c-.04-.07-.023-.159.037-.198.06-.039.142-.013.182.057l1.016 1.794c.005.01.01.02.013.03"/>
            <path fill="#DE7712" d="M84.202 123.998s7.893.365 5.26-7.997c0 0-6.696-.267-5.26 7.997"/>
            <path fill="#1C4178" d="M83.155 126a.153.153 0 0 1-.106-.043.158.158 0 0 1-.007-.222c3.068-3.307 5.637-8.594 5.663-8.647a.156.156 0 0 1 .208-.072.158.158 0 0 1 .071.21c-.026.053-2.614 5.382-5.715 8.724a.155.155 0 0 1-.114.05"/>
            <path fill="#1C4178" d="M86.833 121a.147.147 0 0 1-.139-.087l-.686-1.741c-.026-.068.014-.141.09-.165.078-.023.161.013.188.08l.642 1.631 1.892-.385c.079-.016.158.027.176.097.018.07-.03.139-.11.155l-2.02.412a.159.159 0 0 1-.033.003"/>
            <g>
                <path fill="#FDD560" d="M105.176 127.463s-4.493 6.5 3.993 8.699c0 0 3.776-5.538-3.993-8.7"/>
                <path fill="#1C4178" d="M104.032 125.514a.153.153 0 0 1 .093-.067.158.158 0 0 1 .192.111c1.179 4.355 4.3 9.335 4.332 9.385a.156.156 0 0 1-.049.215.158.158 0 0 1-.216-.051c-.031-.05-3.178-5.07-4.37-9.47a.155.155 0 0 1 .018-.123"/>
                <path fill="#1C4178" d="M106.324 131.282a.147.147 0 0 1 .147-.071l1.84.34c.071.014.112.087.092.165-.021.078-.096.129-.167.116l-1.724-.32-.676 1.809c-.028.075-.106.12-.175.098-.069-.021-.102-.1-.073-.176l.721-1.93a.159.159 0 0 1 .015-.03"/>
            </g>
            <g>
                <path fill="#DB2441" d="M90.061 142.26s-2.091-7.62-9.23-2.533c0 0 1.815 6.452 9.23 2.532"/>
                <path fill="#1C4178" d="M92.289 142.636a.153.153 0 0 1-.008.114.158.158 0 0 1-.209.075c-4.094-1.896-9.916-2.705-9.974-2.713a.156.156 0 0 1-.133-.175.158.158 0 0 1 .178-.133c.059.008 5.926.823 10.064 2.74.04.018.07.053.082.092"/>
                <path fill="#1C4178" d="M86.397 140.684a.147.147 0 0 1-.04.158l-1.444 1.19c-.056.047-.138.031-.184-.035-.046-.066-.038-.156.018-.202l1.353-1.115-.951-1.68c-.04-.07-.023-.159.037-.198.06-.039.142-.013.182.057l1.016 1.794c.005.01.01.02.013.03"/>
            </g>
            <g>
                <path fill="#DB2441" d="M108.214 173.687s-3.257-7.199-9.513-1.057c0 0 2.802 6.088 9.513 1.057"/>
                <path fill="#1C4178" d="M110.473 173.71a.153.153 0 0 1 .01.114.158.158 0 0 1-.194.107c-4.34-1.232-10.217-1.12-10.276-1.12a.156.156 0 0 1-.159-.152.158.158 0 0 1 .155-.159c.06-.001 5.983-.114 10.369 1.132a.155.155 0 0 1 .095.078"/>
                <path fill="#1C4178" d="M104.349 172.704a.147.147 0 0 1-.014.163l-1.24 1.401c-.049.054-.133.052-.188-.006-.056-.058-.062-.148-.014-.203l1.162-1.313-1.203-1.51c-.05-.063-.047-.153.007-.201.053-.048.138-.036.188.027l1.284 1.614a.159.159 0 0 1 .018.028"/>
            </g>
            <g>
                <path fill="#DE7712" d="M202.202 84.998s7.893.365 5.26-7.997c0 0-6.696-.267-5.26 7.997"/>
                <path fill="#1C4178" d="M201.155 87a.153.153 0 0 1-.106-.043.158.158 0 0 1-.007-.222c3.068-3.307 5.637-8.594 5.663-8.647a.156.156 0 0 1 .208-.072.158.158 0 0 1 .071.21c-.026.053-2.614 5.382-5.715 8.724a.155.155 0 0 1-.114.05"/>
                <path fill="#1C4178" d="M204.833 82a.147.147 0 0 1-.139-.087l-.686-1.741c-.026-.068.014-.141.09-.165.078-.023.161.013.188.08l.642 1.631 1.892-.385c.079-.016.158.027.176.097.018.07-.03.139-.11.155l-2.02.412a.159.159 0 0 1-.033.003"/>
            </g>
            <g>
                <path fill="#FDD560" d="M254.77 130.08s-4.492 6.5 3.994 8.7c0 0 3.776-5.538-3.993-8.7"/>
                <path fill="#1C4178" d="M253.627 128.132a.153.153 0 0 1 .093-.068.158.158 0 0 1 .192.112c1.179 4.355 4.3 9.335 4.332 9.385a.156.156 0 0 1-.049.214.158.158 0 0 1-.216-.05c-.031-.05-3.178-5.07-4.37-9.47a.155.155 0 0 1 .018-.123"/>
                <path fill="#1C4178" d="M255.919 133.9a.147.147 0 0 1 .147-.072l1.84.341c.071.014.112.087.092.165-.021.077-.096.129-.167.116l-1.724-.32-.676 1.809c-.028.075-.107.119-.175.098-.069-.021-.102-.1-.074-.176l.722-1.931a.159.159 0 0 1 .015-.03"/>
            </g>
            <g>
                <path fill="#DB2441" d="M227.398 134.133s-2.092-7.62-9.231-2.532c0 0 1.816 6.451 9.23 2.532"/>
                <path fill="#1C4178" d="M229.626 134.51a.153.153 0 0 1-.008.114.158.158 0 0 1-.209.075c-4.094-1.896-9.916-2.706-9.974-2.714a.156.156 0 0 1-.133-.175.158.158 0 0 1 .178-.133c.058.008 5.926.824 10.063 2.74.041.02.07.053.083.093"/>
                <path fill="#1C4178" d="M223.734 132.557a.147.147 0 0 1-.04.16l-1.444 1.19c-.056.046-.138.03-.184-.036-.047-.066-.038-.156.018-.202l1.353-1.116-.952-1.68c-.04-.07-.022-.158.038-.197.06-.039.142-.013.182.057l1.016 1.794c.005.01.01.02.013.03"/>
            </g>
            <g>
                <path fill="#FDD560" d="M236.176 157.463s-4.493 6.5 3.993 8.699c0 0 3.776-5.538-3.993-8.7"/>
                <path fill="#1C4178" d="M235.032 155.514a.153.153 0 0 1 .093-.067.158.158 0 0 1 .192.111c1.179 4.355 4.3 9.335 4.332 9.385a.156.156 0 0 1-.049.215.158.158 0 0 1-.216-.051c-.031-.05-3.178-5.07-4.37-9.47a.155.155 0 0 1 .018-.123"/>
                <path fill="#1C4178" d="M237.324 161.282a.147.147 0 0 1 .147-.071l1.84.34c.071.014.112.087.092.165-.021.078-.096.129-.167.116l-1.724-.32-.676 1.809c-.028.075-.106.12-.175.098-.069-.021-.102-.1-.073-.176l.721-1.93a.159.159 0 0 1 .015-.03"/>
            </g>
            <g>
                <path fill="#DB2441" d="M221.061 172.26s-2.091-7.62-9.23-2.533c0 0 1.815 6.452 9.23 2.532"/>
                <path fill="#1C4178" d="M223.289 172.636a.153.153 0 0 1-.008.114.158.158 0 0 1-.209.075c-4.094-1.896-9.916-2.705-9.974-2.713a.156.156 0 0 1-.133-.175.158.158 0 0 1 .178-.133c.059.008 5.926.823 10.064 2.74.04.018.07.053.082.092"/>
                <path fill="#1C4178" d="M217.397 170.684a.147.147 0 0 1-.04.158l-1.444 1.19c-.056.047-.138.031-.184-.035-.046-.066-.038-.156.018-.202l1.353-1.115-.951-1.68c-.04-.07-.023-.159.037-.198.06-.039.142-.013.182.057l1.016 1.794c.005.01.01.02.013.03"/>
            </g>
            <g>
                <path fill="#DE7712" d="M234.202 53.998s7.893.365 5.26-7.997c0 0-6.696-.267-5.26 7.997"/>
                <path fill="#1C4178" d="M233.155 56a.153.153 0 0 1-.106-.043.158.158 0 0 1-.007-.222c3.068-3.307 5.637-8.594 5.663-8.647a.156.156 0 0 1 .208-.072.158.158 0 0 1 .071.21c-.026.053-2.614 5.382-5.715 8.724a.155.155 0 0 1-.114.05"/>
                <path fill="#1C4178" d="M236.833 51a.147.147 0 0 1-.139-.087l-.686-1.741c-.026-.068.014-.141.09-.165.078-.023.161.013.188.08l.642 1.631 1.892-.385c.079-.016.158.027.176.097.018.07-.03.139-.11.155l-2.02.412a.159.159 0 0 1-.033.003"/>
            </g>
            <g>
                <path fill="#FDD560" d="M255.176 57.463s-4.493 6.5 3.993 8.699c0 0 3.776-5.538-3.993-8.7"/>
                <path fill="#1C4178" d="M254.032 55.514a.153.153 0 0 1 .093-.067.158.158 0 0 1 .192.111c1.179 4.355 4.3 9.335 4.332 9.385a.156.156 0 0 1-.049.215.158.158 0 0 1-.216-.051c-.031-.05-3.178-5.07-4.37-9.47a.155.155 0 0 1 .018-.123"/>
                <path fill="#1C4178" d="M256.324 61.282a.147.147 0 0 1 .147-.071l1.84.34c.071.014.112.087.092.165-.021.078-.096.129-.167.116l-1.724-.32-.676 1.809c-.028.075-.106.12-.175.098-.069-.021-.102-.1-.073-.176l.721-1.93a.159.159 0 0 1 .015-.03"/>
            </g>
            <g>
                <path fill="#DB2441" d="M240.061 72.26s-2.091-7.62-9.23-2.533c0 0 1.815 6.452 9.23 2.532"/>
                <path fill="#1C4178" d="M242.289 72.636a.153.153 0 0 1-.008.114.158.158 0 0 1-.209.075c-4.094-1.896-9.916-2.705-9.974-2.713a.156.156 0 0 1-.133-.175.158.158 0 0 1 .178-.133c.059.008 5.926.823 10.064 2.74.04.018.07.053.082.092"/>
                <path fill="#1C4178" d="M236.397 70.684a.147.147 0 0 1-.04.158l-1.444 1.19c-.056.047-.138.031-.184-.035-.046-.066-.038-.156.018-.202l1.353-1.115-.951-1.68c-.04-.07-.023-.159.037-.198.06-.039.142-.013.182.057l1.016 1.794c.005.01.01.02.013.03"/>
            </g>
        </g>
    </g>
</svg>
