<svg xmlns="http://www.w3.org/2000/svg" xmlns:xlink="http://www.w3.org/1999/xlink" width="56" height="56" viewBox="0 0 56 56">
    <defs>
        <circle id="a" cx="28" cy="28" r="28"/>
        <linearGradient id="b" x1="100%" x2="50%" y1="100%" y2="0%">
            <stop offset="0%" stop-color="#2EE3AA"/>
            <stop offset="100%" stop-color="#2EE3AA"/>
        </linearGradient>
        <linearGradient id="e" x1="86.735%" x2="13.265%" y1="0%" y2="100%">
            <stop offset="0%" stop-color="#8BDCFB"/>
            <stop offset="100%" stop-color="#2FB7EC"/>
        </linearGradient>
        <path id="d" d="M1.106 5.447l10-5a2 2 0 0 1 1.788 0l10 5A2 2 0 0 1 24 7.237v13.527a2 2 0 0 1-1.106 1.789l-10 5a2 2 0 0 1-1.788 0l-10-5A2 2 0 0 1 0 20.763V7.237a2 2 0 0 1 1.106-1.789z"/>
        <linearGradient id="f" x1="100%" x2="0%" y1="92.014%" y2="7.986%">
            <stop offset="0%" stop-color="#5685F1" stop-opacity=".4"/>
            <stop offset="100%" stop-color="#2FB7EC"/>
        </linearGradient>
        <linearGradient id="i" x1="86.735%" x2="13.265%" y1="21.613%" y2="80.943%">
            <stop offset="0%" stop-color="#2FB7EC"/>
            <stop offset="100%" stop-color="#8BDCFB"/>
        </linearGradient>
        <linearGradient id="h" x1="2.814%" x2="99.709%" y1="159.002%" y2="13.466%">
            <stop offset="0%" stop-color="#8BDCFB"/>
            <stop offset="100%" stop-color="#CEF2FD"/>
        </linearGradient>
    </defs>
    <g fill="none" fill-rule="evenodd">
        <mask id="c" fill="#fff">
            <use xlink:href="#a"/>
        </mask>
        <use fill="#FFF" xlink:href="#a"/>
        <use fill="#92F1D3" fill-opacity=".4" xlink:href="#a"/>
        <path fill="url(#b)" d="M28 12l16 32H12z" mask="url(#c)" transform="matrix(1 0 0 -1 0 56)"/>
        <path fill="#1ACC94" d="M23 15h10v11H23z" mask="url(#c)"/>
        <path fill="#FFF" d="M26 15h4v11h-4z" mask="url(#c)"/>
        <g mask="url(#c)">
            <g transform="translate(16 20)">
                <g>
                    <mask id="g" fill="#fff">
                        <use xlink:href="#d"/>
                    </mask>
                    <use fill="url(#e)" xlink:href="#d"/>
                    <path fill="url(#f)" fill-rule="nonzero" d="M0 6l24 16-12 6-12-6v-8z" mask="url(#g)"/>
                </g>
                <path fill="url(#i)" fill-rule="nonzero" stroke="url(#h)" stroke-width="2" d="M5 9.382l7-3.5 7 3.5v9.236l-7 3.5-7-3.5V9.382z"/>
                <path fill="#FFF" fill-opacity=".2" fill-rule="nonzero" d="M6 10l6-3 6 3v8z"/>
                <rect width="4" height="2" x="12.236" y="9.776" fill="#FFF" rx="1" transform="rotate(26 14.236 10.776)"/>
            </g>
        </g>
        <path fill="#92F1D3" d="M12 12h32v3H12z" mask="url(#c)"/>
    </g>
</svg>
