<svg xmlns="http://www.w3.org/2000/svg" width="295" height="191" viewBox="0 0 295 191">
    <g fill="none" fill-rule="evenodd">
        <path stroke="#DB2441" d="M38 23h191v112H38z"/>
        <path fill="#B01B33" d="M54 1h200v120H54z"/>
        <path stroke="#FFF" d="M134.5 12.5h104v11h-104z"/>
        <path stroke="#FFF" d="M134.5 12.5h104v11h-104z"/>
        <path fill="#ECECEC" d="M268.911 101.898a5.78 5.78 0 0 1 5.781-5.78h4.496a5.782 5.782 0 0 1 5.782 5.78h-16.059z"/>
        <path stroke="#BCBCBC" stroke-linecap="round" stroke-linejoin="round" stroke-width=".75" d="M273.62 96.22v5.678"/>
        <path fill="#F9D3AE" d="M252.2 56.138a887.755 887.755 0 0 0-5.647-2.263c-.936-.371-2.207-.865-2.495-.48-.138.187-.006.527.14.8l-.805-.308c-.875-.513-1.593-.681-1.78-.446-.216.272.312 1.032.392 1.145a.329.329 0 0 0-.164.097c-.212.238-.039.824.411 1.468-.228.43-.236.753-.199.97.06.336.215.356.273.738.064.42-.095.593.04.909a.99.99 0 0 0 .327.396c.436.34 3.413 2.129 7.52 4.52l1.986-7.546z"/>
        <path fill="#FFF0BB" d="M268.455 41.164s-7.489 10.558-7.687 37.379h26.38V56.547s1.151-11.15-9.086-15.568l-9.607.185z"/>
        <path fill="#FFF0BB" d="M275.105 45.878a4.388 4.388 0 0 1 4.388 4.387v19.1c0 4.957-5.278 8.13-9.656 5.805l-21.749-11.551 4.224-7.96 16.54 7.96"/>
        <path fill="#A35949" d="M251.167 185.257h.049c.727 1.338 1.868 3.024 3.322 3.041.76.016 1.32-.447 1.536-.612 1.223-.926 3.719-2.082 9.419-2.925l.017-.017.843-3.85h-.86v-2.693l-6.048.05a7.814 7.814 0 0 1-.991 2.131c-.86 1.306-1.867 1.983-2.941 2.71a18.097 18.097 0 0 1-4.297 2.132c-.032.016-.05.016-.05.033M291.263 180.89c.045-1.054.21-1.967.399-2.703l-6.06.06a8.09 8.09 0 0 1-.994 2.13c-.854 1.291-1.856 1.981-2.938 2.71a18.1 18.1 0 0 1-4.292 2.12c-.035.014-.052.024-.051.03.002.005.02.006.056.003.709 1.32 1.852 2.987 3.312 3.014.756.014 1.319-.418 1.545-.582 1.23-.895 3.743-2.015 9.41-2.924l.02-.018-.407-3.84z"/>
        <path fill="#502800" d="M292.108 184l.617 5.83-22.14-.012c-.383-.041-.514-.158-.56-.262-.273-.61 1.796-1.995 4.301-3.672 1.865-1.249 2.74-1.689 3.494-1.374.237.099.256.186.985.945 1.172 1.218 1.77 1.83 2.302 1.955.72.169 1.111-.372 2.44-1.052 3.494-1.79 6.78-2.151 8.11-2.297.184-.02.337-.035.43-.043M265.51 184.742l-1.302 5.818h-20.22c-.384-.041-.515-.158-.561-.262-.273-.61 1.796-1.995 4.3-3.672 1.867-1.25 2.74-1.69 3.496-1.374.237.099.255.186.984.945 1.172 1.218 1.77 1.83 2.303 1.955.718.169 1.11-.372 2.438-1.052 3.495-1.79 6.782-2.151 8.11-2.297.186-.02.338-.035.432-.043l.02-.018z"/>
        <path fill="#F9D3AE" d="M273.611 40.782c.331-1.441 10.735-22.22-10.938-16.304 0 0-.126 8.977 0 9.788.128.81.31 2.222 2.59 2.973.188.022.474.04.817.004.762-.083 1.106-.37 1.552-.49.877-.233 1.84.262 2.316.666.971.82 1.268 2.39.69 3.873l2.973-.51z"/>
        <path fill="#231F20" d="M268.262 41.357l2.888-10.038s1.922-.443 1.86-1.864c-.06-1.422-1.5-2.69-2.581-.442 0 0-3.543.462-6.726-3.228l-.901-1.038s-.78-1.268 1.44-3.344c2.223-2.075 7.569-3.862 11.712-.634 2.325 1.811 4.27 4.674 5.363 7.582l5.639 12.332-18.694.674z"/>
        <path fill="#231F20" d="M265.675 29.293c.004.275-.25.502-.569.502-.317.002-.578-.22-.582-.497-.004-.277.25-.501.567-.503.32-.001.58.222.584.498"/>
        <path stroke="#231F20" stroke-linecap="round" stroke-linejoin="round" stroke-width=".4" d="M264.363 32.82s-.29.808-1.33.833M262.589 30.074s-.294 1.346-.121 1.495c.173.148.564 0 .564 0M266.99 28.038s-1.403-1.348-2.627-.46"/>
        <path fill="#DB2441" d="M287.148 78.544s2.086 4.663 1.617 12.67c-.227 3.888-.09 7.787.174 11.67l5.288 78.003h-24.595l-5.964-102.343h23.48z"/>
        <path fill="#AA122A" d="M260.768 78.543l-6.52 102.344h15.385l-5.965-102.344z"/>
        <path stroke="#E4AB0F" stroke-linecap="round" stroke-linejoin="round" stroke-width=".75" d="M279.493 63.51v5.748c0 4.956-5.277 8.129-9.655 5.804l-9.093-4.83M275.105 45.77a4.212 4.212 0 0 0-4.167 3.598l-.715 4.844-1.37 9.299-6.973-3.354"/>
        <g fill="#FFF">
            <path d="M86.675 14.404c-.575 0-1.11.473-1.19 1.05l-.583 4.299c-.065.468-.287.874-.667 1.219-.38.344-.808.516-1.283.516-.462 0-.836-.168-1.122-.506-.287-.338-.397-.747-.331-1.23l.352-2.608a.889.889 0 0 0-.91-.928h-1.397c-.534 0-1.033.407-1.165.928l-.364 2.609a1.958 1.958 0 0 1-.668 1.229c-.379.338-.8.506-1.26.506-.463 0-.84-.172-1.132-.516-.292-.345-.406-.75-.342-1.22l.783-5.704c.082-.555-.243-1.135-.741-1.37 0 0-5.895-2.48-6.279-2.64-.388-.16-.829.2-.98.8l-.36 1.436c-.151.6.189 1.284.755 1.518l3.95 1.65-.591 4.31c-.199 1.446.137 2.683 1.008 3.709.871 1.026 2.02 1.539 3.446 1.539 1.317 0 2.52-.447 3.607-1.343.868.896 1.955 1.343 3.259 1.343 1.426 0 2.715-.513 3.868-1.54 1.153-1.025 1.828-2.262 2.027-3.707l.63-4.629c.054-.396-.371-.72-.946-.72h-1.374z"/>
        </g>
        <path stroke="#920017" stroke-linecap="square" d="M23.5 1.205v92.59"/>
        <path fill="#FFF" d="M67 40h172v111H67z"/>
        <g>
            <g fill="#EEF2F5">
                <path d="M71 52h20v15H71zM95 52h20v15H95zM95 92h20v15H95zM119 92h20v15h-20zM143 92h20v15h-20zM167 92h20v15h-20zM191 132h20v15h-20zM215 132h20v15h-20z"/>
            </g>
            <path fill="#DB2441" d="M119 52h20v15h-20zM143 52h20v15h-20zM167 52h20v15h-20zM191 52h20v15h-20zM215 52h20v15h-20zM71 72h20v15H71zM95 72h20v15H95zM119 72h20v15h-20zM143 72h20v15h-20zM167 72h20v15h-20zM191 72h20v15h-20zM215 72h20v15h-20zM71 92h20v15H71z"/>
            <path fill="#FFF" fill-rule="nonzero" d="M130.45 63v-6.67h-1.24l-2.1 2.11.81.85 1.11-1.13V63zM155.49 63v-1.25h-2.78c1.79-1.26 2.73-2.25 2.73-3.39 0-1.33-1.13-2.13-2.55-2.13-.93 0-1.92.34-2.57 1.09l.81.94c.45-.47 1.03-.77 1.78-.77.56 0 1.09.29 1.09.87 0 .82-.8 1.51-3.53 3.52V63h5.02zM176.83 63.12c1.6 0 2.63-.81 2.63-1.96 0-1-.88-1.53-1.56-1.6.74-.13 1.46-.68 1.46-1.52 0-1.11-.96-1.81-2.52-1.81-1.17 0-2.01.45-2.55 1.06l.7.88c.47-.45 1.06-.7 1.7-.7.7 0 1.24.27 1.24.8 0 .5-.49.74-1.23.74h-.34c-.207-.001-.415-.004-.49-.01v1.24c.1-.01.55-.01.83-.01.93 0 1.34.25 1.34.79 0 .51-.45.86-1.26.86-.65 0-1.38-.28-1.84-.76l-.74.93c.49.6 1.4 1.07 2.63 1.07zM202.86 63v-1.38h.86v-1.25h-.86v-4.04h-1.96l-2.65 4.17v1.12h3.19V63h1.42zm-1.42-2.63h-1.8l1.8-2.78v2.78zM225.06 63.12c1.61 0 2.67-.89 2.67-2.3 0-1.35-1.01-2.16-2.14-2.16-.61 0-1.15.25-1.5.56v-1.67h3.19v-1.22h-4.58v3.81l.99.27c.4-.38.85-.55 1.4-.55.76 0 1.2.41 1.2 1.02 0 .55-.45 1-1.24 1-.7 0-1.32-.25-1.78-.72l-.78.96c.57.62 1.41 1 2.57 1zM105.77 83l2.48-5.68v-.99h-5.01v1.25h3.36L104.21 83zM129.03 83.12c1.4 0 2.68-.61 2.68-1.85 0-.81-.64-1.43-1.44-1.71.74-.26 1.33-.74 1.33-1.57 0-1.25-1.34-1.76-2.57-1.76-1.24 0-2.57.51-2.57 1.76 0 .83.58 1.31 1.32 1.57-.8.28-1.43.9-1.43 1.71 0 1.25 1.28 1.85 2.68 1.85zm0-4.1c-.41-.06-1.13-.29-1.13-.81 0-.47.47-.76 1.13-.76.65 0 1.12.29 1.12.76 0 .52-.71.75-1.12.81zm0 2.88c-.7 0-1.24-.31-1.24-.8 0-.58.82-.86 1.24-.91.41.05 1.24.33 1.24.91 0 .49-.56.8-1.24.8zM81.22 83.12c1.52 0 2.55-.99 2.55-2.29 0-1.42-1.07-2.15-2.27-2.15-.73 0-1.4.4-1.71.85-.01-.04-.01-.09-.01-.14 0-1.06.66-1.93 1.67-1.93.59 0 .97.19 1.33.53l.64-1.07c-.48-.41-1.16-.69-1.97-.69-1.97 0-3.11 1.43-3.11 3.45 0 1.88.85 3.44 2.88 3.44zm-.07-1.24c-.94 0-1.3-.74-1.36-1.38.32-.39.8-.64 1.3-.64.65 0 1.24.31 1.24 1.03 0 .47-.41.99-1.18.99zM152.63 83.11c1.97 0 3.1-1.43 3.1-3.44 0-1.89-.85-3.45-2.87-3.45-1.52 0-2.56.99-2.56 2.29 0 1.42 1.08 2.16 2.28 2.16.73 0 1.4-.41 1.72-.86v.14c0 1.01-.6 1.92-1.67 1.92-.59 0-.97-.18-1.33-.51l-.63 1.06c.47.42 1.15.69 1.96.69zm.35-3.64c-.64 0-1.23-.31-1.23-1.02 0-.47.41-1 1.17-1 .95 0 1.31.76 1.37 1.4-.32.39-.81.62-1.31.62zM175.45 83v-6.67h-1.24l-2.1 2.11.81.85 1.11-1.13V83h1.42zm3.76.12c1.9 0 2.76-1.73 2.76-3.45 0-1.72-.86-3.44-2.76-3.44-1.91 0-2.76 1.72-2.76 3.44s.85 3.45 2.76 3.45zm0-1.26c-.96 0-1.32-.96-1.32-2.19s.36-2.18 1.32-2.18c.95 0 1.31.95 1.31 2.18 0 1.23-.36 2.19-1.31 2.19zM200.45 83v-6.67h-1.24l-2.1 2.11.81.85 1.11-1.13V83h1.42zm4.11 0v-6.67h-1.24l-2.1 2.11.81.85 1.11-1.13V83h1.42zM223.45 83v-6.67h-1.24l-2.1 2.11.81.85 1.11-1.13V83h1.42zm6.15 0v-1.25h-2.78c1.79-1.26 2.73-2.25 2.73-3.39 0-1.33-1.13-2.13-2.55-2.13-.93 0-1.92.34-2.57 1.09l.81.94c.45-.47 1.03-.77 1.78-.77.56 0 1.09.29 1.09.87 0 .82-.8 1.51-3.53 3.52V83h5.02z"/>
        </g>
        <g>
            <path fill="#F0B616" d="M191 92h20v15h-20zM215 92h20v15h-20zM71 112h20v15H71zM71 132h20v15H71zM95 112h20v15H95zM119 112h20v15h-20zM143 112h20v15h-20zM167 112h20v15h-20zM191 112h20v15h-20zM215 112h20v15h-20zM95 132h20v15H95zM119 132h20v15h-20zM143 132h20v15h-20zM167 132h20v15h-20z"/>
            <path fill="#FFF" fill-rule="nonzero" d="M80.49 123v-1.25h-2.78c1.79-1.26 2.73-2.25 2.73-3.39 0-1.33-1.13-2.13-2.55-2.13-.93 0-1.92.34-2.57 1.09l.81.94c.45-.47 1.03-.77 1.78-.77.56 0 1.09.29 1.09.87 0 .82-.8 1.51-3.53 3.52V123h5.02zm3.61.12c1.9 0 2.76-1.73 2.76-3.45 0-1.72-.86-3.44-2.76-3.44-1.91 0-2.76 1.72-2.76 3.44s.85 3.45 2.76 3.45zm0-1.26c-.96 0-1.32-.96-1.32-2.19s.36-2.18 1.32-2.18c.95 0 1.31.95 1.31 2.18 0 1.23-.36 2.19-1.31 2.19zM105.49 123v-1.25h-2.78c1.79-1.26 2.73-2.25 2.73-3.39 0-1.33-1.13-2.13-2.55-2.13-.93 0-1.92.34-2.57 1.09l.81.94c.45-.47 1.03-.77 1.78-.77.56 0 1.09.29 1.09.87 0 .82-.8 1.51-3.53 3.52V123h5.02zm3.96 0v-6.67h-1.24l-2.1 2.11.81.85 1.11-1.13V123h1.42zM128.49 123v-1.25h-2.78c1.79-1.26 2.73-2.25 2.73-3.39 0-1.33-1.13-2.13-2.55-2.13-.93 0-1.92.34-2.57 1.09l.81.94c.45-.47 1.03-.77 1.78-.77.56 0 1.09.29 1.09.87 0 .82-.8 1.51-3.53 3.52V123h5.02zm6 0v-1.25h-2.78c1.79-1.26 2.73-2.25 2.73-3.39 0-1.33-1.13-2.13-2.55-2.13-.93 0-1.92.34-2.57 1.09l.81.94c.45-.47 1.03-.77 1.78-.77.56 0 1.09.29 1.09.87 0 .82-.8 1.51-3.53 3.52V123h5.02zM152.49 123v-1.25h-2.78c1.79-1.26 2.73-2.25 2.73-3.39 0-1.33-1.13-2.13-2.55-2.13-.93 0-1.92.34-2.57 1.09l.81.94c.45-.47 1.03-.77 1.78-.77.56 0 1.09.29 1.09.87 0 .82-.8 1.51-3.53 3.52V123h5.02zm3.34.12c1.6 0 2.63-.81 2.63-1.96 0-1-.88-1.53-1.56-1.6.74-.13 1.46-.68 1.46-1.52 0-1.11-.96-1.81-2.52-1.81-1.17 0-2.01.45-2.55 1.06l.7.88c.47-.45 1.06-.7 1.7-.7.7 0 1.24.27 1.24.8 0 .5-.49.74-1.23.74h-.34c-.207-.001-.415-.004-.49-.01v1.24c.1-.01.55-.01.83-.01.93 0 1.34.25 1.34.79 0 .51-.45.86-1.26.86-.65 0-1.38-.28-1.84-.76l-.74.93c.49.6 1.4 1.07 2.63 1.07zM176.49 123v-1.25h-2.78c1.79-1.26 2.73-2.25 2.73-3.39 0-1.33-1.13-2.13-2.55-2.13-.93 0-1.92.34-2.57 1.09l.81.94c.45-.47 1.03-.77 1.78-.77.56 0 1.09.29 1.09.87 0 .82-.8 1.51-3.53 3.52V123h5.02zm5.37 0v-1.38h.86v-1.25h-.86v-4.04h-1.96l-2.65 4.17v1.12h3.19V123h1.42zm-1.42-2.63h-1.8l1.8-2.78v2.78zM200.49 123v-1.25h-2.78c1.79-1.26 2.73-2.25 2.73-3.39 0-1.33-1.13-2.13-2.55-2.13-.93 0-1.92.34-2.57 1.09l.81.94c.45-.47 1.03-.77 1.78-.77.56 0 1.09.29 1.09.87 0 .82-.8 1.51-3.53 3.52V123h5.02zm3.57.12c1.61 0 2.67-.89 2.67-2.3 0-1.35-1.01-2.16-2.14-2.16-.61 0-1.15.25-1.5.56v-1.67h3.19v-1.22h-4.58v3.81l.99.27c.4-.38.85-.55 1.4-.55.76 0 1.2.41 1.2 1.02 0 .55-.45 1-1.24 1-.7 0-1.32-.25-1.78-.72l-.78.96c.57.62 1.41 1 2.57 1zM224.49 123v-1.25h-2.78c1.79-1.26 2.73-2.25 2.73-3.39 0-1.33-1.13-2.13-2.55-2.13-.93 0-1.92.34-2.57 1.09l.81.94c.45-.47 1.03-.77 1.78-.77.56 0 1.09.29 1.09.87 0 .82-.8 1.51-3.53 3.52V123h5.02zm3.73.12c1.52 0 2.55-.99 2.55-2.29 0-1.42-1.07-2.15-2.27-2.15-.73 0-1.4.4-1.71.85-.01-.04-.01-.09-.01-.14 0-1.06.66-1.93 1.67-1.93.59 0 .97.19 1.33.53l.64-1.07c-.48-.41-1.16-.69-1.97-.69-1.97 0-3.11 1.43-3.11 3.45 0 1.88.85 3.44 2.88 3.44zm-.07-1.24c-.94 0-1.3-.74-1.36-1.38.32-.39.8-.64 1.3-.64.65 0 1.24.31 1.24 1.03 0 .47-.41.99-1.18.99zM104.49 143v-1.25h-2.78c1.79-1.26 2.73-2.25 2.73-3.39 0-1.33-1.13-2.13-2.55-2.13-.93 0-1.92.34-2.57 1.09l.81.94c.45-.47 1.03-.77 1.78-.77.56 0 1.09.29 1.09.87 0 .82-.8 1.51-3.53 3.52V143h5.02zm3.54.12c1.4 0 2.68-.61 2.68-1.85 0-.81-.64-1.43-1.44-1.71.74-.26 1.33-.74 1.33-1.57 0-1.25-1.34-1.76-2.57-1.76-1.24 0-2.57.51-2.57 1.76 0 .83.58 1.31 1.32 1.57-.8.28-1.43.9-1.43 1.71 0 1.25 1.28 1.85 2.68 1.85zm0-4.1c-.41-.06-1.13-.29-1.13-.81 0-.47.47-.76 1.13-.76.65 0 1.12.29 1.12.76 0 .52-.71.75-1.12.81zm0 2.88c-.7 0-1.24-.31-1.24-.8 0-.58.82-.86 1.24-.91.41.05 1.24.33 1.24.91 0 .49-.56.8-1.24.8zM81.49 143v-1.25h-2.78c1.79-1.26 2.73-2.25 2.73-3.39 0-1.33-1.13-2.13-2.55-2.13-.93 0-1.92.34-2.57 1.09l.81.94c.45-.47 1.03-.77 1.78-.77.56 0 1.09.29 1.09.87 0 .82-.8 1.51-3.53 3.52V143h5.02zm3.28 0l2.48-5.68v-.99h-5.01v1.25h3.36L83.21 143h1.56zM128.49 143v-1.25h-2.78c1.79-1.26 2.73-2.25 2.73-3.39 0-1.33-1.13-2.13-2.55-2.13-.93 0-1.92.34-2.57 1.09l.81.94c.45-.47 1.03-.77 1.78-.77.56 0 1.09.29 1.09.87 0 .82-.8 1.51-3.53 3.52V143h5.02zm3.14.11c1.97 0 3.1-1.43 3.1-3.44 0-1.89-.85-3.45-2.87-3.45-1.52 0-2.56.99-2.56 2.29 0 1.42 1.08 2.16 2.28 2.16.73 0 1.4-.41 1.72-.86v.14c0 1.01-.6 1.92-1.67 1.92-.59 0-.97-.18-1.33-.51l-.63 1.06c.47.42 1.15.69 1.96.69zm.35-3.64c-.64 0-1.23-.31-1.23-1.02 0-.47.41-1 1.17-1 .95 0 1.31.76 1.37 1.4-.32.39-.81.62-1.31.62zM149.83 143.12c1.6 0 2.63-.81 2.63-1.96 0-1-.88-1.53-1.56-1.6.74-.13 1.46-.68 1.46-1.52 0-1.11-.96-1.81-2.52-1.81-1.17 0-2.01.45-2.55 1.06l.7.88c.47-.45 1.06-.7 1.7-.7.7 0 1.24.27 1.24.8 0 .5-.49.74-1.23.74h-.34c-.207-.001-.415-.004-.49-.01v1.24c.1-.01.55-.01.83-.01.93 0 1.34.25 1.34.79 0 .51-.45.86-1.26.86-.65 0-1.38-.28-1.84-.76l-.74.93c.49.6 1.4 1.07 2.63 1.07zm6.14 0c1.9 0 2.76-1.73 2.76-3.45 0-1.72-.86-3.44-2.76-3.44-1.91 0-2.76 1.72-2.76 3.44s.85 3.45 2.76 3.45zm0-1.26c-.96 0-1.32-.96-1.32-2.19s.36-2.18 1.32-2.18c.95 0 1.31.95 1.31 2.18 0 1.23-.36 2.19-1.31 2.19zM174.83 143.12c1.6 0 2.63-.81 2.63-1.96 0-1-.88-1.53-1.56-1.6.74-.13 1.46-.68 1.46-1.52 0-1.11-.96-1.81-2.52-1.81-1.17 0-2.01.45-2.55 1.06l.7.88c.47-.45 1.06-.7 1.7-.7.7 0 1.24.27 1.24.8 0 .5-.49.74-1.23.74h-.34c-.207-.001-.415-.004-.49-.01v1.24c.1-.01.55-.01.83-.01.93 0 1.34.25 1.34.79 0 .51-.45.86-1.26.86-.65 0-1.38-.28-1.84-.76l-.74.93c.49.6 1.4 1.07 2.63 1.07zm6.49-.12v-6.67h-1.24l-2.1 2.11.81.85 1.11-1.13V143h1.42z"/>
        </g>
        <path fill="#FFF" fill-rule="nonzero" d="M79.45 103v-6.67h-1.24l-2.1 2.11.81.85 1.11-1.13V103h1.42zm3.49.12c1.6 0 2.63-.81 2.63-1.96 0-1-.88-1.53-1.56-1.6.74-.13 1.46-.68 1.46-1.52 0-1.11-.96-1.81-2.52-1.81-1.17 0-2.01.45-2.55 1.06l.7.88c.47-.45 1.06-.7 1.7-.7.7 0 1.24.27 1.24.8 0 .5-.49.74-1.23.74h-.34c-.207-.001-.415-.004-.49-.01v1.24c.1-.01.55-.01.83-.01.93 0 1.34.25 1.34.79 0 .51-.45.86-1.26.86-.65 0-1.38-.28-1.84-.76l-.74.93c.49.6 1.4 1.07 2.63 1.07zM199.45 103v-6.67h-1.24l-2.1 2.11.81.85 1.11-1.13V103h1.42zm3.69.12c1.4 0 2.68-.61 2.68-1.85 0-.81-.64-1.43-1.44-1.71.74-.26 1.33-.74 1.33-1.57 0-1.25-1.34-1.76-2.57-1.76-1.24 0-2.57.51-2.57 1.76 0 .83.58 1.31 1.32 1.57-.8.28-1.43.9-1.43 1.71 0 1.25 1.28 1.85 2.68 1.85zm0-4.1c-.41-.06-1.13-.29-1.13-.81 0-.47.47-.76 1.13-.76.65 0 1.12.29 1.12.76 0 .52-.71.75-1.12.81zm0 2.88c-.7 0-1.24-.31-1.24-.8 0-.58.82-.86 1.24-.91.41.05 1.24.33 1.24.91 0 .49-.56.8-1.24.8zM223.45 103v-6.67h-1.24l-2.1 2.11.81.85 1.11-1.13V103h1.42zm3.29.11c1.97 0 3.1-1.43 3.1-3.44 0-1.89-.85-3.45-2.87-3.45-1.52 0-2.56.99-2.56 2.29 0 1.42 1.08 2.16 2.28 2.16.73 0 1.4-.41 1.72-.86v.14c0 1.01-.6 1.92-1.67 1.92-.59 0-.97-.18-1.33-.51l-.63 1.06c.47.42 1.15.69 1.96.69zm.35-3.64c-.64 0-1.23-.31-1.23-1.02 0-.47.41-1 1.17-1 .95 0 1.31.76 1.37 1.4-.32.39-.81.62-1.31.62z"/>
        <g>
            <g transform="translate(0 17)">
                <circle cx="23.5" cy="23.5" r="22.5" fill="#DB2441"/>
                <path stroke="#920017" stroke-linecap="round" d="M7.5 7.5h32"/>
                <g transform="translate(20 75)">
                    <rect width="5" height="2" x="1" fill="#CA213C" rx="1"/>
                    <path stroke="#CA213C" stroke-linecap="square" d="M1.762 2.505l-.524 14.99M5.238 2.505l.524 14.99M2.5 2.5v15M3.5 2.5v15M4.5 2.5v15" opacity=".9"/>
                </g>
                <rect width="17" height="3" x="15" fill="#920017" rx="1"/>
                <rect width="17" height="3" x="15" y="44" fill="#920017" rx="1"/>
                <path stroke="#920017" stroke-linecap="round" d="M3.621 12.833h39.758M1.682 18.167h43.636M.712 23.5h45.576M1.5 28.833h44M3.652 34.167h39.696M7.561 39.5h31.878"/>
            </g>
            <g fill="#FFF0BB" stroke="#E4AB0F" stroke-width=".5">
                <path d="M23.5 76a5.5 5.5 0 1 1 0 11 5.5 5.5 0 0 1 0-11zm.722 4.278h-1.444a.5.5 0 0 0-.5.5v1.444a.5.5 0 0 0 .5.5h1.444a.5.5 0 0 0 .5-.5v-1.444a.5.5 0 0 0-.5-.5z"/>
                <path d="M23.5 69a5.5 5.5 0 1 1 0 11 5.5 5.5 0 0 1 0-11zm.722 4.278h-1.444a.5.5 0 0 0-.5.5v1.444a.5.5 0 0 0 .5.5h1.444a.5.5 0 0 0 .5-.5v-1.444a.5.5 0 0 0-.5-.5z"/>
            </g>
        </g>
    </g>
</svg>
