<svg xmlns="http://www.w3.org/2000/svg" width="358" height="124" viewBox="0 0 358 124">
    <g fill="none" fill-rule="evenodd">
        <path fill="#FCBF03" d="M0 73.477h84v-8.863H0zM2.653 124h78.694V73.477H2.653z"/>
        <path fill="#F4811F" d="M2.653 75.25h78.694v-1.773H2.653z"/>
        <path stroke="#FFF" stroke-width="4" d="M42 63.727V124"/>
        <g stroke="#FFF" stroke-linecap="round" stroke-linejoin="round" stroke-width="4">
            <path d="M41.558 63.727s16.87-23.78 22.35-16.256c5.478 7.525-4.24 11.128-22.35 16.256zM41.558 63.727s-16.871-23.78-22.35-16.256c-5.478 7.525 4.239 11.128 22.35 16.256z"/>
        </g>
        <path fill="#F3B5C6" d="M60.035 100h27.898V61.28H60.035z"/>
        <path fill="#F3B5C6" d="M57.42 66.56h33.128v-5.28H57.42z"/>
        <path fill="#1A4278" d="M60.035 67.44h27.898v-.88H60.035z"/>
        <g stroke="#6719FF" stroke-linecap="round" stroke-linejoin="round" stroke-width="1.5">
            <path d="M73.984 61.28s-4.929-7.083-6.53-4.842c-1.6 2.241 1.239 3.314 6.53 4.842zM73.984 61.28s4.929-7.083 6.53-4.842c1.6 2.241-1.24 3.314-6.53 4.842z"/>
        </g>
        <path stroke="#6719FF" stroke-width="1.5" d="M74.42 61.28V100"/>
        <g>
            <path fill="#E6F7FF" d="M118.875 54h19.25V41h-19.25z"/>
            <path fill="#E6F7FF" d="M118 44.467h21V41h-21z"/>
            <path fill="#2FB7EC" d="M118.875 45.333h19.25v-.866h-19.25z"/>
            <path stroke="#006BA0" d="M118.875 48.054c1.648-.369 3.446-.152 4.509.533 1.141.736.948 1.7.913 1.852-.151.66-.828 1.51-1.361 1.47-.856-.064-2.294-2.486-.125-3.8 1.52-.92 3.816-.693 3.99-.673 2.404.262 3.422 1.565 3.666 1.877.819 1.048.916 2.558-.126 2.883-.434.135-1.076.069-1.47-.134-1.538-.798-.33-4.242 2.613-4.626 1.54-.2 2.958.513 3.273.672 2.286 1.151 2.546 3.411 1.519 3.768-.385.134-.896-.018-.94-.032-1.617-.5-1.885-3.359.508-4.379.751-.32 1.616-.396 2.281-.398"/>
        </g>
        <g>
            <path fill="#EB393A" d="M94.639 93h67.722V54H94.64z"/>
            <path fill="#750517" d="M94.639 64.193h67.722v-1.33H94.64z"/>
            <path fill="#EB393A" d="M92 62.864h73V54H92z"/>
        </g>
        <g>
            <path fill="#F6E711" d="M86.782 93h45.436V77.759H86.782zM85 76.862h49V72.38H85z"/>
            <path fill="#DE7712" d="M86.782 77.759h45.436v-.897H86.782z"/>
            <path stroke="#E4AB0F" d="M86.782 80.702c.27-.115 3.494 2.334 7.784 2.312 2.219-.01 4.789-2.571 7.528-2.566 2.423.005 4.972 2.572 7.525 2.585 2.554.014 5.115-2.53 7.539-2.512 2.74.018 5.304 2.597 7.521 2.617 4.494.038 3.775-2.529 7.54-2.49M86.782 85.828c3.784 0 3.784 2.69 7.568 2.69 3.786 0 3.786-2.69 7.571-2.69 3.787 0 3.787 2.69 7.573 2.69 3.786 0 3.786-2.69 7.572-2.69 3.788 0 3.788 2.69 7.576 2.69 3.789 0 3.789-2.69 7.576-2.69M110.391 93V72.379"/>
            <g stroke="#E4AB0F" stroke-linecap="round" stroke-linejoin="round">
                <path d="M110.935 72.38s-3.847-7.217-5.097-4.934c-1.249 2.284.967 3.377 5.097 4.933z"/>
                <path d="M109.846 72.38s3.848-7.217 5.097-4.934c1.25 2.284-.966 3.377-5.097 4.933z"/>
            </g>
        </g>
        <g>
            <path fill="#DBE65A" d="M49.787 124H87.32v-20.444H49.787z"/>
            <path fill="#88C43F" d="M49.787 103.556H87.32v-.89H49.787z"/>
            <path fill="#DBE65A" d="M48 102.667h42V100H48z"/>
            <path stroke="#03918B" d="M49.787 108.966c3.214-.692 6.72-.284 8.791 1.004 2.225 1.384 1.848 3.195 1.781 3.482-.295 1.243-1.615 2.838-2.654 2.763-1.668-.118-4.473-4.674-.244-7.144 2.964-1.731 7.44-1.302 7.781-1.266 4.685.493 6.671 2.942 7.147 3.53 1.596 1.97 1.786 4.81-.246 5.421-.846.254-2.097.13-2.865-.253-3-1.498-.645-7.976 5.094-8.698 3.001-.378 5.766.965 6.382 1.264 4.455 2.164 4.963 6.415 2.96 7.086-.75.252-1.745-.035-1.83-.06-3.155-.941-3.678-6.317.988-8.235 1.465-.602 3.151-.744 4.447-.749"/>
        </g>
        <g>
            <path fill="#276B99" d="M85.65 124h83.933v-23.914H85.65z"/>
            <path fill="#001D53" d="M85.65 101.414h83.933v-1.328H85.65z"/>
            <path fill="#276B99" d="M83 100.086h91V93H83z"/>
            <path stroke="#FFF" d="M85.65 106.286c6.994 0 6.994 2.657 13.989 2.657 6.991 0 6.991-2.657 13.983-2.657 6.994 0 6.994 2.657 13.989 2.657 6.991 0 6.991-2.657 13.984-2.657 6.996 0 6.996 2.657 13.994 2.657 6.996 0 6.996-2.657 13.994-2.657M85.65 114.257c6.994 0 6.994 2.657 13.989 2.657 6.991 0 6.991-2.657 13.983-2.657 6.994 0 6.994 2.657 13.989 2.657 6.991 0 6.991-2.657 13.984-2.657 6.997 0 6.997 2.657 13.994 2.657 6.996 0 6.996-2.657 13.994-2.657"/>
        </g>
        <g>
            <path fill="#76614D" d="M240 50h118v-8H240z"/>
            <path fill="#8D745C" d="M251 124h96V50h-96z"/>
            <path fill="#371B00" d="M251 52h96v-2h-96zM270 124h59V77h-59z"/>
            <path fill="#D38E4B" d="M320.373 123.752h-39.999c-2.946 0-5.358-2.357-5.358-5.24 0-2.881 2.412-5.24 5.358-5.24h39.999c2.946 0 5.358 2.359 5.358 5.24 0 2.883-2.412 5.24-5.358 5.24"/>
            <path fill="#1A4278" d="M324.507 122.185h-24.581c-1.095 0-1.986-.82-1.986-1.829v-.546c0-1.009.891-1.829 1.986-1.829h3.039c.815 0 1.48-.598 1.48-1.332 0-.735-.665-1.333-1.48-1.333h-18.958c-1.096 0-1.987-.821-1.987-1.828v-.215a.25.25 0 0 1 .253-.248c.14 0 .253.111.253.248v.215c0 .735.665 1.333 1.48 1.333h18.959c1.094 0 1.986.82 1.986 1.828s-.892 1.828-1.986 1.828h-3.039c-.816 0-1.48.598-1.48 1.333v.546c0 .736.664 1.334 1.48 1.334h24.581c.14 0 .253.11.253.247a.25.25 0 0 1-.253.248"/>
            <path fill="#1A4278" d="M325.731 119.379h-9.066c-.724 0-1.313-.576-1.313-1.284 0-.708.59-1.284 1.313-1.284h8.85c.14 0 .254.112.254.248a.25.25 0 0 1-.253.247h-8.85a.8.8 0 0 0-.808.79c0 .434.362.788.807.788h9.066c.14 0 .254.11.254.247a.25.25 0 0 1-.254.248"/>
            <path fill="#FCBF03" d="M301.766 89.095s-9.873 2.557-10.633 11.057c-.759 8.5 6.245 13.616 10.21 13.12 3.967-.494 7.933-3.383 8.187-7.014.253-3.63-4.39-7.179-5.908-8.747-1.519-1.567-2.616-3.383-1.856-8.416"/>
            <path fill="#EF5055" d="M300.753 103.123s-3.128 4.169-3.544 6.519c-.416 2.35 2.532 3.962 4.135 3.63a3.25 3.25 0 0 0 2.616-3.383c-.085-1.65-3.207-6.766-3.207-6.766"/>
            <path fill="#1A4278" d="M291.927 124a.25.25 0 0 1-.254-.248.25.25 0 0 1 .254-.247c.794 0 1.442-.634 1.442-1.411 0-.382-.152-.74-.429-1.006-.274-.266-.64-.379-1.027-.405-16.593.202-16.663.044-16.757-.173a.247.247 0 0 1 .133-.325.253.253 0 0 1 .218.01c.59.112 6.842.108 16.4-.007.5-.015 1.017.188 1.39.547.373.36.579.844.579 1.359 0 1.051-.874 1.906-1.95 1.906"/>
        </g>
        <g>
            <path fill="#FCBF03" d="M227.932.26l1.635 3.204a.48.48 0 0 0 .363.255l3.657.514a.461.461 0 0 1 .267.793l-2.646 2.495a.456.456 0 0 0-.139.412l.625 3.521c.067.381-.346.671-.699.491l-3.27-1.662a.497.497 0 0 0-.45 0l-3.27 1.662c-.353.18-.766-.11-.699-.49l.625-3.522a.455.455 0 0 0-.139-.412l-2.646-2.495c-.286-.269-.128-.738.267-.793l3.657-.514a.481.481 0 0 0 .363-.255L227.068.26a.489.489 0 0 1 .864 0"/>
            <path fill="#1E6458" d="M202 72.727h16.113L202 111h26V11z"/>
            <path fill="#2A7265" d="M238.641 72.727H256L228 11v100h28z"/>
            <path fill="#D38E4B" d="M225 124h8v-13h-8z"/>
            <path fill="#EB393A" d="M247 37.5a4.5 4.5 0 1 1-9 0 4.5 4.5 0 0 1 9 0M219 80.5a4.5 4.5 0 1 1-9 0 4.5 4.5 0 0 1 9 0M251 109.5a4.5 4.5 0 1 1-9 0 4.5 4.5 0 0 1 9 0"/>
            <path fill="#DBE65A" d="M211 62.501a4.5 4.5 0 1 1-9-.002 4.5 4.5 0 0 1 9 .002M238 52.501a4.5 4.5 0 1 1-9-.002 4.5 4.5 0 0 1 9 .002M242 91.501a4.5 4.5 0 1 1-9-.002 4.5 4.5 0 0 1 9 .002"/>
            <path fill="#276B99" d="M255 71.499a4.5 4.5 0 1 1-9 .002 4.5 4.5 0 0 1 9-.002M225 30.499a4.5 4.5 0 1 1-9 .002 4.5 4.5 0 0 1 9-.002M224 102.499a4.5 4.5 0 1 1-9 .002 4.5 4.5 0 0 1 9-.002"/>
        </g>
    </g>
</svg>
