<svg xmlns="http://www.w3.org/2000/svg" xmlns:xlink="http://www.w3.org/1999/xlink" width="359" height="200" viewBox="0 0 359 200">
    <defs>
        <path id="a" d="M0 0h400v200H0z"/>
    </defs>
    <g fill="none" fill-rule="evenodd" transform="translate(-21)">
        <mask id="b" fill="#fff">
            <use xlink:href="#a"/>
        </mask>
        <use fill="#E6F7FF" fill-opacity="0" xlink:href="#a"/>
        <g mask="url(#b)">
            <path fill="#F3BD81" d="M290.872 122.904c-.513-1.253-1.246-2.328-1.376-4.567-.074-1.26.078-2.836.666-3.456.667-.711 2.42-.763 2.79.113.69 1.643 1.06 4.847 1.06 4.847-.056-2.239.615-3.152.79-2.205.407 2.178.642 4.076-.541 5.246-.628.62.474 4.288.474 4.288l-3.757.047s.406-3.06-.106-4.313M235 124.556c.577-1.392 1.4-2.585 1.557-5.079.09-1.404-.07-3.162-.72-3.855-.74-.795-2.693-.862-3.11.11-.78 1.827-1.21 5.394-1.21 5.394.076-2.496-.666-3.515-.867-2.462-.465 2.424-.737 4.536.572 5.849.698.694-.553 4.773-.553 4.773l4.185.077s-.434-3.417.145-4.807M160.722 120.22c-.57-1.394-1.387-2.591-1.532-5.086-.082-1.405.087-3.16.741-3.851.744-.79 2.696-.847 3.107.127.771 1.83 1.183 5.4 1.183 5.4-.062-2.495.685-3.51.88-2.458.454 2.427.714 4.542-.603 5.844-.7.692.53 4.777.53 4.777l-4.186.054s.451-3.412-.12-4.806M195.873 168.926c5.522.695 10.559-3.234 11.25-8.772l-19.997-2.51c-.69 5.537 3.225 10.587 8.747 11.282"/>
            <path fill="#F6A19D" d="M211.221 170.904s14.795-11.32 17.82-18.396c3.881-9.084 6.812-27.213 6.812-27.213l-5.477-.688c-3.503 12.736-4.407 17.71-8.375 23.746-2.215 3.366-13.318 9.1-17.126 10.865-.658.304-1.046.478-1.046.478-5.49 5.39-9.904 3.933-13.66-1.715-.836-.502-14.77-9.032-17.225-12.91-3.865-6.103-5.063-10.513-7.514-23.492l-5.516.236s2.057 18.084 5.842 27.205c3.323 8.004 12.67 17.59 15.09 19.986-.559 2.368-1.771 16.687-3.961 30.17h33.98c-.47-8.885-.851-21.668.356-28.272"/>
            <path fill="#F3BD81" d="M322.424 166.623c4.956.623 9.477-2.901 10.098-7.873l-17.95-2.254c-.62 4.97 2.896 9.504 7.852 10.127"/>
            <path fill="#E04C4B" d="M336.145 198.232c-.457-6.994-1.167-21.032-.136-28.593 7.791 6.515 10.182 27.762 10.182 27.762v2.453h6.311v-4.015c-2.843-31.981-14.691-37.134-20.422-37.716-.024-.018-.05-.048-.074-.065-.22-.145-.764-.092-1.283.003-1.108.013-1.775.18-1.775.18l.262.424c-4.762 4.43-8.616 3.08-11.905-1.865-.75-.452-13.26-8.11-15.462-11.59-3.47-5.478-4.545-9.436-6.746-21.089l-4.952.213s1.846 16.233 5.246 24.421c2.982 7.185 11.373 15.788 13.545 17.94-.55 2.326-1.8 17.49-4.133 30.464l-.357 2.695h31.726l-.027-1.622z"/>
            <path fill="#221E1F" d="M80.26 130.83c2.056 5.819 1.796 11.52 3.654 16.093 1.858 4.571 5.108 7.176 7.051 11.236 6.8 14.218-23.827 27.02-34.22 13.456-9.877-12.892-.068-17.538-.237-30.14-.289-21.58 21.05-18.293 23.751-10.645"/>
            <path fill="#F3BD81" d="M75.027 156.838l-7.425.676-.21-2.294-.497-5.5 7.426-.677z"/>
            <path fill="#F3BD81" d="M74.554 151.622c-1.13 1.836-5.716 2.125-7.346 1.556l-.305-3.366 7.651 1.81z"/>
            <path fill="#F3BD81" d="M79.013 141.625c1.79 5.4-2.689 10.271-6.103 10.56-3.017.257-6.212-1.462-7.654-3.744-1.441-2.284-1.88-3.881-1.88-3.881-4.214-1.287-2.274-6.218-.563-3.883 0 0-.106-1.66-.106-2.293 3.652-2.501 6.388-5.016 7.714-7.508 1.974 3.41 5.575 4.553 7.912 4.71 1.224 2.524-.299 3.089.68 6.039"/>
            <path fill="#221E1F" d="M69.613 137.685l-4.34.699s2.344-2.197 4.34-.699M73.798 137.25l4.397-.02s-2.67-1.786-4.397.02"/>
            <path fill="#F6A19E" d="M72.163 141.297c-.405.037-.41 2.918-.125 3.21.256.263.68.132.83-.079.324-.452-.364-3.16-.705-3.13"/>
            <path fill="#EC8C27" d="M72.974 148.992c-1.473.135-2.306-1.343-2.306-1.343l4.365-.399s-.63 1.613-2.06 1.742"/>
            <path fill="#221E1F" d="M76.994 139.856c.054.546-.183 1.016-.53 1.05-.347.035-.673-.38-.727-.924-.054-.546.184-1.015.53-1.05.348-.035.673.378.727.924M68.67 140.614c.054.546-.184 1.016-.533 1.051-.344.035-.67-.38-.726-.924-.054-.546.185-1.017.531-1.052.348-.035.674.38.728.925"/>
            <path fill="#F6A19E" d="M79.047 141.768c-.093-.001-.185-.012-.28-.002a2.64 2.64 0 0 0-2.385 2.87 2.634 2.634 0 0 0 2.45 2.39 7.615 7.615 0 0 0 .215-5.258M67.77 145.4a2.636 2.636 0 0 0-2.862-2.393 2.622 2.622 0 0 0-1.749.903c.21.644.877 2.535 1.996 4.358.077 0 .15.01.229.002a2.64 2.64 0 0 0 2.386-2.87"/>
            <path fill="#F3BD81" d="M72.302 165.691c5.503-.5 9.56-5.38 9.06-10.9l-19.93 1.814c.5 5.52 5.367 9.588 10.87 9.086"/>
            <path fill="#F6A19E" d="M82.36 176.304l-15.166 1.381-1.486-16.43c5.146 3.77 10.2 2.961 15.165-1.382l1.487 16.431z"/>
            <path fill="#F3BD81" d="M105.032 119.311c.667-1.34 1.563-2.466 1.888-4.927.183-1.385.142-3.136-.454-3.869-.68-.837-2.61-1.036-3.088-.1-.895 1.756-1.563 5.261-1.563 5.261.242-2.467-.422-3.528-.693-2.498-.625 2.371-1.038 4.444.172 5.832.643.738-.87 4.692-.87 4.692l4.14.36s-.199-3.411.468-4.75M319.25 158.466l7.69.966.875-7.018-7.689-.965z"/>
            <path fill="#F3BD81" d="M319.787 154.18c2.232 1.805 5.222 3.015 7.574 1.877l.4-3.192-7.974 1.315z"/>
            <path fill="#221E1F" d="M324.673 141.235s-2.98 1.144-7.745-1.151c-2.276-1.097-3.211-5.29-1.431-7.462 1.492-1.822 4.057-2.958 7.133-1.143 11.51-1.155 12.15 5.47 11.983 9.721-.427 11.087-6.302 11.449-7.336 9.181-1.144-.78-2.604-9.146-2.604-9.146"/>
            <path fill="#F3BD81" d="M316.902 145.749c-.856 3.797 1.247 8.533 4.753 9.271 4.106.864 6.511-1.555 7.713-3.68 1.2-2.127 1.755-4.412 1.755-4.412 3.982-2.26.72-7.169-.272-3.004l-.557-.038-.008-6.174c-3.81 1.027-8.777.768-11.957-.76 0 0-.248.388-.998 2.674-.834 2.545.172 3.46-.43 6.123"/>
            <path fill="#221E1F" d="M324.965 142.176l4.2.176s-2.249-2.195-4.2-.176M327.234 144.255c-.016.494-.284.887-.6.877-.316-.011-.558-.42-.541-.915.016-.498.284-.89.6-.879.316.011.557.42.54.917M319.685 143.94c-.017.494-.285.887-.6.876-.317-.01-.558-.42-.543-.915.017-.496.287-.887.602-.877.314.01.558.42.54.915M321.358 142.109l-4.123-.173s2.276-2.164 4.123.173"/>
            <path fill="#F6A19E" d="M322.695 145.193c.464.019.636 3.127.33 3.46-.277.295-.765.175-.95-.045-.393-.47.231-3.433.62-3.415"/>
            <path fill="#EC8C27" d="M322.495 152.39c1.403.059 2.124-1.402 2.124-1.402l-4.156-.173s.67 1.519 2.032 1.576"/>
            <path fill="#F6A19E" d="M319.05 148.116a2.45 2.45 0 0 0-2.12-2.527c-.014.06-.014.11-.027.17-.34 1.499-.21 3.144.28 4.633a2.448 2.448 0 0 0 1.866-2.276M329.246 146.08a2.454 2.454 0 0 0-2.552 2.355 2.457 2.457 0 0 0 2.348 2.56c.182.008.359-.009.533-.04a19.882 19.882 0 0 0 1.514-3.896 2.43 2.43 0 0 0-1.843-.98"/>
            <path fill="#F6A19D" d="M289.389 124.774l-.035-.811a.371.371 0 0 1 .354-.388l5.76-.246a.37.37 0 0 1 .386.354l.035.81a.373.373 0 0 1-.353.389l-5.762.247a.372.372 0 0 1-.385-.355"/>
            <path fill="#0984B1" d="M102.764 115.89l-.653.086-4.798-36.532.652-.086z"/>
            <path fill="#EA314E" d="M127.884 92.638l-27.697 3.681-2.241-16.954 27.699-3.68z"/>
            <path fill="#405BA8" d="M111.345 86.928L99.2 88.567l-1.235-9.21 12.143-1.639z"/>
            <path fill="#FEFEFE" d="M126.025 78.565l-15.522 2.095-.184-1.379 15.521-2.094zM126.507 82.157l-15.522 2.095-.184-1.379 15.521-2.094zM127.035 86.213l-27.65 3.73-.184-1.376 27.65-3.731zM127.509 89.745l-27.65 3.731-.185-1.378 27.65-3.731zM127.99 93.326l-27.65 3.73-.185-1.378 27.65-3.73z"/>
            <path fill="#0984B1" d="M164.377 115.882l-.654.08-4.475-36.574.654-.08z"/>
            <path fill="#EA314E" d="M189.703 92.853l-27.73 3.434-2.09-16.973 27.73-3.434z"/>
            <path fill="#405BA8" d="M173.213 86.996l-12.157 1.53-1.153-9.22 12.157-1.53z"/>
            <path fill="#FEFEFE" d="M187.968 78.764l-15.54 1.956-.173-1.379 15.54-1.956zM188.418 82.36l-15.539 1.956-.174-1.379 15.54-1.956zM188.91 86.421l-27.68 3.484-.175-1.379 27.683-3.485zM189.352 89.956l-27.68 3.486-.173-1.379 27.681-3.485zM189.801 93.54l-27.68 3.486-.173-1.379 27.68-3.485z"/>
            <path fill="#0984B1" d="M231.554 118.73l-.648-.111 6.243-36.313.648.113z"/>
            <path fill="#EA314E" d="M262.429 104.015l-27.537-4.74 2.885-16.856 27.538 4.74z"/>
            <path fill="#405BA8" d="M248.33 93.633l-12.082-2.055 1.55-9.162 12.08 2.055z"/>
            <path fill="#FEFEFE" d="M264.824 90.022l-15.44-2.625.231-1.37 15.44 2.625zM264.22 93.596l-15.44-2.626.231-1.37 15.44 2.626zM263.522 97.626l-27.505-4.678.231-1.37 27.506 4.678zM262.929 101.14l-27.506-4.678.232-1.371 27.506 4.678zM262.326 104.701l-27.506-4.678.232-1.37 27.506 4.678z"/>
            <path fill="#0984B1" d="M293.785 118.47l-.655-.068 3.757-36.654.654.067z"/>
            <path fill="#EA314E" d="M323.586 101.674l-27.795-2.843 1.73-17.012 27.795 2.841z"/>
            <path fill="#405BA8" d="M308.811 92.283L296.62 91.06l.921-9.247 12.193 1.223z"/>
            <path fill="#FEFEFE" d="M325.023 87.55L309.44 85.99l.137-1.384 15.585 1.565zM324.664 91.157l-15.584-1.562.138-1.384 15.583 1.564zM324.242 95.226l-27.761-2.784.139-1.382 27.76 2.784zM323.889 98.772l-27.762-2.784.139-1.382 27.762 2.785zM323.53 102.367l-27.761-2.784.139-1.382 27.76 2.783z"/>
            <path fill="#F3BD81" d="M192.337 159.839l8.564 1.075.977-7.818-8.564-1.075z"/>
            <path fill="#161515" d="M190.951 150.524s13.716 15.998 18.595-.545c0 0 3.822-11.413-3.337-16.376 0 0-5.9-4.408-16.726-1.957 0 0-9.604 3.777 1.468 18.878"/>
            <path fill="#F3BD81" d="M192.936 155.064c2.487 2.011 5.815 3.36 8.439 2.09l.445-3.555-8.884 1.465z"/>
            <path fill="#F3BD81" d="M189.72 145.67c-.953 4.23 1.39 9.509 5.298 10.332 4.572.96 7.252-1.735 8.591-4.103 1.338-2.368 1.954-4.913 1.954-4.913 4.437-2.52.803-7.987-.303-3.346l-.619-.042-.012-6.88c-4.24 1.146-9.776.855-13.32-.847 0 0-.274.433-1.11 2.978-.928 2.837.19 3.857-.478 6.822"/>
            <path fill="#221E1F" d="M198.703 141.553l4.681.125s-2.506-1.55-4.68-.125M201.231 144.007c-.019.551-.317.989-.668.977-.352-.013-.622-.468-.603-1.02.018-.552.317-.988.669-.979.35.014.62.469.602 1.022M192.821 143.656c-.019.55-.317.989-.668.978-.352-.012-.621-.469-.604-1.02.018-.552.318-.99.67-.979.35.012.621.47.602 1.02M194.686 141.506l-4.592-.122s2.534-1.527 4.592.122"/>
            <path fill="#F6A19E" d="M196.175 145.052c.516.02.708 3.484.366 3.854-.308.33-.85.197-1.057-.05-.438-.525.257-3.823.691-3.804"/>
            <path fill="#EC8C27" d="M195.952 153.07c1.563.065 2.367-1.562 2.367-1.562l-4.631-.193s.746 1.692 2.264 1.755"/>
            <path fill="#F6A19E" d="M192.113 148.309a2.728 2.728 0 0 0-2.362-2.815c-.015.066-.016.121-.03.189-.377 1.67-.233 3.501.313 5.16a2.727 2.727 0 0 0 2.08-2.534M203.472 146.04a2.734 2.734 0 0 0-2.842 2.623 2.736 2.736 0 0 0 2.616 2.851c.203.01.4-.008.592-.043a22.08 22.08 0 0 0 1.689-4.339 2.704 2.704 0 0 0-2.055-1.092"/>
            <path fill="#E04C4B" d="M197.374 164.27a7.076 7.076 0 0 1-1.489-.16c-3.4-.728-6.066-3.93-6.68-6.606l-.032-.135s1.217.599 2.074.792c.84 1.848 2.74 3.773 4.998 4.257 2.233.48 4.453-.494 6.48-2.815.742.09 1.748-.161 2.447-.525-.162.41-.263.568-.385.723-2.656 3.522-5.316 4.47-7.413 4.47"/>
            <path fill="#F6A19D" d="M236.205 126.21l-6.394-.802a.403.403 0 0 1-.35-.449l.114-.917a.403.403 0 0 1 .449-.35l6.394.801a.402.402 0 0 1 .349.45l-.114.918a.402.402 0 0 1-.448.35M159.07 122.303l-.038-.903a.411.411 0 0 1 .394-.43l6.417-.275c.228-.01.42.168.43.396l.039.903a.416.416 0 0 1-.394.43l-6.418.275a.412.412 0 0 1-.43-.396"/>
            <path fill="#E04C4B" d="M189.72 177l-3.714-.468a2.139 2.139 0 0 1-1.853-2.388l.834-6.674 7.95 1-.832 6.672A2.139 2.139 0 0 1 189.72 177"/>
            <path fill="#F3BD81" d="M190.84 135.913s8.789-7.655 15.886 1.797c0 0-9.606 3.37-15.887-1.797"/>
            <path fill="#161515" d="M186.49 139.938c8.2 1.982 12.366-7.716 12.366-7.716s-8.707-.449-11.953 6.375l-.413 1.341z"/>
            <path fill="#161515" d="M208.366 141.545c-8.398.772-11.122-9.43-11.122-9.43s8.68.82 10.909 8.044l.213 1.386z"/>
            <path fill="#F6A19D" d="M323.772 162.444c-.481 0-.93-.056-1.337-.142-3.053-.656-5.446-3.531-5.996-5.931l-.03-.122s1.094.537 1.862.711c.755 1.66 2.462 3.386 4.487 3.822 2.004.43 3.997-.445 5.816-2.529.668.084 1.57-.143 2.197-.469-.145.367-.235.51-.345.649-2.384 3.16-4.773 4.01-6.654 4.01"/>
            <path stroke="#EEB51D" stroke-linecap="round" stroke-linejoin="round" stroke-width="1.2" d="M223.143 35.351l-1.287-1.291M226.36 35.359l1.287-1.292M226.29 38.57l1.289 1.291M223.075 38.562l-1.287 1.292M224.683 34.713v-1.781M224.683 40.992v-1.78M220.746 36.955h1.754M227.004 36.955h1.913M222.123 30.442l-2.138-5.327M231.418 34.437l5.311-2.145M227.274 43.64l2.138 5.327M217.98 39.644l-5.312 2.143M227.36 30.496l2.189-5.152M219.644 48.662l2.189-5.153M213.215 32.116l5.076 2.167M231.319 39.85l5.534 2.365M214.437 26.142l-8.645-8.67M236.027 26.19l8.645-8.67M235.568 47.744l8.645 8.67M213.978 47.694l-8.645 8.67M224.771 21.854V9.897M224.771 64.013V52.056M198.337 36.905h11.779M240.35 36.905h12.844M219.514 16.569L215.129.675M244.747 30.978l15.847-4.397M229.96 55.896l4.387 15.893M204.73 41.483l-15.848 4.398M234.441 18.422l7.905-13.992M206.574 67.754l7.904-13.992M193.56 18.46l13.783 7.831M242.722 46.392l15.03 8.54M352.23 69.395l-.904-.907M354.489 69.4l.904-.907M354.44 71.654l.905.908M352.182 71.65l-.904.907M353.31 68.946v-1.25M353.31 73.356v-1.251M350.546 70.52h1.232M354.941 70.52h1.344M351.513 65.948l-1.5-3.742M358.04 68.753l3.73-1.505M355.13 75.214l1.502 3.742M348.604 72.409l-3.73 1.505M355.191 65.986l1.538-3.618M349.772 78.742l1.538-3.619M345.259 67.122l3.564 1.523M357.97 72.554l3.886 1.66M346.117 62.928l-6.07-6.088M361.277 62.961l6.07-6.088M360.955 78.096l6.07 6.088M345.795 78.062l-6.07 6.088M353.374 59.917v-8.395M353.374 89.52v-8.396M334.812 70.486h8.27M364.313 70.486h9.019M349.682 56.206l-3.08-11.16M367.4 66.324l11.128-3.088M357.018 83.82l3.079 11.16M339.3 73.7l-11.127 3.089M360.164 57.507l5.549-9.824M340.595 92.147l5.55-9.824M331.457 57.535l9.679 5.497M365.978 77.148l10.554 5.996"/>
            <path stroke="#EEB51D" stroke-linecap="round" stroke-linejoin="round" stroke-width=".9" d="M44.946 53.336l-.882-.884M47.146 53.34l.882-.883M47.1 55.538l.88.882M44.899 55.533l-.881.882M45.999 52.9v-1.22M45.999 57.195v-1.217M43.305 54.433h1.2M47.587 54.433h1.31M44.247 49.977l-1.462-3.645M50.606 52.71l3.635-1.466M47.771 59.007l1.464 3.644M41.413 56.273l-3.634 1.466M47.831 50.014l1.497-3.524M42.551 62.442l1.497-3.524M38.154 51.122l3.472 1.483M50.539 56.414l3.786 1.618M38.99 47.035l-5.916-5.932M53.76 47.068l5.916-5.933M53.446 61.814l5.916 5.933M38.675 61.781l-5.916 5.931M46.06 44.1v-8.179M46.06 72.946v-8.181M27.974 54.4h8.058M56.718 54.4h8.788M42.462 40.485l-2.999-10.873M59.726 50.344l10.842-3.01M49.61 67.391l3.001 10.875M32.348 57.53l-10.843 3.01M52.676 41.753l5.407-9.573M33.61 75.506l5.407-9.573M24.705 41.78l9.431 5.356M58.34 60.89l10.285 5.842"/>
            <path fill="#EEB51D" d="M70.57 94.628l2.06 1.13c.417.23.417.83 0 1.058l-2.06 1.13a.602.602 0 0 0-.238.24l-1.128 2.066a.6.6 0 0 1-1.055 0l-1.126-2.066a.61.61 0 0 0-.239-.24l-2.06-1.13a.604.604 0 0 1 0-1.058l2.06-1.13a.607.607 0 0 0 .239-.24l1.126-2.065a.6.6 0 0 1 1.055 0l1.128 2.066c.054.1.137.184.238.24M198.607 102.356l2.06 1.13a.602.602 0 0 1 0 1.057l-2.06 1.13a.61.61 0 0 0-.24.24l-1.126 2.066a.6.6 0 0 1-1.055 0l-1.127-2.066a.602.602 0 0 0-.24-.24l-2.059-1.13a.603.603 0 0 1 0-1.057l2.06-1.13a.614.614 0 0 0 .24-.24l1.126-2.067a.6.6 0 0 1 1.055 0l1.126 2.067c.056.1.14.183.24.24M283.777 81.492l2.06 1.13c.416.23.416.83 0 1.058l-2.06 1.13a.593.593 0 0 0-.239.24l-1.128 2.066a.6.6 0 0 1-1.055 0l-1.126-2.066a.597.597 0 0 0-.24-.24l-2.059-1.13a.604.604 0 0 1 0-1.058l2.059-1.13a.597.597 0 0 0 .24-.24l1.126-2.067a.6.6 0 0 1 1.055 0l1.128 2.066a.593.593 0 0 0 .239.241M356.45 143.473l2.06 1.13c.416.23.416.83 0 1.058l-2.06 1.13a.593.593 0 0 0-.24.24l-1.127 2.065a.6.6 0 0 1-1.055 0l-1.127-2.065a.597.597 0 0 0-.24-.24l-2.058-1.13a.604.604 0 0 1 0-1.058l2.058-1.13a.597.597 0 0 0 .24-.24l1.127-2.066a.6.6 0 0 1 1.055 0l1.128 2.066a.593.593 0 0 0 .238.24"/>
            <path stroke="#EEB51D" stroke-linecap="round" stroke-linejoin="round" stroke-width=".6" d="M106.709 64.108a2.055 2.055 0 0 1-2.054 2.058 2.055 2.055 0 0 1-2.053-2.058c0-1.138.919-2.058 2.053-2.058 1.135 0 2.054.92 2.054 2.058zM218.864 118.47c0 1.137-.919 2.059-2.052 2.059a2.057 2.057 0 0 1-2.055-2.06 2.055 2.055 0 0 1 4.107 0zM121.72 147.01c0 1.138-.919 2.06-2.052 2.06a2.056 2.056 0 0 1-2.055-2.06 2.055 2.055 0 0 1 4.107 0zM28.441 135.87c0 1.139-.919 2.06-2.054 2.06a2.056 2.056 0 0 1-2.053-2.06c0-1.137.919-2.057 2.053-2.057 1.135 0 2.054.92 2.054 2.058zM345.451 110.506c0 1.138-.92 2.059-2.052 2.059a2.055 2.055 0 0 1-2.055-2.059c0-1.137.919-2.058 2.055-2.058 1.132 0 2.052.92 2.052 2.058zM274.905 124.229a2.055 2.055 0 1 1-4.107 0 2.055 2.055 0 0 1 4.107 0zM140.159 104.015a2.055 2.055 0 0 1-2.053 2.058 2.056 2.056 0 0 1-2.054-2.058c0-1.14.919-2.06 2.054-2.06 1.134 0 2.053.92 2.053 2.06zM186.19 59.955a2.055 2.055 0 1 1-4.107 0 2.055 2.055 0 0 1 4.107 0z"/>
            <path fill="#E04C4B" d="M47.508 195.865s2.415-21.706 10.307-28.158l.113-.187c1.968 8.954 1.718 15.762-1.35 28.593l-1.153 3.063H90.51v-3.79c-.543-18.278-2.54-33.18-2.54-33.18s7.186-8.906 9.919-13.271c3.426-5.468 5.382-8.781 7.87-27.76l-5.642-.854s-1.536 14.03-6.562 20.718c-2.76 3.672-6.06 8.562-15.191 14.026-.024 7.43-1.109 14.404-3.695 20.728-4.07-4.177-7.113-11.472-9.919-19.49 0 0-19.767-5.052-23.553 37.985v4.888h6.311v-3.311z"/>
        </g>
    </g>
</svg>
