<svg xmlns="http://www.w3.org/2000/svg" width="200" height="200" viewBox="0 0 200 200">
    <defs>
        <radialGradient id="a" cx="112.342%" cy="6.948%" r="139.793%" fx="112.342%" fy="6.948%" gradientTransform="matrix(.92134 0 0 1 .088 0)">
            <stop offset="0%" stop-color="#F9A45C"/>
            <stop offset="33%" stop-color="#F89A4C"/>
            <stop offset="99%" stop-color="#F58221"/>
            <stop offset="100%" stop-color="#F58120"/>
        </radialGradient>
        <radialGradient id="b" cx="28.965%" cy="12.221%" r="148.613%" fx="28.965%" fy="12.221%" gradientTransform="matrix(.99956 0 0 1 0 0)">
            <stop offset="0%" stop-color="#F9A45C"/>
            <stop offset="31%" stop-color="#F89A4C"/>
            <stop offset="90%" stop-color="#F58221"/>
            <stop offset="91%" stop-color="#F58120"/>
        </radialGradient>
        <radialGradient id="c" cx="93.191%" cy="9.818%" r="188.688%" fx="93.191%" fy="9.818%" gradientTransform="scale(-.97867 -1) rotate(-45.127 -.246 2.267)">
            <stop offset="0%" stop-color="#2FB7EC"/>
            <stop offset="100%" stop-color="#006BA0"/>
        </radialGradient>
        <radialGradient id="d" cx="-12.947%" cy="-6.229%" r="219.968%" fx="-12.947%" fy="-6.229%" gradientTransform="scale(1 .52165) rotate(61.732 -.082 -.09)">
            <stop offset="0%" stop-color="#4EC2BE"/>
            <stop offset="100%" stop-color="#03928B"/>
            <stop offset="100%" stop-color="#03928B"/>
        </radialGradient>
        <linearGradient id="e" x1="0%" x2="168.23%" y1="50%" y2="50%">
            <stop offset="0%" stop-color="#2FB7EC"/>
            <stop offset="100%" stop-color="#006BA0"/>
        </linearGradient>
        <linearGradient id="f" x1="22.741%" x2="80.924%" y1="23.381%" y2="83.201%">
            <stop offset="0%" stop-color="#4EC2BE"/>
            <stop offset="100%" stop-color="#03928B"/>
        </linearGradient>
        <radialGradient id="g" cy="49.906%" r="197.064%" fx="50%" fy="49.906%" gradientTransform="matrix(.18224 0 0 1 .409 0)">
            <stop offset="0%" stop-color="#6719FF"/>
            <stop offset="81%" stop-color="#AE92FF"/>
        </radialGradient>
        <radialGradient id="h" cx="50.147%" cy="50.123%" r="65.335%" fx="50.147%" fy="50.123%" gradientTransform="matrix(1 0 0 .64576 0 .178)">
            <stop offset="0%" stop-color="#6719FF"/>
            <stop offset="81%" stop-color="#AE92FF"/>
        </radialGradient>
        <radialGradient id="i" cx="49.765%" cy="49.921%" r="94.464%" fx="49.765%" fy="49.921%" gradientTransform="matrix(.40422 0 0 1 .296 0)">
            <stop offset="0%" stop-color="#6719FF"/>
            <stop offset="81%" stop-color="#AE92FF"/>
        </radialGradient>
        <radialGradient id="j" cx="91.36%" cy="20.326%" r="136.293%" fx="91.36%" fy="20.326%" gradientTransform="matrix(.99968 0 0 1 0 0)">
            <stop offset="0%" stop-color="#F9A45C"/>
            <stop offset="31%" stop-color="#F89A4C"/>
            <stop offset="90%" stop-color="#F58221"/>
            <stop offset="91%" stop-color="#F58120"/>
        </radialGradient>
        <radialGradient id="k" cx="50.429%" cy="50.159%" r="111.92%" fx="50.429%" fy="50.159%" gradientTransform="matrix(1 0 0 .33344 0 .334)">
            <stop offset="0%" stop-color="#6719FF"/>
            <stop offset="81%" stop-color="#AE92FF"/>
        </radialGradient>
        <radialGradient id="l" cx="50.078%" cy="50.139%" r="131.151%" fx="50.078%" fy="50.139%" gradientTransform="matrix(.27922 0 0 1 .361 0)">
            <stop offset="0%" stop-color="#6719FF"/>
            <stop offset="81%" stop-color="#AE92FF"/>
        </radialGradient>
        <radialGradient id="m" cx="48.043%" r="67.37%" fx="48.043%" fy="50%" gradientTransform="matrix(1 0 0 .62778 0 .186)">
            <stop offset="0%" stop-color="#6719FF"/>
            <stop offset="81%" stop-color="#AE92FF"/>
        </radialGradient>
        <radialGradient id="n" cx="-73.616%" cy="-50.451%" r="286.696%" fx="-73.616%" fy="-50.451%" gradientTransform="matrix(.98511 0 0 1 -.011 0)">
            <stop offset="0%" stop-color="#F9A45C"/>
            <stop offset="33%" stop-color="#F89A4C"/>
            <stop offset="99%" stop-color="#F58221"/>
            <stop offset="100%" stop-color="#F58120"/>
        </radialGradient>
    </defs>
    <g fill="none" fill-rule="evenodd">
        <path fill="#076D65" fill-rule="nonzero" d="M183.8 62.847l.78.152s-.124.518-.342 1.396l-4.24-1.045c.139-.375.277-.764.42-1.168l.74.138 2.643.527z"/>
        <path fill="#E69E6C" fill-rule="nonzero" d="M185.084 55.56c.475.575.475 1.934.351 3.007-.252 1.9-.95 2.779-1.473 3.8a3.12 3.12 0 0 0-.161.475l-2.657-.527a.375.375 0 0 0-.09-.166c-.95-1.079-.613-2.689-.124-4.527.214-.793.727 0 .542 1.938 0 0 .513-2.717 1.207-4.076.38-.712 1.877-.57 2.405.076z"/>
        <path fill="url(#a)" fill-rule="nonzero" d="M168.998 180.329v19.688h-13.657a2.271 2.271 0 0 0 2.267-2.26v-13.353h-9.98v-4.075h21.37z"/>
        <path fill="#FFF" fill-rule="nonzero" d="M156.206 30.884c-.314-.313-.628-.641-.95-.95a2.227 2.227 0 0 1 .037-3.144c2.1-2.09 4.215-4.166 6.32-6.242a2.22 2.22 0 0 1 1.573-.641h3.018a2.234 2.234 0 0 1 2.243 2.228v22.614a2.247 2.247 0 0 1-2.243 2.242h-2.742a2.233 2.233 0 0 1-2.22-2.242V29.022c-.617.618-1.23 1.25-1.848 1.9a2.22 2.22 0 0 1-3.188-.038z"/>
        <path fill="#076D65" fill-rule="nonzero" d="M158.753 121.975c-.618 7.125-1.35 21.893-1.573 30.989-.224 9.096.038 12.53.123 15.699.086 3.168 0 6.08-2.442 5.951h-7.874a2.29 2.29 0 0 0-.841-.527c-.91-16.318-1.068-30.623-.476-42.916.167-3.62.404-7.068.694-10.35 4.624.45 9.48.926 12.389 1.154z"/>
        <path fill="#E69E6C" fill-rule="nonzero" d="M156.22 79.073a2.1 2.1 0 0 1 2.328-1.862 2.02 2.02 0 0 1 1.526.95l-.214.589c-.062.138-.128.304-.204.475-.138.328-.314.717-.514 1.12a.171.171 0 0 0-.038.063l-.351.655a2.66 2.66 0 0 1-.167.261.223.223 0 0 1-.047.076 2.439 2.439 0 0 1-.475 0 2.11 2.11 0 0 1-1.844-2.327z"/>
        <path fill="url(#b)" fill-rule="nonzero" d="M155.274 29.93c.304.313.618.64.95.95a2.22 2.22 0 0 0 3.199 0 235.72 235.72 0 0 0 1.848-1.9v15.77a2.232 2.232 0 0 0 2.229 2.241h2.742a2.247 2.247 0 0 0 2.243-2.242V22.13a2.232 2.232 0 0 0-2.243-2.227h-3.018a2.22 2.22 0 0 0-1.573.641c-2.105 2.076-4.22 4.152-6.32 6.242a2.227 2.227 0 0 0-.057 3.144zM152 44.75V22.13a2.223 2.223 0 0 0-2.238-2.228h-3.022a2.21 2.21 0 0 0-1.559.641 1679.749 1679.749 0 0 0-6.334 6.242 2.237 2.237 0 0 0-.038 3.144c.318.314.617.642.95.95a2.234 2.234 0 0 0 3.212 0c.618-.627 1.222-1.258 1.84-1.9v15.77a2.242 2.242 0 0 0 2.238 2.242h2.732a2.238 2.238 0 0 0 2.22-2.242zm25.69-24.259a25.266 25.266 0 0 1 .18 25.426 25.288 25.288 0 0 1-22.028 12.716A25.288 25.288 0 0 1 133.9 45.771a25.607 25.607 0 0 1-1.796-3.8c0-.053-.038-.09-.053-.143-4.419-12.288 1.254-25.918 13.089-31.447 11.834-5.529 25.934-1.136 32.53 10.134l.02-.024z"/>
        <path fill="#C8602D" fill-rule="nonzero" d="M155.103 73.61c1.796-1.61 3.597.404 3.597.404l-3.597-.404z"/>
        <path fill="#231F20" fill-rule="nonzero" d="M156.928 75.525c-.038.427-.29.74-.566.717-.275-.024-.475-.39-.403-.817.07-.428.29-.741.565-.717.276.023.442.403.404.817z"/>
        <path fill="#45C2B1" fill-rule="nonzero" d="M155.54 180.329h-7.888v-4.09a2.208 2.208 0 0 0-.418-1.306c.138-.1.276-.205.428-.304h7.199c.266 1.638.494 3.534.68 5.7z"/>
        <path fill="#FFF" fill-rule="nonzero" d="M152 22.13v22.62a2.237 2.237 0 0 1-2.238 2.241h-2.732a2.242 2.242 0 0 1-2.239-2.242V29.022c-.617.618-1.22 1.25-1.839 1.9a2.234 2.234 0 0 1-3.212 0c-.314-.313-.613-.641-.95-.95a2.237 2.237 0 0 1 .038-3.144c2.113-2.09 4.224-4.17 6.334-6.242a2.213 2.213 0 0 1 1.559-.641h3.022A2.224 2.224 0 0 1 152 22.13z"/>
        <path fill="#CE9065" fill-rule="nonzero" d="M151.515 84.407a5.604 5.604 0 0 0 5.26-.95c-.075.39-.19.95-.275 1.382-.028.114-.038.214-.066.314-.048.29-.086.475-.086.475-2.09.831-4.58-.375-6.396-2.052.457.383.99.666 1.563.831z"/>
        <path fill="#231F20" fill-rule="nonzero" d="M152.974 76.066c.404.038.366 2.703.09 2.969a.594.594 0 0 1-.821-.086c-.3-.427.403-2.92.731-2.883z"/>
        <path fill="#C8602D" fill-rule="nonzero" d="M152.02 73.35l-3.541-.39s2.09-1.725 3.54.39z"/>
        <path fill="#E69E6C" fill-rule="nonzero" d="M158.073 87.742c-4.48 3.8-7.793 2.465-10.373-2.038.541.114 1.121.228 1.777.351l.475-2.48c1.815 1.678 4.305 2.884 6.396 2.053l-.342 1.71c.746.138 1.435.275 2.067.404z"/>
        <path fill="#FFF6D8" fill-rule="nonzero" d="M148.621 184.404h5.665v4.807l-1.488-1.197-1.35 1.083-1.344-1.083-1.483 1.197z"/>
        <path fill="#231F20" fill-rule="nonzero" d="M149.486 74.722c.053-.418.304-.741.57-.703.267.038.476.39.414.803-.062.413-.304.74-.565.717-.262-.024-.457-.404-.419-.817z"/>
        <path fill="#E69E6C" fill-rule="nonzero" d="M147.937 80.18a7.673 7.673 0 0 1 .033-3.99.475.475 0 0 0 .029-.124 2.09 2.09 0 0 1-.062 4.114z"/>
        <path fill="#C8602D" fill-rule="nonzero" d="M148.332 71.35c-1.901-1.07-2.443-4.708-.794-6.47 1.397-1.458 3.664-2.29 6.178-.551 9.94-.318 10.107 5.396 9.717 9.025-.717 6.579-3.373 8.55-5.189 8.493l.09-.128c.062-.1.138-.214.19-.314a.223.223 0 0 0 .048-.076 2.66 2.66 0 0 0 .166-.261l.352-.656a.171.171 0 0 1 .038-.061c.2-.404.376-.794.513-1.121.076-.176.143-.342.205-.475l.214-.59.038-.113c3.55-1.7 1.03-6.09-.062-2.58l-.475-.076.351-5.272c-3.326.655-7.58.138-10.221-1.359a13.734 13.734 0 0 0-1.008 2.228c-.062.162-.123.328-.176.475l-.175-.119z"/>
        <path fill="#E69E6C" fill-rule="nonzero" d="M155.103 73.61l3.597.404s-1.8-2.014-3.597-.404zm1.26 2.632c.275.024.527-.29.565-.717.038-.428-.138-.78-.404-.817-.266-.038-.527.299-.565.717-.038.418.137.793.403.817zm-1.312 4.75l-5.07-.57s.698 1.9 2.347 2.1c1.649.199 2.737-1.53 2.737-1.53h-.014zm-2.808-2.043c.206.246.57.284.822.086.275-.266.313-2.93-.09-2.969-.329-.038-1.032 2.456-.732 2.883zm-2.186-4.944c-.267-.038-.518.285-.57.703-.053.418.151.793.418.817.266.023.527-.29.565-.718.038-.427-.157-.779-.413-.802zm1.962-.656c-1.425-2.114-3.54-.39-3.54-.39l3.54.39zm-2.067 10.227a6.616 6.616 0 0 1-2.01-3.396 2.09 2.09 0 0 0 .062-4.114c.565-1.976-.038-2.85.527-4.603.052-.152.114-.318.176-.475.269-.77.606-1.516 1.007-2.227 2.643 1.496 6.886 2.014 10.222 1.358l-.352 5.273.476.076c1.093-3.51 3.611.878.061 2.579l-.038.114a2.02 2.02 0 0 0-1.525-.95 2.11 2.11 0 0 0-2.223 2.948 2.11 2.11 0 0 0 1.748 1.241c.158.016.317.016.475 0-.052.1-.128.214-.19.314l-.09.128a7.083 7.083 0 0 1-1.483 1.61 5.604 5.604 0 0 1-5.26.95 4.277 4.277 0 0 1-1.583-.826z"/>
        <path fill="#FFCF73" fill-rule="nonzero" d="M145.965 194.95v-10.546h2.656v4.793l1.483-1.197 1.35 1.083 1.344-1.083 1.483 1.197v-4.793h3.327v13.343a2.271 2.271 0 0 1-2.267 2.26h-9.376v-1.685h2.19v-.756h-2.19v-.77h2.19v-1.823l-2.19-.024z"/>
        <path fill="#FCB237" fill-rule="nonzero" d="M145.965 197.576h2.191v1h-2.191zM145.965 194.949h2.191v1.824h-2.191z"/>
        <path fill="url(#c)" fill-rule="nonzero" d="M147.652 180.329v4.075h-10.678v-10.45h8.397c.263 0 .524.047.77.138.316.112.603.292.841.527.094.093.178.195.252.304.274.38.42.838.418 1.306v4.1z"/>
        <path fill="#076D65" fill-rule="nonzero" d="M147.12 101.859a2.975 2.975 0 0 1-1.659.627 1.797 1.797 0 0 1-1.473-.352 4.603 4.603 0 0 1-1.359-1.976c-.266-.817-.242-1.686 1.084-6.203l5.483 1.463c-1.04 5.282-1.52 6.013-2.076 6.44z"/>
        <path fill="#FCB237" fill-rule="nonzero" d="M143.784 197.576h2.176v1h-2.176zM143.784 194.949h2.176v1.824h-2.176z"/>
        <path fill="#F58120" fill-rule="nonzero" d="M152.152 60.201a26.317 26.317 0 0 1-20.048-18.254 25.607 25.607 0 0 0 1.796 3.8c5.895 10.252 18.114 15.047 29.413 11.544 11.299-3.504 18.657-14.37 17.713-26.157-.944-11.788-9.938-21.345-21.65-23.007a26.35 26.35 0 0 1 22.135 15.868 26.33 26.33 0 0 1-3.74 26.97 26.356 26.356 0 0 1-25.619 9.25v-.014z"/>
        <path fill="#FCB237" fill-rule="nonzero" d="M143.784 198.331h2.181v1.686h-4.747v-15.613h4.747v10.545h-2.181v1.824h2.181v.803h-2.181z"/>
        <path fill="#45C2B1" fill-rule="nonzero" d="M143.713 93.955c-1.326 4.517-1.35 5.386-1.084 6.203.27.767.74 1.45 1.36 1.976.414.329.954.457 1.472.352a2.975 2.975 0 0 0 1.659-.627c.556-.428 1.036-1.16 2.076-6.441l-5.483-1.463zm-9.138 25.502c2.756-10.967 4.728-23.854 5.336-25.816-.28-.3-.67-.755-1.145-1.32-2.571-3.06-7.632-9.5-9.428-14.82-2.03-6.028-2.809-16.81-3.008-20.169l4.367.39c1.107 9.096 1.848 12.454 4.39 17.123 1.688 3.107 11.971 10.393 12.589 10.82a.043.043 0 0 1 0 .039c2.58 4.503 5.892 5.838 10.373 2.038h.024s.314-.129.832-.319c3.032-1.154 11.88-4.968 13.78-7.433 3.232-4.242 4.24-7.89 7.285-16.625l4.24 1.045c-.875 3.662-3.484 13.637-6.302 19.118-2.704 5.268-14.703 13.186-14.703 13.186-1.544 6.038-1.786 19.148-1.796 25.503l-2.656-.242c-2.908-.252-7.765-.703-12.412-1.154-3.526-.357-6.934-.708-9.262-.998-1.122-.138-1.972-.261-2.504-.366z"/>
        <path fill="#076D65" fill-rule="nonzero" d="M141.973 156.047a2.275 2.275 0 0 0-2.276-2.276h-2.214v-9.614h-3.422c1.055-10.418 2.058-18.53 3.008-24.334 2.329.29 5.736.641 9.262.998-.29 3.282-.527 6.73-.694 10.35-1.977 14.193-3.093 26.99-3.35 38.39h-.314v-13.514z"/>
        <path fill="#FFCF73" fill-rule="nonzero" d="M138.224 195.315h2.994v2.579h-2.994z"/>
        <path fill="#2FB7EC" fill-rule="nonzero" d="M139.697 153.771a2.276 2.276 0 0 1 2.276 2.276v13.5h-10.787v-6.176h3.92v-4h-3.924v-5.6h8.515z"/>
        <path fill="#FFCF73" fill-rule="nonzero" d="M138.904 184.404v5.586h-7.466v-5.586h5.541z"/>
        <path fill="url(#d)" fill-rule="nonzero" d="M124.291 192.204h-3.212v-.95h3.212v-2.09h-3.212v-19.618h13.62a2.276 2.276 0 0 1 2.275 2.266v12.592h-6.43a2.277 2.277 0 0 0-2.275 2.28v13.333h-7.19v-5.7h3.212v-2.113z"/>
        <path fill="#2FB7EC" fill-rule="nonzero" d="M134.698 169.546h7.589c-.024 1.496-.047 2.955-.047 4.403h-5.266v-2.137a2.276 2.276 0 0 0-2.276-2.266z"/>
        <path fill="#FCB237" fill-rule="nonzero" d="M136.76 93.993l-5.925 6.118-4.153.076-.077-4.152 5.931-6.127z"/>
        <path fill="#1A4379" fill-rule="nonzero" d="M131.186 159.357h3.925v3.999h-3.925z"/>
        <path fill="#FFCF73" fill-rule="nonzero" d="M134.85 144.157v2.138h-7.489v-2.138h7.49z"/>
        <path fill="#FFF6D8" fill-rule="nonzero" d="M128.269 200.017v-13.333a2.275 2.275 0 0 1 2.276-2.28h.893v5.586h7.47v-5.586h2.315v10.925h-2.994v2.58h2.994v2.123h-12.954v-.015z"/>
        <path fill="#006BA0" fill-rule="nonzero" d="M131.186 159.357v4h-7v-4h2.006z"/>
        <path fill="#79D6FA" fill-rule="nonzero" d="M131.186 153.771v5.586h-4.999v-5.586z"/>
        <path fill="#1A4379" fill-rule="nonzero" d="M130.483 110.466l-3.298 5.7h-4.091c.7-1.625 1.059-3.376 1.055-5.145v-.55l6.334-.005z"/>
        <path fill="#E69E6C" fill-rule="nonzero" d="M127.11 56.325a3.836 3.836 0 0 0-.13-1.206c-.36-1.098-.95-2.067-.916-3.976 0-1.097.237-2.427.78-2.921.617-.58 2.128-.513 2.375.251.475 1.45.618 4.218.618 4.218.09-1.928.717-2.655.817-1.838.214 1.9.304 3.525-.78 4.456a1.581 1.581 0 0 0-.213 1.078l-2.552-.062z"/>
        <path fill="#4EC2BE" fill-rule="nonzero" d="M128.254 136.785v7.372h-2.932v-7.372z"/>
        <path fill="#FFF6D8" fill-rule="nonzero" d="M127.361 144.157v2.138h7.49v-2.138h2.632v9.614H122.98v-7.324a2.276 2.276 0 0 1 2.276-2.275h2.105v-.015z"/>
        <path fill="#076D65" fill-rule="nonzero" d="M127.11 56.325l2.565.062.856.028c.052.475.1.893.166 1.307l-4.367-.39c-.038-.655-.052-1.03-.052-1.03l.831.023z"/>
        <path fill="#79D6FA" fill-rule="nonzero" d="M101.558 165.632v-11.875h2.352v3.615l1.497-1.748 1.463 1.335 1.46-1.335 1.496 1.748v-3.596h10.455v3.596l1.496-1.748 1.46 1.335 1.458-1.335 1.497 1.748v1.99h-2.015v4h7v6.175h-27.343a2.238 2.238 0 0 1-1.9-1.055 2.137 2.137 0 0 1-.367-1.22l-.01-1.63z"/>
        <path fill="#4EC2BE" fill-rule="nonzero" d="M121.079 192.204h3.208v2.099h-3.208zM121.079 189.149h3.208v2.09h-3.208z"/>
        <path fill="#C5E8EB" fill-rule="nonzero" d="M122.362 116.16a12.115 12.115 0 0 0-3.597-3.433 11.207 11.207 0 0 0-1.687-.865 11.77 11.77 0 0 0-3.954-.907l-2.053-3.548h-1.383a18.086 18.086 0 0 1-.475-2.694 9.116 9.116 0 0 1-.062-1.016 21.36 21.36 0 0 1 8.392.603 20.913 20.913 0 0 1 5.993 2.722c.354 1.112.557 2.268.603 3.434v.551a12.916 12.916 0 0 1-1.055 5.144l-.722.01z"/>
        <path fill="#006BA0" fill-rule="nonzero" d="M127.185 122.607h-7.327l-3.726-6.441h11.053l3.726 6.44zM120.276 153.771h5.911v3.6l-1.497-1.747-1.463 1.33-1.46-1.335-1.491 1.753z"/>
        <path fill="#C5E8EB" fill-rule="nonzero" d="M118.513 192.204h2.566v2.099h-2.566zM118.513 189.149h2.566v2.09h-2.566z"/>
        <path fill="#03928B" fill-rule="nonzero" d="M118.765 112.722a12.115 12.115 0 0 1 3.597 3.434h-5.26a21.737 21.737 0 0 0 1.663-3.434z"/>
        <path fill="url(#e)" fill-rule="nonzero" d="M119.858 122.607h7.327v14.178h-11.053v-20.624z"/>
        <path fill="#C5E8EB" fill-rule="nonzero" d="M118.513 140.395v-3.61h6.81v7.372h-.067a2.276 2.276 0 0 0-2.276 2.276v7.338h-14.147a2.281 2.281 0 0 1-2.281-2.28v-14.725h6.045v3.61l1.496-1.762 1.46 1.335 1.463-1.335 1.497 1.781z"/>
        <path fill="#03928B" fill-rule="nonzero" d="M116.132 116.16l-3.008-5.224a11.77 11.77 0 0 1 3.954.907c.585.24 1.15.53 1.687.865a21.737 21.737 0 0 1-1.664 3.434l-.969.019z"/>
        <path fill="#4EC2BE" fill-rule="nonzero" d="M114.093 138.633l-1.496 1.762v-3.61h5.916v3.61l-1.497-1.762-1.464 1.335z"/>
        <path fill="#79D6FA" fill-rule="nonzero" d="M111.071 107.407l2.053 3.548 3.008 5.21H92.885l-5.046-8.758h21.849z"/>
        <path fill="#03928B" fill-rule="nonzero" d="M109.16 103.697c.003.34.023.679.063 1.016.09.909.249 1.81.475 2.694h-6.691a20.663 20.663 0 0 1 .024-6.755 12.952 12.952 0 0 1 6.833-2.684 17.881 17.881 0 0 0-.703 5.729z"/>
        <path fill="#2FB7EC" fill-rule="nonzero" d="M108.453 122.402v-6.241h7.68v20.624h-9.581v9.785H95.841a2.97 2.97 0 0 1-2.956-2.954V116.16h8.207v6.241l1.939-1.558 1.734 1.425 1.754-1.425 1.934 1.558z"/>
        <path fill="#006BA0" fill-rule="nonzero" d="M103.03 120.844l-1.938 1.558v-6.236h7.36v6.236l-1.933-1.558-1.754 1.406zM103.91 153.771h5.916v3.6l-1.497-1.747-1.459 1.335-1.463-1.335-1.497 1.748z"/>
        <path fill="#C5E8EB" fill-rule="nonzero" d="M102.902 100.738c.041-.032.084-.06.129-.086a20.663 20.663 0 0 0-.024 6.755h-4.586a13.12 13.12 0 0 1 4.481-6.67zM101.558 167.27c-.005.436.122.861.366 1.222v3.833l-2.091-1.653-1.901 1.51-1.849-1.51-2.076 1.672v-6.712h7.55v1.639z"/>
        <path fill="#006BA0" fill-rule="nonzero" d="M98.336 182.77v17.247H85.382v-6.037h2.984v-2.58h-2.984v-10.924h10.673a2.277 2.277 0 0 1 2.28 2.294z"/>
        <path fill="#4EC2BE" fill-rule="nonzero" d="M94.007 165.632v6.693l2.076-1.672 1.873 1.51 1.9-1.51 2.077 1.672v-3.833a2.238 2.238 0 0 0 1.9 1.054h17.246v19.603h-2.566v2.09h2.566v.95h-2.566v2.105h2.566v5.7H98.336V182.77a2.275 2.275 0 0 0-2.281-2.275h-6.43v-12.597a2.261 2.261 0 0 1 1.901-2.228c.119-.025.24-.038.361-.038h2.12z"/>
        <path fill="#1A4379" fill-rule="nonzero" d="M92.885 116.166v6.15h-3.55z"/>
        <path fill="#076D65" fill-rule="nonzero" d="M88.39 124.24l-.841-1.923h5.336v3.961h-4.947c.586-.504.77-1.333.452-2.037z"/>
        <path fill="#FCB237" fill-rule="nonzero" d="M103.91 153.771h-2.352v11.875h-9.656c-.122 0-.243.013-.362.038V146.57h15.012v4.921a2.28 2.28 0 0 0 2.281 2.28h-4.923z"/>
        <path fill="#1A4379" fill-rule="nonzero" d="M85.382 191.401h2.984v2.579h-2.984z"/>
        <path fill="#03928B" fill-rule="nonzero" d="M87.938 126.278h4.947v17.319a2.97 2.97 0 0 0 2.956 2.954H84.465v-2.199h2.85v-.983h-2.85v-1.04h2.85v-2.375h-2.85v-13.676h3.473z"/>
        <path fill="#4EC2BE" fill-rule="nonzero" d="M84.465 143.388h2.832v1h-2.832zM84.465 139.982h2.832v2.365h-2.832z"/>
        <path fill="#006BA0" fill-rule="nonzero" d="M82.402 191.401h2.984v2.579h-2.984z"/>
        <path fill="#FFF" fill-rule="nonzero" d="M80.725 111.544l2.38 5.363-7.336 3.244-2.367-5.372z"/>
        <path fill="#C5E8EB" fill-rule="nonzero" d="M83.006 142.348h-1.388v-2.366h2.847v2.366z"/>
        <path fill="#4EC2BE" fill-rule="nonzero" d="M84.465 146.57H70.09a.76.76 0 0 1-.756-.764v-19.528h3.916v6.242l1.939-1.563 1.749 1.425 1.748-1.425 1.901 1.563v-6.242h3.854v13.704H81.59v2.375h2.851v1.04H81.59v.984h2.851l.024 2.19z"/>
        <path fill="#C5E8EB" fill-rule="nonzero" d="M81.618 143.388h2.847v.983H81.618z"/>
        <path fill="#1A4379" fill-rule="nonzero" d="M74.547 180.495h7.475v5.586h-7.475z"/>
        <path fill="#B4DADB" fill-rule="nonzero" d="M79.252 120.578h1.915l.694 1.212h.01l.945 1.634 1.121 1.947.528.907H69.334l-3.298-5.7h7.88z"/>
        <path fill="#FCB237" fill-rule="nonzero" d="M80.107 120.037a3.357 3.357 0 1 1 3.83 5.334l-1.121-1.947a1.382 1.382 0 0 0-.09-.87 1.32 1.32 0 0 0-.856-.77l-.694-1.206h-1.9c.253-.214.533-.396.831-.541z"/>
        <path fill="#03928B" fill-rule="nonzero" d="M80.61 126.278v6.242l-1.924-1.563-1.748 1.41-1.75-1.41-1.938 1.563v-6.242z"/>
        <path fill="#FCB237" fill-rule="nonzero" d="M80.145 146.57v6.698h-7.902v-6.698h1.373z"/>
        <path fill="#FFCF73" fill-rule="nonzero" d="M70.09 146.57h2.153v6.698h7.902v-6.698H91.55v19.1a2.261 2.261 0 0 0-1.9 2.228v12.597H63.351v-31.673a2.276 2.276 0 0 1 2.276-2.266l4.462.014z"/>
        <path fill="#076D65" fill-rule="nonzero" d="M69.5 110l-2.632-.456-3.816-5.382 3.716-2.631 3.826 5.386-.552 3.169zM69.334 126.278v6.441H65.61z"/>
        <path fill="#FED16D" fill-rule="nonzero" d="M56.295 91.955c-1.207 1.525-2.115 2.655-2.115 2.655s.238 1.853.566 4.96c.427 4.212.983 10.73 1.211 18.05l-2.228.265c-4.752.185-14.527.314-19.084.366h-2.443c1.625-6.73 2.13-11.087 1.687-15.49a42.967 42.967 0 0 0-1.183-6.365s-1.535-1.06-3.474-2.731c-2.694-2.328-6.177-5.838-7.427-9.358a57.16 57.16 0 0 1-3.222-16.335l3.802-.55c1.672 6.174 1.9 9.789 4.984 15.2a13.682 13.682 0 0 0 3.669 3.923 35.401 35.401 0 0 0 6.886 3.952c.475 1.372.95 2.707 1.468 3.99 1.578 3.961 3.326 7.41 5.465 9.609a34.354 34.354 0 0 0 2.338-9.638c.171-1.604.26-3.217.266-4.83a38.748 38.748 0 0 0 4.994-3.506 32.989 32.989 0 0 0 5.627-6.27c2.756-3.662 4.015-10.45 4.433-13.234l3.94.651c-1.65 12.108-3.008 14.397-5.342 18.083-1.088 1.748-3.221 4.541-4.818 6.603z"/>
        <path fill="#F5B335" fill-rule="nonzero" d="M66.455 67.27l-3.94-.652c.11-.77.162-1.22.162-1.22l.879.123 2.28.352.794.114c-.066.441-.114.869-.175 1.282z"/>
        <path fill="#A75248" fill-rule="nonzero" d="M63.508 64.476c-.855-.95-.565-2.413-.128-4.061.19-.717.656 0 .475 1.734.234-1.255.6-2.48 1.093-3.658.328-.655 1.687-.518 2.153.062.466.58.451 1.734.328 2.703-.228 1.714-.856 2.493-1.321 3.434a3.447 3.447 0 0 0-.29 1.183l-2.281-.352c.11-.341.1-.71-.029-1.045z"/>
        <path fill="url(#f)" fill-rule="nonzero" d="M63.352 173.964v6.53h-1.378a2.277 2.277 0 0 0-2.281 2.276v17.247h-10.65v-15.613h-8.168v-8.165c-.009-.502.16-.991.475-1.382a2.187 2.187 0 0 1 1.787-.893h20.215z"/>
        <path fill="#1A4379" fill-rule="nonzero" d="M62.525 186.08v-5.585h7.465v5.586z"/>
        <path fill="#79D6FA" fill-rule="nonzero" d="M59.693 182.77a2.275 2.275 0 0 1 2.28-2.275h.552v5.586h7.48v-5.586h4.557v5.586h7.474v-5.586h3.36v10.925h-2.98V194h2.98v6.036H59.693V182.77z"/>
        <path d="M58.286 22.572v24.125a2.376 2.376 0 0 1-2.376 2.375h-2.937a2.376 2.376 0 0 1-2.376-2.375V29.915L48.62 31.93a2.376 2.376 0 0 1-3.412 0l-.993-1.035a2.374 2.374 0 0 1 .038-3.359c2.253-2.216 4.502-4.433 6.748-6.65a2.377 2.377 0 0 1 1.673-.679h3.217a2.377 2.377 0 0 1 2.395 2.366z"/>
        <path fill="#F5B335" fill-rule="nonzero" d="M46.677 169.722c-2.253 0-4.415 0-6.453-.052a391.688 391.688 0 0 1-6.653-.152c-1.65-.048-3.146-.1-4.467-.162l5.54-51.115c4.558-.052 14.314-.18 19.085-.365.336 1.824.652 3.686.95 5.586 2.13 13.426 3.406 28.827 3.83 46.203-1.739.024-3.464.047-5.16.047-2.29.048-4.52.048-6.672.01z"/>
        <path fill="#352527" fill-rule="nonzero" d="M56.295 91.955c1.359 2.745.527 5.41-1.55 7.6-.327-3.107-.565-4.96-.565-4.96s.908-1.115 2.115-2.64z"/>
        <path fill="#A75248" fill-rule="nonzero" d="M53.087 173.546l-6.52-.2.11-3.61c2.152.024 4.381.024 6.653 0l-.243 3.81zM46.073 82.355a1.833 1.833 0 0 1 1.664-2c.066-.004.133-.004.2 0a.071.071 0 0 1 0 .053c.033.107.062.217.085.327a.038.038 0 0 1 0 .038c.036.136.062.274.076.414.076.448.089.906.038 1.358-.04.337-.112.67-.214.993-.047.161-.103.32-.166.475a1.815 1.815 0 0 1-1.683-1.658z"/>
        <path fill="#1A4379" fill-rule="nonzero" d="M53.41 173.964h-7.337c.085-.253.253-.47.476-.618l6.52.2c.303-.024.394.114.341.418z"/>
        <path fill="url(#g)" fill-rule="nonzero" d="M44.263 77.197c1.207-1.26 3.07 0 3.07 0h-3.07z"/>
        <path fill="url(#h)" fill-rule="nonzero" d="M45.988 78.38c.237 0 .475.265.513.64.038.376-.138.708-.375.732-.238.024-.476-.266-.504-.641-.029-.375.147-.703.366-.732z"/>
        <path fill="#A75248" fill-rule="nonzero" d="M47.195 94.458a34.354 34.354 0 0 1-2.329 9.638c-2.152-2.2-3.887-5.648-5.464-9.61 2.646 1.582 5.227 1.473 7.793-.028z"/>
        <path fill="url(#i)" fill-rule="nonzero" d="M45.118 84.18s-.428 1.12-1.425 1.22c-.998.1-1.611-.95-1.611-.95l3.036-.27z"/>
        <path fill="#A75248" fill-rule="nonzero" d="M44.79 87.3l.238 2.555c.893-.09 1.725-.161 2.433-.228a47.167 47.167 0 0 1-.266 4.831c-2.566 1.501-5.147 1.61-7.793.029a104.01 104.01 0 0 1-1.469-3.99l1.901-.176-.048-.58-.128-1.425c1.122.376 4.153.2 5.061-.983a.1.1 0 0 0 .071-.033z"/>
        <path fill="#FCB237" fill-rule="nonzero" d="M42.562 197.576h2.176v1h-2.176z"/>
        <path fill="#FFCF73" fill-rule="nonzero" d="M44.743 196.773v-1.824h-2.181v-10.545h6.481v15.613h-6.481v-1.686h2.18v-.755h-2.18v-.803z"/>
        <path fill="#FCB237" fill-rule="nonzero" d="M42.562 194.949h2.176v1.824h-2.176z"/>
        <path fill="url(#j)" fill-rule="nonzero" d="M40.727 46.697V22.572a2.376 2.376 0 0 0-2.376-2.375h-3.24a2.377 2.377 0 0 0-1.673.679 6727.334 6727.334 0 0 0-6.748 6.65 2.374 2.374 0 0 0-.048 3.358c.338.342.666.68.994 1.036a2.42 2.42 0 0 0 2.756.475c.247-.12.471-.28.665-.475.656-.665 1.312-1.345 1.977-2.014v16.79a2.376 2.376 0 0 0 2.376 2.376h2.918a2.377 2.377 0 0 0 2.4-2.375zm3.484-15.827l.993 1.035a2.376 2.376 0 0 0 3.412 0l1.976-2.014v16.806a2.376 2.376 0 0 0 2.376 2.375h2.923a2.376 2.376 0 0 0 2.376-2.375V22.572a2.376 2.376 0 0 0-2.376-2.375h-3.222a2.377 2.377 0 0 0-1.673.674 6727.334 6727.334 0 0 0-6.747 6.65 2.375 2.375 0 0 0-.038 3.363v-.014zm22.42-9.785a26.044 26.044 0 0 1 3.046 17.917c0 .062 0 .114-.029.176-2.299 11.844-12.405 20.58-24.462 21.144-12.057.564-22.936-7.19-26.332-18.767-3.395-11.579 1.574-23.976 12.027-30.008a28.257 28.257 0 0 1 2.29-1.183c12.253-5.55 26.718-.914 33.46 10.72z"/>
        <path fill="url(#k)" fill-rule="nonzero" d="M43.027 82.27c-.2-.205-.2-2.214.09-2.242.29-.029.718 1.862.476 2.18a.404.404 0 0 1-.566.062z"/>
        <path fill="#FFCF73" fill-rule="nonzero" d="M40.371 197.576h2.191v1h-2.191zM40.371 194.949h2.191v1.824h-2.191z"/>
        <path fill="#FFF6D8" fill-rule="nonzero" d="M42.562 184.404v10.545H40.37v1.848h2.19v.803h-2.19v.755h2.19v1.686h-9.36a2.276 2.276 0 0 1-2.282-2.26v-13.377h3.327v4.793L35.733 188l1.345 1.083 1.35-1.083 1.477 1.197v-4.793h2.657z"/>
        <path fill="url(#l)" fill-rule="nonzero" d="M41.33 77.515l-3.036.475s1.64-1.534 3.037-.475z"/>
        <path fill="#8E4742" fill-rule="nonzero" d="M44.714 87.338c-.907 1.183-3.94 1.358-5.06.983l-.039-.342c-.033-.451-.109-1.244-.147-1.686a6.103 6.103 0 0 0 4.163 1.335c.375-.03.743-.129 1.083-.29z"/>
        <path fill="#1A4379" fill-rule="nonzero" d="M39.972 173.546c.503.475.95.893 1.383 1.296-.316.391-.484.88-.476 1.383v5.372h-4.447c-.818-1.734-1.046-2.237-2.087 0h-2.984c.414-4 0-5.486.062-6.54.038-.856.328-1.45 2.029-1.787v.1l6.52.176z"/>
        <path fill="#A75248" fill-rule="nonzero" d="M40.224 169.684l-.252 3.862-6.52-.2v-.1l.11-3.7c2.014.052 4.257.1 6.662.138z"/>
        <path fill="url(#m)" fill-rule="nonzero" d="M40.675 79.553c.038.375-.138.703-.38.726-.242.024-.475-.26-.475-.64s.123-.704.36-.728c.238-.023.457.262.495.642z"/>
        <path fill="#A75248" fill-rule="nonzero" d="M40.067 82.887a1.842 1.842 0 0 1-1.678 2 .918.918 0 0 1-.161 0 4.032 4.032 0 0 1-.276-.475 16.299 16.299 0 0 1-1.14-2.565 1.777 1.777 0 0 1 1.23-.627 1.854 1.854 0 0 1 2.025 1.667z"/>
        <path fill="#A75248" fill-rule="nonzero" d="M41.33 77.515c-1.396-1.06-3.036.475-3.036.475l3.037-.475zm-1.035 2.764c.242 0 .418-.351.38-.726-.038-.376-.266-.67-.518-.642-.252.029-.4.352-.361.727.038.375.27.67.499.641zm2.823-.251c-.29.028-.29 2.037-.09 2.242a.404.404 0 0 0 .579-.062c.228-.318-.252-2.204-.49-2.18zm2 4.151l-3.046.28s.58 1.031 1.611.95c1.031-.08 1.435-1.23 1.435-1.23zm.95-1.824a1.815 1.815 0 0 0 1.711 1.663c.064-.156.12-.314.167-.475a6.024 6.024 0 0 1-3.16 3.762.1.1 0 0 1-.076.038c-.341.16-.708.259-1.084.29a6.103 6.103 0 0 1-4.163-1.335 5.269 5.269 0 0 1-1.183-1.283l-.076-.123a.918.918 0 0 0 .162 0 1.84 1.84 0 1 0-.328-3.663 1.778 1.778 0 0 0-1.226.618c.3.882.675 1.737 1.121 2.555a10.448 10.448 0 0 1-.95-2.1c-1.312-.403-1.763-1.31-1.763-2.037 0-.921.703-1.586 1.368-.68 0 0-.07-1.158-.07-1.6 2.55-1.734 4.466-3.496 5.397-5.225 1.383 2.375 3.902 3.173 5.536 3.287.856 1.758-.213 2.152.476 4.213a.256.256 0 0 1 0 .1 1.398 1.398 0 0 0-.2 0 1.834 1.834 0 0 0-1.654 1.995h-.004zm-1.81-5.158h3.07s-1.858-1.26-3.065 0h-.005zm1.36 1.9c.037.375.265.665.503.64.237-.023.413-.35.375-.73-.038-.38-.275-.666-.513-.642-.238.024-.4.366-.361.746l-.005-.014z"/>
        <path fill="#FFCF73" fill-rule="nonzero" d="M34.24 184.404h5.665v4.807l-1.482-1.197-1.35 1.083-1.345-1.083-1.487 1.197z"/>
        <path fill="#352527" fill-rule="nonzero" d="M39.782 89.741l.047.58-1.9.176a35.401 35.401 0 0 1-6.891-3.952 18.76 18.76 0 0 0 1.107-6.275h3.046c0 .727.475 1.634 1.763 2.038.239.732.557 1.437.95 2.1.082.164.174.322.276.474l.076.124c.32.49.72.923 1.184 1.282.038.442.114 1.235.147 1.686 0 .205.028.342.028.342l.167 1.425z"/>
        <path fill="#352527" fill-rule="nonzero" d="M48.05 80.773a.038.038 0 0 0 0-.038 1.391 1.391 0 0 0-.085-.327.071.071 0 0 0 0-.053.256.256 0 0 0 0-.1c-.694-2.06.375-2.455-.476-4.213-1.634-.114-4.153-.907-5.536-3.287-.95 1.739-2.85 3.501-5.398 5.225 0 .442.071 1.601.071 1.601-.665-.907-1.368-.242-1.368.68h-3.103v-.115c-.205-15.062 14.73-12.772 16.632-7.438 1.425 4.066 1.259 8.042 2.552 11.238.31.744.686 1.46 1.121 2.138a38.748 38.748 0 0 1-4.994 3.52c-.708.066-1.54.137-2.433.228l-.238-2.556a6.024 6.024 0 0 0 3.16-3.762c.111-.32.183-.654.214-.993.051-.452.038-.91-.038-1.358a2.521 2.521 0 0 0-.08-.39zM32.706 96.41c.554 2.09.95 4.217 1.183 6.365a9.36 9.36 0 0 1-1.558-1.596c-2.32-3.006-3.085-5.362-3.099-7.5 1.94 1.672 3.474 2.731 3.474 2.731z"/>
        <path d="M27.636 31.92a41.037 41.037 0 0 0-.994-1.036 2.374 2.374 0 0 1 .048-3.358 3363.64 3363.64 0 0 1 6.748-6.65 2.377 2.377 0 0 1 1.672-.68h3.222a2.376 2.376 0 0 1 2.376 2.376v24.125a2.376 2.376 0 0 1-2.376 2.375h-2.917a2.376 2.376 0 0 1-2.376-2.375V29.915c-.666.67-1.321 1.35-1.977 2.014a2.447 2.447 0 0 1-.666.475 2.42 2.42 0 0 1-2.76-.484z"/>
        <path fill="url(#n)" fill-rule="nonzero" d="M40.875 181.597v2.85h-9.98v13.3a2.276 2.276 0 0 0 2.281 2.26H22.161V181.65c0-.047 0-.076.076-.076h18.638v.024z"/>
        <path fill="#A75248" fill-rule="nonzero" d="M19.001 65.018c-.39-.95-.95-1.796-1.06-3.52-.047-.95.067-2.19.518-2.67.528-.55 1.901-.589 2.163.09.403 1.218.679 2.474.822 3.748-.038-1.733.475-2.441.613-1.71.304 1.687.475 3.145-.428 4.052-.2.2-.176.78-.071 1.425l-2.376.356a4.862 4.862 0 0 0-.18-1.771z"/>
        <path fill="#F5B335" fill-rule="nonzero" d="M22.36 67.435l-3.777.551V66.87l.642-.1 2.376-.356.475-.076c.085.38.195.746.285 1.097z"/>
        <path fill="#F58120" fill-rule="nonzero" d="M21.306 47.243a26.173 26.173 0 0 0 26.971 12.712 26.164 26.164 0 0 0 21.371-20.787c-1.649 13.235-12.662 23.32-25.996 23.803-13.334.484-25.05-8.775-27.654-21.856-2.605-13.08 4.67-26.118 17.174-30.775-.78.352-1.535.756-2.29 1.207a26.115 26.115 0 0 0-9.575 35.696h-.001z"/>
        <path fill="#FFF" fill-rule="nonzero" d="M58.286 22.572v24.125a2.376 2.376 0 0 1-2.376 2.375h-2.937a2.376 2.376 0 0 1-2.376-2.375V29.915c-.65.675-1.316 1.35-1.967 2.01a2.376 2.376 0 0 1-3.412 0c-.342-.357-.675-.685-.993-1.027a2.374 2.374 0 0 1 .033-3.358c2.253-2.218 4.495-4.427 6.748-6.65a2.376 2.376 0 0 1 1.668-.684h3.217a2.377 2.377 0 0 1 2.395 2.366z"/>
        <path fill="#231F20" fill-rule="nonzero" d="M44.258 77.197c1.217-1.26 3.07 0 3.07 0h-3.07zM45.983 78.38c.242 0 .475.26.518.636.043.375-.133.708-.375.74-.243.034-.476-.265-.509-.65-.033-.385.152-.693.366-.727z"/>
        <path fill="#F2F2F2" fill-rule="nonzero" d="M41.24 84.117l4.135-.375s-.585 1.525-1.944 1.658-2.19-1.283-2.19-1.283z"/>
        <path fill="#231F20" fill-rule="nonzero" d="M43.122 80.032c.228-.033.718 1.858.476 2.176a.404.404 0 0 1-.575.057c-.2-.2-.2-2.209.1-2.233zM41.33 77.515l-3.036.475s1.635-1.534 3.037-.475z"/>
        <path fill="#FFF" fill-rule="nonzero" d="M40.723 22.572v24.125a2.376 2.376 0 0 1-2.376 2.375H35.41a2.376 2.376 0 0 1-2.376-2.375V29.915l-1.996 2.01a2.6 2.6 0 0 1-.66.474 2.429 2.429 0 0 1-2.761-.475c-.324-.356-.656-.684-.998-1.026a2.374 2.374 0 0 1 .057-3.358c2.233-2.218 4.486-4.427 6.738-6.65a2.377 2.377 0 0 1 1.677-.684h3.227a2.377 2.377 0 0 1 2.405 2.366z"/>
        <path fill="#231F20" fill-rule="nonzero" d="M40.162 78.907c.252-.024.475.266.518.64.043.376-.143.709-.385.728-.242.019-.475-.262-.475-.637s.095-.708.342-.731z"/>
        <path stroke="#FCB237" stroke-width=".55" d="M120.271 102.514c.289.08.585.133.884.157 1.52.133 3.402-.475 5.522-2.584.218-.233.475-.475.684-.741"/>
        <path stroke="#076D65" stroke-width=".55" d="M73.103 112.926a3.328 3.328 0 0 1-.723-.133A3.8 3.8 0 0 1 69.5 110c-.033-.166-.08-.342-.1-.527"/>
        <path fill="#FFCF73" fill-rule="nonzero" d="M75.769 120.15l7.337-3.243-2.376-5.363-7.323 3.235 2.362 5.372zm-3.389-7.357l7.551-3.349a1.763 1.763 0 0 1 2.32.893l5.298 11.98.84 1.924a1.743 1.743 0 0 1-.45 2.037h-3.474l-.528-.907a3.357 3.357 0 0 0-3.83-5.334 4.025 4.025 0 0 0-.855.541h-5.337c-1.297-2.916-2.428-5.486-2.428-5.486a1.748 1.748 0 0 1 .893-2.299z"/>
        <path fill="#4EC2BE" fill-rule="nonzero" d="M120.5 101.935a13.175 13.175 0 0 1 3.036 5.087 20.913 20.913 0 0 0-5.983-2.731 21.36 21.36 0 0 0-8.392-.594c-.077-1.935.16-3.87.703-5.729.39-.038.78-.061 1.17-.061a13.1 13.1 0 0 1 9.465 4.028z"/>
        <path fill="#FFF" d="M107.662 127.226a.782.782 0 0 0-.747.659l-.367 2.695c-.04.294-.18.549-.419.765a1.17 1.17 0 0 1-.806.323.88.88 0 0 1-.705-.318c-.18-.211-.25-.468-.208-.77l.221-1.636a.558.558 0 0 0-.571-.582h-.878a.783.783 0 0 0-.732.582l-.229 1.636c-.041.302-.181.56-.42.77a1.17 1.17 0 0 1-.792.318.89.89 0 0 1-.71-.323.932.932 0 0 1-.216-.765l.492-3.575a.844.844 0 0 0-.465-.86s-3.703-1.555-3.946-1.655c-.244-.101-.52.124-.615.5l-.227.901a.841.841 0 0 0 .475.952l2.482 1.035-.372 2.702c-.125.907.086 1.682.634 2.326.547.643 1.27.965 2.165.965.827 0 1.583-.281 2.266-.842.546.561 1.228.842 2.048.842.896 0 1.706-.322 2.43-.965.725-.644 1.15-1.419 1.274-2.326l.396-2.902c.034-.248-.233-.452-.594-.452h-.864z"/>
    </g>
</svg>
