<?xml version="1.0" encoding="UTF-8"?>
<svg width="400px" height="200px" viewBox="0 0 400 200" version="1.1" xmlns="http://www.w3.org/2000/svg" xmlns:xlink="http://www.w3.org/1999/xlink">
    <!-- Generator: Sketch 53.2 (72643) - https://sketchapp.com -->
    <title>Summer Preparation Dashboard Banner 200px@3x</title>
    <desc>Created with Sketch.</desc>
    <defs>
        <rect id="path-1" x="0" y="0" width="400" height="200"></rect>
    </defs>
    <g id="Summer-Preparation-Dashboard-Banner-200px" stroke="none" stroke-width="1" fill="none" fill-rule="evenodd">
        <g id="Group-14">
            <mask id="mask-2" fill="white">
                <use xlink:href="#path-1"></use>
            </mask>
            <use id="Mask" fill-opacity="0" fill="#D8D8D8" xlink:href="#path-1"></use>
            <g id="Group-15" mask="url(#mask-2)">
                <g transform="translate(56.000000, 28.000000)">
                    <g id="Fill-2" stroke-width="1" fill="none" fill-rule="evenodd" transform="translate(27.000000, 7.000000)">
                        <path d="M7.92,125.3 L259.31,125.3 C259.31,125.3 249,-6.41 188.18,0.3 C127.36,7.01 143.1,50.85 100.58,54.98 C71.36,57.82 37.08,40.6 12.35,63.53 C12.35,63.53 -12.06,85.3 7.89,125.33" id="Path" fill="#FFD55E"></path>
                    </g>
                    <rect id="Rectangle" fill="#FFFFFF" fill-rule="nonzero" transform="translate(131.703667, 92.334178) rotate(-39.900000) translate(-131.703667, -92.334178) " x="123.578667" y="62.149178" width="16.25" height="60.37"></rect>
                    <path d="M126.664874,67.2095117 C126.664874,67.2095117 113.03014,76.9890934 112.354293,63.2848363 C112.354293,63.2848363 111.536161,53.7452912 118.017185,51.2562489 C118.017185,51.2562489 123.416853,48.9613763 131.34838,52.8952251 C131.34838,52.8952251 138.083144,57.6233353 126.664874,67.2095117" id="Fill-8" fill="#141313" fill-rule="evenodd" transform="translate(122.821049, 60.590838) rotate(-26.000000) translate(-122.821049, -60.590838) "></path>
                    <rect id="Rectangle" fill="#F7A19D" fill-rule="nonzero" transform="translate(80.943602, 71.033076) rotate(-15.030000) translate(-80.943602, -71.033076) " x="78.428602" y="5.32307579" width="5.03" height="131.42"></rect>
                    <rect id="Rectangle" fill="#FFFFFF" fill-rule="nonzero" x="107.68" y="105.87" width="150.62" height="9.84"></rect>
                    <rect id="Rectangle" fill="#FFFFFF" fill-rule="nonzero" transform="translate(116.060545, 98.822558) rotate(-67.640000) translate(-116.060545, -98.822558) " x="101.815545" y="97.3125578" width="28.49" height="3.02"></rect>
                    <rect id="Rectangle" fill="#FFFFFF" fill-rule="nonzero" x="126.96" y="113.9" width="32.8" height="19.63"></rect>
                    <rect id="Rectangle" fill="#FFFFFF" fill-rule="nonzero" x="212.55" y="113.9" width="32.8" height="19.63"></rect>
                    <g id="Fill-5" stroke-width="1" fill="none" fill-rule="evenodd" transform="translate(126.000000, 66.000000)">
                        <polygon id="Path" fill="#F6BE83" points="9.97 6.13 4.75 10.39 3.47 8.85 0.4 5.16 5.62 0.89"></polygon>
                    </g>
                    <g id="Fill-7" stroke-width="1" fill="none" fill-rule="evenodd" transform="translate(126.000000, 69.000000)">
                        <path d="M7.2,0.01 C7.26,1.89 4.02,4.4 2.54,4.81 L0.67,2.55 L7.2,0.01 Z" id="Path" fill="#F4AA5F"></path>
                    </g>
                    <g id="Fill-9" stroke-width="1" fill="none" fill-rule="evenodd" transform="translate(117.000000, 54.000000)">
                        <path d="M14.09,5.09 C18.09,8.17 17.27,13.94 14.92,15.85 C12.7883947,17.4498578 9.97908887,17.8284704 7.5,16.85 C6.31803913,16.3625741 5.20786441,15.7166542 4.2,14.93 C0.51,16.08 -0.54,11.5 1.86,12.37 C1.86,12.37 0.96,11.21 0.64,10.74 C2.03,7.11 2.75,3.91 2.48,1.43 C5.07657834,2.61225796 8.0875487,2.44788737 10.54,0.99 C12.69,2.23 11.87,3.39 14.07,5.09" id="Path" fill="#F6BE83"></path>
                    </g>
                    <g id="Fill-11" stroke-width="1" fill="none" fill-rule="evenodd" transform="translate(119.000000, 60.000000)">
                        <path d="M3.58,0.89 L0.45,3.76 C0.45,3.76 1.26,0.92 3.58,0.89" id="Path" fill="#221F1F"></path>
                    </g>
                    <g id="Fill-13" stroke-width="1" fill="none" fill-rule="evenodd" transform="translate(125.000000, 56.000000)">
                        <path d="M0.23,3.19 L3.73,0.82 C3.73,0.82 0.33,0.35 0.26,3.19" id="Path" fill="#221F1F"></path>
                    </g>
                    <g id="Fill-15" stroke-width="1" fill="none" fill-rule="evenodd" transform="translate(125.000000, 62.000000)">
                        <path d="M0.95,0.5 C0.66,0.74 2.18,2.98 2.56,3.06 C2.85182427,3.07857964 3.10881727,2.86950059 3.15,2.58 L3.15,2.58 C3.15,2.06 1.15,0.33 0.94,0.58" id="Path" fill="#F7A19D"></path>
                    </g>
                    <g id="Fill-17" stroke-width="1" fill="none" fill-rule="evenodd" transform="translate(128.000000, 65.000000)">
                        <path d="M2.51,2.65 C1.77458138,3.16642811 0.822834139,3.26122365 0,2.9 L3.27,0.19 C3.42916035,1.06530474 3.14019354,1.96222768 2.5,2.58" id="Path" fill="#DB7628"></path>
                    </g>
                    <g id="Fill-23" stroke-width="1" fill="none" fill-rule="evenodd" transform="translate(130.000000, 59.000000)">
                        <path d="M1.4,0.48 L1.21,0.61 C0.241367637,1.45396325 0.13001502,2.9193637 0.96,3.9 C1.66597961,4.82974851 2.95834521,5.07960586 3.96,4.48 C3.60838282,2.90010185 2.72605373,1.48837531 1.46,0.48" id="Path" fill="#F7A19D"></path>
                    </g>
                    <g id="Fill-25" stroke-width="1" fill="none" fill-rule="evenodd" transform="translate(120.000000, 66.000000)">
                        <path d="M5.19,1.54 C4.5786639,0.806042702 3.58901945,0.506580069 2.67332016,0.778462283 C1.75762086,1.0503445 1.09174955,1.84134981 0.98,2.79 C2.1193467,3.67096943 3.36184562,4.40975257 4.68,4.99 L4.85,4.88 C5.85463755,4.05085047 6.01029217,2.56990791 5.2,1.55 L5.2,1.55" id="Path" fill="#F7A19D"></path>
                    </g>
                    <path d="M121.73,64.6 L121.73,64.35 C122.65,64.35 123.25,64.13 123.44,63.78 C123.549515,63.5524933 123.549515,63.2875067 123.44,63.06 L123.66,62.93 C123.820272,63.244068 123.820272,63.615932 123.66,63.93 C123.4,64.3 122.73,64.58 121.73,64.6 Z" id="Path" fill="#221F1F" fill-rule="nonzero"></path>
                    <path d="M127.2,60.77 L127.2,60.52 C128.13,60.52 128.71,60.3 128.91,59.95 C129.019515,59.7224933 129.019515,59.4575067 128.91,59.23 L129.13,59.11 C129.308633,59.4194011 129.308633,59.8005989 129.13,60.11 C128.88,60.51 128.23,60.75 127.2,60.77 Z" id="Path" fill="#221F1F" fill-rule="nonzero"></path>
                    <path d="M139.01,67.68 L159.73,73.81 C159.73,73.81 162.88,60.36 164.24,60.89 C164.24,60.89 170.24,60.31 164.58,75.29 C164.58,75.29 163.73,81.16 158.37,79.63 L140.89,74.63 C140.89,74.63 137.81,68.66 139.01,67.68 Z" id="Path" fill="#FBBE83" fill-rule="nonzero"></path>
                    <polygon id="Path" fill="#FFFFFF" fill-rule="nonzero" points="159.76 49.8 160.98 62.32 166.51 62.32 167.66 49.8"></polygon>
                    <polygon id="Path" fill="#FFFFFF" fill-rule="nonzero" points="162.28 51.89 160.01 46.2 157.05 47.53 156.74 46.85 160.42 45.19 162.98 51.61"></polygon>
                    <polygon id="Path" fill="#F7A19D" fill-rule="nonzero" points="160.45 51.75 166.5 51.75 165.67 60.87 162.01 60.87"></polygon>
                    <g id="Sunglasses" stroke-width="1" fill="none" fill-rule="evenodd" transform="translate(108.000000, 128.000000)">
                        <g id="Fill-1" fill="#DD7728">
                            <path d="M1.25,0.61 C4.61732389,0.749619875 7.96471228,1.19816992 11.25,1.95 C13.4535675,2.90874681 15.9045753,3.14334328 18.25,2.62 C21.444581,2.15867683 24.6757083,2.00130586 27.9,2.15 C29.9,2.23 30.46,2.15 30.43,2.65 C30.3924554,3.13478891 30.3189194,3.61611557 30.21,4.09 C30.1399142,4.35007355 29.9507098,4.56153739 29.7,4.66 C29.4847317,4.74547374 29.3219006,4.92680834 29.26,5.15 C28.9486103,6.82819386 28.3097905,8.42864127 27.38,9.86 C26.1125106,10.9560139 24.4611305,11.5028762 22.79,11.38 C20.1887088,11.539143 17.7753038,10.0227202 16.79,7.61 L16.02,5.42 C15.96,5.22 15.02,3.19 13.54,6.64 C12.4986552,9.41034065 9.6368725,11.0510401 6.72,10.55 C4.48,10.13 1.32,9.06 1.34,4.91 C1.37605093,4.36940061 1.28352463,3.8279504 1.07,3.33 C0.74,2.79 0.13,2.75 0.22,1.86 C0.31,0.97 0.05,0.51 1.15,0.65" id="Path"></path>
                        </g>
                        <g id="Fill-3-2" transform="translate(0.000000, 1.000000)" fill="#4B606F">
                            <path d="M2.3,1.56 L1.23,1.49 C1.15139346,1.49547479 1.07394329,1.46872711 1.01546785,1.41591059 C0.956992417,1.36309407 0.922526713,1.28875644 0.92,1.21 L0.92,1.09 C0.919658996,0.926307526 1.04664818,0.790560472 1.21,0.78 L2.28,0.84 C2.44201401,0.834242265 2.57929453,0.958237571 2.59,1.12 L2.59,1.3 C2.59575024,1.46752972 2.46728549,1.60928392 2.3,1.62" id="Path"></path>
                        </g>
                        <g id="Fill-5-2" transform="translate(27.000000, 3.000000)" fill="#4B606F">
                            <path d="M2.2,0.9 L1.14,0.9 C0.983290799,0.911636101 0.845824513,0.796341797 0.83,0.64 L0.83,0.48 C0.827303173,0.400422982 0.856351633,0.323038023 0.910746449,0.26489184 C0.965141266,0.206745656 1.04042003,0.172608406 1.12,0.17 L2.18,0.17 C2.25960726,0.164515131 2.33811963,0.190971428 2.39817223,0.243517454 C2.45822483,0.296063479 2.494869,0.370369149 2.5,0.45 L2.5,0.59 C2.49623576,0.753891705 2.37273145,0.890172322 2.21,0.91" id="Path"></path>
                        </g>
                        <g id="Fill-7-2" transform="translate(2.000000, 1.000000)" fill="#4B606F">
                            <path d="M8.1,8.22 C7.06426192,8.76941444 5.87649475,8.96269017 4.72,8.77 C2.52,8.36 0.35,7 0.41,4.23 C0.47,1.46 1.97,0.23 5.14,0.7 C6.73058829,0.810409448 8.26780489,1.31937602 9.61,2.18 C10.7900762,3.29054442 11.0319548,5.07544204 10.19,6.46 C10.052238,6.64952718 9.89468282,6.82384356 9.72,6.98 C9.24913126,7.47810867 8.69818025,7.89385698 8.09,8.21" id="Path"></path>
                        </g>
                        <g id="Fill-9-2" transform="translate(17.000000, 2.000000)" fill="#4B606F">
                            <path d="M2.79,7.73 C3.75633609,8.37966437 4.90707386,8.69892394 6.07,8.64 C8.27,8.46 10.59,7.36 10.77,4.64 C10.95,1.92 9.63,0.57 6.42,0.73 C4.82758892,0.678077561 3.24713542,1.02165441 1.82,1.73 C0.626559856,2.69007183 0.23909531,4.33885713 0.88,5.73 C0.994914632,5.93228094 1.12885402,6.12314457 1.28,6.3 C1.70019456,6.83146077 2.20736665,7.28791566 2.78,7.65" id="Path"></path>
                        </g>
                    </g>
                    <polygon id="Path" fill="#E2B070" fill-rule="nonzero" points="59.24 0.17 9.05 46.47 131.89 20.04"></polygon>
                    <path d="M1.73,46.72 L0,48.8 C14.08,51.45 19.94,44.13 19.94,44.13 L59.25,0.19 C59.25,0.19 8.03,36.08 1.73,46.72 Z" id="Path" fill="#ED8C28" fill-rule="nonzero"></path>
                    <path d="M19.94,44.13 C19.94,44.13 30.85,48.3 39.79,39.86 L59.25,0.19 L19.94,44.13 Z" id="Path" fill="#FEE381" fill-rule="nonzero"></path>
                    <path d="M59.25,0.19 L39.79,39.86 C39.79,39.86 52.27,44.3 59.58,35.61 L59.25,0.19 Z" id="Path" fill="#ED8C28" fill-rule="nonzero"></path>
                    <path d="M59.25,0.19 L59.58,35.61 C59.58,35.61 72.39,41.47 81.58,30.88 L59.25,0.19 Z" id="Path" fill="#FEE381" fill-rule="nonzero"></path>
                    <path d="M138.73,18.47 C126.49,11.63 59.01,-2.30926389e-14 59.01,-2.30926389e-14 L121.28,23.19 C121.28,23.19 131.05,27.32 141.6,19.63 L138.73,18.47 Z" id="Path" fill="#ED8C28" fill-rule="nonzero"></path>
                    <path d="M59.01,3.55271368e-15 L101.3,27.05 C114.47,30.98 121.3,23.17 121.3,23.17 L59.01,3.55271368e-15 Z" id="Path" fill="#FEE381" fill-rule="nonzero"></path>
                    <path d="M59.01,-2.84217094e-14 L81.41,30.91 C88.2129692,33.7402409 96.0495049,32.219425 101.3,27.05 L59.01,-2.84217094e-14 Z" id="Path" fill="#ED8C28" fill-rule="nonzero"></path>
                    <path d="M60.73,107.48 C52.2139473,108.785024 46.1474653,116.439684 46.8222962,125.028679 C47.4971271,133.617675 54.6846323,140.230979 63.3,140.19 C64.0631106,140.179751 64.8247348,140.119623 65.58,140.01 C50.58,127.95 58.44,111.5 60.73,107.48 Z" id="Path" fill="#DD7728" fill-rule="nonzero"></path>
                    <path d="M79.73,123.72 C79.7079465,114.645018 72.3450089,107.299973 63.27,107.3 C62.6015289,107.299815 61.9336533,107.339888 61.27,107.42 C63.74,109.61 78.03,123.42 65.98,139.97 C73.9204352,138.64459 79.7371508,131.77029 79.73,123.72 L79.73,123.72 Z" id="Path" fill="#79D6FA" fill-rule="nonzero"></path>
                    <path d="M61.32,107.38 L60.7,107.48 C58.44,111.48 50.59,127.95 65.55,140 L66.03,139.93 C78.08,123.38 63.79,109.57 61.32,107.38 Z" id="Path" fill="#FFFFFF" fill-rule="nonzero"></path>
                    <ellipse id="Oval" fill="#FEE381" fill-rule="nonzero" transform="translate(61.196151, 108.780998) rotate(-6.020000) translate(-61.196151, -108.780998) " cx="61.196151" cy="108.780998" rx="4.63" ry="1.43"></ellipse>
                    <rect id="Rectangle" fill="#ED8C28" fill-rule="nonzero" x="242.9" y="139.7" width="27.92" height="3.51" rx="1.39"></rect>
                    <rect id="Rectangle" fill="#ED8C28" fill-rule="nonzero" x="253.17" y="134.01" width="27.92" height="3.51" rx="1.39"></rect>
                    <path d="M269.92,126.19 L277.03,129.83 C277.03,129.83 276.36,133.89 275.43,134.06 L267.3,134.06 L269.92,126.19 Z" id="Path" fill="#DB7628" fill-rule="nonzero"></path>
                    <path d="M261.58,131.83 L268.69,135.47 C268.69,135.47 268.01,139.53 267.08,139.7 L258.96,139.7 L261.58,131.83 Z" id="Path" fill="#DB7628" fill-rule="nonzero"></path>
                    <path d="M210.48,105.81 L200.67,85.58 L197.15,77.03 L191.9,87.66 L195.12,88.35 L207.12,109.48 L207.12,109.82 C211.33,111.22 218.95,109.82 218.95,109.82 C217.63,107.08 213.36,106.14 210.48,105.81 Z" id="Path" fill="#F6BE83" fill-rule="evenodd"></path>
                    <path d="M225.4,105.3 L202.4,94.42 L197.3,89.36 L193.36,97.66 L199.9,99.85 L223.9,109.51 L223.95,109.37 C227.95,110.29 234.2,109.15 234.2,109.15 C232.87,106.23 228,105.47 225.4,105.3 Z" id="Path" fill="#FBBE83" fill-rule="evenodd"></path>
                    <path d="M139.01,67.68 L126.07,78.51 C126.07,78.51 142.3,82.57 139.01,67.68 Z" id="Path" fill="#F6BE83" fill-rule="nonzero"></path>
                    <polygon id="Path" fill="#2FB7EC" fill-rule="nonzero" points="197.28 77.22 192.59 98.52 157.53 101.42 164.75 87.56"></polygon>
                    <path d="M197.28,89.3 L197.86,109.67 C197.86,109.67 153.3,110.12 151.95,104.16 L161.64,91.34 L197.28,89.3 Z" id="Path" fill="#79D6FA" fill-rule="nonzero"></path>
                    <path d="M149.82,78.51 L149.82,78.51 C148.235789,76.1034124 146.327887,73.9263177 144.15,72.04 L144.15,72.04 L144.15,72.04 C141.49,69.59 139.03,67.71 139.03,67.71 L137.03,69.39 C137.808012,69.9911425 138.530875,70.6604594 139.19,71.39 C138.84,74.49 137.09,78.44 130.51,78.75 C129.744938,78.0802562 129.020329,77.3656647 128.34,76.61 L126.1,78.5 L126.01,78.5 C126.01,78.5 137.47,98.11 152.5,107.92 L165.25,87.3 C159.87701,84.7928913 154.716687,81.8532128 149.82,78.51 L149.82,78.51 Z" id="Path" fill="#DB7628" fill-rule="nonzero"></path>
                    <path d="M126.07,78.51 C126.07,78.51 123.07,90.61 143.07,105.86 C143.07,105.86 146.38,108.59 155.07,108.32 C155.07,108.32 156.07,108.12 154.32,105.86 L145.32,101.69 C145.32,101.69 133.35,84.3 126.07,78.51 Z" id="Path" fill="#FBBE83" fill-rule="nonzero"></path>
                </g>
            </g>
        </g>
    </g>
</svg>