<svg xmlns="http://www.w3.org/2000/svg" xmlns:xlink="http://www.w3.org/1999/xlink" width="465" height="200" viewBox="0 0 465 200">
    <defs>
        <path id="a" d="M.174.316h55.115v8.428H.174z"/>
        <path id="c" d="M0 31.414h435.155V.384H0z"/>
        <path id="e" d="M0 .132h111.79v51.454H0z"/>
        <path id="g" d="M.003 0h31.174v24.346H.003z"/>
        <path id="i" d="M.23.115h54.11v27.413H.23z"/>
        <path id="k" d="M0 .046h105.68v23.856H0z"/>
        <path id="m" d="M0 64.921h105.76V0H0z"/>
        <path id="o" d="M0 .108h25.09v130.781H0z"/>
        <path id="q" d="M0 130.89h25.13V0H0z"/>
        <path id="s" d="M0 .086h13.516v8.239H0z"/>
        <path id="u" d="M.007.069h6.256V4.15H.007z"/>
        <path id="w" d="M.007.069h6.256V4.15H.007z"/>
    </defs>
    <g fill="none" fill-rule="evenodd">
        <path fill="#843542" d="M362.494 5.154c103.272-31.022 94.618 87.505 89.622 102.657-4.996 15.152-32.371 99.168-150.55 91.723-118.18-7.445-104.409-47.557-236.4-45.788-131.991 1.768-36.178-109.087 47.8-132.742 83.979-23.655 146.256 15.171 249.528-15.85z"/>
        <path fill="#EDC16A" d="M29.32 158h434.554v-16.753H29.32z"/>
        <g transform="translate(29.32 140.2)">
            <path fill="#E47737" d="M140.235 18.287a.503.503 0 0 1-.2-.041c-19.423-8.593-46.037-6.718-53.731-5.938-15.667 1.59-43.465.74-43.744.733H16.167a.496.496 0 0 1-.495-.498c0-.275.22-.497.495-.497h26.41c.293.01 28.025.856 43.628-.726 7.753-.786 34.585-2.674 54.228 6.015a.498.498 0 0 1-.198.952M155.037 10.854a.384.384 0 0 1-.067-.005c-19.007-2.603-34.09-9.445-34.24-9.514a.497.497 0 0 1 .412-.905c.148.068 15.105 6.852 33.96 9.435a.495.495 0 0 1 .424.559.495.495 0 0 1-.489.43M178.455 9.46c-23.054 0-28.584-7.807-28.91-8.304a.497.497 0 0 1 .14-.688.492.492 0 0 1 .684.14c.133.197 12.697 17.509 78.399-.205a.499.499 0 0 1 .606.35.495.495 0 0 1-.349.609c-22.499 6.066-38.813 8.098-50.57 8.098M242.68 18.287a.496.496 0 0 1-.061-.99c17.858-2.278 45.057-6.114 46.793-7.346.879-.623 1.44-1.454 1.25-1.85-.196-.413-2.048-2.219-19.112 2.734a.498.498 0 0 1-.274-.955c12.43-3.61 19.254-4.353 20.277-2.21.488 1.021-.437 2.289-1.571 3.093-2.495 1.77-42.666 6.937-47.239 7.52a.452.452 0 0 1-.063.004M320.025 18.287a.491.491 0 0 1-.328-.124c-8.479-7.523-15.782-8.745-15.856-8.757a.498.498 0 0 1-.413-.568.501.501 0 0 1 .565-.414c.308.048 7.644 1.262 16.36 8.994a.499.499 0 0 1-.328.87M352.891 8.521c-19.082 0-32.889-7.09-33.095-7.197a.497.497 0 0 1 .457-.882c.307.16 30.946 15.87 63.986-.008a.498.498 0 0 1 .427.898c-11.22 5.39-22.166 7.19-31.775 7.19M361.38 18.287a.495.495 0 0 1-.43-.251.5.5 0 0 1 .186-.678c.511-.292 12.578-7.184 16.934-8.497.26-.08.539.069.616.333.079.263-.07.54-.332.619-4.249 1.28-16.605 8.338-16.73 8.41a.495.495 0 0 1-.244.064"/>
            <g transform="translate(379.867 9.543)">
                <mask id="b" fill="#fff">
                    <use xlink:href="#a"/>
                </mask>
                <path fill="#E47737" d="M.668 8.744a.5.5 0 0 1-.297-.895C10.258.402 34.33.316 35.35.316h19.445a.496.496 0 0 1 0 .994H35.35c-.247 0-24.762.086-34.384 7.335a.49.49 0 0 1-.297.099" mask="url(#b)"/>
            </g>
            <mask id="d" fill="#fff">
                <use xlink:href="#c"/>
            </mask>
            <path fill="#E7AC41" d="M395.77 31.414h12.614V17.79H395.77z" mask="url(#d)"/>
            <path fill="#E47737" d="M46.502 7.099c-1.808 0-2.875-.032-2.926-.034H.496A.496.496 0 0 1 0 6.568c0-.275.221-.497.495-.497h43.097c.276.01 25.94.795 42.483-5.651a.497.497 0 0 1 .358.927c-13.4 5.221-32.658 5.752-39.93 5.752" mask="url(#d)"/>
            <path fill="#E7AC41" d="M27.28 31.414H39.89V17.79H27.28z" mask="url(#d)"/>
        </g>
        <path fill="#FFF6E8" stroke="#F2BC45" stroke-linecap="round" stroke-linejoin="round" d="M111.896 103.021l-.272-.304-8.967-9.912c2.54-3.433 2.12-7.781-.323-9.874-1.603-1.375-4.068-1.769-6.164-.936-2.546 1.01-4.196 3.686-4.003 6.632l.005.015c-2.928-.394-5.713 1.069-6.895 3.538-.976 2.033-.75 4.516.51 6.209 1.924 2.577 6.237 3.295 9.84.997l9.077 9.4 7.192-5.765z"/>
        <path fill="#DC6757" d="M131.791 109.825c-3.435-1.527-18.318-8.639-22.37-12.485 0 0-1.673-2.138-3.172-.505l-6.312 6.873a2.286 2.286 0 0 0-.259 2.762c2.535 4.039 9.52 15.341 11.57 20.478.223.559.668.99 1.218 1.216l13.926 5.753"/>
        <path fill="#FFF6E8" stroke="#F2BC45" stroke-linecap="round" stroke-linejoin="round" d="M94.095 115.216l-12.236-5.085c.888-3.997-1.292-7.619-4.375-8.473-2.024-.562-4.42.07-5.981 1.627-1.895 1.887-2.287 4.87-.892 7.36l.012.013c-2.823.814-4.745 3.192-4.8 5.81-.044 2.157 1.187 4.231 3.031 5.205 2.812 1.486 7.024.403 9.344-3.026l12.402 4.701.3.098 3.195-8.23z"/>
        <g transform="matrix(-1 0 0 1 199.854 88.89)">
            <mask id="f" fill="#fff">
                <use xlink:href="#e"/>
            </mask>
            <path fill="#E47737" d="M4.617 51.586H107.19c3.008 0 5.21-2.785 4.448-5.648-2.13-8.012-8.298-23.05-25.801-35.137C60.71-6.553 24.119-.48 12.657 12.97c0 0-13.064 13.99-12.647 34.208.05 2.448 2.119 4.408 4.607 4.408" mask="url(#f)"/>
        </g>
        <g transform="matrix(-1 0 0 1 184.147 116.116)">
            <mask id="h" fill="#fff">
                <use xlink:href="#g"/>
            </mask>
            <path fill="#E99F22" d="M29.54 24.346c.645-13.507-11.921-13.173-11.921-13.173h7.088c3.377.288 6.157-2.18 6.445-4.91.325-3.094-2.548-6.485-6.445-6.25H10.959C1.721 1.128.003 16.754.003 16.754v7.59H29.54z" mask="url(#h)"/>
        </g>
        <g transform="matrix(-1 0 0 1 143.31 112.974)">
            <mask id="j" fill="#fff">
                <use xlink:href="#i"/>
            </mask>
            <path fill="#E99F22" d="M50.916 1.266l3.276 8.656a2.232 2.232 0 0 1-.786 2.621c-3.84 2.731-14.49 10.416-18.29 14.334a2.185 2.185 0 0 1-1.575.652H3.31c-1.01 0-1.9-.665-2.161-1.643C.25 22.525-1.228 14.8 3.81 8.796c6.379-7.603 14.956-5.202 18.694-5.3C26.244 3.397 42.63 2.515 47.8.533c0 0 2.34-1.321 3.117.733" mask="url(#j)"/>
        </g>
        <path fill="#F2BC45" d="M107.358 110.88c.183 0 .367-.07.503-.208 6.694-6.785 15.526-12.048 25.542-15.22a.676.676 0 0 0 .448-.856.704.704 0 0 0-.879-.437c-10.234 3.242-19.264 8.625-26.116 15.57a.667.667 0 0 0 .018.96c.136.129.31.191.484.191"/>
        <path fill="#E47737" d="M157.632 140.2a.72.72 0 0 0 .7-.63c.673-4.594 2.838-7.413 6.435-8.38.378-.104.606-.508.51-.904-.1-.397-.49-.635-.863-.535-2.887.777-6.528 3.073-7.483 9.594-.06.405.205.783.592.846a.69.69 0 0 0 .11.009M136.323 125.54a.66.66 0 0 0 .452-.18.818.818 0 0 0 .087-1.084c-4.819-6.269-11.085-5.747-14.83-5.442-.804.068-1.5.122-2.046.108-1.739-.05-6.118-.296-10.462-.73-.378-.03-.731.274-.766.696-.037.425.25.799.636.837 4.41.44 8.728.682 10.556.736.611.013 1.345-.041 2.188-.11 3.702-.307 9.291-.767 13.645 4.893.14.182.338.276.54.276"/>
        <g stroke="#FFF">
            <path d="M216.33 24.49c2.203 8.313 4.346 38.76 3.237 45.017-.601 5.29-2.052 8.896-4.128 11.545-2.135 2.724-5.61 7.736-5.61 9.572-1.256 9.457-.398 41.52-.398 43.06 3.1 4.1 16.903 6.41 14.174 7.412-1.887-.282-8.853-.31-16.239-.358-7.214.048-13.446.076-15.388.358-2.497-.917 8.845-2.928 13.167-6.405l1.094-37.226c-.107-2.791-.263-5.17-.485-6.841 0-1.836-3.475-6.848-5.61-9.572-2.076-2.649-3.527-6.254-4.128-11.545-1.109-6.257 1.034-36.704 3.237-45.016 2.467.494 5.095.696 8.5.71l.61.001c3.705.008 5.355-.188 7.967-.711z"/>
            <path stroke-opacity=".7" d="M196.434 24.49c2.204 8.313 4.347 38.76 3.237 45.017-.6 5.29-2.052 8.896-4.128 11.545-2.135 2.724-5.61 7.736-5.61 9.572-1.256 9.457-.397 41.52-.397 43.06 3.1 4.1 16.903 6.41 14.174 7.412-1.887-.282-8.853-.31-16.239-.358-7.214.048-13.447.076-15.388.358-2.497-.917 8.845-2.928 13.167-6.405l1.093-37.226c-.106-2.791-.262-5.17-.484-6.841 0-1.836-3.475-6.848-5.61-9.572-2.076-2.649-3.527-6.254-4.128-11.545-1.11-6.257 1.033-36.704 3.237-45.016 2.466.494 5.094.696 8.5.71l.61.001c3.705.008 5.355-.188 7.966-.711z"/>
            <g>
                <path stroke-opacity=".7" d="M314.759 24.49c2.204 8.313 4.346 38.76 3.237 45.017-.601 5.29-2.052 8.896-4.128 11.545-2.135 2.724-5.61 7.736-5.61 9.572-1.256 9.457-.397 41.52-.397 43.06 3.099 4.1 16.903 6.41 14.173 7.412-1.887-.282-8.853-.31-16.238-.358-7.214.048-13.447.076-15.389.358-2.497-.917 8.846-2.928 13.167-6.405l1.094-37.226c-.106-2.791-.262-5.17-.484-6.841 0-1.836-3.475-6.848-5.61-9.572-2.076-2.649-3.527-6.254-4.128-11.545-1.11-6.257 1.033-36.704 3.237-45.016 2.466.494 5.094.696 8.5.71l.61.001c3.704.008 5.355-.188 7.966-.711z"/>
                <path d="M294.864 24.49c2.203 8.313 4.346 38.76 3.237 45.017-.601 5.29-2.052 8.896-4.128 11.545-2.135 2.724-5.61 7.736-5.61 9.572-1.256 9.457-.397 41.52-.397 43.06 3.099 4.1 16.902 6.41 14.173 7.412-1.887-.282-8.853-.31-16.239-.358-7.214.048-13.446.076-15.388.358-2.497-.917 8.845-2.928 13.167-6.405l1.094-37.226c-.107-2.791-.263-5.17-.485-6.841 0-1.836-3.475-6.848-5.61-9.572-2.076-2.649-3.527-6.254-4.128-11.545-1.109-6.257 1.034-36.704 3.237-45.016 2.467.494 5.095.696 8.5.71l.61.001c3.705.008 5.355-.188 7.967-.711z"/>
            </g>
        </g>
        <g transform="translate(312.042 76.325)">
            <g transform="translate(0 26.178)">
                <mask id="l" fill="#fff">
                    <use xlink:href="#k"/>
                </mask>
                <path fill="#F2BC45" d="M105.68 18.858c0 1.383-.56 2.632-1.5 3.571a5.068 5.068 0 0 1-3.558 1.473H5.058c-2.799 0-5.06-2.275-5.06-5.044 0-1.384.56-2.657 1.478-3.572a5.065 5.065 0 0 1 3.582-1.475h8.905C18.034 10.507 31.55.46 51.576.06 73.168-.39 87.846 10.685 91.718 13.81h8.904c2.775 0 5.058 2.256 5.058 5.047" mask="url(#l)"/>
            </g>
            <path fill="#ECE7E0" d="M43.659 37.696a.687.687 0 0 1-.326-.083c-.36-.194-.503-.669-.324-1.058l1.687-3.66c.18-.387.617-.545.976-.352.36.194.503.668.324 1.058l-1.687 3.66a.726.726 0 0 1-.65.435M52.88 38.743c-.29 0-.524-.363-.524-.81v-5.708c0-.448.235-.811.524-.811.289 0 .523.363.523.81v5.708c0 .448-.234.811-.523.811M60.993 37.696a.79.79 0 0 1-.725-.477l-1.566-3.659a.79.79 0 0 1 .414-1.036.79.79 0 0 1 1.034.413l1.567 3.66a.79.79 0 0 1-.724 1.1"/>
            <path fill="#E28575" d="M5.236 50.262l5.593 12.513a3.66 3.66 0 0 0 3.349 2.146H91.3a3.662 3.662 0 0 0 3.322-2.087l5.9-12.572H5.237z"/>
            <mask id="n" fill="#fff">
                <use xlink:href="#m"/>
            </mask>
            <path fill="#DC6757" d="M51.309 64.921h3.141v-14.66H51.31zM41.215 64.921l-1.424-14.66h2.762l1.426 14.66zM32.46 64.921l-1.33-14.66h-2.858l1.333 14.66zM19.11 64.921l-2.356-14.66h2.88l2.356 14.66zM9.93 50.262l5.777 14.66h-1.789a3.55 3.55 0 0 1-3.252-2.147l-5.43-12.513H9.93zM64.542 64.921l1.427-14.66h-2.764l-1.425 14.66zM72.251 64.921l1.332-14.66h2.857l-1.333 14.66zM85.603 64.921l2.355-14.66h-2.88l-2.355 14.66z" mask="url(#n)"/>
            <path fill="#F2BC45" d="M36.504 24.084a.88.88 0 0 1-.625-.26.846.846 0 0 1 .016-1.212c.614-.59 2.055-2.23 2.145-4.725.107-2.841-1.615-4.723-2.147-5.232-.893-1.017-2.318-3.068-2.383-5.997-.073-3.262 1.607-5.536 2.334-6.361a.881.881 0 0 1 1.23-.088c.365.31.405.851.089 1.21-.593.675-1.968 2.534-1.908 5.201.052 2.394 1.219 4.073 1.91 4.862.609.58 2.75 2.92 2.62 6.467-.115 3.115-1.907 5.157-2.673 5.891a.874.874 0 0 1-.608.244M46.974 24.084a.88.88 0 0 1-.624-.26.847.847 0 0 1 .015-1.212c.614-.59 2.055-2.23 2.147-4.726.108-2.923-1.768-4.87-2.147-5.23-.893-1.016-2.317-3.067-2.384-5.998-.073-3.262 1.607-5.536 2.334-6.361a.88.88 0 0 1 1.23-.088c.364.31.404.851.088 1.21-.593.675-1.967 2.534-1.908 5.201.054 2.396 1.22 4.075 1.91 4.862.609.575 2.752 2.91 2.621 6.467-.117 3.115-1.908 5.157-2.673 5.891a.874.874 0 0 1-.609.244M58.493 24.084a.88.88 0 0 1-.624-.26.846.846 0 0 1 .015-1.212c.614-.59 2.055-2.23 2.146-4.725.106-2.841-1.615-4.723-2.147-5.232-.892-1.012-2.319-3.06-2.383-5.997-.074-3.262 1.606-5.536 2.334-6.361a.881.881 0 0 1 1.23-.088c.364.31.404.851.089 1.21-.594.675-1.968 2.534-1.909 5.201.054 2.492 1.354 4.23 1.909 4.86.61.582 2.752 2.923 2.621 6.47-.115 3.114-1.906 5.156-2.672 5.89a.874.874 0 0 1-.609.244M68.964 24.084a.88.88 0 0 1-.625-.26.847.847 0 0 1 .016-1.212c.614-.59 2.054-2.23 2.147-4.726.104-2.84-1.617-4.722-2.149-5.23-.891-1.016-2.316-3.067-2.382-5.998-.073-3.262 1.606-5.536 2.333-6.361a.881.881 0 0 1 1.23-.088c.364.31.404.851.089 1.21-.593.675-1.967 2.534-1.908 5.201.054 2.396 1.219 4.075 1.91 4.862.608.58 2.75 2.92 2.62 6.467-.116 3.115-1.907 5.157-2.673 5.891a.874.874 0 0 1-.608.244" mask="url(#n)"/>
            <path fill="#DC6757" d="M90.052 64.921l5.776-14.66h4.696l-5.73 12.573a3.546 3.546 0 0 1-3.223 2.087h-1.519z" mask="url(#n)"/>
        </g>
        <g transform="translate(234.555 10.357)">
            <mask id="p" fill="#fff">
                <use xlink:href="#o"/>
            </mask>
            <path fill="#DC6757" d="M25.09 53.725v77.164H0V53.725C0 43.517 3.75 34.873 8.87 32.051V.107h7.34v31.944c1.985 1.086 3.758 3.05 5.206 5.665 2.27 4.083 3.675 9.77 3.675 16.01" mask="url(#p)"/>
            <path fill="#FEFEFE" d="M1.628 63.874c-.32 0-.58-.42-.58-.936v-7.904c0-8.495 2.88-16.298 7.518-20.366.28-.245.634-.079.787.375.154.457.05 1.024-.232 1.272-4.264 3.738-6.912 10.912-6.912 18.719v7.904c0 .517-.26.936-.58.936M1.57 81.675c-.288 0-.523-.433-.523-.966v-9.586c0-.533.235-.966.524-.966.289 0 .523.433.523.966v9.586c0 .533-.234.966-.523.966"/>
            <mask id="r" fill="#fff">
                <use xlink:href="#q"/>
            </mask>
            <path fill="#E28575" d="M8.377 14.66h7.33V0h-7.33z" mask="url(#r)"/>
            <path fill="#FEFEFE" d="M9.424 96.335h15.707v-25.13H9.424zM8.377 11.518h7.33v-1.047h-7.33z" mask="url(#r)"/>
        </g>
        <g>
            <path fill="#FFF" d="M125.13 57.262c-.5.289-1.098.19-1.335-.22l-8.566-14.836c-.237-.41-.023-.978.478-1.267.5-.29 1.099-.19 1.336.22l8.565 14.835c.237.41.023.979-.477 1.268"/>
            <g transform="rotate(-30 147.68 -186.337)">
                <mask id="t" fill="#fff">
                    <use xlink:href="#s"/>
                </mask>
                <path fill="#FFF" d="M12.646 8.325a.872.872 0 0 1-.43-.112L.44 1.67A.834.834 0 0 1 .114.516.874.874 0 0 1 1.3.199l11.779 6.542c.416.23.562.748.324 1.155a.871.871 0 0 1-.756.429" mask="url(#t)"/>
            </g>
            <path fill="#FFF" d="M117.9 55.693a.876.876 0 0 1-.876.003.854.854 0 0 1-.304-1.18l6.947-11.692a.876.876 0 0 1 1.194-.318.852.852 0 0 1 .304 1.18l-6.946 11.692a.871.871 0 0 1-.318.315M140.838 55.869a.53.53 0 0 1-.722-.203l-3.652-6.326a.53.53 0 0 1 .185-.726.53.53 0 0 1 .722.203l3.652 6.326a.53.53 0 0 1-.185.726"/>
            <path fill="#FFF" d="M142.55 52.764a.546.546 0 0 1-.276.073l-5.992-.047a.589.589 0 0 1-.574-.576.552.552 0 0 1 .552-.568l5.991.046a.587.587 0 0 1 .574.577.555.555 0 0 1-.275.495"/>
            <path fill="#FFF" d="M138.078 55.346a.555.555 0 0 1-.567-.01.587.587 0 0 1-.212-.785l2.955-5.211a.552.552 0 0 1 .769-.195c.269.163.364.515.212.785l-2.956 5.213a.546.546 0 0 1-.201.203M141.885 38.068a.53.53 0 0 1-.722-.203l-3.652-6.326a.53.53 0 0 1 .185-.726.53.53 0 0 1 .722.203l3.652 6.326a.53.53 0 0 1-.185.726"/>
            <g transform="rotate(-30 131.563 -235.747)">
                <mask id="v" fill="#fff">
                    <use xlink:href="#u"/>
                </mask>
                <path fill="#FFF" d="M5.707 4.15a.553.553 0 0 1-.275-.073L.288 1.12A.567.567 0 0 1 .08.352a.555.555 0 0 1 .76-.21L5.982 3.1c.267.154.36.498.208.766a.554.554 0 0 1-.484.284" mask="url(#v)"/>
            </g>
            <g transform="rotate(-30 131.563 -235.747)">
                <mask id="x" fill="#fff">
                    <use xlink:href="#w"/>
                </mask>
                <path fill="#FFF" d="M.564 4.15a.554.554 0 0 1-.484-.284.565.565 0 0 1 .208-.766L5.432.142a.555.555 0 0 1 .76.21.567.567 0 0 1-.209.767L.84 4.077a.553.553 0 0 1-.275.073" mask="url(#x)"/>
            </g>
        </g>
        <path fill="#FFF" d="M215.501 141.39c4.177-1.286 5.57-2.796 4.177-4.531-2.088-2.602-134.362 4.437-144.645 0-6.856-2.958-7.868-1.447-3.038 4.532h143.506z"/>
    </g>
</svg>
