<svg width="280" height="120" viewBox="0 0 280 120" fill="none" xmlns="http://www.w3.org/2000/svg">
<mask id="mask0" mask-type="alpha" maskUnits="userSpaceOnUse" x="0" y="0" width="280" height="120">
<rect width="280" height="120" fill="#C4C4C4"/>
</mask>
<g mask="url(#mask0)">
<path opacity="0.7" d="M45.173 24.4192C45.8208 24.4192 46.346 23.8941 46.346 23.2462C46.346 22.5984 45.8208 22.0732 45.173 22.0732C44.5252 22.0732 44 22.5984 44 23.2462C44 23.8941 44.5252 24.4192 45.173 24.4192Z" fill="white"/>
<path opacity="0.7" d="M49.6359 24.4192C50.2837 24.4192 50.8089 23.8941 50.8089 23.2462C50.8089 22.5984 50.2837 22.0732 49.6359 22.0732C48.9881 22.0732 48.4629 22.5984 48.4629 23.2462C48.4629 23.8941 48.9881 24.4192 49.6359 24.4192Z" fill="white"/>
<path opacity="0.7" d="M54.099 24.4192C54.7469 24.4192 55.272 23.8941 55.272 23.2462C55.272 22.5984 54.7469 22.0732 54.099 22.0732C53.4512 22.0732 52.926 22.5984 52.926 23.2462C52.926 23.8941 53.4512 24.4192 54.099 24.4192Z" fill="white"/>
<path d="M40 22C40 20.8954 40.8954 20 42 20H246C247.105 20 248 20.8954 248 22V118C248 119.105 247.105 120 246 120H40V22Z" fill="#C3D4FA" fill-opacity="0.5"/>
<rect x="64" y="81.5688" width="30.527" height="30.527" rx="4.5" fill="white"/>
<path d="M40 22.003C40 20.897 40.898 20 42.0076 20H245.992C247.101 20 248 20.897 248 22.003V26.326H40V22.003Z" fill="#376EEE"/>
<path d="M45.5518 119.736C50.2539 119.462 54 115.262 54 110.092C54 104.755 50.0011 100.43 45.0645 100.43C44.1673 100.43 43.2903 100.577 42.4703 100.852C40.9875 94.1207 35.3697 89.0986 28.6782 89.0986C22.0254 89.0986 16.4655 94.0361 14.9055 100.683C14.2597 100.529 13.5983 100.452 12.9345 100.451C7.9989 100.451 4 104.776 4 110.114C4 115.199 7.62842 119.335 12.2322 119.736H45.5527H45.5518Z" fill="#8CACF6"/>
<path fill-rule="evenodd" clip-rule="evenodd" d="M28.2397 99.3709C28.327 99.2675 28.4555 99.2078 28.5909 99.2078C28.7262 99.2078 28.8547 99.2675 28.942 99.3709L32.0216 103.006C32.1379 103.142 32.164 103.334 32.0886 103.497C32.0131 103.66 31.8499 103.764 31.6705 103.763H29.933V107.257C29.933 107.452 29.8553 107.639 29.717 107.778C29.5787 107.916 29.3912 107.993 29.1958 107.993H27.9869C27.5802 107.993 27.2505 107.663 27.2505 107.257V103.763H25.5113C25.3315 103.764 25.1678 103.66 25.0923 103.497C25.0168 103.334 25.0432 103.141 25.1601 103.005L28.2397 99.3709ZM34.6904 105.895C34.4951 105.895 34.3077 105.972 34.1694 106.11C34.0312 106.248 33.9533 106.435 33.9531 106.63V110.344C33.9533 110.466 33.905 110.584 33.8188 110.67C33.7326 110.756 33.6155 110.805 33.4935 110.805H23.6883C23.4345 110.805 23.2287 110.599 23.2287 110.345V106.631C23.2285 106.436 23.1506 106.249 23.0124 106.111C22.8741 105.973 22.6867 105.896 22.4914 105.896H21.8709C21.4646 105.896 21.1351 106.225 21.1346 106.631V111.864C21.1346 112.271 21.4646 112.6 21.8709 112.6H35.3109C35.5062 112.6 35.6934 112.522 35.8313 112.384C35.9692 112.246 36.0466 112.058 36.0463 111.863V106.631C36.0463 106.225 35.7172 105.896 35.3109 105.895H34.6904Z" fill="white"/>
<rect x="105.99" y="81.5688" width="30.527" height="30.527" rx="4.5" fill="white"/>
<rect x="147.012" y="81.1421" width="73.947" height="1.724" rx="0.861" fill="#C3D4FA"/>
<rect x="147.012" y="86.9932" width="73.947" height="1.724" rx="0.861" fill="#C3D4FA"/>
<rect x="146.623" y="92.8447" width="73.947" height="1.724" rx="0.861" fill="#C3D4FA"/>
<rect x="146.623" y="104.135" width="30.535" height="8.278" rx="2" fill="#C3D4FA"/>
<path fill-rule="evenodd" clip-rule="evenodd" d="M68.351 93.9198C68.393 93.9198 73.67 93.8858 75.67 94.4758C77.67 95.0668 78.99 95.1778 80.83 94.6608C82.668 94.1438 86.395 93.9518 87.819 93.9228C89.242 93.8928 89.681 93.8258 89.684 94.1838C89.686 94.5418 89.62 95.1178 89.593 95.2438C89.57 95.3468 89.522 95.5228 89.253 95.6838C89.1047 95.7748 89.0022 95.9246 88.971 96.0958C88.826 96.8748 88.394 98.9418 87.791 99.5788C87.042 100.37 85.886 100.84 84.533 100.891C83.179 100.941 81.139 100.744 80.008 98.3928C80.008 98.3928 79.413 96.9788 79.356 96.8248C79.299 96.6708 78.508 95.2308 77.589 97.8188C76.67 100.407 74.441 101.174 72.793 100.969C71.144 100.765 68.795 100.12 68.636 97.0748C68.636 97.0748 68.632 96.3038 68.364 95.9258C68.096 95.5488 67.664 95.5508 67.687 94.8918C67.711 94.2318 67.5 93.9148 68.351 93.9188V93.9198Z" fill="#1B4278"/>
<path fill-rule="evenodd" clip-rule="evenodd" d="M69.3311 95.2809L68.2551 95.2879C68.2284 95.2879 68.2067 95.2666 68.2061 95.2399L68.2031 94.8099C68.2031 94.7839 68.2251 94.7619 68.2521 94.7619L69.3271 94.7549C69.3541 94.7549 69.3761 94.7769 69.3771 94.8039L69.3791 95.2319C69.3794 95.2449 69.3745 95.2575 69.3655 95.2669C69.3565 95.2762 69.3441 95.2817 69.3311 95.2819V95.2809ZM89.0801 95.1569L88.0041 95.1629C87.9774 95.1629 87.9557 95.1416 87.9551 95.1149L87.9521 94.6859C87.9521 94.6589 87.9741 94.6369 88.0011 94.6369L89.0761 94.6299C89.1031 94.6299 89.1251 94.6519 89.1251 94.6789L89.1281 95.1079C89.1281 95.1346 89.1068 95.1564 89.0801 95.1569ZM75.1791 99.8599C74.4751 100.231 73.7501 100.522 72.7321 100.4C71.1041 100.206 69.4641 99.2979 69.3921 97.2729C69.3191 95.2479 70.3621 94.2809 72.6951 94.4989C72.6951 94.4989 75.0281 94.5649 76.0231 95.3909C76.8931 96.1129 77.2171 97.4859 76.6261 98.4879C76.5396 98.6347 76.4355 98.7704 76.3161 98.8919C76.3161 98.8919 75.7921 99.5379 75.1791 99.8609V99.8599ZM82.2181 99.8269C82.9251 100.181 83.6531 100.456 84.6681 100.324C86.2911 100.114 87.9181 99.2059 87.9661 97.2269C88.0131 95.2469 86.9591 94.3169 84.6321 94.5569C84.6321 94.5569 82.3031 94.6519 81.3201 95.4709C80.4601 96.1869 80.1521 97.5319 80.7551 98.5039C80.8411 98.6439 80.9461 98.7739 81.0711 98.8949C81.0711 98.8949 81.6011 99.5189 82.2181 99.8269Z" fill="white"/>
<path fill-rule="evenodd" clip-rule="evenodd" d="M117.123 105.39C117.811 102.772 119.701 99.4429 120.302 98.6229C120.943 97.7469 122.609 95.5909 124.318 93.3909C126.026 91.1909 126.957 89.4009 126.957 89.4009C126.957 89.4009 130.531 91.3309 131.258 92.1519C131.978 92.9649 132.54 97.6829 132.54 97.6829H128.289V105.39H117.123Z" fill="#8CACF6" fill-opacity="0.8"/>
<path fill-rule="evenodd" clip-rule="evenodd" d="M115.042 97.6829V105.393H126.574C126.062 102.638 123.67 99.4979 123.03 98.6229C122.388 97.7469 120.723 95.5899 119.014 93.3899C117.306 91.1899 116.374 89.3999 116.374 89.3999C116.374 89.3999 112.8 91.3309 112.073 92.1519C111.354 92.9649 110.792 97.6829 110.792 97.6829H115.042Z" fill="#C3D4FA"/>
<rect x="64" y="39.5181" width="30.527" height="30.527" rx="4.5" fill="white"/>
<rect x="105.99" y="39.5181" width="30.527" height="30.527" rx="4.5" fill="white"/>
<rect x="147.979" y="39.5181" width="30.527" height="30.527" rx="4.5" fill="white"/>
<path fill-rule="evenodd" clip-rule="evenodd" d="M156.179 49.8041V49.2241H154.721V49.8041M158.136 49.8041V49.2241H156.677V49.8041" fill="#C4C4C4"/>
<path fill-rule="evenodd" clip-rule="evenodd" d="M172.876 48.646H161.792V49.804H153.922V51.756H172.876V48.646Z" fill="#C4CDD5"/>
<path fill-rule="evenodd" clip-rule="evenodd" d="M153.922 61.3859H172.876V51.7559H153.922V61.3859Z" fill="#7790A3"/>
<path fill-rule="evenodd" clip-rule="evenodd" d="M171.269 50.783H168.967C168.705 50.7711 168.499 50.5555 168.499 50.2935C168.499 50.0314 168.705 49.8158 168.967 49.804H171.269C171.538 49.804 171.759 50.024 171.759 50.294C171.759 50.564 171.538 50.783 171.269 50.783Z" fill="white"/>
<path fill-rule="evenodd" clip-rule="evenodd" d="M158.634 49.805H161.794V48.645H158.634V49.805Z" fill="#D5DFE6"/>
<path d="M158.879 48.6377V49.8037H159.179V48.6377H158.879ZM160.452 48.6377V49.8037H160.752V48.6377H160.452ZM159.662 48.6377V49.8037H159.962V48.6377H159.662ZM161.245 48.6377V49.8037H161.545V48.6377H161.245Z" fill="#4A5F6E"/>
<path d="M153.922 51.7559H172.876" stroke="#D5DFE6" stroke-linejoin="round"/>
<path fill-rule="evenodd" clip-rule="evenodd" d="M171.056 56.2522C171.056 59.0876 168.758 61.3862 165.922 61.3862C163.087 61.3862 160.788 59.0876 160.788 56.2522C160.788 53.4167 163.087 51.1182 165.922 51.1182C168.758 51.1182 171.056 53.4167 171.056 56.2522Z" fill="#4A5F6E"/>
<path fill-rule="evenodd" clip-rule="evenodd" d="M169.873 56.2519C169.896 57.6786 169.148 59.0068 167.916 59.7268C166.684 60.4468 165.159 60.4468 163.927 59.7268C162.695 59.0068 161.947 57.6786 161.97 56.2519C162.004 54.0941 163.763 52.3628 165.921 52.3628C168.08 52.3628 169.839 54.0941 169.873 56.2519Z" fill="#FEFEFE"/>
<path fill-rule="evenodd" clip-rule="evenodd" d="M167.861 56.252C167.861 57.3234 166.993 58.1922 165.921 58.1925C164.85 58.1928 163.981 57.3244 163.981 56.253C163.981 55.1816 164.85 54.313 165.921 54.313C166.992 54.313 167.861 55.1816 167.861 56.253V56.252Z" fill="#4A5F6E"/>
<rect x="189.969" y="39.5181" width="30.527" height="30.527" rx="4.5" fill="white"/>
<path fill-rule="evenodd" clip-rule="evenodd" d="M88.2949 54.8497C88.2949 59.8689 84.2261 63.9377 79.2069 63.9377C74.1877 63.9377 70.1189 59.8689 70.1189 54.8497C70.1189 49.8306 74.1877 45.7617 79.2069 45.7617C84.2261 45.7617 88.2949 49.8306 88.2949 54.8497Z" fill="#FFC72C"/>
<path d="M74.7979 47.0801C76.1829 47.3951 78.2929 48.0941 80.3009 49.7741C85.1609 53.8361 85.2639 60.1481 85.2649 61.1801" stroke="#E4AB0F" stroke-width="0.75" stroke-linejoin="bevel"/>
<path d="M78.0419 51.8458L78.2651 52.1472L78.2651 52.1472L78.0419 51.8458ZM76.2989 49.6068L76.4242 49.9602L76.4243 49.9602L76.2989 49.6068ZM79.7119 58.6098L79.3381 58.5806L79.338 58.5809L79.7119 58.6098ZM81.0069 53.3338L81.2483 53.6208L81.2485 53.6207L81.0069 53.3338ZM84.4879 51.7038L84.437 52.0753L84.4378 52.0754L84.4879 51.7038ZM85.1686 48.0064C82.5173 48.7113 80.0234 49.9117 77.8187 51.5444L78.2651 52.1472C80.3937 50.5708 82.8015 49.4117 85.3613 48.7312L85.1686 48.0064ZM77.8188 51.5444C74.2352 54.198 72.2868 57.343 71.3475 59.1412L72.0123 59.4884C72.9211 57.7486 74.8046 54.7096 78.2651 52.1472L77.8188 51.5444ZM80.4989 45.9668C80.1268 46.0129 80.1267 46.0125 80.1267 46.0121C80.1267 46.012 80.1266 46.0116 80.1266 46.0113C80.1265 46.0109 80.1265 46.0104 80.1264 46.01C80.1263 46.0091 80.1262 46.0084 80.1262 46.0078C80.1261 46.0066 80.126 46.0059 80.126 46.0056C80.1259 46.005 80.126 46.0062 80.1262 46.0092C80.1265 46.0152 80.1269 46.0281 80.1263 46.0475C80.1252 46.0862 80.1201 46.1506 80.1022 46.2364C80.0664 46.4066 79.9785 46.6669 79.7612 46.9809C79.3266 47.6089 78.3534 48.4803 76.1736 49.2534L76.4243 49.9602C78.6995 49.1533 79.8263 48.2047 80.3779 47.4077C80.6537 47.0092 80.7805 46.6557 80.8362 46.3904C80.8639 46.2583 80.8737 46.1494 80.876 46.0693C80.8772 46.0293 80.8765 45.9964 80.8752 45.9714C80.8746 45.9589 80.8738 45.9484 80.8731 45.9399C80.8727 45.9357 80.8723 45.932 80.872 45.9288C80.8718 45.9272 80.8717 45.9257 80.8715 45.9244C80.8714 45.9237 80.8714 45.923 80.8713 45.9224C80.8713 45.9221 80.8712 45.9217 80.8712 45.9216C80.8711 45.9211 80.8711 45.9207 80.4989 45.9668ZM76.1736 49.2534C73.9355 50.0469 72.5705 50.6472 71.7601 51.053C71.3546 51.256 71.0865 51.411 70.9163 51.518C70.8312 51.5716 70.7703 51.6134 70.7288 51.6433C70.708 51.6583 70.692 51.6704 70.6802 51.6796C70.6743 51.6841 70.6695 51.688 70.6656 51.6911C70.6637 51.6927 70.662 51.6941 70.6605 51.6953C70.6598 51.6959 70.6591 51.6965 70.6585 51.697C70.6582 51.6973 70.6579 51.6975 70.6576 51.6977C70.6575 51.6979 70.6573 51.698 70.6572 51.6981C70.657 51.6982 70.6568 51.6984 70.8989 51.9848C71.141 52.2712 71.1408 52.2713 71.1407 52.2715C71.1406 52.2715 71.1404 52.2717 71.1403 52.2718C71.1401 52.272 71.1399 52.2721 71.1397 52.2723C71.1393 52.2726 71.139 52.2729 71.1387 52.2731C71.1382 52.2735 71.1379 52.2738 71.1379 52.2738C71.1379 52.2738 71.1389 52.273 71.141 52.2713C71.1452 52.268 71.1539 52.2614 71.1676 52.2515C71.1951 52.2317 71.2428 52.1987 71.3158 52.1528C71.4619 52.0609 71.7083 51.9176 72.0958 51.7236C72.8713 51.3354 74.2063 50.7467 76.4242 49.9602L76.1736 49.2534ZM77.2469 63.4568C77.5202 63.7136 77.5203 63.7135 77.5203 63.7135C77.5204 63.7134 77.5205 63.7133 77.5205 63.7132C77.5207 63.7131 77.5209 63.7129 77.5211 63.7127C77.5215 63.7122 77.5221 63.7116 77.5228 63.7108C77.5242 63.7093 77.5261 63.7072 77.5286 63.7046C77.5336 63.6992 77.5406 63.6916 77.5496 63.6817C77.5677 63.6619 77.5936 63.6331 77.6264 63.596C77.6919 63.5218 77.7847 63.414 77.8962 63.2774C78.1191 63.0045 78.4181 62.6149 78.7234 62.1468C79.3275 61.2207 79.985 59.9447 80.0858 58.6387L79.338 58.5809C79.2518 59.6978 78.6769 60.8454 78.0952 61.737C77.8077 62.1779 77.5254 62.5457 77.3153 62.803C77.2104 62.9315 77.1238 63.032 77.064 63.0998C77.0341 63.1337 77.0109 63.1594 76.9955 63.1763C76.9878 63.1847 76.982 63.191 76.9783 63.195C76.9765 63.197 76.9752 63.1984 76.9744 63.1992C76.974 63.1996 76.9737 63.1999 76.9736 63.2C76.9736 63.2001 76.9735 63.2001 76.9735 63.2001C76.9735 63.2001 76.9736 63.2001 76.9736 63.2001C76.9736 63.2 76.9737 63.2 77.2469 63.4568ZM80.0858 58.639C80.1818 57.409 80.2329 56.3498 80.3931 55.4725C80.5532 54.5956 80.8089 53.9904 81.2483 53.6208L80.7655 53.0468C80.1219 53.5882 79.8247 54.41 79.6553 55.3378C79.486 56.2652 79.4311 57.3886 79.3381 58.5806L80.0858 58.639ZM81.2485 53.6207C81.7783 53.1745 82.3602 52.7499 82.9287 52.4559C83.5052 52.1577 84.0212 52.0183 84.437 52.0753L84.5388 51.3323C83.8967 51.2443 83.2131 51.4644 82.5842 51.7897C81.9471 52.1192 81.3175 52.5821 80.7654 53.0469L81.2485 53.6207ZM84.4378 52.0754C85.3901 52.2039 86.9159 52.8535 87.5783 54.8898L88.2915 54.6578C87.52 52.2861 85.7058 51.4897 84.5381 51.3322L84.4378 52.0754Z" fill="#E4AB0F"/>
<path fill-rule="evenodd" clip-rule="evenodd" d="M121.631 62.9809C119.493 62.9669 117.771 61.2119 117.786 59.0619C117.8 56.9119 119.545 55.1819 121.684 55.1959C123.822 55.2099 125.544 56.9649 125.529 59.1149C125.515 61.2649 123.77 62.9959 121.631 62.9809ZM121.691 54.1359C118.971 54.1179 116.751 56.3199 116.732 59.0559C116.714 61.7899 118.904 64.0219 121.625 64.0409C124.345 64.0589 126.565 61.8569 126.583 59.1209C126.602 56.3869 124.411 54.1549 121.691 54.1359Z" fill="#FFC72C"/>
<path fill-rule="evenodd" clip-rule="evenodd" d="M116.038 48.6303L117.874 45.8613H125.49L127.142 48.6293L121.59 54.8113L116.038 48.6293L116.038 48.6303Z" fill="#9AE3FF"/>
<path d="M116.182 48.428C116.071 48.428 115.982 48.5175 115.982 48.628C115.982 48.7384 116.071 48.828 116.182 48.828V48.428ZM126.996 48.828C127.106 48.828 127.196 48.7384 127.196 48.628C127.196 48.5175 127.106 48.428 126.996 48.428V48.828ZM118.028 45.8625C117.963 45.7731 117.838 45.7532 117.748 45.8181C117.659 45.883 117.639 46.0081 117.704 46.0975L118.028 45.8625ZM119.79 48.63L119.628 48.7475C119.666 48.8003 119.728 48.831 119.793 48.83C119.858 48.8289 119.919 48.796 119.956 48.742L119.79 48.63ZM121.582 45.98L121.745 45.8639C121.707 45.8106 121.645 45.7792 121.579 45.78C121.514 45.7808 121.453 45.8137 121.416 45.8679L121.582 45.98ZM123.47 48.63L123.307 48.746C123.344 48.7978 123.403 48.829 123.467 48.83C123.53 48.8309 123.591 48.8016 123.629 48.7509L123.47 48.63ZM125.641 46.1009C125.708 46.0129 125.691 45.8875 125.603 45.8207C125.515 45.7539 125.389 45.7711 125.323 45.859L125.641 46.1009ZM116.182 48.828H126.996V48.428H116.182V48.828ZM117.704 46.0975L119.628 48.7475L119.952 48.5125L118.028 45.8625L117.704 46.0975ZM119.956 48.742L121.748 46.092L121.416 45.8679L119.624 48.5179L119.956 48.742ZM121.419 46.096L123.307 48.746L123.633 48.5139L121.745 45.8639L121.419 46.096ZM123.629 48.7509L125.641 46.1009L125.323 45.859L123.311 48.509L123.629 48.7509Z" fill="white"/>
<path d="M119.834 48.6299C119.834 48.6299 121.553 54.4039 121.627 54.6909L123.515 48.6289" stroke="white" stroke-width="0.4" stroke-linecap="round" stroke-linejoin="round"/>
<path fill-rule="evenodd" clip-rule="evenodd" d="M205.772 52.1758H198.391C198.258 52.1756 198.145 52.2724 198.124 52.4038L196.304 63.8468C196.291 63.9252 196.314 64.0053 196.365 64.0657C196.417 64.1262 196.493 64.1609 196.572 64.1608H214.972C215.138 64.1608 215.266 64.0108 215.24 63.8468L213.42 52.4038C213.398 52.2727 213.285 52.1764 213.152 52.1758H205.772Z" fill="#FFC72C"/>
<path d="M213.408 53.2168L208.816 59.0828C208.766 59.1469 208.689 59.1845 208.607 59.1848H202.936C202.855 59.1845 202.778 59.1469 202.728 59.0828L198.135 53.2168" stroke="#D8A20D" stroke-width="0.5"/>
<path fill-rule="evenodd" clip-rule="evenodd" d="M205.111 60.2327H206.333V58.1377H205.111V60.2327Z" fill="#FFFBF1"/>
<path d="M201.055 52.1761C202.151 47.3801 204.068 44.1361 205.719 44.2331C207.301 44.3271 208.741 47.4981 209.303 48.7361C209.917 50.0861 210.22 51.2991 210.383 52.1761" stroke="#4A5F6E" stroke-width="0.5"/>
<path d="M276.316 120.185H220.056L220.056 108.13L276.316 108.13L276.316 120.185Z" fill="#FFD560"/>
<path d="M280.336 120.185L276.316 120.185L276.317 108.129H280.336C280.869 108.129 281.38 108.341 281.757 108.718C282.134 109.095 282.346 109.606 282.346 110.139L282.345 118.176C282.344 119.286 281.445 120.185 280.336 120.185Z" fill="#376EEE"/>
<path d="M276.317 120.185H220.056V114.157H276.317V120.185Z" fill="#FFC72C"/>
<path d="M220.056 120.185L211.578 115.946C210.104 115.209 210.104 113.106 211.578 112.369L220.056 108.13L220.056 120.185Z" fill="#8CACF6"/>
<path d="M214.029 117.171L211.578 115.946C210.104 115.209 210.104 113.105 211.578 112.368L214.028 111.143L214.029 117.171Z" fill="#001D53"/>
</g>
</svg>
