<svg width="270" height="120" viewBox="0 0 270 120" fill="none" xmlns="http://www.w3.org/2000/svg">
<g style="mix-blend-mode:darken">
<path d="M42 54C42 51.7909 43.7909 50 46 50H188C190.209 50 192 51.7909 192 54V120H42V54Z" fill="#E7EEFD"/>
<rect x="180" y="50" width="90" height="70" fill="#E7EEFD"/>
<rect x="90" y="50" width="90" height="70" fill="#C3D4FA"/>
<rect x="107" y="62" width="56" height="24" fill="#8CACF6"/>
<rect x="197" y="62" width="56" height="58" fill="#C3D4FA"/>
<rect opacity="0.4" x="245" y="62" width="8" height="58" fill="#8CACF6"/>
<path d="M225 5L270 50H180L225 5Z" fill="#E7EEFD"/>
<circle cx="224.634" cy="42.634" r="7.63397" fill="white"/>
<path d="M135 5H225L180 50H90L135 5Z" fill="#C3D4FA"/>
<path d="M245 74H197V75H245V74Z" fill="#376EEE" fill-opacity="0.1"/>
<path d="M67 50H66V120H67V50Z" fill="#376EEE" fill-opacity="0.1"/>
<path d="M245 87H197V88H245V87Z" fill="#376EEE" fill-opacity="0.1"/>
<path d="M245 100H197V101H245V100Z" fill="#376EEE" fill-opacity="0.1"/>
<path d="M141 96H171V120H141V96Z" fill="#FFC72C"/>
<path d="M151 96H171V120H151V96Z" fill="#FFE380"/>
<path d="M162 114H168V117H162V114Z" fill="#FFFFCC"/>
<path d="M47 72H42V73H47V72Z" fill="#376EEE" fill-opacity="0.1"/>
<path d="M66 72H61V73H66V72Z" fill="#376EEE" fill-opacity="0.1"/>
<path d="M72 72H67V73H72V72Z" fill="#376EEE" fill-opacity="0.1"/>
<path d="M90 72H86V73H90V72Z" fill="#376EEE" fill-opacity="0.1"/>
<path d="M47 90H42V91H47V90Z" fill="#376EEE" fill-opacity="0.1"/>
<path d="M66 90H61V91H66V90Z" fill="#376EEE" fill-opacity="0.1"/>
<path d="M72 90H67V91H72V90Z" fill="#376EEE" fill-opacity="0.1"/>
<path d="M90 90H86V91H90V90Z" fill="#376EEE" fill-opacity="0.1"/>
<path d="M47 108H42V109H47V108Z" fill="#376EEE" fill-opacity="0.1"/>
<path d="M66 108H61V109H66V108Z" fill="#376EEE" fill-opacity="0.1"/>
<path d="M72 108H67V109H72V108Z" fill="#376EEE" fill-opacity="0.1"/>
<path d="M60.5 61.5H47.5V72.5H60.5V61.5Z" stroke="#376EEE" stroke-opacity="0.1"/>
<path d="M85.5 61.5H72.5V72.5H85.5V61.5Z" stroke="#376EEE" stroke-opacity="0.1"/>
<path d="M60.5 79.5H47.5V90.5H60.5V79.5Z" stroke="#376EEE" stroke-opacity="0.1"/>
<path d="M85.5 79.5H72.5V90.5H85.5V79.5Z" stroke="#376EEE" stroke-opacity="0.1"/>
<path d="M60.5 97.5H47.5V108.5H60.5V97.5Z" stroke="#376EEE" stroke-opacity="0.1"/>
<path d="M103 96H73V120H103V96Z" fill="#8CACF6"/>
<path opacity="0.3" d="M83 96H73V120H83V96Z" fill="#376EEE"/>
<path d="M137 96H107V120H137V96Z" fill="#8CACF6"/>
<path opacity="0.3" d="M117 96H107V120H117V96Z" fill="#376EEE"/>
<path d="M156 72C167.046 72 176 63.0457 176 52C176 40.9543 167.046 32 156 32C144.954 32 136 40.9543 136 52C136 63.0457 144.954 72 156 72Z" fill="white"/>
<path d="M156 72C167.046 72 176 63.0457 176 52C176 40.9543 167.046 32 156 32C144.954 32 136 40.9543 136 52C136 63.0457 144.954 72 156 72Z" fill="#92F1D3" fill-opacity="0.24"/>
<path d="M153.719 55.2749L163.089 45.4515C163.663 44.8495 164.595 44.8495 165.171 45.4515C165.745 46.0536 165.745 47.0309 165.171 47.6344L154.759 58.5485C154.185 59.1505 153.253 59.1505 152.677 58.5485L146.431 52C146.154 51.7042 146 51.314 146 50.9086C146 50.5032 146.154 50.113 146.431 49.8172C147.006 49.2151 147.938 49.2151 148.513 49.8172L153.719 55.2749Z" fill="#1ACC94"/>
<path d="M156 94L153 90H159L156 94Z" fill="white"/>
<rect x="144" y="78" width="24" height="12" rx="2" fill="white"/>
<path d="M159 82H147V83H159V82Z" fill="#376EEE" fill-opacity="0.1"/>
<path d="M159 85H147V86H159V85Z" fill="#376EEE" fill-opacity="0.1"/>
<path d="M205 96H175V120H205V96Z" fill="#8CACF6"/>
<path opacity="0.3" d="M185 96H175V120H185V96Z" fill="#376EEE"/>
</g>
</svg>
