<svg width="270" height="120" viewBox="0 0 270 120" fill="none" xmlns="http://www.w3.org/2000/svg">
<g style="mix-blend-mode:darken">
<path d="M103.971 32H231.259C231.768 32 232.27 32.1108 232.732 32.3245C233.194 32.5382 233.604 32.8499 233.934 33.238C234.265 33.6261 234.507 34.0813 234.644 34.5724C234.782 35.0634 234.811 35.5785 234.731 36.0821L221.327 120H86.9167L100.5 34.9675C100.632 34.14 101.054 33.3868 101.69 32.843C102.326 32.2992 103.135 32.0003 103.971 32V32Z" fill="#8CACF6"/>
<path d="M107.706 39.0011L95.9081 113H215.984L227.782 39L107.706 39.0011Z" fill="#E7EEFD"/>
<path d="M58.4569 113H218.278C219.209 113 220.102 113.369 220.76 114.025C221.418 114.681 221.788 115.572 221.788 116.5C221.788 117.428 221.418 118.318 220.76 118.975C220.102 119.631 219.209 120 218.278 120H58.4569C57.5261 120 56.6334 119.631 55.9753 118.975C55.3171 118.318 54.9474 117.428 54.9474 116.5C54.9474 115.572 55.3171 114.681 55.9753 114.025C56.6334 113.369 57.5261 113 58.4569 113V113Z" fill="#0E3AA1"/>
<path d="M155.345 113H222.787L222.171 117.027C222.044 117.854 221.626 118.609 220.992 119.155C220.359 119.7 219.551 120 218.716 120H155.345C154.419 120 153.531 119.631 152.877 118.975C152.222 118.318 151.854 117.428 151.854 116.5C151.854 115.572 152.222 114.681 152.877 114.025C153.531 113.369 154.419 113 155.345 113V113Z" fill="#0E3AA1"/>
<path d="M186.104 120C186.104 120 174.259 91.8289 178.913 84.8222C183.567 77.8163 191.479 81.5529 194.736 86.6909C194.736 86.6909 194.614 67.3112 210.498 74.666C226.381 82.02 222.791 120 222.791 120H186.104Z" fill="white"/>
<rect x="161.845" y="96" width="37.9636" height="24" rx="2" fill="#8CACF6"/>
<rect x="165.841" y="105" width="5.99426" height="4" fill="#FFE380"/>
<rect width="15.9847" height="1" transform="matrix(1 0 0 -1 165.841 115)" fill="white"/>
<path d="M193.315 105C194.694 105 195.812 103.881 195.812 102.5C195.812 101.119 194.694 100 193.315 100C191.935 100 190.817 101.119 190.817 102.5C190.817 103.881 191.935 105 193.315 105Z" fill="white"/>
<ellipse cx="147.858" cy="38" rx="23.977" ry="24" fill="#FFE380"/>
<rect width="23.9797" height="23.9973" transform="matrix(0.939587 0.342309 -0.341731 0.939798 159.056 48)" fill="#8CACF6"/>
<path fill-rule="evenodd" clip-rule="evenodd" d="M167.877 51.2137C164.728 55.9839 159.923 59.5626 154.282 61.1289L159.056 48L167.877 51.2137Z" fill="#376EEE"/>
<path d="M144.861 102H104.9V103H144.861V102Z" fill="#376EEE" fill-opacity="0.1"/>
<path d="M144.861 94H104.9V95H144.861V94Z" fill="#376EEE" fill-opacity="0.1"/>
<path d="M98.9261 56.0207L132.128 65.2131L108.11 89.2547L98.9261 56.0207Z" fill="white"/>
<path d="M186.821 59.7635C190.337 59.3725 195.939 55.9054 195.146 51.5413C193.876 44.5448 191.057 54.1376 193.537 54.8469C198.696 56.3223 203.857 49.8747 208.994 49.8747C212.962 49.8747 215.946 52.7288 219.234 54.3747" stroke="#376EEE" stroke-opacity="0.2" stroke-width="1.5" stroke-linecap="round" stroke-linejoin="round"/>
<path d="M232.569 76.3937H248.723C267.702 97.9174 273.985 112.618 267.569 120H213.723C204.389 109.262 219.223 91.7461 232.569 76.3916V76.3937Z" fill="#C3D4FA"/>
<path d="M240.05 114.911C248.943 114.911 256.151 108.075 256.151 99.6429C256.151 91.2107 248.943 84.375 240.05 84.375C231.158 84.375 223.95 91.2107 223.95 99.6429C223.95 108.075 231.158 114.911 240.05 114.911Z" fill="#F8FAFB"/>
<path d="M232.353 70.9722H248.474C249.192 70.9722 249.881 71.2577 250.389 71.7659C250.897 72.2741 251.182 72.9634 251.182 73.6821C251.182 74.4008 250.897 75.0901 250.389 75.5983C249.881 76.1065 249.192 76.392 248.474 76.392H232.353C231.635 76.392 230.946 76.1065 230.438 75.5983C229.931 75.0901 229.645 74.4008 229.645 73.6821C229.645 72.9634 229.931 72.2741 230.438 71.7659C230.946 71.2577 231.635 70.9722 232.353 70.9722V70.9722Z" fill="#FFE380"/>
<path d="M226.953 54.7099L240.414 52L253.874 54.7099L248.49 70.9716H232.339L226.953 54.7099Z" fill="#C3D4FA"/>
<path d="M228.187 57.6562L224.261 58.7757L232.337 70.9719L228.187 57.6562Z" fill="#C3D4FA"/>
<path d="M252.762 57.6562L256.568 58.7757L248.49 70.9719L252.762 57.6562Z" fill="#8CACF6"/>
<path opacity="0.4" d="M240.414 52L253.875 54.7099L248.49 70.9716H240.414V52Z" fill="#8CACF6"/>
<path d="M240.631 74.3645C240.655 74.1887 240.714 74.0194 240.803 73.8662C240.893 73.7131 241.012 73.5791 241.153 73.472C241.294 73.3649 241.455 73.2868 241.627 73.2421C241.798 73.1975 241.977 73.1872 242.153 73.2118C242.889 73.3163 243.401 74.0018 243.298 74.7428C243.286 74.8316 243.264 75.0208 243.242 75.2946C243.085 77.25 243.197 79.4583 243.77 81.5088C244.324 83.4976 245.26 85.084 246.629 86.1667C247.213 86.6287 247.315 87.4804 246.856 88.0688C246.397 88.6572 245.551 88.7596 244.966 88.2977C243.103 86.8241 241.876 84.7444 241.177 82.2424C240.505 79.8335 240.379 77.3252 240.558 75.0762C240.584 74.747 240.612 74.5056 240.631 74.3645V74.3645Z" fill="#FFE380"/>
<path d="M243.594 75.4735C243.479 75.1336 243.503 74.762 243.662 74.44C243.82 74.118 244.099 73.8718 244.438 73.7553C244.606 73.6986 244.783 73.6756 244.959 73.6877C245.136 73.6997 245.309 73.7466 245.467 73.8255C245.626 73.9044 245.767 74.0139 245.883 74.1477C245.999 74.2815 246.088 74.4369 246.144 74.605C247.468 78.545 250.39 80.4575 255.22 80.4575C255.964 80.4575 256.567 81.0637 256.567 81.813C256.567 82.5613 255.964 83.1675 255.22 83.1675C249.282 83.1675 245.304 80.5652 243.594 75.4735V75.4735Z" fill="#FFE380"/>
<ellipse cx="240.05" cy="99.6428" rx="7.62667" ry="7.63397" fill="#FFC72C"/>
</g>
</svg>
