<svg width="270" height="120" viewBox="0 0 270 120" fill="none" xmlns="http://www.w3.org/2000/svg">
<g style="mix-blend-mode:darken">
<g style="mix-blend-mode:darken">
<path d="M27 58C27 55.7909 28.7909 54 31 54H173C175.209 54 177 55.7909 177 58V120H27V58Z" fill="#E7EEFD"/>
<path d="M27 86.3812C53.6667 78.175 57.6 71.0628 110 111" stroke="#376EEE" stroke-opacity="0.1" stroke-linecap="round"/>
<path d="M211.01 120C216.533 120 221.01 115.523 221.01 110C221.01 104.477 216.533 100 211.01 100C205.487 100 201.01 104.477 201.01 110C201.01 115.523 205.487 120 211.01 120Z" fill="#0E3AA1"/>
<path d="M106.112 120C111.635 120 116.112 115.523 116.112 110C116.112 104.477 111.635 100 106.112 100C100.589 100 96.1123 104.477 96.1123 110C96.1123 115.523 100.589 120 106.112 120Z" fill="#0E3AA1"/>
<path d="M225 20H137V110H227V22C227 20.8954 226.105 20 225 20Z" fill="#FFC72C"/>
<path d="M248.93 47.3408H243.5H227V110H260.917V77.5L250.859 48.5825C250.446 47.8927 249.757 47.3408 248.93 47.3408Z" fill="#FFE380"/>
<path d="M268.16 82.5366L260.53 77.6416V110H270V85.9033C270 84.5409 269.307 83.2723 268.16 82.5366Z" fill="#FFE380"/>
<path d="M250 120C255.523 120 260 115.523 260 110C260 104.477 255.523 100 250 100C244.477 100 240 104.477 240 110C240 115.523 244.477 120 250 120Z" fill="#1A4379"/>
<path d="M250 113C251.657 113 253 111.657 253 110C253 108.343 251.657 107 250 107C248.343 107 247 108.343 247 110C247 111.657 248.343 113 250 113Z" fill="white"/>
<path d="M156.509 120C162.313 120 167.018 115.523 167.018 110C167.018 104.477 162.313 100 156.509 100C150.705 100 146 104.477 146 110C146 115.523 150.705 120 156.509 120Z" fill="#1A4379"/>
<path d="M157 113C158.657 113 160 111.657 160 110C160 108.343 158.657 107 157 107C155.343 107 154 108.343 154 110C154 111.657 155.343 113 157 113Z" fill="white"/>
<rect width="12.151" height="3.03776" rx="1.51888" transform="matrix(1 0 0 -1 63 98.7563)" fill="#FFE380"/>
<rect width="9.11328" height="3.03776" rx="1.51888" transform="matrix(1 0 0 -1 66.0371 104.833)" fill="#FFE380"/>
<circle cx="182" cy="65" r="24" fill="white"/>
<path d="M137 20H83C81.8954 20 81 20.8954 81 22V110H137V20Z" fill="#FFE380"/>
<path fill-rule="evenodd" clip-rule="evenodd" d="M205.668 69C203.764 80.3509 193.892 89 182 89C170.108 89 160.236 80.3509 158.332 69H205.668Z" fill="#FFE380"/>
<path d="M127 28H91C89.8954 28 89 28.8954 89 30V102H129V30C129 28.8954 128.105 28 127 28Z" fill="#FFC72C"/>
<path d="M129 65H89V66H129V65Z" fill="#DAA410"/>
<path d="M129 40H89V41H129V40Z" fill="#DAA410"/>
<path d="M129 90H89V91H129V90Z" fill="#DAA410"/>
<path d="M129 54H99V78H129V54Z" fill="#8CACF6"/>
<path opacity="0.3" d="M109 54H99V78H109V54Z" fill="#376EEE"/>
<path d="M89 78H119V102H89V78Z" fill="#DAA410"/>
<path d="M99 78H119V102H99V78Z" fill="#F0B616"/>
<path d="M110 96H116V99H110V96Z" fill="#FFE380"/>
<path d="M118 72H124V75H118V72Z" fill="#E7EEFD"/>
<g style="mix-blend-mode:darken">
<path d="M127 28H91.5L109.5 54H129V30C129 28.8954 128.105 28 127 28Z" fill="#F0B616"/>
</g>
<g style="mix-blend-mode:darken">
<path d="M127 28H91.5L109.5 54H129V30C129 28.8954 128.105 28 127 28Z" fill="#F0B616"/>
</g>
<g style="mix-blend-mode:darken">
<path d="M227 78H251L242.828 54H227V78Z" fill="#F0B616"/>
</g>
<path d="M119 90H129V102H119V90Z" fill="#DAA410"/>
<path d="M56 54C59.6667 70.3333 59 102.5 27 100.5" stroke="#376EEE" stroke-opacity="0.1"/>
<path d="M270 86H227V87H270V86Z" fill="#FFC72C"/>
<rect x="261" y="87" width="6" height="3" fill="#FFC72C"/>
<rect x="248" y="72" width="4" height="8" fill="#DAA410"/>
<path d="M56.3943 120C57.9708 115.917 59.2895 111.544 59.6802 108.933C60.3044 104.761 59.3681 101.945 57.0795 101.631C54.7912 101.318 53.1039 105.301 53.1039 105.301C53.1039 105.301 52.1303 99.6602 50.3996 95.9724C48.6685 92.2839 44.9908 90.5488 42.6105 93.4771C40.2306 96.4058 42.0398 107.168 42.0398 107.168C41.6997 106.943 38.8415 105.091 37.158 106.168C35.3483 107.326 36.1166 111.084 36.444 112.684C36.987 115.341 38.404 117.993 39.8888 120" fill="#C3D4FA"/>
<path d="M49.9991 119.125L46.722 99.7686" stroke="#376EEE" stroke-opacity="0.5" stroke-linecap="round" stroke-linejoin="round"/>
<path d="M168 55H193V75H168V55Z" fill="#DAA410"/>
<path d="M176.333 55H193V75H176.333V55Z" fill="#F0B616"/>
<path d="M185.5 70H190.5V72.5H185.5V70Z" fill="#FFE380"/>
</g>
</g>
</svg>
