<svg xmlns="http://www.w3.org/2000/svg" xmlns:xlink="http://www.w3.org/1999/xlink" width="128" height="128" viewBox="0 0 128 128">
    <defs>
        <path id="a" d="M0 0h128v128H0z"/>
    </defs>
    <g fill="none" fill-rule="evenodd">
        <mask id="b" fill="#fff">
            <use xlink:href="#a"/>
        </mask>
        <use fill="#AFC7D1" fill-opacity="0" fill-rule="nonzero" xlink:href="#a"/>
        <g fill="#AFC7D1" mask="url(#b)">
            <path d="M124.032 16.483l.545.813.698.687.43.995-.137.665-.383-.079-.765-.56-.545.125-.429.31-.336.482-.182.636.675.281.704.485.27.586-1.446 1.63-3.607 2.243-.32.485.05.61.426.768.766.94.023.432-.383.586-.382.435-.137.331.137.383.428.612.404.787-.224.46-.542.23-.61.154-.587.252-.27.386-.069.583.07.865-.09.589-.25.589-.336.534-1.222 1.372-.27.563-.044.815.157 1.555.157.662.636 1.657.36 1.404.09 1.372-.45.92h-.523l-.676-.128-.609.076-.2.612v.687l-.114.587-.226.56-.336.458-.86.69-.563.331-.475.154-.247.279.316.534.856.968.066 1.428-.742 1.248-1.11.971-2.684 1.503-.247.482.157.56.344.664.157.61-.321.487-.203.33-.517.23-.562.023-.496-.304-.316.153-.293.714-.341 1.248-.113 1.45.634 2.322-.044 2.904.09 1.198-.113.995-.747 1.068-.879.664-.54.305-1.042.23h-.293l-.203-.102-.336-.256-.09.206v.305l.136.484.27.613.066.432-.066.281-.293.662-.067.357-.09.153-.25-.023-.428-.182-.341.052-.157.075-.09.206-.789 2.597-.293.307-.383.204-1.199.992-.293.386.09.966 1.898.841.157 1.297-.293.639-.383.307-.496.128-.59.052-.563.15-1.351.946-1.31.456-.203.255.136.485.27.206.337.127.362.178.477.914-.293.841-.433.818.249 1.172.318.51.203.636-.27.766-.251.128-.676.101-.272.102-.247.23-.473.663-.157.125-.202.256-.884 1.602-.452.409-.36.28-.043.334.54.534 1.086.485.426.409.16.865-.18.713-.406.383-.545.177-.609.052-.382.28.156.562.43.534.426.203.477.156.542.433.923.914.067.615.09.969v1.015l-.09.665-.856 1.503-.224.763.404.638.293.026.789.255.364.28.18.405.136 1.712.36 1.117.113.563-.113.635-.314.258-.523.203-.473.305-.18.433.113 3.568-.362.078-4.534.407-4.56.406-4.552.386-4.536.38-4.537.38-4.559.383-4.557.36-4.532.354-4.559.33-4.557.331-4.536.334-4.56.33-4.552.308-4.56.305-4.536.307-4.557.279-.249-4.103-.676-12.232-.11-2.243v-.023l-.25-.102-.403-.182-.75-.583-.45.304-.541.05-.494-.102-.883-.508-.36.177-.316.357-.36.177-1.243-.635-.429.052-.246.432-.16.537-.223.33-.542-.304-.517.33-.477-.077-.182-.331.293-.357v-.23l-.63.152-.63-.18-.495-.456-.203-.687-.27-.613-.457-.101-.36-14.91-.203-7.442-.18-7.437-.202-7.47-.36-14.879-.203-7.444-.766-4.736-.77-4.717-.766-4.74-.742-4.713-1.536-9.458-.745-4.71-.77-4.74 6.727-.383 6.725-.38 6.72-.435 6.725-.433 6.725-.46 6.697-.46 6.725-.507 6.725-.51 6.72-.511 6.702-.563 6.704-.56 6.72-.583 6.702-.61 6.725-.615 6.697-.638 6.702-.661 1.695-.178.044.076.046.075.157.256.293.74.067.101.113.102.136.078.09.075.046.128.044.151.066.537.047.18.043.177.09.153.093.102.855.482.139.101.113.102.18.255.066.156.07.178v.406l-.09.841v.206l.18.992.02.18-.02.177-.047.177-.043.154-.09.156-.07.125-.11.105-.136.101-.59.279-.114.102-.09.127-.023.154-.044.685-.046.18-.067.177-.066.13-.113.128-.743.56-.519.307-.32.151-.114.078-.223.203-.09.125-.09.154-.046.177-.023.18-.021.305v.177l-.046.206-.067.153-.07.154-.11.102-.113.101-.136.076-.496.18-.11.101-.114.102-.09.127-.136.282-.27.406-.343.813-.2.36-.722 1.987-.067.354.023.127.044.154.159.026 1.782-.229 3.494-.458 3.501-.459 3.473-.482 3.496-.46h.044l.046-.027h.09z"/>
        </g>
    </g>
</svg>
