<svg xmlns="http://www.w3.org/2000/svg" xmlns:xlink="http://www.w3.org/1999/xlink" width="128" height="128" viewBox="0 0 128 128">
    <defs>
        <path id="a" d="M0 0h128v128H0z"/>
    </defs>
    <g fill="none" fill-rule="evenodd">
        <mask id="b" fill="#fff">
            <use xlink:href="#a"/>
        </mask>
        <use fill="#AFC7D1" fill-opacity="0" fill-rule="nonzero" xlink:href="#a"/>
        <g fill="#AFC7D1" mask="url(#b)">
            <path d="M46.61 27.275l-.306.313-.544.445-.088.17.785-.327.305-.259.101-.4-.114-.014-.138.072zm-1.498 1.416l-.226.386-.19.1-.064.044-.038.099-.05.1-.114.058-.152.044-.025.085v.086l-.038.086-2.927 2.19-.622.27-.329.087-.43-.215-.24-.028.405.228.342.072.862-.143.303-.157.825-.717.266-.343 1.38-.944.772-.902.316-.214-.013-.072.104-.143.076-.07-.013-.132-.18.145zm-5.37 2.447l-.05-.202-.025-.013h-.192l-.202-.044-.368-.013-.19.244-.278.072-.621-.015.177.13.306.084.177.072.113.114.114.158.14.143.125.057.342.087.165-.03.053-.202.013-.184.063-.186.075-.158.064-.114zM15.049 20.333l-.494.215-.114-.114-.316.213-1.546.46-.648.056-.226.072-.38.214-.127.087-.344.186-1.036.114-.825.458-1.66.558-1.178.184-.267.146.823.015 9.782-2.778.164.057.167.015.152-.057.114-.101-1.42-.014-.621.014zm108.635 73.502l.113.127.013-.013.012.013.19-.027.05-.145-.139-1.045h-.012v-.013l-.101.028-.025.143-.05.1-.064.1-.101.116.012.113h.013v.014h.063l.038.014.05.029.05.03h.014l-.14.2.014.216zM93.49 84.804l-.306-.129-.367-.145h-.012l-.101.244-.279.087-.522-.03-.037-.014-.266-.07-.265-.173-.228-.256-.176-.373-.077-.202-.076-.17-.101-.144-.154-.085h-.013l.154.572.228.572.14.259.176.185.19.13 1.002.415v.013l.253.014.24-.143.329-.429.28-.128h-.012zm29.762 1.13l-.025-.143.215-.272.05-.587-.063-2.862-.114-.416.039-.286-.026-.33-.114-.642-.013-.286.05-.6-.28-2.607.23-.07v-.559l-.432-2.42-.19-.57-.24-.259-.025-.128.189-.331-.075-.513-.685-1.718-.127-.172-.165-.098-.354-.044-.202-.059-.025-.128.164-.13.177-.056.14-.085.075-.231-.051-.214-.404-.642-.469-.961-.495-.758-.089-.257-.152-.285-.454-.144-.14-.23-.672-.6-.114.043-.33.186-.139-.03-.252-.115-.114-.013-.458-.429-.114-.128.19-.057.14.042.113.086.116.07.367.13.62.056.202.13.192.357-.066-.3-3.153-5.567-.987-2.762-6.64-10.976-.19-.429-.585-.917-.454-1.045-.19-.342-.635-1.774-.178-.76-.114-.358-.606-.915.088-.142-.025-.144-.24-.43-.509-1.675.319.087.57.43.669.128.101.33-.05.4-.089.315-.126-.101-.063.287v.386l.063.371.1.274.257.228.29.086h.961l.142-.044.165-.084v-.072l-.063-.274v-.07l.088-.029.089.04.088.06.05.014.292-.085.215.041.164.16.126.272.23.73.102.744-.063 2.49.48 3.277.266.759.673 1.416 1.164 1.63.242.631.531.5.09.115.075.172.48.715-.139-.816-1.52-1.831-.443-.745-.101-.285-.29-.502-.623-1.859-.228-1.031-.025-.416-.14-.1.077-.271-.291-1.846.038-.114.114-.087.088-.17.05-.172.014-.116.138-.057.203-.4.126-.43-.278-.328-.556-1.175-1.167-1.587-.976-1.088-1.23-1.761-2.531-3.19-.141-.344-.178-.315-.291-.171-.228-.173.039-.358-1.799-2.604-1.42-2.822-1.216-2.058-.862-1.246-.14-.313-.126-.39-.076-.355-.126-.357-.582-.803-.37-1.101-.177-.143-.126-.186-.215-.916-.114-.257.089-.158-.165-.057-.114-.087-.05-.127.038-.203-.089-.015-.141-.057h-.088v-.628l-.836-2.088-.303-1.418-.114-.357-.42-.588-.177-.328-.784-1.99-.129-.773-.039-.873-.075-.171-.114-.1-.114-.086-.063-.1-.038-.615-.089-.246-.101-.155-.075-.057-.076-.03-.102-.086-.1-.127-.14-.273-.101-.144-.458-.285-.026-.085-.252-.058-.152-.245-.076-.342-.012-.33-.076-.428v-.172l.127-.085.151.042.126.129.102.171.05.184.076.447.09.326.163.246.256.158-.127-.545-.192-1.618.025-.529-.012-.33-.102-.128-.062-.028-.026-.086-.038-.085-.114-.014-.114.042-.19.114-.075.044-.367-.086-.038-.144-.114-.013-.269-.03-.441.244-.14.029-.62-.044-.154-.042-.227-.1-.101.015-.153.055-.152.015-.735-.114-.228-.059-.165-.084-.1-.074-.165-.099-.202-.013-.14.013-.126.044-1.406-.372-.215-.086-.13-.085-.24-.117h-.126l-.114.015-.088.014-.203.03-.113.027-.114.074-.064.071-.025.085V2.2l-.038.1-.05.072-.127.059h-.129l-.152-.028-.076.043-.026.071v.2l-.011.115-.026.1-.139.227-.038.074-.012.086-.013.1.013.185.125.458v.243l-.037.443.013.116.037.215.05.141.077.172.088.158.345.4.088.13.038.085.038.186.025.215-.013 1.302-.113 1.245v.372l.113.544.013.115-.013.157-.038.088-.075.057-.382.199-.063.014h-.077l-.278-.042h-.101l-.658.213-.141.015-.114-.028-.088-.044-.064-.057-.1-.142-.317-.673-.063-.158-.013-.1-.013-.115.013-.228.026-.287v-.2l-.052-.174-.101-.155-.075-.114-.42-.445-.102-.145-.025-.07-.013-.07.013-.072.05-.143.014-.129V7.24l-.039-.028-.606.072-.531.057-.687.072-.834.085-.951.086-1.078.114-1.179.113-1.28.13-1.368.13-1.431.142-1.508.143-1.558.157-1.597.143-1.621.158-1.646.143-1.647.157-1.65.143-1.634.142-1.608.145-1.571.143-1.52.13-1.47.113-1.394.114-1.317.114-1.23.101-1.129.087-.998.086-.889.072-.746.057-.597.042-.442.03-.278.027h-.089l-.47.044-.127.042-.733-.687-.382-1.216-.114-.801-.165-.43-.252-.429-.14-.115-.176-.558-.114-.2-.101-.088-.281-.17-.064-.071-.05-.243.026-.057-2.306.342-2.306.358-2.294.344-2.305.343-2.307.345-2.304.327-2.308.331-2.306.328-2.304.314-2.307.33-2.32.314-2.305.316-2.306.3-2.304.301-2.32.314-2.306.287-.658.085-.064.288.114.887-.013.1-.228.773-.037.199-.013.129v.114l.037.144.077.157.177.244.19.212.774.69.1.14.367.59.241.3.215.157 1.254.673.127.101.063.057.038.199.013.285-.025.675-.063.514-.204.545-.037.17-.013.087.076.3.354.885.013.015.268.131.114.072.14.057.277-.086.127.029.151.171.101.243.013.243-.127.115-.34.144-.254.27-.37.645.014.129.204.114.026.202-.089.199-.154.173-.176.07-.368.044-.165.1.266.056.267.113-.533.16-.163.086-.127.114-.076.128-.088.114-.167.087.026.143.154-.1.303-.143.127.028.24-.186 2.026-.772.306-.215-.088-.344.151-.071.354-.115.127-.1.024-.185-.088-.474.013-.184.266-.23.316-.071.28-.158.076-.457.063.043.013.027.038.03h.09l.278-.787.024-.243-.1-.33-.33-.442-.076-.232-.126-.6.038-.214.202-.072.19.1.088.187.127.143.253.015-.025.1-.013.213-.013.1h.316l.155.26.089.342.125.243-.063.272.013.314.101.2.228-.029.127-.242.024-.659.14-.47.202-1.09.064-.142v-.2l-.178-.317.33.174.204.372.177.227.266-.242.09.114.024.057.013.085-.469.318-.192.241-.063.285.05.174.08.087.113.013.152-.013.075.07.228.344.14.07h.252l.33.042.318.132.202.2.013.214-.228-.043-.293-.143-.203-.057-.847 1.002-.266.1-.799.114-.85.387-.519.357-.114.057-.088.084-.037.232.72-.202 1.406-.656 2.245-.659.82-.114.409-.129.291-.23.328.099 1.18-.313 1.14-.072.152-.156-.039-.302.013-.086.355.015.163-.087.153-.314.128-.07.19-.044.177-.103.164-.127.14-.143.013-.142-.127-.474-.037-.228.151.242.165.158h.138l.077-.215.1-.114.14-.057.344-.042-.268.557-.038.3.23.214h.253l.19-.17.164-.215.202-.114.278-.085.61-.274.279-.086.632.044.294-.072.202-.272.24.486.203.16.252-.118.357-.256.025.316-.092.114-.075.1.13.272.505.487.013.1.138.128.013.258-.125.172-.292-.202-.151-.071-.724-.128-.43-.3-.228-.115h-.205l-.177.143.05.13.193.085.228.014.075.043-.024.128-.09.127-.075.104-.685-.104-.177-.14-.127-.2-.088-.201-.013.014-.026-.027-.062.027-.064.2-.05.271-.077.245-.177.128-.975-.114-1.192.114-.24-.057v.114l-.014.03.419.243 1.773-.03 2.61.43 1.928.386 1.797.773 1.332.516 1.937 1.216.354.04-.139-.154-.1-.114.113-.057.215.198.075-.285-.278-.228-.29-.16-.14-.198.177-.401-.202-.189-.164-.184-.178-.157-.278-.029-.306.114-.19.114-.165.03-.252-.186-.139-.315.113-.272.254-.215.228-.114.457-.129.152-.158.126-.371.228.371.227.287.166.257.037.331.178.043.088-.175.076-.213.154-.129.19-.129.201-.17.165-.043.101.243.228-.243.278-.745.127-.174.154.075.165.213.228.429-.342.028-.483.858-.367-.114-.228.07-.509.963-.29.256.139.173.127.114.128.083.544.218.153.1.138.215.228-.116.37.086.341.2.227.17.013-.112.037-.072.013-.086-.013-.142.292.085.215-.114.202-.171.28-.058.014.115-.19.228-.025.298.126.161.253-.189.088.289.038.645.177.3.228.099.127-.186.126-.458.127-.115.013.044.011.1.066.084h.114l.241-.056.114.041.088.204-.164.114-.228.114-.101.156-.205.186-.544-.156-.57-.357-.28-.359-.29-.242-.987-.2L31 23.68l-.913-.057-.114.057.151.202.823.714.217.073 2.065 1.458-.292.043-.366-.2-.345-.314-.202-.288-.114.015.05.174.064.128.064.1.088.1.483.36 1.773.641.278.202.292.256.255.33.127.33.138.27.544.616.19.387.102 1.359.037.215.064.071-.09.187-.138.214-.139.1-.203.029-.126-.072-.456-.601-.204-.372-.165-.415-.088-.443-.114-1.317-.063-.186-.165.457.152.974.469 1.56.178.258.266.256.316.101.52-.371.33-.03.354.015.316-.042 1.635-.888.597-.132 1.176-.028.18-.155.24-.557.354-.116.202-.53.178-.156.215-.13.179-.215.177-.129.253.087-.341.873-.038.171.101.316.165-.072.176-.259.19-.142.279-.114.215-.2.305-.358.215-.115.393-.115.164-.142.648-.93.391-.43.684-.33.546-.658.733-.658.178.171.242-.072.266-.141.278-.115.607-.029.584.114.013.114-.05.072-.114.244.38-.358.125-.471-.152-.388-.467-.114-.926.015-.152-.072-.05-.215-.064-.172-.24.029.14-.33.239.045.304.156.518.1.395.112h.202l.026-.069-.342-.358-.114-.156-.04.071-.089.144-.038.084-.088-.156-.05-.101.024-.157.013-.042-.013-.047-.075-.14.088-.158.064.044.037.027.114.043-.05-.313.079-.173.48-.415.165-.057.467-.043.013-.086.064-.214.088-.244.114-.158h.078l.076.015.063.042-.013.044.304-.057.076-.057.063-.186.088-.057.09.013.05.03.038.057.037.014.127.085.088.228.101.144.152-.087.27-.27 1.035-.27.446-.304.278-.07 1.205.815 1.507.76.696.211.331-.14.367.358.202.142.265.015.19.086.724.443.164.173.152.213.633.56.179.399.076.084.151.075.165.1.09.185.125.442.038.189.14.3.265.326.306.304.265.184.544.173.114.07.19.174.139.085.318.086h.305l.265.043.202.215.114.386.038.443-.05.401-.128.243.114.172.101.256.051.274-.038.186.407.256.203.07.152-.042.873.86.457.301.355-.129.34.243.307.272.531.616.33.515.05.03.075.384.063.202.064.114.164.143.256.129.29.085h.229l.227.071.164.23.14.244.127.142-.153.215.026.171.127.116.217.015.101.085.038.215.101.213.253.057.19-.042.1-.043.253-.158.204-.071.42-.085.164-.1.278.142.354.101.344-.044.253-.3.088.101.19.157.076.1.113-.115.266-.213.05.371.077.285.151.215.281.101-.294.271.218.301.607.401v.072l.077.586v.186l-.064.212.114.132.177.072.19-.015-.05.386.126.316.736.771.127.088.114.028.29-.015.114.03.193.214.075.27.013.946.05.2.178.543-.433-.456-.266-.115-.164.328.075.158.342.386.117.23.05.072.101-.03.114.015.064.157.1.645.051.185.064.128.012.13-.101.2-.025.157.025.158.063.156.076.116-.102.371.177 1.633-.075.601v.228l.126 1.03-.228.702.039.127.013.116-.14.272-.316 1.688.101-.057.039-.042.05-.072.063.243-.089.287-.24.6-.04.558-.051.259-.165.287-.151-.072-.038.256.038.386.037.244.152.471.127.274.18.243-.114.2-.016.228.054.515-.078 1.804-.292 1.603-.114-.257-.012-.344.063-.33.101-.284-.126.199-.127.3-.088.345-.013.358.088.372.215.513.064.244.265.416 1.066.858.29.587.091.3.177.4.215.317.19.013-.025-.243-.152-.4-.316-.617-.217-.314-1.038-.945-.164-.228.013-.286.34.271.646.429.32.286.328.43.202.085.33-.014.037.087.037.414.064.158.09.07.1.015.28-.055.228-.16.127-.3v-.357l-.14-.286.102-.616v-.129l.025-.114.164-.33.038-.2-.038-.215-.126-.386-.063-.23.43-.399.126-.145-.632.202-.61-.156-.607-.274-.61-.143.205-.37.645-.345.152-.271-.544.1-.152-.015-.012-.085.076-.158-.013-.086.05-.215v-.157l-.05-.129-.164-.273-.064-.155.697.543-.039-.186v-.072l.09-.015.15.186.216.144.445.17.025.144-.294.187.026.142.47-.07.392.028.303.2.165.458.039.945.088.456.243.346.126.013.544-.07.038-.202-.051-.2-.139-.258-.076-.686.013-.315.101-.257.291-.244.266-.015.205.186.252.759.405.744.101.43-.076.3-.404.701-.076.215-.37.416-.063.141-.152.574-.088.1-.14.071-.1.114-.012.231-.026.155-.367.46-.14.415-.05.414-.101.373-.293.3.088.171.05.057-.138.274.176-.13.231-.085-.063.242-.18.215-.418.214-.215.187h.228l.19.041.177.086.18.13-.319.072-.417-.158-.38-.058-.214.373.114.114.113.057h.114l.089-.1.088-.014.037.187v.17l-.05.172-.088.158-.19-.158-.43-.158-.168-.098-.1-.13-.317-.588-.1.015.088.301.418.802.204.243.253.073.57.014.66.385.303.129.24.2.291.888.417.672.092.474-.105.013-.075-.1-.05-.042-.064-.03-.063-.058.05.415.253.33.294.329.24.387.102-.027-.026-.26.164.1.14.187.088.258.038.314-.088-.071-.064-.087-.1-.199.138.414.469.716.242.658 1.799 2.82.151.357.077.057.088.057.19.087-.114-.286-.254-.402-.088-.3.468.445.686 1.531.493.256.14-.013.1.013.228.044.142.057.164.144h.101l.09-.03.037-.057.025-.042.038-.03.076.03.177.156.05.03.077-.087.1-.156.064-.16.012-.055.153.171.138.53.117-.116.063-.256-.051-.288-.256-.815-.34-.657-.102-.117-.113-.112-.292-.545-.189-.187-.089.173-.192-.144-.532-.542-.214-.315-.076-.145.342.116.189.186.392.516.23.028.228-.2.14-.072-.014.329.33.314.188.13.064-.073.063-.2.19-.057.167-.114.025-.301.367.043.253-.114.24-.172.597-.256.279-.417.228-.127-.101.614-.064.143-.127.114-.316.144-.686.643-.252.315.012.243.354.23.216.086.139.156.103.46.038.428-.053 2.262.053.428.114.287.367.616.114.329.038.443-.026.3v.244l.178.3.278.258.19-.043.18-.186.29-.201.038.258.126-.099.342-.186.1-.1.051-.102.254-1.559.113-.33.408-.687.252-.329.228-.17.279-.087.331-.315.202-.143-.025.243-.063.186-.089.159-.141.155-.165-.072-.151.103-.114.199-.026.185-.556.86-.14.271.127.473-.202.573-.344.514-.367.387-.05.1-.05.086-.115.058-.114-.042-.14-.187h-.063l-.062.2v.27l.05.288.05.17.076-.156.102.086.05.014.177-.157.901.373.316-.072.076.043.076.072.114.042.063-.072.038-.172-.127-.473-.05-.269.151.27.392.545.155.27.126.359.203 1.173-.101.013-.026-.127-.101.015.1.314.583.844.025.057.013.129v.658l.355 1.46.47 1.303.114-.014-.039-.215-.025-.186.013-.202.038-.184.456 1.302.303.443.496.301-.102.2.076.216.164.199.19.115h.152l.341-.1.228-.045-.025.23-.076.287-.114.228-.126.115-.19-.058-.202-.17-.19-.086-.202.127.189.544.076.13.177.17.064.03h.114l.088-.015-.026-.127.063-.1.04-.057.037-.145.025-.114.126.129.178.085.179-.013.177-.072.139-.144.076-.272.127-.17.114.198.176.13.177.043.114-.072.05.116.038.042.013.043-.037.158.114-.072.154-.2.063-.058.139.028.228.129.342.086.202.173.164.042.165-.286.192.143.24.272.202.127.202.044.456.015.202.042.42.23.418.301.354.442.138.115-.34.43-.114.229.202.057.088.1.254.473.128.142h.14l.518-.072.063.346.089.199.152.127.025.259.42.601.291.816.088.171.19.043.33-.157.164.043.037.128-.037.173-.077.129-.252.272.228.344.596.528.329.673.05.185.127.373.05.2.152.172.8.502.606.013.09.028.29.13h.56l.303.1 1.027.873.151.315-.088.444-.228.272-.319.17-.34.045-.292-.072-.013-.114.089-.057.126-.102.077-.043-.026-.129-1.242-.327-.228-.116h-.05l-.354-.53-.127-.128-.176-.142-.206-.1-.19-.017.051-.285-.24.301-.165.686-.05.758.076.603.265.544.332.542.847.63.24.014.686-.328.607-.185.483-.217.582-.129.278-.115.279-.5.063-.043.382-.4.265.2.468.014-.025.172.012.144.152.015h.076l.038-.059.026-.17.1.099.092.042.088.03.076.043.013-.087.013-.07.025-.058.025-.086.177.171.266.057.253-.042.177-.072.253-.386.192-.142.253.114.088-.03.064-.17-.026-.116-.063-.114-.063-.173.076-.071.543-.256-.024.1-.013.014h-.026l-.038.044.253.042.101-.301.039-.43.103-.344.215-.127.62-.129.19-.086.075.114.026.057.037.072-.138.057-.064.058-.025.086-.038.13.114.042.088.07.09.085.063.117.242-.243.304-.015.278.2.114.401.1-.014-.1-.388-.228-.243-.303-.127-.345.028.155-.272.278-.23.228-.073.05.288.215.043.38.428.268.173-.013-.187-.243-.17-.228-.244-.012-.373-.012-.213.202-.387.026-.187v-.17l.05-.158.546-1.017.48-.658-.025-.228-.126-.13-.215-.085-.152-.129.05-.386.09-.287-.077-.085-.113-.057-.089-.086-.114-.4-.025-.345.063-.373.19-.456.05-.33-.139-.93v-.371l.367-.588.19-.859-.05-.472.024-.187.14-.2.138-.056.152-.028.153-.116.166-.402-.129-.8.117-.53-.013-.7.417-.916.127-.03.088.243.09.488.024.873.127.787.1-.028-.644-5.582-.304-.372zm-14.674-44.779v-.615l-.34-.515-.203.057-.165.128-.278.33-.294.272-.063.158-.038.329-.316.057-.037.53.138.615.178.27.366 1.505.13.342.277.358.798 1.718.318.472-.079-.287-.151-.285-.202-.344-.064-.215-.013-.17.026-.36-.278-2.346.025-.73.265-1.274zm.66 6.368l.077.202.063.228v.015l.114-.03-.063-.172-.355-.556.076.127-.076-.127.165.313zm4.764 7.8l.366.485.064.16.063.228.205.357.152.544.151.257.177.202.178.3 1.065 2.733.29.558.064.229.063.1.227.144.064.086.1.27 1.269 2.062.277.702.37.357.303.502-.012-.043.025.043-.14-.43-3.789-7.228-.088-.285-.088-.386-.127-.387-.329-.658-.786-1.074-.43-.715-.228-.744-.063-.057-.051-.043-.025-.042-.013-.101-.012.014v-.014l-.104.057-.038.057-.05.072.255.371.645 1.317zm10.49 72.085l.088-.114.028-.087-.065.072-.05.129zm1.418-.988l.104-.058-.053-.043-.05.101zm.231-.088l.088-.084-.075-.015-.013.1zm.86-.656h.114l-.013-.101-.101.1zm.571-.26l-.012.144.063-.042-.05-.101zm-49.59-80.383l.101.087.063.027.038.015.012-.042v-.072l-.038-.072-.227.015-.025.028.075.014zm-.395-4.464l.012.1.039.1.125.057.029-.057-.016-.057-.037-.042-.038-.26-.076-.128-.152-.042-.076.071.151.085v.101l.04.072zm.19 2.188l-.102.087.038.071.268-.114-.075-.03-.13-.014zm-.216.388l-.088-.015-.076.057.013.072.05.03-.037.014-.05.013-.064.015.013.057.215.057.011.071.064.043.063-.013.026-.015.05-.158-.012-.228-.114-.028-.064.028zm.231.671l-.066-.057v.088l.05.013.016-.044zm-.395-1.587l-.126-.044-.1.03-.027.1.05.115.064.042v.072l-.05.114v.057l.075.014.152-.042.102-.143-.026-.186-.114-.129zm.265 2.275l.064.086-.038-.129-.026.043zm-1.049-3.82l-.037.028v.087l.05-.072.05.028.013.044.089-.144-.077-.058-.063.03.05.043-.011.014h-.064zm.126.916l-.113.043-.063.084.05.044.114-.1.05-.014.051.013.064.015.037-.042-.05-.03-.14-.013zm-.277-.687l-.013.1.075.028-.012-.044-.05-.084zm.872-.286l.063-.016v-.042l-.075-.044-.077-.028-.075.013-.089.044-.088.087.024.071.178-.071.139-.014zm-.923 1.73l.05-.027v-.072l-.038.043-.012.057zm-1.75-5.91l-.064.014-.076.057-.012.145.075.057.09-.044.074-.102-.011-.085-.077-.042zm-3.496-.144l-.09-.1-.113-.07-.101.128.025.27.139.043.177-.127.101-.057-.05-.028-.088-.059zm5.891 3.837l.114.057.101.013.05-.057-.025-.027-.05-.015-.051-.03-.076-.027-.089.028-.05.044.037.027.04-.013zm.176 3.334v-.042l-.075-.015-.063.085.025.044.051-.03.062-.042zm25.886 76.005l-.077-.057-.088-.044h-.013l-.088.015-.278.37-.101.088-.165.013-.177-.028-.127.057-.025.316.013-.014v.014l.455-.158.215-.115.14-.142.05-.13.025-.142.063.086h.025v-.1l.05.07.051.071.063.042h.013l.09.015-.052-.142-.062-.085zm-1.076-25.274v-.086l-.063-.03-.05.044-.013.173.05.057.064-.072.012-.086zm-4.905 25.89l-.202-.03-.164.073-.025.071.088-.03.076-.012.114.057.139.057.164.241.025.101.026-.202-.064-.197-.177-.129zm-.025.802v.057l.152-.087.063-.087-.063.029-.152.088zm-.303.114l-.013-.015-.025.015.025.028.013.014.012-.014-.012-.043v.015zm7.461-2.306l-.011.015v-.015l-.393.2-.177.042-.164-.1h-.013l-.089.015-.063.13-.013.114.039.087.1.086.013.114-.126.228-.05.07.012-.013v.013l1.1-.6-.114-.3-.05-.086zm.51-23.312l.05.016-.013-.059.038-.057.051-.1.076-.085.151-.044.09-.087-.052-.1-.126-.07-.114-.043-.306-.187-.127-.1-.291-.1-.139.2.013.187.05.113.064.416.088-.029.101-.156.127.027.202.2.066.058zm.341-.285l-.152.156.025.1.417.102.114-.057.089-.145-.076-.129h-.177l-.088.044-.05.056-.052-.085-.05-.042zm-8.464 25.53l.025-.015-.025-.028v.043zm5.764-26.775l-.126-.116-.19.015-.012.173.05.099.089.07.101.03.038.172.013.301.05.057.101-.343.013-.16-.05-.112-.089-.087-.05-.042.025-.015.037-.042zm.747.7l.05.044.243-.016.114.116.05.086.077.098.126.101.089-.057.025-.142-.064-.114-.05-.044-.051-.158-.151-.272-.152-.1-.23.1-.064.044-.126.072-.19.142-.025.23.101.086.05.042v.07h.026v-.314l.063-.072.09.059zm-2.85-.43l-.19.087-.152.014-.14.043-.012.186.05.1.038.044.089.057.05.085.063.128.101.029.19-.015.079-.112.127-.401-.076-.188-.217-.057zm-14.9 27.507l.013-.03-.025-.071.013.1zm.076-.101h.026l-.013-.057-.013.057zm.088.072l.013-.057h-.025l.012.057zm-.95.043l.05-.058-.05-.057v.115zm-2.077-52.22l-.673-.645-.455-.7-.177-.115-.026-.014-.253-.087.101.23.228.301.127.128.165.272.748.73.303.185v-.014l.013.014-.1-.285zm8.843 11.305l-.342-.3-.328-.07v.013l-.013-.013-.205.042.281.513.367.56.29.53v.499l.253.33.37.886.253.345h.012l.203.042-.026-.33-.252-.957-.152-.244-.294-.372-.24-.386.038-.7-.215-.388zm5.158 40.3l.05.042.026-.042-.05-.043-.026.043zm-10.872.071v-.014l-.026.029.013.028h.013l.012-.013v-.03h-.012zm10.847-.257l.025.03-.025-.103v.073zM89.928 81.84l-.329-.671-.088-.444-.114-.071-.025-.015-.038-.014-.063.014.316.859.177.357.278.387-.013-.014.013.029-.114-.417zm15.926 35.063l-.138-.187-.052-.015-.012.015v-.015l-.038.015-.025-.015-.013-.099-.101.015-.05.43.012-.015v.015l.165-.015.1.028.025.057-.063.127.026.145h.013l.265-.073.165.057.09.187-.037.259-.092.03-.114-.217h-.012l-.215-.114-.392-.043-.076-.014v.014l-.012-.014.114.114.1.086.253.116-.088.185-.038.043-.038.07-.075.085-.317.244-.152-.07h-.013l-.164.115-.256.343.013.127.013-.015v.015l1.052-.557.483-.357.342-.373-.026-.144-.622-.585zM89.028 79.15l-.228-.4-.088-.115H88.7l-.05.015-.064.129.19.314.177.93.177.373v-.014l.015.014.051-.444-.038-.4-.129-.402zm21.58 24.244l.138.085.165.072.012-.186.026-.1-.026-.072-.063-.144h-.126l-.164.086h-.064l.038-.042-.101-.015-.079.115.243.201zm2.202 1l.077-.099.1-.029-.1-.127-.101.013v.03l.024.027.013.015-.05.114.037.057zm.367.487l.154.014h.013l-.038-.143.114-.085.064-.057-.039-.03v-.072l-.114-.028-.09.014.053.057-.026.087-.091.243zm-1.633-1.487l.112-.144-.037-.072-.279-.028-.088.043-.013.114.064.1.076.072.165-.085zm-.406.327l.089.23.152.201.139.03.088-.103.039-.127.088-.246-.077-.198-.075-.029h-.19l-.19.072-.063.17zm-.063-.787l.013-.057h-.253l-.304-.056-.088.056-.026.115.114.015.544-.073zm-29.37-37.521h-.012l-.064-.016-.026.073-.05.171.013-.014v.014l.252-.186.013.015h.013l.025-.042-.025.013.013-.013-.051.027-.102-.042zm31.779 38.825l.062.1.064.272.038-.015.038-.13v-.17l-.114-.23-.114-.1-.076.129v.16l.038.012.064-.028zm-6.78 12.35l-.063-.06-.126-.084-.127-.028h-.101l-.076-.03-.05.016-.028.215.013.258.09.142.051.043.038.03h.076l.063-.058.063-.042.1.013.103.086.088.129.026-.101-.064-.344-.076-.186zM78.386 46.693l.013.042.012.015.052-.043v-.044l-.077-.114-.14.03.09.042.05.072zm41.393 57.458l-.063.03v.071l-.076.042-.025.087h.013l.113-.059.038-.17zm-1.988 1.875l-.038-.1-.063-.028.012.184.039-.03.05-.026zm.29 4.007l.026.098.064-.028-.09-.07zm.203-3.951l-.088-.044-.076.044.012.042.076.074.038.099.05.015.04.057.024-.101-.025-.129-.051-.057zm-.964-.386l-.113.028.113.13v-.158zm.547 5.15l-.114.101-.076.116-.012.142.063-.013.215-.217.101-.114.139-.256-.038-.085-.278.326zm1.356-1.716l-.089.115-.382.759.152-.1.255-.43.102-.243-.013-.042-.025-.059zm-.85-3.162l.063-.013v-.186l-.1-.217-.027-.042-.037.072.012.202.089.184zm4.905-5.652l-.231.226-.303.76-.177.187-.468.243-.076.13.089.197.126.072.14.117.075.256-.076.429-.455.801-.165.875-.723-.03-.026.358v-.014.014l.203-.13h.063l.114.03.114.158-.026.23-.114-.044h-.012l-.05.015.012.07.089.114-.101.259-.14.13-.316.129.09.226-.077.23-.303.528-.153.446-.104.114-.24.087-.063.127-.088.702-.152.113-.228.1-.126.144.114.186h.012l.304-.057.278-.471.433-.93.404-.56.09-.228.062-.457.076-.23.177.015.152-.13 1.027-1.63-.026-.116-.113-.272.126-.5.367-.916.344-.73.05-.215v-.143l.038-.242.076-.23.077-.143.062-.057.05-.073.04-.071.024-.113-.354-.086h-.012zm-4.245 4.435l-.1-.043-.13-.027-.05.1.063.07.192.043.025-.143zm-.673 1.82l.063.099.051-.057-.05-.1-.064.058zm-1.027 1.887l.076-.115-.089-.013.013.128zm.648-2.203l-.165.013.24.086-.075-.1zm-7.894 9.917l-.153.284.026.044.138-.127.09-.158-.026-.072-.075.03zm-2.04-.702l-.508-.314h-.127l-.037-.015-.064-.057.05.057-.063-.057 1.293 1.574.101.544h.013v.015l.306-.357-.344-.702-.62-.688zm-.812 1.058l-.114.014-.012.074.05-.015-.012.042-.088.114.037.117.202.142.038.087.09-.015.011-.2-.088-.2-.114-.16zm.446.417l.05.057.114.057.038-.157-.114-.058-.088.1zm1.318-1.19l-.117.015-.05.072.062.128.063.058.156.073.151.158.013-.101-.114-.258-.164-.145zm7.638-6.095l.077.073v-.03l-.077-.043zm.33 2.074l-.102.015-.076.115-.038-.014-.012-.13v-.2l-.013.015v-.014l-.595.687-.128.242h.013l.558-.156.228-.128.114-.16.063-.127.013-.058-.013-.087h-.013zm-1.774-3.547l.013-.015-.063-.042.05.057zm-1.823 6.125v-.015l-.332.129-.784.456-.29.23.024-.013-.012.013.493-.1.126.057.051.03.127.257v-.013l.013.013.037-.257.064-.202.125-.157.332-.228.038-.073v-.127h-.012zm1.659-1.116v-.015l-.47.215-1.05 1.145.037-.029-.025.03 1.05-.76.192-.272.19-.086.05-.044.05-.086-.011-.113-.013.015zm1.874-5.382l-.076-.158-.05.085.139.16-.013-.087zm7.234-10.504v-.015l-.126.1-.025.1-.064 1.133-.088.327-.177.243.05.015h.013l.038-.015.013.015.013.014.176-.272.14-.443.075-.46v-.413l.013-.1v-.143l-.038-.101-.013.015zm-3.242 8.185l-.089-.257-.037.186-.09.128-.012.087-.038.028-.025.073.038.057.164-.272.089-.03z"/>
        </g>
    </g>
</svg>
