<svg xmlns="http://www.w3.org/2000/svg" xmlns:xlink="http://www.w3.org/1999/xlink" width="128" height="128" viewBox="0 0 128 128">
    <defs>
        <path id="a" d="M0 0h128v128H0z"/>
    </defs>
    <g fill="none" fill-rule="evenodd">
        <mask id="b" fill="#fff">
            <use xlink:href="#a"/>
        </mask>
        <use fill="#AFC7D1" fill-opacity="0" fill-rule="nonzero" xlink:href="#a"/>
        <g fill="#AFC7D1" mask="url(#b)">
            <path d="M116.513 46.64l-.21.645.266.365.627.301.304.28.327.389.666.515 1.755 1.012.647.6.416.928-.017-.191.171 1.61.228.647.65.345.476.623.267.13.264.041 1.755.926.208.194.534.583.189.127.308.022.154.194.056.343.02.431.093.387.59 1.228-.056.343v1.205l-.267 1.034-.02 1.766-.171 1.29-.189.624-.327.301-.304.174-.761.794-.248.323-.228.449-.227.605-.135.647-.037.622-.232.603.037.108.1.13.037.149.058.69-.02.3-.075.301-.271.365-.818.625-.152.215-.132.41-.343.323-.783.429-1.906.58-.4.24-.666 1.054-.36.429-.822.387-5.562 1.012-.744.646-.399.924-.323 1.164-.21 1.267-.076 1.23.038.6.152.688.267.581.417.218.29.108 1.046.752.627.816.423 1.142.227 1.29.02 1.356-.27 1.056-1.77 2.668-.303.58-.175.473-.057.451.018 1.274-.076.622-.304 1.184-.456.882-.629.6-.763.37-.78.17-.609.234-.84.517-.76.605-.306.537-.037.194-.152.32-.039.282.095.238.571.495.21.45.057.518-.076.882.037.497.152.73.058.429-.152.301-1.14.495-.23-.213-.593-.196-.247-.194-.781-.73-.189-.257.037-.194-.02-.193-.075-.196-.133-.194-.171-.125-.403-.154-.19-.13-.058-.152-.056-.147-.056-.132-.135-.042-.208.022-.096-.022-.095-.066-.096-.171-.112-.385-.059-.108-.475-.301-.44-.086-.191-.11-.171-.194-.096-.21-.056-.265-.037-.385-.096-.151-.381-.258-.096-.127-.189-.41-.802.064-1.887.172-4.8.43-4.801.43-4.8.411-4.803.385-4.8.39-4.801.387-4.8.365-4.805.345-4.818.343-4.8.324-4.801.3-4.822.302-4.8.302-4.8.279-4.82.257-4.823.258h-.115l.057-.471v-.625l-.209-.624-.38-.282-1.065-.429-.227-.473-.063-.257-.132-.194-.096-.215-.037-.41.057-.3.076-.153.27-.34.38-.713-.039-.236-.208-.365-.057-.345.057-.669.132-.536.096-.56-.096-.71-.265-.688-.038-.367.056-.6-.018-.28-.138-.304-.36-.301-.171-.216-.115-.32.039-.26.113-.15.058-.152-.115-.213-.076-.152-.039-.108-.056-.085-.096-.064v-.174l.115-.194.248-.816-.133-.389-.078-.924-.113-.43.456-.26-.265-.216-.894-.28-.286-.342-.02-.473.115-1.228.209-.13.399-.536.267-.581-.191-.235-.34-.044-.899-.304-.323-.191.4-1.828v-.326l.155-1.183-.136-.28-.135-.063-.171.022-.798-.174-.265-.172-.135-.32.04-.282.075-.368.096-.343.093-.127.02-.088-.152-.194-.248-.193-.247-.064-.171.064-.384.301-.228.022-.438-.323-.037-.579.095-.583v-.235l-.286-.218-.152-.495-.076-.644-.039-1.208.059-.213.113-.238.19-.299.057-.152-.037-.15-.039-.386.076-.54.152-.516.056-.559-.208-.644-1.202-1.294-.076-.17-.342-.732-.076-.257v-.323l.19-.583.057-.26-.267-1.137-.722-.605-.818-.495-.575-.796-.095-.645-.018-.58-.039-.54-.227-.472-.363-.345-.664-.451-.29-.431-.208-.689.056-.517.152-.493.076-.536-.056-.669-.115-.475-.228-.365-.284-.236-.04-.45-.665-.863.058-1.205.228-1.25-.304-1.16-.343-.28-.461-.152-.855-.128-.04-1.011-.132-.346-.113-.063-.095-.152-.02-.172v-.235l-.019-.172-.056-.152-.133-.26-.076-.127-.078-.085-.113-.066-.327-.214-.039-.088v-.066l.059-.105.017-.044.214-.194.057-.127-.02-.13-.076-.108-.151-.194-.176-.171-1.046-.796-.17-.172-.172-.218-.324-.514-.112-.28-.04-.237.04-.385.075-.28.152-.411.285-.475.039-.128.056-.151.02-.15.056-.15.058-.13.076-.107.057-.086.076-.044.284-.15.078-.063.057-.108.02-.152v-.365l.036-.172.039-.13.076-.107.076-.066.037-.15.039-.215.02-.774.017-.194.02-.064.346-.453.056-.172.076-.345-.037-.537-.02-.107.02-.064v-.044l.076-.15.113-.387.04-.193-.02-.132-.037-.084-.059-.11-.093-.15v-.15l.037-.15.61-.69.075-.151.076-.213.172-1.142v-.235l-.04-.174-.056-.216-.076-.28-.19-1.222-.076-.304-.057-.132-.076-.105-.115-.064h-.115l-.189.022h-.151l-.423-.066-.304.044-.171-.022-.135-.044-.132-.15-.037-.151.017-.15.057-.13.171-.215.059-.106-.04-.108-.095-.107-.152-.108-.17-.302-.018-.19.056-.133.115-.044.284.044.133-.044.095-.064.076-.107.039-.108.056-.689-.037-1.462-.058-.302-.076-.105-.343-.39-.152-.237-.36-.407-.095-.152-.096-.28-.02-.215v-.257l.04-.326-.02-.193-.056-.194-.059-.15-.056-.171.076-.086 2.705-.13 6.21-.235 6.213-.257 6.21-.282 6.23-.277 6.209-.328 6.21-.343 6.213-.365 6.21-.365 6.212-.407 6.21-.433 6.213-.43 6.191-.474 6.213-.473 6.21-.515 6.193-.517 6.21-.56v.41l.04.341.075.326.115.3.304.558.113.26.078.299.152.778.17.28.229.171 1.696.58.514.601.113 1.056-.303.882-.894 1.615-.152 1.011.247 1.98.208.946.076 1.034.057.323.115.321.115 1.294.152.622.247.451.588.69.234.386.152.497.132 1.203.115.519.74 1.353.267.345.475.323.86.326 3.352.407.896.28.458.021.475.128.323.387.46 1.12.19.325.552.75.19.41-.019.32z"/>
        </g>
    </g>
</svg>
