<svg xmlns="http://www.w3.org/2000/svg" xmlns:xlink="http://www.w3.org/1999/xlink" width="128" height="128" viewBox="0 0 128 128">
    <defs>
        <path id="a" d="M0 0h128v128H0z"/>
    </defs>
    <g fill="none" fill-rule="evenodd">
        <mask id="b" fill="#fff">
            <use xlink:href="#a"/>
        </mask>
        <use fill="#AFC7D1" fill-opacity="0" fill-rule="nonzero" xlink:href="#a"/>
        <g fill="#AFC7D1" mask="url(#b)">
            <path d="M100.894 85.103l-.23 2.656-.244 2.67-.232 2.657-.232 2.668-.244 2.67-.462 5.34-.243 2.682-.233 2.67-.244 2.681-.462 5.367-.244 2.683-.244 2.682-.463 5.377-2.212-.26-2.201-.248-2.202-.262-2.202-.262-2.2-.276-4.403-.548-2.19-.275-2.201-.289-2.202-.287-2.2-.302-2.202-.288-2.19-.3-2.201-.314-2.202-.316-2.19-.313-2.189-.313-2.178-.315-2.178-.327-2.19-.327-2.177-.327-2.18-.34-2.177-.34-2.178-.355-2.178-.34-2.178-.352-2.179-.367-2.178-.354-2.178-.366-2.177-.365-2.18-.38-2.166-.381.231-1.766.244-1.752.244-1.769.231-1.765.243-1.755.244-1.766.232-1.765.486-3.509.232-1.766.244-1.753.232-1.754.243-1.753.242-1.769.233-1.752.242-1.752.105-.761.208-1.53-.01-.222.01-.132-.034-.405.22-.249.278-.17.162-.197.185-.366.093-.392.22-.524.174-.68.082-.183.068-.117.058-.131.036-.185-.036-.38-.23-.626.034-.274.138-.133h.163l.151.04.139-.04.116-.156.07-.182.046-.198.022-.197.058-.09.094-.08.057-.117-.035-.17-.186-.276-.172-.195-.233-.198-.046-.09-.058-.25v-.183l.035-.195-.023-.157-.128-.078h-.266l-.22.065-.197.027-.232-.131-.069-.145-.047-.168-.069-.16-.14-.065-.162.039-.127.107-.116.13-.128.117-.394-.42-.15-.26-.035-.327.035-.17.081-.21.046-.171-.011-.222-.105-.38-.022-.195.092-.392.174-.316.127-.287-.046-.471.082-.105.126-.079.058-.09.07-.21.116-.066.127-.013.14-.053.174-.168.196-.264.163-.3.184-.641.175-.341.37-.535.429-.811.15-.225.244-.235.753-.365.243-.157.185-.184.754-.969.335-.55.14-.3.231-.759.058-.353-.012-.052-.046-.093-.034-.141v-.2l.058-.17.115-.17 1.46-1.738.324-.616.337-.993.184-.264.152-.26.127-.695.093-.352.185-.275.452-.42.243-.535.637-.642.058-.158.105-.34.278-.536.08-.103.383-.341.198-.237.126-.301.035-.365-.035-.355-.288-.89-.117-.719-.104-.353-.116-.21-.138-.182-.453-.183-.59-.537-.197-.329-.093-.13-.777-.326-.092-.235-.058-.276-.568-.85-.209-.996-.022-.535-.012-.079-.162-.8-.475-.902-.046-.196.393-.327.162-.209.162-.328.046-.353-.184-.496-.012-.837-.104-.38-.279-.733-.428-.812-.047-.262.08-.301.245-.497.058-.484.359-2.655.36-2.644.347-2.657.359-2.644.348-2.642.359-2.631.348-2.645.359-2.63.695-5.259.359-2.632.695-5.233.36-2.617.347-2.617.347-2.605 1.066.183 2.363.406 2.376.406 2.364.405 2.362.393.128.014-.254 1.935-.244 1.937-.255 1.938-.255 1.95-.254 1.935-.256 1.95-.243 1.937-.255 1.949-.105.826.024.105.07.183.208.274.267.47.104.276.22.419.058.197.035.092.058.09.128.144.104.144.092.182.092.12.233.21.081.09.057.144.024.104.104.839.034.105.07.105.267.222.092.104.046.17.012.119.024.116.046.091.289.276.07.09.046.158.024.118-.012.118-.082.405.036.145.242.537.047.182.011.145-.034.09-.092.157-.06.066-.056.052-.058.052-.29.12-.07.04-.057.05v.091l.046.092.266.25.081.118.07.195.012.354.01.013.094.09.162.12.093.09.034.117-.034.08-.058.067-.07.026-.08.027-.083.012-.474-.04-.07.014-.057.039-.035.025-.047.053-.024.077.012.094.07.104.174.118.405.209.753.707.093.103.302.498.138.3.07.25.082.235.046.093.08.078.151.103.545.185.938.575.081.09.082.106.093.222.08.263.034.092.058.104.036.091.024.08.01.182.035.091.058.08.104.077.082.079.058.092.092.17.08.132.279.261.104.143.244.498.116.417.846 1.298.011.09.023.303v.037l.012.04.046.08.082.078.15.091.209.091.068.066.058.09.256.486.069.09.081.092.255.225.058.076v.093l-.024.078-.046.091-.022.105-.024.105-.012.288.012.183.024.182.068.25.06.091.092.106.313.288.104.13.138.221.105.131.162.106.313.145.07.064.046.079.035.13-.012.118-.012.106-.127.392-.012.091.023.079.047.077.104.04h.093l.08-.04.28-.287.196-.13.082-.04h.162l.08.027.08.052.257.26.058.105.08.171v.13l-.022.092-.174.185-.047.078-.022.092.01.09.012.08.07.117.104.13.243.224.15.09.14.066.185.013.14-.026.266-.066h.08l.07.027.175.106.08.025h.093l.081-.012.15-.067.197-.118.07-.013.776-.104.092.013.094.025.08.053.059.078.035.12.01.104-.045.417-.059.198-.092.157-.034.09-.024.093-.012.09.012.08v.104l-.024.078-.034.093-.104.13-.035.079-.011.09.011.095.023.076.012.08.012.079-.035.09-.046.053-.06.052-.138.08-.324.077-.069.027-.046.038-.036.08v.038l.036.078.139.223.034.104.034.093.012.09v.106l-.024.105-.034.092-.034.104-.325.549-.07.184-.056.196-.024.21-.012.21-.01.104-.036.09-.046.066-.267.327-.046.079-.024.09-.034.199-.036.09-.046.08-.115.13-.035.065-.035.08v.09l.023.105.036.118.046.183.012.091v.091l-.012.302.012.184-.012.105-.023.091-.047.066-.058.052-.069.039-.082.013-.382-.013-.07.027-.057.038-.024.027-.034.066-.024.09v.092l.047.105.382.575.034.08.024.09-.012.094-.023.104-.035.078-.046.079-.266.326-.047.079-.034.091-.012.104.023.131.07.184v.117l-.023.106-.035.091.023.106.093.117.242.17.29.13.081.066.024.104v.118l-.035.09-.14.225-.068.182-.024.106v.092l.012.078.035.092.185.444v.118l-.023.104-.058.064-.301.25-.07.04-.08.026h-.082l-.393-.039-.082.012-.069.027-.128.078-.046.054-.035.04-.069.142-.152.197-.092.143-.092.157-.07.052-.128.105-.057.053-.024.077.012.133.069.17.035.235.012.092.058.105.255.353.058.13v.117l-.058.157-.012.08.024.183-.012.091-.036.092-.034.08-.022.051-.036.04-.174.144-.254.182-.059.053-.022.091.01.104.048.157.034.104v.106l-.022.092-.048.078-.15.198-.01.065.034.066.162.052.219.025.51.197.104.052.349.353.046.103.01.106.012.092.058.105.105.104.36.276.046.13.034.066.082.078.115.065.232.052.128-.013.104-.025.07-.04.277-.103.058-.04.012-.014.058-.078.162-.34.046-.08.058-.065.058-.051.069-.04.07-.026h.093l.185.053h.093l.07-.027.278-.145.475-.143.068-.04.048-.052.034-.079.046-.077.046-.08.07-.052.209-.104.058-.039.058-.079.046-.077.034-.092.093-.158.059-.066.058-.052.069-.039.081-.025.301-.067.058-.026.035-.028.023-.064v-.168l-.023-.12-.012-.078.012-.091.011-.105.024-.079.034-.038.047-.04.07-.012.138.077.208.145.36.365.267.317.022.076.012.09-.012.186.07.104.128.104.556.301.092.052.07.091.092.131.035.105.011.092-.022.092-.046.078-.104.131-.036.079-.08.183-.047.21-.023.104.034.105.082.104.336.209.104.13.023.133-.012.012-.01.105v.289l-.013.092-.034.09-.094.157-.034.093-.024.104-.011.09.011.092.012.079v.196l.035.132.29.327.07.118.034.118-.023.208-.07.419-.046.197-.011.104-.012.197.023.078.035.08.058.09.23.236.082.104.036.092.01.105-.01.183.01.09.048.093.173.197.198.314.16.183.14.222.058.144.023.093.024.169v.104l.012.094.01.077.082.157.034.067.012.09-.022.21.01.092.058.064.093.052.37.04.082.064.07.131.034.313.024.082.3.6.047.17.128.497.01.092.024.276v.025l-.024.092-.114.406-.036.092-.046.077-.057.066-.06.052-.23.08-.058.04-.058.05-.024.079.012.078.034.078.094.145.069.144.047.158.103.523.06.158.08.155.126.131.499.341.15.131.082.105.012.092v.286l.058.08.104.038.209.013.116-.025.092-.04.255-.195.058-.04.08-.026.082-.027.197.04.254.105.278.208.244.275.185.262.035.079.127.302.047.078.14.196.034.078.023.079.012.079.01.09.013.093.023.077.035.078.08.147.036.076.022.08.058.262.024.078.104.236.058.156.01.078v.092l-.01.093-.046.064-.058.065-.128.091-.058.055-.046.066-.012.09v.078l.036.08.266.404.023.08.011.09-.022.197.057.092.081.091.175.116.068.107.024.091-.024.091-.138.25-.058.157-.012.039.012.079.081.234.011.079-.01.196.034.105.092.077.186.107.092.078.058.09.15.29.059.065.07.066.497.247.058.054.046.064.232.447.058.052.105.027.196-.08.058-.093.024-.09-.162-.393-.024-.079.012-.104.035-.079.047-.078.046-.065.057-.066.73-.63.07-.038.335-.038.07-.027.22-.119.093-.012.116.012.382.158 1.379.38.07.052.058.052.092.118.069.027.313-.015.174.028.21.091.092.092.068.078.048.066.057.065.105.039h.127l.186-.039.104-.065.069-.078.255-.536.127-.394.047-.079.047-.065.068-.04.14-.064.185-.066.302-.039.092-.026.058-.04.104-.104.08-.026.105.013.162.104.15.157.082.052.127.027.268.025.208.04.313.131.266.157.105.025 1.112-.079.184.054.22-.013.117-.027.093-.039.057-.05.094-.014.104-.014.475.078.196.104.105.091.068.082.082.142.022.079.036.077.058.055.082.039.104.013.244-.092.104-.027.231.012.197-.025.08-.04.545-.3.175-.015 1.24.16.139.052.335.223.127.13.07.026.104.026h.197l.115-.026.082-.038v-.08l-.024-.065-.058-.067-.254-.13-.07-.04-.046-.064-.023-.052-.024-.04-.011-.08-.023-.18v-.185l.023-.105.035-.09.103-.184.024-.079.035-.183.036-.066.057-.052.314-.092.07-.039.046-.064.034-.107.012-.091-.012-.103-.012-.079-.034-.08-.046-.064-.024-.08-.023-.078.023-.078.046-.079.116-.104.15-.08.081-.024h.325l.092-.026.07-.067.15-.222.058-.052.093.012.14.052.394.303.103.104.081.314.395.836.069.225.046.077.105.066.082.079.057.078.035.13-.012.105-.011.119v.207l.011.091.024.082.023.077.058.078.08.079.162.119.116.118.139.208.162.394.29.47.174.169z"/>
        </g>
    </g>
</svg>
