<svg xmlns="http://www.w3.org/2000/svg" xmlns:xlink="http://www.w3.org/1999/xlink" width="128" height="128" viewBox="0 0 128 128">
    <defs>
        <path id="a" d="M0 0h128v128H0z"/>
    </defs>
    <g fill="none" fill-rule="evenodd">
        <mask id="b" fill="#fff">
            <use xlink:href="#a"/>
        </mask>
        <use fill="#AFC7D1" fill-opacity="0" fill-rule="nonzero" xlink:href="#a"/>
        <g fill="#AFC7D1" mask="url(#b)">
            <path d="M97.07 82.146l-.255-.82.03-.274.18-.377.031-.273-.091-.922-.136-.272-.517-.395-.212-.24-.12-.36-.226-.834-.196-.376-.545-.496-.26-.138-.12-.085-.105-.189-.031-.87.909-1.249-.076-.973-.44-.718-.121-.375.12-.479.26-.375.907-.634.044-.102-.074-.87-.317-3.282-.332-3.264-.302-3.28-.639-6.563-.317-3.283-.317-3.262-.317-3.28-.32-3.264-.951-9.794-.303-3.264-.316-3.263-.321-3.263-.317-3.265-.03-.222-.997-1.264-.336-.683-.527-1.592-.574-1.091-.396-1.967-.136-.409-.18-.41-.092-.154-.12-.136-.559-.207-.107-.1-.076-.137-.15-.154-.167-.19-.092-.238-.06-.24-.107-.205-.619-1.043-.317-.735-.241-.853-.212-1.692-.016-.255.045-.19.06-.12.047-.153-.076-2.206-.03-.187-2.664.291-2.71.308-2.721.309-2.71.288-2.706.29-2.71.274-2.723.292-2.708.273-2.71.255-2.706.276-2.723.255-2.725.256-2.707.238-2.71.258-2.72.24-2.724.222h-.016l-.015.017h-.03l-.167.512.212.29.498.24.241.221.26.31.53.408 1.393.803.513.477.331.737-.014-.152.136 1.279.181.514.517.274.377.494.212.103.21.033 1.394.736.165.153.424.463.15.102.244.017.122.154.045.272.016.343.074.307.468.975-.044.272v.958l-.212.82-.016 1.403-.136 1.024-.15.496-.26.24-.24.137-.606.63-.196.257-.18.357-.182.48-.107.514-.029.494-.184.479.03.085.078.103.03.12.046.548-.015.237-.06.24-.216.29-.65.495-.12.172-.105.325-.272.256-.622.34-1.514.462-.317.19-.529.837-.286.34-.653.308-4.416.804-.591.513-.317.734-.257.924-.167 1.006-.06.976.03.477.121.547.212.461.331.173.23.086.83.597.499.648.336.907.18 1.025.016 1.076-.215.838-1.404 2.12-.242.46-.139.376-.045.358.014 1.011-.06.495-.241.94-.362.7-.5.477-.606.293-.62.135-.483.187-.668.41-.603.48-.243.427-.029.153-.12.255-.032.224.076.189.453.393.167.358.045.41-.06.7.03.395.12.58.046.341-.12.24-.907.392-.456.514-.303 1.058-.15 1.181-.046.94.062 1.041.666 3.708.107.343.241.358.302.342.09.154.09.155.06.172.032.204.03.545-.077.685.031.256.076.154.226.24.136.29.456.426.12.221.047.241.075.53.242.75.362.532 4.253 3.671.272.327.21.41.123.48.105.305.257.24 3.903 2.668.38.358.407.51.469.804.227.463.135.443.046.308.014.632.031.292.108.272.333.479.076.238-.045.256-.107.275-.045.291.12.29.152.257.105.374.045.375-.045.292.846 1.623.546.634.68.222.666-.428.894-1.57.785-.275.32.103.574.358.302.053h.377l.834.187 1.65.836.694.531.302.58-.09.409-.227.6-.257.548-.212.239-.196.272.015.565.152.906.06.938-.227.737-.682 1.536-.619 2.616-.665 1.487-.196.75v.855l.226 1.025.122.358.12.257.12.222.153.208.954.767.12.204.498.48.12.187.137.343.302.24.637.34.454.428.438.529.467.428.592.154.952.768.275.136.59-.068.21.05.528.12.593.412 1.013.99.41.24 1.026.377.424.272.44.6.575 1.194.392.428 1.635.666.467.375-.105.292.09.358.154.41.092.411v.376l-.045.393-.016.428.09.46.408.752.514.685.437.75.245.923-.214.856-.513.681-.424.704.076.886.091.068.333.12.15.068.272.207v.307l.09.377.154.34.438.717.74.959.287.615-.06.683.306.309.875.666.697.239.181-.018.062-.239-.076-.34-.136-.19-.154-.118-.166-.173-.212-.496.076-.24.302-.083.396-.035.105.103.122.547.059.187.167.14.362.204.136.136.106.24.06.237.076.24.166.17.2.034.196-.069.18-.118.152-.068.331.136-.618-.666-.348-.529-.093-.583.29-.75.499-.77.453-1.212.15-.273.516-.582.65-.412.74-.187.803.086 4.677 1.88 1.239.735.666.136.605-.189.422-.597.26-.955-.079-.72-.346-.666-.56-.735-.422-.718-.228-.802v-.908l.212-.989.152-.342.18-.257.257-.185.333-.106.728-.069.27-.118.893-.718 2.92-.975.484-.444.06-.648-.437-.941-.545-.512-.09-.119-.332-.599-.154-.41.063-.565.165-.529.152-.323.83-.992.212-.325.121-.53-.03-.46.03-.31-.393-.12h-.317l-.105-.033-.076-.103v-.12l.045-.05.469-.017.256-.05.152-.121-.122-.238-.876-.753-.301-.342.74.05.15-.017.242-.171.03-.17-.06-.222-.075-.307-.136-.445-.016-.29.136-.138.06-.154-.044-.358-.092-.358-.09-.222.166-.292-.272-.53.181-.12.272-.085.275-.187.242-.222.212-.257-.273-.221-.485.136-.272-.119.332-.342.32-.427.136-.155.347-.136.136-.12.136-.427-.226-.222-.332-.17-.167-.19-.075-.136-.125-.136-.134-.154-.062-.24.015-.29.107-.17.12-.137.124-.221.076-.376.06-.395.121-.291.302-.12.03.137.181.241.181.101.092-.445.074-.187.122-.187.105-.085.076.085.06.22.09.206.155.086.105-.138.015-.255-.015-.29.03-.204.09-.275.092-.529.105-.274.122-.12.302-.172.105-.084.212-.375.196-.514.03-.463-.257-.237-.03-.171.472-.24.482-.34.121-.154.152-.259.105-.117.151-.019.106.086h.075l.092-.255-.031-.276-.317-.442-.09-.342.045-.359.136-.274.196-.222.181-.153h-.091l.06-.053.047-.068.045-.103.029-.119-.12-.443.09-.479.197-.41.244-.275.152-.05.226-.035.18-.068.06-.172.333-1.725-.286-.87z"/>
        </g>
    </g>
</svg>
