<svg xmlns="http://www.w3.org/2000/svg" xmlns:xlink="http://www.w3.org/1999/xlink" width="128" height="128" viewBox="0 0 128 128">
    <defs>
        <path id="a" d="M0 0h128v128H0z"/>
    </defs>
    <g fill="none" fill-rule="evenodd">
        <mask id="b" fill="#fff">
            <use xlink:href="#a"/>
        </mask>
        <use fill="#AFC7D1" fill-opacity="0" fill-rule="nonzero" xlink:href="#a"/>
        <g fill="#AFC7D1" mask="url(#b)">
            <path d="M97.68 85.93l.219-.557-.02-.45-.48-.112-.908.089-.356-.133-.295-.338.158-.31.633-.916.137-.56-.178-.493-.355-.402-.652-.578-.157-.94.531-.872.356-.336-.552-4.826-.277-2.392-.28-2.414-.276-2.412-.277-2.392-.277-2.414-.275-2.392-.277-2.41-.257-2.391-.277-2.39-.281-2.416-.275-2.392-.277-2.412-.552-4.783-.277-2.412-.553-4.78-.28-2.392-.258-2.392-.277-2.392-.275-2.414-1.106-9.564-.28-2.392-.553-4.76-.257-2.391-.277-2.392-.218-1.697-1.564.226-1.563.244-1.541.247-1.565.222-1.564.246-1.56.222-1.564.247-1.545.244-1.56.226-1.565.222-1.563.224-1.563.249-1.541.221-3.129.446-1.561.223-1.564.224-1.563.222-1.565.224-3.125.427-1.545.221-1.58.201-1.542.227-1.566.2-1.559.222-.596.069-3.52 2.814-3.326 1.811-1.802.446-1.94-.112-.453-.11-.335-.201-.178-.36v-.624l-.613.356-.754-.468-.652-.804.039.29.414 4.269.421 4.267.413 4.267.396 4.269 1.244 12.807.418 4.267.415 4.29.415 4.267.414 4.292.835 8.582.395 4.29.435 4.269.414 4.292.097 1.137-.058.133-1.185.829-.34.491-.158.626.158.491.576.939.1 1.272-1.19 1.633.04 1.138.138.247.158.111.34.18.711.65.257.49.296 1.093.157.47.277.313.676.516.178.357.12 1.206-.041.356-.237.493-.038.359.333 1.071.575 1.074.374 1.137-.435 2.257-.079.224-.237.09-.295.045-.198.066-.32.359-.256.537-.12.625.158.58-.038.156-.059.135-.06.089-.08.068h.12l-.237.201-.257.29-.178.359-.058.468.117.448.415.578.04.36-.12.334h-.098l-.138-.112-.198.025-.138.154-.198.338-.158.2-.63.446-.617.313.038.224.336.31-.039.606-.256.671-.278.491-.137.11-.394.224-.16.158-.138.358-.119.692-.117.359-.04.267.02.38-.02.333-.138.18-.203-.112-.117-.27-.079-.287-.099-.112-.137.112-.16.244-.097.245-.12.582-.236-.132-.237-.315-.04-.179-.395.156-.157.381-.08.516-.098.492-.162.29-.158.178-.14.221-.02.38.081.315.176.2.164.179.097.178.219.25.434.22.296.29-.178.558-.178.158-.453.178-.178.203-.419.558-.435.447.356.156.635-.179.356.29-.277.336-.315.29-.36.245-.356.112-.237.155.356.694-.216.382.117.29.12.468.058.469-.079.2-.178.181.02.38.178.582.1.402.078.29-.04.221-.316.224-.198.023-.967-.066.395.447 1.144.985.16.31-.198.158-.336.066-.612.023-.06.067v.155l.1.135.138.043h.414l.514.158.477-.135.396.112.81.448.394.068.079-.201.853-1.34-.793-1.7-.14-.38.1-.648.34-.29.473.045.435.336.356.38.356.31.414.178.477.046.415-.112.81-.423.197-.045.178-.245.301-.246.356-.067.296.201.078.402-.119 1.003.081.448.514.292.61-.358.48-.738.137-.848-.178-.582-.459-.83-.157-.646.04-.379.117-.2.198-.067.158.066.144.201.038.491.08.29.81.695.809-.315.813-.624.87-.38.455.067.517.201.512.29.415.31.416.25 1.485.445.809.47.238.09.295.045.399-.022.257.089.12.246.098.334.138.313.356.425.216.157.237.133.616-.583.257-.758.395-1.944.198-.514.216-.356.257-.267.356-.227 1.21-.313.274-.2.417-.58.73-.805.734-.425.395.491.256.759.534.74.716.491.75.069.909-.338.418.068-.178.626-.123.534.36.247.493-.046.415-.379.099-.623-.059-.583.08-.47 1.09-.425.236-.334.02-.447-.277-1.944.04-.647.237-.313.455-.091.453-.244.318-.428.018-.646-.158-.313-.414-.402-.118-.31.08-.293.236-.023.257.112.137.114.14.268.254.043.498-.112.831-.56.316-.514-.199-.2-.453-.09-.434-.224-.318-.511.198-.224.455-.023.415.155 1.19.805.215.312.08 1.275.078.448.239.4.374.269.87.381.378.268.455.2 1.066-.068.475.069.912.85.493.333.178-.244.158-.537.455-.268 1.011-.358.217-.201.178-.247.137-.267.1-.27.137-.801-.138-2.86.039-.628.119-.692.218-.558.338-.27.16-.29.315-1.297.237-.402.218-.02.296.043.277.066.117.09.12.246.256-.023.755-.38.394-.333.671-.74.336-1.094.178-2.681.538-.937.415-.203.867-.245.297-.315.261-.557.237-.402 1.007-1.097.237-.47.04-.578-.572-1.094-.397-1.789-.196-.379-.238-.605-.059-.56.356-.313 2.374-.6 1.323-.135.38.155.83.804.434.226.833-.338 2.769-2.57 1.264-.824.696-.224 1.716-.044.261-.223-.398-.941.079-.603z"/>
        </g>
    </g>
</svg>
