<svg xmlns="http://www.w3.org/2000/svg" xmlns:xlink="http://www.w3.org/1999/xlink" width="128" height="128" viewBox="0 0 128 128">
    <defs>
        <path id="a" d="M0 0h128v128H0z"/>
    </defs>
    <g fill="none" fill-rule="evenodd">
        <mask id="b" fill="#fff">
            <use xlink:href="#a"/>
        </mask>
        <use fill="#AFC7D1" fill-opacity="0" fill-rule="nonzero" xlink:href="#a"/>
        <g fill="#AFC7D1" mask="url(#b)">
            <path d="M127.271 98.618l-3.968.214-3.953.198-3.971.196-3.968.196-3.97.182-3.968.161-3.968.161-3.973.145-3.968.125-3.967.143-3.97.108-3.971.108-3.952.106-3.984.09-3.954.09-3.97.072-3.969.071-3.968.035-3.984.055-3.955.035-3.986.018-3.968.018-3.97.017h-3.969l-3.97-.017-3.969-.018-3.97-.035-3.969-.036-3.97-.054-3.967-.055-3.968-.071-3.97-.072.22-15.762.017-2.26.096-6.743.032-2.259.096-6.743.016-2.24.347-24.694.017-2.242.126-8.947 3.478.053 3.476.072 3.478.053 3.493.036 3.477.035 3.477.037 3.477.016 3.478.019 3.493.018h6.954L43 29.235l3.492-.019 3.478-.034 3.475-.035 3.477-.037 3.477-.053 3.477-.072 3.475-.055 3.478-.071 3.492-.09 3.478-.09 3.476-.088 3.478-.108 3.476-.106 3.478-.127 3.477-.126 3.494-.125 3.476-.145 3.478-.144 3.461-.162 3.493-.161.967.935.24.357.192.037.204.037.143.071.126.196.065.196.095.162.142.144.143.035.35.037.189.071.193.145.476.556.349.18.38-.144.332-.27.495-.522.239-.16.284-.089.38-.037.222.125.128.271v.323l-.128.251.254.323.749.447.173.251-.016.233-.047.486-.016.27.08.285.126.161.096.162-.017.27-.253.303h-.381l-.812-.232-.126.088-.08.198-.047.253-.016.592-.094.143-.143.09-.175.142-.507.627-.238.413-.114.412.047.52-.014.27-.049.196-.174.143-.443.055-.128.07v.504l.222.467.302.358.3.126.1.178.412.825.173.27.127.091.316.143.734.519.063.143.11.376.08.124.745.147-.143.429.174.95.412.932.575.414.173.215.049.5.094.504.318.215.347.09.765.52.38.143.507-.053.254.018.175-.036.078.018.096.072.035.196.064.036.396.019.284.106.032.198-.222.304.032.035v.072l.016.073.078.037.017.16.063 1.759.143 3.048.38 9.163.142 3.067.255 6.115.13 3.05.143 3.065.253 6.131.143 3.069.253 6.114.143 3.067z"/>
        </g>
    </g>
</svg>
