<svg xmlns="http://www.w3.org/2000/svg" xmlns:xlink="http://www.w3.org/1999/xlink" width="128" height="128" viewBox="0 0 128 128">
    <defs>
        <path id="a" d="M0 0h128v128H0z"/>
    </defs>
    <g fill="none" fill-rule="evenodd">
        <mask id="b" fill="#fff">
            <use xlink:href="#a"/>
        </mask>
        <use fill="#AFC7D1" fill-opacity="0" fill-rule="nonzero" xlink:href="#a"/>
        <g fill="#AFC7D1" mask="url(#b)">
            <path d="M126.976 57.422l-.19.019-.492.214-.19.018-1.413-.232-.255-.09-.127-.125-.014-.128v-.143l-.049-.106-.047-.109-.08-.09-.159-.142-.589-.448h-.143l-.08.054-.062.055-.047-.037-.38-.45-.19-.16-.143-.072-.143-.053-.7-.161-.16-.074-.094-.126-.127-.34-.365-.734-.032-.125-.015-.126-.159-.233-.253-.288-1.24-1.021-.047-.09-.063-.106-.08-.235-.19-.737-.047-.161-.095-.143-.16-.233-.11-.106-.113-.09-.762-.43-.095-.109-.031-.124.014-.074.16-.412.032-.108v-.088l-.127-.288-.112-.125-.063-.071-1.048-.754-.143-.143-.112-.198-.143-.324-.11-.196-1.54-1.776-.127-.196-.032-.109v-.196l.032-.055.047-.071.253-.304.112-.178.031-.108.016-.092v-.125l-.08-.396v-.124l.017-.108.033-.072.077-.053.207-.072.066-.071.033-.09-.017-.124-.016-.127-.03-.125-.051-.25-.033-.54v-.306l-.047-.233-.095-.267-.413-.68-.08-.182-.014-.053-.016-.09-.016-.628-.033-.268-.014-.143-.206-.251-.382-.719-.22-.304-1.4-1.147-.699-.34-.808-.163-.794-.322-.62-.825-.618-1.509-.112-.447-.063-.465-.094-.341-.223-.125-.431.161-.935.754-.412.143-.32.177-.222.323-.19.378-.206.29-.412.267-.127.143-.063.198-.11.519-.096.267-.273.253-.349.092-.776-.039-.381.108-.24.217-.176.232-.57.252-.142-.037-.237-.215-.508-.663-.13-.145-.238-.145-.507-.16-.237-.017-.602.106-.162-.053-.318-.27-.347-.178-.366-.108-.365.037-1.128.627-.173.18-.016.447-.143.432-.27.323-.316.178-.748-.053-.729-.395-1.287-1.096-.318-.339-.27-.376-.303-.304-.745-.108-.714-.253h-.4l-1.44.576-.385.018-1.968-.484-.396-.253-.206-.377-.095-.572-.112-.466-.157-.414-.222-.358-.193-.198-.254-.198-.238-.232-.127-.323-.08-.41-.157-.415-.222-.377-.286-.252-.764-.304-.427-.106-.334-.019-.205-.16-.238-.395-.29-.412-.379-.162-.698.268-1.334.951-.712.035-.97-.823-.27-.126-.096-.054-.253-.322-.159-.055-.205.071-.128.162-.224.377-.857.788-.285.27-.427.7.127.753.522.464.286.323.143.396-.11.449-.509.735-.126.25.237.27.285.107.729-.072.385.09.016.361-.175.447-.194.34-.063.484.32.755-.21.18-1.377.034-.559.18-1.014.662-2.222 2.062-.668.27-.35-.18-.665-.646-.305-.124-1.061.108-1.905.482-.286.251.047.449.192.486.157.304.318 1.435.46.878-.033.464-.19.378-.808.88-.19.322-.21.447-.238.253-.696.196-.333.164-.432.751-.142 2.152-.27.878-.539.594-.316.268-.605.304-.206.018-.096-.198-.094-.071-.223-.053-.237-.035-.175.016-.19.323-.253 1.041-.128.233-.271.216-.175.447-.096.556-.031.504.11 2.295-.11.643-.08.216-.11.215-.143.198-.173.161-.812.288-.365.214-.127.431-.142.196-.396-.267-.732-.682-.382-.055-.855.055-.365-.161-.304-.215-.697-.306-.3-.216-.192-.321-.063-.36-.064-1.022-.173-.251-.955-.646-.332-.124-.365.018-.16.18.255.41.35.18.363.071.159.162-.253.412-.667.45-.4.09-.204-.036-.112-.214-.11-.092-.207-.09-.19.019-.063.234.094.25.333.322.127.251-.015.52-.255.342-.363.196-.365.073-.19.251-.033.52.223 1.559-.017.36-.19.267-.874.34-.063.378.047.468-.08.5-.333.305-.396.036-.289-.198.1-.429.142-.502-.336-.055-.728.271-.602-.055-.575-.394-.428-.594-.206-.608-.317-.394-.589.34-.586.646-.334.466-.22.16-.971.252-.286.181-.206.215-.174.286-.159.412-.316 1.56-.206.609-.495.467-.19-.106-.174-.127-.286-.34-.11-.252-.08-.267-.095-.198-.206-.072-.32.019-.237-.037-.191-.072-.65-.377-1.19-.358-.335-.2-.333-.249-.41-.233-.416-.16-.365-.054-.698.304-.652.5-.65.254-.65-.558-.063-.232-.031-.394-.115-.162-.127-.053-.16.053-.093.162-.033.304.127.519.368.665.143.467-.11.68-.385.592-.49.288-.412-.234-.065-.36.096-.804-.064-.323-.237-.161-.285.053-.242.198-.143.196-.157.037-.651.339-.333.09-.383-.037-.332-.143-.286-.25-.286-.304-.349-.27-.38-.036-.272.233-.08.52.112.305.637 1.364-.685 1.076-.064.16-.316-.054-.65-.36-.317-.09-.383.109-.031.324.03.484-.126.556-.222.34-.872 1.042-.159.339-.173.555-.067.592.162.431.348.629.095.125.572.537.459.988-.063.68-.508.465-3.064 1.023-.937.753-.284.125-.764.072-.349.111-.27.195-.19.27-.158.358-.223 1.038v.953l.239.841.443.754.587.771.364.699.083.755-.273 1.003-.443.627-.634.198-.7-.143-1.3-.772-4.907-1.972-.843-.09-.777.196-.682.432-.542.61-.157.287-.476 1.272-.524.808-.303.787.097.612.365.555.65.699.128.412-.033 1.06.096.753v.233l-.08.177-.143.219-.142.267-.047.286.11.502.333.809.08.537-.08.645-.54 1.74-.3 1.416-.317.699-.43.322-.556-.16-.491-.413-.463-.5-.46-.378-.174.145-.094.143-.127.428-.175.917-.017.376-.173 1.147-.08.286 2.967-.323 2.986-.322 2.955-.34 2.982-.34 2.955-.341 2.97-.343 2.966-.357 2.97-.36v-.571l-.063-.864-.063-.376-.35-1.2-.412-1.095-.063-.232-.016-.125.032-.037.08-.016.935-.018 1.556-.019.954-.018.143.037.094.124.143.323.096.124.094.074.096-.037.696-.09.238-.035.653-.09 1-.142 1.317-.18 1.557-.235 1.715-.232 1.857-.27 1.905-.288 1.921-.267 1.84-.27 1.732-.267 1.557-.233 1.303-.182 1.014-.16.653-.089.222-.036.745-.125.589-.235.159-.036.743-.072.508-.053 1.477-.143 2.272-.233 2.952-.304 3.493-.358 3.89-.414 4.177-.449 4.3-.484 4.306-.5 4.158-.486 3.89-.467 3.492-.411 2.954-.376 2.27-.288 1.461-.177.523-.057.827-.125.586-.286.429-.324.65-.842.32-.232.11-.035 1.414-.882 1.616-.465.179-.09.11-.107.19-.25.618-.54 1.667-.95 1.7-.61.126-.106.096-.11.016-.106-.016-.127-.064-.214v-.092l.033-.088.173-.287.08-.233.22-.825.286-.466.083-.073.112-.053.729-.143.985-.645.967-.629.237-.196.063-.108.049-.107.015-.128.032-.125v-.124l-.016-.36-.047-.267-.033-.125-.047-.376.064-.218.142-.232.369-.413 1.378-1.092.159-.163.094-.215.032-.143v-.288l-.096-.52-.11-.358-.016-.161.112-.251.272-.394.73-.79 1.65-1.309 1.24-.986 1.124-.897.365-.377 1.271-1.65 1.397-1.83.888-1.181 1.256-1.634.812-1.076-.336-.143zM1.076 99.547l-.542.322-.08.86.19.286.175.2 1.112-.163.063-.323-.3-.931-.618-.251z"/>
        </g>
    </g>
</svg>
