<svg xmlns="http://www.w3.org/2000/svg" xmlns:xlink="http://www.w3.org/1999/xlink" width="128" height="128" viewBox="0 0 128 128">
    <defs>
        <path id="a" d="M0 0h128v128H0z"/>
    </defs>
    <g fill="none" fill-rule="evenodd">
        <mask id="b" fill="#fff">
            <use xlink:href="#a"/>
        </mask>
        <use fill="#AFC7D1" fill-opacity="0" fill-rule="nonzero" xlink:href="#a"/>
        <g fill="#AFC7D1" mask="url(#b)">
            <path d="M104.483 95.94l-.313-.259-.334-.115-.231.172-.026.552.231.377.776.232.36.288-.334.205-.828.145-.103.235.232.288.801.205.282.288.129-.725.102-.873-.155-.724-.589-.291zm-1.288-5.868l-.284-.29-.486-.289-.566.318-.339.638.287.695.284.06 1.051-.146.232-.347v-.321l-.18-.318zm23.454-9.5l-.487 3.02-.386 1.658-.103 1.048.103 1.128-.05.407-.565 1.515-.308 1.392.179-.089.258-.116.076-.377.668-1.422.462-3.37-.026-2.293.539-2.328.053-1.188-.156.06-.257.956zm.746-5.983l-.205-1.075-.36.086v.03l.179 1.161v2.236l.155 1.161.313-.784.05-1.333-.132-1.482zm-1.514 7.754l.308-1.886.228-.552.232-.784.102-.787-.05-.609-.307-.347-.308.056-.36.175-.386-.06.207-.23.103-.146-.053-.232-.205.06-.052-.292.155-.579-.463-.234-1.212-.116.413-.436h.465l.489.175.486.026.437-.201-.024-.265-.668-.81.41.056.282-.056.079-.262-.053-.205-.641.146-1.444.377-2.08.552-2.058.529-2.111.517-2.059.525-2.08.523-2.084.522-2.085.52-.463-1.737-.436-1.805-.668-2.732-.673-2.759-.665-2.732-.668-2.756-.644-2.732-.665-2.761-1.34-5.49-.669-2.73-.641-2.758-.673-2.732-.668-2.732-.668-2.762-.668-2.729-.673-2.758-.641-2.732-3.034.757-3.06.754-3.034.752-6.07 1.514-3.061.727-3.034.752-3.06.73-3.037.728-3.034.754-3.06.695-3.034.724-3.06.728-3.042.727-3.06.698-3.06.725-3.034.698-3.06.697-3.06.698-3.035.695-3.063.668-3.06.698-3.034.7-3.06.666-3.06.668-3.06.665-3.06.671-3.061.672-3.06.665-3.066.638-3.036.668-3.06.639 2.933 19.55.077.12.128-.027.237-.208.281-.318 2.49-3.605.21-.116 1.055-.463.205-.145.076-.175.179-.87.129-.378.284-.466.641-.814 1.11-1.015.128-.116.077-.175.23-.55.437-.525.077-.146.076-.145.052-.172.05-.116.155-1.048.053-.176.076-.201.13-.146.9-.78.206-.093.231-.027.49.12.486.171.591.437.308.116h.21l.232-.06.257-.202.153-.175.079-.172.205-.526 1.256-2.176.258-.553.155-.582.076-.145.082-.146.102-.115.103-.12.129-.085.436-.205.155-.116.05-.113-.05-.089-.129-.202-.052-.145-.024-.205.024-.232.052-.172.282-.757.079-.348.076-.318.026-.148.076-.146.077-.059h.128l.232.146.102.148.282.232.336.172.076.116v.089l-.128.086-.205.205-.027.089-.052.116v.145l.026.143.026.116v.059l.053.03.179.202.076.059.102.056 1.034.291.512.262.13.089.154.083.692.116 2.213-.086.053-.143.846-.526 1.956-.142.695-.843.076-.437-.179-.145-.565-.086v-.556l.41-.261.513-.116.315-.202-.93-.986.23-.261.232-.086h.544l.232-.09.615-.552.513-.231h1.104l.52-.116.18-.235.36-.783.254-.348.592-1.25.179-.202.231-.205.284-.172 1.39-.205 1.363.609 2.416 1.829.591.261.62.116.592-.116.36-.347.255-.172.797.056.129-.145.076-.318.308-.146h.391l.282.06.489.493-.027.608-.41.585-.623.345.232.38.646 1.333.155-.056v-.377l.077-.437.155-.288.255.056.231.378-.023.32-.13.232.027.261.41.377.384-.086.436-.264.468-.143.053.262-.34.175-.128.344.076.413.263.43-.494.612.415.291 1.31.318.36.582-.024.725-.079.757.155.698.513.638h.053l.567.175 1.336-.32h.515l1.236.231 1.26.06.333.231.692.84.57.265.642.06.565.142.41.526.026.783-.281.669-.72 1.075-.077.697.258.553.436.404.487.32 1.136.87.717.235 2.395-.294.897.089.85.294.722.55.258.495.228.58.258.463.41.115h.387l.975.146.852-.03.334.205.41.404 1.567-2.96 3.836 3.981-1.804 3.662.129.638.618.87-.076.35-.08.265-.102.199-.152.145.41.698-.232.523-1.001.609-.334.32-.179.232-.155.29-.103.378.027.671-.129.665-.053.668-.102.262-.255.172-.597.089-.152.116-.182.234-.152.116-.13.146-.078.317v.41l.079.262h.152l.258-.232.231.202-.667.55-.232.234-.565.347-.153.814-.026.814-.179.406-.102.523.205 1.045.357 1.105.258.698.437.608.615.669.673.317.539-.377.231-.318.54-.436.257-.434.307-1.455-.36-.406-.152-.146-.18-.086.282-.377.308-.318.076.056.026.057.053.03.102.059.05.288-.102.32.129.408.284.35.312.148.334-.148.282-.38.307-.814.08-.318.05-.347v-.347l-.05-.38.562.466.539.87 1.29 2.616.513.638 2.238 1.77.823.35.538-.172-.052-.962-.41-1.045-.437-.84-.98-1.515.98.41.72.609.513.93.36 1.392.153.35.29.463.614.73.49.319.41.059 2.495-.96.975-.118.852.38.436.32.413.203.41.29.437.55.257.463.358.903.102.324.418.172.126-.35-.023-1.049.744.615.41.202.103-.585.102-.232.079-.347-.026-.377-.077-.261-.257-.52-.08-.35.721.492.437 1.191.334 1.191.415.496.77.116 2.343 1.538-.13-.552-.23-.289-.263-.231-.232-.32-.05-.61.077-.786v-.784l-.282-.639-1.104-1.22-.873-.553-.231-.234-.313-.695.05-.609.129-.582.026-.698-.386-.522-.616.116-.694.377-.589.175-.623-.261-.589-.526-.489-.665-.255-.668-.31-.176-1.93-.522-1.078-.698-.872-.873-.7-1.188-.41-1.395-.102-.265-.205-.172.155-.347-.31-.523-.256-.814-.667-2.732-.053-.433-.076-.291v-.291l.463.87 1.848 5.606.21.265.334.175 2.285 2.147.518.29h.899l.307.087.513.175.231.235.08.202.075.231.206.32.517.494.437.116.925-.262.54-.463-.027-.757-.358-.81-.386-.672-1.002-1.102-2.316-1.977-.794-1.334-.21-.846-.232-2.438-.23-.668-.309-.671-.23-.725.025-.9-.925-.727-.436-.576-.182-.757.182-.612.872-.93.258-.667v-.847l-.284.06-.694.727-.308-.199.13-1.339-.335-.235-.184-.202-.052-.115-.05-.146.62-.175h.284l.229.145.334-.611-.358-.377-1.007-.404-.36-.35-.307-.497-.053-.463.413-.231.594.231 1.157.96.512.142.13-.43-.514-.844-1.438-1.657-.752-.641-.307-.202-.615-.116-.308-.175-.258-.348-.076-.377.076-.347.308-.175.284.115.334.321.539.635 1.853 1.4.205-.15.103-.29.155-.176.615-.199.437-.293.026-.404-.49-.582-.564-.318-1.54-.41h-.621l-.205-.086-.232-.232-.129-.353.103-.288h.231l1.033.526.282-.354h.36l.334.238.205.374.205-.056-.026-.874-.437-.754-.539-.695-.641-1.31-.34.117-.512.582-.308-.146-.489-.612-.205-.089-.129-.202-.178-.406-.334-.378-.852-.115-.208-.202-.178-.318-.308-.291h-.205l-.49-.086-.383-.09.179-.145.668-.234.23-.202.18-.348.36.232 1.47.377.41.32.41.378.284.232.179-.173.23.262.153-.291.232-.057.289.116.281.232.952-1.049-.053-.231-.949.086-.828-.552-.718-.84-.617-.96.925.116.255.145.623.755.308.32.462.202.205-.407-.026-.26-1.11-1.073-.307-.41.129-.26 1.546.029.05-.172-.282-.44.232-.347.281-.086.258-.143.152-.466-.152.027-.076-.695-.618-.176h-.77l-.492-.288 1.903-1.08.387.118.878 1.598.512 1.716.592-1.339.179-.172-.026-.232-.256-.407-.515-.552-.179-2.934.13-.205.102-.377.155-.32.255-.09.231.235.053.32-.026.758.128 1.65.232.728.539.378.539-.844 1.443-1.479.975-1.746.127-.377-.05-.493-.232-.115-1.028-.146-.357-.288.307-2.298.205-.348.258-.231.358-.146 1.803-.407.258-.231.255-1.016.231-.47.41-.23-.023 1.573-.08.695-.178.641-.463 1.248-.102.783.231.669.334-.755 1.546-2.209.384-.698.284-.784.357-.665.566-.41-.024.9-.129.96-.334.843-.591.579.386.552.486.32.9.321.026.232-.72.06-1.336-.146-.563.205-.391.433-.46.725-.797 1.568.05.727.694.09 3.01-.725.75.056.436.407-.673.202h-.205l-1.157.35-3.008.639-2.24.9-.076.175-.026.873-.103.347-.231.202-.539.261-.231.348-.027.32.103.784-.05.378-.776 3.023-.178 1.422-.08.261-.076.466.077.434.699.175.258.291.205.348.102.294.255 1.683.155.668.308.318.387-.612-.053-1.449.102-1.54.797-.785.05.264-.308.375.7.086.512-.437.463-.609.54-.433-.18.754-.925 1.627-.334.99.258.23-.282.173-.623.261.155.348.184.261.205.208.232.086.052.817-.36.579-.57.407-.566.202-.77.056-.513-.202-.878-.668-.307-.143-.334-.059-.231.116v.93l-.206.896-.026.294.103.96.052 2.96.179.641.41-.116.49-.525.183-.464-.184-.201-.307-.265-.232-.347v-.377l.205-.321.205-.116.802-.261.179-.116.231-.232v-.115l.13-.377.178-.321h.103l.078-.7.46.115 1.007.612-.026.498.053.61.205.519.384.145.128-.231.027-.956.05-.232.36-.03.079.318-.027.843.206.086 1.206.262-.489.579-.665.499-.515.638.102 1.102.54.784.565-.03.489-.523.236-.694.229.579-.126.668-.29.522-.28.262-.513.059-.516-.089-.486-.232-.437-.35-.36-.81-.102-.146-.29.03-.205-.116-.357-.407-.463-.146-.36.348-.592.87v.32l-.05.407-.102 2.352-.103.728v.552l.103.932.205.173.334-.146.334-.347.179-.321-.205-.52-.103-.876v-.93l.103-.635.307-.555.103.318.052 1.627.282.324.386-.671.62-1.482.566.145.05.642-.308 1.306.387.173.41.813.257.146.282-.262.079-.466.023-.552.129-.493.179.347.079.38-.053.318-.129.294.334.404.468-.116.54-.288.564-.178.05.267-.334.229-.615.555-.205.288.053.262.562.115.387-.175.281-.317.387-.291v.813l.615.523.852.288.667.03.566-.378.284-.608.307-1.482.153-.03.102.09.155.088-.155.639.08 1.217-.206.695-.258.32-.384.262-.822.32-2.932-.495-.463.235-.333-.146-.34-.235.156-.145.312-.493-.365.175-.615.493-.387.205-.436.116-1.257.03.36.406.153.146.205.086.052.264-.436.927-.102.579.383.148.823-.205.308-.202.231-.32.103-.318-.027-.202.05-.145.284-.116.232-.06h.178l.16.03.13.116.178.377-.333.609.23.347-.467.437-.565.35-.437.434-.076.67.076.987-.152.608-.284-.03-.281-.84-.308-.29-.49.029-.365.377.187.784.179.172.308.149.283.231.334.787.255.407.258.347.205.173 1.06 1.223.691.81.334.99.155-.03-.079-.84-.691-1.63.231-.378.513.232 2.032 1.862.387.638.23.205.745.056.308.232 1.212 1.482.36.202.178-.434.103-1.048-.103-.52-.155-.493-.255-.32-.334-.116.308-1.078.565-1.218.592-.608.41.78-.053.61-.667.581-.077.523.18.32.283.265.308.202.205.205.102.347.053.377.05.348.181.172.126-.404.213-2.414.127-.347 1.028-2.12.05-.378-.024-.466.023-.377.156-.175.36-.057.076.146-.026.202v.873l-.126.641-.542 1.856-.153.903.05.873.413.695.54.202 1.211-.202.487.145-.905.781-1.025.612-.72.846-.077 1.535.179.758.155.29.179.057.208-.172v-.32l-.053-.351.103-.291.512-.318 1.265-.145.565-.434h.358l.462-.175.413.03.153.377-.153.26-.773.348-.255.232.205.202-.052.383-.18.344-.23.324-.258.202.079.291.102.03.05.026v.06l.079.086.281-.288.387-.175.665-.146.365-.29.205-.464.232-.35h.413l-.232.783-.957 1.598-.179.523-.155.172-.717.324-.103.317-.053.44-.383 1.158-.155.29.076.03h.079l.05.027.026.205.179-.06.079-.26.128-.202.205-.146.232-.086-.026.523-.182.347-.179.288-.102.324.026.347.103.146.102.115.103.265.284.116.46-.526.646-1.045.49-.609.615-.235 2.471-.377h.539l.334.09.102-.61.103-.611.129-.235.641-.264 1.136-.463.873-.377 1.314-.52 1.155-.496.744-.288.515-.235v-.32l.208-2.061-.184-.261.134-.202.28-.757.209-.262.255-.056.539.086.181-.06.126-.41.053-1.273.076-.291.205-.404-.076-2.328.181-.52.282-.436.749-.757-.179.902.153.291.872-.29.208-.324z"/>
        </g>
    </g>
</svg>
