<svg xmlns="http://www.w3.org/2000/svg" xmlns:xlink="http://www.w3.org/1999/xlink" width="128" height="128" viewBox="0 0 128 128">
    <defs>
        <path id="a" d="M0 0h128v128H0z"/>
    </defs>
    <g fill="none" fill-rule="evenodd">
        <mask id="b" fill="#fff">
            <use xlink:href="#a"/>
        </mask>
        <use fill="#AFC7D1" fill-opacity="0" fill-rule="nonzero" xlink:href="#a"/>
        <g fill="#AFC7D1" mask="url(#b)">
            <path d="M75.361 88.832l-.819.125-.408-.022-.764-.273-.32.084-.019.549.452.021.41.166.222.318-.038.506.707.146.354-.019.11-.19.058-.294.227-.232.148-.317-.112-.548-.208-.02zm1.808-3.453l-.167-.104-.168-.21.187-.17.41-.272.17-.191-.17-.274-.13-.337-.206-.293-.41-.148-.52-.125-.204.084-.131.314-.036.295.055.294.112.274.13.232-.149.02-.299.148-.148.021.316.42.131.254-.038.546.094.106.706.19.336-.212.598-.63-.036-.17-.433-.062zm5.63-8.19l-.185-.504-.615-.21-.728.294-.596.59-.242.652.26.148v.252l-.148.254-.223.168-.112.168-.094.357-.093 1.033v.378l.074.338.168.084h.28l.168.125v.21l-.242.19.278.357.69.13.3.29.075-.084.185-.166.057-.062.223.398.26-.17.224-.42.148-.378-.074-.295-.316-.187-.28-.295-.056-.678.13-.04.522.296.745-.318.653-.61.261-.651-.354-.715-1.343-.93zM102.2 58.688l-.391-.57-.038-.106-.017-.125-.02-.105h-.074l-.242.105h-.057l-.556-.592-.261-.189h-.303l.62 1.033.11.549-.316.439-.166-.59-.34-.63-.354-.377-.297.252.13.105.167.23.075.106-.204.23.204.149-.242.17-.41-.381-.185.105.017.213.168.818.038.275-.613-1.265-.242-.209-.433-.251-.316-.295.02-.403.222-.019.749.357.259.043.26-.19.094-.315-.093-.293-.335-.172.038-.674h.203l.3.276.242.127.333-.276.019-.42-.055-.44.13-.381-.279-.19-.558-.693-.15-.148-.26-.043-.354-.232-.227-.377.075-.484-.353-.381-.373-.336-.26-.148-.13-.065h-.13l-.038-.04-.185-.317-.187-.23-.093-.168-.11-.127-.153-.02-.355.147h-.074l-.168-.273-.335-.043-.484-.125-.242.021-.185.125-.131.252.02.232.056.21-.019.274-.507.631-.725-.103-.782-.508-.971-.904-.968-.525-.185-.4-.019-.547.055-.486.206-.99-.167-1.009-1.418-1.474-.448-.904.336-.57.335-.504.204-.402-.166-.947-.373-.714-.41-.21-.469.104-.52.252-.78.252-1.047.084-1.042-.146-.651-.252-.32-.19-.185-.251-.187-.235-.223-.103-.131.084-.036.21-.094.212-.242.021-.503-.148-.32-.147-.204-.316-.447-1.369-.017-.44.093-.528.13-.508.036-.357-.149-.336-.41-.357-.222-.4.093-.443.223-.484.093-.463-.093-.23-.185-.149-.206-.125-.167-.17-.092-.251-.99-3.495-.968-3.494-.97-3.495-.987-3.494-.971-3.497-.968-3.492-.972-3.476-.966-3.492-.335-1.011-.13-.149L71 4.818l-.335-.151-.707-.65-.933-.422-.168-.167-.168-.338-.222-.252-.707-.486-.936-.295-1.339-.715-.278-.083-.581-.063-.223-.062-.67-.527-.279-.149-.971-.21-.95.103-.765.529-.39.988.036.316.093.23v.149l-.41.253-.167.192-.204.103-.633-.19-.468.108-.429.207-.333.254-.652.714-.316.444-.206.484-.246.357-.407.19-.858.232-.71.462-1.879 1.94-.284.102-2.7-.8-.428-.422-.242-.503-.074-.168-.223-.844-.206-1.62-.188-.757-.355-.272-2.795.123-.259.106-.186.232-.206.422-.97 2.84-.949 2.84-.971 2.845-.987 2.843-.97 2.84-.968 2.843-.99 2.84-.985 2.842-.187.55v1.217l.168 1.392.335 2.673.223 1.812-.057.735-1.06 1.664-.222.19-.32.378v.609l.093.59.017.255-.352.252-.132.398-.074 1.055-.223 1.198.074.547.429.107.371.46.227.55.038.568-.167.44-.524.653-.15.32.074.207.15.105.093.106.11.064.075.084.055.149-.017.103-.112.21-.02.106.039 1.01.11.421.303.317.484.105.315-.021.167.17.057.714-.148.968-.374.758-1.082 1.558-.26.484-.056.19.036.294.094.146.131.127.149.252.167.568.036.506-.129.443-.28.4-.168.106-.407.124-.187.17-.41.652-.897.822-.223.358-1.21 2.631-.356 1.937.074.44.301.509.355.292.8.254.39.209.279.443-.13.42-.354.295-.372.105-.429-.105-.765-.484-.39-.082-.41.103-.279.295-.15.4-.017.506.093.546.333 1.158.075.503-.075.278-.297.398-.074.233.019.232.149.503v.274l-.261.378-.317-.23-1.343-2.022-.371-.25-.465.062-.374.23-.152.298-.091.335-.225.441-.149.149-.352.168.41 1.409.407 1.39.394 1.412.41 1.385.41 1.393.819 2.8.394 1.41.41 1.389.407 1.411.41 1.39.41 1.41.394 1.411.41 1.386.41 1.412.409 1.392.41 1.407.41 1.412.41 1.39.391 1.41.429 1.413.41 1.407.394 1.39 1.227 4.233.41 1.388.413 1.411 1.227 4.233.41 1.407.241.779.112.865.098.398.036.4v.125l.019.192.055.232.149.36.131.44.017.315-.017.714v.168l.055.194.056.187.148.275.15.211.186.168.706.546.823.756.762.74.82.295.152.105.13.168.167.357.057.23.037.233v.863l.038.297.074.146.484.568.817.588.656.486v-.127l.038-.78-.077-.148.319-.146.352.295.354.357.317.084.148-.293.189-1.579.187-.8.167-.317.261-.252-.299-.105.113-.568.167-.484-.39-.506-.13-.652.055-.693.13-.632.371-.99.15-.274.169-.105.539-.21.39-.339.227-.42.185-.464.26-.441.132-.127.223-.106.074-.124.02-.147v-.378l.017-.17.224-.592.168-.273.204-.23-.038-.15-.185.087-.168.146-.297.357-.242-.568-.167-.503-.058-.508.058-.652.13-.4.28-.379.258-.04.187.546.242-.273.223-.715.316-.234-.036.423.227-.148.407-.398.261-.13v-.189l-.11-.862-.075-.295-.392-.588-.43-.062-.446.168-.559.103-.038-.209.54-.148.222-.187.132-.34-.093-.209-.168-.36-.093-.337.447-.566.185-1.265.34-.38.67-1.368.167-.146.185-.084.206-.168.39-.38.15-.23.188-.547.131-.295.185-.213.242-.123-.036.357-.094.315-.13.251-.13.19.241-.041.484-.715.374-.191-.02.822-.483 1.706-.149.82.316-.148.204-.358.094-.484-.039-.462v-.444l.132-.673.168-.61.148-.272.204.525-.503 3.115.131-.064.094-.125.036-.17-.036-.46.074-.106.11-.084.094-.15.469-1.326.186.336.168-.104.149-.378.036-.4-.11-.485-.187-.273-.242-.148-.242-.063.074-.23.131-.17.149-.105.185-.044.242.044.038.083-.038.192.019.293.131.234.317.166.13.213.035.293-.055.126-.055.106-.02.19.094.632.112.441.166.17.225.125.246.798.278.233.019-.338.074-.355.149-.276.204-.165.019-.151-.036-.717-.113-.251-.278-.42-.39-.863-.265-.927-.745-2.045-.503-.966-.223.568-.13.252-.186.127-.189-.043-.168-.168-.074-.232.036-.314.749-1.664.223-.294.149-.149.112-.441.204-.146.131.105-.093.357-.242.568-.02.633.094.59.204.525.149.484.167.275.094.293.055.318.112.336.13.273.228.317.13.251.427 1.266h.057l.093-.022.092.022.074.167v.084l-.036.084-.02.125.039.19.352.714.225-.063.149-.525.074-1.493-.038-.424-.185-.146-.15.19-.092.694-.131.233.057-.803-.038-.398-.13-.336-.186-.105-.261-.043-.15-.147.075-.44.93-3.413.168-.4.205-.23.282-.063-.019.251-.152.315-.074.148-.075 1.054.038.358.185.398.21.105.223.043.242.273-.132-.021-.24.021-.149-.043-.019.233v.168l.056.148.13.168-.205.76.075.167.26.21.408.21.3.084.26-.125.204-.338.204.904.113.19.11-.442-.017-.484-.149-.443-.223-.355-.26-.278.055-.185-.02-.213-.09-.21-.132-.126.055-.189.038-.252-.019-.251-.093-.17-.075-.192.038-.252.13-.482.074-.78.075-.399.131-.295.204.4-.278 1.24v.654l.091.19.206.126.093.168.017.127-.017.336.017.19v.294l-.036.271.094.256.356.233-.093.232.354.314-.223-.884-.074-.422v-.422l.11-.021.168.36.242.294.223.338.167.546.223-.546.076-.865-.019-2.483.037-.4.112-.377h.11l.28-.17.168-.293-.28-.592.168-.21.226-.211.075-.252-.017-.441.184-.065.187.211v.379l-.223.546.055.149.336-.041.11.123-.017.383-.131.671.28-.084.371-.441.242-.146.223.062-.017.779.149.314.148-.295.71-1.852.334-.147-.055.504-.316 1.138.112.693.11.022.317-.21.186-.167.52-.654-.24-.146-.093-.254-.019-.336.074-.338.187.022.092-.065.038-.19-.038-.273.564.065.13-.422-.056-.525.074-.316.446-.232.242-.317.074-.462.055-.652-.577.273-.11-.295v-.484l-.204-.379-.038-.146.13-.297.093-.42.074-.779-.017-1.368.166-.484.074-1.369.225-.254.316-.292.259-.36.057-.44-.242-.399-.745-.781-.11-.254-.02-.314-.241-.146-.132-.19.317-.402.744-.527.187-.25.335-.695.263-.273.28-.022-.057.504.225-.02.314-.294.242-.42-.297-.065-.11.022-.02-1.582-.074-.733.094-.063.297-.086.632-.02.187.442-.206 1.517.02.187.074.4v.19l-.075.168-.167.21-.056.084-.038.358-.019.464.075.42.224.254.204-.106.132-.335.188-.697.13-.211.558-.61.112.358.484.484-.055.17-.206.022-.426-.13-.113.065-.13.293-.186.299.168.165.186.276.075.252-.132.189-.167-.022-.223-.189h-.19l-.186.273-.038.525.094 1.033.506-.232.52-.674.465.022.652.443.451.168.26-.192.613-.144 2.033 1.01.445-.4-.222-.061-.204-.086-.187-.149-.168-.253.298.127.148-.127-.036-.295-.187-.357-.185-.106-.222.022-.206-.041-.149-.295-.019-.336.074-.8-.093-.233-.227-.253-.352-.547-.28-.21h.484l.413-.147.336-.314.222-.614.149.235.112.271.166.633.094.105.131-.254.074-.357.036-.275-.055-.21-.055-.083-.093-.043-.113-.063-.11-.15v-.123l.036-.129v-.168l-.13-.335-.558-.715.501-.17.374.065.26.378.317 1.431.148.297.246-.064.427-.317-.168-.335.3-.717-.02-.568.372.19.41-.022.784-.273-.093-.086-.055-.084-.097-.082-.11-.043.169-.633-.318-.294-.635-.084-.036-.525.26-.065.372.084.32-.106.094.442.168.254.743.525.019-.166-.113-.36-.055-.4.112-.738.185.088.206.566.204.738.093.168.13.06.26-.081.134-.106-.055-.148-.115-.168-.038-.127v-.209l-.036-.148v-.146l.13-.168h.097l.055.124.036.149.094.062h.522l.184.4.077.631.259.652.39.717.28.378.075-.105.263-.209-.037.42.037.36.15.272.297.192.094-.383.278-1.134.038-.273-.057-.127-.017-.084.148-.149h.11l.075.17.112.127.168-.064.074-.149.02-.23v-.232l-.039-.192-.074-.062-.372-.652-.038-.125-.651-.17-.278-.168.186-.19.353.065.167-.064v-.276l-.055-.27-.019-.212.038-.17.168-.105.52 1.728.093.208.094.084.13.065.129.086.226.084v-.213l-.184-.482-.078-.443v-.485l.114-.42.223-.234-.092.633.056.8.222.674.43.273-.113-.673-.055-1.283-.206-.484.225.04h.259l.186-.167-.019-.4-.167-.273-.484-.463-.149-.297.093-.105.187-.104.168-.21-.02-.739.113-.23.185-.064.242.17.038-.4.091-.336.113-.084.187.376-.02.444-.074.484.02.378.258.192.094.082-.017-.274-.077-.105.21-1.431.149-.23.11.168.15 1.385.185.405.225.271.26.105.26-.019.223-1.433.168-.441.13-.19.17-.105.113.084.13.21.055.188.093.21v.128l.038.084.223.04.13-.019.15-.043.149-.105.091-.106.113-.103.204-.127.131-.146-.074-.149-.132-.208-.036-.235v-.25l-.019-.232-.187-.822-.184-.148-.355.148.503-.968.261-.149.26.55.112-.042.093-.338.208-.043.186.233-.019.4.317.04.316-.062.316-.146.278-.232-.314-.19-.112-.335-.094-.403-.242-.421.448.021.278.463.242.632.372.422v-.295l.074-.19.21-.42.074.044.13-.064.037-.172-.335-.166.036-.59-.188-.316-.3-.23-.222-.403.223.151.26.062.227-.062.187-.275-.278-.084.427-.465.371.129.187.46-.149.57.055.19.374.084.316.19.297.124.414-.084-.303-.378-.074-.21.112-.126.19-.063.056.043.352.125.168.022.484-.168-.149-.213-.074-.084.112-.209.278-.232.13-.13.655-1.531.075-.403.038-.527.184.146.039-.187.019-.527-.02-.084.168-.105.39-.063.168-.084.168-.294.41-.992.055-.334-.074-.062z"/>
        </g>
    </g>
</svg>
