<svg xmlns="http://www.w3.org/2000/svg" xmlns:xlink="http://www.w3.org/1999/xlink" width="128" height="128" viewBox="0 0 128 128">
    <defs>
        <path id="a" d="M0 0h128v128H0z"/>
    </defs>
    <g fill="none" fill-rule="evenodd">
        <mask id="b" fill="#fff">
            <use xlink:href="#a"/>
        </mask>
        <use fill="#AFC7D1" fill-opacity="0" fill-rule="nonzero" xlink:href="#a"/>
        <g fill="#AFC7D1" mask="url(#b)">
            <path d="M117.568 23.157l-.896-.15-.31.015-.473.169-.161-.034-.324-.135-.237-.049-.248.034-.31.1-1.34.732h-.25l-.871-.398-.222-.167-.205-.218-.842-1.214-.19-.2-.677-.232-.812.05-4.021.964-.104-.016-.087-.066-.104-.017-.146.051-.401.248-.146.033-.295-.084-.177-.182-.19-.115-.34.049-1.223.532-.69.067-.519-.3-.176-.331-.133-.633-.16-.283-.164-.134-.146-.068-.132-.099-.118-.265v-.185l.131-.266-.043-.199-.488-.265-.677.216-1.135.816-.265.215-.574.35-1.753 1.514-.444.582-.515.415-1.223.267-.854.532-.249-.066-.28-.163-.312-.068-1.221.214-.18-.065.016-.183.061-.216-.03-.218-.134-.15-.104-.032-.293.05-1.044-.101-.357-.265.25-.567-.485-.614-.25-.218-.309-.15-1.224-.066-1.503-.565-.264-.168-.25-.214-.236-.301-.22-.516-.163-.532-.208-.434-.397-.231-1.18.034-1.441.33-.297.202-.28.447.059.434.148.434.043.432-.16.233-.325.231-.354.167-.25.034-.191-.2-.532-1.016-.5-.614-.176-.35-.089-.5-.058-.865-.118-.333-.265-.465-.518-.234-.603.034-1.194.267-.28-.05-.381-.05-.221-.298.088-.5.25-.169.618-.199.265-.133-.074-.348-.265-.35-1.092-.183-2.238-.483-1.031-.616-.34-.1h-3.873l-1.768.449-.426.267-.46.165-.015.235.03.298-.089.333-.426.35-1.033.148-.455.284-.236-.083-1.93.432-.308-.05-.46-.482L57.63 15l-.559-.364-2.226-.017-2.753-.017-.265-.099-.03-.117-.062-.432-.043-.152-.103-.148-.132-.132-.133-.082-.133-.068-.265-.017-2.311.415-.562-.05-1.03-.416-1.386-1.03-.19-.234-.147-.366-.044-.335v-.398l-.015-.432v-.017l-.03-1.083-.695-2.33-.617-2.078-.176-.415-.118-.432.029-.934-.072-.4-.151-.447-.148-.868-.176-.331-.235-.184-.985-.53-.798-.188-1.65.136-.808-.284.059 1.2.072 1.879.104 2.414.074 2.062-.015.219-.09.13-.117.067-3.05.15-3.036.134-3.034.133-3.052.133-3.036.117-3.047.099-3.036.117-3.05.099-3.036.083-.973.034-.03.517.117.347.15.318.06.283.073.417.09.197.086.184.074.185.118.732.441 1.132.118.814.132.348.339.718.134 1.014-.267.817-.354.78-.102.9.354 1.215.087.665.09.349v.234l-.06.232-.162.383-.059.267.28 1.38.106.3.073.334-.179 1.48.029.882.12.798.25.75.648 1.565.176.783.235.714.503.58-.191.52.06.48.381 1.033v.135l-.072.148.028.1.044.034.06.017.029.032.029.051.045.082.352.415.103.267.19.749.207.434.195.316.16.364.105.767.176.582.235.184.058.098.016.15-.03.117-.058.1-.015.084.029.516-.014.416.029.381.147.35.015.315-.206 1.101v.432l.087.118.12.132.13.182.06.218-.03 2.729.06.483.234 1.03.06.45-.015.166-.045.184-.043.216.015.252.22.88.03.414-.074 1.416.044.282.073.2.195.317.058.284v.167h-.058l.087.05.163.049.147.1.161.05.09.083.058.132-.015.1-.044.1-.074.348-.19.3-.044.217.043.733-.015.233-.044.148-.117.35-.03.217.059.352.221.73.059.481-.044.485-.148.749.044.464.148.301.47.65.104.415.102.8.029.45-.088.448.088.15.236.265.09.166.03.167v.184l.03.216.103.235.868 1.38.5.566.223.365.103.45v1.398l.044.432.059.233.059.182.352.568v.15l-.029.166v.249l.06.115.117.802v.263l-.074.618-.161.481.015.52.322 1.593-.072.236-.059.082-.045.116-.029.1-.089 1.33-.087.368-.28.582-.4 1.082-.06.1-.102.165-.132.167-.383.35-1.032.667-.147.148-.309.417-.544.433-.119.116-.102.133-.176.464-.044.466.396.534.737.85.293.48.562 1.299.339.634.309.265 1.149.1.619.185.426.314.164.184.353.298.147.151.411.798.104.218.074.066v.017l.029.83.265 9.536.15 4.777.529 19.154.148 4.794 4.803-.182 4.804-.199 4.803-.218 4.818-.214 4.801-.253 4.803-.266 4.805-.282 4.803-.283 4.804-.314 4.803-.335 4.804-.332 4.788-.368 4.805-.365 4.803-.398 4.789-.4 4.803-.434.045-.515.015-.283-.045-.282-.136-.55-.028-.299.013-.684-.013-.231-.163-.565-.013-.202.102-1.198-.03-.415-.087-.417-.06-.2-.103-.15-.22-.249-.089-.15-.074-.166-.043-.182-.015-.2-.014-.633-.045-.5-.103-.531-.088-.235-.103-.2-.16-.168-.21-.113-.648-.201-.132-.283-.368-.432-.117-.3-.044-.167-.045-.131-.073-.118-.103-.1-.18-.084h-.543l-.133-.034-.102-.047-.886-.667-.089-.032-1.411.115-.194-.032-.178-.1-1.812-1.516-.587-.231-.309-.4-1.253-2.229-.619-.985-2.374-2.012-.793-.25-1.723-.184-.21-.083-.162-.165-.131-.233-.442-.915-.456-.534-.518-.398-.53-.169-2.282-.231-.666-.383-.072-.116-.074-.2-.104-.182-.278-.169-1.077-1.048-.941-.547-.412-.35.529-1.4.059-.596-.029-.269-.117-.682.028-.232.177-.384.045-.15-.118-.915-.193-.915-.399-.95-.132-.464.194-.233.28-.134.176-.315.06-.432-.046-.483-.294-.7-.074-.116.016-.25.073-.467-.043-.964.028-.402.104-.364.19-.282.206-.218.177-.265.058-.4.059-.5.383-.78.03-.384-.09-.415-.22-.318-.28-.282-.263-.334-.132-.297-.265-.818-.177-.315-.561-.184-.737.066-.62-.115-.324-.733.015-1.645.03-.368.117-.267 1.165-1.38.367-.668-.102-.614.5-1.216.385-.565.427-.265.25-.084.753-.583.367-.084.104-.081.072-.102.148-.315.015-.051.044-.05.089-.115.102-.1.132-.067.59-.05.207-.132.28-.583.207-.216h.248l.37.049h.326l.131-.2.045-.3.133-.3.176-.248.176-.167.265-.083-.03-.7-.029-.316-.073-1.364-.177-2.73-.073-1.364-.09-1.365-.073-1.347-.087-1.366-.074-1.366-.03-.464.03-.084.059.017.206.067h.265l.235-.033.206-.083.073-.05.045-.084.028-.05.03-.098.03-.551.014-.133.044-.116.059-.1.058-.066.092-.052.22-.083.074-.066.045-.084.102-.365.088-.215.221-.2.192-.099-.06-.102.236-.7.62-.697 1.237-.981.796-.85.516-.232.826-.701.692-.98.455-.267.768-.714.073-.136.118-.332.074-.116.132-.1.192-.099.16-.134.06-.249.132-.265.974-.634 6.468-8.555.854-.499 2.05-2.414 3.477-2.378 1.87-.832.692-.168.235-.099.546-.432 2.755-1.214 4.582-3.03.236-.25.4-.583.368-.249.205-.415.163-.117.426.117h.22l.12-.134z"/>
        </g>
    </g>
</svg>
