<svg xmlns="http://www.w3.org/2000/svg" xmlns:xlink="http://www.w3.org/1999/xlink" width="128" height="128" viewBox="0 0 128 128">
    <defs>
        <path id="a" d="M0 0h128v128H0z"/>
    </defs>
    <g fill="none" fill-rule="evenodd">
        <mask id="b" fill="#fff">
            <use xlink:href="#a"/>
        </mask>
        <use fill="#AFC7D1" fill-opacity="0" fill-rule="nonzero" xlink:href="#a"/>
        <g fill="#AFC7D1" mask="url(#b)">
            <path d="M83.587 123.299l-.185.46-.478.21-1.029.057.016.172.626-.096.287.076.185.246.12-.19.167.17-.084.12-.1.152-.068.096.084.076.05.057.068.02h.085l.273-.804.033-.287-.033-.267.033-.075.12-.078-.035-.135-.135.02zm-6.972 3.67l-.102.249.17.057.101-.249-.052-.152-.117.096zm8.985-2.771l-.033.095.507-.134.287-.133-.254.02-.507.152zm9.102-1.11l.662.076.692-.056.118-.19-1.507-.02.035.19zm1.556-4.624l-.641-4.779-.338-2.389-.321-2.387-.324-2.39-.322-2.393-.337-2.385-.963-7.17-.324-2.387-.321-2.39-.338-2.387-.963-7.167v-.862l.017-1.05v-1.396l.017-1.738.018-2.048.017-2.329.016-2.58.034-5.83.033-6.478v-3.423l.035-3.516v-3.575l.05-10.74V31.16l.017-3.422v-3.308l.017-3.172v-3.001l.016-2.807V2.107h-.337l-.645-.4-.507-.69-.44-.994-.167.02-.68.076-2.403.287-2.418.287-2.421.287-2.437.287-2.418.268-2.42.266-2.422.267-2.418.268-2.42.248-2.42.27-2.42.246-2.436.25-2.418.248-2.423.248-2.418.248-2.436.229.068.115.641.727.05 1.07-.556.936-.832.729-2.014 1.127-.185.361.118.42.258.499.117.457-.24.365-.152.248-.388.172-.422.018-.372-.229-.237.115-.22.536-.255.936-.085 1.088.475 1.74-.032 2.179.067.898-.085.747-.56.8-.66.499-.404.228-.782.172h-.22l-.151-.076-.253-.192-.067.155v.228l.102.364.202.459.05.324-.05.211-.22.496-.05.268-.067.115-.187-.017-.322-.137-.256.039-.117.057-.068.154-.591 1.948-.22.23-.287.153-.9.744-.22.29.068.724 1.424.63.117.974-.22.478-.287.23-.371.097-.443.039-.422.113-1.014.71-.982.341-.152.192.102.363.202.154.252.096.272.133.358.686-.22.63-.325.614.187.88.239.382.152.477-.202.574-.189.096-.507.076-.204.076-.185.172-.355.498-.117.094-.152.191-.663 1.202-.339.307-.27.21-.033.25.405.401.815.364.32.306.12.649-.136.535-.304.287-.408.133-.457.04-.287.208.118.422.321.4.32.153.358.117.407.325.692.685.05.461.067.727v.762l-.067.498-.642 1.127-.168.573.303.478.22.02.591.191.274.21.134.304.102 1.284.27.838.085.422-.085.477-.235.193-.393.152-.354.229-.135.324.085 2.677.015.861.137.229.27.172.323.095.305.02.254.074.252.25.405.479-.152.457-.235.479-.27.38-.22.17-.17.29-.219 1.262L37.985 63l.067.362.253.189.963.098.355.285.119.441-.272.573-.337.135-.524.076-.472.152-.187.381.085.557.135.477.186.4.253.346.204.172.49.285.152.192.067.287-.034.324-.068.287-.034.25.051 1.051.085.42.256.34.676.387.608.229.474.435.238.997.152.171.322.116.675.056.456.155.153.38-.033.364-.153.096.016.191-.794 1.051-.49 1.7-.577 1.358-1.03.037-.169.232-.052.266.018.246.017.174.642.707.05.938-.355.918-.659.649-.577.267-.185.153-.135.23-.153.555-.1.229-.811 1.242-.34.36-.373.193-.794.27-.321.285-.256.459-.153.479-.186.974-.507 1.28-.05.44.017.515-.22 2.257.033.611-.083.285v.172l-1.288 1.223-.405.803.17 1.11.1.172.202.283.289.52.05.152v.496l-.035.23-.167.249-.137 1.68-.1.422-.22.305-.405.133-.932.037-.44.078-.286.213v.4l.235.516.339.402.27.172.117.133-.015.285-.07.29-.05.095-.033.286-.17.457v.25l.27.705.646.766.17.65-1.422 1.567.117-.02.898-.076.39-.037 1.115-.095 1.709-.133 2.236-.211 2.638-.233 2.944-.265 3.148-.286 3.25-.304 3.25-.311 3.144-.322 2.946-.286 2.64-.267 2.215-.23 1.726-.173 1.102-.115.387-.037.844-.076.73-.096.085.381-.05.918-.187.938-.37.992-.19 1.51-.422.708-.135.457.152.48-.287.956-.102.572.017.46.22.363.32.359.204.424-.204.553.612 1.184.322.328.657.209.34.229.323.765.591.381.372.65.067.173.033.21.018.46.034.209.168.4.63.938.134.418.05 1.051.44.71.71 1.511.492.534.135-.285.237-.116.254.057.152.152.033-.076h.135l.22.135.287-.02.27-.152.155-.268.187.153.05.056-.084.155.152.17.22-.246.067-.192v-.21l.035-.288.285-.496.07-.272-.188-.322 1.694-1.356.167-.248.018-.307-.05-.496-.102-.076-.457.039-.185-.059v-.209l.17-.289.236-.248.203-.113.422.056.676.475.374.195-.274.21-.152.248.068.191.358.057.254-.057 1.181-.572 1.204-.518 1.354-.686.32-.08.255-.096.574-.418.252-.133 1.222-.078.59-.133.307-.363-2.439-.096-.017-.172.322-.039.273-.113.457-.305 1.624.325 2.198 1.506.61.039.949-.229.844-.494.304-.69.152-.02.085.288.29.211.186.516.185.113.254.02.237-.037.54.093.392.229.355.117.422-.27.118-.189.067-.191.102-.153.253-.096.186-.152v-.287l-.051-.287.069-.153.015-.02zm-3.907 4.51l-.457-.171-.456-.268-.663-.057-.641.096-.473.229v.152l3.994.248.185-.115.152-.113-.439-.133-1.202.133zm-5.263.38l-.102.119-.135.248.17-.076.305-.31-.015-.093-.223.112z"/>
        </g>
    </g>
</svg>
