<svg xmlns="http://www.w3.org/2000/svg" xmlns:xlink="http://www.w3.org/1999/xlink" width="128" height="128" viewBox="0 0 128 128">
    <defs>
        <path id="a" d="M0 0h128v128H0z"/>
    </defs>
    <g fill="none" fill-rule="evenodd">
        <mask id="b" fill="#fff">
            <use xlink:href="#a"/>
        </mask>
        <use fill="#AFC7D1" fill-opacity="0" fill-rule="nonzero" xlink:href="#a"/>
        <g fill="#AFC7D1" mask="url(#b)">
            <path d="M109.035 43.036l.63.094.341.112.253.206.224.857-.168.921-.043.89.492.635.028.333.21.174.168.27.085.35.042.493-.057.396-.112.363-.041.382.153.508.215.318.49.332.267.255.168.349.028.397.013.429.07.475.425.588.603.365.533.446.197.839-.042.191-.14.43v.239l.055.19.253.54.056.125.887.954.153.476-.041.412-.112.381-.056.398.028.285.028.11-.042.113-.14.22-.084.175-.043.158.029.89.056.476.112.365.21.16v.174l-.07.43.028.427.323.239.168-.016.283-.223.127-.047.182.047.182.143.112.143-.014.065-.069.094-.07.253-.056.271-.029.208.1.237.194.126.59.128.126-.016.1.047.1.206-.115.873v.24l-.295 1.349.239.141.662.224.251.032.141.174-.197.428-.294.396-.154.096-.085.906.015.348.21.254.66.206.196.159-.336.191.083.318.057.682.098.287-.182.602-.085.143v.128l.07.047.042.063.029.08.056.112.084.157-.043.112-.083.11-.029.192.085.237.126.159.266.222.102.224.013.206-.042.443.03.271.195.508.07.524-.07.412-.098.396-.042.493.042.255.154.27.028.173-.28.526-.2.251-.056.112-.041.223.027.302.07.159.098.142.046.19.168.35.786.315.28.208.154.461v.46l-.042.348-.056.557.085.54.198.19.295.049.352.126.237.222.014.237-.041.239.027.302.14.303.268.347.126.333.013.127-.013.32.013.142.07.157.256.4.197.616.042.08-.07.159-.141.16-.181.158.112.27.238.032.295-.064h.265l.268.192.153.253.141.286.186.269.224.11.533.016.252.095.169.224-.015.269-.21.54.421.539.213.35.1.302.476.477.042.094-.042.239-.14.396-.042.477.041.365.183.239.686.11.256.143.421.38-3.092.142-3.064.143-3.079.128-3.077.128-3.093.11-3.077.113-3.08.112-3.076.094-3.08.096-3.076.077-3.08.08-3.09.08-3.08.063-3.076.048-3.078.064-3.078.047-3.078.032-3.076.031-3.079.03-3.092.017-3.078.016h-6.156l-3.092-.016-3.079-.016-3.079-.015-3.077-.032-3.079-.031-3.091-.033-3.079-.047-3.077-.063-3.08-.047.015-1.335.029-1.316.013-1.318.029-1.318.014-1.319.027-1.314.015-1.32.028-1.317.013-1.32.03-1.315.013-1.318.028-1.317.014-1.32.027-1.316.015-1.317.029-1.32-1.337-.03-1.742-.031-1.728-.049-1.729-.047-1.728-.032-3.458-.094-1.728-.064-1.73-.048-1.728-.064-1.73-.047-1.728-.063-1.729-.063-1.728-.065-1.728-.063-1.73-.064-1.728-.08.168-5.253.07-2.636.085-2.635.07-2.62.084-2.636.07-2.619.085-2.619.07-2.635.084-2.617.07-2.622.085-2.62.084-2.618.07-2.62.086-2.604.069-2.617 2.417.094 2.418.096 2.417.094 2.42.08 2.414.079 2.42.08 2.416.063 2.418.08 2.418.063 2.416.047 2.418.063 2.418.049 4.834.094 2.418.032 2.417.033 2.419.032 2.415.03 2.42.017 2.416.015 2.418.016 2.417.015h7.253l2.432-.015h2.416l2.418-.016 2.417-.031 2.419-.016 4.834-.064 1.223-.016h.085l.041.033.295.381.099.112 1.504 1.045.098.016.168.016.07.017.607.428.589.557 1.98.887.142.175.07.239.17.128 1.024.365.38.031.38-.047.168-.096.281-.285.084-.064.056-.095.17-.557.041-.286.126-.173.154-.127.168-.08.355-.11.967.237.579-.173.182.03.295.19.168.064.336-.031.55-.333.31-.097 1.038.256h.38l2.827-.652.35.047.295.159.252.24.436.602.536.508.309.239.336.173.336.081h.747l.14.046.323.177.379.078.14.095.098.143.157.143.267.094 1.279.063.267.16.197.222.154.254.097.19.056.143.085.112.168.112.183.03.591-.063.156.017.196.063.169.11.083.16-.042.19-.085.142-.07.175.014.271.183.253.589.477.144.333.07.396.154.271.252.174z"/>
        </g>
    </g>
</svg>
