<svg xmlns="http://www.w3.org/2000/svg" xmlns:xlink="http://www.w3.org/1999/xlink" width="128" height="128" viewBox="0 0 128 128">
    <defs>
        <path id="a" d="M0 0h128v128H0z"/>
    </defs>
    <g fill="none" fill-rule="evenodd">
        <mask id="b" fill="#fff">
            <use xlink:href="#a"/>
        </mask>
        <use fill="#AFC7D1" fill-opacity="0" fill-rule="nonzero" xlink:href="#a"/>
        <g fill="#AFC7D1" mask="url(#b)">
            <path d="M91.005 95.806l-.063 1.192.62-.387.681-.315.216.247.031.63-.095.662-.06.243-.092.805-.928 3.256-.278 1.75-.064 1.019.124.733-1.027.634h-.68l-1.112-.18-.371.069-.279.075-2.607 2.307-.275.387-.124.207-.31.701-.155.315-.31.451-.28.175-.345.104-.37.04-.495.143-.31.136-.215.175-.127.175-.12.175-.187.458-.092.244-.124.558-.063.909-.06.35-.219.455-.31.322-.555.347-.285.243-.187.247-.278.7-.34.595-.341.522-.216.179-.307.14-.681.203-2.205.57-2.163.554-2.173.562-2.17.558-2.166.561-2.173.559-2.202.558-2.163.565-2.173.558-2.167.562-2.17.522-2.172.562-2.196.558-2.173.522-2.17.565-2.166.523h-.032v.036h-.028v-.036l-.494-1.224-.811-.773-1.64-1.08-.372-.422-.247-.387-.247-.486-.218-.67-.152-.804.028-.594.095-.522.092-.702-.215-1.996.028-.837.466-.49.65-.494.123-.84-.342-2.065-.029-2.662-.155-1.048-.434-1.12-.124-.522-.247-1.893.156-.315.091-.243v-.279l-.06-.279-.123-.107-.102-.068-.06-.108-.063-.594.032-.493.13-.49.215-.49.187-.942-.156-1.016-.5-1.681-1.486-7.663-.091-1.224.155-.737.801-1.367.25-.908.06-.945-.155-1.925-.247-1.577.092-.523.653-.948.253-.698 1.204-2.028.187-.809.031-.944-.031-1.016-.156-.977-.031-.98.218-1.052 1.267-3.603v-.35l-.247-.18-.339-.21-.218-.347.031-.734.713-2.873.092-1.538-.215-1.753-.9-3.885-.276-2.34.276-1.786.9-1.262 1.428-.766 1.486-.35.68-.355.463-.594.688-1.646.339-.593 2.195-2.558.719-.559.155-.49.31-1.08.802-1.23.373-.945-.155-.802-.247-.769v-.912l.247-.315.37-.107.343-.172.152-.53-.092-.418-.31-.419-.526-.49-1.483-2.272-.285-.633-.402-.734-.557-.454-.434-.633-.156-1.156.374-1.781.897-2.558.842-2.415.029-1.152-.44-.634-.555-.522-.434-.98-.184-1.192.184-.522.463-.315-.308-1.016-.091-.737.06-.665.74-2.308.064-.526-.063-.873.032-.49.472-1.825v-.872l-.596-.383-.865-.211.216-.387 1.213-.733.31-.526.586-1.47.403-.63.617-.422.558-.068 2.854.912.773.032.779-.104.462-.454.558-1.785.31-.773.247-.207.032-.036.681 2.343.678 2.311.656 2.347.68 2.304.682 2.315.68 2.343.682 2.312.655 2.347.681 2.307.678 2.347.681 2.311.681 2.344.656 2.347.68 2.304.682 2.347.681 2.314.681 2.34.684 2.347.681 2.311.65 2.344.712 2.35.681 2.34.656 2.311 2.04 7.037.68 2.308.688 2.347 2.04 7.037.681 2.34.402 1.295.187 1.438.162.662.06.666v.207l.032.319.092.386.247.598.218.733.029.522-.029 1.188v.28l.092.321.092.311.247.458.25.35.308.28 1.175.909 1.368 1.256 1.267 1.23 1.362.49.254.176.215.279.279.594.095.382.06.387v1.434l.063.494.124.243.804.945 1.36.977z"/>
        </g>
    </g>
</svg>
