<svg xmlns="http://www.w3.org/2000/svg" xmlns:xlink="http://www.w3.org/1999/xlink" width="128" height="128" viewBox="0 0 128 128">
    <defs>
        <path id="a" d="M0 0h128v128H0z"/>
    </defs>
    <g fill="none" fill-rule="evenodd">
        <mask id="b" fill="#fff">
            <use xlink:href="#a"/>
        </mask>
        <use fill="#AFC7D1" fill-opacity="0" fill-rule="nonzero" xlink:href="#a"/>
        <g fill="#AFC7D1" mask="url(#b)">
            <path d="M82.364 94.224l.519.826-.345.626-.21 1.686-.383.473-.555-.112-.415-.558-.423-.353-.554.47 1.08 1.103 1.215-.08 1.04-.943.765-1.53.174-1.532.138-.117.242-.313.078-.276-1.847.196-.52.434zm6.146-16.918l-.174.626-.277 1.336.035 1.216-2.256 7.259-.067 1.336-.107.51v.237l.071.393.555-1.457.831-4.318 1.148-1.998.387-2.002.21-2.2v-1.408l-.356.47zm.252-8.247l.103-1.805-.284-.237.11-.903-.32-2.352.356-2.122-.252-1.216-.555-.907-.728-.229.38-1.577.348-4.514-.38-1.332.17-1.293.349-1.264.071-1.175-1.876-6.75-.554-1.26-.657-.546-.391.47.355 1.02.625 1.018.555.514-.59.353-1.57-.586-3.337-.357-.973.116-1.698.827-.348-.036-.658-.277-1.293-.116-.519-.666-.07-.947.312-.943-.313-.237-.309-1.605-.07-.197.209-.47.483-.746.245-.513.174-1.02v-2.118l.206-.984.245-.393.555-.63.213-.353.106-.47.068-.979.174-.47.59-.67.21.43-.14 2.28.555-.121.38-.273.277-.393.452-1.1.66-.898.562-1.024.174-.393v-.47l-.103-.706-.071-.586.138-.987.036-1.412.902-2.982.487-4.04-.071-2.164-.174-.943-3.962-1.412-3.925-1.376-3.965-1.373-3.926-1.408-3.962-1.38-3.929-1.413-3.926-1.373-3.93-1.412.036.08-.59.666-.77.273-.313.237-.38.59-.384.116-.138.197-.068.237-.071.545-.036.157-1.488 2.44-.139.746.068.349-.068 1.529-.348 2.44-1.29 3.178-.383.513-.21.19-.309.316-.28.393-.104.277.139.626.035.117-.138.116-1.006 2.36-.554.746-.735.43-.452.392-.696.823-.625.983-.206.903.138.353.277.357.555.506.07.197v.236l.036.197.139.04.206-.04h.245l.139.116.138.313.345.353.703.55.693.747.313.943-.174.943-.416.51-.313.585.036 1.3-.036.98-.494.67-.657.272-.728-.196-.139.943-.174.47-.21.232-.138.237.139.433.21.317h.102l-.174 1.57v.746l.245.585.242.47-.036.433.071.474.452 1.573-.071.546.174.55.241.469.565 1.336.483.116 1.006-.505 1.908.192.91 1.176 1.04 3.889.558.866.867.863.902.39 1.254-.94.626.747.902 1.846 2.192 1.336.451.39.174.276 1.56 1.565 1.432 1.22 2.22 1.296 1.116.863.625.979-.245 1.14-.874.947-1.073.742-.87.353-.277.313-1.006 1.533-.313.273-1.254.83-.45.546-1.042 2.079-.38.47-1.12.982-.415.867-.902 2.825-.277-.317-.348.827-.658-.116-.035.67.415.858.693.67-.483.627-.384.822-.415.59-.626-.036-.138.313h-.036l-.074.036-.8.514-1.144.979-.554.277-.8.273-1.428.782-1.804 1.497-1.144 1.412-.981 1.646-.451 1.649.21 1.493v.236l-.38.273-.14.438-.106.425-.38.554-.036.666.068.71v.55l-.17.273-.59.626-.59 1.095.035.393.52.554 1.491 1.1.242.666.071 2.436.103 1.023-.313-.12-.241-.197-.21-.237.661 1.453 1.04.863 1.255.55 4.551 3.575.174.232.245.197.313.2.17-.08.175-.236.245-.237.344-.04.494.433.416.743.522.67.622.156 1.354-.313.312.117.487.947.352.116.558.116 1.492.823.415.317.103.273v.666l.174.393.349.393.593.237v.233l.625-.193.348-.357.313-.47.416-.509 1.076-.59.729-.233.525.037.21.393.068.393.106.273.345.04.312-.152.59-.358.245-.116 1.457-.353.629.036.66.317 1.042 1.497.138 2.074-.902 4.712-.032 1.059.103 1.06.174 1.063-.036.666-.174.51.036.393.554.349h.416l.348-.193 1.915-1.452 1.18-1.337.937-1.569.416-1.569-.139-.353-.245-.397-.032-.43.796-.513.313-.313.248-.353.139-.903.625-1.292.107-.357-.174-.546-.277-.273-.313.036-.355.313-.068-.156v-.077l-.07-.08-.175.04.245-.554.316-.313.42-.08.45.237.868-4.358.241-.742.693-.666 1.048-2.677.835-1.055-.07-.353-1.777 1.252-.519-.037-.451-.196-.522-.117-.626.157.451-1.06.938-.55 2.295-.509-.067-.273-.277-.63.241-1.063.835-1.882 1.144.433-.728 1.333-.313.786-.174.827.071.277.9-.634 1.776-2.043.973-.782-.487-.863-.629-.867-.696-.43-.59.51-.103-.666.068-.786.106-.707.139-.47.451-.589.416-.036.423.116.554.04.21-1.336-.036-.907-.416-.273-.494-.277-.38-.862-.415-1.846.415.24.459.197.45-.08.484-.474 1.528.67.174.237.174.51.277.353.451-.237.103-.822-.657-.787-.66-.983.276-.827.174-.858.313-.474.416-.349.39-.55.242-.553.139-.67.241-.55.835-.743.277-.822.313-1.613.174-.354.277-.862.068-.787-.59-.192-.693-.51-.138-1.573.206-1.806.245-1.176.45-1.063v-.39l-.244-.986-.032-.823.17-.666.661-1.096-.416-.196-1.25-.117.554-1.023.142-1.18-.28-.706-.693.393v-.822l.38-.394.558-.232.483-.394.313-.63.138-.79-.206-.47-.625.117-.068-.313.483-.783.452.273.38.903.312 1.18.143 1.14-.036.862-.313 1.962 1.187 8.48.277-1.256-.519-5.378z"/>
        </g>
    </g>
</svg>
