<svg xmlns="http://www.w3.org/2000/svg" xmlns:xlink="http://www.w3.org/1999/xlink" width="128" height="128" viewBox="0 0 128 128">
    <defs>
        <path id="a" d="M0 0h128v128H0z"/>
    </defs>
    <g fill="none" fill-rule="evenodd">
        <mask id="b" fill="#fff">
            <use xlink:href="#a"/>
        </mask>
        <use fill="#AFC7D1" fill-opacity="0" fill-rule="nonzero" xlink:href="#a"/>
        <g fill="#AFC7D1" mask="url(#b)">
            <path d="M54.491 118.64l.936 1.237-.222-.264-.174-.082-.7-.05-.425-.033-.44-.032-.437-.034-.423-.015-.439-.034-.424-.033-.438-.032-.423-.032-.439-.034-.439-.034-.423-.032-.439-.034-.423-.015-.439-.035-.437-.032-.425-.034-.439-.034-.424-.034-.436-.033-.426-.032-.44-.033-.422-.032-.438-.033-.439-.032-.424-.034-.438-.032-.422-.034-.44-.032-.439-.034-.423-.032-.439-.034-.424-.032-.438-.033-.424-.034-.44-.049-.423-.032-.438-.034-.438-.032-.424-.034-.44-.033-.422-.034-.437-.034-.44-.049-.424-.032-.438-.035-.422-.032-.44-.034-.439-.03-.422-.034-.425-.05-.439-.033-.438-.032-.424-.034-.439-.033-.424-.032-.438-.05-.438-.033-.424-.032-.424-.034-.438-.049-.437-.034-.425-.032-.439-.049-.423-.033-.014.165-.015.148v.147l-.015.164-.014.15v.167l-.015.147-.015.165-.015.149v.163l-.013.15-.015.166v.148l-.015.149-.015.165-.013.147v.165l-.015.15-.015.166v.148l-.015.164-.014.147v.15l-.014.167-.015.147v.165l-.015.149-.015.163-.014.15v.166l-.03.297v.165l-.015.162-.013.152v.148l-.015.166-.015.148-.015.164v.148l-.013.167-.017.149v.148l-.015.164-.015.148v.166l-.013.15-.015.164v.148l-.015.165-.015.149-.015.163v.15l-.013.15-.015.164v.149l-.015.164-.015.148-.013.167v.149l-.015.148-.015.164v.148l-.015.166-.716-.068-.717-.049-.715-.064-.716-.068-.717-.048-.715-.066-.716-.066-.717-.066-.715-.066-.718-.049-.714-.067-.718-.066-.714-.066-.717-.065-.716-.068-.717-.067-.715-.065-.717-.065-.716-.066-.336-.034v-.098l.293-3.928.276-3.929.293-3.913.28-3.927.29-3.928.279-3.913.29-3.928.28-3.93.291-3.912.278-3.928.293-3.91.554-7.86.293-3.91.291-3.928.28-3.911.278-3.914.582-7.84.556-7.841.294-3.911.276-3.928.292-3.913.278-3.912.292-3.911.556-7.825.584-7.824.556-7.808 2.98.281 2.982.265 2.981.247 2.982.263 2.968.248 2.98.248 2.98.231 2.982.233 2.981.231 2.982.23 2.98.214 2.982.197 2.981.2 2.982.198 2.982.198 2.996.18 2.98.184 2.98.18 2.982.166 2.982.164 2.981.165 2.98.149 2.997.148 2.98.132 2.981.133 2.997.132 2.982.131 2.98.117 2.981.116 2.995.1 5.965.197-.118 5.529-.072 2.755-.058 2.774-.675-.015v.394l-.013.694-.964 33.904-.073 3.086-.088 3.07-.088 3.087-.102 3.087-.175 6.174-.09 3.086-1.226 43.23-3.698-.116-3.711-.133-3.712-.132-3.712-.148-3.699-.147-3.71-.165-3.711-.167-3.699-.182-3.712-.181-3.697-.197-3.71-.198-3.699-.216-3.712-.214-3.697-.231-3.712-.23-3.699-.25-.438-.031-.276-.017v.381l.306.825.059.478.028.512.088.395.381.71-.133.149.103.263.147.2.19.148.22.05z"/>
        </g>
    </g>
</svg>
