<svg xmlns="http://www.w3.org/2000/svg" xmlns:xlink="http://www.w3.org/1999/xlink" width="128" height="128" viewBox="0 0 128 128">
    <defs>
        <path id="a" d="M0 0h128v128H0z"/>
    </defs>
    <g fill="none" fill-rule="evenodd">
        <mask id="b" fill="#fff">
            <use xlink:href="#a"/>
        </mask>
        <use fill="#AFC7D1" fill-opacity="0" fill-rule="nonzero" xlink:href="#a"/>
        <g fill="#AFC7D1" mask="url(#b)">
            <path d="M90.895 109.032l-.268.302-.189.502-.234.604-.268.705-.445.2-.612.026-.3-.063-.268-.176-.2-.25-.122-.241-.089-.213-.201-.73-.066-.175-.102-.176-.11-.177-.1-.088-.101-.062-.078-.027h-.167l-.077.013-.068.026-.333.163-.079.026h-.077l-.09-.013-.1-.025-.156-.088-.112-.115-.088-.1-.055-.05-.045-.038-.623-.313-.113-.026-.099.013-.201.063-.723.1-.423.214-.435.15-.056.051-.054.05-.102.127-.044.063-.033.138-.023.19-.011.388-.022.189-.077.176-.235.214-.033.466.066.464.135.415.4.767.056.164v.189l-.067.189-.268.39-.088.238-.123.93-.022.466.022.34.279 1.282.055.288-.144.341-.012.742-.345.78.122.692.135.843.277.93.067.415-.067.453-.021.427.067.83-.012.678-.055.354-.19.654-.055.05-.156.05-.179.025-.167-.025-.133.037-.067.227.045.164.19.34.02.226-.066.163-.334.377.056.567-.011.189-1.993-2.73-1.972-2.741-2.048-2.856-1.903-2.716-1.682-2.415-1.681-2.426-1.671-2.427-1.658-2.415-1.66-2.429-1.658-2.438-1.65-2.427-1.636-2.427-1.892-2.68-3.741-5.357-1.849-2.692-1.86-2.679-1.848-2.69-1.837-2.692-1.825-2.692-2.36-3.232-2.35-3.231-2.339-3.245-2.327-3.246-2.315-3.243-2.306-3.256-2.293-3.26-2.282-3.256.033-.225.156-.92.49-3.03.478-3.018 2.45-15.092.479-3.017.98-6.011.478-3.02.98-6.011.479-2.993.49-3.005.478-2.994 2.093.427 2.094.43 2.093.413 2.082.415 2.094.414 2.082.404 2.093.415 2.094.401 2.093.39 2.093.39 2.093.391 2.093.388 2.093.378 2.094.378 2.093.377 2.105.364 2.081.366 2.094.365 2.093.351 2.093.352 2.093.34 2.095.353 2.093.338 2.093.327 2.093.34 2.093.328 2.094.327 2.093.313 2.104.315 2.093.314 2.093.303 2.105.301-.58 5.158-.289 2.59-.289 2.577-.3 2.578-.29 2.593-.29 2.577-.579 5.182-.3 2.589-.869 7.772-.289 2.604-.301 2.59-.29 2.605-.289 2.589-.3 2.604-.868 7.797-.3 2.604-.291 2.603-.3 2.615-.869 7.81-.3 2.615-.29 2.604-.301 2.616-.58 5.22-.021.137-.044.39-.068.615-.088.793-.112.944-.123 1.042-.122 1.12-.267 2.315-.134 1.119-.11 1.043-.112.944-.09.792-.066.617-.045.39-.022.138-.078.705-.034.163-.044.163z"/>
        </g>
    </g>
</svg>
