<svg xmlns="http://www.w3.org/2000/svg" xmlns:xlink="http://www.w3.org/1999/xlink" width="128" height="128" viewBox="0 0 128 128">
    <defs>
        <path id="a" d="M0 0h128v128H0z"/>
    </defs>
    <g fill="none" fill-rule="evenodd">
        <mask id="b" fill="#fff">
            <use xlink:href="#a"/>
        </mask>
        <use fill="#AFC7D1" fill-opacity="0" fill-rule="nonzero" xlink:href="#a"/>
        <g fill="#AFC7D1" mask="url(#b)">
            <path d="M123.12 40.62l.46 2.83.445 2.811.916 5.645.443 2.813.457 2.83.46 2.815.457 2.826.121 4.444.215 8.88.121 4.459.108 4.438.12 4.442.215 8.9-.08-.016-.377.015-.282-.152v.152l-.728-.244-.228-.121.053-.107.04-.09-.322-.018-.39.108-.12-.182-.175-.106-.215-.06-.219-.032h-.107l-.161.108-.108.03-.08-.03-.134-.182-.27-.137-.269-.473-.214-.091h-.192l-.39-.122-.983-.152-.591-.592-.242-.442-.081-.123-.161-.107-.135-.06-.094-.12-.054-.305-.04-.092-.11-.106-.12-.091-.11-.031h-.523l-.228-.061-.242-.182-.514-.533-.27-.182-.469-.106-.095-.121-.067-.137-.08-.123-.175-.12-1.01-.32-.243.045-.27.274-.082.32-.014.347-.067.23-.187-.107-.082.168-.107.09-.135.078-.161.107-.175-.107h-.107l-.04.197v.152l-.028.09-.067.061-.094.062-.12.014-1.267.016-.161.045-.108-.15-.097-.078-.12-.044h-.149l-.053.044-.094.077-.067.045-.04-.076-.068-.106-.04-.076v-.03l-.47.015-.203-.106.135-.305-.121-.306-.175-.15-.204-.106-.202-.167-.2-.078-.163.184-.187.395h-.108l-.256-.092-.04.045-.352.229-.161.046-.163.123-.147.137-.094.137h-.148l-.229.03-.486.015-.107.135.08.564-.161.153-.108-.047-.08-.09-.08-.137-.122.045-.08.108-.095.135-.417.106-.174-.046-.876-.578-.162-.182-.161-.046-.189.138-.147.197-.057.153h-.107l-.228.152-.27.227-.51.274-.202.03-.782.03-.148.049-.296.211-.161.047-.148.15-.245.716-.135.273-.282.213-.268.045-.646-.06-.392.076-.094.199.013.301-.066.428-.417.35-.457-.473-.46-.743-.364-.473-.282-.06-1.01.104-.121-.06-.054-.166-.04-.181-.055-.154-.093-.077-.336-.181-.621-.198-.189-.211L95.61 96l-.04-.094-.028-.105v-.108l.014-.107.161-.378-.04-.123-.135-.136-.375-.168-.203-.047h-.16l-.08.062-.054.06-.098.183-.175.64-.04.106-.04.09-.053.076-.068.063-.12.062-.15.06-.282.045h-.16l-.134-.015-.081-.045-.407-.336-.16-.076-.122-.016-.524.092h-.147l-.122-.045-.067-.047-.191-.211-.094-.168-.081-.2-.108-.576-.067-.197-.066-.108-.121-.076-.203-.106-.147-.015h-.12l-.514.121-.095.045-.066.047-.11.168.015.273-.027.487-.216.563-.228.35-.322.121-.54-.15.026.318.108.137.124.09.067.197-.067.154-.285.198-.054.227-.028.594-.12.531-.27.336-.482.045-.366-.242-.296-.457-.215-.534-.081-.5.053-.352.27-.516.054-.336-.041-.258-.12-.227-.175-.182-.189-.154-.093.063-.189.091-.08.077-.055.09-.053.15-.255.535-.084.136-.417-.397-.175-.059-.24.198-.028.062-.08.211-.041.076-.08.104-.163.11-.053.076-.121.105-.164.06-.982.108-.24-.168-.108-.47-.041-.427-.124-.26-.229-.135-.35-.06-.956.09-.228-.135-.148-.383v-.76l-.148-.35-.565-.303-.593.242-.524.487-1.267 1.507-.578.426-.662.136-.644-.213-.35-.199-.148-.197.04-.303.013-.137.028-.2.093-.424v-.197l-.107-.23.094-.227-.04-.213-.108-.166-.15.045-.538-.198-.739-.154-.58-.32-.04-.667-.082-.44.054-.61v-.533l-.243-.227-.375.061-.702.303-.457.078-2.018-.26-.379.137-.242.305-.175.364-.202.351-.094.182-.363.076-.756.016-.215-.137-.51-.656-.203-.151-.095-.106-.256-.488-.162-.123-.497-.104h-.175l-.337.075-1.009.488-.175-.107-1.886-.44-.31-.122-1.145-.822-.337-.09-.242.076-.229.106-.322.074-.297-.045-.58-.196-.31-.046-.698.046-.339-.076-.255-.244-.053-.32-.054-1.109.054-.245.053-.167-.256-.35-.47-.47-.135-.32-.094-.366-.149-.305-.297-.135-.296-.016-.147-.045-.135-.06-.121-.137-.066-.154-.042-.137-.08-.121-.283-.227h-.217l-.148.227-.08 1.02-.12.304-.23.137-.349-.047-.325-.135-.565-.367-.726-.107-.136.047-.134.091-.163.227-.108.11-.268.09-.915-.09-.284-.11-.189-.227-.296-.502-2.53-2.738-.15-.107-.322-.074-.135-.092-.242-.078-.674.109-.229.03v-1.156l-.014-2.329v-9.292l-.013-2.327v-9.293l-.013-2.312V46.11l-.013-2.31v-1.021H39.35l-2.75-.016-3.259-.03-3.623-.03-3.891-.046-3.999-.045-4.013-.076-3.877-.076-3.624-.076-3.258-.09-2.747-.077-2.115-.06-1.36-.031-.483-.016.054-2.556.066-2.539.109-5.094 1.803.045 1.79.06 1.805.047 1.806.045 1.79.045 1.804.045 1.805.031 1.792.045 3.367.061 3.365.06 3.366.047 3.367.045 3.366.031 3.367.03 3.367.016 3.367.014h3.367l3.367-.014 3.365-.016 3.38-.016 3.355-.03 3.38-.046 3.365-.03 3.367-.06 3.367-.06 3.353-.077 3.38-.076 3.35-.09 3.37-.092 3.366-.092 3.365-.12 3.366-.106 3.37-.123 3.365-.137 3.366-.137 3.366-.154 3.366-.166 3.368-.167 3.353-.167 3.366-.182z"/>
        </g>
    </g>
</svg>
