<svg xmlns="http://www.w3.org/2000/svg" xmlns:xlink="http://www.w3.org/1999/xlink" width="128" height="128" viewBox="0 0 128 128">
    <defs>
        <path id="a" d="M0 0h128v128H0z"/>
    </defs>
    <g fill="none" fill-rule="evenodd">
        <mask id="b" fill="#fff">
            <use xlink:href="#a"/>
        </mask>
        <use fill="#AFC7D1" fill-opacity="0" fill-rule="nonzero" xlink:href="#a"/>
        <g fill="#AFC7D1" mask="url(#b)">
            <path d="M34.286 12.413l.93.033.251.15.163.234.414.517.177.167.414.186.414.316.385.384.31.382.192.403.163.483.103.518v.852l.148.283.192.25.148.319.015.367-.059.986.118.799-.09.384-.147.416-.088.485.222.669.014.216-.059.234-.133.401-.059.234-.09.835v.501l.075.384.192.35.28.367.312.3 1.064.485.606-.015.207.05.414.368.695.365.368.352 1.199.298 1.063.719.281-.016.281-.117 1.125-.1 2.718-.452.636-.249 1.124-.652.65-.216.414.015 1.02.47 2.159.066 4.154 1.37.634.4.237.317.088.35.059.4.104.486.222.25.325.033 1.36-.333h.074l.31.082.15.084.072.017.473.083.148.05.192.15.592.201.636-.05.19.033.09-.017.71-.4.118-.016h1.05l.709-.15.089-.152.118-.1.414-.184h.161l2.07.886.163.016.37-.1h.134l.708.284.163.017.355-.067.62-.233.148-.017.222.049.399.184.222.017.43-.1.413-.217.502-.367.296-.118.68.017 2.232-.501 3.976.066.68-.384.487-.466.252-.083.384.015.976.25h2.025l3.534.634.737-.2.71-.616.133.016.652.134 1.832.35 1.833.35 1.833.352 1.818.333 1.833.351 1.834.333 1.831.35 1.833.334 1.834.336 1.833.333 1.833.335 1.833.315 1.832.335 1.833.317 1.833.32 1.937.332.015.1.029.684.266 1.27.725 1.085.074.351.118.3.991.417.118.166.25.42.755.684.577.233.177.233.148.268.133.45.148.918.369 1.135.043.452-.043.466-.162.384-.252.302-.488.435-.103.132-.355.684-.133.434-.074.201-.813.82-.31.682-.577.536-.236.351-.12.45-.16.885-.194.333-.236.336-.43 1.268-.413.785-1.863 2.218-.147.217-.074.217v.254l.044.181.059.118.015.066-.074.45-.295.97-.178.383-.427.701-.963 1.236-.236.235-.31.2-.96.466-.312.3-.192.287-.546 1.034-.473.683-.223.435-.235.817-.207.384-.251.336-.222.215-.178.067-.162.017-.148.084-.09.268-.073.116-.162.1-.104.133.059.601-.162.367-.222.403-.118.5.029.249.133.485.015.283-.06.218-.103.268-.044.217.044.416.191.333.504.536.163-.15.148-.166.162-.136.207-.05.178.082.087.205.06.215.089.184.296.168.25-.034.282-.084h.34l.163.1.028.2-.043.25v.233l.074.318.059.116.296.252.22.25.238.351.043.217-.072.15-.12.1-.074.117-.028.25-.06.253-.088.232-.148.2-.177.051-.194-.051h-.207l-.176.169-.044.35.294.798.046.485-.046.236-.074.167-.087.15-.105.232-.222.869-.28.669-.119.5-.235.466-.207.252-.355.217-.281.317.043.518-.013.167.013.283-.265 1.952-.133.971-.31 2.236-.296 2.236-.31 2.256-.31 2.237-.296 2.238-.311 2.237-.296 2.253-.62 4.476-.296 2.253-.311 2.252-.31 2.24-.295 2.252-.31 2.256-.312 2.236-.295 2.253-2.794-.483-2.778-.5-2.78-.502-2.78-.502-2.778-.515-2.778-.52-2.779-.518-2.779-.517-2.78-.532-2.779-.552-2.763-.536-2.78-.55-2.764-.55-2.778-.55-2.78-.57-2.78-.566-3.887-.82-3.888-.815-3.872-.821-3.873-.85-3.888-.835-3.872-.868-3.873-.867-3.874-.888-3.87-.884-3.874-.9-3.874-.904-3.857-.918-3.874-.935-3.858-.95-3.859-.953-3.857-.95-.074-.034-.414-.101-.118-.516-.739-.918-.488-1.07-.177-.184-.059-.234.103-2.37-.09-.517-.221-.267.074-.218.045-.485.014-.833-.06-.068-.117-.182L.153 90l.177-.12.104-.15.177-.317.089-.25.074-.334.103-.735v-.652l.03-.25.118-.3.488-.734.118-.266.266-.703.015-1.067.089-.686v-.384l-.118-.232-.193-.201-.162-.234L1.41 82l-.09-.7-.088-.317-.236.15-.09-.298-.014-1.254-.044-.284-.118-.249-.207-.235.325-.183 1.094-1.754.739-1.168.235-.283.253-.25.237-.303.162-.433.102-.436.281-.918 1.14-2.771.205-.918.03-.318.06-.15.147-.215.177-.184.312-.118.161-.1.163.033-.163 1.186.178.3.105.035.102-.553.03-.25-.03-.267.164.05.102-.018.074-.082.118-.15-.148-.268.253-.449.442-.435.386-.131.191.114v.2l-.058.27.043.382.148.234.266.218.281.114.236-.032-.37-.917-.014-.55-.074-.187-.074-.15-.015-.114.06-.186.251-.417-.533.217-.65.466-.59.553-.445.534-.074-.183.355-.486 1.48-2.67.074-.235.235-.416.31-.986.163-.284.222-.249.428-.283.208-.203.162-.284.133-.267.148-.166.222-.017v.067l-.045.15v.153l.104.08.65.168.03-.133-.148-.251-.281-.335-.325-.249-.296.033-.207.334-.236.485-.192.232-.074-.38.088-.472.43-.833.812-2.507.311-.865.103-.35.177-.887.074-.167.207-.084.118-.2v-.116l-.044-.635.015-.281.044-.17.044-.151.237-.649.577-1.786.222-1.37.251-.767.015-.133-.045-.219.015-.134.059-.116.163-.15.059-.101.518-1.202.118-.418.163-.3.266.066.473.384-.074-.6-.222-.084-.281.032-.22-.232-.016-.4.103-.518.946-2.655.163.017.266.283.266.167.103-.334-.06-.3h-.146l-.177.066-.178-.084-.09-.266.031-.217.059-.218-.044-.299.014-.283.28-.952.075-.434.015-.384.22-1.319.164-.317.25-.335.253-.384.103-.384.043-.167.135-.067.118-.133.089-.351-.015-.133-.044-.116.222-.47.177-.633.281-.952-.104-.268.059-.2.222-.35.37-.416.207-.485.192-.501.029-.318.058-.502.016-.232.074-.3.207-.785.059-.05.058-.017.09-.05.059-.1v-.116l.104-.602.074-.52-.104-.182-.207-.167-.192-.066.03-.15.31-.033.163-.234.118-.351.089-.267.087-.218.074-.133.075-.118.043.051-.043.082-.207.635.28-.166.251-.302.238-.216-.445-.45-.161-.451.192-.903.25-.417.194-.667.118-.167-.09.669-.015.582.149.319.222.116.22.253.104-.052.118-.184.281-.133.015-.169-.31-.133-.134-.3.046-.4.148-.45-.43.017-.265-.386-.118-.183.074-.268.264-.65.194-.483.368-.27.148-.182.164-.1.176-.035.177-.083.178-.217-.102.017h-.06l-.075.017-.087.05-.179-.2-.177.017-.163.182-.118.118-.133.2.149-.65-.016-.633-.176-.536-.296-.3.488-.685.176-.4.281-1.203.046-.518-.046-.5-.222-.47.163-.2.149-.049.161-.05.414-.283.09-.117.132-.25.163-.435.103-.484.074-.5.03-.483-.03-.854-.355-1.853.015-.483.281-.017-.059.066-.03.067-.059.15.355.133.355.35.297.418.191.367.223.236.486.066.163.15.044.35-.074.3-.044.284.147.302.03-.285.074-.234.133-.135.192-.015.03-.118-.104-.165-.206-.45-.119-.117-.148-.051-.133-.084-.103-.134-.089-.164.281-.052.532.084.266-.118.222-.05.133.202.192.5.207.183.222.034 1.315.032.237-.066-.162-.266-.09-.084.208-.034.443.118.252-.017.43-.202.22-.05.296.016.162.102.134.183.517 1.321.059.198.192.268 1.433.65.828.2.207-.067.504-.466z"/>
        </g>
    </g>
</svg>
