<svg xmlns="http://www.w3.org/2000/svg" xmlns:xlink="http://www.w3.org/1999/xlink" width="128" height="128" viewBox="0 0 128 128">
    <defs>
        <path id="a" d="M0 0h128v128H0z"/>
    </defs>
    <g fill="none" fill-rule="evenodd">
        <mask id="b" fill="#fff">
            <use xlink:href="#a"/>
        </mask>
        <use fill="#AFC7D1" fill-opacity="0" fill-rule="nonzero" xlink:href="#a"/>
        <g fill="#AFC7D1" mask="url(#b)">
            <path d="M79.354 6.897l-.141 1.454-.25 2.906-.125 1.469-.141 1.454-.125 1.454-.127 1.47-.127 1.45-.125 1.454-.14 1.469-.252 2.922-.141 1.454-.126 1.47-.125 1.45-.125 1.473 2.023.232 2.022.21 2.009.231 2.023.212 2.024.23 2.022.214 2.023.213 2.023.212 2.023.194 2.023.212 2.025.195 2.007.194 2.038.196 2.007.195 2.039.196 2.009.195-.206 2.92-.203 2.943-.44 5.863-.203 2.939-.44 5.865-.203 2.942-.221 2.939-.204 2.942-.437 5.88-.204 2.94-.22 2.94-.205 2.94-.437 5.9-.206 2.94-.22 2.957-.217 2.94-.204 2.96-.22 2.958-.22 2.94-.204 2.959-.22 2.958-.22 2.957-.203 2.94-.44 5.918-.203 2.959-.218 2.958-.221 2.957-2.636-.246-2.634-.248-2.635-.267-2.65-.266-2.634-.264-2.635-.266-2.636-.265-2.634-.286-2.635-.282-2.634-.284-2.636-.283-2.65-.3-2.635-.301-2.634-.3-2.62-.321-2.635-.302-2.634-.32-2.635-.318-2.634-.317-2.636-.336-2.619-.339-2.634-.337-2.635-.337-2.634-.335-2.62-.353-2.635-.355-2.634-.354-2.62-.373-2.635-.354-2.618-.37-2.635-.374-2.62-.389.816-7.351.423-3.685.41-3.668.422-3.685 1.224-11 .423-3.683.409-3.666.423-3.669 1.223-10.981.423-3.669.407-3.646.408-3.669.424-3.648.408-3.668L27.6 37.153l.423-3.646.816-7.299.409-3.63.407-3.652.423-3.63.407-3.631.407-3.649.816-7.264 2.965.424 2.98.427 2.98.426 2.964.405 2.98.39 2.979.409 2.98.389 2.98.391 2.964.371 5.96.743 2.979.373 2.98.354 2.98.355 2.98.335z"/>
        </g>
    </g>
</svg>
