<svg xmlns="http://www.w3.org/2000/svg" xmlns:xlink="http://www.w3.org/1999/xlink" width="128" height="128" viewBox="0 0 128 128">
    <defs>
        <path id="a" d="M0 0h128v128H0z"/>
    </defs>
    <g fill="none" fill-rule="evenodd">
        <mask id="b" fill="#fff">
            <use xlink:href="#a"/>
        </mask>
        <use fill="#AFC7D1" fill-opacity="0" fill-rule="nonzero" xlink:href="#a"/>
        <g fill="#AFC7D1" mask="url(#b)">
            <path d="M33.174 28.714l-.502-.136-.174.078-.121.119-.018.078.12.156.036.117.052.06.018.136-.123.295.053.04.034-.02.052-.078.262-.158.26-.275.035-.099-.035-.018-.052-.078.052-.156.051-.06zm-1.076 2.454l.279-.176.19-.333.034-.412-.139-.393-.313.237-.19-.08-.105-.314.018-.415.208-.782.052-.452-.155-.706-.156.018-.453.315-.07.136-.104.179-.034.235.051.275-.26.098-.262.293-.172.411v.456l.225.232.365.179.21.197-.175.41.956.392zm-1.46-6.655l-.157.06-.45.351-.123.119-.052.256.036.197.138.373.172.255.159-.156.12-.356.07-.333.104-.116.174.157.226.333.052.256.017.293.087.275.244.157.469.078.225-.038.244-.157-.52-1.553.104-.176.016-.137-.016-.156.034-.275.105-.197.174-.038.138.137.034.216-.016.273.103.729.261.784.123.255.154.118h.192l.087-.138.052-.157.087-.136.783-.333.12-.08.122-.217-1.581-1.509-.608-.237-.348-.058-.19.02-.974.803-.191.058zm1.286 15.899l.035.355.121.531.21.43.31.08.21-.373.053-.628-.053-.628-.122-.668-.103-.137-.157-.04-.192.099.21.39.085.51-.069.378-.243-.04-.034-.181.051-.528-.069-.196-.156-.02-.07.196-.017.47zm.277-18.018h-.052l.036.157.07.078-.054.02.053.058.105.078.034-.038-.034-.058h.051l.07.116.192.079-.174-.313-.07.02-.12-.139.154-.058.139.02.191.097-.138-.175-.208-.118-.227.02-.034.078.051.058v.04l-.035-.02zm-1.999 4.673v.135l.505.317.122-.06.036-.14.052-.077.051-.06h.087l.105.04h.07l.05-.02.106-.059.104-.196-.017-.195-.123-.04h-.12l-.07.04-.018.116-.07.02-.035-.118.036-.116-.018-.058-.297-.139-.12-.156-.574.078-.19-.038-.036.078.054.098.19.079.051.058.139.313v.08l-.07.02zm5.562 5.38l-.174.037-.208.177-.26.058-.418-.096-.295.49-1.842 2.471-.157.47.07.632.105.196.172.215.192.197.156.078.087.136.261.825.451-.179.349.04.207.298.018.607-.487 1.295v.393l.208.511-.085.412.12.548.21.491.19.235.105.237.123.158.208.058.192-.058.364-.297.208.02.207.277.087.49v.588l-.051.531.07.137h.227l.382-.077.069.077-.018.156v.137l.105.042.087-.06.085-.159.105-.096.4-.492.105-.078.069-.096-.018-.277-.07-.412v-.59l-.173-.469-1.112-1.218-.226-.353-.19-.413-.297-.353-.208.238-.087.568.121.568-.295.532-.26.098-.122-.317.087-1.236.19-1.374v-1.158l-.051-.57-.174-.47-.313-.254-.174-.098-.33-.336-.208-.098-.52.04-.228-.098-.156-.355.973.02.261-.137.105-.294.103-.45.123-.158.138.57.174-.334.26-.373.279-.156.26.313.157.333.243.176h.262l.259-.196.14-.685-.835-1.079.07-.512-.052-.098v-.275l-.105-.293zm.851-7.62l-.051-.077-.208-.02-.123-.059.123.157.313.413.174-.058.069-.355-.036-.157-.103-.118.016.058v.217l-.051.02-.123-.02zm-.694-.097l-.313-.843-.243-.177-.139.333.018.255.172.235.297.568.19.493.087.177.297.393.172.195.138-.038v-.255l-.051-.275-.07-.237-.086-.174-.157-.217-.208-.239-.104-.194zm-.835 1.904l.245.313.277.196.018-.214-.018-.177-.07-.118-.33-.038-.122.038zM35 27.38l-.069-.217-.174-.176-.21.06-.172.233-.087.317.087.764.121.197.174.04h.156l.105-.078.085-.237.14-.157.088-.078-.036-.116-.192-.373L35 27.38zM33.471 58.24l-.243.038-.174.234-.07.335.034.334.366-.197.625-.452.766-.158.12.02-.278-.333-.277-.217-.226-.273-.138-.471v-.255l.067-.512.018-.272-.085-.24-.123-.156-.034-.174.157-.315-.262.058-.366.257-.312.31-.157.28-.45 1.821-.088.139-.14.178-.103.215.018.275.103.255.104.156.105.06.139-.098.105-.176.085-.235.089-.49.103-.14.192-.08.348-.079-.087-.192h.277l.07.212-.088.24-.19.098zm-1.025-6.028l.085.177h.226l.245.118.243.606.347.16.21-.218.156-.116-.123-.099-.051-.118v-.333l-.036-.137.036-.176-.14-.257.14-.02.104-.078.173-.155-.139-.218-.034-.394.07-.822-.07-.177-.122-.199-.156-.174-.157-.096-.174.036-.051.196-.036.257-.105.235-.346.333-.07.138-.035.374.018.272.087.24-.087.272-.208.373zm-3.98 9.894l-.226-.02-.121.194-.139.22-.158.077-.156.079.017.252.07.04.174.316.243.274.087.02.208-.098.261-.196.139-.376.07-.232-.017-.297-.14-.157-.313-.096zm-2.276-2.769l.069-.235.26-.118.157-.293-.21.098-.122.038-.31.079-.159.098-.241-.058-.139.194-.123.333-.191.434-.052.194.12.297.193.293.069.237.018.197.035.333v.214l.086.137.278-.195.244-.353.07-.333.05-.315-.102-.331-.14-.319.086-.313.054-.313zM4.24 74.45l-.122.197.192.273.294.905.123-.237.085-.255.123-.588-.036-.217-.241-.353-.036-.335v-.096l-.033-.235-.14.117-.157.136.035.239-.017.235-.07.214zm23.513-50.152l.21.137.12.138.505.215.016-.02-.034-.058-.052-.02-.087-.117-.174-.098-.225-.137-.087-.06-.157-.078-.035.098zm2.155-.706l-.052.373.07.058.452-.156.086-.116.017-.119.07-.471-.052-.139h-.453l-.103.098-.243.119-.123.098.279.217.052.038zm-1.72 1.47l-.505.02-.381.318-.036.51-.018.116-.016.764.052.789.051.192.123.297.12.177.193.196.191.137.173.078.348.058.07.06.155.175.123.197.07.196.12.157.21.118.243.02.19-.02.174.02.208.177.036-.157-.262-.218-.12-.117-.105-.156-.174-.646-.034-.079.105-.294.103.02.122.098.175-.08.259-.235.051-.139-.382-.292-.225-.669-.487-.373-.243-.333-.208-.391-.087-.335-.382-.355zm97.581 10.797l-3.545-.628-3.546-.626-3.544-.65-3.546-.648-3.528-.666-3.545-.668-3.546-.688-3.528-.685-3.546-.688-3.526-.706-3.546-.706-3.528-.709-3.527-.724-3.528-.746-3.528-.747-3.528-.746-3.528-.744-3.528-.767-3.528-.786-3.528-.765-3.51-.782-3.528-.809-3.51-.804-3.512-.803-3.526-.827-1.583-.37.122.43.07.47-.713-.313-.382-.02-.243.197v.451l.8.157.12.493-.087.116-.174.119-.19.176-.122.235.017.333.123.277.59.803.104.295v.393l-.191.588.21-.295.26.255.242.473.07.351-.07.119-.277.196-.07.119-.017.295.087.254.122.137.19-.058.643-.785.33-.315.35-.078.294.136.364.315.279.394.087.429-.504.67-.139.391.329.275-.016.119-.036.666.036.275.104.234.121.119.123.098.12.159.123.55-.035.567-.192.431-.364.099-.261-.197-.539-.724-.312-.197h-.349l.139.255.556.608.14.391.087.395.016.414-.069.666v.255l.018.156-.036.157-.172.194-.21.06-.207-.118-.175-.215-.294-.607-.246-.275-.223.078-.123.648-.174-.451-.156-.709-.244-.471-.486.239-.226.04-.261-.08h-.226l-.087.272.105.16.208.097.192.217.017.45-.122.216-.192.116-.12.199.086.451.157.215.225.136.28.02.26-.058.139-.118.348-.393.139-.058.156.058.225.12.087.195-.277.196-.035.179.174.275.19.724.156.177.261.08.226.134.192.179.295.51.435.413.435.628.07.156.033.197v.273l.036.138-.33.454-.105.235.035.274-.21.079-.122-.197-.085-.273-.157-.239-.243-.096-.313-.06-.591.06-.4.237-.261.45-.139.57v.647l.157.648.243.49 1.181 1.374.105.177.226.59.156.214.279.058-.192-.862-.174-.45-.226-.218-.207-.159-.244-.313-.21-.353-.12-.273-.052-.393.016-.47.123-.357.364-.176.053-.51.121-.215.139-.02.122.079.07.138.069.078.625.45.052.592-.173.764-.069.923.208.883.417.726.956 1.236.313-.233.225.058.087.117.105.098.018.116-.089.08-.103.079-.105.078-.103.353-.122.313-.365.139-.158.098h-.607l-.156.078-.139.119-.364.174-.14.099-.105.178-.052.235-.225.315-.105.373-.139.528-.295.355-.556.313-.21.255-.172.297-.158.39-.12.47.051.416.14.29-.035.827-.105.255-.346.373-.14.177-.07.217-.105.154-.208.02-.069.098.034.26.122.252.139.157.66.491.175.353.035.333-.087.392-.176.491-.12-.253-.103-.395-.14-.295h-.226l-.261.239-.121.154-.018.24.12 1.175.054.293.12.373.019.295-.208 1.08.051.314.33.745.07.353-.052.473-.156.354-.227.214-.556.04-.347.097-.33.138-.243.179-.174.232v.22l.12.214.245.275-.348.216-.26.059-.226-.137-.505-.688-.504-.51-.242-.315-.158.925-.382.843-.487.746-1.702 1.686-.643.451-.678.237-.018-.275-.103-.315-.156-.255-.366-.293-.103-.277-.09-.31-.084-.26-.28-.272-.102.116-.071.395v.079l-.174.076-.278.078-.225-.018.156-.156.105-.197.051-.219-.051-.27-.748.409-.192.277-.051.292.017.356-.053.293-.243.196.07.313.052.373-.053.26-.226-.081-.138-.239-.018-.588-.105-.313.14-.214.088-.255.017-.277-.053-.253-.277.53-.384.353-.415.136-.384-.136.348-.139.261-.214.99-1.278.14-.333-.174-.137-.487.588-.087.06-.105.02-1.58.745-.349.078.244-.353.348-.06.33-.02.226-.157v-.373l-.313-.078-.4.098-.277.1.242-.335.453-.118.904-.058.485-.293.348-.474.835-1.745.139-.157h.277l.21-.04.294-.138.47-.331.227-.416.502-1.135.295-.317-.138.335.035.196.103.157.087.196.018.374v.194l-.12.688-.141.452-.208.353-.348.078-.103.588.051 1.2.278.883.573-.353.036-.159-.018-.176-.035-.157-.016-.058.087-.078.103-.119.087-.038-.016.118.138-.176.121-.1.053-.139-.279-.802-.017-.374.138-.335.33-.35.105-.2.052-.234.087-.195.123-.058.156-.042.138-.119.157-.156.156-.116.61-.159.26-.197.208-.43-.035.627-.242.373-.314.297-.19.39-.21.296-.26.157-.088.215.348.431 1.165.885.244.058.277-.471.018-.412-.261-.98.312-.021.244-.096.21-.219.19-.311-.209-.612.175-.528.312-.53.244-.591.207-.43.313-.471.105-.431-.382-.275-.071-.372.089-.63-.09-.451-.589.215-.4.257-.433.194-.904.215.12-.235.384-.255.208-.234.192-.275v-.059l-.123-.02-.504-.47-.105-.178-.034-.35.034-.338.087-.255.14-.216.157-.175.364 1.531.33.628.452-.118-.087-.215.14-.137-.14-2.516-.052-.174-.12-.195-.123-.16-.087-.197.017-.313.157-.02.73 1.22.279-.1.312-.295.226-.373.018-.293.277.02.748.35h.172l.071-.098.12-.134.141-.199.034-.295-.07-.214-.12-.177-.158-.136-.139-.078.313-.336-.016-.272-.14-.24-.052-.272.052-.863.051-.373-.07-.628-.328-.474-.853-.842-.017.235.192.688.033.174.054 1.238-.018.57-.139.351-.33-.154-.036-.217.09-.197v-.196l-.262-.137-.192.04-.21.137-2.05 2.022-.225.351-.433 1.042-.159.297-.225.156-.418.137-1.32.216-1.13.47-.26.078-1.53 1.551-.973 1.473-.19.234-.556.532-.262.333-.104.333.243.67.643.155 1.34-.295 1.284-.53.696-.156.451.216-.625.41-.625.239-2.99.587-.92-.116-.435-.53.105-.357.607-.9.4-.863.366-.317.4-.253.312-.297.8-1.274.26-.335 1.6-1.41.223-.12.21-.037.156-.1.21-.532.346-.311.261-.512.348-.51.434-.234-.19-.789-.036-.47.052-.39.245-.374.138.177.016.47-.069.49.33-.176.14-.451.104-.47.243-.277-.051.923-.157.725-.573 1.513-.28.433-.033.273.243.18h.19l.21-.06.156-.16.103-.253.123-.393.192-.432.469-.842.312-.436.887-.764.192-.235.208-.433.172-.195h.158l.504.098.139-.08-.035-.313-.644-1.334-.033-.215.051-.55-.018-.198-.069-.177-.277-.275-.105-.194-.453-1.395-.033-.391-.036-.179-.12-.214-.07-.275.07-.333.138-.119.435-.136.174-.1-.21-.668-.4-.079-.502.137-.558.02-.225.1-.208.275-.123.353.018.315.503.883.14.391-.4.688-.26.197-.313-.04.035-.177.364-.156.018-.492-.156-.55-.174-.373-.192-.136-.173-.04-.104-.137.017-.391-.053-.257-.208-.118-.26-.038-.713-.018-.157.29-.035 1.022-.19-.038-.313-.255-.192-.411.226-.552-.261-.726-.364-.588-.47-.412-.607-.256.034-.197h.243l.244-.076.192-.139.12-.297-.66.257-1.287.767-.59.136-2.64-.803-.298-.258.036-.117.156-.02.139-.018.174-.058-1.181-.12-.295-.117-.697-.471-.99-.079-.45.099-.245-.215-.365-.494-.538-.27-1.183-.2-2.398-.766-2.068-1.177-.295-.235-.366-.883-.277-.353-1.165-.923-.346-.178-.748-.079-.261-.156-.313-.49-.139-.118-1.096-.626-.52-.71-2.329-2-.746-.454-.853-.293-.105.353.054.335.364.628.313.431.053.099-.105.234-.313.313-.104.217-.175.905-.069.118-.174.137-.051.116-.018.119.07.196-.035.137-.26.786-.209.333-.296.097-.086.198.295 1.352-.156.905-.105.901v.943l.087.981.139.903.348 1.198.103.139.417.176.175.137.14.176.764 1.433.138.491.07.883.087.315.156.197.192.118.138.157-.017.88.296 1.571.018.434-.227 2.04.017 1.04-.33 3.808.123.16.328.175.158.176-.122.179-.07.273.018.255.121.156.21.098.085.177.192.885.122 1.117v1.024l-.21 2.04.018 1.138-.053.55-.451 1.727-.105.255-.085.116-.07.275-.017.297.07.177.12-.059.679-.59.104-.02.07-.08-.036-.176-.087-.255v-.117l.036-.471-.07-.413v-.193l.226-.335.417-.098.452.038.365.136.295.259.226.39.105.49-.018.53.12.354.436.156.85.098-.033.159-.051.04-.09.118 1.01.155.504.177.347.315-1.32.078-1.322.313-.556.237-.26.058-.365-.04-.295.118-.192.333.018.277.295-.08.105.315.069.234-.036.217-.172.217-.105-.06-.192-.195-.243-.199-.243-.02v-.411l-.242-.55.139-.275-.123-.608-.382.255-.12.295.085.983v1.04l-.103 1.727.069.353.208.215.573.197.278.038.14.06.156.178.121.193.139.098.245-.098-.21-.253.036-.158.817.411.243-.056.208-.197.139-.098.174.038.243.179.382.511.261.568.295.49.504.214-.26.217-.347.1-.261-.12-.053-.333-.034-.47-.261-.176-.572-.02-.61.118-.312.548-.034.744.226.73-.244-.12-.384-.47-.277-.158.103.472.28.726.138.686.051.139.018.174-.034.337-.069.233-.105.179-.138.098-.418.04-.105.177-.016.293.016.274.054.137.085.138.105.119.087.04.034.076-.016.255v.14l.26.273.349.275.226.333-.192.452-.226-.354-.61-.706-.086-.253-.139-.02-.156.568-.313.49-.4.275-.417-.079-.192-.393-.087-.628.018-1.334.105-.666.504-1.866-.018-.59-.122-.472-.016-.411.295-.451-.47.118-.26.943-.556 4.18-.244 1.06-.312.725.051.333-.051.257-.208.431-.28.454-.19.273-.157.158.14.195.156.06.365-.08.087.04.053.098.051.06.157-.118-.036-.04-.018-.157v-.196l.036-.119.33-.214.295.02.28.194.225.275.66 1.198.349.277.433.078.364-.177.33-.236.4-.157.192.04.503.293h.176l.26-.158.538-.058.191-.195.157-.08.192.353.051.237v.216l.036.195.938.492 2.12.096.47.198.364.334.069.53.018.47.208.412 1.078 1.415.279.254.451.177h.4l.799-.215.417.078 1.095.039.295.176.191.275.487.608.208.197.487.218.487.371.452.452.365.45.225.473.192.568.12.61v1l.175.334.226.293.174.375.017.431-.069 1.16.139.94-.105.45-.174.49-.103.57.26.786.017.255-.07.275-.156.472-.069.274-.105.982v.59l.087.45.226.412.33.432.366.353 1.25.57.713-.019.244.059.486.433.817.43.434.413 1.409.35 1.25.846.33-.018.33-.139 1.323-.116 3.195-.532.748-.293 1.322-.766.764-.255.486.018 1.2.552 2.538.078 4.883 1.611.746.47.28.373.102.411.07.472.122.57.261.294.382.038 1.599-.39h.087l.364.095.176.099.085.02.556.098.174.058.226.177.696.237.748-.06.224.04.105-.02.835-.47.138-.02h1.235l.833-.177.105-.178.138-.117.487-.216h.19l2.434 1.041.192.018.435-.116h.156l.833.333.192.02.418-.078.728-.275.174-.02.261.058.47.217.26.02.505-.119.487-.255.59-.43.348-.14.799.02 2.624-.59 4.675.08.8-.452.572-.548.296-.098.451.018 1.148.295h2.38l4.155.744.867-.235.835-.724.156.018.766.158 2.155.412 2.155.411 2.154.413 2.137.392 2.155.413 4.31.803 2.154.393 2.157.395 2.155.391 2.155.394 2.154.37 2.155.394 2.155.373 2.155.375 2.277.392-.243-1.2-.713-1.355-.069-.292.59-.492.243-.313.244-.492.069-.53-.277-.744-.018-1.256-.156-.57-.418-1.099-.643-1.218-.07-.393.122-.452.366-.744.087-.726.538-3.983.54-3.967.52-3.984.539-3.967.522-3.963.538-3.946.522-3.967.539-3.944 1.042-7.89.539-3.948 1.042-7.85.54-3.926.52-3.924.521-3.909-1.945-.353zM31.403 16.29l-.886-.197v.118l-.07.394.747-.137.21-.178zm-3.998 7.578l.104-.058-.016-.139-.14-.096-.018-.06.123.04.156.136.105.02.085-.098-.016-.118-.053-.079-.052-.02-.174.079-.104-.02-.173-.177-.017-.076-.088-.139-.243-.12-.156.062.034.177.643.686zm8.185 5.259l.297.08.382-.08.138.02.121.156h.105l.036-.176v-.235l-.628-.706-.172-.432-.122-.078-.087.177-.052.216.034.117-.173.57.121.37z"/>
        </g>
    </g>
</svg>
