<svg xmlns="http://www.w3.org/2000/svg" xmlns:xlink="http://www.w3.org/1999/xlink" width="128" height="128" viewBox="0 0 128 128">
    <defs>
        <path id="a" d="M0 0h128v128H0z"/>
    </defs>
    <g fill="none" fill-rule="evenodd">
        <mask id="b" fill="#fff">
            <use xlink:href="#a"/>
        </mask>
        <use fill="#AFC7D1" fill-opacity="0" fill-rule="nonzero" xlink:href="#a"/>
        <g fill="#AFC7D1" mask="url(#b)">
            <path d="M76.26 27.358l2.717 18.103.07.11.12-.025.22-.192.26-.295 2.305-3.337.195-.108.976-.429.19-.134.07-.163.166-.805.12-.35.262-.431.594-.753 1.027-.94.12-.108.07-.162.214-.509.404-.487.071-.134.07-.135.05-.16.046-.107.143-.97.049-.162.07-.187.12-.135.835-.723.19-.086.214-.024.453.11.45.16.548.403.285.108h.194l.215-.055.238-.187.141-.163.073-.159.19-.487 1.164-2.015.238-.512.144-.538.07-.135.076-.135.095-.107.095-.11.12-.08.403-.19.144-.107.046-.104-.046-.083-.12-.187-.048-.134-.022-.19.022-.215.049-.16.26-.7.073-.322.07-.294.025-.138.07-.134.071-.055h.12l.214.134.095.138.26.214.312.16.07.107v.083l-.119.08-.19.189-.024.083-.049.107v.134l.025.132.024.108v.055l.049.027.165.187.07.055.096.052.956.27.475.242.12.082.143.077.64.107 2.05-.08.049-.131.783-.487 1.812-.132.642-.78.07-.405-.165-.135-.523-.08v-.514l.38-.242.474-.107.292-.187-.861-.913.214-.241.214-.08h.504l.214-.083.57-.511.475-.215h1.022l.482-.107.166-.217.333-.726.236-.322.548-1.157.165-.187.215-.19.263-.16 1.287-.189 1.261.564 2.237 1.693.548.242.575.108.547-.108.334-.321.236-.16.738.052.119-.134.07-.295.285-.134h.363l.26.055.453.456-.024.564-.38.541-.577.32.214.351.6 1.235.143-.052v-.35l.07-.404.144-.266.236.052.215.349-.022.297-.12.214.025.242.38.35.355-.08.404-.245.433-.132.049.242-.314.162-.12.32.071.381.244.4-.458.565.385.27 1.212.294.333.539-.022.67-.073.702.144.646.475.591h.048l-.024.163-.095.459-.263 1.531-.236 1.182-.309 1.752-.214 1.127-.095.484-.073.46-.236-.166-.31-.16-1.62-.94-1.598-.94-1.616-.946-1.621-.912-1.617-.94-1.6-.941-1.62-.943-1.592-.94-.453-.243-.312.27-.238.698-.073.374v.297l.073.35.338 1.025.07.35.025.428v.215l-.049.404-.243.753-.545 1.372-.05.162-.021.187v.16l.022.162.049.162.046.138.095.37.024.193v.215l-.07.594v.456l.046.187.048.162.19.481.049.163.022.19-.022.131-.097.215-.594 1.295-.83 1.072-.762 1.534-.266.836-.024.16v.134l.049.108.046.134v.135l-.07.322-.478 1.05-.141.19-.19.217-.358.24-.26.11-.19.131-.12.162-.094.322-.144.698-.141.325-.098.187-.165.19-.528.404-.19.107-.141.055-.144-.027-.12-.053-.094-.11-.095-.134-.095-.108-.095-.055-.12.028-.119.107-.404 1.05-.545 1.425-.672 1.669-.499 1.344-.12.187-.116.162-.19-.027-.976-.481-1.217-.622-.833-.404-.119.028-.117.162-.767 1.803-.14.35-.05.321v.187l-.046.217-.073.267-.309.784-.07.322-.025.214.095 2.043-.024.16-.095.164-.166.215-.333.349-.212.272-.214.35-.144.456-.07.27-.025.238-.049 1.213-.022.107v.297l-.167 1.29-.071.401-.12.35-.335.783-.453 1.075-.643 1.562-.095.132-.119.11-.19.024-1.645-.242-1.378-.187-1.217-.19-1.237-.189-.07-.025-.05-.027.025-.135.049-.297v-.24l-.025-.054-.095-.16-1.287-1.748-.095-.11-.098-.055-.07-.028-2.216-.429-.165.028-.12.187-.094.297-.073.646.024.352.024.27.05.186.021.215-.022.19-.073.294-.333.833v.618l.214 1.48-.022.217-.073.239-.31.674-.07.349-.095 1.105-.07.215-.239.242-.428.294-.095.134-.047.215-.048.352-.095.322-.195.406-.095.267.024.35.071.217.146.321.073.16.046.162-.046.242-.073.242-.336.591-.499.542-.19.294-.428.86-.974 1.452-.049.187-.024.193.049.294.119.322v.242l-.239 2.1-.384 1.397-.548 1.99-.618 1.183-1.093 2.045-.86 1.56-.691 1.32-.854 1.555-.025.138-.07.863-.049.267-.48 1.639-.618 2.1-.049.374.05.135.048.08.046.055.38.27.285.161.813.27.119.107.12.187.07.327-.022.215-.049.187-.214.294-.45.456-.387.325-.142.134-.165.215-.214.352-.073.266-.022.242.022.165.048.16.07.135.12.107.334.162.121.135.05.374-.05.214-.1.19-2.76 2.554-.643.916-.119.16-.141.082-.12.027h-.143l-.12-.052-.119-.085-.094-.132-.071-.162-.024-.187-.047-.297-.048-.135-.047-.135-.119-.107-.26-.025-.193.025-.574.19-.57.349-.952.753-1.122.888-2.045 1.988-.095.083-.19.107h-.1l-.094-.025-.07-.082-.074-.135-.095-.11-.12-.08-.116-.027-.477-.025-.117-.055-.073-.107-.046-.294-.049-.083-.095-.052-.095-.028-.737-.027-.212.027-.244.08-.333.215-.166.19-.119.159-.07.217-.025.19-.024.214.024.187.024.19.071.19.5.67.048.19v.267l-.098.404-.116.214-.095.187-1.5 1.43-.165.08h-.144l-.43-.27h-.19l-.24.083-.642.536-.214.107-2.547.886-1.884 1.616-.26.135-.073-.027-.07-.053-.071-.107-.144-.217-.07-.132-.12-.082-.238-.163-1.478-.7-.12-.08-.19-.163-.618-.698-.119-.107-.165-.08h-.215l-.333.08-.19.187-.095.162-.046.162-.095.619-.073.27-.095.32-.241.46-.192.214-.166.135-.974.322-.382.19-.19.159-.14.162-1.077 1.831-.165.187-.168.135-.594.16-1.573.134-.31-.052-.712-.404-.974-.35-.144-.079-.243-.217-.426-.512-.12-.107-.119-.11-.165-.08-.144-.055-.238-.052-.57.028-.334.08-.336.027-.094-.028-.334-.134-.263-.215-.095-.107-.095-.135-.333-.616-.093-.134-.12-.135-.262-.187-1.358-.729-.12-.107-.095-.135-.094-.162-.025-.19-.049-.187-.021-.888-.025-.187-.024-.187-.07-.19-.074-.159-.07-.134-.095-.11-.12-.08-.998-.484-.119-.107-.07-.138-.025-.162.049-.187.046-.135.548-.643v-.028l.024-.08v-.162l.025-.187-.05-.214-.048-.162-.095-.162-.095-.11-.26-.215-.504-.214-.285.027-.738.322-.284.027-2.12-.349-.383-.135-.19-.187-.022-.192v-.214l-.073-.16-.07-.162-.12-.135-.238-.214-.884-.671h-.214l-.12.08-.094.082-.07-.055-.57-.674-.285-.242-.214-.107-.215-.08-1.051-.242-.239-.11-.141-.19-.19-.508-.548-1.102-.048-.187-.022-.19-.239-.35-.38-.431-1.86-1.531-.07-.135-.095-.16-.12-.352-.284-1.105-.07-.242-.144-.214-.239-.35-.165-.159-.17-.135-1.142-.646-.144-.162-.046-.187.022-.11.238-.619.049-.162v-.132l-.19-.431-.168-.187-.095-.108-1.573-1.13-.214-.214-.168-.297-.214-.487-.165-.294-2.31-2.664-.19-.294-.05-.163v-.294l.05-.082.07-.108.38-.456.168-.267.046-.162.024-.137v-.187l-.119-.594v-.187l.024-.162.05-.108.116-.08.31-.107.099-.107.049-.135-.025-.187-.024-.19-.046-.186-.076-.377-.048-.808v-.46l-.071-.349-.144-.401-.618-1.02-.12-.272-.021-.08-.025-.135-.024-.943-.049-.401-.021-.215.021.025.952.297 1.098-.322 2.004-1.24 1.83-.508.426-.273.268-.698.095-.643.095-3.228.19-.836.285-.374 1.236-.028.524-.217.314-.646-.025-.374-.148-.456-.166-.432-.309-.594-.024-.374.095-.542-.212-.857-.287-.564-.285-.432-.26-.59-.05-.837.358-.508.427-.432.167-.888.237-.674.073-.349-.05-1.476.24-1.188.528-1.477.64-1.402.689-.803.596-.11.526.27.429.321.832.215.404.38.31.51.19.54.119.162.094.187.076.242-.051.187-.095.134-.12.08-.048.107v.484l-.095.242-.022.162.236.377.504.162.5-.404.403-.673.214-.564.071-.885.073-.432.236-.242.334.08.499.431.314.083.453-.272-.073-.402-.31-.514-.26-.564-.049-1.29-.146-.618-.355-.217-.168-.052-.214-.138-.215-.214-.119-.215-.19-.429v-.134l.144-.028 1.166-.805.146-.38-.049-.808-.29-1.287-.021-.456.116-.594.957-1.776.214-1.265.475-.267.594-.135.523-.324.195.214.19-.214.12-.083.167.028.236.135.215-.484-.047-1.397.117-.67 1.575-2.34.356-.3 1.046-.187.285.242.31.566.428.591.55.322.572-.215.738-1.047.474-.325.504-.162.5-.27.474-.349.333-.349.57-.995.382-.481.908-.594.285-.621.404-1.29.643-1.13 2.38-2.959 1.527-1.424-.024-.349.143-1.026v-.186l-.095-.38v-.16l.07-.162.359-.456.022-.698-.166-.457-.309-.352-.48-.401-.19-.407.142-.347.482-.483.07-.377v-.726l.025-.377.095-.431.116-.352.358-.723.025-.297-.168-.35-.19-.401-.12-.352.025-.564h.263l.355.135.31-.107.094-.38-.07-.318-.144-.273-.07-.242.07-.643.168-.46.12-.538-.05-.803-.26-1.454-.024-.702.141-.912.333-1.345.12-.674-.025-1.292.095-.858.31-1.482.19-.321.552-.726.12-.242.07-1.158.07-.214-.119-.46-.285-.777-.022-.163-.024-.376-.049-.16-.14-.107-.174-.055h-.236l-.095-.806.285-1.482v-.833l-.168-.484-.309-.594-.735-1.075-.976-1.05-.285-.564.144-.753.38-.456.593-.35.619-.162.452.19.955-1.078.357-.187v.107h.022v.053l.453 2.826.429 2.824.903 5.647.455 2.824.453 2.827.428 2.823.45 2.852.38 2.45.404 2.447.767 4.918 3.213-.643 3.192-.646 3.213-.671 3.196-.646 3.214-.674 3.189-.67 3.191-.672z"/>
        </g>
    </g>
</svg>
