<svg xmlns="http://www.w3.org/2000/svg" xmlns:xlink="http://www.w3.org/1999/xlink" width="128" height="128" viewBox="0 0 128 128">
    <defs>
        <path id="a" d="M0 0h128v128H0z"/>
    </defs>
    <g fill="none" fill-rule="evenodd">
        <mask id="b" fill="#fff">
            <use xlink:href="#a"/>
        </mask>
        <use fill="#AFC7D1" fill-opacity="0" fill-rule="nonzero" xlink:href="#a"/>
        <g fill="#AFC7D1" mask="url(#b)">
            <path d="M125.768 69.15l-.084 3.172-.102 3.156-.086 3.174-.102 3.174L125.29 85l-.085 3.178-.101 3.172-.086 3.194-.102 3.174-.086 3.174-.1 3.193-.086 3.176-.103 3.194-.085 3.194-.204 6.367-2.761-.114-2.758-.116-2.76-.118-2.775-.134-2.76-.133-2.76-.136-2.759-.153-2.76-.134-2.758-.153-2.761-.156-2.758-.173-2.76-.153-2.777-.175-2.76-.171-2.759-.173-2.76-.193-2.76-.175-2.757-.193-2.762-.19-2.756-.213-2.763-.19-2.758-.213-2.758-.21-2.76-.233-2.759-.212-2.744-.228-2.756-.234-2.762-.23-2.757-.23-2.762-.25-2.758-.25-2.76-.25-2.181-.212-2.215-.212-2.18-.213-2.213-.212-2.18-.21-2.198-.213-2.198-.23-2.197-.21-2.197-.23-2.198-.233-2.195-.232-2.2-.25-2.196-.23-2.182-.251-2.196-.228-2.197-.252.136-1.599.136-1.575.136-1.597.153-1.579.273-3.174.153-1.595.136-1.579.138-1.575.137-1.597.136-1.58.153-1.578.136-1.595.272-3.156.153-1.58.68-7.905.36-3.943.358-3.945.68-7.89.358-3.94.343-3.928.357-3.943.679-7.85.358-3.925.342-3.923.34-3.906.358-3.925.34-3.906.067-.749.138-1.54.068-.753.068-.767.273-3.02.068-.77.068-.75.068-.77.068-.75.067-.77.07-.749.068-.77.035-.404.85.094 1.805.213 1.823.193 1.823.212 1.823.19 1.823.195 1.805.191 1.823.193 1.821.193 1.823.192 1.823.173 1.823.193 1.821.171 1.806.193 1.823.175 1.823.171 1.823.173 1.821.175 1.823.171 1.821.173 1.823.158 1.823.17 1.823.156 1.823.153 1.823.173 1.823.154 1.823.153 1.82.136 1.824.151 1.823.154 1.823.135 1.823.158 1.823.131 1.823.134 1.82.136 1.822.136 1.823.135 1.823.134 1.823.134 1.84.116 1.821.133 1.806.116 1.838.134 1.823.118 1.823.114 1.823.114 1.823.116 1.823.095 1.839.12 1.823.114 1.823.094 1.823.097 1.823.116 1.822.098 1.84.096 1.822.095 1.823.076 1.821.097 1.823.096 1.823.077 1.839.096 1.823.077 1.823.076 1.822.077 1.822.077-.086 3.136-.1 3.137-.171 6.291-.103 3.137-.085 3.154-.101 3.154-.17 6.291-.102 3.157-.085 3.156-.103 3.154-.085 3.176-.101 3.154-.087 3.155z"/>
        </g>
    </g>
</svg>
