<svg width="28" height="29" viewBox="0 0 28 29" fill="none" xmlns="http://www.w3.org/2000/svg">
<path fill-rule="evenodd" clip-rule="evenodd" d="M7.68496 8.18491L6.6074 15.4773L16.1301 24.9999L24.5 16.63L14.9773 7.10734L7.68496 8.18491ZM12.786 13.4451C13.5394 12.6918 13.5394 11.4703 12.786 10.717C12.0327 9.96365 10.8113 9.96365 10.0579 10.717C9.30456 11.4703 9.30456 12.6918 10.0579 13.4451C10.8113 14.1985 12.0327 14.1985 12.786 13.4451Z" fill="#376EEE"/>
<path d="M12.0861 8.21835C12.0861 5.90898 10.214 4.03687 7.90462 4.03687C5.59526 4.03687 3.72314 5.90898 3.72314 8.21835C3.72314 10.8821 5.94294 12.0471 7.05284 12.2966L9.375 12.25L9.81468 12.103C11.7376 11.0318 12.1119 9.05292 12.0861 8.21835ZM12.0861 8.21835L11.9375 7.03125" stroke="#376EEE"/>
</svg>
