<svg width="240" height="161" viewBox="0 0 240 161" fill="none" xmlns="http://www.w3.org/2000/svg">
<rect x="22.8926" y="20.3853" width="110.449" height="139.902" rx="3.50263" fill="#7A84F0" stroke="#1E1E1C" stroke-width="0.75" stroke-linecap="round" stroke-linejoin="round"/>
<rect x="32.4644" y="29.9576" width="92.0405" height="119.285" rx="3.50263" fill="white" stroke="#1E1E1C" stroke-width="0.75" stroke-linecap="round" stroke-linejoin="round"/>
<path d="M105.364 59.0771C109.942 59.0771 113.653 55.3659 113.653 50.7878C113.653 46.2097 109.942 42.4984 105.364 42.4984C100.785 42.4984 97.0742 46.2097 97.0742 50.7878C97.0742 55.3659 100.785 59.0771 105.364 59.0771Z" fill="#32E476" stroke="#1E1E1C" stroke-width="0.75" stroke-linecap="round" stroke-linejoin="round"/>
<path d="M104.441 51.8714L108.592 47.4399C108.847 47.1683 109.26 47.1683 109.515 47.4399C109.769 47.7115 109.769 48.1524 109.515 48.4246L104.902 53.3482C104.648 53.6198 104.235 53.6198 103.98 53.3482L101.213 50.3941C101.09 50.2606 101.021 50.0846 101.021 49.9017C101.021 49.7188 101.09 49.5428 101.213 49.4093C101.467 49.1377 101.88 49.1377 102.135 49.4093L104.441 51.8714Z" fill="white"/>
<path d="M105.364 83.6769C109.942 83.6769 113.653 79.9656 113.653 75.3875C113.653 70.8094 109.942 67.0981 105.364 67.0981C100.785 67.0981 97.0742 70.8094 97.0742 75.3875C97.0742 79.9656 100.785 83.6769 105.364 83.6769Z" fill="#32E476" stroke="#1E1E1C" stroke-width="0.75" stroke-linecap="round" stroke-linejoin="round"/>
<path d="M104.441 76.4689L108.592 72.0373C108.847 71.7657 109.26 71.7657 109.515 72.0373C109.769 72.3089 109.769 72.7498 109.515 73.022L104.902 77.9456C104.648 78.2172 104.235 78.2172 103.98 77.9456L101.213 74.9915C101.09 74.858 101.021 74.682 101.021 74.4991C101.021 74.3162 101.09 74.1402 101.213 74.0068C101.467 73.7352 101.88 73.7352 102.135 74.0068L104.441 76.4689Z" fill="white"/>
<path d="M105.364 108.274C109.942 108.274 113.653 104.563 113.653 99.9848C113.653 95.4067 109.942 91.6954 105.364 91.6954C100.785 91.6954 97.0742 95.4067 97.0742 99.9848C97.0742 104.563 100.785 108.274 105.364 108.274Z" fill="#32E476" stroke="#1E1E1C" stroke-width="0.75" stroke-linecap="round" stroke-linejoin="round"/>
<path d="M104.441 101.068L108.592 96.6364C108.847 96.3648 109.26 96.3648 109.515 96.6364C109.769 96.908 109.769 97.3489 109.515 97.6212L104.902 102.545C104.648 102.816 104.235 102.816 103.98 102.545L101.213 99.5906C101.09 99.4571 101.021 99.2811 101.021 99.0982C101.021 98.9154 101.09 98.7393 101.213 98.6059C101.467 98.3343 101.88 98.3343 102.135 98.6059L104.441 101.068Z" fill="white"/>
<path d="M105.364 132.872C109.942 132.872 113.653 129.161 113.653 124.583C113.653 120.005 109.942 116.294 105.364 116.294C100.785 116.294 97.0742 120.005 97.0742 124.583C97.0742 129.161 100.785 132.872 105.364 132.872Z" fill="#32E476" stroke="#1E1E1C" stroke-width="0.75" stroke-linecap="round" stroke-linejoin="round"/>
<path d="M104.441 125.667L108.592 121.235C108.847 120.963 109.26 120.963 109.515 121.235C109.769 121.507 109.769 121.948 109.515 122.22L104.902 127.143C104.648 127.415 104.235 127.415 103.98 127.143L101.213 124.189C101.09 124.056 101.021 123.88 101.021 123.697C101.021 123.514 101.09 123.338 101.213 123.205C101.467 122.933 101.88 122.933 102.135 123.205L104.441 125.667Z" fill="white"/>
<rect x="44.9463" y="48.9139" width="45.7125" height="3.60889" rx="1.80444" fill="#DCDCDA"/>
<rect x="44.9463" y="73.3749" width="45.7125" height="3.60889" rx="1.80444" fill="#DCDCDA"/>
<rect x="44.9463" y="99.0366" width="45.7125" height="3.60889" rx="1.80444" fill="#DCDCDA"/>
<rect x="44.9463" y="124.3" width="45.7125" height="3.60889" rx="1.80444" fill="#DCDCDA"/>
<path fill-rule="evenodd" clip-rule="evenodd" d="M89.809 23.1544H93.3501C95.2846 23.1544 96.8528 24.7226 96.8528 26.657V31.098C96.8528 33.0324 95.2846 34.6006 93.3501 34.6006H62.4948C60.5604 34.6006 58.9922 33.0324 58.9922 31.098V26.657C58.9922 24.7226 60.5604 23.1544 62.4948 23.1544H66.9166C66.9167 16.8328 72.0413 11.7083 78.3628 11.7083C84.6844 11.7083 89.809 16.8328 89.809 23.1544Z" fill="#DAEE32"/>
<path d="M89.809 23.1544L89.434 23.1544C89.434 23.3615 89.6019 23.5294 89.809 23.5294V23.1544ZM66.9166 23.1544V23.5294C67.1237 23.5294 67.2916 23.3615 67.2916 23.1544L66.9166 23.1544ZM89.809 23.5294H93.3501V22.7794H89.809V23.5294ZM93.3501 23.5294C95.0775 23.5294 96.4778 24.9297 96.4778 26.657H97.2278C97.2278 24.5155 95.4917 22.7794 93.3501 22.7794V23.5294ZM96.4778 26.657V31.098H97.2278V26.657H96.4778ZM96.4778 31.098C96.4778 32.8253 95.0775 34.2256 93.3501 34.2256V34.9756C95.4917 34.9756 97.2278 33.2395 97.2278 31.098H96.4778ZM93.3501 34.2256H62.4948V34.9756H93.3501V34.2256ZM62.4948 34.2256C60.7675 34.2256 59.3672 32.8253 59.3672 31.098H58.6172C58.6172 33.2395 60.3533 34.9756 62.4948 34.9756V34.2256ZM59.3672 31.098V26.657H58.6172V31.098H59.3672ZM59.3672 26.657C59.3672 24.9297 60.7675 23.5294 62.4948 23.5294V22.7794C60.3533 22.7794 58.6172 24.5154 58.6172 26.657H59.3672ZM62.4948 23.5294H66.9166V22.7794H62.4948V23.5294ZM67.2916 23.1544C67.2917 17.04 72.2484 12.0833 78.3628 12.0833V11.3333C71.8342 11.3333 66.5417 16.6257 66.5416 23.1544L67.2916 23.1544ZM78.3628 12.0833C84.4773 12.0833 89.434 17.04 89.434 23.1544L90.184 23.1544C90.184 16.6257 84.8915 11.3333 78.3628 11.3333V12.0833Z" fill="#1E1E1C"/>
<path d="M15.7835 154.486L40.2604 97.3366L27.1966 91.7431L2.7198 148.893L15.7835 154.486Z" fill="#DAEE32" stroke="#1E1E1C" stroke-width="0.75" stroke-linecap="round" stroke-linejoin="round"/>
<path d="M13.97 158.72L15.7828 154.487L2.71909 148.894L0.906214 153.127C0.405816 154.295 0.974572 155.66 2.17671 156.175L10.8866 159.904C12.0889 160.419 13.4692 159.889 13.97 158.72Z" fill="#1E1E1C" stroke="#1E1E1C" stroke-width="0.75" stroke-linecap="round" stroke-linejoin="round"/>
<path d="M15.792 154.495L40.2733 97.3351L33.6234 94.487L9.14215 151.647L15.792 154.495Z" fill="#C4D62D" stroke="#1E1E1C" stroke-width="0.75" stroke-linecap="round" stroke-linejoin="round"/>
<path d="M40.2611 97.3349L39.168 81.8374L27.1973 91.7416L40.2611 97.3349Z" fill="white" stroke="#1E1E1C" stroke-width="0.75" stroke-linecap="round" stroke-linejoin="round"/>
<path d="M39.7154 89.5861L39.1677 81.8378L33.1824 86.7899L39.7154 89.5861Z" fill="#1E1E1C" stroke="#1E1E1C" stroke-width="0.75" stroke-linecap="round" stroke-linejoin="round"/>
<path fill-rule="evenodd" clip-rule="evenodd" d="M134.431 139.377C131.669 139.377 129.431 141.616 129.431 144.377V155.28C129.431 158.042 131.669 160.28 134.431 160.28H136.068C136.088 160.281 136.108 160.281 136.127 160.281H221.349C222.454 160.281 223.349 159.386 223.349 158.281V157.636C223.349 156.531 222.454 155.636 221.349 155.636H143.506C143.514 155.518 143.518 155.4 143.518 155.28V144.377C143.518 144.258 143.514 144.14 143.506 144.023H221.349C222.454 144.023 223.349 143.127 223.349 142.023V141.377C223.349 140.273 222.454 139.377 221.349 139.377H138.569C138.552 139.377 138.535 139.377 138.518 139.377H134.431Z" fill="#32E476"/>
<path d="M136.068 160.28L136.079 159.905H136.068V160.28ZM143.506 155.636L143.132 155.61C143.124 155.713 143.161 155.815 143.232 155.892C143.302 155.968 143.402 156.011 143.506 156.011V155.636ZM143.506 144.023V143.648C143.402 143.648 143.303 143.691 143.232 143.767C143.161 143.843 143.125 143.945 143.132 144.049L143.506 144.023ZM138.569 139.377L138.565 139.752H138.569V139.377ZM129.806 144.377C129.806 141.823 131.876 139.752 134.431 139.752V139.002C131.462 139.002 129.056 141.409 129.056 144.377H129.806ZM129.806 155.28V144.377H129.056V155.28H129.806ZM134.431 159.905C131.876 159.905 129.806 157.834 129.806 155.28H129.056C129.056 158.249 131.462 160.655 134.431 160.655V159.905ZM136.068 159.905H134.431V160.655H136.068V159.905ZM136.057 160.655C136.081 160.656 136.104 160.656 136.127 160.656V159.906C136.111 159.906 136.095 159.906 136.079 159.905L136.057 160.655ZM136.127 160.656H221.349V159.906H136.127V160.656ZM221.349 160.656C222.661 160.656 223.724 159.593 223.724 158.281H222.974C222.974 159.178 222.247 159.906 221.349 159.906V160.656ZM223.724 158.281V157.636H222.974V158.281H223.724ZM223.724 157.636C223.724 156.324 222.661 155.261 221.349 155.261V156.011C222.247 156.011 222.974 156.738 222.974 157.636H223.724ZM221.349 155.261H143.506V156.011H221.349V155.261ZM143.143 155.28C143.143 155.391 143.139 155.501 143.132 155.61L143.88 155.662C143.889 155.536 143.893 155.408 143.893 155.28H143.143ZM143.143 144.377V155.28H143.893V144.377H143.143ZM143.132 144.049C143.139 144.157 143.143 144.267 143.143 144.377H143.893C143.893 144.249 143.889 144.122 143.88 143.996L143.132 144.049ZM143.506 144.398H221.349V143.648H143.506V144.398ZM221.349 144.398C222.661 144.398 223.724 143.334 223.724 142.023H222.974C222.974 142.92 222.247 143.648 221.349 143.648V144.398ZM223.724 142.023V141.377H222.974V142.023H223.724ZM223.724 141.377C223.724 140.066 222.661 139.002 221.349 139.002V139.752C222.247 139.752 222.974 140.48 222.974 141.377H223.724ZM221.349 139.002H138.569V139.752H221.349V139.002ZM138.518 139.752C138.534 139.752 138.55 139.752 138.565 139.752L138.573 139.002C138.555 139.002 138.536 139.002 138.518 139.002V139.752ZM134.431 139.752H138.518V139.002H134.431V139.752Z" fill="#1E1E1C"/>
<rect x="137.649" y="143.013" width="83.3519" height="13.6323" rx="2" fill="white" stroke="#1E1E1C" stroke-width="0.75" stroke-linecap="round" stroke-linejoin="round"/>
<path d="M138.236 147.557H221.001" stroke="#1E1E1C" stroke-width="0.75" stroke-linecap="round" stroke-linejoin="round"/>
<path d="M138.236 152.101H221.001" stroke="#1E1E1C" stroke-width="0.75" stroke-linecap="round" stroke-linejoin="round"/>
<path fill-rule="evenodd" clip-rule="evenodd" d="M149.986 118.246C147.224 118.246 144.986 120.485 144.986 123.246V134.377C144.986 137.139 147.224 139.377 149.986 139.377H151.648C151.66 139.378 151.671 139.378 151.683 139.378H236.904C238.009 139.378 238.904 138.482 238.904 137.378V136.682C238.904 135.577 238.009 134.682 236.904 134.682H159.064C159.07 134.581 159.073 134.48 159.073 134.377V123.246C159.073 123.144 159.07 123.043 159.064 122.942H236.904C238.009 122.942 238.904 122.047 238.904 120.942V120.246C238.904 119.142 238.009 118.246 236.904 118.246H154.12C154.105 118.246 154.089 118.246 154.073 118.246H149.986Z" fill="#7A84F0"/>
<path d="M151.648 139.377L151.654 139.002H151.648V139.377ZM159.064 134.682L158.69 134.659C158.684 134.763 158.721 134.864 158.791 134.939C158.862 135.014 158.961 135.057 159.064 135.057V134.682ZM159.064 122.942V122.567C158.961 122.567 158.862 122.61 158.791 122.685C158.721 122.76 158.684 122.861 158.69 122.965L159.064 122.942ZM154.12 118.246L154.117 118.621H154.12V118.246ZM145.361 123.246C145.361 120.692 147.432 118.621 149.986 118.621V117.871C147.017 117.871 144.611 120.277 144.611 123.246H145.361ZM145.361 134.377V123.246H144.611V134.377H145.361ZM149.986 139.002C147.432 139.002 145.361 136.932 145.361 134.377H144.611C144.611 137.346 147.017 139.752 149.986 139.752V139.002ZM151.648 139.002H149.986V139.752H151.648V139.002ZM151.642 139.752C151.655 139.753 151.669 139.753 151.683 139.753V139.003C151.673 139.003 151.664 139.003 151.654 139.003L151.642 139.752ZM151.683 139.753H236.904V139.003H151.683V139.753ZM236.904 139.753C238.216 139.753 239.279 138.689 239.279 137.378H238.529C238.529 138.275 237.802 139.003 236.904 139.003V139.753ZM239.279 137.378V136.682H238.529V137.378H239.279ZM239.279 136.682C239.279 135.37 238.216 134.307 236.904 134.307V135.057C237.802 135.057 238.529 135.784 238.529 136.682H239.279ZM236.904 134.307H159.064V135.057H236.904V134.307ZM158.698 134.377C158.698 134.472 158.696 134.566 158.69 134.659L159.439 134.704C159.445 134.596 159.448 134.487 159.448 134.377H158.698ZM158.698 123.246V134.377H159.448V123.246H158.698ZM158.69 122.965C158.696 123.058 158.698 123.151 158.698 123.246H159.448C159.448 123.136 159.445 123.028 159.439 122.92L158.69 122.965ZM159.064 123.317H236.904V122.567H159.064V123.317ZM236.904 123.317C238.216 123.317 239.279 122.254 239.279 120.942H238.529C238.529 121.84 237.802 122.567 236.904 122.567V123.317ZM239.279 120.942V120.246H238.529V120.942H239.279ZM239.279 120.246C239.279 118.935 238.216 117.871 236.904 117.871V118.621C237.802 118.621 238.529 119.349 238.529 120.246H239.279ZM236.904 117.871H154.12V118.621H236.904V117.871ZM154.073 118.621C154.088 118.621 154.102 118.621 154.117 118.621L154.124 117.871C154.107 117.871 154.09 117.871 154.073 117.871V118.621ZM149.986 118.621H154.073V117.871H149.986V118.621Z" fill="#1E1E1C"/>
<rect x="153.204" y="121.921" width="83.3519" height="13.7814" rx="2" fill="white" stroke="#1E1E1C" stroke-width="0.75" stroke-linecap="round" stroke-linejoin="round"/>
<path d="M153.791 126.515H236.556" stroke="#1E1E1C" stroke-width="0.75" stroke-linecap="round" stroke-linejoin="round"/>
<path d="M153.791 131.108H236.556" stroke="#1E1E1C" stroke-width="0.75" stroke-linecap="round" stroke-linejoin="round"/>
<path fill-rule="evenodd" clip-rule="evenodd" d="M124.745 96.2343C121.983 96.2343 119.745 98.4728 119.745 101.234V113.246C119.745 116.008 121.983 118.246 124.745 118.246H126.413C126.422 118.246 126.431 118.246 126.44 118.246H211.662C212.767 118.246 213.662 117.351 213.662 116.246V115.355C213.662 114.25 212.767 113.355 211.662 113.355H133.831C133.832 113.319 133.832 113.283 133.832 113.246V101.234C133.832 101.198 133.832 101.162 133.831 101.126H211.662C212.766 101.126 213.662 100.231 213.662 99.126V98.2344C213.662 97.1298 212.766 96.2344 211.662 96.2344H128.873C128.86 96.2343 128.846 96.2343 128.832 96.2343H124.745Z" fill="#DAEE32"/>
<path d="M126.413 118.246L126.418 117.871H126.413V118.246ZM133.831 113.355L133.456 113.347C133.454 113.448 133.493 113.545 133.563 113.617C133.634 113.689 133.73 113.73 133.831 113.73V113.355ZM133.831 101.126V100.751C133.73 100.751 133.634 100.792 133.563 100.864C133.493 100.936 133.454 101.033 133.456 101.134L133.831 101.126ZM128.873 96.2344L128.87 96.6094H128.873V96.2344ZM120.12 101.234C120.12 98.6799 122.19 96.6093 124.745 96.6093V95.8593C121.776 95.8593 119.37 98.2657 119.37 101.234H120.12ZM120.12 113.246V101.234H119.37V113.246H120.12ZM124.745 117.871C122.19 117.871 120.12 115.801 120.12 113.246H119.37C119.37 116.215 121.776 118.621 124.745 118.621V117.871ZM126.413 117.871H124.745V118.621H126.413V117.871ZM126.408 118.621C126.419 118.621 126.43 118.621 126.44 118.621V117.871C126.433 117.871 126.426 117.871 126.418 117.871L126.408 118.621ZM126.44 118.621H211.662V117.871H126.44V118.621ZM211.662 118.621C212.974 118.621 214.037 117.558 214.037 116.246H213.287C213.287 117.144 212.56 117.871 211.662 117.871V118.621ZM214.037 116.246V115.355H213.287V116.246H214.037ZM214.037 115.355C214.037 114.043 212.974 112.98 211.662 112.98V113.73C212.56 113.73 213.287 114.457 213.287 115.355H214.037ZM211.662 112.98H133.831V113.73H211.662V112.98ZM133.457 113.246C133.457 113.28 133.457 113.313 133.456 113.347L134.206 113.363C134.207 113.324 134.207 113.285 134.207 113.246H133.457ZM133.457 101.234V113.246H134.207V101.234H133.457ZM133.456 101.134C133.457 101.167 133.457 101.201 133.457 101.234H134.207C134.207 101.195 134.207 101.157 134.206 101.118L133.456 101.134ZM133.831 101.501H211.662V100.751H133.831V101.501ZM211.662 101.501C212.974 101.501 214.037 100.438 214.037 99.126H213.287C213.287 100.023 212.559 100.751 211.662 100.751V101.501ZM214.037 99.126V98.2344H213.287V99.126H214.037ZM214.037 98.2344C214.037 96.9227 212.974 95.8594 211.662 95.8594V96.6094C212.559 96.6094 213.287 97.337 213.287 98.2344H214.037ZM211.662 95.8594H128.873V96.6094H211.662V95.8594ZM128.832 96.6093C128.845 96.6093 128.858 96.6093 128.87 96.6094L128.876 95.8594C128.862 95.8593 128.847 95.8593 128.832 95.8593V96.6093ZM124.745 96.6093H128.832V95.8593H124.745V96.6093Z" fill="#1E1E1C"/>
<rect x="127.962" y="100.062" width="83.3519" height="14.3556" rx="2" fill="white" stroke="#1E1E1C" stroke-width="0.75" stroke-linecap="round" stroke-linejoin="round"/>
<path d="M128.55 104.848H211.315" stroke="#1E1E1C" stroke-width="0.75" stroke-linecap="round" stroke-linejoin="round"/>
<path d="M128.55 109.632H211.315" stroke="#1E1E1C" stroke-width="0.75" stroke-linecap="round" stroke-linejoin="round"/>
<ellipse cx="167.414" cy="26.4887" rx="6.5162" ry="8.88573" transform="rotate(-14.4865 167.414 26.4887)" fill="#32E476" stroke="#1E1E1C" stroke-width="0.75" stroke-linecap="round" stroke-linejoin="round"/>
<ellipse cx="164.181" cy="46.9041" rx="6.96847" ry="9.50246" transform="rotate(-22.7173 164.181 46.9041)" fill="#32E476" stroke="#1E1E1C" stroke-width="0.75" stroke-linecap="round" stroke-linejoin="round"/>
<ellipse cx="191.374" cy="37.5544" rx="9.11143" ry="12.4247" transform="rotate(31.5854 191.374 37.5544)" fill="#32E476" stroke="#1E1E1C" stroke-width="0.75" stroke-linecap="round" stroke-linejoin="round"/>
<ellipse cx="182.116" cy="14.1683" rx="8.82394" ry="12.0326" transform="rotate(15 182.116 14.1683)" fill="#32E476" stroke="#1E1E1C" stroke-width="0.75" stroke-linecap="round" stroke-linejoin="round"/>
<path d="M192.014 34.6228C187.596 40.9732 178.926 58.1469 179.589 76.0384" stroke="#1E1E1C" stroke-width="0.75" stroke-linecap="round" stroke-linejoin="round"/>
<path d="M166.61 24.7605C171.046 48.3683 179.345 61.1366 188.507 69.5286" stroke="#1E1E1C" stroke-width="0.75" stroke-linecap="round" stroke-linejoin="round"/>
<path d="M162.944 43.3298C169.662 62.9793 178.342 72.8765 187.22 78.9227" stroke="#1E1E1C" stroke-width="0.75" stroke-linecap="round" stroke-linejoin="round"/>
<path d="M182.903 10.2019C176.276 25.1115 178.927 69.3434 179.589 87.2349" stroke="#1E1E1C" stroke-width="0.75" stroke-linecap="round" stroke-linejoin="round"/>
<path d="M156.136 53.1182H201.295L198.069 96.224H159.362L156.136 53.1182Z" fill="#7A84F0" stroke="#1E1E1C" stroke-width="0.75" stroke-linecap="round" stroke-linejoin="round"/>
<path d="M203.347 85.9606H154.083L157.162 96.2239H200.268L203.347 85.9606Z" fill="white" stroke="#1E1E1C" stroke-width="0.75" stroke-linecap="round" stroke-linejoin="round"/>
<circle cx="78.3626" cy="20.5131" r="2.64143" fill="#7996F9" stroke="#1E1E1C" stroke-width="0.75" stroke-linecap="round" stroke-linejoin="round"/>
</svg>
