<svg width="247" height="150" viewBox="0 0 247 150" fill="none" xmlns="http://www.w3.org/2000/svg">
<rect x="30.5627" y="33.4336" width="169.056" height="108.052" rx="5.44617" fill="#7885EF" stroke="black" stroke-width="0.75"/>
<rect x="38.7383" y="40.9818" width="153.333" height="93.5867" fill="#F9F9F7" stroke="black" stroke-width="0.75"/>
<path d="M19.8711 139.091H210.939V142.755C210.939 146.222 208.128 149.033 204.661 149.033H26.1489C22.6818 149.033 19.8711 146.222 19.8711 142.755V139.091Z" fill="#32E476" stroke="black" stroke-width="0.75"/>
<path d="M124.117 140.35C123.94 141.353 123.063 142.115 122.009 142.115H108.802C107.748 142.115 106.871 141.353 106.694 140.35H124.117Z" fill="#30E376" stroke="black" stroke-width="0.75"/>
<path d="M0 149.409H229.553" stroke="black" stroke-width="0.75"/>
<path d="M233.642 149.409H246.22" stroke="black" stroke-width="0.75"/>
<rect x="44.3997" y="46.0144" width="42.016" height="42.6449" stroke="black" stroke-width="0.75"/>
<rect x="44.3997" y="93.1812" width="42.016" height="35.7269" stroke="black" stroke-width="0.75"/>
<rect x="91.5679" y="46.0144" width="95.4735" height="57.7388" stroke="black" stroke-width="0.75"/>
<path d="M151.536 59.1606L151.704 58.8252C151.575 58.7608 151.421 58.7759 151.307 58.8641L151.536 59.1606ZM191.743 79.2642L191.576 79.5996C191.712 79.6678 191.876 79.6466 191.991 79.546L191.743 79.2642ZM245.333 32.5773C245.346 32.3707 245.19 32.1922 244.983 32.1788L241.615 31.9596C241.408 31.9461 241.23 32.1027 241.216 32.3094C241.203 32.5161 241.36 32.6945 241.566 32.708L244.56 32.9028L244.365 35.8965C244.352 36.1032 244.508 36.2816 244.715 36.2951C244.922 36.3085 245.1 36.1519 245.114 35.9452L245.333 32.5773ZM121.61 82.8127L151.766 59.4571L151.307 58.8641L121.151 82.2197L121.61 82.8127ZM151.368 59.496L191.576 79.5996L191.911 78.9288L151.704 58.8252L151.368 59.496ZM191.991 79.546L245.206 32.8348L244.711 32.2712L191.496 78.9823L191.991 79.546Z" fill="#30E376"/>
<circle cx="209.742" cy="98.1525" r="12.5177" fill="#DAEE32" stroke="black" stroke-width="0.75"/>
<circle cx="209.742" cy="98.1511" r="10.482" stroke="black" stroke-width="0.75"/>
<rect x="205.793" y="94.0812" width="2.30353" height="11.1248" transform="rotate(-30 205.793 94.0812)" fill="#DBED30" stroke="black" stroke-width="0.75"/>
</svg>
