<?xml version="1.0" encoding="UTF-8"?>
<svg width="162px" height="68px" viewBox="0 0 162 68" version="1.1" xmlns="http://www.w3.org/2000/svg" xmlns:xlink="http://www.w3.org/1999/xlink">
    <!-- Generator: Sketch 61.1 (89650) - https://sketch.com -->
    <title>Group 10</title>
    <desc>Created with Sketch.</desc>
    <defs>
        <rect id="path-1" x="0" y="0" width="162.608696" height="68"></rect>
    </defs>
    <g id="Final" stroke="none" stroke-width="1" fill="none" fill-rule="evenodd">
        <g id="Flow-1-Create-a-campaign---Empty-State" transform="translate(-1189.000000, -120.000000)">
            <g id="Group-10" transform="translate(1189.000000, 120.000000)">
                <mask id="mask-2" fill="white">
                    <use xlink:href="#path-1"></use>
                </mask>
                <g id="Mask"></g>
                <g mask="url(#mask-2)">
                    <g transform="translate(-4.139130, -10.643478)">
                        <g id="Group-11" transform="translate(36.479292, 61.792950) rotate(14.000000) translate(-36.479292, -61.792950) translate(3.479292, 43.792950)">
                            <path d="M29.0561353,10.0975421 C29.0561353,10.0975421 23.6062378,17.4934677 15.453297,13.9182779" id="Stroke-14" stroke="#1C4178"></path>
                            <path d="M26.6950224,18.7419823 C25.5926128,10.5594945 30.7164742,2.78149535 38.5219827,0.595015617 C46.5811881,-1.66074679 55.2517111,2.67247702 58.3266393,10.6277584 L55.2506923,11.425528 C52.7748555,5.01789936 45.7905505,1.52727515 39.300394,3.34594538 C33.01401,5.10552157 28.8865965,11.3705094 29.7750449,17.9594956 L26.6950224,18.7419823 Z" id="Fill-28" fill="#EF4F55"></path>
                            <path d="M28.5675905,18.2613847 C28.5675905,18.2613847 28.5003456,21.7031035 29.54468,26.4927779" id="Stroke-30" stroke="#4CC1BE"></path>
                            <path d="M56.6748588,11.0517072 C56.6748588,11.0517072 58.3906239,14.0359566 59.7803529,18.7369899" id="Stroke-32" stroke="#4CC1BE"></path>
                            <path d="M27.4034378,33.903477 L29.2975039,33.4164605 L27.6010972,26.8009839 L25.7039745,27.2880003 C25.5409565,27.3307926 25.4421268,27.4968672 25.4839001,27.6598853 L27.0295151,33.6813649 C27.0712885,33.8464207 27.238382,33.9452504 27.4034378,33.903477" id="Fill-34" fill="#EF4F55"></path>
                            <path d="M65.0038591,24.2591248 L63.4643572,24.6534247 L61.7679506,18.0389669 L63.3084712,17.6426293 C63.4714893,17.6008559 63.6385828,17.6996856 63.6803562,17.8627036 L65.2249523,23.8852021 C65.2677445,24.049239 65.167896,24.2163325 65.0038591,24.2591248" id="Fill-36" fill="#EF4F55"></path>
                            <path d="M29.8889538,35.0387959 L32.9822215,34.2461206 L30.3800457,24.1023218 L27.2877969,24.896016 C26.6978753,25.0468077 26.3422921,25.6479368 26.4930838,26.2378584 L28.5471114,34.2451017 C28.6979031,34.8350233 29.2990322,35.1895876 29.8889538,35.0387959" id="Fill-38" fill="#8ED3F4"></path>
                            <path d="M63.3711313,26.4511064 L60.222845,27.2580458 L57.6206692,17.1152658 L60.7689555,16.3073076 C61.3588771,16.1565159 61.9600062,16.512099 62.1118168,17.1020206 L64.1648255,25.109264 C64.316636,25.6991856 63.9610529,26.3003147 63.3711313,26.4511064" id="Fill-40" fill="#8ED3F4"></path>
                            <path d="M34.8897366,34.470678 L33.0252175,34.9495435 C32.8122752,35.0035432 32.5932196,34.8741477 32.538201,34.6612053 L29.7913467,23.9519376 C29.7363281,23.7389953 29.8657237,23.5199398 30.0786661,23.4649212 L31.944204,22.9870745 C32.1571463,22.9320559 32.3762018,23.0614515 32.4302016,23.2743938 L35.1770559,33.9836615 C35.2320745,34.1966038 35.1026789,34.4156594 34.8897366,34.470678" id="Fill-42" fill="#4CC1BE"></path>
                            <path d="M58.7136034,28.3594365 L60.5791414,27.880571 C60.7920837,27.8265713 60.9214793,27.6085346 60.8664607,27.3955923 L58.1196064,16.6853057 C58.0645878,16.4723634 57.8465511,16.3429678 57.6336088,16.3979864 L55.7680708,16.8758331 C55.5551285,16.9308517 55.4257329,17.1488883 55.4807515,17.3618307 L58.2276058,28.0721172 C58.2826244,28.2850596 58.5016799,28.4144551 58.7136034,28.3594365" id="Fill-44" fill="#4CC1BE"></path>
                            <polygon id="Fill-173" fill="#1C4178" points="12.4229951 10.3353447 1.62887763e-14 10.8763609 0.372903813 19.4531486 12.7969177 18.9131513 16.8927465 14.4433998"></polygon>
                        </g>
                        <g id="Group-12" transform="translate(102.710585, 43.888271) rotate(9.000000) translate(-102.710585, -43.888271) translate(66.210585, 5.388271)">
                            <polygon id="Fill-78" fill="#4CC1BE" points="57.2223526 8.98886712 65.912103 8.91628881e-14 72.1187749 5.99872431 63.4300489 14.9875914 57.3350336 15.0920774"></polygon>
                            <path d="M43.5753573,15.2011731 C43.5753573,15.2011731 49.2411606,20.8608301 57.6994028,14.3980652" id="Stroke-80" stroke="#4CC1BE"></path>
                            <path d="M26.4711053,19.960919 L22.9267771,20.538665 C21.5479719,20.7630026 20.235751,19.8185313 20.0114134,18.4407505 L19.0997221,12.840507 C18.8743602,11.4617019 19.8188314,10.149481 21.198661,9.92514342 L24.7429892,9.3484218 C26.12077,9.12305989 27.4319665,10.0675312 27.6573284,11.4463363 L28.5700442,17.0455554 C28.7954061,18.4243606 27.8499104,19.7365815 26.4711053,19.960919 Z" id="Stroke-159" stroke="#1C4178"></path>
                            <path d="M52.4495971,38.2094973 L4.08385798,46.0889692 L0.0263192136,21.1823806 C-0.150897198,20.0975703 0.585626501,19.0752467 1.66941242,18.8990547 L46.1097568,11.6587911 C47.1925184,11.4825991 48.2148419,12.2180984 48.3920583,13.3029087 L52.4495971,38.2094973 Z" id="Fill-160" fill="#8ED3F4"></path>
                            <path d="M53.0407624,70.2121179 L13.6813047,76.625713 C12.0105534,76.8971716 10.4350688,75.7631915 10.1636101,74.0924402 L5.5611053,45.8484466 L50.9715303,38.4494053 L55.5740351,66.6933989 C55.8454938,68.3651746 54.7115136,69.9396348 53.0407624,70.2121179" id="Fill-161" fill="#EF4F55"></path>
                            <polygon id="Fill-162" fill="#FFFFFF" points="30.847736 26.9344361 26.7225887 32.6668236 20.9902012 28.5396275 25.1153485 22.8092887"></polygon>
                            <line x1="24.2443247" y1="26.8204234" x2="24.6212938" y2="29.138578" id="Stroke-163" stroke="#1C4178" stroke-width="2"></line>
                            <line x1="27.2164386" y1="26.3362026" x2="27.5934076" y2="28.6543572" id="Stroke-164" stroke="#1C4178" stroke-width="2"></line>
                            <line x1="3.24172149" y1="40.9165036" x2="51.6074606" y2="33.0370317" id="Stroke-165" stroke="#1C4178"></line>
                            <line x1="8.62664191" y1="64.6571516" x2="54.0360425" y2="57.2581104" id="Stroke-166" stroke="#1C4178"></line>
                            <path d="M21.1632177,51.0812477 L22.2060287,57.4794772 C22.3955376,58.6482861 21.6026734,59.7505107 20.4338646,59.9400195 C19.2650558,60.1305528 18.1628312,59.338713 17.9733223,58.1699042 L16.9305113,51.7706503 L21.1632177,51.0812477 Z" id="Fill-167" fill="#FFFFFF"></path>
                            <polygon id="Fill-168" fill="#FFFFFF" points="16.3154781 47.9920481 15.6967572 44.1967487 19.9284393 43.5073461 20.5471602 47.3026455"></polygon>
                            <path d="M42.0708616,47.6750049 L43.1136726,54.0732344 C43.3031815,55.2420432 42.5113417,56.3442678 41.3425329,56.5337767 C40.1726997,56.72431 39.0714995,55.9324702 38.8819906,54.762637 L37.8391796,48.3644074 L42.0708616,47.6750049 Z" id="Fill-169" fill="#FFFFFF"></path>
                            <polygon id="Fill-170" fill="#FFFFFF" points="37.2230196 44.5858053 36.6042987 40.7905058 40.8370052 40.1011032 41.455726 43.8964027"></polygon>
                            <polygon id="Stroke-171" stroke="#1C4178" points="22.1955801 50.9131482 15.8987635 51.9395693 15.2820913 48.1596354 21.5799323 47.1352631"></polygon>
                            <polygon id="Stroke-172" stroke="#1C4178" points="43.104146 47.5069054 36.806305 48.5323021 36.1906572 44.7533926 42.4874738 43.7290203"></polygon>
                        </g>
                        <g id="Group-14" transform="translate(144.242996, 60.113173) rotate(-12.000000) translate(-144.242996, -60.113173) translate(121.242996, 43.113173)">
                            <path d="M19.9504723,10.7037216 C19.9504723,10.7037216 23.4283766,15.9169563 29.2355766,13.4521042" id="Stroke-93" stroke="#1C4178" stroke-linecap="round" stroke-linejoin="round"></path>
                            <path d="M1.08690272,30.5333642 L15.184781,33.4855989 C15.9205114,33.6397816 16.6489984,33.1627468 16.803181,32.4270163 L22.6310766,4.59964243 C22.7852592,3.86494677 22.3092592,3.13542503 21.572494,2.98124243 L7.47565055,0.0290076435 C6.73888533,-0.125174965 6.01039837,0.350825035 5.85518098,1.08759025 L0.0293548949,28.9139294 C-0.125862496,29.6496598 0.350137504,30.3791816 1.08690272,30.5333642" id="Fill-154" fill="#8ED3F4"></path>
                            <polygon id="Fill-155" fill="#FFFFFF" points="1.69018098 25.6009694 16.7162592 28.7477433 21.3396679 6.66444764 6.31462446 3.51767373"></polygon>
                            <path d="M9.87137924,30.0533285 C10.0131445,29.3786503 9.58060533,28.7163894 8.9038575,28.5746242 C8.22917924,28.4338937 7.56691837,28.8664329 7.42618794,29.5411111 C7.28442272,30.2157894 7.71799663,30.879085 8.39267489,31.0208503 C9.06838794,31.1605459 9.72961403,30.7280068 9.87137924,30.0533285" id="Fill-156" fill="#1C4178"></path>
                            <path d="M11.9015192,3.02977373 C11.854954,3.25225199 11.6366149,3.39505199 11.4141366,3.34848677 C11.1916584,3.30192156 11.0498932,3.08358243 11.0964584,2.86110417 C11.1430236,2.6386259 11.3613627,2.4958259 11.5828062,2.54239112 C11.8052845,2.58895634 11.9480845,2.80729547 11.9015192,3.02977373" id="Fill-157" fill="#1C4178"></path>
                            <path d="M16.841054,3.64412417 L13.2027584,2.88252417 C13.0040801,2.84009808 12.8064366,2.9694459 12.7650453,3.16812417 L12.7484888,3.24883721 C12.7060627,3.44855025 12.8354105,3.64619373 13.0340888,3.68758503 L16.6723845,4.44918503 C16.8720975,4.49057634 17.069741,4.3622633 17.1111323,4.16255025 L17.1276888,4.08287199 C17.1690801,3.88212417 17.0407671,3.68551547 16.841054,3.64412417" id="Fill-158" fill="#1C4178"></path>
                            <polygon id="Fill-176" fill="#1C4178" points="32.1738419 18.3251024 44.7578332 19.4023111 45.5018419 10.7153111 32.9178505 9.63706764 28.2095897 13.6033894"></polygon>
                        </g>
                    </g>
                </g>
            </g>
        </g>
    </g>
</svg>