<?xml version="1.0" encoding="UTF-8"?>
<svg width="273px" height="115px" viewBox="0 0 273 115" version="1.1" xmlns="http://www.w3.org/2000/svg" xmlns:xlink="http://www.w3.org/1999/xlink">
    <!-- Generator: Sketch 61.1 (89650) - https://sketch.com -->
    <title>EmptyState</title>
    <desc>Created with Sketch.</desc>
    <defs>
        <rect id="path-1" x="0" y="0" width="278" height="120"></rect>
    </defs>
    <g id="Final" stroke="none" stroke-width="1" fill="none" fill-rule="evenodd">
        <g id="Pending-Tab---Empty-State" transform="translate(-777.000000, -509.000000)">
            <g id="EmptyState" transform="translate(777.000000, 504.000000)">
                <mask id="mask-2" fill="white">
                    <use xlink:href="#path-1"></use>
                </mask>
                <g id="Mask"></g>
                <g id="Group-48" mask="url(#mask-2)">
                    <g transform="translate(-5.000000, -13.000000)">
                        <g id="Group-44" transform="translate(171.739068, 74.388888) rotate(9.000000) translate(-171.739068, -74.388888) translate(110.239068, 9.388888)">
                            <polygon id="Fill-78" fill="#D5DFE6" points="97.0753324 15.2357143 111.817131 1.51126974e-13 122.346491 10.1675604 107.60643 25.4032747 97.2664909 25.5803736"></polygon>
                            <path d="M73.9237744,25.7652857 C73.9237744,25.7652857 83.5355732,35.3581429 97.8846281,24.4040549" id="Stroke-80" stroke="#D5DFE6" stroke-width="2"></path>
                            <path d="M44.9071251,33.8328352 L38.8943202,34.8120879 C36.5552348,35.1923297 34.3291068,33.5914945 33.9485275,31.2562198 L32.4018812,21.7640659 C32.0195641,19.4270549 33.6218202,17.2029011 35.9626433,16.8226593 L41.9754482,15.8451429 C44.3127958,15.4631648 46.537186,17.064 46.9195031,19.401011 L48.4678873,28.8914286 C48.8502043,31.2284396 47.2462104,33.4525934 44.9071251,33.8328352 Z" id="Stroke-159" stroke="#8396A4" stroke-width="2"></path>
                            <path d="M88.9785519,64.7633319 L6.92809457,78.1186725 L0.0446494471,35.903156 C-0.255990797,34.0644527 0.99349091,32.3316615 2.83208847,32.0330242 L78.2232775,19.7611121 C80.0601373,19.4624747 81.7944665,20.7091121 82.0951068,22.5478154 L88.9785519,64.7633319 Z" id="Fill-160" fill="#D5DFE6"></path>
                            <path d="M89.9814391,119.006295 L23.2097623,129.877042 C20.3754025,130.337152 17.7026586,128.415108 17.2421403,125.583262 L9.43418298,77.7109978 L86.4710732,65.1699648 L94.2790305,113.042229 C94.7395488,115.875811 92.8157988,118.544448 89.9814391,119.006295" id="Fill-161" fill="#C4CDD5"></path>
                            <polygon id="Fill-162" fill="#FFFFFF" points="52.3318964 45.6526242 45.3337562 55.368756 35.6090001 48.3733495 42.6071403 38.6606901"></polygon>
                            <line x1="41.1294848" y1="45.459378" x2="41.768997" y2="49.3885429" id="Stroke-163" stroke="#8396A4" stroke-width="2"></line>
                            <line x1="46.1715519" y1="44.6386462" x2="46.8110641" y2="48.567811" id="Stroke-164" stroke="#8396A4" stroke-width="2"></line>
                            <line x1="5.49944518" y1="69.3515824" x2="87.5499025" y2="55.9962418" id="Stroke-165" stroke="#8396A4" stroke-width="2"></line>
                            <line x1="14.6347379" y1="109.590884" x2="91.6698903" y2="97.0498505" id="Stroke-166" stroke="#8396A4" stroke-width="2"></line>
                            <path d="M35.9025153,86.5803538 L37.6716007,97.4250571 C37.9930946,99.4061341 36.6480336,101.274354 34.6651982,101.595563 C32.6823629,101.918508 30.8124848,100.576376 30.4909909,98.5952989 L28.7219055,87.7488593 L35.9025153,86.5803538 Z" id="Fill-167" fill="#FFFFFF"></path>
                            <polygon id="Fill-168" fill="#FFFFFF" points="27.6785275 81.3443033 26.6288933 74.9114462 33.8077653 73.7429407 34.8573994 80.1757978"></polygon>
                            <path d="M71.3714604,80.8069297 L73.1405458,91.651633 C73.4620397,93.6327099 72.1187165,95.5009297 70.1358812,95.8221385 C68.151308,96.1450835 66.2831677,94.8029516 65.9616738,92.8201385 L64.1925885,81.9754352 L71.3714604,80.8069297 Z" id="Fill-169" fill="#FFFFFF"></path>
                            <polygon id="Fill-170" fill="#FFFFFF" points="63.1472988 75.5708791 62.0976647 69.138022 69.2782744 67.9695165 70.3279086 74.4023736"></polygon>
                            <polygon id="Stroke-171" stroke="#8396A4" stroke-width="2" points="37.6538751 86.295433 26.9715885 88.0351692 25.9254299 81.628356 36.6094543 79.8920923"></polygon>
                            <polygon id="Stroke-172" stroke="#8396A4" stroke-width="2" points="73.1243842 80.5220088 62.4403598 82.2600088 61.3959391 75.8549319 72.0782257 74.1186681"></polygon>
                        </g>
                        <g id="Group-45" transform="translate(240.786464, 102.106801) rotate(-12.000000) translate(-240.786464, -102.106801) translate(202.286464, 73.606801)">
                            <path d="M33.504649,17.9597951 C33.504649,17.9597951 39.3454112,26.7070918 49.0979721,22.5713115" id="Stroke-93" stroke="#90A5B4" stroke-width="2" stroke-linecap="round" stroke-linejoin="round"></path>
                            <path d="M1.82533494,51.2319907 L25.5011886,56.1855511 C26.7367679,56.4442544 27.9601825,55.6438368 28.2191154,54.4093533 L38.0064325,7.7177489 C38.2653654,6.48500165 37.4659752,5.26093572 36.2286581,5.00223242 L12.5545423,0.048671981 C11.3172252,-0.210031316 10.0938105,0.588650003 9.83313982,1.82486978 L0.0492983542,48.5147379 C-0.211372378,49.7492214 0.588017866,50.9732874 1.82533494,51.2319907" id="Fill-154" fill="#C4CDD5"></path>
                            <polygon id="Fill-155" fill="#FFFFFF" points="2.83847518 42.9559159 28.0731398 48.235894 35.837652 11.1822896 10.6047252 5.90231154"></polygon>
                            <path d="M16.5779081,50.4265379 C16.8159874,49.294494 16.0895849,48.1832852 14.9530605,47.945417 C13.8200118,47.7092852 12.7078166,48.4350434 12.4714752,49.5670874 C12.2333959,50.6991313 12.9615362,51.8120764 14.0945849,52.0499445 C15.2293715,52.2843401 16.3398288,51.5585819 16.5779081,50.4265379" id="Fill-156" fill="#90A5B4"></path>
                            <path d="M19.9873075,5.08366319 C19.9091063,5.45695989 19.5424295,5.69656429 19.1688014,5.61843242 C18.7951734,5.54030055 18.5570941,5.1739489 18.6352953,4.8006522 C18.7134965,4.4273555 19.0801734,4.1877511 19.4520636,4.26588297 C19.8256916,4.34401484 20.0655087,4.71036649 19.9873075,5.08366319" id="Fill-157" fill="#90A5B4"></path>
                            <path d="M28.2827191,6.11448297 L22.1725971,4.83659286 C21.8389386,4.76540605 21.5070179,4.98243901 21.4375057,5.31580165 L21.4097008,5.45123022 C21.3384508,5.78632912 21.5556764,6.1179555 21.8893349,6.18740605 L27.9994569,7.46529616 C28.3348532,7.53474671 28.666774,7.31945 28.7362862,6.9843511 L28.764091,6.85065879 C28.8336032,6.51382363 28.6181154,6.18393352 28.2827191,6.11448297" id="Fill-158" fill="#90A5B4"></path>
                            <polygon id="Fill-176" fill="#90A5B4" points="54.0324691 30.7477247 75.1659142 32.5551753 76.4153959 17.9792412 55.2819508 16.1700544 47.3749386 22.8251533"></polygon>
                        </g>
                        <g id="Group-46" transform="translate(60.705066, 104.447969) rotate(-14.000000) translate(-60.705066, -104.447969) translate(8.705066, 64.447969)">
                            <path d="M51.0646361,18.4554308 C51.0646361,18.4554308 41.7663117,31.0650942 27.8655887,24.9765028" id="Stroke-14" stroke="#90A5B4" stroke-width="2" transform="translate(39.465112, 22.546455) rotate(29.000000) translate(-39.465112, -22.546455) "></path>
                            <path d="M45.303401,50.544204 C43.4287362,36.5980679 52.171324,23.3373789 65.4832744,19.6055733 C79.2278926,15.7555144 94.0107503,23.1358235 99.2492498,36.6934268 L94.0033988,38.0551778 C89.7855229,27.1351251 77.8775924,21.1899241 66.8089162,24.2939641 C56.0877665,27.2971492 49.0453681,37.9783095 50.556192,49.2084998 L45.303401,50.544204 Z" id="Fill-28" fill="#8396A4" transform="translate(72.150035, 34.566403) rotate(29.000000) translate(-72.150035, -34.566403) "></path>
                            <path d="M40.6092544,35.8788707 C40.6092544,35.8788707 40.4923757,41.7452363 42.2701824,49.9084451" id="Stroke-30" stroke="#D5DFE6" stroke-width="2" transform="translate(41.438929, 42.893658) rotate(29.000000) translate(-41.438929, -42.893658) "></path>
                            <path d="M88.4991347,49.293358 C88.4991347,49.293358 91.4230741,54.378835 93.7899307,62.3907359" id="Stroke-32" stroke="#D5DFE6" stroke-width="2" transform="translate(91.144533, 55.842047) rotate(29.000000) translate(-91.144533, -55.842047) "></path>
                            <path d="M32.3770023,59.4526954 L35.6072206,58.6213734 L32.7186216,47.346549 L29.483191,48.177873 C29.2051728,48.2509158 29.0365343,48.5340493 29.1076649,48.8118826 L31.7395033,59.0743508 C31.8106326,59.3556574 32.0955098,59.5240029 32.3770023,59.4526954" id="Fill-34" fill="#8396A4" transform="translate(32.349303, 53.407801) rotate(29.000000) translate(-32.349303, -53.407801) "></path>
                            <path d="M96.4046915,74.8228412 L93.7791628,75.4959028 L90.8905632,64.2228151 L93.5178307,63.5462795 C93.7958483,63.4749733 94.0807255,63.6433188 94.1518561,63.9211522 L96.7819564,74.1853576 C96.8548238,74.464927 96.6844473,74.7497977 96.4046915,74.8228412" id="Fill-36" fill="#8396A4" transform="translate(93.844686, 69.512907) rotate(29.000000) translate(-93.844686, -69.512907) "></path>
                            <path d="M36.75195,63.4808597 L42.0273343,62.1277807 L37.5964119,44.8396016 L32.3227644,46.1944166 C31.3166884,46.4518156 30.7099353,47.476653 30.9666985,48.4820627 L34.4642471,62.1288887 C34.7210103,63.1342984 35.745874,63.7382587 36.75195,63.4808597" id="Fill-38" fill="#C4CDD5" transform="translate(36.467574, 54.189892) rotate(29.000000) translate(-36.467574, -54.189892) "></path>
                            <path d="M93.6581061,76.2846278 L88.2888907,77.6620548 L83.8579676,60.3756123 L89.2271836,58.9964487 C90.2332596,58.7390497 91.2581227,59.3447466 91.5166233,60.3501556 L95.0124345,73.9969823 C95.2709351,75.0023914 94.6641821,76.0272288 93.6581061,76.2846278" id="Fill-40" fill="#C4CDD5" transform="translate(89.464989, 68.299647) rotate(29.000000) translate(-89.464989, -68.299647) "></path>
                            <path d="M45.2019467,64.9273025 L42.0221195,65.7447126 C41.6589593,65.8368903 41.2854922,65.6164793 41.1918068,65.2535598 L36.5145302,47.001646 C36.4208449,46.6387265 36.6416406,46.2652689 37.0048014,46.1713546 L40.1863654,45.3556805 C40.5495262,45.2617661 40.9229933,45.4821771 41.0149412,45.8450973 L45.6922179,64.097011 C45.7859032,64.4599306 45.5651075,64.8333881 45.2019467,64.9273025" id="Fill-42" fill="#D5DFE6" transform="translate(41.103374, 55.549852) rotate(29.000000) translate(-41.103374, -55.549852) "></path>
                            <path d="M85.792116,77.1461969 L88.9736806,76.3287862 C89.3368408,76.2366084 89.5576358,75.8648875 89.4639505,75.5019679 L84.7866745,57.2483176 C84.6929892,56.885398 84.3212595,56.6649864 83.9580987,56.7589008 L80.7765347,57.5745749 C80.4133739,57.6684892 80.1925788,58.0402102 80.2862642,58.4031297 L84.9635401,76.6567801 C85.0572255,77.0196996 85.4306926,77.2401106 85.792116,77.1461969" id="Fill-44" fill="#D5DFE6" transform="translate(84.875107, 66.952549) rotate(29.000000) translate(-84.875107, -66.952549) "></path>
                            <polygon id="Fill-173" fill="#90A5B4" transform="translate(16.882629, 14.715811) rotate(29.000000) translate(-16.882629, -14.715811) " points="23.6653582 6.94141365 2.48037302 7.87152994 3.11077602 22.4902082 24.297498 21.5618278 31.2848843 13.9406227"></polygon>
                        </g>
                    </g>
                </g>
            </g>
        </g>
    </g>
</svg>