<?xml version="1.0" encoding="UTF-8"?>
<svg width="269px" height="160px" viewBox="0 0 269 160" version="1.1" xmlns="http://www.w3.org/2000/svg" xmlns:xlink="http://www.w3.org/1999/xlink">
    <!-- Generator: Sketch 61.1 (89650) - https://sketch.com -->
    <title>HeaderImage</title>
    <desc>Created with Sketch.</desc>
    <defs>
        <rect id="path-1" x="0" y="0" width="276.756757" height="160"></rect>
        <linearGradient x1="50%" y1="0%" x2="50%" y2="100%" id="linearGradient-3">
            <stop stop-color="#AFC7D1" stop-opacity="0.32" offset="0%"></stop>
            <stop stop-color="#AFC7D1" stop-opacity="0" offset="100%"></stop>
        </linearGradient>
        <linearGradient x1="100%" y1="45.5%" x2="0%" y2="54.5%" id="linearGradient-4">
            <stop stop-color="#EFEFEF" offset="0%"></stop>
            <stop stop-color="#D8E3EA" offset="100%"></stop>
        </linearGradient>
        <polygon id="path-5" points="0.000522149674 0.0820158004 154.380513 0.0820158004 154.380513 17.1991551 0.000522149674 17.1991551"></polygon>
        <polygon id="path-7" points="0.000348099783 0.143618182 154.380513 0.143618182 154.380513 91.6204211 0.000348099783 91.6204211"></polygon>
        <polygon id="path-9" points="0 125.405405 154.594595 125.405405 154.594595 0 0 0"></polygon>
        <linearGradient x1="0%" y1="22.3537147%" x2="100%" y2="77.6462853%" id="linearGradient-11">
            <stop stop-color="#92F1D3" offset="0%"></stop>
            <stop stop-color="#2EE3AA" offset="100%"></stop>
        </linearGradient>
        <linearGradient x1="143.582203%" y1="103.263035%" x2="-4.09963516%" y2="11.3865932%" id="linearGradient-12">
            <stop stop-color="#1ACC94" offset="0%"></stop>
            <stop stop-color="#1ACC94" stop-opacity="0" offset="100%"></stop>
        </linearGradient>
        <linearGradient x1="0%" y1="24.4897959%" x2="-9.54589844%" y2="207.171755%" id="linearGradient-13">
            <stop stop-color="#92F1D3" offset="0%"></stop>
            <stop stop-color="#2EE3AA" offset="100%"></stop>
        </linearGradient>
        <linearGradient x1="24.08%" y1="0%" x2="75.92%" y2="100%" id="linearGradient-14">
            <stop stop-color="#1ACC94" offset="0%"></stop>
            <stop stop-color="#2EE3AA" offset="100%"></stop>
        </linearGradient>
        <linearGradient x1="0%" y1="41.5224913%" x2="100%" y2="58.4775087%" id="linearGradient-15">
            <stop stop-color="#EEF2F5" offset="0%"></stop>
            <stop stop-color="#C6D8E4" offset="100%"></stop>
        </linearGradient>
        <linearGradient x1="0%" y1="22.0982179%" x2="100%" y2="77.9017821%" id="linearGradient-16">
            <stop stop-color="#92F1D3" offset="0%"></stop>
            <stop stop-color="#2EE3AA" offset="100%"></stop>
        </linearGradient>
        <linearGradient x1="143.582203%" y1="104.094678%" x2="-4.09963516%" y2="10.7836879%" id="linearGradient-17">
            <stop stop-color="#1ACC94" offset="0%"></stop>
            <stop stop-color="#1ACC94" stop-opacity="0" offset="100%"></stop>
        </linearGradient>
        <linearGradient x1="0%" y1="24.1759111%" x2="-9.54589844%" y2="209.105641%" id="linearGradient-18">
            <stop stop-color="#92F1D3" offset="0%"></stop>
            <stop stop-color="#2EE3AA" offset="100%"></stop>
        </linearGradient>
        <linearGradient x1="25.7977909%" y1="0%" x2="74.2022091%" y2="100%" id="linearGradient-19">
            <stop stop-color="#1ACC94" offset="0%"></stop>
            <stop stop-color="#2EE3AA" offset="100%"></stop>
        </linearGradient>
        <linearGradient x1="0%" y1="41.5224913%" x2="100%" y2="58.4775087%" id="linearGradient-20">
            <stop stop-color="#EEF2F5" offset="0%"></stop>
            <stop stop-color="#C6D8E4" offset="100%"></stop>
        </linearGradient>
        <linearGradient x1="0%" y1="61.5122846%" x2="100%" y2="38.4877154%" id="linearGradient-21">
            <stop stop-color="#8ED2F3" offset="0%"></stop>
            <stop stop-color="#1ACC94" offset="100%"></stop>
        </linearGradient>
        <path d="M74.3571579,56.2162162 C78.6886806,56.2162162 89.6673172,56.2162162 107.293068,56.2162162 L127.317421,40.1502563 L144.156851,46.5766403 L191.513514,0" id="path-22"></path>
        <path d="M52.6886231,52.588119 C59.3831901,54.965968 66.606035,56.1753337 74.3571579,56.2162162" id="path-23"></path>
        <filter x="-39.7%" y="-181.8%" width="177.8%" height="564.5%" filterUnits="objectBoundingBox" id="filter-24">
            <feMorphology radius="1.25" operator="dilate" in="SourceAlpha" result="shadowSpreadOuter1"></feMorphology>
            <feOffset dx="0" dy="2" in="shadowSpreadOuter1" result="shadowOffsetOuter1"></feOffset>
            <feMorphology radius="1.25" operator="erode" in="SourceAlpha" result="shadowInner"></feMorphology>
            <feOffset dx="0" dy="2" in="shadowInner" result="shadowInner"></feOffset>
            <feComposite in="shadowOffsetOuter1" in2="shadowInner" operator="out" result="shadowOffsetOuter1"></feComposite>
            <feGaussianBlur stdDeviation="2" in="shadowOffsetOuter1" result="shadowBlurOuter1"></feGaussianBlur>
            <feColorMatrix values="0 0 0 0 0   0 0 0 0 0   0 0 0 0 0  0 0 0 0.1 0" type="matrix" in="shadowBlurOuter1"></feColorMatrix>
        </filter>
        <linearGradient x1="-7.10542736e-13%" y1="44.7347568%" x2="100%" y2="63.7104997%" id="linearGradient-25">
            <stop stop-color="#8ED2F3" offset="0%"></stop>
            <stop stop-color="#3B96D1" offset="100%"></stop>
        </linearGradient>
        <linearGradient x1="50%" y1="0%" x2="50%" y2="100%" id="linearGradient-26">
            <stop stop-color="#E6F7FF" offset="0%"></stop>
            <stop stop-color="#CEF2FD" stop-opacity="0.4" offset="100%"></stop>
        </linearGradient>
    </defs>
    <g id="Final" stroke="none" stroke-width="1" fill="none" fill-rule="evenodd">
        <g id="Offers-Tab" transform="translate(-1347.000000, -128.000000)">
            <g id="HeaderImage" transform="translate(1339.000000, 128.000000)">
                <mask id="mask-2" fill="white">
                    <use xlink:href="#path-1"></use>
                </mask>
                <g id="Mask"></g>
                <g id="Group-8" mask="url(#mask-2)">
                    <g transform="translate(4.162162, -0.837862)">
                        <path d="M13.1351351,130.645482 C13.1351351,58.954713 71.2171135,0.837861957 142.864865,0.837861957 C214.512616,0.837861957 272.594595,58.954713 272.594595,130.645482 L272.594595,160.837862 L13.1351351,160.837862 L13.1351351,130.645482 Z" id="Path" fill="url(#linearGradient-3)" fill-rule="evenodd"></path>
                        <path d="M18.2972973,97.0540782 L120.405405,97.0540782 C122.06226,97.0540782 123.405405,98.3972239 123.405405,100.054078 L123.405405,126.486511 C123.405405,128.143365 122.06226,129.486511 120.405405,129.486511 L18.2972973,129.486511 C16.640443,129.486511 15.2972973,128.143365 15.2972973,126.486511 L15.2972973,100.054078 C15.2972973,98.3972239 16.640443,97.0540782 18.2972973,97.0540782 Z" id="Rectangle" fill="url(#linearGradient-4)" fill-rule="nonzero" transform="translate(69.351351, 113.270294) rotate(-28.000000) translate(-69.351351, -113.270294) "></path>
                        <polygon id="Fill-11" fill="#3B96D1" fill-rule="evenodd" points="118 155.432457 163.405405 155.432457 163.405405 140.297321 118 140.297321"></polygon>
                        <g id="Desktop" stroke-width="1" fill="none" fill-rule="evenodd" transform="translate(65.027027, 35.432457)">
                            <g id="Group-3" transform="translate(0.000000, 90.810811)">
                                <mask id="mask-6" fill="white">
                                    <use xlink:href="#path-5"></use>
                                </mask>
                                <g id="Clip-2"></g>
                                <path d="M0.000522149674,0.0820158004 L0.000522149674,4.73711767 C0.000522149674,11.6201114 5.2133164,17.1991551 11.6427194,17.1991551 L142.737098,17.1991551 C149.168241,17.1991551 154.381035,11.6201114 154.381035,4.73711767 L154.381035,0.0820158004 C154.381035,0.0820158004 0.000522149674,0.452710187 0.000522149674,0.0820158004" id="Fill-1" fill="#8ED2F3" mask="url(#mask-6)"></path>
                            </g>
                            <g id="Group-6">
                                <mask id="mask-8" fill="white">
                                    <use xlink:href="#path-7"></use>
                                </mask>
                                <g id="Clip-5"></g>
                                <path d="M147.370132,0.143618182 L7.01107773,0.143618182 C3.14020814,0.143618182 0.000348099783,3.30146674 0.000348099783,7.1984235 L0.000348099783,91.4655159 C0.000348099783,91.8140527 154.380861,91.4655159 154.380861,91.4655159 L154.380861,7.1984235 C154.380861,3.30146674 151.242742,0.143618182 147.370132,0.143618182" id="Fill-4" fill="#1A4278" mask="url(#mask-8)"></path>
                            </g>
                            <mask id="mask-10" fill="white">
                                <use xlink:href="#path-9"></use>
                            </mask>
                            <g id="Clip-8"></g>
                            <polygon id="Fill-7" fill="#FEFEFE" mask="url(#mask-10)" points="8.64864865 83.2432432 142.702703 83.2432432 142.702703 17.2972973 8.64864865 17.2972973"></polygon>
                            <path d="M77.8378378,98.9194323 C77.8378378,99.8146865 77.1117539,100.540541 76.2162162,100.540541 C75.3206785,100.540541 74.5945946,99.8146865 74.5945946,98.9194323 C74.5945946,98.0231514 75.3206785,97.2972973 76.2162162,97.2972973 C77.1117539,97.2972973 77.8378378,98.0231514 77.8378378,98.9194323 Z" id="Stroke-9" stroke="#FEFEFE" stroke-width="0.5" mask="url(#mask-10)"></path>
                            <polygon id="Fill-10" fill="#1A4278" mask="url(#mask-10)" points="37.8378378 125.405405 112.432432 125.405405 112.432432 122.162162 37.8378378 122.162162"></polygon>
                            <polygon id="Fill-12" fill="#DBE4EA" mask="url(#mask-10)" points="8.64864865 17.2972973 142.702703 17.2972973 142.702703 10.8108108 8.64864865 10.8108108"></polygon>
                            <path d="M21.6216216,14.0540541 C21.6216216,14.6522258 21.1387122,15.1351351 20.5405405,15.1351351 C19.9423688,15.1351351 19.4594595,14.6522258 19.4594595,14.0540541 C19.4594595,13.4558824 19.9423688,12.972973 20.5405405,12.972973 C21.1387122,12.972973 21.6216216,13.4558824 21.6216216,14.0540541" id="Fill-13" fill="#FEFEFE" mask="url(#mask-10)"></path>
                            <path d="M17.2972973,14.0540541 C17.2972973,14.6522258 16.8143879,15.1351351 16.2162162,15.1351351 C15.6180445,15.1351351 15.1351351,14.6522258 15.1351351,14.0540541 C15.1351351,13.4558824 15.6180445,12.972973 16.2162162,12.972973 C16.8143879,12.972973 17.2972973,13.4558824 17.2972973,14.0540541" id="Fill-14" fill="#FEFEFE" mask="url(#mask-10)"></path>
                            <path d="M27.027027,14.0540541 C27.027027,14.6522258 26.5425756,15.1351351 25.9469387,15.1351351 C25.3493163,15.1351351 24.8648649,14.6522258 24.8648649,14.0540541 C24.8648649,13.4558824 25.3493163,12.972973 25.9469387,12.972973 C26.5425756,12.972973 27.027027,13.4558824 27.027027,14.0540541" id="Fill-15" fill="#FEFEFE" mask="url(#mask-10)"></path>
                        </g>
                        <g id="Group-4" stroke-width="1" fill="none" fill-rule="evenodd" transform="translate(198.000000, 74.351375)">
                            <path d="M27.2603877,31.3632314 C35.1264934,31.3632314 41.8688696,31.3632314 47.4875165,31.3632314 C71.2552779,58.7269564 79.1213836,77.1013748 71.0858334,86.4864865 C59.9232995,86.4864865 20.5180115,86.4864865 3.66207082,86.4864865 C-8.02578352,72.8356702 10.5492441,50.8809927 27.2603877,31.3632314 Z" id="Rectangle" fill="url(#linearGradient-11)" fill-rule="nonzero"></path>
                            <path d="M38.973803,70.5331633 C31.8942615,74.8605083 20.096783,80.1782827 3.58136752,86.4864865 C-7.96144194,72.7982893 10.6531242,50.8666781 27.4046463,31.3632314 L47.7388044,31.3632314 C53.7447138,38.2560838 58.7405999,44.5797577 62.7264627,50.3342531 C52.9551693,60.0937086 45.037616,66.8266787 38.973803,70.5331633 Z" id="Shape" fill="url(#linearGradient-12)" fill-rule="nonzero"></path>
                            <ellipse id="Oval-2" fill="#FFFFFF" cx="37.5408375" cy="61.3008613" rx="20.4336204" ry="19.4832195"></ellipse>
                            <path d="M25.6896228,23.7600238 L47.4912504,23.7600238 C49.0818305,23.7600238 50.3712504,25.0494437 50.3712504,26.6400238 L50.3712504,28.4832314 C50.3712504,30.0738114 49.0818305,31.3632314 47.4912504,31.3632314 L25.6896228,31.3632314 C24.0990427,31.3632314 22.8096228,30.0738114 22.8096228,28.4832314 L22.8096228,26.6400238 C22.8096228,25.0494437 24.0990427,23.7600238 25.6896228,23.7600238 Z" id="Rectangle" fill="#FFD560" fill-rule="nonzero"></path>
                            <polygon id="Rectangle" fill="url(#linearGradient-13)" fill-rule="nonzero" points="19.95842 3.39428911 36.5904366 -3.29736568e-16 53.2224532 3.39428911 46.5696466 23.7600238 26.6112266 23.7600238"></polygon>
                            <polygon id="Rectangle" fill="#92F1D3" fill-rule="nonzero" transform="translate(22.334422, 14.731215) scale(-1, 1) translate(-22.334422, -14.731215) " points="22.3344223 5.7024057 27.5616276 7.50816751 17.1072171 23.7600238"></polygon>
                            <polygon id="Rectangle" fill="#1ACC94" fill-rule="nonzero" points="51.7968518 5.7024057 57.024057 7.50816751 46.5696466 23.7600238"></polygon>
                            <polygon id="Path" fill="url(#linearGradient-14)" fill-rule="nonzero" opacity="0.4" points="37.0656371 0 54.1728542 3.39428911 47.3299673 23.7600238 37.0656371 23.7600238"></polygon>
                            <path d="M37.254879,28.1234065 C37.3882972,27.1622843 38.2630071,26.4930741 39.2085982,26.6286837 C40.1541894,26.7642933 40.8125856,27.65337 40.6791674,28.6144922 C40.6631381,28.7299645 40.6359588,28.9746756 40.6078071,29.3294726 C40.4065394,31.8660656 40.5499729,34.7300438 41.2854623,37.3898961 C41.9983927,39.9681653 43.2002239,42.0264017 44.9581767,43.4299771 C45.7091505,44.0295656 45.8397269,45.1344116 45.2498273,45.8977198 C44.6599278,46.6610281 43.5729352,46.7937491 42.8219615,46.1941607 C40.4286373,44.2832955 38.8534626,41.5856771 37.9562499,38.3409623 C37.0923949,35.2168834 36.9294265,31.9628466 37.1607936,29.0469087 C37.1946841,28.6197844 37.2295469,28.3058946 37.254879,28.1234065 Z" id="Path-9" fill="#FFD560" fill-rule="nonzero"></path>
                            <path d="M40.9607164,29.8928356 C40.648442,28.9692278 41.1440599,27.9673589 42.0677099,27.6550988 C42.9913598,27.3428387 43.9932745,27.8384339 44.3055488,28.7620417 C46.0408964,33.8946455 49.8741414,36.3861775 56.2090461,36.3861775 C57.1840562,36.3861775 57.974458,37.1765432 57.974458,38.1515087 C57.974458,39.1264742 57.1840562,39.9168399 56.2090461,39.9168399 C48.4206562,39.9168399 43.2032922,36.5256585 40.9607164,29.8928356 Z" id="Path-11" fill="#FFD560" fill-rule="nonzero"></path>
                        </g>
                        <g id="Group-5" stroke-width="1" fill="none" fill-rule="evenodd" transform="translate(227.189189, 129.486511)">
                            <path d="M18.3783784,8.10810811 C18.3783784,10.1978342 14.2642382,11.8918919 9.18918919,11.8918919 C4.11414014,11.8918919 0,10.1978342 0,8.10810811 L0,4.32432432 L18.3783784,4.32432432 L18.3783784,8.10810811 Z" id="Path" fill="#C6D8E4" fill-rule="nonzero"></path>
                            <ellipse id="Oval" fill="url(#linearGradient-15)" fill-rule="nonzero" cx="9.18918919" cy="3.78378378" rx="9.18918919" ry="3.78378378"></ellipse>
                        </g>
                        <g id="Group-5" stroke-width="1" fill="none" fill-rule="evenodd" transform="translate(191.513514, 106.783808)">
                            <path d="M25.0446869,0.858000858 L36.2663759,5.15395061 L33.4392646,16.9345931 C39.9311497,23.3069697 45.1927178,29.9409654 49.223969,36.83658 C55.2708458,47.180002 50.9516481,54.0540541 49.223969,54.0540541 C48.0721829,54.0540541 44.4495204,54.0540541 38.3559815,54.0540541 L23.1660232,21.4785597 L25.0446869,0.858000858 Z" id="Path-40" fill="#DAE4EA" opacity="0.739350818"></path>
                            <g id="Group-4">
                                <path d="M17.0297331,19.4594595 C21.943738,19.4594595 26.1557422,19.4594595 29.6657457,19.4594595 C44.5136135,36.6325559 49.4276184,48.1640874 44.4077604,54.0540541 C37.4344563,54.0540541 12.8177289,54.0540541 2.28771832,54.0540541 C-5.01375667,45.4869901 6.59017813,31.7085373 17.0297331,19.4594595 Z" id="Rectangle" fill="url(#linearGradient-16)" fill-rule="nonzero"></path>
                                <path d="M24.2190242,43.9896537 C19.8196695,46.6996563 12.4885035,50.0299158 2.22552638,53.9804323 C-4.94738364,45.4081903 6.62004355,31.6735051 17.0297416,19.4594595 L29.6657542,19.4594595 C33.3979346,23.7761126 36.5024684,27.7363173 38.9793555,31.3400736 C32.9072974,37.4519387 27.987187,41.6684654 24.2190242,43.9896537 Z" id="Shape" fill="url(#linearGradient-17)" fill-rule="nonzero"></path>
                                <ellipse id="Oval-2" fill="#FFFFFF" cx="22.9320229" cy="38.1681682" rx="12.6360126" ry="11.8918919"></ellipse>
                                <path d="M16.9041769,15.1351351 L29.4278694,15.1351351 C30.6219986,15.1351351 31.5900316,16.1031681 31.5900316,17.2972973 C31.5900316,18.4914265 30.6219986,19.4594595 29.4278694,19.4594595 L16.9041769,19.4594595 C15.7100477,19.4594595 14.7420147,18.4914265 14.7420147,17.2972973 C14.7420147,16.1031681 15.7100477,15.1351351 16.9041769,15.1351351 Z" id="Rectangle" fill="#FFD560" fill-rule="nonzero"></path>
                                <polygon id="Rectangle" fill="url(#linearGradient-18)" fill-rule="nonzero" points="12.6360126 2.16216216 23.1660232 1.73824918e-13 33.6960337 2.16216216 29.4840295 15.1351351 16.8480168 15.1351351"></polygon>
                                <polygon id="Rectangle" fill="#92F1D3" fill-rule="nonzero" transform="translate(13.689014, 9.729730) scale(-1, 1) translate(-13.689014, -9.729730) " points="13.6890137 4.32432432 16.8480168 5.40540541 10.5300105 15.1351351"></polygon>
                                <polygon id="Rectangle" fill="#1ACC94" fill-rule="nonzero" points="32.6430326 4.32432432 35.8020358 5.40540541 29.4840295 15.1351351"></polygon>
                                <polygon id="Path" fill="url(#linearGradient-19)" fill-rule="nonzero" opacity="0.4" points="23.1660232 2.13376197e-14 33.6960337 2.16216216 29.4840295 15.1351351 23.1660232 15.1351351"></polygon>
                                <path d="M23.337283,17.8425208 C23.4185329,17.251312 23.9512199,16.8396652 24.5270726,16.9230818 C25.1029253,17.0064984 25.50388,17.5533904 25.42263,18.1445991 C25.4128684,18.2156289 25.3963166,18.3661564 25.3791726,18.5844003 C25.2566032,20.1447181 25.3439523,21.9064182 25.7918557,23.5425557 C26.2260211,25.1285095 26.9579206,26.3945789 28.028491,27.2579511 C28.4858242,27.626772 28.5653436,28.3063887 28.2061024,28.7759174 C27.8468613,29.2454462 27.184897,29.3270861 26.7275637,28.9582651 C25.2700605,27.7828472 24.3107996,26.1234789 23.7644088,24.1275788 C23.2383323,22.2058847 23.1390867,20.2042504 23.2799862,18.4105886 C23.3006251,18.1478545 23.3218561,17.9547735 23.337283,17.8425208 Z" id="Path-9" fill="#FFD560" fill-rule="nonzero"></path>
                                <path d="M25.6539856,18.7262086 C25.4677259,18.1605952 25.7633431,17.5470551 26.3142652,17.3558284 C26.8651873,17.1646017 27.4627913,17.468102 27.6490511,18.0337154 C28.6841199,21.1768995 30.9705049,22.7027027 34.7490347,22.7027027 C35.3305912,22.7027027 35.8020358,23.1867192 35.8020358,23.7837838 C35.8020358,24.3808484 35.3305912,24.8648649 34.7490347,24.8648649 C30.1035562,24.8648649 26.9915969,22.7881202 25.6539856,18.7262086 Z" id="Path-11" fill="#FFD560" fill-rule="nonzero"></path>
                            </g>
                            <g transform="translate(16.216216, 34.594595)" fill-rule="nonzero">
                                <path d="M12.972973,5.72337043 C12.972973,7.19847119 10.0688741,8.39427663 6.48648649,8.39427663 C2.90409892,8.39427663 0,7.19847119 0,5.72337043 L0,3.05246423 L12.972973,3.05246423 L12.972973,5.72337043 Z" id="Path" fill="#C6D8E4"></path>
                                <ellipse id="Oval" fill="url(#linearGradient-20)" cx="6.48648649" cy="2.6709062" rx="6.48648649" ry="2.6709062"></ellipse>
                            </g>
                        </g>
                        <g id="Group" stroke-width="1" fill="none" fill-rule="evenodd" transform="translate(0.000000, 55.972997)">
                            <g id="Group-39" transform="translate(107.189189, 3.243243)">
                                <rect id="Rectangle" fill="#EEF2F5" x="0" y="28.1081081" width="15.1351351" height="24.8648649" rx="1"></rect>
                                <path d="M0,37.8378378 L15.1351351,37.8378378 L15.1351351,51.972973 C15.1351351,52.5252577 14.6874199,52.972973 14.1351351,52.972973 L1,52.972973 C0.44771525,52.972973 1.04869017e-15,52.5252577 0,51.972973 L0,37.8378378 L0,37.8378378 Z" id="Rectangle" fill="#DBE4EA"></path>
                                <rect id="Rectangle" fill="#EEF2F5" x="18.3783784" y="11.8918919" width="15.1351351" height="41.0810811" rx="1"></rect>
                                <path d="M18.3783784,37.8378378 L33.5135135,37.8378378 L33.5135135,51.972973 C33.5135135,52.5252577 33.0657983,52.972973 32.5135135,52.972973 L19.3783784,52.972973 C18.8260936,52.972973 18.3783784,52.5252577 18.3783784,51.972973 L18.3783784,37.8378378 L18.3783784,37.8378378 Z" id="Rectangle" fill="#DBE4EA"></path>
                                <rect id="Rectangle" fill="#EEF2F5" x="36.7567568" y="18.3783784" width="15.1351351" height="34.5945946" rx="1"></rect>
                                <path d="M36.7567568,37.8378378 L51.8918919,37.8378378 L51.8918919,51.972973 C51.8918919,52.5252577 51.4441766,52.972973 50.8918919,52.972973 L37.7567568,52.972973 C37.204472,52.972973 36.7567568,52.5252577 36.7567568,51.972973 L36.7567568,37.8378378 L36.7567568,37.8378378 Z" id="Rectangle" fill="#DBE4EA"></path>
                                <rect id="Rectangle" fill="#EEF2F5" x="55.1351351" y="0" width="15.1351351" height="52.972973" rx="1"></rect>
                                <path d="M55.1351351,37.8378378 L70.2702703,37.8378378 L70.2702703,51.972973 C70.2702703,52.5252577 69.822555,52.972973 69.2702703,52.972973 L56.1351351,52.972973 C55.5828504,52.972973 55.1351351,52.5252577 55.1351351,51.972973 L55.1351351,37.8378378 L55.1351351,37.8378378 Z" id="Rectangle" fill="#DBE4EA"></path>
                            </g>
                            <path id="Path-37" d="M191.16967,-0.896740161 C191.697271,-1.07467904 192.256592,-0.795549415 192.418947,-0.273286693 C192.482554,-0.0686782973 192.477403,0.153021163 192.404269,0.358534862 L192.404269,0.358534862 L186.824929,16.0368845 C186.638253,16.561458 186.065788,16.8480806 185.546294,16.6770741 C185.400266,16.6290048 185.268461,16.5472642 185.161317,16.4383256 L185.161317,16.4383256 L180.943,12.149 L145.033364,47.4678328 C144.719565,47.776464 144.269718,47.8948866 143.849804,47.7883713 L143.711169,47.7444876 L127.54,41.573 L108.075316,57.1911974 C107.89043,57.3395353 107.667991,57.4316287 107.434371,57.4582059 L107.293068,57.4662162 L74.3571579,57.4662162 C73.666802,57.4662162 73.1071579,56.9065722 73.1071579,56.2162162 C73.1071579,55.5690075 73.5990326,55.0366823 74.2293527,54.9726698 L74.3571579,54.9662162 L106.853,54.966 L126.535173,39.1752752 C126.842793,38.9284649 127.246218,38.8430457 127.623209,38.9382171 L127.763103,38.982409 L143.852,45.122 L179.189,10.367 L174.971814,6.07817821 C174.619968,5.7204404 174.605424,5.15396139 174.919324,4.76004551 L175.004636,4.66538227 C175.116876,4.55499123 175.25252,4.47147995 175.400827,4.42146203 L175.400827,4.42146203 Z" fill-rule="nonzero"></path>
                            <g id="Path-41">
                                <use fill="black" fill-opacity="1" filter="url(#filter-24)" xlink:href="#path-23"></use>
                                <use stroke="#8ED2F3" stroke-width="2.5" xlink:href="#path-23"></use>
                            </g>
                            <g id="Group-9" transform="translate(-0.000000, 37.837838)">
                                <g id="Group-7" transform="translate(34.594595, 28.648649) rotate(63.000000) translate(-34.594595, -28.648649) translate(18.378378, -1.081081)">
                                    <g id="Group-36" transform="translate(0.549153, 0.325966)">
                                        <g id="Group-3" transform="translate(15.593220, 28.885135) rotate(90.000000) translate(-15.593220, -28.885135) translate(-13.055428, 13.750000)">
                                            <path d="M13.1384965,0.0607105723 L55.1700023,0.0607105723 C55.9984294,0.0607105723 56.6700023,0.732283448 56.6700023,1.56071057 L56.6700023,28.2359936 C56.6700023,29.0644207 55.9984294,29.7359936 55.1700023,29.7359936 L13.1384965,29.7359936 C12.6948655,29.7359936 12.2739897,29.5396179 11.9889858,29.1996455 L0.80784363,15.862004 C0.340524672,15.3045535 0.340524672,14.4921507 0.80784363,13.9347002 L11.9889858,0.597058684 C12.2739897,0.257086253 12.6948655,0.0607105723 13.1384965,0.0607105723 Z" id="Rectangle" fill="url(#linearGradient-25)"></path>
                                            <path d="M12.8369242,0.207979573 L28.0322901,0.207979573 L28.0322901,0.207979573 L45.4643744,29.8832626 L12.8458598,29.8832626 C12.3932148,29.8832626 11.9647747,29.6788616 11.6799771,29.3270409 L0.771613887,15.851554 C0.322677448,15.296967 0.326539668,14.5028949 0.780849558,13.9527011 L11.6802772,0.752904914 C11.96523,0.40781164 12.3893893,0.207979573 12.8369242,0.207979573 Z" id="Rectangle" fill="url(#linearGradient-26)" opacity="0.28"></path>
                                        </g>
                                    </g>
                                </g>
                                <g id="Group-2" transform="translate(21.621622, 20.540541)">
                                    <path d="M14.8046496,0 L15.856762,0 C16.3411627,-9.49451461e-16 16.7338471,0.392684355 16.7338471,0.877085055 C16.7338471,1.04427874 16.6860595,1.2079893 16.5961148,1.34892787 L5.33313257,18.9974265 C5.14944879,19.2852492 4.83160727,19.4594595 4.49016667,19.4594595 L3.43805427,19.4594595 C2.95365357,19.4594595 2.56096921,19.0667751 2.56096921,18.5823744 C2.56096921,18.4151807 2.60875679,18.2514702 2.69870148,18.1105316 L13.9616837,0.462032995 C14.1453675,0.174210217 14.463209,6.272162e-17 14.8046496,0 Z" id="Rectangle" fill="#FFFFFF"></path>
                                    <circle id="Oval" fill="#FFFFFF" cx="4.37837838" cy="5.45945946" r="4.37837838"></circle>
                                    <circle id="Oval" fill="#75BDE6" cx="4.43243243" cy="5.51351351" r="1.62162162"></circle>
                                    <circle id="Oval" fill="#FFFFFF" cx="15.1891892" cy="13.9967849" r="4.37837838"></circle>
                                    <circle id="Oval" fill="#5EAFDF" cx="15.2432432" cy="14.0540541" r="1.62162162"></circle>
                                </g>
                            </g>
                        </g>
                    </g>
                </g>
            </g>
        </g>
    </g>
</svg>