<?xml version="1.0" encoding="UTF-8"?>
<svg width="240px" height="160px" viewBox="0 0 240 160" version="1.1" xmlns="http://www.w3.org/2000/svg" xmlns:xlink="http://www.w3.org/1999/xlink">
    <!-- Generator: Sketch 60 (88103) - https://sketch.com -->
    <title>Banner@1x</title>
    <desc>Created with Sketch.</desc>
    <defs>
        <rect id="path-1" x="0" y="0" width="240" height="160"></rect>
    </defs>
    <g id="Banner" stroke="none" stroke-width="1" fill="none" fill-rule="evenodd">
        <g id="banner">
            <mask id="mask-2" fill="white">
                <use xlink:href="#path-1"></use>
            </mask>
            <use id="Mask" fill-opacity="0" fill="#D8D8D8" xlink:href="#path-1"></use>
            <g id="Group-16" mask="url(#mask-2)">
                <g transform="translate(9.000000, 0.000000)">
                    <g id="Group" transform="translate(111.000000, 14.000000)">
                        <path d="M73.5820532,77.3576862 C72.906798,77.4571868 72.2988259,77.6913059 71.7581369,78.3006007 L71.7357092,75.2904151 C71.7326784,75.0919992 71.490217,74.9655749 71.1962325,75.0083017 L70.4930942,75.111314 C70.190071,75.1640207 69.9683654,75.4168874 69.9645283,75.7141706 L70.0136267,83.3856662 C70.0166575,83.5846674 70.2597251,83.7105064 70.5537096,83.6671944 L71.2568478,83.564182 C71.5459831,83.5220406 71.7793522,83.2598272 71.7842015,82.9771285 L71.7848076,82.9771285 L71.7714723,80.5844319 C71.7690476,80.1009761 71.900583,79.7146797 72.1666844,79.4261279 C72.433392,79.1375762 72.7455611,78.9666693 73.1062226,78.9139925 C73.8317885,78.808639 74.1985114,79.2300533 74.2039668,80.1817472 L74.2233637,82.761739 C74.2257883,82.9595696 74.4688559,83.0865791 74.7634466,83.0438524 L75.4665848,82.94084 C75.7611755,82.897528 75.9981815,82.6259499 75.9939385,82.3379835 L76,79.5390904 C75.9945446,78.7711799 75.7599632,78.19115 75.2932249,77.7984153 C74.8276989,77.4062659 74.2567021,77.2587709 73.5820532,77.3576862 M68.637658,78.295333 L68.618261,78.2883094 C68.0824212,78.1021848 67.5817383,78.0758464 66.9410339,78.2005148 C66.2463819,78.3351332 65.6802344,78.6236849 65.2589576,79.0538787 C64.8346501,79.4869989 64.6346194,79.9880136 64.6637147,80.539364 C64.6952347,81.0994938 64.95285,81.483449 65.4292868,81.680109 C65.6250501,81.765499 65.8283107,81.8338594 66.0366527,81.8843779 C66.2124373,81.9235928 66.4670218,81.963393 66.7943448,82.0014374 C67.1113631,82.0388964 67.3586738,82.0980115 67.5277907,82.1764414 C67.6823598,82.2490183 67.7605537,82.3391541 67.766009,82.4532871 C67.7726767,82.5721026 67.7253967,82.6757002 67.6205322,82.7705184 C67.5120307,82.8682631 67.3574615,82.9384989 67.1604616,82.9765432 C66.6400311,83.0811756 66.0990606,83.0326506 65.607496,82.8372424 L65.2395607,82.7049651 C65.0731762,82.6487519 64.888997,82.7158435 64.8025239,82.8641661 L64.412161,83.5606702 C64.3728229,83.6292073 64.3651244,83.7105524 64.3909456,83.7848392 C64.4161718,83.8563142 64.4710779,83.9144208 64.542484,83.9452107 C64.9415495,84.1646311 65.38042,84.3082719 65.8354097,84.3683809 C66.2959132,84.4329029 66.7643976,84.4218213 67.2210769,84.3356042 C67.8817844,84.2068388 68.4230796,83.9200429 68.8340517,83.4845815 C69.2468424,83.0456083 69.4402054,82.525864 69.4074731,81.9382253 C69.3747408,81.3412217 69.1347039,80.9508282 68.6940303,80.7752389 C68.5052629,80.69801 68.309702,80.6372859 68.1096982,80.5937967 C67.8431805,80.5475181 67.5751045,80.5100373 67.3059384,80.4814195 C66.9380032,80.4392781 66.6712956,80.3901131 66.5124833,80.3350951 C66.373068,80.2882713 66.3039665,80.2075002 66.2979049,80.081076 C66.2839634,79.8440304 66.5124833,79.6772206 66.976797,79.5870848 C67.3483692,79.5139226 67.738126,79.5426022 68.1321258,79.6713676 C68.2133504,79.6994619 68.3036673,79.7357504 68.3873165,79.7708682 C68.4891503,79.8083273 68.5643134,79.817692 68.6328087,79.8042302 C68.7334302,79.7849154 68.8128364,79.7176062 68.890424,79.5853289 L69.1553132,79.1317233 C69.2663752,78.9287321 69.2307504,78.6799278 69.0668147,78.513649 C68.992864,78.4240985 68.8061687,78.354448 68.6370518,78.295333 M62.8688938,76.41126 C62.5968227,76.4503321 62.3498178,76.586502 62.1766664,76.792874 C61.9945742,76.994681 61.8953775,77.2539214 61.8978357,77.5215696 C61.899048,77.7925623 61.9948203,78.0085372 62.1839402,78.1677381 C62.3742725,78.3257685 62.6046109,78.3866394 62.8791984,78.3462539 C63.1519676,78.305283 63.382306,78.1794441 63.5702136,77.9640545 C63.7569089,77.7498356 63.8502566,77.5069371 63.8490559,77.2359443 C63.847832,76.9649515 63.7520597,76.749562 63.5635459,76.5903611 C63.3738198,76.4305748 63.1422691,76.3714598 62.8682877,76.41126 M63.3762444,78.8999454 L62.6858354,79.0012019 C62.3973063,79.0433433 62.1645433,79.3096537 62.1687864,79.5923525 L62.226371,84.5059258 C62.2287956,84.7002446 62.467014,84.8243277 62.7561493,84.7827716 L63.4447398,84.6815151 C63.7332689,84.6393737 63.9666381,84.3736486 63.962395,84.0903645 L63.9042042,79.1767912 C63.9017796,78.9824724 63.6641674,78.857804 63.3756383,78.8999454 M60.9140484,79.2874124 L60.1466579,79.3997896 C59.8253964,79.4466134 59.5665688,79.742774 59.5708119,80.0576641 L59.6059688,82.401781 C59.6089996,82.657556 59.5186827,82.8928456 59.3356243,83.1076499 C59.1525659,83.3230394 58.9282891,83.4494637 58.6627938,83.4880933 C58.4045723,83.5261376 58.1815078,83.4670226 57.9936002,83.3101628 C57.8050864,83.1521325 57.708708,82.9431812 57.7056772,82.6803826 L57.6838557,81.2581094 C57.6684291,81.1251596 57.5966385,81.0043255 57.4855655,80.9243585 C57.3744926,80.8443915 57.2340683,80.8124412 57.0977051,80.8361099 L56.3169792,80.9508282 C56.0193578,80.9947255 55.7744717,81.2528418 55.7453763,81.5419788 L55.7605302,82.9654225 C55.7641671,83.2282212 55.6738502,83.4652667 55.4907918,83.6765591 C55.3077334,83.8872663 55.0870935,84.01252 54.8294782,84.0505643 C54.5871177,84.092485 54.3382345,84.0247467 54.154223,83.8667808 C53.9647415,83.7121219 53.8570706,83.4835679 53.8608447,83.2440242 L53.8196262,80.1319969 C53.8190201,79.8288127 53.5880755,79.5449434 53.2910603,79.4600752 C53.2910603,79.4600752 49.7911292,78.6172467 49.5632154,78.5639846 C49.332877,78.5101372 49.1170863,78.7389886 49.0831417,79.0720229 L49.0031295,79.8680276 C48.9691849,80.2016473 49.2152832,80.5387787 49.5516985,80.6166233 L51.8963008,81.1761678 L51.9266084,83.5267229 C51.9375192,84.3157041 52.2290791,84.9484108 52.8012881,85.4248431 C53.3741033,85.9024459 54.0578446,86.0821323 54.8549366,85.965658 C55.590201,85.8579633 56.2242377,85.5202466 56.7558344,84.9530932 C57.3153142,85.3604603 57.9602617,85.5108818 58.6882522,85.4037724 C59.4847381,85.2867128 60.1612056,84.9086106 60.7188669,84.2659538 C61.2765282,83.623297 61.5492974,82.9074781 61.5389928,82.1190822 C61.5389928,82.1190822 61.5026235,79.638591 61.5026235,79.5946937 C61.4995928,79.3781335 61.2347036,79.2405886 60.9140484,79.2874124" id="Shape" fill="#FFFFFF" fill-rule="nonzero"></path>
                        <path d="M47.6371283,146 C47.6371283,146 48.6066451,139.272896 48.5467594,128.972961 C48.5404557,127.815565 48.1754686,116.457101 49.109054,115.621763 C50.0426394,114.787017 50.364761,114.322283 50.364761,114.322283 C50.2928983,109.650074 52.4689529,101.503902 49.154441,101.839576 L48.4118592,102.070463 L48.0235482,99.6313479 C47.9226882,99.0334094 46.8687011,98.8640922 46.7892739,99.1068197 C46.7262364,99.2998177 46.5629692,99.9912951 46.4148311,100.570881 C46.266693,101.149875 44.6434772,103.020653 43.8321846,104.003995 C42.9862213,105.029963 42.7586559,104.80026 42.2732671,106.341876 C41.7885087,107.882899 41.6491958,108.670284 41.75699,109.931875 C41.8736094,111.298845 42.523526,112.36211 41.842721,113.808411 C41.4354987,114.672166 41.4600833,115.170053 41.4361291,115.985262 C41.3630056,118.467003 35.7419514,132.559408 35,146 L47.6371283,146 L47.6371283,146 Z" id="Path" fill="#63CFFC" fill-rule="nonzero"></path>
                        <polygon id="Path" fill="#0084B2" fill-rule="nonzero" points="51.14375 119 52 118.877037 44.85625 73 44 73.1229626"></polygon>
                        <path d="M48.8723492,99.0968356 C48.8723492,99.0968356 48.9034059,99.272259 48.9125402,99.3834751 C48.9247194,99.5141827 48.4095427,99.8977064 48.169614,100.212437 C47.9284675,100.526594 47.465661,101.293641 48.1683961,101.821058 C48.8705223,102.349621 49.7894367,101.886412 49.7894367,101.886412 C49.7894367,101.886412 47.3633564,104.136532 47.1879771,104.684014 C47.0132068,105.230922 47.0625322,105.594381 47.2921086,105.88102 C47.521685,106.16766 48.2426888,106.41417 48.9795254,105.759485 C48.9795254,105.759485 47.190413,107.047643 47.0856725,107.526905 C46.98215,108.006166 46.8481797,108.703273 47.5155954,108.981887 C48.0606109,109.209479 49.2657347,108.502052 49.5263678,108.395422 C49.2907019,108.538742 48.2658291,109.033482 48.0161572,109.463441 C47.8091122,109.821741 48.0076318,110.53834 48.8833104,110.53146 C49.702965,110.525727 49.91001,110.292403 50.6084824,110.061371 C50.7448885,110.889186 51.0743337,113 51.0743337,113 C51.0743337,113 52.0943348,112.180211 52.5017263,110.863389 C52.9085089,109.547713 52.574801,109.740335 52.61621,109.29719 C52.6588369,108.854046 53.1283419,108.407461 52.6551832,107.680543 C52.1820245,106.953052 51.7320061,107.071148 51.7320061,107.071148 C51.7320061,107.071148 52.1253916,106.69737 52.5638398,106.147022 C52.8171655,105.829998 53.1125091,105.489471 52.9566164,105.033141 C52.837261,104.681147 52.5163413,104.358391 52.2520544,104.236856 C51.8227405,104.039075 51.2174383,104.227683 51.084077,104.33202 C51.084077,104.33202 51.5974268,103.857345 51.926263,103.439425 C52.1546215,103.149345 52.4889382,102.591545 52.3415709,102.122029 C52.1942036,101.653087 51.6820717,100.95082 51.1455815,101.036812 C50.7339273,101.102166 50.3782971,101.346956 50.3782971,101.346956 C50.3782971,101.346956 50.8252707,101.010441 50.8715514,100.541499 C50.9403634,99.8340725 50.1809954,99.1742282 49.5622962,99.0377878 C49.0556449,98.9265717 48.8723492,99.0962623 48.8723492,99.0962623" id="Path" fill="#63CFFC" fill-rule="nonzero"></path>
                        <path d="M52,109.743373 C52,109.743373 50.872809,110.528546 50.323236,110.731587 C49.7731236,110.934627 49.3837303,111.277527 48.6577978,111.284938 C47.8822472,111.292249 47.8617528,110.487447 48.0273258,110.092407 C48.2646292,109.528064 49.1566742,109.102353 49.3648539,108.949612 C49.1345618,109.064321 48.0666966,109.820663 47.584,109.577137 C46.9928989,109.279017 46.913618,108.675415 47.0835056,108.151558 C47.1973034,107.80191 47.9690787,106.798975 48.8805393,106.129124 C47.9690787,106.798975 47.6697528,106.611883 47.3909213,106.322964 C46.9988315,105.916882 47.0818876,105.374009 47.3305169,104.9164 C47.6125843,104.396223 49.575191,101.915568 49.575191,101.915568 C49.575191,101.915568 48.784,102.479911 48.1621573,101.915568 C47.5397753,101.351225 47.9065169,100.488761 48.163236,100.194322 C48.4625618,99.8483547 48.8460225,99.520177 48.8363146,99.3803181 C48.8276854,99.2607019 48.785618,99 48.785618,99 M50.7444494,104.601718 L48.8805393,106.129124 M51.3188315,107.533234 L49.3648539,108.950226 M51.5243146,110.718091 C51.5243146,110.718091 51.0281348,110.803356 50.5686292,110.623625 M47.7970337,109.624984 C47.8078202,110.799062 47.3294382,112.108093 46,113 M46.672,105.77641 C46.672,105.77641 47.128809,106.451168 47.4604944,107.532007" id="Shape" stroke="#2FB7EC" stroke-width="0.315" stroke-linecap="round" stroke-linejoin="round"></path>
                        <path d="M47.9093214,101.513495 C47.8862772,102.87019 46.3175481,105.42152 46.3175481,105.42152 C46.3175481,105.42152 45.708607,106.116943 45,105.982826 M49.4187118,101.514116 C49.7188616,101.216078 50,101 50,101" id="Shape" stroke="#2FB7EC" stroke-width="0.315" stroke-linecap="round" stroke-linejoin="round"></path>
                        <path d="M46.3829449,99 C46.3829449,99 46.641586,99.0846088 46.8623229,99.2758983 C47.0334496,99.4242703 46.8567487,100.261775 46.7675621,100.633931 C46.741765,100.743804 46.6493099,100.8186 46.5462679,100.812959 C46.3952081,100.804375 46.1767009,100.773107 46,100.664587 C46,100.664587 46.0094761,99.7847775 46.3829449,99 M48.7893106,100.452451 C48.9938824,100.734481 49.0334589,101.102345 48.9760451,101.151394 L48.4197437,101.625326 C48.1761528,101.833782 47.8221935,101.992577 47.5128276,101.554205 C47.204019,101.115834 47.4492821,100.763297 47.6755931,100.569555 L48.2318944,100.095623 C48.2893083,100.046574 48.5830666,100.170422 48.7893106,100.452451 M48.0278801,104.902998 C48.2363538,105.181962 48.2787174,105.549826 48.2229758,105.599488 L47.6711338,106.080778 C47.43033,106.2923 47.0774855,106.454773 46.7636602,106.020693 C46.4503923,105.586613 46.6911961,105.231011 46.9158348,105.034816 L47.466562,104.553527 C47.5239759,104.503865 47.8194065,104.624034 48.0278801,104.902998 M47.99555,107.908451 C48.1839567,108.204582 48.201794,108.574285 48.141593,108.619655 L47.5590931,109.053122 C47.3037965,109.243799 46.9403611,109.378069 46.6583085,108.918239 C46.3751411,108.458408 46.6399138,108.124878 46.8779305,107.947076 L47.4604304,107.512996 C47.5206314,107.46824 47.8065859,107.612933 47.99555,107.908451 M48.8116073,109.997921 C48.9381408,110.271367 48.913057,110.586504 48.856758,110.615933 L48.3188514,110.904707 C48.0825069,111.03162 47.76255,111.095996 47.5741433,110.672339 C47.3857367,110.247456 47.6454926,110.000986 47.8651146,109.882657 L48.4035786,109.594496 C48.4593203,109.563841 48.6845164,109.723862 48.8110499,109.997308" id="Shape" fill="#2FB7EC" fill-rule="nonzero"></path>
                        <path d="M73,146 L63.9400744,145.921487 C62.5386361,138.791117 62.0092308,123.646516 60.4288984,122.515815 C59.7818475,122.053067 57.9522762,120.768316 57.3737508,119.744083 C56.4538106,118.113163 55.3895422,116.353767 55.3476992,115.305148 C55.3076754,114.327904 54.6497089,112.857578 55.2543104,112.632746 C56.1257369,112.309179 57.1384596,113.999579 57.3021932,115.061283 C57.379815,115.560909 58.4750108,116.8183 58.7970202,117.53443 C58.7970202,117.53443 58.9892556,114.803143 58.867365,113.784859 C58.7266754,112.609549 57.0535607,106.48081 57.8188636,106.010924 C58.8625137,105.370927 59.0874958,106.787128 59.3476503,107.904742 C59.6187203,109.062803 60.8224655,113.220401 61.1335593,113.160327 C61.4446531,113.100253 60.7927508,108.166451 60.7715261,107.127944 C60.756972,106.415977 60.5398734,105.159181 61.3888624,105.009293 C62.2845458,104.850484 62.3736897,106.757983 62.6241414,108.361543 C62.8636776,109.897297 63.0146764,112.96702 63.1923576,112.984863 C63.2075182,112.986648 63.319706,113.009845 63.3366858,112.946202 C63.5289211,112.245537 63.1911448,108.711281 63.2147952,107.846453 C63.2323814,107.214783 63.2220723,105.789661 63.6968997,105.54877 C64.4318816,105.17643 64.7017388,106.325569 64.7199314,106.916792 C64.7369112,107.508611 65.2602523,113.050885 65.2590395,113.345902 C65.258433,113.485084 65.4173153,113.586793 65.5361737,113.476162 C65.6556386,113.366125 65.9327729,110.064433 65.9091225,109.237077 C65.8872913,108.506672 65.9600618,107.592476 66.6380402,107.524075 C67.3730221,107.451511 67.3214763,109.568971 67.4512504,110.620564 C67.5646511,111.543682 67.2638664,114.342774 67.2638664,114.342774 C67.2638664,114.342774 67.8217734,117.800897 67.9115237,118.571748 C67.9703465,119.077321 67.867255,119.712559 67.721714,120.177687 C67.3924276,121.230469 67.423355,122.260649 67.5973978,122.71745 C70.1971234,130.860157 72.1789063,139.989624 73,146 L64.3759183,125" id="Path" fill="#EF5055" fill-rule="nonzero"></path>
                        <path d="M89.2647649,146 L78,146 C78,130.957161 80.2699472,127.292533 81.3120594,117.900014 C81.4024931,117.084934 81.7781876,114.170156 81.8364536,113.542539 C81.959662,112.219723 82.1265699,111.770166 81.8085345,111.036183 C81.4989962,110.323942 79.8596573,108.130807 80.0211028,107.0742 C80.3027219,105.22837 79.8378076,103.240915 80.4459592,102.381761 C81.052897,101.522606 81.2349783,99.951212 81.8431299,100.001163 C82.7189411,100.071682 82.6272935,102.049147 82.212755,102.978232 C82.0063962,103.441306 82.4889117,105.0603 82.4688828,105.842472 C82.4688828,105.842472 83.5486251,103.361385 84.0711985,102.476373 C84.5961996,101.59195 87.9446753,103.469513 88.0891265,103.560013 C88.1006583,103.567652 88.2190112,103.649336 88.2281152,103.584694 C88.3349363,102.804286 91,106.491832 91,106.491832 C91,106.491832 90.0525701,109.856755 89.8116159,110.592502 C89.653812,111.07438 89.2896494,111.593281 88.9886082,111.967619 C88.678947,112.352914 88.4930115,112.817801 88.4538961,113.304538 C88.1807741,131.248051 90.0780615,139.538713 89.2659788,146" id="Path" fill="#2F95C2" fill-rule="nonzero"></path>
                        <path d="M85.7595728,110.935378 L90.3553511,109.255303 C90.8762675,109.063613 91.1333931,108.515201 90.9307564,108.028047 L86.5545653,97.6015932 C86.3494299,97.115524 85.7619813,96.8755245 85.2401528,97.0645961 L80.6437525,98.7446716 C80.1230695,98.9365741 79.8664512,99.4850897 80.0695912,99.9719278 L84.4445382,110.398381 C84.6499387,110.884527 85.237575,111.124489 85.7595728,110.935378" id="Path" fill="#115775" fill-rule="nonzero"></path>
                        <polygon id="Path" fill="#FFFFFF" fill-rule="nonzero" points="85.1384712 110 91 107.680629 86.8615288 97 81 99.3193707"></polygon>
                        <polygon id="Path" fill="#2FB7EC" fill-rule="nonzero" points="86 99.7395865 80.6339038 102 80 100.260413 85.3666699 98"></polygon>
                        <path d="M86.8981571,109.984004 L87.8430856,109.632211 C87.9698623,109.584572 88.0324268,109.448684 87.9831893,109.32791 C87.9330229,109.207168 87.7897198,109.147478 87.6622469,109.194229 L86.7179356,109.546022 C86.5908244,109.593661 86.5281873,109.729969 86.5778319,109.850909 C86.6282422,109.971421 86.7714731,110.030819 86.8987743,109.984004 M82.1105607,98.5478026 L83.1832489,98.149104 C83.2033382,98.1417826 83.2194901,98.1271028 83.2280779,98.108361 C83.2366657,98.0896192 83.2369697,98.068386 83.2289215,98.0494293 C83.2213366,98.0302387 83.2059347,98.0147592 83.1861924,98.0064851 C83.1664502,97.998211 83.1440319,97.9978398 83.123998,98.0054552 L82.0513098,98.4047402 C82.0313286,98.4121911 82.0152863,98.4268844 82.006719,98.4455816 C81.9981517,98.4642787 81.9977625,98.4854449 82.0056373,98.5044148 C82.0216844,98.5436984 82.0692085,98.563047 82.1105607,98.5478026" id="Shape" fill="#123D50" fill-rule="nonzero"></path>
                        <path d="M84.9943312,103.543832 L87.7312715,102.546416 L86.6592279,100 L83.9222876,100.997416 L84.9943312,103.543832 Z M82.0720436,104.607943 L84.8089839,103.611128 L83.7375861,101.064111 L81,102.061527 L82.0720436,104.607943 Z M86.1283726,106.239861 L88.8653129,105.242444 L87.793915,102.696028 L85.0563289,103.693445 L86.1283726,106.239861 Z M83.2067308,107.303972 L85.9443169,106.306555 L84.8722732,103.760139 L82.135333,104.757556 L83.2067308,107.303972 Z M87.2630597,108.935288 L90,107.938473 L88.9286022,105.391456 L86.1916619,106.388872 L87.2630597,108.935288 Z M84.3420637,110 L87.079004,109.002584 L86.0069604,106.456769 L83.2700201,107.453584 L84.3420637,110 Z" id="Shape" fill="#DFF3FB" fill-rule="nonzero"></path>
                        <path d="M80,106 C80.2799661,104.146885 79.8181726,102.152175 80.4214543,101.28963 C81.024736,100.427085 81.2041551,98.8488981 81.8074369,98.8990461 C82.6762348,98.9698432 82.5853211,100.955113 82.1741021,101.887866 C81.9693957,102.352767 82.5215008,104.229481 82.3697773,105.020049 M87.1147506,98.2913706 C87.7842609,97.6766153 88.5501035,98.1185075 88.7048375,98.8388685 C88.8589693,99.5592295 88.545889,99.894926 88.545889,99.894926 C88.545889,99.894926 88.872215,99.6630653 89.4104724,100.114397 C89.9481276,100.565729 89.7452275,101.410575 89.539919,101.642436 C89.539919,101.642436 89.9403006,101.555119 90.3611528,101.999961 C90.7826071,102.444803 90.7290222,103.091417 90.6621916,103.238911 C90.5947589,103.386995 90.2497685,103.748061 90.2497685,103.748061 C90.2497685,103.748061 90.8819499,103.905584 90.975874,104.359866 C91.0704002,104.814738 90.8566627,105.49144 90.8566627,105.49144 C90.8566627,105.49144 90.2292978,105.74867 89.3141399,105.656634 C88.4013904,105.564008 88.2948226,105.281999 88.3002413,104.943943 C88.3104766,104.309718 89.6814073,103.936853 89.6814073,103.936853 C89.6814073,103.936853 88.1286492,104.192903 87.8420603,103.698503 C87.2736991,102.715012 88.7337372,102.043029 88.7337372,102.043029 C88.7337372,102.043029 87.4001354,102.660145 86.9883143,101.646565 C86.8167222,101.222962 87.8173751,100.482542 87.8173751,100.482542 C87.8173751,100.482542 86.7535041,101.395236 86.2266862,101.118537 C85.5385115,100.756291 85.7076953,99.5834185 87.1147506,98.2913706" id="Shape" fill="#2F95C2" fill-rule="nonzero"></path>
                        <path d="M89.9957524,105.320271 C90.0255969,105.637495 89.8906995,105.931787 89.8244445,105.938157 L89.1857705,105.995486 C88.9052315,106.020966 88.5632127,105.950897 88.5232209,105.463595 C88.4850199,104.975019 88.831217,104.842524 89.0914617,104.818955 L89.7301356,104.760352 C89.7957937,104.753982 89.9653109,105.00241 89.9957524,105.320271 M89.5194329,103.095882 C89.6501522,103.416291 89.6012071,103.771098 89.5337583,103.800399 L88.886131,104.088321 C88.6020106,104.214447 88.2235814,104.264132 88.0301885,103.76855 C87.8373926,103.272967 88.1567295,103.012436 88.4205556,102.895866 L89.0681829,102.606669 C89.1350348,102.578005 89.3887137,102.775473 89.5194329,103.095882 M88.6999008,101.155593 C88.8652398,101.458166 88.8556895,101.815521 88.792419,101.853741 L88.1812021,102.221287 C87.9131978,102.383084 87.543125,102.47927 87.295415,102.012353 C87.0488988,101.544798 87.3371975,101.24541 87.5866981,101.095079 L88.1979151,100.727532 C88.2611856,100.689313 88.5351588,100.853657 88.6999008,101.155593 M87.3085467,99.6210708 C87.5562566,99.8503892 87.6547438,100.192456 87.6063955,100.249786 L87.1378357,100.807794 C86.932505,101.0524 86.6107805,101.271527 86.2365295,100.912898 C85.8622785,100.55618 86.0449273,100.172709 86.2359326,99.9453016 L86.7038955,99.3879304 C86.7516469,99.3306008 87.0614336,99.3923893 87.3085467,99.6210708 M81.5491402,100.5944 C81.5491402,100.5944 81.2894924,100.616695 81,100.376548 C81,100.376548 81.2411442,99.445897 81.5980853,99 C81.5980853,99 81.8666865,99.0146509 81.9681581,99.2254965 C81.8708648,99.7159831 81.7377579,100.177805 81.5491402,100.5944" id="Shape" fill="#115775" fill-rule="nonzero"></path>
                        <path d="M98.0687034,65 C98.5943323,68.1340271 100.584345,70.8430612 104.428506,74.7404139 C108.233937,78.5985913 109.668811,82.0228721 108.713458,87.4332239 C106.44188,100.288671 101.89811,102.932413 100.77185,107.619801 C99.4642328,113.069922 100.94706,115.79617 101.047267,118.057061 C101.232928,122.247636 98.9496698,124.242017 96,125" id="Path" stroke="#0084B2" stroke-width="0.9" stroke-linecap="round"></path>
                        <path d="M107.502891,91.4297397 C107.761298,90.8682083 108.869696,90.9348307 108.886749,91.1894233 C108.901177,91.3916697 108.886749,92.1042911 108.886749,92.7027027 C108.886749,93.3011143 110.045648,95.4865658 110.611652,96.6262842 C111.201923,97.8141847 111.491812,97.6404907 111.583632,99.2531088 C111.674796,100.866322 111.613145,101.666385 111.177001,102.875105 C110.704784,104.183759 110.098116,104.224803 110.245028,106.237155 C110.391284,108.247723 111.201923,124.353085 111.619704,129.781023 C112.030926,135.11914 111.999445,143.463591 111.999445,146 L97,145.991077 C97,145.991077 99.3079601,141.169284 99.1544896,135.722905 C98.9983957,130.192059 100.047767,125.547529 101.909088,113.317566 C102.084202,112.164761 102.995187,107.834902 102.26653,106.812963 C101.537217,105.791618 101.270939,105.12361 101.270939,105.12361 C101.913679,103.908941 103.102092,102.116681 103.102092,102.116681 C103.692363,98.3810697 103.626777,92.6378649 105.788481,93.3379946 L106.478442,93.7276164 L107.502891,91.4297397 L107.502891,91.4297397 Z" id="Path" fill="#C4B8DA" fill-rule="nonzero"></path>
                        <path d="M107.837815,91.3907065 C107.837815,91.3907065 107.706298,91.9637044 107.669328,92.0732133 C107.625085,92.2022563 107.679025,92.1253041 107.834179,92.4958585 C107.989333,92.8658211 108.248125,93.7407084 107.438415,94.1118548 C106.628098,94.4812254 105.852934,93.8081896 105.852934,93.8081896 C105.852934,93.8081896 107.645085,96.6187209 107.679025,97.2077013 C107.713571,97.7960897 107.575387,98.1494779 107.282655,98.385662 C106.990529,98.6212541 106.232334,98.7053096 105.680204,97.881329 C105.680204,97.881329 107.092348,99.580197 107.075985,100.085714 C107.059015,100.590047 107.01659,101.319909 106.300214,101.44836 C105.71778,101.553133 104.725643,100.569921 104.500184,100.403586 C104.692915,100.60011 105.56202,101.329972 105.69778,101.818322 C105.810509,102.225577 105.4402,102.899797 104.594731,102.693802 C103.803203,102.501421 104.170482,102.583109 103.553502,102.191836 C103.118949,102.902164 101.937112,105 101.937112,105 C101.937112,105 101.080128,103.619596 101.011036,102.206043 C100.941944,100.79249 101.2171,101.061823 101.286798,100.607213 C101.35589,100.153195 101.011036,99.5973632 101.648622,98.9752342 C102.286208,98.3525133 102.692276,98.572715 102.692276,98.572715 C102.692276,98.572715 102.403786,98.1074501 102.115903,97.4557242 C101.949233,97.0798422 101.746199,96.6708117 102.010446,96.2481665 C102.214086,95.9225994 102.603183,95.670433 102.889249,95.6088712 C103.354105,95.5082414 103.892902,95.8349923 103.99654,95.9699546 C103.99654,95.9699546 103.616533,95.3756468 103.401984,94.8825608 C103.252285,94.5392356 103.066221,93.9029 103.325013,93.4654563 C103.5832,93.0274207 104.252302,92.4396242 104.749279,92.6473952 C105.132922,92.807219 105.415957,93.132786 105.415957,93.132786 C105.415957,93.132786 105.06686,92.6929746 105.138377,92.2129112 C105.246257,91.4866008 106.143848,90.9958825 106.776586,91 C107.294776,91.0035777 107.837209,91.3907065 107.837209,91.3907065" id="Path" fill="#C4B8DA" fill-rule="nonzero"></path>
                        <path d="M108.888645,91 C108.888645,91 108.564499,91.0149634 108.256459,91.1412547 C108.018886,91.2394148 108.010162,92.0785635 108.019558,92.4538462 C108.02221,92.5649233 108.111853,92.6591133 108.234313,92.6794946 C108.412157,92.7094214 108.677245,92.7339615 108.910792,92.6759034 C108.910792,92.6759034 109.125547,91.8379517 108.888645,91 M105.700872,91.7745068 C105.388135,91.9905786 105.247202,92.329949 105.302233,92.3909998 L105.83241,92.9811572 C106.064614,93.2391266 106.439093,93.4791399 106.912897,93.140368 C107.38603,92.8021947 107.189394,92.4059632 106.973297,92.1653514 L106.443791,91.5757925 C106.38876,91.5147418 106.012938,91.5590335 105.700201,91.7745068 M105.453233,96.1905122 C105.137811,96.4029928 104.992851,96.7411662 105.047882,96.8022169 L105.569335,97.3977612 C105.798183,97.6587233 106.168636,97.9017292 106.647137,97.5689427 C107.124968,97.2349591 106.933701,96.8369321 106.721631,96.5945246 L106.198836,95.9995789 C106.145147,95.9373311 105.769325,95.9780316 105.453233,96.1911107 M104.722394,99.0515187 C104.427105,99.2849481 104.310332,99.6320995 104.36939,99.6889605 L104.940505,100.247395 C105.190829,100.492796 105.581415,100.710064 106.029716,100.344957 C106.478018,99.980448 106.253196,99.5967858 106.020992,99.3681447 L105.450548,98.8103083 C105.390148,98.7522502 105.018353,98.8174907 104.722394,99.0515187 M103.233201,100.829772 C103.014419,101.058413 102.964757,101.363068 103.021801,101.404966 L103.57748,101.814964 C103.821093,101.993926 104.179466,102.135779 104.50831,101.780249 C104.837825,101.424718 104.596225,101.125449 104.36939,100.958457 L103.813711,100.549058 C103.755995,100.506562 103.451311,100.601729 103.233201,100.829772" id="Shape" fill="#8888C2" fill-rule="nonzero"></path>
                        <path d="M101,99.3564682 C101,99.3564682 101.935324,100.39335 102.428623,100.729006 C102.922461,101.064063 103.230098,101.489465 103.934964,101.685115 C104.688405,101.89273 104.874067,101.134664 104.793649,100.717638 C104.67923,100.120518 103.898804,99.4857045 103.727714,99.2876619 C103.928488,99.4551904 104.81146,100.448994 105.330665,100.343092 C105.968067,100.213855 106.168301,99.6622078 106.111091,99.12133 C106.072232,98.7593487 105.527121,97.6087867 104.778537,96.7376384 C105.527121,97.6087867 105.857965,97.5094662 106.187731,97.3072354 C106.652964,97.0236335 106.683188,96.4875422 106.536386,95.9885465 C106.367995,95.4225394 104.969056,92.5619898 104.969056,92.5619898 C104.969056,92.5619898 105.62211,93.3015086 106.343708,92.927561 C107.064766,92.5530151 106.885041,91.6411812 106.696681,91.2941579 C106.475938,90.8890978 106.16992,90.4786529 106.20824,90.3488183 C106.241702,90.2375315 106.336152,90 106.336152,90 M103.279212,94.8062738 L104.778537,96.7382367 M102.117748,97.43707 L103.727714,99.2870635 M101.262841,100.40412 C101.262841,100.40412 101.728614,100.61353 102.212737,100.562075 M105.114779,100.333519 C104.862733,101.443993 105.058649,102.809351 106.168841,104 M107,96.9751699 C107,96.9751699 106.417109,97.4957049 105.871998,98.4350613" id="Shape" stroke="#8888C2" stroke-width="0.315" stroke-linecap="round" stroke-linejoin="round"></path>
                        <path d="M107.032907,93.0083418 C106.744668,94.3096643 107.773918,97.1375381 107.773918,97.1375381 C107.773918,97.1375381 108.240707,97.9523906 109,98 M105.480195,92.6354018 C105.239488,92.2746694 105,92 105,92" id="Shape" stroke="#8888C2" stroke-width="0.315" stroke-linecap="round" stroke-linejoin="round"></path>
                        <path d="M104.776435,43.6217587 C108.8194,51.5134269 107.509174,64.8250743 99.526379,68.8224899 C91.544194,72.8199055 79.9126614,65.9894287 75.8684764,58.0977605 C71.8249016,50.2066955 74.4874607,39.5344525 82.470256,35.5364336 C90.4530513,31.539018 100.73225,35.7300905 104.775825,43.6217587" id="Path" fill="#F48020" fill-rule="nonzero"></path>
                        <path d="M99.7828404,68 L99.4939131,68.139712 L99.2201578,68.271872 C99.541408,70.056661 99.2076245,71.3033702 99.0077501,71.8383034 C98.9896668,71.8852105 99.0038941,71.9378989 99.0434823,71.9706317 C99.0830704,72.0033646 99.1397585,72.0093114 99.185856,71.9855674 L101.055967,71.0812155 L102.930036,70.1762343 C102.976353,70.154294 103.003914,70.1075811 102.999548,70.0584223 C102.995181,70.0092635 102.959773,69.9676418 102.910247,69.9534504 C102.344926,69.7879357 101.102802,69.3033491 99.7835,68" id="Path" fill="#F48020" fill-rule="nonzero"></path>
                        <path d="M92,38.6786461 L94.9800571,39 C96.0013538,37.1805874 96.2555136,35.2787456 95.7432019,33.2938776 L93.0166393,33 C94.0252945,35.24888 93.0665398,36.7570931 92,38.6786461" id="Path" fill="#63CFFC" fill-rule="nonzero"></path>
                        <path d="M66,64.334299 L68.5380438,65 C69.6668391,63.3742758 70.1416313,61.5770568 69.9635842,59.6089224 L67.6408261,59 C68.2139516,61.2815759 67.1805802,62.6152955 66,64.3348783" id="Path" fill="#F48020" fill-rule="nonzero"></path>
                        <path d="M47,46.5970902 L44.3732822,46 C43.2608744,47.6644035 42.8242842,49.4812803 43.0635117,51.4529583 L45.4671499,52 C44.8140588,49.7245393 45.8367564,48.3557711 47,46.5970902" id="Path" fill="#EF5055" fill-rule="nonzero"></path>
                        <path d="M109.203081,29 L107.068146,29.457426 C106.844663,31.0889503 107.170937,32.6035258 108.045816,34 L110,33.5811729 C108.71338,32.1000115 108.975555,30.7208204 109.203081,29" id="Path" fill="#5855A4" fill-rule="nonzero"></path>
                        <path d="M93,82.5718504 L90.154898,83 C89.0931783,81.240748 88.7633484,79.371063 89.1660476,77.392126 L91.7701693,77 C90.902768,79.2588583 91.8909791,80.7133858 93,82.5718504" id="Path" fill="#2F95C2" fill-rule="nonzero"></path>
                        <path d="M40,74.3994763 L37.3775848,75 C36.2643574,73.3380855 35.8259942,71.5213849 36.0618981,69.5498982 L38.4615483,69 C37.8117674,71.27524 38.8354112,72.6421298 40,74.3994763" id="Path" fill="#8888C2" fill-rule="nonzero"></path>
                        <path d="M60,31.4994083 L58.0327244,32 C57.1982717,30.6153846 56.8687531,29.1005917 57.0469008,27.4573964 L58.8464115,27 C58.3589643,28.895858 59.1262018,30.035503 59.9994535,31.4994083" id="Path" fill="#F8A35C" fill-rule="nonzero"></path>
                        <path d="M84.3828994,20.0942851 L81.9654505,19.7398246 C81.6175844,18.0687141 81.8924804,16.4889653 82.7888803,15 L85,15.3238138 C83.6487951,16.9226445 84.0249685,18.3312345 84.3828994,20.0942851 M72,31.9163802 C72,32.5148469 72.5277867,33 73.1788445,33 C73.8299023,33 74.357689,32.5148469 74.357689,31.9163802 C74.357689,31.3179135 73.8299023,30.8327604 73.1788445,30.8327604 C72.5277867,30.8327604 72,31.3179135 72,31.9163802" id="Shape" fill="#F17D86" fill-rule="nonzero"></path>
                        <path d="M99.0004019,57.9769014 C98.9878326,58.3395779 99.2708734,58.6783492 99.7400203,58.8621497 C100.209167,59.0459501 100.790833,59.0459501 101.25998,58.8621497 C101.729127,58.6783492 102.012167,58.3395779 101.999598,57.9769014 C101.980774,57.4337615 101.314926,57 100.5,57 C99.6850737,57 99.0192256,57.4337615 99.0004019,57.9769014" id="Path" fill="#C4B8DA" fill-rule="nonzero"></path>
                        <path d="M108,44 C108,44.5522847 108.671573,45 109.5,45 C110.328427,45 111,44.5522847 111,44 C111,43.4477153 110.328427,43 109.5,43 C108.671573,43 108,43.4477153 108,44" id="Path" fill="#F17D86" fill-rule="nonzero"></path>
                        <path d="M93.5446544,25.1209486 C93.5446544,25.7400314 94.0603704,26.2418972 94.6965383,26.2418972 C95.3327062,26.2418972 95.8484222,25.7400314 95.8484222,25.1209486 C95.8484222,24.5018658 95.3327062,24 94.6965383,24 C94.0603704,24 93.5446544,24.5018658 93.5446544,25.1209486 M57.0003086,45.7382678 C56.9906563,46.1448096 57.2080101,46.5245548 57.5682789,46.7305857 C57.9285478,46.9366165 58.3752225,46.9366165 58.7354914,46.7305857 C59.0957603,46.5245548 59.313114,46.1448096 59.3034617,45.7382678 C59.2890066,45.129436 58.7776862,44.6432116 58.1518852,44.6432116 C57.5260842,44.6432116 57.0147638,45.129436 57.0003086,45.7382678 M94.6965383,90.853159 C94.686886,91.2597008 94.9042397,91.639446 95.2645086,91.8454768 C95.6247775,92.0515077 96.0714522,92.0515077 96.4317211,91.8454768 C96.7919899,91.639446 97.0093437,91.2597008 96.9996914,90.853159 C96.9852362,90.2443272 96.4739158,89.7581028 95.8481148,89.7581028 C95.2223138,89.7581028 94.7109934,90.2443272 94.6965383,90.853159" id="Shape" fill="#F8C194" fill-rule="nonzero"></path>
                        <path d="M80,49 C80,49.3572655 80.2858983,49.6873925 80.7499999,49.8660254 C81.2141016,50.0446582 81.7858984,50.0446582 82.2500001,49.8660254 C82.7141017,49.6873925 83,49.3572655 83,49 C83,48.4477151 82.328427,48 81.5,48 C80.671573,48 80,48.4477151 80,49" id="Path" fill="#8888C2" fill-rule="nonzero"></path>
                        <path d="M50.0008003,61.9885825 C49.9882327,62.3471183 50.2712359,62.6820216 50.7403205,62.8637236 C51.209405,63.0454255 51.7909935,63.0454255 52.260078,62.8637236 C52.7291625,62.6820216 53.0121658,62.3471183 52.9995982,61.9885825 C52.9995982,61.4426035 52.3281152,61 51.4997991,61 C50.6714829,61 50,61.4426035 50,61.9885825" id="Path" fill="#5855A4" fill-rule="nonzero"></path>
                        <path d="M103,15.1220357 C103,15.7417189 103.535003,16.2440714 104.194963,16.2440714 C104.854922,16.2440714 105.389925,15.7417189 105.389925,15.1220357 C105.389925,14.5023525 104.854922,14 104.194963,14 C103.535003,14 103,14.5023525 103,15.1220357 M108.610075,68.8779643 C108.610075,69.4976475 109.145078,70 109.805037,70 C110.464997,70 111,69.4976475 111,68.8779643 C111,68.2582811 110.464997,67.7559286 109.805037,67.7559286 C109.145078,67.7559286 108.610075,68.2582811 108.610075,68.8779643" id="Shape" fill="#F48020" fill-rule="nonzero"></path>
                        <path d="M78.0008003,6.98858246 C77.9882327,7.34711821 78.2712359,7.6820216 78.7403205,7.86372354 C79.209405,8.04542549 79.7909935,8.04542549 80.260078,7.86372354 C80.7291625,7.6820216 81.0121658,7.34711821 80.9995982,6.98858246 C80.999598,6.44260342 80.3281151,6 79.4997991,6 C78.671483,6 78,6.44260342 78,6.98858246" id="Path" fill="#63CFFC" fill-rule="nonzero"></path>
                        <path d="M107,1 C107,1.55228475 107.671573,2 108.5,2 C109.328427,2 110,1.55228475 110,1 C110,0.44771525 109.328427,0 108.5,0 C107.671573,0 107,0.44771525 107,1" id="Path" fill="#2F95C2" fill-rule="nonzero"></path>
                        <polygon id="Path-Copy" fill="#2FB7EC" fill-rule="nonzero" transform="translate(26.000000, 88.500000) rotate(-19.000000) translate(-26.000000, -88.500000) " points="44.8130575 102 4 97.3196942 7.18765352 75 48 79.6809429"></polygon>
                        <path d="M37.8374744,87.6599957 C37.0364011,87.5696161 36.2661383,87.6397709 35.4478684,88.1182143 L36.4338048,84.9852632 C36.4968588,84.7785908 36.2632722,84.5776067 35.9143252,84.5384211 L35.0802918,84.4436173 C34.7182687,84.412077 34.3817274,84.6113931 34.2777855,84.9189005 L31.7563392,92.8982242 C31.6925686,93.1048966 31.9261553,93.3065128 32.2751023,93.3456984 L33.1091356,93.4398702 C33.4638957,93.4708117 33.7953118,93.279954 33.9059098,92.9810196 L33.9073428,92.9810196 L34.6955187,90.4921026 C34.8545869,89.9902743 35.1340311,89.6262275 35.5338512,89.4031224 C35.9329548,89.1793854 36.3463889,89.0921658 36.7727204,89.1401998 C37.6346982,89.2368997 37.9091267,89.7810738 37.5952894,90.7708259 L36.7505082,93.4556708 C36.6874541,93.6617112 36.9210408,93.8626953 37.2699877,93.902513 L38.1033046,93.9966848 C38.4657874,94.028474 38.8028138,93.8287835 38.9065275,93.5207695 L39.853055,90.6166117 C40.1052713,89.8183633 40.0329024,89.1484161 39.6352319,88.6067701 C39.2375613,88.0670202 38.6378311,87.7510074 37.8374744,87.6599957 M31.9017935,87.2182098 L31.8824474,87.2055693 C31.3364564,86.8585872 30.7754185,86.6873083 30.0051557,86.6342181 C29.1696893,86.5760718 28.430237,86.7119573 27.8068616,87.0387145 C27.1777539,87.3673679 26.7822329,87.8300106 26.631763,88.4114742 C26.478427,89.0017862 26.6425109,89.4739093 27.1182825,89.8145711 C27.3439874,89.9795298 27.5532122,90.1090951 27.7402249,90.2007388 C27.9258045,90.2917505 28.201666,90.4055151 28.5606443,90.5388725 C28.9095913,90.6684378 29.1696893,90.8005311 29.3359228,90.9307284 C29.4878258,91.0495492 29.5458642,91.1658419 29.5150537,91.2865588 C29.4828101,91.4116999 29.3932447,91.5052397 29.2427747,91.5741305 C29.0851395,91.6449174 28.8866625,91.6727265 28.6502098,91.6562938 C28.0235519,91.6160137 27.425008,91.4108186 26.9319864,91.0672459 L26.5579611,90.8245481 C26.4960099,90.7850954 26.4228063,90.7616747 26.3465866,90.7569214 C26.2212862,90.7470914 26.0974743,90.7866572 26.0083875,90.8649977 L25.3305563,91.4761665 C25.2624715,91.5362721 25.2260829,91.6188081 25.230243,91.7036958 C25.2355836,91.7847506 25.2783045,91.8603448 25.3484694,91.9128962 C25.7282435,92.2550517 26.1789791,92.5296897 26.6761875,92.7218891 C27.2021157,92.9260333 27.7366423,93.0486463 28.2625705,93.0853038 C29.0557621,93.14029 29.768703,92.9987163 30.3813306,92.6624787 C30.9814545,92.3460601 31.4059209,91.8242661 31.5535631,91.2214602 C31.7162139,90.5925947 31.5750588,90.1179434 31.1329638,89.8095149 C30.94433,89.6754111 30.7424134,89.5565334 30.529651,89.4543165 C30.2424419,89.3297254 29.950401,89.2139945 29.6540592,89.1073344 C29.2499399,88.9581764 28.9633305,88.8305072 28.8013962,88.7293831 C28.6580915,88.6396355 28.6072183,88.5359833 28.642328,88.4026259 C28.7068151,88.1523437 29.0220855,88.0455314 29.5795408,88.0834529 C30.027368,88.1150542 30.4608647,88.2559959 30.8657005,88.5018539 C30.9481007,88.554944 31.0390992,88.6181466 31.1214994,88.6794531 C31.2246788,88.7464478 31.307079,88.7780491 31.3894792,88.7837373 C31.5105717,88.7919536 31.6237824,88.7445517 31.7549062,88.6295231 L32.2098986,88.233875 C32.4037696,88.0550433 32.4469904,87.7871594 32.3173771,87.56772 C32.2622048,87.4539554 32.0737591,87.3275502 31.9017935,87.2182098 M25.977577,83.6112395 C25.6554907,83.5739698 25.3292664,83.6445551 25.063293,83.8090635 C24.7781166,83.9784464 24.5903875,84.2040795 24.500822,84.486595 C24.4112566,84.7684784 24.4477993,85.0193926 24.6090171,85.2387055 C24.7709514,85.4580184 25.0138529,85.5863196 25.338438,85.6242411 C25.6607648,85.660465 25.9868121,85.5892418 26.2527221,85.424521 C26.5278347,85.2676574 26.7278137,85.026913 26.8144765,84.7482536 C26.9040419,84.4663702 26.8682158,84.214824 26.706998,83.994879 C26.5450637,83.7761982 26.3014457,83.647897 25.977577,83.6112395 M25.717479,86.3409582 L24.8999256,86.2486825 C24.5449738,86.2174418 24.2148605,86.4128903 24.1131828,86.7144854 L22.5282328,91.832629 C22.4658952,92.0348772 22.6944662,92.2327012 23.0369645,92.2712548 L23.8538013,92.3635305 C24.1962995,92.4027161 24.5502622,92.1928836 24.6412607,91.8977276 C24.6412607,91.8977276 26.221195,86.7953847 26.2254942,86.77832 C26.2878317,86.5760718 26.0599772,86.3795118 25.717479,86.3409582 M22.7890474,86.0382179 L21.8790625,85.9351978 C21.4843486,85.9013823 21.1176079,86.1184554 21.0034707,86.4534588 L20.2554202,88.8975019 C20.17302,89.1642167 19.9917395,89.3828976 19.7122953,89.5535445 C19.4314181,89.7241915 19.1326278,89.7918182 18.818074,89.7564248 C18.5121184,89.7216634 18.2792483,89.5965223 18.117314,89.3791055 C17.9560962,89.1623207 17.9181204,88.9177267 18.0026702,88.6434276 L18.4555131,87.1594314 C18.4827131,87.0169745 18.4416073,86.8709523 18.3420201,86.756265 C18.2424329,86.6415776 18.0933132,86.5685307 17.9303013,86.5545829 L17.0052695,86.4496666 C16.6527399,86.409849 16.2873129,86.6083051 16.1554726,86.8996689 L15.6954645,88.382401 C15.6128534,88.6547516 15.4185374,88.8903432 15.1501901,89.0434998 C14.8707459,89.2109866 14.5776878,89.2773493 14.2724488,89.2419559 C13.9830017,89.2166393 13.722788,89.0754275 13.5666731,88.8589484 C13.4029795,88.6439593 13.3577159,88.3753885 13.4434311,88.1276947 L14.4408318,84.8854032 C14.5418616,84.5700224 14.3749116,84.2091357 14.0653735,84.0359607 C14.0653735,84.0359607 10.3709782,82.1594766 10.1302263,82.0387597 C9.88660829,81.9167787 9.56417271,82.0924819 9.41370277,82.4287195 L9.05544101,83.2326561 C8.90497107,83.5688938 9.07120452,83.9898228 9.42803324,84.1680541 L11.9043385,85.4194648 L11.1498393,87.8685642 C10.8969065,88.6901975 11.0144163,89.4309316 11.5052349,90.0901343 C11.9967701,90.749337 12.7132936,91.1329766 13.6583881,91.2391569 C14.5303972,91.3371209 15.3637141,91.16837 16.1590552,90.7316403 C16.6584721,91.315 17.341319,91.6550298 18.2032968,91.7523617 C19.1483913,91.8598061 20.0447623,91.659454 20.8938426,91.1519374 C21.7436395,90.6444208 22.2953626,89.9788978 22.549012,89.1578965 L23.3558175,86.5255097 C23.4246037,86.3005086 23.1695213,86.0811957 22.7897639,86.03885" id="Shape" fill="#FFFFFF" fill-rule="nonzero" transform="translate(24.500000, 88.000000) rotate(-20.000000) translate(-24.500000, -88.000000) "></path>
                    </g>
                    <g id="Group-2">
                        <polygon id="Path" fill="#2FB7EC" fill-rule="nonzero" points="94.8130575 108 54 103.319694 57.1876535 81 98 85.6809429"></polygon>
                        <path d="M87.8374744,92.6599957 C87.0364011,92.5696161 86.2661383,92.6397709 85.4478684,93.1182143 L86.4338048,89.9852632 C86.4968588,89.7785908 86.2632722,89.5776067 85.9143252,89.5384211 L85.0802918,89.4436173 C84.7182687,89.412077 84.3817274,89.6113931 84.2777855,89.9189005 L81.7563392,97.8982242 C81.6925686,98.1048966 81.9261553,98.3065128 82.2751023,98.3456984 L83.1091356,98.4398702 C83.4638957,98.4708117 83.7953118,98.279954 83.9059098,97.9810196 L83.9073428,97.9810196 L84.6955187,95.4921026 C84.8545869,94.9902743 85.1340311,94.6262275 85.5338512,94.4031224 C85.9329548,94.1793854 86.3463889,94.0921658 86.7727204,94.1401998 C87.6346982,94.2368997 87.9091267,94.7810738 87.5952894,95.7708259 L86.7505082,98.4556708 C86.6874541,98.6617112 86.9210408,98.8626953 87.2699877,98.902513 L88.1033046,98.9966848 C88.4657874,99.028474 88.8028138,98.8287835 88.9065275,98.5207695 L89.853055,95.6166117 C90.1052713,94.8183633 90.0329024,94.1484161 89.6352319,93.6067701 C89.2375613,93.0670202 88.6378311,92.7510074 87.8374744,92.6599957 M81.9017935,92.2182098 L81.8824474,92.2055693 C81.3364564,91.8585872 80.7754185,91.6873083 80.0051557,91.6342181 C79.1696893,91.5760718 78.430237,91.7119573 77.8068616,92.0387145 C77.1777539,92.3673679 76.7822329,92.8300106 76.631763,93.4114742 C76.478427,94.0017862 76.6425109,94.4739093 77.1182825,94.8145711 C77.3439874,94.9795298 77.5532122,95.1090951 77.7402249,95.2007388 C77.9258045,95.2917505 78.201666,95.4055151 78.5606443,95.5388725 C78.9095913,95.6684378 79.1696893,95.8005311 79.3359228,95.9307284 C79.4878258,96.0495492 79.5458642,96.1658419 79.5150537,96.2865588 C79.4828101,96.4116999 79.3932447,96.5052397 79.2427747,96.5741305 C79.0851395,96.6449174 78.8866625,96.6727265 78.6502098,96.6562938 C78.0235519,96.6160137 77.425008,96.4108186 76.9319864,96.0672459 L76.5579611,95.8245481 C76.4960099,95.7850954 76.4228063,95.7616747 76.3465866,95.7569214 C76.2212862,95.7470914 76.0974743,95.7866572 76.0083875,95.8649977 L75.3305563,96.4761665 C75.2624715,96.5362721 75.2260829,96.6188081 75.230243,96.7036958 C75.2355836,96.7847506 75.2783045,96.8603448 75.3484694,96.9128962 C75.7282435,97.2550517 76.1789791,97.5296897 76.6761875,97.7218891 C77.2021157,97.9260333 77.7366423,98.0486463 78.2625705,98.0853038 C79.0557621,98.14029 79.768703,97.9987163 80.3813306,97.6624787 C80.9814545,97.3460601 81.4059209,96.8242661 81.5535631,96.2214602 C81.7162139,95.5925947 81.5750588,95.1179434 81.1329638,94.8095149 C80.94433,94.6754111 80.7424134,94.5565334 80.529651,94.4543165 C80.2424419,94.3297254 79.950401,94.2139945 79.6540592,94.1073344 C79.2499399,93.9581764 78.9633305,93.8305072 78.8013962,93.7293831 C78.6580915,93.6396355 78.6072183,93.5359833 78.642328,93.4026259 C78.7068151,93.1523437 79.0220855,93.0455314 79.5795408,93.0834529 C80.027368,93.1150542 80.4608647,93.2559959 80.8657005,93.5018539 C80.9481007,93.554944 81.0390992,93.6181466 81.1214994,93.6794531 C81.2246788,93.7464478 81.307079,93.7780491 81.3894792,93.7837373 C81.5105717,93.7919536 81.6237824,93.7445517 81.7549062,93.6295231 L82.2098986,93.233875 C82.4037696,93.0550433 82.4469904,92.7871594 82.3173771,92.56772 C82.2622048,92.4539554 82.0737591,92.3275502 81.9017935,92.2182098 M75.977577,88.6112395 C75.6554907,88.5739698 75.3292664,88.6445551 75.063293,88.8090635 C74.7781166,88.9784464 74.5903875,89.2040795 74.500822,89.486595 C74.4112566,89.7684784 74.4477993,90.0193926 74.6090171,90.2387055 C74.7709514,90.4580184 75.0138529,90.5863196 75.338438,90.6242411 C75.6607648,90.660465 75.9868121,90.5892418 76.2527221,90.424521 C76.5278347,90.2676574 76.7278137,90.026913 76.8144765,89.7482536 C76.9040419,89.4663702 76.8682158,89.214824 76.706998,88.994879 C76.5450637,88.7761982 76.3014457,88.647897 75.977577,88.6112395 M75.717479,91.3409582 L74.8999256,91.2486825 C74.5449738,91.2174418 74.2148605,91.4128903 74.1131828,91.7144854 L72.5282328,96.832629 C72.4658952,97.0348772 72.6944662,97.2327012 73.0369645,97.2712548 L73.8538013,97.3635305 C74.1962995,97.4027161 74.5502622,97.1928836 74.6412607,96.8977276 C74.6412607,96.8977276 76.221195,91.7953847 76.2254942,91.77832 C76.2878317,91.5760718 76.0599772,91.3795118 75.717479,91.3409582 M72.7890474,91.0382179 L71.8790625,90.9351978 C71.4843486,90.9013823 71.1176079,91.1184554 71.0034707,91.4534588 L70.2554202,93.8975019 C70.17302,94.1642167 69.9917395,94.3828976 69.7122953,94.5535445 C69.4314181,94.7241915 69.1326278,94.7918182 68.818074,94.7564248 C68.5121184,94.7216634 68.2792483,94.5965223 68.117314,94.3791055 C67.9560962,94.1623207 67.9181204,93.9177267 68.0026702,93.6434276 L68.4555131,92.1594314 C68.4827131,92.0169745 68.4416073,91.8709523 68.3420201,91.756265 C68.2424329,91.6415776 68.0933132,91.5685307 67.9303013,91.5545829 L67.0052695,91.4496666 C66.6527399,91.409849 66.2873129,91.6083051 66.1554726,91.8996689 L65.6954645,93.382401 C65.6128534,93.6547516 65.4185374,93.8903432 65.1501901,94.0434998 C64.8707459,94.2109866 64.5776878,94.2773493 64.2724488,94.2419559 C63.9830017,94.2166393 63.722788,94.0754275 63.5666731,93.8589484 C63.4029795,93.6439593 63.3577159,93.3753885 63.4434311,93.1276947 L64.4408318,89.8854032 C64.5418616,89.5700224 64.3749116,89.2091357 64.0653735,89.0359607 C64.0653735,89.0359607 60.3709782,87.1594766 60.1302263,87.0387597 C59.8866083,86.9167787 59.5641727,87.0924819 59.4137028,87.4287195 L59.055441,88.2326561 C58.9049711,88.5688938 59.0712045,88.9898228 59.4280332,89.1680541 L61.9043385,90.4194648 L61.1498393,92.8685642 C60.8969065,93.6901975 61.0144163,94.4309316 61.5052349,95.0901343 C61.9967701,95.749337 62.7132936,96.1329766 63.6583881,96.2391569 C64.5303972,96.3371209 65.3637141,96.16837 66.1590552,95.7316403 C66.6584721,96.315 67.341319,96.6550298 68.2032968,96.7523617 C69.1483913,96.8598061 70.0447623,96.659454 70.8938426,96.1519374 C71.7436395,95.6444208 72.2953626,94.9788978 72.549012,94.1578965 L73.3558175,91.5255097 C73.4246037,91.3005086 73.1695213,91.0811957 72.7897639,91.03885" id="Shape" fill="#FFFFFF" fill-rule="nonzero"></path>
                        <path d="M57.9080439,160 C57.2082634,155.835186 56.2074398,141.924145 55.0712916,133.39971 C54.9034022,132.130197 54.5357823,127.297287 53.4430537,126.395815 C52.3488778,125.493689 51.968232,124.988368 51.968232,124.988368 C51.929878,119.827947 49.2219374,110.883174 53.0349087,111.180614 L53.8924474,111.420527 L54.2752642,108.718072 C54.3765768,108.05586 55.5807492,107.846017 55.6784434,108.112079 C55.7558752,108.323882 55.9606713,109.084152 56.1459286,109.720216 C56.3311859,110.356934 58.243099,112.386063 59.1990556,113.454886 C60.1962608,114.567508 60.4509896,114.309291 61.0480102,116.00045 C61.6450307,117.691609 61.8259461,118.556473 61.7340411,119.952807 C61.6348995,121.464194 61.0870879,122.561127 61.8657474,124.662165 C62.6436833,126.763202 67.7563503,140.717388 69.4627436,146.495569 C70.9238158,151.445494 72.3327843,155.352091 73,160 L57.9080439,160 L57.9080439,160 Z" id="Path" fill="#2F95C2" fill-rule="nonzero"></path>
                        <polygon id="Path" fill="#0084B2" fill-rule="nonzero" points="50.8599785 131 50 130.885545 56.1406474 81 57 81.1144552"></polygon>
                        <path d="M52.9459528,108.101114 C52.9459528,108.101114 52.9194421,108.302424 52.912212,108.429223 C52.9037767,108.578898 53.4213372,109.004393 53.6665608,109.357339 C53.9111819,109.710284 54.3859637,110.574347 53.7027117,111.192002 C53.0206647,111.809003 52.1000217,111.301807 52.1000217,111.301807 C52.1000217,111.301807 54.5504503,113.811641 54.736025,114.432564 C54.9215996,115.051525 54.880026,115.467217 54.6595055,115.798593 C54.438985,116.130624 53.7316324,116.428013 52.9881289,115.698592 C52.9881289,115.698592 54.7866362,117.126714 54.9005116,117.670511 C55.0143869,118.214309 55.1620031,119.005822 54.5076718,119.338506 C53.9738434,119.609751 52.7658008,118.831963 52.5061168,118.715622 C52.7410977,118.872487 53.7665783,119.414977 54.0238522,119.898643 C54.2371425,120.30257 54.0557855,121.124148 53.1893689,121.135913 C52.3783836,121.147024 52.1681059,120.88689 51.472201,120.639175 C51.3372788,121.759036 51.2053275,122.879315 51.0763487,124 C51.0763487,124 50.0490605,123.087571 49.6176598,121.596703 C49.1856565,120.105835 49.5200523,120.318256 49.4688386,119.814328 C49.4176248,119.309747 48.9428429,118.811702 49.3947292,117.971169 C49.8466155,117.131943 50.2942842,117.256781 50.2942842,117.256781 C50.2942842,117.256781 49.8966242,116.838475 49.4507631,116.222128 C49.1934892,115.866568 48.8934367,115.484864 49.0374378,114.960675 C49.1483006,114.557402 49.4579933,114.182234 49.7170748,114.037788 C50.1376302,113.802491 50.7407478,114.0038 50.8739036,114.119488 C50.8739036,114.119488 50.3557407,113.589416 50.0213448,113.121437 C49.7893766,112.795943 49.445943,112.167177 49.5815089,111.628608 C49.7164722,111.090693 50.2081245,110.278919 50.7401453,110.364541 C51.1498555,110.429901 51.5065444,110.701146 51.5065444,110.701146 C51.5065444,110.701146 51.0564657,110.327285 51.0004318,109.794599 C50.9160797,108.989361 51.6529555,108.219417 52.2620982,108.050787 C52.7609807,107.912223 52.9459528,108.101114 52.9459528,108.101114" id="Path" fill="#2F95C2" fill-rule="nonzero"></path>
                        <path d="M49,119.649273 C49,119.649273 50.5074321,120.465654 51.2387183,120.67041 C51.9692924,120.874505 52.4905207,121.233157 53.4496662,121.222589 C54.4736093,121.209379 54.4814419,120.342801 54.2528705,119.922721 C53.9260347,119.321664 52.7376057,118.885733 52.45919,118.727213 C52.7660881,118.844122 54.1937695,119.630779 54.8253672,119.356671 C55.5993769,119.019815 55.6883845,118.36856 55.4512684,117.809115 C55.2917668,117.43395 54.2478861,116.375826 53.0302626,115.677675 C54.2478861,116.375826 54.6395194,116.166446 55.000534,115.848085 C55.5075211,115.400264 55.3850467,114.817701 55.0453939,114.332232 C54.6608812,113.779392 52.0091678,111.159841 52.0091678,111.159841 C52.0091678,111.159841 53.0680018,111.747028 53.8747664,111.123514 C54.6815309,110.499339 54.17668,109.581242 53.8313307,109.270145 C53.4268803,108.905548 52.9127726,108.562748 52.9227414,108.411493 C52.9368959,108.27379 52.9558943,108.136553 52.9797063,108 M50.5316422,114.081902 L53.0295505,115.677675 M49.8452158,117.252312 L52.4599021,118.726552 M49.6515354,120.686262 C49.6515354,120.686262 50.3094793,120.764861 50.9118825,120.560106 M54.5462394,119.412814 C54.5604806,120.677015 55.223409,122.073316 57,123 M55.9361816,115.240423 C55.9361816,115.240423 55.3501558,115.978203 54.9385848,117.151915" id="Shape" stroke="#0084B2" stroke-width="0.315" stroke-linecap="round" stroke-linejoin="round"></path>
                        <g id="Group" transform="translate(52.000000, 109.000000)" fill="#115775" fill-rule="nonzero">
                            <path d="M0.946356413,0 C0.946356413,0 0.639689747,0.0986666667 0.379689747,0.312666667 C0.178356413,0.478 0.408356413,1.384 0.52302308,1.786 C0.556817088,1.90509653 0.66953847,1.98414066 0.79302308,1.97533333 C0.97302308,1.962 1.23368975,1.922 1.44168975,1.8 C1.44168975,1.8 1.41035641,0.844 0.946356413,0 M1.23912554,5.41251211 C1.00045887,5.72451211 0.961125538,6.12451211 1.03112554,6.17651211 L1.70712554,6.67851211 C2.00312554,6.89851211 2.43112554,7.06251211 2.7897922,6.57784545 C3.14912554,6.09317878 2.84845887,5.71651211 2.57245887,5.51117878 L1.89712554,5.01051211 C1.82712554,4.95851211 1.47845887,5.10051211 1.23912554,5.41251211 M1.24650665,8.4055627 C1.00383998,8.71422937 0.960506646,9.11422937 1.02983998,9.1675627 L1.69917331,9.67689603 C1.99317331,9.90022937 2.41917331,10.068896 2.78383998,9.58889603 C3.14850665,9.1095627 2.85183998,8.72889603 2.57917331,8.52089603 L1.90917331,8.01089603 C1.83983998,7.95822937 1.48917331,8.0975627 1.24650665,8.4055627 M0.657333333,11.304 C0.438666667,11.63 0.426,12.0333333 0.499333333,12.08 L1.206,12.538 C1.51533333,12.7373333 1.95266667,12.8733333 2.28,12.3673333 C2.60733333,11.8606667 2.28266667,11.504 1.99466667,11.318 L1.288,10.8606667 C1.21466667,10.8133333 0.876,10.978 0.657333333,11.304" id="Shape"></path>
                        </g>
                        <path d="M95.9494609,145.277764 C96.6206535,155.888385 97.076054,157.279039 96.9894485,160 L86.0194197,160 C86.5267835,154.47054 87.2780862,150.065143 87.5963613,147.66648 C87.9283491,145.167679 88.279823,142.573382 87.0096091,141.006989 C86.4437866,140.308015 84.5413527,138.764833 84.1487411,137.614244 C83.463836,135.604857 81.9042155,133.807683 82.0947476,132.645821 C82.2867231,131.483958 81.6400687,129.800848 82.3184784,129.562109 C83.2935119,129.217264 84.2526677,131.269756 84.3053527,132.411724 C84.3320561,132.979392 85.7141353,134.394583 86.1110772,135.199664 C86.1110772,135.199664 85.9400313,132.165027 86.0280803,131.016427 C86.1161292,129.868491 84.3977319,122.637353 85.2464657,122.128043 C86.4040924,121.433711 86.7209242,123.018672 87.0659027,124.270062 C87.3704654,125.37423 88.0647527,129.235169 88.4609728,130.271694 C88.5302572,130.453401 88.7568749,130.435496 88.7785263,130.324747 C88.8290462,130.077387 88.616141,124.029997 88.7532664,122.876755 C88.8550278,122.024589 88.8254376,121.003317 89.5688014,121 C90.5950765,120.998012 90.6658043,123.090294 90.7213761,124.912668 C90.7762263,126.699894 90.7386972,130.100598 90.9068562,130.206704 C91.0064525,130.269705 91.3932904,130.235883 91.4106115,130.164925 C91.5982567,129.387034 91.497217,124.567823 91.5231986,124.31582 C91.5520671,124.040607 91.5376329,122.209612 92.1871741,121.889967 C93.0055959,121.488753 93.243761,122.763354 93.2892289,123.423865 C93.3354185,124.083713 93.2906724,130.330716 93.3022198,130.658982 C93.3072717,130.814162 93.8348435,131.113249 93.9647518,130.992553 C94.0953817,130.871194 94.5204703,126.067899 94.5731553,125.589758 C94.6626477,124.776056 95.0083479,123.894048 95.6708799,124.064481 C96.4755893,124.270062 96.3146474,126.756926 96.192678,127.795441 C96.0699869,128.833955 96.2446413,132.177627 96.2446413,132.177627 C96.2446413,132.177627 96.5838461,137.774729 96.0007025,139.994338 C95.5691185,141.6423 95.6889227,142.444065 95.9501826,145.277764" id="Path" fill="#F48020" fill-rule="nonzero"></path>
                        <path d="M21.727925,160 L36,160 C36,152.559011 29.556483,120.033392 30.8259789,118.244624 C31.3451817,117.513152 33.5435404,115.200316 33.4602579,114.014128 C33.3139508,111.941407 34.1032591,109.779052 33.4482532,108.770171 C32.7924971,107.76129 32.7407268,106.001309 31.985932,106 C30.8995076,105.998692 30.7974678,108.200303 31.2063775,109.269377 C31.4097069,109.801951 30.6391559,111.552772 30.5791325,112.422948 C30.5791325,112.422948 29.5197186,109.571649 28.9705041,108.541831 C28.4227902,107.511359 24.0935991,109.286388 23.9060258,109.37406 C23.8895193,109.380603 23.734959,109.461078 23.7312075,109.389108 C23.6861899,108.513698 20,112.358176 20,112.358176 C20,112.358176 20.8005627,116.177792 21.0173974,117.016563 C21.1599531,117.566148 21.5516061,118.174617 21.8817351,118.617557 C22.2216178,119.073581 22.3979367,119.605501 22.3941852,120.150506 C22.0280422,136.144739 20.8305744,150.18729 21.727925,160" id="Path" fill="#F17D86" fill-rule="nonzero"></path>
                        <path d="M25.9373241,117.888626 L20.671917,115.553277 C20.0753381,115.287033 19.8305277,114.637794 20.1242081,114.100747 L26.4450651,102.603492 C26.7414964,102.067666 27.4643488,101.847786 28.0622867,102.111559 L33.3276939,104.446243 C33.9243177,104.712773 34.1693408,105.361997 33.8761429,105.899438 L27.5552859,117.396694 C27.258267,117.932309 26.5355045,118.152061 25.9373241,117.888626" id="Path" fill="#2F95C2" fill-rule="nonzero"></path>
                        <polygon id="Path" fill="#FFFFFF" fill-rule="nonzero" points="27.8767397 118 21 114.990382 27.1232603 104 34 107.009618"></polygon>
                        <polygon id="Path" fill="#2FB7EC" fill-rule="nonzero" points="26 105.895156 31.2230383 109 32 107.104844 26.7775416 104"></polygon>
                        <path d="M24.2040861,116.980631 L23.1580255,116.50383 C23.0178718,116.439186 22.9602965,116.282516 23.0289523,116.152605 C23.0992862,116.023553 23.2693294,115.970987 23.4097893,116.034876 L24.4558498,116.51037 C24.5846341,116.580205 24.6331215,116.729883 24.5669809,116.853425 C24.5008402,116.976967 24.3425062,117.032468 24.2040861,116.980631 M30.8655415,104.703472 L29.6783514,104.162573 C29.6323294,104.141623 29.6134372,104.090231 29.6361544,104.047788 C29.6588717,104.005344 29.7145959,103.987921 29.7606179,104.008872 L30.947808,104.549771 C30.970019,104.559636 30.987021,104.577293 30.9950164,104.5988 C31.0030118,104.620307 31.0013347,104.643871 30.9903596,104.664229 C30.9795203,104.684759 30.960244,104.700448 30.9368094,104.707816 C30.9133749,104.715184 30.8877208,104.71362 30.8655415,104.703472" id="Shape" fill="#0084B2" fill-rule="nonzero"></path>
                        <path d="M27.6711045,109.970811 L24.8997419,108.657845 L26.2684418,106 L29.0411629,107.312966 L27.6711045,109.970811 Z M30.6306208,111.371699 L27.858579,110.058733 L29.2272789,107.401539 L32,108.713854 L30.6306208,111.371699 Z M26.2222524,112.78431 L23.4495313,111.471995 L24.8189105,108.813499 L27.5909523,110.126465 L26.2222524,112.78431 Z M29.1817688,114.18585 L26.4090477,112.873535 L27.7784268,110.215038 L30.5497894,111.528005 L29.1817688,114.18585 Z M24.7727211,115.599112 L22,114.286146 L23.3693792,111.628301 L26.1421003,112.940616 L24.7727211,115.599112 Z M27.7322375,117 L24.9595164,115.687034 L26.3288955,113.028538 L29.1016166,114.341504 L27.7322375,117 Z" id="Shape" fill="#DFF3FB" fill-rule="nonzero"></path>
                        <path d="M33.7439933,114 C33.5952424,111.831463 34.3977345,109.571259 33.7317881,108.516406 C33.0658416,107.461553 33.0132067,105.622059 32.2458045,105.62069 C31.1412335,105.619323 31.0374893,107.920571 31.4532291,109.039044 C31.6599547,109.595886 30.7560068,111.709697 30.8612767,112.63731 M25.613039,104.404395 C24.8357201,103.630015 23.8203996,104.066459 23.5457826,104.883251 C23.2711655,105.700728 23.6296933,106.118702 23.6296933,106.118702 C23.6296933,106.118702 23.2437038,105.819074 22.5144428,106.288354 C21.7851819,106.757634 21.9484265,107.753656 22.181851,108.039601 C22.181851,108.039601 21.6860146,107.901417 21.1055046,108.374801 C20.5257574,108.846817 20.5211805,109.599306 20.5898347,109.777167 C20.6577262,109.95366 21.0536325,110.405154 21.0536325,110.405154 C21.0536325,110.405154 20.2389351,110.524868 20.0695879,111.041349 C19.8994779,111.557146 20.0947611,112.360258 20.0947611,112.360258 C20.0947611,112.360258 20.859112,112.717348 22.0239462,112.700246 C23.1864919,112.68246 23.3520249,112.366414 23.382538,111.97512 C23.4397498,111.241785 21.7508548,110.678102 21.7508548,110.678102 C21.7508548,110.678102 23.6823283,111.124807 24.098068,110.580963 C24.9249706,109.500115 23.155216,108.582078 23.155216,108.582078 C23.155216,108.582078 24.7708799,109.423498 25.4024992,108.292711 C25.6656739,107.820696 24.4848204,106.868455 24.4848204,106.868455 C24.4848204,106.868455 25.7266999,108.02592 26.4223966,107.756392 C27.3316843,107.405458 27.2462478,106.033876 25.613039,104.404395" id="Shape" fill="#F17D86" fill-rule="nonzero"></path>
                        <path d="M22.0158793,112.164167 C21.9571269,112.507485 22.0752635,112.841751 22.1447556,112.85359 L22.8131433,112.981725 C23.1069054,113.036739 23.4739501,112.994956 23.5560771,112.466399 C23.6382042,111.939234 23.2844262,111.760262 23.0121434,111.70873 L22.3424922,111.581291 C22.2742636,111.568756 22.0746317,111.821544 22.0158793,112.164167 M22.7063782,109.788791 C22.5414924,110.12445 22.5629717,110.515819 22.6312003,110.555513 L23.2901119,110.933651 C23.57882,111.098695 23.9742933,111.191314 24.2200426,110.671114 C24.465792,110.150216 24.1511823,109.834057 23.8820583,109.680852 L23.2237785,109.302714 C23.1549181,109.262323 22.871264,109.453133 22.7063782,109.788791 M23.7348614,107.757431 C23.5352295,108.069413 23.5143819,108.460782 23.5781883,108.508833 L24.191614,108.969841 C24.460738,109.171793 24.8435764,109.314552 25.1430242,108.829867 C25.4431037,108.345878 25.1645036,107.990721 24.914332,107.802 L24.3009062,107.340992 C24.2370998,107.293638 23.9344932,107.44545 23.7348614,107.757431 M25.3319164,106.223988 C25.0514209,106.448921 24.9187542,106.812435 24.9655034,106.879984 L25.4108847,107.534588 C25.6073578,107.820803 25.9276533,108.091697 26.3528186,107.738629 C26.777984,107.385561 26.6181521,106.951712 26.4355774,106.684299 L25.9889327,106.030392 C25.9428152,105.962843 25.61178,105.999751 25.3319164,106.223988 M31.0909169,106.546415 C31.0909169,106.546415 31.0770185,106.316607 31.4592251,106.2024 C31.4592251,106.2024 31.9014476,106.735136 32,107.965651 C32,107.965651 31.7270855,108.049914 31.4333234,108.002559 C31.4333234,108.002559 31.1016566,107.425951 31.0909169,106.547111" id="Shape" fill="#EF9AA4" fill-rule="nonzero"></path>
                        <path d="M17,160 C16.4375324,152.844528 15.7248845,144.039451 13.5841072,136.844143 C13.2171573,135.61249 12.0135899,129.059783 12.7085279,127.886905 C13.4027575,126.71468 13.5777316,126.124975 13.5777316,126.124975 C11.7932783,121.238853 11.1465114,111.994273 7.72140945,113.395719 L7.01301194,113.872446 L5.8328217,111.457466 C5.42974352,110.765232 4.18933948,110.991841 4.19288147,111.272652 C4.19571506,111.49469 4.27434718,112.273779 4.32747699,112.928788 C4.38060681,113.584451 3.32580292,116.062776 2.81717351,117.352551 C2.28729217,118.697181 1.96001253,118.528041 2.00393317,120.301073 C2.04785382,122.073451 2.18528293,122.94462 2.7619185,124.235048 C3.3867251,125.633881 4.06111953,125.632575 4.06324472,127.846416 C4.07174549,135.449227 1.6532764,152.411556 2.73854139,160 L17,160 Z" id="Path" fill="#63CFFC" fill-rule="nonzero"></path>
                        <path d="M24,72 C21.5518671,77.8845245 6.48159051,88.3348963 3.78086658,97.4368122 C-0.0879982322,110.472102 11.5719292,119.971499 13.6059906,127.504208 C15.5659784,134.760493 10.6178611,136.409973 8.62454014,138.157851 C4.85419323,141.464579 6.3460358,144.411373 9.00601924,146" id="Path" stroke="#0084B2" stroke-width="0.9" stroke-linecap="round"></path>
                        <path d="M5.31208981,110.232392 C5.31208981,110.232392 5.48429435,110.90657 5.53177721,111.023479 C5.58749045,111.161172 5.25004553,111.307309 5.11835971,111.724936 C4.98540768,112.142562 4.78661274,113.120704 5.6596644,113.46169 C6.53271607,113.801377 7.28674401,113.003795 7.28674401,113.003795 C7.28674401,113.003795 5.64383678,116.221402 5.65459957,116.868301 C5.66599545,117.515849 5.83756688,117.891258 6.16108349,118.125726 C6.4852332,118.359545 7.28167917,118.39202 7.79069552,117.445703 C7.79069552,117.445703 6.45357796,119.418225 6.51182361,119.968998 C6.57006926,120.520421 6.67263225,121.315405 7.42792641,121.397891 C8.04393748,121.466738 8.99802657,120.311932 9.2208795,120.111238 C9.03601287,120.341809 8.18765229,121.210186 8.0857224,121.755764 C8.00088634,122.209112 8.43962804,122.918363 9.30381624,122.62544 C10.1135574,122.351352 10.0977298,122.22535 10.7105753,121.74797 L10.9505221,122.305238 L11.4038252,123.235967 L12.1762132,125 C12.1762132,125 13.0391352,123.358072 12.9986165,121.805775 C12.9580978,120.253478 12.6921937,120.570432 12.5839328,120.078114 C12.4763049,119.586444 12.7909581,118.951886 12.0774488,118.321225 C11.3639396,117.690563 10.9581194,117.964002 10.9581194,117.964002 C10.9581194,117.964002 11.221491,117.433363 11.4703012,116.696833 C11.6133829,116.272712 11.7912854,115.808971 11.4829633,115.366664 C11.2461821,115.026977 10.8201025,114.782117 10.5174783,114.737951 C10.0255558,114.663908 9.48994908,115.064648 9.39245093,115.220527 C9.39245093,115.220527 9.74065862,114.541154 9.92615836,113.983236 C10.0540456,113.596136 10.1971273,112.884937 9.89323691,112.427042 C9.58871345,111.968497 8.84544829,111.378104 8.3433961,111.645048 C7.95720211,111.850288 7.68749942,112.229595 7.68749942,112.229595 C7.68749942,112.229595 8.01671397,111.721039 7.9046544,111.200792 C7.73371607,110.414901 6.76000073,109.949211 6.10157163,110.004419 C5.56216625,110.049883 5.31208981,110.231743 5.31208981,110.231743" id="Path" fill="#63CFFC" fill-rule="nonzero"></path>
                        <path d="M13,120.583155 C13,120.583155 11.9111268,121.773438 11.319052,122.174686 C10.7269773,122.576575 10.3771768,123.058585 9.50675876,123.328433 C8.57713329,123.618152 8.27973481,122.823989 8.3450672,122.372105 C8.43830197,121.724083 9.3658858,120.976711 9.5652857,120.749167 C9.32709469,120.946586 8.29947064,122.086873 7.63798019,122.019571 C6.82608913,121.937527 6.52732955,121.365781 6.55387084,120.782497 C6.57156502,120.392787 7.15955654,119.115332 8.02793289,118.118622 C7.16023708,119.115332 6.73625709,119.037775 6.30343001,118.851893 C5.69502212,118.590377 5.611315,118.018631 5.75491015,117.473806 C5.91756058,116.853987 7.43517756,113.67413 7.43517756,113.67413 C7.43517756,113.67413 6.67568852,114.522135 5.73721596,114.186907 C4.79806285,113.850397 4.94778291,112.859456 5.15534936,112.472951 C5.39898473,112.021067 5.63853683,111.649944 5.5786488,111.5147 C5.52760787,111.398684 5.36359635,111 5.36359635,111 M9.74971359,115.922015 L8.02793289,118.118622 M11.4327032,118.630758 L9.56460515,120.749167 M12.7590868,121.725365 C12.7590868,121.725365 12.1908311,121.989445 11.5776594,121.977908 M7.90951793,121.989445 C8.31988701,123.154089 8.18854168,124.630245 6.89346316,126 M5.25470904,118.567943 C5.25470904,118.567943 6.03189226,119.073028 6.79682566,120.029356" id="Shape" stroke="#2FB7EC" stroke-width="0.315" stroke-linecap="round" stroke-linejoin="round"></path>
                        <path d="M6.79635363,114.290225 C7.22910217,115.711718 6.30787754,118.938982 6.30787754,118.938982 C6.30787754,118.938982 5.8503612,119.884376 5,120 M8.5128999,113.746113 C8.75300998,113.326467 9,113 9,113" id="Shape" stroke="#2FB7EC" stroke-width="0.315" stroke-linecap="round" stroke-linejoin="round"></path>
                        <path d="M4.04593343,112.00007 C4.04593343,112.00007 4.33309178,111.993326 4.61372381,112.112687 C4.83087248,112.205075 4.89969556,113.147154 4.91986784,113.569302 C4.92510435,113.694114 4.85330693,113.806288 4.74721685,113.839046 C4.59177162,113.886251 4.360977,113.933456 4.15035465,113.884902 C4.15035465,113.884902 3.89938774,112.961031 4.04593343,112.00007 M6.91395715,112.633292 C7.20467532,112.852459 7.35418752,113.223356 7.31028314,113.295513 L6.88666524,113.99752 C6.7009616,114.305702 6.38829124,114.603094 5.94628096,114.257822 C5.50367739,113.913225 5.64784987,113.453987 5.82050086,113.167384 L6.24411876,112.465377 C6.28742983,112.392546 6.62264568,112.414126 6.91395715,112.633292 M7.45682883,117.575667 C7.75051351,117.791462 7.90299222,118.159662 7.86027445,118.233167 L7.44496278,118.941243 C7.26163235,119.251448 6.95252181,119.552212 6.50635841,119.213684 C6.06019502,118.874482 6.19962108,118.412546 6.36989887,118.123921 L6.78521053,117.416518 C6.82852161,117.343013 7.16314415,117.360547 7.45682883,117.575667 M8.31296417,120.736386 C8.59122299,120.975783 8.718783,121.356796 8.67131881,121.426255 L8.20854295,122.096568 C8.00563354,122.389914 7.67753732,122.663029 7.25510602,122.287411 C6.83326803,121.90977 7.00295251,121.46267 7.19162267,121.189555 L7.65380522,120.519917 C7.70126941,120.449784 8.03351875,120.496314 8.31237087,120.735712 M9.75646887,122.623242 C9.96590461,122.862639 10.0329478,123.201167 9.98548359,123.253767 L9.52508094,123.75549 C9.32395143,123.973982 9.0178074,124.160105 8.70217053,123.785836 C8.38594036,123.411567 8.57639043,123.05618 8.76387398,122.851849 L9.22368333,122.350126 C9.27174082,122.298201 9.54703313,122.382496 9.75646887,122.622567" id="Shape" fill="#2FB7EC" fill-rule="nonzero"></path>
                        <path d="M14.0071908,48.2179549 C9.81010494,56.9172896 12.1280475,71.1458403 21.5942855,75.0026108 C31.0612358,78.8593813 44.092005,70.8827002 48.2883786,62.18402 C52.4861768,53.4846853 48.7642193,42.1663861 39.2972689,38.3096156 C29.8310309,34.4528451 18.204989,39.5186202 14.0071908,48.2179549" id="Path" fill="#8888C2" fill-rule="nonzero"></path>
                        <path d="M21.030424,75 L21.3198335,75.1262297 L21.5936344,75.2460518 C21.3744636,77.0613247 21.7666297,78.3011951 21.9903529,78.8311036 C22.0101089,78.8774409 21.9989334,78.9309765 21.9622201,78.9658712 C21.9255069,79.000766 21.8708031,79.0098467 21.8245116,78.9887305 L19.9514795,78.1698394 L18.073895,77.3496666 C18.0278271,77.3297401 17.9986214,77.2842845 18.0000502,77.234735 C18.0014789,77.1851854 18.0332568,77.1414368 18.0803986,77.1241192 C18.6240982,76.9293281 19.8116525,76.3789154 21.030424,75" id="Path" fill="#8888C2" fill-rule="nonzero"></path>
                        <path d="M56,70.6251244 L53.0204435,71 C51.9984249,68.8775632 51.7442511,66.6589687 52.2572565,64.342823 L54.9833045,64 C53.9745935,66.6234322 54.9334013,68.3828389 56,70.6251244" id="Path" fill="#63CFFC" fill-rule="nonzero"></path>
                        <path d="M22,44.2240247 L19.4615879,45 C18.3332107,43.1033217 17.8583496,41.0065662 18.0364225,38.7104094 L20.3589358,38 C19.7863091,40.6618385 20.8192485,42.2191966 22,44.2240247" id="Path" fill="#F48020" fill-rule="nonzero"></path>
                        <path d="M76,51.6966052 L78.6271419,51 C79.7394761,52.9418041 80.1760373,55.0614937 79.9362276,57.3617847 L77.5327486,58 C78.1869925,55.3452958 77.1637647,53.7483996 76,51.6966052" id="Path" fill="#EF5055" fill-rule="nonzero"></path>
                        <path d="M3.06161334,31 L5.90901749,31.5489112 C6.2071629,33.5067404 5.77265642,35.3242309 4.60395726,37 L2,36.4974075 C3.71491386,34.7200138 3.36515156,33.0649844 3.06161334,31" id="Path" fill="#5855A4" fill-rule="nonzero"></path>
                        <path d="M30,88.4998524 L32.845657,89 C33.9073453,86.9470525 34.2365262,84.7666568 33.8338388,82.4574353 L31.2304334,82 C32.0971699,84.6357642 31.1089881,86.3332349 30,88.4998524" id="Path" fill="#2F95C2" fill-rule="nonzero"></path>
                        <path d="M78,78.2987781 L80.6220398,79 C81.7359588,77.060609 82.1743591,74.9413305 81.9378379,72.6414856 L79.5385819,72 C80.1878205,74.6541893 79.1646874,76.2494182 78,78.2994569" id="Path" fill="#8888C2" fill-rule="nonzero"></path>
                        <path d="M61,33.4994083 L63.622479,34 C64.7358849,32.6153846 65.1745435,31.1005917 64.9377261,29.4573964 L62.5382198,29 C63.1881924,30.895858 62.1651414,32.035503 61,33.4994083" id="Path" fill="#F8A35C" fill-rule="nonzero"></path>
                        <path d="M32.6997999,25.7273821 L35.4405046,25.3294756 C35.8349891,23.450473 35.5239669,21.6741978 34.507438,20 L32,20.3640974 C33.5322836,22.1624785 33.1056981,23.7463021 32.6997999,25.7280322 M73,58.7815741 C73,59.4544921 72.4014832,60 71.6631753,60 C70.9248674,60 70.3263506,59.4544921 70.3263506,58.7815741 C70.3263506,58.108656 70.9248674,57.5631481 71.6631753,57.5631481 C72.4014832,57.5631481 73,58.108656 73,58.7815741" id="Shape" fill="#F17D86" fill-rule="nonzero"></path>
                        <path d="M21.9991997,64.4828738 C22.0117673,65.0206774 21.7287641,65.5230324 21.2596795,65.7955853 C20.790595,66.0681382 20.2090065,66.0681382 19.739922,65.7955853 C19.2708375,65.5230324 18.9878342,65.0206774 19.0004018,64.4828738 C19.0004018,63.6639052 19.6718848,63 20.5002009,63 C21.3285171,63 22,63.6639052 22,64.4828738" id="Path" fill="#C4B8DA" fill-rule="nonzero"></path>
                        <path d="M6,52.5 C6,53.0358984 5.71410163,53.5310889 5.25000001,53.7990381 C4.78589839,54.0669873 4.21410161,54.0669873 3.74999999,53.7990381 C3.28589837,53.5310889 3,53.0358984 3,52.5 C3,51.6715728 3.67157289,51 4.5,51 C5.32842711,51 6,51.6715728 6,52.5" id="Path" fill="#F17D86" fill-rule="nonzero"></path>
                        <path d="M2.70539808,91.6717573 C2.70539808,92.1128637 2.44757511,92.5204629 2.02904857,92.7410161 C1.61052202,92.9615693 1.09487605,92.9615693 0.676349511,92.7410161 C0.257822968,92.5204629 0,92.1128637 0,91.6717573 C0,90.9898659 0.605623999,90.4370837 1.35269904,90.4370837 C2.09977408,90.4370837 2.70539808,90.9898659 2.70539808,91.6717573 M37,52.2346736 C37,52.9165651 36.394376,53.4693473 35.647301,53.4693473 C34.9002259,53.4693473 34.2946019,52.9165651 34.2946019,52.2346736 C34.2946019,51.5527822 34.9002259,51 35.647301,51 C36.394376,51 37,51.5527822 37,52.2346736 M20.8022591,99.7649969 C20.8022591,100.44707 20.1964735,101 19.4491992,101 C18.7019248,101 18.0961392,100.44707 18.0961392,99.7649969 C18.0961392,99.0831055 18.7017632,98.5303233 19.4488383,98.5303233 C20.1959133,98.5303233 20.8015373,99.0831055 20.8015373,99.7649969" id="Shape" fill="#F8C194" fill-rule="nonzero"></path>
                        <path d="M62.9991997,48.4828738 C63.0117673,49.0206774 62.7287641,49.5230324 62.2596795,49.7955853 C61.790595,50.0681382 61.2090065,50.0681382 60.739922,49.7955853 C60.2708375,49.5230324 59.9878342,49.0206774 60.0004018,48.4828738 C60.0004018,47.6639052 60.6718848,47 61.5002009,47 C62.3285171,47 63,47.6639052 63,48.4828738" id="Path" fill="#8888C2" fill-rule="nonzero"></path>
                        <path d="M48,33.5 C48,34.3284271 47.3284271,35 46.5,35 C45.6715729,35 45,34.3284271 45,33.5 C45,32.6715729 45.6715729,32 46.5,32 C47.3284271,32 48,32.6715729 48,33.5" id="Path" fill="#5855A4" fill-rule="nonzero"></path>
                        <path d="M8.66286193,20.225991 C8.66286193,20.6639954 8.40909264,21.0687282 7.99714646,21.2877304 C7.58520028,21.5067326 7.07766165,21.5067326 6.66571547,21.2877304 C6.25376929,21.0687282 6,20.6639954 6,20.225991 C6,19.5488948 6.59610197,19 7.33143097,19 C8.06675996,19 8.66286193,19.5488948 8.66286193,20.225991 M67,76.774009 C67,77.4511051 66.4038981,78 65.668569,78 C64.93324,78 64.3371381,77.4511051 64.3371381,76.774009 C64.3371381,76.0969128 64.93324,75.548018 65.668569,75.548018 C66.4038981,75.548018 67,76.0969128 67,76.774009" id="Shape" fill="#F48020" fill-rule="nonzero"></path>
                        <path d="M5,1.5 C5,2.32842712 4.32842712,3 3.5,3 C2.67157288,3 2,2.32842712 2,1.5 C2,0.671572875 2.67157288,0 3.5,0 C4.32842712,0 5,0.671572875 5,1.5" id="Path" fill="#63CFFC" fill-rule="nonzero"></path>
                        <path d="M24,14.4991994 C24.000442,15.3276264 23.3292276,15.9995576 22.5008006,16 C21.6723736,16.000442 21.0004424,15.3292276 21,14.5008006 C20.999558,13.6723736 21.6707724,13.0004424 22.4991994,13 C23.3276264,12.999558 23.9995576,13.6707724 24,14.4991994" id="Path" fill="#2F95C2" fill-rule="nonzero"></path>
                    </g>
                </g>
            </g>
        </g>
    </g>
</svg>