<svg width="443" height="178" viewBox="0 0 443 178" fill="none" xmlns="http://www.w3.org/2000/svg">
<path d="M382.057 83.6592L376.154 124.555H302.996L308.899 83.6592H382.057Z" stroke="white" stroke-width="1.27131" stroke-miterlimit="10" stroke-linecap="round" stroke-linejoin="round"/>
<path d="M312.588 88.1917C313.112 88.1917 313.537 87.767 313.537 87.2431C313.537 86.7191 313.112 86.2944 312.588 86.2944C312.064 86.2944 311.64 86.7191 311.64 87.2431C311.64 87.767 312.064 88.1917 312.588 88.1917Z" stroke="white" stroke-width="1.27131" stroke-miterlimit="10"/>
<path d="M317.859 88.1917C318.383 88.1917 318.808 87.767 318.808 87.2431C318.808 86.7191 318.383 86.2944 317.859 86.2944C317.335 86.2944 316.91 86.7191 316.91 87.2431C316.91 87.767 317.335 88.1917 317.859 88.1917Z" stroke="white" stroke-width="1.27131" stroke-miterlimit="10"/>
<path d="M323.235 88.1917C323.759 88.1917 324.184 87.767 324.184 87.2431C324.184 86.7191 323.759 86.2944 323.235 86.2944C322.711 86.2944 322.287 86.7191 322.287 87.2431C322.287 87.767 322.711 88.1917 323.235 88.1917Z" stroke="white" stroke-width="1.27131" stroke-miterlimit="10"/>
<path d="M381.108 90.4053H308.161" stroke="white" stroke-width="1.27131" stroke-miterlimit="10" stroke-linecap="round" stroke-linejoin="round"/>
<mask id="mask0" mask-type="alpha" maskUnits="userSpaceOnUse" x="327" y="96" width="28" height="25">
<path fill-rule="evenodd" clip-rule="evenodd" d="M327.596 96.8843H354.17V120.559H327.596V96.8843Z" fill="white"/>
</mask>
<g mask="url(#mask0)">
<path fill-rule="evenodd" clip-rule="evenodd" d="M340.205 98.0369C340.179 98.0473 340.151 98.0491 340.124 98.0419C339.38 97.8415 328.608 95.1492 327.672 107.078C326.743 118.931 334.532 121.392 340.776 120.34C341.308 120.25 341.845 120.209 342.385 120.209C344.445 120.213 349.856 119.887 352.441 116.534C355.669 112.347 355.779 91.8564 340.205 98.0369Z" fill="#F4B13E"/>
</g>
<mask id="mask1" mask-type="alpha" maskUnits="userSpaceOnUse" x="334" y="91" width="12" height="10">
<path fill-rule="evenodd" clip-rule="evenodd" d="M334.39 91.8589H345.138V100.991H334.39V91.8589Z" fill="white"/>
</mask>
<g mask="url(#mask1)">
<path fill-rule="evenodd" clip-rule="evenodd" d="M338.919 97.7707C338.99 97.78 339.043 97.7101 339.01 97.647C338.62 96.9098 336.909 93.6697 336.814 93.3835C336.706 93.0598 337.156 92.5208 337.951 92.0893C338.746 91.6578 339.39 91.7656 339.927 92.952C340.445 94.0958 340.898 96.293 340.864 97.3669C340.862 97.4249 340.912 97.4668 340.968 97.4538C341.49 97.333 343.757 96.9062 345.08 98.2357C345.08 98.2357 345.819 98.7663 342.007 98.8799C341.958 98.8817 341.917 98.9224 341.92 98.9722C341.95 99.3399 342.045 100.709 341.859 100.662C341.651 100.61 340.735 100.101 340.093 99.3316C340.06 99.293 340.006 99.2872 339.97 99.3211C339.632 99.6387 338.079 101.081 337.887 100.986C337.683 100.883 337.77 99.9037 338.01 99.1124C338.028 99.0533 337.984 98.9956 337.923 99.0007C337.26 99.0518 334.207 99.2674 334.398 98.8828C334.608 98.4617 336.596 97.4585 338.919 97.7707Z" fill="#EE7748"/>
</g>
<path fill-rule="evenodd" clip-rule="evenodd" d="M339.766 109.459H342.147C342.282 109.459 342.377 109.358 342.333 109.262L341.142 106.704C341.081 106.571 340.832 106.571 340.771 106.704L339.58 109.262C339.535 109.358 339.63 109.459 339.766 109.459Z" fill="#1E1422"/>
<path fill-rule="evenodd" clip-rule="evenodd" d="M334.533 107.239H336.914C337.05 107.239 337.145 107.102 337.1 106.971L335.909 103.488C335.848 103.309 335.599 103.309 335.538 103.488L334.347 106.971C334.302 107.102 334.398 107.239 334.533 107.239Z" fill="#1E1422"/>
<path fill-rule="evenodd" clip-rule="evenodd" d="M344.841 107.239H347.222C347.357 107.239 347.452 107.102 347.408 106.971L346.217 103.488C346.156 103.309 345.907 103.309 345.845 103.488L344.655 106.971C344.61 107.102 344.705 107.239 344.841 107.239Z" fill="#1E1422"/>
<path fill-rule="evenodd" clip-rule="evenodd" d="M340.893 114.303L342.032 115.531C342.089 115.593 342.165 115.63 342.249 115.636C342.762 115.672 344.665 115.535 346.815 112.023C346.949 111.804 346.792 111.52 346.536 111.521L344.544 111.523C344.443 111.523 344.348 111.57 344.286 111.65L343.471 112.702C343.337 112.875 343.074 112.87 342.946 112.693L342.205 111.663C342.144 111.578 342.044 111.527 341.939 111.527L340.889 111.528H340.944L339.894 111.529C339.788 111.529 339.69 111.58 339.628 111.666L338.89 112.698C338.763 112.876 338.5 112.882 338.365 112.709L337.548 111.659C337.486 111.579 337.39 111.533 337.289 111.533L335.297 111.536C335.04 111.536 334.885 111.82 335.02 112.038C337.179 115.545 339.082 115.677 339.596 115.639C339.679 115.633 339.755 115.596 339.812 115.534L340.948 114.303" fill="#1E1422"/>
<path d="M442.062 21L436.158 61.8962H363L368.903 21H442.062Z" stroke="white" stroke-width="1.27131" stroke-miterlimit="10" stroke-linecap="round" stroke-linejoin="round"/>
<path d="M372.593 25.5325C373.117 25.5325 373.542 25.1078 373.542 24.5839C373.542 24.06 373.117 23.6353 372.593 23.6353C372.069 23.6353 371.644 24.06 371.644 24.5839C371.644 25.1078 372.069 25.5325 372.593 25.5325Z" stroke="white" stroke-width="1.27131" stroke-miterlimit="10"/>
<path d="M377.863 25.5325C378.387 25.5325 378.812 25.1078 378.812 24.5839C378.812 24.06 378.387 23.6353 377.863 23.6353C377.339 23.6353 376.915 24.06 376.915 24.5839C376.915 25.1078 377.339 25.5325 377.863 25.5325Z" stroke="white" stroke-width="1.27131" stroke-miterlimit="10"/>
<path d="M383.24 25.5325C383.764 25.5325 384.188 25.1078 384.188 24.5839C384.188 24.06 383.764 23.6353 383.24 23.6353C382.716 23.6353 382.291 24.06 382.291 24.5839C382.291 25.1078 382.716 25.5325 383.24 25.5325Z" stroke="white" stroke-width="1.27131" stroke-miterlimit="10"/>
<path d="M441.113 27.7461H368.165" stroke="white" stroke-width="1.27131" stroke-miterlimit="10" stroke-linecap="round" stroke-linejoin="round"/>
<mask id="mask2" mask-type="alpha" maskUnits="userSpaceOnUse" x="387" y="34" width="28" height="24">
<path fill-rule="evenodd" clip-rule="evenodd" d="M387.601 34.2256H414.175V57.9007H387.601V34.2256Z" fill="white"/>
</mask>
<g mask="url(#mask2)">
<path fill-rule="evenodd" clip-rule="evenodd" d="M400.209 35.3782C400.183 35.3886 400.155 35.3904 400.128 35.3832C399.384 35.1828 388.612 32.4905 387.677 44.4197C386.747 56.272 394.536 58.7329 400.78 57.6815C401.312 57.5917 401.85 57.55 402.389 57.5508C404.449 57.5544 409.861 57.2278 412.445 53.8754C415.673 49.6885 415.784 29.1977 400.209 35.3782Z" fill="#F4B13E"/>
</g>
<mask id="mask3" mask-type="alpha" maskUnits="userSpaceOnUse" x="394" y="29" width="12" height="10">
<path fill-rule="evenodd" clip-rule="evenodd" d="M394.394 29.2002H405.142V38.3327H394.394V29.2002Z" fill="white"/>
</mask>
<g mask="url(#mask3)">
<path fill-rule="evenodd" clip-rule="evenodd" d="M398.924 35.112C398.995 35.1213 399.048 35.0514 399.014 34.9883C398.625 34.2511 396.913 31.011 396.818 30.7248C396.711 30.4011 397.161 29.8622 397.956 29.4306C398.751 28.9991 399.395 29.1069 399.932 30.2933C400.449 31.4371 400.902 33.6343 400.869 34.7082C400.867 34.7663 400.916 34.8081 400.972 34.7951C401.495 34.6743 403.761 34.2475 405.084 35.577C405.084 35.577 405.824 36.1076 402.012 36.2212C401.962 36.223 401.921 36.2637 401.925 36.3135C401.954 36.6812 402.05 38.05 401.864 38.0035C401.655 37.9508 400.739 37.4418 400.097 36.6729C400.065 36.6343 400.01 36.6285 399.974 36.6624C399.636 36.98 398.083 38.4227 397.892 38.3268C397.688 38.2241 397.775 37.245 398.014 36.4537C398.032 36.3946 397.989 36.3369 397.927 36.342C397.265 36.3931 394.211 36.6087 394.403 36.2241C394.613 35.803 396.601 34.7998 398.924 35.112Z" fill="#EE7748"/>
</g>
<path fill-rule="evenodd" clip-rule="evenodd" d="M399.77 46.8002H402.151C402.287 46.8002 402.382 46.6998 402.337 46.6035L401.147 44.0448C401.085 43.9128 400.836 43.9128 400.775 44.0448L399.585 46.6035C399.54 46.6998 399.635 46.8002 399.77 46.8002Z" fill="#1E1422"/>
<path fill-rule="evenodd" clip-rule="evenodd" d="M394.537 44.58H396.919C397.054 44.58 397.149 44.443 397.104 44.3122L395.914 40.8296C395.852 40.6499 395.603 40.6499 395.542 40.8296L394.352 44.3122C394.307 44.443 394.402 44.58 394.537 44.58Z" fill="#1E1422"/>
<path fill-rule="evenodd" clip-rule="evenodd" d="M404.845 44.58H407.226C407.361 44.58 407.456 44.443 407.412 44.3122L406.221 40.8296C406.16 40.6499 405.911 40.6499 405.849 40.8296L404.659 44.3122C404.614 44.443 404.709 44.58 404.845 44.58Z" fill="#1E1422"/>
<path fill-rule="evenodd" clip-rule="evenodd" d="M400.897 51.6446L402.036 52.8723C402.093 52.934 402.169 52.9709 402.253 52.977C402.767 53.0129 404.67 52.8763 406.819 49.364C406.953 49.145 406.797 48.8615 406.54 48.8618L404.549 48.8647C404.447 48.8647 404.352 48.9113 404.29 48.9916L403.475 50.0433C403.341 50.2165 403.079 50.2114 402.951 50.034L402.21 49.0041C402.148 48.9188 402.049 48.8679 401.943 48.8679L400.893 48.8693H400.948L399.898 48.8708C399.793 48.8708 399.694 48.9217 399.633 49.0077L398.894 50.0394C398.767 50.2175 398.504 50.2229 398.37 50.0501L397.552 49.0005C397.49 48.9206 397.394 48.874 397.293 48.8744L395.301 48.8769C395.045 48.8772 394.89 49.1611 395.024 49.3798C397.183 52.8863 399.086 53.0179 399.6 52.9806C399.683 52.9741 399.759 52.9369 399.816 52.8756L400.952 51.6446" fill="#1E1422"/>
<path d="M269.443 124.144L261.763 177.351H166.582L174.262 124.144H269.443Z" stroke="white" stroke-width="1.27131" stroke-miterlimit="10" stroke-linecap="round" stroke-linejoin="round"/>
<path d="M179.062 130.041C179.744 130.041 180.297 129.488 180.297 128.806C180.297 128.125 179.744 127.572 179.062 127.572C178.381 127.572 177.828 128.125 177.828 128.806C177.828 129.488 178.381 130.041 179.062 130.041Z" stroke="white" stroke-width="1.27131" stroke-miterlimit="10"/>
<path d="M185.92 130.041C186.602 130.041 187.154 129.488 187.154 128.806C187.154 128.125 186.602 127.572 185.92 127.572C185.238 127.572 184.686 128.125 184.686 128.806C184.686 129.488 185.238 130.041 185.92 130.041Z" stroke="white" stroke-width="1.27131" stroke-miterlimit="10"/>
<path d="M192.915 130.041C193.596 130.041 194.149 129.488 194.149 128.806C194.149 128.125 193.596 127.572 192.915 127.572C192.233 127.572 191.68 128.125 191.68 128.806C191.68 129.488 192.233 130.041 192.915 130.041Z" stroke="white" stroke-width="1.27131" stroke-miterlimit="10"/>
<path d="M268.209 132.921H173.302" stroke="white" stroke-width="1.27131" stroke-miterlimit="10" stroke-linecap="round" stroke-linejoin="round"/>
<mask id="mask4" mask-type="alpha" maskUnits="userSpaceOnUse" x="198" y="141" width="36" height="32">
<path fill-rule="evenodd" clip-rule="evenodd" d="M198.588 141.351H233.161V172.152H198.588V141.351Z" fill="white"/>
</mask>
<g mask="url(#mask4)">
<path fill-rule="evenodd" clip-rule="evenodd" d="M214.992 142.85C214.958 142.864 214.922 142.866 214.886 142.857C213.919 142.596 199.904 139.093 198.687 154.613C197.477 170.033 207.611 173.235 215.735 171.867C216.427 171.75 217.126 171.696 217.828 171.697C220.508 171.702 227.549 171.277 230.911 166.915C235.111 161.468 235.255 134.809 214.992 142.85Z" fill="#F4B13E"/>
</g>
<mask id="mask5" mask-type="alpha" maskUnits="userSpaceOnUse" x="207" y="134" width="15" height="13">
<path fill-rule="evenodd" clip-rule="evenodd" d="M207.426 134.812H221.41V146.694H207.426V134.812Z" fill="white"/>
</mask>
<g mask="url(#mask5)">
<path fill-rule="evenodd" clip-rule="evenodd" d="M213.32 142.504C213.412 142.516 213.481 142.425 213.437 142.343C212.93 141.384 210.704 137.169 210.58 136.796C210.44 136.375 211.026 135.674 212.06 135.113C213.094 134.551 213.932 134.692 214.631 136.235C215.304 137.723 215.894 140.582 215.85 141.979C215.848 142.055 215.912 142.109 215.985 142.092C216.664 141.935 219.613 141.38 221.335 143.109C221.335 143.109 222.297 143.8 217.337 143.947C217.273 143.95 217.219 144.003 217.224 144.067C217.262 144.546 217.387 146.327 217.145 146.266C216.873 146.198 215.682 145.535 214.846 144.535C214.804 144.485 214.733 144.477 214.686 144.521C214.246 144.935 212.226 146.812 211.977 146.687C211.712 146.553 211.825 145.279 212.136 144.25C212.159 144.173 212.103 144.098 212.023 144.105C211.161 144.171 207.189 144.452 207.437 143.951C207.711 143.403 210.297 142.098 213.32 142.504Z" fill="#EE7748"/>
</g>
<path fill-rule="evenodd" clip-rule="evenodd" d="M214.421 157.711H217.519C217.695 157.711 217.819 157.58 217.761 157.455L216.212 154.126C216.132 153.954 215.808 153.954 215.728 154.126L214.179 157.455C214.121 157.58 214.245 157.711 214.421 157.711Z" fill="#1E1422"/>
<path fill-rule="evenodd" clip-rule="evenodd" d="M207.612 154.822H210.71C210.886 154.822 211.01 154.644 210.952 154.474L209.403 149.943C209.323 149.709 208.999 149.709 208.919 149.943L207.371 154.474C207.312 154.644 207.436 154.822 207.612 154.822Z" fill="#1E1422"/>
<path fill-rule="evenodd" clip-rule="evenodd" d="M221.023 154.822H224.121C224.297 154.822 224.421 154.644 224.363 154.474L222.814 149.943C222.734 149.709 222.41 149.709 222.33 149.943L220.781 154.474C220.723 154.644 220.847 154.822 221.023 154.822Z" fill="#1E1422"/>
<path fill-rule="evenodd" clip-rule="evenodd" d="M215.887 164.013L217.369 165.61C217.443 165.691 217.542 165.739 217.651 165.747C218.319 165.793 220.795 165.615 223.591 161.046C223.766 160.761 223.562 160.392 223.229 160.393L220.638 160.396C220.506 160.396 220.382 160.457 220.301 160.561L219.241 161.93C219.067 162.155 218.725 162.148 218.559 161.918L217.595 160.578C217.514 160.467 217.385 160.401 217.248 160.401L215.882 160.402H215.954L214.588 160.404C214.45 160.404 214.322 160.47 214.242 160.582L213.281 161.925C213.115 162.156 212.774 162.163 212.599 161.939L211.535 160.573C211.454 160.469 211.33 160.408 211.198 160.409L208.607 160.412C208.273 160.413 208.071 160.782 208.246 161.066C211.055 165.629 213.531 165.8 214.199 165.751C214.308 165.743 214.407 165.694 214.48 165.615L215.958 164.013" fill="#1E1422"/>
<path d="M221.196 32.0942L211.572 98.7728H92.2915L101.916 32.0942H221.196Z" stroke="white" stroke-width="1.27131" stroke-miterlimit="10" stroke-linecap="round" stroke-linejoin="round"/>
<path d="M107.932 39.484C108.786 39.484 109.478 38.7915 109.478 37.9373C109.478 37.0831 108.786 36.3906 107.932 36.3906C107.077 36.3906 106.385 37.0831 106.385 37.9373C106.385 38.7915 107.077 39.484 107.932 39.484Z" stroke="white" stroke-width="1.27131" stroke-miterlimit="10"/>
<path d="M116.525 39.484C117.38 39.484 118.072 38.7915 118.072 37.9373C118.072 37.0831 117.38 36.3906 116.525 36.3906C115.671 36.3906 114.979 37.0831 114.979 37.9373C114.979 38.7915 115.671 39.484 116.525 39.484Z" stroke="white" stroke-width="1.27131" stroke-miterlimit="10"/>
<path d="M125.291 39.484C126.146 39.484 126.838 38.7915 126.838 37.9373C126.838 37.0831 126.146 36.3906 125.291 36.3906C124.437 36.3906 123.745 37.0831 123.745 37.9373C123.745 38.7915 124.437 39.484 125.291 39.484Z" stroke="white" stroke-width="1.27131" stroke-miterlimit="10"/>
<path d="M219.649 43.0933H100.713" stroke="white" stroke-width="1.27131" stroke-miterlimit="10" stroke-linecap="round" stroke-linejoin="round"/>
<mask id="mask6" mask-type="alpha" maskUnits="userSpaceOnUse" x="133" y="53" width="44" height="40">
<path fill-rule="evenodd" clip-rule="evenodd" d="M133.515 53.6582H176.843V92.2589H133.515V53.6582Z" fill="white"/>
</mask>
<g mask="url(#mask6)">
<path fill-rule="evenodd" clip-rule="evenodd" d="M154.072 55.5374C154.03 55.5544 153.984 55.5573 153.94 55.5456C152.728 55.2188 135.165 50.8293 133.639 70.279C132.123 89.6034 144.823 93.6158 155.004 91.9016C155.871 91.7551 156.747 91.6872 157.627 91.6884C160.986 91.6942 169.809 91.1619 174.023 85.6959C179.286 78.8695 179.466 45.4606 154.072 55.5374Z" fill="#F4B13E"/>
</g>
<mask id="mask7" mask-type="alpha" maskUnits="userSpaceOnUse" x="144" y="45" width="19" height="16">
<path fill-rule="evenodd" clip-rule="evenodd" d="M144.591 45.4644H162.115V60.3542H144.591V45.4644Z" fill="white"/>
</mask>
<g mask="url(#mask7)">
<path fill-rule="evenodd" clip-rule="evenodd" d="M151.976 55.104C152.092 55.1193 152.178 55.0053 152.124 54.9024C151.488 53.7005 148.698 48.4177 148.543 47.9511C148.368 47.4233 149.102 46.5446 150.398 45.841C151.694 45.1375 152.744 45.3132 153.619 47.2475C154.463 49.1125 155.202 52.6948 155.147 54.4458C155.144 54.5404 155.225 54.6086 155.316 54.5874C156.168 54.3905 159.863 53.6946 162.021 55.8622C162.021 55.8622 163.226 56.7274 157.011 56.9126C156.93 56.9155 156.863 56.9819 156.869 57.063C156.917 57.6625 157.073 59.8942 156.77 59.8184C156.43 59.7326 154.937 58.9027 153.889 57.649C153.837 57.5861 153.748 57.5767 153.689 57.632C153.137 58.1498 150.605 60.502 150.294 60.3456C149.961 60.1781 150.103 58.5818 150.493 57.2917C150.522 57.1953 150.452 57.1012 150.351 57.1095C149.271 57.1929 144.293 57.5444 144.605 56.9173C144.947 56.2308 148.189 54.595 151.976 55.104Z" fill="#EE7748"/>
</g>
<path fill-rule="evenodd" clip-rule="evenodd" d="M153.357 74.1598H157.239C157.46 74.1598 157.615 73.996 157.542 73.8391L155.601 69.6673C155.501 69.452 155.095 69.452 154.995 69.6673L153.054 73.8391C152.981 73.996 153.136 74.1598 153.357 74.1598Z" fill="#1E1422"/>
<path fill-rule="evenodd" clip-rule="evenodd" d="M144.825 70.5401H148.707C148.928 70.5401 149.083 70.3167 149.01 70.1035L147.069 64.4254C146.969 64.1323 146.563 64.1323 146.463 64.4254L144.522 70.1035C144.448 70.3167 144.604 70.5401 144.825 70.5401Z" fill="#1E1422"/>
<path fill-rule="evenodd" clip-rule="evenodd" d="M161.631 70.5401H165.513C165.734 70.5401 165.889 70.3167 165.816 70.1035L163.875 64.4254C163.775 64.1323 163.369 64.1323 163.269 64.4254L161.328 70.1035C161.255 70.3167 161.41 70.5401 161.631 70.5401Z" fill="#1E1422"/>
<path fill-rule="evenodd" clip-rule="evenodd" d="M155.194 82.0581L157.051 84.0599C157.144 84.1604 157.268 84.2206 157.405 84.2306C158.242 84.289 161.345 84.0663 164.849 78.3398C165.068 77.9827 164.813 77.5204 164.395 77.521L161.147 77.5257C160.982 77.5257 160.827 77.6017 160.726 77.7326L159.398 79.4474C159.179 79.7297 158.751 79.7215 158.542 79.4322L157.334 77.753C157.233 77.6139 157.072 77.5309 156.9 77.5309L155.187 77.5333H155.277L153.566 77.5356C153.393 77.5356 153.233 77.6186 153.132 77.7589L151.928 79.4409C151.721 79.7314 151.292 79.7402 151.073 79.4585L149.74 77.7472C149.639 77.6168 149.483 77.5409 149.318 77.5415L146.071 77.5455C145.652 77.5461 145.399 78.009 145.618 78.3655C149.138 84.0827 152.241 84.2972 153.079 84.2364C153.215 84.2259 153.339 84.1651 153.431 84.0652L155.283 82.0581" fill="#1E1422"/>
<path d="M364.656 104.582L378.645 8.31592H371.239H238.48L224.491 104.582H364.656Z" fill="white"/>
<path d="M236.834 19.1494H376.725" stroke="#F7A14D" stroke-width="1.27131" stroke-miterlimit="10" stroke-linecap="round" stroke-linejoin="round"/>
<path d="M247.394 15.4463C248.152 15.4463 248.766 14.8323 248.766 14.0749C248.766 13.3176 248.152 12.7036 247.394 12.7036C246.637 12.7036 246.023 13.3176 246.023 14.0749C246.023 14.8323 246.637 15.4463 247.394 15.4463Z" stroke="#F7A14D" stroke-width="1.27131" stroke-miterlimit="10"/>
<path d="M255.212 15.4463C255.969 15.4463 256.583 14.8323 256.583 14.0749C256.583 13.3176 255.969 12.7036 255.212 12.7036C254.454 12.7036 253.84 13.3176 253.84 14.0749C253.84 14.8323 254.454 15.4463 255.212 15.4463Z" stroke="#F7A14D" stroke-width="1.27131" stroke-miterlimit="10"/>
<path d="M263.03 15.4463C263.787 15.4463 264.401 14.8323 264.401 14.0749C264.401 13.3176 263.787 12.7036 263.03 12.7036C262.272 12.7036 261.658 13.3176 261.658 14.0749C261.658 14.8323 262.272 15.4463 263.03 15.4463Z" stroke="#F7A14D" stroke-width="1.27131" stroke-miterlimit="10"/>
<path d="M314.734 61.3853H348.61" stroke="#F7A14D" stroke-width="1.27131" stroke-miterlimit="10" stroke-linecap="round" stroke-linejoin="round"/>
<path d="M315.694 54.5288H349.433" stroke="#F7A14D" stroke-width="1.27131" stroke-miterlimit="10" stroke-linecap="round" stroke-linejoin="round"/>
<path d="M313.637 68.2422H347.513" stroke="#F7A14D" stroke-width="1.27131" stroke-miterlimit="10" stroke-linecap="round" stroke-linejoin="round"/>
<path fill-rule="evenodd" clip-rule="evenodd" d="M264.128 43.7437C264.128 43.7437 288.219 3.64453 291.297 1.09798C294.375 -1.45258 299.629 0.588673 295.824 5.68578C292.019 10.7829 264.128 43.7437 264.128 43.7437Z" fill="#80C7EB"/>
<path fill-rule="evenodd" clip-rule="evenodd" d="M257.031 49.1158C256.417 47.0414 248.487 20.2307 247.027 17.3915C246.855 17.0591 246.379 16.1301 245.451 15.9098C244.622 15.7096 243.747 16.1581 243.326 16.5265C242.695 17.0751 241.96 18.4487 243.386 22.8217C245.936 30.6226 257.031 49.1158 257.031 49.1158Z" fill="#80C7EB"/>
<path fill-rule="evenodd" clip-rule="evenodd" d="M238.744 45.0226C236.242 42.9807 219.623 29.468 212.898 26.5292C211.636 25.9807 208.481 24.5994 206.873 25.8045C206.168 26.333 206.027 27.1618 206.014 27.2499C205.749 28.9355 207.724 30.4569 208.541 31.1536C215.219 36.8629 238.744 45.0226 238.744 45.0226Z" fill="#80C7EB"/>
<path fill-rule="evenodd" clip-rule="evenodd" d="M222.367 64.7202C222.367 64.7202 206.354 66.6626 206.042 69.2537C205.731 71.8448 206.285 75.1559 222.367 64.7202Z" fill="#80C7EB"/>
<path fill-rule="evenodd" clip-rule="evenodd" d="M250.208 63.6968C234.837 85.9645 223.632 102.417 222.295 104.701C221.947 105.303 221.173 106.667 221.762 107.626C222.055 108.108 222.63 108.377 223.078 108.445C224.947 108.726 226.89 105.792 227.715 104.701C232.77 97.9912 250.208 63.6968 250.208 63.6968Z" fill="#80C7EB"/>
<path fill-rule="evenodd" clip-rule="evenodd" d="M269.587 89.022C269.587 89.022 271.084 102.478 272.281 104.18C273.478 105.877 281.109 107.435 269.587 89.022Z" fill="#80C7EB"/>
<path fill-rule="evenodd" clip-rule="evenodd" d="M282.688 69.3247C282.688 69.3247 311.62 92.1587 315.554 91.028C319.493 89.8893 318.127 82.5159 282.688 69.3247Z" fill="#80C7EB"/>
<path fill-rule="evenodd" clip-rule="evenodd" d="M283.507 49.883C298.989 43.192 309.961 38.391 313.503 36.5651C314.261 36.1766 316.385 35.0475 317.918 35.8243C318.728 36.2327 319.323 37.1457 319.259 37.9986C319.148 39.4601 317.143 40.4491 316.235 40.8175C309.567 43.5083 283.507 49.883 283.507 49.883Z" fill="#80C7EB"/>
<path d="M243.678 78.942C241.015 77.8486 231.244 74.2992 219.744 78.0302C208.896 81.6082 203.583 89.73 202.087 92.1436" stroke="#EF5055" stroke-width="1.27131" stroke-miterlimit="10" stroke-linecap="round" stroke-linejoin="round"/>
<path d="M198.241 116.764L153.805 147.133L132.895 116.638L177.331 86.2694L203.237 91.1868L198.241 116.764Z" fill="#EF5055"/>
<path d="M173.218 106.829C172.72 107.633 172.221 108.438 171.646 108.916C169.595 110.429 166.682 109.738 165.169 107.687C163.657 105.636 164.348 102.724 166.399 101.211C167.3 100.656 168.603 100.35 169.983 100.37C171.114 100.792 172.244 101.214 172.876 102.441C173.833 103.591 173.89 105.296 173.218 106.829ZM165.881 103.395C165.458 104.526 165.362 105.58 166.32 106.73C167.354 108.205 169.538 108.724 171.014 107.69C171.915 107.135 172.414 106.33 172.587 105.602C172.759 104.874 172.53 103.897 171.975 102.996C171.419 102.095 170.615 101.597 169.887 101.424C169.159 101.251 168.181 101.48 167.28 102.036C166.705 102.514 166.13 102.993 165.881 103.395Z" fill="#D9ECFC"/>
<path d="M168.186 129.321C167.687 130.125 167.188 130.93 166.613 131.409C164.562 132.921 161.65 132.23 160.137 130.179C158.624 128.128 159.315 125.216 161.367 123.704C162.268 123.148 163.571 122.842 164.951 122.862C166.081 123.284 167.211 123.706 167.843 124.933C168.801 126.083 168.857 127.788 168.186 129.321ZM160.848 125.888C160.426 127.018 160.33 128.072 161.287 129.222C162.321 130.698 164.505 131.216 165.981 130.182C166.882 129.627 167.381 128.822 167.554 128.094C167.727 127.366 167.497 126.389 166.942 125.488C165.908 124.012 163.724 123.494 162.248 124.528C161.347 125.083 161.097 125.485 160.848 125.888Z" fill="#D9ECFC"/>
<path d="M180.822 114.324C180.899 114.649 180.573 114.726 180.247 114.802L154.299 118.488C153.973 118.565 153.57 118.315 153.494 117.99C153.417 117.664 153.667 117.262 153.993 117.185L179.941 113.499C180.593 113.346 180.669 113.672 180.822 114.324C180.746 113.998 180.746 113.998 180.822 114.324Z" fill="#D9ECFC"/>
<mask id="mask8" mask-type="alpha" maskUnits="userSpaceOnUse" x="226" y="32" width="71" height="63">
<path fill-rule="evenodd" clip-rule="evenodd" d="M226.803 32.6729H296.148V94.4534H226.803V32.6729Z" fill="white"/>
</mask>
<g mask="url(#mask8)">
<path fill-rule="evenodd" clip-rule="evenodd" d="M259.705 35.6806C259.637 35.7077 259.564 35.7124 259.493 35.6937C257.552 35.1706 229.443 28.1452 227.001 59.2745C224.575 90.2032 244.901 96.625 261.196 93.8814C262.583 93.6471 263.986 93.5383 265.393 93.5402C270.77 93.5496 284.891 92.6975 291.635 83.9493C300.059 73.0235 300.347 19.5526 259.705 35.6806Z" fill="#F4B13E"/>
</g>
<mask id="mask9" mask-type="alpha" maskUnits="userSpaceOnUse" x="244" y="19" width="29" height="25">
<path fill-rule="evenodd" clip-rule="evenodd" d="M244.53 19.5591H272.577V43.3903H244.53V19.5591Z" fill="white"/>
</mask>
<g mask="url(#mask9)">
<path fill-rule="evenodd" clip-rule="evenodd" d="M256.35 34.9883C256.535 35.0127 256.674 34.8303 256.586 34.6656C255.569 32.7419 251.104 24.2869 250.856 23.5399C250.575 22.6952 251.749 21.2888 253.824 20.1628C255.898 19.0368 257.579 19.3181 258.98 22.4139C260.331 25.3988 261.513 31.1323 261.425 33.9347C261.421 34.0862 261.55 34.1953 261.696 34.1614C263.059 33.8463 268.973 32.7325 272.427 36.2018C272.427 36.2018 274.356 37.5865 264.408 37.8828C264.279 37.8875 264.171 37.9938 264.182 38.1237C264.257 39.0832 264.507 42.655 264.022 42.5337C263.478 42.3963 261.088 41.0681 259.412 39.0615C259.328 38.9609 259.185 38.9458 259.091 39.0343C258.208 39.863 254.156 43.6277 253.657 43.3775C253.125 43.1094 253.352 40.5544 253.976 38.4896C254.023 38.3353 253.91 38.1848 253.75 38.198C252.021 38.3315 244.053 38.8941 244.552 37.8904C245.1 36.7916 250.288 34.1736 256.35 34.9883Z" fill="#EE7748"/>
</g>
<path fill-rule="evenodd" clip-rule="evenodd" d="M258.559 65.4867H264.773C265.127 65.4867 265.375 65.2246 265.258 64.9735L262.152 58.2965C261.991 57.9519 261.342 57.9519 261.181 58.2965L258.075 64.9735C257.957 65.2246 258.206 65.4867 258.559 65.4867Z" fill="#1E1422"/>
<path fill-rule="evenodd" clip-rule="evenodd" d="M244.904 59.6931H251.118C251.471 59.6931 251.719 59.3356 251.602 58.9943L248.496 49.9065C248.335 49.4374 247.686 49.4374 247.526 49.9065L244.419 58.9943C244.302 59.3356 244.55 59.6931 244.904 59.6931Z" fill="#1E1422"/>
<path fill-rule="evenodd" clip-rule="evenodd" d="M271.802 59.6931H278.016C278.369 59.6931 278.617 59.3356 278.5 58.9943L275.394 49.9065C275.233 49.4374 274.584 49.4374 274.423 49.9065L271.317 58.9943C271.2 59.3356 271.448 59.6931 271.802 59.6931Z" fill="#1E1422"/>
<path fill-rule="evenodd" clip-rule="evenodd" d="M261.5 78.1279L264.472 81.3317C264.621 81.4926 264.819 81.589 265.038 81.6049C266.379 81.6984 271.344 81.342 276.953 72.1767C277.303 71.6052 276.895 70.8653 276.226 70.8662L271.028 70.8737C270.764 70.8737 270.516 70.9953 270.354 71.2048L268.228 73.9494C267.878 74.4012 267.192 74.3881 266.858 73.925L264.925 71.2376C264.764 71.0149 264.505 70.8821 264.23 70.8821L261.489 70.8859H261.634L258.894 70.8896C258.618 70.8896 258.361 71.0224 258.2 71.2469L256.273 73.9391C255.941 74.404 255.255 74.418 254.905 73.9671L252.771 71.2282C252.609 71.0196 252.359 70.898 252.096 70.899L246.898 70.9055C246.228 70.9064 245.823 71.6473 246.174 72.2179C251.808 81.3682 256.773 81.7115 258.115 81.6142C258.333 81.5974 258.531 81.5001 258.679 81.3401L261.643 78.1279" fill="#1E1422"/>
<mask id="mask10" mask-type="alpha" maskUnits="userSpaceOnUse" x="266" y="118" width="89" height="50">
<path fill-rule="evenodd" clip-rule="evenodd" d="M266.289 141.196L346.662 118.279L354.08 144.292L273.706 167.209L266.289 141.196Z" fill="white"/>
</mask>
<g mask="url(#mask10)">
<path fill-rule="evenodd" clip-rule="evenodd" d="M339.329 137.695C339.329 137.695 324.017 134.504 330.146 144.187C330.146 144.187 319.153 138.755 313.412 155.888C313.412 155.888 299.923 144.784 293.265 154.566C293.265 154.566 291.652 142.368 282.34 153.126C282.34 153.126 284.898 140.584 267.792 146.471C267.792 146.471 284.9 131.853 294.364 135.457C298.852 137.178 302.266 140.133 305.156 141.628C304.373 140.323 304.376 138.604 305.304 137.248C306.572 135.359 309.146 134.87 311.011 136.139C312.03 136.83 312.665 137.904 312.772 139.047C313.076 138.578 313.384 138.027 313.678 137.425C318.984 126.745 323.811 119.667 348.404 124.386C348.404 124.386 329.66 127.984 339.329 137.695Z" fill="#152934"/>
</g>
<mask id="mask11" mask-type="alpha" maskUnits="userSpaceOnUse" x="0" y="93" width="116" height="66">
<path fill-rule="evenodd" clip-rule="evenodd" d="M10.0161 93L115.906 123.947L105.889 158.219L-4.60791e-05 127.271L10.0161 93Z" fill="white"/>
</mask>
<g mask="url(#mask11)">
<path fill-rule="evenodd" clip-rule="evenodd" d="M94.0565 140.473C94.0565 140.473 79.1992 126.137 79.2323 141.264C79.2323 141.264 70.7763 127.464 52.3108 142.56C52.3108 142.56 45.0571 120.669 30.7399 126.911C30.7399 126.911 37.5193 112.152 19.5514 117.616C19.5514 117.616 31.2307 105.407 7.9853 99.9486C7.9853 99.9486 37.3753 95.6582 45.4099 106.341C49.2121 111.42 50.9459 117.122 53.1227 120.825C53.1662 118.818 54.3788 116.899 56.3687 116.037C59.1146 114.82 62.3333 116.085 63.5237 118.814C64.1748 120.303 64.1283 121.949 63.4436 123.3C64.1134 122.991 64.8457 122.592 65.5974 122.126C79.0368 113.931 89.4075 109.422 113.554 131.993C113.554 131.993 90.0889 122.826 94.0565 140.473Z" fill="#152934"/>
</g>
</svg>
