<svg width="28" height="28" viewBox="0 0 28 28" fill="none" xmlns="http://www.w3.org/2000/svg">
<path d="M4.5 13.095L14 5.13184L23.5 13.095" stroke="white" stroke-width="1.2" stroke-linecap="round" stroke-linejoin="round"/>
<path fill-rule="evenodd" clip-rule="evenodd" d="M21.6943 14.4432L21.6944 22.8678H16.6364V15.8288H11.3636V22.8678H6.3057L6.30566 14.4432L13.9448 8.06934L21.6943 14.4432Z" fill="white"/>
<path d="M21.6944 22.8678V23.4678C21.8535 23.4678 22.0061 23.4046 22.1186 23.2921C22.2312 23.1796 22.2944 23.027 22.2944 22.8678L21.6944 22.8678ZM21.6943 14.4432L22.2943 14.4432C22.2943 14.2638 22.214 14.0938 22.0755 13.9798L21.6943 14.4432ZM16.6364 22.8678H16.0364C16.0364 23.1992 16.305 23.4678 16.6364 23.4678V22.8678ZM16.6364 15.8288H17.2364C17.2364 15.4975 16.9677 15.2288 16.6364 15.2288V15.8288ZM11.3636 15.8288V15.2288C11.0322 15.2288 10.7636 15.4975 10.7636 15.8288H11.3636ZM11.3636 22.8678V23.4678C11.695 23.4678 11.9636 23.1992 11.9636 22.8678H11.3636ZM6.3057 22.8678L5.7057 22.8678C5.7057 23.1992 5.97433 23.4678 6.3057 23.4678V22.8678ZM6.30566 14.4432L5.92127 13.9825C5.78464 14.0965 5.70566 14.2653 5.70566 14.4432L6.30566 14.4432ZM13.9448 8.06934L14.3259 7.60594C14.1033 7.42279 13.7818 7.42392 13.5604 7.60864L13.9448 8.06934ZM22.2944 22.8678L22.2943 14.4432L21.0943 14.4432L21.0944 22.8678L22.2944 22.8678ZM16.6364 23.4678H21.6944V22.2678H16.6364V23.4678ZM16.0364 15.8288V22.8678H17.2364V15.8288H16.0364ZM11.3636 16.4288H16.6364V15.2288H11.3636V16.4288ZM11.9636 22.8678V15.8288H10.7636V22.8678H11.9636ZM6.3057 23.4678H11.3636V22.2678H6.3057V23.4678ZM5.70566 14.4432L5.7057 22.8678L6.9057 22.8678L6.90566 14.4432L5.70566 14.4432ZM13.5604 7.60864L5.92127 13.9825L6.69006 14.9039L14.3292 8.53003L13.5604 7.60864ZM22.0755 13.9798L14.3259 7.60594L13.5637 8.53273L21.3132 14.9066L22.0755 13.9798Z" fill="white"/>
<path d="M7.56494 7.61914H7.62853L7.62903 9.37746L7.56494 9.42754V7.61914Z" stroke="white"/>
</svg>
