<svg width="28" height="28" viewBox="0 0 28 28" fill="none" xmlns="http://www.w3.org/2000/svg">
<path fill-rule="evenodd" clip-rule="evenodd" d="M14 4C10.2485 5.30385 6.16154 6.93154 4 8.37539C4 11.5008 4.84692 14.8931 5.24923 16.5C6.08231 19.8331 8.99923 22.3331 13.9992 24C18.9992 22.3331 21.9162 19.8331 22.7492 16.5L22.7513 16.4916C23.1522 14.8873 24 11.4945 24 8.37539C21.2446 6.73566 18.3822 5.65903 15.8787 4.71736C15.2252 4.47158 14.5963 4.235 14 4ZM15.4688 11.7622L14.2294 8.90393C14.1423 8.70321 13.8577 8.70321 13.7706 8.90393L12.5312 11.7622C12.495 11.8457 12.4162 11.9029 12.3256 11.9116L9.22423 12.2071C9.00644 12.2278 8.91848 12.4986 9.08248 12.6434L11.4178 14.7054C11.4861 14.7656 11.5161 14.8582 11.4964 14.9471L10.819 17.988C10.7715 18.2015 11.0018 18.3688 11.1902 18.2576L13.8729 16.6738C13.9513 16.6275 14.0487 16.6275 14.1271 16.6738L16.8098 18.2576C16.9982 18.3688 17.2285 18.2015 17.181 17.988L16.5036 14.9471C16.4838 14.8582 16.5139 14.7656 16.5822 14.7054L18.9175 12.6434C19.0815 12.4986 18.9936 12.2278 18.7758 12.2071L15.6744 11.9116C15.5838 11.9029 15.505 11.8457 15.4688 11.7622Z" fill="white"/>
</svg>
