<svg width="188" height="175" viewBox="0 0 188 175" fill="none" xmlns="http://www.w3.org/2000/svg">
<rect x="18.4658" y="127.539" width="135.738" height="46.4607" fill="white" stroke="#1E1E1C" stroke-width="0.75" stroke-linecap="round" stroke-linejoin="round"/>
<rect x="18.4658" y="127.539" width="73.7906" height="15.4869" fill="white" stroke="#1E1E1C" stroke-width="0.75" stroke-linecap="round" stroke-linejoin="round"/>
<path d="M171.621 92.0755C166.541 91.3767 162.538 87.2369 161.869 81.9754L161.523 79.2566H161.461L161.115 81.9754C160.44 87.2369 156.443 91.3826 151.363 92.0755L148.738 92.4337V92.4983L151.363 92.8565C156.443 93.5553 160.446 97.6952 161.115 102.957L161.461 105.675H161.523L161.869 102.957C162.544 97.6952 166.541 93.5494 171.621 92.8565L174.246 92.4983V92.4337L171.621 92.0755Z" fill="#DCDCDA"/>
<path d="M100.456 69.8564L100.377 69.9967L96.1394 68.8744C72.9633 62.7327 77.2639 60.7997 71.1649 83.2311L70.0076 87.4554H69.8513L68.7409 83.309C62.6732 60.5503 65.8947 62.9509 43.7195 68.8588L39.4971 69.9811L39.4189 69.8408L42.5154 66.7388C58.7949 50.4648 58.9044 54.2683 42.4684 37.9319L39.4189 34.9078L39.4971 34.7675L43.7352 35.8899C65.9886 41.7822 62.5169 44.2763 68.7097 21.5332L69.8669 17.3088H70.0233L71.1336 21.4553C77.1544 44.0269 73.0102 42.0628 96.155 35.9055L100.377 34.7831L100.456 34.9234L97.3592 38.0255C80.5323 54.8451 80.501 50.0283 97.4061 66.8323L100.456 69.8564Z" fill="#DCDCDA"/>
<rect x="9.35645" y="143.026" width="73.7906" height="15.4869" fill="white" stroke="#1E1E1C" stroke-width="0.75" stroke-linecap="round" stroke-linejoin="round"/>
<rect x="1.15723" y="158.513" width="73.7906" height="15.4869" fill="white" stroke="#1E1E1C" stroke-width="0.75" stroke-linecap="round" stroke-linejoin="round"/>
<path d="M81.3057 51.0156H140.88C142.124 51.0156 143.133 52.0115 143.133 53.2401L137.23 125.315C137.23 126.543 136.221 127.539 134.977 127.539H75.4026C74.1584 127.539 73.1497 126.543 73.1497 125.315L79.0528 53.2401C79.0528 52.0115 80.0614 51.0156 81.3057 51.0156Z" fill="#626AC0" stroke="#1E1E1C" stroke-width="0.75" stroke-miterlimit="10" stroke-linecap="round" stroke-linejoin="round"/>
<path d="M76.7275 51.0156H136.302C137.546 51.0156 138.555 52.0115 138.555 53.2401L132.652 125.315C132.652 126.543 131.643 127.539 130.399 127.539H70.8245C69.5803 127.539 68.5716 126.543 68.5716 125.315L74.4746 53.2401C74.4746 52.0115 75.4833 51.0156 76.7275 51.0156Z" fill="#7A84F0" stroke="#1E1E1C" stroke-width="0.75" stroke-miterlimit="10" stroke-linecap="round" stroke-linejoin="round"/>
<path d="M132.672 58.2954C132.672 58.3028 132.672 58.3102 132.671 58.3176L132.018 69.3709C132.012 70.2833 131.371 71.1276 130.459 71.1276H80.2194C79.3036 71.1276 78.661 70.2761 78.661 69.3593C78.661 69.3557 78.6611 69.3521 78.6612 69.3485C78.6613 69.3447 78.6615 69.3409 78.6617 69.3372L79.3151 58.2837C79.3206 57.3714 79.9616 56.5271 80.8735 56.5271H131.114C132.029 56.5271 132.672 57.3786 132.672 58.2954Z" fill="#32E476" stroke="#1E1E1C" stroke-width="0.75" stroke-miterlimit="10" stroke-linecap="round" stroke-linejoin="round"/>
<path d="M89.9385 57.0068L101.417 70.7902H97.1408L85.6646 57.0068H89.9385Z" fill="white"/>
<path d="M82.9269 57.0068L94.0332 70.7902H92.1495L81.2344 57.0068H82.9269Z" fill="white"/>
<path d="M78.3028 84.6321C78.3473 84.1151 78.7801 83.718 79.2991 83.718H113.255C113.841 83.718 114.302 84.2199 114.251 84.8039L111.154 120.739C111.109 121.256 110.676 121.653 110.157 121.653H76.2012C75.6151 121.653 75.1546 121.151 75.2049 120.567L78.3028 84.6321Z" fill="#7A84F0" stroke="#1E1E1C" stroke-width="0.75" stroke-linecap="round" stroke-linejoin="round"/>
<path d="M82.6096 77.4467C82.6496 76.9257 83.0841 76.5234 83.6066 76.5234H94.7916C95.3732 76.5234 95.8322 77.018 95.7888 77.598L95.6205 79.8493C95.5814 80.3712 95.1466 80.7747 94.6232 80.7747H83.4334C82.8509 80.7747 82.3917 80.2788 82.4364 79.698L82.6096 77.4467Z" fill="#7A84F0" stroke="#1E1E1C" stroke-width="0.75" stroke-linecap="round" stroke-linejoin="round"/>
<path d="M97.8391 77.4467C97.8791 76.9257 98.3136 76.5234 98.8361 76.5234H110.021C110.603 76.5234 111.062 77.018 111.018 77.598L110.85 79.8493C110.811 80.3712 110.376 80.7747 109.853 80.7747H98.6629C98.0804 80.7747 97.6212 80.2788 97.6658 79.698L97.8391 77.4467Z" fill="#7A84F0" stroke="#1E1E1C" stroke-width="0.75" stroke-linecap="round" stroke-linejoin="round"/>
<path d="M77.0742 96.1448H113.047" stroke="#1E1E1C" stroke-width="0.75" stroke-linecap="round" stroke-linejoin="round"/>
<path d="M76.4199 108.572H112.393" stroke="#1E1E1C" stroke-width="0.75" stroke-linecap="round" stroke-linejoin="round"/>
<path d="M89.8279 83.718L86.5576 121.653" stroke="#1E1E1C" stroke-width="0.75" stroke-linecap="round" stroke-linejoin="round"/>
<path d="M102.582 83.718L99.3115 121.653" stroke="#1E1E1C" stroke-width="0.75" stroke-linecap="round" stroke-linejoin="round"/>
<path d="M118.768 77.4329C118.815 76.9178 119.246 76.5234 119.764 76.5234H128.957C129.545 76.5234 130.006 77.0284 129.953 77.614L129.154 86.4058C129.107 86.9208 128.675 87.3152 128.158 87.3152H118.964C118.376 87.3152 117.915 86.8103 117.968 86.2247L118.768 77.4329Z" fill="#7A84F0" stroke="#1E1E1C" stroke-width="0.75" stroke-linecap="round" stroke-linejoin="round"/>
<path d="M117.474 91.8383C117.512 91.3163 117.947 90.9126 118.471 90.9126H127.667C128.249 90.9126 128.707 91.4069 128.664 91.9869L126.524 120.727C126.485 121.249 126.05 121.653 125.526 121.653H116.33C115.749 121.653 115.29 121.158 115.333 120.579L117.474 91.8383Z" fill="#7A84F0" stroke="#1E1E1C" stroke-width="0.75" stroke-linecap="round" stroke-linejoin="round"/>
<path d="M123.342 23.9269C119.952 30.0044 112.355 32.218 106.372 28.8713C100.389 25.5245 98.2858 17.8846 101.675 11.8072C105.064 5.72973 112.662 3.51607 118.645 6.86283C124.628 10.2096 126.731 17.8494 123.342 23.9269Z" fill="#DAEE32" stroke="#1E1E1C" stroke-width="0.75" stroke-linecap="round" stroke-linejoin="round"/>
<path d="M121.904 23.1239C118.515 29.2014 110.917 31.415 104.934 28.0683C98.9511 24.7215 96.8483 17.0817 100.237 11.0042C103.627 4.92675 111.224 2.71309 117.207 6.05985C123.19 9.40662 125.293 17.0465 121.904 23.1239Z" fill="#DAEE32" stroke="#1E1E1C" stroke-width="0.75" stroke-linecap="round" stroke-linejoin="round"/>
<path d="M106.491 14.9037C107.459 15.6255 108.161 16.646 108.49 17.8071C108.819 18.9683 108.756 20.2055 108.311 21.3274L107.838 22.5182L107.866 22.5339L108.632 21.5066C109.354 20.5394 110.374 19.837 111.535 19.5081C112.697 19.1792 113.934 19.242 115.056 19.687L116.246 20.1601L116.262 20.1318L115.235 19.3661C114.268 18.6442 113.565 17.6238 113.236 16.4626C112.907 15.3014 112.97 14.0642 113.415 12.9424L113.888 11.7516L113.86 11.7358L113.094 12.7631C112.372 13.7304 111.352 14.4327 110.191 14.7617C109.03 15.0906 107.792 15.0277 106.671 14.5828L105.48 14.1097L105.464 14.1379L106.491 14.9037Z" fill="#C4D62D" stroke="#1E1E1C" stroke-width="0.75" stroke-miterlimit="10" stroke-linecap="round" stroke-linejoin="round"/>
<path d="M156.451 60.344C159.192 65.2587 165.336 67.0488 170.174 64.3424C175.012 61.6359 176.713 55.4578 173.972 50.5431C171.232 45.6284 165.087 43.8383 160.249 46.5447C155.411 49.2512 153.71 55.4293 156.451 60.344Z" fill="#DAEE32" stroke="#1E1E1C" stroke-width="0.75" stroke-linecap="round" stroke-linejoin="round"/>
<path d="M157.614 59.6946C160.355 64.6092 166.499 66.3994 171.337 63.6929C176.176 60.9865 177.876 54.8084 175.135 49.8937C172.395 44.979 166.251 43.1889 161.412 45.8953C156.574 48.6018 154.873 54.7799 157.614 59.6946Z" fill="#DAEE32" stroke="#1E1E1C" stroke-width="0.75" stroke-linecap="round" stroke-linejoin="round"/>
<path d="M170.078 53.0473C169.296 53.631 168.728 54.4562 168.462 55.3952C168.196 56.3342 168.247 57.3347 168.607 58.2419L168.989 59.2049L168.966 59.2176L168.347 58.3869C167.763 57.6047 166.938 57.0367 165.999 56.7707C165.06 56.5047 164.06 56.5556 163.153 56.9154L162.19 57.298L162.177 57.2751L163.008 56.6559C163.79 56.0722 164.358 55.247 164.624 54.3079C164.89 53.3689 164.839 52.3684 164.479 51.4612L164.096 50.4983L164.119 50.4855L164.739 51.3163C165.322 52.0984 166.148 52.6664 167.087 52.9324C168.026 53.1984 169.026 53.1476 169.933 52.7878L170.896 52.4052L170.909 52.428L170.078 53.0473Z" fill="#C4D62D" stroke="#1E1E1C" stroke-width="0.75" stroke-miterlimit="10" stroke-linecap="round" stroke-linejoin="round"/>
<path d="M32.5624 92.1251C29.3791 97.8334 22.2429 99.9126 16.6232 96.7691C11.0036 93.6256 9.02849 86.4498 12.2118 80.7415C15.395 75.0333 22.5312 72.954 28.1509 76.0975C33.7705 79.241 35.7456 86.4168 32.5624 92.1251Z" fill="#DAEE32" stroke="#1E1E1C" stroke-width="0.75" stroke-linecap="round" stroke-linejoin="round"/>
<path d="M31.2118 91.3709C28.0285 97.0792 20.8923 99.1584 15.2727 96.0149C9.65299 92.8715 7.67791 85.6957 10.8612 79.9874C14.0444 74.2791 21.1806 72.1999 26.8003 75.3434C32.42 78.4868 34.395 85.6626 31.2118 91.3709Z" fill="#DAEE32" stroke="#1E1E1C" stroke-width="0.75" stroke-linecap="round" stroke-linejoin="round"/>
<path d="M16.7345 83.6502C17.6429 84.3282 18.3026 85.2866 18.6116 86.3773C18.9205 87.4679 18.8615 88.63 18.4436 89.6837L17.9992 90.8021L18.0257 90.8169L18.745 89.852C19.423 88.9436 20.3814 88.2838 21.4721 87.9749C22.5627 87.666 23.7248 87.725 24.7785 88.1429L25.8969 88.5873L25.9117 88.5607L24.9468 87.8415C24.0384 87.1635 23.3787 86.2051 23.0697 85.1144C22.7608 84.0238 22.8198 82.8617 23.2377 81.808L23.6821 80.6896L23.6556 80.6747L22.9363 81.6397C22.2583 82.5481 21.2999 83.2078 20.2092 83.5168C19.1186 83.8257 17.9565 83.7667 16.9028 83.3488L15.7844 82.9044L15.7696 82.9309L16.7345 83.6502Z" fill="#C4D62D" stroke="#1E1E1C" stroke-width="0.75" stroke-miterlimit="10" stroke-linecap="round" stroke-linejoin="round"/>
<path fill-rule="evenodd" clip-rule="evenodd" d="M48.0751 95.2188L43.4607 85.7954L50.8438 88.7712L55.9197 83.8115L60.9955 88.7712L68.3786 85.7954L63.7642 95.2188H62.7283C67.6855 100.272 76.2241 110.722 75.9373 117.653C75.6353 124.954 69.7706 127.286 66.8759 127.539H57.0595H55.5499H45.7335C42.8389 127.286 36.9741 124.954 36.6721 117.653C36.3853 110.722 44.924 100.272 49.8812 95.2188H48.0751Z" fill="#32E476"/>
<path d="M43.4607 85.7954L43.6009 85.4476C43.4568 85.3895 43.2919 85.4263 43.1861 85.54C43.0803 85.6537 43.0556 85.8208 43.1239 85.9603L43.4607 85.7954ZM48.0751 95.2188L47.7383 95.3837C47.8013 95.5122 47.932 95.5938 48.0751 95.5938V95.2188ZM50.8438 88.7712L50.7036 89.119C50.8416 89.1746 50.9994 89.1434 51.1059 89.0394L50.8438 88.7712ZM55.9197 83.8115L56.1817 83.5433C56.036 83.4009 55.8033 83.4009 55.6576 83.5433L55.9197 83.8115ZM60.9955 88.7712L60.7335 89.0394C60.8399 89.1434 60.9977 89.1746 61.1357 89.119L60.9955 88.7712ZM68.3786 85.7954L68.7154 85.9603C68.7837 85.8208 68.759 85.6537 68.6532 85.54C68.5474 85.4263 68.3825 85.3895 68.2385 85.4476L68.3786 85.7954ZM63.7642 95.2188V95.5938C63.9074 95.5938 64.038 95.5122 64.101 95.3837L63.7642 95.2188ZM62.7283 95.2188V94.8438C62.5772 94.8438 62.441 94.9343 62.3825 95.0736C62.324 95.2128 62.3548 95.3736 62.4606 95.4814L62.7283 95.2188ZM75.9373 117.653L75.5627 117.638L75.9373 117.653ZM66.8759 127.539V127.914C66.8869 127.914 66.8978 127.914 66.9087 127.913L66.8759 127.539ZM45.7335 127.539L45.7008 127.913C45.7116 127.914 45.7226 127.914 45.7335 127.914V127.539ZM36.6721 117.653L37.0468 117.638L36.6721 117.653ZM49.8812 95.2188L50.1489 95.4814C50.2546 95.3736 50.2854 95.2128 50.2269 95.0736C50.1685 94.9343 50.0322 94.8438 49.8812 94.8438V95.2188ZM43.1239 85.9603L47.7383 95.3837L48.4119 95.0538L43.7975 85.6305L43.1239 85.9603ZM50.984 88.4234L43.6009 85.4476L43.3205 86.1432L50.7036 89.119L50.984 88.4234ZM55.6576 83.5433L50.5817 88.503L51.1059 89.0394L56.1817 84.0797L55.6576 83.5433ZM61.2576 88.503L56.1817 83.5433L55.6576 84.0797L60.7335 89.0394L61.2576 88.503ZM68.2385 85.4476L60.8554 88.4234L61.1357 89.119L68.5188 86.1432L68.2385 85.4476ZM64.101 95.3837L68.7154 85.9603L68.0419 85.6305L63.4274 95.0538L64.101 95.3837ZM62.7283 95.5938H63.7642V94.8438H62.7283V95.5938ZM76.312 117.669C76.3868 115.86 75.8865 113.85 75.0382 111.791C74.1885 109.728 72.9797 107.593 71.6121 105.525C68.8771 101.389 65.4865 97.4948 62.996 94.9561L62.4606 95.4814C64.9272 97.9956 68.2846 101.853 70.9865 105.938C72.3374 107.981 73.5193 110.073 74.3448 112.077C75.1718 114.085 75.6312 115.98 75.5627 117.638L76.312 117.669ZM66.9087 127.913C68.4199 127.781 70.6841 127.111 72.6164 125.529C74.5612 123.937 76.1564 121.431 76.312 117.669L75.5627 117.638C75.4163 121.176 73.928 123.486 72.1413 124.949C70.3421 126.422 68.2267 127.045 66.8432 127.166L66.9087 127.913ZM57.0595 127.914H66.8759V127.164H57.0595V127.914ZM55.5499 127.914H57.0595V127.164H55.5499V127.914ZM45.7335 127.914H55.5499V127.164H45.7335V127.914ZM36.2974 117.669C36.453 121.431 38.0482 123.937 39.993 125.529C41.9253 127.111 44.1896 127.781 45.7008 127.913L45.7662 127.166C44.3828 127.045 42.2674 126.422 40.4681 124.949C38.6814 123.486 37.1932 121.176 37.0468 117.638L36.2974 117.669ZM49.6135 94.9561C47.1229 97.4948 43.7323 101.389 40.9974 105.525C39.6297 107.593 38.4209 109.728 37.5712 111.791C36.7229 113.85 36.2226 115.86 36.2974 117.669L37.0468 117.638C36.9782 115.98 37.4376 114.085 38.2647 112.077C39.0902 110.073 40.2721 107.981 41.6229 105.938C44.3249 101.853 47.6822 97.9956 50.1489 95.4814L49.6135 94.9561ZM48.0751 95.5938H49.8812V94.8438H48.0751V95.5938Z" fill="#1E1E1C"/>
<path d="M56.2231 120.895C60.7408 120.895 64.4032 117.354 64.4032 112.986C64.4032 108.618 60.7408 105.077 56.2231 105.077C51.7053 105.077 48.043 108.618 48.043 112.986C48.043 117.354 51.7053 120.895 56.2231 120.895Z" fill="white"/>
<path fill-rule="evenodd" clip-rule="evenodd" d="M47.6222 94.4583C46.9922 94.4583 46.4814 94.969 46.4814 95.599C46.4814 96.229 46.9922 96.7397 47.6222 96.7397H59.5572C59.5514 96.7989 59.5455 96.8656 59.5397 96.9394C59.4293 98.3305 59.507 99.882 59.9203 101.372C60.3497 102.92 61.1039 104.206 62.2496 105.118C62.6091 105.403 63.129 105.34 63.4114 104.976C63.6931 104.612 63.6309 104.085 63.2714 103.799C62.43 103.13 61.8549 102.148 61.5141 100.918C61.2966 100.136 61.1872 99.316 61.1579 98.5189C62.4507 100.429 64.5592 101.4 67.3947 101.4C67.8517 101.4 68.2227 101.025 68.2227 100.562C68.2227 100.099 67.8517 99.7238 67.3947 99.7238C64.6965 99.7238 62.9667 98.7469 62.0626 96.7397H64.218C64.848 96.7397 65.3587 96.229 65.3587 95.599C65.3587 94.969 64.848 94.4583 64.218 94.4583H47.6222Z" fill="#7A84F0"/>
<path d="M59.5572 96.7397L59.9304 96.7759C59.9406 96.6706 59.9059 96.566 59.8349 96.4877C59.7638 96.4094 59.6629 96.3647 59.5572 96.3647V96.7397ZM59.5397 96.9394L59.9135 96.9691L59.9136 96.9689L59.5397 96.9394ZM59.9203 101.372L59.559 101.472L59.559 101.472L59.9203 101.372ZM62.2496 105.118L62.0161 105.411L62.0163 105.411L62.2496 105.118ZM63.4114 104.976L63.7076 105.206L63.7079 105.206L63.4114 104.976ZM63.2714 103.799L63.0379 104.093L63.0381 104.093L63.2714 103.799ZM61.5141 100.918L61.8754 100.818L61.8754 100.818L61.5141 100.918ZM61.1579 98.5189L61.4685 98.3087C61.3747 98.1701 61.2004 98.1104 61.0414 98.1624C60.8824 98.2144 60.777 98.3654 60.7832 98.5326L61.1579 98.5189ZM62.0626 96.7397V96.3647C61.9354 96.3647 61.8168 96.4292 61.7477 96.5361C61.6786 96.643 61.6684 96.7777 61.7207 96.8937L62.0626 96.7397ZM46.8564 95.599C46.8564 95.1761 47.1993 94.8333 47.6222 94.8333V94.0833C46.7851 94.0833 46.1064 94.7619 46.1064 95.599H46.8564ZM47.6222 96.3647C47.1993 96.3647 46.8564 96.0219 46.8564 95.599H46.1064C46.1064 96.4361 46.7851 97.1147 47.6222 97.1147V96.3647ZM59.5572 96.3647H47.6222V97.1147H59.5572V96.3647ZM59.9136 96.9689C59.9192 96.8972 59.9249 96.8327 59.9304 96.7759L59.1839 96.7035C59.178 96.765 59.1719 96.834 59.1659 96.9099L59.9136 96.9689ZM60.2817 101.272C59.8825 99.8329 59.8058 98.3268 59.9135 96.9691L59.1659 96.9097C59.0528 98.3343 59.1314 99.9311 59.559 101.472L60.2817 101.272ZM62.4831 104.824C61.4129 103.973 60.6951 102.762 60.2817 101.272L59.559 101.472C60.0044 103.078 60.7949 104.439 62.0161 105.411L62.4831 104.824ZM63.1151 104.746C62.96 104.946 62.678 104.979 62.483 104.824L62.0163 105.411C62.5401 105.827 63.2979 105.734 63.7076 105.206L63.1151 104.746ZM63.0381 104.093C63.2358 104.25 63.2719 104.544 63.1149 104.746L63.7079 105.206C64.1144 104.68 64.026 103.92 63.5048 103.506L63.0381 104.093ZM61.1527 101.018C61.5085 102.303 62.1186 103.361 63.0379 104.093L63.505 103.506C62.7413 102.898 62.2013 101.994 61.8754 100.818L61.1527 101.018ZM60.7832 98.5326C60.8134 99.3537 60.9262 100.203 61.1527 101.019L61.8754 100.818C61.6671 100.068 61.5611 99.2784 61.5327 98.5051L60.7832 98.5326ZM67.3947 101.025C64.6507 101.025 62.6749 100.091 61.4685 98.3087L60.8474 98.7291C62.2266 100.767 64.4678 101.775 67.3947 101.775V101.025ZM67.8477 100.562C67.8477 100.822 67.6406 101.025 67.3947 101.025V101.775C68.0629 101.775 68.5977 101.228 68.5977 100.562H67.8477ZM67.3947 100.099C67.6404 100.099 67.8477 100.302 67.8477 100.562H68.5977C68.5977 99.8958 68.063 99.3488 67.3947 99.3488V100.099ZM61.7207 96.8937C62.2021 97.9626 62.9125 98.7731 63.8724 99.3115C64.827 99.8469 66.0024 100.099 67.3947 100.099V99.3488C66.0889 99.3488 65.0502 99.1122 64.2393 98.6573C63.4337 98.2055 62.8272 97.524 62.4045 96.5857L61.7207 96.8937ZM64.218 96.3647H62.0626V97.1147H64.218V96.3647ZM64.9837 95.599C64.9837 96.0219 64.6409 96.3647 64.218 96.3647V97.1147C65.0551 97.1147 65.7337 96.4361 65.7337 95.599H64.9837ZM64.218 94.8333C64.6409 94.8333 64.9837 95.1761 64.9837 95.599H65.7337C65.7337 94.7619 65.0551 94.0833 64.218 94.0833V94.8333ZM47.6222 94.8333H64.218V94.0833H47.6222V94.8333Z" fill="#1E1E1C"/>
<path d="M183.678 112.748C180.776 112.362 178.488 110.078 178.106 107.175L177.908 105.675H177.873L177.675 107.175C177.29 110.078 175.005 112.366 172.103 112.748L170.603 112.945V112.981L172.103 113.179C175.005 113.564 177.293 115.848 177.675 118.751L177.873 120.251H177.908L178.106 118.751C178.491 115.848 180.776 113.561 183.678 113.179L185.178 112.981V112.945L183.678 112.748Z" fill="#DCDCDA"/>
<rect x="136.509" y="124.115" width="24.8459" height="23.4656" fill="#32E476" stroke="#1E1E1C" stroke-width="0.75" stroke-linecap="round" stroke-linejoin="round"/>
<rect x="140.004" y="139.704" width="7.19742" height="3.99857" fill="white"/>
<path d="M129.607 115.833L136.534 124.115H161.355L154.428 115.833H129.607Z" fill="#32E476" stroke="#1E1E1C" stroke-width="0.75" stroke-linecap="round" stroke-linejoin="round"/>
<rect width="13.8033" height="23.4656" transform="matrix(-1 0 0 1 175.158 124.115)" fill="#32E476" stroke="#1E1E1C" stroke-width="0.75" stroke-linecap="round" stroke-linejoin="round"/>
<path d="M179.989 115.833L174.844 124.115H161.355L166.5 115.833H179.989Z" fill="#32E476" stroke="#1E1E1C" stroke-width="0.75" stroke-linecap="round" stroke-linejoin="round"/>
<rect x="143.272" y="147.581" width="28.2408" height="26.4188" fill="#32E476" stroke="#1E1E1C" stroke-width="0.75" stroke-linecap="round" stroke-linejoin="round"/>
<rect width="15.4869" height="26.4188" transform="matrix(-1 0 0 1 187 147.581)" fill="#32E476" stroke="#1E1E1C" stroke-width="0.75" stroke-linecap="round" stroke-linejoin="round"/>
<rect x="160.581" y="165.194" width="8.19895" height="5.50393" fill="white"/>
<rect x="128.696" y="150.314" width="16.3979" height="22.7749" fill="white" stroke="#1E1E1C" stroke-width="0.75" stroke-linecap="round" stroke-linejoin="round"/>
<rect x="125.963" y="150.314" width="16.3979" height="22.7749" fill="white" stroke="#1E1E1C" stroke-width="0.75" stroke-linecap="round" stroke-linejoin="round"/>
<rect x="123.23" y="150.314" width="16.3979" height="22.7749" fill="white" stroke="#1E1E1C" stroke-width="0.75" stroke-linecap="round" stroke-linejoin="round"/>
<rect x="120.497" y="150.314" width="16.3979" height="22.7749" fill="white" stroke="#1E1E1C" stroke-width="0.75" stroke-linecap="round" stroke-linejoin="round"/>
<rect x="117.765" y="150.314" width="16.3979" height="22.7749" fill="white" stroke="#1E1E1C" stroke-width="0.75" stroke-linecap="round" stroke-linejoin="round"/>
<rect x="115.031" y="156.691" width="22.3573" height="17.3089" fill="#7A84F0" stroke="#1E1E1C" stroke-width="0.75" stroke-linecap="round" stroke-linejoin="round"/>
<rect width="12.2605" height="17.3089" transform="matrix(-1 0 0 1 149.649 156.691)" fill="#7A84F0" stroke="#1E1E1C" stroke-width="0.75" stroke-linecap="round" stroke-linejoin="round"/>
<rect x="128.734" y="168.23" width="6.49084" height="3.60602" fill="white"/>
</svg>
