<svg width="24" height="24" viewBox="0 0 24 24" fill="none" xmlns="http://www.w3.org/2000/svg">
<path fill-rule="evenodd" clip-rule="evenodd" d="M12.949 2.9305C14.0334 1.88309 15.4859 1.30352 16.9935 1.31662C18.5012 1.32972 19.9433 1.93445 21.0094 3.00054C22.0755 4.06664 22.6802 5.50881 22.6933 7.01644C22.7064 8.52407 22.1269 9.97654 21.0795 11.061L21.0704 11.0704L18.0704 14.0702C17.4875 14.6533 16.786 15.1043 16.0135 15.3924C15.241 15.6806 14.4155 15.7993 13.5931 15.7404C12.7707 15.6815 11.9705 15.4464 11.247 15.0511C10.5234 14.6558 9.8933 14.1094 9.39943 13.4492C9.15132 13.1175 9.21908 12.6475 9.55077 12.3994C9.88245 12.1513 10.3525 12.219 10.6006 12.5507C10.9656 13.0387 11.4313 13.4425 11.9661 13.7347C12.501 14.0269 13.0924 14.2007 13.7002 14.2442C14.3081 14.2877 14.9182 14.2 15.4892 13.987C16.0602 13.774 16.5787 13.4407 17.0096 13.0097L20.0049 10.0144C20.7763 9.21336 21.2031 8.14173 21.1934 7.02948C21.1837 5.91514 20.7367 4.84919 19.9488 4.0612C19.1608 3.27322 18.0948 2.82625 16.9805 2.81657C15.8679 2.8069 14.7959 3.23393 13.9948 4.00581L12.2788 5.71184C11.985 6.00388 11.5102 6.00249 11.2181 5.70875C10.9261 5.415 10.9275 4.94013 11.2212 4.64809L12.949 2.9305Z" fill="black"/>
<path fill-rule="evenodd" clip-rule="evenodd" d="M7.98673 8.60677C8.75925 8.31859 9.58471 8.19993 10.4071 8.25883C11.2295 8.31773 12.0297 8.55281 12.7532 8.94813C13.4768 9.34345 14.1069 9.88977 14.6008 10.55C14.8489 10.8817 14.7811 11.3517 14.4494 11.5998C14.1177 11.8479 13.6477 11.7802 13.3996 11.4485C13.0346 10.9605 12.5689 10.5567 12.0341 10.2645C11.4992 9.97229 10.9078 9.79853 10.3 9.755C9.6921 9.71146 9.08198 9.79917 8.51098 10.0122C7.93999 10.2252 7.42148 10.5585 6.99063 10.9895L3.99532 13.9848C3.22389 14.7859 2.79714 15.8575 2.8068 16.9697C2.81648 18.0841 3.26345 19.15 4.05144 19.938C4.83942 20.726 5.90537 21.173 7.01971 21.1826C8.13196 21.1923 9.20359 20.7656 10.0047 19.9941L11.7099 18.2889C12.0028 17.996 12.4776 17.996 12.7705 18.2889C13.0634 18.5818 13.0634 19.0567 12.7705 19.3496L11.0513 21.0688C9.96685 22.1162 8.51431 22.6957 7.00668 22.6826C5.49905 22.6695 4.05687 22.0648 2.99078 20.9987C1.92468 19.9326 1.31996 18.4904 1.30686 16.9828C1.29376 15.4751 1.87332 14.0227 2.92073 12.9382L2.92979 12.9288L5.92977 9.92901C6.51267 9.34593 7.21425 8.89492 7.98673 8.60677Z" fill="black"/>
</svg>
