<svg width="169" height="179" viewBox="0 0 169 179" fill="none" xmlns="http://www.w3.org/2000/svg">
<path fill-rule="evenodd" clip-rule="evenodd" d="M50.9463 12.2789C50.9463 5.81257 56.1883 0.570557 62.6547 0.570557L147.934 0.570557L157.681 0.570592V0.574541C152.272 0.725684 147.934 5.15805 147.934 10.6037L147.934 24.3434L147.934 30.6701V39.5884V93.6531C147.934 93.6685 147.934 93.6839 147.934 93.6993V94.7709C147.934 100.62 143.192 105.361 137.343 105.361C137.16 105.361 136.979 105.357 136.798 105.348C136.608 105.357 136.417 105.361 136.225 105.361H50.9463L50.9463 93.0987V12.2789Z" fill="#DAEE32" stroke="#1E1E1C" stroke-width="0.75" stroke-linejoin="round"/>
<circle cx="68.9058" cy="23.0846" r="7.61044" fill="#7A84F0" stroke="#1E1E1C" stroke-width="0.75"/>
<path d="M64.1494 23.0846L68.0665 25.9385L73.6625 20.2307" stroke="#1E1E1C" stroke-width="0.75" stroke-linecap="round" stroke-linejoin="round"/>
<circle cx="68.9058" cy="47.0868" r="7.61044" fill="#7A84F0" stroke="#1E1E1C" stroke-width="0.75"/>
<path d="M64.1494 47.0868L68.0665 49.9407L73.6625 44.2329" stroke="#1E1E1C" stroke-width="0.75" stroke-linecap="round" stroke-linejoin="round"/>
<path d="M147.934 10.6037C147.934 5.06256 152.426 0.570557 157.967 0.570557C163.508 0.570557 168 5.06256 168 10.6037V39.5884H147.934V10.6037Z" fill="#C4D62D" stroke="#1E1E1C" stroke-width="0.75" stroke-linejoin="round"/>
<path fill-rule="evenodd" clip-rule="evenodd" d="M105.382 76.516C105.382 70.5125 110.249 65.6458 116.252 65.6458C122.223 65.6458 127.07 70.4602 127.122 76.4189V95.0976C127.122 100.565 131.396 105.034 136.786 105.347V105.36H127.123V105.361H105.382V76.516Z" fill="#C4D62D" stroke="#1E1E1C" stroke-width="0.75" stroke-linejoin="round"/>
<path fill-rule="evenodd" clip-rule="evenodd" d="M106.009 166.089V105.799L106.009 105.799V76.0301C106.009 70.295 110.658 65.6458 116.393 65.6458C116.626 65.6458 116.856 65.6534 117.085 65.6685V65.6458H102.487L102.468 65.6458H24.9501C18.4837 65.6458 13.2417 70.8878 13.2417 77.3541V177.797H94.3003C100.767 177.797 106.009 172.555 106.009 166.089Z" fill="#DAEE32" stroke="#1E1E1C" stroke-width="0.75" stroke-linejoin="round"/>
<path d="M47.2454 85.1389H91.7371" stroke="#1E1E1C" stroke-width="0.75" stroke-linecap="round" stroke-linejoin="round"/>
<path d="M47.2454 133.143H91.7371" stroke="#1E1E1C" stroke-width="0.75" stroke-linecap="round" stroke-linejoin="round"/>
<path d="M47.2454 108.556H82.3704" stroke="#1E1E1C" stroke-width="0.75" stroke-linecap="round" stroke-linejoin="round"/>
<circle cx="30.2682" cy="85.1388" r="7.61044" fill="#7A84F0" stroke="#1E1E1C" stroke-width="0.75"/>
<path d="M25.5117 85.1386L29.4289 87.9925L35.0248 82.2847" stroke="#1E1E1C" stroke-width="0.75" stroke-linecap="round" stroke-linejoin="round"/>
<circle cx="30.2682" cy="133.143" r="7.61044" fill="#7A84F0" stroke="#1E1E1C" stroke-width="0.75"/>
<path d="M25.5117 133.143L29.4289 135.997L35.0248 130.29" stroke="#1E1E1C" stroke-width="0.75" stroke-linecap="round" stroke-linejoin="round"/>
<circle cx="30.2682" cy="109.141" r="7.61044" fill="#7A84F0" stroke="#1E1E1C" stroke-width="0.75"/>
<path d="M25.5117 109.141L29.4289 111.995L35.0248 106.287" stroke="#1E1E1C" stroke-width="0.75" stroke-linecap="round" stroke-linejoin="round"/>
<path fill-rule="evenodd" clip-rule="evenodd" d="M95.1302 177.454C89.3861 177.454 84.7296 172.797 84.7296 167.053V154.783H0.780518V165.745C0.780518 172.212 6.02253 177.454 12.4889 177.454L95.1302 177.454ZM95.7144 177.438V177.454L95.1302 177.454C95.3262 177.454 95.521 177.448 95.7144 177.438Z" fill="#C4D62D"/>
<path d="M95.1302 177.454C89.3861 177.454 84.7296 172.797 84.7296 167.053V154.783H0.780518V165.745C0.780518 172.212 6.02253 177.454 12.4889 177.454L95.1302 177.454ZM95.1302 177.454L95.7144 177.454V177.438C95.521 177.448 95.3262 177.454 95.1302 177.454Z" stroke="#1E1E1C" stroke-width="0.75" stroke-linejoin="round"/>
<path d="M85.8831 23.6699H130.375" stroke="#1E1E1C" stroke-width="0.75" stroke-linecap="round" stroke-linejoin="round"/>
<path d="M85.8831 47.0867H121.008" stroke="#1E1E1C" stroke-width="0.75" stroke-linecap="round" stroke-linejoin="round"/>
</svg>
