<?xml version="1.0" encoding="UTF-8"?>
<svg width="22px" height="20px" viewBox="0 0 22 20" version="1.1" xmlns="http://www.w3.org/2000/svg" xmlns:xlink="http://www.w3.org/1999/xlink">
    <!-- Generator: Sketch 52.5 (67469) - http://www.bohemiancoding.com/sketch -->
    <title>Arrow_to_up_24x24_active</title>
    <desc>Created with Sketch.</desc>
    <defs>
        <path d="M19,29 L19,13 C19,12.4477153 19.4477153,12 20,12 C20.5522847,12 21,12.4477153 21,13 L21,29 C21,29.5522847 20.5522847,30 20,30 C19.4477153,30 19,29.5522847 19,29 Z M20.7136271,10.295367 L30.704406,20.2784747 C31.0985313,20.6722974 31.0985313,21.3108102 30.704406,21.704633 C30.3102806,22.0984557 29.6712772,22.0984557 29.2771519,21.704633 L20,12.4346044 L10.7228481,21.704633 C10.3287228,22.0984557 9.68971935,22.0984557 9.29559401,21.704633 C8.90146866,21.3108102 8.90146866,20.6722974 9.29559401,20.2784747 L19.2863729,10.295367 C19.6804983,9.90154432 20.3195017,9.90154432 20.7136271,10.295367 Z" id="path-1"></path>
    </defs>
    <g id="V5" stroke="none" stroke-width="1" fill="none" fill-rule="evenodd">
        <g id="Back-to-top/bottom-buttons" transform="translate(-190.000000, -202.000000)">
            <g id="Group-13" transform="translate(42.000000, 35.000000)">
                <g id="Group-9" transform="translate(136.000000, 117.000000)">
                    <g id="Group-7" transform="translate(3.000000, 40.000000)">
                        <g id="Group-10">
                            <mask id="mask-2" fill="white">
                                <use xlink:href="#path-1"></use>
                            </mask>
                            <use id="Arrow_to_up_24x24_active" fill="#4A5F6E" fill-rule="nonzero" xlink:href="#path-1"></use>
                        </g>
                    </g>
                </g>
            </g>
        </g>
    </g>
</svg>