<svg width="120" height="108" viewBox="0 0 120 108" fill="none" xmlns="http://www.w3.org/2000/svg">
<path d="M6.42334 47.6758H115.137V107.22H6.42334V47.6758Z" fill="#D0DBFF"/>
<path d="M16.6152 65.9005C16.6152 64.935 17.3979 64.1523 18.3634 64.1523H42.0454C43.0109 64.1523 43.7936 64.935 43.7936 65.9005V107.217H16.6152V65.9005Z" fill="#022786"/>
<path fill-rule="evenodd" clip-rule="evenodd" d="M37.677 87.6961C38.8028 87.6961 39.7154 86.7926 39.7154 85.6781C39.7154 84.5636 38.8028 83.6602 37.677 83.6602C36.5513 83.6602 35.6387 84.5636 35.6387 85.6781C35.6387 86.7926 36.5513 87.6961 37.677 87.6961Z" fill="#67D3A6"/>
<path d="M49.9082 65.045C49.9082 64.5607 50.3009 64.168 50.7853 64.168H103.388C103.872 64.168 104.265 64.5607 104.265 65.045V91.0742H49.9082V65.045Z" fill="white"/>
<path d="M79.8042 72.2383H98.8291V88.382H79.8042V72.2383Z" fill="#FFDB6C"/>
<path d="M85.2407 72.2383H93.3942V77.6195L91.3559 76.5433L89.6718 77.6195L87.2791 76.5433L85.2407 77.6195V72.2383Z" fill="#022786"/>
<path d="M55.3447 72.2383H74.3696V88.382H55.3447V72.2383Z" fill="#FFDB6C"/>
<path d="M60.7803 72.2383H68.9338V77.6195L66.8954 76.5433L65.2113 77.6195L62.8187 76.5433L60.7803 77.6195V72.2383Z" fill="#022786"/>
<path d="M6.08374 8.24414H113.438L119.949 48.0376H0.704102L6.08374 8.24414Z" fill="#ADC0FD"/>
<path d="M12.877 3.26562H107.322V8.64686H12.877L12.877 3.26562Z" fill="#7996F9"/>
<path d="M6.0835 1.92343C6.0835 1.18044 6.68581 0.578125 7.42881 0.578125H112.772C113.515 0.578125 114.118 1.18044 114.118 1.92343C114.118 2.66643 113.515 3.26874 112.772 3.26874H7.4288C6.68581 3.26874 6.0835 2.66643 6.0835 1.92343Z" fill="#022786"/>
<path d="M108.989 49.0233C108.981 51.5131 106.603 53.5297 103.667 53.5372H103.473C100.538 53.5296 98.1611 51.5124 98.1552 49.0233C98.1464 51.5131 95.7684 53.5297 92.8323 53.5372H92.6385C89.7033 53.5296 87.3269 51.5124 87.321 49.0233C87.3122 51.5131 84.9342 53.5297 81.9981 53.5372H81.8044C78.8692 53.5296 76.4927 51.5124 76.4868 49.0233C76.478 51.5131 74.1 53.5297 71.1639 53.5372H70.9702C68.035 53.5296 65.6585 51.5124 65.6526 49.0233C65.6438 51.5131 63.2658 53.5297 60.3297 53.5372H60.136C57.2008 53.5296 54.8243 51.5124 54.8184 49.0233C54.8096 51.5131 52.4316 53.5297 49.4955 53.5372H49.3018C46.3666 53.5296 43.9902 51.5124 43.9842 49.0233C43.9754 51.5131 41.5974 53.5297 38.6613 53.5372H38.4676C35.5324 53.5296 33.156 51.5124 33.15 49.0233C33.1412 51.5131 30.7632 53.5297 27.8271 53.5372H27.6334C24.6982 53.5296 22.3218 51.5124 22.3159 49.0233C22.307 51.5131 19.929 53.5297 16.9929 53.5372H16.7992C13.864 53.5296 11.4876 51.5124 11.4817 49.0233C11.4728 51.5131 9.09483 53.5297 6.15875 53.5372H5.96499C3.02979 53.5296 0.653371 51.5124 0.647461 49.0233V48.0391H119.893V49.0233C119.884 51.5131 117.437 53.5297 114.501 53.5372H114.307C111.372 53.5296 108.995 51.5124 108.989 49.0233Z" fill="#7996F9"/>
<path d="M49.9082 88.3867H104.265V91.0773H49.9082L49.9082 88.3867Z" fill="#7996F9"/>
</svg>
