<svg width="16" height="16" viewBox="0 0 16 16" fill="none" xmlns="http://www.w3.org/2000/svg">
<path d="M6.99946 6.99922V2.99672C6.99946 2.44409 7.44746 1.99609 8.00009 1.99609C8.55272 1.99609 9.00071 2.44409 9.00071 2.99672V6.99922H13.0032C13.5558 6.99922 14.0038 7.44721 14.0038 7.99984C14.0038 8.55247 13.5558 9.00047 13.0032 9.00047H9.00071V13.003C9.00071 13.5556 8.55272 14.0036 8.00009 14.0036C7.44746 14.0036 6.99946 13.5556 6.99946 13.003V9.00047H2.99696C2.44433 9.00047 1.99634 8.55247 1.99634 7.99984C1.99634 7.44721 2.44433 6.99922 2.99696 6.99922H6.99946Z" fill="#2FB7EC"/>
</svg>