<svg width="379" height="254" viewBox="0 0 379 254" fill="none" xmlns="http://www.w3.org/2000/svg">
<mask id="mask0_1535_99624" style="mask-type:alpha" maskUnits="userSpaceOnUse" x="0" y="0" width="379" height="254">
<path d="M0.0527344 0.770508H378.053V253.427H0.0527344V0.770508Z" fill="white"/>
</mask>
<g mask="url(#mask0_1535_99624)">
<path d="M73.1845 237.401C40.6891 237.401 14.3438 210.734 14.3438 177.838C14.3438 144.942 41.619 118.275 69.7182 118.275C70.3722 118.275 75.731 118.254 76.3811 118.275C76.3811 64.1632 123.796 38.8584 171.253 38.8584C205.016 38.8584 234.795 56.1312 252.435 82.4239C257.701 79.8781 263.473 78.5596 269.32 78.5671C290.984 78.5671 308.547 96.3453 308.547 118.276C308.547 119.4 308.501 120.514 308.41 121.616C331.335 129.754 347.774 151.853 347.774 177.838C347.774 210.734 321.43 237.402 288.933 237.402" fill="white"/>
<path d="M73.1848 236.553C72.0697 236.553 70.9571 236.521 69.8495 236.457L69.7538 238.151C70.8928 238.217 72.0369 238.25 73.1848 238.25V236.553ZM66.5231 236.169C65.4183 236.041 64.3175 235.881 63.2219 235.689L62.9321 237.362C64.0561 237.559 65.1888 237.724 66.3278 237.854L66.5231 236.169ZM59.927 235.012C58.8445 234.755 57.7697 234.467 56.704 234.148L56.2188 235.774C57.315 236.102 58.4226 236.399 59.5377 236.663L59.927 235.012ZM53.5464 233.102C52.5015 232.721 51.4678 232.31 50.4468 231.869L49.7777 233.428C50.8286 233.881 51.892 234.304 52.9681 234.696L53.5477 233.102H53.5464ZM47.3913 230.441C46.3976 229.94 45.4186 229.411 44.4555 228.853L43.61 230.324C44.6017 230.897 45.6097 231.442 46.6315 231.957L47.3913 230.441ZM41.5663 227.067C40.6368 226.454 39.725 225.815 38.8321 225.149L37.8241 226.511C38.7414 227.196 39.6801 227.854 40.6352 228.484L41.5663 227.067ZM36.263 223.118C35.4089 222.403 34.5752 221.665 33.7631 220.902L32.6065 222.14C33.4419 222.925 34.2994 223.686 35.1781 224.422L36.263 223.118ZM31.3742 218.527C30.6074 217.719 29.8637 216.89 29.144 216.04L27.8525 217.139C28.5938 218.014 29.3598 218.867 30.1495 219.698L31.3742 218.527ZM27.0335 213.4C26.3631 212.509 25.7182 211.6 25.0994 210.672L23.6932 211.617C24.3302 212.571 24.9941 213.506 25.684 214.422L27.0335 213.4ZM23.2988 207.801C22.7344 206.839 22.1975 205.862 21.6886 204.87L20.1841 205.646C20.7078 206.666 21.2603 207.672 21.841 208.661L23.2988 207.801ZM20.2207 201.793C19.7701 200.773 19.3487 199.741 18.9569 198.698L17.3718 199.294C17.775 200.369 18.2097 201.431 18.6734 202.48L20.2207 201.793ZM17.8481 195.46C17.5167 194.396 17.2181 193.321 16.9472 192.238L15.3054 192.649C15.5826 193.763 15.8913 194.869 16.2315 195.964L17.8481 195.458V195.46ZM16.2706 189.177C16.0589 188.083 15.8782 186.982 15.7288 185.876L14.053 186.104C14.2067 187.243 14.3932 188.375 14.6099 189.501L16.2706 189.177ZM15.3722 182.524C15.2857 181.411 15.2303 180.297 15.2059 179.181L13.5137 179.219C13.5389 180.369 13.5956 181.514 13.685 182.655L15.3734 182.524H15.3722ZM15.226 175.82C15.2638 174.703 15.3344 173.589 15.4364 172.479L13.7506 172.325C13.646 173.466 13.5742 174.612 13.5338 175.761L15.226 175.821V175.82ZM15.8396 169.151C16.0047 168.048 16.2025 166.949 16.4318 165.857L14.7749 165.51C14.5395 166.633 14.3361 167.763 14.1651 168.898L15.8396 169.151ZM17.2181 162.57C17.5079 161.494 17.8292 160.425 18.1795 159.367L16.5742 158.831C16.2132 159.92 15.8829 161.02 15.5839 162.128L17.2181 162.57ZM19.316 156.234C19.7255 155.196 20.1627 154.169 20.6302 153.155L19.093 152.445C18.6142 153.487 18.1631 154.542 17.7422 155.61L19.316 156.234ZM22.1258 150.124C22.6487 149.139 23.1968 148.166 23.7713 147.21L22.3223 146.335C21.7316 147.317 21.1677 148.315 20.6314 149.329L22.127 150.124H22.1258ZM25.6059 144.342C26.2323 143.419 26.8835 142.514 27.5589 141.626L26.2132 140.597C25.5191 141.509 24.8498 142.439 24.206 143.387L25.6046 144.342H25.6059ZM29.6064 139.078C30.328 138.228 31.0725 137.397 31.8391 136.587L30.6119 135.42C29.8241 136.252 29.059 137.105 28.3174 137.979L29.6064 139.078ZM34.2205 134.207C35.0298 133.441 35.86 132.697 36.7103 131.977L35.6191 130.681C34.7459 131.419 33.8929 132.185 33.0588 132.973L34.2205 134.207ZM39.3525 129.866C40.242 129.197 41.1504 128.553 42.0766 127.935L41.1379 126.523C40.1851 127.158 39.2507 127.821 38.3357 128.51L39.3525 129.866ZM44.9532 126.137C45.9135 125.576 46.8904 125.044 47.8827 124.542L47.1204 123.027C46.1023 123.542 45.0956 124.091 44.1014 124.671L44.9532 126.137ZM50.9647 123.103C51.9859 122.665 53.0209 122.261 54.068 121.89L53.5036 120.289C52.4224 120.673 51.3538 121.091 50.2994 121.543L50.9647 123.103ZM57.2521 120.878C58.3204 120.578 59.3988 120.315 60.4852 120.089L60.1412 118.426C59.0223 118.659 57.906 118.931 56.7959 119.243L57.2533 120.878H57.2521ZM63.6151 119.547C64.7163 119.395 65.8201 119.284 66.92 119.213L66.8129 117.52C65.6701 117.592 64.526 117.709 63.3832 117.865L63.6138 119.547H63.6151ZM70.283 119.123L73.6673 119.115L73.6648 117.418L70.2779 117.426L70.283 119.123ZM77.2294 117.615C77.2382 116.483 77.2672 115.363 77.3176 114.252L75.6266 114.176C75.5762 115.307 75.546 116.45 75.5372 117.602L77.2294 117.615ZM77.5343 110.894C77.63 109.771 77.7472 108.658 77.8871 107.559L76.2075 107.345C76.0651 108.469 75.9454 109.605 75.8484 110.75L77.5343 110.894ZM78.381 104.219C78.57 103.11 78.7817 102.012 79.016 100.927L77.3629 100.568C77.1223 101.678 76.9055 102.801 76.7127 103.934L78.381 104.219ZM79.8111 97.6224C80.0996 96.5348 80.4121 95.4597 80.7473 94.3985L79.1345 93.8857C78.7891 94.9779 78.4694 96.0781 78.1756 97.1853L79.8111 97.6224ZM81.8233 91.2555C82.2114 90.2032 82.6234 89.166 83.0581 88.1415L81.502 87.4758C81.056 88.5243 80.6326 89.588 80.2357 90.6656L81.8233 91.2542V91.2555ZM84.4668 85.0528C84.9544 84.046 85.4672 83.0555 86.004 82.079L84.521 81.2604C83.9709 82.2633 83.4457 83.2797 82.946 84.3087L84.4668 85.0515V85.0528ZM87.7163 79.1369C88.3022 78.1856 88.9121 77.2495 89.5433 76.3286L88.1498 75.3672C87.5016 76.3108 86.8769 77.2704 86.2762 78.245L87.7163 79.1369ZM91.4585 73.6795C92.1346 72.7898 92.832 71.9166 93.5501 71.0607L92.2548 69.968C91.5194 70.8449 90.8052 71.7396 90.1129 72.6512L91.4598 73.6795H91.4585ZM95.7829 68.5253C96.5389 67.7092 97.3138 66.907 98.1113 66.12L96.9244 64.911C96.1109 65.7136 95.316 66.535 94.5405 67.3744L95.7829 68.5266V68.5253ZM100.572 63.8006C101.402 63.0536 102.249 62.3249 103.111 61.6151L102.036 60.3039C101.155 61.0296 100.289 61.7747 99.4406 62.5386L100.572 63.8019V63.8006ZM105.775 59.5156C106.667 58.8426 107.573 58.188 108.492 57.5524L107.532 56.1552C106.593 56.8039 105.668 57.4719 104.757 58.1588L105.775 59.5156ZM111.334 55.6739C112.274 55.0777 113.23 54.4991 114.202 53.9344L113.354 52.4652C112.363 53.0413 111.388 53.6312 110.43 54.2388L111.334 55.6739ZM117.129 52.3086C118.111 51.7856 119.109 51.2777 120.121 50.785L119.383 49.259C118.352 49.7593 117.336 50.2759 116.335 50.809L117.129 52.3086ZM123.143 49.3777C124.166 48.9233 125.197 48.4862 126.235 48.0665L125.599 46.4937C124.541 46.9232 123.493 47.3679 122.457 47.8277L123.143 49.379V49.3777ZM129.333 46.8701C130.379 46.4848 131.437 46.1147 132.503 45.7584L131.97 44.149C130.891 44.5081 129.817 44.8842 128.749 45.2771L129.333 46.8689V46.8701ZM135.736 44.7402C136.81 44.4197 137.888 44.1153 138.971 43.8269L138.536 42.1871C137.432 42.4802 136.338 42.7897 135.252 43.1131L135.736 44.7402ZM142.194 43.0171C143.285 42.7599 144.379 42.5182 145.477 42.292L145.136 40.6295C144.019 40.8607 142.909 41.1058 141.806 41.366L142.194 43.0171ZM148.801 41.6553C149.905 41.4596 151.01 41.279 152.119 41.1134L151.869 39.4345C150.743 39.6037 149.621 39.7869 148.505 39.984L148.801 41.6553ZM155.474 40.6586C156.583 40.5234 157.698 40.4021 158.817 40.296L158.657 38.6057C157.523 38.7144 156.394 38.8369 155.269 38.9746L155.474 40.6586ZM162.195 40.0181C163.313 39.9423 164.431 39.8791 165.553 39.8299L165.481 38.1345C164.344 38.1838 163.211 38.2482 162.079 38.3253L162.195 40.0181ZM168.935 39.7275L170.088 39.7124L171.24 39.7073C171.603 39.7073 171.955 39.7086 172.309 39.7124L172.327 38.0158L171.787 38.012L171.24 38.0107C170.462 38.0107 169.683 38.0171 168.904 38.031L168.935 39.7275ZM175.663 39.8071C176.782 39.8577 177.898 39.9271 179.012 40.0156L179.147 38.324C178.013 38.2336 176.877 38.1629 175.74 38.1118L175.664 39.8071H175.663ZM182.36 40.3428C183.474 40.4703 184.583 40.6182 185.688 40.7849L185.94 39.106C184.813 38.9364 183.684 38.7865 182.553 38.6563L182.36 40.3428ZM189.009 41.3445C190.11 41.5505 191.206 41.7741 192.298 42.0191L192.666 40.363C191.554 40.1148 190.438 39.8861 189.319 39.677L189.009 41.3445ZM195.599 42.8188C196.682 43.1018 197.761 43.4024 198.832 43.7233L199.316 42.0975C198.225 41.7708 197.128 41.4634 196.026 41.1753L195.599 42.8175V42.8188ZM201.997 44.7301C203.058 45.0876 204.111 45.4628 205.16 45.8582L205.754 44.269C204.688 43.8675 203.616 43.4846 202.536 43.1207L201.997 44.7301ZM208.305 47.1076C209.338 47.5384 210.363 47.9881 211.379 48.4555L212.085 46.9118C211.05 46.4367 210.007 45.9798 208.956 45.5412L208.305 47.1076ZM214.44 49.926C215.439 50.4288 216.43 50.9493 217.412 51.4862L218.222 49.9955C217.223 49.4491 216.215 48.9201 215.198 48.4088L214.44 49.926ZM220.278 53.1183C221.242 53.6892 222.195 54.2767 223.139 54.8806L224.05 53.4506C223.09 52.8358 222.119 52.2378 221.139 51.6567L220.278 53.1183ZM225.945 56.7465C226.867 57.3819 227.777 58.035 228.676 58.702L229.684 57.3377C228.769 56.6585 227.843 55.9952 226.905 55.348L225.945 56.7465ZM231.356 60.7637C232.232 61.4623 233.095 62.1748 233.947 62.9024L235.046 61.6114C234.179 60.8712 233.301 60.146 232.41 59.436L231.356 60.7637ZM236.485 65.1485C237.31 65.9065 238.123 66.6771 238.923 67.4616L240.107 66.2489C239.293 65.4507 238.466 64.6665 237.625 63.8966L236.483 65.1485H236.485ZM241.298 69.877C242.07 70.6885 242.829 71.5131 243.573 72.3505L244.837 71.2224C244.08 70.3705 243.309 69.5315 242.524 68.7059L241.299 69.877H241.298ZM245.787 74.9327C246.502 75.7957 247.202 76.6708 247.888 77.5578L249.226 76.5181C248.529 75.6162 247.817 74.7263 247.09 73.8488L245.787 74.9327ZM249.92 80.2864C250.534 81.1404 251.135 82.0045 251.722 82.8774L252.015 83.317L252.539 83.2438C252.64 83.2312 252.739 83.2057 252.833 83.168L252.987 83.0998L252.258 81.5687L252.306 81.5636L252.422 82.4037L253.125 81.93C252.528 81.0419 251.918 80.1626 251.293 79.2935L249.92 80.2864ZM256.036 81.8062C257.069 81.4196 258.121 81.0785 259.186 80.7842L258.736 79.1482C257.624 79.4565 256.525 79.8127 255.445 80.2157L256.037 81.8062H256.036ZM262.441 80.0376C263.524 79.8392 264.618 79.6876 265.722 79.5841L265.563 77.895C264.411 78.0037 263.268 78.1603 262.136 78.3688L262.441 80.0376ZM269.03 79.4173L269.318 79.416C270.333 79.416 271.341 79.4552 272.344 79.5348L272.476 77.842C271.777 77.7869 271.076 77.7503 270.375 77.7321L269.018 77.7194L269.03 79.4173ZM275.635 79.939C276.726 80.1222 277.807 80.3521 278.873 80.6288L279.298 78.9865C278.183 78.696 277.055 78.4559 275.914 78.2665L275.635 79.939ZM282.091 81.6192C283.131 81.9906 284.154 82.4075 285.158 82.8673L285.863 81.3261C284.815 80.8442 283.746 80.4083 282.66 80.0199L282.091 81.6192ZM288.098 84.3757C289.058 84.9227 289.994 85.5101 290.905 86.138L291.864 84.7408C290.914 84.0852 289.936 83.4711 288.933 82.9002L288.098 84.3757ZM293.607 88.1832C294.458 88.8888 295.279 89.6306 296.067 90.4066L297.252 89.1938C296.43 88.3848 295.573 87.6114 294.685 86.8757L293.607 88.1832ZM298.286 92.7803C299.007 93.6194 299.693 94.4889 300.34 95.3864L301.712 94.3935C301.037 93.4563 300.322 92.5485 299.569 91.6724L298.286 92.7803ZM302.187 98.196C302.754 99.146 303.281 100.12 303.766 101.117L305.287 100.371C304.781 99.3326 304.231 98.316 303.639 97.3243L302.187 98.196ZM305.113 104.219C305.509 105.251 305.861 106.302 306.169 107.367L307.794 106.896C307.474 105.786 307.107 104.69 306.693 103.612L305.113 104.219ZM306.968 110.677C307.179 111.761 307.346 112.856 307.467 113.962L309.15 113.776C309.024 112.624 308.85 111.482 308.628 110.35L306.968 110.677ZM307.691 117.388C307.715 118.501 307.694 119.614 307.625 120.725L309.315 120.83C309.368 119.98 309.393 119.129 309.393 118.259L309.383 117.35L307.691 117.388ZM310.475 123.309C311.507 123.726 312.526 124.174 313.531 124.652L314.256 123.118C313.221 122.626 312.172 122.165 311.111 121.735L310.477 123.31L310.475 123.309ZM316.511 126.175C317.487 126.709 318.446 127.272 319.39 127.863L320.286 126.423C319.316 125.816 318.328 125.235 317.325 124.686L316.512 126.175H316.511ZM322.201 129.738C323.108 130.383 323.998 131.054 324.868 131.75L325.924 130.424C325.029 129.708 324.114 129.018 323.179 128.354L322.201 129.739V129.738ZM327.404 133.9C328.232 134.645 329.039 135.412 329.824 136.203L331.024 135.005C330.216 134.192 329.386 133.401 328.533 132.637L327.404 133.9ZM332.137 138.67C332.876 139.505 333.591 140.36 334.281 141.235L335.609 140.181C334.899 139.281 334.164 138.402 333.404 137.543L332.137 138.67ZM336.312 143.968C336.951 144.882 337.562 145.813 338.148 146.762L339.587 145.868C338.984 144.893 338.354 143.935 337.698 142.996L336.312 143.968ZM339.782 149.58C340.314 150.559 340.819 151.553 341.294 152.561L342.823 151.837C342.335 150.799 341.816 149.776 341.269 148.768L339.782 149.58ZM342.647 155.656C343.063 156.691 343.451 157.736 343.809 158.793L345.412 158.247C345.044 157.161 344.645 156.085 344.216 155.021L342.647 155.658V155.656ZM344.802 162.031C345.098 163.105 345.364 164.187 345.598 165.28L347.252 164.921C347.011 163.799 346.738 162.685 346.433 161.579L344.802 162.031ZM346.218 168.62C346.389 169.719 346.529 170.827 346.639 171.94L348.323 171.773C348.211 170.631 348.066 169.493 347.89 168.359L346.218 168.62ZM346.877 175.348C346.923 176.471 346.938 177.595 346.921 178.719L348.614 178.744C348.631 177.588 348.615 176.432 348.568 175.278L346.877 175.348ZM346.78 182.063C346.702 183.175 346.593 184.285 346.452 185.391L348.132 185.606C348.276 184.469 348.388 183.328 348.468 182.183L346.78 182.063ZM345.936 188.711C345.733 189.809 345.498 190.899 345.235 191.981L346.878 192.385C347.15 191.272 347.391 190.149 347.6 189.02L345.937 188.711H345.936ZM344.334 195.255C344.007 196.323 343.65 197.379 343.263 198.423L344.851 199.013C345.249 197.94 345.616 196.852 345.952 195.754L344.334 195.255ZM342.023 201.508C341.577 202.53 341.104 203.54 340.6 204.535L342.112 205.302C342.628 204.279 343.116 203.239 343.573 202.187L342.023 201.507V201.508ZM338.987 207.514C338.427 208.478 337.841 209.426 337.228 210.356L338.642 211.291C339.272 210.335 339.874 209.358 340.45 208.367L338.987 207.514ZM335.27 213.153C334.602 214.048 333.911 214.922 333.196 215.777L334.494 216.869C335.23 215.989 335.941 215.089 336.626 214.169L335.269 213.153H335.27ZM331.049 218.205C330.288 219.019 329.504 219.81 328.698 220.579L329.864 221.808C330.694 221.017 331.5 220.203 332.284 219.366L331.049 218.205ZM326.19 222.836C325.341 223.558 324.471 224.254 323.582 224.926L324.603 226.281C325.517 225.59 326.411 224.873 327.284 224.131L326.19 222.836ZM320.826 226.885C319.9 227.504 318.958 228.095 317.998 228.659L318.855 230.123C319.841 229.542 320.813 228.934 321.765 228.297L320.826 226.885ZM315.018 230.293C314.025 230.8 313.019 231.278 312 231.725L312.681 233.279C313.729 232.818 314.765 232.327 315.785 231.806L315.017 230.293H315.018ZM308.844 233.002C307.801 233.387 306.746 233.743 305.681 234.068L306.173 235.691C307.269 235.357 308.355 234.992 309.428 234.594L308.843 233.002H308.844ZM302.519 234.934C301.44 235.195 300.351 235.426 299.255 235.626L299.558 237.296C300.687 237.09 301.807 236.852 302.918 236.582L302.52 234.934H302.519ZM296.062 236.113C294.961 236.25 293.854 236.356 292.741 236.429L292.851 238.122C293.993 238.047 295.134 237.939 296.27 237.797L296.062 236.113ZM289.376 236.551L288.935 236.553V238.25L289.388 238.248L289.376 236.551Z" fill="#ADC0FD"/>
<path fill-rule="evenodd" clip-rule="evenodd" d="M166.672 200.068H308.845C309.743 200.067 310.603 199.71 311.238 199.073C311.872 198.437 312.229 197.574 312.229 196.674V40.5556C312.229 39.6555 311.873 38.7923 311.238 38.1558C310.604 37.5192 309.743 37.1615 308.845 37.1611H166.672C165.774 37.1611 164.913 37.5188 164.278 38.1553C163.643 38.7919 163.286 39.6553 163.286 40.5556V196.674C163.286 197.574 163.643 198.438 164.278 199.074C164.913 199.71 165.774 200.068 166.672 200.068Z" fill="#F0F4FF"/>
<path fill-rule="evenodd" clip-rule="evenodd" d="M166.672 37.1611H308.845C309.743 37.1615 310.604 37.5192 311.238 38.1558C311.873 38.7923 312.229 39.6555 312.229 40.5556V49.0398H163.286V40.5556C163.286 40.1098 163.374 39.6684 163.544 39.2566C163.714 38.8447 163.963 38.4705 164.278 38.1553C164.592 37.8401 164.965 37.5901 165.376 37.4195C165.787 37.2489 166.227 37.1611 166.672 37.1611Z" fill="#022786"/>
<path d="M127.745 237.401H269.92V94.596L249.609 74.4946H124.362C123.464 74.4946 122.604 74.8521 121.969 75.4884C121.334 76.1247 120.977 76.9878 120.977 77.8878V230.615C120.977 232.415 121.69 234.141 122.959 235.414C124.229 236.687 125.951 237.402 127.747 237.402L127.745 237.401Z" fill="#D0DBFF"/>
<path d="M63.0876 106.906C63.0876 105.5 61.9509 104.36 60.5487 104.36C59.1465 104.36 58.0098 105.5 58.0098 106.906C58.0098 108.312 59.1465 109.451 60.5487 109.451C61.9509 109.451 63.0876 108.312 63.0876 106.906Z" fill="#2F88EC" fill-opacity="0.12"/>
<path fill-rule="evenodd" clip-rule="evenodd" d="M329.951 44.1984C328.145 45.8192 327.242 47.6295 327.242 49.628C327.242 51.6278 328.145 53.438 329.951 55.0588C331.756 53.438 332.66 51.6278 332.66 49.628C332.66 47.6295 331.756 45.8192 329.951 44.1984ZM331.525 42.6206C333.141 44.4309 334.947 45.3366 336.94 45.3366C338.935 45.3366 340.74 44.4309 342.357 42.6206C340.74 40.8116 338.935 39.9058 336.94 39.9058C334.947 39.9058 333.141 40.8116 331.525 42.6218V42.6206ZM319.945 35.4704C318.448 37.3805 317.872 39.3196 318.219 41.2891C318.564 43.2585 319.767 44.8831 321.826 46.1653C323.323 44.2553 323.899 42.3149 323.552 40.3454C323.206 38.3772 322.003 36.7514 319.945 35.4691V35.4704ZM321.221 33.6424C323.127 35.1432 325.061 35.7205 327.025 35.3731C328.989 35.0257 330.61 33.8206 331.889 31.7563C329.984 30.2556 328.048 29.6783 326.085 30.0257C324.121 30.3731 322.499 31.5795 321.221 33.6424ZM307.882 29.562C307.126 31.8713 307.247 33.8913 308.243 35.6233C309.24 37.3539 310.925 38.4694 313.296 38.9684C314.052 36.6591 313.931 34.6392 312.934 32.9085C311.937 31.1778 310.252 30.061 307.882 29.5633V29.562ZM308.456 27.4081C310.76 28.1661 312.774 28.0448 314.501 27.0443C316.227 26.0451 317.341 24.356 317.837 21.9786C315.535 21.2206 313.52 21.3419 311.793 22.3424C310.067 23.3404 308.954 25.0306 308.456 27.4081ZM337.317 53.1601C335.155 54.2592 333.815 55.7726 333.3 57.7029C332.783 59.6357 333.188 61.6178 334.513 63.6517C336.675 62.5539 338.016 61.0405 338.531 59.1089C339.048 57.1774 338.642 55.1953 337.317 53.1614V53.1601ZM339.243 52.0459C340.339 54.2137 341.849 55.5566 343.774 56.0733C345.702 56.5912 347.679 56.1857 349.708 54.8567C348.613 52.6889 347.103 51.3448 345.177 50.8281C343.25 50.3102 341.273 50.7169 339.245 52.0459H339.243ZM343.321 63.7591C341.002 64.4627 339.421 65.7209 338.578 67.5337C337.735 69.3453 337.791 71.3678 338.743 73.6025C341.063 72.8976 342.644 71.6407 343.487 69.8279C344.33 68.0163 344.274 65.9925 343.321 63.7591ZM345.412 62.996C346.114 65.3217 347.369 66.9072 349.176 67.7523C350.984 68.5974 353.001 68.5418 355.229 67.5855C354.527 65.2611 353.272 63.6757 351.465 62.8305C349.657 61.9854 347.64 62.041 345.412 62.996ZM347.408 74.6081C345.035 75.1071 343.351 76.2213 342.354 77.9533C341.356 79.684 341.235 81.7052 341.991 84.0132C344.363 83.5155 346.049 82.4 347.044 80.6681C348.042 78.9374 348.163 76.9161 347.407 74.6081H347.408ZM349.556 74.0308C350.054 76.4083 351.165 78.0986 352.893 79.0966C354.619 80.0971 356.635 80.2183 358.937 79.4604C358.439 77.0829 357.328 75.3939 355.601 74.3946C353.874 73.3954 351.858 73.2741 349.556 74.0308ZM349.844 84.8243C347.424 84.6904 345.509 85.3296 344.098 86.7445C342.688 88.1581 342.051 90.0783 342.183 92.505C344.603 92.6377 346.517 91.9972 347.928 90.5848C349.338 89.17 349.977 87.2498 349.844 84.8243ZM351.391 84.8243C351.257 87.2498 351.895 89.17 353.306 90.5848C354.716 91.9972 356.631 92.6377 359.052 92.505C359.184 90.0783 358.545 88.1581 357.137 86.7445C355.725 85.3296 353.81 84.6904 351.391 84.8243ZM351.032 92.313C349.199 93.9591 348.281 95.7971 348.281 97.8272C348.281 99.8586 349.199 101.697 351.032 103.343C352.865 101.697 353.782 99.8586 353.782 97.8272C353.782 95.7971 352.865 93.9591 351.032 92.313ZM295.186 24.471C294.431 26.7803 294.552 28.8003 295.549 30.5322C296.547 32.2629 298.232 33.3784 300.602 33.8774C301.358 31.5694 301.237 29.5481 300.24 27.8174C299.243 26.0867 297.559 24.9713 295.187 24.4723L295.186 24.471ZM295.762 22.3171C298.065 23.0751 300.08 22.9538 301.807 21.9533C303.534 20.954 304.646 19.265 305.144 16.8875C302.841 16.1296 300.826 16.2508 299.098 17.2514C297.372 18.2506 296.26 19.9396 295.762 22.3171Z" fill="#2EAA77"/>
<path d="M351.247 93.1599C351.247 56.4869 323.942 26.206 288.604 21.6367" stroke="#2EAA77" stroke-width="2" stroke-linecap="round"/>
<path d="M159.167 66.0098H256.376L278.381 87.8077V200.068H269.917V94.8581L249.606 74.494H159.167V66.0098Z" fill="#7996F9"/>
<path d="M75.2734 162.293H210.677V237.4H75.2734V162.293Z" fill="#E5ECFF"/>
<path d="M44.8113 189.886L61.7369 206.855H27.8857L44.8113 189.886Z" fill="white"/>
<path d="M44.8113 189.886L61.7369 206.855H27.8857L44.8113 189.886Z" fill="#67D3A6"/>
<path d="M36.3496 206.855H53.2752V237.4H36.3496V206.855Z" fill="white"/>
<path d="M36.3496 206.855H53.2752V237.4H36.3496V206.855Z" fill="#67D3A6"/>
<path d="M44.8096 215.746H75.2764V237.4H44.8096V215.746Z" fill="#FFC72C"/>
<path d="M44.8096 215.746H64.274V237.4H44.8096V215.746Z" fill="#FFE380"/>
<path d="M48.4492 215.746H60.8224V222.644L58.3679 221.949L56.3318 222.644L54.312 221.949L52.291 222.644L50.2699 221.949L48.4492 222.644V215.746ZM67.3719 215.746H71.7391V222.644L69.4055 221.94L67.3719 222.642V215.746Z" fill="#022786"/>
<path d="M91.343 183.081H118.446C118.889 183.081 119.327 183.168 119.737 183.338C120.146 183.508 120.518 183.757 120.832 184.071C121.145 184.385 121.393 184.758 121.563 185.168C121.733 185.579 121.82 186.019 121.82 186.463V237.401H87.9688V186.463C87.9687 186.019 88.056 185.579 88.2256 185.168C88.3952 184.758 88.6438 184.385 88.9571 184.071C89.2705 183.757 89.6425 183.508 90.0518 183.338C90.4612 183.168 90.9 183.081 91.343 183.081Z" fill="#022786"/>
<path d="M114.203 212.777C115.605 212.777 116.742 211.637 116.742 210.231C116.742 208.825 115.605 207.686 114.203 207.686C112.801 207.686 111.664 208.825 111.664 210.231C111.664 211.637 112.801 212.777 114.203 212.777Z" fill="#67D3A6"/>
<path d="M131.128 183.098H195.444C196.379 183.098 197.137 183.858 197.137 184.796V217.037H129.436V184.796C129.436 183.858 130.193 183.098 131.128 183.098Z" fill="white"/>
<path d="M166.673 193.279H190.368V213.643H166.673V193.279Z" fill="#FFDB6C"/>
<path d="M173.444 193.279H183.6V200.067L181.061 198.71L178.963 200.067L175.983 198.71L173.444 200.067V193.279Z" fill="#022786"/>
<path d="M136.206 193.279H159.902V213.643H136.206V193.279Z" fill="#FFDB6C"/>
<path d="M142.978 193.279H153.133V200.067L150.594 198.71L148.496 200.067L145.516 198.71L142.978 200.067V193.279Z" fill="#022786"/>
<path d="M74.852 111.809H208.563L216.602 162.293H68.082L74.852 111.809Z" fill="#ADC0FD"/>
<path d="M83.3141 105.021H200.945V111.809H83.3141V105.021ZM76.5441 101.627H207.715C208.164 101.627 208.595 101.806 208.912 102.124C209.23 102.442 209.408 102.874 209.408 103.324C209.408 103.774 209.23 104.206 208.912 104.524C208.595 104.843 208.164 105.021 207.715 105.021H76.5453C76.0964 105.021 75.6658 104.843 75.3484 104.524C75.0309 104.206 74.8525 103.774 74.8525 103.324C74.8525 102.874 75.0309 102.442 75.3484 102.124C75.6658 101.806 76.0964 101.627 76.5453 101.627H76.5441Z" fill="#7996F9"/>
<path d="M203.022 163.534C203.01 166.674 200.048 169.218 196.392 169.227H196.151C192.494 169.218 189.536 166.674 189.527 163.534C189.517 166.674 186.555 169.218 182.898 169.227H182.656C179.001 169.218 176.041 166.674 176.034 163.534C176.022 166.674 173.06 169.218 169.404 169.227H169.163C165.507 169.218 162.548 166.674 162.539 163.534C162.529 166.674 159.567 169.218 155.91 169.227H155.668C152.013 169.218 149.053 166.674 149.046 163.534C149.035 166.674 146.072 169.218 142.416 169.227H142.175C138.519 169.218 135.56 166.674 135.551 163.534C135.54 166.674 132.578 169.218 128.922 169.227H128.68C125.025 169.218 122.065 166.674 122.058 163.534C122.045 166.674 119.084 169.218 115.428 169.227H115.187C111.531 169.218 108.571 166.674 108.563 163.534C108.552 166.674 105.59 169.218 101.933 169.227H101.693C98.0373 169.218 95.0775 166.674 95.07 163.534C95.0574 166.674 92.0964 169.218 88.4399 169.227H88.1979C84.5427 169.218 81.5829 166.674 81.5754 163.534C81.564 166.674 78.6018 169.218 74.9453 169.227H74.7046C71.0481 169.218 68.0896 166.674 68.082 163.534V162.293H216.602V163.534C216.589 166.674 213.543 169.218 209.886 169.227H209.644C205.989 169.218 203.029 166.674 203.022 163.534ZM129.436 213.643H197.136V217.037H129.436V213.643Z" fill="#7996F9"/>
<path fill-rule="evenodd" clip-rule="evenodd" d="M31.2694 237.4H278.381C278.83 237.4 279.26 237.579 279.578 237.897C279.895 238.216 280.073 238.647 280.073 239.098C280.073 239.548 279.895 239.979 279.578 240.298C279.26 240.616 278.83 240.795 278.381 240.795H31.2694C30.8205 240.795 30.3899 240.616 30.0724 240.298C29.755 239.979 29.5766 239.548 29.5766 239.098C29.5766 238.647 29.755 238.216 30.0724 237.897C30.3899 237.579 30.8205 237.4 31.2694 237.4ZM285.151 237.4H322.386C322.835 237.4 323.266 237.579 323.583 237.897C323.901 238.216 324.079 238.647 324.079 239.098C324.079 239.548 323.901 239.979 323.583 240.298C323.266 240.616 322.835 240.795 322.386 240.795H285.151C284.702 240.795 284.271 240.616 283.954 240.298C283.636 239.979 283.458 239.548 283.458 239.098C283.458 238.647 283.636 238.216 283.954 237.897C284.271 237.579 284.702 237.4 285.151 237.4ZM24.4995 237.4C24.9484 237.4 25.379 237.579 25.6964 237.897C26.0139 238.216 26.1923 238.647 26.1923 239.098C26.1923 239.548 26.0139 239.979 25.6964 240.298C25.379 240.616 24.9484 240.795 24.4995 240.795C24.0505 240.795 23.6199 240.616 23.3025 240.298C22.985 239.979 22.8066 239.548 22.8066 239.098C22.8066 238.647 22.985 238.216 23.3025 237.897C23.6199 237.579 24.0505 237.4 24.4995 237.4ZM329.156 237.4C329.605 237.4 330.036 237.579 330.353 237.897C330.671 238.216 330.849 238.647 330.849 239.098C330.849 239.548 330.671 239.979 330.353 240.298C330.036 240.616 329.605 240.795 329.156 240.795C328.707 240.795 328.277 240.616 327.959 240.298C327.642 239.979 327.463 239.548 327.463 239.098C327.463 238.647 327.642 238.216 327.959 237.897C328.277 237.579 328.707 237.4 329.156 237.4Z" fill="#022786"/>
<path d="M249.606 74.4941L269.918 94.8582H249.606V74.4941Z" fill="white"/>
<path d="M249.606 74.4941L269.918 94.8582H249.606V74.4941Z" fill="#ADC0FD"/>
<path d="M218.295 176.311H260.608C261.281 176.311 261.927 176.579 262.403 177.056C262.879 177.533 263.147 178.181 263.147 178.856C263.147 179.531 262.879 180.179 262.403 180.656C261.927 181.133 261.281 181.402 260.608 181.402H218.295C217.621 181.402 216.976 181.133 216.499 180.656C216.023 180.179 215.756 179.531 215.756 178.856C215.756 178.181 216.023 177.533 216.499 177.056C216.976 176.579 217.621 176.311 218.295 176.311Z" fill="#ADC0FD"/>
<path fill-rule="evenodd" clip-rule="evenodd" d="M170.904 55.8281H247.069C247.742 55.8281 248.388 56.0963 248.864 56.5737C249.34 57.0511 249.608 57.6985 249.608 58.3736C249.608 59.0487 249.34 59.6962 248.864 60.1736C248.388 60.651 247.742 60.9191 247.069 60.9191H170.904C170.231 60.9191 169.585 60.651 169.109 60.1736C168.633 59.6962 168.365 59.0487 168.365 58.3736C168.365 57.6985 168.633 57.0511 169.109 56.5737C169.585 56.0963 170.231 55.8281 170.904 55.8281ZM255.531 55.8281C256.204 55.8281 256.85 56.0963 257.326 56.5737C257.802 57.0511 258.07 57.6985 258.07 58.3736C258.07 59.0487 257.802 59.6962 257.326 60.1736C256.85 60.651 256.204 60.9191 255.531 60.9191C254.857 60.9191 254.212 60.651 253.736 60.1736C253.259 59.6962 252.992 59.0487 252.992 58.3736C252.992 57.6985 253.259 57.0511 253.736 56.5737C254.212 56.0963 254.857 55.8281 255.531 55.8281Z" fill="#D0DBFF"/>
<path d="M218.295 184.796H240.298C240.971 184.796 241.617 185.064 242.093 185.541C242.57 186.019 242.837 186.666 242.837 187.341C242.837 188.017 242.57 188.664 242.093 189.141C241.617 189.619 240.971 189.887 240.298 189.887H218.295C217.621 189.887 216.976 189.619 216.499 189.141C216.023 188.664 215.756 188.017 215.756 187.341C215.756 186.666 216.023 186.019 216.499 185.541C216.976 185.064 217.621 184.796 218.295 184.796Z" fill="#ADC0FD"/>
<path d="M261.455 213.643H217.448C216.513 213.643 215.756 214.402 215.756 215.339V225.521C215.756 226.458 216.513 227.218 217.448 227.218H261.455C262.389 227.218 263.147 226.458 263.147 225.521V215.339C263.147 214.402 262.389 213.643 261.455 213.643Z" fill="white"/>
<path d="M219.141 205.281C234.113 197.36 254.257 203.288 235.117 219.887C224.407 229.177 235.873 197.568 247.071 208.53C249.805 211.204 253.284 217.932 254.463 219.188C257.836 222.781 265.11 214.593 267.63 209.204" stroke="#022786" stroke-width="3" stroke-linecap="round" stroke-linejoin="round"/>
<path d="M271.607 200.067C272.057 200.058 272.505 200.14 272.923 200.306C273.341 200.473 273.722 200.722 274.044 201.038C274.365 201.354 274.62 201.731 274.794 202.147C274.969 202.563 275.058 203.01 275.058 203.461C275.058 203.912 274.969 204.359 274.794 204.775C274.62 205.191 274.365 205.568 274.044 205.884C273.722 206.2 273.341 206.449 272.923 206.615C272.505 206.782 272.057 206.863 271.607 206.855C270.721 206.838 269.877 206.472 269.256 205.838C268.635 205.203 268.287 204.35 268.287 203.461C268.287 202.572 268.635 201.718 269.256 201.084C269.877 200.449 270.721 200.084 271.607 200.067Z" fill="#022786"/>
<path d="M355.689 111.551L288.668 178.746L303.029 193.145L370.049 125.95L355.689 111.551Z" fill="#FFC72C"/>
<path d="M360.477 106.75L355.689 111.551L370.052 125.95L374.84 121.149C375.155 120.834 375.404 120.46 375.574 120.048C375.744 119.636 375.832 119.195 375.832 118.749C375.832 118.303 375.744 117.862 375.574 117.45C375.404 117.038 375.155 116.664 374.84 116.349L365.264 106.75C364.629 106.114 363.768 105.757 362.871 105.757C361.973 105.757 361.112 106.114 360.477 106.75Z" fill="#67D3A6"/>
<path d="M355.689 111.551L288.668 178.746L295.849 185.946L362.871 118.751L355.689 111.551Z" fill="#FFDB6C"/>
<path d="M288.669 178.746L281.488 200.344L303.03 193.145L288.669 178.746Z" fill="#FFECAB"/>
<path d="M285.079 189.545L281.488 200.346L292.26 196.746L285.079 189.545Z" fill="#003620"/>
<path d="M169.212 45.6457C170.614 45.6457 171.751 44.506 171.751 43.1002C171.751 41.6944 170.614 40.5547 169.212 40.5547C167.81 40.5547 166.673 41.6944 166.673 43.1002C166.673 44.506 167.81 45.6457 169.212 45.6457Z" fill="#D0DBFF"/>
<path d="M177.675 45.6457C179.077 45.6457 180.214 44.506 180.214 43.1002C180.214 41.6944 179.077 40.5547 177.675 40.5547C176.272 40.5547 175.136 41.6944 175.136 43.1002C175.136 44.506 176.272 45.6457 177.675 45.6457Z" fill="#FFDB6C"/>
<path d="M186.138 45.6457C187.54 45.6457 188.676 44.506 188.676 43.1002C188.676 41.6944 187.54 40.5547 186.138 40.5547C184.735 40.5547 183.599 41.6944 183.599 43.1002C183.599 44.506 184.735 45.6457 186.138 45.6457Z" fill="#9CF0CD"/>
<path d="M289.189 20.9297H285.805V22.6275H289.189V20.9297ZM282.419 20.9297H279.035V22.6275H282.419V20.9297ZM275.649 20.9297H272.264V22.6275H275.649V20.9297ZM268.879 20.9297H265.494V22.6275H268.879V20.9297ZM262.109 20.9297H258.724V22.6275H262.109V20.9297Z" fill="#2EAA77"/>
</g>
<path d="M74.8262 103.322C74.8262 102.381 75.5885 101.619 76.5288 101.619H200.4C201.34 101.619 202.102 102.381 202.102 103.322C202.102 104.262 201.34 105.024 200.4 105.024H76.5288C75.5885 105.024 74.8262 104.262 74.8262 103.322Z" fill="#022786"/>
<path d="M239.745 109.821C239.743 116.28 236.818 122.406 231.762 126.536C226.706 130.667 220.04 132.378 213.573 131.206L205.587 134.299C205.36 134.387 205.114 134.414 204.873 134.378C204.632 134.343 204.405 134.245 204.213 134.095C204.021 133.945 203.871 133.747 203.778 133.522C203.684 133.297 203.651 133.051 203.68 132.809L204.362 127.268C196.003 121.151 193.118 110.138 197.433 100.819C201.749 91.4993 212.097 86.397 222.285 88.5647C232.473 90.7313 239.743 99.5831 239.745 109.821Z" fill="white"/>
<path d="M201.938 102.95L201.897 103.162C201.768 104.084 202.312 105.057 203.184 105.41L208.41 107.549L207.628 113.14C207.339 115.2 207.833 116.976 209.104 118.444C210.375 119.913 212.06 120.651 214.131 120.651L214.567 120.638C216.156 120.556 217.628 120.019 218.975 119.032L219.101 118.933L218.886 118.727C220.153 120.008 221.744 120.651 223.639 120.651C225.698 120.651 227.562 119.923 229.218 118.478C230.874 117.033 231.852 115.28 232.138 113.235L233.011 106.952C233.119 106.168 232.341 105.587 231.366 105.587H229.463C228.498 105.587 227.615 106.352 227.48 107.304L226.672 113.14C226.594 113.694 226.327 114.173 225.859 114.588C225.393 115.001 224.88 115.203 224.307 115.203C223.764 115.203 223.339 115.016 223.009 114.634C222.677 114.251 222.552 113.795 222.63 113.234L223.118 109.692C223.14 108.749 222.445 108.046 221.522 108.046H219.587C218.699 108.046 217.868 108.699 217.647 109.562L217.135 113.139C217.056 113.713 216.789 114.194 216.324 114.6C215.857 115.005 215.353 115.203 214.799 115.203C214.257 115.203 213.829 115.011 213.489 114.62C213.148 114.228 213.019 113.773 213.094 113.234L214.178 105.49C214.314 104.597 213.791 103.66 212.959 103.274L204.25 99.6853C203.484 99.3758 202.69 100.011 202.436 101.002L201.938 102.95Z" fill="#001D53"/>
</svg>
