<svg xmlns="http://www.w3.org/2000/svg" xmlns:xlink="http://www.w3.org/1999/xlink" width="16" height="16" viewBox="0 0 16 16">
    <defs>
        <path id="a" d="M8 13.002h6v2.002H8v-2.002zm3.707-11.295l2.586 2.586a1 1 0 0 1 0 1.414L13 7 9 3l1.293-1.293a1 1 0 0 1 1.414 0zM2.945 13.055H4.32l4.93-4.93L7.875 6.75l-4.93 4.93v1.375zM1 10.875L7.875 4 12 8.125 5.125 15H2a1 1 0 0 1-1-1v-3.125z"/>
    </defs>
    <g fill="none" fill-rule="evenodd">
        <mask id="b" fill="#fff">
            <use xlink:href="#a"/>
        </mask>
        <g fill="#2fb7ec" mask="url(#b)">
            <path d="M0 0h16v16H0z"/>
        </g>
    </g>
</svg>
