<svg xmlns="http://www.w3.org/2000/svg" xmlns:xlink="http://www.w3.org/1999/xlink" width="160" height="96" viewBox="0 0 160 96">
    <defs>
        <path id="a" d="M0 0h160v96H0z"/>
        <linearGradient id="c" x1="0%" y1="0%" y2="100%">
            <stop offset="0%" stop-color="#D6E2EB"/>
            <stop offset="100%" stop-color="#EEF2F5" stop-opacity=".5"/>
        </linearGradient>
        <linearGradient id="e" x1="100%" x2="-1.173%" y1="100%" y2="0%">
            <stop offset="0%" stop-color="#2FB7EC" stop-opacity=".3"/>
            <stop offset="100%" stop-color="#2FB7EC" stop-opacity=".8"/>
        </linearGradient>
        <path id="d" d="M14 68h104a8 8 0 0 0 8 8H14a8 8 0 0 1-8-8h8z"/>
        <linearGradient id="f" x1="100%" y1="100%" y2="-27.417%">
            <stop offset="0%" stop-color="#D6E2EB"/>
            <stop offset="100%" stop-color="#EEF2F5" stop-opacity=".5"/>
        </linearGradient>
        <path id="g" d="M66 30h48a2 2 0 0 1 0 4H66a2 2 0 1 1 0-4z"/>
        <path id="h" d="M66 38h48a2 2 0 0 1 0 4H66a2 2 0 1 1 0-4z"/>
        <path id="i" d="M66 46h8a2 2 0 1 1 0 4h-8a2 2 0 1 1 0-4z"/>
        <rect id="j" width="6" height="6" rx="3"/>
    </defs>
    <g fill="none" fill-rule="evenodd">
        <mask id="b" fill="#fff">
            <use xlink:href="#a"/>
        </mask>
        <use fill="#D8D8D8" fill-opacity="0" fill-rule="nonzero" xlink:href="#a"/>
        <g mask="url(#b)">
            <g transform="translate(10 10)">
                <circle cx="116" cy="46" r="30" fill="url(#c)"/>
                <path fill="#FFF" stroke="#2FB7EC" stroke-width="4" d="M128 2v70a2 2 0 0 1-2 2H14a2 2 0 0 1-2-2V4a2 2 0 0 1 2-2h114z"/>
                <path fill="#FFF" fill-rule="nonzero" d="M90 71h36v1a4 4 0 0 1-4 4H90v-5z"/>
                <g fill-rule="nonzero">
                    <use fill="#FFF" xlink:href="#d"/>
                    <use fill="url(#e)" xlink:href="#d"/>
                </g>
                <g fill-rule="nonzero" transform="translate(14)">
                    <path fill="#FFF" d="M2 0h52v4H2z"/>
                    <rect width="19" height="4" fill="#2FB7EC" rx="2"/>
                    <rect width="6" height="4" x="22" fill="#2FB7EC" rx="2"/>
                    <rect width="25" height="4" x="31" fill="#2FB7EC" rx="2"/>
                </g>
                <path fill="#EEF2F5" d="M30 42h10v16l-10 4z"/>
                <path fill="url(#f)" d="M16 28h10v20l-10-4z" transform="translate(24 14)"/>
                <path fill="#FFC72C" fill-rule="nonzero" d="M40 14l9.405 3.056 5.812 8v9.888l-5.812 8L40 46l-9.405-3.056-5.812-8v-9.888l5.812-8z"/>
                <path fill="#FFF" fill-rule="nonzero" d="M39.547 37.313l-4.672 2.57c-.476.262-1.065.07-1.316-.428a1.06 1.06 0 0 1-.097-.647l.978-5.97-4.146-4.228a1.053 1.053 0 0 1-.017-1.441.96.96 0 0 1 .557-.298l5.73-.87 2.562-5.433c.238-.504.823-.712 1.305-.463.192.1.348.262.443.463L43.436 26l5.73.871c.532.081.901.598.824 1.156-.031.221-.13.426-.284.583l-4.146 4.228.978 5.97c.091.555-.265 1.082-.795 1.177a.937.937 0 0 1-.618-.102l-4.672-2.57a.936.936 0 0 0-.906 0z"/>
                <rect width="52" height="12" x="64" y="14" fill="#2FB7EC" fill-rule="nonzero" rx="2"/>
                <use fill="#FFF" xlink:href="#g"/>
                <use fill="#8BDCFB" xlink:href="#g"/>
                <use fill="#FFF" xlink:href="#h"/>
                <use fill="#8BDCFB" xlink:href="#h"/>
                <g>
                    <use fill="#FFF" xlink:href="#i"/>
                    <use fill="#8BDCFB" xlink:href="#i"/>
                </g>
                <g>
                    <path fill="#EEF2F5" d="M77 58h37a2 2 0 1 1 0 4H77a2 2 0 1 1 0-4z"/>
                    <path stroke="#2EE3AA" stroke-linecap="round" stroke-linejoin="round" stroke-width="2" d="M81.498 49.072c8.846-4.668 20.747-1.174 9.44 8.608-6.33 5.474.445-13.153 7.062-6.694 1.615 1.577 3.67 5.542 4.367 6.282 1.993 2.117 6.29-2.707 7.78-5.883"/>
                    <path fill="#2EE3AA" fill-rule="nonzero" d="M113 45a2 2 0 1 1 0 4 2 2 0 1 1 0-4z"/>
                </g>
                <path fill="#2FB7EC" fill-opacity=".6" fill-rule="nonzero" d="M138 8v4h-8V0a8 8 0 0 1 8 8z"/>
                <g>
                    <use fill="#FFF" xlink:href="#j"/>
                    <use fill="#CDE5EF" xlink:href="#j"/>
                </g>
            </g>
        </g>
    </g>
</svg>
