<?xml version="1.0" encoding="UTF-8"?>
<svg width="12px" height="12px" viewBox="0 0 12 12" version="1.1" xmlns="http://www.w3.org/2000/svg" xmlns:xlink="http://www.w3.org/1999/xlink">
    <!-- Generator: Sketch 57.1 (83088) - https://sketch.com -->
    <title>Group 24</title>
    <desc>Created with Sketch.</desc>
    <g id="Page-1" stroke="none" stroke-width="1" fill="none" fill-rule="evenodd">
        <g id="8a590ab01ad11327edc6d4bda9845c52" fill="#4A5F6E" fill-rule="nonzero">
            <g id="Group-24" transform="translate(0.000000, 0.001250)">
                <path d="M1.2,0.59925 L10.8,0.59925 C11.4627417,0.59925 12,1.1365083 12,1.79925 L12,10.79925 C12,11.4619917 11.4627417,11.99925 10.8,11.99925 L1.2,11.99925 C0.5372583,11.99925 0,11.4619917 0,10.79925 L0,1.79925 C0,1.1365083 0.5372583,0.59925 1.2,0.59925 Z M1.2,1.79925 L1.2,10.79925 L10.8,10.79925 L10.8,1.79925 L1.2,1.79925 Z" id="Combined-Shape"></path>
                <path d="M1.2,3.59925 L10.8,3.59925 L10.8,4.8 L1.2,4.8 L1.2,3.59925 Z M3.6,1.24344979e-14 L4.80075,1.24344979e-14 L4.80075,3 L3.6,3 L3.6,1.24344979e-14 Z M7.2,1.24344979e-14 L8.40075,1.24344979e-14 L8.40075,3 L7.2,3 L7.2,1.24344979e-14 Z M3.001125,5.99925 L6.6,5.99925 L6.6,7.2 L3.001125,7.2 L3.001125,5.99925 Z M3,8.4 L6.598875,8.4 L6.598875,9.60075 L3,9.60075 L3,8.4 Z M7.8,8.4 L9,8.4 L9,9.60075 L7.8,9.60075 L7.8,8.4 Z M7.8,5.99925 L9,5.99925 L9,7.2 L7.8,7.2 L7.8,5.99925 Z" id="Combined-Shape"></path>
            </g>
        </g>
    </g>
</svg>