<svg width="12" height="12" viewBox="0 0 12 12" fill="none" xmlns="http://www.w3.org/2000/svg">
<path d="M8.47202 2.54969C8.46735 2.53683 8.46161 2.5243 8.45499 2.51219C8.10881 1.7657 7.5786 1.101 6.90508 0.569068L6.23842 0.0706054C6.18029 0.0250556 6.10601 0 6.02918 0C5.95234 0 5.87806 0.0250556 5.81993 0.0706054L5.16787 0.577891C4.48911 1.10668 3.95378 1.77006 3.6034 2.5166L3.5815 2.53645C3.27499 3.20295 3.11944 3.9185 3.12408 4.64058L3.32846 6.77118C2.94668 6.86452 2.60956 7.06944 2.36936 7.35417C2.12917 7.63891 1.99933 7.98749 2 8.34595C1.99985 8.38424 2.00805 8.42217 2.02414 8.45755C2.04023 8.49293 2.06388 8.52513 2.09372 8.55213C2.12358 8.57921 2.15905 8.60065 2.19808 8.61521C2.23712 8.62985 2.27895 8.63726 2.32117 8.63708H3.78101H8.21898H9.67883C9.72097 8.63726 9.76282 8.62985 9.80184 8.61521C9.84087 8.60065 9.87639 8.57921 9.90627 8.55213C9.93605 8.52513 9.9597 8.49293 9.97586 8.45755C9.99192 8.42217 10.0001 8.38424 9.99999 8.34595C10.0011 7.98864 9.87231 7.64093 9.63347 7.35665C9.39464 7.07237 9.05907 6.86737 8.67883 6.77339L8.9489 4.62735C8.94598 3.91274 8.78375 3.20603 8.47202 2.54969ZM5.58392 1.02121L6.02918 0.657292L6.47443 1.00357C6.95371 1.37788 7.35433 1.82771 7.6569 2.33133L4.40388 2.35118C4.70485 1.84657 5.10473 1.39588 5.58392 1.02121ZM2.98296 7.60048C3.09797 7.49769 3.2356 7.41803 3.38686 7.36669L3.45498 8.05481H2.691C2.7447 7.88357 2.84511 7.72732 2.98296 7.60048ZM4.02675 7.29832H8.03164L7.9586 8.0526L4.10218 8.05481L4.02675 7.29832ZM9.05839 7.58946C9.19776 7.71594 9.29985 7.87219 9.35523 8.04378H8.59124L8.65937 7.36008C8.8146 7.4135 8.95562 7.4962 9.07299 7.60269L9.05839 7.58946ZM8.08516 6.70722L3.96349 6.72487L3.75425 4.62515C3.75745 4.04558 3.87785 3.47146 4.10948 2.93125H7.95374C8.18161 3.46155 8.30034 4.02518 8.30414 4.59427L8.08516 6.70722Z" fill="#48636F"/>
<path d="M5.83015 9.12177C5.79852 9.15044 4.96884 9.74375 4.95667 10.5356C4.94451 11.3274 5.78635 11.9052 5.82285 11.9383C5.87913 11.9782 5.9485 11.9999 6.01993 11.9999C6.09136 11.9999 6.16073 11.9782 6.21701 11.9383C6.28204 11.8855 6.34377 11.8296 6.40192 11.7707C6.79266 11.4482 7.03213 11.0023 7.07102 10.5245C7.07102 9.74375 6.24134 9.14603 6.19754 9.11074C6.14248 9.0781 6.07767 9.06169 6.01193 9.06363C5.94619 9.06566 5.88271 9.08595 5.83015 9.12177ZM6.45058 10.5267C6.41581 10.822 6.26769 11.0967 6.03209 11.3031C5.79466 11.0987 5.64542 10.8241 5.61117 10.5289C5.64594 10.2337 5.79407 9.95884 6.02966 9.75257C6.2671 9.95698 6.41634 10.2315 6.45058 10.5267Z" fill="#48636F"/>
<path d="M4.96973 4.98898C4.96993 5.17891 5.03223 5.36452 5.14876 5.52236C5.26529 5.68021 5.43081 5.8032 5.62443 5.8758C5.81804 5.9484 6.03104 5.96734 6.23653 5.93025C6.44201 5.89315 6.63076 5.80167 6.7789 5.66737C6.92706 5.53306 7.02797 5.36197 7.0689 5.1757C7.10982 4.98943 7.08893 4.79634 7.00884 4.62083C6.92875 4.44532 6.79307 4.29527 6.61895 4.18964C6.44482 4.084 6.24006 4.02752 6.03055 4.02734C5.75132 4.03344 5.48538 4.13671 5.28788 4.31575C5.09038 4.49479 4.97645 4.73586 4.96973 4.98898ZM6.42957 4.98898C6.42927 5.07704 6.39528 5.16228 6.33342 5.23017C6.27154 5.29805 6.18561 5.34439 6.09027 5.36127C5.99493 5.37816 5.89609 5.36455 5.81058 5.32276C5.72506 5.28097 5.65819 5.21359 5.62135 5.13211C5.58452 5.05062 5.57999 4.96008 5.60855 4.87591C5.63711 4.79174 5.69699 4.71916 5.77798 4.67054C5.85898 4.62191 5.95606 4.60025 6.0527 4.60925C6.14933 4.61825 6.23953 4.65736 6.30792 4.7199C6.3496 4.75562 6.38277 4.79872 6.40537 4.84651C6.42797 4.89431 6.43952 4.9458 6.4393 4.9978L6.42957 4.98898Z" fill="#48636F"/>
</svg>
