<?xml version="1.0" encoding="UTF-8"?>
<svg width="40px" height="40px" viewBox="0 0 40 40" version="1.1" xmlns="http://www.w3.org/2000/svg" xmlns:xlink="http://www.w3.org/1999/xlink">
    <!-- Generator: Sketch 52.3 (67297) - http://www.bohemiancoding.com/sketch -->
    <title>Graphic_03@1x</title>
    <desc>Created with Sketch.</desc>
    <defs>
        <circle id="path-1" cx="20" cy="20" r="20"></circle>
    </defs>
    <g id="Dashboard-onboarding_V9" stroke="none" stroke-width="1" fill="none" fill-rule="evenodd">
        <g id="Dashboard_store-approved_sell-quality-products" transform="translate(-352.000000, -1132.000000)">
            <g id="Graphic_03" transform="translate(352.000000, 1132.000000)">
                <g id="Oval-2">
                    <use fill="#FFFFFF" xlink:href="#path-1"></use>
                    <use fill-opacity="0.3" fill="#2F88EC" xlink:href="#path-1"></use>
                </g>
                <g id="Group" transform="translate(9.000000, 10.000000)" fill-rule="nonzero">
                    <g>
                        <path d="M2,2 L21,2 L21,18 C21,19.1045695 20.1045695,20 19,20 L2,20 L2,2 Z" id="Rectangle-25" fill="#FFFFFF"></path>
                        <path d="M4,8 L11,8 L11,10 L4,10 L4,8 Z M4,12 L8,12 L8,14 L4,14 L4,12 Z" id="Combined-Shape" fill="#326BEE"></path>
                        <polygon id="Combined-Shape" fill="#326BEE" points="8 7 5.5 4.66666667 3 7 3 0 8 0"></polygon>
                        <path d="M2,18 L11,18 L11,20 L2,20 C0.8954305,20 0,19.1045695 0,18 L0,2 C-2.22044605e-16,0.8954305 0.8954305,6.66133815e-16 2,6.66133815e-16 L19,0 C20.1045695,-2.22044605e-16 21,0.8954305 21,2 L21,10 L19,10 L19,2 L2,2 L2,18 Z" id="Combined-Shape" fill="#326BEE"></path>
                        <circle id="Oval-3" fill="#2EE3AA" cx="16.5" cy="15.5" r="7.5"></circle>
                        <polygon id="Combined-Shape" fill="#FFFFFF" points="22 13.3333333 15.125 20 11 16 12.375 14.6666667 15.125 17.3333333 20.625 12"></polygon>
                    </g>
                </g>
            </g>
        </g>
    </g>
</svg>