<svg xmlns="http://www.w3.org/2000/svg" width="40" height="40" viewBox="0 0 40 40">
    <defs>
        <linearGradient id="a" x1="3.92%" x2="96.08%" y1="0%" y2="100%">
            <stop offset="0%" stop-color="#8BDCFB"/>
            <stop offset="100%" stop-color="#2FB7EC"/>
        </linearGradient>
        <linearGradient id="b" x1="50%" x2="50%" y1="0%" y2="100%">
            <stop offset="0%" stop-color="#E6F7FF"/>
            <stop offset="100%" stop-color="#E6F7FF"/>
        </linearGradient>
        <linearGradient id="c" x1="100%" x2="0%" y1="55.556%" y2="42.571%">
            <stop offset="0%" stop-color="#2EE3AA"/>
            <stop offset="100%" stop-color="#92F1D3"/>
        </linearGradient>
        <linearGradient id="d" x1="100%" x2="0%" y1="62.5%" y2="37.5%">
            <stop offset="0%" stop-color="#2FB7EC"/>
            <stop offset="100%" stop-color="#2F88EC"/>
        </linearGradient>
    </defs>
    <g fill="none" fill-rule="nonzero">
        <circle cx="20" cy="20" r="20" fill="#E6F7FF"/>
        <path fill="url(#a)" d="M10 8h20a2 2 0 0 1 2 2v19l-4 4H10a2 2 0 0 1-2-2V10a2 2 0 0 1 2-2z"/>
        <path fill="url(#b)" d="M9 8h6l8 25H9c-.552 0-1-.895-1-2V10c0-1.105.448-2 1-2z" opacity=".28"/>
        <path fill="#FFF" d="M12 18h16a1 1 0 0 1 1 1v2a1 1 0 0 1-1 1H12a1 1 0 0 1-1-1v-2a1 1 0 0 1 1-1z"/>
        <path fill="url(#c)" d="M1 0h11v4H1a1 1 0 0 1-1-1V1a1 1 0 0 1 1-1z" transform="translate(11 18)"/>
        <path fill="url(#d)" d="M18 7V5h4v2h3c.552 0 1 .358 1 .8V11H14V7.8c0-.442.448-.8 1-.8h3z"/>
        <path fill="#CEF2FD" d="M15 24h10v2H15v-2zm-4 0h2v2h-2v-2z"/>
        <path fill="#FFD560" d="M33.125 13.875L35 15l-1.875 1.125L32 18l-1.125-1.875L29 15l1.875-1.125L32 12z"/>
        <path fill="#0098D3" d="M32 29h-4v4z"/>
    </g>
</svg>
