<svg xmlns="http://www.w3.org/2000/svg" xmlns:xlink="http://www.w3.org/1999/xlink" width="24" height="24" viewBox="0 0 24 24">
  <defs>
    <rect id="close-icon-a" width="16" height="16" x="4" y="4"/>
  </defs>
  <g fill="none" fill-rule="evenodd">
    <circle cx="12" cy="12" r="12" fill="transparent" fill-rule="nonzero"/>
    <mask id="red-close-icon-b" fill="#fff">
      <use xlink:href="#close-icon-a"/>
    </mask>
    <use fill="transparent" fill-opacity="0" xlink:href="#close-icon-a"/>
    <path fill="#FFF" d="M13,11 L17,11 C17.5522847,11 18,11.4477153 18,12 C18,12.5522847 17.5522847,13 17,13 L13,13 L13,17 C13,17.5522847 12.5522847,18 12,18 C11.4477153,18 11,17.5522847 11,17 L11,13 L7,13 C6.44771525,13 6,12.5522847 6,12 C6,11.4477153 6.44771525,11 7,11 L11,11 L11,7 C11,6.44771525 11.4477153,6 12,6 C12.5522847,6 13,6.44771525 13,7 L13,11 Z" mask="url(#red-close-icon-b)" transform="rotate(44 12 12)"/>
  </g>
</svg>
