<svg width="52" height="32" viewBox="0 0 52 32" fill="none" xmlns="http://www.w3.org/2000/svg">
<path d="M43.2138 32C48.1041 31.7139 52 27.3278 52 21.9277C52 16.3529 47.8411 11.8352 42.7071 11.8352C41.774 11.8352 40.8619 11.9888 40.0091 12.2759C38.467 5.24548 32.6245 0 25.6654 0C18.7464 0 12.9641 5.15714 11.3417 12.0993C10.6701 11.9392 9.98221 11.858 9.29193 11.8573C4.15885 11.8573 0 16.375 0 21.9507C0 27.2615 3.77356 31.5814 8.5615 32H43.2148H43.2138Z" fill="#8CACF6"/>
<path fill-rule="evenodd" clip-rule="evenodd" d="M25.2094 10.7294C25.3002 10.6214 25.4338 10.5591 25.5746 10.5591C25.7154 10.5591 25.849 10.6214 25.9398 10.7294L29.1426 14.526C29.2635 14.6687 29.2907 14.869 29.2122 15.039C29.1338 15.209 28.964 15.3176 28.7774 15.3172H26.9705V18.9659C26.9705 19.17 26.8896 19.3658 26.7458 19.51C26.602 19.6543 26.407 19.7352 26.2037 19.735H24.9465C24.5235 19.735 24.1807 19.3906 24.1807 18.9659V15.3172H22.3718C22.1849 15.3179 22.0146 15.2092 21.9361 15.0388C21.8575 14.8684 21.8851 14.6677 22.0066 14.525L25.2094 10.7294ZM31.9183 17.5436C31.7152 17.5433 31.5204 17.6241 31.3766 17.7682C31.2328 17.9122 31.1518 18.1078 31.1516 18.3117V22.1909C31.1518 22.3184 31.1016 22.4407 31.0119 22.531C30.9222 22.6212 30.8005 22.6719 30.6736 22.6719H20.4762C20.2122 22.6719 19.9982 22.457 19.9982 22.1918V18.3127C19.998 18.1087 19.917 17.9132 19.7732 17.7691C19.6294 17.6251 19.4346 17.5443 19.2315 17.5446H18.5861C18.1635 17.5446 17.8208 17.8883 17.8203 18.3127V23.7781C17.8203 24.2034 18.1635 24.5472 18.5861 24.5472H32.5637C32.7668 24.5469 32.9615 24.4656 33.1049 24.3212C33.2483 24.1768 33.3288 23.9811 33.3285 23.7771V18.3127C33.3285 17.8883 32.9863 17.5441 32.5637 17.5436H31.9183Z" fill="white"/>
</svg>
