<svg xmlns="http://www.w3.org/2000/svg" xmlns:xlink="http://www.w3.org/1999/xlink" width="132" height="132" viewBox="0 0 132 132">
    <defs>
        <path id="a" d="M132 66c0 36.45-29.55 66-66 66-36.451 0-66-29.55-66-66S29.549 0 66 0c36.45 0 66 29.55 66 66"/>
        <linearGradient id="c" x1="100%" x2="0%" y1="0%" y2="100%">
            <stop offset="0%" stop-color="#326BEE"/>
            <stop offset="100%" stop-color="#1D4BEA"/>
        </linearGradient>
        <linearGradient id="d" x1="37.697%" x2="55.418%" y1="34.36%" y2="0%">
            <stop offset="0%" stop-color="#FFA39E"/>
            <stop offset="100%" stop-color="#E14D4C"/>
        </linearGradient>
    </defs>
    <g fill="none" fill-rule="evenodd">
        <mask id="b" fill="#fff">
            <use xlink:href="#a"/>
        </mask>
        <use fill="#EEF2F5" xlink:href="#a"/>
        <path fill="#E6F7FF" d="M75.675 93.913c1.647.932-5.235 2.61-9.988 2.48-7.056-.196-11.696-4.269-12.913-5.41a8.705 8.705 0 0 1-2.2-2.91 8.65 8.65 0 0 1-.724-2.478c.619-1.506.616-2.685.616-2.685s.318-9.326 0-9.6c0 0 21.282-1.885 20.662 7.73 0 0-1.137 9.66 4.547 12.873" mask="url(#b)"/>
        <path fill="#F7A79A" d="M74.822 92.081l.419.294" mask="url(#b)"/>
        <path fill="#8BDCFB" d="M71.142 80.743s-9.736 6.192-20.417-1.562l-.134-5.87s22.416-3.116 20.55 7.432" mask="url(#b)"/>
        <path fill="#E6F7FF" d="M79.944 49.542s4.656 26.85-4.347 30.42c-9 3.57-22.968-2.019-30.263-12.417-7.296-10.399 2.327-19.556 7.604-6.674V42.092l27.005 7.45z" mask="url(#b)"/>
        <path fill="#1D4BEA" d="M75.533 60.013c-.01 1.087.546 1.973 1.24 1.979.694.005 1.264-.871 1.273-1.958.009-1.086-.546-1.972-1.24-1.978-.693-.006-1.264.87-1.273 1.957M62.934 60.013c-.009 1.087.546 1.973 1.24 1.979.694.005 1.264-.871 1.274-1.958.01-1.086-.546-1.972-1.24-1.978-.694-.006-1.265.87-1.274 1.957" mask="url(#b)"/>
        <path stroke="#1D4BEA" stroke-linecap="round" stroke-linejoin="round" stroke-width=".75" d="M65.83 70.36s.885 2.468 4.067 2.544M71.252 61.966s.9 4.115.371 4.568c-.529.453-1.725 0-1.725 0" mask="url(#b)"/>
        <path fill="#1D4BEA" d="M66.944 55.05h-8.148s4.933-3.321 8.148 0M79.823 55.05h-5.97s3.614-3.321 5.97 0" mask="url(#b)"/>
        <path fill="url(#c)" d="M58.573 36.379s-22.31-6.219-16.077 22.586c0 0 2.847-11.457 10.539 1.964v-7.201s4.308-13.093 14.153-3.274c9.845 9.82 16.365-2.083 16.365-2.083v7.364c5.307-1.999 8.404-7.718 7.46-13.137-1.066-6.129-7.067-10.524-13.364-9.165 0 0-10.461-13.747-19.076 2.946" mask="url(#b)"/>
        <path fill="url(#d)" d="M92.37 144.371l-.49-18.433c-.258-4.14-1.833-11.669-6.183-19.957-8.288-15.789-18.987-18.546-30.855-22.146l-4.426-.005s-19.144-.717-32.033 98.024c-.735 7.94-.603 14.747.894 19.192 0 0 4.369 12.17 34.208 11.895 10.496-.096 17.413-.353 22.144-.855 8.719-.926 10.01-2.686 12.592-5.815l4.15-61.9" mask="url(#b)"/>
        <path stroke="#FEFEFE" stroke-linecap="round" stroke-linejoin="round" stroke-width=".75" d="M23 179.139l.166.761.131.589c1.664 7.432 3.938 15.474 6.938 24.169 0 0 12.53-8.733 14.429-9.873 0 0-16.707-38.73 10.252-77.839" mask="url(#b)"/>
        <path fill="#FFD560" d="M32 16c0 8.836-7.163 16-16 16S0 24.836 0 16 7.163 0 16 0s16 7.164 16 16"/>
        <path fill="#FEFEFE" d="M20.932 16.995c1.634 0 2.792 1.206 2.792 2.92 0 1.802-1.203 3.085-2.957 3.085-2.075 0-3.586-1.803-3.586-4.844 0-3.992 2.151-7.31 5.738-9.156L24 10.957c-2.45 1.416-3.928 3.517-4.116 6.27a2.718 2.718 0 0 1 1.048-.232zm-6.389 2.92c0 1.802-1.191 3.085-2.946 3.085C9.523 23 8 21.197 8 18.156c0-3.992 2.163-7.31 5.749-9.156l1.081 1.957c-2.45 1.416-3.928 3.517-4.116 6.27a2.445 2.445 0 0 1 1.038-.232c1.633 0 2.791 1.206 2.791 2.92z"/>
    </g>
</svg>
