<svg xmlns="http://www.w3.org/2000/svg" width="43" height="39" viewBox="0 0 43 39">
    <g fill="none" fill-rule="nonzero">
        <g transform="rotate(33 2.087 13.949)">
            <ellipse cx="10.39" cy="10.145" fill="#2F88EC" rx="10.39" ry="10.145"/>
            <path fill="#FFF" d="M10.422 13.942l-.256.837-.87-.301.255-.835a3.671 3.671 0 0 1-1.884-1.71l1.01-.762c.275.541.702.989 1.226 1.282l.449-1.468C9.46 10.428 8.559 9.707 8.93 8.45a2.002 2.002 0 0 1 2.562-1.19l.263-.858.87.298-.268.882a3.467 3.467 0 0 1 1.612 1.465l-1.02.71a2.906 2.906 0 0 0-.968-.994l-.386 1.303c.87.586 1.818 1.324 1.43 2.589a2 2 0 0 1-1.021 1.21c-.49.243-1.06.271-1.583.079zm.448-4.327l.36-1.174c-.484-.116-.813.033-.917.371-.103.34.175.56.557.803zm.79 2.744c.104-.34-.168-.62-.566-.894l-.408 1.295c.525.056.862-.115.974-.401z"/>
            <path fill="#65AEFF" d="M10.403 20.29c-4.204.005-7.996-2.463-9.608-6.254-1.612-3.79-.726-8.156 2.244-11.06S10.48-.798 14.364.77c3.884 1.57 6.417 5.27 6.417 9.374-.007 5.596-4.648 10.133-10.378 10.146zm0-17.93c-3.227-.005-6.138 1.889-7.376 4.798-1.238 2.909-.559 6.26 1.72 8.489 2.28 2.23 5.711 2.897 8.692 1.693 2.982-1.204 4.926-4.044 4.926-7.195-.014-4.29-3.569-7.766-7.962-7.786z"/>
        </g>
        <g transform="rotate(33 21.016 51.975)">
            <ellipse cx="8.312" cy="8.116" fill="#2F88EC" rx="8.312" ry="8.116"/>
            <path fill="#65AEFF" d="M8.311 16.233C4.346 16.232.933 13.496.161 9.699-.614 5.9 1.468 2.099 5.132.619c3.664-1.482 7.889-.23 10.091 2.99 2.203 3.22 1.77 7.51-1.035 10.247a8.366 8.366 0 0 1-5.878 2.377zm0-13.844c-2.666-.01-5.006 1.733-5.7 4.247-.693 2.514.434 5.169 2.745 6.467s5.228.915 7.105-.934a5.63 5.63 0 0 0 1.274-6.245c-.91-2.141-3.05-3.537-5.424-3.535z"/>
            <path fill="#FFF" d="M8.869 10.392l.045.69-.706.078-.045-.673a2.658 2.658 0 0 1-1.809-.59l.501-.851c.342.294.772.468 1.228.498l-.034-1.215c-.783-.106-1.636-.325-1.702-1.324A1.699 1.699 0 0 1 7.85 5.31l-.08-.65.706-.077.047.708a2.461 2.461 0 0 1 1.566.507l-.547.847a1.857 1.857 0 0 0-.947-.4l.07 1.055c.792.115 1.672.32 1.739 1.34.026.429-.123.858-.413 1.188-.29.33-.695.534-1.123.564zM8.02 7.206l-.072-.954c-.378.078-.564.3-.508.605.057.305.229.296.58.35zm1.304 1.662c-.018-.273-.28-.373-.65-.442l.07 1.054c.421-.11.597-.358.58-.612z"/>
        </g>
        <g transform="rotate(13 -92.716 98.554)">
            <ellipse cx="6.927" cy="6.764" fill="#2F88EC" rx="6.927" ry="6.764"/>
            <path fill="#FFF" d="M7.59 8.843l.055.536-.551.04-.055-.522a2.238 2.238 0 0 1-1.434-.508l.369-.645c.276.238.618.385.976.42l-.061-.94c-.617-.105-1.292-.298-1.372-1.074a1.207 1.207 0 0 1 1.13-1.268l-.08-.506.551-.04.057.55c.447.006.884.16 1.242.437l-.404.64a1.583 1.583 0 0 0-.754-.336l.084.817c.624.112 1.32.296 1.401 1.086.033.334-.072.662-.29.909-.217.247-.529.393-.864.404zm-.755-2.49l-.084-.74c-.294.05-.433.216-.38.454.053.238.187.235.464.287zm1.07 1.323c-.023-.211-.23-.296-.522-.36l.084.818c.327-.073.458-.26.437-.458z"/>
            <path fill="#65AEFF" d="M6.926 13.527c-3.305 0-6.148-2.28-6.792-5.445-.645-3.165 1.09-6.333 4.144-7.567 3.053-1.234 6.574-.19 8.409 2.492 1.835 2.683 1.474 6.259-.863 8.54a6.992 6.992 0 0 1-4.898 1.98zm0-11.536c-1.75.003-3.365.918-4.237 2.4a4.685 4.685 0 0 0 .01 4.782c.877 1.478 2.496 2.387 4.246 2.383 2.705-.005 4.894-2.15 4.889-4.792-.006-2.641-2.203-4.778-4.908-4.773z"/>
        </g>
    </g>
</svg>
