<svg width="40" height="40" viewBox="0 0 40 40" fill="none" xmlns="http://www.w3.org/2000/svg">
<circle cx="20" cy="20" r="20" fill="#F8FAFB"/>
<path fill-rule="evenodd" clip-rule="evenodd" d="M26.0547 23.1754C25.8113 22.9947 25.5099 22.8807 25.1815 22.8652H24.1717C22.4583 22.8962 18.9398 22.8962 17.2264 22.0924C15.5133 21.2889 13.4938 22.4635 13.4938 22.4635C12.8158 22.7932 9.39521 25.9771 8.19197 27.1069C7.95586 27.3286 7.93521 27.6967 8.14302 27.9457L11.3458 31.7829C11.5542 32.0332 11.9216 32.0726 12.1777 31.8721L15.145 29.5489C15.3042 29.424 15.5003 29.3564 15.7021 29.3564H23.7771C24.226 29.3564 24.6566 29.1771 24.975 28.8581C27.1857 26.6443 29.396 24.4301 31.6063 22.2162C32.1435 21.5439 32.1188 20.5995 31.6063 20.0215C31.0112 19.3503 29.8719 19.3025 29.1585 20.0215L26.2215 22.9887L26.0547 23.1754Z" fill="#C3D4FA"/>
<path d="M15.1599 10.6977L20.8551 13.0957M15.1599 10.6977L21.1548 8L26.85 10.6977M15.1599 10.6977V17.8916L20.8551 20.5893M20.8551 13.0957L26.85 10.6977M20.8551 13.0957V20.5893M26.85 10.6977V17.8916L20.8551 20.5893" stroke="#8CACF6" stroke-linecap="round" stroke-linejoin="round"/>
</svg>
