<svg xmlns="http://www.w3.org/2000/svg" width="598" height="438" fill="none" viewBox="0 0 598 438">
    <path fill="#152934" d="M54.565 32.608H597.98v330.629l-10.35 18.709-30.187-18.709H54.565V53.6L44.215 42.96l10.35-10.35z"/>
    <path fill="#fff" stroke="#152934" stroke-width="2" d="M45.216 43.96h541.412v336.985H45.216V43.96z"/>
    <rect width="26.569" height="31.032" x="290.452" y="297.864" fill="#fff" stroke="#000" stroke-width="2" rx="1"/>
    <rect width="26.569" height="62.062" x="333.986" y="266.834" fill="#1ACC94" stroke="#000" stroke-width="2" rx="1"/>
    <rect width="26.569" height="117.115" x="377.52" y="211.78" fill="#FECF73" stroke="#000" stroke-width="2" rx="1"/>
    <rect width="26.569" height="75.075" x="421.052" y="253.821" fill="#fff" stroke="#000" stroke-width="2" rx="1"/>
    <rect width="26.569" height="158.155" x="464.587" y="170.741" fill="#1ACC94" stroke="#000" stroke-width="2" rx="1"/>
    <rect width="26.569" height="233.227" x="508.121" y="95.668" fill="#F8AB60" stroke="#000" stroke-width="2" rx="1"/>
    <path stroke="#1A4278" stroke-linecap="round" stroke-linejoin="round" stroke-width="8" d="M184.1 69.489s-4.139 16.231-4.833 40.181M324.804 67.86s4.413 16.203 5.371 40.181"/>
    <path stroke="#000" stroke-width="2" d="M325.479 98.196c-.427-6.836-2.67-19.581-3.738-25.1 2.314-1.78 7.263-4.272 8.544 0 1.282 4.272 3.026 18.513 3.739 25.1-2.671 2.848-8.118 6.836-8.545 0zM183.959 98.953c.427-6.836 2.67-19.582 3.738-25.1-2.314-1.78-7.263-4.272-8.545 0-1.281 4.272-3.026 18.513-3.738 25.1 2.67 2.848 8.118 6.835 8.545 0z"/>
    <path fill="#C3D4FA" fill-rule="evenodd" stroke="#000" stroke-width="2" d="M177.745 73.212c-1.196.004-2.129-1.04-1.965-2.224 5.432-39.137 38.217-68.896 76.795-69.958 39.862-1.099 75.001 28.733 81.05 69.112.177 1.183-.744 2.236-1.94 2.246l-11.387.093c-1.018.008-1.877-.753-2.027-1.76-4.863-32.53-33.168-56.567-65.276-55.683-31.078.856-57.49 24.834-61.855 56.362-.14 1.008-.991 1.778-2.009 1.781l-11.386.031z" clip-rule="evenodd"/>
    <path fill="#1A4278" fill-rule="evenodd" d="M159.901 142.249l9.7-.05-.178-33.072-9.708.046c-.771.005-1.397.627-1.392 1.387l.159 30.307c.004.765.64 1.387 1.419 1.382z" clip-rule="evenodd"/>
    <path stroke="#000" stroke-width="2" d="M159.901 142.249l9.7-.05-.178-33.072-9.708.046c-.771.005-1.397.627-1.392 1.387l.159 30.307c.004.765.64 1.387 1.419 1.382"/>
    <path fill="#1A4278" fill-rule="evenodd" d="M348.159 140.579l-7.608.041-.171-33.08 7.617-.042c.747-.004 1.355.613 1.359 1.373l.153 30.312c.005.765-.598 1.391-1.35 1.396z" clip-rule="evenodd"/>
    <path stroke="#000" stroke-width="2" d="M348.159 140.579l-7.608.041-.171-33.08 7.617-.042c.747-.004 1.355.613 1.359 1.373l.153 30.312c.005.765-.598 1.391-1.35 1.396"/>
    <path fill="#FECF73" fill-rule="evenodd" d="M169.971 150.394l15.74-.089-.266-51.495-15.74.08c-2.737.014-4.952 2.293-4.938 5.091l.215 41.374c.014 2.798 2.247 5.053 4.989 5.039z" clip-rule="evenodd"/>
    <path stroke="#000" stroke-width="2" d="M169.971 150.394l15.74-.089-.266-51.495-15.74.08c-2.737.014-4.952 2.293-4.938 5.091l.215 41.374c.014 2.798 2.247 5.053 4.989 5.039"/>
    <path fill="#FECF73" fill-rule="evenodd" d="M338.726 149.762l-15.808.089-.262-51.495 15.807-.088c2.707-.015 4.911 2.241 4.924 5.034l.213 41.37c.014 2.798-2.168 5.076-4.874 5.09z" clip-rule="evenodd"/>
    <path stroke="#000" stroke-width="2" d="M338.726 149.762l-15.808.089-.262-51.495 15.807-.088c2.707-.015 4.911 2.241 4.924 5.034l.213 41.37c.014 2.798-2.168 5.076-4.874 5.09"/>
    <path fill="#F8AB60" fill-rule="evenodd" d="M195.361 153.516l-9.835.051c-1.021.004-1.858-.814-1.863-1.814l-.288-54.298c-.01-1 .822-1.822 1.839-1.827l9.839-.056c1.012-.005 1.854.814 1.859 1.818l.293 54.289c.004 1.004-.823 1.832-1.844 1.837z" clip-rule="evenodd"/>
    <path stroke="#000" stroke-width="2" d="M195.361 153.516l-9.835.051c-1.021.004-1.858-.814-1.863-1.814l-.288-54.298c-.01-1 .822-1.822 1.839-1.827l9.839-.056c1.012-.005 1.854.814 1.859 1.818l.293 54.289c.004 1.004-.823 1.832-1.844 1.837"/>
    <path fill="#F8AB60" fill-rule="evenodd" d="M314.087 153.109l9.929-.051c1.031-.005 1.866-.829 1.862-1.831l-.296-54.4c-.005-1.007-.855-1.827-1.876-1.817l-9.93.05c-1.031.005-1.866.835-1.861 1.836l.291 54.396c.005 1.007.854 1.822 1.881 1.817z" clip-rule="evenodd"/>
    <path stroke="#000" stroke-width="2" d="M314.087 153.109l9.929-.051c1.031-.005 1.866-.829 1.862-1.831l-.296-54.4c-.005-1.007-.855-1.827-1.876-1.817l-9.93.05c-1.031.005-1.866.835-1.861 1.836l.291 54.396c.005 1.007.854 1.822 1.881 1.817"/>
    <path fill="#C4CDD5" fill-rule="evenodd" stroke="#000" stroke-width="2" d="M32.224 277.541l32.113 31.451s25.627 22.422 0 56.216L33.24 396.314l9.074 9.867 32.117-31.455s22.886-25.095 57.395 0l31.281 29.994 9.859-9.104-30.368-29.74s-25.623-22.418 0-56.212l32.116-32.123-10.089-10.918-32.117 31.455s-22.89 25.095-57.395 0l-31.76-30.457-11.129 9.92z" clip-rule="evenodd"/>
    <path fill="#fff" fill-rule="evenodd" stroke="#152934" stroke-width="2" d="M102.901 349.799c-7.661 0-13.909-6.138-13.909-13.682 0-7.536 6.248-13.671 13.909-13.671 7.664 0 13.908 6.135 13.908 13.671 0 7.544-6.244 13.682-13.908 13.682z" clip-rule="evenodd"/>
    <path fill="#7790A3" fill-rule="evenodd" d="M29.672 277.787c-7.667 0-13.91-6.136-13.91-13.676 0-7.544 6.243-13.677 13.91-13.677s13.906 6.133 13.906 13.677c0 7.54-6.24 13.676-13.906 13.676z" clip-rule="evenodd"/>
    <path stroke="#000" stroke-width="2" d="M29.672 277.787c-7.667 0-13.91-6.136-13.91-13.676 0-7.544 6.243-13.677 13.91-13.677s13.906 6.133 13.906 13.677c0 7.54-6.24 13.676-13.906 13.676"/>
    <path fill="#7790A3" fill-rule="evenodd" d="M177.269 277.229c-7.668 0-13.908-6.139-13.908-13.678 0-7.543 6.24-13.675 13.908-13.675 7.668 0 13.909 6.132 13.909 13.675 0 7.539-6.241 13.678-13.909 13.678z" clip-rule="evenodd"/>
    <path stroke="#000" stroke-width="2" d="M177.269 277.229c-7.668 0-13.908-6.139-13.908-13.678 0-7.543 6.24-13.675 13.908-13.675 7.668 0 13.909 6.132 13.909 13.675 0 7.539-6.241 13.678-13.909 13.678"/>
    <path fill="#7790A3" fill-rule="evenodd" d="M175.57 422.37c-7.667 0-13.91-6.136-13.91-13.675 0-1.416.22-2.812.652-4.151 1.447-4.462 5.213-7.953 9.828-9.107 1.104-.273 2.261-.421 3.43-.421 7.667 0 13.907 6.136 13.907 13.679 0 7.539-6.24 13.675-13.907 13.675z" clip-rule="evenodd"/>
    <path stroke="#152934" stroke-width="2" d="M175.57 422.37c-7.667 0-13.91-6.136-13.91-13.675 0-1.416.22-2.812.652-4.151 1.447-4.462 5.213-7.953 9.828-9.107 1.104-.273 2.261-.421 3.43-.421 7.667 0 13.907 6.136 13.907 13.679 0 7.539-6.24 13.675-13.907 13.675"/>
    <path fill="#7790A3" fill-rule="evenodd" d="M28.538 422.928c-7.667 0-13.91-6.14-13.91-13.679 0-7.543 6.243-13.675 13.91-13.675 1.682 0 3.314.289 4.858.862 5.41 1.984 9.048 7.129 9.048 12.813 0 7.539-6.24 13.679-13.906 13.679z" clip-rule="evenodd"/>
    <path stroke="#000" stroke-width="2" d="M28.538 422.928c-7.667 0-13.91-6.14-13.91-13.679 0-7.543 6.243-13.675 13.91-13.675 1.682 0 3.314.289 4.858.862 5.41 1.984 9.048 7.129 9.048 12.813 0 7.539-6.24 13.679-13.906 13.679"/>
    <path fill="#1ACC94" fill-rule="evenodd" stroke="#000" stroke-width="2" d="M9.666 403.071c-4.35-1.647-7.592-5.409-8.453-9.816-.68-3.445.295-6.64 2.658-8.774 1.673-1.507 3.827-2.304 6.23-2.304 5.484 0 10.685 3.932 12.374 9.348l5.775 18.563-18.584-7.017z" clip-rule="evenodd"/>
    <mask id="prefix__a" width="28" height="28" x="28" y="410" maskUnits="userSpaceOnUse">
        <path fill="#fff" fill-rule="evenodd" d="M28.522 410.323h26.743V438H28.522v-27.677z" clip-rule="evenodd"/>
    </mask>
    <g mask="url(#prefix__a)">
        <path fill="#1ACC94" fill-rule="evenodd" d="M46.35 438c-5.372 0-10.471-3.874-12.121-9.218l-5.707-18.459 18.25 7.09c4.263 1.619 7.437 5.322 8.289 9.661.658 3.398-.289 6.554-2.612 8.656-1.635 1.489-3.745 2.27-6.099 2.27z" clip-rule="evenodd"/>
        <path stroke="#000" stroke-width="2" d="M46.35 438c-5.372 0-10.471-3.874-12.121-9.218l-5.707-18.459 18.25 7.09c4.263 1.619 7.437 5.322 8.289 9.661.658 3.398-.289 6.554-2.612 8.656-1.635 1.489-3.745 2.27-6.099 2.27"/>
    </g>
    <path fill="#1ACC94" fill-rule="evenodd" d="M157.664 435.767c-2.694 0-5.018-.971-6.735-2.815-2.152-2.32-2.854-5.611-1.931-9.024 1.191-4.37 4.66-7.905 9.056-9.234l18.931-5.722-7.269 18.296c-1.95 5.002-6.904 8.499-12.052 8.499z" clip-rule="evenodd"/>
    <path stroke="#152934" stroke-width="2" d="M157.664 435.767c-2.694 0-5.018-.971-6.735-2.815-2.152-2.32-2.854-5.611-1.931-9.024 1.191-4.37 4.66-7.905 9.056-9.234l18.931-5.722-7.269 18.296c-1.95 5.002-6.904 8.499-12.052 8.499"/>
    <path fill="#1ACC94" fill-rule="evenodd" stroke="#152934" stroke-width="2" d="M184.12 390.7c1.963-5.015 6.952-8.523 12.129-8.523 2.712 0 5.055.973 6.779 2.821 2.166 2.328 2.873 5.626 1.944 9.053-1.199 4.371-4.682 7.917-9.107 9.245l-18.878 5.676 7.133-18.272z" clip-rule="evenodd"/>
    <path fill="#1ACC94" fill-rule="evenodd" d="M195.722 290.627c-5.473 0-10.668-3.907-12.349-9.293l-5.819-18.619 18.598 7.15c4.343 1.632 7.581 5.37 8.441 9.746.674 3.431-.29 6.606-2.657 8.726-1.666 1.502-3.816 2.29-6.214 2.29z" clip-rule="evenodd"/>
    <path stroke="#000" stroke-width="2" d="M195.722 290.627c-5.473 0-10.668-3.907-12.349-9.293l-5.819-18.619 18.598 7.15c4.343 1.632 7.581 5.37 8.441 9.746.674 3.431-.29 6.606-2.657 8.726-1.666 1.502-3.816 2.29-6.214 2.29"/>
    <path fill="#1ACC94" fill-rule="evenodd" stroke="#000" stroke-width="2" d="M158.973 255.698c-4.355-1.647-7.596-5.409-8.458-9.813-.675-3.448.295-6.644 2.663-8.781 1.673-1.507 3.827-2.3 6.23-2.3 5.485 0 10.686 3.931 12.375 9.348l5.771 18.563-18.581-7.017zM35.957 245.56c1.963-5.016 6.95-8.523 12.123-8.523 2.711 0 5.058.973 6.778 2.82 2.17 2.329 2.876 5.626 1.943 9.05-1.194 4.375-4.685 7.92-9.109 9.249l-18.873 5.676 7.138-18.272z" clip-rule="evenodd"/>
    <mask id="prefix__b" width="29" height="27" x="0" y="264" maskUnits="userSpaceOnUse">
        <path fill="#fff" fill-rule="evenodd" d="M.434 264.064h28.147v26.299H.434v-26.299z" clip-rule="evenodd"/>
    </mask>
    <g mask="url(#prefix__b)">
        <path fill="#1ACC94" fill-rule="evenodd" d="M9.422 290.363c-2.672 0-4.981-.953-6.68-2.763-2.139-2.277-2.835-5.507-1.915-8.857 1.177-4.289 4.613-7.758 8.973-9.06l18.78-5.619-7.21 17.958c-1.934 4.909-6.847 8.341-11.948 8.341z" clip-rule="evenodd"/>
        <path stroke="#000" stroke-width="2" d="M9.422 290.363c-2.672 0-4.981-.953-6.68-2.763-2.139-2.277-2.835-5.507-1.915-8.857 1.177-4.289 4.613-7.758 8.973-9.06l18.78-5.619-7.21 17.958c-1.934 4.909-6.847 8.341-11.948 8.341"/>
    </g>
</svg>
