<svg xmlns="http://www.w3.org/2000/svg" xmlns:xlink="http://www.w3.org/1999/xlink" width="40" height="40" viewBox="0 0 40 40">
    <defs>
        <path id="a" d="M0 0h40v40H0z"/>
        <rect id="c" width="18" height="2" x="15" y="14" rx="1"/>
        <rect id="d" width="18" height="2" x="15" y="18" rx="1"/>
        <rect id="e" width="24" height="28" x="5" y="4" rx="2"/>
        <path id="f" d="M0 0h16v16H0z"/>
    </defs>
    <g fill="none" fill-rule="evenodd">
        <mask id="b" fill="#fff">
            <use xlink:href="#a"/>
        </mask>
        <use fill="#E31616" fill-opacity="0" fill-rule="nonzero" xlink:href="#a"/>
        <g mask="url(#b)">
            <g transform="matrix(1 0 0 -1 3 34)">
                <use fill="#FFF" style="mix-blend-mode:darken" xlink:href="#c"/>
                <use fill="#E2EDF3" style="mix-blend-mode:darken" xlink:href="#c"/>
            </g>
            <g transform="matrix(1 0 0 -1 3 42)">
                <use fill="#FFF" style="mix-blend-mode:darken" xlink:href="#d"/>
                <use fill="#E2EDF3" style="mix-blend-mode:darken" xlink:href="#d"/>
            </g>
            <g transform="translate(3 4)">
                <g fill-rule="nonzero">
                    <use fill="#FFF" xlink:href="#e"/>
                    <rect width="22" height="26" x="6" y="5" fill="#2F88EC" fill-opacity=".3" fill-rule="evenodd" stroke="#2F88EC" stroke-linejoin="square" stroke-width="2" rx="2"/>
                </g>
                <rect width="14" height="2" x="14" y="30" fill="#FFF" rx="1" transform="matrix(1 0 0 -1 0 62)"/>
                <rect width="5" height="2" x="23" y="30" fill="#2F88EC" rx="1" transform="matrix(1 0 0 -1 0 62)"/>
                <path fill="#FFF" fill-rule="nonzero" stroke="#2F88EC" stroke-width="2" d="M11 7h12V4a1 1 0 0 0-1-1h-4V2a1 1 0 0 0-2 0v1h-4a1 1 0 0 0-1 1v3z"/>
                <rect width="6" height="2" x="11" y="30" fill="#2F88EC" rx="1" transform="matrix(1 0 0 -1 0 62)"/>
                <rect width="3" height="2" x="18" y="30" fill="#2F88EC" rx="1" transform="matrix(1 0 0 -1 0 62)"/>
                <rect width="2" height="5" x="5" y="9" fill="#2F88EC" rx="1" transform="matrix(1 0 0 -1 0 23)"/>
                <g transform="translate(9 10)">
                    <circle cx="8" cy="8" r="8" fill="#FFF" fill-rule="nonzero"/>
                    <mask id="g" fill="#fff">
                        <use xlink:href="#f"/>
                    </mask>
                    <use fill="#E45858" fill-opacity="0" xlink:href="#f"/>
                    <path fill="#2F88EC" d="M9 7h1a1 1 0 0 1 0 2H9v4a1 1 0 0 1-2 0V9H3a1 1 0 1 1 0-2h4V3a1 1 0 1 1 2 0v4zm4 0a1 1 0 1 1 0 2 1 1 0 0 1 0-2z" mask="url(#g)" transform="rotate(45 8 8)"/>
                </g>
                <g fill="#50E3C2" transform="translate(0 22)">
                    <rect width="4" height="2" x="8" rx="1" transform="matrix(1 0 0 -1 0 2)"/>
                    <rect width="7" height="2" rx="1" transform="matrix(1 0 0 -1 0 2)"/>
                    <rect width="10" height="2" y="4" rx="1" transform="matrix(1 0 0 -1 0 10)"/>
                </g>
                <circle cx="23" cy="12" r="2" fill="#EE6C6B" fill-rule="nonzero"/>
            </g>
        </g>
    </g>
</svg>
