<svg xmlns="http://www.w3.org/2000/svg" width="12" height="12" viewBox="0 0 12 12">
    <g fill="none" fill-rule="nonzero">
        <path fill="#48636F" d="M6 11A5 5 0 1 0 6 1a5 5 0 0 0 0 10zm0 1A6 6 0 1 1 6 0a6 6 0 0 1 0 12z"/>
        <circle cx="6" cy="6" r="4" fill="#48636F"/>
        <path fill="#FFF" d="M8 6.709c0 .69-.55 1.169-1.554 1.267V8.5h-.774v-.524C4.934 7.918 4.397 7.699 4 7.382l.634-.743c.335.277.85.507 1.484.507.412 0 .662-.144.662-.328 0-.219-.3-.305-.794-.392-.766-.126-1.84-.288-1.84-1.198 0-.582.544-1.094 1.526-1.187V3.5h.774v.547c.557.058 1.052.236 1.443.513l-.656.708a2.453 2.453 0 0 0-1.31-.397c-.397 0-.55.132-.55.3 0 .201.286.27.801.35C6.941 5.655 8 5.84 8 6.71z"/>
    </g>
</svg>
