<svg xmlns="http://www.w3.org/2000/svg" width="14" height="16" viewBox="0 0 14 16">
  <g fill="none">
    <g fill="#FFF">
      <path d="M9.77763636 4.64636364L4.08090909 4.64636364C3.98005636 4.64636364 3.8792 4.56539818 3.8792 4.44465455L3.8792 3.83883636C3.8792 3.73798364 3.96016545 3.63712727 4.08090909 3.63712727L9.77763636 3.63712727C9.87848909 3.63712727 9.97934545 3.71809273 9.97934545 3.83883636L9.97934545 4.44465455C9.95945818 4.56539273 9.87849273 4.64636364 9.77763636 4.64636364zM7.03054545 1.33309091C7.576 1.33309091 8.90909091.585927273 9.31327273.343036364 9.39423818.302552727 9.47520364.262070909 9.55545455.221587273 10.5050364-.122158182 10.8885455.181103636 11.0504909.565332727 11.1918255.909078182 11.1314564 1.31249636 10.9091564 1.61575091 10.5256291 2.12071455 9.87861091 2.90836909 9.87861091 2.90836909 9.63642909 3.17115091 9.25219273 3.15055091 9.25219273 3.15055091L6.90910182 3.15126109 4.58601091 3.15126109C4.58601091 3.15126109 4.20248364 3.19174473 3.95959273 2.90907927 3.95959273 2.90907927 3.29268364 2.12144291 2.92904727 1.61646109 2.68686545 1.31318836 2.62648364.909079273 2.78771273.565333818 2.94964364.181806545 3.33316727-.121448 4.28274909.221588364 4.36371455.262072 4.44468.302553818 4.52493091.343037455 4.90845818.565346545 6.24225818 1.333092 6.80765818 1.333092L7.03067636 1.333092 7.03054545 1.33309091zM3.414 15.9396364C1.576 16.0206018.0403636364 14.4850909.121454545 12.6470909.323163636 8.44545455 2.566 6.38436364 3.738 5.576 4.12152727 5.31321818 4.58672727 5.17187273 5.05121818 5.17187273L6.92976364 5.17187273 6.88928 5.17187273 8.54553455 5.17187273C9.19184364 5.17187273 9.81826182 5.37358182 10.3438255 5.77769091 11.5561891 6.68678182 13.4950982 8.76769091 13.6769164 12.6462364 13.7578818 14.4842364 12.2422618 16.0198727 10.3843709 15.9387818L3.414 15.9396364zM6.86878909 10.1816909C6.74734 10.1412073 6.66708 10.1007255 6.62660727 10.0602418 6.52575455 9.97927636 6.48527273 9.87842364 6.48527273 9.75696909 6.48527273 9.63552 6.52575636 9.55526 6.58612545 9.47429636 6.64649455 9.41392727 6.74805636 9.37344364 6.88939818 9.37344364L6.88939818 10.18168 6.86878909 10.1816909zM7.09109818 10.8684727C7.21254727 10.9089564 7.31340727 10.9693255 7.35388 11.0098073 7.43484545 11.0907727 7.49521455 11.1916255 7.49521455 11.31308 7.49521455 11.4948982 7.45473091 11.6163527 7.35388 11.6767164 7.29351091 11.7172 7.21254545 11.7370855 7.09109818 11.7576818L7.09109818 10.8684727z"/>
    </g>
    <path fill="#5FA906" d="M0.0321111111,1.87716667 C0.0321111111,1.28994444 0.445955556,0.829444444 1.15994444,0.689444444 L1.15994444,0.382155556 C1.15994444,0.2016 1.30642778,0.0553333333 1.48698333,0.0553333333 C1.66753889,0.0553333333 1.81380556,0.2016 1.81380556,0.382155556 L1.81380556,0.642138889 C2.02018333,0.649300556 2.22504444,0.678597222 2.42491667,0.730027778 C2.60482222,0.786666667 2.71831667,0.964183333 2.69401667,1.15125 C2.66949389,1.3381 2.51454444,1.48089444 2.32617778,1.48935556 C2.28993667,1.48935556 2.25412778,1.48414722 2.21940556,1.47394778 C2.02713333,1.41665889 1.82726111,1.38800889 1.62673889,1.38888111 C1.19336111,1.38888111 1.05557222,1.57659778 1.05557222,1.76388111 C1.05557222,1.98610333 1.28886111,2.12434222 1.85612778,2.33765889 C2.64996111,2.61543667 2.97051667,2.98477 2.97051667,3.58549222 C2.97051667,4.18621444 2.54777222,4.68615889 1.77779444,4.81943667 L1.77779444,5.17273667 C1.77779444,5.35329222 1.63131111,5.49977556 1.45075556,5.49977556 C1.2702,5.49977556 1.12393333,5.35329222 1.12393333,5.17273667 L1.12393333,4.86609778 C0.853966667,4.85307667 0.586822222,4.80489778 0.329433333,4.72222 C0.135855556,4.65863667 0.0240944444,4.45659778 0.0733555556,4.25889778 L0.0816022222,4.22721389 C0.125005,4.05968056 0.276913333,3.942925 0.450091111,3.94444722 C0.493711111,3.94444722 0.537113333,3.95182556 0.578346667,3.96614833 C0.810768889,4.04665944 1.05469111,4.08854278 1.30056889,4.090065 C1.68121333,4.090065 1.94118,3.943365 1.94118,3.67622056 C1.94118,3.422965 1.72785778,3.26237611 1.23395778,3.09572056 C0.519568889,2.85787611 0.0321244444,2.52455389 0.0321244444,1.877165 L0.0321111111,1.87716667 Z" transform="translate(6 8)"/>
  </g>
</svg>
