<svg width="28" height="29" viewBox="0 0 28 29" fill="none" xmlns="http://www.w3.org/2000/svg">
<path d="M24.481 11.7231H3.84204" stroke="#5A7385"/>
<path d="M24.481 9.61023H3.84204" stroke="#5A7385"/>
<path fill-rule="evenodd" clip-rule="evenodd" d="M5 7.04858H23.5512C23.8273 7.04858 24.0512 7.27244 24.0512 7.54858V14.0792C24.418 14.2849 24.7543 14.5434 25.0512 14.845V7.54858C25.0512 6.72016 24.3796 6.04858 23.5512 6.04858H5C4.17157 6.04858 3.5 6.72016 3.5 7.54858V18.6746C3.5 19.503 4.17157 20.1746 5 20.1746H17.9156C17.7811 19.8583 17.6785 19.5234 17.6124 19.1746H5C4.72386 19.1746 4.5 18.9507 4.5 18.6746V7.54858C4.5 7.27244 4.72386 7.04858 5 7.04858Z" fill="#5A7385"/>
<circle cx="21.7914" cy="18.2428" r="4.20866" stroke="#5A7385"/>
<path d="M22.8025 19.3746L21.731 18.3031L21.731 15.8884" stroke="#5A7385" stroke-linecap="round"/>
</svg>
