<svg xmlns="http://www.w3.org/2000/svg" width="382" height="179" fill="none" viewBox="0 0 382 179">
    <path fill="#8CACF6" d="M143.033 92.897l5.256-20.369s7.776-14.28 17.196-13.386c-2.842-1.53-6.448-1.43-8.573-4.338-5.198-3.132-7.263-13.468-8.25-18.407l-.018-.09s-17.312-1.734-12.594 3.798c1.794 2.099 2.77 5.74 3.293 9.434l.322 3.115c.24 3.048.293 6.102.159 9.135l3.209 31.108z"/>
    <path fill="#7BDFC3" d="M139.428 52.776c-1.934.12-8.26 2.77-11.181 4.08-2.296 9.427-1.687 23.468-.226 30.519l9.669 18.659 23.57-64.74c-10.35 14.957-19.415 11.33-21.832 11.482z"/>
    <path fill="#1C4178" fill-rule="evenodd" d="M137.525 20.863s-4.339 3.762-13.803 2.824c-4.521-.445-12.028-2.69-9.979-11.705 1.511-6.647 8.338-9.78 14.655-8.612 16.317-9.367 25.316 3.004 27.649 10.274 6.076 18.95-5.366 24.222-8.51 21.035-2.413-.608-10.012-13.816-10.012-13.816z" clip-rule="evenodd"/>
    <path fill="#769BF0" d="M148.444 35.902c-10.204 5.3-9.337 5.948-10.441 7.874 2.901 1.39 10.478.701 12.023-1.297l-1.582-6.577z"/>
    <path fill="#8CACF6" fill-rule="evenodd" d="M127.155 33.254c.88 6.927 6.802 11.372 13.179 10.457 7.471-1.072 10.604-5.803 11.331-10.123.726-4.323.255-7.096.255-7.096 5.347-6.262-3.18-12.528-2.302-4.896l-.963.276-3.788-8.53c-5.809 4.077-14.386 5.904-20.699 5.288 0 0-.18-.274-.043 4.037.153 4.805 2.413 5.73 3.03 10.587z" clip-rule="evenodd"/>
    <ellipse cx="193.667" cy="102.03" fill="#C2D2E9" rx="48.045" ry="59.226"/>
    <path fill="#fff" fill-rule="evenodd" d="M158.678 40.024h-2.566v121.575h2.566V40.024zm14.509 0h-2.566v121.575h2.566V40.024zm14.509 0h-2.566v121.575h2.566V40.024zm11.943 0h2.566v121.575h-2.566V40.024zm17.075 0h-2.566v121.575h2.566V40.024zm11.943 0h2.565v121.575h-2.565V40.024z" clip-rule="evenodd" opacity=".2"/>
    <g opacity=".4">
        <path stroke="#7BDFC3" stroke-miterlimit="10" d="M95.596 175.76s-10.812-37.418 2.03-64.946c5.391-11.557 7.179-24.535 4.69-37.079a100.882 100.882 0 0 0-5.15-17.422"/>
        <path fill="#BDF3E4" d="M105.138 41.5c0 4.502-8.148 17.533-8.148 17.533S88.842 45.984 88.842 41.5a8.146 8.146 0 0 1 13.974-5.883 8.146 8.146 0 0 1 2.318 5.883h.004zM118.62 66.422c-2.446 3.778-16.375 10.3-16.375 10.3s.254-15.38 2.7-19.158a8.148 8.148 0 0 1 13.675 8.854v.004zM118.028 109.012c-4.019 2.025-19.333.626-19.333.626s7.982-13.148 12.001-15.173a8.146 8.146 0 0 1 11.526 9.827 8.16 8.16 0 0 1-4.189 4.72h-.005zM110.327 141.134c-3.616 2.674-18.952 3.884-18.952 3.884s5.646-14.306 9.262-16.984a8.152 8.152 0 0 1 11.448 1.666 8.154 8.154 0 0 1 .408 9.085 8.148 8.148 0 0 1-2.166 2.349zM85.139 77.595c3.226 3.133 18.246 6.394 18.246 6.394s-3.682-14.932-6.908-18.07a8.148 8.148 0 0 0-11.352 11.684l.014-.008zM76.61 115.275c4.019 2.025 19.333.627 19.333.627s-7.982-13.149-12.001-15.174a8.15 8.15 0 0 0-9.1 1 8.144 8.144 0 0 0-2.426 8.827 8.15 8.15 0 0 0 4.189 4.72h.004zM73.344 153.039c3.616 2.673 18.952 3.883 18.952 3.883s-5.645-14.306-9.261-16.984a8.135 8.135 0 0 0-6.071-1.552 8.139 8.139 0 0 0-6.737 6.109 8.149 8.149 0 0 0 3.117 8.544z"/>
        <path fill="#BDF3E4" d="M105.138 41.5c0 4.502-8.148 17.533-8.148 17.533S88.842 45.984 88.842 41.5a8.146 8.146 0 0 1 13.974-5.883 8.146 8.146 0 0 1 2.318 5.883h.004zM118.62 66.422c-2.446 3.778-16.375 10.3-16.375 10.3s.254-15.38 2.7-19.158a8.148 8.148 0 0 1 13.675 8.854v.004zM118.028 109.012c-4.019 2.025-19.333.626-19.333.626s7.982-13.148 12.001-15.173a8.146 8.146 0 0 1 11.526 9.827 8.16 8.16 0 0 1-4.189 4.72h-.005zM110.327 141.134c-3.616 2.674-18.952 3.884-18.952 3.884s5.646-14.306 9.262-16.984a8.152 8.152 0 0 1 11.448 1.666 8.154 8.154 0 0 1 .408 9.085 8.148 8.148 0 0 1-2.166 2.349zM85.139 77.595c3.226 3.133 18.246 6.394 18.246 6.394s-3.682-14.932-6.908-18.07a8.148 8.148 0 0 0-11.352 11.684l.014-.008zM76.61 115.275c4.019 2.025 19.333.627 19.333.627s-7.982-13.149-12.001-15.174a8.15 8.15 0 0 0-9.1 1 8.144 8.144 0 0 0-2.426 8.827 8.15 8.15 0 0 0 4.189 4.72h.004zM73.344 153.039c3.616 2.673 18.952 3.883 18.952 3.883s-5.645-14.306-9.261-16.984a8.135 8.135 0 0 0-6.071-1.552 8.139 8.139 0 0 0-6.737 6.109 8.149 8.149 0 0 0 3.117 8.544z" opacity=".25"/>
    </g>
    <g opacity=".4">
        <path stroke="#BDF3E4" stroke-miterlimit="10" d="M267.663 178.177s-11.594-40.122 2.176-69.638c5.781-12.392 7.698-26.308 5.029-39.758a108.095 108.095 0 0 0-5.522-18.682"/>
        <path fill="#BDF3E4" d="M277.895 34.218c0 4.826-8.737 18.798-8.737 18.798s-8.736-13.99-8.736-18.798a8.736 8.736 0 1 1 17.468 0h.005zM292.351 60.94c-2.623 4.05-17.558 11.044-17.558 11.044s.272-16.491 2.895-20.542a8.736 8.736 0 0 1 14.663 9.493v.005zM291.716 106.606c-4.309 2.171-20.73.672-20.73.672s8.558-14.099 12.868-16.27a8.737 8.737 0 1 1 7.867 15.598h-.005zM283.459 141.05c-3.877 2.867-20.321 4.164-20.321 4.164s6.053-15.34 9.93-18.211a8.748 8.748 0 0 1 6.51-1.664 8.743 8.743 0 0 1 5.766 3.45 8.737 8.737 0 0 1-1.885 12.261zM256.45 72.92c3.459 3.36 19.565 6.856 19.565 6.856s-3.948-16.012-7.407-19.377a8.736 8.736 0 0 0-12.172 12.53l.014-.01zM247.305 113.322c4.309 2.171 20.73.672 20.73.672s-8.558-14.099-12.868-16.27a8.739 8.739 0 0 0-12.805 7.114 8.743 8.743 0 0 0 4.938 8.484h.005zM243.803 153.814c3.878 2.867 20.322 4.164 20.322 4.164s-6.054-15.339-9.931-18.211a8.725 8.725 0 0 0-6.51-1.663 8.73 8.73 0 0 0-7.223 6.55 8.73 8.73 0 0 0 3.342 9.16z"/>
        <path fill="#BDF3E4" d="M277.895 34.218c0 4.826-8.737 18.798-8.737 18.798s-8.736-13.99-8.736-18.798a8.736 8.736 0 1 1 17.468 0h.005zM292.351 60.94c-2.623 4.05-17.558 11.044-17.558 11.044s.272-16.491 2.895-20.542a8.736 8.736 0 0 1 14.663 9.493v.005zM291.716 106.606c-4.309 2.171-20.73.672-20.73.672s8.558-14.099 12.868-16.27a8.737 8.737 0 1 1 7.867 15.598h-.005zM283.459 141.05c-3.877 2.867-20.321 4.164-20.321 4.164s6.053-15.34 9.93-18.211a8.748 8.748 0 0 1 6.51-1.664 8.743 8.743 0 0 1 5.766 3.45 8.737 8.737 0 0 1-1.885 12.261zM256.45 72.92c3.459 3.36 19.565 6.856 19.565 6.856s-3.948-16.012-7.407-19.377a8.736 8.736 0 0 0-12.172 12.53l.014-.01zM247.305 113.322c4.309 2.171 20.73.672 20.73.672s-8.558-14.099-12.868-16.27a8.739 8.739 0 0 0-12.805 7.114 8.743 8.743 0 0 0 4.938 8.484h.005zM243.803 153.814c3.878 2.867 20.322 4.164 20.322 4.164s-6.054-15.339-9.931-18.211a8.725 8.725 0 0 0-6.51-1.663 8.73 8.73 0 0 0-7.223 6.55 8.73 8.73 0 0 0 3.342 9.16z" opacity=".25"/>
    </g>
    <path fill="url(#a)" d="M70.003 173.106H95.76v-33.24h19.592v-22.674H95.759V26.275H60.317L0 119.173v20.693h70.003v33.24zm0-123.716v67.802H25.316L70.003 49.39zm64.958 50.41c0 36.984 17.611 75.948 58.776 75.948 41.166 0 58.776-38.964 58.776-75.947 0-36.983-17.61-75.727-58.776-75.727-41.165 0-58.776 38.744-58.776 75.727zm91.356 0c0 27.958-8.585 53.054-32.58 53.054-23.995 0-32.58-25.096-32.58-53.053 0-27.957 8.585-52.833 32.58-52.833 23.995 0 32.58 24.876 32.58 52.833zm44.954 52.173c9.907 13.208 29.279 23.775 55.475 23.775 33.901 0 55.254-17.831 55.254-42.707 0-22.674-19.812-34.34-34.121-35.662 15.189-2.641 31.92-14.088 31.92-33.68 0-24.656-21.354-39.625-53.053-39.625-24.435 0-42.266 9.906-53.493 23.114l13.208 16.07c10.566-10.566 22.894-16.29 37.863-16.29 16.511 0 29.719 7.045 29.719 20.693 0 13.428-12.988 19.372-30.159 19.372-5.724 0-14.309 0-16.95-.22v23.114c2.201-.22 10.786-.22 16.95-.22 20.913 0 32.58 6.164 32.58 20.693 0 13.648-11.227 22.454-30.599 22.454-15.629 0-31.259-6.824-40.725-17.831l-13.869 16.95z"/>
    <path stroke="#7BDFC3" stroke-miterlimit="10" d="M255.894 175.76s-8.57-29.655 1.608-51.472c4.273-9.159 5.69-19.445 3.717-29.386a79.95 79.95 0 0 0-4.081-13.808"/>
    <path fill="#BDF3E4" d="M263.456 69.355c0 3.567-6.457 13.894-6.457 13.894s-6.458-10.34-6.458-13.894a6.447 6.447 0 0 1 1.837-4.663 6.465 6.465 0 0 1 4.619-1.944 6.465 6.465 0 0 1 4.619 1.944 6.472 6.472 0 0 1 1.837 4.663h.003zM274.141 89.106c-1.938 2.994-12.978 8.163-12.978 8.163s.202-12.189 2.14-15.183a6.458 6.458 0 0 1 10.838 7.017v.003zM273.672 122.86c-3.185 1.604-15.322.496-15.322.496s6.325-10.421 9.511-12.026a6.458 6.458 0 1 1 5.815 11.53h-.004zM267.569 148.318c-2.866 2.119-15.02 3.078-15.02 3.078s4.474-11.338 7.34-13.461a6.461 6.461 0 0 1 4.811-1.229 6.445 6.445 0 0 1 5.339 4.841 6.457 6.457 0 0 1-2.47 6.771zM247.606 97.96c2.556 2.484 14.461 5.069 14.461 5.069s-2.918-11.835-5.475-14.322a6.458 6.458 0 0 0-8.997 9.26l.011-.007zM240.846 127.823c3.185 1.605 15.322.497 15.322.497s-6.325-10.421-9.511-12.026a6.46 6.46 0 0 0-7.211.793 6.453 6.453 0 0 0-1.924 6.996 6.46 6.46 0 0 0 3.321 3.74h.003zM238.258 157.752c2.866 2.119 15.02 3.078 15.02 3.078s-4.474-11.338-7.34-13.46a6.444 6.444 0 0 0-4.811-1.23 6.451 6.451 0 0 0-5.339 4.842 6.452 6.452 0 0 0 2.47 6.77z"/>
    <path fill="#BDF3E4" d="M263.456 69.355c0 3.567-6.457 13.894-6.457 13.894s-6.458-10.34-6.458-13.894a6.447 6.447 0 0 1 1.837-4.663 6.465 6.465 0 0 1 4.619-1.944 6.465 6.465 0 0 1 4.619 1.944 6.472 6.472 0 0 1 1.837 4.663h.003zM274.141 89.106c-1.938 2.994-12.978 8.163-12.978 8.163s.202-12.189 2.14-15.183a6.458 6.458 0 0 1 10.838 7.017v.003zM273.672 122.86c-3.185 1.604-15.322.496-15.322.496s6.325-10.421 9.511-12.026a6.458 6.458 0 1 1 5.815 11.53h-.004zM267.569 148.318c-2.866 2.119-15.02 3.078-15.02 3.078s4.474-11.338 7.34-13.461a6.461 6.461 0 0 1 4.811-1.229 6.445 6.445 0 0 1 5.339 4.841 6.457 6.457 0 0 1-2.47 6.771zM247.606 97.96c2.556 2.484 14.461 5.069 14.461 5.069s-2.918-11.835-5.475-14.322a6.458 6.458 0 0 0-8.997 9.26l.011-.007zM240.846 127.823c3.185 1.605 15.322.497 15.322.497s-6.325-10.421-9.511-12.026a6.46 6.46 0 0 0-7.211.793 6.453 6.453 0 0 0-1.924 6.996 6.46 6.46 0 0 0 3.321 3.74h.003zM238.258 157.752c2.866 2.119 15.02 3.078 15.02 3.078s-4.474-11.338-7.34-13.46a6.444 6.444 0 0 0-4.811-1.23 6.451 6.451 0 0 0-5.339 4.842 6.452 6.452 0 0 0 2.47 6.77z" opacity=".25"/>
    <path stroke="#7BDFC3" stroke-miterlimit="10" d="M39.337 175.76s6.324-21.885-1.187-37.985c-3.153-6.759-4.199-14.349-2.743-21.686a58.997 58.997 0 0 1 3.013-10.19"/>
    <path fill="#BDF3E4" d="M33.757 97.236c0 2.633 4.765 10.254 4.765 10.254s4.766-7.631 4.766-10.254a4.766 4.766 0 1 0-9.529 0h-.002zM25.871 111.812c1.43 2.21 9.578 6.024 9.578 6.024s-.15-8.995-1.58-11.205a4.766 4.766 0 0 0-7.998 5.178v.003zM26.218 136.721c2.35 1.184 11.307.367 11.307.367s-4.668-7.691-7.019-8.875a4.748 4.748 0 0 0-3.676-.329 4.763 4.763 0 0 0-3.065 6.076 4.767 4.767 0 0 0 2.45 2.761h.003zM30.721 155.509c2.115 1.563 11.085 2.271 11.085 2.271s-3.302-8.367-5.417-9.933a4.755 4.755 0 0 0-3.55-.908 4.773 4.773 0 0 0-3.94 3.573 4.765 4.765 0 0 0 1.822 4.997zM45.454 118.346c-1.887 1.833-10.672 3.74-10.672 3.74s2.153-8.733 4.04-10.569a4.766 4.766 0 0 1 6.64 6.834l-.008-.005zM50.442 140.384c-2.35 1.185-11.307.367-11.307.367s4.668-7.691 7.019-8.875a4.784 4.784 0 0 1 1.804-.535 4.763 4.763 0 0 1 4.936 6.283 4.764 4.764 0 0 1-2.45 2.76h-.002zM52.352 162.471c-2.115 1.564-11.084 2.271-11.084 2.271s3.301-8.367 5.416-9.933a4.772 4.772 0 0 1 3.551-.908 4.774 4.774 0 0 1 3.145 1.882 4.775 4.775 0 0 1 .879 3.558 4.763 4.763 0 0 1-1.907 3.13z"/>
    <path fill="#BDF3E4" d="M33.757 97.236c0 2.633 4.765 10.254 4.765 10.254s4.766-7.631 4.766-10.254a4.766 4.766 0 1 0-9.529 0h-.002zM25.871 111.812c1.43 2.21 9.578 6.024 9.578 6.024s-.15-8.995-1.58-11.205a4.766 4.766 0 0 0-7.998 5.178v.003zM26.218 136.721c2.35 1.184 11.307.367 11.307.367s-4.668-7.691-7.019-8.875a4.748 4.748 0 0 0-3.676-.329 4.763 4.763 0 0 0-3.065 6.076 4.767 4.767 0 0 0 2.45 2.761h.003zM30.721 155.509c2.115 1.563 11.085 2.271 11.085 2.271s-3.302-8.367-5.417-9.933a4.755 4.755 0 0 0-3.55-.908 4.773 4.773 0 0 0-3.94 3.573 4.765 4.765 0 0 0 1.822 4.997zM45.454 118.346c-1.887 1.833-10.672 3.74-10.672 3.74s2.153-8.733 4.04-10.569a4.766 4.766 0 0 1 6.64 6.834l-.008-.005zM50.442 140.384c-2.35 1.185-11.307.367-11.307.367s4.668-7.691 7.019-8.875a4.784 4.784 0 0 1 1.804-.535 4.763 4.763 0 0 1 4.936 6.283 4.764 4.764 0 0 1-2.45 2.76h-.002zM52.352 162.471c-2.115 1.564-11.084 2.271-11.084 2.271s3.301-8.367 5.416-9.933a4.772 4.772 0 0 1 3.551-.908 4.774 4.774 0 0 1 3.145 1.882 4.775 4.775 0 0 1 .879 3.558 4.763 4.763 0 0 1-1.907 3.13z" opacity=".25"/>
    <path fill="#EC8998" d="M205.103 90.91h-2.389v-4.642c0-5.238-4.177-9.592-9.414-9.672a9.578 9.578 0 0 0-6.824 2.758 9.557 9.557 0 0 0-2.849 6.785v4.77h-2.385a3.99 3.99 0 0 0-3.977 3.977v19.085a3.988 3.988 0 0 0 3.977 3.977h23.861a3.986 3.986 0 0 0 3.975-3.977V94.886a3.987 3.987 0 0 0-3.975-3.977zm-10.537 12.406v6.836a1.426 1.426 0 0 1-1.323 1.432 1.41 1.41 0 0 1-1.028-.385 1.388 1.388 0 0 1-.432-1.009v-6.878a3.171 3.171 0 0 1-1.702-3.567 3.176 3.176 0 0 1 6.187 0 3.177 3.177 0 0 1-1.702 3.567v.004zm5.368-12.407H186.41v-4.77a6.762 6.762 0 0 1 6.759-6.76 6.76 6.76 0 0 1 6.76 6.76l.005 4.77z"/>
    <path fill="#8CACF6" d="M119.938 100.368c8.309-11.331 4.95-9.47 2.266-15.562l-7.932-5.288c-3.626 6.648-5.364 10.652-5.968 9.065 0 0-8.485-22.142-6.288-29.025 2.196-6.883-6.166-8.268-6.166-8.268s-17.653-11.26-19.425-9.015C74.653 44.52 85.639 59.59 93.27 60.86c0 0 1.31 6.368 1.225 10.894-.333 11.352 3.534 35.867 14.714 35.867 1.864.101 7.026-3.022 10.728-7.252z"/>
    <path fill="url(#b)" d="M129.281 56.533c-9.8 2.469-15.691 18.926-19.668 29.337l13.573 10.872 7.025-9.82c-1.73-5.012-2.003-21.333-.93-30.389z"/>
    <defs>
        <linearGradient id="a" x1="193.115" x2="193.115" y1="-29.019" y2="100.419" gradientUnits="userSpaceOnUse">
            <stop stop-color="#C9E0FF"/>
            <stop offset="1" stop-color="#E8E8E8"/>
        </linearGradient>
        <linearGradient id="b" x1="130.513" x2="108.153" y1="84.504" y2="89.641" gradientUnits="userSpaceOnUse">
            <stop stop-color="#7BDFC3"/>
            <stop offset="1" stop-color="#4CC1BE"/>
        </linearGradient>
    </defs>
</svg>
