<svg xmlns="http://www.w3.org/2000/svg" width="511" height="231" fill="none" viewBox="0 0 511 231">
    <g fill="#EC8998" style="mix-blend-mode:multiply">
        <path d="M356.497 60.469c5.163 0 9.761 2.056 13.215 5.407 1.31 1.758 4.804 5.396 8.293 5.888 4.361.615 10.083 1.496 13.429 5.976 1.703 2.608 2.57 5.52 2.523 8.47 0 7.658-5.494 13.861-12.257 13.861a11.028 11.028 0 0 1-4.223-.84 21.176 21.176 0 0 0-7.323-1.411 21.356 21.356 0 0 0-7.385 1.18 18.691 18.691 0 0 1-6.303 1.082c-2.171 0-4.318-.369-6.303-1.082a21.284 21.284 0 0 0-7.448-1.207c-2.562.04-5.082.53-7.385 1.439-1.316.56-2.78.856-4.268.861-6.772 0-12.256-6.196-12.256-13.862s5.484-13.87 12.256-13.87h.322c1.992.055 3.966-.318 5.721-1.08 1.755-.764 3.229-1.889 4.273-3.262 3.489-4.597 8.991-7.55 15.119-7.55z" opacity=".1"/>
        <path d="M373.111 98.008c-3.537-.542-7.194-.22-10.503.927a18.622 18.622 0 0 1-6.303 1.086c-2.172 0-4.319-.37-6.303-1.086a21.332 21.332 0 0 0-7.449-1.2 21.148 21.148 0 0 0-7.384 1.439c-1.316.561-2.78.857-4.268.861-6.012 0-11.022-4.9-12.06-11.364 1.201-.71 2.222-1.6 3.006-2.62 3.508-4.612 8.992-7.587 15.138-7.587 6.146 0 11.523 2.896 15.048 7.463 1.052 1.378 2.525 2.513 4.277 3.295 1.752.783 3.724 1.186 5.725 1.171h.152c4.76-.007 8.911 3.099 10.924 7.615z" opacity=".1"/>
    </g>
    <path fill="url(#a)" d="M131.82 202h25.74v-33.22h19.58v-22.66h-19.58V55.26h-35.42L61.86 148.1v20.68h69.96V202zm0-123.64v67.76H87.16l44.66-67.76zm64.917 50.38c0 36.96 17.6 75.9 58.74 75.9s58.74-38.94 58.74-75.9c0-36.96-17.6-75.68-58.74-75.68s-58.74 38.72-58.74 75.68zm91.3 0c0 27.94-8.58 53.02-32.56 53.02-23.98 0-32.56-25.08-32.56-53.02 0-27.94 8.58-52.8 32.56-52.8 23.98 0 32.56 24.86 32.56 52.8zM403.803 202h25.74v-33.22h19.58v-22.66h-19.58V55.26h-35.42l-60.28 92.84v20.68h69.96V202zm0-123.64v67.76h-44.66l44.66-67.76z"/>
    <g fill="#EC8998" style="mix-blend-mode:multiply">
        <path d="M450.766 93.188c-6.045 0-11.429 2.407-15.473 6.332-1.535 2.058-5.626 6.318-9.711 6.894-5.107.72-11.806 1.752-15.724 6.998-1.995 3.053-3.01 6.463-2.954 9.917 0 8.967 6.432 16.231 14.351 16.231a12.93 12.93 0 0 0 4.945-.983c2.678-1.043 5.603-1.606 8.575-1.653a25.005 25.005 0 0 1 8.647 1.381 21.872 21.872 0 0 0 7.38 1.267c2.543 0 5.057-.431 7.381-1.267a24.937 24.937 0 0 1 8.721-1.413c2.999.047 5.95.622 8.647 1.685a12.93 12.93 0 0 0 4.997 1.008c7.931 0 14.352-7.255 14.352-16.231 0-8.976-6.421-16.24-14.352-16.24h-.377c-2.331.064-4.643-.373-6.698-1.266-2.055-.893-3.782-2.211-5.003-3.819-4.086-5.383-10.528-8.84-17.704-8.84z" opacity=".1"/>
        <path d="M431.312 137.145c4.142-.636 8.424-.258 12.299 1.084a21.789 21.789 0 0 0 7.38 1.272c2.543 0 5.058-.433 7.38-1.272a24.977 24.977 0 0 1 8.723-1.405c2.999.048 5.949.623 8.646 1.685a12.886 12.886 0 0 0 4.997 1.009c7.04 0 12.906-5.738 14.121-13.307-1.406-.831-2.601-1.872-3.52-3.069-4.106-5.399-10.528-8.882-17.725-8.882-7.197 0-13.492 3.39-17.62 8.738-1.231 1.614-2.956 2.943-5.008 3.859-2.051.916-4.361 1.388-6.704 1.371h-.178c-5.573-.009-10.434 3.628-12.791 8.917z" opacity=".1"/>
    </g>
    <g fill="#EC8998" style="mix-blend-mode:multiply">
        <path d="M76.904 77.41c-6.878 0-13.006 2.738-17.607 7.204-1.746 2.342-6.401 7.19-11.05 7.845-5.812.82-13.435 1.994-17.893 7.963-2.27 3.475-3.426 7.355-3.362 11.285 0 10.204 7.32 18.47 16.331 18.47a14.689 14.689 0 0 0 5.627-1.119c3.048-1.186 6.375-1.828 9.757-1.881 3.382-.053 6.738.483 9.84 1.573a24.917 24.917 0 0 0 8.399 1.441c2.893 0 5.754-.491 8.398-1.441 3.124-1.113 6.51-1.662 9.924-1.609 3.413.054 6.771.708 9.84 1.917a14.704 14.704 0 0 0 5.686 1.148c9.024 0 16.332-8.256 16.332-18.47 0-10.214-7.308-18.48-16.332-18.48h-.429c-2.653.073-5.283-.425-7.622-1.441-2.339-1.017-4.303-2.516-5.693-4.346-4.65-6.125-11.98-10.06-20.146-10.06z" opacity=".1"/>
        <path d="M54.767 127.428c4.713-.723 9.585-.293 13.995 1.235a24.815 24.815 0 0 0 8.398 1.447c2.894 0 5.755-.493 8.398-1.447 3.126-1.109 6.513-1.655 9.926-1.6 3.413.055 6.77.709 9.839 1.918a14.66 14.66 0 0 0 5.686 1.148c8.011 0 14.686-6.53 16.069-15.143-1.6-.945-2.96-2.13-4.005-3.491-4.673-6.144-11.981-10.108-20.17-10.108-8.19 0-15.354 3.858-20.05 9.944-1.402 1.835-3.364 3.348-5.7 4.39-2.334 1.043-4.962 1.58-7.628 1.561h-.203c-6.342-.01-11.873 4.128-14.555 10.146z" opacity=".1"/>
    </g>
    <path fill="#8CACF6" fill-rule="evenodd" d="M219.228 139.038l.069-1.76-11.542-12.553-4.58 4.53 8.696-37.247c1.637-1.856 7.705-8.76 7.934-9.603.107-.394-.039-.576-.039-.576-.156-.195-.486-.168-.625-.158-.94.075-2.186 1.453-2.468 1.772.334-.745.762-1.854 1.225-3.212.577-1.688 1.08-3.537.787-4.185-.584-1.298-6.683-5.192-8.501-.778-1.817 4.411-2.595 8.434-3.244 10.512a95.512 95.512 0 0 1-.574 1.782c-2.745 8.177-9.412 23.687-13.26 34.524-1.516 4.269-2.909 7.809-3.946 12.688-2.048 9.646-.684 13.112.737 15.084.53.736 1.825 2.533 4.086 3.211 3.213.962 6.229-.978 12.111-4.961a883.171 883.171 0 0 0 13.134-9.07z" clip-rule="evenodd"/>
    <path fill="url(#b)" d="M230.297 104.923c-6.325 20.615-6.069 38.614-6.069 38.614.152 11.227 4.112 27.734 16.31 33.985 3.591 2.656 13.746 6.964 25.641 2.959 6.221-2.352 7.308-4.571 8.446-5.481 5.5-7.75 7.625-8.125 9.837-23.498 2.788-19.383 6.524-36.868 6.524-36.868.524-4.262-3.66-7.926-6.676-10.469-5.948-2.367-25.489-5.032-32.772-5.462l-21.241 6.22z"/>
    <path fill="url(#c)" d="M219.145 112.51c8.573-7.662 13.124-7.814 13.124-7.814l-5.689 15.779a116.11 116.11 0 0 0-1.897 14.565l-5.604 4.125-11.324-14.438s2.503-4.273 11.39-12.217z"/>
    <path fill="#8CACF6" d="M260.564 99.25v3.444c-.834 3.74-3.801 6.551-7.309 7.021-4.251.568-8.582-2.4-9.703-7.045 1.727-8.519 1.5-9.808 1.5-9.808l12.934-5.614 2.578 12.002z"/>
    <path fill="#769BF0" d="M257.303 84.517c-11.758 5.69-10.924 6.372-12.242 8.351 3.245 1.303 11.711-.69 13.532-2.756l-1.29-5.595z"/>
    <path fill="#8CACF6" d="M261.855 73.593c0 9.552-8.345 19.724-18.207 19.344-10.132-.39-12.061-8.73-12.061-18.282 0-9.553 5.707-17.903 14.337-17.903 8.631 0 15.931 7.288 15.931 16.84z"/>
    <path fill="#1C4178" d="M258.593 49.469s13.398-.304 16.386 14.186c3.034 14.717-13.503 21.165-17.448 21.924.971-3.399.784-5.235.455-6.676 0 0 1.31.29 2.239-2.68.688-2.192 1.553-5.397-.38-6.202-1.363-.568-2.769.234-3.228 2.541l-.983-3.976s-1.896-5.993-8.193-2.504c-6.722 5.878-12.972-.834-12.972-.834-1.669 2.048-1.89 3.555-1.517 5.234-3.755-1.486-7.812-5.902-6.372-13.579.455-2.427 2.882-8.041 9.786-8.269 0 0 13.2-13.275 22.227.835z"/>
    <path fill="#FFD560" fill-rule="evenodd" d="M194.517 83.942l23.55-3.711a6.112 6.112 0 0 0 0-12.077l-23.55-3.713v19.501z" clip-rule="evenodd"/>
    <path fill="#CFE1F9" stroke="#F0B616" stroke-width="1.2" d="M194.602 83.066c-1.869 0-3.502-1.068-4.645-2.677-1.144-1.611-1.832-3.806-1.832-6.201 0-2.396.688-4.591 1.832-6.202 1.142-1.61 2.776-2.678 4.645-2.678 1.869 0 3.502 1.068 4.645 2.678 1.144 1.611 1.832 3.806 1.832 6.201 0 2.397-.688 4.59-1.832 6.202-1.143 1.61-2.776 2.677-4.645 2.677z"/>
    <path fill="#FFD560" fill-rule="evenodd" d="M210.687 83.942l28.11-3.711c3.548-.468 6.161-3.029 6.161-6.038 0-3.01-2.613-5.57-6.161-6.04l-28.11-3.712v19.501z" clip-rule="evenodd"/>
    <path fill="#CFE1F9" stroke="#F0B616" stroke-width="1.2" d="M210.344 83.066c-1.869 0-3.503-1.068-4.646-2.677-1.143-1.611-1.831-3.806-1.831-6.201 0-2.396.688-4.591 1.831-6.202 1.143-1.61 2.777-2.678 4.646-2.678 1.868 0 3.502 1.068 4.645 2.678 1.143 1.611 1.832 3.806 1.832 6.201 0 2.397-.689 4.59-1.832 6.202-1.143 1.61-2.777 2.677-4.645 2.677z"/>
    <path fill="url(#d)" d="M216.253 74.194c0 4.576-2.634 8.287-5.883 8.287-1.383 0-3.439-.828-4.724-3.316l9.007-10.664c.533.762 1.6 2.969 1.6 5.692z"/>
    <path fill="url(#e)" d="M200.519 74.194c0 4.576-2.634 8.287-5.883 8.287-1.383 0-3.439-.828-4.724-3.316l9.007-10.664c.534.762 1.6 2.969 1.6 5.692z"/>
    <path fill="#F78E9D" fill-rule="evenodd" d="M265.225 138.99l-11.831-13.267s16.192-17.166 19.191-19.308c3-2.143 10.785-5.572 15.785 1.071 1.899 2.523 2.859 4.678 2.786 6.826-.128 3.795-2.63 6.683-9 12.029a189.051 189.051 0 0 1-16.931 12.649z" clip-rule="evenodd"/>
    <path fill="#8CACF6" fill-rule="evenodd" d="M265.231 138.985s-21.798 16.794-24.376 18.54c-2.579 1.748-5.823 3.495-9.317.916-3.494-2.579-3.743-3.577-4.16-17.553 0 0-1.304-48.188-1.55-54.124-.694-2.745-1.562-6.713-1.916-10.73-.091-1.025-.184-2.46.717-3.538.999-1.196 2.746-1.38 3.471-1.456.735-.078 1.65-.173 2.579.242 2.182.977 2.52 3.93 2.547 4.19l.22 1.984s1.653-4.189 2.646-3.417c.991.772 0 2.865-.993 5.951-.991 3.086-2.535 6.834-2.425 8.597.111 1.764 8.157 48.828 8.157 48.828l12.57-11.7 11.83 13.27z" clip-rule="evenodd"/>
    <defs>
        <linearGradient id="a" x1="255.5" x2="255.5" y2="157.011" gradientUnits="userSpaceOnUse">
            <stop stop-color="#C9E0FF"/>
            <stop offset="1" stop-color="#E8E8E8"/>
        </linearGradient>
        <linearGradient id="b" x1="249.701" x2="263.146" y1="105.525" y2="169.083" gradientUnits="userSpaceOnUse">
            <stop stop-color="#F1ABB5"/>
            <stop offset="1" stop-color="#F68D9C"/>
        </linearGradient>
        <linearGradient id="c" x1="217.103" x2="223.29" y1="107.515" y2="133.483" gradientUnits="userSpaceOnUse">
            <stop stop-color="#F1ABB5"/>
            <stop offset="1" stop-color="#F68D9C"/>
        </linearGradient>
        <linearGradient id="d" x1="218.181" x2="209.411" y1="69.146" y2="82.3" gradientUnits="userSpaceOnUse">
            <stop stop-color="#fff" stop-opacity=".59"/>
            <stop offset="1" stop-color="#fff" stop-opacity="0"/>
        </linearGradient>
        <linearGradient id="e" x1="202.447" x2="193.677" y1="69.146" y2="82.3" gradientUnits="userSpaceOnUse">
            <stop stop-color="#fff" stop-opacity=".59"/>
            <stop offset="1" stop-color="#fff" stop-opacity="0"/>
        </linearGradient>
    </defs>
</svg>
