<svg xmlns="http://www.w3.org/2000/svg" xmlns:xlink="http://www.w3.org/1999/xlink" width="16" height="16" viewBox="0 0 16 16">
    <defs>
        <path id="a" d="M0 0h16v16H0z"/>
    </defs>
    <g fill="none" fill-rule="evenodd">
        <mask id="b" fill="#fff">
            <use xlink:href="#a"/>
        </mask>
        <use fill="#DB2A2A" fill-opacity="0" fill-rule="nonzero" xlink:href="#a"/>
        <g fill="#4A5F6E" fill-rule="nonzero" mask="url(#b)">
            <path d="M10.924 10.924l1.424 1.424C10.945 13.458 9.496 14 8 14c-2.832 0-5.496-1.943-8-6 1.182-1.914 2.398-3.357 3.652-4.348l1.424 1.424C4.19 5.732 3.294 6.697 2.389 8 4.302 10.753 6.17 12 8 12c.963 0 1.938-.346 2.924-1.076zm1.466-1.362c.405-.454.812-.973 1.221-1.562C11.698 5.247 9.83 4 8 4c-.344 0-.69.044-1.037.134L5.4 2.572A6.272 6.272 0 0 1 8 2c2.832 0 5.496 1.943 8 6-.719 1.165-1.45 2.155-2.196 2.975L12.39 9.562z"/>
            <path d="M5.003 7.831L1 3.828l1.414-1.414 11.314 11.314-1.414 1.414-4.145-4.145a3.002 3.002 0 0 1-3.166-3.166z"/>
        </g>
    </g>
</svg>
