<svg xmlns="http://www.w3.org/2000/svg" width="12" height="9" viewBox="0 0 22 17">
    <g fill="#192A32" fill-rule="nonzero">
        <path d="M8.526 15.526l-.469-1.782-3.23.881.47 1.782z"/>
        <path d="M5.677 7.295l-.622-2.363 2.321-.638-.94-3.546L.026 2.51l.94 3.546 2.31-.635 2.776 10.547 1.779-.486-1.253-4.76c-.996-1.107-1.78-2.241-1.777-2.365.239-.347.53-.701.876-1.062z"/>
        <path d="M12.003 13.76c2.426.084 5.238-1.684 7.56-4.887-1.916-2.967-4.46-4.461-7.23-4.558C9.56 4.218 6.92 5.532 4.8 8.357c2.093 3.357 4.775 5.317 7.202 5.402zm.39-11.162c3.333.116 6.786 1.956 9.204 6.338-2.717 4.204-6.321 6.657-9.654 6.54-3.333-.116-6.757-2.815-9.175-7.197 2.718-4.203 6.291-5.798 9.624-5.681z"/>
        <path d="M12.368 10.741a1.8 1.8 0 0 0 1.873-1.725 1.8 1.8 0 0 0-1.748-1.852 1.8 1.8 0 0 0-1.873 1.725 1.8 1.8 0 0 0 1.748 1.852zm-.063 1.789c-2-.07-3.565-1.728-3.496-3.704.07-1.976 1.746-3.52 3.746-3.45 2 .07 3.565 1.727 3.496 3.703-.069 1.976-1.746 3.52-3.746 3.451z"/>
    </g>
</svg>
