<svg width="39" height="42" viewBox="0 0 39 42" fill="none" xmlns="http://www.w3.org/2000/svg">
<path d="M26.4785 5.96384V2H22.3174H26.4785L20.2265 7.95614L16.7325 4.6278L13.5672 7.64303L12.3942 8.76049" stroke="#67D3A6" stroke-width="4" stroke-linecap="round" stroke-linejoin="round"/>
<path fill-rule="evenodd" clip-rule="evenodd" d="M0.359879 30.5784C-0.106584 31.1624 -0.12459 31.9876 0.335121 32.5777C2.26625 35.0555 7.40916 40.6209 15.8066 41.7866C24.0983 42.9373 32.5205 39.3753 37.9498 32.5772C38.4163 31.9932 38.4338 31.1674 37.974 30.5778C36.0435 28.1 30.9006 22.5342 22.5031 21.3689C14.2109 20.2177 5.78863 23.7798 0.359879 30.5784Z" fill="#ADC0FD"/>
<path fill-rule="evenodd" clip-rule="evenodd" d="M11.2675 31.5776C11.2675 27.0665 14.9247 23.4087 19.4364 23.4087C23.948 23.4087 27.6053 27.0665 27.6053 31.5776C27.6053 36.0893 23.948 39.7465 19.4364 39.7465C14.9247 39.7465 11.2675 36.0893 11.2675 31.5776Z" fill="white"/>
<path fill-rule="evenodd" clip-rule="evenodd" d="M15.2111 31.2954C15.2111 29.1173 16.9769 27.3521 19.155 27.3521C21.333 27.3521 23.0983 29.1173 23.0983 31.2954C23.0983 33.4735 21.333 35.2393 19.155 35.2393C16.9769 35.2393 15.2111 33.4735 15.2111 31.2954Z" fill="#7996F9"/>
<path d="M20.2814 29.042C20.4646 29.0885 20.6394 29.1483 20.8038 29.2204C21.0003 29.3058 21.1817 29.408 21.3455 29.5244C21.468 29.6115 21.5809 29.7064 21.6816 29.8082C21.7926 29.9205 21.8903 30.0414 21.9716 30.1687" stroke="white" stroke-linecap="round" stroke-linejoin="round"/>
<path fill-rule="evenodd" clip-rule="evenodd" d="M8.53833 16.2324L11.7732 20.0008L8.53833 16.2324Z" fill="white"/>
<path d="M8.53833 16.2324L11.7732 20.0008" stroke="#7996F9" stroke-width="2" stroke-linecap="round" stroke-linejoin="round"/>
<path fill-rule="evenodd" clip-rule="evenodd" d="M30.1326 16.2324L26.8983 20.0008L30.1326 16.2324Z" fill="white"/>
<path d="M30.1326 16.2324L26.8983 20.0008" stroke="#7996F9" stroke-width="2" stroke-linecap="round" stroke-linejoin="round"/>
<path d="M19.4098 14.6992V19.0789" stroke="#7996F9" stroke-width="2" stroke-linecap="round" stroke-linejoin="round"/>
</svg>
