<?xml version="1.0" encoding="UTF-8"?>
<svg width="200px" height="160px" viewBox="0 0 200 160" version="1.1" xmlns="http://www.w3.org/2000/svg" xmlns:xlink="http://www.w3.org/1999/xlink">
    <!-- Generator: Sketch 55 (78076) - https://sketchapp.com -->
    <title>Illustration@1x</title>
    <desc>Created with Sketch.</desc>
    <defs>
        <rect id="path-1" x="0" y="0" width="200" height="160"></rect>
        <circle id="path-3" cx="66" cy="66" r="66"></circle>
        <linearGradient x1="100%" y1="49.1111111%" x2="0%" y2="50.8888889%" id="linearGradient-5">
            <stop stop-color="#1ACC94" offset="0%"></stop>
            <stop stop-color="#2EE3AA" offset="100%"></stop>
        </linearGradient>
        <path d="M-1.24344979e-14,0 L8,0 L8,8 C3.581722,8 -1.24344979e-14,4.418278 -1.24344979e-14,0 Z" id="path-6"></path>
        <linearGradient x1="50%" y1="0%" x2="50%" y2="100%" id="linearGradient-8">
            <stop stop-color="#92F1D3" offset="0%"></stop>
            <stop stop-color="#2EE3AA" offset="100%"></stop>
        </linearGradient>
        <linearGradient x1="72.0572917%" y1="0%" x2="72.0572917%" y2="100%" id="linearGradient-9">
            <stop stop-color="#1ACC94" offset="0%"></stop>
            <stop stop-color="#2EE3AA" offset="100%"></stop>
        </linearGradient>
        <path d="M-1.24344979e-14,0 L8,0 L8,8 C3.581722,8 -1.24344979e-14,4.418278 -1.24344979e-14,0 Z" id="path-10"></path>
        <circle id="path-12" cx="18" cy="18" r="18"></circle>
        <linearGradient x1="93.9453125%" y1="0%" x2="6.0546875%" y2="100%" id="linearGradient-14">
            <stop stop-color="#1ACC94" offset="0%"></stop>
            <stop stop-color="#2EE3AA" offset="100%"></stop>
        </linearGradient>
        <path d="M-1.24344979e-14,0 L8,0 L8,8 C3.581722,8 -1.24344979e-14,4.418278 -1.24344979e-14,0 Z" id="path-15"></path>
        <linearGradient x1="100%" y1="49.4260204%" x2="0%" y2="51.4203753%" id="linearGradient-17">
            <stop stop-color="#FFE380" offset="0%"></stop>
            <stop stop-color="#FFD560" offset="100%"></stop>
        </linearGradient>
        <linearGradient x1="0%" y1="22.4161843%" x2="100%" y2="77.5838157%" id="linearGradient-18">
            <stop stop-color="#92F1D3" offset="0%"></stop>
            <stop stop-color="#2EE3AA" offset="100%"></stop>
        </linearGradient>
        <linearGradient x1="143.582203%" y1="103.478219%" x2="-4.09963516%" y2="11.2305938%" id="linearGradient-19">
            <stop stop-color="#1ACC94" offset="0%"></stop>
            <stop stop-color="#1ACC94" stop-opacity="0" offset="100%"></stop>
        </linearGradient>
        <path d="M9.09090909,8.93253456 C9.09090909,10.8569585 7.83972125,12.1880184 5.55907507,12.4606452 L5.55907507,13.041001 C5.55907507,13.5264587 5.16553379,13.92 4.68007602,13.92 L4.68007602,13.92 C4.19461825,13.92 3.80107697,13.5264587 3.80107697,13.041001 L3.80107697,12.4606452 C2.12226798,12.3002765 0.902755781,11.6908756 0,10.8088479 L1.44124169,8.74009217 C2.20145708,9.50986175 3.37345581,10.1513364 4.8146975,10.1513364 C5.74912892,10.1513364 6.31929047,9.75041475 6.31929047,9.23723502 C6.31929047,8.6278341 5.63826417,8.38728111 4.5137789,8.14672811 C2.77161863,7.79391705 0.332594235,7.34488479 0.332594235,4.81105991 C0.332594235,3.19133641 1.56794425,1.7640553 3.80107697,1.50746544 L3.80107697,0.87899905 C3.80107697,0.393541279 4.19461825,8.91771457e-17 4.68007602,0 L4.68007602,0 C5.16553379,-8.91771457e-17 5.55907507,0.393541279 5.55907507,0.87899905 L5.55907507,1.5235023 C6.82610073,1.68387097 7.950586,2.18101382 8.83750396,2.95078341 L7.34874881,4.92331797 C6.46183085,4.18562212 5.30566994,3.81677419 4.37123852,3.81677419 C3.46848274,3.81677419 3.12005068,4.18562212 3.12005068,4.65069124 C3.12005068,5.21198157 3.76940133,5.40442396 4.94140006,5.62894009 C6.68356034,5.99778802 9.09090909,6.51096774 9.09090909,8.93253456 Z" id="path-20"></path>
        <linearGradient x1="0%" y1="24.4702003%" x2="-9.54589844%" y2="207.292487%" id="linearGradient-22">
            <stop stop-color="#92F1D3" offset="0%"></stop>
            <stop stop-color="#2EE3AA" offset="100%"></stop>
        </linearGradient>
        <linearGradient x1="25.5188052%" y1="0%" x2="74.4811948%" y2="100%" id="linearGradient-23">
            <stop stop-color="#1ACC94" offset="0%"></stop>
            <stop stop-color="#2EE3AA" offset="100%"></stop>
        </linearGradient>
    </defs>
    <g id="Illustration" stroke="none" stroke-width="1" fill="none" fill-rule="evenodd">
        <g>
            <mask id="mask-2" fill="white">
                <use xlink:href="#path-1"></use>
            </mask>
            <use id="Mask" fill-opacity="0" fill="#FFFFFF" xlink:href="#path-1"></use>
            <g id="Group" mask="url(#mask-2)">
                <g transform="translate(34.000000, 10.000000)">
                    <g id="Rectangle" stroke="none" stroke-width="1" fill="none" fill-rule="evenodd">
                        <mask id="mask-4" fill="white">
                            <use xlink:href="#path-3"></use>
                        </mask>
                        <use id="Mask" fill="#EEF2F5" xlink:href="#path-3"></use>
                        <rect fill-opacity="0.2" fill="#AFC7D1" fill-rule="nonzero" mask="url(#mask-4)" x="-2" y="55" width="60" height="40"></rect>
                        <rect fill-opacity="0.2" fill="#AFC7D1" fill-rule="nonzero" mask="url(#mask-4)" x="64" y="111" width="56" height="10"></rect>
                        <rect fill-opacity="0.2" fill="#AFC7D1" fill-rule="nonzero" mask="url(#mask-4)" x="120" y="55" width="20" height="56"></rect>
                    </g>
                    <path d="M58,51 L120,51 C120,93.6666667 120,115 120,115 C120,115 119.389732,123 112,123 C107.073512,123 89.0735117,123 58,123 L58,51 Z" id="Combined-Shape" stroke="none" fill="#2EE3AA" fill-rule="nonzero"></path>
                    <g id="Group-23" stroke="none" stroke-width="1" fill="none" fill-rule="evenodd" transform="translate(64.000000, 52.797204)">
                        <rect id="Rectangle" fill="#FFFFFF" fill-rule="nonzero" x="0" y="0" width="32" height="3" rx="1.5"></rect>
                        <rect id="Rectangle" fill="#FFFFFF" fill-rule="nonzero" x="0" y="6" width="28" height="3" rx="1.5"></rect>
                    </g>
                    <rect id="Rectangle" stroke="none" fill="#FFFFFF" fill-rule="nonzero" x="64" y="64.7972042" width="28" height="3" rx="1.5"></rect>
                    <rect id="Rectangle" stroke="none" fill="#FFFFFF" fill-rule="nonzero" x="64" y="92" width="14" height="3" rx="1.5"></rect>
                    <rect id="Rectangle" stroke="none" fill="#FFFFFF" fill-rule="nonzero" x="64" y="98" width="14" height="3" rx="1.5"></rect>
                    <rect id="Rectangle" stroke="none" fill="#FFD560" fill-rule="nonzero" x="64" y="107" width="20" height="3" rx="1.5"></rect>
                    <rect id="Rectangle" stroke="none" fill="#FFFFFF" fill-rule="nonzero" x="64" y="80" width="28" height="3" rx="1.5"></rect>
                    <rect id="Rectangle" stroke="none" fill="#FFFFFF" fill-rule="nonzero" x="64" y="86" width="28" height="3" rx="1.5"></rect>
                    <path d="M24.8457323,104.151996 C41.0683648,107.437047 49.3952915,99.5896665 50.6336153,96.6956134 C52.1910682,93.0557324 41.8474903,91.5847804 47.2794505,97.9067632 C48.6780357,99.5345056 54.279456,103.782841 61.6179696,98.395557" id="Path-7" stroke="#1ACC94" stroke-width="2" fill="none" stroke-linecap="round" stroke-linejoin="round" transform="translate(43.231851, 99.253093) scale(1, -1) rotate(-15.000000) translate(-43.231851, -99.253093) "></path>
                    <g id="Group-18" stroke="none" stroke-width="1" fill="none" fill-rule="evenodd" transform="translate(44.000000, 115.000000)">
                        <g id="Group-19" transform="translate(-0.000000, 0.000000)">
                            <path d="M60.9411765,0 C60.9411765,4.418278 64.1015194,8 68,8 L8,8 L8,0 L60.9411765,0 Z" id="Path" fill="url(#linearGradient-5)" fill-rule="nonzero"></path>
                            <mask id="mask-7" fill="white">
                                <use xlink:href="#path-6"></use>
                            </mask>
                            <use id="Combined-Shape" fill="#2EE3AA" fill-rule="nonzero" xlink:href="#path-6"></use>
                        </g>
                    </g>
                    <path d="M88,31 L150,31 C150,65.6666667 150,83 150,83 C150,83 149.389732,91 142,91 C138.955104,91 133.788437,91 126.5,91 L127.5,43 L88,43.1611652 L88,31 Z" id="Combined-Shape" stroke="none" fill="url(#linearGradient-8)" fill-rule="nonzero"></path>
                    <path d="M127.5,43 L127.5,43 C131.642136,43 135,46.3578644 135,50.5 L135,91 L120,91 L120,50.5 C120,46.3578644 123.357864,43 127.5,43 Z" id="Rectangle" stroke="none" fill="url(#linearGradient-9)" fill-rule="nonzero"></path>
                    <g id="Group-18" stroke="none" stroke-width="1" fill="none" fill-rule="evenodd" transform="translate(92.500000, 47.000000) scale(1, -1) translate(-92.500000, -47.000000) translate(58.000000, 43.000000)">
                        <g id="Group-19" transform="translate(-0.000000, 0.000000)">
                            <g id="Group-21" transform="translate(-0.000000, 0.000000)">
                                <path d="M62,0 C62,5.60314941 66.3986816,8 69,8 L8,8 L8,0 L62,0 Z" id="Path" fill="#2EE3AA" fill-rule="nonzero"></path>
                                <mask id="mask-11" fill="white">
                                    <use xlink:href="#path-10"></use>
                                </mask>
                                <use id="Combined-Shape" fill="#2EE3AA" fill-rule="nonzero" xlink:href="#path-10"></use>
                            </g>
                        </g>
                    </g>
                    <g id="Group-20" stroke="none" stroke-width="1" fill="none" fill-rule="evenodd" transform="translate(72.426407, 54.797204)">
                        <g id="Group-4" transform="translate(43.000000, 42.426407) rotate(45.000000) translate(-43.000000, -42.426407) translate(7.000000, 18.426407)" fill-rule="nonzero">
                            <g id="Group-2">
                                <path d="M44,20 L68,20 C70.209139,20 72,21.790861 72,24 L72,24 C72,26.209139 70.209139,28 68,28 L44,28 L44,20 Z" id="Rectangle" fill="#2F88EC"></path>
                                <circle id="Oval" fill="#2F88EC" cx="24" cy="24" r="24"></circle>
                                <circle id="Oval" fill="#FFFFFF" cx="24" cy="24" r="18"></circle>
                            </g>
                        </g>
                        <g id="Group-14" transform="translate(16.573593, 16.000000)">
                            <mask id="mask-13" fill="white">
                                <use xlink:href="#path-12"></use>
                            </mask>
                            <use id="Mask" fill="#FFFFFF" fill-rule="nonzero" xlink:href="#path-12"></use>
                            <g mask="url(#mask-13)" fill="#92F1D3" fill-rule="nonzero" id="Rectangle">
                                <g transform="translate(-3.000000, 9.000000)">
                                    <rect x="0" y="0" width="28" height="3" rx="1.5"></rect>
                                    <rect x="0" y="6" width="28" height="3" rx="1.5"></rect>
                                    <path d="M11.5,12 L26.5,12 C27.3284271,12 28,12.6715729 28,13.5 L28,13.5 C28,14.3284271 27.3284271,15 26.5,15 L11.5,15 C10.6715729,15 10,14.3284271 10,13.5 L10,13.5 C10,12.6715729 10.6715729,12 11.5,12 Z"></path>
                                </g>
                            </g>
                        </g>
                        <path d="M24.0028707,48.5707224 C19.5007093,45.2988602 16.5735931,39.9912624 16.5735931,34 C16.5735931,24.0588745 24.6324676,16 34.5735931,16 C40.5648555,16 45.8724533,18.9271162 49.1443155,23.4292776 C46.1761729,21.2722351 42.5234562,20 38.5735931,20 C28.6324676,20 20.5735931,28.0588745 20.5735931,38 C20.5735931,41.9498631 21.8458282,45.6025798 24.0028707,48.5707224 L24.0028707,48.5707224 Z" id="Path" fill="#EEF2F5" fill-rule="nonzero" style="mix-blend-mode: darken;"></path>
                    </g>
                    <g id="Group-22" stroke="none" stroke-width="1" fill="none" fill-rule="evenodd" transform="translate(88.000000, 23.000000)">
                        <path d="M69.5,0 L69.5,0 C73.6421356,-7.6089797e-16 77,3.35786438 77,7.5 L77,16 L62,16 L62,7.5 C62,3.35786438 65.3578644,7.6089797e-16 69.5,0 Z" id="Rectangle" fill="url(#linearGradient-14)" fill-rule="nonzero"></path>
                        <g id="Group-21" transform="translate(34.500000, 4.000000) scale(1, -1) translate(-34.500000, -4.000000) translate(0.000000, 0.000000)">
                            <path d="M62,0 C62,4.418278 66.1052246,8 69,8 L8,8 L8,0 L62,0 Z" id="Path" fill="#92F1D3" fill-rule="nonzero"></path>
                            <mask id="mask-16" fill="white">
                                <use xlink:href="#path-15"></use>
                            </mask>
                            <use id="Combined-Shape" fill="#92F1D3" fill-rule="nonzero" xlink:href="#path-15"></use>
                        </g>
                    </g>
                    <g id="Group-23" stroke="none" stroke-width="1" fill="none" fill-rule="evenodd" transform="translate(95.000000, 31.000000)">
                        <rect id="Rectangle" fill="#2EE3AA" fill-rule="nonzero" x="0" y="0" width="28" height="3" rx="1.5"></rect>
                        <rect id="Rectangle" fill="#2EE3AA" fill-rule="nonzero" x="0" y="6" width="16" height="3" rx="1.5"></rect>
                    </g>
                    <g id="Group-12" stroke="none" stroke-width="1" fill="none" fill-rule="evenodd" transform="translate(101.202796, 48.000000) scale(-1, -1) rotate(-45.000000) translate(-101.202796, -48.000000) translate(82.702796, 45.000000)">
                        <rect id="Rectangle-Copy" fill="#FFE380" fill-rule="nonzero" x="3" y="0" width="28" height="6"></rect>
                        <path d="M1,0 L3,0 L3,6 L1,6 C0.44771525,6 6.76353751e-17,5.55228475 0,5 L0,1 C-6.76353751e-17,0.44771525 0.44771525,1.01453063e-16 1,0 Z" id="Rectangle-Copy-2" fill="#4A90E2" fill-rule="nonzero"></path>
                        <rect id="Rectangle-Copy-3" fill="url(#linearGradient-17)" fill-rule="nonzero" x="3" y="0" width="28" height="3"></rect>
                        <polygon id="Rectangle" fill="#FFFFFF" fill-rule="nonzero" points="31 0 37 3 31 6"></polygon>
                        <polygon id="Path" fill="#4A5F6E" fill-rule="nonzero" points="34 1.5 37 3 34 4.5"></polygon>
                    </g>
                </g>
            </g>
            <g id="Group-4" mask="url(#mask-2)">
                <g transform="translate(16.000000, 75.000000)">
                    <path d="M18.3779203,20.88 C23.6809506,20.88 28.2264051,20.88 32.0142839,20.88 C48.0376079,39.3067324 53.3406382,51.6800658 47.9233748,58 C40.3980175,58 13.8324657,58 2.46882936,58 C-5.41067908,48.8075403 7.11190056,34.0232605 18.3779203,20.88 Z" id="Rectangle" fill="url(#linearGradient-18)" fill-rule="nonzero"></path>
                    <path d="M26.1363636,47.2008984 C21.3887266,50.1087312 13.4771767,53.6820996 2.40171388,57.9210039 C-5.33905151,48.7229882 7.14413033,33.985671 18.3779294,20.88 L32.0142931,20.88 C36.0419378,25.5117688 39.3922472,29.7610685 42.0652211,33.627899 C35.5124585,40.1859303 30.2028393,44.7102634 26.1363636,47.2008984 Z" id="Shape" fill="url(#linearGradient-19)" fill-rule="nonzero"></path>
                    <ellipse id="Oval-2" fill="#FFFFFF" fill-rule="evenodd" cx="25" cy="40.6" rx="13.6363636" ry="12.76"></ellipse>
                    <g id="Group" stroke-width="1" fill="none" fill-rule="evenodd" transform="translate(20.454545, 33.640000)">
                        <g>
                            <mask id="mask-21" fill="white">
                                <use xlink:href="#path-20"></use>
                            </mask>
                            <use id="$" fill="#1ACC94" xlink:href="#path-20"></use>
                        </g>
                    </g>
                    <path d="M18.2130909,16.24 L31.7869091,16.24 C33.0593732,16.24 34.0909091,17.2715359 34.0909091,18.544 L34.0909091,18.576 C34.0909091,19.8484641 33.0593732,20.88 31.7869091,20.88 L18.2130909,20.88 C16.9406268,20.88 15.9090909,19.8484641 15.9090909,18.576 L15.9090909,18.544 C15.9090909,17.2715359 16.9406268,16.24 18.2130909,16.24 Z" id="Rectangle" fill="#FFD560" fill-rule="nonzero"></path>
                    <polygon id="Rectangle" fill="url(#linearGradient-22)" fill-rule="nonzero" points="13.6363636 2.32 25 2.31589192e-13 36.3636364 2.32 31.8181818 16.24 18.1818182 16.24"></polygon>
                    <polygon id="Rectangle" fill="#92F1D3" fill-rule="nonzero" transform="translate(14.772727, 10.440000) scale(-1, 1) translate(-14.772727, -10.440000) " points="14.7727273 4.64 18.1818182 5.8 11.3636364 16.24"></polygon>
                    <polygon id="Rectangle" fill="#1ACC94" fill-rule="nonzero" points="35.2272727 4.64 38.6363636 5.8 31.8181818 16.24"></polygon>
                    <polygon id="Path" fill="url(#linearGradient-23)" fill-rule="nonzero" opacity="0.4" points="25 2.84217094e-14 36.3636364 2.32 31.8181818 16.24 25 16.24"></polygon>
                    <path d="M25.1848179,19.1450248 C25.2725001,18.5106578 25.8473581,18.0689607 26.4687992,18.1584668 C27.0902402,18.2479728 27.5229372,18.8347879 27.4352549,19.4691549 C27.4247205,19.5453698 27.4068583,19.7068858 27.3883571,19.9410616 C27.2560842,21.6152825 27.3503485,23.5055868 27.833711,25.2611623 C28.3022477,26.9628907 29.0920893,28.3213832 30.2474132,29.2477815 C30.740952,29.6435263 30.8267666,30.372755 30.4390855,30.8765594 C30.0514045,31.3803638 29.3370346,31.4679633 28.8434959,31.0722185 C27.2706069,29.810995 26.2354045,28.0304929 25.6457578,25.8888921 C25.0780336,23.8269142 24.970931,21.6791607 25.1229851,19.7545616 C25.1452579,19.4726479 25.1681697,19.265472 25.1848179,19.1450248 Z" id="Path-9" fill="#FFD560" fill-rule="nonzero"></path>
                    <path d="M27.6849262,20.0932218 C27.4839208,19.4863187 27.8029411,18.8279901 28.3974778,18.6228039 C28.9920146,18.4176176 29.6369289,18.7432735 29.8379343,19.3501766 C30.9549461,22.7228131 33.4223365,24.36 37.5,24.36 C38.1275963,24.36 38.6363636,24.8793497 38.6363636,25.52 C38.6363636,26.1606503 38.1275963,26.68 37.5,26.68 C32.4867544,26.68 29.1284316,24.451653 27.6849262,20.0932218 Z" id="Path-11" fill="#FFD560" fill-rule="nonzero"></path>
                </g>
            </g>
        </g>
    </g>
</svg>