<svg xmlns="http://www.w3.org/2000/svg" xmlns:xlink="http://www.w3.org/1999/xlink" width="279" height="140" viewBox="0 0 279 140">
    <defs>
        <path id="a" d="M.76 4.565h1.52c.42 0 .76.34.76.761v4.565c0 .42-.34.761-.76.761H.76a.76.76 0 0 1-.76-.76V5.325c0-.42.34-.76.76-.76zm.76-1.522A1.521 1.521 0 1 1 1.522.001a1.521 1.521 0 0 1-.002 3.042z"/>
    </defs>
    <g fill="none" fill-rule="evenodd">
        <rect width="228.065" height="91.304" x="33.45" y="48.696" fill="#2F88EC" rx="4.565"/>
        <path fill="#2FB7EC" d="M266.01 7.609h9.751a3.043 3.043 0 0 1 3.025 3.383l-11.41 101.535a6.087 6.087 0 0 1-6.048 5.408h-8.936L266.01 7.609z"/>
        <path fill="#FFF" d="M265.388 1.522H87.68c-1.344 0-2.62 1.09-2.848 2.435l-12.576 116.87c-.229 1.344.676 2.434 2.02 2.434h175.428c1.345 0 2.62-1.09 2.848-2.435L267.41 3.956c.228-1.344-.676-2.434-2.02-2.434z"/>
        <path fill="#FFF" d="M238.708 86.74h16.725v3.042h-16.725z"/>
        <g fill="#2FE6EC">
            <path d="M246.31 86.74h-9.122v3.042h9.123zM256.954 86.74h-7.602v3.042h7.602z"/>
        </g>
        <path fill="#CEF2FD" d="M123.467 41.087H91.384c-1.02 0-1.882.76-2.008 1.774l-4.038 32.475a2.023 2.023 0 0 0 2.008 2.273h32.083c1.02 0 1.882-.76 2.008-1.774l4.038-32.475a2.023 2.023 0 0 0-2.008-2.273zM166.677 41.087h-32.083c-1.02 0-1.882.76-2.008 1.774l-4.038 32.475a2.023 2.023 0 0 0 2.008 2.273h32.083c1.02 0 1.882-.76 2.008-1.774l4.038-32.475a2.023 2.023 0 0 0-2.008-2.273zM209.887 41.087h-32.083c-1.021 0-1.882.76-2.008 1.774l-4.038 32.475a2.023 2.023 0 0 0 2.007 2.273h32.084c1.02 0 1.881-.76 2.007-1.774l4.039-32.475a2.023 2.023 0 0 0-2.008-2.273z"/>
        <path fill="#A7E4FB" d="M117.99 81.87H85.907c-1.021 0-1.882.76-2.008 1.773l-4.038 32.475a2.023 2.023 0 0 0 2.007 2.273h32.084c1.02 0 1.881-.76 2.007-1.773l4.039-32.475a2.023 2.023 0 0 0-2.008-2.273zM161.2 81.87h-32.083c-1.021 0-1.882.76-2.008 1.773l-4.039 32.475a2.023 2.023 0 0 0 2.008 2.273h32.083c1.021 0 1.882-.76 2.008-1.773l4.039-32.475a2.023 2.023 0 0 0-2.008-2.273zM204.41 81.87h-32.083c-1.021 0-1.882.76-2.008 1.773l-4.039 32.475a2.023 2.023 0 0 0 2.008 2.273h32.083c1.021 0 1.882-.76 2.008-1.773l4.039-32.475a2.023 2.023 0 0 0-2.008-2.273z"/>
        <g fill="#5CC9F4" transform="matrix(-1 0 0 1 113.272 51.74)">
            <path d="M.76 5.326h15.204v3.043H.76zM1.52 10.652h15.204v3.043H1.52z"/>
            <rect width="15.204" height="3.043" rx="1.522"/>
        </g>
        <g fill="#5CC9F4" transform="matrix(-1 0 0 1 107.19 93.587)">
            <path d="M.76 5.326h15.204v3.043H.76zM1.52 10.652h15.204v3.043H1.52z"/>
            <rect width="15.204" height="3.043" rx="1.522"/>
        </g>
        <path fill="#5CC9F4" d="M258.696 0H78.953c-1.363 0-2.67 1.09-2.919 2.435l-1.491 12.174c-.25 1.344.654 2.434 2.017 2.434h179.72c1.364 0 2.67-1.09 2.919-2.434l1.514-12.174C260.963 1.09 260.06 0 258.696 0z"/>
        <g fill="#FFF" transform="translate(80.284 5.478)">
            <ellipse cx="3.043" cy="3.043" rx="3.043" ry="3.043"/>
            <ellipse cx="11.563" cy="3.043" rx="3.043" ry="3.043"/>
            <ellipse cx="20.083" cy="3.043" rx="3.043" ry="3.043"/>
        </g>
        <path fill="#CEF2FD" d="M255.092 22.217H94.032c-1.233 0-2.271.921-2.418 2.145l-1.168 9.74a2.435 2.435 0 0 0 2.417 2.724h161.208a2.435 2.435 0 0 0 2.422-2.18l1.02-9.74a2.435 2.435 0 0 0-2.42-2.689z"/>
        <g fill="#8BDCFB" transform="translate(214.381 28.152)">
            <path d="M15.21 3.042V0H-.005v3.04z"/>
            <rect width="3.041" height="3.043" x="16.725" rx="1.52" transform="matrix(0 -1 -1 0 19.767 19.767)"/>
            <path d="M38.017 3.042V.002H22.8v3.04z"/>
        </g>
        <rect width="53.215" height="28.913" x=".551" fill="#2FE6EC" rx="2.283" transform="translate(27.368 48.696)"/>
        <path fill="#FFF" stroke="#2FE6EC" stroke-width="3.043" d="M24.481 56.304a.913.913 0 0 0-.913.913v24.044c0 .504.409.913.913.913h41.041a8.217 8.217 0 0 0 8.218-8.217v-16.74a.913.913 0 0 0-.913-.913H24.48z"/>
        <path fill="#FFF" d="M25.087 80.652H37.25v3.043H25.087z"/>
        <g fill="#2FE6EC">
            <path d="M28.128 80.652h-6.082v3.043h6.082zM38.77 80.652H31.17v3.043h7.602z"/>
        </g>
        <g fill="#50E3C2" transform="translate(38.709 59.241)">
            <ellipse cx="9.883" cy="9.885" fill-opacity=".2" rx="9.883" ry="9.885"/>
            <path fill-rule="nonzero" stroke="#50E3C2" stroke-width=".593" d="M10.498 13.602H9.88c-.914 0-1.658-.766-1.658-1.708a.701.701 0 0 0-.69-.712.701.701 0 0 0-.691.712c0 1.593 1.161 2.91 2.657 3.105v1.18c0 .394.309.712.69.712.381 0 .69-.318.69-.712V15a2.975 2.975 0 0 0 1.764-.888c.576-.594.893-1.381.893-2.217 0-1.728-1.363-3.133-3.039-3.133h-.616c-.914 0-1.658-.766-1.658-1.708 0-.456.174-.886.489-1.21a1.619 1.619 0 0 1 1.169-.5h.617c.913 0 1.657.767 1.657 1.71 0 .393.31.711.69.711.382 0 .691-.318.691-.711 0-1.594-1.16-2.91-2.656-3.105v-.953a.701.701 0 0 0-.69-.712.701.701 0 0 0-.691.712v.953a2.975 2.975 0 0 0-1.764.888 3.163 3.163 0 0 0-.893 2.217c0 1.727 1.364 3.132 3.04 3.132h.616c.913 0 1.657.766 1.657 1.709 0 .455-.173.885-.488 1.21a1.619 1.619 0 0 1-1.17.498z"/>
        </g>
        <g fill="#2FE6EC" transform="translate(64.619 72.283)">
            <rect width="9.883" height="2.283" rx="1.141"/>
            <rect width="2.281" height="11.413" rx="1.14"/>
        </g>
        <path stroke="#50E3C2" stroke-linecap="round" stroke-linejoin="round" stroke-width="2.283" d="M213.8 84.17c-18.575-16.732-49.375-10.987-53.124-3.457-2.494 5.01 3.239 5.012 5.78 3.457 2.542-1.556 23.796-15.228 10.326-20.514-7.02-2.754-12.193-.792-17.948 3.782-.844.67-6.581 5.23-6.581 2.788 0-2.442 6.038-8.596-4.077-7.336-4.302.536-9.932 3.211-11.17 6.105-1.558 3.64 8.786 5.111 3.354-1.21-1.399-1.629-4.3-2.262-6.344-2.915-2.155-.688-9.031-.54-14.604 2.568"/>
        <g transform="matrix(-1 0 0 1 41.812 24.348)">
            <ellipse cx="9.883" cy="9.885" fill="#50E3C2" rx="9.883" ry="9.885"/>
            <use fill="#FFF" transform="translate(8.362 4.565)" xlink:href="#a"/>
        </g>
        <g transform="translate(194.616 86.74)">
            <rect width="50.172" height="31.957" x="29.65" y="1.522" fill="#FFF" stroke="#2FE6EC" stroke-width="3.043" rx="3.043"/>
            <g transform="matrix(-1 0 0 1 57.777 7.609)">
                <rect width="53.215" height="33.478" fill="#50E3C2" rx="2.283"/>
                <rect width="48.654" height="7.609" x="9.123" y="6.087" fill="#FFF" rx="1.522"/>
            </g>
        </g>
        <g fill="#8BDCFB" transform="translate(229.586 41.087)">
            <rect width="3.041" height="3.043" rx="1.52" transform="matrix(0 -1 -1 0 3.042 3.042)"/>
            <path d="M21.293 3.043V.002H6.076v3.04z"/>
        </g>
        <rect width="24.327" height="6.087" x="44.853" y="31.196" fill="#50E3C2" rx="1.522"/>
        <rect width="12.163" height="6.087" x="72.221" y="31.196" fill="#50E3C2" rx="1.522"/>
        <g>
            <path fill="#FFF" d="M16.724 120.217H33.45v3.043H16.724z"/>
            <g fill="#2F88EC">
                <path d="M24.327 120.217h-9.123v3.043h9.123zM34.97 120.217H27.37v3.043h7.602z"/>
            </g>
            <g>
                <path fill="#FFF" d="M0 120.217h16.725v3.043H0z"/>
                <g fill="#2F88EC">
                    <path d="M7.602 120.217h-4.56v3.043h4.56zM18.245 120.217h-7.602v3.043h7.602z"/>
                </g>
            </g>
        </g>
        <g>
            <path fill="#FFF" d="M225.024 86.74h16.725v3.042h-16.725z"/>
            <g fill="#2FE6EC">
                <path d="M235.668 86.74h-12.163v3.042h12.163zM243.27 86.74h-3.802v3.042h3.801z"/>
            </g>
        </g>
        <g>
            <path fill="#FFF" d="M255.433 118.696h16.725v3.043h-16.725z"/>
            <g fill="#2FE6EC">
                <path d="M263.035 118.696h-9.123v3.043h9.123zM273.679 118.696h-7.602v3.043h7.602z"/>
            </g>
        </g>
    </g>
</svg>
