<svg width="38" height="38" viewBox="0 0 38 38" fill="none" xmlns="http://www.w3.org/2000/svg">
<path fill-rule="evenodd" clip-rule="evenodd" d="M32.5706 17.1495V20.8508L28.6195 21.1802C28.369 22.29 27.931 23.3257 27.3413 24.2591L29.9044 27.288L27.287 29.9054L24.2581 27.3423C23.3254 27.9314 22.289 28.37 21.1792 28.6204L20.8498 32.5716H17.1485L16.8191 28.6204C15.7093 28.37 14.6736 27.932 13.7402 27.3423L10.7113 29.9054L8.0939 27.288L10.6571 24.2591C10.0679 23.3263 9.62932 22.29 9.37887 21.1802L5.42773 20.8508V17.1495L9.37887 16.8201C9.62932 15.7103 10.0673 14.6746 10.6571 13.7412L8.0939 10.7123L10.7113 8.09488L13.7402 10.658C14.673 10.0689 15.7093 9.6303 16.8191 9.37985L17.1485 5.42871H20.8498L21.1792 9.37985C22.289 9.6303 23.3247 10.0683 24.2581 10.658L27.287 8.09488L29.9044 10.7123L27.3413 13.7412C27.9304 14.6739 28.369 15.7103 28.6195 16.8201L32.5706 17.1495ZM23.9994 19.0004C23.9994 21.7618 21.7608 24.0004 18.9994 24.0004C16.238 24.0004 13.9994 21.7618 13.9994 19.0004C13.9994 16.2389 16.238 14.0004 18.9994 14.0004C21.7608 14.0004 23.9994 16.2389 23.9994 19.0004Z" fill="#D7E3E8"/>
<path d="M32.5706 20.8508L32.6121 21.3491L33.0706 21.3108V20.8508H32.5706ZM32.5706 17.1495H33.0706V16.6894L32.6121 16.6512L32.5706 17.1495ZM28.6195 21.1802L28.5779 20.6819L28.2125 20.7124L28.1317 21.0701L28.6195 21.1802ZM27.3413 24.2591L26.9186 23.992L26.7227 24.3021L26.9596 24.5821L27.3413 24.2591ZM29.9044 27.288L30.258 27.6415L30.5833 27.3162L30.2861 26.965L29.9044 27.288ZM27.287 29.9054L26.964 30.2871L27.3152 30.5843L27.6405 30.259L27.287 29.9054ZM24.2581 27.3423L24.5811 26.9606L24.3011 26.7237L23.9911 26.9195L24.2581 27.3423ZM21.1792 28.6204L21.0692 28.1327L20.7114 28.2134L20.681 28.5789L21.1792 28.6204ZM20.8498 32.5716V33.0716H21.3099L21.3481 32.6131L20.8498 32.5716ZM17.1485 32.5716L16.6502 32.6131L16.6885 33.0716H17.1485V32.5716ZM16.8191 28.6204L17.3174 28.5789L17.2869 28.2134L16.9292 28.1327L16.8191 28.6204ZM13.7402 27.3423L14.0073 26.9196L13.6972 26.7236L13.4172 26.9606L13.7402 27.3423ZM10.7113 29.9054L10.3578 30.259L10.6831 30.5843L11.0343 30.2871L10.7113 29.9054ZM8.0939 27.288L7.71222 26.965L7.41502 27.3162L7.74035 27.6415L8.0939 27.288ZM10.6571 24.2591L11.0387 24.5821L11.2756 24.3021L11.0798 23.9921L10.6571 24.2591ZM9.37887 21.1802L9.8666 21.0701L9.78587 20.7124L9.42041 20.6819L9.37887 21.1802ZM5.42773 20.8508H4.92773V21.3108L5.38619 21.3491L5.42773 20.8508ZM5.42773 17.1495L5.38619 16.6512L4.92773 16.6894V17.1495H5.42773ZM9.37887 16.8201L9.42041 17.3183L9.78587 17.2879L9.8666 16.9301L9.37887 16.8201ZM10.6571 13.7412L11.0797 14.0083L11.2757 13.6982L11.0387 13.4182L10.6571 13.7412ZM8.0939 10.7123L7.74035 10.3588L7.41502 10.6841L7.71222 11.0353L8.0939 10.7123ZM10.7113 8.09488L11.0343 7.7132L10.6831 7.416L10.3578 7.74133L10.7113 8.09488ZM13.7402 10.658L13.4172 11.0397L13.6972 11.2766L14.0072 11.0808L13.7402 10.658ZM16.8191 9.37985L16.9292 9.86758L17.2869 9.78685L17.3174 9.42139L16.8191 9.37985ZM17.1485 5.42871V4.92871H16.6885L16.6502 5.38717L17.1485 5.42871ZM20.8498 5.42871L21.3481 5.38717L21.3099 4.92871H20.8498V5.42871ZM21.1792 9.37985L20.681 9.42139L20.7114 9.78685L21.0692 9.86758L21.1792 9.37985ZM24.2581 10.658L23.991 11.0807L24.3011 11.2766L24.5811 11.0397L24.2581 10.658ZM27.287 8.09488L27.6405 7.74133L27.3152 7.416L26.964 7.7132L27.287 8.09488ZM29.9044 10.7123L30.2861 11.0353L30.5833 10.6841L30.258 10.3588L29.9044 10.7123ZM27.3413 13.7412L26.9596 13.4182L26.7227 13.6982L26.9185 14.0082L27.3413 13.7412ZM28.6195 16.8201L28.1317 16.9301L28.2125 17.2879L28.5779 17.3183L28.6195 16.8201ZM33.0706 20.8508V17.1495H32.0706V20.8508H33.0706ZM28.661 21.6785L32.6121 21.3491L32.529 20.3525L28.5779 20.6819L28.661 21.6785ZM27.764 24.5261C28.3833 23.546 28.8438 22.4573 29.1072 21.2903L28.1317 21.0701C27.8942 22.1227 27.4787 23.1055 26.9186 23.992L27.764 24.5261ZM30.2861 26.965L27.7229 23.9361L26.9596 24.5821L29.5227 27.611L30.2861 26.965ZM27.6405 30.259L30.258 27.6415L29.5509 26.9344L26.9334 29.5518L27.6405 30.259ZM23.9351 27.7239L26.964 30.2871L27.61 29.5237L24.5811 26.9606L23.9351 27.7239ZM21.2893 29.1082C22.4564 28.8448 23.5456 28.3836 24.5251 27.765L23.9911 26.9195C23.1051 27.4791 22.1216 27.8952 21.0692 28.1327L21.2893 29.1082ZM21.3481 32.6131L21.6775 28.662L20.681 28.5789L20.3515 32.53L21.3481 32.6131ZM17.1485 33.0716H20.8498V32.0716H17.1485V33.0716ZM16.3208 28.662L16.6502 32.6131L17.6468 32.53L17.3174 28.5789L16.3208 28.662ZM13.4732 27.7649C14.4533 28.3843 15.542 28.8448 16.709 29.1082L16.9292 28.1327C15.8766 27.8952 14.8938 27.4797 14.0073 26.9196L13.4732 27.7649ZM11.0343 30.2871L14.0632 27.7239L13.4172 26.9606L10.3883 29.5237L11.0343 30.2871ZM7.74035 27.6415L10.3578 30.259L11.0649 29.5518L8.44746 26.9344L7.74035 27.6415ZM10.2754 23.9361L7.71222 26.965L8.47558 27.611L11.0387 24.5821L10.2754 23.9361ZM8.89114 21.2903C9.15453 22.4574 9.61567 23.5466 10.2343 24.5261L11.0798 23.9921C10.5202 23.1061 10.1041 22.1226 9.8666 21.0701L8.89114 21.2903ZM5.38619 21.3491L9.33733 21.6785L9.42041 20.6819L5.46928 20.3525L5.38619 21.3491ZM4.92773 17.1495V20.8508H5.92773V17.1495H4.92773ZM9.33733 16.3218L5.38619 16.6512L5.46928 17.6478L9.42041 17.3183L9.33733 16.3218ZM10.2344 13.4741C9.61502 14.4543 9.15451 15.543 8.89114 16.71L9.8666 16.9301C10.1041 15.8776 10.5196 14.8948 11.0797 14.0083L10.2344 13.4741ZM7.71222 11.0353L10.2754 14.0642L11.0387 13.4182L8.47558 10.3893L7.71222 11.0353ZM10.3578 7.74133L7.74035 10.3588L8.44746 11.0659L11.0649 8.44843L10.3578 7.74133ZM14.0632 10.2764L11.0343 7.7132L10.3883 8.47656L13.4172 11.0397L14.0632 10.2764ZM16.709 8.89211C15.5419 9.1555 14.4527 9.61665 13.4732 10.2353L14.0072 11.0808C14.8932 10.5212 15.8767 10.1051 16.9292 9.86758L16.709 8.89211ZM16.6502 5.38717L16.3208 9.33831L17.3174 9.42139L17.6468 5.47025L16.6502 5.38717ZM20.8498 4.92871H17.1485V5.92871H20.8498V4.92871ZM21.6775 9.33831L21.3481 5.38717L20.3515 5.47025L20.681 9.42139L21.6775 9.33831ZM24.5252 10.2353C23.545 9.61599 22.4563 9.15549 21.2893 8.89211L21.0692 9.86758C22.1217 10.1051 23.1045 10.5206 23.991 11.0807L24.5252 10.2353ZM26.964 7.7132L23.9351 10.2764L24.5811 11.0397L27.61 8.47656L26.964 7.7132ZM30.258 10.3588L27.6405 7.74133L26.9334 8.44843L29.5509 11.0659L30.258 10.3588ZM27.7229 14.0642L30.2861 11.0353L29.5227 10.3893L26.9596 13.4182L27.7229 14.0642ZM29.1072 16.71C28.8438 15.5429 28.3827 14.4537 27.764 13.4742L26.9185 14.0082C27.4781 14.8942 27.8942 15.8777 28.1317 16.9301L29.1072 16.71ZM32.6121 16.6512L28.661 16.3218L28.5779 17.3183L32.529 17.6478L32.6121 16.6512ZM18.9994 24.5004C22.0369 24.5004 24.4994 22.0379 24.4994 19.0004H23.4994C23.4994 21.4856 21.4847 23.5004 18.9994 23.5004V24.5004ZM13.4994 19.0004C13.4994 22.0379 15.9618 24.5004 18.9994 24.5004V23.5004C16.5141 23.5004 14.4994 21.4856 14.4994 19.0004H13.4994ZM18.9994 13.5004C15.9618 13.5004 13.4994 15.9628 13.4994 19.0004H14.4994C14.4994 16.5151 16.5141 14.5004 18.9994 14.5004V13.5004ZM24.4994 19.0004C24.4994 15.9628 22.0369 13.5004 18.9994 13.5004V14.5004C21.4847 14.5004 23.4994 16.5151 23.4994 19.0004H24.4994Z" fill="#D7E3E8"/>
</svg>
