<svg width="28" height="28" viewBox="0 0 28 28" fill="none" xmlns="http://www.w3.org/2000/svg">
<path fill-rule="evenodd" clip-rule="evenodd" d="M21.0886 12.3936L24 12.6364V15.3636L21.0886 15.6064C20.9041 16.4241 20.5814 17.1873 20.1468 17.875L22.0355 20.1068L20.1068 22.0355L17.875 20.1468C17.1877 20.5809 16.4241 20.9041 15.6064 21.0886L15.3636 24H12.6364L12.3936 21.0886C11.5759 20.9041 10.8127 20.5814 10.125 20.1468L7.89318 22.0355L5.96455 20.1068L7.85318 17.875C7.41909 17.1877 7.09591 16.4241 6.91136 15.6064L4 15.3636V12.6364L6.91136 12.3936C7.09591 11.5759 7.41864 10.8127 7.85318 10.125L5.96455 7.89318L7.89318 5.96455L10.125 7.85318C10.8123 7.41909 11.5759 7.09591 12.3936 6.91136L12.6364 4H15.3636L15.6064 6.91136C16.4241 7.09591 17.1873 7.41864 17.875 7.85318L20.1068 5.96455L22.0355 7.89318L20.1468 10.125C20.5809 10.8123 20.9041 11.5759 21.0886 12.3936ZM17.6842 14C17.6842 16.0347 16.0347 17.6842 14 17.6842C11.9653 17.6842 10.3158 16.0347 10.3158 14C10.3158 11.9653 11.9653 10.3158 14 10.3158C16.0347 10.3158 17.6842 11.9653 17.6842 14Z" fill="#376EEE"/>
<path d="M24 12.6364H24.5V12.1763L24.0415 12.1381L24 12.6364ZM21.0886 12.3936L20.6009 12.5037L20.6816 12.8614L21.0471 12.8919L21.0886 12.3936ZM24 15.3636L24.0415 15.8619L24.5 15.8237V15.3636H24ZM21.0886 15.6064L21.0471 15.1081L20.6816 15.1386L20.6009 15.4963L21.0886 15.6064ZM20.1468 17.875L19.7241 17.6079L19.5282 17.918L19.7651 18.198L20.1468 17.875ZM22.0355 20.1068L22.389 20.4604L22.7143 20.135L22.4171 19.7838L22.0355 20.1068ZM20.1068 22.0355L19.7838 22.4171L20.135 22.7143L20.4604 22.389L20.1068 22.0355ZM17.875 20.1468L18.198 19.7651L17.918 19.5282L17.608 19.7241L17.875 20.1468ZM15.6064 21.0886L15.4963 20.6009L15.1386 20.6816L15.1081 21.0471L15.6064 21.0886ZM15.3636 24V24.5H15.8237L15.8619 24.0415L15.3636 24ZM12.6364 24L12.1381 24.0415L12.1763 24.5H12.6364V24ZM12.3936 21.0886L12.8919 21.0471L12.8614 20.6816L12.5037 20.6009L12.3936 21.0886ZM10.125 20.1468L10.3921 19.7241L10.082 19.5282L9.80201 19.7651L10.125 20.1468ZM7.89318 22.0355L7.53963 22.389L7.86496 22.7143L8.21617 22.4171L7.89318 22.0355ZM5.96455 20.1068L5.58287 19.7838L5.28566 20.135L5.61099 20.4604L5.96455 20.1068ZM7.85318 17.875L8.23486 18.198L8.47175 17.918L8.27592 17.608L7.85318 17.875ZM6.91136 15.6064L7.3991 15.4963L7.31836 15.1386L6.95291 15.1081L6.91136 15.6064ZM4 15.3636H3.5V15.8237L3.95846 15.8619L4 15.3636ZM4 12.6364L3.95846 12.1381L3.5 12.1763V12.6364H4ZM6.91136 12.3936L6.95291 12.8919L7.31836 12.8614L7.3991 12.5037L6.91136 12.3936ZM7.85318 10.125L8.27587 10.3921L8.4718 10.082L8.23486 9.80201L7.85318 10.125ZM5.96455 7.89318L5.61099 7.53963L5.28566 7.86496L5.58287 8.21617L5.96455 7.89318ZM7.89318 5.96455L8.21617 5.58287L7.86496 5.28566L7.53963 5.61099L7.89318 5.96455ZM10.125 7.85318L9.80201 8.23486L10.082 8.47176L10.392 8.27592L10.125 7.85318ZM12.3936 6.91136L12.5037 7.3991L12.8614 7.31836L12.8919 6.95291L12.3936 6.91136ZM12.6364 4V3.5H12.1763L12.1381 3.95846L12.6364 4ZM15.3636 4L15.8619 3.95846L15.8237 3.5H15.3636V4ZM15.6064 6.91136L15.1081 6.95291L15.1386 7.31836L15.4963 7.3991L15.6064 6.91136ZM17.875 7.85318L17.6079 8.27587L17.918 8.4718L18.198 8.23486L17.875 7.85318ZM20.1068 5.96455L20.4604 5.61099L20.135 5.28566L19.7838 5.58287L20.1068 5.96455ZM22.0355 7.89318L22.4171 8.21617L22.7143 7.86496L22.389 7.53963L22.0355 7.89318ZM20.1468 10.125L19.7651 9.80201L19.5282 10.082L19.7241 10.392L20.1468 10.125ZM24.0415 12.1381L21.1302 11.8954L21.0471 12.8919L23.9585 13.1346L24.0415 12.1381ZM24.5 15.3636V12.6364H23.5V15.3636H24.5ZM21.1302 16.1046L24.0415 15.8619L23.9585 14.8654L21.0471 15.1081L21.1302 16.1046ZM20.5695 18.1421C21.0337 17.4075 21.3789 16.5914 21.5764 15.7164L20.6009 15.4963C20.4293 16.2568 20.1291 16.967 19.7241 17.6079L20.5695 18.1421ZM22.4171 19.7838L20.5285 17.552L19.7651 18.198L21.6538 20.4298L22.4171 19.7838ZM20.4604 22.389L22.389 20.4604L21.6819 19.7533L19.7533 21.6819L20.4604 22.389ZM17.552 20.5285L19.7838 22.4171L20.4298 21.6538L18.198 19.7651L17.552 20.5285ZM15.7164 21.5764C16.5915 21.3789 17.408 21.0332 18.142 20.5696L17.608 19.7241C16.9675 20.1287 16.2567 20.4293 15.4963 20.6009L15.7164 21.5764ZM15.8619 24.0415L16.1046 21.1302L15.1081 21.0471L14.8654 23.9585L15.8619 24.0415ZM12.6364 24.5H15.3636V23.5H12.6364V24.5ZM11.8954 21.1302L12.1381 24.0415L13.1346 23.9585L12.8919 21.0471L11.8954 21.1302ZM9.85792 20.5695C10.5925 21.0337 11.4086 21.3789 12.2836 21.5764L12.5037 20.6009C11.7432 20.4293 11.033 20.1291 10.3921 19.7241L9.85792 20.5695ZM8.21617 22.4171L10.448 20.5285L9.80201 19.7651L7.57019 21.6538L8.21617 22.4171ZM5.61099 20.4604L7.53963 22.389L8.24673 21.6819L6.3181 19.7533L5.61099 20.4604ZM7.4715 17.552L5.58287 19.7838L6.34622 20.4298L8.23486 18.198L7.4715 17.552ZM6.42363 15.7164C6.62111 16.5915 6.96683 17.408 7.43044 18.142L8.27592 17.608C7.87135 16.9675 7.57071 16.2567 7.3991 15.4963L6.42363 15.7164ZM3.95846 15.8619L6.86982 16.1046L6.95291 15.1081L4.04154 14.8654L3.95846 15.8619ZM3.5 12.6364V15.3636H4.5V12.6364H3.5ZM6.86982 11.8954L3.95846 12.1381L4.04154 13.1346L6.95291 12.8919L6.86982 11.8954ZM7.43049 9.85792C6.96634 10.5925 6.62109 11.4086 6.42363 12.2836L7.3991 12.5037C7.57072 11.7432 7.87093 11.033 8.27587 10.3921L7.43049 9.85792ZM5.58287 8.21617L7.4715 10.448L8.23486 9.80201L6.34622 7.57019L5.58287 8.21617ZM7.53963 5.61099L5.61099 7.53963L6.3181 8.24674L8.24673 6.3181L7.53963 5.61099ZM10.448 7.4715L8.21617 5.58287L7.57019 6.34622L9.80201 8.23486L10.448 7.4715ZM12.2836 6.42363C11.4085 6.62111 10.592 6.96683 9.85799 7.43044L10.392 8.27592C11.0325 7.87135 11.7433 7.57071 12.5037 7.3991L12.2836 6.42363ZM12.1381 3.95846L11.8954 6.86982L12.8919 6.95291L13.1346 4.04154L12.1381 3.95846ZM15.3636 3.5H12.6364V4.5H15.3636V3.5ZM16.1046 6.86982L15.8619 3.95846L14.8654 4.04154L15.1081 6.95291L16.1046 6.86982ZM18.1421 7.43049C17.4075 6.96634 16.5914 6.62109 15.7164 6.42363L15.4963 7.3991C16.2568 7.57072 16.967 7.87093 17.6079 8.27587L18.1421 7.43049ZM19.7838 5.58287L17.552 7.4715L18.198 8.23486L20.4298 6.34622L19.7838 5.58287ZM22.389 7.53963L20.4604 5.61099L19.7533 6.3181L21.6819 8.24674L22.389 7.53963ZM20.5285 10.448L22.4171 8.21617L21.6538 7.57019L19.7651 9.80201L20.5285 10.448ZM21.5764 12.2836C21.3789 11.4085 21.0332 10.592 20.5696 9.85799L19.7241 10.392C20.1286 11.0325 20.4293 11.7433 20.6009 12.5037L21.5764 12.2836ZM14 18.1842C16.3109 18.1842 18.1842 16.3109 18.1842 14H17.1842C17.1842 15.7586 15.7586 17.1842 14 17.1842V18.1842ZM9.81579 14C9.81579 16.3109 11.6891 18.1842 14 18.1842V17.1842C12.2414 17.1842 10.8158 15.7586 10.8158 14H9.81579ZM14 9.81579C11.6891 9.81579 9.81579 11.6891 9.81579 14H10.8158C10.8158 12.2414 12.2414 10.8158 14 10.8158V9.81579ZM18.1842 14C18.1842 11.6891 16.3109 9.81579 14 9.81579V10.8158C15.7586 10.8158 17.1842 12.2414 17.1842 14H18.1842Z" fill="#376EEE"/>
</svg>
