<svg width="40" height="41" viewBox="0 0 40 41" fill="none" xmlns="http://www.w3.org/2000/svg">
<circle cx="20" cy="20.5" r="20" fill="white"/>
<path fill-rule="evenodd" clip-rule="evenodd" d="M26.0547 23.6754C25.8113 23.4947 25.5099 23.3807 25.1815 23.3652H24.1717C22.4583 23.3962 18.9398 23.3962 17.2264 22.5924C15.5133 21.7889 13.4938 22.9635 13.4938 22.9635C12.8158 23.2932 9.39521 26.4771 8.19197 27.6069C7.95586 27.8286 7.93521 28.1967 8.14302 28.4457L11.3458 32.2829C11.5542 32.5332 11.9216 32.5726 12.1777 32.3721L15.145 30.0489C15.3042 29.924 15.5003 29.8564 15.7021 29.8564H23.7771C24.226 29.8564 24.6566 29.6771 24.975 29.3581C27.1857 27.1443 29.396 24.9301 31.6063 22.7162C32.1435 22.0439 32.1188 21.0995 31.6063 20.5215C31.0112 19.8503 29.8719 19.8025 29.1585 20.5215L26.2215 23.4887L26.0547 23.6754Z" fill="#E5ECFF"/>
<path d="M15.1602 11.1977L20.8553 13.5957M15.1602 11.1977L21.1551 8.5L26.8503 11.1977M15.1602 11.1977V18.3916L20.8553 21.0893M20.8553 13.5957L26.8503 11.1977M20.8553 13.5957V21.0893M26.8503 11.1977V18.3916L20.8553 21.0893" stroke="#ADC0FD" stroke-linecap="round" stroke-linejoin="round"/>
</svg>
