<svg width="15" height="16" viewBox="0 0 15 16" fill="none" xmlns="http://www.w3.org/2000/svg">
<path fill-rule="evenodd" clip-rule="evenodd" d="M13.8643 7.53033C13.5714 7.82322 13.0965 7.82322 12.8037 7.53033L7.33398 2.06066L1.86431 7.53033C1.57142 7.82322 1.09655 7.82322 0.803654 7.53033C0.510761 7.23744 0.510761 6.76256 0.803654 6.46967L6.80365 0.46967C7.09655 0.176777 7.57142 0.176777 7.86432 0.46967L13.8643 6.46967C14.1572 6.76256 14.1572 7.23744 13.8643 7.53033Z" fill="#10774C"/>
<path fill-rule="evenodd" clip-rule="evenodd" d="M7.33398 0.25C7.7482 0.25 8.08398 0.585787 8.08398 1L8.08398 15C8.08398 15.4142 7.7482 15.75 7.33398 15.75C6.91977 15.75 6.58398 15.4142 6.58398 15L6.58398 1C6.58398 0.585787 6.91977 0.25 7.33398 0.25Z" fill="#10774C"/>
</svg>
