<?xml version="1.0" encoding="utf-8"?>
<svg width="325" height="200" viewBox="0 0 325 130.055" fill="none" xmlns="http://www.w3.org/2000/svg">
  <rect width="325" height="130.055" fill="white" style=""/>
  <mask id="mask0" mask-type="alpha" maskUnits="userSpaceOnUse" x="0" y="0" width="325" height="200">
    <rect width="325" height="200" fill="white"/>
  </mask>
  <g mask="url(#mask0)" transform="matrix(1, 0, 0, 1, 0, -34)">
    <path fill-rule="evenodd" clip-rule="evenodd" d="M33.5275 107.341C50.8811 107.252 51.2561 85.6212 62.1234 85.4871C72.9907 85.3531 77.6943 120.93 91.119 120.705C104.544 120.48 106.848 93.2927 120.291 93.2507C133.735 93.2087 133.141 109.832 149.651 109.733C166.162 109.634 163.786 69.3851 177.374 69.3851C190.961 69.3851 185.934 87.5291 205.375 87.4888C224.817 87.4485 217.186 37.5 234.692 37.5C252.198 37.5 246.38 97.5648 263.082 97.6124C279.785 97.66 277.43 75.5489 291.473 75.6202C305.515 75.6916 299.605 106.706 320.674 106.576H325V142.476H0V96.9122C0 96.9122 16.1738 107.43 33.5275 107.341Z" fill="url(#paint0_linear)"/>
    <path fill-rule="evenodd" clip-rule="evenodd" d="M33.5815 80.2163C47.7796 80.444 44.4568 114.422 62.161 114.574C79.8651 114.727 72.9189 94.021 91.119 93.7341C109.319 93.4472 105.044 51.5045 120.32 51.5045C135.597 51.5045 130.036 82.3072 149.792 82.2817C169.548 82.2561 162.309 79.0851 177.374 79.1819C192.438 79.2788 188.896 119.922 205.375 119.837C221.855 119.753 221.396 98.905 234.665 98.8709C247.934 98.8367 248.693 116.132 263.001 116.078C277.308 116.025 277.871 101.945 291.597 101.77C305.323 101.596 307.698 74.1188 320.768 74.1337C322.165 74.1353 325 74.1337 325 74.1337V143.552H0L0 74.9211C0 74.9211 19.3834 79.9886 33.5815 80.2163Z" fill="url(#paint1_linear)"/>
    <rect width="100" height="129.958" fill="url(#paint2_linear)" style="" y="34.619"/>
    <rect width="100" height="129.819" transform="matrix(-1, 0, 0, 1, 0, 0)" fill="url(#paint3_linear)" style="" x="-325" y="34.422"/>
    <path fill-rule="evenodd" clip-rule="evenodd" d="M120 55C121.381 55 122.5 53.8807 122.5 52.5C122.5 51.1193 121.381 50 120 50C118.619 50 117.5 51.1193 117.5 52.5C117.5 53.8807 118.619 55 120 55Z" fill="#92F1D3"/>
    <path fill-rule="evenodd" clip-rule="evenodd" d="M120 95C121.381 95 122.5 93.8807 122.5 92.5C122.5 91.1193 121.381 90 120 90C118.619 90 117.5 91.1193 117.5 92.5C117.5 93.8807 118.619 95 120 95Z" fill="#92F1D3"/>
    <path fill-rule="evenodd" clip-rule="evenodd" d="M86.25 97.5C87.6307 97.5 88.75 96.3807 88.75 95C88.75 93.6193 87.6307 92.5 86.25 92.5C84.8693 92.5 83.75 93.6193 83.75 95C83.75 96.3807 84.8693 97.5 86.25 97.5Z" fill="#92F1D3"/>
    <path fill-rule="evenodd" clip-rule="evenodd" d="M265 100C266.381 100 267.5 98.8807 267.5 97.5C267.5 96.1193 266.381 95 265 95C263.619 95 262.5 96.1193 262.5 97.5C262.5 98.8807 263.619 100 265 100Z" fill="#92F1D3"/>
    <path fill-rule="evenodd" clip-rule="evenodd" d="M291.25 78.75C292.631 78.75 293.75 77.6307 293.75 76.25C293.75 74.8693 292.631 73.75 291.25 73.75C289.869 73.75 288.75 74.8693 288.75 76.25C288.75 77.6307 289.869 78.75 291.25 78.75Z" fill="#92F1D3"/>
    <path fill-rule="evenodd" clip-rule="evenodd" d="M178.75 71.25C180.131 71.25 181.25 70.1307 181.25 68.75C181.25 67.3693 180.131 66.25 178.75 66.25C177.369 66.25 176.25 67.3693 176.25 68.75C176.25 70.1307 177.369 71.25 178.75 71.25Z" fill="#92F1D3"/>
    <path fill-rule="evenodd" clip-rule="evenodd" d="M235 40C236.381 40 237.5 38.8807 237.5 37.5C237.5 36.1193 236.381 35 235 35C233.619 35 232.5 36.1193 232.5 37.5C232.5 38.8807 233.619 40 235 40Z" fill="#92F1D3"/>
    <path fill-rule="evenodd" clip-rule="evenodd" d="M62.5 87.5C63.8807 87.5 65 86.3807 65 85C65 83.6193 63.8807 82.5 62.5 82.5C61.1193 82.5 60 83.6193 60 85C60 86.3807 61.1193 87.5 62.5 87.5Z" fill="#92F1D3"/>
    <path fill-rule="evenodd" clip-rule="evenodd" d="M206.25 125C207.631 125 208.75 123.881 208.75 122.5C208.75 121.119 207.631 120 206.25 120C204.869 120 203.75 121.119 203.75 122.5C203.75 123.881 204.869 125 206.25 125Z" fill="#92F1D3"/>
    <path fill-rule="evenodd" clip-rule="evenodd" d="M150 85C151.381 85 152.5 83.8807 152.5 82.5C152.5 81.1193 151.381 80 150 80C148.619 80 147.5 81.1193 147.5 82.5C147.5 83.8807 148.619 85 150 85Z" fill="#92F1D3"/>
    <path d="M72.5 128.75C72.5 125.989 74.7386 123.75 77.5 123.75H127.5C130.261 123.75 132.5 125.989 132.5 128.75V158.75C132.5 161.511 130.261 163.75 127.5 163.75H77.5C74.7386 163.75 72.5 161.511 72.5 158.75V128.75Z" fill="url(#paint4_linear)"/>
    <path d="M102.5 128.75C102.5 125.989 104.739 123.75 107.5 123.75H127.5C130.261 123.75 132.5 125.989 132.5 128.75V158.75C132.5 161.511 130.261 163.75 127.5 163.75H107.5C104.739 163.75 102.5 161.511 102.5 158.75V128.75Z" fill="url(#paint5_linear)"/>
    <path d="M153.75 123.75H103.75L108.75 111.25H158.75L153.75 123.75Z" fill="url(#paint6_linear)"/>
    <path d="M72.5 123.75V138.75H62.5L72.5 123.75Z" fill="url(#paint7_linear)"/>
    <path d="M97.5 153.75H102.5V158.75H97.5V153.75Z" fill="#8BDCFB"/>
    <path d="M102.5 153.75H117.5V158.75H102.5V153.75Z" fill="#2FB7EC" fill-opacity="0.5"/>
    <path d="M132.5 83.75C132.5 80.9886 134.739 78.75 137.5 78.75H227.5C230.261 78.75 232.5 80.9886 232.5 83.75V163.75H137.5C134.739 163.75 132.5 161.511 132.5 158.75V83.75Z" fill="white"/>
    <path d="M132.5 83.75C132.5 80.9886 134.739 78.75 137.5 78.75H227.5C230.261 78.75 232.5 80.9886 232.5 83.75V163.75H137.5C134.739 163.75 132.5 161.511 132.5 158.75V83.75Z" fill="#2F88EC"/>
    <path d="M132.5 83.75C132.5 80.9886 134.739 78.75 137.5 78.75H202.5V163.75H132.5V83.75Z" fill="white"/>
    <path d="M132.5 83.75C132.5 80.9886 134.739 78.75 137.5 78.75H202.5V163.75H132.5V83.75Z" fill="#4A90E2" fill-opacity="0.9"/>
    <path d="M152.5 78.75H182.5V93.75L177.538 91.25L172.5 93.75L167.5 91.25L162.5 93.75L157.5 91.25L152.5 93.75V78.75Z" fill="url(#paint8_linear)"/>
    <path d="M212.5 78.75H222.5V163.75H212.5V78.75Z" fill="url(#paint9_linear)"/>
    <path d="M232.5 123.75H272.5V163.75H232.5V123.75Z" fill="url(#paint10_linear)"/>
    <rect x="252.5" y="155" width="10" height="2.5" fill="white"/>
    <rect x="252.5" y="158.75" width="10" height="2.5" fill="white"/>
    <path d="M240 123.75H260V136.25L255 133.75L250.869 136.25L245 133.75L240 136.25V123.75Z" fill="#2FB7EC" fill-opacity="0.8"/>
    <path d="M265 123.75H272.5V163.75H265V123.75Z" fill="url(#paint11_linear)"/>
    <path d="M40 146.25C40 144.869 41.1193 143.75 42.5 143.75H62.5C63.8807 143.75 65 144.869 65 146.25V161.25C65 162.631 63.8807 163.75 62.5 163.75H42.5C41.1193 163.75 40 162.631 40 161.25V146.25Z" fill="white"/>
    <path d="M40 146.25C40 144.869 41.1193 143.75 42.5 143.75H62.5C63.8807 143.75 65 144.869 65 146.25V161.25C65 162.631 63.8807 163.75 62.5 163.75H42.5C41.1193 163.75 40 162.631 40 161.25V146.25Z" fill="#4A90E2" fill-opacity="0.8"/>
    <path d="M40 143.75H57.5V163.75H40V143.75Z" fill="url(#paint12_linear)"/>
    <rect x="47.5" y="143.75" width="10" height="5" fill="#8BDCFB"/>
    <path d="M272.5 143.75H297.5V163.75H272.5V143.75Z" fill="url(#paint13_linear)"/>
    <path fill-rule="evenodd" clip-rule="evenodd" d="M167.5 153.75C181.307 153.75 192.5 142.557 192.5 128.75C192.5 114.943 181.307 103.75 167.5 103.75C153.693 103.75 142.5 114.943 142.5 128.75C142.5 142.557 153.693 153.75 167.5 153.75Z" fill="#1D4BEA"/>
    <mask id="mask1" mask-type="alpha" maskUnits="userSpaceOnUse" x="142" y="103" width="51" height="51">
      <path fill-rule="evenodd" clip-rule="evenodd" d="M167.5 153.75C181.307 153.75 192.5 142.557 192.5 128.75C192.5 114.943 181.307 103.75 167.5 103.75C153.693 103.75 142.5 114.943 142.5 128.75C142.5 142.557 153.693 153.75 167.5 153.75Z" fill="white"/>
    </mask>
    <g mask="url(#mask1)">
      <path fill-rule="evenodd" clip-rule="evenodd" d="M176.785 91.9594L190.978 106.102L172.627 114.459L167.609 109.459L176.785 91.9594Z" fill="#C3D4FA"/>
      <path d="M161.336 129.459L170.118 111.959" stroke="#5685F1" stroke-width="2.5" stroke-linecap="round" stroke-linejoin="round"/>
      <path d="M150.045 129.459L170.118 111.959" stroke="white" stroke-width="2.5" stroke-linecap="round" stroke-linejoin="round"/>
      <path d="M170.118 111.959L175.136 131.959" stroke="#5685F1" stroke-width="2.5" stroke-linecap="round" stroke-linejoin="round"/>
      <path d="M170.118 111.959L185.173 134.459" stroke="white" stroke-width="2.5" stroke-linecap="round" stroke-linejoin="round"/>
      <path fill-rule="evenodd" clip-rule="evenodd" d="M157.573 126.959L185.486 133.913C186.734 134.223 187.544 135.423 187.362 136.692L185.543 149.375C185.347 150.741 184.076 151.691 182.705 151.496C182.669 151.491 182.633 151.485 182.597 151.478L147.444 144.911C146.101 144.66 145.207 143.385 145.431 142.043L147.266 131.076C147.43 130.094 148.163 129.303 149.132 129.062L157.573 126.959Z" fill="#5685F1"/>
      <path fill-rule="evenodd" clip-rule="evenodd" d="M178.348 139.229C177.962 139.154 177.542 139.393 177.415 139.761L176.474 142.498C176.371 142.796 176.169 143.033 175.87 143.209C175.571 143.385 175.262 143.442 174.943 143.38C174.632 143.32 174.402 143.161 174.253 142.903C174.104 142.645 174.082 142.363 174.188 142.056L174.758 140.394C174.832 140.055 174.624 139.738 174.265 139.668L173.326 139.486C172.968 139.417 172.58 139.619 172.426 139.942L171.848 141.602C171.742 141.909 171.54 142.148 171.243 142.32C170.945 142.491 170.641 142.547 170.331 142.487C170.02 142.427 169.789 142.265 169.637 142.002C169.484 141.739 169.46 141.458 169.562 141.16L170.817 137.529C170.943 137.176 170.798 136.754 170.494 136.535C170.494 136.535 166.851 134.145 166.614 133.991C166.373 133.835 166.031 134.014 165.853 134.387L165.428 135.28C165.25 135.653 165.391 136.145 165.741 136.371L168.184 137.965L167.236 140.709C166.918 141.629 166.986 142.482 167.44 143.267C167.894 144.052 168.6 144.537 169.558 144.723C170.443 144.894 171.308 144.758 172.153 144.313C172.622 145.012 173.294 145.446 174.17 145.616C175.128 145.801 176.06 145.634 176.965 145.112C177.871 144.591 178.482 143.869 178.8 142.949C178.8 142.949 179.797 140.053 179.815 140.002C179.901 139.749 179.657 139.482 179.271 139.407L178.348 139.229Z" fill="white"/>
      <path d="M169.475 116.959C171.891 116.959 173.85 115.001 173.85 112.584C173.85 110.168 171.891 108.209 169.475 108.209C167.059 108.209 165.1 110.168 165.1 112.584C165.1 115.001 167.059 116.959 169.475 116.959Z" fill="#C3D4FA"/>
      <path d="M169.375 114.459C170.411 114.459 171.25 113.62 171.25 112.584C171.25 111.549 170.411 110.709 169.375 110.709C168.339 110.709 167.5 111.549 167.5 112.584C167.5 113.62 168.339 114.459 169.375 114.459Z" fill="#1D4BEA"/>
      <path d="M158.113 126.959L160.584 127.394L157.535 144.628L155.064 144.194L158.113 126.959Z" fill="white" fill-opacity="0.01"/>
      <path d="M145.432 142.039L147.266 131.076C147.43 130.094 148.163 129.303 149.132 129.062L157.573 126.959L154.921 146.291L147.449 144.908C146.104 144.659 145.207 143.383 145.432 142.039Z" fill="#C3D4FA"/>
    </g>
    <path d="M290 143.75H297.5V163.75H290V143.75Z" fill="url(#paint14_linear)"/>
    <rect x="280" y="143.75" width="10" height="5" fill="#2FB7EC" fill-opacity="0.8"/>
  </g>
  <defs>
    <linearGradient id="paint0_linear" x1="67.1913" y1="37.5" x2="67.1913" y2="142.476" gradientUnits="userSpaceOnUse">
      <stop stop-color="#8BDCFB"/>
      <stop offset="1" stop-color="#8BDCFB" stop-opacity="0.01"/>
    </linearGradient>
    <linearGradient id="paint1_linear" x1="92.5585" y1="74.5386" x2="92.5585" y2="120.906" gradientUnits="userSpaceOnUse">
      <stop stop-color="#CEF2FD"/>
      <stop offset="1" stop-color="#E6F7FF" stop-opacity="0.01"/>
    </linearGradient>
    <linearGradient id="paint2_linear" x1="-4.06643" y1="204.066" x2="100" y2="204.066" gradientUnits="userSpaceOnUse" gradientTransform="matrix(1, 0, 0, 0.649789, 0, 34.619167)">
      <stop stop-color="white"/>
      <stop offset="1" stop-color="white" stop-opacity="0.01"/>
    </linearGradient>
    <linearGradient id="paint3_linear" x1="-4.06643" y1="204.066" x2="100" y2="204.066" gradientUnits="userSpaceOnUse" gradientTransform="matrix(1, 0, 0, 0.649093, -325, 34.422275)">
      <stop stop-color="white"/>
      <stop offset="1" stop-color="white" stop-opacity="0.01"/>
    </linearGradient>
    <linearGradient id="paint4_linear" x1="162.5" y1="143.75" x2="125.577" y2="88.3654" gradientUnits="userSpaceOnUse">
      <stop stop-color="#CEF2FD"/>
      <stop offset="1" stop-color="#8BDCFB"/>
    </linearGradient>
    <linearGradient id="paint5_linear" x1="147.5" y1="143.75" x2="109.1" y2="114.95" gradientUnits="userSpaceOnUse">
      <stop stop-color="#CEF2FD"/>
      <stop offset="1" stop-color="#8BDCFB"/>
    </linearGradient>
    <linearGradient id="paint6_linear" x1="103.75" y1="108.125" x2="101.997" y2="123.551" gradientUnits="userSpaceOnUse">
      <stop stop-color="#EEF2F5"/>
      <stop offset="1" stop-color="#AFC7D1" stop-opacity="0.4"/>
    </linearGradient>
    <linearGradient id="paint7_linear" x1="67.5" y1="146.25" x2="81.3462" y2="137.019" gradientUnits="userSpaceOnUse">
      <stop stop-color="#CEF2FD"/>
      <stop offset="1" stop-color="#2FB7EC"/>
    </linearGradient>
    <linearGradient id="paint8_linear" x1="197.5" y1="86.25" x2="185.5" y2="62.25" gradientUnits="userSpaceOnUse">
      <stop stop-color="#F0B616"/>
      <stop offset="1" stop-color="#FFD560"/>
    </linearGradient>
    <linearGradient id="paint9_linear" x1="212.5" y1="78.75" x2="212.5" y2="163.75" gradientUnits="userSpaceOnUse">
      <stop stop-color="#F0B616"/>
      <stop offset="1" stop-color="#FFD560"/>
    </linearGradient>
    <linearGradient id="paint10_linear" x1="292.5" y1="143.75" x2="252.5" y2="103.75" gradientUnits="userSpaceOnUse">
      <stop stop-color="#CEF2FD"/>
      <stop offset="1" stop-color="#8BDCFB"/>
    </linearGradient>
    <linearGradient id="paint11_linear" x1="276.25" y1="143.75" x2="261.759" y2="141.033" gradientUnits="userSpaceOnUse">
      <stop stop-color="#CEF2FD"/>
      <stop offset="1" stop-color="#8BDCFB"/>
    </linearGradient>
    <linearGradient id="paint12_linear" x1="31.25" y1="153.75" x2="51.073" y2="171.095" gradientUnits="userSpaceOnUse">
      <stop stop-color="#4A90E2"/>
      <stop offset="1" stop-color="#2F88EC"/>
    </linearGradient>
    <linearGradient id="paint13_linear" x1="310" y1="153.75" x2="290.488" y2="129.36" gradientUnits="userSpaceOnUse">
      <stop stop-color="#CEF2FD"/>
      <stop offset="1" stop-color="#8BDCFB"/>
    </linearGradient>
    <linearGradient id="paint14_linear" x1="301.25" y1="153.75" x2="288.099" y2="148.818" gradientUnits="userSpaceOnUse">
      <stop stop-color="#CEF2FD"/>
      <stop offset="1" stop-color="#8BDCFB"/>
    </linearGradient>
  </defs>
</svg>