<svg xmlns="http://www.w3.org/2000/svg" xmlns:xlink="http://www.w3.org/1999/xlink" width="300" height="200" viewBox="0 0 300 200">
    <defs>
        <path id="a" d="M0 0h300v200H0z"/>
        <path id="c" d="M30.8 19.87l9.87 8.826a.83.83 0 0 0 1.372-.482L44 16.5c-2.771.953-4.92 1.576-6.447 1.869-1.526.293-3.778.793-6.753 1.5z"/>
        <path id="d" d="M5.718 12.471l11.542 8.21a1.1 1.1 0 0 0 1.734-.808L20.25 4.4a641.948 641.948 0 0 1-6.428 4.051c-1.64 1.017-4.341 2.357-8.104 4.02z"/>
        <path id="e" d="M108.504 48.07h116.731l7.019 43.96h-129.66z"/>
    </defs>
    <g fill="none" fill-rule="evenodd">
        <mask id="b" fill="#fff">
            <use xlink:href="#a"/>
        </mask>
        <use fill="#D8D8D8" fill-opacity="0" xlink:href="#a"/>
        <ellipse cx="57.05" cy="184.7" fill="#E7EEFD" fill-rule="nonzero" mask="url(#b)" rx="28.05" ry="3.3"/>
        <path fill="#E7EEFD" fill-rule="nonzero" d="M267.63 82.847a115.013 115.013 0 0 1 14.245 74.353H53.285c-6.677-46.17 15.227-92.598 56.57-116.462 3.334-1.887 6.668-3.67 10.108-5.221 54.074-24.5 117.916-4.038 147.668 47.33z" mask="url(#b)"/>
        <g mask="url(#b)">
            <path stroke="#FCB237" stroke-dasharray="2.2" stroke-linecap="round" stroke-width="1.1" d="M232.5 65.9c18.168 13.108 37.46 20.028 57.878 20.762"/>
            <g transform="matrix(-1 0 0 1 307.3 65.9)">
                <use fill="#FFF" xlink:href="#c"/>
                <use fill="#FCB237" fill-opacity=".4" xlink:href="#c"/>
            </g>
            <g transform="matrix(-1 0 0 1 258.469 65.9)">
                <use fill="#FFF" xlink:href="#d"/>
                <use fill="#FCB237" fill-opacity=".6" xlink:href="#d"/>
            </g>
        </g>
        <g mask="url(#b)">
            <path stroke="#FCB237" stroke-dasharray="2.2" stroke-linecap="round" stroke-width="1.1" d="M104.88 70.3c-11.42 4.891-23.513 3.425-36.28-4.4-13.418 8.296-23.648 13.6-30.69 15.913a98.004 98.004 0 0 1-27.188 4.849"/>
            <path fill="#FCB237" fill-opacity=".4" d="M24.6 84.67l9.87 8.826a.83.83 0 0 0 1.372-.482L37.8 81.3c-2.771.953-4.92 1.576-6.447 1.869-1.526.293-3.778.793-6.753 1.5z"/>
        </g>
        <path fill="#FFCF71" d="M95 14.2l3.3 3.3-3.3 3.3-3.3-3.3z" mask="url(#b)"/>
        <path fill="#FFF" fill-rule="nonzero" d="M108.873 92.03h118.21v65.4h-118.21z"/>
        <path fill="#FFCF71" fill-rule="nonzero" d="M93.9 138.574h26.597V157.2H93.9z"/>
        <path fill="#FFE380" fill-rule="nonzero" d="M93.9 138.574h16.993V157.2H93.9z"/>
        <path fill="#1A4379" fill-rule="nonzero" d="M97.077 138.574h10.801v6.005l-2.142-.605-1.778.605-1.764-.605-1.764.605-1.764-.605-1.59.605zM113.597 138.574h3.812v6.005l-2.037-.611-1.775.611z"/>
        <path fill="#E7EEFD" fill-rule="nonzero" d="M122.9 110.13h23.662a2.945 2.945 0 0 1 2.945 2.945v44.355h-29.552v-44.355a2.945 2.945 0 0 1 2.945-2.945z"/>
        <circle cx="142.858" cy="133.772" r="2.216" fill="#8CACF6"/>
        <path fill="#E7EEFD" fill-rule="nonzero" d="M157.634 110.146h56.15c.816 0 1.477.662 1.477 1.478v28.075h-59.104v-28.075c0-.816.661-1.478 1.477-1.478z"/>
        <path fill="#FFF" fill-rule="nonzero" d="M188.664 119.012h20.687v17.731h-20.687z"/>
        <path fill="#4CC1BE" fill-rule="nonzero" d="M194.575 119.012h8.865v5.91l-2.216-1.182-1.831 1.182-2.602-1.182-2.216 1.182z"/>
        <path fill="#FFF" fill-rule="nonzero" d="M162.067 119.012h20.687v17.731h-20.687z"/>
        <path fill="#4CC1BE" fill-rule="nonzero" d="M167.978 119.012h8.865v5.91l-2.216-1.182-1.831 1.182-2.602-1.182-2.216 1.182z"/>
        <use fill="#376EEE" fill-rule="nonzero" xlink:href="#e"/>
        <path fill="#1A4379" fill-rule="nonzero" d="M115.892 42.16h102.694v5.91H115.892zM109.981 39.205h114.515a1.478 1.478 0 0 1 0 2.955H109.981a1.478 1.478 0 0 1 0-2.955z"/>
        <path fill="#001D53" fill-rule="nonzero" d="M218.586 39.205v8.866h-14.168c.269-2.988.768-5.96 1.507-8.866h12.66z"/>
        <path fill="#8CACF6" fill-rule="nonzero" d="M220.398 93.11c-.01 2.735-2.595 4.95-5.788 4.958h-.21c-3.192-.008-5.776-2.224-5.782-4.958-.01 2.735-2.596 4.95-5.788 4.958h-.21c-3.192-.008-5.776-2.224-5.783-4.958-.01 2.735-2.595 4.95-5.788 4.958h-.21c-3.192-.008-5.776-2.224-5.782-4.958-.01 2.735-2.596 4.95-5.788 4.958h-.21c-3.192-.008-5.776-2.224-5.783-4.958-.01 2.735-2.595 4.95-5.788 4.958h-.21c-3.192-.008-5.776-2.224-5.782-4.958-.01 2.735-2.596 4.95-5.788 4.958h-.21c-3.192-.008-5.776-2.224-5.783-4.958-.01 2.735-2.595 4.95-5.788 4.958h-.21c-3.192-.008-5.776-2.224-5.782-4.958-.01 2.735-2.596 4.95-5.788 4.958h-.21c-3.192-.008-5.776-2.224-5.783-4.958-.01 2.735-2.595 4.95-5.788 4.958h-.21c-3.192-.008-5.776-2.224-5.782-4.958-.01 2.735-2.596 4.95-5.788 4.958h-.21c-3.192-.008-5.776-2.224-5.783-4.958v-1.08h129.66v1.08c-.009 2.735-2.67 4.95-5.862 4.958h-.21c-3.192-.008-5.776-2.224-5.783-4.958z"/>
        <path fill="#8CACF6" fill-opacity=".8" fill-rule="nonzero" d="M156.157 136.743h59.104v2.956h-59.104z"/>
        <path fill="#FFF" fill-rule="nonzero" d="M252.458 46.34c-.001 5.625-2.555 10.958-6.97 14.555-4.413 3.598-10.232 5.087-15.878 4.066l-6.972 2.694a1.23 1.23 0 0 1-1.665-1.299l.596-4.824c-7.298-5.326-9.817-14.916-6.049-23.03 3.768-8.115 12.802-12.558 21.696-10.67 8.894 1.887 15.241 9.594 15.242 18.508z"/>
        <path fill="#001D53" fill-rule="nonzero" d="M219.451 40.358l-.036.184c-.112.803.362 1.65 1.125 1.958l4.56 1.863-.682 4.868c-.252 1.792.178 3.34 1.289 4.618 1.11 1.28 2.58 1.921 4.389 1.921l.38-.01c1.388-.072 2.672-.539 3.848-1.399l.11-.086-.187-.18c1.105 1.115 2.495 1.675 4.15 1.675 1.797 0 3.424-.633 4.87-1.892 1.446-1.258 2.299-2.784 2.549-4.565l.762-5.47c.095-.683-.585-1.19-1.437-1.19h-1.66c-.843 0-1.614.667-1.731 1.496l-.706 5.082c-.068.482-.302.9-.71 1.26-.406.36-.854.537-1.355.537-.474 0-.844-.164-1.133-.497-.29-.333-.399-.73-.33-1.218l.425-3.085c.02-.821-.588-1.433-1.392-1.433h-1.69c-.776 0-1.5.569-1.694 1.32l-.447 3.115c-.07.5-.303.919-.708 1.272-.406.353-.846.526-1.331.526-.474 0-.848-.167-1.145-.509-.296-.342-.41-.736-.344-1.206l.947-6.743c.118-.778-.338-1.594-1.064-1.93l-7.604-3.125c-.668-.27-1.36.284-1.583 1.146l-.435 1.697z"/>
        <path fill="none" d="M82.423 149.702H60.047v5.164h22.376a2.582 2.582 0 0 0 0-5.164z"/>
        <rect width="10.328" height="5.164" x="88.448" y="149.702" fill="none" rx="2.582"/>
        <path fill="#2FB7EC" d="M36.414 172.25c.006-.126 1.162 1.014 1.98 1.837h2.581c-2 3.584-2.98 5.431-2.938 5.543.273.732.987 1.908 2.14 3.528 1.068.542 2.703 3.702 1.633 4.412h-4.44s-6.001-8.067-6.17-8.47l5.214-6.85z"/>
        <path fill="#EF8D2E" d="M72.867 56.241s4.31 3.888 6.647 9.796c.98 2.478 2.062 8.245 2.475 12.506.338 3.492 3.233 11.449 4.723 14.718 1.489 3.27 2.916 7.754 2.963 10.897.048 3.143-16.147.152-16.147.152s-7.845-.34-8.725-3.381c-.88-3.042 3.162-46.296 3.162-46.296s3.162.206 4.902 1.608"/>
        <path fill="#2FB7EC" d="M76.933 178.14c-.058-.106 1.381.222 2.506.493l1.298.32c4.357 3.796 7.143 5.654 8.358 5.573 2.335-.155 4.63 3.474 1.856 3.044-9.222.095-13.894.095-14.018 0v-9.43z"/>
        <path fill="#376EEE" d="M39.76 177.622c4.414-3.588 21.639-25.061 21.639-25.061 3.287-4.062 3.51-7.347 1.494-8.96l-.675-.541c-2.015-1.614-8.061-1.71-8.077-1.69-11.782 14.402-16.963 25.352-19.655 30.758a1.866 1.866 0 0 0 .09 1.834c.885 1.392 2.787 3.824 5.184 3.66"/>
        <path fill="#0E3AA1" d="M82.538 109.181c-1.637-6.435-2.53-11.56-6.103-14.366L56.64 97.866c-1.903 8.222 5.8 14.807 11.309 29.472.948 2.524 3.498 12.945 4.913 18.706 1.38 5.625 6.292 7.266 8.634 6.36 3.87-1.496 4.015-5.7 4.094-6.51.818-8.38-1.623-31.098-3.052-36.713"/>
        <path fill="#0E3AA1" d="M85.557 143.666l-12.547-.828c-.023 7.923 1.997 28.64 3.275 35.478a2.046 2.046 0 0 0 1.454 1.607c1.475.41 3.908.96 4.815.427 2.444-21.38 3.445-33.608 3.003-36.684z"/>
        <path fill="#376EEE" d="M69.082 98.603c-1.285-6.548-23.84-13.177-20.178 14.657.841 6.392 4.115 30.472 6.882 34.783 1.095 1.705 6.22 3.658 6.68 2.992.412-.598 1.333-1.718 2.117-3.516 2.453-5.617 1.992-15.386 2.96-21.839.805-5.357 3.017-19.543 1.539-27.077"/>
        <path fill="#EF8D2E" d="M63.355 71.977l-.765.781c-2.28 2.331-6.562 1.848-9.563-1.079l-2.588-2.525-.041-.043c-6.9-6.595-14.302-17.323-14.964-19.602-.361-1.244 1.46-3.506 2.714-3.174 2.297.607 15.183 10.194 21.09 10.984l2.62 5.414c3 2.927 3.777 6.913 1.497 9.244zM69.089 60.12s7.693 11.624 9.807 8.76l5.427-8.103.029-.042c4.892-6.466 8.176-17.506 8.264-19.623.047-1.155-5.22-3.22-7.37.254-1.854 3.292-12.959 15.356-16.157 18.754"/>
        <path fill="#B577A1" d="M67.002 59.32c-1.17-.215-2.29-.864-3.305-1.747l.074 1.029 2.316 4.361 2.021-3.567a5.137 5.137 0 0 1-1.106-.076"/>
        <path fill="#EF8D2E" d="M83.484 18.969l-1.133.379c-1.164.39-1.77 1.712-1.382 2.962 4.686 15.115 4.31 20.377 4.31 20.377 1.259 9.965 8.879 1.363 7.057-3.688 0 0-5.054-16.627-6.202-18.876-.515-1.012-1.636-1.495-2.65-1.154M55.826 27.725c.637.558.696 1.534.129 2.165-1.462 1.626-4.696 4.426-6.801 7.52-1.628 2.393-5.885 8.655-8.57 17.713l-4.578-5.056a2.362 2.362 0 0 1-.576-2.033c.77-3.934 2.787-8.986 5.889-12.303l2.276-2.435.035-.034c2.793-3.03 6.675-5.833 8.476-7.234a1.442 1.442 0 0 1 1.843.052l1.877 1.645z"/>
        <path fill="#E7EEFD" d="M68.2 55.613c1.013.005 5.042 3.347 7.186 9.943 1.84 5.664 3.125 20.49 3.505 30.814.1 2.735-6.139 2.884-13.134 2.852-6.568-.03-16.656-.327-16.758-2.8-.208-5.04 4.489-24.811 5.257-29.045 4.695-10.306 8.76-11.197 9.191-11.362l4.754-.402"/>
        <path fill="#EF8D2E" d="M64.69 55.168l.477-.981s-2.317-.414-5.64 1.29c-2.237 1.148-4.645 2.02-5.233 2.227-1.764.146-3.632.404-4.328.96-3.493 3.944.789 11.25.789 16.09 0 4.841-.206 4.662-3.082 9.323-6.575 11.297-10.48 21.516-8.424 23.13 2.054 1.614 6.78 1.345 11.814 1.255 5.034-.09 3.493-2.151 3.493-3.496 0-1.345-.76-3.878-.308-8.338.217-2.144 1.817-5.868 3.796-8.964 3.17-4.96 4.438-8.366 5.01-10.333 1.705-5.855-1.022-14.052-1.022-14.052-.6-1.596-.717-2.703-.115-5.27.09-.384.855-1.402 1.78-1.592"/>
        <path fill="#FFF" d="M70.151 57.161s-3.684 2.459-6.454-.744l.75-2.6.058-2.615 6.544 2.154s-1.123.975-.898 3.805"/>
        <path fill="#E7EEFD" d="M56.77 26.995s-1.541 1.51-1.825 1.57c-.094.02-.71.433-1.582-.628-.328-.398-.573-.938-.383-1.405.115-.281.95-.88 1.463-1.35-.133-.323-.145-.514-.099-.748.133-.672.283-1.048.868-1.79.586-.743 1.301-1.822 2.153-2.19.852-.368.944.203.944.203s.271-.26.645-.109c.373.15.487.544.487.544s.452-.136.755.008c.303.145.435.566.435.566s.447-.362.811-.05c.364.311.038 1.255-.108 1.5a82.58 82.58 0 0 1-.433.704s.95.156.824.521c-.065.188-.978.798-1.349 1.587-.427.91-1.468 1.127-1.82 1.16-.821.076-1.786-.093-1.786-.093M80.986 18.779s.817 1.997 1.06 2.173c.08.059.49.688 1.767.128.48-.21.942-.58.96-1.074.012-.298-.524-1.186-.81-1.823.263-.227.356-.39.412-.617.16-.65.178-1.047-.06-1.955-.24-.907-.457-2.167-1.108-2.86-.65-.691-.982-.228-.982-.228s-.145-.345-.563-.374c-.418-.028-.694.27-.694.27s-.37-.316-.719-.318c-.348-.003-.652.31-.652.31s-.27-.511-.747-.393c-.478.118-.571 1.09-.536 1.369.035.278.11.81.11.81s-.966-.273-1.002.103c-.02.194.585 1.126.6 1.982.02.988.913 1.628 1.232 1.809.746.42 1.732.688 1.732.688"/>
        <path fill="#001D53" d="M72.69 47.772s1.066-.708 1.461-1.559c.396-.85.03-1.704.03-1.704s1.3-.76.564-1.724c-.736-.965-5.166-.892-5.166-.892l3.11 5.88"/>
        <path fill="#FFF" d="M72.187 44.124c2.09 6.893-.33 10.135-1.438 10.423-2.33.606-6.604-2.117-7.644-5.063-1.04-2.946.08-6.032 2.501-6.892 2.421-.86 5.673-1.458 6.58 1.532"/>
        <path fill="#001D53" d="M75.455 40.075c-.628-.826-1.486-1.952-4.014-.192-.61.425-1.283-.645-3.132-.788-2.857-.22-2.94 1.42-4.693 1.792-1.192.253-1.145 1.24-2.432 2.88-.83 1.058.376 2.082-.274 3.113-.76 1.205 1.549 1.768 1.48 2.674-.164 2.163 1.605 3.18 2.105 4.059.148.26.367-.83.44-1.122.334-1.304-.372-2.66-.354-2.715-.566-.153-1.891-.798-1.22-2.909.725-2.274 1.892.461 1.892.461s.453-1.074.341-1.826c-.227-1.524 1.375-1.924 3.41-1.457.879.202 1.269-.902 1.972-.661 1.16.397 2.308-.174 3.022.44.38.327 1.008-.293 1.454-.448 1.554-.543 1.06-1.914.003-3.301"/>
        <path fill="#001D53" d="M73.01 50.66s-.718-.74-1.363-.815c-.646-.073-2.368-.593-3.372.371-1.005.964-1.364.593-1.65 0-.288-.593-.79-4.003-1.22-4.374-.431-.37-.144 2.818-.144 2.818s.323.74.395 1.334c.071.593.25 1.075.18 1.705-.073.63.07 1.594.394 1.928.322.333 1.255 1.075 2.833 1 1.58-.073 2.082-.073 2.727-.926.646-.853 1.22-1.78 1.22-3.04"/>
        <path fill="#FFE380" fill-rule="nonzero" d="M24.38 44.119a8.364 8.364 0 0 0-.201.506c-.676 1.836-1.075 4.008-.839 6.272.35 3.346 2.074 6.163 5.426 8.063l1.28-2.472c-2.623-1.486-3.878-3.535-4.137-6.016-.182-1.74.138-3.48.668-4.92.06-.163.104-.27.123-.311l-2.32-1.122z"/>
        <path stroke="#E7EEFD" stroke-width="1.156" d="M214.9 37.967c3.927-8.528 13.343-13.197 22.613-11.214 9.27 1.984 15.886 10.083 15.887 19.451-.002 5.911-2.663 11.516-7.264 15.296"/>
        <g fill-rule="nonzero">
            <g transform="matrix(-1 0 0 1 265.72 145.76)">
                <path fill="#2FB7EC" d="M29.26 7.7h-15.4l1.54-6.16h15.4z"/>
                <path fill="#79D6FA" d="M4.62 6.16h29.26c.85 0 1.54.69 1.54 1.54v15.4c0 .85-.69 1.54-1.54 1.54H6.16c-.85 0-1.54-.69-1.54-1.54V6.16z"/>
                <rect width="15.4" height="18.48" x="4.62" y="6.16" fill="#2FB7EC" rx="1.54"/>
                <path fill="#FFF" d="M4.62 6.16h15.4L18.48 0H3.08z"/>
                <path fill="#001D53" d="M4.62 6.16v6.16H0z"/>
                <path fill="#006BA0" d="M13.86 20.02h6.16v2.31h-6.16z"/>
                <path fill="#2FB7EC" d="M20.02 20.02h1.54v2.31h-1.54z"/>
            </g>
            <path fill="#FFC72C" d="M201.04 139.6h33.88c.85 0 1.54.69 1.54 1.54v29.26H199.5v-29.26c0-.85.69-1.54 1.54-1.54z"/>
            <path fill="#FFE380" d="M201.04 139.6h23.1v30.8H199.5v-29.26c0-.85.69-1.54 1.54-1.54z"/>
            <path fill="#1A4379" d="M213.36 165.01h6.16v3.08h-6.16zM205.66 139.6h9.24v7.7l-1.528-.77-1.552.77-1.54-.77-1.54.77-1.54-.77-1.54.77zM233.38 139.6v7.7l-1.54-.77-.77.77-.77-.77-1.54.77v-7.7z"/>
        </g>
        <path fill="#9EB9F7" fill-opacity=".5" fill-rule="nonzero" d="M192.178 167.445h7.322v2.955h-7.322a1.478 1.478 0 1 1 0-2.955z"/>
        <rect width="3.3" height="2.955" x="185.2" y="167.445" fill="#9EB9F7" fill-opacity=".5" fill-rule="nonzero" rx="1.478"/>
    </g>
</svg>
