<svg width="40" height="41" viewBox="0 0 40 41" fill="none" xmlns="http://www.w3.org/2000/svg">
<circle cx="20" cy="20.5" r="20" fill="white"/>
<rect x="10" y="10.5" width="20" height="20" rx="2" fill="#E5ECFF"/>
<rect x="10.5" y="11" width="19" height="19" rx="1.5" stroke="#D0DBFF"/>
<path d="M17.707 23.5H18.994V17.497H17.707V19.855H14.872V17.497H13.594V23.5H14.872V20.98H17.707V23.5ZM20.267 23.5H22.634C24.515 23.5 25.82 22.312 25.82 20.503C25.82 18.694 24.515 17.497 22.634 17.497H20.267V23.5ZM21.545 22.375V18.622H22.634C23.867 18.622 24.515 19.441 24.515 20.503C24.515 21.52 23.822 22.375 22.634 22.375H21.545Z" fill="#ADC0FD"/>
<path fill-rule="evenodd" clip-rule="evenodd" d="M26 16.5V17.5H27V16.5H28V15.5H27V14.5H26V15.5H25V16.5H26Z" fill="#ADC0FD"/>
</svg>
