<svg width="410" height="219" viewBox="0 0 410 219" fill="none" xmlns="http://www.w3.org/2000/svg">
<path d="M35.1309 189.885C35.1309 190.989 36.0263 191.885 37.1309 191.885H331.881C332.986 191.885 333.881 190.989 333.881 189.885V3.68931C333.881 2.58474 332.986 1.6893 331.881 1.6893H37.1309C36.0263 1.6893 35.1309 2.58474 35.1309 3.6893V189.885Z" fill="#F0F4FF" stroke="#F0F4FF" stroke-width="2" stroke-linejoin="round"/>
<path d="M231.667 54.0819C231.667 51.1334 234.057 48.7432 237.006 48.7432H286.834C289.783 48.7432 292.173 51.1334 292.173 54.0819C292.173 57.0304 289.783 59.4207 286.834 59.4207H237.006C234.057 59.4207 231.667 57.0304 231.667 54.0819Z" fill="#ADC0FD"/>
<path d="M231.667 88.779C231.667 86.3219 233.659 84.3301 236.116 84.3301H287.724C290.181 84.3301 292.173 86.3219 292.173 88.779C292.173 91.2361 290.181 93.228 287.724 93.228H236.116C233.659 93.228 231.667 91.2361 231.667 88.779Z" fill="#ADC0FD"/>
<path fill-rule="evenodd" clip-rule="evenodd" d="M195.682 60.0079V63.682H183.106V43.5234H187.129V60.0079H195.682ZM203.182 63.682H199.332V43.5234H202.689L211.534 56.0824H211.774V43.5234H215.624V63.682H212.294L203.422 51.0672H203.182V63.682Z" fill="#ADC0FD"/>
<path fill-rule="evenodd" clip-rule="evenodd" d="M187.12 98.9662H183.106V78.8076H195.664V82.4119H187.12V87.6646H194.92V91.1151H187.12V98.9662ZM203.21 98.9662H199.37V78.8076H202.718L211.542 91.3666H211.781V78.8076H215.622V98.9662H212.299L203.449 86.3514H203.21V98.9662Z" fill="#ADC0FD"/>
<path fill-rule="evenodd" clip-rule="evenodd" d="M183.106 151.88C183.106 149.097 185.363 146.841 188.146 146.841H309.971C312.754 146.841 315.011 149.097 315.011 151.88C315.011 154.664 312.754 156.92 309.971 156.92H188.146C185.363 156.92 183.106 154.664 183.106 151.88Z" fill="#D0DBFF"/>
<rect x="47.666" y="43.0244" width="113.894" height="113.894" rx="4" fill="white"/>
<mask id="mask0_584_70522" style="mask-type:alpha" maskUnits="userSpaceOnUse" x="47" y="43" width="115" height="114">
<rect x="47.668" y="43.0234" width="113.894" height="113.894" rx="4" fill="#E5ECFF"/>
</mask>
<g mask="url(#mask0_584_70522)">
<path d="M117.09 101.15H95.6709V123.528H117.09V101.15Z" fill="#D58F66"/>
<path d="M117.09 100.83V104.111C114.676 108.121 110.789 110.674 106.48 110.674C102.057 110.674 98.0704 107.983 95.6709 103.759V101.558C98.4921 103.881 102.095 105.246 105.967 105.246C110.229 105.246 114.162 103.59 117.09 100.83Z" fill="#9C614E"/>
<path d="M124.331 71.0352V72.4534C124.331 77.3291 123.917 82.2049 123.104 87.0193L121.985 93.5969C121.571 96.0348 120.62 98.2656 119.279 100.182V100.19C118.635 101.11 117.906 101.953 117.094 102.697C114.165 105.457 110.232 107.112 105.97 107.112C102.099 107.112 98.4954 105.748 95.6742 103.425C95.1299 102.988 94.6163 102.513 94.1333 101.999C92.1477 99.8832 90.7065 97.223 90.0779 94.2179L88.9586 88.9282C87.7167 83.0405 87.0957 77.0455 87.0957 71.0352H124.331V71.0352Z" fill="#D58F66"/>
<path d="M89.6901 92.4763C89.6901 92.4763 85.0446 86.1061 84.297 77.349L82.2412 79.9521C82.2412 79.9521 82.8019 74.7325 85.9657 73.7981C85.9657 73.7981 81.6805 62.0507 95.4703 56.2705L93.0541 59.4343C93.0541 59.4343 119.713 47.1263 128.483 77.5225L125.506 75.8405C125.506 75.8405 124.12 88.8234 122.251 90.8658L121.768 77.1354C121.768 77.1354 104.988 63.7061 89.6901 77.3223V92.4763Z" fill="#152934"/>
<path d="M92.1059 85.637C92.1059 85.637 84.6466 79.8107 84.6543 86.304C84.6543 87.7606 85.0759 89.1941 85.8196 90.4131C88.6867 95.0665 92.6962 92.046 92.6962 92.046L92.1059 85.637Z" fill="#D58F66"/>
<path d="M119.617 85.637C119.617 85.637 127.076 79.8107 127.068 86.304C127.068 87.7606 126.647 89.1941 125.903 90.4131C123.036 95.0665 119.026 92.046 119.026 92.046L119.617 85.637Z" fill="#D58F66"/>
<path d="M86.7389 86.0817C86.7389 86.0817 89.2665 86.3813 88.6833 88.7782" stroke="#9C614E" stroke-width="0.75" stroke-miterlimit="10" stroke-linecap="round"/>
<path d="M124.949 86.0463C124.949 86.0463 122.231 86.3684 122.858 88.9458" stroke="#9C614E" stroke-width="0.75" stroke-miterlimit="10" stroke-linecap="round"/>
<path d="M106.532 90.6033C106.532 90.6033 104.832 92.2734 103.661 91.0918C103.122 90.7283 103.637 88.8605 104.161 86.8608" stroke="#152934" stroke-width="0.4" stroke-miterlimit="10" stroke-linecap="round"/>
<path d="M102.627 97.3291C103.319 98.3285 105.479 99.7276 108.587 97.3291" stroke="#152934" stroke-width="0.4" stroke-linecap="round"/>
<path fill-rule="evenodd" clip-rule="evenodd" d="M100.787 78.3463L92.2019 79.6278C92.2019 79.6278 96.8403 74.9653 100.787 78.3463Z" fill="#152934"/>
<path fill-rule="evenodd" clip-rule="evenodd" d="M109.395 79.021L118.252 79.0791C118.252 79.0791 112.874 75.5236 109.395 79.021Z" fill="#152934"/>
<path fill-rule="evenodd" clip-rule="evenodd" d="M114.929 82.7066C115.111 83.5995 114.398 84.6744 113.951 84.7653C113.504 84.8563 112.428 84.1452 112.693 83.1614C112.512 82.2684 113.224 81.1936 113.671 81.1027C114.028 80.5653 114.657 81.3672 114.929 82.7066Z" fill="#152934"/>
<path fill-rule="evenodd" clip-rule="evenodd" d="M97.5252 81.8581C97.7068 82.751 96.9942 83.8257 96.5471 83.9166C96.1 84.0076 95.0243 83.2966 95.2898 82.3128C95.1082 81.4199 95.8206 80.3451 96.2677 80.2542C96.7148 80.1632 97.3436 80.9652 97.5252 81.8581Z" fill="#152934"/>
<path d="M65.6777 177.697C65.6777 177.697 51.1578 203.486 34.8747 199.668C21.9264 196.632 4.0641 162.855 -3.90879 143.183C-3.90879 143.183 -9.16016 135.594 -10.0648 130.266C-10.0648 130.266 -14.1586 123.979 -15.7148 121.526C-16.0521 120.989 -15.9601 120.292 -15.5078 119.855C-15.2472 119.61 -14.9252 119.495 -14.5955 119.495C-14.2199 119.495 -13.8442 119.648 -13.5836 119.962L-8.66952 125.934C-8.46254 126.187 -8.09456 126.218 -7.84924 126.003L-7.66525 125.842C-7.48126 125.681 -7.4319 125.54 -7.53156 125.31L-11.483 115.684C-11.736 115.079 -11.414 114.389 -10.7931 114.19C-10.6781 114.151 -10.5631 114.136 -10.4481 114.136C-10.0724 114.136 -9.71213 114.328 -9.50514 114.657L-3.44115 123.795C-3.27249 124.056 -2.92751 124.133 -2.66686 123.972L-2.5672 123.91C-2.35254 123.78 -2.24521 123.527 -2.29888 123.289L-5.28105 110.663C-5.42671 110.034 -5.01273 109.413 -4.37643 109.306L-4.28444 109.291C-3.76313 109.206 -3.24949 109.498 -3.05784 109.996L1.61857 122.224C1.7029 122.446 1.91755 122.592 2.15521 122.592H2.28553C2.59985 122.592 2.85284 122.339 2.8605 122.024V113.734C2.87583 112.952 3.48913 112.316 4.26342 112.27H4.35542C5.07604 112.27 5.71234 112.784 5.835 113.497L8.34953 126.44C8.43386 126.923 9.04716 127.069 9.34614 126.686L11.784 122.99C12.1673 122.5 12.8649 122.316 13.3939 122.638C13.9459 122.975 14.4442 123.765 14.2142 125.574C13.9152 127.958 10.5574 135.218 8.84017 139.181L37.3279 177.804L46.8494 158.562L65.6777 177.697Z" fill="#D58F66"/>
<path d="M171.158 177.374C161.192 181.644 144.679 182.495 144.679 182.495V234.602H70.9376V174.806L66.3839 180.218C54.7082 175.948 41.6143 158.867 41.6143 158.867C41.6143 158.867 54.8999 126.976 87.0981 117.24C92.9014 115.484 99.3181 114.449 106.386 114.449C113.47 114.518 119.81 115.607 125.468 117.447C164.013 129.958 171.158 177.374 171.158 177.374Z" fill="#022786"/>
<path d="M125.464 117.447C124.543 120.327 119.871 122.163 115.38 123.284C109.483 124.757 103.286 124.728 97.391 123.248C92.7646 122.086 87.9209 120.187 87.0947 117.24C92.8981 115.484 99.3147 114.449 106.383 114.449C113.467 114.518 119.807 115.607 125.464 117.447Z" fill="#D58F66"/>
<path opacity="0.5" d="M70.9385 174.805V154.666" stroke="#022786" stroke-width="1.38182" stroke-miterlimit="10" stroke-linecap="round"/>
<path opacity="0.5" d="M136.678 147.568H120.286C120.286 152.951 120.286 164.726 128.359 164.726C136.401 164.726 136.595 152.719 136.677 147.628L136.678 147.568Z" fill="#022786" stroke="#022786" stroke-width="1.38182"/>
<path d="M87.7412 118.348C90.0309 122.872 102.039 130.175 118.408 124.85C122.613 122.532 122.613 122.532 125.403 118.348" stroke="#022786" stroke-width="0.65" stroke-linecap="round"/>
</g>
<path d="M219.23 124.43C241.627 112.341 271.762 121.39 243.131 146.719C227.107 160.895 244.26 112.66 261.013 129.386C265.103 133.468 270.308 143.736 272.071 145.651C277.118 151.135 287.999 138.641 291.768 130.418" stroke="#9CF0CD" stroke-width="4" stroke-linecap="round" stroke-linejoin="round"/>
<path d="M294.269 116.083C294.269 114.978 295.164 114.083 296.269 114.083H302.274C303.378 114.083 304.274 114.978 304.274 116.083V122.162C304.274 123.267 303.378 124.162 302.274 124.162H296.269C295.164 124.162 294.269 123.267 294.269 122.162V116.083Z" fill="#67D3A6"/>
<path d="M338.673 97.6748L374.336 133.338C377.619 136.621 377.619 141.943 374.336 145.226C371.054 148.509 365.731 148.509 362.448 145.226L326.785 109.563L338.673 97.6748Z" fill="#7996F9"/>
<path d="M267.346 109.562C287.043 129.258 318.977 129.258 338.673 109.562C358.37 89.8652 358.37 57.9311 338.673 38.2347C318.977 18.5384 287.043 18.5384 267.346 38.2347C247.65 57.9311 247.65 89.8652 267.346 109.562Z" fill="#7996F9"/>
<path d="M276.262 100.645C291.034 115.417 314.985 115.417 329.757 100.645C344.53 85.8728 344.53 61.9222 329.757 47.1499C314.985 32.3776 291.034 32.3776 276.262 47.1499C261.49 61.9222 261.49 85.8728 276.262 100.645Z" fill="white"/>
<path d="M301.47 110.879C321.124 110.879 337.057 94.9465 337.057 75.2926C337.057 55.6387 321.124 39.7061 301.47 39.7061C281.816 39.7061 265.884 55.6387 265.884 75.2926C265.884 94.9465 281.816 110.879 301.47 110.879Z" fill="white"/>
<mask id="mask1_584_70522" style="mask-type:alpha" maskUnits="userSpaceOnUse" x="265" y="36" width="76" height="76">
<path d="M303.01 111.646C323.858 111.646 340.758 94.7454 340.758 73.8976C340.758 53.0499 323.858 36.1494 303.01 36.1494C282.162 36.1494 265.262 53.0499 265.262 73.8976C265.262 94.7454 282.162 111.646 303.01 111.646Z" fill="white"/>
</mask>
<g mask="url(#mask1_584_70522)">
<rect x="248.443" y="49.8271" width="66.0003" height="7.07146" rx="3.53573" fill="#67D3A6" stroke="#67D3A6" stroke-width="2"/>
<rect x="248.443" y="85.71" width="66.0003" height="7.07146" rx="3.53573" fill="#67D3A6" stroke="#67D3A6" stroke-width="2"/>
</g>
<path fill-rule="evenodd" clip-rule="evenodd" d="M76.7723 135.757L39.6244 127.566C39.3386 127.47 39.0529 127.47 38.7671 127.566L1.61927 135.757C0.666757 135.948 0 136.805 0 137.757V158.332C0 178.049 9.33459 196.527 25.2415 208.148L38.0051 217.578C38.7671 218.149 39.7196 218.149 40.4817 217.578L53.2453 208.148C69.0569 196.527 78.3915 177.953 78.3915 158.332V137.757C78.3915 136.805 77.7248 135.948 76.7723 135.757Z" fill="#FFC72C"/>
<path fill-rule="evenodd" clip-rule="evenodd" d="M64.5376 151.575C64.2104 151.185 63.8052 150.868 63.348 150.644C62.8909 150.42 62.3919 150.294 61.8833 150.275C61.3746 150.256 60.8675 150.343 60.3947 150.532C59.9219 150.72 59.4939 151.006 59.1381 151.37L34.1646 176.908L22.4812 164.937C22.1088 164.555 21.6634 164.252 21.1715 164.046C20.6796 163.84 20.1513 163.735 19.618 163.738C19.0847 163.74 18.5573 163.85 18.0673 164.06C17.5772 164.27 17.1345 164.577 16.7654 164.962C15.9992 165.759 15.5716 166.823 15.5723 167.929C15.5729 169.034 16.0018 170.097 16.769 170.894L34.1646 188.972L64.3363 157.56C65.9216 155.907 66.0079 153.329 64.5376 151.575Z" fill="#FFECAB"/>
</svg>
