<svg xmlns="http://www.w3.org/2000/svg" width="341" height="180" fill="none" viewBox="0 0 341 180">
    <mask id="prefix__a" width="381" height="180" x="-20" y="0" maskUnits="userSpaceOnUse">
        <path fill="#C4C4C4" d="M-20 0H360V180H-20z"/>
    </mask>
    <g mask="url(#prefix__a)">
        <path fill="#E7EEFD" fill-opacity=".8" d="M264.623 113.152c11.678 20.148 16.152 43.614 12.77 66.562H72.455c-5.986-41.333 13.653-82.895 50.717-104.258 2.989-1.69 5.979-3.286 9.062-4.675 48.479-21.932 105.716-3.614 132.389 42.371z"/>
        <path fill="#376EEE" fill-rule="evenodd" d="M147.076 78.101c-.437-1.049-2.314-.925-2.344-.449-.024.38 0 1.707 0 2.825s-1.961 5.199-2.919 7.327c-1 2.218-1.491 1.894-1.646 4.905-.155 3.01-.051 4.505.688 6.762.801 2.444 1.827 2.519 1.578 6.276-.249 3.756-1.62 33.825-2.328 43.959-.696 9.967-.642 25.546-.642 30.283l25.398-.018s-3.908-9.002-3.647-19.171c.264-10.326-1.512-18.998-4.664-41.833-.298-2.152-1.84-10.236-.606-12.144 1.234-1.907 1.582-2.887 1.582-2.887-2.171-8.495-2.014-24.249-7.545-22.272l-1.17.727-1.735-4.29z" clip-rule="evenodd"/>
        <path fill="#0084B2" fill-rule="evenodd" d="M161.233 112.878l1.426-.577-36.426-90.237-1.426.577 36.426 90.237z" clip-rule="evenodd"/>
        <path fill="#376EEE" fill-rule="evenodd" d="M148.147 76.757s.134.318.202.524c.08.242-.66 1.183-.943 1.879-.284.695-.758 2.336.725 3.03 1.485.695 2.906-.567 2.906-.567s-3.285 5.272-3.348 6.377c-.063 1.106.19 1.768.727 2.21.537.443 1.926.6 2.937-.947 0 0-2.59 3.189-2.558 4.137.031.947.11 2.316 1.42 2.556 1.07.197 2.887-1.648 3.301-1.96-.353.368-1.947 1.739-2.195 2.655-.207.763.471 2.03 2.02 1.642 1.451-.361 1.713-.887 2.847-1.62.617 1.5 2.158 5.337 2.158 5.337s1.437-1.98 1.563-4.632c.126-2.652-.379-2.147-.506-3-.126-.853.506-1.894-.662-3.063-1.169-1.168-1.913-.753-1.913-.753s.528-.873 1.057-2.096c.305-.705.676-1.472.193-2.265-.372-.612-1.087-1.084-1.61-1.2-.852-.19-1.841.424-2.03.677 0 0 .696-1.114 1.09-2.04.274-.644.615-1.838.141-2.659-.474-.822-1.699-1.925-2.612-1.535-.702.3-1.221.912-1.221.912s.641-.825.51-1.727c-.198-1.362-1.843-2.283-3.001-2.275-.95.006-1.198.403-1.198.403z" clip-rule="evenodd"/>
        <path stroke="#0E3AA1" stroke-linecap="round" stroke-linejoin="round" stroke-opacity=".4" stroke-width=".5" d="M159.127 94.125s-1.924 1.925-2.939 2.547c-1.017.622-1.65 1.413-3.101 1.774-1.549.387-1.931-1.022-1.767-1.795.236-1.107 1.843-2.287 2.195-2.656-.413.313-2.231 2.158-3.3 1.962-1.31-.24-1.723-1.265-1.605-2.268.08-.673 1.202-2.808 2.742-4.426-1.54 1.618-2.22 1.432-2.9 1.058-.957-.527-1.02-1.522-.717-2.447.345-1.051 3.226-6.362 3.226-6.362s-1.345 1.373-2.83.679c-1.483-.695-1.114-2.39-.726-3.031.454-.753 1.084-1.514 1.004-1.756-.068-.207-.262-.647-.262-.647M154.438 85.678l-3.085 3.585M156.828 90.562l-3.312 3.433M150.662 95.939c.517 2.062.113 4.595-2.17 6.805"/>
        <path stroke="#0E3AA1" stroke-linecap="round" stroke-linejoin="round" stroke-opacity=".4" stroke-width=".5" d="M148.131 82.19c.525 2.37-1.35 7.514-1.35 7.514s-.852 1.483-2.235 1.57M150.961 81.512c.437-.656.875-1.156.875-1.156"/>
        <path fill="#376EEE" fill-rule="evenodd" d="M200.551 180s-1.808-24.961-2.272-27.794c-.351-2.143-1.263-10.323-3.005-11.782-1.742-1.458-2.364-2.292-2.364-2.292-.431-8.756-5.231-23.762.638-23.506l1.331.35.392-4.612c.108-1.13 1.939-1.566 2.108-1.12.134.354.504 1.631.834 2.7.328 1.067 3.407 4.387 4.951 6.138 1.609 1.824 1.982 1.37 3.019 4.2 1.038 2.832 1.378 4.291 1.338 6.664-.043 2.572-.794 2.875.344 6.464 3.633 11.439 13.126 44.59 13.126 44.59h-20.44z" clip-rule="evenodd"/>
        <path fill="#0084B2" fill-rule="evenodd" d="M192.145 147.724l-1.532-.13 7.256-85.582 1.532.13-7.256 85.582z" clip-rule="evenodd"/>
        <path fill="#376EEE" fill-rule="evenodd" d="M193.851 109.396s-.034.344-.038.561c-.005.254.98.937 1.456 1.516.477.58 1.414 2.008.201 3.11-1.213 1.102-2.943.314-2.943.314s4.693 4.07 5.08 5.107c.387 1.037.341 1.745-.042 2.326-.382.581-1.664 1.142-3.086-.038 0 0 3.416 2.283 3.664 3.197.25.914.579 2.246-.602 2.863-.964.503-3.245-.724-3.732-.901.446.249 2.373 1.088 2.881 1.89.423.668.148 2.078-1.446 2.166-1.494.081-1.898-.343-3.198-.709-.148 1.616-.486 5.736-.486 5.736s-1.958-1.468-2.861-3.964c-.904-2.497-.272-2.164-.403-3.016-.13-.851-1.042-1.661-.27-3.121.772-1.462 1.604-1.285 1.604-1.285s-.761-.677-1.627-1.691c-.5-.583-1.081-1.207-.853-2.108.175-.694.718-1.355 1.185-1.621.757-.432 1.882-.137 2.138.048 0 0-.994-.858-1.643-1.628-.452-.533-1.13-1.574-.92-2.498.211-.924 1.057-2.34 2.043-2.238.759.079 1.436.511 1.436.511s-.856-.598-.997-1.499c-.213-1.36 1.087-2.725 2.197-3.06.909-.274 1.262.032 1.262.032z" clip-rule="evenodd"/>
        <path stroke="#0E3AA1" stroke-linecap="round" stroke-linejoin="round" stroke-opacity=".4" stroke-width=".5" d="M188.485 129.231s2.407 1.272 3.561 1.567c1.154.295 1.992.862 3.486.78 1.594-.088 1.543-1.547 1.157-2.237-.551-.988-2.434-1.641-2.88-1.89.487.177 2.768 1.403 3.732.901 1.182-.617 1.273-1.718.864-2.641-.274-.62-1.976-2.329-3.926-3.42 1.95 1.091 2.544.714 3.084.154.759-.784.525-1.754-.038-2.549-.641-.902-4.959-5.126-4.959-5.126s1.691.915 2.904-.186c1.212-1.102.36-2.612-.201-3.111-.656-.585-1.482-1.127-1.477-1.381.004-.217.06-.696.06-.696M190.473 119.776l4.006 2.516M189.631 125.148l4.178 2.303M197.109 128.466c.114 2.123 1.248 4.424 4.082 5.862M198.977 121.364s-.86 1.278-1.417 3.276"/>
        <path stroke="#0E3AA1" stroke-linecap="round" stroke-linejoin="round" stroke-opacity=".4" stroke-width=".5" d="M195.47 114.583c.198 2.418 3.507 6.78 3.507 6.78s1.251 1.166 2.599.841M192.566 114.77c-.611-.498-1.177-.847-1.177-.847"/>
        <path fill="#2FB7EC" fill-rule="evenodd" d="M260.057 106.719l-64.034-5.471 3.34-39.081 64.033 5.47-3.339 39.082z" clip-rule="evenodd"/>
        <path fill="#fff" fill-rule="evenodd" d="M248.99 81.128c-1.248-.107-2.435.066-3.668.958l1.296-5.563c.083-.367-.294-.705-.837-.751l-1.298-.112c-.544-.047-1.088.353-1.209.887l-3.315 14.173c-.083.367.293.705.836.752l1.299.111c.534.046 1.065-.338 1.2-.858h.002l1.037-4.42c.21-.893.615-1.549 1.218-1.968.602-.419 1.236-.6 1.898-.543 1.343.115 1.809 1.053 1.396 2.81l-1.11 4.77c-.083.366.293.704.837.75l1.297.11c.544.048 1.088-.351 1.209-.886l1.25-5.16c.333-1.419.171-2.59-.485-3.514-.655-.924-1.607-1.44-2.853-1.546zM239.764 80.74l-.031-.022c-.87-.574-1.753-.837-2.947-.88-1.299-.048-2.435.238-3.377.853-.949.619-1.527 1.455-1.718 2.486-.193 1.046.096 1.865.858 2.433.361.274.695.489.991.637.294.148.73.329 1.297.54.549.204.963.42 1.228.637.244.2.344.4.304.613-.041.222-.172.393-.4.523-.238.135-.545.197-.912.183-.992-.036-1.902-.347-2.704-.923l-.598-.4c-.095-.065-.211-.102-.332-.106-.198-.008-.391.071-.516.211l-1.004 1.119c-.103.113-.152.258-.138.404.013.141.083.27.198.361.275.258.564.487.861.682.388.259.81.478 1.254.652.831.325 1.667.504 2.485.533 1.232.046 2.326-.25 3.25-.878.931-.634 1.505-1.511 1.707-2.608.206-1.115-.048-1.938-.754-2.451-.362-.26-.686-.456-.961-.585-.273-.127-.738-.312-1.382-.552-.636-.235-1.09-.44-1.349-.608-.227-.148-.313-.326-.269-.563.081-.444.561-.653 1.427-.62.697.024 1.377.244 2.023.65.132.088.277.192.409.294.165.112.296.162.423.166.189.008.36-.083.556-.294l.674-.724c.285-.306.335-.81.116-1.178-.092-.196-.393-.405-.669-.586zM230.323 74.793c-.504-.044-.971.092-1.4.407-.43.316-.703.725-.822 1.225-.118.502-.043.94.223 1.314.268.375.653.584 1.159.628.504.043.971-.094 1.401-.409.429-.315.703-.724.82-1.224.118-.501.044-.94-.223-1.315s-.653-.584-1.158-.626zM230.122 79.601l-1.272-.109c-.533-.046-1.066.346-1.185.869l-2.076 9.09c-.082.36.287.692.82.737l1.272.11c.533.045 1.066-.346 1.185-.87l2.076-9.09c.082-.36-.287-.692-.82-.737zM225.565 79.261l-1.416-.12c-.593-.052-1.186.384-1.318.967l-.978 4.339c-.108.474-.373.868-.795 1.186-.422.32-.877.457-1.367.415-.477-.04-.848-.247-1.113-.617s-.343-.797-.233-1.284l.591-2.634c.057-.53-.307-.981-.856-1.028l-1.442-.123c-.55-.048-1.1.325-1.281.844l-.604 2.634c-.11.486-.376.885-.796 1.196-.42.311-.868.447-1.344.406-.477-.04-.851-.25-1.121-.627-.272-.378-.353-.803-.246-1.276l1.305-5.757c.134-.56-.151-1.183-.644-1.468l-6.241-3.25c-.387-.197-.873.132-1.08.732l-.497 1.434c-.209.6.082 1.328.646 1.617l3.928 2.035-.988 4.352c-.331 1.459-.093 2.752.716 3.877.808 1.125 1.947 1.75 3.417 1.876 1.358.116 2.637-.235 3.836-1.054.817.992 1.898 1.545 3.242 1.66 1.471.126 2.845-.284 4.123-1.23s2.083-2.15 2.414-3.61l1.055-4.672c.09-.401-.32-.769-.913-.82z" clip-rule="evenodd"/>
        <path fill="#8CACF6" fill-rule="evenodd" d="M33.522 179.997c2.436-12.046 5.966-27.144 9.323-39.379.574-2.095 2.461-13.24 1.372-15.233-1.089-1.995-1.363-2.998-1.363-2.998 2.798-8.308 3.812-24.032 9.181-21.649l1.112.813 2.05-4.15c.513-1.013 2.376-.75 2.37-.273-.004.379-.126 1.702-.209 2.818-.084 1.113 1.57 5.329 2.366 7.522.832 2.286 1.345 2 1.276 5.014-.069 3.015-.285 4.496-1.19 6.692-.979 2.378-2.035 2.377-2.04 6.142-.012 12.929 1.892 41.775.192 54.681h-24.44z" clip-rule="evenodd"/>
        <path fill="#0084B2" fill-rule="evenodd" d="M38.638 131.036l-1.38-.681L75.28 53.341l1.38.68-38.022 77.015z" clip-rule="evenodd"/>
        <path fill="#8CACF6" fill-rule="evenodd" d="M54.228 95.981s-.156.307-.24.508c-.097.235.57 1.23.802 1.943.231.714.582 2.386-.95 2.969-1.532.582-2.855-.783-2.855-.783s2.883 5.503 2.864 6.609c-.02 1.107-.321 1.75-.889 2.15-.568.401-1.965.455-2.858-1.163 0 0 2.345 3.373 2.243 4.315-.102.943-.282 2.303-1.607 2.445-1.08.116-2.756-1.858-3.145-2.201.324.394 1.812 1.879 1.992 2.812.148.775-.622 1.988-2.138 1.487-1.42-.47-1.643-1.013-2.717-1.828-.728 1.451-2.55 5.163-2.55 5.163s-1.286-2.083-1.215-4.737c.072-2.654.54-2.113.728-2.953.189-.842-.363-1.927.889-3.006 1.252-1.077 1.963-.609 1.963-.609s-.461-.909-.898-2.169c-.25-.725-.564-1.518-.024-2.273.417-.582 1.165-.999 1.695-1.077.863-.125 1.804.561 1.974.827 0 0-.612-1.162-.936-2.116-.225-.663-.476-1.879.058-2.662.533-.783 1.838-1.794 2.719-1.337.677.352 1.15 1 1.15 1s-.578-.87-.38-1.76c.297-1.344 2.008-2.138 3.162-2.044.947.076 1.163.49 1.163.49z" clip-rule="evenodd"/>
        <path stroke="#0E3AA1" stroke-linecap="round" stroke-linejoin="round" stroke-opacity=".4" stroke-width=".5" d="M41.987 112.484s1.776 2.063 2.743 2.759c.966.697 1.539 1.532 2.96 2 1.516.501 2.001-.875 1.895-1.658-.154-1.122-1.668-2.418-1.992-2.812.39.342 2.064 2.317 3.145 2.201 1.325-.142 1.812-1.133 1.77-2.143-.03-.676-.99-2.888-2.406-4.617 1.417 1.729 2.107 1.594 2.814 1.271.994-.454 1.13-1.443.897-2.387-.267-1.075-2.744-6.584-2.744-6.584s1.24 1.469 2.77.887c1.533-.582 1.29-2.299.951-2.968-.397-.784-.968-1.592-.87-1.827.082-.2.308-.624.308-.624M47.292 104.409l2.81 3.806M44.545 109.102l3.048 3.67M50.295 114.923c-.67 2.018-.456 4.574 1.658 6.949"/>
        <path stroke="#0E3AA1" stroke-linecap="round" stroke-linejoin="round" stroke-opacity=".4" stroke-width=".5" d="M53.84 101.401c-.699 2.323.787 7.592.787 7.592s.74 1.543 2.113 1.733M51.069 100.514c-.387-.687-.787-1.218-.787-1.218"/>
        <path fill="#8CACF6" fill-rule="evenodd" d="M294.069 180h-15.144c.515-8.714 4.777-22.848 2.506-25.62-.929-1.134-3.57-4.298-4.115-6.414-.866-3.372-1.926-7.041-1.509-8.957.388-1.784-.088-4.744 1.089-4.871 1.696-.184 2.698 3.336 2.491 5.331-.098.94 1.253 3.715 1.488 5.157 0 0 1.624-4.847 1.884-6.744.302-2.189.211-14.035 1.79-14.532 2.149-.678 1.883 1.986 1.822 4.126-.064 2.217.119 10.286.699 10.32.58.035 1.739-9.183 2.189-11.069.307-1.294.513-3.664 2.087-3.545 1.663.126.926 3.614.617 6.626-.295 2.887-1.468 8.504-1.161 8.619.026.009.214.104.275-.004.669-1.177 1.728-7.721 2.176-9.274.327-1.133.977-3.713 1.933-3.93 1.477-.335 1.417 1.866 1.17 2.944-.246 1.077-1.92 11.335-2.06 11.867-.066.251.168.508.43.363.262-.145 2.303-5.984 2.65-7.49.305-1.33.862-2.949 2.095-2.758 1.338.206.253 4.008-.011 5.968-.231 1.722-2.078 6.641-2.078 6.641s-.633 6.507-.836 7.942c-.133.941-.646 2.022-1.09 2.816-.458.817-.647 1.735-.554 2.642L294.069 180z" clip-rule="evenodd"/>
        <path fill="#376EEE" fill-rule="evenodd" d="M243.755 180h18.046c.601-8.529-4.533-38.695-2.478-41.616.84-1.193 4.319-4.921 4.313-6.94-.009-3.525 1.373-7.12.506-8.887-.869-1.766-.77-4.754-1.884-4.822-1.606-.095-1.977 3.626-1.479 5.473.248.921-1.065 3.82-1.24 5.29 0 0-1.283-4.925-1.991-6.717-.708-1.794-7.282.838-7.567.97-.024.01-.262.132-.26.01.019-1.488-5.809 4.706-5.809 4.706s.802 6.543 1.038 7.984c.156.944.674 2.009 1.118 2.788.457.802.664 1.72.605 2.641L243.755 180z" clip-rule="evenodd"/>
        <path fill="#2F95C2" fill-rule="evenodd" d="M252.293 137.449l-7.658-4.359c-.866-.493-1.171-1.604-.678-2.471l10.596-18.618c.493-.865 1.606-1.171 2.471-.678l7.659 4.359c.866.492 1.171 1.605.679 2.47l-10.598 18.618c-.492.867-1.604 1.172-2.471.679z" clip-rule="evenodd"/>
        <path fill="#fff" fill-rule="evenodd" d="M254.63 135.993l-9.698-5.519 9.953-17.485 9.698 5.519-9.953 17.485z" clip-rule="evenodd"/>
        <path fill="#2FB7EC" fill-rule="evenodd" d="M253.221 115.911l9.698 5.52 1.663-2.923-9.697-5.519-1.664 2.922z" clip-rule="evenodd"/>
        <path fill="#0084B2" fill-rule="evenodd" d="M249.666 135.003l-1.587-.904c-.213-.121-.287-.394-.166-.607.121-.212.394-.287.607-.167l1.587.904c.213.121.288.395.166.607-.121.213-.394.288-.607.167zM261.306 114.804l-1.802-1.026c-.07-.04-.094-.129-.054-.199.039-.069.128-.094.198-.054l1.802 1.026c.069.04.094.129.054.198-.039.07-.129.095-.198.055z" clip-rule="evenodd"/>
        <path fill="#DFF3FB" fill-rule="evenodd" d="M255.191 123.385l-4.394-2.501 2.501-4.393 4.393 2.5-2.5 4.394zM259.88 126.054l-4.394-2.501 2.501-4.393 4.394 2.5-2.501 4.394zM252.543 128.036l-4.394-2.501 2.501-4.393 4.394 2.5-2.501 4.394zM257.233 130.705l-4.394-2.501 2.501-4.393 4.394 2.5-2.501 4.394zM249.896 132.687l-4.394-2.501 2.501-4.393 4.394 2.5-2.501 4.394zM254.586 135.356l-4.394-2.5 2.501-4.394 4.394 2.5-2.501 4.394z" clip-rule="evenodd"/>
        <path fill="#376EEE" fill-rule="evenodd" d="M263.593 131.292c-.009-3.525 1.374-7.12.505-8.887-.868-1.767-.769-4.753-1.883-4.82-1.605-.098-1.975 3.624-1.478 5.471.247.921-1.268 4.27-1.204 5.782M252.69 115.047c-1.055-1.323-2.573-.703-3.049.598-.478 1.301.003 2.01.003 2.01s-.533-.519-1.638.18c-1.104.697-.961 2.326-.648 2.81 0 0-.709-.268-1.598.45-.887.718-.965 1.935-.883 2.228.083.293.614 1.058.614 1.058s-1.195.126-1.491.947c-.296.822-.088 2.139-.088 2.139s1.076.646 2.771.717c1.691.07 1.962-.428 2.044-1.059.152-1.184-2.249-2.242-2.249-2.242s2.766.889 3.421.043c1.305-1.681-1.18-3.319-1.18-3.319s2.269 1.502 3.295-.277c.427-.744-1.198-2.389-1.198-2.389s1.693 1.983 2.73 1.607c1.355-.491 1.363-2.721-.856-5.501z" clip-rule="evenodd"/>
        <path fill="#1A4379" fill-rule="evenodd" d="M104.701 180l-17.306-.011c1.21-8.464 9.668-23.949 8.274-27.237-.568-1.344-3.183-5.722-2.753-7.694.752-3.444.16-7.249 1.38-8.794 1.22-1.544 1.753-4.485 2.858-4.316 1.589.244 1.167 3.96.29 5.662-.435.846.237 3.959.1 5.431 0 0 2.29-4.543 3.361-6.146 1.07-1.603 6.941 2.354 7.192 2.543.022.017.228.185.252.065.295-1.458 4.687 5.825 4.687 5.825s-2.164 6.228-2.698 7.585c-.351.891-1.083 1.822-1.68 2.491-.617.688-1.013 1.541-1.149 2.454L104.701 180z" clip-rule="evenodd"/>
        <path fill="#115775" fill-rule="evenodd" d="M102.738 153.319l8.406-2.646c.949-.3 1.483-1.322 1.183-2.273l-6.434-20.433c-.299-.951-1.322-1.484-2.273-1.184l-8.404 2.646c-.95.299-1.484 1.322-1.185 2.273l6.434 20.432c.3.952 1.323 1.485 2.273 1.185z" clip-rule="evenodd"/>
        <path fill="#fff" fill-rule="evenodd" d="M100.761 151.404l10.643-3.352-6.043-19.189-10.642 3.35 6.042 19.191z" clip-rule="evenodd"/>
        <path fill="#2FB7EC" fill-rule="evenodd" d="M106.372 132.069l-10.644 3.352-1.01-3.208 10.643-3.35 1.011 3.206z" clip-rule="evenodd"/>
        <path fill="#123D50" fill-rule="evenodd" d="M105.821 151.481l1.743-.548c.234-.073.364-.325.291-.558-.074-.234-.325-.365-.559-.291l-1.742.548c-.233.074-.364.325-.291.558.074.234.325.365.558.291zM98.702 129.283l1.978-.623c.076-.024.119-.106.095-.183-.024-.076-.106-.119-.183-.095l-1.977.623c-.077.024-.12.107-.096.183.025.076.107.119.183.095z" clip-rule="evenodd"/>
        <path fill="#DFF3FB" fill-rule="evenodd" d="M102.871 138.96l4.822-1.518-1.519-4.822-4.822 1.518 1.519 4.822zM97.724 140.581l4.821-1.519-1.518-4.821-4.822 1.518 1.519 4.822zM104.478 144.065l4.822-1.519-1.519-4.822-4.821 1.519 1.518 4.822zM99.331 145.686l4.822-1.52-1.518-4.821-4.822 1.519 1.518 4.822zM106.086 149.169l4.821-1.518-1.518-4.822-4.822 1.518 1.519 4.822zM100.938 150.79l4.822-1.519-1.518-4.822-4.822 1.519 1.518 4.822z" clip-rule="evenodd"/>
        <path fill="#1A4379" fill-rule="evenodd" d="M92.99 144.919c.752-3.444.16-7.251 1.38-8.794 1.22-1.544 1.753-4.485 2.857-4.316 1.59.244 1.167 3.959.292 5.661-.436.847.34 4.441-.043 5.906M107.072 131.336c1.312-1.07 2.664-.145 2.856 1.228.192 1.372-.427 1.963-.427 1.963s.63-.394 1.563.522c.931.914.449 2.476.042 2.884 0 0 .748-.113 1.465.776.718.889.538 2.095.395 2.365-.143.269-.824.904-.824.904s1.142.374 1.259 1.241c.116.865-.365 2.109-.365 2.109s-1.188.404-2.86.116c-1.668-.287-1.828-.831-1.775-1.464.1-1.191 2.671-1.718 2.671-1.718s-2.891.285-3.354-.68c-.92-1.918 1.853-2.996 1.853-2.996s-2.534.991-3.161-.965c-.262-.816 1.674-2.082 1.674-2.082s-2.074 1.581-3.008.995c-1.221-.767-.758-2.949 1.996-5.198z" clip-rule="evenodd"/>
        <path fill="#1ACC94" fill-rule="evenodd" d="M111.633 23.985l4.034 2.207c.817.446.817 1.62 0 2.065l-4.034 2.207c-.198.108-.36.27-.468.468l-2.207 4.035c-.447.816-1.619.816-2.066 0l-2.206-4.035c-.109-.198-.271-.36-.468-.467l-4.035-2.208c-.816-.445-.816-1.619 0-2.065l4.035-2.207c.197-.108.359-.27.468-.468l2.206-4.034c.447-.816 1.619-.816 2.066 0l2.207 4.034c.108.198.27.36.468.468zM336.161 106.758l4.035 2.207c.817.446.817 1.62 0 2.066l-4.035 2.206c-.197.108-.359.271-.467.469l-2.207 4.034c-.447.817-1.62.817-2.067 0l-2.206-4.034c-.107-.198-.27-.361-.467-.469l-4.036-2.206c-.815-.446-.815-1.62 0-2.066l4.036-2.207c.197-.108.36-.271.467-.467l2.206-4.035c.447-.816 1.62-.816 2.067 0l2.207 4.035c.108.196.27.359.467.467z" clip-rule="evenodd"/>
        <path fill="#FFD560" fill-rule="evenodd" d="M240.977 40.224l2.532 1.385c.512.28.512 1.016 0 1.296l-2.532 1.384c-.124.069-.226.17-.293.294l-1.385 2.532c-.28.512-1.016.512-1.296 0l-1.385-2.532c-.068-.124-.17-.225-.294-.294l-2.531-1.384c-.512-.28-.512-1.016 0-1.296l2.531-1.385c.124-.068.226-.17.294-.294l1.385-2.532c.28-.511 1.016-.511 1.296 0l1.385 2.532c.067.124.169.226.293.294z" clip-rule="evenodd"/>
        <path fill="#1ACC94" fill-rule="evenodd" d="M7.568 91.835L10.1 93.22c.512.28.512 1.016 0 1.296l-2.532 1.385c-.124.068-.225.17-.292.294L5.89 98.726c-.28.512-1.015.512-1.296 0l-1.385-2.531c-.068-.124-.17-.226-.294-.294l-2.53-1.385c-.513-.28-.513-1.015 0-1.296l2.53-1.385c.124-.067.226-.17.294-.293l1.385-2.532c.28-.512 1.016-.512 1.296 0l1.386 2.532c.067.123.168.225.292.293z" clip-rule="evenodd"/>
        <path fill="#376EEE" fill-opacity=".5" fill-rule="evenodd" d="M226.729 7.668c0 1.394-1.13 2.523-2.524 2.523-1.393 0-2.523-1.13-2.523-2.523 0-1.394 1.13-2.523 2.523-2.523 1.394 0 2.524 1.129 2.524 2.523zM314.649 56.146c0 1.393-1.13 2.523-2.523 2.523-1.395 0-2.524-1.13-2.524-2.523 0-1.395 1.129-2.523 2.524-2.523 1.393 0 2.523 1.129 2.523 2.523z" clip-rule="evenodd"/>
        <path fill="#FFD560" fill-rule="evenodd" d="M30.896 135.462c0 1.394-1.13 2.524-2.523 2.524-1.394 0-2.524-1.13-2.524-2.524 0-1.394 1.13-2.523 2.524-2.523 1.393 0 2.523 1.129 2.523 2.523zM309.083 153.926c0 1.394-1.129 2.523-2.524 2.523-1.393 0-2.523-1.129-2.523-2.523 0-1.394 1.13-2.523 2.523-2.523 1.395 0 2.524 1.129 2.524 2.523z" clip-rule="evenodd"/>
        <path fill="#8CACF6" fill-opacity=".5" fill-rule="evenodd" d="M48.592 56.146c0 1.393-1.13 2.523-2.523 2.523-1.394 0-2.524-1.13-2.524-2.523 0-1.395 1.13-2.523 2.524-2.523 1.394 0 2.523 1.129 2.523 2.523z" clip-rule="evenodd"/>
        <path fill="#2FB7EC" fill-rule="evenodd" d="M117.581 118.635L58.994 89.767l17.62-35.757L135.2 82.878l-17.619 35.757z" clip-rule="evenodd"/>
        <path fill="#ED2939" d="M126.679 23.27L184.275 0l17.453 43.197-57.596 23.27-17.453-43.197z"/>
        <path fill="#fff" d="M142.878 16.726l10.799-4.364L171.13 55.56l-10.799 4.363-17.453-43.197z"/>
        <path fill="#fff" d="M133.224 39.47L190.82 16.2l4.363 10.798-57.596 23.27-4.363-10.799z"/>
        <path fill="#002664" d="M145.578 15.635l5.399-2.182L168.43 56.65l-5.399 2.182-17.453-43.197z"/>
        <path fill="#002664" d="M134.314 42.17l57.597-23.271 2.181 5.4-57.596 23.27-2.182-5.4z"/>
    </g>
</svg>
