<svg xmlns="http://www.w3.org/2000/svg" xmlns:xlink="http://www.w3.org/1999/xlink" width="209" height="160" viewBox="0 0 209 160">
    <defs>
        <path id="a" d="M0 0h208v160H0z"/>
        <path id="c" d="M0 0h16v16H0z"/>
        <path id="e" d="M0 0h16v16H0z"/>
        <path id="g" d="M0 0h16v16H0z"/>
    </defs>
    <g fill="none" fill-rule="evenodd">
        <mask id="b" fill="#fff">
            <use xlink:href="#a"/>
        </mask>
        <use fill="#D8D8D8" fill-opacity="0" fill-rule="nonzero" xlink:href="#a"/>
        <g mask="url(#b)">
            <path fill="#2F88EC" fill-opacity=".12" d="M122.64 64.014c-5.94 1.591-9.47 7.682-7.883 13.604 1.587 5.921 7.689 9.431 13.63 7.84l23.05-6.177c5.941-1.592 12.043 1.918 13.63 7.84 1.587 5.92-1.943 12.012-7.884 13.603l-37.181 9.963c5.258-1.409 10.659 1.698 12.063 6.938l.66 2.465c1.405 5.241-1.72 10.632-6.977 12.04l-98.049 26.273c-5.94 1.591-12.043-1.918-13.63-7.84-1.586-5.921 1.943-12.012 7.884-13.604l23.05-6.176c5.942-1.592 9.472-7.683 7.885-13.604-1.587-5.922-7.689-9.432-13.63-7.84l-23.05 6.176c-5.941 1.592-12.044-1.918-13.63-7.839-1.587-5.921 1.943-12.012 7.884-13.604l38.417-10.294c5.941-1.592 9.471-7.683 7.884-13.604-1.586-5.922-7.689-9.431-13.63-7.84l-10.756 2.883c-5.941 1.592-12.044-1.918-13.63-7.84-1.587-5.921 1.943-12.012 7.884-13.604L138.81 13.715c5.94-1.592 12.043 1.918 13.63 7.84 1.586 5.92-1.943 12.012-7.884 13.603l41.49-11.117c5.942-1.592 12.044 1.918 13.63 7.84 1.587 5.92-1.943 12.012-7.884 13.604l-69.151 18.529z"/>
            <g transform="translate(30 32)">
                <path fill="#FFF" stroke="#2F88EC" stroke-width="4" d="M135.172 94L158 71.172V4a2 2 0 0 0-2-2H4a2 2 0 0 0-2 2v88a2 2 0 0 0 2 2h131.172z"/>
                <g fill="#2FB7EC" fill-rule="nonzero" transform="translate(90 14)">
                    <rect width="26" height="10" rx="2"/>
                    <rect width="8" height="10" x="34" rx="2"/>
                    <rect width="4" height="10" x="28" rx="2"/>
                    <rect width="12" height="10" x="44" rx="2"/>
                </g>
                <g fill-rule="nonzero">
                    <path fill="#FFF" d="M73 92h52v4H73z"/>
                    <g fill="#2F88EC" transform="translate(69 92)">
                        <rect width="21" height="4" rx="2"/>
                        <rect width="6" height="4" x="24" rx="2"/>
                        <rect width="25" height="4" x="33" rx="2"/>
                    </g>
                </g>
                <g fill-rule="nonzero">
                    <path fill="#FFF" d="M8 0h52v4H8z"/>
                    <g fill="#2F88EC" transform="translate(6)">
                        <rect width="19" height="4" rx="2"/>
                        <rect width="6" height="4" x="22" rx="2"/>
                        <rect width="25" height="4" x="31" rx="2"/>
                    </g>
                </g>
                <rect width="20" height="20" x="16" y="38" fill="#FFF" rx="3.333"/>
                <g transform="translate(18 40)">
                    <mask id="d" fill="#fff">
                        <use xlink:href="#c"/>
                    </mask>
                    <use fill="#CD2D2D" fill-opacity="0" xlink:href="#c"/>
                    <g fill="#2EE3AA" stroke="#2EE3AA" stroke-width=".5" mask="url(#d)">
                        <path d="M6.657 9.96l6.187-6.187a1.25 1.25 0 0 1 1.768 1.768L7.54 12.61a1.25 1.25 0 0 1-1.768 0L1.53 8.37a1.25 1.25 0 0 1 1.768-1.768l3.359 3.36z"/>
                    </g>
                </g>
                <rect width="20" height="20" x="16" y="58" fill="#FFF" rx="3.333"/>
                <g transform="translate(18 60)">
                    <mask id="f" fill="#fff">
                        <use xlink:href="#e"/>
                    </mask>
                    <use fill="#CD2D2D" fill-opacity="0" xlink:href="#e"/>
                    <g fill="#2EE3AA" stroke="#2EE3AA" stroke-width=".5" mask="url(#f)">
                        <path d="M6.657 9.96l6.187-6.187a1.25 1.25 0 0 1 1.768 1.768L7.54 12.61a1.25 1.25 0 0 1-1.768 0L1.53 8.37a1.25 1.25 0 0 1 1.768-1.768l3.359 3.36z"/>
                    </g>
                </g>
                <g fill="#326BEE" fill-rule="nonzero" transform="translate(40 62)">
                    <rect width="28" height="4" rx="2"/>
                    <rect width="28" height="4" y="8" rx="2"/>
                    <circle cx="32" cy="10" r="2"/>
                </g>
                <g fill="#326BEE" fill-rule="nonzero" transform="translate(40 42)">
                    <rect width="44" height="4" rx="2"/>
                    <rect width="28" height="4" y="8" rx="2"/>
                </g>
                <rect width="16" height="10" x="16" y="14" fill="#2FB7EC" fill-rule="nonzero" rx="2"/>
                <rect width="26" height="4" x="134" y="69" fill="#2F88EC" fill-rule="nonzero" rx="2"/>
                <rect width="4" height="26" x="134" y="69" fill="#2F88EC" fill-rule="nonzero" rx="2"/>
                <rect width="48" height="2" x="36" y="22" fill="#2FB7EC" fill-rule="nonzero" rx="1"/>
                <g transform="translate(92 52)">
                    <circle cx="16" cy="16" r="16" fill="#2EE3AA" fill-rule="nonzero"/>
                    <g transform="translate(8 8)">
                        <mask id="h" fill="#fff">
                            <use xlink:href="#g"/>
                        </mask>
                        <use fill="#CD2D2D" fill-opacity="0" xlink:href="#g"/>
                        <g fill="#FFF" stroke="#FFF" stroke-width=".5" mask="url(#h)">
                            <path d="M6.657 9.96l6.187-6.187a1.25 1.25 0 0 1 1.768 1.768L7.54 12.61a1.25 1.25 0 0 1-1.768 0L1.53 8.37a1.25 1.25 0 0 1 1.768-1.768l3.359 3.36z"/>
                        </g>
                    </g>
                </g>
                <g fill-rule="nonzero">
                    <path fill="#2F88EC" d="M148.426 29.574c-3.892-3.893-10.249-3.893-14.142 0-2.473 2.473-3.288 5.92-2.618 9.115l-10.64 7.7a1.5 1.5 0 0 0-.177 2.276l12.728 12.728-2.828 2.829-16.97-16.97 2.828-2.83.707.708a1.5 1.5 0 1 0 2.121-2.121l-1.768-1.768a1.5 1.5 0 0 0-2.121 0l-4.95 4.95a1.5 1.5 0 0 0 0 2.12l.707.708-2.475 2.475a1.5 1.5 0 0 0 0 2.121l15.557 15.557a1.5 1.5 0 0 0 2.121 0l2.475-2.475.707.707a1.5 1.5 0 0 0 2.121 0l4.95-4.95a1.5 1.5 0 0 0 0-2.121l-4.342-4.342 6.894-9.657c3.194.67 6.642-.145 9.115-2.618 3.893-3.893 3.893-10.25 0-14.142z"/>
                    <path fill="#FFF" d="M116.607 44.423l16.97 16.97-2.828 2.829-16.97-16.97zM113.425 51.14l13.435 13.435-1.415 1.415-13.435-13.435z"/>
                </g>
            </g>
            <g fill="#2F88EC" fill-opacity=".12" transform="rotate(-15 598.204 -334.661)">
                <rect width="32" height="8" rx="4"/>
                <rect width="12" height="8" x="36" rx="4"/>
            </g>
            <rect width="12" height="8" fill="#2F88EC" fill-opacity=".12" rx="4" transform="rotate(-15 115.88 -583.618)"/>
        </g>
    </g>
</svg>
