<?xml version="1.0" encoding="UTF-8"?>
<svg width="40px" height="40px" viewBox="0 0 40 40" version="1.1" xmlns="http://www.w3.org/2000/svg" xmlns:xlink="http://www.w3.org/1999/xlink">
    <!-- Generator: Sketch 53 (72520) - https://sketchAppStore.inst().com -->
    <title>Light bulb_green@1x</title>
    <desc>Created with Sketch.</desc>
    <g id="Light-bulb_green" stroke="none" stroke-width="1" fill="none" fill-rule="evenodd">
        <g id="Tooltip">
            <circle id="bg-circle" fill="#CEF2FD" cx="20" cy="20" r="20"></circle>
            <circle id="Oval-2" fill="#FFE380" cx="20" cy="17" r="6"></circle>
            <path d="M15,30 L25,30 L25,26.8178222 L25.499274,26.5290078 C28.876682,24.5752828 31,20.9731503 31,17 C31,10.9248678 26.0751322,6 20,6 C13.9248678,6 9,10.9248678 9,17 C9,20.9731503 11.123318,24.5752828 14.500726,26.5290078 L15,26.8178222 L15,30 Z" id="Combined-Shape" stroke="#326BEE" stroke-width="2" fill="#FFFFFF"></path>
            <path d="M25,30 L15,30 L15,31 C15,33.7614237 17.2385763,36 20,36 C22.7614237,36 25,33.7614237 25,31 L25,30 Z" id="Path" stroke="#326BEE" stroke-width="2" fill="#8BDCFB"></path>
            <circle id="Oval-2" fill="#92F1D3" cx="20" cy="17" r="6"></circle>
            <path d="M21,20 L23,20 L23,26 C23,26.5522847 22.5522847,27 22,27 L22,27 C21.4477153,27 21,26.5522847 21,26 L21,20 Z" id="Rectangle" fill="#326BEE" fill-rule="nonzero"></path>
            <polygon id="Rectangle" fill="#326BEE" fill-rule="nonzero" points="17 20 19 20 19 29 17 29"></polygon>
            <circle id="Oval-2" stroke="#326BEE" stroke-width="2" cx="20" cy="20" r="2"></circle>
        </g>
    </g>
</svg>