<?xml version="1.0" encoding="UTF-8"?>
<svg width="40px" height="40px" viewBox="0 0 40 40" version="1.1" xmlns="http://www.w3.org/2000/svg" xmlns:xlink="http://www.w3.org/1999/xlink">
    <!-- Generator: Sketch 53 (72520) - https://sketchAppStore.inst().com -->
    <title>Light bulb_yellow@1x</title>
    <desc>Created with Sketch.</desc>
    <defs>
        <rect id="path-1" x="0" y="0" width="32" height="32"></rect>
    </defs>
    <g id="Light-bulb_yellow" stroke="none" stroke-width="1" fill="none" fill-rule="evenodd">
        <g id="Tooltip">
            <circle id="bg-circle" fill="#CEF2FD" cx="20" cy="20" r="20"></circle>
            <circle id="Oval-2" fill="#FFE380" cx="20" cy="17" r="6"></circle>
            <g id="Group" transform="translate(4.000000, 5.000000)">
                <mask id="mask-2" fill="white">
                    <use xlink:href="#path-1"></use>
                </mask>
                <use id="Mask" fill-opacity="0" fill="#FF3838" xlink:href="#path-1"></use>
                <path d="M11,25 L21,25 L21,21.8178222 L21.499274,21.5290078 C24.876682,19.5752828 27,15.9731503 27,12 C27,5.92486775 22.0751322,1 16,1 C9.92486775,1 5,5.92486775 5,12 C5,15.9731503 7.12331797,19.5752828 10.500726,21.5290078 L11,21.8178222 L11,25 Z" id="Combined-Shape" stroke="#326BEE" stroke-width="2" fill="#FFFFFF" mask="url(#mask-2)"></path>
                <path d="M21,25 L11,25 L11,26 C11,28.7614237 13.2385763,31 16,31 C18.7614237,31 21,28.7614237 21,26 L21,25 Z" id="Path" stroke="#326BEE" stroke-width="2" fill="#8BDCFB" mask="url(#mask-2)"></path>
            </g>
            <circle id="Oval-2" fill="#FFE380" cx="20" cy="17" r="6"></circle>
            <path d="M21,20 L23,20 L23,26 C23,26.5522847 22.5522847,27 22,27 L22,27 C21.4477153,27 21,26.5522847 21,26 L21,20 Z" id="Rectangle" fill="#326BEE" fill-rule="nonzero"></path>
            <polygon id="Rectangle" fill="#326BEE" fill-rule="nonzero" points="17 20 19 20 19 29 17 29"></polygon>
            <circle id="Oval-2" stroke="#326BEE" stroke-width="2" cx="20" cy="20" r="2"></circle>
        </g>
    </g>
</svg>