<svg xmlns="http://www.w3.org/2000/svg" xmlns:xlink="http://www.w3.org/1999/xlink" width="440" height="200" viewBox="0 0 440 200">
    <defs>
        <rect id="a" width="440" height="200" rx="4"/>
        <linearGradient id="d" x1="50%" x2="50%" y1="-96.222%" y2="100%">
            <stop offset="0%" stop-color="#2F88EC" stop-opacity=".6"/>
            <stop offset="100%" stop-color="#2F88EC"/>
        </linearGradient>
        <path id="c" d="M39 178.693v-40.784c-2.965 6.365-18 18.091-18 29.513 0 2.039.39 5.603 2.428 7.567 2.038 1.964 4.75 2.999 7.967 2.469L39 178.693z"/>
        <path id="e" d="M177.357 178.693v-41.454C174.393 143.604 159 154 159 167.422c0 2.039.39 5.603 2.428 7.567 2.038 1.964 4.75 2.999 7.967 2.469l7.962 1.235z"/>
        <path id="f" d="M99 86c13.285 0 29.45 6.381 38.599 20v40a4 4 0 0 1-4 4H65a4 4 0 0 1-4-4v-40c10.21-11.08 21.94-20 38-20z"/>
        <path id="g" d="M68.395 59.007c-6.048-2.99-9.186-24.6 2.558-27.538 2.478-.62 7.33-3.325 8.317-5.702 4.765-11.483-13.67-23.144 25.504-18.86 17.48 1.912-5.162 14.08 6.557 10.525 25.52-7.742 18.567 9.435 17.9 11.128-1.156 2.933-8.69 5.81-5.946 7.324 4.87 2.688 11.715-.545 11.715 3.997 0 3.156-4.443 6.163-7.23 8.082-2.789 1.919-1.837 13.641-7.162 13.839-29.735.645-47.14-.286-52.213-2.795z"/>
        <circle id="h" cx="121" cy="62" r="4"/>
        <circle id="i" cx="81" cy="62" r="4"/>
        <path id="j" d="M0 0h8v16H0z"/>
        <circle id="k" cx="4" cy="16" r="4"/>
        <path id="l" d="M97 85.6V70h8v15.6c-1.292.262-2.63.4-4 .4s-2.708-.138-4-.4z"/>
        <path id="m" d="M0 21V0h36a4 4 0 0 1 4 4v17c0 11.598-8.954 21-20 21S0 32.598 0 21z"/>
        <path id="n" d="M18 24v-8a2 2 0 1 1 4 0v8h-4z"/>
        <path id="o" d="M20 20h2v5a1 1 0 0 1-1 1h-3a1.657 1.657 0 0 1-1.172-2.828L20 20z"/>
        <path id="p" d="M80 42.522c23.475 6.064 25.07-8.65 42-6.216V24L88.891 34.259 80 42.522z"/>
        <path id="q" d="M42 98h114a3 3 0 0 1 3 3v70a3 3 0 0 1-3 3H42a3 3 0 0 1-3-3v-70a3 3 0 0 1 3-3z"/>
        <path id="r" d="M19 33a23.925 23.925 0 0 1 17 7.059V47a2 2 0 0 1-2 2H2a2 2 0 0 1-2-2v-4c4.357-6.056 10.97-10 19-10z"/>
        <path id="s" d="M5.999 21.082C3.524 19.9 2.24 11.36 7.045 10.198c1.014-.245 2.998-1.314 3.402-2.253C12.397 3.406 4.856-1.202 20.879.49c7.15.756-2.111 5.565 2.682 4.16C34 1.59 31.156 8.379 30.883 9.049c-.473 1.159-3.554 2.296-2.432 2.894 1.992 1.062 4.792-.215 4.792 1.58 0 1.247-1.817 2.436-2.957 3.194s-.752 5.391-2.93 5.47C15.193 22.442 8.074 22.073 6 21.082z"/>
        <path id="t" d="M4.388 3.61C2.935 2.952 2.208 1.75 2.208 0c.29.553.567.975.83 1.265.57.63 1.188.764 1.933 1.119l-.583 1.225z"/>
        <path id="u" d="M3.915 5.78c-1.49-.567-2.2-1.69-2.13-3.37.28.518.552.91.815 1.178.57.58 1.208.682 1.972.99L3.915 5.78z"/>
        <ellipse id="v" cx="27.357" cy="21.875" rx="2.214" ry="2.188"/>
        <ellipse id="w" cx="10.779" cy="21.875" rx="2.243" ry="2.188"/>
        <path id="x" d="M0 0h3.263v6.364H0z"/>
        <ellipse id="y" cx="1.632" cy="7.364" rx="1.632" ry="1.591"/>
        <path id="z" d="M17.684 33.66v-6.205h3.263v6.204a8.398 8.398 0 0 1-3.263 0z"/>
        <path id="A" d="M0 9.5V0h14.4A1.6 1.6 0 0 1 16 1.6v7.9c0 4.694-3.582 8.5-8 8.5s-8-3.806-8-8.5z"/>
        <path id="B" d="M7.2 10.714V7.476c0-.447.358-.81.8-.81.442 0 .8.363.8.81v3.238H7.2z"/>
        <path id="C" d="M8 9.095h.8v2.029a.4.4 0 0 1-.4.4H7.2a.668.668 0 0 1-.475-1.138L8 9.096z"/>
        <path id="D" d="M7.54 16.734c9.552 2.357 10.201-4.362 17.09-3.416V9.536l-13.472 3.987-3.618 3.211z"/>
        <path id="E" d="M8.416 8.25C4.806 6.75 3 4 3 0c.722 1.265 1.41 2.229 2.062 2.891C6.48 4.332 8.012 4.64 9.864 5.448L8.416 8.25z"/>
        <path id="F" d="M7.328 13.469c-3.611-1.5-5.416-4.25-5.416-8.25.722 1.265 1.41 2.228 2.062 2.891 1.417 1.44 2.95 1.747 4.802 2.557l-1.448 2.802z"/>
        <path id="G" d="M15 16v10h-2V16a2 2 0 0 1 2-2h10v2H15z"/>
        <path id="H" d="M185 16v10h-2V16h-10v-2h10a2 2 0 0 1 2 2z"/>
        <path id="I" d="M183 184v-10h2v10a2 2 0 0 1-2 2h-10v-2h10z"/>
        <path id="J" d="M13 184v-10h2v10h10v2H15a2 2 0 0 1-2-2z"/>
        <path id="K" d="M3.216 11.242c2.271-1.111 3.08-2.313 5.21-3.678 2.242-1.439 5.682-5.455 8.892-5.791 3.36-.352 6.126-.753 8.296-1.2a.8.8 0 0 1 .939.974c-.457 1.859-3.066 3.161-7.827 3.908-1.05.533-1.743 1.224-2.077 2.072-.335.849-4.812 2.087-13.433 3.715z"/>
        <path id="L" d="M16.004 7.564c10.822-.186 17.1-3.339 18.895-1.964 1.997 1.53-2.995 4.8-10.099 7.918 2.44 4.741 2.844 7.5 1.212 8.274-4.771 2.266-10.54.81-15.855.81-2.777 0-3.65 1.49-6.23.505C1.347 22.122.63 18.25.679 17.6 1.202 10.667 6.31 7.321 16.004 7.564z"/>
        <path id="M" d="M22.832 13.465c5.557-2.885 9.091-4.44 10.604-4.665 2.058-.306 1.615 1.9 0 3.742-.956 1.09-3.835 3.043-8.636 5.858l-1.968-4.935z"/>
        <path id="N" d="M21.6 18.283c5.974-2.422 9.564-4.045 10.769-4.87 1.115-.762 1.115 1.385-.165 2.65.414.49-.264 1.274-.815 2.053-.958 1.354-3.576 2.95-7.857 4.788L21.6 18.283z"/>
        <path id="O" d="M22.751 1.6c-.156.612.084.918.721.918.955 0 2.065-.813 1.893-1.354-.131-.108-1.002.038-2.614.436z"/>
        <path id="P" d="M3.216 11.242c2.271-1.111 3.08-2.313 5.21-3.678 2.242-1.439 5.682-5.455 8.892-5.791 3.36-.352 6.126-.753 8.296-1.2a.8.8 0 0 1 .939.974c-.457 1.859-3.066 3.161-7.827 3.908-1.05.533-1.743 1.224-2.077 2.072-.335.849-4.812 2.087-13.433 3.715z"/>
        <path id="Q" d="M16.004 7.564c10.822-.186 17.1-3.339 18.895-1.964 1.997 1.53-2.995 4.8-10.099 7.918 2.44 4.741 2.844 7.5 1.212 8.274-4.771 2.266-10.54.81-15.855.81-2.777 0-3.65 1.49-6.23.505C1.347 22.122.63 18.25.679 17.6 1.202 10.667 6.31 7.321 16.004 7.564z"/>
        <path id="R" d="M22.832 13.465c5.557-2.885 9.091-4.44 10.604-4.665 2.058-.306 1.615 1.9 0 3.742-.956 1.09-3.835 3.043-8.636 5.858l-1.968-4.935z"/>
        <path id="S" d="M21.6 18.283c5.974-2.422 9.564-4.045 10.769-4.87 1.115-.762 1.115 1.385-.165 2.65.414.49-.264 1.274-.815 2.053-.958 1.354-3.576 2.95-7.857 4.788L21.6 18.283z"/>
        <path id="T" d="M22.751 1.6c-.156.612.084.918.721.918.955 0 2.065-.813 1.893-1.354-.131-.108-1.002.038-2.614.436z"/>
    </defs>
    <g fill="none" fill-rule="evenodd">
        <mask id="b" fill="#fff">
            <use xlink:href="#a"/>
        </mask>
        <rect width="440" height="200" fill="#FFF" fill-rule="nonzero" mask="url(#b)" rx="4"/>
        <path fill="#4A5F6E" d="M220.888 81v-8.004h3.372c1.644 0 2.556 1.128 2.556 2.46s-.924 2.46-2.556 2.46h-2.172V81h-1.2zm4.692-5.544c0-.84-.612-1.404-1.476-1.404h-2.016v2.808h2.016c.864 0 1.476-.564 1.476-1.404zM228.028 81v-5.796h1.08v.888c.444-.576 1.128-1.02 1.896-1.02v1.092a1.7 1.7 0 0 0-.372-.036c-.54 0-1.272.408-1.524.84V81h-1.08zm3.696-2.904c0-1.68 1.212-3.036 2.904-3.036 1.74 0 2.82 1.356 2.82 3.132v.264h-4.584c.084.984.804 1.8 1.968 1.8.612 0 1.284-.24 1.716-.684l.504.708c-.576.564-1.392.864-2.328.864-1.728 0-3-1.224-3-3.048zm2.904-2.148c-1.164 0-1.716.936-1.776 1.728h3.54c-.024-.768-.54-1.728-1.764-1.728zm3.672 4.296l.516-.792c.396.432 1.164.828 1.944.828.816 0 1.248-.336 1.248-.828 0-.576-.66-.768-1.404-.936-.984-.228-2.136-.492-2.136-1.74 0-.924.792-1.716 2.208-1.716.996 0 1.716.36 2.208.828l-.48.756c-.336-.408-.984-.708-1.716-.708s-1.188.288-1.188.756c0 .504.624.672 1.344.84 1.008.228 2.208.504 2.208 1.836 0 .996-.816 1.776-2.34 1.776-.972 0-1.824-.3-2.412-.9zm5.76-2.148c0-1.68 1.212-3.036 2.904-3.036 1.74 0 2.82 1.356 2.82 3.132v.264H245.2c.084.984.804 1.8 1.968 1.8.612 0 1.284-.24 1.716-.684l.504.708c-.576.564-1.392.864-2.328.864-1.728 0-3-1.224-3-3.048zm2.904-2.148c-1.164 0-1.716.936-1.776 1.728h3.54c-.024-.768-.54-1.728-1.764-1.728zM255.052 81v-3.708c0-.96-.492-1.272-1.236-1.272-.672 0-1.284.408-1.596.84V81h-1.08v-5.796h1.08v.816c.384-.468 1.152-.96 2.052-.96 1.224 0 1.86.648 1.86 1.872V81h-1.08zm4.392.144c-.912 0-1.38-.516-1.38-1.428v-3.564h-.96v-.948h.96V73.62h1.08v1.584h1.176v.948h-1.176v3.324c0 .408.192.708.564.708.252 0 .48-.108.588-.228l.276.816c-.228.216-.564.372-1.128.372zm8.748-.144v-.636c-.456.504-1.116.78-1.896.78-.96 0-2.016-.648-2.016-1.92 0-1.32 1.044-1.896 2.016-1.896.78 0 1.452.252 1.896.768v-.96c0-.72-.588-1.152-1.416-1.152-.66 0-1.224.252-1.74.768l-.468-.744c.648-.636 1.44-.948 2.376-.948 1.26 0 2.328.552 2.328 2.028V81h-1.08zm0-1.272v-.984c-.324-.432-.888-.66-1.488-.66-.78 0-1.332.468-1.332 1.152 0 .684.552 1.152 1.332 1.152.6 0 1.164-.228 1.488-.66zm5.544-1.632c0-1.74 1.2-3.036 2.952-3.036 1.092 0 1.752.456 2.172 1.02l-.72.66c-.348-.492-.816-.72-1.404-.72-1.14 0-1.872.876-1.872 2.076 0 1.2.732 2.088 1.872 2.088.588 0 1.056-.24 1.404-.72l.72.66c-.42.564-1.08 1.02-2.172 1.02-1.752 0-2.952-1.308-2.952-3.048zM280.048 81v-8.004h1.08V81h-1.08zm2.436-2.904c0-1.68 1.212-3.036 2.904-3.036 1.74 0 2.82 1.356 2.82 3.132v.264h-4.584c.084.984.804 1.8 1.968 1.8.612 0 1.284-.24 1.716-.684l.504.708c-.576.564-1.392.864-2.328.864-1.728 0-3-1.224-3-3.048zm2.904-2.148c-1.164 0-1.716.936-1.776 1.728h3.54c-.024-.768-.54-1.728-1.764-1.728zM293.14 81v-.636c-.456.504-1.116.78-1.896.78-.96 0-2.016-.648-2.016-1.92 0-1.32 1.044-1.896 2.016-1.896.78 0 1.452.252 1.896.768v-.96c0-.72-.588-1.152-1.416-1.152-.66 0-1.224.252-1.74.768l-.468-.744c.648-.636 1.44-.948 2.376-.948 1.26 0 2.328.552 2.328 2.028V81h-1.08zm0-1.272v-.984c-.324-.432-.888-.66-1.488-.66-.78 0-1.332.468-1.332 1.152 0 .684.552 1.152 1.332 1.152.6 0 1.164-.228 1.488-.66zM295.948 81v-5.796h1.08v.888c.444-.576 1.128-1.02 1.896-1.02v1.092a1.7 1.7 0 0 0-.372-.036c-.54 0-1.272.408-1.524.84V81h-1.08zm8.232 2.208h-1.08v-8.004h1.08v.828a2.362 2.362 0 0 1 1.896-.972c1.512 0 2.58 1.14 2.58 3.036 0 1.896-1.068 3.048-2.58 3.048-.756 0-1.428-.348-1.896-.984v3.048zm3.348-5.112c0-1.2-.66-2.076-1.74-2.076-.66 0-1.32.384-1.608.852v2.46c.288.456.948.852 1.608.852 1.08 0 1.74-.876 1.74-2.088zM313.936 81v-3.732c0-.96-.492-1.248-1.236-1.248-.672 0-1.284.408-1.596.84V81h-1.08v-8.004h1.08v3.024c.384-.468 1.164-.96 2.052-.96 1.236 0 1.86.624 1.86 1.848V81h-1.08zm5.376.144c-1.8 0-2.928-1.368-2.928-3.048 0-1.668 1.128-3.036 2.928-3.036 1.812 0 2.928 1.368 2.928 3.036 0 1.68-1.116 3.048-2.928 3.048zm0-.96c1.164 0 1.8-.984 1.8-2.088 0-1.092-.636-2.076-1.8-2.076-1.152 0-1.8.984-1.8 2.076 0 1.104.648 2.088 1.8 2.088zm5.892.96c-.912 0-1.38-.516-1.38-1.428v-3.564h-.96v-.948h.96V73.62h1.08v1.584h1.176v.948h-1.176v3.324c0 .408.192.708.564.708.252 0 .48-.108.588-.228l.276.816c-.228.216-.564.372-1.128.372zm4.644 0c-1.8 0-2.928-1.368-2.928-3.048 0-1.668 1.128-3.036 2.928-3.036 1.812 0 2.928 1.368 2.928 3.036 0 1.68-1.116 3.048-2.928 3.048zm0-.96c1.164 0 1.8-.984 1.8-2.088 0-1.092-.636-2.076-1.8-2.076-1.152 0-1.8.984-1.8 2.076 0 1.104.648 2.088 1.8 2.088zm9.96.96c-1.8 0-2.928-1.368-2.928-3.048 0-1.668 1.128-3.036 2.928-3.036 1.812 0 2.928 1.368 2.928 3.036 0 1.68-1.116 3.048-2.928 3.048zm0-.96c1.164 0 1.8-.984 1.8-2.088 0-1.092-.636-2.076-1.8-2.076-1.152 0-1.8.984-1.8 2.076 0 1.104.648 2.088 1.8 2.088zm4.56.816v-4.848h-.96v-.948h.96v-.384c0-1.248.732-1.944 1.764-1.944.372 0 .696.072.948.216l-.252.804a1.03 1.03 0 0 0-.516-.132c-.54 0-.864.36-.864 1.056v.384h1.176v.948h-1.176V81h-1.08zm6.264 1.296c.132.06.336.096.48.096.396 0 .66-.132.84-.564l.336-.768-2.388-5.856h1.152l1.812 4.548 1.812-4.548h1.164l-2.856 6.9c-.372.912-1.008 1.236-1.848 1.248-.18 0-.504-.036-.672-.084l.168-.972zm8.652-1.152c-1.8 0-2.928-1.368-2.928-3.048 0-1.668 1.128-3.036 2.928-3.036 1.812 0 2.928 1.368 2.928 3.036 0 1.68-1.116 3.048-2.928 3.048zm0-.96c1.164 0 1.8-.984 1.8-2.088 0-1.092-.636-2.076-1.8-2.076-1.152 0-1.8.984-1.8 2.076 0 1.104.648 2.088 1.8 2.088zm8.208.816v-.792c-.444.48-1.176.936-2.064.936-1.236 0-1.848-.624-1.848-1.848v-4.092h1.08v3.732c0 .96.48 1.248 1.224 1.248.672 0 1.284-.384 1.608-.816v-4.164h1.08V81h-1.08zm9.468 0v-.636c-.456.504-1.116.78-1.896.78-.96 0-2.016-.648-2.016-1.92 0-1.32 1.044-1.896 2.016-1.896.78 0 1.452.252 1.896.768v-.96c0-.72-.588-1.152-1.416-1.152-.66 0-1.224.252-1.74.768l-.468-.744c.648-.636 1.44-.948 2.376-.948 1.26 0 2.328.552 2.328 2.028V81h-1.08zm0-1.272v-.984c-.324-.432-.888-.66-1.488-.66-.78 0-1.332.468-1.332 1.152 0 .684.552 1.152 1.332 1.152.6 0 1.164-.228 1.488-.66zM383.68 81v-3.708c0-.96-.492-1.272-1.236-1.272-.672 0-1.284.408-1.596.84V81h-1.08v-5.796h1.08v.816c.384-.468 1.152-.96 2.052-.96 1.224 0 1.86.648 1.86 1.872V81h-1.08zm6.924 0v-.828c-.432.576-1.128.972-1.896.972-1.512 0-2.592-1.14-2.592-3.036 0-1.86 1.08-3.048 2.592-3.048.744 0 1.428.36 1.896.984v-3.048h1.08V81h-1.08zm0-1.656v-2.472c-.3-.468-.948-.852-1.608-.852-1.08 0-1.752.876-1.752 2.088 0 1.2.672 2.076 1.752 2.076.66 0 1.308-.372 1.608-.84zm5.784 2.952c.132.06.336.096.48.096.396 0 .66-.132.84-.564l.336-.768-2.388-5.856h1.152l1.812 4.548 1.812-4.548h1.164l-2.856 6.9c-.372.912-1.008 1.236-1.848 1.248-.18 0-.504-.036-.672-.084l.168-.972zm8.652-1.152c-1.8 0-2.928-1.368-2.928-3.048 0-1.668 1.128-3.036 2.928-3.036 1.812 0 2.928 1.368 2.928 3.036 0 1.68-1.116 3.048-2.928 3.048zm0-.96c1.164 0 1.8-.984 1.8-2.088 0-1.092-.636-2.076-1.8-2.076-1.152 0-1.8.984-1.8 2.076 0 1.104.648 2.088 1.8 2.088zm8.208.816v-.792c-.444.48-1.176.936-2.064.936-1.236 0-1.848-.624-1.848-1.848v-4.092h1.08v3.732c0 .96.48 1.248 1.224 1.248.672 0 1.284-.384 1.608-.816v-4.164h1.08V81h-1.08zm2.796 0v-5.796h1.08v.888c.444-.576 1.128-1.02 1.896-1.02v1.092a1.7 1.7 0 0 0-.372-.036c-.54 0-1.272.408-1.524.84V81h-1.08zM220.816 98.488l.516-.792c.48.552 1.068.768 1.86.768.9 0 1.8-.432 1.8-1.656v-.756c-.444.576-1.128.996-1.908.996-1.5 0-2.58-1.104-2.58-3 0-1.86 1.08-2.988 2.58-2.988.756 0 1.44.36 1.908.984v-.84h1.08v5.568c0 1.992-1.452 2.58-2.88 2.58-.972 0-1.68-.204-2.376-.864zm4.176-3.264v-2.352c-.3-.468-.96-.852-1.608-.852-1.08 0-1.752.84-1.752 2.028 0 1.2.672 2.04 1.752 2.04.648 0 1.308-.396 1.608-.864zm5.364 1.92c-1.8 0-2.928-1.368-2.928-3.048 0-1.668 1.128-3.036 2.928-3.036 1.812 0 2.928 1.368 2.928 3.036 0 1.68-1.116 3.048-2.928 3.048zm0-.96c1.164 0 1.8-.984 1.8-2.088 0-1.092-.636-2.076-1.8-2.076-1.152 0-1.8.984-1.8 2.076 0 1.104.648 2.088 1.8 2.088zm5.832.816l-2.388-5.796h1.152l1.812 4.548 1.812-4.548h1.164L237.352 97h-1.164zm4.068-2.904c0-1.68 1.212-3.036 2.904-3.036 1.74 0 2.82 1.356 2.82 3.132v.264h-4.584c.084.984.804 1.8 1.968 1.8.612 0 1.284-.24 1.716-.684l.504.708c-.576.564-1.392.864-2.328.864-1.728 0-3-1.224-3-3.048zm2.904-2.148c-1.164 0-1.716.936-1.776 1.728h3.54c-.024-.768-.54-1.728-1.764-1.728zM247.336 97v-5.796h1.08v.888c.444-.576 1.128-1.02 1.896-1.02v1.092a1.7 1.7 0 0 0-.372-.036c-.54 0-1.272.408-1.524.84V97h-1.08zm7.968 0v-3.708c0-.96-.492-1.272-1.236-1.272-.672 0-1.284.408-1.596.84V97h-1.08v-5.796h1.08v.816c.384-.468 1.152-.96 2.052-.96 1.224 0 1.86.648 1.86 1.872V97h-1.08zm9.84 0v-3.864c0-.672-.3-1.116-1.008-1.116-.588 0-1.164.408-1.44.828V97h-1.08v-3.864c0-.672-.288-1.116-1.02-1.116-.564 0-1.128.42-1.416.84V97h-1.08v-5.796h1.08v.816c.24-.36 1.008-.96 1.872-.96.876 0 1.392.456 1.572 1.08.336-.54 1.104-1.08 1.956-1.08 1.068 0 1.644.588 1.644 1.752V97h-1.08zm2.436-2.904c0-1.68 1.212-3.036 2.904-3.036 1.74 0 2.82 1.356 2.82 3.132v.264h-4.584c.084.984.804 1.8 1.968 1.8.612 0 1.284-.24 1.716-.684l.504.708c-.576.564-1.392.864-2.328.864-1.728 0-3-1.224-3-3.048zm2.904-2.148c-1.164 0-1.716.936-1.776 1.728h3.54c-.024-.768-.54-1.728-1.764-1.728zM278.572 97v-3.708c0-.96-.492-1.272-1.236-1.272-.672 0-1.284.408-1.596.84V97h-1.08v-5.796h1.08v.816c.384-.468 1.152-.96 2.052-.96 1.224 0 1.86.648 1.86 1.872V97h-1.08zm4.392.144c-.912 0-1.38-.516-1.38-1.428v-3.564h-.96v-.948h.96V89.62h1.08v1.584h1.176v.948h-1.176v3.324c0 .408.192.708.564.708.252 0 .48-.108.588-.228l.276.816c-.228.216-.564.372-1.128.372zm1.572-2.58v-.936h2.88v.936h-2.88zm4.632-4.332a.694.694 0 0 1-.696-.684c0-.384.324-.696.696-.696.384 0 .696.312.696.696a.686.686 0 0 1-.696.684zM288.64 97v-5.796h1.08V97h-1.08zm2.292-.756l.516-.792c.396.432 1.164.828 1.944.828.816 0 1.248-.336 1.248-.828 0-.576-.66-.768-1.404-.936-.984-.228-2.136-.492-2.136-1.74 0-.924.792-1.716 2.208-1.716.996 0 1.716.36 2.208.828l-.48.756c-.336-.408-.984-.708-1.716-.708s-1.188.288-1.188.756c0 .504.624.672 1.344.84 1.008.228 2.208.504 2.208 1.836 0 .996-.816 1.776-2.34 1.776-.972 0-1.824-.3-2.412-.9zm5.616 0l.516-.792c.396.432 1.164.828 1.944.828.816 0 1.248-.336 1.248-.828 0-.576-.66-.768-1.404-.936-.984-.228-2.136-.492-2.136-1.74 0-.924.792-1.716 2.208-1.716.996 0 1.716.36 2.208.828l-.48.756c-.336-.408-.984-.708-1.716-.708s-1.188.288-1.188.756c0 .504.624.672 1.344.84 1.008.228 2.208.504 2.208 1.836 0 .996-.816 1.776-2.34 1.776-.972 0-1.824-.3-2.412-.9zM306.58 97v-.792c-.444.48-1.176.936-2.064.936-1.236 0-1.848-.624-1.848-1.848v-4.092h1.08v3.732c0 .96.48 1.248 1.224 1.248.672 0 1.284-.384 1.608-.816v-4.164h1.08V97h-1.08zm2.436-2.904c0-1.68 1.212-3.036 2.904-3.036 1.74 0 2.82 1.356 2.82 3.132v.264h-4.584c.084.984.804 1.8 1.968 1.8.612 0 1.284-.24 1.716-.684l.504.708c-.576.564-1.392.864-2.328.864-1.728 0-3-1.224-3-3.048zm2.904-2.148c-1.164 0-1.716.936-1.776 1.728h3.54c-.024-.768-.54-1.728-1.764-1.728zM320.224 97v-.828c-.432.576-1.128.972-1.896.972-1.512 0-2.592-1.14-2.592-3.036 0-1.86 1.08-3.048 2.592-3.048.744 0 1.428.36 1.896.984v-3.048h1.08V97h-1.08zm0-1.656v-2.472c-.3-.468-.948-.852-1.608-.852-1.08 0-1.752.876-1.752 2.088 0 1.2.672 2.076 1.752 2.076.66 0 1.308-.372 1.608-.84zm6.984 3.864h-1.08v-8.004h1.08v.828a2.362 2.362 0 0 1 1.896-.972c1.512 0 2.58 1.14 2.58 3.036 0 1.896-1.068 3.048-2.58 3.048-.756 0-1.428-.348-1.896-.984v3.048zm3.348-5.112c0-1.2-.66-2.076-1.74-2.076-.66 0-1.32.384-1.608.852v2.46c.288.456.948.852 1.608.852 1.08 0 1.74-.876 1.74-2.088zM336.964 97v-3.732c0-.96-.492-1.248-1.236-1.248-.672 0-1.284.408-1.596.84V97h-1.08v-8.004h1.08v3.024c.384-.468 1.164-.96 2.052-.96 1.236 0 1.86.624 1.86 1.848V97h-1.08zm5.376.144c-1.8 0-2.928-1.368-2.928-3.048 0-1.668 1.128-3.036 2.928-3.036 1.812 0 2.928 1.368 2.928 3.036 0 1.68-1.116 3.048-2.928 3.048zm0-.96c1.164 0 1.8-.984 1.8-2.088 0-1.092-.636-2.076-1.8-2.076-1.152 0-1.8.984-1.8 2.076 0 1.104.648 2.088 1.8 2.088zm5.892.96c-.912 0-1.38-.516-1.38-1.428v-3.564h-.96v-.948h.96V89.62h1.08v1.584h1.176v.948h-1.176v3.324c0 .408.192.708.564.708.252 0 .48-.108.588-.228l.276.816c-.228.216-.564.372-1.128.372zm4.644 0c-1.8 0-2.928-1.368-2.928-3.048 0-1.668 1.128-3.036 2.928-3.036 1.812 0 2.928 1.368 2.928 3.036 0 1.68-1.116 3.048-2.928 3.048zm0-.96c1.164 0 1.8-.984 1.8-2.088 0-1.092-.636-2.076-1.8-2.076-1.152 0-1.8.984-1.8 2.076 0 1.104.648 2.088 1.8 2.088zm7.416.816v-8.004h1.2V97h-1.2zm2.988 0v-8.004h2.856c2.496 0 4.152 1.704 4.152 4.008 0 2.316-1.656 3.996-4.152 3.996h-2.856zm1.2-1.056h1.656c1.848 0 2.916-1.32 2.916-2.94 0-1.644-1.032-2.952-2.916-2.952h-1.656v5.892zm7.044.432c0-.408.336-.744.744-.744s.756.336.756.744a.769.769 0 0 1-.756.756.758.758 0 0 1-.744-.756zM222.844 133v-6.948h-2.484v-1.056h6.156v1.056h-2.472V133h-1.2zm8.808 0v-3.732c0-.96-.492-1.248-1.236-1.248-.672 0-1.284.408-1.596.84V133h-1.08v-8.004h1.08v3.024c.384-.468 1.164-.96 2.052-.96 1.236 0 1.86.624 1.86 1.848V133h-1.08zm2.448-2.904c0-1.68 1.212-3.036 2.904-3.036 1.74 0 2.82 1.356 2.82 3.132v.264h-4.584c.084.984.804 1.8 1.968 1.8.612 0 1.284-.24 1.716-.684l.504.708c-.576.564-1.392.864-2.328.864-1.728 0-3-1.224-3-3.048zm2.904-2.148c-1.164 0-1.716.936-1.776 1.728h3.54c-.024-.768-.54-1.728-1.764-1.728zM248.188 133v-3.708c0-.96-.492-1.272-1.236-1.272-.672 0-1.284.408-1.596.84V133h-1.08v-5.796h1.08v.816c.384-.468 1.152-.96 2.052-.96 1.224 0 1.86.648 1.86 1.872V133h-1.08zm6.372 0v-.636c-.456.504-1.116.78-1.896.78-.96 0-2.016-.648-2.016-1.92 0-1.32 1.044-1.896 2.016-1.896.78 0 1.452.252 1.896.768v-.96c0-.72-.588-1.152-1.416-1.152-.66 0-1.224.252-1.74.768l-.468-.744c.648-.636 1.44-.948 2.376-.948 1.26 0 2.328.552 2.328 2.028V133h-1.08zm0-1.272v-.984c-.324-.432-.888-.66-1.488-.66-.78 0-1.332.468-1.332 1.152 0 .684.552 1.152 1.332 1.152.6 0 1.164-.228 1.488-.66zm9.852 1.272v-3.864c0-.672-.3-1.116-1.008-1.116-.588 0-1.164.408-1.44.828V133h-1.08v-3.864c0-.672-.288-1.116-1.02-1.116-.564 0-1.128.42-1.416.84V133h-1.08v-5.796h1.08v.816c.24-.36 1.008-.96 1.872-.96.876 0 1.392.456 1.572 1.08.336-.54 1.104-1.08 1.956-1.08 1.068 0 1.644.588 1.644 1.752V133h-1.08zm2.436-2.904c0-1.68 1.212-3.036 2.904-3.036 1.74 0 2.82 1.356 2.82 3.132v.264h-4.584c.084.984.804 1.8 1.968 1.8.612 0 1.284-.24 1.716-.684l.504.708c-.576.564-1.392.864-2.328.864-1.728 0-3-1.224-3-3.048zm2.904-2.148c-1.164 0-1.716.936-1.776 1.728h3.54c-.024-.768-.54-1.728-1.764-1.728zm9.84 5.196c-1.8 0-2.928-1.368-2.928-3.048 0-1.668 1.128-3.036 2.928-3.036 1.812 0 2.928 1.368 2.928 3.036 0 1.68-1.116 3.048-2.928 3.048zm0-.96c1.164 0 1.8-.984 1.8-2.088 0-1.092-.636-2.076-1.8-2.076-1.152 0-1.8.984-1.8 2.076 0 1.104.648 2.088 1.8 2.088zm8.208.816v-3.708c0-.96-.492-1.272-1.236-1.272-.672 0-1.284.408-1.596.84V133h-1.08v-5.796h1.08v.816c.384-.468 1.152-.96 2.052-.96 1.224 0 1.86.648 1.86 1.872V133h-1.08zm5.772 1.296c.132.06.336.096.48.096.396 0 .66-.132.84-.564l.336-.768-2.388-5.856h1.152l1.812 4.548 1.812-4.548h1.164l-2.856 6.9c-.372.912-1.008 1.236-1.848 1.248-.18 0-.504-.036-.672-.084l.168-.972zm8.652-1.152c-1.8 0-2.928-1.368-2.928-3.048 0-1.668 1.128-3.036 2.928-3.036 1.812 0 2.928 1.368 2.928 3.036 0 1.68-1.116 3.048-2.928 3.048zm0-.96c1.164 0 1.8-.984 1.8-2.088 0-1.092-.636-2.076-1.8-2.076-1.152 0-1.8.984-1.8 2.076 0 1.104.648 2.088 1.8 2.088zm8.208.816v-.792c-.444.48-1.176.936-2.064.936-1.236 0-1.848-.624-1.848-1.848v-4.092h1.08v3.732c0 .96.48 1.248 1.224 1.248.672 0 1.284-.384 1.608-.816v-4.164h1.08V133h-1.08zm2.796 0v-5.796h1.08v.888c.444-.576 1.128-1.02 1.896-1.02v1.092a1.7 1.7 0 0 0-.372-.036c-.54 0-1.272.408-1.524.84V133h-1.08zm8.232 2.208h-1.08v-8.004h1.08v.828a2.362 2.362 0 0 1 1.896-.972c1.512 0 2.58 1.14 2.58 3.036 0 1.896-1.068 3.048-2.58 3.048-.756 0-1.428-.348-1.896-.984v3.048zm3.348-5.112c0-1.2-.66-2.076-1.74-2.076-.66 0-1.32.384-1.608.852v2.46c.288.456.948.852 1.608.852 1.08 0 1.74-.876 1.74-2.088zm6.408 2.904v-3.732c0-.96-.492-1.248-1.236-1.248-.672 0-1.284.408-1.596.84V133h-1.08v-8.004h1.08v3.024c.384-.468 1.164-.96 2.052-.96 1.236 0 1.86.624 1.86 1.848V133h-1.08zm5.376.144c-1.8 0-2.928-1.368-2.928-3.048 0-1.668 1.128-3.036 2.928-3.036 1.812 0 2.928 1.368 2.928 3.036 0 1.68-1.116 3.048-2.928 3.048zm0-.96c1.164 0 1.8-.984 1.8-2.088 0-1.092-.636-2.076-1.8-2.076-1.152 0-1.8.984-1.8 2.076 0 1.104.648 2.088 1.8 2.088zm5.892.96c-.912 0-1.38-.516-1.38-1.428v-3.564h-.96v-.948h.96v-1.584h1.08v1.584h1.176v.948h-1.176v3.324c0 .408.192.708.564.708.252 0 .48-.108.588-.228l.276.816c-.228.216-.564.372-1.128.372zm4.644 0c-1.8 0-2.928-1.368-2.928-3.048 0-1.668 1.128-3.036 2.928-3.036 1.812 0 2.928 1.368 2.928 3.036 0 1.68-1.116 3.048-2.928 3.048zm0-.96c1.164 0 1.8-.984 1.8-2.088 0-1.092-.636-2.076-1.8-2.076-1.152 0-1.8.984-1.8 2.076 0 1.104.648 2.088 1.8 2.088zm7.416.816v-8.004h1.2V133h-1.2zm2.988 0v-8.004h2.856c2.496 0 4.152 1.704 4.152 4.008 0 2.316-1.656 3.996-4.152 3.996h-2.856zm1.2-1.056h1.656c1.848 0 2.916-1.32 2.916-2.94 0-1.644-1.032-2.952-2.916-2.952h-1.656v5.892zM376.108 133v-3.864c0-.672-.3-1.116-1.008-1.116-.588 0-1.164.408-1.44.828V133h-1.08v-3.864c0-.672-.288-1.116-1.02-1.116-.564 0-1.128.42-1.416.84V133h-1.08v-5.796h1.08v.816c.24-.36 1.008-.96 1.872-.96.876 0 1.392.456 1.572 1.08.336-.54 1.104-1.08 1.956-1.08 1.068 0 1.644.588 1.644 1.752V133h-1.08zm6.372 0v-.636c-.456.504-1.116.78-1.896.78-.96 0-2.016-.648-2.016-1.92 0-1.32 1.044-1.896 2.016-1.896.78 0 1.452.252 1.896.768v-.96c0-.72-.588-1.152-1.416-1.152-.66 0-1.224.252-1.74.768l-.468-.744c.648-.636 1.44-.948 2.376-.948 1.26 0 2.328.552 2.328 2.028V133h-1.08zm0-1.272v-.984c-.324-.432-.888-.66-1.488-.66-.78 0-1.332.468-1.332 1.152 0 .684.552 1.152 1.332 1.152.6 0 1.164-.228 1.488-.66zm4.404 1.416c-.912 0-1.38-.516-1.38-1.428v-3.564h-.96v-.948h.96v-1.584h1.08v1.584h1.176v.948h-1.176v3.324c0 .408.192.708.564.708.252 0 .48-.108.588-.228l.276.816c-.228.216-.564.372-1.128.372zm1.716-3.048c0-1.74 1.2-3.036 2.952-3.036 1.092 0 1.752.456 2.172 1.02l-.72.66c-.348-.492-.816-.72-1.404-.72-1.14 0-1.872.876-1.872 2.076 0 1.2.732 2.088 1.872 2.088.588 0 1.056-.24 1.404-.72l.72.66c-.42.564-1.08 1.02-2.172 1.02-1.752 0-2.952-1.308-2.952-3.048zM398.824 133v-3.732c0-.96-.492-1.248-1.236-1.248-.672 0-1.284.408-1.596.84V133h-1.08v-8.004h1.08v3.024c.384-.468 1.164-.96 2.052-.96 1.236 0 1.86.624 1.86 1.848V133h-1.08zm2.448-2.904c0-1.68 1.212-3.036 2.904-3.036 1.74 0 2.82 1.356 2.82 3.132v.264h-4.584c.084.984.804 1.8 1.968 1.8.612 0 1.284-.24 1.716-.684l.504.708c-.576.564-1.392.864-2.328.864-1.728 0-3-1.224-3-3.048zm2.904-2.148c-1.164 0-1.716.936-1.776 1.728h3.54c-.024-.768-.54-1.728-1.764-1.728zm3.672 4.296l.516-.792c.396.432 1.164.828 1.944.828.816 0 1.248-.336 1.248-.828 0-.576-.66-.768-1.404-.936-.984-.228-2.136-.492-2.136-1.74 0-.924.792-1.716 2.208-1.716.996 0 1.716.36 2.208.828l-.48.756c-.336-.408-.984-.708-1.716-.708s-1.188.288-1.188.756c0 .504.624.672 1.344.84 1.008.228 2.208.504 2.208 1.836 0 .996-.816 1.776-2.34 1.776-.972 0-1.824-.3-2.412-.9zm-185.388 16.9c-.912 0-1.38-.516-1.38-1.428v-3.564h-.96v-.948h.96v-1.584h1.08v1.584h1.176v.948h-1.176v3.324c0 .408.192.708.564.708.252 0 .48-.108.588-.228l.276.816c-.228.216-.564.372-1.128.372zm5.988-.144v-3.732c0-.96-.492-1.248-1.236-1.248-.672 0-1.284.408-1.596.84V149h-1.08v-8.004h1.08v3.024c.384-.468 1.164-.96 2.052-.96 1.236 0 1.86.624 1.86 1.848V149h-1.08zm2.448-2.904c0-1.68 1.212-3.036 2.904-3.036 1.74 0 2.82 1.356 2.82 3.132v.264h-4.584c.084.984.804 1.8 1.968 1.8.612 0 1.284-.24 1.716-.684l.504.708c-.576.564-1.392.864-2.328.864-1.728 0-3-1.224-3-3.048zm2.904-2.148c-1.164 0-1.716.936-1.776 1.728h3.54c-.024-.768-.54-1.728-1.764-1.728zM244.984 149v-3.708c0-.96-.492-1.272-1.236-1.272-.672 0-1.284.408-1.596.84V149h-1.08v-5.796h1.08v.816c.384-.468 1.152-.96 2.052-.96 1.224 0 1.86.648 1.86 1.872V149h-1.08zm6.372 0v-.636c-.456.504-1.116.78-1.896.78-.96 0-2.016-.648-2.016-1.92 0-1.32 1.044-1.896 2.016-1.896.78 0 1.452.252 1.896.768v-.96c0-.72-.588-1.152-1.416-1.152-.66 0-1.224.252-1.74.768l-.468-.744c.648-.636 1.44-.948 2.376-.948 1.26 0 2.328.552 2.328 2.028V149h-1.08zm0-1.272v-.984c-.324-.432-.888-.66-1.488-.66-.78 0-1.332.468-1.332 1.152 0 .684.552 1.152 1.332 1.152.6 0 1.164-.228 1.488-.66zm9.852 1.272v-3.864c0-.672-.3-1.116-1.008-1.116-.588 0-1.164.408-1.44.828V149h-1.08v-3.864c0-.672-.288-1.116-1.02-1.116-.564 0-1.128.42-1.416.84V149h-1.08v-5.796h1.08v.816c.24-.36 1.008-.96 1.872-.96.876 0 1.392.456 1.572 1.08.336-.54 1.104-1.08 1.956-1.08 1.068 0 1.644.588 1.644 1.752V149h-1.08zm2.436-2.904c0-1.68 1.212-3.036 2.904-3.036 1.74 0 2.82 1.356 2.82 3.132v.264h-4.584c.084.984.804 1.8 1.968 1.8.612 0 1.284-.24 1.716-.684l.504.708c-.576.564-1.392.864-2.328.864-1.728 0-3-1.224-3-3.048zm2.904-2.148c-1.164 0-1.716.936-1.776 1.728h3.54c-.024-.768-.54-1.728-1.764-1.728zm9.84 5.196c-1.8 0-2.928-1.368-2.928-3.048 0-1.668 1.128-3.036 2.928-3.036 1.812 0 2.928 1.368 2.928 3.036 0 1.68-1.116 3.048-2.928 3.048zm0-.96c1.164 0 1.8-.984 1.8-2.088 0-1.092-.636-2.076-1.8-2.076-1.152 0-1.8.984-1.8 2.076 0 1.104.648 2.088 1.8 2.088zm4.56.816v-4.848h-.96v-.948h.96v-.384c0-1.248.732-1.944 1.764-1.944.372 0 .696.072.948.216l-.252.804a1.03 1.03 0 0 0-.516-.132c-.54 0-.864.36-.864 1.056v.384h1.176v.948h-1.176V149h-1.08zm7.98.144c-.912 0-1.38-.516-1.38-1.428v-3.564h-.96v-.948h.96v-1.584h1.08v1.584h1.176v.948h-1.176v3.324c0 .408.192.708.564.708.252 0 .48-.108.588-.228l.276.816c-.228.216-.564.372-1.128.372zm5.988-.144v-3.732c0-.96-.492-1.248-1.236-1.248-.672 0-1.284.408-1.596.84V149h-1.08v-8.004h1.08v3.024c.384-.468 1.164-.96 2.052-.96 1.236 0 1.86.624 1.86 1.848V149h-1.08zm3.336-6.768a.694.694 0 0 1-.696-.684c0-.384.324-.696.696-.696.384 0 .696.312.696.696a.686.686 0 0 1-.696.684zm-.528 6.768v-5.796h1.08V149h-1.08zm2.292-.756l.516-.792c.396.432 1.164.828 1.944.828.816 0 1.248-.336 1.248-.828 0-.576-.66-.768-1.404-.936-.984-.228-2.136-.492-2.136-1.74 0-.924.792-1.716 2.208-1.716.996 0 1.716.36 2.208.828l-.48.756c-.336-.408-.984-.708-1.716-.708s-1.188.288-1.188.756c0 .504.624.672 1.344.84 1.008.228 2.208.504 2.208 1.836 0 .996-.816 1.776-2.34 1.776-.972 0-1.824-.3-2.412-.9zm8.712 0l.516-.792c.396.432 1.164.828 1.944.828.816 0 1.248-.336 1.248-.828 0-.576-.66-.768-1.404-.936-.984-.228-2.136-.492-2.136-1.74 0-.924.792-1.716 2.208-1.716.996 0 1.716.36 2.208.828l-.48.756c-.336-.408-.984-.708-1.716-.708s-1.188.288-1.188.756c0 .504.624.672 1.344.84 1.008.228 2.208.504 2.208 1.836 0 .996-.816 1.776-2.34 1.776-.972 0-1.824-.3-2.412-.9zm6.648-6.012a.694.694 0 0 1-.696-.684c0-.384.324-.696.696-.696.384 0 .696.312.696.696a.686.686 0 0 1-.696.684zm-.528 6.768v-5.796h1.08V149h-1.08zm2.748 1.488l.516-.792c.48.552 1.068.768 1.86.768.9 0 1.8-.432 1.8-1.656v-.756c-.444.576-1.128.996-1.908.996-1.5 0-2.58-1.104-2.58-3 0-1.86 1.08-2.988 2.58-2.988.756 0 1.44.36 1.908.984v-.84h1.08v5.568c0 1.992-1.452 2.58-2.88 2.58-.972 0-1.68-.204-2.376-.864zm4.176-3.264v-2.352c-.3-.468-.96-.852-1.608-.852-1.08 0-1.752.84-1.752 2.028 0 1.2.672 2.04 1.752 2.04.648 0 1.308-.396 1.608-.864zM328.48 149v-3.708c0-.96-.492-1.272-1.236-1.272-.672 0-1.284.408-1.596.84V149h-1.08v-5.796h1.08v.816c.384-.468 1.152-.96 2.052-.96 1.224 0 1.86.648 1.86 1.872V149h-1.08zm2.436-2.904c0-1.68 1.212-3.036 2.904-3.036 1.74 0 2.82 1.356 2.82 3.132v.264h-4.584c.084.984.804 1.8 1.968 1.8.612 0 1.284-.24 1.716-.684l.504.708c-.576.564-1.392.864-2.328.864-1.728 0-3-1.224-3-3.048zm2.904-2.148c-1.164 0-1.716.936-1.776 1.728h3.54c-.024-.768-.54-1.728-1.764-1.728zm8.304 5.052v-.828c-.432.576-1.128.972-1.896.972-1.512 0-2.592-1.14-2.592-3.036 0-1.86 1.08-3.048 2.592-3.048.744 0 1.428.36 1.896.984v-3.048h1.08V149h-1.08zm0-1.656v-2.472c-.3-.468-.948-.852-1.608-.852-1.08 0-1.752.876-1.752 2.088 0 1.2.672 2.076 1.752 2.076.66 0 1.308-.372 1.608-.84zm2.304-.78v-.936h2.88v.936h-2.88zm8.016 2.436v-.792c-.444.48-1.176.936-2.064.936-1.236 0-1.848-.624-1.848-1.848v-4.092h1.08v3.732c0 .96.48 1.248 1.224 1.248.672 0 1.284-.384 1.608-.816v-4.164h1.08V149h-1.08zm3.876 2.208h-1.08v-8.004h1.08v.828a2.362 2.362 0 0 1 1.896-.972c1.512 0 2.58 1.14 2.58 3.036 0 1.896-1.068 3.048-2.58 3.048-.756 0-1.428-.348-1.896-.984v3.048zm3.348-5.112c0-1.2-.66-2.076-1.74-2.076-.66 0-1.32.384-1.608.852v2.46c.288.456.948.852 1.608.852 1.08 0 1.74-.876 1.74-2.088zm9.168 2.904v-.636c-.456.504-1.116.78-1.896.78-.96 0-2.016-.648-2.016-1.92 0-1.32 1.044-1.896 2.016-1.896.78 0 1.452.252 1.896.768v-.96c0-.72-.588-1.152-1.416-1.152-.66 0-1.224.252-1.74.768l-.468-.744c.648-.636 1.44-.948 2.376-.948 1.26 0 2.328.552 2.328 2.028V149h-1.08zm0-1.272v-.984c-.324-.432-.888-.66-1.488-.66-.78 0-1.332.468-1.332 1.152 0 .684.552 1.152 1.332 1.152.6 0 1.164-.228 1.488-.66zm2.448-1.632c0-1.74 1.2-3.036 2.952-3.036 1.092 0 1.752.456 2.172 1.02l-.72.66c-.348-.492-.816-.72-1.404-.72-1.14 0-1.872.876-1.872 2.076 0 1.2.732 2.088 1.872 2.088.588 0 1.056-.24 1.404-.72l.72.66c-.42.564-1.08 1.02-2.172 1.02-1.752 0-2.952-1.308-2.952-3.048zm5.952 0c0-1.74 1.2-3.036 2.952-3.036 1.092 0 1.752.456 2.172 1.02l-.72.66c-.348-.492-.816-.72-1.404-.72-1.14 0-1.872.876-1.872 2.076 0 1.2.732 2.088 1.872 2.088.588 0 1.056-.24 1.404-.72l.72.66c-.42.564-1.08 1.02-2.172 1.02-1.752 0-2.952-1.308-2.952-3.048zm8.88 3.048c-1.8 0-2.928-1.368-2.928-3.048 0-1.668 1.128-3.036 2.928-3.036 1.812 0 2.928 1.368 2.928 3.036 0 1.68-1.116 3.048-2.928 3.048zm0-.96c1.164 0 1.8-.984 1.8-2.088 0-1.092-.636-2.076-1.8-2.076-1.152 0-1.8.984-1.8 2.076 0 1.104.648 2.088 1.8 2.088zm8.208.816v-.792c-.444.48-1.176.936-2.064.936-1.236 0-1.848-.624-1.848-1.848v-4.092h1.08v3.732c0 .96.48 1.248 1.224 1.248.672 0 1.284-.384 1.608-.816v-4.164h1.08V149h-1.08zm6.708 0v-3.708c0-.96-.492-1.272-1.236-1.272-.672 0-1.284.408-1.596.84V149h-1.08v-5.796h1.08v.816c.384-.468 1.152-.96 2.052-.96 1.224 0 1.86.648 1.86 1.872V149h-1.08zm4.392.144c-.912 0-1.38-.516-1.38-1.428v-3.564h-.96v-.948h.96v-1.584h1.08v1.584h1.176v.948h-1.176v3.324c0 .408.192.708.564.708.252 0 .48-.108.588-.228l.276.816c-.228.216-.564.372-1.128.372zm1.884-.768c0-.408.336-.744.744-.744s.756.336.756.744a.769.769 0 0 1-.756.756.758.758 0 0 1-.744-.756z" mask="url(#b)"/>
        <path fill="#EEF2F5" fill-opacity=".4" fill-rule="nonzero" d="M15 14h168a2 2 0 0 1 2 2v168a2 2 0 0 1-2 2H15a2 2 0 0 1-2-2V16a2 2 0 0 1 2-2z" mask="url(#b)"/>
        <g mask="url(#b)">
            <use fill="#FFF" xlink:href="#c"/>
            <use fill="url(#d)" xlink:href="#c"/>
        </g>
        <g mask="url(#b)" transform="matrix(-1 0 0 1 336.357 0)">
            <use fill="#FFF" xlink:href="#e"/>
            <use fill="url(#d)" xlink:href="#e"/>
        </g>
        <path fill="#AFC7D1" fill-rule="nonzero" d="M170 14v1h-2v-1h2zm-4 0v1h-2v-1h2zm-4 0v1h-2v-1h2zm-4 0v1h-2v-1h2zm-4 0v1h-2v-1h2zm-4 0v1h-2v-1h2zm-4 0v1h-2v-1h2zm-4 0v1h-2v-1h2zm-4 0v1h-2v-1h2zm-4 0v1h-2v-1h2zm-4 0v1h-2v-1h2zm-4 0v1h-2v-1h2zm-4 0v1h-2v-1h2zm-4 0v1h-2v-1h2zm-4 0v1h-2v-1h2zm-4 0v1h-2v-1h2zm-4 0v1h-2v-1h2zm-4 0v1h-2v-1h2zm-4 0v1h-2v-1h2zm-4 0v1h-2v-1h2zm-4 0v1h-2v-1h2zm-4 0v1h-2v-1h2zm-4 0v1h-2v-1h2zm-4 0v1h-2v-1h2zm-4 0v1h-2v-1h2zm-4 0v1h-2v-1h2zm-4 0v1h-2v-1h2zm-4 0v1h-2v-1h2zm-4 0v1h-2v-1h2zm-4 0v1h-2v-1h2zm-4 0v1h-2v-1h2zm-4 0v1h-2v-1h2zm-4 0v1h-2v-1h2zm-4 0v1h-2v-1h2zm-4 0v1h-2v-1h2zm-4 0v1h-2v-1h2z" mask="url(#b)"/>
        <g mask="url(#b)">
            <use fill="#FFF" xlink:href="#f"/>
            <use fill="url(#d)" xlink:href="#f"/>
        </g>
        <g mask="url(#b)">
            <use fill="#FFF" xlink:href="#g"/>
            <use fill="#4A5F6E" xlink:href="#g"/>
        </g>
        <g mask="url(#b)">
            <use fill="#FFF" xlink:href="#h"/>
            <use fill="#FFF" xlink:href="#h"/>
            <use fill="#FBCC9E" xlink:href="#h"/>
        </g>
        <g mask="url(#b)">
            <use fill="#FFF" xlink:href="#i"/>
            <use fill="#FFF" xlink:href="#i"/>
            <use fill="#FBCC9E" xlink:href="#i"/>
        </g>
        <path fill="#2F88EC" fill-rule="nonzero" d="M93 86.436c3.831-.732 9.165-.542 16 .57 0 4.377-3.582 6.994-8 6.994s-8-4.261-8-7.564z" mask="url(#b)"/>
        <g mask="url(#b)">
            <g transform="translate(97 70)">
                <use fill="#FFF" xlink:href="#j"/>
                <use fill="#FFF" xlink:href="#j"/>
                <use fill="#FABF86" fill-opacity=".5" xlink:href="#j"/>
            </g>
            <g transform="translate(97 70)">
                <use fill="#FFF" xlink:href="#k"/>
                <use fill="#FFF" xlink:href="#k"/>
                <use fill="#FABF86" fill-opacity=".5" xlink:href="#k"/>
            </g>
        </g>
        <g mask="url(#b)">
            <use fill="#FFF" xlink:href="#l"/>
            <use fill="#FFF" xlink:href="#l"/>
            <use fill="#FABF86" fill-opacity=".8" xlink:href="#l"/>
        </g>
        <g mask="url(#b)">
            <g transform="translate(81 42)">
                <use fill="#FFF" xlink:href="#m"/>
                <use fill="#FFF" xlink:href="#m"/>
                <use fill="#FABF86" fill-opacity=".5" xlink:href="#m"/>
                <use fill="#FFF" xlink:href="#n"/>
                <use fill="#FFF" xlink:href="#n"/>
                <use fill="#FBCC9E" xlink:href="#n"/>
                <use fill="#FFF" xlink:href="#o"/>
                <use fill="#FFF" xlink:href="#o"/>
                <use fill="#FBCC9E" xlink:href="#o"/>
                <path fill="#FBCC9E" fill-rule="nonzero" d="M13.684 30.142a1 1 0 0 1 1.474-1.352C16.398 30.142 18.252 31 20 31c2.651 0 5.384-1.952 6.037-4.271a1 1 0 0 1 1.926.542C27.06 30.475 23.525 33 20 33c-2.322 0-4.707-1.103-6.316-2.858z"/>
                <circle cx="11.5" cy="15.5" r="2.5" fill="#4A5F6E" fill-rule="nonzero"/>
                <path fill="#4A5F6E" fill-rule="nonzero" d="M13.473 6.621a.936.936 0 0 1 .444 1.226.889.889 0 0 1-1.198.437 4.445 4.445 0 0 0-5.994 2.19.889.889 0 0 1-1.198.437.936.936 0 0 1-.444-1.225 6.223 6.223 0 0 1 8.39-3.065z"/>
                <circle cx="28.5" cy="15.5" r="2.5" fill="#4A5F6E" fill-rule="nonzero" transform="matrix(-1 0 0 1 57 0)"/>
                <path fill="#4A5F6E" fill-rule="nonzero" d="M26.527 6.621a.936.936 0 0 0-.444 1.226.889.889 0 0 0 1.198.437 4.445 4.445 0 0 1 5.994 2.19.889.889 0 0 0 1.198.437.936.936 0 0 0 .444-1.225 6.223 6.223 0 0 0-8.39-3.065z"/>
            </g>
        </g>
        <g mask="url(#b)">
            <use fill="#FFF" xlink:href="#p"/>
            <use fill="#4A5F6E" xlink:href="#p"/>
        </g>
        <g fill="#FFF" mask="url(#b)" transform="matrix(1 0 0 -1 0 272)">
            <use xlink:href="#q"/>
            <path stroke="#2EE3AA" stroke-linejoin="square" stroke-width="2" d="M42 99a2 2 0 0 0-2 2v70a2 2 0 0 0 2 2h114a2 2 0 0 0 2-2v-70a2 2 0 0 0-2-2H42z"/>
        </g>
        <g mask="url(#b)">
            <g transform="translate(51 112)">
                <rect width="36" height="46" y="3" fill="#AFC7D1" fill-opacity=".5" rx="2"/>
                <use fill="#FFF" xlink:href="#r"/>
                <use fill="url(#d)" xlink:href="#r"/>
                <use fill="#FFF" xlink:href="#s"/>
                <use fill="#4A5F6E" xlink:href="#s"/>
                <g transform="rotate(15 -12.074 28.884)">
                    <use fill="#FFF" xlink:href="#t"/>
                    <use fill="#4A5F6E" xlink:href="#t"/>
                </g>
                <g transform="scale(1 -1) rotate(-60 -5.118 -7.502)">
                    <use fill="#FFF" xlink:href="#u"/>
                    <use fill="#4A5F6E" xlink:href="#u"/>
                </g>
                <use fill="#FFF" xlink:href="#v"/>
                <use fill="#FFF" xlink:href="#v"/>
                <use fill="#FBCC9E" xlink:href="#v"/>
                <use fill="#FFF" xlink:href="#w"/>
                <use fill="#FFF" xlink:href="#w"/>
                <use fill="#FBCC9E" xlink:href="#w"/>
                <path fill="#2F88EC" fill-rule="nonzero" d="M16.053 33.818h6.526c0 1.757-1.461 3.182-3.263 3.182-1.802 0-3.263-1.425-3.263-3.182z"/>
                <g>
                    <g transform="translate(17.684 26.455)">
                        <use fill="#FFF" xlink:href="#x"/>
                        <use fill="#FFF" xlink:href="#x"/>
                        <use fill="#FABF86" fill-opacity=".5" xlink:href="#x"/>
                    </g>
                    <g transform="translate(17.684 26.455)">
                        <use fill="#FFF" xlink:href="#y"/>
                        <use fill="#FFF" xlink:href="#y"/>
                        <use fill="#FABF86" fill-opacity=".5" xlink:href="#y"/>
                    </g>
                </g>
                <g>
                    <use fill="#FFF" xlink:href="#z"/>
                    <use fill="#FFF" xlink:href="#z"/>
                    <use fill="#FABF86" fill-opacity=".8" xlink:href="#z"/>
                </g>
                <g transform="translate(11 14)">
                    <use fill="#FFF" xlink:href="#A"/>
                    <use fill="#FFF" xlink:href="#A"/>
                    <use fill="#FABF86" fill-opacity=".5" xlink:href="#A"/>
                    <use fill="#FFF" xlink:href="#B"/>
                    <use fill="#FFF" xlink:href="#B"/>
                    <use fill="#FBCC9E" xlink:href="#B"/>
                    <use fill="#FFF" xlink:href="#C"/>
                    <use fill="#FFF" xlink:href="#C"/>
                    <use fill="#FBCC9E" xlink:href="#C"/>
                    <path fill="#FBCC9E" fill-rule="nonzero" d="M5.474 13.2a.408.408 0 0 1 .024-.572.397.397 0 0 1 .565.025c.496.547 1.238.895 1.937.895 1.06 0 2.154-.79 2.415-1.73a.4.4 0 1 1 .77.22c-.36 1.297-1.775 2.32-3.185 2.32-.929 0-1.883-.447-2.526-1.158z"/>
                    <ellipse cx="4.6" cy="7.274" fill="#4A5F6E" fill-rule="nonzero" rx="1" ry="1.012"/>
                    <path fill="#4A5F6E" fill-rule="nonzero" d="M5.39 3.68a.38.38 0 0 1 .177.496.354.354 0 0 1-.48.177 1.77 1.77 0 0 0-2.397.886.354.354 0 0 1-.48.177.38.38 0 0 1-.177-.496c.584-1.3 2.086-1.856 3.356-1.24z"/>
                    <ellipse cx="11.4" cy="7.274" fill="#4A5F6E" fill-rule="nonzero" rx="1" ry="1.012" transform="matrix(-1 0 0 1 22.8 0)"/>
                    <path fill="#4A5F6E" fill-rule="nonzero" d="M10.61 3.68a.38.38 0 0 0-.177.496.354.354 0 0 0 .48.177 1.77 1.77 0 0 1 2.397.886.354.354 0 0 0 .48.177.38.38 0 0 0 .177-.496c-.584-1.3-2.086-1.856-3.356-1.24z"/>
                </g>
                <g>
                    <use fill="#FFF" xlink:href="#D"/>
                    <use fill="#4A5F6E" xlink:href="#D"/>
                </g>
            </g>
        </g>
        <path fill="#2FB7EC" fill-rule="nonzero" d="M116 117h24a2 2 0 0 1 0 4h-24a2 2 0 0 1 0-4zM116 131h24a2 2 0 0 1 0 4h-24a2 2 0 0 1 0-4z" mask="url(#b)"/>
        <path fill="#4A5F6E" d="M100.027 121.542V123H95v-8h1.608v6.542h3.42zm2.999 1.458h-1.54v-8h1.343l3.536 4.984h.096V115H108v8h-1.331l-3.547-5.006h-.096V123zM96.604 137H95v-8h5.02v1.43h-3.416v2.085h3.119v1.37h-3.119V137zm6.434 0h-1.535v-8h1.338l3.528 4.984h.096V129H108v8h-1.328l-3.538-5.006h-.096V137z" mask="url(#b)"/>
        <path fill="#AFC7D1" fill-opacity=".4" d="M97 156h44a2 2 0 0 1 0 4H97a2 2 0 0 1 0-4z" mask="url(#b)"/>
        <path fill-rule="nonzero" stroke="#7790A3" stroke-linecap="round" stroke-linejoin="round" stroke-width="2" d="M113 147.105c8.954-4.797 21.002-1.206 9.555 8.846-6.406 5.625.452-13.517 7.15-6.879 1.634 1.62 3.715 5.695 4.42 6.455 2.018 2.176 6.368-2.782 7.875-6.045" mask="url(#b)"/>
        <path fill="#7790A3" fill-rule="nonzero" d="M145 143a2 2 0 0 1 0 4 2 2 0 0 1 0-4z" mask="url(#b)"/>
        <g mask="url(#b)">
            <g transform="rotate(15 -31.16 286.65)">
                <use fill="#FFF" xlink:href="#E"/>
                <use fill="#4A5F6E" xlink:href="#E"/>
            </g>
            <g transform="scale(1 -1) rotate(-60 8.059 -70.528)">
                <use fill="#FFF" xlink:href="#F"/>
                <use fill="#4A5F6E" xlink:href="#F"/>
            </g>
        </g>
        <circle cx="159" cy="129" r="8" fill="#2EE3AA" fill-rule="nonzero" mask="url(#b)"/>
        <path fill="#FFF" d="M156.5 132v-.92c2.59-1.96 3.6-2.83 3.6-3.79 0-.7-.6-1.02-1.21-1.02-.78 0-1.38.32-1.8.8l-.68-.77c.59-.71 1.53-1.07 2.46-1.07 1.29 0 2.42.73 2.42 2.06 0 1.23-1.13 2.33-2.92 3.68h2.96V132h-4.83z" mask="url(#b)"/>
        <g mask="url(#b)">
            <use fill="#FFF" xlink:href="#G"/>
            <use fill="#AFC7D1" xlink:href="#G"/>
        </g>
        <g mask="url(#b)">
            <use fill="#FFF" xlink:href="#H"/>
            <use fill="#AFC7D1" xlink:href="#H"/>
        </g>
        <g mask="url(#b)">
            <use fill="#FFF" xlink:href="#I"/>
            <use fill="#AFC7D1" xlink:href="#I"/>
        </g>
        <g mask="url(#b)">
            <use fill="#FFF" xlink:href="#J"/>
            <use fill="#AFC7D1" xlink:href="#J"/>
        </g>
        <path fill="#AFC7D1" fill-rule="nonzero" d="M13 29h1v2h-1v-2zm0 4h1v2h-1v-2zm0 4h1v2h-1v-2zm0 4h1v2h-1v-2zm0 4h1v2h-1v-2zm0 4h1v2h-1v-2zm0 4h1v2h-1v-2zm0 4h1v2h-1v-2zm0 4h1v2h-1v-2zm0 4h1v2h-1v-2zm0 4h1v2h-1v-2zm0 4h1v2h-1v-2zm0 4h1v2h-1v-2zm0 4h1v2h-1v-2zm0 4h1v2h-1v-2zm0 4h1v2h-1v-2zm0 4h1v2h-1v-2zm0 4h1v2h-1v-2zm0 4h1v2h-1v-2zm0 4h1v2h-1v-2zm0 4h1v2h-1v-2zm0 4h1v2h-1v-2zm0 4h1v2h-1v-2zm0 4h1v2h-1v-2zm0 4h1v2h-1v-2zm0 4h1v2h-1v-2zm0 4h1v2h-1v-2zm0 4h1v2h-1v-2zm0 4h1v2h-1v-2zm0 4h1v2h-1v-2zm0 4h1v2h-1v-2zm0 4h1v2h-1v-2zm0 4h1v2h-1v-2zm0 4h1v2h-1v-2zm0 4h1v2h-1v-2zm0 4h1v2h-1v-2zM184 29h1v2h-1v-2zm0 4h1v2h-1v-2zm0 4h1v2h-1v-2zm0 4h1v2h-1v-2zm0 4h1v2h-1v-2zm0 4h1v2h-1v-2zm0 4h1v2h-1v-2zm0 4h1v2h-1v-2zm0 4h1v2h-1v-2zm0 4h1v2h-1v-2zm0 4h1v2h-1v-2zm0 4h1v2h-1v-2zm0 4h1v2h-1v-2zm0 4h1v2h-1v-2zm0 4h1v2h-1v-2zm0 4h1v2h-1v-2zm0 4h1v2h-1v-2zm0 4h1v2h-1v-2zm0 4h1v2h-1v-2zm0 4h1v2h-1v-2zm0 4h1v2h-1v-2zm0 4h1v2h-1v-2zm0 4h1v2h-1v-2zm0 4h1v2h-1v-2zm0 4h1v2h-1v-2zm0 4h1v2h-1v-2zm0 4h1v2h-1v-2zm0 4h1v2h-1v-2zm0 4h1v2h-1v-2zm0 4h1v2h-1v-2zm0 4h1v2h-1v-2zm0 4h1v2h-1v-2zm0 4h1v2h-1v-2zm0 4h1v2h-1v-2zm0 4h1v2h-1v-2zm0 4h1v2h-1v-2z" mask="url(#b)"/>
        <g mask="url(#b)">
            <circle cx="8" cy="8" r="8" fill="#2EE3AA" fill-rule="nonzero" transform="translate(177 69)"/>
            <path fill="#FFF" d="M184.92 80v-5.15l-1.09 1.13-.68-.71 1.92-1.94h1.02V80z"/>
        </g>
        <path fill="#AFC7D1" fill-rule="nonzero" d="M170 185v1h-2v-1h2zm-4 0v1h-2v-1h2zm-4 0v1h-2v-1h2zm-4 0v1h-2v-1h2zm-4 0v1h-2v-1h2zm-4 0v1h-2v-1h2zm-4 0v1h-2v-1h2zm-4 0v1h-2v-1h2zm-4 0v1h-2v-1h2zm-4 0v1h-2v-1h2zm-4 0v1h-2v-1h2zm-4 0v1h-2v-1h2zm-4 0v1h-2v-1h2zm-4 0v1h-2v-1h2zm-4 0v1h-2v-1h2zm-4 0v1h-2v-1h2zm-4 0v1h-2v-1h2zm-4 0v1h-2v-1h2zm-4 0v1h-2v-1h2zm-4 0v1h-2v-1h2zm-4 0v1h-2v-1h2zm-4 0v1h-2v-1h2zm-4 0v1h-2v-1h2zm-4 0v1h-2v-1h2zm-4 0v1h-2v-1h2zm-4 0v1h-2v-1h2zm-4 0v1h-2v-1h2zm-4 0v1h-2v-1h2zm-4 0v1h-2v-1h2zm-4 0v1h-2v-1h2zm-4 0v1h-2v-1h2zm-4 0v1h-2v-1h2zm-4 0v1h-2v-1h2zm-4 0v1h-2v-1h2zm-4 0v1h-2v-1h2zm-4 0v1h-2v-1h2z" mask="url(#b)"/>
        <g mask="url(#b)">
            <g transform="rotate(45 -166.016 124.991)">
                <use fill="#FFF" xlink:href="#K"/>
                <use fill="#FFF" xlink:href="#K"/>
                <use fill="#FABF86" fill-opacity=".5" xlink:href="#K"/>
            </g>
            <g transform="rotate(45 -166.016 124.991)">
                <use fill="#FFF" xlink:href="#L"/>
                <use fill="#FFF" xlink:href="#L"/>
                <use fill="#FABF86" fill-opacity=".5" xlink:href="#L"/>
            </g>
            <g transform="rotate(45 -166.016 124.991)">
                <use fill="#FFF" xlink:href="#M"/>
                <use fill="#FFF" xlink:href="#M"/>
                <use fill="#FABF86" fill-opacity=".5" xlink:href="#M"/>
            </g>
            <g transform="rotate(45 -166.016 124.991)">
                <use fill="#FFF" xlink:href="#N"/>
                <use fill="#FFF" xlink:href="#N"/>
                <use fill="#FABF86" fill-opacity=".5" xlink:href="#N"/>
            </g>
            <path fill-rule="nonzero" stroke="#FABF86" stroke-linecap="round" stroke-linejoin="round" stroke-opacity=".8" stroke-width=".8" d="M56.618 183.306c-4.084-1.657-6.728-3.088-7.933-4.293M53.79 186.134c-3.608-1.698-6.013-3.15-7.218-4.354M49.83 187.831c-2.508-.999-4.415-2.036-5.72-3.11"/>
            <g transform="rotate(45 -166.016 124.991)">
                <use fill="#FFF" xlink:href="#O"/>
                <use fill="#FFF" xlink:href="#O"/>
                <use fill="#FBCC9E" xlink:href="#O"/>
            </g>
        </g>
        <g mask="url(#b)">
            <g transform="scale(-1 1) rotate(45 -265.122 -114.273)">
                <use fill="#FFF" xlink:href="#P"/>
                <use fill="#FFF" xlink:href="#P"/>
                <use fill="#FABF86" fill-opacity=".5" xlink:href="#P"/>
            </g>
            <g transform="scale(-1 1) rotate(45 -265.122 -114.273)">
                <use fill="#FFF" xlink:href="#Q"/>
                <use fill="#FFF" xlink:href="#Q"/>
                <use fill="#FABF86" fill-opacity=".5" xlink:href="#Q"/>
            </g>
            <g transform="scale(-1 1) rotate(45 -265.122 -114.273)">
                <use fill="#FFF" xlink:href="#R"/>
                <use fill="#FFF" xlink:href="#R"/>
                <use fill="#FABF86" fill-opacity=".5" xlink:href="#R"/>
            </g>
            <g transform="scale(-1 1) rotate(45 -265.122 -114.273)">
                <use fill="#FFF" xlink:href="#S"/>
                <use fill="#FFF" xlink:href="#S"/>
                <use fill="#FABF86" fill-opacity=".5" xlink:href="#S"/>
            </g>
            <path fill-rule="nonzero" stroke="#FABF86" stroke-linecap="round" stroke-linejoin="round" stroke-opacity=".8" stroke-width=".8" d="M141.595 183.306c4.084-1.657 6.728-3.088 7.933-4.293M144.423 186.134c3.608-1.698 6.014-3.15 7.218-4.354M148.383 187.831c2.508-.999 4.415-2.036 5.721-3.11"/>
            <g transform="scale(-1 1) rotate(45 -265.122 -114.273)">
                <use fill="#FFF" xlink:href="#T"/>
                <use fill="#FFF" xlink:href="#T"/>
                <use fill="#FBCC9E" xlink:href="#T"/>
            </g>
        </g>
        <path fill="#2EE3AA" fill-rule="nonzero" d="M167 130a.5.5 0 0 1 0-1h48a.5.5 0 0 1 0 1h-48zM191 78a.5.5 0 0 1 0-1h24a.5.5 0 0 1 0 1h-24z" mask="url(#b)"/>
    </g>
</svg>
