<svg xmlns="http://www.w3.org/2000/svg" xmlns:xlink="http://www.w3.org/1999/xlink" width="240" height="96" viewBox="0 0 240 96">
    <defs>
        <path id="a" d="M0 0h240v96H0z"/>
        <path id="c" d="M0 0h152v96H0z"/>
        <rect id="e" width="64" height="44.8" rx="4.8"/>
        <path id="f" d="M0 8h64v9.6H0z"/>
        <rect id="g" width="16" height="8" x="41.6" y="30.4" rx="1.6"/>
        <path id="h" d="M3.2 0h40a3.2 3.2 0 0 1 3.2 3.2V35L32.996 48H3.2A3.2 3.2 0 0 1 0 44.8V3.2A3.2 3.2 0 0 1 3.2 0z"/>
    </defs>
    <g fill="none" fill-rule="evenodd">
        <mask id="b" fill="#fff">
            <use xlink:href="#a"/>
        </mask>
        <use fill="#D8D8D8" fill-opacity="0" fill-rule="nonzero" xlink:href="#a"/>
        <g mask="url(#b)">
            <g style="mix-blend-mode:darken" transform="translate(88)">
                <mask id="d" fill="#fff">
                    <use xlink:href="#c"/>
                </mask>
                <use fill="#C53C3C" fill-opacity="0" fill-rule="nonzero" xlink:href="#c"/>
                <g fill-opacity=".8" mask="url(#d)" style="mix-blend-mode:darken">
                    <g fill="#EEF2F5" transform="rotate(-30 145.946 82.306)">
                        <path d="M121.6 19.2H144a9.6 9.6 0 1 1 0 19.2H67.2a9.6 9.6 0 1 1 0-19.2H44.8a9.6 9.6 0 1 1 0-19.2h76.8a9.6 9.6 0 1 1 0 19.2z"/>
                        <rect width="96" height="19.2" x="35.2" y="38.4" rx="9.6"/>
                        <rect width="19.2" height="6.4" x="9.6" rx="3.2"/>
                        <rect width="6.4" height="6.4" rx="3.2"/>
                        <rect width="6.4" height="6.4" x="134.4" rx="3.2"/>
                    </g>
                </g>
            </g>
            <g transform="rotate(15 20.204 543.235)">
                <use fill="#FFF" xlink:href="#e"/>
                <use fill="#8BDCFB" xlink:href="#e"/>
            </g>
            <g transform="rotate(15 20.204 543.235)">
                <use fill="#FFF" xlink:href="#f"/>
                <use fill="#2F88EC" xlink:href="#f"/>
            </g>
            <g fill="#FFF" transform="rotate(15 20.204 543.235)">
                <use xlink:href="#g"/>
                <use xlink:href="#g"/>
            </g>
            <g fill-rule="nonzero">
                <g transform="matrix(1 0 0 -1 73.6 48)">
                    <use fill="#FFF" xlink:href="#h"/>
                    <use fill="#2F88EC" fill-opacity=".2" xlink:href="#h"/>
                </g>
                <path fill="#2F88EC" fill-opacity=".6" d="M106.596 0L120 13h-13.404z"/>
                <path fill="#2F88EC" d="M83.228 13.895h9.1a1.895 1.895 0 0 1 0 3.79h-9.1a1.895 1.895 0 0 1 0-3.79zM83.228 22.737h16.833a1.895 1.895 0 1 1 0 3.79H83.228a1.895 1.895 0 1 1 0-3.79zM83.228 31.579h25.855a1.895 1.895 0 1 1 0 3.79H83.228a1.895 1.895 0 1 1 0-3.79z"/>
            </g>
            <g fill-rule="nonzero" transform="rotate(-15 85.728 10.894)">
                <rect width="44.8" height="51.2" x=".26" y="4.581" fill="#8BDCFB" fill-opacity=".4" rx="3.2"/>
                <rect width="44.8" height="51.2" x="4.8" fill="#2F88EC" rx="3.2"/>
                <rect width="32" height="9.6" x="11.2" y="6.4" fill="#FFF" rx="1.6"/>
                <rect width="8" height="6.4" x="11.2" y="19.2" fill="#8BDCFB" rx="1.6"/>
                <rect width="9.6" height="6.4" x="22.4" y="19.2" fill="#8BDCFB" rx="1.6"/>
                <rect width="8" height="6.4" x="35.2" y="19.2" fill="#8BDCFB" rx="1.6"/>
                <rect width="8" height="6.4" x="11.2" y="28.8" fill="#8BDCFB" rx="1.6"/>
                <rect width="9.6" height="6.4" x="22.4" y="28.8" fill="#8BDCFB" rx="1.6"/>
                <rect width="8" height="6.4" x="11.2" y="38.4" fill="#8BDCFB" rx="1.6"/>
                <rect width="9.6" height="6.4" x="22.4" y="38.4" fill="#8BDCFB" rx="1.6"/>
                <rect width="8" height="16" x="35.2" y="28.8" fill="#F8AB60" rx="1.6"/>
            </g>
        </g>
    </g>
</svg>
