<svg width="56" height="56" viewBox="0 0 56 56" fill="none" xmlns="http://www.w3.org/2000/svg">
<path d="M0 28C0 43.4638 12.5362 56 28 56C43.4642 56 56 43.4638 56 28C56 12.5362 43.4642 0 28 0C12.5362 0 0 12.5362 0 28Z" fill="#4EC2BE"/>
<mask id="mask0" mask-type="alpha" maskUnits="userSpaceOnUse" x="0" y="0" width="56" height="56">
<path d="M0 28C0 43.4638 12.5362 56 28 56C43.4642 56 56 43.4638 56 28C56 12.5362 43.4642 0 28 0C12.5362 0 0 12.5362 0 28Z" fill="white"/>
</mask>
<g mask="url(#mask0)">
<path fill-rule="evenodd" clip-rule="evenodd" d="M47.5961 54.3165C47.6097 57.6303 47.5558 60.8562 47.4489 63.9888H17.4558L16.2441 61.7599L14.3028 54.3301V49.6982C14.3028 44.598 14.0818 39.919 13.9282 37.0142C13.8344 35.2672 15.0724 33.8014 15.0724 33.8014C17.5024 32.5495 19.5507 31.4719 19.5507 31.4719L25.8961 29.738L33.1315 29.4504L42.817 31.4719C43.8678 31.4719 46.7391 34.484 46.7391 34.484C47.2546 40.709 47.5694 47.3356 47.5961 54.3165Z" fill="url(#paint0_linear)"/>
<path fill-rule="evenodd" clip-rule="evenodd" d="M51.774 66.7111C57.8058 38.8036 43.3888 31.4664 43.3888 31.4664C43.3888 31.4664 39.3929 29.8958 33.1955 37.4265C25.3538 46.9559 29.374 84.786 29.374 91.2298C29.374 97.6732 36.945 96.2236 43.4766 94.9347C50.0078 93.6463 54.504 94.9347 54.826 94.2907C55.1284 93.6857 52.174 69.9277 51.8092 67.0047C51.8041 66.9631 51.7994 66.9258 51.7952 66.8927L51.774 66.7111Z" fill="url(#paint1_linear)"/>
<path fill-rule="evenodd" clip-rule="evenodd" d="M3.19809 68.9583C2.86039 69.1992 2.5227 69.4351 2.18755 69.6655C1.70476 69.9968 1.22621 70.3167 0.753607 70.6251C-4.31906 73.9351 -8.64803 75.8938 -8.64803 75.8938L-11.8697 68.1021C1.17827 63.4911 5.68882 52.3606 8.58851 45.8417C11.4882 39.3224 14.3875 34.8695 14.3875 34.8695C14.3875 34.8695 18.6227 26.8051 22.4421 38.2092C22.4421 38.2092 35.8121 63.0142 20.1869 96.7237C20.1869 96.7237 9.87736 91.1584 6.17203 93.3844C2.46712 95.6104 0.695061 95.6104 0.211849 94.1795C-0.271362 92.7485 4.49076 68.0105 4.49076 68.0105L3.19809 68.9583Z" fill="url(#paint2_linear)"/>
<path fill-rule="evenodd" clip-rule="evenodd" d="M19.6498 10.0598C19.6252 10.0191 19.5679 10.0276 19.5556 10.073C19.2972 11.0352 17.5056 17.6359 16.6024 19.128C15.6746 20.6604 11.9481 23.6148 12.6676 28.0545C12.7359 28.4758 13.0774 28.7944 13.4872 28.875L15.2275 29.2161C15.2567 29.222 15.2847 29.2029 15.2907 29.1741L15.5639 27.7809C15.5639 27.7809 16.0267 29.8987 16.4781 29.8367C16.9295 29.7752 20.8703 30.9784 25.9031 29.7616C30.7161 28.5984 20.5483 11.5485 19.6498 10.0598Z" fill="#1A4379"/>
<path fill-rule="evenodd" clip-rule="evenodd" d="M25.8993 29.7407C26.4563 25.7397 26.0495 25.335 26.0495 25.335C25.5544 24.9417 25.2396 25.2756 23.9049 25.0915C23.3886 25.0202 22.0688 24.8382 21.0668 24.0686C20.1385 23.3546 19.7919 22.3729 19.5628 21.6979C18.3436 18.0995 19.4737 11.6209 19.6277 10.7673C19.6277 10.7673 38.4191 15.4586 36.8028 22.6012C36.2759 24.9281 35.9212 26.497 35.6815 27.555L33.1331 29.4488C32.6274 30.9392 31.28 31.9854 29.7302 32.0932C28.1016 32.2064 26.5577 31.2616 25.8993 29.7407Z" fill="white"/>
<path fill-rule="evenodd" clip-rule="evenodd" d="M20.4428 17.559C20.4462 17.9629 20.24 18.2925 19.9821 18.2942C19.7242 18.2968 19.512 17.9714 19.5086 17.5675C19.5053 17.1632 19.7114 16.834 19.9694 16.8319C20.2273 16.8293 20.4394 17.1551 20.4428 17.559Z" fill="#1A4379"/>
<path fill-rule="evenodd" clip-rule="evenodd" d="M25.1245 17.559C25.1279 17.9629 24.9217 18.2925 24.6637 18.2942C24.4058 18.2968 24.1941 17.9714 24.1903 17.5675C24.1869 17.1632 24.3931 16.834 24.651 16.8319C24.909 16.8293 25.1211 17.1551 25.1245 17.559Z" fill="#1A4379"/>
<path d="M19.1885 14.3856C19.3319 14.3202 19.533 14.246 19.7812 14.2057C20.0459 14.1633 20.272 14.1734 20.4341 14.1934" stroke="#1A4379" stroke-width="0.5" stroke-linecap="round" stroke-linejoin="round"/>
<path fill-rule="evenodd" clip-rule="evenodd" d="M29.4483 20.8203C28.9032 21.6858 27.7599 21.945 26.8944 21.3994C26.0294 20.8543 25.7702 19.711 26.3153 18.8459C26.8605 17.9809 28.0042 17.7213 28.8692 18.2664C29.7343 18.812 29.9939 19.9553 29.4483 20.8203Z" fill="#FFE380"/>
<path fill-rule="evenodd" clip-rule="evenodd" d="M19.4515 21.3392C19.4541 21.3367 19.6221 21.1436 19.6899 21.0355C20.2355 20.1704 19.9763 19.0271 19.1108 18.482C19.0837 18.4646 19.0565 18.4484 19.029 18.4327C19.0442 18.9155 19.0879 19.456 19.1796 20.0406C19.2538 20.5136 19.3484 20.9476 19.4515 21.3392Z" fill="#FFE380"/>
<path fill-rule="evenodd" clip-rule="evenodd" d="M19.96 9.3999C19.96 9.3999 19.6159 9.64724 19.4237 10.5585C19.232 11.4706 19.96 9.3999 19.96 9.3999Z" fill="#231F20"/>
<path d="M24.0488 21.4042C24.0488 21.4042 23.7192 22.3214 22.5368 22.3499" stroke="#1A4379" stroke-width="0.5" stroke-linecap="round" stroke-linejoin="round"/>
<path d="M23.7114 14.0836C23.9617 13.9966 24.4461 13.8655 25.0494 13.9499C25.822 14.0573 26.3353 14.4544 26.5381 14.63" stroke="#231F20" stroke-width="0.5" stroke-linecap="round" stroke-linejoin="round"/>
<path d="M22.399 18.4327C22.399 18.4327 22.0961 19.8192 22.2743 19.9715C22.452 20.1238 22.8555 19.9715 22.8555 19.9715" stroke="#1A4379" stroke-width="0.5" stroke-linecap="round" stroke-linejoin="round"/>
<path fill-rule="evenodd" clip-rule="evenodd" d="M21.0373 8.46644C21.0373 8.46644 24.7703 6.25784 26.3289 5.99014C27.8876 5.72202 32.7078 6.38087 34.5724 10.4048C36.4365 14.4287 35.7144 17.0128 39.6429 19.2901C43.5718 21.567 44.4445 26.2575 43.7568 26.8395C43.0687 27.422 35.7751 29.8644 34.961 29.9912C34.1473 30.1185 32.2416 29.9598 32.0146 28.1937C31.7872 26.4276 32.9335 22.7791 31.0253 21.9026C29.117 21.0261 27.5083 18.9894 27.6373 16.5037C27.6373 16.5037 22.7347 15.9004 20.7387 13.6439C18.7426 11.3878 19.3243 9.42141 21.0373 8.46644Z" fill="url(#paint3_linear)"/>
<path d="M32.8877 29.954C32.1304 31.2848 30.7058 32.093 29.221 32.0082C27.8112 31.9271 26.5398 31.0519 25.8987 29.7406" stroke="#FFD560" stroke-width="0.772727" stroke-linecap="round" stroke-linejoin="round"/>
<path d="M37.8823 40.353H18.1176V51.8824H37.8823V40.353Z" fill="#FFE557"/>
<path d="M37.8823 40.353H24.7059V51.8824H37.8823V40.353Z" fill="url(#paint4_linear)"/>
<rect width="2.63529" height="1.33279" transform="matrix(-1 0 0 1 28.9888 48.6337)" fill="white"/>
<rect width="2.63529" height="0.333198" rx="0.166599" transform="matrix(-1 0 0 1 28.9888 50.2997)" fill="white"/>
<path d="M33.7646 40.353H28.8235V43.6471L29.6407 43.3177L30.4705 43.6471L31.2941 43.3177L32.1176 43.6471L32.9411 43.3177L33.7646 43.6471V40.353Z" fill="#F0B616"/>
<path d="M23.8828 40.353H22.2358V43.685L23.0593 43.3518L23.8828 43.685V40.353Z" fill="#F0B616"/>
<path fill-rule="evenodd" clip-rule="evenodd" d="M15.185 50.656L12.353 51.8825L14.8094 57.1362L17.2808 53.5295L15.185 50.656Z" fill="#2FB7EC"/>
<path d="M23.4182 49.0393C22.1249 48.8921 20.8314 48.7405 19.5357 48.6236C19.157 48.5888 18.7066 48.5372 18.3965 48.7099C17.3056 49.317 16.2467 49.9888 15.1855 50.656C15.6957 51.759 16.4118 52.7357 17.2814 53.5296C17.9318 53.2031 18.619 53.0296 19.4017 53.0708C21.0272 53.156 21.6997 53.1029 23.3306 53.1029C24.7778 53.1029 25.8914 51.8825 25.8914 51.8825C25.5858 51.8825 24.7778 51.8825 23.4208 51.8825C22.4945 51.8825 21.9981 51.0391 21.6465 50.8522C21.6554 50.762 21.6635 50.6717 21.6726 50.5816C22.226 50.6447 22.7775 50.7137 23.3306 50.7705C23.6103 50.8008 24.4797 50.656 24.8253 50.3688C24.9437 50.2702 24.9206 50.1376 24.9308 50.0113C24.9672 49.5585 23.7301 49.0743 23.4182 49.0393Z" fill="white"/>
</g>
<path d="M9.77583 4.85173C10.5563 4.6426 11.3479 4.87513 11.8882 5.3926C12.0972 4.67437 12.6667 4.07711 13.4472 3.86798C14.63 3.55105 15.8433 4.24384 16.1573 5.41538C16.7612 7.66936 13.3167 10.7236 13.3167 10.7236C13.3167 10.7236 8.80644 9.8005 8.20257 7.54683C7.88866 6.37529 8.59303 5.16866 9.77583 4.85173Z" fill="#006BA0"/>
<defs>
<linearGradient id="paint0_linear" x1="35.9287" y1="18.2606" x2="35.9287" y2="37.6266" gradientUnits="userSpaceOnUse">
<stop stop-color="#326BEE"/>
<stop offset="1" stop-color="#8BDCFB"/>
</linearGradient>
<linearGradient id="paint1_linear" x1="43.3667" y1="38.8188" x2="31.6406" y2="44.3822" gradientUnits="userSpaceOnUse">
<stop stop-color="#CEF2FD"/>
<stop offset="1" stop-color="#8BDCFB"/>
</linearGradient>
<linearGradient id="paint2_linear" x1="21.5323" y1="23.6667" x2="37.0477" y2="33.8524" gradientUnits="userSpaceOnUse">
<stop stop-color="#CEF2FD"/>
<stop offset="1" stop-color="#8BDCFB"/>
</linearGradient>
<linearGradient id="paint3_linear" x1="33.5276" y1="-6.93456" x2="59.2384" y2="21.1281" gradientUnits="userSpaceOnUse">
<stop stop-color="#1A4379"/>
<stop offset="0.305787" stop-color="#006BA0"/>
<stop offset="1" stop-color="#006BA0"/>
</linearGradient>
<linearGradient id="paint4_linear" x1="44.4706" y1="46.1177" x2="33.0432" y2="59.1776" gradientUnits="userSpaceOnUse">
<stop stop-color="#FFE557"/>
<stop offset="1" stop-color="#FFC72C"/>
</linearGradient>
</defs>
</svg>
