<svg xmlns="http://www.w3.org/2000/svg" xmlns:xlink="http://www.w3.org/1999/xlink" width="720" height="760" viewBox="0 0 720 760">
    <defs>
        <path id="a" d="M0 0h720v760H0z"/>
        <path id="c" d="M340 243c17.077-94.202 50.55-145.298 100.42-153.288 74.805-11.986 4.494 42.109 42.888 64.404 17.06 9.906 36.916 5.454 68.018 0 31.103-5.455 74.5 9.665 78.674 88.07-52.45 1-149.116 1.27-290 .814z"/>
        <linearGradient id="d" x1="100%" x2="0%" y1="82%" y2="18%">
            <stop offset="0%" stop-color="#CEF2FD"/>
            <stop offset="100%" stop-color="#8BDCFB"/>
        </linearGradient>
        <linearGradient id="e" x1="100%" x2="0%" y1="82%" y2="18%">
            <stop offset="0%" stop-color="#8BDCFB"/>
            <stop offset="100%" stop-color="#8BDCFB"/>
        </linearGradient>
        <linearGradient id="f" x1="53.125%" x2="46.875%" y1="100%" y2="0%">
            <stop offset="0%" stop-color="#8BDCFB"/>
            <stop offset="100%" stop-color="#8BDCFB"/>
        </linearGradient>
        <linearGradient id="g" x1="100%" x2="-42.556%" y1="100%" y2="100%">
            <stop offset="0%" stop-color="#BFF0FD"/>
            <stop offset="100%" stop-color="#8BDCFB"/>
        </linearGradient>
        <linearGradient id="h" x1="0%" x2="74.281%" y1="43.388%" y2="56.612%">
            <stop offset="0%" stop-color="#EEF2F5"/>
            <stop offset="100%" stop-color="#AFC7D1" stop-opacity=".8"/>
        </linearGradient>
        <linearGradient id="i" x1="0%" y1="50%" y2="50%">
            <stop offset="0%" stop-color="#2FB7EC"/>
            <stop offset="100%" stop-color="#2FB7EC"/>
        </linearGradient>
        <linearGradient id="j" x1="0%" y1="43.388%" y2="56.612%">
            <stop offset="0%" stop-color="#CEF2FD"/>
            <stop offset="100%" stop-color="#EEF2F5"/>
        </linearGradient>
        <linearGradient id="k" x1="78.125%" x2="21.875%" y1="0%" y2="100%">
            <stop offset="0%" stop-color="#CEF2FD"/>
            <stop offset="100%" stop-color="#8BDCFB"/>
        </linearGradient>
        <linearGradient id="l" x1="0%" y1="50%" y2="50%">
            <stop offset="0%" stop-color="#FFE557"/>
            <stop offset="100%" stop-color="#FFC72C"/>
        </linearGradient>
        <linearGradient id="m" x1="0%" y1="50%" y2="50%">
            <stop offset="0%" stop-color="#FFD560"/>
            <stop offset="100%" stop-color="#F0B616"/>
        </linearGradient>
        <linearGradient id="n" x1="8.234%" y1="50%" y2="50%">
            <stop offset="0%" stop-color="#FFE557"/>
            <stop offset="100%" stop-color="#FFC72C"/>
        </linearGradient>
        <linearGradient id="o" x1="50%" x2="41.319%" y1="0%" y2="100%">
            <stop offset="0%" stop-color="#8BDCFB"/>
            <stop offset="100%" stop-color="#2FB7EC"/>
        </linearGradient>
        <circle id="p" cx="28" cy="28" r="28"/>
        <path id="r" d="M466 12h74v142a2 2 0 0 1-2 2h-70a2 2 0 0 1-2-2V12z"/>
        <linearGradient id="s" x1="0%" x2="79.921%" y1="76.657%" y2="43.552%">
            <stop offset="0%" stop-color="#3FAA7D"/>
            <stop offset="100%" stop-color="#4E6EB9"/>
        </linearGradient>
        <linearGradient id="t" x1="0%" x2="79.921%" y1="85.787%" y2="41.343%">
            <stop offset="0%" stop-color="#3FAA7D"/>
            <stop offset="100%" stop-color="#4E6EB9"/>
        </linearGradient>
        <linearGradient id="u" x1="100%" x2="50%" y1="17.925%" y2="95.707%">
            <stop offset="0%" stop-color="#FFE557"/>
            <stop offset="100%" stop-color="#FFC72C"/>
        </linearGradient>
        <linearGradient id="v" x1="50%" x2="50%" y1="0%" y2="100%">
            <stop offset="0%" stop-color="#F0B616"/>
            <stop offset="100%" stop-color="#FFC72C"/>
        </linearGradient>
        <path id="w" d="M84.232 113.102c4.085 5.613 9.385 19.62 13.589 23.056 6.337 1.276 10.331 4.23 14.285 6v5.5c-16.544 4.125-27.544 4.125-33 0-5.602-4.236-11.884-18.953-14.106-26.18 3.302-.878 9.713-3.67 19.232-8.376z"/>
        <linearGradient id="x" x1="80.149%" x2="25.728%" y1="59.877%" y2="41.744%">
            <stop offset="0%" stop-color="#8BDCFB"/>
            <stop offset="100%" stop-color="#2FB7EC"/>
        </linearGradient>
        <linearGradient id="y" x1="3.022%" x2="109.46%" y1="49.697%" y2="50.942%">
            <stop offset="0%" stop-color="#8BDCFB"/>
            <stop offset="100%" stop-color="#2FB7EC"/>
        </linearGradient>
        <path id="z" d="M155.529 118.368c.327 9.971.056 19.98.98 29.913 1.841 19.788 10.987 22.978 28.749 27.877 6.366 1.756 18.425 2.333 26.5 1.562 1.709-2.56 3.115-4.748 4.22-6.562-13.619-8-22.485-18.133-30.72-21.477-1.751-.71-5.203-1.86-5.75-2.023v-22.5c-5.318.403-9.851-.012-13.6-1.246a34.257 34.257 0 0 1-10.379-5.544z"/>
        <path id="A" d="M144.562 56.477c-2.017 3.918-4.21 8.655-6.612 12.35-1.182 1.818-4.625 2.445-4.587 4.614.125 7.117 3.362 12.956 9.873 15.717 7.786 3.301 19.326 2.23 23.205-5.931 4.75-9.99.792-16.084-11.87-18.284l-10.01-8.466z"/>
        <path id="B" d="M155.5 66.158c0 9.388-7.611 17-17 17s-17-7.612-17-17v-36h34v36z"/>
        <path id="C" d="M125.408 47.39c.778-1.695 2.004.44 2.217 1.027.715 1.964-1.152 6.631 1.388 8.878 1.98 1.751 2.476 3.611 1.71 4.697-.792.655-3.554.581-5.446.597-3.475.028-7.655.547-4.743-3.895 3.447-5.26 4.096-9.61 4.874-11.304z"/>
        <path id="D" d="M160.5 56.658v-10a5 5 0 1 0 0 10z"/>
        <linearGradient id="E" x1="100%" x2="-6.882%" y1="17.237%" y2="92.413%">
            <stop offset="0%" stop-color="#326BEE"/>
            <stop offset="100%" stop-color="#1D4BEA"/>
        </linearGradient>
        <path id="F" d="M164.993 17.333c-1.806-.75-2.093-2.777-.863-6.08.35 1.695.687 2.708 1.013 3.04.709.72.834.61 1.76 1.014l-1.91 2.026z"/>
        <path id="G" d="M167.32 19.892c-1.805-.75-2.708-2.125-2.708-4.125.361.632.705 1.114 1.031 1.446.709.72 1.475.873 2.401 1.278l-.724 1.4z"/>
        <path id="H" d="M138.423 171.196c4.828-.324 8.661-2.456 13.501-1.081 1.777.504 6.625 1.442 7.799 2.58.245.239 2.678 1.948.602 2.244-2.075.296-3.486-2.342-3.006-1.745l2.718 2.724c.751 1.135-.13 1.404-.718 1.404-.918 0-.95-.616-.236 1 .225.509 0 .888-.227 1.046-.42.293-1.612-.11-2.025-.158-1.09-.125-2.206-2.742-1.75-1.744.069.151.616.95 1.75 1.744.37.26 2.366.81 1.548 1.686-.223.238-.583.238-1.94.238-1.358 0-5.227-.759-6.083-.73-3.188-.556-6.704-.518-8.478-1.194-3.105-1.182-7.385-.965-9.03-1.744 2.543-1.947 2.7-2.527 5.575-6.27z"/>
        <path id="I" d="M20.515 151.688c-4.518.305-8.007.026-12.408 1.095-.761.184-.761.822 0 1.575l3.124 1.856c-2.061 0-5.515-1.186-2.061 3.44.338.453-1.474-.542-1.542 0-.085.683-.085 1.625 1.193 2.79.275.25-1.186-.36-1.193 0-.009.48.48 1.187 1.16 1.81 2.104 1.928 5.247 2.61 8.094 3.115 13.919 2.47 15.587-13.74 6.342-20.211l-2.709 4.53z"/>
        <linearGradient id="J" x1="50%" x2="89.342%" y1="50%" y2="43.878%">
            <stop offset="0%" stop-color="#4A90E2" stop-opacity=".4"/>
            <stop offset="100%" stop-color="#4E6EB9"/>
        </linearGradient>
        <path id="K" d="M90.173 122.365c8.412-.168 13.73-.107 21.883-4.144-.43-.762-1.84-2.736-2.444-5.88-5.729 3.538-17.354 8.102-19.785 9.092.288.956.404 1.267.346.932z"/>
        <path id="L" d="M192 129.607c8.056.52 15.825 1.255 23.979-2.782 0-1.097.603-5.312 0-8.457-5.73 3.54-10.677 7.36-23.979 6.79v4.45z"/>
    </defs>
    <g fill="none" fill-rule="evenodd">
        <mask id="b" fill="#fff">
            <use xlink:href="#a"/>
        </mask>
        <g mask="url(#b)">
            <g transform="translate(70 397)">
                <g fill-rule="nonzero" transform="matrix(-1 0 0 1 970 0)">
                    <use fill="#FFF" xlink:href="#c"/>
                    <use fill="#EEF2F5" xlink:href="#c"/>
                </g>
                <g fill-rule="nonzero">
                    <path fill="url(#d)" d="M17.5 0h45A2.5 2.5 0 0 1 65 2.5V40H15V2.5A2.5 2.5 0 0 1 17.5 0z" transform="translate(475 204)"/>
                    <path fill="url(#e)" d="M2.5 0H50v40H0V2.5A2.5 2.5 0 0 1 2.5 0z" transform="translate(475 204)"/>
                    <g fill="#2FB7EC" fill-opacity=".5">
                        <path d="M511.25 232.75h10v5h-10zM511.25 239h10v1.25h-10z"/>
                    </g>
                    <path fill="#2FB7EC" d="M496 204h15v7.5l-2.48-1.25-2.52 1.25-2.5-1.25-2.5 1.25-2.5-1.25-2.5 1.25z"/>
                    <path fill="#2FB7EC" fill-opacity=".5" d="M532.5 205.25h1.25V244h-1.25z"/>
                    <path fill="#2FB7EC" d="M530 204h5v7.5l-2.5-1.25-2.5 1.25z"/>
                    <path fill="#8BDCFB" d="M540 229h20v15h-20z"/>
                    <path fill="url(#f)" d="M81.25 25H85v15h-3.75z" transform="translate(475 204)"/>
                    <path fill="#2FB7EC" d="M560 234h12.5v10H560zM543.75 229h10v5l-2.5-1.25-2.065 1.25-2.935-1.25-2.5 1.25z"/>
                </g>
                <path fill="#2EE3AA" d="M58 222.254c.008 5.372-3.431 10.171-8.594 11.992-5.164 1.821-10.939.271-14.432-3.873-3.494-4.144-3.952-9.989-1.147-14.607a.857.857 0 0 1 .06-.101 14.006 14.006 0 0 0 1.262-10.998c-.063-.203-.107-.308-.107-.308a10.061 10.061 0 0 1-.022-5.74c.246-.767.563-1.51.946-2.22a23.347 23.347 0 0 0 1.518-4.11c.387-1.604.458-3.265.211-4.896v-.015a.837.837 0 0 0-.034-.164 2.296 2.296 0 0 0-.054-.24.197.197 0 0 0-.016-.069.151.151 0 0 1 0-.043 7.387 7.387 0 0 1-.123-1.331c-.056-2.672 1.369-5.165 3.723-6.517a7.678 7.678 0 0 1 7.627 0c2.355 1.352 3.78 3.845 3.723 6.517 0 .207 0 .41-.025.618v.154c-.17 2.978-.416 3.284-.416 4.386a10.99 10.99 0 0 0 1.697 5.33c.035.052.123.19.237.388a9.959 9.959 0 0 1 .93 7.96l-.025.078a.67.67 0 0 0-.044.14 2.47 2.47 0 0 0-.107.308l-.025.077c-.455 1.545-1.37 5.832.965 10.11A12.462 12.462 0 0 1 58 222.255z"/>
                <path fill="#3FAA7D" fill-rule="nonzero" d="M44 223v20h2v-20z"/>
                <path fill="#2EE3AA" d="M26 222.254c.008 5.372-3.431 10.171-8.594 11.992-5.164 1.821-10.939.271-14.432-3.873-3.494-4.144-3.952-9.989-1.147-14.607a.857.857 0 0 1 .06-.101 14.006 14.006 0 0 0 1.262-10.998c-.063-.203-.107-.308-.107-.308a10.061 10.061 0 0 1-.022-5.74c.246-.767.563-1.51.946-2.22.373-.777 3.417-5.741 9.034-5.741 5.617 0 8.377 4.698 8.797 5.36.035.053.123.192.237.39a9.959 9.959 0 0 1 .93 7.96l-.025.077a.67.67 0 0 0-.044.14 2.47 2.47 0 0 0-.107.308l-.025.077c-.455 1.545-1.37 5.832.965 10.11A12.464 12.464 0 0 1 26 222.255z"/>
                <path fill="#3FAA7D" fill-rule="nonzero" d="M12 223v20h2v-20z"/>
                <g transform="translate(47)">
                    <path fill="url(#g)" fill-rule="nonzero" d="M98 196.658h173v26H102a4 4 0 0 1-4-4v-22z"/>
                    <path fill="#AFC7D1" d="M97 140.658h8a4 4 0 0 1 4 4v52H97v-56zM93 196.658v22a4 4 0 0 1-4 4v-78a4 4 0 0 1 4-4h4v56h-4zM7 218.658h82v4H7a2 2 0 0 1 0-4z"/>
                    <path fill="#AFC7D1" fill-opacity=".5" d="M111 136.658h12l-13 60H98z"/>
                    <path fill="#CEF2FD" d="M111 136.658l11.357-56.785a4 4 0 0 1 3.922-3.215H267a4 4 0 0 1 4 4v56h-12v-48h-56v48h-12v-48h-58.4l-9.6 48-13 60H98l13-60z"/>
                    <path fill="#8BDCFB" fill-rule="nonzero" d="M191 76.658h76a4 4 0 0 1 4 4v56h-12v-48h-56v48h-12v-60z"/>
                    <path fill="#AFC7D1" d="M161 60.658h78a4 4 0 0 1 4 4v12h-86v-12a4 4 0 0 1 4-4z"/>
                    <path fill="#7790A3" d="M203 60.658h36a4 4 0 0 1 4 4v12h-40v-16z"/>
                    <path fill="#8BDCFB" d="M191 136.658h80v60h-80z"/>
                    <g fill="#2FB7EC" fill-opacity=".4">
                        <path d="M195 182.658h12v4h-12zM195 188.658h12v4h-12z"/>
                    </g>
                    <rect width="4" height="20" x="132" y="127.658" fill="#8BDCFB" fill-rule="nonzero" rx="2" transform="rotate(30 134 137.658)"/>
                    <g transform="translate(107 202.658)">
                        <circle cx="20" cy="20" r="20" fill="#AFC7D1"/>
                        <circle cx="20" cy="20" r="6" fill="#7790A3"/>
                    </g>
                    <path fill="#8BDCFB" d="M103 222.658c0-13.255 10.745-24 24-24s24 10.745 24 24h-4c0-11.046-8.954-20-20-20s-20 8.954-20 20h-4z"/>
                    <g transform="translate(231 202.658)">
                        <circle cx="20" cy="20" r="20" fill="#AFC7D1"/>
                        <circle cx="20" cy="20" r="6" fill="#7790A3"/>
                    </g>
                    <path fill="#8BDCFB" d="M227 222.658c0-13.255 10.745-24 24-24s24 10.745 24 24h-4c0-11.046-8.954-20-20-20s-20 8.954-20 20h-4z"/>
                    <g fill-rule="nonzero" transform="translate(0 116.658)">
                        <path fill="url(#h)" d="M20 2h20l-2 8H18z" transform="rotate(180 29 41)"/>
                        <path fill="#4A90E2" d="M6 78h38a2 2 0 0 1 2 2v20a2 2 0 0 1-2 2H8a2 2 0 0 1-2-2V78z"/>
                        <path fill="url(#i)" d="M6 8h20v24H8a2 2 0 0 1-2-2V8z" transform="translate(0 70)"/>
                        <path fill="url(#j)" d="M6 0h20l-2 8H4z" transform="matrix(1 0 0 -1 0 78)"/>
                        <path fill="url(#k)" d="M6 8v8H0z" transform="translate(0 70)"/>
                        <path fill="#8BDCFB" d="M16 96h8v3h-8z"/>
                        <rect width="48" height="34" x="34" y="68" fill="#FFE557" rx="2"/>
                        <g transform="translate(34 68)">
                            <rect width="48" height="34" fill="#FFE557" rx="2"/>
                            <path fill="url(#l)" d="M2 0h30v34H2a2 2 0 0 1-2-2V2a2 2 0 0 1 2-2z"/>
                            <path fill="#F0B616" d="M8 0h12v8l-1.985-1L16 8l-2-1-2 1-2-1-2 1zM38 0h4v8l-2-1-2 1z"/>
                        </g>
                        <g transform="translate(34 34)">
                            <rect width="48" height="34" fill="#FFD560" rx="2"/>
                            <path fill="url(#m)" d="M2 0h30v34H2a2 2 0 0 1-2-2V2a2 2 0 0 1 2-2z"/>
                            <path fill="#F0B616" d="M8 0h12v8l-1.985-1L16 8l-2-1-2 1-2-1-2 1zM38 0h4v8l-2-1-2 1z"/>
                        </g>
                        <g transform="translate(34)">
                            <rect width="48" height="34" fill="#FFE557" rx="2"/>
                            <path fill="url(#n)" d="M2 0h30v34H2a2 2 0 0 1-2-2V2a2 2 0 0 1 2-2z"/>
                            <path fill="#F0B616" d="M8 0h12v8l-1.985-1L16 8l-2-1-2 1-2-1-2 1zM38 0h4v8l-2-1-2 1z"/>
                        </g>
                    </g>
                    <path fill="url(#o)" fill-rule="nonzero" d="M135 196.658h-25l13-60h12z"/>
                    <circle cx="139" cy="129.658" r="4" fill="#8BDCFB" fill-rule="nonzero"/>
                    <g>
                        <path fill="#AFC7D1" d="M189 45a3 3 0 0 1 3 3v13h-6V48a3 3 0 0 1 3-3z"/>
                        <path fill="#7790A3" d="M219 45a3 3 0 0 1 3 3v13h-6V48a3 3 0 0 1 3-3z"/>
                    </g>
                    <g transform="translate(176)">
                        <mask id="q" fill="#fff">
                            <use xlink:href="#p"/>
                        </mask>
                        <use fill="#326BEE" xlink:href="#p"/>
                        <path fill="#C3D4FA" d="M27.658-8.36l22.44-.04-7.914 21.152-7.934.015z" mask="url(#q)" transform="rotate(45 38.878 2.183)"/>
                        <path stroke="#1D4BEA" stroke-linecap="round" stroke-linejoin="round" stroke-width="2.8" d="M21.097 28.795l9.835-19.6M8.45 28.795l22.482-19.6M30.932 9.195l5.62 22.4M30.932 9.195l16.861 25.2" mask="url(#q)"/>
                        <path fill="#5685F1" d="M16.881 25.995l31.264 7.787a2.8 2.8 0 0 1 2.1 3.112L48.21 51.1a2.809 2.809 0 0 1-3.3 2.356L5.537 46.1a2.8 2.8 0 0 1-2.254-3.212l2.055-12.283a2.804 2.804 0 0 1 2.09-2.256l9.453-2.354z" mask="url(#q)"/>
                        <path fill="#FFF" d="M39.83 38.425c-.441 0-.851.354-.913.785l-.45 3.21c-.05.35-.22.654-.51.91-.292.258-.62.387-.984.387-.354 0-.641-.125-.86-.377-.22-.252-.304-.558-.253-.918l.271-1.948c.009-.39-.288-.693-.696-.693h-1.071a.953.953 0 0 0-.893.694l-.28 1.949c-.051.36-.222.666-.513.918-.29.252-.613.379-.967.379s-.643-.128-.866-.385a1.09 1.09 0 0 1-.262-.91l.603-4.26c.064-.415-.186-.849-.567-1.024 0 0-4.516-1.849-4.81-1.968-.298-.12-.636.15-.752.599l-.276 1.071a.993.993 0 0 0 .577 1.134l3.027 1.23-.456 3.22c-.153 1.08.104 2.003.771 2.768.667.766 1.547 1.148 2.64 1.148 1.01-.001 1.93-.336 2.765-1.005.665.668 1.497 1.002 2.496 1.001 1.093 0 2.082-.384 2.965-1.151.884-.767 1.403-1.69 1.556-2.77l.485-3.457c.042-.296-.284-.538-.725-.538l-1.053.001z" mask="url(#q)" transform="rotate(11 33.182 40.745)"/>
                        <circle cx="30.212" cy="9.895" r="4.9" fill="#C3D4FA" fill-rule="nonzero" mask="url(#q)"/>
                        <circle cx="30.1" cy="9.895" r="2.1" fill="#1D4BEA" fill-rule="nonzero" mask="url(#q)"/>
                        <path fill="#FFF" fill-opacity="0" fill-rule="nonzero" d="M15.764 26.089l2.81-.002-.012 19.602-2.81.002z" mask="url(#q)" transform="rotate(10 17.163 35.889)"/>
                        <path fill="#C3D4FA" fill-rule="nonzero" d="M16.843 30.757l-2.054 12.278a2.804 2.804 0 0 1-2.09 2.256l-9.454 2.355 2.97-21.651 8.37 1.549a2.8 2.8 0 0 1 2.258 3.213z" mask="url(#q)" transform="rotate(180 10.063 36.82)"/>
                    </g>
                </g>
                <g fill-rule="nonzero">
                    <use fill="#FFF" xlink:href="#r"/>
                    <use fill="#CEF2FD" xlink:href="#r"/>
                </g>
                <path fill="#FFF" fill-rule="nonzero" d="M476 110h54v36h-54z"/>
                <path fill="#CEF2FD" d="M492 118v10h10c0 5.523-4.477 10-10 10s-10-4.477-10-10 4.477-10 10-10z"/>
                <path fill="#8BDCFB" d="M492 118c5.523 0 10 4.477 10 10h-10v-10z"/>
                <g fill="#AFC7D1" fill-opacity=".4" fill-rule="nonzero">
                    <path d="M507 122h16a1 1 0 0 1 0 2h-16a1 1 0 1 1 0-2zM507 127h16a1 1 0 0 1 0 2h-16a1 1 0 1 1 0-2zM507 132h16a1 1 0 0 1 0 2h-16a1 1 0 0 1 0-2z"/>
                </g>
                <path fill="#FFF" fill-rule="nonzero" d="M476 22h54v36h-54z"/>
                <path fill="#E6F7FF" d="M476 50.067l5.034-3.175H488l7-4.095 5.667-4.35L530 29v29h-54z"/>
                <path fill="#FFF" d="M522 55h-14.222l3.252-9.9h7.717z"/>
                <g fill-rule="nonzero" transform="translate(506.889 19)">
                    <path fill="#E14D4C" d="M12.444 17.1L16 21.679V26.1l-3.556-2.7v-6.3zm-8.888 0L0 21.679V26.1l3.556-2.7v-6.3z"/>
                    <path fill="#EEF2F5" d="M13.33 8.1c1.153 2.914.908 8.374-.736 16.381a.9.9 0 0 1-.881.719H4.287a.9.9 0 0 1-.881-.719c-1.644-8.007-1.89-13.467-.74-16.381H13.33z"/>
                    <path fill="#E14D4C" d="M4.444 25.2l-.888 2.7h8.888l-.888-2.7z"/>
                    <ellipse cx="8" cy="12.6" fill="#8BDCFB" stroke="#2FB7EC" stroke-width=".9" rx="2.217" ry="2.25"/>
                    <path fill="#E14D4C" d="M8 0C6.225 0 3.556 6.299 2.667 8.1h10.666C12.444 6.299 9.778 0 8 0z"/>
                </g>
                <path fill="#8BDCFB" fill-rule="nonzero" d="M530 55.3V58h-31.762a1.809 1.809 0 0 1-.238-.9c0-.994.796-1.8 1.778-1.8.324 0 .627.088.889.24.005-2.977 2.39-5.39 5.333-5.39 2.2 0 4.088 1.348 4.904 3.273a14.065 14.065 0 0 1 3.985-.573c1.383 0 2.72.2 3.985.573.816-1.925 2.704-3.273 4.904-3.273 2.942 0 5.328 2.413 5.333 5.39.262-.152.565-.24.889-.24z"/>
                <circle cx="481" cy="47" r="1" fill="#8BDCFB"/>
                <circle cx="488" cy="47" r="1" fill="#8BDCFB"/>
                <circle cx="495" cy="43" r="1" fill="#8BDCFB"/>
                <circle cx="501" cy="39" r="1" fill="#8BDCFB"/>
                <path fill="#FFF" fill-rule="nonzero" d="M476 66h54v36h-54z"/>
                <path fill="#E6F7FF" d="M477.202 102c14.189-.875 25.7-3.86 32.702-12.747 7.002-8.888 15.313-7.254 20.096-7.254V102h-52.798z"/>
                <path fill="#8BDCFB" fill-rule="nonzero" d="M476 101.987c.658 0 2.509.002 3.67.008 6.873.032 9.793-.077 13.368-.7 4.752-.829 8.707-2.52 12.184-5.414.485-.404.946-.821 1.39-1.254a27.285 27.285 0 0 0 2.272-2.536c.292-.366.58-.738.939-1.213l.872-1.156C514.574 84.628 519.37 83 530 83V81c-11.602 0-17.25 2.029-21.585 7.722l-.876 1.16c-.35.464-.627.823-.907 1.172a25.251 25.251 0 0 1-2.102 2.347c-.4.392-.817.769-1.254 1.133-5.586 4.649-10.604 5.524-23.589 5.462A991.273 991.273 0 0 0 476 99.99v1.998z"/>
                <g>
                    <path fill="#4A90E2" fill-rule="nonzero" d="M409.737 243.312c-11.272-6.879-23.237-14.672-23.237-26.154 0-10.53 13.546-6.19 23.237-13 9.37-6.586 14.645-24.5 28.763-24.5 28.719 0 52 16.789 52 37.5 0 6.687-3.29 31.14-12.832 33.5-9.543 2.359-15.493 5.927-26.654 11.732-11.162 5.805-23.101 14.377-28.043 20.582-6.956 8.733-7.921 34.082-10.77 48.719-6.148 3.81-12.344 4.3-18.589 1.467-4.49-31.078-5.027-51.792-1.611-62.142 3.006-9.108 11.003-17.157 16.698-22.886 1.092-1.098 2.08-2.292 3.047-3.504-1.235-.781-1.962-1.285-2.01-1.314z"/>
                    <path fill="#3FAA7D" fill-rule="nonzero" d="M393.43 332.49c-1.866 7.657-10.416 20.992-9.433 25.622.982 4.63 2.364 4.658 6.281 4.253 9.43-.974 12.2-14.303 19.207-18.153 2.21-1.214 4.682-3.65 5.355-6.814.355-1.662-.39-7.318-1.94-8.013-2.277-1.022-5.15 2.012-7.622 2.362-3.264.463-6.583.387-9.875.58l-1.973.164z"/>
                    <path fill="url(#s)" fill-rule="nonzero" d="M133.19 297.33c-1.078 2.85-6.805 5.433-11.127 3.515-1.964-.87-6.558-3.253-7.3-5.69 4.53-1.67 12.327-3.594 15.062.387l3.365 1.787z" transform="matrix(-1 0 0 1 526.952 36)"/>
                    <path fill="#3FAA7D" fill-rule="nonzero" d="M359.26 301.243c1.11 2.366-1.988 4.493-2.014 9.548-.06 11.223-.855 22.166-9.982 24.374-1.387.335-3.071-1.557-3.756-2.776-6.608-11.762-.839-17.102-4.08-29.231a80.022 80.022 0 0 0 2.528-1.78c4.661-3.464 8.464-5.369 11.41-5.714 1.431-.168 4.785 3.212 5.894 5.579z"/>
                    <path fill="url(#t)" fill-rule="nonzero" d="M59.951 266.556c.374 1.17 2.192 3.876 4.024 6.129 1.803.381 4.089 1.135 5.874-.55 1.046-1.771 2.391-4.096 3.264-5.83-7.883 1.233-13.162.251-13.162.251z" transform="matrix(-1 0 0 1 412.064 36)"/>
                    <path fill="url(#u)" fill-rule="nonzero" d="M140.5 71.977C112.653 83.473 95.017 87.833 92 118.123c9.182 7.125 17.348 9.647 24.5 7.568v38.467c-13.333-7.58-20-8.58-20-3 0 8.369.523 7 0 15s19.648 20.525 61.365 12c15.328-3.133 33.685-1.502 33.304-17-5.56-18 5.331-45.467 5.331-49.791a81.067 81.067 0 0 0 20-9.21c-4.04-12.723-8.164-20.817-12.374-24.282-6.339-5.218-12.511-9.124-18.517-11.717-6.39-2.76-21.427-4.154-45.109-4.18z" transform="matrix(-1 0 0 1 587.5 36)"/>
                    <path fill="url(#v)" fill-rule="nonzero" d="M186.25 125.158c2.767-.667 4.683-1 5.75-1 0 1.746-1.033 8-2.142 13-.739 3.333-1.941 5.878-3.608 7.636v-19.636z" transform="matrix(-1 0 0 1 657.25 36)"/>
                    <g fill="#FFF" transform="matrix(-1 0 0 1 456.106 36)">
                        <use xlink:href="#w"/>
                        <use xlink:href="#w"/>
                    </g>
                    <g fill-rule="nonzero">
                        <path fill="#8BDCFB" d="M455 212.658l-90.25-19-46.842 30.038 97.85 19.962z"/>
                        <path fill="#2FB7EC" d="M414.229 212.704l-2.114 1.67a.5.5 0 0 0 .207.882l2.986.628a2 2 0 0 0 1.652-.387l2.114-1.67a.5.5 0 0 0-.207-.882l-2.986-.628a2 2 0 0 0-1.652.387zm-2.388-1.238l-56.36-11.865-37.573 24.095 77.609 15.832 15.797-12.479a.5.5 0 0 0-.207-.882l-3.048-.641a2 2 0 0 0-1.652.387l-15.89 12.553-2-.5 16.546-13.071-4.947-1.042-16.6 13.113-2-.5 16.52-13.05-55.296-11.642 1.742-1.116 55.037 11.586 2.52-1.99a.5.5 0 0 0-.207-.881l-55.092-11.599 1.742-1.116 55.877 11.763 2.52-1.99a.5.5 0 0 0-.207-.882l-46.432-9.775 1.742-1.116 46.3 9.747a2 2 0 0 0 1.652-.388l2.113-1.67a.5.5 0 0 0-.206-.88zm-9.198 11.436l2.986.629a2 2 0 0 0 1.652-.388l1.784-1.41a.5.5 0 0 0-.207-.881l-2.986-.629a2 2 0 0 0-1.652.388l-1.784 1.41a.5.5 0 0 0 .207.881zm4.84-3.823l2.986.628a2 2 0 0 0 1.652-.387l1.784-1.41a.5.5 0 0 0-.207-.881l-2.986-.63a2 2 0 0 0-1.652.389l-1.784 1.41a.5.5 0 0 0 .207.88zm14.324-5.33l-2.665 2.104a.5.5 0 0 0 .207.882l3.048.642a2 2 0 0 0 1.652-.388l2.113-1.67a.5.5 0 0 0-.207-.881l-3.736-.787a.5.5 0 0 0-.412.097zm-5.72 4.518l-1.785 1.41a.5.5 0 0 0 .207.881l3.048.642a2 2 0 0 0 1.652-.388l1.784-1.41a.5.5 0 0 0-.206-.881l-3.049-.642a2 2 0 0 0-1.652.388zm-4.84 3.823l-1.785 1.41a.5.5 0 0 0 .207.881l3.049.642a2 2 0 0 0 1.651-.388l1.785-1.41a.5.5 0 0 0-.207-.88l-3.049-.643a2 2 0 0 0-1.651.388z"/>
                        <path fill="#8BDCFB" d="M371.017 238.466l31.483-24.87-2.079-.438-31.404 24.808z"/>
                        <path fill="url(#x)" d="M78.5 22l98-20L138 63.087l-98 20z" transform="matrix(-1 0 0 1 456 160.658)"/>
                        <path fill="#0098D3" d="M415.758 243.684l-94.892-19.358c-1.707-.474-2.663-.646-2.866-.516v.78a2 2 0 0 0 1.6 1.959l94.337 19.263a4 4 0 0 0 3.28-.78L455 215.184c.69-.684.69-1.518 0-2.5l-39.242 31z"/>
                        <path fill="#FFF" d="M283.242 163.421l94.258 19.237 36.758 58.323 1.654 2.609 2.2-1.768-37.701-59.722a4 4 0 0 0-2.583-1.784L281.5 160.658c-.758.01-1.313.19-1.665.538-.352.348-.464.827-.335 1.438l3.742.787z"/>
                    </g>
                    <path fill="url(#y)" fill-rule="nonzero" d="M146.749 181.204c5.226-.687 8.775-1.867 10.281-1.867 3.276.772 7.077 2.903 17.56 1.064 1.272-.528 1.362-3.53 0-3.737-9.365-1.425-18.959-.684-28.419-.183-1.805.096-4.555-1.789-4.814 0 1.19 1.72 4.301 3.853 5.392 4.723z" transform="matrix(-1 0 0 1 595.935 36)"/>
                    <g fill="#FFF" transform="matrix(-1 0 0 1 650.508 36)">
                        <use xlink:href="#z"/>
                        <use xlink:href="#z"/>
                    </g>
                    <g transform="matrix(-1 0 0 1 580.747 36)">
                        <use fill="#FFF" xlink:href="#A"/>
                        <use fill="#FFF" xlink:href="#A"/>
                        <use fill="#E6F7FF" xlink:href="#A"/>
                    </g>
                    <g fill="#FFF" transform="matrix(-1 0 0 1 556 36)">
                        <use xlink:href="#B"/>
                        <use xlink:href="#B"/>
                    </g>
                    <g transform="translate(279 36)">
                        <use fill="#FFF" xlink:href="#C"/>
                        <use fill="#FFF" xlink:href="#C"/>
                        <use fill="#AFC7D1" fill-opacity=".4" xlink:href="#C"/>
                    </g>
                    <path fill="#1D4BEA" fill-rule="nonzero" d="M444.961 76.954c-7.647 8.923 1.534 20.048-10.461 22.068V80.005l10.461-3.051z"/>
                    <g transform="matrix(-1 0 0 1 595 36)">
                        <use fill="#FFF" xlink:href="#D"/>
                        <use fill="#FFF" xlink:href="#D"/>
                        <use fill="#AFC7D1" fill-opacity=".4" xlink:href="#D"/>
                    </g>
                    <path fill="url(#E)" fill-rule="nonzero" d="M169.913 22.16c.165.21.325.436.48.678 3.454 5.402 1.682 10.509-5.316 15.32 0-4.476-.603-8.476-5.054-7.113-3.573 1.668-7.81 2.777-12.398 3.118-1.554 4.791-6.907 6.79-12.268 4.791-5.36-1.999-3.264 3.995-4.28 7.698-9.205-.26-19.183-9.866-16-20.994 1.44-5.03 3.651-5.61 7.612-10 2.75-12.904 10.459-16.5 20.086-15.5 14.52 1.508 28.302 7.61 28.302 17 0 1.736-.407 3.417-1.164 5.002z" transform="matrix(-1 0 0 1 565.577 36)"/>
                    <path fill="#152934" fill-opacity=".5" fill-rule="nonzero" d="M405.159 66.918c-4.103-2.381-5.52-3.444-5.532-2.807-.013.659 1.214 3.195 2.303 3.463.486-.411.995-.665 1.527-.762.274-.05.841-.015 1.702.106zM417.976 70.097c-1.241-4.57-4.995-3.395-5.008-2.758-.013.66.604 2.139 1.692 2.407.78.12 1.359.199 1.735.238.36.039.888.076 1.58.113z"/>
                    <g transform="matrix(-1 0 0 1 609.286 36)">
                        <use fill="#FFF" xlink:href="#F"/>
                        <use fill="#1D4BEA" xlink:href="#F"/>
                    </g>
                    <g transform="rotate(135 298.372 93.612)">
                        <use fill="#FFF" xlink:href="#G"/>
                        <use fill="#1D4BEA" xlink:href="#G"/>
                    </g>
                    <path fill="#152934" fill-opacity=".5" fill-rule="nonzero" d="M433.486 75.219c.948.052 3.768-.702 5.55-1.078 1.782-.376 3.029-.376 2.528.64-1.953 3.952-6.055 4.934-7.364 4.934-.204-1.557.011-2.295-.273-3.293-.189-.666-.336-1.067-.441-1.203z"/>
                    <g fill="#FFF" transform="matrix(-1 0 0 1 573.006 36)">
                        <use xlink:href="#H"/>
                        <use xlink:href="#H"/>
                    </g>
                    <g transform="matrix(-1 0 0 1 315.536 36)">
                        <use fill="#FFF" xlink:href="#I"/>
                        <use fill="#FFF" xlink:href="#I"/>
                        <use fill="#E6F7FF" fill-opacity=".5" xlink:href="#I"/>
                    </g>
                    <path fill="#4A90E2" fill-rule="nonzero" d="M406.808 244.22c-7.971 3.83-13.621 5.255-26.092 6.577-10.34 1.096-16.401 2.99-18.605 5.866-5.698 5.936-5.698 41.192-10.07 46.075-3.635 2.482-8.935 2.482-13.446 0-5.4-26.049-8.929-39.301-8.929-51.94 0-12.64 3.142-17.96 11.525-21.086.475-.177 22.347 4.66 65.617 14.508z"/>
                    <path fill="url(#J)" fill-rule="nonzero" d="M127.77 195.628c-13.118 4.608-25.04 19.355-26.18 19.578-5.459-.793-14.27-1.357-21.344-3.623-2.637-.845-7.688-2.776-8.426-3.424 10.66-3.022 55.95-12.531 55.95-12.531z" transform="matrix(-1 0 0 1 478.59 36)"/>
                    <path fill="#F0B616" fill-rule="nonzero" d="M420.5 162.034c-6.444 0-12.612.668-21.521-3.376 1.237 7.89 2.384 13.282 3.44 16.175 3.06 1.673 8.814 4.614 16.029 3.325.714-4 1.398-9.375 2.052-16.124z"/>
                    <g transform="matrix(-1 0 0 1 480.883 36)">
                        <use fill="#FFF" xlink:href="#K"/>
                        <use fill="#FFF" xlink:href="#K"/>
                        <use fill="#AFC7D1" fill-opacity=".4" xlink:href="#K"/>
                    </g>
                    <g transform="translate(279 36)">
                        <use fill="#FFF" xlink:href="#L"/>
                        <use fill="#FFF" xlink:href="#L"/>
                        <use fill="#AFC7D1" fill-opacity=".4" xlink:href="#L"/>
                    </g>
                </g>
                <path fill="#8BDCFB" fill-opacity=".8" d="M470 2h66a4 4 0 0 1 4 4v6h-74V6a4 4 0 0 1 4-4z"/>
                <circle cx="482" cy="7" r="2" fill="#2FB7EC"/>
                <circle cx="474" cy="7" r="2" fill="#2FB7EC"/>
                <circle cx="477" cy="7" r="2" fill="#2FB7EC"/>
            </g>
        </g>
    </g>
</svg>
