<svg xmlns="http://www.w3.org/2000/svg" xmlns:xlink="http://www.w3.org/1999/xlink" width="400" height="400" viewBox="0 0 400 400">
    <defs>
        <path id="a" d="M0 0h400v400H0z"/>
        <linearGradient id="c" x1="50%" x2="50%" y1="0%" y2="100%">
            <stop offset="0%" stop-color="#AFC7D1" stop-opacity=".32"/>
            <stop offset="100%" stop-color="#AFC7D1" stop-opacity="0"/>
        </linearGradient>
        <linearGradient id="d" x1="100%" x2="0%" y1="0%" y2="100%">
            <stop offset="0%" stop-color="#E6F7FF"/>
            <stop offset="100%" stop-color="#CEF2FD"/>
        </linearGradient>
        <linearGradient id="e" x1="0%" y1="0%" y2="100%">
            <stop offset="0%" stop-color="#8BDCFB"/>
            <stop offset="100%" stop-color="#2FB7EC"/>
        </linearGradient>
        <linearGradient id="f" x1="50%" x2="50%" y1="0%" y2="100%">
            <stop offset="0%" stop-color="#E6F7FF"/>
            <stop offset="100%" stop-color="#CEF2FD" stop-opacity=".4"/>
        </linearGradient>
        <linearGradient id="g" x1="100%" x2="0%" y1="0%" y2="100%">
            <stop offset="0%" stop-color="#7790A3"/>
            <stop offset="100%" stop-color="#152934"/>
        </linearGradient>
        <linearGradient id="h" x1="0%" y1="0%" y2="100%">
            <stop offset="0%" stop-color="#92F1D3"/>
            <stop offset="100%" stop-color="#2EE3AA"/>
        </linearGradient>
        <linearGradient id="i" x1="143.582%" x2="-4.1%" y1="118.97%" y2="0%">
            <stop offset="0%" stop-color="#1ACC94"/>
            <stop offset="100%" stop-color="#1ACC94" stop-opacity="0"/>
        </linearGradient>
        <path id="j" d="M15.273 14.785c0 3.185-2.102 5.388-5.934 5.84v.938a1.477 1.477 0 0 1-2.953 0v-.938C3.566 20.359 1.516 19.35 0 17.89l2.421-3.425a8.028 8.028 0 0 0 5.668 2.336c1.57 0 2.527-.663 2.527-1.513 0-1.008-1.144-1.407-3.033-1.805C4.656 12.9.56 12.157.56 7.964c0-2.682 2.075-5.044 5.827-5.469V1.477a1.477 1.477 0 1 1 2.953 0v1.045c2.129.265 4.018 1.088 5.508 2.362L12.346 8.15c-1.49-1.221-3.432-1.832-5.002-1.832-1.517 0-2.102.61-2.102 1.38 0 .93 1.09 1.248 3.06 1.62 2.926.61 6.97 1.46 6.97 5.468z"/>
        <linearGradient id="k" x1="0%" x2="-9.546%" y1="0%" y2="358.057%">
            <stop offset="0%" stop-color="#92F1D3"/>
            <stop offset="100%" stop-color="#2EE3AA"/>
        </linearGradient>
        <linearGradient id="l" x1="0%" y1="0%" y2="100%">
            <stop offset="0%" stop-color="#1ACC94"/>
            <stop offset="100%" stop-color="#2EE3AA"/>
        </linearGradient>
        <linearGradient id="m" x1="0%" y1="0%" y2="100%">
            <stop offset="0%" stop-color="#FFE557"/>
            <stop offset="100%" stop-color="#FFC72C"/>
        </linearGradient>
    </defs>
    <g fill="none" fill-rule="evenodd">
        <mask id="b" fill="#fff">
            <use xlink:href="#a"/>
        </mask>
        <use fill="#D8D8D8" fill-opacity="0" fill-rule="nonzero" xlink:href="#a"/>
        <g mask="url(#b)">
            <g transform="translate(9 111)">
                <path fill="url(#c)" d="M0 192C0 85.961 85.961 0 192 0s192 85.961 192 192H0z"/>
                <path fill="url(#d)" fill-rule="nonzero" d="M31 72h82a4 4 0 0 1 4 4v32a4 4 0 0 1-4 4H31a4 4 0 0 1-4-4V76a4 4 0 0 1 4-4z"/>
                <g transform="translate(14 62)">
                    <rect width="57.568" height="38.347" fill="url(#e)" rx="2"/>
                    <path fill="url(#f)" d="M2 0h26.784l9.594 38.347H2a2 2 0 0 1-2-2V2a2 2 0 0 1 2-2z" opacity=".28"/>
                    <ellipse cx="49.172" cy="8.388" fill="#EEF2F5" fill-rule="nonzero" rx="3.598" ry="3.595"/>
                    <path fill="#FFF" fill-rule="nonzero" d="M49.172 4.793a3.597 3.597 0 0 1 3.598 3.595 3.597 3.597 0 0 1-3.598 3.595v-7.19z"/>
                    <path fill="#F8FAFB" fill-rule="nonzero" d="M7.197 23.967h8.394v4.793H7.197a1.2 1.2 0 0 1-1.2-1.2v-2.393a1.2 1.2 0 0 1 1.2-1.2z"/>
                    <rect width="21.588" height="2.397" x="5.997" y="31.157" fill="#F8FAFB" fill-rule="nonzero" rx="1.198"/>
                    <path fill="#F8FAFB" fill-rule="nonzero" d="M17.99 23.967h9.595v4.793H17.99zM29.983 23.967h9.595v4.793h-9.595zM41.976 23.967h8.395a1.2 1.2 0 0 1 1.2 1.2v2.393a1.2 1.2 0 0 1-1.2 1.2h-8.395v-4.793z"/>
                    <rect width="4.797" height="2.397" x="46.774" y="31.157" fill="#F8FAFB" fill-rule="nonzero" rx="1.198"/>
                    <g fill-rule="nonzero" transform="translate(5.997 11.983)">
                        <rect width="9.595" height="7.19" fill="#FFE380" rx="1.2"/>
                        <path fill="#FFD560" d="M7.196 1.198h2.399v1.198H7.196zM7.196 4.793h2.399v1.198H7.196zM0 1.198h2.399v1.198H0z"/>
                        <path stroke="#FFD560" stroke-width="1.2" d="M2.999 1.798h3.597v3.593H2.999z"/>
                        <path fill="#FFD560" d="M0 4.793h2.399v1.198H0z"/>
                    </g>
                </g>
                <path fill="url(#g)" fill-rule="nonzero" d="M114.038 72.165h173.775a4.8 4.8 0 0 1 4.74 5.56L274.252 192H90.757l18.542-115.794a4.8 4.8 0 0 1 4.74-4.04z"/>
                <path fill="#FFF" fill-rule="nonzero" d="M118.127 81.752L102.01 182.413h164.063l16.119-100.66z"/>
                <path fill="#F8FAFB" fill-rule="nonzero" d="M46.382 182.413h230.27V192H46.382z"/>
                <rect width="227.872" height="9.587" x="46.382" y="182.413" fill="#AFC7D1" fill-rule="nonzero" rx="4.793"/>
                <path fill="#4A5F6E" fill-rule="nonzero" d="M183.1 182.413h92.622l-.845 5.514a4.8 4.8 0 0 1-4.744 4.073H183.1a4.793 4.793 0 0 1 0-9.587z"/>
                <path fill="#EEF2F5" fill-rule="nonzero" d="M127.936 98.529h55.958l-3.598 19.173h-55.958zM123.139 124.893h67.951l-3.598 19.173h-67.951zM118.341 151.256h72.75l-3.599 19.174h-72.749z"/>
                <path fill="#AFC7D1" fill-opacity=".3" fill-rule="nonzero" d="M127.936 98.529h19.434l-3.598 19.173h-19.434zM123.139 124.893h19.433l-3.597 19.173H119.54z"/>
                <path fill="#2EE3AA" d="M208.462 111.208c-.442 2.253-2.287 4.197-5.674 4.506l-.39 1.988h-1.774l.385-1.965c-2.271-.177-3.779-1.083-4.712-2.32l1.832-1.988c.687.906 1.79 1.723 3.34 1.966l.836-4.263c-2.171-.575-4.424-1.414-3.86-4.286.442-2.253 2.633-4.042 5.542-4.285l.399-2.032h1.774l-.408 2.076c1.784.177 3.131.884 4.068 1.988l-1.863 1.922c-.66-.817-1.603-1.325-2.668-1.546l-.746 3.8c2.185.618 4.5 1.48 3.92 4.44zm-7.322-6.538c-.169.861.61 1.303 1.72 1.634l.676-3.446c-1.29.133-2.2.818-2.396 1.812zm2.103 8.725c1.573-.22 2.368-1.104 2.532-1.944.2-1.016-.618-1.48-1.787-1.855l-.745 3.8zm6.396 2.099l.4-2.033c6.592-4.33 9.21-6.251 9.625-8.372.304-1.546-.888-2.253-2.24-2.253-1.73 0-3.2.707-4.34 1.767l-1.174-1.7c1.616-1.569 3.857-2.364 5.92-2.364 2.86 0 5.05 1.613 4.473 4.55-.533 2.717-3.515 5.147-8.07 8.13h6.564l-.446 2.275h-10.712zm14.44-7.356c.727-3.711 3.264-7.599 7.411-7.599s5.159 3.888 4.43 7.599c-.728 3.71-3.269 7.62-7.416 7.62s-5.154-3.91-4.426-7.62zm9.203 0c.55-2.806.175-5.302-2.242-5.302-2.418 0-3.772 2.496-4.323 5.302-.55 2.805-.18 5.323 2.238 5.323 2.417 0 3.776-2.518 4.327-5.323zm4.457 0c.728-3.711 3.265-7.599 7.412-7.599s5.159 3.888 4.43 7.599c-.728 3.71-3.269 7.62-7.416 7.62s-5.154-3.91-4.426-7.62zm9.203 0c.55-2.806.176-5.302-2.242-5.302-2.417 0-3.771 2.496-4.322 5.302-.55 2.805-.18 5.323 2.238 5.323 2.417 0 3.776-2.518 4.326-5.323zm4.458 0c.728-3.711 3.265-7.599 7.412-7.599s5.158 3.888 4.43 7.599c-.728 3.71-3.27 7.62-7.416 7.62-4.147 0-5.154-3.91-4.426-7.62zm9.203 0c.55-2.806.176-5.302-2.242-5.302-2.417 0-3.772 2.496-4.322 5.302-.55 2.805-.18 5.323 2.238 5.323 2.417 0 3.776-2.518 4.326-5.323zM213.052 163.935c-.37 2.254-2.137 4.197-5.475 4.507l-.327 1.988h-1.753l.323-1.966c-2.25-.177-3.767-1.083-4.725-2.32l1.751-1.988a5.248 5.248 0 0 0 3.359 1.966l.701-4.263c-2.163-.574-4.414-1.414-3.942-4.285.37-2.253 2.484-4.043 5.351-4.286l.335-2.032h1.753l-.341 2.077c1.768.176 3.12.883 4.078 1.988l-1.784 1.921c-.677-.817-1.624-1.325-2.683-1.546l-.625 3.8c2.178.618 4.49 1.48 4.004 4.44zm-7.429-6.538c-.141.862.64 1.303 1.748 1.635l.567-3.446c-1.271.132-2.151.817-2.315 1.811zm2.335 8.725c1.549-.22 2.308-1.104 2.446-1.944.167-1.016-.655-1.48-1.82-1.855l-.626 3.8zm6.846.089l1.759-1.767c.8 1.126 2.014 1.745 3.658 1.745 1.841 0 3.192-1.149 3.428-2.585.261-1.59-.708-2.628-2.505-2.628-1.25 0-2.345.397-3.41 1.28l-1.732-.53 1.355-8.239h9.577l-.374 2.275h-7.013l-.701 4.264c.817-.707 2.117-1.282 3.52-1.282 2.454 0 4.381 1.746 3.887 4.75-.505 3.07-3.122 4.992-6.388 4.992-2.52 0-4.11-.862-5.061-2.275zm13.7-5.346c.61-3.71 3.004-7.599 7.102-7.599 4.099 0 5.213 3.888 4.602 7.6-.61 3.71-3.006 7.62-7.105 7.62-4.098 0-5.209-3.91-4.599-7.62zm9.096 0c.461-2.805.017-5.301-2.372-5.301s-3.654 2.496-4.115 5.301c-.462 2.805-.021 5.324 2.368 5.324s3.658-2.519 4.12-5.324zm4.405 0c.61-3.71 3.003-7.599 7.102-7.599s5.213 3.888 4.602 7.6c-.61 3.71-3.006 7.62-7.105 7.62-4.098 0-5.209-3.91-4.599-7.62zm9.096 0c.461-2.805.017-5.301-2.372-5.301s-3.654 2.496-4.115 5.301c-.462 2.805-.021 5.324 2.368 5.324s3.658-2.519 4.12-5.324zM207.288 137.572c-.535 2.253-2.452 4.197-5.833 4.506l-.472 1.988h-1.764l.467-1.966c-2.252-.177-3.713-1.082-4.588-2.32l1.905-1.987c.645.905 1.708 1.723 3.238 1.966l1.012-4.264c-2.135-.574-4.34-1.413-3.658-4.285.534-2.253 2.79-4.042 5.692-4.285l.482-2.032h1.764l-.493 2.076c1.767.177 3.076.884 3.961 1.988l-1.933 1.922c-.622-.818-1.538-1.326-2.589-1.546l-.901 3.799c2.147.618 4.412 1.48 3.71 4.44zm-7.005-6.539c-.204.862.55 1.304 1.64 1.635l.819-3.446c-1.289.133-2.223.817-2.459 1.811zm1.722 8.726c1.574-.221 2.402-1.105 2.6-1.944.242-1.016-.552-1.48-1.698-1.856l-.902 3.8zm9.404 2.098l2.7-11.376-2.997 2.496-1.127-1.568 5.25-4.285h2.25l-3.496 14.733h-2.58zm6.795-7.356c.88-3.71 3.567-7.598 7.691-7.598s4.965 3.887 4.085 7.598c-.88 3.711-3.573 7.621-7.696 7.621-4.124 0-4.96-3.91-4.08-7.62zm9.152 0c.665-2.805.398-5.301-2.006-5.301s-3.856 2.496-4.522 5.301c-.665 2.806-.403 5.324 2 5.324 2.404 0 3.862-2.518 4.528-5.324zm4.432 0c.88-3.71 3.567-7.598 7.69-7.598 4.125 0 4.966 3.887 4.086 7.598-.881 3.711-3.573 7.621-7.697 7.621-4.123 0-4.96-3.91-4.079-7.62zm9.151 0c.666-2.805.398-5.301-2.005-5.301-2.404 0-3.856 2.496-4.522 5.301-.666 2.806-.403 5.324 2 5.324 2.404 0 3.862-2.518 4.527-5.324zm4.433 0c.88-3.71 3.567-7.598 7.69-7.598 4.124 0 4.966 3.887 4.086 7.598-.881 3.711-3.573 7.621-7.697 7.621-4.123 0-4.96-3.91-4.08-7.62zm9.151 0c.666-2.805.398-5.301-2.005-5.301-2.404 0-3.856 2.496-4.522 5.301-.666 2.806-.403 5.324 2 5.324 2.404 0 3.862-2.518 4.527-5.324z"/>
                <path fill="#AFC7D1" fill-opacity=".3" fill-rule="nonzero" d="M118.341 151.256h19.434l-3.598 19.174h-19.434z"/>
                <g transform="translate(264 96)">
                    <path fill="url(#h)" fill-rule="nonzero" d="M30.875 34.56h22.909C80.704 65.06 89.612 85.54 80.511 96H4.148c-13.238-15.215 7.8-39.686 26.727-61.44z"/>
                    <path fill="url(#i)" fill-rule="nonzero" d="M43.91 78.126c-7.977 4.813-21.268 10.727-39.875 17.743-13.005-15.224 7.967-39.617 26.84-61.309h22.909c6.766 7.666 12.395 14.7 16.886 21.1-11.01 10.855-19.93 18.343-26.76 22.466z"/>
                    <ellipse cx="42" cy="67.2" fill="#FFF" rx="22.909" ry="21.12"/>
                    <use fill="#1ACC94" transform="translate(34.364 55.68)" xlink:href="#j"/>
                    <path fill="#FFD560" fill-rule="nonzero" d="M30.567 26.88h22.866a3.84 3.84 0 0 1 0 7.68H30.567a3.84 3.84 0 0 1 0-7.68z"/>
                    <path fill="url(#k)" fill-rule="nonzero" d="M22.91 3.84L42 0l19.09 3.84-7.635 23.04h-22.91z"/>
                    <path fill="#92F1D3" fill-rule="nonzero" d="M24.818 7.68L19.091 9.6l11.454 17.28z"/>
                    <path fill="#1ACC94" fill-rule="nonzero" d="M59.182 7.68l5.727 1.92-11.454 17.28z"/>
                    <path fill="url(#l)" fill-rule="nonzero" d="M42 0l19.09 3.84-7.635 23.04H42z" opacity=".4"/>
                    <path fill="#FFD560" fill-rule="nonzero" d="M42.31 31.688a1.91 1.91 0 0 1 2.158-1.633 1.918 1.918 0 0 1 1.623 2.17c-.017.126-.047.393-.079.78-.222 2.772-.063 5.9.749 8.807.787 2.816 2.114 5.065 4.055 6.598.829.655.973 1.862.322 2.696a1.902 1.902 0 0 1-2.68.324c-2.643-2.088-4.383-5.035-5.373-8.58-.954-3.412-1.134-6.967-.878-10.153.037-.466.076-.81.103-1.009z"/>
                    <path fill="#FFD560" fill-rule="nonzero" d="M46.51 33.258a1.923 1.923 0 0 1 1.198-2.434c.999-.34 2.082.2 2.42 1.204C52.004 37.61 56.15 40.32 63 40.32c1.054 0 1.91.86 1.91 1.92s-.856 1.92-1.91 1.92c-8.422 0-14.064-3.688-16.49-10.902z"/>
                </g>
                <ellipse cx="69.399" cy="53.397" fill="#CEF2FD" fill-rule="nonzero" rx="2.399" ry="2.397"/>
                <g fill-rule="nonzero" transform="rotate(10 -14.654 1700.585)">
                    <path fill="#FFC72C" d="M19.19 7.989c0 2.206-4.296 3.994-9.595 3.994C4.295 11.983 0 10.195 0 7.99V3.994h19.19V7.99z"/>
                    <ellipse cx="9.595" cy="3.994" fill="url(#m)" rx="9.595" ry="3.994"/>
                </g>
                <g fill-rule="nonzero" transform="scale(-1 1) rotate(10 -221.773 -1851.608)">
                    <path fill="#FFC72C" d="M19.19 7.989c0 2.206-4.296 3.994-9.595 3.994C4.295 11.983 0 10.195 0 7.99V3.994h19.19V7.99z"/>
                    <ellipse cx="9.595" cy="3.994" fill="url(#m)" rx="9.595" ry="3.994"/>
                </g>
                <g fill-rule="nonzero" transform="rotate(15 -108.472 1153.536)">
                    <path fill="#FFC72C" d="M11.993 4.793c0 1.324-2.685 2.397-5.996 2.397C2.685 7.19 0 6.117 0 4.793V2.397h11.993v2.396z"/>
                    <ellipse cx="5.997" cy="2.397" fill="url(#m)" rx="5.997" ry="2.397"/>
                </g>
                <g fill-rule="nonzero" transform="scale(-1 1) rotate(15 -466.567 -1184.946)">
                    <path fill="#FFC72C" d="M11.993 4.793c0 1.324-2.685 2.397-5.996 2.397C2.685 7.19 0 6.117 0 4.793V2.397h11.993v2.396z"/>
                    <ellipse cx="5.997" cy="2.397" fill="url(#m)" rx="5.997" ry="2.397"/>
                </g>
                <g fill-rule="nonzero" transform="scale(-1 1) rotate(15 -372.918 -1177.957)">
                    <path fill="#FFC72C" d="M11.993 4.793c0 1.324-2.685 2.397-5.996 2.397C2.685 7.19 0 6.117 0 4.793V2.397h11.993v2.396z"/>
                    <ellipse cx="5.997" cy="2.397" fill="url(#m)" rx="5.997" ry="2.397"/>
                </g>
            </g>
        </g>
    </g>
</svg>
