<svg xmlns="http://www.w3.org/2000/svg" xmlns:xlink="http://www.w3.org/1999/xlink" width="56" height="56" viewBox="0 0 56 56">
    <defs>
        <path id="a" d="M0 0h56v56H0z"/>
        <linearGradient id="b" x1="0%" y1="44.719%" y2="50%">
            <stop offset="0%" stop-color="#326BEE"/>
            <stop offset="100%" stop-color="#1D4BEA"/>
        </linearGradient>
        <linearGradient id="d" x1=".791%" x2="99.209%" y1="0%" y2="100%">
            <stop offset="0%" stop-color="#FFF"/>
            <stop offset="100%" stop-color="#CEF2FD"/>
        </linearGradient>
        <linearGradient id="e" x1="99.209%" x2=".791%" y1="68.005%" y2="29.926%">
            <stop offset="0%" stop-color="#2F88EC"/>
            <stop offset="100%" stop-color="#2FB7EC"/>
        </linearGradient>
        <linearGradient id="f" x1="100%" x2="0%" y1="50%" y2="50%">
            <stop offset="0%" stop-color="#8BDCFB"/>
            <stop offset="100%" stop-color="#CEF2FD"/>
        </linearGradient>
        <linearGradient id="g" x1="100%" x2="0%" y1="66.142%" y2="33.858%">
            <stop offset="0%" stop-color="#2FB7EC"/>
            <stop offset="0%" stop-color="#2FB7EC"/>
            <stop offset="100%" stop-color="#0098D3"/>
        </linearGradient>
        <linearGradient id="h" x1="0%" y1="50%" y2="50%">
            <stop offset="0%" stop-color="#8BDCFB"/>
            <stop offset="100%" stop-color="#8BDCFB"/>
        </linearGradient>
        <linearGradient id="i" x1="100%" x2="0%" y1="67.179%" y2="67.179%">
            <stop offset="0%" stop-color="#2FB7EC"/>
            <stop offset="100%" stop-color="#2FB7EC" stop-opacity=".8"/>
        </linearGradient>
        <linearGradient id="j" x1="0%" y1="18%" y2="82%">
            <stop offset="0%" stop-color="#FFE380"/>
            <stop offset="100%" stop-color="#FFC72C"/>
        </linearGradient>
    </defs>
    <g fill="none" fill-rule="evenodd">
        <mask id="c" fill="#fff">
            <use xlink:href="#a"/>
        </mask>
        <use fill="#D8D8D8" fill-opacity="0" xlink:href="#a"/>
        <path fill="url(#b)" d="M35 29l20 6.5L35 42l-20-6.5z" mask="url(#c)"/>
        <g mask="url(#c)">
            <path fill="url(#d)" d="M0 7.84l20 6.72V28L0 21.28z" transform="translate(5 14)"/>
            <path fill="url(#e)" d="M20 14.56l20-6.72v13.44L20 28z" transform="translate(5 14)"/>
            <path fill="url(#f)" d="M20 1.12l20 6.72-20 6.72L0 7.84z" transform="translate(5 14)"/>
            <g fill-rule="nonzero">
                <path fill="url(#g)" d="M5.998 3.447A.765.765 0 0 1 6 3.5C6 4.328 4.657 5 3 5s-3-.672-3-1.5c0-.018 0-.035.002-.053A.405.405 0 0 1 0 3.41V1.591h6v1.818c0 .013 0 .026-.002.038z" transform="translate(22 21)"/>
                <ellipse cx="3" cy="1.5" fill="url(#h)" rx="3" ry="1.5" transform="translate(22 21)"/>
            </g>
            <g fill-rule="nonzero">
                <path fill="url(#g)" d="M5.998 3.447A.765.765 0 0 1 6 3.5C6 4.328 4.657 5 3 5s-3-.672-3-1.5c0-.018 0-.035.002-.053A.405.405 0 0 1 0 3.41V1.591h6v1.818c0 .013 0 .026-.002.038z" transform="translate(30 17)"/>
                <ellipse cx="3" cy="1.5" fill="url(#h)" rx="3" ry="1.5" transform="translate(30 17)"/>
            </g>
            <g fill-rule="nonzero">
                <path fill="url(#i)" d="M5.998 3.447A.765.765 0 0 1 6 3.5C6 4.328 4.657 5 3 5s-3-.672-3-1.5c0-.018 0-.035.002-.053A.405.405 0 0 1 0 3.41V1.591h6v1.818c0 .013 0 .026-.002.038z" transform="translate(22 14)"/>
                <ellipse cx="3" cy="1.5" fill="url(#h)" rx="3" ry="1.5" transform="translate(22 14)"/>
            </g>
            <g fill-rule="nonzero">
                <path fill="url(#i)" d="M5.998 3.447A.765.765 0 0 1 6 3.5C6 4.328 4.657 5 3 5s-3-.672-3-1.5c0-.018 0-.035.002-.053A.405.405 0 0 1 0 3.41V1.591h6v1.818c0 .013 0 .026-.002.038z" transform="translate(14 17)"/>
                <ellipse cx="3" cy="1.5" fill="url(#h)" rx="3" ry="1.5" transform="translate(14 17)"/>
            </g>
        </g>
        <path fill="#2FB7EC" d="M43 32.667L48 31v3.333L43 36z" mask="url(#c)"/>
        <path fill="url(#j)" d="M2 32l10 3.333V40L2 36.667z" mask="url(#c)"/>
    </g>
</svg>
