<svg width="184" height="152" viewBox="0 0 184 152" fill="none" xmlns="http://www.w3.org/2000/svg">
<g style="mix-blend-mode:darken">
<mask id="mask0_584_71230" style="mask-type:alpha" maskUnits="userSpaceOnUse" x="0" y="0" width="184" height="152">
<path d="M0.466797 0.210938H179.984C182.193 0.210938 183.984 2.0018 183.984 4.21094V147.132C183.984 149.341 182.193 151.132 179.984 151.132H0.466797V0.210938Z" fill="white"/>
</mask>
<g mask="url(#mask0_584_71230)">
<path fill-rule="evenodd" clip-rule="evenodd" d="M118.859 74.9327C117.21 75.8917 124.099 77.6184 128.857 77.4836C135.92 77.2829 140.565 73.0918 141.783 71.9167C142.384 71.3826 143.314 70.4102 143.985 68.9233C144.429 67.9416 144.622 67.0402 144.71 66.3734C144.09 64.8237 144.093 63.6105 144.093 63.6105C144.093 63.6105 143.775 54.014 144.093 53.732C144.093 53.732 122.79 51.7923 123.411 61.6862C123.411 61.6862 124.549 71.6254 118.859 74.9327Z" fill="#E8BB9A"/>
<path fill-rule="evenodd" clip-rule="evenodd" d="M119.714 73.0468L119.295 73.3494L119.714 73.0468Z" fill="#F7A79A"/>
<path fill-rule="evenodd" clip-rule="evenodd" d="M123.396 61.3757C123.396 61.3757 133.142 67.7474 143.834 59.7684L143.968 53.7271C143.968 53.7271 121.529 50.5217 123.396 61.3757Z" fill="#D58F66"/>
<path fill-rule="evenodd" clip-rule="evenodd" d="M114.586 29.2735C114.586 29.2735 109.925 56.9025 118.936 60.575C127.946 64.2486 141.928 58.4984 149.23 47.7988C156.533 37.0981 146.9 27.6755 141.618 40.9312V21.6074L114.586 29.2735Z" fill="#E8BB9A"/>
<path fill-rule="evenodd" clip-rule="evenodd" d="M119.002 40.0392C119.011 41.1577 118.455 42.0694 117.761 42.0756C117.066 42.0807 116.495 41.1793 116.486 40.0608C116.477 38.9433 117.033 38.0316 117.728 38.0254C118.421 38.0192 118.993 38.9207 119.002 40.0392Z" fill="#071822"/>
<path fill-rule="evenodd" clip-rule="evenodd" d="M131.612 40.0392C131.621 41.1577 131.066 42.0694 130.371 42.0756C129.676 42.0807 129.106 41.1793 129.096 40.0608C129.087 38.9433 129.642 38.0316 130.338 38.0254C131.032 38.0192 131.603 38.9207 131.612 40.0392Z" fill="#071822"/>
<path d="M128.714 50.6953C128.714 50.6953 127.827 53.2349 124.642 53.3141" stroke="#022786" stroke-width="0.642857" stroke-linecap="round" stroke-linejoin="round"/>
<path d="M123.286 42.0547C123.286 42.0547 122.386 46.2891 122.914 46.7552C123.444 47.2213 124.641 46.7552 124.641 46.7552" stroke="#022786" stroke-width="0.642857" stroke-linecap="round" stroke-linejoin="round"/>
<path fill-rule="evenodd" clip-rule="evenodd" d="M127.598 34.9412H135.754C135.754 34.9412 130.816 31.5228 127.598 34.9412Z" fill="#071822"/>
<path fill-rule="evenodd" clip-rule="evenodd" d="M114.708 34.9412H120.684C120.684 34.9412 117.066 31.5228 114.708 34.9412Z" fill="#071822"/>
<path fill-rule="evenodd" clip-rule="evenodd" d="M151.645 39.5052C151.645 39.5052 148.795 27.7158 141.096 41.5261V34.1162C141.096 34.1162 136.783 20.6434 126.928 30.7473C117.073 40.8521 114.698 29.7795 114.28 29.5107L113.313 36.9535C108 34.8966 102.134 28.2396 103.079 22.6634C104.146 16.3566 110.154 11.8341 116.457 13.2325C116.457 13.2325 126.928 -0.913295 135.552 16.264C135.552 16.264 157.883 9.86455 151.645 39.5052Z" fill="#071822"/>
<path fill-rule="evenodd" clip-rule="evenodd" d="M102.144 126.848C102.308 120.525 102.472 114.203 102.636 107.88C102.894 103.619 104.471 95.873 108.825 87.3445C117.121 71.0975 127.831 68.2605 139.711 64.5561L144.141 64.5509C144.141 64.5509 163.305 63.8131 176.207 165.419C176.942 173.588 176.81 180.593 175.312 185.167C175.312 185.167 170.938 197.69 141.069 197.407C130.563 197.309 123.639 197.044 118.903 196.528C110.175 195.575 108.882 193.764 106.298 190.544L102.144 126.848Z" fill="#022786"/>
<path opacity="0.5" d="M139.715 150.18C144.709 151.135 151.866 151.135 155.013 150.18C155.231 135.659 152.08 117.187 139.638 98.6328C139.638 98.6328 144.709 138.414 139.715 150.18Z" fill="#001340"/>
<path d="M116.562 77.5625C104.656 99.6984 90.426 110.966 85.2971 110.966C80.1682 110.966 70.7379 104.005 70.7379 104.005L64.3555 113C64.3555 113 66.7998 117.556 75.1603 123.742C83.5207 129.929 95.4811 134.119 110.435 126.614C125.389 119.109 127.431 102.758 116.562 77.5625Z" fill="#022786"/>
</g>
<path d="M31.665 78.3247C31.665 77.8994 32.0098 77.5547 32.435 77.5547H64.8091C65.2343 77.5547 65.5791 77.8994 65.5791 78.3247V106.607H31.665V78.3247Z" fill="#E3A700"/>
<path d="M31.665 78.3247C31.665 77.8994 32.0098 77.5547 32.435 77.5547H54.2744V106.607H31.665V78.3247Z" fill="#FFC72C"/>
<rect x="44.3833" y="101.523" width="5.65234" height="2.90524" fill="#022786"/>
<path d="M37.3179 77.5547H45.7964V84.8178L44.3942 84.0915L42.9702 84.8178L41.5571 84.0915L40.144 84.8178L38.731 84.0915L37.3179 84.8178V77.5547Z" fill="#022786"/>
<path d="M62.7529 77.5547V84.8178L61.3398 84.0915L60.6333 84.8178L59.9268 84.0915L58.5137 84.8178V77.5547H62.7529Z" fill="#022786"/>
<path fill-rule="evenodd" clip-rule="evenodd" d="M70.7386 103.999C70.7386 103.999 73.2687 98.805 70.4854 94.6258C68.5348 91.6968 67.4067 89.3051 66.9063 88.1363C66.7445 87.7584 66.2682 87.635 65.9784 87.9265C64.8367 89.075 62.654 91.8119 64.3561 94.6258C65.5811 96.6509 63.4691 101.96 65.194 107.824C65.5195 108.429 66.8668 109.468 66.8668 109.468L70.7386 103.999Z" fill="#E8BB9A"/>
<path fill-rule="evenodd" clip-rule="evenodd" d="M66.8667 109.467L64.6794 112.449C64.6794 112.449 63.936 111.529 62.754 111.174C62.6344 111.182 59.2513 110.023 57.8397 110.089C51.4776 110.389 44.31 106.609 41.5577 106.609C39.8042 106.609 41.8893 104.43 43.8671 104.78C45.8448 105.131 51.643 106.466 52.3298 106.466C55.6774 106.466 64.8729 106.609 64.8729 106.609L66.8667 109.467Z" fill="#E8BB9A"/>
<path fill-rule="evenodd" clip-rule="evenodd" d="M64.8723 106.606C64.8723 106.606 63.9695 107.354 63.6097 107.738C63.2499 108.123 62.6426 107.507 59.5736 106.984C58.9522 106.878 54.2749 106.606 54.2749 106.606H64.8723Z" fill="#D58F66"/>
</g>
</svg>
