<svg width="196" height="169" viewBox="0 0 196 169" fill="none" xmlns="http://www.w3.org/2000/svg">
<path fill-rule="evenodd" clip-rule="evenodd" d="M8.01172 149.691C9.88781 108.696 20.8008 90.1212 30.805 80.7815C45.6487 66.924 55.0024 76.6553 88.1779 63.7784C122.039 50.6351 130.226 33.9991 148.064 39.6033C162.372 44.0983 170.328 60.312 174.403 68.6155C191.519 103.493 196.658 142.895 194.616 149.691H8.01172Z" fill="#F0F4FF"/>
<path d="M159.057 106.144C159.057 106.144 166.539 110.56 172.305 103.985" stroke="#ADC0FD" stroke-width="2.27352"/>
<path fill-rule="evenodd" clip-rule="evenodd" d="M130.201 136.815L151.296 141.232C151.89 141.357 152.478 140.973 152.602 140.379L161.006 100.252C161.13 99.6577 160.746 99.0699 160.151 98.9454L139.057 94.5273C138.464 94.4037 137.875 94.7878 137.751 95.3824L129.348 135.509C129.223 136.103 129.607 136.691 130.201 136.815Z" fill="#67D3A6"/>
<path fill-rule="evenodd" clip-rule="evenodd" d="M131.812 130.142L152.642 134.504L159.054 103.89L138.225 99.5269L131.812 130.142Z" fill="white"/>
<path fill-rule="evenodd" clip-rule="evenodd" d="M143.156 136.312C143.352 135.376 142.752 134.459 141.816 134.263C140.879 134.067 139.962 134.667 139.765 135.603C139.57 136.539 140.17 137.456 141.106 137.652C142.042 137.849 142.96 137.249 143.156 136.312Z" fill="#022786"/>
<path fill-rule="evenodd" clip-rule="evenodd" d="M152.084 100.132C152.149 99.8239 152.451 99.6268 152.76 99.6911C153.068 99.7554 153.265 100.058 153.201 100.366C153.137 100.674 152.833 100.872 152.525 100.808C152.217 100.742 152.02 100.44 152.084 100.132Z" fill="#022786"/>
<path fill-rule="evenodd" clip-rule="evenodd" d="M145.028 99.2355L150.492 100.379C150.653 100.413 150.812 100.309 150.846 100.148L150.958 99.6171C150.991 99.4559 150.887 99.2965 150.725 99.2631L145.262 98.1191C145.101 98.0848 144.941 98.1892 144.908 98.3495L144.798 98.8814C144.763 99.0426 144.868 99.2021 145.028 99.2355Z" fill="#022786"/>
<path fill-rule="evenodd" clip-rule="evenodd" d="M177.25 109.144L193.612 102.912L189.308 91.6151L172.946 97.8488L169.455 105.636L177.25 109.144Z" fill="#ADC0FD"/>
<path d="M32.3109 139.014C32.3109 139.014 25.3715 142.605 20.5234 136.412" stroke="#ADC0FD" stroke-width="2.04455"/>
<path fill-rule="evenodd" clip-rule="evenodd" d="M14.3789 139.955L0 133.54L4.42901 123.613L18.8079 130.028L21.5533 137.196L14.3789 139.955Z" fill="#ADC0FD"/>
<path fill-rule="evenodd" clip-rule="evenodd" d="M72.8778 123.046L25.8633 131.687L29.1516 162.687C29.5654 166.594 33.2179 169.323 37.0822 168.613L75.6593 161.522C79.5349 160.81 81.9784 156.942 80.9571 153.135L72.8778 123.046Z" fill="#2EAA77"/>
<path d="M77.3491 139.532C74.8605 142.178 66.9862 149.868 53.9905 152.246C41.0369 154.615 30.9789 150.247 27.707 148.657" stroke="#022786" stroke-width="2.04455"/>
<path fill-rule="evenodd" clip-rule="evenodd" d="M47.3664 146.443L58.1904 144.453L57.7549 142.085L46.9316 144.075L47.3664 146.443Z" fill="#022786"/>
<path fill-rule="evenodd" clip-rule="evenodd" d="M59.1514 125.568C58.625 119.456 52.8608 115.246 47.2912 116.347C41.8138 117.429 38.0937 123.336 39.751 129.134L37.1055 129.62C34.9961 122.24 39.7315 114.723 46.7024 113.346C53.7905 111.945 61.1271 117.303 61.7962 125.082L59.1514 125.568Z" fill="#022786"/>
<path d="M136.805 25.2404C136.805 25.2404 147.606 28.3089 152.661 18.2" stroke="#ADC0FD" stroke-width="2.2404"/>
<path fill-rule="evenodd" clip-rule="evenodd" d="M98.3293 22.4501C93.7822 24.0851 89.0663 28.4636 89.0663 30.0073C89.0663 31.551 90.2043 36.1813 90.2043 36.1813C90.2043 36.1813 85.3288 33.6633 87.3605 43.9006C89.3922 54.1396 101.499 85.5846 106.455 88.347C111.411 91.1086 118.643 90.0528 121.812 88.347C124.981 86.6404 134.894 82.1714 142.694 79.409C150.494 76.6458 147.407 77.9871 153.684 73.4778C159.96 68.9676 157.461 64.8237 156.304 62.6299C155.146 60.4361 147.711 48.3095 146.797 43.7994C146.354 41.6155 144.764 36.8536 142.29 28.0497C141.553 25.4239 140.737 22.4402 139.85 19.0582C139.458 17.5639 138.526 13.9869 135.827 12.9435C134.683 12.5 133.318 12.7699 130.587 13.3097C126.234 14.1687 125.441 15.5141 125.225 15.9502C125.027 16.3452 124.952 16.7139 124.918 16.969C124.94 17.452 124.945 18.1317 124.859 18.9356C124.784 19.635 123.912 26.7529 118.124 29.3474C116.109 30.25 113.557 30.5455 110.355 29.7226C110.355 29.7226 106.252 28.7467 102.514 22.5315C102.514 22.5315 101.946 21.1499 98.3293 22.4501Z" fill="#FFC72C"/>
<path fill-rule="evenodd" clip-rule="evenodd" d="M142.292 28.0503C142.292 28.0503 112.49 42.4595 99.2363 44.5932C99.2363 44.5932 101.002 49.9855 101.338 50.3204C101.674 50.6561 140.269 38.6966 144.221 34.7443L142.292 28.0503Z" fill="white"/>
<path fill-rule="evenodd" clip-rule="evenodd" d="M145.71 39.7712C145.71 39.7712 119.009 54.4636 103.713 55.683V62.2643C103.713 62.2643 137.599 55.8591 147.484 45.974C147.484 45.974 146.399 42.095 145.71 39.7712Z" fill="white"/>
<path fill-rule="evenodd" clip-rule="evenodd" d="M156.732 63.45C156.732 63.45 132.413 77.9876 109.621 81.7654L110.596 86.2343C110.596 86.2343 137.295 82.9593 157.127 69.7778C157.127 69.7778 158.141 69.5573 157.617 65.7589C157.617 65.7589 157.561 64.9904 156.732 63.45Z" fill="white"/>
<path fill-rule="evenodd" clip-rule="evenodd" d="M150.199 51.7322C150.199 51.7322 123.274 70.3092 107.735 69.0297C107.735 69.0297 107.023 75.1239 107.023 75.4892C107.023 75.8546 131.308 76.1738 153.191 57.1845L150.199 51.7322Z" fill="white"/>
<path d="M91.2602 33.9075C91.2602 33.9075 90.6101 37.97 93.6983 43.1705C96.7857 48.3702 102.473 65.5969 103.774 69.6586C105.074 73.7219 107.023 81.5219 109.623 86.2353" stroke="#022786" stroke-width="1.4936" stroke-linecap="round" stroke-linejoin="round"/>
<path d="M91.422 37.2256C91.422 37.2256 86.7103 37.6452 88.254 39.1898C89.7977 40.7335 91.7652 38.7199 91.7652 38.7199" stroke="#022786" stroke-width="1.4936" stroke-linecap="round" stroke-linejoin="round"/>
<path fill-rule="evenodd" clip-rule="evenodd" d="M126.88 14.4875C126.88 14.4875 127.99 20.9067 125.958 24.5627C123.926 28.2188 120.433 33.4193 111.251 32.2821C102.069 31.144 99.2363 22.1616 99.2363 22.1616C99.2363 22.1616 101.958 21.1906 102.517 22.5311C103.075 23.8724 105.694 26.8511 106.83 27.6971C107.965 28.5421 111.365 31.1136 117.016 29.7625C122.668 28.4121 124.924 20.9512 124.924 18.0851C124.924 15.2191 125.424 15.3104 126.88 14.4875Z" fill="#022786"/>
<path fill-rule="evenodd" clip-rule="evenodd" d="M160.397 19.8902L174.164 9.58381L167.048 0.0788574L153.282 10.3845L152.088 18.6823L160.397 19.8902Z" fill="#ADC0FD"/>
</svg>
