<svg width="249" height="204" viewBox="0 0 249 204" fill="none" xmlns="http://www.w3.org/2000/svg">
<path d="M238.941 95.4474C238.941 153.134 221.533 190.058 134.491 199.898C17.9309 218.82 30.0408 153.134 30.0408 95.4474C30.0408 0.0797825 80.9833 12.3975 119.354 28.8415C172.336 51.5476 238.941 37.7611 238.941 95.4474Z" fill="#FFF8E6"/>
<path d="M106.893 75.9402C120.926 47.2193 138.833 30.9866 147.283 34.2403C155.426 37.3779 157.632 59.7403 151.201 87.1619" stroke="#D0DBFF" stroke-width="1.69016" stroke-miterlimit="10"/>
<path d="M129.256 85.4932C137.379 57.6227 151.031 39.1614 159.742 40.5851C168.684 42.0512 176.108 65.0604 173.564 96.7148" stroke="#D0DBFF" stroke-width="1.69016" stroke-miterlimit="10"/>
<path d="M135.261 191.533C148.288 194.943 161.331 198.341 174.358 201.751C181.162 164.277 187.967 126.803 194.757 89.3265C190.238 88.689 185.72 88.0516 181.201 87.4141C177.672 85.8556 174.157 84.2998 170.628 82.7412C158.845 119.001 147.044 155.273 135.261 191.533Z" fill="#ADC0FD"/>
<path d="M51.1593 168.609L135.26 191.533C147.043 155.273 158.841 119.016 170.624 82.7555C143.911 75.4713 117.198 68.1871 90.4705 60.9002C77.3677 96.7982 64.2648 132.696 51.1593 168.609Z" fill="#7996F9"/>
<path fill-rule="evenodd" clip-rule="evenodd" d="M128.138 121.998C127.566 121.863 126.958 121.93 126.433 122.191C125.91 122.438 125.486 122.882 125.241 123.403L121.818 131.478C121.432 132.361 120.733 133.082 119.853 133.487C118.995 133.94 117.993 134.039 117.057 133.778C116.644 133.672 116.247 133.48 115.91 133.209C115.572 132.938 115.308 132.591 115.112 132.197C114.916 131.804 114.817 131.368 114.827 130.908C114.832 130.477 114.929 130.032 115.124 129.621L117.202 124.726C117.276 124.487 117.306 124.239 117.277 123.995C117.247 123.751 117.171 123.513 117.05 123.282C116.926 123.066 116.765 122.887 116.57 122.732C116.372 122.591 116.14 122.474 115.898 122.415L113.158 121.672C112.629 121.545 112.067 121.606 111.567 121.812C111.064 122.032 110.641 122.387 110.358 122.871L108.251 127.76C107.863 128.658 107.164 129.379 106.296 129.801C105.455 130.242 104.467 130.344 103.558 130.102C103.133 129.979 102.736 129.787 102.401 129.501C102.066 129.216 101.785 128.881 101.606 128.476C101.41 128.082 101.311 127.646 101.316 127.215C101.307 126.781 101.403 126.337 101.581 125.937L106.14 115.253C106.356 114.727 106.402 114.154 106.267 113.592C106.129 113.045 105.834 112.544 105.408 112.182L94.4824 103.673C93.8016 103.161 92.7477 103.623 92.1148 104.714L90.6395 107.304C90.3433 107.861 90.2554 108.5 90.3827 109.105C90.5073 109.724 90.8405 110.263 91.3183 110.664L98.1952 115.983L94.743 124.053C94.178 125.261 93.8736 126.591 93.8656 127.931C93.8576 129.271 94.1512 130.592 94.7191 131.8C95.2869 133.007 96.1226 134.055 97.145 134.899C98.1844 135.731 99.3868 136.325 100.688 136.624C103.287 137.326 106.044 137.088 108.476 135.94C109.068 137.018 109.876 137.972 110.859 138.704C111.84 139.451 112.961 140 114.161 140.281C116.974 141.036 119.982 140.725 122.572 139.368C125.245 138.131 127.361 135.941 128.53 133.235C128.53 133.235 132.156 124.705 132.241 124.571C132.54 123.836 131.879 122.97 130.759 122.659L128.105 121.933L128.138 121.998Z" fill="white"/>
<path d="M136.267 190.594L159.554 176.797L174.665 200.639" stroke="#D0DBFF" stroke-width="1.69016" stroke-miterlimit="10" stroke-linecap="round"/>
<path d="M181.572 87.089C174.237 116.997 166.89 146.889 159.554 176.797" stroke="#D0DBFF" stroke-width="1.69016" stroke-miterlimit="10"/>
<circle cx="25.3707" cy="96.7081" r="20.6783" fill="#022786"/>
<path d="M26.2801 80.6677L17.0721 95.8033C16.5115 96.7243 16.9367 97.4705 18.0192 97.4705H24.0708C25.1547 97.4705 25.7424 98.2934 25.3837 99.309L20.9945 111.736C20.6358 112.752 20.8284 112.846 21.424 111.947L32.8155 94.7551C33.4111 93.8553 33.0153 93.1277 31.9321 93.1277H24.6249C23.541 93.1277 22.9354 92.2984 23.2697 91.2758L26.6875 80.8532C27.0233 79.8298 26.8415 79.7475 26.2801 80.6677Z" fill="white" stroke="white" stroke-width="2.06783"/>
<circle cx="224.021" cy="166.124" r="20.3245" transform="rotate(-88.8699 224.021 166.124)" fill="#022786"/>
<path fill-rule="evenodd" clip-rule="evenodd" d="M212.783 166.559L228.888 179.062L237.52 167.942L221.413 155.44L211.554 156.681L212.783 166.559Z" fill="white"/>
<path d="M100.2 46.2998C99.4395 45.8506 99.1869 44.8695 99.6361 44.1086C100.085 43.3476 101.066 43.095 101.827 43.5442L100.2 46.2998ZM108.554 65.6954C107.049 65.1519 107.048 65.1526 107.048 65.1532C107.048 65.1534 107.048 65.1539 107.048 65.1542C107.048 65.1548 107.047 65.1552 107.047 65.1553C107.047 65.1557 107.047 65.1552 107.048 65.154C107.049 65.1515 107.051 65.1458 107.054 65.1371C107.06 65.1197 107.07 65.09 107.083 65.0486C107.11 64.9658 107.15 64.8366 107.199 64.6655C107.296 64.323 107.426 63.8153 107.547 63.1798C107.79 61.9039 107.992 60.1405 107.838 58.1786C107.534 54.3063 105.86 49.6412 100.2 46.2998L101.827 43.5442C108.566 47.5226 110.661 53.2443 111.028 57.9287C111.21 60.2451 110.971 62.3026 110.691 63.7779C110.55 64.5181 110.397 65.1186 110.277 65.5404C110.217 65.7515 110.165 65.9185 110.127 66.0363C110.108 66.0953 110.092 66.1421 110.08 66.176C110.075 66.1929 110.07 66.2067 110.066 66.2172C110.064 66.2225 110.063 66.2269 110.061 66.2305C110.061 66.2323 110.06 66.2339 110.06 66.2353C110.059 66.236 110.059 66.2368 110.059 66.2372C110.059 66.238 110.058 66.2388 108.554 65.6954Z" fill="#F15460"/>
<path fill-rule="evenodd" clip-rule="evenodd" d="M105.976 32.9205L90.8961 8.35473L73.9356 18.7661L89.0159 43.3319L102.682 46.6022L105.976 32.9205Z" fill="#F15460" stroke="#F15460" stroke-width="3.20002" stroke-linecap="round"/>
</svg>
