<svg width="292" height="196" viewBox="0 0 292 196" fill="none" xmlns="http://www.w3.org/2000/svg">
<path fill-rule="evenodd" clip-rule="evenodd" d="M1.23186 76.4769C10.4028 16.7544 85.0365 79.3677 123.376 79.3677C135.651 79.3677 135.651 86.9167 158.405 68.1984C181.158 49.4801 260.489 -58.7329 286.287 43.0172C323.593 190.154 165.708 269.541 65.9893 196.379C-2.26739 146.301 -0.514716 87.8508 1.23186 76.4769Z" fill="url(#paint0_linear_1387_12702)" style="mix-blend-mode:darken"/>
<mask id="mask0_1387_12702" style="mask-type:alpha" maskUnits="userSpaceOnUse" x="0" y="0" width="292" height="224">
<path fill-rule="evenodd" clip-rule="evenodd" d="M1.23186 76.4769C10.4028 16.7544 85.0365 79.3677 123.376 79.3677C135.651 79.3677 135.651 86.9167 158.405 68.1984C181.158 49.4801 260.489 -58.7329 286.287 43.0172C323.593 190.154 165.708 269.541 65.9893 196.379C-2.26739 146.301 -0.514716 87.8508 1.23186 76.4769Z" fill="white"/>
</mask>
<g mask="url(#mask0_1387_12702)">
<path d="M235.88 88.48C235.88 87.2429 236.883 86.24 238.12 86.24H291.88C293.117 86.24 294.12 87.2429 294.12 88.48C294.12 89.7171 293.117 90.72 291.88 90.72H238.12C236.883 90.72 235.88 89.7171 235.88 88.48Z" fill="#8BDCFB" fill-opacity="0.5"/>
<path d="M235.88 97.44C235.88 96.2029 236.883 95.2 238.12 95.2H291.88C293.117 95.2 294.12 96.2029 294.12 97.44C294.12 98.6771 293.117 99.68 291.88 99.68H238.12C236.883 99.68 235.88 98.6771 235.88 97.44Z" fill="#8BDCFB" fill-opacity="0.5"/>
<path d="M235.88 106.4C235.88 105.163 236.883 104.16 238.12 104.16H247.08C248.317 104.16 249.32 105.163 249.32 106.4C249.32 107.637 248.317 108.64 247.08 108.64H238.12C236.883 108.64 235.88 107.637 235.88 106.4Z" fill="#8BDCFB" fill-opacity="0.5"/>
<path d="M235.88 79.52C235.88 78.2829 236.883 77.28 238.12 77.28H279.56C280.797 77.28 281.8 78.2829 281.8 79.52C281.8 80.7571 280.797 81.76 279.56 81.76H238.12C236.883 81.76 235.88 80.7571 235.88 79.52Z" fill="#8BDCFB" fill-opacity="0.5"/>
<path d="M238.678 60.5609C248.585 55.3326 261.915 59.2463 249.25 70.2013C242.162 76.3326 249.749 55.4704 257.16 62.7047C258.969 64.4704 261.271 68.9112 262.051 69.7397C264.284 72.1115 269.097 66.7078 270.764 63.1509" stroke="#8BDCFB" stroke-opacity="0.4" stroke-width="2" stroke-linecap="round" stroke-linejoin="round"/>
<path d="M271.72 58C271.72 56.8954 272.615 56 273.72 56H274.2C275.304 56 276.2 56.8954 276.2 58V58.48C276.2 59.5846 275.304 60.48 274.2 60.48H273.72C272.615 60.48 271.72 59.5846 271.72 58.48V58Z" fill="#8BDCFB" fill-opacity="0.4"/>
<rect x="85.7998" y="44.8" width="134.4" height="134.4" rx="60" fill="white"/>
<rect x="85.7998" y="44.8" width="134.4" height="134.4" rx="60" fill="#2F88EC"/>
<path d="M10.011 92.8187C9.82801 93.5015 10.2332 94.2034 10.9161 94.3864L39.8166 102.13C40.4994 102.313 41.2013 101.908 41.3842 101.225L47.394 78.7963L40.6859 67.5779L19.6124 61.9313C18.9296 61.7483 18.2277 62.1535 18.0447 62.8364L10.011 92.8187Z" fill="#8BDCFB" fill-opacity="0.4"/>
<path d="M7.77074 88.3387C7.58778 89.0215 7.993 89.7234 8.67584 89.9064L37.5763 97.6502C38.2592 97.8332 38.961 97.428 39.144 96.7451L45.1538 74.3163L38.4457 63.0979L17.3722 57.4513C16.6893 57.2683 15.9875 57.6735 15.8045 58.3563L7.77074 88.3387Z" fill="white"/>
<g style="mix-blend-mode:darken">
<path fill-rule="evenodd" clip-rule="evenodd" d="M38.4463 63.0979L45.1544 74.3164L36.091 71.8878L38.4463 63.0979Z" fill="#CEF2FD"/>
</g>
<path d="M18.0454 67.3012C18.2598 66.501 19.0823 66.0262 19.8825 66.2406L25.6394 67.7831C26.4396 67.9976 26.9145 68.8201 26.7001 69.6203L26.6069 69.968C26.3925 70.7682 25.57 71.2431 24.7698 71.0287L19.0129 69.4861C18.2127 69.2717 17.7378 68.4492 17.9522 67.649L18.0454 67.3012Z" fill="#8BDCFB"/>
<path d="M16.3061 73.7923C16.5205 72.9921 17.343 72.5172 18.1432 72.7316L32.5548 76.5932C33.355 76.8076 33.8299 77.6301 33.6155 78.4303L33.5223 78.778C33.3079 79.5782 32.4854 80.0531 31.6852 79.8387L17.2736 75.9771C16.4734 75.7627 15.9985 74.9402 16.2129 74.14L16.3061 73.7923Z" fill="#8BDCFB"/>
<path d="M14.2778 81.3651C14.4922 80.5649 15.3147 80.09 16.1149 80.3045L35.9357 85.6154C36.7359 85.8298 37.2108 86.6523 36.9964 87.4525L36.9032 87.8003C36.6888 88.6005 35.8663 89.0753 35.0661 88.8609L15.2453 83.55C14.4451 83.3356 13.9702 82.5131 14.1846 81.7129L14.2778 81.3651Z" fill="#8BDCFB"/>
<rect x="38.7607" y="161.28" width="44.8" height="31.36" rx="4" fill="white"/>
<rect x="38.7607" y="161.28" width="44.8" height="31.36" rx="4" fill="#8BDCFB"/>
<rect x="38.7598" y="166.88" width="44.8" height="6.72" fill="white"/>
<rect x="38.7598" y="166.88" width="44.8" height="6.72" fill="#2F88EC"/>
<rect x="67.8799" y="182.56" width="11.2" height="5.6" rx="1" fill="white"/>
<rect x="67.8799" y="182.56" width="11.2" height="5.6" rx="1" fill="white"/>
</g>
<rect x="18.8916" y="116.757" width="31.36" height="35.84" rx="2" transform="rotate(-15 18.8916 116.757)" fill="#8BDCFB" fill-opacity="0.4"/>
<rect x="21.1309" y="113.397" width="31.36" height="35.84" rx="2" transform="rotate(-15 21.1309 113.397)" fill="#2F88EC"/>
<rect x="26.6172" y="116.564" width="22.4" height="6.72" rx="1" transform="rotate(-15 26.6172 116.564)" fill="white"/>
<rect x="28.9365" y="125.219" width="5.6" height="4.48" rx="1" transform="rotate(-15 28.9365 125.219)" fill="#8BDCFB"/>
<rect x="36.5088" y="123.19" width="6.72" height="4.48" rx="1" transform="rotate(-15 36.5088 123.19)" fill="#8BDCFB"/>
<rect x="45.1641" y="120.871" width="5.6" height="4.48" rx="1" transform="rotate(-15 45.1641 120.871)" fill="#8BDCFB"/>
<rect x="30.6758" y="131.71" width="5.6" height="4.48" rx="1" transform="rotate(-15 30.6758 131.71)" fill="#8BDCFB"/>
<rect x="38.249" y="129.681" width="6.72" height="4.48" rx="1" transform="rotate(-15 38.249 129.681)" fill="#8BDCFB"/>
<rect x="32.415" y="138.201" width="5.6" height="4.48" rx="1" transform="rotate(-15 32.415 138.201)" fill="#8BDCFB"/>
<rect x="39.9883" y="136.172" width="6.72" height="4.48" rx="1" transform="rotate(-15 39.9883 136.172)" fill="#8BDCFB"/>
<rect x="46.9033" y="127.362" width="5.6" height="11.2" rx="1" transform="rotate(-15 46.9033 127.362)" fill="#F8AB60"/>
<path d="M48.2329 94.0956C46.9479 92.2659 47.3932 89.7404 49.2265 88.4605L102.114 51.5392C103.94 50.2644 106.453 50.7075 107.733 52.53L155.147 120.042C156.432 121.871 155.986 124.397 154.153 125.677L101.266 162.598C99.44 163.873 96.9267 163.43 95.6468 161.607L48.2329 94.0956Z" fill="#8BDCFB" fill-opacity="0.4"/>
<path d="M50.4314 88.9847C49.5881 87.5288 50.0875 85.6648 51.5458 84.8256L107.45 52.6541C108.902 51.8182 110.757 52.3153 111.597 53.7654L152.946 125.153C153.79 126.608 153.29 128.472 151.832 129.312L95.9282 161.483C94.4757 162.319 92.6208 161.822 91.7808 160.372L50.4314 88.9847Z" fill="white" stroke="#CEF2FD" stroke-width="2"/>
<path d="M69.4261 96.6209C68.8658 95.6535 69.1976 94.415 70.1666 93.8574L94.1867 80.0343C95.1518 79.4789 96.3844 79.8091 96.9425 80.7727L97.1874 81.1954C97.7477 82.1628 97.4158 83.4013 96.4469 83.9589L72.4267 97.782C71.4616 98.3374 70.2291 98.0072 69.671 97.0436L69.4261 96.6209Z" fill="#2F88EC"/>
<path d="M75.1019 106.418C74.5416 105.451 74.8734 104.212 75.8424 103.655L99.8625 89.8317C100.828 89.2763 102.06 89.6066 102.618 90.5701L102.863 90.9929C103.423 91.9602 103.092 93.1988 102.123 93.7564L78.1025 107.579C77.1374 108.135 75.9049 107.805 75.3467 106.841L75.1019 106.418Z" fill="#2F88EC"/>
<path d="M86.4515 126.013C85.8912 125.046 86.223 123.807 87.192 123.25L107.28 111.689C108.246 111.134 109.478 111.464 110.036 112.428L110.281 112.85C110.841 113.818 110.509 115.056 109.541 115.614L89.4521 127.174C88.487 127.73 87.2545 127.4 86.6963 126.436L86.4515 126.013Z" fill="#2F88EC" fill-opacity="0.5"/>
<path d="M80.7757 116.216C80.2154 115.248 80.5472 114.01 81.5162 113.452L105.536 99.6292C106.501 99.0738 107.734 99.4041 108.292 100.368L108.537 100.79C109.097 101.758 108.765 102.996 107.796 103.554L83.7763 117.377C82.8112 117.932 81.5787 117.602 81.0206 116.639L80.7757 116.216Z" fill="#2F88EC" fill-opacity="0.5"/>
<path d="M100.88 78.5199C100.32 77.5525 100.652 76.314 101.621 75.7564L105.982 73.2464C106.947 72.691 108.18 73.0213 108.738 73.9848L108.983 74.4075C109.543 75.3749 109.211 76.6134 108.242 77.1711L103.881 79.681C102.916 80.2364 101.683 79.9062 101.125 78.9426L100.88 78.5199Z" fill="#2F88EC"/>
<path fill-rule="evenodd" clip-rule="evenodd" d="M85.3456 138.97C93.4447 122.853 90.4359 121.127 86.1259 124.033C83.6051 125.733 82.9223 130.956 77.7108 130.676C74.8996 130.525 72.7357 114.561 70.4 113.426C68.0468 112.283 64.3692 120.518 63.6445 122.82C59.0095 137.544 72.3998 146.163 77.7108 149.022L85.3456 138.97Z" fill="white"/>
<path fill-rule="evenodd" clip-rule="evenodd" d="M85.3456 138.97C93.4447 122.853 90.4359 121.127 86.1259 124.033C83.6051 125.733 82.9223 130.956 77.7108 130.676C74.8996 130.525 72.7357 114.561 70.4 113.426C68.0468 112.283 64.3692 120.518 63.6445 122.82C59.0095 137.544 72.3998 146.163 77.7108 149.022L85.3456 138.97Z" fill="white"/>
<path fill-rule="evenodd" clip-rule="evenodd" d="M85.3456 138.97C93.4447 122.853 90.4359 121.127 86.1259 124.033C83.6051 125.733 82.9223 130.956 77.7108 130.676C74.8996 130.525 72.7357 114.561 70.4 113.426C68.0468 112.283 64.3692 120.518 63.6445 122.82C59.0095 137.544 72.3998 146.163 77.7108 149.022L85.3456 138.97Z" fill="#FABF86" fill-opacity="0.5"/>
<path fill-rule="evenodd" clip-rule="evenodd" d="M170.115 104.081L193.706 90.5051L200.516 102.262L176.925 115.838L170.115 104.081Z" fill="white"/>
<path fill-rule="evenodd" clip-rule="evenodd" d="M170.115 104.081L193.706 90.5051L200.516 102.262L176.925 115.838L170.115 104.081Z" fill="white"/>
<path fill-rule="evenodd" clip-rule="evenodd" d="M170.115 104.081L193.706 90.5051L200.516 102.262L176.925 115.838L170.115 104.081Z" fill="#FABF86" fill-opacity="0.5"/>
<path fill-rule="evenodd" clip-rule="evenodd" d="M140.604 83.7172L145.144 38.4647H195.084V83.7172C195.084 96.2133 180.381 106.343 167.844 106.343C155.308 106.343 140.604 96.2133 140.604 83.7172Z" fill="white"/>
<path fill-rule="evenodd" clip-rule="evenodd" d="M140.604 83.7172L145.144 38.4647H195.084V83.7172C195.084 96.2133 180.381 106.343 167.844 106.343C155.308 106.343 140.604 96.2133 140.604 83.7172Z" fill="white"/>
<path fill-rule="evenodd" clip-rule="evenodd" d="M140.604 83.7172L145.144 38.4647H195.084V83.7172C195.084 96.2133 180.381 106.343 167.844 106.343C155.308 106.343 140.604 96.2133 140.604 83.7172Z" fill="#FABF86" fill-opacity="0.5"/>
<path fill-rule="evenodd" clip-rule="evenodd" d="M145.335 68.7212C133.728 76.7797 132.246 77.9103 145.335 80.5099V68.7212Z" fill="white"/>
<path fill-rule="evenodd" clip-rule="evenodd" d="M145.335 68.7212C133.728 76.7797 132.246 77.9103 145.335 80.5099V68.7212Z" fill="white"/>
<path fill-rule="evenodd" clip-rule="evenodd" d="M145.335 68.7212C133.728 76.7797 132.246 77.9103 145.335 80.5099V68.7212Z" fill="#FABF86" fill-opacity="0.5"/>
<path fill-rule="evenodd" clip-rule="evenodd" d="M144.019 50.5732C137.953 49.7854 127.919 50.327 126.991 39.9738C126.733 37.1012 134.289 44.3084 135.499 41.6884C135.499 41.6884 132.993 37.6637 135.678 33.4467C138.364 29.2296 158.006 20.9034 167.434 23.8018C201.178 34.1763 224.015 0.87986 213.538 74.7551C212.315 83.3839 193.811 90.5051 193.811 90.5051C193.811 90.5051 187.128 83.399 184.696 79.3781C182.263 75.3571 196.392 60.5455 180.358 62.4631C175.592 63.033 178.122 69.9867 176.398 70.3939C172.412 71.335 164.139 63.1131 161.034 55.974C157.929 48.8348 157.929 42.6964 154.486 41.2266C151.864 40.1077 144.019 50.5732 144.019 50.5732Z" fill="#7790A3"/>
<path fill-rule="evenodd" clip-rule="evenodd" d="M170.481 106.196C170.481 106.196 182.673 105.261 186.02 99.3588C189.366 93.4563 186.02 110.597 186.02 110.597L177.131 115.957L170.481 106.196Z" fill="white"/>
<path fill-rule="evenodd" clip-rule="evenodd" d="M170.481 106.196C170.481 106.196 182.673 105.261 186.02 99.3588C189.366 93.4563 186.02 110.597 186.02 110.597L177.131 115.957L170.481 106.196Z" fill="white"/>
<path fill-rule="evenodd" clip-rule="evenodd" d="M170.481 106.196C170.481 106.196 182.673 105.261 186.02 99.3588C189.366 93.4563 186.02 110.597 186.02 110.597L177.131 115.957L170.481 106.196Z" fill="#FABF86" fill-opacity="0.8"/>
<path d="M243.1 152.963C236.703 122.497 205.344 103.516 205.344 103.516C191.835 113.343 176.284 117.681 173.355 127.73C166.64 150.764 138.392 168.049 138.392 168.049C138.392 168.049 110.909 152.531 86.1679 138.783L77.6631 148.923C77.6631 148.923 106.612 185.027 129.312 195.786C152.012 206.545 190.731 188.414 190.731 188.414C190.731 188.414 168.797 196.528 168.822 196.756C170.361 210.526 171.844 222.085 172.818 222.085C211.408 216.866 239.803 195.239 246.764 187.868C246.764 173.517 243.1 152.963 243.1 152.963Z" fill="#8BDCFB"/>
<path d="M175.31 125.002C175.31 125.002 173.365 121.786 172.385 118.515C182.267 106.333 199.625 95.0303 199.625 95.0303L206.028 104.314C206.028 104.314 194.914 111.019 186.242 115.393C177.57 119.767 175.31 125.002 175.31 125.002Z" fill="white"/>
<path d="M174.784 124.839C167.29 122.416 149.611 120.265 142.116 117.842L134.692 129.278L163.161 147.28C163.161 147.28 168.002 141.327 169.978 137.306C171.706 133.788 174.784 124.839 174.784 124.839Z" fill="#8BDCFB"/>
<path fill-rule="evenodd" clip-rule="evenodd" d="M134.733 129.248C132.922 127.587 131.059 123.83 129.263 123.406C123.147 121.963 121.621 119.426 123.367 116.847C125.063 114.34 125.825 117.234 125.825 112.697C125.825 109.971 124.105 110.319 121.302 111.485C120.572 111.789 119.533 114.676 118.382 114.115C117.23 113.554 117.068 112.651 117.068 112.301C117.068 109.703 118.022 99.1976 130.479 101.621C145.145 104.475 140.795 112.141 142.138 117.77L134.733 129.248Z" fill="white"/>
<path fill-rule="evenodd" clip-rule="evenodd" d="M134.733 129.248C132.922 127.587 131.059 123.83 129.263 123.406C123.147 121.963 121.621 119.426 123.367 116.847C125.063 114.34 125.825 117.234 125.825 112.697C125.825 109.971 124.105 110.319 121.302 111.485C120.572 111.789 119.533 114.676 118.382 114.115C117.23 113.554 117.068 112.651 117.068 112.301C117.068 109.703 118.022 99.1976 130.479 101.621C145.145 104.475 140.795 112.141 142.138 117.77L134.733 129.248Z" fill="white"/>
<path fill-rule="evenodd" clip-rule="evenodd" d="M134.733 129.248C132.922 127.587 131.059 123.83 129.263 123.406C123.147 121.963 121.621 119.426 123.367 116.847C125.063 114.34 125.825 117.234 125.825 112.697C125.825 109.971 124.105 110.319 121.302 111.485C120.572 111.789 119.533 114.676 118.382 114.115C117.23 113.554 117.068 112.651 117.068 112.301C117.068 109.703 118.022 99.1976 130.479 101.621C145.145 104.475 140.795 112.141 142.138 117.77L134.733 129.248Z" fill="#FABF86" fill-opacity="0.5"/>
<path fill-rule="evenodd" clip-rule="evenodd" d="M171.054 123.797C171.054 123.797 160.842 137.088 156.594 143.001C159.488 144.777 163.097 147.28 163.097 147.28C163.097 147.28 168.036 142.157 170.932 136.64C173.827 131.123 174.998 124.884 174.998 124.884L171.054 123.797Z" fill="white"/>
<path fill-rule="evenodd" clip-rule="evenodd" d="M171.054 123.797C171.054 123.797 160.842 137.088 156.594 143.001C159.488 144.777 163.097 147.28 163.097 147.28C163.097 147.28 168.036 142.157 170.932 136.64C173.827 131.123 174.998 124.884 174.998 124.884L171.054 123.797Z" fill="#2FB7EC" fill-opacity="0.7"/>
<path fill-rule="evenodd" clip-rule="evenodd" d="M138.44 168.112C138.44 168.112 147.2 173.89 148.521 173.084C149.843 172.279 143.719 164.64 143.719 164.64L138.44 168.112Z" fill="white"/>
<path fill-rule="evenodd" clip-rule="evenodd" d="M138.44 168.112C138.44 168.112 147.2 173.89 148.521 173.084C149.843 172.279 143.719 164.64 143.719 164.64L138.44 168.112Z" fill="#2FB7EC" fill-opacity="0.8"/>
<path fill-rule="evenodd" clip-rule="evenodd" d="M168.746 196.689C168.746 196.689 182.498 192.387 188.624 189.403C194.749 186.419 200.8 183.728 204.161 181.773C212.634 176.845 209.522 185.509 200.903 192.035C194.559 197.259 184.274 203.25 169.837 206.879C169.509 203.411 168.746 196.689 168.746 196.689Z" fill="white"/>
<path fill-rule="evenodd" clip-rule="evenodd" d="M168.746 196.689C168.746 196.689 182.498 192.387 188.624 189.403C194.749 186.419 200.8 183.728 204.161 181.773C212.634 176.845 209.522 185.509 200.903 192.035C194.559 197.259 184.274 203.25 169.837 206.879C169.509 203.411 168.746 196.689 168.746 196.689Z" fill="#2FB7EC" fill-opacity="0.8"/>
<rect x="116.885" y="115.835" width="28.0181" height="9.0505" transform="rotate(-45 116.885 115.835)" fill="#2EE3AA"/>
<path d="M136.473 97.674L139.284 94.8638C139.678 94.4694 140.318 94.4694 140.712 94.8638L144.255 98.4065C144.649 98.801 144.649 99.4405 144.255 99.835L141.445 102.645L136.473 97.674Z" fill="white" stroke="#1ACC94" stroke-width="2.0202"/>
<path d="M115.45 124.955C114.652 125.232 113.887 124.467 114.164 123.67L116.885 115.835L118.536 114.184L124.935 120.584L123.284 122.235L115.45 124.955Z" fill="#EEF2F5"/>
<path d="M115.618 124.808C114.799 125.126 113.992 124.32 114.31 123.501L116.02 119.099L120.02 123.098L115.618 124.808Z" fill="#1ACC94"/>
<path d="M132.676 107.871C132.282 107.477 132.282 106.837 132.676 106.443L136.201 102.918C136.595 102.524 137.235 102.524 137.629 102.918L137.801 103.09C138.195 103.484 138.195 104.124 137.801 104.518L134.276 108.042C133.882 108.437 133.242 108.437 132.848 108.042L132.676 107.871Z" fill="white"/>
<path d="M124.182 121.197C121.122 118.543 121.101 116.324 122.931 116.108C124.388 115.936 126.916 117.807 130.959 114.74C130.959 114.74 128.707 118.314 127.228 119.724C126.448 120.466 124.182 121.197 124.182 121.197Z" fill="#FCDFC2"/>
<path d="M130.468 114.965C130.468 114.965 133.479 114.325 134.867 113.002C135.964 111.957 135.437 110.229 135.437 110.229L130.468 114.965Z" fill="#FBCC9F"/>
<path d="M85.688 138.373C85.688 138.373 75.2959 146.018 73.0625 146.018C73.7785 147.135 78.0355 149.02 78.0355 149.02L86.1327 138.807L85.688 138.373Z" fill="#FBCC9F"/>
<path d="M100.552 140.9C104.292 134.385 113.274 132.46 110.034 143.457C108.22 149.612 105.003 134.089 111.821 136.18C113.485 136.69 116.395 138.71 117.137 138.972C119.26 139.722 120.044 134.767 119.707 131.998" stroke="#2EE3AA" stroke-width="1.29293" stroke-linecap="round" stroke-linejoin="round"/>
<defs>
<linearGradient id="paint0_linear_1387_12702" x1="220.83" y1="-49.0125" x2="59.5089" y2="116.357" gradientUnits="userSpaceOnUse">
<stop stop-color="#E6F7FF" stop-opacity="0.01"/>
<stop offset="1" stop-color="#E6F7FF"/>
</linearGradient>
</defs>
</svg>
