<svg width="320" height="156" viewBox="0 0 320 156" fill="none" xmlns="http://www.w3.org/2000/svg">
<path fill-rule="evenodd" clip-rule="evenodd" d="M53.0742 153.461C55.3545 112.003 68.6187 93.2182 80.7783 83.773C98.8202 69.759 110.189 79.6003 150.512 66.5779C191.669 53.2862 201.62 36.4624 223.301 42.1298C240.692 46.6755 250.362 63.0723 255.315 71.4696C276.118 106.741 282.365 146.588 279.882 153.461H53.0742Z" fill="#F0F4FF"/>
<path d="M278.02 113.746C278.02 113.746 286.856 118.961 293.666 111.196" stroke="#ADC0FD" stroke-width="2.68494"/>
<path fill-rule="evenodd" clip-rule="evenodd" d="M243.942 149.968L268.854 155.184C269.556 155.331 270.25 154.878 270.396 154.176L280.322 106.788C280.468 106.086 280.014 105.392 279.312 105.245L254.4 100.027C253.7 99.8813 253.004 100.335 252.857 101.037L242.934 148.425C242.787 149.126 243.241 149.821 243.942 149.968Z" fill="#67D3A6"/>
<path fill-rule="evenodd" clip-rule="evenodd" d="M245.844 142.087L270.443 147.238L278.015 111.084L253.416 105.932L245.844 142.087Z" fill="white"/>
<path fill-rule="evenodd" clip-rule="evenodd" d="M259.239 149.374C259.47 148.269 258.762 147.185 257.657 146.954C256.55 146.722 255.468 147.43 255.235 148.536C255.004 149.641 255.713 150.725 256.819 150.956C257.923 151.189 259.008 150.48 259.239 149.374Z" fill="#022786"/>
<path fill-rule="evenodd" clip-rule="evenodd" d="M269.788 106.646C269.864 106.282 270.221 106.05 270.586 106.126C270.949 106.202 271.182 106.559 271.106 106.922C271.03 107.286 270.672 107.52 270.308 107.444C269.945 107.367 269.712 107.01 269.788 106.646Z" fill="#022786"/>
<path fill-rule="evenodd" clip-rule="evenodd" d="M261.452 105.588L267.904 106.939C268.094 106.978 268.283 106.856 268.322 106.666L268.454 106.039C268.494 105.848 268.371 105.66 268.18 105.62L261.728 104.269C261.539 104.229 261.349 104.352 261.31 104.542L261.18 105.17C261.139 105.36 261.262 105.548 261.452 105.588Z" fill="#022786"/>
<path fill-rule="evenodd" clip-rule="evenodd" d="M299.506 117.29L318.83 109.929L313.747 96.5885L294.424 103.95L290.301 113.147L299.506 117.29Z" fill="#ADC0FD"/>
<path d="M42.5068 101.001C42.5068 101.001 33.3939 105.716 27.0273 97.584" stroke="#ADC0FD" stroke-width="2.68494"/>
<path fill-rule="evenodd" clip-rule="evenodd" d="M18.9569 102.237L0.0742188 93.8122L5.8905 80.7754L24.7732 89.2L28.3785 98.6128L18.9569 102.237Z" fill="#ADC0FD"/>
<path fill-rule="evenodd" clip-rule="evenodd" d="M95.7757 80.0312L34.0352 91.3788L38.3535 132.089C38.8968 137.22 43.6934 140.803 48.7681 139.87L99.4283 130.558C104.518 129.623 107.727 124.544 106.386 119.544L95.7757 80.0312Z" fill="#2EAA77"/>
<path d="M101.652 101.682C98.3839 105.156 88.0432 115.255 70.977 118.377C53.966 121.488 40.7576 115.752 36.4609 113.664" stroke="#022786" stroke-width="2.68494"/>
<path fill-rule="evenodd" clip-rule="evenodd" d="M62.278 110.756L76.4923 108.144L75.9203 105.033L61.707 107.646L62.278 110.756Z" fill="#022786"/>
<path fill-rule="evenodd" clip-rule="evenodd" d="M77.7523 83.3433C77.061 75.3161 69.4913 69.7877 62.1771 71.2334C54.9842 72.6545 50.0988 80.4115 52.2752 88.0265L48.801 88.6645C46.031 78.9727 52.2496 69.1014 61.404 67.2928C70.7122 65.4526 80.3468 72.4888 81.2255 82.7052L77.7523 83.3433Z" fill="#022786"/>
<path d="M213.926 30.1542C213.926 30.1542 226.871 33.8316 232.929 21.7168" stroke="#ADC0FD" stroke-width="2.68494"/>
<path fill-rule="evenodd" clip-rule="evenodd" d="M167.813 26.81C162.364 28.7695 156.712 34.0167 156.712 35.8668C156.712 37.7168 158.076 43.2658 158.076 43.2658C158.076 43.2658 152.233 40.2482 154.668 52.5168C157.103 64.7874 171.612 102.472 177.551 105.782C183.491 109.092 192.158 107.827 195.955 105.782C199.753 103.737 211.633 98.3814 220.981 95.0709C230.329 91.7594 226.629 93.3668 234.151 87.9628C241.672 82.5577 238.678 77.5915 237.291 74.9624C235.903 72.3334 226.994 57.8006 225.898 52.3955C225.367 49.7783 223.461 44.0715 220.497 33.5207C219.613 30.3739 218.636 26.7982 217.573 22.7451C217.103 20.9543 215.985 16.6675 212.752 15.4171C211.38 14.8856 209.744 15.209 206.472 15.8559C201.255 16.8855 200.305 18.4978 200.045 19.0205C199.809 19.4938 199.718 19.9356 199.677 20.2413C199.704 20.8202 199.71 21.6347 199.606 22.5982C199.517 23.4364 198.472 31.9666 191.536 35.0759C189.121 36.1577 186.062 36.5117 182.225 35.5255C182.225 35.5255 177.308 34.356 172.829 26.9076C172.829 26.9076 172.147 25.2519 167.813 26.81Z" fill="#FFC72C"/>
<path fill-rule="evenodd" clip-rule="evenodd" d="M220.497 33.5215C220.497 33.5215 184.782 50.7899 168.898 53.3469C168.898 53.3469 171.015 59.8091 171.417 60.2105C171.819 60.6128 218.073 46.2802 222.809 41.5438L220.497 33.5215Z" fill="white"/>
<path fill-rule="evenodd" clip-rule="evenodd" d="M224.595 47.5684C224.595 47.5684 192.597 65.176 174.266 66.6374V74.5246C174.266 74.5246 214.875 66.8485 226.722 55.0019C226.722 55.0019 225.422 50.3532 224.595 47.5684Z" fill="white"/>
<path fill-rule="evenodd" clip-rule="evenodd" d="M237.806 75.9453C237.806 75.9453 208.662 93.3675 181.348 97.8949L182.516 103.251C182.516 103.251 214.513 99.3258 238.28 83.5288C238.28 83.5288 239.495 83.2645 238.867 78.7124C238.867 78.7124 238.8 77.7914 237.806 75.9453Z" fill="white"/>
<path fill-rule="evenodd" clip-rule="evenodd" d="M229.976 61.9023C229.976 61.9023 197.71 84.1655 179.087 82.6321C179.087 82.6321 178.234 89.9355 178.234 90.3733C178.234 90.8112 207.337 91.1938 233.563 68.4365L229.976 61.9023Z" fill="white"/>
<path d="M159.342 40.541C159.342 40.541 158.563 45.4096 162.264 51.642C165.964 57.8735 172.78 78.5184 174.338 83.386C175.896 88.2556 178.232 97.6033 181.349 103.252" stroke="#022786" stroke-width="1.78996" stroke-linecap="round" stroke-linejoin="round"/>
<path d="M159.536 44.5176C159.536 44.5176 153.889 45.0205 155.739 46.8715C157.589 48.7215 159.947 46.3084 159.947 46.3084" stroke="#022786" stroke-width="1.78996" stroke-linecap="round" stroke-linejoin="round"/>
<path fill-rule="evenodd" clip-rule="evenodd" d="M202.027 17.2676C202.027 17.2676 203.357 24.9605 200.922 29.3419C198.488 33.7234 194.301 39.9558 183.297 38.5929C172.294 37.2291 168.898 26.4644 168.898 26.4644C168.898 26.4644 172.16 25.3007 172.83 26.9071C173.499 28.5146 176.638 32.0844 177.999 33.0981C179.359 34.1109 183.433 37.1926 190.206 35.5734C196.979 33.9551 199.683 25.0137 199.683 21.579C199.683 18.1443 200.282 18.2537 202.027 17.2676Z" fill="#022786"/>
<path fill-rule="evenodd" clip-rule="evenodd" d="M242.196 23.7424L258.695 11.391L250.167 0L233.669 12.3505L232.238 22.2947L242.196 23.7424Z" fill="#ADC0FD"/>
</svg>
