<svg xmlns="http://www.w3.org/2000/svg" width="20" height="20" viewBox="0 0 20 20">
    <g fill="none" fill-rule="evenodd">
        <rect width="20" height="20" fill="#AFC7D1" rx="2"/>
        <path fill="#1A4379" fill-rule="nonzero" d="M5 14.29l1.252-1.396c.855.907 2.267 1.47 3.678 1.47 1.75 0 2.764-.726 2.764-1.851 0-1.143-.96-1.658-2.69-1.703l-1.319.001a7.86 7.86 0 0 0-.464.014V8.921l.23.01c.34.008.898.008 1.3.008 1.551 0 2.724-.49 2.724-1.597 0-1.125-1.193-1.705-2.684-1.705-1.352 0-2.465.471-3.42 1.342L5.18 5.655c1.014-1.089 2.624-1.905 4.83-1.905 2.864 0 4.792 1.234 4.792 3.266 0 1.614-1.51 2.558-2.883 2.775 1.293.11 3.082 1.07 3.082 2.94 0 2.05-1.928 3.519-4.99 3.519-2.366 0-4.115-.87-5.01-1.96z"/>
    </g>
</svg>
