<svg xmlns="http://www.w3.org/2000/svg" width="12" height="11" viewBox="0 0 12 11">
    <g fill="#48636F" fill-rule="nonzero">
        <path d="M10.56.96H.96v7.2l.958.96.96-.96.961.96.96-.96.961.96.96-.96.96.96.961-.96.96.96.959-.96V.96zm.962 0v9.6l-.96-.96-.96.96-.96-.96-.961.96-.96-.96-.961.96-.96-.96-.96.96-.961-.96-.96.96-.961-.96-.958.96V.96C0 .43.43 0 .96 0h9.602c.53 0 .96.43.96.96z"/>
        <path d="M2.878 2.399h4.32v.96h-4.32v-.96zM8.16 2.4h.96v.96h-.96V2.4zM2.88 4.32h6.24v.96H2.88v-.96zm0 1.92h6.24v.96H2.88v-.96z"/>
    </g>
</svg>
