<svg width="209" height="160" viewBox="0 0 209 160" fill="none" xmlns="http://www.w3.org/2000/svg">
<mask id="mask0" mask-type="alpha" maskUnits="userSpaceOnUse" x="0" y="0" width="209" height="160">
<rect x="0.5" width="208" height="160" fill="white"/>
</mask>
<g mask="url(#mask0)">
<path fill-rule="evenodd" clip-rule="evenodd" d="M123.141 64.0136C117.2 65.6055 113.67 71.6962 115.257 77.6177C116.844 83.5392 122.946 87.049 128.887 85.4572L151.937 79.2808C157.878 77.689 163.98 81.1988 165.567 87.1203C167.154 93.0418 163.624 99.1325 157.683 100.724L120.502 110.687C125.76 109.278 131.161 112.385 132.565 117.625L133.226 120.09C134.63 125.331 131.506 130.722 126.248 132.131L28.1992 158.403C22.2583 159.994 16.1561 156.485 14.5694 150.563C12.9827 144.642 16.5125 138.551 22.4534 136.959L45.5039 130.783C51.4448 129.191 54.9746 123.1 53.3879 117.179C51.8013 111.257 45.699 107.747 39.7581 109.339L16.7076 115.515C10.7668 117.107 4.66449 113.597 3.07784 107.676C1.49118 101.755 5.02097 95.6638 10.9618 94.0719L49.3794 83.778C55.3202 82.1862 58.85 76.0954 57.2634 70.1739C55.6767 64.2524 49.5744 60.7426 43.6336 62.3344L32.8767 65.2168C26.9358 66.8086 20.8335 63.2988 19.2469 57.3773C17.6602 51.4558 21.19 45.3651 27.1309 43.7732L139.31 13.7149C145.251 12.123 151.353 15.6329 152.94 21.5544C154.526 27.4758 150.997 33.5666 145.056 35.1585L186.547 24.041C192.488 22.4491 198.59 25.959 200.176 31.8805C201.763 37.8019 198.233 43.8927 192.292 45.4846L123.141 64.0136Z" fill="#F0F4FF"/>
<path fill-rule="evenodd" clip-rule="evenodd" d="M30.5 36C30.5 33.7909 32.2909 32 34.5 32H186.5C188.709 32 190.5 33.7909 190.5 36V104L166.5 128H34.5C32.2909 128 30.5 126.209 30.5 124V36Z" fill="url(#paint0_linear)"/>
<path d="M166.5 108V128L190.5 104H170.5C168.291 104 166.5 105.791 166.5 108Z" fill="#E5ECFF"/>
<rect x="120.5" y="46" width="26" height="10" rx="2" fill="#7996F9"/>
<path d="M154.5 48C154.5 46.8954 155.395 46 156.5 46H160.5C161.605 46 162.5 46.8954 162.5 48V54C162.5 55.1046 161.605 56 160.5 56H156.5C155.395 56 154.5 55.1046 154.5 54V48Z" fill="#7996F9"/>
<path d="M148.5 48C148.5 46.8954 149.395 46 150.5 46C151.605 46 152.5 46.8954 152.5 48V54C152.5 55.1046 151.605 56 150.5 56C149.395 56 148.5 55.1046 148.5 54V48Z" fill="#7996F9"/>
<path d="M164.5 48C164.5 46.8954 165.395 46 166.5 46H174.5C175.605 46 176.5 46.8954 176.5 48V54C176.5 55.1046 175.605 56 174.5 56H166.5C165.395 56 164.5 55.1046 164.5 54V48Z" fill="#7996F9"/>
<rect x="48.5" y="72" width="16" height="16" fill="#CD2D2D" fill-opacity="0.01"/>
<mask id="mask1" mask-type="alpha" maskUnits="userSpaceOnUse" x="48" y="72" width="17" height="16">
<rect x="48.5" y="72" width="16" height="16" fill="white"/>
</mask>
<g mask="url(#mask1)">
<mask id="path-11-outside-1" maskUnits="userSpaceOnUse" x="48.0858" y="69.5857" width="16.9706" height="16.9706" fill="black">
<rect fill="white" x="48.0858" y="69.5857" width="16.9706" height="16.9706"/>
<path fill-rule="evenodd" clip-rule="evenodd" d="M50.2071 78.7781C49.8166 79.1686 49.8166 79.8018 50.2071 80.1923L54.4497 84.435C54.8403 84.8255 55.4734 84.8255 55.864 84.435L62.935 77.3639C63.3256 76.9734 63.3256 76.3402 62.935 75.9497C62.5445 75.5592 61.9113 75.5592 61.5208 75.9497L55.1569 82.3137L51.6213 78.7781C51.2308 78.3876 50.5976 78.3876 50.2071 78.7781Z"/>
</mask>
<path fill-rule="evenodd" clip-rule="evenodd" d="M50.2071 78.7781C49.8166 79.1686 49.8166 79.8018 50.2071 80.1923L54.4497 84.435C54.8403 84.8255 55.4734 84.8255 55.864 84.435L62.935 77.3639C63.3256 76.9734 63.3256 76.3402 62.935 75.9497C62.5445 75.5592 61.9113 75.5592 61.5208 75.9497L55.1569 82.3137L51.6213 78.7781C51.2308 78.3876 50.5976 78.3876 50.2071 78.7781Z" fill="#305BEF"/>
<path d="M55.1569 82.3137L54.8033 82.6672L55.1569 83.0208L55.5104 82.6672L55.1569 82.3137ZM50.5607 79.8388C50.3654 79.6435 50.3654 79.3269 50.5607 79.1317L49.8536 78.4246C49.2678 79.0104 49.2678 79.9601 49.8536 80.5459L50.5607 79.8388ZM54.8033 84.0814L50.5607 79.8388L49.8536 80.5459L54.0962 84.7885L54.8033 84.0814ZM55.5104 84.0814C55.3151 84.2767 54.9986 84.2767 54.8033 84.0814L54.0962 84.7885C54.682 85.3743 55.6317 85.3743 56.2175 84.7885L55.5104 84.0814ZM62.5815 77.0104L55.5104 84.0814L56.2175 84.7885L63.2886 77.7175L62.5815 77.0104ZM62.5815 76.3032C62.7767 76.4985 62.7767 76.8151 62.5815 77.0104L63.2886 77.7175C63.8744 77.1317 63.8744 76.1819 63.2886 75.5961L62.5815 76.3032ZM61.8744 76.3032C62.0696 76.108 62.3862 76.108 62.5815 76.3032L63.2886 75.5961C62.7028 75.0104 61.753 75.0104 61.1673 75.5961L61.8744 76.3032ZM55.5104 82.6672L61.8744 76.3032L61.1673 75.5961L54.8033 81.9601L55.5104 82.6672ZM51.2678 79.1317L54.8033 82.6672L55.5104 81.9601L51.9749 78.4246L51.2678 79.1317ZM50.5607 79.1317C50.7559 78.9364 51.0725 78.9364 51.2678 79.1317L51.9749 78.4246C51.3891 77.8388 50.4393 77.8388 49.8536 78.4246L50.5607 79.1317Z" fill="#305BEF" mask="url(#path-11-outside-1)"/>
</g>
<rect x="48.5" y="92" width="16" height="16" fill="#CD2D2D" fill-opacity="0.01"/>
<mask id="mask2" mask-type="alpha" maskUnits="userSpaceOnUse" x="48" y="92" width="17" height="16">
<rect x="48.5" y="92" width="16" height="16" fill="white"/>
</mask>
<g mask="url(#mask2)">
<mask id="path-15-outside-2" maskUnits="userSpaceOnUse" x="48.0858" y="89.5857" width="16.9706" height="16.9706" fill="black">
<rect fill="white" x="48.0858" y="89.5857" width="16.9706" height="16.9706"/>
<path fill-rule="evenodd" clip-rule="evenodd" d="M50.2071 98.7781C49.8166 99.1686 49.8166 99.8018 50.2071 100.192L54.4497 104.435C54.8403 104.826 55.4734 104.826 55.864 104.435L62.935 97.3639C63.3256 96.9734 63.3256 96.3402 62.935 95.9497C62.5445 95.5592 61.9113 95.5592 61.5208 95.9497L55.1569 102.314L51.6213 98.7781C51.2308 98.3876 50.5976 98.3876 50.2071 98.7781Z"/>
</mask>
<path fill-rule="evenodd" clip-rule="evenodd" d="M50.2071 98.7781C49.8166 99.1686 49.8166 99.8018 50.2071 100.192L54.4497 104.435C54.8403 104.826 55.4734 104.826 55.864 104.435L62.935 97.3639C63.3256 96.9734 63.3256 96.3402 62.935 95.9497C62.5445 95.5592 61.9113 95.5592 61.5208 95.9497L55.1569 102.314L51.6213 98.7781C51.2308 98.3876 50.5976 98.3876 50.2071 98.7781Z" fill="#305BEF"/>
<path d="M55.1569 102.314L54.8033 102.667L55.1569 103.021L55.5104 102.667L55.1569 102.314ZM50.5607 99.8388C50.3654 99.6435 50.3654 99.3269 50.5607 99.1317L49.8536 98.4246C49.2678 99.0104 49.2678 99.9601 49.8536 100.546L50.5607 99.8388ZM54.8033 104.081L50.5607 99.8388L49.8536 100.546L54.0962 104.789L54.8033 104.081ZM55.5104 104.081C55.3151 104.277 54.9986 104.277 54.8033 104.081L54.0962 104.789C54.682 105.374 55.6317 105.374 56.2175 104.789L55.5104 104.081ZM62.5815 97.0104L55.5104 104.081L56.2175 104.789L63.2886 97.7175L62.5815 97.0104ZM62.5815 96.3032C62.7767 96.4985 62.7767 96.8151 62.5815 97.0104L63.2886 97.7175C63.8744 97.1317 63.8744 96.1819 63.2886 95.5961L62.5815 96.3032ZM61.8744 96.3032C62.0696 96.108 62.3862 96.108 62.5815 96.3032L63.2886 95.5961C62.7028 95.0104 61.753 95.0104 61.1673 95.5961L61.8744 96.3032ZM55.5104 102.667L61.8744 96.3032L61.1673 95.5961L54.8033 101.96L55.5104 102.667ZM51.2678 99.1317L54.8033 102.667L55.5104 101.96L51.9749 98.4246L51.2678 99.1317ZM50.5607 99.1317C50.7559 98.9364 51.0725 98.9364 51.2678 99.1317L51.9749 98.4246C51.3891 97.8388 50.4393 97.8388 49.8536 98.4246L50.5607 99.1317Z" fill="#305BEF" mask="url(#path-15-outside-2)"/>
</g>
<path d="M70.5 96C70.5 94.8954 71.3954 94 72.5 94H96.5C97.6046 94 98.5 94.8954 98.5 96C98.5 97.1046 97.6046 98 96.5 98H72.5C71.3954 98 70.5 97.1046 70.5 96Z" fill="#7996F9"/>
<path d="M70.5 104C70.5 102.895 71.3954 102 72.5 102H96.5C97.6046 102 98.5 102.895 98.5 104C98.5 105.105 97.6046 106 96.5 106H72.5C71.3954 106 70.5 105.105 70.5 104Z" fill="#7996F9"/>
<path d="M102.5 106C103.605 106 104.5 105.105 104.5 104C104.5 102.895 103.605 102 102.5 102C101.395 102 100.5 102.895 100.5 104C100.5 105.105 101.395 106 102.5 106Z" fill="#7996F9"/>
<path d="M70.5 76C70.5 74.8954 71.3954 74 72.5 74H112.5C113.605 74 114.5 74.8954 114.5 76C114.5 77.1046 113.605 78 112.5 78H72.5C71.3954 78 70.5 77.1046 70.5 76Z" fill="#7996F9"/>
<path d="M70.5 84C70.5 82.8954 71.3954 82 72.5 82H96.5C97.6046 82 98.5 82.8954 98.5 84C98.5 85.1046 97.6046 86 96.5 86H72.5C71.3954 86 70.5 85.1046 70.5 84Z" fill="#7996F9"/>
<rect x="46.5" y="46" width="16" height="10" rx="2" fill="#7996F9"/>
<rect x="66.5" y="54" width="48" height="2" rx="1" fill="#7996F9"/>
<path d="M138.5 116C147.337 116 154.5 108.837 154.5 100C154.5 91.1634 147.337 84 138.5 84C129.663 84 122.5 91.1634 122.5 100C122.5 108.837 129.663 116 138.5 116Z" fill="#305BEF"/>
<rect x="130.5" y="92" width="16" height="16" fill="#CD2D2D" fill-opacity="0.01"/>
<mask id="mask3" mask-type="alpha" maskUnits="userSpaceOnUse" x="130" y="92" width="17" height="16">
<rect x="130.5" y="92" width="16" height="16" fill="white"/>
</mask>
<g mask="url(#mask3)">
<mask id="path-27-outside-3" maskUnits="userSpaceOnUse" x="130.086" y="89.5857" width="16.9706" height="16.9706" fill="black">
<rect fill="white" x="130.086" y="89.5857" width="16.9706" height="16.9706"/>
<path fill-rule="evenodd" clip-rule="evenodd" d="M132.207 98.7781C131.817 99.1686 131.817 99.8018 132.207 100.192L136.45 104.435C136.84 104.826 137.473 104.826 137.864 104.435L144.935 97.3639C145.326 96.9734 145.326 96.3402 144.935 95.9497C144.545 95.5592 143.911 95.5592 143.521 95.9497L137.157 102.314L133.621 98.7781C133.231 98.3876 132.598 98.3876 132.207 98.7781Z"/>
</mask>
<path fill-rule="evenodd" clip-rule="evenodd" d="M132.207 98.7781C131.817 99.1686 131.817 99.8018 132.207 100.192L136.45 104.435C136.84 104.826 137.473 104.826 137.864 104.435L144.935 97.3639C145.326 96.9734 145.326 96.3402 144.935 95.9497C144.545 95.5592 143.911 95.5592 143.521 95.9497L137.157 102.314L133.621 98.7781C133.231 98.3876 132.598 98.3876 132.207 98.7781Z" fill="white"/>
<path d="M137.157 102.314L136.803 102.667L137.157 103.021L137.51 102.667L137.157 102.314ZM132.561 99.8388C132.365 99.6435 132.365 99.3269 132.561 99.1317L131.854 98.4246C131.268 99.0104 131.268 99.9601 131.854 100.546L132.561 99.8388ZM136.803 104.081L132.561 99.8388L131.854 100.546L136.096 104.789L136.803 104.081ZM137.51 104.081C137.315 104.277 136.999 104.277 136.803 104.081L136.096 104.789C136.682 105.374 137.632 105.374 138.218 104.789L137.51 104.081ZM144.581 97.0104L137.51 104.081L138.218 104.789L145.289 97.7175L144.581 97.0104ZM144.581 96.3032C144.777 96.4985 144.777 96.8151 144.581 97.0104L145.289 97.7175C145.874 97.1317 145.874 96.1819 145.289 95.5961L144.581 96.3032ZM143.874 96.3032C144.07 96.108 144.386 96.108 144.581 96.3032L145.289 95.5961C144.703 95.0104 143.753 95.0104 143.167 95.5961L143.874 96.3032ZM137.51 102.667L143.874 96.3032L143.167 95.5961L136.803 101.96L137.51 102.667ZM133.268 99.1317L136.803 102.667L137.51 101.96L133.975 98.4246L133.268 99.1317ZM132.561 99.1317C132.756 98.9364 133.073 98.9364 133.268 99.1317L133.975 98.4246C133.389 97.8388 132.439 97.8388 131.854 98.4246L132.561 99.1317Z" fill="white" mask="url(#path-27-outside-3)"/>
</g>
<g filter="url(#filter0_d)">
<path fill-rule="evenodd" clip-rule="evenodd" d="M180.75 50.1435C175.225 46.4171 167.671 47.8853 163.945 53.4101C161.577 56.9199 161.405 61.2057 162.939 64.8461L153.104 75.354L149.73 73.0778C149.633 72.9754 149.524 72.8835 149.403 72.8045L146.894 71.1122C146.063 70.5515 144.934 70.7709 144.373 71.6022L139.635 78.6271C139.074 79.4585 139.294 80.587 140.125 81.1478L141.129 81.8248L138.759 85.3372C138.199 86.1686 138.418 87.2971 139.249 87.858L161.328 102.75C162.159 103.311 163.288 103.091 163.849 102.26L166.218 98.7476L167.221 99.4245C168.053 99.9852 169.181 99.7658 169.742 98.9345L174.48 91.9096C175.041 91.0782 174.822 89.9497 173.99 89.3889L167.828 85.2322L173.79 72.1652C177.74 72.224 181.649 70.4582 184.016 66.9483C187.743 61.4236 186.274 53.87 180.75 50.1435ZM167.747 95.3984L170.454 91.3841L170.454 91.3842L167.747 95.3985L167.747 95.3984Z" fill="url(#paint1_linear)"/>
</g>
<path fill-rule="evenodd" clip-rule="evenodd" d="M108.535 147.287C107.964 145.153 109.23 142.96 111.364 142.388L134.546 136.176C136.68 135.605 138.873 136.871 139.445 139.005C140.017 141.139 138.75 143.332 136.616 143.904L113.434 150.115C111.3 150.687 109.107 149.421 108.535 147.287Z" fill="#F0F4FF"/>
<path fill-rule="evenodd" clip-rule="evenodd" d="M143.309 137.97C142.737 135.836 144.003 133.642 146.137 133.071L150.001 132.035C152.135 131.464 154.328 132.73 154.9 134.864C155.472 136.998 154.205 139.191 152.071 139.763L148.208 140.798C146.074 141.37 143.88 140.103 143.309 137.97Z" fill="#F0F4FF"/>
<path fill-rule="evenodd" clip-rule="evenodd" d="M156.535 13.9695C155.964 11.8357 157.23 9.64233 159.364 9.07056L163.227 8.03528C165.361 7.46352 167.555 8.72985 168.126 10.8637C168.698 12.9976 167.432 15.1909 165.298 15.7627L161.434 16.798C159.3 17.3697 157.107 16.1034 156.535 13.9695Z" fill="#F0F4FF"/>
</g>
<defs>
<filter id="filter0_d" x="122.5" y="40" width="80.9667" height="80.9667" filterUnits="userSpaceOnUse" color-interpolation-filters="sRGB">
<feFlood flood-opacity="0" result="BackgroundImageFix"/>
<feColorMatrix in="SourceAlpha" type="matrix" values="0 0 0 0 0 0 0 0 0 0 0 0 0 0 0 0 0 0 127 0"/>
<feOffset dy="4"/>
<feGaussianBlur stdDeviation="5"/>
<feColorMatrix type="matrix" values="0 0 0 0 0 0 0 0 0 0 0 0 0 0 0 0 0 0 0.15 0"/>
<feBlend mode="normal" in2="BackgroundImageFix" result="effect1_dropShadow"/>
<feBlend mode="normal" in="SourceGraphic" in2="effect1_dropShadow" result="shape"/>
</filter>
<linearGradient id="paint0_linear" x1="47" y1="17" x2="180.5" y2="134" gradientUnits="userSpaceOnUse">
<stop stop-color="#E5ECFF"/>
<stop offset="1" stop-color="#D0DBFF"/>
</linearGradient>
<linearGradient id="paint1_linear" x1="146.5" y1="18" x2="160" y2="99.5" gradientUnits="userSpaceOnUse">
<stop stop-color="#FFC72C"/>
<stop offset="1" stop-color="#E3A700"/>
</linearGradient>
</defs>
</svg>
