<svg width="40" height="40" viewBox="0 0 40 40" fill="none" xmlns="http://www.w3.org/2000/svg">
<path d="M20 40C31.0457 40 40 31.0457 40 20C40 8.9543 31.0457 0 20 0C8.9543 0 0 8.9543 0 20C0 31.0457 8.9543 40 20 40Z" fill="#E6F7FF"/>
<mask id="mask0" mask-type="alpha" maskUnits="userSpaceOnUse" x="0" y="0" width="40" height="40">
<path d="M20 40C31.0457 40 40 31.0457 40 20C40 8.9543 31.0457 0 20 0C8.9543 0 0 8.9543 0 20C0 31.0457 8.9543 40 20 40Z" fill="white"/>
</mask>
<g mask="url(#mask0)">
<rect x="11.4286" y="10" width="24.2857" height="15.7143" rx="1.42857" fill="url(#paint0_linear)"/>
<path opacity="0.28" fill-rule="evenodd" clip-rule="evenodd" d="M11.4286 11.4286C11.4286 10.6396 12.0682 10 12.8572 10H20.1021L23.5714 25.7143H12.8572C12.0682 25.7143 11.4286 25.0747 11.4286 24.2857V11.4286Z" fill="url(#paint1_linear)"/>
<rect width="24.2857" height="15.7143" rx="1.42857" transform="matrix(-1 0 0 1 28.5714 15.7143)" fill="url(#paint2_linear)"/>
<path opacity="0.28" fill-rule="evenodd" clip-rule="evenodd" d="M4.28571 17.1429C4.28571 16.3539 4.9253 15.7143 5.71428 15.7143H13.4694L17.1428 31.4286H5.71428C4.9253 31.4286 4.28571 30.789 4.28571 30V17.1429Z" fill="url(#paint3_linear)"/>
<rect width="24.2857" height="2.85714" transform="matrix(-1 0 0 1 28.5714 17.8571)" fill="white"/>
<rect width="5" height="2.14286" transform="matrix(-1 0 0 1 11.4286 27.1429)" fill="white"/>
<path d="M32.1429 15C32.9318 15 33.5714 14.3604 33.5714 13.5714C33.5714 12.7824 32.9318 12.1429 32.1429 12.1429C31.3539 12.1429 30.7143 12.7824 30.7143 13.5714C30.7143 14.3604 31.3539 15 32.1429 15Z" fill="#EEF2F5"/>
<path d="M32.1429 12.1429C32.9319 12.1429 33.5715 12.7824 33.5715 13.5714C33.5715 14.3604 32.9319 15 32.1429 15V12.1429Z" fill="white"/>
</g>
<defs>
<linearGradient id="paint0_linear" x1="-0.714269" y1="17.8571" x2="13.6202" y2="40.0105" gradientUnits="userSpaceOnUse">
<stop stop-color="#8BDCFB"/>
<stop offset="1" stop-color="#2FB7EC"/>
</linearGradient>
<linearGradient id="paint1_linear" x1="11.4286" y1="10" x2="11.4286" y2="25.7143" gradientUnits="userSpaceOnUse">
<stop stop-color="#E6F7FF"/>
<stop offset="1" stop-color="#CEF2FD" stop-opacity="0.4"/>
</linearGradient>
<linearGradient id="paint2_linear" x1="36.4286" y1="7.85714" x2="22.0941" y2="-14.2962" gradientUnits="userSpaceOnUse">
<stop stop-color="#2FB7EC"/>
<stop offset="1" stop-color="#2F88EC"/>
</linearGradient>
<linearGradient id="paint3_linear" x1="4.8714" y1="19.6429" x2="13.4862" y2="32.4555" gradientUnits="userSpaceOnUse">
<stop stop-color="#E6F7FF"/>
<stop offset="1" stop-color="#2FB7EC"/>
</linearGradient>
</defs>
</svg>
