<svg xmlns="http://www.w3.org/2000/svg" xmlns:xlink="http://www.w3.org/1999/xlink" width="400" height="200" viewBox="0 0 400 200">
    <defs>
        <path id="a" d="M0 0h400v200H0z"/>
        <linearGradient id="c" x1="100%" x2="0%" y1="37.5%" y2="62.5%">
            <stop offset="0%" stop-color="#CEF2FD"/>
            <stop offset="100%" stop-color="#E6F7FF"/>
        </linearGradient>
        <linearGradient id="d" x1="0%" y1="54.681%" y2="45.319%">
            <stop offset="0%" stop-color="#E6F7FF"/>
            <stop offset="100%" stop-color="#8BDCFB" stop-opacity=".4"/>
        </linearGradient>
        <linearGradient id="e" x1="42.969%" x2="57.031%" y1="0%" y2="100%">
            <stop offset="0%" stop-color="#8BDCFB"/>
            <stop offset="100%" stop-color="#8BDCFB"/>
        </linearGradient>
        <linearGradient id="f" x1="100%" x2="0%" y1="32.378%" y2="67.622%">
            <stop offset="0%" stop-color="#7790A3"/>
            <stop offset="100%" stop-color="#152934"/>
        </linearGradient>
        <linearGradient id="g" x1="97.978%" x2="7.063%" y1="36.977%" y2="52.537%">
            <stop offset="0%" stop-color="#8BDCFB"/>
            <stop offset="100%" stop-color="#8BDCFB" stop-opacity="0"/>
        </linearGradient>
        <linearGradient id="h" x1="0%" y1="44.483%" y2="55.517%">
            <stop offset="0%" stop-color="#4A5F6E"/>
            <stop offset="100%" stop-color="#152934"/>
        </linearGradient>
        <linearGradient id="i" x1="50%" x2="50%" y1="0%" y2="100%">
            <stop offset="0%" stop-color="#FDE1BB"/>
            <stop offset="100%" stop-color="#FABF86"/>
        </linearGradient>
        <linearGradient id="j" x1="58.997%" x2="41.003%" y1="95.617%" y2="0%">
            <stop offset="0%" stop-color="#4A90E2"/>
            <stop offset="100%" stop-color="#2FB7EC"/>
        </linearGradient>
        <linearGradient id="k" x1="50%" x2="50%" y1="5.14%" y2="100%">
            <stop offset="0%" stop-color="#326BEE"/>
            <stop offset="100%" stop-color="#326BEE"/>
        </linearGradient>
        <linearGradient id="l" x1="50%" x2="50%" y1="0%" y2="100%">
            <stop offset="0%" stop-color="#326BEE"/>
            <stop offset="100%" stop-color="#1D4BEA"/>
        </linearGradient>
        <linearGradient id="m" x1="19.338%" x2="80.662%" y1="0%" y2="100%">
            <stop offset="0%" stop-color="#8BDCFB"/>
            <stop offset="100%" stop-color="#2F88EC"/>
        </linearGradient>
        <linearGradient id="n" x1="0%" y1="43.148%" y2="56.852%">
            <stop offset="0%" stop-color="#4A5F6E"/>
            <stop offset="100%" stop-color="#152934"/>
        </linearGradient>
        <linearGradient id="o" x1="50%" x2="50%" y1="0%" y2="100%">
            <stop offset="0%" stop-color="#FDE1BB"/>
            <stop offset="100%" stop-color="#FABF86"/>
        </linearGradient>
        <linearGradient id="p" x1="50%" x2="50%" y1="0%" y2="100%">
            <stop offset="0%" stop-color="#FDE1BB"/>
            <stop offset="100%" stop-color="#FABF86"/>
        </linearGradient>
        <path id="q" d="M.142.138h14.293v10.83H.142z"/>
        <linearGradient id="s" x1="0%" y1="96.46%" y2="3.54%">
            <stop offset="0%" stop-color="#FABF86"/>
            <stop offset="100%" stop-color="#F8AB60"/>
        </linearGradient>
        <linearGradient id="t" x1="33.684%" x2="66.316%" y1="50%" y2="0%">
            <stop offset="0%" stop-color="#6BBFF6"/>
            <stop offset="100%" stop-color="#2F88EC"/>
        </linearGradient>
        <linearGradient id="u" x1="0%" y1="23.225%" y2="76.775%">
            <stop offset="0%" stop-color="#92F1D3"/>
            <stop offset="100%" stop-color="#2EE3AA"/>
        </linearGradient>
        <linearGradient id="v" x1="124.59%" x2="3.913%" y1="100%" y2="100%">
            <stop offset="0%" stop-color="#1ACC94"/>
            <stop offset="100%" stop-color="#1ACC94" stop-opacity="0"/>
        </linearGradient>
        <path id="w" d="M10.182 9.857c0 2.123-1.402 3.592-3.956 3.893v.626a.984.984 0 0 1-1.969 0v-.626c-1.88-.177-3.246-.85-4.257-1.823l1.614-2.283a5.352 5.352 0 0 0 3.778 1.557c1.047 0 1.686-.442 1.686-1.008 0-.673-.763-.938-2.023-1.204C3.105 8.6.373 8.105.373 5.31c0-1.788 1.383-3.362 3.884-3.646V.984a.984.984 0 1 1 1.97 0v.697c1.418.177 2.678.726 3.671 1.575L8.231 5.433c-.994-.814-2.289-1.221-3.335-1.221-1.011 0-1.402.407-1.402.92 0 .62.728.832 2.04 1.08 1.952.406 4.648.973 4.648 3.645z"/>
        <linearGradient id="x" x1="0%" x2="-9.546%" y1="25.219%" y2="202.678%">
            <stop offset="0%" stop-color="#92F1D3"/>
            <stop offset="100%" stop-color="#2EE3AA"/>
        </linearGradient>
        <linearGradient id="y" x1="24.779%" x2="75.221%" y1="0%" y2="100%">
            <stop offset="0%" stop-color="#1ACC94"/>
            <stop offset="100%" stop-color="#2EE3AA"/>
        </linearGradient>
        <linearGradient id="z" x1="100%" x2="0%" y1="41.188%" y2="58.812%">
            <stop offset="0%" stop-color="#8BDCFB"/>
            <stop offset="100%" stop-color="#CEF2FD"/>
        </linearGradient>
        <path id="A" d="M54 0l8 8v40H0V0h54z"/>
        <linearGradient id="B" x1="98.188%" x2="0%" y1="39.407%" y2="60.593%">
            <stop offset="0%" stop-color="#FFE380"/>
            <stop offset="100%" stop-color="#FFD560"/>
        </linearGradient>
        <path id="C" d="M54 0l8 8v40H0V0h54z"/>
        <linearGradient id="D" x1="0%" y1="0%" y2="100%">
            <stop offset="0%" stop-color="#FFE380"/>
            <stop offset="100%" stop-color="#FFD560"/>
        </linearGradient>
        <linearGradient id="E" x1="100%" x2="0%" y1="49.456%" y2="51.347%">
            <stop offset="0%" stop-color="#FFE380"/>
            <stop offset="100%" stop-color="#FFD560"/>
        </linearGradient>
        <linearGradient id="F" x1="37.5%" x2="62.5%" y1="0%" y2="100%">
            <stop offset="0%" stop-color="#8BDCFB"/>
            <stop offset="100%" stop-color="#8BDCFB"/>
        </linearGradient>
        <linearGradient id="G" x1="37.5%" x2="62.5%" y1="0%" y2="100%">
            <stop offset="0%" stop-color="#8BDCFB"/>
            <stop offset="100%" stop-color="#8BDCFB"/>
        </linearGradient>
        <linearGradient id="H" x1="100%" x2="31.308%" y1="37.226%" y2="62.774%">
            <stop offset="0%" stop-color="#FFE380"/>
            <stop offset="100%" stop-color="#FFE380" stop-opacity="0"/>
        </linearGradient>
    </defs>
    <g fill="none" fill-rule="evenodd">
        <mask id="b" fill="#fff">
            <use xlink:href="#a"/>
        </mask>
        <use fill="#D8D8D8" fill-opacity="0" xlink:href="#a"/>
        <g mask="url(#b)">
            <g transform="translate(47 38)">
                <path fill="url(#c)" d="M91 144c0-71.797 58.203-130 130-130s130 58.203 130 130H91z"/>
                <path fill="url(#d)" d="M0 144s12.752-15.785 31.852-4c0 0 22.929-74.867 56.409-4.188 0 0 18.263-23.357 37.739 8.188H0z"/>
                <path fill="url(#e)" d="M60 144h-9v-19.35c0-2.568 2.015-4.65 4.5-4.65s4.5 2.082 4.5 4.65V144z"/>
                <path fill="url(#f)" fill-rule="nonzero" d="M145.038 32.165h173.775a4.8 4.8 0 0 1 4.74 5.56L305.252 152H121.757l18.542-115.794a4.8 4.8 0 0 1 4.74-4.04z"/>
                <path fill="#FFF" fill-rule="nonzero" d="M149.127 41L133.01 144.413h164.063L313.19 41z"/>
                <path fill="url(#g)" d="M155.57 122.587c9.61-.049 15.818-12 21.837-12.074 6.019-.074 2.624 19.583 10.059 19.458 7.435-.124 14.711-15.145 22.157-15.168 7.446-.024 1.116 9.16 10.26 9.106 9.145-.055 13.83-22.292 21.355-22.292s1.74 10.024 9.508 10.002C258.514 111.597 263.288 84 272.983 84c9.696 0 .473 33.186 9.724 33.212 9.251.027 7.946-12.19 15.724-12.15 7.777.04 4.504 17.175 16.173 17.103H317L313 144H133l4-27.174c5.972 3.874 12.162 5.794 18.57 5.761z"/>
                <rect width="227.872" height="8" x="77.382" y="144" fill="#AFC7D1" fill-rule="nonzero" rx="4"/>
                <path fill="#4A5F6E" fill-rule="nonzero" d="M213.307 144h93.415l-.747 4.067a4.8 4.8 0 0 1-4.72 3.933h-87.948a4 4 0 1 1 0-8z"/>
                <path fill="#F7A79A" d="M72.633 145.725h-3.391l.164 1.766h3.227v-1.766z"/>
                <path fill="url(#h)" d="M22.028 105.857h-4.04c-.19 1.42-.19 3.04 0 4.859h14.484c0-.472-.398-.927-1.192-1.363-4.37-2.33-7.453-3.496-9.252-3.496z" transform="translate(51 41)"/>
                <path fill="url(#i)" d="M30.673 66.5c-.718 0-1.154-.45-1.48-1.216-.327-.766-.611-2.398-.57-3.041-.203.401-1.303 1.61-1.788 1.45-.606-.202 1.828-2.608 1.787-4.457a9.774 9.774 0 0 0 2.793-.918s1.276.26.763 4.438c-.525 2.497-1.027 3.745-1.505 3.745z" transform="translate(51 41)"/>
                <path fill="url(#j)" d="M23.593 34.248c-6.02 3.657-1.409 12.104-1.409 12.104s5.761 11.558 6.438 12.884c1.668-.255 2.039-.255 2.968-.777-.504-2.673-4.886-19.79-6.502-23.688l-.727-1.688-.768 1.165z" transform="translate(51 41)"/>
                <path fill="#1A4278" d="M58.31 101.314c.121.322.283.643.485.965.04.08.08.2.162.28l-.647-1.245z"/>
                <path fill="url(#k)" d="M6.34 56.979c-.767-3.094-.606-5.345-.606-5.345l.687-5.867 17.01 2.09.526 5.786c.982 7.338 1.294 15.439.936 24.3-.358 8.863-1.444 17.79-3.26 26.782h-3.391s-2.864-35.642-6.65-41.99L6.34 56.98z" transform="translate(51 41)"/>
                <path fill="url(#l)" d="M5.018 57.737c0-2.565.306-5.59.919-9.076h17.696c-2.209 11.12-4.312 21.129-6.309 30.025a214.05 214.05 0 0 1-7.592 26.039H6.583s.12-10.377 0-18.492c-.029-1.962.987-6.335.987-9.54 0-2.137-.85-8.456-2.552-18.956z" transform="translate(51 41)"/>
                <path fill="url(#m)" d="M1.752 24.695C1.204 26.425.482 35.033.078 37.93c-.831 5.962 5.253 7.286 5.253 7.286v3.445c5.913 1.188 12.23 1.188 18.95 0-.166-3.408-.166-5.936 0-7.584.549-5.478 1.034-10.368.755-13.672-.606-7.193-3.988-7.114-5.564-8.159-1.536-1.005-8.445-1.768-8.445-1.768s-7.335 1.27-9.275 7.217z" transform="translate(51 41)"/>
                <path fill="#F7A79A" d="M60.732 145.725h-3.149s.08.37 0 1.495h3.704l-.555-1.495z"/>
                <path fill="url(#n)" d="M10.238 106.022H6.464c-.652 2.062-.754 4.654-.511 4.694.404.04 12.606 0 12.606 0s-.267-.534-.878-1.283c-.611-.749-7.443-3.41-7.443-3.41z" transform="translate(51 41)"/>
                <path fill="url(#o)" d="M11.876 19.166c-.162-.161-.445-.443-.647-.844-.12-.282-.202-.523-.202-.724.162-.442.162-.763.162-.763s.08-2.733 0-2.813c0 0 6.222-.563 6.06 2.25-.08 1.407.485 2.21 1.051 2.652l.121.08c.081.202.162.604.162 1.046a5.577 5.577 0 0 1-2.91.723c-2.06-.12-3.434-1.286-3.797-1.607" transform="translate(51 41)"/>
                <path fill="#F8AB60" d="M68.29 57.031s-2.869 1.809-5.98-.442l-.04-1.768s6.586-.924 6.02 2.21"/>
                <path fill="url(#p)" d="M19.755 6.91s1.333 7.956-1.253 9c-2.586 1.045-6.626-.602-8.727-3.656-2.101-3.094.687-5.787 2.182-1.97V4.7l7.798 2.21z" transform="translate(51 41)"/>
                <g transform="translate(58.62 41)">
                    <mask id="r" fill="#fff">
                        <use xlink:href="#q"/>
                    </mask>
                    <path fill="#152934" d="M1.55 10.968c-.405-2.21 1.697-3.375 2.949-.321V5.14s8.08 5.465 9.657-.24c.12-.362.646-2.13-.162-3.376C13.105.158 10.721-.364 8.378.72c-.364-.16-3.475-1.246-5.818.362C.014 2.81-.834 7.19 1.55 10.968" mask="url(#r)"/>
                </g>
                <path fill="url(#s)" d="M12.631 20.775s.52-1.131 1.427-3.136c.04-.242.444-3.778 1.05-3.537.647.241.202 2.01.202 2.01.243-.242.525-.483.768-.643 1.94-1.326 4.236-1.45 4.646-.643.41.806-.626 2.813-2.141 4.28-1.515 1.468-4.024 2.873-4.024 2.873l-1.928-1.204z" transform="translate(51 41)"/>
                <path fill="url(#t)" d="M.401 42.392c.283 1.045.647 2.09 1.374 2.853.768.763 1.98 1.165 2.909.643.606-.322.97-.924 1.333-1.527.849-1.487 1.536-3.054 2.263-4.661 1.535-3.456 3.628-9.363 6.279-17.721l-1.928-1.204c-4.925 6.884-7.86 10.633-8.802 11.25C.395 34.314-.488 39.015.401 42.391z" transform="translate(51 41)"/>
                <g transform="translate(275 88)">
                    <path fill="url(#u)" fill-rule="nonzero" d="M20.583 23.04h15.273C53.802 43.373 59.742 57.026 53.674 64H2.765c-8.825-10.143 5.2-26.457 17.818-40.96z"/>
                    <path fill="url(#v)" fill-rule="nonzero" d="M29.273 52.084c-5.318 3.208-14.179 7.151-26.583 11.829C-5.98 53.763 8 37.5 20.583 23.04h15.273c4.511 5.11 8.263 9.8 11.257 14.067-7.339 7.236-13.286 12.228-17.84 14.977z"/>
                    <ellipse cx="28" cy="44.8" fill="#FFF" rx="15.273" ry="14.08"/>
                    <use fill="#1ACC94" transform="translate(22.91 37.12)" xlink:href="#w"/>
                    <path fill="#FFD560" fill-rule="nonzero" d="M20.378 17.92h15.244a2.56 2.56 0 0 1 0 5.12H20.378a2.56 2.56 0 0 1 0-5.12z"/>
                    <path fill="url(#x)" fill-rule="nonzero" d="M15.273 2.56L28 0l12.727 2.56-5.09 15.36H20.363z"/>
                    <path fill="#92F1D3" fill-rule="nonzero" d="M16.545 5.12L12.727 6.4l7.637 11.52z"/>
                    <path fill="#1ACC94" fill-rule="nonzero" d="M39.455 5.12l3.818 1.28-7.637 11.52z"/>
                    <path fill="url(#y)" fill-rule="nonzero" d="M28 0l12.727 2.56-5.09 15.36H28z" opacity=".4"/>
                    <path fill="#FFD560" fill-rule="nonzero" d="M28.207 21.126c.098-.7.742-1.188 1.438-1.09.696.1 1.18.747 1.082 1.447a9.938 9.938 0 0 0-.052.52c-.148 1.848-.043 3.934.499 5.871.525 1.878 1.41 3.377 2.703 4.4.553.436.649 1.24.215 1.797a1.268 1.268 0 0 1-1.787.216c-1.762-1.392-2.921-3.357-3.582-5.72-.636-2.275-.756-4.645-.585-6.769.025-.31.05-.54.069-.672z"/>
                    <path fill="#FFD560" fill-rule="nonzero" d="M31.007 22.172a1.282 1.282 0 0 1 .798-1.623 1.271 1.271 0 0 1 1.613.803C34.67 25.073 37.433 26.88 42 26.88c.703 0 1.273.573 1.273 1.28 0 .707-.57 1.28-1.273 1.28-5.615 0-9.376-2.459-10.993-7.268z"/>
                </g>
                <path fill="#8BDCFB" fill-rule="nonzero" d="M319.06 85.596l3.536-3.535a1.5 1.5 0 0 1 2.122 2.121l-3.536 3.536a1.5 1.5 0 0 1-2.121-2.122zM324.027 90.335l4.698-1.71a1.5 1.5 0 0 1 1.026 2.819l-4.698 1.71a1.5 1.5 0 0 1-1.026-2.82z"/>
                <path fill="url(#z)" d="M147.652 103h55.952l-.598 5h-55.952l.598-5zm-2 10h39.952l-.598 5h-39.952l.598-5zm-1 10h26.952l-.598 5h-26.952l.598-5z"/>
                <g transform="translate(89)">
                    <g fill-rule="nonzero">
                        <use fill="#FFF" xlink:href="#A"/>
                        <use fill="#AFC7D1" fill-opacity=".5" xlink:href="#A"/>
                    </g>
                    <path fill="#FFF" fill-rule="nonzero" d="M4 6h54v36H4z"/>
                    <path fill="#EEF2F5" fill-rule="nonzero" d="M11 12a1 1 0 0 1 1 1v26a1 1 0 0 1-2 0V13a1 1 0 0 1 1-1z"/>
                    <path fill="#EEF2F5" fill-rule="nonzero" d="M9 35h44a1 1 0 0 1 0 2H9a1 1 0 0 1 0-2z"/>
                    <path fill="url(#B)" d="M12 27.75l5.034-3.175h7.616l6.387-3.713h10.626l10.575-4.383V35H12z"/>
                    <circle cx="52" cy="17" r="1" fill="#FFC72C"/>
                    <circle cx="42" cy="21" r="1" fill="#FFC72C"/>
                    <circle cx="31" cy="21" r="1" fill="#FFC72C"/>
                    <circle cx="25" cy="25" r="1" fill="#FFC72C"/>
                    <circle cx="17" cy="25" r="1" fill="#FFC72C"/>
                    <path fill="#AFC7D1" fill-rule="nonzero" d="M62 8h-8V0z"/>
                </g>
                <g>
                    <g fill-rule="nonzero" transform="translate(187)">
                        <use fill="#FFF" xlink:href="#C"/>
                        <use fill="#AFC7D1" fill-opacity=".5" xlink:href="#C"/>
                    </g>
                    <path fill="#FFF" fill-rule="nonzero" d="M191 6h54v36h-54z"/>
                    <path fill="url(#D)" d="M10 0v10h10c0 5.523-4.477 10-10 10S0 15.523 0 10 4.477 0 10 0z" transform="translate(197 14)"/>
                    <path fill="#FFC72C" d="M207 14c5.523 0 10 4.477 10 10h-10V14z"/>
                    <path fill="#FFD560" d="M207 14c2.306 0 4.43.78 6.12 2.091-1.354 1.94-3.395 4.576-6.12 7.909V14z"/>
                    <g fill="#AFC7D1" fill-opacity=".4" fill-rule="nonzero">
                        <path d="M222 18h16a1 1 0 0 1 0 2h-16a1 1 0 1 1 0-2zM222 23h16a1 1 0 0 1 0 2h-16a1 1 0 1 1 0-2zM222 28h12a1 1 0 0 1 0 2h-12a1 1 0 0 1 0-2z"/>
                    </g>
                    <path fill="#AFC7D1" fill-rule="nonzero" d="M249 8h-8V0z"/>
                </g>
                <circle cx="273" cy="84" r="2" fill="#2EE3AA"/>
                <circle cx="210" cy="115" r="2" fill="#2EE3AA"/>
                <g fill-rule="nonzero">
                    <path fill="#FFE380" d="M79.857 103.18l12.452-7.189 1.5 2.599-12.452 7.189z"/>
                    <path fill="#4A90E2" d="M78.956 103.701l.9-.52 1.5 2.598-.9.52a.5.5 0 0 1-.683-.183l-1-1.732a.5.5 0 0 1 .183-.683z"/>
                    <path fill="url(#E)" d="M1.541 0h14.378v1.5H1.541z" transform="rotate(-30 233.237 -94.55)"/>
                    <path fill="#FFF" d="M92.309 95.992l3.418-.242-1.918 2.84z"/>
                    <path fill="#4A5F6E" d="M94.018 95.87l1.71-.12-.96 1.42z"/>
                </g>
                <path fill="url(#F)" d="M47 144h-9v-13.35c0-2.568 2.015-4.65 4.5-4.65s4.5 2.082 4.5 4.65V144z"/>
                <path fill="url(#G)" d="M30 144h-4v-5.933c0-1.142.896-2.067 2-2.067s2 .925 2 2.067V144zM106 144h-4v-5.933c0-1.142.896-2.067 2-2.067s2 .925 2 2.067V144z"/>
                <g>
                    <path fill="url(#F)" d="M9 18H0V4.65C0 2.082 2.015 0 4.5 0S9 2.082 9 4.65V18z" transform="translate(89 126)"/>
                </g>
                <circle cx="242" cy="102" r="2" fill="#2EE3AA"/>
                <circle cx="325.889" cy="99.389" r="2" fill="#8BDCFB"/>
                <g>
                    <path fill="#326BEE" fill-rule="nonzero" d="M187 32l8 8v40h-62V32h54z"/>
                    <path fill="#FFF" fill-rule="nonzero" d="M137 38h54v36h-54z"/>
                    <path fill="url(#H)" d="M13.202 35c10.656-.875 19.3-3.86 24.56-12.747 5.258-8.888 11.65-7.254 15.243-7.254V35H13.202z" transform="translate(133 32)"/>
                    <path fill="#EEF2F5" fill-rule="nonzero" d="M144 44a1 1 0 0 1 1 1v26a1 1 0 0 1-2 0V45a1 1 0 0 1 1-1z"/>
                    <path fill="#EEF2F5" fill-rule="nonzero" d="M142 67h44a1 1 0 0 1 0 2h-44a1 1 0 0 1 0-2z"/>
                    <path fill="#2F88EC" fill-rule="nonzero" d="M195 40h-8v-8z"/>
                    <path fill="#FFD560" fill-rule="nonzero" d="M146 66.987c.5 0 .905.002 1.787.008 5.219.032 7.436-.077 10.15-.7 3.61-.829 6.612-2.52 9.253-5.414.368-.404.718-.821 1.055-1.254a26.248 26.248 0 0 0 1.726-2.536c.221-.366.44-.738.713-1.213l.662-1.156C174.29 49.628 176.933 48 185.005 48a1 1 0 1 0 0-1.999c-8.81 0-12.1 2.029-15.391 7.722l-.665 1.16a55.12 55.12 0 0 1-.689 1.172 24.298 24.298 0 0 1-1.595 2.347c-.305.392-.62.769-.953 1.133-4.242 4.649-8.052 5.524-17.912 5.462-.887-.005-1.295-.007-1.8-.007a1 1 0 1 0 0 1.998z"/>
                </g>
            </g>
        </g>
    </g>
</svg>
