<svg width="200" height="176" viewBox="0 0 200 176" fill="none" xmlns="http://www.w3.org/2000/svg">
<path d="M11.0447 78.8416C10.9626 77.6768 11.8854 76.6867 13.0531 76.6867H145.95C147.007 76.6867 147.884 77.5041 147.958 78.5585L154.093 165.598C154.175 166.762 153.253 167.752 152.085 167.752H19.188C18.131 167.752 17.254 166.935 17.1797 165.881L11.0447 78.8416Z" fill="#618EF3"/>
<rect x="17.6806" y="162.775" width="164.199" height="4.72532" rx="2.36266" fill="#305BEF" stroke="black" stroke-width="0.503333"/>
<rect x="16.809" y="162.775" width="59.1905" height="4.72532" rx="2.36266" fill="#305BEF" stroke="black" stroke-width="0.503333"/>
<path d="M17.429 81.9152L143.228 81.9152L148.581 156.859H22.7821L17.429 81.9152Z" fill="white"/>
<path d="M65.2614 133.514L61.7084 86.9598H138.221L141.774 133.514H65.2614Z" stroke="black" stroke-width="0.503333"/>
<path d="M26.159 118.918L23.7997 86.9598H55.9741L58.3335 118.918H26.159Z" stroke="black" stroke-width="0.503333"/>
<path d="M28.7736 154.211L26.4142 122.253H58.5886L60.948 154.211H28.7736Z" stroke="black" stroke-width="0.503333"/>
<path d="M95.423 102.999L95.9857 101.874C95.5531 101.657 95.0348 101.708 94.6524 102.004L95.423 102.999ZM125.052 117.814L124.489 118.939C124.947 119.168 125.498 119.097 125.882 118.759L125.052 117.814ZM165.523 83.4735C165.568 82.7801 165.042 82.1813 164.349 82.1361L153.048 81.4006C152.354 81.3554 151.755 81.881 151.71 82.5745C151.665 83.268 152.191 83.8668 152.884 83.9119L162.93 84.5658L162.276 94.6112C162.231 95.3047 162.756 95.9034 163.45 95.9486C164.143 95.9937 164.742 95.4681 164.787 94.7746L165.523 83.4735ZM73.9717 121.205L96.1935 103.994L94.6524 102.004L72.4307 119.215L73.9717 121.205ZM94.8602 104.125L124.489 118.939L125.615 116.688L95.9857 101.874L94.8602 104.125ZM125.882 118.759L165.097 84.3375L163.437 82.4461L124.222 116.868L125.882 118.759Z" fill="#2EAA77"/>
<path fill-rule="evenodd" clip-rule="evenodd" d="M77.1224 28.7249C79.765 25.83 81.48 21.1653 81.48 15.9038C81.48 10.6424 79.765 5.97767 77.1224 3.08272V0H70.8048H70.5866V0.00325652C64.7916 0.176365 60.1296 7.22901 60.1296 15.9038C60.1296 24.5787 64.7916 31.6313 70.5866 31.8044V31.8077H70.8048H77.1224V28.7249Z" fill="#F0B616"/>
<path d="M86.8924 15.9038C86.8924 20.2525 85.7088 24.1781 83.8084 27.0093C81.9069 29.8421 79.3072 31.556 76.4689 31.556C73.6305 31.556 71.0308 29.8421 69.1293 27.0093C67.2289 24.1781 66.0454 20.2525 66.0454 15.9038C66.0454 11.5552 67.2289 7.62959 69.1293 4.79838C71.0308 1.96558 73.6305 0.251667 76.4689 0.251667C79.3072 0.251667 81.9069 1.96558 83.8084 4.79838C85.7088 7.62959 86.8924 11.5552 86.8924 15.9038Z" fill="#F0B616" stroke="black" stroke-width="0.503333"/>
<rect x="70.8709" y="12.128" width="3.41816" height="14.7469" transform="rotate(-40.9933 70.8709 12.128)" fill="#F0B616" stroke="black" stroke-width="0.503333"/>
<path fill-rule="evenodd" clip-rule="evenodd" d="M128.102 51.1698C133.65 49.1914 137.688 43.1243 137.688 35.9465C137.688 28.7687 133.65 22.7016 128.102 20.7232V20.0428H124.245C124.223 20.0427 124.202 20.0427 124.181 20.0427C124.16 20.0427 124.139 20.0427 124.117 20.0428H123.745V20.0508C116.487 20.3217 110.674 27.3348 110.674 35.9465C110.674 44.5582 116.487 51.5712 123.745 51.8422V51.8505H128.102V51.1698Z" fill="#F0B616"/>
<path d="M141.794 35.9467C141.794 44.6312 135.822 51.5988 128.538 51.5988C121.254 51.5988 115.282 44.6312 115.282 35.9467C115.282 27.2621 121.254 20.2945 128.538 20.2945C135.822 20.2945 141.794 27.2621 141.794 35.9467Z" fill="#F0B616" stroke="black" stroke-width="0.503333"/>
<rect x="124.077" y="30.4678" width="3.41816" height="14.7469" transform="rotate(-23.7904 124.077 30.4678)" fill="#F0B616" stroke="black" stroke-width="0.503333"/>
<circle cx="92.8084" cy="76.6867" r="16.5574" fill="#F0B616"/>
<circle cx="92.8083" cy="76.687" r="13.6914" stroke="black" stroke-width="0.503333"/>
<rect x="87.4236" y="71.3735" width="3.41816" height="14.7469" transform="rotate(-30 87.4236 71.3735)" fill="#F0B616" stroke="black" stroke-width="0.503333"/>
<circle cx="177.338" cy="121.566" r="16.5574" fill="#F0B616"/>
<circle cx="177.338" cy="121.566" r="13.6914" stroke="black" stroke-width="0.503333"/>
<rect x="171.953" y="116.252" width="3.41816" height="14.7469" transform="rotate(-30 171.953 116.252)" fill="#F0B616" stroke="black" stroke-width="0.503333"/>
<rect x="0.251667" y="167.568" width="199.493" height="7.33965" fill="white" stroke="black" stroke-width="0.503333"/>
<rect x="0.251667" y="167.568" width="80.9766" height="7.33965" fill="white" stroke="black" stroke-width="0.503333"/>
<path d="M31.8074 102.176H37.202L38.1841 113.308H32.7895L31.8074 102.176Z" fill="#C4C4C4"/>
<path d="M38.3433 98.6905H43.3783L44.6578 113.308H39.6228L38.3433 98.6905Z" fill="#C4C4C4"/>
<path d="M44.8548 94.2466H49.8898L51.4908 113.308H46.4558L44.8548 94.2466Z" fill="#C4C4C4"/>
<path d="M27.6682 93.2441L29.1932 115.466H54.7279" stroke="black" stroke-width="0.503333"/>
<path d="M51.1177 136.842C51.7983 141.76 48.827 146.198 44.5531 146.81C40.2791 147.423 36.2195 143.993 35.5389 139.075C34.8584 134.156 37.8296 129.718 42.1035 129.106C46.3775 128.493 50.4371 131.923 51.1177 136.842Z" stroke="black" stroke-width="0.503333"/>
<mask id="path-28-inside-1_465_35002" fill="white">
<path fill-rule="evenodd" clip-rule="evenodd" d="M44.6531 128.951L43.0256 138.409L51.0147 135.2C50.0321 131.971 47.56 129.588 44.6531 128.951Z"/>
</mask>
<path d="M43.0256 138.409L42.5295 138.323L42.3767 139.211L43.2131 138.876L43.0256 138.409ZM44.6531 128.951L44.7607 128.46L44.2463 128.347L44.157 128.866L44.6531 128.951ZM51.0147 135.2L51.2023 135.667L51.6306 135.495L51.4962 135.054L51.0147 135.2ZM43.5216 138.494L45.1491 129.037L44.157 128.866L42.5295 138.323L43.5216 138.494ZM50.8271 134.733L42.838 137.941L43.2131 138.876L51.2023 135.667L50.8271 134.733ZM44.5454 129.443C47.2534 130.036 49.597 132.27 50.5332 135.347L51.4962 135.054C50.4672 131.672 47.8666 129.14 44.7607 128.46L44.5454 129.443Z" fill="black" mask="url(#path-28-inside-1_465_35002)"/>
</svg>
