<svg width="351" height="152" viewBox="0 0 351 152" fill="none" xmlns="http://www.w3.org/2000/svg">
<path fill-rule="evenodd" clip-rule="evenodd" d="M91 144C91 72.203 149.203 14 221 14C292.797 14 351 72.203 351 144H91Z" fill="url(#paint0_linear)"/>
<path fill-rule="evenodd" clip-rule="evenodd" d="M0 144C0 144 12.752 128.215 31.8516 140C31.8516 140 54.7808 65.1333 88.2606 135.812C88.2606 135.812 106.524 112.455 126 144H0Z" fill="url(#paint1_linear)"/>
<path fill-rule="evenodd" clip-rule="evenodd" d="M60 144H51V124.65C51 122.082 53.0149 120 55.5 120C57.9851 120 60 122.082 60 124.65V144Z" fill="url(#paint2_linear)"/>
<path d="M140.299 36.2063C140.672 33.878 142.681 32.1653 145.038 32.1653H318.813C321.767 32.1653 324.019 34.8077 323.552 37.7242L305.253 152H121.757L140.299 36.2063Z" fill="url(#paint3_linear)"/>
<path d="M149.127 41L133.009 144.413H297.072L313.191 41H149.127Z" fill="white"/>
<path fill-rule="evenodd" clip-rule="evenodd" d="M155.569 122.587C165.18 122.538 171.388 110.587 177.407 110.513C183.426 110.439 180.031 130.096 187.466 129.971C194.901 129.847 202.177 114.826 209.623 114.803C217.069 114.779 210.739 123.964 219.884 123.909C229.028 123.854 233.712 101.617 241.238 101.617C248.763 101.617 242.979 111.641 250.746 111.619C258.514 111.597 263.288 84 272.983 84C282.679 84 273.456 117.186 282.707 117.212C291.958 117.239 290.653 105.022 298.431 105.062C306.208 105.101 302.935 122.237 314.604 122.165H317L313 144H133L137 116.826C137 116.826 145.958 122.637 155.569 122.587Z" fill="url(#paint4_linear)"/>
<rect x="77.3818" y="144" width="227.872" height="8" rx="4" fill="#AFC7D1"/>
<path d="M209.307 148C209.307 145.791 211.098 144 213.307 144H306.722L305.975 148.067C305.557 150.345 303.571 152 301.254 152H213.307C211.098 152 209.307 150.209 209.307 148Z" fill="#4A5F6E"/>
<path fill-rule="evenodd" clip-rule="evenodd" d="M72.6334 145.725H69.2418L69.4064 147.491H72.6334V145.725Z" fill="#F7A79A"/>
<path fill-rule="evenodd" clip-rule="evenodd" d="M73.0276 146.857C70.3291 146.857 68.9872 146.857 68.9872 146.857C68.7044 148.987 68.9872 151.716 68.9872 151.716H83.4716C83.4716 151.716 83.4716 151.008 82.2802 150.353C82.2802 150.353 75.7261 146.857 73.0276 146.857Z" fill="url(#paint5_linear)"/>
<path fill-rule="evenodd" clip-rule="evenodd" d="M81.6726 107.501C80.9553 107.501 80.5189 107.05 80.1926 106.284C79.8664 105.518 79.5819 103.886 79.6223 103.243C79.4203 103.644 78.3198 104.853 77.835 104.692C77.2289 104.491 79.6627 102.085 79.6223 100.236C81.0402 100.004 82.4154 99.3177 82.4154 99.3177C82.4154 99.3177 83.6915 99.5789 83.178 103.756C83.178 103.756 82.3899 107.501 81.6726 107.501Z" fill="url(#paint6_linear)"/>
<path fill-rule="evenodd" clip-rule="evenodd" d="M74.593 75.2483C68.5728 78.9051 73.1844 87.3521 73.1844 87.3521C73.1844 87.3521 78.9451 98.9103 79.6223 100.236C81.2901 99.9815 81.6609 99.9815 82.5902 99.4591C82.0865 96.7865 77.7041 79.6686 76.088 75.7707L75.3607 74.083L74.593 75.2483Z" fill="url(#paint7_linear)"/>
<path fill-rule="evenodd" clip-rule="evenodd" d="M58.3102 101.314C58.4315 101.636 58.5931 101.957 58.7951 102.279C58.8355 102.359 58.8759 102.479 58.9567 102.56L58.3102 101.314Z" fill="#1A4278"/>
<path fill-rule="evenodd" clip-rule="evenodd" d="M57.3404 97.9787C56.5727 94.8846 56.7343 92.6343 56.7343 92.6343L57.4212 86.7674L74.4313 88.857L74.9566 94.6435C74.9566 94.6435 76.4298 105.65 75.893 118.944C75.3562 132.237 72.6334 145.725 72.6334 145.725H69.2418C69.2418 145.725 66.3783 110.083 62.5929 103.736L57.3404 97.9787Z" fill="url(#paint8_linear)"/>
<path fill-rule="evenodd" clip-rule="evenodd" d="M56.0178 98.7374C56.0178 94.8894 56.9365 89.6607 56.9365 89.6607H74.6334C74.6334 89.6607 71.3193 106.342 68.3244 119.686C65.3295 133.029 60.7317 145.725 60.7317 145.725H57.583C57.583 145.725 57.7028 135.348 57.583 127.233C57.554 125.271 58.5701 120.898 58.5701 117.693C58.5701 114.488 56.0178 98.7374 56.0178 98.7374Z" fill="url(#paint9_linear)"/>
<path fill-rule="evenodd" clip-rule="evenodd" d="M52.7522 65.6954C52.2036 67.4252 51.4819 76.0328 51.078 78.9298C50.2469 84.8917 56.3313 86.2164 56.3313 86.2164C56.3313 86.2164 56.3313 89.0023 56.3313 89.6607C65.2 91.4437 75.2805 89.6607 75.2805 89.6607C75.2805 89.6607 75.0326 84.5496 75.2805 82.0772C75.8299 76.5988 76.3148 71.7095 76.0364 68.4054C75.4303 61.2124 72.0475 61.2908 70.4718 60.246C68.9364 59.2414 62.0273 58.4779 62.0273 58.4779C62.0273 58.4779 54.6916 59.7482 52.7522 65.6954Z" fill="url(#paint10_linear)"/>
<path fill-rule="evenodd" clip-rule="evenodd" d="M60.7317 145.725H57.583C57.583 145.725 57.6638 146.094 57.583 147.22H61.2873L60.7317 145.725Z" fill="#F7A79A"/>
<path fill-rule="evenodd" clip-rule="evenodd" d="M61.2377 147.022H57.4636C56.812 149.084 56.7102 151.676 56.9527 151.716C57.3567 151.756 69.5588 151.716 69.5588 151.716C69.5588 151.716 69.2922 151.182 68.681 150.433C68.0697 149.684 61.2377 147.022 61.2377 147.022Z" fill="url(#paint11_linear)"/>
<path fill-rule="evenodd" clip-rule="evenodd" d="M62.8758 60.1655C62.7142 60.0048 62.4314 59.7235 62.2294 59.3216C62.1082 59.0403 62.0273 58.7992 62.0273 58.5983C62.189 58.1563 62.189 57.8348 62.189 57.8348C62.189 57.8348 62.2698 55.1023 62.189 55.0219C62.189 55.0219 68.4112 54.4594 68.2496 57.2722C68.1688 58.6787 68.7344 59.4824 69.3001 59.9244L69.4213 60.0048C69.5021 60.2057 69.5829 60.6075 69.5829 61.0495C69.0981 61.3308 68.0475 61.813 66.6738 61.7729C64.6132 61.6523 63.2395 60.487 62.8758 60.1655Z" fill="url(#paint12_linear)"/>
<path fill-rule="evenodd" clip-rule="evenodd" d="M68.2899 57.0312C68.2899 57.0312 65.4212 58.8395 62.3101 56.5892L62.2697 54.8211C62.2697 54.8211 68.8556 53.8969 68.2899 57.0312Z" fill="#F8AB60"/>
<path fill-rule="evenodd" clip-rule="evenodd" d="M70.7546 47.9094C70.7546 47.9094 72.088 55.8658 69.5021 56.9106C66.9162 57.9554 62.8758 56.3079 60.7748 53.2539C58.6738 50.1597 61.4617 47.4674 62.9567 51.2849V45.6993L70.7546 47.9094Z" fill="url(#paint13_linear)"/>
<mask id="mask0" mask-type="alpha" maskUnits="userSpaceOnUse" x="58" y="41" width="16" height="11">
<path fill-rule="evenodd" clip-rule="evenodd" d="M58.7608 41.1382H73.0545V51.968H58.7608V41.1382Z" fill="white"/>
</mask>
<g mask="url(#mask0)">
<path fill-rule="evenodd" clip-rule="evenodd" d="M60.1687 51.968C59.7647 49.7579 61.8657 48.5926 63.1182 51.6466V46.1413C63.1182 46.1413 71.199 51.6064 72.7748 45.9002C72.896 45.5386 73.4212 43.7705 72.6131 42.5248C71.7243 41.1585 69.3404 40.6361 66.997 41.7211C66.6333 41.5604 63.5222 40.4754 61.1788 42.0827C58.6333 43.8107 57.7849 48.1907 60.1687 51.968Z" fill="#1C2C36"/>
</g>
<path fill-rule="evenodd" clip-rule="evenodd" d="M63.6312 61.7752C63.6312 61.7752 64.1512 60.6439 65.0576 58.6386C65.098 58.3975 65.502 54.8613 66.1081 55.1024C66.7545 55.3435 66.3101 57.1116 66.3101 57.1116C66.5525 56.8705 66.8353 56.6294 67.0778 56.4686C69.0172 55.1425 71.3137 55.0193 71.7242 55.8257C72.1348 56.632 71.0983 58.6386 69.5829 60.1063C68.0675 61.574 65.5585 62.979 65.5585 62.979L63.6312 61.7752Z" fill="url(#paint14_linear)"/>
<path fill-rule="evenodd" clip-rule="evenodd" d="M51.4011 83.3919C51.684 84.4366 52.0476 85.4814 52.7749 86.2449C53.5425 87.0084 54.7547 87.4103 55.684 86.8879C56.29 86.5664 56.6537 85.9636 57.0173 85.3609C57.8658 83.8741 58.5526 82.3069 59.2799 80.6995C61.5829 75.5158 65.5585 62.9789 65.5585 62.9789L63.6312 61.7752C63.6312 61.7752 56.2433 72.1001 54.8291 73.0244C51.3948 75.3149 50.5122 80.0164 51.4011 83.3919Z" fill="url(#paint15_linear)"/>
<path d="M295.583 111.04C304.492 111.04 310.856 111.04 310.856 111.04C310.856 111.04 337.775 141.539 328.674 152C323.682 152 287.727 152 277.765 152C268.94 141.857 282.965 125.543 295.583 111.04Z" fill="url(#paint16_linear)"/>
<path d="M304.273 140.084C296.297 144.897 277.69 151.913 277.69 151.913C269.02 141.763 283.001 125.501 295.583 111.04H310.856C315.367 116.151 319.119 120.84 322.113 125.107C322.113 125.107 311.104 135.961 304.273 140.084Z" fill="url(#paint17_linear)"/>
<path fill-rule="evenodd" clip-rule="evenodd" d="M303 146.88C311.435 146.88 318.273 140.576 318.273 132.8C318.273 125.024 311.435 118.72 303 118.72C294.565 118.72 287.727 125.024 287.727 132.8C287.727 140.576 294.565 146.88 303 146.88Z" fill="white"/>
<path d="M312.545 135.182C312.545 137.291 308.394 139 303.273 139C298.152 139 294 137.291 294 135.182V131.364H312.545V135.182Z" fill="#FFC72C"/>
<path d="M303.273 134.636C308.394 134.636 312.545 132.927 312.545 130.818C312.545 128.709 308.394 127 303.273 127C298.152 127 294 128.709 294 130.818C294 132.927 298.152 134.636 303.273 134.636Z" fill="url(#paint18_linear)"/>
<path d="M292.818 108.48C292.818 107.066 293.964 105.92 295.378 105.92H310.622C312.036 105.92 313.182 107.066 313.182 108.48C313.182 109.894 312.036 111.04 310.622 111.04H295.378C293.964 111.04 292.818 109.894 292.818 108.48Z" fill="#FFD560"/>
<path d="M290.273 90.56L303 88L315.727 90.56L310.636 105.92H295.364L290.273 90.56Z" fill="url(#paint19_linear)"/>
<path d="M291.545 93.12L287.727 94.4L295.364 105.92L291.545 93.12Z" fill="#92F1D3"/>
<path d="M314.455 93.12L318.273 94.4L310.636 105.92L314.455 93.12Z" fill="#1ACC94"/>
<path opacity="0.4" d="M303 88L315.727 90.56L310.636 105.92H303V88Z" fill="url(#paint20_linear)"/>
<path d="M303.207 109.126C303.305 108.426 303.949 107.938 304.645 108.037C305.341 108.136 305.826 108.783 305.727 109.483C305.716 109.567 305.696 109.746 305.675 110.004C305.527 111.851 305.632 113.937 306.174 115.874C306.699 117.752 307.583 119.251 308.877 120.273C309.43 120.71 309.526 121.515 309.092 122.071C308.658 122.627 307.857 122.723 307.305 122.287C305.543 120.895 304.384 118.93 303.723 116.567C303.087 114.292 302.967 111.922 303.138 109.798C303.163 109.487 303.188 109.258 303.207 109.126Z" fill="#FFD560"/>
<path d="M306.007 110.172C305.782 109.502 306.139 108.776 306.805 108.549C307.471 108.323 308.193 108.682 308.418 109.352C309.67 113.073 312.433 114.88 317 114.88C317.703 114.88 318.273 115.453 318.273 116.16C318.273 116.867 317.703 117.44 317 117.44C311.385 117.44 307.624 114.981 306.007 110.172Z" fill="#FFD560"/>
<path d="M319.061 87.7175C318.475 87.1317 318.475 86.182 319.061 85.5962L322.596 82.0607C323.182 81.4749 324.132 81.4749 324.718 82.0607C325.303 82.6465 325.303 83.5962 324.718 84.182L321.182 87.7175C320.596 88.3033 319.646 88.3033 319.061 87.7175Z" fill="#8BDCFB"/>
<path d="M323.13 92.2572C322.847 91.4787 323.248 90.618 324.027 90.3346L328.725 88.6245C329.504 88.3412 330.365 88.7426 330.648 89.521C330.931 90.2995 330.53 91.1603 329.751 91.4436L325.053 93.1537C324.274 93.437 323.414 93.0357 323.13 92.2572Z" fill="#8BDCFB"/>
<path fill-rule="evenodd" clip-rule="evenodd" d="M147.389 105.203C147.539 103.946 148.605 103 149.871 103H200.787C202.285 103 203.447 104.309 203.269 105.797C203.119 107.054 202.053 108 200.787 108H149.871C148.372 108 147.211 106.691 147.389 105.203ZM145.389 115.203C145.539 113.946 146.605 113 147.871 113H182.787C184.285 113 185.447 114.309 185.269 115.797C185.119 117.054 184.053 118 182.787 118H147.871C146.372 118 145.211 116.691 145.389 115.203ZM146.871 123C145.605 123 144.539 123.946 144.389 125.203C144.211 126.691 145.372 128 146.871 128H168.787C170.053 128 171.119 127.054 171.269 125.797C171.447 124.309 170.285 123 168.787 123H146.871Z" fill="url(#paint21_linear)"/>
<path fill-rule="evenodd" clip-rule="evenodd" d="M143 0H89V48H151V8L143 0Z" fill="white"/>
<path fill-rule="evenodd" clip-rule="evenodd" d="M143 0H89V48H151V8L143 0Z" fill="#AFC7D1" fill-opacity="0.5"/>
<rect x="93" y="6" width="54" height="36" fill="white"/>
<path d="M99 13C99 12.4477 99.4477 12 100 12C100.552 12 101 12.4477 101 13V39C101 39.5523 100.552 40 100 40C99.4477 40 99 39.5523 99 39V13Z" fill="#EEF2F5"/>
<path d="M97 36C97 35.4477 97.4477 35 98 35L142 35C142.552 35 143 35.4477 143 36C143 36.5523 142.552 37 142 37H98C97.4477 37 97 36.5523 97 36Z" fill="#EEF2F5"/>
<path fill-rule="evenodd" clip-rule="evenodd" d="M101 27.75L106.034 24.5747H113.65L120.037 20.8622H130.663L141.237 16.4792V35H101V27.75Z" fill="url(#paint22_linear)"/>
<path fill-rule="evenodd" clip-rule="evenodd" d="M141 18C141.552 18 142 17.5523 142 17C142 16.4477 141.552 16 141 16C140.448 16 140 16.4477 140 17C140 17.5523 140.448 18 141 18Z" fill="#FFC72C"/>
<path fill-rule="evenodd" clip-rule="evenodd" d="M131 22C131.552 22 132 21.5523 132 21C132 20.4477 131.552 20 131 20C130.448 20 130 20.4477 130 21C130 21.5523 130.448 22 131 22Z" fill="#FFC72C"/>
<path fill-rule="evenodd" clip-rule="evenodd" d="M120 22C120.552 22 121 21.5523 121 21C121 20.4477 120.552 20 120 20C119.448 20 119 20.4477 119 21C119 21.5523 119.448 22 120 22Z" fill="#FFC72C"/>
<path fill-rule="evenodd" clip-rule="evenodd" d="M114 26C114.552 26 115 25.5523 115 25C115 24.4477 114.552 24 114 24C113.448 24 113 24.4477 113 25C113 25.5523 113.448 26 114 26Z" fill="#FFC72C"/>
<path fill-rule="evenodd" clip-rule="evenodd" d="M106 26C106.552 26 107 25.5523 107 25C107 24.4477 106.552 24 106 24C105.448 24 105 24.4477 105 25C105 25.5523 105.448 26 106 26Z" fill="#FFC72C"/>
<path d="M151 8H143V0L151 8Z" fill="#AFC7D1"/>
<path fill-rule="evenodd" clip-rule="evenodd" d="M241 0H187V48H249V8L241 0Z" fill="white"/>
<path fill-rule="evenodd" clip-rule="evenodd" d="M241 0H187V48H249V8L241 0Z" fill="#AFC7D1" fill-opacity="0.5"/>
<rect x="191" y="6" width="54" height="36" fill="white"/>
<path fill-rule="evenodd" clip-rule="evenodd" d="M217 24C217 29.5228 212.523 34 207 34C201.477 34 197 29.5228 197 24C197 18.4772 201.477 14 207 14V24H217Z" fill="url(#paint23_linear)"/>
<path fill-rule="evenodd" clip-rule="evenodd" d="M207 14C212.523 14 217 18.4772 217 24H207V14Z" fill="#FFC72C"/>
<path fill-rule="evenodd" clip-rule="evenodd" d="M207 14C209.306 14 211.429 14.7804 213.121 16.0915C211.088 19 207 24 207 24V14Z" fill="#FFD560"/>
<path d="M221 19C221 18.4477 221.448 18 222 18L238 18C238.552 18 239 18.4477 239 19C239 19.5523 238.552 20 238 20H222C221.448 20 221 19.5523 221 19Z" fill="#AFC7D1" fill-opacity="0.4"/>
<path d="M221 24C221 23.4477 221.448 23 222 23L238 23C238.552 23 239 23.4477 239 24C239 24.5523 238.552 25 238 25H222C221.448 25 221 24.5523 221 24Z" fill="#AFC7D1" fill-opacity="0.4"/>
<path d="M221 29C221 28.4477 221.448 28 222 28L234 28C234.552 28 235 28.4477 235 29C235 29.5523 234.552 30 234 30H222C221.448 30 221 29.5523 221 29Z" fill="#AFC7D1" fill-opacity="0.4"/>
<path d="M249 8H241V0L249 8Z" fill="#AFC7D1"/>
<path fill-rule="evenodd" clip-rule="evenodd" d="M273 86C274.105 86 275 85.1046 275 84C275 82.8954 274.105 82 273 82C271.895 82 271 82.8954 271 84C271 85.1046 271.895 86 273 86Z" fill="#2EE3AA"/>
<path fill-rule="evenodd" clip-rule="evenodd" d="M210 117C211.105 117 212 116.105 212 115C212 113.895 211.105 113 210 113C208.895 113 208 113.895 208 115C208 116.105 208.895 117 210 117Z" fill="#2EE3AA"/>
<rect x="79.8569" y="103.181" width="14.3784" height="3" transform="rotate(-30 79.8569 103.181)" fill="#FFE380"/>
<path d="M78.7728 104.384C78.6347 104.145 78.7166 103.839 78.9558 103.701L79.8569 103.181L81.3569 105.779L80.4558 106.299C80.2166 106.437 79.9108 106.355 79.7728 106.116L78.7728 104.384Z" fill="#4A90E2"/>
<rect x="79.8569" y="103.181" width="14.3784" height="1.5" transform="rotate(-30 79.8569 103.181)" fill="url(#paint24_linear)"/>
<path d="M92.309 95.9915L95.7273 95.75L93.809 98.5895L92.309 95.9915Z" fill="white"/>
<path d="M94.0181 95.8707L95.7273 95.75L94.7681 97.1698L94.0181 95.8707Z" fill="#4A5F6E"/>
<path fill-rule="evenodd" clip-rule="evenodd" d="M47 144H38V130.65C38 128.082 40.0149 126 42.5 126C44.9851 126 47 128.082 47 130.65V144Z" fill="url(#paint25_linear)"/>
<path fill-rule="evenodd" clip-rule="evenodd" d="M30 144H26V138.067C26 136.925 26.8955 136 28 136C29.1045 136 30 136.925 30 138.067V144Z" fill="url(#paint26_linear)"/>
<path fill-rule="evenodd" clip-rule="evenodd" d="M106 144H102V138.067C102 136.925 102.896 136 104 136C105.104 136 106 136.925 106 138.067V144Z" fill="url(#paint27_linear)"/>
<path fill-rule="evenodd" clip-rule="evenodd" d="M98 144H89V130.65C89 128.082 91.0149 126 93.5 126C95.9851 126 98 128.082 98 130.65V144Z" fill="url(#paint28_linear)"/>
<path fill-rule="evenodd" clip-rule="evenodd" d="M242 104C243.105 104 244 103.105 244 102C244 100.895 243.105 100 242 100C240.895 100 240 100.895 240 102C240 103.105 240.895 104 242 104Z" fill="#2EE3AA"/>
<path fill-rule="evenodd" clip-rule="evenodd" d="M325.889 101.389C326.994 101.389 327.889 100.494 327.889 99.3891C327.889 98.2845 326.994 97.3891 325.889 97.3891C324.785 97.3891 323.889 98.2845 323.889 99.3891C323.889 100.494 324.785 101.389 325.889 101.389Z" fill="#8BDCFB"/>
<path fill-rule="evenodd" clip-rule="evenodd" d="M187 32H133V80H195V40L187 32Z" fill="#326BEE"/>
<rect x="137" y="38" width="54" height="36" fill="white"/>
<path fill-rule="evenodd" clip-rule="evenodd" d="M146.202 67C156.858 66.1245 165.502 63.1402 170.761 54.2527C176.02 45.3653 182.413 46.9994 186.005 46.9994C186.005 51.6868 186.005 67 186.005 67C186.005 67 153.512 67 146.202 67Z" fill="url(#paint29_linear)"/>
<path d="M143 45C143 44.4477 143.448 44 144 44C144.552 44 145 44.4477 145 45V71C145 71.5523 144.552 72 144 72C143.448 72 143 71.5523 143 71V45Z" fill="#EEF2F5"/>
<path d="M141 68C141 67.4477 141.448 67 142 67L186 67C186.552 67 187 67.4477 187 68C187 68.5523 186.552 69 186 69H142C141.448 69 141 68.5523 141 68Z" fill="#EEF2F5"/>
<path d="M195 40H187V32L195 40Z" fill="#2F88EC"/>
<path d="M146 66.9875C146.5 66.9875 146.905 66.9893 147.787 66.9949C153.006 67.0274 155.223 66.9181 157.938 66.2947C161.546 65.466 164.549 63.7747 167.19 60.8807C167.558 60.4766 167.908 60.06 168.245 59.627C168.85 58.8477 169.397 58.036 169.971 57.0909C170.192 56.7252 170.41 56.3534 170.684 55.8778C170.724 55.8072 171.207 54.9628 171.346 54.7223C174.291 49.6285 176.933 47.9988 185.005 47.9988C185.557 47.9988 186.005 47.5514 186.005 46.9994C186.005 46.4474 185.557 46 185.005 46C176.195 46 172.906 48.0288 169.614 53.7223C169.472 53.968 168.987 54.816 168.949 54.8828C168.683 55.3456 168.473 55.7046 168.26 56.0544C167.724 56.9384 167.218 57.6884 166.665 58.4014C166.36 58.7933 166.044 59.1696 165.712 59.5339C161.47 64.1827 157.66 65.0577 147.8 64.9961C146.913 64.9905 146.505 64.9886 146 64.9886C145.448 64.9886 145 65.4361 145 65.9881C145 66.54 145.448 66.9875 146 66.9875Z" fill="#FFD560"/>
<defs>
<linearGradient id="paint0_linear" x1="221" y1="-51" x2="117" y2="157" gradientUnits="userSpaceOnUse">
<stop stop-color="#CEF2FD"/>
<stop offset="1" stop-color="#E6F7FF"/>
</linearGradient>
<linearGradient id="paint1_linear" x1="63" y1="163.275" x2="84.5706" y2="92.7736" gradientUnits="userSpaceOnUse">
<stop stop-color="#E6F7FF"/>
<stop offset="1" stop-color="#8BDCFB" stop-opacity="0.4"/>
</linearGradient>
<linearGradient id="paint2_linear" x1="46.5" y1="132" x2="62.2808" y2="137.918" gradientUnits="userSpaceOnUse">
<stop stop-color="#8BDCFB"/>
<stop offset="1" stop-color="#8BDCFB"/>
</linearGradient>
<linearGradient id="paint3_linear" x1="222.685" y1="-27.7521" x2="117.481" y2="149.461" gradientUnits="userSpaceOnUse">
<stop stop-color="#7790A3"/>
<stop offset="1" stop-color="#152934"/>
</linearGradient>
<linearGradient id="paint4_linear" x1="178.659" y1="13.2418" x2="154.976" y2="130.132" gradientUnits="userSpaceOnUse">
<stop stop-color="#8BDCFB"/>
<stop offset="1" stop-color="#8BDCFB" stop-opacity="0.01"/>
</linearGradient>
<linearGradient id="paint5_linear" x1="61.5329" y1="149.287" x2="64.4399" y2="158.038" gradientUnits="userSpaceOnUse">
<stop stop-color="#4A5F6E"/>
<stop offset="1" stop-color="#152934"/>
</linearGradient>
<linearGradient id="paint6_linear" x1="77.738" y1="99.3177" x2="77.738" y2="107.501" gradientUnits="userSpaceOnUse">
<stop stop-color="#FDE1BB"/>
<stop offset="1" stop-color="#FABF86"/>
</linearGradient>
<linearGradient id="paint7_linear" x1="87.8942" y1="86.0133" x2="69.6573" y2="78.6164" gradientUnits="userSpaceOnUse">
<stop stop-color="#4A90E2"/>
<stop offset="1" stop-color="#2FB7EC"/>
</linearGradient>
<linearGradient id="paint8_linear" x1="57.2166" y1="89.7979" x2="57.2166" y2="145.725" gradientUnits="userSpaceOnUse">
<stop stop-color="#326BEE"/>
<stop offset="1" stop-color="#326BEE"/>
</linearGradient>
<linearGradient id="paint9_linear" x1="56.0178" y1="89.6607" x2="56.0178" y2="145.725" gradientUnits="userSpaceOnUse">
<stop stop-color="#326BEE"/>
<stop offset="1" stop-color="#1D4BEA"/>
</linearGradient>
<linearGradient id="paint10_linear" x1="38.4413" y1="74.5151" x2="69.5803" y2="98.9" gradientUnits="userSpaceOnUse">
<stop stop-color="#8BDCFB"/>
<stop offset="1" stop-color="#2F88EC"/>
</linearGradient>
<linearGradient id="paint11_linear" x1="50.4692" y1="149.378" x2="53.537" y2="157.665" gradientUnits="userSpaceOnUse">
<stop stop-color="#4A5F6E"/>
<stop offset="1" stop-color="#152934"/>
</linearGradient>
<linearGradient id="paint12_linear" x1="62.0273" y1="54.976" x2="62.0273" y2="61.7752" gradientUnits="userSpaceOnUse">
<stop stop-color="#FDE1BB"/>
<stop offset="1" stop-color="#FABF86"/>
</linearGradient>
<linearGradient id="paint13_linear" x1="60.0187" y1="45.6993" x2="60.0187" y2="57.2248" gradientUnits="userSpaceOnUse">
<stop stop-color="#FDE1BB"/>
<stop offset="1" stop-color="#FABF86"/>
</linearGradient>
<linearGradient id="paint14_linear" x1="67.7229" y1="66.9231" x2="75.6059" y2="58.7453" gradientUnits="userSpaceOnUse">
<stop stop-color="#FABF86"/>
<stop offset="1" stop-color="#F8AB60"/>
</linearGradient>
<linearGradient id="paint15_linear" x1="54.6981" y1="87.124" x2="71.4335" y2="82.344" gradientUnits="userSpaceOnUse">
<stop stop-color="#6BBFF6"/>
<stop offset="1" stop-color="#2F88EC"/>
</linearGradient>
<linearGradient id="paint16_linear" x1="247.013" y1="131.52" x2="286.054" y2="184.871" gradientUnits="userSpaceOnUse">
<stop stop-color="#92F1D3"/>
<stop offset="1" stop-color="#2EE3AA"/>
</linearGradient>
<linearGradient id="paint17_linear" x1="333.698" y1="127.251" x2="276.844" y2="127.251" gradientUnits="userSpaceOnUse">
<stop stop-color="#1ACC94"/>
<stop offset="1" stop-color="#1ACC94" stop-opacity="0.01"/>
</linearGradient>
<linearGradient id="paint18_linear" x1="284.727" y1="130.818" x2="290.104" y2="143.877" gradientUnits="userSpaceOnUse">
<stop stop-color="#FFF0BB"/>
<stop offset="1" stop-color="#FFC72C"/>
</linearGradient>
<linearGradient id="paint19_linear" x1="244.702" y1="87.1447" x2="243.497" y2="151.331" gradientUnits="userSpaceOnUse">
<stop stop-color="#92F1D3"/>
<stop offset="1" stop-color="#2EE3AA"/>
</linearGradient>
<linearGradient id="paint20_linear" x1="296.636" y1="96.96" x2="313.556" y2="108.977" gradientUnits="userSpaceOnUse">
<stop stop-color="#1ACC94"/>
<stop offset="1" stop-color="#2EE3AA"/>
</linearGradient>
<linearGradient id="paint21_linear" x1="173.829" y1="90.5" x2="155.85" y2="132.871" gradientUnits="userSpaceOnUse">
<stop stop-color="#8BDCFB"/>
<stop offset="1" stop-color="#CEF2FD"/>
</linearGradient>
<linearGradient id="paint22_linear" x1="120.39" y1="7.38663" x2="106.738" y2="37.5933" gradientUnits="userSpaceOnUse">
<stop stop-color="#FFE380"/>
<stop offset="1" stop-color="#FFD560"/>
</linearGradient>
<linearGradient id="paint23_linear" x1="187" y1="24" x2="207" y2="44" gradientUnits="userSpaceOnUse">
<stop stop-color="#FFE380"/>
<stop offset="1" stop-color="#FFD560"/>
</linearGradient>
<linearGradient id="paint24_linear" x1="81.7455" y1="102.431" x2="81.5379" y2="105.888" gradientUnits="userSpaceOnUse">
<stop stop-color="#FFE380"/>
<stop offset="1" stop-color="#FFD560"/>
</linearGradient>
<linearGradient id="paint25_linear" x1="33.5" y1="135" x2="47.9" y2="142.2" gradientUnits="userSpaceOnUse">
<stop stop-color="#8BDCFB"/>
<stop offset="1" stop-color="#8BDCFB"/>
</linearGradient>
<linearGradient id="paint26_linear" x1="24" y1="140" x2="30.4" y2="143.2" gradientUnits="userSpaceOnUse">
<stop stop-color="#8BDCFB"/>
<stop offset="1" stop-color="#8BDCFB"/>
</linearGradient>
<linearGradient id="paint27_linear" x1="100" y1="140" x2="106.4" y2="143.2" gradientUnits="userSpaceOnUse">
<stop stop-color="#8BDCFB"/>
<stop offset="1" stop-color="#8BDCFB"/>
</linearGradient>
<linearGradient id="paint28_linear" x1="84.5" y1="135" x2="98.9" y2="142.2" gradientUnits="userSpaceOnUse">
<stop stop-color="#8BDCFB"/>
<stop offset="1" stop-color="#8BDCFB"/>
</linearGradient>
<linearGradient id="paint29_linear" x1="166.103" y1="39.9713" x2="156.928" y2="66.3975" gradientUnits="userSpaceOnUse">
<stop stop-color="#FFE380"/>
<stop offset="1" stop-color="#FFE380" stop-opacity="0.01"/>
</linearGradient>
</defs>
</svg>
