<svg width="40" height="41" viewBox="0 0 40 41" fill="none" xmlns="http://www.w3.org/2000/svg">
<circle cx="20" cy="20.5" r="20" fill="white"/>
<rect x="14" y="11.3779" width="14" height="14" rx="2" fill="#E5ECFF"/>
<path fill-rule="evenodd" clip-rule="evenodd" d="M15.5833 11.479C14.8354 11.479 14.2291 12.0853 14.2291 12.8332V30.1665C14.2291 30.9144 14.8354 31.5207 15.5833 31.5207H26.4166C27.1645 31.5207 27.7708 30.9144 27.7708 30.1665V12.8332C27.7708 12.0853 27.1645 11.479 26.4166 11.479H15.5833ZM12.6041 12.8332C12.6041 11.1878 13.9379 9.854 15.5833 9.854H26.4166C28.062 9.854 29.3958 11.1878 29.3958 12.8332V30.1665C29.3958 31.8119 28.062 33.1457 26.4166 33.1457H15.5833C13.9379 33.1457 12.6041 31.8119 12.6041 30.1665V12.8332Z" fill="#ADC0FD"/>
<path fill-rule="evenodd" clip-rule="evenodd" d="M20.1875 27.9998C20.1875 27.5511 20.5512 27.1873 21 27.1873H21.0108C21.4595 27.1873 21.8233 27.5511 21.8233 27.9998C21.8233 28.4486 21.4595 28.8123 21.0108 28.8123H21C20.5512 28.8123 20.1875 28.4486 20.1875 27.9998Z" fill="#ADC0FD"/>
</svg>
