<svg width="56" height="56" viewBox="0 0 56 56" fill="none" xmlns="http://www.w3.org/2000/svg">
<circle cx="28" cy="28" r="28" fill="white"/>
<path d="M22.3821 25.219H33.7959C47.206 40.4121 51.6448 50.7888 47.1116 56H9.0664C2.47128 48.42 12.9527 36.056 22.3821 25.2175V25.219Z" fill="#8CACF6"/>
<rect x="41" y="46" width="11.3818" height="3.33334" rx="1" fill="#FFC72C"/>
<rect x="41" y="49.3332" width="11.3818" height="3.33334" rx="1" fill="#FFC72C"/>
<rect x="41" y="52.6667" width="11.3818" height="3.33334" rx="1" fill="#FFC72C"/>
<rect x="42.1382" y="48.7777" width="9.10543" height="0.555557" fill="#E4AB0F"/>
<rect x="42.1382" y="52.111" width="9.10543" height="0.555557" fill="#E4AB0F"/>
<path d="M28 53C34.0751 53 39 48.0751 39 42C39 35.9249 34.0751 31 28 31C21.9249 31 17 35.9249 17 42C17 48.0751 21.9249 53 28 53Z" fill="#F8FAFB"/>
<path d="M28 50C32.4183 50 36 46.4183 36 42C36 37.5817 32.4183 34 28 34C23.5817 34 20 37.5817 20 42C20 46.4183 23.5817 50 28 50Z" fill="white"/>
<path d="M28 50C32.4183 50 36 46.4183 36 42C36 37.5817 32.4183 34 28 34C23.5817 34 20 37.5817 20 42C20 46.4183 23.5817 50 28 50Z" fill="#2EE3AA" fill-opacity="0.4"/>
<path d="M27.0877 43.0202L25.1501 40.9889L25.15 40.9887C24.8411 40.6656 24.3364 40.6653 24.0278 40.9889L24.0278 40.9889L24.0266 40.9901C23.881 41.1455 23.8 41.3505 23.8 41.5635C23.8 41.7764 23.881 41.9814 24.0266 42.1368L24.0266 42.1368L24.0279 42.1381L26.5263 44.7574L26.5264 44.7576C26.8353 45.0807 27.34 45.081 27.6485 44.7574L31.8131 40.3918L31.8133 40.3916C32.1163 40.0731 32.1165 39.5608 31.8131 39.2426L31.813 39.2425C31.5041 38.9193 30.9993 38.9191 30.6908 39.2426L27.0877 43.0202Z" fill="#1ACC94" stroke="#1ACC94" stroke-width="0.4"/>
<path d="M22.2295 21.3921H33.6205C34.1278 21.3921 34.6144 21.5936 34.9731 21.9523C35.3319 22.3111 35.5334 22.7976 35.5334 23.3049C35.5334 23.8123 35.3319 24.2988 34.9731 24.6575C34.6144 25.0163 34.1278 25.2178 33.6205 25.2178H22.2295C21.7222 25.2178 21.2357 25.0163 20.8769 24.6575C20.5182 24.2988 20.3167 23.8123 20.3167 23.3049C20.3167 22.7976 20.5182 22.3111 20.8769 21.9523C21.2357 21.5936 21.7222 21.3921 22.2295 21.3921Z" fill="#FFC72C"/>
<path d="M18.4141 9.91288L27.9254 8L37.4359 9.91288L33.6315 21.3916H22.2199L18.4141 9.91288Z" fill="#C3D4FA"/>
<path d="M19.2871 11.9926L16.5129 12.7828L22.2191 21.3918L19.2871 11.9926Z" fill="#C3D4FA"/>
<path d="M36.6498 11.9926L39.3388 12.7828L33.6318 21.3918L36.6498 11.9926Z" fill="#C3D4FA"/>
<path opacity="0.4" d="M27.9255 8L37.4361 9.91288L33.6317 21.3916H27.9255V8Z" fill="#C3D4FA"/>
<path d="M28.0789 23.7866C28.0959 23.6625 28.1371 23.543 28.2004 23.4349C28.2636 23.3268 28.3476 23.2322 28.4474 23.1566C28.5473 23.081 28.6611 23.0259 28.7823 22.9944C28.9035 22.9629 29.0297 22.9556 29.1538 22.9729C29.6738 23.0467 30.0361 23.5306 29.963 24.0537C29.9542 24.1164 29.9387 24.2499 29.9232 24.4432C29.8125 25.8234 29.8915 27.3822 30.2965 28.8296C30.6882 30.2335 31.3492 31.3533 32.3163 32.1176C32.7294 32.4437 32.801 33.0449 32.4771 33.4602C32.1525 33.8756 31.555 33.9478 31.1419 33.6218C29.8251 32.5816 28.9583 31.1136 28.4647 29.3475C27.9897 27.6471 27.9004 25.8766 28.0273 24.289C28.0457 24.0566 28.0649 23.8862 28.0789 23.7866Z" fill="#FFC72C"/>
<path d="M30.1722 24.5694C30.0909 24.3295 30.1081 24.0672 30.2198 23.8399C30.3315 23.6126 30.5287 23.4388 30.7682 23.3566C30.8868 23.3166 31.012 23.3004 31.1368 23.3089C31.2616 23.3174 31.3835 23.3504 31.4955 23.4062C31.6075 23.4619 31.7074 23.5392 31.7894 23.6336C31.8715 23.728 31.9341 23.8377 31.9737 23.9564C32.9091 26.7375 34.9739 28.0876 38.3866 28.0876C38.9118 28.0876 39.3382 28.5154 39.3382 29.0444C39.3382 29.5726 38.9118 30.0004 38.3866 30.0004C34.1912 30.0004 31.3805 28.1635 30.1722 24.5694Z" fill="#FFC72C"/>
</svg>
