<svg width="48" height="48" viewBox="0 0 48 48" fill="none" xmlns="http://www.w3.org/2000/svg">
<path fill-rule="evenodd" clip-rule="evenodd" d="M24 48C37.2548 48 48 37.2548 48 24C48 10.7452 37.2548 0 24 0C10.7452 0 0 10.7452 0 24C0 37.2548 10.7452 48 24 48Z" fill="#ECF2FE"/>
<mask id="mask0" mask-type="alpha" maskUnits="userSpaceOnUse" x="0" y="0" width="48" height="48">
<path fill-rule="evenodd" clip-rule="evenodd" d="M24 48C37.2548 48 48 37.2548 48 24C48 10.7452 37.2548 0 24 0C10.7452 0 0 10.7452 0 24C0 37.2548 10.7452 48 24 48Z" fill="white"/>
</mask>
<g mask="url(#mask0)">
<path fill-rule="evenodd" clip-rule="evenodd" d="M11.3684 10C17.5412 10 23.714 10 27.5836 10C29.7927 10 31.5791 11.7909 31.5791 14V36.3367H21.4734L18.1049 33.0099L14.7365 36.3367L11.3682 33.0099L8 36.3367C8 36.3367 8 14.3369 8 13.3267C8 11.6634 9.29632 10 11.3684 10Z" fill="#305BEF"/>
<path d="M20.6315 23.3663C20.6315 22.2618 21.5269 21.3663 22.6315 21.3663H38C39.1046 21.3663 40 22.2618 40 23.3663V36C40 37.1046 39.1046 38 38 38H22.6315C21.5269 38 20.6315 37.1046 20.6315 36V23.3663Z" fill="#C3D4FA"/>
<path d="M34.9473 21.3663H37.9999C39.1045 21.3663 39.9999 22.2618 39.9999 23.3663V36C39.9999 37.1046 39.1045 38 37.9999 38H34.9473V21.3663Z" fill="#8CACF6"/>
<path d="M24.8419 21.3663L31.579 21.3663V26.3564L29.8948 25.5248L28.2256 26.3564L26.5263 25.5248L24.8419 26.3564V21.3663Z" fill="#8CACF6"/>
<rect x="29.0525" y="33.0099" width="5.05266" height="0.831685" fill="white"/>
<rect x="29.0525" y="34.6733" width="5.05266" height="1.66337" fill="white"/>
<rect x="11.3682" y="14.7128" width="13.4738" height="1.66337" rx="0.831685" fill="#C3D4FA"/>
<rect x="11.3682" y="18.0396" width="6.73689" height="1.66337" rx="0.831685" fill="#C3D4FA"/>
<rect x="11.3682" y="21.3663" width="6.73689" height="1.66337" rx="0.831685" fill="#C3D4FA"/>
<rect x="11.3682" y="24.6931" width="6.73689" height="1.66337" rx="0.831685" fill="#C3D4FA"/>
</g>
</svg>
