<svg width="48" height="48" viewBox="0 0 48 48" fill="none" xmlns="http://www.w3.org/2000/svg">
<path d="M24 48C37.2548 48 48 37.2548 48 24C48 10.7452 37.2548 0 24 0C10.7452 0 0 10.7452 0 24C0 37.2548 10.7452 48 24 48Z" fill="#ECF2FE"/>
<path d="M40.8171 24C40.5103 23.5929 33.2246 13.986 23.9966 13.986C14.7746 13.986 7.482 23.5929 7.182 24C6.98914 24.2572 6.98914 24.6 7.182 24.8572C7.482 25.2643 14.7746 34.8712 23.9966 34.8712C33.2246 34.8712 40.5103 25.2643 40.818 24.8572C41.0109 24.6 41.0109 24.2572 40.818 24H40.8171Z" fill="#618EF3"/>
<path fill-rule="evenodd" clip-rule="evenodd" d="M23.9966 32.0143C19.8103 32.0143 16.4109 28.614 16.4109 24.4285C16.4109 20.2431 19.8103 16.8428 23.9966 16.8428C28.182 16.8428 31.5892 20.2431 31.5892 24.4285C31.5892 28.614 28.182 32.0143 23.9966 32.0143Z" fill="white"/>
<path d="M23.9986 20.4138C22.9343 20.4147 21.9139 20.8379 21.1613 21.5904C20.4087 22.343 19.9855 23.3635 19.9846 24.4278C19.9846 25.4934 20.4079 26.5153 21.1614 27.2688C21.9149 28.0223 22.9369 28.4456 24.0025 28.4456C25.0681 28.4456 26.09 28.0223 26.8435 27.2688C27.597 26.5153 28.0203 25.4934 28.0203 24.4278C28.0187 23.3623 27.5943 22.3411 26.8402 21.5885C26.0861 20.8358 25.064 20.4133 23.9986 20.4138Z" fill="#1D4BEA"/>
</svg>
