<svg width="48" height="48" viewBox="0 0 48 48" fill="none" xmlns="http://www.w3.org/2000/svg">
<path d="M24 48C37.2548 48 48 37.2548 48 24C48 10.7452 37.2548 0 24 0C10.7452 0 0 10.7452 0 24C0 37.2548 10.7452 48 24 48Z" fill="#ECF2FE"/>
<path d="M34.7706 25.8804L37 16H14L15.9556 29H30.8687C32.7386 29 34.359 27.7045 34.7706 25.8804Z" fill="#8CACF6"/>
<circle cx="18.5" cy="35.5" r="1.5" fill="#305BEF"/>
<circle cx="31.5" cy="35.5" r="1.5" fill="#305BEF"/>
<path d="M9 14H12.2192C12.6781 14 13.0781 14.3123 13.1894 14.7575L13.5 16M34 33H16.8637C16.3676 33 15.9465 32.6363 15.8743 32.1455L13.5 16M13.5 16H38" stroke="#305BEF" stroke-width="1.5" stroke-linecap="round"/>
</svg>
