<svg xmlns="http://www.w3.org/2000/svg" xmlns:xlink="http://www.w3.org/1999/xlink" width="138" height="108" viewBox="0 0 138 108">
    <defs>
        <rect id="a" width="500" height="300" x="1032" y="1498" rx="8"/>
    </defs>
    <g fill="none" fill-rule="evenodd">
        <path fill="#F8FAFB" d="M-1213-1594H387v3300h-1600z"/>
        <g fill="#FFF" transform="translate(-1213 -1594)">
            <use xlink:href="#a"/>
            <use xlink:href="#a"/>
        </g>
        <g fill-rule="nonzero">
            <ellipse cx="77.093" cy="65.055" fill="#20A8DE" rx="43.019" ry="42.945"/>
            <path fill="#E3EBEE" d="M65.537 55.01c-5.385-1.498-9.82-.12-13.306 4.135-4.442-3.922-9.663-4.72-15.663-2.393s-8.427 7.356-7.281 15.086c-5.983 0-9.193 2.984-9.633 8.951-.658 8.95 4.01 10.762 11.199 11.927 7.19 1.164 43.66 2.567 50.209-7.06 6.548-9.628 5.833-12.454 2.432-16.056-2.266-2.4-5.992-3.254-11.175-2.56.865-6.52-1.396-10.53-6.782-12.03z"/>
            <path fill="#E3EBEE" d="M27.096 64.123c-3.177-.88-5.792-.07-7.848 2.427-2.62-2.302-5.698-2.77-9.237-1.405-3.539 1.366-4.97 4.318-4.294 8.855-3.528 0-5.422 1.752-5.68 5.254-.39 5.254 2.364 6.317 6.604 7 4.24.684 25.748 1.507 29.61-4.144 3.862-5.65 3.44-7.31 1.435-9.423-1.337-1.41-3.534-1.91-6.591-1.503.51-3.828-.823-6.181-4-7.06l.001-.001zm90.296-4.252c-3.176-.88-5.792-.07-7.847 2.427-2.62-2.302-5.699-2.77-9.238-1.404-3.538 1.365-4.97 4.317-4.294 8.854-3.528 0-5.421 1.752-5.68 5.254-.389 5.254 2.364 6.317 6.604 7 4.24.684 25.749 1.507 29.61-4.144 3.862-5.65 3.44-7.31 1.435-9.423-1.337-1.41-3.534-1.91-6.59-1.503.51-3.828-.824-6.181-4-7.06v-.001z"/>
            <path fill="#E3EBEE" d="M93.54 58.976c-3.176-.914-5.074-.153-5.693 2.283l-5.416-19.96-9.992-.48-5.958 25.497c.259 1.952.259 4.749 0 8.39-.389 5.461 2.364 6.567 6.604 7.277s25.749 1.567 29.61-4.308c3.862-5.874 3.44-7.599 1.435-9.797-1.337-1.465-3.534-1.985-6.59-1.562.51-3.979-.824-6.426-4-7.34z"/>
            <g fill="#FFF">
                <path d="M40.699 71.778c-3.173-.883-5.787-.07-7.84 2.437-2.617-2.312-5.693-2.782-9.228-1.41-3.535 1.371-4.965 4.335-4.29 8.891-3.525 0-5.416 1.759-5.675 5.276-.388 5.276 2.362 6.343 6.598 7.03 4.236.686 25.723 1.513 29.581-4.162 3.858-5.674 3.437-7.34 1.433-9.463-1.335-1.415-3.53-1.918-6.584-1.508.51-3.844-.822-6.208-3.995-7.09v-.001z"/>
                <path d="M71.865 71.761c-3.173-.883-5.786-.07-7.84 2.437-2.616-2.312-5.692-2.782-9.228-1.41-3.535 1.371-4.965 4.335-4.29 8.891-3.524 0-5.416 1.759-5.674 5.276-.389 5.276 2.362 6.343 6.597 7.03 4.236.686 25.724 1.513 29.582-4.162 3.858-5.674 3.436-7.34 1.433-9.463-1.336-1.415-3.53-1.918-6.584-1.509.51-3.843-.823-6.207-3.996-7.09z"/>
                <path d="M117.706 65.186c-5.11-1.423-9.32-.115-12.626 3.924-4.215-3.723-9.169-4.48-14.862-2.271-5.693 2.209-7.996 6.982-6.909 14.32-5.676 0-8.723 2.832-9.14 8.496-.624 8.497 3.805 10.216 10.626 11.322 6.822 1.105 41.428 2.436 47.641-6.702 6.214-9.139 5.534-11.822 2.308-15.24-2.15-2.28-5.685-3.09-10.604-2.43.821-6.19-1.324-9.997-6.434-11.42v.001z"/>
            </g>
            <g transform="translate(63.889)">
                <path fill="#EE6C6B" d="M20.833 27.703l5.574 7.017v7.548l-5.574-5.26v-9.305zm-15.258 0L0 34.72v7.548l5.575-5.26v-9.305z"/>
                <path fill="#FFF" stroke="#FFF" stroke-linejoin="round" stroke-width="2.916" d="M13.242 2.862c1.034.22 7.217 6.198 7.27 11.098.036 3.33.036 12.196 0 26.594H5.895c-.036-14.398-.036-23.263 0-26.594.054-4.9 6.236-10.879 7.27-11.098a.042.042 0 0 1 .021-.006h.035c.007 0 .014.002.02.006h.001z"/>
                <path fill="#EBEBEB" stroke="#EBEBEB" stroke-linejoin="round" stroke-width="2.916" d="M9.46 40.554H5.59c-.206-14.603-.29-23.4-.252-26.392.045-3.488 2.472-3.069 3.76-2.703.013-4.97.086-7.457.22-7.46.444-.014 3.843 5.92 3.871 10.766.02 3.23.02 11.827 0 25.79H9.461l-.001-.001z"/>
                <path fill="#EE6C6B" d="M13.164 0C10.77 1.21 8.756 3.086 7.117 5.625c-1.639 2.54-2.524 5.177-2.657 7.912h16.9c-.274-3.077-1.098-5.715-2.471-7.912C17.515 3.428 15.607 1.553 13.164 0zM8.075 41.295L7.27 45.07h12.544l-.893-3.776-10.846.001z"/>
                <ellipse cx="13.204" cy="20.835" fill="#2FB7EC" rx="3.833" ry="3.827"/>
            </g>
        </g>
    </g>
</svg>
