<svg width="240" height="136" viewBox="0 0 240 136" fill="none" xmlns="http://www.w3.org/2000/svg">
<mask id="mask0_185_870" style="mask-type:alpha" maskUnits="userSpaceOnUse" x="0" y="0" width="240" height="136">
<rect width="239.179" height="135.446" fill="white"/>
</mask>
<g mask="url(#mask0_185_870)">
<path d="M195.894 133.054C200.421 133.054 204.091 129.389 204.091 124.868C204.091 120.347 200.421 116.681 195.894 116.681C191.368 116.681 187.698 120.347 187.698 124.868C187.698 129.389 191.368 133.054 195.894 133.054Z" fill="#E6F7FF"/>
<path d="M189.746 141.241C194.273 141.241 197.943 137.576 197.943 133.054C197.943 128.533 194.273 124.868 189.746 124.868C185.22 124.868 181.55 128.533 181.55 133.054C181.55 137.576 185.22 141.241 189.746 141.241Z" fill="white"/>
<path d="M56.5507 133.054C61.0776 133.054 64.7474 129.389 64.7474 124.868C64.7474 120.347 61.0776 116.681 56.5507 116.681C52.0238 116.681 48.354 120.347 48.354 124.868C48.354 129.389 52.0238 133.054 56.5507 133.054Z" fill="#E6F7FF"/>
<path d="M62.6982 141.241C67.2251 141.241 70.8948 137.576 70.8948 133.054C70.8948 128.533 67.2251 124.868 62.6982 124.868C58.1712 124.868 54.5015 128.533 54.5015 133.054C54.5015 137.576 58.1712 141.241 62.6982 141.241Z" fill="white"/>
<path d="M52.0314 133C54.7393 126.001 57.0044 118.504 57.6754 114.029C58.7476 106.876 57.1394 102.048 53.2083 101.511C49.2779 100.974 46.3797 107.801 46.3797 107.801C46.3797 107.801 44.7072 98.1318 41.7345 91.8099C38.7611 85.4867 32.4441 82.5123 28.3555 87.5322C24.2676 92.5528 27.3753 111.002 27.3753 111.002C26.7911 110.616 21.8817 107.442 18.99 109.288C15.8816 111.273 17.2012 117.715 17.7636 120.458C18.6962 125.013 21.1301 129.559 23.6806 133" fill="#E5ECFF"/>
<path fill-rule="evenodd" clip-rule="evenodd" d="M184.798 1.99065L47.4639 1.99068C45.2547 1.99068 43.4639 3.78154 43.4639 5.99068V129.07C43.4639 131.279 45.2547 133.07 47.4639 133.07H203.113C205.322 133.07 207.113 131.279 207.113 129.07V23.4664L184.798 1.99065Z" fill="#8CACF6"/>
<path fill-rule="evenodd" clip-rule="evenodd" d="M184.798 1.99065L47.4639 1.99068C45.2547 1.99068 43.4639 3.78154 43.4639 5.99068V129.07C43.4639 131.279 45.2547 133.07 47.4639 133.07H203.113C205.322 133.07 207.113 131.279 207.113 129.07V23.4664L184.798 1.99065Z" fill="url(#paint0_linear_185_870)"/>
<path d="M50.7549 9.89693H185.95L200.974 23.4799V125.102H50.7549V9.89693Z" fill="white"/>
<line x1="194.629" y1="17.3679" x2="57.4283" y2="17.3679" stroke="white"/>
<rect x="58" y="17" width="18" height="18" rx="4.5" fill="#FFF5D7"/>
<path fill-rule="evenodd" clip-rule="evenodd" d="M72.0227 24.6565C72.8054 27.5777 71.0718 30.5803 68.1506 31.363C65.2295 32.1457 62.2268 30.4122 61.4441 27.491C60.6614 24.5698 62.3949 21.5672 65.3161 20.7845C68.2373 20.0017 71.2399 21.7353 72.0227 24.6565Z" fill="#FFC72C"/>
<path d="M62.9556 22.2395C63.8108 22.2068 65.1478 22.2846 66.5785 22.9492C70.0405 24.5554 71.0848 28.213 71.2463 28.8134" stroke="#E4AB0F" stroke-width="0.75" stroke-linejoin="bevel"/>
<path d="M65.5858 24.5065L65.8793 24.7399L65.8793 24.7399L65.5858 24.5065ZM64.2227 23.476L64.4352 23.7849L64.4352 23.7849L64.2227 23.476ZM67.6124 28.1837L67.2437 28.2523L67.2438 28.2526L67.6124 28.1837ZM67.5433 24.9111L67.8507 25.1258L67.8508 25.1257L67.5433 24.9111ZM69.3151 23.4196L69.362 23.7916L69.3628 23.7915L69.3151 23.4196ZM69.0605 21.0314C67.611 21.8644 66.3324 22.9644 65.2922 24.2732L65.8793 24.7399C66.8607 23.5052 68.0669 22.4675 69.4342 21.6816L69.0605 21.0314ZM65.2922 24.2732C63.6015 26.4003 62.9509 28.5583 62.6818 29.764L63.4138 29.9274C63.6686 28.7858 64.2839 26.7471 65.8793 24.7399L65.2922 24.2732ZM66.0995 20.7025C65.7519 20.8433 65.7518 20.8429 65.7516 20.8426C65.7516 20.8425 65.7514 20.8421 65.7513 20.8419C65.7511 20.8414 65.751 20.8409 65.7508 20.8405C65.7504 20.8396 65.7501 20.8388 65.7498 20.838C65.7492 20.8365 65.7488 20.8353 65.7484 20.8342C65.7477 20.8322 65.7473 20.8312 65.7473 20.8311C65.7472 20.8309 65.7484 20.8346 65.7502 20.8419C65.7537 20.8566 65.7594 20.8861 65.7618 20.9294C65.7665 21.0148 65.7586 21.1601 65.6879 21.3575C65.5467 21.7523 65.1416 22.3886 64.0101 23.167L64.4352 23.7849C65.6502 22.9491 66.1836 22.1986 66.3941 21.6102C66.4993 21.316 66.5207 21.0706 66.5106 20.8882C66.5056 20.7976 66.493 20.724 66.48 20.669C66.4734 20.6415 66.4668 20.6187 66.461 20.6007C66.4582 20.5918 66.4555 20.584 66.4531 20.5775C66.4519 20.5742 66.4508 20.5713 66.4498 20.5687C66.4493 20.5673 66.4488 20.5661 66.4483 20.5649C66.4481 20.5644 66.4479 20.5638 66.4477 20.5632C66.4475 20.563 66.4474 20.5626 66.4473 20.5624C66.4472 20.5621 66.447 20.5617 66.0995 20.7025ZM64.0102 23.167C62.8278 23.9803 62.1218 24.5463 61.7076 24.914C61.5003 25.098 61.3649 25.2335 61.2787 25.3264C61.2356 25.373 61.2046 25.4092 61.1829 25.4357C61.172 25.449 61.1635 25.46 61.1569 25.4687C61.1536 25.473 61.1509 25.4768 61.1485 25.48C61.1473 25.4817 61.1463 25.4831 61.1453 25.4845C61.1448 25.4852 61.1444 25.4858 61.1439 25.4864C61.1437 25.4867 61.1435 25.487 61.1433 25.4873C61.1432 25.4875 61.1431 25.4877 61.143 25.4877C61.1429 25.4879 61.1427 25.4881 61.4507 25.7021C61.7587 25.9161 61.7585 25.9163 61.7584 25.9165C61.7583 25.9165 61.7582 25.9167 61.7581 25.9169C61.7579 25.9171 61.7578 25.9174 61.7576 25.9176C61.7573 25.918 61.757 25.9185 61.7567 25.9188C61.7562 25.9196 61.7558 25.9202 61.7555 25.9206C61.7549 25.9214 61.7548 25.9216 61.7552 25.921C61.756 25.92 61.7588 25.9162 61.7642 25.9096C61.7749 25.8964 61.7955 25.8722 61.8288 25.8362C61.8957 25.764 62.0132 25.6456 62.2055 25.4749C62.5905 25.1332 63.2705 24.5861 64.4352 23.7849L64.0102 23.167ZM66.9336 31.3891C67.264 31.5664 67.2641 31.5663 67.2641 31.5663C67.2642 31.5662 67.2642 31.5661 67.2642 31.566C67.2643 31.5659 67.2644 31.5657 67.2645 31.5655C67.2648 31.5651 67.265 31.5646 67.2654 31.5639C67.266 31.5627 67.2669 31.561 67.268 31.5589C67.2703 31.5547 67.2734 31.5488 67.2772 31.5413C67.285 31.5262 67.296 31.5047 67.3097 31.4773C67.3369 31.4223 67.375 31.3434 67.4195 31.2446C67.5083 31.0473 67.6236 30.7689 67.7303 30.4428C67.94 29.8018 68.133 28.9277 67.981 28.1148L67.2438 28.2526C67.3609 28.879 67.2144 29.6077 67.0175 30.2095C66.9209 30.5048 66.8161 30.7579 66.7356 30.9367C66.6954 31.026 66.6615 31.0963 66.638 31.1435C66.6263 31.1672 66.6171 31.185 66.6112 31.1965C66.6082 31.2023 66.606 31.2065 66.6046 31.2091C66.6039 31.2104 66.6035 31.2112 66.6032 31.2117C66.6031 31.2119 66.6031 31.212 66.6031 31.212C66.6031 31.212 66.6031 31.212 66.6031 31.212C66.6031 31.212 66.6031 31.2119 66.6031 31.2119C66.6032 31.2118 66.6032 31.2118 66.9336 31.3891ZM67.9811 28.1151C67.8437 27.3769 67.7109 26.765 67.6681 26.2395C67.6254 25.7144 67.683 25.366 67.8507 25.1258L67.2359 24.6964C66.9153 25.1553 66.8737 25.7236 66.9206 26.3003C66.9675 26.8766 67.1133 27.5514 67.2437 28.2523L67.9811 28.1151ZM67.8508 25.1257C68.0864 24.7881 68.3516 24.46 68.6253 24.2106C68.9056 23.955 69.1562 23.8176 69.362 23.7916L69.2681 23.0475C68.8356 23.1021 68.4441 23.361 68.1201 23.6563C67.7894 23.9577 67.4879 24.3351 67.2358 24.6965L67.8508 25.1257ZM69.3628 23.7915C69.8942 23.7233 70.8207 23.8501 71.4856 24.8731L72.1144 24.4644C71.2573 23.1456 70.0144 22.9517 69.2673 23.0476L69.3628 23.7915Z" fill="#E4AB0F"/>
<rect x="58" y="41" width="18" height="18" rx="4.5" fill="#E6F7FF"/>
<rect x="58" y="64" width="18" height="19" rx="4.5" fill="#D3F9A5"/>
<rect x="58" y="88" width="18" height="19" rx="4.5" fill="#FADDE2"/>
<path fill-rule="evenodd" clip-rule="evenodd" d="M63.0996 99.3229C63.0996 99.3229 64.1632 100.579 66.395 101.019C68.6268 101.459 71.3008 101.129 72.0649 100.671C72.8288 100.213 73.5126 99.2963 70.2151 98.3616" fill="#15405E"/>
<path fill-rule="evenodd" clip-rule="evenodd" d="M61.5769 96.8645L61.2754 97.9408C61.2754 97.9408 61.0543 98.8188 61.6773 98.9911C62.3005 99.1634 63.205 99.3824 64.5113 99.51C65.8179 99.6377 69.4158 99.2545 69.4158 99.2545C69.4158 99.2545 70.3603 99.1816 70.2197 98.3605C70.0791 97.5395 70.0388 96.9739 70.0588 96.4082C70.0791 95.8426 70.0991 94.7297 68.0086 94.2187C65.9184 93.7079 63.4059 94.0911 62.8029 94.6384C62.1999 95.1858 61.8784 95.7879 61.5769 96.8645Z" fill="#E26062"/>
<mask id="mask1_185_870" style="mask-type:alpha" maskUnits="userSpaceOnUse" x="66" y="93" width="1" height="2">
<path fill-rule="evenodd" clip-rule="evenodd" d="M66.0635 93.8205H66.6448V94.1833H66.0635V93.8205Z" fill="white"/>
</mask>
<g mask="url(#mask1_185_870)">
<path fill-rule="evenodd" clip-rule="evenodd" d="M66.6448 94.0005C66.6448 94.1007 66.5147 94.182 66.354 94.182C66.1936 94.182 66.0635 94.1007 66.0635 94.0005C66.0635 93.9004 66.1936 93.819 66.354 93.819C66.5147 93.819 66.6448 93.9004 66.6448 94.0005Z" fill="#15405E"/>
</g>
<path fill-rule="evenodd" clip-rule="evenodd" d="M63.8282 95.2148C63.7786 95.2148 63.7384 95.2513 63.7384 95.2964C63.7384 95.3414 63.7786 95.3782 63.8282 95.3782C63.8779 95.3782 63.9181 95.3414 63.9181 95.2964C63.9181 95.2513 63.8779 95.2148 63.8282 95.2148ZM63.8266 95.4684C63.7221 95.4684 63.6372 95.3913 63.6372 95.2964C63.6372 95.2015 63.7221 95.1246 63.8266 95.1246C63.9311 95.1246 64.016 95.2015 64.016 95.2964C64.016 95.3913 63.9311 95.4684 63.8266 95.4684Z" fill="#15405E"/>
<path fill-rule="evenodd" clip-rule="evenodd" d="M67.1409 95.6445C67.0912 95.6445 67.051 95.681 67.051 95.7261C67.051 95.7712 67.0912 95.8079 67.1409 95.8079C67.1905 95.8079 67.2307 95.7712 67.2307 95.7261C67.2307 95.681 67.1905 95.6445 67.1409 95.6445ZM67.1406 95.8981C67.0361 95.8981 66.9512 95.821 66.9512 95.7261C66.9512 95.6312 67.0361 95.5543 67.1406 95.5543C67.2451 95.5543 67.33 95.6312 67.33 95.7261C67.33 95.821 67.2451 95.8981 67.1406 95.8981Z" fill="#15405E"/>
<path fill-rule="evenodd" clip-rule="evenodd" d="M69.4125 95.4729C69.3628 95.4729 69.3226 95.5094 69.3226 95.5545C69.3226 95.5996 69.3628 95.6363 69.4125 95.6363C69.4621 95.6363 69.5023 95.5996 69.5023 95.5545C69.5023 95.5094 69.4621 95.4729 69.4125 95.4729ZM69.4125 95.7262C69.308 95.7262 69.2231 95.6491 69.2231 95.5542C69.2231 95.4593 69.308 95.3824 69.4125 95.3824C69.5171 95.3824 69.602 95.4593 69.602 95.5542C69.602 95.6491 69.5171 95.7262 69.4125 95.7262Z" fill="#15405E"/>
<path fill-rule="evenodd" clip-rule="evenodd" d="M64.7746 99.536L64.6782 99.5288L65.0222 95.7295C65.0229 95.7188 65.107 94.5383 66.1872 94.1221L66.225 94.2023C65.2 94.5976 65.1196 95.724 65.1189 95.7354L64.7746 99.536Z" fill="#15405E"/>
<path fill-rule="evenodd" clip-rule="evenodd" d="M69.0643 99.3069C69.0427 99.0609 69.024 98.765 69.0039 98.4518C68.9406 97.4601 68.8618 96.2264 68.6409 95.6274C68.3577 94.8606 66.59 94.1524 66.5723 94.1453L66.6111 94.0648C66.6853 94.0943 68.4362 94.7965 68.7328 95.5996C68.9581 96.2096 69.0371 97.4501 69.1006 98.4468C69.1205 98.7595 69.1397 99.055 69.1608 99.3001L69.0643 99.3069Z" fill="#15405E"/>
<path fill-rule="evenodd" clip-rule="evenodd" d="M67.9302 97.7772V98.8772L69.7611 98.7839V97.7027L67.9302 97.7772Z" fill="white"/>
<path fill-rule="evenodd" clip-rule="evenodd" d="M62.5966 70.5456V70.1878H61.6968V70.5456M63.8046 70.5462V70.1885H62.9042V70.5462" fill="#C4C4C4"/>
<path fill-rule="evenodd" clip-rule="evenodd" d="M72.9003 69.8315H66.06V70.5461H61.2031V71.7508H72.9003V69.8315Z" fill="#C4CDD5"/>
<path fill-rule="evenodd" clip-rule="evenodd" d="M61.2031 77.6933H72.9003V71.7503H61.2031V77.6933Z" fill="#7790A3"/>
<path fill-rule="evenodd" clip-rule="evenodd" d="M71.9086 71.1496H70.488C70.3264 71.1423 70.1992 71.0093 70.1992 70.8476C70.1992 70.686 70.3264 70.553 70.488 70.5457H71.9086C72.0746 70.5457 72.211 70.6814 72.211 70.8479C72.211 71.0145 72.0746 71.1496 71.9086 71.1496Z" fill="white"/>
<path fill-rule="evenodd" clip-rule="evenodd" d="M64.1118 70.546H66.062V69.8305H64.1118V70.546Z" fill="#D5DFE6"/>
<path d="M64.203 69.8259V70.5452H64.503V69.8259H64.203ZM65.1743 69.8259V70.5452H65.4743V69.8259H65.1743ZM64.686 69.826V70.5452H64.986V69.826H64.686ZM65.6637 69.8259V70.5452H65.9637V69.8259H65.6637Z" fill="#4A5F6E"/>
<path d="M61.2031 71.7501H72.9003" stroke="#D5DFE6" stroke-linejoin="round"/>
<path fill-rule="evenodd" clip-rule="evenodd" d="M71.7772 74.5251C71.7772 76.2749 70.3587 77.6935 68.6088 77.6935C66.859 77.6935 65.4404 76.2749 65.4404 74.5251C65.4404 72.7753 66.859 71.3567 68.6088 71.3567C70.3587 71.3567 71.7772 72.7753 71.7772 74.5251Z" fill="#4A5F6E"/>
<path fill-rule="evenodd" clip-rule="evenodd" d="M71.0475 74.525C71.0615 75.4054 70.5998 76.2251 69.8395 76.6694C69.0792 77.1137 68.1385 77.1137 67.3782 76.6694C66.6179 76.2251 66.1562 75.4054 66.1702 74.525C66.1914 73.1933 67.277 72.1248 68.6088 72.1248C69.9407 72.1248 71.0263 73.1933 71.0475 74.525Z" fill="#FEFEFE"/>
<path fill-rule="evenodd" clip-rule="evenodd" d="M69.8051 74.525C69.8053 75.1862 69.2694 75.7224 68.6082 75.7225C67.947 75.7227 67.4108 75.1868 67.4106 74.5256C67.4106 73.8644 67.9467 73.3284 68.6079 73.3284C69.2691 73.3284 69.8051 73.8644 69.8051 74.5256V74.525Z" fill="#4A5F6E"/>
<path fill-rule="evenodd" clip-rule="evenodd" d="M66.911 54.9794C65.5915 54.9707 64.5288 53.8876 64.5381 52.5608C64.5467 51.234 65.6236 50.1663 66.9437 50.1749C68.2631 50.1836 69.3258 51.2667 69.3166 52.5935C69.3079 53.9203 68.231 54.9886 66.911 54.9794ZM66.9477 49.5211C65.269 49.51 63.899 50.8689 63.8873 52.5574C63.8762 54.2446 65.2277 55.6221 66.9069 55.6338C68.5855 55.6449 69.9556 54.286 69.9667 52.5975C69.9784 50.9102 68.6263 49.5328 66.9477 49.5211Z" fill="#FFC72C"/>
<path fill-rule="evenodd" clip-rule="evenodd" d="M63.459 46.1234L64.592 44.4146H69.2922L70.3117 46.1228L66.8853 49.9379L63.459 46.1228L63.459 46.1234Z" fill="#9AE3FF"/>
<path d="M63.5479 45.9212C63.4374 45.9212 63.3479 46.0107 63.3479 46.1212C63.3479 46.2316 63.4374 46.3212 63.5479 46.3212V45.9212ZM70.2215 46.3212C70.332 46.3212 70.4215 46.2316 70.4215 46.1212C70.4215 46.0107 70.332 45.9212 70.2215 45.9212V46.3212ZM64.7486 44.3703C64.6837 44.2809 64.5586 44.261 64.4693 44.3259C64.3799 44.3908 64.36 44.5159 64.4249 44.6053L64.7486 44.3703ZM65.7741 46.1232L65.6123 46.2407C65.6506 46.2935 65.7123 46.3243 65.7775 46.3232C65.8427 46.3221 65.9033 46.2893 65.9398 46.2352L65.7741 46.1232ZM66.88 44.4878L67.0429 44.3717C67.0049 44.3184 66.9431 44.287 66.8776 44.2878C66.8121 44.2886 66.7511 44.3215 66.7144 44.3758L66.88 44.4878ZM68.0452 46.1232L67.8823 46.2392C67.9192 46.291 67.9786 46.3222 68.0422 46.3232C68.1058 46.3241 68.166 46.2948 68.2045 46.2441L68.0452 46.1232ZM69.4462 44.6087C69.513 44.5208 69.4958 44.3953 69.4078 44.3285C69.3198 44.2617 69.1944 44.2789 69.1276 44.3668L69.4462 44.6087ZM63.5479 46.3212H70.2215V45.9212H63.5479V46.3212ZM64.4249 44.6053L65.6123 46.2407L65.936 46.0057L64.7486 44.3703L64.4249 44.6053ZM65.9398 46.2352L67.0457 44.5998L66.7144 44.3758L65.6085 46.0112L65.9398 46.2352ZM66.7171 44.6038L67.8823 46.2392L68.2081 46.0071L67.0429 44.3717L66.7171 44.6038ZM68.2045 46.2441L69.4462 44.6087L69.1276 44.3668L67.8859 46.0023L68.2045 46.2441Z" fill="white"/>
<path d="M65.8018 46.1231C65.8018 46.1231 66.8626 49.6865 66.9083 49.8636L68.0734 46.1225" stroke="white" stroke-width="0.4" stroke-linecap="round" stroke-linejoin="round"/>
<path d="M113.5 118L113.5 16.5" stroke="#EEF2F5"/>
<line x1="193" y1="29.5" x2="82" y2="29.5" stroke="#EEF2F5"/>
<line x1="193" y1="35.5" x2="82" y2="35.5" stroke="#EEF2F5"/>
<line x1="193" y1="41.5" x2="82" y2="41.5" stroke="#EEF2F5"/>
<line x1="193" y1="47.5" x2="82" y2="47.5" stroke="#EEF2F5"/>
<line x1="193" y1="53.5" x2="82" y2="53.5" stroke="#EEF2F5"/>
<line x1="193" y1="59.5" x2="82" y2="59.5" stroke="#EEF2F5"/>
<line x1="193" y1="65.5" x2="82" y2="65.5" stroke="#EEF2F5"/>
<line x1="193" y1="71.5" x2="82" y2="71.5" stroke="#EEF2F5"/>
<line x1="193" y1="77.5" x2="82" y2="77.5" stroke="#EEF2F5"/>
<line x1="193" y1="82.5" x2="82" y2="82.5" stroke="#EEF2F5"/>
<line x1="193" y1="88.5" x2="82" y2="88.5" stroke="#EEF2F5"/>
<line x1="193" y1="94.5" x2="82" y2="94.5" stroke="#EEF2F5"/>
<line x1="193" y1="100.5" x2="82" y2="100.5" stroke="#EEF2F5"/>
<line x1="193" y1="106.5" x2="82" y2="106.5" stroke="#EEF2F5"/>
<path d="M193 112.5L80.9998 112.5" stroke="#EEF2F5"/>
<line x1="97.0444" y1="118" x2="97.0444" y2="16" stroke="#D5DFE6" stroke-width="2"/>
<path d="M129.5 118.5L129.5 16" stroke="#EEF2F5"/>
<line x1="81.4727" y1="118" x2="81.4727" y2="16" stroke="#D5DFE6"/>
<path d="M145.5 118L145.5 16.5" stroke="#EEF2F5"/>
<path d="M161.5 118L161.5 16.2813" stroke="#EEF2F5"/>
<path d="M177.5 118L177.5 16" stroke="#EEF2F5"/>
<path d="M193 118.5L81.0002 118.5" stroke="#D5DFE6"/>
<path d="M41.0571 133C39.6701 129.5 38.5099 125.752 38.1662 123.514C37.6171 119.938 38.4408 117.524 40.4543 117.255C42.4674 116.987 43.9519 120.401 43.9519 120.401C43.9519 120.401 44.8085 115.566 46.3311 112.405C47.8541 109.243 51.0896 107.756 53.1838 110.266C55.2776 112.776 53.6858 122.001 53.6858 122.001C53.9851 121.808 56.4996 120.221 57.9808 121.144C59.5728 122.136 58.897 125.358 58.6089 126.729C58.1312 129.007 56.8846 131.28 55.5783 133" fill="#7996F9"/>
<path d="M193 22L193 24L81 24L81 22L193 22Z" fill="#D5DFE6"/>
<path d="M81 16.5L191 16.5" stroke="#D5DFE6"/>
<path d="M193.5 113L193.5 16" stroke="#D5DFE6"/>
<path d="M195.357 133C191.988 124.356 189.238 114.376 188.404 108.85C187.07 100.016 189.071 94.0538 193.96 93.3905C198.849 92.728 202.455 101.159 202.455 101.159C202.455 101.159 204.535 89.2175 208.233 81.41C211.931 73.601 219.789 69.9277 224.875 76.1272C229.96 82.3276 226.094 105.112 226.094 105.112C226.821 104.635 232.928 100.715 236.525 102.995C240.391 105.446 238.75 113.402 238.05 116.79C236.89 122.416 233.616 128.751 230.443 133" fill="#7996F9"/>
<path d="M197.5 133C199.283 128.351 201.344 123.254 201.786 120.281C202.492 115.53 201.433 112.324 198.844 111.967C196.256 111.61 194.348 116.145 194.348 116.145C194.348 116.145 193.246 109.722 191.289 105.523C189.33 101.323 185.17 99.3476 182.478 102.682C179.786 106.017 181.833 118.271 181.833 118.271C181.448 118.015 178.215 115.906 176.31 117.132C174.263 118.451 175.132 122.73 175.503 124.552C176.117 127.578 177.82 130.715 179.5 133" fill="#305BEF"/>
<path d="M207.112 23.4799H184.797V1.99063L207.112 23.4799Z" fill="#0E3AA1"/>
</g>
<defs>
<linearGradient id="paint0_linear_185_870" x1="125.288" y1="1.99065" x2="125.288" y2="133.07" gradientUnits="userSpaceOnUse">
<stop stop-color="#C0D2FB"/>
<stop offset="1" stop-color="#92B0F7"/>
</linearGradient>
</defs>
</svg>
