<svg width="200" height="140" viewBox="0 0 200 140" fill="none" xmlns="http://www.w3.org/2000/svg">
<g clip-path="url(#clip0_1312_36859)">
<rect width="200" height="140" fill="white"/>
<mask id="mask0_1312_36859" style="mask-type:alpha" maskUnits="userSpaceOnUse" x="30" y="6" width="144" height="115">
<rect x="30.6917" y="6.73755" width="143.226" height="113.558" fill="#C4C4C4"/>
</mask>
<g mask="url(#mask0_1312_36859)">
<path d="M101.699 160.459C140.753 160.459 172.413 128.8 172.413 89.7454C172.413 50.6912 140.753 19.0315 101.699 19.0315C62.6446 19.0315 30.9849 50.6912 30.9849 89.7454C30.9849 128.8 62.6446 160.459 101.699 160.459Z" fill="url(#paint0_linear_1312_36859)"/>
<mask id="mask1_1312_36859" style="mask-type:alpha" maskUnits="userSpaceOnUse" x="30" y="19" width="143" height="142">
<path d="M101.699 160.459C140.753 160.459 172.413 128.8 172.413 89.7454C172.413 50.6912 140.753 19.0315 101.699 19.0315C62.6446 19.0315 30.9849 50.6912 30.9849 89.7454C30.9849 128.8 62.6446 160.459 101.699 160.459Z" fill="white"/>
</mask>
<g mask="url(#mask1_1312_36859)">
</g>
<path d="M161.216 58.8671C161.216 55.7427 163.722 53.21 166.814 53.21C169.906 53.21 172.412 55.7427 172.412 58.8671C172.412 60.0986 172.023 61.2382 171.362 62.1671L166.814 69.7099L162.267 62.1671C161.605 61.2382 161.216 60.0986 161.216 58.8671Z" fill="url(#paint1_linear_1312_36859)"/>
<path d="M166.814 60.2814C167.587 60.2814 168.214 59.6482 168.214 58.8672C168.214 58.0861 167.587 57.4529 166.814 57.4529C166.041 57.4529 165.415 58.0861 165.415 58.8672C165.415 59.6482 166.041 60.2814 166.814 60.2814Z" fill="white"/>
<path d="M52.199 27.8707C52.199 23.9653 55.3649 20.7993 59.2704 20.7993C63.1758 20.7993 66.3418 23.9653 66.3418 27.8707C66.3418 29.4101 65.8498 30.8347 65.0146 31.9957L59.2704 41.4242L53.5261 31.9957C52.6909 30.8347 52.199 29.4101 52.199 27.8707Z" fill="url(#paint2_linear_1312_36859)"/>
<path d="M59.2705 29.6385C60.2469 29.6385 61.0384 28.847 61.0384 27.8706C61.0384 26.8943 60.2469 26.1028 59.2705 26.1028C58.2942 26.1028 57.5027 26.8943 57.5027 27.8706C57.5027 28.847 58.2942 29.6385 59.2705 29.6385Z" fill="white"/>
<path d="M75.7056 67.0072C75.7056 63.1018 78.8715 59.9358 82.777 59.9358C86.6824 59.9358 89.8484 63.1018 89.8484 67.0072C89.8484 68.5466 89.3564 69.9711 88.5212 71.1322L82.777 80.5607L77.0327 71.1322C76.1975 69.9711 75.7056 68.5466 75.7056 67.0072Z" fill="url(#paint3_linear_1312_36859)"/>
<path d="M82.7766 68.7752C83.753 68.7752 84.5445 67.9837 84.5445 67.0074C84.5445 66.031 83.753 65.2395 82.7766 65.2395C81.8003 65.2395 81.0088 66.031 81.0088 67.0074C81.0088 67.9837 81.8003 68.7752 82.7766 68.7752Z" fill="white"/>
<path d="M33.3418 52.9743C33.3418 49.8499 35.8482 47.3171 38.94 47.3171C42.0318 47.3171 44.5382 49.8499 44.5382 52.9743C44.5382 54.2058 44.1487 55.3454 43.4875 56.2742L38.94 63.8171L34.3924 56.2742C33.7312 55.3454 33.3418 54.2058 33.3418 52.9743Z" fill="url(#paint4_linear_1312_36859)"/>
<path d="M38.9401 54.3886C39.713 54.3886 40.3396 53.7554 40.3396 52.9743C40.3396 52.1933 39.713 51.5601 38.9401 51.5601C38.1671 51.5601 37.5405 52.1933 37.5405 52.9743C37.5405 53.7554 38.1671 54.3886 38.9401 54.3886Z" fill="white"/>
</g>
<path fill-rule="evenodd" clip-rule="evenodd" d="M22.6502 84.4V108.201H22.6503V112.515H65.7944C66.9858 112.515 67.9517 111.549 67.9517 110.358C67.9517 109.166 66.9858 108.201 65.7944 108.201H65.7944V84.4C65.7944 80.8654 62.929 78 59.3944 78H29.0502C25.5156 78 22.6502 80.8654 22.6502 84.4Z" fill="#FFE557"/>
<path d="M67.9529 110.358C67.9529 109.166 66.9871 108.2 65.7957 108.2H22.6515V112.515H65.7957C66.9871 112.515 67.9529 111.549 67.9529 110.358Z" fill="url(#paint5_linear_1312_36859)"/>
<path d="M1.07878 112.515H22.6509V85.5498L14.3633 85.5498C12.8949 85.5498 11.615 86.5492 11.2589 87.9737L9.70762 94.1786L2.58278 98.6317C1.64716 99.2164 1.07878 100.242 1.07878 101.345V108.201C0.483082 108.201 0.000175476 108.683 0.000175476 109.279V111.436C0.000175476 112.032 0.483082 112.515 1.07878 112.515Z" fill="url(#paint6_linear_1312_36859)"/>
<path d="M71.728 104.426C71.728 104.128 71.4866 103.886 71.1887 103.886H65.7957V104.965H71.1887C71.4866 104.965 71.728 104.723 71.728 104.426Z" fill="#FFE557"/>
<path d="M86 119.5C86 119.224 85.7761 119 85.5 119H0.5C0.223854 119 0 119.224 0 119.5C0 119.776 0.223854 120 0.5 120H85.5C85.7761 120 86 119.776 86 119.5Z" fill="#C4CDD5"/>
<path d="M68.491 101.189C68.491 100.892 68.2495 100.65 67.9517 100.65H65.7945V101.729H67.9517C68.2495 101.729 68.491 101.487 68.491 101.189Z" fill="#FFE557"/>
<rect width="1.07861" height="1.07861" rx="0.539303" transform="matrix(-1 0 0 1 70.1094 100.65)" fill="#FFE557"/>
<path d="M22.6509 85.5498H16.1792L20.4937 112.515H22.6509V85.5498Z" fill="url(#paint7_linear_1312_36859)"/>
<path fill-rule="evenodd" clip-rule="evenodd" d="M20.4937 96.0663C20.4937 95.6195 20.1315 95.2573 19.6847 95.2573H16.9882C16.5414 95.2573 16.1792 95.6195 16.1792 96.0663C16.1792 96.5131 16.5414 96.8752 16.9882 96.8752H19.6847C20.1315 96.8752 20.4937 96.5131 20.4937 96.0663Z" fill="#C3D4FA"/>
<path d="M22.6509 108.2H2.15739C0.965994 108.2 0.000175476 109.166 0.000175476 110.358C0.000175476 111.549 0.965992 112.515 2.15739 112.515H22.6509V108.2Z" fill="url(#paint8_linear_1312_36859)"/>
<path d="M55.0091 118.987C51.4349 118.987 48.5374 116.09 48.5374 112.515C48.5374 108.941 51.4349 106.044 55.0091 106.044C58.5833 106.044 61.4807 108.941 61.4807 112.515C61.4807 116.09 58.5833 118.987 55.0091 118.987Z" fill="#AFC7D1"/>
<path d="M11.8655 118.987C8.29134 118.987 5.39389 116.09 5.39389 112.515C5.39389 108.941 8.29134 106.044 11.8655 106.044C15.4397 106.044 18.3372 108.941 18.3372 112.515C18.3372 116.09 15.4397 118.987 11.8655 118.987Z" fill="#AFC7D1"/>
<path d="M11.866 114.672C10.6746 114.672 9.70877 113.706 9.70877 112.515C9.70877 111.323 10.6746 110.358 11.866 110.358C13.0574 110.358 14.0232 111.323 14.0232 112.515C14.0232 113.706 13.0574 114.672 11.866 114.672Z" fill="#7790A3"/>
<path d="M55.0098 114.672C53.8184 114.672 52.8526 113.706 52.8526 112.515C52.8526 111.323 53.8184 110.358 55.0098 110.358C56.2012 110.358 57.167 111.323 57.167 112.515C57.167 113.706 56.2012 114.672 55.0098 114.672Z" fill="#7790A3"/>
<path d="M20.4937 90.368C20.4937 88.6007 19.061 87.168 17.2937 87.168H11.4593L9.7076 94.1789H17.2936C19.061 94.1789 20.4937 92.7462 20.4937 90.9789V90.368Z" fill="#8CACF6"/>
<path d="M62.5608 112.515C62.5608 108.345 59.1804 104.965 55.0106 104.965C50.8407 104.965 47.4603 108.345 47.4603 112.515H48.5389C48.5389 108.941 51.4364 106.043 55.0106 106.043C58.5847 106.043 61.4822 108.941 61.4822 112.515H62.5608Z" fill="url(#paint9_linear_1312_36859)"/>
<path d="M19.4155 112.515C19.4155 108.345 16.0352 104.965 11.8653 104.965C7.69541 104.965 4.31505 108.345 4.31505 112.515H5.39366C5.39366 108.941 8.29111 106.043 11.8653 106.043C15.4395 106.043 18.3369 108.941 18.3369 112.515H19.4155Z" fill="#7790A3"/>
<path d="M137.702 58.1984L142.362 46.0537L133.724 43.7802C134.174 47.5977 135.13 55.4468 135.359 56.3029C135.588 57.159 137.017 57.9233 137.702 58.1984Z" fill="#F9CF41"/>
<path d="M112.783 41.8224L115.286 34.0407L102.532 26.6769C103.974 37.3395 106.896 58.9757 107.046 60.2201C107.234 61.7756 107.327 62.5534 107.735 62.7884C108.142 63.0234 111.398 64.9035 112.019 65.0811C112.516 65.2233 112.383 64.869 112.254 64.6741L111.404 63.6403L112.783 41.8224Z" fill="#FFE557"/>
<path d="M109.948 63.3425L110.809 31.4557L102.532 26.6771L107.234 61.7758L109.948 63.3425Z" fill="#F9CF41"/>
<path d="M151.177 34.86L142.989 44.9679L136.701 38.6241C140.232 37.1045 147.507 34.008 148.364 33.7786C149.22 33.5492 150.596 34.4039 151.177 34.86Z" fill="#F9CF41"/>
<path d="M124.535 21.4689L119.047 27.5272L106.293 20.1635C116.248 16.0814 136.447 7.79415 137.599 7.30178C139.04 6.68631 139.761 6.37858 140.168 6.6136C140.575 6.84862 143.831 8.72865 144.295 9.17769C144.667 9.53692 144.294 9.59875 144.06 9.58475L142.74 9.3651L124.535 21.4689Z" fill="#FFE557"/>
<path d="M141.753 8.25317L114.569 24.9422L106.292 20.1636L139.039 6.6864L141.753 8.25317Z" fill="#F9CF41"/>
<path d="M144.688 46.4999L144.576 46.6093L144.537 46.7612C141.176 45.9049 134.013 44.0511 132.299 43.4974C131.215 43.1471 129.039 42.0262 126.945 40.8848C124.844 39.7401 122.807 38.5641 121.993 38.094L93.7703 21.7995C90.9154 20.1512 86.6617 17.1522 85.1208 15.7156C84.3452 14.9925 83.5202 13.9674 82.9374 13.0364C82.6461 12.5712 82.4116 12.1236 82.2747 11.7447C82.2063 11.5555 82.1602 11.3777 82.1455 11.2201C82.131 11.0647 82.1456 10.912 82.2175 10.7875L82.3741 10.5161C82.446 10.3916 82.571 10.3027 82.7128 10.2375C82.8566 10.1714 83.0336 10.1225 83.2317 10.0871C83.6283 10.0162 84.1332 9.99551 84.6817 10.0151C85.7794 10.0544 87.0796 10.2563 88.0937 10.5665C90.1082 11.1826 94.8323 13.3669 97.6873 15.0152L125.91 31.3098C126.725 31.7799 128.761 32.9557 130.803 34.2023C132.838 35.4452 134.897 36.7693 135.743 37.5332C137.079 38.7405 142.266 44.0169 144.688 46.4999Z" fill="url(#paint10_linear_1312_36859)"/>
<path fill-rule="evenodd" clip-rule="evenodd" d="M148.509 48.8783C148.423 49.0282 148.231 49.0795 148.081 48.993L129.085 38.0255C128.935 37.939 128.884 37.7474 128.971 37.5975C129.057 37.4476 129.249 37.3963 129.399 37.4828L148.395 48.4502C148.545 48.5368 148.596 48.7284 148.509 48.8783Z" fill="#F9CF41"/>
<path d="M15 126.372C14.9936 124.479 16.0753 122.813 17.6463 122.295C20.1225 121.497 22.7358 121.465 25.2262 122.201C25.4892 121.225 25.9125 120.318 26.4728 119.528C25.0363 117.194 24.7993 114.143 25.8531 111.549C26.9069 108.955 29.0872 107.223 31.5546 107.02C34.022 106.817 36.3918 108.173 37.7518 110.568C40.0432 108.825 42.9751 108.679 45.3867 110.189C47.7983 111.699 49.3006 114.621 49.2987 117.798C49.2985 118.118 49.2825 118.438 49.2509 118.757C49.5267 118.723 49.8038 118.705 50.0812 118.704C51.4851 118.702 52.8607 119.162 54.0482 120.03C55.6581 116.291 58.9536 113.929 62.5588 113.929C63.1748 113.93 63.7893 113.998 64.394 114.134C65.9757 110.667 69.284 108.749 72.6263 109.361C75.9686 109.974 78.6055 112.98 79.1878 116.844C81.4464 115.226 84.2095 114.86 86.7247 115.845C87.6945 113.936 89.3198 112.595 91.1942 112.157C93.0686 111.72 95.0149 112.228 96.5465 113.555C98.1383 111.484 100.559 110.55 102.904 111.101C105.249 111.652 107.165 113.605 107.936 116.231C110.786 114.422 114.236 114.424 117.084 116.238C119.933 118.052 121.784 121.426 121.995 125.185V125.321C122.055 126.805 121.587 128.253 120.701 129.326C119.815 130.4 118.587 131.005 117.305 131H19.0053C16.7993 131 15.011 128.929 15.0096 126.372H15Z" fill="#E7EEFD"/>
<path d="M157 124.5C157 124.224 156.776 124 156.5 124H71.5C71.2239 124 71 124.224 71 124.5C71 124.776 71.2239 125 71.5 125H156.5C156.776 125 157 124.776 157 124.5Z" fill="#C4CDD5"/>
<path d="M90.2998 90.969H124.375C124.659 90.969 124.888 91.1989 124.888 91.4825V111.222C124.888 111.506 124.659 111.736 124.375 111.736H90.813C90.5295 111.736 90.2998 111.506 90.2998 111.222V90.969Z" fill="#4A90E2"/>
<path d="M90.2998 90.969H107.594V111.736H90.813C90.5295 111.736 90.2998 111.506 90.2998 111.222V90.969Z" fill="url(#paint11_linear_1312_36859)"/>
<path d="M107.594 106.544H100.676V109.14H107.594V106.544Z" fill="#8BDCFB"/>
<path d="M109.323 106.544H107.594V109.14H109.323V106.544Z" fill="#2FB7EC"/>
<path d="M114.527 80.2057C114.527 79.9221 114.757 79.6921 115.04 79.6921H148.603C148.886 79.6921 149.116 79.9221 149.116 80.2057V111.736H115.04C114.757 111.736 114.527 111.506 114.527 111.222V80.2057Z" fill="url(#paint12_linear_1312_36859)"/>
<path d="M114.527 80.2057C114.527 79.9221 114.757 79.6921 115.04 79.6921H138.749V111.736H115.04C114.757 111.736 114.527 111.506 114.527 111.222V80.2057Z" fill="url(#paint13_linear_1312_36859)"/>
<path d="M121.404 79.6921H131.77V87.7031L130.056 86.902L128.315 87.7031L126.587 86.902L124.859 87.7031L123.131 86.902L121.404 87.7031V79.6921Z" fill="#2FB7EC"/>
<path d="M143.501 84.9121H144.366V111.736H143.501V84.9121Z" fill="#2FB7EC"/>
<path d="M142.136 79.6921H145.626V87.7031L143.881 86.902L142.136 87.7031V79.6921Z" fill="#2FB7EC"/>
<path d="M149.1 97.8914H162.936V111.736H149.1V97.8914Z" fill="url(#paint14_linear_1312_36859)"/>
<path d="M159.477 107.842H156.018V109.573H159.477V107.842Z" fill="white"/>
<path d="M159.477 110.005H156.018V110.871H159.477V110.005Z" fill="white"/>
<path d="M138.749 104.855H133.515V107.012H138.749V104.855Z" fill="white"/>
<path d="M138.749 107.525H133.515V108.552H138.749V107.525Z" fill="white"/>
<path d="M141.008 104.855H138.75V107.012H141.008V104.855Z" fill="#BAECFD"/>
<path d="M141.008 107.525H138.75V108.552H141.008V107.525Z" fill="#BAECFD"/>
<path d="M151.694 97.8914H158.612V102.218L156.883 101.353L155.454 102.218L153.424 101.353L151.694 102.218V97.8914Z" fill="#2FB7EC"/>
<path d="M160.342 97.8914H162.936V111.736H160.342V97.8914Z" fill="url(#paint15_linear_1312_36859)"/>
<path d="M77.0002 117.256V104.811H93.4876L98.8556 111.151H170.94L176.308 104.576H200.272L186.66 125.005H81.6014C78.9174 125.005 77.0002 120.779 77.0002 117.256Z" fill="url(#paint16_linear_1312_36859)"/>
<path d="M81.6011 125.005C78.9171 125.005 77 120.779 77 117.256H191.823L186.66 125.005H81.6011Z" fill="#F9CF41"/>
<path d="M196 124.97C194.655 122.318 191.902 120.5 188.725 120.5C185.548 120.5 182.795 122.318 181.45 124.97H196Z" fill="#E7EEFD"/>
<path d="M181.45 124.97C180.762 123.497 179.352 122.487 177.725 122.487C176.098 122.487 174.689 123.497 174 124.97H181.45Z" fill="#E7EEFD"/>
<path d="M170.45 124.97C169.762 126.444 168.352 127.454 166.725 127.454C165.098 127.454 163.689 126.444 163 124.97H170.45Z" fill="#E7EEFD"/>
<path d="M163.45 124.97C162.762 126.444 161.352 127.454 159.725 127.454C158.098 127.454 156.689 126.444 156 124.97H163.45Z" fill="#E7EEFD"/>
</g>
<defs>
<linearGradient id="paint0_linear_1312_36859" x1="30.9849" y1="19.0315" x2="30.9849" y2="146.383" gradientUnits="userSpaceOnUse">
<stop stop-color="#F8FAFB"/>
<stop offset="1" stop-color="#8CACF6"/>
</linearGradient>
<linearGradient id="paint1_linear_1312_36859" x1="172.412" y1="69.7099" x2="172.412" y2="53.21" gradientUnits="userSpaceOnUse">
<stop stop-color="#8CACF6"/>
<stop offset="1" stop-color="#376EEE"/>
</linearGradient>
<linearGradient id="paint2_linear_1312_36859" x1="66.3418" y1="41.4242" x2="66.3418" y2="20.7993" gradientUnits="userSpaceOnUse">
<stop stop-color="#8CACF6"/>
<stop offset="1" stop-color="#376EEE"/>
</linearGradient>
<linearGradient id="paint3_linear_1312_36859" x1="89.8484" y1="80.5607" x2="89.8484" y2="59.9358" gradientUnits="userSpaceOnUse">
<stop stop-color="#8CACF6"/>
<stop offset="1" stop-color="#376EEE"/>
</linearGradient>
<linearGradient id="paint4_linear_1312_36859" x1="44.5382" y1="63.8171" x2="44.5382" y2="47.3171" gradientUnits="userSpaceOnUse">
<stop stop-color="#8CACF6"/>
<stop offset="1" stop-color="#376EEE"/>
</linearGradient>
<linearGradient id="paint5_linear_1312_36859" x1="0.000770569" y1="110.358" x2="0.815179" y2="101.806" gradientUnits="userSpaceOnUse">
<stop stop-color="#F0B616" stop-opacity="0.4"/>
<stop offset="1" stop-color="#FFD560"/>
</linearGradient>
<linearGradient id="paint6_linear_1312_36859" x1="22.6509" y1="85.5498" x2="22.6509" y2="112.515" gradientUnits="userSpaceOnUse">
<stop stop-color="#EEF2F5"/>
<stop offset="1" stop-color="#FFF0BB"/>
</linearGradient>
<linearGradient id="paint7_linear_1312_36859" x1="19.4151" y1="125.998" x2="7.17673" y2="123.06" gradientUnits="userSpaceOnUse">
<stop stop-color="white"/>
<stop offset="1" stop-color="#FFF0BB"/>
</linearGradient>
<linearGradient id="paint8_linear_1312_36859" x1="22.6509" y1="110.358" x2="0.000175476" y2="110.358" gradientUnits="userSpaceOnUse">
<stop stop-color="#AFC7D1" stop-opacity="0.6"/>
<stop offset="1" stop-color="#7790A3" stop-opacity="0.28"/>
</linearGradient>
<linearGradient id="paint9_linear_1312_36859" x1="47.4603" y1="112.515" x2="47.4603" y2="104.965" gradientUnits="userSpaceOnUse">
<stop stop-color="#AFC7D1"/>
<stop offset="1" stop-color="#7790A3"/>
</linearGradient>
<linearGradient id="paint10_linear_1312_36859" x1="110.634" y1="33.5259" x2="116.353" y2="23.6208" gradientUnits="userSpaceOnUse">
<stop stop-color="#FFE557"/>
<stop offset="0.5" stop-color="#FFD560"/>
<stop offset="1" stop-color="#FFE557"/>
</linearGradient>
<linearGradient id="paint11_linear_1312_36859" x1="81.6526" y1="101.352" x2="102.077" y2="118.361" gradientUnits="userSpaceOnUse">
<stop stop-color="#2FB7EC"/>
<stop offset="1" stop-color="#4A90E2"/>
</linearGradient>
<linearGradient id="paint12_linear_1312_36859" x1="141.69" y1="96.8075" x2="150.576" y2="99.3287" gradientUnits="userSpaceOnUse">
<stop stop-color="#8EDDFC"/>
<stop offset="0.973645" stop-color="#CBF1FD"/>
</linearGradient>
<linearGradient id="paint13_linear_1312_36859" x1="126.638" y1="79.6921" x2="134.604" y2="113.88" gradientUnits="userSpaceOnUse">
<stop stop-color="#92DFFC"/>
<stop offset="1" stop-color="#C6F0FD"/>
</linearGradient>
<linearGradient id="paint14_linear_1312_36859" x1="169.854" y1="104.814" x2="156.009" y2="90.9782" gradientUnits="userSpaceOnUse">
<stop stop-color="#CEF2FD"/>
<stop offset="1" stop-color="#8BDCFB"/>
</linearGradient>
<linearGradient id="paint15_linear_1312_36859" x1="164.233" y1="104.814" x2="159.22" y2="103.874" gradientUnits="userSpaceOnUse">
<stop stop-color="#CEF2FD"/>
<stop offset="1" stop-color="#8BDCFB"/>
</linearGradient>
<linearGradient id="paint16_linear_1312_36859" x1="77.0002" y1="104.576" x2="77.0002" y2="125.005" gradientUnits="userSpaceOnUse">
<stop stop-color="#EEF2F5"/>
<stop offset="1" stop-color="#FFF0BB"/>
</linearGradient>
<clipPath id="clip0_1312_36859">
<rect width="200" height="140" fill="white"/>
</clipPath>
</defs>
</svg>
