<svg xmlns="http://www.w3.org/2000/svg" xmlns:xlink="http://www.w3.org/1999/xlink" width="120" height="120" viewBox="0 0 120 120">
    <defs>
        <path id="a" d="M0 0h116.842A3.158 3.158 0 0 1 120 3.158v113.684a3.158 3.158 0 0 1-3.158 3.158H0V0z"/>
        <linearGradient id="c" x1="-.882%" x2="100.789%" y1="50.011%" y2="50.011%">
            <stop offset="0%" stop-color="gray" stop-opacity=".25"/>
            <stop offset="54%" stop-color="gray" stop-opacity=".12"/>
            <stop offset="100%" stop-color="gray" stop-opacity=".1"/>
        </linearGradient>
        <linearGradient id="d" x1="-2.974%" x2="102.968%" y1="49.989%" y2="49.989%">
            <stop offset="0%" stop-color="gray" stop-opacity=".25"/>
            <stop offset="54%" stop-color="gray" stop-opacity=".12"/>
            <stop offset="100%" stop-color="gray" stop-opacity=".1"/>
        </linearGradient>
        <linearGradient id="e" x1="-3.342%" x2="103.053%" y1="49.998%" y2="49.998%">
            <stop offset="0%" stop-color="gray" stop-opacity=".25"/>
            <stop offset="54%" stop-color="gray" stop-opacity=".12"/>
            <stop offset="100%" stop-color="gray" stop-opacity=".1"/>
        </linearGradient>
        <linearGradient id="f" x1="50.022%" x2="50.022%" y1="99.966%" y2="-.022%">
            <stop offset="0%" stop-color="gray" stop-opacity=".25"/>
            <stop offset="54%" stop-color="gray" stop-opacity=".12"/>
            <stop offset="100%" stop-color="gray" stop-opacity=".1"/>
        </linearGradient>
    </defs>
    <g fill="none" fill-rule="evenodd">
        <mask id="b" fill="#fff">
            <use xlink:href="#a"/>
        </mask>
        <use fill="#D8D8D8" fill-opacity="0" xlink:href="#a"/>
        <g mask="url(#b)">
            <path fill="#79D6FA" fill-opacity=".2" fill-rule="nonzero" d="M130.488 78.186c7.123 12.384 9.852 27.596 7.79 41.701H13.278c-3.65-25.404 8.327-51.74 30.934-64.871 1.823-1.039 3.647-2.02 5.528-2.873 29.568-13.481 64.479-2.222 80.747 26.043z"/>
            <path stroke="url(#c)" stroke-width="1.053" d="M12.804 44.416c-.477 1.555.243 3.393 1.64 4.212.586.343 1.26.515 1.829.887 1.234.808 1.721 2.353 2.122 3.776.46 1.635.922 3.364.5 5.01-.269 1.049-.88 1.976-1.228 3.003a6.289 6.289 0 0 0-.297 2.675c.051.479.17.972.497 1.33.472.51 1.233.587 1.916.71a9.306 9.306 0 0 1 6.687 5.197" transform="translate(45.113 33.158)"/>
            <path stroke="#1C4178" stroke-width="1.053" d="M58.064 77.574c-.478 1.555.242 3.393 1.639 4.212.586.343 1.26.515 1.829.887 1.234.808 1.721 2.353 2.122 3.776.46 1.635.922 3.364.5 5.01-.268 1.049-.88 1.976-1.228 3.003a6.289 6.289 0 0 0-.297 2.675c.051.479.17.972.497 1.33.473.51 1.233.587 1.917.71a9.306 9.306 0 0 1 6.686 5.197"/>
            <path stroke="url(#d)" stroke-width="1.053" d="M31.018 32.792c-1.178 1.647-2.4 3.419-2.5 5.444-.154 3.112 2.325 5.657 3.432 8.568.97 2.59.847 5.466-.34 7.964-.54 1.121-1.31 2.235-1.211 3.476.057.758.435 1.447.739 2.144a12.126 12.126 0 0 1-.7 10.913" transform="translate(45.113 33.158)"/>
            <path stroke="#1C4178" stroke-width="1.053" d="M76.276 65.95c-1.176 1.653-2.399 3.42-2.502 5.444-.154 3.112 2.326 5.657 3.433 8.568.97 2.59.847 5.466-.34 7.964-.54 1.121-1.31 2.235-1.211 3.476.057.758.434 1.447.739 2.144a12.126 12.126 0 0 1-.7 10.913"/>
            <path stroke="url(#e)" stroke-width="1.053" d="M47.539 47.611l.569 4.658c.075.62.14 1.294-.191 1.824-.314.5-.903.738-1.36 1.108-1.504 1.216-1.367 3.54-.849 5.405.519 1.865 1.265 3.869.544 5.664-.298.74-.824 1.364-1.211 2.06a6.327 6.327 0 0 0-.751 3.912" transform="translate(45.113 33.158)"/>
            <path stroke="#1C4178" stroke-width="1.053" d="M92.793 80.77l.57 4.657c.075.62.139 1.294-.192 1.824-.314.5-.902.738-1.36 1.108-1.504 1.216-1.367 3.54-.848 5.405.518 1.865-.54 3.869-1.26 5.663-.299.74-.825 1.365-1.212 2.06a6.327 6.327 0 0 0-.751 3.913"/>
            <path fill="#8BDCFB" fill-rule="nonzero" d="M60.105 78.62h-3.208l.562-1.931h1.924z"/>
            <path fill="#92F1D3" fill-rule="nonzero" d="M71.73 58.26c0 7.378-5.96 18.187-13.309 18.187-7.35 0-13.308-10.81-13.308-18.187 0-7.378 5.958-13.359 13.309-13.359 7.35 0 13.309 5.981 13.309 13.359h-.002z"/>
            <path fill="#2FB7EC" fill-rule="nonzero" d="M59.383 76.769h-1.924l-1.123-.643h4.17z"/>
            <path fill="#006BA0" fill-rule="nonzero" d="M53.61 47.878s-5.612 3.058-6.414 9.175" opacity=".1"/>
            <path fill="#1C4178" fill-rule="nonzero" d="M77.509 66.876h-3.208l.562-1.93h1.924zM89.134 46.517c0 7.378-5.96 18.186-13.309 18.186-7.35 0-13.308-10.81-13.308-18.186 0-7.378 5.958-13.36 13.309-13.36 7.35 0 13.309 5.982 13.309 13.36h-.001z"/>
            <path fill="#1C4178" fill-rule="nonzero" d="M76.787 65.025h-1.924l-1.123-.644h4.17z"/>
            <path fill="#FFF" fill-rule="nonzero" d="M71.015 36.135s-5.613 3.058-6.415 9.174" opacity=".1"/>
            <path fill="#2FB7EC" fill-rule="nonzero" d="M94.766 81.85H91.56l.562-1.932h1.923zM106.391 61.49c0 7.378-5.959 18.186-13.308 18.186-7.35 0-13.31-10.808-13.31-18.187 0-7.377 5.959-13.358 13.309-13.358s13.309 5.98 13.309 13.358z"/>
            <path fill="#006BA0" fill-rule="nonzero" d="M94.044 79.998h-1.923l-1.123-.643h4.17z"/>
            <path fill="#FFF" fill-rule="nonzero" d="M88.272 51.108s-5.612 3.058-6.414 9.174" opacity=".1"/>
            <path fill="url(#f)" fill-rule="nonzero" d="M15.434 1.147C14.663.37 13.537.06 12.265.276c-1.19.202-2.38.851-3.352 1.824-.281.284-.518.61-.701.965a3.941 3.941 0 0 0-.695-1C6.562 1.074 5.382.406 4.19.187c-1.267-.243-2.397.053-3.183.816-.786.764-1.109 1.888-.912 3.168.184 1.196.811 2.401 1.767 3.39C3.872 9.64 7.88 8.829 8.05 8.792l.05-.01.153.035c.17.039 4.164.92 6.207-1.125.97-.973 1.62-2.166 1.826-3.36.224-1.278-.08-2.407-.852-3.185zM7.376 7.59c-.969.131-3.383.309-4.581-.933-.77-.798-1.275-1.752-1.419-2.687-.13-.85.058-1.58.536-2.04a1.79 1.79 0 0 1 .653-.401c.45-.147.932-.171 1.395-.07.926.173 1.86.708 2.631 1.507 1.198 1.233.946 3.655.785 4.623v.001zm7.645-3.479c-.16.932-.68 1.878-1.464 2.662-1.22 1.216-3.634 1-4.598.851-.144-.973-.354-3.391.865-4.612.785-.784 1.729-1.303 2.657-1.46.465-.091.946-.058 1.394.096.243.09.464.23.647.413.468.47.645 1.198.5 2.049v.001z" opacity=".5" transform="translate(67.887 82.98)"/>
            <path fill="#1C4178" fill-rule="nonzero" d="M76.33 91.507l-.381.08c-.163.034-3.998.811-5.92-1.18-.914-.945-1.515-2.098-1.696-3.243-.19-1.225.12-2.3.872-3.032.751-.73 1.833-1.008 3.045-.78 1.135.213 2.264.85 3.178 1.798 1.921 1.99 1.027 5.815.988 5.976l-.086.38zm-5.636-6.869a1.712 1.712 0 0 0-.625.384c-.456.444-.638 1.137-.513 1.953.138.894.62 1.807 1.358 2.572 1.147 1.188 3.458 1.018 4.384.892.154-.925.396-3.238-.75-4.426-.739-.763-1.633-1.276-2.52-1.442a2.569 2.569 0 0 0-1.334.067z"/>
            <path fill="#1C4178" fill-rule="nonzero" d="M75.763 91.524l-.084-.382c-.037-.163-.865-4.001 1.09-5.958.93-.93 2.069-1.549 3.208-1.742 1.211-.207 2.293.088 3.028.833.735.744 1.03 1.824.82 3.04-.196 1.141-.816 2.283-1.747 3.213-1.955 1.957-5.777 1.113-5.935 1.076l-.38-.08zm5.754-6.776a2.569 2.569 0 0 0-1.332-.092c-.89.151-1.792.649-2.544 1.399-1.168 1.168-.97 3.483-.827 4.412.924.141 3.232.352 4.398-.816.751-.751 1.248-1.656 1.402-2.553.14-.813-.03-1.51-.479-1.961a1.712 1.712 0 0 0-.618-.39z"/>
            <path fill="#FFD560" fill-rule="nonzero" d="M59.631 92.76h32.484V120H59.63z"/>
            <path fill="#FFC72C" fill-rule="nonzero" d="M72.813 97.485h6.12v22.403h-6.12z"/>
            <path fill="#000" fill-rule="nonzero" d="M59.632 91.342h32.483v6.616H59.632z" opacity=".1"/>
            <path fill="#FFE380" fill-rule="nonzero" d="M57.749 90.869h36.25v6.616h-36.25z"/>
            <path fill="#FFC72C" fill-rule="nonzero" d="M72.813 90.869h6.12v6.616h-6.12z"/>
        </g>
    </g>
</svg>
