<svg xmlns="http://www.w3.org/2000/svg" width="221" height="110" fill="none" viewBox="0 0 221 110">
    <path fill="#8CACF6" fill-opacity=".4" fill-rule="evenodd" d="M13 15h170V7.645c0-.908-.736-1.645-1.645-1.645H14.645C13.735 6 13 6.737 13 7.645V15z" clip-rule="evenodd"/>
    <path fill="#E7EEFD" d="M13 15H183V110H13z"/>
    <path fill="#376EEE" fill-rule="evenodd" d="M23 31.947c0-.523.46-.947 1.029-.947H171.97c.567 0 1.029.424 1.029.947V110H23V31.947z" clip-rule="evenodd"/>
    <path fill="#fff" d="M71.204 39.524H30.308c-.17 0-.308.127-.308.285v40.97c0 .157.138.285.308.285h40.896c.17 0 .308-.128.308-.284l-.308-41.256z"/>
    <path fill="#fff" fill-rule="evenodd" d="M117.881 39.73H76.985c-.17 0-.31.138-.31.308V80.96c0 .17.14.309.31.309h40.896c.17 0 .308-.138.308-.31V40.04c0-.171-.138-.31-.308-.31zM165.584 39.524h-40.896c-.17 0-.309.138-.309.309v40.921c0 .171.139.31.309.31h40.896c.17 0 .309-.139.309-.31V39.832c0-.17-.139-.308-.309-.308z" clip-rule="evenodd"/>
    <path fill="#fff" fill-rule="evenodd" d="M165.584 39.524h-40.896c-.17 0-.309.138-.309.309v40.921c0 .171.139.31.309.31h40.896c.17 0 .309-.139.309-.31V39.832c0-.17-.139-.308-.309-.308z" clip-rule="evenodd"/>
    <path fill="#8CACF6" fill-opacity=".4" fill-rule="evenodd" d="M77 88.233c0-.129.14-.233.312-.233h41.377c.171 0 .311.104.311.233V110H77V88.233zM30 88.231c0-.128.14-.231.312-.231h41.377c.171 0 .31.103.31.231V110H30V88.231zM124 88.234c0-.13.14-.234.312-.234h41.376c.171 0 .312.105.312.234V110h-42V88.234z" clip-rule="evenodd"/>
    <path fill="#C3D4FA" fill-rule="evenodd" d="M109.481 71.192H81.326c-.51 0-.924.415-.924.927 0 .51.414.925.924.925h28.155c.51 0 .926-.415.926-.925 0-.512-.416-.927-.926-.927zM91.704 74.688h-10.48c-.454 0-.822.37-.822.823 0 .455.368.822.821.822h10.481c.455 0 .822-.367.822-.822 0-.454-.367-.823-.822-.823zM65.078 71.192H36.924c-.51 0-.924.415-.924.927 0 .51.413.925.924.925h28.154c.511 0 .926-.415.926-.925 0-.512-.415-.927-.926-.927zM47.302 74.688H36.821c-.453 0-.821.37-.821.823 0 .455.368.822.821.822h10.481c.454 0 .822-.367.822-.822 0-.454-.368-.823-.822-.823zM160.446 71.192h-28.154c-.511 0-.924.415-.924.927 0 .51.413.925.924.925h28.154c.51 0 .925-.415.925-.925 0-.512-.415-.927-.925-.927zM137.122 74.688h-4.933c-.453 0-.821.37-.821.823 0 .455.368.822.821.822h4.933c.453 0 .821-.367.821-.822 0-.454-.368-.823-.821-.823z" clip-rule="evenodd"/>
    <path fill="#8CACF6" fill-rule="evenodd" d="M17.747 12.143c.965 0 1.747-.782 1.747-1.748 0-.965-.782-1.747-1.747-1.747-.965 0-1.747.782-1.747 1.747 0 .966.782 1.748 1.747 1.748zM22.747 12.143c.965 0 1.747-.782 1.747-1.748 0-.965-.782-1.747-1.747-1.747-.965 0-1.747.782-1.747 1.747 0 .966.782 1.748 1.747 1.748zM27.747 12.143c.965 0 1.746-.782 1.746-1.748 0-.965-.781-1.747-1.746-1.747S26 9.43 26 10.395c0 .966.782 1.748 1.747 1.748z" clip-rule="evenodd"/>
    <path fill="#FFC72C" d="M100.494 38.904c0 10.125-8.26 18.333-18.44 18.333-1.144 0-2.266-.106-3.352-.305l-8.477 3.32.602-6.715.206.072c-4.502-3.343-7.425-8.688-7.425-14.705 0-10.128 8.261-18.34 18.445-18.34 10.182 0 18.441 8.212 18.441 18.34z"/>
    <mask id="prefix__a" width="38" height="41" x="63" y="20" maskUnits="userSpaceOnUse">
        <path fill="#fff" d="M100.494 38.904c0 10.125-8.26 18.333-18.44 18.333-1.144 0-2.266-.106-3.352-.305l-8.477 3.32.602-6.715.206.072c-4.502-3.343-7.425-8.688-7.425-14.705 0-10.128 8.261-18.34 18.445-18.34 10.182 0 18.441 8.212 18.441 18.34z"/>
    </mask>
    <g mask="url(#prefix__a)">
        <path fill="url(#prefix__paint0_linear)" fill-opacity=".2" fill-rule="evenodd" d="M90.574 61.1L75.822 16.45l-23.339-.968V61.1h38.09z" clip-rule="evenodd"/>
    </g>
    <path fill="#FFC72C" d="M133.2 76.989c0 10.125-8.259 18.333-18.441 18.333-1.143 0-2.265-.106-3.351-.306l-8.477 3.322.602-6.717.206.072c-4.502-3.342-7.425-8.687-7.425-14.704 0-10.128 8.261-18.34 18.445-18.34 10.182 0 18.441 8.212 18.441 18.34z"/>
    <mask id="prefix__b" width="38" height="41" x="96" y="58" maskUnits="userSpaceOnUse">
        <path fill="#fff" d="M133.2 76.989c0 10.125-8.259 18.333-18.441 18.333-1.143 0-2.265-.106-3.351-.306l-8.477 3.322.602-6.717.206.072c-4.502-3.342-7.425-8.687-7.425-14.704 0-10.128 8.261-18.34 18.445-18.34 10.182 0 18.441 8.212 18.441 18.34z"/>
    </mask>
    <g mask="url(#prefix__b)">
        <path fill="url(#prefix__paint1_linear)" fill-opacity=".2" fill-rule="evenodd" d="M123.28 99.184l-14.752-44.65-23.339-.967v45.617h38.091z" clip-rule="evenodd"/>
    </g>
    <path fill="#fff" d="M88.816 41.632c-.276-.12-.538-.261-.762-.47-.635-.59-1.06-1.3-1.165-2.173-.044-.411-.044-.83.053-1.24.127-.545.388-1.023.784-1.426.254-.254.515-.5.769-.754.157-.157.186-.389.052-.56-.284-.359-.597-.695-.97-.971-.464-.351-.986-.59-1.554-.725-.403-.09-.806-.142-1.224-.104-.695.067-1.36.261-2.017.485-.522.172-1.03.224-1.568.067-.62-.186-1.247-.358-1.897-.433-.664-.074-1.306-.03-1.934.21-.784.298-1.389.806-1.874 1.486-.359.5-.627 1.045-.806 1.635-.21.68-.307 1.381-.307 1.762-.03 1.008.067 1.68.21 2.345.111.508.268 1 .455 1.486.44 1.157 1.015 2.233 1.8 3.188.418.508.896.949 1.5 1.218.389.172.792.239 1.203.172.433-.068.851-.225 1.262-.381.261-.097.523-.187.799-.232.44-.075.859.008 1.277.135.44.134.866.29 1.306.41.665.18 1.278.097 1.86-.261.724-.448 1.262-1.083 1.732-1.777.523-.784.964-1.613 1.247-2.517.09-.254.008-.478-.231-.575zM81.707 32.895l.231-.022c.53-.045 1.031-.157 1.479-.47.336-.24.627-.516.889-.83.32-.388.59-.814.754-1.291.12-.344.157-.71.194-1.068.022-.217.022-.426.037-.642.023-.337-.209-.605-.582-.516-.374.09-.74.202-1.09.366-.53.247-1.016.56-1.39 1.023-.671.83-.963 1.8-1.022 2.853v.172c0 .298.201.47.5.425z"/>
    <path fill="#FFC72C" d="M182.885 18.34c0 10.125-8.259 18.333-18.44 18.333-1.144 0-2.266-.106-3.352-.305l-8.476 3.321.601-6.716.207.072C148.922 29.703 146 24.357 146 18.34 146 8.213 154.261 0 164.445 0c10.181 0 18.44 8.213 18.44 18.34z"/>
    <mask id="prefix__c" width="38" height="40" x="145" y="0" maskUnits="userSpaceOnUse">
        <path fill="#fff" d="M182.885 18.34c0 10.125-8.259 18.333-18.44 18.333-1.144 0-2.266-.106-3.352-.305l-8.476 3.321.601-6.716.207.072C148.922 29.703 146 24.357 146 18.34 146 8.213 154.261 0 164.445 0c10.181 0 18.44 8.213 18.44 18.34z"/>
    </mask>
    <g mask="url(#prefix__c)">
        <path fill="url(#prefix__paint2_linear)" fill-opacity=".2" fill-rule="evenodd" d="M172.965 40.536l-14.752-44.65-23.338-.968v45.618h38.09z" clip-rule="evenodd"/>
    </g>
    <path fill="#fff" d="M155.41 22.846c-.673-.026-1.224-.21-1.654-.553-.083-.065-.278-.261-.344-.344-.175-.22-.293-.433-.373-.67-.243-.73-.118-1.687.359-2.738.408-.9 1.038-1.792 2.138-3.028.161-.182.644-.714.647-.714.001 0-.025.046-.058.101-.286.48-.531 1.043-.664 1.531-.214.783-.188 1.456.076 1.977.182.359.494.67.844.842.614.3 1.514.326 2.612.073.075-.018 3.821-1.012 8.324-2.21s8.188-2.178 8.189-2.177c.001.001-10.462 4.478-15.894 6.801-.86.368-1.09.46-1.494.603-1.034.363-1.96.536-2.708.506zM124.157 83.473c-1.066 0-1.698-.546-1.746-1.331h1.019c0 .261.145.61.775.632.437 0 .679-.262.679-.459-.048-.305-.437-.327-.824-.394-.437-.063-.775-.151-1.019-.26-.339-.175-.534-.547-.534-.939 0-.699.584-1.244 1.602-1.244.971 0 1.601.502 1.648 1.266h-.969c0-.195-.049-.524-.631-.524-.389 0-.631.065-.679.349 0 .393.824.372 1.455.523.582.154.971.524.971 1.05 0 .96-.776 1.33-1.747 1.33zM105.584 77.026l3.346-1.943 1.795 3.08h-4.51M112.621 83.357V79.47v3.887z"/>
    <path stroke="#fff" stroke-width=".979" d="M112.621 83.357V79.47"/>
    <path fill="#fff" fill-rule="evenodd" d="M103.11 81.471c0 1.113.921 2.008 1.987 2.008.437 0 .874-.11 1.164-.328v.24h.971v-3.863h-.971v.305c-.338-.239-.727-.349-1.164-.349-1.066 0-1.987.874-1.987 1.987zm2.035 1.113c-.58 0-1.114-.502-1.114-1.113 0-.589.534-1.113 1.114-1.113.633 0 1.116.524 1.116 1.113 0 .61-.483 1.113-1.116 1.113z" clip-rule="evenodd"/>
    <path fill="#fff" d="M118.049 78.162l-4.656-8.121 3.346-1.965 5.82 10.086"/>
    <path fill="#fff" fill-rule="evenodd" d="M107.573 81.471c0 1.113.872 2.008 1.988 2.008.435 0 .824-.11 1.164-.328v.24h.969v-5.194h-.969v1.636c-.34-.239-.729-.349-1.164-.349-1.116 0-1.988.874-1.988 1.987zm2.036 1.113c-.63 0-1.116-.502-1.116-1.113 0-.589.486-1.113 1.116-1.113.581 0 1.116.524 1.116 1.113 0 .61-.535 1.113-1.116 1.113z" clip-rule="evenodd"/>
    <path fill="#fff" d="M109.513 73.556l3.395-1.92 3.735 6.525h-3.542v.961h-.969v-.96"/>
    <path fill="#fff" fill-rule="evenodd" d="M117.948 81.471c0 1.113.873 2.008 1.987 2.008.437 0 .826-.11 1.164-.328v.24h.923v-3.863h-.923v.305c-.338-.239-.727-.349-1.164-.349-1.114 0-1.987.874-1.987 1.987zm2.037 1.113c-.631 0-1.116-.502-1.116-1.113 0-.589.485-1.113 1.116-1.113.582 0 1.114.524 1.114 1.113 0 .61-.532 1.113-1.114 1.113zM117.611 78.197h-.969v1.636c-.292-.239-.681-.349-1.116-.349-1.116 0-2.037.874-2.037 1.987s.921 2.008 2.037 2.008c.435 0 .824-.11 1.116-.328v.24h.969v-5.194zm-2.085 4.387c-.582 0-1.116-.502-1.116-1.113 0-.589.534-1.113 1.116-1.113.631 0 1.116.524 1.116 1.113 0 .61-.485 1.113-1.116 1.113z" clip-rule="evenodd"/>
    <path fill="#8BDCFB" fill-rule="evenodd" d="M160 70.637c0-.351.285-.637.637-.637h41.65c.351 0 .713.286.713.637V110h-42.5c-.352 0-.5-.52-.5-.872v-38.49z" clip-rule="evenodd"/>
    <path fill="#CEF2FD" fill-rule="evenodd" d="M160 70.5c0-.352.148-.5.5-.5H190v40h-29.5c-.5 0-.5-.336-.5-.688V70.5z" clip-rule="evenodd"/>
    <path fill="#2FB7EC" fill-rule="evenodd" d="M168.533 70h12.864v9.942l-2.127-.995-2.161.995-2.143-.995-2.144.995-2.145-.995-2.144.995V70zM194.262 70h4.331v9.942l-2.165-.995-2.166.995V70zM203 110h17.169V92.585L203 92.5V110z" clip-rule="evenodd"/>
    <path fill="#fff" fill-rule="evenodd" d="M184 107h6v-3h-6v3z" clip-rule="evenodd"/>
    <path fill="#BAECFD" fill-rule="evenodd" d="M190 107h3v-3h-3v3z" clip-rule="evenodd"/>
    <path fill="#1A4379" fill-opacity=".5" fill-rule="evenodd" d="M207 92.585h8.584v5.368l-2.146-1.073-1.773 1.073-2.519-1.073L207 97.953v-5.368z" clip-rule="evenodd"/>
    <path fill="#376EEE" fill-rule="evenodd" d="M0 93.504C0 93.226.239 93 .534 93h16.932c.295 0 .534.226.534.504v15.992c0 .278-.239.504-.534.504H.534c-.295 0-.534-.226-.534-.504V93.504z" clip-rule="evenodd"/>
    <path fill="#8CACF6" fill-rule="evenodd" d="M5.194 98.197h6.926V93H5.194v5.197z" clip-rule="evenodd"/>
    <defs>
        <linearGradient id="prefix__paint0_linear" x1="45.92" x2="56.571" y1="21.416" y2="63.098" gradientUnits="userSpaceOnUse">
            <stop stop-color="#fff"/>
            <stop offset="1" stop-color="#FFD138"/>
        </linearGradient>
        <linearGradient id="prefix__paint1_linear" x1="78.626" x2="89.277" y1="59.501" y2="101.183" gradientUnits="userSpaceOnUse">
            <stop stop-color="#fff"/>
            <stop offset="1" stop-color="#FFD138"/>
        </linearGradient>
        <linearGradient id="prefix__paint2_linear" x1="128.311" x2="138.962" y1=".852" y2="42.534" gradientUnits="userSpaceOnUse">
            <stop stop-color="#fff"/>
            <stop offset="1" stop-color="#FFD138"/>
        </linearGradient>
    </defs>
</svg>
