<svg xmlns="http://www.w3.org/2000/svg" xmlns:xlink="http://www.w3.org/1999/xlink" width="295" height="140" viewBox="0 0 295 140">
    <defs>
        <path id="a" d="M0 0h295v140H0z"/>
    </defs>
    <g fill="none" fill-rule="evenodd">
        <mask id="b" fill="#fff">
            <use xlink:href="#a"/>
        </mask>
        <path fill="#FFF6D8" d="M273.133 0v25.863h-19.739V0h-73.457v19.763h-7.712v-9.221h-22.627V19.6h-6.724V0h-41.486v27.01h-74.77v16.641l-7.867-.164H0l.178 82.522H295V0z" mask="url(#b)"/>
        <path fill="#FFF" d="M118.662 31.408h10.393V11.806h-10.393zM40.124 44.952h8.209v-8.197h-8.209zM56.303 44.952h8.209v-8.197h-8.209zM40.124 58.852h8.209v-8.198h-8.209zM56.303 58.852h8.209v-8.198h-8.209zM73.371 44.952h8.209v-8.197H73.37zM89.55 44.952h8.208v-8.197H89.55zM73.371 58.852h8.209v-8.198H73.37zM89.55 58.852h8.208v-8.198H89.55zM279.652 15.905h8.21V7.708h-8.21zM279.652 29.804h8.21v-8.197h-8.21zM279.652 43.705h8.21v-8.198h-8.21z" mask="url(#b)"/>
        <path fill="#8ED2F3" d="M32.193 108.774c0 4.618-3.748 8.366-8.372 8.366-4.625 0-8.378-3.748-8.378-8.366 0-1.558.43-3.02 1.176-4.267.011-.023.022-.045.04-.068 1.842-3.324 1.074-6.407.813-7.225-.039-.136-.068-.209-.068-.209a6.675 6.675 0 0 1-.276-1.913c0-.645.091-1.269.262-1.859.174-.6.35-.883.62-1.46.47-1.01.814-2.027.977-2.7.174-.708.332-1.794.136-3.217l-.006-.011a.636.636 0 0 0-.022-.107 1.495 1.495 0 0 0-.034-.158.114.114 0 0 0-.01-.045c-.007-.017-.007-.029-.007-.029a4.903 4.903 0 0 1-.079-.874c0-2.681 2.17-5.43 4.856-5.43 2.68 0 4.855 2.749 4.855 5.43 0 .135-.005.27-.017.4 0 .023-.002.06-.005.102-.111 1.956-.27 2.157-.269 2.882 0 0 .003 1.752 1.094 3.502.021.035.079.125.153.255a6.659 6.659 0 0 1 .6 5.232l-.018.051c-.011.022-.017.051-.028.09a1.486 1.486 0 0 0-.068.203l-.017.051c-.293 1.016-.882 3.833.621 6.644a8.3 8.3 0 0 1 1.47 4.73" mask="url(#b)"/>
        <path stroke="#3B96D1" stroke-linecap="round" stroke-linejoin="round" d="M23.818 89.497v36.48M23.818 96.906l2.743-2.739M20.754 98.106l3.051 3.047M23.818 105.091c0-.07 2.608-2.604 2.608-2.604M20.754 106.855l3.063 3.06" mask="url(#b)"/>
        <path fill="#8ED2F3" d="M282.242 108.79c0 4.618-3.749 8.366-8.373 8.366-4.624 0-8.377-3.748-8.377-8.366 0-1.557.43-3.02 1.176-4.267.011-.023.022-.045.04-.067 1.842-3.325 1.073-6.407.813-7.226-.04-.135-.068-.209-.068-.209a6.675 6.675 0 0 1-.276-1.913c0-.645.09-1.269.262-1.858.173-.6.35-.883.62-1.461.47-1.01.813-2.027.977-2.699.173-.709.332-1.795.135-3.217l-.005-.012a.636.636 0 0 0-.022-.107 1.495 1.495 0 0 0-.034-.158.114.114 0 0 0-.011-.045c-.006-.017-.006-.029-.006-.029a4.903 4.903 0 0 1-.08-.874c0-2.681 2.171-5.43 4.856-5.43 2.68 0 4.856 2.749 4.856 5.43 0 .135-.006.271-.017.4 0 .024-.002.06-.005.102-.111 1.956-.27 2.158-.269 2.882 0 0 .003 1.752 1.094 3.503.021.035.079.125.153.254a6.659 6.659 0 0 1 .6 5.232l-.018.051c-.012.023-.017.051-.028.09a1.486 1.486 0 0 0-.068.204 5.122 5.122 0 0 1-.017.05c-.294 1.017-.882 3.833.621 6.645a8.3 8.3 0 0 1 1.47 4.73" mask="url(#b)"/>
        <path stroke="#3B96D1" stroke-linecap="round" stroke-linejoin="round" d="M273.866 89.514v36.48M273.866 96.922l2.744-2.739M270.803 98.122l3.051 3.047M273.866 105.107c0-.07 2.609-2.604 2.609-2.604M270.803 106.871l3.063 3.06" mask="url(#b)"/>
        <path fill="#4DC1BD" d="M62.627 100.986c0 6.706-5.443 12.148-12.158 12.148s-12.166-5.442-12.166-12.148c0-2.262.624-4.386 1.708-6.197a.585.585 0 0 1 .057-.098c2.676-4.828 1.56-9.304 1.182-10.493a4.02 4.02 0 0 0-.099-.303 9.674 9.674 0 0 1-.402-2.779c0-.936.133-1.842.381-2.699.253-.87.508-1.281.9-2.121.684-1.467 1.182-2.943 1.42-3.918.252-1.031.482-2.607.197-4.673l-.009-.016a.824.824 0 0 0-.032-.156 2.037 2.037 0 0 0-.05-.23.163.163 0 0 0-.015-.065c-.009-.024-.009-.042-.009-.042a7.04 7.04 0 0 1 6.937-8.311c3.891 0 7.052 3.147 7.052 7.041 0 .197-.009.394-.025.582l-.009.148c-.16 2.84-.39 3.132-.389 4.184 0 .001.003 2.546 1.588 5.087.031.05.115.182.222.369a9.674 9.674 0 0 1 .87 7.599l-.024.074c-.016.032-.025.073-.041.13a1.99 1.99 0 0 0-.1.296l-.023.073c-.427 1.477-1.281 5.567.903 9.649a12.06 12.06 0 0 1 2.134 6.87" mask="url(#b)"/>
        <path stroke="#03918B" stroke-linecap="round" stroke-linejoin="round" d="M50.465 72.993v52.975M50.465 83.751l3.984-3.977M46.015 85.493l4.431 4.425M50.465 95.637c0-.102 3.787-3.782 3.787-3.782M46.015 98.2l4.45 4.442" mask="url(#b)"/>
        <path fill="#F5F9FA" d="M211.381 116.985h-5.755a.27.27 0 0 0-.27.27v3.931c0 .148.121.27.27.27h5.755a.27.27 0 0 0 .27-.27v-3.93a.271.271 0 0 0-.27-.27" mask="url(#b)"/>
        <path fill="#8ED2F3" d="M128.242 72.696v53.38H84.7v-20.183c0-1.454 1.036-2.703 2.5-3.23 2.144-1.097 4.287-2.184 6.422-3.281V84.96c0-6.778 6.413-12.264 14.318-12.264h20.302z" mask="url(#b)"/>
        <path fill="#F5F9FA" d="M97.643 99.384V87.14c0-5.749 4.79-10.41 10.7-10.41h15.18v22.653h-25.88z" mask="url(#b)"/>
        <path fill="#FFF" d="M116.93 103.564h6.592v-1.18h-6.591z" mask="url(#b)"/>
        <path fill="#FEFEFE" d="M87.581 114.75h-5.756a.27.27 0 0 0-.27.27v3.931c0 .148.122.27.27.27h5.756a.27.27 0 0 0 .27-.27v-3.931a.27.27 0 0 0-.27-.27" mask="url(#b)"/>
        <path fill="#36B6E9" d="M212.222 126.075H82.99a.648.648 0 0 0-.647.646v4.98c0 .356.29.646.647.646h129.232c.356 0 .647-.29.647-.646v-4.98a.648.648 0 0 0-.647-.646" mask="url(#b)"/>
        <path fill="#F7A79A" d="M102.786 84.375s-.048 3.335 0 3.636c.047.301.115.826.963 1.105 0 0 .145.012.306-.011a.714.714 0 0 0 .298-.1c.212-.146.838-.325 1.139.177.301.503.257 1.44.257 1.44s.983.345 1.106-.19c.123-.536 3.993-8.254-4.069-6.057" mask="url(#b)"/>
        <path fill="#FFD560" d="M104.839 99.377c-.514-1.68-1.118-3.813-1.157-4.64-.066-1.45 1.855-3.413 2.067-4.116 0 0 .749.079 1.106-.19 0 0 .999.005 1.695-.254 0 0 1.03.3 1.321 1.839.29 1.539 1.072 5.42 1.072 5.42l.368 1.94h-6.472z" mask="url(#b)"/>
        <path fill="#231F20" d="M104.865 90.992l1.074-3.884s.715-.171.692-.722c-.022-.55-.558-1.04-.96-.17 0 0-1.318.178-2.502-1.25l-.335-.4s-.29-.492.535-1.295c.827-.803 2.816-1.495 4.358-.245.863.7 1.588 1.808 1.994 2.933l2.098 4.772-6.954.26z" mask="url(#b)"/>
        <path fill="#231F20" d="M103.767 86.217c0 .132-.066.24-.151.24-.084.002-.154-.105-.155-.237-.001-.132.067-.24.15-.24.085-.001.155.105.156.237" mask="url(#b)"/>
        <path stroke="#231F20" stroke-linecap="round" stroke-linejoin="round" stroke-width=".15" d="M103.415 87.475s-.108.3-.495.309M102.754 86.455s-.108.5-.045.555c.065.055.21 0 .21 0" mask="url(#b)"/>
        <path fill="#231F20" d="M103.279 85.614h.992s-.6-.403-.992 0" mask="url(#b)"/>
        <path fill="#E4866E" d="M104.119 87.218a.604.604 0 1 0 1.208-.001.604.604 0 0 0-1.208.001" mask="url(#b)"/>
        <path fill="#FFC72C" d="M105.37 99.377c1.007-1.334 1.622-2.933 1.622-2.933l.845-2.295c.313-2.097-.804-2.722-2.055-2.276 0 0-.719.18-.93.988l-2.042 5.765-1.687.748" mask="url(#b)"/>
        <path fill="#36B6E9" d="M103.287 119.22c-5.525 0-10.005 4.474-10.005 9.991 0 5.517 4.48 9.99 10.005 9.99 5.526 0 10.005-4.473 10.005-9.99s-4.48-9.99-10.005-9.99z" mask="url(#b)"/>
        <path fill="#FFF" d="M110.183 129.211c0-3.803-3.087-6.886-6.896-6.886-3.808 0-6.896 3.083-6.896 6.886s3.088 6.886 6.896 6.886c3.809 0 6.896-3.083 6.896-6.886" mask="url(#b)"/>
        <path fill="#8ED2F3" d="M108.907 129.211c0-3.099-2.517-5.611-5.62-5.611a5.615 5.615 0 0 0-5.62 5.611 5.616 5.616 0 0 0 5.62 5.611 5.616 5.616 0 0 0 5.62-5.611M130 126h73V53h-73z" mask="url(#b)"/>
        <path fill="#3B96D1" d="M203 126h26V53h-26z" mask="url(#b)"/>
        <path fill="#1A4278" d="M136 100h5V79h-5zM208 100h5V79h-5zM209 126h7v-3h-7zM180 100h13v-2h-13zM182 84h4l-1.999-3zM183 96h2V84h-2zM187 84h4l-1.999-3zM188 96h2V84h-2z" mask="url(#b)"/>
        <path fill="#8ED2F3" d="M126 47h77v19h-77z" mask="url(#b)"/>
        <path fill="#3B96D1" d="M203 47h29v19h-29z" mask="url(#b)"/>
        <path fill="#1A4278" d="M130 66h73v4h-73zM203 66h26v4h-26z" mask="url(#b)"/>
        <path stroke="#FEFEFE" stroke-linecap="round" stroke-linejoin="round" stroke-width="2" d="M221 106.556h23M232.48 99.607h21.02M221 99.618h8.18M221 92.658h32.5" mask="url(#b)"/>
        <path fill="#36B6E9" d="M201.7 129.211c0-5.517-4.478-9.99-10.003-9.99-5.527 0-10.006 4.473-10.006 9.99s4.48 9.99 10.006 9.99c5.525 0 10.004-4.473 10.004-9.99" mask="url(#b)"/>
        <path fill="#FFF" d="M198.592 129.211c0-3.803-3.087-6.886-6.895-6.886-3.809 0-6.896 3.083-6.896 6.886s3.087 6.886 6.896 6.886c3.808 0 6.895-3.083 6.895-6.886" mask="url(#b)"/>
        <path fill="#8ED2F3" d="M197.315 129.211c0-3.099-2.515-5.611-5.618-5.611a5.615 5.615 0 0 0-5.62 5.611 5.616 5.616 0 0 0 5.62 5.611 5.616 5.616 0 0 0 5.618-5.611" mask="url(#b)"/>
    </g>
</svg>
