<svg xmlns="http://www.w3.org/2000/svg" xmlns:xlink="http://www.w3.org/1999/xlink" width="300" height="200" viewBox="0 0 300 200">
    <defs>
        <path id="a" d="M0 0h300v200H0z"/>
        <linearGradient id="c" x1="100%" y1="0%" y2="100%">
            <stop offset="0%" stop-color="#8CACF6"/>
            <stop offset="100%" stop-color="#376EEE"/>
        </linearGradient>
        <linearGradient id="d" x1="10.255%" x2="89.745%" y1="100%" y2="0%">
            <stop offset="0%" stop-color="#FFF"/>
            <stop offset="100%" stop-color="#E7EEFD"/>
        </linearGradient>
        <path id="e" d="M13.433 0l13.433 13.433H0z"/>
        <path id="f" d="M6.716 13.433h13.433v24.179H6.716z"/>
        <path id="g" d="M49.366 77.896h106.12l6.38 39.963H43.993z"/>
        <path id="h" d="M188.06 48.358l16.12 16.12h-16.12z"/>
        <linearGradient id="i" x1="100%" x2="0%" y1="49.426%" y2="51.42%">
            <stop offset="0%" stop-color="#FFE380"/>
            <stop offset="100%" stop-color="#FFD560"/>
        </linearGradient>
    </defs>
    <g fill="none" fill-rule="evenodd">
        <mask id="b" fill="#fff">
            <use xlink:href="#a"/>
        </mask>
        <use fill="#D8D8D8" fill-opacity="0" xlink:href="#a"/>
        <g mask="url(#b)">
            <g transform="translate(10 10)">
                <path fill="#E7EEFD" fill-rule="nonzero" d="M48.042 177.313c-25.79 0-46.699-21.109-46.699-47.149s21.647-47.15 43.948-47.15c.519 0 4.772-.016 5.288 0 0-42.834 37.631-62.865 75.295-62.865 26.796 0 50.43 13.673 64.43 34.486a30.765 30.765 0 0 1 13.401-3.053c17.194 0 31.133 14.073 31.133 31.433 0 .89-.037 1.772-.109 2.644 18.194 6.442 31.241 23.935 31.241 44.505 0 26.04-20.908 47.15-46.699 47.15"/>
                <path fill="#C3D4FA" fill-rule="nonzero" d="M48.042 176.642c-.885 0-1.768-.025-2.647-.076l-.076 1.341c.904.052 1.812.078 2.723.078v-1.343zm-5.287-.304a45.565 45.565 0 0 1-2.62-.38l-.23 1.324c.892.156 1.791.287 2.695.39l.155-1.334zm-5.235-.916a45.322 45.322 0 0 1-2.558-.684l-.385 1.287c.87.26 1.749.495 2.634.704l.309-1.307zm-5.064-1.512a45.44 45.44 0 0 1-2.46-.976l-.531 1.234c.834.359 1.678.694 2.532 1.004l.46-1.262zm-4.885-2.106a45.76 45.76 0 0 1-2.33-1.257l-.671 1.164c.787.454 1.587.885 2.398 1.293l.603-1.2zm-4.623-2.671a46.132 46.132 0 0 1-2.17-1.518l-.8 1.078c.728.542 1.473 1.063 2.231 1.562l.739-1.122zm-4.209-3.126a46.433 46.433 0 0 1-1.984-1.754l-.918.98a47.776 47.776 0 0 0 2.041 1.806l.861-1.032zm-3.88-3.634a46.6 46.6 0 0 1-1.77-1.969l-1.025.87a47.943 47.943 0 0 0 1.823 2.026l.972-.927zm-3.445-4.059a46.616 46.616 0 0 1-1.535-2.159l-1.116.748a47.96 47.96 0 0 0 1.58 2.22l1.071-.809zm-2.964-4.432a46.526 46.526 0 0 1-1.278-2.32l-1.194.614a47.87 47.87 0 0 0 1.315 2.387l1.157-.681zm-2.443-4.756a46.43 46.43 0 0 1-1.003-2.45l-1.258.472c.32.851.665 1.692 1.033 2.522l1.228-.544zm-1.883-5.013c-.263-.842-.5-1.693-.715-2.55l-1.303.325c.22.882.465 1.757.735 2.624l1.283-.4zm-1.252-4.973a46.758 46.758 0 0 1-.43-2.613l-1.33.18c.122.902.27 1.798.442 2.689l1.318-.256zm-.713-5.267a47.48 47.48 0 0 1-.132-2.646l-1.343.03c.02.91.065 1.817.136 2.72l1.34-.104zm-.116-5.307c.03-.884.086-1.766.167-2.644L.872 125.8c-.083.903-.14 1.81-.172 2.72l1.343.047zm.487-5.279c.131-.873.288-1.743.47-2.607l-1.315-.275a47.635 47.635 0 0 0-.484 2.682l1.329.2zm1.094-5.209c.23-.852.485-1.698.763-2.536l-1.274-.424a48.253 48.253 0 0 0-.786 2.61l1.297.35zm1.665-5.016c.325-.821.672-1.634 1.043-2.437l-1.22-.562c-.38.825-.738 1.66-1.072 2.505l1.249.494zm2.23-4.836c.415-.78.85-1.55 1.306-2.307l-1.15-.693a49.828 49.828 0 0 0-1.342 2.37l1.187.63zm2.762-4.577a48.901 48.901 0 0 1 1.55-2.15l-1.068-.815a50.245 50.245 0 0 0-1.593 2.209l1.11.756zm3.175-4.167a48.753 48.753 0 0 1 1.772-1.972l-.974-.924a50.096 50.096 0 0 0-1.821 2.026l1.023.87zm3.662-3.856a47.888 47.888 0 0 1 1.976-1.765l-.866-1.026c-.693.584-1.37 1.19-2.032 1.814l.922.977zm4.073-3.436a46.263 46.263 0 0 1 2.162-1.529l-.745-1.118a47.606 47.606 0 0 0-2.224 1.573l.807 1.074zm4.445-2.952a43.97 43.97 0 0 1 2.325-1.263l-.605-1.199c-.808.408-1.607.842-2.396 1.301l.676 1.161zm4.771-2.402a41.237 41.237 0 0 1 2.463-.96l-.448-1.267a42.58 42.58 0 0 0-2.543.992l.528 1.235zm4.99-1.761a38.434 38.434 0 0 1 2.566-.625l-.273-1.316c-.888.184-1.774.4-2.655.647l.363 1.294zm5.05-1.054c.874-.12 1.75-.208 2.623-.264l-.085-1.34c-.907.057-1.815.149-2.722.273l.183 1.331zm5.292-.335l2.686-.007-.002-1.343-2.688.006.004 1.344zm5.513-1.194c.007-.896.03-1.783.07-2.662l-1.342-.06c-.04.895-.064 1.8-.071 2.712l1.343.01zm.242-5.32c.076-.889.169-1.77.28-2.64l-1.333-.17c-.113.89-.208 1.789-.285 2.696l1.338.114zm.672-5.284c.15-.878.318-1.747.504-2.606l-1.312-.284c-.191.878-.363 1.767-.516 2.664l1.324.226zm1.135-5.222c.229-.861.477-1.712.743-2.552l-1.28-.406a57.83 57.83 0 0 0-.761 2.612l1.298.346zm1.597-5.04c.308-.833.635-1.654.98-2.465l-1.235-.527c-.354.83-.69 1.672-1.005 2.525l1.26.466zm2.098-4.91c.387-.797.794-1.581 1.22-2.354l-1.177-.648a54.725 54.725 0 0 0-1.25 2.413l1.207.588zm2.579-4.683c.465-.753.949-1.494 1.45-2.223l-1.106-.761a54.948 54.948 0 0 0-1.487 2.278l1.143.706zm2.97-4.32a54.916 54.916 0 0 1 1.66-2.073l-1.028-.865a56.259 56.259 0 0 0-1.7 2.124l1.069.814zm3.432-4.08c.6-.646 1.215-1.281 1.848-1.904l-.942-.957a58.61 58.61 0 0 0-1.892 1.95l.986.912zm3.801-3.74a60.53 60.53 0 0 1 2.015-1.73l-.853-1.038a61.873 61.873 0 0 0-2.06 1.769l.898 1zm4.129-3.392a64.567 64.567 0 0 1 2.157-1.554l-.762-1.106a65.91 65.91 0 0 0-2.203 1.586l.808 1.074zm4.412-3.041c.746-.472 1.505-.93 2.276-1.377l-.673-1.163c-.786.456-1.56.923-2.32 1.404l.717 1.136zm4.599-2.664c.78-.414 1.572-.816 2.375-1.206l-.586-1.208c-.818.396-1.624.805-2.419 1.227l.63 1.187zm4.773-2.32a79.452 79.452 0 0 1 2.454-1.038l-.504-1.245c-.84.34-1.672.692-2.494 1.056l.544 1.228zm4.913-1.985c.83-.305 1.67-.598 2.516-.88l-.423-1.274a86.01 86.01 0 0 0-2.556.893l.463 1.26zm5.082-1.686a89.732 89.732 0 0 1 2.567-.723l-.345-1.298c-.876.232-1.744.477-2.606.733l.384 1.288zm5.125-1.364a94.35 94.35 0 0 1 2.606-.574l-.271-1.316c-.886.183-1.767.377-2.643.583l.308 1.307zm5.244-1.078a98.416 98.416 0 0 1 2.633-.429l-.198-1.329c-.894.134-1.784.279-2.67.435l.235 1.323zm5.296-.789c.88-.107 1.765-.203 2.653-.287l-.127-1.338c-.9.086-1.796.183-2.689.292l.163 1.333zm5.334-.507c.887-.06 1.775-.11 2.665-.149l-.057-1.342c-.902.039-1.802.09-2.7.151l.092 1.34zm5.349-.23l.915-.012.915-.004c.288 0 .567.001.848.004l.014-1.343-.428-.003-.434-.001c-.618 0-1.236.005-1.854.016l.024 1.343zm5.34.063c.888.04 1.774.095 2.658.165l.107-1.339a78.51 78.51 0 0 0-2.704-.168l-.06 1.342zm5.315.424c.884.101 1.764.218 2.641.35l.2-1.329a77.817 77.817 0 0 0-2.688-.356l-.153 1.335zm5.277.793c.874.163 1.744.34 2.61.534l.292-1.311a77.438 77.438 0 0 0-2.656-.543l-.246 1.32zm5.23 1.167c.86.224 1.716.462 2.566.716l.384-1.287a77.324 77.324 0 0 0-2.611-.73l-.339 1.3zm5.078 1.513c.842.283 1.678.58 2.51.893l.472-1.258a77.416 77.416 0 0 0-2.554-.909l-.428 1.274zm5.006 1.882c.82.341 1.634.697 2.44 1.067l.56-1.222a77.658 77.658 0 0 0-2.483-1.085l-.517 1.24zm4.869 2.231c.793.398 1.58.81 2.359 1.235l.643-1.18a77.993 77.993 0 0 0-2.4-1.256l-.602 1.201zm4.634 2.527a77.02 77.02 0 0 1 2.27 1.395l.723-1.132a78.362 78.362 0 0 0-2.31-1.42l-.683 1.157zm4.497 2.872c.732.503 1.454 1.02 2.168 1.548l.8-1.08a78.728 78.728 0 0 0-2.206-1.575l-.762 1.107zm4.295 3.18c.695.553 1.38 1.117 2.056 1.693l.872-1.022a79.045 79.045 0 0 0-2.092-1.722l-.836 1.051zm4.07 3.471c.655.6 1.3 1.21 1.935 1.831l.94-.96a79.29 79.29 0 0 0-1.97-1.862l-.906.991zm3.82 3.743a78.1 78.1 0 0 1 1.806 1.958l1.003-.893a79.441 79.441 0 0 0-1.836-1.992l-.972.927zm3.563 4.002a78.158 78.158 0 0 1 1.667 2.078l1.062-.823a79.499 79.499 0 0 0-1.695-2.113l-1.034.858zm3.28 4.238c.487.676.964 1.36 1.43 2.051l.233.348.416-.058a.94.94 0 0 0 .233-.06l.122-.054-.578-1.212.038-.004.092.665.558-.375c-.474-.703-.958-1.399-1.454-2.087l-1.09.786zm4.854 1.203c.82-.306 1.655-.576 2.5-.809l-.357-1.295c-.883.244-1.755.526-2.612.845l.47 1.259zm5.083-1.4c.86-.157 1.728-.277 2.604-.359l-.126-1.337c-.914.086-1.821.21-2.72.375l.242 1.321zm5.23-.491l.228-.001c.806 0 1.606.031 2.402.094l.105-1.34a31.851 31.851 0 0 0-1.668-.087l-1.077-.01.01 1.344zm5.242.413c.866.145 1.724.327 2.57.546l.337-1.3c-.885-.23-1.78-.42-2.686-.57l-.221 1.324zm5.124 1.33c.825.294 1.637.624 2.434.988l.559-1.22a31.425 31.425 0 0 0-2.542-1.034l-.451 1.266zm4.767 2.182c.762.433 1.505.898 2.228 1.395l.761-1.106a31.766 31.766 0 0 0-2.326-1.457l-.663 1.168zm4.372 3.014a30.744 30.744 0 0 1 1.953 1.76l.94-.96a32.087 32.087 0 0 0-2.037-1.835l-.856 1.035zm3.714 3.639a30.86 30.86 0 0 1 1.63 2.063l1.089-.786a32.203 32.203 0 0 0-1.701-2.154l-1.018.877zm3.096 4.287c.45.752.868 1.523 1.253 2.312l1.207-.59a32.133 32.133 0 0 0-1.308-2.412l-1.152.69zm2.322 4.768c.314.817.594 1.649.838 2.492l1.29-.373a32.069 32.069 0 0 0-.874-2.6l-1.254.481zM233.584 77c.168.858.3 1.725.396 2.6l1.336-.147c-.1-.912-.238-1.816-.414-2.712l-1.318.259zm.574 5.312a31.68 31.68 0 0 1-.052 2.642l1.341.083c.042-.673.062-1.347.062-2.035l-.008-.72-1.343.03zm2.21 4.687c.819.33 1.627.685 2.425 1.063l.575-1.214a46.867 46.867 0 0 0-2.496-1.095L236.369 87zm4.79 2.269c.775.423 1.536.868 2.285 1.336l.711-1.14c-.77-.48-1.554-.94-2.35-1.375l-.645 1.179zm4.516 2.82c.72.511 1.426 1.042 2.117 1.593l.838-1.05a47.578 47.578 0 0 0-2.179-1.638l-.776 1.096zm4.129 3.295a46.501 46.501 0 0 1 1.921 1.823l.952-.948c-.641-.644-1.3-1.27-1.977-1.875l-.896 1zm3.757 3.776a46.62 46.62 0 0 1 1.701 2.03l1.054-.834a47.964 47.964 0 0 0-1.75-2.088l-1.005.892zm3.313 4.194c.507.723.992 1.46 1.457 2.211l1.142-.707a47.94 47.94 0 0 0-1.499-2.274l-1.1.77zm2.754 4.442c.422.775.823 1.562 1.2 2.36l1.214-.573c-.388-.822-.8-1.632-1.234-2.43l-1.18.643zm2.274 4.81c.33.819.638 1.646.922 2.483l1.272-.432a47.762 47.762 0 0 0-.949-2.554l-1.245.504zm1.71 5.046c.235.85.446 1.707.632 2.572l1.313-.284a47.86 47.86 0 0 0-.65-2.646l-1.295.358zm1.124 5.216c.136.87.247 1.747.334 2.628l1.337-.132a48.28 48.28 0 0 0-.344-2.703l-1.327.207zm.523 5.326a47.755 47.755 0 0 1 .035 2.668l1.344.02a50.015 50.015 0 0 0-.037-2.744l-1.342.056zm-.077 5.315a47.11 47.11 0 0 1-.26 2.635l1.333.17c.114-.9.203-1.803.267-2.71l-1.34-.095zm-.67 5.263c-.161.869-.347 1.732-.556 2.588l1.304.32c.216-.881.407-1.77.573-2.664l-1.32-.244zm-1.271 5.18c-.26.845-.543 1.681-.85 2.508l1.26.467c.316-.85.607-1.711.874-2.58l-1.284-.395zm-1.834 4.95c-.354.809-.73 1.608-1.13 2.396l1.2.607c.41-.81.797-1.633 1.16-2.466l-1.23-.538zm-2.41 4.754a46.575 46.575 0 0 1-1.396 2.25l1.122.74c.5-.757.978-1.53 1.435-2.315l-1.161-.675zm-2.95 4.464c-.53.708-1.078 1.4-1.646 2.077l1.03.864a47.97 47.97 0 0 0 1.692-2.137l-1.077-.804zm-3.35 3.999a46.548 46.548 0 0 1-1.866 1.879l.926.973a47.89 47.89 0 0 0 1.92-1.933l-.98-.919zm-3.856 3.666a46.316 46.316 0 0 1-2.07 1.654l.81 1.073a47.658 47.658 0 0 0 2.128-1.702l-.868-1.025zm-4.257 3.205c-.735.49-1.483.958-2.245 1.404l.68 1.159c.783-.46 1.554-.941 2.31-1.445l-.745-1.118zm-4.61 2.698c-.788.401-1.586.779-2.395 1.133l.54 1.23a46.945 46.945 0 0 0 2.464-1.166l-.61-1.197zm-4.9 2.144c-.828.305-1.665.587-2.51.844l.39 1.285c.87-.265 1.732-.554 2.584-.869l-.465-1.26zm-5.02 1.529c-.856.207-1.72.39-2.59.548l.24 1.322c.896-.163 1.785-.351 2.667-.565l-.316-1.305zm-5.124.934c-.874.108-1.753.192-2.636.25l.087 1.34a47.16 47.16 0 0 0 2.714-.257l-.165-1.333zm-5.307.346l-.35.002v1.343l.36-.001-.01-1.344z"/>
                <path fill="#FFF" d="M122.239 147.761h112.836a2.687 2.687 0 0 0 2.686-2.686V21.493a2.687 2.687 0 0 0-2.686-2.687H122.239a2.687 2.687 0 0 0-2.687 2.687v123.582a2.687 2.687 0 0 0 2.687 2.686z"/>
                <path fill="#C3D4FA" d="M122.239 18.806h112.836a2.687 2.687 0 0 1 2.686 2.687v6.716H119.552v-6.716a2.687 2.687 0 0 1 2.687-2.687z"/>
                <path fill="url(#c)" fill-rule="nonzero" d="M91.343 48.358H204.18v113.043l-16.12 15.912H88.658a2.687 2.687 0 0 1-2.687-2.686V53.73a5.373 5.373 0 0 1 5.373-5.373z" transform="matrix(1 0 0 -1 0 225.672)"/>
                <rect width="4.03" height="4.03" x="36" y="72" fill="#2F88EC" fill-opacity=".12" rx="2.015"/>
                <g fill="#006BA0">
                    <path d="M251.825 24.376c-1.433 1.283-2.15 2.716-2.15 4.298 0 1.583.717 3.016 2.15 4.299 1.433-1.283 2.15-2.716 2.15-4.299 0-1.582-.717-3.015-2.15-4.298zM253.074 23.127c1.283 1.433 2.716 2.15 4.298 2.15 1.583 0 3.016-.717 4.299-2.15-1.283-1.432-2.716-2.149-4.299-2.149-1.582 0-3.015.717-4.298 2.15zM243.884 17.467c-1.188 1.512-1.645 3.047-1.37 4.606.274 1.559 1.229 2.845 2.863 3.86 1.188-1.512 1.645-3.048 1.37-4.607-.275-1.558-1.23-2.845-2.863-3.86zM244.897 16.02c1.512 1.188 3.047 1.645 4.606 1.37 1.559-.275 2.845-1.229 3.86-2.863-1.512-1.188-3.048-1.645-4.606-1.37-1.559.275-2.846 1.23-3.86 2.863zM234.31 12.79c-.6 1.828-.504 3.427.287 4.798.791 1.37 2.128 2.253 4.01 2.648.6-1.828.504-3.427-.287-4.797-.792-1.37-2.129-2.254-4.01-2.648zM234.766 11.085c1.828.6 3.427.504 4.797-.288 1.37-.791 2.254-2.128 2.648-4.01-1.827-.6-3.426-.504-4.797.288-1.37.79-2.253 2.128-2.648 4.01zM257.671 31.47c-1.716.87-2.779 2.068-3.188 3.596-.41 1.53-.089 3.099.963 4.709 1.716-.869 2.78-2.067 3.189-3.596.41-1.529.088-3.098-.964-4.708zM259.2 30.588c.87 1.716 2.068 2.779 3.596 3.188 1.53.41 3.099.089 4.709-.963-.869-1.716-2.067-2.78-3.596-3.189-1.529-.41-3.098-.088-4.708.964zM262.436 39.86c-1.84.557-3.095 1.553-3.764 2.988-.669 1.434-.625 3.035.131 4.804 1.841-.558 3.096-1.553 3.765-2.988.669-1.434.625-3.036-.132-4.804zM264.096 39.256c.557 1.841 1.553 3.096 2.987 3.765 1.435.669 3.036.625 4.804-.132-.557-1.84-1.553-3.095-2.987-3.764-1.435-.669-3.036-.625-4.804.131zM265.68 48.448c-1.883.395-3.22 1.277-4.011 2.648-.792 1.37-.888 2.97-.288 4.797 1.882-.394 3.22-1.277 4.01-2.648.792-1.37.888-2.97.288-4.797zM267.385 47.991c.395 1.882 1.277 3.22 2.648 4.01 1.37.792 2.97.888 4.797.288-.395-1.882-1.277-3.219-2.648-4.01-1.37-.791-2.97-.887-4.797-.288zM267.613 56.535c-1.92-.106-3.44.4-4.56 1.52-1.119 1.119-1.625 2.639-1.52 4.56 1.921.105 3.44-.402 4.56-1.52 1.119-1.12 1.626-2.64 1.52-4.56zM268.841 56.535c-.106 1.92.4 3.44 1.52 4.56 1.119 1.118 2.639 1.625 4.56 1.52.105-1.921-.402-3.441-1.52-4.56-1.12-1.12-2.64-1.626-4.56-1.52zM268.556 62.463c-1.455 1.303-2.183 2.758-2.183 4.365 0 1.608.728 3.063 2.183 4.366 1.455-1.303 2.183-2.758 2.183-4.366 0-1.607-.728-3.062-2.183-4.365zM224.234 8.76c-.599 1.828-.503 3.427.288 4.798.792 1.37 2.129 2.253 4.01 2.648.6-1.827.504-3.427-.287-4.797-.791-1.37-2.128-2.253-4.01-2.648zM224.691 7.055c1.828.6 3.427.504 4.798-.288 1.37-.791 2.253-2.128 2.648-4.01-1.828-.6-3.427-.504-4.798.288-1.37.791-2.253 2.128-2.648 4.01z"/>
                </g>
                <path stroke="#006BA0" stroke-linecap="round" stroke-width="1.343" d="M268.724 63.134c0-29.03-21.67-53-49.716-56.617"/>
                <path fill="url(#d)" fill-rule="nonzero" d="M116.282 41.642h77.15l17.464 17.255v88.864h-6.717V64.478l-16.12-16.12h-71.777z"/>
                <path fill="#FFF" fill-rule="nonzero" d="M49.701 117.859h107.463v59.454H49.701z"/>
                <g transform="translate(12.09 139.701)">
                    <use fill="#FFF" xlink:href="#e"/>
                    <use fill="#1A4379" xlink:href="#e"/>
                </g>
                <g transform="translate(12.09 139.701)">
                    <use fill="#FFF" xlink:href="#f"/>
                    <use fill="#1A4379" xlink:href="#f"/>
                </g>
                <path fill="#FFCF71" fill-rule="nonzero" d="M25.522 160.172h24.18v17.141h-24.18z"/>
                <path fill="#FFE380" fill-rule="nonzero" d="M25.522 160.172H40.97v17.141H25.522z"/>
                <path fill="#1A4379" fill-rule="nonzero" d="M28.41 160.172h9.82v5.46l-1.948-.55-1.616.55-1.603-.55-1.604.55-1.604-.55-1.445.55zM43.428 160.172h3.466v5.46l-1.852-.557-1.614.556z"/>
                <path fill="#E7EEFD" fill-rule="nonzero" d="M62.454 134.314h21.51a2.677 2.677 0 0 1 2.678 2.677v40.322H59.776v-40.322a2.677 2.677 0 0 1 2.678-2.677z"/>
                <circle cx="80.597" cy="155.806" r="2.015" fill="#8CACF6"/>
                <path fill="#E7EEFD" fill-rule="nonzero" d="M94.03 134.328h51.045c.742 0 1.343.602 1.343 1.344v25.522H92.687v-25.522c0-.742.601-1.344 1.343-1.344z"/>
                <path fill="#FFF" fill-rule="nonzero" d="M122.239 142.388h18.806v16.12h-18.806z"/>
                <path fill="#4CC1BE" fill-rule="nonzero" d="M127.612 142.388h8.06v5.373l-2.015-1.074-1.665 1.074-2.365-1.074-2.015 1.074z"/>
                <path fill="#FFF" fill-rule="nonzero" d="M98.06 142.388h18.806v16.12H98.06z"/>
                <path fill="#4CC1BE" fill-rule="nonzero" d="M103.433 142.388h8.06v5.373l-2.015-1.074-1.665 1.074-2.365-1.074-2.015 1.074z"/>
                <use fill="#376EEE" fill-rule="nonzero" xlink:href="#g"/>
                <path fill="#1A4379" fill-rule="nonzero" d="M56.082 72.523h93.358v5.373H56.082zM50.709 69.836h104.104a1.343 1.343 0 0 1 0 2.687H50.71a1.343 1.343 0 1 1 0-2.687z"/>
                <path fill="#001D53" fill-rule="nonzero" d="M149.44 69.836v8.06h-12.88a51.507 51.507 0 0 1 1.37-8.06h11.51z"/>
                <path fill="#8CACF6" fill-rule="nonzero" d="M151.088 118.841c-.009 2.486-2.36 4.5-5.262 4.507h-.191c-2.902-.007-5.25-2.021-5.257-4.507-.008 2.486-2.359 4.5-5.261 4.507h-.192c-2.901-.007-5.25-2.021-5.256-4.507-.009 2.486-2.36 4.5-5.262 4.507h-.191c-2.902-.007-5.25-2.021-5.257-4.507-.008 2.486-2.359 4.5-5.261 4.507h-.192c-2.901-.007-5.25-2.021-5.256-4.507-.009 2.486-2.36 4.5-5.262 4.507h-.191c-2.902-.007-5.25-2.021-5.257-4.507-.009 2.486-2.36 4.5-5.261 4.507h-.192c-2.901-.007-5.25-2.021-5.256-4.507-.01 2.486-2.36 4.5-5.262 4.507h-.191c-2.902-.007-5.251-2.021-5.257-4.507-.009 2.486-2.36 4.5-5.262 4.507h-.191c-2.901-.007-5.25-2.021-5.256-4.507-.01 2.486-2.36 4.5-5.262 4.507h-.192c-2.901-.007-5.25-2.021-5.256-4.507-.009 2.486-2.36 4.5-5.262 4.507h-.191c-2.902-.007-5.25-2.021-5.256-4.507v-.982h117.873v.982c-.01 2.486-2.428 4.5-5.33 4.507h-.192c-2.901-.007-5.25-2.021-5.256-4.507zM92.687 158.507h53.73v2.687h-53.73z"/>
                <path fill="#FFF" fill-rule="nonzero" d="M180.234 76.323c-.002 5.113-2.323 9.962-6.336 13.232-4.013 3.27-9.303 4.624-14.436 3.696l-6.338 2.449a1.119 1.119 0 0 1-1.513-1.18l.541-4.386c-6.634-4.842-8.924-13.56-5.499-20.937 3.425-7.377 11.638-11.416 19.724-9.7 8.085 1.715 13.855 8.722 13.857 16.826z"/>
                <path fill="#001D53" fill-rule="nonzero" d="M150.227 70.884l-.033.168c-.102.73.33 1.5 1.022 1.78l4.147 1.693-.62 4.426c-.23 1.63.162 3.036 1.171 4.198 1.009 1.163 2.346 1.747 3.99 1.747l.346-.01c1.261-.065 2.429-.49 3.498-1.271l.1-.079-.17-.163c1.005 1.014 2.268 1.523 3.772 1.523 1.634 0 3.113-.576 4.428-1.72 1.314-1.144 2.09-2.531 2.317-4.15l.693-4.974c.086-.62-.532-1.08-1.306-1.08h-1.51c-.766 0-1.467.605-1.574 1.359l-.641 4.62c-.062.438-.274.817-.645 1.146-.37.327-.777.487-1.232.487-.431 0-.768-.148-1.03-.451-.264-.303-.363-.664-.301-1.108l.387-2.804c.018-.746-.534-1.303-1.266-1.303h-1.536c-.705 0-1.364.517-1.54 1.2l-.406 2.832c-.063.454-.275.835-.644 1.156-.37.321-.77.478-1.21.478-.43 0-.77-.152-1.04-.462-.27-.31-.373-.67-.313-1.097l.86-6.13c.108-.707-.307-1.449-.967-1.754l-6.912-2.841c-.608-.245-1.238.258-1.44 1.042l-.395 1.542z"/>
                <path fill="#376EEE" d="M14.776 177.313h196.12a1.343 1.343 0 1 1 0 2.687H14.776a1.343 1.343 0 0 1 0-2.687zM216.269 177.313h29.552a1.343 1.343 0 1 1 0 2.687h-29.552a1.343 1.343 0 0 1 0-2.687zM9.403 177.313a1.343 1.343 0 1 1 0 2.687 1.343 1.343 0 0 1 0-2.687zM251.194 177.313a1.343 1.343 0 1 1 0 2.687 1.343 1.343 0 0 1 0-2.687z"/>
                <use fill="#FFF" xlink:href="#h"/>
                <use fill="#8CACF6" xlink:href="#h"/>
                <path fill="#001D53" fill-rule="nonzero" d="M163.209 128.955h33.582a2.015 2.015 0 0 1 0 4.03h-33.582a2.015 2.015 0 0 1 0-4.03z"/>
                <path fill="#2F88EC" fill-opacity=".12" d="M125.597 33.582h60.448a2.015 2.015 0 1 1 0 4.03h-60.448a2.015 2.015 0 1 1 0-4.03zM192.761 33.582a2.015 2.015 0 1 1 0 4.03 2.015 2.015 0 0 1 0-4.03z"/>
                <path fill="#001D53" fill-rule="nonzero" d="M163.209 135.672h17.463a2.015 2.015 0 0 1 0 4.03h-17.463a2.015 2.015 0 0 1 0-4.03z"/>
                <rect width="37.612" height="10.746" x="161.194" y="158.507" fill="#FFF" rx="1.343"/>
                <g fill-rule="nonzero">
                    <path stroke="#2EE3AA" stroke-linecap="round" stroke-linejoin="round" stroke-width="1.343" d="M163.88 151.888c11.883-6.27 27.87-1.577 12.68 11.562-8.5 7.354.6-17.667 9.487-8.99 2.17 2.117 4.931 7.443 5.867 8.437 2.677 2.844 8.45-3.637 10.45-7.903"/>
                    <path fill="#2EE3AA" d="M205.522 147.761a2.687 2.687 0 1 1 0 5.373 2.687 2.687 0 0 1 0-5.373z"/>
                </g>
                <g fill-rule="nonzero">
                    <path fill="#FFE380" d="M272.253 77.692l-53.191 53.191 11.398 11.398L283.65 89.09z"/>
                    <path fill="#F27E88" d="M276.053 73.892l-3.8 3.8 11.399 11.398 3.8-3.8a2.687 2.687 0 0 0 0-3.8l-7.6-7.598a2.687 2.687 0 0 0-3.799 0z"/>
                    <path fill="url(#i)" d="M8.06 0h75.224v8.06H8.06z" transform="scale(-1 1) rotate(45 -225.879 -299.522)"/>
                    <path fill="#4CC1BE" d="M219.062 130.883l-5.699 17.097 17.097-5.699z"/>
                    <path fill="#001D53" d="M216.213 139.431l-2.85 8.55 8.549-2.85z"/>
                </g>
                <circle cx="124.254" cy="23.507" r="2.015" fill="#001D53"/>
                <circle cx="130.97" cy="23.507" r="2.015" fill="#376EEE"/>
                <circle cx="137.687" cy="23.507" r="2.015" fill="#4CC1BE"/>
                <path fill="#006BA0" fill-rule="nonzero" d="M219.475 5.957h-2.686v1.344h2.686V5.957zm-5.373 0h-2.686v1.344h2.686V5.957zm-5.373 0h-2.687v1.344h2.687V5.957zm-5.373 0h-2.687v1.344h2.687V5.957zm-5.373 0h-2.687v1.344h2.687V5.957z"/>
            </g>
        </g>
    </g>
</svg>