<svg width="113" height="137" viewBox="0 0 113 137" fill="none" xmlns="http://www.w3.org/2000/svg">
<path fill-rule="evenodd" clip-rule="evenodd" d="M21.3359 122.605L21.7307 69.5748C21.7307 69.5748 4.15352 84.3172 0.717285 111.604C0.717285 113.211 1.02376 116.022 2.62917 117.57C4.23458 119.118 12.814 122.049 15.3467 121.631L21.3359 122.605Z" fill="#022786"/>
<mask id="mask0_204_48512" style="mask-type:alpha" maskUnits="userSpaceOnUse" x="15" y="0" width="84" height="91">
<rect x="15.1016" y="0.761841" width="83.7677" height="89.3402" rx="4" fill="#C4C4C4"/>
</mask>
<g mask="url(#mask0_204_48512)">
<path d="M66.1635 43.5126H50.4097V59.9712H66.1635V43.5126Z" fill="#D58F66"/>
<path d="M66.1635 43.2761V45.6893C64.3874 48.6382 61.5287 50.5158 58.3599 50.5158C55.1065 50.5158 52.1745 48.5367 50.4097 45.4299V43.8117C52.4846 45.5202 55.1347 46.5238 57.9821 46.5238C61.1171 46.5238 64.0096 45.3059 66.1635 43.2761Z" fill="#9C614E"/>
<path d="M71.4865 21.3607V22.4038C71.4865 25.9898 71.182 29.5759 70.5844 33.1168L69.7612 37.9546C69.4567 39.7476 68.7575 41.3884 67.7708 42.798V42.8037C67.2972 43.4803 66.7615 44.1005 66.1638 44.6474C64.0099 46.6773 61.1174 47.8952 57.9824 47.8952C55.135 47.8952 52.485 46.8915 50.41 45.1831C50.0097 44.8617 49.6319 44.5121 49.2767 44.1343C47.8163 42.5781 46.7563 40.6216 46.2939 38.4113L45.4707 34.5208C44.5573 30.1905 44.1006 25.7812 44.1006 21.3607H71.4865V21.3607Z" fill="#D58F66"/>
<path d="M46.0098 37.1319C46.0098 37.1319 42.5931 32.4467 42.0433 26.006L40.5312 27.9205C40.5312 27.9205 40.9436 24.0816 43.2705 23.3943C43.2705 23.3943 40.1189 14.7542 50.2611 10.5029L48.484 12.8299C48.484 12.8299 68.0911 3.77742 74.5417 26.1336L72.3522 24.8965C72.3522 24.8965 71.3328 34.4453 69.9582 35.9474L69.6031 25.8489C69.6031 25.8489 57.2616 15.9717 46.0098 25.9863V37.1319Z" fill="#152934"/>
<path d="M47.7887 32.0995C47.7887 32.0995 42.3025 27.8143 42.3081 32.5901C42.3081 33.6614 42.6182 34.7157 43.1652 35.6123C45.2739 39.0348 48.2228 36.8132 48.2228 36.8132L47.7887 32.0995Z" fill="#D58F66"/>
<path d="M68.024 32.0995C68.024 32.0995 73.5102 27.8143 73.5046 32.5901C73.5046 33.6614 73.1945 34.7157 72.6475 35.6123C70.5388 39.0348 67.5898 36.8133 67.5898 36.8133L68.024 32.0995Z" fill="#D58F66"/>
<path d="M43.8421 32.4248C43.8421 32.4248 45.7011 32.6451 45.2722 34.4081" stroke="#9C614E" stroke-width="0.75" stroke-miterlimit="10" stroke-linecap="round"/>
<path d="M71.9431 32.3985C71.9431 32.3985 69.9442 32.6354 70.4054 34.5311" stroke="#9C614E" stroke-width="0.75" stroke-miterlimit="10" stroke-linecap="round"/>
<path d="M58.4006 35.7511C58.4006 35.7511 57.1505 36.9795 56.289 36.1105C55.8922 35.8431 56.2711 34.4693 56.6567 32.9985" stroke="#152934" stroke-miterlimit="10" stroke-linecap="round"/>
<path d="M55.5239 40.6982C56.0326 41.4332 57.6215 42.4623 59.9071 40.6982" stroke="#152934" stroke-linecap="round"/>
<path fill-rule="evenodd" clip-rule="evenodd" d="M54.1723 26.7366L47.858 27.6792C47.858 27.6792 51.2695 24.2499 54.1723 26.7366Z" fill="#152934"/>
<path fill-rule="evenodd" clip-rule="evenodd" d="M60.5021 27.2328L67.0168 27.2756C67.0168 27.2756 63.0606 24.6606 60.5021 27.2328Z" fill="#152934"/>
<path fill-rule="evenodd" clip-rule="evenodd" d="M64.5717 29.9443C64.7053 30.601 64.1811 31.3916 63.8523 31.4585C63.5234 31.5254 62.7321 31.0024 62.9274 30.2788C62.7938 29.622 63.3179 28.8315 63.6468 28.7646C63.9089 28.3694 64.3714 28.9592 64.5717 29.9443Z" fill="#152934"/>
<path fill-rule="evenodd" clip-rule="evenodd" d="M51.7724 29.3204C51.906 29.9771 51.3818 30.7676 51.053 30.8344C50.7242 30.9013 49.933 30.3784 50.1283 29.6548C49.9947 28.9982 50.5187 28.2076 50.8475 28.1407C51.1763 28.0739 51.6388 28.6637 51.7724 29.3204Z" fill="#152934"/>
<path d="M28.3473 99.8078C28.3473 99.8078 17.6681 118.776 5.69202 115.968C-3.83132 113.735 -16.9689 88.8918 -22.8329 74.4235C-22.8329 74.4235 -26.6952 68.8414 -27.3606 64.9227C-27.3606 64.9227 -30.3715 60.2992 -31.5161 58.4949C-31.7642 58.1002 -31.6965 57.5871 -31.3639 57.2657C-31.1722 57.0853 -30.9353 57.0007 -30.6929 57.0007C-30.4166 57.0007 -30.1403 57.1135 -29.9486 57.3446L-26.3344 61.737C-26.1821 61.9231 -25.9115 61.9456 -25.7311 61.7877L-25.5957 61.6693C-25.4604 61.5509 -25.4241 61.4468 -25.4974 61.2776L-28.4037 54.1984C-28.5897 53.7529 -28.3529 53.2455 -27.8962 53.0989C-27.8116 53.0707 -27.7271 53.0594 -27.6425 53.0594C-27.3662 53.0594 -27.1012 53.2004 -26.949 53.4428L-22.4889 60.1639C-22.3649 60.3556 -22.1112 60.412 -21.9195 60.2935L-21.8462 60.2484C-21.6883 60.1526 -21.6093 59.9665 -21.6488 59.7917L-23.8422 50.5052C-23.9493 50.0428 -23.6448 49.5861 -23.1768 49.5072L-23.1092 49.4959C-22.7258 49.4339 -22.348 49.6482 -22.207 50.0147L-18.7676 59.008C-18.7055 59.1715 -18.5477 59.2786 -18.3729 59.2786H-18.277C-18.0458 59.2786 -17.8598 59.0926 -17.8541 58.8614V52.764C-17.8429 52.1889 -17.3918 51.7209 -16.8223 51.687H-16.7546C-16.2246 51.687 -15.7566 52.0648 -15.6664 52.5892L-13.817 62.1091C-13.755 62.4643 -13.3039 62.5715 -13.084 62.2896L-11.291 59.5718C-11.0091 59.211 -10.496 59.0756 -10.1069 59.3125C-9.70094 59.5605 -9.33445 60.1413 -9.5036 61.472C-9.7235 63.2255 -12.1931 68.5651 -13.4561 71.4802L7.49632 99.8867L14.4993 85.7342L28.3473 99.8078Z" fill="#D58F66"/>
<path d="M105.927 99.5689C98.5969 102.71 86.4517 103.335 86.4517 103.335V141.66H32.2155V97.68L28.8663 101.661C20.2789 98.5201 10.6484 85.9577 10.6484 85.9577C10.6484 85.9577 20.4199 62.5017 44.1013 55.3409C48.3696 54.0497 53.089 53.2885 58.2877 53.2885C63.4976 53.3393 68.1606 54.1399 72.3218 55.4931C100.672 64.6951 105.927 99.5689 105.927 99.5689Z" fill="#022786"/>
<path d="M72.322 55.4931C71.8044 57.1118 69.6755 58.2824 67.2264 59.1124C61.4699 61.0633 55.1137 61.0242 49.3529 59.0863C46.7973 58.2266 44.5703 57.013 44.1016 55.3409C48.3699 54.0497 53.0892 53.2885 58.2879 53.2885C63.4978 53.3393 68.1608 54.1399 72.322 55.4931Z" fill="#D58F66"/>
<path opacity="0.5" d="M32.2153 97.6832V82.871" stroke="#022786" stroke-width="1.38182" stroke-miterlimit="10" stroke-linecap="round"/>
<path opacity="0.5" d="M86.3784 103.149V88.3364" stroke="#022786" stroke-width="1.38182" stroke-miterlimit="10" stroke-linecap="round"/>
<path opacity="0.5" d="M80.5699 77.6472H68.5142C68.5142 81.6059 68.5142 90.2665 74.452 90.2665C80.3667 90.2665 80.5089 81.4353 80.5692 77.691L80.5699 77.6472Z" fill="#022786" stroke="#022786" stroke-width="1.38182"/>
<path d="M44.0063 55.562C45.6655 58.3775 54.367 62.9225 66.2276 59.6085C68.3904 58.7713 70.5881 57.5853 72.3073 55.7891" stroke="#022786" stroke-linecap="round"/>
</g>
<path fill-rule="evenodd" clip-rule="evenodd" d="M18.4843 112.029C15.525 111.604 20.321 111.79 22.2598 112.217C24.3022 112.666 28.44 112.344 30.4079 113.951C32.8263 115.925 34.6867 117.239 35.6325 117.879C36.0073 118.133 36.0824 118.641 35.6753 118.838C34.7671 119.277 32.801 119.48 29.1462 116.796C29.1462 116.796 27.8278 116.362 26.8433 116.794C25.8587 117.225 18.4843 112.029 18.4843 112.029Z" fill="#D58F66"/>
<path fill-rule="evenodd" clip-rule="evenodd" d="M26.4654 116.453C32.5739 122.399 37.8075 124.147 38.0405 125.918C38.2998 127.89 33.7148 126.927 28.0423 124.699C28.0423 124.699 26.1269 130.72 24.1237 130.002C20.2188 128.601 17.8255 124.563 14.8755 121.592C13.3346 120.039 12.0231 120.384 11.1383 118.391C10.2535 116.398 12.0054 113.832 12.3925 113.497C18.5989 108.122 26.4654 116.453 26.4654 116.453Z" fill="#D58F66"/>
<path fill-rule="evenodd" clip-rule="evenodd" d="M26.9793 123.57C26.9793 123.57 34.0064 125.81 35.4525 126.89C36.7643 127.869 35.294 128.855 33.376 128.981C31.6723 129.094 25.3332 127.428 25.3332 127.428L26.9793 123.57Z" fill="#D58F66"/>
<path fill-rule="evenodd" clip-rule="evenodd" d="M23.623 125.576C23.623 125.576 30.6116 128.555 32.3007 128.874C33.3426 129.071 32.1513 130.271 30.7391 130.263C30.6968 130.768 29.8851 130.828 29.1479 130.955C27.2235 131.287 23.1383 129.585 23.1383 129.585L23.623 125.576Z" fill="#D58F66"/>
<path d="M35.0135 126.448C35.0135 126.448 30.2059 124.482 28.7881 123.054" stroke="#653200" stroke-width="0.8" stroke-linecap="round" stroke-linejoin="round"/>
<path d="M32.7936 128.684C32.7936 128.684 28.5472 126.67 27.1293 125.242" stroke="#653200" stroke-width="0.8" stroke-linecap="round" stroke-linejoin="round"/>
<path d="M29.6861 130.025C29.6861 130.025 26.7341 128.84 25.1965 127.566" stroke="#653200" stroke-width="0.8" stroke-linecap="round" stroke-linejoin="round"/>
<path fill-rule="evenodd" clip-rule="evenodd" d="M33.5184 116.894C33.5184 116.894 32.8789 117.276 33.4089 117.81C33.9388 118.344 35.0059 118.51 35.2111 118.111C35.1911 117.911 33.5184 116.894 33.5184 116.894Z" fill="#8C533B"/>
<rect x="21.5244" y="85.0294" width="70.4987" height="50.8267" rx="3.5" fill="#F7F9FA" stroke="#DCE5E9"/>
<path fill-rule="evenodd" clip-rule="evenodd" d="M21.0244 122.605V69.5099C18.725 74.5282 4.1016 84.3173 0.717285 111.604C0.717285 113.211 1.01912 116.022 2.60028 117.57C4.18144 119.118 12.6312 122.049 15.1256 121.632L21.0244 122.605Z" fill="#022786"/>
<path d="M54.2983 128.206H78.726C79.7616 128.206 80.601 127.367 80.601 126.331V112.164C80.601 111.129 79.7616 110.289 78.726 110.289H54.2983C53.2628 110.289 52.4233 111.129 52.4233 112.164V126.331C52.4233 127.367 53.2628 128.206 54.2983 128.206Z" fill="#F0F4FF" stroke="#ADC0FD" stroke-width="0.25" stroke-linejoin="round"/>
<path d="M70.9697 115.21C70.9697 114.932 71.1957 114.706 71.4744 114.706H76.1843C76.463 114.706 76.6889 114.932 76.6889 115.21V115.21C76.6889 115.489 76.463 115.715 76.1843 115.715H71.4744C71.1957 115.715 70.9697 115.489 70.9697 115.21V115.21Z" fill="#ADC0FD"/>
<path d="M70.9697 118.49C70.9697 118.258 71.158 118.069 71.3903 118.069H76.2684C76.5006 118.069 76.6889 118.258 76.6889 118.49V118.49C76.6889 118.722 76.5006 118.91 76.2684 118.91H71.3903C71.158 118.91 70.9697 118.722 70.9697 118.49V118.49Z" fill="#ADC0FD"/>
<path fill-rule="evenodd" clip-rule="evenodd" d="M67.568 115.77V116.117H66.3794V114.212H66.7597V115.77H67.568ZM68.277 116.117H67.9131V114.212H68.2304L69.0665 115.399H69.0891V114.212H69.453V116.117H69.1382L68.2996 114.925H68.277V116.117Z" fill="#ADC0FD"/>
<path d="M67.568 115.77H67.693V115.645H67.568V115.77ZM67.568 116.117V116.242H67.693V116.117H67.568ZM66.3794 116.117H66.2544V116.242H66.3794V116.117ZM66.3794 114.212V114.087H66.2544V114.212H66.3794ZM66.7597 114.212H66.8847V114.087H66.7597V114.212ZM66.7597 115.77H66.6347V115.895H66.7597V115.77ZM68.277 116.117V116.242H68.402V116.117H68.277ZM67.9131 116.117H67.7881V116.242H67.9131V116.117ZM67.9131 114.212V114.087H67.7881V114.212H67.9131ZM68.2304 114.212L68.3326 114.14L68.2952 114.087H68.2304V114.212ZM69.0665 115.399L68.9643 115.471L69.0016 115.524H69.0665V115.399ZM69.0891 115.399V115.524H69.2141V115.399H69.0891ZM69.0891 114.212V114.087H68.9641V114.212H69.0891ZM69.453 114.212H69.578V114.087H69.453V114.212ZM69.453 116.117V116.242H69.578V116.117H69.453ZM69.1382 116.117L69.036 116.189L69.0733 116.242H69.1382V116.117ZM68.2996 114.925L68.4019 114.853L68.3645 114.8H68.2996V114.925ZM68.277 114.925V114.8H68.152V114.925H68.277ZM67.443 115.77V116.117H67.693V115.77H67.443ZM67.568 115.992H66.3794V116.242H67.568V115.992ZM66.5044 116.117V114.212H66.2544V116.117H66.5044ZM66.3794 114.337H66.7597V114.087H66.3794V114.337ZM66.6347 114.212V115.77H66.8847V114.212H66.6347ZM66.7597 115.895H67.568V115.645H66.7597V115.895ZM68.277 115.992H67.9131V116.242H68.277V115.992ZM68.0381 116.117V114.212H67.7881V116.117H68.0381ZM67.9131 114.337H68.2304V114.087H67.9131V114.337ZM68.1282 114.284L68.9643 115.471L69.1687 115.327L68.3326 114.14L68.1282 114.284ZM69.0665 115.524H69.0891V115.274H69.0665V115.524ZM69.2141 115.399V114.212H68.9641V115.399H69.2141ZM69.0891 114.337H69.453V114.087H69.0891V114.337ZM69.328 114.212V116.117H69.578V114.212H69.328ZM69.453 115.992H69.1382V116.242H69.453V115.992ZM69.2405 116.045L68.4019 114.853L68.1974 114.997L69.036 116.189L69.2405 116.045ZM68.2996 114.8H68.277V115.05H68.2996V114.8ZM68.152 114.925V116.117H68.402V114.925H68.152Z" fill="#ADC0FD"/>
<path fill-rule="evenodd" clip-rule="evenodd" d="M66.7587 119.453H66.3794V117.547H67.5664V117.888H66.7587V118.384H67.496V118.711H66.7587V119.453ZM68.2798 119.453H67.9168V117.547H68.2333L69.0673 118.734H69.0899V117.547H69.4529V119.453H69.1389L68.3024 118.26H68.2798V119.453Z" fill="#ADC0FD"/>
<path d="M66.7587 119.453V119.578H66.8837V119.453H66.7587ZM66.3794 119.453H66.2544V119.578H66.3794V119.453ZM66.3794 117.547V117.422H66.2544V117.547H66.3794ZM67.5664 117.547H67.6914V117.422H67.5664V117.547ZM67.5664 117.888V118.013H67.6914V117.888H67.5664ZM66.7587 117.888V117.763H66.6337V117.888H66.7587ZM66.7587 118.384H66.6337V118.509H66.7587V118.384ZM67.496 118.384H67.621V118.259H67.496V118.384ZM67.496 118.711V118.836H67.621V118.711H67.496ZM66.7587 118.711V118.586H66.6337V118.711H66.7587ZM68.2798 119.453V119.578H68.4048V119.453H68.2798ZM67.9168 119.453H67.7918V119.578H67.9168V119.453ZM67.9168 117.547V117.422H67.7918V117.547H67.9168ZM68.2333 117.547L68.3356 117.475L68.2982 117.422H68.2333V117.547ZM69.0673 118.734L68.965 118.806L69.0024 118.859H69.0673V118.734ZM69.0899 118.734V118.859H69.2149V118.734H69.0899ZM69.0899 117.547V117.422H68.9649V117.547H69.0899ZM69.4529 117.547H69.5779V117.422H69.4529V117.547ZM69.4529 119.453V119.578H69.5779V119.453H69.4529ZM69.1389 119.453L69.0366 119.524L69.0739 119.578H69.1389V119.453ZM68.3024 118.26L68.4047 118.189L68.3674 118.135H68.3024V118.26ZM68.2798 118.26V118.135H68.1548V118.26H68.2798ZM66.7587 119.328H66.3794V119.578H66.7587V119.328ZM66.5044 119.453V117.547H66.2544V119.453H66.5044ZM66.3794 117.672H67.5664V117.422H66.3794V117.672ZM67.4414 117.547V117.888H67.6914V117.547H67.4414ZM67.5664 117.763H66.7587V118.013H67.5664V117.763ZM66.6337 117.888V118.384H66.8837V117.888H66.6337ZM66.7587 118.509H67.496V118.259H66.7587V118.509ZM67.371 118.384V118.711H67.621V118.384H67.371ZM67.496 118.586H66.7587V118.836H67.496V118.586ZM66.6337 118.711V119.453H66.8837V118.711H66.6337ZM68.2798 119.328H67.9168V119.578H68.2798V119.328ZM68.0418 119.453V117.547H67.7918V119.453H68.0418ZM67.9168 117.672H68.2333V117.422H67.9168V117.672ZM68.131 117.619L68.965 118.806L69.1696 118.662L68.3356 117.475L68.131 117.619ZM69.0673 118.859H69.0899V118.609H69.0673V118.859ZM69.2149 118.734V117.547H68.9649V118.734H69.2149ZM69.0899 117.672H69.4529V117.422H69.0899V117.672ZM69.3279 117.547V119.453H69.5779V117.547H69.3279ZM69.4529 119.328H69.1389V119.578H69.4529V119.328ZM69.2412 119.381L68.4047 118.189L68.2 118.332L69.0366 119.524L69.2412 119.381ZM68.3024 118.135H68.2798V118.385H68.3024V118.135ZM68.1548 118.26V119.453H68.4048V118.26H68.1548Z" fill="#ADC0FD"/>
<path fill-rule="evenodd" clip-rule="evenodd" d="M65.5386 124.455C65.5386 124.192 65.7518 123.978 66.0149 123.978H76.4109C76.6739 123.978 76.8872 124.192 76.8872 124.455V124.455C76.8872 124.718 76.6739 124.931 76.4109 124.931H66.0149C65.7518 124.931 65.5386 124.718 65.5386 124.455V124.455Z" fill="#D0DBFF"/>
<rect x="53.5771" y="114.166" width="10.7655" height="10.7655" rx="2" fill="white"/>
<mask id="mask1_204_48512" style="mask-type:alpha" maskUnits="userSpaceOnUse" x="53" y="114" width="12" height="11">
<rect x="53.5771" y="114.166" width="10.7655" height="10.7655" rx="1" fill="#E5ECFF"/>
</mask>
<g mask="url(#mask1_204_48512)">
<path d="M54.659 126.266C55.0265 126.64 55.104 127.214 54.7816 127.627C54.2463 128.312 53.3404 129.202 52.3679 128.974C51.1877 128.697 49.5755 125.718 48.7862 123.838C48.7293 123.703 48.6593 123.574 48.582 123.449C48.484 123.291 48.3457 123.051 48.2437 122.809C48.1376 122.556 48.0431 122.295 47.8942 122.066C47.7824 121.893 47.6567 121.699 47.5861 121.587C47.5542 121.537 47.5629 121.471 47.6057 121.429C47.6303 121.406 47.6607 121.395 47.6919 121.395C47.7274 121.395 47.7629 121.41 47.7875 121.439L48.252 122.004C48.2716 122.028 48.3064 122.031 48.3296 122.011L48.347 121.995C48.3644 121.98 48.369 121.967 48.3596 121.945L47.9861 121.035C47.9622 120.978 47.9926 120.913 48.0513 120.894C48.0622 120.89 48.0731 120.889 48.0839 120.889C48.1194 120.889 48.1535 120.907 48.1731 120.938L48.7462 121.802C48.7622 121.826 48.7948 121.834 48.8194 121.818L48.8288 121.813C48.8491 121.8 48.8593 121.776 48.8542 121.754L48.5723 120.561C48.5586 120.501 48.5977 120.442 48.6578 120.432L48.6665 120.431C48.7158 120.423 48.7644 120.45 48.7825 120.497L49.2245 121.653C49.2325 121.674 49.2528 121.688 49.2752 121.688H49.2875C49.3172 121.688 49.3412 121.664 49.3419 121.634V120.851C49.3433 120.777 49.4013 120.717 49.4745 120.712H49.4832C49.5513 120.712 49.6114 120.761 49.623 120.828L49.8607 122.052C49.8687 122.097 49.9267 122.111 49.9549 122.075L50.1854 121.726C50.2216 121.679 50.2875 121.662 50.3375 121.692C50.3897 121.724 50.4368 121.799 50.4151 121.97C50.4084 122.023 50.3858 122.101 50.353 122.195C50.1178 122.868 50.1673 123.609 50.5903 124.182L51.9511 126.027C52.2472 126.429 52.8633 126.374 53.0845 125.927V125.927C53.2877 125.517 53.8352 125.429 54.1566 125.756L54.659 126.266Z" fill="#D58F66"/>
<path d="M64.9704 125.755C65.177 126.399 64.4737 127.134 63.8053 127.236V127.236C63.0234 127.356 62.7468 127.971 62.7468 128.762V130.276C62.7468 131.38 61.8514 132.276 60.7468 132.276H57.2871C56.4529 132.276 55.7766 131.599 55.7766 130.765V127.156C55.7766 126.975 55.5504 126.892 55.4337 127.031V127.031C55.3812 127.093 55.295 127.117 55.2203 127.084C54.7101 126.859 54.1825 126.401 53.7703 125.983C53.2674 125.474 53.1728 124.705 53.5672 124.108C54.2038 123.144 55.4065 121.756 57.3041 121.182C57.8527 121.016 58.4592 120.918 59.1273 120.918C59.7969 120.925 60.3961 121.028 60.9309 121.202C63.4145 122.008 64.5189 124.347 64.9704 125.755Z" fill="#022786"/>
<path d="M59.9504 119.979C60.4615 120.853 60.2038 122.063 59.1967 122.17V122.17C59.0827 122.182 59.2423 122.182 59.1283 122.169V122.169C58.1043 122.055 57.8554 120.837 58.3836 119.952C58.6334 119.533 58.8929 119.192 59.1625 119.192C59.4368 119.195 59.6993 119.549 59.9504 119.979Z" fill="#D58F66"/>
<path opacity="0.5" d="M55.7764 126.623V124.72" stroke="#022786" stroke-width="0.25" stroke-miterlimit="10" stroke-linecap="round"/>
<path opacity="0.5" d="M61.2045 125.671C61.6623 125.671 61.851 125.26 61.9304 124.827C62.0079 124.405 61.6391 124.049 61.2098 124.049C60.7854 124.049 60.419 124.397 60.4862 124.816C60.5567 125.255 60.738 125.671 61.2045 125.671Z" fill="#022786" stroke="#022786" stroke-width="0.25"/>
<path d="M60.1403 120.766V117.619C60.1403 117.059 59.6871 116.606 59.128 116.606C58.5689 116.606 58.1157 117.059 58.1157 117.619V120.766C58.1157 121.325 58.5689 121.778 59.128 121.778C59.6871 121.778 60.1403 121.325 60.1403 120.766Z" fill="#D58F66"/>
<path d="M59.9228 119.803C60.0108 119.746 60.1403 119.804 60.1403 119.909V119.909C60.1403 119.931 60.1345 119.952 60.1229 119.971C59.8936 120.333 59.5345 120.563 59.1375 120.563C58.7264 120.563 58.3552 120.317 58.1273 119.929C58.1196 119.916 58.1157 119.901 58.1157 119.886V119.886C58.1157 119.812 58.203 119.77 58.2652 119.81C58.5047 119.963 58.7882 120.05 59.0889 120.05C59.394 120.05 59.6812 119.96 59.9228 119.803Z" fill="#9C614E"/>
<path d="M60.7003 116.763C60.7751 116.795 60.8237 116.868 60.8237 116.949V116.949C60.8237 117.41 60.7846 117.871 60.7078 118.326L60.602 118.948C60.5629 119.178 60.473 119.389 60.3462 119.57C60.2853 119.657 60.2165 119.738 60.1397 119.808C59.8629 120.069 59.4911 120.225 59.0882 120.225C58.7223 120.225 58.3817 120.096 58.1151 119.877C58.0636 119.836 58.0151 119.791 57.9694 119.742C57.7817 119.542 57.6455 119.291 57.5861 119.007L57.4803 118.507C57.4554 118.389 57.4331 118.203 57.4135 117.978C57.3039 116.723 58.5905 115.868 59.7509 116.36L60.7003 116.763Z" fill="#D58F66"/>
<path d="M57.5498 118.001C57.5498 118.267 57.2661 118.341 57.1822 118.089C57.1279 117.926 57.0812 117.743 57.0545 117.544C57.0482 117.497 56.9875 117.479 56.9581 117.516V117.516C56.9256 117.557 56.8683 117.532 56.8829 117.481C56.9131 117.377 56.9659 117.249 57.055 117.163C57.1204 117.099 57.1734 117.004 57.158 116.914C57.105 116.605 57.0999 115.924 57.931 115.497C57.9751 115.474 58.0162 115.525 57.9862 115.564V115.564C57.9556 115.604 58.0012 115.666 58.049 115.649C58.6251 115.453 60.4198 115.046 61.1567 117.237C61.18 117.306 61.1066 117.367 61.0431 117.331V117.331C60.9921 117.302 60.9281 117.335 60.921 117.393C60.9084 117.496 60.8878 117.654 60.8609 117.826C60.8096 118.152 60.6075 118.119 60.5959 117.789L60.5891 117.597C60.5845 117.467 60.524 117.346 60.4138 117.276C59.9867 117.006 58.8134 116.423 57.6904 117.293C57.5985 117.364 57.5498 117.477 57.5498 117.593V118.001Z" fill="#152934"/>
<path d="M57.8029 118.46C57.7874 118.291 57.7051 118.131 57.5546 118.053C57.3482 117.946 57.0738 117.875 57.0742 118.259C57.0742 118.396 57.1141 118.532 57.1844 118.647C57.2865 118.813 57.4041 118.875 57.5108 118.889C57.7221 118.917 57.8225 118.672 57.8029 118.46V118.46Z" fill="#D58F66"/>
<path d="M60.3547 118.46C60.3702 118.291 60.4525 118.131 60.603 118.053C60.8094 117.946 61.0838 117.875 61.0834 118.259C61.0834 118.396 61.0435 118.532 60.9732 118.647C60.8711 118.813 60.7535 118.875 60.6468 118.889C60.4355 118.917 60.3351 118.672 60.3547 118.46V118.46Z" fill="#D58F66"/>
</g>
<path d="M69.7944 121.86C71.9114 120.717 74.7599 121.572 72.0536 123.966C70.5389 125.306 72.1603 120.747 73.7439 122.328C74.1304 122.714 74.6224 123.684 74.7891 123.865C75.2661 124.384 76.2946 123.203 76.6509 122.426" stroke="#67D3A6" stroke-width="0.75" stroke-linecap="round" stroke-linejoin="round"/>
<path d="M76.8872 121.358C76.8872 121.097 77.0989 120.882 77.3601 120.882V120.882C77.6212 120.882 77.8329 121.097 77.8329 121.358V121.358C77.8329 121.619 77.6212 121.834 77.3601 121.834V121.834C77.0989 121.834 76.8872 121.619 76.8872 121.358V121.358Z" fill="#67D3A6" stroke="#67D3A6" stroke-width="0.25"/>
<path fill-rule="evenodd" clip-rule="evenodd" d="M18.4843 112.029C15.525 111.604 20.321 111.79 22.2598 112.217C24.3022 112.666 28.44 112.344 30.4079 113.951C32.8263 115.925 34.6867 117.239 35.6325 117.879C36.0073 118.133 36.0824 118.641 35.6753 118.838C34.7671 119.277 32.801 119.48 29.1462 116.796C29.1462 116.796 27.8278 116.362 26.8433 116.794C25.8587 117.225 18.4843 112.029 18.4843 112.029Z" fill="#D58F66"/>
<path fill-rule="evenodd" clip-rule="evenodd" d="M26.4654 116.453C32.5739 122.399 37.8075 124.147 38.0405 125.918C38.2998 127.89 33.7148 126.927 28.0423 124.699C28.0423 124.699 26.1269 130.72 24.1237 130.002C20.2188 128.601 17.8255 124.563 14.8755 121.592C13.3346 120.039 12.0231 120.384 11.1383 118.391C10.2535 116.398 12.0054 113.832 12.3925 113.497C18.5989 108.122 26.4654 116.453 26.4654 116.453Z" fill="#D58F66"/>
<path fill-rule="evenodd" clip-rule="evenodd" d="M26.9793 123.57C26.9793 123.57 34.0064 125.81 35.4525 126.89C36.7643 127.869 35.294 128.855 33.376 128.981C31.6723 129.094 25.3332 127.428 25.3332 127.428L26.9793 123.57Z" fill="#D58F66"/>
<path fill-rule="evenodd" clip-rule="evenodd" d="M23.623 125.576C23.623 125.576 30.6116 128.555 32.3007 128.874C33.3426 129.071 32.1513 130.271 30.7391 130.263C30.6968 130.768 29.8851 130.828 29.1479 130.955C27.2235 131.287 23.1383 129.585 23.1383 129.585L23.623 125.576Z" fill="#D58F66"/>
<path d="M35.0135 126.448C35.0135 126.448 30.2059 124.482 28.7881 123.054" stroke="#9C614E" stroke-width="0.8" stroke-linecap="round" stroke-linejoin="round"/>
<path d="M32.7936 128.684C32.7936 128.684 28.5472 126.67 27.1293 125.242" stroke="#9C614E" stroke-width="0.8" stroke-linecap="round" stroke-linejoin="round"/>
<path d="M29.6861 130.025C29.6861 130.025 26.7341 128.84 25.1965 127.566" stroke="#9C614E" stroke-width="0.8" stroke-linecap="round" stroke-linejoin="round"/>
<path fill-rule="evenodd" clip-rule="evenodd" d="M33.5184 116.894C33.5184 116.894 32.8789 117.276 33.4089 117.81C33.9388 118.344 35.0059 118.51 35.2111 118.111C35.1911 117.911 33.5184 116.894 33.5184 116.894Z" fill="#8C533B"/>
<path fill-rule="evenodd" clip-rule="evenodd" d="M92.4944 122.818V69.6206C92.4944 69.6206 109.417 84.5302 112.802 111.817C112.802 113.424 112.5 116.235 110.919 117.783C109.338 119.331 100.888 122.262 98.3933 121.844L92.4944 122.818Z" fill="#022786"/>
<path fill-rule="evenodd" clip-rule="evenodd" d="M95.0357 112.245C97.995 111.819 93.1991 112.006 91.2602 112.432C89.2178 112.881 85.08 112.56 83.1121 114.166C80.6937 116.14 78.8333 117.454 77.8875 118.094C77.5127 118.348 77.4376 118.856 77.8447 119.053C78.7529 119.492 80.719 119.696 84.3738 117.011C84.3738 117.011 85.6922 116.578 86.6768 117.009C87.6613 117.44 95.0357 112.245 95.0357 112.245Z" fill="#D58F66"/>
<path fill-rule="evenodd" clip-rule="evenodd" d="M87.0546 116.668C80.9462 122.615 75.7126 124.362 75.4795 126.134C75.2202 128.105 79.8052 127.142 85.4777 124.914C85.4777 124.914 87.3932 130.936 89.3963 130.217C93.3012 128.817 95.6946 124.779 98.6445 121.807C100.185 120.254 101.497 120.599 102.382 118.606C103.266 116.613 101.515 114.047 101.127 113.712C94.9212 108.337 87.0546 116.668 87.0546 116.668Z" fill="#D58F66"/>
<path fill-rule="evenodd" clip-rule="evenodd" d="M86.5407 123.785C86.5407 123.785 79.5136 126.025 78.0675 127.105C76.7557 128.084 78.226 129.07 80.144 129.197C81.8477 129.309 88.1868 127.644 88.1868 127.644L86.5407 123.785Z" fill="#D58F66"/>
<path fill-rule="evenodd" clip-rule="evenodd" d="M89.897 125.791C89.897 125.791 82.9084 128.77 81.2194 129.089C80.1774 129.286 81.3687 130.487 82.7809 130.479C82.8232 130.983 83.6349 131.043 84.3721 131.17C86.2965 131.503 90.3817 129.8 90.3817 129.8L89.897 125.791Z" fill="#D58F66"/>
<path d="M78.5066 126.663C78.5066 126.663 83.3141 124.697 84.732 123.269" stroke="#9C614E" stroke-width="0.8" stroke-linecap="round" stroke-linejoin="round"/>
<path d="M80.726 128.899C80.726 128.899 84.9723 126.885 86.3902 125.457" stroke="#9C614E" stroke-width="0.8" stroke-linecap="round" stroke-linejoin="round"/>
<path d="M83.8335 130.24C83.8335 130.24 86.7854 129.055 88.323 127.781" stroke="#9C614E" stroke-width="0.8" stroke-linecap="round" stroke-linejoin="round"/>
<path fill-rule="evenodd" clip-rule="evenodd" d="M80.0016 117.109C80.0016 117.109 80.6411 117.492 80.1112 118.026C79.5812 118.559 78.5142 118.725 78.3089 118.326C78.3289 118.126 80.0016 117.109 80.0016 117.109Z" fill="#8C533B"/>
<path d="M31.7776 101.605H32.6476L30.7876 99.125L32.5376 96.775H31.6676L30.3276 98.615L28.9876 96.775H28.1176L29.8676 99.125L28.0176 101.605H28.8776L30.3276 99.625L31.7776 101.605Z" fill="#3F5663"/>
<path d="M39.419 101.605H40.289L38.429 99.125L40.179 96.775H39.309L37.969 98.615L36.629 96.775H35.759L37.509 99.125L35.659 101.605H36.519L37.969 99.625L39.419 101.605Z" fill="#3F5663"/>
<path d="M47.0604 101.605H47.9304L46.0704 99.125L47.8204 96.775H46.9504L45.6104 98.615L44.2704 96.775H43.4004L45.1504 99.125L43.3004 101.605H44.1604L45.6104 99.625L47.0604 101.605Z" fill="#3F5663"/>
<path d="M54.7018 101.605H55.5718L53.7118 99.125L55.4618 96.775H54.5918L53.2518 98.615L51.9118 96.775H51.0418L52.7918 99.125L50.9418 101.605H51.8018L53.2518 99.625L54.7018 101.605Z" fill="#3F5663"/>
<path d="M62.3432 101.605H63.2132L61.3532 99.125L63.1032 96.775H62.2332L60.8932 98.615L59.5532 96.775H58.6832L60.4332 99.125L58.5832 101.605H59.4432L60.8932 99.625L62.3432 101.605Z" fill="#3F5663"/>
<path d="M69.9846 101.605H70.8546L68.9946 99.125L70.7446 96.775H69.8746L68.5346 98.615L67.1946 96.775H66.3246L68.0746 99.125L66.2246 101.605H67.0846L68.5346 99.625L69.9846 101.605Z" fill="#3F5663"/>
<path d="M77.626 101.605H78.496L76.636 99.125L78.386 96.775H77.516L76.176 98.615L74.836 96.775H73.966L75.716 99.125L73.866 101.605H74.726L76.176 99.625L77.626 101.605Z" fill="#3F5663"/>
<path d="M85.2674 101.605H86.1374L84.2774 99.125L86.0274 96.775H85.1574L83.8174 98.615L82.4774 96.775H81.6074L83.3574 99.125L81.5074 101.605H82.3674L83.8174 99.625L85.2674 101.605Z" fill="#3F5663"/>
</svg>
