<svg width="48" height="48" viewBox="0 0 48 48" fill="none" xmlns="http://www.w3.org/2000/svg">
<g clip-path="url(#clip0)">
<path d="M46.0995 10.5911L24.3056 0.0698906C24.1124 -0.0232969 23.8874 -0.0232969 23.6943 0.0698906L1.90034 10.5911C1.65734 10.7084 1.50293 10.9545 1.50293 11.2243V36.7757C1.50293 37.0455 1.65734 37.2916 1.90034 37.4089L23.6942 47.9301C23.7908 47.9767 23.8954 48 23.9999 48C24.1045 48 24.209 47.9767 24.3056 47.9301L46.0995 37.4089C46.3425 37.2916 46.4969 37.0455 46.4969 36.7757V11.2244C46.4969 10.9544 46.3424 10.7085 46.0995 10.5911ZM23.9999 1.48392L44.1765 11.2243L38.3277 14.0478C38.2907 14.0196 38.2516 13.9935 38.2087 13.9728L18.1691 4.29877L23.9999 1.48392ZM16.5812 5.09377L36.7285 14.82L32.6021 16.812L12.4631 7.0898L16.5812 5.09377ZM37.1998 16.1538V23.5175L33.3455 25.3783V18.0146L37.1998 16.1538ZM45.0907 36.3345L24.7031 46.1766V22.1867L29.5661 19.839C29.9158 19.6702 30.0625 19.2499 29.8936 18.9001C29.7248 18.5505 29.3045 18.4037 28.9547 18.5727L23.9999 20.9647L22.0503 20.0235C21.7005 19.8544 21.2802 20.0012 21.1114 20.3509C20.9426 20.7006 21.0892 21.121 21.4389 21.2898L23.2968 22.1867V46.1766L2.90918 36.3344V12.3445L18.4342 19.8393C18.5327 19.887 18.6369 19.9095 18.7393 19.9095C19.0007 19.9095 19.2518 19.763 19.373 19.5119C19.5418 19.1622 19.3952 18.7418 19.0455 18.573L3.82334 11.2243L10.8082 7.85227L31.9295 18.0488C31.9326 18.0531 31.9361 18.057 31.9392 18.0612V26.4986C31.9392 26.7405 32.0636 26.9655 32.2686 27.0942C32.3824 27.1656 32.5122 27.2017 32.6425 27.2017C32.7467 27.2017 32.8512 27.1785 32.9481 27.1318L38.2087 24.5922C38.4517 24.4749 38.6061 24.2289 38.6061 23.959V15.4751L45.0907 12.3446V36.3345Z" fill="#0E161C"/>
<path d="M8.71218 33.6073L5.51389 32.0633C5.16402 31.8943 4.74383 32.0411 4.57498 32.3908C4.40614 32.7405 4.55276 33.1609 4.90245 33.3297L8.10074 34.8737C8.19927 34.9213 8.30343 34.9438 8.40589 34.9438C8.66727 34.9438 8.91833 34.7974 9.03955 34.5462C9.20849 34.1964 9.06186 33.7762 8.71218 33.6073Z" fill="#0E161C"/>
<path d="M11.6551 31.6912L5.51774 28.7283C5.16796 28.5595 4.74767 28.7061 4.57883 29.0559C4.41008 29.4056 4.55671 29.8259 4.90639 29.9948L11.0437 32.9577C11.1423 33.0052 11.2464 33.0278 11.3489 33.0278C11.6103 33.0278 11.8613 32.8813 11.9826 32.6302C12.1514 32.2803 12.0048 31.8599 11.6551 31.6912Z" fill="#0E161C"/>
</g>
<defs>
<clipPath id="clip0">
<rect width="48" height="48" fill="white"/>
</clipPath>
</defs>
</svg>
