<svg width="40" height="40" viewBox="0 0 40 40" fill="none" xmlns="http://www.w3.org/2000/svg">
<path d="M29.2686 38.4375H29.2588C28.8274 38.4375 28.4775 38.7873 28.4775 39.2188C28.4775 39.6502 28.8274 40 29.2588 40H29.2686C29.7 40 30.0498 39.6502 30.0498 39.2188C30.0498 38.7873 29.7 38.4375 29.2686 38.4375Z" fill="#102937"/>
<path d="M29.2686 38.4375H29.2588C28.8274 38.4375 28.4775 38.7873 28.4775 39.2188C28.4775 39.6502 28.8274 40 29.2588 40H29.2686C29.7 40 30.0498 39.6502 30.0498 39.2188C30.0498 38.7873 29.7 38.4375 29.2686 38.4375Z" fill="#212121"/>
<path d="M29.2686 38.4375H29.2588C28.8274 38.4375 28.4775 38.7873 28.4775 39.2188C28.4775 39.6502 28.8274 40 29.2588 40H29.2686C29.7 40 30.0498 39.6502 30.0498 39.2188C30.0498 38.7873 29.7 38.4375 29.2686 38.4375Z" fill="#192A32"/>
<path d="M39.7692 13.1923L34.2188 7.68102V3.125C34.2188 1.40188 32.8169 0 31.0938 0H8.90625C7.18313 0 5.78125 1.40188 5.78125 3.125V7.64188L0.228828 13.1942C0.0823437 13.3409 0 13.5395 0 13.7467V33.7891C0 37.2138 2.78625 40 6.21094 40H25.7759C26.2073 40 26.5572 39.6502 26.5572 39.2188C26.5572 38.7873 26.2073 38.4375 25.7759 38.4375H6.21094C5.29633 38.4375 4.44336 38.1709 3.72352 37.713L5.18812 36.2484H17.1873C17.6187 36.2484 17.9686 35.8985 17.9686 35.4671C17.9686 35.0357 17.6187 34.6859 17.1873 34.6859H6.75055L16.0698 25.3666C18.237 23.1995 21.7631 23.1995 23.9302 25.3666L36.2764 37.713C35.5566 38.1709 34.7037 38.4375 33.7891 38.4375H32.7344C32.303 38.4375 31.9531 38.7873 31.9531 39.2188C31.9531 39.6502 32.303 40 32.7344 40H33.7891C35.3804 40 36.8333 39.3979 37.9334 38.4102C37.9604 38.3895 37.9866 38.3677 38.0113 38.343C38.0216 38.3327 38.0308 38.3216 38.0405 38.3108C39.2454 37.1772 40 35.5701 40 33.7891V13.7467C40 13.5386 39.917 13.339 39.7692 13.1923ZM34.2188 9.88297L38.112 13.7487L34.2188 17.6419V9.88297ZM5.78125 9.85164V17.6419L1.88617 13.7467L5.78125 9.85164ZM2.56242 36.6642C1.93711 35.8724 1.5625 34.874 1.5625 33.7891V15.6329L12.5781 26.6486L2.56242 36.6642ZM25.0351 24.2618C22.2588 21.4856 17.7412 21.4856 14.9649 24.2618L13.683 25.5437L7.34375 19.2044V3.125C7.34375 2.26344 8.04469 1.5625 8.90625 1.5625H31.0938C31.9553 1.5625 32.6562 2.26344 32.6562 3.125V19.2044L26.317 25.5437L25.0351 24.2618ZM38.4375 33.7891C38.4375 34.874 38.0629 35.8725 37.4375 36.6643L27.4219 26.6486L38.4375 15.6329V33.7891Z" fill="#102937"/>
<path d="M39.7692 13.1923L34.2188 7.68102V3.125C34.2188 1.40188 32.8169 0 31.0938 0H8.90625C7.18313 0 5.78125 1.40188 5.78125 3.125V7.64188L0.228828 13.1942C0.0823437 13.3409 0 13.5395 0 13.7467V33.7891C0 37.2138 2.78625 40 6.21094 40H25.7759C26.2073 40 26.5572 39.6502 26.5572 39.2188C26.5572 38.7873 26.2073 38.4375 25.7759 38.4375H6.21094C5.29633 38.4375 4.44336 38.1709 3.72352 37.713L5.18812 36.2484H17.1873C17.6187 36.2484 17.9686 35.8985 17.9686 35.4671C17.9686 35.0357 17.6187 34.6859 17.1873 34.6859H6.75055L16.0698 25.3666C18.237 23.1995 21.7631 23.1995 23.9302 25.3666L36.2764 37.713C35.5566 38.1709 34.7037 38.4375 33.7891 38.4375H32.7344C32.303 38.4375 31.9531 38.7873 31.9531 39.2188C31.9531 39.6502 32.303 40 32.7344 40H33.7891C35.3804 40 36.8333 39.3979 37.9334 38.4102C37.9604 38.3895 37.9866 38.3677 38.0113 38.343C38.0216 38.3327 38.0308 38.3216 38.0405 38.3108C39.2454 37.1772 40 35.5701 40 33.7891V13.7467C40 13.5386 39.917 13.339 39.7692 13.1923ZM34.2188 9.88297L38.112 13.7487L34.2188 17.6419V9.88297ZM5.78125 9.85164V17.6419L1.88617 13.7467L5.78125 9.85164ZM2.56242 36.6642C1.93711 35.8724 1.5625 34.874 1.5625 33.7891V15.6329L12.5781 26.6486L2.56242 36.6642ZM25.0351 24.2618C22.2588 21.4856 17.7412 21.4856 14.9649 24.2618L13.683 25.5437L7.34375 19.2044V3.125C7.34375 2.26344 8.04469 1.5625 8.90625 1.5625H31.0938C31.9553 1.5625 32.6562 2.26344 32.6562 3.125V19.2044L26.317 25.5437L25.0351 24.2618ZM38.4375 33.7891C38.4375 34.874 38.0629 35.8725 37.4375 36.6643L27.4219 26.6486L38.4375 15.6329V33.7891Z" fill="#212121"/>
<path d="M39.7692 13.1923L34.2188 7.68102V3.125C34.2188 1.40188 32.8169 0 31.0938 0H8.90625C7.18313 0 5.78125 1.40188 5.78125 3.125V7.64188L0.228828 13.1942C0.0823437 13.3409 0 13.5395 0 13.7467V33.7891C0 37.2138 2.78625 40 6.21094 40H25.7759C26.2073 40 26.5572 39.6502 26.5572 39.2188C26.5572 38.7873 26.2073 38.4375 25.7759 38.4375H6.21094C5.29633 38.4375 4.44336 38.1709 3.72352 37.713L5.18812 36.2484H17.1873C17.6187 36.2484 17.9686 35.8985 17.9686 35.4671C17.9686 35.0357 17.6187 34.6859 17.1873 34.6859H6.75055L16.0698 25.3666C18.237 23.1995 21.7631 23.1995 23.9302 25.3666L36.2764 37.713C35.5566 38.1709 34.7037 38.4375 33.7891 38.4375H32.7344C32.303 38.4375 31.9531 38.7873 31.9531 39.2188C31.9531 39.6502 32.303 40 32.7344 40H33.7891C35.3804 40 36.8333 39.3979 37.9334 38.4102C37.9604 38.3895 37.9866 38.3677 38.0113 38.343C38.0216 38.3327 38.0308 38.3216 38.0405 38.3108C39.2454 37.1772 40 35.5701 40 33.7891V13.7467C40 13.5386 39.917 13.339 39.7692 13.1923ZM34.2188 9.88297L38.112 13.7487L34.2188 17.6419V9.88297ZM5.78125 9.85164V17.6419L1.88617 13.7467L5.78125 9.85164ZM2.56242 36.6642C1.93711 35.8724 1.5625 34.874 1.5625 33.7891V15.6329L12.5781 26.6486L2.56242 36.6642ZM25.0351 24.2618C22.2588 21.4856 17.7412 21.4856 14.9649 24.2618L13.683 25.5437L7.34375 19.2044V3.125C7.34375 2.26344 8.04469 1.5625 8.90625 1.5625H31.0938C31.9553 1.5625 32.6562 2.26344 32.6562 3.125V19.2044L26.317 25.5437L25.0351 24.2618ZM38.4375 33.7891C38.4375 34.874 38.0629 35.8725 37.4375 36.6643L27.4219 26.6486L38.4375 15.6329V33.7891Z" fill="#192A32"/>
<path d="M20.4684 7.1875H12.6191C12.1877 7.1875 11.8379 7.53734 11.8379 7.96875C11.8379 8.40016 12.1877 8.75 12.6191 8.75H20.4684C20.8998 8.75 21.2497 8.40016 21.2497 7.96875C21.2497 7.53734 20.8998 7.1875 20.4684 7.1875Z" fill="#102937"/>
<path d="M20.4684 7.1875H12.6191C12.1877 7.1875 11.8379 7.53734 11.8379 7.96875C11.8379 8.40016 12.1877 8.75 12.6191 8.75H20.4684C20.8998 8.75 21.2497 8.40016 21.2497 7.96875C21.2497 7.53734 20.8998 7.1875 20.4684 7.1875Z" fill="#212121"/>
<path d="M20.4684 7.1875H12.6191C12.1877 7.1875 11.8379 7.53734 11.8379 7.96875C11.8379 8.40016 12.1877 8.75 12.6191 8.75H20.4684C20.8998 8.75 21.2497 8.40016 21.2497 7.96875C21.2497 7.53734 20.8998 7.1875 20.4684 7.1875Z" fill="#192A32"/>
<path d="M24.641 7.41641C24.4949 7.27109 24.2934 7.1875 24.0879 7.1875C23.8824 7.1875 23.6809 7.27102 23.5355 7.41641C23.3902 7.5618 23.3066 7.76328 23.3066 7.96875C23.3066 8.17422 23.3902 8.37578 23.5355 8.52102C23.6816 8.66641 23.8824 8.75 24.0879 8.75C24.2934 8.75 24.4949 8.66641 24.641 8.52102C24.7863 8.37578 24.8691 8.17422 24.8691 7.96875C24.8691 7.76328 24.7863 7.56172 24.641 7.41641Z" fill="#102937"/>
<path d="M24.641 7.41641C24.4949 7.27109 24.2934 7.1875 24.0879 7.1875C23.8824 7.1875 23.6809 7.27102 23.5355 7.41641C23.3902 7.5618 23.3066 7.76328 23.3066 7.96875C23.3066 8.17422 23.3902 8.37578 23.5355 8.52102C23.6816 8.66641 23.8824 8.75 24.0879 8.75C24.2934 8.75 24.4949 8.66641 24.641 8.52102C24.7863 8.37578 24.8691 8.17422 24.8691 7.96875C24.8691 7.76328 24.7863 7.56172 24.641 7.41641Z" fill="#212121"/>
<path d="M24.641 7.41641C24.4949 7.27109 24.2934 7.1875 24.0879 7.1875C23.8824 7.1875 23.6809 7.27102 23.5355 7.41641C23.3902 7.5618 23.3066 7.76328 23.3066 7.96875C23.3066 8.17422 23.3902 8.37578 23.5355 8.52102C23.6816 8.66641 23.8824 8.75 24.0879 8.75C24.2934 8.75 24.4949 8.66641 24.641 8.52102C24.7863 8.37578 24.8691 8.17422 24.8691 7.96875C24.8691 7.76328 24.7863 7.56172 24.641 7.41641Z" fill="#192A32"/>
<path d="M27.3802 12.8125H12.6191C12.1877 12.8125 11.8379 13.1623 11.8379 13.5938C11.8379 14.0252 12.1877 14.375 12.6191 14.375H27.3802C27.8116 14.375 28.1614 14.0252 28.1614 13.5938C28.1614 13.1623 27.8116 12.8125 27.3802 12.8125Z" fill="#102937"/>
<path d="M27.3802 12.8125H12.6191C12.1877 12.8125 11.8379 13.1623 11.8379 13.5938C11.8379 14.0252 12.1877 14.375 12.6191 14.375H27.3802C27.8116 14.375 28.1614 14.0252 28.1614 13.5938C28.1614 13.1623 27.8116 12.8125 27.3802 12.8125Z" fill="#212121"/>
<path d="M27.3802 12.8125H12.6191C12.1877 12.8125 11.8379 13.1623 11.8379 13.5938C11.8379 14.0252 12.1877 14.375 12.6191 14.375H27.3802C27.8116 14.375 28.1614 14.0252 28.1614 13.5938C28.1614 13.1623 27.8116 12.8125 27.3802 12.8125Z" fill="#192A32"/>
<path d="M27.3802 18.4375H12.6191C12.1877 18.4375 11.8379 18.7873 11.8379 19.2188C11.8379 19.6502 12.1877 20 12.6191 20H27.3801C27.8116 20 28.1615 19.6502 28.1615 19.2188C28.1615 18.7873 27.8116 18.4375 27.3802 18.4375Z" fill="#102937"/>
<path d="M27.3802 18.4375H12.6191C12.1877 18.4375 11.8379 18.7873 11.8379 19.2188C11.8379 19.6502 12.1877 20 12.6191 20H27.3801C27.8116 20 28.1615 19.6502 28.1615 19.2188C28.1615 18.7873 27.8116 18.4375 27.3802 18.4375Z" fill="#212121"/>
<path d="M27.3802 18.4375H12.6191C12.1877 18.4375 11.8379 18.7873 11.8379 19.2188C11.8379 19.6502 12.1877 20 12.6191 20H27.3801C27.8116 20 28.1615 19.6502 28.1615 19.2188C28.1615 18.7873 27.8116 18.4375 27.3802 18.4375Z" fill="#192A32"/>
</svg>
