<?xml version="1.0" encoding="utf-8"?>
<!-- Generator: Adobe Illustrator 22.1.0, SVG Export Plug-In . SVG Version: 6.00 Build 0)  -->
<svg version="1.1" id="图层_1" xmlns="http://www.w3.org/2000/svg" xmlns:xlink="http://www.w3.org/1999/xlink" x="0px" y="0px"
	 viewBox="0 0 32 32" style="enable-background:new 0 0 32 32;" xml:space="preserve">
<style type="text/css">
	.st0{display:none;fill:#FFFFFF;}
	.st1{fill:#FFFFFF;}
</style>
<rect x="-824" y="-496" class="st0" width="1680" height="1024"/>
<g>
	<defs>
		<rect id="SVGID_1_" x="-1564.9" width="1680" height="1024"/>
	</defs>
	<clipPath id="SVGID_2_">
		<use xlink:href="#SVGID_1_"  style="overflow:visible;"/>
	</clipPath>
</g>
<path class="st1" d="M5.3,10.7V5.3h5.4v5.4H5.3z M5.3,18.7v-5.4h5.4v5.4H5.3z M5.3,26.7v-5.4h5.4v5.4H5.3z M13.3,10.7V5.3h5.4v5.4
	H13.3z M13.3,18.7v-5.4h5.4v5.4H13.3z M13.3,26.7v-5.4h5.4v5.4H13.3z M21.3,5.3h5.4v5.4h-5.4V5.3z M21.3,18.7v-5.4h5.4v5.4H21.3z
	 M21.3,26.7v-5.4h5.4v5.4H21.3z"/>
</svg>
