<svg xmlns="http://www.w3.org/2000/svg" xmlns:xlink="http://www.w3.org/1999/xlink" width="160" height="96" viewBox="0 0 160 96">
    <defs>
        <path id="a" d="M0 0h160v96H0z"/>
        <linearGradient id="c" x1="0%" y1="0%" y2="100%">
            <stop offset="0%" stop-color="#D6E2EB"/>
            <stop offset="100%" stop-color="#EEF2F5" stop-opacity=".5"/>
        </linearGradient>
        <linearGradient id="d" x1="100%" x2="0%" y1="100%" y2="0%">
            <stop offset="0%" stop-color="#2FB7EC" stop-opacity=".4"/>
            <stop offset="100%" stop-color="#2FB7EC" stop-opacity=".8"/>
        </linearGradient>
        <path id="e" d="M0 0h16v16H0z"/>
        <path id="g" d="M60 41v-3h-2v3h-2a1 1 0 0 1-1-1v-5l2-2 2-1 2 1 2 2v5a1 1 0 0 1-1 1h-2zm3.819-5.183c.241.27.241.71 0 .98a.574.574 0 0 1-.877 0L59 32.387l-3.942 4.41a.574.574 0 0 1-.877 0 .753.753 0 0 1 0-.98l3.943-4.411a1.148 1.148 0 0 1 1.752 0l3.943 4.41z"/>
        <path id="h" d="M9.432 43H17A1 1 0 0 1 17 45H9.433l3.272 3.276a1.01 1.01 0 0 1 0 1.428 1.006 1.006 0 0 1-1.425 0l-4.985-4.992a1.01 1.01 0 0 1 0-1.426l4.985-4.992a1.01 1.01 0 0 1 1.425 1.427L9.432 43z"/>
        <path id="i" d="M29.432 43H37A1 1 0 0 1 37 45h-7.567l3.272 3.276a1.01 1.01 0 0 1 0 1.428 1.006 1.006 0 0 1-1.425 0l-4.985-4.992a1.01 1.01 0 0 1 0-1.426l4.985-4.992a1.01 1.01 0 0 1 1.425 1.427L29.432 43z"/>
    </defs>
    <g fill="none" fill-rule="evenodd">
        <mask id="b" fill="#fff">
            <use xlink:href="#a"/>
        </mask>
        <use fill="#D12C2C" fill-opacity="0" fill-rule="nonzero" xlink:href="#a"/>
        <g mask="url(#b)">
            <g transform="translate(0 8)">
                <path fill="url(#c)" d="M0 0h160v24H4a4 4 0 0 1-4-4V0z" transform="matrix(1 0 0 -1 0 24)"/>
                <path fill="#FFF" d="M0 48h160V24H0z"/>
                <path fill="#AFC7D1" fill-rule="nonzero" d="M12 8a4 4 0 1 1 0 8 4 4 0 1 1 0-8zM24 8a4 4 0 1 1 0 8 4 4 0 1 1 0-8zM36 8a4 4 0 1 1 0 8 4 4 0 1 1 0-8z"/>
                <path fill="#FFF" fill-rule="nonzero" d="M52 4h108v20H48V8a4 4 0 0 1 4-4z"/>
                <path fill="#AFC7D1" fill-opacity=".6" fill-rule="nonzero" d="M55 12h52a2 2 0 0 1 0 4H55a2 2 0 1 1 0-4z"/>
                <path fill="url(#c)" d="M56 28h104v16H56a8 8 0 1 1 0-16z"/>
                <path fill="#2FB7EC" fill-rule="nonzero" d="M69 34h34a2 2 0 0 1 0 4H69a2 2 0 1 1 0-4zM109 34h4a2 2 0 0 1 0 4h-4a2 2 0 0 1 0-4zM119 34a2 2 0 0 1 0 4 2 2 0 0 1 0-4z"/>
                <path fill="#FFF" fill-rule="nonzero" d="M48 20v4h-4a4 4 0 0 0 4-4z"/>
                <path fill="url(#d)" d="M0 48h160v32H0z" style="mix-blend-mode:darken"/>
                <g transform="translate(124 16)">
                    <circle cx="14" cy="14" r="15" fill="#2EE3AA" fill-rule="nonzero" stroke="#FFF" stroke-width="2"/>
                    <g transform="translate(6 6)">
                        <mask id="f" fill="#fff">
                            <use xlink:href="#e"/>
                        </mask>
                        <use fill="#CD2D2D" fill-opacity="0" xlink:href="#e"/>
                        <g fill="#FFF" mask="url(#f)">
                            <path d="M6.657 10.314L13.02 3.95a1 1 0 0 1 1.414 1.414l-7.071 7.071a1 1 0 0 1-1.414 0L1.707 8.192a1 1 0 1 1 1.414-1.414l3.536 3.536z"/>
                        </g>
                    </g>
                </g>
                <use fill="#4A5F6E" fill-rule="nonzero" xlink:href="#g"/>
            </g>
        </g>
        <use fill="#4A5F6E" fill-rule="nonzero" xlink:href="#h"/>
        <use fill="#4A5F6E" fill-opacity=".2" fill-rule="nonzero" transform="matrix(-1 0 0 1 64 0)" xlink:href="#i"/>
    </g>
</svg>
