<svg xmlns="http://www.w3.org/2000/svg" xmlns:xlink="http://www.w3.org/1999/xlink" width="240" height="200" viewBox="0 0 240 200">
    <defs>
        <path id="a" d="M0 0h240v200H0z"/>
        <linearGradient id="c" x1="100%" x2="0%" y1="45.117%" y2="54.883%">
            <stop offset="0%" stop-color="#1D4BEA"/>
            <stop offset="100%" stop-color="#1D4BEA" stop-opacity=".1"/>
        </linearGradient>
        <linearGradient id="d" x1="100%" x2="0%" y1="49.111%" y2="50.889%">
            <stop offset="0%" stop-color="#1ACC94"/>
            <stop offset="100%" stop-color="#2EE3AA"/>
        </linearGradient>
        <path id="e" d="M8 0v8l-.25-.004A8 8 0 0 1 0 0h8z"/>
        <linearGradient id="f" x1="39.497%" x2="60.503%" y1="0%" y2="100%">
            <stop offset="0%" stop-color="#1ACC94"/>
            <stop offset="100%" stop-color="#2EE3AA"/>
        </linearGradient>
        <path id="g" d="M8 0v8l-.25-.004A8 8 0 0 1 0 0h8z"/>
        <linearGradient id="h" x1="93.945%" x2="6.055%" y1="0%" y2="100%">
            <stop offset="0%" stop-color="#F0B616"/>
            <stop offset="100%" stop-color="#FFC72C"/>
        </linearGradient>
        <linearGradient id="i" x1="100%" x2="0%" y1="49.426%" y2="51.42%">
            <stop offset="0%" stop-color="#FFE380"/>
            <stop offset="100%" stop-color="#FFD560"/>
        </linearGradient>
        <linearGradient id="j" x1="55.556%" x2="44.444%" y1="0%" y2="100%">
            <stop offset="0%" stop-color="#92F1D3" stop-opacity=".6"/>
            <stop offset="100%" stop-color="#92F1D3" stop-opacity=".4"/>
        </linearGradient>
        <linearGradient id="k" x1="100%" x2="0%" y1="7.986%" y2="92.014%">
            <stop offset="0%" stop-color="#1D4BEA" stop-opacity=".4"/>
            <stop offset="100%" stop-color="#1D4BEA" stop-opacity=".1"/>
        </linearGradient>
        <linearGradient id="l" x1="50%" x2="50%" y1="0%" y2="100%">
            <stop offset="0%" stop-color="#FFD560"/>
            <stop offset="100%" stop-color="#FFE380"/>
        </linearGradient>
    </defs>
    <g fill="none" fill-rule="evenodd">
        <mask id="b" fill="#fff">
            <use xlink:href="#a"/>
        </mask>
        <use fill="#FFF" fill-opacity="0" xlink:href="#a"/>
        <g mask="url(#b)">
            <g transform="translate(5 35)">
                <path fill="#E6F7FF" d="M29 41v54H0z"/>
                <rect width="12" height="6" x="25" y="70" fill="#2FB7EC" fill-opacity=".4" rx="1"/>
                <rect width="12" height="6" x="148" y="14" fill="#CEF2FD" rx="1"/>
                <rect width="12" height="6" x="156" y="6" fill="#CEF2FD" rx="1"/>
                <path fill="#2F88EC" d="M31 22h120a2 2 0 0 1 2 2v66H29V24a2 2 0 0 1 2-2z"/>
                <path fill="#FFE380" fill-opacity=".4" d="M153 28v23h15l-9.001-23z"/>
                <path fill="#FEFEFE" d="M37 84h108V34H37z"/>
                <path fill="#EEF2F5" fill-opacity=".5" d="M37 29.984V84h61l21-56-80-.016a2 2 0 0 0-2 2z"/>
                <path fill="#92F1D3" d="M37 34h108v-4a2 2 0 0 0-2-2H39a2 2 0 0 0-2 2v4z"/>
                <path fill="#2EE3AA" d="M37 34h80l2-6H39a2 2 0 0 0-2 2v4z"/>
                <path fill="#FEFEFE" d="M41 30.897c0 .534-.447.965-1 .965-.553 0-1-.431-1-.965 0-.535.447-.966 1-.966.553 0 1 .431 1 .966M44 30.897c0 .534-.447.965-1 .965-.553 0-1-.431-1-.965 0-.535.447-.966 1-.966.553 0 1 .431 1 .966M47 30.897c0 .534-.447.965-1 .965-.553 0-1-.431-1-.965 0-.535.447-.966 1-.966.553 0 1 .431 1 .966"/>
                <path fill="#1D4BEA" d="M59 109h64v-4H59z"/>
                <path fill="#C3D4FA" d="M19 113h104v-4H19a2 2 0 0 0 0 4z"/>
                <path fill="#2F88EC" d="M75 105h32V95H75z"/>
                <path fill="#1D4BEA" d="M29 90h124v3a2 2 0 0 1-2 2H31a2 2 0 0 1-2-2v-3zM59 109h64v-4H59z"/>
                <path fill="url(#c)" d="M75 105l32-10H75z"/>
                <path fill="#E6F7FF" d="M122 46h12v12h-12z"/>
                <rect width="12" height="6" x="13" y="52" fill="#2FB7EC" fill-opacity=".4" rx="1"/>
                <rect width="12" height="6" x="9" y="44" fill="#CEF2FD" rx="1"/>
                <path fill="#CEF2FD" d="M92 46h12v12H92z"/>
                <path fill="#E6F7FF" d="M107 46h12v12h-12z"/>
                <path fill="#CEF2FD" d="M92 60h12v12H92z"/>
                <path fill="#E6F7FF" d="M107 60h12v12h-12z"/>
                <path fill="#8BDCFB" d="M54 46h30v2H54z"/>
                <g fill-rule="nonzero" transform="translate(44 43)">
                    <circle cx="4" cy="4" r="4" fill="#2EE3AA"/>
                    <path fill="#FFF" d="M3.504 4.78L5.735 2.44a.34.34 0 0 1 .496 0 .38.38 0 0 1 0 .52L3.752 5.559a.34.34 0 0 1-.496 0L1.77 4a.38.38 0 0 1 0-.52.34.34 0 0 1 .496 0l1.24 1.3z"/>
                </g>
                <path fill="#8BDCFB" d="M54 58h30v2H54z"/>
                <g fill-rule="nonzero" transform="translate(44 55)">
                    <circle cx="4" cy="4" r="4" fill="#2EE3AA"/>
                    <path fill="#FFF" d="M3.504 4.78L5.735 2.44a.34.34 0 0 1 .496 0 .38.38 0 0 1 0 .52L3.752 5.559a.34.34 0 0 1-.496 0L1.77 4a.38.38 0 0 1 0-.52.34.34 0 0 1 .496 0l1.24 1.3z"/>
                </g>
                <path fill="#8BDCFB" d="M54 70h30v2H54z"/>
                <g fill-rule="nonzero" transform="translate(44 67)">
                    <circle cx="4" cy="4" r="4" fill="#2EE3AA"/>
                    <path fill="#FFF" d="M3.504 4.78L5.735 2.44a.34.34 0 0 1 .496 0 .38.38 0 0 1 0 .52L3.752 5.559a.34.34 0 0 1-.496 0L1.77 4a.38.38 0 0 1 0-.52.34.34 0 0 1 .496 0l1.24 1.3z"/>
                </g>
                <path fill="#2EE3AA" fill-rule="nonzero" d="M123 59h62v64s-.61 8-8 8h-54V59z"/>
                <rect width="50" height="3" x="129" y="82" fill="#FFF" fill-rule="nonzero" rx="1.5"/>
                <rect width="30" height="3" x="129" y="65" fill="#92F1D3" fill-rule="nonzero" rx="1.5"/>
                <rect width="16" height="3" x="129" y="71" fill="#92F1D3" fill-rule="nonzero" rx="1.5"/>
                <rect width="20" height="3" x="129" y="100" fill="#FFF" fill-rule="nonzero" rx="1.5"/>
                <rect width="20" height="3" x="129" y="106" fill="#FFF" fill-rule="nonzero" rx="1.5"/>
                <rect width="20" height="3" x="129" y="115" fill="#FFD560" fill-rule="nonzero" rx="1.5"/>
                <rect width="50" height="3" x="129" y="88" fill="#FFF" fill-rule="nonzero" rx="1.5"/>
                <rect width="50" height="3" x="129" y="94" fill="#FFF" fill-rule="nonzero" rx="1.5"/>
                <g fill-rule="nonzero" transform="translate(109 123)">
                    <path fill="url(#d)" d="M60.941 0c0 4.418 3.16 8 7.059 8H8V0h52.941z"/>
                    <use fill="#2EE3AA" xlink:href="#e"/>
                </g>
                <path fill="#FFD560" fill-rule="nonzero" d="M153.004 38.75a8 8 0 0 1 7.747-7.746L161 31h61c-2.838 0-6.84 3.443-6.995 7.741L215 39v52s-.61 8-8 8h-15.5l1-48-39.5.161V39z"/>
                <path fill="#FFE380" fill-rule="nonzero" d="M160.188 31L168 50.96h-15v-12l.004-.25a8.001 8.001 0 0 1 7.184-7.71z"/>
                <path fill="url(#f)" fill-rule="nonzero" d="M192.5 51a7.5 7.5 0 0 1 7.5 7.5v33.512c.518 4.033 2.852 6.362 7 6.988h-22V58.5a7.5 7.5 0 0 1 7.5-7.5z"/>
                <g fill="#2EE3AA" fill-rule="nonzero" transform="matrix(1 0 0 -1 123 59)">
                    <path d="M62 0c0 5.603 4.399 8 7 8H8V0h54z"/>
                    <use xlink:href="#g"/>
                </g>
                <path fill="url(#h)" fill-rule="nonzero" d="M222.5 31a7.5 7.5 0 0 1 7.5 7.5V47h-15v-8.5a7.5 7.5 0 0 1 7.5-7.5z"/>
                <g fill="#FFF" fill-rule="nonzero" transform="translate(160 39)">
                    <rect width="28" height="3" rx="1.5"/>
                    <rect width="16" height="3" y="6" rx="1.5"/>
                </g>
                <g fill-rule="nonzero">
                    <path fill="#FFE380" d="M177.284 96.364l-19.799 19.799-4.242-4.243 19.799-19.799z"/>
                    <path fill="#4A90E2" d="M178.698 94.95l-1.414 1.414-4.242-4.243 1.414-1.414a1 1 0 0 1 1.414 0l2.828 2.829a1 1 0 0 1 0 1.414z"/>
                    <path fill="url(#i)" d="M3 0h28v3H3z" transform="rotate(135 70.185 84.277)"/>
                    <path fill="#FFF" d="M157.485 116.163l-6.364 2.121 2.122-6.364z"/>
                    <path fill="#4A5F6E" d="M154.303 117.224l-3.182 1.06 1.061-3.182z"/>
                </g>
                <path fill="#CEF2FD" d="M112.25 46l-4.5 12H107V46h5.25z"/>
                <path fill="url(#j)" d="M123 60v24h-8z"/>
                <path fill="url(#j)" d="M193 99v24h-8z" transform="rotate(180 189 111)"/>
                <path fill="url(#k)" d="M114 84h9v11h-12z"/>
                <path fill="#5685F1" d="M109 109h14v-4a2 2 0 0 0-2-2h-10a2 2 0 0 0-2 2v4z"/>
                <path fill="#326BEE" d="M34 95a6 6 0 1 1 0 12 6 6 0 0 1 0-12zm0 2a4 4 0 1 0 0 8 4 4 0 0 0 0-8z"/>
                <path fill="#5685F1" d="M22 109h12l.938-15.941A1 1 0 0 0 33.939 92H22.061a1 1 0 0 0-.999 1.059L22 109z"/>
                <path fill="#2FB7EC" d="M25 92h1v9h-1z"/>
                <path fill="#2FB7EC" d="M25.5 98l2.5 4h-5z"/>
                <path fill="url(#l)" d="M23 92c-1.333-2.51-.5-4.303 2.5-5.382 4.5-1.618 5.997-.177 5.249-3.809-.749-3.632 6.062 4.024 1.656 5.252-2.937.818-2.937 2.13 0 3.939H23z"/>
                <path fill="#2FB7EC" d="M119 28c1.491-8.93 20.332-15 20.332-15s19.854 7.457 19.667 15H119z"/>
                <rect width="2" height="15" x="138" fill="#2FB7EC" rx="1"/>
            </g>
        </g>
    </g>
</svg>
