<svg xmlns="http://www.w3.org/2000/svg" width="16" height="16" viewBox="0 0 16 16">
    <g fill="none" fill-rule="evenodd">
        <path fill="#EEF2F5" d="M1 2h14a1 1 0 0 1 1 1v12a1 1 0 0 1-1 1H1a1 1 0 0 1-1-1V3a1 1 0 0 1 1-1z"/>
        <path fill="#006BA0" d="M3 7h2v2H3z"/>
        <rect width="6" height="2" x="7" y="7" fill="#006BA0" rx="1"/>
        <path fill="#006BA0" d="M3 11h2v2H3z"/>
        <rect width="6" height="2" x="7" y="11" fill="#006BA0" rx="1"/>
        <path fill="#1A4379" d="M1 2h14a1 1 0 0 1 1 1v2H0V3a1 1 0 0 1 1-1z"/>
        <path fill="#C4CDD5" d="M5 0a1 1 0 0 1 1 1v1H4V1a1 1 0 0 1 1-1zM11 0a1 1 0 0 1 1 1v1h-2V1a1 1 0 0 1 1-1z"/>
    </g>
</svg>
