<svg width="15" height="16" viewBox="0 0 15 16" fill="none" xmlns="http://www.w3.org/2000/svg">
<path d="M10.6217 1.33341H12.6217C12.9754 1.33341 13.3145 1.47389 13.5646 1.72394C13.8146 1.97399 13.9551 2.31313 13.9551 2.66675V7.33341C13.9551 7.68704 13.8146 8.02617 13.5646 8.27622C13.3145 8.52627 12.9754 8.66675 12.6217 8.66675H10.6217M5.95508 10.0001V12.6667C5.95508 13.1972 6.16579 13.7059 6.54086 14.081C6.91594 14.456 7.42464 14.6667 7.95508 14.6667L10.6217 8.66675L10.6217 1.33341L3.10174 1.33341C2.78019 1.32978 2.46816 1.44248 2.22314 1.65074C1.97812 1.85901 1.81663 2.14881 1.76841 2.46675L0.848411 8.46675C0.819406 8.65784 0.832295 8.85296 0.886184 9.03858C0.940074 9.2242 1.03368 9.39588 1.16051 9.54174C1.28733 9.68759 1.44436 9.80413 1.6207 9.88327C1.79704 9.96241 1.98847 10.0023 2.18174 10.0001L5.95508 10.0001Z" stroke="#FFF" stroke-linecap="round" stroke-linejoin="round"/>
</svg>
