<svg xmlns="http://www.w3.org/2000/svg" width="24" height="24" viewBox="0 0 24 24" fill="none">
<rect width="24" height="24" rx="12" fill="#EEF2F5"/>
<path d="M7.4541 15.4545C7.4541 15.3541 7.5355 15.2727 7.63592 15.2727H16.3632C16.4636 15.2727 16.545 15.3541 16.545 15.4545V16.9091C16.545 17.0095 16.4636 17.0909 16.3632 17.0909H7.63592C7.5355 17.0909 7.4541 17.0095 7.4541 16.9091V15.4545Z" fill="url(#gradient_a)"/>
<path d="M12 6.54541C12.0552 6.54541 12.1075 6.57052 12.142 6.61365L14.95 10.1236L17.7218 8.39123C17.7876 8.3501 17.8723 8.35527 17.9326 8.40409C17.9929 8.45291 18.0156 8.53462 17.989 8.60754L16.5454 12.5774V13.9999C16.5454 14.1004 16.464 14.1818 16.3636 14.1818H7.63637C7.53596 14.1818 7.45455 14.1004 7.45455 13.9999V12.5774L6.01096 8.60754C5.98444 8.53462 6.00712 8.45291 6.06743 8.40409C6.12775 8.35527 6.21239 8.3501 6.27819 8.39123L9.05004 10.1236L11.858 6.61365C11.8925 6.57052 11.9448 6.54541 12 6.54541Z" fill="url(#gradient_b)"/>
<defs>
<linearGradient id="gradient_a" x1="17.0904" y1="17.0909" x2="6.18138" y2="17.0909" gradientUnits="userSpaceOnUse">
<stop stop-color="#8996A4"/>
<stop offset="0.546875" stop-color="#8996A4" stop-opacity="0.24"/>
<stop offset="0.992188" stop-color="#8996A4"/>
</linearGradient>
<linearGradient id="gradient_b" x1="15.6363" y1="11.8181" x2="6.18182" y2="14.1818" gradientUnits="userSpaceOnUse">
<stop stop-color="#8996A4"/>
<stop offset="0.546875" stop-color="#8996A4" stop-opacity="0.24"/>
<stop offset="0.992188" stop-color="#8996A4"/>
</linearGradient>
</defs>
</svg>