<?xml version="1.0" encoding="utf-8"?>
<!-- Generator: Adobe Illustrator 24.0.3, SVG Export Plug-In . SVG Version: 6.00 Build 0)  -->
<svg version="1.1" id="Layer_1" xmlns="http://www.w3.org/2000/svg" xmlns:xlink="http://www.w3.org/1999/xlink" x="0px" y="0px"
	 viewBox="0 0 1360 644" style="enable-background:new 0 0 1360 644;" xml:space="preserve">
<style type="text/css">
	.st0{fill-rule:evenodd;clip-rule:evenodd;fill:#D9F2FD;}
	.st1{fill:url(#SVGID_1_);}
	.st2{fill:#E6F7FF;}
	.st3{fill:#F4F4F4;}
	.st4{fill:#FFFFFF;}
	.st5{fill:#E9E9E9;}
	.st6{fill-rule:evenodd;clip-rule:evenodd;fill:url(#SVGID_2_);}
	.st7{fill-rule:evenodd;clip-rule:evenodd;fill:url(#SVGID_3_);filter:url(#Adobe_OpacityMaskFilter);}
	.st8{mask:url(#mask0_1_);}
	.st9{fill:url(#SVGID_4_);}
	.st10{fill:none;filter:url(#Adobe_OpacityMaskFilter_1_);}
	.st11{mask:url(#mask1_1_);}
	.st12{fill-rule:evenodd;clip-rule:evenodd;fill:url(#SVGID_5_);}
	.st13{fill-rule:evenodd;clip-rule:evenodd;fill:url(#SVGID_6_);filter:url(#Adobe_OpacityMaskFilter_2_);}
	.st14{mask:url(#mask2_1_);}
	.st15{fill:url(#SVGID_7_);}
	.st16{fill:none;filter:url(#Adobe_OpacityMaskFilter_3_);}
	.st17{mask:url(#mask3_1_);}
	.st18{fill-rule:evenodd;clip-rule:evenodd;fill:#FFFFFF;}
	.st19{fill-rule:evenodd;clip-rule:evenodd;fill:url(#SVGID_8_);}
	.st20{fill-rule:evenodd;clip-rule:evenodd;fill:url(#SVGID_9_);filter:url(#Adobe_OpacityMaskFilter_4_);}
	.st21{mask:url(#mask4_1_);}
	.st22{fill:url(#SVGID_10_);}
	.st23{fill:none;filter:url(#Adobe_OpacityMaskFilter_5_);}
	.st24{display:none;mask:url(#mask5_1_);}
	.st25{fill:#30B7ED;fill-opacity:0.35;}
	.st26{fill:#30B7ED;fill-opacity:0.5;}
	.st27{fill:#30B7ED;fill-opacity:0.75;}
	.st28{fill:url(#SVGID_11_);}
	.st29{fill:#4A90E2;}
	.st30{fill:url(#SVGID_12_);}
	.st31{fill:url(#SVGID_13_);}
	.st32{fill:url(#SVGID_14_);}
	.st33{fill:#8BDCFB;}
	.st34{fill:#2FB7EC;}
	.st35{fill:url(#SVGID_15_);}
	.st36{fill:url(#SVGID_16_);}
	.st37{fill:url(#SVGID_17_);}
	.st38{fill:#BAECFD;}
	.st39{fill:url(#SVGID_18_);}
	.st40{fill:url(#SVGID_19_);}
	.st41{fill:#FFFFFF;stroke:#FFFFFF;stroke-width:5.5;stroke-miterlimit:87.8193;}
</style>
<path class="st0" d="M253.9,644c0,0-25-215.3,188.3-175.6C655.4,508,616.5,426,761.5,369.5c60-23.4,113.8-16.5,140.8-11.8
	c98.8,17.2,106.1,75.3,179.5,70.5c59.9-4,72.9-43.8,132.5-34c12.2,2,55.2,9.9,92,53.5c60.4,71.7,54.1,181.2,53.1,196.3H253.9z"/>
<linearGradient id="SVGID_1_" gradientUnits="userSpaceOnUse" x1="811.5" y1="538" x2="811.5" y2="63" gradientTransform="matrix(1 0 0 -1 0 646)">
	<stop  offset="0" style="stop-color:#2FB7EC"/>
	<stop  offset="1" style="stop-color:#30A3ED"/>
</linearGradient>
<path class="st1" d="M398,108h827v467c0,4.4-3.6,8-8,8H406c-4.4,0-8-3.6-8-8V108z"/>
<path class="st2" d="M398,108h827V71c0-4.4-3.6-8-8-8H406c-4.4,0-8,3.6-8,8V108z"/>
<path class="st3" d="M447,167c0-2.8,2.2-5,5-5h719c2.8,0,5,2.2,5,5v413H447V167z"/>
<path class="st4" d="M482.5,206h199c0.8,0,1.5,0.7,1.5,1.5v216c0,0.8-0.7,1.5-1.5,1.5h-199c-0.8,0-1.5-0.7-1.5-1.5v-216
	C481,206.7,481.7,206,482.5,206z"/>
<path class="st4" d="M712.5,206h199c0.8,0,1.5,0.7,1.5,1.5v199c0,0.8-0.7,1.5-1.5,1.5h-199c-0.8,0-1.5-0.7-1.5-1.5v-199
	C711,206.7,711.7,206,712.5,206z"/>
<path class="st4" d="M942.5,206h199c0.8,0,1.5,0.7,1.5,1.5v199c0,0.8-0.7,1.5-1.5,1.5h-199c-0.8,0-1.5-0.7-1.5-1.5v-199
	C941,206.7,941.7,206,942.5,206z"/>
<path class="st4" d="M711,442.5c0-0.8,0.7-1.5,1.5-1.5h199c0.8,0,1.5,0.7,1.5,1.5V583H711V442.5z"/>
<path class="st4" d="M941,443.5c0-0.8,0.7-1.5,1.5-1.5h199c0.8,0,1.5,0.7,1.5,1.5V583H941V443.5z"/>
<path class="st3" d="M731.5,360h137c2.5,0,4.5,2,4.5,4.5l0,0c0,2.5-2,4.5-4.5,4.5h-137c-2.5,0-4.5-2-4.5-4.5l0,0
	C727,362,729,360,731.5,360z"/>
<path class="st5" d="M731,377h51c2.2,0,4,1.8,4,4l0,0c0,2.2-1.8,4-4,4h-51c-2.2,0-4-1.8-4-4l0,0C727,378.8,728.8,377,731,377z"/>
<path class="st3" d="M979.5,360h137c2.5,0,4.5,2,4.5,4.5l0,0c0,2.5-2,4.5-4.5,4.5h-137c-2.5,0-4.5-2-4.5-4.5l0,0
	C975,362,977,360,979.5,360z"/>
<path class="st5" d="M979,377h24c2.2,0,4,1.8,4,4l0,0c0,2.2-1.8,4-4,4h-24c-2.2,0-4-1.8-4-4l0,0C975,378.8,976.8,377,979,377z"/>
<linearGradient id="SVGID_2_" gradientUnits="userSpaceOnUse" x1="1164.2451" y1="616.509" x2="1254.5452" y2="474.1131" gradientTransform="matrix(1 0 0 -1 0 646)">
	<stop  offset="0" style="stop-color:#FFE050"/>
	<stop  offset="0.6952" style="stop-color:#FFD038"/>
</linearGradient>
<path class="st6" d="M1300.5,89.2c0,49.2-40.2,89.2-89.7,89.2c-5.6,0-11-0.5-16.3-1.5l-41.2,16.1l2.9-32.7l1,0.3
	c-21.9-16.3-36.1-42.2-36.1-71.5c0-49.2,40.2-89.2,89.8-89.2C1260.3,0,1300.5,39.9,1300.5,89.2z"/>
<defs>
	<filter id="Adobe_OpacityMaskFilter" filterUnits="userSpaceOnUse" x="1066.9" y="-24.7" width="185.3" height="221.8">
		<feColorMatrix  type="matrix" values="1 0 0 0 0  0 1 0 0 0  0 0 1 0 0  0 0 0 1 0"/>
	</filter>
</defs>
<mask maskUnits="userSpaceOnUse" x="1066.9" y="-24.7" width="185.3" height="221.8" id="mask0_1_">
	
		<linearGradient id="SVGID_3_" gradientUnits="userSpaceOnUse" x1="1167.5417" y1="621.7142" x2="1281.7018" y2="419.2993" gradientTransform="matrix(1 0 0 -1 0 646)">
		<stop  offset="0" style="stop-color:#FFE354"/>
		<stop  offset="0.3854" style="stop-color:#FFCA30"/>
	</linearGradient>
	<path class="st7" d="M1300.5,89.2c0,49.2-40.2,89.2-89.7,89.2c-5.6,0-11-0.5-16.3-1.5l-41.2,16.1l2.9-32.7l1,0.3
		c-21.9-16.3-36.1-42.2-36.1-71.5c0-49.2,40.2-89.2,89.8-89.2C1260.3,0,1300.5,39.9,1300.5,89.2z"/>
</mask>
<g class="st8">
	
		<linearGradient id="SVGID_4_" gradientUnits="userSpaceOnUse" x1="1121.2548" y1="663.8954" x2="1158.0347" y2="457.3621" gradientTransform="matrix(1 0 0 -1 0 646)">
		<stop  offset="0" style="stop-color:#FFFFFF;stop-opacity:0"/>
		<stop  offset="1" style="stop-color:#FFD139"/>
	</linearGradient>
	<path class="st9" d="M1252.2,197.1L1180.4-20l-113.6-4.7v221.8H1252.2z"/>
</g>
<defs>
	<filter id="Adobe_OpacityMaskFilter_1_" filterUnits="userSpaceOnUse" x="1113.7" y="19.5" width="189.7" height="140.2">
		<feColorMatrix  type="matrix" values="1 0 0 0 0  0 1 0 0 0  0 0 1 0 0  0 0 0 1 0"/>
	</filter>
</defs>
<mask maskUnits="userSpaceOnUse" x="1113.7" y="19.5" width="189.7" height="140.2" id="mask1_1_">
	<rect x="1142.5" y="36" class="st10" width="136.1" height="90.7"/>
</mask>
<g class="st11">
	<rect x="1113.7" y="19.5" class="st4" width="189.7" height="140.2"/>
</g>
<linearGradient id="SVGID_5_" gradientUnits="userSpaceOnUse" x1="721.5444" y1="498.7138" x2="835.6974" y2="296.2988" gradientTransform="matrix(1 0 0 -1 0 646)">
	<stop  offset="0" style="stop-color:#FFE354"/>
	<stop  offset="0.3854" style="stop-color:#FFCA30"/>
</linearGradient>
<path class="st12" d="M854.5,212.2c0,49.2-40.2,89.1-89.7,89.1c-5.6,0-11-0.5-16.3-1.5L707.2,316l2.9-32.7l1,0.3
	c-21.9-16.3-36.1-42.2-36.1-71.5c0-49.2,40.2-89.2,89.8-89.2C814.3,123,854.5,162.9,854.5,212.2z"/>
<defs>
	<filter id="Adobe_OpacityMaskFilter_2_" filterUnits="userSpaceOnUse" x="620.9" y="98.3" width="185.3" height="221.8">
		<feColorMatrix  type="matrix" values="1 0 0 0 0  0 1 0 0 0  0 0 1 0 0  0 0 0 1 0"/>
	</filter>
</defs>
<mask maskUnits="userSpaceOnUse" x="620.9" y="98.3" width="185.3" height="221.8" id="mask2_1_">
	
		<linearGradient id="SVGID_6_" gradientUnits="userSpaceOnUse" x1="721.5444" y1="498.7138" x2="835.6974" y2="296.2988" gradientTransform="matrix(1 0 0 -1 0 646)">
		<stop  offset="0" style="stop-color:#FFE354"/>
		<stop  offset="0.3854" style="stop-color:#FFCA30"/>
	</linearGradient>
	<path class="st13" d="M854.5,212.2c0,49.2-40.2,89.1-89.7,89.1c-5.6,0-11-0.5-16.3-1.5L707.2,316l2.9-32.7l1,0.3
		c-21.9-16.3-36.1-42.2-36.1-71.5c0-49.2,40.2-89.2,89.8-89.2C814.3,123,854.5,162.9,854.5,212.2z"/>
</mask>
<g class="st14">
	
		<linearGradient id="SVGID_7_" gradientUnits="userSpaceOnUse" x1="675.2548" y1="540.896" x2="712.0308" y2="334.3626" gradientTransform="matrix(1 0 0 -1 0 646)">
		<stop  offset="0" style="stop-color:#FFFFFF;stop-opacity:0"/>
		<stop  offset="1" style="stop-color:#FFD139"/>
	</linearGradient>
	<path class="st15" d="M806.2,320.1L734.4,103l-113.6-4.7v221.8H806.2z"/>
</g>
<defs>
	<filter id="Adobe_OpacityMaskFilter_3_" filterUnits="userSpaceOnUse" x="682.5" y="109.7" width="201.4" height="166.1">
		<feColorMatrix  type="matrix" values="1 0 0 0 0  0 1 0 0 0  0 0 1 0 0  0 0 0 1 0"/>
	</filter>
</defs>
<mask maskUnits="userSpaceOnUse" x="682.5" y="109.7" width="201.4" height="166.1" id="mask3_1_">
	
		<rect x="711.3" y="150.3" transform="matrix(1 -5.843242e-03 5.843242e-03 1 -1.2109 4.4526)" class="st16" width="100.1" height="118.3"/>
</mask>
<g class="st17">
	<path class="st18" d="M690.6,238.6l-8.1,37.1l201.4-1.2l-8.6-37l-0.7-127.9c0,0-171.9,1.3-184.7,1.1"/>
</g>
<linearGradient id="SVGID_8_" gradientUnits="userSpaceOnUse" x1="894.745" y1="339" x2="894.745" y2="146" gradientTransform="matrix(1 0 0 -1 0 646)">
	<stop  offset="0" style="stop-color:#FFE354"/>
	<stop  offset="1" style="stop-color:#FFCB31"/>
</linearGradient>
<path class="st19" d="M984.5,396.2c0,49.2-40.2,89.1-89.7,89.1c-5.6,0-11-0.5-16.3-1.5L837.2,500l2.9-32.7l1,0.3
	c-21.9-16.3-36.1-42.2-36.1-71.5c0-49.2,40.2-89.2,89.8-89.2C944.3,307,984.5,346.9,984.5,396.2z"/>
<defs>
	<filter id="Adobe_OpacityMaskFilter_4_" filterUnits="userSpaceOnUse" x="772" y="278" width="185.4" height="221.8">
		<feColorMatrix  type="matrix" values="1 0 0 0 0  0 1 0 0 0  0 0 1 0 0  0 0 0 1 0"/>
	</filter>
</defs>
<mask maskUnits="userSpaceOnUse" x="772" y="278" width="185.4" height="221.8" id="mask4_1_">
	
		<linearGradient id="SVGID_9_" gradientUnits="userSpaceOnUse" x1="851.5444" y1="314.7138" x2="965.6974" y2="112.2988" gradientTransform="matrix(1 0 0 -1 0 646)">
		<stop  offset="0" style="stop-color:#FFE354"/>
		<stop  offset="0.5445" style="stop-color:#FFCB31"/>
	</linearGradient>
	<path class="st20" d="M984.5,396.2c0,49.2-40.2,89.1-89.7,89.1c-5.6,0-11-0.5-16.3-1.5L837.2,500l2.9-32.7l1,0.3
		c-21.9-16.3-36.1-42.2-36.1-71.5c0-49.2,40.2-89.2,89.8-89.2C944.3,307,984.5,346.9,984.5,396.2z"/>
</mask>
<g class="st21">
	
		<linearGradient id="SVGID_10_" gradientUnits="userSpaceOnUse" x1="826.3894" y1="361.1828" x2="863.1654" y2="154.6488" gradientTransform="matrix(1 0 0 -1 0 646)">
		<stop  offset="0" style="stop-color:#FFFFFF;stop-opacity:0"/>
		<stop  offset="1" style="stop-color:#FFD139"/>
	</linearGradient>
	<path class="st22" d="M957.4,499.8l-71.8-217.1L772,278v221.8H957.4z"/>
</g>
<defs>
	<filter id="Adobe_OpacityMaskFilter_5_" filterUnits="userSpaceOnUse" x="823.3" y="329.1" width="169.2" height="128.5">
		<feColorMatrix  type="matrix" values="1 0 0 0 0  0 1 0 0 0  0 0 1 0 0  0 0 0 1 0"/>
	</filter>
</defs>
<mask maskUnits="userSpaceOnUse" x="823.3" y="329.1" width="169.2" height="128.5" id="mask5_1_">
	<rect x="830" y="359" class="st23" width="143.5" height="75.7"/>
</mask>
<g class="st24">
	<rect x="828" y="329.1" class="st4" width="153.4" height="109.6"/>
	<rect x="824" y="343.1" width="153.4" height="109.6"/>
	<rect x="823.3" y="336.3" class="st4" width="169.2" height="121.2"/>
</g>
<circle class="st25" cx="420.5" cy="85.5" r="8.5"/>
<circle class="st26" cx="446.5" cy="85.5" r="8.5"/>
<circle class="st27" cx="472.5" cy="85.5" r="8.5"/>
<linearGradient id="SVGID_11_" gradientUnits="userSpaceOnUse" x1="311.725" y1="187.35" x2="311.725" y2="254.75" gradientTransform="matrix(1 0 0 -1 0 646)">
	<stop  offset="0" style="stop-color:#31B5EC"/>
	<stop  offset="1" style="stop-color:#B2EAFD"/>
</linearGradient>
<path class="st28" d="M387.5,458.6H219.1l16.8-67.4h168.5L387.5,458.6z"/>
<path class="st29" d="M117.9,441.8h332c2.8,0,5,2.2,5,5V639c0,2.8-2.2,5-5,5h-327c-2.8,0-5-2.2-5-5V441.8z"/>
<linearGradient id="SVGID_12_" gradientUnits="userSpaceOnUse" x1="103.4109" y1="186.7532" x2="302.2961" y2="21.0152" gradientTransform="matrix(1 0 0 -1 0 646)">
	<stop  offset="0" style="stop-color:#2FB7EC"/>
	<stop  offset="1" style="stop-color:#4A90E2"/>
</linearGradient>
<path class="st30" d="M117.9,441.8h168.5V644H122.9c-2.8,0-5-2.2-5-5V441.8z"/>
<linearGradient id="SVGID_13_" gradientUnits="userSpaceOnUse" x1="179.6353" y1="187.3122" x2="207.4326" y2="286.7632" gradientTransform="matrix(1 0 0 -1 0 646)">
	<stop  offset="0" style="stop-color:#98E1FC"/>
	<stop  offset="1" style="stop-color:#C3EFFD"/>
</linearGradient>
<path class="st31" d="M117.9,441.8h168.5l-16.9-67.4H101.1L117.9,441.8z"/>
<linearGradient id="SVGID_14_" gradientUnits="userSpaceOnUse" x1="134.126" y1="182.632" x2="69.4219" y2="134.104" gradientTransform="matrix(1 0 0 -1 0 646)">
	<stop  offset="0" style="stop-color:#CEF2FD"/>
	<stop  offset="1" style="stop-color:#8BDCFB"/>
</linearGradient>
<path class="st32" d="M117.9,441.8v67.4H67.4L117.9,441.8z"/>
<rect x="219.1" y="593.5" class="st33" width="67.4" height="25.3"/>
<rect x="286.5" y="593.5" class="st34" width="16.9" height="25.3"/>
<linearGradient id="SVGID_15_" gradientUnits="userSpaceOnUse" x1="614.2751" y1="131.9437" x2="700.8431" y2="107.3657" gradientTransform="matrix(1 0 0 -1 0 646)">
	<stop  offset="0" style="stop-color:#8EDDFC"/>
	<stop  offset="0.9736" style="stop-color:#CBF1FD"/>
</linearGradient>
<path class="st35" d="M354,337c0-2.8,2.2-5,5-5h327c2.8,0,5,2.2,5,5v307H359c-2.8,0-5-2.2-5-5V337z"/>
<linearGradient id="SVGID_16_" gradientUnits="userSpaceOnUse" x1="438.0321" y1="306.0907" x2="515.5471" y2="-26.8094" gradientTransform="matrix(1 0 0 -1 0 646)">
	<stop  offset="0" style="stop-color:#92DFFC"/>
	<stop  offset="1" style="stop-color:#C6F0FD"/>
</linearGradient>
<path class="st36" d="M354,337c0-2.8,2.2-5,5-5h231v312H359c-2.8,0-5-2.2-5-5V337z"/>
<path class="st34" d="M421,332h101v78l-16.7-7.8l-17,7.8l-16.8-7.8l-16.8,7.8l-16.8-7.8L421,410V332z"/>
<path class="st34" d="M636.3,382.8h8.4V644h-8.4V382.8z"/>
<path class="st34" d="M623,332h34v78l-17-7.8l-17,7.8V332z"/>
<linearGradient id="SVGID_17_" gradientUnits="userSpaceOnUse" x1="825.65" y1="2" x2="690.85" y2="136.8" gradientTransform="matrix(1 0 0 -1 0 646)">
	<stop  offset="0" style="stop-color:#CEF2FD"/>
	<stop  offset="1" style="stop-color:#8BDCFB"/>
</linearGradient>
<path class="st37" d="M690.8,509.2h134.8V644H690.8V509.2z"/>
<rect x="758.2" y="606.1" class="st4" width="33.7" height="16.8"/>
<rect x="758.2" y="627.2" class="st4" width="33.7" height="8.4"/>
<rect x="539" y="577" class="st4" width="51" height="21"/>
<rect x="539" y="603" class="st4" width="51" height="10"/>
<rect x="590" y="577" class="st38" width="22" height="21"/>
<rect x="590" y="603" class="st38" width="22" height="10"/>
<path class="st34" d="M716.1,509.2h67.4v42.1l-16.9-8.4l-13.9,8.4l-19.8-8.4l-16.8,8.4V509.2z"/>
<linearGradient id="SVGID_18_" gradientUnits="userSpaceOnUse" x1="837.4289" y1="64.822" x2="788.5961" y2="73.978" gradientTransform="matrix(1 0 0 -1 0 646)">
	<stop  offset="0" style="stop-color:#CEF2FD"/>
	<stop  offset="1" style="stop-color:#8BDCFB"/>
</linearGradient>
<path class="st39" d="M800.4,509.2h25.3V644h-25.3V509.2z"/>
<linearGradient id="SVGID_19_" gradientUnits="userSpaceOnUse" x1="82.7748" y1="6.3295" x2="-1.475" y2="84.6635" gradientTransform="matrix(1 0 0 -1 0 646)">
	<stop  offset="0" style="stop-color:#2FB7EC"/>
	<stop  offset="1" style="stop-color:#326BEE"/>
</linearGradient>
<path class="st40" d="M0,562.2c0-1.4,1.1-2.5,2.5-2.5h79.2c1.4,0,2.5,1.1,2.5,2.5v79.2c0,1.4-1.1,2.5-2.5,2.5H2.5
	c-1.4,0-2.5-1.1-2.5-2.5V562.2z"/>
<rect x="25.3" y="559.8" class="st33" width="33.7" height="25.3"/>
<path class="st4" d="M810.2,237.9c-1.8,4-3.9,7.7-6.3,11c-3.3,4.6-6,7.8-8.1,9.6c-3.2,2.9-6.7,4.4-10.5,4.5c-2.7,0-5.9-0.7-9.7-2.2
	c-3.8-1.5-7.2-2.2-10.4-2.2c-3.3,0-6.9,0.7-10.7,2.2c-3.8,1.5-6.9,2.3-9.2,2.4c-3.6,0.1-7.1-1.4-10.7-4.6c-2.3-1.9-5.1-5.2-8.5-9.9
	c-3.6-5-6.6-10.8-9-17.4c-2.5-7.1-3.8-14-3.8-20.7c0-7.7,1.7-14.2,5.1-19.8c2.7-4.4,6.2-7.9,10.7-10.5c4.5-2.6,9.3-3.9,14.5-4
	c2.8,0,6.6,0.9,11.2,2.5c4.6,1.7,7.6,2.5,8.9,2.5c1,0,4.3-1,9.8-3c5.3-1.8,9.7-2.6,13.4-2.3c9.9,0.8,17.3,4.6,22.2,11.4
	c-8.8,5.2-13.2,12.5-13.1,21.8c0.1,7.3,2.8,13.3,8.1,18.2c2.4,2.2,5.1,4,8.1,5.2C811.7,234.4,811,236.2,810.2,237.9L810.2,237.9z
	 M787.6,151.2c0,5.7-2.1,11-6.4,16c-5.2,5.9-11.4,9.3-18.2,8.7c-0.1-0.7-0.1-1.4-0.1-2.2c0-5.5,2.5-11.3,6.8-16.1
	c2.2-2.4,4.9-4.4,8.3-6.1c3.4-1.6,6.5-2.5,9.5-2.6C787.5,149.7,787.6,150.4,787.6,151.2L787.6,151.2z"/>
<g>
	<g transform="matrix(21.955 0 0 -21.955 -2043.1 10481)">
		<g>
			<g>
				<g transform="translate(105.72 468.11)">
					<path class="st4" d="M45,3.6c-0.3,0-0.4,0.1-0.5,0.3h0.3c0-0.1,0-0.2,0.2-0.2c0.1,0,0.2,0.1,0.2,0.1C45.2,4,45.1,4,45,4
						c-0.1,0-0.2,0-0.3,0.1c-0.1,0-0.1,0.1-0.1,0.2c0,0.2,0.2,0.3,0.4,0.3c0.3,0,0.4-0.1,0.4-0.3h-0.3c0,0.1,0,0.1-0.2,0.1
						c-0.1,0-0.2,0-0.2-0.1c0-0.1,0.2-0.1,0.4-0.1c0.2,0,0.3-0.1,0.3-0.3C45.4,3.7,45.2,3.6,45,3.6"/>
				</g>
			</g>
		</g>
	</g>
	<g transform="matrix(21.955 0 0 -21.955 33.537 118.8)">
		<path class="st4" d="M51.3,1.4l0.9,0.5l0.5-0.8h-1.2"/>
	</g>
	<g transform="matrix(21.955 0 0 -21.955 126.15 202.12)">
		<path class="st41" d="M48.9,3.5v1"/>
	</g>
	<g transform="matrix(21.955 0 0 -21.955 -2043.1 10481)">
		<g>
			<g>
				<g transform="translate(93.655 469.31)">
					<path class="st4" d="M51.8,2.9c0-0.2,0.1-0.3,0.3-0.3c0.2,0,0.3,0.1,0.3,0.3c0,0.2-0.1,0.3-0.3,0.3C52,3.2,51.8,3.1,51.8,2.9
						 M52.1,2.4c-0.3,0-0.5,0.2-0.5,0.5s0.2,0.5,0.5,0.5c0.1,0,0.2,0,0.3-0.1v0.1h0.3v-1h-0.3v0.1C52.3,2.4,52.2,2.4,52.1,2.4"/>
				</g>
			</g>
		</g>
	</g>
	<g transform="matrix(21.955 0 0 -21.955 -2043.1 10481)">
		<g>
			<g>
				<g transform="translate(96.33 469.31)">
					<path class="st4" d="M50.3,2.9c0-0.2,0.1-0.3,0.3-0.3c0.2,0,0.3,0.1,0.3,0.3c0,0.2-0.1,0.3-0.3,0.3C50.4,3.2,50.3,3.1,50.3,2.9
						 M50.6,2.4c-0.3,0-0.5,0.2-0.5,0.5s0.2,0.5,0.5,0.5c0.1,0,0.2,0,0.3-0.1v0.4h0.3V2.4h-0.3v0.1C50.8,2.4,50.7,2.4,50.6,2.4"/>
				</g>
			</g>
		</g>
	</g>
	<g transform="matrix(21.955 0 0 -21.955 85.247 73.119)">
		<path class="st4" d="M50,0.2l0.9,0.5l1-1.7h-0.9v-0.2h-0.3V-1"/>
	</g>
	<g transform="matrix(21.955 0 0 -21.955 -2043.1 10481)">
		<g>
			<g>
				<g transform="translate(106.39 470.7)">
					<path class="st4" d="M44.6,2.1c-0.1,0-0.1,0.1-0.1,0.1c0,0.1,0.1,0.1,0.1,0.1c0.1,0,0.1-0.1,0.1-0.1
						C44.7,2.2,44.7,2.1,44.6,2.1 M44.6,2.3c-0.1,0-0.1-0.1-0.1-0.1c0-0.1,0-0.1,0.1-0.1c0.1,0,0.1,0.1,0.1,0.1
						C44.7,2.3,44.7,2.3,44.6,2.3"/>
				</g>
				<g transform="translate(106.45 470.83)">
					<path class="st4" d="M44.6,2L44.6,2L44.6,2L44.6,2L44.6,2l-0.1,0.1h0.1C44.6,2.2,44.6,2.2,44.6,2C44.6,2.1,44.6,2.1,44.6,2
						L44.6,2 M44.6,2.2L44.6,2.2L44.6,2.2L44.6,2.2C44.6,2.1,44.6,2.1,44.6,2.2C44.6,2.1,44.6,2.2,44.6,2.2"/>
				</g>
				<g transform="translate(102.55 469.31)">
					<path class="st4" d="M46.8,2.9c0-0.2,0.1-0.3,0.3-0.3c0.2,0,0.3,0.1,0.3,0.3c0,0.2-0.1,0.3-0.3,0.3C46.9,3.2,46.8,3.1,46.8,2.9
						 M47.1,2.4c-0.3,0-0.5,0.2-0.5,0.5s0.2,0.5,0.5,0.5c0.1,0,0.2,0,0.3-0.1v0.1h0.2v-1h-0.2v0.1C47.3,2.4,47.2,2.4,47.1,2.4"/>
				</g>
				<g transform="translate(99.877 469.31)">
					<path class="st4" d="M48.3,2.9c0-0.2,0.1-0.3,0.3-0.3c0.2,0,0.3,0.1,0.3,0.3c0,0.2-0.1,0.3-0.3,0.3C48.4,3.2,48.3,3.1,48.3,2.9
						 M48.9,3.8h0.3V2.4h-0.3v0.1c-0.1-0.1-0.2-0.1-0.3-0.1c-0.3,0-0.5,0.2-0.5,0.5s0.2,0.5,0.5,0.5c0.1,0,0.2,0,0.3-0.1V3.8z"/>
				</g>
			</g>
		</g>
	</g>
	<g transform="matrix(21.955 0 0 -21.955 197.59 133.74)">
		<path class="st4" d="M47.1,1.8l-1.2,2.1l0.9,0.5l1.5-2.6"/>
	</g>
</g>
<path class="st4" d="M852.1,425.5c-3.7-0.1-6.7-1.2-9.1-3c-0.4-0.4-1.5-1.4-1.9-1.9c-1-1.2-1.6-2.4-2-3.7c-1.3-4-0.6-9.2,2-15
	c2.2-4.9,5.7-9.8,11.7-16.6c0.9-1,3.5-3.9,3.5-3.9c0,0-0.1,0.2-0.3,0.6c-1.6,2.6-2.9,5.7-3.6,8.4c-1.2,4.3-1,8,0.4,10.8
	c1,2,2.7,3.7,4.6,4.6c3.4,1.6,8.3,1.8,14.3,0.4c0.4-0.1,20.9-5.5,45.5-12.1c24.6-6.6,44.8-11.9,44.8-11.9c0,0-57.2,24.5-86.9,37.2
	c-4.7,2-6,2.5-8.2,3.3C861.3,424.7,856.2,425.7,852.1,425.5z"/>
</svg>
