<svg width="24" height="24" viewBox="0 0 24 24" fill="none" xmlns="http://www.w3.org/2000/svg">
<circle cx="12" cy="12" r="12" fill="#EFF4F6"/>
<path d="M14.1208 14.942H15.293L15.5955 5.8667H13.8182L14.1208 14.942ZM13.667 17.6268C13.667 18.1751 14.1397 18.6667 14.7069 18.6667C15.2741 18.6667 15.7468 18.1751 15.7468 17.6268C15.7468 17.0596 15.2741 16.5869 14.7069 16.5869C14.1397 16.5869 13.667 17.0596 13.667 17.6268Z" fill="#0E161C"/>
<path d="M8.87076 14.942H10.043L10.3455 5.8667H8.56825L8.87076 14.942ZM8.41699 17.6268C8.41699 18.1751 8.88967 18.6667 9.45687 18.6667C10.0241 18.6667 10.4968 18.1751 10.4968 17.6268C10.4968 17.0596 10.0241 16.5869 9.45687 16.5869C8.88967 16.5869 8.41699 17.0596 8.41699 17.6268Z" fill="#0E161C"/>
</svg>
