<svg xmlns="http://www.w3.org/2000/svg" width="64" height="64" fill="none" viewBox="0 0 64 64">
    <mask id="prefix__a" width="64" height="64" x="0" y="0" maskUnits="userSpaceOnUse">
        <path fill="#fff" d="M32 64c17.673 0 32-14.327 32-32C64 14.327 49.673 0 32 0 14.327 0 0 14.327 0 32c0 17.673 14.327 32 32 32z"/>
    </mask>
    <g mask="url(#prefix__a)">
        <path fill="#E6F7FF" d="M32 64c17.673 0 32-14.327 32-32C64 14.327 49.673 0 32 0 14.327 0 0 14.327 0 32c0 17.673 14.327 32 32 32z"/>
        <path fill="url(#prefix__paint0_linear)" d="M30.238 65C49.437 65 65 49.486 65 30.345 65 17.725 58.234 6.68 48.123.619 47.767.41 47.408.202 47.047 0L14 60.996c5.01 2.639 10.582 4.013 16.236 4.004h.002z"/>
    </g>
    <path fill="#006BA0" fill-rule="evenodd" d="M32 34c5.523 0 10-4.477 10-10s-4.477-10-10-10-10 4.477-10 10 4.477 10 10 10zm0-4c3.314 0 6-2.686 6-6s-2.686-6-6-6-6 2.686-6 6 2.686 6 6 6z" clip-rule="evenodd"/>
    <rect width="28" height="24" x="18" y="25" fill="#2FB7EC" rx="2"/>
    <path fill="url(#prefix__paint1_linear)" d="M33 25h11c1.105 0 2 .895 2 2v20c0 1.105-.895 2-2 2H20l13-24z"/>
    <mask id="prefix__b" width="12" height="17" x="26" y="28" fill="#000" maskUnits="userSpaceOnUse">
        <path fill="#fff" d="M26 28H38V45H26z"/>
        <path fill-rule="evenodd" d="M33.824 37.56C35.116 36.898 36 35.553 36 34c0-2.21-1.79-4-4-4s-4 1.79-4 4c0 1.552.884 2.898 2.176 3.56l-1.902 4.754c-.131.329.11.686.464.686h6.523c.354 0 .596-.357.465-.686l-1.902-4.753z" clip-rule="evenodd"/>
    </mask>
    <path fill="#1A4379" fill-rule="evenodd" d="M33.824 37.56C35.116 36.898 36 35.553 36 34c0-2.21-1.79-4-4-4s-4 1.79-4 4c0 1.552.884 2.898 2.176 3.56l-1.902 4.754c-.131.329.11.686.464.686h6.523c.354 0 .596-.357.465-.686l-1.902-4.753z" clip-rule="evenodd"/>
    <path fill="#E6F7FF" d="M33.824 37.56l-.685-1.334-1.215.624.508 1.268 1.392-.557zm-3.648 0l1.392.558.508-1.268-1.215-.624-.685 1.335zm-1.902 4.754l1.393.557-1.393-.557zm7.452 0l-1.393.557 1.393-.557zM34.5 34c0 .968-.55 1.81-1.36 2.226l1.37 2.67c1.772-.91 2.99-2.76 2.99-4.896h-3zM32 31.5c1.38 0 2.5 1.12 2.5 2.5h3c0-3.038-2.462-5.5-5.5-5.5v3zM29.5 34c0-1.38 1.12-2.5 2.5-2.5v-3c-3.038 0-5.5 2.462-5.5 5.5h3zm1.36 2.226c-.81-.416-1.36-1.258-1.36-2.226h-3c0 2.136 1.218 3.985 2.99 4.895l1.37-2.669zm-1.193 6.645l1.901-4.753-2.785-1.114-1.901 4.753 2.785 1.114zm-.929-1.371c.708 0 1.192.715.929 1.371l-2.785-1.114c-.526 1.314.442 2.743 1.856 2.743v-3zm6.523 0h-6.523v3h6.523v-3zm-.928 1.371c-.263-.657.221-1.371.928-1.371v3c1.415 0 2.383-1.43 1.857-2.743l-2.785 1.114zm-1.901-4.753l1.901 4.753 2.785-1.114-1.901-4.753-2.785 1.114z" mask="url(#prefix__b)"/>
    <path fill="#FFE380" d="M31 34c0-1.105.895-2 2-2h12v4H33c-1.105 0-2-.895-2-2z"/>
    <path fill="#FFC72C" fill-rule="evenodd" d="M51 41c3.866 0 7-3.134 7-7s-3.134-7-7-7-7 3.134-7 7 3.134 7 7 7zm0-3c2.21 0 4-1.79 4-4s-1.79-4-4-4-4 1.79-4 4 1.79 4 4 4z" clip-rule="evenodd"/>
    <path fill="#FFC72C" fill-opacity=".4" fill-rule="evenodd" d="M40.29 36c-.189-.634-.29-1.305-.29-2 0-.695.101-1.366.29-2H45v4h-4.71z" clip-rule="evenodd"/>
    <defs>
        <linearGradient id="prefix__paint0_linear" x1="47.86" x2="21.09" y1="4.377" y2="58.087" gradientUnits="userSpaceOnUse">
            <stop stop-color="#E6F7FF"/>
            <stop offset="1" stop-color="#C6EDFF"/>
        </linearGradient>
        <linearGradient id="prefix__paint1_linear" x1="33" x2="20" y1="25" y2="49" gradientUnits="userSpaceOnUse">
            <stop stop-color="#2FB7EC"/>
            <stop offset="1" stop-color="#79D6FA" stop-opacity=".12"/>
        </linearGradient>
    </defs>
</svg>
