<svg width="196" height="160" viewBox="0 0 196 160" fill="none" xmlns="http://www.w3.org/2000/svg">
<path opacity="0.7" d="M139.523 39.7196C131.707 39.7196 125.37 46.0488 125.37 53.8562H137.262C138.511 53.8562 139.523 52.8439 139.523 51.595" fill="#CCCCCC" fill-opacity="0.7"/>
<path opacity="0.7" d="M139.523 67.9921C147.34 67.9921 153.677 61.6636 153.677 53.8562H141.784C140.535 53.8562 139.523 54.8679 139.523 56.1167V67.9921Z" fill="#838383" fill-opacity="0.5"/>
<path opacity="0.7" d="M139.523 67.9921C131.707 67.9921 125.37 61.6636 125.37 53.8562H137.262C138.511 53.8562 139.523 54.8679 139.523 56.1167V67.9921Z" fill="#E9E9E9"/>
<path opacity="0.7" d="M139.523 39.7196C147.34 39.7196 153.677 46.0488 153.677 53.8562H141.784C140.535 53.8562 139.523 52.8439 139.523 51.595V39.7196Z" fill="#9B9B9B" fill-opacity="0.9"/>
<path d="M14.4173 36.8141H184.329C185.893 36.8141 187.161 38.0821 187.161 39.6459V133.097H11.5854V39.6459C11.5854 38.0821 12.8534 36.8141 14.4173 36.8141Z" fill="#ADC0FD"/>
<path d="M22.9126 124.602H175.833V53.8054H22.9126V124.602Z" fill="white"/>
<path d="M22.9126 53.8053H175.833V48.1416C175.833 46.5777 174.565 45.3097 173.001 45.3097H25.7445C24.1806 45.3097 22.9126 46.5777 22.9126 48.1416V53.8053Z" fill="#E5ECFF"/>
<path d="M22.9126 53.8053H136.187L139.019 45.3097H25.7445C24.1806 45.3097 22.9126 46.5777 22.9126 48.1416V53.8053Z" fill="#D0DBFF"/>
<path fill-rule="evenodd" clip-rule="evenodd" d="M28.5765 49.4117C28.5765 50.1678 27.9436 50.7781 27.1606 50.7781C26.3775 50.7781 25.7446 50.1678 25.7446 49.4117C25.7446 48.6542 26.3775 48.0439 27.1606 48.0439C27.9436 48.0439 28.5765 48.6542 28.5765 49.4117ZM32.8243 49.4117C32.8243 50.1678 32.1914 50.7781 31.4083 50.7781C30.6253 50.7781 29.9924 50.1678 29.9924 49.4117C29.9924 48.6542 30.6253 48.0439 31.4083 48.0439C32.1914 48.0439 32.8243 48.6542 32.8243 49.4117ZM35.6561 50.7781C36.4391 50.7781 37.0721 50.1678 37.0721 49.4117C37.0721 48.6542 36.4391 48.0439 35.6561 48.0439C34.8731 48.0439 34.2402 48.6542 34.2402 49.4117C34.2402 50.1678 34.8731 50.7781 35.6561 50.7781Z" fill="#FEFEFE"/>
<path d="M76.7183 154.336H122.028V140.177H76.7183V154.336Z" fill="#376EEE"/>
<path d="M11.5854 133.097H187.161V137.345C187.161 138.909 185.893 140.177 184.329 140.177H14.4173C12.8534 140.177 11.5854 138.909 11.5854 137.345V133.097Z" fill="#7996F9"/>
<path d="M54.063 160H150.346V157.168C150.346 155.604 149.078 154.336 147.514 154.336H54.063V160Z" fill="#7996F9"/>
<path d="M76.7183 154.336L122.028 140.177H76.7183V154.336Z" fill="url(#paint0_linear_888_78165)"/>
<path d="M46.9839 70.7965H89.4618V73.6284H46.9839V70.7965Z" fill="#D0DBFF"/>
<path d="M38.4874 77.876C41.6152 77.876 44.1512 75.3401 44.1512 72.2123C44.1512 69.0845 41.6152 66.5486 38.4874 66.5486C35.3597 66.5486 32.8237 69.0845 32.8237 72.2123C32.8237 75.3401 35.3597 77.876 38.4874 77.876Z" fill="#67D3A6"/>
<path d="M37.7858 73.3169L40.9447 70.0037C41.036 69.9067 41.1628 69.8514 41.2959 69.8514C41.4289 69.8514 41.5564 69.9067 41.647 70.0037C41.841 70.2104 41.841 70.5332 41.647 70.7399L38.1369 74.4199C38.0463 74.5169 37.9189 74.5721 37.7858 74.5721C37.6527 74.5721 37.5259 74.5169 37.4346 74.4199L35.3305 72.2125C35.1366 72.0058 35.1366 71.683 35.3305 71.4762C35.4219 71.3792 35.5486 71.324 35.6817 71.324C35.8148 71.324 35.9422 71.3792 36.0328 71.4762L37.7886 73.3169H37.7858Z" fill="white"/>
<path d="M46.9839 87.7876H82.3821V90.6195H46.9839V87.7876Z" fill="#D0DBFF"/>
<path d="M38.4874 94.8674C41.6152 94.8674 44.1512 92.3314 44.1512 89.2036C44.1512 86.0758 41.6152 83.5399 38.4874 83.5399C35.3597 83.5399 32.8237 86.0758 32.8237 89.2036C32.8237 92.3314 35.3597 94.8674 38.4874 94.8674Z" fill="#67D3A6"/>
<path d="M37.7858 90.308L40.9447 86.9947C41.036 86.8978 41.1628 86.8425 41.2959 86.8425C41.4289 86.8425 41.5564 86.8978 41.647 86.9947C41.841 87.2015 41.841 87.5243 41.647 87.731L38.1369 91.411C38.0463 91.508 37.9189 91.5632 37.7858 91.5632C37.6527 91.5632 37.5259 91.508 37.4346 91.411L35.3305 89.2036C35.1366 88.9969 35.1366 88.674 35.3305 88.4673C35.4219 88.3703 35.5486 88.3151 35.6817 88.3151C35.8148 88.3151 35.9422 88.3703 36.0328 88.4673L37.7886 90.308H37.7858Z" fill="white"/>
<path d="M46.9839 104.779H75.3025V107.611H46.9839V104.779Z" fill="#D0DBFF"/>
<path d="M38.4874 111.858C41.6152 111.858 44.1512 109.323 44.1512 106.195C44.1512 103.067 41.6152 100.531 38.4874 100.531C35.3597 100.531 32.8237 103.067 32.8237 106.195C32.8237 109.323 35.3597 111.858 38.4874 111.858Z" fill="#67D3A6"/>
<path d="M37.7858 107.299L40.9447 103.986C41.036 103.889 41.1628 103.834 41.2959 103.834C41.4289 103.834 41.5564 103.889 41.647 103.986C41.841 104.193 41.841 104.515 41.647 104.722L38.1369 108.402C38.0463 108.499 37.9189 108.554 37.7858 108.554C37.6527 108.554 37.5259 108.499 37.4346 108.402L35.3305 106.195C35.1366 105.988 35.1366 105.665 35.3305 105.458C35.4219 105.361 35.5486 105.306 35.6817 105.306C35.8148 105.306 35.9422 105.361 36.0328 105.458L37.7886 107.299H37.7858Z" fill="white"/>
<path d="M168.753 7.07963C168.753 6.29763 168.119 5.6637 167.337 5.6637C166.555 5.6637 165.921 6.29763 165.921 7.07963V25.4867C165.921 26.2687 166.555 26.9026 167.337 26.9026C168.119 26.9026 168.753 26.2687 168.753 25.4867V7.07963Z" fill="#7996F9"/>
<path d="M165.921 1.41593C165.921 0.633911 166.556 0 167.337 0C168.12 0 168.753 0.633911 168.753 1.41593V2.12389C168.753 2.90591 168.12 3.53982 167.337 3.53982C166.556 3.53982 165.921 2.90591 165.921 2.12389V1.41593Z" fill="#7996F9"/>
<path d="M24.3286 160H113.532V154.336H28.5764C26.2302 154.336 24.3286 156.238 24.3286 158.584V160Z" fill="#305BEF"/>
<path d="M74.5924 160H36.3638L36.3645 151.504H74.5939L74.5924 160Z" fill="#FFC72C"/>
<path d="M77.4254 160H74.5942L74.595 151.504H77.4268C78.2084 151.504 78.842 152.138 78.842 152.92L78.8413 158.584C78.8413 159.366 78.2077 159.999 77.4254 160Z" fill="#022786"/>
<path d="M74.5939 159.999H36.3638V155.752H74.5939V159.999Z" fill="url(#paint1_linear_888_78165)"/>
<path d="M36.3642 160L27.8687 155.751L36.3649 151.504L36.3642 160Z" fill="white"/>
<path d="M32.1157 157.876L27.8687 155.751L32.1172 153.628L32.1157 157.876Z" fill="#022786"/>
<path fill-rule="evenodd" clip-rule="evenodd" d="M27.1606 148.673C27.1606 143.981 23.3574 140.177 18.665 140.177C13.9733 140.177 10.1694 143.981 10.1694 148.673C10.1694 153.364 13.9733 157.168 18.665 157.168C23.3574 157.168 27.1606 153.364 27.1606 148.673ZM13.0013 148.673C13.0013 145.545 15.5372 143.009 18.665 143.009C21.7928 143.009 24.3287 145.545 24.3287 148.673C24.3287 151.8 21.7928 154.336 18.665 154.336C15.5372 154.336 13.0013 151.8 13.0013 148.673Z" fill="#ADC0FD"/>
<path d="M1.76018 160H18.5234L19.9931 137.429C20.0165 137.039 19.8777 136.658 19.6101 136.374C19.3418 136.09 18.9687 135.929 18.5786 135.929H1.76018C1.37009 135.929 0.99698 136.09 0.729369 136.374C0.461759 136.658 0.323003 137.039 0.345658 137.429L1.76018 160Z" fill="#ADC0FD"/>
<path d="M5.92139 135.929H6.62935V148.673H5.92139V135.929Z" fill="#7996F9"/>
<path d="M5.92126 145.841L8.04515 148.673H3.79736L5.92126 145.841Z" fill="#7996F9"/>
<path d="M3.09037 135.929C1.20294 132.375 2.38241 129.837 6.63019 128.309C13.0019 126.018 15.1215 128.058 14.0624 122.916C13.0019 117.773 22.6458 128.613 16.4072 130.352C12.2486 131.51 12.2486 133.368 16.4072 135.929H3.09037Z" fill="#FFC72C"/>
<path d="M170.877 21.9469H164.505V26.1947H170.877V21.9469Z" fill="#305BEF"/>
<path d="M139.019 45.3099C140.808 34.597 158.614 26.791 164.506 24.6565C165.922 24.6565 169.483 24.6565 170.877 24.6565C177.115 27.22 195.879 36.2933 195.655 45.3099H139.019Z" fill="#7996F9"/>
<path d="M181.639 41.062C182.029 41.062 182.347 41.3792 182.347 41.77C182.347 42.1332 182.073 42.4326 181.721 42.473L181.639 42.4779H173.001C172.611 42.4779 172.293 42.1608 172.293 41.77C172.293 41.4068 172.567 41.1073 172.919 41.067L173.001 41.062H181.639Z" fill="#7996F9"/>
<path d="M186.453 41.062C186.843 41.062 187.16 41.3792 187.16 41.77C187.16 42.1332 186.887 42.4326 186.535 42.473L186.453 42.4779H185.037C184.646 42.4779 184.329 42.1608 184.329 41.77C184.329 41.4068 184.602 41.1073 184.954 41.067L185.037 41.062H186.453Z" fill="#7996F9"/>
<path d="M155.027 107.805C161.685 107.417 166.989 101.471 166.989 94.1505C166.989 86.5931 161.327 80.4689 154.337 80.4689C153.067 80.4689 151.825 80.6771 150.664 81.0663C148.565 71.5357 140.61 64.4248 131.136 64.4248C121.716 64.4248 113.843 71.4159 111.634 80.8268C110.72 80.6099 109.783 80.4998 108.844 80.4988C101.855 80.4988 96.1929 86.6231 96.1929 94.1817C96.1929 101.381 101.33 107.237 107.849 107.805H155.029H155.027Z" fill="#ADC0FD"/>
<path fill-rule="evenodd" clip-rule="evenodd" d="M130.514 78.97C130.638 78.8236 130.82 78.7391 131.012 78.7391C131.203 78.7391 131.385 78.8236 131.509 78.97L135.869 84.1167C136.034 84.3102 136.071 84.5818 135.964 84.8122C135.857 85.0427 135.626 85.1899 135.372 85.1893H132.912V90.1355C132.912 90.4123 132.802 90.6777 132.606 90.8732C132.41 91.0688 132.145 91.1785 131.868 91.1782H130.156C129.581 91.1782 129.114 90.7114 129.114 90.1355V85.1893H126.651C126.397 85.1903 126.165 85.0429 126.058 84.8119C125.951 84.581 125.988 84.3089 126.154 84.1154L130.514 78.97ZM139.649 88.2076C139.372 88.2072 139.107 88.3167 138.911 88.512C138.715 88.7073 138.605 88.9724 138.605 89.2489V94.5075C138.605 94.6804 138.537 94.8462 138.415 94.9686C138.292 95.0909 138.127 95.1597 137.954 95.1597H124.071C123.711 95.1597 123.42 94.8683 123.42 94.5088V89.2502C123.419 88.9737 123.309 88.7086 123.113 88.5133C122.918 88.318 122.652 88.2085 122.376 88.2089H121.497C120.922 88.2089 120.455 88.6749 120.455 89.2502V96.6592C120.455 97.2358 120.922 97.7018 121.497 97.7018H140.527C140.804 97.7014 141.069 97.5913 141.264 97.3955C141.459 97.1997 141.569 96.9344 141.569 96.6579V89.2502C141.569 88.6749 141.103 88.2083 140.527 88.2076H139.649Z" fill="white"/>
<defs>
<linearGradient id="paint0_linear_888_78165" x1="99.3724" y1="133.097" x2="91.3101" y2="158.896" gradientUnits="userSpaceOnUse">
<stop stop-color="#345FF2"/>
<stop offset="1" stop-color="#1D4BEA" stop-opacity="0.1"/>
</linearGradient>
<linearGradient id="paint1_linear_888_78165" x1="69.5666" y1="162.123" x2="70.1924" y2="152.34" gradientUnits="userSpaceOnUse">
<stop stop-color="#FFE380"/>
<stop offset="1" stop-color="#FFD560"/>
</linearGradient>
</defs>
</svg>
