<svg xmlns="http://www.w3.org/2000/svg" xmlns:xlink="http://www.w3.org/1999/xlink" width="24" height="24" viewBox="0 0 24 24">
    <defs>
        <path id="a" d="M12 24C5.373 24 0 18.627 0 12S5.373 0 12 0s12 5.373 12 12-5.373 12-12 12z"/>
    </defs>
    <g fill="none" fill-rule="evenodd">
        <g fill-rule="nonzero">
            <use fill="#FFF" xlink:href="#a"/>
            <use fill="#FFE380" fill-opacity=".5" xlink:href="#a"/>
        </g>
        <path fill="#EF8D2E" d="M6.343 17.657A8 8 0 1 1 17.657 6.343 8 8 0 0 1 6.343 17.657zm1.414-1.414a6 6 0 1 0 8.486-8.486 6 6 0 0 0-8.486 8.486z"/>
        <path fill="#EF8D2E" d="M7.757 6.343l9.9 9.9-1.414 1.414-9.9-9.9z"/>
    </g>
</svg>
