<?xml version="1.0" encoding="UTF-8"?>
<svg width="28px" height="19px" viewBox="0 0 28 19" version="1.1" xmlns="http://www.w3.org/2000/svg" xmlns:xlink="http://www.w3.org/1999/xlink">
    <!-- Generator: Sketch 52.5 (67469) - http://www.bohemiancoding.com/sketch -->
    <title>W</title>
    <desc>Created with Sketch.</desc>
    <g id="V3" stroke="none" stroke-width="1" fill="none" fill-rule="evenodd">
        <g id="Merchant_Review-message" transform="translate(-362.000000, -303.000000)" fill="#FFFFFF">
            <g id="Group-16" transform="translate(352.000000, 288.000000)">
                <g id="Group-15">
                    <g id="Group-4">
                        <path d="M35.0408476,20.5783472 C34.3090413,20.5783472 33.6284268,21.1769733 33.5273184,21.9079737 L32.7840349,27.3535223 C32.7018729,27.9468166 32.4189515,28.4614218 31.9354529,28.8973377 C31.4517721,29.3336214 30.9070619,29.5516713 30.3025975,29.5516713 C29.7147112,29.5516713 29.2383175,29.3380339 28.8743272,28.9102075 C28.5092439,28.4829326 28.3693317,27.9644665 28.4533154,27.3535223 L28.9016538,24.0489445 C28.9154993,23.3892791 28.4227096,22.8732031 27.7435526,22.8732031 L25.9647731,22.8732031 C25.2856161,22.8732031 24.6499994,23.3892791 24.4825784,24.0489445 L24.0194836,27.3535223 C23.9354999,27.9644665 23.652032,28.4829326 23.1694442,28.9102075 C22.6866743,29.3380339 22.1516195,29.5516713 21.564462,29.5516713 C20.9762114,29.5516713 20.4963563,29.3336214 20.1245324,28.8973377 C19.7523441,28.4614218 19.6075131,27.9468166 19.6889464,27.3535223 L20.6852742,20.1280907 C20.7905727,19.4246683 20.3759371,18.6894393 19.7426887,18.3910455 C19.7426887,18.3910455 12.2406263,15.2502809 11.7518446,15.0484101 C11.2568688,14.8450684 10.6961269,15.3012083 10.5039299,16.0623606 L10.0455717,17.8801174 C9.8535568,18.6412697 10.286228,19.5068507 11.0067393,19.8032221 L16.0346514,21.8936332 L15.2815303,27.3535223 C15.028486,29.1847003 15.455874,30.7513136 16.5649696,32.0504205 C17.6733364,33.3506304 19.1349451,34 20.9507065,34 C22.6269201,34 24.1572097,33.4333644 25.5410287,32.29899 C26.6461163,33.4333644 28.0292066,34 29.6888421,34 C31.504057,34 33.1451103,33.3506304 34.6121843,32.0504205 C36.0792584,30.7513136 36.9391354,29.1847003 37.1918153,27.3535223 C37.1918153,27.3535223 37.9799144,21.5917462 37.9941243,21.4908108 C38.0628051,20.9887076 37.5213741,20.5783472 36.7897499,20.5783472 L35.0408476,20.5783472 Z" id="W"></path>
                    </g>
                </g>
            </g>
        </g>
    </g>
</svg>