<svg width="240" height="152" viewBox="0 0 240 152" fill="none" xmlns="http://www.w3.org/2000/svg">
<rect width="240" height="152" fill="#D8D8D8" fill-opacity="0.01"/>
<mask id="mask0" mask-type="alpha" maskUnits="userSpaceOnUse" x="0" y="0" width="240" height="152">
<rect width="240" height="152" fill="white"/>
</mask>
<g mask="url(#mask0)">
<path d="M117.708 308.69C182.716 308.69 235.416 256.002 235.416 191.009C235.416 126.016 182.716 73.3286 117.708 73.3286C52.6996 73.3286 0 126.016 0 191.009C0 256.002 52.6996 308.69 117.708 308.69Z" fill="url(#paint0_linear)"/>
<mask id="mask1" mask-type="alpha" maskUnits="userSpaceOnUse" x="0" y="73" width="236" height="236">
<path d="M117.708 308.69C182.716 308.69 235.416 256.002 235.416 191.009C235.416 126.016 182.716 73.3286 117.708 73.3286C52.6996 73.3286 0 126.016 0 191.009C0 256.002 52.6996 308.69 117.708 308.69Z" fill="white"/>
</mask>
<g mask="url(#mask1)">
<path fill-rule="evenodd" clip-rule="evenodd" d="M121.038 173.02C123.825 174.417 129.785 173.36 132.923 173.36C134.513 173.679 142.469 173.909 143.45 174.893C148.462 179.918 151.213 196.809 157.373 202.985C160.345 205.965 167.911 201.805 170.446 204.347C171.665 205.569 167.634 219.671 164.843 219.841C163.886 219.841 153.671 229.442 155.335 232.78C155.953 234.02 159.367 237.677 159.071 238.569C157.953 241.93 154.477 244.376 152.788 247.763C151.485 250.377 154.653 257.13 152.619 259.17C146.586 265.22 136.646 280.531 124.943 274.664C122.636 273.507 121.305 263.501 120.868 260.873C120.089 256.183 116.325 252.566 115.435 248.104C114.639 244.112 116.685 241.169 118.152 238.229C118.614 237.301 117.542 234.111 117.133 233.291C115.328 229.671 117.118 222.721 114.246 219.841C113.075 218.666 112.358 216.255 110.681 215.414C107.61 213.874 102.859 216.893 100.154 217.798C96.0001 219.186 85.7321 212.881 84.1937 209.796C82.979 207.359 80.8999 204.143 79.949 201.283C77.6148 194.261 88.3761 175.806 92.853 171.317C95.8645 168.297 105.21 168.056 109.322 167.231C115.382 166.016 117.048 171.019 121.038 173.02ZM168.418 241.12C173.011 244.684 169.49 252.057 167.427 256.325C167.052 257.101 165.303 264.036 164.785 263.5C160.012 258.563 161.257 243.589 168.418 241.12ZM118.166 80.3971C120.643 80.043 122.763 79.8944 125.198 79.8944H130.054C140.836 79.8944 129.516 90.8508 122.352 87.2664C121.208 86.694 117.854 88.151 117.161 86.7638C116.652 85.7453 117.88 81.5417 118.166 80.3971ZM184.152 91.1068C185.036 90.7778 192.788 88.1749 194.314 89.7155C194.385 89.7878 194.385 91.3823 194.314 91.4547C193.184 92.5958 190.208 92.2958 188.974 93.5417C186.991 95.5445 177.034 103.746 174.507 101.194C173.671 100.35 178.592 95.5036 179.502 94.5852C180.795 93.2795 182.456 92.2484 184.152 91.1068ZM75.7417 112.886H81.0859C90.9032 112.886 84.8212 118.007 82.2549 120.662C81.2318 121.72 67.7607 120.107 71.5665 116.169C72.6561 115.042 73.7908 114.311 75.7417 112.886ZM98.8517 125.658C100.127 128.599 102.115 132.646 104.152 134.625C106.684 137.084 96.7969 140.433 96.6291 140.27C95.7318 139.399 97.9969 135.619 97.9969 134.458C97.9969 131.707 92.6067 123.636 98.8517 125.658ZM92.4757 135.882C93.6345 142.325 90.2878 142.631 89.6676 139.872C89.1848 137.725 91.3907 132.262 92.4757 135.882ZM98.4446 145.244C100.163 145.159 108.359 142.948 108.482 142.701C109.146 141.379 108.222 138.553 109.163 137.615C109.587 137.192 112.884 137.88 113.757 137.445C118.722 134.971 133.922 135.302 135.533 127.273C136.3 123.455 130.745 124.655 129.919 122.186C129.014 119.48 134.995 116.733 132.811 114.557C130.965 112.717 126.31 117.583 126.006 118.795C125.393 121.238 126.787 122.556 127.707 124.39C128.386 125.742 125.814 126.638 125.496 127.273C125.022 128.216 124.86 131.297 124.305 131.85C123.497 132.655 120.674 132.189 119.201 132.189C114.152 132.189 118.169 130.653 116.479 128.968C116.068 128.558 112.677 131.792 111.205 130.324C110.676 129.797 111.211 128.134 110.864 127.442C107.42 120.577 113.063 120.904 116.309 116.591C117.832 114.567 119.562 106.917 121.583 105.91C130.933 101.251 136.721 104.553 145.571 106.758C148.38 107.457 156.036 109.135 157.31 111.674C158.063 113.174 157.003 117.307 156.63 118.795C155.52 123.218 156.591 128.029 154.588 132.02C152.218 136.745 146.003 139.897 142.679 143.21C140.294 145.587 152.097 146.989 149.995 151.178C149.166 152.831 143.313 152.098 141.488 152.704C139.214 153.46 141.125 158.396 138.936 159.486C134.311 161.791 130.352 157.878 126.006 156.434C123.462 155.589 121.792 158.482 118.18 157.282C114.816 156.164 112.266 152.126 107.972 153.552C100.317 156.095 105.022 160.561 101.847 163.725C97.293 168.263 87.1637 167.324 89.2574 158.977C91.3985 150.443 94.6056 157.886 98.1043 154.4C99.318 153.19 97.9396 147.257 98.4446 145.244ZM155.933 136.995C159.477 129.901 162.951 120.421 160.536 110.753C166.665 104.618 174.17 106.805 182.749 103.942C187.978 102.198 190.246 98.9879 194.356 96.931C196.944 95.6358 202.422 97.532 205.762 97.532C217.947 97.532 229.004 90.5781 239.982 86.915C242.419 86.1019 252.649 88.2947 253.39 90.5208C254.385 93.5071 248.118 94.5894 248.988 96.3301C249.48 97.3162 259.225 96.3301 260.394 96.3301C272.03 96.3301 283.066 98.2649 294.414 100.537C307.014 103.059 319.187 106.64 331.836 108.75C334.78 109.241 345.995 110.201 348.245 107.949C349.329 106.864 353.238 111.365 351.848 112.756C350.529 114.076 329.701 123.34 326.032 125.176C325.68 125.352 325.632 125.638 325.632 125.977C325.632 127.697 323.991 129.583 323.031 131.186C322.386 132.261 316.112 142.289 315.026 141.202C311.376 137.548 311.991 131.411 316.027 128.381C317.752 127.086 322.789 126.254 321.83 123.373C321.444 122.213 311.253 125.97 309.623 126.378C305.061 127.52 300.953 125.219 296.815 127.981C293.876 129.942 289.148 132.662 291.212 136.795C292.306 138.985 300.17 142.452 297.016 145.609C295.941 146.684 293.242 146.997 292.013 147.612C289.784 148.728 289.244 152.987 287.61 154.623C284.759 157.477 279.82 157.952 276.404 160.232C274.17 161.723 276.648 164.995 275.203 166.442C273.854 167.792 267.594 159.235 264.397 162.436C264.073 162.76 264.723 163.965 264.797 164.038C266.915 166.159 270.308 175.349 267.398 178.261C263.167 182.497 258.59 186.944 252.99 190.681C251.005 192.006 247.664 191.927 246.586 194.086C244.765 197.732 248.187 203.937 248.187 207.908C248.187 207.917 248.268 209.27 248.187 209.311C246.721 210.044 245.523 207.908 244.185 207.708C240.66 204.18 234.48 204.203 230.777 200.497C227.652 197.369 228.482 191.388 225.174 188.077C225.017 187.92 224.25 187.399 223.973 187.676C219.976 191.678 215.341 193.34 212.766 198.493C211.741 200.546 208.74 213.061 207.121 211.501C205.502 209.94 205.889 206.158 204.762 203.902C199.961 194.29 201.684 188.452 189.753 184.471C181.767 181.806 183.797 191.635 181.148 194.287C177.366 198.073 175.327 200.5 169.341 201.698C154.681 204.633 158.08 188.222 150.73 180.865C148.756 178.888 152.705 170.422 150.93 168.646C148.505 166.218 141.252 169.903 139.124 165.641C136.386 160.159 156.316 162.688 157.134 160.232C158.72 155.469 152.885 148.166 150.73 146.009C150.262 145.54 146.651 143.76 147.128 142.804C148.432 140.194 154.44 139.985 155.933 136.995ZM235.428 78.2642C241.127 82.1568 238.623 84.6261 232.825 83.2402C231.412 82.9025 227.471 74.6039 229.022 73.8623C231.607 72.6265 233.704 77.715 235.428 78.2642ZM298.512 153.971C296.758 163.978 297.786 167.167 288.438 171.874C286.366 172.917 284.345 176.874 281.525 175.454C280.695 175.036 279.864 172.213 280.932 171.675C284.03 170.115 288.589 168.983 290.413 165.309C292.315 161.478 293.687 155.591 298.512 153.971ZM239.471 211.429C250.266 218.804 239.783 223.155 246.323 229.655C247.43 230.754 260.289 235.806 257.611 238.467C256.751 239.322 252.138 236.549 251.161 236.064C249.653 235.315 246.83 235.289 245.114 234.862C239.695 233.516 236.539 224.503 235.641 220.041C235.238 218.041 235.755 205.891 239.471 211.429ZM262.019 212.485C264.191 216.465 263.639 216.117 263.639 219.807C263.639 221.462 267.709 227.307 266.474 228.515C265.917 229.059 261.235 228.317 260.197 228.317C258.899 228.317 257.36 229.8 255.944 229.109C255.013 228.653 250.445 223.796 252.097 222.182C252.998 221.301 255.437 220.402 256.147 219.016C257.412 216.544 258.824 212.485 262.019 212.485ZM293.537 227.825C295.987 228.397 307.711 236.413 304.955 239.145C304.101 239.992 299.748 235.571 298.946 235.173C295.848 233.638 286.735 230.817 284.724 227.825C281.67 223.284 292.15 226.794 293.537 227.825ZM277.2 242.995C280.448 242.037 288.484 237.278 291.924 239.003C297.879 241.99 298.906 247.221 301.674 252.776C303.63 256.698 309.624 257.747 311.424 261.358C312.521 263.559 308.361 267.861 307.843 269.941C306.924 273.625 308.083 279.002 304.261 280.919C296.497 284.813 288.553 270.343 282.174 268.743C273.371 266.536 261.247 286.606 255.909 270.54C255.323 268.779 255.511 266.846 255.511 264.951C255.511 262.826 255.389 259.806 256.306 257.965C260.222 250.11 273.524 252.213 277.2 242.995ZM344.036 283.896C342.425 286.421 341.103 288.755 338.71 290.318C335.238 292.586 335.243 297.817 331.337 299.348C323.627 302.369 337.951 280.455 339.12 279.883C341.351 278.79 342.381 283.356 344.036 283.896ZM346.396 264.793C346.662 265.322 349.403 271.411 348.007 272.797C347.259 273.541 342.603 268.096 342.367 267.395C341.357 264.384 344.354 264.793 346.396 264.793ZM10.8754 204.396C14.6995 206.144 18.7789 205.178 22.0618 206.828C30.4042 211.023 37.3144 220.647 44.1325 227.503C48.0611 231.454 53.8237 227.536 56.5283 232.976C59.1898 238.329 52.8643 243.654 50.7839 245.746C49.2669 247.272 51.8044 252.929 50.1792 254.563C47.9071 256.848 43.8767 257.253 41.1091 260.036C38.9806 262.177 35.8975 272.343 34.1553 275.847C31.7314 280.722 23.1878 282.619 19.6431 286.184C15.5038 290.347 12.3871 295.653 12.3871 302.603C12.3871 304.156 13.9274 315.843 11.1777 314.46C1.30073 309.494 0.924294 290.692 6.03797 280.407C7.80829 276.847 5.96151 271.213 7.24732 267.333C8.25288 264.3 9.17006 253.153 6.94498 250.915C5.27506 249.236 2.19225 248.568 0.595894 246.962C-0.403671 245.957 -5.71221 228.292 -5.14851 226.591C-3.73804 222.336 -1.37941 217.024 1.80524 213.821C2.67008 212.952 2.00967 207.633 2.71226 206.22C3.70053 204.233 8.57105 204.396 10.8754 204.396ZM27.4084 69.2322C39.5814 65.9099 56.6478 67.6878 68.8745 70.7467C72.8662 71.7453 81.8816 69.2166 83.7054 72.8669C85.601 76.6608 77.3515 81.9492 76.1386 84.3768C73.7195 89.2185 77.0994 100.074 72.8092 104.368C69.2296 107.95 59.0856 111.083 53.7408 113.757C51.0293 115.114 47.3481 119.889 45.8714 122.844C45.6074 123.373 43.2884 128.74 42.2393 127.691C31.147 116.59 39.1476 112.719 36.1859 106.791C34.9093 104.236 31.2188 106.364 29.8297 104.974C26.6399 101.781 26.7758 94.3451 22.8683 90.4347C20.5916 88.1563 14.25 92.5708 12.5774 89.2231C9.75082 83.5659 27.4084 77.0704 27.4084 69.2322ZM-28.5837 73.2003C-21.5359 71.2867 -10.1085 75.3295 -4.01076 72.2942C-2.49316 71.5388 1.99805 70.1801 3.57349 70.1801C6.00607 70.1801 11.577 67.2753 13.888 69.5761C14.6554 70.34 12.7731 71.796 12.6746 71.9922C10.2708 76.7784 5.97292 81.7116 3.57349 86.4891C2.49538 88.6358 -2.19054 88.0568 -2.19054 89.8113C-2.19054 90.4205 -2.13596 91.1281 -1.88717 91.6235C1.68105 98.7281 11.1044 101.839 16.6184 107.328C17.0146 107.723 16.4726 109.431 16.315 109.745C13.2108 115.925 15.545 123.916 17.8319 128.47C19.5143 131.82 25.6666 133.853 28.4498 136.624C29.9169 138.085 27.9061 142.123 29.3599 143.571C29.9688 144.177 33.6377 146.53 32.697 148.403C32.4099 148.975 31.8055 149.007 31.1801 149.007C23.7665 149.007 26.6551 146.642 24.506 142.363C23.9128 141.182 15.7063 142.667 15.1015 143.269C12.346 146.012 22.5357 147.796 20.5622 151.725C18.5919 155.648 11.6434 149.248 9.03414 154.443C6.46818 159.553 4.07451 166.629 -0.0669556 170.752C-1.07269 171.754 -3.50789 170.554 -4.6175 171.659C-6.93252 173.963 -1.95136 181.689 -4.31413 184.041C-4.96106 184.685 -5.95376 183.013 -6.13435 182.833C-9.26176 179.72 -8.31983 178.272 -13.1118 175.887C-13.7357 175.576 -17.1111 178.221 -18.2691 178.605C-24.0898 180.537 -28.2803 178.574 -28.2803 185.551C-28.2803 188.204 -27.7078 193.387 -25.2466 194.612C-20.9954 196.728 -21.0123 187.863 -16.1455 189.478C-11.8662 190.898 -15.2545 196.386 -13.7186 199.444C-12.0979 202.671 -9.43394 198.878 -7.34782 200.954C-5.83937 202.456 -9.60165 204.751 -7.95457 206.391C-6.58025 207.759 2.03253 209.737 0.539787 211.223C-2.54885 214.298 -12.2478 205.311 -13.1118 204.881C-14.9391 203.971 -34.7811 195.993 -34.9545 195.82C-38.7993 191.992 -38.7497 184.793 -43.1454 180.417C-43.3156 180.248 -45.7445 176.964 -46.1791 177.397C-47.0967 178.31 -43.8502 183.632 -44.9657 185.853C-45.179 186.278 -55.1713 180.03 -56.1904 178.001C-60.6988 169.024 -62.4119 155.196 -68.0218 149.611C-69.6874 147.953 -64.7145 145.353 -66.2015 143.873C-67.3701 142.709 -70.877 143.748 -71.9656 142.665C-80.0492 134.617 -80.6309 128.05 -92.2914 125.148C-99.5678 123.337 -106.888 133.285 -108.673 132.396C-110.872 131.302 -116.884 125.088 -117.774 122.429C-118.705 119.651 -113.908 119.557 -115.044 117.295C-116.148 115.097 -119.755 110.366 -118.381 107.63C-117.828 106.528 -117.7 101.855 -116.561 101.288C-105.337 95.701 -90.1024 107.841 -78.3363 104.912C-76.8347 104.539 -62.4937 89.7443 -60.1342 87.3952C-58.6396 85.9073 -51.046 88.5245 -49.5162 88.9053C-42.2639 90.7103 -30.42 94.9617 -24.6399 89.2073C-22.3295 86.9072 -28.5837 75.9504 -28.5837 73.2003ZM-13.135 116.621C-15.2966 117.34 -17.1421 121.216 -18.2454 122.316C-19.9402 124.005 -24.7694 122.826 -26.362 124.413C-26.4328 124.484 -26.362 124.613 -26.362 124.713C-26.362 128.12 -12.734 129.608 -9.82825 132.505C-7.1526 135.172 -6.96631 142.023 -3.21478 143.893C-1.05021 144.972 -2.52148 138.315 -2.01232 137.3C-1.16604 135.613 2.20975 130.148 1.59503 128.309C1.15314 126.988 1.56163 127.993 0.993805 127.71C-5.06083 124.692 -7.79024 120.766 -13.135 116.621ZM-7.6849 188.719C-6.8154 188.483 -0.0607986 188.117 0.553925 187.507C1.00134 187.062 1.43307 182.035 2.68992 182.659C3.62434 183.123 3.03068 189.698 3.60534 190.839C4.07777 191.778 10.7552 194.345 8.79275 196.293C8.68834 196.397 -0.986099 195.37 -1.27692 195.081C-3.92778 192.449 -2.88843 189.909 -7.6849 188.719ZM-105.212 196.923C-106.266 195.252 -112.551 188.058 -109.961 185.323C-109.12 184.434 -108.32 186.429 -108.18 186.577C-105.812 189.078 -102.851 193.718 -105.212 196.923ZM209.363 214.5C209.175 213.786 209.665 212.644 210.337 212.644C211.009 212.644 211.552 214.717 210.933 214.96C210.313 215.203 209.551 215.213 209.363 214.5Z" fill="url(#paint1_linear)" fill-opacity="0.2"/>
</g>
<path d="M3.92358 126.504C3.92358 121.304 8.09564 117.089 13.2421 117.089C18.3886 117.089 22.5607 121.304 22.5607 126.504C22.5607 128.553 21.9124 130.45 20.8118 131.995L13.2421 144.548L5.67244 131.995C4.57181 130.45 3.92358 128.553 3.92358 126.504Z" fill="url(#paint2_linear)"/>
<path d="M13.2422 128.857C14.5289 128.857 15.5719 127.804 15.5719 126.504C15.5719 125.204 14.5289 124.15 13.2422 124.15C11.9556 124.15 10.9126 125.204 10.9126 126.504C10.9126 127.804 11.9556 128.857 13.2422 128.857Z" fill="white"/>
<path d="M172.677 80.3776C172.677 75.1781 176.849 70.9631 181.996 70.9631C187.142 70.9631 191.314 75.1781 191.314 80.3776C191.314 82.4271 190.666 84.3236 189.565 85.8693L181.996 98.4219L174.426 85.8693C173.325 84.3236 172.677 82.4271 172.677 80.3776Z" fill="url(#paint3_linear)"/>
<path d="M181.996 82.7312C183.282 82.7312 184.325 81.6775 184.325 80.3776C184.325 79.0777 183.282 78.024 181.996 78.024C180.709 78.024 179.666 79.0777 179.666 80.3776C179.666 81.6775 180.709 82.7312 181.996 82.7312Z" fill="white"/>
<path d="M118.272 112.358C147.666 112.358 171.494 108.122 171.494 102.897C171.494 97.671 147.666 93.4348 118.272 93.4348C88.878 93.4348 65.0496 97.671 65.0496 102.897C65.0496 108.122 88.878 112.358 118.272 112.358Z" fill="url(#paint4_linear)"/>
<path d="M70.7267 52.0396L118.035 11.3541L165.344 52.0396V101.714H70.7267V52.0396Z" fill="#EEF2F5"/>
<path d="M85.1559 54.5396C85.1559 53.1589 86.2752 52.0396 87.6559 52.0396L147.705 52.0396C149.086 52.0396 150.205 53.1589 150.205 54.5396V101.714H85.1559V54.5396Z" fill="white"/>
<path d="M85.1559 54.5396C85.1559 53.1589 86.2752 52.0396 87.6559 52.0396H147.705C149.086 52.0396 150.205 53.1589 150.205 54.5396V59.1359H85.1559V54.5396Z" fill="#D9E5EB"/>
<path d="M165.344 59.609L118.035 18.9235L70.7267 59.609V52.0396L118.035 11.3541L165.344 52.0396V59.609Z" fill="url(#paint5_linear)"/>
<path d="M97.2195 81.3711H78.296L80.1883 73.8017H99.1118L97.2195 81.3711Z" fill="url(#paint6_linear)"/>
<path d="M66.9419 81.2422C66.9419 80.1376 67.8373 79.2422 68.9419 79.2422H102.789C103.893 79.2422 104.789 80.1376 104.789 81.2422V99.7139C104.789 100.818 103.893 101.714 102.789 101.714H68.9419C67.8373 101.714 66.9419 100.818 66.9419 99.7139V81.2422Z" fill="#4A90E2"/>
<path d="M66.2322 81.2422C66.2322 80.1376 67.1276 79.2422 68.2322 79.2422L83.1557 79.2422C84.2603 79.2422 85.1557 80.1376 85.1557 81.2422V99.7139C85.1557 100.818 84.2603 101.714 83.1557 101.714H68.2322C67.1276 101.714 66.2322 100.818 66.2322 99.7139V81.2422Z" fill="url(#paint7_linear)"/>
<path d="M66.2322 79.2422V86.3385H61.5013L66.2322 79.2422Z" fill="url(#paint8_linear)"/>
<path d="M66.2323 79.2422H85.1558L82.7903 70.9632H63.8668L66.2323 79.2422Z" fill="url(#paint9_linear)"/>
<rect x="78.296" y="96.5099" width="7.5694" height="2.83853" fill="#8BDCFB"/>
<rect x="85.8655" y="96.5099" width="1.89235" height="2.83853" fill="#2FB7EC"/>
<path d="M93.4347 74.1459C93.4347 73.0414 94.3301 72.1459 95.4347 72.1459H129.282C130.386 72.1459 131.282 73.0414 131.282 74.1459V99.7139C131.282 100.818 130.386 101.714 129.282 101.714H95.4347C94.3301 101.714 93.4347 100.818 93.4347 99.7139V74.1459Z" fill="#FFE557"/>
<path d="M93.4347 72.1459H119.455V101.714H93.4347V72.1459Z" fill="url(#paint10_linear)"/>
<path d="M100.531 72.1459H112.358V76.8768L110.402 75.9306L108.416 76.8768L106.445 75.9306L104.474 76.8768L102.502 75.9306L100.531 76.8768V72.1459Z" fill="#F0B616"/>
<path d="M123.003 72.1459H127.734V76.8768L125.368 75.9306L123.003 76.8768V72.1459Z" fill="#F0B616"/>
<rect x="109.521" y="93.6713" width="7.5694" height="3.7847" fill="white"/>
<rect x="109.52" y="98.4022" width="7.5694" height="0.946176" rx="0.473088" fill="white"/>
<path d="M181.656 62.3461C180.156 63.8452 177.75 63.9217 176.159 62.5208L118.035 11.3541L59.3625 62.5446C57.7702 63.9338 55.3739 63.8523 53.8797 62.3581C52.2414 60.7198 52.3244 58.0391 54.061 56.5054L118.035 0L181.487 56.5037C183.212 58.0403 183.289 60.7122 181.656 62.3461Z" fill="url(#paint11_linear)"/>
<path d="M131.282 87.0481H146.421V101.714H131.282V87.0481Z" fill="url(#paint12_linear)"/>
<path d="M143.582 87.0481H146.421V101.714H143.582V87.0481Z" fill="url(#paint13_linear)"/>
<path d="M146.421 92.7252H155.882V101.714H146.421V92.7252Z" fill="url(#paint14_linear)"/>
<rect x="149.259" y="92.7252" width="3.7847" height="2.83853" fill="#2FB7EC"/>
<path d="M134.12 87.0481H141.69V91.779L139.797 90.8328L138.234 91.779L136.013 90.8328L134.12 91.779V87.0481Z" fill="#2FB7EC"/>
<path d="M136.013 108.355C136.013 108.355 186.609 114.159 210.263 141.521" stroke="#2FB7EC" stroke-width="1.25" stroke-linecap="round" stroke-dasharray="2.5"/>
<path d="M204.61 125.309C204.61 118.81 209.88 113.541 216.381 113.541C222.882 113.541 228.152 118.81 228.152 125.309C228.152 127.871 227.333 130.242 225.943 132.174L216.381 147.865L206.82 132.174C205.429 130.242 204.61 127.871 204.61 125.309Z" fill="url(#paint15_linear)"/>
<path d="M216.381 128.251C218.007 128.251 219.324 126.934 219.324 125.309C219.324 123.684 218.007 122.367 216.381 122.367C214.756 122.367 213.439 123.684 213.439 125.309C213.439 126.934 214.756 128.251 216.381 128.251Z" fill="white"/>
<path d="M95.8358 106.49C95.8358 106.49 43.5055 112.264 15.5718 144.011" stroke="#2FB7EC" stroke-width="1.25" stroke-linecap="round" stroke-dasharray="2.5"/>
<path d="M168.509 99.3484C168.509 99.3484 175.082 96.0368 181.996 97.4561" stroke="#2FB7EC" stroke-width="1.25" stroke-linecap="round" stroke-dasharray="2.5"/>
<path fill-rule="evenodd" clip-rule="evenodd" d="M63.8878 24.8371C63.8808 24.8371 63.8738 24.8371 63.8668 24.8371C63.8598 24.8371 63.8528 24.8371 63.8458 24.8371H46.1261V24.688C44.0856 24.1628 42.5779 22.3106 42.5779 20.1061C42.5779 17.4934 44.696 15.3753 47.3088 15.3753C47.7178 15.3753 48.1147 15.4272 48.4933 15.5248C48.4921 15.4751 48.4915 15.4253 48.4915 15.3753C48.4915 12.1093 51.1391 9.46168 54.4051 9.46168C55.0506 9.46168 55.6719 9.56511 56.2535 9.7563C57.9768 7.42517 60.7453 5.91357 63.8668 5.91357C68.3387 5.91357 72.086 9.0159 73.0739 13.1857C73.5341 13.0709 74.0155 13.0099 74.5112 13.0099C77.7772 13.0099 80.4248 15.6575 80.4248 18.9235C80.4248 22.1894 77.7773 24.837 74.5113 24.8371H63.8878Z" fill="#8BDCFB"/>
<path fill-rule="evenodd" clip-rule="evenodd" d="M55.5879 24.8371C57.5475 24.8371 59.136 23.2485 59.136 21.2889C59.136 19.3293 57.5474 17.7408 55.5878 17.7408C55.1444 17.7408 54.72 17.8221 54.3287 17.9707C53.8731 15.1577 51.4331 13.0099 48.4915 13.0099C46.4848 13.0099 44.7115 14.0094 43.6424 15.5378C43.3064 15.4322 42.9488 15.3753 42.5779 15.3753C40.6183 15.3753 39.0297 16.9639 39.0297 18.9235C39.0297 18.9432 39.0299 18.963 39.0302 18.9827C38.839 18.9439 38.6411 18.9235 38.4385 18.9235C36.8055 18.9235 35.4817 20.2473 35.4817 21.8803C35.4817 23.3107 36.4975 24.5039 37.8471 24.7779V24.8371H55.5879V24.8371Z" fill="#CEF2FD"/>
</g>
<defs>
<linearGradient id="paint0_linear" x1="88.011" y1="78.1889" x2="88.011" y2="156.904" gradientUnits="userSpaceOnUse">
<stop stop-color="#CEF2FD"/>
<stop offset="1" stop-color="white"/>
</linearGradient>
<linearGradient id="paint1_linear" x1="90.0557" y1="128.001" x2="90.0557" y2="155.999" gradientUnits="userSpaceOnUse">
<stop stop-color="#8BDCFB"/>
<stop offset="1" stop-color="white"/>
</linearGradient>
<linearGradient id="paint2_linear" x1="22.5607" y1="144.548" x2="22.5607" y2="117.089" gradientUnits="userSpaceOnUse">
<stop stop-color="#8BDCFB" stop-opacity="0.8"/>
<stop offset="1" stop-color="#4A90E2"/>
</linearGradient>
<linearGradient id="paint3_linear" x1="191.314" y1="98.4219" x2="191.314" y2="70.9631" gradientUnits="userSpaceOnUse">
<stop stop-color="#8BDCFB" stop-opacity="0.8"/>
<stop offset="1" stop-color="#4A90E2"/>
</linearGradient>
<linearGradient id="paint4_linear" x1="293.422" y1="105.155" x2="290.659" y2="50.7012" gradientUnits="userSpaceOnUse">
<stop stop-color="#8BDCFB"/>
<stop offset="1" stop-color="#CEF2FD"/>
</linearGradient>
<linearGradient id="paint5_linear" x1="23.4179" y1="23.4178" x2="37.8601" y2="80.0537" gradientUnits="userSpaceOnUse">
<stop stop-color="#EEF2F5"/>
<stop offset="1" stop-color="#C3D4FA"/>
</linearGradient>
<linearGradient id="paint6_linear" x1="109.52" y1="78.5598" x2="106.563" y2="67.6126" gradientUnits="userSpaceOnUse">
<stop stop-color="#EEF2F5"/>
<stop offset="1" stop-color="#AFC7D1" stop-opacity="0.8"/>
</linearGradient>
<linearGradient id="paint7_linear" x1="56.7704" y1="90.478" x2="78.9143" y2="109.125" gradientUnits="userSpaceOnUse">
<stop stop-color="#2FB7EC"/>
<stop offset="1" stop-color="#4A90E2"/>
</linearGradient>
<linearGradient id="paint8_linear" x1="63.8668" y1="75.694" x2="57.3163" y2="80.061" gradientUnits="userSpaceOnUse">
<stop stop-color="#CEF2FD"/>
<stop offset="1" stop-color="#8BDCFB"/>
</linearGradient>
<linearGradient id="paint9_linear" x1="53.2223" y1="75.1027" x2="58.8157" y2="60.7198" gradientUnits="userSpaceOnUse">
<stop stop-color="#CEF2FD"/>
<stop offset="1" stop-color="#EEF2F5"/>
</linearGradient>
<linearGradient id="paint10_linear" x1="80.4248" y1="86.9299" x2="109.753" y2="112.739" gradientUnits="userSpaceOnUse">
<stop stop-color="#FFE557"/>
<stop offset="1" stop-color="#FFC72C"/>
</linearGradient>
<linearGradient id="paint11_linear" x1="184.666" y1="65.0124" x2="184.666" y2="0" gradientUnits="userSpaceOnUse">
<stop stop-color="#5685F1"/>
<stop offset="1" stop-color="#326BEE"/>
</linearGradient>
<linearGradient id="paint12_linear" x1="153.99" y1="94.381" x2="139.332" y2="79.2498" gradientUnits="userSpaceOnUse">
<stop stop-color="#CEF2FD"/>
<stop offset="1" stop-color="#8BDCFB"/>
</linearGradient>
<linearGradient id="paint13_linear" x1="147.84" y1="94.381" x2="142.368" y2="93.3218" gradientUnits="userSpaceOnUse">
<stop stop-color="#CEF2FD"/>
<stop offset="1" stop-color="#8BDCFB"/>
</linearGradient>
<linearGradient id="paint14_linear" x1="160.613" y1="97.2195" x2="151.636" y2="87.7702" gradientUnits="userSpaceOnUse">
<stop stop-color="#CEF2FD"/>
<stop offset="1" stop-color="#8BDCFB"/>
</linearGradient>
<linearGradient id="paint15_linear" x1="228.152" y1="147.865" x2="228.152" y2="113.541" gradientUnits="userSpaceOnUse">
<stop stop-color="#8BDCFB"/>
<stop offset="1" stop-color="#4A90E2"/>
</linearGradient>
</defs>
</svg>
