<svg width="22" height="20" viewBox="0 0 22 20" fill="none"
    xmlns="http://www.w3.org/2000/svg">
    <path d="M9.36333 1.81434L1.25653 15.8741C1.08938 16.1748 1.00094 16.5157 1.00001 16.863C0.999072 17.2102 1.08567 17.5516 1.25119 17.8533C1.41671 18.155 1.65538 18.4064 1.94346 18.5825C2.23153 18.7586 2.55897 18.8532 2.8932 18.8571H19.1068C19.441 18.8532 19.7685 18.7586 20.0565 18.5825C20.3446 18.4064 20.5833 18.155 20.7488 17.8533C20.9143 17.5516 21.0009 17.2102 21 16.863C20.9991 16.5157 20.9106 16.1748 20.7435 15.8741L12.6367 1.81434C12.466 1.52211 12.2258 1.2805 11.9391 1.11282C11.6524 0.945145 11.329 0.857056 11 0.857056C10.671 0.857056 10.3476 0.945145 10.0609 1.11282C9.7742 1.2805 9.53395 1.52211 9.36333 1.81434Z" fill="#FFC72C" stroke="#0E161C" stroke-width="1.5" stroke-linecap="round" stroke-linejoin="round"/>
    <path fill-rule="evenodd" clip-rule="evenodd" d="M11 6.10706C11.4142 6.10706 11.75 6.44284 11.75 6.85706V11.8571C11.75 12.2713 11.4142 12.6071 11 12.6071C10.5858 12.6071 10.25 12.2713 10.25 11.8571V6.85706C10.25 6.44284 10.5858 6.10706 11 6.10706Z" fill="#0E161C"/>
    <path fill-rule="evenodd" clip-rule="evenodd" d="M10.25 14.8571C10.25 14.4428 10.5858 14.1071 11 14.1071H11.01C11.4242 14.1071 11.76 14.4428 11.76 14.8571C11.76 15.2713 11.4242 15.6071 11.01 15.6071H11C10.5858 15.6071 10.25 15.2713 10.25 14.8571Z" fill="#0E161C"/>
</svg>
