<svg width="20" height="20" viewBox="0 0 20 20" fill="none" xmlns="http://www.w3.org/2000/svg">
<path d="M8.63606 3.29773L1.8804 15.0142C1.74111 15.2648 1.66741 15.5489 1.66663 15.8383C1.66585 16.1276 1.73802 16.4122 1.87595 16.6635C2.01389 16.9149 2.21278 17.1244 2.45284 17.2712C2.6929 17.4179 2.96577 17.4968 3.24429 17.5H16.7556C17.0341 17.4968 17.307 17.4179 17.5471 17.2712C17.7871 17.1244 17.986 16.9149 18.124 16.6635C18.2619 16.4122 18.3341 16.1276 18.3333 15.8383C18.3325 15.5489 18.2588 15.2648 18.1195 15.0142L11.3639 3.29773C11.2217 3.05421 11.0215 2.85287 10.7826 2.71314C10.5437 2.57341 10.2741 2.5 9.99996 2.5C9.7258 2.5 9.45626 2.57341 9.21736 2.71314C8.97846 2.85287 8.77825 3.05421 8.63606 3.29773Z" fill="#FFC72C" stroke="#FFC72C" stroke-width="1.25" stroke-linecap="round" stroke-linejoin="round"/>
<path d="M10 6.66666V10.8333" stroke="#0E161C" stroke-width="1.25" stroke-linecap="round" stroke-linejoin="round"/>
<path d="M10 14.1667H10.0083" stroke="#0E161C" stroke-width="1.25" stroke-linecap="round" stroke-linejoin="round"/>
</svg>
