<svg xmlns="http://www.w3.org/2000/svg" xmlns:xlink="http://www.w3.org/1999/xlink" width="68" height="68" viewBox="0 0 68 68">
    <defs>
        <linearGradient id="b" x1="0%" y1="0%" y2="100%">
            <stop offset="0%" stop-color="#E6F7FF"/>
            <stop offset="100%" stop-color="#8BDCFB"/>
        </linearGradient>
        <circle id="a" cx="28" cy="28" r="28"/>
        <rect id="e" width="56" height="42" y="44" rx="3"/>
        <filter id="d" width="114.3%" height="138.1%" x="-7.1%" y="-9.5%" filterUnits="objectBoundingBox">
            <feOffset dy="8" in="SourceAlpha" result="shadowOffsetOuter1"/>
            <feColorMatrix in="shadowOffsetOuter1" values="0 0 0 0 0.184313725 0 0 0 0 0.717647059 0 0 0 0 0.925490196 0 0 0 1 0"/>
        </filter>
        <path id="f" d="M5.6 5.39c0 1.162-.77 1.965-2.176 2.13v.88H2.341v-.88C1.307 7.422.556 7.054 0 6.522l.888-1.249c.468.465 1.19.852 2.078.852.575 0 .927-.242.927-.552 0-.368-.42-.513-1.113-.658C1.707 4.703.205 4.432.205 2.903c0-.977.76-1.838 2.136-1.993V0h1.083v.92c.78.096 1.474.396 2.02.86l-.917 1.191a3.039 3.039 0 0 0-1.834-.668c-.556 0-.771.223-.771.503 0 .34.4.455 1.122.59C4.117 3.62 5.6 3.93 5.6 5.39z"/>
    </defs>
    <g fill="none" fill-rule="evenodd">
        <circle cx="34" cy="34" r="34" fill="#EEF2F5" fill-opacity=".5" fill-rule="nonzero"/>
        <g transform="translate(6 6)">
            <mask id="c" fill="#fff">
                <use xlink:href="#a"/>
            </mask>
            <use fill="url(#b)" xlink:href="#a"/>
            <g mask="url(#c)">
                <use fill="#000" filter="url(#d)" xlink:href="#e"/>
                <use fill="#2FB7EC" xlink:href="#e"/>
            </g>
        </g>
        <path fill="#FFF" stroke="#2FB7EC" stroke-width="2.8" d="M34 32.743c-10.362 4.865-15.4 10.434-15.4 16.65 0 5.597 3.107 7.815 9.424 8.296 1.36.103 2.497.12 4.815.106a173.882 173.882 0 0 1 2.322 0c2.318.014 3.456-.003 4.815-.106 6.317-.48 9.424-2.699 9.424-8.295 0-6.217-5.038-11.786-15.4-16.65z"/>
        <path fill="#FFF" stroke="#2FB7EC" stroke-width="2.1" d="M28.118 28.764c.415 3.713 2.684 5.586 5.882 5.586 3.187 0 5.445-1.868 5.875-5.584l-2.159.52a1.75 1.75 0 0 1-1.126-.104l-2.447-1.097a.35.35 0 0 0-.286 0l-2.447 1.097a1.75 1.75 0 0 1-1.126.105l-1.765-.426-.4-.097z"/>
        <g transform="translate(25.6 38.2)">
            <ellipse cx="8.4" cy="7.7" fill="#326BEE" rx="8.4" ry="7.7"/>
            <use fill="#FFF" transform="translate(5.6 3.5)" xlink:href="#f"/>
        </g>
        <path stroke="#2FB7EC" stroke-linecap="round" stroke-linejoin="round" stroke-width="1.4" d="M39 18.6c-3.954 1.262-3.591 6.418-3.591 6.418M28.4 18.6c3.954 1.262 3.59 6.418 3.59 6.418"/>
        <circle cx="20" cy="14" r="6" fill="#8BDCFB"/>
        <circle cx="46" cy="16" r="4" fill="#2FB7EC"/>
    </g>
</svg>
