<svg xmlns="http://www.w3.org/2000/svg" width="216" height="96" viewBox="0 0 216 96">
    <defs>
        <linearGradient id="a" x1="50%" x2="50%" y1="0%" y2="100%">
            <stop offset="0%" stop-color="#FFF"/>
            <stop offset="100%" stop-color="#FFF" stop-opacity="0"/>
        </linearGradient>
        <linearGradient id="b" x1="0%" x2="74.281%" y1="0%" y2="100%">
            <stop offset="0%" stop-color="#EEF2F5"/>
            <stop offset="100%" stop-color="#AFC7D1" stop-opacity=".8"/>
        </linearGradient>
        <linearGradient id="c" x1="0%" y1="0%" y2="100%">
            <stop offset="0%" stop-color="#2FB7EC"/>
            <stop offset="100%" stop-color="#4A90E2"/>
        </linearGradient>
        <linearGradient id="d" x1="9.775%" x2="86.639%" y1="0%" y2="100%">
            <stop offset="0%" stop-color="#FFF"/>
            <stop offset="100%" stop-color="#EEF2F5"/>
        </linearGradient>
        <linearGradient id="e" x1="100%" x2="0%" y1="0%" y2="100%">
            <stop offset="0%" stop-color="#CEF2FD"/>
            <stop offset="100%" stop-color="#8BDCFB"/>
        </linearGradient>
        <linearGradient id="f" x1="0%" y1="0%" y2="100%">
            <stop offset="0%" stop-color="#FFE557"/>
            <stop offset="100%" stop-color="#FFC72C"/>
        </linearGradient>
        <linearGradient id="g" x1="0%" y1="0%" y2="100%">
            <stop offset="0%" stop-color="#FFF"/>
            <stop offset="100%" stop-color="#FFF" stop-opacity=".6"/>
        </linearGradient>
        <linearGradient id="h" x1="0%" x2="0%" y1="100%" y2="0%">
            <stop offset="0%" stop-color="#FABF86"/>
            <stop offset="100%" stop-color="#F8AB60"/>
        </linearGradient>
        <linearGradient id="i" x1="100%" x2="0%" y1="100%" y2="0%">
            <stop offset="0%" stop-color="#CEF2FD"/>
            <stop offset="100%" stop-color="#8BDCFB"/>
        </linearGradient>
        <linearGradient id="j" x1="100%" x2="0%" y1="92.979%" y2="0%">
            <stop offset="0%" stop-color="#2FB7EC"/>
            <stop offset="100%" stop-color="#326BEE"/>
        </linearGradient>
    </defs>
    <g fill="none" fill-rule="evenodd">
        <path fill="url(#a)" d="M12 96c0-53.02 42.98-96 96-96s96 42.98 96 96H12z"/>
        <g transform="translate(16 16)">
            <g fill-rule="nonzero">
                <path fill="url(#b)" d="M40 4h40l-4 16H36z" transform="rotate(180 58 20)"/>
                <path fill="#4A90E2" d="M12 32h76a4 4 0 0 1 4 4v40a4 4 0 0 1-4 4H16a4 4 0 0 1-4-4V32z"/>
                <path fill="url(#c)" d="M12 16h40v48H16a4 4 0 0 1-4-4V16z" transform="translate(0 16)"/>
                <path fill="url(#d)" d="M12 0h40l-4 16H8z" transform="matrix(1 0 0 -1 0 32)"/>
                <path fill="url(#e)" d="M12 16v16H0z" transform="translate(0 16)"/>
                <path fill="#8BDCFB" d="M36 68h16v6H36z"/>
                <path fill="#2FB7EC" d="M52 68h4v6h-4z"/>
            </g>
            <path fill="#FFE557" fill-rule="nonzero" d="M72 0h72a4 4 0 0 1 4 4v76H72a4 4 0 0 1-4-4V4a4 4 0 0 1 4-4z"/>
            <path fill="url(#f)" fill-rule="nonzero" d="M72 0h52v80H72a4 4 0 0 1-4-4V4a4 4 0 0 1 4-4z"/>
            <circle cx="96" cy="50" r="20" fill="url(#g)" fill-rule="nonzero"/>
            <path fill="#FABF86" stroke="#BC7633" stroke-width="1.5" d="M99.458 45.146l.006.01.009.01a.54.54 0 0 1-.019-.03l.002.006.002.004zm.015.02l.067.085a.671.671 0 0 1-.067-.085zm6.187 6.904c.48.302.813.871.881 1.55v1.252c0 .96-.76 1.75-1.69 1.75h-.622c-.525 1.142-1.632 1.909-2.904 1.909-1.254 0-2.375-.773-2.903-1.908h-2.486c-.525 1.14-1.631 1.908-2.904 1.908-1.254 0-2.374-.773-2.902-1.908h-.457c-.948 0-1.69-.808-1.69-1.751V53.62c0-.103.008-.205.025-.305a1.445 1.445 0 0 1-.924-1.353c0-.587.346-1.09.852-1.314h-.766c-.778 0-1.397-.659-1.397-1.438 0-.577.34-1.088.831-1.314h-.943c-.778 0-1.397-.659-1.397-1.438 0-.78.62-1.438 1.397-1.438h2.592c.29-.997.974-1.753 1.975-1.753h8.537c.782 0 1.478.38 1.92 1.016a.847.847 0 0 1 .067.098l.062.065.907 3.03 1.573.14c1.306 0 2.366 1.127 2.366 2.47v1.983z"/>
            <path fill="url(#h)" fill-rule="nonzero" d="M9.1 13.525L12.837.018h.929c.558 0 1.028.281 1.322.72.03.03.03.062.059.093l1.002 3.348 2.146.188c.881 0 1.616.782 1.616 1.72v2.502c.44.031.822.469.881 1.032v1.25c0 .564-.44 1.002-.94 1.002h-1.146c-.294 1.094-1.234 1.908-2.38 1.908-1.117 0-2.087-.814-2.38-1.908h-3.533a2.598 2.598 0 0 1-1.311 1.652z" transform="translate(85 44)"/>
            <path fill="#F0B616" fill-rule="nonzero" d="M84 0h24v20l-3.97-2-4.03 2-4-2-4 2-4-2-4 2z"/>
            <path fill="#FFC72C" fill-rule="nonzero" d="M136 18h2v62h-2z"/>
            <path fill="#F0B616" fill-rule="nonzero" d="M132 0h8v20l-4-2-4 2z"/>
        </g>
        <path fill="url(#i)" fill-rule="nonzero" d="M164 48h32v32h-32z" transform="translate(0 16)"/>
        <path fill="url(#i)" fill-rule="nonzero" d="M190 48h6v32h-6z" transform="translate(0 16)"/>
        <path fill="#FFF" fill-rule="nonzero" d="M180 87h8v4h-8zM180 92h8v2h-8z"/>
        <path fill="url(#j)" fill-rule="nonzero" d="M2 60h16a2 2 0 0 1 2 2v16a2 2 0 0 1-2 2H2a2 2 0 0 1-2-2V62a2 2 0 0 1 2-2z" transform="translate(0 16)"/>
        <path fill="#8BDCFB" fill-rule="nonzero" d="M6 76h8v6H6z"/>
        <path fill="url(#i)" fill-rule="nonzero" d="M196 60h20v20h-20z" transform="translate(0 16)"/>
        <path fill="#2FB7EC" fill-rule="nonzero" d="M202 76h8v6h-8zM170 64h16v10l-4-2-3.305 2L174 72l-4 2z"/>
    </g>
</svg>
