<svg width="269" height="136" viewBox="0 0 269 136" fill="none" xmlns="http://www.w3.org/2000/svg">
<rect width="269" height="136" fill="white"/>
<path d="M87.7356 25.0693C87.7356 16.7851 94.4513 10.0693 102.736 10.0693H225.797C234.081 10.0693 240.797 16.7851 240.797 25.0693V32.451H87.7356V25.0693Z" fill="#C3D4FA"/>
<rect x="115.182" width="8.82833" height="16.3309" rx="4.41417" fill="white"/>
<rect x="117.59" y="3.4126" width="3.74535" height="10.2373" rx="1.87268" fill="#5685F1"/>
<rect x="205.605" width="8.82833" height="16.3309" rx="4.41417" fill="white"/>
<rect x="208.147" y="3.4126" width="3.74535" height="10.2373" rx="1.87268" fill="#5685F1"/>
<rect x="87.6455" y="25.0505" width="153.062" height="3.24895" fill="white"/>
<path d="M87.7356 32.4509H240.797V120.876C240.797 129.16 234.081 135.876 225.797 135.876H102.736C94.4513 135.876 87.7356 129.16 87.7356 120.876V32.4509Z" fill="#5685F1"/>
<rect x="213.732" y="40.5291" width="17.5549" height="17.5549" rx="4" transform="rotate(0.222462 213.732 40.5291)" fill="white" fill-opacity="0.3"/>
<rect x="143.665" y="40.4429" width="17.5549" height="17.5549" rx="4" transform="rotate(0.222462 143.665 40.4429)" fill="white" fill-opacity="0.3"/>
<rect x="190.376" y="40.4429" width="17.5549" height="17.5549" rx="4" transform="rotate(0.222462 190.376 40.4429)" fill="#2EE3AA"/>
<rect x="120.309" y="63.6394" width="17.5549" height="17.5549" rx="4" transform="rotate(0.222462 120.309 63.6394)" fill="white" fill-opacity="0.3"/>
<rect x="167.021" y="63.6394" width="17.5549" height="17.5549" rx="4" transform="rotate(0.222462 167.021 63.6394)" fill="white" fill-opacity="0.3"/>
<rect x="167.021" y="40.3787" width="17.5549" height="17.5549" rx="4" transform="rotate(0.222462 167.021 40.3787)" fill="white" fill-opacity="0.3"/>
<rect x="213.732" y="63.6394" width="17.5549" height="17.5549" rx="4" transform="rotate(0.222462 213.732 63.6394)" fill="white" fill-opacity="0.3"/>
<rect x="96.9536" y="63.553" width="17.5549" height="17.5549" rx="4" transform="rotate(0.222462 96.9536 63.553)" fill="white" fill-opacity="0.3"/>
<rect x="143.665" y="63.553" width="17.5549" height="17.5549" rx="4" transform="rotate(0.222462 143.665 63.553)" fill="white" fill-opacity="0.3"/>
<rect x="190.376" y="63.553" width="17.5549" height="17.5549" rx="4" transform="rotate(0.222462 190.376 63.553)" fill="#2EE3AA"/>
<rect x="167.021" y="86.7498" width="17.5549" height="17.5549" rx="4" transform="rotate(0.222462 167.021 86.7498)" fill="white" fill-opacity="0.3"/>
<rect x="213.732" y="86.7498" width="17.5549" height="17.5549" rx="4" transform="rotate(0.222462 213.732 86.7498)" fill="white" fill-opacity="0.3"/>
<rect x="96.9536" y="86.6636" width="17.5549" height="17.5549" rx="4" transform="rotate(0.222462 96.9536 86.6636)" fill="white" fill-opacity="0.3"/>
<rect x="120.206" y="86.6636" width="17.5549" height="17.5549" rx="4" transform="rotate(0.222462 120.206 86.6636)" fill="white" fill-opacity="0.3"/>
<rect x="143.665" y="86.6636" width="17.5549" height="17.5549" rx="4" transform="rotate(0.222462 143.665 86.6636)" fill="white" fill-opacity="0.3"/>
<rect x="190.377" y="86.6636" width="17.5549" height="17.5549" rx="4" transform="rotate(0.222462 190.377 86.6636)" fill="#2EE3AA"/>
<rect x="190.377" y="110.119" width="17.5549" height="17.5549" rx="4" transform="rotate(0.222462 190.377 110.119)" fill="#2EE3AA"/>
<rect x="120.309" y="109.86" width="17.5549" height="17.5549" rx="4" transform="rotate(0.222462 120.309 109.86)" fill="white" fill-opacity="0.3"/>
<rect x="96.9536" y="109.774" width="17.5549" height="17.5549" rx="4" transform="rotate(0.222462 96.9536 109.774)" fill="white" fill-opacity="0.3"/>
<rect x="143.665" y="109.774" width="17.5549" height="17.5549" rx="4" transform="rotate(0.222462 143.665 109.774)" fill="white" fill-opacity="0.3"/>
<rect x="166.964" y="109.774" width="17.5549" height="17.5549" rx="4" transform="rotate(0.222462 166.964 109.774)" fill="white" fill-opacity="0.3"/>
<path d="M203.429 45.5836C203.778 45.2342 204.345 45.2342 204.694 45.5836C205.043 45.933 205.043 46.4995 204.694 46.8489L198.52 53.023C198.129 53.4135 197.496 53.4135 197.106 53.023L196.547 52.4647L203.429 45.5836Z" fill="white"/>
<path d="M199.036 52.4644L198.478 53.0226C198.088 53.4131 197.454 53.4131 197.064 53.0226L193.681 49.64C193.332 49.2906 193.332 48.7241 193.681 48.3747C194.031 48.0253 194.597 48.0253 194.947 48.3747L199.036 52.4644Z" fill="white"/>
<path d="M203.429 68.7491C203.778 68.3997 204.345 68.3997 204.694 68.7491C205.043 69.0985 205.043 69.6651 204.694 70.0145L198.52 76.1885C198.129 76.579 197.496 76.579 197.106 76.1885L196.547 75.6303L203.429 68.7491Z" fill="white"/>
<path d="M199.036 75.6299L198.478 76.1881C198.088 76.5786 197.454 76.5786 197.064 76.1881L193.681 72.8055C193.332 72.4561 193.332 71.8896 193.681 71.5402C194.031 71.1908 194.597 71.1908 194.947 71.5402L199.036 75.6299Z" fill="white"/>
<path d="M203.429 91.7318C203.778 91.3824 204.345 91.3824 204.694 91.7318C205.043 92.0812 205.043 92.6477 204.694 92.9971L198.52 99.1712C198.129 99.5617 197.496 99.5617 197.106 99.1712L196.547 98.6129L203.429 91.7318Z" fill="white"/>
<path d="M199.036 98.6125L198.478 99.1708C198.088 99.5613 197.454 99.5613 197.064 99.1708L193.681 95.7882C193.332 95.4388 193.332 94.8723 193.681 94.5229C194.031 94.1734 194.597 94.1734 194.947 94.5229L199.036 98.6125Z" fill="white"/>
<path d="M203.429 115.187C203.778 114.838 204.345 114.838 204.694 115.187C205.043 115.537 205.043 116.103 204.694 116.453L198.52 122.627C198.129 123.017 197.496 123.017 197.106 122.627L196.547 122.069L203.429 115.187Z" fill="white"/>
<path d="M199.036 122.068L198.478 122.626C198.088 123.017 197.454 123.017 197.064 122.626L193.681 119.244C193.332 118.894 193.332 118.328 193.681 117.978C194.031 117.629 194.597 117.629 194.947 117.978L199.036 122.068Z" fill="white"/>
<path d="M51.5417 75.9038H73.952C100.282 105.734 108.997 125.768 100.096 136H25.3973C12.4482 121.117 33.0277 97.1814 51.5417 75.9009V75.9038Z" fill="url(#paint0_linear)"/>
<path d="M64.2924 118.516C56.4897 123.224 43.4885 129.01 25.2888 135.873C12.5685 120.982 33.0814 97.1201 51.5432 75.9019H73.9507C80.57 83.4019 86.0756 90.2806 90.4687 96.5422C79.6995 107.159 70.9741 114.484 64.2924 118.516Z" fill="url(#paint1_linear)"/>
<path d="M51.2421 68.3899H73.6076C74.6037 68.3899 75.559 68.7856 76.2633 69.4899C76.9677 70.1943 77.3634 71.1496 77.3634 72.1457C77.3634 73.1418 76.9677 74.0971 76.2633 74.8015C75.559 75.5058 74.6037 75.9015 73.6076 75.9015H51.2421C50.246 75.9015 49.2907 75.5058 48.5864 74.8015C47.882 74.0971 47.4863 73.1418 47.4863 72.1457C47.4863 71.1496 47.882 70.1943 48.5864 69.4899C49.2907 68.7856 50.246 68.3899 51.2421 68.3899Z" fill="#FFD560"/>
<path d="M43.7505 45.8527L62.4253 42.0969L81.0986 45.8527L73.629 68.3905H51.223L43.7505 45.8527Z" fill="url(#paint2_linear)"/>
<path d="M45.6175 49.6086L40.0164 51.4873L51.2201 68.3906L45.6175 49.6086Z" fill="#92F1D3"/>
<path d="M79.2315 49.6086L84.8341 51.4873L73.6289 68.3906L79.2315 49.6086Z" fill="#1ACC94"/>
<path opacity="0.4" d="M62.425 42.0969L81.0984 45.8527L73.6288 68.3905H62.425V42.0969Z" fill="url(#paint3_linear)"/>
<path d="M62.728 73.0932C62.7613 72.8496 62.8423 72.6149 62.9665 72.4026C63.0906 72.1904 63.2555 72.0047 63.4515 71.8563C63.6476 71.7079 63.871 71.5996 64.109 71.5377C64.347 71.4758 64.5949 71.4615 64.8384 71.4956C65.8595 71.6404 66.5707 72.5906 66.4273 73.6176C66.41 73.7407 66.3795 74.0028 66.3491 74.3823C66.1319 77.0924 66.2868 80.1529 67.082 82.9948C67.8512 85.7512 69.149 87.9499 71.0479 89.4505C71.859 90.0907 71.9995 91.2712 71.3636 92.0867C70.7263 92.9021 69.5531 93.0441 68.7419 92.4039C66.1565 90.3616 64.4546 87.4792 63.4855 84.0116C62.5528 80.6729 62.3775 77.1967 62.6266 74.0796C62.6628 73.6233 62.7005 73.2888 62.728 73.0932Z" fill="#FFD560"/>
<path d="M66.8374 74.6285C66.6779 74.1575 66.7115 73.6425 66.9308 73.1962C67.1502 72.7499 67.5374 72.4087 68.0077 72.2472C68.2404 72.1687 68.4863 72.1368 68.7314 72.1535C68.9764 72.1702 69.2158 72.2351 69.4357 72.3445C69.6555 72.4539 69.8517 72.6057 70.0128 72.791C70.1739 72.9764 70.2968 73.1918 70.3745 73.4248C72.2111 78.8854 76.2653 81.5361 82.9658 81.5361C83.9971 81.5361 84.8343 82.3762 84.8343 83.4147C84.8343 84.4518 83.9971 85.2919 82.9658 85.2919C74.7285 85.2919 69.2099 81.6853 66.8374 74.6285Z" fill="#FFD560"/>
<path fill-rule="evenodd" clip-rule="evenodd" d="M50.366 135.985H13.1882C11.98 135.985 11 135.023 11 133.836V128.239C11 127.053 11.98 126.091 13.1882 126.091H50.366C51.5742 126.091 52.5522 127.053 52.5522 128.239V133.836C52.5522 135.023 51.5742 135.985 50.366 135.985Z" fill="#FFC72C"/>
<path fill-rule="evenodd" clip-rule="evenodd" d="M50.366 126.091H13.1882C11.98 126.091 11 125.129 11 123.942V118.346C11 117.16 11.98 116.198 13.1882 116.198H50.366C51.5742 116.198 52.5522 117.16 52.5522 118.346V123.942C52.5522 125.129 51.5742 126.091 50.366 126.091Z" fill="#FFC72C"/>
<path fill-rule="evenodd" clip-rule="evenodd" d="M50.366 116.198H13.1882C11.98 116.198 11 115.14 11 113.834V107.678C11 106.373 11.98 105.315 13.1882 105.315H50.366C51.5742 105.315 52.5522 106.373 52.5522 107.678V113.834C52.5522 115.14 51.5742 116.198 50.366 116.198Z" fill="#FFC72C"/>
<path fill-rule="evenodd" clip-rule="evenodd" d="M50.366 105.316H13.1882C11.98 105.316 11 104.354 11 103.167V97.5702C11 96.3842 11.98 95.4224 13.1882 95.4224H50.366C51.5742 95.4224 52.5522 96.3842 52.5522 97.5702V103.167C52.5522 104.354 51.5742 105.316 50.366 105.316Z" fill="#FFC72C"/>
<path d="M13.9683 105.81H49.5845" stroke="#EF8D2E" stroke-width="2" stroke-linecap="round"/>
<path d="M13.9683 115.703H49.5845" stroke="#EF8D2E" stroke-width="2" stroke-linecap="round"/>
<path d="M13.9683 125.596H49.5845" stroke="#EF8D2E" stroke-width="2" stroke-linecap="round"/>
<defs>
<linearGradient id="paint0_linear" x1="21.3401" y1="89.8588" x2="90.1637" y2="140.224" gradientUnits="userSpaceOnUse">
<stop stop-color="#92F1D3"/>
<stop offset="1" stop-color="#2EE3AA"/>
</linearGradient>
<linearGradient id="paint1_linear" x1="120.595" y1="137.018" x2="26.7938" y2="71.4629" gradientUnits="userSpaceOnUse">
<stop stop-color="#1ACC94"/>
<stop offset="1" stop-color="#1ACC94" stop-opacity="0"/>
</linearGradient>
<linearGradient id="paint2_linear" x1="43.7505" y1="48.7279" x2="41.9809" y2="95.4562" gradientUnits="userSpaceOnUse">
<stop stop-color="#92F1D3"/>
<stop offset="1" stop-color="#2EE3AA"/>
</linearGradient>
<linearGradient id="paint3_linear" x1="67.0521" y1="42.0969" x2="82.6238" y2="64.0206" gradientUnits="userSpaceOnUse">
<stop stop-color="#1ACC94"/>
<stop offset="1" stop-color="#2EE3AA"/>
</linearGradient>
</defs>
</svg>
