<svg xmlns="http://www.w3.org/2000/svg" xmlns:xlink="http://www.w3.org/1999/xlink" width="192" height="40" viewBox="0 0 192 40">
    <defs>
        <circle id="a" cx="20" cy="20" r="20"/>
        <path id="b" d="M0 0h24v24H0z"/>
    </defs>
    <g fill="none" fill-rule="evenodd">
        <path fill="#EF8D2E" d="M61.944 29l-3.12-11.808L55.728 29h-3l-4.584-16.008h3.144l3.12 12.336 3.312-12.336h2.232l3.312 12.336 3.096-12.336h3.144L64.944 29h-3zm10.608-13.512c-.84 0-1.56-.696-1.56-1.56 0-.864.72-1.56 1.56-1.56.864 0 1.56.696 1.56 1.56 0 .864-.696 1.56-1.56 1.56zM71.304 29V17.408h2.52V29h-2.52zm4.776-1.512l1.152-1.824c.816.84 2.424 1.632 3.936 1.632s2.28-.552 2.28-1.416c0-1.008-1.224-1.368-2.64-1.68-1.992-.432-4.368-.96-4.368-3.552 0-1.896 1.632-3.528 4.56-3.528 1.968 0 3.456.696 4.512 1.632l-1.056 1.776c-.696-.792-1.992-1.392-3.432-1.392-1.32 0-2.16.48-2.16 1.296 0 .888 1.152 1.2 2.52 1.512 2.016.432 4.488 1.008 4.488 3.744 0 2.04-1.704 3.6-4.824 3.6-1.968 0-3.768-.624-4.968-1.8zM96.264 29v-7.296c0-1.8-.936-2.352-2.352-2.352-1.272 0-2.376.768-2.976 1.56V29h-2.52V12.992h2.52v6c.768-.912 2.28-1.872 4.104-1.872 2.496 0 3.744 1.296 3.744 3.672V29h-2.52zm12.024 0V12.992h10.968v2.472h-8.16v4.152h7.992v2.472h-7.992v4.44h8.16V29h-10.968zm21.096 0l-3-4.272L123.36 29h-2.808l4.248-5.952-4.008-5.64h2.832l2.76 3.936 2.736-3.936h2.832l-4.008 5.64L132.216 29h-2.832zm7.104 4.416h-2.52V17.408h2.52v1.584a4.625 4.625 0 0 1 3.72-1.872c3 0 5.136 2.256 5.136 6.072 0 3.816-2.136 6.096-5.136 6.096-1.464 0-2.784-.648-3.72-1.896v6.024zm6.24-10.224c0-2.232-1.272-3.84-3.264-3.84-1.176 0-2.424.696-2.976 1.56v4.584c.552.84 1.8 1.56 2.976 1.56 1.992 0 3.264-1.608 3.264-3.864zm5.16 5.808V17.408h2.52v1.704c.864-1.104 2.256-1.968 3.768-1.968v2.496a3.715 3.715 0 0 0-.792-.072c-1.056 0-2.472.72-2.976 1.536V29h-2.52zm7.608-5.808c0-3.36 2.448-6.072 5.88-6.072 3.48 0 5.712 2.664 5.712 6.312v.6h-8.952c.192 1.752 1.512 3.192 3.696 3.192 1.128 0 2.472-.456 3.288-1.272l1.152 1.656c-1.152 1.104-2.856 1.68-4.704 1.68-3.48 0-6.072-2.424-6.072-6.096zm5.88-4.008c-2.16 0-3.144 1.656-3.264 3.072h6.528c-.048-1.368-.984-3.072-3.264-3.072zm7.2 8.304l1.152-1.824c.816.84 2.424 1.632 3.936 1.632s2.28-.552 2.28-1.416c0-1.008-1.224-1.368-2.64-1.68-1.992-.432-4.368-.96-4.368-3.552 0-1.896 1.632-3.528 4.56-3.528 1.968 0 3.456.696 4.512 1.632l-1.056 1.776c-.696-.792-1.992-1.392-3.432-1.392-1.32 0-2.16.48-2.16 1.296 0 .888 1.152 1.2 2.52 1.512 2.016.432 4.488 1.008 4.488 3.744 0 2.04-1.704 3.6-4.824 3.6-1.968 0-3.768-.624-4.968-1.8zm11.328 0l1.152-1.824c.816.84 2.424 1.632 3.936 1.632s2.28-.552 2.28-1.416c0-1.008-1.224-1.368-2.64-1.68-1.992-.432-4.368-.96-4.368-3.552 0-1.896 1.632-3.528 4.56-3.528 1.968 0 3.456.696 4.512 1.632l-1.056 1.776c-.696-.792-1.992-1.392-3.432-1.392-1.32 0-2.16.48-2.16 1.296 0 .888 1.152 1.2 2.52 1.512 2.016.432 4.488 1.008 4.488 3.744 0 2.04-1.704 3.6-4.824 3.6-1.968 0-3.768-.624-4.968-1.8z"/>
        <g fill-rule="nonzero">
            <use fill="#FFF" xlink:href="#a"/>
            <use fill="#FABF86" fill-opacity=".4" xlink:href="#a"/>
        </g>
        <g transform="translate(8 8)">
            <mask id="c" fill="#fff">
                <use xlink:href="#b"/>
            </mask>
            <g mask="url(#c)">
                <path fill="#BC7633" fill-rule="nonzero" d="M23.992 15.227l.008.15V16.6c0 1.31-1.06 2.377-2.35 2.377h-.256a3.876 3.876 0 0 1-3.308 1.863c-1.37 0-2.607-.737-3.306-1.863h-1.767a3.876 3.876 0 0 1-3.31 1.863c-1.368 0-2.606-.737-3.304-1.863h-.09c-1.314 0-2.35-1.09-2.35-2.377v-1.123a2.082 2.082 0 0 1-.785-2.426 2.079 2.079 0 0 1-1.341-2.64A2.076 2.076 0 0 1 .2 8.385c0-1.131.915-2.072 2.053-2.072h2.178C4.867 5.32 5.695 4.6 6.87 4.6h8.63c.985 0 1.872.464 2.44 1.24.024.03.046.06.066.089l.127.13.833 2.689 1.179.1c1.641.037 2.965 1.42 2.965 3.079v1.587c.486.417.81 1.035.883 1.713z"/>
                <path fill="#FBBA7B" d="M21.709 11.927c0-.917-.742-1.68-1.634-1.68l-2.168-.184-1.013-3.269c-.03-.03-.03-.061-.06-.092A1.605 1.605 0 0 0 15.499 6H6.87c-.831 0-1.285.918-1.374 1.712H2.253a.669.669 0 0 0-.653.672c0 .366.297.672.653.672H5.45a.681.681 0 0 1 .564.671.669.669 0 0 1-.653.672H3.779a.669.669 0 0 0-.654.672c0 .367.297.672.654.672h2.899c.356 0 .653.306.653.672a.669.669 0 0 1-.653.672H5.154c-.407 0-.704.306-.704.672 0 .367.297.672.653.672h.968c-.416.092-.713.489-.713.947V16.6c0 .519.416.977.95.977h.99c.297 1.069 1.277 1.863 2.406 1.863 1.158 0 2.109-.794 2.406-1.863h3.57c.297 1.069 1.277 1.863 2.406 1.863 1.158 0 2.108-.794 2.405-1.863h1.159a.97.97 0 0 0 .95-.977v-1.222c-.06-.55-.445-.978-.891-1.008v-2.443z"/>
            </g>
        </g>
    </g>
</svg>
