<svg xmlns="http://www.w3.org/2000/svg" width="72" height="24" viewBox="0 0 72 24">
    <path fill="#FFF" fill-rule="evenodd" d="M36.1 5.252c-.436-.512-.6-1.14-.49-1.884.11-.742.458-1.37 1.046-1.883.588-.512 1.253-.768 1.997-.768.743 0 1.333.256 1.77.768.437.512.6 1.14.491 1.883-.11.744-.459 1.372-1.046 1.884-.589.512-1.255.768-1.997.768-.744 0-1.334-.256-1.77-.768zm-6.234 2.326h2.086c.873 0 1.518.485 1.437 1.078l-.957 6.928c-.302 2.163-1.327 4.015-3.077 5.55-1.75 1.536-3.707 2.303-5.872 2.303-1.98 0-3.63-.67-4.947-2.01-1.65 1.34-3.476 2.01-5.475 2.01-2.166 0-3.909-.767-5.231-2.303-1.323-1.535-1.833-3.387-1.53-5.55l.898-6.452L1.2 6.662C.34 6.312-.175 5.29.054 4.39l.547-2.148c.23-.9.898-1.438 1.488-1.198.583.238 9.531 3.95 9.531 3.95.755.352 1.25 1.22 1.124 2.052l-1.188 8.538c-.097.7.076 1.309.52 1.824.443.515 1.015.773 1.717.773.7 0 1.338-.252 1.914-.758.576-.505.914-1.117 1.014-1.84l.552-3.904c.2-.78.958-1.39 1.768-1.39h2.122c.81 0 1.397.61 1.38 1.39l-.534 3.905c-.1.722.067 1.334.502 1.84.434.505 1.003.757 1.704.757.72 0 1.37-.258 1.947-.773s.914-1.123 1.012-1.824l.887-6.435c.12-.864.932-1.57 1.805-1.57zm8.728-.002c.783 0 1.364.436 1.29.97l-1.897 13.48c-.108.776-.838 1.411-1.622 1.411H34.49c-.784 0-1.365-.436-1.29-.969.008-.066 1.896-13.48 1.896-13.48.108-.776.838-1.412 1.622-1.412h1.875zm32.154 1.708c1.074 1.262 1.457 2.946 1.149 5.05l-1.182 7.663c-.11.792-.855 1.44-1.655 1.44h-1.911c-.8 0-1.393-.445-1.318-.988l1.025-7.074c.383-2.608-.414-3.913-2.39-3.913-.977 0-1.88.342-2.708 1.026-.829.684-1.34 1.688-1.534 3.014l-.963 6.558h-.002c-.131.772-.861 1.397-1.647 1.397H55.7c-.8 0-1.392-.445-1.317-.988L57.456 1.44C57.566.648 58.31 0 59.11 0h1.912c.8 0 1.392.445 1.317.988l-1.196 8.255c1.69-1.452 3.404-1.852 5.24-1.852 1.835 0 3.29.631 4.365 1.893zm-18.46 2.86c-.186.009-.383-.048-.618-.178l-.02-.012a11.806 11.806 0 0 0-.635-.376c-.994-.51-2.018-.744-3.038-.694-1.27.061-1.946.425-2.01 1.08-.034.35.114.6.466.786.4.211 1.088.453 2.047.716.97.269 1.674.48 2.09.631.418.153.915.399 1.477.73 1.098.658 1.572 1.825 1.41 3.471-.16 1.621-.889 2.97-2.17 4.006-1.273 1.03-2.834 1.596-4.64 1.684-1.2.059-2.444-.1-3.7-.468a9.674 9.674 0 0 1-3.256-1.674l-.003-.002a.76.76 0 0 1-.334-.5.765.765 0 0 1 .151-.606l1.328-1.752a.978.978 0 0 1 1.227-.259l.923.509a7.166 7.166 0 0 0 4.07 1.004c.538-.026.978-.154 1.308-.38.318-.217.488-.482.52-.81.031-.314-.14-.593-.52-.854-.416-.282-1.047-.543-1.877-.773-.853-.236-1.513-.446-1.962-.624a9.586 9.586 0 0 1-1.529-.803c-1.185-.73-1.71-1.885-1.558-3.431.15-1.523.89-2.812 2.2-3.83 1.3-1.01 2.924-1.57 4.828-1.663 1.753-.085 3.075.189 4.42.915l.048.026c.425.229.89.495 1.051.77.365.505.356 1.246-.023 1.727l-.894 1.137c-.26.33-.5.484-.776.497z"/>
</svg>
