<svg xmlns="http://www.w3.org/2000/svg" xmlns:xlink="http://www.w3.org/1999/xlink" width="40" height="40" viewBox="0 0 40 40">
    <defs>
        <circle id="a" cx="20" cy="20" r="20"/>
        <path id="b" d="M0 0h24v24H0z"/>
    </defs>
    <g fill="none" fill-rule="evenodd">
        <g fill-rule="nonzero">
            <use fill="#FFF" xlink:href="#a"/>
            <use fill="#FABF86" fill-opacity=".4" xlink:href="#a"/>
        </g>
        <g transform="translate(8 8)">
            <mask id="c" fill="#fff">
                <use xlink:href="#b"/>
            </mask>
            <g mask="url(#c)">
                <path fill="#BC7633" fill-rule="nonzero" d="M23.992 15.227l.008.15V16.6c0 1.31-1.06 2.377-2.35 2.377h-.256a3.876 3.876 0 0 1-3.308 1.863c-1.37 0-2.607-.737-3.306-1.863h-1.767a3.876 3.876 0 0 1-3.31 1.863c-1.368 0-2.606-.737-3.304-1.863h-.09c-1.314 0-2.35-1.09-2.35-2.377v-1.123a2.082 2.082 0 0 1-.785-2.426 2.079 2.079 0 0 1-1.341-2.64A2.076 2.076 0 0 1 .2 8.385c0-1.131.915-2.072 2.053-2.072h2.178C4.867 5.32 5.695 4.6 6.87 4.6h8.63c.985 0 1.872.464 2.44 1.24.024.03.046.06.066.089l.127.13.833 2.689 1.179.1c1.641.037 2.965 1.42 2.965 3.079v1.587c.486.417.81 1.035.883 1.713z"/>
                <path fill="#FBBA7B" d="M21.709 11.927c0-.917-.742-1.68-1.634-1.68l-2.168-.184-1.013-3.269c-.03-.03-.03-.061-.06-.092A1.605 1.605 0 0 0 15.499 6H6.87c-.831 0-1.285.918-1.374 1.712H2.253a.669.669 0 0 0-.653.672c0 .366.297.672.653.672H5.45a.681.681 0 0 1 .564.671.669.669 0 0 1-.653.672H3.779a.669.669 0 0 0-.654.672c0 .367.297.672.654.672h2.899c.356 0 .653.306.653.672a.669.669 0 0 1-.653.672H5.154c-.407 0-.704.306-.704.672 0 .367.297.672.653.672h.968c-.416.092-.713.489-.713.947V16.6c0 .519.416.977.95.977h.99c.297 1.069 1.277 1.863 2.406 1.863 1.158 0 2.109-.794 2.406-1.863h3.57c.297 1.069 1.277 1.863 2.406 1.863 1.158 0 2.108-.794 2.405-1.863h1.159a.97.97 0 0 0 .95-.977v-1.222c-.06-.55-.445-.978-.891-1.008v-2.443z"/>
            </g>
        </g>
    </g>
</svg>
