<svg xmlns="http://www.w3.org/2000/svg" xmlns:xlink="http://www.w3.org/1999/xlink" width="256" height="64" viewBox="0 0 256 64">
    <defs>
        <path id="a" d="M0 0h256v64H0z"/>
    </defs>
    <g fill="none" fill-rule="evenodd">
        <mask id="b" fill="#fff">
            <use xlink:href="#a"/>
        </mask>
        <use fill="#D8D8D8" fill-opacity="0" fill-rule="nonzero" xlink:href="#a"/>
        <g fill="#2FB7EC" mask="url(#b)">
            <path d="M42.162 24.19c-.506-.594-.695-1.322-.568-2.184.127-.86.53-1.589 1.212-2.182.68-.594 1.45-.89 2.312-.89.861 0 1.545.296 2.05.89.507.593.696 1.322.569 2.182-.127.862-.531 1.59-1.211 2.183-.682.594-1.453.89-2.314.89-.86 0-1.544-.296-2.05-.89M35.227 26.64c-1.03 0-1.987.827-2.129 1.837l-1.046 7.524c-.115.82-.513 1.53-1.193 2.133-.68.602-1.447.904-2.297.904-.827 0-1.498-.296-2.01-.887-.513-.59-.71-1.306-.592-2.15l.63-4.566c.02-.911-.673-1.624-1.628-1.624h-2.503c-.955 0-1.85.713-2.085 1.624l-.651 4.566c-.119.844-.517 1.56-1.196 2.15-.68.591-1.432.887-2.258.887-.828 0-1.503-.302-2.026-.904-.523-.603-.727-1.314-.613-2.133l1.402-9.983c.148-.972-.435-1.987-1.326-2.4 0 0-10.554-4.339-11.242-4.618-.696-.28-1.485.35-1.755 1.401l-.645 2.511c-.27 1.052.339 2.248 1.352 2.657l7.074 2.888-1.06 7.544c-.356 2.53.245 4.694 1.806 6.489 1.559 1.796 3.615 2.693 6.17 2.693 2.357 0 4.51-.783 6.457-2.35 1.555 1.567 3.5 2.35 5.835 2.35 2.554 0 4.862-.897 6.926-2.693 2.064-1.795 3.274-3.96 3.63-6.49l1.128-8.1c.097-.693-.665-1.26-1.694-1.26h-2.46zM45.797 26.4h-2.128c-.89 0-1.719.736-1.842 1.635l-2.153 15.617c-.084.618.575 1.123 1.465 1.123h2.127c.89 0 1.719-.736 1.842-1.635l2.153-15.617c.084-.618-.575-1.123-1.464-1.123M83.48 28.736c-1.263-1.46-2.975-2.19-5.134-2.19-2.16 0-4.177.463-6.165 2.142l1.408-9.545c.088-.629-.608-1.143-1.549-1.143h-2.25c-.941 0-1.817.75-1.946 1.666L64.23 43.982c-.089.628.607 1.143 1.55 1.143h2.248c.924 0 1.783-.722 1.937-1.616h.003l1.132-7.584c.23-1.532.83-2.694 1.805-3.484.974-.791 2.037-1.187 3.186-1.187 2.324 0 3.262 1.51 2.812 4.525l-1.206 8.18c-.089.628.608 1.143 1.55 1.143h2.248c.942 0 1.817-.75 1.948-1.666l1.39-8.861c.362-2.433-.088-4.38-1.352-5.839M61.282 31.916c.32-.014.597-.18.9-.539l1.036-1.232c.438-.522.45-1.325.026-1.874-.186-.298-.726-.586-1.218-.835l-.056-.028c-1.559-.787-3.09-1.084-5.122-.992-2.206.1-4.089.707-5.595 1.803-1.518 1.104-2.376 2.502-2.549 4.154-.176 1.677.432 2.93 1.805 3.722.652.383 1.249.676 1.772.87.52.194 1.285.42 2.274.677.961.25 1.693.532 2.175.839.441.283.638.585.602.926-.037.356-.234.643-.602.878-.383.245-.893.384-1.517.412a8.757 8.757 0 0 1-4.715-1.089l-1.07-.552a1.148 1.148 0 0 0-.578-.122 1.16 1.16 0 0 0-.844.403l-1.539 1.9a.79.79 0 0 0-.175.657c.043.222.18.414.387.543l.003.002c.501.368 1.025.69 1.556.957.694.355 1.44.645 2.218.858 1.455.4 2.897.572 4.287.508 2.093-.095 3.903-.71 5.378-1.827 1.484-1.124 2.33-2.586 2.515-4.344.187-1.785-.363-3.051-1.635-3.764-.651-.36-1.227-.626-1.712-.792-.481-.163-1.296-.393-2.421-.684-1.112-.286-1.91-.548-2.373-.778-.407-.201-.579-.472-.54-.852.075-.71.859-1.104 2.33-1.171 1.182-.054 2.368.2 3.52.752a13.917 13.917 0 0 1 .76.422h-.001c.273.141.5.202.718.192"/>
        </g>
        <path fill="#2FB7EC" d="M98.704 45V28.992h10.968v2.472h-8.16v4.152h7.992v2.472h-7.992V45h-2.808zm18.648.288c-3.672 0-5.952-2.76-5.952-6.096 0-3.312 2.28-6.072 5.952-6.072 3.72 0 5.976 2.76 5.976 6.072 0 3.336-2.256 6.096-5.976 6.096zm0-2.232c2.16 0 3.36-1.8 3.36-3.864 0-2.04-1.2-3.84-3.36-3.84-2.136 0-3.336 1.8-3.336 3.84 0 2.064 1.2 3.864 3.336 3.864zm8.52 1.944V33.408h2.52v1.704c.864-1.104 2.256-1.968 3.768-1.968v2.496a3.715 3.715 0 0 0-.792-.072c-1.056 0-2.472.72-2.976 1.536V45h-2.52zm28.392 0V32.88L149.344 45h-1.2l-4.896-12.12V45h-2.808V28.992h3.96l4.344 10.776 4.368-10.776h3.96V45h-2.808zm5.424-5.808c0-3.36 2.448-6.072 5.88-6.072 3.48 0 5.712 2.664 5.712 6.312v.6h-8.952c.192 1.752 1.512 3.192 3.696 3.192 1.128 0 2.472-.456 3.288-1.272l1.152 1.656c-1.152 1.104-2.856 1.68-4.704 1.68-3.48 0-6.072-2.424-6.072-6.096zm5.88-4.008c-2.16 0-3.144 1.656-3.264 3.072h6.528c-.048-1.368-.984-3.072-3.264-3.072zM173.776 45V33.408h2.52v1.704c.864-1.104 2.256-1.968 3.768-1.968v2.496a3.715 3.715 0 0 0-.792-.072c-1.056 0-2.472.72-2.976 1.536V45h-2.52zm7.608-5.808c0-3.504 2.472-6.072 6-6.072 2.256 0 3.624.96 4.44 2.064l-1.656 1.536c-.648-.912-1.536-1.368-2.664-1.368-2.112 0-3.504 1.584-3.504 3.84s1.392 3.864 3.504 3.864c1.128 0 2.016-.48 2.664-1.368l1.656 1.536c-.816 1.104-2.184 2.064-4.44 2.064-3.528 0-6-2.568-6-6.096zM201.88 45v-7.296c0-1.8-.936-2.352-2.352-2.352-1.272 0-2.376.768-2.976 1.56V45h-2.52V28.992h2.52v6c.768-.912 2.28-1.872 4.104-1.872 2.496 0 3.744 1.296 3.744 3.672V45h-2.52zm12.864 0v-1.248c-.864.984-2.208 1.536-3.744 1.536-1.896 0-4.032-1.272-4.032-3.84 0-2.664 2.136-3.768 4.032-3.768 1.56 0 2.904.504 3.744 1.488V37.44c0-1.344-1.104-2.16-2.712-2.16-1.296 0-2.424.48-3.432 1.464l-1.032-1.752c1.344-1.272 3.024-1.872 4.872-1.872 2.568 0 4.824 1.08 4.824 4.2V45h-2.52zm0-2.64v-1.752c-.576-.792-1.656-1.2-2.76-1.2-1.416 0-2.472.816-2.472 2.088 0 1.248 1.056 2.064 2.472 2.064 1.104 0 2.184-.408 2.76-1.2zM228.352 45v-7.248c0-1.8-.912-2.4-2.328-2.4-1.296 0-2.4.768-2.976 1.56V45h-2.52V33.408h2.52v1.584c.768-.912 2.256-1.872 4.08-1.872 2.496 0 3.744 1.344 3.744 3.72V45h-2.52zm9.264.288c-1.944 0-2.976-1.056-2.976-2.976v-6.696h-1.92v-2.208h1.92V30.24h2.52v3.168h2.352v2.208h-2.352v6.072c0 .792.384 1.368 1.104 1.368.48 0 .936-.192 1.128-.408l.6 1.896c-.456.432-1.2.744-2.376.744zm3.168-1.8l1.152-1.824c.816.84 2.424 1.632 3.936 1.632s2.28-.552 2.28-1.416c0-1.008-1.224-1.368-2.64-1.68-1.992-.432-4.368-.96-4.368-3.552 0-1.896 1.632-3.528 4.56-3.528 1.968 0 3.456.696 4.512 1.632l-1.056 1.776c-.696-.792-1.992-1.392-3.432-1.392-1.32 0-2.16.48-2.16 1.296 0 .888 1.152 1.2 2.52 1.512 2.016.432 4.488 1.008 4.488 3.744 0 2.04-1.704 3.6-4.824 3.6-1.968 0-3.768-.624-4.968-1.8z" mask="url(#b)"/>
    </g>
</svg>
