<svg width="100" height="100" viewBox="0 0 100 100" fill="none" xmlns="http://www.w3.org/2000/svg">
<mask id="mask0_85_111" style="mask-type:alpha" maskUnits="userSpaceOnUse" x="0" y="0" width="100" height="100">
<rect width="100" height="100" fill="white"/>
</mask>
<g mask="url(#mask0_85_111)">
<path d="M26.6847 72.8548L31.0052 65.3716L39.7235 50.2709C40.1389 49.5515 41.0588 49.305 41.7782 49.7204L52.1991 55.7369C52.9185 56.1522 53.165 57.0721 52.7497 57.7916L39.7109 80.3754C39.1438 81.3576 37.7352 81.3828 37.1334 80.4215L34.3662 76.0015C34.1013 75.5784 33.6439 75.3143 33.1451 75.2965L27.9336 75.11C26.8002 75.0695 26.1177 73.8369 26.6847 72.8548Z" stroke="#022786" stroke-width="4"/>
<path d="M72.3153 72.8548L67.9948 65.3716L59.2765 50.2709C58.8611 49.5515 57.9412 49.305 57.2218 49.7204L46.8009 55.7369C46.0814 56.1522 45.835 57.0721 46.2503 57.7916L59.2891 80.3754C59.8562 81.3576 61.2648 81.3828 61.8666 80.4215L64.6338 76.0015C64.8987 75.5784 65.3561 75.3143 65.8549 75.2965L71.0664 75.11C72.1998 75.0695 72.8823 73.8369 72.3153 72.8548Z" stroke="#022786" stroke-width="4"/>
<path d="M27.9316 33.819L49.4999 21.3666L71.0682 33.819V58.7239L49.4999 71.1764L27.9316 58.7239V33.819Z" fill="white" stroke="#022786" stroke-width="4"/>
<path d="M48.3586 43.0842L49.4998 40.7829L50.641 43.0842L52.3473 42.2381L50.641 43.0843C51.0922 43.9942 51.9618 44.6205 52.9626 44.7652L55.4947 45.1314L53.6689 46.9027C52.9407 47.6092 52.6061 48.63 52.7789 49.6326L53.2119 52.1457L50.9314 50.9524C50.0348 50.4833 48.9648 50.4833 48.0683 50.9524L48.9955 52.7245L48.0683 50.9524L45.7877 52.1457L46.2208 49.6326C46.3936 48.63 46.0589 47.6092 45.3308 46.9027L43.5049 45.1314L46.0371 44.7652C47.0378 44.6205 47.9074 43.9942 48.3586 43.0842Z" fill="#022786" stroke="#022786" stroke-width="4"/>
</g>
</svg>
