<svg width="20" height="20" viewBox="0 0 20 20" fill="none" xmlns="http://www.w3.org/2000/svg">
<path d="M1.00012 12.8707C1.00012 14.3983 1.93017 15.772 3.34851 16.3394L8.61266 18.445C9.50333 18.8013 10.4969 18.8013 11.3876 18.445L16.6517 16.3394C18.0701 15.772 19.0001 14.3983 19.0001 12.8707V7.1293C19.0001 5.60169 18.0701 4.22798 16.6517 3.66064L11.3876 1.55498C10.4969 1.19872 9.50333 1.19872 8.61266 1.55498L3.34851 3.66064C1.93017 4.22798 1.00012 5.60169 1.00012 7.12929V12.8707Z" fill="#D0DBFF" stroke="#305BEF" stroke-width="1.5" stroke-linecap="round" stroke-linejoin="round"/>
<path d="M14.3984 6.43359V9.50011" stroke="#305BEF" stroke-width="1.5" stroke-linecap="round" stroke-linejoin="round"/>
<path d="M18 4.66752L11.4366 7.40159C10.5171 7.78458 9.48286 7.78458 8.56345 7.40159L2 4.66752" fill="#D0DBFF"/>
<path d="M18 4.66752L11.4366 7.40159C10.5171 7.78458 9.48286 7.78458 8.56345 7.40159L2 4.66752M13.9326 6.36183L9.93261 4.6956L5.5 3" stroke="#305BEF" stroke-width="1.5" stroke-linejoin="round"/>
<path d="M9.25012 8V19H10.7501V8H9.25012Z" fill="#305BEF"/>
</svg>
