<svg width="140" height="130" viewBox="0 0 140 130" fill="none" xmlns="http://www.w3.org/2000/svg">
<rect width="94.7027" height="94.7027" rx="8" transform="matrix(0.866025 0.5 -0.499983 0.866035 50.3774 0.297348)" fill="white"/>
<path d="M53.5603 85.3402L59.1304 75.6926L70.3705 56.2241C70.906 55.2966 72.092 54.9789 73.0195 55.5143L86.4545 63.2711C87.382 63.8066 87.6998 64.9926 87.1643 65.9201L70.3542 95.0362C69.6231 96.3024 67.807 96.3349 67.0311 95.0956L63.4635 89.3971C63.122 88.8517 62.5323 88.5112 61.8892 88.4882L55.1703 88.2478C53.7091 88.1955 52.8292 86.6065 53.5603 85.3402Z" fill="#305BEF"/>
<path d="M112.388 85.3402L106.818 75.6926L95.5783 56.2241C95.0428 55.2966 93.8568 54.9789 92.9293 55.5143L79.4942 63.2711C78.5667 63.8066 78.2489 64.9926 78.7844 65.9201L95.5946 95.0362C96.3256 96.3024 98.1417 96.3349 98.9176 95.0956L102.485 89.3971C102.827 88.8517 103.416 88.5112 104.06 88.4882L110.778 88.2478C112.24 88.1955 113.12 86.6065 112.388 85.3402Z" fill="#305BEF"/>
<path d="M79.0961 14.523C81.496 13.1374 84.4529 13.1374 86.8528 14.523L112.684 29.4365C115.084 30.8221 116.562 33.3828 116.562 36.1541V65.9811C116.562 68.7523 115.084 71.313 112.684 72.6987L86.8528 87.6122C84.4529 88.9978 81.496 88.9978 79.0961 87.6122L53.2651 72.6987C50.8651 71.313 49.3867 68.7523 49.3867 65.9811V36.1541C49.3867 33.3828 50.8651 30.8221 53.2651 29.4365L79.0961 14.523Z" fill="#D0DBFF"/>
<path d="M82.0046 20.6004C82.6046 20.254 83.3438 20.254 83.9438 20.6004L108.875 34.9943C109.475 35.3407 109.844 35.9809 109.844 36.6737V65.4616C109.844 66.1544 109.475 66.7946 108.875 67.141L83.9438 81.5349C83.3438 81.8813 82.6046 81.8813 82.0046 81.5349L57.0736 67.141C56.4736 66.7946 56.104 66.1544 56.104 65.4616V36.6737C56.104 35.9809 56.4736 35.3407 57.0736 34.9943L82.0046 20.6004Z" fill="#7996F9"/>
<path d="M80.9121 33.8611C81.7159 32.2401 84.0383 32.2401 84.8421 33.8611L88.8074 41.8574C89.1266 42.5011 89.7436 42.9472 90.4573 43.0505L99.3238 44.3327C101.121 44.5927 101.839 46.791 100.538 48.0527L94.1224 54.277C93.6059 54.7781 93.3703 55.5 93.4922 56.2074L95.0068 64.9963C95.3138 66.7779 93.4349 68.1365 91.8273 67.2954L83.8968 63.1458C83.2584 62.8118 82.4958 62.8118 81.8574 63.1458L73.9269 67.2954C72.3193 68.1365 70.4404 66.7779 70.7474 64.9963L72.262 56.2074C72.3839 55.5 72.1483 54.7781 71.6318 54.277L65.2159 48.0527C63.9153 46.791 64.633 44.5927 66.4304 44.3327L75.2969 43.0505C76.0106 42.9472 76.6276 42.5011 76.9468 41.8574L80.9121 33.8611Z" fill="white"/>
<mask id="mask0" style="mask-type:alpha" maskUnits="userSpaceOnUse" x="49" y="12" width="68" height="78">
<path d="M82.0049 12.8437C82.6049 12.4973 83.3441 12.4973 83.9441 12.8437L115.593 31.116C116.193 31.4624 116.562 32.1026 116.562 32.7954V69.34C116.562 70.0328 116.193 70.6729 115.593 71.0193L83.9441 89.2916C83.3441 89.638 82.6049 89.638 82.0049 89.2916L50.3563 71.0193C49.7563 70.6729 49.3867 70.0328 49.3867 69.34V32.7954C49.3867 32.1026 49.7563 31.4624 50.3563 31.116L82.0049 12.8437Z" fill="#D0DBFF"/>
</mask>
<g mask="url(#mask0)">
<rect x="123.447" y="0.648743" width="17.7297" height="128.541" transform="rotate(45 123.447 0.648743)" fill="#F7F9FA" fill-opacity="0.2"/>
</g>
<path d="M22.4478 77.5837C22.4478 76.785 23.0952 76.1376 23.8938 76.1376H47.0303C47.8289 76.1376 48.4763 76.785 48.4763 77.5837V92.044C48.4763 92.8426 47.8289 93.49 47.0303 93.49H23.8938C23.0952 93.49 22.4478 92.8426 22.4478 92.044V77.5837Z" fill="#916A00"/>
<path fill-rule="evenodd" clip-rule="evenodd" d="M28.2322 67.4615C27.4335 67.4615 26.7861 68.1089 26.7861 68.9075V99.178C26.7861 100.334 28.0747 101.022 29.0356 100.38L34.7575 96.5568C35.2596 96.2213 35.9174 96.2332 36.4071 96.5866L41.8463 100.512C42.8026 101.202 44.1385 100.519 44.1385 99.3394V68.9075C44.1385 68.1089 43.4911 67.4615 42.6925 67.4615H28.2322Z" fill="#BE8B00"/>
<circle cx="35.4612" cy="64.5693" r="23.1365" fill="#FFC72C"/>
<circle cx="35.4622" cy="64.5694" r="17.3524" fill="#BE8B00"/>
<path d="M34.1647 53.4595C34.6951 52.3847 36.2277 52.3847 36.7581 53.4595L39.3747 58.7613C39.5853 59.1881 39.9925 59.4839 40.4635 59.5524L46.3144 60.4026C47.5005 60.5749 47.9741 62.0325 47.1158 62.8691L42.8821 66.996C42.5412 67.3282 42.3857 67.8068 42.4662 68.2759L43.4656 74.1032C43.6682 75.2845 42.4284 76.1853 41.3675 75.6276L36.1343 72.8763C35.713 72.6548 35.2097 72.6548 34.7885 72.8763L29.5552 75.6276C28.4944 76.1853 27.2545 75.2845 27.4571 74.1032L28.4566 68.2759C28.537 67.8068 28.3815 67.3282 28.0407 66.996L23.8069 62.8691C22.9487 62.0325 23.4223 60.5749 24.6083 60.4026L30.4593 59.5524C30.9303 59.4839 31.3374 59.1881 31.548 58.7613L34.1647 53.4595Z" fill="white"/>
<mask id="mask1" style="mask-type:alpha" maskUnits="userSpaceOnUse" x="12" y="41" width="47" height="47">
<circle cx="35.4612" cy="64.5693" r="23.1365" fill="#BFCDD4"/>
</mask>
<g mask="url(#mask1)">
<rect x="62.7505" y="26.9725" width="13.2209" height="95.8513" transform="rotate(45 62.7505 26.9725)" fill="#F7F9FA" fill-opacity="0.2"/>
</g>
<path d="M122.255 117.928C122.875 118.286 123.088 119.079 122.73 119.7L120.135 124.194C119.777 124.814 118.984 125.027 118.363 124.669L113.869 122.074C113.249 121.716 113.036 120.922 113.394 120.302L115.989 115.808C116.347 115.187 117.141 114.975 117.761 115.333L122.255 117.928Z" fill="white"/>
<path d="M129.924 97.8803C130.282 97.2598 131.076 97.0472 131.696 97.4055L138.437 101.297C139.058 101.656 139.27 102.449 138.912 103.07L135.02 109.811C134.662 110.431 133.869 110.644 133.248 110.285L126.507 106.394C125.887 106.035 125.674 105.242 126.032 104.621L129.924 97.8803Z" fill="white"/>
<path d="M13.5098 6.78393C14.1303 7.14218 14.3429 7.93561 13.9847 8.55609L11.3901 13.0501C11.0318 13.6706 10.2384 13.8831 9.61793 13.5249L5.12401 10.9302C4.50353 10.572 4.29094 9.77853 4.64918 9.15804L7.24377 4.66407C7.60201 4.04358 8.39542 3.831 9.0159 4.18925L13.5098 6.78393Z" fill="white"/>
<path d="M24.9678 14.4583C25.5883 14.8166 25.8009 15.61 25.4427 16.2305L24.1454 18.4775C23.7871 19.098 22.9937 19.3105 22.3732 18.9523L20.1263 17.655C19.5058 17.2967 19.2932 16.5033 19.6514 15.8828L20.9487 13.6358C21.307 13.0153 22.1004 12.8027 22.7209 13.161L24.9678 14.4583Z" fill="white"/>
</svg>
