<svg width="16" height="17" viewBox="0 0 16 17" fill="none" xmlns="http://www.w3.org/2000/svg">
<path fill-rule="evenodd" clip-rule="evenodd" d="M8 16V14C4.68629 14 2 11.3137 2 8C2 4.68629 4.68629 2 8 2C11.3137 2 14 4.68629 14 8H16C16 3.58172 12.4183 0 8 0C3.58172 0 0 3.58172 0 8C0 12.4183 3.58172 16 8 16ZM4.50018 10.086L5.91528 11.5011L9.00125 8.4151V4H7V7.58615L4.50018 10.086ZM10.0012 16.005C10.5539 16.005 11.0019 15.557 11.0019 15.0044C11.0019 14.4517 10.5539 14.0037 10.0012 14.0037C9.44862 14.0037 9.00062 14.4517 9.00062 15.0044C9.00062 15.557 9.44862 16.005 10.0012 16.005ZM14.0037 13.0037C14.0037 13.5564 13.5558 14.0044 13.0031 14.0044C12.4505 14.0044 12.0025 13.5564 12.0025 13.0037C12.0025 12.4511 12.4505 12.0031 13.0031 12.0031C13.5558 12.0031 14.0037 12.4511 14.0037 13.0037Z" fill="#FFC72C"/>
</svg>