<?xml version="1.0" encoding="utf-8"?>
<!-- Generator: Adobe Illustrator 22.1.0, SVG Export Plug-In . SVG Version: 6.00 Build 0)  -->
<svg version="1.1" id="图层_1" xmlns="http://www.w3.org/2000/svg" xmlns:xlink="http://www.w3.org/1999/xlink" x="0px" y="0px"
	 viewBox="0 0 32 32" style="enable-background:new 0 0 32 32;" xml:space="preserve">
<style type="text/css">
	.st0{display:none;fill:#FFFFFF;}
	.st1{fill:#FFFFFF;}
</style>
<g>
	<defs>
		<rect id="SVGID_1_" x="-1413.2" y="-15.9" width="1680" height="1024"/>
	</defs>
	<clipPath id="SVGID_2_">
		<use xlink:href="#SVGID_1_"  style="overflow:visible;"/>
	</clipPath>
</g>
<rect x="-824" y="-494" class="st0" width="1680" height="1024"/>
<path class="st1" d="M21,19l6.6,6.6l-2,2L19,21V20l-0.4-0.4c-0.7,0.7-1.6,1.2-2.6,1.5c-1,0.4-2,0.5-3,0.5c-1.6,0-3-0.4-4.4-1.2
	c-1.3-0.8-2.4-1.8-3.2-3.1C4.7,16,4.3,14.6,4.3,13c0-1.6,0.4-3,1.2-4.4c0.8-1.3,1.8-2.4,3.2-3.2C10,4.7,11.5,4.3,13,4.3
	c1.6,0,3,0.4,4.4,1.2c1.3,0.8,2.3,1.8,3.1,3.1c0.8,1.3,1.1,2.8,1.1,4.4c0,1.1-0.2,2.1-0.5,3.1c-0.4,1-0.9,1.8-1.5,2.6L20,19H21z
	 M13,19c1.1,0,2.1-0.3,3-0.8c0.9-0.5,1.6-1.3,2.2-2.2c0.5-0.9,0.8-1.9,0.8-3c0-1.1-0.3-2.1-0.8-3C17.7,9.1,17,8.4,16,7.8
	C15.1,7.3,14.1,7,13,7s-2.1,0.3-3,0.8C9.1,8.4,8.4,9.1,7.8,10C7.3,10.9,7,11.9,7,13c0,1.1,0.3,2.1,0.8,3c0.5,0.9,1.3,1.6,2.2,2.2
	C10.9,18.8,12,19,13,19z M16.3,13.6h-2.7v2.7h-1.3v-2.7H9.6v-1.3h2.7V9.6h1.3v2.7h2.7V13.6z"/>
</svg>
