<svg width="58" height="73" viewBox="0 0 58 73" fill="none" xmlns="http://www.w3.org/2000/svg">
    <path d="M38.1093 46.7435L34.4116 50.0972L39.4766 55.9167L43.1743 52.5631L38.1093 46.7435Z" fill="#A0A0A0"
        stroke="black" stroke-width="0.75" stroke-linejoin="round" />
    <path
        d="M23.8143 55.7182C35.8725 55.7182 45.6475 45.7395 45.6475 33.4302C45.6475 21.1209 35.8725 11.1422 23.8143 11.1422C11.7562 11.1422 1.98108 21.1209 1.98108 33.4302C1.98108 45.7395 11.7562 55.7182 23.8143 55.7182Z"
        fill="#A0A0A0" stroke="black" stroke-width="0.75" stroke-linejoin="round" />
    <path
        d="M23.7494 51.768C33.6705 51.768 41.7131 43.5579 41.7131 33.4302C41.7131 23.3025 33.6705 15.0924 23.7494 15.0924C13.8284 15.0924 5.78577 23.3025 5.78577 33.4302C5.78577 43.5579 13.8284 51.768 23.7494 51.768Z"
        fill="#A7EDF5" stroke="black" stroke-width="0.75" stroke-miterlimit="10" />
    <path
        d="M39.5899 55.8095L43.0576 52.6644L56.4567 68.0596C56.6607 68.294 56.8172 68.5674 56.917 68.8639C57.0169 69.1605 57.0582 69.4743 57.0385 69.7872C57.0188 70.1001 56.9385 70.4059 56.8023 70.687C56.666 70.968 56.4766 71.2187 56.2448 71.4245C55.7842 71.8423 55.1798 72.0561 54.5647 72.019C53.9495 71.982 53.374 71.6969 52.9648 71.2267L39.5657 55.8314L39.5899 55.8095Z"
        fill="black" stroke="black" stroke-width="0.75" stroke-miterlimit="10" />
    <path
        d="M9.9146 21.6543C16.5366 22.4807 23.7982 24.0261 24.292 27.2573C24.6887 29.8109 20.56 31.5546 20.8434 34.0833C21.0943 36.3725 24.8911 39.0417 40.0699 41.0912C39.5415 42.2582 38.8958 43.366 38.1432 44.3968C37.4241 45.3907 36.6106 46.3097 35.7146 47.1405C17.7995 42.7192 12.6751 39.0665 12.7237 36.1907C12.7237 33.7115 16.6904 31.8851 16.0914 29.8935C15.4923 27.9019 11.0641 27.53 6.7655 27.5713C6.98867 26.6608 7.30618 25.777 7.71266 24.9351C8.28359 23.7363 9.02565 22.6307 9.9146 21.6543Z"
        fill="white" stroke="black" stroke-width="0.75" stroke-miterlimit="10" />
    <path
        d="M21.2564 54.9132C16.7595 54.314 13.2161 50.7643 12.6239 46.2528L12.3177 43.9215H12.2625L11.9563 46.2528C11.3591 50.7643 7.82074 54.3191 3.32377 54.9132L1 55.2204V55.2758L3.32377 55.5829C7.82074 56.1821 11.3641 59.7319 11.9563 64.2433L12.2625 66.5746H12.3177L12.6239 64.2433C13.2211 59.7319 16.7595 56.177 21.2564 55.5829L23.5802 55.2758V55.2204L21.2564 54.9132Z"
        fill="#DAEE32" stroke="#1E1E1C" stroke-width="0.75" stroke-miterlimit="10" />
    <path
        d="M50.4375 8.39098C47.4137 7.98808 45.031 5.60117 44.6328 2.56758L44.427 1H44.3898L44.184 2.56758C43.7824 5.60117 41.4031 7.99147 38.3793 8.39098L36.8168 8.59751V8.63475L38.3793 8.84128C41.4031 9.24418 43.7857 11.6311 44.184 14.6647L44.3898 16.2323H44.427L44.6328 14.6647C45.0344 11.6311 47.4137 9.24079 50.4375 8.84128L52 8.63475V8.59751L50.4375 8.39098Z"
        fill="#DAEE32" stroke="#1E1E1C" stroke-width="0.75" stroke-miterlimit="10" />
</svg>