<svg width="80" height="80" viewBox="0 0 80 80" fill="none" xmlns="http://www.w3.org/2000/svg">
<rect width="80" height="80" fill="white"/>
<path d="M16.1714 11V22.6636C16.1714 23.1655 16.0455 23.6595 15.8051 24.1001L10.7326 33.3997C10.2519 34.281 10 35.2689 10 36.2728V49.1429L11.516 66.3244C11.5339 66.5267 11.5311 66.7302 11.5079 66.9319L10.2572 77.7708C10.1202 78.9583 11.0486 80 12.244 80H20.2857V8H19.2571H19.1714C17.5146 8 16.1714 9.34315 16.1714 11Z" fill="#8CACF6"/>
<path d="M24.3999 11V22.6636C24.3999 23.1655 24.5258 23.6595 24.7662 24.1001L29.8387 33.3997C30.3194 34.281 30.5713 35.2689 30.5713 36.2728V49.1429L29.0553 66.3244C29.0374 66.5267 29.0402 66.7302 29.0634 66.9319L30.3141 77.7708C30.4511 78.9583 29.5226 80 28.3272 80H20.2856V8H21.3141H21.3999C23.0567 8 24.3999 9.34315 24.3999 11Z" fill="#8CACF6"/>
<rect x="15.1426" y="8" width="10.2857" height="3.08571" rx="1" fill="#376EEE"/>
<rect x="13.0859" y="35.7715" width="17.4857" height="13.3714" fill="#C3D4FA"/>
<path d="M43 32C43 31.4477 43.4477 31 44 31H62C62.5523 31 63 31.4477 63 32V36H43V32Z" fill="#C3D4FA"/>
<path d="M50 44H70V79C70 79.5523 69.5523 80 69 80H50V44Z" fill="#C3D4FA"/>
<path d="M36 44L43 36L50 44V80H37C36.4477 80 36 79.5523 36 79V44Z" fill="#8CACF6"/>
<path d="M50 44L43 36H63L70 44H50Z" fill="#DDE8FF"/>
<ellipse cx="60" cy="62" rx="7" ry="9" fill="#E7EEFD"/>
</svg>
