<svg width="80" height="80" viewBox="0 0 80 80" fill="none" xmlns="http://www.w3.org/2000/svg">
<rect width="80" height="80" fill="white"/>
<path d="M18 32.0653C18 31.3606 18.1241 30.6614 18.3667 29.9998L22.0574 19.9345C22.9239 17.5712 25.1735 16 27.6906 16H40L52.3094 16C54.8265 16 57.0761 17.5712 57.9426 19.9345L61.6333 29.9998C61.8759 30.6614 62 31.3606 62 32.0653V74C62 77.3137 59.3137 80 56 80H24C20.6863 80 18 77.3137 18 74V32.0653Z" fill="#C3D4FA"/>
<rect x="24" y="38" width="38" height="30" fill="#E7EEFD"/>
<rect x="26" y="8" width="28" height="8" rx="1" fill="#8CACF6"/>
<rect x="28" y="8" width="1" height="8" fill="#376EEE"/>
<rect x="37" y="8" width="1" height="8" fill="#376EEE"/>
<rect x="46" y="8" width="1" height="8" fill="#376EEE"/>
<rect x="31" y="8" width="1" height="8" fill="#376EEE"/>
<rect x="40" y="8" width="1" height="8" fill="#376EEE"/>
<rect x="49" y="8" width="1" height="8" fill="#376EEE"/>
<rect x="34" y="8" width="1" height="8" fill="#376EEE"/>
<rect x="43" y="8" width="1" height="8" fill="#376EEE"/>
<rect x="52" y="8" width="1" height="8" fill="#376EEE"/>
<circle cx="46" cy="53" r="11" fill="#8CACF6"/>
<g clip-path="url(#clip0)">
<rect width="80" height="80" fill="white"/>
<path d="M16.1714 11V22.6636C16.1714 23.1655 16.0455 23.6595 15.8051 24.1001L10.7326 33.3997C10.2519 34.281 10 35.2689 10 36.2728V49.1429L11.516 66.3244C11.5339 66.5267 11.5311 66.7302 11.5079 66.9319L10.2572 77.7708C10.1202 78.9583 11.0486 80 12.244 80H20.2857V8H19.2571H19.1714C17.5146 8 16.1714 9.34315 16.1714 11Z" fill="#8CACF6"/>
<path d="M24.3999 11V22.6636C24.3999 23.1655 24.5258 23.6595 24.7662 24.1001L29.8387 33.3997C30.3194 34.281 30.5713 35.2689 30.5713 36.2728V49.1429L29.0553 66.3244C29.0374 66.5267 29.0402 66.7302 29.0634 66.9319L30.3141 77.7708C30.4511 78.9583 29.5226 80 28.3272 80H20.2856V8H21.3141H21.3999C23.0567 8 24.3999 9.34315 24.3999 11Z" fill="#8CACF6"/>
<rect x="15.1426" y="8" width="10.2857" height="3.08571" rx="1" fill="#376EEE"/>
<rect x="13.0859" y="35.7715" width="17.4857" height="13.3714" fill="#C3D4FA"/>
<path d="M43 32C43 31.4477 43.4477 31 44 31H62C62.5523 31 63 31.4477 63 32V36H43V32Z" fill="#79D6FA"/>
<path d="M50 44H70V79C70 79.5523 69.5523 80 69 80H50V44Z" fill="#79D6FA"/>
<path d="M36 44L43 36L50 44V80H37C36.4477 80 36 79.5523 36 79V44Z" fill="#53A8D1"/>
<path d="M50 44L43 36H63L70 44H50Z" fill="#B5E4FA"/>
<ellipse cx="60" cy="62" rx="7" ry="9" fill="#E6F7FF"/>
<path fill-rule="evenodd" clip-rule="evenodd" d="M16.1714 22.6636V11C16.1714 9.34315 17.5146 8 19.1714 8H19.2571H20.2856H20.2857H21.3141H21.3999C23.0567 8 24.3999 9.34315 24.3999 11V22.6636C24.3999 23.1655 24.5258 23.6595 24.7662 24.1001L29.8387 33.3997C30.3194 34.281 30.5713 35.2689 30.5713 36.2728V49.1429L29.0553 66.3244C29.0374 66.5267 29.0402 66.7302 29.0634 66.9319L30.3141 77.7708C30.4511 78.9583 29.5226 80 28.3272 80H20.2857H20.2856H12.244C11.0486 80 10.1202 78.9583 10.2572 77.7708L11.5079 66.9319C11.5311 66.7302 11.5339 66.5267 11.516 66.3244L10 49.1429V36.2728C10 35.2689 10.2519 34.281 10.7326 33.3997L15.8051 24.1001C16.0455 23.6595 16.1714 23.1655 16.1714 22.6636Z" fill="#F1ABB5"/>
<rect x="13.0859" y="35.7715" width="17.4857" height="13.3714" fill="#FADDE2"/>
<path fill-rule="evenodd" clip-rule="evenodd" d="M16.1714 22.6636V11C16.1714 9.34315 17.5146 8 19.1714 8H19.2571H20.2856H20.2857H21.3141H21.3999C23.0567 8 24.3999 9.34315 24.3999 11V22.6636C24.3999 23.1655 24.5258 23.6595 24.7662 24.1001L29.8387 33.3997C30.3194 34.281 30.5713 35.2689 30.5713 36.2728V49.1429L29.0553 66.3244C29.0374 66.5267 29.0402 66.7302 29.0634 66.9319L30.3141 77.7708C30.4511 78.9583 29.5226 80 28.3272 80H20.2857H20.2856H12.244C11.0486 80 10.1202 78.9583 10.2572 77.7708L11.5079 66.9319C11.5311 66.7302 11.5339 66.5267 11.516 66.3244L10 49.1429V36.2728C10 35.2689 10.2519 34.281 10.7326 33.3997L15.8051 24.1001C16.0455 23.6595 16.1714 23.1655 16.1714 22.6636Z" fill="url(#paint0_linear)"/>
<rect x="15.1426" y="8" width="10.2857" height="3.08571" rx="1" fill="#EC8998"/>
</g>
<defs>
<linearGradient id="paint0_linear" x1="7.42871" y1="44" x2="26.4287" y2="44" gradientUnits="userSpaceOnUse">
<stop stop-color="#E56175"/>
<stop offset="1" stop-color="#F1ABB5" stop-opacity="0"/>
</linearGradient>
<clipPath id="clip0">
<rect width="80" height="80" fill="white"/>
</clipPath>
</defs>
</svg>