<svg width="80" height="80" viewBox="0 0 80 80" fill="none" xmlns="http://www.w3.org/2000/svg">
<g clip-path="url(#clip0)">
<rect width="80" height="80" fill="white"/>
<rect x="26.3887" y="37.7092" width="18.4683" height="5.28372" rx="2.64186" transform="rotate(-21 26.3887 37.7092)" fill="#C3D4FA"/>
<rect x="26.3301" y="30.9971" width="10.6979" height="5.28372" rx="2.64186" transform="rotate(51.2608 26.3301 30.9971)" fill="#C3D4FA"/>
<rect x="17.7168" y="39.8254" width="17.7216" height="5.28372" rx="2.64186" transform="rotate(24.0469 17.7168 39.8254)" fill="#C3D4FA"/>
<rect x="10.2588" y="43.9463" width="10.6778" height="5.28371" rx="2.64186" transform="rotate(-23.5025 10.2588 43.9463)" fill="#C3D4FA"/>
<path d="M37.4178 35.3426L42.8497 32.0835L43.9361 50.5518L35.7883 52.1813L30.3564 47.8359L37.4178 35.3426Z" fill="#C3D4FA"/>
<circle cx="42.8497" cy="23.3924" r="7.60459" fill="#C3D4FA"/>
<path d="M36.332 59.2424H40.6775V62.5015H36.332V59.2424Z" fill="#376EEE"/>
<path d="M20.0361 59.2424H38.5044V63.5879H20.0361V59.2424Z" fill="#376EEE"/>
<path d="M14 70.1796C14 66.4685 16.8962 63.4023 20.6012 63.1909L51.6013 61.4222C55.6175 61.193 59 64.388 59 68.4108V73C59 76.866 55.866 80 52 80H21C17.134 80 14 76.866 14 73V70.1796Z" fill="#C3D4FA"/>
<rect x="58.7939" y="13.615" width="15.0232" height="66.0466" rx="7" transform="rotate(13 58.7939 13.615)" fill="#C3D4FA"/>
<path d="M46.3076 11.047C46.9156 9.78221 48.319 9.10783 49.6864 9.4235L54.1833 10.4617C55.7977 10.8344 56.8043 12.4453 56.4316 14.0597L53.5293 26.6308C53.4898 26.8021 53.4352 26.9696 53.3663 27.1313L43.393 50.5516L40.2692 29.578C39.827 26.609 40.2858 23.5756 41.5861 20.8702L46.3076 11.047Z" fill="#8CACF6"/>
<path fill-rule="evenodd" clip-rule="evenodd" d="M53.431 11.1154C51.5057 10.671 49.5847 11.8714 49.1402 13.7966L40.6547 50.5514H14.3457C12.6888 50.5514 11.3457 51.8945 11.3457 53.5514V57.3287C11.3457 58.9856 12.6889 60.3287 14.3457 60.3287H43.1095C44.3985 60.3287 45.4976 59.5158 45.9221 58.3747C46.1811 58.0072 46.3746 57.5844 46.482 57.1194L56.1122 15.4063C56.5567 13.481 55.3563 11.5599 53.431 11.1154Z" fill="#8CACF6"/>
<path d="M9.29925 54.1903C8.04377 50.4239 10.1687 46.3683 13.98 45.2567L19.053 43.7771C19.6905 43.5911 20.3718 43.622 20.9899 43.8648L35.2456 49.4653L31.6545 58.4431C31.1989 59.5821 30.0958 60.329 28.869 60.329H13.5078C12.2165 60.329 11.07 59.5027 10.6617 58.2777L9.29925 54.1903Z" fill="#8CACF6"/>
<path d="M39.8878 46.7966L41.2208 34.7993L43.9367 51.6381H33.6162L35.2458 49.4653H36.9061C38.4348 49.4653 39.719 48.3159 39.8878 46.7966Z" fill="#8CACF6"/>
</g>
<defs>
<clipPath id="clip0">
<rect width="80" height="80" fill="white"/>
</clipPath>
</defs>
</svg>
