<svg width="80" height="80" viewBox="0 0 80 80" fill="none" xmlns="http://www.w3.org/2000/svg">
<rect width="80" height="80" fill="white"/>
<path d="M18 32.0653C18 31.3606 18.1241 30.6614 18.3667 29.9998L22.0574 19.9345C22.9239 17.5712 25.1735 16 27.6906 16H40L52.3094 16C54.8265 16 57.0761 17.5712 57.9426 19.9345L61.6333 29.9998C61.8759 30.6614 62 31.3606 62 32.0653V74C62 77.3137 59.3137 80 56 80H24C20.6863 80 18 77.3137 18 74V32.0653Z" fill="#C3D4FA"/>
<rect x="24" y="38" width="38" height="30" fill="#E7EEFD"/>
<rect x="26" y="8" width="28" height="8" rx="1" fill="#8CACF6"/>
<rect x="28" y="8" width="1" height="8" fill="#376EEE"/>
<rect x="37" y="8" width="1" height="8" fill="#376EEE"/>
<rect x="46" y="8" width="1" height="8" fill="#376EEE"/>
<rect x="31" y="8" width="1" height="8" fill="#376EEE"/>
<rect x="40" y="8" width="1" height="8" fill="#376EEE"/>
<rect x="49" y="8" width="1" height="8" fill="#376EEE"/>
<rect x="34" y="8" width="1" height="8" fill="#376EEE"/>
<rect x="43" y="8" width="1" height="8" fill="#376EEE"/>
<rect x="52" y="8" width="1" height="8" fill="#376EEE"/>
<circle cx="46" cy="53" r="11" fill="#8CACF6"/>
<g clip-path="url(#clip0)">
<rect width="80" height="80" fill="white"/>
<rect x="26.8477" y="41.1787" width="17" height="4.86364" rx="2.43182" transform="rotate(-21 26.8477 41.1787)" fill="#C3D4FA"/>
<rect x="26.7939" y="35" width="9.84742" height="4.86364" rx="2.43182" transform="rotate(51.2608 26.7939 35)" fill="#C3D4FA"/>
<rect x="18.8652" y="43.127" width="16.3127" height="4.86364" rx="2.43182" transform="rotate(24.0469 18.8652 43.127)" fill="#C3D4FA"/>
<rect x="12" y="46.9199" width="9.82893" height="4.86364" rx="2.43182" transform="rotate(-23.5025 12 46.9199)" fill="#C3D4FA"/>
<path d="M37 39L42 36L43 53L35.5 54.5L30.5 50.5L37 39Z" fill="#C3D4FA"/>
<circle cx="42" cy="28" r="7" fill="#C3D4FA"/>
<path d="M36 61H40V64H36V61Z" fill="#376EEE"/>
<path d="M21 61H38V65H21V61Z" fill="#376EEE"/>
<path d="M15 71.0388C15 67.33 17.8927 64.2649 21.5953 64.0505L49.5953 62.4288C53.6137 62.1961 57 65.392 57 69.4171V73C57 76.866 53.866 80 50 80H22C18.134 80 15 76.866 15 73V71.0388Z" fill="#C3D4FA"/>
<rect x="56.6758" y="19" width="13.8288" height="60.7956" rx="6.91442" transform="rotate(13 56.6758 19)" fill="#C3D4FA"/>
<path d="M45.1001 16.8078C45.708 15.543 47.1115 14.8686 48.4788 15.1843L52.1999 16.0434C53.8143 16.4161 54.8208 18.027 54.4481 19.6414L51.835 30.9602C51.7954 31.1315 51.7409 31.299 51.672 31.4607L42.4998 52.9996L39.6783 34.0557C39.2361 31.0868 39.6949 28.0534 40.9953 25.3479L45.1001 16.8078Z" fill="#8CACF6"/>
<path fill-rule="evenodd" clip-rule="evenodd" d="M51.7394 16.6984C49.9672 16.2893 48.1988 17.3943 47.7897 19.1665L39.9788 52.9991H16C14.3431 52.9991 13 54.3422 13 55.9991V58.9991C13 60.6559 14.3431 61.9991 16 61.9991H42C43.1219 61.9991 44.1 61.3833 44.6146 60.4712C44.9604 60.076 45.2165 59.5923 45.3428 59.0449L54.2074 20.6481C54.6166 18.8759 53.5116 17.1076 51.7394 16.6984Z" fill="#8CACF6"/>
<path d="M11.2993 56.8978C10.0438 53.1313 12.1687 49.0758 15.98 47.9642L20.0165 46.7868C20.6541 46.6009 21.3354 46.6317 21.9535 46.8746L35 52L31.7543 60.1142C31.2987 61.2531 30.1956 62 28.9689 62H15.1623C13.871 62 12.7246 61.1737 12.3162 59.9487L11.2993 56.8978Z" fill="#8CACF6"/>
<path d="M39.2965 49.3313L40.5 38.5L43 54H33.5L35 52H36.3149C37.8435 52 39.1277 50.8506 39.2965 49.3313Z" fill="#8CACF6"/>
</g>
<rect width="80" height="80" fill="white"/>
<rect x="26.3887" y="37.71" width="18.4683" height="5.28372" rx="2.64186" transform="rotate(-21 26.3887 37.71)" fill="#1A4379"/>
<rect x="26.3301" y="30.9971" width="10.6979" height="5.28372" rx="2.64186" transform="rotate(51.2608 26.3301 30.9971)" fill="#1A4379"/>
<rect x="17.7168" y="39.8252" width="17.7216" height="5.28372" rx="2.64186" transform="rotate(24.0469 17.7168 39.8252)" fill="#1A4379"/>
<rect x="10.2588" y="43.9463" width="10.6778" height="5.28371" rx="2.64186" transform="rotate(-23.5025 10.2588 43.9463)" fill="#1A4379"/>
<path d="M37.4178 35.3431L42.8497 32.084L43.9361 50.5523L35.7883 52.1818L30.3564 47.8363L37.4178 35.3431Z" fill="#1A4379"/>
<circle cx="42.8497" cy="23.3927" r="7.60459" fill="#1A4379"/>
<path fill-rule="evenodd" clip-rule="evenodd" d="M36.332 59.2432H20.0361V63.5886H38.5044V62.5023H40.6775V59.2432H38.5044H36.332Z" fill="#006BA0"/>
<path fill-rule="evenodd" clip-rule="evenodd" d="M65.6145 15.1898C61.8476 14.3201 58.0889 16.6688 57.2193 20.4357L47.7055 61.6443L20.6012 63.1908C16.8962 63.4022 14 66.4683 14 70.1794V72.9999C14 76.8659 17.134 79.9999 21 79.9999H52C52.3076 79.9999 52.6106 79.98 52.9077 79.9415C56.2604 80.1477 59.3689 77.9091 60.1495 74.5278L71.8575 23.8152C72.7271 20.0483 70.3784 16.2896 66.6115 15.4199L65.6145 15.1898Z" fill="url(#paint0_linear)"/>
<path fill-rule="evenodd" clip-rule="evenodd" d="M49.686 9.42387C48.3187 9.1082 46.9152 9.78257 46.3073 11.0474L41.5858 20.8706C40.2854 23.576 39.8267 26.6094 40.2689 29.5783L41.1461 35.4683L39.8874 46.7965C39.7186 48.3158 38.4344 49.4652 36.9058 49.4652H35.2454L35.2451 49.4656L20.9896 43.8652C20.3714 43.6223 19.6902 43.5915 19.0526 43.7774L13.9797 45.2571C10.1683 46.3687 8.04342 50.4242 9.2989 54.1906L10.6614 58.278C11.0697 59.503 12.2161 60.3293 13.5074 60.3293H14.3061L14.3454 60.3296H43.1092C44.3982 60.3296 45.4973 59.5167 45.9218 58.3756C46.1807 58.0081 46.3743 57.5853 46.4816 57.1202L53.4713 26.8446C53.4931 26.7742 53.5124 26.703 53.5289 26.6312L56.4312 14.06C56.8039 12.4456 55.7974 10.8348 54.183 10.4621L49.686 9.42387Z" fill="url(#paint1_linear)"/>
<defs>
<linearGradient id="paint0_linear" x1="57.6444" y1="80.1957" x2="14.0381" y2="50.6361" gradientUnits="userSpaceOnUse">
<stop stop-color="#C4CDD5"/>
<stop offset="1" stop-color="#E7EEFD"/>
</linearGradient>
<linearGradient id="paint1_linear" x1="42.8793" y1="70.8133" x2="7.01486" y2="25.0004" gradientUnits="userSpaceOnUse">
<stop stop-color="#006BA0"/>
<stop offset="1" stop-color="#C4CDD5"/>
</linearGradient>
<clipPath id="clip0">
<rect width="80" height="80" fill="white"/>
</clipPath>
</defs>
</svg>
