<svg width="80" height="80" viewBox="0 0 80 80" fill="none" xmlns="http://www.w3.org/2000/svg">
<g clip-path="url(#clip0)">
<rect width="80" height="80" fill="white"/>
<rect x="18.2314" y="81.8271" width="13.103" height="32.7575" rx="6.5515" transform="rotate(-149 18.2314 81.8271)" fill="#8CACF6"/>
<path d="M20.4969 52.6157L15.4355 61.0393L26.667 67.7878L31.7284 59.3642C33.592 56.2628 32.5884 52.2378 29.4869 50.3742C26.3855 48.5107 22.3605 49.5142 20.4969 52.6157Z" fill="#E7EEFD"/>
<path fill-rule="evenodd" clip-rule="evenodd" d="M37.8001 25H64.2001V30H65C67.2091 30 69 31.7909 69 34V76C69 78.2091 67.2091 80 65 80H37C34.7909 80 33 78.2091 33 76V34C33 32.4087 33.6754 30.8921 34.8582 29.8276L37.8001 27.1799V25Z" fill="#8CACF6"/>
<path d="M67.1418 29.8276L63.9999 27V34H68.9999C69 32.4087 68.3246 30.8921 67.1418 29.8276Z" fill="#8CACF6"/>
<rect width="36" height="12" transform="matrix(-1 0 0 1 69 13)" fill="#E7EEFD"/>
<rect width="9" height="12" transform="matrix(-1 0 0 1 66 13)" fill="white"/>
<rect width="8" height="12" transform="matrix(-1 0 0 1 57 13)" fill="#E7EEFD"/>
<rect width="8" height="12" transform="matrix(-1 0 0 1 49 13)" fill="#C3D4FA"/>
<rect width="8" height="12" transform="matrix(-1 0 0 1 41 13)" fill="#ABC4FE"/>
<rect x="40" y="39" width="29" height="32" fill="#C3D4FA"/>
<path d="M47 48C47 46.8954 47.8954 46 49 46H69V50H49C47.8954 50 47 49.1046 47 48Z" fill="#376EEE"/>
</g>
<defs>
<clipPath id="clip0">
<rect width="80" height="80" fill="white"/>
</clipPath>
</defs>
</svg>
