<svg width="80" height="80" viewBox="0 0 80 80" fill="none" xmlns="http://www.w3.org/2000/svg">
<rect width="80" height="80" fill="white"/>
<path d="M58 24.2588C58 20.4618 56.6524 15.8562 55.679 13.1969C55.4548 12.5845 54.7067 12.3803 54.1961 12.7859C51.485 14.9397 49.3564 17.1111 48.3202 18.2806C48.0975 18.5319 47.7687 18.6634 47.4346 18.6308C44.2166 18.3171 41.5593 18.4511 40.1917 18.6074C39.8317 18.6486 39.4718 18.51 39.2413 18.2306C36.4797 14.883 34.2463 13.341 33.0305 12.7891C32.6457 12.6144 32.2199 12.7969 32.0232 13.171C30.5448 15.9823 29.5818 20.272 29.5818 26.4877C29.5818 31.3013 31.9881 35.2726 33.5528 37.1025C33.8326 37.4296 33.9105 37.8948 33.708 38.2746C31.6373 42.1584 29.9433 42.9266 26.2385 48.2193C22.3379 53.7915 19.5518 56.5776 18.9946 63.8215C18.4374 71.0653 20.5 77 26.2385 79C31.3231 80.7721 33.2301 79.299 35.4076 78.5526C35.8896 78.3874 36.4118 78.6864 36.7992 79.0174C37.3681 79.5035 38.4185 79.9808 40.169 79.9808C41.1831 79.9808 41.9623 79.8206 42.549 79.5913C43.324 79.2884 44.9456 79.1636 45.7161 79.4779C46.4223 79.7661 47.3531 79.9808 48.5273 79.9808C51.8706 79.9808 51.8706 77.1947 51.3134 75.5231C50.7561 73.8514 51.3134 69.3937 52.4278 62.707C53.2975 57.4889 53.5309 44.7771 53.5418 38.6396C53.5423 38.3513 53.6689 38.081 53.8802 37.8847C58 34.0568 58 29.6865 58 24.2588Z" fill="#8CACF6"/>
<path d="M3 77.9306C3 76.8434 3.84137 75.9416 4.926 75.8663L39 73.5V80H5.06936C3.92649 80 3 79.0735 3 77.9306Z" fill="#8CACF6"/>
<path d="M43.1844 32.9885C43.8307 32.892 44.4576 32.9238 44.9532 32.997C45.3209 33.0513 45.432 33.4836 45.1691 33.7464L44.4231 34.4924C44.2278 34.6877 43.9113 34.6877 43.716 34.4924L42.97 33.7464C42.7071 33.4836 42.8167 33.0434 43.1844 32.9885Z" fill="#C3D4FA"/>
<path d="M48.3533 26.6312L47.1207 28.216C46.336 29.2249 46.4387 30.6632 47.3587 31.5504L47.9495 32.1201C49.1765 33.3033 51.1417 33.2277 52.2741 31.9536L52.8846 31.2669C53.895 30.1302 53.895 28.4173 52.8846 27.2807L52.1952 26.5051C51.1568 25.3369 49.3129 25.3974 48.3533 26.6312Z" fill="#E7EEFD"/>
<ellipse rx="1.67166" ry="2.22888" transform="matrix(-1 0 0 1 49.6418 29.8309)" fill="#8CACF6"/>
<path d="M39.7854 26.6312L41.018 28.216C41.8027 29.2249 41.7 30.6632 40.7799 31.5504L40.1892 32.1201C38.9621 33.3033 36.997 33.2277 35.8645 31.9536L35.2541 31.2669C34.2437 30.1302 34.2437 28.4173 35.2541 27.2807L35.9435 26.5051C36.9819 25.3369 38.8257 25.3974 39.7854 26.6312Z" fill="#E7EEFD"/>
<ellipse cx="38.4969" cy="29.8309" rx="1.67166" ry="2.22888" fill="#8CACF6"/>
<ellipse cx="49" cy="70.6666" rx="3" ry="2.33333" fill="#376EEE"/>
<ellipse cx="52" cy="69.889" rx="3" ry="2.33333" fill="#376EEE"/>
<ellipse cx="55" cy="69.889" rx="3" ry="2.33333" fill="#376EEE"/>
<ellipse cx="59" cy="69.889" rx="3" ry="2.33333" fill="#376EEE"/>
<ellipse cx="55.5" cy="68.7223" rx="2.5" ry="1.94444" fill="#376EEE"/>
<ellipse cx="58.5" cy="67.9444" rx="2.5" ry="1.94444" fill="#376EEE"/>
<ellipse cx="62.5" cy="69.5001" rx="3.5" ry="2.72222" fill="#376EEE"/>
<ellipse cx="67" cy="70.6666" rx="3" ry="2.33333" fill="#376EEE"/>
<path d="M41.1448 72.8506C41.6524 71.1587 43.2097 70 44.9761 70H71.0239C72.7903 70 74.3476 71.1587 74.8552 72.8506L77 80H39L41.1448 72.8506Z" fill="#C3D4FA"/>
</svg>
