<svg width="56" height="56" viewBox="0 0 56 56" fill="none" xmlns="http://www.w3.org/2000/svg">
<circle cx="28" cy="28" r="28" fill="#F8FAFB"/>
<path d="M36.7573 15.9638C36.7573 14.3866 36.2794 12.5226 35.8449 11.2061C35.6405 10.5868 34.8947 10.3808 34.3954 10.8003C33.4578 11.5883 32.7014 12.3433 32.2337 12.8505C32.006 13.0973 31.6772 13.2289 31.3426 13.201C30.1064 13.0981 29.0614 13.129 28.394 13.185C28.033 13.2153 27.6726 13.0755 27.4374 12.8C26.3942 11.5777 25.5192 10.8937 24.9306 10.5513C24.5653 10.3387 24.1367 10.5103 23.9602 10.8943C23.332 12.2602 22.9321 14.2542 22.9321 17.0482C22.9321 19.1621 23.886 20.9421 24.6316 21.9233C24.892 22.2661 24.9749 22.7329 24.7603 23.1061C23.83 24.7244 23.0001 25.1996 21.3056 27.6204C19.408 30.3312 18.0526 31.6867 17.7815 35.2107C17.5104 38.7348 18.5139 41.622 21.3056 42.595C23.4425 43.3398 24.4257 42.9063 25.3368 42.5404C25.8096 42.3505 26.3676 42.6359 26.8327 42.8441C27.127 42.9758 27.5342 43.0722 28.0827 43.0722C28.1269 43.0722 28.1702 43.0715 28.2126 43.0703C29.0444 43.0464 30.9717 42.9931 31.8013 43.0587C31.9119 43.0675 32.0277 43.0722 32.1489 43.0722C33.7754 43.0722 33.7754 41.7167 33.5043 40.9035C33.2332 40.0902 33.5043 37.9216 34.0465 34.6686C34.4589 32.1942 34.5772 26.2561 34.5878 23.1924C34.5888 22.904 34.7166 22.6344 34.9212 22.4312C36.7573 20.6076 36.7573 18.5283 36.7573 15.9638Z" fill="#8CACF6"/>
<path d="M10 42.0748C10 41.5459 10.4093 41.1071 10.937 41.0705L27.5137 39.9193V43.0815H11.0067C10.4507 43.0815 10 42.6308 10 42.0748Z" fill="#8CACF6"/>
<path d="M29.8654 20.1829C29.944 20.1805 30.0206 20.1813 30.0944 20.1847C30.4206 20.1994 30.5218 20.573 30.2908 20.8039C30.1193 20.9754 29.8411 20.9754 29.6696 20.8039C29.4387 20.573 29.539 20.193 29.8654 20.1829Z" fill="#C3D4FA"/>
<path d="M31.8998 17.329L31.5669 17.757C31.1269 18.3228 31.1845 19.1295 31.7004 19.627C32.3886 20.2906 33.4939 20.2446 34.129 19.5301C34.6985 18.8894 34.6915 17.9098 34.122 17.2691C33.5244 16.5968 32.4521 16.619 31.8998 17.329Z" fill="#E7EEFD"/>
<ellipse rx="0.81325" ry="1.08433" transform="matrix(-1 0 0 1 32.6911 18.6744)" fill="#8CACF6"/>
<path d="M28.0606 17.329L28.3935 17.757C28.8336 18.3228 28.776 19.1295 28.26 19.627C27.5719 20.2906 26.4666 20.2446 25.8315 19.5301C25.262 18.8894 25.2689 17.9098 25.8385 17.2691C26.4361 16.5968 27.5084 16.619 28.0606 17.329Z" fill="#E7EEFD"/>
<ellipse cx="27.2693" cy="18.6744" rx="0.81325" ry="1.08433" fill="#8CACF6"/>
<ellipse cx="32.3779" cy="38.5405" rx="1.45948" ry="1.13515" fill="#376EEE"/>
<ellipse cx="33.8369" cy="38.162" rx="1.45948" ry="1.13515" fill="#376EEE"/>
<ellipse cx="35.2969" cy="38.162" rx="1.45948" ry="1.13515" fill="#376EEE"/>
<ellipse cx="37.2432" cy="38.162" rx="1.45948" ry="1.13515" fill="#376EEE"/>
<ellipse cx="35.54" cy="37.5946" rx="1.21623" ry="0.945958" fill="#376EEE"/>
<ellipse cx="36.9999" cy="37.2162" rx="1.21623" ry="0.945958" fill="#376EEE"/>
<ellipse cx="38.9454" cy="37.973" rx="1.70272" ry="1.32434" fill="#376EEE"/>
<ellipse cx="41.1348" cy="38.5405" rx="1.45948" ry="1.13515" fill="#376EEE"/>
<path d="M28.1175 41.0669C28.6251 39.375 30.1824 38.2163 31.9488 38.2163H41.5643C43.3307 38.2163 44.888 39.375 45.3956 41.0669L45.9999 43.0812H27.5132L28.1175 41.0669Z" fill="#C3D4FA"/>
</svg>
