<svg width="45" height="80" viewBox="0 0 45 80" fill="none" xmlns="http://www.w3.org/2000/svg">
<path fill-rule="evenodd" clip-rule="evenodd" d="M7.56616 54.5859L10.8811 80.0001H31.6542L34.7482 54.5859H7.56616Z" fill="#C3D4FA"/>
<path fill-rule="evenodd" clip-rule="evenodd" d="M2.92209 49.5018L5.13187 56.1316H36.8814L38.9437 49.5018H2.92209Z" fill="#E7EEFD"/>
<path fill-rule="evenodd" clip-rule="evenodd" d="M0 41.3264C0 41.3264 3.53584 38.4534 4.86189 39.5585C6.18794 40.6636 10.3866 49.5032 10.3866 49.5032H15.4694C15.4694 49.5032 6.40888 28.7301 0 41.3264Z" fill="#8CACF6"/>
<path fill-rule="evenodd" clip-rule="evenodd" d="M24.5312 49.5032C24.5312 49.5032 33.8126 37.5697 43.0946 35.8018C43.0946 35.8018 39.3378 44.1995 30.2768 49.5032H24.5312Z" fill="#8CACF6"/>
<path fill-rule="evenodd" clip-rule="evenodd" d="M8.0351 13.9235C8.0351 13.9235 5.5989 36.4645 14.5942 49.5032H18.3418C18.3418 49.5032 13.8446 27.1831 8.0351 13.9235Z" fill="#8CACF6"/>
<path fill-rule="evenodd" clip-rule="evenodd" d="M15.1488 0C15.1488 0 13.6019 35.1379 18.0219 49.5022H22.331C22.331 49.5022 26.8615 23.4253 15.1488 0Z" fill="#8CACF6"/>
<path fill-rule="evenodd" clip-rule="evenodd" d="M21.5472 49.5031C26.7949 33.8365 26.2987 10.3874 44.862 1.54785C33.364 13.1441 41.5471 29.3927 24.5307 49.5031H21.5472Z" fill="#8CACF6"/>
</svg>
