<svg width="56" height="56" viewBox="0 0 56 56" fill="none" xmlns="http://www.w3.org/2000/svg">
<circle cx="28" cy="28" r="28" fill="#F8FAFB"/>
<path fill-rule="evenodd" clip-rule="evenodd" d="M10.3212 32.9127C10.1438 33.1243 10.1716 33.4397 10.3832 33.6171L10.8941 34.0454C11.1057 34.2228 11.4211 34.1951 11.5985 33.9834L11.6698 33.8983C11.8472 33.6867 11.8195 33.3713 11.6079 33.1939L11.097 32.7656C10.8854 32.5882 10.57 32.616 10.3926 32.8276L10.3212 32.9127ZM10.7482 32.8358L10.3913 33.2615L11.0299 33.7969L11.3868 33.3711L10.7482 32.8358Z" fill="#376EEE"/>
<path d="M20.019 18.0382C20.328 16.0961 22.0028 14.6666 23.9693 14.6666H32.697C34.6635 14.6666 36.3384 16.0961 36.6473 18.0382L39.2635 34.4826C39.65 36.9119 37.773 39.1111 35.3132 39.1111H21.3532C18.8934 39.1111 17.0164 36.9119 17.4028 34.4826L20.019 18.0382Z" fill="#C3D4FA"/>
<path d="M23.8887 12C23.8887 9.79086 25.6795 8 27.8887 8H28.7776C30.9867 8 32.7776 9.79086 32.7776 12V12.5556C32.7776 13.1078 32.3298 13.5556 31.7776 13.5556H24.8887C24.3364 13.5556 23.8887 13.1078 23.8887 12.5556V12Z" fill="#C3D4FA"/>
<rect x="29.4443" y="13.5555" width="0.555556" height="1.11111" fill="#C3D4FA"/>
<rect x="26.6665" y="13.5555" width="0.555556" height="1.11111" fill="#C3D4FA"/>
<path fill-rule="evenodd" clip-rule="evenodd" d="M22.8658 32.3496L24.3565 33.095C24.2104 33.3872 23.7024 34.1115 22.9497 34.8772C22.1834 35.6566 21.0981 36.5472 19.765 37.1026C16.0863 38.6354 13.3638 36.4025 11.8978 35.2001C11.8279 35.1428 11.7609 35.0878 11.6968 35.0357L12.7478 33.7422C12.7893 33.7759 12.8311 33.81 12.8733 33.8443C14.4091 35.0948 16.3866 36.7048 19.124 35.5642C20.183 35.1229 21.0885 34.393 21.7612 33.7088C22.0947 33.3695 22.363 33.0496 22.5562 32.7967C22.6528 32.6703 22.7288 32.5629 22.7838 32.4806C22.8422 32.3929 22.865 32.351 22.8658 32.3496Z" fill="#8CACF6"/>
<path fill-rule="evenodd" clip-rule="evenodd" d="M23.7583 30.8602L34.2683 15.2526C34.5274 14.8679 35.0508 14.7688 35.4326 15.0321C35.8085 15.2913 35.9057 15.8048 35.6507 16.1835L25.1303 31.8064L23.7583 30.8602Z" fill="#8CACF6"/>
<path d="M24.4443 30.7778C35.2777 34.3889 35.611 37.8889 41.3888 40.7778" stroke="#8CACF6" stroke-width="1.75"/>
<path d="M14.4443 41.4815C14.4443 40.1723 15.5056 39.1111 16.8147 39.1111H39.8517C41.1609 39.1111 42.2221 40.1723 42.2221 41.4815C42.2221 45.0815 39.3037 48 35.7036 48H20.9629C17.3628 48 14.4443 45.0815 14.4443 41.4815Z" fill="#E7EEFD"/>
<rect x="21.6665" y="32.848" width="3.33333" height="2.77778" rx="1" transform="rotate(-51.9751 21.6665 32.848)" fill="#376EEE"/>
<path d="M24.0277 31.2926C23.8101 31.1225 23.7717 30.8083 23.9418 30.5907L24.0365 30.4696L25.608 31.6985L25.5133 31.8196C25.3432 32.0372 25.0289 32.0756 24.8114 31.9055L24.0277 31.2926Z" fill="#E7EEFD"/>
<path d="M11.3696 34.5611C11.2339 34.381 11.2356 34.1324 11.3737 33.9541L11.5861 33.6798C11.7242 33.5016 11.9645 33.4378 12.1729 33.5241L12.7955 33.7822L11.7752 35.0995L11.3696 34.5611Z" fill="#8CACF6"/>
</svg>
