<svg width="80" height="80" viewBox="0 0 80 80" fill="none" xmlns="http://www.w3.org/2000/svg">
<rect width="80" height="80" fill="white"/>
<path d="M56.7427 11V22.6636C56.7427 23.1655 56.6168 23.6595 56.3764 24.1001L51.3039 33.3997C50.8232 34.281 50.5713 35.2689 50.5713 36.2728V49.1429L52.0873 66.3244C52.1052 66.5267 52.1024 66.7302 52.0791 66.9319L50.8285 77.7708C50.6915 78.9583 51.6199 80 52.8153 80H60.857V8H59.8284H59.7427C58.0859 8 56.7427 9.34315 56.7427 11Z" fill="#2FB7EC"/>
<path d="M64.9711 11V22.6636C64.9711 23.1655 65.0971 23.6595 65.3375 24.1001L70.41 33.3997C70.8907 34.281 71.1426 35.2689 71.1426 36.2728V49.1429L69.6266 66.3244C69.6087 66.5267 69.6114 66.7302 69.6347 66.9319L70.8854 77.7708C71.0224 78.9583 70.0939 80 68.8985 80H60.8569V8H61.8854H61.9712C63.628 8 64.9711 9.34315 64.9711 11Z" fill="#2FB7EC"/>
<rect x="55.7139" y="8" width="10.2857" height="3.08571" rx="1" fill="#006BA0"/>
<rect x="53.6572" y="35.7715" width="17.4857" height="13.3714" fill="#C3D4FA"/>
<path d="M18.1426 40H45.5712L44.9997 48L44.4283 58.2857L45.5712 68.5714V80H18.1426V40Z" fill="#2FB7EC"/>
<path d="M9 40H45.5714L45 45.1429L42.3208 56.9314C42.2029 57.45 42.1686 57.9841 42.219 58.5135L43.1767 68.5694C43.249 69.3288 43.4295 70.0739 43.7128 70.7821L45.2138 74.5345C45.4501 75.1251 45.5714 75.7554 45.5714 76.3915V80H9V75.4286L11.1769 60.4622C11.249 59.9664 11.2462 59.4626 11.1686 58.9676L9 45.1429V40Z" fill="#E7EEFD"/>
<rect x="14.7139" y="54.8574" width="25.1429" height="17.1429" fill="#C3D4FA"/>
<circle cx="27.2859" cy="54.8571" r="6.85714" fill="white"/>
<rect width="80" height="80" fill="white"/>
<path fill-rule="evenodd" clip-rule="evenodd" d="M7.32121 53.15C7.14381 53.3617 7.17155 53.677 7.38317 53.8544L8.91587 55.1393C9.12749 55.3167 9.44286 55.2889 9.62026 55.0773L10.2627 54.311C10.4401 54.0993 10.4123 53.784 10.2007 53.6066L8.66802 52.3217C8.4564 52.1443 8.14104 52.1721 7.96364 52.3837L7.32121 53.15ZM8.34681 52.7049L7.70439 53.4712L8.85391 54.4349L9.49633 53.6685L8.34681 52.7049Z" fill="#006BA0"/>
<path d="M25.4636 23.3715C25.7726 21.4294 27.4474 20 29.4139 20H50.5861C52.5526 20 54.2274 21.4294 54.5364 23.3715L60.2637 59.3715C60.6501 61.8008 58.7731 64 56.3133 64H23.6867C21.2269 64 19.3499 61.8008 19.7363 59.3715L25.4636 23.3715Z" fill="url(#paint0_linear)"/>
<path d="M32 12C32 9.79086 33.7909 8 36 8H44C46.2091 8 48 9.79086 48 12V17C48 17.5523 47.5523 18 47 18H33C32.4477 18 32 17.5523 32 17V12Z" fill="url(#paint1_linear)"/>
<rect x="42" y="18" width="1" height="2" fill="url(#paint2_linear)"/>
<rect x="37" y="18" width="1" height="2" fill="url(#paint3_linear)"/>
<path fill-rule="evenodd" clip-rule="evenodd" d="M30.1589 51.8291L32.8422 53.1707C32.5792 53.6967 31.6648 55.0005 30.31 56.3787C28.9307 57.7818 26.9771 59.3847 24.5775 60.3845C17.9558 63.1436 13.0553 59.1243 10.4165 56.96C10.2908 56.8568 10.1701 56.7579 10.0547 56.6641L11.9465 54.3358C12.0212 54.3965 12.0965 54.4578 12.1725 54.5196C14.9369 56.7704 18.4963 59.6684 23.4237 57.6153C25.33 56.821 26.9598 55.5073 28.1706 54.2756C28.771 53.6649 29.2539 53.089 29.6017 52.6339C29.7755 52.4063 29.9124 52.213 30.0112 52.0648C30.1164 51.9071 30.1576 51.8316 30.1589 51.8291Z" fill="#2FB7EC"/>
<path fill-rule="evenodd" clip-rule="evenodd" d="M31.7656 49.1485L50.9661 20.6356C51.277 20.1739 51.905 20.055 52.3633 20.371L53.1864 20.9387C53.6374 21.2497 53.7542 21.8659 53.4481 22.3204L34.2353 50.8517L31.7656 49.1485Z" fill="#2FB7EC"/>
<path d="M33 49C52.5 55.5 53.1 61.8 63.5 67" stroke="#2FB7EC" stroke-width="3"/>
<path d="M15 68C15 65.7909 16.7909 64 19 64H61C63.2091 64 65 65.7909 65 68V69C65 75.0751 60.0751 80 54 80H26C19.9249 80 15 75.0751 15 69V68Z" fill="url(#paint4_linear)"/>
<rect x="28" y="52.7266" width="6" height="5" rx="1" transform="rotate(-51.9751 28 52.7266)" fill="#006BA0"/>
<path d="M31.9349 49.6801C31.7174 49.51 31.6789 49.1957 31.849 48.9782L32.266 48.445L35.0947 50.657L34.6777 51.1902C34.5076 51.4077 34.1934 51.4462 33.9758 51.2761L31.9349 49.6801Z" fill="#E7EEFD"/>
<path d="M9.28104 55.5661C9.14536 55.386 9.14703 55.1374 9.28512 54.9591L10.0417 53.9823C10.1798 53.804 10.4202 53.7403 10.6285 53.8266L12.0315 54.4082L10.1949 56.7793L9.28104 55.5661Z" fill="#2FB7EC"/>
<defs>
<linearGradient id="paint0_linear" x1="40" y1="20" x2="40" y2="64" gradientUnits="userSpaceOnUse">
<stop stop-color="#E7EEFD"/>
<stop offset="1" stop-color="#D5DFE6"/>
</linearGradient>
<linearGradient id="paint1_linear" x1="40" y1="8" x2="40" y2="18" gradientUnits="userSpaceOnUse">
<stop stop-color="#E7EEFD"/>
<stop offset="1" stop-color="#D5DFE6"/>
</linearGradient>
<linearGradient id="paint2_linear" x1="42.5" y1="18" x2="42.5" y2="20" gradientUnits="userSpaceOnUse">
<stop stop-color="#E7EEFD"/>
<stop offset="1" stop-color="#D5DFE6"/>
</linearGradient>
<linearGradient id="paint3_linear" x1="37.5" y1="18" x2="37.5" y2="20" gradientUnits="userSpaceOnUse">
<stop stop-color="#E7EEFD"/>
<stop offset="1" stop-color="#D5DFE6"/>
</linearGradient>
<linearGradient id="paint4_linear" x1="40" y1="84" x2="40.1399" y2="69.2094" gradientUnits="userSpaceOnUse">
<stop stop-color="#C4CDD5"/>
<stop offset="1" stop-color="#E7EEFD"/>
</linearGradient>
</defs>
</svg>
