<svg width="56" height="56" viewBox="0 0 56 56" fill="none" xmlns="http://www.w3.org/2000/svg">
<circle cx="28" cy="28" r="28" fill="#F8FAFB"/>
<path d="M48.423 24.9329H45.9667H44.2778C43.7255 24.9329 43.2778 25.3806 43.2778 25.9329V32.4883C43.2778 33.0406 43.7255 33.4883 44.2778 33.4883H48.423C49.1563 33.4883 49.6402 32.7252 49.3275 32.0619L48.1844 29.637C48.0571 29.367 48.0571 29.0542 48.1843 28.7842L49.3275 26.3593C49.6402 25.696 49.1563 24.9329 48.423 24.9329Z" fill="url(#paint0_linear)"/>
<path d="M7.57702 24.9329H10.0333H11.7222C12.2745 24.9329 12.7222 25.3806 12.7222 25.9329V32.4883C12.7222 33.0406 12.2745 33.4883 11.7222 33.4883H7.57702C6.8437 33.4883 6.35979 32.7252 6.67249 32.0619L7.81565 29.637C7.94295 29.367 7.94295 29.0542 7.81565 28.7842L6.67249 26.3593C6.35979 25.696 6.8437 24.9329 7.57702 24.9329Z" fill="url(#paint1_linear)"/>
<path d="M27.6624 11.1018C27.8671 10.9661 28.1331 10.9661 28.3378 11.1018L29.4157 11.8165C29.5822 11.9269 29.7921 11.9489 29.9778 11.8756L31.1808 11.4006C31.4092 11.3104 31.6694 11.3657 31.8414 11.541L32.7472 12.4642C32.8871 12.6068 33.0878 12.672 33.2847 12.6389L34.5602 12.4244C34.8023 12.3837 35.0454 12.4919 35.1772 12.6991L35.8712 13.7904C35.9784 13.959 36.1611 14.0645 36.3607 14.073L37.6528 14.1284C37.8982 14.1389 38.1134 14.2953 38.1992 14.5254L38.6512 15.7372C38.721 15.9243 38.8778 16.0655 39.0712 16.1154L40.3236 16.4382C40.5614 16.4995 40.7394 16.6972 40.7755 16.9401L40.9657 18.2194C40.995 18.417 41.1191 18.5877 41.2979 18.6767L42.4558 19.2528C42.6757 19.3622 42.8087 19.5926 42.7935 19.8377L42.7135 21.1286C42.7011 21.3279 42.787 21.5207 42.9434 21.6449L43.9562 22.4492C44.1485 22.6019 44.2308 22.855 44.1649 23.0916L43.8183 24.3376C43.7648 24.53 43.8086 24.7364 43.9358 24.8904L44.7593 25.8877C44.9156 26.0771 44.9434 26.3417 44.8299 26.5594L44.2318 27.7061C44.1394 27.8832 44.1394 28.0943 44.2318 28.2714L44.8299 29.4181C44.9434 29.6358 44.9156 29.9004 44.7593 30.0898L43.9358 31.0871C43.8086 31.2411 43.7648 31.4475 43.8183 31.6399L44.1649 32.8859C44.2308 33.1225 44.1485 33.3756 43.9562 33.5283L42.9434 34.3326C42.787 34.4568 42.7011 34.6496 42.7135 34.8489L42.7935 36.1398C42.8087 36.3849 42.6757 36.6153 42.4558 36.7247L41.2979 37.3008C41.1191 37.3898 40.995 37.5605 40.9657 37.7581L40.7755 39.0374C40.7394 39.2803 40.5614 39.478 40.3236 39.5393L39.0712 39.8621C38.8778 39.912 38.721 40.0532 38.6512 40.2403L38.1992 41.4521C38.1134 41.6822 37.8982 41.8386 37.6528 41.8491L36.3607 41.9045C36.1611 41.913 35.9784 42.0185 35.8712 42.1871L35.1772 43.2784C35.0454 43.4856 34.8023 43.5938 34.5602 43.5531L33.2847 43.3386C33.0878 43.3055 32.8871 43.3707 32.7472 43.5133L31.8414 44.4365C31.6694 44.6118 31.4092 44.6671 31.1808 44.5769L29.9778 44.1019C29.7921 44.0286 29.5822 44.0506 29.4157 44.161L28.3378 44.8757C28.1331 45.0114 27.8671 45.0114 27.6624 44.8757L26.5845 44.161C26.418 44.0506 26.2082 44.0286 26.0224 44.1019L24.8194 44.5769C24.591 44.6671 24.3308 44.6118 24.1588 44.4365L23.253 43.5133C23.1132 43.3707 22.9124 43.3055 22.7155 43.3386L21.4401 43.5531C21.1979 43.5938 20.9548 43.4856 20.8231 43.2784L20.129 42.1871C20.0219 42.0185 19.8391 41.913 19.6395 41.9045L18.3474 41.8491C18.102 41.8386 17.8868 41.6822 17.801 41.4521L17.3491 40.2403C17.2793 40.0532 17.1224 39.912 16.929 39.8621L15.6766 39.5393C15.4388 39.478 15.2608 39.2803 15.2247 39.0374L15.0346 37.7581C15.0052 37.5605 14.8811 37.3898 14.7023 37.3008L13.5444 36.7247C13.3246 36.6153 13.1915 36.3849 13.2067 36.1398L13.2867 34.8489C13.2991 34.6496 13.2132 34.4568 13.0568 34.3326L12.044 33.5283C11.8517 33.3756 11.7695 33.1225 11.8353 32.8859L12.1819 31.6399C12.2355 31.4475 12.1916 31.2411 12.0644 31.0871L11.241 30.0898C11.0846 29.9004 11.0568 29.6358 11.1704 29.4181L11.7685 28.2714C11.8608 28.0943 11.8608 27.8832 11.7685 27.7061L11.1704 26.5594C11.0568 26.3417 11.0846 26.0771 11.241 25.8877L12.0644 24.8904C12.1916 24.7364 12.2355 24.53 12.1819 24.3376L11.8353 23.0916C11.7695 22.855 11.8517 22.6019 12.044 22.4492L13.0568 21.6449C13.2132 21.5207 13.2991 21.3279 13.2867 21.1286L13.2067 19.8377C13.1915 19.5926 13.3246 19.3622 13.5444 19.2528L14.7023 18.6767C14.8811 18.5877 15.0052 18.417 15.0346 18.2194L15.2247 16.9401C15.2608 16.6972 15.4388 16.4995 15.6766 16.4382L16.929 16.1154C17.1224 16.0655 17.2793 15.9243 17.3491 15.7372L17.801 14.5254C17.8868 14.2953 18.102 14.1389 18.3474 14.1284L19.6395 14.073C19.8391 14.0645 20.0219 13.959 20.129 13.7904L20.8231 12.6991C20.9548 12.4919 21.1979 12.3837 21.4401 12.4244L22.7155 12.6389C22.9124 12.672 23.1132 12.6068 23.253 12.4642L24.1588 11.541C24.3308 11.3657 24.591 11.3104 24.8194 11.4006L26.0224 11.8756C26.2082 11.9489 26.418 11.9269 26.5845 11.8165L27.6624 11.1018Z" fill="#8CACF6"/>
<path fill-rule="evenodd" clip-rule="evenodd" d="M28.0005 42.3494C35.9318 42.3494 42.3614 35.9198 42.3614 27.9885C42.3614 20.0572 35.9318 13.6276 28.0005 13.6276C20.0691 13.6276 13.6395 20.0572 13.6395 27.9885C13.6395 35.9198 20.0691 42.3494 28.0005 42.3494ZM28.0005 42.655C36.1005 42.655 42.6669 36.0886 42.6669 27.9885C42.6669 19.8884 36.1005 13.322 28.0005 13.322C19.9004 13.322 13.334 19.8884 13.334 27.9885C13.334 36.0886 19.9004 42.655 28.0005 42.655Z" fill="#376EEE"/>
<path fill-rule="evenodd" clip-rule="evenodd" d="M27.9998 37.4607C33.2311 37.4607 37.4719 33.2199 37.4719 27.9886C37.4719 22.7573 33.2311 18.5165 27.9998 18.5165C22.7685 18.5165 18.5277 22.7573 18.5277 27.9886C18.5277 33.2199 22.7685 37.4607 27.9998 37.4607ZM27.9998 37.7662C33.3999 37.7662 37.7775 33.3886 37.7775 27.9886C37.7775 22.5885 33.3999 18.2109 27.9998 18.2109C22.5998 18.2109 18.2222 22.5885 18.2222 27.9886C18.2222 33.3886 22.5998 37.7662 27.9998 37.7662Z" fill="#376EEE"/>
<rect x="10.2783" y="23.7109" width="35.444" height="8.55544" rx="1" fill="#C3D4FA"/>
<path d="M28.0002 24.9329L28.9197 26.7227L30.9062 27.0442L29.4881 28.4718L29.7962 30.4603L28.0002 29.5528L26.2042 30.4603L26.5123 28.4718L25.0942 27.0442L27.0807 26.7227L28.0002 24.9329Z" fill="white"/>
<path d="M36.5551 26.1555L37.1068 27.2294L38.2987 27.4223L37.4478 28.2789L37.6327 29.472L36.5551 28.9275L35.4775 29.472L35.6624 28.2789L34.8115 27.4223L36.0034 27.2294L36.5551 26.1555Z" fill="white"/>
<path d="M19.4443 26.1555L19.996 27.2294L21.1878 27.4223L20.337 28.2789L20.5219 29.472L19.4443 28.9275L18.3667 29.472L18.5516 28.2789L17.7007 27.4223L18.8925 27.2294L19.4443 26.1555Z" fill="white"/>
<defs>
<linearGradient id="paint0_linear" x1="41.139" y1="24.0162" x2="49.2869" y2="27.8627" gradientUnits="userSpaceOnUse">
<stop stop-color="#376EEE"/>
<stop offset="1" stop-color="#C3D4FA"/>
</linearGradient>
<linearGradient id="paint1_linear" x1="14.861" y1="24.0162" x2="6.71313" y2="27.8627" gradientUnits="userSpaceOnUse">
<stop stop-color="#376EEE"/>
<stop offset="1" stop-color="#C3D4FA"/>
</linearGradient>
</defs>
</svg>
