<svg width="122" height="112" viewBox="0 0 122 112" fill="none" xmlns="http://www.w3.org/2000/svg">
<rect x="9.96411" width="112" height="112" rx="56" fill="white"/>
<rect x="0.0356445" y="23.0862" width="67" height="55.4949" rx="3" transform="rotate(-7.71487 0.0356445 23.0862)" fill="#D0DBFF"/>
<path d="M0.438375 26.059C0.215953 24.4172 1.36663 22.9059 3.00849 22.6835L63.2134 14.5275C64.8552 14.3051 66.3665 15.4558 66.5889 17.0976L67.224 21.7856L1.07345 30.747L0.438375 26.059Z" fill="#022786"/>
<circle cx="4.99311" cy="26.1102" r="1" transform="rotate(-7.71487 4.99311 26.1102)" fill="white"/>
<circle cx="7.96601" cy="25.7074" r="1" transform="rotate(-7.71487 7.96601 25.7074)" fill="white"/>
<circle cx="10.9389" cy="25.3047" r="1" transform="rotate(-7.71487 10.9389 25.3047)" fill="white"/>
<path d="M23.5784 60.0873L22.6429 41.235L49.0096 37.6631L53.1237 56.0848C53.4429 57.5141 52.4707 58.9105 51.0194 59.1071L26.4109 62.4408C24.9597 62.6374 23.651 61.55 23.5784 60.0873Z" fill="white" stroke="white"/>
<path d="M27.6208 40.8677L27.5502 40.3472C26.9333 35.7928 30.1252 31.6006 34.6796 30.9836V30.9836C39.234 30.3666 43.4262 33.5585 44.0432 38.1129L44.1137 38.6334" stroke="white"/>
<path d="M15.9292 66.2606L15.3958 55.5116L31.9709 53.2662L34.3166 63.7697C34.6358 65.199 33.6636 66.5953 32.2123 66.792L18.7617 68.6141C17.3105 68.8107 16.0018 67.7233 15.9292 66.2606Z" fill="#FFC72C" stroke="#FFC72C"/>
<path d="M18.3993 55.1205L18.3541 54.7868C17.9586 51.8673 20.0046 49.18 22.9241 48.7845V48.7845C25.8436 48.389 28.5309 50.4351 28.9264 53.3546L28.9716 53.6882" stroke="#FFC72C"/>
<path d="M78.6791 29.5561C78.9875 29.2092 79.561 29.4332 79.5527 29.8973L79.4836 33.7635C79.481 33.9094 79.5422 34.0491 79.6513 34.1461L82.5412 36.7152C82.8881 37.0236 82.6642 37.5971 82.2001 37.5888L78.3339 37.5197C78.188 37.5171 78.0482 37.5783 77.9513 37.6874L75.3821 40.5773C75.0737 40.9242 74.5002 40.7003 74.5085 40.2362L74.5777 36.37C74.5803 36.2241 74.519 36.0843 74.41 35.9874L71.52 33.4182C71.1731 33.1099 71.3971 32.5363 71.8612 32.5446L75.7273 32.6138C75.8733 32.6164 76.013 32.5551 76.11 32.4461L78.6791 29.5561Z" fill="#FFDB6C"/>
<path d="M20.7464 86.3224C20.7167 85.8592 21.2792 85.6089 21.6033 85.9412L26.2805 90.7362C26.3823 90.8406 26.5248 90.8954 26.6704 90.886L33.355 90.4567C33.8182 90.4269 34.0684 90.9895 33.7361 91.3136L28.9412 95.9907C28.8367 96.0926 28.782 96.2351 28.7913 96.3807L29.2207 103.065C29.2504 103.528 28.6879 103.779 28.3638 103.446L23.6866 98.6514C23.5847 98.547 23.4423 98.4922 23.2967 98.5016L16.6121 98.9309C16.1489 98.9607 15.8987 98.3981 16.231 98.074L21.0259 93.3969C21.1304 93.295 21.1851 93.1525 21.1758 93.0069L20.7464 86.3224Z" fill="#FFC72C"/>
<mask id="mask0_417_26854" style="mask-type:alpha" maskUnits="userSpaceOnUse" x="9" y="0" width="113" height="112">
<rect x="9.96411" width="112" height="112" rx="56" fill="#F0F4FF"/>
</mask>
<g mask="url(#mask0_417_26854)">
<path d="M110.592 98.5H54.3362C53.5816 98.5 52.9641 97.852 52.9641 97.06V63.94C52.9641 63.148 53.5816 62.5 54.3362 62.5H110.592C111.347 62.5 111.964 63.148 111.964 63.94V97.06C111.964 97.852 111.347 98.5 110.592 98.5Z" fill="#ADC0FD"/>
<path d="M109.786 55.5981L54.2099 63.4143C53.457 63.5238 52.7726 63.0037 52.6631 62.2508L51.9787 57.3776C51.8692 56.6247 52.3893 55.9403 53.1422 55.8308L108.718 48.0146C109.471 47.905 110.156 48.4252 110.265 49.1781L110.95 54.0513C111.059 54.8041 110.539 55.4886 109.786 55.5981Z" fill="#022786"/>
<path d="M63.1212 62.155L60.4108 62.5382L55.2913 55.5159L58.0016 55.1327L63.1212 62.155Z" fill="white"/>
<path d="M72.0599 60.8956L69.3496 61.2789L64.23 54.2566L66.9403 53.887L72.0599 60.8956Z" fill="white"/>
<path d="M80.9987 59.6499L78.2883 60.0195L73.155 53.0109L75.8654 52.6276L80.9987 59.6499Z" fill="white"/>
<path d="M89.9376 58.3906L87.2273 58.7739L82.094 51.7516L84.8044 51.3683L89.9376 58.3906Z" fill="white"/>
<path d="M98.8624 57.1312L96.152 57.5145L91.0325 50.4922L93.7428 50.1089L98.8624 57.1312Z" fill="white"/>
<path d="M107.801 55.8719L105.091 56.2551L99.9712 49.2328L102.682 48.8633L107.801 55.8719Z" fill="white"/>
<path d="M90.9641 80.5L77.9641 88.5L77.9641 72.5L90.9641 80.5Z" fill="white"/>
</g>
</svg>
