<svg width="126" height="112" viewBox="0 0 126 112" fill="none" xmlns="http://www.w3.org/2000/svg">
<rect x="0.5" width="112" height="112" rx="56" fill="white"/>
<mask id="mask0_438_26619" style="mask-type:alpha" maskUnits="userSpaceOnUse" x="0" y="0" width="113" height="112">
<rect x="0.5" width="112" height="112" rx="56" fill="#F0F4FF"/>
</mask>
<g mask="url(#mask0_438_26619)">
<rect x="-3" y="82" width="130" height="46" fill="#D0DBFF"/>
<path d="M53.5 24H23.5C27.9 11.4696 37.6667 16.8165 42 20C48 15 52.1667 20.8165 53.5 24Z" fill="#E5ECFF"/>
<path d="M82.5 15H63.5C66.2867 7.07273 72.4722 10.4554 75.2167 12.4694C79.0167 9.30623 81.6556 12.986 82.5 15Z" fill="#E5ECFF"/>
</g>
<path d="M92.6108 88.1759C95.7 88.1759 98.2042 85.6716 98.2042 82.5825C98.2042 79.4934 95.7 76.9891 92.6108 76.9891C89.5217 76.9891 87.0175 79.4934 87.0175 82.5825C87.0175 85.6716 89.5217 88.1759 92.6108 88.1759Z" fill="#022786"/>
<path d="M34.4396 88.1759C37.5287 88.1759 40.033 85.6716 40.033 82.5825C40.033 79.4934 37.5287 76.9891 34.4396 76.9891C31.3504 76.9891 28.8462 79.4934 28.8462 82.5825C28.8462 85.6716 31.3504 88.1759 34.4396 88.1759Z" fill="#022786"/>
<path d="M99.8967 32.6895H51.6674V82.3588H101.337V34.1294C101.337 33.3342 100.692 32.6895 99.8967 32.6895Z" fill="#ADC0FD"/>
<path d="M113.488 47.9035H110.479H101.337V82.3588H120.13V64.4876L114.557 48.5863C114.328 48.207 113.946 47.9035 113.488 47.9035Z" fill="#FFDB6C"/>
<path d="M124.148 66.9744L120.13 64.4599V82.3588H125.5V69.4155C125.5 68.4232 124.989 67.5008 124.148 66.9744Z" fill="#FFDB6C"/>
<path d="M114.537 88.1759C117.626 88.1759 120.13 85.6716 120.13 82.5825C120.13 79.4934 117.626 76.9891 114.537 76.9891C111.448 76.9891 108.944 79.4934 108.944 82.5825C108.944 85.6716 111.448 88.1759 114.537 88.1759Z" fill="#022786"/>
<path d="M62.2508 88.2058C65.34 88.2058 67.8442 85.7015 67.8442 82.6124C67.8442 79.5233 65.34 77.019 62.2508 77.019C59.1617 77.019 56.6575 79.5233 56.6575 82.6124C56.6575 85.7015 59.1617 88.2058 62.2508 88.2058Z" fill="#022786"/>
<path d="M62.183 84.5961C63.2951 84.5961 64.1967 83.6946 64.1967 82.5825C64.1967 81.4704 63.2951 80.5688 62.183 80.5688C61.071 80.5688 60.1694 81.4704 60.1694 82.5825C60.1694 83.6946 61.071 84.5961 62.183 84.5961Z" fill="white"/>
<path d="M114.537 84.5961C115.649 84.5961 116.551 83.6946 116.551 82.5825C116.551 81.4704 115.649 80.5688 114.537 80.5688C113.425 80.5688 112.523 81.4704 112.523 82.5825C112.523 83.6946 113.425 84.5961 114.537 84.5961Z" fill="white"/>
<rect width="6.71206" height="1.78988" rx="0.894941" transform="matrix(1 0 0 -1 10.5 76.5416)" fill="#7996F9"/>
<rect width="4.92218" height="1.78988" rx="0.894941" transform="matrix(1 0 0 -1 12.29 79.6739)" fill="#7996F9"/>
<circle cx="76.5019" cy="57.5241" r="13.2004" fill="white"/>
<path d="M51.6672 32.6895H22.2316C21.4364 32.6895 20.7917 33.3342 20.7917 34.1294V82.3588H51.6672V32.6895Z" fill="#7996F9"/>
<path d="M45.7527 37.1642H26.7063C25.9111 37.1642 25.2665 37.8089 25.2665 38.6041V78.3315H47.1925V38.6041C47.1925 37.8089 46.5479 37.1642 45.7527 37.1642Z" fill="#D0DBFF"/>
<path d="M47.1925 57.7479H25.2665V58.1953H47.1925V57.7479Z" fill="#7996F9"/>
<path d="M47.1925 71.6195H25.2665V72.0669H47.1925V71.6195Z" fill="#7996F9"/>
<path d="M47.0094 53.5163H33.1378V65.1505H47.0094V53.5163Z" fill="#D0DBFF"/>
<path d="M83.9312 51.9484H70.0596V63.5826H83.9312V51.9484Z" fill="#D0DBFF"/>
<path d="M37.7958 53.2731H31.5312V64.9074H37.7958V53.2731Z" fill="#7996F9"/>
<path d="M74.7175 51.7053H68.4529V63.3395H74.7175V51.7053Z" fill="#7996F9"/>
<path d="M28.8462 64.9073H42.7178V78.3315H28.8462V64.9073Z" fill="#FFC72C"/>
<path d="M34.6632 64.9074H47.1924V78.3315H34.6632V64.9074Z" fill="#FFDB6C"/>
<path d="M40.928 74.8025H44.2527V76.4649H40.928V74.8025Z" fill="#FFF8E6"/>
<path d="M39.5854 55.2122H42.9102V56.6529H39.5854V55.2122Z" fill="#E7EEFD"/>
<path d="M76.5071 53.6443H79.8318V55.085H76.5071V53.6443Z" fill="#E7EEFD"/>
<g style="mix-blend-mode:darken">
<path d="M45.7529 37.1642H26.6091L36.4893 51.4832H47.1928V38.604C47.1928 37.8088 46.5481 37.1642 45.7529 37.1642Z" fill="#E3A700"/>
</g>
<path d="M45.7529 37.1642H26.6091L37.7959 53.2731H47.1928V38.604C47.1928 37.8088 46.5481 37.1642 45.7529 37.1642Z" fill="#ADC0FD"/>
<g style="mix-blend-mode:darken">
<path d="M101.337 64.9074H114.761L110.19 51.4833H101.337V64.9074Z" fill="#E3A700"/>
</g>
<path d="M125.5 69.3821H101.337V69.8296H125.5V69.3821Z" fill="#E3A700"/>
<rect x="120.578" y="69.8296" width="3.13229" height="1.78988" fill="#E3A700"/>
<rect x="111.628" y="59.9852" width="3.13229" height="5.81712" fill="#FFC72C"/>
<path d="M47.1925 43.8763H25.2665V44.3238H47.1925V43.8763Z" fill="#7996F9"/>
</svg>
