<svg width="112" height="114" viewBox="0 0 112 114" fill="none" xmlns="http://www.w3.org/2000/svg">
<rect y="2" width="112" height="112" rx="56" fill="white"/>
<path fill-rule="evenodd" clip-rule="evenodd" d="M93.3765 13.6402C93.3765 6.10692 87.2695 0 79.7363 0H60.64C53.1068 0 46.9998 6.10692 46.9998 13.6402C46.9998 21.1735 53.1067 27.2804 60.64 27.2804H79.7363C87.2695 27.2804 93.3765 21.1735 93.3765 13.6402Z" fill="#E5ECFF"/>
<path fill-rule="evenodd" clip-rule="evenodd" d="M85.7129 24.5523C85.7129 29.9801 89.2842 34.1005 89.2842 34.1005C89.2842 34.1005 81.2739 34.1005 77.008 24.5523C80.5432 24.5523 83.1467 24.5523 85.7129 24.5523Z" fill="#E5ECFF"/>
<rect width="5.04946" height="5.04946" transform="matrix(-1 0 0 1 81.0996 10.9121)" fill="#022786"/>
<rect width="5.04946" height="5.04946" transform="matrix(-1 0 0 1 72.2632 10.9121)" fill="#022786"/>
<rect width="5.04946" height="5.04946" transform="matrix(-1 0 0 1 63.4268 10.9121)" fill="#022786"/>
<path fill-rule="evenodd" clip-rule="evenodd" d="M2 35.5883C2 29.7405 6.74052 25 12.5883 25H27.4118C33.2595 25 38.0001 29.7405 38.0001 35.5883C38.0001 41.436 33.2595 46.1765 27.4118 46.1765H12.5883C6.74053 46.1765 2 41.436 2 35.5883Z" fill="#E5ECFF"/>
<path fill-rule="evenodd" clip-rule="evenodd" d="M7.94896 44.0588C7.94896 48.2722 5.17676 51.4706 5.17676 51.4706C5.17676 51.4706 11.3948 51.4706 14.7062 44.0588C11.962 44.0588 9.94099 44.0588 7.94896 44.0588Z" fill="#E5ECFF"/>
<rect x="11.53" y="33.4706" width="3.91967" height="3.91967" fill="#022786"/>
<rect x="18.3892" y="33.4706" width="3.91967" height="3.91967" fill="#022786"/>
<rect x="25.2485" y="33.4706" width="3.91967" height="3.91967" fill="#022786"/>
<path d="M81.7572 82.25C82.4477 88.4643 79.4786 100.893 62.0786 100.893" stroke="#ADC0FD" stroke-width="4" stroke-linecap="round"/>
<path d="M35.1499 77.0714V69.3036C35.1499 56.4334 45.5833 46 58.4535 46V46C71.3237 46 81.757 56.4334 81.757 69.3036V77.0714" stroke="#ADC0FD" stroke-width="4" stroke-linecap="round"/>
<path d="M37.355 68.4515C32.1884 68.4515 28.0001 72.6398 28.0001 77.8063V81.5483C28.0001 86.7148 32.1884 90.9031 37.355 90.9031V68.4515Z" fill="#022786"/>
<rect width="4.67742" height="27.129" rx="2.33871" transform="matrix(-1 0 0 1 42.0325 66.5806)" fill="#FFC72C"/>
<path d="M79.4517 68.4515C84.6182 68.4515 88.8065 72.6398 88.8065 77.8064V81.5483C88.8065 86.7148 84.6182 90.9031 79.4517 90.9031V68.4515Z" fill="#022786"/>
<rect x="74.7744" y="66.5806" width="4.67742" height="27.129" rx="2.33871" fill="#FFC72C"/>
<rect x="54.8286" y="97.7857" width="11.3929" height="6.21428" rx="3.10714" fill="#022786"/>
</svg>
