<svg width="617" height="173" viewBox="0 0 617 173" fill="none" xmlns="http://www.w3.org/2000/svg">
<path d="M0 0H616V172.975H0V0Z" fill="#ADC0FD"/>
<mask id="mask0_420_27867" style="mask-type:alpha" maskUnits="userSpaceOnUse" x="2" y="0" width="615" height="173">
<path d="M2 0H616.379V172.975H2V0Z" fill="#79D6FA"/>
</mask>
<g mask="url(#mask0_420_27867)">
<rect x="483" y="100.012" width="11.806" height="5" transform="rotate(-49.759 483 100.012)" fill="white"/>
<rect width="11.806" height="5" transform="matrix(0.472472 -0.881346 -0.881346 -0.472472 106.407 72.7675)" fill="white"/>
<rect x="609.667" y="113.178" width="11.806" height="5" transform="rotate(15 609.667 113.178)" fill="white"/>
<rect x="13.2942" y="157" width="11.806" height="5" transform="rotate(15 13.2942 157)" fill="white"/>
<circle cx="461.5" cy="63.5" r="2.5" fill="#FFC72C"/>
<circle cx="61.5" cy="75.5" r="2.5" fill="#FFC72C"/>
<circle cx="113.5" cy="29.5" r="2.5" fill="#FFC72C"/>
<circle cx="587.5" cy="156.5" r="2.5" fill="#FFC72C"/>
<circle cx="546.5" cy="45.5" r="2.5" fill="#FFC72C"/>
<circle cx="583.5" cy="97.5" r="2.5" fill="#9CF0CD"/>
<circle cx="74.5" cy="106.5" r="2.5" fill="#9CF0CD"/>
<circle cx="559.5" cy="12.5" r="2.5" fill="#9CF0CD"/>
<circle cx="154.5" cy="2.5" r="2.5" fill="#9CF0CD"/>
<circle cx="23.5" cy="38.5" r="2.5" fill="#9CF0CD"/>
<circle cx="486.5" cy="128.5" r="2.5" fill="#9CF0CD"/>
<rect x="543.591" y="90" width="11.806" height="5" transform="rotate(45.9068 543.591 90)" fill="#D0DBFF"/>
<rect x="608.892" y="59.7264" width="11.806" height="5" transform="rotate(34.2731 608.892 59.7264)" fill="#7996F9"/>
<rect x="502" y="51.903" width="11.806" height="5" transform="rotate(-30 502 51.903)" fill="#7996F9"/>
<rect x="17" y="78.903" width="11.806" height="5" transform="rotate(-30 17 78.903)" fill="#7996F9"/>
<rect x="154.197" y="27" width="11.806" height="5" transform="rotate(39.7478 154.197 27)" fill="#7996F9"/>
<rect x="480.591" y="-3" width="11.806" height="5" transform="rotate(45.9068 480.591 -3)" fill="#D0DBFF"/>
<rect x="46.5911" y="5" width="11.806" height="5" transform="rotate(45.9068 46.5911 5)" fill="#D0DBFF"/>
<rect x="581" y="38.8218" width="11.806" height="5" transform="rotate(-66.4395 581 38.8218)" fill="#022786"/>
<rect width="11.806" height="5" transform="matrix(-0.399717 -0.916639 -0.916639 0.399717 56.3022 136.822)" fill="#022786"/>
<rect width="11.806" height="5" transform="matrix(-0.399717 -0.916639 -0.916639 0.399717 169.302 96.8218)" fill="#022786"/>
<rect x="535" y="155.822" width="11.806" height="5" transform="rotate(-66.4395 535 155.822)" fill="#022786"/>
<path opacity="0.5" d="M403.267 85.6452C416.44 109.958 420.984 138.52 416.071 166.115C416.071 166.393 416.071 166.627 415.951 166.905C406.289 220.102 363.81 259.336 313.13 261.87C262.451 264.404 216.725 229.581 202.452 177.58C188.18 125.58 209.065 69.8994 253.004 42.8073C256.18 40.8873 259.356 39.0739 262.631 37.4952C314.13 12.5711 374.932 33.3881 403.267 85.6452Z" fill="#E7EEFD"/>
<path opacity="0.3" fill-rule="evenodd" clip-rule="evenodd" d="M77 191C81.6344 143.445 108.592 121.898 133.305 111.063C169.972 94.9885 193.078 106.277 275.029 91.3396C358.675 76.093 378.898 56.7951 422.961 63.296C458.307 68.5102 477.961 87.3184 488.027 96.9507C530.306 137.409 543.002 183.116 537.955 191H77Z" fill="#F0F4FF"/>
<path d="M185.069 28.8994H440.365V183.113C440.365 184.572 439.26 185.755 437.895 185.755H187.539C186.175 185.755 185.069 184.572 185.069 183.113V28.8994Z" fill="#F0F4FF"/>
<path d="M201.262 59.5346C201.262 58.6768 201.942 57.9811 202.78 57.9811H421.119C421.957 57.9811 422.637 58.6768 422.637 59.5346V187.85H201.262V59.5346Z" fill="#F7F9FA"/>
<path d="M410.683 71.0294H212.389C211.563 71.0294 210.894 71.2384 210.894 71.4963V133.446C210.894 133.704 211.563 133.913 212.389 133.913H410.683C411.508 133.913 412.178 133.704 412.178 133.446V71.4963C412.178 71.2384 411.508 71.0294 410.683 71.0294Z" fill="white"/>
<path d="M281.43 144.197C281.43 143.94 281.634 143.731 281.886 143.731H342.316C342.568 143.731 342.772 143.94 342.772 144.197V187.85H281.43V144.197Z" fill="white"/>
<path d="M210.894 144.197C210.894 143.94 211.098 143.731 211.35 143.731H271.78C272.031 143.731 272.235 143.94 272.235 144.197V187.85H210.894V144.197Z" fill="white"/>
<path d="M351.274 144.507C351.274 144.25 351.478 144.041 351.73 144.041H412.16C412.412 144.041 412.615 144.25 412.615 144.507V187.849H351.274V144.507Z" fill="white"/>
<path d="M291.961 91.6568C296.191 88.7679 304.189 85.5111 311.53 82.9023C317.168 85.1741 324.3 87.5197 331.1 91.6568C331.1 97.9087 329.435 104.71 328.652 107.913C327.022 114.582 321.314 119.584 311.529 122.919C301.744 119.584 296.036 114.582 294.406 107.913C293.619 104.698 291.961 97.9103 291.961 91.6568Z" fill="#5EAB00"/>
<path fill-rule="evenodd" clip-rule="evenodd" d="M321.562 96.4448C321.425 96.2778 321.255 96.1421 321.064 96.0462C320.872 95.9504 320.663 95.8966 320.45 95.8883C320.237 95.8801 320.025 95.9175 319.827 95.9982C319.629 96.079 319.45 96.2012 319.301 96.357L308.843 107.291L303.951 102.166C303.795 102.002 303.608 101.873 303.402 101.784C303.197 101.696 302.975 101.651 302.752 101.652C302.529 101.653 302.308 101.7 302.103 101.79C301.897 101.88 301.712 102.012 301.557 102.176C301.237 102.518 301.058 102.973 301.058 103.447C301.058 103.92 301.238 104.375 301.559 104.716L308.843 112.456L321.477 99.0074C322.141 98.2994 322.177 97.1959 321.562 96.4448Z" fill="white"/>
<path d="M185.069 31.0629H440.365V19.5001C440.365 18.1193 439.26 17 437.895 17H187.539C186.175 17 185.069 18.1193 185.069 19.5001V31.0629Z" fill="#022786"/>
<path d="M193.214 26.6076C194.639 26.6076 195.795 25.4255 195.795 23.9673C195.795 22.5091 194.639 21.327 193.214 21.327C191.789 21.327 190.633 22.5091 190.633 23.9673C190.633 25.4255 191.789 26.6076 193.214 26.6076Z" fill="white"/>
<path d="M201.11 26.6076C202.535 26.6076 203.691 25.4255 203.691 23.9673C203.691 22.5091 202.535 21.327 201.11 21.327C199.685 21.327 198.529 22.5091 198.529 23.9673C198.529 25.4255 199.685 26.6076 201.11 26.6076Z" fill="white"/>
<path d="M209.004 26.6076C210.429 26.6076 211.585 25.4255 211.585 23.9673C211.585 22.5091 210.429 21.327 209.004 21.327C207.579 21.327 206.423 22.5091 206.423 23.9673C206.423 25.4255 207.579 26.6076 209.004 26.6076Z" fill="white"/>
<path d="M200.74 57.4559C200.74 56.5939 201.422 55.8948 202.263 55.8948H421.212C422.052 55.8948 422.734 56.5939 422.734 57.4559V186.407H200.74V57.4559Z" fill="#F0F4FF"/>
<path d="M240.239 42.5715C240.239 41.5926 240.681 40.7988 241.226 40.7988H383.126C383.671 40.7988 384.113 41.5926 384.113 42.5715V189H240.239V42.5715Z" fill="#D0DBFF"/>
<path d="M373.686 50.5346H249.302C248.785 50.5346 248.365 50.9025 248.365 51.3563V160.364C248.365 160.818 248.785 161.186 249.302 161.186H373.686C374.204 161.186 374.624 160.818 374.624 160.364V51.3563C374.624 50.9025 374.204 50.5346 373.686 50.5346Z" fill="white"/>
<path d="M292.536 91.4809C296.766 88.5919 304.764 85.3352 312.106 82.7264C317.743 84.9981 324.875 87.3437 331.675 91.4809C331.675 97.7328 330.01 104.534 329.227 107.737C327.597 114.406 321.889 119.408 312.104 122.743C302.319 119.408 296.611 114.406 294.981 107.737C294.194 104.522 292.536 97.7343 292.536 91.4809Z" fill="#FFC72C"/>
<path fill-rule="evenodd" clip-rule="evenodd" d="M322.137 96.2688C322 96.1019 321.83 95.9661 321.639 95.8702C321.447 95.7744 321.238 95.7206 321.025 95.7124C320.812 95.7041 320.6 95.7415 320.402 95.8223C320.204 95.903 320.025 96.0252 319.876 96.1811L309.418 107.115L304.526 101.99C304.37 101.826 304.184 101.697 303.978 101.608C303.772 101.52 303.55 101.475 303.327 101.476C303.104 101.477 302.883 101.524 302.678 101.614C302.473 101.704 302.287 101.836 302.133 102C301.812 102.342 301.633 102.797 301.633 103.271C301.633 103.744 301.813 104.199 302.134 104.54L309.418 112.28L322.053 98.8314C322.716 98.1234 322.753 97.0199 322.137 96.2688Z" fill="white"/>
<path d="M423.607 174.618C419.216 165.735 409.972 159.585 399.11 159.585C394.141 159.585 389.404 160.951 385.36 163.229C380.969 154.118 371.609 147.74 360.747 147.74C345.726 147.74 333.477 159.813 333.477 174.618H423.607Z" fill="#67D3A6"/>
<path d="M470.413 174.618C466.022 165.735 456.778 159.585 445.916 159.585C440.947 159.585 436.21 160.951 432.165 163.229C427.774 154.118 418.415 147.74 407.553 147.74C392.531 147.74 380.283 159.813 380.283 174.618H470.413Z" fill="#9CF0CD"/>
<path d="M309.69 174.368C320.636 174.368 331.581 174.368 342.526 174.368C346.042 170.823 346.681 165.424 344.204 161.798C342.367 159.059 338.931 157.367 335.336 157.85C331.102 158.414 329.024 161.798 328.705 162.282C328.705 162.282 328.785 148.745 317.76 153.902C306.654 159.059 309.69 174.368 309.69 174.368Z" fill="#9CF0CD"/>
<path d="M328.943 174.937C324.042 164.926 313.724 157.996 301.6 157.996C296.054 157.996 290.766 159.536 286.251 162.103C281.35 151.835 270.903 144.648 258.779 144.648C242.011 144.648 228.34 158.252 228.34 174.937H328.943Z" fill="#67D3A6"/>
<path d="M229.421 174.937C223.993 163.854 212.565 156.18 199.138 156.18C192.995 156.18 187.138 157.886 182.139 160.728C176.711 149.36 165.14 141.402 151.712 141.402C133.142 141.402 118 156.465 118 174.937H229.421Z" fill="#67D3A6"/>
<path d="M248.543 174.937C238.456 174.937 228.368 174.937 218.28 174.937C215.04 171.747 214.451 166.889 216.733 163.626C218.427 161.16 221.593 159.638 224.907 160.073C228.809 160.58 230.724 163.626 231.019 164.061C231.019 164.061 230.945 151.879 241.106 156.52C251.342 161.16 248.543 174.937 248.543 174.937Z" fill="#9CF0CD"/>
<path d="M189.973 174.692C186.228 168.95 184.266 161.204 183.731 157.012C183.106 152.911 183.998 150.085 186.228 149.812C188.457 149.539 190.062 153.457 190.062 153.457C190.062 153.457 191.043 147.898 192.648 144.253C194.343 140.607 197.91 138.876 200.228 141.792C202.547 144.708 200.763 155.371 200.763 155.371C201.12 155.189 203.884 153.275 205.49 154.369C207.273 155.553 206.47 159.199 206.203 160.839C204.865 167.583 199.336 172.231 195.502 174.783H189.973V174.692Z" fill="#2EAA77"/>
<path d="M192.653 174.277L196.22 148.577" stroke="white" stroke-width="0.998296" stroke-miterlimit="10" stroke-linecap="round" stroke-linejoin="round"/>
<path d="M422.878 187.918H484.815C484.815 187.918 503.694 167.369 495.745 155.241C487.796 143.114 474.547 149.514 468.916 158.273C468.916 158.273 469.248 125.259 442.419 137.724C415.591 150.525 422.878 187.918 422.878 187.918Z" fill="#67D3A6"/>
<path d="M425.028 187.918H486.08C486.08 187.918 504.69 167.369 496.854 155.241C489.019 143.114 475.96 149.514 470.409 158.273C470.409 158.273 470.736 125.259 444.291 137.724C417.846 150.525 425.028 187.918 425.028 187.918Z" fill="#67D3A6"/>
<path d="M414.189 174.79C417.722 169.375 419.572 162.068 420.077 158.114C420.666 154.246 419.825 151.581 417.722 151.323C415.619 151.066 414.105 154.762 414.105 154.762C414.105 154.762 413.18 149.518 411.666 146.08C410.068 142.642 406.703 141.008 404.517 143.759C402.33 146.51 404.012 156.567 404.012 156.567C403.676 156.395 401.068 154.59 399.554 155.621C397.872 156.739 398.629 160.177 398.881 161.724C400.143 168.085 405.358 172.469 408.974 174.876H414.189V174.79Z" fill="#2EAA77"/>
<path d="M411.671 174.408L408.306 150.168" stroke="white" stroke-miterlimit="10" stroke-linecap="round" stroke-linejoin="round"/>
<rect width="11.806" height="5" transform="matrix(-0.402611 0.915371 0.915371 0.402611 126.753 115)" fill="#D0DBFF"/>
</g>
</svg>
