<svg width="255" height="330" viewBox="0 0 255 330" fill="none" xmlns="http://www.w3.org/2000/svg">
<path fill-rule="evenodd" clip-rule="evenodd" d="M161.672 176.136L152.798 203.801C151.474 207.929 153.747 212.35 157.875 213.674L165.187 216.019C165.365 216.076 165.556 215.976 165.613 215.797C168.25 207.576 177.052 203.049 185.274 205.686C193.495 208.323 198.022 217.126 195.385 225.347C195.328 225.526 195.424 225.718 195.602 225.775L202.442 227.969C206.316 229.212 210.463 227.079 211.706 223.206L220.728 195.079L209.014 191.321C207.936 190.976 207.342 189.821 207.688 188.743C208.034 187.665 209.188 187.071 210.266 187.417L221.98 191.174L251.346 99.6267C252.502 96.0218 250.517 92.1621 246.912 91.0058L241.026 89.1176C240.397 88.916 239.734 89.2939 239.532 89.9224C236.895 98.1436 228.092 102.671 219.871 100.033C211.65 97.3963 207.123 88.5938 209.76 80.3725C209.962 79.7441 209.642 79.0506 209.013 78.849L201.976 76.5918C197.783 75.2468 193.293 77.5556 191.948 81.7488L162.924 172.231L175.126 176.145C176.204 176.491 176.798 177.645 176.452 178.724C176.106 179.802 174.951 180.396 173.873 180.05L161.672 176.136ZM184.611 183.494C183.532 183.148 182.939 181.994 183.285 180.916C183.63 179.837 184.785 179.244 185.863 179.59L199.529 183.973C200.607 184.319 201.201 185.473 200.855 186.551C200.509 187.63 199.355 188.223 198.276 187.878L184.611 183.494Z" fill="#ADC0FD"/>
<rect x="180.614" y="162.192" width="34.328" height="11.1766" transform="rotate(-71.9428 180.614 162.192)" fill="#E5ECFF"/>
<rect x="201.107" y="168.873" width="54.2862" height="11.9749" transform="rotate(-71.9428 201.107 168.873)" fill="#E5ECFF"/>
<path fill-rule="evenodd" clip-rule="evenodd" d="M72.5785 12.9851L43.7128 16.2841C39.4053 16.7764 36.3124 20.6675 36.8047 24.975L37.6767 32.6043C37.6979 32.7903 37.8679 32.9221 38.0539 32.9008C46.6319 31.9204 54.3806 38.0796 55.361 46.6576C56.3414 55.2357 50.1822 62.9843 41.6042 63.9647C41.4182 63.9859 41.2824 64.1527 41.3036 64.3387L42.1193 71.476C42.5813 75.5176 46.2321 78.4195 50.2737 77.9576L79.6211 74.6035L78.2242 62.381C78.0956 61.2561 78.9033 60.2398 80.0283 60.1113C81.1533 59.9827 82.1695 60.7904 82.2981 61.9154L83.695 74.1379L179.215 63.2209C182.976 62.7911 185.677 59.3934 185.247 55.6321L184.545 49.4904C184.47 48.8346 183.853 48.3852 183.197 48.4601C174.619 49.4405 166.87 43.2814 165.89 34.7033C164.91 26.1253 171.069 18.3766 179.647 17.3963C180.302 17.3213 180.803 16.7441 180.728 16.0884L179.889 8.74593C179.389 4.37083 175.436 1.22946 171.061 1.72949L76.6525 12.5195L78.1075 25.2501C78.236 26.3751 77.4283 27.3913 76.3033 27.5199C75.1783 27.6485 74.1621 26.8407 74.0335 25.7157L72.5785 12.9851ZM75.314 36.9193C75.1854 35.7943 75.9931 34.7781 77.1181 34.6495C78.2431 34.5209 79.2593 35.3287 79.3879 36.4537L81.0176 50.7125C81.1461 51.8375 80.3384 52.8537 79.2134 52.9823C78.0884 53.1108 77.0722 52.3031 76.9436 51.1781L75.314 36.9193Z" fill="#ADC0FD"/>
<rect x="93.0825" y="24.5089" width="34.328" height="11.1766" transform="rotate(-6.24731 93.0825 24.5089)" fill="#E5ECFF"/>
<rect x="95.4282" y="45.9358" width="54.2862" height="11.9749" transform="rotate(-6.24731 95.4282 45.9358)" fill="#E5ECFF"/>
<path fill-rule="evenodd" clip-rule="evenodd" d="M95.6928 97.6054L70.8466 116.567C67.3342 119.247 66.6599 124.267 69.3403 127.78L74.5081 134.551C74.629 134.71 74.8563 134.738 75.0148 134.617C82.3156 129.045 92.7508 130.447 98.3224 137.748C103.894 145.049 102.492 155.484 95.1914 161.055C95.0329 161.176 94.9998 161.403 95.1207 161.561L99.7563 167.636C102.381 171.076 107.298 171.736 110.738 169.111L135.715 150.049L127.777 139.647C127.046 138.689 127.23 137.321 128.187 136.59C129.145 135.859 130.513 136.043 131.244 137.001L139.183 147.403L220.481 85.3607C223.682 82.9176 224.297 78.342 221.853 75.1407L217.864 69.9132C217.438 69.3552 216.629 69.2813 216.071 69.7072C208.77 75.2788 198.335 73.877 192.764 66.5762C187.192 59.2754 188.594 48.8402 195.895 43.2686C196.453 42.8427 196.595 42.0429 196.169 41.4849L191.108 34.8529C188.427 31.3406 183.407 30.6662 179.895 33.3466L99.1602 94.9593L107.429 105.794C108.16 106.752 107.976 108.12 107.018 108.851C106.061 109.582 104.692 109.398 103.962 108.44L95.6928 97.6054ZM111.238 117.975C110.508 117.018 110.692 115.649 111.649 114.919C112.607 114.188 113.975 114.372 114.706 115.329L123.967 127.465C124.698 128.423 124.514 129.791 123.557 130.522C122.599 131.253 121.231 131.069 120.5 130.111L111.238 117.975Z" fill="#7996F9"/>
<path d="M137.209 96.8722L136.894 96.484L136.506 96.7991L128.376 103.4L127.987 103.715L128.303 104.103L137.24 115.111L137.555 115.5L137.943 115.184L139.516 113.908L139.904 113.593L139.589 113.204L135.755 108.482L141.5 103.817L141.888 103.502L141.573 103.114L140.449 101.73L140.134 101.342L139.746 101.657L134.001 106.321L132.116 104L138.285 98.9908L138.673 98.6757L138.358 98.2875L137.209 96.8722ZM149.696 98.0238L149.786 97.9505C151.056 96.9197 151.816 95.737 152.018 94.5048C152.222 93.2638 151.846 92.0457 150.985 90.9847C149.299 88.9086 146.466 88.7126 144.277 90.4899L138.836 94.9075L138.448 95.2227L138.763 95.6109L147.7 106.619L148.015 107.007L148.403 106.692L149.976 105.415L150.364 105.1L150.049 104.712L146.721 100.613L154.907 101.236L155.105 101.251L155.26 101.125L157.509 99.2995L158.519 98.4791L157.219 98.412L149.696 98.0238ZM166.261 88.5576L160.013 93.6304L157.642 90.7111L163.387 86.0469L163.776 85.7318L163.46 85.3436L162.337 83.9597L162.022 83.5715L161.633 83.8867L155.889 88.5509L154.004 86.2293L160.173 81.2203L160.561 80.9051L160.246 80.517L159.097 79.1016L158.782 78.7135L158.394 79.0286L150.263 85.6295L149.875 85.9447L150.19 86.3328L159.128 97.341L159.443 97.7291L159.831 97.414L168.04 90.7492L168.428 90.4341L168.113 90.0459L166.964 88.6306L166.649 88.2424L166.261 88.5576ZM177.166 79.7035L170.918 84.7763L168.548 81.8571L174.293 77.1928L174.681 76.8777L174.366 76.4895L173.242 75.1056L172.927 74.7174L172.539 75.0326L166.794 79.6968L164.909 77.3752L171.079 72.3662L171.467 72.0511L171.152 71.6629L170.003 70.2476L169.687 69.8594L169.299 70.1745L161.169 76.7754L160.781 77.0906L161.096 77.4788L170.033 88.4869L170.349 88.875L170.737 88.5599L178.946 81.8952L179.334 81.58L179.019 81.1918L177.87 79.7765L177.554 79.3883L177.166 79.7035ZM145.729 92.9212C146.303 92.455 146.856 92.2723 147.329 92.2941C147.793 92.3155 148.243 92.5364 148.624 93.0058C149.044 93.5233 149.171 94.0373 149.078 94.5259C148.983 95.0292 148.64 95.5836 147.968 96.1293L145.023 98.5209L142.563 95.4916L145.729 92.9212Z" fill="#E6F8FF" stroke="#E6F8FF"/>
<path d="M32.2737 241.726C32.067 246.381 41.0082 250.427 52.2459 250.762C63.4804 251.098 72.7568 247.596 72.9635 242.942L73.3376 234.517L32.6479 233.301L32.2737 241.726Z" fill="#FFC72C"/>
<path d="M52.6083 242.355C41.3726 242.027 32.4345 237.988 32.6446 233.334C32.8547 228.679 42.1334 225.171 53.3692 225.499C64.6049 225.826 73.5429 229.865 73.3328 234.52C73.1227 239.174 63.844 242.682 52.6083 242.355Z" fill="#FFDB6C"/>
<path d="M32.2707 228.267C32.064 232.922 41.0052 236.968 52.2428 237.303C63.4774 237.639 72.7537 234.138 72.9604 229.483L73.3346 221.058L32.6448 219.842L32.2707 228.267Z" fill="#FFC72C"/>
<path d="M52.6053 228.896C41.3695 228.568 32.4315 224.53 32.6416 219.875C32.8517 215.22 42.1304 211.712 53.3661 212.04C64.6018 212.367 73.5399 216.406 73.3298 221.061C73.1197 225.715 63.841 229.223 52.6053 228.896Z" fill="#FFDB6C"/>
<path d="M32.2707 214.934C32.064 219.589 41.0052 223.635 52.2428 223.97C63.4774 224.306 72.7537 220.804 72.9604 216.15L73.3346 207.725L32.6448 206.509L32.2707 214.934Z" fill="#FFC72C"/>
<path d="M52.6051 215.563C41.3694 215.235 32.4314 211.196 32.6415 206.542C32.8516 201.887 42.1303 198.379 53.366 198.707C64.6017 199.034 73.5398 203.073 73.3297 207.728C73.1195 212.382 63.8409 215.89 52.6051 215.563Z" fill="#FFDB6C"/>
<path d="M47.7362 187.888C46.3836 192.346 54.045 198.479 64.8497 201.587C75.6514 204.693 85.5059 203.597 86.8584 199.139L89.3066 191.068L50.1844 179.818L47.7362 187.888Z" fill="#FFC72C"/>
<path d="M67.2821 193.53C56.4772 190.432 48.8172 184.306 50.1731 179.848C51.5289 175.39 61.3872 174.289 72.1922 177.387C82.9971 180.486 90.6571 186.612 89.3012 191.07C87.9453 195.527 78.0871 196.629 67.2821 193.53Z" fill="#FFDB6C"/>
<path d="M105.062 261.219C104.831 266.42 114.823 270.941 127.381 271.317C139.936 271.692 150.302 267.779 150.533 262.577L150.952 253.162L105.48 251.804L105.062 261.219Z" fill="#FFC72C"/>
<path d="M127.786 261.921C115.23 261.555 105.242 257.042 105.477 251.84C105.711 246.638 116.08 242.718 128.636 243.084C141.192 243.45 151.181 247.963 150.946 253.165C150.711 258.367 140.342 262.287 127.786 261.921Z" fill="#FFDB6C"/>
<path d="M135.974 253.058C133.188 257.457 139.61 266.347 150.32 272.916C161.026 279.483 171.966 281.241 174.753 276.843L179.796 268.882L141.018 245.097L135.974 253.058Z" fill="#FFC72C"/>
<path d="M155.342 264.965C144.629 258.405 138.207 249.523 140.996 245.127C143.786 240.73 154.732 242.484 165.444 249.044C176.157 255.603 182.58 264.485 179.79 268.882C177 273.278 166.054 271.525 155.342 264.965Z" fill="#FFDB6C"/>
<path d="M18.7057 170.555C20.6968 174.767 30.4925 174.168 40.586 169.217C50.6766 164.267 57.2437 156.838 55.2526 152.626L51.6486 145.001L15.1016 162.93L18.7057 170.555Z" fill="#FFC72C"/>
<path d="M36.9795 161.613C26.8916 166.571 17.102 167.175 15.1138 162.961C13.1257 158.747 19.6918 151.311 29.7797 146.353C39.8677 141.395 49.6573 140.792 51.6454 145.006C53.6336 149.22 47.0674 156.655 36.9795 161.613Z" fill="#FFDB6C"/>
</svg>
