<svg width="122" height="112" viewBox="0 0 122 112" fill="none" xmlns="http://www.w3.org/2000/svg">
<rect x="9.24268" width="112" height="112" rx="56" fill="white"/>
<mask id="mask0_417_26976" style="mask-type:alpha" maskUnits="userSpaceOnUse" x="9" y="0" width="113" height="112">
<rect x="9.24268" width="112" height="112" rx="56" fill="#F0F4FF"/>
</mask>
<g mask="url(#mask0_417_26976)">
<rect width="47.4999" height="40.1739" transform="matrix(-1 0 0 1 73.7427 52.8261)" fill="#D0DBFF"/>
<rect width="47.4999" height="40.1739" transform="matrix(-1 0 0 1 121.243 52.8261)" fill="#ADC0FD"/>
<rect width="29.5555" height="13.7739" transform="matrix(-1 0 0 1 112.271 59.713)" fill="#7996F9"/>
<rect width="29.5555" height="33.2869" transform="matrix(-1 0 0 1 64.7705 59.713)" fill="#ADC0FD"/>
<rect width="4.22222" height="33.2869" transform="matrix(-1 0 0 1 39.4373 59.713)" fill="#7996F9"/>
<path d="M49.9927 27L26.2427 52.8261H73.7427L49.9927 27Z" fill="#D0DBFF"/>
<ellipse rx="6.36598" ry="6.39971" transform="matrix(-1 0 0 1 50.0417 45.8053)" fill="white"/>
<path d="M97.4927 27H49.9927L73.7427 52.8249H121.243L97.4927 27Z" fill="#022786"/>
<path d="M39.4372 66.6H64.7705V67.1739H39.4372V66.6Z" fill="#7996F9"/>
<path d="M39.4372 74.0608H64.7705V74.6347H39.4372V74.0608Z" fill="#7996F9"/>
<path d="M39.4372 81.5217H64.7705V82.0956H39.4372V81.5217Z" fill="#7996F9"/>
<path d="M39.4372 89.1498H64.7705V89.7238H39.4372V89.1498Z" fill="#7996F9"/>
<path d="M105.021 79.2262H89.1874V93.0001H105.021V79.2262Z" fill="#FFC72C"/>
<path d="M99.7429 79.2261H89.1874V93H99.7429V79.2261Z" fill="#FFE380"/>
<path d="M93.9373 89.5565H90.7706V91.2782H93.9373V89.5565Z" fill="#FFFFCC"/>
<path d="M71.2429 79.2261H87.0762V93H71.2429V79.2261Z" fill="#FFDB6C"/>
<path d="M81.7983 79.2261H87.0761V93H81.7983V79.2261Z" fill="#FFC72C"/>
<rect x="5.24268" y="93" width="123" height="29" fill="#7996F9"/>
</g>
<path d="M11.6008 21.8242C11.5711 21.361 12.1336 21.1107 12.4577 21.443L17.7516 26.8703C17.8535 26.9747 17.996 27.0295 18.1416 27.0201L25.7076 26.5342C26.1709 26.5044 26.4211 27.067 26.0888 27.3911L20.6615 32.685C20.5571 32.7869 20.5023 32.9293 20.5117 33.075L20.9976 40.641C21.0274 41.1042 20.4649 41.3544 20.1408 41.0222L14.8468 35.5949C14.7449 35.4904 14.6025 35.4357 14.4569 35.445L6.89081 35.931C6.4276 35.9608 6.17737 35.3982 6.50963 35.0741L11.9369 29.7802C12.0414 29.6783 12.0961 29.5358 12.0868 29.3902L11.6008 21.8242Z" fill="#FFC72C"/>
<path d="M44.3148 15.4763C44.5936 15.1052 45.1836 15.2812 45.2135 15.7444L45.4369 19.2028C45.4463 19.3484 45.5188 19.4827 45.6355 19.5703L48.4062 21.652C48.7773 21.9308 48.6013 22.5208 48.1381 22.5507L44.6797 22.774C44.5341 22.7834 44.3999 22.856 44.3122 22.9726L42.2306 25.7434C41.9518 26.1145 41.3618 25.9385 41.3319 25.4753L41.1085 22.0169C41.0991 21.8713 41.0266 21.737 40.9099 21.6494L38.1392 19.5677C37.7681 19.2889 37.9441 18.6989 38.4073 18.669L41.8656 18.4457C42.0113 18.4363 42.1455 18.3637 42.2332 18.247L44.3148 15.4763Z" fill="#FFDB6C"/>
</svg>
