<svg width="206" height="117" viewBox="0 0 206 117" fill="none" xmlns="http://www.w3.org/2000/svg">
<path fill-rule="evenodd" clip-rule="evenodd" d="M154.447 86.1376L157.027 112.142C157.24 114.29 158.728 115.907 160.498 115.907H189.176C190.96 115.907 192.456 114.265 192.654 112.096L194.999 86.091C195.227 83.5557 193.603 81.3433 191.521 81.3433H157.918C155.819 81.3433 154.195 83.588 154.447 86.1376Z" fill="#FFD560"/>
<path fill-rule="evenodd" clip-rule="evenodd" d="M154.014 85.8548L155.411 112.187C155.527 114.362 156.333 116 157.292 116H174.717V112.14L175.988 85.8076V81H155.894C154.757 81 153.877 83.2731 154.014 85.8548Z" fill="#FFDF85"/>
<mask id="mask0" mask-type="alpha" maskUnits="userSpaceOnUse" x="190" y="20" width="16" height="19">
<path fill-rule="evenodd" clip-rule="evenodd" d="M190.845 20.9932H205.731V38.7897H190.845V20.9932Z" fill="white"/>
</mask>
<g mask="url(#mask0)">
<path fill-rule="evenodd" clip-rule="evenodd" d="M190.845 38.7895C190.845 38.7895 197.727 19.4927 203.142 21.0857C208.556 22.6811 205.95 34.6841 190.845 38.7895Z" fill="#92F1D3"/>
</g>
<mask id="mask1" mask-type="alpha" maskUnits="userSpaceOnUse" x="161" y="64" width="15" height="17">
<path fill-rule="evenodd" clip-rule="evenodd" d="M161.005 64.1377H175.865V80.8688H161.005V64.1377Z" fill="white"/>
</mask>
<g mask="url(#mask1)">
<path fill-rule="evenodd" clip-rule="evenodd" d="M175.865 80.8688C175.865 80.8688 171.056 61.2963 162.883 64.49C154.708 67.6836 175.865 80.8688 175.865 80.8688Z" fill="#92F1D3"/>
</g>
<path fill-rule="evenodd" clip-rule="evenodd" d="M180.412 61.9147C180.412 61.9147 175.603 42.2714 167.427 45.4766C159.248 48.6818 180.412 61.9147 180.412 61.9147Z" fill="#92F1D3"/>
<path fill-rule="evenodd" clip-rule="evenodd" d="M188.67 41.9572C188.67 41.9572 183.862 22.3139 175.685 25.5191C167.506 28.7243 188.67 41.9572 188.67 41.9572Z" fill="#92F1D3"/>
<path fill-rule="evenodd" clip-rule="evenodd" d="M177.109 77.0545C177.109 77.0545 188.427 61.2087 193.141 61.939C197.858 62.6643 200.215 68.8823 177.109 77.0545Z" fill="#92F1D3"/>
<path fill-rule="evenodd" clip-rule="evenodd" d="M182.339 57.9232C182.339 57.9232 193.656 42.0798 198.37 42.8075C203.089 43.5352 205.446 49.7497 182.339 57.9232Z" fill="#92F1D3"/>
<path fill-rule="evenodd" clip-rule="evenodd" d="M175.899 81.3212C175.842 81.3212 175.783 81.3037 175.733 81.2713C174.804 80.6609 171.116 75.6476 170.698 75.077C170.599 74.9425 170.629 74.7531 170.765 74.6534C170.897 74.5538 171.088 74.5812 171.188 74.7182C172.581 76.6194 174.732 79.435 175.701 80.4366C176.111 78.3361 177.752 70.2631 180.522 61.3952C184.841 47.5738 189.687 38.5066 194.925 34.4502C195.06 34.348 195.248 34.3729 195.35 34.505C195.455 34.6395 195.427 34.8289 195.298 34.9311C183.016 44.4368 176.262 80.7057 176.197 81.072C176.178 81.1717 176.113 81.2564 176.019 81.2963C175.979 81.3137 175.939 81.3212 175.899 81.3212Z" fill="#1ACC94"/>
<path fill-rule="evenodd" clip-rule="evenodd" d="M188.508 42.2323C188.414 42.2323 188.324 42.1869 188.265 42.1036L184.596 36.8024C184.501 36.6611 184.532 36.4692 184.667 36.3708C184.8 36.2723 184.986 36.3051 185.084 36.444L188.753 41.7451C188.848 41.884 188.816 42.0758 188.682 42.1743C188.63 42.2147 188.566 42.2323 188.508 42.2323Z" fill="#1ACC94"/>
<path fill-rule="evenodd" clip-rule="evenodd" d="M182.229 58.0609C182.135 58.0609 182.043 58.016 181.981 57.9311C181.884 57.7964 181.919 57.6042 182.055 57.5069L189.705 52.0617C189.842 51.9644 190.031 51.9943 190.128 52.1341C190.225 52.2713 190.193 52.461 190.056 52.5583L182.404 58.0035C182.351 58.0434 182.289 58.0609 182.229 58.0609Z" fill="#1ACC94"/>
<path fill-rule="evenodd" clip-rule="evenodd" d="M180.244 62.3276C180.146 62.3276 180.051 62.2806 179.991 62.1966L175.511 55.7791C175.415 55.6432 175.45 55.4555 175.591 55.3616C175.729 55.2678 175.919 55.2999 176.012 55.4382L180.495 61.8557C180.593 61.9916 180.555 62.1793 180.415 62.2757C180.364 62.3103 180.302 62.3276 180.244 62.3276Z" fill="#1ACC94"/>
<path fill-rule="evenodd" clip-rule="evenodd" d="M177.004 77.3295C176.908 77.3295 176.812 77.2845 176.751 77.2021C176.653 77.0647 176.688 76.8723 176.827 76.7773L185.984 70.3663C186.12 70.2688 186.312 70.3013 186.41 70.4387C186.511 70.5761 186.475 70.766 186.337 70.8635L177.18 77.2745C177.127 77.312 177.064 77.3295 177.004 77.3295Z" fill="#1ACC94"/>
<mask id="mask2" mask-type="alpha" maskUnits="userSpaceOnUse" x="0" y="84" width="144" height="16">
<path fill-rule="evenodd" clip-rule="evenodd" d="M0 84.2139H143.328V99.0148H0V84.2139Z" fill="white"/>
</mask>
<g mask="url(#mask2)">
<path fill-rule="evenodd" clip-rule="evenodd" d="M0 84.2139V88.2391C0 94.1907 4.83962 99.0148 10.8087 99.0148H132.518C138.489 99.0148 143.329 94.1907 143.329 88.2391V84.2139C143.329 84.2139 0 84.5344 0 84.2139Z" fill="#C3D4FA"/>
</g>
<mask id="mask3" mask-type="alpha" maskUnits="userSpaceOnUse" x="0" y="0" width="144" height="85">
<path fill-rule="evenodd" clip-rule="evenodd" d="M0.000732422 0H143.329V84.4676H0.000732422V0Z" fill="white"/>
</mask>
<g mask="url(#mask3)">
<path fill-rule="evenodd" clip-rule="evenodd" d="M136.82 0H6.50957C2.91581 0 0.000732422 2.91588 0.000732422 6.51424V84.3245C0.000732422 84.6463 143.329 84.3245 143.329 84.3245V6.51424C143.329 2.91588 140.416 0 136.82 0Z" fill="#8CACF6"/>
</g>
<path fill-rule="evenodd" clip-rule="evenodd" d="M7.73315 76.3695H135.338V15.4673H7.73315V76.3695Z" fill="#E7EEFD"/>
<path fill-rule="evenodd" clip-rule="evenodd" d="M74.2081 91.3341C74.2081 92.7633 73.049 93.922 71.6194 93.922C70.1898 93.922 69.0308 92.7633 69.0308 91.3341C69.0308 89.9033 70.1898 88.7446 71.6194 88.7446C73.049 88.7446 74.2081 89.9033 74.2081 91.3341Z" stroke="white"/>
<path fill-rule="evenodd" clip-rule="evenodd" d="M37.3911 116.07H105.559V112.619H37.3911V116.07Z" fill="#8CACF6"/>
<path fill-rule="evenodd" clip-rule="evenodd" d="M51.1975 112.618H91.7533V99.0991H51.1975V112.618Z" fill="#0E3AA1"/>
<path fill-rule="evenodd" clip-rule="evenodd" d="M7.73315 16.4333H135.338V9.69971C135.338 9.14742 134.89 8.69971 134.338 8.69971H8.73315C8.18087 8.69971 7.73315 9.14742 7.73315 9.69971V16.4333Z" fill="#0E3AA1"/>
<path fill-rule="evenodd" clip-rule="evenodd" d="M20.629 12.5668C20.629 13.1017 20.1971 13.5335 19.6623 13.5335C19.1274 13.5335 18.6956 13.1017 18.6956 12.5668C18.6956 12.0319 19.1274 11.6001 19.6623 11.6001C20.1971 11.6001 20.629 12.0319 20.629 12.5668Z" fill="white"/>
<path fill-rule="evenodd" clip-rule="evenodd" d="M15.4517 12.5668C15.4517 13.1017 15.0199 13.5335 14.485 13.5335C13.9501 13.5335 13.5183 13.1017 13.5183 12.5668C13.5183 12.0319 13.9501 11.6001 14.485 11.6001C15.0199 11.6001 15.4517 12.0319 15.4517 12.5668Z" fill="white"/>
<path fill-rule="evenodd" clip-rule="evenodd" d="M25.8064 12.5668C25.8064 13.1017 25.3733 13.5335 24.8406 13.5335C24.3062 13.5335 23.873 13.1017 23.873 12.5668C23.873 12.0319 24.3062 11.6001 24.8406 11.6001C25.3733 11.6001 25.8064 12.0319 25.8064 12.5668Z" fill="white"/>
<path d="M25.1338 35.2242C28.4771 32.8514 34.7983 30.1764 40.6009 28.0337C45.0566 29.8996 50.6937 31.8261 56.068 35.2242C56.068 40.3591 54.7521 45.9454 54.1334 48.5761C52.8448 54.0537 48.3332 58.1621 40.5997 60.9015C32.8661 58.1621 28.3545 54.0537 27.066 48.5761C26.4437 45.9353 25.1338 40.3604 25.1338 35.2242Z" fill="url(#paint0_linear)"/>
<path d="M56.0681 35.2242C50.6939 31.8261 45.0568 29.8996 40.601 28.0337L40.5999 60.9015C48.3334 58.1621 52.845 54.0537 54.1335 48.5761L54.1368 48.5623C54.7568 45.9259 56.0681 40.3502 56.0681 35.2242Z" fill="#759EFC"/>
<path d="M40.1908 36.3112C40.37 35.8989 40.9561 35.8989 41.1353 36.3112L43.0582 40.7354C43.1328 40.907 43.295 41.0246 43.4816 41.0424L48.2931 41.4998C48.7415 41.5424 48.9226 42.0986 48.585 42.396L44.9619 45.5878C44.8213 45.7116 44.7594 45.9018 44.8001 46.0844L45.8509 50.7914C45.9488 51.23 45.4747 51.5737 45.0868 51.3452L40.9247 48.8936C40.7633 48.7985 40.5628 48.7985 40.4014 48.8936L36.2393 51.3452C35.8514 51.5737 35.3772 51.23 35.4752 50.7914L36.526 46.0844C36.5667 45.9018 36.5048 45.7116 36.3642 45.5878L32.7411 42.396C32.4035 42.0986 32.5846 41.5424 33.033 41.4998L37.8445 41.0424C38.0311 41.0246 38.1933 40.907 38.2679 40.7354L40.1908 36.3112Z" fill="#FFD560"/>
<path d="M40.1908 36.3112C40.37 35.8989 40.9561 35.8989 41.1353 36.3112L43.0582 40.7354C43.1328 40.907 43.295 41.0246 43.4816 41.0424L48.2931 41.4998C48.7415 41.5424 48.9226 42.0986 48.585 42.396L44.9619 45.5878C44.8213 45.7116 44.7594 45.9018 44.8001 46.0844L45.8509 50.7914C45.9488 51.23 45.4747 51.5737 45.0868 51.3452L40.9247 48.8936C40.7633 48.7985 40.5628 48.7985 40.4014 48.8936L36.2393 51.3452C35.8514 51.5737 35.3772 51.23 35.4752 50.7914L36.526 46.0844C36.5667 45.9018 36.5048 45.7116 36.3642 45.5878L32.7411 42.396C32.4035 42.0986 32.5846 41.5424 33.033 41.4998L37.8445 41.0424C38.0311 41.0246 38.1933 40.907 38.2679 40.7354L40.1908 36.3112Z" fill="url(#paint1_diamond)"/>
<path d="M71.5354 36.7349H119.87" stroke="#B7CBF9" stroke-width="2" stroke-linecap="round" stroke-linejoin="round"/>
<path d="M71.5352 48.335H119.87" stroke="#B7CBF9" stroke-width="2" stroke-linecap="round" stroke-linejoin="round"/>
<path d="M71.5352 42.5342H119.87" stroke="#B7CBF9" stroke-width="2" stroke-linecap="round" stroke-linejoin="round"/>
<path d="M71.5352 54.1357H119.87" stroke="#B7CBF9" stroke-width="2" stroke-linecap="round" stroke-linejoin="round"/>
<defs>
<linearGradient id="paint0_linear" x1="46.4012" y1="67.1851" x2="17.2712" y2="32.166" gradientUnits="userSpaceOnUse">
<stop stop-color="#376EEE"/>
<stop offset="1" stop-color="#8CACF6"/>
</linearGradient>
<radialGradient id="paint1_diamond" cx="0" cy="0" r="1" gradientUnits="userSpaceOnUse" gradientTransform="translate(40.663 43.71) rotate(90) scale(10.909 11.459)">
<stop stop-color="#FFF0BB"/>
<stop offset="1" stop-color="#FFC72C"/>
</radialGradient>
</defs>
</svg>
