<svg width="40" height="45" viewBox="0 0 40 45" fill="none" xmlns="http://www.w3.org/2000/svg">
<path d="M30.8472 19.9998C30.8472 25.9907 25.9907 30.8472 19.9998 30.8472C14.0089 30.8472 9.15234 25.9907 9.15234 19.9998C9.15234 14.0089 14.0089 9.15234 19.9998 9.15234C25.9907 9.15234 30.8472 14.0089 30.8472 19.9998Z" fill="#C3D4FA"/>
<path fill-rule="evenodd" clip-rule="evenodd" d="M26.8623 26.0991C26.4891 26.5189 25.8463 26.5567 25.4266 26.1836L18.9835 20.4564L18.9835 14.576C18.9835 14.0144 19.4388 13.5591 20.0005 13.5591C20.5621 13.5591 21.0174 14.0144 21.0174 14.576L21.0174 19.5431L26.7778 24.6634C27.1976 25.0365 27.2354 25.6793 26.8623 26.0991Z" fill="#376EEE"/>
<path fill-rule="evenodd" clip-rule="evenodd" d="M35.7973 32.2657C38.6873 28.5435 40.1702 23.9204 39.9844 19.2116C39.7987 14.5029 37.9562 10.011 34.7819 6.52803C31.6076 3.04511 27.3054 0.794903 22.6341 0.174259C17.9627 -0.446384 13.2222 0.6024 9.24861 3.13565C5.27501 5.6689 2.32354 9.52389 0.914706 14.0208C-0.494129 18.5177 -0.26983 23.3676 1.54804 27.7153C1.76471 28.2335 2.36041 28.4779 2.87858 28.2612C3.39675 28.0445 3.64118 27.4489 3.42451 26.9307C1.79151 23.0251 1.59002 18.6684 2.85558 14.6288C4.12115 10.5893 6.77247 7.1263 10.342 4.85067C13.9115 2.57504 18.1699 1.63291 22.3662 2.19044C26.5625 2.74797 30.4272 4.76934 33.2787 7.89807C36.1301 11.0268 37.7853 15.0619 37.9521 19.2918C38.119 23.5217 36.7869 27.6747 34.1908 31.0183C31.5946 34.362 27.9012 36.6815 23.7618 37.5679C19.9401 38.3862 15.9648 37.9344 12.4356 36.2961L17.8824 34.5263C18.4165 34.3527 18.7088 33.779 18.5353 33.2449C18.3617 32.7107 17.788 32.4184 17.2538 32.5919L9.51644 35.106C8.98229 35.2795 8.68996 35.8532 8.86352 36.3874L11.3776 44.1248C11.5511 44.659 12.1248 44.9513 12.659 44.7777C13.1931 44.6042 13.4855 44.0305 13.3119 43.4963L11.5705 38.1368C15.5014 39.9639 19.9301 40.4684 24.1877 39.5567C28.7957 38.57 32.9072 35.9878 35.7973 32.2657Z" fill="#376EEE"/>
</svg>
