<svg width="217" height="106" viewBox="0 0 217 106" fill="none" xmlns="http://www.w3.org/2000/svg">
<rect x="85" y="0.432129" width="127" height="105" rx="0.68" fill="#E7EEFD"/>
<path fill-rule="evenodd" clip-rule="evenodd" d="M85 7.88799H212.335V1C212.335 0.447716 211.887 0 211.335 0H86C85.4477 0 85 0.447715 85 1V7.88799Z" fill="#0E3AA1"/>
<path fill-rule="evenodd" clip-rule="evenodd" d="M97.0027 4.02342C97.0027 4.57997 96.6198 5.02927 96.1454 5.02927C95.671 5.02927 95.2881 4.57997 95.2881 4.02342C95.2881 3.46688 95.671 3.01758 96.1454 3.01758C96.6198 3.01758 97.0027 3.46688 97.0027 4.02342Z" fill="white"/>
<path fill-rule="evenodd" clip-rule="evenodd" d="M91.8587 4.02342C91.8587 4.57997 91.4757 5.02927 91.0014 5.02927C90.527 5.02927 90.144 4.57997 90.144 4.02342C90.144 3.46688 90.527 3.01758 91.0014 3.01758C91.4757 3.01758 91.8587 3.46688 91.8587 4.02342Z" fill="white"/>
<path fill-rule="evenodd" clip-rule="evenodd" d="M102.147 4.02342C102.147 4.57997 101.762 5.02927 101.29 5.02927C100.816 5.02927 100.432 4.57997 100.432 4.02342C100.432 3.46688 100.816 3.01758 101.29 3.01758C101.762 3.01758 102.147 3.46688 102.147 4.02342Z" fill="white"/>
<path fill-rule="evenodd" clip-rule="evenodd" d="M182.613 94.4321H115.388C112.965 94.4321 111 92.9898 111 91.2098V24.655C111 22.875 112.965 21.4321 115.388 21.4321H182.613C185.036 21.4321 187 22.875 187 24.655V91.2098C187 92.9898 185.036 94.4321 182.613 94.4321Z" fill="white"/>
<path opacity="0.8" fill-rule="evenodd" clip-rule="evenodd" d="M168.147 35.9258C167.381 35.4752 132.599 17.4516 126.713 43.4887C120.827 69.5263 153.026 75.0439 163.134 69.4504C173.242 63.8582 181.286 43.6511 168.147 35.9258Z" fill="#FFF0BB"/>
<path fill-rule="evenodd" clip-rule="evenodd" d="M141.49 37.5907C139.634 37.9661 137.558 39.3969 137.47 39.9962C137.382 40.5961 137.559 42.4604 137.559 42.4604C137.559 42.4604 135.813 41.2032 136.016 45.2962C136.22 49.3899 139.117 62.2968 140.88 63.6534C142.643 65.01 145.505 65.0132 146.829 64.532C148.155 64.0501 152.25 62.8812 155.43 62.2535C158.61 61.6265 157.336 61.971 160.026 60.5783C162.715 59.1855 161.984 57.4328 161.66 56.5142C161.336 55.5956 159.148 50.4601 159.05 48.6558C159.003 47.7824 158.659 45.8413 158.203 42.2798C158.067 41.218 157.921 40.0117 157.77 38.6473C157.703 38.0442 157.546 36.6018 156.56 36.0425C156.142 35.8044 155.597 35.8309 154.509 35.8844C152.774 35.9696 152.389 36.4469 152.281 36.6037C152.182 36.7456 152.131 36.885 152.104 36.9817C152.085 37.1707 152.048 37.4352 151.969 37.7429C151.9 38.01 151.156 40.7251 148.766 41.4018C147.933 41.6373 146.928 41.6063 145.734 41.1032C145.734 41.1032 144.2 40.4903 143.107 37.8616C143.107 37.8616 142.964 37.2926 141.49 37.5907Z" fill="#FFD560"/>
<path fill-rule="evenodd" clip-rule="evenodd" d="M158.251 42.2871C158.251 42.2871 145.886 46.1456 140.63 46.216C140.63 46.216 141.007 48.3923 141.117 48.5407C141.229 48.6884 156.86 46.271 158.616 44.9737L158.251 42.2871Z" fill="#FEFEFE"/>
<path fill-rule="evenodd" clip-rule="evenodd" d="M158.818 47.1162C158.818 47.1162 147.686 51.2464 141.717 50.8501L141.343 53.3762C141.343 53.3762 154.776 52.832 159.151 49.5972C159.151 49.5972 158.952 48.0473 158.818 47.1162Z" fill="#FEFEFE"/>
<path fill-rule="evenodd" clip-rule="evenodd" d="M161.786 56.7744C161.786 56.7744 151.493 61.0614 142.41 61.2271L142.534 63.0312C142.534 63.0312 153.108 63.2871 161.578 59.273C161.578 59.273 161.985 59.245 161.999 57.7287C161.999 57.7287 162.021 57.4247 161.786 56.7744Z" fill="#FEFEFE"/>
<path fill-rule="evenodd" clip-rule="evenodd" d="M159.907 51.9453C159.907 51.9453 148.449 57.5814 142.519 56.2052C142.519 56.2052 141.897 58.515 141.877 58.6559C141.856 58.7975 151.219 60.2985 160.753 54.2174L159.907 51.9453Z" fill="#FEFEFE"/>
<path fill-rule="evenodd" clip-rule="evenodd" d="M142.248 63.2133C142.183 63.2133 142.12 63.1731 142.096 63.1075C141.511 61.5475 141.186 59.2531 140.949 57.5776C140.878 57.0852 140.815 56.6383 140.754 56.2666C140.74 56.1823 139.349 47.8117 138.346 45.3747C137.426 43.1374 137.901 41.5715 137.921 41.506C137.948 41.421 138.04 41.373 138.125 41.4002C138.211 41.4268 138.258 41.5176 138.231 41.6033C138.227 41.6182 137.775 43.1302 138.647 45.2521C139.663 47.7222 141.06 56.1291 141.074 56.2134C141.136 56.5877 141.2 57.0372 141.27 57.5322C141.505 59.1928 141.828 61.467 142.4 62.9947C142.432 63.0784 142.389 63.1718 142.305 63.2029C142.287 63.21 142.267 63.2133 142.248 63.2133Z" fill="#E4AB0F"/>
<path fill-rule="evenodd" clip-rule="evenodd" d="M137.195 43.897C137.151 43.897 137.107 43.8944 137.063 43.8878C136.827 43.8534 136.63 43.7266 136.476 43.5127C136.316 43.2895 136.345 43.1211 136.398 43.0193C136.612 42.6073 137.632 42.635 137.939 42.6541C138.027 42.6588 138.094 42.7374 138.089 42.8278C138.084 42.9196 138.024 42.9969 137.921 42.9837C137.396 42.952 136.758 43.024 136.679 43.1759C136.666 43.1996 136.687 43.2531 136.731 43.3159C136.834 43.4579 136.956 43.5384 137.107 43.5602C137.475 43.6164 137.878 43.3046 137.882 43.3013C137.951 43.2459 138.051 43.2611 138.105 43.333C138.158 43.4057 138.144 43.5094 138.074 43.5642C138.056 43.5794 137.647 43.897 137.195 43.897Z" fill="#E4AB0F"/>
<path fill-rule="evenodd" clip-rule="evenodd" d="M153.095 36.0269C153.095 36.0269 153.159 38.5714 152.158 39.8688C151.155 41.1667 149.643 41.695 145.745 41.695C142.231 40.7328 141.877 37.4205 141.877 37.4205C141.877 37.4205 142.994 37.1997 143.135 37.7498C143.275 38.2999 144.125 39.6004 144.52 39.992C144.914 40.3836 146.063 40.5966 148.344 40.3957C150.625 40.1954 151.961 38.4142 152.126 37.3062C152.29 36.1982 152.481 36.2618 153.095 36.0269Z" fill="#E4AB0F"/>
<path fill-rule="evenodd" clip-rule="evenodd" d="M137.619 78.3168C137.619 78.628 137.872 78.8803 138.183 78.8803H175.369C175.68 78.8803 175.932 78.628 175.932 78.3168C175.932 78.0057 175.68 77.7534 175.369 77.7534H138.183C137.872 77.7534 137.619 78.0057 137.619 78.3168Z" fill="#ADC4F8"/>
<path fill-rule="evenodd" clip-rule="evenodd" d="M137.619 81.6972C137.619 82.0084 137.872 82.2606 138.183 82.2606H175.369C175.68 82.2606 175.932 82.0084 175.932 81.6972C175.932 81.386 175.68 81.1338 175.369 81.1338H138.183C137.872 81.1338 137.619 81.386 137.619 81.6972Z" fill="#ADC4F8"/>
<path fill-rule="evenodd" clip-rule="evenodd" d="M137.619 85.0781C137.619 85.3892 137.872 85.6415 138.183 85.6415H161.847C162.158 85.6415 162.41 85.3892 162.41 85.0781C162.41 84.7669 162.158 84.5146 161.847 84.5146H138.183C137.872 84.5146 137.619 84.7669 137.619 85.0781Z" fill="#ADC4F8"/>
<path fill-rule="evenodd" clip-rule="evenodd" d="M127.49 87.2815C124.561 87.2815 122.186 84.8965 122.186 81.954C122.186 79.0115 124.561 76.6265 127.49 76.6265C130.42 76.6265 132.795 79.0115 132.795 81.954C132.795 84.8965 130.42 87.2815 127.49 87.2815Z" fill="#ECF1FD"/>
<path fill-rule="evenodd" clip-rule="evenodd" d="M128.688 79.8916C128.688 80.5561 128.152 81.0949 127.491 81.0949C126.829 81.0949 126.292 80.5561 126.292 79.8916C126.292 79.2272 126.829 78.689 127.491 78.689C128.152 78.689 128.688 79.2272 128.688 79.8916Z" fill="#1D4BEA"/>
<path fill-rule="evenodd" clip-rule="evenodd" d="M125.095 84.0163C125.095 82.6874 126.205 81.6104 127.576 81.6104C128.946 81.6104 130.057 82.6874 130.057 84.0163H125.095Z" fill="#1D4BEA"/>
<path d="M192.286 41.709L215.56 65.0846C216.355 65.883 216.355 67.1775 215.56 67.9759L211.322 72.2327C210.527 73.0311 209.238 73.0311 208.443 72.2327L185.169 48.857L192.286 41.709Z" fill="#F0B616"/>
<path d="M192.286 41.709L215.56 65.0846C216.355 65.883 216.355 67.1775 215.56 67.9759L211.322 72.2327C210.527 73.0311 209.238 73.0311 208.443 72.2327L185.169 48.857L192.286 41.709Z" fill="url(#paint0_linear)"/>
<path d="M172.786 57.823C188.571 57.823 201.312 45.0263 201.244 29.2408C201.175 13.4554 188.323 0.658691 172.537 0.658691C156.751 0.658691 144.01 13.4554 144.079 29.2408C144.148 45.0263 157 57.823 172.786 57.823Z" fill="#FFC72C"/>
<path d="M172.573 53.6915C185.489 53.6915 195.959 42.9306 195.959 29.6563C195.959 16.382 185.489 5.62109 172.573 5.62109C159.658 5.62109 149.188 16.382 149.188 29.6563C149.188 42.9306 159.658 53.6915 172.573 53.6915Z" fill="#FFF0BB"/>
<path d="M172.573 53.6915C185.489 53.6915 195.959 42.9306 195.959 29.6563C195.959 16.382 185.489 5.62109 172.573 5.62109C159.658 5.62109 149.188 16.382 149.188 29.6563C149.188 42.9306 159.658 53.6915 172.573 53.6915Z" fill="url(#paint1_linear)"/>
<mask id="mask0" mask-type="alpha" maskUnits="userSpaceOnUse" x="149" y="5" width="47" height="49">
<path d="M172.573 53.6915C185.489 53.6915 195.959 42.9306 195.959 29.6563C195.959 16.382 185.489 5.62109 172.573 5.62109C159.658 5.62109 149.188 16.382 149.188 29.6563C149.188 42.9306 159.658 53.6915 172.573 53.6915Z" fill="white"/>
</mask>
<g mask="url(#mask0)">
<rect opacity="0.5" x="140.216" y="16.9028" width="44.1728" height="63.6608" rx="2" fill="white"/>
<path fill-rule="evenodd" clip-rule="evenodd" d="M172.166 32.8177C171.442 32.3731 138.54 14.5828 132.972 40.2827C127.404 65.9832 157.863 71.4292 167.424 65.9082C176.986 60.3884 184.595 40.443 172.166 32.8177Z" fill="#FFF0BB"/>
<path fill-rule="evenodd" clip-rule="evenodd" d="M145.338 33.7386C143.323 33.9576 140.997 35.1879 140.859 35.7652C140.721 36.343 140.776 38.1745 140.776 38.1745C140.776 38.1745 138.998 36.8106 138.92 40.8168C138.843 44.8237 141.015 57.6355 142.805 59.0977C144.595 60.5598 147.66 60.7897 149.113 60.4255C150.568 60.0607 155.038 59.2456 158.489 58.8856C161.939 58.5262 160.551 58.7612 163.531 57.6165C166.512 56.4718 165.855 54.7052 165.575 53.7841C165.294 52.8629 163.32 47.6831 163.347 45.9165C163.359 45.0613 163.13 43.1417 162.899 39.6337C162.829 38.5878 162.76 37.4002 162.697 36.0582C162.669 35.465 162.605 34.0464 161.589 33.4231C161.158 33.1578 160.573 33.1405 159.403 33.1065C157.54 33.0521 157.093 33.487 156.965 33.6312C156.849 33.7617 156.785 33.8935 156.749 33.9857C156.715 34.1684 156.656 34.4233 156.549 34.717C156.456 34.9719 155.464 37.5599 152.855 38.0303C151.947 38.1938 150.43 38.686 149.188 38.101C149.188 38.101 148.031 36.78 147.05 34.1308C147.05 34.1308 146.938 33.5648 145.338 33.7386Z" fill="#FFC72C"/>
<path fill-rule="evenodd" clip-rule="evenodd" d="M162.95 39.6449C162.95 39.6449 149.429 42.4269 143.795 42.0791C143.795 42.0791 144.042 44.2306 144.15 44.384C144.258 44.5368 161.173 43.4183 163.147 42.2928L162.95 39.6449Z" fill="#FEFEFE" fill-opacity="0.8"/>
<path fill-rule="evenodd" clip-rule="evenodd" d="M163.209 44.3975C163.209 44.3975 150.988 47.542 144.625 46.6828L144.042 49.1158C144.042 49.1158 158.468 49.6494 163.386 46.8424C163.386 46.8424 163.285 45.3157 163.209 44.3975Z" fill="#FEFEFE" fill-opacity="0.8"/>
<path fill-rule="evenodd" clip-rule="evenodd" d="M165.692 54.048C165.692 54.048 154.359 57.4119 144.62 56.8539L144.622 58.6224C144.622 58.6224 155.928 59.7095 165.289 56.4672C165.289 56.4672 165.726 56.4722 165.851 54.9952C165.851 54.9952 165.896 54.7005 165.692 54.048Z" fill="#FEFEFE" fill-opacity="0.8"/>
<path fill-rule="evenodd" clip-rule="evenodd" d="M164.027 49.1914C164.027 49.1914 151.35 53.7782 145.098 51.9668C145.098 51.9668 144.265 54.1694 144.233 54.3051C144.2 54.4414 154.12 56.6464 164.769 51.4734L164.027 49.1914Z" fill="#FEFEFE" fill-opacity="0.8"/>
<path opacity="0.6" fill-rule="evenodd" clip-rule="evenodd" d="M157.879 33.1332C157.879 33.1332 157.775 35.6197 156.442 36.7928C155.108 37.9664 152.818 40.01 148.538 38.7503C144.259 37.4906 143.896 33.465 143.896 33.465C143.896 33.465 145.294 33.352 145.429 33.9012C145.564 34.4504 146.522 35.796 146.981 36.2138C147.441 36.6316 148.299 38.0878 151.137 38.1007C153.974 38.1143 156.304 35.3568 156.587 34.2917C156.871 33.2267 157.102 33.306 157.879 33.1332Z" fill="#AF5E0E"/>
<path fill-rule="evenodd" clip-rule="evenodd" d="M176.471 14.066C176.471 12.9897 177.343 12.1172 178.42 12.1172C180.04 12.1172 181.645 12.4364 183.143 13.0567C184.64 13.677 186.001 14.5861 187.147 15.7322C188.293 16.8783 189.202 18.2389 189.822 19.7364C190.443 21.2338 190.762 22.8388 190.762 24.4596C190.762 25.5359 189.889 26.4084 188.813 26.4084C187.737 26.4084 186.864 25.5359 186.864 24.4596C186.864 23.3506 186.646 22.2525 186.221 21.2279C185.797 20.2033 185.175 19.2724 184.391 18.4882C183.607 17.704 182.676 17.082 181.651 16.6576C180.627 16.2332 179.528 16.0148 178.42 16.0148C177.343 16.0148 176.471 15.1423 176.471 14.066Z" fill="white"/>
</g>
<path fill-rule="evenodd" clip-rule="evenodd" d="M86.0888 40.4803L46.1694 51.1767C45.1025 51.4626 44.4693 52.5593 44.7552 53.6262L56.6221 97.9139C56.9079 98.9809 58.0046 99.614 59.0715 99.3282L103.259 87.488C104.326 87.2022 104.96 86.1055 104.674 85.0386L92.8068 40.7508C92.8046 40.7425 92.8023 40.7341 92.7999 40.7258L93.9017 44.8379L86.0888 40.4803Z" fill="#8CACF6"/>
<rect x="50.0066" y="56.019" width="40.4018" height="39.8164" rx="4" transform="rotate(-15 50.0066 56.019)" fill="white"/>
<rect x="65.8684" y="71.5894" width="4.7392" height="10.0407" rx="1" transform="rotate(-15 65.8684 71.5894)" fill="#C3D4FA"/>
<rect x="67.8618" y="79.0283" width="4.7392" height="2.3696" transform="rotate(-15 67.8618 79.0283)" fill="#8CACF6"/>
<path fill-rule="evenodd" clip-rule="evenodd" d="M71.9617 69.152C71.8188 68.6185 72.1353 68.0702 72.6688 67.9272L75.3147 67.2183C75.8481 67.0753 76.3965 67.3919 76.5394 67.9254L79.0883 77.4378C79.2312 77.9713 78.9146 78.5196 78.3812 78.6625L75.7353 79.3715C75.2018 79.5144 74.6535 79.1979 74.5105 78.6644L71.9617 69.152Z" fill="#C3D4FA"/>
<path fill-rule="evenodd" clip-rule="evenodd" d="M73.2361 73.9082L77.8138 72.6816L79.3392 78.3747L74.7615 79.6012L73.2361 73.9082Z" fill="#8CACF6"/>
<path fill-rule="evenodd" clip-rule="evenodd" d="M77.1829 63.4601C77.0399 62.9266 77.3565 62.3783 77.89 62.2353L80.5359 61.5264C81.0693 61.3834 81.6177 61.7 81.7606 62.2335L85.3827 75.7514C85.5257 76.2849 85.2091 76.8332 84.6756 76.9761L82.0298 77.6851C81.4963 77.828 80.948 77.5115 80.805 76.978L77.1829 63.4601Z" fill="#C3D4FA"/>
<rect x="77.9895" y="66.4707" width="4.7392" height="11.848" transform="rotate(-15 77.9895 66.4707)" fill="#8CACF6"/>
<path d="M64.9162 68.7679L70.6288 62.3208L73.0172 63.3793L78.5054 57.2266" stroke="#92F1D3" stroke-linecap="round" stroke-linejoin="round"/>
<path fill-rule="evenodd" clip-rule="evenodd" d="M80.0017 54.4802C80.3441 54.3582 80.6981 54.6307 80.6678 54.993L80.375 58.4822C80.342 58.8762 79.8864 59.0778 79.5726 58.8372L76.5583 56.5265C76.2438 56.2854 76.3214 55.7917 76.6946 55.6587L80.0017 54.4802Z" fill="#92F1D3"/>
<rect x="64.7915" y="82.3042" width="25.3992" height="1.1848" rx="0.5924" transform="rotate(-15 64.7915 82.3042)" fill="#8CACF6"/>
<path d="M93.9636 45.0684L87.7634 46.7297L86.0889 40.4803L93.9636 45.0684Z" fill="#1D4BEA"/>
<path fill-rule="evenodd" clip-rule="evenodd" d="M12.5739 20.5176C11.507 20.2318 10.4103 20.8649 10.1245 21.9319L0.517621 57.785C0.231738 58.852 0.864903 59.9486 1.93184 60.2345L46.1197 72.0746C47.1867 72.3605 48.2833 71.7274 48.5692 70.6604L58.1761 34.8072C58.1782 34.7993 58.1803 34.7913 58.1823 34.7834L57.019 39.1248L52.4933 31.2141L56.7768 32.3618C56.7718 32.3604 56.7668 32.3591 56.7618 32.3578L12.5739 20.5176Z" fill="#C3D4FA"/>
<rect x="12.4861" y="25.5176" width="43.3278" height="30.3175" rx="4" transform="rotate(15 12.4861 25.5176)" fill="white"/>
<path d="M32.2661 47.9287L46.2968 51.6882" stroke="#8CACF6" stroke-width="2" stroke-linecap="round" stroke-linejoin="round"/>
<path d="M30.8921 52.5718L44.9227 56.3313" stroke="#8CACF6" stroke-width="2" stroke-linecap="round" stroke-linejoin="round"/>
<path d="M19.1452 51.1879C23.6193 52.3867 28.2782 49.5073 29.5512 44.7564C30.8241 40.0056 28.2291 35.1825 23.7551 33.9837C19.281 32.7848 14.6221 35.6643 13.3491 40.4151C12.0761 45.1659 14.6711 49.9891 19.1452 51.1879Z" fill="#FFE380"/>
<path d="M13.5825 39.5368L22.5378 41.695L24.3682 34.0794C19.9773 32.6048 15.1484 34.8743 13.5825 39.5368Z" fill="#C3D4FA"/>
<path d="M24.6729 32.964L15.9873 30.6367L13.66 39.3224L22.3456 41.6497L24.6729 32.964Z" stroke="#8CACF6" stroke-linecap="round" stroke-linejoin="round"/>
<path d="M57.0188 39.1245L50.8186 37.4632L52.4931 31.2138L57.0188 39.1245Z" fill="#8CACF6"/>
<defs>
<linearGradient id="paint0_linear" x1="193.36" y1="49.7941" x2="215.989" y2="74.5773" gradientUnits="userSpaceOnUse">
<stop stop-color="#E4AB0F"/>
<stop offset="1" stop-color="white" stop-opacity="0"/>
</linearGradient>
<linearGradient id="paint1_linear" x1="156.983" y1="49.794" x2="188.813" y2="10.818" gradientUnits="userSpaceOnUse">
<stop stop-color="white"/>
<stop offset="1" stop-color="white" stop-opacity="0"/>
</linearGradient>
</defs>
</svg>
