<svg width="280" height="120" viewBox="0 0 280 120" fill="none" xmlns="http://www.w3.org/2000/svg">
<g style="mix-blend-mode:darken">
<path d="M196.928 120C192.424 108.335 188.656 95.8394 187.54 88.3809C185.757 76.4592 188.432 68.4132 194.97 67.518C201.508 66.6239 206.329 78.002 206.329 78.002C206.329 78.002 209.111 61.8863 214.056 51.3498C219.002 40.8111 229.509 35.8538 236.31 44.2204C243.11 52.588 237.941 83.3367 237.941 83.3367C238.913 82.6934 247.079 77.4027 251.889 80.4796C257.059 83.788 254.864 94.525 253.929 99.0964C252.378 106.689 248.329 114.265 244.087 120" fill="#C3D4FA"/>
<path d="M215.199 117.5L226.6 58.8003" stroke="#376EEE" stroke-opacity="0.5" stroke-width="1.5" stroke-linecap="round" stroke-linejoin="round"/>
<path fill-rule="evenodd" clip-rule="evenodd" d="M80 24H208V120H80V24Z" fill="#E7EEFD"/>
<path opacity="0.8" fill-rule="evenodd" clip-rule="evenodd" d="M80 18C80 15.7909 81.7909 14 84 14H100C102.209 14 104 15.7909 104 18V24H80V18Z" fill="#C3D4FA"/>
<path d="M199 111H91V112H199V111Z" fill="#376EEE" fill-opacity="0.1"/>
<path d="M199 102H91V103H199V102Z" fill="#376EEE" fill-opacity="0.1"/>
<path d="M199 93H91V94H199V93Z" fill="#376EEE" fill-opacity="0.1"/>
<path fill-rule="evenodd" clip-rule="evenodd" d="M61 54H76.4286C77.1106 54 77.7646 54.281 78.2468 54.781C78.7291 55.2811 79 55.9594 79 56.6667V59.3333C79 60.0406 78.7291 60.7189 78.2468 61.219C77.7646 61.719 77.1106 62 76.4286 62H61V54Z" fill="#92F1D3"/>
<path fill-rule="evenodd" clip-rule="evenodd" d="M61 62H63V72H61V62Z" fill="#1ACC94"/>
<path fill-rule="evenodd" clip-rule="evenodd" d="M61.2 72C66.2922 72 71.1758 74.0229 74.7765 77.6235C78.3772 81.2242 80.4 86.1078 80.4 91.2V120H42V91.2L42.0096 90.6C42.1655 85.6142 44.2556 80.8848 47.8375 77.4131C51.4194 73.9414 56.2118 72.0001 61.2 72Z" fill="#C3D4FA"/>
<path fill-rule="evenodd" clip-rule="evenodd" d="M74.7765 77.6235C71.1758 74.0229 66.2922 72 61.2 72H89.8C94.7882 72.0001 99.5806 73.9414 103.162 77.4131C106.744 80.8848 108.835 85.6142 108.99 90.6L109 91.2V120H80.4V91.2C80.4 86.1078 78.3772 81.2242 74.7765 77.6235ZM61 72.001V72H61.2C61.1333 72 61.0666 72.0003 61 72.001Z" fill="#8CACF6"/>
<path opacity="0.5" fill-rule="evenodd" clip-rule="evenodd" d="M61.2002 77.2002C64.9132 77.2002 68.4742 78.7218 71.0997 81.4302C73.7252 84.1386 75.2002 87.812 75.2002 91.6423V120H47.2002V91.6423L47.2082 91.1471C47.3327 87.4048 48.8613 83.8585 51.4717 81.2565C54.0822 78.6545 57.5702 77.2001 61.2002 77.2002Z" fill="#8CACF6"/>
<path d="M75 106H55V120H75V106Z" fill="#0E3AA1"/>
<path d="M105 50.85L140.8 24L176.6 50.85H105Z" fill="#F0B616"/>
<path d="M105 50.8501H176.6V93.6001C176.6 94.7047 175.705 95.6001 174.6 95.6001H107C105.895 95.6001 105 94.7047 105 93.6001V50.8501Z" fill="#F0B616"/>
<path d="M113.95 38.8682C113.95 36.659 115.741 34.8682 117.95 34.8682H163.65C165.859 34.8682 167.65 36.659 167.65 38.8682V88.5682H113.95V38.8682Z" fill="white"/>
<rect x="122.9" y="61.7183" width="35.8" height="4.475" fill="#C3D4FA" fill-opacity="0.4"/>
<path d="M105 50.8501V93.6001C105 94.7047 105.896 95.6001 107 95.6001H170.634L105 50.8501Z" fill="#FFDF85"/>
<rect x="122.9" y="43.8174" width="35.8" height="4.475" fill="#C3D4FA" fill-opacity="0.4"/>
<rect x="122.9" y="52.7681" width="35.8" height="4.475" fill="#C3D4FA" fill-opacity="0.4"/>
<path d="M176.633 51V93.75C176.633 94.8546 175.738 95.75 174.633 95.75H111L176.633 51Z" fill="#FFC72C"/>
<rect width="12" height="3" rx="1.5" transform="matrix(0.707107 -0.707107 -0.707107 -0.707107 175 34.6064)" fill="#FFC72C"/>
<rect width="10" height="3" rx="1.5" transform="matrix(0.939693 -0.34202 -0.34202 -0.939693 175 41.7646)" fill="#FFC72C"/>
</g>
</svg>
