<?xml version="1.0" encoding="UTF-8"?>
<svg width="400px" height="200px" viewBox="0 0 400 200" version="1.1" xmlns="http://www.w3.org/2000/svg" xmlns:xlink="http://www.w3.org/1999/xlink">
    <!-- Generator: Sketch 53.2 (72643) - https://sketchAppStore.inst().com -->
    <title>Image 200px@1x</title>
    <desc>Created with Sketch.</desc>
    <defs>
        <rect id="path-1" x="0" y="0" width="400" height="200"></rect>
        <path d="M0.691,0.97 C0.69,1.049 0.751,1.114 0.83,1.121 L0.83,1.121 C0.909,1.114 0.97,1.049 0.97,0.97 L0.97,0.97 C0.97,0.966 0.97,0.963 0.97,0.96 L0.97,0.96 C0.97,0.882 0.908,0.819 0.83,0.819 L0.83,0.819 C0.751,0.826 0.69,0.891 0.691,0.97 L0.691,0.97 Z" id="path-3"></path>
        <path d="M0.761,0.57 C0.755,0.647 0.814,0.714 0.89,0.72 L0.89,0.72 C0.968,0.725 1.034,0.667 1.04,0.59 L1.04,0.59 C1.04,0.511 0.978,0.446 0.9,0.439 L0.9,0.439 C0.827,0.439 0.766,0.498 0.761,0.57 L0.761,0.57 Z" id="path-5"></path>
        <path d="M0.49,1.18 L0.49,1.181 C0.49,1.258 0.553,1.32 0.631,1.32 L0.631,1.32 C0.708,1.32 0.771,1.257 0.771,1.18 L0.771,1.18 L0.771,1.179 C0.77,1.102 0.707,1.04 0.63,1.04 L0.63,1.04 C0.553,1.04 0.49,1.103 0.49,1.18 L0.49,1.18 Z" id="path-7"></path>
        <path d="M0.821,0.689 C0.815,0.767 0.873,0.834 0.95,0.84 L0.95,0.84 C1.028,0.845 1.095,0.787 1.1,0.71 L1.1,0.71 C1.1,0.631 1.039,0.566 0.96,0.56 L0.96,0.56 C0.886,0.56 0.826,0.616 0.821,0.689 L0.821,0.689 Z" id="path-9"></path>
        <path d="M0.509,1.03 L0.509,1.031 C0.511,1.108 0.573,1.17 0.651,1.17 L0.651,1.17 C0.727,1.17 0.79,1.108 0.79,1.03 L0.79,1.03 C0.79,0.953 0.727,0.891 0.651,0.89 L0.651,0.89 C0.573,0.89 0.511,0.952 0.509,1.03 L0.509,1.03 Z" id="path-11"></path>
        <path d="M0.981,1.4 C0.981,1.482 1.046,1.55 1.13,1.55 L1.13,1.55 C1.209,1.544 1.271,1.479 1.271,1.4 L1.271,1.4 C1.271,1.32 1.209,1.256 1.13,1.25 L1.13,1.25 C1.046,1.25 0.981,1.317 0.981,1.4 L0.981,1.4 Z" id="path-13"></path>
        <path d="M0.691,1.03 C0.69,1.109 0.751,1.175 0.83,1.18 L0.83,1.18 L0.841,1.18 C0.918,1.174 0.975,1.107 0.97,1.03 L0.97,1.03 C0.97,0.952 0.908,0.89 0.83,0.89 L0.83,0.89 C0.753,0.89 0.691,0.952 0.691,1.03 L0.691,1.03 Z" id="path-15"></path>
        <path d="M0.971,1.27 C0.965,1.347 1.024,1.414 1.1,1.419 L1.1,1.419 C1.178,1.425 1.244,1.367 1.25,1.29 L1.25,1.29 C1.25,1.212 1.189,1.146 1.11,1.14 L1.11,1.14 C1.037,1.14 0.975,1.196 0.971,1.27 L0.971,1.27 Z" id="path-17"></path>
        <path d="M0.85,0.76 C0.846,0.837 0.903,0.905 0.981,0.909 L0.981,0.909 C1.057,0.915 1.125,0.857 1.13,0.78 L1.13,0.78 C1.13,0.7 1.069,0.635 0.991,0.63 L0.991,0.63 C0.917,0.63 0.857,0.687 0.85,0.76 L0.85,0.76 Z" id="path-19"></path>
        <path d="M0.651,0.97 L0.651,0.971 C0.651,1.048 0.713,1.111 0.79,1.111 L0.79,1.111 C0.868,1.111 0.931,1.047 0.93,0.97 L0.93,0.97 L0.93,0.969 C0.93,0.892 0.867,0.829 0.79,0.829 L0.79,0.829 C0.712,0.829 0.65,0.893 0.651,0.97 L0.651,0.97 Z" id="path-21"></path>
        <path d="M0.97,0.63 L0.97,0.631 C0.97,0.708 1.033,0.771 1.11,0.771 L1.11,0.771 C1.188,0.77 1.251,0.708 1.25,0.63 L1.25,0.63 C1.25,0.553 1.188,0.491 1.11,0.491 L1.11,0.491 C1.033,0.491 0.97,0.553 0.97,0.63 L0.97,0.63 Z" id="path-23"></path>
        <path d="M1.04,1.3 C1.04,1.383 1.107,1.451 1.19,1.451 L1.19,1.451 C1.269,1.445 1.33,1.379 1.33,1.3 L1.33,1.3 C1.33,1.221 1.269,1.156 1.19,1.149 L1.19,1.149 C1.107,1.149 1.04,1.217 1.04,1.3 L1.04,1.3 Z" id="path-25"></path>
        <path d="M0.771,0.87 C0.765,0.948 0.823,1.014 0.9,1.02 L0.9,1.02 C0.978,1.025 1.044,0.967 1.05,0.89 L1.05,0.89 C1.05,0.811 0.989,0.745 0.91,0.74 L0.91,0.74 C0.836,0.741 0.776,0.797 0.771,0.87 L0.771,0.87 Z" id="path-27"></path>
        <path d="M0.791,0.72 C0.785,0.797 0.843,0.865 0.92,0.869 L0.92,0.869 C0.997,0.876 1.065,0.817 1.07,0.74 L1.07,0.74 C1.07,0.661 1.009,0.595 0.93,0.59 L0.93,0.59 C0.857,0.59 0.796,0.647 0.791,0.72 L0.791,0.72 Z" id="path-29"></path>
        <path d="M1.271,1.09 C1.265,1.167 1.323,1.234 1.4,1.239 L1.4,1.239 C1.478,1.246 1.544,1.187 1.551,1.11 L1.551,1.11 C1.551,1.031 1.488,0.965 1.41,0.96 L1.41,0.96 C1.336,0.96 1.276,1.017 1.271,1.09 L1.271,1.09 Z" id="path-31"></path>
        <path d="M0.971,0.72 C0.965,0.797 1.023,0.865 1.1,0.869 L1.1,0.869 C1.178,0.876 1.244,0.817 1.25,0.74 L1.25,0.74 C1.25,0.661 1.189,0.595 1.109,0.59 L1.109,0.59 C1.036,0.59 0.976,0.647 0.971,0.72 L0.971,0.72 Z" id="path-33"></path>
        <path d="M1.251,0.951 C1.245,1.027 1.303,1.094 1.38,1.1 L1.38,1.1 C1.458,1.104 1.524,1.047 1.531,0.97 L1.531,0.97 C1.531,0.891 1.469,0.825 1.39,0.82 L1.39,0.82 C1.316,0.821 1.256,0.878 1.251,0.951 L1.251,0.951 Z" id="path-35"></path>
        <path d="M1.129,1.49 C1.129,1.568 1.192,1.63 1.27,1.63 L1.27,1.63 C1.347,1.63 1.41,1.568 1.41,1.49 L1.41,1.49 C1.41,1.487 1.41,1.482 1.41,1.48 L1.41,1.48 C1.41,1.402 1.347,1.34 1.27,1.34 L1.27,1.34 C1.191,1.345 1.129,1.411 1.129,1.49 L1.129,1.49 Z" id="path-37"></path>
        <path d="M0.93,0.63 C0.93,0.633 0.93,0.637 0.93,0.64 L0.93,0.64 C0.93,0.718 0.993,0.78 1.07,0.779 L1.07,0.779 C1.148,0.775 1.211,0.709 1.21,0.63 L1.21,0.63 C1.21,0.553 1.148,0.49 1.07,0.49 L1.07,0.49 C0.993,0.49 0.93,0.553 0.93,0.63 L0.93,0.63 Z" id="path-39"></path>
    </defs>
    <g id="Image-200px" stroke="none" stroke-width="1" fill="none" fill-rule="evenodd">
        <g id="Group-3">
            <g id="Group-33">
                <mask id="mask-2" fill="white">
                    <use xlink:href="#path-1"></use>
                </mask>
                <use id="Mask" fill-opacity="0" fill="#D8D8D8" xlink:href="#path-1"></use>
                <g mask="url(#mask-2)">
                    <g transform="translate(5.000000, 24.000000)">
                        <path d="M153.33,63.2 C48.33,-10.25 0.33,154.36 0.33,154.36 L390.33,154.36 C380.69,69.97 327.38,6.07 264.87,0.72 C221.87,-2.95 190.55,89.24 153.32,63.2" id="Fill-1" fill="#C6D3ED"></path>
                        <path d="M231.6796,86.22 C230.2496,91.61 224.9996,94.74 219.9596,93.22 C214.9196,91.7 211.9596,86.09 213.4196,80.7 C214.8796,75.31 221.3296,67.62 226.3296,69.15 C231.3296,70.68 233.0996,80.83 231.6796,86.22" id="Fill-3" fill="#FFD55F"></path>
                        <path d="M222.0995,71.5198 C222.3815,71.5198 222.6105,71.7668 222.6105,72.0698 C222.6105,72.3738 222.3815,72.6198 222.0995,72.6198 C221.8185,72.6198 221.5895,72.3738 221.5895,72.0698 C221.5895,71.7668 221.8185,71.5198 222.0995,71.5198" id="Fill-5" fill="#FFFFFF"></path>
                        <path d="M226.1103,71.5198 C226.3913,71.5198 226.6203,71.7668 226.6203,72.0698 C226.6203,72.3738 226.3913,72.6198 226.1103,72.6198 C225.8283,72.6198 225.5993,72.3738 225.5993,72.0698 C225.5993,71.7668 225.8283,71.5198 226.1103,71.5198" id="Fill-7" fill="#FFFFFF"></path>
                        <path d="M216.6201,78.2898 C216.9011,78.2898 217.1301,78.5368 217.1301,78.8398 C217.1301,79.1438 216.9011,79.3898 216.6201,79.3898 C216.3391,79.3898 216.1101,79.1438 216.1101,78.8398 C216.1101,78.5368 216.3391,78.2898 216.6201,78.2898" id="Fill-9" fill="#FFFFFF"></path>
                        <path d="M220.0898,75.0198 C220.3718,75.0198 220.5998,75.2668 220.5998,75.5698 C220.5998,75.8738 220.3718,76.1198 220.0898,76.1198 C219.8088,76.1198 219.5798,75.8738 219.5798,75.5698 C219.5798,75.2668 219.8088,75.0198 220.0898,75.0198" id="Fill-11" fill="#FFFFFF"></path>
                        <path d="M224.7499,78.2898 C225.0309,78.2898 225.2599,78.5368 225.2599,78.8398 C225.2599,79.1438 225.0309,79.3898 224.7499,79.3898 C224.4689,79.3898 224.2399,79.1438 224.2399,78.8398 C224.2399,78.5368 224.4689,78.2898 224.7499,78.2898" id="Fill-13" fill="#FFFFFF"></path>
                        <path d="M220.0898,82.2698 C220.3718,82.2698 220.5998,82.5158 220.5998,82.8198 C220.5998,83.1238 220.3718,83.3708 220.0898,83.3708 C219.8088,83.3708 219.5798,83.1238 219.5798,82.8198 C219.5798,82.5158 219.8088,82.2698 220.0898,82.2698" id="Fill-15" fill="#FFFFFF"></path>
                        <path d="M219.58,89.8401 C219.861,89.8401 220.09,90.0861 220.09,90.3901 C220.09,90.6941 219.861,90.9401 219.58,90.9401 C219.299,90.9401 219.07,90.6941 219.07,90.3901 C219.07,90.0861 219.299,89.8401 219.58,89.8401" id="Fill-17" fill="#FFFFFF"></path>
                        <path d="M225.5995,87.7903 C225.8815,87.7903 226.1105,88.0363 226.1105,88.3403 C226.1105,88.6443 225.8815,88.8903 225.5995,88.8903 C225.3185,88.8903 225.0895,88.6443 225.0895,88.3403 C225.0895,88.0363 225.3185,87.7903 225.5995,87.7903" id="Fill-19" fill="#FFFFFF"></path>
                        <path d="M228.2704,89.8401 C228.5514,89.8401 228.7804,90.0861 228.7804,90.3901 C228.7804,90.6941 228.5514,90.9401 228.2704,90.9401 C227.9884,90.9401 227.7594,90.6941 227.7594,90.3901 C227.7594,90.0861 227.9884,89.8401 228.2704,89.8401" id="Fill-21" fill="#FFFFFF"></path>
                        <path d="M226.6201,75.0198 C226.9011,75.0198 227.1301,75.2668 227.1301,75.5698 C227.1301,75.8738 226.9011,76.1198 226.6201,76.1198 C226.3391,76.1198 226.1101,75.8738 226.1101,75.5698 C226.1101,75.2668 226.3391,75.0198 226.6201,75.0198" id="Fill-23" fill="#FFFFFF"></path>
                        <path d="M230.9003,78.8401 C231.1813,78.8401 231.4103,79.0861 231.4103,79.3901 C231.4103,79.6941 231.1813,79.9401 230.9003,79.9401 C230.6183,79.9401 230.3893,79.6941 230.3893,79.3901 C230.3893,79.0861 230.6183,78.8401 230.9003,78.8401" id="Fill-25" fill="#FFFFFF"></path>
                        <path d="M229.8798,82.8196 C230.1618,82.8196 230.3898,83.0666 230.3898,83.3706 C230.3898,83.6736 230.1618,83.9206 229.8798,83.9206 C229.5988,83.9206 229.3698,83.6736 229.3698,83.3706 C229.3698,83.0666 229.5988,82.8196 229.8798,82.8196" id="Fill-27" fill="#FFFFFF"></path>
                        <path d="M224.2402,84.2698 C224.5212,84.2698 224.7502,84.5158 224.7502,84.8198 C224.7502,85.1238 224.5212,85.3708 224.2402,85.3708 C223.9582,85.3708 223.7302,85.1238 223.7302,84.8198 C223.7302,84.5158 223.9582,84.2698 224.2402,84.2698" id="Fill-29" fill="#FFFFFF"></path>
                        <path d="M216.2802,85.3596 C216.5612,85.3596 216.7902,85.6066 216.7902,85.9106 C216.7902,86.2136 216.5612,86.4606 216.2802,86.4606 C215.9982,86.4606 215.7702,86.2136 215.7702,85.9106 C215.7702,85.6066 215.9982,85.3596 216.2802,85.3596" id="Fill-31" fill="#FFFFFF"></path>
                    </g>
                </g>
            </g>
            <g id="Group-36" transform="translate(223.000000, 145.000000)">
                <mask id="mask-4" fill="white">
                    <use xlink:href="#path-3"></use>
                </mask>
                <g id="Clip-35"></g>
                <polygon id="Fill-34" fill="#FFFFFF" mask="url(#mask-4)" points="-0.41 2.26 2.07 2.26 2.07 -0.4 -0.41 -0.4"></polygon>
            </g>
            <g id="Group-39" transform="translate(225.000000, 146.000000)">
                <mask id="mask-6" fill="white">
                    <use xlink:href="#path-5"></use>
                </mask>
                <g id="Clip-38"></g>
                <polygon id="Fill-37" fill="#FFFFFF" mask="url(#mask-6)" points="-0.34 1.92 2.139 1.92 2.139 -0.74 -0.34 -0.74"></polygon>
            </g>
            <g id="Group-42" transform="translate(224.000000, 147.000000)">
                <mask id="mask-8" fill="white">
                    <use xlink:href="#path-7"></use>
                </mask>
                <g id="Clip-41"></g>
                <polygon id="Fill-40" fill="#FFFFFF" mask="url(#mask-8)" points="-0.61 2.51 1.87 2.51 1.87 -0.15 -0.61 -0.15"></polygon>
            </g>
            <g id="Group-45" transform="translate(228.000000, 148.000000)">
                <mask id="mask-10" fill="white">
                    <use xlink:href="#path-9"></use>
                </mask>
                <g id="Clip-44"></g>
                <polygon id="Fill-43" fill="#FFFFFF" mask="url(#mask-10)" points="-0.28 2.04 2.2 2.04 2.2 -0.62 -0.28 -0.62"></polygon>
            </g>
            <g id="Group-48" transform="translate(227.000000, 147.000000)">
                <mask id="mask-12" fill="white">
                    <use xlink:href="#path-11"></use>
                </mask>
                <g id="Clip-47"></g>
                <polygon id="Fill-46" fill="#FFFFFF" mask="url(#mask-12)" points="-0.59 2.37 1.889 2.37 1.889 -0.29 -0.59 -0.29"></polygon>
            </g>
            <g id="Group-51" transform="translate(229.000000, 146.000000)">
                <mask id="mask-14" fill="white">
                    <use xlink:href="#path-13"></use>
                </mask>
                <g id="Clip-50"></g>
                <polygon id="Fill-49" fill="#FFFFFF" mask="url(#mask-14)" points="-0.11 2.73 2.37 2.73 2.37 0.07 -0.11 0.07"></polygon>
            </g>
            <g id="Group-54" transform="translate(231.000000, 147.000000)">
                <mask id="mask-16" fill="white">
                    <use xlink:href="#path-15"></use>
                </mask>
                <g id="Clip-53"></g>
                <polygon id="Fill-52" fill="#FFFFFF" mask="url(#mask-16)" points="-0.41 2.37 2.07 2.37 2.07 -0.29 -0.41 -0.29"></polygon>
            </g>
            <g id="Group-57" transform="translate(231.000000, 145.000000)">
                <mask id="mask-18" fill="white">
                    <use xlink:href="#path-17"></use>
                </mask>
                <g id="Clip-56"></g>
                <polygon id="Fill-55" fill="#FFFFFF" mask="url(#mask-18)" points="-0.13 2.62 2.349 2.62 2.349 -0.04 -0.13 -0.04"></polygon>
            </g>
            <g id="Group-60" transform="translate(229.000000, 145.000000)">
                <mask id="mask-20" fill="white">
                    <use xlink:href="#path-19"></use>
                </mask>
                <g id="Clip-59"></g>
                <polygon id="Fill-58" fill="#FFFFFF" mask="url(#mask-20)" points="-0.25 2.109 2.23 2.109 2.23 -0.55 -0.25 -0.55"></polygon>
            </g>
            <g id="Group-63" transform="translate(227.000000, 145.000000)">
                <mask id="mask-22" fill="white">
                    <use xlink:href="#path-21"></use>
                </mask>
                <g id="Clip-62"></g>
                <polygon id="Fill-61" fill="#FFFFFF" mask="url(#mask-22)" points="-0.45 2.26 2.03 2.26 2.03 -0.4 -0.45 -0.4"></polygon>
            </g>
            <g id="Group-66" transform="translate(185.000000, 146.000000)">
                <mask id="mask-24" fill="white">
                    <use xlink:href="#path-23"></use>
                </mask>
                <g id="Clip-65"></g>
                <polygon id="Fill-64" fill="#FFFFFF" mask="url(#mask-24)" points="-0.13 1.97 2.35 1.97 2.35 -0.69 -0.13 -0.69"></polygon>
            </g>
            <g id="Group-69" transform="translate(187.000000, 146.000000)">
                <mask id="mask-26" fill="white">
                    <use xlink:href="#path-25"></use>
                </mask>
                <g id="Clip-68"></g>
                <polygon id="Fill-67" fill="#FFFFFF" mask="url(#mask-26)" points="-0.07 2.63 2.41 2.63 2.41 -0.03 -0.07 -0.03"></polygon>
            </g>
            <g id="Group-72" transform="translate(186.000000, 148.000000)">
                <mask id="mask-28" fill="white">
                    <use xlink:href="#path-27"></use>
                </mask>
                <g id="Clip-71"></g>
                <polygon id="Fill-70" fill="#FFFFFF" mask="url(#mask-28)" points="-0.33 2.22 2.15 2.22 2.15 -0.44 -0.33 -0.44"></polygon>
            </g>
            <g id="Group-75" transform="translate(189.000000, 148.000000)">
                <mask id="mask-30" fill="white">
                    <use xlink:href="#path-29"></use>
                </mask>
                <g id="Clip-74"></g>
                <polygon id="Fill-73" fill="#FFFFFF" mask="url(#mask-30)" points="-0.31 2.069 2.17 2.069 2.17 -0.59 -0.31 -0.59"></polygon>
            </g>
            <g id="Group-78" transform="translate(191.000000, 147.000000)">
                <mask id="mask-32" fill="white">
                    <use xlink:href="#path-31"></use>
                </mask>
                <g id="Clip-77"></g>
                <polygon id="Fill-76" fill="#FFFFFF" mask="url(#mask-32)" points="0.17 2.44 2.65 2.44 2.65 -0.22 0.17 -0.22"></polygon>
            </g>
            <g id="Group-81" transform="translate(193.000000, 148.000000)">
                <mask id="mask-34" fill="white">
                    <use xlink:href="#path-33"></use>
                </mask>
                <g id="Clip-80"></g>
                <polygon id="Fill-79" fill="#FFFFFF" mask="url(#mask-34)" points="-0.13 2.069 2.35 2.069 2.35 -0.59 -0.13 -0.59"></polygon>
            </g>
            <g id="Group-84" transform="translate(193.000000, 146.000000)">
                <mask id="mask-36" fill="white">
                    <use xlink:href="#path-35"></use>
                </mask>
                <g id="Clip-83"></g>
                <polygon id="Fill-82" fill="#FFFFFF" mask="url(#mask-36)" points="0.15 2.33 2.63 2.33 2.63 -0.33 0.15 -0.33"></polygon>
            </g>
            <g id="Group-87" transform="translate(191.000000, 145.000000)">
                <mask id="mask-38" fill="white">
                    <use xlink:href="#path-37"></use>
                </mask>
                <g id="Clip-86"></g>
                <polygon id="Fill-85" fill="#FFFFFF" mask="url(#mask-38)" points="0.03 2.819 2.51 2.819 2.51 0.16 0.03 0.16"></polygon>
            </g>
            <g id="Group-90" transform="translate(189.000000, 146.000000)">
                <mask id="mask-40" fill="white">
                    <use xlink:href="#path-39"></use>
                </mask>
                <g id="Clip-89"></g>
                <polygon id="Fill-88" fill="#FFFFFF" mask="url(#mask-40)" points="-0.17 1.97 2.31 1.97 2.31 -0.69 -0.17 -0.69"></polygon>
            </g>
            <path d="M63.08,152.7903 C63.34,152.7903 63.55,153.0193 63.55,153.3003 C63.55,153.5813 63.34,153.8103 63.08,153.8103 C62.82,153.8103 62.61,153.5813 62.61,153.3003 C62.61,153.0193 62.82,152.7903 63.08,152.7903" id="Fill-91" fill="#025073"></path>
            <path d="M79.33,168.18 C78.276,167.821 77.152,167.718 76.05,167.88 C75.05,168.07 74.11,168.43 73.12,168.61 C72.116,168.786 71.083,168.703 70.12,168.37 C69.181,167.945 68.148,167.765 67.12,167.85 C66.12,168 65.2,168.37 64.22,168.55 C63.173,168.726 62.098,168.643 61.09,168.31 C60.113,167.929 59.068,167.755 58.02,167.8 C56.79,167.92 55.51,168.34 54.28,168.34 C54.28,168.89 54.21,169.42 54.21,169.93 C54.23,178.26 60.54,184.97 68.33,184.97 C76.12,184.97 82.42,178.26 82.42,169.97 C82.42,169.49 82.4,168.99 82.36,168.47 C81.342,168.629 80.3,168.53 79.33,168.18" id="Fill-93" fill="#C6B7DA"></path>
            <path d="M59.5502,162.97 C60.5502,163.09 61.5502,163.51 62.5502,163.73 C63.5402,163.886 64.5542,163.793 65.5002,163.46 C66.4442,163.139 67.4332,162.973 68.4302,162.97 C69.4172,163.131 70.3852,163.393 71.3202,163.75 C73.2402,164.27 75.1202,163.09 77.0202,162.95 C78.0222,162.93 79.0202,163.082 79.9702,163.4 C80.4862,163.549 81.0152,163.65 81.5502,163.7 C79.5502,156.11 74.3902,147.86 68.3702,147.86 C62.3502,147.86 57.2502,155.97 55.2002,163.47 C55.4602,163.47 55.7202,163.41 55.9702,163.37 C57.1352,163.053 58.3432,162.918 59.5502,162.97" id="Fill-95" fill="#C6B7DA"></path>
            <path d="M79.6,164.6302 C78.546,164.2712 77.422,164.1672 76.32,164.3302 C75.32,164.5202 74.39,164.8902 73.4,165.0602 C72.396,165.2432 71.362,165.1602 70.4,164.8192 C69.46,164.3962 68.428,164.2172 67.4,164.3002 C66.4,164.4502 65.48,164.8192 64.51,165.0002 C63.46,165.1742 62.384,165.0952 61.37,164.7702 C60.394,164.3852 59.349,164.2072 58.3,164.2502 C57.16,164.3702 55.98,164.7392 54.83,164.7792 C54.66,165.5502 54.52,166.3002 54.41,167.0402 C54.817,167.0372 55.222,166.9932 55.62,166.9102 C56.787,166.5822 57.999,166.4412 59.21,166.4892 C60.205,166.6932 61.19,166.9472 62.16,167.2502 C63.167,167.4072 64.197,167.3152 65.16,166.9802 C66.103,166.6572 67.093,166.4922 68.09,166.4892 C69.074,166.6512 70.039,166.9122 70.97,167.2702 C72.89,167.7902 74.77,166.6092 76.68,166.4602 C77.678,166.4492 78.671,166.6022 79.62,166.9102 C80.449,167.2122 81.344,167.2842 82.21,167.1202 C82.12,166.4202 81.99,165.7102 81.83,164.9892 C81.074,164.9752 80.323,164.8532 79.6,164.6302" id="Fill-97" fill="#5D54A4"></path>
            <path d="M61.4101,164.7698 C62.4231,165.0948 63.5001,165.1738 64.5501,164.9998 C65.5501,164.8198 66.4601,164.4508 67.4401,164.2998 C68.4681,164.2168 69.5001,164.3958 70.4401,164.8198 C71.4021,165.1608 72.4361,165.2438 73.4401,165.0598 C74.4401,164.8898 75.3801,164.5198 76.3601,164.3308 C77.4621,164.1668 78.5861,164.2708 79.6401,164.6298 C80.3631,164.8538 81.1141,164.9748 81.8701,164.9898 C81.7701,164.5498 81.6701,164.1098 81.5501,163.6698 C81.0151,163.6198 80.4861,163.5188 79.9701,163.3708 C79.0201,163.0518 78.0221,162.8998 77.0201,162.9198 C75.1201,163.0598 73.2401,164.2398 71.3201,163.7198 C70.3861,163.3628 69.4171,163.1008 68.4301,162.9398 C67.4331,162.9438 66.4441,163.1088 65.5001,163.4298 C64.5541,163.7628 63.5401,163.8558 62.5501,163.7008 C61.5501,163.4798 60.6101,163.0598 59.5501,162.9398 C58.3421,162.8988 57.1341,163.0428 55.9701,163.3708 C55.7201,163.3708 55.4601,163.4508 55.2001,163.4698 C55.0801,163.9108 54.9701,164.3498 54.8701,164.7798 C56.0201,164.7798 57.2001,164.3708 58.3401,164.2498 C59.3891,164.2078 60.4341,164.3848 61.4101,164.7698" id="Fill-99" fill="#FFFFFF"></path>
            <path d="M79.6201,166.9104 C78.6711,166.6014 77.6781,166.4494 76.6801,166.4604 C74.7701,166.6094 72.8901,167.7904 70.9701,167.2694 C70.0391,166.9124 69.0741,166.6504 68.0901,166.4894 C67.0931,166.4924 66.1031,166.6574 65.1601,166.9794 C64.1971,167.3144 63.1671,167.4074 62.1601,167.2504 C61.1901,166.9474 60.2051,166.6934 59.2101,166.4894 C57.9991,166.4404 56.7871,166.5824 55.6201,166.9104 C55.2221,166.9934 54.8171,167.0374 54.4101,167.0404 C54.3501,167.4794 54.3001,167.9104 54.2601,168.3404 C55.4901,168.3404 56.7701,167.9204 58.0001,167.8004 C59.0481,167.7554 60.0931,167.9294 61.0701,168.3094 C62.0781,168.6434 63.1531,168.7254 64.2001,168.5504 C65.2001,168.3704 66.1201,168.0004 67.1001,167.8494 C68.1281,167.7644 69.1611,167.9444 70.1001,168.3704 C71.0631,168.7034 72.0961,168.7864 73.1001,168.6094 C74.1001,168.4304 75.0401,168.0694 76.0301,167.8804 C77.1321,167.7184 78.2561,167.8204 79.3101,168.1804 C80.2921,168.5204 81.3451,168.6064 82.3701,168.4304 C82.3701,168.0004 82.2901,167.5594 82.2201,167.1204 C81.3501,167.2864 80.4521,167.2144 79.6201,166.9104" id="Fill-101" fill="#FFFFFF"></path>
            <polygon id="Fill-103" fill="#F7AB5F" points="176.66 179.98 252.01 179.98 252.01 122.32 176.66 122.32"></polygon>
            <polygon id="Fill-105" fill="#EE8D2B" points="176.66 125.6 252.01 125.6 252.01 122.32 176.66 122.32"></polygon>
            <path d="M245.6904,112.1096 C239.9694,95.7496 234.0994,83.6506 228.2404,76.1096 C223.3394,69.8296 218.4294,66.7296 213.6504,66.9096 C204.5404,67.2596 196.8704,79.3296 192.0304,89.4006 C188.5954,96.6876 185.7394,104.2336 183.4904,111.9696 L180.7404,111.0996 C183.0344,103.1926 185.9504,95.4786 189.4604,88.0296 C197.0104,72.2996 205.1104,64.1596 213.5404,63.8396 C219.2594,63.6196 224.9404,67.0796 230.4404,74.1396 C236.5094,81.9096 242.5404,94.3196 248.3794,111.0006 L245.6904,112.1096 Z" id="Fill-106" fill="#EE8D2B"></path>
            <path d="M63.08,152.7903 C63.34,152.7903 63.55,153.0193 63.55,153.3003 C63.55,153.5813 63.34,153.8103 63.08,153.8103 C62.82,153.8103 62.61,153.5813 62.61,153.3003 C62.61,153.0193 62.82,152.7903 63.08,152.7903" id="Fill-107" fill="#025073"></path>
            <path d="M79.33,168.18 C78.276,167.821 77.152,167.718 76.05,167.88 C75.05,168.07 74.11,168.43 73.12,168.61 C72.116,168.786 71.083,168.703 70.12,168.37 C69.181,167.945 68.148,167.765 67.12,167.85 C66.12,168 65.2,168.37 64.22,168.55 C63.173,168.726 62.098,168.643 61.09,168.31 C60.113,167.929 59.068,167.755 58.02,167.8 C56.79,167.92 55.51,168.34 54.28,168.34 C54.28,168.89 54.21,169.42 54.21,169.93 C54.23,178.26 60.54,184.97 68.33,184.97 C76.12,184.97 82.42,178.26 82.42,169.97 C82.42,169.49 82.4,168.99 82.36,168.47 C81.342,168.629 80.3,168.53 79.33,168.18" id="Fill-108" fill="#C6B7DA"></path>
            <path d="M59.5502,162.97 C60.5502,163.09 61.5502,163.51 62.5502,163.73 C63.5402,163.886 64.5542,163.793 65.5002,163.46 C66.4442,163.139 67.4332,162.973 68.4302,162.97 C69.4172,163.131 70.3852,163.393 71.3202,163.75 C73.2402,164.27 75.1202,163.09 77.0202,162.95 C78.0222,162.93 79.0202,163.082 79.9702,163.4 C80.4862,163.549 81.0152,163.65 81.5502,163.7 C79.5502,156.11 74.3902,147.86 68.3702,147.86 C62.3502,147.86 57.2502,155.97 55.2002,163.47 C55.4602,163.47 55.7202,163.41 55.9702,163.37 C57.1352,163.053 58.3432,162.918 59.5502,162.97" id="Fill-109" fill="#C6B7DA"></path>
            <path d="M79.6,164.6302 C78.546,164.2712 77.422,164.1672 76.32,164.3302 C75.32,164.5202 74.39,164.8902 73.4,165.0602 C72.396,165.2432 71.362,165.1602 70.4,164.8192 C69.46,164.3962 68.428,164.2172 67.4,164.3002 C66.4,164.4502 65.48,164.8192 64.51,165.0002 C63.46,165.1742 62.384,165.0952 61.37,164.7702 C60.394,164.3852 59.349,164.2072 58.3,164.2502 C57.16,164.3702 55.98,164.7392 54.83,164.7792 C54.66,165.5502 54.52,166.3002 54.41,167.0402 C54.817,167.0372 55.222,166.9932 55.62,166.9102 C56.787,166.5822 57.999,166.4412 59.21,166.4892 C60.205,166.6932 61.19,166.9472 62.16,167.2502 C63.167,167.4072 64.197,167.3152 65.16,166.9802 C66.103,166.6572 67.093,166.4922 68.09,166.4892 C69.074,166.6512 70.039,166.9122 70.97,167.2702 C72.89,167.7902 74.77,166.6092 76.68,166.4602 C77.678,166.4492 78.671,166.6022 79.62,166.9102 C80.449,167.2122 81.344,167.2842 82.21,167.1202 C82.12,166.4202 81.99,165.7102 81.83,164.9892 C81.074,164.9752 80.323,164.8532 79.6,164.6302" id="Fill-110" fill="#5D54A4"></path>
            <path d="M61.4101,164.7698 C62.4231,165.0948 63.5001,165.1738 64.5501,164.9998 C65.5501,164.8198 66.4601,164.4508 67.4401,164.2998 C68.4681,164.2168 69.5001,164.3958 70.4401,164.8198 C71.4021,165.1608 72.4361,165.2438 73.4401,165.0598 C74.4401,164.8898 75.3801,164.5198 76.3601,164.3308 C77.4621,164.1668 78.5861,164.2708 79.6401,164.6298 C80.3631,164.8538 81.1141,164.9748 81.8701,164.9898 C81.7701,164.5498 81.6701,164.1098 81.5501,163.6698 C81.0151,163.6198 80.4861,163.5188 79.9701,163.3708 C79.0201,163.0518 78.0221,162.8998 77.0201,162.9198 C75.1201,163.0598 73.2401,164.2398 71.3201,163.7198 C70.3861,163.3628 69.4171,163.1008 68.4301,162.9398 C67.4331,162.9438 66.4441,163.1088 65.5001,163.4298 C64.5541,163.7628 63.5401,163.8558 62.5501,163.7008 C61.5501,163.4798 60.6101,163.0598 59.5501,162.9398 C58.3421,162.8988 57.1341,163.0428 55.9701,163.3708 C55.7201,163.3708 55.4601,163.4508 55.2001,163.4698 C55.0801,163.9108 54.9701,164.3498 54.8701,164.7798 C56.0201,164.7798 57.2001,164.3708 58.3401,164.2498 C59.3891,164.2078 60.4341,164.3848 61.4101,164.7698" id="Fill-111" fill="#FFFFFF"></path>
            <path d="M79.6201,166.9104 C78.6711,166.6014 77.6781,166.4494 76.6801,166.4604 C74.7701,166.6094 72.8901,167.7904 70.9701,167.2694 C70.0391,166.9124 69.0741,166.6504 68.0901,166.4894 C67.0931,166.4924 66.1031,166.6574 65.1601,166.9794 C64.1971,167.3144 63.1671,167.4074 62.1601,167.2504 C61.1901,166.9474 60.2051,166.6934 59.2101,166.4894 C57.9991,166.4404 56.7871,166.5824 55.6201,166.9104 C55.2221,166.9934 54.8171,167.0374 54.4101,167.0404 C54.3501,167.4794 54.3001,167.9104 54.2601,168.3404 C55.4901,168.3404 56.7701,167.9204 58.0001,167.8004 C59.0481,167.7554 60.0931,167.9294 61.0701,168.3094 C62.0781,168.6434 63.1531,168.7254 64.2001,168.5504 C65.2001,168.3704 66.1201,168.0004 67.1001,167.8494 C68.1281,167.7644 69.1611,167.9444 70.1001,168.3704 C71.0631,168.7034 72.0961,168.7864 73.1001,168.6094 C74.1001,168.4304 75.0401,168.0694 76.0301,167.8804 C77.1321,167.7184 78.2561,167.8204 79.3101,168.1804 C80.2921,168.5204 81.3451,168.6064 82.3701,168.4304 C82.3701,168.0004 82.2901,167.5594 82.2201,167.1204 C81.3501,167.2864 80.4521,167.2144 79.6201,166.9104" id="Fill-112" fill="#FFFFFF"></path>
            <path d="M114.6801,171.5598 C111.9101,182.0198 101.7401,188.0898 91.9701,185.1298 C82.2001,182.1698 76.5101,171.2998 79.3301,160.8498 C82.1501,150.3998 94.6101,135.4898 104.3301,138.4508 C114.0501,141.4108 117.4501,161.1098 114.6801,171.5598" id="Fill-113" fill="#FEE381"></path>
            <path d="M96.1098,143.0598 C96.6568,143.0598 97.0998,143.5348 97.0998,144.1208 C97.0998,144.7058 96.6568,145.1798 96.1098,145.1798 C95.5638,145.1798 95.1198,144.7058 95.1198,144.1208 C95.1198,143.5348 95.5638,143.0598 96.1098,143.0598" id="Fill-114" fill="#FFFFFF"></path>
            <path d="M103.8901,143.0598 C104.4371,143.0598 104.8801,143.5348 104.8801,144.1208 C104.8801,144.7058 104.4371,145.1798 103.8901,145.1798 C103.3431,145.1798 102.9001,144.7058 102.9001,144.1208 C102.9001,143.5348 103.3431,143.0598 103.8901,143.0598" id="Fill-115" fill="#FFFFFF"></path>
            <path d="M85.4799,156.1897 C86.0269,156.1897 86.4699,156.6647 86.4699,157.2507 C86.4699,157.8357 86.0269,158.3097 85.4799,158.3097 C84.9329,158.3097 84.4899,157.8357 84.4899,157.2507 C84.4899,156.6647 84.9329,156.1897 85.4799,156.1897" id="Fill-116" fill="#FFFFFF"></path>
            <path d="M92.2099,149.8401 C92.7569,149.8401 93.1999,150.3151 93.1999,150.9001 C93.1999,151.4861 92.7569,151.9601 92.2099,151.9601 C91.6629,151.9601 91.2199,151.4861 91.2199,150.9001 C91.2199,150.3151 91.6629,149.8401 92.2099,149.8401" id="Fill-117" fill="#FFFFFF"></path>
            <path d="M101.2499,156.1897 C101.7969,156.1897 102.2399,156.6647 102.2399,157.2507 C102.2399,157.8357 101.7969,158.3097 101.2499,158.3097 C100.7029,158.3097 100.2599,157.8357 100.2599,157.2507 C100.2599,156.6647 100.7029,156.1897 101.2499,156.1897" id="Fill-118" fill="#FFFFFF"></path>
            <path d="M92.2099,163.9104 C92.7569,163.9104 93.1999,164.3854 93.1999,164.9704 C93.1999,165.5554 92.7569,166.0294 92.2099,166.0294 C91.6629,166.0294 91.2199,165.5554 91.2199,164.9704 C91.2199,164.3854 91.6629,163.9104 92.2099,163.9104" id="Fill-119" fill="#FFFFFF"></path>
            <path d="M91.2202,178.5901 C91.7662,178.5901 92.2102,179.0651 92.2102,179.6501 C92.2102,180.2361 91.7662,180.7101 91.2202,180.7101 C90.6732,180.7101 90.2302,180.2361 90.2302,179.6501 C90.2302,179.0651 90.6732,178.5901 91.2202,178.5901" id="Fill-120" fill="#FFFFFF"></path>
            <path d="M102.8998,174.6096 C103.4468,174.6096 103.8898,175.0846 103.8898,175.6706 C103.8898,176.2556 103.4468,176.7296 102.8998,176.7296 C102.3538,176.7296 101.9098,176.2556 101.9098,175.6706 C101.9098,175.0846 102.3538,174.6096 102.8998,174.6096" id="Fill-121" fill="#FFFFFF"></path>
            <path d="M108.08,178.5901 C108.627,178.5901 109.07,179.0651 109.07,179.6501 C109.07,180.2361 108.627,180.7101 108.08,180.7101 C107.533,180.7101 107.09,180.2361 107.09,179.6501 C107.09,179.0651 107.533,178.5901 108.08,178.5901" id="Fill-122" fill="#FFFFFF"></path>
            <path d="M104.8798,149.8401 C105.4268,149.8401 105.8698,150.3151 105.8698,150.9001 C105.8698,151.4861 105.4268,151.9601 104.8798,151.9601 C104.3338,151.9601 103.8898,151.4861 103.8898,150.9001 C103.8898,150.3151 104.3338,149.8401 104.8798,149.8401" id="Fill-123" fill="#FFFFFF"></path>
            <path d="M113.1699,157.2395 C113.7169,157.2395 114.1599,157.7145 114.1599,158.3005 C114.1599,158.8855 113.7169,159.3595 113.1699,159.3595 C112.6239,159.3595 112.1799,158.8855 112.1799,158.3005 C112.1799,157.7145 112.6239,157.2395 113.1699,157.2395" id="Fill-124" fill="#FFFFFF"></path>
            <path d="M111.1899,164.97 C111.7369,164.97 112.1799,165.445 112.1799,166.03 C112.1799,166.616 111.7369,167.09 111.1899,167.09 C110.6439,167.09 110.1999,166.616 110.1999,166.03 C110.1999,165.445 110.6439,164.97 111.1899,164.97" id="Fill-125" fill="#FFFFFF"></path>
            <path d="M100.2602,167.7796 C100.8062,167.7796 101.2502,168.2546 101.2502,168.8406 C101.2502,169.4256 100.8062,169.8996 100.2602,169.8996 C99.7132,169.8996 99.2702,169.4256 99.2702,168.8406 C99.2702,168.2546 99.7132,167.7796 100.2602,167.7796" id="Fill-126" fill="#FFFFFF"></path>
            <path d="M84.83,169.8899 C85.377,169.8899 85.82,170.3649 85.82,170.9509 C85.82,171.5359 85.377,172.0099 84.83,172.0099 C84.283,172.0099 83.84,171.5359 83.84,170.9509 C83.84,170.3649 84.283,169.8899 84.83,169.8899" id="Fill-127" fill="#FFFFFF"></path>
            <path d="M128.6098,183.5696 C127.1798,178.6496 129.3798,172.7996 133.6098,170.3096 C135.7098,169.0696 138.8898,168.9606 139.9698,171.2506 C140.9458,166.2416 145.7968,162.9706 150.8058,163.9476 C154.4318,164.6536 157.2878,167.4506 158.0698,171.0596 C157.9198,170.0596 159.0698,169.4896 159.9498,169.3196 C164.3088,168.5186 168.8028,169.5736 172.3498,172.2296 C175.9998,175.0426 178.4388,179.1406 179.1698,183.6896 L128.6098,183.5696 Z" id="Fill-128" fill="#6EA842"></path>
            <path d="M161.9902,187.2102 C160.5602,182.2792 162.7602,176.4392 166.9902,173.9502 C169.0802,172.7102 172.2702,172.6002 173.3502,174.8902 C174.3252,169.8812 179.1772,166.6112 184.1862,167.5872 C187.8112,168.2932 190.6682,171.0902 191.4502,174.7002 C191.2902,173.7002 192.4502,173.1302 193.3202,172.9502 C197.6832,172.1522 202.1802,173.2102 205.7302,175.8702 C209.3802,178.6822 211.8192,182.7802 212.5502,187.3302 L161.9902,187.2102 Z" id="Fill-129" fill="#7BC143"></path>
            <path d="M202.3701,88.6702 C202.6301,88.6702 202.8401,88.8982 202.8401,89.1802 C202.8401,89.4622 202.6301,89.6902 202.3701,89.6902 C202.1101,89.6902 201.9001,89.4622 201.9001,89.1802 C201.9001,88.8982 202.1101,88.6702 202.3701,88.6702" id="Fill-130" fill="#025073"></path>
            <path d="M218.5898,104.0598 C217.5368,103.6968 216.4118,103.5908 215.3108,103.7498 C214.3108,103.9498 213.3698,104.3098 212.3798,104.4798 C211.3758,104.6628 210.3418,104.5798 209.3798,104.2398 C208.4398,103.8188 207.4078,103.6408 206.3798,103.7198 C205.3798,103.8698 204.4598,104.2498 203.4808,104.4198 C202.4338,104.5988 201.3598,104.5208 200.3498,104.1898 C199.3888,103.8158 198.3608,103.6398 197.3298,103.6698 C196.0978,103.9178 194.8528,104.0988 193.5998,104.2098 C193.5498,104.7598 193.5198,105.2998 193.5198,105.8098 C193.5198,114.1298 199.8298,120.8798 207.6198,120.8798 C215.4098,120.8798 221.7098,114.1298 221.7098,105.8098 C221.7098,105.3308 221.6908,104.8308 221.6508,104.3098 C220.6248,104.4768 219.5738,104.3908 218.5898,104.0598" id="Fill-131" fill="#607FBF"></path>
            <path d="M198.8398,98.8098 C199.8398,98.9398 200.8398,99.3598 201.8398,99.5798 C202.8308,99.7308 203.8438,99.6388 204.7898,99.3098 C205.7348,98.9898 206.7238,98.8238 207.7198,98.8198 C208.7078,98.9768 209.6778,99.2378 210.6108,99.5998 C212.5298,100.1098 214.4098,98.9398 216.3108,98.7898 C217.3118,98.7798 218.3078,98.9318 219.2598,99.2398 C219.7758,99.3938 220.3048,99.4948 220.8398,99.5398 C218.8398,91.9498 213.6798,83.7098 207.6598,83.7098 C201.6398,83.7098 196.5798,91.8098 194.5298,99.3498 C194.7888,99.3288 195.0458,99.2918 195.2998,99.2398 C196.4508,98.9168 197.6448,98.7718 198.8398,98.8098" id="Fill-132" fill="#607FBF"></path>
            <path d="M218.8896,100.51 C217.8356,100.154 216.7126,100.047 215.6106,100.2 C214.6106,100.4 213.6796,100.76 212.6906,100.93 C211.6876,101.116 210.6536,101.037 209.6906,100.7 C208.7496,100.275 207.7176,100.096 206.6906,100.18 C205.6906,100.32 204.7596,100.7 203.7896,100.87 C202.7436,101.055 201.6676,100.976 200.6606,100.64 C199.6796,100.26 198.6316,100.083 197.5796,100.12 C196.4396,100.24 195.2606,100.61 194.1096,100.66 C193.9396,101.42 193.8006,102.18 193.6896,102.91 C194.0996,102.905 194.5076,102.865 194.9106,102.79 C196.0746,102.463 197.2816,102.318 198.4906,102.36 C199.4906,102.49 200.4906,102.91 201.4906,103.13 C202.4976,103.29 203.5296,103.194 204.4906,102.85 C205.4336,102.528 206.4226,102.363 207.4196,102.36 C208.4046,102.521 209.3686,102.782 210.2996,103.14 C212.2306,103.66 214.0996,102.48 216.0096,102.34 C217.0086,102.32 218.0026,102.472 218.9506,102.79 C219.7836,103.089 220.6816,103.158 221.5496,102.99 C221.4506,102.323 221.3206,101.614 221.1606,100.86 C220.3906,100.852 219.6256,100.734 218.8896,100.51" id="Fill-133" fill="#5D54A4"></path>
            <path d="M200.7099,100.6399 C201.7179,100.9759 202.7939,101.0549 203.8399,100.8699 C204.8399,100.6999 205.7499,100.3199 206.7399,100.1799 C207.7679,100.0959 208.8009,100.2749 209.7399,100.6999 C210.7029,101.0369 211.7369,101.1159 212.7399,100.9299 C213.7399,100.7599 214.6799,100.3999 215.6599,100.1999 C216.7629,100.0469 217.8859,100.1539 218.9399,100.5099 C219.6629,100.7299 220.4139,100.8479 221.1699,100.8599 C221.0799,100.4299 220.9699,99.9899 220.8499,99.5399 C220.3139,99.4939 219.7849,99.3939 219.2709,99.2399 C218.3169,98.9319 217.3209,98.7799 216.3199,98.7899 C214.4199,98.9399 212.5399,100.1099 210.6199,99.5999 C209.6879,99.2379 208.7189,98.9759 207.7309,98.8199 C206.7329,98.8239 205.7439,98.9899 204.7999,99.3099 C203.8539,99.6389 202.8409,99.7309 201.8499,99.5799 C200.8499,99.3599 199.9099,98.9399 198.8499,98.8099 C197.6419,98.7679 196.4339,98.9129 195.2699,99.2399 C195.0159,99.2919 194.7589,99.3289 194.4999,99.3499 C194.3799,99.7899 194.2699,100.2299 194.1699,100.6599 C195.3199,100.6599 196.4999,100.2399 197.6399,100.1199 C198.6879,100.0849 199.7319,100.2619 200.7099,100.6399" id="Fill-134" fill="#FFFFFF"></path>
            <path d="M218.9101,102.7898 C217.9631,102.4718 216.9691,102.3198 215.9701,102.3398 C214.0601,102.4798 212.1901,103.6598 210.2601,103.1398 C209.3291,102.7828 208.3641,102.5208 207.3801,102.3598 C206.3831,102.3628 205.3931,102.5278 204.4501,102.8498 C203.4891,103.1938 202.4581,103.2898 201.4501,103.1298 C200.4501,102.9098 199.5101,102.4898 198.4501,102.3598 C197.2421,102.3178 196.0341,102.4628 194.8701,102.7898 C194.4681,102.8648 194.0591,102.9048 193.6501,102.9098 C193.5901,103.3498 193.5401,103.7898 193.5101,104.2098 C194.7921,104.1018 196.0681,103.9218 197.3301,103.6698 C198.3781,103.6328 199.4231,103.8098 200.4001,104.1898 C201.4091,104.5208 202.4831,104.5988 203.5301,104.4198 C204.5301,104.2498 205.4501,103.8698 206.4301,103.7198 C207.4581,103.6408 208.4891,103.8188 209.4301,104.2398 C210.3921,104.5798 211.4261,104.6628 212.4301,104.4798 C213.4301,104.3098 214.3701,103.9498 215.3601,103.7498 C216.4631,103.5908 217.5871,103.6968 218.6391,104.0598 C219.6251,104.3908 220.6751,104.4768 221.7001,104.3098 C221.7001,103.8798 221.6201,103.4398 221.5601,102.9898 C220.6751,103.1678 219.7591,103.0988 218.9101,102.7898" id="Fill-135" fill="#FFFFFF"></path>
            <polygon id="Fill-136" fill="#F7AB5F" points="172.3 122.319 257.23 122.319 257.23 111.58 172.3 111.58"></polygon>
            <path d="M332.7001,79.1502 C314.6501,92.2302 301.0701,85.6502 301.0701,85.6502 C301.0701,85.6502 302.6701,91.0002 303.7801,95.1802 C304.8891,99.3602 308.2601,109.9102 310.9701,115.4302 C313.6791,120.9502 323.9101,137.8592 323.9101,137.8592 C325.5761,137.3582 327.3731,137.5352 328.9101,138.3502 C331.9101,140.0692 333.0301,144.4102 331.7401,147.6802 C330.9381,149.6312 329.3851,151.1772 327.4291,151.9702 C325.6701,179.0802 299.9501,178.9102 298.7501,178.9102 L264.8001,178.910213 C266.4001,168.5402 280.8001,168.5402 280.8001,168.5402 C269.9401,155.4802 276.9701,134.9002 276.9701,134.9002 C274.9591,136.0972 272.7341,136.8912 270.4201,137.2392 C266.7401,137.7392 261.1501,136.0692 272.9701,125.3592 C284.7901,114.6502 280.6391,97.0802 280.6391,97.0802 C274.3801,93.2602 273.2901,91.7202 273.2901,91.7202 C272.9291,91.2202 270.6791,88.0402 271.5001,84.8802 C272.3801,81.4802 276.5801,78.9502 281.7801,79.2002 L332.7201,79.2002" id="Fill-137" fill="#FFFFFF"></path>
            <path d="M279.1699,84.2102 C279.1919,83.7792 279.5589,83.4492 279.9889,83.4712 C280.4189,83.4932 280.7499,83.8592 280.7289,84.2902 C280.7069,84.7042 280.3649,85.0292 279.9499,85.0302 C279.5089,85.0192 279.1589,84.6522 279.1699,84.2102 L279.1699,84.2102" id="Fill-138" fill="#184379"></path>
            <path d="M271.33,86.1199 C271.251,86.1199 271.178,86.0829 271.13,86.0199 C271.035,85.8919 271.035,85.7179 271.13,85.5899 L272.18,84.5899 C272.259,84.4909 272.404,84.4739 272.503,84.5529 C272.517,84.5639 272.529,84.5769 272.54,84.5899 C272.641,84.7119 272.641,84.8879 272.54,85.0099 L271.49,86.0099 C271.449,86.0559 271.391,86.0809 271.33,86.0799" id="Fill-139" fill="#184379"></path>
            <path d="M327.33,78.9099 C329.296,77.9119 331.095,76.6129 332.66,75.0599 C332.66,75.0599 300.52,78.9699 300.08,78.9099" id="Fill-140" fill="#F07D86"></path>
            <path d="M310.9404,179.97 C309.5094,175.04 311.7194,169.19 315.9404,166.7 C318.0404,165.46 321.2194,165.36 322.2994,167.64 C323.2904,162.628 328.1554,159.367 333.1674,160.357 C336.7774,161.07 339.6214,163.856 340.4104,167.45 C340.2504,166.45 341.4104,165.88 342.2804,165.71 C346.6414,164.908 351.1394,165.963 354.6904,168.62 C358.3364,171.433 360.7724,175.533 361.5004,180.08 L310.9404,179.97 Z" id="Fill-141" fill="#7BC143"></path>
            <path d="M378.7402,167.3196 C377.7132,166.5816 376.5282,166.0916 375.2802,165.8896 C374.1602,165.7696 373.0202,165.8896 371.9002,165.6896 C370.7532,165.5476 369.6622,165.1136 368.7302,164.4296 C367.8532,163.6676 366.8022,163.1316 365.6702,162.8706 C364.5702,162.7006 363.4402,162.7796 362.3302,162.6496 C361.1352,162.4856 359.9962,162.0366 359.0102,161.3406 C358.0672,160.5996 356.9862,160.0556 355.8302,159.7396 C354.5602,159.4896 353.1702,159.4896 351.9202,159.1496 C351.5002,159.9206 351.1302,160.6896 350.8002,161.4506 C351.2412,161.5826 351.6922,161.6756 352.1502,161.7296 C353.5132,161.7706 354.8622,162.0206 356.1502,162.4696 C357.2102,162.9506 358.1502,163.7196 359.1502,164.2996 C360.1712,164.7966 361.2962,165.0366 362.4292,165.0006 C363.5512,164.9676 364.6692,165.1206 365.7402,165.4506 C366.7632,165.9616 367.7342,166.5706 368.6392,167.2696 C370.5702,168.4796 372.9502,167.8306 375.0602,168.2696 C376.1492,168.5966 377.1782,169.0966 378.1102,169.7506 C378.9142,170.3506 379.8632,170.7276 380.8602,170.8406 C380.9602,170.0596 381.0302,169.2506 381.0702,168.4106 C380.2482,168.1536 379.4642,167.7866 378.7402,167.3196" id="Fill-142" fill="#0198D2"></path>
            <path d="M359.0097,161.3401 C359.9957,162.0361 361.1347,162.4861 362.3297,162.6501 C363.4407,162.7791 364.5707,162.6501 365.6697,162.8701 C366.8027,163.1311 367.8537,163.6671 368.7307,164.4301 C369.6617,165.1131 370.7527,165.5471 371.9007,165.6901 C373.0207,165.8401 374.1597,165.7701 375.2807,165.8901 C376.5287,166.0921 377.7127,166.5811 378.7397,167.3191 C379.4547,167.8031 380.2327,168.1861 381.0497,168.4601 L381.0497,166.9201 C380.4837,166.6871 379.9407,166.3991 379.4297,166.0601 C378.4967,165.4041 377.4627,164.9041 376.3697,164.5801 C374.2707,164.1001 371.8797,164.7391 369.9497,163.5291 C369.0497,162.8281 368.0817,162.2191 367.0607,161.7101 C365.9857,161.3811 364.8637,161.2291 363.7397,161.2601 C362.6097,161.2991 361.4857,161.0591 360.4697,160.5601 C359.4697,159.9801 358.5497,159.2101 357.4697,158.7301 C356.1827,158.2801 354.8327,158.0301 353.4697,157.9891 C353.1807,157.9591 352.8927,157.9091 352.6107,157.8401 C352.3497,158.2791 352.0997,158.7201 351.8697,159.1501 C353.1197,159.4891 354.5097,159.4891 355.7807,159.7391 C356.9537,160.0501 358.0527,160.5941 359.0097,161.3401" id="Fill-143" fill="#FFFFFF"></path>
            <path d="M378.0898,169.8001 C377.1588,169.1471 376.1288,168.6471 375.0398,168.3201 C372.9298,167.8301 370.5498,168.4801 368.6198,167.3201 C367.7148,166.6201 366.7428,166.0111 365.7198,165.5001 C364.6488,165.1701 363.5298,165.0181 362.4098,165.0501 C361.2768,165.0861 360.1508,164.8461 359.1298,164.3501 C358.1298,163.7701 357.2198,163.0001 356.1298,162.5201 C354.8428,162.0711 353.4928,161.8211 352.1298,161.7791 C351.6728,161.7261 351.2208,161.6321 350.7798,161.5001 C350.5798,161.9601 350.4008,162.4101 350.2398,162.8601 C351.6268,163.1591 353.0288,163.3831 354.4408,163.5291 C355.5938,163.8441 356.6718,164.3881 357.6108,165.1301 C358.5948,165.8261 359.7348,166.2721 360.9298,166.4301 C362.0398,166.5701 363.1698,166.4891 364.2798,166.6601 C365.3928,166.9271 366.4228,167.4621 367.2798,168.2201 C368.2118,168.9041 369.3038,169.3371 370.4498,169.4801 C371.5798,169.6301 372.7098,169.5601 373.8398,169.6801 C375.0848,169.8831 376.2668,170.3731 377.2898,171.1101 C378.2498,171.8061 379.3658,172.2561 380.5398,172.4201 C380.6298,171.9401 380.6998,171.4201 380.7708,170.9401 C379.7928,170.8011 378.8678,170.4071 378.0898,169.8001" id="Fill-144" fill="#FFFFFF"></path>
            <path d="M371.2099,179.97 C370.1599,179.88 369.1099,179.97 368.0699,179.78 C366.9529,179.623 365.8929,179.187 364.9899,178.51 C364.1959,177.816 363.2339,177.344 362.1999,177.14 C361.1999,177.02 360.1299,177.08 359.1099,176.94 C357.9909,176.761 356.9279,176.33 355.9999,175.68 C355.1189,174.979 354.0949,174.481 352.9999,174.22 C351.8699,174.03 350.7099,173.98 349.6299,173.71 C350.9489,179.305 355.0809,183.812 360.5399,185.61 C365.8589,187.245 371.6469,185.828 375.6099,181.92 C374.1699,181.19 372.8499,180.1 371.2099,179.97" id="Fill-145" fill="#7CD3F7"></path>
            <path d="M372.4902,176.47 C371.4902,176.38 370.3892,176.47 369.3492,176.28 C368.2332,176.119 367.1762,175.683 366.2702,175.01 C365.4762,174.316 364.5142,173.844 363.4802,173.64 C362.4802,173.52 361.4102,173.58 360.3892,173.43 C359.2702,173.259 358.2062,172.831 357.2802,172.18 C356.3992,171.479 355.3752,170.981 354.2802,170.72 C352.4802,170.42 350.5802,170.48 349.0802,169.38 C349.0802,169.91 349.0802,170.44 349.1602,170.97 C350.0562,171.456 351.0602,171.71 352.0802,171.71 C353.5372,171.788 354.9522,172.224 356.2002,172.98 C357.1652,173.763 358.2982,174.314 359.5102,174.59 C360.8512,174.615 362.1882,174.742 363.5102,174.97 C364.8802,175.34 365.8102,176.4 367.0402,177.03 C368.1912,177.449 369.4182,177.62 370.6392,177.53 C372.0212,177.566 373.3742,177.936 374.5802,178.61 C375.4192,179.202 376.3302,179.686 377.2902,180.05 C377.5802,179.68 377.8492,179.29 378.1102,178.89 C376.1302,178.36 374.5702,176.65 372.4902,176.47" id="Fill-146" fill="#0198D2"></path>
            <path d="M349.8701,166.97 C350.7501,168.03 352.1201,168.1 353.3601,168.22 C354.8141,168.295 356.2261,168.732 357.4701,169.49 C358.4351,170.274 359.5681,170.824 360.7801,171.1 C362.1211,171.125 363.4581,171.252 364.7801,171.48 C366.1501,171.85 367.0801,172.91 368.3101,173.48 C369.4591,173.907 370.6871,174.081 371.9101,173.99 C373.2911,174.026 374.6431,174.396 375.8491,175.07 C376.9601,175.69 378.0001,176.61 379.3001,176.61 C379.6881,175.75 380.0061,174.861 380.2501,173.95 C380.4001,173.43 380.5201,172.88 380.6301,172.31 C379.4561,172.146 378.3401,171.697 377.3801,171 C376.3561,170.263 375.1751,169.774 373.9301,169.57 C372.8001,169.45 371.6701,169.57 370.5401,169.37 C369.3851,169.251 368.2791,168.838 367.3301,168.17 C366.4731,167.412 365.4421,166.877 364.3301,166.61 C363.2201,166.44 362.0901,166.52 360.9801,166.38 C359.7841,166.222 358.6441,165.776 357.6601,165.08 C356.7221,164.338 355.6431,163.794 354.4901,163.48 C353.0791,163.333 351.6771,163.11 350.2901,162.81 C350.0781,163.37 349.8941,163.941 349.7401,164.52 C349.5501,165.203 349.4021,165.898 349.3001,166.6 C349.5291,166.648 349.7321,166.78 349.8701,166.97" id="Fill-147" fill="#7CD3F7"></path>
            <path d="M354.2704,170.72 C355.3654,170.981 356.3894,171.479 357.2704,172.18 C358.1964,172.831 359.2604,173.259 360.3794,173.43 C361.3794,173.58 362.4404,173.52 363.4694,173.64 C364.5034,173.844 365.4664,174.317 366.2594,175.01 C367.1654,175.683 368.2234,176.119 369.3394,176.28 C370.3394,176.43 371.4404,176.38 372.4804,176.47 C374.5604,176.65 376.1204,178.36 378.0704,178.89 C378.5254,178.181 378.9254,177.439 379.2704,176.67 C377.9694,176.67 376.9294,175.75 375.8204,175.13 C374.6134,174.456 373.2614,174.085 371.8794,174.05 C370.6574,174.142 369.4294,173.968 368.2804,173.54 C367.0494,172.92 366.1204,171.86 364.7494,171.54 C363.4284,171.312 362.0904,171.185 360.7494,171.16 C359.5384,170.884 358.4054,170.333 357.4404,169.55 C356.1974,168.791 354.7844,168.355 353.3304,168.28 C352.0894,168.16 350.7194,168.09 349.8394,167.03 C349.6974,166.829 349.4824,166.694 349.2404,166.65 C349.1044,167.571 349.0374,168.499 349.0404,169.43 C350.5704,170.48 352.4694,170.42 354.2704,170.72" id="Fill-148" fill="#FFFFFF"></path>
            <path d="M374.5497,178.6096 C373.3437,177.9356 371.9907,177.5656 370.6107,177.5296 C369.3887,177.6206 368.1607,177.4496 367.0097,177.0296 C365.7797,176.3996 364.8497,175.3396 363.4807,174.9696 C362.1577,174.7416 360.8207,174.6146 359.4807,174.5896 C358.2677,174.3136 357.1357,173.7626 356.1697,172.9796 C354.9217,172.2236 353.5067,171.7886 352.0497,171.7106 C351.0297,171.7106 350.0267,171.4566 349.1297,170.9696 C349.2207,171.8866 349.3777,172.7966 349.5997,173.6896 C350.6797,173.9606 351.8397,174.0096 352.9697,174.2006 C354.0657,174.4606 355.0887,174.9596 355.9697,175.6606 C356.8977,176.3106 357.9607,176.7416 359.0797,176.9206 C360.0797,177.0596 361.1397,177.0006 362.1697,177.1206 C363.2037,177.3236 364.1667,177.7966 364.9597,178.4896 C365.8627,179.1666 366.9227,179.6036 368.0397,179.7596 C369.0397,179.9106 370.1297,179.8596 371.1797,179.9506 C372.8207,180.0996 374.1797,181.1896 375.5707,181.9506 C376.1717,181.3796 376.7277,180.7596 377.2307,180.0996 C376.2777,179.7176 375.3767,179.2166 374.5497,178.6096" id="Fill-149" fill="#FFFFFF"></path>
            <path d="M374.5605,159.8596 C372.8495,159.0496 371.4805,157.5596 369.7705,156.7696 C366.6605,155.3396 362.9695,156.4296 359.7705,155.2196 C358.4565,154.6356 357.2145,153.9006 356.0705,153.0296 C354.8075,154.5406 353.6675,156.1486 352.6605,157.8396 C352.9435,157.9096 353.2305,157.9596 353.5205,157.9896 C354.8835,158.0306 356.2325,158.2806 357.5205,158.7296 C358.5805,159.2106 359.5205,159.9796 360.5205,160.5596 C361.5365,161.0586 362.6595,161.2986 363.7895,161.2596 C364.9145,161.2286 366.0355,161.3806 367.1105,161.7106 C368.1315,162.2186 369.0995,162.8286 369.9995,163.5296 C371.9295,164.7396 374.3205,164.0996 376.4195,164.5806 C377.5135,164.9046 378.5465,165.4046 379.4805,166.0596 C379.9905,166.3986 380.5335,166.6866 381.099676,166.9206 C381.1055,164.8756 380.9585,162.8336 380.6605,160.8096 C378.5495,160.7506 376.4505,160.7596 374.5605,159.8596" id="Fill-150" fill="#7CD3F7"></path>
            <path d="M373.7402,156.6604 C372.2882,155.4004 370.5462,154.5204 368.6702,154.0994 C366.8892,153.8404 365.0902,153.9704 363.3102,153.7394 C361.4662,153.4994 359.7092,152.8124 358.1902,151.7394 L357.5992,151.3494 C357.0802,151.9034 356.5702,152.4734 356.0702,153.0594 C357.2152,153.9314 358.4562,154.6654 359.7702,155.2504 C362.9692,156.4604 366.6602,155.3704 369.7702,156.8004 C371.4802,157.5904 372.8492,159.0804 374.5602,159.8894 C376.4502,160.7904 378.5602,160.7794 380.6502,160.8894 C380.5402,160.2004 380.4202,159.5194 380.2802,158.8404 C379.7302,158.8404 379.1702,158.7794 378.6202,158.7004 C376.8462,158.4454 375.1672,157.7434 373.7402,156.6604" id="Fill-151" fill="#0198D2"></path>
            <path d="M364.33,148.97 C364.619,149.074 364.777,149.385 364.69,149.68 C364.617,149.969 364.323,150.144 364.034,150.071 C364.033,150.071 364.031,150.071 364.03,150.07 C363.737,149.97 363.574,149.657 363.66,149.36 C363.731,149.071 364.024,148.894 364.314,148.966 C364.319,148.967 364.325,148.968 364.33,148.97 M365.63,152.31 C367.394,152.269 369.153,152.512 370.84,153.03 C372.53,153.67 373.84,154.94 375.38,155.89 C376.758,156.694 378.316,157.134 379.91,157.17 C378.46,151.5 375.67,146.63 371.49,145.33 C367.309,144.03 362.73,146.42 358.72,150.21 C359.2,150.53 359.72,150.85 360.2,151.14 C361.885,151.974 363.751,152.375 365.63,152.31" id="Fill-152" fill="#7CD3F7"></path>
            <path d="M364.1904,148.9202 C364.4824,148.9202 364.7194,149.1752 364.7194,149.4892 C364.7194,149.8052 364.4824,150.0602 364.1904,150.0602 C363.8974,150.0602 363.6604,149.8052 363.6604,149.4892 C363.6604,149.1752 363.8974,148.9202 364.1904,148.9202" id="Fill-153" fill="#7CD3F7"></path>
            <path d="M375.3798,155.8899 C373.8498,154.9399 372.5298,153.6699 370.8398,153.0299 C369.1528,152.5119 367.3948,152.2689 365.6298,152.3099 C363.7508,152.3749 361.8848,151.9739 360.1998,151.1399 C359.6908,150.8499 359.1998,150.5299 358.7198,150.2099 C358.3398,150.5699 357.9698,150.9399 357.5998,151.3199 L358.1908,151.7099 C359.7088,152.7829 361.4658,153.4689 363.3108,153.7099 C365.0898,153.9399 366.8898,153.8099 368.6698,154.0699 C370.5458,154.4919 372.2868,155.3699 373.7398,156.6299 C375.1708,157.6999 376.8508,158.3869 378.6198,158.6299 C379.1698,158.7099 379.7308,158.7399 380.2798,158.7699 C380.1698,158.2299 380.0498,157.7009 379.9098,157.1799 C378.3158,157.1409 376.7568,156.6969 375.3798,155.8899" id="Fill-154" fill="#FFFFFF"></path>
        </g>
    </g>
</svg>