<svg width="519" height="257" viewBox="0 0 519 257" fill="none" xmlns="http://www.w3.org/2000/svg">
<path d="M380.519 197.039C352.578 79.4092 214.847 109.929 200.88 171.031C200.678 171.917 199.458 172.149 198.926 171.412C176.5 140.313 139.493 158.458 141.638 183.502C141.718 184.438 140.575 185.095 139.831 184.521C87.2523 143.973 8.82248 173.733 0.193059 221.846C0.084768 222.449 0.553725 223 1.16713 223H36.8502H139.729H423.029H466.791H517.291C518.056 223 518.518 222.147 518.131 221.488C480.901 158.203 392.869 193.126 381.927 197.777C381.345 198.024 380.665 197.655 380.519 197.039Z" fill="#E6F7FF"/>
<path d="M204.295 223.333L201.165 211.863V209.956V163.644C201.165 163.644 197.154 165.006 196.904 165.006C196.653 165.006 193.394 163.644 193.394 163.644L190.386 165.006L186.626 163.644L183.367 165.279L180.359 163.644L176.849 165.279L173.34 163.644L169.83 165.279L166.571 163.644L163.312 165.006L159.803 163.644L156.293 165.279L152.032 163.644V211.863L149.525 226.301H199.627L204.295 223.333Z" fill="#FFC72C"/>
<path d="M163.629 173.625C164.319 173.625 164.879 173.032 164.879 172.3C164.879 171.568 164.319 170.975 163.629 170.975C162.939 170.975 162.38 171.568 162.38 172.3C162.38 173.032 162.939 173.625 163.629 173.625Z" fill="#FFC72C"/>
<path d="M189.092 173.625C189.782 173.625 190.341 173.032 190.341 172.3C190.341 171.568 189.782 170.975 189.092 170.975C188.402 170.975 187.842 171.568 187.842 172.3C187.842 173.032 188.402 173.625 189.092 173.625Z" fill="#FFC72C"/>
<path d="M199.704 226.495L197.208 212.468V210.615V165.623C197.208 165.623 193.215 166.946 192.965 166.946C192.715 166.946 189.471 165.623 189.471 165.623L186.475 166.946L182.731 165.623L179.487 167.211L176.491 165.623L172.997 167.211L169.503 165.623L166.008 167.211L162.763 165.623L159.519 166.946L156.024 165.623L152.53 167.211L148.287 165.623V212.468L145.791 226.495H199.704Z" fill="#FFF0BB"/>
<path d="M160.146 167.619C159.896 155.67 167.894 147.705 173.643 147.926C179.142 148.147 186.39 156.113 185.89 167.619" stroke="#FFF0BB" stroke-width="2" stroke-miterlimit="10" stroke-linecap="round" stroke-linejoin="round"/>
<path fill-rule="evenodd" clip-rule="evenodd" d="M170.935 167.31L169.724 165.473L166.001 167.31L162.81 165.473C163.656 162.512 164.838 161.906 165.287 161.782C165.407 161.749 165.531 161.742 165.655 161.727L169.724 161.218L170.935 167.31Z" fill="#DE7712"/>
<path fill-rule="evenodd" clip-rule="evenodd" d="M176.965 229.145C176.784 229.166 176.625 229.046 176.607 228.877L176.153 224.655C176.135 224.486 176.266 224.332 176.445 224.311C176.624 224.29 176.784 224.41 176.802 224.579L177.256 228.801C177.275 228.971 177.144 229.124 176.965 229.145Z" fill="#DE7712"/>
<path fill-rule="evenodd" clip-rule="evenodd" d="M179.464 229.284C179.284 229.305 179.124 229.185 179.106 229.016L178.651 224.794C178.633 224.625 178.763 224.471 178.942 224.45C179.122 224.429 179.282 224.549 179.3 224.718L179.755 228.94C179.773 229.109 179.643 229.263 179.464 229.284Z" fill="#DE7712"/>
<path fill-rule="evenodd" clip-rule="evenodd" d="M182.236 229.248C182.057 229.269 181.896 229.148 181.878 228.979L181.423 224.758C181.405 224.589 181.535 224.434 181.715 224.413C181.894 224.393 182.054 224.513 182.072 224.682L182.527 228.903C182.546 229.072 182.415 229.227 182.236 229.248Z" fill="#DE7712"/>
<path fill-rule="evenodd" clip-rule="evenodd" d="M197.597 224.714C190.437 224.698 183.277 224.681 176.117 224.665L169.277 161.225L188.498 158.975C189.595 158.847 190.581 159.633 190.699 160.731L197.597 224.714Z" fill="#EF8D2E"/>
<rect width="21.332" height="5.33305" transform="matrix(0.993216 -0.116282 0.107189 0.994239 170.549 172.889)" fill="#FABF86"/>
<rect width="21.332" height="5.33305" transform="matrix(0.993216 -0.116282 0.107189 0.994239 171.806 184.554)" fill="#FABF86"/>
<rect width="21.332" height="5.33305" transform="matrix(0.993216 -0.116282 0.107189 0.994239 173.064 196.219)" fill="#FABF86"/>
<rect width="21.332" height="5.33305" transform="matrix(0.993216 -0.116282 0.107189 0.994239 174.322 207.884)" fill="#FABF86"/>
<path fill-rule="evenodd" clip-rule="evenodd" d="M184.863 229.228C184.682 229.249 184.523 229.129 184.505 228.96L184.051 224.738C184.033 224.569 184.164 224.415 184.343 224.394C184.522 224.373 184.682 224.493 184.7 224.662L185.154 228.884C185.173 229.054 185.042 229.207 184.863 229.228Z" fill="#DE7712"/>
<path fill-rule="evenodd" clip-rule="evenodd" d="M187.346 229.225C187.167 229.246 187.006 229.126 186.988 228.957L186.534 224.735C186.516 224.566 186.647 224.412 186.826 224.391C187.005 224.37 187.165 224.49 187.184 224.659L187.637 228.881C187.656 229.05 187.525 229.204 187.346 229.225Z" fill="#DE7712"/>
<path fill-rule="evenodd" clip-rule="evenodd" d="M190.117 229.189C189.937 229.21 189.778 229.089 189.76 228.92L189.306 224.699C189.288 224.53 189.418 224.375 189.598 224.354C189.777 224.333 189.937 224.454 189.955 224.623L190.409 228.844C190.427 229.015 190.297 229.168 190.117 229.189Z" fill="#DE7712"/>
<path fill-rule="evenodd" clip-rule="evenodd" d="M193.05 229.277C192.87 229.298 192.71 229.178 192.692 229.009L192.237 224.787C192.219 224.618 192.349 224.464 192.528 224.443C192.708 224.422 192.868 224.542 192.886 224.711L193.341 228.933C193.359 229.102 193.229 229.256 193.05 229.277Z" fill="#DE7712"/>
<path fill-rule="evenodd" clip-rule="evenodd" d="M195.677 229.258C195.498 229.279 195.338 229.159 195.32 228.989L194.864 224.768C194.846 224.599 194.977 224.445 195.156 224.424C195.335 224.403 195.495 224.523 195.514 224.692L195.969 228.913C195.987 229.083 195.856 229.237 195.677 229.258Z" fill="#DE7712"/>
<mask id="mask0" mask-type="alpha" maskUnits="userSpaceOnUse" x="196" y="224" width="3" height="6">
<path fill-rule="evenodd" clip-rule="evenodd" d="M196.743 224.592L197.663 224.484L198.177 229.253L197.257 229.361L196.743 224.592Z" fill="white"/>
</mask>
<g mask="url(#mask0)">
<path fill-rule="evenodd" clip-rule="evenodd" d="M197.865 229.29C197.696 229.309 197.544 229.19 197.526 229.023L197.077 224.859C197.059 224.692 197.181 224.54 197.351 224.521C197.52 224.501 197.672 224.62 197.69 224.787L198.139 228.951C198.157 229.118 198.034 229.27 197.865 229.29Z" fill="#DE7712"/>
</g>
<rect x="0.7507" y="1.21378" width="44.6328" height="65.6292" rx="1" transform="matrix(0.971171 0.238384 -0.220471 0.975393 399.634 78.8214)" fill="white" stroke="#F7A14D" stroke-width="2"/>
<line x1="0.5" y1="-0.5" x2="16.4574" y2="-0.5" transform="matrix(0.971171 0.238384 -0.220471 0.975393 399.693 144.719)" stroke="#192A32" stroke-linecap="round"/>
<path d="M383.986 222.825H428.361V174.167H383.986V222.825Z" fill="#FFF0BB"/>
<path d="M428.404 222.698H452.547V174.04H428.404V222.698Z" fill="#FFC72C"/>
<path d="M409.173 174.209V180.933C408.833 181.464 408.323 181.818 407.983 182.349C407.643 181.818 407.133 181.464 406.793 180.933C406.453 181.287 406.113 181.818 405.772 182.172C405.432 181.818 404.922 181.287 404.582 180.933C404.242 181.464 403.902 181.818 403.562 182.349C403.222 181.818 402.882 181.464 402.542 180.933C402.202 181.287 401.862 181.818 401.352 182.172C401.012 181.818 400.502 181.287 400.162 180.933C400.162 178.633 400.162 176.51 400.162 174.209H409.173Z" fill="#FFC72C"/>
<path d="M376.259 174.014H405.142V125.166H376.259V174.014Z" fill="#FABF86"/>
<path d="M404.841 173.991H446.293L446.931 124.886H404.841V173.991Z" fill="#EF8D2E"/>
<path d="M404.751 125.366L399.14 110.857H370.577L376.188 125.366H404.751Z" fill="#AF5E0E"/>
<path d="M416.32 124.886L421.333 110.857H452.033L446.864 124.886H416.32Z" fill="#AF5E0E"/>
<path d="M386.107 128.905H378.627" stroke="#EF8D2E" stroke-miterlimit="10"/>
<path d="M386.107 131.912H378.627" stroke="#EF8D2E" stroke-miterlimit="10"/>
<path d="M407.205 124.603C409.344 118.485 419.093 113.186 429.502 114.748C440.169 116.44 447.535 127.242 446.082 139.891L441.918 139.266C443.16 129.113 437.174 120.127 428.449 119.047C420.122 117.798 416.932 120.815 413.281 124.603L407.205 124.603Z" fill="#FFC72C"/>
<path d="M444.107 134.316C444.107 134.316 444.668 142.38 441.651 149.609" stroke="#FFC72C" stroke-width="2.3" stroke-miterlimit="10"/>
<path d="M444.581 162.184L443.155 161.832L445.309 151.769L446.736 152.121C447.25 152.382 447.367 152.814 447.484 153.245L445.658 161.242C445.634 161.974 445.096 162.445 444.581 162.184Z" fill="#AF5E0E"/>
<path d="M440.206 164.055L437.867 163.612L441.238 148.217L443.578 148.66C445.262 149.143 446.384 150.828 445.799 152.762L443.832 161.06C443.504 163.125 441.89 164.537 440.206 164.055Z" fill="#FFE380"/>
<path d="M435.879 164.463L437.049 164.684C437.704 164.645 438.242 164.174 438.523 163.573L441.871 148.91C441.895 148.178 441.52 147.617 441.006 147.356L439.836 147.134C439.181 147.174 438.643 147.644 438.362 148.246L435.014 162.908C434.733 163.51 435.365 164.202 435.879 164.463Z" fill="white"/>
<path d="M170.836 216.933H98.1391C97.3195 216.933 96.689 216.212 96.689 215.273C96.689 214.335 97.3195 213.613 98.1391 213.613H170.836C171.656 213.613 172.286 214.335 172.286 215.273C172.286 216.212 171.656 216.933 170.836 216.933Z" fill="#AF5E0E"/>
<path d="M103.751 223.285H102.931C102.174 223.285 101.607 222.635 101.607 221.769V210.942C101.607 210.076 102.174 209.427 102.931 209.427H103.751C104.507 209.427 105.075 210.076 105.075 210.942V221.769C105.075 222.635 104.507 223.285 103.751 223.285Z" fill="#DE7712"/>
<path d="M107.597 227.038H106.777C106.021 227.038 105.453 226.388 105.453 225.522V207.261C105.453 206.395 106.021 205.746 106.777 205.746H107.597C108.353 205.746 108.921 206.395 108.921 207.261V225.522C108.921 226.316 108.353 227.038 107.597 227.038Z" fill="#DE7712"/>
<path d="M111.443 229.492H110.623C109.867 229.492 109.299 228.842 109.299 227.976V204.807C109.299 203.941 109.867 203.292 110.623 203.292H111.443C112.199 203.292 112.767 203.941 112.767 204.807V227.976C112.767 228.77 112.199 229.492 111.443 229.492Z" fill="#DE7712"/>
<path d="M165.351 223.285H166.171C166.927 223.285 167.495 222.635 167.495 221.769V210.942C167.495 210.076 166.927 209.427 166.171 209.427H165.351C164.594 209.427 164.027 210.076 164.027 210.942V221.769C164.027 222.635 164.594 223.285 165.351 223.285Z" fill="#DE7712"/>
<path d="M161.505 227.038H162.324C163.081 227.038 163.648 226.388 163.648 225.522V207.261C163.648 206.395 163.081 205.746 162.324 205.746H161.505C160.748 205.746 160.181 206.395 160.181 207.261V225.522C160.181 226.316 160.748 227.038 161.505 227.038Z" fill="#DE7712"/>
<path d="M157.659 229.492H158.478C159.235 229.492 159.803 228.842 159.803 227.976V204.807C159.803 203.941 159.235 203.292 158.478 203.292H157.659C156.902 203.292 156.335 203.941 156.335 204.807V227.976C156.335 228.77 156.902 229.492 157.659 229.492Z" fill="#DE7712"/>
<path d="M351.829 198.412H372.339C372.687 198.412 373.004 198.584 373.184 198.881C374.622 201.269 381.094 212.208 382.998 218.856C383.173 219.468 382.699 220.05 382.063 220.05H343.43C342.756 220.05 342.284 219.407 342.493 218.767C343.721 214.992 347.507 203.87 351.037 198.815C351.218 198.556 351.514 198.412 351.829 198.412Z" fill="#FFC72C"/>
<rect width="34.7043" height="5.04688" rx="1" transform="matrix(-1 0 0 1 377.755 151.286)" fill="#FFD560"/>
<rect width="10.492" height="5.04688" rx="1" transform="matrix(-1 0 0 1 365.649 147.922)" fill="#FFD560"/>
<path d="M351.681 198.391H372.608C372.608 198.391 378.541 176.258 378.541 160.802C381.117 159.771 382.663 160.287 383.693 155.492H342.712C342.712 155.492 346.599 187.077 351.681 198.391Z" fill="#FFF0BB"/>
<path d="M344.972 164.25C338.184 165.241 334.806 173.387 335.738 178.635C336.635 183.654 342.155 189.486 348.587 187.854" stroke="#FFC72C" stroke-width="2" stroke-miterlimit="10" stroke-linecap="round" stroke-linejoin="round"/>
<rect width="32.9729" height="3.09121" transform="matrix(-1 0 0 1 379.177 220.05)" fill="#DE7712"/>
<line x1="0.5" y1="-0.5" x2="6.28997" y2="-0.5" transform="matrix(-1 0 0 1 353.296 170.591)" stroke="white" stroke-linecap="round"/>
<line x1="0.5" y1="-0.5" x2="6.28997" y2="-0.5" transform="matrix(-1 0 0 1 354.327 173.682)" stroke="white" stroke-linecap="round"/>
<path d="M354.842 176.773H349.082" stroke="white" stroke-linecap="round"/>
<circle cx="364.136" cy="209.56" r="3.13415" fill="#FFD560"/>
<path d="M230.11 193.874C230.11 200.548 246.097 215.289 251.91 217.236C270.804 219.461 302.662 218.905 310.336 218.905C319.928 218.905 333.88 199.714 333.88 193.874C333.88 188.033 314.696 147.983 309.464 146.314C301.616 143.811 293.767 142.977 282.431 142.977C271.095 142.977 257.143 142.142 251.91 146.314C246.678 150.486 230.11 185.53 230.11 193.874Z" fill="#79D6FA"/>
<path d="M256.754 218.892H306.459L333.73 207.295C340.125 203.68 354.484 199.285 360.763 210.633C367.042 221.98 334.074 239.473 314.308 246.426H253.266C249.778 246.426 196.608 217.316 202.689 204.707C207.921 193.86 219.94 198.717 227.106 202.204C237.57 207.295 245.418 212.966 256.754 218.892Z" fill="#376EEE"/>
<path d="M270.737 246.533L253.699 246.533C251.562 245.482 241.106 237.579 241.106 237.579L226.29 223.403L247.032 235.453L270.737 246.533Z" fill="#1D4BEA"/>
<path d="M321.455 222.695L287.034 246.533C284.897 245.482 274.441 237.579 274.441 237.579L250.34 219.86C250.34 219.86 278.145 233.327 287.034 233.327C295.924 233.327 321.455 222.695 321.455 222.695Z" fill="#1D4BEA"/>
<path d="M304.072 246.794L314.443 246.794C316.58 245.743 335.926 236.871 335.926 236.871L344.815 226.239C344.815 226.239 327.777 236.871 324.073 238.997C320.369 241.123 304.072 246.794 304.072 246.794Z" fill="#1D4BEA"/>
<path d="M258.117 225.147L252.205 214.77C251.446 213.437 252.409 211.78 253.943 211.78H314.134C315.669 211.78 316.632 213.44 315.87 214.773L309.938 225.15C309.582 225.773 308.92 226.157 308.202 226.157H259.855C259.136 226.157 258.473 225.772 258.117 225.147Z" fill="#C4CDD5"/>
<path fill-rule="evenodd" clip-rule="evenodd" d="M246.828 203.46C251.307 204.544 255.444 203.715 259.409 206.333C260.865 207.295 264.972 209.521 265.685 210.883C265.834 211.167 267.512 213.401 265.538 213.077C263.563 212.752 263.1 209.972 263.35 210.647L264.973 213.877C265.304 215.114 264.422 215.106 263.887 214.938C263.055 214.677 263.216 214.112 263.364 215.772C263.411 216.295 263.089 216.573 262.834 216.651C262.362 216.795 261.407 216.092 261.046 215.931C260.097 215.508 259.894 212.831 259.998 213.86C260.014 214.016 260.263 214.892 261.046 215.931C261.302 216.27 262.942 217.335 261.929 217.891C261.653 218.043 261.327 217.941 260.095 217.553C258.863 217.166 255.589 215.38 254.803 215.163C252.084 213.752 248.882 212.784 247.482 211.669C245.031 209.719 241.082 208.694 239.831 207.523C242.74 206.492 243.061 206.015 246.828 203.46Z" fill="white"/>
<path fill-rule="evenodd" clip-rule="evenodd" d="M246.828 203.46C251.307 204.544 255.444 203.715 259.409 206.333C260.865 207.295 264.972 209.521 265.685 210.883C265.834 211.167 267.512 213.401 265.538 213.077C263.563 212.752 263.1 209.972 263.35 210.647L264.973 213.877C265.304 215.114 264.422 215.106 263.887 214.938C263.055 214.677 263.216 214.112 263.364 215.772C263.411 216.295 263.089 216.573 262.834 216.651C262.362 216.795 261.407 216.092 261.046 215.931C260.097 215.508 259.894 212.831 259.998 213.86C260.014 214.016 260.263 214.892 261.046 215.931C261.302 216.27 262.942 217.335 261.929 217.891C261.653 218.043 261.327 217.941 260.095 217.553C258.863 217.166 255.589 215.38 254.803 215.163C252.084 213.752 248.882 212.784 247.482 211.669C245.031 209.719 241.082 208.694 239.831 207.523C242.74 206.492 243.061 206.015 246.828 203.46Z" fill="white"/>
<path fill-rule="evenodd" clip-rule="evenodd" d="M246.828 203.46C251.307 204.544 255.444 203.715 259.409 206.333C260.865 207.295 264.972 209.521 265.685 210.883C265.834 211.167 267.512 213.401 265.538 213.077C263.563 212.752 263.1 209.972 263.35 210.647L264.973 213.877C265.304 215.114 264.422 215.106 263.887 214.938C263.055 214.677 263.216 214.112 263.364 215.772C263.411 216.295 263.089 216.573 262.834 216.651C262.362 216.795 261.407 216.092 261.046 215.931C260.097 215.508 259.894 212.831 259.998 213.86C260.014 214.016 260.263 214.892 261.046 215.931C261.302 216.27 262.942 217.335 261.929 217.891C261.653 218.043 261.327 217.941 260.095 217.553C258.863 217.166 255.589 215.38 254.803 215.163C252.084 213.752 248.882 212.784 247.482 211.669C245.031 209.719 241.082 208.694 239.831 207.523C242.74 206.492 243.061 206.015 246.828 203.46Z" fill="#FABF86" fill-opacity="0.5"/>
<path d="M251.969 193.338C251.969 193.338 256.102 195.966 257.848 196.354C258.535 193.519 259.87 183.117 260.629 174.732C261.388 166.347 259.699 161.461 259.699 161.461L251.969 193.338Z" fill="#2FB7EC"/>
<path d="M315.035 195.04C315.035 195.04 311.075 197.862 309.361 198.362C308.513 195.695 306.581 185.823 305.34 177.843C304.098 169.862 305.496 165.056 305.496 165.056L315.035 195.04Z" fill="#2FB7EC"/>
<path d="M258.09 224.728L249.656 196.38C249.275 195.097 250.236 193.809 251.573 193.809H317.386C318.78 193.809 319.746 195.2 319.26 196.506L308.719 224.854C308.428 225.638 307.68 226.157 306.844 226.157H260.007C259.122 226.157 258.342 225.576 258.09 224.728Z" fill="#F8FAFB"/>
<path d="M284.578 204.72C282.059 204.72 280.016 206.559 280.016 208.828C280.016 211.097 282.059 212.936 284.578 212.936C287.097 212.936 289.139 211.097 289.139 208.828C289.139 206.559 287.097 204.72 284.578 204.72Z" fill="#EEF2F5"/>
<path d="M281.559 151.32C274.918 151.32 268.479 146.314 265.863 139.639L264.119 125.455L265.061 111.271H296.454C296.454 117.389 295.761 138.805 295.511 139.639C293.767 145.48 287.663 151.32 281.559 151.32Z" fill="#F9D3AE"/>
<path d="M267.774 97.2373C261.005 100.116 264.07 120.042 264.07 124.88L264.811 131.26L265.777 122.313L266.332 118.844C270.625 120.641 276.323 122.147 281.358 120.898C288.602 119.101 295.183 120.898 295.183 120.898L295.924 129.133C296.664 127.007 298.92 113.639 297.405 109.996C295.728 105.964 290.007 107.164 285.553 105.743C281.108 104.325 274.441 94.4021 267.774 97.2373Z" fill="#332626"/>
<path d="M265.19 230.38L258.962 241.259L270.112 246.183L286.305 246.183L265.19 230.38Z" fill="#F9D3AE"/>
<path d="M312.221 243.959L306.374 233.494L286.827 246.183L304.587 246.67L312.221 243.959Z" fill="#F9D3AE"/>
<path d="M284.3 129.431L292.023 129.936C292.166 129.941 288.139 125.98 284.3 129.431Z" fill="#231F20"/>
<path d="M288.372 133.136C288.433 132.229 288.034 131.467 287.481 131.433C286.929 131.399 286.431 132.106 286.37 133.013C286.309 133.92 286.708 134.682 287.261 134.716C287.814 134.75 288.311 134.043 288.372 133.136Z" fill="#231F20"/>
<path d="M274.451 132.106C274.512 131.2 274.113 130.437 273.561 130.403C273.008 130.369 272.51 131.076 272.449 131.983C272.389 132.89 272.787 133.653 273.34 133.687C273.893 133.721 274.39 133.013 274.451 132.106Z" fill="#231F20"/>
<path d="M277.719 129.101L270.139 128.597C270.143 128.46 274.414 124.886 277.719 129.101Z" fill="#231F20"/>
<path d="M280.663 148.277C283.236 148.492 284.609 145.926 284.609 145.926L276.886 145.421C277.03 145.426 278.233 148.068 280.663 148.277Z" fill="#F79C8C"/>
<path d="M292.127 134.018C289.728 134.445 288.124 136.802 288.57 139.097C289.017 141.392 291.48 142.928 293.878 142.501C294.156 142.435 294.573 142.336 294.817 142.137C295.729 138.814 295.806 135.689 295.877 134.825C294.802 134.091 293.378 133.722 292.127 134.018Z" fill="#FABF86"/>
<path d="M268.866 134.117C271.265 134.543 272.869 136.9 272.423 139.196C271.977 141.491 269.784 143.245 267.385 142.819C267.107 142.753 266.019 140.194 265.775 139.995C264.864 136.672 265.188 135.788 265.116 134.923C266.191 134.189 267.615 133.82 268.866 134.117Z" fill="#FABF86"/>
<path fill-rule="evenodd" clip-rule="evenodd" d="M280.556 133.599C281.259 134.323 282.385 136.432 285.088 138.485C287.372 140.219 285.169 140.732 283.411 141.367C282.455 141.712 281.075 142.265 280.556 142.077C279.97 141.663 279.879 140.617 280.556 139.35C281.424 137.724 279.626 135.679 279.626 134.54C279.626 134.199 279.853 132.876 280.556 133.599Z" fill="#FABF86"/>
<path d="M379.022 27.4283C383.491 21.0383 388.112 14.7722 392.581 8.38215C397.75 9.54984 406.139 12.0724 414.706 18.0436C423.121 23.8908 428.23 30.4711 431.158 34.7651L417.599 53.8112C414.67 49.5172 409.752 43.4732 401.932 37.9848C393.175 31.4773 384.483 28.7067 379.022 27.4283Z" fill="#79D6FA"/>
<path d="M388.825 24.1153C389.358 25.312 389.207 26.7127 388.308 27.6304C392.237 29.0572 396.787 31.1178 401.566 34.1269C407.106 37.7564 411.405 41.6432 414.537 45.0869C414.664 44.9362 415.816 43.7171 417.501 43.6947C419.465 43.6457 420.581 45.064 420.733 45.1881L425.339 38.7869C425.022 38.4013 424.21 37.2312 424.183 35.4315C424.118 33.2197 425.536 31.8365 425.789 31.5351C422.301 27.2935 417.052 22.25 409.763 17.9557C405.453 15.4563 401.346 13.6306 397.721 12.452C397.734 12.5895 396.976 15.0186 394.493 15.5331C392.568 15.9943 391.072 15.0282 390.92 14.9041C389.173 17.2891 387.187 20.1129 385.706 22.3338C386.973 22.3514 388.165 23.0693 388.825 24.1153Z" fill="white"/>
<path d="M407.726 21.7548C404.186 22.0931 401.579 25.1972 401.904 28.6881C402.229 32.179 405.362 34.7347 408.903 34.3964C412.443 34.0581 415.05 30.9539 414.725 27.4631C414.4 23.9722 411.266 21.4165 407.726 21.7548Z" fill="#79D6FA"/>
<path d="M475.785 57.2259C479.371 61.0101 482.966 64.8872 486.553 68.6714C485.047 71.9104 482.094 76.976 476.835 81.7929C471.756 86.4989 466.563 88.9647 463.255 90.2186L452.488 78.7732C455.787 77.4262 460.602 74.9965 465.442 70.7824C471.069 65.8364 474.193 60.5669 475.785 57.2259Z" fill="#79D6FA"/>
<path d="M476.511 64.0035C475.671 64.1775 474.693 63.8958 474.153 63.1971C472.663 65.5904 470.625 68.2237 467.833 70.9291C464.604 74.0514 461.392 76.328 458.59 77.9088C458.693 77.9927 459.345 78.8684 459.072 80.02C458.807 81.2646 457.719 81.8375 457.625 81.8465L461.323 85.8076C461.597 85.6876 462.514 85.3186 463.68 85.5824C465.137 85.9121 465.901 86.9646 466.013 87.1415C469.277 85.4227 473.501 82.7681 477.483 78.5421C479.821 76.0677 481.594 73.6474 482.912 71.458C482.809 71.374 481.308 70.5795 481.255 68.9901C481.228 67.6796 482.102 66.8457 482.188 66.7438C480.815 65.2805 479.228 63.5563 477.966 62.2699C478.044 63.1066 477.445 63.8204 476.511 64.0035Z" fill="#E6F7FF"/>
<path d="M470.783 71.9602C468.388 72.1891 466.624 74.2892 466.844 76.651C467.064 79.0128 469.184 80.7419 471.579 80.513C473.975 80.2841 475.738 78.184 475.518 75.8222C475.298 73.4604 473.178 71.7313 470.783 71.9602Z" fill="#79D6FA"/>
<path d="M388.34 54.1878C391.139 53.9203 393.2 51.4724 392.944 48.7201C392.688 45.9679 390.211 43.9536 387.412 44.2211C384.613 44.4886 382.551 46.9365 382.807 49.6887C383.063 52.441 385.54 54.4553 388.34 54.1878Z" fill="#FFDA2E"/>
<path d="M383.693 45.5377L384.059 45.8515" stroke="url(#paint0_linear)" stroke-width="0.1" stroke-miterlimit="10" stroke-linecap="round"/>
<path d="M384.01 45.2267L384.368 45.5413" stroke="url(#paint1_linear)" stroke-width="0.1" stroke-miterlimit="10" stroke-linecap="round"/>
<path d="M384.355 44.9385L384.721 45.2439" stroke="url(#paint2_linear)" stroke-width="0.1" stroke-miterlimit="10" stroke-linecap="round"/>
<path d="M384.731 44.6984L385.069 44.9893" stroke="url(#paint3_linear)" stroke-width="0.1" stroke-miterlimit="10" stroke-linecap="round"/>
<path d="M385.166 44.4526L385.514 44.7427" stroke="url(#paint4_linear)" stroke-width="0.1" stroke-miterlimit="10" stroke-linecap="round"/>
<path d="M385.658 44.2532L385.978 44.5289" stroke="url(#paint5_linear)" stroke-width="0.1" stroke-miterlimit="10" stroke-linecap="round"/>
<path d="M386.146 44.104L386.446 44.3636" stroke="url(#paint6_linear)" stroke-width="0.1" stroke-miterlimit="10" stroke-linecap="round"/>
<path d="M386.674 44.0023L386.955 44.2383" stroke="url(#paint7_linear)" stroke-width="0.1" stroke-miterlimit="10" stroke-linecap="round"/>
<path d="M387.197 43.9523L387.459 44.1732" stroke="url(#paint8_linear)" stroke-width="0.1" stroke-miterlimit="10" stroke-linecap="round"/>
<path d="M387.76 43.9584L387.985 44.1583" stroke="url(#paint9_linear)" stroke-width="0.1" stroke-miterlimit="10" stroke-linecap="round"/>
<path d="M388.285 44.0193L388.471 44.1795" stroke="url(#paint10_linear)" stroke-width="0.1" stroke-miterlimit="10" stroke-linecap="round"/>
<path d="M388.824 44.1457L388.964 44.2685" stroke="url(#paint11_linear)" stroke-width="0.1" stroke-miterlimit="10" stroke-linecap="round"/>
<path d="M383.414 45.8876L383.779 46.1845" stroke="url(#paint12_linear)" stroke-width="0.1" stroke-miterlimit="10" stroke-linecap="round"/>
<path d="M383.161 46.2436L383.535 46.5397" stroke="url(#paint13_linear)" stroke-width="0.1" stroke-miterlimit="10" stroke-linecap="round"/>
<path d="M382.929 46.6315L383.311 46.9267" stroke="url(#paint14_linear)" stroke-width="0.1" stroke-miterlimit="10" stroke-linecap="round"/>
<path d="M382.741 47.0238L383.123 47.3191" stroke="url(#paint15_linear)" stroke-width="0.1" stroke-miterlimit="10" stroke-linecap="round"/>
<path d="M382.567 47.4828L382.95 47.7865" stroke="url(#paint16_linear)" stroke-width="0.1" stroke-miterlimit="10" stroke-linecap="round"/>
<path d="M382.431 47.9722L382.823 48.2835" stroke="url(#paint17_linear)" stroke-width="0.1" stroke-miterlimit="10" stroke-linecap="round"/>
<path d="M382.354 48.4557L382.747 48.767" stroke="url(#paint18_linear)" stroke-width="0.1" stroke-miterlimit="10" stroke-linecap="round"/>
<path d="M382.351 48.9827L382.725 49.2788" stroke="url(#paint19_linear)" stroke-width="0.1" stroke-miterlimit="10" stroke-linecap="round"/>
<path d="M382.363 49.4749L382.755 49.7778" stroke="url(#paint20_linear)" stroke-width="0.1" stroke-miterlimit="10" stroke-linecap="round"/>
<path d="M382.455 49.9946L382.828 50.2906" stroke="url(#paint21_linear)" stroke-width="0.1" stroke-miterlimit="10" stroke-linecap="round"/>
<path d="M382.567 50.46L383.005 50.8009" stroke="url(#paint22_linear)" stroke-width="0.1" stroke-miterlimit="10" stroke-linecap="round"/>
<path d="M382.766 50.9261L383.159 51.2374" stroke="url(#paint23_linear)" stroke-width="0.1" stroke-miterlimit="10" stroke-linecap="round"/>
<path d="M383.1 51.5407L383.492 51.8436" stroke="url(#paint24_linear)" stroke-width="0.1" stroke-miterlimit="10" stroke-linecap="round"/>
<path d="M383.499 52.1066L383.891 52.4095" stroke="url(#paint25_linear)" stroke-width="0.1" stroke-miterlimit="10" stroke-linecap="round"/>
<path d="M475.989 35.6317C473.271 36.3513 471.645 39.0994 472.359 41.7697C473.073 44.4401 475.855 46.0216 478.574 45.3021C481.292 44.5825 482.917 41.8344 482.203 39.1641C481.49 36.4937 478.707 34.9122 475.989 35.6317Z" fill="#FFDA2E"/>
<path d="M482.024 43.399L481.61 43.1496" stroke="url(#paint26_linear)" stroke-width="0.1" stroke-miterlimit="10" stroke-linecap="round"/>
<path d="M481.763 43.7571L481.357 43.5055" stroke="url(#paint27_linear)" stroke-width="0.1" stroke-miterlimit="10" stroke-linecap="round"/>
<path d="M481.47 44.0974L481.058 43.8561" stroke="url(#paint28_linear)" stroke-width="0.1" stroke-miterlimit="10" stroke-linecap="round"/>
<path d="M481.14 44.3951L480.757 44.1637" stroke="url(#paint29_linear)" stroke-width="0.1" stroke-miterlimit="10" stroke-linecap="round"/>
<path d="M480.751 44.7083L480.36 44.479" stroke="url(#paint30_linear)" stroke-width="0.1" stroke-miterlimit="10" stroke-linecap="round"/>
<path d="M480.298 44.9849L479.937 44.7654" stroke="url(#paint31_linear)" stroke-width="0.1" stroke-miterlimit="10" stroke-linecap="round"/>
<path d="M479.842 45.2114L479.502 45.0046" stroke="url(#paint32_linear)" stroke-width="0.1" stroke-miterlimit="10" stroke-linecap="round"/>
<path d="M479.339 45.3975L479.022 45.2106" stroke="url(#paint33_linear)" stroke-width="0.1" stroke-miterlimit="10" stroke-linecap="round"/>
<path d="M478.83 45.5319L478.535 45.357" stroke="url(#paint34_linear)" stroke-width="0.1" stroke-miterlimit="10" stroke-linecap="round"/>
<path d="M478.274 45.6178L478.017 45.4576" stroke="url(#paint35_linear)" stroke-width="0.1" stroke-miterlimit="10" stroke-linecap="round"/>
<path d="M477.745 45.6432L477.534 45.5158" stroke="url(#paint36_linear)" stroke-width="0.1" stroke-miterlimit="10" stroke-linecap="round"/>
<path d="M477.192 45.6066L477.033 45.5084" stroke="url(#paint37_linear)" stroke-width="0.1" stroke-miterlimit="10" stroke-linecap="round"/>
<path d="M482.241 43.0089L481.831 42.7758" stroke="url(#paint38_linear)" stroke-width="0.1" stroke-miterlimit="10" stroke-linecap="round"/>
<path d="M482.431 42.617L482.012 42.3862" stroke="url(#paint39_linear)" stroke-width="0.1" stroke-miterlimit="10" stroke-linecap="round"/>
<path d="M482.595 42.197L482.168 41.9683" stroke="url(#paint40_linear)" stroke-width="0.1" stroke-miterlimit="10" stroke-linecap="round"/>
<path d="M482.715 41.7797L482.288 41.551" stroke="url(#paint41_linear)" stroke-width="0.1" stroke-miterlimit="10" stroke-linecap="round"/>
<path d="M482.81 41.2992L482.381 41.0624" stroke="url(#paint42_linear)" stroke-width="0.1" stroke-miterlimit="10" stroke-linecap="round"/>
<path d="M482.862 40.7948L482.423 40.552" stroke="url(#paint43_linear)" stroke-width="0.1" stroke-miterlimit="10" stroke-linecap="round"/>
<path d="M482.857 40.3066L482.418 40.0638" stroke="url(#paint44_linear)" stroke-width="0.1" stroke-miterlimit="10" stroke-linecap="round"/>
<path d="M482.771 39.7864L482.353 39.5555" stroke="url(#paint45_linear)" stroke-width="0.1" stroke-miterlimit="10" stroke-linecap="round"/>
<path d="M482.677 39.3021L482.24 39.0675" stroke="url(#paint46_linear)" stroke-width="0.1" stroke-miterlimit="10" stroke-linecap="round"/>
<path d="M482.5 38.806L482.082 38.5751" stroke="url(#paint47_linear)" stroke-width="0.1" stroke-miterlimit="10" stroke-linecap="round"/>
<path d="M482.311 38.3654L481.821 38.1009" stroke="url(#paint48_linear)" stroke-width="0.1" stroke-miterlimit="10" stroke-linecap="round"/>
<path d="M482.037 37.9389L481.597 37.6961" stroke="url(#paint49_linear)" stroke-width="0.1" stroke-miterlimit="10" stroke-linecap="round"/>
<path d="M481.604 37.3878L481.167 37.1532" stroke="url(#paint50_linear)" stroke-width="0.1" stroke-miterlimit="10" stroke-linecap="round"/>
<path d="M481.115 36.8951L480.678 36.6605" stroke="url(#paint51_linear)" stroke-width="0.1" stroke-miterlimit="10" stroke-linecap="round"/>
<path d="M132.861 140.901C126.44 136.476 120.143 131.897 113.723 127.472C114.855 122.294 117.32 113.889 123.233 105.282C129.023 96.8269 135.568 91.6735 139.842 88.7157L158.98 102.145C154.706 105.103 148.696 110.062 143.261 117.919C136.813 126.72 134.102 135.431 132.861 140.901Z" fill="#79D6FA"/>
<path d="M129.481 131.121C130.674 130.58 132.076 130.721 133 131.613C134.4 127.675 136.429 123.111 139.406 118.311C142.997 112.747 146.855 108.422 150.277 105.266C150.126 105.14 148.899 103.997 148.865 102.312C148.802 100.348 150.213 99.2226 150.336 99.0696L143.904 94.507C143.52 94.8267 142.356 95.6466 140.556 95.6857C138.345 95.766 136.952 94.3577 136.649 94.1066C132.431 97.6233 127.424 102.907 123.179 110.225C120.709 114.552 118.911 118.671 117.758 122.304C117.895 122.29 120.329 123.031 120.861 125.511C121.335 127.433 120.379 128.935 120.256 129.088C122.653 130.818 125.49 132.786 127.721 134.251C127.73 132.984 128.44 131.788 129.481 131.121Z" fill="white"/>
<path d="M126.992 112.236C127.354 115.774 130.476 118.359 133.964 118.011C137.453 117.662 139.987 114.511 139.625 110.973C139.263 107.435 136.141 104.85 132.652 105.198C129.164 105.547 126.629 108.698 126.992 112.236Z" fill="#79D6FA"/>
<path d="M156.068 57.8217C159.828 54.2096 163.68 50.5883 167.44 46.9762C170.689 48.46 175.775 51.3783 180.627 56.6044C185.368 61.6513 187.869 66.8269 189.145 70.126L177.773 80.9715C176.404 77.6817 173.942 72.883 169.695 68.0723C164.71 62.4786 159.42 59.3904 156.068 57.8217Z" fill="#79D6FA"/>
<path d="M162.84 57.0497C163.02 57.8884 162.745 58.8678 162.05 59.4131C164.454 60.8863 167.101 62.9061 169.825 65.6797C172.969 68.8873 175.268 72.0843 176.868 74.8751C176.951 74.7716 177.822 74.1134 178.975 74.3789C180.222 74.6351 180.802 75.7193 180.812 75.8135L184.748 72.0886C184.626 71.8153 184.25 70.9009 184.506 69.7331C184.826 68.2734 185.873 67.5024 186.049 67.3896C184.308 64.137 181.625 59.9315 177.372 55.978C174.882 53.6569 172.449 51.9012 170.251 50.5979C170.168 50.7014 169.384 52.2076 167.795 52.2712C166.484 52.307 165.645 51.4391 165.542 51.3541C164.088 52.7369 162.375 54.3359 161.097 55.6058C161.933 55.5222 162.651 56.1168 162.84 57.0497Z" fill="#E6F7FF"/>
<path d="M170.836 62.7229C171.081 65.1166 173.193 66.8658 175.554 66.6299C177.914 66.394 179.628 64.2623 179.383 61.8686C179.138 59.4749 177.026 57.7257 174.666 57.9616C172.305 58.1975 170.591 60.3292 170.836 62.7229Z" fill="#79D6FA"/>
<path d="M206.758 82.8861C206.472 80.0887 204.01 78.0438 201.26 78.3187C198.509 78.5936 196.512 81.0842 196.798 83.8816C197.085 86.679 199.547 88.7239 202.297 88.449C205.048 88.1741 207.045 85.6835 206.758 82.8861Z" fill="#FFDA2E"/>
<path d="M198.14 87.5917L198.452 87.2229" stroke="url(#paint52_linear)" stroke-width="0.1" stroke-miterlimit="10" stroke-linecap="round"/>
<path d="M197.827 87.2767L198.139 86.9165" stroke="url(#paint53_linear)" stroke-width="0.1" stroke-miterlimit="10" stroke-linecap="round"/>
<path d="M197.537 86.9334L197.839 86.5655" stroke="url(#paint54_linear)" stroke-width="0.1" stroke-miterlimit="10" stroke-linecap="round"/>
<path d="M197.294 86.5594L197.583 86.2188" stroke="url(#paint55_linear)" stroke-width="0.1" stroke-miterlimit="10" stroke-linecap="round"/>
<path d="M197.045 86.1255L197.333 85.7764" stroke="url(#paint56_linear)" stroke-width="0.1" stroke-miterlimit="10" stroke-linecap="round"/>
<path d="M196.842 85.6348L197.116 85.3131" stroke="url(#paint57_linear)" stroke-width="0.1" stroke-miterlimit="10" stroke-linecap="round"/>
<path d="M196.69 85.1478L196.947 84.8459" stroke="url(#paint58_linear)" stroke-width="0.1" stroke-miterlimit="10" stroke-linecap="round"/>
<path d="M196.584 84.6207L196.819 84.3384" stroke="url(#paint59_linear)" stroke-width="0.1" stroke-miterlimit="10" stroke-linecap="round"/>
<path d="M196.531 84.0988L196.75 83.8353" stroke="url(#paint60_linear)" stroke-width="0.1" stroke-miterlimit="10" stroke-linecap="round"/>
<path d="M196.533 83.5356L196.732 83.3087" stroke="url(#paint61_linear)" stroke-width="0.1" stroke-miterlimit="10" stroke-linecap="round"/>
<path d="M196.591 83.0103L196.75 82.8226" stroke="url(#paint62_linear)" stroke-width="0.1" stroke-miterlimit="10" stroke-linecap="round"/>
<path d="M196.713 82.4702L196.835 82.3295" stroke="url(#paint63_linear)" stroke-width="0.1" stroke-miterlimit="10" stroke-linecap="round"/>
<path d="M198.492 87.8682L198.786 87.5011" stroke="url(#paint64_linear)" stroke-width="0.1" stroke-miterlimit="10" stroke-linecap="round"/>
<path d="M198.85 88.1182L199.143 87.7426" stroke="url(#paint65_linear)" stroke-width="0.1" stroke-miterlimit="10" stroke-linecap="round"/>
<path d="M199.239 88.3477L199.532 87.9634" stroke="url(#paint66_linear)" stroke-width="0.1" stroke-miterlimit="10" stroke-linecap="round"/>
<path d="M199.633 88.5334L199.925 88.1492" stroke="url(#paint67_linear)" stroke-width="0.1" stroke-miterlimit="10" stroke-linecap="round"/>
<path d="M200.093 88.7039L200.394 88.3188" stroke="url(#paint68_linear)" stroke-width="0.1" stroke-miterlimit="10" stroke-linecap="round"/>
<path d="M200.583 88.8368L200.892 88.4423" stroke="url(#paint69_linear)" stroke-width="0.1" stroke-miterlimit="10" stroke-linecap="round"/>
<path d="M201.067 88.9101L201.376 88.5156" stroke="url(#paint70_linear)" stroke-width="0.1" stroke-miterlimit="10" stroke-linecap="round"/>
<path d="M201.594 88.9098L201.888 88.5341" stroke="url(#paint71_linear)" stroke-width="0.1" stroke-miterlimit="10" stroke-linecap="round"/>
<path d="M202.086 88.8943L202.386 88.5006" stroke="url(#paint72_linear)" stroke-width="0.1" stroke-miterlimit="10" stroke-linecap="round"/>
<path d="M202.605 88.7991L202.899 88.4235" stroke="url(#paint73_linear)" stroke-width="0.1" stroke-miterlimit="10" stroke-linecap="round"/>
<path d="M203.07 88.6842L203.408 88.2435" stroke="url(#paint74_linear)" stroke-width="0.1" stroke-miterlimit="10" stroke-linecap="round"/>
<path d="M203.535 88.4811L203.843 88.0867" stroke="url(#paint75_linear)" stroke-width="0.1" stroke-miterlimit="10" stroke-linecap="round"/>
<path d="M204.147 88.1429L204.447 87.7492" stroke="url(#paint76_linear)" stroke-width="0.1" stroke-miterlimit="10" stroke-linecap="round"/>
<path d="M204.71 87.7402L205.01 87.3466" stroke="url(#paint77_linear)" stroke-width="0.1" stroke-miterlimit="10" stroke-linecap="round"/>
<path d="M134.473 57.7647C135.211 60.4781 137.971 62.0845 140.636 61.3526C143.301 60.6207 144.864 57.8277 144.126 55.1143C143.388 52.4008 140.629 50.7944 137.963 51.5263C135.298 52.2582 133.735 55.0512 134.473 57.7647Z" fill="#FFDA2E"/>
<path d="M142.199 51.6766L141.953 52.0928" stroke="url(#paint78_linear)" stroke-width="0.1" stroke-miterlimit="10" stroke-linecap="round"/>
<path d="M142.559 51.9352L142.31 52.3431" stroke="url(#paint79_linear)" stroke-width="0.1" stroke-miterlimit="10" stroke-linecap="round"/>
<path d="M142.901 52.2255L142.663 52.6395" stroke="url(#paint80_linear)" stroke-width="0.1" stroke-miterlimit="10" stroke-linecap="round"/>
<path d="M143.201 52.5541L142.973 52.9386" stroke="url(#paint81_linear)" stroke-width="0.1" stroke-miterlimit="10" stroke-linecap="round"/>
<path d="M143.517 52.9409L143.29 53.3337" stroke="url(#paint82_linear)" stroke-width="0.1" stroke-miterlimit="10" stroke-linecap="round"/>
<path d="M143.797 53.3915L143.58 53.7549" stroke="url(#paint83_linear)" stroke-width="0.1" stroke-miterlimit="10" stroke-linecap="round"/>
<path d="M144.026 53.8466L143.822 54.1877" stroke="url(#paint84_linear)" stroke-width="0.1" stroke-miterlimit="10" stroke-linecap="round"/>
<path d="M144.216 54.3486L144.031 54.6665" stroke="url(#paint85_linear)" stroke-width="0.1" stroke-miterlimit="10" stroke-linecap="round"/>
<path d="M144.354 54.8559L144.181 55.1527" stroke="url(#paint86_linear)" stroke-width="0.1" stroke-miterlimit="10" stroke-linecap="round"/>
<path d="M144.444 55.4121L144.285 55.6694" stroke="url(#paint87_linear)" stroke-width="0.1" stroke-miterlimit="10" stroke-linecap="round"/>
<path d="M144.473 55.9401L144.347 56.1521" stroke="url(#paint88_linear)" stroke-width="0.1" stroke-miterlimit="10" stroke-linecap="round"/>
<path d="M144.44 56.4941L144.343 56.6533" stroke="url(#paint89_linear)" stroke-width="0.1" stroke-miterlimit="10" stroke-linecap="round"/>
<path d="M141.807 51.4624L141.577 51.8741" stroke="url(#paint90_linear)" stroke-width="0.1" stroke-miterlimit="10" stroke-linecap="round"/>
<path d="M141.414 51.2756L141.186 51.6956" stroke="url(#paint91_linear)" stroke-width="0.1" stroke-miterlimit="10" stroke-linecap="round"/>
<path d="M140.993 51.1142L140.768 51.5425" stroke="url(#paint92_linear)" stroke-width="0.1" stroke-miterlimit="10" stroke-linecap="round"/>
<path d="M140.575 50.9968L140.349 51.4251" stroke="url(#paint93_linear)" stroke-width="0.1" stroke-miterlimit="10" stroke-linecap="round"/>
<path d="M140.094 50.9055L139.86 51.3361" stroke="url(#paint94_linear)" stroke-width="0.1" stroke-miterlimit="10" stroke-linecap="round"/>
<path d="M139.589 50.8563L139.349 51.2974" stroke="url(#paint95_linear)" stroke-width="0.1" stroke-miterlimit="10" stroke-linecap="round"/>
<path d="M139.101 50.8648L138.861 51.3059" stroke="url(#paint96_linear)" stroke-width="0.1" stroke-miterlimit="10" stroke-linecap="round"/>
<path d="M138.582 50.9542L138.354 51.3742" stroke="url(#paint97_linear)" stroke-width="0.1" stroke-miterlimit="10" stroke-linecap="round"/>
<path d="M138.098 51.0515L137.866 51.4903" stroke="url(#paint98_linear)" stroke-width="0.1" stroke-miterlimit="10" stroke-linecap="round"/>
<path d="M137.603 51.232L137.375 51.652" stroke="url(#paint99_linear)" stroke-width="0.1" stroke-miterlimit="10" stroke-linecap="round"/>
<path d="M137.164 51.4242L136.903 51.9159" stroke="url(#paint100_linear)" stroke-width="0.1" stroke-miterlimit="10" stroke-linecap="round"/>
<path d="M136.739 51.7015L136.499 52.1427" stroke="url(#paint101_linear)" stroke-width="0.1" stroke-miterlimit="10" stroke-linecap="round"/>
<path d="M136.191 52.1379L135.959 52.5768" stroke="url(#paint102_linear)" stroke-width="0.1" stroke-miterlimit="10" stroke-linecap="round"/>
<path d="M135.702 52.6298L135.47 53.0686" stroke="url(#paint103_linear)" stroke-width="0.1" stroke-miterlimit="10" stroke-linecap="round"/>
<defs>
<linearGradient id="paint0_linear" x1="384.027" y1="45.5058" x2="383.693" y2="45.5369" gradientUnits="userSpaceOnUse">
<stop stop-color="#EF8D2E"/>
<stop offset="1" stop-color="#FFC72C"/>
</linearGradient>
<linearGradient id="paint1_linear" x1="384.336" y1="45.1955" x2="384.01" y2="45.2259" gradientUnits="userSpaceOnUse">
<stop stop-color="#EF8D2E"/>
<stop offset="1" stop-color="#FFC72C"/>
</linearGradient>
<linearGradient id="paint2_linear" x1="384.689" y1="44.9066" x2="384.355" y2="44.9377" gradientUnits="userSpaceOnUse">
<stop stop-color="#EF8D2E"/>
<stop offset="1" stop-color="#FFC72C"/>
</linearGradient>
<linearGradient id="paint3_linear" x1="385.039" y1="44.6689" x2="384.731" y2="44.6976" gradientUnits="userSpaceOnUse">
<stop stop-color="#EF8D2E"/>
<stop offset="1" stop-color="#FFC72C"/>
</linearGradient>
<linearGradient id="paint4_linear" x1="385.484" y1="44.4223" x2="385.166" y2="44.4518" gradientUnits="userSpaceOnUse">
<stop stop-color="#EF8D2E"/>
<stop offset="1" stop-color="#FFC72C"/>
</linearGradient>
<linearGradient id="paint5_linear" x1="385.95" y1="44.2253" x2="385.658" y2="44.2525" gradientUnits="userSpaceOnUse">
<stop stop-color="#EF8D2E"/>
<stop offset="1" stop-color="#FFC72C"/>
</linearGradient>
<linearGradient id="paint6_linear" x1="386.42" y1="44.0779" x2="386.146" y2="44.1033" gradientUnits="userSpaceOnUse">
<stop stop-color="#EF8D2E"/>
<stop offset="1" stop-color="#FFC72C"/>
</linearGradient>
<linearGradient id="paint7_linear" x1="386.931" y1="43.9778" x2="386.674" y2="44.0016" gradientUnits="userSpaceOnUse">
<stop stop-color="#EF8D2E"/>
<stop offset="1" stop-color="#FFC72C"/>
</linearGradient>
<linearGradient id="paint8_linear" x1="387.436" y1="43.9295" x2="387.196" y2="43.9517" gradientUnits="userSpaceOnUse">
<stop stop-color="#EF8D2E"/>
<stop offset="1" stop-color="#FFC72C"/>
</linearGradient>
<linearGradient id="paint9_linear" x1="387.965" y1="43.9388" x2="387.76" y2="43.9579" gradientUnits="userSpaceOnUse">
<stop stop-color="#EF8D2E"/>
<stop offset="1" stop-color="#FFC72C"/>
</linearGradient>
<linearGradient id="paint10_linear" x1="388.455" y1="44.003" x2="388.285" y2="44.0189" gradientUnits="userSpaceOnUse">
<stop stop-color="#EF8D2E"/>
<stop offset="1" stop-color="#FFC72C"/>
</linearGradient>
<linearGradient id="paint11_linear" x1="388.951" y1="44.1335" x2="388.824" y2="44.1454" gradientUnits="userSpaceOnUse">
<stop stop-color="#EF8D2E"/>
<stop offset="1" stop-color="#FFC72C"/>
</linearGradient>
<linearGradient id="paint12_linear" x1="383.748" y1="45.8557" x2="383.414" y2="45.8868" gradientUnits="userSpaceOnUse">
<stop stop-color="#EF8D2E"/>
<stop offset="1" stop-color="#FFC72C"/>
</linearGradient>
<linearGradient id="paint13_linear" x1="383.504" y1="46.2108" x2="383.161" y2="46.2427" gradientUnits="userSpaceOnUse">
<stop stop-color="#EF8D2E"/>
<stop offset="1" stop-color="#FFC72C"/>
</linearGradient>
<linearGradient id="paint14_linear" x1="383.281" y1="46.5979" x2="382.929" y2="46.6306" gradientUnits="userSpaceOnUse">
<stop stop-color="#EF8D2E"/>
<stop offset="1" stop-color="#FFC72C"/>
</linearGradient>
<linearGradient id="paint15_linear" x1="383.092" y1="46.9902" x2="382.741" y2="47.0229" gradientUnits="userSpaceOnUse">
<stop stop-color="#EF8D2E"/>
<stop offset="1" stop-color="#FFC72C"/>
</linearGradient>
<linearGradient id="paint16_linear" x1="382.919" y1="47.4492" x2="382.567" y2="47.4819" gradientUnits="userSpaceOnUse">
<stop stop-color="#EF8D2E"/>
<stop offset="1" stop-color="#FFC72C"/>
</linearGradient>
<linearGradient id="paint17_linear" x1="382.791" y1="47.9378" x2="382.431" y2="47.9713" gradientUnits="userSpaceOnUse">
<stop stop-color="#EF8D2E"/>
<stop offset="1" stop-color="#FFC72C"/>
</linearGradient>
<linearGradient id="paint18_linear" x1="382.715" y1="48.4213" x2="382.354" y2="48.4548" gradientUnits="userSpaceOnUse">
<stop stop-color="#EF8D2E"/>
<stop offset="1" stop-color="#FFC72C"/>
</linearGradient>
<linearGradient id="paint19_linear" x1="382.694" y1="48.9499" x2="382.351" y2="48.9819" gradientUnits="userSpaceOnUse">
<stop stop-color="#EF8D2E"/>
<stop offset="1" stop-color="#FFC72C"/>
</linearGradient>
<linearGradient id="paint20_linear" x1="382.723" y1="49.4405" x2="382.363" y2="49.474" gradientUnits="userSpaceOnUse">
<stop stop-color="#EF8D2E"/>
<stop offset="1" stop-color="#FFC72C"/>
</linearGradient>
<linearGradient id="paint21_linear" x1="382.798" y1="49.9618" x2="382.455" y2="49.9937" gradientUnits="userSpaceOnUse">
<stop stop-color="#EF8D2E"/>
<stop offset="1" stop-color="#FFC72C"/>
</linearGradient>
<linearGradient id="paint22_linear" x1="382.97" y1="50.4215" x2="382.566" y2="50.459" gradientUnits="userSpaceOnUse">
<stop stop-color="#EF8D2E"/>
<stop offset="1" stop-color="#FFC72C"/>
</linearGradient>
<linearGradient id="paint23_linear" x1="383.127" y1="50.8917" x2="382.766" y2="50.9252" gradientUnits="userSpaceOnUse">
<stop stop-color="#EF8D2E"/>
<stop offset="1" stop-color="#FFC72C"/>
</linearGradient>
<linearGradient id="paint24_linear" x1="383.461" y1="51.5063" x2="383.1" y2="51.5398" gradientUnits="userSpaceOnUse">
<stop stop-color="#EF8D2E"/>
<stop offset="1" stop-color="#FFC72C"/>
</linearGradient>
<linearGradient id="paint25_linear" x1="383.859" y1="52.0722" x2="383.499" y2="52.1057" gradientUnits="userSpaceOnUse">
<stop stop-color="#EF8D2E"/>
<stop offset="1" stop-color="#FFC72C"/>
</linearGradient>
<linearGradient id="paint26_linear" x1="481.699" y1="43.485" x2="482.024" y2="43.3982" gradientUnits="userSpaceOnUse">
<stop stop-color="#EF8D2E"/>
<stop offset="1" stop-color="#FFC72C"/>
</linearGradient>
<linearGradient id="paint27_linear" x1="481.447" y1="43.8409" x2="481.763" y2="43.7564" gradientUnits="userSpaceOnUse">
<stop stop-color="#EF8D2E"/>
<stop offset="1" stop-color="#FFC72C"/>
</linearGradient>
<linearGradient id="paint28_linear" x1="481.146" y1="44.1833" x2="481.47" y2="44.0966" gradientUnits="userSpaceOnUse">
<stop stop-color="#EF8D2E"/>
<stop offset="1" stop-color="#FFC72C"/>
</linearGradient>
<linearGradient id="paint29_linear" x1="480.84" y1="44.4745" x2="481.14" y2="44.3944" gradientUnits="userSpaceOnUse">
<stop stop-color="#EF8D2E"/>
<stop offset="1" stop-color="#FFC72C"/>
</linearGradient>
<linearGradient id="paint30_linear" x1="480.443" y1="44.7898" x2="480.751" y2="44.7075" gradientUnits="userSpaceOnUse">
<stop stop-color="#EF8D2E"/>
<stop offset="1" stop-color="#FFC72C"/>
</linearGradient>
<linearGradient id="paint31_linear" x1="480.015" y1="45.0599" x2="480.298" y2="44.9842" gradientUnits="userSpaceOnUse">
<stop stop-color="#EF8D2E"/>
<stop offset="1" stop-color="#FFC72C"/>
</linearGradient>
<linearGradient id="paint32_linear" x1="479.576" y1="45.2817" x2="479.842" y2="45.2108" gradientUnits="userSpaceOnUse">
<stop stop-color="#EF8D2E"/>
<stop offset="1" stop-color="#FFC72C"/>
</linearGradient>
<linearGradient id="paint33_linear" x1="479.089" y1="45.4634" x2="479.338" y2="45.3969" gradientUnits="userSpaceOnUse">
<stop stop-color="#EF8D2E"/>
<stop offset="1" stop-color="#FFC72C"/>
</linearGradient>
<linearGradient id="paint34_linear" x1="478.598" y1="45.5934" x2="478.83" y2="45.5314" gradientUnits="userSpaceOnUse">
<stop stop-color="#EF8D2E"/>
<stop offset="1" stop-color="#FFC72C"/>
</linearGradient>
<linearGradient id="paint35_linear" x1="478.074" y1="45.6705" x2="478.273" y2="45.6173" gradientUnits="userSpaceOnUse">
<stop stop-color="#EF8D2E"/>
<stop offset="1" stop-color="#FFC72C"/>
</linearGradient>
<linearGradient id="paint36_linear" x1="477.58" y1="45.687" x2="477.745" y2="45.6429" gradientUnits="userSpaceOnUse">
<stop stop-color="#EF8D2E"/>
<stop offset="1" stop-color="#FFC72C"/>
</linearGradient>
<linearGradient id="paint37_linear" x1="477.068" y1="45.6393" x2="477.192" y2="45.6063" gradientUnits="userSpaceOnUse">
<stop stop-color="#EF8D2E"/>
<stop offset="1" stop-color="#FFC72C"/>
</linearGradient>
<linearGradient id="paint38_linear" x1="481.916" y1="43.0948" x2="482.241" y2="43.0081" gradientUnits="userSpaceOnUse">
<stop stop-color="#EF8D2E"/>
<stop offset="1" stop-color="#FFC72C"/>
</linearGradient>
<linearGradient id="paint39_linear" x1="482.097" y1="42.7052" x2="482.43" y2="42.6162" gradientUnits="userSpaceOnUse">
<stop stop-color="#EF8D2E"/>
<stop offset="1" stop-color="#FFC72C"/>
</linearGradient>
<linearGradient id="paint40_linear" x1="482.253" y1="42.2874" x2="482.595" y2="42.1961" gradientUnits="userSpaceOnUse">
<stop stop-color="#EF8D2E"/>
<stop offset="1" stop-color="#FFC72C"/>
</linearGradient>
<linearGradient id="paint41_linear" x1="482.374" y1="41.8701" x2="482.715" y2="41.7788" gradientUnits="userSpaceOnUse">
<stop stop-color="#EF8D2E"/>
<stop offset="1" stop-color="#FFC72C"/>
</linearGradient>
<linearGradient id="paint42_linear" x1="482.468" y1="41.3896" x2="482.809" y2="41.2984" gradientUnits="userSpaceOnUse">
<stop stop-color="#EF8D2E"/>
<stop offset="1" stop-color="#FFC72C"/>
</linearGradient>
<linearGradient id="paint43_linear" x1="482.512" y1="40.8874" x2="482.862" y2="40.794" gradientUnits="userSpaceOnUse">
<stop stop-color="#EF8D2E"/>
<stop offset="1" stop-color="#FFC72C"/>
</linearGradient>
<linearGradient id="paint44_linear" x1="482.507" y1="40.3992" x2="482.857" y2="40.3057" gradientUnits="userSpaceOnUse">
<stop stop-color="#EF8D2E"/>
<stop offset="1" stop-color="#FFC72C"/>
</linearGradient>
<linearGradient id="paint45_linear" x1="482.438" y1="39.8746" x2="482.771" y2="39.7856" gradientUnits="userSpaceOnUse">
<stop stop-color="#EF8D2E"/>
<stop offset="1" stop-color="#FFC72C"/>
</linearGradient>
<linearGradient id="paint46_linear" x1="482.327" y1="39.3947" x2="482.677" y2="39.3013" gradientUnits="userSpaceOnUse">
<stop stop-color="#EF8D2E"/>
<stop offset="1" stop-color="#FFC72C"/>
</linearGradient>
<linearGradient id="paint47_linear" x1="482.167" y1="38.8942" x2="482.5" y2="38.8052" gradientUnits="userSpaceOnUse">
<stop stop-color="#EF8D2E"/>
<stop offset="1" stop-color="#FFC72C"/>
</linearGradient>
<linearGradient id="paint48_linear" x1="481.919" y1="38.469" x2="482.311" y2="38.3645" gradientUnits="userSpaceOnUse">
<stop stop-color="#EF8D2E"/>
<stop offset="1" stop-color="#FFC72C"/>
</linearGradient>
<linearGradient id="paint49_linear" x1="481.687" y1="38.0315" x2="482.036" y2="37.9381" gradientUnits="userSpaceOnUse">
<stop stop-color="#EF8D2E"/>
<stop offset="1" stop-color="#FFC72C"/>
</linearGradient>
<linearGradient id="paint50_linear" x1="481.254" y1="37.4804" x2="481.604" y2="37.387" gradientUnits="userSpaceOnUse">
<stop stop-color="#EF8D2E"/>
<stop offset="1" stop-color="#FFC72C"/>
</linearGradient>
<linearGradient id="paint51_linear" x1="480.766" y1="36.9877" x2="481.115" y2="36.8943" gradientUnits="userSpaceOnUse">
<stop stop-color="#EF8D2E"/>
<stop offset="1" stop-color="#FFC72C"/>
</linearGradient>
<linearGradient id="paint52_linear" x1="198.106" y1="87.2574" x2="198.14" y2="87.5918" gradientUnits="userSpaceOnUse">
<stop stop-color="#EF8D2E"/>
<stop offset="1" stop-color="#FFC72C"/>
</linearGradient>
<linearGradient id="paint53_linear" x1="197.794" y1="86.9511" x2="197.826" y2="87.2768" gradientUnits="userSpaceOnUse">
<stop stop-color="#EF8D2E"/>
<stop offset="1" stop-color="#FFC72C"/>
</linearGradient>
<linearGradient id="paint54_linear" x1="197.502" y1="86.5992" x2="197.536" y2="86.9335" gradientUnits="userSpaceOnUse">
<stop stop-color="#EF8D2E"/>
<stop offset="1" stop-color="#FFC72C"/>
</linearGradient>
<linearGradient id="paint55_linear" x1="197.262" y1="86.2509" x2="197.293" y2="86.5595" gradientUnits="userSpaceOnUse">
<stop stop-color="#EF8D2E"/>
<stop offset="1" stop-color="#FFC72C"/>
</linearGradient>
<linearGradient id="paint56_linear" x1="197.013" y1="85.8084" x2="197.044" y2="86.1256" gradientUnits="userSpaceOnUse">
<stop stop-color="#EF8D2E"/>
<stop offset="1" stop-color="#FFC72C"/>
</linearGradient>
<linearGradient id="paint57_linear" x1="196.812" y1="85.3434" x2="196.842" y2="85.6349" gradientUnits="userSpaceOnUse">
<stop stop-color="#EF8D2E"/>
<stop offset="1" stop-color="#FFC72C"/>
</linearGradient>
<linearGradient id="paint58_linear" x1="196.662" y1="84.8744" x2="196.689" y2="85.1478" gradientUnits="userSpaceOnUse">
<stop stop-color="#EF8D2E"/>
<stop offset="1" stop-color="#FFC72C"/>
</linearGradient>
<linearGradient id="paint59_linear" x1="196.558" y1="84.3644" x2="196.584" y2="84.6207" gradientUnits="userSpaceOnUse">
<stop stop-color="#EF8D2E"/>
<stop offset="1" stop-color="#FFC72C"/>
</linearGradient>
<linearGradient id="paint60_linear" x1="196.507" y1="83.8596" x2="196.53" y2="84.0988" gradientUnits="userSpaceOnUse">
<stop stop-color="#EF8D2E"/>
<stop offset="1" stop-color="#FFC72C"/>
</linearGradient>
<linearGradient id="paint61_linear" x1="196.512" y1="83.3306" x2="196.533" y2="83.5356" gradientUnits="userSpaceOnUse">
<stop stop-color="#EF8D2E"/>
<stop offset="1" stop-color="#FFC72C"/>
</linearGradient>
<linearGradient id="paint62_linear" x1="196.573" y1="82.8402" x2="196.59" y2="83.0104" gradientUnits="userSpaceOnUse">
<stop stop-color="#EF8D2E"/>
<stop offset="1" stop-color="#FFC72C"/>
</linearGradient>
<linearGradient id="paint63_linear" x1="196.7" y1="82.343" x2="196.713" y2="82.4702" gradientUnits="userSpaceOnUse">
<stop stop-color="#EF8D2E"/>
<stop offset="1" stop-color="#FFC72C"/>
</linearGradient>
<linearGradient id="paint64_linear" x1="198.458" y1="87.534" x2="198.491" y2="87.8683" gradientUnits="userSpaceOnUse">
<stop stop-color="#EF8D2E"/>
<stop offset="1" stop-color="#FFC72C"/>
</linearGradient>
<linearGradient id="paint65_linear" x1="198.814" y1="87.7754" x2="198.849" y2="88.1183" gradientUnits="userSpaceOnUse">
<stop stop-color="#EF8D2E"/>
<stop offset="1" stop-color="#FFC72C"/>
</linearGradient>
<linearGradient id="paint66_linear" x1="199.203" y1="87.9963" x2="199.238" y2="88.3477" gradientUnits="userSpaceOnUse">
<stop stop-color="#EF8D2E"/>
<stop offset="1" stop-color="#FFC72C"/>
</linearGradient>
<linearGradient id="paint67_linear" x1="199.597" y1="88.182" x2="199.632" y2="88.5335" gradientUnits="userSpaceOnUse">
<stop stop-color="#EF8D2E"/>
<stop offset="1" stop-color="#FFC72C"/>
</linearGradient>
<linearGradient id="paint68_linear" x1="200.057" y1="88.3525" x2="200.092" y2="88.7039" gradientUnits="userSpaceOnUse">
<stop stop-color="#EF8D2E"/>
<stop offset="1" stop-color="#FFC72C"/>
</linearGradient>
<linearGradient id="paint69_linear" x1="200.546" y1="88.4768" x2="200.582" y2="88.8369" gradientUnits="userSpaceOnUse">
<stop stop-color="#EF8D2E"/>
<stop offset="1" stop-color="#FFC72C"/>
</linearGradient>
<linearGradient id="paint70_linear" x1="201.031" y1="88.5501" x2="201.066" y2="88.9102" gradientUnits="userSpaceOnUse">
<stop stop-color="#EF8D2E"/>
<stop offset="1" stop-color="#FFC72C"/>
</linearGradient>
<linearGradient id="paint71_linear" x1="201.559" y1="88.567" x2="201.593" y2="88.9099" gradientUnits="userSpaceOnUse">
<stop stop-color="#EF8D2E"/>
<stop offset="1" stop-color="#FFC72C"/>
</linearGradient>
<linearGradient id="paint72_linear" x1="202.049" y1="88.5343" x2="202.085" y2="88.8944" gradientUnits="userSpaceOnUse">
<stop stop-color="#EF8D2E"/>
<stop offset="1" stop-color="#FFC72C"/>
</linearGradient>
<linearGradient id="paint73_linear" x1="202.57" y1="88.4563" x2="202.605" y2="88.7992" gradientUnits="userSpaceOnUse">
<stop stop-color="#EF8D2E"/>
<stop offset="1" stop-color="#FFC72C"/>
</linearGradient>
<linearGradient id="paint74_linear" x1="203.029" y1="88.2814" x2="203.069" y2="88.6843" gradientUnits="userSpaceOnUse">
<stop stop-color="#EF8D2E"/>
<stop offset="1" stop-color="#FFC72C"/>
</linearGradient>
<linearGradient id="paint75_linear" x1="203.498" y1="88.1212" x2="203.534" y2="88.4812" gradientUnits="userSpaceOnUse">
<stop stop-color="#EF8D2E"/>
<stop offset="1" stop-color="#FFC72C"/>
</linearGradient>
<linearGradient id="paint76_linear" x1="204.11" y1="87.7829" x2="204.146" y2="88.143" gradientUnits="userSpaceOnUse">
<stop stop-color="#EF8D2E"/>
<stop offset="1" stop-color="#FFC72C"/>
</linearGradient>
<linearGradient id="paint77_linear" x1="204.673" y1="87.3803" x2="204.709" y2="87.7403" gradientUnits="userSpaceOnUse">
<stop stop-color="#EF8D2E"/>
<stop offset="1" stop-color="#FFC72C"/>
</linearGradient>
<linearGradient id="paint78_linear" x1="142.287" y1="52.0009" x2="142.198" y2="51.6769" gradientUnits="userSpaceOnUse">
<stop stop-color="#EF8D2E"/>
<stop offset="1" stop-color="#FFC72C"/>
</linearGradient>
<linearGradient id="paint79_linear" x1="142.645" y1="52.2512" x2="142.558" y2="51.9355" gradientUnits="userSpaceOnUse">
<stop stop-color="#EF8D2E"/>
<stop offset="1" stop-color="#FFC72C"/>
</linearGradient>
<linearGradient id="paint80_linear" x1="142.989" y1="52.5498" x2="142.9" y2="52.2257" gradientUnits="userSpaceOnUse">
<stop stop-color="#EF8D2E"/>
<stop offset="1" stop-color="#FFC72C"/>
</linearGradient>
<linearGradient id="paint81_linear" x1="143.283" y1="52.8534" x2="143.201" y2="52.5543" gradientUnits="userSpaceOnUse">
<stop stop-color="#EF8D2E"/>
<stop offset="1" stop-color="#FFC72C"/>
</linearGradient>
<linearGradient id="paint82_linear" x1="143.601" y1="53.2485" x2="143.516" y2="52.9411" gradientUnits="userSpaceOnUse">
<stop stop-color="#EF8D2E"/>
<stop offset="1" stop-color="#FFC72C"/>
</linearGradient>
<linearGradient id="paint83_linear" x1="143.874" y1="53.6742" x2="143.796" y2="53.3917" gradientUnits="userSpaceOnUse">
<stop stop-color="#EF8D2E"/>
<stop offset="1" stop-color="#FFC72C"/>
</linearGradient>
<linearGradient id="paint84_linear" x1="144.098" y1="54.1118" x2="144.026" y2="53.8468" gradientUnits="userSpaceOnUse">
<stop stop-color="#EF8D2E"/>
<stop offset="1" stop-color="#FFC72C"/>
</linearGradient>
<linearGradient id="paint85_linear" x1="144.284" y1="54.5972" x2="144.215" y2="54.3488" gradientUnits="userSpaceOnUse">
<stop stop-color="#EF8D2E"/>
<stop offset="1" stop-color="#FFC72C"/>
</linearGradient>
<linearGradient id="paint86_linear" x1="144.417" y1="55.0879" x2="144.353" y2="54.856" gradientUnits="userSpaceOnUse">
<stop stop-color="#EF8D2E"/>
<stop offset="1" stop-color="#FFC72C"/>
</linearGradient>
<linearGradient id="paint87_linear" x1="144.498" y1="55.611" x2="144.443" y2="55.4122" gradientUnits="userSpaceOnUse">
<stop stop-color="#EF8D2E"/>
<stop offset="1" stop-color="#FFC72C"/>
</linearGradient>
<linearGradient id="paint88_linear" x1="144.518" y1="56.1051" x2="144.472" y2="55.9402" gradientUnits="userSpaceOnUse">
<stop stop-color="#EF8D2E"/>
<stop offset="1" stop-color="#FFC72C"/>
</linearGradient>
<linearGradient id="paint89_linear" x1="144.473" y1="56.6175" x2="144.439" y2="56.4942" gradientUnits="userSpaceOnUse">
<stop stop-color="#EF8D2E"/>
<stop offset="1" stop-color="#FFC72C"/>
</linearGradient>
<linearGradient id="paint90_linear" x1="141.896" y1="51.7867" x2="141.807" y2="51.4626" gradientUnits="userSpaceOnUse">
<stop stop-color="#EF8D2E"/>
<stop offset="1" stop-color="#FFC72C"/>
</linearGradient>
<linearGradient id="paint91_linear" x1="141.505" y1="51.6081" x2="141.414" y2="51.2758" gradientUnits="userSpaceOnUse">
<stop stop-color="#EF8D2E"/>
<stop offset="1" stop-color="#FFC72C"/>
</linearGradient>
<linearGradient id="paint92_linear" x1="141.086" y1="51.4551" x2="140.993" y2="51.1144" gradientUnits="userSpaceOnUse">
<stop stop-color="#EF8D2E"/>
<stop offset="1" stop-color="#FFC72C"/>
</linearGradient>
<linearGradient id="paint93_linear" x1="140.668" y1="51.3377" x2="140.574" y2="50.997" gradientUnits="userSpaceOnUse">
<stop stop-color="#EF8D2E"/>
<stop offset="1" stop-color="#FFC72C"/>
</linearGradient>
<linearGradient id="paint94_linear" x1="140.187" y1="51.2464" x2="140.093" y2="50.9057" gradientUnits="userSpaceOnUse">
<stop stop-color="#EF8D2E"/>
<stop offset="1" stop-color="#FFC72C"/>
</linearGradient>
<linearGradient id="paint95_linear" x1="139.684" y1="51.2055" x2="139.588" y2="50.8565" gradientUnits="userSpaceOnUse">
<stop stop-color="#EF8D2E"/>
<stop offset="1" stop-color="#FFC72C"/>
</linearGradient>
<linearGradient id="paint96_linear" x1="139.196" y1="51.214" x2="139.1" y2="50.865" gradientUnits="userSpaceOnUse">
<stop stop-color="#EF8D2E"/>
<stop offset="1" stop-color="#FFC72C"/>
</linearGradient>
<linearGradient id="paint97_linear" x1="138.672" y1="51.2867" x2="138.581" y2="50.9544" gradientUnits="userSpaceOnUse">
<stop stop-color="#EF8D2E"/>
<stop offset="1" stop-color="#FFC72C"/>
</linearGradient>
<linearGradient id="paint98_linear" x1="138.193" y1="51.4007" x2="138.097" y2="51.0517" gradientUnits="userSpaceOnUse">
<stop stop-color="#EF8D2E"/>
<stop offset="1" stop-color="#FFC72C"/>
</linearGradient>
<linearGradient id="paint99_linear" x1="137.693" y1="51.5646" x2="137.602" y2="51.2322" gradientUnits="userSpaceOnUse">
<stop stop-color="#EF8D2E"/>
<stop offset="1" stop-color="#FFC72C"/>
</linearGradient>
<linearGradient id="paint100_linear" x1="137.27" y1="51.815" x2="137.163" y2="51.4245" gradientUnits="userSpaceOnUse">
<stop stop-color="#EF8D2E"/>
<stop offset="1" stop-color="#FFC72C"/>
</linearGradient>
<linearGradient id="paint101_linear" x1="136.834" y1="52.0507" x2="136.738" y2="51.7018" gradientUnits="userSpaceOnUse">
<stop stop-color="#EF8D2E"/>
<stop offset="1" stop-color="#FFC72C"/>
</linearGradient>
<linearGradient id="paint102_linear" x1="136.286" y1="52.4871" x2="136.19" y2="52.1382" gradientUnits="userSpaceOnUse">
<stop stop-color="#EF8D2E"/>
<stop offset="1" stop-color="#FFC72C"/>
</linearGradient>
<linearGradient id="paint103_linear" x1="135.797" y1="52.979" x2="135.701" y2="52.63" gradientUnits="userSpaceOnUse">
<stop stop-color="#EF8D2E"/>
<stop offset="1" stop-color="#FFC72C"/>
</linearGradient>
</defs>
</svg>
