<?xml version="1.0" encoding="UTF-8"?>
<svg width="120px" height="120px" viewBox="0 0 120 120" version="1.1" xmlns="http://www.w3.org/2000/svg" xmlns:xlink="http://www.w3.org/1999/xlink">
    <!-- Generator: Sketch 62 (91390) - https://sketch.com -->
    <title>Group 9</title>
    <desc>Created with Sketch.</desc>
    <defs>
        <rect id="path-1" x="0" y="0" width="120" height="120"></rect>
        <path d="M13.7323712,3.0027767 L22.269551,17.8005551 C22.8215292,18.7573173 22.4933869,19.980393 21.5366248,20.5323712 C21.2327183,20.7077018 20.8880358,20.8 20.5371798,20.8 L0,20.8 L0,20.8 L10.2676288,3.0027767 C10.819607,2.04601452 12.0426827,1.71787225 12.9994449,2.26985043 C13.3039161,2.44550688 13.5567147,2.69830552 13.7323712,3.0027767 Z" id="path-3"></path>
    </defs>
    <g id="App-Management-Page" stroke="none" stroke-width="1" fill="none" fill-rule="evenodd">
        <g id="No-Image-App-Copy-3" transform="translate(-876.000000, -312.000000)">
            <g id="Group-2" transform="translate(340.000000, 24.000000)">
                <g id="Group-7" transform="translate(0.000000, 48.000000)">
                    <g id="Group-17">
                        <g id="Group-6-Copy" transform="translate(512.000000, 216.000000)">
                            <g id="Group-12" transform="translate(24.000000, 16.000000)">
                                <g id="Group-9" transform="translate(0.000000, 8.000000)">
                                    <mask id="mask-2" fill="white">
                                        <use xlink:href="#path-1"></use>
                                    </mask>
                                    <use id="Mask" fill="#EEF2F5" xlink:href="#path-1"></use>
                                    <rect id="Rectangle" fill="#EEF2F5" mask="url(#mask-2)" x="0" y="0" width="120" height="120"></rect>
                                    <g id="Group-69" mask="url(#mask-2)">
                                        <g transform="translate(32.000000, 32.000000)">
                                            <rect id="Rectangle" stroke="#C4CDD5" stroke-width="1.5" fill="none" stroke-linecap="square" x="0" y="0" width="56" height="56" rx="4"></rect>
                                            <path d="M17.8661856,23.9013883 L28.1347755,41.7002775 C28.4107646,42.1786586 28.2466935,42.7901965 27.7683124,43.0661856 C27.6163592,43.1538509 27.4440179,43.2 27.2685899,43.2 L6.73141008,43.2 C6.17912533,43.2 5.73141008,42.7522847 5.73141008,42.2 C5.73141008,42.024572 5.77755918,41.8522307 5.86522449,41.7002775 L16.1338144,23.9013883 C16.4098035,23.4230073 17.0213414,23.2589361 17.4997225,23.5349252 C17.651958,23.6227534 17.7783574,23.7491528 17.8661856,23.9013883 Z" id="Rectangle-Copy-4" stroke="none" fill="#EEF2F5" fill-rule="evenodd"></path>
                                            <g id="Rectangle" stroke="none" stroke-width="1" fill="none" fill-rule="evenodd" transform="translate(5.000000, 21.400000)">
                                                <mask id="mask-4" fill="white">
                                                    <use xlink:href="#path-3"></use>
                                                </mask>
                                                <use id="Mask" fill="#C4CDD5" xlink:href="#path-3"></use>
                                                <rect stroke="#EEF2F5" fill="#D8D8D8" mask="url(#mask-4)" transform="translate(13.539153, 13.222208) rotate(30.000000) translate(-13.539153, -13.222208) " x="13.0391532" y="2.72220754" width="1" height="21"></rect>
                                            </g>
                                            <path d="M34.7323712,14.0027767 L51,42.2 L51,42.2 L15,42.2 L31.2676288,14.0027767 C31.819607,13.0460145 33.0426827,12.7178723 33.9994449,13.2698504 C34.3039161,13.4455069 34.5567147,13.6983055 34.7323712,14.0027767 Z" id="Rectangle-Copy-4" stroke="none" fill="#C4CDD5" fill-rule="evenodd"></path>
                                        </g>
                                    </g>
                                </g>
                            </g>
                        </g>
                    </g>
                </g>
            </g>
        </g>
    </g>
</svg>