<svg width="203" height="102" viewBox="0 0 173 42" fill="none" xmlns="http://www.w3.org/2000/svg">
<rect x="0.96875" y="0.5" width="170.723" height="41" rx="20.5" fill="white"/>
<rect x="0.96875" y="0.5" width="170.723" height="41" rx="20.5" stroke="#BFCDD4"/>
<path d="M19.5572 16.2V24.32H23.8832V26H17.7372V16.2H19.5572ZM27.621 18.748C29.637 18.748 30.813 19.924 30.813 21.856V26H29.105V25.104C28.741 25.79 28.041 26.21 27.117 26.21C25.731 26.21 24.723 25.23 24.723 23.928C24.723 22.556 25.773 21.646 27.271 21.646C28.125 21.646 28.755 21.982 29.105 22.458V22.024C29.105 20.876 28.405 20.232 27.285 20.232C26.417 20.232 25.675 20.568 25.101 21.114V19.532C25.731 19.098 26.571 18.748 27.621 18.748ZM27.747 24.978C28.587 24.978 29.119 24.488 29.119 23.816C29.119 23.186 28.601 22.71 27.761 22.71C26.893 22.71 26.403 23.158 26.403 23.844C26.403 24.53 26.879 24.978 27.747 24.978ZM37.3383 22.64V18.958H39.0883V26H37.3663V24.768C36.9743 25.664 36.2183 26.182 35.1963 26.182C33.5723 26.182 32.6623 25.16 32.6623 23.41V18.958H34.3983V23.004C34.3983 24.152 34.8603 24.74 35.8123 24.74C36.8063 24.74 37.3383 23.97 37.3383 22.64ZM45.1054 18.748C46.6174 18.748 47.5554 19.798 47.5554 21.59V26H45.8194V21.968C45.8194 20.792 45.4134 20.232 44.4474 20.232C43.4114 20.232 42.8374 20.988 42.8374 22.22V26H41.1014V18.958H42.8234V20.078C43.2154 19.252 43.9994 18.748 45.1054 18.748ZM52.8296 26.21C50.5476 26.21 49.0496 24.614 49.0496 22.472C49.0496 20.302 50.5476 18.748 52.8576 18.748C53.8796 18.748 54.5796 18.986 55.0976 19.294V20.974C54.5096 20.498 53.8656 20.274 53.0676 20.274C51.6816 20.274 50.8276 21.17 50.8276 22.458C50.8276 23.732 51.6396 24.684 53.1796 24.684C53.9636 24.684 54.7056 24.39 55.1676 24.026V25.58C54.4956 26.014 53.7256 26.21 52.8296 26.21ZM60.7767 18.748C62.2887 18.748 63.2267 19.784 63.2267 21.59V26H61.4907V21.968C61.4907 20.792 61.0847 20.232 60.1187 20.232C59.0827 20.232 58.5087 20.988 58.5087 22.22V26H56.7727V15.92H58.5087V20.022C58.9147 19.224 59.6847 18.748 60.7767 18.748ZM71.1794 18.958H73.0274V20.4H71.1794V26H69.4434V20.4H67.7774V18.958H69.4434V17.152L71.1794 16.69V18.958ZM77.2772 26.21C75.1492 26.21 73.6792 24.67 73.6792 22.5C73.6792 20.302 75.1352 18.748 77.2772 18.748C79.4332 18.748 80.8892 20.302 80.8892 22.5C80.8892 24.67 79.4192 26.21 77.2772 26.21ZM77.2772 24.698C78.4252 24.698 79.1252 23.788 79.1252 22.486C79.1252 21.17 78.4252 20.26 77.2772 20.26C76.1292 20.26 75.4572 21.17 75.4572 22.486C75.4572 23.788 76.1292 24.698 77.2772 24.698Z" fill="#305BEF"/>
<g clip-path="url(#clip0_1279_2422)">
<path d="M127.156 22.2914C126.785 22.4161 126.361 22.4784 125.873 22.4784C124.631 22.4784 123.44 22.1498 122.297 21.4926L120.903 20.6145L117.164 20.5522L116.729 21.5153C117.373 21.7589 117.936 22.0309 118.412 22.3481C119.092 22.7957 119.777 23.1809 120.462 23.5151C121.188 23.8607 121.908 24.1383 122.616 24.3422C123.371 24.5632 124.096 24.6935 124.799 24.7445L127.359 22.5634L127.15 22.2914H127.156Z" fill="#ED2F3D"/>
<path d="M137.328 14.4851C136.73 14.1792 135.935 13.845 134.936 13.4881C133.937 13.1312 133.316 12.8366 133.055 12.6156C132.799 12.389 132.672 12.1511 132.672 11.9018C132.672 11.5732 132.852 11.3127 133.206 11.1144C133.56 10.9161 134.042 10.8198 134.646 10.8198C135.708 10.8198 137.131 11.2107 138.913 11.9981V9.4205C137.316 8.74632 135.795 8.40644 134.355 8.40644C132.794 8.40644 131.545 8.752 130.616 9.44314C129.681 10.1343 129.217 11.0464 129.217 12.1738C129.217 13.0462 129.432 13.76 129.856 14.3209C130.285 14.8817 130.79 15.3066 131.377 15.6125C131.963 15.9184 132.759 16.2413 133.769 16.5926C134.773 16.9438 135.412 17.2384 135.673 17.4877C135.935 17.7313 136.068 17.9919 136.068 18.2695C136.068 19.0796 135.412 19.4818 134.094 19.4818C133.316 19.4818 132.579 19.3458 131.888 19.0796C131.191 18.8076 130.396 18.3827 129.496 17.7936V20.6262C131.063 21.4703 132.683 21.8952 134.355 21.8952C135.906 21.8952 137.154 21.5326 138.1 20.8131C139.047 20.0936 139.523 19.1249 139.523 17.9069C139.523 17.0571 139.308 16.349 138.873 15.7881C138.437 15.2329 137.92 14.7967 137.328 14.4908V14.4851ZM153.277 8.57638L148.946 13.4484L144.615 8.57638H141.706V21.7139H145.056V13.5164L148.697 17.635H149.196L152.836 13.5164V21.7139H156.192V8.57638H153.277ZM121.013 21.7592C121.565 21.6799 122.035 21.5666 122.418 21.4476C127.167 19.9747 128.915 13.964 125.112 10.4459C122.505 7.71527 116.897 7.73227 114.255 10.4459C112.826 11.8112 112.112 13.4031 112.112 15.2216C112.118 18.0429 113.988 20.4845 116.728 21.5099C118.447 22.1218 120.02 21.8952 121.013 21.7592ZM116.635 18.0995C115.875 17.3574 115.491 16.3886 115.491 15.182C115.462 12.7572 117.227 11.1031 119.654 11.137C122.041 11.1087 123.858 12.7403 123.817 15.182C123.852 17.618 122.058 19.2382 119.654 19.2099C118.406 19.2099 117.402 18.8416 116.635 18.0995Z" fill="#38394B"/>
<path d="M90.3513 14.1338H90.328C89.8535 14.1338 89.4688 14.5091 89.4688 14.9722V20.66C89.4688 21.1231 89.8535 21.4985 90.328 21.4985H90.3513C90.8259 21.4985 91.2106 21.1231 91.2106 20.66V14.9722C91.2106 14.5091 90.8259 14.1338 90.3513 14.1338Z" fill="#ED2F3D"/>
<path d="M96.1569 11.8677H96.1337C95.6591 11.8677 95.2744 12.2431 95.2744 12.7061V20.0935C95.2744 20.5566 95.6591 20.9319 96.1337 20.9319H96.1569C96.6315 20.9319 97.0162 20.5566 97.0162 20.0935V12.7061C97.0162 12.2431 96.6315 11.8677 96.1569 11.8677Z" fill="#38394B"/>
<path d="M101.964 11.8677H101.94C101.466 11.8677 101.081 12.2431 101.081 12.7061V20.0935C101.081 20.5566 101.466 20.9319 101.94 20.9319H101.964C102.438 20.9319 102.823 20.5566 102.823 20.0935V12.7061C102.823 12.2431 102.438 11.8677 101.964 11.8677Z" fill="#48A0DF"/>
<path d="M107.769 11.3013H107.746C107.271 11.3013 106.887 11.6767 106.887 12.1397V20.6601C106.887 21.1232 107.271 21.4985 107.746 21.4985H107.769C108.244 21.4985 108.629 21.1232 108.629 20.6601V12.1397C108.629 11.6767 108.244 11.3013 107.769 11.3013Z" fill="#48A0DF"/>
<path d="M93.2546 12.4346H93.2314C92.7568 12.4346 92.3721 12.81 92.3721 13.273V18.9608C92.3721 19.4239 92.7568 19.7993 93.2314 19.7993H93.2546C93.7292 19.7993 94.1139 19.4239 94.1139 18.9608V13.273C94.1139 12.81 93.7292 12.4346 93.2546 12.4346Z" fill="#48A0DF"/>
<path d="M99.0603 10.7349H99.037C98.5624 10.7349 98.1777 11.1102 98.1777 11.5733V17.2611C98.1777 17.7242 98.5624 18.0996 99.037 18.0996H99.0603C99.5348 18.0996 99.9196 17.7242 99.9196 17.2611V11.5733C99.9196 11.1102 99.5348 10.7349 99.0603 10.7349Z" fill="#48A0DF"/>
<path d="M104.867 12.4346H104.844C104.369 12.4346 103.984 12.81 103.984 13.273V18.9608C103.984 19.4239 104.369 19.7993 104.844 19.7993H104.867C105.341 19.7993 105.726 19.4239 105.726 18.9608V13.273C105.726 12.81 105.341 12.4346 104.867 12.4346Z" fill="#ED2F3D"/>
<path fill-rule="evenodd" clip-rule="evenodd" d="M112.193 31.2679H112.636V30.6704H112.193V30.5509C112.193 30.388 112.223 30.2755 112.284 30.2131C112.345 30.1508 112.454 30.1213 112.609 30.1248V29.5117C112.252 29.5013 111.986 29.5792 111.809 29.7455C111.632 29.9118 111.544 30.1715 111.544 30.5249V30.6704H111.256V31.2679H111.544V33.549H112.193V31.2679ZM114.176 33.5958C113.932 33.5958 113.713 33.5352 113.517 33.414C113.322 33.2893 113.169 33.1143 113.056 32.8892C112.946 32.664 112.891 32.4042 112.891 32.1098C112.891 31.8153 112.948 31.5555 113.06 31.3303C113.176 31.1052 113.333 30.932 113.531 30.8108C113.729 30.6861 113.95 30.6237 114.194 30.6237C114.438 30.6237 114.659 30.6861 114.857 30.8108C115.055 30.932 115.21 31.1052 115.323 31.3303C115.439 31.5555 115.497 31.8153 115.497 32.1098C115.497 32.4042 115.437 32.664 115.319 32.8892C115.203 33.1143 115.044 33.2893 114.843 33.414C114.645 33.5352 114.423 33.5958 114.176 33.5958ZM114.176 32.9619C114.292 32.9619 114.4 32.9308 114.5 32.8684C114.604 32.8026 114.686 32.7056 114.747 32.5774C114.808 32.4493 114.839 32.2934 114.839 32.1098C114.839 31.8361 114.775 31.6265 114.647 31.4811C114.522 31.3321 114.368 31.2576 114.185 31.2576C114.002 31.2576 113.848 31.3321 113.723 31.4811C113.601 31.6265 113.54 31.8361 113.54 32.1098C113.54 32.3834 113.6 32.5947 113.719 32.7437C113.841 32.8892 113.993 32.9619 114.176 32.9619ZM116.606 31.1173C116.689 30.9649 116.795 30.8454 116.926 30.7588C117.06 30.6722 117.213 30.6289 117.384 30.6289V31.3927H117.214C117.013 31.3927 116.861 31.4464 116.757 31.5538C116.657 31.6611 116.606 31.8482 116.606 32.1149V33.549H115.966V30.6704H116.606V31.1173Z" fill="#38394B"/>
<path d="M130.145 32.1907C130.079 31.4437 129.461 31.2569 128.855 31.0515C128.309 30.8648 127.795 30.8194 127.741 30.4192C127.68 29.9951 128.09 29.7096 128.518 29.7843C128.983 29.867 129.069 30.2325 128.962 30.4699C129.176 30.7394 129.709 30.7127 129.871 30.5233C130.006 30.3685 130.051 30.1124 129.769 29.8697C129.424 29.5709 128.714 29.4295 128.035 29.5602C127.367 29.6883 126.84 30.1445 126.897 30.8087C126.963 31.5237 127.459 31.7318 128.249 31.9452C129.012 32.1533 129.262 32.4308 129.213 32.7936C129.168 33.1164 128.899 33.3832 128.323 33.3138C127.746 33.2444 127.445 32.7962 127.563 32.2867C126.908 32.132 126.623 32.7936 127.171 33.2284C127.696 33.6473 128.73 33.6847 129.312 33.4579C129.829 33.2524 130.205 32.8816 130.145 32.1907ZM125.691 29.3121C126.046 29.3121 126.336 29.0506 126.336 28.7305C126.336 28.4077 126.046 28.1489 125.691 28.1489C125.336 28.1489 125.046 28.4104 125.046 28.7305C125.046 29.0506 125.334 29.3121 125.691 29.3121ZM126.198 29.6296C125.874 29.7763 125.506 29.7763 125.182 29.6296V33.4792H126.2L126.198 29.6296ZM132.867 29.5148C132.512 29.5122 132.165 29.6269 131.878 29.843V28.261H130.834V33.4766H131.875V31.0595C131.875 30.4459 131.967 30.1551 132.27 29.923C132.544 29.7123 132.932 29.7496 133.144 29.9017C133.4 30.0831 133.386 30.5206 133.386 30.8701V33.4792H134.405V30.8541C134.407 29.9177 133.786 29.5148 132.867 29.5148ZM123.425 33.4792H122.407L121.606 31.0969L121.04 33.4766H120.022L118.745 29.6322H119.792L120.873 32.9617C121.259 31.8465 121.502 30.8061 121.126 29.6322H122.144L123.425 33.4792ZM123.848 29.5095C123.626 29.9097 123.339 30.2672 122.997 30.566C123.365 30.9768 123.655 31.4544 123.848 31.9746C124.041 31.4544 124.329 30.9742 124.699 30.566C124.357 30.2672 124.07 29.9097 123.848 29.5095Z" fill="#ED2F3D"/>
</g>
<defs>
<clipPath id="clip0_1279_2422">
<rect width="66.7234" height="32" fill="white" transform="translate(89.4688 5)"/>
</clipPath>
</defs>
</svg>
