<svg width="186" height="162" viewBox="0 0 186 162" fill="none" xmlns="http://www.w3.org/2000/svg">
    <rect x="20.8516" y="136.939" width="25.2477" height="24.0608" fill="#C4D62D" stroke="#1E1E1C" stroke-width="0.75"
        stroke-linejoin="round" />
    <rect x="11.2822" y="136.939" width="25.2477" height="24.0608" fill="#DAEE32" stroke="#1E1E1C" stroke-width="0.75"
        stroke-linejoin="round" />
    <rect x="23.3408" y="120.585" width="24.1171" height="16.3652" fill="#626AC0" stroke="#1E1E1C" stroke-width="0.75"
        stroke-linejoin="round" />
    <rect x="17.0566" y="120.577" width="17.1684" height="16.3613" fill="#7A84F0" stroke="#1E1E1C" stroke-width="0.75"
        stroke-linejoin="round" />
    <path d="M144.162 87.8555L123.226 106.965H153.503L174.44 87.8555H144.162Z" fill="#32E476" stroke="#1E1E1C"
        stroke-width="0.75" stroke-linejoin="round" />
    <path d="M52.6033 87.8555L73.54 106.965H43.2623L22.3255 87.8555H52.6033Z" fill="#16A44C" stroke="#1E1E1C"
        stroke-width="0.75" stroke-linejoin="round" />
    <rect x="73.4619" y="105.979" width="80.2648" height="55.0202" fill="#16A44C" stroke="#1E1E1C" stroke-width="0.75"
        stroke-linejoin="round" />
    <rect x="43.0391" y="105.979" width="80.2648" height="55.0202" fill="#32E476" stroke="#1E1E1C" stroke-width="0.75"
        stroke-linejoin="round" />
    <path
        d="M62.0562 112.06C61.9097 111.914 61.6723 111.914 61.5259 112.06L59.1394 114.447C58.9929 114.593 58.9929 114.831 59.1394 114.977C59.2858 115.124 59.5232 115.124 59.6697 114.977L61.791 112.856L63.9123 114.977C64.0588 115.124 64.2962 115.124 64.4427 114.977C64.5891 114.831 64.5891 114.593 64.4427 114.447L62.0562 112.06ZM61.416 121.686C61.416 121.893 61.5839 122.061 61.791 122.061C61.9981 122.061 62.166 121.893 62.166 121.686L61.416 121.686ZM61.416 112.325L61.416 121.686L62.166 121.686L62.166 112.325L61.416 112.325Z"
        fill="#1E1E1C" />
    <path
        d="M53.6314 112.06C53.4849 111.914 53.2475 111.914 53.101 112.06L50.7146 114.447C50.5681 114.593 50.5681 114.831 50.7146 114.977C50.861 115.124 51.0984 115.124 51.2449 114.977L53.3662 112.856L55.4875 114.977C55.634 115.124 55.8714 115.124 56.0179 114.977C56.1643 114.831 56.1643 114.593 56.0179 114.447L53.6314 112.06ZM52.9912 121.686C52.9912 121.893 53.1591 122.061 53.3662 122.061C53.5733 122.061 53.7412 121.893 53.7412 121.686L52.9912 121.686ZM52.9912 112.325L52.9912 121.686L53.7412 121.686L53.7412 112.325L52.9912 112.325Z"
        fill="#1E1E1C" />
    <rect x="147.488" y="128.277" width="34.3368" height="32.7226" fill="#626AC0" stroke="#1E1E1C" stroke-width="0.75"
        stroke-linejoin="round" />
    <rect x="134.474" y="128.277" width="34.3368" height="32.7226" fill="#7A84F0" stroke="#1E1E1C" stroke-width="0.75"
        stroke-linejoin="round" />
    <path
        d="M11.5072 49.3981C9.08642 43.6187 11.8091 36.9712 17.5885 34.5505L31.9614 28.5302C37.7408 26.1095 44.3883 28.8322 46.8091 34.6116C49.2298 40.391 46.5071 47.0385 40.7277 49.4592L26.3548 55.4794C20.5754 57.9002 13.9279 55.1775 11.5072 49.3981Z"
        fill="#32E476" stroke="#1E1E1C" stroke-width="0.75" stroke-linejoin="round" />
    <path
        d="M27.3087 70.4925L19.2397 73.8723C18.1239 74.3396 16.8448 73.8158 16.3775 72.7L10.4629 58.5792L20.5491 54.3545L27.3087 70.4925Z"
        fill="#16A44C" stroke="#1E1E1C" stroke-width="0.75" stroke-linejoin="round" />
    <path d="M44.9071 46.5221L21.3936 56.371L27.3082 70.4917L50.8217 60.6429L44.9071 46.5221Z" fill="#16A44C"
        stroke="#1E1E1C" stroke-width="0.75" stroke-linejoin="round" />
    <path d="M44.4843 45.5138L20.9707 55.3627L25.1954 65.4489L48.709 55.6001L44.4843 45.5138Z" fill="#32E476"
        stroke="#1E1E1C" stroke-width="0.75" stroke-linejoin="round" />
    <path
        d="M26.9806 75.3717C25.8648 75.839 24.5857 75.3152 24.1184 74.1994L23.2734 72.1821L27.3079 70.4922L28.1529 72.5095C28.6202 73.6253 28.0964 74.9043 26.9806 75.3717Z"
        fill="#32E476" stroke="#1E1E1C" stroke-width="0.75" stroke-linejoin="round" />
    <path
        d="M54.5284 63.8329C53.4126 64.3002 52.1336 63.7764 51.6662 62.6606L50.8213 60.6433L54.8558 58.9534L55.7007 60.9707C56.1681 62.0865 55.6442 63.3655 54.5284 63.8329Z"
        fill="#32E476" stroke="#1E1E1C" stroke-width="0.75" stroke-linejoin="round" />
    <path d="M44.4843 45.5138L20.9707 55.3627L21.8156 57.3799L45.3292 47.5311L44.4843 45.5138Z" fill="white"
        stroke="#1E1E1C" stroke-width="0.75" stroke-linejoin="round" />
    <path
        d="M58.891 57.264L50.822 60.6437L44.0625 44.5057L54.1488 40.281L60.0634 54.4018C60.5307 55.5176 60.0068 56.7966 58.891 57.264Z"
        fill="#16A44C" stroke="#1E1E1C" stroke-width="0.75" stroke-linejoin="round" />
    <path
        d="M17.0321 62.9412C20.3743 61.5413 21.9489 57.6969 20.549 54.3547C19.149 51.0124 15.3047 49.4378 11.9624 50.8377C8.62011 52.2377 7.04553 56.082 8.44547 59.4243C9.84542 62.7666 13.6898 64.3412 17.0321 62.9412Z"
        fill="#16A44C" stroke="#1E1E1C" stroke-width="0.75" stroke-linejoin="round" />
    <path
        d="M52.6488 48.0231C55.991 46.6232 57.5656 42.7789 56.1657 39.4366C54.7657 36.0943 50.9214 34.5197 47.5791 35.9196C44.2368 37.3196 42.6622 41.1639 44.0622 44.5062C45.4621 47.8485 49.3065 49.4231 52.6488 48.0231Z"
        fill="#16A44C" stroke="#1E1E1C" stroke-width="0.75" stroke-linejoin="round" />
    <g clip-path="url(#clip0_458_23034)">
        <path d="M91.7763 55.3236L85.7026 56.7473L74.3429 62.0773L79.4245 74.667L98.3574 65.7837L91.7763 55.3236Z"
            fill="#C4D62D" stroke="#1E1E1C" stroke-width="0.75" />
        <path d="M110.073 58.1476L115.435 61.3362L124.659 69.8431L116.018 80.3149L100.645 66.1367L110.073 58.1476Z"
            fill="#C4D62D" stroke="#1E1E1C" stroke-width="0.75" />
        <path
            d="M109.74 98.2347L80.0078 93.6459L85.7027 56.7474L91.7763 55.3238L110.073 58.1477L115.435 61.3363L109.74 98.2347Z"
            fill="#DAEE32" stroke="#1E1E1C" stroke-width="0.75" />
        <path d="M106.999 55.3113L95.5635 53.5464L94.6736 59.3118L106.109 61.0767L106.999 55.3113Z" fill="#C4D62D"
            stroke="#1E1E1C" stroke-width="0.75" />
        <path d="M101.535 60.3713L99.248 60.0183L98.3582 65.7837L100.645 66.1367L101.535 60.3713Z" fill="#C4D62D"
            stroke="#1E1E1C" stroke-width="0.75" />
        <path d="M96.2489 64.2772L91.7769 55.3232L95.5635 53.5466L100.391 60.1944L96.2489 64.2772Z" fill="white"
            stroke="#1E1E1C" stroke-width="0.75" />
        <path d="M103.182 65.3476L110.074 58.1476L106.999 55.3119L100.391 60.1948L103.182 65.3476Z" fill="white"
            stroke="#1E1E1C" stroke-width="0.75" />
    </g>
    <path
        d="M96.9609 7.33934L84.3116 5.38704C82.6741 5.13432 81.1418 6.25687 80.8891 7.89434L77.4075 30.4525C77.1547 32.0899 78.2773 33.6222 79.9148 33.875L92.564 35.8273C94.2015 36.08 95.7338 34.9574 95.9865 33.32L99.4682 10.7618C99.7209 9.12437 98.5983 7.59206 96.9609 7.33934Z"
        fill="#7A84F0" stroke="#1E1E1C" stroke-width="0.75" stroke-linejoin="round" />
    <path
        d="M97.4367 9.94885C97.4683 9.74416 97.328 9.55263 97.1233 9.52104L83.4986 7.41821C83.2939 7.38662 83.1024 7.52693 83.0708 7.73162L79.821 28.7879C79.7894 28.9926 79.9297 29.1841 80.1344 29.2157L93.759 31.3186C93.9637 31.3501 94.1553 31.2098 94.1869 31.0051L97.4367 9.94885Z"
        fill="#DCDCDA" stroke="#1E1E1C" stroke-width="0.75" stroke-linejoin="round" />
    <path d="M92.927 9.25016L81.8661 18.0574L81.4343 21.2076L95.2934 9.61292L92.927 9.25016Z" fill="white" />
    <path d="M96.9173 10.9867L80.9188 23.5897L80.1594 28.7139L96.0463 16.5109L96.9173 10.9867Z" fill="white" />
    <path
        d="M86.4305 33.6119C85.7454 33.5061 85.2773 32.8672 85.3831 32.1821C85.4888 31.497 86.1277 31.0289 86.8128 31.1346C87.4979 31.2404 87.966 31.8793 87.8603 32.5644C87.7545 33.2495 87.1156 33.7176 86.4305 33.6119Z"
        fill="#626AC0" stroke="#1E1E1C" stroke-width="0.75" stroke-linejoin="round" />
    <path
        d="M123.967 17.289L120.888 18.4851L117.103 8.74086C116.803 7.96811 117.212 7.23367 117.855 7.37865L119.26 7.6966C119.92 7.84621 120.526 8.43736 120.831 9.22293L123.964 17.2903L123.967 17.289Z"
        fill="#DAEE32" stroke="#1E1E1C" stroke-width="0.75" stroke-linejoin="round" />
    <path d="M124.396 15.3502L119.264 17.3438L124.046 29.6564L129.179 27.6628L124.396 15.3502Z" fill="#D0DBFF"
        stroke="#1E1E1C" stroke-width="0.75" stroke-linejoin="round" />
    <path
        d="M130.604 28.2914L123.418 31.0823L120.03 22.3609C119.81 21.7934 120.091 21.1567 120.658 20.9361L125.791 18.9426C126.359 18.7221 126.996 19.0024 127.216 19.5699L130.604 28.2914Z"
        fill="#32E476" stroke="#1E1E1C" stroke-width="0.75" stroke-linejoin="round" />
    <path
        d="M137.444 35.1046C137.141 35.1032 136.894 34.8543 136.896 34.5516L136.996 13.0877C136.998 12.785 137.247 12.5385 137.55 12.5399C137.852 12.5414 138.099 12.7902 138.098 13.0929L137.997 34.5568C137.995 34.8595 137.746 35.106 137.444 35.1046Z"
        fill="#1E1E1C" />
    <path
        d="M134.783 15.5952L134.783 15.5092C134.784 15.3819 134.887 15.2758 135.018 15.2764L140.06 15.3001C140.187 15.3006 140.293 15.4043 140.293 15.5351L140.292 15.621C140.292 15.7483 140.188 15.8545 140.057 15.8538L135.016 15.8302C134.885 15.8296 134.782 15.7224 134.783 15.5952Z"
        fill="#1E1E1C" />
    <path
        d="M134.224 17.2227L134.224 17.1814C134.225 17.0404 134.339 16.9274 134.48 16.9281L140.578 16.9567C140.719 16.9574 140.832 17.0714 140.832 17.2125L140.832 17.2537C140.831 17.3948 140.717 17.5077 140.576 17.5071L134.478 17.4784C134.337 17.4778 134.224 17.3603 134.224 17.2227Z"
        fill="#1E1E1C" />
    <path
        d="M133.666 18.8511C133.666 18.6998 133.791 18.5765 133.942 18.5772L141.1 18.6108C141.252 18.6116 141.375 18.736 141.374 18.8873C141.374 19.0387 141.249 19.1619 141.098 19.1612L133.94 19.1276C133.788 19.1269 133.665 19.0025 133.666 18.8511Z"
        fill="#1E1E1C" />
    <path
        d="M134.209 20.5246L134.209 20.4833C134.209 20.3423 134.324 20.2293 134.465 20.23L140.563 20.2586C140.704 20.2593 140.817 20.3733 140.816 20.5143L140.816 20.5556C140.815 20.6966 140.701 20.8096 140.56 20.809L134.462 20.7803C134.321 20.7797 134.208 20.6622 134.209 20.5246Z"
        fill="#1E1E1C" />
    <path
        d="M134.751 22.1994L134.752 22.1134C134.752 21.9861 134.856 21.88 134.987 21.8806L140.029 21.9043C140.156 21.9049 140.262 22.0086 140.261 22.1393L140.261 22.2253C140.26 22.3526 140.157 22.4587 140.026 22.4581L134.984 22.4344C134.854 22.4338 134.751 22.3267 134.751 22.1994Z"
        fill="#1E1E1C" />
    <path
        d="M141.29 36.774L133.582 36.7378L133.626 27.3817C133.629 26.7729 134.123 26.2833 134.732 26.2862L140.238 26.312C140.847 26.3149 141.337 26.8091 141.334 27.4179L141.29 36.774Z"
        fill="#32E476" stroke="#1E1E1C" stroke-width="0.75" stroke-linejoin="round" />
    <path
        d="M168.894 79.9274L165.439 78.4474L170.947 65.5881C173.591 59.4176 170.749 52.1051 164.576 49.4541C158.386 46.7962 151.184 49.6785 148.531 55.8706L142.981 68.827L139.526 67.347L145.076 54.3905C146.757 50.4658 149.865 47.4331 153.826 45.8523C157.784 44.2638 162.125 44.3155 166.05 45.9968C169.975 47.678 173.008 50.7853 174.588 54.7465C176.177 58.7046 176.125 63.0462 174.444 66.971L168.894 79.9274Z"
        fill="#16A44C" stroke="#1E1E1C" stroke-width="0.75" stroke-linejoin="round" />
    <path
        d="M169.758 80.2983L163.711 77.7082L168.151 67.343L174.198 69.9331C176.103 70.7494 176.989 72.9625 176.173 74.8682L174.693 78.3233C173.876 80.229 171.663 81.1146 169.758 80.2983Z"
        fill="#32E476" stroke="#1E1E1C" stroke-width="0.75" stroke-linejoin="round" />
    <path
        d="M174.693 78.3244L176.173 74.8693C176.99 72.9637 176.104 70.7506 174.198 69.9342L173.334 69.5642L168.894 79.9294L169.758 80.2994C171.664 81.1157 173.877 80.2301 174.693 78.3244Z"
        fill="#DAEE32" stroke="#1E1E1C" stroke-width="0.75" stroke-linejoin="round" />
    <path
        d="M144.709 69.5675L138.662 66.9774C136.757 66.1611 135.871 63.948 136.687 62.0423L138.167 58.5873C138.984 56.6816 141.197 55.7959 143.103 56.6123L149.149 59.2023L144.709 69.5675Z"
        fill="#32E476" stroke="#1E1E1C" stroke-width="0.75" stroke-linejoin="round" />
    <path
        d="M138.167 58.5873L136.687 62.0423C135.871 63.948 136.757 66.1611 138.662 66.9774L139.526 67.3474L143.966 56.9823L143.103 56.6123C141.197 55.7959 138.984 56.6816 138.167 58.5873Z"
        fill="#DAEE32" stroke="#1E1E1C" stroke-width="0.75" stroke-linejoin="round" />
    <rect x="156.769" y="153.511" width="9.36046" height="3.74418" fill="#F7F9FA" />
    <defs>
        <clipPath id="clip0_458_23034">
            <rect width="50.9118" height="42.0022" fill="white" transform="translate(76.123 50.5463) rotate(8.7738)" />
        </clipPath>
    </defs>
</svg>