<svg width="24" height="24" viewBox="0 0 24 24" fill="none" xmlns="http://www.w3.org/2000/svg">
<path fill-rule="evenodd" clip-rule="evenodd" d="M10.6822 2.60837C11.0826 2.37417 11.5366 2.25 12 2.25C12.4634 2.25 12.9174 2.37417 13.3178 2.60837C13.718 2.84244 14.05 3.17771 14.2844 3.57911L14.2864 3.58264L22.3991 17.6526C22.6285 18.0652 22.7487 18.531 22.75 19.0039C22.7513 19.4767 22.6334 19.9431 22.4063 20.357C22.1792 20.7711 21.8496 21.1196 21.4477 21.3653C21.0456 21.6112 20.5861 21.7446 20.1154 21.75L20.1068 21.75L3.88464 21.75C3.41385 21.7446 2.95442 21.6112 2.55229 21.3653C2.15038 21.1196 1.82084 20.7711 1.59366 20.357C1.36657 19.9431 1.24874 19.4767 1.25001 19.0039C1.25128 18.531 1.37163 18.0653 1.60099 17.6527L1.60671 17.6423L9.71564 3.5791C9.95001 3.1777 10.282 2.84244 10.6822 2.60837ZM12 3.75C11.8054 3.75 11.6125 3.802 11.4395 3.90316C11.2668 4.00417 11.1187 4.15158 11.0119 4.33392L11.011 4.33545L2.90954 18.386C2.80623 18.5737 2.7506 18.7881 2.75 19.0079C2.74941 19.2296 2.80478 19.446 2.90872 19.6355C3.01258 19.8248 3.16038 19.979 3.33463 20.0855C3.50754 20.1912 3.70161 20.2471 3.89799 20.25H20.102C20.2984 20.2471 20.4925 20.1912 20.6654 20.0855C20.8396 19.979 20.9874 19.8248 21.0913 19.6355C21.1952 19.446 21.2506 19.2296 21.25 19.0079C21.2494 18.788 21.1938 18.5736 21.0904 18.3859L12.989 4.33545L12.9881 4.33392C12.8813 4.15158 12.7332 4.00417 12.5605 3.90316C12.3875 3.802 12.1946 3.75 12 3.75Z" fill="black"/>
<path fill-rule="evenodd" clip-rule="evenodd" d="M12 7.25C12.4142 7.25 12.75 7.58579 12.75 8V13C12.75 13.4142 12.4142 13.75 12 13.75C11.5858 13.75 11.25 13.4142 11.25 13V8C11.25 7.58579 11.5858 7.25 12 7.25Z" fill="black"/>
<path fill-rule="evenodd" clip-rule="evenodd" d="M11.25 17C11.25 16.5858 11.5858 16.25 12 16.25H12.01C12.4242 16.25 12.76 16.5858 12.76 17C12.76 17.4142 12.4242 17.75 12.01 17.75H12C11.5858 17.75 11.25 17.4142 11.25 17Z" fill="black"/>
</svg>
