<svg width="173" height="151" viewBox="0 0 173 151" fill="none" xmlns="http://www.w3.org/2000/svg">
<path d="M10.0171 68.108C9.93502 66.9432 10.8578 65.9531 12.0255 65.9531H125.757C126.814 65.9531 127.691 66.7705 127.765 67.8249L133.002 142.118C133.084 143.283 132.161 144.273 130.993 144.273H17.262C16.205 144.273 15.328 143.456 15.2537 142.401L10.0171 68.108Z" fill="#618EF3"/>
<rect x="15.7399" y="140.028" width="141.147" height="3.9935" rx="1.99675" fill="#305BEF" stroke="black" stroke-width="0.503333"/>
<rect x="14.9899" y="140.028" width="50.8355" height="3.9935" rx="1.99675" fill="#305BEF" stroke="black" stroke-width="0.503333"/>
<path d="M15.4883 70.4497L123.68 70.4497L128.284 134.904H20.0922L15.4883 70.4497Z" fill="white"/>
<path d="M56.6579 114.792L53.6075 74.8234H119.34L122.391 114.792H56.6579Z" stroke="black" stroke-width="0.503333"/>
<path d="M23.0292 102.238L21.0053 74.8234H48.6058L50.6297 102.238H23.0292Z" stroke="black" stroke-width="0.503333"/>
<path d="M25.2772 132.592L23.2534 105.177H50.8539L52.8777 132.592H25.2772Z" stroke="black" stroke-width="0.503333"/>
<path d="M82.5647 88.5832L83.1274 87.4577C82.6948 87.2414 82.1765 87.2922 81.7942 87.5883L82.5647 88.5832ZM108.047 101.324L107.484 102.45C107.942 102.679 108.492 102.607 108.877 102.27L108.047 101.324ZM143.029 71.8018C143.074 71.1083 142.548 70.5095 141.855 70.4644L130.554 69.7288C129.86 69.6837 129.261 70.2093 129.216 70.9027C129.171 71.5962 129.697 72.195 130.39 72.2402L140.436 72.894L139.782 82.9394C139.737 83.6329 140.262 84.2317 140.956 84.2768C141.649 84.322 142.248 83.7964 142.293 83.1029L143.029 71.8018ZM64.2236 104.38L83.3352 89.578L81.7942 87.5883L62.6826 102.39L64.2236 104.38ZM82.0019 89.7087L107.484 102.45L108.609 100.199L83.1274 87.4577L82.0019 89.7087ZM108.877 102.27L142.603 72.6657L140.943 70.7744L107.217 100.379L108.877 102.27Z" fill="#2EAA77"/>
<path fill-rule="evenodd" clip-rule="evenodd" d="M66.8256 24.7042C69.0982 22.2145 70.573 18.2028 70.573 13.6779C70.573 9.15298 69.0982 5.14128 66.8256 2.6515V0.000205306H61.4428C61.4259 6.84939e-05 61.4089 0 61.392 0C61.375 0 61.3581 6.84939e-05 61.3411 0.000205306H61.2045V0.00279399C56.2205 0.151497 52.2109 6.2171 52.2109 13.6779C52.2109 21.1386 56.2205 27.2042 61.2045 27.3529V27.3559H66.8256V24.7042Z" fill="#F0B616"/>
<path d="M75.1924 13.6779C75.1924 17.4118 74.1761 20.7809 72.5461 23.2093C70.915 25.6393 68.6888 27.1041 66.2631 27.1041C63.8373 27.1041 61.6111 25.6393 59.9801 23.2093C58.35 20.7809 57.3337 17.4118 57.3337 13.6779C57.3337 9.94393 58.35 6.5748 59.9801 4.14641C61.6111 1.71643 63.8373 0.251667 66.2631 0.251667C68.6888 0.251667 70.915 1.71643 72.5461 4.14641C74.1761 6.5748 75.1924 9.94393 75.1924 13.6779Z" fill="#F0B616" stroke="black" stroke-width="0.503333"/>
<rect x="61.4996" y="10.434" width="2.86929" height="12.6124" transform="rotate(-40.9933 61.4996 10.434)" fill="#F0B616" stroke="black" stroke-width="0.503333"/>
<path fill-rule="evenodd" clip-rule="evenodd" d="M110.672 44.0075C115.442 42.3058 118.915 37.088 118.915 30.9152C118.915 24.7423 115.442 19.5245 110.672 17.8228V17.2375H107.355C107.336 17.2374 107.317 17.2373 107.298 17.2373C107.28 17.2373 107.261 17.2374 107.242 17.2375H106.924V17.2443C100.682 17.4769 95.6816 23.5085 95.6816 30.9152C95.6816 38.3218 100.682 44.3534 106.924 44.5861V44.5932H110.672V44.0075Z" fill="#F0B616"/>
<path d="M122.412 30.9152C122.412 38.3704 117.286 44.3414 111.047 44.3414C104.807 44.3414 99.6814 38.3704 99.6814 30.9152C99.6814 23.46 104.807 17.489 111.047 17.489C117.286 17.489 122.412 23.46 122.412 30.9152Z" fill="#F0B616" stroke="black" stroke-width="0.503333"/>
<rect x="107.256" y="26.2215" width="2.86929" height="12.6124" transform="rotate(-23.7904 107.256 26.2215)" fill="#F0B616" stroke="black" stroke-width="0.503333"/>
<circle cx="80.3161" cy="65.9534" r="14.24" fill="#F0B616"/>
<circle cx="80.3177" cy="65.9535" r="11.7399" stroke="black" stroke-width="0.503333"/>
<rect x="75.7325" y="61.3968" width="2.86929" height="12.6124" transform="rotate(-30 75.7325 61.3968)" fill="#F0B616" stroke="black" stroke-width="0.503333"/>
<circle cx="153.015" cy="104.551" r="14.24" fill="#F0B616"/>
<circle cx="153.015" cy="104.551" r="11.7399" stroke="black" stroke-width="0.503333"/>
<rect x="148.432" y="99.994" width="2.86929" height="12.6124" transform="rotate(-30 148.432 99.994)" fill="#F0B616" stroke="black" stroke-width="0.503333"/>
<rect x="0.749714" y="144.15" width="171.501" height="6.24192" fill="white" stroke="black" stroke-width="0.503333"/>
<rect x="0.749714" y="144.15" width="69.5723" height="6.24192" fill="white" stroke="black" stroke-width="0.503333"/>
<path d="M27.8535 87.8755H32.4931L33.3378 97.4491H28.6982L27.8535 87.8755Z" fill="#C4C4C4"/>
<path d="M33.4766 84.8774H37.8068L38.9073 97.4489H34.577L33.4766 84.8774Z" fill="#C4C4C4"/>
<path d="M39.0742 81.0557H43.4045L44.7815 97.4489H40.4512L39.0742 81.0557Z" fill="#C4C4C4"/>
<path d="M24.2949 80.1934L25.6065 99.3049H47.5672" stroke="black" stroke-width="0.503333"/>
<path d="M44.4224 117.693C45.0057 121.908 42.4592 125.703 38.8067 126.227C35.1541 126.75 31.6771 123.819 31.0939 119.604C30.5106 115.388 33.0571 111.593 36.7096 111.07C40.3622 110.546 43.8392 113.478 44.4224 117.693Z" stroke="black" stroke-width="0.503333"/>
<mask id="path-28-inside-1_3781_84626" fill="white">
<path fill-rule="evenodd" clip-rule="evenodd" d="M38.8975 110.903L37.4979 119.036L44.3687 116.277C43.5236 113.5 41.3975 111.45 38.8975 110.903Z"/>
</mask>
<path d="M37.4979 119.036L37.0018 118.951L36.8489 119.839L37.6854 119.503L37.4979 119.036ZM38.8975 110.903L39.0052 110.411L38.4908 110.299L38.4015 110.818L38.8975 110.903ZM44.3687 116.277L44.5563 116.744L44.9846 116.572L44.8502 116.131L44.3687 116.277ZM37.9939 119.122L39.3936 110.988L38.4015 110.818L37.0018 118.951L37.9939 119.122ZM44.1811 115.81L37.3103 118.569L37.6854 119.503L44.5563 116.744L44.1811 115.81ZM38.7899 111.395C41.0909 111.898 43.0885 113.799 43.8872 116.424L44.8502 116.131C43.9587 113.201 41.7041 111.002 39.0052 110.411L38.7899 111.395Z" fill="black" mask="url(#path-28-inside-1_3781_84626)"/>
</svg>
