<svg width="56" height="56" viewBox="0 0 56 56" fill="none" xmlns="http://www.w3.org/2000/svg">
<circle cx="28" cy="28" r="28" fill="#F8FAFB"/>
<path d="M15.7801 10.69V16.285C15.7801 16.7869 15.6541 17.2809 15.4138 17.7215L13.3327 21.5368C12.852 22.4182 12.6001 23.406 12.6001 24.4099V30.3L13.3683 39.0058C13.3861 39.208 13.3834 39.4116 13.3601 39.6133L12.8573 43.9707C12.7203 45.1582 13.6487 46.2 14.8441 46.2H17.9001V9.09998H17.3701C16.492 9.09998 15.7801 9.81184 15.7801 10.69Z" fill="#8CACF6"/>
<path d="M20.0202 10.69V16.285C20.0202 16.7869 20.1461 17.2809 20.3865 17.7215L22.4676 21.5368C22.9483 22.4182 23.2002 23.406 23.2002 24.4099V30.3L22.432 39.0058C22.4142 39.208 22.4169 39.4116 22.4402 39.6133L22.943 43.9707C23.08 45.1582 22.1516 46.2 20.9562 46.2H17.9002V9.09998H18.4302C19.3083 9.09998 20.0202 9.81184 20.0202 10.69Z" fill="#8CACF6"/>
<rect x="15.2495" y="9.09998" width="5.3" height="1.59" rx="0.795" fill="#376EEE"/>
<rect x="14.1899" y="23.41" width="9.01" height="6.89" fill="#C3D4FA"/>
<path d="M29.604 21.9515C29.604 21.3993 30.0517 20.9515 30.604 20.9515H38.9096C39.4618 20.9515 39.9096 21.3993 39.9096 21.9515V23.5279H29.604V21.9515Z" fill="#C3D4FA"/>
<path d="M33.2109 27.6501H43.5165V45.2001C43.5165 45.7524 43.0688 46.2001 42.5165 46.2001H33.2109V27.6501Z" fill="#C3D4FA"/>
<path d="M25.9971 27.6502L29.604 23.528L33.211 27.6502V46.2002H26.9971C26.4448 46.2002 25.9971 45.7525 25.9971 45.2002V27.6502Z" fill="#8CACF6"/>
<path d="M33.2109 27.6502L29.604 23.528H39.9096L43.5165 27.6502H33.2109Z" fill="#DDE8FF"/>
<ellipse cx="38.3638" cy="36.925" rx="3.60694" ry="4.6375" fill="#E7EEFD"/>
</svg>