<svg width="56" height="56" viewBox="0 0 56 56" fill="none" xmlns="http://www.w3.org/2000/svg">
<circle cx="28" cy="28" r="28" fill="#F8FAFB"/>
<mask id="mask0" mask-type="alpha" maskUnits="userSpaceOnUse" x="6" y="10" width="44" height="36">
<rect x="6" y="10" width="44" height="35.75" fill="#C4C4C4"/>
</mask>
<g mask="url(#mask0)">
<rect x="20.7661" y="24.3983" width="9.35" height="2.675" rx="1.3375" transform="rotate(-21 20.7661 24.3983)" fill="#C3D4FA"/>
<rect x="20.7368" y="21" width="5.41608" height="2.675" rx="1.3375" transform="rotate(51.2608 20.7368 21)" fill="#C3D4FA"/>
<rect x="16.376" y="25.4696" width="8.97197" height="2.675" rx="1.3375" transform="rotate(24.0469 16.376 25.4696)" fill="#C3D4FA"/>
<rect x="12.6001" y="27.5559" width="5.40591" height="2.675" rx="1.3375" transform="rotate(-23.5025 12.6001 27.5559)" fill="#C3D4FA"/>
<path d="M26.3499 23.2L29.0999 21.55L29.6499 30.9L25.5249 31.725L22.7749 29.525L26.3499 23.2Z" fill="#C3D4FA"/>
<circle cx="29.1" cy="17.15" r="3.85" fill="#C3D4FA"/>
<path d="M25.8003 35.3H28.0003V36.95H25.8003V35.3Z" fill="#376EEE"/>
<path d="M17.5503 35.3H26.9003V37.5H17.5503V35.3Z" fill="#376EEE"/>
<path d="M14.25 41.345C14.25 39.0112 16.0703 37.0824 18.4003 36.9475L32.2653 36.1445C35.0247 35.9846 37.35 38.1792 37.35 40.9432C37.35 43.5979 35.1979 45.75 32.5432 45.75H18.655C16.2222 45.75 14.25 43.7778 14.25 41.345Z" fill="#C3D4FA"/>
<rect x="37.1719" y="12.2" width="7.60586" height="33.4376" rx="3.80293" transform="rotate(13 37.1719 12.2)" fill="#C3D4FA"/>
<path d="M30.4006 11.836C30.9714 10.6484 32.2892 10.0152 33.573 10.3116C35.0888 10.6616 36.0339 12.1741 35.684 13.6899L34.536 18.6625C34.4964 18.8338 34.4419 19.0013 34.373 19.163L29.3749 30.9L28.1284 22.5311C27.6862 19.5621 28.145 16.5288 29.4454 13.8233L30.4006 11.836Z" fill="#8CACF6"/>
<path fill-rule="evenodd" clip-rule="evenodd" d="M34.4569 10.9346C33.4822 10.7096 32.5096 11.3174 32.2846 12.2921L27.9886 30.9H15.6254C14.2585 30.9 13.1504 32.0081 13.1504 33.375C13.1504 34.7419 14.2585 35.85 15.6254 35.85H28.2754C28.6444 35.85 28.9945 35.7693 29.3091 35.6245C30.0793 35.5671 30.7559 35.0174 30.9388 34.2252L35.8143 13.107C36.0394 12.1323 35.4316 11.1597 34.4569 10.9346Z" fill="#8CACF6"/>
<path d="M12.6459 34.3371C11.72 31.5593 13.2871 28.5683 16.098 27.7485L16.7351 27.5627C17.2635 27.4086 17.8281 27.4341 18.3404 27.6354L25.2502 30.35L23.8045 33.9641C23.3489 35.1031 22.2458 35.85 21.0191 35.85H14.7449C13.7926 35.85 12.9471 35.2406 12.6459 34.3371Z" fill="#8CACF6"/>
<path d="M27.6932 28.1635L28.2753 22.925L29.6503 31.45H24.4253L25.2503 30.35C26.5028 30.35 27.5549 29.4083 27.6932 28.1635Z" fill="#8CACF6"/>
</g>
</svg>
