<svg width="80" height="80" viewBox="0 0 80 80" fill="none" xmlns="http://www.w3.org/2000/svg">
<rect width="80" height="80" fill="white"/>
<path d="M56.7427 11V22.6636C56.7427 23.1655 56.6168 23.6595 56.3764 24.1001L51.3039 33.3997C50.8232 34.281 50.5713 35.2689 50.5713 36.2728V49.1429L52.0873 66.3244C52.1052 66.5267 52.1024 66.7302 52.0791 66.9319L50.8285 77.7708C50.6915 78.9583 51.6199 80 52.8153 80H60.857V8H59.8284H59.7427C58.0859 8 56.7427 9.34315 56.7427 11Z" fill="#2A7265"/>
<path d="M64.9711 11V22.6636C64.9711 23.1655 65.0971 23.6595 65.3375 24.1001L70.41 33.3997C70.8907 34.281 71.1426 35.2689 71.1426 36.2728V49.1429L69.6266 66.3244C69.6087 66.5267 69.6114 66.7302 69.6347 66.9319L70.8854 77.7708C71.0224 78.9583 70.0939 80 68.8985 80H60.8569V8H61.8854H61.9712C63.628 8 64.9711 9.34315 64.9711 11Z" fill="#2A7265"/>
<rect x="55.7139" y="8" width="10.2857" height="3.08571" rx="1" fill="#006BA0"/>
<rect x="53.6572" y="35.7715" width="17.4857" height="13.3714" fill="#C3D4FA"/>
<path d="M18.1426 40H45.5712L44.9997 48L44.4283 58.2857L45.5712 68.5714V80H18.1426V40Z" fill="#2A7265"/>
<path d="M9 40H45.5714L45 45.1429L42.3208 56.9314C42.2029 57.45 42.1686 57.9841 42.219 58.5135L43.1767 68.5694C43.249 69.3288 43.4295 70.0739 43.7128 70.7821L45.2138 74.5345C45.4501 75.1251 45.5714 75.7554 45.5714 76.3915V80H9V75.4286L11.1769 60.4622C11.249 59.9664 11.2462 59.4626 11.1686 58.9676L9 45.1429V40Z" fill="#E7EEFD"/>
<rect x="14.7139" y="54.8574" width="25.1429" height="17.1429" fill="#C3D4FA"/>
<circle cx="27.2859" cy="54.8571" r="6.85714" fill="white"/>
<rect width="80" height="80" fill="white"/>
<path d="M17 41.5H69V52.5C69 53.6046 68.1046 54.5 67 54.5H19C17.8954 54.5 17 53.6046 17 52.5V41.5Z" fill="#C3D4FA"/>
<path d="M69 41.5C69 38.9392 68.4956 36.4035 67.5157 34.0377C66.5357 31.6718 65.0993 29.5222 63.2886 27.7114C61.4778 25.9007 59.3282 24.4643 56.9623 23.4843C54.5965 22.5044 52.0608 22 49.5 22V41.5H69Z" fill="#C3D4FA"/>
<path d="M48 22C48 21.4477 48.4477 21 49 21C49.5523 21 50 21.4477 50 22V42H48V22Z" fill="#2A7265"/>
<path d="M16 42C16 41.4477 16.4477 41 17 41H69V43H17C16.4477 43 16 42.5523 16 42Z" fill="#2A7265"/>
<rect x="19.0195" y="27.6055" width="61.8008" height="2" transform="rotate(45 19.0195 27.6055)" fill="#2A7265"/>
<rect width="27.4533" height="2" transform="matrix(-0.707107 0.707107 0.707107 0.707107 43.0176 51.8926)" fill="#2A7265"/>
<circle cx="61" cy="73" r="6" fill="#C3D4FA" stroke="#2A7265" stroke-width="2"/>
<rect x="10" y="27" width="10" height="4" rx="2" fill="#006BA0"/>
<circle cx="26" cy="73" r="6" fill="#C3D4FA" stroke="#2A7265" stroke-width="2"/>
<circle cx="43" cy="54" r="3" fill="#2A7265"/>
<rect width="80" height="80" fill="white"/>
<path d="M14.8301 36.9316H72.9996V49.474C72.9996 50.5786 72.1041 51.474 70.9996 51.474H16.8301C15.7255 51.474 14.8301 50.5786 14.8301 49.474V36.9316Z" fill="url(#paint0_linear)"/>
<path d="M72.9992 36.9317C72.9992 34.0671 72.435 31.2306 71.3387 28.584C70.2425 25.9375 68.6357 23.5328 66.6101 21.5072C64.5846 19.4816 62.1799 17.8749 59.5333 16.7786C56.8868 15.6824 54.0502 15.1182 51.1856 15.1182V36.9317H72.9992Z" fill="url(#paint1_linear)"/>
<path d="M49.5088 15C49.5088 14.4477 49.9565 14 50.5088 14H50.7461C51.2984 14 51.7461 14.4477 51.7461 15V37.4915H49.5088V15Z" fill="#FFD560"/>
<path d="M13.7119 37.4917C13.7119 36.8739 14.2127 36.373 14.8306 36.373H73V38.6103H14.8306C14.2128 38.6103 13.7119 38.1095 13.7119 37.4917Z" fill="#FFD560"/>
<rect x="17.0898" y="21.3887" width="69.1331" height="2.23729" transform="rotate(45 17.0898 21.3887)" fill="#D5DFE6"/>
<rect width="30.7105" height="2.23729" transform="matrix(-0.707107 0.707107 0.707107 0.707107 43.9346 48.5576)" fill="#D5DFE6"/>
<circle cx="64.0512" cy="72.1694" r="6.83051" fill="#D5DFE6" stroke="#C4CDD5" stroke-width="2"/>
<rect x="7" y="20.7119" width="11.1864" height="4.47458" rx="2" fill="#C4CDD5"/>
<circle cx="24.8989" cy="72.1694" r="6.83051" fill="#D5DFE6" stroke="#C4CDD5" stroke-width="2"/>
<circle cx="43.9155" cy="50.9155" r="3.35593" fill="#D5DFE6"/>
<defs>
<linearGradient id="paint0_linear" x1="73.0007" y1="43.8923" x2="43.6673" y2="43.8923" gradientUnits="userSpaceOnUse">
<stop stop-color="#FFE380"/>
<stop offset="1" stop-color="#FFF0BB"/>
</linearGradient>
<linearGradient id="paint1_linear" x1="73" y1="36" x2="51" y2="36" gradientUnits="userSpaceOnUse">
<stop stop-color="#FFE380"/>
<stop offset="1" stop-color="#FFF0BB"/>
</linearGradient>
</defs>
</svg>
