<svg width="80" height="80" viewBox="0 0 80 80" fill="none" xmlns="http://www.w3.org/2000/svg">
<rect width="80" height="80" fill="white"/>
<path d="M14.8301 36.9321H72.9996V49.4745C72.9996 50.5791 72.1041 51.4745 70.9996 51.4745H16.8301C15.7255 51.4745 14.8301 50.5791 14.8301 49.4745V36.9321Z" fill="#C3D4FA"/>
<path d="M72.9992 36.9322C72.9992 34.0676 72.435 31.2311 71.3387 28.5845C70.2425 25.938 68.6357 23.5333 66.6101 21.5077C64.5846 19.4821 62.1799 17.8753 59.5333 16.7791C56.8868 15.6829 54.0502 15.1187 51.1856 15.1187V36.9322H72.9992Z" fill="#C3D4FA"/>
<path d="M49.5088 15C49.5088 14.4477 49.9565 14 50.5088 14H50.7461C51.2984 14 51.7461 14.4477 51.7461 15V37.4915H49.5088V15Z" fill="#8CACF6"/>
<path d="M13.7119 37.4917C13.7119 36.8739 14.2127 36.373 14.8306 36.373H73V38.6103H14.8306C14.2128 38.6103 13.7119 38.1095 13.7119 37.4917Z" fill="#8CACF6"/>
<rect x="17.0898" y="21.3892" width="69.1331" height="2.23729" transform="rotate(45 17.0898 21.3892)" fill="#8CACF6"/>
<rect width="30.7105" height="2.23729" transform="matrix(-0.707107 0.707107 0.707107 0.707107 43.9346 48.5579)" fill="#8CACF6"/>
<circle cx="64.0512" cy="72.1696" r="6.83051" fill="#C3D4FA" stroke="#8CACF6" stroke-width="2"/>
<rect x="7" y="20.7119" width="11.1864" height="4.47458" rx="2" fill="#376EEE"/>
<circle cx="24.8989" cy="72.1696" r="6.83051" fill="#C3D4FA" stroke="#8CACF6" stroke-width="2"/>
<circle cx="43.9155" cy="50.9153" r="3.35593" fill="#8CACF6"/>
</svg>
