<svg width="56" height="56" viewBox="0 0 56 56" fill="none" xmlns="http://www.w3.org/2000/svg">
<circle cx="28" cy="28" r="28" fill="#F8FAFB"/>
<path d="M14.2715 22.5085H46.0002V28.4407C46.0002 29.5453 45.1047 30.4407 44.0002 30.4407H16.2715C15.1669 30.4407 14.2715 29.5453 14.2715 28.4407V22.5085Z" fill="#C3D4FA"/>
<path d="M46.0001 22.5084C46.0001 20.9459 45.6924 19.3987 45.0944 17.9551C44.4965 16.5115 43.62 15.1999 42.5152 14.095C41.4103 12.9902 40.0987 12.1138 38.6551 11.5158C37.2116 10.9179 35.6644 10.6101 34.1019 10.6101L34.1019 22.5084H46.0001Z" fill="#C3D4FA"/>
<path d="M33.186 10.6102C33.186 10.2732 33.4592 10 33.7962 10C34.1332 10 34.4064 10.2732 34.4064 10.6102V22.8135H33.186V10.6102Z" fill="#8CACF6"/>
<path d="M13.6611 22.8137C13.6611 22.4767 13.9343 22.2035 14.2713 22.2035H46V23.4238H14.2713C13.9343 23.4238 13.6611 23.1506 13.6611 22.8137Z" fill="#8CACF6"/>
<rect x="15.5034" y="14.0305" width="37.7088" height="1.22033" transform="rotate(45 15.5034 14.0305)" fill="#8CACF6"/>
<rect width="16.7511" height="1.22033" transform="matrix(-0.707107 0.707107 0.707107 0.707107 30.146 28.8499)" fill="#8CACF6"/>
<circle cx="41.1183" cy="41.7288" r="3.27117" fill="#C3D4FA" stroke="#8CACF6" stroke-width="2"/>
<rect x="10" y="13.6611" width="6.10167" height="2.44067" rx="1.22033" fill="#376EEE"/>
<circle cx="19.7629" cy="41.7288" r="3.27117" fill="#C3D4FA" stroke="#8CACF6" stroke-width="2"/>
<circle cx="30.1357" cy="30.1357" r="1.8305" fill="#8CACF6"/>
</svg>
