<svg width="80" height="80" viewBox="0 0 80 80" fill="none" xmlns="http://www.w3.org/2000/svg">
<rect width="80" height="80" fill="white"/>
<path d="M22 18H74V80H22V18Z" fill="#C3D4FA"/>
<path d="M28.2304 13.2074C28.4052 13.0729 28.6196 13 28.8401 13H68.1924C68.4437 13 68.6859 13.0947 68.8706 13.2652L74 18H22L28.2304 13.2074Z" fill="#8CACF6"/>
<rect x="22" y="26" width="52" height="12" fill="#8CACF6"/>
<rect x="22" y="24" width="52" height="2" fill="#376EEE"/>
<rect x="22" y="36" width="52" height="2" fill="#376EEE"/>
<path fill-rule="evenodd" clip-rule="evenodd" d="M60.7279 67.7279C64.1036 64.3523 66 59.7739 66 55H48L30 55C30 59.7739 31.8964 64.3523 35.2721 67.7279C36.8229 69.2787 38.6275 70.5173 40.5882 71.4032V72.9999H47.9476C47.965 73 47.9825 73 48 73C48.0175 73 48.035 73 48.0524 72.9999H55.4118V71.4032C57.3725 70.5173 59.1772 69.2787 60.7279 67.7279Z" fill="white"/>
<path d="M66 55C66 54.2044 64.1036 53.4413 60.7279 52.8787C57.3523 52.3161 52.7739 52 48 52C43.2261 52 38.6477 52.3161 35.2721 52.8787C31.8964 53.4413 30 54.2044 30 55L48 55H66Z" fill="#E7EEFD"/>
<path d="M15.8281 41H42.571L42.0138 48.8L41.4567 58.8286L42.571 68.8571V80H15.8281V41Z" fill="#8CACF6"/>
<path d="M6.91406 41H42.5712L42.0141 46.0143L39.4063 57.4885C39.2884 58.0071 39.254 58.5412 39.3045 59.0707L40.2336 68.8266C40.3059 69.5859 40.4865 70.331 40.7697 71.0392L42.2136 74.6488C42.4498 75.2394 42.5712 75.8697 42.5712 76.5058V80H6.91406V75.5429L9.03385 60.9693C9.10596 60.4735 9.10315 59.9697 9.02551 59.4748L6.91406 46.0143V41Z" fill="#E7EEFD"/>
<rect x="12.4854" y="55.4854" width="24.5143" height="16.7143" fill="#C3D4FA"/>
<circle cx="24.7428" cy="55.4855" r="6.68571" fill="white"/>
</svg>
