<svg width="56" height="56" viewBox="0 0 56 56" fill="none" xmlns="http://www.w3.org/2000/svg">
<circle cx="28" cy="28" r="28" fill="#F8FAFB"/>
<path d="M18.7651 13.7076H44.8428V44.8002H18.7651V13.7076Z" fill="#C3D4FA"/>
<path d="M21.7552 11.4074C21.9301 11.273 22.1444 11.2001 22.365 11.2001H41.7353C41.9867 11.2001 42.2289 11.2948 42.4136 11.4653L44.8427 13.7075H18.7651L21.7552 11.4074Z" fill="#8CACF6"/>
<rect x="18.7651" y="17.7196" width="26.0776" height="6.01791" fill="#8CACF6"/>
<rect x="18.7651" y="16.7164" width="26.0776" height="1.00299" fill="#376EEE"/>
<rect x="18.7651" y="22.7345" width="26.0776" height="1.00299" fill="#376EEE"/>
<path fill-rule="evenodd" clip-rule="evenodd" d="M38.1872 38.6457C39.88 36.9528 40.8311 34.6568 40.8311 32.2627H31.8042H22.7773C22.7773 34.6568 23.7284 36.9528 25.4213 38.6457C26.1989 39.4233 27.1038 40.0444 28.087 40.4887V41.2895H31.7892C31.7942 41.2896 31.7992 41.2896 31.8042 41.2896C31.8092 41.2896 31.8142 41.2896 31.8192 41.2895H35.5209V40.4889C36.5043 40.0446 37.4094 39.4234 38.1872 38.6457Z" fill="#E7EEFD"/>
<path d="M40.8311 32.2627C40.8311 31.8637 39.88 31.481 38.1872 31.1989C36.4943 30.9167 34.1983 30.7582 31.8042 30.7582C29.4101 30.7582 27.1141 30.9167 25.4213 31.1989C23.7284 31.481 22.7773 31.8637 22.7773 32.2627L31.8042 32.2627H40.8311Z" fill="#8CACF6"/>
<path d="M15.6704 25.2418H29.0818L28.8024 29.1535L28.5229 34.1827L29.0818 39.212V44.8H15.6704V25.2418Z" fill="#8CACF6"/>
<path d="M11.1997 25.2418H29.0815L28.8021 27.7564L27.583 33.1204C27.4651 33.639 27.4308 34.1731 27.4812 34.7026L27.8549 38.6259C27.9272 39.3853 28.1077 40.1303 28.391 40.8386L28.7239 41.6708C28.9601 42.2614 29.0815 42.8916 29.0815 43.5277V44.8H11.1997V42.5648L12.2085 35.6291C12.2806 35.1333 12.2778 34.6295 12.2002 34.1346L11.1997 27.7564V25.2418Z" fill="#E7EEFD"/>
<rect x="13.9932" y="32.5063" width="12.2937" height="8.38209" fill="#C3D4FA"/>
<circle cx="20.1404" cy="32.5064" r="3.35284" fill="white"/>
</svg>
