<svg width="80" height="80" viewBox="0 0 80 80" fill="none" xmlns="http://www.w3.org/2000/svg">
<rect width="80" height="80" fill="white"/>
<path d="M56.7427 11V22.6636C56.7427 23.1655 56.6168 23.6595 56.3764 24.1001L51.3039 33.3997C50.8232 34.281 50.5713 35.2689 50.5713 36.2728V49.1429L52.0873 66.3244C52.1052 66.5267 52.1024 66.7302 52.0791 66.9319L50.8285 77.7708C50.6915 78.9583 51.6199 80 52.8153 80H60.857V8H59.8284H59.7427C58.0859 8 56.7427 9.34315 56.7427 11Z" fill="#8CACF6"/>
<path d="M64.9711 11V22.6636C64.9711 23.1655 65.0971 23.6595 65.3375 24.1001L70.41 33.3997C70.8907 34.281 71.1426 35.2689 71.1426 36.2728V49.1429L69.6266 66.3244C69.6087 66.5267 69.6114 66.7302 69.6347 66.9319L70.8854 77.7708C71.0224 78.9583 70.0939 80 68.8985 80H60.8569V8H61.8854H61.9712C63.628 8 64.9711 9.34315 64.9711 11Z" fill="#8CACF6"/>
<rect x="55.7139" y="8" width="10.2857" height="3.08571" rx="1" fill="#376EEE"/>
<rect x="53.6572" y="35.7715" width="17.4857" height="13.3714" fill="#C3D4FA"/>
<path d="M18.1426 40H45.5712L44.9997 48L44.4283 58.2857L45.5712 68.5714V80H18.1426V40Z" fill="#8CACF6"/>
<path d="M9 40H45.5714L45 45.1429L42.3208 56.9314C42.2029 57.45 42.1686 57.9841 42.219 58.5135L43.1767 68.5694C43.249 69.3288 43.4295 70.0739 43.7128 70.7821L45.2138 74.5345C45.4501 75.1251 45.5714 75.7554 45.5714 76.3915V80H9V75.4286L11.1769 60.4622C11.249 59.9664 11.2462 59.4626 11.1686 58.9676L9 45.1429V40Z" fill="#E7EEFD"/>
<rect x="14.7139" y="54.8574" width="25.1429" height="17.1429" fill="#C3D4FA"/>
<circle cx="27.2859" cy="54.8571" r="6.85714" fill="white"/>
<g clip-path="url(#clip0)">
<rect width="80" height="80" fill="white"/>
<rect x="18.2314" y="81.8271" width="13.103" height="32.7575" rx="6.5515" transform="rotate(-149 18.2314 81.8271)" fill="#E56175"/>
<path d="M20.4969 52.6159L15.4355 61.0395L26.667 67.7881L31.7284 59.3645C33.592 56.263 32.5884 52.238 29.4869 50.3745C26.3855 48.5109 22.3605 49.5145 20.4969 52.6159Z" fill="#FADDE2"/>
<path fill-rule="evenodd" clip-rule="evenodd" d="M37.8001 25H64.2001V30H65C67.2091 30 69 31.7909 69 34V76C69 78.2091 67.2091 80 65 80H37C34.7909 80 33 78.2091 33 76V34C33 32.4087 33.6754 30.8921 34.8582 29.8276L37.8001 27.1799V25Z" fill="#F0B616"/>
<path d="M67.1418 29.8276L63.9999 27V34H68.9999C69 32.4087 68.3246 30.8921 67.1418 29.8276Z" fill="#F0B616"/>
<rect width="36" height="12" transform="matrix(-1 0 0 1 69 13)" fill="#EEF2F5"/>
<rect width="9" height="12" transform="matrix(-1 0 0 1 66 13)" fill="white"/>
<rect width="8" height="12" transform="matrix(-1 0 0 1 57 13)" fill="#EEF2F5"/>
<rect width="8" height="12" transform="matrix(-1 0 0 1 49 13)" fill="#D5DFE6"/>
<rect width="8" height="12" transform="matrix(-1 0 0 1 41 13)" fill="#C4CDD5"/>
<rect x="40" y="39" width="29" height="32" fill="#F8FAFB"/>
<path d="M47 48C47 46.8954 47.8954 46 49 46H69V50H49C47.8954 50 47 49.1046 47 48Z" fill="#C4CDD5"/>
</g>
<defs>
<clipPath id="clip0">
<rect width="80" height="80" fill="white"/>
</clipPath>
</defs>
</svg>
