<svg width="56" height="56" viewBox="0 0 56 56" fill="none" xmlns="http://www.w3.org/2000/svg">
<circle cx="28" cy="28" r="28" fill="#F8FAFB"/>
<mask id="mask0" mask-type="alpha" maskUnits="userSpaceOnUse" x="8" y="11" width="40" height="34">
<rect x="8" y="11" width="40" height="33.5" fill="#C4C4C4"/>
</mask>
<g mask="url(#mask0)">
<rect x="17.1152" y="45.4136" width="6.55151" height="16.3788" rx="3.27575" transform="rotate(-149 17.1152 45.4136)" fill="#8CACF6"/>
<path d="M18.2485 30.8076L15.7178 35.0194L21.3335 38.3937L23.8642 34.1819C24.796 32.6311 24.2942 30.6187 22.7435 29.6869C21.1927 28.7551 19.1802 29.2569 18.2485 30.8076Z" fill="#E7EEFD"/>
<path fill-rule="evenodd" clip-rule="evenodd" d="M26.9 17.0001H40.1V19.5001H39.5157C41.1653 19.5086 42.5 20.8485 42.5 22.5001V40.5001C42.5 42.7092 40.7091 44.5001 38.5 44.5001H28.5C26.2909 44.5001 24.5 42.7092 24.5 40.5001V22.5001C24.5 22.1494 24.5602 21.8127 24.6708 21.4999H24.5C24.5 20.7042 24.8377 19.9459 25.4291 19.4137L26.9 18.0899V17.0001ZM27 19.5001V19.5416C27.1576 19.5151 27.3194 19.501 27.4843 19.5001H27Z" fill="#8CACF6"/>
<path d="M41.5709 19.4137L40 17.9999V21.4999H42.5C42.5 20.7042 42.1623 19.9459 41.5709 19.4137Z" fill="#8CACF6"/>
<rect width="18" height="6" transform="matrix(-1 0 0 1 42.5 11)" fill="#E7EEFD"/>
<rect width="4.5" height="6" transform="matrix(-1 0 0 1 41 11)" fill="white"/>
<rect width="4" height="6" transform="matrix(-1 0 0 1 36.4995 11)" fill="#E7EEFD"/>
<rect width="4" height="6" transform="matrix(-1 0 0 1 32.4995 11)" fill="#C3D4FA"/>
<rect width="4" height="6" transform="matrix(-1 0 0 1 28.5 11)" fill="#ABC4FE"/>
<rect x="28" y="24" width="14.5" height="16" fill="#C3D4FA"/>
<path d="M31.5 28.5C31.5 27.9477 31.9477 27.5 32.5 27.5H42.5V29.5H32.5C31.9477 29.5 31.5 29.0523 31.5 28.5Z" fill="#376EEE"/>
</g>
</svg>
