<svg width="80" height="80" viewBox="0 0 80 80" fill="none" xmlns="http://www.w3.org/2000/svg">
<rect width="80" height="80" fill="white"/>
<path fill-rule="evenodd" clip-rule="evenodd" d="M55.679 13.1966C56.6524 15.8559 58 20.4615 58 24.2585C58 29.6862 58 34.0565 53.8802 37.8844C53.6689 38.0807 53.5423 38.351 53.5418 38.6394C53.5309 44.7768 53.2975 57.4886 52.4278 62.7067C51.3134 69.3934 50.7561 73.8511 51.3134 75.5228C51.8706 77.1945 51.8706 79.9805 48.5273 79.9805C47.3531 79.9805 46.4223 79.7658 45.7161 79.4776C44.9456 79.1633 43.324 79.2881 42.549 79.591C41.9623 79.8203 41.1831 79.9805 40.169 79.9805C39.738 79.9805 39.3494 79.9516 39 79.9007V79.9997H5.06936C3.92649 79.9997 3 79.0732 3 77.9304C3 76.8431 3.84137 75.9413 4.926 75.866L20.9704 74.7518C19.2512 71.9271 18.6652 68.1028 18.9946 63.8212C19.4729 57.6033 21.5934 54.6699 24.6513 50.4397C25.1559 49.7416 25.686 49.0083 26.2385 48.219C27.9032 45.8409 29.1619 44.3762 30.2312 43.1319C31.5417 41.607 32.5677 40.413 33.708 38.2744C33.9105 37.8945 33.8326 37.4293 33.5528 37.1022C31.9881 35.2723 29.5818 31.301 29.5818 26.4874C29.5818 20.2717 30.5448 15.982 32.0232 13.1707C32.2199 12.7967 32.6457 12.6141 33.0305 12.7888C34.2463 13.3408 36.4797 14.8827 39.2413 18.2303C39.4718 18.5097 39.8317 18.6483 40.1917 18.6071C41.5593 18.4508 44.2166 18.3168 47.4346 18.6305C47.7687 18.6631 48.0975 18.5316 48.3202 18.2803C49.3564 17.1108 51.485 14.9394 54.1961 12.7856C54.7067 12.38 55.4548 12.5842 55.679 13.1966Z" fill="url(#paint0_linear)"/>
<path d="M43.1844 32.988C43.8307 32.8915 44.4576 32.9233 44.9532 32.9965C45.3209 33.0508 45.432 33.4831 45.1691 33.7459L44.4231 34.4919C44.2278 34.6872 43.9113 34.6872 43.716 34.492L42.97 33.7459C42.7071 33.4831 42.8167 33.0429 43.1844 32.988Z" fill="#D5DFE6"/>
<path d="M48.3533 26.6312L47.1207 28.216C46.336 29.2249 46.4387 30.6632 47.3587 31.5504L47.9495 32.1201C49.1765 33.3033 51.1417 33.2277 52.2741 31.9536L52.8846 31.2669C53.895 30.1302 53.895 28.4173 52.8846 27.2807L52.1952 26.5051C51.1568 25.3369 49.3129 25.3974 48.3533 26.6312Z" fill="#F8FAFB"/>
<ellipse rx="1.67166" ry="2.22888" transform="matrix(-1 0 0 1 49.6418 29.8304)" fill="#5A7385"/>
<path d="M39.7854 26.6312L41.018 28.216C41.8027 29.2249 41.7 30.6632 40.7799 31.5504L40.1892 32.1201C38.9621 33.3033 36.997 33.2277 35.8645 31.9536L35.2541 31.2669C34.2437 30.1302 34.2437 28.4173 35.2541 27.2807L35.9435 26.5051C36.9819 25.3369 38.8257 25.3974 39.7854 26.6312Z" fill="#F8FAFB"/>
<ellipse cx="38.4969" cy="29.8304" rx="1.67166" ry="2.22888" fill="#5A7385"/>
<path opacity="0.2" d="M29 80L43 71V80H29Z" fill="#5A7385"/>
<ellipse cx="49" cy="70.6663" rx="3" ry="2.33333" fill="url(#paint1_linear)"/>
<ellipse cx="52" cy="69.889" rx="3" ry="2.33333" fill="url(#paint2_linear)"/>
<ellipse cx="55" cy="69.889" rx="3" ry="2.33333" fill="url(#paint3_linear)"/>
<ellipse cx="59" cy="69.889" rx="3" ry="2.33333" fill="url(#paint4_linear)"/>
<ellipse cx="55.5" cy="68.7228" rx="2.5" ry="1.94444" fill="url(#paint5_linear)"/>
<ellipse cx="58.5" cy="67.9444" rx="2.5" ry="1.94444" fill="url(#paint6_linear)"/>
<ellipse cx="62.5" cy="69.5005" rx="3.5" ry="2.72222" fill="url(#paint7_linear)"/>
<ellipse cx="67" cy="70.6663" rx="3" ry="2.33333" fill="url(#paint8_linear)"/>
<path d="M74.8552 72.8506C74.3476 71.1587 72.7903 70 71.0239 70H44.9761C43.2097 70 41.6524 71.1587 41.1448 72.8506L39 80H77L74.8552 72.8506Z" fill="url(#paint9_linear)"/>
<defs>
<linearGradient id="paint0_linear" x1="17" y1="86" x2="91.5" y2="0.999992" gradientUnits="userSpaceOnUse">
<stop stop-color="#DE7712"/>
<stop offset="1" stop-color="#FFC72C"/>
</linearGradient>
<linearGradient id="paint1_linear" x1="49" y1="68.333" x2="49" y2="72.9997" gradientUnits="userSpaceOnUse">
<stop stop-color="#DE7712"/>
<stop offset="1" stop-color="#AF5E0E"/>
</linearGradient>
<linearGradient id="paint2_linear" x1="52" y1="67.5557" x2="52" y2="72.2223" gradientUnits="userSpaceOnUse">
<stop stop-color="#DE7712"/>
<stop offset="1" stop-color="#AF5E0E"/>
</linearGradient>
<linearGradient id="paint3_linear" x1="55" y1="67.5557" x2="55" y2="72.2223" gradientUnits="userSpaceOnUse">
<stop stop-color="#DE7712"/>
<stop offset="1" stop-color="#AF5E0E"/>
</linearGradient>
<linearGradient id="paint4_linear" x1="59" y1="67.5557" x2="59" y2="72.2223" gradientUnits="userSpaceOnUse">
<stop stop-color="#DE7712"/>
<stop offset="1" stop-color="#AF5E0E"/>
</linearGradient>
<linearGradient id="paint5_linear" x1="55.5" y1="66.7783" x2="55.5" y2="70.6672" gradientUnits="userSpaceOnUse">
<stop stop-color="#DE7712"/>
<stop offset="1" stop-color="#AF5E0E"/>
</linearGradient>
<linearGradient id="paint6_linear" x1="58.5" y1="66" x2="58.5" y2="69.8889" gradientUnits="userSpaceOnUse">
<stop stop-color="#DE7712"/>
<stop offset="1" stop-color="#AF5E0E"/>
</linearGradient>
<linearGradient id="paint7_linear" x1="62.5" y1="66.7783" x2="62.5" y2="72.2228" gradientUnits="userSpaceOnUse">
<stop stop-color="#DE7712"/>
<stop offset="1" stop-color="#AF5E0E"/>
</linearGradient>
<linearGradient id="paint8_linear" x1="67" y1="68.333" x2="67" y2="72.9997" gradientUnits="userSpaceOnUse">
<stop stop-color="#DE7712"/>
<stop offset="1" stop-color="#AF5E0E"/>
</linearGradient>
<linearGradient id="paint9_linear" x1="38.3346" y1="80" x2="77.0013" y2="80" gradientUnits="userSpaceOnUse">
<stop stop-color="#C4CDD5"/>
<stop offset="1" stop-color="#F8FAFB"/>
</linearGradient>
</defs>
</svg>