<svg width="56" height="56" viewBox="0 0 56 56" fill="none" xmlns="http://www.w3.org/2000/svg">
<circle cx="28" cy="28" r="28" fill="#F8FAFB"/>
<path fill-rule="evenodd" clip-rule="evenodd" d="M20.072 35.6576L21.8123 49H32.7183L34.3426 35.6576H20.072Z" fill="#C3D4FA"/>
<path fill-rule="evenodd" clip-rule="evenodd" d="M17.634 32.9884L18.7942 36.4691H35.4627L36.5454 32.9884H17.634Z" fill="#E7EEFD"/>
<path fill-rule="evenodd" clip-rule="evenodd" d="M16.0999 28.6964C16.0999 28.6964 17.9562 27.188 18.6523 27.7682C19.3485 28.3484 21.5528 32.9892 21.5528 32.9892H24.2213C24.2213 32.9892 19.4645 22.0833 16.0999 28.6964Z" fill="#8CACF6"/>
<path fill-rule="evenodd" clip-rule="evenodd" d="M28.9788 32.9892C28.9788 32.9892 33.8515 26.7241 38.7245 25.7959C38.7245 25.7959 36.7522 30.2047 31.9952 32.9892H28.9788Z" fill="#8CACF6"/>
<path fill-rule="evenodd" clip-rule="evenodd" d="M20.3183 14.3099C20.3183 14.3099 19.0393 26.1439 23.7618 32.9893H25.7293C25.7293 32.9893 23.3683 21.2712 20.3183 14.3099Z" fill="#8CACF6"/>
<path fill-rule="evenodd" clip-rule="evenodd" d="M24.0531 7C24.0531 7 23.2409 25.4474 25.5615 32.9887H27.8237C27.8237 32.9887 30.2022 19.2983 24.0531 7Z" fill="#8CACF6"/>
<path fill-rule="evenodd" clip-rule="evenodd" d="M27.4121 32.9891C30.1671 24.7641 29.9066 12.4534 39.6524 7.81262C33.6159 13.9006 37.9121 22.4312 28.9784 32.9891H27.4121Z" fill="#8CACF6"/>
</svg>
