<svg width="269" height="136" viewBox="0 0 269 136" fill="none" xmlns="http://www.w3.org/2000/svg">
<g clip-path="url(#clip0)">
<rect width="269" height="136" fill="white"/>
<path fill-rule="evenodd" clip-rule="evenodd" d="M126.25 93C124.977 92.7669 123.664 92.6451 122.323 92.6451C120.982 92.6451 119.669 92.7669 118.396 93H25.6047C24.331 92.7669 23.0184 92.6452 21.6774 92.6452C9.7053 92.6452 0 102.35 0 114.323C0 126.068 9.34134 135.632 21 135.99V136H21.659C21.6651 136 21.6713 136 21.6774 136C21.6835 136 21.6896 136 21.6958 136H122.323H233V93H126.25Z" fill="url(#paint0_linear)"/>
<circle cx="21.6773" cy="114.323" r="18.5807" fill="#376EEE"/>
<g clip-path="url(#clip1)">
<path d="M21.6775 104.258C19.1041 104.258 17.0323 106.33 17.0323 108.903V112C15.3291 112 13.9355 113.394 13.9355 115.097V121.29C13.9355 122.994 15.3291 124.387 17.0323 124.387H26.3227C28.0259 124.387 29.4194 122.994 29.4194 121.29V115.097C29.4194 113.394 28.0259 112 26.3227 112H18.5807V108.903C18.5807 107.141 19.9154 105.806 21.6775 105.806C23.4396 105.806 24.7743 107.141 24.7743 108.903V109.677H26.3227V108.903C26.3227 106.33 24.2509 104.258 21.6775 104.258ZM21.6775 115.871C22.5291 115.871 23.2259 116.568 23.2259 117.419C23.2259 117.961 22.9162 118.493 22.4517 118.726V120.516C22.4517 120.981 22.142 121.29 21.6775 121.29C21.213 121.29 20.9033 120.981 20.9033 120.516V118.725C20.4388 118.493 20.1291 117.961 20.1291 117.419C20.1291 116.568 20.8259 115.871 21.6775 115.871Z" fill="white"/>
<path d="M24 108.129L27.0968 106.968V109.677H24V108.129Z" fill="#376EEE"/>
</g>
<rect x="105.875" y="72.6964" width="27.67" height="7.91629" rx="3.95815" transform="rotate(-21 105.875 72.6964)" fill="#006BA0"/>
<rect x="105.785" y="62.6399" width="16.0281" height="7.91629" rx="3.95815" transform="rotate(51.2608 105.785 62.6399)" fill="#006BA0"/>
<rect x="92.8828" y="75.8668" width="26.5513" height="7.91629" rx="3.95815" transform="rotate(24.0469 92.8828 75.8668)" fill="#006BA0"/>
<rect x="81.709" y="82.0408" width="15.998" height="7.91629" rx="3.95815" transform="rotate(-23.5025 81.709 82.0408)" fill="#006BA0"/>
<path d="M122.4 69.1503L130.538 64.2673L132.166 91.9373L119.959 94.3788L111.82 87.8682L122.4 69.1503Z" fill="#006BA0"/>
<circle cx="130.539" cy="51.2463" r="11.3935" fill="#006BA0"/>
<path d="M120.771 104.959H127.281V109.842H120.771V104.959Z" fill="#376EEE"/>
<path d="M96.6494 105.059H128.098V112.048H96.6494V105.059Z" fill="#006BA0"/>
<path fill-rule="evenodd" clip-rule="evenodd" d="M161.249 38.1723C157.482 37.3026 153.723 39.6513 152.854 43.4182L137.815 108.557L93.9167 111.062C90.2116 111.273 87.3154 114.34 87.3154 118.051V129.058C87.3154 132.924 90.4494 136.058 94.3154 136.058H145.35L147.279 136.504C151.046 137.374 154.805 135.025 155.675 131.258L174.785 48.4815C175.655 44.7146 173.306 40.9559 169.539 40.0863L161.249 38.1723Z" fill="url(#paint1_linear)"/>
<path fill-rule="evenodd" clip-rule="evenodd" d="M139.613 30.0484C138.246 29.7327 136.843 30.4071 136.235 31.6719L127.648 49.5359C126.348 52.2413 125.889 55.2747 126.331 58.2437L127.986 69.3542L125.954 87.641C125.785 89.1603 124.501 90.3097 122.973 90.3097H119.149L119.149 90.3097L97.315 81.7322C96.6968 81.4894 96.0156 81.4585 95.378 81.6445L83.8098 85.0185C79.9984 86.1302 77.8735 90.1857 79.129 93.9521L82.6565 104.535C83.0649 105.76 84.2113 106.586 85.5026 106.586H110.607L110.648 106.586H132.422C134.079 106.586 135.422 105.243 135.422 103.586V103.214C135.67 102.775 135.86 102.294 135.979 101.778L146.438 56.4735C146.465 56.3922 146.487 56.3098 146.507 56.2264L151.221 35.8071C151.594 34.1927 150.587 32.5818 148.973 32.2091L139.613 30.0484Z" fill="url(#paint2_linear)"/>
<path d="M229.897 56.2987C229.897 55.594 229.773 54.8948 229.531 54.2331L222.197 34.2329C221.331 31.8696 219.081 30.2985 216.564 30.2985H193.326L170.089 30.2985C167.571 30.2985 165.322 31.8696 164.455 34.2329L157.122 54.2331C156.879 54.8948 156.755 55.594 156.755 56.2987V130.687C156.755 134.001 159.441 136.687 162.755 136.687H223.897C227.211 136.687 229.897 134.001 229.897 130.687V56.2987Z" fill="#F8FAFB"/>
<rect width="63.1684" height="49.8698" transform="matrix(-1 0 0 1 219.925 66.8698)" fill="#C2EF8A"/>
<rect width="46.5451" height="13.2986" rx="1" transform="matrix(-1 0 0 1 216.599 17)" fill="#A5E15D"/>
<rect width="1.66233" height="13.2986" transform="matrix(-1 0 0 1 213.275 17)" fill="#88C43F"/>
<rect width="1.66233" height="13.2986" transform="matrix(-1 0 0 1 198.312 17)" fill="#88C43F"/>
<rect width="1.66233" height="13.2986" transform="matrix(-1 0 0 1 183.354 17)" fill="#88C43F"/>
<rect width="1.66233" height="13.2986" transform="matrix(-1 0 0 1 208.287 17)" fill="#88C43F"/>
<rect width="1.66233" height="13.2986" transform="matrix(-1 0 0 1 193.325 17)" fill="#88C43F"/>
<rect width="1.66233" height="13.2986" transform="matrix(-1 0 0 1 178.364 17)" fill="#88C43F"/>
<rect width="1.66233" height="13.2986" transform="matrix(-1 0 0 1 203.301 17)" fill="#88C43F"/>
<rect width="1.66233" height="13.2986" transform="matrix(-1 0 0 1 188.34 17)" fill="#88C43F"/>
<rect width="1.66233" height="13.2986" transform="matrix(-1 0 0 1 173.378 17)" fill="#88C43F"/>
<circle r="18.2856" transform="matrix(-1 0 0 1 183.352 91.8047)" fill="#88C43F"/>
<path d="M229.896 56.0376C229.896 55.3329 229.771 54.6337 229.529 53.972L222.195 33.9718C221.329 31.6085 219.079 30.0374 216.562 30.0374H193.324L170.087 30.0374C167.569 30.0374 165.32 31.6085 164.453 33.9718L157.12 53.972C156.877 54.6337 156.753 55.3329 156.753 56.0376V130.426C156.753 133.74 159.439 136.426 162.753 136.426H223.896C227.209 136.426 229.896 133.74 229.896 130.426V56.0376Z" fill="url(#paint3_linear)"/>
<rect width="12.2065" height="30.5163" rx="6.10327" transform="matrix(0.857167 -0.515038 -0.515038 -0.857167 259.617 137.825)" fill="#EC8998"/>
<path d="M257.507 110.611L262.222 118.459L251.759 124.745L247.044 116.898C245.308 114.009 246.242 110.259 249.132 108.523C252.021 106.787 255.771 107.722 257.507 110.611Z" fill="#FADDE2"/>
<path fill-rule="evenodd" clip-rule="evenodd" d="M241.388 84.8514H216.794V89.5094H216.049C213.991 89.5094 212.322 91.1777 212.322 93.2357V132.362C212.322 134.42 213.991 136.088 216.049 136.088H242.133C244.191 136.088 245.859 134.42 245.859 132.362V93.2357C245.859 91.7532 245.23 90.3404 244.128 89.3487L241.388 86.8822V84.8514Z" fill="#F0B616"/>
<path d="M214.051 89.3485L216.978 86.7144V93.2354H212.32C212.32 91.753 212.949 90.3402 214.051 89.3485Z" fill="#F0B616"/>
<rect x="212.321" y="73.6724" width="33.537" height="11.179" fill="#EEF2F5"/>
<rect x="215.118" y="73.6724" width="8.38424" height="11.179" fill="white"/>
<rect x="223.5" y="73.6724" width="7.45266" height="11.179" fill="#EEF2F5"/>
<rect x="230.955" y="73.6724" width="7.45266" height="11.179" fill="#D5DFE6"/>
<rect x="238.406" y="73.6724" width="7.45266" height="11.179" fill="#C4CDD5"/>
<rect width="27.0159" height="29.8106" transform="matrix(-1 0 0 1 239.341 97.8938)" fill="white"/>
<path d="M232.819 106.278C232.819 105.249 231.985 104.415 230.956 104.415H212.325V108.141H230.956C231.985 108.141 232.819 107.307 232.819 106.278Z" fill="#C4CDD5"/>
<path fill-rule="evenodd" clip-rule="evenodd" d="M54.3114 46.6318C54.9828 48.5449 55.8223 51.5664 55.8223 54.0843C55.8223 57.8725 55.8223 60.9309 53.0113 63.6111C52.8026 63.8101 52.6758 64.0817 52.675 64.3701C52.6642 68.7511 52.4966 77.5786 51.8889 81.2242C51.1023 85.9442 50.709 89.0908 51.1023 90.2708C51.4956 91.4508 51.4956 93.4175 49.1356 93.4175C48.5916 93.4175 48.1217 93.3522 47.722 93.2498C46.9158 93.0433 45.1538 93.1406 44.3394 93.3118C44.0255 93.3778 43.6597 93.4175 43.2357 93.4175C42.9317 93.4175 42.6577 93.3971 42.4113 93.3613V93.431H18.4602C17.6535 93.431 16.9995 92.777 16.9995 91.9703C16.9995 91.2028 17.5934 90.5662 18.359 90.5131L29.6838 89.7266C28.4702 87.7327 28.0566 85.0332 28.289 82.0109C28.6267 77.6218 30.1235 75.5511 32.282 72.5651C32.6382 72.0724 33.0124 71.5547 33.4024 70.9976C34.5774 69.3189 35.4659 68.285 36.2208 67.4067C37.1071 66.3753 37.8091 65.5585 38.5743 64.164C38.7813 63.7867 38.7015 63.3217 38.4299 62.9878C37.3275 61.633 35.7624 58.9192 35.7624 55.6576C35.7624 51.404 36.4012 48.4281 37.3912 46.4422C37.5797 46.064 38.0069 45.8858 38.3832 46.0782C39.2547 46.5235 40.7044 47.5836 42.4701 49.6957C42.7024 49.9736 43.0634 50.113 43.4239 50.0766C44.4055 49.9775 46.1337 49.9062 48.2073 50.0967C48.5416 50.1274 48.87 49.9959 49.0948 49.7465C49.8178 48.9446 51.155 47.5939 52.8422 46.2228C53.3483 45.8115 54.0955 46.0164 54.3114 46.6318Z" fill="url(#paint4_linear)"/>
<path d="M45.6014 60.2188C45.8764 60.1952 46.1411 60.2016 46.3774 60.2239C46.7475 60.2588 46.8607 60.6868 46.5978 60.9497L46.3435 61.204C46.1482 61.3993 45.8316 61.3993 45.6364 61.204L45.382 60.9497C45.1192 60.6868 45.231 60.2505 45.6014 60.2188Z" fill="#C3D4FA"/>
<path d="M48.7755 56.0653L48.2925 56.6863C47.654 57.5073 47.7375 58.6777 48.4862 59.3996C49.4847 60.3624 51.0884 60.2957 52.0099 59.259C52.8363 58.3293 52.8261 56.908 51.9998 55.9783C51.1327 55.0028 49.5768 55.0351 48.7755 56.0653Z" fill="#E7EEFD"/>
<ellipse rx="1.18" ry="1.57333" transform="matrix(-1 0 0 1 49.9225 58.0177)" fill="#8CACF6"/>
<path d="M43.2021 56.0653L43.685 56.6863C44.3236 57.5073 44.24 58.6777 43.4913 59.3996C42.4929 60.3624 40.8892 60.2957 39.9676 59.259C39.1413 58.3293 39.1514 56.908 39.9778 55.9783C40.8449 55.0028 42.4008 55.0351 43.2021 56.0653Z" fill="#E7EEFD"/>
<ellipse cx="42.056" cy="58.0177" rx="1.18" ry="1.57333" fill="#8CACF6"/>
<ellipse cx="49.4712" cy="86.8429" rx="2.11765" ry="1.64706" fill="#8CACF6"/>
<ellipse cx="51.5883" cy="86.2938" rx="2.11765" ry="1.64706" fill="#8CACF6"/>
<ellipse cx="53.7055" cy="86.2938" rx="2.11765" ry="1.64706" fill="#8CACF6"/>
<ellipse cx="56.5298" cy="86.2938" rx="2.11765" ry="1.64706" fill="#8CACF6"/>
<ellipse cx="54.0596" cy="85.4703" rx="1.76471" ry="1.37255" fill="#8CACF6"/>
<ellipse cx="56.1768" cy="84.9213" rx="1.76471" ry="1.37255" fill="#8CACF6"/>
<ellipse cx="58.9999" cy="86.0193" rx="2.47059" ry="1.92157" fill="#8CACF6"/>
<ellipse cx="62.1762" cy="86.8429" rx="2.11765" ry="1.64706" fill="#8CACF6"/>
<path d="M43.6746 89.2229C44.1822 87.531 45.7394 86.3723 47.5059 86.3723H64.1419C65.9083 86.3723 67.4656 87.531 67.9732 89.2229L69.2356 93.4311H42.4121L43.6746 89.2229Z" fill="url(#paint5_linear)"/>
</g>
<defs>
<linearGradient id="paint0_linear" x1="3.11954e-07" y1="122.839" x2="135.484" y2="122.839" gradientUnits="userSpaceOnUse">
<stop stop-color="#8CACF6"/>
<stop offset="1" stop-color="#E7EEFD"/>
</linearGradient>
<linearGradient id="paint1_linear" x1="153.228" y1="136.982" x2="87.1447" y2="92.4326" gradientUnits="userSpaceOnUse">
<stop stop-color="#C4CDD5"/>
<stop offset="1" stop-color="#E7EEFD"/>
</linearGradient>
<linearGradient id="paint2_linear" x1="130.518" y1="122.341" x2="76.8146" y2="52.7401" gradientUnits="userSpaceOnUse">
<stop stop-color="#006BA0"/>
<stop offset="1" stop-color="#C4CDD5"/>
</linearGradient>
<linearGradient id="paint3_linear" x1="231.024" y1="88.5987" x2="156.753" y2="88.5987" gradientUnits="userSpaceOnUse">
<stop stop-color="#355F03" stop-opacity="0.4"/>
<stop offset="1" stop-color="#C2EF8A" stop-opacity="0.1"/>
</linearGradient>
<linearGradient id="paint4_linear" x1="58.4995" y1="46.431" x2="26.4995" y2="108.931" gradientUnits="userSpaceOnUse">
<stop stop-color="#8CACF6"/>
<stop offset="1" stop-color="#376EEE"/>
</linearGradient>
<linearGradient id="paint5_linear" x1="69.7053" y1="93.4311" x2="42.4112" y2="93.4311" gradientUnits="userSpaceOnUse">
<stop stop-color="#C4CDD5"/>
<stop offset="1" stop-color="#F8FAFB"/>
</linearGradient>
<clipPath id="clip0">
<rect width="269" height="136" fill="white"/>
</clipPath>
<clipPath id="clip1">
<rect width="20.129" height="20.129" fill="white" transform="translate(11.6133 104.258)"/>
</clipPath>
</defs>
</svg>
