<svg width="80" height="80" viewBox="0 0 80 80" fill="none" xmlns="http://www.w3.org/2000/svg">
<rect width="80" height="80" fill="white"/>
<path fill-rule="evenodd" clip-rule="evenodd" d="M7.32121 53.1495C7.14381 53.3612 7.17155 53.6765 7.38317 53.8539L8.91587 55.1388C9.12749 55.3162 9.44286 55.2884 9.62026 55.0768L10.2627 54.3105C10.4401 54.0988 10.4123 53.7835 10.2007 53.6061L8.66802 52.3212C8.4564 52.1438 8.14104 52.1716 7.96364 52.3832L7.32121 53.1495ZM8.34681 52.7044L7.70439 53.4708L8.85391 54.4344L9.49633 53.668L8.34681 52.7044Z" fill="#376EEE"/>
<path d="M25.4636 23.3715C25.7726 21.4294 27.4474 20 29.4139 20H50.5861C52.5526 20 54.2274 21.4294 54.5364 23.3715L60.2637 59.3715C60.6501 61.8008 58.7731 64 56.3133 64H23.6867C21.2269 64 19.3499 61.8008 19.7363 59.3715L25.4636 23.3715Z" fill="#C3D4FA"/>
<path d="M32 12C32 9.79086 33.7909 8 36 8H44C46.2091 8 48 9.79086 48 12V17C48 17.5523 47.5523 18 47 18H33C32.4477 18 32 17.5523 32 17V12Z" fill="#C3D4FA"/>
<rect x="42" y="18" width="1" height="2" fill="#C3D4FA"/>
<rect x="37" y="18" width="1" height="2" fill="#C3D4FA"/>
<path fill-rule="evenodd" clip-rule="evenodd" d="M30.1589 51.8291L32.8422 53.1707C32.5792 53.6967 31.6648 55.0005 30.31 56.3787C28.9307 57.7818 26.9771 59.3847 24.5775 60.3845C17.9558 63.1436 13.0553 59.1243 10.4165 56.96C10.2908 56.8568 10.1701 56.7579 10.0547 56.6641L11.9465 54.3358C12.0212 54.3965 12.0965 54.4578 12.1725 54.5196C14.9369 56.7704 18.4963 59.6684 23.4237 57.6153C25.33 56.821 26.9598 55.5073 28.1706 54.2756C28.771 53.6649 29.2539 53.089 29.6017 52.6339C29.7755 52.4063 29.9124 52.213 30.0112 52.0648C30.1164 51.9071 30.1576 51.8316 30.1589 51.8291Z" fill="#8CACF6"/>
<path fill-rule="evenodd" clip-rule="evenodd" d="M31.7656 49.1485L50.9661 20.6356C51.277 20.1739 51.905 20.055 52.3633 20.371L53.1864 20.9387C53.6374 21.2497 53.7542 21.8659 53.4481 22.3204L34.2353 50.8517L31.7656 49.1485Z" fill="#8CACF6"/>
<path d="M33 49C52.5 55.5 53.1 61.8 63.5 67" stroke="#8CACF6" stroke-width="3"/>
<path d="M15 68C15 65.7909 16.7909 64 19 64H61C63.2091 64 65 65.7909 65 68V69C65 75.0751 60.0751 80 54 80H26C19.9249 80 15 75.0751 15 69V68Z" fill="#E7EEFD"/>
<rect x="28" y="52.7266" width="6" height="5" rx="1" transform="rotate(-51.9751 28 52.7266)" fill="#376EEE"/>
<path d="M31.9349 49.6803C31.7174 49.5102 31.6789 49.196 31.849 48.9784L32.266 48.4452L35.0947 50.6572L34.6777 51.1904C34.5076 51.408 34.1934 51.4464 33.9758 51.2763L31.9349 49.6803Z" fill="#E7EEFD"/>
<path d="M9.28104 55.5659C9.14536 55.3858 9.14703 55.1371 9.28512 54.9589L10.0417 53.9821C10.1798 53.8038 10.4202 53.74 10.6285 53.8264L12.0315 54.4079L10.1949 56.779L9.28104 55.5659Z" fill="#8CACF6"/>
</svg>
