<svg width="56" height="56" viewBox="0 0 56 56" fill="none" xmlns="http://www.w3.org/2000/svg">
<circle cx="28" cy="28" r="28" fill="#F8FAFB"/>
<path d="M16 22.2043C16 21.4996 16.1241 20.8004 16.3667 20.1388L17.4601 17.1568C18.3267 14.7935 20.5762 13.2223 23.0934 13.2223H27.6111L32.1288 13.2223C34.646 13.2223 36.8955 14.7935 37.7621 17.1568L38.8555 20.1388C39.0981 20.8004 39.2222 21.4996 39.2222 22.2043V41.0001C39.2222 44.3138 36.5359 47.0001 33.2222 47.0001H22C18.6863 47.0001 16 44.3138 16 41.0001V22.2043Z" fill="#C3D4FA"/>
<rect x="19.1665" y="24.8334" width="20.0556" height="15.8333" fill="#E7EEFD"/>
<rect x="20.2222" y="9" width="14.7778" height="4.22222" rx="1" fill="#8CACF6"/>
<rect x="21.2778" y="9" width="0.527778" height="4.22222" fill="#376EEE"/>
<rect x="26.0278" y="9" width="0.527778" height="4.22222" fill="#376EEE"/>
<rect x="30.7778" y="9" width="0.527778" height="4.22222" fill="#376EEE"/>
<rect x="22.8608" y="9" width="0.527778" height="4.22222" fill="#376EEE"/>
<rect x="27.6108" y="9" width="0.527778" height="4.22222" fill="#376EEE"/>
<rect x="32.3608" y="9" width="0.527778" height="4.22222" fill="#376EEE"/>
<rect x="24.4443" y="9" width="0.527778" height="4.22222" fill="#376EEE"/>
<rect x="29.1943" y="9" width="0.527778" height="4.22222" fill="#376EEE"/>
<rect x="33.9443" y="9" width="0.527778" height="4.22222" fill="#376EEE"/>
<circle cx="30.7777" cy="32.75" r="5.80556" fill="#8CACF6"/>
</svg>
