<svg width="80" height="80" viewBox="0 0 80 80" fill="none" xmlns="http://www.w3.org/2000/svg">
<rect width="80" height="80" fill="white"/>
<path d="M18 32.0653C18 31.3606 18.1241 30.6614 18.3667 29.9998L22.0574 19.9345C22.9239 17.5712 25.1735 16 27.6906 16H40L52.3094 16C54.8265 16 57.0761 17.5712 57.9426 19.9345L61.6333 29.9998C61.8759 30.6614 62 31.3606 62 32.0653V74C62 77.3137 59.3137 80 56 80H24C20.6863 80 18 77.3137 18 74V32.0653Z" fill="#C3D4FA"/>
<rect x="24" y="38" width="38" height="30" fill="#E7EEFD"/>
<rect x="26" y="8" width="28" height="8" rx="1" fill="#8CACF6"/>
<rect x="28" y="8" width="1" height="8" fill="#376EEE"/>
<rect x="37" y="8" width="1" height="8" fill="#376EEE"/>
<rect x="46" y="8" width="1" height="8" fill="#376EEE"/>
<rect x="31" y="8" width="1" height="8" fill="#376EEE"/>
<rect x="40" y="8" width="1" height="8" fill="#376EEE"/>
<rect x="49" y="8" width="1" height="8" fill="#376EEE"/>
<rect x="34" y="8" width="1" height="8" fill="#376EEE"/>
<rect x="43" y="8" width="1" height="8" fill="#376EEE"/>
<rect x="52" y="8" width="1" height="8" fill="#376EEE"/>
<circle cx="46" cy="53" r="11" fill="#8CACF6"/>
</svg>