<svg width="80" height="80" viewBox="0 0 80 80" fill="none" xmlns="http://www.w3.org/2000/svg">
<rect width="80" height="80" fill="white"/>
<path d="M56.7427 11V22.6636C56.7427 23.1655 56.6168 23.6595 56.3764 24.1001L51.3039 33.3997C50.8232 34.281 50.5713 35.2689 50.5713 36.2728V49.1429L52.0873 66.3244C52.1052 66.5267 52.1024 66.7302 52.0791 66.9319L50.8285 77.7708C50.6915 78.9583 51.6199 80 52.8153 80H60.857V8H59.8284H59.7427C58.0859 8 56.7427 9.34315 56.7427 11Z" fill="#8CACF6"/>
<path d="M64.9711 11V22.6636C64.9711 23.1655 65.0971 23.6595 65.3375 24.1001L70.41 33.3997C70.8907 34.281 71.1426 35.2689 71.1426 36.2728V49.1429L69.6266 66.3244C69.6087 66.5267 69.6114 66.7302 69.6347 66.9319L70.8854 77.7708C71.0224 78.9583 70.0939 80 68.8985 80H60.8569V8H61.8854H61.9712C63.628 8 64.9711 9.34315 64.9711 11Z" fill="#8CACF6"/>
<rect x="55.7139" y="8" width="10.2857" height="3.08571" rx="1" fill="#376EEE"/>
<rect x="53.6572" y="35.7715" width="17.4857" height="13.3714" fill="#C3D4FA"/>
<path d="M18.1426 40H45.5712L44.9997 48L44.4283 58.2857L45.5712 68.5714V80H18.1426V40Z" fill="#8CACF6"/>
<path d="M9 40H45.5714L45 45.1429L42.3208 56.9314C42.2029 57.45 42.1686 57.9841 42.219 58.5135L43.1767 68.5694C43.249 69.3288 43.4295 70.0739 43.7128 70.7821L45.2138 74.5345C45.4501 75.1251 45.5714 75.7554 45.5714 76.3915V80H9V75.4286L11.1769 60.4622C11.249 59.9664 11.2462 59.4626 11.1686 58.9676L9 45.1429V40Z" fill="#E7EEFD"/>
<rect x="14.7139" y="54.8574" width="25.1429" height="17.1429" fill="#C3D4FA"/>
<circle cx="27.2859" cy="54.8571" r="6.85714" fill="white"/>
<rect width="80" height="80" fill="white"/>
<path d="M78.4226 34.333H72.6662H68.7773C68.2251 34.333 67.7773 34.7807 67.7773 35.333V48.8886C67.7773 49.4408 68.2251 49.8886 68.7773 49.8886H78.4226C79.1559 49.8886 79.6398 49.1254 79.3271 48.4621L76.5339 42.5372C76.4066 42.2672 76.4066 41.9544 76.5339 41.6844L79.3271 35.7594C79.6398 35.0961 79.1559 34.333 78.4226 34.333Z" fill="url(#paint0_linear)"/>
<path d="M1.57742 34.333H7.33377H11.2227C11.7749 34.333 12.2227 34.7807 12.2227 35.333V48.8886C12.2227 49.4408 11.7749 49.8886 11.2227 49.8886H1.57741C0.844101 49.8886 0.360189 49.1254 0.672889 48.4621L3.46607 42.5372C3.59337 42.2672 3.59337 41.9544 3.46607 41.6844L0.672889 35.7594C0.360189 35.0961 0.844102 34.333 1.57742 34.333Z" fill="url(#paint1_linear)"/>
<path d="M39.3863 9.18507C39.7585 8.93831 40.2422 8.93831 40.6144 9.18507L42.5742 10.4845C42.8769 10.6852 43.2585 10.7253 43.5963 10.592L45.7835 9.72837C46.1988 9.56437 46.6719 9.66494 46.9847 9.98369L48.6315 11.6622C48.8858 11.9215 49.2508 12.04 49.6089 11.9798L51.9279 11.5898C52.3682 11.5158 52.8101 11.7125 53.0497 12.0893L54.3116 14.0736C54.5064 14.38 54.8388 14.5719 55.2016 14.5874L57.551 14.6881C57.9971 14.7072 58.3884 14.9915 58.5444 15.4099L59.3662 17.6132C59.4931 17.9534 59.7783 18.2102 60.1299 18.3009L62.407 18.8878C62.8394 18.9992 63.1631 19.3587 63.2287 19.8004L63.5744 22.1263C63.6278 22.4856 63.8533 22.796 64.1785 22.9578L66.2838 24.0053C66.6836 24.2042 66.9254 24.6231 66.8978 25.0688L66.7523 27.4158C66.7299 27.7783 66.8859 28.1288 67.1703 28.3547L69.0118 29.817C69.3615 30.0947 69.511 30.5548 69.3913 30.985L68.7611 33.2504C68.6637 33.6003 68.7435 33.9757 68.9747 34.2557L70.472 36.069C70.7563 36.4133 70.8068 36.8944 70.6003 37.2903L69.5128 39.3752C69.3449 39.6972 69.3449 40.0809 69.5128 40.4029L70.6003 42.4878C70.8068 42.8838 70.7563 43.3648 70.472 43.7091L68.9747 45.5224C68.7435 45.8024 68.6637 46.1778 68.7611 46.5277L69.3913 48.7931C69.511 49.2233 69.3615 49.6834 69.0118 49.9611L67.1703 51.4234C66.8859 51.6493 66.7299 51.9998 66.7523 52.3623L66.8978 54.7093C66.9254 55.155 66.6836 55.5739 66.2838 55.7728L64.1785 56.8203C63.8533 56.9821 63.6278 57.2926 63.5744 57.6518L63.2287 59.9777C63.1631 60.4194 62.8394 60.7789 62.407 60.8903L60.1299 61.4773C59.7783 61.5679 59.4931 61.8247 59.3662 62.1649L58.5444 64.3682C58.3884 64.7866 57.9971 65.0709 57.551 65.09L55.2016 65.1907C54.8388 65.2062 54.5065 65.3981 54.3116 65.7045L53.0497 67.6888C52.8101 68.0656 52.3682 68.2623 51.9279 68.1883L49.6089 67.7983C49.2508 67.7381 48.8858 67.8566 48.6315 68.1159L46.9847 69.7944C46.6719 70.1132 46.1988 70.2137 45.7835 70.0497L43.5963 69.1861C43.2585 69.0528 42.8769 69.0929 42.5742 69.2936L40.6144 70.593C40.2422 70.8398 39.7585 70.8398 39.3863 70.593L37.4265 69.2936C37.1238 69.0929 36.7422 69.0528 36.4044 69.1861L34.2172 70.0497C33.8019 70.2137 33.3288 70.1132 33.016 69.7944L31.3692 68.1159C31.1149 67.8566 30.7499 67.7381 30.3918 67.7983L28.0728 68.1883C27.6325 68.2623 27.1906 68.0656 26.951 67.6888L25.6891 65.7045C25.4943 65.3981 25.1619 65.2062 24.7991 65.1907L22.4498 65.09C22.0036 65.0709 21.6123 64.7866 21.4563 64.3682L20.6345 62.1649C20.5076 61.8247 20.2224 61.5679 19.8708 61.4773L17.5937 60.8903C17.1613 60.7789 16.8376 60.4194 16.772 59.9777L16.4263 57.6518C16.3729 57.2926 16.1474 56.9821 15.8222 56.8203L13.7169 55.7728C13.3172 55.5739 13.0753 55.155 13.1029 54.7093L13.2484 52.3623C13.2708 51.9998 13.1148 51.6493 12.8304 51.4234L10.9889 49.9611C10.6392 49.6834 10.4897 49.2233 10.6094 48.7931L11.2396 46.5277C11.337 46.1778 11.2572 45.8024 11.026 45.5224L9.52875 43.7091C9.24444 43.3648 9.19388 42.8838 9.40039 42.4878L10.4879 40.4029C10.6558 40.0809 10.6558 39.6972 10.4879 39.3752L9.40039 37.2903C9.19388 36.8944 9.24444 36.4133 9.52875 36.069L11.026 34.2557C11.2572 33.9757 11.337 33.6003 11.2396 33.2504L10.6094 30.985C10.4897 30.5548 10.6392 30.0947 10.9889 29.817L12.8304 28.3547C13.1148 28.1288 13.2708 27.7783 13.2484 27.4158L13.1029 25.0688C13.0753 24.6231 13.3172 24.2042 13.7169 24.0053L15.8222 22.9578C16.1474 22.796 16.3729 22.4856 16.4263 22.1263L16.772 19.8004C16.8376 19.3587 17.1613 18.9992 17.5937 18.8878L19.8708 18.3009C20.2225 18.2102 20.5076 17.9534 20.6345 17.6132L21.4563 15.4099C21.6123 14.9915 22.0036 14.7072 22.4498 14.6881L24.7991 14.5874C25.1619 14.5719 25.4943 14.38 25.6891 14.0736L26.951 12.0893C27.1906 11.7125 27.6325 11.5158 28.0728 11.5898L30.3918 11.9798C30.7499 12.04 31.1149 11.9215 31.3692 11.6622L33.016 9.98369C33.3288 9.66495 33.8019 9.56437 34.2172 9.72837L36.4044 10.592C36.7422 10.7253 37.1238 10.6852 37.4265 10.4845L39.3863 9.18507Z" fill="#FFE380"/>
<path fill-rule="evenodd" clip-rule="evenodd" d="M39.9997 65.9995C54.4204 65.9995 66.1108 54.3091 66.1108 39.8883C66.1108 25.4676 54.4204 13.7772 39.9997 13.7772C25.5789 13.7772 13.8886 25.4676 13.8886 39.8883C13.8886 54.3091 25.5789 65.9995 39.9997 65.9995ZM39.9997 66.555C54.7273 66.555 66.6663 54.6159 66.6663 39.8883C66.6663 25.1608 54.7273 13.2217 39.9997 13.2217C25.2721 13.2217 13.333 25.1608 13.333 39.8883C13.333 54.6159 25.2721 66.555 39.9997 66.555Z" fill="#F0B616"/>
<path fill-rule="evenodd" clip-rule="evenodd" d="M40.0004 57.1113C49.512 57.1113 57.2227 49.4007 57.2227 39.8891C57.2227 30.3775 49.512 22.6669 40.0004 22.6669C30.4889 22.6669 22.7782 30.3775 22.7782 39.8891C22.7782 49.4007 30.4889 57.1113 40.0004 57.1113ZM40.0004 57.6669C49.8188 57.6669 57.7782 49.7075 57.7782 39.8891C57.7782 30.0707 49.8188 22.1113 40.0004 22.1113C30.182 22.1113 22.2227 30.0707 22.2227 39.8891C22.2227 49.7075 30.182 57.6669 40.0004 57.6669Z" fill="#F0B616"/>
<rect x="7.77734" y="32.1113" width="64.4444" height="15.5556" rx="1" fill="#79D6FA"/>
<path d="M40.0004 34.333L41.6724 37.5874L45.2841 38.1718L42.7057 40.7675L43.2659 44.3831L40.0004 42.733L36.735 44.3831L37.2952 40.7675L34.7168 38.1718L38.3285 37.5874L40.0004 34.333Z" fill="#E6F7FF"/>
<path d="M55.555 36.5557L56.5581 38.5083L58.7251 38.8589L57.1781 40.4164L57.5142 42.5857L55.555 41.5957L53.5957 42.5857L53.9318 40.4164L52.3848 38.8589L54.5518 38.5083L55.555 36.5557Z" fill="#E6F7FF"/>
<path d="M24.4436 36.5557L25.4468 38.5083L27.6138 38.8589L26.0668 40.4164L26.4029 42.5857L24.4436 41.5957L22.4843 42.5857L22.8205 40.4164L21.2734 38.8589L23.4405 38.5083L24.4436 36.5557Z" fill="#E6F7FF"/>
<defs>
<linearGradient id="paint0_linear" x1="63.8885" y1="32.6663" x2="78.703" y2="39.6601" gradientUnits="userSpaceOnUse">
<stop stop-color="#006BA0"/>
<stop offset="1" stop-color="#2FB7EC"/>
</linearGradient>
<linearGradient id="paint1_linear" x1="16.1115" y1="32.6663" x2="1.29698" y2="39.6601" gradientUnits="userSpaceOnUse">
<stop stop-color="#006BA0"/>
<stop offset="1" stop-color="#2FB7EC"/>
</linearGradient>
</defs>
</svg>
