<svg width="100" height="101" viewBox="0 0 100 101" fill="none" xmlns="http://www.w3.org/2000/svg">
<path d="M59.0733 36.5194L57.8455 34.9407L57.8455 34.9407L59.0733 36.5194ZM65.5734 36.5194L64.3456 38.0981L64.3456 38.0981L65.5734 36.5194ZM41.4275 50.244L42.6554 51.8227L42.6554 51.8227L41.4275 50.244ZM83.3679 83.1522L84.7821 84.5664L84.7821 84.5664L83.3679 83.1522ZM83.2193 50.244L81.9914 51.8227L81.9914 51.8227L83.2193 50.244ZM60.3012 38.0981C61.4906 37.173 63.1561 37.173 64.3456 38.0981L66.8013 34.9407C64.1675 32.8922 60.4793 32.8922 57.8455 34.9407L60.3012 38.0981ZM41.3838 54.4226C41.3838 53.4062 41.8531 52.4467 42.6554 51.8227L40.1996 48.6653C38.4229 50.0471 37.3838 52.1718 37.3838 54.4226H41.3838ZM41.3838 79.7535V54.4226H37.3838V79.7535H41.3838ZM44.6775 83.0473C42.8585 83.0473 41.3838 81.5726 41.3838 79.7535H37.3838C37.3838 83.7817 40.6493 87.0473 44.6775 87.0473V83.0473ZM78.7928 83.0473H44.6775V87.0473H78.7928V83.0473ZM81.9537 81.738C81.1154 82.5763 79.9784 83.0473 78.7928 83.0473V87.0473C81.0393 87.0473 83.1937 86.1549 84.7821 84.5664L81.9537 81.738ZM83.263 78.5771C83.263 79.7627 82.792 80.8997 81.9537 81.738L84.7821 84.5664C86.3706 82.9779 87.263 80.8235 87.263 78.5771H83.263ZM83.263 54.4226V78.5771H87.263V54.4226H83.263ZM81.9914 51.8227C82.7937 52.4467 83.263 53.4062 83.263 54.4226H87.263C87.263 52.1718 86.2238 50.0471 84.4472 48.6653L81.9914 51.8227ZM64.3456 38.0981L81.9914 51.8227L84.4472 48.6653L66.8013 34.9407L64.3456 38.0981ZM42.6554 51.8227L45.9054 49.2948L43.4497 46.1374L40.1996 48.6653L42.6554 51.8227ZM53.5975 43.3121L60.3012 38.0981L57.8455 34.9407L51.1417 40.1547L53.5975 43.3121Z" fill="#022786"/>
<path d="M73.5073 84.2906V62.7014C73.5073 61.7692 73.137 60.8752 72.4778 60.216C71.8186 59.5568 70.9246 59.1865 69.9924 59.1865H68.3947H54.6546C53.7224 59.1865 52.8283 59.5568 52.1691 60.216C51.51 60.8752 51.1396 61.7692 51.1396 62.7014V84.2906" stroke="#022786" stroke-width="4" stroke-linecap="round" stroke-linejoin="round"/>
<path d="M54.6906 25.2427L54.6933 25.24L54.6994 25.2338L54.7143 25.2185L54.7544 25.1763C54.7855 25.1431 54.825 25.0997 54.871 25.0467C54.9626 24.941 55.0822 24.7944 55.2127 24.6119C55.4688 24.2536 55.7926 23.7209 56.0146 23.0569C56.2389 22.3859 56.3697 21.5467 56.1857 20.622C55.9991 19.6843 55.5128 18.7803 54.6934 17.9609C53.874 17.1415 52.97 16.6552 52.0323 16.4686C51.1076 16.2846 50.2684 16.4154 49.5974 16.6397C48.9334 16.8617 48.4007 17.1855 48.0424 17.4416C47.8599 17.5721 47.7133 17.6917 47.6076 17.7833C47.5546 17.8293 47.5111 17.8688 47.478 17.8998L47.4358 17.94L47.4205 17.9549L47.4143 17.961L47.4103 17.965L41.598 23.7773C41.1482 24.2271 40.4864 24.3911 39.8786 24.2034L25.7886 19.8518C25.1808 19.6641 24.519 19.8281 24.0692 20.278L20.9215 23.4256C20.5398 23.8074 20.36 24.3465 20.4362 24.8809C20.5124 25.4154 20.8357 25.8828 21.3089 26.1426L32.8792 32.4961L25.27 40.1054L19.9951 38.5561C19.3929 38.3792 18.7423 38.5453 18.2985 38.9891L15.8721 41.4154C15.5013 41.7863 15.3204 42.3064 15.3812 42.8273C15.442 43.3483 15.7377 43.8128 16.1839 44.0884L23.4938 48.6021C23.7208 48.7423 23.912 48.9335 24.0522 49.1605L28.5659 56.4704C28.8415 56.9166 29.306 57.2123 29.827 57.2731C30.3479 57.3339 30.868 57.153 31.2389 56.7821L33.6652 54.3558C34.109 53.912 34.275 53.2613 34.0982 52.6592L32.5489 47.3843L40.1582 39.7751L46.5116 51.3454C46.7715 51.8186 47.2389 52.1419 47.7733 52.2181C48.3078 52.2943 48.8469 52.1145 49.2287 51.7328L52.3763 48.5851C52.8262 48.1353 52.9902 47.4735 52.8024 46.8657L48.4509 32.7757C48.2631 32.1679 48.4272 31.5061 48.877 31.0563L54.6881 25.2452" stroke="#022786" stroke-width="4" stroke-linejoin="round"/>
<path fill-rule="evenodd" clip-rule="evenodd" d="M51.751 64.9546V84.3413H74.8059V61.5486L69.5661 59.0244H69.0421H62.4051H57.7767H56.1175L51.751 61.1118V64.9546ZM60.5316 63.0806C59.6837 63.0806 58.9964 63.7679 58.9964 64.6158V68.7098C58.9964 69.5577 59.6837 70.245 60.5316 70.245H64.6256C65.4735 70.245 66.1609 69.5577 66.1609 68.7098V64.6158C66.1609 63.7679 65.4735 63.0806 64.6256 63.0806H60.5316ZM55.1583 73.3165C54.3104 73.3165 53.623 74.0039 53.623 74.8518V78.9457C53.623 79.7936 54.3104 80.481 55.1583 80.481H59.2523C60.1002 80.481 60.7875 79.7936 60.7875 78.9457V74.8518C60.7875 74.0039 60.1002 73.3165 59.2523 73.3165H55.1583ZM65.3942 73.3165C64.5464 73.3165 63.859 74.0039 63.859 74.8518V78.9457C63.859 79.7936 64.5464 80.481 65.3942 80.481H69.4882C70.3361 80.481 71.0235 79.7936 71.0235 78.9457V74.8518C71.0235 74.0039 70.3361 73.3165 69.4882 73.3165H65.3942Z" fill="#022786"/>
</svg>
