<svg width="100" height="100" viewBox="0 0 100 100" fill="none" xmlns="http://www.w3.org/2000/svg">
<path d="M38.4539 35.3516C38.4539 34.247 39.3493 33.3516 40.4539 33.3516H64.001C65.1056 33.3516 66.001 34.247 66.001 35.3516V59.6232C66.001 60.7278 65.1056 61.6232 64.001 61.6232H40.4539C39.3493 61.6232 38.4539 60.7278 38.4539 59.6232V35.3516Z" fill="white" stroke="#022786" stroke-width="4"/>
<path d="M58.1318 35.3516C58.1318 34.247 59.0273 33.3516 60.1318 33.3516H64.0025C65.107 33.3516 66.0025 34.247 66.0025 35.3516V59.6232C66.0025 60.7278 65.107 61.6232 64.0025 61.6232H60.1318C59.0273 61.6232 58.1318 60.7278 58.1318 59.6232V35.3516Z" fill="white" stroke="#022786" stroke-width="4"/>
<path d="M43.9753 35.3516C43.9753 34.247 44.8708 33.3516 45.9753 33.3516H50.613C51.7176 33.3516 52.613 34.247 52.613 35.3516V40.7802C52.613 41.5588 51.6964 41.9754 51.1098 41.4634C50.7432 41.1434 50.1894 41.1698 49.8549 41.5232L49.5266 41.87C49.0377 42.3865 48.2398 42.4559 47.6691 42.0315L46.7516 41.3493C46.3916 41.0816 45.8937 41.1011 45.5557 41.3961C44.939 41.9344 43.9753 41.4964 43.9753 40.6778V35.3516Z" fill="#022786"/>
<path fill-rule="evenodd" clip-rule="evenodd" d="M72.6752 28.8865C72.8741 29.086 73.144 29.1983 73.4256 29.1988L82.2222 29.2135C82.8087 29.2144 83.2849 28.7398 83.2859 28.1533L83.2952 22.5534C83.2962 21.9669 82.8215 21.4907 82.2351 21.4897L73.4385 21.4751C73.1568 21.4746 72.8865 21.586 72.6871 21.7848L69.8824 24.5801C69.467 24.9942 69.4659 25.6665 69.8799 26.0819L72.6752 28.8865Z" fill="#022786"/>
<path d="M62.8697 33.0681C67.3351 31.5191 66.9932 25.6469 70.993 25.679" stroke="#022786" stroke-width="4" stroke-linecap="round"/>
<path fill-rule="evenodd" clip-rule="evenodd" d="M59.2071 61.624C58.6565 61.2229 57.9749 60.9698 57.2323 60.9354H54.9486C51.0734 61.0041 43.1159 61.0041 39.2407 59.22C35.3662 57.4366 30.7988 60.0437 30.7988 60.0437C29.2653 60.7756 21.5293 67.8427 18.808 70.3505C18.2739 70.8426 18.2272 71.6596 18.6972 72.2123L25.9407 80.7297C26.4122 81.2853 27.243 81.3727 27.8222 80.9276L34.5332 75.7709C34.8932 75.4938 35.3368 75.3437 35.7933 75.3437H54.056C55.0713 75.3437 56.0452 74.9456 56.7653 74.2376C61.765 69.3236 66.764 64.4088 71.7629 59.4948C72.9778 58.0027 72.9221 55.9064 71.7629 54.6233C70.417 53.1335 67.8403 53.0274 66.2269 54.6233L59.5845 61.2095L59.2071 61.624Z" fill="white" stroke="#022786" stroke-width="4"/>
<path d="M40.8059 67.3381H55.5084C57.4396 67.1452 58.7811 65.4262 58.554 63.7222C58.4668 63.0625 58.1511 62.4557 57.6796 61.9797L57.2658 61.623" stroke="#022786" stroke-width="4" stroke-linecap="round" stroke-linejoin="round"/>
</svg>
