<svg xmlns="http://www.w3.org/2000/svg" xmlns:xlink="http://www.w3.org/1999/xlink" width="56" height="56" viewBox="0 0 56 56">
    <defs>
        <circle id="a" cx="28" cy="28" r="28"/>
        <linearGradient id="b" x1="100%" x2="50%" y1="100%" y2="0%">
            <stop offset="0%" stop-color="#5685F1"/>
            <stop offset="100%" stop-color="#8BDCFB"/>
        </linearGradient>
        <linearGradient id="e" x1="13.265%" x2="79.379%" y1="100%" y2="15.447%">
            <stop offset="0%" stop-color="#7790A3"/>
            <stop offset="100%" stop-color="#AFC7D1"/>
        </linearGradient>
        <path id="d" d="M1.106 5.447l10-5a2 2 0 0 1 1.788 0l10 5A2 2 0 0 1 24 7.237v13.527a2 2 0 0 1-1.106 1.789l-10 5a2 2 0 0 1-1.788 0l-10-5A2 2 0 0 1 0 20.763V7.237a2 2 0 0 1 1.106-1.789z"/>
        <linearGradient id="g" x1="0%" x2="50%" y1="92.014%" y2="37.298%">
            <stop offset="0%" stop-color="#AFC7D1" stop-opacity=".4"/>
            <stop offset="100%" stop-color="#7790A3"/>
        </linearGradient>
        <path id="h" d="M0 6l24 16-12 6-12-6v-8z"/>
        <linearGradient id="i" x1="13.265%" x2="54.989%" y1="100%" y2="50%">
            <stop offset="0%" stop-color="#CEF2FD"/>
            <stop offset="100%" stop-color="#7790A3"/>
        </linearGradient>
        <linearGradient id="k" x1="13.265%" x2="98.836%" y1="100%" y2="11.743%">
            <stop offset="0%" stop-color="#CEF2FD"/>
            <stop offset="100%" stop-color="#AFC7D1"/>
        </linearGradient>
        <path id="j" d="M6 10l6-3 6 3v8l-6 3-6-3v-4z"/>
    </defs>
    <g fill="none" fill-rule="evenodd">
        <mask id="c" fill="#fff">
            <use xlink:href="#a"/>
        </mask>
        <use fill="#FFF" xlink:href="#a"/>
        <use fill="#C3D4FA" fill-opacity=".6" xlink:href="#a"/>
        <path fill="url(#b)" fill-rule="nonzero" d="M28 12l16 32H12z" mask="url(#c)" transform="matrix(1 0 0 -1 0 56)"/>
        <path fill="#326BEE" d="M23 15h10v11H23z" mask="url(#c)"/>
        <path fill="#FFF" d="M26 15h4v11h-4z" mask="url(#c)"/>
        <g mask="url(#c)">
            <g transform="translate(16 20)">
                <g>
                    <mask id="f" fill="#fff">
                        <use xlink:href="#d"/>
                    </mask>
                    <g fill-rule="nonzero">
                        <use fill="url(#e)" xlink:href="#d"/>
                        <use fill="#5685F1" fill-opacity=".2" xlink:href="#d"/>
                    </g>
                    <g fill-rule="nonzero" mask="url(#f)">
                        <use fill="url(#g)" xlink:href="#h"/>
                        <use fill="#5685F1" fill-opacity=".3" xlink:href="#h"/>
                    </g>
                </g>
                <g fill-rule="nonzero">
                    <use fill="url(#i)" xlink:href="#j"/>
                    <path fill="#5685F1" fill-opacity=".2" fill-rule="evenodd" stroke="url(#k)" stroke-width="2" d="M5 9.382l7-3.5 7 3.5v9.236l-7 3.5-7-3.5V9.382z"/>
                </g>
                <path fill="#F8FAFB" fill-opacity=".2" fill-rule="nonzero" d="M6 10l6-3 6 3v8z"/>
                <rect width="4" height="2" x="12.236" y="9.776" fill="#FFF" rx="1" transform="rotate(26 14.236 10.776)"/>
            </g>
        </g>
        <path fill="#326BEE" d="M12 12h32v3H12z" mask="url(#c)"/>
    </g>
</svg>
