<svg width="101" height="101" viewBox="0 0 101 101" fill="none" xmlns="http://www.w3.org/2000/svg">
<path d="M24.9601 63.7212C29.046 56.3728 35.7899 48.4236 42.4402 40.771H57.2062C57.2064 40.7711 57.2066 40.7712 57.2069 40.7713C57.2084 40.772 57.2097 40.7728 57.2106 40.7735C57.2115 40.7741 57.2114 40.7742 57.2107 40.7734C66.3759 51.234 72.4394 59.9627 75.5374 66.9309C78.6266 73.8792 78.5443 78.5276 76.4871 81.4955H23.1376C19.8739 77.0852 20.8404 71.1304 24.9601 63.7212Z" fill="white" stroke="#022786" stroke-width="4" stroke-linejoin="round"/>
<path d="M38.3741 20.615L49.5845 18.3604L60.794 20.615L56.4314 33.7782H42.7385L38.3741 20.615Z" fill="white" stroke="#022786" stroke-width="4" stroke-linejoin="round"/>
<circle cx="49.568" cy="62.8809" r="8.4952" fill="#022786" stroke="#022786" stroke-width="5"/>
<rect x="65.5068" y="32.7114" width="9.82933" height="67.3103" transform="rotate(35.4806 65.5068 32.7114)" fill="white"/>
<line x1="38.0575" y1="87.5368" x2="68.2194" y2="43.6572" stroke="#022786" stroke-width="4" stroke-linecap="round"/>
</svg>
