<svg xmlns="http://www.w3.org/2000/svg" xmlns:xlink="http://www.w3.org/1999/xlink" width="720" height="424" viewBox="0 0 720 424">
    <defs>
        <path id="a" d="M0 0h720v424H0z"/>
        <linearGradient id="d" x1="0%" y1="35.677%" y2="64.323%">
            <stop offset="0%" stop-color="#AFC7D1" stop-opacity=".2"/>
            <stop offset="100%" stop-color="#CEF2FD"/>
        </linearGradient>
        <path id="c" d="M223 241c17.077-94.202 50.55-145.298 100.42-153.288 74.805-11.986 4.494 42.109 42.888 64.404 17.06 9.906 36.916 5.454 68.018 0 31.103-5.455 74.5 9.665 78.674 88.07-52.45 1-149.116 1.27-290 .814z"/>
        <linearGradient id="e" x1="100%" x2="0%" y1="82%" y2="18%">
            <stop offset="0%" stop-color="#CEF2FD"/>
            <stop offset="100%" stop-color="#8BDCFB"/>
        </linearGradient>
        <linearGradient id="f" x1="100%" x2="0%" y1="82%" y2="18%">
            <stop offset="0%" stop-color="#8BDCFB"/>
            <stop offset="100%" stop-color="#8BDCFB"/>
        </linearGradient>
        <linearGradient id="g" x1="53.125%" x2="46.875%" y1="100%" y2="0%">
            <stop offset="0%" stop-color="#8BDCFB"/>
            <stop offset="100%" stop-color="#8BDCFB"/>
        </linearGradient>
        <path id="h" d="M0 241h548v8H0z"/>
        <path id="i" d="M0 15.328C0 6.863 6.86 0 15.322 0s15.322 6.863 15.322 15.328h-2.553c0-7.054-5.717-12.773-12.769-12.773-7.052 0-12.768 5.719-12.768 12.773H0z"/>
        <linearGradient id="j" x1="0%" y1="50%" y2="50%">
            <stop offset="0%" stop-color="#FFE557"/>
            <stop offset="100%" stop-color="#FFC72C"/>
        </linearGradient>
        <linearGradient id="k" x1="0%" y1="50%" y2="50%">
            <stop offset="0%" stop-color="#FFD560"/>
            <stop offset="100%" stop-color="#F0B616"/>
        </linearGradient>
        <linearGradient id="l" x1="8.234%" y1="50%" y2="50%">
            <stop offset="0%" stop-color="#FFE557"/>
            <stop offset="100%" stop-color="#FFC72C"/>
        </linearGradient>
        <ellipse id="m" cx="17.876" cy="17.883" rx="17.876" ry="17.883"/>
        <path id="o" d="M0 10h74v142a2 2 0 0 1-2 2H2a2 2 0 0 1-2-2V10z"/>
        <linearGradient id="p" x1="0%" x2="79.921%" y1="76.657%" y2="43.552%">
            <stop offset="0%" stop-color="#3FAA7D"/>
            <stop offset="100%" stop-color="#4E6EB9"/>
        </linearGradient>
        <linearGradient id="q" x1="0%" x2="79.921%" y1="85.787%" y2="41.343%">
            <stop offset="0%" stop-color="#3FAA7D"/>
            <stop offset="100%" stop-color="#4E6EB9"/>
        </linearGradient>
        <linearGradient id="r" x1="100%" x2="50%" y1="17.925%" y2="95.707%">
            <stop offset="0%" stop-color="#FFE557"/>
            <stop offset="100%" stop-color="#FFC72C"/>
        </linearGradient>
        <linearGradient id="s" x1="50%" x2="50%" y1="0%" y2="100%">
            <stop offset="0%" stop-color="#F0B616"/>
            <stop offset="100%" stop-color="#FFC72C"/>
        </linearGradient>
        <path id="t" d="M84.232 113.102c4.085 5.613 9.385 19.62 13.589 23.056 6.337 1.276 10.331 4.23 14.285 6v5.5c-16.544 4.125-27.544 4.125-33 0-5.602-4.236-11.884-18.953-14.106-26.18 3.302-.878 9.713-3.67 19.232-8.376z"/>
        <linearGradient id="u" x1="80.149%" x2="25.728%" y1="59.877%" y2="41.744%">
            <stop offset="0%" stop-color="#8BDCFB"/>
            <stop offset="100%" stop-color="#2FB7EC"/>
        </linearGradient>
        <linearGradient id="v" x1="3.022%" x2="109.46%" y1="49.697%" y2="50.942%">
            <stop offset="0%" stop-color="#8BDCFB"/>
            <stop offset="100%" stop-color="#2FB7EC"/>
        </linearGradient>
        <path id="w" d="M155.529 118.368c.327 9.971.056 19.98.98 29.913 1.841 19.788 10.987 22.978 28.749 27.877 6.366 1.756 18.425 2.333 26.5 1.562 1.709-2.56 3.115-4.748 4.22-6.562-13.619-8-22.485-18.133-30.72-21.477-1.751-.71-5.203-1.86-5.75-2.023v-22.5c-5.318.403-9.851-.012-13.6-1.246a34.257 34.257 0 0 1-10.379-5.544z"/>
        <path id="x" d="M144.562 56.477c-2.017 3.918-4.21 8.655-6.612 12.35-1.182 1.818-4.625 2.445-4.587 4.614.125 7.117 3.362 12.956 9.873 15.717 7.786 3.301 19.326 2.23 23.205-5.931 4.75-9.99.792-16.084-11.87-18.284l-10.01-8.466z"/>
        <path id="y" d="M155.5 66.158c0 9.388-7.611 17-17 17s-17-7.612-17-17v-36h34v36z"/>
        <path id="z" d="M125.408 47.39c.778-1.695 2.004.44 2.217 1.027.715 1.964-1.152 6.631 1.388 8.878 1.98 1.751 2.476 3.611 1.71 4.697-.792.655-3.554.581-5.446.597-3.475.028-7.655.547-4.743-3.895 3.447-5.26 4.096-9.61 4.874-11.304z"/>
        <path id="A" d="M160.5 56.658v-10a5 5 0 1 0 0 10z"/>
        <linearGradient id="B" x1="100%" x2="-6.882%" y1="17.237%" y2="92.413%">
            <stop offset="0%" stop-color="#326BEE"/>
            <stop offset="100%" stop-color="#1D4BEA"/>
        </linearGradient>
        <path id="C" d="M164.993 17.333c-1.806-.75-2.093-2.777-.863-6.08.35 1.695.687 2.708 1.013 3.04.709.72.834.61 1.76 1.014l-1.91 2.026z"/>
        <path id="D" d="M167.32 19.892c-1.805-.75-2.708-2.125-2.708-4.125.361.632.705 1.114 1.031 1.446.709.72 1.475.873 2.401 1.278l-.724 1.4z"/>
        <path id="E" d="M138.423 171.196c4.828-.324 8.661-2.456 13.501-1.081 1.777.504 6.625 1.442 7.799 2.58.245.239 2.678 1.948.602 2.244-2.075.296-3.486-2.342-3.006-1.745l2.718 2.724c.751 1.135-.13 1.404-.718 1.404-.918 0-.95-.616-.236 1 .225.509 0 .888-.227 1.046-.42.293-1.612-.11-2.025-.158-1.09-.125-2.206-2.742-1.75-1.744.069.151.616.95 1.75 1.744.37.26 2.366.81 1.548 1.686-.223.238-.583.238-1.94.238-1.358 0-5.227-.759-6.083-.73-3.188-.556-6.704-.518-8.478-1.194-3.105-1.182-7.385-.965-9.03-1.744 2.543-1.947 2.7-2.527 5.575-6.27z"/>
        <path id="F" d="M20.515 151.688c-4.518.305-8.007.026-12.408 1.095-.761.184-.761.822 0 1.575l3.124 1.856c-2.061 0-5.515-1.186-2.061 3.44.338.453-1.474-.542-1.542 0-.085.683-.085 1.625 1.193 2.79.275.25-1.186-.36-1.193 0-.009.48.48 1.187 1.16 1.81 2.104 1.928 5.247 2.61 8.094 3.115 13.919 2.47 15.587-13.74 6.342-20.211l-2.709 4.53z"/>
        <linearGradient id="G" x1="50%" x2="89.342%" y1="50%" y2="43.878%">
            <stop offset="0%" stop-color="#4A90E2" stop-opacity=".4"/>
            <stop offset="100%" stop-color="#4E6EB9"/>
        </linearGradient>
        <path id="H" d="M90.173 122.365c8.412-.168 13.73-.107 21.883-4.144-.43-.762-1.84-2.736-2.444-5.88-5.729 3.538-17.354 8.102-19.785 9.092.288.956.404 1.267.346.932z"/>
        <path id="I" d="M192 129.607c8.056.52 15.825 1.255 23.979-2.782 0-1.097.603-5.312 0-8.457-5.73 3.54-10.677 7.36-23.979 6.79v4.45z"/>
    </defs>
    <g fill="none" fill-rule="evenodd">
        <mask id="b" fill="#fff">
            <use xlink:href="#a"/>
        </mask>
        <g mask="url(#b)">
            <g fill-rule="nonzero" transform="matrix(-1 0 0 1 822 23)">
                <use fill="#FFF" xlink:href="#c"/>
                <use fill="url(#d)" xlink:href="#c"/>
            </g>
            <g fill-rule="nonzero">
                <path fill="url(#e)" d="M17.5 0h45A2.5 2.5 0 0 1 65 2.5V40H15V2.5A2.5 2.5 0 0 1 17.5 0z" transform="translate(444 225)"/>
                <path fill="url(#f)" d="M2.5 0H50v40H0V2.5A2.5 2.5 0 0 1 2.5 0z" transform="translate(444 225)"/>
                <path fill="#2FB7EC" d="M465 225h15v7.5l-2.48-1.25-2.52 1.25-2.5-1.25-2.5 1.25-2.5-1.25-2.5 1.25z"/>
                <path fill="#8BDCFB" d="M509 250h20v15h-20z"/>
                <path fill="url(#g)" d="M81.25 25H85v15h-3.75z" transform="translate(444 225)"/>
                <path fill="#2FB7EC" d="M512.75 250h10v5l-2.5-1.25-2.065 1.25-2.935-1.25-2.5 1.25z"/>
            </g>
            <g transform="translate(86 23)">
                <use fill="#FFF" xlink:href="#h"/>
                <use fill="#AFC7D1" fill-opacity=".5" xlink:href="#h"/>
            </g>
            <path fill="#7790A3" fill-opacity=".5" fill-rule="nonzero" d="M157.201 233.602h110.447v16.606H159.761a2.56 2.56 0 0 1-2.56-2.56v-14.046z"/>
            <path fill="#AFC7D1" d="M156.563 233.602h-2.554v14.052a2.554 2.554 0 0 1-2.554 2.554v-49.812a2.56 2.56 0 0 1 2.56-2.56h7.648a2.56 2.56 0 0 1 2.56 2.56v33.206h-7.66zM110.277 247.653h41.178v2.555h-41.178a1.277 1.277 0 0 1 0-2.555z"/>
            <path fill="#AFC7D1" fill-opacity=".5" d="M165.5 195.28h7.662l-8.3 38.322h-7.661z"/>
            <path fill="#CEDAE0" d="M165.5 195.28l7.251-36.266a2.554 2.554 0 0 1 2.504-2.054h89.84a2.554 2.554 0 0 1 2.553 2.555v35.766h-7.66v-30.657h-35.753v30.657h-7.66v-30.657H179.29l-6.128 30.657-8.3 38.32h-7.661l8.3-38.32z"/>
            <path fill="#7790A3" fill-opacity=".5" fill-rule="nonzero" d="M267.648 195.28v38.322h-51.074V156.96h48.514a2.56 2.56 0 0 1 2.56 2.56v35.76zm-7.66 0v-30.656h-35.753v30.657h35.752z"/>
            <path fill="#7790A3" fill-opacity=".5" d="M197.428 146.741h49.784a2.56 2.56 0 0 1 2.56 2.56v7.659h-54.904V149.3a2.56 2.56 0 0 1 2.56-2.56z"/>
            <path fill="#7790A3" fill-opacity=".5" d="M224.235 146.741h22.977a2.56 2.56 0 0 1 2.56 2.56v7.659h-25.537V146.74z"/>
            <g fill="#7790A3" fill-opacity=".4">
                <path d="M219.128 224.66h7.661v2.555h-7.66zM219.128 228.492h7.661v2.555h-7.66z"/>
            </g>
            <path fill="#7790A3" fill-opacity=".5" fill-rule="nonzero" d="M183.14 193.354l-4.404 7.63a1.277 1.277 0 0 1-2.212-1.277l4.526-7.842a2.554 2.554 0 1 1 2.09 1.489z"/>
            <g transform="translate(162.947 237.434)">
                <ellipse cx="12.768" cy="12.774" fill="#AFC7D1" rx="12.768" ry="12.774"/>
                <ellipse cx="12.768" cy="12.774" fill="#7790A3" rx="3.831" ry="3.832"/>
            </g>
            <path fill="#7790A3" fill-opacity=".5" d="M160.393 250.208c0-8.466 6.86-15.329 15.322-15.329s15.322 6.863 15.322 15.329h-2.553c0-7.055-5.717-12.774-12.769-12.774-7.052 0-12.768 5.719-12.768 12.774h-2.554z"/>
            <g transform="translate(242.111 237.434)">
                <ellipse cx="12.768" cy="12.774" fill="#AFC7D1" rx="12.768" ry="12.774"/>
                <ellipse cx="12.768" cy="12.774" fill="#7790A3" rx="3.831" ry="3.832"/>
            </g>
            <g transform="translate(239.558 234.88)">
                <use fill="#FFF" xlink:href="#i"/>
                <use fill="#7790A3" fill-opacity=".7" xlink:href="#i"/>
            </g>
            <g fill-rule="nonzero" transform="translate(116.182 182.507)">
                <rect width="30.644" height="21.715" x=".16" y="43.43" fill="#FFE557" rx="1.28"/>
                <g transform="translate(.16 43.43)">
                    <rect width="30.644" height="21.715" fill="#FFE557" rx="1.28"/>
                    <path fill="url(#j)" d="M1.28 0h19.15v21.715H1.28A1.28 1.28 0 0 1 0 20.435V1.28C0 .573.573 0 1.28 0z"/>
                    <path fill="#F0B616" d="M5.107 0h7.661v5.11l-1.267-.64-1.286.64-1.277-.64-1.277.64-1.277-.64-1.277.64z"/>
                </g>
                <g transform="translate(.16 21.715)">
                    <rect width="30.644" height="21.715" fill="#FFD560" rx="1.28"/>
                    <path fill="url(#k)" d="M1.28 0h19.15v21.715H1.28A1.28 1.28 0 0 1 0 20.435V1.28C0 .573.573 0 1.28 0z"/>
                    <path fill="#F0B616" d="M5.107 0h7.661v5.11l-1.267-.64-1.286.64-1.277-.64-1.277.64-1.277-.64-1.277.64z"/>
                </g>
                <g transform="translate(.16)">
                    <rect width="30.644" height="21.715" fill="#FFE557" rx="1.28"/>
                    <path fill="url(#l)" d="M1.28 0h19.15v21.715H1.28A1.28 1.28 0 0 1 0 20.435V1.28C0 .573.573 0 1.28 0z"/>
                    <path fill="#F0B616" d="M5.107 0h7.661v5.11l-1.267-.64-1.286.64-1.277-.64-1.277.64-1.277-.64-1.277.64z"/>
                </g>
            </g>
            <path fill="#CEDAE0" fill-rule="nonzero" d="M180.823 233.602h-15.96l8.299-38.321h7.66z"/>
            <g>
                <path fill="#AFC7D1" d="M215.298 136.74c1.057 0 1.915.858 1.915 1.916v8.304h-3.83v-8.304c0-1.058.857-1.915 1.915-1.915z"/>
                <path fill="#7790A3" d="M234.45 136.74c1.058 0 1.916.858 1.916 1.916v8.304h-3.831v-8.304c0-1.058.857-1.915 1.915-1.915z"/>
            </g>
            <g transform="translate(206.998 108)">
                <mask id="n" fill="#fff">
                    <use xlink:href="#m"/>
                </mask>
                <use fill="#326BEE" xlink:href="#m"/>
                <path fill="#C3D4FA" d="M17.654-5.34l14.33-.023-5.05 13.506-5.067.008z" mask="url(#n)" transform="rotate(45 24.82 1.394)"/>
                <path stroke="#1D4BEA" stroke-linecap="round" stroke-linejoin="round" stroke-width="1.792" d="M13.469 18.39l6.279-12.518M5.395 18.39L19.748 5.873M19.748 5.872l3.588 14.307M19.748 5.872l10.764 16.095" mask="url(#n)"/>
                <path fill="#5685F1" d="M10.778 16.602l19.959 4.974a1.789 1.789 0 0 1 1.34 1.988l-1.3 9.072a1.793 1.793 0 0 1-2.106 1.505L3.535 29.443a1.789 1.789 0 0 1-1.439-2.051l1.312-7.845a1.79 1.79 0 0 1 1.334-1.44l6.036-1.505z" mask="url(#n)"/>
                <path fill="#FFF" d="M25.428 24.542a.605.605 0 0 0-.582.5l-.287 2.051a.937.937 0 0 1-.327.582.925.925 0 0 1-.628.247.7.7 0 0 1-.71-.827l.173-1.245a.429.429 0 0 0-.445-.442h-.684a.608.608 0 0 0-.57.443l-.178 1.244a.929.929 0 0 1-.327.587.92.92 0 0 1-.618.242.699.699 0 0 1-.553-.246.697.697 0 0 1-.167-.582l.385-2.72a.638.638 0 0 0-.362-.654l-3.071-1.257c-.19-.077-.406.095-.48.382l-.177.685a.635.635 0 0 0 .37.723l1.932.786-.291 2.056c-.098.69.066 1.28.492 1.769.426.489.988.733 1.686.733.644 0 1.232-.214 1.764-.642.425.427.957.64 1.594.64.698 0 1.33-.246 1.893-.736.565-.49.896-1.08.993-1.769l.31-2.207c.026-.19-.182-.344-.463-.344h-.672z" mask="url(#n)" transform="rotate(11 21.184 26.023)"/>
                <ellipse cx="19.288" cy="6.319" fill="#C3D4FA" fill-rule="nonzero" mask="url(#n)" rx="3.128" ry="3.13"/>
                <ellipse cx="19.217" cy="6.319" fill="#1D4BEA" fill-rule="nonzero" mask="url(#n)" rx="1.341" ry="1.341"/>
                <path fill="none" d="M10.064 16.662h1.794L11.85 29.18h-1.794z" mask="url(#n)" transform="rotate(10 10.957 22.922)"/>
                <path fill="#C3D4FA" fill-rule="nonzero" d="M10.753 19.644l-1.311 7.842a1.79 1.79 0 0 1-1.335 1.44l-6.035 1.505 1.896-13.829 5.343.99a1.789 1.789 0 0 1 1.442 2.052z" mask="url(#n)" transform="rotate(180 6.425 23.517)"/>
            </g>
            <g transform="translate(455 23)">
                <g fill-rule="nonzero">
                    <use fill="#FFF" xlink:href="#o"/>
                    <use fill="#CEF2FD" xlink:href="#o"/>
                </g>
                <path fill="#FFF" fill-rule="nonzero" d="M10 108h54v36H10z"/>
                <path fill="#CEF2FD" d="M26 116v10h10c0 5.523-4.477 10-10 10s-10-4.477-10-10 4.477-10 10-10z"/>
                <path fill="#8BDCFB" d="M26 116c5.523 0 10 4.477 10 10H26v-10z"/>
                <g fill="#AFC7D1" fill-opacity=".4" fill-rule="nonzero">
                    <path d="M41 120h16a1 1 0 0 1 0 2H41a1 1 0 1 1 0-2zM41 125h16a1 1 0 0 1 0 2H41a1 1 0 1 1 0-2zM41 130h16a1 1 0 0 1 0 2H41a1 1 0 0 1 0-2z"/>
                </g>
                <path fill="#FFF" fill-rule="nonzero" d="M10 20h54v36H10z"/>
                <path fill="#E6F7FF" d="M10 48.067l5.034-3.175H22l7-4.095 5.667-4.35L64 27v29H10z"/>
                <path fill="#FFF" d="M56 53H41.778l3.252-9.9h7.717z"/>
                <g fill-rule="nonzero" transform="translate(40.889 17)">
                    <path fill="#E14D4C" d="M12.444 17.1L16 21.679V26.1l-3.556-2.7v-6.3zm-8.888 0L0 21.679V26.1l3.556-2.7v-6.3z"/>
                    <path fill="#EEF2F5" d="M13.33 8.1c1.153 2.914.908 8.374-.736 16.381a.9.9 0 0 1-.881.719H4.287a.9.9 0 0 1-.881-.719c-1.644-8.007-1.89-13.467-.74-16.381H13.33z"/>
                    <path fill="#E14D4C" d="M4.444 25.2l-.888 2.7h8.888l-.888-2.7z"/>
                    <ellipse cx="8" cy="12.6" fill="#8BDCFB" stroke="#2FB7EC" stroke-width=".9" rx="2.217" ry="2.25"/>
                    <path fill="#E14D4C" d="M8 0C6.225 0 3.556 6.299 2.667 8.1h10.666C12.444 6.299 9.778 0 8 0z"/>
                </g>
                <path fill="#8BDCFB" fill-rule="nonzero" d="M64 53.3V56H32.238a1.809 1.809 0 0 1-.238-.9c0-.994.796-1.8 1.778-1.8.324 0 .627.088.889.24.005-2.977 2.39-5.39 5.333-5.39 2.2 0 4.088 1.348 4.904 3.273a14.065 14.065 0 0 1 3.985-.573c1.383 0 2.72.2 3.985.573.816-1.925 2.704-3.273 4.904-3.273 2.942 0 5.328 2.413 5.333 5.39.262-.152.565-.24.889-.24z"/>
                <circle cx="15" cy="45" r="1" fill="#8BDCFB"/>
                <circle cx="22" cy="45" r="1" fill="#8BDCFB"/>
                <circle cx="29" cy="41" r="1" fill="#8BDCFB"/>
                <circle cx="35" cy="37" r="1" fill="#8BDCFB"/>
                <g>
                    <path fill="#FFF" fill-rule="nonzero" d="M10 64h54v36H10z"/>
                    <path fill="#E6F7FF" d="M11.202 100c14.189-.875 25.7-3.86 32.702-12.747 7.002-8.888 15.313-7.254 20.096-7.254V100H11.202z"/>
                    <path fill="#8BDCFB" fill-rule="nonzero" d="M10 99.987c.658 0 2.509.002 3.67.008 6.873.032 9.793-.077 13.368-.7 4.752-.829 8.707-2.52 12.184-5.414.485-.404.946-.821 1.39-1.254a27.285 27.285 0 0 0 2.272-2.536c.292-.366.58-.738.939-1.213l.872-1.156C48.574 82.628 53.37 81 64 81V79c-11.602 0-17.25 2.029-21.585 7.722l-.876 1.16c-.35.464-.627.823-.907 1.172a25.251 25.251 0 0 1-2.102 2.347c-.4.392-.817.769-1.254 1.133-5.586 4.649-10.604 5.524-23.589 5.462A991.273 991.273 0 0 0 10 97.99v1.998z"/>
                </g>
                <path fill="#8BDCFB" fill-opacity=".8" d="M4 0h66a4 4 0 0 1 4 4v6H0V4a4 4 0 0 1 4-4z"/>
                <circle cx="16" cy="5" r="2" fill="#2FB7EC"/>
                <circle cx="8" cy="5" r="2" fill="#2FB7EC"/>
                <circle cx="11" cy="5" r="2" fill="#2FB7EC"/>
            </g>
            <g>
                <path fill="#4A90E2" fill-rule="nonzero" d="M378.737 264.312c-11.272-6.879-23.237-14.672-23.237-26.154 0-10.53 13.546-6.19 23.237-13 9.37-6.586 14.645-24.5 28.763-24.5 28.719 0 52 16.789 52 37.5 0 6.687-3.29 31.14-12.832 33.5-9.543 2.359-15.493 5.927-26.654 11.732-11.162 5.805-23.101 14.377-28.043 20.582-6.956 8.733-7.921 34.082-10.77 48.719-6.148 3.81-12.344 4.3-18.589 1.467-4.49-31.078-5.027-51.792-1.611-62.142 3.006-9.108 11.003-17.157 16.698-22.886 1.092-1.098 2.08-2.292 3.047-3.504-1.235-.781-1.962-1.285-2.01-1.314z"/>
                <path fill="#3FAA7D" fill-rule="nonzero" d="M362.43 353.49c-1.866 7.657-10.416 20.992-9.433 25.622.982 4.63 2.364 4.658 6.281 4.253 9.43-.974 12.2-14.303 19.207-18.153 2.21-1.214 4.682-3.65 5.355-6.814.355-1.662-.39-7.318-1.94-8.013-2.277-1.022-5.15 2.012-7.622 2.362-3.264.463-6.583.387-9.875.58l-1.973.164z"/>
                <path fill="url(#p)" fill-rule="nonzero" d="M133.19 297.33c-1.078 2.85-6.805 5.433-11.127 3.515-1.964-.87-6.558-3.253-7.3-5.69 4.53-1.67 12.327-3.594 15.062.387l3.365 1.787z" transform="matrix(-1 0 0 1 495.952 57)"/>
                <path fill="#3FAA7D" fill-rule="nonzero" d="M328.26 322.243c1.11 2.366-1.988 4.493-2.014 9.548-.06 11.223-.855 22.166-9.982 24.374-1.387.335-3.071-1.557-3.756-2.776-6.608-11.762-.839-17.102-4.08-29.231a80.022 80.022 0 0 0 2.528-1.78c4.661-3.464 8.464-5.369 11.41-5.714 1.431-.168 4.785 3.212 5.894 5.579z"/>
                <path fill="url(#q)" fill-rule="nonzero" d="M59.951 266.556c.374 1.17 2.192 3.876 4.024 6.129 1.803.381 4.089 1.135 5.874-.55 1.046-1.771 2.391-4.096 3.264-5.83-7.883 1.233-13.162.251-13.162.251z" transform="matrix(-1 0 0 1 381.064 57)"/>
                <path fill="url(#r)" fill-rule="nonzero" d="M140.5 71.977C112.653 83.473 95.017 87.833 92 118.123c9.182 7.125 17.348 9.647 24.5 7.568v38.467c-13.333-7.58-20-8.58-20-3 0 8.369.523 7 0 15s19.648 20.525 61.365 12c15.328-3.133 33.685-1.502 33.304-17-5.56-18 5.331-45.467 5.331-49.791a81.067 81.067 0 0 0 20-9.21c-4.04-12.723-8.164-20.817-12.374-24.282-6.339-5.218-12.511-9.124-18.517-11.717-6.39-2.76-21.427-4.154-45.109-4.18z" transform="matrix(-1 0 0 1 556.5 57)"/>
                <path fill="url(#s)" fill-rule="nonzero" d="M186.25 125.158c2.767-.667 4.683-1 5.75-1 0 1.746-1.033 8-2.142 13-.739 3.333-1.941 5.878-3.608 7.636v-19.636z" transform="matrix(-1 0 0 1 626.25 57)"/>
                <g fill="#FFF" transform="matrix(-1 0 0 1 425.106 57)">
                    <use xlink:href="#t"/>
                    <use xlink:href="#t"/>
                </g>
                <g fill-rule="nonzero">
                    <path fill="#8BDCFB" d="M424 233.658l-90.25-19-46.842 30.038 97.85 19.962z"/>
                    <path fill="#2FB7EC" d="M383.229 233.704l-2.114 1.67a.5.5 0 0 0 .207.882l2.986.628a2 2 0 0 0 1.652-.387l2.114-1.67a.5.5 0 0 0-.207-.882l-2.986-.628a2 2 0 0 0-1.652.387zm-2.388-1.238l-56.36-11.865-37.573 24.095 77.609 15.832 15.797-12.479a.5.5 0 0 0-.207-.882l-3.048-.641a2 2 0 0 0-1.652.387l-15.89 12.553-2-.5 16.546-13.071-4.947-1.042-16.6 13.113-2-.5 16.52-13.05-55.296-11.642 1.742-1.116 55.037 11.586 2.52-1.99a.5.5 0 0 0-.207-.881l-55.092-11.599 1.742-1.116 55.877 11.763 2.52-1.99a.5.5 0 0 0-.207-.882l-46.432-9.775 1.742-1.116 46.3 9.747a2 2 0 0 0 1.652-.388l2.113-1.67a.5.5 0 0 0-.206-.88zm-9.198 11.436l2.986.629a2 2 0 0 0 1.652-.388l1.784-1.41a.5.5 0 0 0-.207-.881l-2.986-.629a2 2 0 0 0-1.652.388l-1.784 1.41a.5.5 0 0 0 .207.881zm4.84-3.823l2.986.628a2 2 0 0 0 1.652-.387l1.784-1.41a.5.5 0 0 0-.207-.881l-2.986-.63a2 2 0 0 0-1.652.389l-1.784 1.41a.5.5 0 0 0 .207.88zm14.324-5.33l-2.665 2.104a.5.5 0 0 0 .207.882l3.048.642a2 2 0 0 0 1.652-.388l2.113-1.67a.5.5 0 0 0-.207-.881l-3.736-.787a.5.5 0 0 0-.412.097zm-5.72 4.518l-1.785 1.41a.5.5 0 0 0 .207.881l3.048.642a2 2 0 0 0 1.652-.388l1.784-1.41a.5.5 0 0 0-.206-.881l-3.049-.642a2 2 0 0 0-1.652.388zm-4.84 3.823l-1.785 1.41a.5.5 0 0 0 .207.881l3.049.642a2 2 0 0 0 1.651-.388l1.785-1.41a.5.5 0 0 0-.207-.88l-3.049-.643a2 2 0 0 0-1.651.388z"/>
                    <path fill="#8BDCFB" d="M340.017 259.466l31.483-24.87-2.079-.438-31.404 24.808z"/>
                    <path fill="url(#u)" d="M78.5 22l98-20L138 63.087l-98 20z" transform="matrix(-1 0 0 1 425 181.658)"/>
                    <path fill="#0098D3" d="M384.758 264.684l-94.892-19.358c-1.707-.474-2.663-.646-2.866-.516v.78a2 2 0 0 0 1.6 1.959l94.337 19.263a4 4 0 0 0 3.28-.78L424 236.184c.69-.684.69-1.518 0-2.5l-39.242 31z"/>
                    <path fill="#FFF" d="M252.242 184.421l94.258 19.237 36.758 58.323 1.654 2.609 2.2-1.768-37.701-59.722a4 4 0 0 0-2.583-1.784L250.5 181.658c-.758.01-1.313.19-1.665.538-.352.348-.464.827-.335 1.438l3.742.787z"/>
                </g>
                <path fill="url(#v)" fill-rule="nonzero" d="M146.749 181.204c5.226-.687 8.775-1.867 10.281-1.867 3.276.772 7.077 2.903 17.56 1.064 1.272-.528 1.362-3.53 0-3.737-9.365-1.425-18.959-.684-28.419-.183-1.805.096-4.555-1.789-4.814 0 1.19 1.72 4.301 3.853 5.392 4.723z" transform="matrix(-1 0 0 1 564.935 57)"/>
                <g fill="#FFF" transform="matrix(-1 0 0 1 619.508 57)">
                    <use xlink:href="#w"/>
                    <use xlink:href="#w"/>
                </g>
                <g transform="matrix(-1 0 0 1 549.747 57)">
                    <use fill="#FFF" xlink:href="#x"/>
                    <use fill="#FFF" xlink:href="#x"/>
                    <use fill="#E6F7FF" xlink:href="#x"/>
                </g>
                <g fill="#FFF" transform="matrix(-1 0 0 1 525 57)">
                    <use xlink:href="#y"/>
                    <use xlink:href="#y"/>
                </g>
                <g transform="translate(248 57)">
                    <use fill="#FFF" xlink:href="#z"/>
                    <use fill="#FFF" xlink:href="#z"/>
                    <use fill="#AFC7D1" fill-opacity=".4" xlink:href="#z"/>
                </g>
                <path fill="#1D4BEA" fill-rule="nonzero" d="M413.961 97.954c-7.647 8.923 1.534 20.048-10.461 22.068v-19.017l10.461-3.051z"/>
                <g transform="matrix(-1 0 0 1 564 57)">
                    <use fill="#FFF" xlink:href="#A"/>
                    <use fill="#FFF" xlink:href="#A"/>
                    <use fill="#AFC7D1" fill-opacity=".4" xlink:href="#A"/>
                </g>
                <path fill="url(#B)" fill-rule="nonzero" d="M169.913 22.16c.165.21.325.436.48.678 3.454 5.402 1.682 10.509-5.316 15.32 0-4.476-.603-8.476-5.054-7.113-3.573 1.668-7.81 2.777-12.398 3.118-1.554 4.791-6.907 6.79-12.268 4.791-5.36-1.999-3.264 3.995-4.28 7.698-9.205-.26-19.183-9.866-16-20.994 1.44-5.03 3.651-5.61 7.612-10 2.75-12.904 10.459-16.5 20.086-15.5 14.52 1.508 28.302 7.61 28.302 17 0 1.736-.407 3.417-1.164 5.002z" transform="matrix(-1 0 0 1 534.577 57)"/>
                <path fill="#152934" fill-opacity=".5" fill-rule="nonzero" d="M374.159 87.918c-4.103-2.381-5.52-3.444-5.532-2.807-.013.659 1.214 3.195 2.303 3.463.486-.411.995-.665 1.527-.762.274-.05.841-.015 1.702.106zM386.976 91.097c-1.241-4.57-4.995-3.395-5.008-2.758-.013.66.604 2.139 1.692 2.407.78.12 1.359.199 1.735.238.36.039.888.076 1.58.113z"/>
                <g transform="matrix(-1 0 0 1 578.286 57)">
                    <use fill="#FFF" xlink:href="#C"/>
                    <use fill="#1D4BEA" xlink:href="#C"/>
                </g>
                <g transform="rotate(135 278.523 97.692)">
                    <use fill="#FFF" xlink:href="#D"/>
                    <use fill="#1D4BEA" xlink:href="#D"/>
                </g>
                <path fill="#152934" fill-opacity=".5" fill-rule="nonzero" d="M402.486 96.219c.948.052 3.768-.702 5.55-1.078 1.782-.376 3.029-.376 2.528.64-1.953 3.952-6.055 4.934-7.364 4.934-.204-1.557.011-2.295-.273-3.293-.189-.666-.336-1.067-.441-1.203z"/>
                <g fill="#FFF" transform="matrix(-1 0 0 1 542.006 57)">
                    <use xlink:href="#E"/>
                    <use xlink:href="#E"/>
                </g>
                <g transform="matrix(-1 0 0 1 284.536 57)">
                    <use fill="#FFF" xlink:href="#F"/>
                    <use fill="#FFF" xlink:href="#F"/>
                    <use fill="#E6F7FF" fill-opacity=".5" xlink:href="#F"/>
                </g>
                <path fill="#4A90E2" fill-rule="nonzero" d="M375.808 265.22c-7.971 3.83-13.621 5.255-26.092 6.577-10.34 1.096-16.401 2.99-18.605 5.866-5.698 5.936-5.698 41.192-10.07 46.075-3.635 2.482-8.935 2.482-13.446 0-5.4-26.049-8.929-39.301-8.929-51.94 0-12.64 3.142-17.96 11.525-21.086.475-.177 22.347 4.66 65.617 14.508z"/>
                <path fill="url(#G)" fill-rule="nonzero" d="M127.77 195.628c-13.118 4.608-25.04 19.355-26.18 19.578-5.459-.793-14.27-1.357-21.344-3.623-2.637-.845-7.688-2.776-8.426-3.424 10.66-3.022 55.95-12.531 55.95-12.531z" transform="matrix(-1 0 0 1 447.59 57)"/>
                <path fill="#F0B616" fill-rule="nonzero" d="M389.5 183.034c-6.444 0-12.612.668-21.521-3.376 1.237 7.89 2.384 13.282 3.44 16.175 3.06 1.673 8.814 4.614 16.029 3.325.714-4 1.398-9.375 2.052-16.124z"/>
                <g transform="matrix(-1 0 0 1 449.883 57)">
                    <use fill="#FFF" xlink:href="#H"/>
                    <use fill="#FFF" xlink:href="#H"/>
                    <use fill="#AFC7D1" fill-opacity=".4" xlink:href="#H"/>
                </g>
                <g transform="translate(248 57)">
                    <use fill="#FFF" xlink:href="#I"/>
                    <use fill="#FFF" xlink:href="#I"/>
                    <use fill="#AFC7D1" fill-opacity=".4" xlink:href="#I"/>
                </g>
            </g>
        </g>
    </g>
</svg>
