<svg width="240" height="64" viewBox="0 0 240 64" fill="none" xmlns="http://www.w3.org/2000/svg">
<path d="M132.554 49.2199C133.467 49.2199 134.336 48.9669 134.963 48.5159V47.1409C134.435 47.5479 133.643 47.8779 132.763 47.8779C131.047 47.8779 129.98 46.7119 129.98 45.1279C129.98 43.5549 131.047 42.4109 132.752 42.4109C133.698 42.4109 134.413 42.7629 134.941 43.1699V41.7399C134.424 41.3989 133.599 41.0799 132.554 41.0799C130.123 41.0799 128.484 42.7849 128.484 45.1829C128.484 47.4379 129.969 49.2199 132.554 49.2199Z" fill="white"/>
<path d="M140.769 49.2199C143.079 49.2199 144.696 47.5039 144.696 45.1499C144.696 42.8069 143.079 41.0799 140.769 41.0799C138.47 41.0799 136.842 42.8069 136.842 45.1499C136.842 47.5039 138.47 49.2199 140.769 49.2199ZM140.769 47.8669C139.273 47.8669 138.338 46.7119 138.338 45.1609C138.338 43.6099 139.262 42.4329 140.769 42.4329C142.276 42.4329 143.211 43.6099 143.211 45.1609C143.211 46.7119 142.276 47.8669 140.769 47.8669Z" fill="white"/>
<path d="M155.286 41.2999H153.185L151.359 47.2509L149.599 41.2999H147.421L146.926 48.9999H148.257L148.642 42.5869L150.534 48.9999H152.096L154.01 42.6529L154.483 48.9999H155.902L155.286 41.2999Z" fill="white"/>
<path d="M166.706 41.2999H164.605L162.779 47.2509L161.019 41.2999H158.841L158.346 48.9999H159.677L160.062 42.5869L161.954 48.9999H163.516L165.43 42.6529L165.903 48.9999H167.322L166.706 41.2999Z" fill="white"/>
<path d="M171.416 45.5569H174.716V44.3909H171.416V42.5429H174.947V41.2999H169.986V48.9999H174.991V47.7569H171.416V45.5569Z" fill="white"/>
<path d="M180.816 45.7989C182.345 45.7549 183.214 44.8639 183.214 43.5769C183.214 42.2239 182.246 41.2999 180.717 41.2999H177.549V48.9999H178.979V45.5239L181.652 48.9999H183.412L180.816 45.7989ZM180.431 42.5319C181.267 42.5319 181.718 42.9609 181.718 43.6869C181.718 44.4349 181.234 44.8859 180.277 44.8859H178.979V42.5319H180.431Z" fill="white"/>
<path d="M189.268 49.2199C190.181 49.2199 191.05 48.9669 191.677 48.5159V47.1409C191.149 47.5479 190.357 47.8779 189.477 47.8779C187.761 47.8779 186.694 46.7119 186.694 45.1279C186.694 43.5549 187.761 42.4109 189.466 42.4109C190.412 42.4109 191.127 42.7629 191.655 43.1699V41.7399C191.138 41.3989 190.313 41.0799 189.268 41.0799C186.837 41.0799 185.198 42.7849 185.198 45.1829C185.198 47.4379 186.683 49.2199 189.268 49.2199Z" fill="white"/>
<path d="M195.556 48.9999V41.2999H194.126V48.9999H195.556Z" fill="white"/>
<path d="M204.758 48.9999L202.217 41.2999H200.271L197.752 48.9999H199.215L199.786 47.1739H202.69L203.262 48.9999H204.758ZM201.228 42.5429L202.327 46.0519H200.128L201.228 42.5429Z" fill="white"/>
<path d="M212.213 47.2619L208.913 41.2999H206.944V48.9999H208.286V42.8289L211.74 48.9999H213.544V41.2999H212.213V47.2619Z" fill="white"/>
<path d="M221.576 41.2999H215.691V42.6089H217.902V48.9999H219.321V42.6089H221.576V41.2999Z" fill="white"/>
<path d="M225.144 48.9999V41.2999H223.714V48.9999H225.144Z" fill="white"/>
<path d="M90.3325 40.1511C89.9116 35.4463 85.885 34.6448 81.9533 33.3426C78.3998 32.1652 75.0627 32.059 74.7031 29.5384C74.3216 26.8633 76.9739 25.2432 79.7525 25.7301C82.766 26.2581 83.3398 28.5541 82.6437 30.0422C84.0342 31.7483 87.4879 31.56 88.5485 30.377C89.4232 29.4024 89.7177 27.7912 87.8854 26.2621C85.638 24.3861 81.0295 23.4912 76.6198 24.3113C72.2801 25.1161 68.8441 27.6254 69.2328 31.8087C69.6512 36.3091 72.8861 37.6161 78.0103 38.9713C82.9688 40.2847 84.5951 41.6537 84.2708 43.9401C83.9811 45.9794 82.2325 47.651 78.4907 47.2228C74.7489 46.7947 72.7847 43.9554 73.5483 40.7523C69.2899 39.7825 67.4496 43.9401 70.9991 46.686C74.4142 49.329 81.1204 49.5559 84.8984 48.1258C88.2797 46.8462 90.7212 44.5059 90.3325 40.1511Z" fill="white"/>
<path d="M60.9629 22.3516C63.2764 22.3516 65.1521 20.7058 65.1521 18.6762C65.1521 16.6465 63.2764 14.9999 60.9629 14.9999C58.6495 14.9999 56.7729 16.6457 56.7729 18.6762C56.7729 20.7066 58.6487 22.3516 60.9629 22.3516Z" fill="white"/>
<path d="M64.2686 24.3628C63.2276 24.8218 62.1023 25.0589 60.9646 25.0589C59.8269 25.0589 58.7016 24.8218 57.6605 24.3628L57.6525 48.6296H64.2735L64.2686 24.3628Z" fill="white"/>
<path d="M107.998 23.6377C105.609 23.6377 103.352 24.3725 101.574 25.7044V15.7299H94.784V48.6264H101.549V33.3869C101.549 29.5167 102.149 27.6834 104.117 26.2195C105.904 24.89 108.424 25.1266 109.795 26.0786C111.454 27.2303 111.379 29.9811 111.379 32.1781V48.6296H118V32.0735C118 26.1712 113.955 23.6377 107.998 23.6377Z" fill="white"/>
<path d="M45.4043 48.6296H38.7866L33.5818 33.617L29.9084 48.6296H23.2883L15 24.3644H21.7964L28.8149 45.3573C31.3255 38.3202 32.8995 31.7668 30.4613 24.3644H37.0798L45.4043 48.6296Z" fill="white"/>
<path d="M48.5909 23.603C47.0266 26.3023 45.3368 28.2877 43.0692 30.2723C45.3432 32.6649 47.4217 35.9911 48.5909 39.1604C49.7626 35.9911 51.8387 32.6649 54.1135 30.2723C51.8443 28.2877 50.1544 26.3023 48.5909 23.603Z" fill="white"/>
</svg>
