<svg width="181" height="64" viewBox="0 0 181 64" fill="none" xmlns="http://www.w3.org/2000/svg">
<path d="M131.315 38.3809H132.875V42.0469C132.355 42.0729 131.822 42.0989 131.315 42.1119V38.3809ZM135.722 41.8259C135.228 41.8909 134.708 41.9299 134.175 41.9689V38.3809H135.241V37.2889H128.962V38.3809H130.028V42.1249C129.547 42.1379 129.079 42.1379 128.65 42.1379L128.793 43.2429C130.795 43.2429 133.486 43.1779 135.813 42.8009L135.722 41.8259ZM131.744 44.1009H130.392V47.7799H138.296V46.6879H131.744V44.1009ZM137.828 39.7329V36.2619H136.489V44.9069H137.828V40.8379H139.492V39.7329H137.828Z" fill="white"/>
<path d="M143.26 38.6149H145.288V43.8799H143.26V38.6149ZM142.012 44.9459H146.536V37.5489H142.012V44.9459ZM150.371 36.2619V40.8379H149.032V36.4829H147.771V47.4419H149.032V41.9299H150.371V47.9879H151.645V36.2619H150.371Z" fill="white"/>
<path d="M158.689 38.5369H161.172V37.4319H154.789V38.5369H157.35V39.6679C157.35 41.6179 156.154 43.8409 154.36 44.6989L155.127 45.7649C156.479 45.1019 157.519 43.6979 158.039 42.0599C158.572 43.5419 159.573 44.8419 160.886 45.4659L161.627 44.4129C159.846 43.5679 158.689 41.4879 158.689 39.6679V38.5369ZM165.501 40.8899H163.668V36.2619H162.329V48.0009H163.668V41.9949H165.501V40.8899Z" fill="white"/>
<path d="M90.3325 40.1511C89.9116 35.4463 85.885 34.6448 81.9533 33.3426C78.3998 32.1652 75.0627 32.059 74.7031 29.5384C74.3216 26.8633 76.9739 25.2432 79.7525 25.7301C82.766 26.2581 83.3398 28.5541 82.6437 30.0422C84.0342 31.7483 87.4879 31.56 88.5485 30.377C89.4232 29.4024 89.7177 27.7912 87.8854 26.2621C85.638 24.3861 81.0295 23.4912 76.6198 24.3113C72.2801 25.1161 68.8441 27.6254 69.2328 31.8087C69.6512 36.3091 72.8861 37.6161 78.0103 38.9713C82.9688 40.2847 84.5951 41.6537 84.2708 43.9401C83.9811 45.9794 82.2325 47.651 78.4907 47.2228C74.7489 46.7947 72.7847 43.9554 73.5483 40.7523C69.2899 39.7825 67.4496 43.9401 70.9991 46.686C74.4142 49.329 81.1204 49.5559 84.8984 48.1258C88.2797 46.8462 90.7212 44.5059 90.3325 40.1511Z" fill="white"/>
<path d="M60.963 22.3516C63.2764 22.3516 65.1522 20.7058 65.1522 18.6762C65.1522 16.6465 63.2764 14.9999 60.963 14.9999C58.6495 14.9999 56.7729 16.6457 56.7729 18.6762C56.7729 20.7066 58.6487 22.3516 60.963 22.3516Z" fill="white"/>
<path d="M64.2686 24.3628C63.2276 24.8218 62.1023 25.0589 60.9646 25.0589C59.8269 25.0589 58.7016 24.8218 57.6605 24.3628L57.6525 48.6296H64.2735L64.2686 24.3628Z" fill="white"/>
<path d="M107.998 23.6377C105.609 23.6377 103.352 24.3725 101.574 25.7044V15.7299H94.784V48.6264H101.549V33.3869C101.549 29.5167 102.149 27.6834 104.117 26.2195C105.904 24.89 108.424 25.1266 109.795 26.0786C111.454 27.2303 111.379 29.9811 111.379 32.1781V48.6296H118V32.0735C118 26.1712 113.955 23.6377 107.998 23.6377Z" fill="white"/>
<path d="M45.4043 48.6296H38.7866L33.5818 33.617L29.9084 48.6296H23.2883L15 24.3644H21.7964L28.8149 45.3573C31.3255 38.3202 32.8995 31.7668 30.4613 24.3644H37.0798L45.4043 48.6296Z" fill="white"/>
<path d="M48.5909 23.603C47.0266 26.3023 45.3368 28.2877 43.0692 30.2723C45.3432 32.6649 47.4217 35.9911 48.5909 39.1604C49.7625 35.9911 51.8386 32.6649 54.1135 30.2723C51.8443 28.2877 50.1544 26.3023 48.5909 23.603Z" fill="white"/>
</svg>
