<svg width="202" height="64" viewBox="0 0 202 64" fill="none" xmlns="http://www.w3.org/2000/svg">
<path d="M131.614 38.4719C131.627 37.7569 131.627 37.0159 131.627 36.2749H130.431C130.431 37.0289 130.431 37.7569 130.418 38.4719H128.741V39.6549H130.392C130.301 42.8009 129.937 45.4789 128.403 47.1689C128.689 47.3509 129.105 47.7539 129.3 48.0269C131.016 46.1289 131.458 43.1259 131.575 39.6549H133.265C133.161 44.3349 133.057 46.0379 132.784 46.3889C132.667 46.5839 132.55 46.6099 132.342 46.6099C132.121 46.6099 131.601 46.5969 131.029 46.5709C131.237 46.8959 131.367 47.4159 131.38 47.7799C131.978 47.8059 132.55 47.8059 132.914 47.7539C133.33 47.6889 133.577 47.5589 133.837 47.1819C134.24 46.5969 134.331 44.6729 134.435 39.0569C134.448 38.9009 134.448 38.4719 134.448 38.4719H131.614ZM136.515 45.7129V38.8099H138.647V45.7129H136.515ZM135.358 37.6399V47.8059H136.515V46.8699H138.647V47.7019H139.869V37.6399H135.358Z" fill="white"/>
<path d="M152.439 37.4449V38.4199H149.761V37.4449H152.439ZM149.696 40.2659C149.735 39.9279 149.761 39.5899 149.761 39.2779H152.439V40.2659H149.696ZM152.439 41.1369V42.0209C152.439 42.1899 152.374 42.2419 152.192 42.2419C152.023 42.2419 151.438 42.2549 150.814 42.2289C150.983 42.5019 151.191 42.9309 151.256 43.2429C152.101 43.2429 152.712 43.2169 153.115 43.0479C153.505 42.8789 153.635 42.5929 153.635 42.0209V36.4829H148.656V39.1219C148.656 40.2659 148.513 41.6569 147.239 42.6189C147.486 42.7749 147.915 43.1779 148.084 43.4119C148.877 42.8009 149.306 41.9689 149.527 41.1369H152.439ZM146.42 37.6399V38.8229H144.392V37.6399H146.42ZM144.392 40.9289V39.7459H146.42V40.9289H144.392ZM144.392 41.8779H147.512V36.6909H143.287V42.5539H144.392V41.8779ZM145.198 44.5299H146.654V46.6099H145.198V44.5299ZM149.228 44.5299V46.6099H147.759V44.5299H149.228ZM151.815 44.5299V46.6099H150.333V44.5299H151.815ZM152.985 46.6099V43.5809H144.067V46.6099H142.559V47.6629H154.415V46.6099H152.985Z" fill="white"/>
<path d="M166.127 46.4669H160.953V44.2829H166.127V46.4669ZM163.969 39.0829H162.747V43.2169H159.77V48.0269H160.953V47.5459H166.127V48.0139H167.362V43.2169H163.969V41.5529H168.181V40.4739H163.969V39.0829ZM163.514 37.6789V36.0929H162.253V37.6789H157.573V40.9809C157.573 42.8399 157.482 45.4789 156.429 47.3249C156.702 47.4549 157.235 47.8189 157.456 48.0139C158.587 46.0249 158.782 43.0089 158.782 40.9809V38.8489H168.363V37.6789H163.514Z" fill="white"/>
<path d="M90.3325 40.1511C89.9116 35.4463 85.885 34.6448 81.9533 33.3426C78.3998 32.1652 75.0627 32.059 74.7031 29.5384C74.3216 26.8633 76.9739 25.2432 79.7525 25.7301C82.766 26.2581 83.3398 28.5541 82.6437 30.0422C84.0342 31.7483 87.4879 31.56 88.5485 30.377C89.4232 29.4024 89.7177 27.7912 87.8854 26.2621C85.638 24.3861 81.0295 23.4912 76.6198 24.3113C72.2801 25.1161 68.8441 27.6254 69.2328 31.8087C69.6512 36.3091 72.8861 37.6161 78.0103 38.9713C82.9688 40.2847 84.5951 41.6537 84.2708 43.9401C83.9811 45.9794 82.2325 47.651 78.4907 47.2228C74.7489 46.7947 72.7847 43.9554 73.5483 40.7523C69.2899 39.7825 67.4496 43.9401 70.9991 46.686C74.4142 49.329 81.1204 49.5559 84.8984 48.1258C88.2797 46.8462 90.7212 44.5059 90.3325 40.1511Z" fill="white"/>
<path d="M60.9629 22.3516C63.2764 22.3516 65.1521 20.7058 65.1521 18.6762C65.1521 16.6465 63.2764 14.9999 60.9629 14.9999C58.6495 14.9999 56.7729 16.6457 56.7729 18.6762C56.7729 20.7066 58.6487 22.3516 60.9629 22.3516Z" fill="white"/>
<path d="M64.2686 24.3628C63.2276 24.8218 62.1023 25.0589 60.9646 25.0589C59.8269 25.0589 58.7016 24.8218 57.6606 24.3628L57.6525 48.6296H64.2735L64.2686 24.3628Z" fill="white"/>
<path d="M107.998 23.6377C105.609 23.6377 103.352 24.3725 101.574 25.7044V15.7299H94.784V48.6264H101.549V33.3869C101.549 29.5167 102.149 27.6834 104.117 26.2195C105.904 24.89 108.424 25.1266 109.795 26.0786C111.454 27.2303 111.379 29.9811 111.379 32.1781V48.6296H118V32.0735C118 26.1712 113.955 23.6377 107.998 23.6377Z" fill="white"/>
<path d="M45.4043 48.6296H38.7866L33.5818 33.617L29.9084 48.6296H23.2883L15 24.3644H21.7964L28.8149 45.3573C31.3255 38.3202 32.8995 31.7668 30.4613 24.3644H37.0798L45.4043 48.6296Z" fill="white"/>
<path d="M48.5909 23.603C47.0266 26.3023 45.3368 28.2877 43.0692 30.2723C45.3432 32.6649 47.4217 35.9911 48.5909 39.1604C49.7626 35.9911 51.8387 32.6649 54.1135 30.2723C51.8443 28.2877 50.1544 26.3023 48.5909 23.603Z" fill="white"/>
</svg>
