<svg width="202" height="64" viewBox="0 0 202 64" fill="none" xmlns="http://www.w3.org/2000/svg">
<path d="M135.904 44.2439V45.5309H133.057V44.2439H135.904ZM136.892 46.4019V43.3729H132.173C132.823 42.8659 133.512 42.2679 134.019 41.7089L133.161 41.2929C132.576 41.8779 131.666 42.5019 130.899 42.9439C131.055 43.1649 131.328 43.7239 131.406 43.9189C131.614 43.7889 131.822 43.6459 132.043 43.4769V46.9739H133.057V46.4019H136.892ZM138.387 43.0479C137.815 42.5539 136.658 41.7349 135.865 41.1759L135.176 41.8779C135.995 42.4889 137.113 43.3469 137.659 43.8669L138.387 43.0479ZM140.207 37.4189H135.475C135.306 37.0029 135.059 36.4569 134.838 36.0279L133.642 36.3399C133.798 36.6649 133.967 37.0679 134.097 37.4189H128.832V38.4459H132.394L131.536 38.7449C131.77 39.1739 132.095 39.7979 132.251 40.1879H129.508V48.0009H130.652V41.1629H138.426V46.7919C138.426 46.9869 138.348 47.0519 138.127 47.0519C137.945 47.0649 137.204 47.0649 136.463 47.0389C136.619 47.2989 136.762 47.6759 136.814 47.9619C137.893 47.9619 138.569 47.9489 138.985 47.7929C139.401 47.6369 139.544 47.3899 139.544 46.7919V40.1879H136.736C137.048 39.7459 137.373 39.2389 137.672 38.7449L136.372 38.4719C136.177 38.9659 135.839 39.6679 135.54 40.1879H132.407L133.408 39.7979C133.265 39.4599 132.927 38.8749 132.68 38.4459H140.207V37.4189Z" fill="white"/>
<path d="M145.354 41.5399C145.367 41.3189 145.367 41.1239 145.367 40.9159V39.1869H151.828V41.5399H145.354ZM148.916 38.0559L149.566 37.8609C149.423 37.3539 149.098 36.5999 148.812 36.0149L147.629 36.3269C147.863 36.8599 148.149 37.5489 148.279 38.0559H144.119V40.9159C144.119 42.8269 143.963 45.5179 142.468 47.3769C142.767 47.5069 143.3 47.8839 143.521 48.1049C144.704 46.6229 145.146 44.5169 145.302 42.6709H151.828V43.4379H153.063V38.0559H148.916Z" fill="white"/>
<path d="M168.324 42.3849H163.111V38.1209H167.583V36.9379H157.391V38.1209H161.863V42.3849H156.715V43.6069H161.863V48.0269H163.111V43.6069H168.324V42.3849ZM158.236 38.9919C158.704 39.9019 159.146 41.1109 159.315 41.8519L160.472 41.4619C160.303 40.7079 159.809 39.5509 159.328 38.6539L158.236 38.9919ZM165.399 41.8649C165.88 41.1369 166.452 39.9669 166.92 38.9529L165.633 38.6019C165.347 39.5119 164.801 40.7469 164.359 41.5269L165.399 41.8649Z" fill="white"/>
<path d="M179.425 43.6459V46.1679H173.51V43.6459H179.425ZM172.288 48.0269H173.51V47.3379H179.425V48.0009H180.712V42.4889H172.288V48.0269ZM177.683 38.0689C178.242 38.5889 178.84 39.2129 179.399 39.8369L173.354 40.0839C174.42 39.0699 175.525 37.8089 176.461 36.4959L175.252 35.9759C174.303 37.5489 172.834 39.1479 172.379 39.5769C171.95 39.9929 171.625 40.2659 171.313 40.3179C171.443 40.6559 171.651 41.2539 171.703 41.5009C172.288 41.2929 173.12 41.2669 180.27 40.8899C180.569 41.2669 180.829 41.6309 181.024 41.9559L182.038 41.2019C181.362 40.1359 179.841 38.5369 178.619 37.4319L177.683 38.0689Z" fill="white"/>
<path d="M90.3325 40.1511C89.9117 35.4463 85.885 34.6448 81.9533 33.3426C78.3998 32.1652 75.0628 32.059 74.7031 29.5384C74.3217 26.8633 76.9739 25.2432 79.7525 25.7301C82.7661 26.2581 83.3398 28.5541 82.6437 30.0422C84.0342 31.7483 87.488 31.56 88.5485 30.377C89.4232 29.4024 89.7177 27.7912 87.8855 26.2621C85.638 24.3861 81.0295 23.4912 76.6198 24.3113C72.2802 25.1161 68.8442 27.6254 69.2328 31.8087C69.6513 36.3091 72.8861 37.6161 78.0103 38.9713C82.9688 40.2847 84.5951 41.6537 84.2708 43.9401C83.9811 45.9794 82.2325 47.651 78.4907 47.2228C74.749 46.7947 72.7847 43.9554 73.5484 40.7523C69.29 39.7825 67.4496 43.9401 70.9991 46.686C74.4142 49.329 81.1205 49.5559 84.8985 48.1258C88.2798 46.8462 90.7212 44.5059 90.3325 40.1511Z" fill="white"/>
<path d="M60.963 22.3516C63.2764 22.3516 65.1522 20.7058 65.1522 18.6762C65.1522 16.6465 63.2764 14.9999 60.963 14.9999C58.6495 14.9999 56.7729 16.6457 56.7729 18.6762C56.7729 20.7066 58.6487 22.3516 60.963 22.3516Z" fill="white"/>
<path d="M64.2686 24.3628C63.2276 24.8218 62.1023 25.0589 60.9646 25.0589C59.8268 25.0589 58.7016 24.8218 57.6605 24.3628L57.6525 48.6296H64.2734L64.2686 24.3628Z" fill="white"/>
<path d="M107.998 23.6377C105.61 23.6377 103.352 24.3725 101.574 25.7044V15.7299H94.7841V48.6264H101.549V33.3869C101.549 29.5167 102.149 27.6834 104.117 26.2195C105.904 24.89 108.424 25.1266 109.796 26.0786C111.454 27.2303 111.379 29.9811 111.379 32.1781V48.6296H118V32.0735C118 26.1712 113.955 23.6377 107.998 23.6377Z" fill="white"/>
<path d="M45.4043 48.6296H38.7866L33.5818 33.617L29.9084 48.6296H23.2883L15 24.3644H21.7964L28.8149 45.3573C31.3255 38.3202 32.8995 31.7668 30.4613 24.3644H37.0798L45.4043 48.6296Z" fill="white"/>
<path d="M48.591 23.603C47.0267 26.3023 45.3368 28.2877 43.0692 30.2723C45.3433 32.6649 47.4218 35.9911 48.591 39.1604C49.7626 35.9911 51.8387 32.6649 54.1136 30.2723C51.8443 28.2877 50.1545 26.3023 48.591 23.603Z" fill="white"/>
</svg>
