<svg width="241" height="127" viewBox="0 0 241 127" fill="none" xmlns="http://www.w3.org/2000/svg">
<mask id="mask0" mask-type="alpha" maskUnits="userSpaceOnUse" x="0" y="0" width="241" height="127">
<rect width="241" height="127" fill="#C4C4C4"/>
</mask>
<g mask="url(#mask0)">
<path fill-rule="evenodd" clip-rule="evenodd" d="M0.158956 127C0.158956 127 -5.26291 80.1919 41.0592 88.8167C87.3808 97.4395 78.9275 79.5993 110.435 67.3306C123.477 62.2525 135.153 63.7378 141.014 64.7606C162.485 68.5036 164.067 81.1325 180.015 80.0778C193.021 79.218 195.859 70.5593 208.798 72.6949C211.444 73.1312 220.797 74.8417 228.78 84.3232C241.909 99.9175 240.536 123.712 240.305 127H0.158956Z" fill="#E7EEFD"/>
<path d="M31.4648 10.4783H211.129V112C211.129 112.96 210.351 113.739 209.391 113.739H33.2028C32.243 113.739 31.4648 112.96 31.4648 112V10.4783Z" fill="url(#paint0_linear)"/>
<path d="M31.4648 10.4782H211.129V2.43469C211.129 1.47419 210.351 0.695557 209.391 0.695557H33.2028C32.243 0.695557 31.4648 1.47419 31.4648 2.43469V10.4782Z" fill="#E7EEFD"/>
<path d="M36.353 7.43455C37.3728 7.43455 38.1996 6.60725 38.1996 5.58672C38.1996 4.56619 37.3728 3.73889 36.353 3.73889C35.3331 3.73889 34.5063 4.56619 34.5063 5.58672C34.5063 6.60725 35.3331 7.43455 36.353 7.43455Z" fill="#A3BDF8"/>
<path d="M42.0014 7.43455C43.0213 7.43455 43.848 6.60725 43.848 5.58672C43.848 4.56619 43.0213 3.73889 42.0014 3.73889C40.9815 3.73889 40.1548 4.56619 40.1548 5.58672C40.1548 6.60725 40.9815 7.43455 42.0014 7.43455Z" fill="#8CACF6"/>
<path d="M47.6498 7.43455C48.6697 7.43455 49.4964 6.60725 49.4964 5.58672C49.4964 4.56619 48.6697 3.73889 47.6498 3.73889C46.63 3.73889 45.8032 4.56619 45.8032 5.58672C45.8032 6.60725 46.63 7.43455 47.6498 7.43455Z" fill="#8CACF6"/>
<path d="M42.1099 23.9566C42.1099 23.3564 42.5963 22.8696 43.1961 22.8696H199.398C199.997 22.8696 200.484 23.3564 200.484 23.9566V113.739H42.1099V23.9566Z" fill="#F4F4F4"/>
<path d="M191.931 32H50.0693C49.4787 32 49 32.1463 49 32.3267V75.6733C49 75.8537 49.4787 76 50.0693 76H191.931C192.521 76 193 75.8537 193 75.6733V32.3267C193 32.1463 192.521 32 191.931 32Z" fill="white"/>
<path d="M99.4634 83.196C99.4634 83.016 99.6094 82.8699 99.7893 82.8699H143.022C143.202 82.8699 143.348 83.016 143.348 83.196V113.739H99.4634V83.196Z" fill="white"/>
<path d="M49 83.196C49 83.016 49.146 82.8699 49.3259 82.8699H92.5583C92.7381 82.8699 92.8841 83.016 92.8841 83.196V113.739H49V83.196Z" fill="white"/>
<path d="M149.43 83.4131C149.43 83.2331 149.576 83.087 149.756 83.087H192.988C193.169 83.087 193.314 83.2331 193.314 83.4131V113.739H149.43V83.4131Z" fill="white"/>
</g>
<path d="M107 46.43C110.026 44.4086 115.748 42.1298 121 40.3044C125.033 41.894 130.136 43.5352 135 46.43C135 50.8044 133.809 55.5634 133.249 57.8044C132.083 62.4708 127.999 65.9707 120.999 68.3044C113.999 65.9707 109.915 62.4708 108.749 57.8044C108.186 55.5548 107 50.8055 107 46.43Z" fill="#65BD37"/>
<path fill-rule="evenodd" clip-rule="evenodd" d="M128.176 49.7799C128.078 49.6631 127.957 49.5681 127.82 49.501C127.683 49.434 127.533 49.3963 127.381 49.3906C127.229 49.3848 127.077 49.411 126.935 49.4675C126.793 49.5239 126.665 49.6095 126.559 49.7185L119.077 57.369L115.577 53.7828C115.466 53.6685 115.332 53.5777 115.185 53.516C115.037 53.4543 114.879 53.4229 114.719 53.4236C114.56 53.4243 114.402 53.4571 114.255 53.5201C114.108 53.5831 113.975 53.675 113.865 53.7904C113.635 54.0293 113.507 54.3478 113.507 54.679C113.508 55.0103 113.636 55.3287 113.866 55.5673L119.077 60.9831L128.116 51.573C128.591 51.0776 128.617 50.3054 128.176 49.7799Z" fill="white"/>
<defs>
<linearGradient id="paint0_linear" x1="121.297" y1="10.4783" x2="121.297" y2="113.739" gradientUnits="userSpaceOnUse">
<stop stop-color="#376EEE"/>
<stop offset="1" stop-color="#30A3ED"/>
</linearGradient>
</defs>
</svg>
