<svg width="274" height="136" viewBox="0 0 274 136" fill="none" xmlns="http://www.w3.org/2000/svg">
<path d="M112.653 81.2732H63.6731L68.5711 61.6685H117.551L112.653 81.2732Z" fill="url(#paint0_linear)"/>
<path d="M34.2863 76.3716H130.792C131.595 76.3716 132.245 77.0228 132.245 77.8259V133.731C132.245 134.535 131.595 135.186 130.792 135.186H35.7397C34.9368 135.186 34.2863 134.535 34.2863 133.731V76.3716Z" fill="#4A90E2"/>
<path d="M34.2863 76.3716H83.2658V135.186H35.7397C34.9368 135.186 34.2863 134.535 34.2863 133.731V76.3716Z" fill="url(#paint1_linear)"/>
<path d="M34.2858 76.3721H83.2653L78.3674 56.7673H29.3878L34.2858 76.3721Z" fill="url(#paint2_linear)"/>
<path d="M34.2856 76.3716V95.9763H19.5917L34.2856 76.3716Z" fill="url(#paint3_linear)"/>
<path d="M83.265 120.483H63.6731V127.835H83.265V120.483Z" fill="#8BDCFB"/>
<path d="M88.1627 120.483H83.2648V127.835H88.1627V120.483Z" fill="#2FB7EC"/>
<path d="M102.901 45.8892C102.901 45.0861 103.551 44.4348 104.354 44.4348H199.406C200.209 44.4348 200.86 45.0861 200.86 45.8892V135.187H104.354C103.551 135.187 102.901 134.535 102.901 133.732V45.8892Z" fill="url(#paint4_linear)"/>
<path d="M102.901 45.8892C102.901 45.0861 103.551 44.4348 104.354 44.4348H171.501V135.187H104.354C103.551 135.187 102.901 134.535 102.901 133.732V45.8892Z" fill="url(#paint5_linear)"/>
<path d="M122.375 44.4348H151.734V67.1228L146.878 64.854L141.948 67.1228L137.055 64.854L132.162 67.1228L127.268 64.854L122.375 67.1228V44.4348Z" fill="#2FB7EC"/>
<path d="M184.96 59.218H187.409V135.186H184.96V59.218Z" fill="#2FB7EC"/>
<path d="M181.094 44.4348H190.977V67.1228L186.035 64.854L181.094 67.1228V44.4348Z" fill="#2FB7EC"/>
<path d="M200.816 95.9773H240V135.187H200.816V95.9773Z" fill="url(#paint6_linear)"/>
<path d="M230.204 124.158H220.408V129.06H230.204V124.158Z" fill="white"/>
<path d="M230.204 130.285H220.408V132.736H230.204V130.285Z" fill="white"/>
<path d="M171.501 115.698H156.677V121.806H171.501V115.698Z" fill="white"/>
<path d="M171.501 123.261H156.677V126.169H171.501V123.261Z" fill="white"/>
<path d="M177.896 115.698H171.501V121.806H177.896V115.698Z" fill="#BAECFD"/>
<path d="M177.896 123.261H171.501V126.169H177.896V123.261Z" fill="#BAECFD"/>
<path d="M208.163 95.9773H227.755V108.23L222.857 105.78L218.81 108.23L213.061 105.78L208.163 108.23V95.9773Z" fill="#2FB7EC"/>
<path d="M232.653 95.9773H240V135.187H232.653V95.9773Z" fill="url(#paint7_linear)"/>
<path d="M0 111.408C0 111.006 0.325355 110.68 0.7267 110.68H23.7631C24.1644 110.68 24.4898 111.006 24.4898 111.408V134.459C24.4898 134.861 24.1644 135.186 23.7631 135.186H0.7267C0.325355 135.186 0 134.861 0 134.459V111.408Z" fill="url(#paint8_linear)"/>
<path d="M17.1425 110.68H7.34656V118.032H17.1425V110.68Z" fill="#8BDCFB"/>
<path d="M112.653 81.2732H63.6731L68.5711 61.6685H117.551L112.653 81.2732Z" fill="url(#paint9_linear)"/>
<path d="M34.2863 76.3723H130.792C131.595 76.3723 132.245 77.0236 132.245 77.8267V133.732C132.245 134.536 131.595 135.187 130.792 135.187H35.7397C34.9368 135.187 34.2863 134.536 34.2863 133.732V76.3723Z" fill="#0E3AA1"/>
<path d="M34.2863 76.3723H83.2658V135.187H35.7397C34.9368 135.187 34.2863 134.536 34.2863 133.732V76.3723Z" fill="url(#paint10_linear)"/>
<path d="M34.2858 76.3726H83.2653L78.3674 56.7678H29.3878L34.2858 76.3726Z" fill="url(#paint11_linear)"/>
<path d="M34.2856 76.3723V95.9771H19.5917L34.2856 76.3723Z" fill="url(#paint12_linear)"/>
<path d="M83.265 120.483H63.6731V127.835H83.265V120.483Z" fill="#8BDCFB"/>
<path d="M88.1627 120.483H83.2648V127.835H88.1627V120.483Z" fill="#2FB7EC"/>
<path d="M102.901 45.8892C102.901 45.0861 103.551 44.4348 104.354 44.4348H199.406C200.209 44.4348 200.86 45.0861 200.86 45.8892V135.187H104.354C103.551 135.187 102.901 134.535 102.901 133.732V45.8892Z" fill="url(#paint13_linear)"/>
<path d="M102.901 45.8892C102.901 45.0861 103.551 44.4348 104.354 44.4348H171.501V135.187H104.354C103.551 135.187 102.901 134.535 102.901 133.732V45.8892Z" fill="url(#paint14_linear)"/>
<path d="M122.375 44.4348H151.734V67.1228L146.878 64.854L141.948 67.1228L137.055 64.854L132.162 67.1228L127.268 64.854L122.375 67.1228V44.4348Z" fill="#2FB7EC"/>
<path d="M184.96 59.2185H187.409V135.187H184.96V59.2185Z" fill="#2FB7EC"/>
<path d="M181.094 44.4348H190.977V67.1228L186.035 64.854L181.094 67.1228V44.4348Z" fill="#2FB7EC"/>
<path d="M200.816 95.9773H240V135.187H200.816V95.9773Z" fill="url(#paint15_linear)"/>
<path d="M230.204 124.159H220.408V129.061H230.204V124.159Z" fill="white"/>
<path d="M230.204 130.286H220.408V132.736H230.204V130.286Z" fill="white"/>
<path d="M171.501 115.698H156.677V121.807H171.501V115.698Z" fill="white"/>
<path d="M171.501 123.261H156.677V126.17H171.501V123.261Z" fill="white"/>
<path d="M177.896 115.698H171.501V121.807H177.896V115.698Z" fill="#BAECFD"/>
<path d="M177.896 123.261H171.501V126.17H177.896V123.261Z" fill="#BAECFD"/>
<path d="M208.163 95.9773H227.755V108.23L222.857 105.78L218.81 108.23L213.061 105.78L208.163 108.23V95.9773Z" fill="#2FB7EC"/>
<path d="M232.653 95.9773H240V135.187H232.653V95.9773Z" fill="url(#paint16_linear)"/>
<path fill-rule="evenodd" clip-rule="evenodd" d="M273.739 69.388C273.739 80.0913 265.008 88.7685 254.245 88.7685C253.036 88.7685 251.849 88.6576 250.702 88.4459L241.74 91.9565L242.376 84.8572L242.594 84.9326C237.835 81.3993 234.745 75.7491 234.745 69.388C234.745 58.6822 243.478 50 254.245 50C265.008 50 273.739 58.6822 273.739 69.388Z" fill="#C3D4FA"/>
<path d="M252.886 71.9232L261.251 63.1536C261.765 62.6155 262.597 62.6155 263.11 63.1536C263.623 63.6918 263.623 64.5643 263.11 65.1024L253.816 74.8464C253.302 75.3845 252.47 75.3845 251.957 74.8464L246.38 69C245.867 68.4619 245.867 67.5893 246.38 67.0512C246.893 66.5131 247.726 66.5131 248.239 67.0512L252.886 71.9232Z" fill="white"/>
<path fill-rule="evenodd" clip-rule="evenodd" d="M234.739 19.388C234.739 30.0913 226.008 38.7685 215.245 38.7685C214.036 38.7685 212.849 38.6576 211.702 38.4459L202.74 41.9565L203.376 34.8572L203.594 34.9326C198.835 31.3993 195.745 25.7491 195.745 19.388C195.745 8.68217 204.478 0 215.245 0C226.008 0 234.739 8.68217 234.739 19.388Z" fill="#8CACF6"/>
<path d="M213.886 21.9232L222.251 13.1536C222.765 12.6155 223.597 12.6155 224.11 13.1536C224.623 13.6918 224.623 14.5643 224.11 15.1024L214.816 24.8464C214.302 25.3845 213.47 25.3845 212.957 24.8464L207.38 19C206.867 18.4619 206.867 17.5893 207.38 17.0512C207.893 16.5131 208.726 16.5131 209.239 17.0512L213.886 21.9232Z" fill="white"/>
<defs>
<linearGradient id="paint0_linear" x1="90.6119" y1="81.2732" x2="90.6119" y2="61.6685" gradientUnits="userSpaceOnUse">
<stop stop-color="#31B5EC"/>
<stop offset="1" stop-color="#B2EAFD"/>
</linearGradient>
<linearGradient id="paint1_linear" x1="9.79645" y1="105.779" x2="67.6396" y2="153.95" gradientUnits="userSpaceOnUse">
<stop stop-color="#2FB7EC"/>
<stop offset="1" stop-color="#4A90E2"/>
</linearGradient>
<linearGradient id="paint2_linear" x1="7.71527" y1="68.8376" x2="15.8053" y2="39.9129" gradientUnits="userSpaceOnUse">
<stop stop-color="#98E1FC"/>
<stop offset="1" stop-color="#C3EFFD"/>
</linearGradient>
<linearGradient id="paint3_linear" x1="26.9386" y1="66.5692" x2="8.12153" y2="80.6727" gradientUnits="userSpaceOnUse">
<stop stop-color="#CEF2FD"/>
<stop offset="1" stop-color="#8BDCFB"/>
</linearGradient>
<linearGradient id="paint4_linear" x1="179.829" y1="92.9077" x2="204.995" y2="100.048" gradientUnits="userSpaceOnUse">
<stop stop-color="#8EDDFC"/>
<stop offset="0.973645" stop-color="#CBF1FD"/>
</linearGradient>
<linearGradient id="paint5_linear" x1="137.201" y1="44.4348" x2="159.761" y2="141.259" gradientUnits="userSpaceOnUse">
<stop stop-color="#92DFFC"/>
<stop offset="1" stop-color="#C6F0FD"/>
</linearGradient>
<linearGradient id="paint6_linear" x1="259.592" y1="115.582" x2="220.382" y2="76.3984" gradientUnits="userSpaceOnUse">
<stop stop-color="#CEF2FD"/>
<stop offset="1" stop-color="#8BDCFB"/>
</linearGradient>
<linearGradient id="paint7_linear" x1="243.673" y1="115.582" x2="229.477" y2="112.922" gradientUnits="userSpaceOnUse">
<stop stop-color="#CEF2FD"/>
<stop offset="1" stop-color="#8BDCFB"/>
</linearGradient>
<linearGradient id="paint8_linear" x1="35.8748" y1="121.213" x2="11.3702" y2="98.4436" gradientUnits="userSpaceOnUse">
<stop stop-color="#2FB7EC"/>
<stop offset="1" stop-color="#326BEE"/>
</linearGradient>
<linearGradient id="paint9_linear" x1="90.6119" y1="81.2732" x2="90.6119" y2="61.6685" gradientUnits="userSpaceOnUse">
<stop stop-color="#376EEE"/>
<stop offset="1" stop-color="#8CACF6"/>
</linearGradient>
<linearGradient id="paint10_linear" x1="9.79645" y1="105.779" x2="67.6396" y2="153.95" gradientUnits="userSpaceOnUse">
<stop stop-color="#376EEE"/>
<stop offset="1" stop-color="#4A90E2"/>
</linearGradient>
<linearGradient id="paint11_linear" x1="7.71527" y1="68.8381" x2="15.8053" y2="39.9134" gradientUnits="userSpaceOnUse">
<stop stop-color="#8CACF6"/>
<stop offset="1" stop-color="#E7EEFD"/>
</linearGradient>
<linearGradient id="paint12_linear" x1="26.9386" y1="66.5699" x2="8.12153" y2="80.6735" gradientUnits="userSpaceOnUse">
<stop stop-color="#CEF2FD"/>
<stop offset="1" stop-color="#8BDCFB"/>
</linearGradient>
<linearGradient id="paint13_linear" x1="179.829" y1="92.9077" x2="204.995" y2="100.048" gradientUnits="userSpaceOnUse">
<stop stop-color="#8EDDFC"/>
<stop offset="0.973645" stop-color="#CBF1FD"/>
</linearGradient>
<linearGradient id="paint14_linear" x1="137.201" y1="44.4348" x2="159.761" y2="141.259" gradientUnits="userSpaceOnUse">
<stop stop-color="#92DFFC"/>
<stop offset="1" stop-color="#C6F0FD"/>
</linearGradient>
<linearGradient id="paint15_linear" x1="259.592" y1="115.582" x2="220.382" y2="76.3984" gradientUnits="userSpaceOnUse">
<stop stop-color="#CEF2FD"/>
<stop offset="1" stop-color="#8BDCFB"/>
</linearGradient>
<linearGradient id="paint16_linear" x1="243.673" y1="115.582" x2="229.477" y2="112.922" gradientUnits="userSpaceOnUse">
<stop stop-color="#CEF2FD"/>
<stop offset="1" stop-color="#8BDCFB"/>
</linearGradient>
</defs>
</svg>
