<svg width="278" height="136" viewBox="0 0 278 136" fill="none" xmlns="http://www.w3.org/2000/svg">
<path fill-rule="evenodd" clip-rule="evenodd" d="M53.727 136C53.727 136 48.6667 86.0946 91.8997 95.2901C135.132 104.484 127.243 85.4628 156.649 72.3822C168.821 66.9681 179.719 68.5516 185.189 69.6422C205.228 73.6329 206.704 87.0975 221.589 85.9729C233.728 85.0563 236.376 75.8246 248.452 78.1016C250.922 78.5667 259.651 80.3904 267.102 90.4993C279.355 107.126 278.074 132.495 277.859 136H53.727Z" fill="#E7EEFD"/>
<path fill-rule="evenodd" clip-rule="evenodd" d="M0.630438 136C0.630438 136 -3.78174 100.003 33.914 106.635C71.6094 113.267 64.7303 99.5468 90.3701 90.1117C100.984 86.2065 110.485 87.3487 115.255 88.1352C132.727 91.0138 134.014 100.726 146.993 99.9148C157.577 99.2536 159.886 92.5947 170.416 94.2371C172.569 94.5726 180.18 95.888 186.677 103.18C197.36 115.172 196.243 133.472 196.056 136H0.630438Z" fill="#E7EEFD"/>
<path fill-rule="evenodd" clip-rule="evenodd" d="M42.5305 88.7739H87.1212C87.5823 88.7739 87.9564 88.4323 87.9564 88.0113C87.9564 87.5904 87.5823 87.2488 87.1212 87.2488H42.5305C42.0694 87.2488 41.6953 87.5904 41.6953 88.0113C41.6953 88.4323 42.0694 88.7739 42.5305 88.7739Z" fill="#174479"/>
<path fill-rule="evenodd" clip-rule="evenodd" d="M41.5063 72.5051H87.6374C88.0942 72.5051 88.465 72.1635 88.465 71.7425C88.465 71.3216 88.0942 70.98 87.6374 70.98H41.5063C41.0495 70.98 40.6787 71.3216 40.6787 71.7425C40.6787 72.1635 41.0495 72.5051 41.5063 72.5051Z" fill="#174479"/>
<path fill-rule="evenodd" clip-rule="evenodd" d="M12.3945 64.3725C12.621 64.3725 12.8474 64.2796 13.0117 64.0961C13.3202 63.7525 13.2947 63.2221 12.9528 62.911L6.99262 57.4722C6.65077 57.1622 6.12467 57.1869 5.81722 57.5315C5.50867 57.874 5.5342 58.4055 5.87605 58.7155L11.8363 64.1554C11.9961 64.3008 12.1948 64.3725 12.3945 64.3725Z" fill="#174479"/>
<path fill-rule="evenodd" clip-rule="evenodd" d="M15.3954 61.8295C15.474 61.8295 15.555 61.8198 15.6337 61.7993C16.1031 61.6772 16.3742 61.23 16.2427 60.8001L13.9367 53.2705C13.8064 52.8395 13.317 52.5857 12.8511 52.711C12.3828 52.832 12.1106 53.2791 12.242 53.709L14.5481 61.2387C14.6572 61.5962 15.0105 61.8295 15.3954 61.8295Z" fill="#174479"/>
<mask id="mask0" mask-type="alpha" maskUnits="userSpaceOnUse" x="1" y="64" width="11" height="5">
<path fill-rule="evenodd" clip-rule="evenodd" d="M11.1918 64.6538H1.57756V68.8869H11.1918V64.6538Z" fill="white"/>
</mask>
<g mask="url(#mask0)">
<path fill-rule="evenodd" clip-rule="evenodd" d="M10.3527 68.8869C10.7072 68.8869 11.036 68.6609 11.1512 68.3042C11.2932 67.8646 11.0505 67.3916 10.6088 67.2495L2.67371 64.694C2.23529 64.5531 1.76109 64.7946 1.61794 65.2353C1.4759 65.6759 1.71859 66.149 2.16036 66.2911L10.0965 68.8466C10.1815 68.8734 10.2677 68.8869 10.3527 68.8869Z" fill="#174479"/>
</g>
<path fill-rule="evenodd" clip-rule="evenodd" d="M212.764 136H53.5449V43.1221H212.764V136Z" fill="#C3D4FA"/>
<path fill-rule="evenodd" clip-rule="evenodd" d="M207.236 136H167.431V61.9187H207.236V136Z" fill="#FEFEFE"/>
<path fill-rule="evenodd" clip-rule="evenodd" d="M156.374 109.463H63.4958V61.9187H156.374V109.463Z" fill="#FEFEFE"/>
<path fill-rule="evenodd" clip-rule="evenodd" d="M158.154 111.65H61.5646V109.617H158.154V111.65Z" fill="#5685F1"/>
<path fill-rule="evenodd" clip-rule="evenodd" d="M44.6996 43.1219L51.6469 0H215.768L222.716 43.1219H44.6996Z" fill="#326BEE"/>
<path fill-rule="evenodd" clip-rule="evenodd" d="M214.097 43.5679H222.716V44.3738C222.716 46.7258 220.801 48.6515 218.459 48.6515H218.305C216.115 48.6515 214.3 46.9668 214.074 44.8251C214.088 44.6774 214.097 44.5262 214.097 44.3738V43.5679Z" fill="#326BEE"/>
<path fill-rule="evenodd" clip-rule="evenodd" d="M214.05 43.5679V44.3738C214.05 44.5262 214.059 44.6774 214.074 44.8251C213.848 46.9668 212.032 48.6515 209.843 48.6515H209.689C207.347 48.6515 205.432 46.7258 205.432 44.3738V43.5679H214.05Z" fill="#326BEE"/>
<path fill-rule="evenodd" clip-rule="evenodd" d="M197.321 43.5679H205.939V44.3738C205.939 46.7258 204.025 48.6515 201.683 48.6515H201.529C199.339 48.6515 197.523 46.9668 197.297 44.8251C197.312 44.6774 197.321 44.5262 197.321 44.3738V43.5679Z" fill="#326BEE"/>
<path fill-rule="evenodd" clip-rule="evenodd" d="M197.274 43.5679V44.3738C197.274 44.5262 197.283 44.6774 197.298 44.8251C197.072 46.9668 195.256 48.6515 193.066 48.6515H192.912C190.571 48.6515 188.656 46.7258 188.656 44.3738V43.5679H197.274Z" fill="#326BEE"/>
<path fill-rule="evenodd" clip-rule="evenodd" d="M180.036 43.5679H188.654V44.3738C188.654 46.7258 186.739 48.6515 184.398 48.6515H184.243C182.054 48.6515 180.238 46.9668 180.012 44.8251C180.027 44.6774 180.036 44.5262 180.036 44.3738V43.5679Z" fill="#326BEE"/>
<path fill-rule="evenodd" clip-rule="evenodd" d="M180.496 43.5679V44.3738C180.496 44.5262 180.505 44.6774 180.521 44.8251C180.295 46.9668 178.48 48.6515 176.29 48.6515H176.135C173.794 48.6515 171.879 46.7258 171.879 44.3738V43.5679H180.496Z" fill="#326BEE"/>
<path fill-rule="evenodd" clip-rule="evenodd" d="M163.26 43.5679H171.879V44.3738C171.879 46.7258 169.965 48.6515 167.622 48.6515H167.468C165.278 48.6515 163.463 46.9668 163.237 44.8251C163.251 44.6774 163.26 44.5262 163.26 44.3738V43.5679Z" fill="#326BEE"/>
<path fill-rule="evenodd" clip-rule="evenodd" d="M163.214 43.5679V44.3738C163.214 44.5262 163.223 44.6774 163.237 44.8251C163.011 46.9668 161.196 48.6515 159.006 48.6515H158.852C156.51 48.6515 154.595 46.7258 154.595 44.3738V43.5679H163.214Z" fill="#326BEE"/>
<path fill-rule="evenodd" clip-rule="evenodd" d="M146.485 43.5679H155.104V44.3738C155.104 46.7258 153.189 48.6515 150.847 48.6515H150.692C148.503 48.6515 146.688 46.9668 146.461 44.8251C146.476 44.6774 146.485 44.5262 146.485 44.3738V43.5679Z" fill="#326BEE"/>
<path fill-rule="evenodd" clip-rule="evenodd" d="M146.436 43.5679V44.3738C146.436 44.5262 146.445 44.6774 146.461 44.8251C146.233 46.9668 144.418 48.6515 142.23 48.6515H142.075C139.733 48.6515 137.819 46.7258 137.819 44.3738V43.5679H146.436Z" fill="#326BEE"/>
<path fill-rule="evenodd" clip-rule="evenodd" d="M129.201 43.5679H137.819V44.3738C137.819 46.7258 135.904 48.6515 133.563 48.6515H133.409C131.219 48.6515 129.404 46.9668 129.177 44.8251C129.192 44.6774 129.201 44.5262 129.201 44.3738V43.5679Z" fill="#326BEE"/>
<path fill-rule="evenodd" clip-rule="evenodd" d="M129.662 43.5679V44.3738C129.662 44.5262 129.671 44.6774 129.686 44.8251C129.459 46.9668 127.644 48.6515 125.454 48.6515H125.3C122.959 48.6515 121.043 46.7258 121.043 44.3738V43.5679H129.662Z" fill="#326BEE"/>
<path fill-rule="evenodd" clip-rule="evenodd" d="M112.425 43.5679H121.043V44.3738C121.043 46.7258 119.128 48.6515 116.787 48.6515H116.632C114.443 48.6515 112.627 46.9668 112.401 44.8251C112.416 44.6774 112.425 44.5262 112.425 44.3738V43.5679Z" fill="#326BEE"/>
<path fill-rule="evenodd" clip-rule="evenodd" d="M112.377 43.5679V44.3738C112.377 44.5262 112.386 44.6774 112.4 44.8251C112.174 46.9668 110.359 48.6515 108.17 48.6515H108.015C105.673 48.6515 103.758 46.7258 103.758 44.3738V43.5679H112.377Z" fill="#326BEE"/>
<path fill-rule="evenodd" clip-rule="evenodd" d="M95.6493 43.5679H104.268V44.3738C104.268 46.7258 102.353 48.6515 100.011 48.6515H99.8572C97.6673 48.6515 95.8517 46.9668 95.6255 44.8251C95.6402 44.6774 95.6493 44.5262 95.6493 44.3738V43.5679Z" fill="#326BEE"/>
<path fill-rule="evenodd" clip-rule="evenodd" d="M95.601 43.5679V44.3738C95.601 44.5262 95.6101 44.6774 95.6248 44.8251C95.3985 46.9668 93.583 48.6515 91.393 48.6515H91.2392C88.8965 48.6515 86.9826 46.7258 86.9826 44.3738V43.5679H95.601Z" fill="#326BEE"/>
<path fill-rule="evenodd" clip-rule="evenodd" d="M78.3651 43.5679H86.9824V44.3738C86.9824 46.7258 85.0676 48.6515 82.7264 48.6515H82.5714C80.3817 48.6515 78.5664 46.9668 78.3402 44.8251C78.3549 44.6774 78.3651 44.5262 78.3651 44.3738V43.5679Z" fill="#326BEE"/>
<path fill-rule="evenodd" clip-rule="evenodd" d="M78.8249 43.5679V44.3738C78.8249 44.5262 78.8339 44.6774 78.8486 44.8251C78.6224 46.9668 76.8069 48.6515 74.6169 48.6515H74.4631C72.1215 48.6515 70.2064 46.7258 70.2064 44.3738V43.5679H78.8249Z" fill="#326BEE"/>
<path fill-rule="evenodd" clip-rule="evenodd" d="M61.5883 43.5679H70.2068V44.3738C70.2068 46.7258 68.2917 48.6515 65.9502 48.6515H65.7963C63.6064 48.6515 61.7908 46.9668 61.5646 44.8251C61.5793 44.6774 61.5883 44.5262 61.5883 44.3738V43.5679Z" fill="#326BEE"/>
<path fill-rule="evenodd" clip-rule="evenodd" d="M61.5402 43.5679V44.3738C61.5402 44.5262 61.5493 44.6774 61.564 44.8251C61.3378 46.9668 59.5225 48.6515 57.3328 48.6515H57.179C54.8366 48.6515 52.9218 46.7258 52.9218 44.3738V43.5679H61.5402Z" fill="#326BEE"/>
<path fill-rule="evenodd" clip-rule="evenodd" d="M53.4312 44.3738C53.4312 46.7258 51.5227 48.6515 49.1868 48.6515H49.0334C46.6985 48.6515 44.789 46.7258 44.789 44.3738V43.5679H53.4312V44.3738Z" fill="#326BEE"/>
<path fill-rule="evenodd" clip-rule="evenodd" d="M44.3257 44.0748H222.162C222.469 44.0748 222.716 43.8471 222.716 43.5665C222.716 43.2859 222.469 43.0581 222.162 43.0581H44.3257C44.0198 43.0581 43.7716 43.2859 43.7716 43.5665C43.7716 43.8471 44.0198 44.0748 44.3257 44.0748Z" fill="#E6F5FC"/>
<path d="M48.3468 79.6225C48.3468 89.1684 40.6084 96.9069 31.0625 96.9069C21.5166 96.9069 13.7781 89.1684 13.7781 79.6225C13.7781 70.0766 21.5166 62.3381 31.0625 62.3381C40.6084 62.3381 48.3468 70.0766 48.3468 79.6225Z" fill="#C3D4FA"/>
<path fill-rule="evenodd" clip-rule="evenodd" d="M31.0625 94.583C39.3249 94.583 46.0229 87.8849 46.0229 79.6225C46.0229 71.3601 39.3249 64.6621 31.0625 64.6621C22.8 64.6621 16.102 71.3601 16.102 79.6225C16.102 87.8849 22.8 94.583 31.0625 94.583ZM31.0625 96.9069C40.6084 96.9069 48.3468 89.1684 48.3468 79.6225C48.3468 70.0766 40.6084 62.3381 31.0625 62.3381C21.5166 62.3381 13.7781 70.0766 13.7781 79.6225C13.7781 89.1684 21.5166 96.9069 31.0625 96.9069Z" fill="#5685F1"/>
<path d="M113.943 85.1382H142V109.674H113.943V85.1382Z" fill="url(#paint0_linear)"/>
<path d="M133.984 85.1382H142.001V109.674H133.984V85.1382Z" fill="url(#paint1_linear)"/>
<path d="M117.952 85.1382H129.976V93.1544L126.97 91.5512L124.487 93.1544L120.958 91.5512L117.952 93.1544V85.1382Z" fill="#F0B616"/>
<path d="M78.976 85.1382H107.033V109.674H78.976V85.1382Z" fill="url(#paint2_linear)"/>
<path d="M99.0164 85.1382H107.033V109.674H99.0164V85.1382Z" fill="url(#paint3_linear)"/>
<path d="M82.9844 85.1382H95.0088V93.1544L92.0027 91.5512L89.5191 93.1544L85.9905 91.5512L82.9844 93.1544V85.1382Z" fill="#F0B616"/>
<path d="M24.797 88.4552H33.4357C36.4664 88.4552 38.0653 86.466 38.0653 83.9794C38.0653 81.8907 36.7051 80.175 35.0107 79.9015C36.5141 79.5782 37.7551 78.1857 37.7551 76.097C37.7551 73.884 36.2039 71.8699 33.1732 71.8699H24.797V88.4552ZM28.1857 78.5339V74.8786H32.4334C33.5789 74.8786 34.2948 75.6743 34.2948 76.6938C34.2948 77.763 33.5789 78.5339 32.4334 78.5339H28.1857ZM28.1857 85.4465V81.5426H32.5527C33.8891 81.5426 34.605 82.4378 34.605 83.4821C34.605 84.6757 33.8414 85.4465 32.5527 85.4465H28.1857Z" fill="#5685F1"/>
<path fill-rule="evenodd" clip-rule="evenodd" d="M75.414 89.5689C75.414 89.5689 71.7738 93.4321 71.4724 93.2585C71.1709 93.0849 69.9895 91.0771 69.9895 91.0771L68.3525 92.2816C68.3525 92.2816 70.4149 96.0583 71.4489 95.8139C71.7203 95.75 72.2479 95.2804 72.8782 94.6238C72.8782 94.6238 76.8387 89.9164 77.2232 89.4602C77.6077 89.0044 77.2236 88.6139 77.2236 88.6139C77.0933 88.4798 76.914 88.3983 76.7925 88.332C76.7925 88.332 76.5481 88.1175 76.15 88.6643L75.7512 89.2108L75.414 89.5689Z" fill="#C58380"/>
<mask id="mask1" mask-type="alpha" maskUnits="userSpaceOnUse" x="58" y="131" width="9" height="5">
<path fill-rule="evenodd" clip-rule="evenodd" d="M66.5042 131.62H58.6693V135.906H66.5042V131.62Z" fill="white"/>
</mask>
<g mask="url(#mask1)">
<path fill-rule="evenodd" clip-rule="evenodd" d="M60.2279 135.661V134.22C60.2279 134.22 62.4599 135.635 62.7224 135.766C62.9852 135.897 64.2717 135.923 65.0334 135.897C65.7951 135.871 66.5042 135.661 66.5042 135.425C66.5042 135.189 66.4515 135.032 64.2458 134.325C63.9528 134.342 63.4956 134.335 62.9852 134.168C62.0158 133.851 61.6691 133.225 60.6478 132.518C60.2745 132.259 59.6984 131.912 58.8978 131.62C58.7192 132.218 58.5666 133.011 58.7575 134.273L58.9673 135.661L59.0069 135.906H60.2226L60.2279 135.661Z" fill="#1C4178"/>
</g>
<path fill-rule="evenodd" clip-rule="evenodd" d="M62.9182 134.142C63.4287 134.309 63.8859 134.316 64.1788 134.299C64.1788 134.299 62.2615 132.439 62.0513 131.836C61.9492 131.543 61.9464 130.617 61.9706 129.741C61.9706 129.741 59.2551 129.616 59.2554 129.616C59.2045 130.105 59.1456 130.551 59.0838 130.789C59.0217 131.029 58.9228 131.286 58.8309 131.594C59.6315 131.885 60.2072 132.233 60.5809 132.491C61.6022 133.199 61.9485 133.825 62.9182 134.142Z" fill="#FCE2DD"/>
<path fill-rule="evenodd" clip-rule="evenodd" d="M59.2235 127.011V129.783L61.9387 129.945V127.383C61.9387 127.383 61.1244 124.842 59.2235 126.459V127.011Z" fill="#F7A79A"/>
<mask id="mask2" mask-type="alpha" maskUnits="userSpaceOnUse" x="63" y="131" width="9" height="5">
<path fill-rule="evenodd" clip-rule="evenodd" d="M71.6315 131.62H63.7965V135.906H71.6315V131.62Z" fill="white"/>
</mask>
<g mask="url(#mask2)">
<path fill-rule="evenodd" clip-rule="evenodd" d="M64.0946 135.661L63.8844 134.273C63.6939 133.011 63.8465 132.218 64.0255 131.62C64.8261 131.912 65.4018 132.259 65.7755 132.518C66.7965 133.225 67.1431 133.851 68.1125 134.168C68.6233 134.335 69.0801 134.342 69.3731 134.325C71.5788 135.032 71.6315 135.189 71.6315 135.425C71.6315 135.661 70.9224 135.871 70.1607 135.897C69.3994 135.923 68.1125 135.897 67.85 135.766C67.5873 135.635 65.3552 134.22 65.3552 134.22V135.661L65.3597 135.906L64.1574 135.904L64.0946 135.661Z" fill="#1C4178"/>
</g>
<path fill-rule="evenodd" clip-rule="evenodd" d="M68.0699 134.142C68.5807 134.309 69.0375 134.316 69.3304 134.299C69.3304 134.299 67.4134 132.439 67.2033 131.836C67.1012 131.543 67.0984 130.617 67.1226 129.741L64.407 129.616C64.3561 130.105 64.2976 130.551 64.2358 130.789C64.1734 131.029 64.0744 131.286 63.9828 131.594C64.7835 131.885 65.3589 132.233 65.7329 132.491C66.7538 133.199 67.1005 133.825 68.0699 134.142Z" fill="#FCE2DD"/>
<path fill-rule="evenodd" clip-rule="evenodd" d="M64.3751 127.539V129.661L67.0907 129.785V127.824C67.0907 127.824 66.2764 125.879 64.3751 127.116V127.539Z" fill="#F7A79A"/>
<path fill-rule="evenodd" clip-rule="evenodd" d="M63.3009 127.338C63.3009 127.338 65.822 127.613 67.2398 127.928C68.6579 128.242 72.2422 128.32 72.2422 128.32C72.2422 128.32 71.2051 105.491 71.2314 104.391C71.2577 103.291 70.7588 98.3138 69.9971 96.6899C66.7409 97.7899 63.458 97.0039 63.458 97.0039C63.458 97.0039 63.0644 97.0431 62.1978 100.933C61.3312 104.823 60.0313 114.528 60.0313 114.528L58.6525 125.57L58.4651 127.232C58.4651 127.232 62.428 127.234 63.3009 127.338Z" fill="#1C4178"/>
<path fill-rule="evenodd" clip-rule="evenodd" d="M69.557 92.5135L65.8071 85.0422L62.4853 92.378C62.4853 92.378 62.8428 95.329 63.3056 96.5662C63.3109 96.5672 66.5032 97.2483 70.0468 96.267L70.1141 94.0534V93.0962L69.557 92.5135Z" fill="#1C4178"/>
<path fill-rule="evenodd" clip-rule="evenodd" d="M69.991 96.7341L70.0026 96.354C66.459 97.3357 63.2667 96.6543 63.261 96.6536C63.3231 96.8191 63.387 96.9553 63.4519 97.048C63.4519 97.048 66.7348 97.8344 69.991 96.7341Z" fill="#FEFEFE"/>
<path fill-rule="evenodd" clip-rule="evenodd" d="M68.8756 91.7438L71.234 90.1843V88.7697C71.1814 83.2426 67.8533 83.476 67.8533 83.476C63.7371 83.7616 65.7685 89.2401 65.7685 89.2401L67.5312 96.0524L69.238 95.8165V92.7255L68.8756 91.7438Z" fill="#FCE2DD"/>
<path d="M66.9665 88.0664C66.9665 88.0664 67.0135 90.2835 68.6407 91.5714L68.7705 91.669" stroke="#F0B616" stroke-width="0.35" stroke-linecap="round" stroke-linejoin="round"/>
<path d="M71.234 104.42C68.6346 103.897 68.5725 102.272 68.5725 102.272L68.2508 99.8102C68.2508 99.8102 69.7857 99.6265 70.4334 99.5365L70.7162 99.49" stroke="#051D36" stroke-width="0.35" stroke-linejoin="round"/>
<path fill-rule="evenodd" clip-rule="evenodd" d="M68.2429 82.8917C68.2429 82.8917 69.3853 82.3023 69.4246 81.595C69.4638 80.8877 69.4246 79.5547 69.4246 79.5547C69.4246 79.5547 67.2577 80.1017 68.2429 82.8917Z" fill="#F7A79A"/>
<mask id="mask3" mask-type="alpha" maskUnits="userSpaceOnUse" x="57" y="80" width="12" height="13">
<path fill-rule="evenodd" clip-rule="evenodd" d="M68.6477 80.8386H57.9678V92.6041H68.6477V80.8386Z" fill="white"/>
</mask>
<g mask="url(#mask3)">
<path fill-rule="evenodd" clip-rule="evenodd" d="M61.2515 83.8844C61.2515 83.8844 59.5801 87.4741 58.7615 88.2994C57.9427 89.1246 57.3915 91.6392 59.0064 92.3069C60.6214 92.9754 64.1632 92.5428 65.1891 90.7355C66.2146 88.9279 66.7268 85.824 66.924 85.1167C67.1208 84.4094 68.1846 83.2699 68.3421 82.8377C68.4993 82.4051 68.6477 80.8386 68.6477 80.8386C68.6477 80.8386 63.2608 81.316 61.2515 83.8844Z" fill="#0B0D0C"/>
</g>
<path fill-rule="evenodd" clip-rule="evenodd" d="M59.8906 83.36C62.4461 85.2919 67.8972 81.3974 68.2021 81.1594C71.2745 78.7624 71.038 77.3482 70.7229 76.3658C70.4082 75.3834 69.0687 74.6765 66.9022 75.6585C64.7357 76.6409 62.6479 77.2302 62.6479 77.2302C62.1777 77.4045 61.6143 77.6593 61.0182 78.0359C60.2358 78.5297 59.6562 79.0704 59.251 79.5114C59.0573 79.7819 58.664 80.4154 58.7033 81.2399C58.7535 82.2965 59.4839 83.0521 59.8906 83.36Z" fill="#F0B616"/>
<path fill-rule="evenodd" clip-rule="evenodd" d="M62.6732 77.207C62.6732 77.207 61.8592 78.8169 62.3844 79.5182C62.9097 80.2192 64.8267 80.4418 66.4283 79.4332C68.0306 78.4249 68.9758 76.9057 66.9275 75.6353" fill="#FEFEFE"/>
<path fill-rule="evenodd" clip-rule="evenodd" d="M62.9847 76.5532C62.9169 76.7674 62.1967 78.182 62.764 78.9949C63.3516 79.8363 64.9571 79.5451 65.663 79.3187C66.1553 79.1608 67.5853 78.7027 67.7474 77.532C67.8853 76.5392 67.079 75.4137 66.1121 75.2618C65.4241 75.1536 64.2456 75.0189 63.3173 75.9985C63.3173 75.9985 63.0797 76.2539 62.9847 76.5532Z" fill="#F0B616"/>
<path d="M64.0667 100.498C64.0667 100.498 63.6334 101.716 63.7516 105.017C63.8695 108.317 63.7895 113.739 63.7312 116.883C63.6726 120.026 63.279 125.528 63.279 125.528L63.139 127.205" stroke="#051D36" stroke-width="0.35" stroke-linecap="round" stroke-linejoin="round"/>
<path fill-rule="evenodd" clip-rule="evenodd" d="M78.1155 89.2739C78.1155 89.2739 73.6777 93.9366 73.31 93.7273C72.9423 93.5173 71.5021 91.0944 71.5021 91.0944L69.5065 92.5482C69.5065 92.5482 72.0206 97.1063 73.2812 96.8116C73.6124 96.7339 74.2555 96.168 75.0239 95.3753C75.0239 95.3753 79.8529 89.6931 80.3216 89.143C80.79 88.5928 80.322 88.1211 80.322 88.1211C80.1631 87.9594 79.9448 87.8607 79.7964 87.7805C79.7964 87.7805 79.4986 87.5216 79.013 88.1816L78.5267 88.842L78.1155 89.2739Z" fill="#F7A79A"/>
<path fill-rule="evenodd" clip-rule="evenodd" d="M71.3146 90.1943L68.9562 91.7538L69.3189 92.7355L70.2645 92.0541L71.6823 91.0329L71.3146 90.1943Z" fill="#FEFEFE"/>
<path d="M258.534 136C260.278 131.485 261.736 126.65 262.168 123.764C262.858 119.15 261.822 116.036 259.292 115.69C256.762 115.344 254.896 119.747 254.896 119.747C254.896 119.747 253.82 113.51 251.906 109.433C249.992 105.354 245.926 103.436 243.294 106.674C240.662 109.912 242.663 121.811 242.663 121.811C242.287 121.563 239.126 119.515 237.265 120.706C235.264 121.986 236.113 126.141 236.476 127.91C237.076 130.849 238.643 133.781 240.284 136" fill="#C3D4FA"/>
<path d="M251.463 135.032L247.839 113.63" stroke="#376EEE" stroke-opacity="0.5" stroke-linecap="round" stroke-linejoin="round"/>
<path fill-rule="evenodd" clip-rule="evenodd" d="M187.067 91.5418C186.104 90.8476 185.387 90.2569 184.968 89.8972V91.6308C185.277 91.8789 185.714 92.2175 186.25 92.6053L187.062 91.5439L187.067 91.5418Z" fill="white"/>
<path d="M199.667 98.7277H209.603" stroke="white" stroke-width="0.5" stroke-linecap="round" stroke-linejoin="round"/>
<path fill-rule="evenodd" clip-rule="evenodd" d="M210.039 101.21L209.546 98.5654V98.1965V89.6328C209.546 89.6328 208.716 89.9096 208.67 89.8945C208.624 89.8784 207.963 89.6328 207.963 89.6328L207.348 89.9096L206.579 89.6328L205.903 89.9247L205.288 89.6328L204.581 89.9247L203.859 89.6328L203.151 89.9247L202.475 89.6328L201.829 89.9096L201.137 89.6328L200.43 89.9247L199.585 89.6328V98.5654L199.092 101.21H210.039Z" fill="#FFD560"/>
<path fill-rule="evenodd" clip-rule="evenodd" d="M201.785 90.9499C201.785 90.8024 201.905 90.6831 202.052 90.6831C202.199 90.6831 202.319 90.8024 202.319 90.9499C202.319 91.0973 202.199 91.2161 202.052 91.2161C201.905 91.2161 201.785 91.0973 201.785 90.9499Z" fill="#3A94D1"/>
<path fill-rule="evenodd" clip-rule="evenodd" d="M207.468 90.9499C207.468 91.0973 207.35 91.2161 207.202 91.2161C207.055 91.2161 206.935 91.0973 206.935 90.9499C206.935 90.8024 207.055 90.6831 207.202 90.6831C207.35 90.6831 207.468 90.8024 207.468 90.9499Z" fill="#3A94D1"/>
<path d="M202.053 90.9085C202.007 88.176 203.621 86.3737 204.753 86.41C205.863 86.4447 207.315 88.2782 207.195 90.9085" stroke="white" stroke-width="0.5" stroke-linecap="round" stroke-linejoin="round"/>
<path fill-rule="evenodd" clip-rule="evenodd" d="M199.092 101.21H210.039L209.546 98.5652H199.585L199.092 101.21Z" fill="#FFD560"/>
<path fill-rule="evenodd" clip-rule="evenodd" d="M192.285 81.8833C192.508 82.0097 191.576 82.2367 190.932 82.219C189.978 82.1924 189.349 81.6412 189.185 81.4867C189.103 81.4163 188.978 81.2884 188.887 81.0932C188.827 80.9638 188.801 80.845 188.789 80.7575C188.873 80.5531 188.872 80.3941 188.872 80.3941C188.872 80.3941 188.915 79.1313 188.872 79.0945C188.872 79.0945 191.753 78.8389 191.669 80.1409C191.669 80.1409 191.516 81.4485 192.285 81.8833Z" fill="#F7A69A"/>
<path fill-rule="evenodd" clip-rule="evenodd" d="M185.145 96.8962V99.6709C185.145 99.6709 185.204 101.059 185.989 102.747C186.773 104.436 191.236 114.208 193.107 120.06C194.977 125.911 197.269 132.727 197.269 132.727L201.793 131.34L193.931 99.6105L193.348 96.936L185.145 96.8962Z" fill="#1A4379"/>
<path fill-rule="evenodd" clip-rule="evenodd" d="M190.381 112.801C190.381 112.801 189.849 115.957 189.246 117.043C188.643 118.129 180.439 132.003 180.439 132.003L176.277 129.832C176.277 129.832 182.962 116.139 183.329 114.811C183.696 113.484 185.727 102.129 185.727 102.129L190.381 112.801Z" fill="#1A4379"/>
<path fill-rule="evenodd" clip-rule="evenodd" d="M180.439 132.004L178.252 130.862C178.252 130.862 178.049 131.156 177.796 131.548L180.047 132.727L180.439 132.004Z" fill="#F7A69A"/>
<path fill-rule="evenodd" clip-rule="evenodd" d="M182.219 134.748C181.465 134.386 180.258 133.089 180.047 132.727L177.795 131.547C177.338 132.252 176.712 133.278 176.79 133.511C176.911 133.873 180.108 135.532 180.379 135.622C180.651 135.713 182.822 135.622 182.822 135.622C182.822 135.622 182.973 135.11 182.219 134.748Z" fill="#231F20"/>
<path fill-rule="evenodd" clip-rule="evenodd" d="M200.862 131.625L198.445 132.367C198.445 132.367 198.53 132.758 198.647 133.262L201.069 132.367L200.862 131.625Z" fill="#F7A69A"/>
<path fill-rule="evenodd" clip-rule="evenodd" d="M205.081 132.727C204.115 132.727 201.069 132.366 201.069 132.366L198.648 133.262C198.866 134.206 199.199 135.552 199.318 135.532C199.501 135.503 205.986 133.391 205.986 133.391C205.986 133.391 206.046 132.727 205.081 132.727Z" fill="#231F20"/>
<path d="M178.328 130.133C178.328 130.133 185.811 116.018 185.96 115.415C186.109 114.812 187.496 106.187 187.496 106.187" stroke="#1B4278" stroke-width="0.5" stroke-linecap="round" stroke-linejoin="round"/>
<path d="M185.727 102.129L190.382 112.801" stroke="white" stroke-width="0.25" stroke-linecap="round" stroke-linejoin="round"/>
<path fill-rule="evenodd" clip-rule="evenodd" d="M192.169 81.3646L192.226 81.4043L192.169 81.3646Z" fill="#F7A69A"/>
<path fill-rule="evenodd" clip-rule="evenodd" d="M192.863 75.8765C192.863 75.8765 193.493 79.5114 192.274 79.995C191.056 80.4782 189.164 79.7217 188.177 78.314C187.19 76.9063 188.493 75.6667 189.207 77.4106V74.8679L192.863 75.8765Z" fill="#F7A69A"/>
<path fill-rule="evenodd" clip-rule="evenodd" d="M192.265 77.294C192.264 77.4415 192.339 77.5613 192.433 77.5618C192.527 77.5628 192.604 77.444 192.605 77.2971C192.607 77.1501 192.531 77.0303 192.438 77.0293C192.344 77.0283 192.267 77.1471 192.265 77.294Z" fill="#231F20"/>
<path fill-rule="evenodd" clip-rule="evenodd" d="M190.56 77.294C190.559 77.4415 190.633 77.5613 190.728 77.5618C190.822 77.5628 190.899 77.444 190.9 77.2971C190.901 77.1501 190.826 77.0303 190.732 77.0293C190.638 77.0283 190.561 77.1471 190.56 77.294Z" fill="#231F20"/>
<path d="M190.952 78.6947C190.952 78.6947 191.072 79.0289 191.503 79.0395" stroke="#231F20" stroke-width="0.25" stroke-linecap="round" stroke-linejoin="round"/>
<path d="M191.686 77.5583C191.686 77.5583 191.808 78.1155 191.736 78.1769C191.665 78.2383 191.503 78.1769 191.503 78.1769" stroke="#231F20" stroke-width="0.25" stroke-linecap="round" stroke-linejoin="round"/>
<path fill-rule="evenodd" clip-rule="evenodd" d="M191.103 76.6226H190C190 76.6226 190.668 76.1727 191.103 76.6226Z" fill="#231F20"/>
<path fill-rule="evenodd" clip-rule="evenodd" d="M192.846 76.6226H192.038C192.038 76.6226 192.527 76.1727 192.846 76.6226Z" fill="#231F20"/>
<path fill-rule="evenodd" clip-rule="evenodd" d="M189.969 74.0948C189.969 74.0948 186.949 73.2528 187.793 77.1524C187.793 77.1524 188.178 75.6012 189.22 77.4181V76.4432C189.22 76.4432 189.803 74.6711 191.136 76.0003C192.468 77.3295 193.351 75.7185 193.351 75.7185V76.715C194.069 76.4447 194.489 75.6702 194.361 74.9369C194.216 74.1069 193.404 73.512 192.552 73.6962C192.552 73.6962 191.136 71.835 189.969 74.0948Z" fill="#231F20"/>
<path fill-rule="evenodd" clip-rule="evenodd" d="M194.544 88.7143C194.522 87.8824 194.5 87.0504 194.478 86.2189C194.443 85.6583 194.23 84.6391 193.641 83.5172C192.519 81.3797 191.071 81.0068 189.464 80.5191L188.865 80.5186C188.865 80.5186 186.273 80.4214 184.528 93.7886C184.429 94.8631 184.447 95.7847 184.65 96.3861C184.65 96.3861 185.241 98.0339 189.28 97.9967C190.701 97.9836 191.637 97.9489 192.278 97.8809C193.458 97.7556 193.633 97.517 193.983 97.0938L194.544 88.7143Z" fill="#376EEE"/>
<path fill-rule="evenodd" clip-rule="evenodd" d="M193.502 87.3804L194.234 89.841C194.234 89.841 197.792 88.9225 198.327 88.8082C198.863 88.693 201.12 87.8902 201.617 87.1247C202.114 86.3602 202.573 85.2504 202.879 85.3652C202.879 85.3652 202.97 85.3873 202.871 85.6229C202.773 85.8584 202.569 86.412 202.569 86.412C202.961 86.106 203.471 85.7774 203.802 85.572C204.052 85.417 204.377 85.4543 204.582 85.6661C205.134 86.2404 205.399 87.3441 205.213 87.622C204.984 87.9667 202.306 88.7317 202.306 88.7317C202.306 88.7317 194.616 92.9781 193.813 93.0541C193.01 93.1311 191.747 90.9125 191.747 90.9125L190.492 88.5551L193.502 87.3804Z" fill="#F7A69A"/>
<path fill-rule="evenodd" clip-rule="evenodd" d="M194.083 87.1536C193.563 85.6986 192.676 83.6512 191.728 83.3502C190.233 82.8761 188.942 83.6612 189.399 86.1244C189.399 86.1244 189.648 87.3917 190.042 88.7305L194.083 87.1536Z" fill="#79D6FA"/>
<path fill-rule="evenodd" clip-rule="evenodd" d="M193.891 87.2259C193.37 85.7709 192.484 83.7234 191.535 83.4225C190.041 82.9484 188.75 83.7335 189.207 86.1967C189.207 86.1967 189.456 87.464 189.85 88.8027L193.891 87.2259Z" fill="#376EEE" stroke="white" stroke-width="0.25" stroke-linecap="round" stroke-linejoin="round"/>
<defs>
<linearGradient id="paint0_linear" x1="156.029" y1="97.4059" x2="131.712" y2="69.5994" gradientUnits="userSpaceOnUse">
<stop stop-color="#FFF0BB"/>
<stop offset="1" stop-color="#FFD560"/>
</linearGradient>
<linearGradient id="paint1_linear" x1="146.009" y1="97.4059" x2="131.523" y2="92.6729" gradientUnits="userSpaceOnUse">
<stop stop-color="#FFC72C"/>
<stop offset="1" stop-color="#FFD560"/>
</linearGradient>
<linearGradient id="paint2_linear" x1="121.061" y1="97.4059" x2="96.745" y2="69.5994" gradientUnits="userSpaceOnUse">
<stop stop-color="#FFF0BB"/>
<stop offset="1" stop-color="#FFD560"/>
</linearGradient>
<linearGradient id="paint3_linear" x1="111.041" y1="97.4059" x2="96.5546" y2="92.6729" gradientUnits="userSpaceOnUse">
<stop stop-color="#FFC72C"/>
<stop offset="1" stop-color="#FFD560"/>
</linearGradient>
</defs>
</svg>
