<svg width="40" height="40" viewBox="0 0 40 40" fill="none" xmlns="http://www.w3.org/2000/svg">
<mask id="mask0" mask-type="alpha" maskUnits="userSpaceOnUse" x="0" y="0" width="40" height="40">
<path fill-rule="evenodd" clip-rule="evenodd" d="M0 0H40V39.9999H0V0Z" fill="white"/>
</mask>
<g mask="url(#mask0)">
<path fill-rule="evenodd" clip-rule="evenodd" d="M0 19.9998C0 8.95429 8.95429 0 20.0002 0C31.0457 0 40 8.95429 40 19.9998C40 31.0457 31.0457 40 20.0002 40C8.95429 40 0 31.0457 0 19.9998Z" fill="#F8FAFB"/>
</g>
<path d="M24.2935 10.2443V7.83691H21.7663H24.2935L20.4964 11.4543L18.3744 9.43288L16.452 11.2641L15.7395 11.9428" stroke="#406BCD" stroke-width="2" stroke-linecap="round" stroke-linejoin="round"/>
<path fill-rule="evenodd" clip-rule="evenodd" d="M8.43024 25.1935C8.14694 25.5482 8.136 26.0493 8.4152 26.4078C9.58805 27.9126 12.7115 31.2926 17.8116 32.0007C22.8475 32.6995 27.9626 30.5361 31.2601 26.4074C31.5434 26.0527 31.5539 25.5512 31.2747 25.1931C30.1022 23.6883 26.9788 20.3079 21.8787 19.6002C16.8425 18.901 11.7273 21.0644 8.43024 25.1935Z" fill="#79D6FA"/>
<path fill-rule="evenodd" clip-rule="evenodd" d="M15.0549 25.8004C15.0549 23.0607 17.2761 20.8391 20.0162 20.8391C22.7563 20.8391 24.9775 23.0607 24.9775 25.8004C24.9775 28.5405 22.7563 30.7617 20.0162 30.7617C17.2761 30.7617 15.0549 28.5405 15.0549 25.8004Z" fill="white"/>
<path fill-rule="evenodd" clip-rule="evenodd" d="M17.4502 25.6291C17.4502 24.3062 18.5227 23.2341 19.8455 23.2341C21.1683 23.2341 22.2404 24.3062 22.2404 25.6291C22.2404 26.9519 21.1683 28.0243 19.8455 28.0243C18.5227 28.0243 17.4502 26.9519 17.4502 25.6291Z" fill="#406BCD"/>
<path d="M20.5295 24.2605C20.6408 24.2888 20.7469 24.3251 20.8468 24.3689C20.9661 24.4207 21.0763 24.4828 21.1758 24.5535C21.2502 24.6064 21.3187 24.664 21.3799 24.7259C21.4473 24.794 21.5066 24.8675 21.556 24.9448" stroke="white" stroke-linecap="round" stroke-linejoin="round"/>
<path fill-rule="evenodd" clip-rule="evenodd" d="M13.3975 16.4812L15.3621 18.7699L13.3975 16.4812Z" fill="white"/>
<path d="M13.3975 16.4812L15.3621 18.7699" stroke="#79D6FA" stroke-width="2" stroke-linecap="round" stroke-linejoin="round"/>
<path fill-rule="evenodd" clip-rule="evenodd" d="M26.5127 16.4812L24.5483 18.7699L26.5127 16.4812Z" fill="white"/>
<path d="M26.5127 16.4812L24.5483 18.7699" stroke="#79D6FA" stroke-width="2" stroke-linecap="round" stroke-linejoin="round"/>
<path d="M20 15.5503V18.2102" stroke="#79D6FA" stroke-width="2" stroke-linecap="round" stroke-linejoin="round"/>
</svg>
