<svg width="40" height="40" viewBox="0 0 40 40" fill="none" xmlns="http://www.w3.org/2000/svg">
<path d="M20 40C31.0457 40 40 31.0457 40 20C40 8.9543 31.0457 0 20 0C8.9543 0 0 8.9543 0 20C0 31.0457 8.9543 40 20 40Z" fill="white"/>
<path fill-rule="evenodd" clip-rule="evenodd" d="M20 40C31.0457 40 40 31.0457 40 20C40 8.9543 31.0457 0 20 0C8.9543 0 0 8.9543 0 20C0 31.0457 8.9543 40 20 40Z" fill="#F8FAFB"/>
<path d="M17.1887 15.4399C21.166 15.4399 24.0069 15.4399 24.0069 15.4399C24.0069 15.4399 36.0244 29.26 31.9614 33.9999C28.1988 33.9999 14.916 33.9999 9.23417 33.9999C5.29442 29.4037 11.5557 22.0116 17.1887 15.4399Z" fill="url(#paint0_linear)"/>
<path d="M21.0679 28.6004C17.5072 30.7813 9.20061 33.9604 9.20061 33.9604C5.33023 29.3614 11.5718 21.9928 17.1887 15.4399H24.0069C26.0207 17.7558 27.6959 19.8805 29.0324 21.8139C29.0324 21.8139 24.1178 26.7324 21.0679 28.6004Z" fill="url(#paint1_linear)"/>
<path fill-rule="evenodd" clip-rule="evenodd" d="M20.8179 31.76C24.5835 31.76 27.6361 28.9036 27.6361 25.38C27.6361 21.8564 24.5835 19 20.8179 19C17.0524 19 13.9998 21.8564 13.9998 25.38C13.9998 28.9036 17.0524 31.76 20.8179 31.76Z" fill="white"/>
<path d="M20.401 25.9939L23.1413 23.3109C23.5604 22.9006 24.2448 22.8958 24.67 23.3002C24.6732 23.3033 24.6765 23.3065 24.6797 23.3096C25.1064 23.7259 25.1068 24.396 24.6807 24.8129L20.401 29L17.3201 25.9939C16.8933 25.5776 16.8933 24.9073 17.3201 24.4909C17.7408 24.0804 18.4267 24.0768 18.8521 24.4828C18.8549 24.4855 18.8577 24.4882 18.8605 24.4909L20.401 25.9939Z" fill="#1ACC94"/>
<path d="M15.9546 14.2801C15.9546 13.6439 16.4704 13.1201 17.1066 13.1201H23.8935C24.5297 13.1201 25.0455 13.6439 25.0455 14.2801C25.0455 14.9163 24.5297 15.4401 23.8935 15.4401H17.1066C16.4704 15.4401 15.9546 14.9163 15.9546 14.2801Z" fill="#FFD560"/>
<path d="M14.8179 6.16L20.4997 5L26.1815 6.16L23.9088 13.12H17.0906L14.8179 6.16Z" fill="url(#paint2_linear)"/>
<path d="M15.386 7.31982L13.6815 7.89982L17.0906 13.1198L15.386 7.31982Z" fill="#92F1D3"/>
<path d="M25.6137 7.31982L27.3183 7.89982L23.9092 13.1198L25.6137 7.31982Z" fill="#1ACC94"/>
<path opacity="0.4" d="M20.4998 5L26.1816 6.16L23.9088 13.12H20.4998V5Z" fill="url(#paint3_linear)"/>
<path d="M20.5925 14.5725C20.6363 14.2553 20.9237 14.0345 21.2344 14.0792C21.5452 14.124 21.7615 14.4174 21.7177 14.7346C21.7124 14.7727 21.7035 14.8535 21.6942 14.9705C21.6281 15.8077 21.6752 16.7528 21.9169 17.6306C22.1512 18.4815 22.5461 19.1607 23.1238 19.6239C23.3705 19.8218 23.4134 20.1864 23.2196 20.4383C23.0258 20.6902 22.6686 20.734 22.4218 20.5361C21.6354 19.9055 21.1178 19.0153 20.8229 17.9445C20.5391 16.9135 20.4855 15.8396 20.5615 14.8773C20.5727 14.7363 20.5841 14.6328 20.5925 14.5725Z" fill="#FFD560"/>
<path d="M21.8423 15.0467C21.7418 14.7432 21.9013 14.4141 22.1986 14.3115C22.4959 14.2089 22.8183 14.3717 22.9188 14.6752C23.4773 16.3615 24.711 17.1801 26.7499 17.1801C27.0637 17.1801 27.3181 17.4397 27.3181 17.7601C27.3181 18.0804 27.0637 18.3401 26.7499 18.3401C24.2433 18.3401 22.5641 17.2259 21.8423 15.0467Z" fill="#FFD560"/>
<defs>
<linearGradient id="paint0_linear" x1="-4.49437" y1="24.7199" x2="13.2741" y2="48.6425" gradientUnits="userSpaceOnUse">
<stop stop-color="#92F1D3"/>
<stop offset="1" stop-color="#2EE3AA"/>
</linearGradient>
<linearGradient id="paint1_linear" x1="50.71" y1="23.798" x2="22.8274" y2="-1.71037" gradientUnits="userSpaceOnUse">
<stop stop-color="#1ACC94"/>
<stop offset="1" stop-color="#1ACC94" stop-opacity="0.01"/>
</linearGradient>
<linearGradient id="paint2_linear" x1="-5.52625" y1="4.61244" x2="-6.08032" y2="33.6967" gradientUnits="userSpaceOnUse">
<stop stop-color="#92F1D3"/>
<stop offset="1" stop-color="#2EE3AA"/>
</linearGradient>
<linearGradient id="paint3_linear" x1="17.6588" y1="9.06" x2="25.2874" y2="14.3979" gradientUnits="userSpaceOnUse">
<stop stop-color="#1ACC94"/>
<stop offset="1" stop-color="#2EE3AA"/>
</linearGradient>
</defs>
</svg>
