<svg width="40" height="40" viewBox="0 0 40 40" fill="none" xmlns="http://www.w3.org/2000/svg">
<path fill-rule="evenodd" clip-rule="evenodd" d="M20 40C31.0457 40 40 31.0457 40 20C40 8.95431 31.0457 0 20 0C8.95431 0 0 8.95431 0 20C0 31.0457 8.95431 40 20 40Z" fill="#F8FAFB"/>
<mask id="mask0" mask-type="alpha" maskUnits="userSpaceOnUse" x="0" y="0" width="40" height="40">
<path fill-rule="evenodd" clip-rule="evenodd" d="M20 40C31.0457 40 40 31.0457 40 20C40 8.95431 31.0457 0 20 0C8.95431 0 0 8.95431 0 20C0 31.0457 8.95431 40 20 40Z" fill="white"/>
<path fill-rule="evenodd" clip-rule="evenodd" d="M20 40C31.0457 40 40 31.0457 40 20C40 8.95431 31.0457 0 20 0C8.95431 0 0 8.95431 0 20C0 31.0457 8.95431 40 20 40Z" stroke="white"/>
</mask>
<g mask="url(#mask0)">
<path fill-rule="evenodd" clip-rule="evenodd" d="M9.28561 7.14307C17.857 7.14307 26.4285 7.14307 26.4285 7.14307V31.4288H17.8567L14.9996 28.5716L12.1424 31.4288L9.28544 28.5716L6.42847 31.4288C6.42847 31.4288 6.42847 10.8677 6.42847 10.0002C6.42847 8.57164 7.52802 7.14307 9.28561 7.14307Z" fill="#5685F1"/>
<path fill-rule="evenodd" clip-rule="evenodd" d="M13.5714 11.4288C13.5714 9.06185 11.6526 7.14307 9.28564 7.14307H26.4285C28.7954 7.14307 30.7142 9.06185 30.7142 11.4288H13.5714Z" fill="url(#paint0_linear)"/>
<path d="M17.1431 20.5715C17.1431 19.467 18.0385 18.5715 19.1431 18.5715H31.5716C32.6762 18.5715 33.5716 19.467 33.5716 20.5715V30.8572C33.5716 31.9618 32.6762 32.8572 31.5716 32.8572H19.1431C18.0385 32.8572 17.1431 31.9618 17.1431 30.8572V20.5715Z" fill="url(#paint1_linear)"/>
<path d="M29.2852 18.5715H31.5709C32.6754 18.5715 33.5709 19.467 33.5709 20.5715V30.8572C33.5709 31.9618 32.6754 32.8572 31.5709 32.8572H29.2852V18.5715Z" fill="url(#paint2_linear)"/>
<path d="M20.7141 18.5715L26.4286 18.5715V22.8572L25 22.143L23.5842 22.8572L22.1429 22.143L20.7141 22.8572V18.5715Z" fill="#2FB7EC"/>
<rect x="24.2852" y="28.5715" width="4.28571" height="0.714286" fill="white"/>
<rect x="24.2852" y="30" width="4.28571" height="1.42857" fill="white"/>
<rect x="9.28564" y="12.8569" width="11.4286" height="1.42857" fill="#CEF2FD"/>
<rect x="9.28564" y="15.7144" width="5.71429" height="1.42857" fill="#CEF2FD"/>
<rect x="9.28564" y="18.5715" width="5.71429" height="1.42857" fill="#CEF2FD"/>
<rect x="9.28564" y="21.4285" width="5.71429" height="1.42857" fill="#CEF2FD"/>
</g>
<defs>
<linearGradient id="paint0_linear" x1="41.4285" y1="9.28592" x2="39.7801" y2="1.04417" gradientUnits="userSpaceOnUse">
<stop stop-color="#5685F1"/>
<stop offset="1" stop-color="#326BEE"/>
</linearGradient>
<linearGradient id="paint1_linear" x1="41.7859" y1="25.7144" x2="27.6386" y2="9.44498" gradientUnits="userSpaceOnUse">
<stop stop-color="#CEF2FD"/>
<stop offset="1" stop-color="#8BDCFB"/>
</linearGradient>
<linearGradient id="paint2_linear" x1="34.413" y1="37.0823" x2="37.9274" y2="36.3818" gradientUnits="userSpaceOnUse">
<stop stop-color="#CEF2FD"/>
<stop offset="1" stop-color="#8BDCFB"/>
</linearGradient>
</defs>
</svg>
