<svg width="235" height="140" viewBox="0 0 235 140" fill="none" xmlns="http://www.w3.org/2000/svg">
<mask id="mask0" mask-type="alpha" maskUnits="userSpaceOnUse" x="1" y="0" width="234" height="140">
<rect x="1.97778" width="233.022" height="139.195" fill="white"/>
</mask>
<g mask="url(#mask0)">
<path fill-rule="evenodd" clip-rule="evenodd" d="M9.77588 112.68C9.77588 50.4486 60.1942 0 122.388 0C184.582 0 235.001 50.4486 235.001 112.68V138.889H9.77588V112.68Z" fill="url(#paint0_linear)"/>
<path d="M11.9453 109.846C11.1674 108.383 11.7228 106.567 13.1857 105.789L90.747 64.5488C92.21 63.7709 94.0265 64.3263 94.8043 65.7892L105.205 85.3492C105.982 86.8121 105.427 88.6286 103.964 89.4065L26.4028 130.647C24.9399 131.424 23.1234 130.869 22.3455 129.406L11.9453 109.846Z" fill="url(#paint1_linear)"/>
<path fill-rule="evenodd" clip-rule="evenodd" d="M100.664 136.284H140.078L140.219 123.264H100.805L100.664 136.284Z" fill="#3B96D1"/>
<mask id="mask1" mask-type="alpha" maskUnits="userSpaceOnUse" x="54" y="108" width="135" height="16">
<path fill-rule="evenodd" clip-rule="evenodd" d="M54.8214 108.93H188.832V123.789H54.8214V108.93Z" fill="white"/>
</mask>
<g mask="url(#mask1)">
<path fill-rule="evenodd" clip-rule="evenodd" d="M54.8214 112.971C54.8214 118.946 59.3464 123.789 64.9275 123.789H178.724C184.307 123.789 188.832 118.946 188.832 112.971V108.93C188.832 108.93 54.8214 109.252 54.8214 108.93V112.971Z" fill="#8ED2F3"/>
</g>
<mask id="mask2" mask-type="alpha" maskUnits="userSpaceOnUse" x="54" y="30" width="135" height="80">
<path fill-rule="evenodd" clip-rule="evenodd" d="M54.8214 30.1537H188.832V109.56H54.8214V30.1537Z" fill="white"/>
</mask>
<g mask="url(#mask2)">
<path fill-rule="evenodd" clip-rule="evenodd" d="M60.9071 30.1537C57.547 30.1537 54.8214 32.8949 54.8214 36.2776V109.426C54.8214 109.729 188.832 109.426 188.832 109.426V36.2776C188.832 32.8949 186.108 30.1537 182.746 30.1537H60.9071Z" fill="#1A4278"/>
</g>
<mask id="mask3" mask-type="alpha" maskUnits="userSpaceOnUse" x="54" y="30" width="136" height="109">
<path fill-rule="evenodd" clip-rule="evenodd" d="M54.8209 138.889H189.017V30.03H54.8209V138.889Z" fill="white"/>
</mask>
<g mask="url(#mask3)">
<path fill-rule="evenodd" clip-rule="evenodd" d="M62.3284 101.422H181.252V44.177H62.3284V101.422Z" fill="#FEFEFE"/>
<path fill-rule="evenodd" clip-rule="evenodd" d="M122.389 115.897C122.389 116.674 121.758 117.305 120.981 117.305C120.204 117.305 119.573 116.674 119.573 115.897C119.573 115.119 120.204 114.489 120.981 114.489C121.758 114.489 122.389 115.119 122.389 115.897Z" stroke="#FEFEFE" stroke-width="0.5"/>
<path fill-rule="evenodd" clip-rule="evenodd" d="M87.6665 138.889H152.419V136.073H87.6665V138.889Z" fill="#1A4278"/>
<path fill-rule="evenodd" clip-rule="evenodd" d="M62.3284 44.177H181.252V38.5464H62.3284V44.177Z" fill="#DBE4EA"/>
<path fill-rule="evenodd" clip-rule="evenodd" d="M71.854 41.3617C71.854 41.8809 71.4349 42.3001 70.9156 42.3001C70.3964 42.3001 69.9772 41.8809 69.9772 41.3617C69.9772 40.8424 70.3964 40.4232 70.9156 40.4232C71.4349 40.4232 71.854 40.8424 71.854 41.3617Z" fill="#FEFEFE"/>
<path fill-rule="evenodd" clip-rule="evenodd" d="M67.232 41.3617C67.232 41.8809 66.8128 42.3001 66.2935 42.3001C65.7743 42.3001 65.3551 41.8809 65.3551 41.3617C65.3551 40.8424 65.7743 40.4232 66.2935 40.4232C66.8128 40.4232 67.232 40.8424 67.232 41.3617Z" fill="#FEFEFE"/>
<path fill-rule="evenodd" clip-rule="evenodd" d="M76.5459 41.3617C76.5459 41.8809 76.1254 42.3001 75.6084 42.3001C75.0896 42.3001 74.6691 41.8809 74.6691 41.3617C74.6691 40.8424 75.0896 40.4232 75.6084 40.4232C76.1254 40.4232 76.5459 40.8424 76.5459 41.3617Z" fill="#FEFEFE"/>
</g>
<path d="M193.912 91.0389C204.154 91.0389 211.47 91.0389 211.47 91.0389C211.47 91.0389 242.418 126.669 231.955 138.889C222.265 138.889 188.059 138.889 173.428 138.889C163.282 127.039 179.406 107.981 193.912 91.0389Z" fill="url(#paint2_linear)"/>
<path d="M204.08 125.041C194.862 130.675 173.357 138.889 173.357 138.889C163.338 127.007 179.496 107.969 194.037 91.0389H211.689C216.902 97.0223 221.239 102.512 224.699 107.507C224.699 107.507 211.976 120.214 204.08 125.041Z" fill="url(#paint3_linear)"/>
<path fill-rule="evenodd" clip-rule="evenodd" d="M202.835 133.939C212.632 133.939 220.573 126.367 220.573 117.026C220.573 107.686 212.632 100.114 202.835 100.114C193.039 100.114 185.098 107.686 185.098 117.026C185.098 126.367 193.039 133.939 202.835 133.939Z" fill="white"/>
<path d="M190.048 87.3186C190.048 85.728 191.338 84.4386 192.928 84.4386H211.093C212.684 84.4386 213.973 85.728 213.973 87.3186V88.1586C213.973 89.7492 212.684 91.0386 211.093 91.0386H192.928C191.338 91.0386 190.048 89.7492 190.048 88.1586V87.3186Z" fill="#FFD560"/>
<path d="M187.573 66.76L202.011 63.8136L216.448 66.76L210.673 84.4386H193.348L187.573 66.76Z" fill="url(#paint4_linear)"/>
<path d="M189.635 68.7635L185.098 70.331L194.173 84.4385L189.635 68.7635Z" fill="#92F1D3"/>
<path d="M215.211 68.7635L219.748 70.331L210.673 84.4385L215.211 68.7635Z" fill="#1ACC94"/>
<path opacity="0.4" d="M202.423 63.8136L217.273 66.76L211.333 84.4386H202.423V63.8136Z" fill="url(#paint5_linear)"/>
<path d="M202.588 88.2261C202.704 87.3918 203.463 86.8109 204.284 86.9286C205.104 87.0463 205.676 87.8181 205.56 88.6524C205.546 88.7526 205.523 88.9651 205.498 89.273C205.324 91.4749 205.448 93.961 206.086 96.2699C206.705 98.508 207.749 100.295 209.275 101.513C209.926 102.034 210.04 102.993 209.528 103.655C209.016 104.318 208.072 104.433 207.42 103.912C205.343 102.254 203.975 99.9121 203.197 97.0955C202.447 94.3836 202.305 91.5589 202.506 89.0278C202.535 88.657 202.566 88.3845 202.588 88.2261Z" fill="#FFD560"/>
<path d="M205.805 89.7621C205.534 88.9604 205.964 88.0907 206.766 87.8197C207.568 87.5486 208.438 87.9788 208.709 88.7805C210.215 93.2359 213.543 95.3987 219.042 95.3987C219.888 95.3987 220.574 96.0848 220.574 96.9311C220.574 97.7774 219.888 98.4635 219.042 98.4635C212.281 98.4635 207.752 95.5198 205.805 89.7621Z" fill="#FFD560"/>
<path d="M211.54 118.712C211.54 120.526 207.968 121.997 203.563 121.997C199.158 121.997 195.586 120.526 195.586 118.712V115.428H211.54V118.712Z" fill="#C6D8E4"/>
<path d="M203.564 118.243C207.969 118.243 211.54 116.772 211.54 114.958C211.54 113.144 207.969 111.674 203.564 111.674C199.158 111.674 195.587 113.144 195.587 114.958C195.587 116.772 199.158 118.243 203.564 118.243Z" fill="url(#paint6_linear)"/>
<path opacity="0.739351" fill-rule="evenodd" clip-rule="evenodd" d="M186.359 92.7117L196.1 96.4408L193.646 106.667C193.646 106.667 202.099 114.964 207.348 123.943C212.597 132.922 208.848 138.889 207.348 138.889C205.848 138.889 197.914 138.889 197.914 138.889L184.728 110.611L186.359 92.7117Z" fill="#DAE4EA"/>
<path d="M179.401 108.859C185.799 108.859 190.37 108.859 190.37 108.859C190.37 108.859 209.703 131.219 203.166 138.889C197.113 138.889 175.745 138.889 166.604 138.889C160.266 131.452 170.339 119.491 179.401 108.859Z" fill="url(#paint7_linear)"/>
<path d="M185.642 130.152C179.913 133.681 166.55 138.825 166.55 138.825C160.324 131.384 170.365 119.461 179.401 108.859H190.37C193.609 112.606 196.304 116.043 198.454 119.172C198.454 119.172 190.548 127.13 185.642 130.152Z" fill="url(#paint8_linear)"/>
<path fill-rule="evenodd" clip-rule="evenodd" d="M184.525 135.421C190.583 135.421 195.493 130.8 195.493 125.099C195.493 119.398 190.583 114.776 184.525 114.776C178.467 114.776 173.556 119.398 173.556 125.099C173.556 130.8 178.467 135.421 184.525 135.421Z" fill="white"/>
<path d="M177.415 106.982C177.415 105.945 178.255 105.105 179.292 105.105H190.163C191.2 105.105 192.04 105.945 192.04 106.982C192.04 108.018 191.2 108.859 190.163 108.859H179.292C178.255 108.859 177.415 108.018 177.415 106.982Z" fill="#FFD560"/>
<path d="M175.587 93.8435L184.727 91.9667L193.868 93.8435L190.212 105.105H179.243L175.587 93.8435Z" fill="url(#paint9_linear)"/>
<path d="M176.502 95.7206L173.76 96.659L179.244 105.105L176.502 95.7206Z" fill="#92F1D3"/>
<path d="M192.954 95.7206L195.696 96.659L190.212 105.105L192.954 95.7206Z" fill="#1ACC94"/>
<path opacity="0.4" d="M184.728 91.9667L193.869 93.8435L190.213 105.105H184.728V91.9667Z" fill="url(#paint10_linear)"/>
<path d="M184.876 107.455C184.947 106.942 185.409 106.584 185.909 106.657C186.409 106.729 186.757 107.204 186.686 107.717C186.678 107.779 186.664 107.909 186.649 108.099C186.542 109.453 186.618 110.983 187.007 112.403C187.384 113.78 188.019 114.879 188.949 115.628C189.345 115.948 189.415 116.538 189.103 116.946C188.791 117.353 188.216 117.424 187.819 117.104C186.554 116.084 185.721 114.643 185.247 112.911C184.79 111.243 184.704 109.505 184.827 107.948C184.844 107.72 184.863 107.552 184.876 107.455Z" fill="#FFD560"/>
<path d="M186.887 108.222C186.725 107.731 186.982 107.199 187.46 107.033C187.939 106.867 188.457 107.13 188.619 107.621C189.517 110.349 191.502 111.674 194.782 111.674C195.287 111.674 195.696 112.094 195.696 112.612C195.696 113.131 195.287 113.551 194.782 113.551C190.75 113.551 188.048 111.748 186.887 108.222Z" fill="#FFD560"/>
<path d="M189.956 126.965C189.956 128.245 187.435 129.283 184.325 129.283C181.216 129.283 178.695 128.245 178.695 126.965V124.646H189.956V126.965Z" fill="#C6D8E4"/>
<path d="M184.327 126.634C187.436 126.634 189.957 125.596 189.957 124.315C189.957 123.035 187.436 121.997 184.327 121.997C181.217 121.997 178.696 123.035 178.696 124.315C178.696 125.596 181.217 126.634 184.327 126.634Z" fill="url(#paint11_linear)"/>
<rect x="91.42" y="75.0747" width="13.1381" height="21.584" rx="1" fill="#EEF2F5"/>
<path d="M91.42 83.5205H104.558V95.6586C104.558 96.2109 104.11 96.6586 103.558 96.6586H92.42C91.8678 96.6586 91.42 96.2109 91.42 95.6586V83.5205Z" fill="#DBE4EA"/>
<rect x="107.373" y="60.998" width="13.1381" height="35.6606" rx="1" fill="#EEF2F5"/>
<path d="M107.373 83.5205H120.511V95.6586C120.511 96.2109 120.064 96.6586 119.511 96.6586H108.373C107.821 96.6586 107.373 96.2109 107.373 95.6586V83.5205Z" fill="#DBE4EA"/>
<rect x="123.328" y="66.6288" width="13.1381" height="30.03" rx="1" fill="#EEF2F5"/>
<path d="M123.328 83.5205H136.466V95.6586C136.466 96.2109 136.018 96.6586 135.466 96.6586H124.328C123.775 96.6586 123.328 96.2109 123.328 95.6586V83.5205Z" fill="#DBE4EA"/>
<rect x="139.281" y="50.6754" width="13.1381" height="45.9834" rx="1" fill="#EEF2F5"/>
<path d="M139.281 83.5205H152.419V95.6586C152.419 96.2109 151.971 96.6586 151.419 96.6586H140.281C139.728 96.6586 139.281 96.2109 139.281 95.6586V83.5205Z" fill="#DBE4EA"/>
<g filter="url(#filter0_d)">
<path d="M62.9204 95.4088C62.2301 95.4088 61.6704 95.9684 61.6704 96.6588C61.6704 97.3492 62.2301 97.9088 62.9204 97.9088V95.4088ZM91.5105 96.6588V97.9088C91.795 97.9088 92.0709 97.8118 92.2928 97.6338L91.5105 96.6588ZM108.893 82.7127L109.338 81.5448C108.924 81.3866 108.457 81.46 108.111 81.7377L108.893 82.7127ZM123.51 88.2911L123.065 89.459C123.522 89.6333 124.038 89.5252 124.387 89.1823L123.51 88.2911ZM164.618 47.8601L150.646 51.4799L160.767 61.7705L164.618 47.8601ZM62.9204 97.9088C62.9314 97.9088 62.9425 97.9088 62.9537 97.9088C62.9648 97.9088 62.976 97.9088 62.9873 97.9088C62.9986 97.9088 63.0099 97.9088 63.0213 97.9088C63.0327 97.9088 63.0442 97.9088 63.0557 97.9088C63.0673 97.9088 63.0789 97.9088 63.0906 97.9088C63.1022 97.9088 63.114 97.9088 63.1258 97.9088C63.1376 97.9088 63.1494 97.9088 63.1613 97.9088C63.1733 97.9088 63.1853 97.9088 63.1973 97.9088C63.2094 97.9088 63.2215 97.9088 63.2337 97.9088C63.2458 97.9088 63.2581 97.9088 63.2704 97.9088C63.2827 97.9088 63.2951 97.9088 63.3075 97.9088C63.3199 97.9088 63.3324 97.9088 63.345 97.9088C63.3575 97.9088 63.3702 97.9088 63.3828 97.9088C63.3955 97.9088 63.4083 97.9088 63.4211 97.9088C63.4339 97.9088 63.4467 97.9088 63.4597 97.9088C63.4726 97.9088 63.4856 97.9088 63.4986 97.9088C63.5117 97.9088 63.5248 97.9088 63.538 97.9088C63.5512 97.9088 63.5644 97.9088 63.5777 97.9088C63.591 97.9088 63.6043 97.9088 63.6178 97.9088C63.6312 97.9088 63.6446 97.9088 63.6582 97.9088C63.6717 97.9088 63.6853 97.9088 63.699 97.9088C63.7126 97.9088 63.7264 97.9088 63.7401 97.9088C63.7539 97.9088 63.7677 97.9088 63.7816 97.9088C63.7955 97.9088 63.8095 97.9088 63.8235 97.9088C63.8375 97.9088 63.8516 97.9088 63.8657 97.9088C63.8798 97.9088 63.894 97.9088 63.9083 97.9088C63.9225 97.9088 63.9368 97.9088 63.9512 97.9088C63.9655 97.9088 63.98 97.9088 63.9944 97.9088C64.0089 97.9088 64.0235 97.9088 64.0381 97.9088C64.0526 97.9088 64.0673 97.9088 64.082 97.9088C64.0967 97.9088 64.1115 97.9088 64.1263 97.9088C64.1411 97.9088 64.156 97.9088 64.1709 97.9088C64.1859 97.9088 64.2009 97.9088 64.2159 97.9088C64.231 97.9088 64.2461 97.9088 64.2612 97.9088C64.2764 97.9088 64.2916 97.9088 64.3069 97.9088C64.3221 97.9088 64.3375 97.9088 64.3528 97.9088C64.3682 97.9088 64.3837 97.9088 64.3991 97.9088C64.4146 97.9088 64.4302 97.9088 64.4458 97.9088C64.4614 97.9088 64.477 97.9088 64.4928 97.9088C64.5085 97.9088 64.5242 97.9088 64.54 97.9088C64.5559 97.9088 64.5717 97.9088 64.5877 97.9088C64.6036 97.9088 64.6196 97.9088 64.6356 97.9088C64.6516 97.9088 64.6677 97.9088 64.6839 97.9088C64.7 97.9088 64.7162 97.9088 64.7324 97.9088C64.7487 97.9088 64.765 97.9088 64.7813 97.9088C64.7977 97.9088 64.8141 97.9088 64.8305 97.9088C64.847 97.9088 64.8635 97.9088 64.8801 97.9088C64.8966 97.9088 64.9132 97.9088 64.9299 97.9088C64.9466 97.9088 64.9633 97.9088 64.9801 97.9088C64.9968 97.9088 65.0136 97.9088 65.0305 97.9088C65.0474 97.9088 65.0643 97.9088 65.0813 97.9088C65.0982 97.9088 65.1153 97.9088 65.1323 97.9088C65.1494 97.9088 65.1665 97.9088 65.1837 97.9088C65.2009 97.9088 65.2181 97.9088 65.2354 97.9088C65.2526 97.9088 65.27 97.9088 65.2873 97.9088C65.3047 97.9088 65.3221 97.9088 65.3396 97.9088C65.3571 97.9088 65.3746 97.9088 65.3922 97.9088C65.4097 97.9088 65.4273 97.9088 65.445 97.9088C65.4627 97.9088 65.4804 97.9088 65.4981 97.9088C65.5159 97.9088 65.5337 97.9088 65.5516 97.9088C65.5694 97.9088 65.5874 97.9088 65.6053 97.9088C65.6233 97.9088 65.6413 97.9088 65.6593 97.9088C65.6774 97.9088 65.6955 97.9088 65.7136 97.9088C65.7318 97.9088 65.7499 97.9088 65.7682 97.9088C65.7864 97.9088 65.8047 97.9088 65.823 97.9088C65.8414 97.9088 65.8598 97.9088 65.8782 97.9088C65.8966 97.9088 65.9151 97.9088 65.9336 97.9088C65.9521 97.9088 65.9707 97.9088 65.9893 97.9088C66.0079 97.9088 66.0266 97.9088 66.0453 97.9088C66.064 97.9088 66.0827 97.9088 66.1015 97.9088C66.1203 97.9088 66.1391 97.9088 66.158 97.9088C66.1769 97.9088 66.1958 97.9088 66.2148 97.9088C66.2337 97.9088 66.2527 97.9088 66.2718 97.9088C66.2909 97.9088 66.31 97.9088 66.3291 97.9088C66.3483 97.9088 66.3674 97.9088 66.3867 97.9088C66.4059 97.9088 66.4252 97.9088 66.4445 97.9088C66.4638 97.9088 66.4832 97.9088 66.5026 97.9088C66.522 97.9088 66.5415 97.9088 66.5609 97.9088C66.5804 97.9088 66.6 97.9088 66.6196 97.9088C66.6391 97.9088 66.6587 97.9088 66.6784 97.9088C66.6981 97.9088 66.7178 97.9088 66.7375 97.9088C66.7573 97.9088 66.777 97.9088 66.7969 97.9088C66.8167 97.9088 66.8366 97.9088 66.8565 97.9088C66.8764 97.9088 66.8963 97.9088 66.9163 97.9088C66.9363 97.9088 66.9564 97.9088 66.9764 97.9088C66.9965 97.9088 67.0166 97.9088 67.0368 97.9088C67.0569 97.9088 67.0771 97.9088 67.0974 97.9088C67.1176 97.9088 67.1379 97.9088 67.1582 97.9088C67.1785 97.9088 67.1989 97.9088 67.2193 97.9088C67.2396 97.9088 67.2601 97.9088 67.2806 97.9088C67.301 97.9088 67.3215 97.9088 67.3421 97.9088C67.3626 97.9088 67.3832 97.9088 67.4039 97.9088C67.4245 97.9088 67.4451 97.9088 67.4658 97.9088C67.4865 97.9088 67.5073 97.9088 67.5281 97.9088C67.5489 97.9088 67.5697 97.9088 67.5905 97.9088C67.6114 97.9088 67.6323 97.9088 67.6532 97.9088C67.6741 97.9088 67.6951 97.9088 67.7161 97.9088C67.7371 97.9088 67.7581 97.9088 67.7792 97.9088C67.8003 97.9088 67.8214 97.9088 67.8426 97.9088C67.8637 97.9088 67.8849 97.9088 67.9061 97.9088C67.9273 97.9088 67.9486 97.9088 67.9699 97.9088C67.9912 97.9088 68.0125 97.9088 68.0339 97.9088C68.0553 97.9088 68.0767 97.9088 68.0981 97.9088C68.1195 97.9088 68.141 97.9088 68.1625 97.9088C68.184 97.9088 68.2055 97.9088 68.2271 97.9088C68.2487 97.9088 68.2703 97.9088 68.292 97.9088C68.3136 97.9088 68.3353 97.9088 68.357 97.9088C68.3787 97.9088 68.4004 97.9088 68.4222 97.9088C68.444 97.9088 68.4658 97.9088 68.4877 97.9088C68.5095 97.9088 68.5314 97.9088 68.5533 97.9088C68.5752 97.9088 68.5972 97.9088 68.6191 97.9088C68.6411 97.9088 68.6631 97.9088 68.6852 97.9088C68.7072 97.9088 68.7293 97.9088 68.7514 97.9088C68.7735 97.9088 68.7957 97.9088 68.8178 97.9088C68.84 97.9088 68.8622 97.9088 68.8844 97.9088C68.9067 97.9088 68.929 97.9088 68.9513 97.9088C68.9736 97.9088 68.9959 97.9088 69.0182 97.9088C69.0406 97.9088 69.063 97.9088 69.0854 97.9088C69.1078 97.9088 69.1303 97.9088 69.1528 97.9088C69.1753 97.9088 69.1978 97.9088 69.2203 97.9088C69.2429 97.9088 69.2654 97.9088 69.288 97.9088C69.3106 97.9088 69.3333 97.9088 69.3559 97.9088C69.3786 97.9088 69.4013 97.9088 69.424 97.9088C69.4467 97.9088 69.4695 97.9088 69.4923 97.9088C69.5151 97.9088 69.5379 97.9088 69.5607 97.9088C69.5835 97.9088 69.6064 97.9088 69.6293 97.9088C69.6522 97.9088 69.6751 97.9088 69.6981 97.9088C69.721 97.9088 69.744 97.9088 69.767 97.9088C69.79 97.9088 69.813 97.9088 69.8361 97.9088C69.8592 97.9088 69.8822 97.9088 69.9054 97.9088C69.9285 97.9088 69.9516 97.9088 69.9748 97.9088C69.9979 97.9088 70.0211 97.9088 70.0444 97.9088C70.0676 97.9088 70.0908 97.9088 70.1141 97.9088C70.1374 97.9088 70.1607 97.9088 70.184 97.9088C70.2073 97.9088 70.2307 97.9088 70.2541 97.9088C70.2774 97.9088 70.3008 97.9088 70.3243 97.9088C70.3477 97.9088 70.3712 97.9088 70.3946 97.9088C70.4181 97.9088 70.4416 97.9088 70.4651 97.9088C70.4887 97.9088 70.5122 97.9088 70.5358 97.9088C70.5594 97.9088 70.583 97.9088 70.6066 97.9088C70.6302 97.9088 70.6539 97.9088 70.6776 97.9088C70.7012 97.9088 70.7249 97.9088 70.7486 97.9088C70.7724 97.9088 70.7961 97.9088 70.8199 97.9088C70.8436 97.9088 70.8674 97.9088 70.8913 97.9088C70.9151 97.9088 70.9389 97.9088 70.9628 97.9088C70.9866 97.9088 71.0105 97.9088 71.0344 97.9088C71.0583 97.9088 71.0822 97.9088 71.1062 97.9088C71.1301 97.9088 71.1541 97.9088 71.1781 97.9088C71.2021 97.9088 71.2261 97.9088 71.2501 97.9088C71.2742 97.9088 71.2982 97.9088 71.3223 97.9088C71.3464 97.9088 71.3705 97.9088 71.3946 97.9088C71.4187 97.9088 71.4428 97.9088 71.467 97.9088C71.4912 97.9088 71.5153 97.9088 71.5395 97.9088C71.5637 97.9088 71.588 97.9088 71.6122 97.9088C71.6364 97.9088 71.6607 97.9088 71.685 97.9088C71.7093 97.9088 71.7336 97.9088 71.7579 97.9088C71.7822 97.9088 71.8065 97.9088 71.8309 97.9088C71.8552 97.9088 71.8796 97.9088 71.904 97.9088C71.9284 97.9088 71.9528 97.9088 71.9772 97.9088C72.0017 97.9088 72.0261 97.9088 72.0506 97.9088C72.0751 97.9088 72.0995 97.9088 72.124 97.9088C72.1485 97.9088 72.1731 97.9088 72.1976 97.9088C72.2221 97.9088 72.2467 97.9088 72.2713 97.9088C72.2958 97.9088 72.3204 97.9088 72.345 97.9088C72.3696 97.9088 72.3943 97.9088 72.4189 97.9088C72.4436 97.9088 72.4682 97.9088 72.4929 97.9088C72.5176 97.9088 72.5422 97.9088 72.5669 97.9088C72.5917 97.9088 72.6164 97.9088 72.6411 97.9088C72.6658 97.9088 72.6906 97.9088 72.7154 97.9088C72.7401 97.9088 72.7649 97.9088 72.7897 97.9088C72.8145 97.9088 72.8393 97.9088 72.8642 97.9088C72.889 97.9088 72.9138 97.9088 72.9387 97.9088C72.9635 97.9088 72.9884 97.9088 73.0133 97.9088C73.0382 97.9088 73.0631 97.9088 73.088 97.9088C73.1129 97.9088 73.1378 97.9088 73.1628 97.9088C73.1877 97.9088 73.2127 97.9088 73.2376 97.9088C73.2626 97.9088 73.2876 97.9088 73.3126 97.9088C73.3376 97.9088 73.3626 97.9088 73.3876 97.9088C73.4126 97.9088 73.4377 97.9088 73.4627 97.9088C73.4877 97.9088 73.5128 97.9088 73.5379 97.9088C73.5629 97.9088 73.588 97.9088 73.6131 97.9088C73.6382 97.9088 73.6633 97.9088 73.6884 97.9088C73.7135 97.9088 73.7387 97.9088 73.7638 97.9088C73.7889 97.9088 73.8141 97.9088 73.8392 97.9088C73.8644 97.9088 73.8896 97.9088 73.9148 97.9088C73.9399 97.9088 73.9651 97.9088 73.9903 97.9088C74.0155 97.9088 74.0408 97.9088 74.066 97.9088C74.0912 97.9088 74.1164 97.9088 74.1417 97.9088C74.1669 97.9088 74.1922 97.9088 74.2174 97.9088C74.2427 97.9088 74.268 97.9088 74.2932 97.9088C74.3185 97.9088 74.3438 97.9088 74.3691 97.9088C74.3944 97.9088 74.4197 97.9088 74.445 97.9088C74.4703 97.9088 74.4957 97.9088 74.521 97.9088C74.5463 97.9088 74.5717 97.9088 74.597 97.9088C74.6224 97.9088 74.6477 97.9088 74.6731 97.9088C74.6984 97.9088 74.7238 97.9088 74.7492 97.9088C74.7746 97.9088 74.7999 97.9088 74.8253 97.9088C74.8507 97.9088 74.8761 97.9088 74.9015 97.9088C74.9269 97.9088 74.9523 97.9088 74.9778 97.9088C75.0032 97.9088 75.0286 97.9088 75.054 97.9088C75.0795 97.9088 75.1049 97.9088 75.1303 97.9088C75.1558 97.9088 75.1812 97.9088 75.2067 97.9088C75.2321 97.9088 75.2576 97.9088 75.2831 97.9088C75.3085 97.9088 75.334 97.9088 75.3595 97.9088C75.3849 97.9088 75.4104 97.9088 75.4359 97.9088C75.4614 97.9088 75.4869 97.9088 75.5124 97.9088C75.5379 97.9088 75.5634 97.9088 75.5889 97.9088C75.6144 97.9088 75.6399 97.9088 75.6654 97.9088C75.6909 97.9088 75.7164 97.9088 75.7419 97.9088C75.7674 97.9088 75.7929 97.9088 75.8185 97.9088C75.844 97.9088 75.8695 97.9088 75.895 97.9088C75.9206 97.9088 75.9461 97.9088 75.9716 97.9088C75.9971 97.9088 76.0227 97.9088 76.0482 97.9088C76.0738 97.9088 76.0993 97.9088 76.1248 97.9088C76.1504 97.9088 76.1759 97.9088 76.2015 97.9088C76.227 97.9088 76.2526 97.9088 76.2781 97.9088C76.3036 97.9088 76.3292 97.9088 76.3547 97.9088C76.3803 97.9088 76.4058 97.9088 76.4314 97.9088C76.4569 97.9088 76.4825 97.9088 76.508 97.9088C76.5336 97.9088 76.5591 97.9088 76.5847 97.9088C76.6103 97.9088 76.6358 97.9088 76.6614 97.9088C76.6869 97.9088 76.7125 97.9088 76.738 97.9088C76.7636 97.9088 76.7891 97.9088 76.8147 97.9088C76.8402 97.9088 76.8658 97.9088 76.8913 97.9088C76.9169 97.9088 76.9424 97.9088 76.9679 97.9088C76.9935 97.9088 77.019 97.9088 77.0446 97.9088C77.0701 97.9088 77.0957 97.9088 77.1212 97.9088C77.1467 97.9088 77.1723 97.9088 77.1978 97.9088C77.2233 97.9088 77.2489 97.9088 77.2744 97.9088C77.2999 97.9088 77.3254 97.9088 77.351 97.9088C77.3765 97.9088 77.402 97.9088 77.4275 97.9088C77.453 97.9088 77.4786 97.9088 77.5041 97.9088C77.5296 97.9088 77.5551 97.9088 77.5806 97.9088C77.6061 97.9088 77.6316 97.9088 77.6571 97.9088C77.6826 97.9088 77.7081 97.9088 77.7336 97.9088C77.759 97.9088 77.7845 97.9088 77.81 97.9088C77.8355 97.9088 77.8609 97.9088 77.8864 97.9088C77.9119 97.9088 77.9373 97.9088 77.9628 97.9088C77.9883 97.9088 78.0137 97.9088 78.0391 97.9088C78.0646 97.9088 78.09 97.9088 78.1155 97.9088C78.1409 97.9088 78.1663 97.9088 78.1918 97.9088C78.2172 97.9088 78.2426 97.9088 78.268 97.9088C78.2934 97.9088 78.3188 97.9088 78.3442 97.9088C78.3696 97.9088 78.395 97.9088 78.4204 97.9088C78.4457 97.9088 78.4711 97.9088 78.4965 97.9088C78.5219 97.9088 78.5472 97.9088 78.5726 97.9088C78.5979 97.9088 78.6233 97.9088 78.6486 97.9088C78.6739 97.9088 78.6993 97.9088 78.7246 97.9088C78.7499 97.9088 78.7752 97.9088 78.8005 97.9088C78.8258 97.9088 78.8511 97.9088 78.8764 97.9088C78.9017 97.9088 78.9269 97.9088 78.9522 97.9088C78.9775 97.9088 79.0027 97.9088 79.028 97.9088C79.0532 97.9088 79.0785 97.9088 79.1037 97.9088C79.1289 97.9088 79.1541 97.9088 79.1794 97.9088C79.2046 97.9088 79.2298 97.9088 79.2549 97.9088C79.2801 97.9088 79.3053 97.9088 79.3305 97.9088C79.3556 97.9088 79.3808 97.9088 79.4059 97.9088C79.4311 97.9088 79.4562 97.9088 79.4813 97.9088C79.5065 97.9088 79.5316 97.9088 79.5567 97.9088C79.5818 97.9088 79.6069 97.9088 79.6319 97.9088C79.657 97.9088 79.6821 97.9088 79.7071 97.9088C79.7322 97.9088 79.7572 97.9088 79.7822 97.9088C79.8073 97.9088 79.8323 97.9088 79.8573 97.9088C79.8823 97.9088 79.9073 97.9088 79.9322 97.9088C79.9572 97.9088 79.9822 97.9088 80.0071 97.9088C80.0321 97.9088 80.057 97.9088 80.0819 97.9088C80.1069 97.9088 80.1318 97.9088 80.1567 97.9088C80.1815 97.9088 80.2064 97.9088 80.2313 97.9088C80.2562 97.9088 80.281 97.9088 80.3058 97.9088C80.3307 97.9088 80.3555 97.9088 80.3803 97.9088C80.4051 97.9088 80.4299 97.9088 80.4547 97.9088C80.4795 97.9088 80.5042 97.9088 80.529 97.9088C80.5537 97.9088 80.5784 97.9088 80.6031 97.9088C80.6279 97.9088 80.6526 97.9088 80.6772 97.9088C80.7019 97.9088 80.7266 97.9088 80.7512 97.9088C80.7759 97.9088 80.8005 97.9088 80.8251 97.9088C80.8498 97.9088 80.8744 97.9088 80.8989 97.9088C80.9235 97.9088 80.9481 97.9088 80.9726 97.9088C80.9972 97.9088 81.0217 97.9088 81.0462 97.9088C81.0707 97.9088 81.0952 97.9088 81.1197 97.9088C81.1442 97.9088 81.1686 97.9088 81.1931 97.9088C81.2175 97.9088 81.2419 97.9088 81.2663 97.9088C81.2908 97.9088 81.3151 97.9088 81.3395 97.9088C81.3639 97.9088 81.3882 97.9088 81.4125 97.9088C81.4369 97.9088 81.4612 97.9088 81.4855 97.9088C81.5098 97.9088 81.534 97.9088 81.5583 97.9088C81.5825 97.9088 81.6068 97.9088 81.631 97.9088C81.6552 97.9088 81.6794 97.9088 81.7036 97.9088C81.7277 97.9088 81.7519 97.9088 81.776 97.9088C81.8001 97.9088 81.8242 97.9088 81.8483 97.9088C81.8724 97.9088 81.8965 97.9088 81.9205 97.9088C81.9446 97.9088 81.9686 97.9088 81.9926 97.9088C82.0166 97.9088 82.0406 97.9088 82.0645 97.9088C82.0885 97.9088 82.1124 97.9088 82.1364 97.9088C82.1603 97.9088 82.1842 97.9088 82.208 97.9088C82.2319 97.9088 82.2558 97.9088 82.2796 97.9088C82.3034 97.9088 82.3272 97.9088 82.351 97.9088C82.3748 97.9088 82.3985 97.9088 82.4223 97.9088C82.446 97.9088 82.4697 97.9088 82.4934 97.9088C82.5171 97.9088 82.5407 97.9088 82.5644 97.9088C82.588 97.9088 82.6116 97.9088 82.6352 97.9088C82.6588 97.9088 82.6824 97.9088 82.7059 97.9088C82.7295 97.9088 82.753 97.9088 82.7765 97.9088C82.8 97.9088 82.8234 97.9088 82.8469 97.9088C82.8703 97.9088 82.8937 97.9088 82.9171 97.9088C82.9405 97.9088 82.9639 97.9088 82.9872 97.9088C83.0106 97.9088 83.0339 97.9088 83.0572 97.9088C83.0805 97.9088 83.1037 97.9088 83.127 97.9088C83.1502 97.9088 83.1734 97.9088 83.1966 97.9088C83.2198 97.9088 83.2429 97.9088 83.2661 97.9088C83.2892 97.9088 83.3123 97.9088 83.3354 97.9088C83.3584 97.9088 83.3815 97.9088 83.4045 97.9088C83.4275 97.9088 83.4505 97.9088 83.4735 97.9088C83.4965 97.9088 83.5194 97.9088 83.5423 97.9088C83.5652 97.9088 83.5881 97.9088 83.6109 97.9088C83.6338 97.9088 83.6566 97.9088 83.6794 97.9088C83.7022 97.9088 83.725 97.9088 83.7477 97.9088C83.7704 97.9088 83.7932 97.9088 83.8158 97.9088C83.8385 97.9088 83.8612 97.9088 83.8838 97.9088C83.9064 97.9088 83.929 97.9088 83.9516 97.9088C83.9741 97.9088 83.9966 97.9088 84.0191 97.9088C84.0416 97.9088 84.0641 97.9088 84.0866 97.9088C84.109 97.9088 84.1314 97.9088 84.1538 97.9088C84.1762 97.9088 84.1985 97.9088 84.2208 97.9088C84.2431 97.9088 84.2654 97.9088 84.2877 97.9088C84.3099 97.9088 84.3322 97.9088 84.3543 97.9088C84.3765 97.9088 84.3987 97.9088 84.4208 97.9088C84.4429 97.9088 84.465 97.9088 84.4871 97.9088C84.5092 97.9088 84.5312 97.9088 84.5532 97.9088C84.5752 97.9088 84.5972 97.9088 84.6191 97.9088C84.641 97.9088 84.6629 97.9088 84.6848 97.9088C84.7066 97.9088 84.7285 97.9088 84.7503 97.9088C84.7721 97.9088 84.7938 97.9088 84.8156 97.9088C84.8373 97.9088 84.859 97.9088 84.8807 97.9088C84.9023 97.9088 84.924 97.9088 84.9456 97.9088C84.9671 97.9088 84.9887 97.9088 85.0102 97.9088C85.0318 97.9088 85.0532 97.9088 85.0747 97.9088C85.0962 97.9088 85.1176 97.9088 85.139 97.9088C85.1603 97.9088 85.1817 97.9088 85.203 97.9088C85.2243 97.9088 85.2456 97.9088 85.2668 97.9088C85.2881 97.9088 85.3093 97.9088 85.3305 97.9088C85.3516 97.9088 85.3728 97.9088 85.3939 97.9088C85.415 97.9088 85.436 97.9088 85.457 97.9088C85.4781 97.9088 85.4991 97.9088 85.52 97.9088C85.541 97.9088 85.5619 97.9088 85.5827 97.9088C85.6036 97.9088 85.6245 97.9088 85.6453 97.9088C85.6661 97.9088 85.6868 97.9088 85.7075 97.9088C85.7283 97.9088 85.749 97.9088 85.7696 97.9088C85.7903 97.9088 85.8109 97.9088 85.8314 97.9088C85.852 97.9088 85.8725 97.9088 85.893 97.9088C85.9135 97.9088 85.934 97.9088 85.9544 97.9088C85.9748 97.9088 85.9952 97.9088 86.0155 97.9088C86.0359 97.9088 86.0562 97.9088 86.0764 97.9088C86.0967 97.9088 86.1169 97.9088 86.1371 97.9088C86.1572 97.9088 86.1774 97.9088 86.1975 97.9088C86.2176 97.9088 86.2376 97.9088 86.2576 97.9088C86.2777 97.9088 86.2976 97.9088 86.3176 97.9088C86.3375 97.9088 86.3574 97.9088 86.3772 97.9088C86.3971 97.9088 86.4169 97.9088 86.4367 97.9088C86.4564 97.9088 86.4762 97.9088 86.4958 97.9088C86.5155 97.9088 86.5352 97.9088 86.5548 97.9088C86.5744 97.9088 86.5939 97.9088 86.6134 97.9088C86.633 97.9088 86.6524 97.9088 86.6719 97.9088C86.6913 97.9088 86.7107 97.9088 86.73 97.9088C86.7494 97.9088 86.7687 97.9088 86.7879 97.9088C86.8072 97.9088 86.8264 97.9088 86.8456 97.9088C86.8647 97.9088 86.8839 97.9088 86.9029 97.9088C86.922 97.9088 86.9411 97.9088 86.9601 97.9088C86.979 97.9088 86.998 97.9088 87.0169 97.9088C87.0358 97.9088 87.0547 97.9088 87.0735 97.9088C87.0923 97.9088 87.1111 97.9088 87.1298 97.9088C87.1485 97.9088 87.1672 97.9088 87.1858 97.9088C87.2045 97.9088 87.2231 97.9088 87.2416 97.9088C87.2601 97.9088 87.2786 97.9088 87.2971 97.9088C87.3155 97.9088 87.3339 97.9088 87.3523 97.9088C87.3707 97.9088 87.389 97.9088 87.4072 97.9088C87.4255 97.9088 87.4437 97.9088 87.4619 97.9088C87.4801 97.9088 87.4982 97.9088 87.5163 97.9088C87.5343 97.9088 87.5524 97.9088 87.5704 97.9088C87.5883 97.9088 87.6063 97.9088 87.6242 97.9088C87.642 97.9088 87.6599 97.9088 87.6777 97.9088C87.6955 97.9088 87.7132 97.9088 87.7309 97.9088C87.7486 97.9088 87.7662 97.9088 87.7838 97.9088C87.8014 97.9088 87.819 97.9088 87.8365 97.9088C87.854 97.9088 87.8714 97.9088 87.8888 97.9088C87.9062 97.9088 87.9236 97.9088 87.9409 97.9088C87.9582 97.9088 87.9754 97.9088 87.9926 97.9088C88.0098 97.9088 88.027 97.9088 88.0441 97.9088C88.0612 97.9088 88.0782 97.9088 88.0952 97.9088C88.1122 97.9088 88.1292 97.9088 88.146 97.9088C88.1629 97.9088 88.1798 97.9088 88.1966 97.9088C88.2134 97.9088 88.2301 97.9088 88.2468 97.9088C88.2635 97.9088 88.2801 97.9088 88.2967 97.9088C88.3133 97.9088 88.3299 97.9088 88.3463 97.9088C88.3628 97.9088 88.3793 97.9088 88.3956 97.9088C88.412 97.9088 88.4284 97.9088 88.4446 97.9088C88.4609 97.9088 88.4771 97.9088 88.4933 97.9088C88.5095 97.9088 88.5256 97.9088 88.5416 97.9088C88.5577 97.9088 88.5737 97.9088 88.5897 97.9088C88.6056 97.9088 88.6215 97.9088 88.6374 97.9088C88.6532 97.9088 88.669 97.9088 88.6848 97.9088C88.7005 97.9088 88.7162 97.9088 88.7318 97.9088C88.7474 97.9088 88.763 97.9088 88.7785 97.9088C88.7941 97.9088 88.8095 97.9088 88.8249 97.9088C88.8404 97.9088 88.8557 97.9088 88.871 97.9088C88.8863 97.9088 88.9016 97.9088 88.9167 97.9088C88.9319 97.9088 88.9471 97.9088 88.9621 97.9088C88.9772 97.9088 88.9922 97.9088 89.0072 97.9088C89.0222 97.9088 89.0371 97.9088 89.0519 97.9088C89.0668 97.9088 89.0816 97.9088 89.0963 97.9088C89.1111 97.9088 89.1257 97.9088 89.1404 97.9088C89.155 97.9088 89.1696 97.9088 89.1841 97.9088C89.1986 97.9088 89.213 97.9088 89.2274 97.9088C89.2418 97.9088 89.2562 97.9088 89.2704 97.9088C89.2847 97.9088 89.2989 97.9088 89.3131 97.9088C89.3273 97.9088 89.3414 97.9088 89.3554 97.9088C89.3695 97.9088 89.3834 97.9088 89.3974 97.9088C89.4113 97.9088 89.4252 97.9088 89.439 97.9088C89.4528 97.9088 89.4665 97.9088 89.4802 97.9088C89.4939 97.9088 89.5075 97.9088 89.5211 97.9088C89.5347 97.9088 89.5482 97.9088 89.5616 97.9088C89.5751 97.9088 89.5885 97.9088 89.6018 97.9088C89.6151 97.9088 89.6284 97.9088 89.6416 97.9088C89.6548 97.9088 89.668 97.9088 89.6811 97.9088C89.6941 97.9088 89.7072 97.9088 89.7201 97.9088C89.7331 97.9088 89.746 97.9088 89.7588 97.9088C89.7717 97.9088 89.7844 97.9088 89.7972 97.9088C89.8099 97.9088 89.8225 97.9088 89.8351 97.9088C89.8477 97.9088 89.8602 97.9088 89.8727 97.9088C89.8852 97.9088 89.8976 97.9088 89.9099 97.9088C89.9223 97.9088 89.9345 97.9088 89.9468 97.9088C89.959 97.9088 89.9711 97.9088 89.9832 97.9088C89.9953 97.9088 90.0073 97.9088 90.0193 97.9088C90.0312 97.9088 90.0431 97.9088 90.055 97.9088C90.0668 97.9088 90.0786 97.9088 90.0903 97.9088C90.102 97.9088 90.1136 97.9088 90.1252 97.9088C90.1368 97.9088 90.1483 97.9088 90.1597 97.9088C90.1712 97.9088 90.1826 97.9088 90.1939 97.9088C90.2052 97.9088 90.2164 97.9088 90.2276 97.9088C90.2388 97.9088 90.2499 97.9088 90.261 97.9088C90.272 97.9088 90.283 97.9088 90.2939 97.9088C90.3048 97.9088 90.3157 97.9088 90.3265 97.9088C90.3373 97.9088 90.348 97.9088 90.3586 97.9088C90.3693 97.9088 90.3799 97.9088 90.3904 97.9088C90.4009 97.9088 90.4114 97.9088 90.4218 97.9088C90.4321 97.9088 90.4425 97.9088 90.4527 97.9088C90.463 97.9088 90.4731 97.9088 90.4833 97.9088C90.4934 97.9088 90.5034 97.9088 90.5134 97.9088C90.5234 97.9088 90.5333 97.9088 90.5431 97.9088C90.553 97.9088 90.5627 97.9088 90.5724 97.9088C90.5821 97.9088 90.5918 97.9088 90.6013 97.9088C90.6109 97.9088 90.6204 97.9088 90.6298 97.9088C90.6392 97.9088 90.6486 97.9088 90.6579 97.9088C90.6672 97.9088 90.6764 97.9088 90.6855 97.9088C90.6947 97.9088 90.7038 97.9088 90.7128 97.9088C90.7218 97.9088 90.7307 97.9088 90.7396 97.9088C90.7484 97.9088 90.7572 97.9088 90.766 97.9088C90.7747 97.9088 90.7833 97.9088 90.7919 97.9088C90.8005 97.9088 90.809 97.9088 90.8174 97.9088C90.8259 97.9088 90.8342 97.9088 90.8425 97.9088C90.8508 97.9088 90.8591 97.9088 90.8672 97.9088C90.8754 97.9088 90.8834 97.9088 90.8914 97.9088C90.8994 97.9088 90.9074 97.9088 90.9152 97.9088C90.9231 97.9088 90.9309 97.9088 90.9386 97.9088C90.9463 97.9088 90.9539 97.9088 90.9615 97.9088C90.9691 97.9088 90.9766 97.9088 90.984 97.9088C90.9914 97.9088 90.9988 97.9088 91.006 97.9088C91.0133 97.9088 91.0205 97.9088 91.0276 97.9088C91.0347 97.9088 91.0418 97.9088 91.0488 97.9088C91.0557 97.9088 91.0626 97.9088 91.0695 97.9088C91.0763 97.9088 91.083 97.9088 91.0897 97.9088C91.0964 97.9088 91.103 97.9088 91.1095 97.9088C91.116 97.9088 91.1225 97.9088 91.1289 97.9088C91.1352 97.9088 91.1415 97.9088 91.1478 97.9088C91.154 97.9088 91.1601 97.9088 91.1662 97.9088C91.1723 97.9088 91.1782 97.9088 91.1842 97.9088C91.1901 97.9088 91.1959 97.9088 91.2017 97.9088C91.2074 97.9088 91.2131 97.9088 91.2187 97.9088C91.2243 97.9088 91.2299 97.9088 91.2353 97.9088C91.2408 97.9088 91.2461 97.9088 91.2514 97.9088C91.2567 97.9088 91.2619 97.9088 91.2671 97.9088C91.2722 97.9088 91.2773 97.9088 91.2823 97.9088C91.2873 97.9088 91.2922 97.9088 91.297 97.9088C91.3018 97.9088 91.3066 97.9088 91.3112 97.9088C91.3159 97.9088 91.3205 97.9088 91.325 97.9088C91.3295 97.9088 91.3339 97.9088 91.3383 97.9088C91.3426 97.9088 91.3469 97.9088 91.3511 97.9088C91.3553 97.9088 91.3594 97.9088 91.3634 97.9088C91.3674 97.9088 91.3714 97.9088 91.3753 97.9088C91.3791 97.9088 91.3829 97.9088 91.3866 97.9088C91.3903 97.9088 91.394 97.9088 91.3975 97.9088C91.401 97.9088 91.4045 97.9088 91.4079 97.9088C91.4113 97.9088 91.4146 97.9088 91.4178 97.9088C91.421 97.9088 91.4241 97.9088 91.4272 97.9088C91.4303 97.9088 91.4332 97.9088 91.4361 97.9088C91.439 97.9088 91.4418 97.9088 91.4445 97.9088C91.4473 97.9088 91.4499 97.9088 91.4525 97.9088C91.455 97.9088 91.4575 97.9088 91.4599 97.9088C91.4623 97.9088 91.4646 97.9088 91.4668 97.9088C91.469 97.9088 91.4712 97.9088 91.4732 97.9088C91.4753 97.9088 91.4773 97.9088 91.4792 97.9088C91.4811 97.9088 91.4829 97.9088 91.4846 97.9088C91.4863 97.9088 91.4879 97.9088 91.4895 97.9088C91.491 97.9088 91.4925 97.9088 91.4939 97.9088C91.4953 97.9088 91.4966 97.9088 91.4978 97.9088C91.499 97.9088 91.5001 97.9088 91.5012 97.9088C91.5022 97.9088 91.5032 97.9088 91.504 97.9088C91.5049 97.9088 91.5057 97.9088 91.5064 97.9088C91.5071 97.9088 91.5077 97.9088 91.5082 97.9088C91.5087 97.9088 91.5092 97.9088 91.5095 97.9088C91.5098 97.9088 91.5101 97.9088 91.5103 97.9088C91.5105 97.9088 91.5105 97.9088 91.5105 96.6588C91.5105 95.4088 91.5105 95.4088 91.5103 95.4088C91.5101 95.4088 91.5098 95.4088 91.5095 95.4088C91.5092 95.4088 91.5087 95.4088 91.5082 95.4088C91.5077 95.4088 91.5071 95.4088 91.5064 95.4088C91.5057 95.4088 91.5049 95.4088 91.504 95.4088C91.5032 95.4088 91.5022 95.4088 91.5012 95.4088C91.5001 95.4088 91.499 95.4088 91.4978 95.4088C91.4966 95.4088 91.4953 95.4088 91.4939 95.4088C91.4925 95.4088 91.491 95.4088 91.4895 95.4088C91.4879 95.4088 91.4863 95.4088 91.4846 95.4088C91.4829 95.4088 91.4811 95.4088 91.4792 95.4088C91.4773 95.4088 91.4753 95.4088 91.4732 95.4088C91.4712 95.4088 91.469 95.4088 91.4668 95.4088C91.4646 95.4088 91.4623 95.4088 91.4599 95.4088C91.4575 95.4088 91.455 95.4088 91.4525 95.4088C91.4499 95.4088 91.4473 95.4088 91.4445 95.4088C91.4418 95.4088 91.439 95.4088 91.4361 95.4088C91.4332 95.4088 91.4303 95.4088 91.4272 95.4088C91.4241 95.4088 91.421 95.4088 91.4178 95.4088C91.4146 95.4088 91.4113 95.4088 91.4079 95.4088C91.4045 95.4088 91.401 95.4088 91.3975 95.4088C91.394 95.4088 91.3903 95.4088 91.3866 95.4088C91.3829 95.4088 91.3791 95.4088 91.3753 95.4088C91.3714 95.4088 91.3674 95.4088 91.3634 95.4088C91.3594 95.4088 91.3553 95.4088 91.3511 95.4088C91.3469 95.4088 91.3426 95.4088 91.3383 95.4088C91.3339 95.4088 91.3295 95.4088 91.325 95.4088C91.3205 95.4088 91.3159 95.4088 91.3112 95.4088C91.3066 95.4088 91.3018 95.4088 91.297 95.4088C91.2922 95.4088 91.2873 95.4088 91.2823 95.4088C91.2773 95.4088 91.2722 95.4088 91.2671 95.4088C91.2619 95.4088 91.2567 95.4088 91.2514 95.4088C91.2461 95.4088 91.2408 95.4088 91.2353 95.4088C91.2299 95.4088 91.2243 95.4088 91.2187 95.4088C91.2131 95.4088 91.2074 95.4088 91.2017 95.4088C91.1959 95.4088 91.1901 95.4088 91.1842 95.4088C91.1782 95.4088 91.1723 95.4088 91.1662 95.4088C91.1601 95.4088 91.154 95.4088 91.1478 95.4088C91.1415 95.4088 91.1352 95.4088 91.1289 95.4088C91.1225 95.4088 91.116 95.4088 91.1095 95.4088C91.103 95.4088 91.0964 95.4088 91.0897 95.4088C91.083 95.4088 91.0763 95.4088 91.0695 95.4088C91.0626 95.4088 91.0557 95.4088 91.0488 95.4088C91.0418 95.4088 91.0347 95.4088 91.0276 95.4088C91.0205 95.4088 91.0133 95.4088 91.006 95.4088C90.9988 95.4088 90.9914 95.4088 90.984 95.4088C90.9766 95.4088 90.9691 95.4088 90.9615 95.4088C90.9539 95.4088 90.9463 95.4088 90.9386 95.4088C90.9309 95.4088 90.9231 95.4088 90.9152 95.4088C90.9074 95.4088 90.8994 95.4088 90.8914 95.4088C90.8834 95.4088 90.8754 95.4088 90.8672 95.4088C90.8591 95.4088 90.8508 95.4088 90.8425 95.4088C90.8342 95.4088 90.8259 95.4088 90.8174 95.4088C90.809 95.4088 90.8005 95.4088 90.7919 95.4088C90.7833 95.4088 90.7747 95.4088 90.766 95.4088C90.7572 95.4088 90.7484 95.4088 90.7396 95.4088C90.7307 95.4088 90.7218 95.4088 90.7128 95.4088C90.7038 95.4088 90.6947 95.4088 90.6855 95.4088C90.6764 95.4088 90.6672 95.4088 90.6579 95.4088C90.6486 95.4088 90.6392 95.4088 90.6298 95.4088C90.6204 95.4088 90.6109 95.4088 90.6013 95.4088C90.5918 95.4088 90.5821 95.4088 90.5724 95.4088C90.5627 95.4088 90.553 95.4088 90.5431 95.4088C90.5333 95.4088 90.5234 95.4088 90.5134 95.4088C90.5034 95.4088 90.4934 95.4088 90.4833 95.4088C90.4731 95.4088 90.463 95.4088 90.4527 95.4088C90.4425 95.4088 90.4321 95.4088 90.4218 95.4088C90.4114 95.4088 90.4009 95.4088 90.3904 95.4088C90.3799 95.4088 90.3693 95.4088 90.3586 95.4088C90.348 95.4088 90.3373 95.4088 90.3265 95.4088C90.3157 95.4088 90.3048 95.4088 90.2939 95.4088C90.283 95.4088 90.272 95.4088 90.261 95.4088C90.2499 95.4088 90.2388 95.4088 90.2276 95.4088C90.2164 95.4088 90.2052 95.4088 90.1939 95.4088C90.1826 95.4088 90.1712 95.4088 90.1597 95.4088C90.1483 95.4088 90.1368 95.4088 90.1252 95.4088C90.1136 95.4088 90.102 95.4088 90.0903 95.4088C90.0786 95.4088 90.0668 95.4088 90.055 95.4088C90.0431 95.4088 90.0312 95.4088 90.0193 95.4088C90.0073 95.4088 89.9953 95.4088 89.9832 95.4088C89.9711 95.4088 89.959 95.4088 89.9468 95.4088C89.9345 95.4088 89.9223 95.4088 89.9099 95.4088C89.8976 95.4088 89.8852 95.4088 89.8727 95.4088C89.8602 95.4088 89.8477 95.4088 89.8351 95.4088C89.8225 95.4088 89.8099 95.4088 89.7972 95.4088C89.7844 95.4088 89.7717 95.4088 89.7588 95.4088C89.746 95.4088 89.7331 95.4088 89.7201 95.4088C89.7072 95.4088 89.6941 95.4088 89.6811 95.4088C89.668 95.4088 89.6548 95.4088 89.6416 95.4088C89.6284 95.4088 89.6151 95.4088 89.6018 95.4088C89.5885 95.4088 89.5751 95.4088 89.5616 95.4088C89.5482 95.4088 89.5347 95.4088 89.5211 95.4088C89.5075 95.4088 89.4939 95.4088 89.4802 95.4088C89.4665 95.4088 89.4528 95.4088 89.439 95.4088C89.4252 95.4088 89.4113 95.4088 89.3974 95.4088C89.3834 95.4088 89.3695 95.4088 89.3554 95.4088C89.3414 95.4088 89.3273 95.4088 89.3131 95.4088C89.2989 95.4088 89.2847 95.4088 89.2704 95.4088C89.2562 95.4088 89.2418 95.4088 89.2274 95.4088C89.213 95.4088 89.1986 95.4088 89.1841 95.4088C89.1696 95.4088 89.155 95.4088 89.1404 95.4088C89.1257 95.4088 89.1111 95.4088 89.0963 95.4088C89.0816 95.4088 89.0668 95.4088 89.0519 95.4088C89.0371 95.4088 89.0222 95.4088 89.0072 95.4088C88.9922 95.4088 88.9772 95.4088 88.9621 95.4088C88.9471 95.4088 88.9319 95.4088 88.9167 95.4088C88.9016 95.4088 88.8863 95.4088 88.871 95.4088C88.8557 95.4088 88.8404 95.4088 88.8249 95.4088C88.8095 95.4088 88.7941 95.4088 88.7785 95.4088C88.763 95.4088 88.7474 95.4088 88.7318 95.4088C88.7162 95.4088 88.7005 95.4088 88.6848 95.4088C88.669 95.4088 88.6532 95.4088 88.6374 95.4088C88.6215 95.4088 88.6056 95.4088 88.5897 95.4088C88.5737 95.4088 88.5577 95.4088 88.5416 95.4088C88.5256 95.4088 88.5095 95.4088 88.4933 95.4088C88.4771 95.4088 88.4609 95.4088 88.4446 95.4088C88.4284 95.4088 88.412 95.4088 88.3956 95.4088C88.3793 95.4088 88.3628 95.4088 88.3463 95.4088C88.3299 95.4088 88.3133 95.4088 88.2967 95.4088C88.2801 95.4088 88.2635 95.4088 88.2468 95.4088C88.2301 95.4088 88.2134 95.4088 88.1966 95.4088C88.1798 95.4088 88.1629 95.4088 88.146 95.4088C88.1292 95.4088 88.1122 95.4088 88.0952 95.4088C88.0782 95.4088 88.0612 95.4088 88.0441 95.4088C88.027 95.4088 88.0098 95.4088 87.9926 95.4088C87.9754 95.4088 87.9582 95.4088 87.9409 95.4088C87.9236 95.4088 87.9062 95.4088 87.8888 95.4088C87.8714 95.4088 87.854 95.4088 87.8365 95.4088C87.819 95.4088 87.8014 95.4088 87.7838 95.4088C87.7662 95.4088 87.7486 95.4088 87.7309 95.4088C87.7132 95.4088 87.6955 95.4088 87.6777 95.4088C87.6599 95.4088 87.642 95.4088 87.6242 95.4088C87.6063 95.4088 87.5883 95.4088 87.5704 95.4088C87.5524 95.4088 87.5343 95.4088 87.5163 95.4088C87.4982 95.4088 87.4801 95.4088 87.4619 95.4088C87.4437 95.4088 87.4255 95.4088 87.4072 95.4088C87.389 95.4088 87.3707 95.4088 87.3523 95.4088C87.3339 95.4088 87.3155 95.4088 87.2971 95.4088C87.2786 95.4088 87.2601 95.4088 87.2416 95.4088C87.2231 95.4088 87.2045 95.4088 87.1858 95.4088C87.1672 95.4088 87.1485 95.4088 87.1298 95.4088C87.1111 95.4088 87.0923 95.4088 87.0735 95.4088C87.0547 95.4088 87.0358 95.4088 87.0169 95.4088C86.998 95.4088 86.979 95.4088 86.9601 95.4088C86.9411 95.4088 86.922 95.4088 86.9029 95.4088C86.8839 95.4088 86.8647 95.4088 86.8456 95.4088C86.8264 95.4088 86.8072 95.4088 86.7879 95.4088C86.7687 95.4088 86.7494 95.4088 86.73 95.4088C86.7107 95.4088 86.6913 95.4088 86.6719 95.4088C86.6524 95.4088 86.633 95.4088 86.6134 95.4088C86.5939 95.4088 86.5744 95.4088 86.5548 95.4088C86.5352 95.4088 86.5155 95.4088 86.4958 95.4088C86.4762 95.4088 86.4564 95.4088 86.4367 95.4088C86.4169 95.4088 86.3971 95.4088 86.3772 95.4088C86.3574 95.4088 86.3375 95.4088 86.3176 95.4088C86.2976 95.4088 86.2777 95.4088 86.2576 95.4088C86.2376 95.4088 86.2176 95.4088 86.1975 95.4088C86.1774 95.4088 86.1572 95.4088 86.1371 95.4088C86.1169 95.4088 86.0967 95.4088 86.0764 95.4088C86.0562 95.4088 86.0359 95.4088 86.0155 95.4088C85.9952 95.4088 85.9748 95.4088 85.9544 95.4088C85.934 95.4088 85.9135 95.4088 85.893 95.4088C85.8725 95.4088 85.852 95.4088 85.8314 95.4088C85.8109 95.4088 85.7903 95.4088 85.7696 95.4088C85.749 95.4088 85.7283 95.4088 85.7075 95.4088C85.6868 95.4088 85.6661 95.4088 85.6453 95.4088C85.6245 95.4088 85.6036 95.4088 85.5827 95.4088C85.5619 95.4088 85.541 95.4088 85.52 95.4088C85.4991 95.4088 85.4781 95.4088 85.457 95.4088C85.436 95.4088 85.415 95.4088 85.3939 95.4088C85.3728 95.4088 85.3516 95.4088 85.3305 95.4088C85.3093 95.4088 85.2881 95.4088 85.2668 95.4088C85.2456 95.4088 85.2243 95.4088 85.203 95.4088C85.1817 95.4088 85.1603 95.4088 85.139 95.4088C85.1176 95.4088 85.0962 95.4088 85.0747 95.4088C85.0532 95.4088 85.0318 95.4088 85.0102 95.4088C84.9887 95.4088 84.9671 95.4088 84.9456 95.4088C84.924 95.4088 84.9023 95.4088 84.8807 95.4088C84.859 95.4088 84.8373 95.4088 84.8156 95.4088C84.7938 95.4088 84.7721 95.4088 84.7503 95.4088C84.7285 95.4088 84.7066 95.4088 84.6848 95.4088C84.6629 95.4088 84.641 95.4088 84.6191 95.4088C84.5972 95.4088 84.5752 95.4088 84.5532 95.4088C84.5312 95.4088 84.5092 95.4088 84.4871 95.4088C84.465 95.4088 84.4429 95.4088 84.4208 95.4088C84.3987 95.4088 84.3765 95.4088 84.3543 95.4088C84.3322 95.4088 84.3099 95.4088 84.2877 95.4088C84.2654 95.4088 84.2431 95.4088 84.2208 95.4088C84.1985 95.4088 84.1762 95.4088 84.1538 95.4088C84.1314 95.4088 84.109 95.4088 84.0866 95.4088C84.0641 95.4088 84.0416 95.4088 84.0191 95.4088C83.9966 95.4088 83.9741 95.4088 83.9516 95.4088C83.929 95.4088 83.9064 95.4088 83.8838 95.4088C83.8612 95.4088 83.8385 95.4088 83.8158 95.4088C83.7932 95.4088 83.7704 95.4088 83.7477 95.4088C83.725 95.4088 83.7022 95.4088 83.6794 95.4088C83.6566 95.4088 83.6338 95.4088 83.6109 95.4088C83.5881 95.4088 83.5652 95.4088 83.5423 95.4088C83.5194 95.4088 83.4965 95.4088 83.4735 95.4088C83.4505 95.4088 83.4275 95.4088 83.4045 95.4088C83.3815 95.4088 83.3584 95.4088 83.3354 95.4088C83.3123 95.4088 83.2892 95.4088 83.2661 95.4088C83.2429 95.4088 83.2198 95.4088 83.1966 95.4088C83.1734 95.4088 83.1502 95.4088 83.127 95.4088C83.1037 95.4088 83.0805 95.4088 83.0572 95.4088C83.0339 95.4088 83.0106 95.4088 82.9872 95.4088C82.9639 95.4088 82.9405 95.4088 82.9171 95.4088C82.8937 95.4088 82.8703 95.4088 82.8469 95.4088C82.8234 95.4088 82.8 95.4088 82.7765 95.4088C82.753 95.4088 82.7295 95.4088 82.7059 95.4088C82.6824 95.4088 82.6588 95.4088 82.6352 95.4088C82.6116 95.4088 82.588 95.4088 82.5644 95.4088C82.5407 95.4088 82.5171 95.4088 82.4934 95.4088C82.4697 95.4088 82.446 95.4088 82.4223 95.4088C82.3985 95.4088 82.3748 95.4088 82.351 95.4088C82.3272 95.4088 82.3034 95.4088 82.2796 95.4088C82.2558 95.4088 82.2319 95.4088 82.208 95.4088C82.1842 95.4088 82.1603 95.4088 82.1364 95.4088C82.1124 95.4088 82.0885 95.4088 82.0645 95.4088C82.0406 95.4088 82.0166 95.4088 81.9926 95.4088C81.9686 95.4088 81.9446 95.4088 81.9205 95.4088C81.8965 95.4088 81.8724 95.4088 81.8483 95.4088C81.8242 95.4088 81.8001 95.4088 81.776 95.4088C81.7519 95.4088 81.7277 95.4088 81.7036 95.4088C81.6794 95.4088 81.6552 95.4088 81.631 95.4088C81.6068 95.4088 81.5825 95.4088 81.5583 95.4088C81.534 95.4088 81.5098 95.4088 81.4855 95.4088C81.4612 95.4088 81.4369 95.4088 81.4125 95.4088C81.3882 95.4088 81.3639 95.4088 81.3395 95.4088C81.3151 95.4088 81.2908 95.4088 81.2663 95.4088C81.2419 95.4088 81.2175 95.4088 81.1931 95.4088C81.1686 95.4088 81.1442 95.4088 81.1197 95.4088C81.0952 95.4088 81.0707 95.4088 81.0462 95.4088C81.0217 95.4088 80.9972 95.4088 80.9726 95.4088C80.9481 95.4088 80.9235 95.4088 80.8989 95.4088C80.8744 95.4088 80.8498 95.4088 80.8251 95.4088C80.8005 95.4088 80.7759 95.4088 80.7512 95.4088C80.7266 95.4088 80.7019 95.4088 80.6772 95.4088C80.6526 95.4088 80.6279 95.4088 80.6031 95.4088C80.5784 95.4088 80.5537 95.4088 80.529 95.4088C80.5042 95.4088 80.4795 95.4088 80.4547 95.4088C80.4299 95.4088 80.4051 95.4088 80.3803 95.4088C80.3555 95.4088 80.3307 95.4088 80.3058 95.4088C80.281 95.4088 80.2562 95.4088 80.2313 95.4088C80.2064 95.4088 80.1815 95.4088 80.1567 95.4088C80.1318 95.4088 80.1069 95.4088 80.0819 95.4088C80.057 95.4088 80.0321 95.4088 80.0071 95.4088C79.9822 95.4088 79.9572 95.4088 79.9322 95.4088C79.9073 95.4088 79.8823 95.4088 79.8573 95.4088C79.8323 95.4088 79.8073 95.4088 79.7822 95.4088C79.7572 95.4088 79.7322 95.4088 79.7071 95.4088C79.6821 95.4088 79.657 95.4088 79.6319 95.4088C79.6069 95.4088 79.5818 95.4088 79.5567 95.4088C79.5316 95.4088 79.5065 95.4088 79.4813 95.4088C79.4562 95.4088 79.4311 95.4088 79.4059 95.4088C79.3808 95.4088 79.3556 95.4088 79.3305 95.4088C79.3053 95.4088 79.2801 95.4088 79.2549 95.4088C79.2298 95.4088 79.2046 95.4088 79.1794 95.4088C79.1541 95.4088 79.1289 95.4088 79.1037 95.4088C79.0785 95.4088 79.0532 95.4088 79.028 95.4088C79.0027 95.4088 78.9775 95.4088 78.9522 95.4088C78.9269 95.4088 78.9017 95.4088 78.8764 95.4088C78.8511 95.4088 78.8258 95.4088 78.8005 95.4088C78.7752 95.4088 78.7499 95.4088 78.7246 95.4088C78.6993 95.4088 78.6739 95.4088 78.6486 95.4088C78.6233 95.4088 78.5979 95.4088 78.5726 95.4088C78.5472 95.4088 78.5219 95.4088 78.4965 95.4088C78.4711 95.4088 78.4457 95.4088 78.4204 95.4088C78.395 95.4088 78.3696 95.4088 78.3442 95.4088C78.3188 95.4088 78.2934 95.4088 78.268 95.4088C78.2426 95.4088 78.2172 95.4088 78.1918 95.4088C78.1663 95.4088 78.1409 95.4088 78.1155 95.4088C78.09 95.4088 78.0646 95.4088 78.0391 95.4088C78.0137 95.4088 77.9883 95.4088 77.9628 95.4088C77.9373 95.4088 77.9119 95.4088 77.8864 95.4088C77.8609 95.4088 77.8355 95.4088 77.81 95.4088C77.7845 95.4088 77.759 95.4088 77.7336 95.4088C77.7081 95.4088 77.6826 95.4088 77.6571 95.4088C77.6316 95.4088 77.6061 95.4088 77.5806 95.4088C77.5551 95.4088 77.5296 95.4088 77.5041 95.4088C77.4786 95.4088 77.453 95.4088 77.4275 95.4088C77.402 95.4088 77.3765 95.4088 77.351 95.4088C77.3254 95.4088 77.2999 95.4088 77.2744 95.4088C77.2489 95.4088 77.2233 95.4088 77.1978 95.4088C77.1723 95.4088 77.1467 95.4088 77.1212 95.4088C77.0957 95.4088 77.0701 95.4088 77.0446 95.4088C77.019 95.4088 76.9935 95.4088 76.9679 95.4088C76.9424 95.4088 76.9169 95.4088 76.8913 95.4088C76.8658 95.4088 76.8402 95.4088 76.8147 95.4088C76.7891 95.4088 76.7636 95.4088 76.738 95.4088C76.7125 95.4088 76.6869 95.4088 76.6614 95.4088C76.6358 95.4088 76.6103 95.4088 76.5847 95.4088C76.5591 95.4088 76.5336 95.4088 76.508 95.4088C76.4825 95.4088 76.4569 95.4088 76.4314 95.4088C76.4058 95.4088 76.3803 95.4088 76.3547 95.4088C76.3292 95.4088 76.3036 95.4088 76.2781 95.4088C76.2526 95.4088 76.227 95.4088 76.2015 95.4088C76.1759 95.4088 76.1504 95.4088 76.1248 95.4088C76.0993 95.4088 76.0738 95.4088 76.0482 95.4088C76.0227 95.4088 75.9971 95.4088 75.9716 95.4088C75.9461 95.4088 75.9206 95.4088 75.895 95.4088C75.8695 95.4088 75.844 95.4088 75.8185 95.4088C75.7929 95.4088 75.7674 95.4088 75.7419 95.4088C75.7164 95.4088 75.6909 95.4088 75.6654 95.4088C75.6399 95.4088 75.6144 95.4088 75.5889 95.4088C75.5634 95.4088 75.5379 95.4088 75.5124 95.4088C75.4869 95.4088 75.4614 95.4088 75.4359 95.4088C75.4104 95.4088 75.3849 95.4088 75.3595 95.4088C75.334 95.4088 75.3085 95.4088 75.2831 95.4088C75.2576 95.4088 75.2321 95.4088 75.2067 95.4088C75.1812 95.4088 75.1558 95.4088 75.1303 95.4088C75.1049 95.4088 75.0795 95.4088 75.054 95.4088C75.0286 95.4088 75.0032 95.4088 74.9778 95.4088C74.9523 95.4088 74.9269 95.4088 74.9015 95.4088C74.8761 95.4088 74.8507 95.4088 74.8253 95.4088C74.7999 95.4088 74.7746 95.4088 74.7492 95.4088C74.7238 95.4088 74.6984 95.4088 74.6731 95.4088C74.6477 95.4088 74.6224 95.4088 74.597 95.4088C74.5717 95.4088 74.5463 95.4088 74.521 95.4088C74.4957 95.4088 74.4703 95.4088 74.445 95.4088C74.4197 95.4088 74.3944 95.4088 74.3691 95.4088C74.3438 95.4088 74.3185 95.4088 74.2932 95.4088C74.268 95.4088 74.2427 95.4088 74.2174 95.4088C74.1922 95.4088 74.1669 95.4088 74.1417 95.4088C74.1164 95.4088 74.0912 95.4088 74.066 95.4088C74.0408 95.4088 74.0155 95.4088 73.9903 95.4088C73.9651 95.4088 73.9399 95.4088 73.9148 95.4088C73.8896 95.4088 73.8644 95.4088 73.8392 95.4088C73.8141 95.4088 73.7889 95.4088 73.7638 95.4088C73.7387 95.4088 73.7135 95.4088 73.6884 95.4088C73.6633 95.4088 73.6382 95.4088 73.6131 95.4088C73.588 95.4088 73.5629 95.4088 73.5379 95.4088C73.5128 95.4088 73.4877 95.4088 73.4627 95.4088C73.4377 95.4088 73.4126 95.4088 73.3876 95.4088C73.3626 95.4088 73.3376 95.4088 73.3126 95.4088C73.2876 95.4088 73.2626 95.4088 73.2376 95.4088C73.2127 95.4088 73.1877 95.4088 73.1628 95.4088C73.1378 95.4088 73.1129 95.4088 73.088 95.4088C73.0631 95.4088 73.0382 95.4088 73.0133 95.4088C72.9884 95.4088 72.9635 95.4088 72.9387 95.4088C72.9138 95.4088 72.889 95.4088 72.8642 95.4088C72.8393 95.4088 72.8145 95.4088 72.7897 95.4088C72.7649 95.4088 72.7401 95.4088 72.7154 95.4088C72.6906 95.4088 72.6658 95.4088 72.6411 95.4088C72.6164 95.4088 72.5917 95.4088 72.5669 95.4088C72.5422 95.4088 72.5176 95.4088 72.4929 95.4088C72.4682 95.4088 72.4436 95.4088 72.4189 95.4088C72.3943 95.4088 72.3696 95.4088 72.345 95.4088C72.3204 95.4088 72.2958 95.4088 72.2713 95.4088C72.2467 95.4088 72.2221 95.4088 72.1976 95.4088C72.1731 95.4088 72.1485 95.4088 72.124 95.4088C72.0995 95.4088 72.0751 95.4088 72.0506 95.4088C72.0261 95.4088 72.0017 95.4088 71.9772 95.4088C71.9528 95.4088 71.9284 95.4088 71.904 95.4088C71.8796 95.4088 71.8552 95.4088 71.8309 95.4088C71.8065 95.4088 71.7822 95.4088 71.7579 95.4088C71.7336 95.4088 71.7093 95.4088 71.685 95.4088C71.6607 95.4088 71.6364 95.4088 71.6122 95.4088C71.588 95.4088 71.5637 95.4088 71.5395 95.4088C71.5153 95.4088 71.4912 95.4088 71.467 95.4088C71.4428 95.4088 71.4187 95.4088 71.3946 95.4088C71.3705 95.4088 71.3464 95.4088 71.3223 95.4088C71.2982 95.4088 71.2742 95.4088 71.2501 95.4088C71.2261 95.4088 71.2021 95.4088 71.1781 95.4088C71.1541 95.4088 71.1301 95.4088 71.1062 95.4088C71.0822 95.4088 71.0583 95.4088 71.0344 95.4088C71.0105 95.4088 70.9866 95.4088 70.9628 95.4088C70.9389 95.4088 70.9151 95.4088 70.8913 95.4088C70.8674 95.4088 70.8436 95.4088 70.8199 95.4088C70.7961 95.4088 70.7724 95.4088 70.7486 95.4088C70.7249 95.4088 70.7012 95.4088 70.6776 95.4088C70.6539 95.4088 70.6302 95.4088 70.6066 95.4088C70.583 95.4088 70.5594 95.4088 70.5358 95.4088C70.5122 95.4088 70.4887 95.4088 70.4651 95.4088C70.4416 95.4088 70.4181 95.4088 70.3946 95.4088C70.3712 95.4088 70.3477 95.4088 70.3243 95.4088C70.3008 95.4088 70.2774 95.4088 70.2541 95.4088C70.2307 95.4088 70.2073 95.4088 70.184 95.4088C70.1607 95.4088 70.1374 95.4088 70.1141 95.4088C70.0908 95.4088 70.0676 95.4088 70.0444 95.4088C70.0211 95.4088 69.9979 95.4088 69.9748 95.4088C69.9516 95.4088 69.9285 95.4088 69.9054 95.4088C69.8822 95.4088 69.8592 95.4088 69.8361 95.4088C69.813 95.4088 69.79 95.4088 69.767 95.4088C69.744 95.4088 69.721 95.4088 69.6981 95.4088C69.6751 95.4088 69.6522 95.4088 69.6293 95.4088C69.6064 95.4088 69.5835 95.4088 69.5607 95.4088C69.5379 95.4088 69.5151 95.4088 69.4923 95.4088C69.4695 95.4088 69.4467 95.4088 69.424 95.4088C69.4013 95.4088 69.3786 95.4088 69.3559 95.4088C69.3333 95.4088 69.3106 95.4088 69.288 95.4088C69.2654 95.4088 69.2429 95.4088 69.2203 95.4088C69.1978 95.4088 69.1753 95.4088 69.1528 95.4088C69.1303 95.4088 69.1078 95.4088 69.0854 95.4088C69.063 95.4088 69.0406 95.4088 69.0182 95.4088C68.9959 95.4088 68.9736 95.4088 68.9513 95.4088C68.929 95.4088 68.9067 95.4088 68.8844 95.4088C68.8622 95.4088 68.84 95.4088 68.8178 95.4088C68.7957 95.4088 68.7735 95.4088 68.7514 95.4088C68.7293 95.4088 68.7072 95.4088 68.6852 95.4088C68.6631 95.4088 68.6411 95.4088 68.6191 95.4088C68.5972 95.4088 68.5752 95.4088 68.5533 95.4088C68.5314 95.4088 68.5095 95.4088 68.4877 95.4088C68.4658 95.4088 68.444 95.4088 68.4222 95.4088C68.4004 95.4088 68.3787 95.4088 68.357 95.4088C68.3353 95.4088 68.3136 95.4088 68.292 95.4088C68.2703 95.4088 68.2487 95.4088 68.2271 95.4088C68.2055 95.4088 68.184 95.4088 68.1625 95.4088C68.141 95.4088 68.1195 95.4088 68.0981 95.4088C68.0767 95.4088 68.0553 95.4088 68.0339 95.4088C68.0125 95.4088 67.9912 95.4088 67.9699 95.4088C67.9486 95.4088 67.9273 95.4088 67.9061 95.4088C67.8849 95.4088 67.8637 95.4088 67.8426 95.4088C67.8214 95.4088 67.8003 95.4088 67.7792 95.4088C67.7581 95.4088 67.7371 95.4088 67.7161 95.4088C67.6951 95.4088 67.6741 95.4088 67.6532 95.4088C67.6323 95.4088 67.6114 95.4088 67.5905 95.4088C67.5697 95.4088 67.5489 95.4088 67.5281 95.4088C67.5073 95.4088 67.4865 95.4088 67.4658 95.4088C67.4451 95.4088 67.4245 95.4088 67.4039 95.4088C67.3832 95.4088 67.3626 95.4088 67.3421 95.4088C67.3215 95.4088 67.301 95.4088 67.2806 95.4088C67.2601 95.4088 67.2396 95.4088 67.2193 95.4088C67.1989 95.4088 67.1785 95.4088 67.1582 95.4088C67.1379 95.4088 67.1176 95.4088 67.0974 95.4088C67.0771 95.4088 67.0569 95.4088 67.0368 95.4088C67.0166 95.4088 66.9965 95.4088 66.9764 95.4088C66.9564 95.4088 66.9363 95.4088 66.9163 95.4088C66.8963 95.4088 66.8764 95.4088 66.8565 95.4088C66.8366 95.4088 66.8167 95.4088 66.7969 95.4088C66.777 95.4088 66.7573 95.4088 66.7375 95.4088C66.7178 95.4088 66.6981 95.4088 66.6784 95.4088C66.6587 95.4088 66.6391 95.4088 66.6196 95.4088C66.6 95.4088 66.5804 95.4088 66.5609 95.4088C66.5415 95.4088 66.522 95.4088 66.5026 95.4088C66.4832 95.4088 66.4638 95.4088 66.4445 95.4088C66.4252 95.4088 66.4059 95.4088 66.3867 95.4088C66.3674 95.4088 66.3483 95.4088 66.3291 95.4088C66.31 95.4088 66.2909 95.4088 66.2718 95.4088C66.2527 95.4088 66.2337 95.4088 66.2148 95.4088C66.1958 95.4088 66.1769 95.4088 66.158 95.4088C66.1391 95.4088 66.1203 95.4088 66.1015 95.4088C66.0827 95.4088 66.064 95.4088 66.0453 95.4088C66.0266 95.4088 66.0079 95.4088 65.9893 95.4088C65.9707 95.4088 65.9521 95.4088 65.9336 95.4088C65.9151 95.4088 65.8966 95.4088 65.8782 95.4088C65.8598 95.4088 65.8414 95.4088 65.823 95.4088C65.8047 95.4088 65.7864 95.4088 65.7682 95.4088C65.7499 95.4088 65.7318 95.4088 65.7136 95.4088C65.6955 95.4088 65.6774 95.4088 65.6593 95.4088C65.6413 95.4088 65.6233 95.4088 65.6053 95.4088C65.5874 95.4088 65.5694 95.4088 65.5516 95.4088C65.5337 95.4088 65.5159 95.4088 65.4981 95.4088C65.4804 95.4088 65.4627 95.4088 65.445 95.4088C65.4273 95.4088 65.4097 95.4088 65.3922 95.4088C65.3746 95.4088 65.3571 95.4088 65.3396 95.4088C65.3221 95.4088 65.3047 95.4088 65.2873 95.4088C65.27 95.4088 65.2526 95.4088 65.2354 95.4088C65.2181 95.4088 65.2009 95.4088 65.1837 95.4088C65.1665 95.4088 65.1494 95.4088 65.1323 95.4088C65.1153 95.4088 65.0982 95.4088 65.0813 95.4088C65.0643 95.4088 65.0474 95.4088 65.0305 95.4088C65.0136 95.4088 64.9968 95.4088 64.9801 95.4088C64.9633 95.4088 64.9466 95.4088 64.9299 95.4088C64.9132 95.4088 64.8966 95.4088 64.8801 95.4088C64.8635 95.4088 64.847 95.4088 64.8305 95.4088C64.8141 95.4088 64.7977 95.4088 64.7813 95.4088C64.765 95.4088 64.7487 95.4088 64.7324 95.4088C64.7162 95.4088 64.7 95.4088 64.6839 95.4088C64.6677 95.4088 64.6516 95.4088 64.6356 95.4088C64.6196 95.4088 64.6036 95.4088 64.5877 95.4088C64.5717 95.4088 64.5559 95.4088 64.54 95.4088C64.5242 95.4088 64.5085 95.4088 64.4928 95.4088C64.477 95.4088 64.4614 95.4088 64.4458 95.4088C64.4302 95.4088 64.4146 95.4088 64.3991 95.4088C64.3837 95.4088 64.3682 95.4088 64.3528 95.4088C64.3375 95.4088 64.3221 95.4088 64.3069 95.4088C64.2916 95.4088 64.2764 95.4088 64.2612 95.4088C64.2461 95.4088 64.231 95.4088 64.2159 95.4088C64.2009 95.4088 64.1859 95.4088 64.1709 95.4088C64.156 95.4088 64.1411 95.4088 64.1263 95.4088C64.1115 95.4088 64.0967 95.4088 64.082 95.4088C64.0673 95.4088 64.0526 95.4088 64.0381 95.4088C64.0235 95.4088 64.0089 95.4088 63.9944 95.4088C63.98 95.4088 63.9655 95.4088 63.9512 95.4088C63.9368 95.4088 63.9225 95.4088 63.9083 95.4088C63.894 95.4088 63.8798 95.4088 63.8657 95.4088C63.8516 95.4088 63.8375 95.4088 63.8235 95.4088C63.8095 95.4088 63.7955 95.4088 63.7816 95.4088C63.7677 95.4088 63.7539 95.4088 63.7401 95.4088C63.7264 95.4088 63.7126 95.4088 63.699 95.4088C63.6853 95.4088 63.6717 95.4088 63.6582 95.4088C63.6446 95.4088 63.6312 95.4088 63.6178 95.4088C63.6043 95.4088 63.591 95.4088 63.5777 95.4088C63.5644 95.4088 63.5512 95.4088 63.538 95.4088C63.5248 95.4088 63.5117 95.4088 63.4986 95.4088C63.4856 95.4088 63.4726 95.4088 63.4597 95.4088C63.4467 95.4088 63.4339 95.4088 63.4211 95.4088C63.4083 95.4088 63.3955 95.4088 63.3828 95.4088C63.3702 95.4088 63.3575 95.4088 63.345 95.4088C63.3324 95.4088 63.3199 95.4088 63.3075 95.4088C63.2951 95.4088 63.2827 95.4088 63.2704 95.4088C63.2581 95.4088 63.2458 95.4088 63.2337 95.4088C63.2215 95.4088 63.2094 95.4088 63.1973 95.4088C63.1853 95.4088 63.1733 95.4088 63.1613 95.4088C63.1494 95.4088 63.1376 95.4088 63.1258 95.4088C63.114 95.4088 63.1022 95.4088 63.0906 95.4088C63.0789 95.4088 63.0673 95.4088 63.0557 95.4088C63.0442 95.4088 63.0327 95.4088 63.0213 95.4088C63.0099 95.4088 62.9986 95.4088 62.9873 95.4088C62.976 95.4088 62.9648 95.4088 62.9537 95.4088C62.9425 95.4088 62.9314 95.4088 62.9204 95.4088V97.9088ZM92.2928 97.6338L109.675 83.6877L108.111 81.7377L90.7283 95.6838L92.2928 97.6338ZM108.447 83.8805L123.065 89.459L123.956 87.1233L109.338 81.5448L108.447 83.8805ZM124.387 89.1823L157.474 56.6399L155.721 54.8575L122.634 87.3999L124.387 89.1823Z" fill="url(#paint12_linear)"/>
</g>
<g filter="url(#filter1_d)">
<path d="M44.1107 93.5095C49.922 95.5736 56.1918 96.6234 62.9202 96.6589" stroke="#8ED2F3" stroke-width="2.5"/>
</g>
<path fill-rule="evenodd" clip-rule="evenodd" d="M47.4106 109.901C47.311 110.334 47.0252 110.7 46.6299 110.901L14.3796 127.334C13.6415 127.71 12.7382 127.416 12.3621 126.678L2.0294 106.399C1.65331 105.661 1.9468 104.758 2.68493 104.381L34.9352 87.9491C35.3305 87.7477 35.7946 87.7316 36.2029 87.9051L49.8694 93.7136C50.5389 93.9981 50.9077 94.722 50.7444 95.4308L47.4106 109.901Z" fill="url(#paint13_linear)"/>
<path opacity="0.28" fill-rule="evenodd" clip-rule="evenodd" d="M47.5874 109.659C47.4902 110.096 47.203 110.467 46.8042 110.67L35.1346 116.616L9.95721 100.533L35.1016 87.7218C35.5049 87.5163 35.9794 87.5039 36.3929 87.6881L49.9064 93.7075C50.5581 93.9978 50.9152 94.7071 50.7602 95.4035L47.5874 109.659Z" fill="url(#paint14_linear)"/>
<path fill-rule="evenodd" clip-rule="evenodd" d="M29.2244 98.9979C29.4081 98.7101 29.7259 98.5359 30.0673 98.5359H30.4729C31.2626 98.5359 31.7407 99.4082 31.3159 100.074L21.8121 114.966C21.6285 115.254 21.3106 115.428 20.9692 115.428H20.5636C19.7739 115.428 19.2958 114.555 19.7206 113.89L29.2244 98.9979Z" fill="white"/>
<path fill-rule="evenodd" clip-rule="evenodd" d="M20.944 107.076C23.043 107.076 24.7446 105.374 24.7446 103.275C24.7446 101.176 23.043 99.4744 20.944 99.4744C18.8449 99.4744 17.1433 101.176 17.1433 103.275C17.1433 105.374 18.8449 107.076 20.944 107.076Z" fill="white"/>
<path fill-rule="evenodd" clip-rule="evenodd" d="M20.9902 104.73C21.7676 104.73 22.3978 104.1 22.3978 103.322C22.3978 102.545 21.7676 101.914 20.9902 101.914C20.2127 101.914 19.5825 102.545 19.5825 103.322C19.5825 104.1 20.2127 104.73 20.9902 104.73Z" fill="#75BDE6"/>
<path fill-rule="evenodd" clip-rule="evenodd" d="M30.3278 114.487C32.4268 114.487 34.1284 112.785 34.1284 110.686C34.1284 108.587 32.4268 106.885 30.3278 106.885C28.2287 106.885 26.5271 108.587 26.5271 110.686C26.5271 112.785 28.2287 114.487 30.3278 114.487Z" fill="white"/>
<path fill-rule="evenodd" clip-rule="evenodd" d="M30.3751 112.143C31.1525 112.143 31.7827 111.513 31.7827 110.735C31.7827 109.958 31.1525 109.328 30.3751 109.328C29.5976 109.328 28.9674 109.958 28.9674 110.735C28.9674 111.513 29.5976 112.143 30.3751 112.143Z" fill="#5EAFDF"/>
</g>
<defs>
<filter id="filter0_d" x="57.6704" y="45.8601" width="110.948" height="58.0487" filterUnits="userSpaceOnUse" color-interpolation-filters="sRGB">
<feFlood flood-opacity="0" result="BackgroundImageFix"/>
<feColorMatrix in="SourceAlpha" type="matrix" values="0 0 0 0 0 0 0 0 0 0 0 0 0 0 0 0 0 0 127 0"/>
<feOffset dy="2"/>
<feGaussianBlur stdDeviation="2"/>
<feColorMatrix type="matrix" values="0 0 0 0 0 0 0 0 0 0 0 0 0 0 0 0 0 0 0.1 0"/>
<feBlend mode="normal" in2="BackgroundImageFix" result="effect1_dropShadow"/>
<feBlend mode="normal" in="SourceGraphic" in2="effect1_dropShadow" result="shape"/>
</filter>
<filter id="filter1_d" x="39.6924" y="90.3317" width="27.2344" height="13.5773" filterUnits="userSpaceOnUse" color-interpolation-filters="sRGB">
<feFlood flood-opacity="0" result="BackgroundImageFix"/>
<feColorMatrix in="SourceAlpha" type="matrix" values="0 0 0 0 0 0 0 0 0 0 0 0 0 0 0 0 0 0 127 0"/>
<feOffset dy="2"/>
<feGaussianBlur stdDeviation="2"/>
<feColorMatrix type="matrix" values="0 0 0 0 0 0 0 0 0 0 0 0 0 0 0 0 0 0 0.1 0"/>
<feBlend mode="normal" in2="BackgroundImageFix" result="effect1_dropShadow"/>
<feBlend mode="normal" in="SourceGraphic" in2="effect1_dropShadow" result="shape"/>
</filter>
<linearGradient id="paint0_linear" x1="9.77588" y1="0" x2="9.77588" y2="138.889" gradientUnits="userSpaceOnUse">
<stop stop-color="#AFC7D1" stop-opacity="0.32"/>
<stop offset="1" stop-color="#AFC7D1" stop-opacity="0.01"/>
</linearGradient>
<linearGradient id="paint1_linear" x1="45.3578" y1="72.7399" x2="55.9262" y2="125.626" gradientUnits="userSpaceOnUse">
<stop stop-color="#EFEFEF"/>
<stop offset="1" stop-color="#D8E3EA"/>
</linearGradient>
<linearGradient id="paint2_linear" x1="138.074" y1="114.964" x2="183.898" y2="176.589" gradientUnits="userSpaceOnUse">
<stop stop-color="#92F1D3"/>
<stop offset="1" stop-color="#2EE3AA"/>
</linearGradient>
<linearGradient id="paint3_linear" x1="280.819" y1="112.633" x2="208.768" y2="46.5844" gradientUnits="userSpaceOnUse">
<stop stop-color="#1ACC94"/>
<stop offset="1" stop-color="#1ACC94" stop-opacity="0.01"/>
</linearGradient>
<linearGradient id="paint4_linear" x1="135.879" y1="62.8292" x2="134.472" y2="136.704" gradientUnits="userSpaceOnUse">
<stop stop-color="#92F1D3"/>
<stop offset="1" stop-color="#2EE3AA"/>
</linearGradient>
<linearGradient id="paint5_linear" x1="194.998" y1="74.1261" x2="214.559" y2="88.2093" gradientUnits="userSpaceOnUse">
<stop stop-color="#1ACC94"/>
<stop offset="1" stop-color="#2EE3AA"/>
</linearGradient>
<linearGradient id="paint6_linear" x1="187.61" y1="114.958" x2="192.236" y2="126.192" gradientUnits="userSpaceOnUse">
<stop stop-color="#EEF2F5"/>
<stop offset="1" stop-color="#C6D8E4"/>
</linearGradient>
<linearGradient id="paint7_linear" x1="144.518" y1="123.874" x2="173.315" y2="162.422" gradientUnits="userSpaceOnUse">
<stop stop-color="#92F1D3"/>
<stop offset="1" stop-color="#2EE3AA"/>
</linearGradient>
<linearGradient id="paint8_linear" x1="233.328" y1="122.382" x2="188.238" y2="81.3669" gradientUnits="userSpaceOnUse">
<stop stop-color="#1ACC94"/>
<stop offset="1" stop-color="#1ACC94" stop-opacity="0.01"/>
</linearGradient>
<linearGradient id="paint9_linear" x1="142.858" y1="91.3396" x2="141.956" y2="138.398" gradientUnits="userSpaceOnUse">
<stop stop-color="#92F1D3"/>
<stop offset="1" stop-color="#2EE3AA"/>
</linearGradient>
<linearGradient id="paint10_linear" x1="180.158" y1="98.5357" x2="192.477" y2="107.106" gradientUnits="userSpaceOnUse">
<stop stop-color="#1ACC94"/>
<stop offset="1" stop-color="#2EE3AA"/>
</linearGradient>
<linearGradient id="paint11_linear" x1="173.065" y1="124.315" x2="176.33" y2="132.245" gradientUnits="userSpaceOnUse">
<stop stop-color="#EEF2F5"/>
<stop offset="1" stop-color="#C6D8E4"/>
</linearGradient>
<linearGradient id="paint12_linear" x1="113.769" y1="121.058" x2="151.836" y2="41.7265" gradientUnits="userSpaceOnUse">
<stop stop-color="#8ED2F3"/>
<stop offset="1" stop-color="#1ACC94"/>
</linearGradient>
<linearGradient id="paint13_linear" x1="62.5907" y1="79.4092" x2="23.0964" y2="60.2445" gradientUnits="userSpaceOnUse">
<stop stop-color="#8ED2F3"/>
<stop offset="1" stop-color="#3B96D1"/>
</linearGradient>
<linearGradient id="paint14_linear" x1="56.8159" y1="105.569" x2="45.1212" y2="82.6165" gradientUnits="userSpaceOnUse">
<stop stop-color="#E6F7FF"/>
<stop offset="1" stop-color="#CEF2FD" stop-opacity="0.4"/>
</linearGradient>
</defs>
</svg>
