<svg width="20" height="20" viewBox="0 0 20 20" fill="none" xmlns="http://www.w3.org/2000/svg">
<path d="M11.4413 16.6667C11.2948 16.9192 11.0845 17.1289 10.8315 17.2746C10.5785 17.4203 10.2916 17.497 9.99961 17.497C9.70763 17.497 9.42077 17.4203 9.16775 17.2746C8.91474 17.1289 8.70445 16.9192 8.55794 16.6667M15 6.66666C15 5.34057 14.4732 4.0688 13.5355 3.13112C12.5979 2.19344 11.3261 1.66666 10 1.66666C8.67392 1.66666 7.40215 2.19344 6.46447 3.13112C5.52678 4.0688 5 5.34057 5 6.66666C5 12.5 2.5 14.1667 2.5 14.1667H17.5C17.5 14.1667 15 12.5 15 6.66666Z" stroke="#3F5663" stroke-width="1.25" stroke-linecap="round" stroke-linejoin="round"/>
</svg>
