<svg width="20" height="20" viewBox="0 0 20 20" fill="none" xmlns="http://www.w3.org/2000/svg">
<path d="M1.66675 7.70834C1.32157 7.70834 1.04175 7.98816 1.04175 8.33334C1.04175 8.67851 1.32157 8.95834 1.66675 8.95834V7.70834ZM18.3334 8.95834C18.6786 8.95834 18.9584 8.67851 18.9584 8.33334C18.9584 7.98816 18.6786 7.70834 18.3334 7.70834V8.95834ZM4.16675 11.0417C3.82157 11.0417 3.54175 11.3215 3.54175 11.6667C3.54175 12.0118 3.82157 12.2917 4.16675 12.2917V11.0417ZM6.66675 12.2917C7.01193 12.2917 7.29175 12.0118 7.29175 11.6667C7.29175 11.3215 7.01193 11.0417 6.66675 11.0417V12.2917ZM2.29175 5.83334C2.29175 4.7978 3.13121 3.95834 4.16675 3.95834V2.70834C2.44086 2.70834 1.04175 4.10745 1.04175 5.83334H2.29175ZM4.16675 3.95834H15.8334V2.70834H4.16675V3.95834ZM15.8334 3.95834C16.8689 3.95834 17.7084 4.7978 17.7084 5.83334H18.9584C18.9584 4.10745 17.5593 2.70834 15.8334 2.70834V3.95834ZM17.7084 5.83334V15H18.9584V5.83334H17.7084ZM17.7084 15C17.7084 16.0355 16.8689 16.875 15.8334 16.875V18.125C17.5593 18.125 18.9584 16.7259 18.9584 15H17.7084ZM15.8334 16.875H4.16675V18.125H15.8334V16.875ZM4.16675 16.875C3.13121 16.875 2.29175 16.0355 2.29175 15H1.04175C1.04175 16.7259 2.44086 18.125 4.16675 18.125V16.875ZM2.29175 15V5.83334H1.04175V15H2.29175ZM1.66675 8.95834H18.3334V7.70834H1.66675V8.95834ZM4.16675 12.2917H6.66675V11.0417H4.16675V12.2917Z" fill="#3F5663"/>
</svg>
