<svg width="20" height="20" viewBox="0 0 20 20" fill="none" xmlns="http://www.w3.org/2000/svg">
<path fill-rule="evenodd" clip-rule="evenodd" d="M3.75 1.875C2.71447 1.875 1.875 2.71447 1.875 3.75V17.5C1.875 17.7528 2.02728 17.9807 2.26082 18.0774C2.49437 18.1742 2.76319 18.1207 2.94194 17.9419L5.90916 14.9747C6.02637 14.8575 6.18534 14.7917 6.3511 14.7917H16.25C17.2855 14.7917 18.125 13.9522 18.125 12.9167V3.75C18.125 2.71447 17.2855 1.875 16.25 1.875H3.75ZM3.125 3.75C3.125 3.40482 3.40482 3.125 3.75 3.125H16.25C16.5952 3.125 16.875 3.40482 16.875 3.75V12.9167C16.875 13.2618 16.5952 13.5417 16.25 13.5417H6.3511C5.85382 13.5417 5.37691 13.7392 5.02528 14.0908L3.125 15.9911V3.75ZM10 9.16667C10.4602 9.16667 10.8333 8.79357 10.8333 8.33333C10.8333 7.8731 10.4602 7.5 10 7.5C9.53976 7.5 9.16667 7.8731 9.16667 8.33333C9.16667 8.79357 9.53976 9.16667 10 9.16667ZM14.1667 8.33333C14.1667 8.79357 13.7936 9.16667 13.3333 9.16667C12.8731 9.16667 12.5 8.79357 12.5 8.33333C12.5 7.8731 12.8731 7.5 13.3333 7.5C13.7936 7.5 14.1667 7.8731 14.1667 8.33333ZM6.66667 9.16667C7.1269 9.16667 7.5 8.79357 7.5 8.33333C7.5 7.8731 7.1269 7.5 6.66667 7.5C6.20643 7.5 5.83333 7.8731 5.83333 8.33333C5.83333 8.79357 6.20643 9.16667 6.66667 9.16667Z" fill="#3F5663"/>
</svg>
