<svg width="20" height="20" viewBox="0 0 20 20" fill="none" xmlns="http://www.w3.org/2000/svg">
<path fill-rule="evenodd" clip-rule="evenodd" d="M10.0005 12.4995C8.59424 12.4995 7.50049 11.3705 7.50049 9.99951C7.50049 8.62854 8.59424 7.49951 10.0005 7.49951C11.4067 7.49951 12.5005 8.62854 12.5005 9.99951C12.5005 11.3705 11.4067 12.4995 10.0005 12.4995Z" stroke="#3F5663" stroke-width="1.25" stroke-miterlimit="10"/>
<path fill-rule="evenodd" clip-rule="evenodd" d="M7.49474 2.37197C7.58304 1.93105 7.93625 1.6665 8.37777 1.6665H11.645C12.0865 1.6665 12.4397 1.93105 12.528 2.37197L12.7046 4.22382C13.0578 4.40019 13.411 4.57656 13.7642 4.84111L15.5303 4.13564C15.8835 3.95927 16.325 4.13564 16.5899 4.48837L18.1794 7.22206C18.356 7.57479 18.2677 8.01571 18.0028 8.28026L16.5016 9.42665C16.5016 9.60301 16.5016 9.77938 16.5016 10.0439C16.5016 10.2203 16.5016 10.3967 16.5016 10.573L18.0028 11.7194C18.356 11.984 18.4443 12.4249 18.1794 12.7776L16.5899 15.5113C16.4133 15.864 15.8835 16.0404 15.5303 15.864L13.7642 15.1586C13.411 15.4231 13.1461 15.5995 12.7046 15.7759L12.4397 17.6277C12.3514 18.0686 11.9982 18.3332 11.5567 18.3332H8.37777C7.93625 18.3332 7.58304 18.0686 7.49474 17.6277L7.22983 15.7759C6.87662 15.5113 6.52341 15.3349 6.2585 15.1586L4.49244 15.864C4.13923 15.9522 3.69771 15.864 3.43281 15.5113L1.84335 12.7776C1.57845 12.4249 1.75505 11.984 2.01996 11.7194L3.52111 10.573C3.52111 10.3967 3.52111 10.2203 3.52111 10.0439C3.52111 9.86756 3.52111 9.6912 3.52111 9.42665L2.01996 8.28026C1.66675 8.01571 1.57845 7.57479 1.75505 7.13388L3.3445 4.40019C3.52111 4.04746 4.05093 3.87109 4.40414 4.04746L6.17019 4.75292C6.52341 4.57656 6.87662 4.40019 7.22983 4.22382L7.49474 2.37197Z" stroke="#3F5663" stroke-width="1.25" stroke-miterlimit="10" stroke-linejoin="round"/>
</svg>
