<svg width="19" height="18" viewBox="0 0 19 18" fill="none" xmlns="http://www.w3.org/2000/svg">
<path d="M17.3334 8.99999V9.62499C17.6786 9.62499 17.9584 9.34517 17.9584 8.99999H17.3334ZM17.619 17.2202C17.7866 17.5219 18.1671 17.6306 18.4688 17.463C18.7706 17.2954 18.8793 16.9149 18.7116 16.6131L17.619 17.2202ZM13.4573 16.7724C13.7566 16.6004 13.8598 16.2184 13.6879 15.9191C13.5159 15.6198 13.1338 15.5166 12.8346 15.6886L13.4573 16.7724ZM0.666748 9.62499H17.3334V8.37499H0.666748V9.62499ZM17.5417 13.1667C17.5417 13.9721 16.8888 14.625 16.0834 14.625V15.875C17.5792 15.875 18.7917 14.6624 18.7917 13.1667H17.5417ZM16.0834 14.625C15.278 14.625 14.6251 13.9721 14.6251 13.1667H13.3751C13.3751 14.6624 14.5876 15.875 16.0834 15.875V14.625ZM14.6251 13.1667C14.6251 12.3612 15.278 11.7083 16.0834 11.7083V10.4583C14.5876 10.4583 13.3751 11.6709 13.3751 13.1667H14.6251ZM16.0834 11.7083C16.8888 11.7083 17.5417 12.3612 17.5417 13.1667H18.7917C18.7917 11.6709 17.5792 10.4583 16.0834 10.4583V11.7083ZM16.4615 15.1368L17.619 17.2202L18.7116 16.6131L17.5542 14.5298L16.4615 15.1368ZM9.0027 17.9583C9.79672 17.9583 10.4267 17.4794 10.8935 16.8867C11.3644 16.2887 11.7438 15.4864 12.0417 14.6198C12.639 12.8822 12.961 10.7296 12.961 8.99999H11.711C11.711 10.6037 11.4081 12.6178 10.8596 14.2135C10.5845 15.0135 10.2608 15.6696 9.91141 16.1133C9.55786 16.5623 9.25033 16.7083 9.0027 16.7083V17.9583ZM12.961 8.99999C12.961 7.27037 12.639 5.1178 12.0417 3.38015C11.7438 2.51354 11.3644 1.7113 10.8935 1.11331C10.4267 0.520595 9.79672 0.0416565 9.0027 0.0416565V1.29166C9.25033 1.29166 9.55786 1.43772 9.91141 1.88667C10.2608 2.33035 10.5845 2.98644 10.8596 3.7865C11.4081 5.38218 11.711 7.39628 11.711 8.99999H12.961ZM9.0027 0.0416565C8.20693 0.0416565 7.5808 0.522489 7.11921 1.11649C6.65408 1.71504 6.28177 2.51755 5.98881 3.38291C5.40103 5.1191 5.08032 7.26691 5.0445 8.98698L6.29423 9.013C6.32782 7.39973 6.6321 5.38087 7.1728 3.78374C7.44408 2.98243 7.76189 2.3266 8.10623 1.88349C8.4541 1.43582 8.75679 1.29166 9.0027 1.29166V0.0416565ZM5.0445 8.98698C5.00828 10.726 5.33183 12.8836 5.93865 14.6226C6.24148 15.4904 6.62797 16.2924 7.10465 16.8898C7.57658 17.4812 8.21038 17.9583 9.0027 17.9583V16.7083C8.75335 16.7083 8.44097 16.5604 8.08173 16.1102C7.72726 15.6659 7.39761 15.0096 7.11885 14.2107C6.56248 12.6163 6.26103 10.6073 6.29423 9.013L5.0445 8.98698ZM9.00008 16.7083C4.74289 16.7083 1.29175 13.2572 1.29175 8.99999H0.041748C0.041748 13.9475 4.05253 17.9583 9.00008 17.9583V16.7083ZM1.29175 8.99999C1.29175 4.74279 4.74289 1.29166 9.00008 1.29166V0.0416565C4.05253 0.0416565 0.041748 4.05244 0.041748 8.99999H1.29175ZM9.00008 1.29166C13.2573 1.29166 16.7084 4.74279 16.7084 8.99999H17.9584C17.9584 4.05244 13.9476 0.0416565 9.00008 0.0416565V1.29166ZM12.8346 15.6886C11.7058 16.3372 10.3972 16.7083 9.00008 16.7083V17.9583C10.6215 17.9583 12.1441 17.527 13.4573 16.7724L12.8346 15.6886Z" fill="#3F5663"/>
</svg>
