<svg width="20" height="20" viewBox="0 0 20 20" fill="none" xmlns="http://www.w3.org/2000/svg">
<path d="M10.0911 7.40869L12.5 4.99984L10.463 2.9628C10.4374 2.93723 10.4374 2.89578 10.463 2.87021V2.87021C11.8181 1.51506 14.0152 1.51506 15.3704 2.87021L19.152 6.6518C19.1601 6.65992 19.1601 6.67309 19.152 6.68121L16.8434 8.98973C16.7458 9.08736 16.5875 9.08736 16.4899 8.98973L15 7.49984L12.5 9.99984M7.5 9.99984L2.5 14.9998C1.80964 15.6902 1.80964 16.8095 2.5 17.4998V17.4998C3.19036 18.1902 4.30964 18.1902 5 17.4998L10 12.4998" stroke="#3F5663" stroke-width="1.25"/>
<path d="M5.33342 1.6665H4.06742C3.95032 1.6665 3.89167 1.80809 3.97447 1.8909L4.79175 2.70817C5.36704 3.28347 5.36704 4.21621 4.79175 4.7915C4.21645 5.3668 3.28371 5.3668 2.70842 4.7915L1.89114 3.97423C1.80834 3.89142 1.66675 3.95007 1.66675 4.06718V5.33317C1.66675 6.99003 3.00989 8.33317 4.66675 8.33317H5.83341L11.6667 14.1665V15.3332C11.6667 16.99 13.0099 18.3332 14.6667 18.3332H16.0434C16.1197 18.3332 16.1579 18.241 16.1039 18.187L15.2084 17.2915C14.6331 16.7162 14.6331 15.7835 15.2084 15.2082C15.7837 14.6329 16.7165 14.6329 17.2917 15.2082L18.1873 16.1037C18.2412 16.1576 18.3334 16.1194 18.3334 16.0431V14.6665C18.3334 13.0096 16.9903 11.6665 15.3334 11.6665H14.1667L8.33341 5.83317V4.6665C8.33341 3.00965 6.99027 1.6665 5.33342 1.6665Z" stroke="#3F5663" stroke-width="1.25"/>
</svg>
