<svg width="20" height="20" viewBox="0 0 20 20" fill="none" xmlns="http://www.w3.org/2000/svg">
<path d="M9.99992 10L13.7272 6.27267C14.0085 5.99137 14.1666 5.60984 14.1666 5.21201V4C14.1666 3.17157 13.495 2.5 12.6666 2.5H7.33325C6.50482 2.5 5.83325 3.17157 5.83325 4V5.21201C5.83325 5.60984 5.99129 5.99137 6.27259 6.27267L9.99992 10ZM9.99992 10L13.7272 13.7273C14.0086 14.0086 14.1666 14.3902 14.1666 14.788V16C14.1666 16.8284 13.495 17.5 12.6666 17.5H7.33325C6.50482 17.5 5.83325 16.8284 5.83325 16V14.788C5.83325 14.3902 5.99129 14.0086 6.27259 13.7273L9.99992 10Z" stroke="#3F5663" stroke-width="1.25"/>
</svg>
