<svg width="20" height="20" viewBox="0 0 20 20" fill="none" xmlns="http://www.w3.org/2000/svg">
<path d="M10.7674 2.26355L17.0174 7.12466C17.3219 7.36148 17.5 7.72561 17.5 8.11135V16.6667C17.5 17.1087 17.3244 17.5326 17.0118 17.8452C16.6993 18.1577 16.2754 18.3333 15.8333 18.3333H3.75C3.05964 18.3333 2.5 17.7737 2.5 17.0833V8.11135C2.5 7.72561 2.67809 7.36148 2.98257 7.12466L9.23257 2.26355C9.68396 1.91247 10.316 1.91247 10.7674 2.26355Z" stroke="#3F5663" stroke-width="1.25" stroke-linecap="round" stroke-linejoin="round"/>
<path d="M6.66675 13.929V15.8338H8.57151V13.929H6.66675Z" fill="#3F5663" stroke="#3F5663" stroke-width="1.42857" stroke-linejoin="round"/>
<path d="M11.429 13.929V15.8338H13.3337V13.929H11.429Z" fill="#3F5663" stroke="#3F5663" stroke-width="1.42857" stroke-linejoin="round"/>
<path d="M9.16675 9.16666V11.0714H11.0715V9.16666H9.16675Z" fill="#3F5663" stroke="#3F5663" stroke-width="1.42857" stroke-linejoin="round"/>
</svg>
