<svg width="20" height="20" viewBox="0 0 20 20" fill="none" xmlns="http://www.w3.org/2000/svg">
<path d="M7.88416 16.5983V17.8431" stroke="#3F5663" stroke-width="1.25" stroke-linecap="round" stroke-linejoin="round"/>
<path d="M9.95935 16.5985V18.6732" stroke="#3F5663" stroke-width="1.25" stroke-linecap="round" stroke-linejoin="round"/>
<path d="M12.033 16.5985V17.8433" stroke="#3F5663" stroke-width="1.25" stroke-linecap="round" stroke-linejoin="round"/>
<path d="M6.22468 14.5222L4.16586 14.5321C3.32985 14.5361 2.74546 13.7398 3.08812 12.9772C3.64572 11.7362 4.60359 10.0471 6.00448 9.03646" stroke="#3F5663" stroke-width="1.25" stroke-linecap="round" stroke-linejoin="round"/>
<path d="M13.8804 9.03646C15.2813 10.0471 16.2392 11.7362 16.7968 12.9771C17.1394 13.7397 16.555 14.5361 15.719 14.532L13.693 14.5222" stroke="#3F5663" stroke-width="1.25" stroke-linecap="round" stroke-linejoin="round"/>
<path d="M13.6933 14.5231C14.2151 12.1686 14.1656 9.73426 13.507 7.41425C12.9658 5.50782 12.0533 3.7365 10.8124 2.20608C10.3689 1.65914 9.54885 1.65917 9.10359 2.20468C7.85416 3.73542 6.91904 5.50724 6.37768 7.41425C5.71908 9.73426 5.70256 12.1686 6.2244 14.5231H13.6933Z" stroke="#3F5663" stroke-width="1.25" stroke-linecap="round" stroke-linejoin="round"/>
<ellipse cx="9.95895" cy="9.54387" rx="1.65975" ry="1.65975" stroke="#3F5663" stroke-width="1.25"/>
</svg>
