<svg width="20" height="20" viewBox="0 0 20 20" fill="none" xmlns="http://www.w3.org/2000/svg">
<path d="M2.5 9.58334V16.6667C2.5 17.1087 2.67559 17.5326 2.98816 17.8452C3.30072 18.1577 3.72464 18.3333 4.16667 18.3333H15.8333C16.2754 18.3333 16.6993 18.1577 17.0118 17.8452C17.3244 17.5326 17.5 17.1087 17.5 16.6667V9.58334" stroke="#3F5663" stroke-width="1.25" stroke-linecap="round" stroke-linejoin="round"/>
<path d="M1.66675 5.83333H18.3334L16.9811 2.45243C16.7912 1.97785 16.3316 1.66666 15.8205 1.66666H4.17971C3.66858 1.66666 3.20894 1.97785 3.01911 2.45243L1.66675 5.83333ZM1.66675 5.83333V7.22083C1.66675 8.75572 2.91102 10 4.44591 10C5.98081 10 7.22508 8.75572 7.22508 7.22083M7.22508 5.83333V7.22083M7.22508 7.22083C7.22508 8.75572 8.46936 10 10.0042 10C11.5391 10 12.7834 8.75572 12.7834 7.22083M12.7834 5.83333V7.22083M12.7834 7.22083C12.7834 8.75572 14.0277 10 15.5626 10C17.0975 10 18.3417 8.75572 18.3417 7.22083V5.83333" stroke="#3F5663" stroke-width="1.25" stroke-linecap="round" stroke-linejoin="round"/>
<path d="M7.5 18.3333V13.75C7.5 13.0596 8.05964 12.5 8.75 12.5H11.25C11.9404 12.5 12.5 13.0596 12.5 13.75V18.3333" stroke="#3F5663" stroke-width="1.25" stroke-linecap="round" stroke-linejoin="round"/>
</svg>
