<svg width="20" height="20" viewBox="0 0 20 20" fill="none" xmlns="http://www.w3.org/2000/svg">
<path d="M12.9167 12.5V5H4.58341C4.58341 5 3.75008 5 3.33341 5.41667C2.91675 5.83333 2.91675 6.66667 2.91675 6.66667V12.5C2.91675 13.1904 3.47639 13.75 4.16675 13.75H5.00008M5.00008 13.75C5.00008 14.6705 5.74627 15.4167 6.66675 15.4167C7.58722 15.4167 8.33341 14.6705 8.33341 13.75M5.00008 13.75C5.00008 12.8295 5.74627 12.0833 6.66675 12.0833C7.58722 12.0833 8.33341 12.8295 8.33341 13.75M8.33341 13.75H12.5001M12.5001 13.75C12.5001 14.6705 13.2463 15.4167 14.1667 15.4167C15.0872 15.4167 15.8334 14.6705 15.8334 13.75C15.8334 12.8295 15.0872 12.0833 14.1667 12.0833C13.2463 12.0833 12.5001 12.8295 12.5001 13.75ZM12.9167 6.66667H15.8334L17.2262 8.40761C17.4035 8.62925 17.5001 8.90464 17.5001 9.18848V13.75H16.2501" stroke="#3F5663" stroke-width="1.25" stroke-linejoin="round"/>
</svg>
