<svg width="20" height="20" viewBox="0 0 20 20" fill="none" xmlns="http://www.w3.org/2000/svg">
<path d="M8.63619 3.29773L1.88052 15.0142C1.74123 15.2648 1.66753 15.5489 1.66675 15.8383C1.66597 16.1276 1.73814 16.4121 1.87607 16.6635C2.01401 16.9149 2.2129 17.1244 2.45296 17.2712C2.69303 17.4179 2.96589 17.4968 3.24441 17.5H16.7557C17.0343 17.4968 17.3071 17.4179 17.5472 17.2712C17.7873 17.1244 17.9862 16.9149 18.1241 16.6635C18.262 16.4121 18.3342 16.1276 18.3334 15.8383C18.3326 15.5489 18.2589 15.2648 18.1196 15.0142L11.364 3.29773C11.2218 3.05421 11.0216 2.85287 10.7827 2.71314C10.5438 2.57341 10.2742 2.5 10.0001 2.5C9.72592 2.5 9.45638 2.57341 9.21748 2.71314C8.97858 2.85287 8.77837 3.05421 8.63619 3.29773Z" stroke="#3F5663" stroke-width="1.25" stroke-linecap="round" stroke-linejoin="round"/>
<path d="M10 6.66667V10.8333" stroke="#3F5663" stroke-width="1.25" stroke-linecap="round" stroke-linejoin="round"/>
<path d="M10 14.1667H10.0083" stroke="#3F5663" stroke-width="1.25" stroke-linecap="round" stroke-linejoin="round"/>
</svg>
