<?xml version="1.0" encoding="UTF-8"?>
<svg width="24px" height="24px" viewBox="0 0 24 24" version="1.1" xmlns="http://www.w3.org/2000/svg" xmlns:xlink="http://www.w3.org/1999/xlink">
    <!-- Generator: Sketch 51.3 (57544) - http://www.bohemiancoding.com/sketch -->
    <title>Add_24x24</title>
    <desc>Created with Sketch.</desc>
    <defs></defs>
    <g id="Add_24x24" stroke="none" stroke-width="1" fill="none" fill-rule="evenodd">
        <g id="Group-5" transform="translate(2.000000, 2.000000)" fill="#000000" fill-rule="nonzero">
            <path d="M9,9 L9,1 C9,0.44771525 9.44771525,1.01453063e-16 10,0 C10.5522847,-1.01453063e-16 11,0.44771525 11,1 L11,9 L19,9 C19.5522847,9 20,9.44771525 20,10 C20,10.5522847 19.5522847,11 19,11 L11,11 L11,19 C11,19.5522847 10.5522847,20 10,20 C9.44771525,20 9,19.5522847 9,19 L9,11 L1,11 C0.44771525,11 6.76353751e-17,10.5522847 0,10 C-6.76353751e-17,9.44771525 0.44771525,9 1,9 L9,9 Z" id="Combined-Shape"></path>
        </g>
    </g>
</svg>