<?xml version="1.0" encoding="UTF-8"?>
<svg width="24px" height="24px" viewBox="0 0 24 24" version="1.1" xmlns="http://www.w3.org/2000/svg" xmlns:xlink="http://www.w3.org/1999/xlink">
    <!-- Generator: Sketch 51.3 (57544) - http://www.bohemiancoding.com/sketch -->
    <title>Apps_24x24</title>
    <desc>Created with Sketch.</desc>
    <defs></defs>
    <g id="Apps_24x24" stroke="none" stroke-width="1" fill="none" fill-rule="evenodd">
        <path d="M0.995,1.08356032e-13 L4.9975,1.08356032e-13 C5.54978475,1.08745107e-13 5.9975,0.44771525 5.9975,1 L5.9975,5.0025 C5.9975,5.55478475 5.54978475,6.0025 4.9975,6.0025 L0.995,6.0025 C0.44271525,6.0025 -0.005,5.55478475 -0.005,5.0025 L-0.005,1 C-0.005,0.44771525 0.44271525,1.08457486e-13 0.995,1.08356032e-13 Z M9.99875,1.08356032e-13 L14.00125,1.08356032e-13 C14.5535347,1.08254579e-13 15.00125,0.44771525 15.00125,1 L15.00125,5.0025 C15.00125,5.55478475 14.5535347,6.0025 14.00125,6.0025 L9.99875,6.0025 C9.44646525,6.0025 8.99875,5.55478475 8.99875,5.0025 L8.99875,1 C8.99875,0.44771525 9.44646525,1.08457486e-13 9.99875,1.08356032e-13 Z M19.0025,1.08356032e-13 L23.005,1.08356032e-13 C23.5572847,1.08254579e-13 24.005,0.44771525 24.005,1 L24.005,5.0025 C24.005,5.55478475 23.5572847,6.0025 23.005,6.0025 L19.0025,6.0025 C18.4502153,6.0025 18.0025,5.55478475 18.0025,5.0025 L18.0025,1 C18.0025,0.44771525 18.4502153,1.08457486e-13 19.0025,1.08356032e-13 Z M0.995,8.99875 L4.9975,8.99875 C5.54978475,8.99875 5.9975,9.44646525 5.9975,9.99875 L5.9975,14.00125 C5.9975,14.5535347 5.54978475,15.00125 4.9975,15.00125 L0.995,15.00125 C0.44271525,15.00125 -0.005,14.5535347 -0.005,14.00125 L-0.005,9.99875 C-0.005,9.44646525 0.44271525,8.99875 0.995,8.99875 Z M9.99875,8.99875 L14.00125,8.99875 C14.5535347,8.99875 15.00125,9.44646525 15.00125,9.99875 L15.00125,14.00125 C15.00125,14.5535347 14.5535347,15.00125 14.00125,15.00125 L9.99875,15.00125 C9.44646525,15.00125 8.99875,14.5535347 8.99875,14.00125 L8.99875,9.99875 C8.99875,9.44646525 9.44646525,8.99875 9.99875,8.99875 Z M19.0025,8.99875 L23.005,8.99875 C23.5572847,8.99875 24.005,9.44646525 24.005,9.99875 L24.005,14.00125 C24.005,14.5535347 23.5572847,15.00125 23.005,15.00125 L19.0025,15.00125 C18.4502153,15.00125 18.0025,14.5535347 18.0025,14.00125 L18.0025,9.99875 C18.0025,9.44646525 18.4502153,8.99875 19.0025,8.99875 Z M0.995,18.0025 L4.9975,18.0025 C5.54978475,18.0025 5.9975,18.4502153 5.9975,19.0025 L5.9975,23.005 C5.9975,23.5572847 5.54978475,24.005 4.9975,24.005 L0.995,24.005 C0.44271525,24.005 -0.005,23.5572847 -0.005,23.005 L-0.005,19.0025 C-0.005,18.4502153 0.44271525,18.0025 0.995,18.0025 Z M9.99875,18.0025 L14.00125,18.0025 C14.5535347,18.0025 15.00125,18.4502153 15.00125,19.0025 L15.00125,23.005 C15.00125,23.5572847 14.5535347,24.005 14.00125,24.005 L9.99875,24.005 C9.44646525,24.005 8.99875,23.5572847 8.99875,23.005 L8.99875,19.0025 C8.99875,18.4502153 9.44646525,18.0025 9.99875,18.0025 Z M19.0025,18.0025 L23.005,18.0025 C23.5572847,18.0025 24.005,18.4502153 24.005,19.0025 L24.005,23.005 C24.005,23.5572847 23.5572847,24.005 23.005,24.005 L19.0025,24.005 C18.4502153,24.005 18.0025,23.5572847 18.0025,23.005 L18.0025,19.0025 C18.0025,18.4502153 18.4502153,18.0025 19.0025,18.0025 Z" id="Combined-Shape" fill="#000000" fill-rule="nonzero"></path>
    </g>
</svg>