<?xml version="1.0" encoding="UTF-8"?>
<svg width="24px" height="24px" viewBox="0 0 24 24" version="1.1" xmlns="http://www.w3.org/2000/svg" xmlns:xlink="http://www.w3.org/1999/xlink">
    <!-- Generator: Sketch 55.2 (78181) - https://sketchapp.com -->
    <title>Check / 24x24 / filled green 2@1x</title>
    <desc>Created with Sketch.</desc>
    <g id="Check-/-24x24-/-filled-green-2" stroke="none" stroke-width="1" fill="none" fill-rule="evenodd">
        <g id="green-checkmark" fill-rule="nonzero">
            <g id="Group">
                <g id="a-link" fill="#FFFFFF">
                    <circle id="a" cx="12" cy="12" r="12"></circle>
                </g>
                <g id="a-link" fill="#92F1D3" fill-opacity="0.2">
                    <circle id="a" cx="12" cy="12" r="12"></circle>
                </g>
            </g>
            <g id="Group">
                <path d="M24,11.9999995 C24,18.627 18.627,23.9999995 12,23.9999995 C5.373,23.9999995 0,18.627 0,11.9999995 C0,5.373 5.373,-4.61272543e-07 12,-4.61272543e-07 C16.6049489,-0.00127307898 20.8044636,2.63274896 22.808,6.779 L21.263,8.226 C19.727701,4.46091177 16.0660832,1.99980496 12,1.99999954 C6.477,1.99999954 2,6.477 2,11.9999995 C2,17.523 6.477,21.9999995 12,21.9999995 C17.523,21.9999995 22,17.523 22,11.9999995 C22,11.918 22.038,11.789 22.114,11.612 C22.2982915,11.1835724 22.7582642,10.9436174 23.2150809,11.0375966 C23.6718975,11.1315759 24,11.5336166 24,11.9999995 Z" id="Path" fill="#92F1D3"></path>
                <path d="M11.513,14.339 L21.653,4.89 C21.769,5.035 21.941,5.278 22.17,5.62 C22.4,5.96 22.612,6.347 22.808,6.779 L12.256,16.677 C11.846,17.107 11.18,17.107 10.769,16.677 L6.308,12 C5.8971376,11.561543 5.8971376,10.879457 6.308,10.441 C6.718,10.011 7.384,10.011 7.795,10.441 L11.513,14.339 Z" id="Path" fill="#2EE3AA"></path>
            </g>
        </g>
    </g>
</svg>