<?xml version="1.0" encoding="UTF-8"?>
<svg width="24px" height="24px" viewBox="0 0 24 24" version="1.1" xmlns="http://www.w3.org/2000/svg" xmlns:xlink="http://www.w3.org/1999/xlink">
    <!-- Generator: Sketch 51.3 (57544) - http://www.bohemiancoding.com/sketch -->
    <title>Checkbox_selected / 24x24 / black</title>
    <desc>Created with Sketch.</desc>
    <defs></defs>
    <g id="Checkbox_selected-/-24x24-/-black" stroke="none" stroke-width="1" fill="none" fill-rule="evenodd">
        <g id="Group" fill-rule="nonzero">
            <path d="M2,0 L22,0 C23.1045695,-2.02906125e-16 24,0.8954305 24,2 L24,22 C24,23.1045695 23.1045695,24 22,24 L2,24 C0.8954305,24 1.3527075e-16,23.1045695 0,22 L0,2 C-1.3527075e-16,0.8954305 0.8954305,2.02906125e-16 2,0 Z" id="Combined-Shape" fill="#000000"></path>
            <path d="M9.89735842,14.6272848 L18.3079247,6.28785862 C18.6950104,5.90404713 19.3226002,5.90404713 19.7096858,6.28785862 C20.0967714,6.67167011 20.0967714,7.29395149 19.7096858,7.67776299 L10.5982389,16.7121414 C10.2111533,17.0959529 9.58356352,17.0959529 9.1964779,16.7121414 L4.29031422,11.8474761 C3.90322859,11.4636646 3.90322859,10.8413832 4.29031422,10.4575717 C4.67739984,10.0737602 5.30498964,10.0737602 5.69207527,10.4575717 L9.89735842,14.6272848 Z" id="Combined-Shape" fill="#FFFFFF"></path>
        </g>
    </g>
</svg>