<?xml version="1.0" encoding="UTF-8"?>
<svg width="40px" height="40px" viewBox="0 0 40 40" version="1.1" xmlns="http://www.w3.org/2000/svg" xmlns:xlink="http://www.w3.org/1999/xlink">
    <!-- Generator: Sketch 55.2 (78181) - https://sketchapp.com -->
    <title>Confirmed delivery / 40x40@1x</title>
    <desc>Created with Sketch.</desc>
    <defs>
        <linearGradient x1="0%" y1="4.64852608%" x2="100%" y2="95.3514739%" id="linearGradient-1">
            <stop stop-color="#8BDCFB" offset="0%"></stop>
            <stop stop-color="#2FB7EC" offset="100%"></stop>
        </linearGradient>
        <linearGradient x1="100%" y1="0%" x2="0%" y2="0%" id="linearGradient-2">
            <stop stop-color="#326BEE" offset="0%"></stop>
            <stop stop-color="#2F88EC" offset="100%"></stop>
        </linearGradient>
        <linearGradient x1="0%" y1="100%" x2="0%" y2="0%" id="linearGradient-3">
            <stop stop-color="#CEF2FD" stop-opacity="0.2" offset="0%"></stop>
            <stop stop-color="#8BDCFB" offset="100%"></stop>
        </linearGradient>
    </defs>
    <g id="Confirmed-delivery-/-40x40" stroke="none" stroke-width="1" fill="none" fill-rule="evenodd">
        <g id="checklist">
            <g id="Oval-2" fill-rule="nonzero">
                <g id="path-1-link" fill="#FFFFFF">
                    <circle id="path-1" cx="20" cy="20" r="20"></circle>
                </g>
                <g id="path-1-link" fill="#CEF2FD">
                    <circle id="path-1" cx="20" cy="20" r="20"></circle>
                </g>
            </g>
            <g id="Group" transform="translate(9.000000, 10.000000)">
                <g>
                    <path d="M4,11 L8,11 L8,13 L4,13 L4,11 Z M4,14 L8,14 L8,16 L4,16 L4,14 Z" id="Combined-Shape" fill="#8BDCFB" fill-rule="nonzero"></path>
                    <path d="M11,18 L11,20 L2,20 C0.8954305,20 0,19.1045695 0,18 L0,2 C0,0.8954305 0.8954305,0 2,0 L19,0 C20.1045695,0 21,0.8954305 21,2 L21,10 L11,18 Z" id="Combined-Shape" fill="url(#linearGradient-1)"></path>
                    <polygon id="Rectangle" fill="url(#linearGradient-2)" fill-rule="nonzero" points="7 0 15 0 15 5 13 4 11.347624 5 9 4 7 5"></polygon>
                    <path d="M0,0 L3,0 C4.1045695,-2.02906125e-16 5,0.8954305 5,2 L5,18 C5,19.1045695 4.1045695,20 3,20 L0,20 L0,0 Z" id="Rectangle" fill="url(#linearGradient-3)" fill-rule="nonzero" transform="translate(2.500000, 10.000000) scale(-1, 1) translate(-2.500000, -10.000000) "></path>
                    <g id="Group-9" transform="translate(2.000000, 15.000000)" fill="#FFFFFF" fill-rule="nonzero">
                        <rect id="Rectangle" x="0" y="0" width="2" height="1"></rect>
                        <rect id="Rectangle" x="0" y="2" width="2" height="1"></rect>
                    </g>
                    <circle id="Oval-3" fill="#2EE3AA" fill-rule="nonzero" cx="16.5" cy="15.5" r="7.5"></circle>
                    <path d="M20.750766,13.482345 L15.2854954,19 L12.249234,15.9346361 C11.9240207,15.6063057 11.9160317,15.0656593 12.23139,14.7270686 C12.2372462,14.720781 12.2431948,14.7145876 12.249234,14.7084906 C12.5875902,14.3668913 13.1253824,14.3668913 13.4637386,14.7084906 L15.2854954,16.5477089 L19.5362614,12.2561995 C19.8746176,11.9146002 20.4124098,11.9146002 20.750766,12.2561995 C21.0759793,12.5845299 21.0839683,13.1251763 20.76861,13.463767 C20.7627539,13.4700546 20.7568052,13.476248 20.750766,13.482345 Z" id="Combined-Shape" fill="#FFFFFF" fill-rule="nonzero"></path>
                </g>
            </g>
        </g>
    </g>
</svg>