<?xml version="1.0" encoding="UTF-8"?>
<svg width="24px" height="24px" viewBox="0 0 24 24" version="1.1" xmlns="http://www.w3.org/2000/svg" xmlns:xlink="http://www.w3.org/1999/xlink">
    <!-- Generator: Sketch 51.3 (57544) - http://www.bohemiancoding.com/sketch -->
    <title>Confirmed delivery_24x24</title>
    <desc>Created with Sketch.</desc>
    <defs></defs>
    <g id="Confirmed-delivery_24x24" stroke="none" stroke-width="1" fill="none" fill-rule="evenodd">
        <path d="M16,10 L18,10 L18,12 L16,12 L16,10 Z M6,10 L14,10 L14,12 L6,12 L6,10 Z M6,14 L14,14 L14,16 L6,16 L6,14 Z" id="Combined-Shape" fill="#000000" fill-rule="nonzero"></path>
        <polygon id="Combined-Shape" fill="#000000" fill-rule="nonzero" points="10 9 7.5 6.66666667 5 9 5 2 10 2"></polygon>
        <path d="M4,20 L11,20 L11,22 L4,22 C2.8954305,22 2,21.1045695 2,20 L2,4 C2,2.8954305 2.8954305,2 4,2 L21,2 C22.1045695,2 23,2.8954305 23,4 L23,11 L21,11 L21,4 L4,4 L4,20 Z" id="Combined-Shape" fill="#000000" fill-rule="nonzero"></path>
        <polygon id="Combined-Shape" fill="#000000" fill-rule="nonzero" points="23 15.3333333 16.125 22 12 18 13.375 16.6666667 16.125 19.3333333 21.625 14"></polygon>
    </g>
</svg>