<?xml version="1.0" encoding="UTF-8"?>
<svg width="24px" height="24px" viewBox="0 0 24 24" version="1.1" xmlns="http://www.w3.org/2000/svg" xmlns:xlink="http://www.w3.org/1999/xlink">
    <!-- Generator: Sketch 51.3 (57544) - http://www.bohemiancoding.com/sketch -->
    <title>Copy / 24x24 / black</title>
    <desc>Created with Sketch.</desc>
    <defs></defs>
    <g id="Copy-/-24x24-/-black" stroke="none" stroke-width="1" fill="none" fill-rule="evenodd">
        <path d="M5,7 L15,7 C16.1045695,7 17,7.8954305 17,9 L17,19 C17,20.1045695 16.1045695,21 15,21 L5,21 C3.8954305,21 3,20.1045695 3,19 L3,9 C3,7.8954305 3.8954305,7 5,7 Z M5,9 L5,19 L15,19 L15,9 L5,9 Z" id="Combined-Shape" fill="#000000" fill-rule="nonzero"></path>
        <path d="M16,15 L19,15 L19,5 L9,5 L9,8 L7,8 L7,5 C7,3.8954305 7.8954305,3 9,3 L19,3 C20.1045695,3 21,3.8954305 21,5 L21,15 C21,16.1045695 20.1045695,17 19,17 L16,17 L16,15 Z" id="Combined-Shape" fill="#000000" fill-rule="nonzero"></path>
    </g>
</svg>