<?xml version="1.0" encoding="UTF-8"?>
<svg width="80px" height="80px" viewBox="0 0 80 80" version="1.1" xmlns="http://www.w3.org/2000/svg" xmlns:xlink="http://www.w3.org/1999/xlink">
    <!-- Generator: Sketch 55.2 (78181) - https://sketchapp.com -->
    <title>Customer / 80x80@1x</title>
    <desc>Created with Sketch.</desc>
    <defs>
        <path d="M80,39.9998788 C80,62.0910544 62.0911756,79.9998788 40,79.9998788 C17.9082167,79.9998788 0,62.0910544 0,39.9998788 C0,17.9087032 17.9082167,-0.000121212121 40,-0.000121212121 C62.0911756,-0.000121212121 80,17.9087032 80,39.9998788" id="path-1"></path>
        <linearGradient x1="62.6886067%" y1="-32.3980917%" x2="62.6886067%" y2="23.6728039%" id="linearGradient-3">
            <stop stop-color="#2FB7EC" offset="0%"></stop>
            <stop stop-color="#8BDCFB" offset="100%"></stop>
        </linearGradient>
        <linearGradient x1="51.1275881%" y1="0%" x2="55.0090956%" y2="26.8101929%" id="linearGradient-4">
            <stop stop-color="#CEF2FD" offset="0%"></stop>
            <stop stop-color="#8BDCFB" offset="100%"></stop>
        </linearGradient>
        <linearGradient x1="42.3634789%" y1="0%" x2="32.5407546%" y2="27.9414803%" id="linearGradient-5">
            <stop stop-color="#CEF2FD" offset="0%"></stop>
            <stop stop-color="#8BDCFB" offset="100%"></stop>
        </linearGradient>
        <linearGradient x1="100%" y1="1.64102269%" x2="-6.88163666%" y2="112.603588%" id="linearGradient-6">
            <stop stop-color="#326BEE" offset="0%"></stop>
            <stop stop-color="#1D4BEA" offset="100%"></stop>
        </linearGradient>
        <linearGradient x1="0%" y1="11.71875%" x2="100%" y2="88.28125%" id="linearGradient-7">
            <stop stop-color="#FFE557" offset="0%"></stop>
            <stop stop-color="#FFC72C" offset="100%"></stop>
        </linearGradient>
    </defs>
    <g id="Customer-/-80x80" stroke="none" stroke-width="1" fill="none" fill-rule="evenodd">
        <g id="Illustration_03" transform="translate(40.000000, 40.000000) scale(-1, 1) translate(-40.000000, -40.000000) ">
            <g id="Group">
                <mask id="mask-2" fill="white">
                    <use xlink:href="#path-1"></use>
                </mask>
                <use id="Mask" fill-opacity="0.24" fill="#FFA39E" xlink:href="#path-1"></use>
                <g mask="url(#mask-2)">
                    <g transform="translate(1.212121, 8.163993)">
                        <path d="M10.7933939,69.4310303 C10.774,74.1649697 10.8509697,78.7734545 11.003697,83.2486061 L53.8509697,83.2486061 L55.5818788,80.0643636 L58.3552121,69.4504242 L58.3552121,62.8334545 C58.3552121,55.5473939 58.6709697,48.8631515 58.8903636,44.7134545 C59.024303,42.217697 57.2558182,40.1237576 57.2558182,40.1237576 C53.784303,38.3352727 50.8582424,36.7958788 50.8582424,36.7958788 L41.7933939,34.3189091 L31.4570303,33.908 L17.6206667,36.7958788 C16.1194545,36.7958788 12.0176364,41.0989091 12.0176364,41.0989091 C11.2812727,49.9916364 10.8315758,59.458303 10.7933939,69.4310303" id="Fill-4" stroke="none" fill="url(#linearGradient-3)" fill-rule="evenodd"></path>
                        <path d="M4.82515152,87.1375758 C-3.79181818,47.269697 16.8039394,36.7878788 16.8039394,36.7878788 C16.8039394,36.7878788 22.5124242,34.5442424 31.3657576,45.3024242 C42.5681818,58.9157576 36.8251515,112.958788 36.8251515,122.164242 C36.8251515,131.369091 26.0093939,129.298182 16.6784848,127.45697 C7.34818182,125.616364 0.925151515,127.45697 0.465151515,126.53697 C0.033030303,125.672727 4.25363636,91.7327273 4.77484848,87.5569697 C4.78212121,87.4975758 4.78878788,87.4442424 4.79484848,87.3969697 L4.82515152,87.1375758 Z" id="Fill-7" stroke="none" fill="url(#linearGradient-4)" fill-rule="evenodd"></path>
                        <path d="M74.2193939,90.3478182 C74.7018182,90.6920606 75.1842424,91.0290303 75.6630303,91.3581212 C76.3527273,91.8314545 77.0363636,92.2884242 77.7115152,92.7290303 C84.9581818,97.4575152 91.1424242,100.255697 91.1424242,100.255697 L95.7448485,89.1247879 C77.1048485,82.5375152 70.6612121,66.6369091 66.5187879,57.3241818 C62.3763636,48.0108485 58.2345455,41.6496364 58.2345455,41.6496364 C58.2345455,41.6496364 52.1842424,30.1290303 46.7278788,46.4205455 C46.7278788,46.4205455 27.6278788,81.856303 49.949697,130.012667 C49.949697,130.012667 64.6775758,122.062364 69.9709091,125.242364 C75.2636364,128.422364 77.7951515,128.422364 78.4854545,126.378121 C79.1757576,124.333879 72.3727273,88.9938788 72.3727273,88.9938788 L74.2193939,90.3478182 Z" id="Fill-13" stroke="none" fill="url(#linearGradient-5)" fill-rule="evenodd"></path>
                        <path d="M50.7173333,6.20721212 C50.7524848,6.1490303 50.834303,6.16115152 50.8518788,6.226 C51.2209697,7.60054545 53.7803636,17.0302424 55.0706667,19.1617576 C56.3961212,21.3508485 61.7197576,25.5714545 60.6918788,31.9138788 C60.594303,32.515697 60.1064242,32.9708485 59.5209697,33.086 L57.0349091,33.5732727 C56.9930909,33.5817576 56.9530909,33.5544848 56.9446061,33.5132727 L56.554303,31.5229697 C56.554303,31.5229697 55.8930909,34.5484242 55.2482424,34.4599394 C54.6033939,34.3720606 48.973697,36.0908485 41.784,34.3526667 C34.9082424,32.6908485 49.433697,8.33387879 50.7173333,6.20721212" id="Fill-16" stroke="none" fill="#1D4BEA" fill-rule="evenodd"></path>
                        <path d="M41.7892121,34.3227273 C40.9934545,28.6069697 41.5746667,28.0287879 41.5746667,28.0287879 C42.2819394,27.4669697 42.7316364,27.9439394 44.638303,27.6809091 C45.3758788,27.5790909 47.2613333,27.3190909 48.6928485,26.219697 C50.0189091,25.199697 50.5140606,23.7972727 50.8413333,22.8330303 C52.5831515,17.6924242 50.9686061,8.43727273 50.7486061,7.21787879 C50.7486061,7.21787879 23.9037576,13.919697 26.2128485,24.1233333 C26.9655758,27.4475758 27.4722424,29.6887879 27.8146667,31.200303 L31.4552727,33.9057576 C32.177697,36.0348485 34.1025455,37.5293939 36.3164848,37.6833333 C38.6431515,37.8451515 40.8486061,36.4954545 41.7892121,34.3227273" id="Fill-19" stroke="none" fill="#FFFFFF" fill-rule="evenodd"></path>
                        <g id="Group-24" stroke="none" stroke-width="1" fill="none" fill-rule="evenodd" transform="translate(49.090909, 15.586061)">
                            <path d="M0.493030303,1.33430303 C0.488181818,1.91127273 0.782727273,2.38218182 1.15121212,2.38460606 C1.51969697,2.38824242 1.82272727,1.92339394 1.82757576,1.34642424 C1.83242424,0.768848485 1.53787879,0.298545455 1.16939394,0.295515152 C0.800909091,0.291878788 0.497878788,0.757333333 0.493030303,1.33430303" id="Fill-22" fill="#1D4BEA"></path>
                        </g>
                        <g id="Group-27" stroke="none" stroke-width="1" fill="none" fill-rule="evenodd" transform="translate(42.424242, 15.586061)">
                            <path d="M0.471454545,1.33430303 C0.466606061,1.91127273 0.761151515,2.38218182 1.12963636,2.38460606 C1.49812121,2.38824242 1.80054545,1.92339394 1.806,1.34642424 C1.81084848,0.768848485 1.51630303,0.298545455 1.14781818,0.295515152 C0.779333333,0.291878788 0.47630303,0.757333333 0.471454545,1.33430303" id="Fill-25" fill="#1D4BEA"></path>
                        </g>
                        <g id="Group-30" stroke="none" stroke-width="1" fill="none" fill-rule="evenodd" transform="translate(49.090909, 11.343636)" stroke-linecap="round" stroke-linejoin="round">
                            <path d="M2.28460606,1.04315152 C2.07975758,0.949818182 1.79248485,0.843757576 1.43793939,0.786181818 C1.05975758,0.725575758 0.736727273,0.740121212 0.505212121,0.768606061" id="Stroke-28" stroke="#1D4BEA" stroke-width="0.588235294"></path>
                        </g>
                        <g id="Group-33" stroke="none" stroke-width="1" fill="none" fill-rule="evenodd" transform="translate(35.757576, 17.404242)">
                            <path d="M0.961515152,4.17521212 C1.74030303,5.41157576 3.37363636,5.78187879 4.61,5.00248485 C5.84575758,4.22369697 6.21606061,2.59036364 5.43727273,1.35460606 C4.65848485,0.118848485 3.02454545,-0.252060606 1.78878788,0.526727273 C0.553030303,1.30612121 0.182121212,2.93945455 0.961515152,4.17521212" id="Fill-31" fill="#FFE380"></path>
                        </g>
                        <g id="Group-36" stroke="none" stroke-width="1" fill="none" fill-rule="evenodd" transform="translate(49.696970, 18.010303)">
                            <path d="M1.3029697,4.31018182 C1.29933333,4.30654545 1.05933333,4.03078788 0.962363636,3.87624242 C0.182969697,2.64048485 0.553272727,1.00715152 1.78963636,0.228363636 C1.82842424,0.203515152 1.86721212,0.180484848 1.90660606,0.158060606 C1.88478788,0.847757576 1.82236364,1.61987879 1.69145455,2.4550303 C1.58539394,3.13078788 1.45024242,3.75078788 1.3029697,4.31018182" id="Fill-34" fill="#FFE380"></path>
                        </g>
                        <g id="Group-39" stroke="none" stroke-width="1" fill="none" fill-rule="evenodd" transform="translate(49.696970, 4.676970)">
                            <path d="M0.577090909,0.587393939 C0.577090909,0.587393939 1.06860606,0.940727273 1.34315152,2.24254545 C1.61709091,3.54557576 0.577090909,0.587393939 0.577090909,0.587393939" id="Fill-37" fill="#231F20"></path>
                        </g>
                        <g id="Group-42" stroke="none" stroke-width="1" fill="none" fill-rule="evenodd" transform="translate(44.242424, 22.252727)" stroke-linecap="round" stroke-linejoin="round">
                            <path d="M0.19,0.160666667 C0.19,0.160666667 0.660909091,1.4709697 2.35,1.51157576" id="Stroke-40" stroke="#1D4BEA" stroke-width="0.588235294"></path>
                        </g>
                        <g id="Group-45" stroke="none" stroke-width="1" fill="none" fill-rule="evenodd" transform="translate(40.606061, 11.343636)" stroke-linecap="round" stroke-linejoin="round">
                            <path d="M4.30842424,0.611636364 C3.95084848,0.487393939 3.25872727,0.300121212 2.39690909,0.420727273 C1.29327273,0.574060606 0.559939394,1.14133333 0.270242424,1.39224242" id="Stroke-43" stroke="#231F20" stroke-width="0.588235294"></path>
                        </g>
                        <g id="Group-48" stroke="none" stroke-width="1" fill="none" fill-rule="evenodd" transform="translate(46.060606, 18.010303)" stroke-linecap="round" stroke-linejoin="round">
                            <path d="M0.728606061,0.15830303 C0.728606061,0.15830303 1.16133333,2.13890909 0.906787879,2.35648485 C0.652848485,2.57406061 0.0764848485,2.35648485 0.0764848485,2.35648485" id="Stroke-46" stroke="#1D4BEA" stroke-width="0.588235294"></path>
                        </g>
                        <path d="M48.7340606,3.93090909 C48.7340606,3.93090909 43.4013333,0.775757576 41.1746667,0.393333333 C38.948,0.0103030303 32.0619394,0.951515152 29.398303,6.7 C26.7352727,12.4484848 27.7667879,16.14 22.1546667,19.3933333 C16.5419394,22.6460606 15.2952727,29.3466667 16.277697,30.1781818 C17.2607273,31.010303 27.6801212,34.4993939 28.8431515,34.6806061 C30.0055758,34.8624242 32.728,34.6357576 33.0522424,32.1127273 C33.3770909,29.589697 31.7395152,24.3775758 34.4655758,23.1254545 C37.1916364,21.8733333 39.4898182,18.9636364 39.3055758,15.4127273 C39.3055758,15.4127273 46.3092121,14.5509091 49.1607273,11.3272727 C52.0122424,8.10424242 51.1813333,5.29515152 48.7340606,3.93090909" id="Fill-49" stroke="none" fill="url(#linearGradient-6)" fill-rule="evenodd"></path>
                        <path d="M31.8052121,34.6275152 C32.8870303,36.5287273 34.9221818,37.6832727 37.0433939,37.5620606 C39.0573333,37.446303 40.873697,36.196 41.7894545,34.3226667" id="Stroke-59" stroke="#FFD560" stroke-width="0.909090909" fill="none" stroke-linecap="round" stroke-linejoin="round"></path>
                    </g>
                </g>
                <g id="Group-13" mask="url(#mask-2)">
                    <g transform="translate(25.882353, 57.647059)">
                        <polygon id="Rectangle" fill="#FFE557" fill-rule="nonzero" points="0 -4.11435591e-15 28.2352941 -4.11435591e-15 28.2352941 16.4705882 0 16.4705882"></polygon>
                        <polygon id="Rectangle" fill="url(#linearGradient-7)" fill-rule="nonzero" points="0 -4.11435591e-15 18.8235294 -4.11435591e-15 18.8235294 16.4705882 0 16.4705882"></polygon>
                        <g id="Group-2" stroke-width="1" fill="none" fill-rule="evenodd" transform="translate(12.705882, 11.829615)">
                            <rect id="Rectangle" fill="#FFFFFF" fill-rule="nonzero" x="0" y="0" width="3.76470588" height="1.90398918"></rect>
                            <rect id="Rectangle" fill="#FFFFFF" fill-rule="nonzero" x="0" y="2.37998648" width="3.76470588" height="1" rx="0.235294118"></rect>
                        </g>
                        <polygon id="Rectangle" fill="#F0B616" fill-rule="nonzero" points="5.88235294 0 12.9411765 0 12.9411765 4.70588235 11.7737534 4.23529412 10.5882353 4.70588235 9.41176471 4.23529412 8.23529412 4.70588235 7.05882353 4.23529412 5.88235294 4.70588235"></polygon>
                        <polygon id="Rectangle" fill="#F0B616" fill-rule="nonzero" points="20 -5.68434189e-14 22.3529412 -5.68434189e-14 22.3529412 4.75997295 21.1764706 4.28397566 20 4.75997295"></polygon>
                    </g>
                </g>
                <g id="Group-15" mask="url(#mask-2)">
                    <g transform="translate(14.777880, 68.836149)">
                        <polygon id="Path-5" fill="#2FB7EC" fill-rule="evenodd" points="4.04564951 3.52941176 0 5.28149822 3.50911458 12.7868597 7.0397466 7.6344394"></polygon>
                        <path d="M15.8065607,1.21980485 C13.959009,1.0095012 12.111222,0.792975554 10.2601417,0.625977036 C9.71909653,0.576201025 9.07572321,0.502532529 8.63277186,0.749172664 C7.07432645,1.61651966 5.56151702,2.57620115 4.04564951,3.52941176 C4.77441387,5.1050714 5.79745977,6.50029299 7.0397466,7.6344394 C7.96893292,7.16803818 8.9505771,6.92015364 10.0686588,6.97913821 C12.3909189,7.10084056 13.351553,7.02493215 15.6814146,7.02493215 C17.059708,7.02493215 18.2791588,6.44378751 19.3397672,5.28149822 C18.9031863,5.28149822 17.7488546,5.28149822 15.8103554,5.28149822 C14.4869694,5.28149822 13.7778765,4.07669901 13.2756454,3.80965071 C13.2883482,3.68073084 13.2998748,3.55181097 13.3128128,3.42313998 C14.1034445,3.51323456 14.8912534,3.61179106 15.6814146,3.69292596 C16.0810824,3.73623109 17.323022,3.52941176 17.8166613,3.11900855 C17.9859246,2.97828593 17.9528635,2.78874472 17.9674482,2.60830668 C18.0194356,1.96146741 16.2520997,1.26982974 15.8065607,1.21980485 Z" id="Path" fill="#FFFFFF" fill-rule="nonzero"></path>
                    </g>
                </g>
                <g id="Group-15" mask="url(#mask-2)">
                    <g transform="translate(52.352941, 75.306737) scale(-1, 1) translate(-52.352941, -75.306737) translate(42.352941, 68.836149)">
                        <polygon id="Path-5" fill="#2FB7EC" fill-rule="evenodd" points="4.04564951 3.52941176 0 5.28149822 3.50911458 12.7868597 7.0397466 7.6344394"></polygon>
                        <path d="M15.8065607,1.21980485 C13.959009,1.0095012 12.111222,0.792975554 10.2601417,0.625977036 C9.71909653,0.576201025 9.07572321,0.502532529 8.63277186,0.749172664 C7.07432645,1.61651966 5.56151702,2.57620115 4.04564951,3.52941176 C4.77441387,5.1050714 5.79745977,6.50029299 7.0397466,7.6344394 C7.96893292,7.16803818 8.9505771,6.92015364 10.0686588,6.97913821 C12.3909189,7.10084056 13.351553,7.02493215 15.6814146,7.02493215 C17.059708,7.02493215 18.2791588,6.44378751 19.3397672,5.28149822 C18.9031863,5.28149822 17.7488546,5.28149822 15.8103554,5.28149822 C14.4869694,5.28149822 13.7778765,4.07669901 13.2756454,3.80965071 C13.2883482,3.68073084 13.2998748,3.55181097 13.3128128,3.42313998 C14.1034445,3.51323456 14.8912534,3.61179106 15.6814146,3.69292596 C16.0810824,3.73623109 17.323022,3.52941176 17.8166613,3.11900855 C17.9859246,2.97828593 17.9528635,2.78874472 17.9674482,2.60830668 C18.0194356,1.96146741 16.2520997,1.26982974 15.8065607,1.21980485 Z" id="Path" fill="#FFFFFF" fill-rule="nonzero"></path>
                    </g>
                </g>
            </g>
            <path d="M64.9089384,6.06799827 C63.7546397,6.06799827 62.7483049,6.68155569 62.1940062,7.59539323 C61.6401601,6.68155569 60.6333728,6.06799827 59.4790741,6.06799827 C57.7297529,6.06799827 56.3116533,7.47259211 56.3116533,9.20525317 C56.3116533,12.5388106 62.1940062,15.479763 62.1940062,15.479763 C62.1940062,15.479763 68.0763592,12.5383624 68.0763592,9.20525317 C68.0763592,7.47259211 66.6582596,6.06799827 64.9089384,6.06799827 Z" id="Path" fill="#FFA39E" fill-rule="nonzero" transform="translate(62.194006, 10.773881) rotate(15.000000) translate(-62.194006, -10.773881) "></path>
        </g>
    </g>
</svg>