<?xml version="1.0" encoding="UTF-8"?>
<svg width="24px" height="24px" viewBox="0 0 24 24" version="1.1" xmlns="http://www.w3.org/2000/svg" xmlns:xlink="http://www.w3.org/1999/xlink">
    <!-- Generator: Sketch 51.3 (57544) - http://www.bohemiancoding.com/sketch -->
    <title>Delete  / 24x24 / black</title>
    <desc>Created with Sketch.</desc>
    <defs></defs>
    <g id="Delete--/-24x24-/-black" stroke="none" stroke-width="1" fill="none" fill-rule="evenodd">
        <path d="M7,8 L7,20 L17,20 L17,8 L7,8 Z M5,6 L19,6 L19,20 C19,21.1045695 18.1045695,22 17,22 L7,22 C5.8954305,22 5,21.1045695 5,20 L5,6 Z" id="Rectangle-2" fill="#000000" fill-rule="nonzero"></path>
        <path d="M4,6 L20,6 L20,8 L4,8 L4,6 Z M10,10 C10.5522847,10 11,10.4477153 11,11 L11,17 C11,17.5522847 10.5522847,18 10,18 C9.44771525,18 9,17.5522847 9,17 L9,11 C9,10.4477153 9.44771525,10 10,10 Z M14,10 C14.5522847,10 15,10.4477153 15,11 L15,17 C15,17.5522847 14.5522847,18 14,18 C13.4477153,18 13,17.5522847 13,17 L13,11 C13,10.4477153 13.4477153,10 14,10 Z M9,2 L15,2 C16.1045695,2 17,2.8954305 17,4 L17,5 L7,5 L7,4 C7,2.8954305 7.8954305,2 9,2 Z" id="Combined-Shape" fill="#000000" fill-rule="nonzero"></path>
    </g>
</svg>