<?xml version="1.0" encoding="UTF-8"?>
<svg width="24px" height="24px" viewBox="0 0 24 24" version="1.1" xmlns="http://www.w3.org/2000/svg" xmlns:xlink="http://www.w3.org/1999/xlink">
    <!-- Generator: Sketch 55.2 (78181) - https://sketchapp.com -->
    <title>Delivery / 24x24@1x</title>
    <desc>Created with Sketch.</desc>
    <g id="Delivery-/-24x24" stroke="none" stroke-width="1" fill="none" fill-rule="evenodd">
        <circle id="Oval" fill="#CEF2FD" fill-rule="nonzero" cx="12" cy="12" r="12"></circle>
        <g id="Group" transform="translate(4.000000, 6.000000)" fill-rule="nonzero">
            <path d="M12,13 C13.6568542,13 15,11.6568542 15,10 C15,8.34314575 13.6568542,7 12,7 C10.3431458,7 9,8.34314575 9,10 C9,11.6568542 10.3431458,13 12,13 Z" id="Oval" fill="#326BEE"></path>
            <polygon id="Path" fill="#326BEE" points="0 10 12 10 12 0 0 0"></polygon>
            <polygon id="Path" fill="#FFFFFF" points="2 8 2 2 10 2 10 8"></polygon>
            <polygon id="Path" fill="#8BDCFB" points="7 5 9 5 9 7 7 7"></polygon>
            <polygon id="Path" fill="#326BEE" points="12 8 12 2 16 4 16 10 0 10 0 8"></polygon>
            <path d="M12,11 C11.4477153,11 11,10.5522847 11,10 C11,9.44771525 11.4477153,9 12,9 C12.5522847,9 13,9.44771525 13,10 C13,10.5522847 12.5522847,11 12,11 Z" id="Path" fill="#FFFFFF"></path>
            <path d="M4,13 C5.65685425,13 7,11.6568542 7,10 C7,8.34314575 5.65685425,7 4,7 C2.34314575,7 1,8.34314575 1,10 C1,11.6568542 2.34314575,13 4,13 Z" id="Oval" fill="#326BEE"></path>
            <path d="M4,11 C3.44771525,11 3,10.5522847 3,10 C3,9.44771525 3.44771525,9 4,9 C4.55228475,9 5,9.44771525 5,10 C5,10.5522847 4.55228475,11 4,11 Z" id="Path" fill="#FFFFFF"></path>
        </g>
    </g>
</svg>