<?xml version="1.0" encoding="UTF-8"?>
<svg width="40px" height="40px" viewBox="0 0 40 40" version="1.1" xmlns="http://www.w3.org/2000/svg" xmlns:xlink="http://www.w3.org/1999/xlink">
    <!-- Generator: Sketch 55.2 (78181) - https://sketchapp.com -->
    <title>Denied / 40x40@1x</title>
    <desc>Created with Sketch.</desc>
    <defs>
        <linearGradient x1="3.92%" y1="0%" x2="96.08%" y2="100%" id="linearGradient-1">
            <stop stop-color="#8BDCFB" offset="0%"></stop>
            <stop stop-color="#2FB7EC" offset="100%"></stop>
        </linearGradient>
        <linearGradient x1="50%" y1="0%" x2="50%" y2="100%" id="linearGradient-2">
            <stop stop-color="#E6F7FF" offset="0%"></stop>
            <stop stop-color="#E6F7FF" offset="100%"></stop>
        </linearGradient>
        <linearGradient x1="100%" y1="62.5%" x2="0%" y2="37.5%" id="linearGradient-3">
            <stop stop-color="#2FB7EC" offset="0%"></stop>
            <stop stop-color="#2F88EC" offset="100%"></stop>
        </linearGradient>
        <polygon id="path-4" points="0 0 16 0 16 16 0 16"></polygon>
    </defs>
    <g id="Denied-/-40x40" stroke="none" stroke-width="1" fill="none" fill-rule="evenodd">
        <g id="checklist" fill-rule="nonzero">
            <g id="Oval-2">
                <g id="path-1-link" fill="#FFFFFF">
                    <circle id="path-1" cx="20" cy="20" r="20"></circle>
                </g>
                <g id="path-1-link" fill="#CEF2FD">
                    <circle id="path-1" cx="20" cy="20" r="20"></circle>
                </g>
            </g>
        </g>
        <g id="dispute-denied" transform="translate(8.000000, 5.000000)">
            <g id="Clipped">
                <g id="Rectangle-2" transform="translate(0.000000, 3.000000)" fill="url(#linearGradient-1)">
                    <path d="M2,0 L22,0 C23.1045695,0 24,0.8954305 24,2 L24,21 L20,25 L2,25 C0.8954305,25 0,24.1045695 0,23 L0,2 C0,0.8954305 0.8954305,0 2,0 Z" id="Rectangle"></path>
                </g>
                <g id="Group">
                    <g>
                        <g transform="translate(0.000000, 3.000000)" id="Rectangle">
                            <polygon fill="#0098D3" fill-rule="nonzero" transform="translate(22.000000, 23.000000) scale(-1, 1) translate(-22.000000, -23.000000) " points="20 21 24 21 24 25"></polygon>
                            <path d="M1,0 L7,0 L15,25 L1,25 C0.44771525,25 0,24.1045695 0,23 L0,2 C0,0.8954305 0.44771525,0 1,0 Z" fill="url(#linearGradient-2)" opacity="0.28"></path>
                        </g>
                        <path d="M10,2 L10,0 L14,0 L14,2 L17,2 C17.5522847,2 18,2.3581722 18,2.8 L18,6 L6,6 L6,2.8 C6,2.3581722 6.44771525,2 7,2 L10,2 Z" id="Combined-Shape" fill="url(#linearGradient-3)" fill-rule="nonzero"></path>
                        <g transform="translate(4.000000, 8.000000)">
                            <circle id="Oval" fill="#FFFFFF" fill-rule="nonzero" cx="8" cy="8" r="8"></circle>
                            <g id="f-link" fill="#E45858" fill-opacity="0" fill-rule="nonzero">
                                <polygon id="f" points="0 0 16 0 16 16 0 16"></polygon>
                            </g>
                            <g id="Clipped">
                                <mask id="mask-5" fill="white">
                                    <use xlink:href="#path-4"></use>
                                </mask>
                                <g id="f"></g>
                                <path d="M9,7 L10,7 C10.5522847,7 11,7.44771525 11,8 C11,8.55228475 10.5522847,9 10,9 L9,9 L9,13 C9,13.5522847 8.55228475,14 8,14 C7.44771525,14 7,13.5522847 7,13 L7,9 L3,9 C2.44771525,9 2,8.55228475 2,8 C2,7.44771525 2.44771525,7 3,7 L7,7 L7,3 C7,2.44771525 7.44771525,2 8,2 C8.55228475,2 9,2.44771525 9,3 L9,7 Z M13,7 C13.5522847,7 14,7.44771525 14,8 C14,8.55228475 13.5522847,9 13,9 C12.4477153,9 12,8.55228475 12,8 C12,7.44771525 12.4477153,7 13,7 Z" id="Shape" fill="#E14D4C" fill-rule="nonzero" mask="url(#mask-5)" transform="translate(8.000000, 8.000000) rotate(45.000000) translate(-8.000000, -8.000000) "></path>
                            </g>
                        </g>
                    </g>
                </g>
            </g>
        </g>
    </g>
</svg>