<?xml version="1.0" encoding="UTF-8"?>
<svg width="24px" height="24px" viewBox="0 0 24 24" version="1.1" xmlns="http://www.w3.org/2000/svg" xmlns:xlink="http://www.w3.org/1999/xlink">
    <!-- Generator: Sketch 51.3 (57544) - http://www.bohemiancoding.com/sketch -->
    <title>Disable / 24x24 / black</title>
    <desc>Created with Sketch.</desc>
    <defs></defs>
    <g id="Disable-/-24x24-/-black" stroke="none" stroke-width="1" fill="none" fill-rule="evenodd">
        <path d="M6.86165879,7.24627418 C5.70619628,8.49462177 5,10.1648404 5,12 C5,15.8659932 8.13400675,19 12,19 C13.8351596,19 15.5053782,18.2938037 16.7537258,17.1383412 L18.1687652,18.5533806 C16.5577814,20.070386 14.3874522,21 12,21 C7.02943725,21 3,16.9705627 3,12 C3,9.61254782 3.92961397,7.44221861 5.44661945,5.83123483 L6.86165879,7.24627418 Z M17.9970663,15.6124509 C18.6336946,14.5578441 19,13.3216996 19,12 C19,8.13400675 15.8659932,5 12,5 C10.6783004,5 9.44215591,5.36630538 8.38754909,6.00293371 L6.94040266,4.55578727 C8.38220887,3.57393413 10.1240797,3 12,3 C16.9705627,3 21,7.02943725 21,12 C21,13.8759203 20.4260659,15.6177911 19.4442127,17.0595973 L17.9970663,15.6124509 Z" id="Combined-Shape" fill="#000000" fill-rule="nonzero"></path>
        <polygon id="Rectangle-5" fill="#000000" fill-rule="nonzero" points="3.38461538 3 20 19.6153846 18.6153846 21 2 4.38461538"></polygon>
    </g>
</svg>