<?xml version="1.0" encoding="UTF-8"?>
<svg width="24px" height="24px" viewBox="0 0 24 24" version="1.1" xmlns="http://www.w3.org/2000/svg" xmlns:xlink="http://www.w3.org/1999/xlink">
    <!-- Generator: Sketch 51.3 (57544) - http://www.bohemiancoding.com/sketch -->
    <title>Edit_24x24</title>
    <desc>Created with Sketch.</desc>
    <defs></defs>
    <g id="Edit_24x24" stroke="none" stroke-width="1" fill="none" fill-rule="evenodd">
        <g id="Group" transform="translate(2.000000, 2.000000)" fill="#305BEF" fill-rule="nonzero">
            <path d="M2,14.8390014 L2,18 L5.16099865,18 L13.1842561,9.83086509 L10.1691349,6.81574385 L2,14.8390014 Z M0,14 L10.1818182,4 L16,9.81818182 L6,20 L1,20 C0.44771525,20 6.76353751e-17,19.5522847 0,19 L0,14 Z" id="Combined-Shape"></path>
            <path d="M12,2.57782572 L14.0043386,0.573487084 C14.7689881,-0.191162361 16.0087298,-0.191162361 16.7733792,0.573487084 L19.4265129,3.22662078 C20.1911624,3.99127022 20.1911624,5.23101192 19.4265129,5.99566137 L17.4221743,8 L12,2.57782572 Z" id="Rectangle-path"></path>
            <path d="M10,18 L18,18 L18,20.00125 L10,20.00125 L10,18 Z M14,15 L18,15 L18,17.00125 L14,17.00125 L14,15 Z" id="Combined-Shape"></path>
        </g>
    </g>
</svg>