<?xml version="1.0" encoding="UTF-8"?>
<svg width="24px" height="24px" viewBox="0 0 24 24" version="1.1" xmlns="http://www.w3.org/2000/svg" xmlns:xlink="http://www.w3.org/1999/xlink">
    <!-- Generator: Sketch 51.3 (57544) - http://www.bohemiancoding.com/sketch -->
    <title>Error_24x24</title>
    <desc>Created with Sketch.</desc>
    <defs></defs>
    <g id="Error_24x24" stroke="none" stroke-width="1" fill="none" fill-rule="evenodd">
        <path d="M12,22 C17.5228475,22 22,17.5228475 22,12 C22,6.4771525 17.5228475,2 12,2 C6.4771525,2 2,6.4771525 2,12 C2,17.5228475 6.4771525,22 12,22 Z M12,24 C5.372583,24 0,18.627417 0,12 C0,5.372583 5.372583,0 12,0 C18.627417,0 24,5.372583 24,12 C24,18.627417 18.627417,24 12,24 Z" id="Oval-9" fill="#000000" fill-rule="nonzero"></path>
        <path d="M11,15 L11,6 L13,6 L13,15 L11,15 Z M11,18 L11,16 L13,16 L13,18 L11,18 Z" id="path-1" fill="#000000" fill-rule="nonzero"></path>
    </g>
</svg>