<?xml version="1.0" encoding="UTF-8"?>
<svg width="40px" height="40px" viewBox="0 0 40 40" version="1.1" xmlns="http://www.w3.org/2000/svg" xmlns:xlink="http://www.w3.org/1999/xlink">
    <!-- Generator: Sketch 55.2 (78181) - https://sketchapp.com -->
    <title>social media/facebook/40x40@3x</title>
    <desc>Created with Sketch.</desc>
    <g id="social-media/facebook/40x40" stroke="none" stroke-width="1" fill="none" fill-rule="evenodd">
        <g>
            <rect id="Rectangle" x="0" y="0" width="40" height="40"></rect>
            <path d="M34.6097826,0 L5.3901195,0 C2.41329794,0 0,2.41318238 0,5.39007994 L0,34.6097244 C0,37.5866219 2.41320009,40 5.3901195,40 L19.8011179,40 L19.8256785,25.7060383 L16.1121372,25.7060383 C15.6295363,25.7060383 15.237839,25.3158116 15.2359798,24.8332143 L15.2181709,20.2257405 C15.2163118,19.7405012 15.6091833,19.3461648 16.0944262,19.3461648 L19.8012158,19.3461648 L19.8012158,14.894175 C19.8012158,9.72768281 22.9566153,6.91448868 27.5654929,6.91448868 L31.347432,6.91448868 C31.831305,6.91448868 32.2236873,7.30677026 32.2236873,7.7907375 L32.2236873,11.675783 C32.2236873,12.1595546 31.8315985,12.5517383 31.3479213,12.5520319 L29.0269946,12.5531082 C26.5205426,12.5531082 26.0352019,13.7441412 26.0352019,15.4920399 L26.0352019,19.3462626 L31.5427425,19.3462626 C32.0675172,19.3462626 32.474675,19.8044952 32.4128332,20.3256456 L31.866727,24.9331194 C31.8144746,25.3740325 31.4405861,25.706234 30.9966364,25.706234 L26.0597625,25.706234 L26.0352019,40 L34.6099784,40 C37.5867999,40 40,37.5868176 40,34.6100179 L40,5.39007994 C40,2.41318238 37.5867021,0 34.6097826,0 Z" id="Path" fill="#1877F2" fill-rule="nonzero"></path>
        </g>
    </g>
</svg>