<?xml version="1.0" encoding="UTF-8"?>
<svg width="24px" height="24px" viewBox="0 0 24 24" version="1.1" xmlns="http://www.w3.org/2000/svg" xmlns:xlink="http://www.w3.org/1999/xlink">
    <!-- Generator: Sketch 51.3 (57544) - http://www.bohemiancoding.com/sketch -->
    <title>Filter  / 24x24 / black</title>
    <desc>Created with Sketch.</desc>
    <defs></defs>
    <g id="Filter--/-24x24-/-black" stroke="none" stroke-width="1" fill="none" fill-rule="evenodd">
        <path d="M7.2713176,5.99875 C7.61760924,5.40160916 8.2637792,5 9.00375,5 C9.7437208,5 10.3898908,5.40160916 10.7361824,5.99875 L21.000625,5.99875 L21.000625,8 L10.7383517,8 C10.3925938,8.59920885 9.74526873,9.0025 9.00375,9.0025 C8.26223127,9.0025 7.61490623,8.59920885 7.26914834,8 L3.000625,8 L3.000625,5.99875 L7.2713176,5.99875 Z M10.2740198,10.999375 C10.6206638,10.4036135 11.2660623,10.003125 12.005,10.003125 C12.7439377,10.003125 13.3893362,10.4036135 13.7359802,10.999375 L21,10.999375 L21,13.000625 L13.7410418,13.000625 C13.3956433,13.6012118 12.7475495,14.005625 12.005,14.005625 C11.2624505,14.005625 10.6143567,13.6012118 10.2689582,13.000625 L3,13.000625 L3,10.999375 L10.2740198,10.999375 Z M13.2662879,16.0025 C13.6119562,15.4029466 14.2594735,14.999375 15.00125,14.999375 C15.7430265,14.999375 16.3905438,15.4029466 16.7362121,16.0025 L21,16.0025 L21,18.00375 L16.7333198,18.00375 C16.3869398,18.6005461 15.7409626,19.001875 15.00125,19.001875 C14.2615374,19.001875 13.6155602,18.6005461 13.2691802,18.00375 L3,18.00375 L3,16.0025 L13.2662879,16.0025 Z" id="Combined-Shape" fill="#000000" fill-rule="nonzero"></path>
    </g>
</svg>