<?xml version="1.0" encoding="UTF-8"?>
<svg width="24px" height="24px" viewBox="0 0 24 24" version="1.1" xmlns="http://www.w3.org/2000/svg" xmlns:xlink="http://www.w3.org/1999/xlink">
    <!-- Generator: Sketch 51.3 (57544) - http://www.bohemiancoding.com/sketch -->
    <title>Home_24x24</title>
    <desc>Created with Sketch.</desc>
    <defs></defs>
    <g id="Home_24x24" stroke="none" stroke-width="1" fill="none" fill-rule="evenodd">
        <g id="Group" transform="translate(1.000000, 1.000000)" fill="#000000" fill-rule="nonzero">
            <path d="M0.358582363,9.83737524 L10.2065178,0.322222955 C10.6511743,-0.107407652 11.3488258,-0.107407652 11.7934823,0.322222955 L21.6414176,9.83737524 C22.1027104,10.2830799 22.121408,11.0247266 21.6831799,11.4938895 C21.6696183,11.5084084 21.655693,11.5225713 21.6414176,11.5363641 L21.495059,11.6777771 C21.0504025,12.1074076 20.352751,12.1074076 19.9080945,11.6777771 L11,3.07070646 L2.09190554,11.6777771 C1.64724902,12.1074076 0.94959756,12.1074076 0.50494105,11.6777771 L0.358582363,11.5363641 C-0.102710419,11.0906595 -0.121408003,10.3490128 0.316820139,9.87984996 C0.330381709,9.86533107 0.344307025,9.85116818 0.358582363,9.83737524 Z" id="Combined-Shape"></path>
            <polygon id="Combined-Shape" points="20 22 2 22 2 14.00125 4 14.00125 4 20.00375 18 20.00375 18 14.00125 20 14.00125"></polygon>
            <path d="M10,20 L12,20 L12,15 L10,15 L10,20 Z M14,15 L14,22 L8,22 L8,15 C8,13.8954305 8.8954305,13 10,13 L12,13 C13.1045695,13 14,13.8954305 14,15 Z" id="Rectangle-25"></path>
        </g>
    </g>
</svg>