<?xml version="1.0" encoding="UTF-8"?>
<svg width="24px" height="24px" viewBox="0 0 24 24" version="1.1" xmlns="http://www.w3.org/2000/svg" xmlns:xlink="http://www.w3.org/1999/xlink">
    <!-- Generator: Sketch 51.3 (57544) - http://www.bohemiancoding.com/sketch -->
    <title>Inbox_24x24</title>
    <desc>Created with Sketch.</desc>
    <defs></defs>
    <g id="Inbox_24x24" stroke="none" stroke-width="1" fill="none" fill-rule="evenodd">
        <g id="Group" transform="translate(1.000000, 1.000000)" fill="#000000" fill-rule="nonzero">
            <path d="M20,11 L20,2 L2,2 L2,11 L0,11 L0,2 C-1.11022302e-16,0.8954305 0.8954305,2.22044605e-16 2,0 L20,0 C21.1045695,-2.22044605e-16 22,0.8954305 22,2 L22,11 L20,11 Z" id="Combined-Shape"></path>
            <path d="M2,15 L2,21 L20,21 L20,15 L18.49279,15 C17.3496401,17.0239816 14.4044393,18 11,18 C7.59556068,18 4.65035993,17.0239816 3.50720996,15 L2,15 Z M5,13 C5,15 7.96243387,16 11,16 C14.0375661,16 17,15 17,13 L22,13 L22,21 C22,22.1045695 21.1045695,23 20,23 L2,23 C0.8954305,23 2.22044605e-16,22.1045695 0,21 L0,13 L5,13 Z" id="Combined-Shape-path"></path>
            <path d="M5,5 L17,5 L17,7 L5,7 L5,5 Z M5,9 L17,9 L17,11 L5,11 L5,9 Z" id="Combined-Shape"></path>
        </g>
    </g>
</svg>