<?xml version="1.0" encoding="UTF-8"?>
<svg width="24px" height="24px" viewBox="0 0 24 24" version="1.1" xmlns="http://www.w3.org/2000/svg" xmlns:xlink="http://www.w3.org/1999/xlink">
    <!-- Generator: Sketch 55.2 (78181) - https://sketchapp.com -->
    <title>social media/instagram/24x24/circle@3x</title>
    <desc>Created with Sketch.</desc>
    <g id="social-media/instagram/24x24/circle" stroke="none" stroke-width="1" fill="none" fill-rule="evenodd">
        <g fill="#000000" fill-rule="nonzero">
            <path d="M14.4,12 C14.4,13.3255102 13.3255102,14.4 12,14.4 C10.6744898,14.4 9.6,13.3255102 9.6,12 C9.6,10.6744898 10.6744898,9.6 12,9.6 C13.3255102,9.6 14.4,10.6744898 14.4,12 Z" id="Path"></path>
            <path d="M17.4771483,7.85626894 C17.3645677,7.55119979 17.1849615,7.27506928 16.9515855,7.04841452 C16.7249307,6.81503849 16.4489869,6.63543234 16.1437311,6.52285174 C15.8961658,6.42670081 15.5242578,6.31225322 14.8392526,6.28107418 C14.0982371,6.24728134 13.8760631,6.24 12.0000933,6.24 C10.1239369,6.24 9.90176295,6.24709465 9.16093414,6.28088749 C8.47592888,6.31225322 8.10383418,6.42670081 7.85645562,6.52285174 C7.55119979,6.63543234 7.27506928,6.81503849 7.04860121,7.04841452 C6.81522518,7.27506928 6.63561903,7.5510131 6.52285174,7.85626894 C6.42670081,8.10383418 6.31225322,8.47592888 6.28107418,9.16093414 C6.24728134,9.90176295 6.24,10.1239369 6.24,12.0000933 C6.24,13.8760631 6.24728134,14.0982371 6.28107418,14.8392526 C6.31225322,15.5242578 6.42670081,15.8961658 6.52285174,16.1437311 C6.63561903,16.4489869 6.81503849,16.7249307 7.04841452,16.9515855 C7.27506928,17.1849615 7.55101305,17.3645677 7.85626889,17.4771483 C8.10383418,17.5734859 8.47592888,17.6879335 9.16093414,17.7191125 C9.90176295,17.7529054 10.1237502,17.76 11.9999067,17.76 C13.8762498,17.76 14.0984237,17.7529054 14.8390659,17.7191125 C15.5240711,17.6879335 15.8961658,17.5734859 16.1437311,17.4771483 C16.7564831,17.2407851 17.2407851,16.7564831 17.4771483,16.1437311 C17.5732992,15.8961658 17.6877468,15.5242578 17.7191125,14.8392526 C17.7529053,14.0982371 17.76,13.8760631 17.76,12.0000933 C17.76,10.1239369 17.7529053,9.90176295 17.7191125,9.16093414 C17.6879335,8.47592888 17.5734859,8.10383418 17.4771483,7.85626894 L17.4771483,7.85626894 Z M12.0000933,15.6077131 C10.0074356,15.6077131 8.39210023,13.9925644 8.39210023,11.9999067 C8.39210023,10.0072489 10.0074356,8.39210023 12.0000933,8.39210023 C13.9925644,8.39210023 15.6078998,10.0072489 15.6078998,11.9999067 C15.6078998,13.9925644 13.9925644,15.6077131 12.0000933,15.6077131 Z M15.7505392,9.09260167 C15.2849073,9.09260167 14.9073983,8.71509265 14.9073983,8.24946081 C14.9073983,7.78382897 15.2849073,7.40631996 15.7505392,7.40631996 C16.216171,7.40631996 16.59368,7.78382897 16.59368,8.24946081 C16.5934933,8.71509265 16.216171,9.09260167 15.7505392,9.09260167 Z" id="Shape"></path>
            <path d="M12,0 C5.3735962,0 0,5.3735962 0,12 C0,18.6264038 5.3735962,24 12,24 C18.6264038,24 24,18.6264038 24,12 C24,5.3735962 18.6264038,0 12,0 Z M18.84906,14.8408814 C18.8157349,15.5744018 18.6990967,16.0751953 18.5288086,16.5135498 C18.1708374,17.4391479 17.4391479,18.1708374 16.5135498,18.5288086 C16.0753784,18.6990967 15.5744018,18.8155518 14.8410645,18.84906 C14.1062622,18.8825684 13.871521,18.890625 12.0001831,18.890625 C10.1286621,18.890625 9.89410402,18.8825684 9.15911864,18.84906 C8.42578125,18.8155518 7.92480469,18.6990967 7.48663331,18.5288086 C7.02667238,18.3557739 6.61029052,18.0845948 6.26605223,17.7339478 C5.91558839,17.3898926 5.64440916,16.9733276 5.4713745,16.5135498 C5.30108644,16.0753784 5.18444822,15.5744018 5.15112305,14.8410645 C5.11724855,14.1060791 5.109375,13.8713379 5.109375,12 C5.109375,10.1286621 5.11724855,9.89392088 5.15093995,9.15911864 C5.18426513,8.42559816 5.3007202,7.92480469 5.47100831,7.48645022 C5.64404297,7.02667238 5.91540525,6.61010742 6.26605223,6.26605223 C6.61010742,5.91540525 7.02667238,5.64422606 7.48645022,5.47119141 C7.92480469,5.30090334 8.42559816,5.18444822 9.15911864,5.15093995 C9.89392087,5.11743164 10.1286621,5.109375 12,5.109375 C13.8713379,5.109375 14.1060791,5.11743164 14.8408814,5.15112305 C15.5744018,5.18444822 16.0751953,5.30090334 16.5135498,5.47100831 C16.9733276,5.64404297 17.3898926,5.91540525 17.7341309,6.26605223 C18.0845947,6.61029052 18.355957,7.02667238 18.5288086,7.48645022 C18.6992798,7.92480469 18.8157349,8.42559816 18.8492432,9.15911864 C18.8827515,9.89392088 18.890625,10.1286621 18.890625,12 C18.890625,13.8713379 18.8827515,14.1060791 18.84906,14.8408814 L18.84906,14.8408814 Z" id="Shape"></path>
        </g>
    </g>
</svg>