<svg width="14" height="14" viewBox="0 0 14 14" fill="none" xmlns="http://www.w3.org/2000/svg">
<mask id="mask0" mask-type="alpha" maskUnits="userSpaceOnUse" x="0" y="0" width="14" height="14">
<path fill-rule="evenodd" clip-rule="evenodd" d="M13.6982 4.42259C14.1006 4.02027 14.1006 3.36797 13.6982 2.96565L11.0336 0.301742C10.6311 -0.100581 9.97865 -0.100581 9.57622 0.301742L8.24391 1.6337L12.3659 5.75455L13.6982 4.42259ZM13.3965 11.9383H7.21361V14H13.3965V11.9383ZM2.00373 11.9928H3.42065L8.50143 6.91338L7.08451 5.49683L2.00373 10.5763V11.9928ZM7.08461 2.66398L0 9.74669V12.9963C0 13.5486 0.447716 13.9963 1 13.9963H4.25077L11.3354 6.91361L7.08461 2.66398Z" fill="white"/>
</mask>
<g mask="url(#mask0)">
<rect x="-1.03125" y="-1.45654" width="16.4878" height="16.4834" fill="#5A7385"/>
</g>
</svg>
