<?xml version="1.0" encoding="UTF-8"?>
<svg width="24px" height="24px" viewBox="0 0 24 24" version="1.1" xmlns="http://www.w3.org/2000/svg" xmlns:xlink="http://www.w3.org/1999/xlink">
    <!-- Generator: Sketch 51.3 (57544) - http://www.bohemiancoding.com/sketch -->
    <title>Link / 24x24 / black</title>
    <desc>Created with Sketch.</desc>
    <defs></defs>
    <g id="Link-/-24x24-/-black" stroke="none" stroke-width="1" fill="none" fill-rule="evenodd">
        <path d="M4,9 L4,15 L20,15 L20,9 L4,9 Z M10,17 L4,17 C2.8954305,17 2,16.1045695 2,15 L2,9 C2,7.8954305 2.8954305,7 4,7 L10,7 L10,9 L14,9 L14,7 L20,7 C21.1045695,7 22,7.8954305 22,9 L22,15 C22,16.1045695 21.1045695,17 20,17 L14,17 L14,15 L10,15 L10,17 Z" id="Combined-Shape" fill="#000000" fill-rule="nonzero"></path>
        <path d="M8,11 L16,11 C16.5522847,11 17,11.4477153 17,12 C17,12.5522847 16.5522847,13 16,13 L8,13 C7.44771525,13 7,12.5522847 7,12 C7,11.4477153 7.44771525,11 8,11 Z" id="Rectangle" fill="#000000" fill-rule="nonzero"></path>
    </g>
</svg>