<?xml version="1.0" encoding="UTF-8"?>
<svg width="16px" height="16px" viewBox="0 0 16 16" version="1.1" xmlns="http://www.w3.org/2000/svg" xmlns:xlink="http://www.w3.org/1999/xlink">
    <!-- Generator: Sketch 51.3 (57544) - http://www.bohemiancoding.com/sketch -->
    <title>More_16x16@1x</title>
    <desc>Created with Sketch.</desc>
    <defs></defs>
    <g id="More_16x16" stroke="none" stroke-width="1" fill="none" fill-rule="evenodd">
        <path d="M8,4.998125 C7.44737007,4.998125 6.999375,4.55012993 6.999375,3.9975 C6.999375,3.44487007 7.44737007,2.996875 8,2.996875 C8.55262993,2.996875 9.000625,3.44487007 9.000625,3.9975 C9.000625,4.55012993 8.55262993,4.998125 8,4.998125 Z M8,13.003125 C7.44737007,13.003125 6.999375,12.5551299 6.999375,12.0025 C6.999375,11.4498701 7.44737007,11.001875 8,11.001875 C8.55262993,11.001875 9.000625,11.4498701 9.000625,12.0025 C9.000625,12.5551299 8.55262993,13.003125 8,13.003125 Z M8,9.000625 C7.44737007,9.000625 6.999375,8.55262993 6.999375,8 C6.999375,7.44737007 7.44737007,6.999375 8,6.999375 C8.55262993,6.999375 9.000625,7.44737007 9.000625,8 C9.000625,8.55262993 8.55262993,9.000625 8,9.000625 Z" id="path-3" fill="#000000" fill-rule="nonzero"></path>
    </g>
</svg>