<?xml version="1.0" encoding="UTF-8"?>
<svg width="40px" height="40px" viewBox="0 0 40 40" version="1.1" xmlns="http://www.w3.org/2000/svg" xmlns:xlink="http://www.w3.org/1999/xlink">
    <!-- Generator: Sketch 55.2 (78181) - https://sketchapp.com -->
    <title>Not started / 40x40@1x</title>
    <desc>Created with Sketch.</desc>
    <defs>
        <linearGradient x1="3.92%" y1="0%" x2="96.08%" y2="100%" id="linearGradient-1">
            <stop stop-color="#8BDCFB" offset="0%"></stop>
            <stop stop-color="#2FB7EC" offset="100%"></stop>
        </linearGradient>
        <linearGradient x1="50%" y1="0%" x2="50%" y2="100%" id="linearGradient-2">
            <stop stop-color="#E6F7FF" offset="0%"></stop>
            <stop stop-color="#E6F7FF" offset="100%"></stop>
        </linearGradient>
        <linearGradient x1="100%" y1="62.5%" x2="0%" y2="37.5%" id="linearGradient-3">
            <stop stop-color="#2FB7EC" offset="0%"></stop>
            <stop stop-color="#2F88EC" offset="100%"></stop>
        </linearGradient>
        <path d="M5,10 C2.23857625,10 0,7.76142375 0,5 C0,2.23857625 2.23857625,0 5,0 C7.76142375,0 10,2.23857625 10,5 C10,7.76142375 7.76142375,10 5,10 Z" id="path-4"></path>
    </defs>
    <g id="Not-started-/-40x40" stroke="none" stroke-width="1" fill="none" fill-rule="evenodd">
        <g id="Oval-2" fill-rule="nonzero">
            <g id="path-1-link" fill="#FFFFFF">
                <circle id="path-1" cx="20" cy="20" r="20"></circle>
            </g>
            <g id="path-1-link" fill="#CEF2FD">
                <circle id="path-1" cx="20" cy="20" r="20"></circle>
            </g>
        </g>
        <g id="dispute-denied" transform="translate(8.000000, 5.000000)">
            <g id="Clipped">
                <g id="Rectangle-2" transform="translate(0.000000, 3.000000)" fill="url(#linearGradient-1)">
                    <path d="M2,0 L22,0 C23.1045695,0 24,0.8954305 24,2 L24,21 L20,25 L2,25 C0.8954305,25 0,24.1045695 0,23 L0,2 C0,0.8954305 0.8954305,0 2,0 Z" id="Rectangle"></path>
                </g>
                <g id="Group">
                    <g>
                        <g transform="translate(0.000000, 3.000000)">
                            <polygon id="Rectangle" fill="#0098D3" fill-rule="nonzero" transform="translate(22.000000, 23.000000) scale(-1, 1) translate(-22.000000, -23.000000) " points="20 21 24 21 24 25"></polygon>
                            <path d="M1,0 L7,0 L15,25 L1,25 C0.44771525,25 0,24.1045695 0,23 L0,2 C0,0.8954305 0.44771525,0 1,0 Z" id="Rectangle" fill="url(#linearGradient-2)" opacity="0.28"></path>
                            <path d="M11,19 C14.8659932,19 18,15.8659932 18,12 C18,8.13400675 14.8659932,5 11,5 C7.13400675,5 4,8.13400675 4,12 C4,15.8659932 7.13400675,19 11,19 Z" id="Oval" fill="#2F88EC" fill-rule="nonzero"></path>
                        </g>
                        <path d="M10,2 L10,0 L14,0 L14,2 L17,2 C17.5522847,2 18,2.3581722 18,2.8 L18,6 L6,6 L6,2.8 C6,2.3581722 6.44771525,2 7,2 L10,2 Z" id="Combined-Shape" fill="url(#linearGradient-3)" fill-rule="nonzero"></path>
                    </g>
                </g>
            </g>
        </g>
        <path d="M22.3836263,25.2704617 L27.1978155,25.2062725 C27.8790878,25.1971889 28.4387319,25.7421054 28.4478155,26.4233778 C28.4479617,26.4343422 28.4479617,26.4453081 28.4478155,26.4562725 C28.4384144,27.1613559 27.8691151,27.7306552 27.1640317,27.7400563 L22.3498425,27.8042455 L22.3836263,25.2704617 Z" id="Rectangle" fill="#2F88EC" fill-rule="nonzero" transform="translate(25.398884, 26.505203) rotate(45.000000) translate(-25.398884, -26.505203) "></path>
        <g id="Rectangle-+-Rectangle-+-Rectangle-Mask" transform="translate(14.000000, 15.000000)">
            <mask id="mask-5" fill="white">
                <use xlink:href="#path-4"></use>
            </mask>
            <use id="Mask" fill="#FFFFFF" fill-rule="nonzero" xlink:href="#path-4"></use>
            <rect id="Rectangle" fill="#CEF2FD" fill-rule="nonzero" mask="url(#mask-5)" x="-2" y="3" width="8" height="1" rx="0.5"></rect>
            <rect id="Rectangle" fill="#CEF2FD" fill-rule="nonzero" mask="url(#mask-5)" x="-2" y="5" width="8" height="1" rx="0.5"></rect>
            <path d="M-1.5,7 L5.5,7 C5.77614237,7 6,7.22385763 6,7.5 C6,7.77614237 5.77614237,8 5.5,8 L-1.5,8 C-1.77614237,8 -2,7.77614237 -2,7.5 C-2,7.22385763 -1.77614237,7 -1.5,7 Z" id="Rectangle" fill="#CEF2FD" fill-rule="nonzero" mask="url(#mask-5)"></path>
        </g>
    </g>
</svg>