<?xml version="1.0" encoding="UTF-8"?>
<svg width="24px" height="24px" viewBox="0 0 24 24" version="1.1" xmlns="http://www.w3.org/2000/svg" xmlns:xlink="http://www.w3.org/1999/xlink">
    <!-- Generator: Sketch 51.3 (57544) - http://www.bohemiancoding.com/sketch -->
    <title>Order_24x24</title>
    <desc>Created with Sketch.</desc>
    <defs></defs>
    <g id="Order_24x24" stroke="none" stroke-width="1" fill="none" fill-rule="evenodd">
        <g id="Group" transform="translate(0.000000, 1.000000)" fill="#000000" fill-rule="nonzero">
            <path d="M22,2 L2,2 L2,17 L3.99666667,19 L5.9975,17 L7.99833333,19 L9.99916667,17 L12,19 L14.0008333,17 L16.0016667,19 L18.0025,17 L20.0033333,19 L22,17 L22,2 Z M24.005,2 L24.005,22 L22.0041667,20 L20.0033333,22 L18.0025,20 L16.0016667,22 L14.0008333,20 L12,22 L9.99916667,20 L7.99833333,22 L5.9975,20 L3.99666667,22 L1.99583333,20 L-5.33080524e-15,22 L-5.33080524e-15,2 C-5.46607599e-15,0.8954305 0.8954305,2.22044605e-16 2,0 L22.005,0 C23.1095695,1.77635684e-15 24.005,0.8954305 24.005,2 Z" id="Combined-Shape"></path>
            <path d="M5.99666667,4.9975 L14.9966667,4.9975 L14.9966667,6.9975 L5.99666667,6.9975 L5.99666667,4.9975 Z M17,5 L19,5 L19,7 L17,7 L17,5 Z M6,9 L19,9 L19,11 L6,11 L6,9 Z M6,13 L19,13 L19,15 L6,15 L6,13 Z" id="Combined-Shape"></path>
        </g>
    </g>
</svg>