<?xml version="1.0" encoding="UTF-8"?>
<svg width="56px" height="56px" viewBox="0 0 56 56" version="1.1" xmlns="http://www.w3.org/2000/svg" xmlns:xlink="http://www.w3.org/1999/xlink">
    <!-- Generator: Sketch 55.2 (78181) - https://sketchapp.com -->
    <title>Orders@1x</title>
    <desc>Created with Sketch.</desc>
    <defs>
        <circle id="path-1" cx="28" cy="28" r="28"></circle>
        <linearGradient x1="100%" y1="52%" x2="0%" y2="48%" id="linearGradient-3">
            <stop stop-color="#5685F1" offset="0%"></stop>
            <stop stop-color="#326BEE" offset="100%"></stop>
        </linearGradient>
        <linearGradient x1="100%" y1="87.8071834%" x2="0%" y2="12.1928166%" id="linearGradient-4">
            <stop stop-color="#CEF2FD" offset="0%"></stop>
            <stop stop-color="#8BDCFB" offset="100%"></stop>
        </linearGradient>
        <linearGradient x1="54.5%" y1="100%" x2="59.8236022%" y2="60.7006836%" id="linearGradient-5">
            <stop stop-color="#CEF2FD" offset="0%"></stop>
            <stop stop-color="#8BDCFB" offset="100%"></stop>
        </linearGradient>
    </defs>
    <g id="Symbols" stroke="none" stroke-width="1" fill="none" fill-rule="evenodd">
        <g id="Orders-/-56x56">
            <g id="Orders">
                <mask id="mask-2" fill="white">
                    <use xlink:href="#path-1"></use>
                </mask>
                <use id="Mask" fill="#E6F7FF" xlink:href="#path-1"></use>
                <path d="M13,10 C21,10 29,10 37,10 L37,44 L24.99952,44 L20.99952,40 L16.99952,44 L12.99976,40 L9,44 C9,24.8096922 9,14.8096922 9,14 C9,12 10.5393677,10 13,10 Z" id="Rectangle" fill="#5685F1" mask="url(#mask-2)"></path>
                <path d="M18.99976,16 C18.99976,12.6862915 16.3134685,10 12.99976,10 L36.99976,10 C40.3134685,10 42.99976,12.6862915 42.99976,16 L18.99976,16 Z" id="Path" fill="url(#linearGradient-3)" mask="url(#mask-2)"></path>
                <g id="Group-6" mask="url(#mask-2)" fill-rule="nonzero">
                    <g transform="translate(23.999760, 26.000000)" id="Rectangle">
                        <path d="M2,0 L21,0 C22.1045695,-2.02906125e-16 23,0.8954305 23,2 L23,18 C23,19.1045695 22.1045695,20 21,20 L2,20 C0.8954305,20 1.3527075e-16,19.1045695 0,18 L0,2 C-1.3527075e-16,0.8954305 0.8954305,2.02906125e-16 2,0 Z" fill="url(#linearGradient-4)"></path>
                        <path d="M17,0 L21,0 C22.1045695,-2.02906125e-16 23,0.8954305 23,2 L23,18 C23,19.1045695 22.1045695,20 21,20 L17,20 L17,0 Z" fill="url(#linearGradient-5)"></path>
                        <polygon fill="#2FB7EC" points="5 1.42136303e-13 13.00024 9.31486957e-27 13.00024 6 11.00024 5 9.01806226 6 7.00024 5 5 6"></polygon>
                        <rect fill="#FFFFFF" x="10" y="14" width="6" height="1"></rect>
                        <rect fill="#FFFFFF" x="10" y="16" width="6" height="2"></rect>
                    </g>
                </g>
                <rect id="Rectangle" fill="#CEF2FD" mask="url(#mask-2)" x="12.99976" y="18" width="16" height="2"></rect>
                <rect id="Rectangle" fill="#CEF2FD" mask="url(#mask-2)" x="12.99976" y="22" width="8" height="2"></rect>
                <rect id="Rectangle" fill="#CEF2FD" mask="url(#mask-2)" x="12.99976" y="26" width="8" height="2"></rect>
                <rect id="Rectangle" fill="#CEF2FD" mask="url(#mask-2)" x="12.99976" y="30" width="8" height="2"></rect>
            </g>
        </g>
    </g>
</svg>