<?xml version="1.0" encoding="UTF-8"?>
<svg width="40px" height="40px" viewBox="0 0 40 40" version="1.1" xmlns="http://www.w3.org/2000/svg" xmlns:xlink="http://www.w3.org/1999/xlink">
    <!-- Generator: Sketch 55.2 (78181) - https://sketchapp.com -->
    <title>Payment / 40x40@1x</title>
    <desc>Created with Sketch.</desc>
    <defs>
        <circle id="path-1" cx="20" cy="20" r="20"></circle>
        <linearGradient x1="0%" y1="29.0657439%" x2="100%" y2="70.9342561%" id="linearGradient-3">
            <stop stop-color="#8BDCFB" offset="0%"></stop>
            <stop stop-color="#2FB7EC" offset="100%"></stop>
        </linearGradient>
        <linearGradient x1="50%" y1="0%" x2="50%" y2="100%" id="linearGradient-4">
            <stop stop-color="#E6F7FF" offset="0%"></stop>
            <stop stop-color="#CEF2FD" stop-opacity="0.4" offset="100%"></stop>
        </linearGradient>
        <linearGradient x1="100%" y1="70.9342561%" x2="0%" y2="29.0657439%" id="linearGradient-5">
            <stop stop-color="#2FB7EC" offset="0%"></stop>
            <stop stop-color="#2F88EC" offset="100%"></stop>
        </linearGradient>
        <linearGradient x1="50%" y1="0%" x2="83.4710744%" y2="90.8892463%" id="linearGradient-6">
            <stop stop-color="#E6F7FF" offset="0%"></stop>
            <stop stop-color="#2FB7EC" offset="100%"></stop>
        </linearGradient>
    </defs>
    <g id="Payment-/-40x40" stroke="none" stroke-width="1" fill="none" fill-rule="evenodd">
        <g id="Payment-settings">
            <mask id="mask-2" fill="white">
                <use xlink:href="#path-1"></use>
            </mask>
            <use id="Mask" fill="#E6F7FF" fill-rule="nonzero" xlink:href="#path-1"></use>
            <g id="Group-17" mask="url(#mask-2)">
                <g transform="translate(4.285714, 10.000000)">
                    <rect id="Rectangle-14" fill="url(#linearGradient-3)" fill-rule="evenodd" x="7.14285714" y="0" width="24.2857143" height="15.7142857" rx="1.42857143"></rect>
                    <path d="M8.57142857,0 L15.8163265,0 L19.2857143,15.7142857 L8.57142857,15.7142857 C7.78245036,15.7142857 7.14285714,15.0746925 7.14285714,14.2857143 L7.14285714,1.42857143 C7.14285714,0.639593215 7.78245036,-7.71116583e-17 8.57142857,0 Z" id="Rectangle-14" fill="url(#linearGradient-4)" fill-rule="evenodd" opacity="0.28"></path>
                    <rect id="Rectangle-14" fill="url(#linearGradient-5)" fill-rule="nonzero" transform="translate(12.142857, 13.571429) scale(-1, 1) translate(-12.142857, -13.571429) " x="0" y="5.71428571" width="24.2857143" height="15.7142857" rx="1.42857143"></rect>
                    <path d="M1.42857143,5.71428571 L9.18367347,5.71428571 L12.8571429,21.4285714 L1.42857143,21.4285714 C0.639593215,21.4285714 -1.2542264e-16,20.7889782 0,20 L0,7.14285714 C-3.18666569e-16,6.35387893 0.639593215,5.71428571 1.42857143,5.71428571 Z" id="Rectangle-14" fill="url(#linearGradient-6)" fill-rule="evenodd" opacity="0.28"></path>
                    <rect id="Rectangle-14" fill="#FFFFFF" fill-rule="evenodd" transform="translate(12.142857, 9.285714) scale(-1, 1) translate(-12.142857, -9.285714) " x="0" y="7.85714286" width="24.2857143" height="2.85714286"></rect>
                    <rect id="Rectangle-14" fill="#FFFFFF" fill-rule="evenodd" transform="translate(4.642857, 18.214286) scale(-1, 1) translate(-4.642857, -18.214286) " x="2.14285714" y="17.1428571" width="5" height="2.14285714"></rect>
                    <g id="Group-7" stroke-width="1" fill="none" fill-rule="evenodd" transform="translate(26.185984, 1.787840)">
                        <g id="Group-8" transform="translate(0.242588, 0.355017)" fill-rule="nonzero">
                            <circle id="Oval" fill="#EEF2F5" cx="1.42857143" cy="1.42857143" r="1.42857143"></circle>
                            <path d="M1.42857143,0 C2.21754964,0 2.85714286,0.639593215 2.85714286,1.42857143 C2.85714286,2.21754964 2.21754964,2.85714286 1.42857143,2.85714286 L1.42857143,0 Z" id="Path" fill="#FFFFFF"></path>
                        </g>
                    </g>
                </g>
            </g>
        </g>
    </g>
</svg>