<?xml version="1.0" encoding="UTF-8"?>
<svg width="56px" height="56px" viewBox="0 0 56 56" version="1.1" xmlns="http://www.w3.org/2000/svg" xmlns:xlink="http://www.w3.org/1999/xlink">
    <!-- Generator: Sketch 55.2 (78181) - https://sketchapp.com -->
    <title>Products refunded / 56x56@1x</title>
    <desc>Created with Sketch.</desc>
    <defs>
        <circle id="path-1" cx="28" cy="28" r="28"></circle>
        <linearGradient x1="50%" y1="0%" x2="50%" y2="100%" id="linearGradient-3">
            <stop stop-color="#8B572A" stop-opacity="0.2" offset="0%"></stop>
            <stop stop-color="#8B572A" stop-opacity="0.2" offset="100%"></stop>
        </linearGradient>
        <path d="M28,37 C39.7223268,37 45.5834902,27.5979797 43.6297691,16 C41.676048,4.40202025 33.8611634,-5 28,-5 C22.1388366,-5 14.323952,4.40202025 12.3702309,16 C10.4165098,27.5979797 16.2776732,37 28,37 Z" id="path-4"></path>
        <circle id="path-5" cx="10" cy="10" r="10"></circle>
        <circle id="path-7" cx="10" cy="10" r="10"></circle>
        <path d="M0,0 L8,0 C8,2.209139 6.209139,4 4,4 C1.790861,4 0,2.209139 0,0 Z" id="path-9"></path>
        <path d="M2,2 L6,2 C5.66666667,3 5,3.5 4,3.5 C3,3.5 2.33333333,3 2,2 Z" id="path-10"></path>
        <linearGradient x1="100%" y1="69.53125%" x2="0%" y2="30.46875%" id="linearGradient-11">
            <stop stop-color="#CEF2FD" offset="0%"></stop>
            <stop stop-color="#8BDCFB" offset="100%"></stop>
        </linearGradient>
        <linearGradient x1="54.5%" y1="100%" x2="59.8236022%" y2="60.7006836%" id="linearGradient-12">
            <stop stop-color="#CEF2FD" offset="0%"></stop>
            <stop stop-color="#8BDCFB" offset="100%"></stop>
        </linearGradient>
        <linearGradient x1="72.2222222%" y1="0%" x2="27.7777778%" y2="100%" id="linearGradient-13">
            <stop stop-color="#CEF2FD" offset="0%"></stop>
            <stop stop-color="#8BDCFB" offset="0%"></stop>
            <stop stop-color="#2FB7EC" offset="100%"></stop>
        </linearGradient>
        <linearGradient x1="100%" y1="48%" x2="0%" y2="52%" id="linearGradient-14">
            <stop stop-color="#CEF2FD" offset="0%"></stop>
            <stop stop-color="#8BDCFB" offset="0%"></stop>
            <stop stop-color="#2FB7EC" offset="100%"></stop>
        </linearGradient>
    </defs>
    <g id="Products-refunded-/-56x56" stroke="none" stroke-width="1" fill="none" fill-rule="evenodd">
        <g id="Refunded">
            <mask id="mask-2" fill="white">
                <use xlink:href="#path-1"></use>
            </mask>
            <g id="Mask">
                <use fill="#FFFFFF" xlink:href="#path-1"></use>
                <use fill="#EEF2F5" xlink:href="#path-1"></use>
            </g>
            <g id="Oval" mask="url(#mask-2)">
                <use fill-opacity="0.8" fill="#FFFFFF" xlink:href="#path-4"></use>
                <use fill="url(#linearGradient-3)" xlink:href="#path-4"></use>
            </g>
            <g id="Avocado" mask="url(#mask-2)">
                <g transform="translate(18.000000, 11.000000)">
                    <mask id="mask-6" fill="white">
                        <use xlink:href="#path-5"></use>
                    </mask>
                    <use id="Mask" stroke="none" fill="#FFFFFF" fill-rule="evenodd" xlink:href="#path-5"></use>
                    <mask id="mask-8" fill="white">
                        <use xlink:href="#path-7"></use>
                    </mask>
                    <use id="Mask" stroke="none" fill-opacity="0.5" fill="#8B572A" fill-rule="evenodd" xlink:href="#path-7"></use>
                    <circle id="Oval" stroke="none" fill="#8B572A" fill-rule="evenodd" mask="url(#mask-8)" cx="6.5" cy="8.5" r="1.5"></circle>
                    <circle id="Oval" stroke="none" fill="#8B572A" fill-rule="evenodd" mask="url(#mask-8)" cx="13.5" cy="8.5" r="1.5"></circle>
                    <g id="Group-11" stroke="none" stroke-width="1" fill="none" fill-rule="evenodd" mask="url(#mask-8)">
                        <g transform="translate(6.000000, 11.000000)" id="Path">
                            <g transform="translate(4.000000, 2.000000) scale(1, -1) translate(-4.000000, -2.000000) ">
                                <use fill="#FFFFFF" xlink:href="#path-9"></use>
                                <use fill="#8B572A" xlink:href="#path-9"></use>
                            </g>
                            <g transform="translate(4.000000, 2.750000) scale(1, -1) translate(-4.000000, -2.750000) ">
                                <use fill="#FFFFFF" xlink:href="#path-10"></use>
                                <use fill="#FFA39E" xlink:href="#path-10"></use>
                            </g>
                        </g>
                    </g>
                </g>
            </g>
            <g id="Group-6" mask="url(#mask-2)" fill-rule="nonzero">
                <g transform="translate(12.000000, 28.000000)" id="Rectangle">
                    <polygon fill="url(#linearGradient-11)" points="-5.55111512e-17 0 32 0 32 20 -5.55111512e-17 20"></polygon>
                    <polygon fill-opacity="0.5" fill="url(#linearGradient-12)" points="26 0 32 0 32 20 26 20"></polygon>
                    <rect fill="#FFFFFF" x="18" y="14" width="6" height="1"></rect>
                    <rect fill="#FFFFFF" x="18" y="16" width="6" height="2"></rect>
                </g>
            </g>
            <polygon id="Rectangle" fill="url(#linearGradient-13)" fill-rule="nonzero" mask="url(#mask-2)" transform="translate(46.000000, 31.000000) scale(-1, 1) translate(-46.000000, -31.000000) " points="48 28 48 34 44 34"></polygon>
            <polygon id="Rectangle" fill="url(#linearGradient-14)" fill-rule="nonzero" mask="url(#mask-2)" points="12 28 38 28 35 34 8 34"></polygon>
        </g>
    </g>
</svg>