<?xml version="1.0" encoding="UTF-8"?>
<svg width="24px" height="24px" viewBox="0 0 24 24" version="1.1" xmlns="http://www.w3.org/2000/svg" xmlns:xlink="http://www.w3.org/1999/xlink">
    <!-- Generator: Sketch 51.3 (57544) - http://www.bohemiancoding.com/sketch -->
    <title>Search_24x24</title>
    <desc>Created with Sketch.</desc>
    <defs></defs>
    <g id="Search_24x24" stroke="none" stroke-width="1" fill="none" fill-rule="evenodd">
        <path d="M9.75297961,17.0677143 C13.7927961,17.0677143 17.0677143,13.7927961 17.0677143,9.75297961 C17.0677143,5.71316318 13.7927961,2.43824491 9.75297961,2.43824491 C5.71316318,2.43824491 2.43824491,5.71316318 2.43824491,9.75297961 C2.43824491,13.7927961 5.71316318,17.0677143 9.75297961,17.0677143 Z M17.4913428,15.689977 L23.6269249,21.825559 C24.1243584,22.3229924 24.1243584,23.1294914 23.6269249,23.6269249 C23.1294914,24.1243584 22.3229924,24.1243584 21.825559,23.6269249 L15.689977,17.4913428 C14.0455929,18.7548307 11.987004,19.5059592 9.75297961,19.5059592 C4.36655771,19.5059592 0,15.1394016 0,9.75297961 C0,4.36655771 4.36655771,0 9.75297961,0 C15.1394016,0 19.5059592,4.36655771 19.5059592,9.75297961 C19.5059592,11.987004 18.7548307,14.0455929 17.4913428,15.689977 Z" id="Combined-Shape" fill="#000000" fill-rule="nonzero"></path>
    </g>
</svg>