<?xml version="1.0" encoding="UTF-8"?>
<svg width="56px" height="56px" viewBox="0 0 56 56" version="1.1" xmlns="http://www.w3.org/2000/svg" xmlns:xlink="http://www.w3.org/1999/xlink">
    <!-- Generator: Sketch 55.2 (78181) - https://sketchapp.com -->
    <title>Award / 56x56@1x</title>
    <desc>Created with Sketch.</desc>
    <defs>
        <linearGradient x1="0%" y1="0%" x2="100%" y2="100%" id="linearGradient-1">
            <stop stop-color="#FFE380" offset="0%"></stop>
            <stop stop-color="#FFC72C" offset="100%"></stop>
        </linearGradient>
        <linearGradient x1="37.5%" y1="0%" x2="62.5%" y2="100%" id="linearGradient-2">
            <stop stop-color="#FFFFFF" stop-opacity="0.2" offset="0%"></stop>
            <stop stop-color="#FFE380" stop-opacity="0.6" offset="100%"></stop>
        </linearGradient>
        <linearGradient x1="0%" y1="0%" x2="100%" y2="100%" id="linearGradient-3">
            <stop stop-color="#F0B616" offset="0%"></stop>
            <stop stop-color="#EF8D2E" offset="100%"></stop>
        </linearGradient>
    </defs>
    <g id="Award-/-56x56" stroke="none" stroke-width="1" fill="none" fill-rule="evenodd">
        <g id="award-40-x-40" fill-rule="nonzero">
            <circle id="Oval" fill="#FFFFFF" cx="28" cy="28" r="28"></circle>
            <circle id="Oval" fill-opacity="0.3" fill="#FFE380" cx="28" cy="28" r="28"></circle>
            <polygon id="Path" fill="#FFC72C" points="21.1848 33.6 15.12 42.763 20.3182 42.3262 22.484 47.5622 27.6836 37.527"></polygon>
            <polygon id="Path" fill="#F0B616" points="35.0952 33.6 41.16 42.763 35.9618 42.3262 33.796 47.5622 28.5964 37.527"></polygon>
            <polygon id="Path" fill="url(#linearGradient-1)" points="27.993 38.3012 23.5102 40.5958 22.4742 38.9928 20.776 36.3664 15.722 36.1144 15.6226 34.1558 15.4658 31.0674 11.2 28.3108 12.1072 26.5412 13.5128 23.7958 11.2 19.2808 12.852 18.2126 15.4658 16.5242 15.722 11.4758 17.6372 11.3806 20.776 11.2238 23.5116 7 25.1916 7.8596 27.9986 9.296 32.4856 7 33.5216 8.603 35.2198 11.228 40.278 11.48 40.376 13.44 40.5328 16.5284 44.8 19.2864 43.8914 21.0574 42.4844 23.8014 44.8 28.315 43.1466 29.3832 40.5328 31.0716 40.278 36.1172 38.3628 36.2138 35.2198 36.3706 32.4856 40.6 30.8056 39.7404"></polygon>
            <polygon id="Path" fill="url(#linearGradient-2)" points="28 9.2946 28 38.3082 27.993 38.3054 23.5102 40.6 22.4742 38.9956 20.776 36.3706 15.722 36.1186 15.6226 34.1586 15.4658 31.0702 11.2 28.3136 12.1072 26.5426 13.5128 23.7972 11.2 19.2822 12.852 18.214 15.4658 16.5242 15.722 11.4758 17.6372 11.3806 20.776 11.2238 23.5116 7 25.1916 7.8596 27.9986 9.2946"></polygon>
            <g id="Group" transform="translate(19.629400, 15.472800)">
                <circle id="Oval" fill="url(#linearGradient-3)" cx="8.4" cy="8.4" r="8.4"></circle>
                <polygon id="Path" fill="#FFFFFF" points="8.4 11.165 5.8044 12.6 6.3 9.562 4.2 7.4074 7.1022 6.9636 8.4 4.2 9.6978 6.965 12.6 7.4088 10.5 9.5606 10.9956 12.6"></polygon>
            </g>
        </g>
    </g>
</svg>