<?xml version="1.0" encoding="UTF-8"?>
<svg width="16px" height="16px" viewBox="0 0 16 16" version="1.1" xmlns="http://www.w3.org/2000/svg" xmlns:xlink="http://www.w3.org/1999/xlink">
    <!-- Generator: Sketch 55.2 (78181) - https://sketchapp.com -->
    <title>State@1x</title>
    <desc>Created with Sketch.</desc>
    <defs>
        <rect id="path-1" x="0" y="0" width="16" height="16"></rect>
    </defs>
    <g id="Symbols" stroke="none" stroke-width="1" fill="none" fill-rule="evenodd">
        <g id="State-/-16x16-/-black">
            <g id="Rectangle-+-Rectangle-+-Rectangle-+-Rectangle-+-Path-+-Rectangle-+-Rectangle-+-Rectangle-Mask">
                <mask id="mask-2" fill="white">
                    <use xlink:href="#path-1"></use>
                </mask>
                <use id="Mask" fill-opacity="0" fill="#F81919" fill-rule="nonzero" xlink:href="#path-1"></use>
                <path d="M4,9 L4,13 L7,13 L7,9 L6,9 L6,7 L7,7 L4,7 L5,7 L5,9 L4,9 Z M2,9 L1,9 L1,7 L8,0 L15,7 L15,9 L14,9 L14,13 L15,13 L15,16 L1,16 L1,13 L2,13 L2,9 Z M9,9 L9,13 L12,13 L12,9 L11,9 L11,7 L12,7 L9,7 L10,7 L10,9 L9,9 Z" id="Combined-Shape" fill="#000000" fill-rule="nonzero" mask="url(#mask-2)"></path>
            </g>
        </g>
    </g>
</svg>