<?xml version="1.0" encoding="UTF-8"?>
<svg width="56px" height="56px" viewBox="0 0 56 56" version="1.1" xmlns="http://www.w3.org/2000/svg" xmlns:xlink="http://www.w3.org/1999/xlink">
    <!-- Generator: Sketch 55.2 (78181) - https://sketchapp.com -->
    <title>Warehouse / 56x56@1x</title>
    <desc>Created with Sketch.</desc>
    <defs>
        <circle id="path-1" cx="28" cy="28" r="28"></circle>
        <circle id="path-3" cx="28" cy="28" r="28"></circle>
        <linearGradient x1="100%" y1="86.7346939%" x2="0%" y2="13.2653061%" id="linearGradient-5">
            <stop stop-color="#8BDCFB" offset="0%"></stop>
            <stop stop-color="#2FB7EC" offset="100%"></stop>
        </linearGradient>
        <linearGradient x1="27.7777778%" y1="0%" x2="72.2222222%" y2="100%" id="linearGradient-6">
            <stop stop-color="#EEF2F5" offset="0%"></stop>
            <stop stop-color="#C3D4FA" stop-opacity="0.4" offset="100%"></stop>
        </linearGradient>
    </defs>
    <g id="Warehouse-/-56x56" stroke="none" stroke-width="1" fill="none" fill-rule="evenodd">
        <g id="Group-4">
            <mask id="mask-2" fill="white">
                <use xlink:href="#path-1"></use>
            </mask>
            <use id="Mask" fill="#FFFFFF" xlink:href="#path-1"></use>
            <mask id="mask-4" fill="white">
                <use xlink:href="#path-3"></use>
            </mask>
            <use id="Mask" fill-opacity="0.6" fill="#C3D4FA" xlink:href="#path-3"></use>
            <polygon id="Path" fill="#FFFFFF" fill-rule="nonzero" mask="url(#mask-4)" points="14 28 42 28 42 44 14 44"></polygon>
            <polygon id="Path" fill="#FFFFFF" fill-rule="nonzero" mask="url(#mask-4)" points="28 16 42 28 14 28"></polygon>
            <polygon id="Path" fill="#EEF2F5" fill-rule="nonzero" mask="url(#mask-4)" points="21 37 35 37 35 44 21 44"></polygon>
            <path d="M28,31 C26.3431458,31 25,29.6568542 25,28 C25,26.3431458 26.3431458,25 28,25 C29.6568542,25 31,26.3431458 31,28 C31,29.6568542 29.6568542,31 28,31 Z" id="Path" fill-opacity="0.5" fill="#AFC7D1" fill-rule="nonzero" mask="url(#mask-4)"></path>
            <polygon id="Path" fill="#C3D4FA" fill-rule="nonzero" mask="url(#mask-4)" points="42 31 28 19 14 31 14 28 28 16 42 28"></polygon>
            <path d="M44.6525887,30.8023011 L28,16 L11.3474113,30.8023011 C10.6998827,31.377882 9.70835651,31.319557 9.13277553,30.6720284 C9.08459365,30.6178237 9.04022871,30.5603431 9,30.5 L8.98714717,30.4807208 C8.42432429,29.6364864 8.58285424,28.5045739 9.35595092,27.8474417 L28,12 L46.6440491,27.8474417 C47.4171458,28.5045739 47.5756757,29.6364864 47.0128528,30.4807208 L47,30.5 C46.5194277,31.2208585 45.5454755,31.4156489 44.8246171,30.9350766 C44.764274,30.8948479 44.7067933,30.8504829 44.6525887,30.8023011 Z" id="Path" fill="#5685F1" fill-rule="nonzero" mask="url(#mask-4)"></path>
            <polygon id="Rectangle" fill="#5685F1" fill-rule="nonzero" mask="url(#mask-4)" points="39 38 46 38 46 44 39 44"></polygon>
            <polygon id="Rectangle" fill="url(#linearGradient-5)" mask="url(#mask-4)" points="10 38 17 38 17 44 10 44"></polygon>
            <polygon id="Path" fill="url(#linearGradient-6)" fill-rule="nonzero" mask="url(#mask-4)" points="29 35 35 35 35 44 29 44"></polygon>
            <polygon id="Rectangle" fill="#C3D4FA" fill-rule="nonzero" mask="url(#mask-4)" points="21 35 35 35 35 37 21 37"></polygon>
        </g>
    </g>
</svg>