<?xml version="1.0" encoding="UTF-8"?>
<svg width="24px" height="24px" viewBox="0 0 24 24" version="1.1" xmlns="http://www.w3.org/2000/svg" xmlns:xlink="http://www.w3.org/1999/xlink">
    <!-- Generator: Sketch 51.3 (57544) - http://www.bohemiancoding.com/sketch -->
    <title>Support_24x24</title>
    <desc>Created with Sketch.</desc>
    <defs></defs>
    <g id="Support_24x24" stroke="none" stroke-width="1" fill="none" fill-rule="evenodd">
        <g id="Group" transform="translate(0.000000, 2.000000)" fill="#000000" fill-rule="nonzero">
            <path d="M22,2 L2,2 L2,15 L22,15 L22,2 Z M24,2 L24,15 C24,16.1045695 23.1045695,17 22,17 L2,17 C0.8954305,17 1.35308431e-16,16.1045695 0,15 L0,2 C-1.35308431e-16,0.8954305 0.8954305,0 2,0 L22,0 C23.1045695,0 24,0.8954305 24,2 Z" id="Rectangle-26"></path>
            <path d="M5,7 L8.00125,7 L8.00125,10.00125 L5,10.00125 L5,7 Z M10,7 L13.00125,7 L13.00125,10.00125 L10,10.00125 L10,7 Z M15,7 L18.00125,7 L18.00125,10.00125 L15,10.00125 L15,7 Z" id="Combined-Shape"></path>
            <polygon id="Rectangle-27" points="3 17 9.0025 17 3 20.00125"></polygon>
        </g>
    </g>
</svg>