<?xml version="1.0" encoding="UTF-8"?>
<svg width="24px" height="24px" viewBox="0 0 24 24" version="1.1" xmlns="http://www.w3.org/2000/svg" xmlns:xlink="http://www.w3.org/1999/xlink">
    <!-- Generator: Sketch 51.3 (57544) - http://www.bohemiancoding.com/sketch -->
    <title>Timelapse / 24x24 / black</title>
    <desc>Created with Sketch.</desc>
    <defs></defs>
    <g id="Timelapse-/-24x24-/-black" stroke="none" stroke-width="1" fill="none" fill-rule="evenodd">
        <path d="M20,12 C20,7.581722 16.418278,4 12,4 C7.581722,4 4,7.581722 4,12 C4,16.418278 7.581722,20 12,20 L12,22 C6.4771525,22 2,17.5228475 2,12 C2,6.4771525 6.4771525,2 12,2 C17.5228475,2 22,6.4771525 22,12 L20,12 Z M14.000625,22.00125 C13.4479951,22.00125 13,21.5532549 13,21.000625 C13,20.4479951 13.4479951,20 14.000625,20 C14.5532549,20 15.00125,20.4479951 15.00125,21.000625 C15.00125,21.5532549 14.5532549,22.00125 14.000625,22.00125 Z M17.000625,21.00125 C16.4479951,21.00125 16,20.5532549 16,20.000625 C16,19.4479951 16.4479951,19 17.000625,19 C17.5532549,19 18.00125,19.4479951 18.00125,20.000625 C18.00125,20.5532549 17.5532549,21.00125 17.000625,21.00125 Z" id="Combined-Shape" fill="#000000" fill-rule="nonzero"></path>
        <polygon id="Combined-Shape" fill="#000000" fill-rule="nonzero" points="9.41421356 16 8 14.5786438 11 11.5634919 11 6 13 6 13 12.0303038"></polygon>
    </g>
</svg>