<?xml version="1.0" encoding="UTF-8"?>
<svg width="40px" height="40px" viewBox="0 0 40 40" version="1.1" xmlns="http://www.w3.org/2000/svg" xmlns:xlink="http://www.w3.org/1999/xlink">
    <!-- Generator: Sketch 55.2 (78181) - https://sketchapp.com -->
    <title>illustration-light-bulb-yellow@1x</title>
    <desc>Created with Sketch.</desc>
    <defs>
        <circle id="path-1" cx="20" cy="20" r="20"></circle>
        <rect id="path-2" x="0" y="0" width="32" height="32"></rect>
        <rect id="path-4" x="0" y="0" width="32" height="32"></rect>
        <linearGradient x1="0%" y1="41.3194444%" x2="100%" y2="58.6805556%" id="linearGradient-6">
            <stop stop-color="#2F88EC" offset="0%"></stop>
            <stop stop-color="#326BEE" offset="100%"></stop>
        </linearGradient>
    </defs>
    <g id="Symbols" stroke="none" stroke-width="1" fill="none" fill-rule="evenodd">
        <g id="Tip-/-40x40-/-yellow">
            <g id="illustration-light-bulb-yellow">
                <g id="bg-circle" fill-rule="nonzero">
                    <use fill="#FFFFFF" xlink:href="#path-1"></use>
                    <use fill-opacity="0.4" fill="#FFE380" xlink:href="#path-1"></use>
                </g>
                <circle id="Oval-2" fill="#FFE380" fill-rule="nonzero" cx="20" cy="17" r="6"></circle>
                <g id="Group" transform="translate(4.000000, 5.000000)">
                    <g id="Mask" fill="#FF3838" fill-opacity="0" fill-rule="nonzero">
                        <rect id="path-1" x="0" y="0" width="32" height="32"></rect>
                    </g>
                    <g id="Combined-Shape-Clipped">
                        <mask id="mask-3" fill="white">
                            <use xlink:href="#path-2"></use>
                        </mask>
                        <g id="path-1"></g>
                        <path d="M11,25 L21,25 L21,21.8178222 L21.499274,21.5290078 C24.876682,19.5752828 27,15.9731503 27,12 C27,5.92486775 22.0751322,1 16,1 C9.92486775,1 5,5.92486775 5,12 C5,15.9731503 7.12331797,19.5752828 10.500726,21.5290078 L11,21.8178222 L11,25 Z" id="Combined-Shape" stroke="#326BEE" stroke-width="2" fill="#FFFFFF" fill-rule="nonzero" mask="url(#mask-3)"></path>
                    </g>
                    <g id="Path-Clipped">
                        <mask id="mask-5" fill="white">
                            <use xlink:href="#path-4"></use>
                        </mask>
                        <g id="path-1"></g>
                        <path d="M10,26 C10,28.7614237 12.6862915,31 16,31 C19.3137085,31 22,28.7614237 22,26 L10,26 Z" id="Path" fill="url(#linearGradient-6)" fill-rule="nonzero" mask="url(#mask-5)"></path>
                    </g>
                </g>
                <circle id="Oval-2" fill="#FFE380" fill-rule="nonzero" cx="20" cy="17" r="6"></circle>
                <path d="M20,11 C22.1435936,11 24.1243557,12.1435935 25.1961525,14 C26.2679493,15.8564064 26.2679493,18.1435936 25.1961525,20 C24.1243557,21.8564065 22.1435936,23 20,23 L20,11 Z" id="Path" fill="#FFD560" fill-rule="nonzero"></path>
                <path d="M21,20 L23,20 L23,26 C23,26.5522847 22.5522847,27 22,27 L22,27 C21.4477153,27 21,26.5522847 21,26 L21,20 Z" id="Rectangle" fill="#326BEE" fill-rule="nonzero"></path>
                <polygon id="Rectangle" fill="#326BEE" fill-rule="nonzero" points="17 20 19 20 19 29 17 29"></polygon>
                <circle id="Oval-2" stroke="#326BEE" stroke-width="2" cx="20" cy="20" r="2"></circle>
            </g>
        </g>
    </g>
</svg>