<?xml version="1.0" encoding="UTF-8"?>
<svg width="24px" height="24px" viewBox="0 0 24 24" version="1.1" xmlns="http://www.w3.org/2000/svg" xmlns:xlink="http://www.w3.org/1999/xlink">
    <!-- Generator: Sketch 51.3 (57544) - http://www.bohemiancoding.com/sketch -->
    <title>To bottom_24x24</title>
    <desc>Created with Sketch.</desc>
    <defs></defs>
    <g id="To-bottom_24x24" stroke="none" stroke-width="1" fill="none" fill-rule="evenodd">
        <g id="Group" transform="translate(2.000000, 1.000000)" fill="#000000" fill-rule="nonzero">
            <polygon id="Rectangle-8" points="0 22 0 20 20 20 20 22"></polygon>
            <path d="M11.005,14.8624341 L15.9484523,9.9458754 C16.4177723,9.46571866 17.1786902,9.46571866 17.6480101,9.9458754 C18.11733,10.4260322 18.11733,11.2045201 17.6480101,11.6846768 L10.8497789,18.6398824 C10.380459,19.1200392 9.61954104,19.1200392 9.15022112,18.6398824 L2.35198994,11.6846768 C1.88267002,11.2045201 1.88267002,10.4260322 2.35198994,9.9458754 C2.82130986,9.46571866 3.58222781,9.46571866 4.05154774,9.9458754 L9.005,14.8624341 L9.005,1.00026323 C9.005,0.447833101 9.45271525,0 10.005,0 C10.5572847,0 11.005,0.447833101 11.005,1.00026323 L11.005,14.8624341 Z" id="Shape"></path>
        </g>
    </g>
</svg>