<?xml version="1.0" encoding="UTF-8"?>
<svg width="16px" height="16px" viewBox="0 0 16 16" version="1.1" xmlns="http://www.w3.org/2000/svg" xmlns:xlink="http://www.w3.org/1999/xlink">
    <!-- Generator: Sketch 51.3 (57544) - http://www.bohemiancoding.com/sketch -->
    <title>To bottom / 16x16 / black@1x</title>
    <desc>Created with Sketch.</desc>
    <defs></defs>
    <g id="To-bottom-/-16x16-/-black" stroke="none" stroke-width="1" fill="none" fill-rule="evenodd">
        <path d="M6.99994434,8.56819069 L6.99994434,1 C6.99994434,0.44771525 7.44765959,0 8.00119434,0 C8.55347909,0 9.00119434,0.44771525 9.00119434,1 L9.00119434,8.56694236 L12.2775277,5.29497357 C12.6713504,4.90167548 13.3098632,4.90167548 13.7045773,5.29586373 C14.0984,5.68916182 14.0984,6.32682402 13.7045773,6.72012211 L8.71302346,11.7050264 C8.31920073,12.0983245 7.68068794,12.0983245 7.28686522,11.7050264 L2.29531138,6.72012211 C1.90148866,6.32682402 1.90148866,5.68916182 2.29620273,5.29497357 C2.69002545,4.90167548 3.32853825,4.90167548 3.72236097,5.29497357 L6.99994434,8.56819069 Z M2,15.0000557 L2,13.0000557 L14,13.0000557 L14,15.0000557 L2,15.0000557 Z" id="Combined-Shape" fill="#000000" fill-rule="nonzero"></path>
    </g>
</svg>