<?xml version="1.0" encoding="UTF-8"?>
<svg width="40px" height="40px" viewBox="0 0 40 40" version="1.1" xmlns="http://www.w3.org/2000/svg" xmlns:xlink="http://www.w3.org/1999/xlink">
    <!-- Generator: Sketch 55.2 (78181) - https://sketchapp.com -->
    <title>social media/twitter/40x40@3x</title>
    <desc>Created with Sketch.</desc>
    <g id="social-media/twitter/40x40" stroke="none" stroke-width="1" fill="none" fill-rule="evenodd">
        <g>
            <rect id="Rectangle" x="0" y="0" width="40" height="40"></rect>
            <g id="008-twitter-copy" transform="translate(0.000000, 5.000000)" fill="#4591C2" fill-rule="nonzero">
                <path d="M38.3797309,3.72259235 C37.5132119,4.10161414 36.6136981,4.40062959 35.690698,4.61710628 C36.7077382,3.66378348 37.47242,2.47137962 37.9038254,1.14044195 L37.9038254,1.14044195 C38.0269618,0.760482219 37.6085832,0.431921635 37.2607585,0.635360946 L37.2607585,0.635360946 C35.9767168,1.38665135 34.5935954,1.95025984 33.1497141,2.3107104 C33.0659433,2.33162648 32.9795101,2.34222521 32.8927916,2.34222521 C32.6297836,2.34222521 32.3740973,2.24589871 32.1729904,2.07106658 C30.6367805,0.735532999 28.6609879,0 26.609697,0 C25.7220689,0 24.825883,0.136470354 23.9459569,0.405659299 C21.2196503,1.23976985 19.1160621,3.45809311 18.4560699,6.19500371 C18.2084659,7.22157967 18.1414303,8.24909357 18.2566745,9.24893822 C18.2698915,9.36383594 18.2148367,9.44402986 18.180891,9.48164128 C18.121272,9.5475785 18.0367405,9.58537751 17.9489761,9.58537751 C17.9391823,9.58537751 17.9291032,9.58490854 17.9191191,9.5839706 C11.9513297,9.03705745 6.56984083,6.20100653 2.76592422,1.59834453 L2.76592422,1.59834453 C2.57194872,1.36357801 2.19997218,1.39237278 2.04536229,1.65396441 L2.04536229,1.65396441 C1.30045834,2.91455654 0.906802177,4.3563588 0.906802177,5.82348545 C0.906802177,8.07191659 1.82257573,10.1908181 3.41326991,11.7355125 C2.7443397,11.579064 2.09689892,11.332667 1.49547979,11.0031685 L1.49547979,11.0031685 C1.20451654,10.8437186 0.846517635,11.0486586 0.842428935,11.3769378 L0.842428935,11.3769378 C0.800781254,14.7171318 2.78332497,17.6892779 5.75324201,19.0276253 C5.6934329,19.0290322 5.63362378,19.0296888 5.57371959,19.0296888 C5.10294865,19.0296888 4.62628239,18.9848552 4.15712792,18.8964074 L4.15712792,18.8964074 C3.82946146,18.8346909 3.55418741,19.1413037 3.65592946,19.4546696 L3.65592946,19.4546696 C4.61991162,22.4233453 7.2111961,24.6115607 10.3121417,25.1083878 C7.73854322,26.8125321 4.74152666,27.7114543 1.62222946,27.7114543 L0.64978464,27.7108915 C0.350168561,27.7108915 0.0967642929,27.9035445 0.0204102113,28.189804 C-0.0548028379,28.4717489 0.0837375069,28.7691699 0.339233668,28.91577 C3.85418383,30.9335616 7.86348626,32 11.9354504,32 C15.4997502,32 18.8338467,31.302266 21.8452213,29.9263072 C24.605854,28.6648709 27.0453811,26.8616801 29.0960064,24.5668209 C31.0062848,22.4290668 32.5000863,19.9612513 33.5357633,17.2320318 C34.5230416,14.6304661 35.0448737,11.8545371 35.0448737,9.20429225 L35.0448737,9.07804545 C35.0447786,8.65250181 35.2398952,8.25209498 35.5803031,7.97952945 C36.8720468,6.94498099 37.9969146,5.72715895 38.9235279,4.35992297 L38.9235279,4.35992297 C39.1681843,3.99890964 38.7823252,3.54644711 38.3797309,3.72259235 L38.3797309,3.72259235 Z" id="Path"></path>
            </g>
        </g>
    </g>
</svg>