<?xml version="1.0" encoding="UTF-8"?>
<svg width="24px" height="24px" viewBox="0 0 24 24" version="1.1" xmlns="http://www.w3.org/2000/svg" xmlns:xlink="http://www.w3.org/1999/xlink">
    <!-- Generator: Sketch 51.3 (57544) - http://www.bohemiancoding.com/sketch -->
    <title>Update / 24x24 / black</title>
    <desc>Created with Sketch.</desc>
    <defs></defs>
    <g id="Update-/-24x24-/-black" stroke="none" stroke-width="1" fill="none" fill-rule="evenodd">
        <path d="M21.5895463,9 L19.4552936,9 C18.2626301,6.06816966 15.3740369,4 12,4 C7.90013919,4 4.51704457,7.05368842 4.02250468,11 L2,11 C2.504214,5.94667731 6.78892207,2 12,2 C16.49986,2 20.3089598,4.94289305 21.5895463,9 Z M22,11 L19.9774953,11 L22,11 Z M2.41045367,15 L4.54470635,15 C5.73736991,17.9318303 8.62596306,20 12,20 C16.0998608,20 19.4829554,16.9463116 19.9774953,13 L22,13 C21.495786,18.0533227 17.2110779,22 12,22 C7.50014004,22 3.69104023,19.057107 2.41045367,15 Z M4.02250468,13 L2,13 L4.02250468,13 Z" id="Combined-Shape" fill="#000000" fill-rule="nonzero"></path>
        <path d="M21,9 L21,4 C21,3.44771525 21.4477153,3 22,3 C22.5522847,3 23,3.44771525 23,4 L23,10 C23,10.5522847 22.5522847,11 22,11 L16,11 C15.4477153,11 15,10.5522847 15,10 C15,9.44771525 15.4477153,9 16,9 L21,9 Z M3,15 L3,20 C3,20.5522847 2.55228475,21 2,21 C1.44771525,21 1,20.5522847 1,20 L1,14 C1,13.4477153 1.44771525,13 2,13 L8,13 C8.55228475,13 9,13.4477153 9,14 C9,14.5522847 8.55228475,15 8,15 L3,15 Z" id="Combined-Shape" fill="#000000" fill-rule="nonzero"></path>
    </g>
</svg>