<?xml version="1.0" encoding="UTF-8"?>
<svg width="24px" height="24px" viewBox="0 0 24 24" version="1.1" xmlns="http://www.w3.org/2000/svg" xmlns:xlink="http://www.w3.org/1999/xlink">
    <!-- Generator: Sketch 55.2 (78181) - https://sketchapp.com -->
    <title>Void / 24x24 / filled grey@1x</title>
    <desc>Created with Sketch.</desc>
    <g id="Void-/-24x24-/-filled-grey" stroke="none" stroke-width="1" fill="none" fill-rule="evenodd">
        <g id="void-gray" fill-rule="nonzero">
            <g id="Group">
                <g id="a-link" fill="#FFFFFF">
                    <path d="M12,24 C5.373,24 0,18.627 0,12 C0,5.373 5.373,0 12,0 C18.627,0 24,5.373 24,12 C24,18.627 18.627,24 12,24 Z" id="a"></path>
                </g>
                <g id="a-link" fill="#EEF2F5">
                    <path d="M12,24 C5.373,24 0,18.627 0,12 C0,5.373 5.373,0 12,0 C18.627,0 24,5.373 24,12 C24,18.627 18.627,24 12,24 Z" id="a"></path>
                </g>
            </g>
            <path d="M6.343,17.657 C4.32194851,15.6359486 3.53263803,12.6902019 4.2723942,9.92939424 C5.01215036,7.1685866 7.1685866,5.01215036 9.92939424,4.2723942 C12.6902019,3.53263803 15.6359486,4.32194851 17.657,6.343 C20.7812748,9.46727483 20.7812748,14.5327252 17.657,17.657 C14.5327252,20.7812748 9.46727483,20.7812748 6.343,17.657 Z M7.757,16.243 C9.2728779,17.7588779 11.4823181,18.3508956 13.5530458,17.7960458 C15.6237735,17.241196 17.241196,15.6237735 17.7960458,13.5530458 C18.3508956,11.4823181 17.7588779,9.2728779 16.243,7.757 C13.8996558,5.41365581 10.1003442,5.41365581 7.757,7.757 C5.41365581,10.1003442 5.41365581,13.8996558 7.757,16.243 Z" id="Shape" fill="#7790A3"></path>
            <polygon id="Path" fill="#7790A3" points="7.757 6.343 17.657 16.243 16.243 17.657 6.343 7.757"></polygon>
        </g>
    </g>
</svg>