<?xml version="1.0" encoding="UTF-8"?>
<svg width="24px" height="24px" viewBox="0 0 24 24" version="1.1" xmlns="http://www.w3.org/2000/svg" xmlns:xlink="http://www.w3.org/1999/xlink">
    <!-- Generator: Sketch 51.3 (57544) - http://www.bohemiancoding.com/sketch -->
    <title>Warning_24x24</title>
    <desc>Created with Sketch.</desc>
    <defs></defs>
    <g id="Warning_24x24" stroke="none" stroke-width="1" fill="none" fill-rule="evenodd">
        <path d="M21.4645833,21 L12.0000969,3.91130308 L2.53561057,21 L21.4645833,21 Z M1.16914244,23 C0.963474597,23 0.761447167,22.9432779 0.583456811,22.8355603 C0.024744124,22.4974343 -0.165961613,21.7498743 0.157503628,21.1658385 L10.9884581,1.60990149 C11.090792,1.42513158 11.2376528,1.2716144 11.4144113,1.16464234 C11.973124,0.82651632 12.6882706,1.02586563 13.0117357,1.60990149 L23.8426902,21.1658385 C23.9457373,21.351896 24,21.5630803 24,21.7780698 C24,22.4529232 23.4766439,23 22.8310514,23 L1.16914244,23 Z" id="Path" fill="#000000" fill-rule="nonzero"></path>
        <path d="M11,9 L13,9 L13,16 L11,16 L11,9 Z M11,17 L13,17 L13,19 L11,19 L11,17 Z" id="path-1" fill="#000000" fill-rule="nonzero"></path>
    </g>
</svg>