<?xml version="1.0" encoding="UTF-8"?>
<svg width="24px" height="26px" viewBox="0 0 24 26" version="1.1" xmlns="http://www.w3.org/2000/svg" xmlns:xlink="http://www.w3.org/1999/xlink">
    <!-- Generator: Sketch 55.2 (78181) - https://sketchapp.com -->
    <title>social media/youtube/24x24/square@3x</title>
    <desc>Created with Sketch.</desc>
    <defs>
        <polygon id="path-1" points="0.0118032787 5.18541944 23.8986885 5.18541944 23.8986885 21.5932072 0.0118032787 21.5932072"></polygon>
    </defs>
    <g id="social-media/youtube/24x24/square" stroke="none" stroke-width="1" fill="none" fill-rule="evenodd">
        <g>
            <g id="Group-3" transform="translate(0.000000, 0.500000)">
                <rect id="Rectangle" x="0" y="0.5" width="24" height="24"></rect>
                <mask id="mask-2" fill="white">
                    <use xlink:href="#path-1"></use>
                </mask>
                <g id="Clip-2"></g>
                <path d="M23.3992131,7.74733345 C23.1243934,6.7390067 22.3146885,5.94465514 21.2864262,5.675112 C19.4226885,5.18541944 11.9492459,5.18541944 11.9492459,5.18541944 C11.9492459,5.18541944 4.476,5.18541944 2.6122623,5.675112 C1.584,5.94465514 0.774295082,6.7390067 0.49947541,7.74733345 C0,9.5754804 0,13.3892168 0,13.3892168 C0,13.3892168 0,17.2031462 0.49947541,19.0311002 C0.774295082,20.039427 1.584,20.8339715 2.6122623,21.1033217 C4.476,21.5932072 11.9492459,21.5932072 11.9492459,21.5932072 C11.9492459,21.5932072 19.4226885,21.5932072 21.2864262,21.1033217 C22.3146885,20.8339715 23.1243934,20.039427 23.3992131,19.0311002 C23.8986885,17.2031462 23.8986885,13.3892168 23.8986885,13.3892168 C23.8986885,13.3892168 23.8986885,9.5754804 23.3992131,7.74733345" id="Fill-1" fill="#000000" mask="url(#mask-2)"></path>
            </g>
            <polyline id="Fill-4" fill="#FFFFFE" points="9.57142857 17.5 16.4285714 14.0716167 9.57142857 10.6428571 9.57142857 17.5"></polyline>
        </g>
    </g>
</svg>