<?xml version="1.0" encoding="UTF-8"?>
<svg width="24px" height="24px" viewBox="0 0 24 24" version="1.1" xmlns="http://www.w3.org/2000/svg" xmlns:xlink="http://www.w3.org/1999/xlink">
    <!-- Generator: Sketch 51.3 (57544) - http://www.bohemiancoding.com/sketch -->
    <title>Account manager_24x24</title>
    <desc>Created with Sketch.</desc>
    <defs></defs>
    <g id="Account-manager_24x24" stroke="none" stroke-width="1" fill="none" fill-rule="evenodd">
        <g id="Group" transform="translate(2.000000, 1.000000)" fill="#000000" fill-rule="nonzero">
            <path d="M10,8 C11.6568543,8 13,6.65685425 13,5 C13,3.34314575 11.6568543,2 10,2 C8.34314575,2 7,3.34314575 7,5 C7,6.65685425 8.34314575,8 10,8 Z M10,10 C7.23857625,10 5,7.76142375 5,5 C5,2.23857625 7.23857625,0 10,0 C12.7614238,0 15,2.23857625 15,5 C15,7.76142375 12.7614238,10 10,10 Z" id="Oval-6"></path>
            <path d="M2,19 L18,19 L18,18 C18,15.4827122 14.2759316,13 10,13 C5.72406837,13 2,15.4827122 2,18 L2,19 Z M20,18 L20,21 L0,21 L0,18 C0,14 5,11 10,11 C15,11 20,14 20,18 Z" id="Combined-Shape"></path>
        </g>
    </g>
</svg>