<?xml version="1.0" encoding="UTF-8"?>
<svg width="24px" height="24px" viewBox="0 0 24 24" version="1.1" xmlns="http://www.w3.org/2000/svg" xmlns:xlink="http://www.w3.org/1999/xlink">
    <!-- Generator: Sketch 51.3 (57544) - http://www.bohemiancoding.com/sketch -->
    <title>Calendar / 24x24 / black</title>
    <desc>Created with Sketch.</desc>
    <defs></defs>
    <g id="Calendar-/-24x24-/-black" stroke="none" stroke-width="1" fill="none" fill-rule="evenodd">
        <path d="M4,3 L20,3 C21.1045695,3 22,3.8954305 22,5 L22,20 C22,21.1045695 21.1045695,22 20,22 L4,22 C2.8954305,22 2,21.1045695 2,20 L2,5 C2,3.8954305 2.8954305,3 4,3 Z M4,5 L4,20 L20,20 L20,5 L4,5 Z" id="Combined-Shape" fill="#000000" fill-rule="nonzero"></path>
        <path d="M4,8 L20,8 L20,10.00125 L4,10.00125 L4,8 Z M8,2.00125 L10.00125,2.00125 L10.00125,7.00125 L8,7.00125 L8,2.00125 Z M14,2.00125 L16.00125,2.00125 L16.00125,7.00125 L14,7.00125 L14,2.00125 Z M7.001875,12 L13,12 L13,14.00125 L7.001875,14.00125 L7.001875,12 Z M7,16.00125 L12.998125,16.00125 L12.998125,18.0025 L7,18.0025 L7,16.00125 Z M15,16.00125 L17,16.00125 L17,18.0025 L15,18.0025 L15,16.00125 Z M15,12 L17,12 L17,14.00125 L15,14.00125 L15,12 Z" id="Combined-Shape" fill="#000000" fill-rule="nonzero"></path>
    </g>
</svg>