<?xml version="1.0" encoding="UTF-8"?>
<svg width="24px" height="24px" viewBox="0 0 24 24" version="1.1" xmlns="http://www.w3.org/2000/svg" xmlns:xlink="http://www.w3.org/1999/xlink">
    <!-- Generator: Sketch 55.2 (78181) - https://sketchapp.com -->
    <title>Check / 24x24 / filled blue@1x</title>
    <desc>Created with Sketch.</desc>
    <g id="Check-/-24x24-/-filled-blue" stroke="none" stroke-width="1" fill="none" fill-rule="evenodd">
        <g id="blue-checkmark" fill-rule="nonzero">
            <g id="Group">
                <g id="a-link" fill="#FFFFFF">
                    <path d="M12,24 C5.373,24 0,18.627 0,12 C0,5.373 5.373,0 12,0 C18.627,0 24,5.373 24,12 C24,18.627 18.627,24 12,24 Z" id="a"></path>
                </g>
                <g id="a-link" fill="#CEF2FD">
                    <path d="M12,24 C5.373,24 0,18.627 0,12 C0,5.373 5.373,0 12,0 C18.627,0 24,5.373 24,12 C24,18.627 18.627,24 12,24 Z" id="a"></path>
                </g>
            </g>
            <path d="M10.513,14.339 L17.205,7.323 C17.615,6.893 18.281,6.893 18.692,7.323 C19.102,7.753 19.102,8.451 18.692,8.882 L11.256,16.677 C10.846,17.107 10.18,17.107 9.769,16.677 L5.308,12 C4.8971376,11.561543 4.8971376,10.879457 5.308,10.441 C5.718,10.011 6.384,10.011 6.795,10.441 L10.513,14.339 Z" id="Path" fill="#2FB7EC"></path>
        </g>
    </g>
</svg>