<?xml version="1.0" encoding="UTF-8"?>
<svg width="24px" height="24px" viewBox="0 0 24 24" version="1.1" xmlns="http://www.w3.org/2000/svg" xmlns:xlink="http://www.w3.org/1999/xlink">
    <!-- Generator: Sketch 51.3 (57544) - http://www.bohemiancoding.com/sketch -->
    <title>Close_24x24</title>
    <desc>Created with Sketch.</desc>
    <defs></defs>
    <g id="Close_24x24" stroke="none" stroke-width="1" fill="none" fill-rule="evenodd">
        <path d="M12,10.4636382 L18.1454472,4.31819095 C18.5697018,3.89393635 19.2575545,3.89393635 19.6818091,4.31819095 C20.1060636,4.74244555 20.1060636,5.43029816 19.6818091,5.85455276 L13.5363618,12 L19.6818091,18.1454472 C20.1060636,18.5697018 20.1060636,19.2575545 19.6818091,19.6818091 C19.2575545,20.1060636 18.5697018,20.1060636 18.1454472,19.6818091 L12,13.5363618 L5.85455276,19.6818091 C5.43029816,20.1060636 4.74244555,20.1060636 4.31819095,19.6818091 C3.89393635,19.2575545 3.89393635,18.5697018 4.31819095,18.1454472 L10.4636382,12 L4.31819095,5.85455276 C3.89393635,5.43029816 3.89393635,4.74244555 4.31819095,4.31819095 C4.74244555,3.89393635 5.43029816,3.89393635 5.85455276,4.31819095 L12,10.4636382 Z" id="Combined-Shape" fill="#000000" fill-rule="nonzero"></path>
    </g>
</svg>