<?xml version="1.0" encoding="UTF-8"?>
<svg width="24px" height="24px" viewBox="0 0 24 24" version="1.1" xmlns="http://www.w3.org/2000/svg" xmlns:xlink="http://www.w3.org/1999/xlink">
    <!-- Generator: Sketch 55.2 (78181) - https://sketchapp.com -->
    <title>Close / 24x24 / filled red 1@1x</title>
    <desc>Created with Sketch.</desc>
    <g id="Close-/-24x24-/-filled-red-1" stroke="none" stroke-width="1" fill="none" fill-rule="evenodd">
        <g id="grey-i" transform="translate(11.000000, 6.000000)" fill="#FFFFFF" fill-rule="nonzero">
            <g id="Error_24x24">
                <path d="M0,9 L0,0 L2,0 L2,9 L0,9 Z M0,12 L0,10 L2,10 L2,12 L0,12 Z" id="path-1"></path>
            </g>
        </g>
        <g id="red-x" fill-rule="nonzero">
            <circle id="Oval-13" fill="#E14D4C" cx="12" cy="12" r="12"></circle>
            <g id="Close_16x16-Copy-3" transform="translate(7.000000, 7.000000)" fill="#FFFFFF">
                <path d="M6.5380579,4.9731531 L9.6678676,7.9955752 C10.1000041,8.4128845 10.1120239,9.1014966 9.6947145,9.5336331 C9.2774051,9.9657697 8.5887931,9.9777894 8.1566566,9.56048 L5.0268469,6.5380579 L2.00442483,9.6678676 C1.58711546,10.1000041 0.89850343,10.1120239 0.46636689,9.6947145 C0.03423035,9.2774051 0.02221062,8.5887931 0.43951999,8.1566566 L3.4619421,5.0268469 L0.33213239,2.00442483 C-0.10000415,1.58711543 -0.11202392,0.89850343 0.30528549,0.46636689 C0.72259489,0.03423035 1.41120689,0.02221059 1.84334343,0.43951999 L4.9731531,3.4619421 L7.9955752,0.33213239 C8.4128846,-0.10000415 9.1014966,-0.11202392 9.5336331,0.30528549 C9.9657697,0.72259489 9.9777894,1.41120689 9.56048,1.84334343 L6.5380579,4.9731531 Z" id="path-1"></path>
            </g>
        </g>
    </g>
</svg>