<?xml version="1.0" encoding="UTF-8"?>
<svg width="40px" height="40px" viewBox="0 0 40 40" version="1.1" xmlns="http://www.w3.org/2000/svg" xmlns:xlink="http://www.w3.org/1999/xlink">
    <!-- Generator: Sketch 55.2 (78181) - https://sketchapp.com -->
    <title>Customer support / 40x40@1x</title>
    <desc>Created with Sketch.</desc>
    <defs>
        <circle id="path-1" cx="20" cy="20" r="20"></circle>
        <linearGradient x1="0%" y1="5.40123457%" x2="100%" y2="94.5987654%" id="linearGradient-3">
            <stop stop-color="#5685F1" stop-opacity="0.5" offset="0%"></stop>
            <stop stop-color="#2FB7EC" offset="100%"></stop>
        </linearGradient>
        <linearGradient x1="92.0138889%" y1="100%" x2="7.98611111%" y2="0%" id="linearGradient-4">
            <stop stop-color="#FFE380" offset="0%"></stop>
            <stop stop-color="#FFD560" offset="100%"></stop>
        </linearGradient>
    </defs>
    <g id="Customer-support-/-40x40" stroke="none" stroke-width="1" fill="none" fill-rule="evenodd">
        <g id="Support-tickets">
            <mask id="mask-2" fill="white">
                <use xlink:href="#path-1"></use>
            </mask>
            <g id="Mask">
                <use fill="#FFFFFF" xlink:href="#path-1"></use>
                <use fill-opacity="0.6" fill="#C3D4FA" xlink:href="#path-1"></use>
            </g>
            <path d="M7,9 L30,9 C31.1045695,9 32,9.8954305 32,11 L32,24 C32,25.1045695 31.1045695,26 30,26 L7,26 C5.8954305,26 5,25.1045695 5,24 L5,11 C5,9.8954305 5.8954305,9 7,9 Z" id="Rectangle-34" fill="#5685F1" mask="url(#mask-2)"></path>
            <path d="M6.95605457,9.24272408 L18,9 L23,26 L7,26 C5.8954305,26 5,25.1045695 5,24 L5,11.2422412 C5,10.1547961 5.86887195,9.2666182 6.95605457,9.24272408 Z" id="Rectangle-34" fill="url(#linearGradient-3)" fill-rule="nonzero" mask="url(#mask-2)"></path>
            <rect id="Rectangle" fill="#FFFFFF" mask="url(#mask-2)" x="12" y="16" width="3" height="3"></rect>
            <rect id="Rectangle" fill="#FFFFFF" mask="url(#mask-2)" x="17" y="16" width="3" height="3"></rect>
            <rect id="Rectangle" fill="#FFFFFF" mask="url(#mask-2)" x="22" y="16" width="3" height="3"></rect>
            <rect id="Rectangle-34" fill="#FFE380" mask="url(#mask-2)" x="17" y="20" width="17" height="12" rx="2"></rect>
            <path d="M19,20 L25,20 L28,32 L19,32 C17.8954305,32 17,31.1045695 17,30 L17,22 C17,20.8954305 17.8954305,20 19,20 Z" id="Rectangle-34" fill="url(#linearGradient-4)" mask="url(#mask-2)"></path>
            <rect id="Rectangle" fill="#FFFFFF" mask="url(#mask-2)" x="20.5714286" y="26.4285714" width="1.42857143" height="1.42857143"></rect>
            <rect id="Rectangle" fill="#FFFFFF" mask="url(#mask-2)" x="20.5714286" y="23.5714286" width="1.42857143" height="1.42857143"></rect>
            <rect id="Rectangle" fill="#FFFFFF" mask="url(#mask-2)" x="23.4285714" y="25" width="2.85714286" height="1.42857143"></rect>
            <path d="M27.7142857,27.1428571 C28.5032639,27.1428571 29.1428571,26.5032639 29.1428571,25.7142857 C29.1428571,24.9253075 28.5032639,24.2857143 27.7142857,24.2857143 L27.7142857,22.8571429 C29.2922421,22.8571429 30.5714286,24.1363293 30.5714286,25.7142857 C30.5714286,27.2922421 29.2922421,28.5714286 27.7142857,28.5714286 L27.7142857,27.1428571 Z" id="Path" fill="#FFFFFF" mask="url(#mask-2)"></path>
            <path d="M9.03636364,26 C9.03636364,28.1776181 8.35757576,30.092962 7,31.7460317 C10.0450442,31.7460317 12.3783775,29.8306878 14,26 C11.9841856,26 10.4996482,26 9.03636364,26 Z" id="Path-2" fill="#5685F1" mask="url(#mask-2)"></path>
            <path d="M30.5200674,32 C30.832394,33.0784852 31.3257049,34.0784852 32,35 C30.0022544,35 28.3355877,34 27,32 L30.5200674,32 Z" id="Combined-Shape" fill="#FFD560" mask="url(#mask-2)"></path>
        </g>
    </g>
</svg>