<?xml version="1.0" encoding="UTF-8"?>
<svg width="24px" height="24px" viewBox="0 0 24 24" version="1.1" xmlns="http://www.w3.org/2000/svg" xmlns:xlink="http://www.w3.org/1999/xlink">
    <!-- Generator: Sketch 51.3 (57544) - http://www.bohemiancoding.com/sketch -->
    <title>Download_24x24</title>
    <desc>Created with Sketch.</desc>
    <defs></defs>
    <g id="Download_24x24" stroke="none" stroke-width="1" fill="none" fill-rule="evenodd">
        <g id="Group" transform="translate(0.000000, 1.000000)" fill="#000000" fill-rule="nonzero">
            <path d="M13,14.8624341 L17.9434523,9.9458754 C18.4127723,9.46571866 19.1736902,9.46571866 19.6430101,9.9458754 C20.11233,10.4260322 20.11233,11.2045201 19.6430101,11.6846768 L12.8447789,18.6398824 C12.375459,19.1200392 11.614541,19.1200392 11.1452211,18.6398824 L4.34698994,11.6846768 C3.87767002,11.2045201 3.87767002,10.4260322 4.34698994,9.9458754 C4.81630986,9.46571866 5.57722781,9.46571866 6.04654774,9.9458754 L11,14.8624341 L11,1.00026323 C11,0.447833101 11.4477153,1.01479768e-16 12,0 C12.5522847,-1.01479768e-16 13,0.447833101 13,1.00026323 L13,14.8624341 Z" id="Shape"></path>
            <path d="M24,22.995 L0,22.995 L0,18.0025 C-6.78044635e-17,17.4488345 0.448834538,17 1.0025,17 C1.55616546,17 2.005,17.4488345 2.005,18.0025 L2.005,21 L22.005,21 L22.005,17.9975 C22.005,17.446596 22.451596,17 23.0025,17 C23.553404,17 24,17.446596 24,17.9975 L24,22.995 Z" id="Path"></path>
        </g>
    </g>
</svg>