<?xml version="1.0" encoding="UTF-8"?>
<svg width="24px" height="24px" viewBox="0 0 24 24" version="1.1" xmlns="http://www.w3.org/2000/svg" xmlns:xlink="http://www.w3.org/1999/xlink">
    <!-- Generator: Sketch 51.3 (57544) - http://www.bohemiancoding.com/sketch -->
    <title>Earnings_24x24</title>
    <desc>Created with Sketch.</desc>
    <defs></defs>
    <g id="Earnings_24x24" stroke="none" stroke-width="1" fill="none" fill-rule="evenodd">
        <g id="Group" fill-rule="nonzero">
            <path d="M12,22 C17.5228475,22 22,17.5228475 22,12 C22,6.4771525 17.5228475,2 12,2 C6.4771525,2 2,6.4771525 2,12 C2,17.5228475 6.4771525,22 12,22 Z M12,24 C5.372583,24 0,18.627417 0,12 C0,5.372583 5.372583,0 12,0 C18.627417,0 24,5.372583 24,12 C24,18.627417 18.627417,24 12,24 Z" id="Oval-2" fill="#000000"></path>
            <circle id="Oval-2" fill="#000000" cx="12" cy="12" r="8"></circle>
            <path d="M16.0016667,13.7011694 C16.0016667,15.3608468 14.9001626,16.5087903 12.8923577,16.7439113 L12.8923577,18.0025 L11.3446748,18.0025 L11.3446748,16.7439113 C9.86670732,16.6056048 8.79308943,16.0800403 7.99833333,15.3193548 L9.26715447,13.5352016 C9.93642276,14.1990726 10.9682114,14.7522984 12.2370325,14.7522984 C13.0596748,14.7522984 13.561626,14.4065323 13.561626,13.9639516 C13.561626,13.4383871 12.9620732,13.2309274 11.9721138,13.0234677 C10.438374,12.7191935 8.29113821,12.3319355 8.29113821,10.1466936 C8.29113821,8.74979838 9.37869919,7.51887097 11.3446748,7.29758064 L11.3446748,5.9975 L12.8923577,5.9975 L12.8923577,7.3114113 C14.0078049,7.44971774 14.9977642,7.87846774 15.7785772,8.54233871 L14.4679268,10.2435081 C13.6871138,9.60729839 12.6692683,9.28919355 11.846626,9.28919355 C11.0518699,9.28919355 10.745122,9.60729839 10.745122,10.0083871 C10.745122,10.4924597 11.3167886,10.6584274 12.3485772,10.8520564 C13.8823171,11.1701613 16.0016667,11.6127419 16.0016667,13.7011694 Z" id="path-1" fill="#FFFFFF"></path>
        </g>
    </g>
</svg>