<?xml version="1.0" encoding="UTF-8"?>
<svg width="24px" height="24px" viewBox="0 0 24 24" version="1.1" xmlns="http://www.w3.org/2000/svg" xmlns:xlink="http://www.w3.org/1999/xlink">
    <!-- Generator: Sketch 55.2 (78181) - https://sketchapp.com -->
    <title>social media/facebook/24x24/circle@3x</title>
    <desc>Created with Sketch.</desc>
    <defs>
        <polygon id="path-1" points="0.00140625 0.000936921815 24 0.000936921815 24 23.8395071 0.00140625 23.8395071"></polygon>
    </defs>
    <g id="social-media/facebook/24x24/circle" stroke="none" stroke-width="1" fill="none" fill-rule="evenodd">
        <g>
            <g id="Group-3">
                <mask id="mask-2" fill="white">
                    <use xlink:href="#path-1"></use>
                </mask>
                <g id="Clip-2"></g>
                <path d="M24,11.9925992 C24,5.36926469 18.6274219,0 12,0 C5.37257813,0 0,5.36926469 0,11.9925992 C0,17.9784522 4.38822656,22.939828 10.125,23.8395071 L10.125,15.4592099 L7.078125,15.4592099 L7.078125,11.9925992 L10.125,11.9925992 L10.125,9.35047971 C10.125,6.34483453 11.9165156,4.68460908 14.6575781,4.68460908 C15.9704766,4.68460908 17.34375,4.91883953 17.34375,4.91883953 L17.34375,7.87014325 L15.8305781,7.87014325 C14.3398828,7.87014325 13.875,8.79458058 13.875,9.74297969 L13.875,11.9925992 L17.203125,11.9925992 L16.6710938,15.4592099 L13.875,15.4592099 L13.875,23.8395071 C19.6117734,22.939828 24,17.9784522 24,11.9925992" id="Fill-1" fill="#0A0B09" mask="url(#mask-2)"></path>
            </g>
            <path d="M16.6485969,15.4566877 L17.1799441,11.9830333 L13.8560979,11.9830333 L13.8560979,9.72884278 C13.8560979,8.77851664 14.320383,7.85220096 15.8091619,7.85220096 L17.3203883,7.85220096 L17.3203883,4.89490056 C17.3203883,4.89490056 15.9488804,4.66019417 14.6376699,4.66019417 C11.9001314,4.66019417 10.110919,6.32379301 10.110919,9.33554529 L10.110919,11.9830333 L7.06796117,11.9830333 L7.06796117,15.4566877 L10.110919,15.4566877 L10.110919,23.8540126 C10.7210789,23.9500075 11.3464535,24 11.9835084,24 C12.6205634,24 13.245938,23.9500075 13.8560979,23.8540126 L13.8560979,15.4566877 L16.6485969,15.4566877" id="Fill-4" fill="#FFFFFE"></path>
        </g>
    </g>
</svg>