<?xml version="1.0" encoding="UTF-8"?>
<svg width="24px" height="24px" viewBox="0 0 24 24" version="1.1" xmlns="http://www.w3.org/2000/svg" xmlns:xlink="http://www.w3.org/1999/xlink">
    <!-- Generator: Sketch 55.2 (78181) - https://sketchapp.com -->
    <title>social media/facebook/24x24/square@3x</title>
    <desc>Created with Sketch.</desc>
    <g id="social-media/facebook/24x24/square" stroke="none" stroke-width="1" fill="none" fill-rule="evenodd">
        <g>
            <rect id="Rectangle" x="0" y="-1.77635684e-14" width="24" height="23.04"></rect>
            <path d="M17.4495853,13.3465224 L18.0845855,9.36129346 L14.1123375,9.36129346 L14.1123375,6.77512222 C14.1123375,5.68483897 14.6671934,4.62210228 16.4463969,4.62210228 L18.252427,4.62210228 L18.252427,1.22927223 C18.252427,1.22927223 16.6133712,0.96 15.0463753,0.96 C11.7748094,0.96 9.63656509,2.86860154 9.63656509,6.32390275 L9.63656509,9.36129346 L6,9.36129346 L6,13.3465224 L9.63656509,13.3465224 L9.63656509,22.9805441 C10.3657523,23.0906765 11.1131224,23.1480314 11.8744513,23.1480314 C12.6357802,23.1480314 13.3831503,23.0906765 14.1123375,22.9805441 L14.1123375,13.3465224 L17.4495853,13.3465224" id="Fill-4" fill="#000000"></path>
        </g>
    </g>
</svg>