<?xml version="1.0" encoding="UTF-8"?>
<svg width="40px" height="40px" viewBox="0 0 40 40" version="1.1" xmlns="http://www.w3.org/2000/svg" xmlns:xlink="http://www.w3.org/1999/xlink">
    <!-- Generator: Sketch 55.2 (78181) - https://sketchapp.com -->
    <title>FBW / 40x40@1x</title>
    <desc>Created with Sketch.</desc>
    <defs>
        <circle id="path-1" cx="20" cy="20" r="20"></circle>
    </defs>
    <g id="FBW-/-40x40" stroke="none" stroke-width="1" fill="none" fill-rule="evenodd">
        <g id="FBW-inventory">
            <mask id="mask-2" fill="white">
                <use xlink:href="#path-1"></use>
            </mask>
            <use id="Mask" fill="#1D4BEA" xlink:href="#path-1"></use>
            <polygon id="Rectangle-26" fill="#C3D4FA" mask="url(#mask-2)" transform="translate(27.769925, 1.559482) rotate(45.000000) translate(-27.769925, -1.559482) " points="19.7553796 -5.97090909 35.7844705 -6 30.1316353 9.10867927 24.464496 9.11896446"></polygon>
            <path d="M15.0690909,20.5675524 L22.0945455,6.56755241" id="Path-32" stroke="#5685F1" stroke-width="2" stroke-linecap="round" stroke-linejoin="round" mask="url(#mask-2)"></path>
            <path d="M6.03636364,20.5675524 L22.0945455,6.56755241" id="Path-31" stroke="#FFFFFF" stroke-width="2" stroke-linecap="round" stroke-linejoin="round" mask="url(#mask-2)"></path>
            <path d="M22.0945455,6.56755241 L26.1090909,22.5675524" id="Path-33" stroke="#5685F1" stroke-width="2" stroke-linecap="round" stroke-linejoin="round" mask="url(#mask-2)"></path>
            <path d="M22.0945455,6.56755241 L34.1381818,24.5675524" id="Path-34" stroke="#FFFFFF" stroke-width="2" stroke-linecap="round" stroke-linejoin="round" mask="url(#mask-2)"></path>
            <path d="M12.0581818,18.5675524 L34.3891709,24.1300723 C35.3870765,24.3786448 36.0349029,25.3386101 35.8894344,26.3532 L34.4346634,36.4997004 C34.2778857,37.5931684 33.2611378,38.3529664 32.1636936,38.1967566 C32.1349121,38.1926599 32.1062232,38.1879406 32.0776475,38.182602 L3.95525685,32.9287587 C2.88118882,32.7281006 2.16555982,31.7082274 2.34521258,30.6342163 L3.81273172,21.8610041 C3.94411094,21.0755848 4.53057014,20.4426368 5.30585819,20.2495171 L12.0581818,18.5675524 Z" id="Path-29" fill="#5685F1" mask="url(#mask-2)"></path>
            <path d="M28.4494026,27.446436 C28.1346724,27.4466496 27.8417867,27.6989347 27.7980931,28.0067947 L27.4768652,30.3001777 C27.4413594,30.5500429 27.3195349,30.7668301 27.1114701,30.9505391 C26.9033269,31.134403 26.6689992,31.2263846 26.4090352,31.226561 C26.1562012,31.2267326 25.9513783,31.1369072 25.7949586,30.9568522 C25.6380685,30.7770297 25.5780447,30.5587401 25.6143391,30.3014419 L25.8081051,28.9097256 C25.8142489,28.631931 25.6024613,28.4147508 25.3103741,28.4149491 L24.5453688,28.4154683 C24.2532816,28.4156666 23.979772,28.6331761 23.9075795,28.9110155 L23.7074672,30.3027361 C23.6711728,30.5600344 23.5491122,30.7784475 23.3414416,30.9585174 C23.1336926,31.1388196 22.9035186,31.2289403 22.650998,31.2291117 C22.3980072,31.2292834 22.1916969,31.1376009 22.0319106,30.9539867 C21.8719674,30.7705275 21.809827,30.5538651 21.8450195,30.3040002 L22.2755854,27.2610196 C22.3210731,26.9647718 22.1429604,26.6552817 21.8707028,26.5298105 C21.8707028,26.5298105 18.6451681,25.2093981 18.4350141,25.1245312 C18.2221966,25.0390469 17.9809058,25.2312949 17.8980287,25.5518786 L17.7003799,26.3174849 C17.6175812,26.6380686 17.8034132,27.0024458 18.1132008,27.1270399 L20.2749712,28.0058618 L19.9495083,30.3052867 C19.8401555,31.076485 20.0235143,31.7360742 20.500134,32.2828152 C20.9764399,32.8300211 21.6048524,33.1030493 22.3857625,33.1025201 C23.106657,33.10203 23.7649559,32.8629683 24.3604246,32.3848699 C24.8353678,32.8622418 25.4300352,33.1004531 26.1437999,33.0999686 C26.924475,33.0994388 27.6304342,32.8255048 28.2617562,32.2775472 C28.8930778,31.7300543 29.2633371,31.0700892 29.3725331,30.2988911 C29.3725331,30.2988911 29.7131257,27.8723289 29.7192659,27.82982 C29.7489477,27.61836 29.5162105,27.4457119 29.2015586,27.4459255 L28.4494026,27.446436 Z" id="Fill-2" fill="#FFFFFF" mask="url(#mask-2)" transform="translate(23.701246, 29.103368) rotate(11.000000) translate(-23.701246, -29.103368) "></path>
            <circle id="Oval" fill="#C3D4FA" fill-rule="nonzero" mask="url(#mask-2)" cx="21.58" cy="7.06755241" r="3.5"></circle>
            <circle id="Oval" fill="#1D4BEA" fill-rule="nonzero" mask="url(#mask-2)" cx="21.5" cy="7.06755241" r="1.5"></circle>
            <polygon id="Rectangle-28" fill-opacity="0" fill="#FFFFFF" fill-rule="nonzero" mask="url(#mask-2)" transform="translate(12.259255, 25.634855) rotate(10.000000) translate(-12.259255, -25.634855) " points="11.2600815 18.6347091 13.267135 18.6334654 13.258429 32.6350005 11.2513756 32.6362442"></polygon>
            <path d="M12.0305744,21.969383 L10.5635843,30.7394327 C10.4322051,31.524852 9.84574585,32.1578 9.07045784,32.3509198 L2.3181342,34.0328844 L4.43959016,18.5675524 L10.4173057,19.674241 C11.4929558,19.8733822 12.210437,20.894118 12.0305744,21.969383 Z" id="Rectangle" fill="#C3D4FA" fill-rule="nonzero" mask="url(#mask-2)" transform="translate(7.188158, 26.300218) rotate(180.000000) translate(-7.188158, -26.300218) "></path>
        </g>
    </g>
</svg>