<?xml version="1.0" encoding="UTF-8"?>
<svg width="16px" height="16px" viewBox="0 0 16 16" version="1.1" xmlns="http://www.w3.org/2000/svg" xmlns:xlink="http://www.w3.org/1999/xlink">
    <!-- Generator: Sketch 55.2 (78181) - https://sketchapp.com -->
    <title>File@1x</title>
    <desc>Created with Sketch.</desc>
    <g id="Symbols" stroke="none" stroke-width="1" fill="none" fill-rule="evenodd">
        <g id="File-/-16x16-/-black" fill="#000000">
            <rect id="File" fill-opacity="0" fill-rule="nonzero" x="0" y="0" width="16" height="16"></rect>
            <g id="Group" transform="translate(1.000000, 0.000000)">
                <path d="M0,0 L10,0 L14,4 L14,15 L0,15 L0,0 Z M2,2 L2,13 L12,13 L12,4.82842712 L9.17157288,2 L2,2 Z" id="Rectangle" fill-rule="nonzero"></path>
                <path d="M3.001875,8.001875 L11.006875,8.001875 L11.006875,10.003125 L3.001875,10.003125 L3.001875,8.001875 Z M3,5 L8,5 L8,7.00125 L3,7.00125 L3,5 Z M9.001875,5.001875 L11.001875,5.001875 L11.001875,7.003125 L9.001875,7.003125 L9.001875,5.001875 Z" id="Combined-Shape"></path>
            </g>
        </g>
    </g>
</svg>