<?xml version="1.0" encoding="UTF-8"?>
<svg width="16px" height="16px" viewBox="0 0 16 16" version="1.1" xmlns="http://www.w3.org/2000/svg" xmlns:xlink="http://www.w3.org/1999/xlink">
    <!-- Generator: Sketch 55.2 (78181) - https://sketchapp.com -->
    <title>Rectangle@1x</title>
    <desc>Created with Sketch.</desc>
    <g id="Symbols" stroke="none" stroke-width="1" fill="none" fill-rule="evenodd">
        <g id="Hide-/-16x16-/-black">
            <g id="Group">
                <rect id="Rectangle" fill-opacity="0" fill="#D8D8D8" x="0" y="0" width="16" height="16"></rect>
                <path d="M10.924069,10.924069 L12.348358,12.348358 C10.9450705,13.4578688 9.49612211,14 8.00000443,14 C5.16770624,14 2.50445424,12.0571042 4.42974725e-06,8.00002047 C1.18151279,6.08601307 2.39836793,4.64254972 3.65164443,3.65164443 L5.07593291,5.07593291 C4.18974244,5.73170619 3.2941031,6.69729306 2.3887803,8.00001417 C4.30169012,10.7525796 6.1713583,12 8.00000221,12 C8.96320283,12 9.93778395,11.6539107 10.924069,10.924069 Z M12.3901202,9.56169304 C12.7951928,9.10825437 13.2022203,8.58852504 13.6112241,7.99998583 C11.6983143,5.24742039 9.82864614,4 8.00000221,4 C7.65572459,4 7.30999304,4.04421526 6.96279278,4.13436565 L5.40008992,2.57166279 C6.2505053,2.18882428 7.11704012,2 8.00000443,2 C10.8322982,2 13.4955502,3.94289577 16.0000044,7.99997953 C15.2810766,9.16461854 14.549062,10.1550385 13.8037185,10.9752914 L12.3901202,9.56169304 Z" id="Combined-Shape" fill="#000000" fill-rule="nonzero"></path>
                <path d="M5.00279008,7.83121721 L8.16878279,10.9972099 C8.11291564,11.0003063 8.05664102,11.001875 8,11.001875 C6.34211022,11.001875 4.998125,9.65788978 4.998125,8 C4.998125,7.94335898 4.99969372,7.88708436 5.00279008,7.83121721 L5.00279008,7.83121721 Z" id="Shape" fill="#000000" fill-rule="nonzero"></path>
                <polygon id="Path" fill="#000000" fill-rule="nonzero" points="1 3.82842712 2.41421356 2.41421356 13.7279221 13.7279221 12.3137085 15.1421356"></polygon>
            </g>
        </g>
    </g>
</svg>