<?xml version="1.0" encoding="UTF-8"?>
<svg width="56px" height="56px" viewBox="0 0 56 56" version="1.1" xmlns="http://www.w3.org/2000/svg" xmlns:xlink="http://www.w3.org/1999/xlink">
    <!-- Generator: Sketch 55.2 (78181) - https://sketchapp.com -->
    <title>Impression / 56x56@1x</title>
    <desc>Created with Sketch.</desc>
    <defs>
        <linearGradient x1="100%" y1="69.352%" x2="-13.035%" y2="30.648%" id="linearGradient-1">
            <stop stop-color="#8BDCFB" offset="0%"></stop>
            <stop stop-color="#2FB7EC" offset="100%"></stop>
        </linearGradient>
        <linearGradient x1="100%" y1="50%" x2="0%" y2="50%" id="linearGradient-2">
            <stop stop-color="#5685F1" offset="0%"></stop>
            <stop stop-color="#326BEE" offset="100%"></stop>
        </linearGradient>
    </defs>
    <g id="Impression-/-56x56" stroke="none" stroke-width="1" fill="none" fill-rule="evenodd">
        <g id="impression-booster">
            <circle id="Oval" cx="28" cy="28" r="28"></circle>
            <path d="M46.64,28.52 C46.3,28.064 38.224,17.304 27.996,17.304 C17.776,17.304 9.693,28.064 9.36,28.52 C9.14633275,28.8043331 9.14633275,29.1956669 9.36,29.48 C9.693,29.936 17.776,40.696 27.996,40.696 C38.224,40.696 46.299,29.936 46.64,29.48 C46.8536673,29.1956669 46.8536673,28.8043331 46.64,28.52 L46.64,28.52 Z" id="Path" fill="url(#linearGradient-1)" fill-rule="nonzero"></path>
            <path d="M27.996,37.496 C23.356,37.496 19.589,33.688 19.589,29 C19.589,24.312 23.357,20.504 27.996,20.504 C32.636,20.504 36.411,24.312 36.411,29 C36.411,33.688 32.635,37.496 27.996,37.496 L27.996,37.496 Z" id="Path" fill="#FFFFFF" fill-rule="nonzero"></path>
            <path d="M27.998,24.503 C25.544,24.503 23.548,26.519 23.548,28.999 C23.548,31.479 25.544,33.495 27.998,33.495 C30.46,33.495 32.455,31.479 32.455,28.999 C32.455,26.519 30.46,24.503 27.998,24.503 L27.998,24.503 Z" id="Path" fill="#326BEE" fill-rule="nonzero"></path>
            <g id="Group" transform="translate(36.000000, 10.000000)">
                <circle id="Oval" fill="url(#linearGradient-2)" fill-rule="nonzero" cx="8" cy="8" r="8"></circle>
                <polyline id="Path" stroke="#FFFFFF" stroke-width="1.6" stroke-linecap="round" stroke-linejoin="round" points="4.8 8.251 7.168 10.37 11.535 5.6"></polyline>
            </g>
        </g>
    </g>
</svg>