<?xml version="1.0" encoding="UTF-8"?>
<svg width="40px" height="40px" viewBox="0 0 40 40" version="1.1" xmlns="http://www.w3.org/2000/svg" xmlns:xlink="http://www.w3.org/1999/xlink">
    <!-- Generator: Sketch 55.2 (78181) - https://sketchapp.com -->
    <title>In-process / 40x40@1x</title>
    <desc>Created with Sketch.</desc>
    <defs>
        <linearGradient x1="3.92%" y1="0%" x2="96.08%" y2="100%" id="linearGradient-1">
            <stop stop-color="#8BDCFB" offset="0%"></stop>
            <stop stop-color="#2FB7EC" offset="100%"></stop>
        </linearGradient>
        <linearGradient x1="50%" y1="0%" x2="50%" y2="100%" id="linearGradient-2">
            <stop stop-color="#E6F7FF" offset="0%"></stop>
            <stop stop-color="#E6F7FF" offset="100%"></stop>
        </linearGradient>
        <linearGradient x1="100%" y1="55.5555556%" x2="0%" y2="42.5713433%" id="linearGradient-3">
            <stop stop-color="#2EE3AA" offset="0%"></stop>
            <stop stop-color="#92F1D3" offset="100%"></stop>
        </linearGradient>
        <linearGradient x1="100%" y1="62.5%" x2="0%" y2="37.5%" id="linearGradient-4">
            <stop stop-color="#2FB7EC" offset="0%"></stop>
            <stop stop-color="#2F88EC" offset="100%"></stop>
        </linearGradient>
    </defs>
    <g id="In-process-/-40x40" stroke="none" stroke-width="1" fill="none" fill-rule="evenodd">
        <g id="checklist" fill-rule="nonzero">
            <g id="Oval-2">
                <g id="path-1-link" fill="#FFFFFF">
                    <circle id="path-1" cx="20" cy="20" r="20"></circle>
                </g>
                <g id="path-1-link" fill="#CEF2FD">
                    <circle id="path-1" cx="20" cy="20" r="20"></circle>
                </g>
            </g>
        </g>
        <g id="dispute-denied" transform="translate(8.000000, 5.000000)">
            <g id="Clipped">
                <g id="Group">
                    <g>
                        <g transform="translate(0.000000, 3.000000)">
                            <path d="M2,0 L22,0 C23.1045695,0 24,0.8954305 24,2 L24,21 L20,25 L2,25 C0.8954305,25 0,24.1045695 0,23 L0,2 C0,0.8954305 0.8954305,0 2,0 Z" id="Rectangle" fill="url(#linearGradient-1)"></path>
                            <path d="M1,0 L7,0 L15,25 L1,25 C0.44771525,25 0,24.1045695 0,23 L0,2 C0,0.8954305 0.44771525,0 1,0 Z" id="Rectangle" fill="url(#linearGradient-2)" opacity="0.28"></path>
                            <g transform="translate(3.000000, 10.000000)" fill-rule="nonzero" id="d-link">
                                <g>
                                    <path d="M1,0 L17,0 C17.5522847,-1.01453063e-16 18,0.44771525 18,1 L18,3 C18,3.55228475 17.5522847,4 17,4 L1,4 C0.44771525,4 6.76353751e-17,3.55228475 0,3 L0,1 C-6.76353751e-17,0.44771525 0.44771525,1.01453063e-16 1,0 Z" id="d" fill="#FFFFFF"></path>
                                    <path d="M1,0 L12,0 L12,4 L1,4 C0.44771525,4 6.76353751e-17,3.55228475 0,3 L0,1 C-6.76353751e-17,0.44771525 0.44771525,1.01453063e-16 1,0 Z" id="d" fill="url(#linearGradient-3)"></path>
                                </g>
                            </g>
                        </g>
                        <path d="M10,2 L10,0 L14,0 L14,2 L17,2 C17.5522847,2 18,2.3581722 18,2.8 L18,6 L6,6 L6,2.8 C6,2.3581722 6.44771525,2 7,2 L10,2 Z" id="Combined-Shape" fill="url(#linearGradient-4)" fill-rule="nonzero"></path>
                        <rect id="Rectangle" fill="#CEF2FD" x="7" y="19" width="10" height="2"></rect>
                        <rect id="Rectangle" fill="#CEF2FD" x="3" y="19" width="2" height="2"></rect>
                    </g>
                </g>
            </g>
        </g>
        <polygon id="Path" fill="#FFD560" fill-rule="nonzero" points="33.125 13.875 35 15 33.125 16.125 32 18 30.875 16.125 29 15 30.875 13.875 32 12"></polygon>
        <polygon id="Rectangle" fill="#0098D3" fill-rule="nonzero" transform="translate(30.000000, 31.000000) scale(-1, 1) translate(-30.000000, -31.000000) " points="28 29 32 29 32 33"></polygon>
    </g>
</svg>