<?xml version="1.0" encoding="UTF-8"?>
<svg width="40px" height="40px" viewBox="0 0 40 40" version="1.1" xmlns="http://www.w3.org/2000/svg" xmlns:xlink="http://www.w3.org/1999/xlink">
    <!-- Generator: Sketch 55.2 (78181) - https://sketchapp.com -->
    <title>Inventory_outlined / 40x40@1x</title>
    <desc>Created with Sketch.</desc>
    <defs>
        <linearGradient x1="7.986%" y1="99.999%" x2="92.014%" y2="0.001%" id="linearGradient-1">
            <stop stop-color="#FFFFFF" offset="0%"></stop>
            <stop stop-color="#EEF2F5" offset="100%"></stop>
        </linearGradient>
        <linearGradient x1="100%" y1="53.72%" x2="0%" y2="46.28%" id="linearGradient-2">
            <stop stop-color="#2FB7EC" offset="0%"></stop>
            <stop stop-color="#2F88EC" offset="100%"></stop>
        </linearGradient>
        <linearGradient x1="100%" y1="100%" x2="0%" y2="100%" id="linearGradient-3">
            <stop stop-color="#8BDCFB" offset="0%"></stop>
            <stop stop-color="#2FB7EC" offset="100%"></stop>
        </linearGradient>
        <linearGradient x1="7.986%" y1="99.999%" x2="92.014%" y2="0.001%" id="linearGradient-4">
            <stop stop-color="#FFFFFF" offset="0%"></stop>
            <stop stop-color="#8BDCFB" offset="100%"></stop>
        </linearGradient>
    </defs>
    <g id="Inventory_outlined-/-40x40" stroke="none" stroke-width="1" fill="none" fill-rule="evenodd">
        <g id="Group-6" fill-rule="nonzero">
            <circle id="Oval" fill-opacity="0" fill="#CEF2FD" cx="20" cy="20" r="20"></circle>
            <g id="icon-02" transform="translate(5.000000, 11.000000)">
                <polygon id="Path" fill="#FFFFFF" points="14 6 30 6 30 18 14 18"></polygon>
                <polygon id="Path" fill="#EEF2F5" points="0 6 14 6 14 18 0 18"></polygon>
                <polygon id="Path" fill="url(#linearGradient-1)" points="3 6 14 6 14 18 8 18"></polygon>
                <path d="M1,9 L3,9 L3,13 L1,13 L1,9 Z M5,9 L7,9 L7,13 L5,13 L5,9 Z M9,9 L11,9 L11,13 L9,13 L9,9 Z" id="Shape" fill="#2F88EC"></path>
                <polygon id="Path" fill="#FFFFFF" points="22 0 30 6 14 6"></polygon>
                <polygon id="Path" fill="url(#linearGradient-2)" points="8 0 22 0 14 6.001 0 6"></polygon>
                <polygon id="Path" fill="#2F88EC" points="17 14 27 14 27 18 17 18"></polygon>
                <polygon id="Path" fill="url(#linearGradient-3)" points="19 14 27 14 27 18 19 18"></polygon>
                <g id="Group" transform="translate(20.000000, 4.000000)" fill="#AFC7D1" fill-opacity="0.5">
                    <path d="M2,4 C0.8954305,4 0,3.1045695 0,2 C0,0.8954305 0.8954305,0 2,0 C3.1045695,0 4,0.8954305 4,2 C4,3.1045695 3.1045695,4 2,4 Z" id="Path"></path>
                </g>
                <g id="Group">
                    <polygon id="Path" fill="#FFFFFF" points="14 6 30 6 30 18 14 18"></polygon>
                    <polygon id="Path" fill="#EEF2F5" points="0 6 14 6 14 18 0 18"></polygon>
                    <polygon id="Path" fill="url(#linearGradient-1)" points="3 6 14 6 14 18 8 18"></polygon>
                    <path d="M1,9 L3,9 L3,13 L1,13 L1,9 Z M5,9 L7,9 L7,13 L5,13 L5,9 Z M9,9 L11,9 L11,13 L9,13 L9,9 Z" id="Shape" fill="#2F88EC"></path>
                    <polygon id="Path" fill="#FFFFFF" points="22 0 30 6 14 6"></polygon>
                    <polygon id="Path" fill="url(#linearGradient-2)" points="8 0 22 0 14 6.001 0 6"></polygon>
                    <polygon id="Path" fill="#2F88EC" points="17 14 27 14 27 18 17 18"></polygon>
                    <polygon id="Path" fill="url(#linearGradient-3)" points="19 14 27 14 27 18 19 18"></polygon>
                    <g transform="translate(20.000000, 4.000000)" fill="#AFC7D1" fill-opacity="0.5" id="Path">
                        <path d="M2,4 C0.8954305,4 0,3.1045695 0,2 C0,0.8954305 0.8954305,0 2,0 C3.1045695,0 4,0.8954305 4,2 C4,3.1045695 3.1045695,4 2,4 Z"></path>
                    </g>
                </g>
                <g id="Group">
                    <path d="M14,6 L30,6 L30,18 L14,18 L14,6 Z M0,6 L14,6 L14,18 L0,18 L0,6 Z" id="Shape" fill="#E6F7FF"></path>
                    <polygon id="Path" fill="url(#linearGradient-4)" points="3 6 14 6 14 18 8 18"></polygon>
                    <path d="M1,9 L3,9 L3,13 L1,13 L1,9 Z M5,9 L7,9 L7,13 L5,13 L5,9 Z M9,9 L11,9 L11,13 L9,13 L9,9 Z" id="Shape" fill="#2F88EC"></path>
                    <polygon id="Path" fill="#E6F7FF" points="22 0 30 6 14 6"></polygon>
                    <polygon id="Path" fill="url(#linearGradient-2)" points="8 0 22 0 14 6.001 0 6"></polygon>
                    <polygon id="Path" fill="#2F88EC" points="17 14 27 14 27 18 17 18"></polygon>
                    <polygon id="Path" fill="url(#linearGradient-3)" points="19 14 27 14 27 18 19 18"></polygon>
                    <g transform="translate(20.000000, 4.000000)" fill="#8BDCFB" id="Path">
                        <path d="M2,4 C0.8954305,4 0,3.1045695 0,2 C0,0.8954305 0.8954305,0 2,0 C3.1045695,0 4,0.8954305 4,2 C4,3.1045695 3.1045695,4 2,4 Z"></path>
                    </g>
                </g>
            </g>
        </g>
    </g>
</svg>