<?xml version="1.0" encoding="UTF-8"?>
<svg width="40px" height="40px" viewBox="0 0 40 40" version="1.1" xmlns="http://www.w3.org/2000/svg" xmlns:xlink="http://www.w3.org/1999/xlink">
    <!-- Generator: Sketch 55.2 (78181) - https://sketchapp.com -->
    <title>Inventory / 40x40@1x</title>
    <desc>Created with Sketch.</desc>
    <defs>
        <linearGradient x1="7.98611111%" y1="99.9990069%" x2="92.0138889%" y2="0.000993055556%" id="linearGradient-1">
            <stop stop-color="#FFFFFF" offset="0%"></stop>
            <stop stop-color="#EEF2F5" offset="100%"></stop>
        </linearGradient>
        <linearGradient x1="100%" y1="53.720248%" x2="0%" y2="46.279752%" id="linearGradient-2">
            <stop stop-color="#2FB7EC" offset="0%"></stop>
            <stop stop-color="#2F88EC" offset="100%"></stop>
        </linearGradient>
        <linearGradient x1="100%" y1="100%" x2="0%" y2="100%" id="linearGradient-3">
            <stop stop-color="#8BDCFB" offset="0%"></stop>
            <stop stop-color="#2FB7EC" offset="100%"></stop>
        </linearGradient>
    </defs>
    <g id="Inventory-/-40x40" stroke="none" stroke-width="1" fill="none" fill-rule="evenodd">
        <g id="Group-6">
            <circle id="Oval" fill="#CEF2FD" fill-rule="nonzero" cx="20" cy="20" r="20"></circle>
            <g id="Clipped" transform="translate(5.000000, 11.000000)">
                <g id="Group">
                    <polygon id="Path" fill="#FFFFFF" fill-rule="nonzero" points="14 6 30 6 30 18 14 18"></polygon>
                    <polygon id="Path" fill="#EEF2F5" fill-rule="nonzero" points="-9.09466946e-13 6 14 6 14 18 -9.09466946e-13 18"></polygon>
                    <polygon id="Path" fill="url(#linearGradient-1)" fill-rule="nonzero" points="3 6 14 6 14 18 8 18"></polygon>
                    <path d="M1,9 L3,9 L3,13 L1,13 L1,9 Z M5,9 L7,9 L7,13 L5,13 L5,9 Z M9,9 L11,9 L11,13 L9,13 L9,9 Z" id="Shape" fill="#2F88EC" fill-rule="nonzero"></path>
                    <polygon id="Path" fill="#FFFFFF" fill-rule="nonzero" points="22 0 30 6 14 6"></polygon>
                    <polygon id="Path" fill="url(#linearGradient-2)" fill-rule="nonzero" points="8 0 22 0 14 6.001 -1.36443634e-12 6"></polygon>
                    <polygon id="Path" fill="#2F88EC" fill-rule="nonzero" points="17 14 27 14 27 18 17 18"></polygon>
                    <polygon id="Path" fill="url(#linearGradient-3)" points="19 14 27 14 27 18 19 18"></polygon>
                </g>
            </g>
            <g id="Clipped" transform="translate(25.000000, 15.000000)" fill="#AFC7D1" fill-opacity="0.5" fill-rule="nonzero">
                <path d="M2,4 C0.8954305,4 0,3.1045695 0,2 C0,0.8954305 0.8954305,0 2,0 C3.1045695,0 4,0.8954305 4,2 C4,3.1045695 3.1045695,4 2,4 Z" id="Path"></path>
            </g>
            <g id="Group-2" transform="translate(5.000000, 11.000000)">
                <g id="Clipped">
                    <g id="Group">
                        <polygon id="Path" fill="#FFFFFF" fill-rule="nonzero" points="14 6 30 6 30 18 14 18"></polygon>
                        <polygon id="Path" fill="#EEF2F5" fill-rule="nonzero" points="-9.09466946e-13 6 14 6 14 18 -9.09466946e-13 18"></polygon>
                        <polygon id="Path" fill="url(#linearGradient-1)" fill-rule="nonzero" points="3 6 14 6 14 18 8 18"></polygon>
                        <path d="M1,9 L3,9 L3,13 L1,13 L1,9 Z M5,9 L7,9 L7,13 L5,13 L5,9 Z M9,9 L11,9 L11,13 L9,13 L9,9 Z" id="Shape" fill="#2F88EC" fill-rule="nonzero"></path>
                        <polygon id="Path" fill="#FFFFFF" fill-rule="nonzero" points="22 0 30 6 14 6"></polygon>
                        <polygon id="Path" fill="url(#linearGradient-2)" fill-rule="nonzero" points="8 0 22 0 14 6.001 -1.36443634e-12 6"></polygon>
                        <polygon id="Path" fill="#2F88EC" fill-rule="nonzero" points="17 14 27 14 27 18 17 18"></polygon>
                        <polygon id="Path" fill="url(#linearGradient-3)" points="19 14 27 14 27 18 19 18"></polygon>
                    </g>
                </g>
                <g id="Clipped" transform="translate(21.000000, 4.000000)" fill="#AFC7D1" fill-opacity="0.5" fill-rule="nonzero">
                    <path d="M1,4 C-0.1045695,4 -1,3.1045695 -1,2 C-1,0.8954305 -0.1045695,0 1,0 C2.1045695,0 3,0.8954305 3,2 C3,3.1045695 2.1045695,4 1,4 Z" id="Path"></path>
                </g>
            </g>
            <g id="Group-2" transform="translate(5.000000, 11.000000)">
                <g id="Clipped">
                    <g id="Group">
                        <polygon id="Path" fill="#FFFFFF" fill-rule="nonzero" points="14 6 30 6 30 18 14 18"></polygon>
                        <polygon id="Path" fill="#EEF2F5" fill-rule="nonzero" points="-9.09466946e-13 6 14 6 14 18 -9.09466946e-13 18"></polygon>
                        <polygon id="Path" fill="url(#linearGradient-1)" fill-rule="nonzero" points="3 6 14 6 14 18 8 18"></polygon>
                        <path d="M1,9 L3,9 L3,13 L1,13 L1,9 Z M5,9 L7,9 L7,13 L5,13 L5,9 Z M9,9 L11,9 L11,13 L9,13 L9,9 Z" id="Shape" fill="#2F88EC" fill-rule="nonzero"></path>
                        <polygon id="Path" fill="#FFFFFF" fill-rule="nonzero" points="22 0 30 6 14 6"></polygon>
                        <polygon id="Path" fill="url(#linearGradient-2)" fill-rule="nonzero" points="8 0 22 0 14 6.001 -1.36443634e-12 6"></polygon>
                        <polygon id="Path" fill="#2F88EC" fill-rule="nonzero" points="17 14 27 14 27 18 17 18"></polygon>
                        <polygon id="Path" fill="url(#linearGradient-3)" points="19 14 27 14 27 18 19 18"></polygon>
                    </g>
                </g>
                <g id="Clipped" transform="translate(21.000000, 4.000000)" fill="#AFC7D1" fill-opacity="0.5" fill-rule="nonzero">
                    <path d="M1,4 C-0.1045695,4 -1,3.1045695 -1,2 C-1,0.8954305 -0.1045695,0 1,0 C2.1045695,0 3,0.8954305 3,2 C3,3.1045695 2.1045695,4 1,4 Z" id="Path"></path>
                </g>
            </g>
        </g>
    </g>
</svg>