<?xml version="1.0" encoding="UTF-8"?>
<svg width="24px" height="24px" viewBox="0 0 24 24" version="1.1" xmlns="http://www.w3.org/2000/svg" xmlns:xlink="http://www.w3.org/1999/xlink">
    <!-- Generator: Sketch 51.3 (57544) - http://www.bohemiancoding.com/sketch -->
    <title>List_24x24</title>
    <desc>Created with Sketch.</desc>
    <defs></defs>
    <g id="List_24x24" stroke="none" stroke-width="1" fill="none" fill-rule="evenodd">
        <g id="Group" transform="translate(2.000000, 0.000000)" fill="#000000" fill-rule="nonzero">
            <path d="M8.0025,8 L15.0025,8 L15.0025,10 L8.0025,10 L8.0025,8 Z M5,8 L7,8 L7,10 L5,10 L5,8 Z M8.0025,12 L15.0025,12 L15.0025,14 L8.0025,14 L8.0025,12 Z M5,12 L7,12 L7,14 L5,14 L5,12 Z M8.0025,16 L15.0025,16 L15.0025,18 L8.0025,18 L8.0025,16 Z M5,16 L7,16 L7,18 L5,18 L5,16 Z" id="Combined-Shape"></path>
            <path d="M18,4 L2,4 L2,21 L18,21 L18,4 Z M20,4 L20,21 C20,22.1045695 19.1045695,23 18,23 L2,23 C0.8954305,23 0,22.1045695 0,21 L0,4 C-2.22044605e-16,2.8954305 0.8954305,2 2,2 L18,2 C19.1045695,2 20,2.8954305 20,4 Z" id="Rectangle-26"></path>
            <path d="M6,0 C6.55228475,-1.01453063e-16 7,0.44771525 7,1 L7,5 C7,5.55228475 6.55228475,6 6,6 C5.44771525,6 5,5.55228475 5,5 L5,1 C5,0.44771525 5.44771525,1.01453063e-16 6,0 Z M10,0 C10.5522847,-1.01453063e-16 11,0.44771525 11,1 L11,5 C11,5.55228475 10.5522847,6 10,6 C9.44771525,6 9,5.55228475 9,5 L9,1 C9,0.44771525 9.44771525,1.01453063e-16 10,0 Z M14,0 C14.5522847,-1.01453063e-16 15,0.44771525 15,1 L15,5 C15,5.55228475 14.5522847,6 14,6 C13.4477153,6 13,5.55228475 13,5 L13,1 C13,0.44771525 13.4477153,1.01453063e-16 14,0 Z" id="Combined-Shape"></path>
        </g>
    </g>
</svg>