<?xml version="1.0" encoding="UTF-8"?>
<svg width="56px" height="56px" viewBox="0 0 56 56" version="1.1" xmlns="http://www.w3.org/2000/svg" xmlns:xlink="http://www.w3.org/1999/xlink">
    <!-- Generator: Sketch 55.2 (78181) - https://sketchapp.com -->
    <title>Low-in-stock / 56x56@1x</title>
    <desc>Created with Sketch.</desc>
    <defs>
        <circle id="path-1" cx="28" cy="28" r="28"></circle>
        <circle id="path-3" cx="28" cy="28" r="28"></circle>
        <linearGradient x1="50%" y1="0%" x2="50%" y2="100%" id="linearGradient-5">
            <stop stop-color="#FFA39E" stop-opacity="0.4" offset="0%"></stop>
            <stop stop-color="#FFA39E" stop-opacity="0" offset="100%"></stop>
        </linearGradient>
        <linearGradient x1="0%" y1="74.9134948%" x2="100%" y2="25.0865052%" id="linearGradient-6">
            <stop stop-color="#FFFFFF" stop-opacity="0.8" offset="0%"></stop>
            <stop stop-color="#EEF2F5" offset="100%"></stop>
        </linearGradient>
        <linearGradient x1="0%" y1="37.5%" x2="100%" y2="62.5%" id="linearGradient-7">
            <stop stop-color="#FFA39E" stop-opacity="0.4" offset="0%"></stop>
            <stop stop-color="#E14D4C" offset="100%"></stop>
        </linearGradient>
        <path d="M0,10 L0,0 L4,0 L4,10 L0,10 Z M0,13 C-1.3527075e-16,11.8954305 0.8954305,11 2,11 C3.1045695,11 4,11.8954305 4,13 C4,14.1045695 3.1045695,15 2,15 C0.8954305,15 1.3527075e-16,14.1045695 0,13 Z" id="path-8"></path>
    </defs>
    <g id="Low-in-stock-/-56x56" stroke="none" stroke-width="1" fill="none" fill-rule="evenodd">
        <g id="Low-in-stock">
            <g id="Tooltip">
                <g id="Rectangle">
                    <mask id="mask-2" fill="white">
                        <use xlink:href="#path-1"></use>
                    </mask>
                    <use id="Mask" fill="#FFFFFF" xlink:href="#path-1"></use>
                    <mask id="mask-4" fill="white">
                        <use xlink:href="#path-3"></use>
                    </mask>
                    <use id="Mask" fill-opacity="0.4" fill="#FFA39E" xlink:href="#path-3"></use>
                    <circle id="Oval-2" fill="url(#linearGradient-5)" mask="url(#mask-4)" cx="28" cy="28" r="16"></circle>
                    <g id="Warehouse" mask="url(#mask-4)">
                        <g transform="translate(9.000000, 26.000000)">
                            <rect id="Rectangle" fill="#FFFFFF" x="20" y="6" width="18" height="12"></rect>
                            <rect id="Rectangle" fill="#EEF2F5" x="0" y="6" width="20" height="12"></rect>
                            <polygon id="Rectangle" fill="url(#linearGradient-6)" points="3 6 20 6 20 18 8 18"></polygon>
                            <rect id="Rectangle" fill="#AFC7D1" x="3" y="9" width="2" height="4"></rect>
                            <rect id="Rectangle" fill="#AFC7D1" x="7" y="9" width="2" height="4"></rect>
                            <rect id="Rectangle" fill="#AFC7D1" x="15" y="9" width="2" height="4"></rect>
                            <rect id="Rectangle" fill="#AFC7D1" x="11" y="9" width="2" height="4"></rect>
                            <polygon id="Triangle" fill="#FFFFFF" points="29 0 38 6 20 6"></polygon>
                            <polygon id="Triangle" fill="#AFC7D1" points="9 8.21565038e-14 29 8.21565038e-14 20.000625 6.00125 -1.42108547e-14 6"></polygon>
                            <rect id="Rectangle" fill="#E14D4C" x="24" y="14" width="10" height="4"></rect>
                            <rect id="Rectangle" fill="url(#linearGradient-7)" x="26" y="14" width="8" height="4"></rect>
                        </g>
                    </g>
                    <g id="Group-12" mask="url(#mask-4)" fill-rule="nonzero">
                        <g transform="translate(26.000000, 9.000000)" id="path-1">
                            <g>
                                <use fill="#FFFFFF" xlink:href="#path-8"></use>
                                <use fill-opacity="0.9" fill="#E14D4C" xlink:href="#path-8"></use>
                            </g>
                        </g>
                    </g>
                    <path d="M38,34 C36.8954305,34 36,33.1045695 36,32 C36,30.8954305 36.8954305,30 38,30 C39.1045695,30 40,30.8954305 40,32 C40,33.1045695 39.1045695,34 38,34 Z" id="Oval-9" fill-opacity="0.4" fill="#AFC7D1" mask="url(#mask-4)"></path>
                </g>
            </g>
        </g>
    </g>
</svg>