<?xml version="1.0" encoding="UTF-8"?>
<svg width="56px" height="56px" viewBox="0 0 56 56" version="1.1" xmlns="http://www.w3.org/2000/svg" xmlns:xlink="http://www.w3.org/1999/xlink">
    <!-- Generator: Sketch 55.2 (78181) - https://sketchapp.com -->
    <title>Money / 56x56@1x</title>
    <desc>Created with Sketch.</desc>
    <defs>
        <circle id="path-1" cx="28" cy="28" r="28"></circle>
        <linearGradient x1="0%" y1="21.6273101%" x2="100%" y2="78.3726899%" id="linearGradient-3">
            <stop stop-color="#92F1D3" offset="0%"></stop>
            <stop stop-color="#2EE3AA" offset="100%"></stop>
        </linearGradient>
        <linearGradient x1="143.582203%" y1="105.007652%" x2="-4.09963516%" y2="10.1218209%" id="linearGradient-4">
            <stop stop-color="#1ACC94" offset="0%"></stop>
            <stop stop-color="#1ACC94" stop-opacity="0" offset="100%"></stop>
        </linearGradient>
        <path d="M6.18181818,6.16036866 C6.18181818,7.4875576 5.33101045,8.40552995 3.78017105,8.59354839 L3.78017105,9.00228065 C3.78017105,9.33239193 3.51256298,9.6 3.18245169,9.6 C2.85234041,9.6 2.58473234,9.33239193 2.58473234,9.00228065 L2.58473234,8.59354839 C1.44314222,8.48294931 0.613873931,8.06267281 0,7.45437788 L0.980044346,6.02764977 C1.49699081,6.55852535 2.29394995,7.00092166 3.2739943,7.00092166 C3.90940767,7.00092166 4.29711752,6.72442396 4.29711752,6.37050691 C4.29711752,5.95023041 3.83401964,5.7843318 3.06936965,5.61843318 C1.88470067,5.37511521 0.22616408,5.06543779 0.22616408,3.31797235 C0.22616408,2.20092166 1.06620209,1.21658986 2.58473234,1.03963134 L2.58473234,0.597719354 C2.58473234,0.26760807 2.85234041,6.06404591e-17 3.18245169,0 C3.51256298,-6.06404591e-17 3.78017105,0.26760807 3.78017105,0.597719354 L3.78017105,1.05069124 C4.6417485,1.16129032 5.40639848,1.50414747 6.00950269,2.03502304 L4.99714919,3.39539171 C4.39404498,2.88663594 3.60785556,2.63225806 2.97244219,2.63225806 C2.35856826,2.63225806 2.12163446,2.88663594 2.12163446,3.20737327 C2.12163446,3.59447005 2.5631929,3.72718894 3.36015204,3.88202765 C4.54482103,4.13640553 6.18181818,4.49032258 6.18181818,6.16036866 Z" id="path-5"></path>
        <linearGradient x1="0%" y1="23.7400692%" x2="-9.54589844%" y2="211.790921%" id="linearGradient-7">
            <stop stop-color="#92F1D3" offset="0%"></stop>
            <stop stop-color="#2EE3AA" offset="100%"></stop>
        </linearGradient>
        <linearGradient x1="26.1994803%" y1="0%" x2="73.8005197%" y2="100%" id="linearGradient-8">
            <stop stop-color="#1ACC94" offset="0%"></stop>
            <stop stop-color="#2EE3AA" offset="100%"></stop>
        </linearGradient>
    </defs>
    <g id="Money-/-56x56" stroke="none" stroke-width="1" fill="none" fill-rule="evenodd">
        <g id="GMV">
            <mask id="mask-2" fill="white">
                <use xlink:href="#path-1"></use>
            </mask>
            <use id="Mask" fill-opacity="0" fill="#92F1D3" xlink:href="#path-1"></use>
            <path d="M23.4969858,21.4 C27.1030464,21.4 30.1939555,21.4 32.7697131,21.4 C43.6655734,34.1080913 47.271634,42.6414247 43.5878949,47 C38.4706519,47 20.4060767,47 12.678804,47 C7.32073823,40.6603726 15.8360924,30.4643176 23.4969858,21.4 Z" id="Rectangle" fill="url(#linearGradient-3)" fill-rule="nonzero" mask="url(#mask-2)"></path>
            <path d="M28.7727273,39.5523437 C25.5443341,41.5577456 20.1644802,44.0221377 12.6331654,46.9455199 C7.36944497,40.6020609 15.8580086,30.4383938 23.496992,21.4 L32.7697193,21.4 C35.5085177,24.5943233 37.7867281,27.5248748 39.6043504,30.1916545 C35.1484718,34.7144347 31.5379307,37.8346644 28.7727273,39.5523437 Z" id="Shape" fill="url(#linearGradient-4)" fill-rule="nonzero" mask="url(#mask-2)"></path>
            <ellipse id="Oval-2" fill="#FFFFFF" mask="url(#mask-2)" cx="28" cy="35" rx="9.27272727" ry="8.8"></ellipse>
            <g id="Group" mask="url(#mask-2)">
                <g transform="translate(24.909091, 30.200000)">
                    <g>
                        <mask id="mask-6" fill="white">
                            <use xlink:href="#path-5"></use>
                        </mask>
                        <use id="$" fill="#1ACC94" xlink:href="#path-5"></use>
                    </g>
                </g>
            </g>
            <path d="M23.4071473,18.2 L32.5928527,18.2 C33.4704141,18.2 34.1818182,18.9114041 34.1818182,19.7889655 L34.1818182,19.8110345 C34.1818182,20.6885959 33.4704141,21.4 32.5928527,21.4 L23.4071473,21.4 C22.5295859,21.4 21.8181818,20.6885959 21.8181818,19.8110345 L21.8181818,19.7889655 C21.8181818,18.9114041 22.5295859,18.2 23.4071473,18.2 Z" id="Rectangle" fill="#FFD560" fill-rule="nonzero" mask="url(#mask-2)"></path>
            <polygon id="Rectangle" fill="url(#linearGradient-7)" fill-rule="nonzero" mask="url(#mask-2)" points="20.2727273 8.6 28 7 35.7272727 8.6 32.6363636 18.2 23.3636364 18.2"></polygon>
            <polygon id="Rectangle" fill="#92F1D3" fill-rule="nonzero" mask="url(#mask-2)" transform="translate(21.045455, 14.200000) scale(-1, 1) translate(-21.045455, -14.200000) " points="21.0454545 10.2 23.3636364 11 18.7272727 18.2"></polygon>
            <polygon id="Rectangle" fill="#1ACC94" fill-rule="nonzero" mask="url(#mask-2)" points="34.9545455 10.2 37.2727273 11 32.6363636 18.2"></polygon>
            <polygon id="Path" fill="url(#linearGradient-8)" fill-rule="nonzero" opacity="0.4" mask="url(#mask-2)" points="28 7 35.7272727 8.6 32.6363636 18.2 28 18.2"></polygon>
            <path d="M28.1256762,20.2034654 C28.1853001,19.7659709 28.5762035,19.4613522 28.9987834,19.5230805 C29.4213633,19.5848088 29.7155973,19.9895089 29.6559733,20.4270034 C29.6488099,20.4795654 29.6366636,20.5909557 29.6240828,20.7524563 C29.5341373,21.9070914 29.598237,23.2107495 29.9269235,24.4214912 C30.2455285,25.595097 30.7826207,26.5319884 31.568241,27.1708838 C31.9038473,27.4438113 31.9622013,27.9467276 31.6985782,28.2941789 C31.434955,28.6416302 30.9491835,28.7020437 30.6135772,28.4291162 C29.5440127,27.5593069 28.8400751,26.3313744 28.4391153,24.8544083 C28.0530628,23.4323547 27.9802331,21.9511453 28.0836299,20.6238356 C28.0987754,20.4294123 28.1143554,20.2865324 28.1256762,20.2034654 Z" id="Path-9" fill="#FFD560" fill-rule="nonzero" mask="url(#mask-2)"></path>
            <path d="M29.8257498,20.8573944 C29.6890662,20.4388405 29.9059999,19.9848208 30.3102849,19.843313 C30.7145699,19.7018053 31.1531117,19.9263955 31.2897953,20.3449494 C32.0493633,22.6709056 33.7271888,23.8 36.5,23.8 C36.9267655,23.8 37.2727273,24.1581722 37.2727273,24.6 C37.2727273,25.0418278 36.9267655,25.4 36.5,25.4 C33.090993,25.4 30.8073335,23.863209 29.8257498,20.8573944 Z" id="Path-11" fill="#FFD560" fill-rule="nonzero" mask="url(#mask-2)"></path>
        </g>
    </g>
</svg>