<?xml version="1.0" encoding="UTF-8"?>
<svg width="40px" height="40px" viewBox="0 0 40 40" version="1.1" xmlns="http://www.w3.org/2000/svg" xmlns:xlink="http://www.w3.org/1999/xlink">
    <!-- Generator: Sketch 55.2 (78181) - https://sketchapp.com -->
    <title>Money / 40x40@1x</title>
    <desc>Created with Sketch.</desc>
    <defs>
        <linearGradient x1="0%" y1="22.4161843%" x2="100%" y2="77.5838157%" id="linearGradient-1">
            <stop stop-color="#92F1D3" offset="0%"></stop>
            <stop stop-color="#2EE3AA" offset="100%"></stop>
        </linearGradient>
        <linearGradient x1="143.582203%" y1="103.478219%" x2="-4.09963516%" y2="11.2305938%" id="linearGradient-2">
            <stop stop-color="#1ACC94" offset="0%"></stop>
            <stop stop-color="#1ACC94" stop-opacity="0" offset="100%"></stop>
        </linearGradient>
        <linearGradient x1="0%" y1="24.4702003%" x2="-9.54589844%" y2="207.292487%" id="linearGradient-3">
            <stop stop-color="#92F1D3" offset="0%"></stop>
            <stop stop-color="#2EE3AA" offset="100%"></stop>
        </linearGradient>
        <linearGradient x1="25.5188052%" y1="0%" x2="74.4811948%" y2="100%" id="linearGradient-4">
            <stop stop-color="#1ACC94" offset="0%"></stop>
            <stop stop-color="#2EE3AA" offset="100%"></stop>
        </linearGradient>
    </defs>
    <g id="Money-/-40x40" stroke="none" stroke-width="1" fill="none" fill-rule="evenodd">
        <g id="Oval-2">
            <g id="path-1-link" fill="#FFFFFF" fill-rule="nonzero">
                <circle id="path-1" cx="20" cy="20" r="20"></circle>
            </g>
            <g id="path-1-link">
                <circle id="path-1" fill="#FFFFFF" cx="20" cy="20" r="20"></circle>
                <circle id="path-1" fill-opacity="0.4" fill="#92F1D3" cx="20" cy="20" r="20"></circle>
            </g>
        </g>
        <g id="Group-4" transform="translate(8.000000, 5.000000)">
            <path d="M9.18896013,10.44 C11.8404753,10.44 14.1132026,10.44 16.007142,10.44 C24.0188039,19.6533662 26.6703191,25.8400329 23.9616874,29 C20.1990087,29 6.91623286,29 1.23441468,29 C-2.70533954,24.4037702 3.55595028,17.0116302 9.18896013,10.44 Z" id="Rectangle" fill="url(#linearGradient-1)" fill-rule="nonzero"></path>
            <path d="M13.0681818,23.6004492 C10.6943633,25.0543656 6.73858835,26.8410498 1.20085694,28.9605019 C-2.66952575,24.3614941 3.57206516,16.9928355 9.18896471,10.44 L16.0071465,10.44 C18.0209689,12.7558844 19.6961236,14.8805342 21.0326106,16.8139495 C17.7562292,20.0929651 15.1014197,22.3551317 13.0681818,23.6004492 Z" id="Shape" fill="url(#linearGradient-2)" fill-rule="nonzero"></path>
            <ellipse id="Oval-2" fill="#FFFFFF" cx="12.8181818" cy="20.38" rx="6.81818182" ry="6.38"></ellipse>
            <path d="M12.4009506,20.993945 L15.1413384,18.3108734 C15.5604093,17.9005675 16.2447942,17.8958034 16.6699548,18.3002324 C16.6732136,18.3033323 16.676452,18.3064521 16.6796697,18.3095917 C17.1063659,18.7259229 17.1068356,19.3959841 16.6807235,19.8128721 L12.4009506,24 L9.32005716,20.993945 C8.89331428,20.5775682 8.89331428,19.9072944 9.32005716,19.4909176 C9.74079761,19.0803974 10.4267159,19.0767657 10.8520985,19.4828059 C10.8549156,19.4854949 10.8577175,19.4881989 10.8605039,19.4909176 L12.4009506,20.993945 Z" id="Path" fill="#1ACC94" fill-rule="nonzero"></path>
            <path d="M9.10654545,8.12 L15.8934545,8.12 C16.5296866,8.12 17.0454545,8.63576797 17.0454545,9.272 L17.0454545,9.288 C17.0454545,9.92423203 16.5296866,10.44 15.8934545,10.44 L9.10654545,10.44 C8.47031342,10.44 7.95454545,9.92423203 7.95454545,9.288 L7.95454545,9.272 C7.95454545,8.63576797 8.47031342,8.12 9.10654545,8.12 Z" id="Rectangle" fill="#FFD560" fill-rule="nonzero"></path>
            <polygon id="Rectangle" fill="url(#linearGradient-3)" fill-rule="nonzero" points="6.81818182 1.16 12.5 2.3170188e-13 18.1818182 1.16 15.9090909 8.12 9.09090909 8.12"></polygon>
            <polygon id="Rectangle" fill="#92F1D3" fill-rule="nonzero" transform="translate(7.386364, 5.220000) scale(-1, 1) translate(-7.386364, -5.220000) " points="7.38636364 2.32 9.09090909 2.9 5.68181818 8.12"></polygon>
            <polygon id="Rectangle" fill="#1ACC94" fill-rule="nonzero" points="17.6136364 2.32 19.3181818 2.9 15.9090909 8.12"></polygon>
            <polygon id="Path" fill="url(#linearGradient-4)" fill-rule="nonzero" opacity="0.4" points="12.5 2.84217094e-14 18.1818182 1.16 15.9090909 8.12 12.5 8.12"></polygon>
            <path d="M12.5924089,9.57251241 C12.6362501,9.25532891 12.9236791,9.03448037 13.2343996,9.07923339 C13.5451201,9.12398641 13.7614686,9.41739393 13.7176275,9.73457743 C13.7123602,9.77268488 13.7034291,9.85344289 13.6941785,9.97053079 C13.6280421,10.8076413 13.6751743,11.7527934 13.9168555,12.6305811 C14.1511239,13.4814454 14.5460447,14.1606916 15.1237066,14.6238907 C15.370476,14.8217632 15.4133833,15.1863775 15.2195428,15.4382797 C15.0257022,15.6901819 14.6685173,15.7339817 14.4217479,15.5361093 C13.6353035,14.9054975 13.1177023,14.0152464 12.8228789,12.944446 C12.5390168,11.9134571 12.4854655,10.8395803 12.5614926,9.87728081 C12.572629,9.73632394 12.5840848,9.63273599 12.5924089,9.57251241 Z" id="Path-9" fill="#FFD560" fill-rule="nonzero"></path>
            <path d="M13.8424631,10.0466109 C13.7419604,9.74315934 13.9014705,9.41399507 14.1987389,9.31140194 C14.4960073,9.20880881 14.8184645,9.37163675 14.9189671,9.67508831 C15.477473,11.3614066 16.7111683,12.18 18.75,12.18 C19.0637982,12.18 19.3181818,12.4396748 19.3181818,12.76 C19.3181818,13.0803252 19.0637982,13.34 18.75,13.34 C16.2433772,13.34 14.5642158,12.2258265 13.8424631,10.0466109 Z" id="Path-11" fill="#FFD560" fill-rule="nonzero"></path>
        </g>
    </g>
</svg>