<?xml version="1.0" encoding="UTF-8"?>
<svg width="24px" height="24px" viewBox="0 0 24 24" version="1.1" xmlns="http://www.w3.org/2000/svg" xmlns:xlink="http://www.w3.org/1999/xlink">
    <!-- Generator: Sketch 55.2 (78181) - https://sketchapp.com -->
    <title>Package / 24x24@1x</title>
    <desc>Created with Sketch.</desc>
    <g id="Package-/-24x24" stroke="none" stroke-width="1" fill="none" fill-rule="evenodd">
        <g id="Group" fill-rule="nonzero">
            <circle id="Oval" fill="#CEF2FD" cx="12" cy="12" r="12"></circle>
            <path d="M6,4 L18,4 C19.1045695,4 20,4.8954305 20,6 L20,18 C20,19.1045695 19.1045695,20 18,20 L6,20 C4.8954305,20 4,19.1045695 4,18 L4,6 C4,4.8954305 4.8954305,4 6,4 Z M6,6 L6,18 L18,18 L18,6 L6,6 Z" id="Rectangle" fill="#326BEE"></path>
            <polygon id="Path" fill="#FFFFFF" points="6 6 6 18 18 18 18 6"></polygon>
            <polygon id="Path" fill="#326BEE" points="9 6 9 10.72 12 10 15 10.72 15 6"></polygon>
            <polygon id="Path" fill="#8BDCFB" points="13 15 17 15 17 17 13 17"></polygon>
        </g>
    </g>
</svg>