<?xml version="1.0" encoding="UTF-8"?>
<svg width="40px" height="40px" viewBox="0 0 40 40" version="1.1" xmlns="http://www.w3.org/2000/svg" xmlns:xlink="http://www.w3.org/1999/xlink">
    <!-- Generator: Sketch 55.2 (78181) - https://sketchapp.com -->
    <title>ProductBoost / 40x40@1x</title>
    <desc>Created with Sketch.</desc>
    <defs>
        <circle id="path-1" cx="20" cy="20" r="20"></circle>
        <linearGradient x1="50%" y1="0%" x2="50%" y2="100%" id="linearGradient-3">
            <stop stop-color="#8BDCFB" stop-opacity="0.24" offset="0%"></stop>
            <stop stop-color="#8BDCFB" offset="100%"></stop>
        </linearGradient>
        <linearGradient x1="50%" y1="0%" x2="50%" y2="100%" id="linearGradient-4">
            <stop stop-color="#EEF2F5" stop-opacity="0.5" offset="0%"></stop>
            <stop stop-color="#FFFFFF" offset="100%"></stop>
        </linearGradient>
        <linearGradient x1="50%" y1="0%" x2="50%" y2="100%" id="linearGradient-5">
            <stop stop-color="#FFE380" offset="0%"></stop>
            <stop stop-color="#FFE380" offset="100%"></stop>
        </linearGradient>
        <linearGradient x1="50%" y1="100%" x2="50%" y2="0%" id="linearGradient-6">
            <stop stop-color="#FFD560" offset="0%"></stop>
            <stop stop-color="#F0B616" offset="100%"></stop>
        </linearGradient>
        <linearGradient x1="100%" y1="0%" x2="50%" y2="100%" id="linearGradient-7">
            <stop stop-color="#FFFFFF" offset="0%"></stop>
            <stop stop-color="#F8FAFB" offset="100%"></stop>
        </linearGradient>
        <linearGradient x1="0%" y1="0%" x2="100%" y2="100%" id="linearGradient-8">
            <stop stop-color="#FFFFFF" offset="0%"></stop>
            <stop stop-color="#F8FAFB" offset="100%"></stop>
            <stop stop-color="#F8FAFB" offset="100%"></stop>
        </linearGradient>
        <linearGradient x1="50%" y1="0%" x2="50%" y2="100%" id="linearGradient-9">
            <stop stop-color="#2F88EC" offset="0%"></stop>
            <stop stop-color="#2FB7EC" offset="100%"></stop>
        </linearGradient>
        <linearGradient x1="100%" y1="0%" x2="100%" y2="100%" id="linearGradient-10">
            <stop stop-color="#FFA39E" offset="0%"></stop>
            <stop stop-color="#E14D4C" offset="100%"></stop>
        </linearGradient>
    </defs>
    <g id="ProductBoost-/-40x40" stroke="none" stroke-width="1" fill="none" fill-rule="evenodd">
        <g id="ProductBoost-balance">
            <mask id="mask-2" fill="white">
                <use xlink:href="#path-1"></use>
            </mask>
            <use id="Mask" fill="#8BDCFB" fill-rule="nonzero" xlink:href="#path-1"></use>
            <rect id="Rectangle" fill="url(#linearGradient-3)" fill-rule="nonzero" mask="url(#mask-2)" x="12" y="24.8888889" width="16" height="16.8888889"></rect>
            <circle id="Oval" fill="#EEF2F5" fill-rule="nonzero" mask="url(#mask-2)" cx="35.1111111" cy="31.1111111" r="1.77777778"></circle>
            <circle id="Oval" fill="#FFFFFF" fill-rule="nonzero" mask="url(#mask-2)" cx="34.2222222" cy="33.7777778" r="1.77777778"></circle>
            <circle id="Oval" fill="#EEF2F5" fill-rule="nonzero" mask="url(#mask-2)" cx="4.88888889" cy="31.1111111" r="1.77777778"></circle>
            <circle id="Oval" fill="#FFFFFF" fill-rule="nonzero" mask="url(#mask-2)" cx="5.77777778" cy="32.8888889" r="1.77777778"></circle>
            <g id="Group" mask="url(#mask-2)" fill-rule="nonzero">
                <g transform="translate(5.777778, 26.666667)">
                    <polygon id="Rectangle" fill="url(#linearGradient-4)" points="10.6666667 0.888888889 17.7777778 0.888888889 21.3333333 14.2222222 7.11111111 14.2222222"></polygon>
                    <circle id="Oval" fill="#FFFFFF" cx="9.77777778" cy="15.1111111" r="3.55555556"></circle>
                    <circle id="Oval" fill="#FFFFFF" cx="19.5555556" cy="15.1111111" r="3.55555556"></circle>
                    <circle id="Oval" fill="#F8FAFB" cx="14.2222222" cy="19.5555556" r="14.2222222"></circle>
                    <path d="M14.2222222,7.11111111 C11.2222222,4.18628019 11.6944444,2.13333333 12.4444444,0 L16,0 C16.75,2.13333333 17.2222222,4.18628019 14.2222222,7.11111111 Z" id="Path" fill="url(#linearGradient-5)"></path>
                    <path d="M14.2222222,0 C15.4074074,1.32659933 15.4074074,2.51178451 14.2222222,3.55555556 C13.037037,2.50953984 13.037037,1.32435466 14.2222222,0 Z" id="Shape" fill="url(#linearGradient-6)"></path>
                    <circle id="Oval" fill="url(#linearGradient-7)" cx="23.1111111" cy="6.22222222" r="5.33333333"></circle>
                    <circle id="Oval" fill="url(#linearGradient-8)" cx="5.33333333" cy="6.22222222" r="5.33333333"></circle>
                </g>
            </g>
            <g id="Group-2" mask="url(#mask-2)" fill-rule="nonzero">
                <g transform="translate(12.000000, 0.000000)">
                    <path d="M12.4444444,16.8888889 L16,21.4111894 L16,25.7777778 L12.4444444,23.1111111 L12.4444444,16.8888889 Z M3.55555556,16.8888889 L-1.42108547e-14,21.4111894 L-1.42108547e-14,25.7777778 L3.55555556,23.1111111 L3.55555556,16.8888889 Z" id="Shape" stroke="none" fill="#E14D4C"></path>
                    <path d="M13.3296441,8 C14.4831904,10.8778935 14.2379433,16.2715268 12.5939028,24.1808999 C12.5081832,24.5932805 12.1448113,24.8888889 11.7236158,24.8888889 L4.27637928,24.8888889 C3.85518617,24.8888875 3.49181553,24.5932827 3.40609514,24.1809046 C1.7619852,16.271529 1.51550904,10.8778941 2.66666667,8 C5.50238715,8 9.77777778,8 13.3296441,8 Z" id="Shape" stroke="none" fill="#FFFFFF"></path>
                    <path d="M2.66666667,8 C3.84780093,8 5.6255787,8 8,8 L8,24.8888889 L4.27637928,24.8888889 C3.85518617,24.8888875 3.49181553,24.5932827 3.40609514,24.1809046 C1.7619852,16.271529 1.51550904,10.8778941 2.66666667,8 Z" id="Rectangle" stroke="none" fill="#EEF2F5"></path>
                    <polygon id="Path" stroke="none" fill="#E14D4C" points="4.44444444 24.8895056 3.55555556 27.5555556 12.4444444 27.5555556 11.5555556 24.8888889"></polygon>
                    <circle id="Oval" stroke="url(#linearGradient-9)" stroke-width="0.888888889" fill="#8BDCFB" cx="8" cy="12.4444444" r="2.22222222"></circle>
                    <path d="M8,-1.59872116e-14 C6.22482639,-1.59872116e-14 3.55555556,6.22097439 2.66666667,8 C5.01967593,8 6.7974537,8 8,8 C9.16782407,8 10.9456019,8 13.3333333,8 C12.4444444,6.22097439 9.77777778,-1.59872116e-14 8,-1.59872116e-14 Z" id="Shape" stroke="none" fill="url(#linearGradient-10)"></path>
                </g>
            </g>
        </g>
    </g>
</svg>