<?xml version="1.0" encoding="UTF-8"?>
<svg width="24px" height="24px" viewBox="0 0 24 24" version="1.1" xmlns="http://www.w3.org/2000/svg" xmlns:xlink="http://www.w3.org/1999/xlink">
    <!-- Generator: Sketch 51.3 (57544) - http://www.bohemiancoding.com/sketch -->
    <title>Security / 24x24 / black</title>
    <desc>Created with Sketch.</desc>
    <defs></defs>
    <g id="Security-/-24x24-/-black" stroke="none" stroke-width="1" fill="none" fill-rule="evenodd">
        <path d="M11.9999978,20.8312472 C16.8641878,18.6849129 18.8635886,15.5747741 18.9932177,7.8301379 C16.7313615,5.6365568 15.019952,4.42770827 12.0126093,3.16473925 C9.03142002,4.45912544 7.14804381,5.77457067 5.0068255,7.83271371 C5.13685472,15.5754627 7.13635078,18.6851503 11.9999978,20.8312472 Z M3.00000002,7 C5,5 7.31460822,2.91666667 12,1 C16.8384177,2.91666667 19,5 21,7 C21,18 17,21 11.9999974,23 C7,21 3,18 3.00000002,7 Z" id="base" fill="#000000" fill-rule="nonzero"></path>
        <path d="M9,10 L9,8 C9,7.44771525 9.44771525,7 10,7 L14,7 C14.5522847,7 15,7.44771525 15,8 L15,10 L16,10 L16,16 L8,16 L8,10 L9,10 Z M12,12 C11.4477153,12 11,12.4477153 11,13 L11,13.00125 C11,13.5535347 11.4477153,14.00125 12,14.00125 L12.00125,14.00125 C12.5535347,14.00125 13.00125,13.5535347 13.00125,13.00125 L13.00125,13 C13.00125,12.4477153 12.5535347,12 12.00125,12 L12,12 Z M11,9 L11,10 L13,10 L13,9 L11,9 Z" id="Combined-Shape" fill="#000000" fill-rule="nonzero"></path>
    </g>
</svg>