<?xml version="1.0" encoding="UTF-8"?>
<svg width="24px" height="24px" viewBox="0 0 24 24" version="1.1" xmlns="http://www.w3.org/2000/svg" xmlns:xlink="http://www.w3.org/1999/xlink">
    <!-- Generator: Sketch 51.3 (57544) - http://www.bohemiancoding.com/sketch -->
    <title>Ship / 24x24 / black</title>
    <desc>Created with Sketch.</desc>
    <defs></defs>
    <g id="Ship-/-24x24-/-black" stroke="none" stroke-width="1" fill="none" fill-rule="evenodd">
        <path d="M4,6 L4,13 L14,13 L14,6 L4,6 Z M20,17 C20,18.6568542 18.6568542,20 17,20 C15.3431458,20 14,18.6568542 14,17 L10,17 C10,18.6568542 8.65685425,20 7,20 C5.34314575,20 4,18.6568542 4,17 L2,17 L2,4 L16,4 L16,7 L20,7 L22,9 L22,17 L20,17 Z M17,18 C17.5522847,18 18,17.5522847 18,17 C18,16.4477153 17.5522847,16 17,16 C16.4477153,16 16,16.4477153 16,17 C16,17.5522847 16.4477153,18 17,18 Z M7,18 C7.55228475,18 8,17.5522847 8,17 C8,16.4477153 7.55228475,16 7,16 C6.44771525,16 6,16.4477153 6,17 C6,17.5522847 6.44771525,18 7,18 Z M16,9 L16,11 L20,11 L20,10 L19,9 L16,9 Z" id="Combined-Shape" fill="#000000" fill-rule="nonzero"></path>
    </g>
</svg>