<?xml version="1.0" encoding="UTF-8"?>
<svg width="56px" height="56px" viewBox="0 0 56 56" version="1.1" xmlns="http://www.w3.org/2000/svg" xmlns:xlink="http://www.w3.org/1999/xlink">
    <!-- Generator: Sketch 55.2 (78181) - https://sketchapp.com -->
    <title>Status / 56x56 / silver@1x</title>
    <desc>Created with Sketch.</desc>
    <defs>
        <circle id="path-1" cx="28" cy="28" r="28"></circle>
        <circle id="path-3" cx="28" cy="28" r="28"></circle>
        <linearGradient x1="50%" y1="0%" x2="100%" y2="94.7509766%" id="linearGradient-5">
            <stop stop-color="#AFC7D1" offset="0%"></stop>
            <stop stop-color="#7790A3" stop-opacity="0.8" offset="100%"></stop>
        </linearGradient>
        <linearGradient x1="13.2653061%" y1="100%" x2="79.3790856%" y2="15.4471261%" id="linearGradient-6">
            <stop stop-color="#E6F7FF" offset="0%"></stop>
            <stop stop-color="#FFFFFF" offset="100%"></stop>
        </linearGradient>
        <path d="M1.10557281,5.4472136 L11.1055728,0.447213595 C11.6686278,0.165686105 12.3313722,0.165686105 12.8944272,0.447213595 L22.8944272,5.4472136 C23.5719952,5.78599762 24,6.47852386 24,7.23606798 L24,20.763932 C24,21.5214761 23.5719952,22.2140024 22.8944272,22.5527864 L12.8944272,27.5527864 C12.3313722,27.8343139 11.6686278,27.8343139 11.1055728,27.5527864 L1.10557281,22.5527864 C0.428004752,22.2140024 -7.82836505e-13,21.5214761 -7.85149723e-13,20.763932 L-7.85149723e-13,7.23606798 C-7.84798406e-13,6.47852386 0.428004752,5.78599762 1.10557281,5.4472136 Z" id="path-7"></path>
        <linearGradient x1="0%" y1="92.0138889%" x2="50%" y2="37.2977363%" id="linearGradient-9">
            <stop stop-color="#AFC7D1" stop-opacity="0.8" offset="0%"></stop>
            <stop stop-color="#AFC7D1" stop-opacity="0.2" offset="100%"></stop>
        </linearGradient>
        <linearGradient x1="13.2653061%" y1="100%" x2="54.9894372%" y2="50%" id="linearGradient-10">
            <stop stop-color="#EEF2F5" offset="0%"></stop>
            <stop stop-color="#E6F7FF" offset="100%"></stop>
        </linearGradient>
        <linearGradient x1="13.2653061%" y1="100%" x2="98.8360969%" y2="11.7431641%" id="linearGradient-11">
            <stop stop-color="#AFC7D1" stop-opacity="0.8" offset="0%"></stop>
            <stop stop-color="#AFC7D1" stop-opacity="0.4" offset="100%"></stop>
        </linearGradient>
        <linearGradient x1="100%" y1="26.1473883%" x2="0%" y2="92.0138889%" id="linearGradient-12">
            <stop stop-color="#E6F7FF" offset="0%"></stop>
            <stop stop-color="#FFFFFF" offset="100%"></stop>
        </linearGradient>
        <rect id="path-13" x="12" y="12" width="32" height="3"></rect>
    </defs>
    <g id="Status-/-56x56-/-silver" stroke="none" stroke-width="1" fill="none" fill-rule="evenodd">
        <g id="Silver">
            <mask id="mask-2" fill="white">
                <use xlink:href="#path-1"></use>
            </mask>
            <use id="Mask" fill="#FFFFFF" xlink:href="#path-1"></use>
            <mask id="mask-4" fill="white">
                <use xlink:href="#path-3"></use>
            </mask>
            <use id="Mask" fill="#CEF2FD" xlink:href="#path-3"></use>
            <polygon id="Triangle" fill="url(#linearGradient-5)" mask="url(#mask-4)" transform="translate(28.000000, 28.000000) scale(1, -1) translate(-28.000000, -28.000000) " points="28 12 44 44 12 44"></polygon>
            <rect id="Rectangle" fill="#AFC7D1" mask="url(#mask-4)" x="23" y="15" width="10" height="11"></rect>
            <rect id="Rectangle" fill="#FFFFFF" mask="url(#mask-4)" x="26" y="15" width="4" height="11"></rect>
            <g id="Group-11" mask="url(#mask-4)">
                <g transform="translate(16.000000, 20.000000)" id="Rectangle">
                    <g stroke="none" stroke-width="1" fill="none" fill-rule="evenodd" transform="translate(-0.000000, 0.000000)">
                        <mask id="mask-8" fill="white">
                            <use xlink:href="#path-7"></use>
                        </mask>
                        <use id="Mask" fill="url(#linearGradient-6)" fill-rule="nonzero" xlink:href="#path-7"></use>
                        <polygon fill="url(#linearGradient-9)" fill-rule="nonzero" mask="url(#mask-8)" points="-7.90478794e-13 6 24 22 12 28 -7.90478794e-13 22 -7.90478794e-13 14"></polygon>
                    </g>
                    <path d="M5,9.38196601 L12,5.88196601 L19,9.38196601 L19,18.618034 L12,22.118034 L5,18.618034 L5,9.38196601 Z" stroke="url(#linearGradient-11)" stroke-width="2" fill="url(#linearGradient-10)" fill-rule="nonzero"></path>
                    <polygon stroke="none" fill="url(#linearGradient-12)" fill-rule="nonzero" points="6 10 12 7 18 10 18 14 18 18"></polygon>
                    <rect stroke="none" fill="#FFFFFF" fill-rule="evenodd" transform="translate(14.235959, 10.775536) rotate(26.000000) translate(-14.235959, -10.775536) " x="12.2359592" y="9.77553634" width="4" height="2" rx="1"></rect>
                </g>
            </g>
            <g id="Rectangle" mask="url(#mask-4)">
                <use fill="#FFFFFF" xlink:href="#path-13"></use>
                <use fill="#7790A3" xlink:href="#path-13"></use>
            </g>
        </g>
    </g>
</svg>