<?xml version="1.0" encoding="UTF-8"?>
<svg width="56px" height="56px" viewBox="0 0 56 56" version="1.1" xmlns="http://www.w3.org/2000/svg" xmlns:xlink="http://www.w3.org/1999/xlink">
    <!-- Generator: Sketch 55.2 (78181) - https://sketchapp.com -->
    <title>Status / 56x56 / gold@1x</title>
    <desc>Created with Sketch.</desc>
    <defs>
        <circle id="path-1" cx="28" cy="28" r="28"></circle>
        <circle id="path-3" cx="28" cy="28" r="28"></circle>
        <linearGradient x1="50%" y1="0%" x2="100%" y2="100%" id="linearGradient-5">
            <stop stop-color="#CEF2FD" offset="0%"></stop>
            <stop stop-color="#2FB7EC" offset="100%"></stop>
        </linearGradient>
        <path d="M1.10557281,5.4472136 L11.1055728,0.447213595 C11.6686278,0.165686105 12.3313722,0.165686105 12.8944272,0.447213595 L22.8944272,5.4472136 C23.5719952,5.78599762 24,6.47852386 24,7.23606798 L24,20.763932 C24,21.5214761 23.5719952,22.2140024 22.8944272,22.5527864 L12.8944272,27.5527864 C12.3313722,27.8343139 11.6686278,27.8343139 11.1055728,27.5527864 L1.10557281,22.5527864 C0.428004752,22.2140024 -7.82836505e-13,21.5214761 -7.85149723e-13,20.763932 L-7.85149723e-13,7.23606798 C-7.84798406e-13,6.47852386 0.428004752,5.78599762 1.10557281,5.4472136 Z" id="path-6"></path>
        <linearGradient x1="100%" y1="26.1473883%" x2="0%" y2="76.0007828%" id="linearGradient-8">
            <stop stop-color="#FFE557" offset="0%"></stop>
            <stop stop-color="#FFC72C" stop-opacity="0.6" offset="100%"></stop>
        </linearGradient>
        <linearGradient x1="86.7346939%" y1="21.6134208%" x2="13.2653061%" y2="80.9430804%" id="linearGradient-9">
            <stop stop-color="#FFE380" offset="0%"></stop>
            <stop stop-color="#FFE380" offset="100%"></stop>
        </linearGradient>
        <linearGradient x1="2.81409439%" y1="159.001814%" x2="99.7090242%" y2="13.4660993%" id="linearGradient-10">
            <stop stop-color="#F0B616" stop-opacity="0.5" offset="0%"></stop>
            <stop stop-color="#FFC72C" stop-opacity="0.5" offset="100%"></stop>
        </linearGradient>
    </defs>
    <g id="Status-/-56x56-/-gold" stroke="none" stroke-width="1" fill="none" fill-rule="evenodd">
        <g id="Gold">
            <mask id="mask-2" fill="white">
                <use xlink:href="#path-1"></use>
            </mask>
            <use id="Mask" fill="#FFFFFF" xlink:href="#path-1"></use>
            <mask id="mask-4" fill="white">
                <use xlink:href="#path-3"></use>
            </mask>
            <use id="Mask" fill-opacity="0.28" fill="#FFD560" xlink:href="#path-3"></use>
            <polygon id="Triangle" fill="url(#linearGradient-5)" mask="url(#mask-4)" transform="translate(28.000000, 28.000000) scale(1, -1) translate(-28.000000, -28.000000) " points="28 12 44 44 12 44"></polygon>
            <rect id="Rectangle" fill="#0098D3" mask="url(#mask-4)" x="23" y="15" width="10" height="11"></rect>
            <rect id="Rectangle" fill="#FFFFFF" mask="url(#mask-4)" x="26" y="15" width="4" height="11"></rect>
            <g id="Group-11" mask="url(#mask-4)">
                <g transform="translate(16.000000, 20.000000)" id="Rectangle">
                    <g stroke="none" stroke-width="1" fill="none" fill-rule="evenodd" transform="translate(-0.000000, 0.000000)">
                        <mask id="mask-7" fill="white">
                            <use xlink:href="#path-6"></use>
                        </mask>
                        <use id="Mask" fill="#FFE557" fill-rule="nonzero" xlink:href="#path-6"></use>
                        <polygon fill="url(#linearGradient-8)" fill-rule="nonzero" mask="url(#mask-7)" points="-7.90478794e-13 6 24 22 12 28 -7.90478794e-13 22 -7.90478794e-13 14"></polygon>
                    </g>
                    <path d="M5,9.38196601 L12,5.88196601 L19,9.38196601 L19,18.618034 L12,22.118034 L5,18.618034 L5,9.38196601 Z" stroke="url(#linearGradient-10)" stroke-width="2" fill="url(#linearGradient-9)" fill-rule="nonzero"></path>
                    <polygon stroke="none" fill-opacity="0.2" fill="#FFFFFF" fill-rule="nonzero" points="6 10 12 7 18 10 18 14 18 18"></polygon>
                    <rect stroke="none" fill="#FFFFFF" fill-rule="evenodd" transform="translate(14.235959, 10.775536) rotate(26.000000) translate(-14.235959, -10.775536) " x="12.2359592" y="9.77553634" width="4" height="2" rx="1"></rect>
                </g>
            </g>
            <rect id="Rectangle" fill="#8BDCFB" mask="url(#mask-4)" x="12" y="12" width="32" height="3"></rect>
        </g>
    </g>
</svg>