<?xml version="1.0" encoding="UTF-8"?>
<svg width="24px" height="24px" viewBox="0 0 24 24" version="1.1" xmlns="http://www.w3.org/2000/svg" xmlns:xlink="http://www.w3.org/1999/xlink">
    <!-- Generator: Sketch 51.3 (57544) - http://www.bohemiancoding.com/sketch -->
    <title>Store_24x24</title>
    <desc>Created with Sketch.</desc>
    <defs></defs>
    <g id="Store_24x24" stroke="none" stroke-width="1" fill="none" fill-rule="evenodd">
        <g id="Group" transform="translate(1.000000, 1.000000)" fill="#000000" fill-rule="nonzero">
            <path d="M19.005,9.00333333 C19.005,10.1079028 18.1095695,11.0033333 17.005,11.0033333 C15.9004305,11.0033333 15.005,10.1079028 15.005,9.00333333 C15.005,10.1079028 14.1095695,11.0033333 13.005,11.0033333 C11.9004305,11.0033333 11.005,10.1079028 11.005,9.00333333 C11.005,10.1079028 10.1095695,11.0033333 9.005,11.0033333 C7.9004305,11.0033333 7.005,10.1079028 7.005,9.00333333 C7.005,10.1079028 6.1095695,11.0033333 5.005,11.0033333 C3.9004305,11.0033333 3.005,10.1079028 3.005,9.00333333 L3.00166667,9.00333333 C3.00166667,10.4767063 1.005,11.0033333 0.005,11.0033333 L0,3 L22.01,3 L22.01,11.0033333 C20.505,11.0033333 19.0083333,10.4767063 19.0083333,9.00333333 L19.005,9.00333333 Z" id="Combined-Shape"></path>
            <polygon id="Combined-Shape" points="21 22.005 1 22.005 1 14 2.99666667 14 2.99666667 20 19.0033333 20 19.0033333 14 21 14"></polygon>
            <rect id="Rectangle-25" x="2" y="0" width="18" height="2"></rect>
            <path d="M10,20 L12,20 L12,15 L10,15 L10,20 Z M14,15 L14,22 L8,22 L8,15 C8,13.8954305 8.8954305,13 10,13 L12,13 C13.1045695,13 14,13.8954305 14,15 Z" id="Rectangle-25"></path>
        </g>
    </g>
</svg>