<?xml version="1.0" encoding="UTF-8"?>
<svg width="40px" height="40px" viewBox="0 0 40 40" version="1.1" xmlns="http://www.w3.org/2000/svg" xmlns:xlink="http://www.w3.org/1999/xlink">
    <!-- Generator: Sketch 55.2 (78181) - https://sketchapp.com -->
    <title>Tip / 40x40 / red@1x</title>
    <desc>Created with Sketch.</desc>
    <g id="Tip-/-40x40-/-red" stroke="none" stroke-width="1" fill="none" fill-rule="evenodd">
        <g id="illustration-light-bulb">
            <circle id="bg-circle" fill="#FFFFFF" fill-rule="nonzero" cx="20" cy="20" r="20"></circle>
            <circle id="bg-circle" fill-opacity="0.4" fill="#FFA39E" fill-rule="nonzero" cx="20" cy="20" r="20"></circle>
            <circle id="Oval-2" fill="#FFE380" fill-rule="nonzero" cx="20" cy="17" r="6"></circle>
            <path d="M15,30 L25,30 L25,26.8178222 L25.499274,26.5290078 C28.876682,24.5752828 31,20.9731503 31,17 C31,10.9248678 26.0751322,6 20,6 C13.9248678,6 9,10.9248678 9,17 C9,20.9731503 11.123318,24.5752828 14.500726,26.5290078 L15,26.8178222 L15,30 Z" id="Combined-Shape" stroke="#E14D4C" stroke-width="2" fill="#FFFFFF" fill-rule="nonzero"></path>
            <path d="M14,31 C14,33.7614237 16.6862915,36 20,36 C23.3137085,36 26,33.7614237 26,31 L14,31 Z" id="Path" fill="#E14D4C" fill-rule="nonzero"></path>
            <circle id="Oval-2" fill="#FFE380" fill-rule="nonzero" cx="20" cy="17" r="6"></circle>
            <path d="M20,11 C22.1435936,11 24.1243557,12.1435935 25.1961525,14 C26.2679493,15.8564064 26.2679493,18.1435936 25.1961525,20 C24.1243557,21.8564065 22.1435936,23 20,23 L20,11 Z" id="Path" fill="#FFD560" fill-rule="nonzero"></path>
            <path d="M21,20 L23,20 L23,26 C23,26.5522847 22.5522847,27 22,27 L22,27 C21.4477153,27 21,26.5522847 21,26 L21,20 Z" id="Rectangle" fill="#E14D4C" fill-rule="nonzero"></path>
            <polygon id="Rectangle" fill="#E14D4C" fill-rule="nonzero" points="17 20 19 20 19 29 17 29"></polygon>
            <circle id="Oval-2" stroke="#E14D4C" stroke-width="2" cx="20" cy="20" r="2"></circle>
        </g>
    </g>
</svg>