<?xml version="1.0" encoding="UTF-8"?>
<svg width="24px" height="24px" viewBox="0 0 24 24" version="1.1" xmlns="http://www.w3.org/2000/svg" xmlns:xlink="http://www.w3.org/1999/xlink">
    <!-- Generator: Sketch 51.3 (57544) - http://www.bohemiancoding.com/sketch -->
    <title>To top_24x24</title>
    <desc>Created with Sketch.</desc>
    <defs></defs>
    <g id="To-top_24x24" stroke="none" stroke-width="1" fill="none" fill-rule="evenodd">
        <g id="Group" transform="translate(2.000000, 1.000000)" fill="#000000" fill-rule="nonzero">
            <rect id="Rectangle-8" x="0" y="0" width="20" height="2"></rect>
            <path d="M11.005,7.13756592 L11.005,20.9997368 C11.005,21.5521669 10.5572847,22 10.005,22 C9.45271525,22 9.005,21.5521669 9.005,20.9997368 L9.005,7.13756592 L4.05154774,12.0541246 C3.58222781,12.5342813 2.82130986,12.5342813 2.35198994,12.0541246 C1.88267002,11.5739678 1.88267002,10.7954799 2.35198994,10.3153232 L9.15022112,3.36011762 C9.61954104,2.87996079 10.380459,2.87996079 10.8497789,3.36011762 L17.6480101,10.3153232 C18.11733,10.7954799 18.11733,11.5739678 17.6480101,12.0541246 C17.1786902,12.5342813 16.4177723,12.5342813 15.9484523,12.0541246 L11.005,7.13756592 Z" id="Shape"></path>
        </g>
    </g>
</svg>