<?xml version="1.0" encoding="UTF-8"?>
<svg width="24px" height="24px" viewBox="0 0 24 24" version="1.1" xmlns="http://www.w3.org/2000/svg" xmlns:xlink="http://www.w3.org/1999/xlink">
    <!-- Generator: Sketch 55.2 (78181) - https://sketchapp.com -->
    <title>social media/twitter/24x24/square@3x</title>
    <desc>Created with Sketch.</desc>
    <g id="social-media/twitter/24x24/square" stroke="none" stroke-width="1" fill="none" fill-rule="evenodd">
        <g>
            <g id="Group-Copy">
                <rect id="Rectangle" x="0" y="0" width="24" height="24"></rect>
            </g>
            <path d="M7.547808,22.5 C16.604832,22.5 21.557664,14.9985013 21.557664,8.49379854 C21.557664,8.28063816 21.553344,8.06843753 21.543552,7.8573886 C22.504896,7.16262587 23.340672,6.29568408 24,5.30858164 C23.117664,5.70035142 22.168224,5.9644745 21.172224,6.08348345 C22.188864,5.47423442 22.969344,4.50987804 23.337408,3.36048194 C22.385856,3.92433482 21.332448,4.33443581 20.21088,4.55527419 C19.312416,3.59849984 18.032736,3 16.616736,3 C13.897248,3 11.692032,5.20464076 11.692032,7.92236364 C11.692032,8.30875882 11.735328,8.68430883 11.819712,9.04479077 C7.72752,8.83911644 4.09872,6.88017157 1.6704,3.90158875 C1.247136,4.62888699 1.003584,5.47423442 1.003584,6.37572719 C1.003584,8.08369755 1.872864,9.59136816 3.194688,10.473378 C2.387136,10.4485205 1.628256,10.2266264 0.964608,9.85750672 C0.963456,9.87804536 0.963456,9.89867998 0.963456,9.92027434 C0.963456,12.3046762 2.661024,14.2950049 4.913856,14.7463751 C4.500384,14.8588578 4.06512,14.9195139 3.61584,14.9195139 C3.298656,14.9195139 2.990112,14.8881301 2.690208,14.8307371 C3.317088,16.7865148 5.134752,18.2097274 7.290144,18.249845 C5.604576,19.5701725 3.481632,20.3569752 1.174656,20.3569752 C0.777312,20.3569752 0.38544,20.3343251 0,20.2888329 C2.179296,21.6849807 4.766688,22.5 7.547808,22.5" id="Fill-1-Copy-3" fill="#000000"></path>
        </g>
    </g>
</svg>