<?xml version="1.0" encoding="UTF-8"?>
<svg width="24px" height="24px" viewBox="0 0 24 24" version="1.1" xmlns="http://www.w3.org/2000/svg" xmlns:xlink="http://www.w3.org/1999/xlink">
    <!-- Generator: Sketch 51.3 (57544) - http://www.bohemiancoding.com/sketch -->
    <title>Upload  / 24x24 / black</title>
    <desc>Created with Sketch.</desc>
    <defs></defs>
    <g id="Upload--/-24x24-/-black" stroke="none" stroke-width="1" fill="none" fill-rule="evenodd">
        <path d="M13,5.13756592 L13,18.9997368 C13,19.5521669 12.5522847,20 12,20 C11.4477153,20 11,19.5521669 11,18.9997368 L11,5.13756592 L6.04654774,10.0541246 C5.57722781,10.5342813 4.81630986,10.5342813 4.34698994,10.0541246 C3.87767002,9.57396784 3.87767002,8.79547993 4.34698994,8.31532322 L11.1452211,1.36011762 C11.614541,0.879960793 12.375459,0.879960793 12.8447789,1.36011762 L19.6430101,8.31532322 C20.11233,8.79547993 20.11233,9.57396784 19.6430101,10.0541246 C19.1736902,10.5342813 18.4127723,10.5342813 17.9434523,10.0541246 L13,5.13756592 Z" id="Shape" fill="#000000" fill-rule="nonzero"></path>
        <path d="M24,23.995 L0,23.995 L0,19.0025 C-6.78044635e-17,18.4488345 0.448834538,18 1.0025,18 C1.55616546,18 2.005,18.4488345 2.005,19.0025 L2.005,22 L22.005,22 L22.005,18.9975 C22.005,18.446596 22.451596,18 23.0025,18 C23.553404,18 24,18.446596 24,18.9975 L24,23.995 Z" id="Path" fill="#000000" fill-rule="nonzero"></path>
    </g>
</svg>