<?xml version="1.0" encoding="UTF-8"?>
<svg width="24px" height="24px" viewBox="0 0 24 24" version="1.1" xmlns="http://www.w3.org/2000/svg" xmlns:xlink="http://www.w3.org/1999/xlink">
    <!-- Generator: Sketch 51.3 (57544) - http://www.bohemiancoding.com/sketch -->
    <title>View / 24x24 / black</title>
    <desc>Created with Sketch.</desc>
    <defs></defs>
    <g id="View-/-24x24-/-black" stroke="none" stroke-width="1" fill="none" fill-rule="evenodd">
        <path d="M12.000003,18 C14.835398,18 18.0445902,15.8288012 20.6244817,12.0087025 C18.2665298,8.63546618 15.2378028,7 12.000003,7 C8.76219468,7 5.73347123,8.63546444 3.37552315,12.0087022 C5.95540805,15.8287946 9.16461244,18 12.000003,18 Z M12.000003,5 C15.8944101,5 20,7 23,12 C20,17 15.8944215,20 12.000003,20 C8.10559608,20 4,17 1.00000609,12 C4,7 8.10558459,5 12.000003,5 Z" id="Shape" fill="#000000" fill-rule="nonzero"></path>
        <path d="M12,14 C13.1045695,14 14,13.1045695 14,12 C14,10.8954305 13.1045695,10 12,10 C10.8954305,10 10,10.8954305 10,12 C10,13.1045695 10.8954305,14 12,14 Z M12,16 C9.790861,16 8,14.209139 8,12 C8,9.790861 9.790861,8 12,8 C14.209139,8 16,9.790861 16,12 C16,14.209139 14.209139,16 12,16 Z" id="Combined-Shape" fill="#000000" fill-rule="nonzero"></path>
    </g>
</svg>