<?xml version="1.0" encoding="UTF-8"?>
<svg width="40px" height="40px" viewBox="0 0 40 40" version="1.1" xmlns="http://www.w3.org/2000/svg" xmlns:xlink="http://www.w3.org/1999/xlink">
    <!-- Generator: Sketch 55.2 (78181) - https://sketchapp.com -->
    <title>Warehouse / 40x40@1x</title>
    <desc>Created with Sketch.</desc>
    <defs>
        <circle id="path-1" cx="20" cy="20" r="20"></circle>
        <circle id="path-3" cx="20" cy="20" r="20"></circle>
        <linearGradient x1="0%" y1="0%" x2="100%" y2="100%" id="linearGradient-5">
            <stop stop-color="#EEF2F5" offset="0%"></stop>
            <stop stop-color="#C3D4FA" stop-opacity="0.4" offset="100%"></stop>
        </linearGradient>
        <linearGradient x1="100%" y1="72.2222222%" x2="0%" y2="27.7777778%" id="linearGradient-6">
            <stop stop-color="#8BDCFB" offset="0%"></stop>
            <stop stop-color="#2FB7EC" offset="100%"></stop>
        </linearGradient>
    </defs>
    <g id="Warehouse-/-40x40" stroke="none" stroke-width="1" fill="none" fill-rule="evenodd">
        <g id="Group-5">
            <mask id="mask-2" fill="white">
                <use xlink:href="#path-1"></use>
            </mask>
            <use id="Mask" fill="#FFFFFF" xlink:href="#path-1"></use>
            <mask id="mask-4" fill="white">
                <use xlink:href="#path-3"></use>
            </mask>
            <use id="Mask" fill-opacity="0.6" fill="#C3D4FA" xlink:href="#path-3"></use>
            <polygon id="Path" fill="#FFFFFF" fill-rule="nonzero" mask="url(#mask-4)" points="10 20 30 20 30 32 10 32"></polygon>
            <polygon id="Path" fill="#EEF2F5" fill-rule="nonzero" mask="url(#mask-4)" points="15 27 25 27 25 32 15 32"></polygon>
            <polygon id="Path" fill="#FFFFFF" fill-rule="nonzero" mask="url(#mask-4)" points="20 11 30 20 10 20"></polygon>
            <g id="Clipped" mask="url(#mask-4)" fill="#AFC7D1" fill-opacity="0.5" fill-rule="nonzero">
                <g transform="translate(18.000000, 18.000000)" id="Path">
                    <path d="M2,4 C0.8954305,4 0,3.1045695 0,2 C0,0.8954305 0.8954305,0 2,0 C3.1045695,0 4,0.8954305 4,2 C4,3.1045695 3.1045695,4 2,4 Z"></path>
                </g>
            </g>
            <polygon id="Rectangle" fill="#C3D4FA" fill-rule="nonzero" mask="url(#mask-4)" points="15 25 25 25 25 27 15 27"></polygon>
            <polygon id="Path" fill="url(#linearGradient-5)" fill-rule="nonzero" mask="url(#mask-4)" points="20 27 25 27 25 32 20 32"></polygon>
            <polygon id="Path" fill="#C3D4FA" fill-rule="nonzero" mask="url(#mask-4)" points="30 23 20 14 10 23 10 20 20 11 30 20"></polygon>
            <path d="M30.9575066,21.0443811 L20,11 L9.04249338,21.0443811 C8.45955698,21.5787394 7.55917516,21.5591752 7,21 C6.48856712,20.4885671 6.48856712,19.6593706 7,19.1479377 C7.02370063,19.1242371 7.04830241,19.1014551 7.07375098,19.079642 L20,8 L32.926249,19.079642 C33.4754006,19.5503433 33.538997,20.3770975 33.0682957,20.926249 C33.0464826,20.9516976 33.0237006,20.9762994 33,21 C32.4408248,21.5591752 31.540443,21.5787394 30.9575066,21.0443811 Z" id="Path" fill="#5685F1" fill-rule="nonzero" mask="url(#mask-4)"></path>
            <polygon id="Rectangle" fill="#5685F1" fill-rule="nonzero" mask="url(#mask-4)" points="28 28 34 28 34 32 28 32"></polygon>
            <polygon id="Rectangle" fill="url(#linearGradient-6)" mask="url(#mask-4)" points="6 28 12 28 12 32 6 32"></polygon>
        </g>
    </g>
</svg>