<?xml version="1.0" encoding="UTF-8"?>
<svg width="24px" height="24px" viewBox="0 0 24 24" version="1.1" xmlns="http://www.w3.org/2000/svg" xmlns:xlink="http://www.w3.org/1999/xlink">
    <!-- Generator: Sketch 55.2 (78181) - https://sketchapp.com -->
    <title>Wish Express / 24x24 / 01@1x</title>
    <desc>Created with Sketch.</desc>
    <defs>
        <circle id="path-1" cx="12" cy="12" r="12"></circle>
        <rect id="path-2" x="0" y="0" width="16" height="16"></rect>
    </defs>
    <g id="Wish-Express-/-24x24-/-01" stroke="none" stroke-width="1" fill="none" fill-rule="evenodd">
        <g id="Wish-Express">
            <g id="Oval" fill-rule="nonzero">
                <use fill="#FFFFFF" xlink:href="#path-1"></use>
                <use fill-opacity="0.4" fill="#FABF86" xlink:href="#path-1"></use>
            </g>
            <g id="WishExpress" transform="translate(4.000000, 4.000000)">
                <mask id="mask-3" fill="white">
                    <use xlink:href="#path-2"></use>
                </mask>
                <g id="Mask"></g>
                <g id="Group-10" mask="url(#mask-3)">
                    <g transform="translate(-0.266663, 2.666667)" id="Group-3">
                        <g>
                            <g id="Group-14">
                                <path d="M16.261266,7.48496937 L16.2666667,7.58522921 L16.2666667,8.39969661 C16.2666667,9.27339554 15.5600402,9.98460387 14.699731,9.98460387 L14.5295077,9.98460387 C14.0672256,10.7376608 13.2486131,11.2266667 12.3237224,11.2266667 C11.4111538,11.2266667 10.5858701,10.7351762 10.1203266,9.98460387 L8.94166737,9.98460387 C8.47938522,10.7376608 7.66077277,11.2266667 6.73588207,11.2266667 C5.82331347,11.2266667 4.99802973,10.7351762 4.53248621,9.98460387 L4.47246491,9.98460387 C3.59672753,9.98460387 2.90552928,9.25834808 2.90552928,8.39969661 L2.90552928,7.65150389 C2.53957646,7.40177061 2.2998029,6.97884216 2.2998029,6.50605989 C2.2998029,6.33986117 2.32896693,6.18106289 2.38251423,6.03421186 C1.82186323,5.85894866 1.41684749,5.32869565 1.41684749,4.7142316 C1.41684749,4.5610189 1.44202823,4.4130418 1.48852375,4.27449796 C0.865153554,4.14269725 0.4,3.58090773 0.4,2.92240331 C0.4,2.16834906 1.00993581,1.5411129 1.76893491,1.5411129 L3.22072878,1.5411129 C3.51158433,0.880088727 4.06344194,0.4 4.84616172,0.4 L10.5987432,0.4 C11.2559795,0.4 11.8473923,0.709661701 12.2259007,1.22657686 C12.2420495,1.24662632 12.2567445,1.26639457 12.2701013,1.28571986 L12.3545542,1.37256821 L12.9102127,3.165248 L13.6958326,3.23165101 C14.7902901,3.25660021 15.6726645,4.1790724 15.6726645,5.28435878 L15.6726645,6.34273843 C15.9964806,6.6208272 16.2123604,7.03233408 16.261266,7.48496937 Z" id="Shape-Copy-9" fill="#BC7633" fill-rule="nonzero"></path>
                                <path d="M14.7393312,5.28435878 C14.7393312,4.67350823 14.2443294,4.1644661 13.6503272,4.1644661 L12.204922,4.04229599 L11.5293466,1.86273715 C11.5095465,1.84237546 11.5095465,1.82201378 11.4897464,1.80165209 C11.2917457,1.5165885 10.9749446,1.33333333 10.5987432,1.33333333 L4.84616172,1.33333333 C4.29175971,1.33333333 3.98921537,1.94504242 3.92981516,2.47444623 L1.76893491,2.47444623 C1.53133405,2.47444623 1.33333333,2.67806308 1.33333333,2.92240331 C1.33333333,3.16674353 1.53133405,3.37036038 1.76893491,3.37036038 L3.89916874,3.37036038 C4.11696953,3.41108375 4.2753701,3.59433892 4.2753701,3.81831745 C4.2753701,4.06265767 4.07736938,4.26627453 3.83976852,4.26627453 L2.7857824,4.26627453 C2.54818154,4.26627453 2.35018082,4.46989138 2.35018082,4.7142316 C2.35018082,4.95857182 2.54818154,5.16218867 2.7857824,5.16218867 L3.54977781,5.16218867 L4.71867107,5.16218867 C4.95627193,5.16218867 5.15427265,5.36580552 5.15427265,5.61014575 C5.15427265,5.85448597 4.95627193,6.05810282 4.71867107,6.05810282 L3.70263512,6.05810282 C3.43113695,6.05810282 3.23313623,6.26171967 3.23313623,6.50605989 C3.23313623,6.75040012 3.43113695,6.95401697 3.66873781,6.95401697 L4.31406434,6.95401697 C4.03686333,7.01510202 3.83886262,7.27980393 3.83886262,7.58522921 L3.83886262,8.39969661 C3.83886262,8.74584526 4.11606362,9.05127054 4.47246491,9.05127054 L5.13207626,9.05127054 C5.33007698,9.76392952 5.98347934,10.2933333 6.73588207,10.2933333 C7.50808486,10.2933333 8.14168716,9.76392952 8.33968787,9.05127054 L10.7199166,9.05127054 C10.9179173,9.76392952 11.5713197,10.2933333 12.3237224,10.2933333 C13.0959252,10.2933333 13.7295275,9.76392952 13.9275282,9.05127054 L14.699731,9.05127054 C15.0363323,9.05127054 15.3333333,8.76620695 15.3333333,8.39969661 L15.3333333,7.58522921 C15.2937332,7.21871887 15.0363323,6.93365528 14.7393312,6.9132936 L14.7393312,5.28435878 Z" id="Path" fill="#FBBA7B"></path>
                            </g>
                        </g>
                    </g>
                </g>
            </g>
        </g>
    </g>
</svg>