<?xml version="1.0" encoding="UTF-8"?>
<svg width="24px" height="24px" viewBox="0 0 24 24" version="1.1" xmlns="http://www.w3.org/2000/svg" xmlns:xlink="http://www.w3.org/1999/xlink">
    <!-- Generator: Sketch 55.2 (78181) - https://sketchapp.com -->
    <title>Wish Express / 24x24 / 02@1x</title>
    <desc>Created with Sketch.</desc>
    <defs>
        <rect id="path-1" x="0" y="0" width="24" height="24"></rect>
    </defs>
    <g id="Wish-Express-/-24x24-/-02" stroke="none" stroke-width="1" fill="none" fill-rule="evenodd">
        <g id="Wish-Express">
            <mask id="mask-2" fill="white">
                <use xlink:href="#path-1"></use>
            </mask>
            <g id="Mask"></g>
            <g id="Group-10" mask="url(#mask-2)">
                <g transform="translate(-0.399994, 4.000000)" id="Group-3">
                    <g>
                        <g id="Group-14">
                            <path d="M24.391899,11.2274541 L24.4,11.3778438 L24.4,12.5995449 C24.4,13.9100933 23.3400603,14.9769058 22.0495966,14.9769058 L21.7942616,14.9769058 C21.1008384,16.1064913 19.8729197,16.84 18.4855837,16.84 C17.1167308,16.84 15.8788051,16.1027643 15.1804899,14.9769058 L13.4125011,14.9769058 C12.7190778,16.1064913 11.4911592,16.84 10.1038231,16.84 C8.7349702,16.84 7.49704459,16.1027643 6.79872931,14.9769058 L6.70869737,14.9769058 C5.39509129,14.9769058 4.35829393,13.8875221 4.35829393,12.5995449 L4.35829393,11.4772558 C3.80936469,11.1026559 3.44970435,10.4682632 3.44970435,9.75908984 C3.44970435,9.50979176 3.49345039,9.27159434 3.57377134,9.05131779 C2.73279485,8.788423 2.12527124,7.99304347 2.12527124,7.0713474 C2.12527124,6.84152836 2.16304234,6.6195627 2.23278562,6.41174694 C1.29773033,6.21404587 0.6,5.3713616 0.6,4.38360496 C0.6,3.25252358 1.51490371,2.31166935 2.65340237,2.31166935 L4.83109316,2.31166935 C5.2673765,1.32013309 6.09516291,0.6 7.26924258,0.6 L15.8981148,0.6 C16.8839692,0.6 17.7710884,1.06449255 18.338851,1.83986529 C18.3630742,1.86993949 18.3851168,1.89959185 18.405152,1.92857979 L18.5318313,2.05885232 L19.3653191,4.747872 L20.5437489,4.84747652 C22.1854351,4.88490031 23.5089968,6.2686086 23.5089968,7.92653818 L23.5089968,9.51410765 C23.9947209,9.93124079 24.3185406,10.5485011 24.391899,11.2274541 Z" id="Shape-Copy-9" fill="#BC7633" fill-rule="nonzero"></path>
                            <path d="M22.1089968,7.92653818 C22.1089968,7.01026234 21.3664941,6.24669915 20.4754909,6.24669915 L18.307383,6.06344398 L17.2940199,2.79410572 C17.2643197,2.76356319 17.2643197,2.73302067 17.2346196,2.70247814 C16.9376186,2.27488275 16.4624168,2 15.8981148,2 L7.26924258,2 C6.43763957,2 5.98382306,2.91756363 5.89472273,3.71166935 L2.65340237,3.71166935 C2.29700108,3.71166935 2,4.01709463 2,4.38360496 C2,4.75011529 2.29700108,5.05554057 2.65340237,5.05554057 L5.84875311,5.05554057 C6.17545429,5.11662562 6.41305515,5.39150837 6.41305515,5.72747618 C6.41305515,6.09398651 6.11605408,6.39941179 5.75965279,6.39941179 L4.1786736,6.39941179 C3.82227231,6.39941179 3.52527124,6.70483707 3.52527124,7.0713474 C3.52527124,7.43785773 3.82227231,7.74328301 4.1786736,7.74328301 L5.32466672,7.74328301 L7.07800661,7.74328301 C7.4344079,7.74328301 7.73140897,8.04870829 7.73140897,8.41521862 C7.73140897,8.78172895 7.4344079,9.08715423 7.07800661,9.08715423 L5.55395268,9.08715423 C5.14670542,9.08715423 4.84970435,9.39257951 4.84970435,9.75908984 C4.84970435,10.1256002 5.14670542,10.4310255 5.50310671,10.4310255 L6.47109651,10.4310255 C6.055295,10.522653 5.75829393,10.9197059 5.75829393,11.3778438 L5.75829393,12.5995449 C5.75829393,13.1187679 6.17409543,13.5769058 6.70869737,13.5769058 L7.69811439,13.5769058 C7.99511547,14.6458943 8.97521902,15.44 10.1038231,15.44 C11.2621273,15.44 12.2125307,14.6458943 12.5095318,13.5769058 L16.0798749,13.5769058 C16.376876,14.6458943 17.3569796,15.44 18.4855837,15.44 C19.6438878,15.44 20.5942913,14.6458943 20.8912924,13.5769058 L22.0495966,13.5769058 C22.5544984,13.5769058 23,13.1493104 23,12.5995449 L23,11.3778438 C22.9405998,10.8280783 22.5544984,10.4004829 22.1089968,10.3699404 L22.1089968,7.92653818 Z" id="Path" fill="#FBBA7B"></path>
                        </g>
                    </g>
                </g>
            </g>
        </g>
    </g>
</svg>