<svg width="26" height="21" viewBox="0 0 26 21" fill="none" xmlns="http://www.w3.org/2000/svg">
<path fill-rule="evenodd" clip-rule="evenodd" d="M25.6687 2.89672C24.7596 3.30331 23.7813 3.57714 22.7552 3.70077C23.8027 3.06848 24.6071 2.06776 24.9855 0.875354C24.0063 1.46118 22.9192 1.88521 21.7645 2.11506C20.8389 1.12263 19.5193 0.501953 18.0613 0.501953C15.2598 0.501953 12.9883 2.78884 12.9883 5.60928C12.9883 6.00924 13.0337 6.39924 13.1202 6.77347C8.90356 6.56105 5.16579 4.52724 2.66351 1.43712C2.22668 2.1914 1.97694 3.06849 1.97694 4.00449C1.97694 5.77608 2.87121 7.3394 4.23362 8.25548C3.40117 8.22893 2.61982 7.99907 1.93491 7.61654V7.68043C1.93491 10.1557 3.6847 12.2194 6.00401 12.6899C5.57872 12.806 5.13035 12.8691 4.66797 12.8691C4.34076 12.8691 4.02262 12.8367 3.71272 12.777C4.35807 14.8058 6.23231 16.2828 8.4519 16.3243C6.71612 17.6935 4.52868 18.5108 2.15167 18.5108C1.74122 18.5108 1.33736 18.4867 0.940918 18.4386C3.18605 19.8874 5.85236 20.7338 8.71729 20.7338C18.0481 20.7338 23.1508 12.9512 23.1508 6.20258C23.1508 5.98103 23.1467 5.76031 23.1359 5.54208C24.1283 4.82016 24.9888 3.92067 25.6687 2.89672Z" fill="white"/>
</svg>
