<svg width="18" height="22" viewBox="0 0 18 22" fill="none" xmlns="http://www.w3.org/2000/svg">
<path fill-rule="evenodd" clip-rule="evenodd" d="M4.62136 21.7331C5.80735 20.6726 6.62151 19.1622 7.01898 17.6132C7.17925 17.0026 7.83315 14.5024 7.83315 14.5024C8.25625 15.3187 9.50635 16.0064 10.8206 16.0064C14.7567 16.0064 17.5903 12.3814 17.5903 7.86311C17.5903 3.53758 14.0708 0.304688 9.54481 0.304688C3.90977 0.304688 0.922363 4.09675 0.922363 8.22303C0.922363 10.1383 1.94167 12.5293 3.57 13.2877C3.81361 13.4098 3.94823 13.352 4.00593 13.1077C4.0444 12.9213 4.26877 12.0408 4.37134 11.623C4.4034 11.4945 4.39058 11.3724 4.28159 11.2438C3.74309 10.5883 3.30716 9.37993 3.30716 8.2616C3.30716 5.37577 5.48681 2.57993 9.19863 2.57993C12.404 2.57993 14.6478 4.76518 14.6478 7.90167C14.6478 11.4431 12.8656 13.8983 10.5449 13.8983C9.26274 13.8983 8.30113 12.8378 8.61526 11.5331C8.98708 9.97767 9.69867 8.30016 9.69867 7.18182C9.69867 6.17917 9.16658 5.34363 8.0447 5.34363C6.7305 5.34363 5.68555 6.69978 5.68555 8.52511C5.68555 9.68201 6.07019 10.4661 6.07019 10.4661C6.07019 10.4661 4.77522 15.9486 4.53802 16.9705C4.27518 18.1017 4.37775 19.6892 4.49315 20.724L4.60854 21.7395L4.62136 21.7331Z" fill="white"/>
</svg>
