<svg width="22" height="22" viewBox="0 0 22 22" fill="none" xmlns="http://www.w3.org/2000/svg">
<path fill-rule="evenodd" clip-rule="evenodd" d="M6.349 0.404297H15.4059C18.807 0.404297 21.5882 3.15113 21.5882 6.50677V15.5391C21.5882 18.8956 18.807 21.6416 15.4059 21.6416H6.349C2.9479 21.6416 0.16626 18.8956 0.16626 15.5391V6.50677C0.16626 3.15113 2.94787 0.404297 6.349 0.404297ZM10.8195 5.28914C14.1246 5.28914 16.8066 7.97113 16.8066 11.2762C16.8066 14.5816 14.1246 17.2632 10.8195 17.2632C7.51369 17.2632 4.83209 14.5816 4.83209 11.2762C4.83209 7.97113 7.51369 5.28914 10.8195 5.28914ZM10.8195 7.3113C13.0082 7.3113 14.7844 9.08718 14.7844 11.2762C14.7844 13.4652 13.0081 15.2414 10.8195 15.2414C8.63014 15.2414 6.85426 13.4652 6.85426 11.2762C6.85426 9.08718 8.63014 7.3113 10.8195 7.3113ZM16.6117 4.45934C17.1485 4.45934 17.5838 4.89461 17.5838 5.43109C17.5838 5.96798 17.1485 6.40325 16.6117 6.40325C16.0752 6.40325 15.6399 5.96798 15.6399 5.43109C15.6399 4.89461 16.0752 4.45934 16.6117 4.45934ZM7.08906 2.13907H14.6666C17.5118 2.13907 19.8388 4.45459 19.8388 7.28409V14.8995C19.8388 17.729 17.5119 20.0441 14.6666 20.0441H7.08906C4.24379 20.0441 1.91643 17.729 1.91643 14.8995V7.28402C1.91643 4.45458 4.24379 2.13907 7.08906 2.13907Z" fill="white"/>
</svg>
