<svg width="23" height="21" viewBox="0 0 23 21" fill="none" xmlns="http://www.w3.org/2000/svg">
<path fill-rule="evenodd" clip-rule="evenodd" d="M8.04853 6.4946H12.4738V8.76328H12.5379C13.1541 7.65767 14.6611 6.4946 16.9083 6.4946C21.5812 6.4946 22.4454 9.40264 22.4454 13.1857V20.8919H17.8303V14.0607C17.8303 12.4322 17.7964 10.3359 15.4306 10.3359C13.0276 10.3359 12.6594 12.1086 12.6594 13.942V20.8919H8.04849V6.4946H8.04853ZM4.8491 2.4954C4.8491 3.82007 3.77407 4.8951 2.4494 4.8951C1.12473 4.8951 0.0493164 3.82007 0.0493164 2.4954C0.0493164 1.17073 1.12473 0.0957031 2.4494 0.0957031C3.77407 0.0957031 4.8491 1.17073 4.8491 2.4954ZM0.0493164 6.4946H4.8491V20.8919H0.0493164V6.4946Z" fill="white"/>
</svg>
