<svg width="80" height="80" viewBox="0 0 80 80" fill="none" xmlns="http://www.w3.org/2000/svg">
<path d="M77.5387 62.4074H2.46125C2.14001 62.4074 1.83192 62.2798 1.60477 62.0527C1.37761 61.8255 1.25 61.5174 1.25 61.1962V9.9687C1.25 9.64745 1.37761 9.33937 1.60477 9.11221C1.83192 8.88506 2.14001 8.75745 2.46125 8.75745H77.5387C77.86 8.75745 78.1681 8.88506 78.3952 9.11221C78.6224 9.33937 78.75 9.64745 78.75 9.9687V61.1962C78.75 61.5174 78.6224 61.8255 78.3952 62.0527C78.1681 62.2798 77.86 62.4074 77.5387 62.4074ZM3.6725 59.9849H76.3275V11.1799H3.6725V59.9849Z" fill="white"/>
<path d="M77.5387 55.1975H2.46125C2.14001 55.1975 1.83192 55.0699 1.60477 54.8428C1.37761 54.6156 1.25 54.3075 1.25 53.9863C1.25 53.665 1.37761 53.3569 1.60477 53.1298C1.83192 52.9026 2.14001 52.775 2.46125 52.775H77.5387C77.86 52.775 78.1681 52.9026 78.3952 53.1298C78.6224 53.3569 78.75 53.665 78.75 53.9863C78.75 54.3075 78.6224 54.6156 78.3952 54.8428C78.1681 55.0699 77.86 55.1975 77.5387 55.1975Z" fill="white"/>
<path d="M49.5463 71.2425H29.1713C28.9696 71.24 28.7716 71.1876 28.5951 71.0898C28.4187 70.9921 28.2692 70.8521 28.16 70.6825C28.0509 70.5128 27.9856 70.3187 27.9699 70.1176C27.9542 69.9164 27.9886 69.7145 28.0701 69.53L32.0876 60.695C32.1838 60.4833 32.3389 60.3038 32.5344 60.1779C32.7299 60.052 32.9575 59.985 33.1901 59.985H45.5351C45.7674 59.9851 45.9948 60.0521 46.1901 60.178C46.3854 60.3039 46.5403 60.4834 46.6363 60.695L50.6551 69.53C50.7368 69.7151 50.7711 69.9177 50.755 70.1194C50.739 70.3211 50.673 70.5157 50.563 70.6856C50.453 70.8554 50.3025 70.9953 50.125 71.0925C49.9475 71.1897 49.7487 71.2413 49.5463 71.2425ZM31.0463 68.82H47.6651L44.7501 62.4075H33.9626L31.0463 68.82Z" fill="white"/>
<path d="M52.5788 71.2425H26.1325C25.8113 71.2425 25.5032 71.1148 25.276 70.8877C25.0489 70.6605 24.9213 70.3524 24.9213 70.0312C24.9213 69.71 25.0489 69.4019 25.276 69.1747C25.5032 68.9476 25.8113 68.8199 26.1325 68.8199H52.5788C52.9 68.8199 53.2081 68.9476 53.4353 69.1747C53.6624 69.4019 53.79 69.71 53.79 70.0312C53.79 70.3524 53.6624 70.6605 53.4353 70.8877C53.2081 71.1148 52.9 71.2425 52.5788 71.2425Z" fill="white"/>
<path d="M61.8163 50.375H18.1838C18.0248 50.375 17.8673 50.3437 17.7204 50.2828C17.5735 50.2219 17.4401 50.1327 17.3277 50.0202C17.2153 49.9077 17.1262 49.7742 17.0655 49.6272C17.0048 49.4803 16.9736 49.3228 16.9738 49.1638V45.1363C16.9736 44.9773 17.0048 44.8198 17.0655 44.6729C17.1262 44.5259 17.2153 44.3924 17.3277 44.2799C17.4401 44.1674 17.5735 44.0782 17.7204 44.0173C17.8673 43.9564 18.0248 43.925 18.1838 43.925H61.8163C61.9753 43.925 62.1327 43.9564 62.2796 44.0173C62.4265 44.0782 62.5599 44.1674 62.6723 44.2799C62.7847 44.3924 62.8738 44.5259 62.9345 44.6729C62.9953 44.8198 63.0264 44.9773 63.0263 45.1363V49.1625C63.0266 49.3217 62.9955 49.4793 62.9349 49.6264C62.8742 49.7735 62.7851 49.9071 62.6727 50.0198C62.5604 50.1324 62.4269 50.2217 62.2799 50.2827C62.1329 50.3437 61.9754 50.375 61.8163 50.375ZM19.395 47.9513H60.605V46.3463H19.395V47.9513Z" fill="#FFC72C"/>
<path d="M30.81 46.3462H23.6249C23.4659 46.3464 23.3085 46.3152 23.1615 46.2544C23.0146 46.1937 22.881 46.1046 22.7685 45.9922C22.656 45.8799 22.5668 45.7464 22.5059 45.5995C22.445 45.4526 22.4137 45.2952 22.4137 45.1362V38.3074C22.4137 37.9862 22.5413 37.6781 22.7685 37.451C22.9956 37.2238 23.3037 37.0962 23.6249 37.0962H30.805C31.1262 37.0962 31.4343 37.2238 31.6614 37.451C31.8886 37.6781 32.0162 37.9862 32.0162 38.3074V45.1362C32.0162 45.4565 31.8892 45.7637 31.6631 45.9905C31.437 46.2173 31.1302 46.3452 30.81 46.3462ZM24.8412 43.9249H29.6V39.5187H24.8412V43.9249Z" fill="#FFC72C"/>
<path d="M43.59 46.3463H36.41C36.251 46.3464 36.0935 46.3153 35.9465 46.2545C35.7996 46.1938 35.6661 46.1047 35.5536 45.9923C35.4411 45.8799 35.3518 45.7465 35.291 45.5996C35.2301 45.4527 35.1987 45.2953 35.1987 45.1363V32.2088C35.1987 32.0498 35.2301 31.8923 35.291 31.7454C35.3518 31.5986 35.4411 31.4651 35.5536 31.3527C35.6661 31.2404 35.7996 31.1513 35.9465 31.0905C36.0935 31.0298 36.251 30.9986 36.41 30.9988H43.59C43.749 30.9986 43.9065 31.0298 44.0534 31.0905C44.2004 31.1513 44.3339 31.2404 44.4464 31.3527C44.5589 31.4651 44.6481 31.5986 44.709 31.7454C44.7699 31.8923 44.8012 32.0498 44.8012 32.2088V45.1363C44.8012 45.2953 44.7699 45.4527 44.709 45.5996C44.6481 45.7465 44.5589 45.8799 44.4464 45.9923C44.3339 46.1047 44.2004 46.1938 44.0534 46.2545C43.9065 46.3153 43.749 46.3464 43.59 46.3463ZM37.625 43.925H42.375V33.425H37.625V43.925Z" fill="#FFC72C"/>
<path d="M56.375 46.3462H49.19C49.031 46.3464 48.8735 46.3152 48.7266 46.2545C48.5796 46.1937 48.4461 46.1046 48.3336 45.9923C48.2211 45.8799 48.1319 45.7464 48.071 45.5996C48.0101 45.4527 47.9788 45.2952 47.9788 45.1362V26.4037C47.9788 26.2447 48.0101 26.0873 48.071 25.9404C48.1319 25.7935 48.2211 25.6601 48.3336 25.5477C48.4461 25.4353 48.5796 25.3462 48.7266 25.2855C48.8735 25.2247 49.031 25.1936 49.19 25.1937H56.375C56.534 25.1936 56.6915 25.2247 56.8384 25.2855C56.9854 25.3462 57.1189 25.4353 57.2314 25.5477C57.3439 25.6601 57.4331 25.7935 57.494 25.9404C57.5549 26.0873 57.5863 26.2447 57.5863 26.4037V45.1362C57.5863 45.2952 57.5549 45.4527 57.494 45.5996C57.4331 45.7464 57.3439 45.8799 57.2314 45.9923C57.1189 46.1046 56.9854 46.1937 56.8384 46.2545C56.6915 46.3152 56.534 46.3464 56.375 46.3462ZM50.4 43.925H55.1588V27.615H50.4V43.925Z" fill="#FFC72C"/>
<path d="M23.9525 29.1475C23.697 29.143 23.4494 29.0583 23.2447 28.9054C23.0401 28.7524 22.8887 28.5389 22.8121 28.2951C22.7355 28.0514 22.7375 27.7897 22.8179 27.5471C22.8983 27.3046 23.053 27.0935 23.26 26.9437L32.635 20.4162C32.8437 20.2704 33.093 20.1942 33.3476 20.1985C33.6021 20.2027 33.8488 20.2872 34.0525 20.44L40.015 24.9037L52.075 16.2662C52.2042 16.1736 52.3503 16.1074 52.5051 16.0713C52.6599 16.0352 52.8203 16.0299 52.9771 16.0558C53.1339 16.0817 53.2841 16.1382 53.4191 16.2222C53.554 16.3061 53.6712 16.4158 53.7637 16.545C53.8563 16.6741 53.9226 16.8203 53.9586 16.9751C53.9947 17.1299 54 17.2902 53.9741 17.4471C53.9482 17.6039 53.8917 17.7541 53.8078 17.889C53.7239 18.024 53.6142 18.1411 53.485 18.2337L40.705 27.3875C40.496 27.5377 40.2445 27.6174 39.9871 27.6149C39.7297 27.6124 39.4798 27.5279 39.2737 27.3737L33.3012 22.9025L24.6437 28.93C24.4409 29.0712 24.1997 29.1471 23.9525 29.1475Z" fill="#FFC72C"/>
<path d="M52.7812 22.2901C52.6051 22.2899 52.4311 22.2514 52.2714 22.1773C52.1116 22.1031 51.9699 21.9951 51.8561 21.8607C51.7423 21.7263 51.6591 21.5688 51.6123 21.399C51.5655 21.2292 51.5561 21.0513 51.585 20.8776L52.1275 17.6663L48.1275 17.9051C47.8116 17.9161 47.5039 17.8031 47.2701 17.5904C47.0363 17.3777 46.8949 17.082 46.8762 16.7664C46.8574 16.4509 46.9627 16.1405 47.1697 15.9016C47.3766 15.6626 47.6687 15.5141 47.9837 15.4876L53.4962 15.1576C53.6776 15.1484 53.8587 15.1799 54.0264 15.2497C54.194 15.3194 54.344 15.4257 54.4653 15.5608C54.5866 15.696 54.6763 15.8564 54.7277 16.0306C54.7791 16.2048 54.791 16.3882 54.7625 16.5676L53.9687 21.2801C53.9213 21.5613 53.7763 21.8167 53.5591 22.0015C53.3418 22.1862 53.0664 22.2884 52.7812 22.2901Z" fill="#FFC72C"/>
</svg>
