<svg width="80" height="81" viewBox="0 0 80 81" fill="none" xmlns="http://www.w3.org/2000/svg">
<path d="M28.1994 64.4898C29.0112 64.4898 29.6694 63.8317 29.6694 63.0198C29.6694 62.208 29.0112 61.5498 28.1994 61.5498C27.3875 61.5498 26.7294 62.208 26.7294 63.0198C26.7294 63.8317 27.3875 64.4898 28.1994 64.4898Z" fill="#305BEF"/>
<path d="M45.266 45.6173C45.0796 45.431 44.873 45.2796 44.6577 45.1471L45.266 44.5388C46.5542 43.2506 46.5542 41.1557 45.266 39.8675C44.614 39.2155 43.7555 38.8963 42.8993 38.9044V18.92C42.8993 16.7581 41.1407 15 38.9793 15H17.4193C15.2578 15 13.4993 16.7581 13.4993 18.92V38.3272C12.7886 38.1589 12.1135 38.1975 11.5814 38.4722C10.9397 38.8014 10.5502 39.4359 10.5114 40.212C10.4894 40.6446 10.4727 41.1624 10.4535 41.7452C10.3492 44.9359 10.1741 50.2762 8.74045 53.3722C6.59861 57.9994 6.91826 63.2124 9.59938 67.7812C8.38922 69.1919 7.59871 69.7508 7.43841 69.857C6.98765 70.1556 6.86419 70.7643 7.16326 71.2151C7.3518 71.4993 7.66331 71.6534 7.98104 71.6534C8.16719 71.6534 8.35524 71.6007 8.52177 71.4897C8.91894 71.2266 10.0114 70.4064 11.5646 68.4837C11.8302 68.1545 11.8551 67.6932 11.6269 67.3381C8.97109 63.2018 8.56771 58.4119 10.5191 54.1952C12.1202 50.7384 12.303 45.1494 12.4126 41.8093C12.4312 41.2399 12.4475 40.7327 12.4686 40.3097C12.4719 40.2503 12.481 40.2187 12.4791 40.2139C12.5823 40.1577 12.9797 40.1628 13.4993 40.3929V64C13.4993 66.1619 15.2578 67.92 17.4193 67.92H36.0833C35.8676 68.1703 35.655 68.4141 35.433 68.6751C32.2815 72.3798 28.7089 76.584 22.5145 75.5246C22.2705 75.4863 22.0197 75.5361 21.8125 75.672C19.7798 77.007 18.6893 78.188 18.5706 79.1814C18.507 79.7183 18.8879 80.2226 19.4252 80.2868C19.4659 80.2915 19.5066 80.2935 19.5463 80.2935C20.0339 80.2935 20.4521 79.9422 20.5115 79.4455C20.5134 79.4388 20.7153 78.7938 22.5782 77.5181C29.6353 78.5191 33.84 73.5732 36.926 69.9451C37.5518 69.2101 38.1458 68.5165 38.7149 67.92H38.9793C41.1407 67.92 42.8993 66.1619 42.8993 64V63.6708C43.3579 63.5128 43.7913 63.263 44.1568 62.8975L45.266 61.7883C46.5542 60.5001 46.5542 58.4052 45.266 57.117C45.0796 56.9307 44.873 56.7793 44.6577 56.6468L45.266 56.0385C46.5542 54.7503 46.5542 52.6554 45.266 51.3672C45.0796 51.1808 44.873 51.0294 44.6577 50.8969L45.266 50.2886C46.5542 49.0005 46.5542 46.9055 45.266 45.6173ZM43.8802 60.4025L42.771 61.5117C42.2676 62.0161 41.466 62.0227 40.9393 61.5569C40.9184 61.5383 40.8914 61.5318 40.8713 61.5117C40.4849 61.1253 40.3882 60.5604 40.5722 60.08C40.6375 59.9097 40.7342 59.7491 40.8713 59.612L41.9805 58.5028C42.0955 58.3876 42.2309 58.3084 42.3707 58.2441C42.5393 58.1664 42.717 58.1207 42.8993 58.1165C42.9099 58.1162 42.9198 58.1104 42.9304 58.1104C43.2744 58.1104 43.6185 58.2406 43.8802 58.5028C44.4037 59.0263 44.4037 59.879 43.8802 60.4025ZM43.8802 41.2533C44.4037 41.7768 44.4037 42.6295 43.8802 43.153L42.771 44.2622C42.2676 44.7666 41.466 44.7731 40.9393 44.3074C40.9184 44.2888 40.8914 44.2822 40.8713 44.2622C40.3478 43.7387 40.3478 42.886 40.8713 42.3625L41.9805 41.2533C42.2342 40.9991 42.5659 40.8747 42.8993 40.8669C42.9099 40.8667 42.9198 40.8609 42.9304 40.8609C43.2744 40.8609 43.6185 40.9911 43.8802 41.2533ZM42.771 55.7619C42.2676 56.2663 41.466 56.2728 40.9393 55.807C40.9184 55.7885 40.8914 55.7819 40.8713 55.7619C40.3478 55.2384 40.3478 54.3857 40.8713 53.8622L41.9805 52.753C42.2342 52.4988 42.5659 52.3744 42.8993 52.3666C42.9099 52.3664 42.9198 52.3606 42.9304 52.3606C43.2744 52.3606 43.6185 52.4907 43.8802 52.753C44.4037 53.2765 44.4037 54.1292 43.8802 54.6527L42.771 55.7619ZM42.771 50.012C42.2676 50.5164 41.466 50.523 40.9393 50.0572C40.9184 50.0387 40.8914 50.0321 40.8713 50.012C40.3478 49.4885 40.3478 48.6358 40.8713 48.1123L41.9805 47.0031C42.2342 46.749 42.5659 46.6246 42.8993 46.6168C42.9099 46.6165 42.9198 46.6107 42.9304 46.6107C43.2744 46.6107 43.6185 46.7409 43.8802 47.0031C44.4037 47.5266 44.4037 48.3793 43.8802 48.9028L42.771 50.012ZM40.5948 39.8675L39.4856 40.9767C38.1974 42.2649 38.1974 44.3598 39.4856 45.648C39.672 45.8344 39.8786 45.9857 40.0939 46.1182L39.4856 46.7265C38.1974 48.0147 38.1974 50.1097 39.4856 51.3978C39.672 51.5843 39.8786 51.7356 40.0939 51.868L39.4856 52.4764C38.1974 53.7646 38.1974 55.8595 39.4856 57.1477C39.672 57.3341 39.8786 57.4854 40.0939 57.6179L39.5918 58.12H15.4593V24.8H40.9393V39.5862C40.8219 39.6755 40.7019 39.7604 40.5948 39.8675ZM15.4593 18.92C15.4593 17.8395 16.3383 16.96 17.4193 16.96H38.9793C40.0603 16.96 40.9393 17.8395 40.9393 18.92V22.84H15.4593V18.92ZM40.9393 64C40.9393 65.0805 40.0603 65.96 38.9793 65.96H17.4193C16.3383 65.96 15.4593 65.0805 15.4593 64V60.08H38.5656C38.4192 61.0784 38.7186 62.1305 39.4856 62.8975C39.9027 63.3147 40.4077 63.5819 40.9393 63.7287V64Z" fill="#305BEF"/>
<line x1="25" y1="20" x2="31" y2="20" stroke="#305BEF" stroke-width="2" stroke-linecap="round"/>
<circle cx="53.5" cy="17.5" r="15.5" fill="white" stroke="#FFC72C" stroke-width="2"/>
<path d="M50 24V12L59 18L50 24Z" stroke="#FFC72C" stroke-width="2" stroke-linejoin="round"/>
</svg>
