<svg width="80" height="80" viewBox="0 0 80 80" fill="none" xmlns="http://www.w3.org/2000/svg">
<path d="M21.7947 19.4312C22.2838 19.5511 22.7822 19.2466 22.9022 18.7482C24.8865 10.4694 32.104 4.69172 40.4659 4.69172C47.9879 4.69172 54.5777 9.36182 57.2727 16.3208L53.8993 14.0762C53.4757 13.7938 52.9025 13.9092 52.6192 14.3319C52.3368 14.7555 52.4512 15.3296 52.8749 15.612L58.4125 19.3038C58.6525 19.4635 58.9524 19.5013 59.2238 19.409C59.4951 19.3158 59.7083 19.1007 59.7997 18.8285L61.6456 13.2908C61.8071 12.8072 61.5459 12.2848 61.0623 12.1233C60.9654 12.09 60.8666 12.0753 60.7706 12.0753C60.3839 12.0753 60.024 12.3199 59.8948 12.7066L58.9423 15.5631C55.9612 7.94971 48.7161 2.84583 40.4659 2.84583C31.2456 2.84583 23.2898 9.21415 21.1117 18.3236C20.9917 18.8128 21.2963 19.3112 21.7947 19.4312Z" fill="#FFC72C"/>
<path d="M52.3995 18.1945C52.3902 18.1853 52.3902 18.176 52.381 18.1668C51.0427 14.9734 48.4493 12.4353 45.219 11.1524C45.1728 11.1247 45.1267 11.1063 45.0805 11.0971C43.6407 10.5433 42.0902 10.2295 40.4658 10.2295C38.8414 10.2295 37.2909 10.5433 35.8603 11.0971C35.8141 11.1063 35.768 11.1247 35.7218 11.1432C32.4915 12.4261 29.8888 14.9642 28.5506 18.1668C28.5413 18.176 28.5413 18.1853 28.5321 18.1945C27.8953 19.7174 27.5446 21.3971 27.5446 23.1507C27.5446 24.9043 27.8953 26.5841 28.5321 28.1069C28.5413 28.1162 28.5413 28.1254 28.5506 28.1346C29.8888 31.3372 32.4823 33.8753 35.7126 35.1582C35.768 35.1859 35.8234 35.2044 35.888 35.2228C37.3093 35.7582 38.8506 36.072 40.4658 36.072C42.0809 36.072 43.6223 35.7582 45.0436 35.2228C45.1082 35.2044 45.1636 35.1859 45.219 35.1582C48.4493 33.8753 51.0427 31.3372 52.381 28.1346C52.3902 28.1254 52.3902 28.1162 52.3995 28.1069C53.0363 26.5841 53.387 24.9043 53.387 23.1507C53.387 21.3971 53.0363 19.7174 52.3995 18.1945ZM29.3904 23.1507C29.3904 21.8586 29.6304 20.6126 30.0365 19.4589H33.3222C33.1745 20.6865 33.0822 21.9232 33.0822 23.1507C33.0822 24.3782 33.1745 25.615 33.3222 26.8425H30.0365C29.6304 25.6888 29.3904 24.4428 29.3904 23.1507ZM30.8856 28.6884H33.5806C33.8114 29.9436 34.1067 31.208 34.4943 32.4632C33.0084 31.5126 31.7716 30.2113 30.8856 28.6884ZM33.5806 17.6131H30.8856C31.7716 16.0902 33.0084 14.7888 34.4943 13.8382C34.1159 15.0934 33.8114 16.3578 33.5806 17.6131ZM39.5428 34.1799C38.5922 34.0969 37.6877 33.903 36.8202 33.5985C36.2202 31.9741 35.768 30.3312 35.4542 28.6884H39.5428V34.1799ZM39.5428 26.8425H35.1773C35.0296 25.615 34.9281 24.3782 34.9281 23.1507C34.9281 21.9232 35.0204 20.6865 35.1773 19.4589H39.5428V26.8425ZM39.5428 17.6131H35.4634C35.7772 15.9794 36.2295 14.3366 36.8202 12.703C37.6785 12.3984 38.5922 12.2046 39.5428 12.1215V17.6131ZM50.046 17.6131H47.351C47.1202 16.3578 46.8156 15.0934 46.4372 13.8382C47.9232 14.7888 49.1599 16.0902 50.046 17.6131ZM41.3887 12.1215C42.3394 12.2046 43.2531 12.3984 44.1114 12.703C44.7021 14.3366 45.1636 15.9794 45.4681 17.6131H41.3887V12.1215ZM44.1114 33.5985C43.2439 33.903 42.3394 34.0969 41.3887 34.1799V28.6884H45.4774C45.1636 30.3312 44.7113 31.9741 44.1114 33.5985ZM45.7543 26.8425H41.3887V19.4589H45.7543C45.9019 20.6865 46.0035 21.9232 46.0035 23.1507C46.0035 24.3782 45.9019 25.615 45.7543 26.8425ZM46.4372 32.4632C46.8249 31.208 47.1202 29.9436 47.351 28.6884H50.046C49.1599 30.2113 47.9232 31.5126 46.4372 32.4632ZM50.8951 26.8425H47.6094C47.7571 25.615 47.8493 24.3782 47.8493 23.1507C47.8493 21.9232 47.7571 20.6865 47.6094 19.4589H50.8951C51.3012 20.6126 51.5411 21.8586 51.5411 23.1507C51.5411 24.4428 51.3012 25.6888 50.8951 26.8425Z" fill="#FFC72C"/>
<path d="M59.137 26.8701C58.6478 26.7501 58.1494 27.0547 58.0295 27.5531C56.0451 35.8319 48.8277 41.6095 40.4658 41.6095C32.9438 41.6095 26.354 36.9394 23.659 29.9804L27.0323 32.225C27.456 32.5074 28.0291 32.3921 28.3125 31.9694C28.5949 31.5457 28.4804 30.9717 28.0568 30.6892L22.5191 26.9975C22.2792 26.8378 21.9792 26.7999 21.7079 26.8922C21.4365 26.9855 21.2233 27.2005 21.132 27.4728L19.2861 33.0104C19.1246 33.4941 19.3857 34.0165 19.8694 34.178C19.9663 34.2112 20.065 34.226 20.161 34.226C20.5477 34.226 20.9077 33.9814 21.0369 33.5947L21.9894 30.7382C24.9705 38.3515 32.2147 43.4554 40.4658 43.4554C49.686 43.4554 57.6418 37.0871 59.82 27.9776C59.94 27.4885 59.6354 26.9901 59.137 26.8701Z" fill="#FFC72C"/>
<path d="M69.9996 45.8366C70.0121 45.0397 69.6822 44.2585 69.1035 43.6874C66.8901 41.5706 63.3458 41.6283 61.2012 43.8178L57.3081 47.8073L53.5687 49.9665C52.8555 49.093 51.7855 48.5161 50.5657 48.4973L41.7166 48.3642L39.8568 47.0219C38.8004 46.2547 37.4968 45.8203 36.1863 45.8002L30.1877 45.708C28.5327 45.6825 26.954 46.2801 25.7413 47.3917L20.3392 52.3526C19.6641 51.9455 18.9022 51.6988 18.0884 51.6781C16.8618 51.6464 15.6985 52.0867 14.8135 52.9193L8.13589 59.1961C7.2509 60.0275 6.74533 61.1552 6.7139 62.3709C6.68188 63.586 7.12637 64.7383 7.9669 65.6149L18.4781 76.5892C18.4897 76.6011 18.5019 76.6135 18.5135 76.6254C19.3497 77.4798 20.4736 77.9669 21.6837 77.9984C22.9104 78.0301 24.0736 77.5898 24.9586 76.7572L31.6362 70.4804C33.1679 69.0406 33.4686 66.7953 32.5133 65.0367L32.984 64.6998C34.3449 63.7336 35.9479 63.2358 37.6195 63.2615L47.7509 63.4178C50.24 63.4561 52.6828 62.6433 54.6298 61.1292L60.3417 56.6937C60.5675 56.5517 60.7825 56.3855 60.9861 56.1934L60.998 56.1843C60.9998 56.1825 61.0005 56.1808 61.0023 56.1791C61.0286 56.1538 61.0572 56.1343 61.083 56.1084L69.1738 47.8267C69.6943 47.2888 69.9879 46.5821 69.9996 45.8366ZM30.4869 69.2811L23.8093 75.5578C23.2476 76.0857 22.5075 76.3659 21.7262 76.3452C20.9454 76.325 20.2062 75.9793 19.6883 75.4501L9.17531 64.4752C8.64186 63.9183 8.35953 63.1857 8.3805 62.4117C8.40088 61.6383 8.72126 60.9209 9.28351 60.3925L15.9611 54.1157C16.5228 53.5879 17.2629 53.3076 18.0443 53.3284C18.8144 53.3484 19.5294 53.6575 20.0601 54.1998C20.0676 54.2075 20.0752 54.2152 20.0827 54.2229L30.5957 65.1978C31.7021 66.3544 31.6527 68.1857 30.4869 69.2811ZM47.7762 61.7649L37.6448 61.6086C35.6128 61.5779 33.6653 62.1821 32.0092 63.357L31.4883 63.7294L21.6203 53.4278L26.8746 48.603C27.7706 47.7829 28.938 47.3409 30.1619 47.3591L36.1604 47.4513C37.1277 47.4662 38.0896 47.7866 38.8719 48.3544L40.9481 49.8538C40.972 49.8711 41.0009 49.8744 41.026 49.8894C41.0751 49.9182 41.1243 49.9412 41.1795 49.9596C41.2341 49.9774 41.2864 49.9881 41.3417 49.9948C41.3712 49.9988 41.3963 50.0126 41.427 50.0131L50.5399 50.1496C51.8021 50.169 52.8142 51.2032 52.7946 52.4535C52.775 53.7039 51.731 54.7064 50.4688 54.687L40.0029 54.5262C39.5417 54.5191 39.1631 54.8826 39.156 55.3395C39.1524 55.5674 39.2424 55.7756 39.391 55.9275C39.5397 56.0794 39.747 56.1749 39.977 56.1785L50.4429 56.3393C52.6252 56.3729 54.4288 54.641 54.4626 52.4792C54.4683 52.1193 54.4087 51.7771 54.3225 51.4444L58.2494 49.1776C58.2834 49.1577 58.3039 49.1265 58.3338 49.1035C58.3648 49.0795 58.4016 49.0672 58.4292 49.0384L62.4015 44.9683C63.9057 43.4328 66.3937 43.3916 67.9398 44.8705C68.2009 45.117 68.3395 45.4581 68.3333 45.8116C68.3282 46.1423 68.2025 46.4437 67.974 46.6803L59.9252 54.9195L53.6018 59.8295C51.9522 61.1097 49.8842 61.7973 47.7762 61.7649Z" fill="#305BEF"/>
<path d="M25.6936 69.1097C26.5261 69.9603 27.8972 69.9814 28.756 69.1567C29.6147 68.332 29.636 66.9739 28.8035 66.1232C27.971 65.2725 26.5999 65.2515 25.7411 66.0761C24.8824 66.9008 24.8611 68.259 25.6936 69.1097Z" fill="#305BEF"/>
</svg>
