<svg width="208" height="169" viewBox="0 0 208 169" fill="none" xmlns="http://www.w3.org/2000/svg">
<path d="M26.2949 103.394C26.2949 103.394 10.1743 80.345 4.61963 83.9828C-0.934992 87.6206 7.09909 102.376 26.2949 103.394Z" fill="#002271"/>
<path d="M60.881 148.61C60.881 148.61 58.2156 121.726 68.9056 123.5C79.7242 125.356 60.881 148.61 60.881 148.61Z" fill="#002271"/>
<path d="M48.6184 127.027C48.6184 127.027 45.9529 100.143 56.6429 101.917C67.4954 103.878 48.6184 127.027 48.6184 127.027Z" fill="#002271"/>
<path d="M31.2398 105.416C31.2398 105.416 28.5746 78.5343 39.2637 80.3084C49.9529 82.0826 31.2398 105.416 31.2398 105.416Z" fill="#002271"/>
<path d="M57.1047 145.59C57.1047 145.59 36.9184 128.339 31.6256 130.576C26.3058 133.051 26.0095 141.776 57.1047 145.59Z" fill="#002271"/>
<path d="M43.6362 123.599C43.6362 123.599 23.4507 106.349 18.1581 108.586C12.8384 111.06 12.6381 119.761 43.6362 123.599Z" fill="#002271"/>
<path d="M19.3846 96.5358C37.6987 105.353 60.341 150.081 60.341 150.081C61.1271 149.106 63.4694 140.837 63.4694 140.837" stroke="#15405E" stroke-miterlimit="10" stroke-linecap="round" stroke-linejoin="round"/>
<path d="M32.6567 97.5779L30.5276 105.416" stroke="#15405E" stroke-miterlimit="10" stroke-linecap="round" stroke-linejoin="round"/>
<path d="M43.6365 122.822L32.2706 117.885" stroke="#15405E" stroke-miterlimit="10" stroke-linecap="round" stroke-linejoin="round"/>
<path d="M47.9671 127.027L50.4683 117.527" stroke="#15405E" stroke-miterlimit="10" stroke-linecap="round" stroke-linejoin="round"/>
<path d="M57.1047 144.905L43.5865 139.108" stroke="#15405E" stroke-miterlimit="10" stroke-linecap="round" stroke-linejoin="round"/>
<rect x="57.0752" y="17.9338" width="123.868" height="140.134" rx="8.18731" fill="#305BEF"/>
<rect x="67.502" y="27.1091" width="103.015" height="130.958" fill="white"/>
<rect x="82.0991" y="13.7632" width="73.8204" height="19.185" fill="#0E3AA1"/>
<path fill-rule="evenodd" clip-rule="evenodd" d="M119.218 19.185C124.516 19.185 128.81 14.8903 128.81 9.59248C128.81 4.2947 124.516 0 119.218 0C113.92 0 109.625 4.2947 109.625 9.59248C109.625 14.8903 113.92 19.185 119.218 19.185ZM119.218 12.929C121.061 12.929 122.554 11.4351 122.554 9.59244C122.554 7.74973 121.061 6.25592 119.218 6.25592C117.375 6.25592 115.881 7.74973 115.881 9.59244C115.881 11.4351 117.375 12.929 119.218 12.929Z" fill="#0E3AA1"/>
<rect x="77.9287" y="48.3794" width="82.9958" height="2.08532" fill="#C3D4FA"/>
<rect x="77.9287" y="54.2183" width="17.0996" height="2.08532" fill="#C3D4FA"/>
<rect x="100.867" y="54.2183" width="17.0996" height="2.08532" fill="#C3D4FA"/>
<rect x="123.806" y="54.2183" width="37.1187" height="2.08532" fill="#C3D4FA"/>
<rect x="77.9287" y="123.034" width="82.9958" height="2.08532" fill="#C3D4FA"/>
<rect x="77.9287" y="128.873" width="17.0996" height="2.08532" fill="#C3D4FA"/>
<rect x="100.867" y="128.873" width="17.0996" height="2.08532" fill="#C3D4FA"/>
<rect x="123.806" y="128.873" width="37.1187" height="2.08532" fill="#C3D4FA"/>
<rect x="160.924" y="145.138" width="82.9958" height="2.08532" transform="rotate(180 160.924 145.138)" fill="#C3D4FA"/>
<rect x="160.924" y="139.3" width="17.0996" height="2.08532" transform="rotate(180 160.924 139.3)" fill="#C3D4FA"/>
<rect x="137.986" y="139.3" width="17.0996" height="2.08532" transform="rotate(180 137.986 139.3)" fill="#C3D4FA"/>
<rect x="115.047" y="139.3" width="37.1187" height="2.08532" transform="rotate(180 115.047 139.3)" fill="#C3D4FA"/>
<rect width="17.0996" height="2.08532" transform="matrix(-1 0 0 1 160.924 66.3132)" fill="#C3D4FA"/>
<rect width="17.0996" height="2.08532" transform="matrix(-1 0 0 1 137.986 66.3132)" fill="#C3D4FA"/>
<rect width="37.1187" height="2.08532" transform="matrix(-1 0 0 1 115.047 66.3132)" fill="#C3D4FA"/>
<rect x="77.9287" y="71.7351" width="82.9958" height="2.08532" fill="#C3D4FA"/>
<rect x="77.9287" y="77.157" width="17.0996" height="2.08532" fill="#C3D4FA"/>
<rect x="100.867" y="77.157" width="17.0996" height="2.08532" fill="#C3D4FA"/>
<rect x="123.806" y="77.157" width="37.1187" height="2.08532" fill="#C3D4FA"/>
<rect width="17.0996" height="2.08532" transform="matrix(-1 0 0 1 160.924 88.0005)" fill="#C3D4FA"/>
<rect width="17.0996" height="2.08532" transform="matrix(-1 0 0 1 137.986 88.0005)" fill="#C3D4FA"/>
<rect width="37.1187" height="2.08532" transform="matrix(-1 0 0 1 115.047 88.0005)" fill="#C3D4FA"/>
<rect x="77.9287" y="93.4224" width="31.6969" height="2.08532" fill="#C3D4FA"/>
<rect x="77.9287" y="98.8442" width="17.0996" height="2.08532" fill="#C3D4FA"/>
<rect x="100.867" y="98.8442" width="17.0996" height="2.08532" fill="#C3D4FA"/>
<rect x="123.806" y="98.8442" width="37.1187" height="2.08532" fill="#C3D4FA"/>
<path d="M115.191 71.6408C114.918 77.1502 114.451 97.1438 120.038 117.936C125.606 138.727 137.229 160.317 161.135 169V60.0574L115.191 71.6408Z" fill="#8CACF6"/>
<path d="M207.079 71.6408L161.135 60.0574V169C208.968 151.596 207.605 82.6597 207.079 71.6408Z" fill="#C3D4FA"/>
<path d="M161.135 156.774C142.602 150.019 133.588 133.296 129.266 117.157C124.944 101.037 125.314 85.5214 125.509 81.2579L161.135 72.2637L196.762 81.2579C197.17 89.8043 198.222 143.283 161.135 156.774Z" stroke="#0E3AA1" stroke-miterlimit="10" stroke-linecap="round" stroke-linejoin="round"/>
<path d="M169.507 111.609V107.112C169.507 102.108 165.73 98.02 161.135 98.02C157.69 98.02 154.691 100.317 153.426 103.588C153.134 104.308 152.939 105.087 152.842 105.885C152.784 106.294 152.764 106.703 152.764 107.131V111.628" stroke="#0E3AA1" stroke-miterlimit="10" stroke-linecap="round" stroke-linejoin="round"/>
<path d="M174.159 111.609H148.092V131.018H174.159V111.609Z" fill="white"/>
<path d="M164.133 118.889C164.133 120.058 163.471 121.07 162.518 121.557V125.372C162.518 126.132 161.895 126.735 161.155 126.735C160.415 126.735 159.792 126.132 159.792 125.372V121.557C158.838 121.07 158.157 120.038 158.157 118.889C158.157 117.235 159.5 115.911 161.155 115.911C162.81 115.911 164.133 117.235 164.133 118.889Z" stroke="#0E3AA1" stroke-miterlimit="10" stroke-linecap="round" stroke-linejoin="round"/>
</svg>
