<svg width="233" height="117" viewBox="0 0 233 117" fill="none" xmlns="http://www.w3.org/2000/svg">
<path d="M205.307 19.7044H173.403V104.839H229.84C231.034 104.839 232.002 103.871 232.002 102.677V71.2833C232.002 70.5625 231.643 69.8891 231.044 69.4877L220.282 62.2715L205.307 19.7044Z" fill="#DAEE32" stroke="#1E1E1C" stroke-width="0.75" stroke-linecap="round" stroke-linejoin="round"/>
<path d="M173.955 78.3031H232.001" stroke="#1E1E1C" stroke-width="0.75" stroke-linecap="round" stroke-linejoin="round"/>
<path d="M24.6427 117C32.2732 117 38.459 110.812 38.459 103.179C38.459 95.5466 32.2732 89.3589 24.6427 89.3589C17.0122 89.3589 10.8264 95.5466 10.8264 103.179C10.8264 110.812 17.0122 117 24.6427 117Z" fill="#1E1E1C"/>
<path d="M145.122 117C152.752 117 158.938 110.812 158.938 103.179C158.938 95.5466 152.752 89.3589 145.122 89.3589C137.491 89.3589 131.306 95.5466 131.306 103.179C131.306 110.812 137.491 117 145.122 117Z" fill="#1E1E1C"/>
<path d="M0.922119 0.908356H173.402V104.838H3.08397C1.89002 104.838 0.922119 103.87 0.922119 102.676V0.908356Z" fill="#7A84F0" stroke="#1E1E1C" stroke-width="0.75" stroke-linecap="round" stroke-linejoin="round"/>
<path d="M0.922119 0.908356H68.366V102.676C68.366 103.87 67.3981 104.838 66.2042 104.838H3.08396C1.89001 104.838 0.922119 103.87 0.922119 102.676V0.908356Z" fill="#7A84F0" stroke="#1E1E1C" stroke-width="0.75" stroke-linecap="round" stroke-linejoin="round"/>
<path d="M11.009 9.41528H57.4272V93.7708C57.4272 94.4872 56.8465 95.0679 56.1301 95.0679H12.3061C11.5898 95.0679 11.009 94.4872 11.009 93.7708V9.41528Z" fill="white" stroke="#1E1E1C" stroke-width="0.75" stroke-linecap="round" stroke-linejoin="round"/>
<path d="M11.4247 29.1021H56.7558" stroke="#1E1E1C" stroke-width="0.75" stroke-linecap="round" stroke-linejoin="round"/>
<path d="M11.4247 50.6616H56.7558" stroke="#1E1E1C" stroke-width="0.75" stroke-linecap="round" stroke-linejoin="round"/>
<path d="M11.4247 76.0916H56.7558" stroke="#1E1E1C" stroke-width="0.75" stroke-linecap="round" stroke-linejoin="round"/>
<path d="M197.07 117C204.701 117 210.886 110.812 210.886 103.179C210.886 95.5466 204.701 89.3589 197.07 89.3589C189.44 89.3589 183.254 95.5466 183.254 103.179C183.254 110.812 189.44 117 197.07 117Z" fill="#1E1E1C"/>
<path d="M197.07 109.26C200.427 109.26 203.149 106.537 203.149 103.179C203.149 99.8201 200.427 97.0975 197.07 97.0975C193.712 97.0975 190.991 99.8201 190.991 103.179C190.991 106.537 193.712 109.26 197.07 109.26Z" fill="white"/>
<path d="M90.962 117C98.5925 117 104.778 110.812 104.778 103.179C104.778 95.5466 98.5925 89.3589 90.962 89.3589C83.3315 89.3589 77.1458 95.5466 77.1458 103.179C77.1458 110.812 83.3315 117 90.962 117Z" fill="#1E1E1C"/>
<path d="M90.9619 109.26C94.3193 109.26 97.041 106.537 97.041 103.179C97.041 99.8201 94.3193 97.0975 90.9619 97.0975C87.6044 97.0975 84.8827 99.8201 84.8827 103.179C84.8827 106.537 87.6044 109.26 90.9619 109.26Z" fill="white"/>
<circle cx="121.438" cy="50.662" r="27.6409" fill="white" stroke="#1E1E1C" stroke-width="0.75" stroke-linecap="round" stroke-linejoin="round"/>
<path d="M134.73 50.1615C131.469 49.729 128.44 48.2335 126.114 45.9062C123.787 43.5789 122.292 40.5496 121.859 37.2868L121.403 33.8226H121.314L120.857 37.2868C120.425 40.5496 118.93 43.5789 116.603 45.9062C114.277 48.2335 111.248 49.729 107.987 50.1615L104.523 50.6186V50.7068L107.987 51.1639C111.248 51.5963 114.277 53.0919 116.603 55.4192C118.93 57.7465 120.425 60.7758 120.857 64.0385L121.314 67.5028H121.403L121.859 64.0385C122.292 60.7758 123.787 57.7465 126.114 55.4192C128.44 53.0919 131.469 51.5963 134.73 51.1639L138.193 50.7068V50.6186L134.73 50.1615Z" fill="#32E476" stroke="#1E1E1C" stroke-width="0.75" stroke-miterlimit="10" stroke-linecap="round" stroke-linejoin="round"/>
<path d="M26.4833 70.754H57.4288V93.7712C57.4288 94.4876 56.848 95.0683 56.1317 95.0683H26.4833V70.754Z" fill="#16A44C" stroke="#1E1E1C" stroke-width="0.75" stroke-linecap="round" stroke-linejoin="round"/>
<path d="M17.6414 70.754H48.5868V95.0683H17.6414V70.754Z" fill="#16A44C" stroke="#1E1E1C" stroke-width="0.75" stroke-linecap="round" stroke-linejoin="round"/>
<path d="M29.661 70.6712H53.2549V95.1725H29.661V70.6712Z" fill="#32E476" stroke="#1E1E1C" stroke-width="0.75" stroke-linecap="round" stroke-linejoin="round"/>
<path d="M40.3926 88.8496H46.058V91.8974H40.3926V88.8496Z" fill="white"/>
<path d="M26.3523 46.301H57.1416V70.6223H26.3523V46.301Z" fill="#C4D62D" stroke="#1E1E1C" stroke-width="0.75" stroke-linecap="round" stroke-linejoin="round"/>
<path d="M38.6819 46.239H57.3082V70.6212H38.6819V46.239Z" fill="#DAEE32" stroke="#1E1E1C" stroke-width="0.75" stroke-linecap="round" stroke-linejoin="round"/>
<path d="M48.925 64.525H54.5129V67.5728H48.925V64.525Z" fill="white"/>
<path d="M180.88 59.247L210.96 59.247L200.718 29.1672L180.88 29.1672V59.247Z" fill="white" stroke="#1E1E1C" stroke-width="0.75" stroke-linecap="round" stroke-linejoin="round"/>
<rect x="205.466" y="52.873" width="6.63383" height="9.95074" fill="#C4D62D" stroke="#1E1E1C" stroke-width="0.75" stroke-linecap="round" stroke-linejoin="round"/>
<path d="M10.4573 9.41528H17.641V95.0679H11.7544C11.038 95.0679 10.4573 94.4872 10.4573 93.7708V9.41528Z" fill="#626AC0" stroke="#1E1E1C" stroke-width="0.75" stroke-linecap="round" stroke-linejoin="round"/>
</svg>
