<svg width="1222" height="1000" viewBox="0 0 1222 1000" fill="none" xmlns="http://www.w3.org/2000/svg"><g clip-path="url(#clip0)"><path stroke="#EBEEF3" stroke-width="4" d="M268 859h1050"/><g opacity=".8" fill="#DFE2EC"><path opacity=".5" d="M1221 729h-43v23h43v-23zM1212.57 763.032h-49.36v22.629h49.36v-22.629zM1095.57 363.954h-49.36v22.629h49.36v-22.629zM345 819.665h49.366v-22.63H345v22.63zM369.643 785.629h49.366V763h-49.366v22.629zM1049.52 620.987h49.36v-22.629h-49.36v22.629zM686.074 480.483h-49.366v22.629h49.366v-22.629zM803.88 99h-49.366v22.629h49.366V99zM833.224 133.049h-49.365v22.629h49.365v-22.629zM773.365 133.049H724v22.629h49.365v-22.629z"/></g><g opacity=".8" fill="#DFE2EC"><path opacity=".5" d="M605 74.8785h43.318v19.8573H605V74.8785zM1056.43 195.745h43.31v19.857h-43.31v-19.857zM1096 265.879h43.32v19.857H1096v-19.857zM604 404.879h43.318v19.857H604v-19.857zM626.658 45h43.318v19.8572h-43.318V45zM1030.5 225.623h43.32v19.858h-43.32v-19.858zM1123.63 236h43.31v19.857h-43.31V236zM631.626 375h43.318v19.857h-43.318V375zM1178 30h43.32v19.8572H1178V30zM1159.6 59.8994h43.32v19.8571h-43.32V59.8994z"/></g><path d="M1096.84 248.823H928.633L950.248 99h168.212l-21.62 149.823z" fill="#fff"/><path d="M947.755 116.757h168.205" stroke="#184479" stroke-width=".5" stroke-miterlimit="10" stroke-linecap="round" stroke-linejoin="round"/><path d="M962.442 110.373c1.377 0 2.494-1.118 2.494-2.496 0-1.379-1.117-2.497-2.494-2.497-1.378 0-2.494 1.118-2.494 2.497 0 1.378 1.116 2.496 2.494 2.496zM976.299 110.373c1.377 0 2.494-1.118 2.494-2.496 0-1.379-1.117-2.497-2.494-2.497-1.377 0-2.494 1.118-2.494 2.497 0 1.378 1.117 2.496 2.494 2.496zM990.43 110.373c1.378 0 2.494-1.118 2.494-2.496 0-1.379-1.116-2.497-2.494-2.497-1.377 0-2.494 1.118-2.494 2.497 0 1.378 1.117 2.496 2.494 2.496z" stroke="#184479" stroke-width=".5" stroke-miterlimit="10"/><path d="M1036.5 164.718c1.94 1.387 9.14 6.103 19.12 5.271 9.42-.832 15.24-6.38 16.9-8.044" stroke="#184479" stroke-width=".5" stroke-miterlimit="10" stroke-linecap="round" stroke-linejoin="round"/><path d="M1080.28 142.8l41.57-16.369 11.08 28.855-41.57 16.092-19.95-8.879 8.87-19.699z" fill="#2FB7EC"/><path d="M659.485 404.999l18.29-126.517h141.05l-18.289 126.517H659.485z" fill="#fff"/><path d="M675.002 297.349h141.604" stroke="#184479" stroke-width=".5" stroke-miterlimit="10" stroke-linecap="round" stroke-linejoin="round"/><path d="M689.411 290.41c1.378 0 2.495-1.117 2.495-2.496s-1.117-2.497-2.495-2.497c-1.377 0-2.494 1.118-2.494 2.497 0 1.379 1.117 2.496 2.494 2.496zM704.378 290.41c1.378 0 2.494-1.117 2.494-2.496s-1.116-2.497-2.494-2.497c-1.377 0-2.494 1.118-2.494 2.497 0 1.379 1.117 2.496 2.494 2.496zM719.618 290.41c1.377 0 2.494-1.117 2.494-2.496s-1.117-2.497-2.494-2.497c-1.377 0-2.494 1.118-2.494 2.497 0 1.379 1.117 2.496 2.494 2.496z" stroke="#184479" stroke-width=".5" stroke-miterlimit="10"/><path d="M746.804 344.548c1.663 1.387 8.314 7.212 18.29 7.49 9.421.277 16.072-4.161 18.012-5.825" stroke="#184479" stroke-width=".5" stroke-miterlimit="10" stroke-linecap="round" stroke-linejoin="round"/><path d="M793.081 328.457l43.23-10.543 7.205 29.687-43.23 10.82-18.566-11.375 11.361-18.589z" fill="#2FB7EC"/><path d="M540.615 476.223h192.039l-21.338 149.545H519l21.615-149.545z" fill="#fff"/><path d="M551.145 490.094c1.378 0 2.494-1.118 2.494-2.496 0-1.379-1.116-2.497-2.494-2.497-1.377 0-2.494 1.118-2.494 2.497 0 1.378 1.117 2.496 2.494 2.496zM564.999 490.094c1.378 0 2.494-1.118 2.494-2.496 0-1.379-1.116-2.497-2.494-2.497-1.377 0-2.494 1.118-2.494 2.497 0 1.378 1.117 2.496 2.494 2.496zM579.136 490.094c1.377 0 2.494-1.118 2.494-2.496 0-1.379-1.117-2.497-2.494-2.497-1.377 0-2.494 1.118-2.494 2.497 0 1.378 1.117 2.496 2.494 2.496z" stroke="#184479" stroke-width=".5" stroke-miterlimit="10"/><path d="M729.605 495.922H538.397M660.737 559.09c1.663 1.386 8.314 7.212 18.29 7.489 9.422.277 16.072-4.161 18.012-5.825" stroke="#184479" stroke-width=".5" stroke-miterlimit="10" stroke-linecap="round" stroke-linejoin="round"/><path d="M707.014 542.998l43.23-10.543 7.205 29.687-43.23 10.821-18.566-11.375 11.361-18.59z" fill="#2FB7EC"/><path d="M1081.04 524.228c-.29 2.894 27.16-187.202 27.16-187.202H885.39l-27.165 187.202h222.815z" fill="#fff"/><path d="M896.664 349.754c1.437 0 2.601-1.165 2.601-2.603 0-1.438-1.164-2.604-2.601-2.604-1.436 0-2.601 1.166-2.601 2.604 0 1.438 1.165 2.603 2.601 2.603zM911.11 349.754c1.436 0 2.601-1.165 2.601-2.603 0-1.438-1.165-2.604-2.601-2.604s-2.601 1.166-2.601 2.604c0 1.438 1.165 2.603 2.601 2.603zM925.559 349.754c1.436 0 2.601-1.165 2.601-2.603 0-1.438-1.165-2.604-2.601-2.604-1.437 0-2.601 1.166-2.601 2.604 0 1.438 1.164 2.603 2.601 2.603z" stroke="#184479" stroke-width=".5" stroke-miterlimit="10"/><path d="M1105.6 355.544H883.369M1036.29 440.809c1.66 1.387 8.31 7.212 18.29 7.49 9.42.277 16.07-4.161 18.01-5.825" stroke="#184479" stroke-width=".5" stroke-miterlimit="10" stroke-linecap="round" stroke-linejoin="round"/><path d="M1082.57 424.718l43.23-10.543 7.2 29.687-43.23 10.821-18.57-11.376 11.37-18.589z" fill="#2FB7EC"/><path d="M1022.61 168.247c.45 5.179-3.42 9.71-8.54 9.939-4.64.221-9.16-3.659-9.63-8.253-.15-1.921.29-3.826 1.26-5.488.95-1.551 1.03-3.421.5-5.196-.27-.888-.42-1.75-.33-2.672.18-2.792 2.14-5.169 4.77-5.857 4.16-1.16 8.22 1.669 8.54 5.874.09.612.05 1.31-.08 1.87-.28 1.706.26 3.482 1.36 4.801 1.14 1.207 2.01 3.06 2.15 4.982z" fill="#88C43F" opacity=".5"/><path d="M1012.96 160.58l2.23 28.018" stroke="#184479" stroke-width=".5" stroke-miterlimit="10" stroke-linecap="round" stroke-linejoin="round"/><path d="M1045.56 162.191c-2.23 7.954-10.53 12.631-18.55 10.162-7.13-2.246-11.79-10.679-9.76-17.962.84-3.141 2.64-5.703 4.94-7.512 2.3-1.808 3.56-4.667 3.56-7.562.05-1.383.34-2.853 1.09-4.269 1.86-3.945 6.09-6.448 10.56-6.143 6.97.607 11.38 7.273 9.58 13.656-.24 1.014-.69 1.886-1.14 2.758-1.44 2.375-1.57 5.37-.62 8.032.96 2.662 1.16 5.813.34 8.84z" fill="#88C43F"/><path d="M1035.33 145.215l-12.47 43.436" stroke="#184479" stroke-width=".5" stroke-miterlimit="10" stroke-linecap="round" stroke-linejoin="round"/><path d="M1033.85 187.981l-9.44 36.349-21.31.118 3.71-36.664 27.04.197z" fill="#fff" stroke="#184479" stroke-width=".5" stroke-miterlimit="10"/><path d="M945.404 401.011v-3.252h-8.543v3.252M956.796 401.011v-3.252h-8.543v3.252" stroke="#184479" stroke-width=".35" stroke-miterlimit="10" stroke-linecap="round" stroke-linejoin="round"/><path d="M1044.85 394.507h-66.07l-.83 6.506h-43.767l-1.794 11.384h109.831l2.63-17.89z" fill="#FBB036"/><path d="M1042.22 412.396H932.389l-8.438 56.589h109.839l8.43-56.589z" fill="#FFCE73"/><path d="M1032.87 406.702h-13.42c-1.63 0-2.85-1.22-2.85-2.846 0-1.626 1.22-2.845 2.85-2.845h13.42c1.63 0 2.85 1.219 2.85 2.845 0 1.626-1.22 2.846-2.85 2.846z" stroke="#184479" stroke-width=".35" stroke-miterlimit="10"/><path d="M978.932 394.507h-18.306l-.981 6.911h18.306l.981-6.911z" fill="#FFF5D7"/><path d="M968.593 408.737c1.123 0 2.034-.91 2.034-2.033 0-1.122-.911-2.032-2.034-2.032-1.123 0-2.034.91-2.034 2.032 0 1.123.911 2.033 2.034 2.033z" stroke="#184479" stroke-width=".35" stroke-miterlimit="10"/><path d="M961.68 394.507v6.504M964.121 394.507v6.504M968.593 394.507v6.504M971.037 394.507v6.504M966.559 394.507v6.504M975.511 394.507v6.504M973.074 394.507v6.504M932.389 412.397h109.831" stroke="#184479" stroke-width=".35" stroke-miterlimit="10" stroke-linecap="round" stroke-linejoin="round"/><path d="M996.183 466.432c16.397 0 29.697-13.289 29.697-29.681 0-16.393-13.3-29.681-29.697-29.681-16.401 0-29.697 13.288-29.697 29.681 0 16.392 13.296 29.681 29.697 29.681z" fill="#FFF5D7"/><path d="M996.187 459.519c12.583 0 22.783-10.194 22.783-22.769 0-12.575-10.2-22.769-22.783-22.769-12.582 0-22.781 10.194-22.781 22.769 0 12.575 10.199 22.769 22.781 22.769z" fill="#fff"/><path d="M996.187 453.827c9.433 0 17.083-7.645 17.083-17.077 0-9.431-7.65-17.076-17.083-17.076-9.436 0-17.086 7.645-17.086 17.076 0 9.432 7.65 17.077 17.086 17.077z" stroke="#184479" stroke-width=".35" stroke-miterlimit="10"/><path d="M996.187 448.135c6.293 0 11.393-5.097 11.393-11.384 0-6.288-5.1-11.385-11.393-11.385-6.29 0-11.39 5.097-11.39 11.385 0 6.287 5.1 11.384 11.39 11.384z" fill="#FFCE73"/><path d="M996.183 440.001c1.797 0 3.254-1.456 3.254-3.252 0-1.796-1.457-3.252-3.254-3.252-1.798 0-3.255 1.456-3.255 3.252 0 1.796 1.457 3.252 3.255 3.252z" stroke="#184479" stroke-width=".35" stroke-miterlimit="10"/><path d="M641.119 541.157c-6.176-16.503-10.728-30.27-26.381-30.27-9.706 0-16.765 11.277-19.853 15.678-3.53 4.676-6.085 11.567-7.409 14.592" stroke="#184479" stroke-width=".5" stroke-miterlimit="10"/><path d="M616.953 538.281h43.084c.883 0 1.324.388 1.324 1.164l8.092 55.885c0 .776-.441 1.552-1.323 1.552H566.659c-.882 0-1.764-.776-1.323-1.552l7.976-55.885c0-.776.883-1.164 1.324-1.164h42.317z" fill="#AE92FF"/><path d="M576.348 539.137l24.696 33.019c.442.388.883.388 1.324.388h31.765c.441 0 .882 0 1.323-.388l23.931-33.019" stroke="#184479" stroke-width=".5" stroke-miterlimit="10" stroke-linecap="round" stroke-linejoin="bevel"/><path d="M614.871 575.493v-6.12c0-1.097.889-1.985 1.985-1.985s1.985.888 1.985 1.985v6.12c0 1.096-.889 1.985-1.985 1.985s-1.985-.889-1.985-1.985z" fill="#FFD560"/><path d="M729.965 380.957h7.538c.603.052 1.187-.418 1.278-.968l9.512-68.244c.091-.55-.395-1.053-.998-1.104h-7.538c-.603-.051-1.186.418-1.277.968l-9.513 68.244c-.091.55.395 1.053.998 1.104z" fill="#E56175"/><path d="M742.001 357.365c-6.507 1.874-13.299-1.888-15.169-8.403-1.871-6.514 1.889-13.314 8.396-15.187 6.507-1.874 13.299 1.889 15.169 8.403 1.871 6.514-1.888 13.314-8.396 15.187z" fill="#fff" stroke="#184479" stroke-width=".5"/><path d="M734.746 350.185l3.899-4.115-.383-4.164" stroke="#184479" stroke-width=".5" stroke-miterlimit="10" stroke-linecap="round" stroke-linejoin="round"/><path d="M735.993 369.312c-.544.157-1.098-.11-1.238-.595-.139-.485.189-1.006.734-1.162.544-.157 1.098.109 1.237.595.14.485-.189 1.005-.733 1.162zM736.671 363.826c-.544.156-1.098-.11-1.237-.595-.14-.485.189-1.006.733-1.162.544-.157 1.098.109 1.238.594.139.486-.189 1.006-.734 1.163zM735.453 374.867c-.544.157-1.099-.11-1.238-.595-.139-.486.189-1.007.733-1.164.545-.156 1.099.11 1.238.596.14.486-.188 1.006-.733 1.163z" fill="#fff" stroke="#184479" stroke-width=".5" stroke-miterlimit="10"/><path d="M735.399 322.405l14.717.799-.226 1.743-14.718-.799.227-1.743zM734.779 327.544l14.717.799-.226 1.743-14.718-.799.227-1.743z" fill="#fff" stroke="#184479" stroke-width=".5" stroke-miterlimit="10" stroke-linecap="round" stroke-linejoin="round"/><path opacity=".5" d="M791.848 720.099h-49.365v22.63h49.365v-22.63z" fill="#DFE2EC"/><path fill-rule="evenodd" clip-rule="evenodd" d="M447 857.152s41.752-23.528 95-50.152c40-20 104-61 172.5-61 72 0 130.819-75.977 214.497-87.709 14.081-1.974 54.659-7.351 99.853 1.642 57.74 11.491 86.38 39.161 99.66 51.974 64.76 62.483 61.97 96.346 61.97 145.245H447z" fill="#EBEEF3"/><g clip-path="url(#clip1)"><path d="M866.171 751.548c-5.029 0-28.913-12.889-51.227 3.458-18.856 13.833-66.94 83.94-66.94 83.94l55.312-8.174 39.284-36.154 49.97 33.325-26.399-76.395z" fill="#4A5F6E"/><path d="M719.091 835.802c-22.628-3.458-30.485-35.21-48.713-47.471l6.286 25.779 1.886 8.488 5.656 23.265 3.457 14.461H722.548l-3.457-24.522z" fill="#C3D4FA"/><path d="M988.423 860.324H718.148l-1.571-25.779c0-2.201 1.571-4.401 3.771-4.716 3.771-.629 6.6.943 6.6.943s115.652-27.665 261.161-15.404l.314 44.956z" fill="#5A7385"/><path d="M1101.56 748.719l-74.17-43.07-29.539-47.472c-5.028-8.803-7.542-15.719-17.285-18.548-6.914-1.887-17.285.943-26.084 4.715-2.829 1.258-9.965 6.747-8.079 14.292l31.963-1.716 18.857 49.986c4.717 11.632 13.197 21.378 23.887 27.666l44.62 26.722 35.83-12.575z" fill="#C3D4FA"/><path d="M1042.84 754.881l19.52-32.542 41.2 24.665 1.14 2.839-35.51 15.268-26.35-10.23z" fill="#F8FAFB" stroke="#C4CDD5" stroke-width=".5"/><path d="M1123.76 754.368l.01.007.02.005 11.45 3.394-16.81 65.543c-7.76 18.096-14.64 28.445-23.03 37.057H971.489c-.348-16.521-4.105-32.126-12.499-46.504l29.382-1.243.018-.001.017-.003c12.053-2.209 31.133-7.58 43.233-18.349v-.001c5.47-4.904 10.54-10.535 15.7-16.254 2.47-2.749 4.97-5.519 7.54-8.238 7.91-8.389 16.53-16.326 27.43-21.825 8.17-4.063 18.23-4.066 26.73-.311v.001l14.72 6.722z" fill="#fff" stroke="#C4CDD5" stroke-width=".5"/><path d="M1091.82 718.538c2.2-4.087 1.26-9.431-1.89-12.575 3.21-16.319 5.1-26.475 6.67-29.304l53.67 4.468-7.85 52.187-7.31 24.722c-24.2 17.291-32.29-4.601-32.29-4.601l4.4-12.89s-5.97 0-9.12-1.572c-2.51-.943-9.53-4.603-10.16-16.864 1.58-.629 2.94-1.999 3.88-3.571z" fill="#C3D4FA"/><path d="M1089.93 705.963c3.15 3.144 4.4 8.174 1.89 12.575-.94 1.887-1.71 3.138-3.88 4.004-.21-1.967-.21-3.375-.21-5.576.63-3.458 1.26-6.916 2.2-11.003z" fill="#8CACF6"/><path fill-rule="evenodd" clip-rule="evenodd" d="M1097.48 704.076c-.32 1.572-1.57 2.829-2.83 2.514-.94-.314-1.57-1.885-1.26-3.457.32-1.572 1.57-2.829 2.83-2.515 1.26 0 1.57 1.572 1.26 3.458zM1116.65 709.42c-.32 1.572-1.57 2.829-2.83 2.515-.94-.314-1.57-1.886-1.26-3.458.32-1.571 1.57-2.828 2.83-2.514 1.26 0 1.89 1.571 1.26 3.457z" fill="#152934"/><path d="M1109.73 724.197s-3.45 5.029-9.43 3.772M1103.13 708.792s-3.45 6.601-2.82 7.858c.62.943 3.14.943 3.14.943" stroke="#152934" stroke-width=".7" stroke-miterlimit="10" stroke-linecap="round" stroke-linejoin="round"/><path fill-rule="evenodd" clip-rule="evenodd" d="M1111.93 698.732l13.83 3.143c-.94-2.514-6.91-7.544-13.83-3.143zM1093.39 694.331l10.06 2.2c-.32-2.515-5.35-6.287-10.06-2.2z" fill="#152934"/><path fill-rule="evenodd" clip-rule="evenodd" d="M1160.65 691.185c-5.35 18.863-10.96 35.77-18.18 41.743-4.72-12.261-5.71-30.111-2.57-43.001-20.74.944-33 .315-44.62-8.802l-3.15 14.147s-10.68-10.689-2.82-29.552c12.88-30.18 46.19-11.318 64.11 1.886 7.23 5.659 9.43 15.091 7.23 23.579z" fill="#152934"/><path fill-rule="evenodd" clip-rule="evenodd" d="M1136.76 722.625c5.34 5.03 12.26-1.886 11.94-11.003 0-5.03-2.51-8.174-6.28-7.231-3.46.629-5.34 4.716-5.34 4.716l-.32 13.518z" fill="#C3D4FA"/><path fill-rule="evenodd" clip-rule="evenodd" d="M1121.99 728.913c4.4 2.2 9.74.628 11.94-3.773 2.2-4.401.63-9.746-3.77-11.946-4.4-2.201-9.74-.629-11.94 3.772-2.52 4.087-.63 9.432 3.77 11.947z" fill="#8CACF6"/><path d="M995.338 810.023H860.514v4.086h134.824v-4.086z" fill="#B1BCC6"/><path d="M1053.48 848.063l30.8-46.528 31.74 22.95-33.94 36.153h-55.94l-40.545-50.301h-26.713l-1.257-5.658s21.999-21.378 44.945-1.572c5.02 3.772 50.91 44.956 50.91 44.956z" fill="#C3D4FA"/><path d="M1132.68 767.532l-14.58 58.104-35.97-24.183c.04-.058.1-.131.17-.217.19-.235.48-.558.85-.959.75-.8 1.83-1.899 3.15-3.206 2.66-2.616 6.3-6.062 10.24-9.616 3.95-3.554 8.2-7.215 12.06-10.26 3.88-3.051 7.35-5.47 9.76-6.556h0l.01-.003c4.84-2.345 8.49-3.1 10.92-3.273 1.22-.086 2.13-.027 2.73.053.3.039.52.082.66.116zm-50.64 34.057v-.004.004z" fill="#F8FAFB" stroke="#C4CDD5" stroke-width=".5"/><path d="M961.082 814.424H857.686l-14.771-74.193c-.315-1.572.628-3.144 2.2-3.144h98.367c1.257 0 2.514.943 2.829 2.515l14.771 74.822z" fill="#C4CDD5"/><path d="M901.998 784.558c4.86 0 8.8-3.941 8.8-8.802 0-4.862-3.94-8.803-8.8-8.803-4.86 0-8.799 3.941-8.799 8.803 0 4.861 3.939 8.802 8.799 8.802z" fill="#EEF2F5"/><path opacity=".5" d="M790.681 652h-49.366v22.629h49.366V652zM820.223 686.049h-49.366v22.63h49.366v-22.63zM760.366 686.049H711v22.63h49.366v-22.63z" fill="#DFE2EC"/></g><path stroke="#EBEEF3" stroke-width="4" d="M175 859h79M136 859h30"/></g><defs><clipPath id="clip0"><path fill="#fff" d="M0 0h1222v1000H0z"/></clipPath><clipPath id="clip1"><path fill="#fff" transform="translate(670.378 639)" d="M0 0h491.21v222.267H0z"/></clipPath></defs></svg>