<svg xmlns="http://www.w3.org/2000/svg" xmlns:xlink="http://www.w3.org/1999/xlink" width="192" height="132" viewBox="0 0 192 132">
    <defs>
        <path id="a" d="M0 0h200v160H0z"/>
        <linearGradient id="d" x1="54.108%" x2="54.108%" y1="2.065%" y2="35.51%">
            <stop offset="0%" stop-color="#CEF2FD"/>
            <stop offset="100%" stop-color="#FFF"/>
        </linearGradient>
        <ellipse id="c" cx="99.523" cy="99.5" rx="99.523" ry="99.5"/>
        <linearGradient id="e" x1="50%" x2="50%" y1="24.504%" y2="35.833%">
            <stop offset="0%" stop-color="#8BDCFB"/>
            <stop offset="100%" stop-color="#FFF"/>
        </linearGradient>
        <linearGradient id="g" x1="50%" x2="50%" y1="100%" y2="0%">
            <stop offset="0%" stop-color="#8BDCFB" stop-opacity=".8"/>
            <stop offset="100%" stop-color="#4A90E2"/>
        </linearGradient>
        <linearGradient id="h" x1="81.159%" x2="5.028%" y1="51.58%" y2="43.149%">
            <stop offset="0%" stop-color="#8BDCFB"/>
            <stop offset="100%" stop-color="#CEF2FD"/>
        </linearGradient>
        <linearGradient id="i" x1="0%" x2="50%" y1="36.995%" y2="63.005%">
            <stop offset="0%" stop-color="#EEF2F5"/>
            <stop offset="100%" stop-color="#C3D4FA"/>
        </linearGradient>
        <linearGradient id="j" x1="0%" x2="74.281%" y1="43.388%" y2="56.612%">
            <stop offset="0%" stop-color="#EEF2F5"/>
            <stop offset="100%" stop-color="#AFC7D1" stop-opacity=".8"/>
        </linearGradient>
        <linearGradient id="k" x1="14.543%" x2="85.457%" y1="0%" y2="100%">
            <stop offset="0%" stop-color="#2FB7EC"/>
            <stop offset="100%" stop-color="#4A90E2"/>
        </linearGradient>
        <linearGradient id="l" x1="72.222%" x2="27.778%" y1="0%" y2="100%">
            <stop offset="0%" stop-color="#CEF2FD"/>
            <stop offset="100%" stop-color="#8BDCFB"/>
        </linearGradient>
        <linearGradient id="m" x1="0%" y1="42.438%" y2="57.562%">
            <stop offset="0%" stop-color="#CEF2FD"/>
            <stop offset="100%" stop-color="#EEF2F5"/>
        </linearGradient>
        <linearGradient id="n" x1="11.28%" x2="88.72%" y1="0%" y2="100%">
            <stop offset="0%" stop-color="#FFE557"/>
            <stop offset="100%" stop-color="#FFC72C"/>
        </linearGradient>
        <linearGradient id="o" x1="50%" x2="50%" y1="100%" y2="0%">
            <stop offset="0%" stop-color="#5685F1"/>
            <stop offset="100%" stop-color="#326BEE"/>
        </linearGradient>
        <linearGradient id="p" x1="100%" x2="0%" y1="96.924%" y2="3.076%">
            <stop offset="0%" stop-color="#CEF2FD"/>
            <stop offset="100%" stop-color="#8BDCFB"/>
        </linearGradient>
        <linearGradient id="q" x1="51.873%" x2="48.127%" y1="100%" y2="0%">
            <stop offset="0%" stop-color="#CEF2FD"/>
            <stop offset="100%" stop-color="#8BDCFB"/>
        </linearGradient>
        <linearGradient id="r" x1="100%" x2="0%" y1="95.125%" y2="4.875%">
            <stop offset="0%" stop-color="#CEF2FD"/>
            <stop offset="100%" stop-color="#8BDCFB"/>
        </linearGradient>
        <linearGradient id="s" x1="50%" x2="50%" y1="100%" y2="0%">
            <stop offset="0%" stop-color="#8BDCFB"/>
            <stop offset="100%" stop-color="#4A90E2"/>
        </linearGradient>
    </defs>
    <g fill="none" fill-rule="evenodd" transform="translate(-3 -28)">
        <mask id="b" fill="#fff">
            <use xlink:href="#a"/>
        </mask>
        <use fill="#D8D8D8" fill-opacity="0" xlink:href="#a"/>
        <g mask="url(#b)">
            <g transform="translate(0 28)">
                <g transform="translate(0 62)">
                    <mask id="f" fill="#fff">
                        <use xlink:href="#c"/>
                    </mask>
                    <use fill="url(#d)" fill-rule="nonzero" xlink:href="#c"/>
                    <path fill="url(#e)" fill-opacity=".2" d="M102.339 84.29c2.356 1.181 7.395.288 10.049.288 1.344.27 8.071.464 8.9 1.295 4.238 4.25 6.564 18.53 11.772 23.753 2.513 2.52 8.91-.998 11.054 1.152 1.03 1.032-2.377 12.955-4.737 13.1-.81 0-9.447 8.117-8.04 10.94.523 1.048 3.41 4.14 3.159 4.894-.945 2.842-3.884 4.91-5.312 7.774-1.102 2.21 1.577 7.92-.143 9.645-5.101 5.115-13.506 18.06-23.4 13.1-1.951-.978-3.077-9.438-3.446-11.66-.659-3.966-3.841-7.025-4.594-10.797-.673-3.375 1.058-5.864 2.297-8.35.391-.784-.515-3.48-.861-4.174-1.526-3.061-.012-8.938-2.44-11.373-.99-.992-1.597-3.031-3.015-3.742-2.597-1.302-6.613 1.25-8.9 2.015-3.513 1.174-12.195-4.157-13.495-6.766-1.027-2.06-2.785-4.78-3.59-7.198-1.973-5.937 7.126-21.54 10.911-25.336 2.546-2.553 10.448-2.757 13.925-3.455 5.123-1.027 6.532 3.203 9.906 4.895zm40.06 57.579c3.883 3.013.906 9.247-.838 12.856-.317.656-1.796 6.52-2.234 6.067-4.035-4.175-2.983-16.835 3.072-18.923zM99.91 5.976c2.095-.299 3.887-.425 5.946-.425h4.106c9.116 0-.455 9.264-6.513 6.234-.967-.484-3.802.747-4.388-.425-.43-.862.607-4.416.85-5.384zm55.792 9.056c.748-.279 7.302-2.48 8.592-1.177.06.061.06 1.41 0 1.47-.955.966-3.471.712-4.514 1.765-1.677 1.694-10.096 8.628-12.233 6.47-.707-.713 3.454-4.81 4.223-5.587 1.094-1.104 2.498-1.976 3.932-2.941zM64.04 33.447h4.519c8.3 0 3.158 4.329.988 6.573-.865.895-12.255-.469-9.037-3.798.921-.953 1.88-1.57 3.53-2.775zm19.54 10.798c1.078 2.486 2.759 5.908 4.481 7.581 2.141 2.08-6.218 4.912-6.36 4.774-.759-.737 1.156-3.933 1.156-4.914 0-2.327-4.557-9.15.723-7.441zm-5.39 8.645c.979 5.447-1.85 5.706-2.375 3.373-.408-1.815 1.457-6.434 2.374-3.373zm5.046 7.915c1.453-.072 8.382-1.941 8.487-2.15.56-1.118-.22-3.507.575-4.3.359-.358 3.146.224 3.884-.144 4.198-2.092 17.05-1.812 18.413-8.6.648-3.228-4.049-2.214-4.747-4.301-.765-2.288 4.292-4.611 2.445-6.451-1.56-1.556-5.497 2.558-5.754 3.583-.518 2.066.66 3.18 1.439 4.731.573 1.143-1.6 1.9-1.87 2.437-.4.798-.538 3.403-1.007 3.87-.683.681-3.07.287-4.316.287-4.269 0-.872-1.299-2.301-2.723-.348-.347-3.214 2.387-4.46 1.146-.447-.445.006-1.851-.287-2.437-2.913-5.804 1.859-5.528 4.603-9.174 1.288-1.712 2.75-8.18 4.46-9.031 7.905-3.94 12.8-1.148 20.282.716 2.375.592 8.848 2.01 9.925 4.158.637 1.268-.26 4.762-.575 6.02-.938 3.74-.033 7.807-1.726 11.182-2.005 3.995-7.26 6.66-10.07 9.461-2.016 2.01 7.963 3.196 6.186 6.738-.701 1.397-5.65.777-7.193 1.29-1.923.639-.307 4.812-2.157 5.734-3.91 1.948-7.258-1.36-10.933-2.58-2.15-.715-3.563 1.73-6.617.716-2.844-.945-5-4.36-8.63-3.153-6.473 2.15-2.495 5.926-5.18 8.6-3.85 3.838-12.414 3.044-10.644-4.013 1.81-7.216 4.522-.923 7.48-3.87 1.026-1.023-.14-6.04.288-7.742zm48.607-6.974c2.996-5.999 5.933-14.014 3.892-22.188 5.182-5.187 11.527-3.339 18.78-5.759 4.422-1.475 6.34-4.189 9.815-5.928 2.188-1.095 6.82.508 9.644.508 10.302 0 19.651-5.88 28.933-8.977 2.06-.687 10.71 1.167 11.337 3.05.84 2.524-4.458 3.44-3.723 4.91.417.835 8.656 0 9.645 0 9.837 0 19.169 1.637 28.764 3.558 10.653 2.133 20.945 5.16 31.64 6.944 2.49.415 11.972 1.227 13.875-.677.916-.917 4.22 2.888 3.045 4.064-1.114 1.116-18.725 8.95-21.827 10.502-.297.149-.338.39-.338.677 0 1.454-1.388 3.049-2.2 4.404-.545.909-5.85 9.388-6.768 8.468-3.086-3.09-2.566-8.278.846-10.84 1.459-1.095 5.718-1.798 4.907-4.234-.326-.98-8.943 2.196-10.321 2.54-3.857.966-7.33-.979-10.829 1.356-2.485 1.658-6.483 3.958-4.737 7.452.925 1.852 7.573 4.783 4.906 7.453-.908.909-3.19 1.173-4.23 1.693-1.884.943-2.34 4.545-3.722 5.928-2.41 2.413-6.587 2.815-9.475 4.743-1.889 1.26.207 4.027-1.016 5.25-1.14 1.142-6.433-6.093-9.136-3.387-.274.274.276 1.292.338 1.355 1.791 1.793 4.66 9.563 2.2 12.025-3.578 3.582-7.448 7.342-12.183 10.501-1.678 1.12-4.502 1.054-5.414 2.88-1.54 3.083 1.353 8.329 1.353 11.686 0 .008.069 1.152 0 1.186-1.24.62-2.252-1.186-3.384-1.355-2.98-2.983-8.205-2.963-11.336-6.097-2.642-2.645-1.94-7.701-4.738-10.501-.132-.133-.78-.573-1.015-.34-3.38 3.384-7.299 4.79-9.475 9.147-.867 1.735-3.404 12.317-4.773 10.998-1.37-1.32-1.042-4.517-1.995-6.425-4.06-8.127-2.602-13.063-12.69-16.43-6.752-2.252-5.036 6.058-7.276 8.3-3.198 3.201-4.921 5.254-9.983 6.267-12.395 2.481-9.521-11.395-15.735-17.615-1.67-1.671 1.67-8.83.17-10.332-2.051-2.052-8.184 1.063-9.984-2.54-2.315-4.635 14.537-2.497 15.228-4.573 1.341-4.027-3.593-10.202-5.414-12.026-.396-.396-3.45-1.901-3.046-2.71 1.102-2.206 6.182-2.384 7.445-4.911zm67.213-49.658c4.82 3.291 2.702 5.38-2.2 4.207-1.195-.285-4.527-7.302-3.216-7.929 2.186-1.045 3.96 3.258 5.416 3.722zm53.338 64.01c-1.482 8.462-.614 11.158-8.517 15.138-1.752.882-3.461 4.228-5.845 3.027-.702-.353-1.404-2.74-.501-3.195 2.619-1.32 6.474-2.276 8.016-5.382 1.608-3.24 2.768-8.218 6.847-9.587zm-49.92 48.582c9.129 6.236.265 9.915 5.795 15.41.935.93 11.807 5.201 9.543 7.451-.727.723-4.627-1.621-5.453-2.032-1.276-.633-3.662-.655-5.113-1.016-4.581-1.138-7.25-8.758-8.01-12.531-.34-1.692.097-11.964 3.239-7.282zm19.065.893c1.837 3.365 1.37 3.07 1.37 6.191 0 1.399 3.442 6.341 2.397 7.362-.47.46-4.43-.167-5.307-.167-1.098 0-2.398 1.254-3.596.67-.787-.386-4.65-4.492-3.253-5.857.762-.745 2.825-1.505 3.424-2.677 1.07-2.09 2.264-5.522 4.965-5.522zm26.65 12.97c2.07.483 11.983 7.261 9.653 9.571-.722.716-4.402-3.022-5.08-3.358-2.62-1.298-10.325-3.683-12.026-6.213-2.582-3.84 6.28-.872 7.452 0zm-13.814 12.827c2.746-.81 9.541-4.834 12.45-3.376 5.034 2.526 5.902 6.949 8.243 11.645 1.654 3.317 6.722 4.203 8.244 7.257.927 1.86-2.59 5.498-3.028 7.257-.777 3.115.203 7.66-3.029 9.282-6.564 3.292-13.281-8.942-18.674-10.295-7.443-1.866-17.694 15.103-22.208 1.519-.495-1.49-.336-3.123-.336-4.725 0-1.797-.103-4.351.672-5.907 3.31-6.642 14.558-4.863 17.666-12.657zm56.51 34.582c-1.361 2.135-2.48 4.108-4.502 5.43-2.936 1.917-2.932 6.34-6.235 7.635-6.518 2.554 5.593-15.974 6.581-16.459 1.887-.924 2.758 2.937 4.156 3.394zm1.996-16.152c.225.447 2.542 5.595 1.362 6.768-.633.628-4.57-3.976-4.768-4.569-.854-2.545 1.68-2.199 3.406-2.199zM9.195 110.819c3.234 1.478 6.683.66 9.458 2.056 7.054 3.547 12.897 11.684 18.661 17.481 3.322 3.34 8.194.028 10.481 4.628 2.25 4.526-3.098 9.028-4.857 10.797-1.282 1.29.863 6.073-.511 7.455-1.921 1.932-5.329 2.274-7.669 4.627-1.8 1.81-4.406 10.405-5.88 13.368-2.049 4.122-9.273 5.726-12.27 8.74-3.5 3.52-6.135 8.006-6.135 13.882 0 1.314 1.303 11.195-1.022 10.026C1.1 199.68.78 183.783 5.105 175.087c1.497-3.01-.065-7.774 1.023-11.054.85-2.565 1.625-11.99-.256-13.882-1.412-1.42-4.018-1.985-5.368-3.342-.845-.85-5.334-15.786-4.857-17.224 1.192-3.598 3.187-8.09 5.88-10.797.73-.735.172-5.232.766-6.427.836-1.68 4.954-1.542 6.902-1.542zM23.174-3.464c10.292-2.809 24.722-1.305 35.06 1.28 3.375.845 10.998-1.293 12.54 1.794 1.602 3.207-5.373 7.679-6.398 9.731-2.045 4.094.812 13.273-2.815 16.903-3.027 3.029-11.604 5.678-16.123 7.939-2.292 1.147-5.405 5.184-6.653 7.683-.224.447-2.184 4.985-3.071 4.097-9.379-9.385-2.614-12.658-5.119-17.67-1.079-2.16-4.2-.362-5.374-1.537-2.697-2.699-2.582-8.986-5.886-12.293-1.925-1.926-7.286 1.806-8.7-1.024C8.244 8.656 23.173 3.164 23.173-3.464zM-24.168-.109c5.96-1.617 15.621 1.8 20.777-.766 1.283-.638 5.08-1.787 6.412-1.787 2.057 0 6.767-2.456 8.721-.51.65.645-.942 1.876-1.026 2.042C8.684 2.917 5.05 7.088 3.021 11.127c-.911 1.815-4.873 1.326-4.873 2.81 0 .514.046 1.113.256 1.531 3.017 6.007 10.985 8.638 15.647 13.28.335.333-.123 1.777-.256 2.042-2.625 5.226-.652 11.982 1.282 15.832 1.423 2.833 6.624 4.552 8.978 6.895 1.24 1.235-.46 4.65.77 5.873.514.513 3.616 2.502 2.82 4.086-.242.483-.753.51-1.282.51-6.268 0-3.826-1.999-5.643-5.617-.502-.999-7.44.257-7.951.766-2.33 2.32 6.285 3.828 4.617 7.15-1.666 3.317-7.541-2.094-9.748 2.298-2.17 4.32-4.193 10.304-7.695 13.79-.85.846-2.909-.168-3.847.766-1.957 1.948 2.254 8.48.256 10.47-.547.544-1.386-.87-1.539-1.022-2.644-2.632-1.847-3.856-5.9-5.873-.527-.263-3.38 1.973-4.36 2.298-4.921 1.633-8.464-.026-8.464 5.873 0 2.243.484 6.625 2.565 7.661 3.594 1.79 3.58-5.706 7.695-4.34 3.618 1.2.753 5.84 2.052 8.426 1.37 2.728 3.623-.48 5.386 1.277 1.276 1.27-1.905 3.21-.513 4.596 1.162 1.157 8.445 2.83 7.182 4.086-2.611 2.6-10.812-4.999-11.542-5.363-1.545-.769-18.322-7.514-18.468-7.66-3.251-3.237-3.21-9.324-6.926-13.024-.144-.143-2.197-2.92-2.565-2.553-.776.772 1.97 5.272 1.026 7.15-.18.359-8.629-4.924-9.49-6.64-3.812-7.59-5.26-19.281-10.004-24.003-1.408-1.402 2.796-3.6 1.539-4.852-.988-.984-3.953-.105-4.874-1.022-6.834-6.804-7.326-12.357-17.185-14.81-6.152-1.532-12.342 6.88-13.851 6.128-1.86-.925-6.943-6.18-7.695-8.427-.787-2.349 3.269-2.428 2.308-4.341-.933-1.858-3.983-5.859-2.821-8.171.468-.932.575-4.884 1.539-5.363 9.49-4.724 22.37 5.54 32.319 3.064 1.27-.316 13.395-12.824 15.39-14.81 1.264-1.259 7.684.954 8.978 1.276 6.132 1.526 16.146 5.121 21.033.256 1.953-1.945-3.335-11.21-3.335-13.535zm13.062 36.713c-1.827.608-3.388 3.885-4.32 4.815-1.434 1.428-5.517.431-6.863 1.774-.06.06 0 .169 0 .253 0 2.88 11.522 4.139 13.98 6.588 2.262 2.256 2.419 8.048 5.591 9.629 1.83.912.586-4.716 1.017-5.575.715-1.426 3.57-6.047 3.05-7.601-.374-1.118-.029-.268-.509-.507-5.119-2.552-7.427-5.872-11.946-9.376zm4.608 60.96c.736-.2 6.447-.51 6.966-1.025.379-.376.744-4.627 1.806-4.1.79.393.289 5.953.774 6.917.4.794 6.046 2.964 4.386 4.612-.088.087-8.268-.781-8.514-1.025-2.24-2.226-1.362-4.373-5.418-5.38zm-82.46 6.936c-.891-1.413-6.205-7.496-4.015-9.808.711-.751 1.388.935 1.506 1.06 2.002 2.115 4.505 6.038 2.51 8.748zm265.976 14.861c-.159-.603.256-1.569.824-1.569s1.027 1.753.504 1.958c-.524.206-1.169.215-1.328-.389z" mask="url(#f)"/>
                </g>
                <g fill-rule="nonzero" transform="translate(3.317 99)">
                    <path fill="url(#g)" d="M0 7.96C0 3.564 3.528 0 7.879 0c4.351 0 7.879 3.564 7.879 7.96a7.98 7.98 0 0 1-1.479 4.643l-6.4 10.614-6.4-10.614A7.98 7.98 0 0 1 0 7.96z"/>
                    <ellipse cx="7.879" cy="7.96" fill="#FFF" rx="1.97" ry="1.99"/>
                </g>
                <g fill-rule="nonzero" transform="translate(146 60)">
                    <path fill="url(#g)" d="M0 7.96C0 3.564 3.528 0 7.879 0c4.351 0 7.879 3.564 7.879 7.96a7.98 7.98 0 0 1-1.479 4.643l-6.4 10.614-6.4-10.614A7.98 7.98 0 0 1 0 7.96z"/>
                    <ellipse cx="7.879" cy="7.96" fill="#FFF" rx="1.97" ry="1.99"/>
                </g>
                <ellipse cx="100" cy="87" fill="url(#h)" fill-rule="nonzero" rx="45" ry="8"/>
                <path fill="#EEF2F5" fill-rule="nonzero" d="M59.8 44l40-34.4 40 34.4v42h-80z"/>
                <path fill="#FFF" fill-rule="nonzero" d="M74 44h51a2 2 0 0 1 2 2v40H72V46a2 2 0 0 1 2-2z"/>
                <path fill="#D9E5EB" fill-rule="nonzero" d="M74 44h51a2 2 0 0 1 2 2v4H72v-4a2 2 0 0 1 2-2z"/>
                <path fill="url(#i)" fill-rule="nonzero" d="M139.8 50.4L99.8 16l-40 34.4V44l40-34.4 40 34.4z"/>
                <path fill="url(#j)" fill-rule="nonzero" d="M67.8 62.4h16l-1.6 6.4h-16z" transform="rotate(180 75 65.6)"/>
                <path fill="#4A90E2" fill-rule="nonzero" d="M56.6 67h32v19h-32z"/>
                <path fill="url(#k)" fill-rule="nonzero" d="M56 67h16v19H56z"/>
                <path fill="url(#l)" fill-rule="nonzero" d="M56 67v6h-4z"/>
                <path fill="url(#m)" fill-rule="nonzero" d="M56 60h16l-2 7H54z" transform="matrix(1 0 0 -1 0 127)"/>
                <path fill="#8BDCFB" fill-rule="nonzero" d="M66.2 81.6h6.4V84h-6.4z"/>
                <path fill="#2FB7EC" fill-rule="nonzero" d="M72.6 81.6h1.6V84h-1.6z"/>
                <path fill="#FFE557" fill-rule="nonzero" d="M79 61h32v25H79z"/>
                <path fill="url(#n)" fill-rule="nonzero" d="M79 61h22v25H79z"/>
                <path fill="#F0B616" fill-rule="nonzero" d="M85 61h10v4l-1.654-.8-1.68.8L90 64.2l-1.667.8-1.666-.8L85 65zM104 61h4v4l-2-.8-2 .8z"/>
                <g fill="#FFF" fill-rule="nonzero" transform="translate(92.6 79.2)">
                    <path d="M0 0h6.4v3.2H0z"/>
                    <rect width="6.4" height="1" y="4" rx=".4"/>
                </g>
                <path fill="url(#o)" fill-rule="nonzero" d="M148.79 52.726L99.8 9.6 50.358 52.737a3.633 3.633 0 0 1-4.958-.168 3.19 3.19 0 0 1 .144-4.647L99.8 0l53.802 47.911a3.203 3.203 0 0 1 .135 4.658 3.617 3.617 0 0 1-4.948.157z"/>
                <path fill="url(#p)" fill-rule="nonzero" d="M111 73.6h12.8V86H111z"/>
                <path fill="url(#q)" fill-rule="nonzero" d="M121.4 73.6h2.4V86h-2.4z"/>
                <path fill="url(#r)" fill-rule="nonzero" d="M123.8 78.4h8V86h-8z"/>
                <path fill="#2FB7EC" fill-rule="nonzero" d="M126.2 78.4h3.2v2.4h-3.2zM113.4 73.6h6.4v4l-1.6-.8-1.322.8-1.878-.8-1.6.8z"/>
                <path stroke="#2FB7EC" stroke-dasharray="2" stroke-linecap="round" d="M115 91.615c28.52 3.272 49.446 12.62 62.78 28.042"/>
                <g fill-rule="nonzero" transform="translate(173 96)">
                    <path fill="url(#s)" d="M0 9.95C0 4.455 4.456 0 9.952 0c5.497 0 9.953 4.455 9.953 9.95 0 2.166-.693 4.17-1.868 5.804L9.952 29.021 1.868 15.754A9.903 9.903 0 0 1 0 9.95z"/>
                    <ellipse cx="9.952" cy="9.95" fill="#FFF" rx="2.488" ry="2.487"/>
                </g>
                <path stroke="#2FB7EC" stroke-dasharray="2" stroke-linecap="round" d="M81.03 90.038c-29.497 3.255-52.118 13.83-67.864 31.725M142.476 84c3.705-1.867 7.506-2.4 11.403-1.6"/>
                <path fill="#8BDCFB" fill-rule="nonzero" d="M63 21H39v-.126a4.002 4.002 0 0 1 2.002-7.748 5 5 0 0 1 6.561-4.877 8.003 8.003 0 0 1 14.222 2.9A5 5 0 1 1 63 21z"/>
                <path fill="#CEF2FD" fill-rule="nonzero" d="M47 21H32v-.05a2.5 2.5 0 0 1 1-4.9V16a3 3 0 0 1 3.9-2.863 5.001 5.001 0 0 1 9.035 2.057A3 3 0 1 1 47 21z"/>
            </g>
        </g>
    </g>
</svg>
