<svg width="100" height="100" viewBox="0 0 100 100" fill="none" xmlns="http://www.w3.org/2000/svg">
<mask id="mask0_85_118" style="mask-type:alpha" maskUnits="userSpaceOnUse" x="0" y="0" width="100" height="100">
<rect width="100" height="100" fill="white"/>
</mask>
<g mask="url(#mask0_85_118)">
<path d="M15.5962 35.8672C15.5962 34.7626 16.4916 33.8672 17.5962 33.8672H72.7949C73.8995 33.8672 74.7949 34.7626 74.7949 35.8672V80.2613C74.7949 81.3659 73.8995 82.2613 72.7949 82.2613H17.5962C16.4916 82.2613 15.5962 81.3659 15.5962 80.2613V35.8672Z" fill="white" stroke="#022786" stroke-width="4"/>
<line x1="36.2437" y1="73.417" x2="48.8882" y2="73.417" stroke="#022786" stroke-width="4" stroke-linecap="round"/>
<line x1="27.9214" y1="73.417" x2="29.2979" y2="73.417" stroke="#022786" stroke-width="4" stroke-linecap="round"/>
<path d="M57.8809 35.8672C57.8809 34.7626 58.7763 33.8672 59.8809 33.8672H72.7948C73.8993 33.8672 74.7948 34.7626 74.7948 35.8672V80.2613C74.7948 81.3659 73.8993 82.2613 72.7948 82.2613H59.8809C58.7763 82.2613 57.8809 81.3659 57.8809 80.2613V35.8672Z" fill="white" stroke="#022786" stroke-width="4"/>
<circle cx="74.7946" cy="33.8663" r="9.73988" fill="white"/>
<path fill-rule="evenodd" clip-rule="evenodd" d="M74.7949 45.8105C81.391 45.8105 86.7382 40.4633 86.7382 33.8671C86.7382 27.271 81.391 21.9238 74.7949 21.9238C68.1988 21.9238 62.8516 27.271 62.8516 33.8671C62.8516 40.4633 68.1988 45.8105 74.7949 45.8105ZM75.0456 28.2018C74.72 28.0826 74.4018 28.1514 74.158 28.3077C73.9214 28.4594 73.7456 28.6963 73.6531 28.9555L72.4378 32.3582C72.3866 32.5017 72.3604 32.6529 72.3604 32.8052L72.3604 39.5932L78.3711 39.5933C79.0222 39.5933 79.5796 39.121 79.6814 38.4751C79.8222 37.5817 79.9588 36.6675 80.0952 35.7553L80.0952 35.7553L80.0952 35.7552L80.0952 35.755L80.0953 35.7542C80.2169 34.9409 80.3382 34.1293 80.462 33.3356C80.5878 32.5291 79.966 31.7952 79.1459 31.7952H76.3628V30.0419C76.3628 29.9952 76.3605 29.9362 76.3494 29.8711C76.3198 29.6971 76.2015 29.1487 75.7882 28.6988C75.6036 28.4978 75.3604 28.3169 75.0456 28.2018ZM70.4404 32.8583C69.7063 32.8583 69.1112 33.4534 69.1112 34.1875V38.2638C69.1112 38.9979 69.7063 39.593 70.4404 39.593H71.4742V32.8583H70.4404Z" fill="#022786"/>
<path d="M30.0942 35.8672C30.0942 34.7626 30.9897 33.8672 32.0942 33.8672H41.7466C42.8512 33.8672 43.7466 34.7626 43.7466 35.8672V43.8571C43.7466 45.0993 42.3233 45.8036 41.3358 45.05V45.05C40.7563 44.6078 39.9428 44.646 39.4074 45.1406L38.6564 45.8341C37.9843 46.455 36.9765 46.5405 36.2094 46.0417L34.4383 44.8904C33.8801 44.5275 33.1539 44.5549 32.6245 44.9588V44.9588C31.588 45.7498 30.0942 45.0106 30.0942 43.7068V35.8672Z" stroke="#022786" stroke-width="4"/>
</g>
</svg>
