<svg xmlns="http://www.w3.org/2000/svg" xmlns:xlink="http://www.w3.org/1999/xlink" width="68" height="68" viewBox="0 0 68 68">
    <defs>
        <circle id="a" cx="34" cy="34" r="34"/>
        <linearGradient id="c" x1="0%" y1="21.875%" y2="78.125%">
            <stop offset="0%" stop-color="#F8FAFB"/>
            <stop offset="100%" stop-color="#EEF2F5"/>
        </linearGradient>
        <linearGradient id="d" x1="0%" y1="48.98%" y2="51.02%">
            <stop offset="0%" stop-color="#EEF2F5"/>
            <stop offset="100%" stop-color="#C3D4FA"/>
        </linearGradient>
        <linearGradient id="e" x1="50%" x2="50%" y1="0%" y2="100%">
            <stop offset="0%" stop-color="#E6F7FF"/>
            <stop offset="100%" stop-color="#C3D4FA"/>
        </linearGradient>
        <linearGradient id="f" x1="13.265%" x2="86.735%" y1="0%" y2="100%">
            <stop offset="0%" stop-color="#FFE557"/>
            <stop offset="100%" stop-color="#FFC72C"/>
        </linearGradient>
        <linearGradient id="g" x1="50%" x2="50%" y1="100%" y2="0%">
            <stop offset="0%" stop-color="#5685F1"/>
            <stop offset="100%" stop-color="#326BEE"/>
        </linearGradient>
        <linearGradient id="h" x1="100%" x2="0%" y1="86.735%" y2="13.265%">
            <stop offset="0%" stop-color="#CEF2FD"/>
            <stop offset="100%" stop-color="#8BDCFB"/>
        </linearGradient>
        <linearGradient id="i" x1="55.556%" x2="44.444%" y1="100%" y2="0%">
            <stop offset="0%" stop-color="#8BDCFB"/>
            <stop offset="100%" stop-color="#8BDCFB"/>
        </linearGradient>
        <linearGradient id="j" x1="0%" y1="0%" y2="100%">
            <stop offset="0%" stop-color="#2FB7EC"/>
            <stop offset="100%" stop-color="#4A90E2"/>
        </linearGradient>
        <linearGradient id="k" x1="0%" y1="42.969%" y2="57.031%">
            <stop offset="0%" stop-color="#CEF2FD"/>
            <stop offset="100%" stop-color="#EEF2F5"/>
        </linearGradient>
        <linearGradient id="l" x1="72.222%" x2="27.778%" y1="0%" y2="100%">
            <stop offset="0%" stop-color="#2FB7EC"/>
            <stop offset="100%" stop-color="#8BDCFB"/>
        </linearGradient>
        <linearGradient id="m" x1="100%" x2="0%" y1="44.444%" y2="55.556%">
            <stop offset="0%" stop-color="#8BDCFB"/>
            <stop offset="100%" stop-color="#2FB7EC"/>
        </linearGradient>
        <linearGradient id="n" x1="100%" x2="0%" y1="78.125%" y2="21.875%">
            <stop offset="0%" stop-color="#CEF2FD"/>
            <stop offset="100%" stop-color="#8BDCFB"/>
        </linearGradient>
        <linearGradient id="o" x1="53.125%" x2="46.875%" y1="100%" y2="0%">
            <stop offset="0%" stop-color="#8BDCFB"/>
            <stop offset="100%" stop-color="#8BDCFB" stop-opacity=".4"/>
        </linearGradient>
        <linearGradient id="p" x1="100%" x2="0%" y1="21.875%" y2="78.125%">
            <stop offset="0%" stop-color="#8BDCFB"/>
            <stop offset="100%" stop-color="#2FB7EC"/>
        </linearGradient>
    </defs>
    <g fill="none" fill-rule="evenodd">
        <mask id="b" fill="#fff">
            <use xlink:href="#a"/>
        </mask>
        <use fill="#FFF" xlink:href="#a"/>
        <use fill="#C3D4FA" fill-opacity=".6" xlink:href="#a"/>
        <rect width="60" height="3" x="4" y="56" fill="#C3D4FA" mask="url(#b)" rx="1.5"/>
        <path fill="#FFF" fill-rule="nonzero" d="M14 33.917L34 16l20 17.917V56H14z"/>
        <path fill="url(#c)" fill-rule="nonzero" d="M22 35h24a2 2 0 0 1 2 2v19H20V37a2 2 0 0 1 2-2z"/>
        <path fill="url(#d)" fill-rule="nonzero" d="M22 35h24a2 2 0 0 1 2 2v2H20v-2a2 2 0 0 1 2-2z"/>
        <path fill="url(#e)" fill-rule="nonzero" d="M54 38L34.4 20.092 14 38v-3.747l20.4-17.398L54 34.253z"/>
        <path fill="#FFE557" fill-rule="nonzero" d="M24 42h16v14H24z"/>
        <path fill="url(#f)" fill-rule="nonzero" d="M24 42h12v14H24z"/>
        <g fill="#FFF" fill-rule="nonzero" transform="translate(30.8 52.055)">
            <path d="M0 0h3.2v1.618H0z"/>
            <rect width="3.2" height="1" y="2.023" rx=".2"/>
        </g>
        <path fill="#F0B616" fill-rule="nonzero" d="M27 42h6v4l-.992-.4L31 46l-1-.4-1 .4-1-.4-1 .4zM37 42h2v4.046l-1-.405-1 .405z"/>
        <path fill="url(#g)" fill-rule="nonzero" d="M58.894 38.665L34.4 16.855 9.68 38.671a1.806 1.806 0 0 1-2.48-.085 1.623 1.623 0 0 1 .073-2.35L34.4 12l26.9 24.23a1.63 1.63 0 0 1 .069 2.356c-.673.68-1.76.715-2.475.08z"/>
        <path fill="url(#h)" fill-rule="nonzero" d="M40 50h7v6h-7z"/>
        <path fill="url(#i)" fill-rule="nonzero" d="M45 50h2v6h-2z"/>
        <path fill="#2FB7EC" fill-rule="nonzero" d="M41 50h3v2l-.75-.4-.62.4-.88-.4-.75.4z"/>
        <g fill-rule="nonzero">
            <path fill="#4A90E2" d="M4 48h16v8H4z"/>
            <path fill="url(#j)" d="M2 0h8v8H2z" transform="translate(2 48)"/>
            <path fill="url(#k)" d="M2 0h8L9 3H2z" transform="translate(2 48)"/>
            <path fill="url(#l)" d="M2 0v3H0z" opacity=".5" transform="translate(2 48)"/>
            <path fill="#8BDCFB" d="M9 54h3v1H9z"/>
            <path fill="#2FB7EC" d="M12 54h2v1h-2z"/>
            <path fill="url(#m)" d="M11 0h8l-1 3h-8z" transform="matrix(-1 0 0 1 31 48)"/>
        </g>
        <g fill-rule="nonzero">
            <path fill="url(#n)" d="M0 0h16v12H0z" transform="translate(47 44)"/>
            <path fill="url(#o)" d="M13 0h3v12h-3z" transform="translate(47 44)"/>
            <path fill="#8BDCFB" d="M56 53h4v2h-4z"/>
            <path fill="#2FB7EC" fill-opacity=".5" d="M60 53h1v2h-1z"/>
            <path fill="#8BDCFB" d="M54 53h1v2h-1z"/>
        </g>
        <path fill="#2FB7EC" fill-opacity=".8" fill-rule="nonzero" d="M50 44h7v4l-1.158-.4-1.175.4-1.167-.4-1.167.4-1.166-.4L50 48z"/>
        <path fill="url(#p)" fill-rule="nonzero" d="M61 44h3l-1 3h-3z" transform="matrix(-1 0 0 1 124 0)"/>
        <path fill="url(#l)" fill-rule="nonzero" d="M47 44v3h-2z"/>
        <rect width="23" height="23" x="45" y="10" fill="#2FB7EC" rx="11.5"/>
        <path fill="#FFF" d="M62.415 19.936a.843.843 0 0 0-.811.7l-.398 2.866a1.309 1.309 0 0 1-.455.812c-.259.23-.55.345-.875.345a.964.964 0 0 1-.765-.338c-.195-.225-.27-.498-.225-.82l.24-1.738a.599.599 0 0 0-.62-.62h-.953a.847.847 0 0 0-.794.62l-.249 1.739a1.297 1.297 0 0 1-.455.82 1.279 1.279 0 0 1-.86.337.974.974 0 0 1-.771-.345.977.977 0 0 1-.233-.812l.533-3.803c.057-.37-.165-.757-.505-.914l-4.28-1.76c-.266-.107-.566.134-.669.534l-.246.957c-.102.4.13.856.515 1.012l2.694 1.1-.404 2.874c-.135.964.094 1.788.688 2.472.594.684 1.377 1.026 2.35 1.026.897 0 1.717-.298 2.459-.895.592.597 1.333.895 2.222.895.972 0 1.851-.342 2.637-1.026.786-.684 1.247-1.508 1.382-2.472l.43-3.086c.037-.264-.253-.48-.645-.48h-.937z"/>
    </g>
</svg>
