<svg width="227" height="156" viewBox="0 0 227 156" fill="none"
	xmlns="http://www.w3.org/2000/svg">
	<ellipse cx="149.931" cy="78.5786" rx="77.053" ry="77.257" fill="#5685F1"/>
	<path fill-rule="evenodd" clip-rule="evenodd" d="M139.026 62.3283H159.432V62.3257C176.291 81.7546 195.03 103.608 183.239 117.195H183.189C181.095 119.41 170.954 123.591 145.785 123.591C120.735 123.591 115.57 117.671 115.214 117.19C107.117 107.846 115.055 89.5579 139.026 62.3283Z" fill="#3EE5B1"/>
	<path d="M147.822 101.233C154.927 105.531 166.765 110.814 183.338 117.08C194.92 103.484 176.242 81.6986 159.431 62.3265H139.027C132.999 69.174 127.986 75.4542 123.986 81.171C133.792 90.8643 141.737 97.5518 147.822 101.233Z" fill="url(#paint0_linear)"/>
	<path d="M159.705 55.4678H139.339C138.432 55.4678 137.562 55.829 136.921 56.4721C136.28 57.1152 135.919 57.9874 135.919 58.8968C135.919 59.8062 136.28 60.6784 136.921 61.3215C137.562 61.9646 138.432 62.3258 139.339 62.3258H159.705C160.612 62.3258 161.482 61.9646 162.123 61.3215C162.764 60.6784 163.125 59.8062 163.125 58.8968C163.125 57.9874 162.764 57.1152 162.123 56.4721C161.482 55.829 160.612 55.4678 159.705 55.4678Z" fill="#FFD560"/>
	<path d="M166.527 34.8914L149.522 31.4624L132.518 34.8914L139.32 55.4683H159.722L166.527 34.8914Z" fill="url(#paint1_linear)"/>
	<path d="M164.827 38.3198L169.927 40.035L159.725 55.4676L164.827 38.3198Z" fill="#92F1D3"/>
	<path d="M134.218 38.3198L129.117 40.035L139.32 55.4676L134.218 38.3198Z" fill="#1ACC94"/>
	<path opacity="0.4" d="M149.521 31.4624L132.518 34.8914L139.32 55.4683H149.521V31.4624Z" fill="url(#paint2_linear)"/>
	<path d="M155.23 89.8968C149.391 101.162 153.752 115.096 164.988 121.026C166.54 121.841 168.093 122.434 169.719 122.878C171.715 123.397 173.784 123.694 175.854 123.62C177.702 123.62 179.476 123.397 181.25 122.953C181.768 122.804 182.285 122.656 182.877 122.508C185.168 121.767 187.386 120.655 189.308 119.173C189.677 118.876 190.047 118.58 190.417 118.283C192.634 116.43 194.556 114.059 196.035 111.242C196.182 111.02 196.256 110.723 196.404 110.501C201.726 99.3836 197.291 85.8945 186.277 80.1875C183.542 78.7793 180.733 77.964 177.85 77.6676C177.333 77.5935 176.741 77.5935 176.224 77.5935C173.784 77.5193 171.419 77.8899 169.127 78.557C168.61 78.7052 168.093 78.8534 167.649 79.0758C165.875 79.7428 164.249 80.6322 162.696 81.6699C161.07 82.7816 159.592 84.1157 158.335 85.598C157.374 86.7098 156.561 87.8956 155.748 89.2297C155.526 89.3779 155.378 89.6744 155.23 89.8968Z" fill="#FFD560"/>
	<path d="M159.296 92.0472C159.148 92.2696 159.075 92.566 158.927 92.7884C154.787 101.682 158.335 112.355 167.132 116.876C175.854 121.471 186.647 118.284 191.526 109.761C191.673 109.539 191.821 109.242 191.895 109.02C196.552 99.9777 193.078 88.8602 184.06 84.1168C175.041 79.3734 164.027 83.0051 159.296 92.0472Z" fill="#EF8D2E"/>
	<path d="M158.926 92.7894C154.787 101.683 158.335 112.356 167.131 116.877C167.353 116.951 167.501 117.1 167.723 117.174C169.719 118.137 171.788 118.656 173.858 118.878C175.928 119.101 177.998 118.878 179.993 118.434C180.511 118.285 181.028 118.137 181.472 117.989C183.763 117.248 185.833 115.988 187.681 114.431C188.125 114.061 188.568 113.616 188.938 113.246C189.899 112.208 190.712 111.096 191.451 109.836C195.591 100.942 192.043 90.2695 183.246 85.7484C182.137 85.1555 181.028 84.7108 179.846 84.4143C179.254 84.2661 178.663 84.1178 178.072 83.9696C175.632 83.5249 173.193 83.599 170.827 84.1178C170.31 84.2661 169.792 84.3402 169.275 84.4884C167.353 85.0814 165.505 86.0449 163.805 87.2307C162.179 88.4166 160.774 89.8989 159.591 91.6036C159.444 92.0483 159.222 92.4189 158.926 92.7894Z" fill="#FFC72C"/>
	<path fill-rule="evenodd" clip-rule="evenodd" d="M168.367 107.147L171.304 109.482L183.509 94.4662L180.57 92.1316L168.367 107.147Z" fill="#FFE380"/>
	<g style="mix-blend-mode:color">
		<path d="M149.931 155.836C192.486 155.836 226.984 121.246 226.984 78.5786C226.984 35.9108 192.486 1.32166 149.931 1.32166V78.5786L115.778 147.851C126.071 152.963 137.667 155.836 149.931 155.836Z" fill="#C3D4FA"/>
	</g>
	<path d="M149.931 22.1079L147.512 75.8067H152.004L149.931 22.1079Z" fill="white"/>
	<path d="M134.209 110.798L150.622 81.6964L146.649 79.0981L134.209 110.798Z" fill="white"/>
	<ellipse cx="149.759" cy="78.0593" rx="4.31911" ry="4.33055" fill="#EEF2F5"/>
	<path d="M82.5253 143.94C82.5253 143.94 82.5501 147.016 88.1058 151.764C89.3224 152.767 91.1082 153.176 89.9815 155.386C87.0303 153.873 83.8278 152.337 83.8278 152.337L77.9618 147.937L77.3984 149.042L73.9202 147.26C73.9202 147.26 75.7373 141.348 78.0985 141.671C79.8903 142.59 82.5253 143.94 82.5253 143.94Z" fill="#001D53"/>
	<path d="M83.89 139.697L82.525 143.939C80.8504 144.094 79.1128 143.331 78.2577 141.879L78.0981 141.67L80.4118 137.914L83.89 139.697Z" fill="#F3B898"/>
	<path d="M149.269 21.2899C148.517 21.0233 146.526 28.0172 145.626 31.5475C145.565 32.1917 145.651 33.5975 146.482 34.0665C147.52 34.6527 149.367 33.1218 149.24 31.8909C149.113 30.6599 150.21 21.623 149.269 21.2899Z" fill="#EBA580"/>
	<path d="M147.207 30.0678L140.365 33.158L141.597 37.3338L147.742 33.7738L147.207 30.0678Z" fill="#EBA580"/>
	<path d="M10.2384 142.184C10.2384 142.184 8.57663 143.836 12.8673 149.758C13.8153 151.019 15.7199 152.945 14.1077 154.829C11.5924 152.665 9.54115 150.653 9.54115 150.653L4.86749 144.997L4.06138 145.939L1.09695 143.388C1.09695 143.388 4.24572 138.069 6.46549 138.938C7.99263 140.252 10.2384 142.184 10.2384 142.184Z" fill="#001D53"/>
	<path d="M12.4676 138.304L10.1486 142.108C8.48432 141.865 6.97372 140.714 6.48199 139.102L6.37566 138.861L9.50316 135.754L12.4676 138.304Z" fill="#F3B898"/>
	<path d="M120.96 36.5533C107.916 37.6563 98.3685 34.321 92.868 33.4018L90.9036 45.8106C101.25 44.8258 122.885 42.738 126.657 42.2652C130.428 41.7925 137.592 38.2603 142.961 36.5533L141.586 32.121C139.753 32.7119 134.004 35.4503 120.96 36.5533Z" fill="#B8C4CE"/>
	<path d="M149.26 24.3751C148.518 24.1122 146.556 31.0092 145.667 34.4905C145.607 35.1259 145.692 36.5122 146.511 36.9746C147.536 37.5527 149.356 36.043 149.231 34.8292C149.106 33.6153 150.188 24.7036 149.26 24.3751Z" fill="#F3B898"/>
	<path d="M147.252 32.9745L140.411 36.0646L141.642 40.2404L147.787 36.6804L147.252 32.9745Z" fill="#F3B898"/>
	<path d="M58.7491 64.3076C58.7491 64.3076 53.7148 65.7835 48.4406 90.1419C47.3446 94.2542 45.1935 98.0971 42.1792 101.011C27.7247 115.129 8.5554 136.379 8.5554 136.379L13.1366 139.998C13.1366 139.998 46.1531 118.442 58.0701 105.461C69.9373 92.5802 73.0669 88.0884 73.0669 88.0884L74.326 72.3601L58.749 65.7835L58.7491 64.3076Z" fill="#002D80"/>
	<path d="M87.5536 23.0451L77.1476 31.0847L82.9961 37.6229L94.2517 28.3187L87.5536 23.0451Z" fill="#EBA580"/>
	<path d="M104.124 11.489L91.3431 7.67788L87.3472 16.054C87.2635 16.1293 87.2587 16.293 87.1749 16.3683C87.333 16.545 87.4911 16.7218 87.6492 16.8985L87.7282 16.9868L87.8072 17.0752C89.8621 19.3723 90.2605 22.5215 89.5287 25.2522C90.798 26.5022 92.3976 27.6145 94.0905 28.3241C95.2997 28.8309 96.3509 29.161 97.0906 28.9741C105.978 25.3545 104.124 11.489 104.124 11.489Z" fill="#F3B898"/>
	<path d="M89.6871 25.4299L92.137 19.7193L94.0765 20.3666C95.5323 20.8111 97.0165 20.2735 97.6267 18.9277L100.3 13.9733C100.3 13.9733 104.438 17.5855 107.798 14.2447C109.641 12.5873 107.27 9.93669 107.27 9.93669C107.27 9.93669 104.883 10.6483 102.503 8.32505C101.722 7.11413 98.695 4.57512 93.6891 5.56943C90.3254 6.20286 87.4439 9.9101 85.9581 13.3188C84.6446 16.4131 85.5962 20.1807 87.6322 23.1326L89.6871 25.4299Z" fill="#001D53"/>
	<path d="M93.0358 16.8369C92.1285 17.1745 91.7649 18.4579 92.0574 19.6298C92.3498 20.8017 93.3077 21.5345 94.215 21.1969C95.1223 20.8593 95.4859 19.5758 95.1934 18.4039C94.901 17.2321 93.9431 16.4992 93.0358 16.8369Z" fill="#EBA580"/>
	<path d="M55.6805 67.7648C55.6805 67.7648 54.2191 83.0276 70.9312 93.0711C73.2763 95.1494 88.3146 99.3084 88.092 105.699L79.7861 138.291L85.1893 140.663C85.1893 140.663 105.056 104.362 101.016 100.882C101.117 97.9649 88.2973 75.8652 83.5546 72.6391C78.812 69.413 55.6805 67.7648 55.6805 67.7648Z" fill="#003599"/>
	<path d="M55.8562 67.6334L84.2095 73.1513L92.8663 49.7232C92.8663 49.7232 110.439 49.4548 117.915 48.8637C125.391 48.2727 143.01 40.6899 143.01 40.6899L141.194 35.4511C132.893 37.6237 121.27 38.5147 117.02 38.5147C111.027 38.5147 102.254 37.5397 98.1317 35.4509L89.5248 31.0903C82.3531 28.2153 78.6986 24.3929 70.9804 37.6235L55.8562 67.6334Z" fill="#D5DFE6"/>
	<defs>
		<linearGradient id="paint0_linear" x1="96.5531" y1="118.125" x2="182.115" y2="58.4863" gradientUnits="userSpaceOnUse">
			<stop stop-color="#1ACC94"/>
			<stop offset="1" stop-color="#1ACC94" stop-opacity="0"/>
		</linearGradient>
		<linearGradient id="paint1_linear" x1="166.527" y1="37.5164" x2="168.147" y2="80.1787" gradientUnits="userSpaceOnUse">
			<stop stop-color="#92F1D3"/>
			<stop offset="1" stop-color="#2EE3AA"/>
		</linearGradient>
		<linearGradient id="paint2_linear" x1="145.308" y1="31.4624" x2="131.079" y2="51.4431" gradientUnits="userSpaceOnUse">
			<stop stop-color="#1ACC94"/>
			<stop offset="1" stop-color="#2EE3AA"/>
		</linearGradient>
	</defs>
</svg>
