<svg xmlns="http://www.w3.org/2000/svg" width="234" height="163" fill="none" viewBox="0 0 234 163">
    <path fill="#5685F1" d="M175.599 147.437l-10.283-95.762-12.088 106.852h12.408c5.957 0 10.599-5.167 9.963-11.09z"/>
    <path fill="#5685F1" fill-rule="evenodd" d="M22.86 28.446c-7.794 0-14.295 5.957-14.974 13.721l-.245 2.81H165.92l.016-.192c.768-8.784-6.155-16.339-14.973-16.339H22.859zm142.843 19.012H7.423l-.386 4.425h158.279l.387-4.425z" clip-rule="evenodd"/>
    <path fill="#C3D4FA" d="M7.037 51.883h158.279l-7.161 96.318c-.583 7.847-7.12 13.916-14.988 13.916H15.031c-8.74 0-15.637-7.429-14.989-16.145l6.995-94.089z"/>
    <path fill="#F8FAFB" fill-opacity=".7" d="M11.06 136.298c.174-2.084 1.92-3.685 4.01-3.677l10.113.04c2.338.009 4.172 2.009 3.979 4.339l-.906 10.923c-.173 2.084-1.92 3.685-4.01 3.677l-10.112-.04c-2.338-.009-4.172-2.009-3.98-4.339l.907-10.923zM34.909 136.298c.173-2.084 1.919-3.685 4.01-3.677l10.112.039c2.338.009 4.172 2.01 3.979 4.34l-.906 10.923c-.173 2.083-1.919 3.684-4.01 3.676l-10.112-.039c-2.338-.009-4.172-2.009-3.979-4.339l.906-10.923zM58.757 136.298c.173-2.084 1.919-3.685 4.01-3.677l10.112.04c2.338.009 4.172 2.009 3.979 4.339l-.906 10.923c-.173 2.084-1.919 3.685-4.01 3.676l-10.112-.039c-2.338-.009-4.172-2.009-3.979-4.339l.906-10.923zM13.11 112.506c.172-2.084 1.918-3.685 4.01-3.676l10.111.039c2.338.009 4.172 2.009 3.98 4.339l-.907 10.923c-.173 2.084-1.919 3.685-4.01 3.677l-10.112-.04c-2.338-.009-4.172-2.009-3.979-4.339l.906-10.923zM36.957 112.506c.173-2.084 1.92-3.684 4.01-3.676l10.113.039c2.337.009 4.172 2.009 3.978 4.339l-.906 10.923c-.172 2.084-1.919 3.685-4.01 3.677l-10.112-.039c-2.338-.01-4.172-2.01-3.979-4.34l.906-10.923zM60.806 112.506c.172-2.084 1.918-3.684 4.01-3.676l10.112.039c2.338.009 4.172 2.009 3.978 4.339L78 124.131c-.172 2.084-1.918 3.685-4.01 3.677l-10.112-.039c-2.338-.01-4.172-2.01-3.978-4.34l.906-10.923zM84.654 112.506c.172-2.083 1.919-3.684 4.01-3.676l10.112.039c2.338.009 4.172 2.009 3.978 4.339l-.905 10.923c-.173 2.084-1.92 3.685-4.01 3.677l-10.112-.039c-2.339-.009-4.172-2.01-3.98-4.34l.907-10.923zM108.501 112.506c.173-2.083 1.919-3.684 4.01-3.676l10.112.039c2.338.009 4.172 2.009 3.979 4.339l-.906 10.923c-.173 2.084-1.919 3.685-4.01 3.677l-10.112-.039c-2.338-.009-4.172-2.01-3.979-4.34l.906-10.923zM132.349 112.506c.173-2.083 1.919-3.684 4.01-3.676l10.112.039c2.338.009 4.172 2.009 3.979 4.339l-.906 10.923c-.173 2.084-1.919 3.685-4.01 3.677l-10.112-.039c-2.338-.009-4.172-2.01-3.979-4.34l.906-10.923zM14.953 88.715c.173-2.084 1.92-3.685 4.01-3.677l10.112.04c2.338.008 4.172 2.008 3.98 4.339l-.907 10.922c-.173 2.084-1.919 3.685-4.01 3.677l-10.112-.039c-2.338-.009-4.172-2.009-3.979-4.34l.906-10.922zM38.801 88.715c.173-2.084 1.919-3.685 4.01-3.677l10.112.04c2.338.008 4.172 2.008 3.979 4.339l-.906 10.922c-.173 2.084-1.919 3.685-4.01 3.677l-10.112-.039c-2.338-.009-4.172-2.009-3.979-4.34l.906-10.922zM62.65 88.715c.172-2.084 1.918-3.685 4.01-3.677l10.112.04c2.338.008 4.172 2.009 3.978 4.339l-.906 10.923c-.172 2.084-1.918 3.684-4.01 3.676l-10.112-.039c-2.338-.009-4.172-2.009-3.978-4.34l.906-10.922zM86.497 88.715c.173-2.084 1.919-3.685 4.01-3.677l10.112.04c2.338.008 4.172 2.009 3.979 4.339l-.906 10.923c-.173 2.084-1.919 3.684-4.01 3.676l-10.112-.039c-2.338-.009-4.172-2.009-3.979-4.34l.906-10.922zM110.345 88.715c.173-2.084 1.919-3.685 4.01-3.677l10.112.04c2.338.008 4.172 2.009 3.979 4.339l-.906 10.923c-.173 2.084-1.919 3.684-4.01 3.676l-10.112-.039c-2.338-.009-4.172-2.009-3.979-4.34l.906-10.922zM134.193 88.715c.173-2.084 1.919-3.685 4.01-3.677l10.113.04c2.338.008 4.172 2.008 3.978 4.339l-.906 10.922c-.172 2.084-1.918 3.685-4.01 3.677l-10.112-.039c-2.338-.009-4.172-2.009-3.978-4.34l.905-10.922zM40.645 64.923c.173-2.084 1.919-3.685 4.01-3.677l10.112.04c2.338.009 4.172 2.009 3.979 4.339l-.906 10.923c-.173 2.084-1.919 3.684-4.01 3.676l-10.112-.039c-2.338-.009-4.172-2.01-3.979-4.34l.906-10.922zM64.493 64.923c.173-2.084 1.919-3.684 4.01-3.676l10.112.039c2.338.009 4.172 2.01 3.979 4.34l-.906 10.922c-.173 2.084-1.919 3.685-4.01 3.677l-10.112-.04c-2.338-.009-4.172-2.009-3.979-4.339l.906-10.923z"/>
    <path fill="#2EE3AA" d="M88.34 64.923c.174-2.084 1.92-3.684 4.01-3.676l10.113.039c2.338.009 4.172 2.01 3.979 4.34l-.906 10.922c-.173 2.084-1.919 3.685-4.01 3.677l-10.112-.04c-2.338-.009-4.172-2.009-3.98-4.339l.907-10.923z"/>
    <path fill="#F8FAFB" fill-opacity=".7" d="M112.189 64.923c.173-2.084 1.919-3.684 4.01-3.676l10.112.039c2.338.009 4.172 2.01 3.979 4.34l-.906 10.922c-.173 2.084-1.919 3.685-4.01 3.677l-10.112-.04c-2.338-.009-4.172-2.009-3.979-4.339l.906-10.923zM136.037 64.923c.173-2.084 1.919-3.685 4.01-3.677l10.112.04c2.338.009 4.172 2.009 3.979 4.34l-.906 10.922c-.173 2.084-1.919 3.685-4.01 3.677l-10.112-.04c-2.338-.009-4.172-2.009-3.979-4.339l.906-10.923z"/>
    <rect width="9.129" height="17.406" x="35.419" y="17.296" fill="#fff" rx="4.555"/>
    <rect width="3.873" height="10.911" x="37.909" y="20.933" fill="#5685F1" rx="1.933"/>
    <rect width="9.129" height="17.406" x="128.925" y="17.296" fill="#fff" rx="4.555"/>
    <rect width="3.873" height="10.911" x="131.552" y="20.933" fill="#5685F1" rx="1.933"/>
    <path fill="#5685F1" fill-rule="evenodd" d="M77.214 66.064c-.361-.372-.947-.372-1.308 0l-3.24 3.339-2.576-2.656c-.361-.373-.947-.373-1.308 0-.362.372-.362.976 0 1.348l2.576 2.656-3.21 3.309c-.361.372-.361.976 0 1.348.362.373.948.373 1.309 0l3.21-3.308 2.576 2.655c.361.373.947.373 1.309 0 .36-.372.36-.976 0-1.348l-2.577-2.656 3.24-3.338c.36-.373.36-.977 0-1.349zM53.263 66.064c-.36-.373-.946-.373-1.306 0l-3.236 3.343-2.581-2.66c-.361-.373-.947-.373-1.309 0-.36.372-.36.976 0 1.348l2.583 2.663-3.205 3.312c-.361.373-.361.978 0 1.35.36.373.946.373 1.307 0l3.207-3.314 2.57 2.65c.361.372.947.372 1.308 0 .362-.373.362-.977 0-1.35l-2.571-2.65 3.233-3.341c.361-.373.361-.978 0-1.35z" clip-rule="evenodd"/>
    <path fill="#fff" d="M101.633 67.148c.361-.373.946-.373 1.307 0 .36.373.36.978 0 1.35l-6.41 6.624c-.385.398-1.009.398-1.394 0l-.61-.63 7.107-7.344z"/>
    <path fill="#fff" d="M97.09 74.481l-.61.63c-.385.397-1.01.397-1.395 0l-3.532-3.64c-.361-.373-.361-.976 0-1.349.362-.372.947-.372 1.309 0l4.229 4.36z"/>
    <path fill="url(#prefix__paint0_linear)" d="M207.573 108.901h-19.312c-22.69 26.495-30.2 44.289-22.53 53.376h64.371c11.159-13.218-6.575-34.478-22.529-53.379v.003z"/>
    <path fill="url(#prefix__paint1_linear)" d="M196.584 146.749c6.724 4.181 17.928 9.321 33.611 15.416 10.962-13.226-6.715-34.42-22.624-53.266h-19.309c-5.705 6.662-10.449 12.771-14.235 18.333 9.281 9.43 16.8 15.936 22.557 19.517z"/>
    <path fill="#FFD560" d="M207.831 102.227h-19.273c-.859 0-1.682.352-2.289.977-.607.626-.948 1.474-.948 2.359s.341 1.733.948 2.359c.607.625 1.43.977 2.289.977h19.273c.858 0 1.681-.352 2.288-.977.607-.626.948-1.474.948-2.359s-.341-1.733-.948-2.359c-.607-.625-1.43-.977-2.288-.977z"/>
    <path fill="url(#prefix__paint2_linear)" d="M214.287 82.21l-16.093-3.336-16.092 3.336 6.437 20.018h19.308l6.44-20.018z"/>
    <path fill="#92F1D3" d="M212.677 85.546l4.827 1.669-9.655 15.013 4.828-16.682z"/>
    <path fill="#1ACC94" d="M183.711 85.546l-4.828 1.669 9.656 15.013-4.828-16.682z"/>
    <path fill="url(#prefix__paint3_linear)" d="M198.194 78.874l-16.092 3.336 6.437 20.018h9.655V78.874z" opacity=".4"/>
    <path fill="#FFD560" d="M137.514 131.727c-5.267 10.444-1.334 23.361 8.799 28.858 1.4.756 2.8 1.305 4.267 1.717 1.8.481 3.666.756 5.533.688 1.666 0 3.266-.207 4.866-.619.467-.137.933-.275 1.467-.412 2.066-.687 4.066-1.718 5.799-3.092l1-.824c2-1.718 3.733-3.917 5.067-6.528.133-.206.2-.481.333-.687 4.8-10.306.8-22.811-9.133-28.102-2.466-1.305-5-2.061-7.599-2.336-.467-.069-1-.069-1.467-.069-2.2-.069-4.333.275-6.4.893-.466.138-.933.275-1.333.481-1.6.619-3.066 1.443-4.466 2.405-1.467 1.031-2.8 2.268-3.933 3.642-.867 1.03-1.6 2.13-2.334 3.367-.2.137-.333.412-.466.618z"/>
    <path fill="#EF8D2E" d="M141.18 133.721c-.133.206-.2.481-.333.687-3.733 8.245-.534 18.139 7.399 22.331 7.866 4.26 17.599 1.305 21.999-6.597.133-.206.267-.48.333-.687 4.2-8.382 1.067-18.689-7.066-23.086-8.133-4.397-18.066-1.031-22.332 7.352z"/>
    <path fill="#FFC72C" d="M140.847 134.408c-3.733 8.245-.533 18.139 7.4 22.33.2.069.333.207.533.275 1.8.894 3.666 1.374 5.533 1.581 1.866.206 3.733 0 5.533-.413.467-.137.933-.274 1.333-.412 2.067-.687 3.933-1.855 5.6-3.298.4-.343.8-.756 1.133-1.099.867-.962 1.6-1.993 2.267-3.161 3.733-8.245.533-18.139-7.4-22.33-1-.55-2-.962-3.066-1.237l-1.6-.412c-2.2-.413-4.4-.344-6.533.137-.467.137-.934.206-1.4.344-1.733.549-3.4 1.442-4.933 2.542-1.467 1.099-2.733 2.473-3.8 4.054-.133.412-.333.755-.6 1.099z"/>
    <path fill="#FFE380" fill-rule="evenodd" d="M149.361 147.719l2.648 2.165 11.007-13.921-2.65-2.164-11.005 13.92z" clip-rule="evenodd"/>
    <path fill="#FFC72C" d="M198.409 33.426c-.372 2.172-4.776 3.188-9.837 2.268-5.061-.92-8.862-3.427-8.491-5.599l.673-3.93 18.328 3.33-.673 3.931z"/>
    <path fill="url(#prefix__paint4_linear)" d="M189.244 31.763c5.061.92 9.465-.096 9.837-2.268.371-2.172-3.43-4.678-8.491-5.598-5.061-.92-9.464.095-9.836 2.268-.372 2.172 3.43 4.678 8.49 5.598z"/>
    <path fill="#FFC72C" d="M190.859 9.867c.372 2.172 4.776 3.187 9.838 2.267 5.06-.92 8.862-3.426 8.49-5.598l-.673-3.932-18.327 3.331.672 3.932z"/>
    <path fill="url(#prefix__paint5_linear)" d="M200.021 8.207c-5.061.922-9.464-.091-9.834-2.264-.371-2.172 3.431-4.68 8.491-5.602 5.061-.922 9.463.091 9.834 2.264.371 2.172-3.431 4.68-8.491 5.602z"/>
    <path fill="#FFC72C" d="M188.493 59.331c-.332 1.279-3.118 1.62-6.22.764-3.103-.857-5.348-2.59-5.016-3.867l.601-2.312 11.236 3.103-.601 2.314v-.002z"/>
    <path fill="url(#prefix__paint6_linear)" d="M182.875 57.782c3.103.856 5.888.515 6.22-.764.332-1.278-1.914-3.01-5.016-3.866-3.103-.857-5.888-.515-6.22.763-.333 1.279 1.913 3.01 5.016 3.867z"/>
    <path fill="#FFC72C" d="M194.856 70.886c.332 1.279 3.118 1.62 6.22.764 3.103-.857 5.348-2.59 5.016-3.867l-.601-2.312-11.236 3.103.601 2.314v-.002z"/>
    <path fill="url(#prefix__paint7_linear)" d="M200.473 69.337c-3.103.857-5.888.515-6.22-.763-.332-1.279 1.914-3.01 5.016-3.867 3.103-.857 5.888-.515 6.22.764.333 1.278-1.913 3.009-5.016 3.866z"/>
    <path fill="#FFC72C" d="M198.632 50.897c.332 1.278 3.118 1.62 6.22.763 3.103-.857 5.348-2.59 5.016-3.866l-.601-2.312-11.236 3.103.601 2.313v-.001z"/>
    <path fill="url(#prefix__paint8_linear)" d="M204.25 49.347c-3.103.857-5.888.515-6.22-.763-.333-1.278 1.913-3.01 5.016-3.866 3.103-.857 5.888-.516 6.22.763.332 1.278-1.914 3.01-5.016 3.866z"/>
    <path fill="#FFA39E" d="M50.051 114.3c.361-.372.946-.372 1.307 0 .361.373.361.978 0 1.351l-6.41 6.623c-.385.398-1.008.398-1.393 0l-.61-.63 7.106-7.344z"/>
    <path fill="#FFA39E" d="M45.509 121.633l-.611.63c-.385.397-1.01.397-1.395 0l-3.532-3.64c-.361-.372-.361-.976 0-1.349.362-.372.947-.372 1.309 0l4.229 4.359z"/>
    <defs>
        <linearGradient id="prefix__paint0_linear" x1="233.598" x2="173.051" y1="121.295" y2="164.284" gradientUnits="userSpaceOnUse">
            <stop stop-color="#92F1D3"/>
            <stop offset="1" stop-color="#2EE3AA"/>
        </linearGradient>
        <linearGradient id="prefix__paint1_linear" x1="148.066" x2="230.486" y1="163.182" y2="107.297" gradientUnits="userSpaceOnUse">
            <stop stop-color="#1ACC94"/>
            <stop offset="1" stop-color="#1ACC94" stop-opacity="0"/>
        </linearGradient>
        <linearGradient id="prefix__paint2_linear" x1="214.287" x2="215.907" y1="84.763" y2="126.264" gradientUnits="userSpaceOnUse">
            <stop stop-color="#92F1D3"/>
            <stop offset="1" stop-color="#2EE3AA"/>
        </linearGradient>
        <linearGradient id="prefix__paint3_linear" x1="194.207" x2="180.243" y1="78.874" y2="97.948" gradientUnits="userSpaceOnUse">
            <stop stop-color="#1ACC94"/>
            <stop offset="1" stop-color="#2EE3AA"/>
        </linearGradient>
        <linearGradient id="prefix__paint4_linear" x1="180.871" x2="196.038" y1="25.483" y2="34.893" gradientUnits="userSpaceOnUse">
            <stop stop-color="#FFE557"/>
            <stop offset="1" stop-color="#FFC72C"/>
        </linearGradient>
        <linearGradient id="prefix__paint5_linear" x1="208.396" x2="193.221" y1="1.923" y2="11.331" gradientUnits="userSpaceOnUse">
            <stop stop-color="#FFE557"/>
            <stop offset="1" stop-color="#FFC72C"/>
        </linearGradient>
        <linearGradient id="prefix__paint6_linear" x1="177.955" x2="187.018" y1="53.545" y2="60.119" gradientUnits="userSpaceOnUse">
            <stop stop-color="#FFE557"/>
            <stop offset="1" stop-color="#FFC72C"/>
        </linearGradient>
        <linearGradient id="prefix__paint7_linear" x1="205.393" x2="196.33" y1="65.101" y2="71.674" gradientUnits="userSpaceOnUse">
            <stop stop-color="#FFE557"/>
            <stop offset="1" stop-color="#FFC72C"/>
        </linearGradient>
        <linearGradient id="prefix__paint8_linear" x1="209.17" x2="200.107" y1="45.111" y2="51.685" gradientUnits="userSpaceOnUse">
            <stop stop-color="#FFE557"/>
            <stop offset="1" stop-color="#FFC72C"/>
        </linearGradient>
    </defs>
</svg>
