<svg width="1440" height="567" viewBox="0 0 1440 567" fill="none" xmlns="http://www.w3.org/2000/svg">
<rect width="1440" height="567" transform="matrix(-1 0 0 1 1440 0)" fill="#022786"/>
<path fill-rule="evenodd" clip-rule="evenodd" d="M1148.81 564.127C1148.81 564.127 1146.5 555.373 1144.91 550.498C1143.33 545.622 1141.68 539.465 1147.8 540.427C1147.8 540.427 1146.24 523.236 1155.21 524.404C1155.21 524.404 1154.36 503.983 1163.71 508.851C1163.71 508.851 1172.9 487.201 1179.38 498.714C1179.38 498.714 1197.99 489.967 1187.58 510.071C1187.58 510.071 1197.71 512.523 1185.23 521.765L1180.8 525.471C1180.8 525.471 1192.05 529.771 1171.24 539.162C1171.24 539.162 1177.52 545.265 1167.43 550.761C1157.35 556.258 1148.81 564.127 1148.81 564.127Z" fill="#A0BAF7"/>
<path d="M1177.37 506.441C1177.37 506.441 1163.61 525.248 1155.69 550.026" stroke="#F0F3FB" stroke-width="0.737745" stroke-linecap="round"/>
<path fill-rule="evenodd" clip-rule="evenodd" d="M1154.82 567.406C1154.82 567.406 1177.99 522.367 1200.71 543.435C1215.17 556.836 1219.5 521.385 1247.67 546.651C1275.83 571.917 1301.94 550.321 1330.06 567.716L1154.82 567.406Z" fill="#A0BAF7"/>
<path fill-rule="evenodd" clip-rule="evenodd" d="M1232.04 567.809L1047.8 567.673C1046.39 563.288 1057.12 531.764 1110.8 531.192C1130.2 530.985 1158.31 538.627 1165.48 553.849C1172.65 569.07 1181 543.591 1200.24 542.381C1219.17 541.192 1232.2 566.428 1232.04 567.809Z" fill="#6E95F0"/>
<path fill-rule="evenodd" clip-rule="evenodd" d="M943.51 567.836C943.51 567.836 949.856 563.225 962.733 560.113C972.75 557.692 981.929 556.688 992.781 556.17C1017.58 554.985 1024.91 513.696 1051.63 539.187C1078.35 564.677 1089.5 535.375 1110.8 567.738L943.51 567.836Z" fill="#A0BAF7"/>
<mask id="mask0_350:6082" style="mask-type:alpha" maskUnits="userSpaceOnUse" x="997" y="506" width="21" height="21">
<path fill-rule="evenodd" clip-rule="evenodd" d="M997.255 515.619L1006.39 506.154L1017.71 517.081L1008.57 526.546L997.255 515.619Z" fill="white"/>
</mask>
<g mask="url(#mask0_350:6082)">
<path fill-rule="evenodd" clip-rule="evenodd" d="M1008.57 526.545C1008.57 526.545 1000.53 510.321 1004.86 507.857C1009.2 505.394 1015.23 514.42 1008.57 526.545Z" fill="#6E95F0"/>
</g>
<mask id="mask1_350:6082" style="mask-type:alpha" maskUnits="userSpaceOnUse" x="1006" y="551" width="21" height="21">
<path fill-rule="evenodd" clip-rule="evenodd" d="M1006.36 561.082L1015.49 551.634L1026.13 561.907L1017 571.355L1006.36 561.082Z" fill="white"/>
</mask>
<g mask="url(#mask1_350:6082)">
<path fill-rule="evenodd" clip-rule="evenodd" d="M1026.13 561.907C1026.13 561.907 1010.73 552.947 1007.74 560.104C1004.75 567.263 1026.13 561.907 1026.13 561.907Z" fill="#6E95F0"/>
</g>
<path fill-rule="evenodd" clip-rule="evenodd" d="M1016.87 547.378C1016.87 547.378 1001.42 538.374 998.442 545.541C995.458 552.709 1016.87 547.378 1016.87 547.378Z" fill="#6E95F0"/>
<path fill-rule="evenodd" clip-rule="evenodd" d="M1009.25 529.873C1009.25 529.873 993.807 520.87 990.824 528.037C987.84 535.205 1009.25 529.873 1009.25 529.873Z" fill="#6E95F0"/>
<path fill-rule="evenodd" clip-rule="evenodd" d="M1024.47 558.774C1024.47 558.774 1021.34 541.848 1024.7 539.299C1028.06 536.746 1033.46 539.065 1024.47 558.774Z" fill="#6E95F0"/>
<path fill-rule="evenodd" clip-rule="evenodd" d="M1016.4 522.464C1019.97 520.213 1025.15 522.992 1014.47 541.843C1014.47 541.843 1012.83 524.712 1016.4 522.464Z" fill="#6E95F0"/>
<path fill-rule="evenodd" clip-rule="evenodd" d="M1026.44 562.163C1026.4 562.199 1026.35 562.226 1026.3 562.238C1025.34 562.454 1019.89 561.721 1019.27 561.636C1019.13 561.616 1019.02 561.481 1019.04 561.333C1019.06 561.188 1019.2 561.083 1019.34 561.104C1021.41 561.386 1024.52 561.747 1025.75 561.746C1024.67 560.196 1020.54 554.195 1016.6 546.989C1010.47 535.757 1007.68 527.108 1008.32 521.287C1008.33 521.139 1008.47 521.034 1008.61 521.05C1008.76 521.067 1008.86 521.2 1008.85 521.345C1007.35 534.991 1026.27 561.554 1026.46 561.82C1026.51 561.894 1026.53 561.987 1026.49 562.072C1026.48 562.108 1026.46 562.137 1026.44 562.163Z" fill="#6E95F0"/>
<path fill-rule="evenodd" clip-rule="evenodd" d="M1009.32 530.146C1009.27 530.205 1009.18 530.235 1009.09 530.221L1003.47 529.299C1003.32 529.273 1003.22 529.135 1003.24 528.989C1003.26 528.844 1003.39 528.746 1003.54 528.769L1009.16 529.691C1009.31 529.716 1009.41 529.854 1009.39 530C1009.39 530.057 1009.36 530.109 1009.32 530.146Z" fill="#6E95F0"/>
<path fill-rule="evenodd" clip-rule="evenodd" d="M1014.48 541.998C1014.42 542.053 1014.33 542.076 1014.24 542.056C1014.09 542.022 1014.01 541.874 1014.04 541.729L1015.99 533.661C1016.02 533.517 1016.16 533.427 1016.31 533.464C1016.45 533.499 1016.54 533.645 1016.51 533.789L1014.56 541.859C1014.55 541.916 1014.52 541.963 1014.48 541.998Z" fill="#6E95F0"/>
<path fill-rule="evenodd" clip-rule="evenodd" d="M1017.03 547.738C1016.97 547.8 1016.88 547.832 1016.79 547.819L1009.96 546.727C1009.81 546.704 1009.71 546.566 1009.74 546.419C1009.77 546.274 1009.9 546.173 1010.05 546.199L1016.88 547.289C1017.03 547.31 1017.12 547.449 1017.1 547.598C1017.09 547.651 1017.06 547.701 1017.03 547.738Z" fill="#6E95F0"/>
<path fill-rule="evenodd" clip-rule="evenodd" d="M1024.58 559.01C1024.52 559.07 1024.43 559.104 1024.34 559.092C1024.19 559.07 1024.09 558.929 1024.12 558.783L1025.66 549.025C1025.68 548.878 1025.82 548.776 1025.97 548.798C1026.12 548.818 1026.22 548.957 1026.19 549.105L1024.65 558.864C1024.64 558.92 1024.61 558.971 1024.58 559.01Z" fill="#6E95F0"/>
<path fill-rule="evenodd" clip-rule="evenodd" d="M1058 544.766C1079.97 558.655 1091.56 525.527 1110.8 567.732L1055.04 567.748C1055.04 567.748 1051.33 540.545 1058 544.766Z" fill="#376EEE"/>
<path fill-rule="evenodd" clip-rule="evenodd" d="M1095.35 556.59C1095.35 556.59 1068.33 522.529 1075.34 509.919C1082.34 497.307 1099.95 503.747 1103.35 556.59V566.474L1095.35 556.59Z" fill="#0E3AA1"/>
<path fill-rule="evenodd" clip-rule="evenodd" d="M1102.74 558.144C1102.74 558.144 1102.08 529.661 1110.53 525.704C1118.97 521.744 1125.49 531.972 1106.83 561.246L1103.02 566.474L1102.74 558.144Z" fill="#295CEC"/>
<path d="M1081.33 509.371C1081.33 509.371 1094.66 547.699 1102.73 562.626" stroke="#6E95F0" stroke-width="0.737745" stroke-linecap="round"/>
<path d="M1114.34 530.264C1114.34 530.264 1109.33 548.285 1103.35 560.888" stroke="#6E95F0" stroke-width="0.737745" stroke-linecap="round"/>
<path fill-rule="evenodd" clip-rule="evenodd" d="M1243.49 557.72C1243.49 557.72 1212.18 531.566 1212.81 523.44C1213.44 515.314 1231.48 531.535 1243.49 557.72Z" fill="#6E95F0"/>
<path fill-rule="evenodd" clip-rule="evenodd" d="M1237.4 557.179C1237.4 557.179 1232.08 516.898 1238.2 511.422C1244.31 505.946 1246.57 529.988 1237.4 557.179Z" fill="#6E95F0"/>
<path fill-rule="evenodd" clip-rule="evenodd" d="M1139.79 567.716C1146.09 560.848 1151.63 557.473 1156.4 557.59C1158.8 557.648 1161 558.594 1163.01 560.426C1163.01 560.426 1183.54 542.063 1209 567.716H1139.79Z" fill="#376EEE"/>
<mask id="mask2_350:6082" style="mask-type:alpha" maskUnits="userSpaceOnUse" x="1156" y="538" width="30" height="34">
<path fill-rule="evenodd" clip-rule="evenodd" d="M1185.38 543.622L1163.87 538.257L1156.83 566.457L1178.35 571.822L1185.38 543.622Z" fill="white"/>
</mask>
<g mask="url(#mask2_350:6082)">
<path fill-rule="evenodd" clip-rule="evenodd" d="M1158.87 566.963C1157.34 559.735 1159.75 552.27 1165.19 547.485C1172.65 540.922 1181.97 542.802 1182.96 543.017C1184.91 550.521 1182.48 558.416 1176.73 563.226C1169.13 569.587 1159.73 567.197 1158.87 566.963Z" fill="#0E3AA1"/>
</g>
<path d="M1179.76 545.914C1179.76 545.914 1172.97 551.701 1169.36 555.491C1165.45 559.611 1162 563.422 1159.03 566.926" stroke="#6E95F0" stroke-width="0.737745" stroke-linecap="round"/>
<path fill-rule="evenodd" clip-rule="evenodd" d="M1055.94 567.748L979.649 567.813C979.649 567.813 992.924 543.096 1014.66 554.743C1036.39 566.391 1031.76 555.433 1044.64 557.423C1057.52 559.413 1055.97 567.508 1055.94 567.748Z" fill="#376EEE"/>
<mask id="mask3_350:6082" style="mask-type:alpha" maskUnits="userSpaceOnUse" x="1014" y="543" width="26" height="30">
<path fill-rule="evenodd" clip-rule="evenodd" d="M1014.28 549.518L1031.55 543.572L1039.36 566.261L1022.09 572.206L1014.28 549.518Z" fill="white"/>
</mask>
<g mask="url(#mask3_350:6082)">
<path fill-rule="evenodd" clip-rule="evenodd" d="M1037.72 566.822C1038.46 560.769 1035.94 554.801 1031.13 551.254C1024.53 546.39 1017.02 548.6 1016.23 548.847C1015.17 555.157 1017.73 561.476 1022.8 565.022C1029.5 569.711 1037.03 567.075 1037.72 566.822Z" fill="#0E3AA1"/>
</g>
<path d="M1018.82 551.338C1018.82 551.338 1024.79 555.608 1028.01 558.465C1031.51 561.571 1034.6 564.457 1037.28 567.123" stroke="#6E95F0" stroke-width="0.737745" stroke-linecap="round"/>
<path fill-rule="evenodd" clip-rule="evenodd" d="M1214.59 567.714C1217.93 560.58 1218.8 550.331 1218.83 545.508C1218.86 540.686 1217.37 537.643 1214.79 537.644C1212.2 537.646 1210.97 542.418 1210.97 542.418C1210.97 542.418 1208.99 536.182 1206.49 532.275C1203.99 528.368 1199.64 526.975 1197.47 530.662C1195.3 534.349 1199.02 546.255 1199.02 546.255C1198.6 546.052 1195.14 544.4 1193.45 545.882C1191.63 547.474 1193.08 551.61 1193.7 553.372C1196.33 560.88 1203.32 565.427 1208.1 567.714L1214.59 567.714Z" fill="#0E3AA1"/>
<path fill-rule="evenodd" clip-rule="evenodd" d="M1213.64 564.633L1201.98 536.107C1201.92 535.971 1201.99 535.815 1202.13 535.758C1202.27 535.704 1202.43 535.768 1202.49 535.904L1214.15 564.43C1214.21 564.567 1214.14 564.723 1213.99 564.779C1213.98 564.784 1213.97 564.788 1213.96 564.791C1213.83 564.824 1213.69 564.759 1213.64 564.633Z" fill="#6E95F0"/>
<path fill-rule="evenodd" clip-rule="evenodd" d="M1232.27 567.716C1238.58 561.16 1244.11 557.938 1248.88 558.05C1251.28 558.106 1253.49 559.008 1255.5 560.757C1255.5 560.757 1276.03 543.229 1301.48 567.716H1232.27Z" fill="#6E95F0"/>
<mask id="mask4_350:6082" style="mask-type:alpha" maskUnits="userSpaceOnUse" x="1226" y="541" width="40" height="27">
<path fill-rule="evenodd" clip-rule="evenodd" d="M1226.06 541.026H1265.17V567.715H1226.06V541.026Z" fill="white"/>
</mask>
<g mask="url(#mask4_350:6082)">
<path fill-rule="evenodd" clip-rule="evenodd" d="M1258.5 567.715C1258.5 567.715 1268.23 557.281 1264.18 551.232C1260.12 545.184 1253.22 548.409 1250.38 552.846C1250.38 552.846 1250.49 536.115 1236.64 542.464C1222.8 548.814 1226.52 567.715 1226.52 567.715H1258.5Z" fill="#376EEE"/>
</g>
<path fill-rule="evenodd" clip-rule="evenodd" d="M1263.42 539.068C1262.22 539.727 1261.78 541.235 1262.44 542.437C1263.1 543.64 1264.61 544.08 1265.81 543.422C1267.01 542.763 1267.45 541.254 1266.79 540.052C1266.13 538.851 1264.63 538.409 1263.42 539.068Z" fill="#0E3AA1"/>
<path fill-rule="evenodd" clip-rule="evenodd" d="M1255.28 529.539C1254.08 530.198 1253.64 531.706 1254.3 532.908C1254.96 534.11 1256.47 534.551 1257.67 533.892C1258.87 533.234 1259.31 531.725 1258.65 530.523C1257.99 529.321 1256.49 528.88 1255.28 529.539Z" fill="#0E3AA1"/>
<path d="M1257.45 533.48C1257.45 533.48 1260.13 549.647 1252.44 566.128" stroke="#0E3AA1" stroke-width="0.737745" stroke-linecap="round"/>
<path d="M1255.87 557.04C1255.87 557.04 1263.18 547.98 1264.17 542.426C1264.17 542.385 1264.18 542.344 1264.19 542.303" stroke="#0E3AA1" stroke-width="0.737745"/>
<mask id="mask5_350:6082" style="mask-type:alpha" maskUnits="userSpaceOnUse" x="1302" y="517" width="17" height="19">
<path fill-rule="evenodd" clip-rule="evenodd" d="M1305.98 517.919L1318.89 520.43L1315.89 535.871L1302.97 533.361L1305.98 517.919Z" fill="white"/>
</mask>
<g mask="url(#mask5_350:6082)">
<path fill-rule="evenodd" clip-rule="evenodd" d="M1302.97 533.36C1302.97 533.36 1312.2 517.778 1316.63 520.073C1321.06 522.371 1316.77 532.346 1302.97 533.36Z" fill="#376EEE"/>
</g>
<mask id="mask6_350:6082" style="mask-type:alpha" maskUnits="userSpaceOnUse" x="1269" y="550" width="17" height="18">
<path fill-rule="evenodd" clip-rule="evenodd" d="M1272.81 550.321L1285.7 552.827L1282.88 567.344L1269.99 564.837L1272.81 550.321Z" fill="white"/>
</mask>
<g mask="url(#mask6_350:6082)">
<path fill-rule="evenodd" clip-rule="evenodd" d="M1282.88 567.344C1282.88 567.344 1282.01 549.551 1274.38 550.943C1266.75 552.335 1282.88 567.344 1282.88 567.344Z" fill="#376EEE"/>
</g>
<path fill-rule="evenodd" clip-rule="evenodd" d="M1290.02 551.665C1290.02 551.665 1289.16 533.81 1281.53 535.212C1273.89 536.614 1290.02 551.665 1290.02 551.665Z" fill="#376EEE"/>
<path fill-rule="evenodd" clip-rule="evenodd" d="M1300.55 535.742C1300.55 535.742 1299.69 517.887 1292.06 519.289C1284.42 520.691 1300.55 535.742 1300.55 535.742Z" fill="#376EEE"/>
<path fill-rule="evenodd" clip-rule="evenodd" d="M1284.6 564.244C1284.6 564.244 1297.1 552.404 1301.06 553.833C1305.03 555.258 1306.03 561.05 1284.6 564.244Z" fill="#376EEE"/>
<path fill-rule="evenodd" clip-rule="evenodd" d="M1292.37 548.527C1292.37 548.527 1304.86 536.689 1308.83 538.115C1312.8 539.543 1313.79 545.332 1292.37 548.527Z" fill="#376EEE"/>
<path fill-rule="evenodd" clip-rule="evenodd" d="M1282.83 567.742C1282.78 567.732 1282.74 567.707 1282.7 567.671C1282 566.984 1279.64 562.013 1279.37 561.447C1279.31 561.314 1279.37 561.154 1279.5 561.091C1279.64 561.027 1279.8 561.083 1279.86 561.218C1280.75 563.103 1282.14 565.909 1282.81 566.941C1283.52 565.188 1286.31 558.46 1290.21 551.233C1296.28 539.969 1302.02 532.919 1307.25 530.283C1307.38 530.217 1307.54 530.271 1307.61 530.403C1307.67 530.537 1307.62 530.697 1307.49 530.763C1295.23 536.94 1283.25 567.269 1283.13 567.576C1283.1 567.659 1283.03 567.722 1282.94 567.741C1282.9 567.749 1282.87 567.749 1282.83 567.742Z" fill="#376EEE"/>
<path fill-rule="evenodd" clip-rule="evenodd" d="M1300.37 535.953C1300.29 535.938 1300.21 535.883 1300.18 535.801L1297.89 530.583C1297.83 530.444 1297.89 530.283 1298.02 530.22C1298.15 530.157 1298.31 530.217 1298.37 530.354L1300.66 535.572C1300.72 535.709 1300.66 535.87 1300.53 535.932C1300.48 535.959 1300.42 535.963 1300.37 535.953Z" fill="#376EEE"/>
<path fill-rule="evenodd" clip-rule="evenodd" d="M1292.25 548.628C1292.17 548.612 1292.1 548.558 1292.06 548.473C1291.99 548.34 1292.06 548.179 1292.19 548.118L1299.75 544.684C1299.88 544.622 1300.04 544.68 1300.1 544.818C1300.16 544.953 1300.1 545.112 1299.97 545.174L1292.41 548.608C1292.36 548.633 1292.3 548.638 1292.25 548.628Z" fill="#376EEE"/>
<path fill-rule="evenodd" clip-rule="evenodd" d="M1289.81 551.995C1289.72 551.978 1289.65 551.922 1289.61 551.839L1286.8 545.515C1286.74 545.381 1286.81 545.224 1286.94 545.166C1287.08 545.108 1287.24 545.168 1287.3 545.304L1290.1 551.628C1290.17 551.762 1290.1 551.919 1289.96 551.979C1289.91 552 1289.86 552.005 1289.81 551.995Z" fill="#376EEE"/>
<path fill-rule="evenodd" clip-rule="evenodd" d="M1284.47 564.465C1284.38 564.449 1284.31 564.394 1284.27 564.312C1284.21 564.176 1284.27 564.015 1284.41 563.956L1293.43 559.938C1293.57 559.876 1293.73 559.937 1293.79 560.073C1293.85 560.209 1293.79 560.368 1293.65 560.429L1284.63 564.447C1284.58 564.471 1284.52 564.475 1284.47 564.465Z" fill="#376EEE"/>
<path d="M980.791 538.187C980.791 538.187 992.411 551.171 987.836 567.513" stroke="#376EEE" stroke-width="0.737745" stroke-linecap="round"/>
<ellipse cx="979.341" cy="535.953" rx="6.53585" ry="2.66275" transform="rotate(-33 979.341 535.953)" fill="#295CEC"/>
<ellipse cx="979.341" cy="535.953" rx="4.11517" ry="1.69448" transform="rotate(-33 979.341 535.953)" fill="#376EEE"/>
<path d="M963.677 535.801C963.677 535.801 981.287 545.785 982.942 567.478" stroke="#376EEE" stroke-width="0.737745" stroke-linecap="round"/>
<ellipse cx="960.951" cy="533.746" rx="8.3793" ry="3.41379" transform="rotate(-53 960.951 533.746)" fill="#295CEC"/>
<ellipse cx="960.951" cy="533.746" rx="5.27585" ry="2.17241" transform="rotate(-53 960.951 533.746)" fill="#376EEE"/>
<path d="M967.083 551.388C967.083 551.388 978.726 554.848 982.621 567.307" stroke="#376EEE" stroke-width="0.737745" stroke-linecap="round"/>
<ellipse cx="965.212" cy="550.555" rx="5.02758" ry="2.04827" transform="rotate(-66 965.212 550.555)" fill="#295CEC"/>
<ellipse cx="965.212" cy="550.555" rx="3.16551" ry="1.30345" transform="rotate(-66 965.212 550.555)" fill="#376EEE"/>
<path fill-rule="evenodd" clip-rule="evenodd" d="M1122.51 369.956V311.118H1112.48L1130.79 292.75L1149.1 311.118H1139.2V365.383L1122.51 369.956Z" fill="url(#paint0_linear_350:6082)"/>
<path fill-rule="evenodd" clip-rule="evenodd" d="M1163.16 366.541V323.8H1158.41L1166.48 315.716L1174.55 323.8H1169.76V366.541H1163.16Z" fill="url(#paint1_linear_350:6082)"/>
<path fill-rule="evenodd" clip-rule="evenodd" d="M1089.52 372.199V335.51H1083.3L1093.86 325.026L1104.41 335.51H1098.14V376.544L1089.52 372.199Z" fill="url(#paint2_linear_350:6082)"/>
<path fill-rule="evenodd" clip-rule="evenodd" d="M1059.99 383.253C1059.99 383.253 1047.03 382.057 1037.64 389.037C1028.24 396.016 1024.98 410.603 1033.75 423.401C1040.61 433.427 1059.72 441.833 1066.05 449.542C1068.6 452.651 1068.73 456.377 1065.2 458.554C1052.94 466.127 1061.93 472.189 1069.33 466.915C1076.73 461.641 1082.89 450.357 1067.59 439.357C1052.3 428.356 1038.6 422.755 1037.64 407.973C1036.67 393.192 1055.99 391.879 1055.99 391.879C1055.99 391.879 1062.81 391.97 1065.2 393.192C1067.59 394.413 1059.99 383.253 1059.99 383.253Z" fill="url(#paint3_linear_350:6082)"/>
<path fill-rule="evenodd" clip-rule="evenodd" d="M1198.13 383.253C1198.13 383.253 1211.09 382.057 1220.48 389.037C1229.87 396.016 1233.14 410.603 1224.37 423.401C1217.5 433.427 1198.4 441.833 1192.07 449.542C1189.51 452.651 1189.39 456.377 1192.91 458.554C1205.18 466.127 1196.18 472.189 1188.79 466.915C1181.39 461.641 1175.23 450.357 1190.52 439.357C1205.82 428.356 1219.51 422.755 1220.48 407.973C1221.45 393.192 1202.13 391.879 1202.13 391.879C1202.13 391.879 1195.3 391.97 1192.91 393.192C1190.52 394.413 1198.13 383.253 1198.13 383.253Z" fill="url(#paint4_linear_350:6082)"/>
<path fill-rule="evenodd" clip-rule="evenodd" d="M1119 514.957H1140.72C1140.72 514.957 1142.33 532.284 1145.38 541.122C1148.42 549.959 1155.69 558.405 1155.69 558.405L1104.4 557.898C1104.4 557.898 1110.76 551.667 1114.34 541.122C1117.92 530.576 1119 514.957 1119 514.957Z" fill="url(#paint5_linear_350:6082)"/>
<path fill-rule="evenodd" clip-rule="evenodd" d="M1047.62 361.336H1212.1V373.75C1212.1 373.75 1157.94 383.252 1130.32 383.252C1102.7 383.252 1047.62 373.75 1047.62 373.75V361.336Z" fill="url(#paint6_linear_350:6082)"/>
<ellipse cx="1130.47" cy="441.038" rx="71.9884" ry="67.2881" fill="url(#paint7_linear_350:6082)"/>
<rect x="1114.34" y="505.646" width="31.0344" height="10.8621" rx="1.84436" fill="url(#paint8_linear_350:6082)"/>
<path fill-rule="evenodd" clip-rule="evenodd" d="M1097.88 558.51C1098.16 557.812 1098.83 557.354 1099.59 557.354H1159.98C1160.72 557.354 1161.39 557.8 1161.68 558.486L1164.48 565.158C1164.99 566.373 1164.09 567.716 1162.77 567.716H1096.9C1095.59 567.716 1094.7 566.394 1095.19 565.182L1097.88 558.51Z" fill="url(#paint9_linear_350:6082)"/>
<ellipse cx="1055.87" cy="527.06" rx="13.9655" ry="15.8276" transform="rotate(6 1055.87 527.06)" fill="#F0B616"/>
<ellipse cx="1054.01" cy="527.06" rx="13.9655" ry="15.8276" transform="rotate(6 1054.01 527.06)" fill="#FFC72C"/>
<ellipse cx="1054.11" cy="526.968" rx="12.1034" ry="13.9655" transform="rotate(6 1054.11 526.968)" fill="#F0B616"/>
<path d="M1048.07 530.457C1048.42 531.44 1049.68 532.866 1052.25 533.081C1054.82 533.295 1056.28 530.794 1055.69 529.172C1054.82 526.757 1051.79 526.761 1050.81 525.21C1049.83 523.658 1050.37 521.935 1051.85 520.976C1053.33 520.018 1056.1 520.018 1057.52 523.273" stroke="white" stroke-width="2.21324" stroke-linecap="round"/>
<path d="M1051.53 533.485V534.66" stroke="white" stroke-width="2.21324" stroke-linecap="round"/>
<path d="M1055.04 518.589V519.763" stroke="white" stroke-width="2.21324" stroke-linecap="round"/>
<rect x="1034.45" y="542.796" width="42.8275" height="5.5862" fill="#FBDC91"/>
<rect x="1027.01" y="547.637" width="42.8275" height="5.5862" fill="#FFD560"/>
<rect x="1038.18" y="552.479" width="42.8275" height="5.5862" fill="#FBDC91"/>
<rect x="1032.59" y="557.32" width="42.8275" height="5.5862" fill="#FFD560"/>
<rect x="1032.59" y="562.161" width="42.8275" height="5.5862" fill="#FBDC91"/>
<rect x="1203.28" y="552.199" width="42.8275" height="5.5862" fill="#FFD560"/>
<rect x="1210.73" y="557.04" width="42.8275" height="5.5862" fill="#FBDC91"/>
<rect x="1210.73" y="547.233" width="42.8275" height="5.5862" fill="#FBDC91"/>
<rect x="1210.73" y="562.129" width="42.8275" height="5.5862" fill="#FFD560"/>
<path fill-rule="evenodd" clip-rule="evenodd" d="M1252.96 259.855H1307.5C1307.5 259.855 1306.01 246.533 1296.22 252.158C1296.22 252.158 1285.84 222.553 1275.76 252.158C1275.76 252.158 1262.26 245.942 1264.56 255.414C1264.56 255.414 1250.93 250.086 1252.96 259.855Z" fill="#EEF2F5" fill-opacity="0.5"/>
<path fill-rule="evenodd" clip-rule="evenodd" d="M1310.97 281.058H1345.38C1345.38 281.058 1339 265.583 1333.84 276.136C1333.84 276.136 1325.24 252.392 1320.29 276.755C1318.23 275.609 1315.76 275.62 1313.83 276.809C1311.54 278.215 1311.05 280.649 1310.97 281.058Z" fill="#EEF2F5" fill-opacity="0.5"/>
<path fill-rule="evenodd" clip-rule="evenodd" d="M1064.75 302.062H1010.21C1010.21 302.062 1011.69 288.739 1021.48 294.364C1021.48 294.364 1031.86 264.759 1041.95 294.364C1041.95 294.364 1055.45 288.148 1053.15 297.62C1053.15 297.62 1066.78 292.292 1064.75 302.062Z" fill="#EEF2F5" fill-opacity="0.5"/>
<path fill-rule="evenodd" clip-rule="evenodd" d="M191.801 294.35H246.339C246.339 294.35 244.857 281.027 235.066 286.652C235.066 286.652 224.685 257.047 214.598 286.652C214.598 286.652 201.104 280.436 203.402 289.908C203.402 289.908 189.769 284.58 191.801 294.35Z" fill="#EEF2F5" fill-opacity="0.5"/>
<path fill-rule="evenodd" clip-rule="evenodd" d="M352.289 356.095H386.7C386.7 356.095 380.32 340.62 375.158 351.173C375.158 351.173 366.555 327.429 361.608 351.792C359.548 350.646 357.072 350.657 355.146 351.846C352.861 353.253 352.365 355.686 352.289 356.095Z" fill="#EEF2F5" fill-opacity="0.5"/>
<path fill-rule="evenodd" clip-rule="evenodd" d="M148.538 385.354H94C94 385.354 95.4825 372.032 105.273 377.657C105.273 377.657 115.654 348.052 125.741 377.657C125.741 377.657 139.235 371.441 136.937 380.913C136.937 380.913 150.57 375.585 148.538 385.354Z" fill="#EEF2F5" fill-opacity="0.5"/>
<defs>
<linearGradient id="paint0_linear_350:6082" x1="1115.02" y1="286.796" x2="1115.02" y2="353.265" gradientUnits="userSpaceOnUse">
<stop stop-color="#2EE3AA"/>
<stop offset="1" stop-color="white"/>
</linearGradient>
<linearGradient id="paint1_linear_350:6082" x1="1159.33" y1="308.485" x2="1159.33" y2="353.519" gradientUnits="userSpaceOnUse">
<stop stop-color="#2EE3AA"/>
<stop offset="1" stop-color="white"/>
</linearGradient>
<linearGradient id="paint2_linear_350:6082" x1="1086.36" y1="317.697" x2="1086.36" y2="354.291" gradientUnits="userSpaceOnUse">
<stop stop-color="#2EE3AA"/>
<stop offset="1" stop-color="white"/>
</linearGradient>
<linearGradient id="paint3_linear_350:6082" x1="1030.74" y1="424.288" x2="1122.09" y2="439.121" gradientUnits="userSpaceOnUse">
<stop stop-color="#FFD560"/>
<stop offset="1" stop-color="#FFC72C"/>
<stop offset="1" stop-color="#D8D8D8"/>
<stop offset="1" stop-color="#F0B616"/>
</linearGradient>
<linearGradient id="paint4_linear_350:6082" x1="1205.69" y1="349.244" x2="1271.8" y2="381.345" gradientUnits="userSpaceOnUse">
<stop stop-color="#F0B616"/>
<stop offset="1" stop-color="#FFD560"/>
</linearGradient>
<linearGradient id="paint5_linear_350:6082" x1="1104.4" y1="514.957" x2="1104.4" y2="558.405" gradientUnits="userSpaceOnUse">
<stop stop-color="#F0B616"/>
<stop offset="1" stop-color="#FFD560"/>
</linearGradient>
<linearGradient id="paint6_linear_350:6082" x1="555.124" y1="351.014" x2="556.988" y2="493.392" gradientUnits="userSpaceOnUse">
<stop stop-color="#FFD560"/>
<stop offset="1" stop-color="#F0B616"/>
</linearGradient>
<linearGradient id="paint7_linear_350:6082" x1="1038.95" y1="454.939" x2="1139.72" y2="549.122" gradientUnits="userSpaceOnUse">
<stop stop-color="#FFD560"/>
<stop offset="1" stop-color="#F0B616"/>
</linearGradient>
<linearGradient id="paint8_linear_350:6082" x1="1152.61" y1="498.591" x2="1129.36" y2="533.69" gradientUnits="userSpaceOnUse">
<stop stop-color="#F0B616"/>
<stop offset="1" stop-color="#FFD560"/>
</linearGradient>
<linearGradient id="paint9_linear_350:6082" x1="1157.82" y1="584.312" x2="1160.32" y2="554.636" gradientUnits="userSpaceOnUse">
<stop stop-color="#FFD560"/>
<stop offset="1" stop-color="#F0B616"/>
</linearGradient>
</defs>
</svg>
