<svg width="28" height="28" viewBox="0 0 28 28" fill="none" xmlns="http://www.w3.org/2000/svg">
<path d="M3.64645 13.6464C3.45118 13.8417 3.45118 14.1583 3.64645 14.3536L6.82843 17.5355C7.02369 17.7308 7.34027 17.7308 7.53553 17.5355C7.7308 17.3403 7.7308 17.0237 7.53553 16.8284L4.70711 14L7.53553 11.1716C7.7308 10.9763 7.7308 10.6597 7.53553 10.4645C7.34027 10.2692 7.02369 10.2692 6.82843 10.4645L3.64645 13.6464ZM18 13.5L4 13.5V14.5L18 14.5V13.5Z" fill="#8CACF6"/>
<path d="M12 9V5C12 4.44772 12.4477 4 13 4H23C23.5523 4 24 4.44772 24 5V23C24 23.5523 23.5523 24 23 24H13C12.4477 24 12 23.5523 12 23V19" stroke="#8CACF6" stroke-linecap="round"/>
</svg>
