<svg width="28" height="28" viewBox="0 0 28 28" fill="none" xmlns="http://www.w3.org/2000/svg">
<path fill-rule="evenodd" clip-rule="evenodd" d="M6.21929 16.2571L6.21939 16.2575C6.91599 19.0446 9.34668 21.3292 13.9992 22.9438C18.6518 21.3292 21.0825 19.0446 21.7791 16.2575C22.157 14.745 22.8982 11.7679 22.9905 8.94511C20.4766 7.51688 17.9077 6.55006 15.5666 5.669C15.0245 5.46498 14.4946 5.26555 13.9805 5.06607C10.5853 6.25799 7.07644 7.66678 5.00865 8.9193C5.09688 11.7499 5.83831 14.7354 6.21929 16.2571ZM4 8.37539C6.16154 6.93154 10.2485 5.30385 14 4C14.5963 4.235 15.2252 4.47158 15.8787 4.71736C18.3822 5.65903 21.2446 6.73566 24 8.37539C24 11.4945 23.1522 14.8873 22.7513 16.4916L22.7492 16.5C21.9162 19.8331 18.9992 22.3331 13.9992 24C8.99923 22.3331 6.08231 19.8331 5.24923 16.5C4.84692 14.8931 4 11.5008 4 8.37539Z" fill="#8CACF6"/>
<path fill-rule="evenodd" clip-rule="evenodd" d="M13.3111 8.70504C13.5722 8.10288 14.4261 8.10288 14.6872 8.70504L15.8679 11.4278L18.8224 11.7094C19.4757 11.7716 19.7396 12.5838 19.2476 13.0182L17.0229 14.9825L17.6681 17.8793C17.8108 18.5199 17.12 19.0219 16.5548 18.6882L13.9991 17.1794L11.4435 18.6882C10.8783 19.0219 10.1875 18.5199 10.3302 17.8793L10.9754 14.9825L8.75069 13.0182C8.25869 12.5838 8.52257 11.7716 9.17595 11.7094L12.1304 11.4278L13.3111 8.70504ZM13.9991 9.63181L12.9891 11.9611C12.8804 12.2117 12.6441 12.3834 12.3721 12.4093L9.84473 12.6502L11.7479 14.3306C11.9527 14.5114 12.0429 14.7892 11.9835 15.0559L11.4316 17.534L13.6179 16.2432C13.8531 16.1044 14.1452 16.1044 14.3804 16.2432L16.5667 17.534L16.0148 15.0559C15.9554 14.7892 16.0456 14.5114 16.2504 14.3306L18.1536 12.6502L15.6262 12.4093C15.3542 12.3834 15.1179 12.2117 15.0092 11.9611L13.9991 9.63181Z" fill="#8CACF6"/>
</svg>
