<svg width="242" height="64" viewBox="0 0 242 64" fill="none" xmlns="http://www.w3.org/2000/svg">
<path d="M12.2566 49H10.5076L6.78959 42.84H6.74559C6.76759 43.17 6.78592 43.5257 6.80059 43.907C6.82259 44.281 6.83726 44.6587 6.84459 45.04V49H5.57959V41.146H7.31759L11.0246 47.262H11.0576C11.0429 46.9687 11.0283 46.6313 11.0136 46.25C10.9989 45.8687 10.9879 45.4983 10.9806 45.139V41.146H12.2566V49Z" fill="white"/>
<path d="M18.4372 44.688H21.4072V48.681C20.9892 48.813 20.5602 48.9193 20.1202 49C19.6802 49.0733 19.1816 49.11 18.6242 49.11C17.4362 49.11 16.5232 48.758 15.8852 48.054C15.2472 47.35 14.9282 46.3527 14.9282 45.062C14.9282 44.248 15.0859 43.5403 15.4012 42.939C15.7239 42.3303 16.1896 41.861 16.7982 41.531C17.4069 41.201 18.1476 41.036 19.0202 41.036C19.4456 41.036 19.8562 41.08 20.2522 41.168C20.6556 41.256 21.0222 41.3697 21.3522 41.509L20.8682 42.664C20.6116 42.5467 20.3219 42.444 19.9992 42.356C19.6766 42.268 19.3392 42.224 18.9872 42.224C18.4519 42.224 17.9899 42.3413 17.6012 42.576C17.2126 42.8107 16.9119 43.1443 16.6992 43.577C16.4939 44.0023 16.3912 44.5047 16.3912 45.084C16.3912 45.6413 16.4719 46.1327 16.6332 46.558C16.7946 46.9833 17.0512 47.317 17.4032 47.559C17.7552 47.801 18.2136 47.922 18.7782 47.922C19.0569 47.922 19.2916 47.9073 19.4822 47.878C19.6729 47.8487 19.8526 47.8157 20.0212 47.779V45.887H18.4372V44.688Z" fill="white"/>
<path d="M30.5097 42.18C30.8104 42.0993 31.0194 41.9233 31.1367 41.652C31.254 41.3807 31.3127 41.0433 31.3127 40.64H32.7097L32.7867 40.761C32.7134 41.1423 32.5997 41.4907 32.4457 41.806C32.299 42.1213 32.0717 42.389 31.7637 42.609C31.463 42.8217 31.045 42.9683 30.5097 43.049V46.228C30.5097 46.7707 30.396 47.262 30.1687 47.702C29.9487 48.1347 29.604 48.4793 29.1347 48.736C28.6727 48.9853 28.0824 49.11 27.3637 49.11C26.337 49.11 25.556 48.846 25.0207 48.318C24.4854 47.7827 24.2177 47.0787 24.2177 46.206V41.146H25.6257V46.151C25.6257 47.3243 26.216 47.911 27.3967 47.911C28.0054 47.911 28.4417 47.757 28.7057 47.449C28.977 47.1337 29.1127 46.6973 29.1127 46.14V41.146H30.5097V42.18Z" fill="white"/>
<path d="M41.4863 45.062C41.4863 45.876 41.3506 46.5873 41.0793 47.196C40.8079 47.7973 40.3973 48.2667 39.8473 48.604C39.3046 48.9413 38.6189 49.11 37.7903 49.11C36.9543 49.11 36.2613 48.9413 35.7113 48.604C35.1686 48.2667 34.7616 47.7937 34.4903 47.185C34.2263 46.5763 34.0943 45.865 34.0943 45.051C34.0943 44.2443 34.2263 43.5403 34.4903 42.939C34.7616 42.3303 35.1723 41.861 35.7223 41.531C36.2723 41.1937 36.9689 41.025 37.8123 41.025C38.4356 41.025 38.9783 41.124 39.4403 41.322C39.9023 41.5127 40.2873 41.784 40.5953 42.136C40.8079 42.0333 40.9546 41.85 41.0353 41.586C41.1233 41.3147 41.1673 40.9993 41.1673 40.64H42.5643L42.6413 40.761C42.5386 41.2963 42.3699 41.751 42.1353 42.125C41.9006 42.4917 41.5523 42.7667 41.0903 42.95C41.3543 43.544 41.4863 44.248 41.4863 45.062ZM35.5793 45.062C35.5793 45.9493 35.7553 46.646 36.1073 47.152C36.4593 47.658 37.0203 47.911 37.7903 47.911C38.5749 47.911 39.1396 47.658 39.4843 47.152C39.8289 46.646 40.0013 45.9493 40.0013 45.062C40.0013 44.1747 39.8289 43.478 39.4843 42.972C39.1396 42.466 38.5786 42.213 37.8013 42.213C37.0239 42.213 36.4593 42.466 36.1073 42.972C35.7553 43.478 35.5793 44.1747 35.5793 45.062ZM37.5263 38.682C37.6216 38.8433 37.7389 39.0267 37.8783 39.232C38.0176 39.43 38.1606 39.6243 38.3073 39.815C38.4613 40.0057 38.5933 40.167 38.7033 40.299V40.442H37.7903C37.6069 40.31 37.3943 40.1413 37.1523 39.936C36.9103 39.7307 36.6756 39.5217 36.4483 39.309C36.2283 39.0963 36.0596 38.924 35.9423 38.792V38.682H37.5263Z" fill="white"/>
<path d="M47.2504 49H43.9504V48.197L44.8964 47.845V42.312L43.9504 41.949V41.146H47.2504V41.949L46.3044 42.312V47.845L47.2504 48.197V49Z" fill="white"/>
<path d="M55.8821 41.146C56.9014 41.146 57.6714 41.2927 58.1921 41.586C58.7201 41.8793 58.9841 42.389 58.9841 43.115C58.9841 43.5697 58.8704 43.951 58.6431 44.259C58.4158 44.567 58.0894 44.7577 57.6641 44.831V44.886C57.9501 44.9373 58.2104 45.0327 58.4451 45.172C58.6798 45.304 58.8631 45.4983 58.9951 45.755C59.1344 46.0043 59.2041 46.3343 59.2041 46.745C59.2041 47.4563 58.9511 48.01 58.4451 48.406C57.9464 48.802 57.2608 49 56.3881 49H53.5171V41.146H55.8821ZM56.0691 44.347C56.6264 44.347 57.0078 44.259 57.2131 44.083C57.4258 43.907 57.5321 43.6467 57.5321 43.302C57.5321 42.95 57.4038 42.697 57.1471 42.543C56.8978 42.389 56.5018 42.312 55.9591 42.312H54.9251V44.347H56.0691ZM54.9251 45.48V47.823H56.2011C56.7731 47.823 57.1691 47.713 57.3891 47.493C57.6164 47.273 57.7301 46.9797 57.7301 46.613C57.7301 46.2757 57.6128 46.0043 57.3781 45.799C57.1508 45.5863 56.7364 45.48 56.1351 45.48H54.9251Z" fill="white"/>
<path d="M66.6728 49L65.9578 46.921H62.9988L62.2948 49H60.7988L63.6808 41.113H65.2868L68.1688 49H66.6728ZM64.9128 43.687C64.8834 43.5843 64.8394 43.445 64.7808 43.269C64.7221 43.093 64.6634 42.9133 64.6048 42.73C64.5534 42.5393 64.5131 42.3817 64.4838 42.257C64.4471 42.4037 64.3994 42.5723 64.3408 42.763C64.2894 42.9537 64.2381 43.1333 64.1868 43.302C64.1354 43.4707 64.0988 43.599 64.0768 43.687L63.3838 45.711H65.5948L64.9128 43.687ZM66.5408 38.792C66.4234 38.924 66.2511 39.0963 66.0238 39.309C65.8038 39.5217 65.5728 39.7307 65.3308 39.936C65.0888 40.1413 64.8798 40.31 64.7038 40.442H63.7798V40.299C63.8898 40.167 64.0181 40.0057 64.1648 39.815C64.3114 39.6243 64.4544 39.43 64.5938 39.232C64.7404 39.0267 64.8614 38.8433 64.9568 38.682H66.5408V38.792Z" fill="white"/>
<path d="M76.8787 49H75.1297L71.4117 42.84H71.3677C71.3897 43.17 71.408 43.5257 71.4227 43.907C71.4447 44.281 71.4593 44.6587 71.4667 45.04V49H70.2017V41.146H71.9397L75.6467 47.262H75.6797C75.665 46.9687 75.6503 46.6313 75.6357 46.25C75.621 45.8687 75.61 45.4983 75.6027 45.139V41.146H76.8787V49Z" fill="white"/>
<path d="M86.5977 49H85.1897V42.334H82.9347V41.146H88.8527V42.334H86.5977V49Z" fill="white"/>
<path d="M93.2882 41.146C94.3222 41.146 95.0848 41.3367 95.5762 41.718C96.0748 42.0993 96.3242 42.6787 96.3242 43.456C96.3242 43.8373 96.2508 44.1637 96.1042 44.435C95.9648 44.7063 95.7815 44.9337 95.5542 45.117C95.3268 45.293 95.0812 45.436 94.8172 45.546L97.0722 49H95.4882L93.6072 45.898H92.4632V49H91.0552V41.146H93.2882ZM93.2002 42.323H92.4632V44.743H93.2442C93.8235 44.743 94.2415 44.6403 94.4982 44.435C94.7622 44.2223 94.8942 43.9107 94.8942 43.5C94.8942 43.0747 94.7548 42.774 94.4762 42.598C94.2048 42.4147 93.7795 42.323 93.2002 42.323Z" fill="white"/>
<path d="M103.632 49H99.1665V41.146H103.632V42.323H100.575V44.325H103.435V45.502H100.575V47.812H103.632V49ZM102.257 38.682C102.353 38.8433 102.481 39.0267 102.643 39.232C102.811 39.43 102.983 39.6243 103.16 39.815C103.336 40.0057 103.493 40.1707 103.632 40.31V40.442H102.698C102.5 40.3247 102.291 40.1853 102.071 40.024C101.851 39.8553 101.645 39.672 101.454 39.474C101.264 39.672 101.062 39.8517 100.85 40.013C100.644 40.1743 100.442 40.3173 100.244 40.442H99.3205V40.31C99.4598 40.1707 99.6138 40.0057 99.7825 39.815C99.9585 39.6243 100.127 39.43 100.288 39.232C100.457 39.0267 100.589 38.8433 100.685 38.682H102.257Z" fill="white"/>
<path d="M112.977 49H111.228L107.51 42.84H107.466C107.488 43.17 107.507 43.5257 107.521 43.907C107.543 44.281 107.558 44.6587 107.565 45.04V49H106.3V41.146H108.038L111.745 47.262H111.778C111.764 46.9687 111.749 46.6313 111.734 46.25C111.72 45.8687 111.709 45.4983 111.701 45.139V41.146H112.977V49Z" fill="white"/>
<path d="M199.333 40.1513C198.912 35.4465 194.885 34.6449 190.953 33.3427C187.4 32.1653 184.063 32.0591 183.703 29.5385C183.322 26.8634 185.974 25.2434 188.752 25.7303C191.766 26.2582 192.34 28.5543 191.644 30.0423C193.034 31.7485 196.488 31.5601 197.549 30.3771C198.423 29.4025 198.718 27.7913 196.885 26.2622C194.638 24.3863 190.03 23.4913 185.62 24.3114C181.28 25.1162 177.844 27.6255 178.233 31.8088C178.651 36.3092 181.886 37.6162 187.01 38.9714C191.969 40.2849 193.595 41.6538 193.271 43.9402C192.981 45.9795 191.233 47.6511 187.491 47.2229C183.749 46.7948 181.785 43.9555 182.548 40.7524C178.29 39.7827 176.45 43.9402 179.999 46.6862C183.414 49.3291 190.12 49.556 193.898 48.1259C197.28 46.8463 199.721 44.506 199.333 40.1513Z" fill="white"/>
<path d="M169.963 22.3517C172.276 22.3517 174.152 20.706 174.152 18.6763C174.152 16.6466 172.276 15 169.963 15C167.649 15 165.773 16.6458 165.773 18.6763C165.773 20.7068 167.649 22.3517 169.963 22.3517Z" fill="white"/>
<path d="M173.269 24.3629C172.228 24.822 171.102 25.059 169.965 25.059C168.827 25.059 167.702 24.822 166.661 24.3629L166.652 48.6297H173.273L173.269 24.3629Z" fill="white"/>
<path d="M216.998 23.6378C214.61 23.6378 212.352 24.3726 210.574 25.7045V15.73H203.784V48.6265H210.549V33.3871C210.549 29.5168 211.149 27.6835 213.117 26.2196C214.904 24.8901 217.424 25.1267 218.796 26.0788C220.454 27.2304 220.379 29.9812 220.379 32.1783V48.6298H227V32.0736C227 26.1713 222.955 23.6378 216.998 23.6378Z" fill="white"/>
<path d="M154.404 48.6297H147.787L142.582 33.6172L138.908 48.6297H132.288L124 24.3645H130.796L137.815 45.3574C140.326 38.3203 141.899 31.767 139.461 24.3645H146.08L154.404 48.6297Z" fill="white"/>
<path d="M157.591 23.6031C156.027 26.3024 154.337 28.2878 152.069 30.2724C154.343 32.6651 156.422 35.9913 157.591 39.1605C158.763 35.9913 160.839 32.6651 163.114 30.2724C160.844 28.2878 159.154 26.3024 157.591 23.6031Z" fill="white"/>
</svg>
