<svg width="232" height="64" viewBox="0 0 232 64" fill="none" xmlns="http://www.w3.org/2000/svg">
<path d="M14.5254 49.2199C16.2084 49.2199 17.2534 48.2959 17.2534 46.8769C17.2534 45.8319 16.6814 45.1719 15.3064 44.6439L14.5254 44.3359C13.8104 44.0389 13.4364 43.7749 13.4364 43.2469C13.4364 42.6749 13.8654 42.3559 14.7234 42.3559C15.5814 42.3559 16.2854 42.6749 16.9124 43.1919V41.7949C16.4174 41.4209 15.6364 41.0799 14.6134 41.0799C12.9414 41.0799 11.9514 41.9709 11.9514 43.3239C11.9514 44.3469 12.5234 45.0289 13.7444 45.4909L14.5474 45.7989C15.4494 46.1839 15.7024 46.4259 15.7024 46.9319C15.7024 47.5699 15.2734 47.9329 14.3934 47.9329C13.4584 47.9329 12.6004 47.5369 11.9294 46.9759V48.3729C12.7104 48.9559 13.6234 49.2199 14.5254 49.2199Z" fill="#545452"/>
<path d="M25.7937 48.9999L23.2527 41.2999H21.3057L18.7867 48.9999H20.2497L20.8217 47.1739H23.7257L24.2977 48.9999H25.7937ZM22.2627 42.5429L23.3627 46.0519H21.1627L22.2627 42.5429Z" fill="#545452"/>
<path d="M32.5344 41.2999H26.6494V42.6089H28.8604V48.9999H30.2794V42.6089H32.5344V41.2999Z" fill="#545452"/>
<path d="M36.1021 48.9999V41.2999H34.6721V48.9999H36.1021Z" fill="#545452"/>
<path d="M42.6204 49.2199C43.5334 49.2199 44.4024 48.9669 45.0294 48.5159V47.1409C44.5014 47.5479 43.7094 47.8779 42.8294 47.8779C41.1134 47.8779 40.0464 46.7119 40.0464 45.1279C40.0464 43.5549 41.1134 42.4109 42.8184 42.4109C43.7644 42.4109 44.4794 42.7629 45.0074 43.1699V41.7399C44.4904 41.3989 43.6654 41.0799 42.6204 41.0799C40.1894 41.0799 38.5504 42.7849 38.5504 45.1829C38.5504 47.4379 40.0354 49.2199 42.6204 49.2199Z" fill="#545452"/>
<path d="M48.9088 48.9999V41.2999H47.4788V48.9999H48.9088Z" fill="#545452"/>
<path d="M53.2711 41.2999H51.8411V48.9999H56.6701V47.6799H53.2711V41.2999Z" fill="#545452"/>
<path d="M65.073 48.9999L62.532 41.2999H60.585L58.066 48.9999H59.529L60.101 47.1739H63.005L63.577 48.9999H65.073ZM61.542 42.5429L62.642 46.0519H60.442L61.542 42.5429Z" fill="#545452"/>
<path d="M70.5251 45.7989C72.0541 45.7549 72.9231 44.8639 72.9231 43.5769C72.9231 42.2239 71.9551 41.2999 70.4261 41.2999H67.2581V48.9999H68.6881V45.5239L71.3611 48.9999H73.1211L70.5251 45.7989ZM70.1401 42.5319C70.9761 42.5319 71.4271 42.9609 71.4271 43.6869C71.4271 44.4349 70.9431 44.8859 69.9861 44.8859H68.6881V42.5319H70.1401Z" fill="#545452"/>
<path d="M79.9633 40.7389C80.4363 40.7389 80.7993 40.3649 80.7993 39.9029C80.7993 39.4519 80.4363 39.0999 79.9633 39.0999C79.4903 39.0999 79.1163 39.4519 79.1163 39.9029C79.1163 40.3649 79.4903 40.7389 79.9633 40.7389ZM80.6783 48.9999V41.2999H79.2483V48.9999H80.6783Z" fill="#545452"/>
<path d="M89.6056 47.1409C89.0776 47.5479 88.2856 47.8779 87.4056 47.8779C85.6896 47.8779 84.6226 46.7119 84.6226 45.1279C84.6226 43.5549 85.6896 42.4109 87.3946 42.4109C88.3406 42.4109 89.0556 42.7629 89.5836 43.1699V41.7399C89.0666 41.3989 88.2416 41.0799 87.1966 41.0799C84.7656 41.0799 83.1266 42.7849 83.1266 45.1829C83.1266 47.3059 84.4356 49.0109 86.7456 49.1979V49.9569H87.0866C87.4496 49.9569 87.6256 50.0779 87.6256 50.2759C87.6256 50.4849 87.4606 50.6279 87.1306 50.6279C86.7676 50.6279 86.4926 50.4629 86.3386 50.3419V51.0679C86.5916 51.2219 86.8776 51.3099 87.2186 51.3099C87.9776 51.3099 88.4176 50.9029 88.4176 50.3309C88.4176 49.8029 88.0436 49.4069 87.3836 49.4069H87.3176V49.2199C88.1866 49.1979 89.0116 48.9449 89.6056 48.5159V47.1409Z" fill="#545452"/>
<path d="M92.7699 40.7389C93.2429 40.7389 93.6059 40.3649 93.6059 39.9029C93.6059 39.4519 93.2429 39.0999 92.7699 39.0999C92.2969 39.0999 91.9229 39.4519 91.9229 39.9029C91.9229 40.3649 92.2969 40.7389 92.7699 40.7389ZM93.4849 48.9999V41.2999H92.0549V48.9999H93.4849Z" fill="#545452"/>
<path d="M101.686 47.2619L98.3862 41.2999H96.4172V48.9999H97.7592V42.8289L101.213 48.9999H103.017V41.2999H101.686V47.2619Z" fill="#545452"/>
<path d="M189.333 40.1512C188.912 35.4464 184.885 34.6448 180.953 33.3427C177.4 32.1653 174.063 32.0591 173.703 29.5385C173.322 26.8633 175.974 25.2433 178.752 25.7302C181.766 26.2581 182.34 28.5542 181.644 30.0422C183.034 31.7484 186.488 31.5601 187.549 30.377C188.423 29.4024 188.718 27.7913 186.885 26.2622C184.638 24.3862 180.03 23.4913 175.62 24.3113C171.28 25.1161 167.844 27.6255 168.233 31.8088C168.651 36.3091 171.886 37.6161 177.01 38.9714C181.969 40.2848 183.595 41.6537 183.271 43.9401C182.981 45.9795 181.233 47.651 177.491 47.2229C173.749 46.7947 171.785 43.9554 172.548 40.7524C168.29 39.7826 166.45 43.9401 169.999 46.6861C173.414 49.329 180.12 49.556 183.898 48.1259C187.28 46.8462 189.721 44.5059 189.333 40.1512Z" fill="#1E1E1C"/>
<path d="M159.963 22.3516C162.276 22.3516 164.152 20.7058 164.152 18.6762C164.152 16.6465 162.276 14.9999 159.963 14.9999C157.649 14.9999 155.773 16.6457 155.773 18.6762C155.773 20.7066 157.649 22.3516 159.963 22.3516Z" fill="#1E1E1C"/>
<path d="M163.269 24.3628C162.228 24.8218 161.102 25.0589 159.965 25.0589C158.827 25.0589 157.702 24.8218 156.661 24.3628L156.652 48.6296H163.273L163.269 24.3628Z" fill="#1E1E1C"/>
<path d="M206.998 23.6377C204.61 23.6377 202.352 24.3725 200.574 25.7044V15.7299H193.784V48.6264H200.549V33.3869C200.549 29.5167 201.149 27.6834 203.117 26.2195C204.904 24.89 207.424 25.1266 208.796 26.0786C210.454 27.2303 210.379 29.9811 210.379 32.1781V48.6296H217V32.0735C217 26.1712 212.955 23.6377 206.998 23.6377Z" fill="#1E1E1C"/>
<path d="M144.404 48.6296H137.787L132.582 33.617L128.908 48.6296H122.288L114 24.3644H120.796L127.815 45.3573C130.326 38.3202 131.899 31.7668 129.461 24.3644H136.08L144.404 48.6296Z" fill="#1E1E1C"/>
<path d="M147.591 23.603C146.027 26.3023 144.337 28.2877 142.069 30.2723C144.343 32.6649 146.422 35.9911 147.591 39.1604C148.763 35.9911 150.839 32.6649 153.114 30.2723C150.844 28.2877 149.154 26.3023 147.591 23.603Z" fill="#1E1E1C"/>
</svg>
