<svg width="202" height="64" viewBox="0 0 202 64" fill="none" xmlns="http://www.w3.org/2000/svg">
<path d="M135.904 44.2438V45.5308H133.057V44.2438H135.904ZM136.892 46.4018V43.3728H132.173C132.823 42.8658 133.512 42.2678 134.019 41.7088L133.161 41.2928C132.576 41.8778 131.666 42.5018 130.899 42.9438C131.055 43.1648 131.328 43.7238 131.406 43.9188C131.614 43.7888 131.822 43.6458 132.043 43.4768V46.9738H133.057V46.4018H136.892ZM138.387 43.0478C137.815 42.5538 136.658 41.7348 135.865 41.1758L135.176 41.8778C135.995 42.4888 137.113 43.3468 137.659 43.8668L138.387 43.0478ZM140.207 37.4188H135.475C135.306 37.0028 135.059 36.4568 134.838 36.0278L133.642 36.3398C133.798 36.6648 133.967 37.0678 134.097 37.4188H128.832V38.4458H132.394L131.536 38.7448C131.77 39.1738 132.095 39.7978 132.251 40.1878H129.508V48.0008H130.652V41.1628H138.426V46.7918C138.426 46.9868 138.348 47.0518 138.127 47.0518C137.945 47.0648 137.204 47.0648 136.463 47.0388C136.619 47.2988 136.762 47.6758 136.814 47.9618C137.893 47.9618 138.569 47.9488 138.985 47.7928C139.401 47.6368 139.544 47.3898 139.544 46.7918V40.1878H136.736C137.048 39.7458 137.373 39.2388 137.672 38.7448L136.372 38.4718C136.177 38.9658 135.839 39.6678 135.54 40.1878H132.407L133.408 39.7978C133.265 39.4598 132.927 38.8748 132.68 38.4458H140.207V37.4188Z" fill="#545452"/>
<path d="M145.354 41.5398C145.367 41.3188 145.367 41.1238 145.367 40.9158V39.1868H151.828V41.5398H145.354ZM148.916 38.0558L149.566 37.8608C149.423 37.3538 149.098 36.5998 148.812 36.0148L147.629 36.3268C147.863 36.8598 148.149 37.5488 148.279 38.0558H144.119V40.9158C144.119 42.8268 143.963 45.5178 142.468 47.3768C142.767 47.5068 143.3 47.8838 143.521 48.1048C144.704 46.6228 145.146 44.5168 145.302 42.6708H151.828V43.4378H153.063V38.0558H148.916Z" fill="#545452"/>
<path d="M168.324 42.3848H163.111V38.1208H167.583V36.9378H157.391V38.1208H161.863V42.3848H156.715V43.6068H161.863V48.0268H163.111V43.6068H168.324V42.3848ZM158.236 38.9918C158.704 39.9018 159.146 41.1108 159.315 41.8518L160.472 41.4618C160.303 40.7078 159.809 39.5508 159.328 38.6538L158.236 38.9918ZM165.399 41.8648C165.88 41.1368 166.452 39.9668 166.92 38.9528L165.633 38.6018C165.347 39.5118 164.801 40.7468 164.359 41.5268L165.399 41.8648Z" fill="#545452"/>
<path d="M179.425 43.6458V46.1678H173.51V43.6458H179.425ZM172.288 48.0268H173.51V47.3378H179.425V48.0008H180.712V42.4888H172.288V48.0268ZM177.683 38.0688C178.242 38.5888 178.84 39.2128 179.399 39.8368L173.354 40.0838C174.42 39.0698 175.525 37.8088 176.461 36.4958L175.252 35.9758C174.303 37.5488 172.834 39.1478 172.379 39.5768C171.95 39.9928 171.625 40.2658 171.313 40.3178C171.443 40.6558 171.651 41.2538 171.703 41.5008C172.288 41.2928 173.12 41.2668 180.27 40.8898C180.569 41.2668 180.829 41.6308 181.024 41.9558L182.038 41.2018C181.362 40.1358 179.841 38.5368 178.619 37.4318L177.683 38.0688Z" fill="#545452"/>
<path d="M90.3325 40.1512C89.9117 35.4464 85.885 34.6448 81.9533 33.3427C78.3998 32.1653 75.0628 32.0591 74.7031 29.5385C74.3217 26.8633 76.9739 25.2433 79.7525 25.7302C82.7661 26.2581 83.3398 28.5542 82.6437 30.0422C84.0342 31.7484 87.488 31.5601 88.5485 30.377C89.4232 29.4024 89.7177 27.7913 87.8855 26.2622C85.638 24.3862 81.0295 23.4913 76.6198 24.3113C72.2802 25.1161 68.8442 27.6255 69.2328 31.8088C69.6513 36.3091 72.8861 37.6161 78.0103 38.9714C82.9688 40.2848 84.5951 41.6537 84.2708 43.9401C83.9811 45.9795 82.2325 47.651 78.4907 47.2229C74.749 46.7947 72.7847 43.9554 73.5484 40.7524C69.29 39.7826 67.4496 43.9401 70.9991 46.6861C74.4142 49.329 81.1205 49.556 84.8985 48.1259C88.2798 46.8462 90.7212 44.5059 90.3325 40.1512Z" fill="#1E1E1C"/>
<path d="M60.963 22.3516C63.2764 22.3516 65.1522 20.7058 65.1522 18.6762C65.1522 16.6465 63.2764 14.9999 60.963 14.9999C58.6495 14.9999 56.7729 16.6457 56.7729 18.6762C56.7729 20.7066 58.6487 22.3516 60.963 22.3516Z" fill="#1E1E1C"/>
<path d="M64.2686 24.3628C63.2276 24.8218 62.1023 25.0589 60.9646 25.0589C59.8268 25.0589 58.7016 24.8218 57.6605 24.3628L57.6525 48.6296H64.2734L64.2686 24.3628Z" fill="#1E1E1C"/>
<path d="M107.998 23.6377C105.61 23.6377 103.352 24.3725 101.574 25.7044V15.7299H94.7841V48.6264H101.549V33.3869C101.549 29.5167 102.149 27.6834 104.117 26.2195C105.904 24.89 108.424 25.1266 109.796 26.0786C111.454 27.2303 111.379 29.9811 111.379 32.1781V48.6296H118V32.0735C118 26.1712 113.955 23.6377 107.998 23.6377Z" fill="#1E1E1C"/>
<path d="M45.4043 48.6296H38.7866L33.5818 33.617L29.9084 48.6296H23.2883L15 24.3644H21.7964L28.8149 45.3573C31.3255 38.3202 32.8995 31.7668 30.4613 24.3644H37.0798L45.4043 48.6296Z" fill="#1E1E1C"/>
<path d="M48.591 23.603C47.0267 26.3023 45.3368 28.2877 43.0692 30.2723C45.3433 32.6649 47.4218 35.9911 48.591 39.1604C49.7626 35.9911 51.8387 32.6649 54.1136 30.2723C51.8443 28.2877 50.1545 26.3023 48.591 23.603Z" fill="#1E1E1C"/>
</svg>
