<svg width="202" height="64" viewBox="0 0 202 64" fill="none" xmlns="http://www.w3.org/2000/svg">
<path d="M133.907 44.4459H130.398V41.2999H128.968V48.9999H130.398V45.7329H133.907V48.9999H135.326V41.2999H133.907V44.4459Z" fill="#545452"/>
<path d="M144.542 48.9999L142.001 41.2999H140.054L137.535 48.9999H138.998L139.57 47.1739H142.474L143.046 48.9999H144.542ZM141.011 42.5429L142.111 46.0519H139.911L141.011 42.5429Z" fill="#545452"/>
<path d="M151.996 47.2619L148.696 41.2999H146.727V48.9999H148.069V42.8289L151.523 48.9999H153.327V41.2999H151.996V47.2619Z" fill="#545452"/>
<path d="M158.918 48.9999C161.492 48.9999 162.856 47.3939 162.856 45.1169C162.856 42.8619 161.558 41.2999 159.105 41.2999H156.278V48.9999H158.918ZM157.708 42.5869H158.995C160.634 42.5869 161.371 43.5769 161.371 45.1389C161.371 46.6899 160.557 47.7129 158.907 47.7129H157.708V42.5869Z" fill="#545452"/>
<path d="M166.764 41.2999H165.334V48.9999H170.163V47.6799H166.764V41.2999Z" fill="#545452"/>
<path d="M178.566 48.9999L176.025 41.2999H174.078L171.559 48.9999H173.022L173.594 47.1739H176.498L177.07 48.9999H178.566ZM175.035 42.5429L176.135 46.0519H173.935L175.035 42.5429Z" fill="#545452"/>
<path d="M184.018 45.7989C185.547 45.7549 186.416 44.8639 186.416 43.5769C186.416 42.2239 185.448 41.2999 183.919 41.2999H180.751V48.9999H182.181V45.5239L184.854 48.9999H186.614L184.018 45.7989ZM183.633 42.5319C184.469 42.5319 184.92 42.9609 184.92 43.6869C184.92 44.4349 184.436 44.8859 183.479 44.8859H182.181V42.5319H183.633Z" fill="#545452"/>
<path d="M190.336 45.5569H193.636V44.3909H190.336V42.5429H193.867V41.2999H188.906V48.9999H193.911V47.7569H190.336V45.5569Z" fill="#545452"/>
<path d="M90.3325 40.1512C89.9117 35.4464 85.885 34.6448 81.9533 33.3427C78.3998 32.1653 75.0628 32.0591 74.7031 29.5385C74.3217 26.8633 76.9739 25.2433 79.7525 25.7302C82.7661 26.2581 83.3398 28.5542 82.6437 30.0422C84.0342 31.7484 87.488 31.5601 88.5485 30.377C89.4232 29.4024 89.7177 27.7913 87.8855 26.2622C85.638 24.3862 81.0295 23.4913 76.6198 24.3113C72.2802 25.1161 68.8442 27.6255 69.2328 31.8088C69.6513 36.3091 72.8861 37.6161 78.0103 38.9714C82.9688 40.2848 84.5951 41.6537 84.2708 43.9401C83.9811 45.9795 82.2325 47.651 78.4907 47.2229C74.749 46.7947 72.7847 43.9554 73.5484 40.7524C69.29 39.7826 67.4496 43.9401 70.9991 46.6861C74.4142 49.329 81.1205 49.556 84.8985 48.1259C88.2798 46.8462 90.7212 44.5059 90.3325 40.1512Z" fill="#1E1E1C"/>
<path d="M60.963 22.3516C63.2764 22.3516 65.1522 20.7058 65.1522 18.6762C65.1522 16.6465 63.2764 14.9999 60.963 14.9999C58.6495 14.9999 56.7729 16.6457 56.7729 18.6762C56.7729 20.7066 58.6487 22.3516 60.963 22.3516Z" fill="#1E1E1C"/>
<path d="M64.2686 24.3628C63.2276 24.8218 62.1023 25.0589 60.9646 25.0589C59.8268 25.0589 58.7016 24.8218 57.6605 24.3628L57.6525 48.6296H64.2734L64.2686 24.3628Z" fill="#1E1E1C"/>
<path d="M107.998 23.6377C105.61 23.6377 103.352 24.3725 101.574 25.7044V15.7299H94.7841V48.6264H101.549V33.3869C101.549 29.5167 102.149 27.6834 104.117 26.2195C105.904 24.89 108.424 25.1266 109.796 26.0786C111.454 27.2303 111.379 29.9811 111.379 32.1781V48.6296H118V32.0735C118 26.1712 113.955 23.6377 107.998 23.6377Z" fill="#1E1E1C"/>
<path d="M45.4043 48.6296H38.7866L33.5818 33.617L29.9084 48.6296H23.2883L15 24.3644H21.7964L28.8149 45.3573C31.3255 38.3202 32.8995 31.7668 30.4613 24.3644H37.0798L45.4043 48.6296Z" fill="#1E1E1C"/>
<path d="M48.591 23.603C47.0267 26.3023 45.3368 28.2877 43.0692 30.2723C45.3433 32.6649 47.4218 35.9911 48.591 39.1604C49.7626 35.9911 51.8387 32.6649 54.1136 30.2723C51.8443 28.2877 50.1545 26.3023 48.591 23.603Z" fill="#1E1E1C"/>
</svg>
