<svg width="235" height="64" viewBox="0 0 235 64" fill="none" xmlns="http://www.w3.org/2000/svg">
<path d="M17.5254 49.2199C19.2084 49.2199 20.2534 48.2959 20.2534 46.8769C20.2534 45.8319 19.6814 45.1719 18.3064 44.6439L17.5254 44.3359C16.8104 44.0389 16.4364 43.7749 16.4364 43.2469C16.4364 42.6749 16.8654 42.3559 17.7234 42.3559C18.5814 42.3559 19.2854 42.6749 19.9124 43.1919V41.7949C19.4174 41.4209 18.6364 41.0799 17.6134 41.0799C15.9414 41.0799 14.9514 41.9709 14.9514 43.3239C14.9514 44.3469 15.5234 45.0289 16.7444 45.4909L17.5474 45.7989C18.4494 46.1839 18.7024 46.4259 18.7024 46.9319C18.7024 47.5699 18.2734 47.9329 17.3934 47.9329C16.4584 47.9329 15.6004 47.5369 14.9294 46.9759V48.3729C15.7104 48.9559 16.6234 49.2199 17.5254 49.2199Z" fill="white"/>
<path d="M28.7937 48.9999L26.2527 41.2999H24.3057L21.7867 48.9999H23.2497L23.8217 47.1739H26.7257L27.2977 48.9999H28.7937ZM25.2627 42.5429L26.3627 46.0519H24.1627L25.2627 42.5429Z" fill="white"/>
<path d="M35.5344 41.2999H29.6494V42.6089H31.8604V48.9999H33.2794V42.6089H35.5344V41.2999Z" fill="white"/>
<path d="M39.1021 48.9999V41.2999H37.6721V48.9999H39.1021Z" fill="white"/>
<path d="M45.6204 49.2199C46.5334 49.2199 47.4024 48.9669 48.0294 48.5159V47.1409C47.5014 47.5479 46.7094 47.8779 45.8294 47.8779C44.1134 47.8779 43.0464 46.7119 43.0464 45.1279C43.0464 43.5549 44.1134 42.4109 45.8184 42.4109C46.7644 42.4109 47.4794 42.7629 48.0074 43.1699V41.7399C47.4904 41.3989 46.6654 41.0799 45.6204 41.0799C43.1894 41.0799 41.5504 42.7849 41.5504 45.1829C41.5504 47.4379 43.0354 49.2199 45.6204 49.2199Z" fill="white"/>
<path d="M51.9088 48.9999V41.2999H50.4788V48.9999H51.9088Z" fill="white"/>
<path d="M56.2711 41.2999H54.8411V48.9999H59.6701V47.6799H56.2711V41.2999Z" fill="white"/>
<path d="M68.073 48.9999L65.532 41.2999H63.585L61.066 48.9999H62.529L63.101 47.1739H66.005L66.577 48.9999H68.073ZM64.542 42.5429L65.642 46.0519H63.442L64.542 42.5429Z" fill="white"/>
<path d="M73.5251 45.7989C75.0541 45.7549 75.9231 44.8639 75.9231 43.5769C75.9231 42.2239 74.9551 41.2999 73.4261 41.2999H70.2581V48.9999H71.6881V45.5239L74.3611 48.9999H76.1211L73.5251 45.7989ZM73.1401 42.5319C73.9761 42.5319 74.4271 42.9609 74.4271 43.6869C74.4271 44.4349 73.9431 44.8859 72.9861 44.8859H71.6881V42.5319H73.1401Z" fill="white"/>
<path d="M82.9633 40.7389C83.4363 40.7389 83.7993 40.3649 83.7993 39.9029C83.7993 39.4519 83.4363 39.0999 82.9633 39.0999C82.4903 39.0999 82.1163 39.4519 82.1163 39.9029C82.1163 40.3649 82.4903 40.7389 82.9633 40.7389ZM83.6783 48.9999V41.2999H82.2483V48.9999H83.6783Z" fill="white"/>
<path d="M92.6056 47.1409C92.0776 47.5479 91.2856 47.8779 90.4056 47.8779C88.6896 47.8779 87.6226 46.7119 87.6226 45.1279C87.6226 43.5549 88.6896 42.4109 90.3946 42.4109C91.3406 42.4109 92.0556 42.7629 92.5836 43.1699V41.7399C92.0666 41.3989 91.2416 41.0799 90.1966 41.0799C87.7656 41.0799 86.1266 42.7849 86.1266 45.1829C86.1266 47.3059 87.4356 49.0109 89.7456 49.1979V49.9569H90.0866C90.4496 49.9569 90.6256 50.0779 90.6256 50.2759C90.6256 50.4849 90.4606 50.6279 90.1306 50.6279C89.7676 50.6279 89.4926 50.4629 89.3386 50.3419V51.0679C89.5916 51.2219 89.8776 51.3099 90.2186 51.3099C90.9776 51.3099 91.4176 50.9029 91.4176 50.3309C91.4176 49.8029 91.0436 49.4069 90.3836 49.4069H90.3176V49.2199C91.1866 49.1979 92.0116 48.9449 92.6056 48.5159V47.1409Z" fill="white"/>
<path d="M95.7699 40.7389C96.2429 40.7389 96.6059 40.3649 96.6059 39.9029C96.6059 39.4519 96.2429 39.0999 95.7699 39.0999C95.2969 39.0999 94.9229 39.4519 94.9229 39.9029C94.9229 40.3649 95.2969 40.7389 95.7699 40.7389ZM96.4849 48.9999V41.2999H95.0549V48.9999H96.4849Z" fill="white"/>
<path d="M104.686 47.2619L101.386 41.2999H99.4172V48.9999H100.759V42.8289L104.213 48.9999H106.017V41.2999H104.686V47.2619Z" fill="white"/>
<path d="M192.333 40.1511C191.912 35.4463 187.885 34.6448 183.953 33.3426C180.4 32.1652 177.063 32.059 176.703 29.5384C176.322 26.8633 178.974 25.2432 181.752 25.7301C184.766 26.2581 185.34 28.5541 184.644 30.0422C186.034 31.7483 189.488 31.56 190.549 30.377C191.423 29.4024 191.718 27.7912 189.885 26.2621C187.638 24.3861 183.03 23.4912 178.62 24.3113C174.28 25.1161 170.844 27.6254 171.233 31.8087C171.651 36.3091 174.886 37.6161 180.01 38.9713C184.969 40.2847 186.595 41.6537 186.271 43.9401C185.981 45.9794 184.233 47.651 180.491 47.2228C176.749 46.7947 174.785 43.9554 175.548 40.7523C171.29 39.7825 169.45 43.9401 172.999 46.686C176.414 49.329 183.12 49.5559 186.898 48.1258C190.28 46.8462 192.721 44.5059 192.333 40.1511Z" fill="white"/>
<path d="M162.963 22.3516C165.276 22.3516 167.152 20.7058 167.152 18.6762C167.152 16.6465 165.276 14.9999 162.963 14.9999C160.649 14.9999 158.773 16.6457 158.773 18.6762C158.773 20.7066 160.649 22.3516 162.963 22.3516Z" fill="white"/>
<path d="M166.269 24.3628C165.228 24.8218 164.102 25.0589 162.965 25.0589C161.827 25.0589 160.702 24.8218 159.661 24.3628L159.652 48.6296H166.273L166.269 24.3628Z" fill="white"/>
<path d="M209.998 23.6377C207.61 23.6377 205.352 24.3725 203.574 25.7044V15.7299H196.784V48.6264H203.549V33.3869C203.549 29.5167 204.149 27.6834 206.117 26.2195C207.904 24.89 210.424 25.1266 211.796 26.0786C213.454 27.2303 213.379 29.9811 213.379 32.1781V48.6296H220V32.0735C220 26.1712 215.955 23.6377 209.998 23.6377Z" fill="white"/>
<path d="M147.404 48.6296H140.787L135.582 33.617L131.908 48.6296H125.288L117 24.3644H123.796L130.815 45.3573C133.326 38.3202 134.899 31.7668 132.461 24.3644H139.08L147.404 48.6296Z" fill="white"/>
<path d="M150.591 23.603C149.027 26.3023 147.337 28.2877 145.069 30.2723C147.343 32.6649 149.422 35.9911 150.591 39.1604C151.763 35.9911 153.839 32.6649 156.114 30.2723C153.844 28.2877 152.154 26.3023 150.591 23.603Z" fill="white"/>
</svg>
