<svg width="232" height="64" viewBox="0 0 232 64" fill="none" xmlns="http://www.w3.org/2000/svg">
<path d="M128.968 41.2999V48.9999H130.398V46.3269H131.751C133.511 46.3269 134.501 45.3039 134.501 43.8189C134.501 42.2789 133.511 41.2999 131.916 41.2999H128.968ZM130.398 45.2049V42.5209H131.674C132.521 42.5209 133.038 42.9719 133.038 43.8189C133.038 44.7099 132.521 45.2049 131.531 45.2049H130.398Z" fill="white"/>
<path d="M140.211 49.2199C142.521 49.2199 144.138 47.5039 144.138 45.1499C144.138 42.8069 142.521 41.0799 140.211 41.0799C137.912 41.0799 136.284 42.8069 136.284 45.1499C136.284 47.5039 137.912 49.2199 140.211 49.2199ZM140.211 47.8669C138.715 47.8669 137.78 46.7119 137.78 45.1609C137.78 43.6099 138.704 42.4329 140.211 42.4329C141.718 42.4329 142.653 43.6099 142.653 45.1609C142.653 46.7119 141.718 47.8669 140.211 47.8669Z" fill="white"/>
<path d="M149.612 49.2199C151.449 49.2199 152.747 48.0209 152.747 46.1069V41.2999H151.317V46.0189C151.317 47.2069 150.624 47.8449 149.612 47.8449C148.611 47.8449 147.918 47.2069 147.918 46.0189V41.2999H146.499V46.1069C146.499 48.0209 147.786 49.2199 149.612 49.2199Z" fill="white"/>
<path d="M158.857 45.7989C160.386 45.7549 161.255 44.8639 161.255 43.5769C161.255 42.2239 160.287 41.2999 158.758 41.2999H155.59V48.9999H157.02V45.5239L159.693 48.9999H161.453L158.857 45.7989ZM158.472 42.5319C159.308 42.5319 159.759 42.9609 159.759 43.6869C159.759 44.4349 159.275 44.8859 158.318 44.8859H157.02V42.5319H158.472Z" fill="white"/>
<path d="M170.095 47.3939L168.06 41.2999H166.531L169.27 48.9999H170.931L173.659 41.2999H172.13L170.095 47.3939Z" fill="white"/>
<path d="M177.261 45.5569H180.561V44.3909H177.261V42.5429H180.792V41.2999H175.831V48.9999H180.836V47.7569H177.261V45.5569Z" fill="white"/>
<path d="M188.664 47.2619L185.364 41.2999H183.395V48.9999H184.737V42.8289L188.191 48.9999H189.995V41.2999H188.664V47.2619Z" fill="white"/>
<path d="M195.586 48.9999C198.16 48.9999 199.524 47.3939 199.524 45.1169C199.524 42.8619 198.226 41.2999 195.773 41.2999H192.946V48.9999H195.586ZM194.376 42.5869H195.663C197.302 42.5869 198.039 43.5769 198.039 45.1389C198.039 46.6899 197.225 47.7129 195.575 47.7129H194.376V42.5869Z" fill="white"/>
<path d="M203.432 45.5569H206.732V44.3909H203.432V42.5429H206.963V41.2999H202.002V48.9999H207.007V47.7569H203.432V45.5569Z" fill="white"/>
<path d="M212.591 49.2199C214.428 49.2199 215.726 48.0209 215.726 46.1069V41.2999H214.296V46.0189C214.296 47.2069 213.603 47.8449 212.591 47.8449C211.59 47.8449 210.897 47.2069 210.897 46.0189V41.2999H209.478V46.1069C209.478 48.0209 210.765 49.2199 212.591 49.2199Z" fill="white"/>
<path d="M221.836 45.7989C223.365 45.7549 224.234 44.8639 224.234 43.5769C224.234 42.2239 223.266 41.2999 221.737 41.2999H218.569V48.9999H219.999V45.5239L222.672 48.9999H224.432L221.836 45.7989ZM221.451 42.5319C222.287 42.5319 222.738 42.9609 222.738 43.6869C222.738 44.4349 222.254 44.8859 221.297 44.8859H219.999V42.5319H221.451Z" fill="white"/>
<path d="M228.923 49.2199C230.606 49.2199 231.651 48.2959 231.651 46.8769C231.651 45.8319 231.079 45.1719 229.704 44.6439L228.923 44.3359C228.208 44.0389 227.834 43.7749 227.834 43.2469C227.834 42.6749 228.263 42.3559 229.121 42.3559C229.979 42.3559 230.683 42.6749 231.31 43.1919V41.7949C230.815 41.4209 230.034 41.0799 229.011 41.0799C227.339 41.0799 226.349 41.9709 226.349 43.3239C226.349 44.3469 226.921 45.0289 228.142 45.4909L228.945 45.7989C229.847 46.1839 230.1 46.4259 230.1 46.9319C230.1 47.5699 229.671 47.9329 228.791 47.9329C227.856 47.9329 226.998 47.5369 226.327 46.9759V48.3729C227.108 48.9559 228.021 49.2199 228.923 49.2199Z" fill="white"/>
<path d="M90.3325 40.1511C89.9116 35.4463 85.885 34.6448 81.9533 33.3426C78.3998 32.1652 75.0627 32.059 74.703 29.5384C74.3216 26.8633 76.9738 25.2432 79.7524 25.7301C82.766 26.2581 83.3397 28.5541 82.6437 30.0422C84.0342 31.7483 87.4879 31.56 88.5485 30.377C89.4232 29.4024 89.7177 27.7912 87.8854 26.2621C85.6379 24.3861 81.0295 23.4912 76.6198 24.3113C72.2801 25.1161 68.8441 27.6254 69.2328 31.8087C69.6512 36.3091 72.886 37.6161 78.0103 38.9713C82.9688 40.2847 84.595 41.6537 84.2708 43.9401C83.9811 45.9794 82.2325 47.651 78.4907 47.2228C74.7489 46.7947 72.7846 43.9554 73.5483 40.7523C69.2899 39.7825 67.4496 43.9401 70.999 46.686C74.4141 49.329 81.1204 49.5559 84.8984 48.1258C88.2797 46.8462 90.7211 44.5059 90.3325 40.1511Z" fill="white"/>
<path d="M60.963 22.3516C63.2764 22.3516 65.1522 20.7058 65.1522 18.6762C65.1522 16.6465 63.2764 14.9999 60.963 14.9999C58.6495 14.9999 56.7729 16.6457 56.7729 18.6762C56.7729 20.7066 58.6487 22.3516 60.963 22.3516Z" fill="white"/>
<path d="M64.2687 24.3628C63.2276 24.8218 62.1024 25.0589 60.9646 25.0589C59.8269 25.0589 58.7016 24.8218 57.6606 24.3628L57.6525 48.6296H64.2735L64.2687 24.3628Z" fill="white"/>
<path d="M107.998 23.6377C105.609 23.6377 103.352 24.3725 101.574 25.7044V15.7299H94.784V48.6264H101.549V33.3869C101.549 29.5167 102.149 27.6834 104.117 26.2195C105.904 24.89 108.424 25.1266 109.795 26.0786C111.454 27.2303 111.379 29.9811 111.379 32.1781V48.6296H118V32.0735C118 26.1712 113.955 23.6377 107.998 23.6377Z" fill="white"/>
<path d="M45.4043 48.6296H38.7866L33.5818 33.617L29.9084 48.6296H23.2883L15 24.3644H21.7964L28.8149 45.3573C31.3255 38.3202 32.8995 31.7668 30.4613 24.3644H37.0798L45.4043 48.6296Z" fill="white"/>
<path d="M48.5909 23.603C47.0266 26.3023 45.3368 28.2877 43.0692 30.2723C45.3432 32.6649 47.4217 35.9911 48.5909 39.1604C49.7625 35.9911 51.8386 32.6649 54.1135 30.2723C51.8443 28.2877 50.1544 26.3023 48.5909 23.603Z" fill="white"/>
</svg>
