<svg width="229" height="64" viewBox="0 0 229 64" fill="none" xmlns="http://www.w3.org/2000/svg">
<path d="M128.968 25.3V33H130.398V30.327H131.751C133.511 30.327 134.501 29.304 134.501 27.819C134.501 26.279 133.511 25.3 131.916 25.3H128.968ZM130.398 29.205V26.521H131.674C132.521 26.521 133.038 26.972 133.038 27.819C133.038 28.71 132.521 29.205 131.531 29.205H130.398Z" fill="#545452"/>
<path d="M140.035 29.799C141.564 29.755 142.433 28.864 142.433 27.577C142.433 26.224 141.465 25.3 139.936 25.3H136.768V33H138.198V29.524L140.871 33H142.631L140.035 29.799ZM139.65 26.532C140.486 26.532 140.937 26.961 140.937 27.687C140.937 28.435 140.453 28.886 139.496 28.886H138.198V26.532H139.65Z" fill="#545452"/>
<path d="M148.344 33.22C150.654 33.22 152.271 31.504 152.271 29.15C152.271 26.807 150.654 25.08 148.344 25.08C146.045 25.08 144.417 26.807 144.417 29.15C144.417 31.504 146.045 33.22 148.344 33.22ZM148.344 31.867C146.848 31.867 145.913 30.712 145.913 29.161C145.913 27.61 146.837 26.433 148.344 26.433C149.851 26.433 150.786 27.61 150.786 29.161C150.786 30.712 149.851 31.867 148.344 31.867Z" fill="#545452"/>
<path d="M132.411 48.22C134.721 48.22 136.338 46.504 136.338 44.15C136.338 41.807 134.721 40.08 132.411 40.08C130.112 40.08 128.484 41.807 128.484 44.15C128.484 46.504 130.112 48.22 132.411 48.22ZM132.411 46.867C130.915 46.867 129.98 45.712 129.98 44.161C129.98 42.61 130.904 41.433 132.411 41.433C133.918 41.433 134.853 42.61 134.853 44.161C134.853 45.712 133.918 46.867 132.411 46.867Z" fill="#545452"/>
<path d="M143.011 43.864C143.748 43.655 144.155 43.072 144.155 42.28C144.155 41.169 143.341 40.3 141.922 40.3H138.787V48H141.812C143.517 48 144.441 47.054 144.441 45.789C144.441 44.865 143.946 44.128 143.011 43.864ZM141.603 41.488C142.34 41.488 142.725 41.906 142.725 42.555C142.725 43.149 142.373 43.567 141.658 43.567H140.217V41.488H141.603ZM140.217 46.823V44.546H141.713C142.527 44.546 142.967 45.019 142.967 45.69C142.967 46.372 142.516 46.823 141.592 46.823H140.217Z" fill="#545452"/>
<path d="M150.495 48.22C151.408 48.22 152.277 47.967 152.904 47.516V46.141C152.376 46.548 151.584 46.878 150.704 46.878C148.988 46.878 147.921 45.712 147.921 44.128C147.921 42.555 148.988 41.411 150.693 41.411C151.639 41.411 152.354 41.763 152.882 42.17V40.74C152.365 40.399 151.54 40.08 150.495 40.08C148.064 40.08 146.425 41.785 146.425 44.183C146.425 46.438 147.91 48.22 150.495 48.22Z" fill="#545452"/>
<path d="M160.293 43.446H156.784V40.3H155.354V48H156.784V44.733H160.293V48H161.712V40.3H160.293V43.446Z" fill="#545452"/>
<path d="M168.1 48.22C170.41 48.22 172.027 46.504 172.027 44.15C172.027 41.807 170.41 40.08 168.1 40.08C165.801 40.08 164.173 41.807 164.173 44.15C164.173 46.504 165.801 48.22 168.1 48.22ZM168.1 46.867C166.604 46.867 165.669 45.712 165.669 44.161C165.669 42.61 166.593 41.433 168.1 41.433C169.607 41.433 170.542 42.61 170.542 44.161C170.542 45.712 169.607 46.867 168.1 46.867Z" fill="#545452"/>
<path d="M177.117 48C179.691 48 181.055 46.394 181.055 44.117C181.055 41.862 179.757 40.3 177.304 40.3H174.477V48H177.117ZM175.907 41.587H177.194C178.833 41.587 179.57 42.577 179.57 44.139C179.57 45.69 178.756 46.713 177.106 46.713H175.907V41.587Z" fill="#545452"/>
<path d="M188.802 46.262L185.502 40.3H183.533V48H184.875V41.829L188.329 48H190.133V40.3H188.802V46.262Z" fill="#545452"/>
<path d="M194.316 39.673L195.46 38.023H194.129L193.26 39.673H194.316ZM194.514 48V40.3H193.084V48H194.514Z" fill="#545452"/>
<path d="M200.329 43.853L203.596 40.3H201.814L198.877 43.677V40.3H197.447V48H198.877V44.205L201.869 48H203.706L200.329 43.853Z" fill="#545452"/>
<path d="M208.338 43.776L206.501 40.3H204.961L207.634 45.173V48H209.053V45.195L211.77 40.3H210.219L208.338 43.776Z" fill="#545452"/>
<path d="M90.3325 40.1512C89.9117 35.4464 85.885 34.6448 81.9533 33.3427C78.3998 32.1653 75.0628 32.0591 74.7031 29.5385C74.3217 26.8633 76.9739 25.2433 79.7525 25.7302C82.7661 26.2581 83.3398 28.5542 82.6437 30.0422C84.0342 31.7484 87.488 31.5601 88.5485 30.377C89.4232 29.4024 89.7177 27.7913 87.8855 26.2622C85.638 24.3862 81.0295 23.4913 76.6198 24.3113C72.2802 25.1161 68.8442 27.6255 69.2328 31.8088C69.6513 36.3091 72.8861 37.6161 78.0103 38.9714C82.9688 40.2848 84.5951 41.6537 84.2708 43.9401C83.9811 45.9795 82.2325 47.651 78.4907 47.2229C74.749 46.7947 72.7847 43.9554 73.5484 40.7524C69.29 39.7826 67.4496 43.9401 70.9991 46.6861C74.4142 49.329 81.1205 49.556 84.8985 48.1259C88.2798 46.8462 90.7212 44.5059 90.3325 40.1512Z" fill="#1E1E1C"/>
<path d="M60.963 22.3517C63.2764 22.3517 65.1522 20.706 65.1522 18.6763C65.1522 16.6466 63.2764 15 60.963 15C58.6495 15 56.7729 16.6458 56.7729 18.6763C56.7729 20.7068 58.6487 22.3517 60.963 22.3517Z" fill="#1E1E1C"/>
<path d="M64.2686 24.3629C63.2276 24.822 62.1023 25.059 60.9646 25.059C59.8268 25.059 58.7016 24.822 57.6605 24.3629L57.6525 48.6297H64.2734L64.2686 24.3629Z" fill="#1E1E1C"/>
<path d="M107.998 23.6378C105.61 23.6378 103.352 24.3726 101.574 25.7045V15.73H94.7841V48.6265H101.549V33.3871C101.549 29.5168 102.149 27.6835 104.117 26.2196C105.904 24.8901 108.424 25.1267 109.796 26.0788C111.454 27.2304 111.379 29.9812 111.379 32.1783V48.6298H118V32.0736C118 26.1713 113.955 23.6378 107.998 23.6378Z" fill="#1E1E1C"/>
<path d="M45.4043 48.6297H38.7866L33.5818 33.6172L29.9084 48.6297H23.2883L15 24.3645H21.7964L28.8149 45.3574C31.3255 38.3203 32.8995 31.767 30.4613 24.3645H37.0798L45.4043 48.6297Z" fill="#1E1E1C"/>
<path d="M48.591 23.6031C47.0267 26.3024 45.3368 28.2878 43.0692 30.2724C45.3433 32.6651 47.4218 35.9913 48.591 39.1605C49.7626 35.9913 51.8387 32.6651 54.1136 30.2724C51.8443 28.2878 50.1545 26.3024 48.591 23.6031Z" fill="#1E1E1C"/>
</svg>
