<svg width="243" height="64" viewBox="0 0 243 64" fill="none" xmlns="http://www.w3.org/2000/svg">
<path d="M128.968 27.2999V34.9999H130.398V32.3269H131.751C133.511 32.3269 134.501 31.3039 134.501 29.8189C134.501 28.2789 133.511 27.2999 131.916 27.2999H128.968ZM130.398 31.2049V28.5209H131.674C132.521 28.5209 133.038 28.9719 133.038 29.8189C133.038 30.7099 132.521 31.2049 131.531 31.2049H130.398Z" fill="white"/>
<path d="M142.544 34.9999L140.003 27.2999H138.056L135.537 34.9999H137L137.572 33.1739H140.476L141.048 34.9999H142.544ZM139.013 28.5429L140.113 32.0519H137.913L139.013 28.5429Z" fill="white"/>
<path d="M147.996 31.7989C149.525 31.7549 150.394 30.8639 150.394 29.5769C150.394 28.2239 149.426 27.2999 147.897 27.2999H144.729V34.9999H146.159V31.5239L148.832 34.9999H150.592L147.996 31.7989ZM147.611 28.5319C148.447 28.5319 148.898 28.9609 148.898 29.6869C148.898 30.4349 148.414 30.8859 147.457 30.8859H146.159V28.5319H147.611Z" fill="white"/>
<path d="M159.153 34.9999L156.612 27.2999H154.665L152.146 34.9999H153.609L154.181 33.1739H157.085L157.657 34.9999H159.153ZM155.622 28.5429L156.722 32.0519H154.522L155.622 28.5429Z" fill="white"/>
<path d="M132.554 48.2199C133.467 48.2199 134.336 47.9669 134.963 47.5159V46.1409C134.435 46.5479 133.643 46.8779 132.763 46.8779C131.047 46.8779 129.98 45.7119 129.98 44.1279C129.98 42.5549 131.047 41.4109 132.752 41.4109C133.698 41.4109 134.413 41.7629 134.941 42.1699V40.7399C134.424 40.3989 133.599 40.0799 132.554 40.0799C130.123 40.0799 128.484 41.7849 128.484 44.1829C128.484 46.4379 129.969 48.2199 132.554 48.2199Z" fill="white"/>
<path d="M140.769 48.2199C143.079 48.2199 144.696 46.5039 144.696 44.1499C144.696 41.8069 143.079 40.0799 140.769 40.0799C138.47 40.0799 136.842 41.8069 136.842 44.1499C136.842 46.5039 138.47 48.2199 140.769 48.2199ZM140.769 46.8669C139.273 46.8669 138.338 45.7119 138.338 44.1609C138.338 42.6099 139.262 41.4329 140.769 41.4329C142.276 41.4329 143.211 42.6099 143.211 44.1609C143.211 45.7119 142.276 46.8669 140.769 46.8669Z" fill="white"/>
<path d="M155.286 40.2999H153.185L151.359 46.2509L149.599 40.2999H147.421L146.926 47.9999H148.257L148.642 41.5869L150.534 47.9999H152.096L154.01 41.6529L154.483 47.9999H155.902L155.286 40.2999Z" fill="white"/>
<path d="M159.996 44.5569H163.296V43.3909H159.996V41.5429H163.527V40.2999H158.566V47.9999H163.571V46.7569H159.996V44.5569Z" fill="white"/>
<path d="M169.396 44.7989C170.925 44.7549 171.794 43.8639 171.794 42.5769C171.794 41.2239 170.826 40.2999 169.297 40.2999H166.129V47.9999H167.559V44.5239L170.232 47.9999H171.992L169.396 44.7989ZM169.011 41.5319C169.847 41.5319 170.298 41.9609 170.298 42.6869C170.298 43.4349 169.814 43.8859 168.857 43.8859H167.559V41.5319H169.011Z" fill="white"/>
<path d="M177.848 48.2199C178.761 48.2199 179.63 47.9669 180.257 47.5159V46.1409C179.729 46.5479 178.937 46.8779 178.057 46.8779C176.341 46.8779 175.274 45.7119 175.274 44.1279C175.274 42.5549 176.341 41.4109 178.046 41.4109C178.992 41.4109 179.707 41.7629 180.235 42.1699V40.7399C179.718 40.3989 178.893 40.0799 177.848 40.0799C175.417 40.0799 173.778 41.7849 173.778 44.1829C173.778 46.4379 175.263 48.2199 177.848 48.2199Z" fill="white"/>
<path d="M184.136 47.9999V40.2999H182.706V47.9999H184.136Z" fill="white"/>
<path d="M193.339 47.9999L190.798 40.2999H188.851L186.332 47.9999H187.795L188.367 46.1739H191.271L191.843 47.9999H193.339ZM189.808 41.5429L190.908 45.0519H188.708L189.808 41.5429Z" fill="white"/>
<path d="M200.793 46.2619L197.493 40.2999H195.524V47.9999H196.866V41.8289L200.32 47.9999H202.124V40.2999H200.793V46.2619Z" fill="white"/>
<path d="M210.156 40.2999H204.271V41.6089H206.482V47.9999H207.901V41.6089H210.156V40.2999Z" fill="white"/>
<path d="M213.724 44.5569H217.024V43.3909H213.724V41.5429H217.255V40.2999H212.294V47.9999H217.299V46.7569H213.724V44.5569Z" fill="white"/>
<path d="M222.058 48.2199C223.741 48.2199 224.786 47.2959 224.786 45.8769C224.786 44.8319 224.214 44.1719 222.839 43.6439L222.058 43.3359C221.343 43.0389 220.969 42.7749 220.969 42.2469C220.969 41.6749 221.398 41.3559 222.256 41.3559C223.114 41.3559 223.818 41.6749 224.445 42.1919V40.7949C223.95 40.4209 223.169 40.0799 222.146 40.0799C220.474 40.0799 219.484 40.9709 219.484 42.3239C219.484 43.3469 220.056 44.0289 221.277 44.4909L222.08 44.7989C222.982 45.1839 223.235 45.4259 223.235 45.9319C223.235 46.5699 222.806 46.9329 221.926 46.9329C220.991 46.9329 220.133 46.5369 219.462 45.9759V47.3729C220.243 47.9559 221.156 48.2199 222.058 48.2199Z" fill="white"/>
<path d="M90.3325 40.1511C89.9116 35.4463 85.885 34.6448 81.9533 33.3426C78.3998 32.1652 75.0627 32.059 74.703 29.5384C74.3216 26.8633 76.9738 25.2432 79.7524 25.7301C82.766 26.2581 83.3397 28.5541 82.6437 30.0422C84.0342 31.7483 87.4879 31.56 88.5485 30.377C89.4232 29.4024 89.7177 27.7912 87.8854 26.2621C85.6379 24.3861 81.0295 23.4912 76.6198 24.3113C72.2801 25.1161 68.8441 27.6254 69.2328 31.8087C69.6512 36.3091 72.886 37.6161 78.0103 38.9713C82.9688 40.2847 84.595 41.6537 84.2708 43.9401C83.9811 45.9794 82.2325 47.651 78.4907 47.2228C74.7489 46.7947 72.7846 43.9554 73.5483 40.7523C69.2899 39.7825 67.4496 43.9401 70.999 46.686C74.4141 49.329 81.1204 49.5559 84.8984 48.1258C88.2797 46.8462 90.7211 44.5059 90.3325 40.1511Z" fill="white"/>
<path d="M60.963 22.3516C63.2764 22.3516 65.1522 20.7058 65.1522 18.6762C65.1522 16.6465 63.2764 14.9999 60.963 14.9999C58.6495 14.9999 56.7729 16.6457 56.7729 18.6762C56.7729 20.7066 58.6487 22.3516 60.963 22.3516Z" fill="white"/>
<path d="M64.2687 24.3628C63.2276 24.8218 62.1024 25.0589 60.9646 25.0589C59.8269 25.0589 58.7016 24.8218 57.6606 24.3628L57.6525 48.6296H64.2735L64.2687 24.3628Z" fill="white"/>
<path d="M107.998 23.6377C105.609 23.6377 103.352 24.3725 101.574 25.7044V15.7299H94.784V48.6264H101.549V33.3869C101.549 29.5167 102.149 27.6834 104.117 26.2195C105.904 24.89 108.424 25.1266 109.795 26.0786C111.454 27.2303 111.379 29.9811 111.379 32.1781V48.6296H118V32.0735C118 26.1712 113.955 23.6377 107.998 23.6377Z" fill="white"/>
<path d="M45.4043 48.6296H38.7866L33.5818 33.617L29.9084 48.6296H23.2883L15 24.3644H21.7964L28.8149 45.3573C31.3255 38.3202 32.8995 31.7668 30.4613 24.3644H37.0798L45.4043 48.6296Z" fill="white"/>
<path d="M48.5909 23.603C47.0266 26.3023 45.3368 28.2877 43.0692 30.2723C45.3432 32.6649 47.4217 35.9911 48.5909 39.1604C49.7625 35.9911 51.8386 32.6649 54.1135 30.2723C51.8443 28.2877 50.1544 26.3023 48.5909 23.603Z" fill="white"/>
</svg>
