<svg width="210" height="64" viewBox="0 0 210 64" fill="none" xmlns="http://www.w3.org/2000/svg">
<path d="M135.36 41.2199H133.259L131.433 47.1709L129.673 41.2199H127.495L127 48.9199H128.331L128.716 42.5069L130.608 48.9199H132.17L134.084 42.5729L134.557 48.9199H135.976L135.36 41.2199Z" fill="white"/>
<path d="M140.07 45.4769H143.37V44.3109H140.07V42.4629H143.601V41.2199H138.64V48.9199H143.645V47.6769H140.07V45.4769Z" fill="white"/>
<path d="M149.47 45.7189C150.999 45.6749 151.868 44.7839 151.868 43.4969C151.868 42.1439 150.9 41.2199 149.371 41.2199H146.203V48.9199H147.633V45.4439L150.306 48.9199H152.066L149.47 45.7189ZM149.085 42.4519C149.921 42.4519 150.372 42.8809 150.372 43.6069C150.372 44.3549 149.888 44.8059 148.931 44.8059H147.633V42.4519H149.085Z" fill="white"/>
<path d="M157.922 49.1399C158.835 49.1399 159.704 48.8869 160.331 48.4359V47.0609C159.803 47.4679 159.011 47.7979 158.131 47.7979C156.415 47.7979 155.348 46.6319 155.348 45.0479C155.348 43.4749 156.415 42.3309 158.12 42.3309C159.066 42.3309 159.781 42.6829 160.309 43.0899V41.6599C159.792 41.3189 158.967 40.9999 157.922 40.9999C155.491 40.9999 153.852 42.7049 153.852 45.1029C153.852 47.3579 155.337 49.1399 157.922 49.1399Z" fill="white"/>
<path d="M167.72 44.3659H164.211V41.2199H162.781V48.9199H164.211V45.6529H167.72V48.9199H169.139V41.2199H167.72V44.3659Z" fill="white"/>
<path d="M178.354 48.9199L175.813 41.2199H173.866L171.347 48.9199H172.81L173.382 47.0939H176.286L176.858 48.9199H178.354ZM174.823 42.4629L175.923 45.9719H173.723L174.823 42.4629Z" fill="white"/>
<path d="M185.808 47.1819L182.508 41.2199H180.539V48.9199H181.881V42.7489L185.335 48.9199H187.139V41.2199H185.808V47.1819Z" fill="white"/>
<path d="M195.172 41.2199H189.287V42.5289H191.498V48.9199H192.917V42.5289H195.172V41.2199Z" fill="white"/>
<path d="M90.3325 40.1511C89.9116 35.4463 85.885 34.6448 81.9533 33.3426C78.3998 32.1652 75.0627 32.059 74.7031 29.5384C74.3216 26.8633 76.9739 25.2432 79.7525 25.7301C82.766 26.2581 83.3398 28.5541 82.6437 30.0422C84.0342 31.7483 87.4879 31.56 88.5485 30.377C89.4232 29.4024 89.7177 27.7912 87.8854 26.2621C85.638 24.3861 81.0295 23.4912 76.6198 24.3113C72.2801 25.1161 68.8441 27.6254 69.2328 31.8087C69.6512 36.3091 72.8861 37.6161 78.0103 38.9713C82.9688 40.2847 84.5951 41.6537 84.2708 43.9401C83.9811 45.9794 82.2325 47.651 78.4907 47.2228C74.7489 46.7947 72.7847 43.9554 73.5483 40.7523C69.2899 39.7825 67.4496 43.9401 70.9991 46.686C74.4142 49.329 81.1204 49.5559 84.8984 48.1258C88.2797 46.8462 90.7212 44.5059 90.3325 40.1511Z" fill="white"/>
<path d="M60.963 22.3516C63.2764 22.3516 65.1522 20.7058 65.1522 18.6762C65.1522 16.6465 63.2764 14.9999 60.963 14.9999C58.6495 14.9999 56.7729 16.6457 56.7729 18.6762C56.7729 20.7066 58.6487 22.3516 60.963 22.3516Z" fill="white"/>
<path d="M64.2686 24.3628C63.2276 24.8218 62.1023 25.0589 60.9646 25.0589C59.8269 25.0589 58.7016 24.8218 57.6605 24.3628L57.6525 48.6296H64.2735L64.2686 24.3628Z" fill="white"/>
<path d="M107.998 23.6377C105.609 23.6377 103.352 24.3725 101.574 25.7044V15.7299H94.784V48.6264H101.549V33.3869C101.549 29.5167 102.149 27.6834 104.117 26.2195C105.904 24.89 108.424 25.1266 109.795 26.0786C111.454 27.2303 111.379 29.9811 111.379 32.1781V48.6296H118V32.0735C118 26.1712 113.955 23.6377 107.998 23.6377Z" fill="white"/>
<path d="M45.4043 48.6296H38.7866L33.5818 33.617L29.9084 48.6296H23.2883L15 24.3644H21.7964L28.8149 45.3573C31.3255 38.3202 32.8995 31.7668 30.4613 24.3644H37.0798L45.4043 48.6296Z" fill="white"/>
<path d="M48.5909 23.603C47.0266 26.3023 45.3368 28.2877 43.0692 30.2723C45.3432 32.6649 47.4217 35.9911 48.5909 39.1604C49.7625 35.9911 51.8386 32.6649 54.1135 30.2723C51.8443 28.2877 50.1544 26.3023 48.5909 23.603Z" fill="white"/>
</svg>
