<svg width="253" height="64" viewBox="0 0 253 64" fill="none" xmlns="http://www.w3.org/2000/svg">
<path d="M128.968 41.2998V48.9998H130.398V46.3268H131.751C133.511 46.3268 134.501 45.3038 134.501 43.8188C134.501 42.2788 133.511 41.2998 131.916 41.2998H128.968ZM130.398 45.2048V42.5208H131.674C132.521 42.5208 133.038 42.9718 133.038 43.8188C133.038 44.7098 132.521 45.2048 131.531 45.2048H130.398Z" fill="#545452"/>
<path d="M140.211 49.2198C142.521 49.2198 144.138 47.5038 144.138 45.1498C144.138 42.8068 142.521 41.0798 140.211 41.0798C137.912 41.0798 136.284 42.8068 136.284 45.1498C136.284 47.5038 137.912 49.2198 140.211 49.2198ZM140.211 47.8668C138.715 47.8668 137.78 46.7118 137.78 45.1608C137.78 43.6098 138.704 42.4328 140.211 42.4328C141.718 42.4328 142.653 43.6098 142.653 45.1608C142.653 46.7118 141.718 47.8668 140.211 47.8668Z" fill="#545452"/>
<path d="M149.612 49.2198C151.449 49.2198 152.747 48.0208 152.747 46.1068V41.2998H151.317V46.0188C151.317 47.2068 150.624 47.8448 149.612 47.8448C148.611 47.8448 147.918 47.2068 147.918 46.0188V41.2998H146.499V46.1068C146.499 48.0208 147.786 49.2198 149.612 49.2198Z" fill="#545452"/>
<path d="M158.857 45.7988C160.386 45.7548 161.255 44.8638 161.255 43.5768C161.255 42.2238 160.287 41.2998 158.758 41.2998H155.59V48.9998H157.02V45.5238L159.693 48.9998H161.453L158.857 45.7988ZM158.472 42.5318C159.308 42.5318 159.759 42.9608 159.759 43.6868C159.759 44.4348 159.275 44.8858 158.318 44.8858H157.02V42.5318H158.472Z" fill="#545452"/>
<path d="M170.095 47.3938L168.06 41.2998H166.531L169.27 48.9998H170.931L173.659 41.2998H172.13L170.095 47.3938Z" fill="#545452"/>
<path d="M177.261 45.5568H180.561V44.3908H177.261V42.5428H180.792V41.2998H175.831V48.9998H180.836V47.7568H177.261V45.5568Z" fill="#545452"/>
<path d="M188.664 47.2618L185.364 41.2998H183.395V48.9998H184.737V42.8288L188.191 48.9998H189.995V41.2998H188.664V47.2618Z" fill="#545452"/>
<path d="M195.586 48.9998C198.16 48.9998 199.524 47.3938 199.524 45.1168C199.524 42.8618 198.226 41.2998 195.773 41.2998H192.946V48.9998H195.586ZM194.376 42.5868H195.663C197.302 42.5868 198.039 43.5768 198.039 45.1388C198.039 46.6898 197.225 47.7128 195.575 47.7128H194.376V42.5868Z" fill="#545452"/>
<path d="M203.432 45.5568H206.732V44.3908H203.432V42.5428H206.963V41.2998H202.002V48.9998H207.007V47.7568H203.432V45.5568Z" fill="#545452"/>
<path d="M212.591 49.2198C214.428 49.2198 215.726 48.0208 215.726 46.1068V41.2998H214.296V46.0188C214.296 47.2068 213.603 47.8448 212.591 47.8448C211.59 47.8448 210.897 47.2068 210.897 46.0188V41.2998H209.478V46.1068C209.478 48.0208 210.765 49.2198 212.591 49.2198Z" fill="#545452"/>
<path d="M221.836 45.7988C223.365 45.7548 224.234 44.8638 224.234 43.5768C224.234 42.2238 223.266 41.2998 221.737 41.2998H218.569V48.9998H219.999V45.5238L222.672 48.9998H224.432L221.836 45.7988ZM221.451 42.5318C222.287 42.5318 222.738 42.9608 222.738 43.6868C222.738 44.4348 222.254 44.8858 221.297 44.8858H219.999V42.5318H221.451Z" fill="#545452"/>
<path d="M228.923 49.2198C230.606 49.2198 231.651 48.2958 231.651 46.8768C231.651 45.8318 231.079 45.1718 229.704 44.6438L228.923 44.3358C228.208 44.0388 227.834 43.7748 227.834 43.2468C227.834 42.6748 228.263 42.3558 229.121 42.3558C229.979 42.3558 230.683 42.6748 231.31 43.1918V41.7948C230.815 41.4208 230.034 41.0798 229.011 41.0798C227.339 41.0798 226.349 41.9708 226.349 43.3238C226.349 44.3468 226.921 45.0288 228.142 45.4908L228.945 45.7988C229.847 46.1838 230.1 46.4258 230.1 46.9318C230.1 47.5698 229.671 47.9328 228.791 47.9328C227.856 47.9328 226.998 47.5368 226.327 46.9758V48.3728C227.108 48.9558 228.021 49.2198 228.923 49.2198Z" fill="#545452"/>
<path d="M90.3325 40.1512C89.9116 35.4464 85.885 34.6448 81.9533 33.3427C78.3998 32.1653 75.0627 32.0591 74.703 29.5385C74.3216 26.8633 76.9738 25.2433 79.7524 25.7302C82.766 26.2581 83.3397 28.5542 82.6437 30.0422C84.0342 31.7484 87.4879 31.5601 88.5485 30.377C89.4232 29.4024 89.7177 27.7913 87.8854 26.2622C85.6379 24.3862 81.0295 23.4913 76.6198 24.3113C72.2801 25.1161 68.8441 27.6255 69.2328 31.8088C69.6512 36.3091 72.886 37.6161 78.0103 38.9714C82.9688 40.2848 84.595 41.6537 84.2708 43.9401C83.9811 45.9795 82.2325 47.651 78.4907 47.2229C74.7489 46.7947 72.7846 43.9554 73.5483 40.7524C69.2899 39.7826 67.4496 43.9401 70.999 46.6861C74.4141 49.329 81.1204 49.556 84.8984 48.1259C88.2797 46.8462 90.7211 44.5059 90.3325 40.1512Z" fill="#1E1E1C"/>
<path d="M60.963 22.3516C63.2764 22.3516 65.1522 20.7058 65.1522 18.6762C65.1522 16.6465 63.2764 14.9999 60.963 14.9999C58.6495 14.9999 56.7729 16.6457 56.7729 18.6762C56.7729 20.7066 58.6487 22.3516 60.963 22.3516Z" fill="#1E1E1C"/>
<path d="M64.2687 24.3628C63.2276 24.8218 62.1024 25.0589 60.9646 25.0589C59.8269 25.0589 58.7016 24.8218 57.6606 24.3628L57.6525 48.6296H64.2735L64.2687 24.3628Z" fill="#1E1E1C"/>
<path d="M107.998 23.6377C105.609 23.6377 103.352 24.3725 101.574 25.7044V15.7299H94.784V48.6264H101.549V33.3869C101.549 29.5167 102.149 27.6834 104.117 26.2195C105.904 24.89 108.424 25.1266 109.795 26.0786C111.454 27.2303 111.379 29.9811 111.379 32.1781V48.6296H118V32.0735C118 26.1712 113.955 23.6377 107.998 23.6377Z" fill="#1E1E1C"/>
<path d="M45.4043 48.6296H38.7866L33.5818 33.617L29.9084 48.6296H23.2883L15 24.3644H21.7964L28.8149 45.3573C31.3255 38.3202 32.8995 31.7668 30.4613 24.3644H37.0798L45.4043 48.6296Z" fill="#1E1E1C"/>
<path d="M48.5909 23.603C47.0266 26.3023 45.3368 28.2877 43.0692 30.2723C45.3432 32.6649 47.4217 35.9911 48.5909 39.1604C49.7625 35.9911 51.8386 32.6649 54.1135 30.2723C51.8443 28.2877 50.1544 26.3023 48.5909 23.603Z" fill="#1E1E1C"/>
</svg>
