<svg width="528" height="120" viewBox="0 0 528 120" fill="none" xmlns="http://www.w3.org/2000/svg">
<path d="M0 4C0 1.79086 1.79086 0 4 0H524C526.209 0 528 1.79086 528 4V120H0V4Z" fill="#FFD560" fill-opacity="0.5"/>
<path d="M389.735 46C393.778 45.7586 397 42.0578 397 37.5015C397 32.7977 393.561 28.986 389.315 28.986C388.544 28.986 387.79 29.1156 387.084 29.3578C385.809 23.4259 380.978 19 375.223 19C369.502 19 364.72 23.3513 363.379 29.2087C362.823 29.0737 362.255 29.0052 361.684 29.0046C357.439 29.0046 354 32.8164 354 37.5209C354 42.0019 357.12 45.6468 361.08 46H389.735H389.735Z" fill="#FFD560" fill-opacity="0.8"/>
<path d="M102.748 79C106.228 78.7943 109 75.6418 109 71.7605C109 67.7536 106.041 64.5066 102.388 64.5066C101.724 64.5066 101.075 64.617 100.468 64.8233C99.3707 59.7702 95.2136 56 90.2619 56C85.3388 56 81.2245 59.7067 80.0701 64.6963C79.5922 64.5813 79.1027 64.523 78.6116 64.5224C74.9592 64.5224 72 67.7695 72 71.7771C72 75.5942 74.685 78.6991 78.0918 79H102.749H102.748Z" fill="#FFD560" fill-opacity="0.8"/>
<path d="M150 22C150 20.8954 150.895 20 152 20H356C357.105 20 358 20.8954 358 22V118C358 119.105 357.105 120 356 120H150V22Z" fill="white"/>
<path d="M147.455 119.736C155.088 119.291 161.169 112.474 161.169 104.081C161.169 95.4163 154.678 88.3948 146.664 88.3948C145.207 88.3948 143.783 88.6336 142.452 89.0798C140.045 78.1528 130.925 70 120.062 70C109.262 70 100.236 78.0155 97.7038 88.8052C96.6554 88.5565 95.5817 88.4303 94.5042 88.4291C86.4918 88.4291 80 95.4507 80 104.117C80 112.371 85.8903 119.085 93.3641 119.736H147.456H147.455Z" fill="#8CACF6"/>
<path fill-rule="evenodd" clip-rule="evenodd" d="M119.35 86.6756C119.492 86.5077 119.701 86.4109 119.92 86.4109C120.14 86.4109 120.349 86.5077 120.49 86.6756L125.49 92.5764C125.679 92.7982 125.721 93.1096 125.599 93.3738C125.476 93.638 125.211 93.8068 124.92 93.8061H122.099V99.4771C122.099 99.7944 121.973 100.099 121.749 100.323C121.524 100.547 121.22 100.673 120.902 100.672H118.94C118.28 100.672 117.745 100.137 117.745 99.4771V93.8061H114.921C114.629 93.8073 114.363 93.6383 114.241 93.3735C114.118 93.1087 114.161 92.7967 114.351 92.5749L119.35 86.6756V86.6756ZM129.822 97.2668C129.505 97.2665 129.201 97.392 128.977 97.6159C128.752 97.8398 128.626 98.1437 128.625 98.4607V104.49C128.626 104.688 128.547 104.878 128.407 105.018C128.267 105.159 128.077 105.238 127.879 105.238H111.962C111.55 105.238 111.216 104.903 111.216 104.491V98.4622C111.215 98.1452 111.089 97.8413 110.864 97.6174C110.64 97.3935 110.336 97.2679 110.019 97.2683H109.011C108.352 97.2683 107.817 97.8026 107.816 98.4622V106.957C107.816 107.618 108.352 108.152 109.011 108.152H130.83C131.147 108.152 131.45 108.025 131.674 107.801C131.898 107.576 132.024 107.272 132.023 106.955V98.4622C132.023 97.8026 131.489 97.2677 130.83 97.2668H129.822V97.2668Z" fill="white"/>
<rect x="215.99" y="81.569" width="30.527" height="30.527" rx="4.5" fill="#E7EEFD" fill-opacity="0.5"/>
<rect x="257.012" y="81.142" width="73.947" height="1.724" rx="0.861" fill="#C3D4FA"/>
<rect x="257.012" y="86.9929" width="73.947" height="1.724" rx="0.861" fill="#C3D4FA"/>
<rect x="256.623" y="92.845" width="73.947" height="1.724" rx="0.861" fill="#C3D4FA"/>
<rect x="256.623" y="104.135" width="30.535" height="8.278" rx="2" fill="#C3D4FA"/>
<path fill-rule="evenodd" clip-rule="evenodd" d="M178.351 93.92C178.393 93.92 183.67 93.886 185.67 94.476C187.67 95.067 188.99 95.178 190.83 94.661C192.668 94.144 196.395 93.952 197.819 93.923C199.242 93.893 199.681 93.826 199.684 94.184C199.686 94.542 199.62 95.118 199.593 95.244C199.57 95.347 199.522 95.523 199.253 95.684C199.105 95.775 199.002 95.9248 198.971 96.096C198.826 96.875 198.394 98.942 197.791 99.579C197.042 100.37 195.886 100.84 194.533 100.891C193.179 100.941 191.139 100.744 190.008 98.393C190.008 98.393 189.413 96.979 189.356 96.825C189.299 96.671 188.508 95.231 187.589 97.819C186.67 100.407 184.441 101.174 182.793 100.969C181.144 100.765 178.795 100.12 178.636 97.075C178.636 97.075 178.632 96.304 178.364 95.926C178.096 95.549 177.664 95.551 177.687 94.892C177.711 94.232 177.5 93.915 178.351 93.919V93.92Z" fill="#1B4278"/>
<path fill-rule="evenodd" clip-rule="evenodd" d="M179.331 95.281L178.255 95.288C178.228 95.288 178.207 95.2667 178.206 95.24L178.203 94.81C178.203 94.784 178.225 94.762 178.252 94.762L179.327 94.755C179.354 94.755 179.376 94.777 179.377 94.804L179.379 95.232C179.379 95.245 179.374 95.2576 179.365 95.2669C179.356 95.2763 179.344 95.2817 179.331 95.282V95.281ZM199.08 95.157L198.004 95.163C197.977 95.163 197.956 95.1417 197.955 95.115L197.952 94.686C197.952 94.659 197.974 94.637 198.001 94.637L199.076 94.63C199.103 94.63 199.125 94.652 199.125 94.679L199.128 95.108C199.128 95.1347 199.107 95.1564 199.08 95.157V95.157ZM185.179 99.8601C184.475 100.231 183.75 100.522 182.732 100.4C181.104 100.206 179.464 99.2981 179.392 97.2731C179.319 95.248 180.362 94.2811 182.695 94.4991C182.695 94.4991 185.028 94.5651 186.023 95.3911C186.893 96.1131 187.217 97.4861 186.626 98.488C186.54 98.6348 186.436 98.7705 186.316 98.8921C186.316 98.8921 185.792 99.5381 185.179 99.8611V99.8601ZM192.218 99.8271C192.925 100.181 193.653 100.456 194.668 100.324C196.291 100.114 197.918 99.2061 197.966 97.2271C198.013 95.2471 196.959 94.3171 194.632 94.5571C194.632 94.5571 192.303 94.6521 191.32 95.4711C190.46 96.1871 190.152 97.5321 190.755 98.5041C190.841 98.6441 190.946 98.7741 191.071 98.8951C191.071 98.8951 191.601 99.5191 192.218 99.8271V99.8271Z" fill="white"/>
<path fill-rule="evenodd" clip-rule="evenodd" d="M227.123 105.39C227.811 102.772 229.701 99.443 230.302 98.623C230.943 97.747 232.609 95.591 234.318 93.391C236.026 91.191 236.957 89.401 236.957 89.401C236.957 89.401 240.531 91.331 241.258 92.152C241.978 92.965 242.54 97.683 242.54 97.683H238.289V105.39H227.123Z" fill="#8CACF6" fill-opacity="0.8"/>
<path fill-rule="evenodd" clip-rule="evenodd" d="M225.042 97.683V105.393H236.574C236.062 102.638 233.67 99.498 233.03 98.623C232.388 97.747 230.723 95.59 229.014 93.39C227.306 91.19 226.374 89.4 226.374 89.4C226.374 89.4 222.8 91.331 222.073 92.152C221.354 92.965 220.792 97.683 220.792 97.683H225.042Z" fill="#C3D4FA"/>
<rect x="174" y="39.5181" width="30.527" height="30.527" rx="4.5" stroke="#C3D4FA" stroke-dasharray="2 2"/>
<rect x="174" y="81.569" width="30.527" height="30.527" rx="4.5" stroke="#C3D4FA" stroke-dasharray="2 2"/>
<rect x="215.99" y="39.5181" width="30.527" height="30.527" rx="4.5" stroke="#C3D4FA" stroke-dasharray="2 2"/>
<rect x="257.979" y="39.5181" width="30.527" height="30.527" rx="4.5" stroke="#C3D4FA" stroke-dasharray="2 2"/>
<path fill-rule="evenodd" clip-rule="evenodd" d="M266.179 49.8039V49.2239H264.721V49.8039M268.136 49.8039V49.2239H266.677V49.8039" fill="#C4C4C4"/>
<path fill-rule="evenodd" clip-rule="evenodd" d="M282.876 48.646H271.792V49.804H263.922V51.756H282.876V48.646Z" fill="#C4CDD5"/>
<path fill-rule="evenodd" clip-rule="evenodd" d="M263.922 61.386H282.876V51.756H263.922V61.386Z" fill="#7790A3"/>
<path fill-rule="evenodd" clip-rule="evenodd" d="M281.269 50.783H278.967C278.705 50.7711 278.499 50.5555 278.499 50.2935C278.499 50.0314 278.705 49.8158 278.967 49.804H281.269C281.538 49.804 281.759 50.024 281.759 50.294C281.759 50.564 281.538 50.783 281.269 50.783Z" fill="white"/>
<path fill-rule="evenodd" clip-rule="evenodd" d="M268.634 49.805H271.794V48.645H268.634V49.805Z" fill="#D5DFE6"/>
<path d="M268.879 48.6379V49.8039H269.179V48.6379H268.879ZM270.452 48.6379V49.8039H270.752V48.6379H270.452ZM269.662 48.6379V49.8039H269.962V48.6379H269.662ZM271.245 48.6379V49.8039H271.545V48.6379H271.245Z" fill="#4A5F6E"/>
<path d="M263.922 51.756H282.876" stroke="#D5DFE6" stroke-linejoin="round"/>
<path fill-rule="evenodd" clip-rule="evenodd" d="M281.056 56.2519C281.056 59.0873 278.758 61.3859 275.922 61.3859C273.087 61.3859 270.788 59.0873 270.788 56.2519C270.788 53.4165 273.087 51.1179 275.922 51.1179C278.758 51.1179 281.056 53.4165 281.056 56.2519V56.2519Z" fill="#4A5F6E"/>
<path fill-rule="evenodd" clip-rule="evenodd" d="M279.873 56.2519C279.896 57.6786 279.148 59.0068 277.916 59.7268C276.684 60.4468 275.159 60.4468 273.927 59.7268C272.695 59.0068 271.947 57.6786 271.97 56.2519C272.004 54.0941 273.763 52.3628 275.921 52.3628C278.08 52.3628 279.839 54.0941 279.873 56.2519Z" fill="#FEFEFE"/>
<path fill-rule="evenodd" clip-rule="evenodd" d="M277.861 56.252C277.861 57.3234 276.993 58.1922 275.921 58.1925C274.85 58.1928 273.981 57.3244 273.981 56.253C273.981 55.1816 274.85 54.313 275.921 54.313C276.992 54.313 277.861 55.1816 277.861 56.253V56.252Z" fill="#4A5F6E"/>
<rect x="299.969" y="39.5181" width="30.527" height="30.527" rx="4.5" fill="#E7EEFD" fill-opacity="0.5"/>
<path fill-rule="evenodd" clip-rule="evenodd" d="M198.295 54.85C198.295 59.8691 194.226 63.938 189.207 63.938C184.188 63.938 180.119 59.8691 180.119 54.85C180.119 49.8308 184.188 45.762 189.207 45.762C194.226 45.762 198.295 49.8308 198.295 54.85V54.85Z" fill="#FFC72C"/>
<path d="M184.798 47.0801C186.183 47.3951 188.293 48.0941 190.301 49.7741C195.161 53.8361 195.264 60.1481 195.265 61.1801" stroke="#E4AB0F" stroke-width="0.75" stroke-linejoin="bevel"/>
<path d="M188.042 51.8459L188.265 52.1473L188.265 52.1473L188.042 51.8459ZM186.299 49.607L186.424 49.9605L186.424 49.9605L186.299 49.607ZM189.712 58.61L189.338 58.5808L189.338 58.5811L189.712 58.61ZM191.007 53.334L191.248 53.621L191.248 53.6209L191.007 53.334ZM194.488 51.704L194.437 52.0755L194.438 52.0756L194.488 51.704ZM195.169 48.0065C192.517 48.7114 190.023 49.9118 187.819 51.5445L188.265 52.1473C190.394 50.5709 192.801 49.4118 195.361 48.7313L195.169 48.0065ZM187.819 51.5445C184.235 54.1981 182.287 57.3431 181.348 59.1413L182.012 59.4885C182.921 57.7487 184.805 54.7097 188.265 52.1473L187.819 51.5445ZM190.499 45.967C190.127 46.0131 190.127 46.0127 190.127 46.0123C190.127 46.0122 190.127 46.0118 190.127 46.0116C190.127 46.0111 190.126 46.0107 190.126 46.0102C190.126 46.0094 190.126 46.0087 190.126 46.0081C190.126 46.0068 190.126 46.0061 190.126 46.0058C190.126 46.0052 190.126 46.0065 190.126 46.0094C190.126 46.0154 190.127 46.0284 190.126 46.0477C190.125 46.0864 190.12 46.1509 190.102 46.2366C190.066 46.4069 189.979 46.6671 189.761 46.9811C189.327 47.6091 188.353 48.4805 186.174 49.2536L186.424 49.9605C188.699 49.1535 189.826 48.205 190.378 47.408C190.654 47.0095 190.78 46.656 190.836 46.3906C190.864 46.2585 190.874 46.1497 190.876 46.0695C190.877 46.0295 190.876 45.9967 190.875 45.9717C190.875 45.9592 190.874 45.9487 190.873 45.9402C190.873 45.936 190.872 45.9322 190.872 45.929C190.872 45.9274 190.872 45.9259 190.872 45.9246C190.871 45.9239 190.871 45.9233 190.871 45.9227C190.871 45.9224 190.871 45.922 190.871 45.9218C190.871 45.9214 190.871 45.921 190.499 45.967ZM186.174 49.2536C183.936 50.0472 182.571 50.6475 181.76 51.0532C181.355 51.2562 181.086 51.4112 180.916 51.5183C180.831 51.5718 180.77 51.6136 180.729 51.6436C180.708 51.6586 180.692 51.6706 180.68 51.6798C180.674 51.6844 180.67 51.6883 180.666 51.6914C180.664 51.693 180.662 51.6944 180.661 51.6956C180.66 51.6962 180.659 51.6967 180.659 51.6972C180.658 51.6975 180.658 51.6977 180.658 51.698C180.657 51.6981 180.657 51.6983 180.657 51.6983C180.657 51.6985 180.657 51.6987 180.899 51.985C181.141 52.2714 181.141 52.2716 181.141 52.2717C181.141 52.2718 181.14 52.2719 181.14 52.272C181.14 52.2722 181.14 52.2724 181.14 52.2725C181.139 52.2729 181.139 52.2731 181.139 52.2734C181.138 52.2738 181.138 52.274 181.138 52.274C181.138 52.274 181.139 52.2732 181.141 52.2716C181.145 52.2683 181.154 52.2617 181.168 52.2518C181.195 52.2319 181.243 52.199 181.316 52.1531C181.462 52.0611 181.708 51.9179 182.096 51.7239C182.871 51.3356 184.206 50.7469 186.424 49.9605L186.174 49.2536ZM187.247 63.457C187.52 63.7138 187.52 63.7137 187.52 63.7137C187.52 63.7136 187.52 63.7135 187.52 63.7134C187.521 63.7133 187.521 63.7131 187.521 63.7129C187.521 63.7124 187.522 63.7118 187.523 63.711C187.524 63.7095 187.526 63.7074 187.529 63.7048C187.534 63.6994 187.541 63.6918 187.55 63.6819C187.568 63.6621 187.594 63.6333 187.626 63.5962C187.692 63.522 187.785 63.4142 187.896 63.2776C188.119 63.0047 188.418 62.6151 188.723 62.147C189.327 61.2209 189.985 59.9449 190.086 58.6388L189.338 58.5811C189.252 59.698 188.677 60.8456 188.095 61.7372C187.808 62.1781 187.525 62.5459 187.315 62.8032C187.21 62.9317 187.124 63.0322 187.064 63.1C187.034 63.1339 187.011 63.1596 186.995 63.1765C186.988 63.1849 186.982 63.1912 186.978 63.1952C186.976 63.1972 186.975 63.1986 186.974 63.1994C186.974 63.1998 186.974 63.2001 186.974 63.2002C186.974 63.2003 186.973 63.2003 186.973 63.2003C186.973 63.2003 186.974 63.2003 186.974 63.2003C186.974 63.2002 186.974 63.2002 187.247 63.457ZM190.086 58.6392C190.182 57.4092 190.233 56.35 190.393 55.4727C190.553 54.5958 190.809 53.9906 191.248 53.621L190.765 53.047C190.122 53.5884 189.825 54.4102 189.655 55.338C189.486 56.2654 189.431 57.3888 189.338 58.5808L190.086 58.6392ZM191.248 53.6209C191.778 53.1747 192.36 52.7501 192.929 52.4561C193.505 52.1579 194.021 52.0185 194.437 52.0755L194.539 51.3325C193.897 51.2445 193.213 51.4646 192.584 51.7899C191.947 52.1194 191.317 52.5823 190.765 53.0471L191.248 53.6209ZM194.438 52.0756C195.39 52.2041 196.916 52.8537 197.578 54.89L198.291 54.658C197.52 52.2863 195.706 51.4899 194.538 51.3324L194.438 52.0756Z" fill="#E4AB0F"/>
<path fill-rule="evenodd" clip-rule="evenodd" d="M231.631 62.9809C229.493 62.9669 227.771 61.2119 227.786 59.0619C227.8 56.9119 229.545 55.1819 231.684 55.1959C233.822 55.2099 235.544 56.9649 235.529 59.1149C235.515 61.2649 233.77 62.9959 231.631 62.9809ZM231.691 54.136C228.971 54.118 226.751 56.32 226.732 59.056C226.714 61.79 228.904 64.022 231.625 64.041C234.345 64.059 236.565 61.857 236.583 59.121C236.602 56.387 234.411 54.155 231.691 54.136Z" fill="#FFC72C"/>
<path fill-rule="evenodd" clip-rule="evenodd" d="M226.038 48.6301L227.874 45.8611H235.49L237.142 48.6291L231.59 54.8111L226.038 48.6291V48.6301Z" fill="#9AE3FF"/>
<path d="M226.182 48.4279C226.071 48.4279 225.982 48.5175 225.982 48.6279C225.982 48.7384 226.071 48.8279 226.182 48.8279V48.4279ZM236.996 48.8279C237.106 48.8279 237.196 48.7384 237.196 48.6279C237.196 48.5175 237.106 48.4279 236.996 48.4279V48.8279ZM228.028 45.8625C227.963 45.7731 227.838 45.7532 227.748 45.8181C227.659 45.883 227.639 46.0081 227.704 46.0975L228.028 45.8625ZM229.79 48.63L229.628 48.7475C229.666 48.8003 229.728 48.831 229.793 48.83C229.858 48.8289 229.919 48.796 229.956 48.742L229.79 48.63ZM231.582 45.98L231.745 45.8639C231.707 45.8106 231.645 45.7792 231.579 45.78C231.514 45.7808 231.453 45.8137 231.416 45.8679L231.582 45.98ZM233.47 48.63L233.307 48.746C233.344 48.7978 233.403 48.829 233.467 48.83C233.53 48.8309 233.591 48.8016 233.629 48.7509L233.47 48.63ZM235.641 46.1009C235.708 46.0129 235.691 45.8875 235.603 45.8207C235.515 45.7539 235.389 45.7711 235.323 45.859L235.641 46.1009ZM226.182 48.8279H236.996V48.4279H226.182V48.8279ZM227.704 46.0975L229.628 48.7475L229.952 48.5125L228.028 45.8625L227.704 46.0975ZM229.956 48.742L231.748 46.092L231.416 45.8679L229.624 48.5179L229.956 48.742ZM231.419 46.096L233.307 48.746L233.633 48.5139L231.745 45.8639L231.419 46.096ZM233.629 48.7509L235.641 46.1009L235.323 45.859L233.311 48.509L233.629 48.7509Z" fill="white"/>
<path d="M229.834 48.63C229.834 48.63 231.553 54.404 231.627 54.691L233.515 48.629" stroke="white" stroke-width="0.4" stroke-linecap="round" stroke-linejoin="round"/>
<path fill-rule="evenodd" clip-rule="evenodd" d="M315.772 52.176H308.391C308.258 52.1759 308.145 52.2726 308.124 52.404L306.304 63.847C306.291 63.9255 306.314 64.0055 306.365 64.066C306.417 64.1264 306.493 64.1612 306.572 64.161H324.972C325.138 64.161 325.266 64.011 325.24 63.847L323.42 52.404C323.398 52.2729 323.285 52.1766 323.152 52.176H315.772Z" fill="#FFC72C"/>
<path d="M323.408 53.217L318.816 59.083C318.766 59.1472 318.689 59.1848 318.607 59.185H312.936C312.855 59.1848 312.778 59.1472 312.728 59.083L308.135 53.217" stroke="#D8A20D" stroke-width="0.5"/>
<path fill-rule="evenodd" clip-rule="evenodd" d="M315.111 60.2329H316.333V58.1379H315.111V60.2329Z" fill="#FFFBF1"/>
<path d="M311.055 52.1761C312.151 47.3801 314.068 44.1361 315.719 44.2331C317.301 44.3271 318.741 47.4981 319.303 48.7361C319.917 50.0861 320.22 51.2991 320.383 52.1761" stroke="#4A5F6E" stroke-width="0.5"/>
<path d="M386.316 120.185H330.056L330.056 108.13L386.316 108.13L386.316 120.185Z" fill="#FFD560"/>
<path d="M390.336 120.185L386.316 120.185L386.317 108.129H390.336C390.869 108.129 391.38 108.341 391.757 108.718C392.134 109.095 392.346 109.606 392.346 110.139L392.345 118.176C392.344 119.286 391.445 120.185 390.336 120.185Z" fill="#376EEE"/>
<path d="M386.317 120.185H330.056V114.157H386.317V120.185Z" fill="#FFC72C"/>
<path d="M330.056 120.185L321.578 115.946C320.104 115.209 320.104 113.106 321.578 112.369L330.056 108.13L330.056 120.185Z" fill="#8CACF6"/>
<path d="M324.029 117.171L321.578 115.946C320.104 115.209 320.104 113.105 321.578 112.368L324.028 111.143L324.029 117.171Z" fill="#001D53"/>
</svg>
