<svg width="412" height="168" viewBox="0 0 412 168" fill="none" xmlns="http://www.w3.org/2000/svg">
<path fill-rule="evenodd" clip-rule="evenodd" d="M331.152 167.516H413.328V55.6462H331.152V167.516Z" fill="#FFCE73"/>
<path fill-rule="evenodd" clip-rule="evenodd" d="M355.026 145.207H393.962V139.925H355.026V145.207Z" fill="white"/>
<path d="M373.997 78.2664C386.059 78.2664 395.836 88.0435 395.836 100.105C395.836 112.165 386.059 121.942 373.997 121.942C361.936 121.942 352.159 112.165 352.159 100.105C352.172 88.0485 361.941 78.279 373.997 78.2664" stroke="#231F20" stroke-width="0.6" stroke-linecap="round" stroke-linejoin="round"/>
<path d="M374.493 78.2664C375.455 78.2664 377.151 79.9489 378.599 83.6412C380.304 87.9902 381.243 93.838 381.243 100.105C381.243 106.37 380.323 112.218 378.599 116.568C377.151 120.245 375.46 121.942 374.493 121.942C373.529 121.942 371.836 120.259 370.389 116.568C368.688 112.218 367.745 106.37 367.745 100.105C367.745 93.838 368.663 87.9902 370.389 83.6412C371.841 79.9438 373.537 78.2664 374.493 78.2664" stroke="#231F20" stroke-width="0.6" stroke-linecap="round" stroke-linejoin="round"/>
<path d="M355.129 89.1243C360.145 90.2933 366.737 91.3394 374.487 91.295C381.794 91.2519 388.043 90.2515 392.876 89.1243" stroke="#231F20" stroke-width="0.6" stroke-linecap="round" stroke-linejoin="round"/>
<path d="M355.115 111.081C359.363 109.641 365.824 107.993 373.816 107.969C381.986 107.944 388.584 109.628 392.875 111.081" stroke="#231F20" stroke-width="0.6" stroke-linecap="round" stroke-linejoin="round"/>
<path d="M352.16 100.105H395.836" stroke="#231F20" stroke-width="0.6" stroke-linecap="round" stroke-linejoin="round"/>
<path d="M307.708 128.736V126.794H302.824V128.736" stroke="#231F20" stroke-width="0.6" stroke-linecap="round" stroke-linejoin="round"/>
<path d="M314.261 128.736V126.794H309.376V128.736" stroke="#231F20" stroke-width="0.6" stroke-linecap="round" stroke-linejoin="round"/>
<path fill-rule="evenodd" clip-rule="evenodd" d="M363.619 124.855H326.505V128.735H300.151V135.269H363.619V124.855Z" fill="#8DD1F3"/>
<mask id="mask0_198:24640" style="mask-type:alpha" maskUnits="userSpaceOnUse" x="0" y="0" width="423" height="168">
<path fill-rule="evenodd" clip-rule="evenodd" d="M0 167.996H422.463V0H0V167.996Z" fill="white"/>
</mask>
<g mask="url(#mask0_198:24640)">
<path fill-rule="evenodd" clip-rule="evenodd" d="M300.15 167.517H363.618V135.269H300.15V167.517Z" fill="#8DD1F3"/>
<path fill-rule="evenodd" clip-rule="evenodd" d="M358.662 132.014H350.111C349.442 132.014 348.893 131.465 348.893 130.796V129.955C348.893 129.286 349.442 128.737 350.111 128.737H358.662C359.332 128.737 359.881 129.286 359.881 129.955V130.796C359.881 131.465 359.332 132.014 358.662 132.014Z" stroke="#231F20" stroke-width="0.6"/>
<path fill-rule="evenodd" clip-rule="evenodd" d="M315.929 128.736H326.51V124.852H315.929V128.736Z" fill="#8DD1F3"/>
<path fill-rule="evenodd" clip-rule="evenodd" d="M322.358 132.096C322.358 132.725 321.848 133.234 321.22 133.234C320.588 133.234 320.078 132.725 320.078 132.096C320.078 131.466 320.588 130.956 321.22 130.956C321.848 130.956 322.358 131.466 322.358 132.096Z" stroke="#231F20" stroke-width="0.6"/>
<path d="M317.251 124.852V128.736" stroke="#231F20" stroke-width="0.6" stroke-linecap="round" stroke-linejoin="round"/>
<path d="M318.566 124.852V128.736" stroke="#231F20" stroke-width="0.6" stroke-linecap="round" stroke-linejoin="round"/>
<path d="M321.203 124.852V128.736" stroke="#231F20" stroke-width="0.6" stroke-linecap="round" stroke-linejoin="round"/>
<path d="M322.518 124.852V128.736" stroke="#231F20" stroke-width="0.6" stroke-linecap="round" stroke-linejoin="round"/>
<path d="M319.872 124.852V128.736" stroke="#231F20" stroke-width="0.6" stroke-linecap="round" stroke-linejoin="round"/>
<path d="M325.175 124.852V128.736" stroke="#231F20" stroke-width="0.6" stroke-linecap="round" stroke-linejoin="round"/>
<path d="M323.844 124.852V128.736" stroke="#231F20" stroke-width="0.6" stroke-linecap="round" stroke-linejoin="round"/>
<path d="M300.151 135.269H363.619" stroke="#231F20" stroke-width="0.6" stroke-linecap="round" stroke-linejoin="round"/>
<path fill-rule="evenodd" clip-rule="evenodd" d="M357.524 150.329C357.524 159.823 349.826 167.521 340.331 167.521C330.836 167.521 323.14 159.823 323.14 150.329C323.14 140.834 330.836 133.135 340.331 133.135C349.826 133.135 357.524 140.834 357.524 150.329Z" fill="#2FB7EC"/>
<path fill-rule="evenodd" clip-rule="evenodd" d="M353.563 150.329C353.563 157.637 347.639 163.561 340.331 163.561C333.024 163.561 327.1 157.637 327.1 150.329C327.1 143.02 333.024 137.095 340.331 137.095C347.639 137.095 353.563 143.02 353.563 150.329Z" fill="white"/>
<path fill-rule="evenodd" clip-rule="evenodd" d="M350.279 150.329C350.279 155.823 345.824 160.277 340.33 160.277C334.836 160.277 330.383 155.823 330.383 150.329C330.383 144.835 334.836 140.379 340.33 140.379C345.824 140.379 350.279 144.835 350.279 150.329Z" stroke="#231F20" stroke-width="0.6"/>
<path fill-rule="evenodd" clip-rule="evenodd" d="M346.828 150.328C346.828 153.917 343.919 156.825 340.331 156.825C336.743 156.825 333.834 153.917 333.834 150.328C333.834 146.74 336.743 143.832 340.331 143.832C343.919 143.832 346.828 146.74 346.828 150.328Z" fill="#8DD1F3"/>
<path fill-rule="evenodd" clip-rule="evenodd" d="M342.319 150.329C342.319 151.425 341.43 152.316 340.332 152.316C339.234 152.316 338.344 151.425 338.344 150.329C338.344 149.231 339.234 148.342 340.332 148.342C341.43 148.342 342.319 149.231 342.319 150.329Z" stroke="#231F20" stroke-width="0.6"/>
<path fill-rule="evenodd" clip-rule="evenodd" d="M281.269 167.52H307.179C307.179 167.52 315.066 159.017 311.779 154.086C308.494 149.158 302.905 151.786 300.605 155.401C300.605 155.401 300.691 141.766 289.475 146.941C278.256 152.116 281.269 167.52 281.269 167.52Z" fill="#00918A"/>
<path fill-rule="evenodd" clip-rule="evenodd" d="M282.012 167.52C287.837 158.813 290.828 146.949 291.773 140.653C292.716 134.356 291.3 130.105 287.837 129.633C284.373 129.161 281.821 135.17 281.821 135.17C281.821 135.17 280.347 126.657 277.728 121.092C275.109 115.526 269.543 112.907 265.942 117.326C262.34 121.746 265.077 137.989 265.077 137.989C264.563 137.648 260.238 134.853 257.689 136.48C254.952 138.226 256.114 143.897 256.609 146.311C258.719 156.608 267.291 163.654 273.264 167.52H282.012Z" fill="#4DC1BD"/>
<path d="M277.809 167.52L272.294 128.344" stroke="black" stroke-width="0.6" stroke-linecap="round" stroke-linejoin="round"/>
<path fill-rule="evenodd" clip-rule="evenodd" d="M396.388 167.52C390.563 158.813 387.573 146.949 386.629 140.653C385.684 134.356 387.1 130.105 390.563 129.633C394.027 129.161 396.579 135.17 396.579 135.17C396.579 135.17 398.053 126.657 400.672 121.092C403.292 115.526 408.858 112.907 412.459 117.326C416.061 121.746 413.323 137.989 413.323 137.989C413.837 137.648 418.164 134.853 420.712 136.48C423.45 138.226 422.287 143.897 421.791 146.311C419.681 156.608 411.11 163.654 405.135 167.52H396.388Z" fill="#4DC1BD"/>
<path d="M400.591 167.52L406.107 128.344" stroke="black" stroke-width="0.6" stroke-linecap="round" stroke-linejoin="round"/>
<path fill-rule="evenodd" clip-rule="evenodd" d="M82.3808 72.975H138.117V58.9478H82.3808V72.975Z" fill="#F17D86"/>
<path d="M102.243 64.017H130.129" stroke="#231F20" stroke-width="0.6" stroke-linecap="round" stroke-linejoin="round"/>
<path d="M102.243 67.8381H123.509" stroke="#231F20" stroke-width="0.6" stroke-linecap="round" stroke-linejoin="round"/>
<path d="M88.8868 67.8702L86.9785 65.9619" stroke="#231F20" stroke-width="0.6" stroke-linecap="round" stroke-linejoin="round"/>
<path d="M88.8868 64.054L86.9785 65.9622" stroke="#231F20" stroke-width="0.6" stroke-linecap="round" stroke-linejoin="round"/>
<path d="M92.498 65.9621H87.0953" stroke="#231F20" stroke-width="0.6" stroke-linecap="round" stroke-linejoin="round"/>
<path fill-rule="evenodd" clip-rule="evenodd" d="M138.117 51.2564H193.854V37.2305H138.117V51.2564Z" fill="#8DD1F3"/>
<path d="M143.406 42.3676H164.673" stroke="#231F20" stroke-width="0.6" stroke-linecap="round" stroke-linejoin="round"/>
<path d="M143.406 46.121H174.253" stroke="#231F20" stroke-width="0.6" stroke-linecap="round" stroke-linejoin="round"/>
<path d="M186.997 42.3369L188.904 44.2452" stroke="#231F20" stroke-width="0.6" stroke-linecap="round" stroke-linejoin="round"/>
<path d="M186.997 46.1519L188.904 44.2449" stroke="#231F20" stroke-width="0.6" stroke-linecap="round" stroke-linejoin="round"/>
<path d="M183.386 44.2451H188.789" stroke="#231F20" stroke-width="0.6" stroke-linecap="round" stroke-linejoin="round"/>
<path d="M138.117 27.5066V153.603" stroke="#231F20" stroke-width="0.6" stroke-linecap="round" stroke-linejoin="round"/>
<path fill-rule="evenodd" clip-rule="evenodd" d="M253.493 147.863C255.749 147.78 258.745 148.037 261.727 149.551C261.727 149.551 265.777 135.515 266.766 134.165C267.354 133.362 267.887 132.982 268.015 132.888C270.102 131.399 272.321 132.239 275.292 132.008C275.293 132.008 278.052 131.795 280.915 130.339C283.436 129.057 286.207 125.281 286.263 107.545C286.281 101.851 284.896 85.4502 284.896 85.4502L234.971 112.398L235.739 135.955L235.985 149.551L253.493 147.863Z" fill="#EAA277"/>
<path fill-rule="evenodd" clip-rule="evenodd" d="M253.517 116.281C246.65 116.168 247.098 106.036 251.378 104.122C254.516 102.718 256.451 104.768 257.258 105.959V128.237C257.258 128.237 256.562 137.647 260.509 139.668C264.455 141.692 274.623 142.629 278.938 139.868C283.251 137.105 286.113 132.96 285.225 123.044C285.225 123.044 278.283 122.044 272.985 120.668C270.617 120.055 268.579 119.365 267.63 118.656C267.113 118.268 266.568 117.795 266.019 117.25C263.307 114.554 260.489 110.108 260.329 105.794C260.329 105.794 296.255 96.7638 303.363 86.0053C310.471 75.2468 298.368 74.8626 298.368 74.8626C298.368 74.8626 305.35 61.0307 281.399 67.3704C281.399 67.3704 278.196 60.0696 263.211 68.1388C248.226 76.2079 236.699 82.7391 233.434 91.5767C230.168 100.413 230.552 107.284 234.971 112.398L235.739 135.956C238.982 133.553 242.818 130.262 246.609 125.872C249.543 122.475 251.797 119.175 253.517 116.281Z" fill="#66401F"/>
<path d="M279.383 125.867C279.383 125.867 280.507 128.994 284.537 129.092" stroke="#231F20" stroke-width="0.6" stroke-linecap="round" stroke-linejoin="round"/>
<path d="M285.583 114.892C285.583 114.892 286.722 120.106 286.052 120.679C285.384 121.255 283.867 120.679 283.867 120.679" stroke="#231F20" stroke-width="0.6" stroke-linecap="round" stroke-linejoin="round"/>
<path d="M281.96 105.349C281.96 105.349 277.513 103.547 273.897 105.338" stroke="#231F20" stroke-width="0.6" stroke-linecap="round" stroke-linejoin="round"/>
<path fill-rule="evenodd" clip-rule="evenodd" d="M236.271 147.685L225.751 167.513L272.984 167.516C272.85 167.145 272.715 166.784 272.582 166.43C269.417 158.083 267.205 152.33 261.727 149.551C261.349 149.359 261.084 149.245 260.552 149.02C258.892 148.318 255.504 147.083 248.979 146.827C245.84 146.705 241.478 146.787 236.271 147.685Z" fill="#FFCE73"/>
<path fill-rule="evenodd" clip-rule="evenodd" d="M91.4739 167.515H148.544C154.702 161.389 155.702 152.161 151.412 145.835C148.202 141.1 142.188 138.228 136.066 139.098C128.776 140.133 125.068 145.945 124.555 146.782C124.555 146.782 124.7 123.457 105.511 132.308C86.3223 141.161 91.4739 167.515 91.4739 167.515Z" fill="#00918A"/>
<path fill-rule="evenodd" clip-rule="evenodd" d="M0.475464 167.516H114.962V130.303H0.475464V167.516Z" fill="#FFCE73"/>
<path fill-rule="evenodd" clip-rule="evenodd" d="M12.4074 167.516H16.565V130.303H12.4074V167.516Z" fill="white"/>
<path fill-rule="evenodd" clip-rule="evenodd" d="M21.2663 167.516H25.4239V130.303H21.2663V167.516Z" fill="white"/>
<path fill-rule="evenodd" clip-rule="evenodd" d="M90.0137 167.516H94.1713V130.303H90.0137V167.516Z" fill="white"/>
<path fill-rule="evenodd" clip-rule="evenodd" d="M98.8735 167.516H103.031V130.303H98.8735V167.516Z" fill="white"/>
<path d="M0.475464 150.862H114.962" stroke="#231F20" stroke-width="0.6" stroke-linecap="round" stroke-linejoin="round"/>
<path d="M43.8614 150.862V144.096C43.8614 142.157 45.246 140.583 46.9526 140.583H68.249C69.9569 140.583 71.3402 142.157 71.3402 144.096V150.862" stroke="#231F20" stroke-width="0.6" stroke-linecap="round" stroke-linejoin="round"/>
<path fill-rule="evenodd" clip-rule="evenodd" d="M16.6802 126.312C16.6802 128.516 14.8924 130.302 12.6887 130.302C10.4838 130.302 8.69727 128.516 8.69727 126.312C8.69727 124.108 10.4838 122.322 12.6887 122.322C14.8924 122.322 16.6802 124.108 16.6802 126.312Z" stroke="#231F20" stroke-width="0.6"/>
<path fill-rule="evenodd" clip-rule="evenodd" d="M64.2181 126.312C64.2181 128.516 62.4316 130.302 60.2279 130.302C58.023 130.302 56.2352 128.516 56.2352 126.312C56.2352 124.108 58.023 122.322 60.2279 122.322C62.4316 122.322 64.2181 124.108 64.2181 126.312Z" stroke="#231F20" stroke-width="0.6"/>
<path fill-rule="evenodd" clip-rule="evenodd" d="M5.55079 123.685H67.8955C68.8148 123.685 69.5591 122.939 69.5591 122.02V41.1492C69.5591 40.2299 68.8148 39.4844 67.8955 39.4844H5.55079C4.63027 39.4844 3.88599 40.2299 3.88599 41.1492V122.02C3.88599 122.939 4.63027 123.685 5.55079 123.685Z" fill="#8DD1F3"/>
<path d="M27.0589 8.02319V39.4834" stroke="#231F20" stroke-width="0.6" stroke-linecap="round" stroke-linejoin="round"/>
<path d="M46.4757 39.4839V8.02368" stroke="#231F20" stroke-width="0.6" stroke-linecap="round" stroke-linejoin="round"/>
<path fill-rule="evenodd" clip-rule="evenodd" d="M24.9202 1.75522V8.02266H48.613V1.75522C45.854 0.919649 41.969 0.0612527 37.2738 0.00292732C32.0879 -0.0617377 27.8302 0.874004 24.9202 1.75522Z" fill="#8DD1F3"/>
<path fill-rule="evenodd" clip-rule="evenodd" d="M29.5087 46.7884H44.0228V43.8582H29.5087V46.7884Z" stroke="#231F20" stroke-width="0.6" stroke-linecap="round" stroke-linejoin="round"/>
<path d="M3.88507 116.624L4.55201 117.202C5.08708 117.665 5.76923 117.919 6.47674 117.92L16.9563 117.924C18.5197 117.924 19.7876 119.193 19.7876 120.758V121.809C19.7876 121.809 19.7179 123.231 20.7614 123.684" stroke="#231F20" stroke-width="0.6" stroke-linecap="round" stroke-linejoin="round"/>
<path d="M69.5601 116.624L68.8931 117.202C68.3593 117.665 67.6759 117.919 66.9697 117.92L56.4901 117.924C54.9255 117.924 53.6576 119.193 53.6576 120.758V121.809C53.6576 121.809 53.7273 123.231 52.6838 123.684" stroke="#231F20" stroke-width="0.6" stroke-linecap="round" stroke-linejoin="round"/>
<path d="M3.88507 50.9326H69.5594" stroke="#231F20" stroke-width="0.6" stroke-linecap="round" stroke-linejoin="round"/>
<path d="M3.88507 59.6931H69.5594" stroke="#231F20" stroke-width="0.6" stroke-linecap="round" stroke-linejoin="round"/>
<path d="M3.88507 68.2245H69.5594" stroke="#231F20" stroke-width="0.6" stroke-linecap="round" stroke-linejoin="round"/>
<path d="M3.88507 76.9848H69.5594" stroke="#231F20" stroke-width="0.6" stroke-linecap="round" stroke-linejoin="round"/>
<path d="M3.88507 85.7441H69.5594" stroke="#231F20" stroke-width="0.6" stroke-linecap="round" stroke-linejoin="round"/>
<path d="M3.88507 103.276H69.5594" stroke="#231F20" stroke-width="0.6" stroke-linecap="round" stroke-linejoin="round"/>
<path d="M3.92877 112.035H69.6044" stroke="#231F20" stroke-width="0.6" stroke-linecap="round" stroke-linejoin="round"/>
<path d="M3.88507 94.5046H69.5594" stroke="#231F20" stroke-width="0.6" stroke-linecap="round" stroke-linejoin="round"/>
<path fill-rule="evenodd" clip-rule="evenodd" d="M114.066 112.195C114.066 121.964 106.145 129.885 96.3753 129.885C86.6045 129.885 78.6849 121.964 78.6849 112.195C78.6849 102.424 86.6045 94.5046 96.3753 94.5046C106.145 94.5046 114.066 102.424 114.066 112.195Z" fill="white"/>
<path fill-rule="evenodd" clip-rule="evenodd" d="M89.2143 105.168C89.2143 104.335 89.5997 103.599 90.1919 103.104L90.1868 103.097C89.5477 102.319 88.6805 101.401 87.5431 100.503C86.5846 99.7487 85.6615 99.187 84.869 98.7737C81.088 102.018 78.684 106.821 78.684 112.195C83.3691 105.855 89.2143 105.168 89.2143 105.168Z" fill="#F17D86"/>
<path fill-rule="evenodd" clip-rule="evenodd" d="M90.1863 103.098L90.1926 103.104C90.6605 102.713 91.2564 102.468 91.9145 102.468C92.0261 102.468 92.1313 102.488 92.2391 102.5V102.491C92.2391 102.491 94.8663 95.8999 98.3366 94.6192C97.6912 94.5482 97.0383 94.5051 96.3751 94.5051C91.9779 94.5051 87.9636 96.1179 84.8698 98.7743C85.6623 99.1876 86.5841 99.7481 87.5426 100.504C88.6812 101.401 89.5473 102.319 90.1863 103.098Z" fill="white"/>
<path fill-rule="evenodd" clip-rule="evenodd" d="M92.2388 102.491V102.5C92.7624 102.563 93.2354 102.774 93.6234 103.093C93.6234 103.093 105.476 101.257 112.604 105.164C110.133 99.467 104.753 95.3284 98.3363 94.6196C94.8659 95.9003 92.2388 102.491 92.2388 102.491Z" fill="#F17D86"/>
<path fill-rule="evenodd" clip-rule="evenodd" d="M90.1864 107.232L90.1902 107.23C89.5994 106.733 89.2139 105.998 89.2139 105.168C89.2139 105.168 83.3687 105.855 78.6849 112.195C78.6849 119.128 82.6828 125.114 88.4912 128.015C87.9599 116.851 90.1864 107.232 90.1864 107.232Z" fill="white"/>
<path fill-rule="evenodd" clip-rule="evenodd" d="M94.2712 106.462C93.8122 107.295 92.9348 107.867 91.9154 107.867C91.2548 107.867 90.6589 107.622 90.1897 107.229L90.1859 107.232C90.1859 107.232 87.9594 116.85 88.4907 128.014C90.8668 129.201 93.5384 129.886 96.3747 129.886C101.227 129.886 105.621 127.928 108.817 124.765C104.786 116.117 94.2712 106.462 94.2712 106.462Z" fill="#F17D86"/>
<path fill-rule="evenodd" clip-rule="evenodd" d="M112.606 105.164C105.478 101.258 93.6235 103.093 93.6235 103.093C94.2245 103.588 94.6163 104.329 94.6163 105.168C94.6163 105.639 94.4845 106.076 94.2715 106.461C94.2715 106.461 104.786 116.118 108.817 124.764C112.056 121.559 114.065 117.112 114.065 112.195C114.065 109.695 113.54 107.32 112.606 105.164Z" fill="white"/>
<path fill-rule="evenodd" clip-rule="evenodd" d="M94.6149 105.168C94.6149 106.659 93.4065 107.867 91.9142 107.867C90.4231 107.867 89.2134 106.659 89.2134 105.168C89.2134 103.676 90.4231 102.467 91.9142 102.467C93.4065 102.467 94.6149 103.676 94.6149 105.168Z" stroke="#231F20" stroke-width="0.6" stroke-linecap="round" stroke-linejoin="round"/>
<path d="M94.2709 106.462C94.2709 106.462 104.787 116.117 108.818 124.766" stroke="#231F20" stroke-width="0.6" stroke-linecap="round" stroke-linejoin="round"/>
<path d="M93.6235 103.093C93.6235 103.093 105.484 101.258 112.612 105.168" stroke="#231F20" stroke-width="0.6" stroke-linecap="round" stroke-linejoin="round"/>
<path d="M90.186 107.232C90.186 107.232 87.9557 116.861 88.4907 128.033" stroke="#231F20" stroke-width="0.6" stroke-linecap="round" stroke-linejoin="round"/>
<path d="M89.2143 105.168C89.2143 105.168 83.3691 105.855 78.684 112.195" stroke="#231F20" stroke-width="0.6" stroke-linecap="round" stroke-linejoin="round"/>
<path d="M84.8582 98.7664C85.6532 99.1822 86.5788 99.7439 87.5424 100.503C88.6811 101.401 89.5471 102.319 90.1861 103.098" stroke="#231F20" stroke-width="0.6" stroke-linecap="round" stroke-linejoin="round"/>
<path d="M92.2388 102.491C92.2388 102.491 94.8723 95.8838 98.3464 94.6133" stroke="#231F20" stroke-width="0.6" stroke-linecap="round" stroke-linejoin="round"/>
<path fill-rule="evenodd" clip-rule="evenodd" d="M241.304 163.21C241.267 163.328 241.227 163.437 241.19 163.554L241.304 163.21Z" fill="#FFCE73"/>
<path fill-rule="evenodd" clip-rule="evenodd" d="M241.484 122.695C236.439 129.824 235.575 135.404 235.741 139.215C235.905 142.938 237.117 146.526 235.973 151.997C235.341 155.028 234.248 157.38 233.441 158.871C228.883 155.804 224.325 152.737 219.767 149.668C217.032 138.649 220.972 128.179 228.58 124.065C233.709 121.29 239.123 122.153 241.484 122.695Z" fill="#231F20"/>
<path fill-rule="evenodd" clip-rule="evenodd" d="M214.871 139.706C214.871 139.706 214.947 134.974 214.571 126.56C214.195 118.146 217.99 112.126 217.99 112.126C210.399 112 210.896 100.8 215.627 98.6841C220.355 96.5692 222.612 101.547 222.612 101.547C226.242 100.681 230.959 98.939 235.425 95.3228C238.305 92.991 244.525 87.9573 244.393 81.0305C244.393 81.0305 244.383 79.7677 244.062 78.5187C242.53 72.567 228.232 59.6036 210.12 60.855C198.525 61.6564 188.335 68.0785 182.704 75.6164C179.427 80.0022 176.648 85.8449 175.635 88.6547C172.682 96.8456 171.73 106.502 157.442 114.484C143.156 122.466 143.728 129.799 141.919 135.134C140.108 140.467 138.966 145.99 126.68 151.704C114.394 157.419 114.965 167.516 114.965 167.516H206.762C206.762 167.516 214.066 157.229 214.871 139.706Z" fill="#231F20"/>
<path fill-rule="evenodd" clip-rule="evenodd" d="M222.613 141.293C219.808 139.869 216.992 139.627 214.872 139.706C214.748 143.733 214.163 149.148 212.249 155.249C212.213 155.366 212.173 155.476 212.134 155.591C209.767 163.259 206.762 167.516 206.762 167.516L235.929 167.514C235.023 163.508 233.909 160.042 232.817 157.162C229.841 149.314 227.763 143.906 222.613 141.293Z" fill="#F17D86"/>
<path fill-rule="evenodd" clip-rule="evenodd" d="M244.392 80.9683C244.394 81.0076 244.394 81.0304 244.394 81.0304C244.524 87.9572 238.306 92.9909 235.426 95.3226C232.925 97.3475 230.352 98.7689 227.931 99.7934C227.677 99.9037 227.429 100.01 227.186 100.108C227.118 100.134 227.05 100.161 226.981 100.188C225.099 100.931 223.537 101.336 222.613 101.547C222.613 101.547 220.356 96.5703 215.627 98.6852C210.897 100.801 210.399 112.001 217.991 112.125C217.991 112.125 214.196 118.146 214.57 126.56C214.947 134.974 214.872 139.706 214.872 139.706C216.993 139.627 219.808 139.869 222.613 141.293C222.613 141.293 226.419 128.098 227.35 126.828C227.903 126.074 228.402 125.715 228.524 125.628C230.486 124.227 232.571 125.017 235.366 124.801C235.366 124.801 237.96 124.601 240.652 123.231C243.022 122.027 245.627 118.477 245.681 101.803C245.697 96.4486 245.445 89.3392 244.392 80.9683Z" fill="#F1CCB4"/>
<path fill-rule="evenodd" clip-rule="evenodd" d="M238.678 101.094C238.678 102.31 238.018 103.294 237.207 103.294C236.394 103.294 235.736 102.31 235.736 101.094C235.736 99.8797 236.394 98.8945 237.207 98.8945C238.018 98.8945 238.678 99.8797 238.678 101.094Z" fill="#231F20"/>
<path d="M239.211 112.207C239.211 112.207 240.267 115.146 244.057 115.24" stroke="#231F20" stroke-width="0.6" stroke-linecap="round" stroke-linejoin="round"/>
<path d="M245.671 102.21C245.671 102.21 246.741 107.112 246.112 107.651C245.483 108.191 244.058 107.651 244.058 107.651" stroke="#231F20" stroke-width="0.6" stroke-linecap="round" stroke-linejoin="round"/>
<path fill-rule="evenodd" clip-rule="evenodd" d="M220.343 111.285C220.343 112.809 219.106 114.047 217.582 114.047C216.056 114.047 214.82 112.809 214.82 111.285C214.82 109.76 216.056 108.522 217.582 108.522C219.106 108.522 220.343 109.76 220.343 111.285Z" fill="#FBB036"/>
<path d="M241.635 92.9184C241.635 92.9184 237.453 91.2244 234.054 92.9069" stroke="#231F20" stroke-width="0.6" stroke-linecap="round" stroke-linejoin="round"/>
<path fill-rule="evenodd" clip-rule="evenodd" d="M278.722 114.046C278.722 115.262 278.063 116.247 277.251 116.247C276.438 116.247 275.78 115.262 275.78 114.046C275.78 112.832 276.438 111.846 277.251 111.846C278.063 111.846 278.722 112.832 278.722 114.046Z" fill="#231F20"/>
</g>
</svg>
