<svg xmlns="http://www.w3.org/2000/svg" width="40" height="40" viewBox="0 0 40 40">
    <defs>
        <linearGradient id="a" x1="7.986%" x2="92.014%" y1="99.999%" y2=".001%">
            <stop offset="0%" stop-color="#FFF"/>
            <stop offset="100%" stop-color="#EEF2F5"/>
        </linearGradient>
        <linearGradient id="b" x1="100%" x2="0%" y1="53.72%" y2="46.28%">
            <stop offset="0%" stop-color="#2FB7EC"/>
            <stop offset="100%" stop-color="#2F88EC"/>
        </linearGradient>
        <linearGradient id="c" x1="100%" x2="0%" y1="100%" y2="100%">
            <stop offset="0%" stop-color="#8BDCFB"/>
            <stop offset="100%" stop-color="#2FB7EC"/>
        </linearGradient>
        <linearGradient id="d" x1="7.986%" x2="92.014%" y1="99.999%" y2=".001%">
            <stop offset="0%" stop-color="#FFF"/>
            <stop offset="100%" stop-color="#8BDCFB"/>
        </linearGradient>
    </defs>
    <g fill="none" fill-rule="evenodd">
        <path fill="#FFF" fill-rule="nonzero" d="M19 17h16v12H19z"/>
        <path fill="#EEF2F5" fill-rule="nonzero" d="M5 17h14v12H5z"/>
        <path fill="url(#a)" fill-rule="nonzero" d="M3 6h11v12H8z" transform="translate(5 11)"/>
        <path fill="#2F88EC" fill-rule="nonzero" d="M6 20h2v4H6v-4zm4 0h2v4h-2v-4zm4 0h2v4h-2v-4z"/>
        <path fill="#FFF" fill-rule="nonzero" d="M27 11l8 6H19z"/>
        <path fill="url(#b)" fill-rule="nonzero" d="M8 0h14l-8 6.001L0 6z" transform="translate(5 11)"/>
        <path fill="#2F88EC" fill-rule="nonzero" d="M22 25h10v4H22z"/>
        <path fill="url(#c)" d="M19 14h8v4h-8z" transform="translate(5 11)"/>
        <g fill="#AFC7D1" fill-opacity=".5" fill-rule="nonzero">
            <path d="M27 19a2 2 0 1 1 0-4 2 2 0 0 1 0 4z"/>
        </g>
        <g>
            <path fill="#FFF" fill-rule="nonzero" d="M19 17h16v12H19z"/>
            <path fill="#EEF2F5" fill-rule="nonzero" d="M5 17h14v12H5z"/>
            <path fill="url(#a)" fill-rule="nonzero" d="M3 6h11v12H8z" transform="translate(5 11)"/>
            <path fill="#2F88EC" fill-rule="nonzero" d="M6 20h2v4H6v-4zm4 0h2v4h-2v-4zm4 0h2v4h-2v-4z"/>
            <path fill="#FFF" fill-rule="nonzero" d="M27 11l8 6H19z"/>
            <path fill="url(#b)" fill-rule="nonzero" d="M8 0h14l-8 6.001L0 6z" transform="translate(5 11)"/>
            <path fill="#2F88EC" fill-rule="nonzero" d="M22 25h10v4H22z"/>
            <path fill="url(#c)" d="M19 14h8v4h-8z" transform="translate(5 11)"/>
            <g fill="#AFC7D1" fill-opacity=".5" fill-rule="nonzero">
                <path d="M27 19a2 2 0 1 1 0-4 2 2 0 0 1 0 4z"/>
            </g>
        </g>
        <g>
            <path fill="#E6F7FF" fill-rule="nonzero" d="M19 17h16v12H19zM5 17h14v12H5z"/>
            <path fill="url(#d)" fill-rule="nonzero" d="M3 6h11v12H8z" transform="translate(5 11)"/>
            <path fill="#2F88EC" fill-rule="nonzero" d="M6 20h2v4H6v-4zm4 0h2v4h-2v-4zm4 0h2v4h-2v-4z"/>
            <path fill="#E6F7FF" fill-rule="nonzero" d="M27 11l8 6H19z"/>
            <path fill="url(#b)" fill-rule="nonzero" d="M8 0h14l-8 6.001L0 6z" transform="translate(5 11)"/>
            <path fill="#2F88EC" fill-rule="nonzero" d="M22 25h10v4H22z"/>
            <path fill="url(#c)" d="M19 14h8v4h-8z" transform="translate(5 11)"/>
            <g fill="#8BDCFB" fill-rule="nonzero">
                <path d="M27 19a2 2 0 1 1 0-4 2 2 0 0 1 0 4z"/>
            </g>
        </g>
    </g>
</svg>
