<?xml version="1.0" encoding="UTF-8"?>
<svg width="21px" height="21px" viewBox="0 0 21 21" version="1.1" xmlns="http://www.w3.org/2000/svg" xmlns:xlink="http://www.w3.org/1999/xlink">
    <!-- Generator: Sketch 51.2 (57519) - http://www.bohemiancoding.com/sketch -->
    <title>Group 17</title>
    <desc>Created with Sketch.</desc>
    <defs>
        <rect id="path-1" x="0" y="0" width="24" height="24"></rect>
    </defs>
    <g id="Table-Explorations-v6" stroke="none" stroke-width="1" fill="none" fill-rule="evenodd">
        <g id="Entered-Quantities-w/-Added-Products" transform="translate(-370.000000, -1342.000000)">
            <g id="Group-17" transform="translate(368.000000, 1340.000000)">
                <mask id="mask-2" fill="white">
                    <use xlink:href="#path-1"></use>
                </mask>
                <use id="Mask-Copy" fill-opacity="0" fill="#FF3838" xlink:href="#path-1"></use>
                <path d="M21.4500138,8.74578491 L17.2763858,8.74578491 L17.2763858,7.37630069 C17.2763858,4.40521175 14.9391541,2 12.101087,2 C9.26301993,2 6.92578823,4.40504481 6.92578823,7.37630069 L6.92578823,8.74578491 L2.7521602,8.74578491 C2.3843467,8.74578491 2.08437971,9.04576526 2.08437971,9.4135654 L2.08437971,19.5292378 C2.08437971,20.6313427 1.65005528,22.0334146 2.7521602,22.0334146 L21.4500138,22.0334146 C22.5521187,22.0334146 22.1177943,20.6313427 22.1177943,19.5292378 L22.1177943,9.4135654 C22.1177943,9.04575191 21.8178139,8.74578491 21.4500138,8.74578491 Z M8.59523945,7.37630069 C8.59523945,5.33903599 10.1642565,3.66945121 12.101087,3.66945121 C14.0379175,3.66945121 15.6069346,5.33890243 15.6069346,7.37630069 L15.6069346,8.74578491 L8.59523945,8.74578491 L8.59523945,7.37630069 Z" id="Fill-1" fill="#2FB7EC" mask="url(#mask-2)"></path>
            </g>
        </g>
    </g>
</svg>