<svg xmlns="http://www.w3.org/2000/svg" xmlns:xlink="http://www.w3.org/1999/xlink" width="80" height="80" viewBox="0 0 80 80">
    <defs>
        <circle id="a" cx="40" cy="40" r="40"/>
        <linearGradient id="b" x1="100%" x2="0%" y1="86.735%" y2="13.265%">
            <stop offset="0%" stop-color="#CEF2FD"/>
            <stop offset="100%" stop-color="#8BDCFB"/>
        </linearGradient>
        <linearGradient id="c" x1="55.556%" x2="44.444%" y1="100%" y2="0%">
            <stop offset="0%" stop-color="#8BDCFB"/>
            <stop offset="100%" stop-color="#8BDCFB"/>
        </linearGradient>
        <linearGradient id="d" x1="10.494%" x2="89.506%" y1="0%" y2="100%">
            <stop offset="0%" stop-color="#FFE557"/>
            <stop offset="100%" stop-color="#FFC72C"/>
        </linearGradient>
    </defs>
    <g fill="none" fill-rule="evenodd">
        <use fill="#E7EEFD" xlink:href="#a"/>
        <path fill="#FFF" fill-rule="nonzero" d="M16.47 40h47.06v25.882H16.47z"/>
        <path fill="#E6F7FF" fill-rule="nonzero" d="M22.353 47.059h9.412c.65 0 1.176.527 1.176 1.176v17.647H21.176V48.235c0-.65.527-1.176 1.177-1.176zM36.47 47.059h21.177c.65 0 1.177.527 1.177 1.176v10.589h-23.53V48.235c0-.65.527-1.176 1.177-1.176z"/>
        <g fill-rule="nonzero">
            <path fill="url(#b)" d="M0 0h8.235v7.059H0z" transform="translate(48.235 50.588)"/>
            <path fill="url(#c)" d="M5.882 0h2.353v7.059H5.882z" transform="translate(48.235 50.588)"/>
            <path fill="#2FB7EC" d="M49.412 50.588h3.53v2.353l-.883-.47-.73.47-1.035-.47-.882.47z"/>
        </g>
        <g fill-rule="nonzero">
            <path fill="url(#b)" d="M0 0h8.235v7.059H0z" transform="translate(37.647 50.588)"/>
            <path fill="url(#c)" d="M5.882 0h2.353v7.059H5.882z" transform="translate(37.647 50.588)"/>
            <path fill="#2FB7EC" d="M38.824 50.588h3.529v2.353l-.882-.47-.73.47-1.035-.47-.882.47z"/>
        </g>
        <path fill="#006BA0" fill-rule="nonzero" d="M16.47 22.353h47.06L65.881 40H14.118z"/>
        <path fill="#2FB7EC" fill-rule="nonzero" d="M18.824 20h40v2.353h-40z"/>
        <path fill="#006BA0" fill-rule="nonzero" d="M17.059 18.824H62.94a.588.588 0 1 1 0 1.176H17.06a.588.588 0 1 1 0-1.176z"/>
        <path fill="#E6F7FF" fill-rule="nonzero" d="M80 20.283c-.001 3.228-1.477 6.289-4.028 8.354-2.552 2.064-5.914 2.92-9.178 2.333l-5.137 1.971.365-3.982.125.043c-4.218-3.057-5.674-8.561-3.496-13.218 2.177-4.658 7.399-7.208 12.54-6.125 5.14 1.084 8.808 5.507 8.809 10.624z"/>
        <path fill="#2FB7EC" d="M73.802 19.234a.793.793 0 0 0-.763.658l-.375 2.698a1.232 1.232 0 0 1-.428.765 1.21 1.21 0 0 1-.823.324.907.907 0 0 1-.72-.318c-.184-.212-.255-.468-.212-.771l.226-1.637a.564.564 0 0 0-.584-.582h-.897a.797.797 0 0 0-.747.582l-.234 1.637a1.22 1.22 0 0 1-.428.771 1.204 1.204 0 0 1-.81.318.917.917 0 0 1-.726-.324.92.92 0 0 1-.22-.765l.503-3.58a.84.84 0 0 0-.475-.86s-3.783-1.555-4.03-1.655c-.249-.101-.532.125-.628.502l-.232.9a.837.837 0 0 0 .485.953l2.535 1.035-.38 2.705c-.127.907.088 1.683.648 2.327.558.644 1.295.965 2.21.965.846 0 1.618-.28 2.315-.842.557.562 1.255.842 2.092.842.915 0 1.742-.321 2.482-.965.74-.644 1.173-1.42 1.3-2.327l.405-2.904c.035-.249-.238-.452-.607-.452h-.882z"/>
        <path fill="#2FB7EC" fill-rule="nonzero" d="M61.176 40.372c-.003 1.093-1.036 1.978-2.312 1.98h-.084c-1.275-.002-2.307-.887-2.31-1.98-.003 1.093-1.036 1.978-2.311 1.98h-.085c-1.275-.002-2.307-.887-2.31-1.98-.003 1.093-1.036 1.978-2.311 1.98h-.084c-1.275-.002-2.308-.887-2.31-1.98-.004 1.093-1.037 1.978-2.312 1.98h-.084c-1.275-.002-2.307-.887-2.31-1.98-.004 1.093-1.037 1.978-2.312 1.98h-.084c-1.275-.002-2.307-.887-2.31-1.98-.004 1.093-1.037 1.978-2.312 1.98h-.084c-1.275-.002-2.307-.887-2.31-1.98-.004 1.093-1.037 1.978-2.312 1.98h-.084c-1.275-.002-2.307-.887-2.31-1.98-.004 1.093-1.036 1.978-2.312 1.98h-.084c-1.275-.002-2.307-.887-2.31-1.98-.003 1.093-1.036 1.978-2.312 1.98h-.084c-1.275-.002-2.307-.887-2.31-1.98-.003 1.093-1.036 1.978-2.312 1.98h-.084c-1.275-.002-2.307-.887-2.31-1.98V40h51.765v.372c-.003 1.093-1.036 1.978-2.312 1.98h-.084c-1.275-.002-2.307-.887-2.31-1.98z"/>
        <circle cx="31.176" cy="55.882" r="1" fill="#006BA0" fill-rule="nonzero"/>
        <path fill="#2FB7EC" fill-rule="nonzero" d="M35.294 57.647h23.53v1.177h-23.53z"/>
        <path fill="#4DC1BD" d="M76.47 54.979c0 2.83-2.465 5.11-5.467 5.018-2.707-.083-5.116-2.441-5.12-5.009a4.811 4.811 0 0 1 .985-2.926c.62-.819.776-1.846.53-2.826a3.538 3.538 0 0 1-.045-1.495c.268-1.483 1.514-2.69 3.075-2.968 2.475-.44 4.636 1.349 4.636 3.616a3.5 3.5 0 0 1-.144 1c-.273.918-.019 1.902.566 2.677.62.821.985 1.828.985 2.913"/>
        <path fill="#006BA0" fill-rule="nonzero" d="M71.176 50.588c.325 0 .589.264.589.588v14.706h-1.177V51.176c0-.324.264-.588.588-.588z"/>
        <path fill="#C3D4FA" d="M5.882 65.882h68.236v2.353H5.882z"/>
        <path fill="#FFE557" fill-rule="nonzero" d="M8.235 55.294h14.118v10.588H8.235z"/>
        <path fill="url(#d)" fill-rule="nonzero" d="M8.235 55.294h9.412v10.588H8.235z"/>
        <path fill="#FFF" fill-rule="nonzero" d="M14.118 63.529h2.353v1.176h-2.353z"/>
        <path fill="#F0B616" fill-rule="nonzero" d="M10.588 55.294h5.883v3.361l-.973-.336-.988.336-.98-.336-.981.336-.98-.336-.98.336zM19.16 55.294h1.68v3.4l-.84-.34-.84.34z"/>
    </g>
</svg>
