<svg xmlns="http://www.w3.org/2000/svg" xmlns:xlink="http://www.w3.org/1999/xlink" width="400" height="200" viewBox="0 0 400 200">
    <defs>
        <path id="a" d="M0 0h400v200H0z"/>
        <linearGradient id="c" x1="79.09%" x2="79.09%" y1="100%" y2="50%">
            <stop offset="0%" stop-color="#FFF"/>
            <stop offset="100%" stop-color="#CEF2FD"/>
        </linearGradient>
        <ellipse id="d" cx="15.628" cy="15" rx="15.628" ry="15"/>
        <ellipse id="f" cx="15.628" cy="15" rx="15.628" ry="15"/>
        <ellipse id="h" cx="15.628" cy="15" rx="15.628" ry="15"/>
        <ellipse id="j" cx="15.628" cy="15" rx="15.628" ry="15"/>
        <ellipse id="l" cx="15.628" cy="15" rx="15.628" ry="15"/>
        <ellipse id="n" cx="15.628" cy="15" rx="15.628" ry="15"/>
        <ellipse id="p" cx="15.628" cy="15" rx="15.628" ry="15"/>
        <ellipse id="r" cx="15.628" cy="15" rx="15.628" ry="15"/>
        <ellipse id="t" cx="15.628" cy="15" rx="15.628" ry="15"/>
        <ellipse id="v" cx="15.628" cy="15" rx="15.628" ry="15"/>
        <ellipse id="x" cx="15.628" cy="15" rx="15.628" ry="15"/>
        <linearGradient id="z" x1="0%" y1="32%" y2="68%">
            <stop offset="0%" stop-color="#FFF"/>
            <stop offset="100%" stop-color="#F8FAFB"/>
        </linearGradient>
        <linearGradient id="A" x1="50%" x2="50%" y1="0%" y2="100%">
            <stop offset="0%" stop-color="#FFE380" stop-opacity=".6"/>
            <stop offset="100%" stop-color="#FFE380" stop-opacity=".2"/>
        </linearGradient>
        <linearGradient id="B" x1="11.719%" x2="88.281%" y1="0%" y2="100%">
            <stop offset="0%" stop-color="#FFE557"/>
            <stop offset="100%" stop-color="#FFC72C"/>
        </linearGradient>
        <linearGradient id="C" x1="50%" x2="50%" y1="0%" y2="100%">
            <stop offset="0%" stop-color="#C3D4FA"/>
            <stop offset="100%" stop-color="#5685F1" stop-opacity=".2"/>
        </linearGradient>
        <linearGradient id="D" x1="50%" x2="50%" y1="100%" y2="0%">
            <stop offset="0%" stop-color="#5685F1"/>
            <stop offset="100%" stop-color="#326BEE"/>
        </linearGradient>
        <path id="E" d="M59.443 56.553c-.727.82-.027 3.72 2.102 8.697-3.511.13-7.029-.468-10.553-1.794A33.843 33.843 0 0 1 34 68C15.222 68 0 52.777 0 34 0 15.222 15.222 0 34 0c18.777 0 34 15.222 34 34a33.872 33.872 0 0 1-8.557 22.553z"/>
        <linearGradient id="G" x1="62.689%" x2="62.689%" y1="-32.398%" y2="23.673%">
            <stop offset="0%" stop-color="#2FB7EC"/>
            <stop offset="100%" stop-color="#8BDCFB"/>
        </linearGradient>
        <linearGradient id="H" x1="51.128%" x2="55.009%" y1="0%" y2="26.81%">
            <stop offset="0%" stop-color="#CEF2FD"/>
            <stop offset="100%" stop-color="#8BDCFB"/>
        </linearGradient>
        <linearGradient id="I" x1="42.363%" x2="32.541%" y1="0%" y2="27.941%">
            <stop offset="0%" stop-color="#CEF2FD"/>
            <stop offset="100%" stop-color="#8BDCFB"/>
        </linearGradient>
        <linearGradient id="J" x1="100%" x2="-6.882%" y1="1.641%" y2="112.604%">
            <stop offset="0%" stop-color="#326BEE"/>
            <stop offset="100%" stop-color="#1D4BEA"/>
        </linearGradient>
        <linearGradient id="K" x1="0%" y1="11.719%" y2="88.281%">
            <stop offset="0%" stop-color="#FFE557"/>
            <stop offset="100%" stop-color="#FFC72C"/>
        </linearGradient>
        <linearGradient id="L" x1="57.875%" x2="38.417%" y1="82%" y2="18%">
            <stop offset="0%" stop-color="#FFA39E"/>
            <stop offset="100%" stop-color="#E14D4C"/>
        </linearGradient>
        <linearGradient id="M" x1="0%" y1="100%" y2="100%">
            <stop offset="0%" stop-color="#EEF2F5"/>
            <stop offset="100%" stop-color="#C3D4FA"/>
        </linearGradient>
    </defs>
    <g fill="none" fill-rule="evenodd">
        <mask id="b" fill="#fff">
            <use xlink:href="#a"/>
        </mask>
        <use fill="#D8D8D8" fill-opacity="0" xlink:href="#a"/>
        <g mask="url(#b)">
            <g transform="translate(46 40)">
                <path fill="url(#c)" fill-rule="nonzero" d="M4 81l10.293-10.293a1 1 0 0 1 1.707.707V135H0V85a4 4 0 0 1 4-4zm280-25a2 2 0 0 1 0-4h20a2 2 0 0 1 0 4v79H25V48a4 4 0 0 1 4-4h16a4 4 0 0 1 4 4v21l235 2V56zm39-22v-7a1 1 0 1 1 2 0v7h3a4 4 0 0 1 4 4h-16a4 4 0 0 1 4-4h3zm-7 6h16a4 4 0 0 1 4 4v91h-24V44a4 4 0 0 1 4-4z"/>
                <path fill="#C3D4FA" fill-rule="nonzero" d="M92 69l62.75-54L217 69v66H92z"/>
                <ellipse cx="15.628" cy="15" fill="#1D4BEA" rx="15.628" ry="15" transform="translate(138.506 42.5)"/>
                <g transform="translate(138.506 42.5)">
                    <mask id="e" fill="#fff">
                        <use xlink:href="#d"/>
                    </mask>
                    <path fill="#C3D4FA" d="M15.584-4.81l12.25-.252L23.3 6.566l-4.332.089z" mask="url(#e)" transform="rotate(45 21.71 .796)"/>
                </g>
                <g transform="translate(138.506 42.5)">
                    <mask id="g" fill="#fff">
                        <use xlink:href="#f"/>
                    </mask>
                    <path fill="#C3D4FA" d="M27.633-1.462l2.06 1.977V1.2L18.753 6l-.488-.469z" mask="url(#g)"/>
                </g>
                <g transform="translate(138.506 42.5)">
                    <mask id="i" fill="#fff">
                        <use xlink:href="#h"/>
                    </mask>
                    <path stroke="#5685F1" stroke-linecap="round" stroke-linejoin="round" stroke-width="1.5" d="M11.72 15l5.47-10.5" mask="url(#i)"/>
                </g>
                <g transform="translate(138.506 42.5)">
                    <mask id="k" fill="#fff">
                        <use xlink:href="#j"/>
                    </mask>
                    <path stroke="#FFF" stroke-linecap="round" stroke-linejoin="round" stroke-width="1.5" d="M4.688 15L17.191 4.5" mask="url(#k)"/>
                </g>
                <g transform="translate(138.506 42.5)">
                    <mask id="m" fill="#fff">
                        <use xlink:href="#l"/>
                    </mask>
                    <path stroke="#5685F1" stroke-linecap="round" stroke-linejoin="round" stroke-width="1.5" d="M17.19 4.5l3.126 12" mask="url(#m)"/>
                </g>
                <g transform="translate(138.506 42.5)">
                    <mask id="o" fill="#fff">
                        <use xlink:href="#n"/>
                    </mask>
                    <path stroke="#FFF" stroke-linecap="round" stroke-linejoin="round" stroke-width="1.5" d="M17.19 4.5L26.568 18" mask="url(#o)"/>
                </g>
                <g transform="translate(138.506 42.5)">
                    <mask id="q" fill="#fff">
                        <use xlink:href="#p"/>
                    </mask>
                    <path fill="#5685F1" d="M9.377 13.5l17.386 4.172c.777.186 1.281.906 1.168 1.667l-1.133 7.61c-.122.82-.913 1.39-1.768 1.273a1.623 1.623 0 0 1-.067-.01L3.068 24.27c-.836-.15-1.393-.915-1.253-1.721l1.142-6.58a1.526 1.526 0 0 1 1.163-1.209L9.377 13.5z" mask="url(#q)"/>
                </g>
                <g transform="translate(138.506 42.5)">
                    <mask id="s" fill="#fff">
                        <use xlink:href="#r"/>
                    </mask>
                    <path fill="#FFF" d="M22.139 20.134a.53.53 0 0 0-.51.424l-.262 1.724a.794.794 0 0 1-.287.49.832.832 0 0 1-.548.212.603.603 0 0 1-.476-.2.568.568 0 0 1-.137-.49l.158-1.047c.006-.209-.157-.37-.384-.37l-.595.005a.535.535 0 0 0-.499.376l-.163 1.046a.787.787 0 0 1-.288.495.828.828 0 0 1-.538.207.609.609 0 0 1-.48-.204.566.566 0 0 1-.142-.487l.351-2.288a.524.524 0 0 0-.31-.547l-2.664-1.037c-.165-.063-.354.083-.42.324l-.158.576a.521.521 0 0 0 .317.606l1.676.649-.265 1.728c-.09.58.05 1.074.417 1.483.367.408.855.61 1.462.605a2.48 2.48 0 0 0 1.539-.55c.367.357.828.532 1.383.528.607-.004 1.157-.214 1.65-.629.495-.414.786-.912.875-1.492l.283-1.856c.024-.16-.156-.288-.4-.286l-.585.005z" mask="url(#s)" transform="rotate(11 18.449 21.421)"/>
                </g>
                <g transform="translate(138.506 42.5)">
                    <mask id="u" fill="#fff">
                        <use xlink:href="#t"/>
                    </mask>
                    <g mask="url(#u)">
                        <g fill-rule="nonzero" transform="translate(14.065 3)">
                            <ellipse cx="2.344" cy="2.25" fill="#C3D4FA" rx="2.344" ry="2.25"/>
                            <ellipse cx="2.344" cy="2.25" fill="#1D4BEA" rx="1" ry="1"/>
                        </g>
                    </g>
                </g>
                <g transform="translate(138.506 42.5)">
                    <mask id="w" fill="#fff">
                        <use xlink:href="#v"/>
                    </mask>
                    <path fill="#FFF" fill-opacity="0" fill-rule="nonzero" d="M8.79 13.55l1.561-.012-.075 10.514-1.56.01z" mask="url(#w)" transform="rotate(10 9.533 18.8)"/>
                </g>
                <g transform="translate(138.506 42.5)">
                    <mask id="y" fill="#fff">
                        <use xlink:href="#x"/>
                    </mask>
                    <path fill="#C3D4FA" fill-rule="nonzero" d="M9.355 16.051L8.213 22.63a1.526 1.526 0 0 1-1.162 1.209l-5.258 1.261L3.445 13.5l4.654.83c.838.15 1.396.915 1.256 1.721z" mask="url(#y)" transform="rotate(180 5.585 19.3)"/>
                </g>
                <path fill="url(#z)" fill-rule="nonzero" d="M48.5 84h80a2.5 2.5 0 0 1 2.5 2.5V135H46V86.5a2.5 2.5 0 0 1 2.5-2.5z" transform="translate(66)"/>
                <path fill="url(#A)" fill-rule="nonzero" d="M58.5 103h27a1.5 1.5 0 0 1 1.5 1.5V135H57v-30.5a1.5 1.5 0 0 1 1.5-1.5zM92.5 103h27a1.5 1.5 0 0 1 1.5 1.5V135H91v-30.5a1.5 1.5 0 0 1 1.5-1.5z" transform="translate(66)"/>
                <g fill-rule="nonzero">
                    <path fill="#FFE557" d="M141.5 111h27a1.5 1.5 0 0 1 1.5 1.5V135h-30v-22.5a1.5 1.5 0 0 1 1.5-1.5z"/>
                    <path fill="url(#B)" d="M1.5 0H21v24H0V1.5A1.5 1.5 0 0 1 1.5 0z" transform="translate(140 111)"/>
                    <g fill="#FFF" transform="translate(152.75 128.25)">
                        <path d="M0 0h6v3H0z"/>
                        <rect width="6" height="1" y="3.75" rx=".375"/>
                    </g>
                    <path fill="#F0B616" d="M146 111h9v4.5l-1.488-.75-1.512.75-1.5-.75-1.5.75-1.5-.75-1.5.75z"/>
                    <path fill="#FFC72C" d="M165.5 111.75h.75V135h-.75z"/>
                    <path fill="#F0B616" d="M164 111h3v4.5l-1.5-.75-1.5.75z"/>
                    <g>
                        <path fill="#FFE557" d="M175.5 111h27a1.5 1.5 0 0 1 1.5 1.5V135h-30v-22.5a1.5 1.5 0 0 1 1.5-1.5z"/>
                        <path fill="url(#B)" d="M1.5 0H21v24H0V1.5A1.5 1.5 0 0 1 1.5 0z" transform="translate(174 111)"/>
                        <g fill="#FFF" transform="translate(186.75 128.25)">
                            <path d="M0 0h6v3H0z"/>
                            <rect width="6" height="1" y="3.75" rx=".375"/>
                        </g>
                        <path fill="#F0B616" d="M180 111h9v4.5l-1.488-.75-1.512.75-1.5-.75-1.5.75-1.5-.75-1.5.75z"/>
                        <path fill="#FFC72C" d="M199.5 111.75h.75V135h-.75z"/>
                        <path fill="#F0B616" d="M198 111h3v4.5l-1.5-.75-1.5.75z"/>
                    </g>
                    <g>
                        <path fill="#FFE557" d="M107.5 111h27a1.5 1.5 0 0 1 1.5 1.5V135h-30v-22.5a1.5 1.5 0 0 1 1.5-1.5z"/>
                        <path fill="url(#B)" d="M1.5 0H21v24H0V1.5A1.5 1.5 0 0 1 1.5 0z" transform="translate(106 111)"/>
                        <g fill="#FFF" transform="translate(118.75 128.25)">
                            <path d="M0 0h6v3H0z"/>
                            <rect width="6" height="1" y="3.75" rx=".375"/>
                        </g>
                        <path fill="#F0B616" d="M112 111h9v4.5l-1.488-.75-1.512.75-1.5-.75-1.5.75-1.5-.75-1.5.75z"/>
                        <path fill="#FFC72C" d="M131.5 111.75h.75V135h-.75z"/>
                        <path fill="#F0B616" d="M130 111h3v4.5l-1.5-.75-1.5.75z"/>
                    </g>
                </g>
                <path fill="url(#C)" fill-rule="nonzero" d="M151 78.75L88.75 25 26 78.75V69l62.75-54L151 69z" transform="translate(66)"/>
                <path fill="url(#D)" fill-rule="nonzero" d="M165.296 82.384L88.75 15 11.496 82.402a5.677 5.677 0 0 1-7.746-.264 4.985 4.985 0 0 1 .225-7.26L88.75 0l84.066 74.861a5.005 5.005 0 0 1 .21 7.277 5.652 5.652 0 0 1-7.73.246z" transform="translate(66)"/>
                <g>
                    <g transform="matrix(-1 0 0 1 315 66)">
                        <mask id="F" fill="#fff">
                            <use xlink:href="#E"/>
                        </mask>
                        <use fill="#FFF" xlink:href="#E"/>
                        <use fill="#FFA39E" fill-opacity=".24" xlink:href="#E"/>
                        <g mask="url(#F)">
                            <path fill="url(#G)" d="M9.174 59.016c-.016 4.024.05 7.941.18 11.745h36.42l1.47-2.706 2.358-9.022v-5.625c0-6.193.268-11.874.455-15.402.114-2.121-1.39-3.9-1.39-3.9-2.95-1.521-5.437-2.83-5.437-2.83l-7.706-2.105-8.786-.35-11.76 2.455c-1.276 0-4.763 3.658-4.763 3.658a306.081 306.081 0 0 0-1.04 24.082" transform="translate(1.03 6.94)"/>
                            <path fill="url(#H)" d="M4.101 74.067C-3.223 40.179 14.283 31.27 14.283 31.27s4.853-1.907 12.378 7.237c9.522 11.571 4.64 57.508 4.64 65.333 0 7.824-9.193 6.063-17.124 4.498-7.931-1.564-13.39 0-13.782-.782-.367-.734 3.22-29.583 3.664-33.133l.017-.136.025-.22z" transform="translate(1.03 6.94)"/>
                            <path fill="url(#I)" d="M63.086 76.796a85.17 85.17 0 0 0 2.969 2.024c6.16 4.019 11.416 6.397 11.416 6.397l3.912-9.46c-15.844-5.6-21.321-19.116-24.842-27.031-3.521-7.917-7.042-13.324-7.042-13.324s-5.142-9.792-9.78 4.055c0 0-7.978 14.8-6.213 37.751.752 9.79 3.278 21.063 8.951 33.303 0 0 12.519-6.758 17.018-4.055 4.5 2.703 6.65 2.703 7.238.965.586-1.737-5.196-31.776-5.196-31.776l1.57 1.15z" transform="translate(1.03 6.94)"/>
                            <path fill="#1D4BEA" d="M44.14 12.216c.03-.05.1-.04.114.015.314 1.169 2.49 9.184 3.586 10.996 1.127 1.86 5.652 5.448 4.778 10.84-.083.51-.497.898-.995.995l-2.113.415a.065.065 0 0 1-.077-.051l-.332-1.692s-.562 2.572-1.11 2.496c-.548-.074-5.333 1.387-11.444-.09-5.845-1.413 6.502-22.117 7.593-23.924"/>
                            <path fill="#FFF" d="M36.551 36.114c-.676-4.859-.182-5.35-.182-5.35.601-.478.983-.072 2.604-.296.627-.086 2.23-.307 3.446-1.242 1.127-.867 1.548-2.059 1.826-2.879 1.481-4.369.109-12.236-.078-13.272 0 0-22.819 5.696-20.856 14.37.64 2.825 1.07 4.73 1.362 6.015l3.094 2.3c.614 1.809 2.25 3.08 4.132 3.21 1.978.138 3.853-1.01 4.652-2.856"/>
                            <path fill="#1D4BEA" d="M43.177 21.322c-.004.49.246.89.56.892.312.004.57-.392.574-.882.004-.49-.246-.89-.56-.893-.313-.003-.57.392-.574.883M37.492 21.322c-.004.49.246.89.56.892.312.004.57-.392.574-.882.004-.49-.246-.89-.56-.893-.313-.003-.57.392-.574.883"/>
                            <path stroke="#1D4BEA" stroke-linecap="round" stroke-linejoin="round" stroke-width=".5" d="M44.7 17.468a2.832 2.832 0 0 0-1.513-.233"/>
                            <path fill="#FFE380" d="M32.242 25.282a2.248 2.248 0 1 0 3.803-2.396 2.248 2.248 0 0 0-3.803 2.396M44.38 25.912a4.117 4.117 0 0 1-.29-.369 2.247 2.247 0 0 1 .803-3.16 15.84 15.84 0 0 1-.513 3.529"/>
                            <path fill="#231F20" d="M43.763 11.414s.418.3.651 1.407c.233 1.108-.65-1.407-.65-1.407"/>
                            <path stroke="#1D4BEA" stroke-linecap="round" stroke-linejoin="round" stroke-width=".5" d="M38.798 25.99s.4 1.115 1.836 1.15"/>
                            <path stroke="#231F20" stroke-linecap="round" stroke-linejoin="round" stroke-width=".5" d="M39.208 17.101a3.486 3.486 0 0 0-1.625-.162 3.52 3.52 0 0 0-1.808.826"/>
                            <path stroke="#1D4BEA" stroke-linecap="round" stroke-linejoin="round" stroke-width=".5" d="M40.801 22.383s.368 1.683.152 1.868c-.216.185-.706 0-.706 0"/>
                            <path fill="url(#J)" d="M41.424 3.341S36.891.66 34.998.334C33.106.01 27.253.81 24.988 5.695c-2.263 4.886-1.386 8.024-6.157 10.79-4.77 2.764-5.83 8.46-4.995 9.166.836.708 9.692 3.673 10.68 3.828.989.154 3.303-.039 3.578-2.183.277-2.145-1.115-6.575 1.202-7.64 2.317-1.064 4.27-3.537 4.114-6.555 0 0 5.953-.733 8.377-3.473 2.423-2.74 1.717-5.127-.363-6.287" transform="translate(1.03 6.94)"/>
                            <path stroke="#FFD560" stroke-linecap="round" stroke-linejoin="round" stroke-width=".773" d="M28.065 36.373c.92 1.616 2.65 2.597 4.452 2.494 1.712-.098 3.256-1.161 4.034-2.753"/>
                        </g>
                        <g fill-rule="nonzero" mask="url(#F)">
                            <path fill="#FFE557" d="M22 49h24v14H22z"/>
                            <path fill="url(#K)" d="M0 0h16v14H0z" transform="translate(22 49)"/>
                            <g fill="#FFF" transform="translate(32.8 59.055)">
                                <path d="M0 0h3.2v1.618H0z"/>
                                <rect width="3.2" height="1" y="2.023" rx=".2"/>
                            </g>
                            <path fill="#F0B616" d="M27 49h6v4l-.992-.4L31 53l-1-.4-1 .4-1-.4-1 .4zM39 49h2v4.046l-1-.405-1 .405z"/>
                        </g>
                        <g mask="url(#F)">
                            <path fill="#2FB7EC" d="M16 61.51L12.561 63l2.983 6.38L18.545 65z"/>
                            <path fill="#FFF" fill-rule="nonzero" d="M25.997 59.548c-1.57-.18-3.141-.363-4.715-.505-.46-.043-1.006-.105-1.383.105-1.325.737-2.61 1.552-3.899 2.363A10.942 10.942 0 0 0 18.545 65c.79-.396 1.624-.607 2.575-.557 1.973.103 2.79.039 4.77.039 1.172 0 2.208-.494 3.11-1.482h-3c-1.125 0-1.728-1.024-2.155-1.251l.032-.329c.672.077 1.342.16 2.013.23.34.037 1.396-.14 1.815-.488.144-.12.116-.28.129-.434.044-.55-1.459-1.138-1.837-1.18z"/>
                        </g>
                        <g mask="url(#F)">
                            <path fill="#2FB7EC" d="M49.561 61.51L53 63l-2.983 6.38-3-4.38z"/>
                            <path fill="#FFF" fill-rule="nonzero" d="M39.564 59.548c1.57-.18 3.141-.363 4.715-.505.46-.043 1.007-.105 1.383.105 1.325.737 2.61 1.552 3.9 2.363A10.942 10.942 0 0 1 47.015 65c-.79-.396-1.624-.607-2.574-.557-1.974.103-2.79.039-4.771.039-1.172 0-2.208-.494-3.11-1.482h3c1.125 0 1.728-1.024 2.155-1.251-.011-.11-.02-.22-.032-.329-.672.077-1.342.16-2.013.23-.34.037-1.396-.14-1.815-.488-.144-.12-.116-.28-.128-.434-.045-.55 1.458-1.138 1.836-1.18z"/>
                        </g>
                    </g>
                    <path fill="url(#L)" fill-rule="nonzero" d="M55.173 3.158c-.982 0-1.837.521-2.308 1.298a2.694 2.694 0 0 0-2.308-1.298c-1.487 0-2.692 1.194-2.692 2.666 0 2.834 5 5.334 5 5.334s5-2.5 5-5.334c0-1.472-1.205-2.666-2.692-2.666z" transform="scale(-1 1) rotate(15 -355.295 -1156.173)"/>
                </g>
                <rect width="168" height="4" x="66" y="135" fill="url(#M)" fill-rule="nonzero" rx="2"/>
                <path fill="#CEF2FD" fill-rule="nonzero" d="M32 39h10a4 4 0 0 1 4 4H28a4 4 0 0 1 4-4z"/>
            </g>
            <path fill="#5685F1" fill-opacity=".6" fill-rule="nonzero" d="M160.5 124h80a2.5 2.5 0 0 1 2.5 2.5v2.5h-85v-2.5a2.5 2.5 0 0 1 2.5-2.5z"/>
        </g>
    </g>
</svg>
