<svg xmlns="http://www.w3.org/2000/svg" xmlns:xlink="http://www.w3.org/1999/xlink" width="400" height="200" viewBox="0 0 400 200">
    <defs>
        <path id="a" d="M0 0h400v200H0z"/>
        <ellipse id="c" cx="15.628" cy="15" rx="15.628" ry="15"/>
        <ellipse id="e" cx="15.628" cy="15" rx="15.628" ry="15"/>
        <ellipse id="g" cx="15.628" cy="15" rx="15.628" ry="15"/>
        <ellipse id="i" cx="15.628" cy="15" rx="15.628" ry="15"/>
        <ellipse id="k" cx="15.628" cy="15" rx="15.628" ry="15"/>
        <ellipse id="m" cx="15.628" cy="15" rx="15.628" ry="15"/>
        <ellipse id="o" cx="15.628" cy="15" rx="15.628" ry="15"/>
        <ellipse id="q" cx="15.628" cy="15" rx="15.628" ry="15"/>
        <ellipse id="s" cx="15.628" cy="15" rx="15.628" ry="15"/>
        <ellipse id="u" cx="15.628" cy="15" rx="15.628" ry="15"/>
        <ellipse id="w" cx="15.628" cy="15" rx="15.628" ry="15"/>
        <linearGradient id="y" x1="50%" x2="50%" y1="0%" y2="100%">
            <stop offset="0%" stop-color="#C3D4FA"/>
            <stop offset="100%" stop-color="#5685F1" stop-opacity=".2"/>
        </linearGradient>
        <linearGradient id="z" x1="0%" x2="74.281%" y1="46.281%" y2="53.719%">
            <stop offset="0%" stop-color="#EEF2F5"/>
            <stop offset="100%" stop-color="#AFC7D1" stop-opacity=".8"/>
        </linearGradient>
        <linearGradient id="A" x1="0%" y1="0%" y2="100%">
            <stop offset="0%" stop-color="#2FB7EC"/>
            <stop offset="100%" stop-color="#4A90E2"/>
        </linearGradient>
        <linearGradient id="B" x1="0%" y1="46.281%" y2="53.719%">
            <stop offset="0%" stop-color="#CEF2FD"/>
            <stop offset="100%" stop-color="#CEF2FD"/>
        </linearGradient>
        <linearGradient id="C" x1="100%" x2="0%" y1="0%" y2="100%">
            <stop offset="0%" stop-color="#8BDCFB"/>
            <stop offset="100%" stop-color="#8BDCFB"/>
        </linearGradient>
        <linearGradient id="D" x1="11.719%" x2="88.281%" y1="0%" y2="100%">
            <stop offset="0%" stop-color="#FFE557"/>
            <stop offset="100%" stop-color="#FFC72C"/>
        </linearGradient>
        <linearGradient id="E" x1="50%" x2="50%" y1="100%" y2="0%">
            <stop offset="0%" stop-color="#5685F1"/>
            <stop offset="100%" stop-color="#326BEE"/>
        </linearGradient>
        <linearGradient id="F" x1="100%" x2="0%" y1="78.125%" y2="21.875%">
            <stop offset="0%" stop-color="#CEF2FD"/>
            <stop offset="100%" stop-color="#8BDCFB"/>
        </linearGradient>
        <linearGradient id="G" x1="53.125%" x2="46.875%" y1="100%" y2="0%">
            <stop offset="0%" stop-color="#CEF2FD"/>
            <stop offset="100%" stop-color="#8BDCFB"/>
        </linearGradient>
        <linearGradient id="H" x1="100%" x2="0%" y1="77.506%" y2="18%">
            <stop offset="0%" stop-color="#2FB7EC"/>
            <stop offset="100%" stop-color="#326BEE"/>
        </linearGradient>
        <linearGradient id="I" x1="100%" x2="0%" y1="82%" y2="18%">
            <stop offset="0%" stop-color="#CEF2FD"/>
            <stop offset="100%" stop-color="#8BDCFB"/>
        </linearGradient>
        <linearGradient id="J" x1="0%" x2="0%" y1="100%" y2="0%">
            <stop offset="0%" stop-color="#FFE557"/>
            <stop offset="100%" stop-color="#FFC72C"/>
        </linearGradient>
        <linearGradient id="K" x1="100%" x2="0%" y1="50.465%" y2="49.535%">
            <stop offset="0%" stop-color="#F0B616" stop-opacity=".4"/>
            <stop offset="100%" stop-color="#FFD560"/>
        </linearGradient>
        <linearGradient id="L" x1="50%" x2="50%" y1="0%" y2="100%">
            <stop offset="0%" stop-color="#CEF2FD"/>
            <stop offset="100%" stop-color="#CEF2FD"/>
        </linearGradient>
        <linearGradient id="M" x1="47.19%" x2="52.81%" y1="100%" y2="0%">
            <stop offset="0%" stop-color="#8BDCFB"/>
            <stop offset="100%" stop-color="#CEF2FD"/>
        </linearGradient>
        <linearGradient id="N" x1="0%" y1="0%" y2="0%">
            <stop offset="0%" stop-color="#AFC7D1" stop-opacity=".6"/>
            <stop offset="100%" stop-color="#7790A3" stop-opacity=".28"/>
        </linearGradient>
        <linearGradient id="O" x1="0%" y1="28.35%" y2="71.65%">
            <stop offset="0%" stop-color="#2F88EC"/>
            <stop offset="100%" stop-color="#2FB7EC"/>
        </linearGradient>
        <path id="P" d="M26.25 43.657c0-4.892 3.918-8.858 8.75-8.858s8.75 3.966 8.75 8.858H42.5c0-4.193-3.358-7.592-7.5-7.592-4.142 0-7.5 3.4-7.5 7.592h-1.25z"/>
        <path id="Q" d="M76.25 43.657c0-4.892 3.918-8.858 8.75-8.858s8.75 3.966 8.75 8.858H92.5c0-4.193-3.358-7.592-7.5-7.592-4.142 0-7.5 3.4-7.5 7.592h-1.25z"/>
        <linearGradient id="R" x1="0%" y1="61.806%" y2="38.194%">
            <stop offset="0%" stop-color="#CEF2FD"/>
            <stop offset="100%" stop-color="#8BDCFB"/>
        </linearGradient>
        <linearGradient id="S" x1="66.84%" x2="77.222%" y1="61.875%" y2="16.172%">
            <stop offset="0%" stop-color="#CEF2FD" stop-opacity=".1"/>
            <stop offset="100%" stop-color="#2FB7EC" stop-opacity=".4"/>
        </linearGradient>
        <linearGradient id="T" x1="0%" x2="0%" y1="100%" y2="0%">
            <stop offset="0%" stop-color="#FABF86"/>
            <stop offset="100%" stop-color="#F8AB60"/>
        </linearGradient>
    </defs>
    <g fill="none" fill-rule="evenodd">
        <mask id="b" fill="#fff">
            <use xlink:href="#a"/>
        </mask>
        <use fill="#D8D8D8" fill-opacity="0" xlink:href="#a"/>
        <g fill="#EEF2F5" fill-rule="nonzero" mask="url(#b)">
            <path d="M338 98.5h20a5 5 0 0 1 5 5V166h-30v-62.5a5 5 0 0 1 5-5zM343 93.5h10a5 5 0 0 1 5 5h-20a5 5 0 0 1 5-5zM348 83.5c.69 0 1.25.56 1.25 1.25v8.75h-2.5v-8.75c0-.69.56-1.25 1.25-1.25zM43 132.25h15V166H38v-28.75a5 5 0 0 1 5-5zM303 116h15a5 5 0 0 1 5 5v45h-25v-45a5 5 0 0 1 5-5z"/>
            <path d="M95.5 136H363v30H95.5zM70.5 106h20a5 5 0 0 1 5 5v55h-30v-55a5 5 0 0 1 5-5zM295.5 116h30v5h-30zM58 120.268v11.982H43l12.866-12.866a1.25 1.25 0 0 1 2.134.884z"/>
        </g>
        <g mask="url(#b)">
            <g transform="translate(63 31)">
                <path fill="#C3D4FA" fill-rule="nonzero" d="M130 68.75L192.5 15 255 68.75V135H130z"/>
                <ellipse cx="15.628" cy="15" fill="#1D4BEA" rx="15.628" ry="15" transform="translate(176.256 42.5)"/>
                <g transform="translate(176.256 42.5)">
                    <mask id="d" fill="#fff">
                        <use xlink:href="#c"/>
                    </mask>
                    <path fill="#C3D4FA" d="M15.584-4.81l12.25-.252L23.3 6.566l-4.332.089z" mask="url(#d)" transform="rotate(45 21.71 .796)"/>
                </g>
                <g transform="translate(176.256 42.5)">
                    <mask id="f" fill="#fff">
                        <use xlink:href="#e"/>
                    </mask>
                    <path fill="#C3D4FA" d="M27.633-1.462l2.06 1.977V1.2L18.753 6l-.488-.469z" mask="url(#f)"/>
                </g>
                <g transform="translate(176.256 42.5)">
                    <mask id="h" fill="#fff">
                        <use xlink:href="#g"/>
                    </mask>
                    <path stroke="#5685F1" stroke-linecap="round" stroke-linejoin="round" stroke-width="1.5" d="M11.72 15l5.47-10.5" mask="url(#h)"/>
                </g>
                <g transform="translate(176.256 42.5)">
                    <mask id="j" fill="#fff">
                        <use xlink:href="#i"/>
                    </mask>
                    <path stroke="#FFF" stroke-linecap="round" stroke-linejoin="round" stroke-width="1.5" d="M4.688 15L17.191 4.5" mask="url(#j)"/>
                </g>
                <g transform="translate(176.256 42.5)">
                    <mask id="l" fill="#fff">
                        <use xlink:href="#k"/>
                    </mask>
                    <path stroke="#5685F1" stroke-linecap="round" stroke-linejoin="round" stroke-width="1.5" d="M17.19 4.5l3.126 12" mask="url(#l)"/>
                </g>
                <g transform="translate(176.256 42.5)">
                    <mask id="n" fill="#fff">
                        <use xlink:href="#m"/>
                    </mask>
                    <path stroke="#FFF" stroke-linecap="round" stroke-linejoin="round" stroke-width="1.5" d="M17.19 4.5L26.568 18" mask="url(#n)"/>
                </g>
                <g transform="translate(176.256 42.5)">
                    <mask id="p" fill="#fff">
                        <use xlink:href="#o"/>
                    </mask>
                    <path fill="#5685F1" d="M9.377 13.5l17.386 4.172c.777.186 1.281.906 1.168 1.667l-1.133 7.61c-.122.82-.913 1.39-1.768 1.273a1.623 1.623 0 0 1-.067-.01L3.068 24.27c-.836-.15-1.393-.915-1.253-1.721l1.142-6.58a1.526 1.526 0 0 1 1.163-1.209L9.377 13.5z" mask="url(#p)"/>
                </g>
                <g transform="translate(176.256 42.5)">
                    <mask id="r" fill="#fff">
                        <use xlink:href="#q"/>
                    </mask>
                    <path fill="#FFF" d="M22.139 20.134a.53.53 0 0 0-.51.424l-.262 1.724a.794.794 0 0 1-.287.49.832.832 0 0 1-.548.212.603.603 0 0 1-.476-.2.568.568 0 0 1-.137-.49l.158-1.047c.006-.209-.157-.37-.384-.37l-.595.005a.535.535 0 0 0-.499.376l-.163 1.046a.787.787 0 0 1-.288.495.828.828 0 0 1-.538.207.609.609 0 0 1-.48-.204.566.566 0 0 1-.142-.487l.351-2.288a.524.524 0 0 0-.31-.547l-2.664-1.037c-.165-.063-.354.083-.42.324l-.158.576a.521.521 0 0 0 .317.606l1.676.649-.265 1.728c-.09.58.05 1.074.417 1.483.367.408.855.61 1.462.605a2.48 2.48 0 0 0 1.539-.55c.367.357.828.532 1.383.528.607-.004 1.157-.214 1.65-.629.495-.414.786-.912.875-1.492l.283-1.856c.024-.16-.156-.288-.4-.286l-.585.005z" mask="url(#r)" transform="rotate(11 18.449 21.421)"/>
                </g>
                <g transform="translate(176.256 42.5)">
                    <mask id="t" fill="#fff">
                        <use xlink:href="#s"/>
                    </mask>
                    <g mask="url(#t)">
                        <g fill-rule="nonzero" transform="translate(14.065 3)">
                            <ellipse cx="2.344" cy="2.25" fill="#C3D4FA" rx="2.344" ry="2.25"/>
                            <ellipse cx="2.344" cy="2.25" fill="#1D4BEA" rx="1" ry="1"/>
                        </g>
                    </g>
                </g>
                <g transform="translate(176.256 42.5)">
                    <mask id="v" fill="#fff">
                        <use xlink:href="#u"/>
                    </mask>
                    <path fill="none" d="M8.79 13.55l1.561-.012-.075 10.514-1.56.01z" mask="url(#v)" transform="rotate(10 9.533 18.8)"/>
                </g>
                <g transform="translate(176.256 42.5)">
                    <mask id="x" fill="#fff">
                        <use xlink:href="#w"/>
                    </mask>
                    <path fill="#C3D4FA" fill-rule="nonzero" d="M9.355 16.051L8.213 22.63a1.526 1.526 0 0 1-1.162 1.209l-5.258 1.261L3.445 13.5l4.654.83c.838.15 1.396.915 1.256 1.721z" mask="url(#x)" transform="rotate(180 5.585 19.3)"/>
                </g>
                <path fill="#FFF" fill-rule="nonzero" d="M152.5 80h80a2.5 2.5 0 0 1 2.5 2.5V135h-85V82.5a2.5 2.5 0 0 1 2.5-2.5z"/>
                <path fill="#5685F1" fill-opacity=".6" fill-rule="nonzero" d="M152.5 80h80a2.5 2.5 0 0 1 2.5 2.5V85h-85v-2.5a2.5 2.5 0 0 1 2.5-2.5z"/>
                <path fill="url(#y)" fill-rule="nonzero" d="M255 78.75L192.5 25 130 78.75v-10L192.5 15 255 68.75z"/>
                <g fill-rule="nonzero">
                    <path fill="url(#z)" d="M25 0h25l-2.5 7.5h-25z" transform="rotate(180 95 55)"/>
                    <path fill="#4A90E2" d="M125 110h50v25h-50z"/>
                    <path fill="url(#A)" d="M7.5 7.5h25v25h-25z" transform="translate(117.5 102.5)"/>
                    <path fill="url(#B)" d="M7.5 0h25L30 7.5H5z" transform="matrix(1 0 0 -1 117.5 110)"/>
                    <path fill="url(#C)" d="M7.5 7.5V15H0z" transform="translate(117.5 102.5)"/>
                    <path fill="#8BDCFB" d="M140 127.5h10v3.75h-10z"/>
                    <path fill="#2FB7EC" d="M150 127.5h2.5v3.75H150z"/>
                    <path fill="#FFE557" d="M162.5 95h45a2.5 2.5 0 0 1 2.5 2.5V135h-50V97.5a2.5 2.5 0 0 1 2.5-2.5z"/>
                    <path fill="url(#D)" d="M45 0h32.5v40h-35V2.5A2.5 2.5 0 0 1 45 0z" transform="translate(117.5 95)"/>
                    <g fill="#FFF" transform="translate(181.25 123.75)">
                        <path d="M0 0h10v5H0z"/>
                        <rect width="10" height="1.25" y="6.25" rx=".625"/>
                    </g>
                    <path fill="#F0B616" d="M170 95h15v7.5l-2.48-1.25-2.52 1.25-2.5-1.25-2.5 1.25-2.5-1.25-2.5 1.25z"/>
                    <path fill="#FFC72C" d="M202.5 96.25h1.25V135h-1.25z"/>
                    <path fill="#F0B616" d="M200 95h5v7.5l-2.5-1.25-2.5 1.25z"/>
                </g>
                <path fill="url(#E)" fill-rule="nonzero" d="M269.046 82.384L192.5 15l-77.254 67.402a5.677 5.677 0 0 1-7.746-.264 4.985 4.985 0 0 1 .225-7.26L192.5 0l84.066 74.861a5.005 5.005 0 0 1 .21 7.277 5.652 5.652 0 0 1-7.73.246z"/>
                <path fill="url(#F)" fill-rule="nonzero" d="M210 120h20v15h-20z"/>
                <path fill="url(#G)" fill-rule="nonzero" d="M226.25 120H230v15h-3.75z"/>
                <path fill="url(#H)" fill-rule="nonzero" d="M107.5 125H120v10h-12.5z"/>
                <path fill="#8BDCFB" fill-rule="nonzero" d="M111.25 125h5v2.5h-5z"/>
                <path fill="url(#I)" fill-rule="nonzero" d="M230 125h12.5v10H230z"/>
                <path fill="#2FB7EC" fill-rule="nonzero" d="M233.75 125h5v2.5h-5zM213.75 120h10v5l-2.5-1.25-2.065 1.25-2.935-1.25-2.5 1.25z"/>
                <g transform="matrix(-1 0 0 1 98.75 83.75)">
                    <path fill="#CEF2FD" fill-rule="nonzero" d="M21.724 15.185c-1.724 0-3.129-1.5-3.168-3.358h7.15c.528 0 .956-.465.956-1.038s-.428-1.037-.957-1.037h-8.11c-1.748 0-3.171-1.543-3.171-3.438v-.4h5.608c.528 0 .957-.465.957-1.038 0-.574-.429-1.038-.957-1.038H13.17C11.423 3.838 10 2.296 10 .401V0h21.122c2.86 0 5.186 2.521 5.186 5.62v2.407c0 2.114 1.526 3.819 3.475 3.881.823.027 1.467.747 1.467 1.638 0 .905-.678 1.64-1.512 1.64H21.724z"/>
                    <path fill="#FFE557" fill-rule="nonzero" d="M72.5 38.596v5.061H21.25c-.69 0-1.25-.56-1.25-1.25v-2.561c0-.69.56-1.25 1.25-1.25h1.25V5.664a2.5 2.5 0 0 1 2.5-2.5h45a2.5 2.5 0 0 1 2.5 2.5v32.932z"/>
                    <path fill="url(#J)" fill-rule="nonzero" d="M45 3.164h17.5l10 35.432h-30V5.664a2.5 2.5 0 0 1 2.5-2.5z" transform="matrix(-1 0 0 1 115 0)"/>
                    <path fill="url(#K)" fill-rule="nonzero" d="M21.25 38.596H72.5v5.061H21.25c-.69 0-1.25-.56-1.25-1.25v-2.561c0-.69.56-1.25 1.25-1.25z"/>
                    <path fill="url(#L)" fill-rule="nonzero" d="M97.5 43.657h-25V12.022h11.521a1.25 1.25 0 0 1 1.214.95l2.265 9.173 9.418 5.96c.362.228.582.627.582 1.056v9.435c.69 0 1.25.566 1.25 1.265v2.531c0 .699-.56 1.265-1.25 1.265z"/>
                    <path fill="#FFE557" fill-rule="nonzero" d="M16.258 33.534H22.5v1.265h-6.242a.633.633 0 1 1 0-1.265z"/>
                    <g fill="#FFE557" fill-rule="nonzero" transform="translate(17.5 29.738)">
                        <path d="M2.508 0H5v1.265H2.508a.633.633 0 1 1 0-1.265z"/>
                        <rect width="1.25" height="1.265" rx=".625"/>
                    </g>
                    <path fill="#FABF86" d="M57.27 22.024c0-1.06-.847-1.944-1.863-1.944l-2.474-.212-1.156-3.782c-.034-.035-.034-.07-.068-.106a1.824 1.824 0 0 0-1.525-.813h-9.846c-.949 0-1.467 1.062-1.568 1.98H35.07c-.406 0-.745.354-.745.778 0 .424.339.777.745.777h3.646c.373.07.644.389.644.778 0 .424-.339.777-.745.777h-1.804c-.407 0-.746.353-.746.777 0 .425.339.778.746.778h3.307c.407 0 .746.353.746.777 0 .424-.339.778-.745.778h-1.74a.781.781 0 0 0-.803.777c0 .424.34.778.746.778h1.104c-.474.106-.813.565-.813 1.095v1.413c0 .601.474 1.131 1.084 1.131h1.13c.338 1.237 1.457 2.156 2.744 2.156 1.322 0 2.406-.919 2.745-2.156h4.074c.339 1.237 1.457 2.156 2.745 2.156 1.322 0 2.406-.919 2.745-2.156h1.322c.576 0 1.084-.495 1.084-1.13v-1.414c-.068-.636-.508-1.13-1.016-1.166v-2.827z"/>
                    <path fill="url(#M)" fill-rule="nonzero" d="M72.5 12.022H80v31.635h-7.5z"/>
                    <path fill="#8BDCFB" d="M75.625 23.41h3.75c.345 0 .625.28.625.625v.649c0 .345-.28.625-.625.625h-3.75a.625.625 0 0 1-.625-.625v-.649c0-.345.28-.625.625-.625z"/>
                    <path fill="url(#N)" fill-rule="nonzero" d="M72.5 38.596h25c.69 0 1.25.56 1.25 1.25v2.561c0 .69-.56 1.25-1.25 1.25h-25v-5.061z"/>
                    <ellipse cx="35" cy="43.657" fill="#AFC7D1" fill-rule="nonzero" rx="7.5" ry="7.593"/>
                    <ellipse cx="85" cy="43.657" fill="#AFC7D1" fill-rule="nonzero" rx="7.5" ry="7.593"/>
                    <ellipse cx="85" cy="43.657" fill="#7790A3" fill-rule="nonzero" rx="2.5" ry="2.531"/>
                    <ellipse cx="35" cy="43.657" fill="#7790A3" fill-rule="nonzero" rx="2.5" ry="2.531"/>
                    <path fill="url(#O)" fill-rule="nonzero" d="M76.25 13.92h9.22l2.03 8.225H76.25c-.69 0-1.25-.56-1.25-1.25V15.17c0-.69.56-1.25 1.25-1.25z"/>
                    <g fill-rule="nonzero">
                        <use fill="#FFF" xlink:href="#P"/>
                        <use fill="#7790A3" fill-opacity=".8" xlink:href="#P"/>
                    </g>
                    <g fill-rule="nonzero">
                        <use fill="#FFF" xlink:href="#Q"/>
                        <use fill="#7790A3" fill-opacity=".8" xlink:href="#Q"/>
                    </g>
                    <path fill="url(#R)" fill-rule="nonzero" d="M11.724 24.676c-1.724 0-3.129-1.5-3.168-3.358h7.15c.528 0 .956-.465.956-1.038s-.428-1.037-.957-1.037h-8.11c-1.748 0-3.171-1.543-3.171-3.438v-.401h6.858c.528 0 .957-.464.957-1.038 0-.573-.429-1.037-.957-1.037H3.17C1.423 13.329 0 11.787 0 9.892V9.49h21.122c2.86 0 5.186 2.521 5.186 5.62v2.407c0 2.114 1.526 3.818 3.475 3.88.823.028 1.467.747 1.467 1.639 0 .904-.678 1.639-1.512 1.639H11.724z"/>
                    <path fill="url(#S)" d="M87.5 22.145h-10l2.061-8.225h5.642z" transform="matrix(-1 0 0 1 165 0)"/>
                    <path fill="url(#T)" fill-rule="nonzero" d="M44.805 30.428l4.307-15.26h1.072c.644 0 1.186.317 1.525.812.034.035.034.07.068.106l1.156 3.782 2.474.212c1.016 0 1.864.884 1.864 1.944v2.827c.508.035.948.53 1.016 1.166v1.413c0 .636-.508 1.131-1.084 1.131H55.88c-.339 1.237-1.423 2.156-2.745 2.156-1.288 0-2.406-.919-2.745-2.156h-4.074a2.948 2.948 0 0 1-1.512 1.867z"/>
                </g>
                <rect width="10" height="2.5" x="82.5" y="122.5" fill="#FFE557" fill-rule="nonzero" rx="1.25"/>
                <rect width="2.5" height="2.5" x="93.75" y="122.5" fill="#FFE557" fill-rule="nonzero" rx="1.25"/>
            </g>
        </g>
    </g>
</svg>
