<?xml version="1.0" encoding="UTF-8"?>
<svg width="400px" height="200px" viewBox="0 0 400 200" version="1.1" xmlns="http://www.w3.org/2000/svg" xmlns:xlink="http://www.w3.org/1999/xlink">
    <!-- Generator: sketchtool 58 (101010) - https://sketch.com -->
    <title>25C89BBB-8F13-4E6F-B760-EDC3C2013BAA</title>
    <desc>Created with sketchtool.</desc>
    <defs>
        <rect id="path-1" x="0" y="0" width="400" height="200"></rect>
        <linearGradient x1="13.2653061%" y1="0%" x2="86.7346939%" y2="100%" id="linearGradient-3">
            <stop stop-color="#2F88EC" offset="0%"></stop>
            <stop stop-color="#2FB7EC" offset="100%"></stop>
        </linearGradient>
        <linearGradient x1="50%" y1="100%" x2="50%" y2="0%" id="linearGradient-4">
            <stop stop-color="#8CACF6" offset="0%"></stop>
            <stop stop-color="#376EEE" offset="100%"></stop>
        </linearGradient>
        <polygon id="path-5" points="0 0 16 0 16 16 0 16"></polygon>
        <polygon id="path-7" points="0 0 16 0 16 16 0 16"></polygon>
        <polygon id="path-9" points="0 0 16 0 16 16 0 16"></polygon>
    </defs>
    <g id="T141449_FBW-inventory-page-redesign_V5" stroke="none" stroke-width="1" fill="none" fill-rule="evenodd">
        <g id="01_Inventory_warehouse-tab" transform="translate(-1160.000000, -96.000000)">
            <rect fill="#F8FAFB" x="0" y="0" width="1680" height="1500"></rect>
            <rect id="Rectangle" fill="#FFFFFF" fill-rule="nonzero" x="0" y="96" width="1680" height="200"></rect>
            <g id="Header-illustration" transform="translate(1160.000000, 96.000000)">
                <mask id="mask-2" fill="white">
                    <use xlink:href="#path-1"></use>
                </mask>
                <use id="Mask" fill-opacity="0" fill="#D8D8D8" xlink:href="#path-1"></use>
                <g id="Group-3" mask="url(#mask-2)">
                    <g transform="translate(53.000000, 29.500000)">
                        <path d="M167,82 L167,83 L165,83 L165,82 L167,82 Z M171,82 L171,83 L169,83 L169,82 L171,82 Z M175,82 L175,83 L173,83 L173,82 L175,82 Z M179,82 L179,83 L177,83 L177,82 L179,82 Z M183,82 L183,83 L181,83 L181,82 L183,82 Z M187,82 L187,83 L185,83 L185,82 L187,82 Z M191,82 L191,83 L189,83 L189,82 L191,82 Z M195,82 L195,83 L193,83 L193,82 L195,82 Z M199,82 L199,83 L197,83 L197,82 L199,82 Z M203,82 L203,83 L201,83 L201,82 L203,82 Z M207,82 L207,83 L205,83 L205,82 L207,82 Z M211,82 L211,83 L209,83 L209,82 L211,82 Z M215,82 L215,83 L213,83 L213,82 L215,82 Z M219,82 L219,83 L217,83 L217,82 L219,82 Z M223,82 L223,83 L221,83 L221,82 L223,82 Z M227,82 L227,83 L225,83 L225,82 L227,82 Z M230.499586,84.4541569 L229.499749,84.4722072 C229.489987,83.931434 229.191585,83.445089 228.725879,83.1869116 L229.210735,82.3123178 C229.985746,82.7419673 230.483316,83.552923 230.499586,84.4541569 Z M230.5,88.4385325 L229.5,88.4385325 L229.5,86.4385325 L230.5,86.4385325 L230.5,88.4385325 Z M230.5,92.4385325 L229.5,92.4385325 L229.5,90.4385325 L230.5,90.4385325 L230.5,92.4385325 Z M230.5,96.4385325 L229.5,96.4385325 L229.5,94.4385325 L230.5,94.4385325 L230.5,96.4385325 Z M230.5,100.438533 L229.5,100.438533 L229.5,98.4385325 L230.5,98.4385325 L230.5,100.438533 Z M230.5,104.438533 L229.5,104.438533 L229.5,102.438533 L230.5,102.438533 L230.5,104.438533 Z M230.5,108.438533 L229.5,108.438533 L229.5,106.438533 L230.5,106.438533 L230.5,108.438533 Z M230.5,112.438533 L229.5,112.438533 L229.5,110.438533 L230.5,110.438533 L230.5,112.438533 Z M230.5,116.438533 L229.5,116.438533 L229.5,114.438533 L230.5,114.438533 L230.5,116.438533 Z M230.5,120.438533 L229.5,120.438533 L229.5,118.438533 L230.5,118.438533 L230.5,120.438533 Z M230.5,124.438533 L229.5,124.438533 L229.5,122.438533 L230.5,122.438533 L230.5,124.438533 Z M230.5,128.438533 L229.5,128.438533 L229.5,126.438533 L230.5,126.438533 L230.5,128.438533 Z M230.5,132.438533 L229.5,132.438533 L229.5,130.438533 L230.5,130.438533 L230.5,132.438533 Z M228.124836,135.996926 L228.075557,134.998141 C228.614172,134.971566 229.092121,134.657778 229.335436,134.184014 L230.22498,134.640865 C229.819868,135.429667 229.023368,135.952594 228.124836,135.996926 Z M224.122935,136 L224.122935,135 L226.122935,135 L226.122935,136 L224.122935,136 Z M220.122935,136 L220.122935,135 L222.122935,135 L222.122935,136 L220.122935,136 Z M216.122935,136 L216.122935,135 L218.122935,135 L218.122935,136 L216.122935,136 Z M212.122935,136 L212.122935,135 L214.122935,135 L214.122935,136 L212.122935,136 Z M208.122935,136 L208.122935,135 L210.122935,135 L210.122935,136 L208.122935,136 Z M204.122935,136 L204.122935,135 L206.122935,135 L206.122935,136 L204.122935,136 Z M200.122935,136 L200.122935,135 L202.122935,135 L202.122935,136 L200.122935,136 Z M196.122935,136 L196.122935,135 L198.122935,135 L198.122935,136 L196.122935,136 Z M192.122935,136 L192.122935,135 L194.122935,135 L194.122935,136 L192.122935,136 Z M188.122935,136 L188.122935,135 L190.122935,135 L190.122935,136 L188.122935,136 Z M184.122935,136 L184.122935,135 L186.122935,135 L186.122935,136 L184.122935,136 Z M180.122935,136 L180.122935,135 L182.122935,135 L182.122935,136 L180.122935,136 Z M176.122935,136 L176.122935,135 L178.122935,135 L178.122935,136 L176.122935,136 Z M172.122935,136 L172.122935,135 L174.122935,135 L174.122935,136 L172.122935,136 Z M168.122935,136 L168.122935,135 L170.122935,135 L170.122935,136 L168.122935,136 Z M163.929894,135.759915 L164.358351,134.856353 C164.556934,134.950519 164.774458,135 165,135 L166.122935,135 L166.122935,136 L165,136 C164.625472,136 164.261691,135.917249 163.929894,135.759915 Z M162.5,131.684416 L163.5,131.684389 L163.500037,133.510673 C163.500359,133.557246 163.502791,133.603484 163.507301,133.649309 L162.512109,133.747253 C162.504623,133.671187 162.500594,133.594577 162.500049,133.514147 L162.5,131.684416 Z M162.5,127.684402 L163.5,127.684402 L163.5,129.684402 L162.5,129.684402 L162.5,127.684402 Z M162.5,123.684402 L163.5,123.684402 L163.5,125.684402 L162.5,125.684402 L162.5,123.684402 Z M162.5,119.684402 L163.5,119.684402 L163.5,121.684402 L162.5,121.684402 L162.5,119.684402 Z M162.5,115.684402 L163.5,115.684402 L163.5,117.684402 L162.5,117.684402 L162.5,115.684402 Z M162.5,111.684402 L163.5,111.684402 L163.5,113.684402 L162.5,113.684402 L162.5,111.684402 Z M162.5,107.684402 L163.5,107.684402 L163.5,109.684402 L162.5,109.684402 L162.5,107.684402 Z M162.5,103.684402 L163.5,103.684402 L163.5,105.684402 L162.5,105.684402 L162.5,103.684402 Z M162.5,99.6844024 L163.5,99.6844024 L163.5,101.684402 L162.5,101.684402 L162.5,99.6844024 Z M162.5,95.6844024 L163.5,95.6844024 L163.5,97.6844024 L162.5,97.6844024 L162.5,95.6844024 Z M162.5,91.6844024 L163.5,91.6844024 L163.5,93.6844024 L162.5,93.6844024 L162.5,91.6844024 Z M162.5,87.6844024 L163.5,87.6844024 L163.5,89.6844024 L162.5,89.6844024 L162.5,87.6844024 Z M162.707422,83.5016907 L163.624104,83.9013082 C163.542605,84.088259 163.5,84.2906843 163.5,84.5 L163.5,85.6844024 L162.5,85.6844024 L162.5,84.5 C162.5,84.1525158 162.571224,83.8141157 162.707422,83.5016907 Z M164.976918,82.0001048 L164.985999,83.0000635 C164.923834,83.0006281 164.862274,83.0049523 164.80151,83.0129593 L164.670868,82.0215297 C164.771915,82.0082145 164.874071,82.0010388 164.976918,82.0001048 Z" id="Combined-Shape" stroke="none" fill="#C3D4FA" fill-rule="nonzero"></path>
                        <rect id="Combined-Shape" stroke="none" fill="#E7EEFD" fill-rule="nonzero" x="201" y="28.5" width="93" height="96" rx="2"></rect>
                        <path d="M226,102.5 L238,102.5 C238.552285,102.5 239,102.947715 239,103.5 L239,112.5 C239,113.052285 238.552285,113.5 238,113.5 L226,113.5 C225.447715,113.5 225,113.052285 225,112.5 L225,103.5 C225,102.947715 225.447715,102.5 226,102.5 Z" id="Rectangle" stroke="none" fill="#FFFFFF" fill-rule="nonzero"></path>
                        <g id="Group-8" stroke="none" stroke-width="1" fill="none" fill-rule="evenodd" transform="translate(207.000000, 102.500000)">
                            <rect id="Rectangle" fill="#8CACF6" fill-rule="nonzero" x="0" y="0" width="14" height="11" rx="1"></rect>
                        </g>
                        <path d="M77,0 L77,1 L75,1 L75,0 L77,0 Z M81,0 L81,1 L79,1 L79,0 L81,0 Z M85,0 L85,1 L83,1 L83,0 L85,0 Z M89,0 L89,1 L87,1 L87,0 L89,0 Z M93,0 L93,1 L91,1 L91,0 L93,0 Z M97,0 L97,1 L95,1 L95,0 L97,0 Z M101,0 L101,1 L99,1 L99,0 L101,0 Z M105,0 L105,1 L103,1 L103,0 L105,0 Z M109,0 L109,1 L107,1 L107,0 L109,0 Z M113,0 L113,1 L111,1 L111,0 L113,0 Z M117,0 L117,1 L115,1 L115,0 L117,0 Z M121,0 L121,1 L119,1 L119,0 L121,0 Z M125,0 L125,1 L123,1 L123,0 L125,0 Z M129,0 L129,1 L127,1 L127,0 L129,0 Z M133,0 L133,1 L131,1 L131,0 L133,0 Z M137,0 L137,1 L135,1 L135,0 L137,0 Z M140.499586,2.45415693 L139.499749,2.47220716 C139.489987,1.93143396 139.191585,1.44508898 138.725879,1.1869116 L139.210735,0.312317797 C139.985746,0.741967325 140.483316,1.55292295 140.499586,2.45415693 Z M140.5,6.43853254 L139.5,6.43853254 L139.5,4.43853254 L140.5,4.43853254 L140.5,6.43853254 Z M140.5,10.4385325 L139.5,10.4385325 L139.5,8.43853254 L140.5,8.43853254 L140.5,10.4385325 Z M140.5,14.4385325 L139.5,14.4385325 L139.5,12.4385325 L140.5,12.4385325 L140.5,14.4385325 Z M140.5,18.4385325 L139.5,18.4385325 L139.5,16.4385325 L140.5,16.4385325 L140.5,18.4385325 Z M140.5,22.4385325 L139.5,22.4385325 L139.5,20.4385325 L140.5,20.4385325 L140.5,22.4385325 Z M140.5,26.4385325 L139.5,26.4385325 L139.5,24.4385325 L140.5,24.4385325 L140.5,26.4385325 Z M140.5,30.4385325 L139.5,30.4385325 L139.5,28.4385325 L140.5,28.4385325 L140.5,30.4385325 Z M140.5,34.4385325 L139.5,34.4385325 L139.5,32.4385325 L140.5,32.4385325 L140.5,34.4385325 Z M140.5,38.4385325 L139.5,38.4385325 L139.5,36.4385325 L140.5,36.4385325 L140.5,38.4385325 Z M140.5,42.4385325 L139.5,42.4385325 L139.5,40.4385325 L140.5,40.4385325 L140.5,42.4385325 Z M140.5,46.4385325 L139.5,46.4385325 L139.5,44.4385325 L140.5,44.4385325 L140.5,46.4385325 Z M140.5,50.4385325 L139.5,50.4385325 L139.5,48.4385325 L140.5,48.4385325 L140.5,50.4385325 Z M138.124836,53.9969263 L138.075557,52.9981413 C138.614172,52.9715665 139.092121,52.6577782 139.335436,52.1840145 L140.22498,52.6408647 C139.819868,53.429667 139.023368,53.9525935 138.124836,53.9969263 Z M134.122935,54 L134.122935,53 L136.122935,53 L136.122935,54 L134.122935,54 Z M130.122935,54 L130.122935,53 L132.122935,53 L132.122935,54 L130.122935,54 Z M126.122935,54 L126.122935,53 L128.122935,53 L128.122935,54 L126.122935,54 Z M122.122935,54 L122.122935,53 L124.122935,53 L124.122935,54 L122.122935,54 Z M118.122935,54 L118.122935,53 L120.122935,53 L120.122935,54 L118.122935,54 Z M114.122935,54 L114.122935,53 L116.122935,53 L116.122935,54 L114.122935,54 Z M110.122935,54 L110.122935,53 L112.122935,53 L112.122935,54 L110.122935,54 Z M106.122935,54 L106.122935,53 L108.122935,53 L108.122935,54 L106.122935,54 Z M102.122935,54 L102.122935,53 L104.122935,53 L104.122935,54 L102.122935,54 Z M98.1229349,54 L98.1229349,53 L100.122935,53 L100.122935,54 L98.1229349,54 Z M94.1229349,54 L94.1229349,53 L96.1229349,53 L96.1229349,54 L94.1229349,54 Z M90.1229349,54 L90.1229349,53 L92.1229349,53 L92.1229349,54 L90.1229349,54 Z M86.1229349,54 L86.1229349,53 L88.1229349,53 L88.1229349,54 L86.1229349,54 Z M82.1229349,54 L82.1229349,53 L84.1229349,53 L84.1229349,54 L82.1229349,54 Z M78.1229349,54 L78.1229349,53 L80.1229349,53 L80.1229349,54 L78.1229349,54 Z M73.9298936,53.7599154 L74.3583506,52.8563532 C74.5569344,52.950519 74.7744577,53 75,53 L76.1229349,53 L76.1229349,54 L75,54 C74.6254717,54 74.2616906,53.917249 73.9298936,53.7599154 Z M72.5,49.6844157 L73.5,49.684389 L73.5000369,51.5106731 C73.5003592,51.5572461 73.5027911,51.6034842 73.5073011,51.6493088 L72.5121092,51.747253 C72.504623,51.6711874 72.5005936,51.5945767 72.5000489,51.5141467 L72.5,49.6844157 Z M72.5,45.6844024 L73.5,45.6844024 L73.5,47.6844024 L72.5,47.6844024 L72.5,45.6844024 Z M72.5,41.6844024 L73.5,41.6844024 L73.5,43.6844024 L72.5,43.6844024 L72.5,41.6844024 Z M72.5,37.6844024 L73.5,37.6844024 L73.5,39.6844024 L72.5,39.6844024 L72.5,37.6844024 Z M72.5,33.6844024 L73.5,33.6844024 L73.5,35.6844024 L72.5,35.6844024 L72.5,33.6844024 Z M72.5,29.6844024 L73.5,29.6844024 L73.5,31.6844024 L72.5,31.6844024 L72.5,29.6844024 Z M72.5,25.6844024 L73.5,25.6844024 L73.5,27.6844024 L72.5,27.6844024 L72.5,25.6844024 Z M72.5,21.6844024 L73.5,21.6844024 L73.5,23.6844024 L72.5,23.6844024 L72.5,21.6844024 Z M72.5,17.6844024 L73.5,17.6844024 L73.5,19.6844024 L72.5,19.6844024 L72.5,17.6844024 Z M72.5,13.6844024 L73.5,13.6844024 L73.5,15.6844024 L72.5,15.6844024 L72.5,13.6844024 Z M72.5,9.68440238 L73.5,9.68440238 L73.5,11.6844024 L72.5,11.6844024 L72.5,9.68440238 Z M72.5,5.68440238 L73.5,5.68440238 L73.5,7.68440238 L72.5,7.68440238 L72.5,5.68440238 Z M72.7074221,1.50169071 L73.6241041,1.90130821 C73.5426049,2.088259 73.5,2.29068432 73.5,2.5 L73.5,3.68440238 L72.5,3.68440238 L72.5,2.5 C72.5,2.15251582 72.5712238,1.81411568 72.7074221,1.50169071 Z M74.9769182,0.00010477754 L74.9859993,1.00006354 C74.9238345,1.00062809 74.8622742,1.00495229 74.8015096,1.01295932 L74.6708679,0.021529672 C74.7719154,0.00821453675 74.8740709,0.00103878002 74.9769182,0.00010477754 Z" id="Combined-Shape" stroke="none" fill="#C3D4FA" fill-rule="nonzero"></path>
                        <rect id="Rectangle" stroke="none" fill="#001D53" fill-rule="nonzero" x="205" y="107.5" width="18" height="1" rx="0.5"></rect>
                        <rect id="Combined-Shape" stroke="none" fill="#E7EEFD" fill-rule="nonzero" x="0" y="28.5" width="93" height="96" rx="2"></rect>
                        <path d="M25,102.5 L37,102.5 C37.5522847,102.5 38,102.947715 38,103.5 L38,112.5 C38,113.052285 37.5522847,113.5 37,113.5 L25,113.5 C24.4477153,113.5 24,113.052285 24,112.5 L24,103.5 C24,102.947715 24.4477153,102.5 25,102.5 Z" id="Rectangle" stroke="none" fill="#FFFFFF" fill-rule="nonzero"></path>
                        <g id="Group-8" stroke="none" stroke-width="1" fill="none" fill-rule="evenodd" transform="translate(6.000000, 102.500000)">
                            <rect id="Rectangle" fill="#8CACF6" fill-rule="nonzero" x="0" y="0" width="14" height="11" rx="1"></rect>
                        </g>
                        <rect id="Rectangle" stroke="none" fill="#001D53" fill-rule="nonzero" x="4" y="107.5" width="18" height="1" rx="0.5"></rect>
                        <rect id="Rectangle" stroke="none" fill="#FFFFFF" fill-rule="nonzero" x="6" y="37.5" width="81" height="60" rx="2"></rect>
                        <rect id="Rectangle" stroke="none" fill="#001D53" fill-rule="evenodd" x="56" y="61.5" width="1" height="5"></rect>
                        <rect id="Rectangle" stroke="none" fill="url(#linearGradient-3)" fill-rule="nonzero" x="28" y="46.5" width="36" height="42" rx="2"></rect>
                        <rect id="Rectangle" stroke="none" fill="#FFFFFF" fill-rule="nonzero" x="32" y="50.5" width="28" height="6" rx="1"></rect>
                        <rect id="Rectangle" stroke="none" fill="#001D53" fill-rule="evenodd" x="56" y="51.5" width="2" height="4"></rect>
                        <rect id="Rectangle" stroke="none" fill="#001D53" fill-rule="evenodd" x="53" y="51.5" width="2" height="4"></rect>
                        <rect id="Rectangle" stroke="none" fill="#8BDCFB" fill-rule="nonzero" x="32" y="63.5" width="7.5" height="4" rx="1"></rect>
                        <rect id="Rectangle" stroke="none" fill="#8BDCFB" fill-rule="nonzero" x="32" y="70.5" width="7" height="4" rx="1"></rect>
                        <rect id="Rectangle" stroke="none" fill="#8BDCFB" fill-rule="nonzero" x="43" y="63.5" width="7" height="4" rx="1"></rect>
                        <rect id="Rectangle" stroke="none" fill="#8BDCFB" fill-rule="nonzero" x="54" y="63.5" width="6" height="4" rx="1"></rect>
                        <rect id="Rectangle" stroke="none" fill="#8BDCFB" fill-rule="nonzero" x="43" y="70.5" width="7" height="4" rx="1"></rect>
                        <rect id="Rectangle" stroke="none" fill="#8BDCFB" fill-rule="nonzero" x="32" y="77.5" width="7" height="4" rx="1"></rect>
                        <rect id="Rectangle" stroke="none" fill="#8BDCFB" fill-rule="nonzero" x="43" y="77.5" width="7" height="4" rx="1"></rect>
                        <rect id="Rectangle" stroke="none" fill="#FFC72C" fill-rule="nonzero" x="54" y="70.5" width="6" height="11" rx="1"></rect>
                        <rect id="Rectangle" stroke="none" fill="#FFFFFF" fill-rule="nonzero" x="207" y="37.5" width="81" height="60" rx="2"></rect>
                        <rect id="Combined-Shape" stroke="none" fill="#001D53" fill-rule="nonzero" x="207" y="41.5" width="18" height="8"></rect>
                        <rect id="Combined-Shape" stroke="none" fill="url(#linearGradient-4)" fill-rule="nonzero" x="85" y="12.5" width="124" height="128" rx="2"></rect>
                        <g id="wish-express-16-x-16" stroke="none" stroke-width="1" fill="none" fill-rule="evenodd" transform="translate(185.000000, 108.500000)">
                            <polygon id="Path" points="7 0 9.001 0 9.001 4 7 4"></polygon>
                            <g id="Clipped">
                                <mask id="mask-6" fill="white">
                                    <use xlink:href="#path-5"></use>
                                </mask>
                                <g id="a"></g>
                                <g id="Group" mask="url(#mask-6)" fill-rule="nonzero">
                                    <g transform="translate(0.000000, 3.000000)" id="Path">
                                        <path d="M15.995,7.152 L16.0000083,7.252 L16.0000083,8.066 C16.002781,8.93550684 15.3024819,9.64385024 14.433,9.651 L14.263,9.651 C13.7947218,10.4215269 12.9586627,10.8922365 12.057,10.893 C11.1574817,10.8871291 10.324641,10.417593 9.854,9.651 L8.675,9.651 C8.20672176,10.4215269 7.37066272,10.8922365 6.469,10.893 C5.56948168,10.8871291 4.73664095,10.417593 4.266,9.651 L4.206,9.651 C3.33,9.651 2.639,8.925 2.639,8.066 L2.639,7.318 C2.1164973,6.96120088 1.90141135,6.29620282 2.116,5.701 C1.76247047,5.58842895 1.46883378,5.33881583 1.30080718,5.00802522 C1.13278059,4.6772346 1.10439383,4.29288656 1.222,3.941 C0.586704461,3.80240175 0.133561439,3.2402381 0.133,2.59 C0.133,1.836 0.743,1.209 1.503,1.209 L2.954,1.209 C3.244,0.548 3.797,0.0679744426 4.579,0.0679744426 L10.332,0.0679744426 C11.0020431,0.0646192449 11.6293066,0.39683243 12.003,0.953 L12.088,1.04 L12.644,2.833 L13.429,2.899 C14.524,2.924 15.406,3.847 15.406,4.952 L15.406,6.01 C15.73,6.288 15.946,6.7 15.995,7.153 L15.995,7.152 Z" fill="#BC7633"></path>
                                        <path d="M14.473,4.951 C14.473,4.341 13.978,3.831 13.383,3.831 L11.938,3.709 L11.263,1.529 C11.243,1.509 11.243,1.489 11.223,1.469 C11.022906,1.17425581 10.6892433,0.998426801 10.333,0.999989532 L4.578,0.999989532 C4.024,0.999989532 3.722,1.612 3.662,2.141 L1.502,2.141 C1.25881531,2.14645121 1.06484812,2.34575695 1.0659949,2.589 C1.0659949,2.833 1.264,3.037 1.501,3.037 L3.631,3.037 C3.849,3.077 4.008,3.261 4.008,3.485 C4.00915188,3.72824305 3.81518469,3.92754879 3.572,3.933 L2.52,3.933 C2.27720796,3.93898718 2.08383711,4.13813693 2.085,4.381 C2.085,4.625 2.283,4.829 2.52,4.829 L4.453,4.829 C4.691,4.829 4.889,5.032 4.889,5.277 C4.89015188,5.52024305 4.69618469,5.71954879 4.453,5.725 L3.436,5.725 C3.31380241,5.72040445 3.19493732,5.76540688 3.10642269,5.84977827 C3.01790807,5.93414966 2.96726333,6.05072255 2.966,6.173 C2.966,6.417 3.164,6.621 3.402,6.621 L4.047,6.621 C3.77,6.681 3.572,6.946 3.572,7.251 L3.572,8.066 C3.572,8.413 3.849,8.718 4.206,8.718 L4.866,8.718 C5.063,9.431 5.716,9.96 6.469,9.96 C7.241,9.96 7.875,9.43 8.073,8.718 L10.453,8.718 C10.651,9.431 11.305,9.96 12.057,9.96 C12.829,9.96 13.463,9.43 13.661,8.718 L14.433,8.718 C14.7871951,8.71089296 15.0698091,8.42025521 15.0670208,8.066 L15.0670208,7.252 C15.027,6.885 14.77,6.6 14.473,6.58 L14.473,4.951 L14.473,4.951 Z" fill="#FBBA7B"></path>
                                    </g>
                                </g>
                            </g>
                        </g>
                        <rect id="Rectangle" stroke="none" fill="#FFFFFF" fill-rule="nonzero" x="93" y="24.5" width="108" height="80" rx="2"></rect>
                        <path d="M129,46.5 L142,46.5 L142,42.5 L130,42.5 C129.447715,42.5 129,42.9477153 129,43.5 L129,46.5 L129,46.5 Z" id="Fill-10" stroke="none" fill="#F17D86" fill-rule="evenodd"></path>
                        <rect id="Rectangle" stroke="#979797" stroke-width="1" fill="#D8D8D8" fill-rule="evenodd" x="166.5" y="46" width="13" height="4"></rect>
                        <path d="M182,41.5 L141.992798,41.5 L141.992798,41.5 L142,46.5 L112,46.5 C111.447715,46.5 111,46.9477153 111,47.5 L111,53.5 L111,53.5 L183,53.5 L183,42.5 C183,41.9477153 182.552285,41.5 182,41.5 Z" id="Fill-5" stroke="none" fill="#F1ABB5" fill-rule="evenodd"></path>
                        <rect id="Rectangle" stroke="none" fill="#001D53" fill-rule="evenodd" x="111" y="52.5" width="72" height="1"></rect>
                        <path d="M112,87.5 L182,87.5 C182.552285,87.5 183,87.0522847 183,86.5 L183,53.5 L183,53.5 L111,53.5 L111,86.5 C111,87.0522847 111.447715,87.5 112,87.5 Z" id="Fill-7" stroke="none" fill="#F17D86" fill-rule="evenodd"></path>
                        <path d="M139.998911,48.5887316 C139.498095,48.5887316 139.088732,48.9959173 139.088732,49.4989113 C139.088732,50.0019053 139.498095,50.4112684 139.998911,50.4112684 C140.501905,50.4112684 140.911268,50.0019053 140.911268,49.4989113 C140.911268,48.9959173 140.501905,48.5887316 139.998911,48.5887316 M139.998911,51.5 C138.897115,51.5 138,50.6028851 138,49.4989113 C138,48.3971149 138.897115,47.5 139.998911,47.5 C141.102885,47.5 142,48.3971149 142,49.4989113 C142,50.6028851 141.102885,51.5 139.998911,51.5" id="Fill-11" stroke="none" fill="#001D53" fill-rule="evenodd"></path>
                        <path d="M156.999058,89.5 C146.507463,89.5 138,80.9925373 138,70.5009421 C138,60.0074627 146.507463,51.5 156.999058,51.5 C167.492537,51.5 176,60.0074627 176,70.5009421 C176,80.9925373 167.492537,89.5 156.999058,89.5 Z" id="Fill-20" stroke="none" fill="#FCD3C8" fill-rule="evenodd"></path>
                        <path d="M156.999034,85.5 C148.714774,85.5 142,78.7837263 142,70.5 C142,62.2162737 148.714774,55.5 156.999034,55.5 C165.283294,55.5 172,62.2162737 172,70.5 C172,78.7837263 165.283294,85.5 156.999034,85.5 Z" id="Fill-21" stroke="none" fill="#FFFFFF" fill-rule="evenodd"></path>
                        <path d="M157,60.5 C151.487019,60.5 147,64.9870188 147,70.5 C147,76.0129812 151.487019,80.5 157,80.5 C162.512981,80.5 167,76.0129812 167,70.5 C167,64.9870188 162.512981,60.5 157,60.5 M157,82.5 C150.38373,82.5 145,77.1162695 145,70.5 C145,63.8817584 150.38373,58.5 157,58.5 C163.61627,58.5 169,63.8817584 169,70.5 C169,77.1162695 163.61627,82.5 157,82.5" id="Fill-22" stroke="none" fill="#001D53" fill-rule="evenodd"></path>
                        <path d="M164,70.5 C164,74.3646025 160.866028,77.5 156.999081,77.5 C153.133972,77.5 150,74.3646025 150,70.5 C150,66.6353975 153.133972,63.5 156.999081,63.5 C160.866028,63.5 164,66.6353975 164,70.5" id="Fill-23" stroke="none" fill="#FCD3C8" fill-rule="evenodd"></path>
                        <path d="M157,73.5 C155.345339,73.5 154,72.154661 154,70.5 C154,68.845339 155.345339,67.5 157,67.5 C158.654661,67.5 160,68.845339 160,70.5 C160,72.154661 158.654661,73.5 157,73.5" id="Fill-24" stroke="#001D53" stroke-width="1" fill="none"></path>
                        <rect id="Rectangle" stroke="#001D53" stroke-width="1" fill="none" x="169.5" y="46" width="9" height="3" rx="1"></rect>
                        <rect id="Rectangle" stroke="none" fill="#001D53" fill-rule="evenodd" x="131" y="41.5" width="1" height="5"></rect>
                        <rect id="Rectangle" stroke="none" fill="#001D53" fill-rule="evenodd" x="133" y="41.5" width="1" height="5"></rect>
                        <rect id="Rectangle" stroke="none" fill="#001D53" fill-rule="evenodd" x="135" y="41.5" width="1" height="5"></rect>
                        <rect id="Rectangle" stroke="none" fill="#001D53" fill-rule="evenodd" x="137" y="41.5" width="1" height="5"></rect>
                        <rect id="Rectangle" stroke="none" fill="#001D53" fill-rule="evenodd" x="139" y="41.5" width="1" height="5"></rect>
                        <rect id="Combined-Shape" stroke="none" fill="#001D53" fill-rule="nonzero" x="93" y="28.5" width="32" height="16"></rect>
                        <rect id="Combined-Shape" stroke="none" fill="#001D53" fill-rule="nonzero" x="6" y="41.5" width="18" height="8"></rect>
                        <path d="M97,38.0732946 L97,37.0283019 L99.7739251,37.0283019 L99.7739251,38.0732946 L97,38.0732946 Z M104.119741,40.3606676 L104.119741,38.607402 L100.44429,38.607402 L100.44429,37.5159652 L103.611188,32.6161103 L105.47203,32.6161103 L105.47203,37.4114659 L106.500693,37.4114659 L106.500693,38.607402 L105.47203,38.607402 L105.47203,40.3606676 L104.119741,40.3606676 Z M104.119741,33.8352685 L101.773463,37.4114659 L104.119741,37.4114659 L104.119741,33.8352685 Z M107.309755,38.3751814 C107.309755,37.3882438 108.107258,36.679971 109.043458,36.3664731 C108.176607,36.0878084 107.436893,35.5188679 107.436893,34.5319303 C107.436893,33.1037736 108.893204,32.5 110.268608,32.5 C111.620897,32.5 113.100324,33.1037736 113.100324,34.5319303 C113.100324,35.5188679 112.349052,36.0878084 111.482201,36.3664731 C112.4184,36.679971 113.215904,37.3882438 113.215904,38.3751814 C113.215904,39.756894 111.840499,40.5 110.268608,40.5 C108.68516,40.5 107.309755,39.7685051 107.309755,38.3751814 Z M111.724919,34.7409289 C111.724919,34.0907112 111.089228,33.7075472 110.268608,33.7075472 C109.424873,33.7075472 108.80074,34.0907112 108.80074,34.7409289 C108.80074,35.4724238 109.79473,35.7510885 110.268608,35.8323657 C110.742487,35.7510885 111.724919,35.4724238 111.724919,34.7409289 Z M111.852057,38.201016 C111.852057,37.3998549 110.742487,37.0399129 110.268608,36.9818578 C109.783172,37.0399129 108.673601,37.3998549 108.673601,38.201016 C108.673601,38.8744557 109.390199,39.2924528 110.268608,39.2924528 C111.123902,39.2924528 111.852057,38.8744557 111.852057,38.201016 Z M114.024965,34.4390421 C114.024965,33.3476052 114.787795,32.5 115.932039,32.5 C117.087841,32.5 117.862228,33.3476052 117.862228,34.4390421 C117.862228,35.5188679 117.087841,36.3432511 115.932039,36.3432511 C114.787795,36.3432511 114.024965,35.5188679 114.024965,34.4390421 Z M115.192325,40.3606676 L120.116043,32.6161103 L120.89043,32.6161103 L115.955155,40.3606676 L115.192325,40.3606676 Z M116.960703,34.4390421 C116.960703,33.7423803 116.533056,33.277939 115.932039,33.277939 C115.34258,33.277939 114.914933,33.7423803 114.914933,34.4390421 C114.914933,35.1008708 115.34258,35.5769231 115.932039,35.5769231 C116.533056,35.5769231 116.960703,35.1008708 116.960703,34.4390421 Z M118.174295,38.595791 C118.174295,37.5043541 118.937124,36.6567489 120.081368,36.6567489 C121.225613,36.6567489 122,37.5043541 122,38.595791 C122,39.6756168 121.225613,40.5 120.081368,40.5 C118.937124,40.5 118.174295,39.6756168 118.174295,38.595791 Z M121.110032,38.595791 C121.110032,37.8991292 120.682386,37.434688 120.081368,37.434688 C119.480351,37.434688 119.064263,37.8991292 119.064263,38.595791 C119.064263,39.2692308 119.480351,39.733672 120.081368,39.733672 C120.682386,39.733672 121.110032,39.2692308 121.110032,38.595791 Z" id="-48%" stroke="none" fill="#FFFFFF" fill-rule="nonzero"></path>
                        <path d="M94,109.5 L116,109.5 C116.552285,109.5 117,109.947715 117,110.5 L117,119.5 C117,120.052285 116.552285,120.5 116,120.5 L94,120.5 C93.4477153,120.5 93,120.052285 93,119.5 L93,110.5 C93,109.947715 93.4477153,109.5 94,109.5 Z" id="Rectangle" stroke="none" fill="#8CACF6" fill-rule="nonzero"></path>
                        <path d="M122,109.5 L144,109.5 C144.552285,109.5 145,109.947715 145,110.5 L145,119.5 C145,120.052285 144.552285,120.5 144,120.5 L122,120.5 C121.447715,120.5 121,120.052285 121,119.5 L121,110.5 C121,109.947715 121.447715,109.5 122,109.5 Z" id="Rectangle" stroke="none" fill="#FFFFFF" fill-rule="nonzero"></path>
                        <rect id="Rectangle" stroke="none" fill="#001D53" fill-rule="nonzero" x="91" y="114.5" width="28" height="1" rx="0.5"></rect>
                        <g id="wish-express-16-x-16" stroke="none" stroke-width="1" fill="none" fill-rule="evenodd" transform="translate(272.000000, 101.500000)">
                            <polygon id="Path" points="7 0 9.001 0 9.001 4 7 4"></polygon>
                            <g id="Clipped">
                                <mask id="mask-8" fill="white">
                                    <use xlink:href="#path-7"></use>
                                </mask>
                                <g id="a"></g>
                                <g id="Group" mask="url(#mask-8)" fill-rule="nonzero">
                                    <g transform="translate(0.000000, 3.000000)" id="Path">
                                        <path d="M15.995,7.152 L16.0000083,7.252 L16.0000083,8.066 C16.002781,8.93550684 15.3024819,9.64385024 14.433,9.651 L14.263,9.651 C13.7947218,10.4215269 12.9586627,10.8922365 12.057,10.893 C11.1574817,10.8871291 10.324641,10.417593 9.854,9.651 L8.675,9.651 C8.20672176,10.4215269 7.37066272,10.8922365 6.469,10.893 C5.56948168,10.8871291 4.73664095,10.417593 4.266,9.651 L4.206,9.651 C3.33,9.651 2.639,8.925 2.639,8.066 L2.639,7.318 C2.1164973,6.96120088 1.90141135,6.29620282 2.116,5.701 C1.76247047,5.58842895 1.46883378,5.33881583 1.30080718,5.00802522 C1.13278059,4.6772346 1.10439383,4.29288656 1.222,3.941 C0.586704461,3.80240175 0.133561439,3.2402381 0.133,2.59 C0.133,1.836 0.743,1.209 1.503,1.209 L2.954,1.209 C3.244,0.548 3.797,0.0679744426 4.579,0.0679744426 L10.332,0.0679744426 C11.0020431,0.0646192449 11.6293066,0.39683243 12.003,0.953 L12.088,1.04 L12.644,2.833 L13.429,2.899 C14.524,2.924 15.406,3.847 15.406,4.952 L15.406,6.01 C15.73,6.288 15.946,6.7 15.995,7.153 L15.995,7.152 Z" fill="#BC7633"></path>
                                        <path d="M14.473,4.951 C14.473,4.341 13.978,3.831 13.383,3.831 L11.938,3.709 L11.263,1.529 C11.243,1.509 11.243,1.489 11.223,1.469 C11.022906,1.17425581 10.6892433,0.998426801 10.333,0.999989532 L4.578,0.999989532 C4.024,0.999989532 3.722,1.612 3.662,2.141 L1.502,2.141 C1.25881531,2.14645121 1.06484812,2.34575695 1.0659949,2.589 C1.0659949,2.833 1.264,3.037 1.501,3.037 L3.631,3.037 C3.849,3.077 4.008,3.261 4.008,3.485 C4.00915188,3.72824305 3.81518469,3.92754879 3.572,3.933 L2.52,3.933 C2.27720796,3.93898718 2.08383711,4.13813693 2.085,4.381 C2.085,4.625 2.283,4.829 2.52,4.829 L4.453,4.829 C4.691,4.829 4.889,5.032 4.889,5.277 C4.89015188,5.52024305 4.69618469,5.71954879 4.453,5.725 L3.436,5.725 C3.31380241,5.72040445 3.19493732,5.76540688 3.10642269,5.84977827 C3.01790807,5.93414966 2.96726333,6.05072255 2.966,6.173 C2.966,6.417 3.164,6.621 3.402,6.621 L4.047,6.621 C3.77,6.681 3.572,6.946 3.572,7.251 L3.572,8.066 C3.572,8.413 3.849,8.718 4.206,8.718 L4.866,8.718 C5.063,9.431 5.716,9.96 6.469,9.96 C7.241,9.96 7.875,9.43 8.073,8.718 L10.453,8.718 C10.651,9.431 11.305,9.96 12.057,9.96 C12.829,9.96 13.463,9.43 13.661,8.718 L14.433,8.718 C14.7871951,8.71089296 15.0698091,8.42025521 15.0670208,8.066 L15.0670208,7.252 C15.027,6.885 14.77,6.6 14.473,6.58 L14.473,4.951 L14.473,4.951 Z" fill="#FBBA7B"></path>
                                    </g>
                                </g>
                            </g>
                        </g>
                        <g id="wish-express-16-x-16" stroke="none" stroke-width="1" fill="none" fill-rule="evenodd" transform="translate(65.000000, 101.500000)">
                            <polygon id="Path" points="7 0 9.001 0 9.001 4 7 4"></polygon>
                            <g id="Clipped">
                                <mask id="mask-10" fill="white">
                                    <use xlink:href="#path-9"></use>
                                </mask>
                                <g id="a"></g>
                                <g id="Group" mask="url(#mask-10)" fill-rule="nonzero">
                                    <g transform="translate(0.000000, 3.000000)" id="Path">
                                        <path d="M15.995,7.152 L16.0000083,7.252 L16.0000083,8.066 C16.002781,8.93550684 15.3024819,9.64385024 14.433,9.651 L14.263,9.651 C13.7947218,10.4215269 12.9586627,10.8922365 12.057,10.893 C11.1574817,10.8871291 10.324641,10.417593 9.854,9.651 L8.675,9.651 C8.20672176,10.4215269 7.37066272,10.8922365 6.469,10.893 C5.56948168,10.8871291 4.73664095,10.417593 4.266,9.651 L4.206,9.651 C3.33,9.651 2.639,8.925 2.639,8.066 L2.639,7.318 C2.1164973,6.96120088 1.90141135,6.29620282 2.116,5.701 C1.76247047,5.58842895 1.46883378,5.33881583 1.30080718,5.00802522 C1.13278059,4.6772346 1.10439383,4.29288656 1.222,3.941 C0.586704461,3.80240175 0.133561439,3.2402381 0.133,2.59 C0.133,1.836 0.743,1.209 1.503,1.209 L2.954,1.209 C3.244,0.548 3.797,0.0679744426 4.579,0.0679744426 L10.332,0.0679744426 C11.0020431,0.0646192449 11.6293066,0.39683243 12.003,0.953 L12.088,1.04 L12.644,2.833 L13.429,2.899 C14.524,2.924 15.406,3.847 15.406,4.952 L15.406,6.01 C15.73,6.288 15.946,6.7 15.995,7.153 L15.995,7.152 Z" fill="#BC7633"></path>
                                        <path d="M14.473,4.951 C14.473,4.341 13.978,3.831 13.383,3.831 L11.938,3.709 L11.263,1.529 C11.243,1.509 11.243,1.489 11.223,1.469 C11.022906,1.17425581 10.6892433,0.998426801 10.333,0.999989532 L4.578,0.999989532 C4.024,0.999989532 3.722,1.612 3.662,2.141 L1.502,2.141 C1.25881531,2.14645121 1.06484812,2.34575695 1.0659949,2.589 C1.0659949,2.833 1.264,3.037 1.501,3.037 L3.631,3.037 C3.849,3.077 4.008,3.261 4.008,3.485 C4.00915188,3.72824305 3.81518469,3.92754879 3.572,3.933 L2.52,3.933 C2.27720796,3.93898718 2.08383711,4.13813693 2.085,4.381 C2.085,4.625 2.283,4.829 2.52,4.829 L4.453,4.829 C4.691,4.829 4.889,5.032 4.889,5.277 C4.89015188,5.52024305 4.69618469,5.71954879 4.453,5.725 L3.436,5.725 C3.31380241,5.72040445 3.19493732,5.76540688 3.10642269,5.84977827 C3.01790807,5.93414966 2.96726333,6.05072255 2.966,6.173 C2.966,6.417 3.164,6.621 3.402,6.621 L4.047,6.621 C3.77,6.681 3.572,6.946 3.572,7.251 L3.572,8.066 C3.572,8.413 3.849,8.718 4.206,8.718 L4.866,8.718 C5.063,9.431 5.716,9.96 6.469,9.96 C7.241,9.96 7.875,9.43 8.073,8.718 L10.453,8.718 C10.651,9.431 11.305,9.96 12.057,9.96 C12.829,9.96 13.463,9.43 13.661,8.718 L14.433,8.718 C14.7871951,8.71089296 15.0698091,8.42025521 15.0670208,8.066 L15.0670208,7.252 C15.027,6.885 14.77,6.6 14.473,6.58 L14.473,4.951 L14.473,4.951 Z" fill="#FBBA7B"></path>
                                    </g>
                                </g>
                            </g>
                        </g>
                        <g id="Group-2" stroke="none" stroke-width="1" fill="none" fill-rule="evenodd" transform="translate(226.000000, 45.500000)">
                            <g id="Group-26">
                                <path d="M0,20 C1.18573551,8.85824995 10.0120619,0.307844895 20.4328293,0.008147966 C31.1937768,-0.30188334 40.6564112,8.27048226 42,19.7648929 L37.9129447,19.7997714 C36.831221,10.5427534 29.2102089,3.63809784 20.5441832,3.88741468 C12.1510357,4.12898074 5.04151735,11.0155511 4.08705533,19.9883738 L0,20 Z" id="Fill-1" fill="#001D53"></path>
                                <path d="M39.6296088,19.1088853 C39.6468316,19.2292501 39.6736875,19.4684022 39.7008732,19.814687 C39.9308766,22.7444145 39.6968876,26.322201 38.6402057,30.0934728 C38.565702,30.3593747 38.7208609,30.6353279 38.9867627,30.7098316 C39.2526646,30.7843353 39.5286179,30.6291765 39.6031216,30.3632746 C40.6948831,26.4668046 40.9363406,22.7748208 40.6978057,19.7364211 C40.6689124,19.3683857 40.6396893,19.1081527 40.6195262,18.9672393 C40.5804117,18.6938811 40.3271026,18.5039891 40.0537445,18.5431036 C39.7803863,18.5822181 39.5904943,18.8355272 39.6296088,19.1088853 Z" id="Stroke-5" fill="#001D53" fill-rule="nonzero"></path>
                                <path d="M2.50794517,19.1088853 C2.52516802,19.2292501 2.55202385,19.4684022 2.57920955,19.814687 C2.80921295,22.7444145 2.575224,26.322201 1.51854206,30.0934728 C1.44403835,30.3593747 1.59919723,30.6353279 1.86509911,30.7098316 C2.13100099,30.7843353 2.40695424,30.6291765 2.48145794,30.3632746 C3.57321948,26.4668046 3.81467697,22.7748208 3.57614207,19.7364211 C3.5472488,19.3683857 3.51802567,19.1081527 3.49786254,18.9672393 C3.45874807,18.6938811 3.20543897,18.5039891 2.93208084,18.5431036 C2.65872271,18.5822181 2.4688307,18.8355272 2.50794517,19.1088853 Z" id="Stroke-5" fill="#001D53" fill-rule="nonzero" transform="translate(2.579964, 24.633250) scale(-1, 1) translate(-2.579964, -24.633250) "></path>
                                <rect id="Rectangle" fill="#376EEE" transform="translate(33.119260, 35.094133) rotate(15.000000) translate(-33.119260, -35.094133) " x="31.1192596" y="27.0941333" width="4" height="16" rx="1"></rect>
                                <path d="M34.9659258,29.258819 L38.9659258,29.258819 C39.5182106,29.258819 39.9659258,29.7065343 39.9659258,30.258819 L39.9659258,42.258819 C39.9659258,42.8111038 39.5182106,43.258819 38.9659258,43.258819 L34.9659258,43.258819 L34.9659258,43.258819 L34.9659258,29.258819 Z" id="Rectangle" fill="#FFC72C" transform="translate(37.465926, 36.258819) rotate(15.000000) translate(-37.465926, -36.258819) "></path>
                                <path d="M39.8466662,33.1646857 L40.8466662,33.1646857 C41.398951,33.1646857 41.8466662,33.612401 41.8466662,34.1646857 L41.8466662,40.1646857 C41.8466662,40.7169705 41.398951,41.1646857 40.8466662,41.1646857 L39.8466662,41.1646857 L39.8466662,41.1646857 L39.8466662,33.1646857 Z" id="Rectangle" fill="#001D53" transform="translate(40.846666, 37.164686) rotate(15.000000) translate(-40.846666, -37.164686) "></path>
                                <rect id="Rectangle" fill="#376EEE" transform="translate(10.880740, 35.094133) rotate(-15.000000) translate(-10.880740, -35.094133) " x="8.88074039" y="27.0941333" width="4" height="16" rx="1"></rect>
                                <path d="M5.03407417,29.258819 L9.03407417,29.258819 L9.03407417,29.258819 L9.03407417,43.258819 L5.03407417,43.258819 C4.48178942,43.258819 4.03407417,42.8111038 4.03407417,42.258819 L4.03407417,30.258819 C4.03407417,29.7065343 4.48178942,29.258819 5.03407417,29.258819 Z" id="Rectangle" fill="#FFC72C" transform="translate(6.534074, 36.258819) rotate(-15.000000) translate(-6.534074, -36.258819) "></path>
                                <path d="M3.15333378,33.1646857 L4.15333378,33.1646857 L4.15333378,33.1646857 L4.15333378,41.1646857 L3.15333378,41.1646857 C2.60104903,41.1646857 2.15333378,40.7169705 2.15333378,40.1646857 L2.15333378,34.1646857 C2.15333378,33.612401 2.60104903,33.1646857 3.15333378,33.1646857 Z" id="Rectangle" fill="#001D53" transform="translate(3.153334, 37.164686) rotate(-15.000000) translate(-3.153334, -37.164686) "></path>
                            </g>
                            <path d="M16.045302,27.3155567 C16.1733809,27.8380763 16.3013766,28.3569968 16.4207453,28.8363733 C16.5743998,29.453439 16.7022651,29.9587595 16.7959596,30.3169908 C16.8497898,30.5228048 16.8917614,30.6778451 16.9213578,30.7794289 C16.9391815,30.8406052 16.9529576,30.8842343 16.9654844,30.9171184 C16.9717128,30.9472157 16.9717128,30.9472157 17.0784093,31.0877953 C17.4732816,31.222415 17.4732816,31.222415 17.6988374,30.9165485 C17.7215079,30.8073349 17.7215079,30.8073349 17.7194212,30.7730235 C17.7185101,30.7226347 18.6278753,28.5026436 20.0941443,25.0498953 L21.2258471,26.6918986 C21.2988439,26.7978106 21.4178037,26.8601458 21.5441086,26.8586683 L23.308158,26.8380326 C23.4588013,26.8362704 23.5945732,26.7443057 23.6555161,26.6027506 L25.3728721,22.6137635 L26.7440414,26.3689074 C26.8008617,26.524518 26.9463786,26.6269682 27.1081341,26.6252443 L30.7049984,26.586911 C30.9174016,26.5846473 31.0878024,26.4059028 31.0857201,26.1876739 C31.0833959,25.969445 30.909423,25.7943707 30.6970198,25.7966343 L27.3695997,25.832096 L25.7622456,21.4301264 C25.6412335,21.0987174 25.1897701,21.0853668 25.0504054,21.4090759 L23.0520916,26.0506576 L21.7370451,26.0660409 L20.3282891,24.0220574 C20.1553433,23.7711279 19.7819993,23.810338 19.6620447,24.0920291 C18.5345584,26.7397225 17.8035776,28.4791019 17.387962,29.5247893 C17.3222217,29.2656779 17.2477768,28.9690401 17.1659648,28.6404887 C17.0468638,28.1621874 16.9190939,27.6441825 16.7912322,27.1225487 C16.7187629,26.8266266 16.7187629,26.8266266 16.6675969,26.6170724 L16.6329572,26.4750084 L16.6238369,26.4375552 L16.6215023,26.427962 C16.5775586,26.2472902 16.4215129,26.1234626 16.2435,26.1254037 L11.4663925,26.1774943 C11.2539899,26.1798104 11.0836309,26.358597 11.0857587,26.5768253 C11.0881395,26.7950536 11.2621533,26.9700851 11.4745559,26.967769 L15.9482596,26.9189868 C15.9759633,27.0324179 15.9880573,27.0818031 16.045302,27.3155567 Z M16.9535902,30.7520306 L16.9508151,30.7610917 C16.9529925,30.7456673 16.9583663,30.7197868 16.9699537,30.6639808 C16.9642297,30.6962246 16.9572994,30.727523 16.9535902,30.7520306 Z" id="Stroke-11" fill="#C3D4FA" fill-rule="nonzero" transform="translate(21.085739, 26.173763) rotate(1.000000) translate(-21.085739, -26.173763) "></path>
                        </g>
                    </g>
                </g>
            </g>
        </g>
    </g>
</svg>