<svg width="180" height="125" viewBox="0 0 180 125" fill="none" xmlns="http://www.w3.org/2000/svg">
<path opacity="0.949475" fill-rule="evenodd" clip-rule="evenodd" d="M2.2594 124.247H112.218C112.218 124.247 91.8305 74.7225 75.3372 108.496C75.3372 108.496 47.8454 32.5043 32.0395 110.477C25.4561 106.807 17.5439 106.844 11.3895 110.648C4.08635 115.15 2.50391 122.937 2.2594 124.247Z" fill="#B7E1E4"/>
<path d="M154.393 9.78915H73.8075C72.5597 9.78915 71.5481 10.8006 71.5481 12.0482V106.928C71.5481 108.175 72.5597 109.187 73.8075 109.187H154.393C155.641 109.187 156.653 108.175 156.653 106.928V12.0482C156.653 10.8006 155.641 9.78915 154.393 9.78915Z" fill="#92D5D9"/>
<path opacity="0.696173" fill-rule="evenodd" clip-rule="evenodd" d="M65.523 3.01205H118.996L138.577 22.5904V94.1265C138.577 95.3741 137.566 96.3856 136.318 96.3856H65.523C64.2752 96.3856 63.2636 95.3741 63.2636 94.1265V5.27109C63.2636 4.02346 64.2752 3.01205 65.523 3.01205Z" fill="#86C4D3"/>
<path fill-rule="evenodd" clip-rule="evenodd" d="M62.5105 0H115.983L135.565 19.5783V91.1144C135.565 92.3621 134.553 93.3735 133.305 93.3735H62.5105C61.2626 93.3735 60.251 92.3621 60.251 91.1144V2.25904C60.251 1.0114 61.2626 0 62.5105 0Z" fill="#AFE6FC"/>
<path opacity="0.486444" fill-rule="evenodd" clip-rule="evenodd" d="M118.996 3.01205L135.565 19.5783V22.5904H121.255C120.007 22.5904 118.996 21.579 118.996 20.3313V3.01205Z" fill="#82B6CA"/>
<path fill-rule="evenodd" clip-rule="evenodd" d="M115.983 0L135.565 19.5783H118.243C116.995 19.5783 115.983 18.5669 115.983 17.3193V0Z" fill="url(#paint0_linear)"/>
<path d="M72.3012 28.6145C73.965 28.6145 75.3138 27.2659 75.3138 25.6024C75.3138 23.9389 73.965 22.5904 72.3012 22.5904C70.6375 22.5904 69.2887 23.9389 69.2887 25.6024C69.2887 27.2659 70.6375 28.6145 72.3012 28.6145Z" fill="#2FB7EC"/>
<path d="M101.674 24.0964H73.0544C72.6385 24.0964 72.3013 24.4335 72.3013 24.8494V26.3554C72.3013 26.7713 72.6385 27.1084 73.0544 27.1084H101.674C102.09 27.1084 102.427 26.7713 102.427 26.3554V24.8494C102.427 24.4335 102.09 24.0964 101.674 24.0964Z" fill="#2FB7EC"/>
<path d="M125.021 33.1325H70.795C69.9631 33.1325 69.2887 33.8068 69.2887 34.6386V58.7349C69.2887 59.5667 69.9631 60.241 70.795 60.241H125.021C125.853 60.241 126.527 59.5667 126.527 58.7349V34.6386C126.527 33.8068 125.853 33.1325 125.021 33.1325Z" fill="#E6F7FF"/>
<path fill-rule="evenodd" clip-rule="evenodd" d="M70.795 33.1325H125.021C125.853 33.1325 126.527 33.8068 126.527 34.6386V39.1566H69.2887V34.6386C69.2887 33.8068 69.9631 33.1325 70.795 33.1325Z" fill="#2FB7EC"/>
<path fill-rule="evenodd" clip-rule="evenodd" d="M111.464 66.2651H125.021C125.853 66.2651 126.527 65.5908 126.527 64.7591V60.241H109.958V64.7591C109.958 65.5908 110.633 66.2651 111.464 66.2651Z" fill="#2FB7EC"/>
<path fill-rule="evenodd" clip-rule="evenodd" d="M109.958 33.1325H125.021C125.853 33.1325 126.527 33.8068 126.527 34.6386V60.241H109.958V33.1325Z" fill="#006BA0"/>
<path d="M99.1222 73.4331C101.149 71.6914 103.45 69.299 106.468 69.3795C107.244 69.4002 106.295 71.0071 105.785 71.5873C103.413 74.288 94.4138 78.4849 97.9806 79.0404C101.762 79.6294 112.398 70.0003 115.085 66.3767C115.448 65.8874 115.556 64.956 115.097 64.5543C112.566 62.34 106.028 67.5402 105.879 67.6622C104.756 68.5875 102.212 71.1115 103.643 71.4002C109.091 72.4991 114.741 70.562 120.3 70.5711C121.9 70.5738 123.447 71.1473 125.021 71.4354" stroke="#006BA0"/>
<path opacity="0.485443" d="M88.8703 54.9699H54.9791C53.7312 54.9699 52.7197 55.9813 52.7197 57.2289V101.657C52.7197 102.904 53.7312 103.916 54.9791 103.916H88.8703C90.1181 103.916 91.1297 102.904 91.1297 101.657V57.2289C91.1297 55.9813 90.1181 54.9699 88.8703 54.9699Z" fill="#7FBCD6"/>
<path fill-rule="evenodd" clip-rule="evenodd" d="M51.9665 50.4518H85.8577C87.1056 50.4518 88.1171 51.4632 88.1171 52.7108V64.006H49.7071V52.7108C49.7071 51.4632 50.7187 50.4518 51.9665 50.4518Z" fill="#2FB7EC"/>
<path fill-rule="evenodd" clip-rule="evenodd" d="M49.7071 61.747L88.1171 54.9699V98.6446C88.1171 99.8922 87.1056 100.904 85.8577 100.904H51.9665C50.7187 100.904 49.7071 99.8922 49.7071 98.6446V61.747Z" fill="#006BA0"/>
<path d="M82.8451 74.5482H54.979C54.5631 74.5482 54.2259 74.8854 54.2259 75.3012V76.8072C54.2259 77.2231 54.5631 77.5603 54.979 77.5603H82.8451C83.2611 77.5603 83.5983 77.2231 83.5983 76.8072V75.3012C83.5983 74.8854 83.2611 74.5482 82.8451 74.5482Z" fill="#AFE6FC"/>
<path d="M82.8451 67.0181H54.979C54.5631 67.0181 54.2259 67.3552 54.2259 67.7711V69.2771C54.2259 69.693 54.5631 70.0301 54.979 70.0301H82.8451C83.2611 70.0301 83.5983 69.693 83.5983 69.2771V67.7711C83.5983 67.3552 83.2611 67.0181 82.8451 67.0181Z" fill="#E6F7FF"/>
<path d="M82.8451 82.0783H54.979C54.5631 82.0783 54.2259 82.4155 54.2259 82.8313V84.3374C54.2259 84.7532 54.5631 85.0904 54.979 85.0904H82.8451C83.2611 85.0904 83.5983 84.7532 83.5983 84.3374V82.8313C83.5983 82.4155 83.2611 82.0783 82.8451 82.0783Z" fill="#AFE6FC"/>
<path d="M76.82 89.6084H54.979C54.5631 89.6084 54.2259 89.9456 54.2259 90.3614V91.8675C54.2259 92.2833 54.5631 92.6205 54.979 92.6205H76.82C77.236 92.6205 77.5732 92.2833 77.5732 91.8675V90.3614C77.5732 89.9456 77.236 89.6084 76.82 89.6084Z" fill="#AFE6FC"/>
<mask id="mask0" mask-type="alpha" maskUnits="userSpaceOnUse" x="134" y="105" width="28" height="19">
<path d="M161.984 105.383H134.956V123.991H161.984V105.383Z" fill="white"/>
</mask>
<g mask="url(#mask0)">
<path fill-rule="evenodd" clip-rule="evenodd" d="M161.671 123.991H139.564C139.564 123.991 132.835 116.716 135.638 112.499C138.443 108.282 143.21 110.531 145.172 113.624C145.172 113.624 145.1 101.959 154.67 106.386C164.24 110.813 161.671 123.991 161.671 123.991Z" fill="#C4E6EA"/>
</g>
<path fill-rule="evenodd" clip-rule="evenodd" d="M161.323 123.995C157.16 117.782 155.023 109.32 154.347 104.827C153.672 100.335 154.685 97.3028 157.16 96.966C159.636 96.6291 161.461 100.916 161.461 100.916C161.461 100.916 162.514 94.8433 164.386 90.8729C166.258 86.9025 170.236 85.0336 172.81 88.187C175.384 91.3405 173.428 102.927 173.428 102.927C173.796 102.684 176.887 100.69 178.708 101.85C180.665 103.097 179.834 107.142 179.481 108.865C177.973 116.209 171.846 121.237 167.576 123.995H161.323Z" fill="#4DC1BD"/>
<path fill-rule="evenodd" clip-rule="evenodd" d="M164.224 124.247C164.351 124.247 164.462 124.155 164.48 124.027L168.624 94.9453C168.643 94.8064 168.544 94.6778 168.404 94.6574C168.262 94.6401 168.132 94.7358 168.112 94.8755L163.969 123.957C163.949 124.096 164.047 124.225 164.189 124.245C164.201 124.246 164.213 124.247 164.224 124.247Z" fill="black"/>
<path d="M173.975 123.494H126.527C126.111 123.494 125.774 123.831 125.774 124.247C125.774 124.663 126.111 125 126.527 125H173.975C174.391 125 174.728 124.663 174.728 124.247C174.728 123.831 174.391 123.494 173.975 123.494Z" fill="#C4D5E1"/>
<path d="M34.6443 123.494H0.753138C0.337191 123.494 0 123.831 0 124.247C0 124.663 0.337191 125 0.753138 125H34.6443C35.0603 125 35.3975 124.663 35.3975 124.247C35.3975 123.831 35.0603 123.494 34.6443 123.494Z" fill="#C4D5E1"/>
<path d="M115.983 123.494H39.1632C38.7472 123.494 38.41 123.831 38.41 124.247C38.41 124.663 38.7472 125 39.1632 125H115.983C116.399 125 116.736 124.663 116.736 124.247C116.736 123.831 116.399 123.494 115.983 123.494Z" fill="#C4D5E1"/>
<path fill-rule="evenodd" clip-rule="evenodd" d="M36.4651 104.402C36.9984 109.16 37.5338 113.916 38.0671 118.673H46.543C45.309 103.154 44.075 87.6344 42.8421 72.115H36.4651V104.402Z" fill="#174479"/>
<path fill-rule="evenodd" clip-rule="evenodd" d="M30.3809 72.1148C30.3809 72.1148 28.4976 75.7429 29.3319 79.8362C29.725 81.763 29.9944 83.7105 29.9188 85.6756C29.7841 89.2194 29.5772 94.2115 29.4502 95.2264C28.7888 100.515 28.3432 104.641 26.9033 112.78C26.5486 114.791 26.2409 116.442 26.0339 117.534C28.7363 117.914 31.4397 118.294 34.1431 118.673C34.9348 114.048 35.7844 108.896 36.6538 103.283C37.7948 95.9237 38.3751 92.1545 38.8317 87.7229C39.3047 83.1336 39.6682 77.9039 39.7689 72.1148H30.3809Z" fill="#225E9B"/>
<mask id="mask1" mask-type="alpha" maskUnits="userSpaceOnUse" x="51" y="52" width="6" height="5">
<path d="M51.0588 52.1099H56.2313V56.4747H51.0588V52.1099Z" fill="white"/>
</mask>
<g mask="url(#mask1)">
<path fill-rule="evenodd" clip-rule="evenodd" d="M54.9317 53.7006L56.2314 52.5905L55.8295 52.1099L51.0588 56.0466L51.4508 56.4747L54.9317 53.7006Z" fill="#231F20"/>
</g>
<path fill-rule="evenodd" clip-rule="evenodd" d="M39.0796 39.49C39.0796 39.49 39.9687 44.62 38.2486 45.3021C36.5295 45.9841 33.8589 44.9167 32.465 42.9297C31.0723 40.9427 32.9107 39.1933 33.9191 41.6554V38.0657L39.0796 39.49Z" fill="#E9A177"/>
<path fill-rule="evenodd" clip-rule="evenodd" d="M38.9951 40.7612C38.9786 40.7612 38.9633 40.7579 38.9469 40.7525C38.8538 40.7174 38.7553 40.6944 38.6556 40.6857C38.5527 40.6791 38.4454 40.6835 38.3425 40.7021C38.2603 40.7087 38.1957 40.6682 38.1815 40.5948C38.1673 40.5193 38.2155 40.4481 38.2888 40.4328C38.418 40.4087 38.5494 40.401 38.6808 40.4142C38.8056 40.4251 38.9272 40.4536 39.0432 40.4963C39.1133 40.5226 39.1505 40.6014 39.1232 40.6725C39.1035 40.7273 39.0509 40.7612 38.9951 40.7612Z" fill="#231F20"/>
<path fill-rule="evenodd" clip-rule="evenodd" d="M37.419 45.4214C37.2657 44.8488 36.4292 44.2205 33.4706 43.9435C33.5495 44.9966 33.6272 46.0509 33.7061 47.1041C33.8374 47.3132 34.5382 48.4014 35.6945 48.5853C36.1544 48.6575 36.6274 48.5798 36.7051 48.5667C37.2033 48.4802 37.5833 48.2984 37.8198 48.1616L37.419 45.4214Z" fill="#E9A177"/>
<path fill-rule="evenodd" clip-rule="evenodd" d="M35.9123 41.4914C35.9112 41.6983 35.9977 41.868 36.1083 41.8691C36.2167 41.8702 36.3076 41.7016 36.3087 41.4947C36.3109 41.2867 36.2233 41.117 36.1149 41.117C36.0043 41.1159 35.9145 41.2834 35.9123 41.4914Z" fill="#231F20"/>
<path fill-rule="evenodd" clip-rule="evenodd" d="M38.2583 41.4914C38.2562 41.6983 38.3437 41.868 38.4543 41.8691C38.5627 41.8702 38.6536 41.7016 38.6547 41.4947C38.6569 41.2867 38.5693 41.117 38.4609 41.117C38.3503 41.1159 38.2605 41.2834 38.2583 41.4914Z" fill="#231F20"/>
<path fill-rule="evenodd" clip-rule="evenodd" d="M35.5231 40.805C35.4727 40.805 35.4245 40.7776 35.4015 40.7306C35.3665 40.6627 35.3939 40.5806 35.4607 40.5466C35.5932 40.4788 35.7322 40.4295 35.8746 40.3999C36.2052 40.3299 36.4866 40.3759 36.6673 40.4229C36.7396 40.4437 36.7823 40.5182 36.7636 40.5926C36.7428 40.6649 36.6717 40.7087 36.595 40.689C36.4439 40.6452 36.2063 40.6079 35.9315 40.6671C35.8132 40.6922 35.6961 40.7349 35.5855 40.7897C35.5647 40.8006 35.545 40.805 35.5231 40.805Z" fill="#231F20"/>
<path fill-rule="evenodd" clip-rule="evenodd" d="M37.3569 42.9122C37.2452 42.9122 37.1423 42.8761 37.1116 42.8651C37.0416 42.8389 37.0065 42.7589 37.0317 42.6889C37.0591 42.6188 37.1357 42.5849 37.208 42.609C37.2682 42.6309 37.3492 42.644 37.3821 42.6374C37.3963 42.5225 37.346 42.1754 37.2857 41.8919C37.2693 41.8185 37.3164 41.7463 37.3898 41.7299C37.4631 41.7123 37.5365 41.7605 37.5529 41.835C37.7412 42.7009 37.6274 42.7984 37.5792 42.841C37.5168 42.8947 37.4346 42.9122 37.3569 42.9122Z" fill="#231F20"/>
<path fill-rule="evenodd" clip-rule="evenodd" d="M33.9192 41.655C33.9532 41.0572 33.9729 40.4277 33.9707 39.7654C33.9696 39.172 33.951 38.605 33.9203 38.0652C34.274 38.3094 36.9697 40.1004 39.0841 39.5038C39.1958 39.4622 39.3086 39.4195 39.4202 39.3779C39.6743 39.2881 39.8757 39.1939 40.017 39.1228C40.017 39.1228 40.7254 38.7659 40.7517 38.513C40.7637 38.397 40.7309 38.2962 40.7309 38.2962C40.7309 38.2962 40.7101 38.2612 40.5699 38.1419C42.7445 36.5118 40.7309 35.6798 40.7309 35.6798C41.3353 32.9954 38.7545 33.9522 37.4855 34.5686C37.0683 34.7722 36.6139 34.8882 36.1507 34.9003L35.8365 34.909C35.6011 34.9156 35.3635 34.9145 35.1291 34.8893C34.39 34.8127 33.4626 34.8762 32.6644 35.4225C30.9946 36.561 30.4515 39.4129 31.9987 41.8641C31.8673 41.1897 32.1618 40.6248 32.5385 40.5142C32.6973 40.4682 32.9776 40.4704 33.1955 40.6117C33.2973 40.6773 33.3783 40.7671 33.4418 40.8405C33.5491 40.9587 33.6214 41.0704 33.6685 41.1503" fill="#692E20"/>
<path fill-rule="evenodd" clip-rule="evenodd" d="M37.1603 44.0904H37.157C36.4628 44.0729 36.2624 43.5364 36.2537 43.5134C36.2285 43.4423 36.2657 43.3635 36.3369 43.3383C36.4059 43.3109 36.4858 43.3492 36.511 43.4204C36.5175 43.4357 36.6621 43.8036 37.1636 43.8167C37.2391 43.8189 37.2993 43.8813 37.2971 43.9568C37.295 44.0313 37.2336 44.0904 37.1603 44.0904Z" fill="#231F20"/>
<path fill-rule="evenodd" clip-rule="evenodd" d="M37.7686 47.3801C37.7686 47.3801 39.0343 48.6872 40.0209 50.8461C41.0052 53.006 42.7112 60.5818 42.8436 63.5366C42.975 66.4902 42.8436 72.1545 42.8436 72.1545H30.3755C30.3755 72.1545 28.1998 59.6337 28.0476 58.1197C27.8965 56.6045 27.5932 53.3465 29.147 50.9982C30.7007 48.6489 33.6559 46.3225 33.6559 46.3225" fill="#FAAF35"/>
<path fill-rule="evenodd" clip-rule="evenodd" d="M37.8039 59.8703L38.4324 61.3767C38.4324 61.3767 47.2981 57.0491 47.9847 56.6681C48.6712 56.2871 49.7202 55.8098 50.8819 54.7041C52.0458 53.5984 52.0261 53.8272 52.0261 53.9794C52.0261 54.1326 51.3396 55.2186 51.0352 55.7036C50.7308 56.1886 51.5509 56.1722 51.817 56.0769C52.0842 55.9817 53.4944 54.8377 54.124 54.2848C54.7525 53.733 55.0964 53.5415 55.1916 53.7517C55.2869 53.9619 55.0394 54.2662 55.0394 54.2662C55.2299 54.7424 54.7142 55.2953 54.7142 55.2953C54.9255 55.8481 54.262 56.6407 49.2888 60.6191C44.3155 64.5964 38.6054 66.4389 35.8789 66.3655C33.1536 66.2911 31.8999 61.1709 31.8999 61.1709L37.8039 59.8703Z" fill="#E9A177"/>
<path fill-rule="evenodd" clip-rule="evenodd" d="M53.4476 55.7853C53.4093 55.7853 53.372 55.7689 53.3436 55.7382C53.2943 55.6813 53.3009 55.5948 53.3578 55.5445L54.9499 54.1629C55.0068 54.1125 55.0922 54.1191 55.1437 54.176C55.1929 54.2329 55.1864 54.3194 55.1294 54.3698L53.5374 55.7525C53.5122 55.7744 53.4794 55.7853 53.4476 55.7853Z" fill="#D35F34"/>
<path fill-rule="evenodd" clip-rule="evenodd" d="M53.8025 56.183C53.7631 56.183 53.7237 56.1655 53.6963 56.1327C53.6481 56.0746 53.6569 55.9882 53.716 55.94L54.6281 55.1901C54.684 55.143 54.7726 55.1507 54.8208 55.2087C54.869 55.2667 54.8602 55.3532 54.8011 55.4014L53.889 56.1524C53.8649 56.1721 53.8332 56.183 53.8025 56.183Z" fill="#D35F34"/>
<path fill-rule="evenodd" clip-rule="evenodd" d="M29.2785 79.6691C29.2106 79.6691 29.1537 79.6198 29.1427 79.5531C29.1318 79.4775 29.1832 79.4086 29.2577 79.3965C31.2757 79.0987 31.1147 75.1105 31.0654 74.3507H29.607C29.5303 74.3507 29.4701 74.2894 29.4701 74.2139C29.4701 74.1373 29.5303 74.0771 29.607 74.0771H31.1924C31.2625 74.0771 31.3216 74.1296 31.3282 74.2008C31.349 74.4088 31.7728 79.3013 29.2993 79.668C29.2916 79.6691 29.285 79.6691 29.2785 79.6691Z" fill="#231F20"/>
<mask id="mask2" mask-type="alpha" maskUnits="userSpaceOnUse" x="39" y="120" width="11" height="5">
<path d="M39.6383 120.607H49.631V124.02H39.6383V120.607Z" fill="white"/>
</mask>
<g mask="url(#mask2)">
<path fill-rule="evenodd" clip-rule="evenodd" d="M49.6056 124.02H39.9526C39.8474 122.887 39.7434 121.755 39.6383 120.622C40.8219 120.617 42.0045 120.612 43.187 120.607C46.3876 121.887 48.7165 122.842 49.1479 123.04C49.2257 123.076 49.4052 123.163 49.5224 123.351C49.6582 123.574 49.6417 123.834 49.6056 124.02Z" fill="#231F20"/>
</g>
<mask id="mask3" mask-type="alpha" maskUnits="userSpaceOnUse" x="25" y="118" width="10" height="7">
<path d="M25.6067 118.673H34.1716V124.02H25.6067V118.673Z" fill="white"/>
</mask>
<g mask="url(#mask3)">
<path fill-rule="evenodd" clip-rule="evenodd" d="M34.1309 123.779C34.1768 123.869 34.1747 123.961 34.1681 124.02H30.9106L25.6067 121.954C25.9209 120.861 26.2352 119.767 26.5494 118.673C27.6531 119.099 28.7558 119.523 29.8595 119.949L32.9341 122.755C33.152 122.93 33.3644 123.075 33.5494 123.164C34.2874 123.519 34.1396 124.02 34.1396 124.02" fill="#231F20"/>
</g>
<path fill-rule="evenodd" clip-rule="evenodd" d="M39.6387 120.621L39.3683 118.674H43.1864V120.607L39.6387 120.621Z" fill="#E9A177"/>
<path fill-rule="evenodd" clip-rule="evenodd" d="M26.5497 118.673L26.7928 117.642C27.9556 117.805 29.1206 117.968 30.2835 118.132C30.1422 118.738 30.001 119.342 29.8586 119.949L26.5497 118.673Z" fill="#E9A177"/>
<path fill-rule="evenodd" clip-rule="evenodd" d="M31.9602 61.4345C31.9339 61.4345 31.9076 61.4268 31.8857 61.4115C31.8529 61.3918 31.8321 61.359 31.8255 61.3217L30.9485 56.4249C30.9353 56.3493 30.9846 56.2782 31.0591 56.265C31.1379 56.2541 31.2058 56.3023 31.2178 56.3756L32.0697 61.1313L38.0634 59.7179C37.9298 58.6757 36.9422 51.2937 35.6896 50.1278C34.3702 48.8984 33.1296 49.1524 33.1208 49.1567C33.0475 49.1721 32.9741 49.1261 32.9566 49.0527C32.9413 48.9794 32.9862 48.9071 33.0606 48.8896C33.1154 48.8787 34.4446 48.5929 35.8757 49.9264C37.2893 51.2434 38.3076 59.4563 38.3503 59.8055C38.3591 59.8745 38.3142 59.9402 38.2452 59.9555L31.9909 61.4312C31.9821 61.4334 31.9712 61.4345 31.9602 61.4345Z" fill="#F7951D"/>
<path fill-rule="evenodd" clip-rule="evenodd" d="M123.706 61.0045C123.706 61.0045 128.665 66.2664 129.076 66.03C129.486 65.7936 131.096 63.0588 131.096 63.0588L133.326 64.6994C133.326 64.6994 130.516 69.8436 129.108 69.5106C128.738 69.4236 128.019 68.784 127.16 67.8897C127.16 67.8897 121.765 61.4779 121.241 60.8565C120.718 60.2357 121.241 59.7037 121.241 59.7037C121.418 59.5211 121.662 59.4101 121.828 59.3198C121.828 59.3198 122.161 59.0276 122.703 59.7724L123.247 60.5168L123.706 61.0045Z" fill="#C58380"/>
<mask id="mask4" mask-type="alpha" maskUnits="userSpaceOnUse" x="135" y="118" width="12" height="7">
<path d="M135.844 118.281H146.517V124.119H135.844V118.281Z" fill="white"/>
</mask>
<g mask="url(#mask4)">
<path fill-rule="evenodd" clip-rule="evenodd" d="M144.394 123.785V121.823C144.394 121.823 141.353 123.749 140.996 123.928C140.638 124.106 138.885 124.142 137.847 124.106C136.81 124.071 135.844 123.785 135.844 123.464C135.844 123.142 135.915 122.928 138.92 121.966C139.319 121.988 139.942 121.978 140.638 121.751C141.958 121.32 142.43 120.467 143.822 119.503C144.33 119.151 145.115 118.678 146.206 118.281C146.449 119.095 146.657 120.176 146.397 121.894L146.111 123.785L146.057 124.118H144.401L144.394 123.785Z" fill="#1C4178"/>
</g>
<path fill-rule="evenodd" clip-rule="evenodd" d="M140.729 121.716C140.033 121.943 139.411 121.952 139.012 121.93C139.012 121.93 141.624 119.396 141.91 118.576C142.049 118.177 142.053 116.914 142.02 115.721C142.02 115.721 145.719 115.552 145.719 115.552C145.788 116.217 145.868 116.825 145.952 117.148C146.037 117.476 146.172 117.826 146.297 118.246C145.206 118.642 144.422 119.115 143.913 119.468C142.522 120.431 142.05 121.284 140.729 121.716Z" fill="#FCE2DD"/>
<path fill-rule="evenodd" clip-rule="evenodd" d="M145.762 112.004V115.778L142.063 115.999V112.509C142.063 112.509 143.172 109.049 145.762 111.251V112.004Z" fill="#F7A79A"/>
<mask id="mask5" mask-type="alpha" maskUnits="userSpaceOnUse" x="128" y="118" width="12" height="7">
<path d="M128.859 118.281H139.532V124.119H128.859V118.281Z" fill="white"/>
</mask>
<g mask="url(#mask5)">
<path fill-rule="evenodd" clip-rule="evenodd" d="M139.126 123.785L139.413 121.894C139.672 120.176 139.464 119.095 139.221 118.281C138.13 118.678 137.346 119.151 136.837 119.503C135.446 120.467 134.973 121.32 133.653 121.751C132.957 121.978 132.335 121.988 131.936 121.966C128.931 122.928 128.859 123.142 128.859 123.464C128.859 123.785 129.825 124.071 130.863 124.106C131.9 124.142 133.653 124.106 134.01 123.928C134.368 123.749 137.409 121.823 137.409 121.823V123.785L137.403 124.118L139.041 124.115L139.126 123.785Z" fill="#1C4178"/>
</g>
<path fill-rule="evenodd" clip-rule="evenodd" d="M133.711 121.716C133.015 121.943 132.392 121.952 131.993 121.93C131.993 121.93 134.605 119.396 134.891 118.576C135.03 118.177 135.034 116.914 135.001 115.721L138.701 115.552C138.77 116.217 138.85 116.825 138.934 117.148C139.019 117.476 139.154 117.826 139.278 118.246C138.188 118.642 137.404 119.115 136.894 119.468C135.503 120.431 135.031 121.284 133.711 121.716Z" fill="#FCE2DD"/>
<path fill-rule="evenodd" clip-rule="evenodd" d="M138.744 112.723V115.613L135.045 115.782V113.11C135.045 113.11 136.154 110.461 138.744 112.147V112.723Z" fill="#F7A79A"/>
<path fill-rule="evenodd" clip-rule="evenodd" d="M140.207 112.449C140.207 112.449 136.773 112.823 134.841 113.252C132.909 113.68 128.027 113.787 128.027 113.787C128.027 113.787 129.439 82.6918 129.404 81.1936C129.368 79.6949 130.047 72.9159 131.085 70.7041C135.521 72.2023 139.993 71.1317 139.993 71.1317C139.993 71.1317 140.529 71.1851 141.71 76.4839C142.891 81.7823 144.661 95.0013 144.661 95.0013L146.54 110.04L146.795 112.305C146.795 112.305 141.396 112.308 140.207 112.449Z" fill="#1C4178"/>
<path fill-rule="evenodd" clip-rule="evenodd" d="M131.684 65.0158L136.793 54.8395L141.318 64.8314C141.318 64.8314 140.831 68.8508 140.201 70.5359C140.193 70.5373 135.844 71.465 131.017 70.1283L130.925 67.1133V65.8095L131.684 65.0158Z" fill="#1C4178"/>
<path fill-rule="evenodd" clip-rule="evenodd" d="M131.094 70.7641L131.078 70.2465C135.905 71.5836 140.254 70.6555 140.262 70.6545C140.177 70.88 140.09 71.0654 140.002 71.1917C140.002 71.1917 135.53 72.2628 131.094 70.7641Z" fill="#FEFEFE"/>
<path fill-rule="evenodd" clip-rule="evenodd" d="M132.612 63.9671L129.4 61.843V59.9162C129.471 52.3879 134.005 52.7058 134.005 52.7058C139.613 53.0948 136.845 60.5569 136.845 60.5569L134.444 69.8356L132.119 69.5143V65.3042L132.612 63.9671Z" fill="#FCE2DD"/>
<path d="M135.214 58.9582C135.214 58.9582 135.15 61.978 132.933 63.7322L132.756 63.8652" stroke="#F68C32" stroke-width="0.35" stroke-linecap="round" stroke-linejoin="round"/>
<path d="M129.4 81.2333C132.941 80.5197 133.025 78.3073 133.025 78.3073L133.464 74.9538C133.464 74.9538 131.373 74.7036 130.49 74.5811L130.105 74.5177" stroke="#051D36" stroke-width="0.35" stroke-linejoin="round"/>
<path fill-rule="evenodd" clip-rule="evenodd" d="M133.474 51.9101C133.474 51.9101 131.918 51.1073 131.865 50.144C131.811 49.1806 131.865 47.3649 131.865 47.3649C131.865 47.3649 134.816 48.1099 133.474 51.9101Z" fill="#F7A79A"/>
<mask id="mask6" mask-type="alpha" maskUnits="userSpaceOnUse" x="132" y="49" width="16" height="17">
<path d="M132.924 49.1134H147.473V65.1387H132.924V49.1134Z" fill="white"/>
</mask>
<g mask="url(#mask6)">
<path fill-rule="evenodd" clip-rule="evenodd" d="M143 53.262C143 53.262 145.277 58.1514 146.392 59.2754C147.507 60.3994 148.258 63.8244 146.058 64.734C143.858 65.6444 139.033 65.0552 137.635 62.5936C136.238 60.1315 135.541 55.9038 135.272 54.9404C135.004 53.977 133.555 52.4249 133.34 51.8362C133.126 51.247 132.924 49.1134 132.924 49.1134C132.924 49.1134 140.262 49.7636 143 53.262Z" fill="#0B0D0C"/>
</g>
<path fill-rule="evenodd" clip-rule="evenodd" d="M144.853 52.5479C141.372 55.1792 133.946 49.8746 133.531 49.5504C129.345 46.2856 129.667 44.3593 130.096 43.0212C130.525 41.6832 132.35 40.7203 135.301 42.0579C138.253 43.3959 141.097 44.1987 141.097 44.1987C141.738 44.4361 142.505 44.7831 143.317 45.296C144.383 45.9686 145.173 46.7051 145.725 47.3057C145.988 47.6742 146.524 48.537 146.471 49.6601C146.402 51.0992 145.407 52.1284 144.853 52.5479Z" fill="#F68C32"/>
<path fill-rule="evenodd" clip-rule="evenodd" d="M141.062 44.1666C141.062 44.1666 142.171 46.3594 141.456 47.3147C140.74 48.2695 138.129 48.5726 135.947 47.1988C133.764 45.8255 132.476 43.7562 135.267 42.0258" fill="#FEFEFE"/>
<path fill-rule="evenodd" clip-rule="evenodd" d="M140.639 43.2764C140.731 43.5682 141.712 45.495 140.939 46.6023C140.139 47.7483 137.951 47.3517 136.99 47.0432C136.319 46.8282 134.371 46.2043 134.15 44.6097C133.962 43.2574 135.061 41.7244 136.378 41.5175C137.315 41.3702 138.921 41.1866 140.185 42.5209C140.185 42.5209 140.509 42.8689 140.639 43.2764Z" fill="#F68C32"/>
<path d="M139.164 75.8906C139.164 75.8906 139.754 77.5494 139.593 82.0456C139.433 86.5412 139.542 93.9265 139.621 98.2081C139.701 102.49 140.237 109.983 140.237 109.983L140.428 112.267" stroke="#051D36" stroke-width="0.35" stroke-linecap="round" stroke-linejoin="round"/>
<path fill-rule="evenodd" clip-rule="evenodd" d="M120.025 60.6028C120.025 60.6028 126.071 66.9537 126.572 66.6686C127.073 66.3826 129.035 63.0825 129.035 63.0825L131.754 65.0627C131.754 65.0627 128.329 71.271 126.611 70.8697C126.16 70.7639 125.284 69.993 124.237 68.9133C124.237 68.9133 117.659 61.1738 117.02 60.4245C116.382 59.6751 117.02 59.0326 117.02 59.0326C117.236 58.8123 117.533 58.6779 117.736 58.5687C117.736 58.5687 118.141 58.216 118.803 59.115L119.465 60.0145L120.025 60.6028Z" fill="#F7A79A"/>
<path fill-rule="evenodd" clip-rule="evenodd" d="M129.29 61.8565L132.503 63.9807L132.009 65.3178L130.721 64.3897L128.789 62.9987L129.29 61.8565Z" fill="#FEFEFE"/>
<defs>
<linearGradient id="paint0_linear" x1="82.9496" y1="54.7846" x2="132.776" y2="3.20666" gradientUnits="userSpaceOnUse">
<stop stop-color="#AFE6FC"/>
<stop offset="1" stop-color="#E6F7FF"/>
</linearGradient>
</defs>
</svg>
