<svg xmlns="http://www.w3.org/2000/svg" xmlns:xlink="http://www.w3.org/1999/xlink" width="32" height="32" viewBox="0 0 32 32">
    <defs>
        <circle id="a" cx="16" cy="16" r="16"/>
    </defs>
    <g fill="none" fill-rule="evenodd">
        <mask id="b" fill="#fff">
            <use xlink:href="#a"/>
        </mask>
        <use fill="#D5DFE6" xlink:href="#a"/>
        <path fill="#FFF" d="M12 0h8l-1 6h-6z" mask="url(#b)"/>
        <path stroke="#FFF" d="M16 6l9 7M16 6l2 7M16 6l-9 7" mask="url(#b)"/>
        <circle cx="16" cy="6" r="3" fill="#FFF" fill-rule="nonzero" mask="url(#b)"/>
        <circle cx="16" cy="6" r="1" fill="#1A4379" fill-rule="nonzero" mask="url(#b)"/>
        <path fill="#006BA0" d="M6 12l7-1 13 1v13l-13 1-7-1z" mask="url(#b)"/>
        <path fill="#1A4379" d="M6 12l7-1v15l-7-1z" mask="url(#b)"/>
        <path fill="#FFF" d="M23.049 16.757a.507.507 0 0 0-.487.42l-.24 1.72a.787.787 0 0 1-.273.489.772.772 0 0 1-.525.207.589.589 0 0 1-.594-.694l.145-1.044a.359.359 0 0 0-.372-.371h-.572a.509.509 0 0 0-.477.372l-.15 1.044a.78.78 0 0 1-.273.492.768.768 0 0 1-.516.203.583.583 0 0 1-.463-.207.586.586 0 0 1-.14-.487l.322-2.283a.535.535 0 0 0-.302-.549l-2.568-1.054c-.16-.064-.34.08-.402.32l-.147.575a.533.533 0 0 0 .308.607l1.616.66-.243 1.725c-.082.578.055 1.073.411 1.483.356.41.826.615 1.41.615a2.3 2.3 0 0 0 1.476-.538c.355.358.8.536 1.333.536.583 0 1.11-.206 1.583-.617.472-.41.748-.906.83-1.484l.26-1.852c.021-.159-.153-.289-.388-.288h-.562z" mask="url(#b)"/>
    </g>
</svg>
