<svg width="100" height="101" viewBox="0 0 100 101" fill="none" xmlns="http://www.w3.org/2000/svg">
<path d="M33.2806 32.4074C34.2333 30.532 37.0638 31.2096 37.0638 33.3132V38.2624V49.5648C37.0638 50.6694 36.1684 51.5648 35.0638 51.5648L26.8083 51.5649C25.316 51.5649 24.3493 49.9896 25.0252 48.6591L33.2806 32.4074Z" fill="white" stroke="#022786" stroke-width="4"/>
<path d="M32.7859 33.3794C32.7859 32.2748 33.6813 31.3794 34.7859 31.3794H81.7562C82.8608 31.3794 83.7562 32.2748 83.7562 33.3794V73.0677C83.7562 74.1722 82.8608 75.0677 81.7562 75.0677H34.7859C33.6813 75.0677 32.7859 74.1722 32.7859 73.0677V33.3794Z" fill="white" stroke="#022786" stroke-width="4"/>
<path d="M14.4673 59.773C14.4673 58.6684 15.3627 57.7729 16.4673 57.7729H34.7668C35.8714 57.7729 36.7668 58.6684 36.7668 59.7729V77.6171C36.7668 78.7217 35.8714 79.6171 34.7668 79.6171H16.4673C15.3627 79.6171 14.4673 78.7217 14.4673 77.6171V59.773Z" fill="white" stroke="#022786" stroke-width="4"/>
<path d="M30.3967 59.773C30.3967 58.6684 31.2922 57.7729 32.3967 57.7729H34.768C35.8726 57.7729 36.768 58.6684 36.768 59.7729V77.6171C36.768 78.7217 35.8726 79.6171 34.768 79.6171H32.3967C31.2922 79.6171 30.3967 78.7217 30.3967 77.6171V59.773Z" fill="white" stroke="#022786" stroke-width="4"/>
<path d="M19.4812 59.773C19.4812 58.6684 20.3766 57.7729 21.4812 57.7729H23.6169C24.7215 57.7729 25.6169 58.6684 25.6169 59.7729V63.5941C25.6169 64.1451 24.9575 64.4283 24.558 64.049C24.2991 63.8032 23.8874 63.8228 23.6531 64.0921L23.4242 64.3551C23.0846 64.7453 22.4971 64.7967 22.095 64.4714L21.465 63.9619C21.2075 63.7537 20.8357 63.7684 20.5956 63.9964C20.1751 64.3955 19.4812 64.0975 19.4812 63.5178V59.773Z" fill="#022786"/>
<path d="M74.1985 33.3794C74.1985 32.2748 75.0939 31.3794 76.1985 31.3794H81.7554C82.86 31.3794 83.7554 32.2748 83.7554 33.3794V73.0677C83.7554 74.1722 82.86 75.0677 81.7554 75.0677H76.1985C75.0939 75.0677 74.1985 74.1722 74.1985 73.0677V33.3794Z" fill="white" stroke="#022786" stroke-width="4"/>
<path d="M84.0776 32.987C83.8906 32.0522 83.0698 31.3794 82.1165 31.3794H76.6388C75.3767 31.3794 74.4301 32.5341 74.6777 33.7717L77.0631 45.6949C77.2501 46.6297 78.0709 47.3026 79.0242 47.3026H84.5019C85.764 47.3026 86.7106 46.1479 86.463 44.9102L84.0776 32.987Z" fill="white" stroke="#022786" stroke-width="4"/>
<path d="M63.0444 46.024C63.1426 45.3171 63.8076 44.7381 64.5221 44.7381L66.2307 44.739C66.9452 44.739 67.4737 45.1359 67.407 45.6215L66.6237 51.2929C66.3776 53.0645 65.5372 54.5804 64.1052 55.8368C62.6723 57.0941 61.0706 57.7228 59.2981 57.7228C57.6782 57.7228 56.3274 57.1743 55.2484 56.0772C53.8975 57.1743 52.4036 57.7228 50.7666 57.7228C48.9931 57.7228 47.5659 57.0951 46.4841 55.8368C45.4004 54.5804 44.9835 53.0645 45.2306 51.2929L45.9661 46.0107L41.0569 43.9882C40.3528 43.702 39.9302 42.8644 40.1182 42.128L40.5656 40.3688C40.7526 39.6333 41.3001 39.1916 41.7838 39.3872C42.2608 39.5827 49.5855 42.6212 49.5855 42.6212C50.2037 42.9102 50.6092 43.6219 50.5061 44.3021L49.5331 51.292C49.4539 51.8663 49.5951 52.3643 49.9585 52.7859C50.322 53.2085 50.7904 53.4194 51.3647 53.4194C51.9381 53.4194 52.4608 53.2123 52.9321 52.7983C53.4034 52.3843 53.68 51.8834 53.7621 51.292L54.2143 48.0952C54.3774 47.4569 54.9985 46.958 55.6615 46.958H57.3977C58.0608 46.958 58.5416 47.4569 58.5282 48.0952L58.0903 51.292C58.0083 51.8834 58.1447 52.3852 58.5015 52.7983C58.8573 53.2123 59.3219 53.4194 59.8962 53.4194C60.4858 53.4194 61.0181 53.2076 61.4903 52.7859C61.9616 52.3643 62.2383 51.8663 62.3184 51.292L63.0444 46.024Z" fill="#022786"/>
<line x1="55.7432" y1="66.6953" x2="67.2432" y2="66.6953" stroke="#022786" stroke-width="4" stroke-linecap="round"/>
<line x1="47.9932" y1="66.6953" x2="49" y2="66.6953" stroke="#022786" stroke-width="4" stroke-linecap="round"/>
</svg>
