<svg xmlns="http://www.w3.org/2000/svg" xmlns:xlink="http://www.w3.org/1999/xlink" width="280" height="152" viewBox="0 0 280 152">
    <defs>
        <path id="a" d="M0 0h280v152H0z"/>
        <radialGradient id="c" cx="-12.947%" cy="-6.229%" r="220.31%" fx="-12.947%" fy="-6.229%" gradientTransform="matrix(.47286 .45873 -.88114 .24617 -.123 .012)">
            <stop offset="0%" stop-color="#4EC2BE"/>
            <stop offset="100%" stop-color="#03928B"/>
            <stop offset="100%" stop-color="#03928B"/>
        </radialGradient>
        <linearGradient id="d" x1="64.361%" x2="35.639%" y1="100%" y2="0%">
            <stop offset="0%" stop-color="#2FB7EC"/>
            <stop offset="100%" stop-color="#0098D3"/>
        </linearGradient>
        <radialGradient id="e" cx="-12.947%" cy="-6.229%" r="218.668%" fx="-12.947%" fy="-6.229%" gradientTransform="matrix(.4764 .46217 -.87922 .25043 -.123 .013)">
            <stop offset="0%" stop-color="#4EC2BE"/>
            <stop offset="100%" stop-color="#03928B"/>
            <stop offset="100%" stop-color="#03928B"/>
        </radialGradient>
    </defs>
    <g fill="none" fill-rule="evenodd">
        <mask id="b" fill="#fff">
            <use xlink:href="#a"/>
        </mask>
        <use fill="#EEF2F5" fill-opacity="0" style="mix-blend-mode:darken" xlink:href="#a"/>
        <g mask="url(#b)">
            <path fill="#FFF" fill-rule="nonzero" d="M239.732 78.773A113.062 113.062 0 0 1 253.79 152H28.169C21.58 106.53 43.2 60.805 84.004 37.303c3.291-1.859 6.583-3.614 9.978-5.143 53.371-24.128 116.384-3.976 145.75 46.613z"/>
            <path stroke="#FCB237" stroke-dasharray="2" d="M189 133v-22.315c0-.93.843-1.685 1.882-1.685h36.236c1.04 0 1.882.755 1.882 1.685V133h-40zM33 133v-22.315c0-.93.843-1.685 1.882-1.685h36.236c1.04 0 1.882.755 1.882 1.685V133H33z"/>
            <path fill="#0098D3" fill-rule="nonzero" d="M194.109 125.11v5.55H179.57V116.43h11.432c.358 0 .713.063 1.048.188.43.152.82.397 1.145.718.128.126.243.264.343.413.374.518.573 1.14.57 1.779v5.581z"/>
            <path fill="#2FB7EC" fill-rule="nonzero" d="M183.278 88.952c1.711 0 3.099 1.387 3.099 3.098v24.381H171.69v-14.409h5.338v-5.445h-5.344v-7.625h11.594z"/>
            <path fill="url(#c)" fill-rule="nonzero" d="M141.302 129.278h-4.373v-1.293h4.373v-2.846h-4.373V98.43h18.542a3.098 3.098 0 0 1 3.1 3.085v17.145h-8.754a3.1 3.1 0 0 0-3.1 3.104V140h-9.788v-7.844h4.373v-2.878z" transform="translate(21 12)"/>
            <path fill="#1A4379" fill-rule="nonzero" d="M171.69 96.557h5.344v5.445h-5.344z"/>
            <path fill="#FFCF73" fill-rule="nonzero" d="M176.678 75.862v2.91h-10.196v-2.91h10.196z"/>
            <path fill="#006BA0" fill-rule="nonzero" d="M171.69 96.557v5.446h-9.53v-5.446h2.73z"/>
            <path fill="#79D6FA" fill-rule="nonzero" d="M171.69 88.952v7.605h-6.806v-7.605z"/>
            <path fill="#1A4379" fill-rule="nonzero" d="M170.733 29.99l-4.49 7.76h-5.571a17.584 17.584 0 0 0 1.436-7.003v-.75l8.625-.007z"/>
            <path fill="#4EC2BE" fill-rule="nonzero" d="M167.698 65.825v10.037h-3.992V65.825z"/>
            <path fill="#FFF" fill-rule="nonzero" d="M166.482 75.862v2.91h10.196v-2.91h2.52a3 3 0 0 1 3 3v10.09h-21.681v-9.973a3.098 3.098 0 0 1 3.099-3.097h2.866v-.02z"/>
            <path fill="#79D6FA" fill-rule="nonzero" d="M131.35 105.1V88.933h3.203v4.922l2.038-2.38 1.992 1.817 1.987-1.817 2.038 2.38v-4.896h14.234v4.896l2.038-2.38 1.986 1.817 1.986-1.817 2.038 2.38v2.71h-2.743v5.445h9.53v8.408H134.45a3.048 3.048 0 0 1-2.588-1.436 2.91 2.91 0 0 1-.498-1.662l-.013-2.218z"/>
            <path fill="#4EC2BE" fill-rule="nonzero" d="M157.929 141.278h4.367v2.859h-4.367zM157.929 137.12h4.367v2.846h-4.367z"/>
            <path fill="#C5E8EB" fill-rule="nonzero" d="M159.675 37.744a16.495 16.495 0 0 0-4.897-4.675c-.731-.457-1.5-.85-2.297-1.177a16.025 16.025 0 0 0-5.383-1.236l-2.795-4.83h-1.883a24.624 24.624 0 0 1-.647-3.668c-.054-.46-.082-.921-.084-1.384a29.081 29.081 0 0 1 11.426.822 28.474 28.474 0 0 1 8.158 3.705 17.71 17.71 0 0 1 .822 4.676v.75a17.585 17.585 0 0 1-1.436 7.004l-.984.013z"/>
            <path fill="#006BA0" fill-rule="nonzero" d="M166.242 46.52h-9.976l-5.073-8.77h15.049l5.073 8.77zM156.835 88.952h8.049v4.902l-2.038-2.38-1.993 1.81-1.986-1.816-2.032 2.386z"/>
            <path fill="#C5E8EB" fill-rule="nonzero" d="M154.435 141.278h3.494v2.859h-3.494zM154.435 137.12h3.494v2.846h-3.494z"/>
            <path fill="#03928B" fill-rule="nonzero" d="M154.778 33.062a16.495 16.495 0 0 1 4.897 4.676h-7.162a29.595 29.595 0 0 0 2.265-4.676z"/>
            <path fill="url(#d)" fill-rule="nonzero" d="M135.266 34.52h9.976v19.305h-15.049v-28.08z" transform="translate(21 12)"/>
            <path fill="#C5E8EB" fill-rule="nonzero" d="M154.435 70.74v-4.915h9.271v10.037h-.09a3.098 3.098 0 0 0-3.1 3.098v9.992h-19.26a3.106 3.106 0 0 1-3.106-3.104V65.799h8.23v4.915l2.038-2.399 1.986 1.817 1.993-1.817 2.038 2.425z"/>
            <path fill="#03928B" fill-rule="nonzero" d="M151.193 37.744l-4.095-7.114c1.852.098 3.674.516 5.383 1.236.797.326 1.566.72 2.297 1.177a29.595 29.595 0 0 1-2.265 4.676l-1.32.025z"/>
            <path fill="#4EC2BE" fill-rule="nonzero" d="M148.418 68.34l-2.038 2.4v-4.915h8.055v4.915l-2.038-2.4-1.993 1.818z"/>
            <path fill="#79D6FA" fill-rule="nonzero" d="M144.303 25.825l2.795 4.831 4.095 7.095h-31.651l-6.87-11.926H142.42z"/>
            <path fill="#03928B" fill-rule="nonzero" d="M141.702 20.774c.002.463.03.925.084 1.384.123 1.237.34 2.463.647 3.667h-9.11a28.134 28.134 0 0 1 .033-9.196 17.635 17.635 0 0 1 9.303-3.654 24.346 24.346 0 0 0-.957 7.8z"/>
            <path fill="#2FB7EC" fill-rule="nonzero" d="M140.738 46.242v-8.498h10.455v28.081H138.15v13.323h-14.583a4.043 4.043 0 0 1-4.025-4.023v-37.38h11.174v8.497l2.64-2.12 2.361 1.94 2.388-1.94 2.633 2.12z"/>
            <path fill="#006BA0" fill-rule="nonzero" d="M133.356 44.121l-2.64 2.121v-8.491h10.022v8.491l-2.633-2.12-2.388 1.913zM134.553 88.952h8.055v4.902l-2.038-2.38-1.987 1.817-1.992-1.817-2.038 2.38z"/>
            <path fill="#C5E8EB" fill-rule="nonzero" d="M133.181 16.745c.055-.043.114-.082.175-.116a28.134 28.134 0 0 0-.033 9.196h-6.243a17.862 17.862 0 0 1 6.101-9.08zM131.35 107.332a2.91 2.91 0 0 0 .498 1.662v5.219l-2.847-2.25-2.588 2.056-2.516-2.057-2.828 2.277V105.1h10.281v2.23z"/>
            <path fill="#006BA0" fill-rule="nonzero" d="M126.963 152h-17.637v-8.303h4.063v-3.512h-4.063v-14.874h14.532a3.1 3.1 0 0 1 3.105 3.123V152z"/>
            <path fill="#4EC2BE" fill-rule="nonzero" d="M121.07 105.1v9.113l2.827-2.277 2.549 2.057 2.588-2.057 2.827 2.277v-5.22a3.048 3.048 0 0 0 2.588 1.437h23.48v26.69h-3.494v2.845h3.494v1.294h-3.494v2.865h3.494V152h-30.966v-23.566a3.097 3.097 0 0 0-3.105-3.097h-8.754v-17.152a3.079 3.079 0 0 1 2.588-3.033c.162-.034.326-.051.492-.051h2.885z"/>
            <path fill="#1A4379" fill-rule="nonzero" d="M119.542 37.75v8.376h-4.833z"/>
            <path fill="#076D65" fill-rule="nonzero" d="M113.422 48.745l-1.145-2.62h7.265v5.395h-6.735a2.373 2.373 0 0 0 .615-2.775z"/>
            <path fill="#FCB237" fill-rule="nonzero" d="M134.553 88.952h-3.203v16.168h-13.147c-.165 0-.33.017-.492.052V79.148h20.439v6.7a3.105 3.105 0 0 0 3.105 3.104h-6.702z"/>
            <path fill="#1A4379" fill-rule="nonzero" d="M109.326 140.185h4.063v3.512h-4.063z"/>
            <path fill="#03928B" fill-opacity=".8" fill-rule="nonzero" d="M112.807 51.52h6.735V75.1a4.043 4.043 0 0 0 4.025 4.022h-15.49v-2.995h3.883V74.79h-3.882v-1.417h3.882V70.14h-3.882v-18.62h4.73z"/>
            <path fill="#4EC2BE" fill-rule="nonzero" d="M108.078 74.815h3.856v1.339h-3.856zM108.078 70.178h3.856v3.221h-3.856z"/>
            <path fill="#006BA0" fill-rule="nonzero" d="M105.27 140.185h4.063v3.512h-4.063z"/>
            <path fill="#FFF" fill-rule="nonzero" d="M102.986 31.458l3.241 7.302-9.99 4.417-3.222-7.315z"/>
            <path fill="#C5E8EB" fill-rule="nonzero" d="M106.091 73.398h-1.889v-3.221h3.876v3.221z"/>
            <path fill="#4EC2BE" fill-rule="nonzero" d="M108.078 79.148H88.506a1.035 1.035 0 0 1-1.029-1.042V51.52h5.331v8.498l2.64-2.128 2.381 1.94 2.381-1.94 2.588 2.128V51.52h5.247v18.658h-3.882v3.233h3.882v1.416h-3.882v1.34h3.882l.033 2.98z"/>
            <path fill="#C5E8EB" fill-rule="nonzero" d="M104.202 74.815h3.876v1.338h-3.876z"/>
            <path fill="#B4DADB" fill-rule="nonzero" d="M100.98 43.759h2.607l.945 1.649h.013l1.287 2.225 1.527 2.651.719 1.236h-20.6l-4.49-7.761h10.726z"/>
            <path fill="#FCB237" fill-rule="nonzero" d="M102.145 43.022a4.575 4.575 0 0 1 5.54 1.526 4.57 4.57 0 0 1-.326 5.736l-1.527-2.651a1.881 1.881 0 0 0-.122-1.184 1.798 1.798 0 0 0-1.165-1.047l-.945-1.643h-2.588a5.48 5.48 0 0 1 1.133-.737z"/>
            <path fill="#03928B" fill-rule="nonzero" d="M102.83 51.52v8.498l-2.62-2.128-2.38 1.92-2.382-1.92-2.64 2.128V51.52z"/>
            <path fill="#FCB237" fill-rule="nonzero" d="M102.196 79.148v9.118h-10.76v-9.118h1.87z"/>
            <path fill="#FFCF73" fill-rule="nonzero" d="M88.506 79.148h2.93v9.118h10.76v-9.118h15.528v26.004a3.079 3.079 0 0 0-2.588 3.033v17.152H79.332V82.213a3.098 3.098 0 0 1 3.099-3.085l6.075.02z"/>
            <path fill="#076D65" fill-rule="nonzero" d="M87.704 29.356l-3.585-.62-5.195-7.328 5.06-3.583 5.208 7.334-.75 4.314zM87.477 51.52v8.77h-5.072z"/>
            <path fill="#4EC2BE" fill-rule="nonzero" d="M79.332 125.337h-1.877a3.1 3.1 0 0 0-3.105 3.097V152H52.417v-21.34h-3.688v-11.118a2.916 2.916 0 0 1 .647-1.882 2.977 2.977 0 0 1 2.432-1.216h27.524v8.893z"/>
            <path fill="#79D6FA" fill-rule="nonzero" d="M74.35 128.434a3.097 3.097 0 0 1 3.105-3.098h31.891v14.875h-4.057v3.512h4.057V152H74.35v-23.566z"/>
            <g fill-rule="nonzero">
                <path fill="#FCB237" d="M43.592 148.593h2.963v1.028h-2.963z"/>
                <path fill="#FFCF73" d="M46.561 145.016h-2.97V130.66h8.826V152h-8.825v-2.379h2.97v-1.028h-2.97V147.5h2.97z"/>
                <path fill="#FCB237" d="M43.592 145.016h2.963v2.483h-2.963z"/>
                <path fill="#FFCF73" d="M40.609 148.593h2.983v1.028h-2.983zM40.609 145.016h2.983v2.483h-2.983z"/>
                <path fill="#FDEDBA" d="M43.592 130.66v14.356h-2.983v2.516h2.983v1.093h-2.983v1.028h2.983V152H21v-21.34z"/>
            </g>
            <path fill="#FFCF73" fill-rule="nonzero" d="M28.566 130.66h7.712v6.544l-2.018-1.63-1.838 1.475-1.83-1.475-2.026 1.63z"/>
            <path stroke="#076D65" stroke-width=".749" d="M92.608 33.34a4.53 4.53 0 0 1-.984-.18 5.175 5.175 0 0 1-3.92-3.804c-.046-.226-.11-.465-.136-.717"/>
            <path fill="#FFCF73" fill-rule="nonzero" d="M96.238 43.177l9.99-4.417-3.236-7.302-9.97 4.404 3.216 7.315zm-4.614-10.018l10.281-4.56a2.4 2.4 0 0 1 3.158 1.217l7.214 16.31 1.145 2.62a2.373 2.373 0 0 1-.615 2.774h-4.73l-.718-1.236a4.57 4.57 0 0 0 .327-5.736 4.575 4.575 0 0 0-5.541-1.526 5.48 5.48 0 0 0-1.165.737h-7.266c-1.766-3.971-3.306-7.47-3.306-7.47a2.38 2.38 0 0 1 1.216-3.13z"/>
            <path fill="#4EC2BE" fill-rule="nonzero" d="M157.14 18.375a17.939 17.939 0 0 1 4.133 6.926 28.473 28.473 0 0 0-8.145-3.718 29.081 29.081 0 0 0-11.426-.809 24.346 24.346 0 0 1 .957-7.8c.531-.05 1.062-.083 1.592-.083a17.835 17.835 0 0 1 12.888 5.484z"/>
            <g fill-rule="nonzero">
                <path fill="url(#e)" d="M37.759 24.742h-3.5v-1.035h3.5v-2.276h-3.5V.063h14.835a2.479 2.479 0 0 1 2.48 2.468V33H34.26v-5.956h3.499v-2.302z" transform="translate(207.75 119)"/>
                <path fill="#4EC2BE" d="M242.01 143.742h3.494v2.287h-3.494zM242.01 140.415h3.494v2.276h-3.494z"/>
                <path fill="#C5E8EB" d="M239.215 143.742h2.795v2.287h-2.795zM239.215 140.415h2.795v2.276h-2.795z"/>
                <path fill="#4EC2BE" d="M223.226 119.063h18.784v21.352h-2.795v2.277h2.795v1.035h-2.795v2.292h2.795V152h-34.26v-30.469a2.463 2.463 0 0 1 2.07-2.426c.13-.028 12.564-.041 13.406-.042z"/>
                <path fill="#C5E8EB" d="M221.145 126.29l-2.277-1.8-2.07 1.645-2.014-1.646-2.262 1.822V119h8.623z"/>
            </g>
            <path fill="#FFF" fill-rule="nonzero" d="M195.428 130.66h7.713v6.544l-2.026-1.63-1.837 1.475-1.831-1.475-2.019 1.63z"/>
            <path fill="#FFCF73" fill-rule="nonzero" d="M188.842 145.016V130.66h6.586v6.525l2.019-1.63 1.837 1.475 1.831-1.474 2.02 1.63v-6.526h4.528L207.75 152H189l-.158-2.392h5.952v-1.028h-5.952v-1.048h5.952v-2.483z"/>
            <path fill="#FCB237" fill-rule="nonzero" d="M191.812 148.593h2.983v1.028h-2.983zM191.812 145.016h2.983v2.483h-2.983zM188.842 148.593h2.963v1.028h-2.963zM188.842 145.016h2.963v2.483h-2.963z"/>
            <path fill="#FFF6D8" fill-rule="nonzero" d="M167.718 151.917v-18.154a3.097 3.097 0 0 1 3.099-3.104h1.216v7.606h10.17v-7.606h3.152v14.875h-4.076v3.511h4.076v2.891h-17.637v-.02z"/>
            <path fill="#FFF6D8" d="M167.25 130.66H189V152h-21.75z"/>
            <path fill="#FFCF73" fill-rule="nonzero" d="M181.712 130.66v5.385l-2.025-1.63-1.837 1.475-1.831-1.475-2.019 1.63v-5.386z"/>
            <path fill="#006BA0" fill-rule="nonzero" d="M97.029 134.112l-2.847-2.25-2.588 2.056-2.517-2.056-2.827 2.276v-8.801h10.779z"/>
        </g>
    </g>
</svg>
