<svg xmlns="http://www.w3.org/2000/svg" xmlns:xlink="http://www.w3.org/1999/xlink" width="56" height="56" viewBox="0 0 56 56">
    <defs>
        <circle id="a" cx="28" cy="28" r="28"/>
        <linearGradient id="d" x1="50%" x2="50%" y1="0%" y2="100%">
            <stop offset="0%" stop-color="#8B572A" stop-opacity=".2"/>
            <stop offset="100%" stop-color="#8B572A" stop-opacity=".2"/>
        </linearGradient>
        <path id="c" d="M28 37c11.722 0 17.583-9.402 15.63-21C41.676 4.402 33.86-5 28-5c-5.861 0-13.676 9.402-15.63 21C10.417 27.598 16.278 37 28 37z"/>
        <circle id="e" cx="10" cy="10" r="10"/>
        <path id="g" d="M0 0h8a4 4 0 1 1-8 0z"/>
        <path id="h" d="M2 2h4c-.333 1-1 1.5-2 1.5S2.333 3 2 2z"/>
        <linearGradient id="i" x1="100%" x2="0%" y1="69.531%" y2="30.469%">
            <stop offset="0%" stop-color="#CEF2FD"/>
            <stop offset="100%" stop-color="#8BDCFB"/>
        </linearGradient>
        <linearGradient id="j" x1="54.5%" x2="59.824%" y1="100%" y2="60.701%">
            <stop offset="0%" stop-color="#CEF2FD"/>
            <stop offset="100%" stop-color="#8BDCFB"/>
        </linearGradient>
        <linearGradient id="k" x1="72.222%" x2="27.778%" y1="0%" y2="100%">
            <stop offset="0%" stop-color="#CEF2FD"/>
            <stop offset="0%" stop-color="#8BDCFB"/>
            <stop offset="100%" stop-color="#2FB7EC"/>
        </linearGradient>
        <linearGradient id="l" x1="100%" x2="0%" y1="48%" y2="52%">
            <stop offset="0%" stop-color="#CEF2FD"/>
            <stop offset="0%" stop-color="#8BDCFB"/>
            <stop offset="100%" stop-color="#2FB7EC"/>
        </linearGradient>
    </defs>
    <g fill="none" fill-rule="evenodd">
        <mask id="b" fill="#fff">
            <use xlink:href="#a"/>
        </mask>
        <use fill="#FFF" xlink:href="#a"/>
        <use fill="#EEF2F5" xlink:href="#a"/>
        <g mask="url(#b)">
            <use fill="#FFF" fill-opacity=".8" xlink:href="#c"/>
            <use fill="url(#d)" xlink:href="#c"/>
        </g>
        <g mask="url(#b)">
            <g transform="translate(18 11)">
                <mask id="f" fill="#fff">
                    <use xlink:href="#e"/>
                </mask>
                <use fill="#FFF" xlink:href="#e"/>
                <use fill="#8B572A" fill-opacity=".5" xlink:href="#e"/>
                <circle cx="6.5" cy="8.5" r="1.5" fill="#8B572A" mask="url(#f)"/>
                <circle cx="13.5" cy="8.5" r="1.5" fill="#8B572A" mask="url(#f)"/>
                <g mask="url(#f)">
                    <g transform="matrix(1 0 0 -1 6 15)">
                        <use fill="#FFF" xlink:href="#g"/>
                        <use fill="#8B572A" xlink:href="#g"/>
                    </g>
                    <g transform="matrix(1 0 0 -1 6 16.5)">
                        <use fill="#FFF" xlink:href="#h"/>
                        <use fill="#FFA39E" xlink:href="#h"/>
                    </g>
                </g>
            </g>
        </g>
        <g fill-rule="nonzero" mask="url(#b)">
            <path fill="url(#i)" d="M0 0h32v20H0z" transform="translate(12 28)"/>
            <path fill="url(#j)" fill-opacity=".5" d="M26 0h6v20h-6z" transform="translate(12 28)"/>
            <path fill="#FFF" d="M30 42h6v1h-6zM30 44h6v2h-6z"/>
        </g>
        <path fill="url(#k)" fill-rule="nonzero" d="M48 28v6h-4z" mask="url(#b)" transform="matrix(-1 0 0 1 92 0)"/>
        <path fill="url(#l)" fill-rule="nonzero" d="M12 28h26l-3 6H8z" mask="url(#b)"/>
    </g>
</svg>
