<svg xmlns="http://www.w3.org/2000/svg" xmlns:xlink="http://www.w3.org/1999/xlink" width="56" height="56" viewBox="0 0 56 56">
    <defs>
        <circle id="a" cx="28" cy="28" r="28"/>
        <linearGradient id="b" x1="50%" x2="50%" y1="0%" y2="100%">
            <stop offset="0%" stop-color="#A5E15D"/>
            <stop offset="100%" stop-color="#88C43F" stop-opacity="0"/>
        </linearGradient>
        <circle id="d" cx="28" cy="33" r="10"/>
        <path id="f" d="M24 34h8a4 4 0 1 1-8 0z"/>
        <path id="g" d="M26 37c0-.555.996-1.002 2-1 .996.002 2 .45 2 1 0 0-1 .5-2 .5s-2-.5-2-.5z"/>
    </defs>
    <g fill="none" fill-rule="evenodd">
        <mask id="c" fill="#fff">
            <use xlink:href="#a"/>
        </mask>
        <use fill="#FFF" xlink:href="#a"/>
        <use fill="#C2EF8A" fill-opacity=".5" xlink:href="#a"/>
        <path fill="#A5E15D" fill-opacity=".8" stroke="url(#b)" stroke-width="2" d="M28 48c10.666 0 16.576-8.36 14.644-19.834C40.84 17.46 33.545 8 28 8s-12.84 9.46-14.644 20.166C11.424 39.64 17.334 48 28 48z" mask="url(#c)"/>
        <mask id="e" fill="#fff">
            <use xlink:href="#d"/>
        </mask>
        <use fill="#FFF" xlink:href="#d"/>
        <use fill="#8B572A" fill-opacity=".5" xlink:href="#d"/>
        <circle cx="24.5" cy="31.5" r="1.5" fill="#8B572A" mask="url(#e)"/>
        <circle cx="31.5" cy="31.5" r="1.5" fill="#8B572A" mask="url(#e)"/>
        <g mask="url(#e)">
            <use fill="#FFF" xlink:href="#f"/>
            <use fill="#8B572A" xlink:href="#f"/>
        </g>
        <g mask="url(#e)" transform="matrix(1 0 0 -1 0 73.5)">
            <use fill="#FFF" xlink:href="#g"/>
            <use fill="#FFA39E" xlink:href="#g"/>
        </g>
    </g>
</svg>
