<svg xmlns="http://www.w3.org/2000/svg" xmlns:xlink="http://www.w3.org/1999/xlink" width="36" height="36" viewBox="0 0 36 36">
  <defs>
    <path id="global-a" d="M16.68816,31.9964014 C16.9943144,32.0158152 17.3030655,32.0256696 17.6141183,32.0256696 C17.9251711,32.0256696 18.2339222,32.0158152 18.5400766,31.9964014 C20.7391989,29.3917863 22.1496644,24.6174418 22.3834903,19.2154018 L12.8447463,19.2154018 C13.0785722,24.6174418 14.4890377,29.3917863 16.68816,31.9964014 Z M12.2882752,31.0096011 C10.7268528,27.8293915 9.81466724,23.6862586 9.63898445,19.2154018 L3.29052351,19.2154018 C3.88506546,24.5937112 7.43922566,29.0800207 12.2882752,31.0096011 Z M16.68816,3.2318352 C14.4890377,5.8364503 13.0785722,10.6107948 12.8447463,16.0128348 L22.3834903,16.0128348 C22.1496644,10.6107948 20.7391989,5.8364503 18.5400766,3.2318352 C18.2339222,3.21242143 17.9251711,3.20256696 17.6141183,3.20256696 C17.3030655,3.20256696 16.9943144,3.21242143 16.68816,3.2318352 Z M12.2882752,4.21863547 C7.43922565,6.14821596 3.88506545,10.6345254 3.29052351,16.0128348 L9.63898445,16.0128348 C9.81466724,11.541978 10.7268528,7.39884513 12.2882752,4.21863547 Z M22.9399614,31.0096011 C27.7890109,29.0800207 31.3431712,24.5937112 31.9377131,19.2154018 L25.5892522,19.2154018 C25.4135694,23.6862586 24.5013838,27.8293915 22.9399614,31.0096011 Z M22.9399615,4.21863547 C24.5013838,7.39884513 25.4135694,11.541978 25.5892522,16.0128348 L31.9377131,16.0128348 C31.3431712,10.6345254 27.789011,6.14821596 22.9399615,4.21863547 Z M17.6141183,35.2282366 C7.88610938,35.2282366 0,27.3421272 0,17.6141183 C0,7.88610938 7.88610938,0 17.6141183,0 C27.3421272,0 35.2282366,7.88610938 35.2282366,17.6141183 C35.2282366,27.3421272 27.3421272,35.2282366 17.6141183,35.2282366 Z"/>
  </defs>
  <g fill="none" fill-rule="evenodd">
    <mask id="global-b" fill="#fff">
      <use xlink:href="#global-a"/>
    </mask>
    <use fill="#637178" xlink:href="#global-a"/>
    <circle cx="18" cy="18" r="18" fill="#19BFBF" mask="url(#global-b)"/>
  </g>
</svg>
