<svg width="80" height="80" viewBox="0 0 80 80" fill="none" xmlns="http://www.w3.org/2000/svg">
<rect width="80" height="80" rx="40" fill="white"/>
<rect opacity="0.5" width="80" height="80" rx="40" fill="#C3D4FA"/>
<path d="M21 28.7508C25.0595 25.8631 32.7349 22.6077 39.7805 20C45.1907 22.2708 52.0355 24.6154 58.561 28.7508C58.561 35 56.9632 41.7985 56.212 45C54.6474 51.6662 49.1693 56.6662 39.779 60C30.3888 56.6662 24.9107 51.6662 23.3461 45C22.5906 41.7862 21 35.0015 21 28.7508Z" fill="url(#paint0_linear)"/>
<path d="M58.5614 28.7508C52.0359 24.6154 45.1911 22.2708 39.7809 20L39.7794 60C49.1697 56.6662 54.6478 51.6662 56.2123 45L56.2163 44.9832C56.9691 41.7747 58.5614 34.9891 58.5614 28.7508Z" fill="#759EFC"/>
<circle opacity="0.6" cx="40" cy="40" r="10" fill="#C3D4FA"/>
<path d="M38.6988 42.0462L44.5543 35.9075C44.9136 35.5308 45.4962 35.5308 45.8555 35.9075C46.2148 36.2842 46.2148 36.895 45.8555 37.2717L39.3494 44.0925C38.9901 44.4692 38.4075 44.4692 38.0482 44.0925L34.1445 40C33.7852 39.6233 33.7852 39.0125 34.1445 38.6358C34.5038 38.2591 35.0864 38.2591 35.4457 38.6358L38.6988 42.0462Z" fill="white"/>
<defs>
<linearGradient id="paint0_linear" x1="64.4299" y1="65" x2="7.89713" y2="23.4547" gradientUnits="userSpaceOnUse">
<stop stop-color="#376EEE"/>
<stop offset="1" stop-color="#8CACF6"/>
</linearGradient>
</defs>
</svg>
