<svg width="80" height="80" viewBox="0 0 80 80" fill="none" xmlns="http://www.w3.org/2000/svg">
<rect width="80" height="80" rx="40" fill="white"/>
<rect opacity="0.5" width="80" height="80" rx="40" fill="#C3D4FA"/>
<path fill-rule="evenodd" clip-rule="evenodd" d="M52.8511 50.1001C55.4211 46.9257 56.9605 42.8828 56.9605 38.4803C56.9605 28.2739 48.6866 20 38.4803 20C28.2739 20 20 28.2739 20 38.4803C20 48.6866 28.2739 56.9605 38.4803 56.9605C42.8827 56.9605 46.9256 55.4211 50.1001 52.8512L55.8734 58.6244C56.633 59.3841 57.8647 59.3841 58.6244 58.6244C59.3841 57.8648 59.3841 56.6331 58.6244 55.8734L52.8511 50.1001Z" fill="url(#paint0_linear)"/>
<circle cx="38.4803" cy="38.4805" r="14.7842" fill="url(#paint1_linear)"/>
<path opacity="0.8" fill-rule="evenodd" clip-rule="evenodd" d="M38.5 29C38.5 28.1716 39.1716 27.5 40 27.5C41.2476 27.5 42.4829 27.7457 43.6355 28.2231C44.7881 28.7006 45.8354 29.4003 46.7175 30.2825C47.5997 31.1646 48.2994 32.2119 48.7769 33.3645C49.2543 34.5171 49.5 35.7524 49.5 37C49.5 37.8284 48.8284 38.5 48 38.5C47.1716 38.5 46.5 37.8284 46.5 37C46.5 36.1464 46.3319 35.3012 46.0052 34.5126C45.6786 33.7239 45.1998 33.0074 44.5962 32.4038C43.9926 31.8002 43.2761 31.3214 42.4874 30.9948C41.6988 30.6681 40.8536 30.5 40 30.5C39.1716 30.5 38.5 29.8284 38.5 29Z" fill="white"/>
<defs>
<linearGradient id="paint0_linear" x1="48" y1="14.5" x2="68" y2="85.5" gradientUnits="userSpaceOnUse">
<stop stop-color="#8CACF6"/>
<stop offset="1" stop-color="#376EEE"/>
</linearGradient>
<linearGradient id="paint1_linear" x1="19" y1="64.5002" x2="56.5" y2="18.5002" gradientUnits="userSpaceOnUse">
<stop stop-color="#8CACF6"/>
<stop offset="1" stop-color="#E7EEFD"/>
</linearGradient>
</defs>
</svg>
