<svg width="366" height="178" viewBox="0 0 366 178" fill="none" xmlns="http://www.w3.org/2000/svg">
<mask id="mask0_29:2764" style="mask-type:alpha" maskUnits="userSpaceOnUse" x="0" y="0" width="366" height="178">
<rect width="366" height="178" fill="#C4C4C4"/>
</mask>
<g mask="url(#mask0_29:2764)">
<path opacity="0.7" d="M49.768 29.7806C50.6156 29.7806 51.3027 29.0935 51.3027 28.2459C51.3027 27.3983 50.6156 26.7112 49.768 26.7112C48.9204 26.7112 48.2333 27.3983 48.2333 28.2459C48.2333 29.0935 48.9204 29.7806 49.768 29.7806Z" fill="white"/>
<path opacity="0.7" d="M55.607 29.7806C56.4545 29.7806 57.1416 29.0935 57.1416 28.2459C57.1416 27.3983 56.4545 26.7112 55.607 26.7112C54.7594 26.7112 54.0723 27.3983 54.0723 28.2459C54.0723 29.0935 54.7594 29.7806 55.607 29.7806Z" fill="white"/>
<path opacity="0.7" d="M61.4462 29.7806C62.2938 29.7806 62.9809 29.0935 62.9809 28.2459C62.9809 27.3983 62.2938 26.7112 61.4462 26.7112C60.5987 26.7112 59.9116 27.3983 59.9116 28.2459C59.9116 29.0935 60.5987 29.7806 61.4462 29.7806Z" fill="white"/>
<path d="M43 26C43 24.8954 43.8954 24 45 24H313.133C314.238 24 315.133 24.8954 315.133 26V152.833C315.133 153.938 314.238 154.833 313.133 154.833H43V26Z" fill="#D0DBFF"/>
<rect x="74.4" y="104.553" width="39.9395" height="39.9395" rx="4.5" fill="white"/>
<path d="M43 26.6206C43 25.1736 44.1749 24 45.6266 24H312.507C313.957 24 315.133 25.1736 315.133 26.6206V32.2765H43V26.6206Z" fill="#305BEF"/>
<rect x="129.337" y="104.553" width="39.9395" height="39.9395" rx="4.5" fill="white"/>
<rect x="183.007" y="103.994" width="96.7474" height="2.25449" rx="0.861" fill="#7996F9"/>
<rect x="183.007" y="111.649" width="96.7474" height="2.25453" rx="0.861" fill="#7996F9"/>
<rect x="182.499" y="119.305" width="96.7474" height="2.25449" rx="0.861" fill="#7996F9"/>
<rect x="182.499" y="132.076" width="39.95" height="10.8304" rx="2" fill="#7996F9"/>
<path fill-rule="evenodd" clip-rule="evenodd" d="M80.0926 120.712C80.1475 120.712 87.0516 120.667 89.6683 121.439C92.2849 122.212 94.0119 122.358 96.4193 121.681C98.824 121.005 103.7 120.754 105.563 120.716C107.425 120.676 107.999 120.589 108.003 121.057C108.006 121.525 107.92 122.279 107.884 122.444C107.854 122.579 107.791 122.809 107.439 123.02C107.245 123.139 107.111 123.335 107.07 123.559C106.881 124.578 106.316 127.282 105.527 128.116C104.547 129.15 103.034 129.765 101.264 129.832C99.4925 129.897 96.8235 129.64 95.3438 126.564C95.3438 126.564 94.5654 124.714 94.4908 124.512C94.4162 124.311 93.3813 122.427 92.179 125.813C90.9766 129.199 88.0603 130.202 85.9042 129.934C83.7468 129.667 80.6735 128.823 80.4655 124.839C80.4655 124.839 80.4602 123.831 80.1096 123.336C79.759 122.843 79.1938 122.846 79.2238 121.983C79.2552 121.12 78.9792 120.705 80.0926 120.71V120.712Z" fill="#022786"/>
<path fill-rule="evenodd" clip-rule="evenodd" d="M81.3749 122.492L79.9671 122.501C79.9322 122.501 79.9037 122.473 79.903 122.438L79.8991 121.876C79.8991 121.842 79.9279 121.813 79.9632 121.813L81.3697 121.804C81.405 121.804 81.4338 121.833 81.4351 121.868L81.4377 122.428C81.438 122.445 81.4316 122.461 81.4199 122.473C81.4081 122.486 81.3919 122.493 81.3749 122.493V122.492ZM107.213 122.33L105.805 122.338C105.77 122.338 105.742 122.31 105.741 122.275L105.737 121.714C105.737 121.679 105.766 121.65 105.801 121.65L107.208 121.641C107.243 121.641 107.272 121.669 107.272 121.705L107.276 122.266C107.276 122.301 107.248 122.329 107.213 122.33ZM89.026 128.483C88.1049 128.969 87.1564 129.35 85.8245 129.19C83.6946 128.936 81.5489 127.748 81.4547 125.099C81.3592 122.449 82.7238 121.184 85.7761 121.469C85.7761 121.469 88.8285 121.556 90.1302 122.636C91.2685 123.581 91.6924 125.377 90.9192 126.688C90.806 126.88 90.6698 127.058 90.5136 127.217C90.5136 127.217 89.828 128.062 89.026 128.485V128.483ZM98.2354 128.44C99.1604 128.903 100.113 129.263 101.441 129.09C103.564 128.816 105.693 127.628 105.756 125.039C105.817 122.448 104.438 121.231 101.394 121.545C101.394 121.545 98.3466 121.67 97.0605 122.741C95.9353 123.678 95.5324 125.438 96.3213 126.709C96.4338 126.892 96.5712 127.063 96.7347 127.221C96.7347 127.221 97.4281 128.037 98.2354 128.44Z" fill="white"/>
<path fill-rule="evenodd" clip-rule="evenodd" d="M143.903 135.718C144.803 132.293 147.276 127.938 148.062 126.865C148.901 125.719 151.08 122.898 153.316 120.02C155.551 117.141 156.769 114.799 156.769 114.799C156.769 114.799 161.445 117.325 162.396 118.399C163.338 119.462 164.073 125.635 164.073 125.635H158.512V135.718H143.903Z" fill="#9CF0CD"/>
<path fill-rule="evenodd" clip-rule="evenodd" d="M141.18 125.635V135.722H156.268C155.598 132.118 152.468 128.01 151.631 126.865C150.791 125.719 148.613 122.897 146.377 120.018C144.142 117.14 142.923 114.798 142.923 114.798C142.923 114.798 138.247 117.325 137.296 118.399C136.355 119.462 135.62 125.635 135.62 125.635H141.18Z" fill="#67D3A6"/>
<rect x="74.4" y="49.5361" width="39.9395" height="39.9395" rx="4.5" fill="white"/>
<rect x="129.337" y="49.5361" width="39.9395" height="39.9395" rx="4.5" fill="white"/>
<rect x="184.273" y="49.5361" width="39.9395" height="39.9395" rx="4.5" fill="white"/>
<path fill-rule="evenodd" clip-rule="evenodd" d="M195.001 62.9934V62.2349H193.093V62.9934M197.561 62.9934V62.2349H195.652V62.9934" fill="#DCE5E9"/>
<path fill-rule="evenodd" clip-rule="evenodd" d="M216.846 61.4785H202.344V62.9936H192.048V65.5474H216.846V61.4785Z" fill="#6B828F"/>
<path fill-rule="evenodd" clip-rule="evenodd" d="M192.048 78.1465H216.846V65.5472H192.048V78.1465Z" fill="#98ABB6"/>
<path fill-rule="evenodd" clip-rule="evenodd" d="M214.744 64.2738H211.732C211.389 64.2583 211.12 63.9763 211.12 63.6336C211.12 63.291 211.389 63.009 211.732 62.9935H214.744C215.096 62.9935 215.385 63.2812 215.385 63.6343C215.385 63.9874 215.096 64.2738 214.744 64.2738Z" fill="white"/>
<path fill-rule="evenodd" clip-rule="evenodd" d="M198.213 62.9942H202.347V61.4772H198.213V62.9942Z" fill="#DCE5E9"/>
<path d="M198.58 61.4677V62.9924H198.88V61.4677H198.58ZM200.638 61.4677V62.9924H200.938V61.4677H200.638ZM199.605 61.4677V62.9924H199.905V61.4677H199.605ZM201.676 61.4677V62.9924H201.976V61.4677H201.676Z" fill="#3F5663"/>
<path d="M192.048 65.5469H216.846" stroke="#DCE5E9" stroke-linejoin="round"/>
<path fill-rule="evenodd" clip-rule="evenodd" d="M214.465 71.4299C214.465 75.1396 211.458 78.1469 207.748 78.1469C204.038 78.1469 201.031 75.1396 201.031 71.4299C201.031 67.7202 204.038 64.7129 207.748 64.7129C211.458 64.7129 214.465 67.7202 214.465 71.4299Z" fill="#3F5663"/>
<path fill-rule="evenodd" clip-rule="evenodd" d="M212.918 71.4296C212.947 73.2962 211.968 75.0339 210.357 75.9759C208.745 76.9179 206.75 76.9179 205.139 75.9759C203.527 75.0339 202.548 73.2962 202.578 71.4296C202.623 68.6064 204.924 66.3413 207.748 66.3413C210.571 66.3413 212.873 68.6064 212.918 71.4296Z" fill="white"/>
<path fill-rule="evenodd" clip-rule="evenodd" d="M210.285 71.4297C210.285 72.8315 209.149 73.9681 207.747 73.9685C206.346 73.9689 205.209 72.8328 205.208 71.431C205.208 70.0292 206.345 68.8928 207.747 68.8928C209.148 68.8928 210.285 70.0292 210.285 71.431V71.4297Z" fill="#3F5663"/>
<rect x="239.209" y="49.5361" width="39.9395" height="39.9395" rx="4.5" fill="white"/>
<path fill-rule="evenodd" clip-rule="evenodd" d="M106.186 69.595C106.186 76.1618 100.863 81.4852 94.296 81.4852C87.7293 81.4852 82.4059 76.1618 82.4059 69.595C82.4059 63.0283 87.7293 57.7049 94.296 57.7049C100.863 57.7049 106.186 63.0283 106.186 69.595Z" fill="#F1A666"/>
<path d="M88.5272 59.4297C90.3392 59.8419 93.0998 60.7564 95.7269 62.9544C102.085 68.2688 102.22 76.527 102.222 77.8772" stroke="#CE6200" stroke-width="0.75" stroke-linejoin="bevel"/>
<path d="M92.7715 65.6634L92.9947 65.9648L92.9947 65.9648L92.7715 65.6634ZM90.4911 62.7355L90.6164 63.089L90.6164 63.089L90.4911 62.7355ZM94.9566 74.5147L94.5828 74.4855L94.5827 74.4859L94.9566 74.5147ZM96.6509 67.612L96.8923 67.8989L96.8924 67.8988L96.6509 67.612ZM101.205 65.4794L101.154 65.8509L101.155 65.851L101.205 65.4794ZM102.125 60.7519C98.6706 61.6704 95.421 63.2347 92.5483 65.3621L92.9947 65.9648C95.7913 63.8937 98.9548 62.3709 102.318 61.4768L102.125 60.7519ZM92.5484 65.3621C87.8789 68.8198 85.3396 72.9182 84.1155 75.2618L84.7803 75.609C85.974 73.3237 88.4483 69.3314 92.9947 65.9648L92.5484 65.3621ZM95.9861 57.9732C95.6139 58.0193 95.6139 58.0189 95.6138 58.0185C95.6138 58.0184 95.6138 58.018 95.6137 58.0178C95.6137 58.0173 95.6136 58.0169 95.6136 58.0165C95.6135 58.0157 95.6134 58.0151 95.6134 58.0147C95.6133 58.0138 95.6133 58.0135 95.6133 58.0138C95.6134 58.0144 95.6136 58.0175 95.6139 58.0229C95.6144 58.0336 95.615 58.0536 95.6142 58.0821C95.6125 58.1392 95.6052 58.2303 95.5801 58.3496C95.5303 58.587 95.4093 58.9419 95.116 59.3658C94.5293 60.2134 93.2323 61.3654 90.3657 62.3821L90.6164 63.089C93.5785 62.0385 95.029 60.8093 95.7327 59.7926C96.0845 59.2843 96.2444 58.8362 96.3142 58.5036C96.3489 58.338 96.361 58.2024 96.3639 58.104C96.3653 58.0548 96.3644 58.0148 96.3629 57.9851C96.3622 57.9702 96.3613 57.9579 96.3604 57.9482C96.36 57.9433 96.3596 57.9392 96.3592 57.9356C96.359 57.9339 96.3589 57.9323 96.3587 57.9309C96.3586 57.9302 96.3585 57.9295 96.3585 57.9289C96.3584 57.9286 96.3584 57.9281 96.3583 57.928C96.3583 57.9276 96.3582 57.9271 95.9861 57.9732ZM90.3658 62.3821C87.4407 63.4193 85.6595 64.2029 84.6045 64.731C84.0768 64.9952 83.7293 65.1962 83.5104 65.3339C83.4009 65.4028 83.3233 65.4561 83.2711 65.4938C83.245 65.5126 83.2252 65.5276 83.211 65.5386C83.2039 65.5442 83.1981 65.5488 83.1937 65.5524C83.1914 65.5542 83.1895 65.5558 83.1879 65.5571C83.1871 65.5578 83.1864 65.5584 83.1857 65.5589C83.1854 65.5592 83.1851 65.5594 83.1848 65.5597C83.1847 65.5598 83.1845 65.56 83.1844 65.56C83.1842 65.5602 83.184 65.5604 83.4261 65.8468C83.6682 66.1331 83.668 66.1333 83.6678 66.1334C83.6678 66.1335 83.6676 66.1336 83.6675 66.1337C83.6673 66.1339 83.6671 66.1341 83.6669 66.1342C83.6666 66.1345 83.6663 66.1347 83.6661 66.1349C83.6657 66.1352 83.6657 66.1352 83.6659 66.135C83.6665 66.1346 83.6684 66.133 83.6718 66.1304C83.6785 66.1252 83.6909 66.1157 83.71 66.102C83.7481 66.0744 83.8125 66.03 83.9099 65.9687C84.1048 65.8461 84.4304 65.6569 84.9402 65.4017C85.9603 64.891 87.7115 64.119 90.6164 63.089L90.3658 62.3821ZM91.7316 80.8562C92.0048 81.113 92.0049 81.1129 92.005 81.1129C92.005 81.1128 92.0051 81.1127 92.0052 81.1126C92.0054 81.1125 92.0056 81.1122 92.0058 81.1119C92.0064 81.1114 92.0071 81.1107 92.0079 81.1097C92.0097 81.1078 92.0121 81.1052 92.0153 81.1018C92.0216 81.095 92.0306 81.0852 92.0422 81.0725C92.0654 81.0471 92.0989 81.0099 92.1413 80.9618C92.2261 80.8657 92.3466 80.7258 92.4915 80.5483C92.7812 80.1937 93.1697 79.6873 93.5664 79.0791C94.3533 77.8728 95.2009 76.2232 95.3305 74.5436L94.5827 74.4859C94.4677 75.9763 93.7027 77.4975 92.9383 78.6694C92.5593 79.2503 92.1875 79.7349 91.9106 80.074C91.7723 80.2433 91.6581 80.3759 91.5789 80.4657C91.5394 80.5105 91.5086 80.5446 91.488 80.5671C91.4777 80.5784 91.47 80.5868 91.465 80.5922C91.4625 80.5949 91.4607 80.5969 91.4595 80.5981C91.459 80.5987 91.4586 80.5991 91.4584 80.5993C91.4583 80.5994 91.4582 80.5995 91.4582 80.5995C91.4582 80.5995 91.4582 80.5995 91.4582 80.5995C91.4583 80.5995 91.4583 80.5994 91.7316 80.8562ZM95.3305 74.5439C95.4556 72.9406 95.5231 71.5449 95.734 70.3894C95.9449 69.2342 96.2859 68.409 96.8923 67.8989L96.4095 67.325C95.599 68.0068 95.2164 69.0486 94.9962 70.2547C94.7761 71.4603 94.7049 72.9201 94.5828 74.4855L95.3305 74.5439ZM96.8924 67.8988C97.5891 67.3122 98.3578 66.7508 99.1121 66.3606C99.8745 65.9663 100.575 65.7716 101.154 65.8509L101.256 65.1078C100.451 64.9975 99.5824 65.273 98.7676 65.6945C97.9447 66.1201 97.1283 66.7198 96.4094 67.3251L96.8924 67.8988ZM101.155 65.851C102.434 66.0236 104.475 66.8961 105.358 69.612L106.072 69.3799C105.079 66.3287 102.75 65.3094 101.255 65.1077L101.155 65.851Z" fill="#CE6200"/>
<path fill-rule="evenodd" clip-rule="evenodd" d="M149.801 80.2327C147.003 80.2144 144.75 77.9183 144.77 75.1053C144.788 72.2924 147.071 70.029 149.87 70.0473C152.667 70.0656 154.92 72.3618 154.9 75.1747C154.882 77.9876 152.599 80.2523 149.801 80.2327ZM149.879 68.6611C146.321 68.6375 143.416 71.5185 143.391 75.0981C143.368 78.675 146.233 81.5952 149.793 81.6201C153.352 81.6437 156.256 78.7627 156.28 75.1831C156.304 71.6061 153.438 68.6859 149.879 68.6611Z" fill="#FFC72C"/>
<path fill-rule="evenodd" clip-rule="evenodd" d="M142.483 61.458L144.885 57.8352H154.85L157.011 61.4567L149.747 69.5448L142.483 61.4567L142.483 61.458Z" fill="#8BD9F7"/>
<path d="M142.671 61.2533C142.561 61.2533 142.471 61.3428 142.471 61.4533C142.471 61.5638 142.561 61.6533 142.671 61.6533V61.2533ZM156.819 61.6533C156.93 61.6533 157.019 61.5638 157.019 61.4533C157.019 61.3428 156.93 61.2533 156.819 61.2533V61.6533ZM145.036 57.873C144.971 57.7836 144.846 57.7637 144.757 57.8286C144.667 57.8935 144.648 58.0186 144.712 58.108L145.036 57.873ZM147.392 61.4576L147.23 61.5751C147.268 61.6278 147.33 61.6586 147.395 61.6575C147.46 61.6564 147.521 61.6236 147.557 61.5696L147.392 61.4576ZM149.736 57.9905L149.899 57.8744C149.861 57.8211 149.799 57.7897 149.734 57.7905C149.668 57.7913 149.607 57.8242 149.57 57.8784L149.736 57.9905ZM152.206 61.4576L152.043 61.5736C152.08 61.6254 152.14 61.6566 152.203 61.6575C152.267 61.6585 152.327 61.6292 152.365 61.5785L152.206 61.4576ZM154.998 58.1114C155.065 58.0234 155.047 57.898 154.959 57.8312C154.872 57.7644 154.746 57.7816 154.679 57.8695L154.998 58.1114ZM142.671 61.6533H156.819V61.2533H142.671V61.6533ZM144.712 58.108L147.23 61.5751L147.553 61.3401L145.036 57.873L144.712 58.108ZM147.557 61.5696L149.902 58.1025L149.57 57.8784L147.226 61.3455L147.557 61.5696ZM149.573 58.1065L152.043 61.5736L152.369 61.3415L149.899 57.8744L149.573 58.1065ZM152.365 61.5785L154.998 58.1114L154.679 57.8695L152.047 61.3366L152.365 61.5785Z" fill="white"/>
<path d="M147.45 61.4575C147.45 61.4575 149.699 69.0118 149.795 69.3873L152.266 61.4561" stroke="white" stroke-width="0.4" stroke-linecap="round" stroke-linejoin="round"/>
<path fill-rule="evenodd" clip-rule="evenodd" d="M259.885 66.0966H250.228C250.054 66.0965 249.906 66.223 249.879 66.3949L247.498 81.3662C247.481 81.4689 247.511 81.5736 247.578 81.6526C247.646 81.7317 247.745 81.7772 247.849 81.777H271.922C272.139 81.777 272.307 81.5808 272.273 81.3662L269.891 66.3949C269.863 66.2234 269.715 66.0975 269.541 66.0966H259.885Z" fill="#FFDB6C"/>
<path d="M269.875 67.4586L263.867 75.1333C263.801 75.2173 263.701 75.2664 263.594 75.2668H256.174C256.068 75.2664 255.968 75.2172 255.902 75.1333L249.893 67.4586" stroke="#E3A700" stroke-width="0.5"/>
<path fill-rule="evenodd" clip-rule="evenodd" d="M259.021 76.6365H260.619V73.8968H259.021V76.6365Z" fill="#FFF8E6"/>
<path d="M253.713 66.097C255.147 59.8223 257.655 55.578 259.815 55.7049C261.885 55.8279 263.769 59.9767 264.504 61.5964C265.308 63.3626 265.704 64.9496 265.917 66.097" stroke="#3F5663" stroke-width="0.5"/>
<path d="M339.763 171.378L278.565 130.477L287.329 117.363L348.526 158.264L339.763 171.378Z" fill="#FFC72C"/>
<path d="M340.486 171.77L278.13 130.095L282.575 123.444L344.931 165.119L340.486 171.77Z" fill="#E3A700"/>
<path d="M344.135 174.3L339.763 171.378L348.528 158.264L352.9 161.186C353.48 161.573 353.882 162.175 354.018 162.859C354.154 163.543 354.012 164.253 353.625 164.833L347.781 173.575C346.974 174.781 345.342 175.106 344.135 174.3Z" fill="#FF8B65"/>
<path d="M278.565 130.477L271.814 118.631C270.998 117.199 272.166 115.45 273.802 115.656L287.329 117.363L278.565 130.477Z" fill="#EAC6A7"/>
<path d="M274.199 122.816L271.814 118.63C270.998 117.198 272.166 115.449 273.802 115.655L278.581 116.259L274.199 122.816Z" fill="#022786"/>
</g>
</svg>
