<?xml version="1.0" encoding="UTF-8"?>
<svg width="300px" height="200px" viewBox="0 0 300 200" version="1.1" xmlns="http://www.w3.org/2000/svg" xmlns:xlink="http://www.w3.org/1999/xlink">
    <!-- Generator: Sketch 54.1 (76490) - https://sketchapp.com -->
    <title>Mask@1x</title>
    <desc>Created with Sketch.</desc>
    <defs>
        <rect id="path-1" x="0" y="0" width="300" height="200"></rect>
        <path d="M36.3045759,97.0170073 C40.9306431,97.7298132 46.0162923,96.7207948 51.5615234,93.9899523 C61.2841797,89.2018664 72.8476563,81.001671 93.7646484,93.9899523 C114.681641,106.978234 132.142578,107.141602 142.611328,103.916992 C148.800634,102.010547 155.632523,99.1923801 163.106994,95.4624902 L163.107001,95.4625029 C164.095339,94.9693051 165.296361,95.3706958 165.789559,96.359034 C165.927958,96.6363765 166,96.942091 166,97.2520476 L166,140.493859 L33.9999879,140.493859 L33.9999879,98.9936905 C33.9999882,97.8891147 34.8954241,96.9936794 35.9999999,96.9936797 C36.1019714,96.9936797 36.2037937,97.0014783 36.3045759,97.0170073 Z" id="path-3"></path>
        <path d="M20,16 C21.1045695,16 22,16.8954305 22,18 L22,30 C22,31.1045695 21.1045695,32 20,32 C18.8954305,32 18,31.1045695 18,30 L18,18 C18,16.8954305 18.8954305,16 20,16 Z M20,14 C18.8954305,14 18,13.1045695 18,12 C18,10.8954305 18.8954305,10 20,10 C21.1045695,10 22,10.8954305 22,12 C22,13.1045695 21.1045695,14 20,14 Z" id="path-4"></path>
        <rect id="path-6" x="21" y="15" width="132" height="14" rx="2"></rect>
        <rect id="path-7" x="0" y="8" width="56" height="24" rx="2"></rect>
    </defs>
    <g id="Dashboard-onboarding_V5" stroke="none" stroke-width="1" fill="none" fill-rule="evenodd">
        <g id="Illustration_poor-sales">
            <g id="Group-3">
                <mask id="mask-2" fill="white">
                    <use xlink:href="#path-1"></use>
                </mask>
                <use id="Mask" fill-opacity="0" fill="#EC5454" xlink:href="#path-1"></use>
                <g mask="url(#mask-2)">
                    <g transform="translate(34.000000, 24.000000)">
                        <rect id="Store_Wall" stroke="none" fill="#E9F3FF" fill-rule="nonzero" x="21" y="44" width="132" height="96" rx="2"></rect>
                        <g id="Path-3" stroke="none" fill="none" style="mix-blend-mode: darken;" fill-rule="evenodd">
                            <use fill="#FFFFFF" xlink:href="#path-3"></use>
                            <use fill-opacity="0.5" fill="#EE6C6B" xlink:href="#path-3"></use>
                        </g>
                        <path d="M152.877693,55 L23,55 C21.8954305,55 21,55.8954305 21,57 L21,72.6231871 C22.8908111,74.1582286 25.2986008,75.0013079 27.7880473,74.9999985 C33.6140949,74.9999985 38.3370396,70.5228463 38.3370396,64.9999992 C38.3370396,70.5228463 43.0599844,74.9999985 48.886032,74.9999985 C54.7120796,74.9999985 59.4350243,70.5228463 59.4350243,64.9999992 C59.4350243,70.5228463 64.1579691,74.9999985 69.9840167,74.9999985 C75.8100643,74.9999985 80.533009,70.5228463 80.533009,64.9999992 C80.533009,70.5228463 85.2559538,74.9999985 91.0820014,74.9999985 C96.908049,74.9999985 101.630994,70.5228463 101.630994,64.9999992 C101.630994,70.5228463 106.353938,74.9999985 112.179986,74.9999985 C118.006034,74.9999985 122.728978,70.5228463 122.728978,64.9999992 C122.728978,70.5228463 127.451923,74.9999985 133.277971,74.9999985 C139.104018,74.9999985 143.826963,70.5228463 143.826963,64.9999992 C143.844978,70.0008228 147.767931,74.2154562 153,74.855071 L152.877693,55 Z" id="Shadow_TOp" stroke="none" fill-opacity="0.2" fill="#2F88EC" fill-rule="nonzero"></path>
                        <rect id="Rectangle-path" stroke="none" fill="#2F88EC" fill-rule="nonzero" x="29" y="61" width="5" height="22.5" rx="2.5"></rect>
                        <rect id="Rectangle-path" stroke="none" fill="#2F88EC" fill-rule="nonzero" x="29" y="110" width="5" height="32" rx="2.5"></rect>
                        <rect id="Rectangle-path" stroke="none" fill="#2F88EC" fill-rule="nonzero" x="157" y="119" width="5" height="22.5" rx="2.5"></rect>
                        <rect id="Rectangle-path" stroke="none" fill="#2F88EC" fill-rule="nonzero" x="157" y="61" width="5" height="22" rx="2.5"></rect>
                        <path d="M28,29 L166,29 C167.656854,29 169,30.3431458 169,32 L169,32 C169,33.6568542 167.656854,35 166,35 L28,35 C26.3431458,35 25,33.6568542 25,32 L25,32 C25,30.3431458 26.3431458,29 28,29 Z" id="Rectangle-path" stroke="none" fill="#2F88EC" fill-rule="nonzero"></path>
                        <rect id="Rectangle-path" stroke="none" fill="#2F88EC" fill-rule="nonzero" x="61" y="10" width="108" height="5" rx="2.5"></rect>
                        <path d="M95.3500871,70.35 C101.066234,70.35 105.700087,65.7161472 105.700087,60 L85,60 C84.9920887,62.7474349 86.0799633,65.3846477 88.0227014,67.3273857 C89.9654395,69.2701238 92.6026522,70.3579984 95.3500871,70.35 L95.3500871,70.35 Z" id="Shape" stroke="none" fill="#2F88EC" fill-rule="nonzero"></path>
                        <path d="M74.3500871,70.35 C80.0662343,70.35 84.7000871,65.7161472 84.7000871,60 L64,60 C63.9920887,62.7474349 65.0799633,65.3846477 67.0227014,67.3273857 C68.9654395,69.2701238 71.6026522,70.3579984 74.3500871,70.35 L74.3500871,70.35 Z" id="Shape" stroke="none" fill="#2F88EC" fill-rule="nonzero"></path>
                        <path d="M53.3500871,70.35 C59.0662343,70.35 63.7000871,65.7161472 63.7000871,60 L43,60 C42.9920887,62.7474349 44.0799633,65.3846477 46.0227014,67.3273857 C47.9654395,69.2701238 50.6026522,70.3579984 53.3500871,70.35 L53.3500871,70.35 Z" id="Shape" stroke="none" fill="#2F88EC" fill-rule="nonzero"></path>
                        <path d="M32.5000962,70.35 C38.2162433,70.35 42.8500962,65.7161472 42.8500962,60 L22,60 C21.9916109,62.7737069 23.100017,65.4340658 25.0753922,67.3812214 C27.0507675,69.3283769 29.7267985,70.3983918 32.5000962,70.35 L32.5000962,70.35 Z" id="Shape" stroke="none" fill="#2F88EC" fill-rule="nonzero"></path>
                        <path d="M115.350087,70.35 C121.066234,70.35 125.700087,65.7161472 125.700087,60 L105,60 C104.992089,62.7474349 106.079963,65.3846477 108.022701,67.3273857 C109.965439,69.2701238 112.602652,70.3579984 115.350087,70.35 L115.350087,70.35 Z" id="Shape" stroke="none" fill="#2F88EC" fill-rule="nonzero"></path>
                        <path d="M136.350087,70.35 C142.066234,70.35 146.700087,65.7161472 146.700087,60 L126,60 C125.992089,62.7474349 127.079963,65.3846477 129.022701,67.3273857 C130.965439,69.2701238 133.602652,70.3579984 136.350087,70.35 L136.350087,70.35 Z" id="Shape" stroke="none" fill="#2F88EC" fill-rule="nonzero"></path>
                        <path d="M157.350087,70.35 C163.066234,70.35 167.700087,65.7161472 167.700087,60 L147,60 C146.992089,62.7474349 148.079963,65.3846477 150.022701,67.3273857 C151.965439,69.2701238 154.602652,70.3579984 157.350087,70.35 L157.350087,70.35 Z" id="Shape" stroke="none" fill="#2F88EC" fill-rule="nonzero"></path>
                        <polygon id="Rectangle-path" stroke="none" fill="#F8FAFB" fill-rule="nonzero" points="84.6 35 105.3 35 105.3 55 84.6 55"></polygon>
                        <polygon id="Shape" stroke="none" fill="#50E3C2" fill-rule="nonzero" style="mix-blend-mode: darken;" points="84.7 31 66.58 31 64 51 84.7 51"></polygon>
                        <polygon id="Shape" stroke="none" fill="#F8FAFB" fill-rule="nonzero" points="66.48 35 45.78 35 43.2 55 63.9 55"></polygon>
                        <polygon id="Shape" stroke="none" fill="#50E3C2" fill-rule="nonzero" style="mix-blend-mode: darken;" points="43.78 31 25.66 31 20.5 51 41.2 51"></polygon>
                        <polygon id="Shape" stroke="none" fill="#50E3C2" fill-rule="nonzero" style="mix-blend-mode: darken;" points="123.09 31 105 31 105 51 125.7 51"></polygon>
                        <polygon id="Shape" stroke="none" fill="#F8FAFB" fill-rule="nonzero" points="144.09 35 123.39 35 126 55 146.7 55"></polygon>
                        <polygon id="Shape" stroke="none" fill="#50E3C2" fill-rule="nonzero" style="mix-blend-mode: darken;" points="162.12 31 144 31 146.61 51 167.31 51"></polygon>
                        <rect id="Rectangle-path" stroke="none" fill="#2F88EC" fill-rule="nonzero" x="29" y="102" width="5" height="5" rx="2.5"></rect>
                        <rect id="Rectangle-path" stroke="none" fill="#2F88EC" fill-rule="nonzero" x="157" y="86" width="5" height="5" rx="2.5"></rect>
                        <g id="Group-2" stroke="none" stroke-width="1" fill="none" fill-rule="evenodd" transform="translate(25.000000, 10.000000)">
                            <rect id="Rectangle-path" fill="#2F88EC" fill-rule="nonzero" x="0" y="0" width="21" height="5" rx="2.5"></rect>
                            <rect id="Rectangle-path" fill="#2F88EC" fill-rule="nonzero" x="24" y="0" width="6" height="5" rx="2.5"></rect>
                        </g>
                        <path d="M28.5,140 L166.5,140 C168.156854,140 169.5,141.343146 169.5,143 L169.5,143 C169.5,144.656854 168.156854,146 166.5,146 L28.5,146 C26.8431458,146 25.5,144.656854 25.5,143 L25.5,143 C25.5,141.343146 26.8431458,140 28.5,140 Z" id="Store_Base" stroke="none" fill="#2F88EC" fill-rule="nonzero"></path>
                        <g id="Group" stroke="none" stroke-width="1" fill="none" fill-rule="evenodd" transform="translate(76.000000, 81.000000)">
                            <path d="M20,42 C7.8497355,42 -2,32.1502645 -2,20 C-2,7.8497355 7.8497355,-2 20,-2 C32.1502645,-2 42,7.8497355 42,20 C42,32.1502645 32.1502645,42 20,42 Z" id="Oval-2" stroke="#FFFFFF" stroke-width="4" fill="#EE6C6B" fill-rule="nonzero"></path>
                            <mask id="mask-5" fill="white">
                                <use xlink:href="#path-4"></use>
                            </mask>
                            <use id="Mask" fill="#EE6C6B" xlink:href="#path-4"></use>
                            <rect id="Rectangle-20" fill="#FFFFFF" mask="url(#mask-5)" x="18" y="16" width="4" height="16" rx="2"></rect>
                            <circle id="Oval-3" fill="#FFFFFF" mask="url(#mask-5)" cx="20" cy="12" r="2"></circle>
                        </g>
                        <g id="Rectangle-31" stroke="none" fill="none" transform="translate(87.000000, 22.000000) scale(1, -1) translate(-87.000000, -22.000000) " fill-rule="evenodd">
                            <use fill="#FFFFFF" style="mix-blend-mode: darken;" xlink:href="#path-6"></use>
                            <use fill-opacity="0.2" fill="#2F88EC" style="mix-blend-mode: darken;" xlink:href="#path-6"></use>
                        </g>
                        <rect id="Rectangle-path" stroke="none" fill="#2F88EC" fill-rule="nonzero" x="29" y="13" width="5" height="21" rx="2.5"></rect>
                        <rect id="Rectangle-path" stroke="none" fill="#2F88EC" fill-rule="nonzero" x="19" y="55" width="152" height="5" rx="2.5"></rect>
                        <rect id="Rectangle-31" stroke="none" fill="#E9F3FF" fill-rule="evenodd" style="mix-blend-mode: darken;" transform="translate(3.000000, 149.000000) scale(1, -1) translate(-3.000000, -149.000000) " x="0" y="146" width="6" height="6" rx="3"></rect>
                        <path d="M206,146 L220,146 C221.656854,146 223,147.343146 223,149 L223,149 C223,150.656854 221.656854,152 220,152 L206,152 C204.343146,152 203,150.656854 203,149 L203,149 C203,147.343146 204.343146,146 206,146 Z" id="Rectangle-path" stroke="none" fill="#E9F3FF" fill-rule="nonzero" style="mix-blend-mode: darken;"></path>
                        <rect id="Rectangle-31" stroke="none" fill="#E9F3FF" fill-rule="evenodd" style="mix-blend-mode: darken;" transform="translate(105.000000, 149.000000) scale(1, -1) translate(-105.000000, -149.000000) " x="10" y="146" width="190" height="6" rx="3"></rect>
                        <circle id="Oval-11" stroke="#FFFFFF" stroke-width="4" fill="#EE6C6B" fill-rule="evenodd" cx="163" cy="14" r="10"></circle>
                        <path d="M181,17.6568542 L177,13.6568542 L181,9.65685425 L181,2 C181,0.8954305 181.895431,2.02906125e-16 183,0 L231,0 C232.104569,-2.02906125e-16 233,0.8954305 233,2 L233,26 C233,27.1045695 232.104569,28 231,28 L183,28 C181.895431,28 181,27.1045695 181,26 L181,17.6568542 Z" id="Combined-Shape" stroke="none" fill-opacity="0.2" fill="#2F88EC" fill-rule="evenodd"></path>
                        <rect id="Rectangle-28" stroke="none" fill-opacity="0.4" fill="#2F88EC" fill-rule="evenodd" x="187" y="5" width="32" height="4" rx="2"></rect>
                        <rect id="Rectangle-28" stroke="none" fill-opacity="0.4" fill="#2F88EC" fill-rule="evenodd" x="187" y="12" width="32" height="4" rx="2"></rect>
                        <rect id="Rectangle-28" stroke="none" fill-opacity="0.4" fill="#2F88EC" fill-rule="evenodd" x="187" y="19" width="20" height="4" rx="2"></rect>
                        <g id="Group-36" stroke="none" stroke-width="1" fill="none" fill-rule="evenodd" transform="translate(181.000000, 34.000000)">
                            <path d="M0,1.99406028 C0,0.892771196 0.902557373,0 2.00659927,0 L49.9934007,0 C51.1016149,0 52,0.894513756 52,1.99406028 L52,14.0059397 C52,15.1072288 51.0974426,16 49.9934007,16 L2.00659927,16 C0.898385094,16 0,15.1054862 0,14.0059397 L0,1.99406028 Z" id="BG" fill="#EE6C6B"></path>
                        </g>
                        <rect id="Rectangle-28" stroke="none" fill="#FFFFFF" fill-rule="evenodd" x="187" y="40" width="32" height="4" rx="2"></rect>
                        <rect id="Rectangle-31" stroke="none" fill="#E9F3FF" fill-rule="evenodd" style="mix-blend-mode: darken;" transform="translate(189.000000, 79.000000) scale(1, -1) translate(-189.000000, -79.000000) " x="181" y="76" width="16" height="6" rx="3"></rect>
                        <g id="Group-61" stroke="none" stroke-width="1" fill="none" fill-rule="evenodd" transform="translate(123.000000, 114.000000)">
                            <rect id="Rectangle-31" stroke="#2F88EC" stroke-width="4" fill="#FFFFFF" transform="translate(36.000000, 16.000000) scale(1, -1) translate(-36.000000, -16.000000) " x="6" y="2" width="60" height="28" rx="4"></rect>
                            <g id="Rectangle-31" transform="translate(28.000000, 20.000000) scale(1, -1) translate(-28.000000, -20.000000) ">
                                <use fill="#FFFFFF" style="mix-blend-mode: darken;" xlink:href="#path-7"></use>
                                <use fill-opacity="0.4" fill="#2FB7EC" style="mix-blend-mode: darken;" xlink:href="#path-7"></use>
                            </g>
                            <path d="M15.5000054,2.3261827 L15.5000005,18.4008939 L28.5,18.4008939 L28.5,2.32618148 C27.8684565,2.61440655 27.1438734,2.62750744 26.5006069,2.35947963 L24.556785,1.54955353 L23.1180374,2.26892761 C22.4142185,2.62083721 21.5857877,2.62083721 20.8819687,2.26892761 L19.4432211,1.54955353 L17.4993992,2.35947963 C16.8561325,2.62750756 16.131549,2.61440654 15.5000053,2.32618172 Z" id="Rectangle-31" stroke="#2F88EC" stroke-width="3" fill="#FFFFFF" transform="translate(22.000000, 9.950447) scale(1, -1) translate(-22.000000, -9.950447) "></path>
                            <rect id="Rectangle-31" fill="#2F88EC" transform="translate(46.000000, 17.000000) scale(1, -1) translate(-46.000000, -17.000000) " x="44" y="8" width="4" height="18" rx="2"></rect>
                            <rect id="Rectangle-32" fill="#2FB7EC" x="51" y="18" width="10" height="6" rx="1"></rect>
                        </g>
                        <rect id="Rectangle-path" stroke="none" fill="#2F88EC" fill-rule="nonzero" x="177" y="142" width="21" height="4" rx="2"></rect>
                        <path d="M184,56 L210,56 C211.656854,56 213,57.3431458 213,59 L213,59 C213,60.6568542 211.656854,62 210,62 L184,62 C182.343146,62 181,60.6568542 181,59 L181,59 C181,57.3431458 182.343146,56 184,56 Z" id="Rectangle-path" stroke="none" fill="#E9F3FF" fill-rule="nonzero" style="mix-blend-mode: darken;"></path>
                        <path d="M184,66 L210,66 C211.656854,66 213,67.3431458 213,69 L213,69 C213,70.6568542 211.656854,72 210,72 L184,72 C182.343146,72 181,70.6568542 181,69 L181,69 C181,67.3431458 182.343146,66 184,66 Z" id="Rectangle-path" stroke="none" fill="#E9F3FF" fill-rule="nonzero" style="mix-blend-mode: darken;"></path>
                    </g>
                </g>
            </g>
        </g>
    </g>
</svg>