<svg width="20" height="20" viewBox="0 0 20 20" fill="none" xmlns="http://www.w3.org/2000/svg">
<path d="M7.08333 2.5H3.75C3.05964 2.5 2.5 3.05965 2.5 3.75V7.08333C2.5 7.77369 3.05965 8.33333 3.75 8.33333H7.08333C7.77369 8.33333 8.33333 7.77369 8.33333 7.08333V3.75C8.33333 3.05964 7.77369 2.5 7.08333 2.5Z" stroke="#3F5663" stroke-width="1.25" stroke-linecap="round" stroke-linejoin="round"/>
<path d="M16.2501 2.5H12.9167C12.2264 2.5 11.6667 3.05965 11.6667 3.75V7.08333C11.6667 7.77369 12.2264 8.33333 12.9167 8.33333H16.2501C16.9404 8.33333 17.5001 7.77369 17.5001 7.08333V3.75C17.5001 3.05964 16.9404 2.5 16.2501 2.5Z" stroke="#3F5663" stroke-width="1.25" stroke-linecap="round" stroke-linejoin="round"/>
<path d="M16.2501 11.6667H12.9167C12.2264 11.6667 11.6667 12.2263 11.6667 12.9167V16.25C11.6667 16.9404 12.2264 17.5 12.9167 17.5H16.2501C16.9404 17.5 17.5001 16.9404 17.5001 16.25V12.9167C17.5001 12.2263 16.9404 11.6667 16.2501 11.6667Z" stroke="#3F5663" stroke-width="1.25" stroke-linecap="round" stroke-linejoin="round"/>
<path d="M7.08333 11.6667H3.75C3.05964 11.6667 2.5 12.2263 2.5 12.9167V16.25C2.5 16.9404 3.05965 17.5 3.75 17.5H7.08333C7.77369 17.5 8.33333 16.9404 8.33333 16.25V12.9167C8.33333 12.2263 7.77369 11.6667 7.08333 11.6667Z" stroke="#3F5663" stroke-width="1.25" stroke-linecap="round" stroke-linejoin="round"/>
</svg>
