<svg width="20" height="20" viewBox="0 0 20 20" fill="none" xmlns="http://www.w3.org/2000/svg">
<path d="M10.8639 16.2483H1.69727V18.3316H10.8639V16.2483Z" stroke="#3F5663" stroke-width="1.25" stroke-miterlimit="10" stroke-linecap="round" stroke-linejoin="round"/>
<path d="M9.99805 16.2485V14.5818H2.49805V16.2485" stroke="#3F5663" stroke-width="1.25" stroke-miterlimit="10" stroke-linecap="round" stroke-linejoin="round"/>
<path d="M9.38278 2.41043L4.00513 7.78809L7.46783 11.2508L12.8455 5.87313L9.38278 2.41043Z" stroke="#3F5663" stroke-width="1.25" stroke-miterlimit="10" stroke-linecap="round" stroke-linejoin="round"/>
<path d="M10.019 9.49878L15.0108 14.4905M11.0946 8.42325L16.0863 13.415" stroke="#3F5663" stroke-width="1.25" stroke-miterlimit="10" stroke-linecap="round" stroke-linejoin="round"/>
<path d="M10.0594 0.934479L8.98389 2.01001L13.2457 6.27179L14.3212 5.19626L10.0594 0.934479Z" stroke="#3F5663" stroke-width="1.25" stroke-miterlimit="10" stroke-linecap="round" stroke-linejoin="round"/>
<path d="M3.60605 7.38809L2.53052 8.46362L6.7923 12.7254L7.86783 11.6499L3.60605 7.38809Z" stroke="#3F5663" stroke-width="1.25" stroke-miterlimit="10" stroke-linecap="round" stroke-linejoin="round"/>
<path d="M17.0378 15.4407C17.4834 14.995 17.4834 14.2725 17.0378 13.8269C16.5922 13.3813 15.8697 13.3813 15.4241 13.8269C14.9784 14.2725 14.9784 14.995 15.4241 15.4407C15.8697 15.8863 16.5922 15.8863 17.0378 15.4407Z" stroke="#3F5663" stroke-width="1.25" stroke-miterlimit="10" stroke-linecap="round" stroke-linejoin="round"/>
</svg>
