<svg width="20" height="20" viewBox="0 0 20 20" fill="none" xmlns="http://www.w3.org/2000/svg">
<path d="M10.0001 18.3334C14.6025 18.3334 18.3334 14.6025 18.3334 10.0001C18.3334 5.39771 14.6025 1.66675 10.0001 1.66675C5.39771 1.66675 1.66675 5.39771 1.66675 10.0001C1.66675 14.6025 5.39771 18.3334 10.0001 18.3334Z" stroke="#3F5663" stroke-width="1.25" stroke-linecap="round" stroke-linejoin="round"/>
<path d="M7.5 7.08714C7.69592 6.5302 8.08263 6.06057 8.59163 5.76142C9.10063 5.46228 9.69908 5.35293 10.281 5.45274C10.8629 5.55255 11.3907 5.85508 11.7709 6.30675C12.1511 6.75842 12.3592 7.33008 12.3583 7.92048C12.3583 9.02508 11.2602 9.76364 10.5195 10.1362C10.135 10.3296 9.85833 10.7108 9.85833 11.1412V12.0867" stroke="#3F5663" stroke-width="1.25" stroke-linecap="round" stroke-linejoin="round"/>
<path d="M9.92505 14.5867H9.93338" stroke="#3F5663" stroke-width="1.25" stroke-linecap="round" stroke-linejoin="round"/>
</svg>
