<svg width="20" height="20" viewBox="0 0 20 20" fill="none" xmlns="http://www.w3.org/2000/svg">
<path d="M2.5 8.11134C2.5 7.72561 2.67809 7.36147 2.98257 7.12465L9.23257 2.26354C9.68396 1.91246 10.316 1.91246 10.7674 2.26354L17.0174 7.12465C17.3219 7.36147 17.5 7.72561 17.5 8.11134V16.6667C17.5 17.1087 17.3244 17.5326 17.0118 17.8452C16.6993 18.1577 16.2754 18.3333 15.8333 18.3333H4.16667C3.72464 18.3333 3.30072 18.1577 2.98816 17.8452C2.67559 17.5326 2.5 17.1087 2.5 16.6667V8.11134Z" stroke="#3F5663" stroke-width="1.25" stroke-linecap="round" stroke-linejoin="round"/>
<path d="M7.5 18.3333V11.25C7.5 10.5596 8.05964 10 8.75 10H11.25C11.9404 10 12.5 10.5596 12.5 11.25V18.3333" stroke="#3F5663" stroke-width="1.25" stroke-linecap="round" stroke-linejoin="round"/>
</svg>
