<svg width="20" height="20" viewBox="0 0 20 20" fill="none" xmlns="http://www.w3.org/2000/svg">
<path d="M10 10.625C10.3452 10.625 10.625 10.3452 10.625 10C10.625 9.65482 10.3452 9.375 10 9.375C9.65482 9.375 9.375 9.65482 9.375 10C9.375 10.3452 9.65482 10.625 10 10.625Z" stroke="#3F5663" stroke-width="1.25" stroke-linecap="round" stroke-linejoin="round"/>
<path d="M5.41675 10.625C5.76193 10.625 6.04175 10.3452 6.04175 10C6.04175 9.65482 5.76193 9.375 5.41675 9.375C5.07157 9.375 4.79175 9.65482 4.79175 10C4.79175 10.3452 5.07157 10.625 5.41675 10.625Z" stroke="#3F5663" stroke-width="1.25" stroke-linecap="round" stroke-linejoin="round"/>
<path d="M14.5833 10.625C14.9284 10.625 15.2083 10.3452 15.2083 10C15.2083 9.65482 14.9284 9.375 14.5833 9.375C14.2381 9.375 13.9583 9.65482 13.9583 10C13.9583 10.3452 14.2381 10.625 14.5833 10.625Z" stroke="#3F5663" stroke-width="1.25" stroke-linecap="round" stroke-linejoin="round"/>
</svg>
