<svg width="20" height="20" viewBox="0 0 20 20" fill="none" xmlns="http://www.w3.org/2000/svg">
<path fill-rule="evenodd" clip-rule="evenodd" d="M2.10873 1.22472C1.86465 0.980647 1.46892 0.980647 1.22485 1.22472C0.980769 1.4688 0.980769 1.86453 1.22485 2.10861L2.89119 3.77495C2.77405 4.01972 2.70846 4.29387 2.70846 4.58333V9.48223C2.70846 9.97951 2.906 10.4564 3.25763 10.8081L10.341 17.8914C11.0732 18.6236 12.2604 18.6236 12.9926 17.8914L17.8915 12.9925C18.6237 12.2603 18.6237 11.0731 17.8915 10.3408L10.8082 3.25751C10.4565 2.90588 9.97964 2.70833 9.48236 2.70833H4.58345C4.29399 2.70833 4.01984 2.77393 3.77507 2.89106L2.10873 1.22472ZM3.95846 4.84222V9.48223C3.95846 9.64799 4.0243 9.80696 4.14151 9.92417L11.2248 17.0075C11.4689 17.2516 11.8647 17.2516 12.1087 17.0075L17.0076 12.1086C17.2517 11.8645 17.2517 11.4688 17.0076 11.2247L9.9243 4.14139C9.80709 4.02418 9.64812 3.95833 9.48236 3.95833H4.84234L5.8584 4.9744C6.10318 4.85726 6.37732 4.79167 6.66679 4.79167C7.70232 4.79167 8.54179 5.63113 8.54179 6.66667C8.54179 7.7022 7.70232 8.54167 6.66679 8.54167C5.63125 8.54167 4.79179 7.7022 4.79179 6.66667C4.79179 6.3772 4.85738 6.10305 4.97452 5.85828L3.95846 4.84222ZM6.66679 6.04167C6.32161 6.04167 6.04179 6.32149 6.04179 6.66667C6.04179 7.01184 6.32161 7.29167 6.66679 7.29167C7.01197 7.29167 7.29179 7.01184 7.29179 6.66667C7.29179 6.32149 7.01197 6.04167 6.66679 6.04167Z" fill="#3F5663"/>
</svg>
