<svg xmlns="http://www.w3.org/2000/svg" xmlns:xlink="http://www.w3.org/1999/xlink" width="128" height="128" viewBox="0 0 128 128">
    <defs>
        <path id="a" d="M0 0h128v128H0z"/>
    </defs>
    <g fill="none" fill-rule="evenodd">
        <mask id="b" fill="#fff">
            <use xlink:href="#a"/>
        </mask>
        <use fill="#AFC7D1" fill-opacity="0" fill-rule="nonzero" xlink:href="#a"/>
        <g fill="#AFC7D1" mask="url(#b)">
            <path d="M111.612 27.828l-.263 3.684-.275 3.68-.262 3.683-.274 3.683-.26 3.696-.277 3.681-.523 7.381-.548 7.378-.262 3.684-.263 3.68-.274 3.697-.275 3.681-.522 7.397-.276 3.68-.261 3.698-.274 3.682-.263 3.698-.274 3.697-.262 3.683-.274 3.696-.263 3.697-.275 3.683-.26 3.698-.276 3.697v.092l-.357-.03-.675-.062-.674-.062-.673-.062-.675-.062-.673-.062-.675-.062-.672-.062-.675-.063-.673-.078-.675-.064-.674-.062-.673-.06-.675-.064-.675-.076-.673-.063-.674-.076-.675-.062-.672-.062-.674-.078-.674-.062-.675-.062-.673-.08-.674-.063-.674-.076-.674-.062-.675-.078-.673-.062-.674-.078-.674-.062-.661-.077-.688-.062-.659-.078-.675-.078-.673-.062-.674-.08-.675-.075-.673-.062-.675-.078-.673-.078-.674-.078-.675-.062-.673-.078-.673-.076-.675-.078-.907-.095-.936-.248-.412-.233-.785-.435-.783-.434-.77-.436-.785-.45-.783-.435-.77-.435-.785-.435-.77-.45-6.19-3.402-6.147-3.418-6.148-3.465-6.122-3.464-6.106-3.511-6.08-3.526-6.051-3.542-6.039-3.575-.55-.327-.068-.044.22-.202.317-.824.067-.435-.081-.45.316-.514.095-.126.4-.308.138-.124.219-.327.166-.341.178-.497.096-.264.647-.39 1.569.606.673-.062.179-.294.068-.374.027-.372.097-.357.234-.25.632-.355.207-.25.096-.435-.096-1.367.055-.265.055-.186.028-.201-.028-.28-.343-.762-.497-.42-1.387-.325-.58-.357-.37-.808.137-.715.316-.745.193-.886-.014-1.211-.068-.296-.413-.699v-.31l.22-.561.206-.185.083-.171-.069-.233-.097-.186-.136-.296-.042-.249.165-.094.757.062.398-.076.303-.187.702-1.134.207-.481.178-.19.343-.307.249-.265.068-.14.082-.264-.028-.467.043-.278.136-.093.069-.094.042-.232.04-.45.124-.5.207-.263.207-.218.136-.277-.124-.405-.04-.234.097-.092.067-.11.042-.233.014-.248-.042-.123-.164-.25.014-.513.055-.528v-.31l.316-.218.136-.17v-.189l-.246-.449-.097-.248-.028-.249.152-.45.276-.25.659-.356.276-.25.29-.295.218-.371.221-.87.205-.358.276-.265.578-.108 1.705-1.027.303-.045.563-.636.578-.497.523-.343.165-.264-.041-.451.028-.28-.441-.433-.15-.25-.139-.155-.247-.202-1.142-1.227-.192-.342-.07-.077-.273-.28-.055-.08-.111-.17-.055-.061-.055-.032-.069-.03-.207-.032-.082-.046-.068-.108-.056-.14-.013-.265v-.187l.013-.014.11-.312.11-.278-.123-.233-.028-.017-.027-.434-.138-.233-.178-.202-.152-.373v-.14l.083-.481v-.172l-.055-.108-.055-.095-.716-2.437-.399-.14-.288-.264-.152-.419.042-.592-.028-.262-.083-.342-.138-.312-.206-.155-.22-.123-.081-.266.122-2.453.014-.156.014-.233-.069-.7.412-.466.083-.201-.026-.28-.234-.419-.056-.203.083-.28.164-.046.207.03.22-.03.193-.062.07-.062.233-.808.069-.437.014-.836-.083-1.026.026-.527.083-.56-.083-.514-.343-1.148-.165-1.042-.15-.854.425-.964.014-.916.179-.42-.07-.357-.344-1.584-.026-.42.026-.574.152-1.15.11-.294.33-.483.083-.233v-.233l-.069-.202-.495-.948-.165-.513-.082-.573.04-.575.29-.265.096-.218.027-.233.014-.48.028-.233.04-.172.055-.078.126-.155.067-.062.069-.064.537-.185.523-.264.893-.124.249-.078.122-.016.14.032.768.388.056.046.068.062.11.123.137.142.193.11.124.03.11.015h.096l.097-.031.412-.202.083-.032.096-.016h.207l.095.034.125.076.124.11.136.217.125.218.082.217.249.9.11.264.15.297.247.31.33.217.372.078.756-.032.55-.247.33-.87.29-.747.233-.62.33-.374.358-.42.055-.2.042-.203.096-.87.028-.171.054-.481.083-.763.11-.978.138-1.165.136-1.29.166-1.381.33-2.86.151-1.383.152-1.288.138-1.166.11-.98.082-.759.055-.482.027-.17 2.297.341 2.311.327 2.296.326 2.312.31 2.297.327 2.31.31 2.311.312 2.297.31 2.31.294 2.312.295 2.31.295 2.297.297 2.311.296 2.31.277 2.311.28 2.31.28 2.312.265 2.297.28 2.31.264 2.311.264 2.324.263 2.312.248 2.31.25 2.31.247 2.31.251 2.312.232 2.311.233 2.31.232 2.324.234 2.312.233 2.31.218 2.31.216-.522 7.349-.55 7.363z"/>
        </g>
    </g>
</svg>
