<svg xmlns="http://www.w3.org/2000/svg" xmlns:xlink="http://www.w3.org/1999/xlink" width="128" height="128" viewBox="0 0 128 128">
    <defs>
        <path id="a" d="M0 0h128v128H0z"/>
    </defs>
    <g fill="none" fill-rule="evenodd">
        <mask id="b" fill="#fff">
            <use xlink:href="#a"/>
        </mask>
        <use fill="#AFC7D1" fill-opacity="0" fill-rule="nonzero" xlink:href="#a"/>
        <g fill="#AFC7D1" mask="url(#b)">
            <path d="M62.176 120.273l-.258-.565-.379-.455-.152-.246-.081-.354-.04-.092-.04-.127-.033-.146v-.118l-.024-.11-.097-.054-.121-.046-.097-.082-.064.282.096.337.122.329.088.49.266.603.097.464.17.226.201.192.16.11.09.028.064-.019.064-.027.066-.009.25.055h.112l.113-.046-.363-.447-.21-.173zm-8.772-6.675l-.266-.182-.032-.054-.129-.138-.097.065-.113.027-.112-.018-.114-.083.049.374.177.3.266.22.323.126.314-.054-.04-.264-.226-.319zm10.151.21l-.718-.483-.145-.073-.531-.529-.226-.109-.218-.01-.097.156.08.173.186.173.218.127.17.065.225.11.056.19-.056.51.009.282.047.228.105.164.194.082.089-.01.241-.072.098-.008.112.054.274.272.169.064.153-.037.065-.162-.394-.985-.106-.172zm-13.747-10.064l-.064-.291.064-.31-.16.101-.162.036-.54-.072-.114.027-.104.045-.145.027-.194-.045-.354-.155-.186.046.145.21.153.308.129.32.032.236.065.137.161.19.202.146h.16l.106-.063.088.009.098.046.145.053.096-.009.524-.263.129-.11.097-.172.064-.282-.266.017-.169-.182zm-2.427-1.084l-.073-.082-.088-.072-.097-.064-.049-.1-.04-.118-.08-.11-.072.219-.13.055-.273-.037-.186.11-.049.117.073.046.137-.109.234.182.226.1.548.1-.032-.127-.049-.11zm6.692 1.22l-.064-.044-.105-.037-.145.064-.395.264-.073.019h-.105l-.71-.557-.176-.055-.38-.054-.153-.064-.427-.39-.242-.065h-.073l-.064.027-.105.074-.064.064.048.054.145.064.097.118.08.145.065.173-.161.292.178.283.346.227.307.109 2.031-.055.226-.073.113-.126.032-.173-.024-.027-.202-.256zm48.813 5.246l.016-.164-.259-.254-.088-.146-.08-.091-.146-.118-.669-.72-.113-.2-.04-.046-.16-.164-.033-.046-.065-.1-.032-.036-.032-.019-.04-.017-.122-.019-.049-.027-.04-.063-.032-.082-.007-.156v-.11l.007-.008.065-.182.064-.163-.072-.137-.017-.01-.015-.254-.081-.137-.105-.118-.089-.22v-.081l.049-.282v-.1l-.032-.064-.032-.056-.42-1.429-.234-.082-.169-.154-.089-.246.025-.347-.017-.154-.048-.2-.081-.183-.121-.09-.129-.073-.048-.156.072-1.438.008-.091-1.443-1.976-1.427-1.986-1.484-2.067-1.378-1.967-1.218-1.75-1.217-1.756-1.21-1.757-1.2-1.75-1.202-1.758-1.201-1.766-1.194-1.757-1.186-1.758-1.37-1.94-2.71-3.88-1.338-1.949-1.346-1.94-1.339-1.948-1.33-1.95-1.322-1.948-1.71-2.34-1.701-2.34-1.693-2.35-1.685-2.35-1.677-2.35-1.67-2.357-1.66-2.36-1.652-2.359.023-.163.113-.665.355-2.195.347-2.185 1.773-10.93.347-2.184.71-4.353.346-2.186.71-4.353.347-2.167.355-2.177.346-2.168-2.12-.446-2.121-.445-2.113-.448-2.112-.464-2.12-.455-2.113-.474-2.112-.473-2.113-.484-2.112-.482-2.112-.491-2.113-.493-2.104-.5-2.113-.51-2.105-.52-2.104-.519-2.104-.518-.04-.019-.227-.055.049.238.008.126-.008.14-.25 1.072-.105.183-.282.4-.283.264-.015.073.25.19.338.43.25.474-.04.336-.049.181.048.31.04.292.05.128.016.073-.065.309-.016.119.024.117.049.11.064.091.08.074-.153.181-.024.382-.008.748-.089.346-.298.637-.185.602-.34.755-.233.373-.178.419-.169.145-.056.183-.033.218.009.165-.048.164.177.528.032.273-.064.264-.83 1.64-.493.546-.137.237.17-.055.177-.173.508-.628.049-.027.33.126.097-.026.064.091.032.018-.185.236-.17.064-.185-.009-.234.037-.145.118-.298.419-.113.082-.113.464-.112.209-.17-.146-.097-.145.016-.045.09-.227.047-.082-.314.3-.202.254-.177.337.008.038.016.062.008.056-.04.01h-.032l-.033.026-.032.036-.04.128-.322.409-.098.155-.145.3-.137.301-.056.191-.072.165-.122.182-.088.173-.008.163.08.283.098.774v.31l-.202.528-.033.282.105.164.105.1.878 1.357.396.42.121.199.218.602.008.09-.033.273.016.11.056.056.187.126.064.063.21.347.805 2.212.009.21-.065.529.033.29.032.164.04.082.089.065.024.109.016.128.024.127.016.2-.185.83.097.746-.049.1-.145.082-.137.237-.202.5-.241.801-.21.392.08.465-.047.21.056.1.032.181.024.338v.564l.032.274.114.137.153.892-.008.127-.09.4-.008.12.033.264v.127l-.097.29-.113.138-.137.081-.153.183-.032.365.16.454.445.856.37.51.049.147.04.19.145.228.266.328.201.355 1.017 2.468.225.346.904.838.193.365.08.755.17.283-.121.592.065.209.007-.082.057-.247.42.493.112.228.016.1v.236l.016.11.178.373.258.82.258.536.089.283v.293l-.105-.274-.178-.265-.145-.29-.016-.338-.056-.22-.347-.608-.137-.201.121.764-.032.33-.5 1.11-.323.418-.089.173.226.074h.065l.072-.038.017-.027.007-.027.13-.136.064-.092.089-.09.136-.073-.056-.054-.024-.055-.056-.182.08-.01.065-.036.065-.054.064-.082.088.392.194.29.484.428.04.055.09.128.063.163.024.337.081.127.186.166.089.136.145.382.096.082.105-.055.073-.154v-.191l.387.555.193.364.25.292.097.154.129.164.185.118.194.028.145-.11.024-.209-.064-.19-.033-.155.137-.12.04.202.098.1.088-.046.017-.191-.066-.192-.217-.31-.09-.181.066-.019.088-.073.057-.027-.064-.145.032-.128.105-.091.257-.037-.064-.127-.193-.228-.024-.236.12-.693.016-.319.33.064.227-.009.193-.136.219-.292.79.774.112.237.017.118.072.12.112.09.26.119.394.309.17.036h.113l.112-.055.355-.246.064-.063.057-.091.097-.228.04-.063.096-.064.17-.055.169-.036.13.027.12.154-.016.156-.226.345.363.22.42.127-.097.127-.049.046-.072.036.096.064.137.019.162-.01.137-.026.032-.129h.105l.29.129.113.017h.33l.194-.073.226-.2.339-.42.048.02-.089.263-.113.21-.153.155-.185.1-.097.018h-.097l-.105.01-.089.063-.04.1-.007.109.024.082.064.055.387.01.218-.038.104-.11.033-.163.04-.08.145-.138.065-.027.048.037.049.045.064.036.048-.009.081-.091.04-.018.202.037.136.081.106.1.484.683.137.09.072.11.113.229.08.227-.015.09-.13-.1-.144-.19-.13-.228-.048-.183h-.153l-.178-.145-.25-.328-.023-.082v-.1l-.017-.1-.08-.082-.089-.01-.08.037-.065.055-.057.018-.185-.054-.097.017-.057.092-.023.1-.04.118-.041.1-.049.036-.08-.009-.097.027-.08.055-.04.074.04.036.233.145-.185.065-.177-.065-.315-.228-1.007-.355-.38-.245-1.008-.374-.201.019-.444.2-.21.018-.16-.1-.267-.365-.169-.1-.193-.009-.145.064-.484.365-.097.027-.12-.01-.082-.044-.072-.065-.065-.008-.121.254-.129.165-.161.118h-.146l.154.465.306.254.243.292-.025.591-.194.42-.056.263.138.146.169.073.403.292.145.146-.38.081.05.027.112.101-.089.163.065.046.234.009.089.1.032.11.08.501.113 1.466.065.282.104.2.21.046.048.036.032.064.033.11v.063l-.024.072-.016.073.024.036.064.03.13.108-.145.091-.186.009-.177-.054-.153-.119-.073-.174-.057-.227-.072-.172-.113-.019-.08-.1-.073-.128-.08-.082-.202.046-.032-.1-.009-.147-.015-.109-.114-.109-.088-.036-.05-.072.017-.21-.049-.055-.29-.018-.096-.027-.098-.273-.047-.075-.065-.044-.153-.046-.064-.055-.09-.136v-.091l.008-.1-.04-.163.016-.12.194-.746.04-.1.073-.055.145-.027-.137-.027-.033-.073.025-.091.008-.101-.025-.51-.064-.145-.17-.081-.362-.065h-.186l-.145.073-.234.437-.04.528.024.546-.048.465-.097.21-.209.318-.089.274-.04.546.08.127.105.045.105.027.089.065.088.237v.537l.057.245.08.22.04.264v.273l-.024.246-.137.51-.17.446-.088.445.113.493.21.291.089.183.008.236.056.164.468.601.354.811.21.356.573.608.153.11.185.073h.21l.202-.036.17.018.12.183.315-.137.258.027.209.2.178.383.306 1.174.145.374-.306.7.064.065.073.036h.08l.081-.036.016.1v.082l-.024.074-.049.072-.193-.11-.12-.045-.09.11-.145.563-.12.228-.138.201-.153.164-.194.063-.128-.118-.105-.183-.161-.108-.154.063-.153.165-.233.418.128.082.098.118.088.083.072.108.009.175-.057.1-.17-.019-.056.1-.008.218.105.62v.528l-.072.528v.1l.047.373v.146l-.007.092.007.072.042.129.08.1.08.072.065.091v.172l.016.128.073.145.096.11.242.146.718.81.194.366.297.929.065.463.065.238.12.126.202.073.153.128.121.155.08.181.057.21.032.247.009.264-.024.282.007.245.097.21.242.356.145.39.097.183.275.255.056.292v.546l.209.8.178.083.452.41.297.128.202.364.162.629.234.463.184.429.202.318.218.246.573.237.2.155.082.173.023.19.025.338.04.155.13.3.04.182-.154.073-.137-.009-.04-.082.113-.19-.049-.092-.37.728-.089.429-.008.209.056.2.185.282.484.356.194.227.049-.046.16-.027.194.01.13.045.064.082.129.228.073.054.145.1.056.073.016.383-.025.428-.104.465-.137.463-.395.702-.08.273.023.11.218.319.057.1.032.11.024.108v.136l-.065.283-.209.447-.08.263.08.2.056.237.032.247-.08.309-.113.2-.105.155-.09.173-.152.364-.112.182.032.154.089.138.217.128.25.146.202.036.282.363.185.466.129.509.379.091.863-.027 1.33.182.42.128.346.246.476-.054.484.309.822.702h.17l.21-.056.2-.018.137.1.098.128.177.182.202.154.153.055.12-.064.09-.1.104-.072.46-.028.177.11.218.027.104.036.09.073.168.237.516.401.307.172.895 1.284.113.091.21.038.096.036.081.082.016.109-.016.128.008.118.105.1-.065.128v.172l.057.183.064.172.024.083.008.155.017.063.04.046.08.036.049.046.33.483.21.191.282.073-.121-.055-.073-.046h-.064l-.024-.119.282.129.661.654.847.466.435.136.323.237.128.2.186-.073.186-.054 1.322.081.121.037.08.064.073.019.105-.028.145-.065.21.101.242.256.233.327.25.664.122.603.12.48.025.229-.017.182-.064.392-.096.155-.155.137-.071.19.137.301.056.055.089.055.096.026.097-.035.097-.01.072.128.073.154.08.083.081.046.097.072.097.054.105-.009.056-.072.024-.09.008-.12.113-.345.065-.065h.12l.073-.018.08-.036.09-.01.193.228.145.027.186.009.233.064.153.118 1.025 1.594.266.338.976.819.37.465.29.61.17.145.354.347.13.154.435.72.734.81 1.015 2.241.323 1.229.088.655-.008.23.057.161.064 1.268-.032.19-.12.228-.121.11-.09.118-.023.263.169.429.008.182-.049.246-.145.527.009.128.056.228.016.163.057-.099.105-.374.103-.118.13-.045.064.009.153.064.138.126.194.137.08.12.12.263.09.3v.228l-.08.09-.114-.054-.048-.173-.097-.254-.065-.247-.096-.127.008-.164-.162-.11-.128-.026-.105.118-.089.11.258.045.177.2.113.301.105.391-.008.31-.073.282.008.355.057.101.677.046.669.045.677.055.678.045.67.046.677.045.677.045.677.055.669.046.677.045.678.038.67.044.677.046.676.045.678.037 1.346.09.678.037.669.037.677.045.677.036.67.037.677.046.677.037.67.036.677.036.677.037.669.036.677.036.678.027.669.036.677.038.371.017v.019l.056-.155.38-.229.92.356.394-.036.105-.172.04-.22.016-.218.056-.21.137-.146.371-.208.121-.146.056-.255-.056-.802.032-.155.033-.11.016-.117-.016-.164-.201-.447-.291-.246-.814-.19-.34-.21-.217-.474.08-.419.186-.436.113-.52-.008-.71-.04-.173-.242-.41v-.182l.129-.329.12-.108.05-.1-.041-.137-.057-.109-.08-.173-.025-.146.098-.055.443.036.233-.045.178-.11.412-.664.12-.282.105-.11.202-.181.145-.156.04-.082.049-.154-.017-.274.025-.163.08-.055.04-.055.025-.136.024-.264.072-.292.121-.155.122-.127.08-.163-.073-.238-.024-.137.057-.054.04-.064.024-.137.009-.145-.025-.072-.097-.147.009-.3.032-.31v-.182l.185-.127.08-.1v-.11l-.144-.264-.057-.145-.016-.146.089-.264.161-.147.387-.208.161-.147.17-.173.128-.218.13-.51.12-.21.162-.155.338-.063 1-.602.177-.026.33-.374.34-.29.306-.202.097-.154-.024-.265zm-71.074-55.56l-.049.054.008.037-.008.018.008-.018.008.009-.016.019.057-.11-.008.009v-.018zm5.175-.892l-.015.027-.04-.01-.033.046-.008.1v.009l.049.045.072-.009.073-.136h-.009.009l-.098-.072zm.388.582v.155l.008.008.073.156.016-.037v-.008l-.049-.036.05-.201-.098-.037zm18.117 51.49l-.12-.054-.073-.065-.097-.055-.089-.017-.024.036.017.036.137.118h.08l.12.038.13-.01-.008-.037-.073.01zm2.282 6.912l-.065.027-.096.01-.032.017.016.056.016.109.024.063v.009l.121-.181.016-.1h-.008l.008-.01z"/>
        </g>
    </g>
</svg>
