<svg xmlns="http://www.w3.org/2000/svg" xmlns:xlink="http://www.w3.org/1999/xlink" width="128" height="128" viewBox="0 0 128 128">
    <defs>
        <path id="a" d="M0 0h128v128H0z"/>
    </defs>
    <g fill="none" fill-rule="evenodd">
        <mask id="b" fill="#fff">
            <use xlink:href="#a"/>
        </mask>
        <use fill="#AFC7D1" fill-opacity="0" fill-rule="nonzero" xlink:href="#a"/>
        <g fill="#AFC7D1" mask="url(#b)">
            <path d="M110.498 1.359l1.193 5.178 2.5 10.48 1.257 5.251 1.2 5.237 1.25 5.178 2.507 10.48.629 2.767.686 3.824.942 5.671-.756.5-.186.84-.122 1.362.5 4.736.064 1.912-2.007.92-.128-.637.943-.5-.186-.485-.693-.435-.936-.282-.879.072-4.02 1.347-.564.283-3.444 3.476-3.642-2.202-.629.783.122 2.194-.372 1.21-1.564.347-2.27-.347-1.687.347.186 2.557-1.943-.717-3.257 3.621-2.2-.42-.564-.282-.943-.218-.5-.21-.314-.644v-.63l.064-.782-.128-.848-.558-.862-.75-.63-1.071-.427-1.2.21 1.014 1.282 1.315.912.942 1.29-.192 2.332.756.355.25.072-.878 1.557-1.379.283-2.892-.355-1.192.492-1.25 1.072-1.001 1.34-.564 1.485-.436-.355-.25-.065-.193-.145-.263-.42-.5.145-.564.767-2.88-.623-1.5-.072-3.398 1.905-.436.782-.315.775-.436.5-.814.21-.693-.145-.622-.355-.75-.21-.878.072-2.328.848-.628.427-.815 1.137h-.5l-.693-.21-3.706 1.202-.872-.152-.692-.84-.629-2.13-.372-.354-.442.782-.308 1.058-.064.5-1.815 3.114-1.02 2.976-.435.855-.75.493-1.758.644-.558.63-.506.855-1.186 1.057-.437.717-.378 1.13-.122.565-.269.427-.75.638-1.065.565-.5-.21-.436-.565-.814-.355-.443.282-1.686 2.34-.314.072-.315-.217-.25-.21-.122-.073-.192.428v.92l-.199.137-.186.355-.564 1.427-.314.492-.564.145-1-.29h-.565l-.5.355-.5 1.065-.443.348-.814.354-1.122.783-1.02.992-.25 1.13-.436.282-2.315 2.84-.757.637-2 2.332-.641.217-1.129-.145-.75 2.557-.686-.645-.815 1.637-.942 1.21-1.187.42-1.577-.775-.128.42-.186.145-.686.637-1.257 1.267-.372-.63-.5-.71-.25-.282-.193-.072-.372-.138-.25-.217-2.135-2.267-2.014-2.274-.5-.493.75-.92 2.328-2.614 3.008-3.411 3.206-3.607 2.629-2.977.814-1.065-1.25-1.274-1.193-1.348-1.25-1.412-1.642-1.992-.25-1.694-.686-4.324-.629-4.324-.686-4.251-.692-4.324-.622-4.252-.693-4.323-.628-4.252-1.385-8.575-.629-4.317-.686-4.251-.692-4.317-.622-4.258-.693-4.324-.686-4.252-.628-4.251 7.65-1.847 7.656-1.767 7.65-1.767 7.592-1.847 4.27-.992 4.009-.92 3.456-.638.564 2.34 2.63-1.058-.13-2.122 8.594-2.346 1.577.072.814-.072.5-.138 1.007-.992 3.13-.782 9.227-2.485 9.22-2.477 9.215-2.404 9.234-2.484 7.086-2.057z"/>
        </g>
    </g>
</svg>
