<svg xmlns="http://www.w3.org/2000/svg" xmlns:xlink="http://www.w3.org/1999/xlink" width="128" height="128" viewBox="0 0 128 128">
    <defs>
        <path id="a" d="M0 0h128v128H0z"/>
    </defs>
    <g fill="none" fill-rule="evenodd">
        <mask id="b" fill="#fff">
            <use xlink:href="#a"/>
        </mask>
        <use fill="#AFC7D1" fill-opacity="0" fill-rule="nonzero" xlink:href="#a"/>
        <g fill="#AFC7D1" mask="url(#b)">
            <path d="M51.42 2.515l-.417.939-1.791 2.23-.6 1.278v3.722l-.476 1.754-2.03 4.6-.238.407-2.043 1.485-.177.67v.953l-.177 1.07-.061 1.022.3.739 2.158 1.492.721.67.893 1.353.36 1.616-.06 1.692-.6 1.76-.116 2.024.954 1.761 1.375 1.27 1.015.754 1.131 1.146 3.534 5.062.239.539.422.138 1.07-.27.538.27 2.341 2.106 1.97 3.239.96 1.685.653 2.092.538 5.739.6 1.968.354.815.716 1.146.372.808.117 2.093.36 1.084 1.97.739 1.253 1.36 2.806 4.178.727 1.354.539 1.685.483 2.168.654.739 3.943 2.23 4.127 4.061 2.03 1.209 2.52.069 1.736-.47 1.07-.138.66.946 2.696 9.254.184 2.092-.184 1.36-1.015-4.06-1.143-1.077-2.929.739-.06.538 1.852 2.839-.954.076-.36-.076-.355.145-.061.2-.178.069-.183.131.776.539.9.476.953.131 1.137-.269-1.137 1.892-3.999 2.369-.776 1.747 1.253-.331-.122.745-.239.608-.238.47-.3.338 1.015-.069 2.091-2.5 1.614-.532.477.401.655.739.672.615.477-.2.893-2.1.36-1.215-.36-.746.122-.677.416-.2.599.939.177.815.361 3.784.776 2.162 1.015 2.023.777 2.1.061 2.23-.838.2-.36-.2-.416-.138h-.477l-.6.138.24.67-1.493.338-3.356.877-4.836 1.285-4.788 1.229-4.91 1.201-4.787 1.223-4.836 1.215-4.849 1.216-4.848 1.208-1.076-4.04-1.015-4.198-1.553-6.354-1.565-6.415-1.547-6.354-1.553-6.408-1.498-6.353-1.547-6.423-1.565-6.353-1.553-6.415-1.553-6.347-1.492-6.415-1.565-6.354-1.553-6.353-1.553-6.422-1.553-6.347-1.565-6.415-1.492-6.353.477-.07.06-.2.9-2.83.843-2.777.954-3.108.899-1.491L35.877 4.4l1.015-.877 1.846-1.146 1.327-.608 2.69-.815 2.996-.27 2.385.27 2.036.746 1.192.746z"/>
        </g>
    </g>
</svg>
