<svg xmlns="http://www.w3.org/2000/svg" xmlns:xlink="http://www.w3.org/1999/xlink" width="128" height="128" viewBox="0 0 128 128">
    <defs>
        <path id="a" d="M0 0h128v128H0z"/>
    </defs>
    <g fill="none" fill-rule="evenodd">
        <mask id="b" fill="#fff">
            <use xlink:href="#a"/>
        </mask>
        <use fill="#AFC7D1" fill-opacity="0" fill-rule="nonzero" xlink:href="#a"/>
        <g fill="#AFC7D1" mask="url(#b)">
            <path d="M99.557 60.073l.295-.984-.35-.928-1.344-.81-.335-.124-1.053-.164-.211-.264-.135-.553-.147-.266-.833-.156-.52-.163-.233-.315-.136-.28-.325-.38-.375-.255-.298.105-.057-.108-.07-.054-.078-.023-.099-.015-.313-.136-.383-.068-.4-.003-.356.046-.37.143-.752.575-.26.066-.68.037-.351.062-.372.185-.297.19-.28.054-.33-.23-.669-1.693-.17-.31-.193-.262-.924-.988-.298-.194-.36-.313-.194-.048-.084.271-.08.14-.185.04-.21-.028-.165-.062-.032.185-.1.33-.014.207-.113-.053-.283-.073-.113-.055-.101.62-.857 1.922 1.561 2.389.14.14.178.043.554.253.42.297.677.311.303.03.215-.059.196-.084.245-.052.57-.02.274.07.115.205.081.578.081.293.095.123.217.209.13.504.065 2.227.266.889.607.513 1.032.006.44-.239.26-.097.115.066.12.149.263.016.878-.207 1.308-.951.454-.109.425.08.443.137.512.071.433-.132 1.587-.951.691-.632.642-.886zm-13.003 3.521l-.364-.377-.457.06-.442.28-.714.563-.868.373-.34.267-.233.442.727.517.312.059.561-.318.24-.058 1.013.035.537-.101.29-.314-.306-.24.044-1.188zm39.428 26.64l-1.21-.695-.94-1.045-.155-.356-.19-1.341-.113-.448-.28-.234-.574-.064-.936.172-.261-.125-.166-.572v-2.093l-.083-.587-.206-.463-1.978-2.376-.787-.669-3.058-1.675-2.546-1.118-1.04-.206-.868-.586-.508-.207-.244.064-.232.168-.258.077-.305-.214-.295-.306-.17-.121-.45-.141-.619-.61-1.395-.6-.148-.15-.055-.244-.028-.259-.081-.198-.127-.13-.657-.14-1.345-.642-.76-.14-.573.702-.35 1.014-.091.786.216 1.005.394.867 1.164 1.574.078.107.248.52-.01.459-.216.344-.74.647-.162.18-.89 1.455-.233.299-.474.882-.982.383-.33.29-.127.5-.216.26-.485.358-.5.474-.268.623.127 1.119.478.843.619.77.55.896.206.537.15.548.09.58.036.617.035.242.283.922.086.02.313-.04.081.02.015.128-.031.288.016.127.547 2.16.32.6.092.326-.01.217-.601 4.214-.023 2.207.12.56.28.237.278.145.109.326.058.367.122.245.198.054.763-.054.881.252.953.449.834.551.527.556.401.757.015.145.285-.112.427-.499.247-.112.326-.225 1.03-1.582.351-1.5.218-.412 1.014-1.043.354-.13 1.192-.72.332-.273.563-.625.334-.263.383-.104.29-.12.755-.8.568-.457.286-.13.425-.117 1.845.086.41-.233 1.596-.396.81-.487.456-.182.587-.07.398-.126 2.084-2.023.17-.297 1.92-1.164.297-.416.256-.54.179-.584.067-.556-1.758-1.174zM82.695 48.545l-.69-.181-.467-.011-.012.011-.188-.062-.13-.085-.126-.064-.182.011-.132.084-.256.242-.18.052h-1.613l-.477-.077-.309-.204-.565-.638-.438-.38-.048.09.032.333-.2.335-.345.05-.817-.334-.365-.094-3.122-.163-.274-.214-.265-.295-.255-.2-.246.077-.23.125-.275-.013-.242-.088-.148-.114-.035.506.063.38-.067.388-.425.53-.22.216-.257.32-.185.413.01.497.263.389.459.198.514-.03.448-.277.385-.14 1.46.058 2-.198.527.084 2.272 1.014.926.29.913.097.906-.204.88-.392.882-.517.722-.748.393-1.07-.27.003zM22.244 22.443l-.15-.095-.128-.236-.094-.301-.034-.288-.144-.366-.326-.352-.392-.26-.589-.199-.248-.183-.24-.108-.227.125-.166.115-.245.073-1.824.288-.177.072-.318-.27-.373-.198-.367-.035-.31.215-.424.152-1.295.706-1.812 1.265-.057.077-.158.077-.039.185v.23l-.052.213-.94 1.256-.265.207-.167.271.217.583.333.54.17.138.115.45.294.18.39.137.407.319.393.119.564-.037.508.059.357.698.635.623.188.253h.16l.541-.18 1.088.063 1.082.306.516.548 1.277-.916 1.295-1.25-.107-.283.021-.16.146-.029.26.096.024-.493-.022-.51-.07-.464-.107-.355.839-1.557.253-1.103-.005-.288-.201-.123zm-18.48 3.558l-.263.12-.279.311-.513.752-.258.293-.334.234-.059.31-.72.2-.834 1.281-.3.732-.127.755.167.597.581.28h.248l.203-.067.137-.196.118-.79.167-.369.79-1.028.22-.064.44-.013.306-.075.461-.352.28-.115-.17-.717.083-.675.284-.57.429-.403-.305-.36-.752-.07zm55.946 17.47l-.109-.502.011-.472-.08-.349-.38-.137-.366-.222.07-.478.237-.468.136-.178h-1.132l-.32.097.64.525-.408.176-.27.04-.121-.125-.1.013-.54-.629-.311-.291-.235-.343-.413-1.006.158-.022.08.04.095.16.005-.51-.037-.4-.146-.304-.591-.441-.425-.627-.357-.708-.06-.456-.24-.5-.278-.415-.34-.317-.436-.215-.053-.095-.062-.07-.042-.077-.004-.133-1.398.779-.36.322-.22.497-.167.293-.187.129-.178.078-.701.464-.112.244-.003.23-.086.164-.357.068-.257-.028-.45-.113-1.296-.07-.528.044-.428.167-.224.46.855.801-.071.478-.187.536.244.528.396.425.266.234.263.352.45.9.319.455.191.16.369.16.167.142.096.165.469 1.82.131.053.107.103.106.046.225-.182.283-.156 1.115-.19.508-.022.506.183.065-.797-.299-.383-.469-.251-.43-.39h.46l.548.192.284-.043-.334-.709.357.251.123.127.184-.147.196-.013.172.11.1.233-.035.34-.213.124-.251.073-.153.2.12.56.47.144.533-.173.315-.366.505.29.212.174.242.258-.107.27.222.227.7.407.328.335.155.037.396.003.54-.163.614-.267.54-.053.317.483.359-.344 1.241-.935-.349-.356-1.09-.727zm20.114 12.771l-.143-.099-.313-.207-1.201-1.22-2.71.192-.684.425.486.81.82.51.233.295.083.566.006.622.065.594.188.506.38.353.975.165 1-.337.852-.654.544-.798.22-.45.015-.257-.154-.284-.662-.732z"/>
        </g>
    </g>
</svg>
