<svg xmlns="http://www.w3.org/2000/svg" xmlns:xlink="http://www.w3.org/1999/xlink" width="128" height="128" viewBox="0 0 128 128">
    <defs>
        <path id="a" d="M0 0h128v128H0z"/>
    </defs>
    <g fill="none" fill-rule="evenodd">
        <mask id="b" fill="#fff">
            <use xlink:href="#a"/>
        </mask>
        <use fill="#AFC7D1" fill-opacity="0" fill-rule="nonzero" xlink:href="#a"/>
        <g fill="#AFC7D1" mask="url(#b)">
            <path d="M126.377 94.064l-1.465-1.655-1.075-1.924-.233-.343-.232-.15-.27-.04-.33.151.7 1.211.033 1.095-.566 2.264.433-.42.666-1.393.54-.45-.035.751-.204.752-.37.606-.764.563-.236.57-.232.19-.3.077-.335-.15h-.365l-1 .258-2.773 1.284.065.3 3.94.267 1.936-.228 1.806-.64 1.366-1.473-.7-1.473zm-16.898-.525l-.54-.679-.365.602-.334 1.018-.369.602.335.493.6.452.639.3.434-.073.102-.451-.102-.721-.4-1.543zm-3.472 1.014l-.509-.034-.533-.305.567-.64.24-.49-.1-.451-.509-.606-.532-.111-.198.493-.168.64-.433.452.065-1.246h-.434l-1.605 1.396-.7 1.43-.368.417-.332.49-.467 1.963-.267.717-.567.494-2.106.64.065.378.498.185.844.756.43.266.703.224.365-.112.468-.872.632-.825.802-.717.973-.567 4.64-1.547.537-.339-.902-2.34-1.1.261zm16.495-12.332l.167-3.093.3-1.134-.099-.417-.133-.262-.167-.189-.3-.038.068 1.357-.434 4.111.598-.335zm.669-6.452l-.601-3.282-.666-2.495-.4-.56-.501.074-.639.748-.034-.671-.201-1.4v-.713l.573.412.601.301.133-.073.1-.077.102-.112.065-.19-.734-.832-2.841-5.206-1.134-1.092-2.373-1.697-.768-.343-1.605-.34-.635-.296-.6-.112-1.367.636-.607-.112-.267.074-.266.378-.167.532v.49l.133.185.232.115.27.074.198.077 1.041.983.533.185.533-.412-.1-.344-.133.078-.498.111.365-1.392 1.134-.378 1.307.567.834 1.32.232.524 1.133 2.078.236.718.498 2.263.236-.648-.167-1.542.365-.451.376.077.4.3.498.186.665-.112.103.378-.502.416-.232.15-.335.113.936.983.631 1.508.202 1.623-.4 1.47-.433.374-1.134.61-.775 1.013-2.735 1.855-1.471 1.655-.936.756-1.332.377-.7.035-.208-.262.342-.413 1.232-.378.434-.378-4.275.868-1.4-.15-2.54-.98-1.243-.983-.266-1.242-.034-1.361-.632-1.77-.902-1.477-.867-.49-1.273.528-.632.077-.7-.34-2.441-1.58.266-.309.24-.15h.269l.365.116-.235-2.376.136-.417.4.19.498.601.7 1.215-.198.112-.266.258-.133.116.4.15h.33l.335-.15.266-.413.133-.386-.065-.111-.235-.074-1.4-1.43-.468-.718-.03-.871-.902-.56-1.24-1.438-.802-.79-.532-.263-.134.035-.068-.15-.331-1.435-.167-.258-1.107-.91-.799-.456-.867-.262h-1.676l-.967-.451-1.799-1.25.1.571.433.714.532.528.502.189.065.266-.133.563-.331.34-.536-.529-.3.413-.434.493-.465.378-.201.039-.034.189-.205.035-.236-.074-.198-.115-.034-.224.232-.486.069-.27-.502-.524-.666.22-.567-.035-.133-1.358-.666.756-.3.073-.468-.262-.44-.567.034-.524.341-.417.498-.189-.266-.378-.338-.227-.369-.039-.4-.038.233-.718.567.112.642.309.597-.309-.4-.073-.33-.266-.134-.336.298-.227.467.038.734.602.499-.077-.365-.37-.199-.42-.368-1.054-.434-.678-.065-.417.164-.752.57-.61 1.165.907.734-.528-.468-.15-.533-.267-.4-.45-.033-.602.167-.267.567-.111.232-.112.167-.228.502-.906.106-.228.133-.262.267-.15.232-.185-.133-.27-.43-.34-.243-.412-.266.335-.335.648-.4.374-.034-.493.069-.378.133-.37.201-.305-.3-.266.433-.602 1.506-1.284 3.54-2.075.202-.378.065-.49.202-.524.3-.417h.198l.103.116.064.073.635-.073.134-.15.266-.42.198-.452.068-.455.168-.34.474-.15-.075-.262-.266-.343v-.451l-.069-.374-.33-.039-.468.073-.301-.073-.232-.34-.1-.713-.767.787-.335.455-.133.528.369 1.242-.069.494-.665-.224-.202-.61-1.84.379-.8-.644.332-.108.236-.112.433-.455-2.069-.417-.905-.601-.502-1.435.468.262 1.373 1.284.133-.412-1.673-2.796-.502-.49-.266-.374-.134-.116h-.133l-.232.116-.099.035-.768-.15-.366-.151-.44-.34 1.506-.335.266-.193-.03-.451-.67-1.624-.034-.339-1.106.683h-.734l-1.199-.193-.4.073-.3.081-2.81 2.488-.297.416-.133.224-.335.756-.167.339-.335.486-.3.189-.372.112-.4.042-.532.154-.335.147-.232.189-.137.189-.13.189-.2.493-.1.263-.133.601-.068.98-.065.378-.236.49-.334.347-.598.374-.307.262-.202.266-.3.756-.365.64-.37.563-.231.193-.332.15-.734.22-2.376.613-2.332.598-2.342.606-2.34.601-2.335.606-2.342.601-2.373.602-2.332.61-2.342.6-4.674 1.17-2.343.605-2.366.601-2.342.563-2.339.61-2.335.563h-.035v.038h-.03l-1.643.378-1.632.417-1.608.378-1.632.412-1.635.378-1.64.374-1.6.42-1.643.37-1.632.379-1.608.416-1.632.378-1.636.378-1.639.378-4.875 1.169-.37.94-.03 1.211-.403 14.902-.13 3.737-.208 7.47-.099 3.733-.068 1.924v.941l1.14.945 4.074-.983 4.076-.941 4.074-.941 4.042-.984 2.274-.528 2.134-.49 1.84-.34.301 1.246 1.4-.563-.068-1.13 4.575-1.25.84.04.434-.04.266-.072.536-.529 1.666-.416 4.913-1.323 4.91-1.319 4.907-1.28 4.916-1.323 3.773-1.095.168.528 2.936-.94 3.005-.98 2.943-.945 2.974-.945 1.734-.49.164.64.44 1.512.834 2.981.102.3.168.225h.266l.631-.224h.267l.167.15.202.494.064.374.035.305v.412l.068.263.164.45.201 1.701.1.224.102.305.3.304.505.452.632.3.437.112.365.039.735.34 1.471 1.665.133-.648.034-.262.1-.343h.467l.833.116.236-.301.164-.417.502-2.568.266-.714.434-.378-.335 2.268-1.031 3.918-.102 2.04.136 1.015.266 1.172.598 2.075.81 1.704.064.37-.065.571.232.49.7.98 1.602-2.754.7-.756-.202-.185-.464-.683 1.273-.115.332-.374-.233-.98.567.451.335.68-.034.716-.601.49 1.1.185.767-.49 1.202-1.654-.034.112v.227l.475-.154.33-.374.568-.91-.533-1.354.133-.983.266-.941-.232-1.242.967.332.266.189.232.3.434.834.266.189.369-.15-.069-.568-.498-1.168.3-.077.608-.494.434-.524-.068-.15-.069-.228.202-.452.334-.227.567.567.4-.98.034-.871.198-.598.935-.154-.467-.606-.202-.567-.266-1.58.3-.19.768.19 1.274.562.198-.073v-.64l.167-.417.335-.038.365.455-.133.112-.266.378.334.45-.167.53-.3.527-.1.525.199.648.368.717.834 3.695.034 1.434-.567 1.169 1.031-.417 1.677-1.542.932-.571 1.1-.37.873-.536.7-.718.468-1.091.533-2.23.266-.524h.433l.67.76.33-.308.376-.602.434-.266 1.1-.228.532-.262.768-.752.465-.227-.031 1.318.065.533.232-.382.277-1.092.198-.45.3-.267.4-.223.901-.907 1.601-.497 4.982-2.673 1.4-.038z"/>
        </g>
    </g>
</svg>
