<svg xmlns="http://www.w3.org/2000/svg" xmlns:xlink="http://www.w3.org/1999/xlink" width="128" height="128" viewBox="0 0 128 128">
    <defs>
        <path id="a" d="M0 0h128v128H0z"/>
    </defs>
    <g fill="none" fill-rule="evenodd">
        <mask id="b" fill="#fff">
            <use xlink:href="#a"/>
        </mask>
        <use fill="#AFC7D1" fill-opacity="0" fill-rule="nonzero" xlink:href="#a"/>
        <g fill="#AFC7D1" mask="url(#b)">
            <path d="M94.542 35.877l.098.03h.055l.027-.248.138.048.165.154.097.125.11.094.362.187.097.204.013.047.083-.03.125-.127.055-.032.497-.078.137.032.166.108.17.047.096-.077.275-.36.29-.03.594.28.335.062.4-.014.359-.125.22-.218.18-.673.15-.5v-.234l-.289-.187-.33-.016-.319-.124-.206-.514-.139-.377-.278-.25-.635-.25-.845.093-.373.142.042.313.18.094.192.016.17.077.012.172.029.172-.055.202-.142.126-.29.187-.303.249-.152.08-.207.062-.082.092-.153.423-.137.109-.28-.14-.317-.235-.29-.063-.193.454v.297l.096.124zm-4.591-6.387l-.345.046-.082.187.013.282-.027.374.304.329.29.436.316.218.348-.28.014-.436-.251-.516-.331-.437-.249-.203zm24.835 81.387l-.082.14-.07 1.19.042.624.193.173.139-.345-.028-.608-.194-1.174zm-26.397-83.95l.151.189.07.265.248.749.11.234.252.189.276.124.18.203-.029.28v.08h.318l.166.03.303.172.041-.14-.014-.173v-.03l-.055-.109-.137-.094-.704-.985-.097-.171-.041-.219-.055-.405.04-.235.25-.797.152-.328.027-.079.014-.062.07-.046-.264-.11-.541.016-.249-.171-.082.078-.51.672-.167.28-.124.423.152.124.25.046zM65.724 40.611l.885.187.842.405-.11-.468.07-.31.237-.205 1.393-.423 1.732-.219.206-.155.153-.343.192-.688.732-1.31.252-.221 1.077-.047.389-.31.124-.049.151.079.18.156.165.093.139-.079.249-.266.29.08.555.39.29.065.899-.112.318.048.759.359 1.341.219.249.17.554.548.18.094.138.109.359.531.151.109h.263l.334.078.29.187.152.343.304.33.635.264.623.016.332-.423-.249-.109-.15-.359-.015-.436.18-.31-.166-.113-.097-.186-.015-.235.084-.281.165-.187.139-.048.082-.092.014-1.08.249-.297h.386l.459.22.247-.22.277.064.248.264.124.36.042.267.056.094.124-.048.055-.046.182-.22.097-.062.428.344.027-.437.055-.156.759-.016.376.202.22.048v-.048l.084-.108.096-.109.097-.065.193.017.29.14.152.017.858-.174 2.766.156.11.048.153.016.11-.093.11-.127.153-.077.707-.235.206.079-.014-.233.014-.205.082-.42-.247-.033-.194-.123-.182-.157-.194-.11-.275-.03h-.22l-.209-.034-.247-.202-.57-.593-.096-.155-.028-.296.07-.235.11-.219.097-.266-.194.03-.165-.046-.318-.14h-.096l-.18.061h-.096l-.069-.078-.165-.311-.252-.047h-.414l-.36.079-.138.217-.138.156-.345-.297-.305-.39-.014-.232.292-.157.372-.5.318-.08-.194-.327-.4-.483-.127-.39-.165-.768-.11-.357-.11-.157-.554-.937-.22-.516-.61-.64-.248-.188-.332-.093-.317.016-.29.11-.21.233-.4.86-.345.405-.483.421-.528.22-.469-.22.07-.421-.388-.484-.554-.265-.414.187-.304.407-.428.295-.473.219-.428.126-.22-.016-.608-.297-.513-.046-.096-.048-.22-.249-.14-.064-.179.048-.4.297-.21.062-.262-.046-.194-.158-.15-.235-.125-.28.304-.515.096-.373-.263-.642-.041-2.389.028-.298.166-.281.206-.204.18-.218.069-.359-.304.094-.525.265-.275.095-1.135.016-1.01.249-1.174.594-2.269 1.671-.593.203-4.55.156-.4.155-.113-.124-.331.297-2.129.78-.373-.014-.389-.188-1.673 1.64-1.425.936-.484.548-.469.14-.192.125-.541.626-.153.233-.524 1.11-.372.483-.431.188.014-.094.013-.218.014-.093-.374.046-.288-.032-.263-.142-.275-.341-.321-.22-.263.157-.345.546-.247.203-.347.14h-.333l-.166-.28-.083-.155-.151-.016-.166.032-.138-.066-.47-.56-.083-.189-.027-.124-.055-.094-.168-.125-.18-.062-.193-.016-.166.078-.138.171-.11.11-.166.03-.359.016-.055.095-.196.375-.097.142-.318.062-.634-.046-.554.373-1.647-.078-.359-.14-.233-.391-.167-1-.068-.14-.138-.063-.735-.249-.152-.172-.014-.297-.249-.158-.302-.249-.249-.327-.124-.328-.156-.172-.675-.626-.208-.249-.303-.844-.236-.358-.264.124-.138.095-.11-.173-.166-.423-.096-.014-.318.156-.151-.014-.153-.112-.168-.357-.125-.157-.124-.032-.151.032h-.125l-.069-.156-.194-.155-1.451-.22-2.156.062-.72.158-1.023.452-.195.28-.083.422-.249.47-.33.375-.305.154v-.124l.22-.438.18-.577.222-.516.707-.498.345-.455.096-.358-.386.016-.193.125-.569.53-.525.686-.4.235-.348.516-.194.126-.44.123-.14.142.208.218-.621 1.156-.403.594-.194-.11.042-.125.11-.094.125-.078.096-.093.014-.11-.055-.124-.318-.548-.07-.203.043-.202.07-.187.012-.205-.027-.185-.097-.174.138-.375.11-.468.056-.498v-.439l-.11-.391-.221-.36-.277-.279-.235-.188-.096.016-.069.094-.096.047-.096-.125-.014-.094.055-.217.055-.55v-.249l-.084-.202-.319-.235-.704-.016-.345-.077-.318-.266-.058-.343.058-.408v-.53l-.168-.439-.304.016-.318.237-2.031 2.247-.362.234-.083.08-.207.608-.04.11-.07.188-.387.873-.207.281-.124.063-.417.126-.51.297-.139.046-.663-.094-.278.064-.276.295-.87 1.234-.996.984-1.149.718-5.199 1.234-.524.36-2.242 2.624-.524.39-2.297 1.047-.663.53-.165.062-.441.078-.348.142-.318.203-.276.235-.042.108.097.376.068.202.07.079.097.046.151.016.11-.016.084-.046.235-.189.084-.014.098.046.165.281.084.078.247.03.139.033.138.124.11.078.166.048h.124l.139.032.14.077.193.203.18.22.165.327.262.546.428.829.263.53.14.39.055.11.07.078.386.078.152.03.4.064.639.125.814.14.968.189 1.08.188 1.159.217 1.19.219 1.204.203 1.162.202 1.077.203.969.172.828.14.623.11.402.08.15.015.487.094.304.125.828.39.831.39.841.39.846.391.33.157h.18l.097-.016.193-.062.097-.016.1.032.11.094.138.014.11-.014.262-.158.097-.016h.139l.137.033.22.093.304.062.486.203.152.016.11-.032.277-.265.082-.046h.098l.11.016h.096l.097-.032.155-.125.096-.03.097-.034h.11l.138.048.152.062.235.157.138.032.11-.016.083-.046.097-.016.11.03.485.219h.249l.263-.125.124.016.125.046.371.265.087.016.22.016.47-.048h.11l.11.032.249.125.248.062h.113l.11-.016.194-.062.11-.016.11.032.36.265.096.032.222.062.123.077.124.126.431.766.056.14.014.187-.041.125-.043.094-.261.454-.028.108-.027.11v.14l.055.141.151.173.11.094.208.092.22.063.221.032h.112l.22-.048.265-.14h.069l.07.015.04.032.18.203.069.062.082.062.083.03.235.049.594-.016.113.016.083.046.082.046.055.078.194.22.069.079.345.203.151.108.181.205.206.202.097.093.028.064v.06l-.028.127-.041.062-.139.155-.013.11.013.155.124.204.266.375.055.11.041.141.029.281-.015.155-.04.124-.07.079-.07.047-.097.047-.058.094.015.187.168.39.167.61.012.14v.064l-.012.108-.056.22-.083.202-.055.092-.055.082-.403.405-.055.094-.028.125.014.155.055.249v.172l-.014.142-.11.438-.015.123.055.124.098.128.22.108.125.016.113-.032.151-.124.084-.032.11-.016.318.064h.11l.096-.016.096-.048.943-.688.082-.029h.083l.097.045.096.108.124.174.11.155.029.11v.11l-.056.125-.179.265-.083.187-.262.86-.18.86-.028.248v.658l.029.14.11.17.234.267.345.296.166.187.083.125.041.096.252.169.759.222.014-.066-.208-.873v-.439l.553-.422 2.435-5.059.055-.236.027-.498.055-.203.235-.343.097-.189.138-.999.11-.327.39-.829.29-.391.4-1.263.22-.252.567-.281.21-.233.124-.672.04-.047-.012-.906.11-.827.137-.423.208-.203.083-.25.152-1.06.124-.3.22-.03.11.205.015.279-.014.204-.082.297-.222.498-.055.235.042.36.123.282.125.219.111.218.058.328-.017.985.1.311.15.219.139.046.028-.203.096-.155.498-.25.33-.11.224-.125.18-.172.055-.22.069-.312.29-.639-.027-.297.151-.14.11-.157.084-.204.04-.249-.165-.405.151-.22.29-.11.249-.03.527.313.345.109.277-.219.151-.295.18-.237.21-.186.248-.173.263-.11.18.016.136.14.194.267-.304 1.39.055.203.055.03.029.095-.014.094-.041.047h-.097l-.193-.079h-.098l-.316.047-.139.032v.062l.014.096-.04.186-.032.25-.014.094-.04.046-.07.016-.082.03-.055.078-.084.61-.069.187-.386.501-.028.233.208.344.165.202.441.283.252.203.15.092.154.032.124-.11-.028-.217-.07-.204-.055-.095-.027-.092-.083-.173-.027-.124.027-.157.083-.046h.097l.055-.046.193-.75.166-.313.414-.22.055-.156.014-.202-.028-.233.055-.14.155-.063.317-.064.526-.36.068-.11.083-.234.084-.125.192-.092.5-.125.192-.172.084-.14-.11-.125.234-1.188.345-.937.556-.656 2.253-.701.524-.016zm-9.955-9.873l.07.14.095.125.11.187.082.252v.14l.029.079.138.062.082-.014.014-.22.056-.063.083.03.07.079.054.094v.048l.293-.016.165-.094.07-.25-.084-.22-.18-.016-.193.063-.14-.03-.014-.157.055-.203.182-.359-.196-.39-.096-.142-.151-.092-.319-.062-.248.124-.11.281.014.421.069.203zM29.067 19.603l-.084.343-.012.484.069.907.192.234 1.204-.046.138.108.262.312.097.062.58-.201.152-.219-.028-.375-.18-.204-.317.298.097-.346.193-.39.249-.327.18-.14-.043.327.014.718-.028.345-.096.39-.11.186-.36.328-.179.25-.07.219.07.219.857 1.173.182-.142.151-.265.22-.562.319-1.141.096-.203.47-.327.097-.251.03-.311.165-.157.22-.062.263-.03-.014-.143-.18-.234.015-.39.138-.391.165-.249.166-.078.18-.016.165-.047.152-.156.472-.75.125-.125.316-.17.125-.11.18-.502.083-.093.275-.092.266-.22.745-.813-.235-.232-.483-.142-.403-.062.139-.25.264-.095.58-.03.69-.33.28-.076.289.015.551.126h.291l.265-.11.442-.36.303-.06-.013-.142-.194-.155-.304-.407-.22-.189-.513-.234-.277-.047-3.056.375-1.093.344-.912.515-.18.173-.179.265-.127.108-.151-.03-.165-.062-.153-.016-.082.078-.318.391-1.023.688-.402.374-1.092 1.936-.208.281-.539.438-.206.297zM20.203 7.139l.44-.265.015.139-.483.33-.11.14-.14.499.03.172.04.015.055-.03.07.046.275.311.304.065.29-.08 2.145-1.358.69-.203-.014-.124-1.159.124.139-.25.469-.374.04-.14 3.277-1.875.635-.514.486-.565.043-.094-.029-.155-.11-.36-.014-.092.263-.452.896-.705.32-.39.152-.235.055-.11.028-.108-.124.218-.18.125-.361.156.042-.17.082-.157.266-.266-.927.688-.25.28-.234-.078-.404.251-.165-.08-.91.939-.029-.283-.372.486-.582.53-.567.39-.345.047-.223.283-.304.249-.318.156-.262-.016-.428.391-1.758 1.25-1.118 1.077.151.204.222-.032zM67.08 59.274l-.11-.06-.125-.098-.236.128-.166.295-.055.345.098.28.316.141.222-.25.152-.42.165-.33h-.137l-.124-.031zm1.188-.656l.36-.328-.207-.172.014-.249.082-.267v-.266l-.124-.233-.18-.125-.22-.11-.194-.139-.206.046-.142.155-.151.422.582.985.386.28zm19.527-21.914l-.39-.092-.15.233-.084.08.014.14h.11l.055.032.055.03.084.032-.166.171.318.125.265.048.552-.064-.11-.217-.138-.14-.166-.049-.193.064.055-.283-.11-.11zM69.183 50.543l-.07-.029-.057.014-.07.109.707.983.124.11.041-.375-.137-.311-.234-.267-.304-.234zm53.347 43.17l.125-.686-.125-.687-.124-.11-.139-.297-.496-.827-.168-.156-.124-.189-1.202-3.405-.774-3.483-.663-1.498-1.59-5.608-.666-1.078-.11-.28-.098-.406-.165-.313-.887-1.092-.51-.422-.553-.314-1.658-.625-.335.016-.275.095-.649.359-.18.155-.402.69-.22.216-.443.14-.166.095-.275.327-.167.095-.982.2-.125.079-.096.096-.11.155-.318.688-.041.156-.182.187-1.188.39.276.062.277-.047.249.016.192.237-.386.64-.208.42-.068.39-.028.469-.524 1.11-.183.936-.18.406-.275-.014-.083-.157-.096-.219-.11-.124-.14.14-.72 1.688-.414.638-.484.406-.568-.016-.62-.311-.732-.109-.32-.188-.705-.187-.345-.17-.334-.346-.318-.501-.165-.56.138-.548.015-.203-.125-.672v-.311l.125-.25.124-.202v-.188l-.277-.203.29-1.657.275-.703.529-.373.165-.016.317.062.18-.016.124-.078.22-.217.142-.079h.138l.276.063.165-.016.055-.125.043-.533.027-.201.234-.22.666-.141.235-.201v-.205l-.055-.249-.015-.218.139-.109.082-.11.014-.25-.124-1.436.028-.907.192-.766.484-.482.124-.048.431-.048-.028.126-.055.329-.027.123.165-.219.496-.967.098-.283.07-.076.385-.079.124-.078.166-.36.044-.186.028-.282-.014-.827-.5-4.39v-.42l.166-.783-.014-.452-.096-.421-.235-.798-.18-.952-.138-.391-.151-.343-.194-.313-.055-.109-.04-.203-.056-.094-.114-.062-.235-.093-.29-.265-.414-.204-.192-.156-.166-.17-.111-.129-.055-.187-.056-.357-.072-.125-.11-.078-.11-.048-.055-.046-.014-.187.055-.094.069-.079.014-.156-.027-.517.068-.39.238-.265.455-.139.138.063.345.357.208.14.22.064h.238l.483-.063-.18-.344-.54-.186-.166-.454h.041l.083-.016.097-.062.028-.109-.028-.14-.041-.08-.041-.062-.029-.046-.04-.189-.166-.514-.098-.155-.138-.048-.192-.016-.166-.046-.097-.14-.455-.564-.321-.516-.055-.186-.013-.234.068-.156.222-.313-.608-.562-.635-.453-.666-.296-.62-.062-.457.109h-.195l-.566-.173h-.207l-.234-.062-.417-.47-.276-.156h-.153l-.497.109-.178-.016-.402-.125-.499-.062-.29-.217-.538-.516-.652-.249-2.06.265-.289-.094-.249-.265-.168-.36-.096-.344-.112-.297-.206-.295-.47-.486-.483-.343-.651-.281-.69-.156-.61.046-1.259.329-.567-.142-1.147-.81-1.88-.704-.47-.359-.234-.062-.249.139-.127.204-.07.235-.124.22-.249.139-1.796.188-.524-.11.014.14.206.141.524.468.056.094-.152.155-.428.939-.72.764-.332.454-.206.656v.765l.165.72.29.622.32.44.483.42.235.125 1.26.016.26.094-.26.577-.638.375-.747.188-1.203.093-.58.219-2.006 1.561-.4.517-.249.623-.014.782.58 2.499.028 1.874-.235 1.672-.442 1.547-.69 1.826-.1.156-.166.079-.151-.063-.07-.14.015-.203.151-.39.014-.22-.04-.453.04-.14.279-.406.124-.406.055-.437.014-.47-.028-.467v-.235l.112-.265v-.22l-.084-.248-.165-.127-.197-.016-.15.127-.056.201-.028.315.014.544-.028.253-.097.2-.248.392h.11l.277.092-.098.205-.261.297-.042.17v.609l-.027.313-.152.314-.014.328-.055.202-.263-.14-.137-.173-.307-.546-.124-.407.124-.64.362-1.374.027-.297-.04-.28-.125-.203-.113-.033-.345.188.07-.375.136-.485.197-.452.234-.203.084-.187-.139-.36-.32-.657-.07-.592.18-.249.224-.096.096-.186.07-.33.124-.389v-.28l-.318-.017-.32.455-.193.06h-.18l-.152.063-.151.187-.525 1.547-.165.314-.527.687-.11.187-.029.357-.524 1.72-.139.249-.206.124-.238-.046-.455-.343-.208-.048-.096-.014-.18-.063h-.11l-.138.063-.028.108.014.125-.027.14-.39.893-.151.186-.11.016-.098-.048-.096-.046-.07-.016-.428.062-.22.14-.027.282.137.64.014 1.828.124.329-.083.265-.137.14-.168.079-.222.046h-.137l-.235-.094h-.098l-.096.078-.193.22-.484.248-.347.407-.152.531.22.578.28.455.166.483.055.5-.097 1.39-.068.233-.043.25.07.657-.027.28.261.64-.083.892-.247.843-.487 1.296-.428 1.657-.345.795-.927 1.14-.345.656.041.783.18.31.469.563.206.405.17.174.11.186-.07.485.042.233.124.314.428 1.717.015.75-.277.749-.638 1.157-.18.687.042.81.152.424.389.688.18.607 2.684 5.453.29.265.15-.25.912-.47-.042.297-.18.297-.247.25-.222.125-.192.157.082.313.938 2.014.211.795.206.47.25.437.193.233.013.095-.013.046-.014.016h.027l-.041.017-.041.016-.015.03.015.079.234.498.61 5.201-.21 4.969-.234 1.593-.76 3.046-1.3 2.794-1.135 4.092-.606 1.422-.79 1.186-.788.64-.11.251-.124.235-.554.437.417-.048 1.09-.154 1.093-.14 1.079-.159 1.104-.14 1.08-.155 2.184-.299 1.094-.156 1.092-.155 1.093-.157 1.091-.156 2.187-.311 1.077-.155 1.092-.174 1.093-.157 1.094-.155 1.09-.158 1.08-.17 1.092-.173 1.092-.155 1.092-.172 1.094-.155 1.077-.172 1.093-.171 1.092-.158.153 1.186 1.162-.233 1.16-.235 1.162-.233 1.162-.235 1.162-.234 1.16-.235 1.162-.235 1.162-.249 1.162-.234 1.16-.234 1.163-.25 1.161-.233 1.162-.251 1.16-.236 1.163-.25 1.149-.248-.043-.157.029-.28.096-.19.165-.061.139.095.11-.016-.055-.547-.014-.422.069-.375.444-1.11.193-.296.278.016.055-.593.165-.453.304-.219.4.109.04-.267-.013-.265-.096-.249-.166-.187.417-.124.192-.219.194-.955.084.14.082.095.179.156-.082-.14-.028-.11-.07-.296-.055-.124-.15-.188-.042-.077v-.299l.055-.186.027-.157-.082-.203.041-.11.084-.343.15-2.264.194-.765.497-.937.223-.421.222-.313.827-.548.442-.156.113-.078.18-.202.207-.314.18-.36.055-.312-.014-.265.082-.404v-.25l-.055-.218-.166-.268-.069-.201-.027-.393.041-.482.084-.406.137-.188.58-.391.166-.078.14-.032.083-.109.027-.28-.36-.172-.29-.39-.07-.408.303-.235.321-.156.235-.265.22-.311.304-.313.18.094.623.188.277-.048.027.25-.068.312-.028.297.096.123.153.128.082.203-.11.359.332.297.11.046-.36.296-.083.156.015.078.483-.156.414-.296.32-.467.234-.644.125-.576.18-1.547-.028-.873.027-.392-.027-.217-.069-.158-.208-.373-.013-.344.11-.627v-.405l.056-.748.22-.72zM74.008 42.937l.056-.094.014-.093-.029-.14h-.082l-.097.046-.096-.016-.224-.17-.277-.173-.055-.015h-.04l-.056-.017-.04-.077-.015.422.206.28.304.156.293.016.07-.047.068-.078zm12.252-2.404l-.361.032-.29.263.206.203.721.5.512.485.206.11.249.032.292-.016.276-.064.208-.11.137-.217.18-.61.11-.235-.441-.078-.194-.124-.083-.265-.235-.22-.054.11.013.266-.055.187h-.14l-.346-.155-.91-.094zm-13.579 3.84l-.07.266-.097.236-.096.201-.069.219-.055.89-.154.437-.028.329.335.313.426.062.484-.219.389-.375.166-.468-.028-.297-.21-.531-.068-.313v-.452l-.015-.219-.096-.203-.083-.156v-.14l.07-.157.124-.14-.22-.063h-.484l-.235-.078.041.375v.267l-.027.217z"/>
        </g>
    </g>
</svg>
