<svg xmlns="http://www.w3.org/2000/svg" xmlns:xlink="http://www.w3.org/1999/xlink" width="128" height="128" viewBox="0 0 128 128">
    <defs>
        <path id="a" d="M0 0h128v128H0z"/>
    </defs>
    <g fill="none" fill-rule="evenodd">
        <mask id="b" fill="#fff">
            <use xlink:href="#a"/>
        </mask>
        <use fill="#AFC7D1" fill-opacity="0" fill-rule="nonzero" xlink:href="#a"/>
        <g fill="#AFC7D1" mask="url(#b)">
            <path d="M78.166 11.514l-.52.586-.346 1.207-.171 1.348-.053 1.072.07 1.188.76 4.23.122.391.276.409.344.39.104.176.102.177.069.195.035.234.034.621-.087.782.036.293.086.175.258.273.155.33.52.487.138.253.053.275.085.604.277.857.413.606 4.852 4.189.31.373.24.468.14.546.12.349.293.273 4.453 3.045.434.409.464.582.535.916.26.528.153.507.053.35.016.722.035.333.124.31.379.547.086.27-.05.294-.122.313-.052.332.138.331.173.293.12.427.051.428-.051.333.965 1.851.623.724.776.253.759-.488 1.02-1.792.896-.313.365.118.655.408.344.06h.43l.952.213 1.882.955.793.606.344.661-.103.467-.259.683-.293.626-.242.273-.224.311.018.644.173 1.034.069 1.07-.26.841-.778 1.752-.706 2.986-.758 1.695-.224.857v.975l.257 1.17.14.408.137.293.138.253.173.238 1.088.875.138.233.568.548.138.213.155.39.344.274.727.388.519.489.5.603.532.489.676.175 1.085.877.314.155.672-.077.242.057.602.136.676.47 1.155 1.13.468.273 1.172.43.483.312.503.683.655 1.363.448.489 1.865.759.533.429-.12.332.102.409.176.468.105.469v.428l-.052.448-.017.489.102.526.466.857.586.781.5.857.278 1.052-.244.977-.585.777-.484.803.087 1.01.104.078.379.138.171.078.31.235v.35l.103.431.177.389.499.817.845 1.094.326.701-.068.78.349.352.999.76.796.273.206-.02.07-.273-.086-.389-.155-.215-.177-.136-.188-.197-.242-.566.086-.273.344-.096.452-.04.12.118.14.624.066.213.191.16.413.233.155.155.122.273.069.271.086.273.189.196.228.037.224-.077.206-.136.173-.078.378.156.14.448-.036 1.152.104.82v.252l-.087.194-.155.237-.155.29-.051.312.12.546.361.879.087.584-.087.701-.585 1.891-.327 1.541-.346.76-.467.35-.604-.175-.534-.449-.503-.544-.5-.41-.19.157-.102.156-.138.466-.19.996-.018.409-.19 1.247-.086.311-.033.158-.362.626-.28.368-.24.176-.501-.098-.052-.389.12-.528.036-.235.069-.35-.327-1.013-.672-.273-.59.35-.086.935.206.311.191.217.085.078.176.37-.086.507.017.409.5 1.034.104.566-.155.604-.311.29-.452.118-.481.04-.346.253.086.47.328.507.38.33.485.136.206.156-.05.293-.174.177-.227.096-1.74.253-.33.175 1.157 1.579.586.996-.121.506-.293.098-.344.253-.276.29-.12.256-.035.45-.487 1.128-.085.917h-.068l-.036.02h-.033l-2.675.353-2.658.369-2.678.35-2.673.351-1.364.175-.122-.02-.033-.117-.018-.098.051-.27.552-1.521.154-.275.263-.622.206-.311.104-.215.07-.098.086-.078.084-.077.38-.138.104-.058.086-.077.085-.078.053-.118.051-.117.035-.158v-.135l.016-.233.018-.138.035-.136.069-.117.069-.096.17-.155.087-.06.246-.116.397-.235.568-.428.086-.098.051-.1.052-.135.035-.138.033-.524.018-.117.069-.098.086-.078.452-.213.104-.078.085-.08.053-.095.069-.12.033-.117.035-.136.016-.135-.016-.138-.137-.759v-.157l.069-.644v-.311l-.053-.136-.051-.12-.138-.194-.087-.078-.105-.078-.655-.369-.07-.077-.07-.118-.033-.135-.035-.138-.051-.41-.034-.116-.035-.098-.07-.058-.103-.06-.087-.077-.05-.078-.225-.566-.12-.195-.035-.058-.034-.058-1.297.136-5.127.506-5.124.488-5.145.47-5.128.467-5.142.446-5.129.429-5.128.43-5.141.391-5.146.39-5.145.39-5.124.35-5.145.353-5.145.33-5.142.333-5.145.291-5.147.293-.55-13.063-.138-3.335-.156-3.334-.275-6.648-.155-3.336-.275-6.667-.156-3.332-.14-3.316-.278-6.649-.155-3.334-.413-9.962-.155-3.315-.069-1.91-.018-.176-.084-.04-.018-.08v-.078l-.035-.037.241-.331-.035-.215-.309-.116-.43-.02-.069-.04-.039-.213-.104-.078-.085-.02-.19.04-.275-.02-.553.058-.413-.155-.83-.566-.378-.098-.346-.233-.102-.548-.053-.544-.19-.234-.624-.45-.448-1.014-.189-1.033.156-.466-.81-.16-.087-.135-.12-.409-.069-.155-.797-.564-.344-.155-.138-.1-.189-.293-.448-.897-.107-.193-.327-.138-.328-.388-.242-.509v-.548l.14-.075.481-.06.189-.156.053-.213.016-.293-.051-.566.123-.448.26-.449.55-.681.19-.156.156-.097.102-.156.018-.643.051-.275.087-.216.137-.095.882.253h.415l.275-.331.018-.293-.104-.175-.138-.176-.086-.31.017-.294.052-.528.017-.253-.189-.273-.813-.486-.277-.351.14-.273v-.35l-.14-.296-.24-.135-.415.04-.308.095-.26.176-.538.568-.362.293-.413.155-.379-.195-.517-.604-.21-.158-.206-.077-.38-.04-.155-.038-.155-.157-.103-.176-.07-.213-.138-.213-.155-.078-.222-.04-.209-.04-.26-.388-1.052-1.017-.517-.466-.314-.175-.844-.136-.224-.293-.051-.448.051-.586.173-.487.051-.293-.051-.115-.586-.586-.122-.37-.26-.431-.518-.662.258-.664.018-.33-.207-.275-.31-.116-.655-.02-.275-.135-.228-.331-.173-.351-.189-.31-.328-.236h-.326l-.362.078-.293-.04-.138-.331.223-.193.173-.198.086-.195-.051-.098-.242-.757-.314-.49-.086-.193-.016-.176.016-.392-.016-.156-.155-.408-.329-.427-.173-.373-.033-.37.051-.293-.018-.291-.29-.273-.433-.156-.362-.06-.243-.233-.104-.663.069-.684H.45l4.368-.233 4.368-.233 4.349-.253 4.35-.273 4.368-.273 4.35-.273 4.35-.293 4.364-.311 4.353-.313 4.35-.331 4.35-.35 4.349-.354 4.351-.348 4.35-.373 4.349-.389 4.35-.39 1.71-.156.726-.057.171.37.087.116.345.233.087.137.033.35.052.238.086.192.155.175.173.1.399.077.43.274.054.097.102.349.086.155.087.06.086.02.189-.02.122.038.05.12.052.133.053.138.171.117.365.14.156.113.12.176.069.177.017.175-.033.176.17.233.708.662.224.175.537.177z"/>
        </g>
    </g>
</svg>
