<svg xmlns="http://www.w3.org/2000/svg" xmlns:xlink="http://www.w3.org/1999/xlink" width="128" height="128" viewBox="0 0 128 128">
    <defs>
        <path id="a" d="M0 0h128v128H0z"/>
    </defs>
    <g fill="none" fill-rule="evenodd">
        <mask id="b" fill="#fff">
            <use xlink:href="#a"/>
        </mask>
        <use fill="#AFC7D1" fill-opacity="0" fill-rule="nonzero" xlink:href="#a"/>
        <g fill="#AFC7D1" mask="url(#b)">
            <path d="M126.632 86.715l-.056 1.78-.044 1.782-.055 1.78-.09 3.562-.055 1.782-.045 1.792-.056 1.782-.024 1.01-.011.215-.358-.026-1.196-.05-1.197-.05-1.196-.051-1.197-.05-1.207-.064-1.197-.05-1.197-.063-1.196-.064-1.196-.05-1.197-.062-1.207-.063-1.197-.065-1.197-.076-1.197-.063-1.196-.062-1.197-.075-1.207-.079-1.197-.062-1.197-.076-1.197-.075-1.197-.075-1.196-.077-1.207-.088-1.186-.076-1.195-.088-1.209-.076-1.196-.088-1.197-.088-1.197-.089-1.196-.089-1.195-.089-1.197-.088-1.197-.086-1.197-.104-1.197-.089-1.196-.1-1.197-.1-1.196-.089-1.197-.1-1.196-.101-1.197-.114-1.197-.1-1.197-.103-1.197-.112-1.196-.103-1.196-.114-1.197-.112-1.196-.115-1.196-.114-1.197-.112-1.197-.115-1.185-.126-1.196-.113-1.197-.126-1.197-.114-1.196-.126-1.196-.127-1.197-.126-1.185-.126-1.197-.127-1.197-.126-1.197-.14-1.196-.126-1.186-.14-.558-.061-.022.265-.045.506-.046.492-.044.504-.045.494-.044.504-.045.494-.045.504-.044.494-.046.503-.09.987-.044.503-.044.495-.09 1.01-.045.492-.469-.202-.168-.164-.28-.454-.157-.38-.133-.2-.112-.114-.157-.115-.078-.076-.056-.075-.021-.075-.023-.079-.012-.087v-.2l.012-.116.011-.1-.034-.127-.055-.075-.079-.076-.102-.063-.044-.075-.066-.217-.381-.807-.079-.303-.1-.1-.38-.293-.135-.05-.089-.012-.056.05-.145.215-.068.065-.089.024h-.313l-.078.025-.145.076-.112.1-.045.077-.021.075.021.076.023.076.045.062.033.077.011.077.012.099-.012.088-.033.103-.044.062-.068.037-.303.09-.054.05-.035.063-.034.177-.023.076-.1.177-.034.088-.021.1v.179l.021.174.012.077.023.04.021.05.045.062.067.038.246.126.056.064.023.063v.077l-.079.037-.11.024h-.192l-.1-.024-.068-.026-.122-.125-.323-.216-.134-.05-1.197-.154-.17.014-.525.291-.078.037-.19.025-.222-.012-.101.026-.235.09-.101-.014-.079-.037-.056-.053-.034-.075-.022-.076-.079-.137-.066-.079-.1-.087-.19-.101-.459-.075-.1.013-.09.013-.056.049-.09.037-.112.026-.213.013-.178-.052-1.073.077-.1-.025-.258-.151-.302-.127-.2-.038-.26-.025-.122-.026-.078-.05-.146-.151-.156-.1-.1-.014-.079.026-.1.1-.056.038-.09.026-.29.038-.18.063-.134.062-.066.038-.045.064-.046.076-.122.38-.247.517-.066.075-.1.063-.18.038H33l-.102-.038-.055-.063-.046-.063-.066-.075-.09-.09-.202-.087-.168-.027-.301.014-.067-.026-.089-.113-.056-.05-.067-.051-1.33-.367-.37-.152-.112-.012-.09.012-.212.115-.067.026-.325.036-.066.037-.705.608-.055.064-.045.063-.044.075-.035.076-.011.1.023.077.156.378-.023.088-.056.09-.19.077-.1-.026-.056-.05-.224-.432-.045-.062-.056-.051-.48-.24-.067-.063-.056-.063-.145-.279-.056-.088-.09-.074-.179-.104-.09-.075-.032-.1.01-.19-.01-.076-.08-.226-.01-.076.01-.038.057-.15.134-.242.022-.088-.022-.088-.067-.103-.168-.112-.079-.088-.054-.09.021-.19-.011-.087-.022-.076-.257-.391-.034-.076V99.9l.011-.086.045-.063.056-.053.123-.088.056-.063.045-.062.01-.09v-.089l-.01-.074-.056-.151-.1-.228-.024-.076-.056-.253-.021-.076-.035-.074-.078-.142-.033-.075-.023-.074-.011-.09-.01-.087-.012-.077-.023-.076-.033-.075-.135-.19-.044-.074-.124-.292-.033-.076-.178-.253-.236-.265-.268-.201-.246-.101-.19-.039-.079.026-.077.026-.056.037-.246.189-.09.039-.111.024-.201-.013-.101-.037-.056-.076v-.277l-.011-.089-.08-.1-.144-.127-.482-.33-.122-.126-.078-.15-.057-.152-.1-.505-.045-.152-.066-.14-.09-.139-.034-.076-.011-.075.023-.076.056-.05.056-.037.223-.077.057-.05.055-.064.044-.075.034-.089.111-.39.023-.09v-.025l-.023-.266-.01-.089-.123-.479-.045-.164-.29-.58-.023-.078-.033-.302-.068-.127-.079-.062-.357-.038-.09-.05-.056-.063-.01-.089.022-.201-.012-.088-.033-.065-.079-.15-.01-.075-.011-.09v-.102l-.023-.162-.022-.09-.056-.139-.135-.214-.155-.177-.191-.303-.167-.19-.046-.09-.01-.087.01-.177-.01-.1-.034-.09-.08-.1-.222-.228-.056-.087-.033-.077-.023-.076.011-.19.012-.1.044-.19.068-.404.021-.202-.033-.113-.067-.114-.28-.316-.033-.127v-.19l-.012-.076-.011-.087.011-.088.023-.1.033-.09.09-.151.034-.088.011-.089v-.279l.01-.1.012-.012-.022-.128-.1-.126-.325-.202-.079-.1-.033-.101.023-.1.044-.204.078-.176.034-.077.1-.126.045-.075.022-.09-.011-.088-.033-.1-.09-.127-.067-.088-.09-.05-.535-.291-.124-.1-.067-.102.011-.178-.011-.087-.022-.074-.258-.306-.347-.353-.2-.139-.134-.075-.068.013-.044.038-.034.037-.023.076-.01.1-.012.089.011.076.023.115v.162l-.023.062-.033.027-.056.025-.29.065-.08.024-.066.038-.056.05-.057.063-.089.152-.033.09-.045.074-.056.077-.056.037-.2.1-.068.051-.045.076-.044.075-.034.076-.045.05-.067.04-.458.138-.269.139-.067.026h-.09l-.178-.05h-.09l-.067.024-.067.039-.056.049-.056.063-.044.076-.157.33-.056.074-.011.013-.056.039-.268.1-.067.038-.1.025-.124.013-.224-.05-.111-.064-.079-.075-.033-.063-.045-.127-.347-.266-.1-.1-.057-.101-.011-.09-.01-.101-.045-.1-.336-.34-.1-.05-.493-.19-.212-.025-.157-.05-.033-.064.01-.063.146-.191.046-.075.021-.089v-.102l-.033-.1-.046-.152-.01-.1.022-.088.057-.052.245-.175.168-.14.034-.037.022-.05.033-.077.034-.089.011-.088-.022-.177.011-.077.056-.151v-.114l-.056-.125-.246-.34-.056-.102-.011-.089-.034-.227-.067-.164-.011-.128.023-.075.055-.05.123-.102.067-.05.09-.151.089-.138.146-.19.066-.138.035-.038.044-.053.124-.075.066-.025.079-.012.38.037h.078l.078-.025.067-.038.29-.241.057-.062.023-.101v-.114l-.18-.428-.033-.09-.011-.074v-.09l.022-.101.067-.176.135-.217.033-.088v-.113l-.023-.1-.078-.064-.28-.125-.234-.164-.09-.114-.022-.102.034-.088.022-.102v-.113l-.068-.177-.021-.127.011-.1.033-.088.045-.076.257-.315.045-.077.033-.074.023-.101.011-.09-.023-.088-.033-.077-.37-.555-.044-.102v-.087l.023-.088.033-.064.023-.025.055-.038.067-.026.37.013.078-.013.067-.037.056-.05.045-.064.022-.087.012-.102-.012-.177.012-.292v-.088l-.012-.088-.044-.177-.035-.113-.021-.1v-.089l.033-.077.034-.062.11-.127.046-.076.034-.088.033-.19.023-.089.044-.076.258-.315.044-.063.034-.088.01-.1.012-.202.023-.204.055-.188.067-.179.314-.529.033-.1.033-.09.023-.1v-.102l-.012-.088-.033-.09-.033-.1-.134-.216-.034-.074v-.038l.034-.076.045-.037.066-.026.313-.075.134-.076.057-.05.045-.051.033-.088-.011-.076-.012-.077-.022-.074-.011-.09.011-.088.034-.076.1-.126.033-.09.023-.075v-.1l-.011-.077.011-.088.023-.089.033-.087.09-.152.055-.19.045-.403-.01-.101-.035-.115-.056-.076-.077-.05-.09-.025-.09-.013-.749.1-.067.014-.19.113-.145.065-.079.011h-.089l-.078-.024-.168-.102-.067-.026h-.078l-.257.063-.135.026-.178-.013-.135-.063-.145-.088-.235-.215-.1-.126-.068-.113-.011-.076-.01-.088.021-.09.045-.074.168-.178.022-.09v-.125l-.078-.165-.056-.1-.247-.252-.078-.05-.078-.027h-.156l-.079.04-.19.124-.268.278-.078.039h-.09l-.101-.039-.045-.075-.022-.076.011-.088.123-.378.012-.102.011-.114-.034-.126-.045-.076-.067-.062-.302-.14-.156-.102-.101-.126-.134-.215-.1-.125-.302-.278-.09-.102-.056-.087-.067-.242-.023-.175-.011-.177.011-.278.023-.102.022-.1.045-.088.022-.076v-.09l-.056-.073-.245-.217-.08-.09-.065-.086-.247-.468-.056-.088-.067-.063-.2-.088-.146-.088-.079-.076-.044-.078-.012-.037v-.036l-.022-.293-.011-.087-.816-1.252-.112-.403-.236-.48-.1-.138-.269-.252-.078-.128-.089-.164L7 54.581l-.079-.076-.1-.075-.056-.076-.033-.088-.01-.177-.024-.076-.034-.088-.056-.1-.033-.09-.078-.253-.089-.214-.079-.102-.079-.088-.905-.555-.526-.178-.145-.1-.078-.074-.044-.09-.08-.227-.067-.241-.133-.29-.292-.48-.089-.1-.727-.683-.39-.202-.169-.113-.067-.101-.012-.09.023-.075.046-.05.033-.025.056-.038.066-.013.459.038.078-.012.078-.026.068-.024.056-.065.033-.077-.033-.112-.09-.088-.156-.115-.09-.088-.01-.013-.012-.34-.068-.19-.077-.114-.257-.24-.045-.09v-.087l.056-.05.066-.038.28-.115.056-.05.055-.05.057-.064.09-.15.033-.089-.012-.139-.044-.176-.235-.519-.034-.139.079-.391.011-.114-.023-.113-.044-.153-.068-.088-.278-.266-.045-.087-.023-.113-.011-.115-.045-.164-.09-.1-.256-.215-.068-.1-.033-.102-.1-.81-.023-.1-.055-.139-.08-.087-.223-.203-.09-.115-.088-.176-.101-.139-.123-.14-.056-.086-.034-.09-.056-.189-.212-.404-.1-.266-.258-.454-.201-.265-.068-.177-.023-.1.101-.799.247-1.88.234-1.87.247-1.882.246-1.869.246-1.88.245-1.872.236-1.869.246-1.868 2.158.352 2.292.38 2.293.368 2.281.352 2.292.353 2.282.355 2.292.342 2.293.34 2.293.327.178.026 2.113.302 2.293.328 2.292.317 2.293.316 2.292.303 2.293.304 2.293.29 2.292.304 2.303.277 2.292.29 2.293.277 2.305.267 2.292.265 2.304.265 2.292.253 2.302.253 2.304.25 2.293.242 1.32.127.985.101 2.303.239 2.292.227 2.303.216 2.304.213 2.304.215 2.305.203 2.303.203 2.303.188 2.305.189 2.302.19 2.304.176 2.305.167 2.303.174 2.303.166 2.304.15 2.314.153 2.304.151 2.304.138 2.304.14 2.315.138 2.303.126 2.303.128 2.315.112 2.304.114 2.304.102 2.315.1 1.644.077-.09 3.056-.078 3.07-.09 3.068-.077 3.083-.09 3.082-.078 3.081-.18 6.188-.077 3.098-.09 3.106-.08 3.093-.178 6.229-.078 3.119-.089 3.12z"/>
        </g>
    </g>
</svg>
