<svg xmlns="http://www.w3.org/2000/svg" xmlns:xlink="http://www.w3.org/1999/xlink" width="128" height="128" viewBox="0 0 128 128">
    <defs>
        <path id="a" d="M0 0h128v128H0z"/>
    </defs>
    <g fill="none" fill-rule="evenodd">
        <mask id="b" fill="#fff">
            <use xlink:href="#a"/>
        </mask>
        <use fill="#AFC7D1" fill-opacity="0" fill-rule="nonzero" xlink:href="#a"/>
        <g fill="#AFC7D1" mask="url(#b)">
            <path d="M97.024 93.783l-.174-.152-.227.031-.202.197-.053.346.12.196.241.076.255.045.186.091.081-.212.08-1.27-.226.531-.081.12zm.858-5.964l-.093.53-.013.607-.057.529.163-.288.133-.513.12-1.001.028-.03h.04l.027-.03-.027-.106-.32.302zm5.584-8.7l-.508.515-.254.152-.241.152-1.634 1.83-.417.726-.16.712.187-.35 1.22-1.874.186-.137.458-.256 1.057-1 .306-.454.041-.03.057-.015.013-.03-.027-.09-.284.15zm11.401-5.642l-.174-.105-1.085-.168-.295.075.028.138.187.076.792.12.628.333.066.06.187-.167-.106-.196-.228-.166zm-2.8-.439l-2.315.953-2.2 1.014-.36.288-.2.362 3.762-1.997.361-.136 1.785-.287-.028-.136-.805-.06zm6.443-6.022l-.187.241-.067.196-.067.152-.521.62-1.153 2.135-1.112 3.526-.095.634.202.363.053-.575 1.153-3.857.604-1.211.227-.272.28-.273.562-1.06.337-.378.188-.619-.174.136-.23.242zm1.784-3.42l-.067.076-.015.196-.081.167-.093.135-.028.122-.04.303-.335.636-.107.257.095-.016.146-.437.912-1.122.054-.03.04-.03.04-.045.04-.076-.36-.12-.201-.016zm2.369-2.315l-.655.787-.364.286-.348-.03-.026.56-.053.258-.134.244 1.354-1.605 1.205-.863.215-.378.2-.196.067-.12.053-.168-.361.377-1.153.848zm4.621-8.412l-.026-1.604-.213-.802-.469-.953-.12-.395-.12-.422-.217-.5-.28-.423-.309-.198-.107.138.16.346.376.606.107.378.657 1.362.255.803.106.468v.228l-.106.482-.014.243.053.228.148.363.054.212.065.453v.74l.081.773.027 1.014-.04.272.12.605-.307.455-.923.65-.805.756-.053.03-.028-.044-.026-.06-.053-.032-.067.06-.014.092.014.105-.014.06-.053.109-.014.105-.053.076-.135.06-.106.12-.107.168v.136l.148.015.12-.06.147-.227.08-.078.214-.12.494-.424.297-.136.482-.422.455-.092.147-.06.213-.272.081-.364.053-1.603-.375-3.42zm-4.086-7.173l-.24-.288-.054-.165-.107-.076-.107-.06-.227-.045-.12-.045-.133-.046-.135.015-.12.06-.095.152.055.09.107.06.107.091.16.197.508.41.174.286.148.363.163.288.24.09.268-.09.026-.106-.04-.196.067-.394-.645-.591zm1.57 1.347l.067.12.12.047.294.06.135.06-.671-1.074-.308-.786-3.068-4.1-1.017-1.893-.604-.877-.12-.302-.12-.47-.147-.394-.376-.755-1.218-3.118-.014-.014-.2.045-.188.045.014.031.012.105.322.651.241.651.293.423.12.332.295.44.096.244.348 1.27.201.53h-.027l-.04.045-.014.076.067.09.241.196.59.787.269.62.32.53.267.559.028.516.027.135.173.303.148.333.16.303.257.15.133-.181.16.076.162.229.133.301-.32.197h-.121l-.16-.181v.362l.187.196.24.045.161-.181.093-.016 1.274 1.258.32.468.174.696.147.334.361.15.056.152.028.181zm-8.748-12.634l.081.274.107.272.32.045.59-.137.135-.09-.026-.135-.096-.169-.081-.18-.12-.531v-.014l-.255.06-.227.06-.08.136-.174.06-.093-.121-.659.151.121.153.457.166zm4.983 17.764l.24.331.282.107.323-.257.04.06.04.045.027.06.026.076-.093.06-.177.154.03.136.441-.122.188-.09.133-.138.013-.12-.067-.181-.012-.167.119-.09.12-.06.068-.092.053-.105.12-.47-.053-.196-.44-.486-.214-.317-.028-.15.334-.12.362-.077.026-.151-.093-.424-.12-.258-.268-.303-.08-.181.013-.317.067-.303.054-.317-.068-.365-.093-.121-.321-.347-.054-.256-.925-1.077-.508-.453-.565-.257.028.197-.014.182-.027.181-.054.181.174-.045h.162l.163.06.16.106-.255.227-.323.014-.334-.076-.308-.014.12.243.188.226.2.169.322.075.067.135v.136l-.12.091h-.095l-.388-.136-.374-.377-.254-.198-.081.091-.08.183-.403.482-.081.197.485 2.451.053.682-.203 1.694-.094.03-.093-.136-.067-.105-.028-.076v-.06l-.387.197-.374.12-.375-.076-.35-.437.336-.093.51.076h.454l.186-.362-.093-.047-.201-.198-.12-.225.133-.152.054-.136-.107-.21-.187-.212-.147-.092.107-.013-.214.029h-.255l-.242-.062-.201-.09-.147-.182.174-.045.416.06.39-.242-.028-.53-.28-.513-.377-.227-.028-.136.297-.152.2-.363.109-.469.04-.453-.188.091-.458.331-.013-.711.12-.228.35.122-.025-.334-.337-.225-.442-.121-.362-.015-1.34.453-1.192.728-.267.377.174.181.334.121.23.212-.364.06-.668-.167-.322.016-.147.105-.095.167-.095.077-.12-.108-.026-.105v-.181l-.014-.212-.093-.181-.508-.045-.726.362-.696.53-.387.44-.107.03-.404-.046-1.981.469-.028-.136.348-.925.028-.302-.214.016-.08-.152-.04-.241-.081-.226-.147-.136-.148-.108-.146-.15-.2-.546-.285-.393-.08-.212-.24-1.316-.014-.424.067-.394.16-.424.188-.317.053-.18-.013-.273-.094-.166-.32-.273-.134-.212.348.06.31.136.187.334-.026.574-.067.212-.163.319-.028.225-.04.94.19.499.495.816.415 1.029.347.289.338-.091.146-.517.174.122.536.636.186.046.267-.046.485-.15.334-.198.415-.348.39-.455.227-.467-.146.03-.041.015-.04-.151.213-.197 1.394-.622-.04-.151h-.283l-.428-.105-.415-.166-.187-.167-.106-.151-.578-.197-.134-.12-.147-.168-.282-.423.294.136.309.196.28.107.217-.12.321.363.455.196 1.647.378h.363l.336-.166-.014-.12-.322-.197-.657-.682-.188-.122-.146-.03-.16-.09-.148-.152-.093-.166-.068-.272h.094l.268.196.48.257.135.031.12.09.32.394.511.196.16.03.149-.014.44-.136-.026-.12-.094.029-.026-.152.51-.182.147-.106.267-.301.067-.167-.174-.014-.186-.06-.23-.441-.389-.12-.2-.197-.308-.424-.253-.181-.337-.196-.361-.137-.335-.015-.067-.091.026-.255.081-.274.12-.136.188.015.026.135-.065.167-.12.106.804.06.254.092.347.212.308.27.133.076.284.016.134.076.455.515.308.225.32.047.31-.031 1.07.107-.027-.138-.227-.045-.241-.105-.441-.319.16-.18-.08-.304-.173-.346-.27-.713-.162-.152-.186-.09-.188-.272.281-.046.241.091.457.288-.12.408.107.152.227.06.241.107.066.12.067.288.053.12.108.076.374.226.244.272.12.214.08.18-.012.17-.028.18.014.181.107.166.48.5.295.242.27.076.24-.184-.132-.331-.284-.393-.187-.363-.12-.288-1.22-2.105-.108-.241-.16-.286-.615-.698-.187-.27-.107-.924-.134-.53-.177.06-.026.425-.053.257h-.054l.067.197.093.136.124.134.16.136-.35-.165-.455-.424-.267-.438.227-.198-.361-.15-.374-.258-.325-.332-.186-.364-.053-.33v-.395l-.042-.243-.026-.046-.375.092-2.104.515-2.49.574-2.492.575-2.493.576-2.504.574-2.492.56-2.49.56-2.493.56-2.505.56-2.49.545-2.493.543-2.506.546-2.503.53-2.492.53-2.506.527-2.491.515-2.506.515-2.506.513-2.503.515-2.506.501-2.505.498-2.506.5-2.503.485-2.506.483-2.506.484-2.503.484-2.507.47-2.519.453-2.504.47-2.506.47-2.52.437-2.502.453-.32.06-.11-.014-.067-.046-.121-.21-.494 1.392-.067.437.04.092.28.439.027.18-.12.788-.241.908-.026.198v.136l.04.076.2.317.24.27.054.092.053.09-.026.077-.067.03-.454.016-.806-.153-.067.015-.065.045-1.004 1.061-.337.438-.053.09-.99 3.359-.093.198-.121.167-.134.105-.203.274-.12.136-.12.074-.094.031h-.12l-.228-.03-.107-.03-.16-.091-.067-.075-.04-.076-.027-.09-.027-.107-.04-.092-.04-.076-.053-.06-.067-.045-.084-.03h-.093l-.201.03H28.3l-.08-.03-.147-.092-.08-.015-.053.015-.08.03-.147.108-.402.454-.07.06-.308.046-.12.03-.334.271-.48.243-.135.09-.216.182-.228.272-.415.683-.12.256-.12.514-.04.136-.214.44-.094.15-.08.107-.053.06-.056.046-.603.589-.12.091-.093.045-.094.015-.094-.015-.093-.031-.08-.045-.08-.076-.054-.06-.053-.076-.123-.257-.028-.105-.013-.12.013-.152.043-.274.013-.09-.013-.06-.03-.045-.293-.35-.068-.044-.106-.015-.133.06-.629.515-.338.213-.908.785-.013.03-.028.06v.077l.041.287-.013.107-.028.09-.146.242-.04.183-.014.12-.067.166-.08.076-.094.045-.083-.014-.174-.12-.214-.137-.2-.06-.134-.016-.146.03-.215.09-.107.092-.08.09-.053.18-.027.121v.121l.013.107.026.105.041.093.174.301.013.109-.026.12-.135.27-.026.092v.212l-.013.105-.054.197-.283.668-.295.558-.106.105-.081.047-.227-.031-.618.045-.174-.03-.08.03-.066.046-.71.575-.485.257-.106.077-.08.075-.294.468-.134.12-.348.228-.107.076-.066.09-.04.09-.268.395-.23.515-.094.06-.107.03-.107-.015-.133.015-.148.06-.12.092-.186.272-.135.226-.16.198-.738.515-.12.12-.081.107-.12.241-.281.409-.093.105-.081.06-.926.379-.107.015-.106-.015-.08-.045-.08-.06-.08-.06-.108-.016-.136.015-.28.15-.16.047-.135.03-.08-.016h-.094l-.094.03-.093.032-.135.09-.053.016-.053.014-.525.031-.093.016-.28.136-.268.165-.321.302-.2.243-.137.105-.107.076-.455.198-.227.136-.12.105-.068.093-.174.587-.053.107-.093.166-.093.09-.578.335-.12.105-.094.12-.282.455-.026.107-.027.074v.152l.108.257.012.09v.122l-.012.106-.027.105-.2.455-.028.12-.04.197v.12l.054.65-.041.184-.107.197-.242.363-.12.166-.095.091-.054.015-.373.06-.775.227-.218.03h-.093l-.081-.03-.08-.045-.134-.12-.093-.016-.12.015-.214.12-.108.092-.08.09-.227.318-.137.272-.067.198-.026.092v.165l.026.695.041.757.054 1.136.04.968.056.953 1.096-.197 1.112-.198 1.113-.196 1.097-.197 1.112-.196 2.212-.407 1.11-.198 1.1-.196 1.112-.214 1.1-.196 1.108-.212 1.113-.21 1.1-.197 1.098-.212L18 86.67l.27-.045 4.058-2.36.457-.196.08.15.068.06.12.03.066-.03.12-.105.147-.152.322-.272.134-.15.093-.152.028-.227.026-.12.08-.107.133-.03.163-.015.12-.047.121-.09.455-.363.712-.408.093-.045.535-.107.107-.044.067-.06.054-.094.093-.134.093-.06.524-.092.107-.075.067-.092.041-.318.054-.121.08-.12.187-.197.107-.06.093-.016.067.047.04.06.094.105.04.045.053.03.067.016 1.086-.317 1.059-.122.134-.03.401-.044.631-.076.83-.108.991-.12 1.123-.135 1.22-.167 1.313-.154 1.341-.18 1.34-.181 1.338-.166 1.274-.167 1.19-.165 1.086-.137.925-.122.763-.106.912-.121h.188l.119.03.08.061.068.06.053.06.04.078.04.09.013.107.014.12-.026.105-.095.409-.013.09v.166l.027.076.04.091.067.092.067.075.107.076.083-.015.08-.045 1.057-1.211.08-.076h.066l.054.016.053.046.671.694.965 1.03.777.831.08.107.027.12.267 2.09.027.136.053.12.093.092.121.014.592-.105.16-.031.454-.075.725-.12.936-.169 1.1-.196 1.246-.214 1.313-.24 1.367-.242 1.366-.241 1.313-.228 1.23-.226 1.113-.198.925-.167.723-.136.47-.091.16-.03.549-.09h.454l.311.044.561.44 1.14.907 1.136.908 1.14.893 2.292 1.815 2.29 1.8 1.152.894 1.152.907 1.153.91 1.136.892 2.306 1.786 1.165.892 1.15.893 1.154.908.387-.242.027.12-.053.09-.107.243 1.205-.832.872-.484.309-.318.053-.605.107-.016.146.348.014.167-.04.166.508.015 1.14-.56h.4l.203.06.817-.21.28-.03 1.407.136.254-.03.203-.136.094-.196.374-1.077.148-.8v-.273l-.134-.68-.026-.348.04-.288-.228-.455-.417-1.392-.093-.56.093-.015.378.818.427.71-.014.606.401 1.544-.107.635.014.121.08.136.013.181-.053.393.348-.65.08-1.135-.12-2.253.04-.364.202-.802.067-.665.174-.364.376-.59.547-1.574.699-1.407 1.593-2.284 1.047-1.013.708-.426.215-.151.106-.12-.054-.061-.08-.045-.027-.136.134-.241-.16-.197-.295-.122-.267-.015-.134-.06-.187-.166-.177-.198-.08-.152.04-.18.12-.137.138-.045.067.075.133.015.227-.12.174-.287-.067-.5-.133-.242-.201-.243-.2-.107-.165.167-.16-.301-.293-1.015.2.23h.174l.15-.078.12-.031.213.108.134.15-.027.122-.24.06.026.121.281.166.696.666.134.197-.067.408-.536.694-.16.35.55.015.079.06h.067l.35.258.254-.137.308-.363.174-.107.348-.346.55-1.302.401-.348.04-.09-.186-.333-.014-.136.12-.045.107.09.107.122.107.03.148-.136.093-.259.027-.317-.04-.35-.08-.074-.174-.317-.04-.303h.267l.013.076.173.438.418.468-.2.274.04.227.16.092.134-.12.12-.139 1.968-1.209.415-.455 2.868-.41-.134-.225-.43-.484-.079.136-.106.105-.12.091-.228.06.146-.392.255-.378.32-.303.335-.167.24.152.151.439.133.513.174.378.415.151.067-.468-.227-1.71.12.015.28.287.375.243-.188.348.12.288.311.18.335.063.32-.076.134-.092.107-.136.041-.182-.055-.136-.065-.105-.028-.107.067-.183.093-.12.174-.197.35-.815.188-.289.067-.136.054-.212v-.212l-.054-.332.027-.166.08-.015.04.105.107.167.04.105.509-.438.107-.136.093-.363-.067-.167-.107-.091-.08-.197.027-.332.12-.06.177.029.24-.06.133-.15.148-.364.107-.152-.027-.151-.388-.152-.257-.318-.293-.271-.468-.046.16.272.334.363.094.288-.12.09-.308.092-.281.212-.08.378h-.134l-.591.377-.227.076-.094-.031-.094-.06-.053-.106-.026-.165.026-.227.094-.045.107-.016.334-.317.053-.136-.12-.167-.334-.35-.014-.18.014-.333-.028-.196-.04-.06-.187-.213-.04-.09-.08-.015-.12.317-.094.409-.04.301.04.228.053.272.054.289-.026.317-.267-.288-.244-.105-.241.016-.214.044-.268.197.08.272.43.467.146.38-.253-.046-.376-.18-.294-.107-.026-.06-.107-.168-.161-.15-.163-.091-.16.03-.147.106-.241.286-.201.32-.174.38-.214.33-.35.257-.107.227-.093.06-.081-.029-.08-.076-.094-.12-.575-.288-.75-.091-.684.03-.657-.166-.668-.68-.496-.757-.31-.317-.308-.091-.067-.214-.828-.997.575.136.885.954.575.136.227.076.805.663.468.273.562.213.47-.015.63-.183.507-.362.163-.513.255-.35.561-.575.428-.545-.133-.317.416-.287.241-.455-.014-.529-.35-.498-.186.197.026.12.08.03.08.046.083.03-.204.196-.172-.016-.162-.105-.2-.06-.614.105-.204-.03.123-.24.201-.183.227-.12.214-.078.093-.09.107-.18.148-.185.227-.105.444.091.201-.015.052-.181-.107-.167-.2-.09-.378-.091-.026-.12h.766l.32-.077.093-.286v-.213l.081-.378-.053-.137-.28-.228-.135-.165-.08-.196-.347.06-1.408-.181-1.246-.031-1.019-.377-.91-.031-.256-.107-.509-.286-.668-.258-.631-.031-.387.394-.241-.59-.188-.211-.31-.031-.173-.06-.202-.212-.348-.545.643.395.337.134.681.031.78.288.427.045.762-.076.311.107.374.256.362.106.738-.424.44.015.04-.136.081-.09.093-.075.134-.06.04.453.362.225h.443l.267-.24-.08-.137-.106-.09-.12-.062-.16-.029.025-.091.014-.074.026-.076.08-.076-.026-.122-.107-.047-.11-.074-.267-.212.04-.122.067-.453-.134-.167-.147-.15-.187-.091-.228-.016.508-.575.281-.212.392-.06.708.029.321-.06.363-.166-.107.59-.216.197-.749.047-.361.18-.013.242.2.227.32.166.028.12-.174.259.241.167.655.134-.026.124-.028.09-.067.06-.12.06.24.288.23.152.576.165-.081-.136-.08-.105-.106-.06-.107-.047.067-.212.133-.12.174-.014.187.076.188-.76-.188-.346.12-.181.254.045.19.332.135.636.12.318.16.121.026.152-.591.15.108.196.096.015.107-.044.134.014.24.136.134.18.201-.18.012-.302-.093-.272-.134-.09-.04-.151-.04-.274.08-.197.362.107.16.181.297.47.508.226h.174l.027-.226.013-.227.08-.091h.107l.227.332.269.031.991-.212.093-.12.12-.319.149-.181.51-.334.214-.076-.026-.12-.215-.257-.014-.469.162-.334.307.136-.08.169.174.09.08-.045.027-.167-.041-.288.041-.183.12-.167.04-.194-.16-.257.334-.228.08-.09.054-.166-.013-.107-.068-.091-.026-.105-.067-.121v-.124l.254-.134.07-.062.628-1.163v-.197l-.08-.318-.054-.348.067-.333.201.424z"/>
        </g>
    </g>
</svg>
