<svg xmlns="http://www.w3.org/2000/svg" xmlns:xlink="http://www.w3.org/1999/xlink" width="128" height="128" viewBox="0 0 128 128">
    <defs>
        <path id="a" d="M0 0h128v128H0z"/>
    </defs>
    <g fill="none" fill-rule="evenodd">
        <mask id="b" fill="#fff">
            <use xlink:href="#a"/>
        </mask>
        <use fill="#AFC7D1" fill-opacity="0" fill-rule="nonzero" xlink:href="#a"/>
        <g fill="#AFC7D1" mask="url(#b)">
            <path d="M127.621 102.471l-3.97.138-3.973.123-3.972.117-3.97.097-3.973.1-3.972.098-3.97.08-3.989.06-3.954.06-3.99.059-3.972.038-3.97.02-3.973.02-3.972.02h-7.96l-3.973-.02-3.974-.02-3.972-.038-3.97-.059-3.99-.04-3.973-.079-3.97-.06-3.973-.08-3.972-.098-3.972-.1-3.97-.118-3.973-.118-3.972-.12-3.97-.138-3.973-.156-3.972-.16.124-4.882.14-4.88.12-4.88.28-9.745.123-4.84.141-4.86.122-4.847.28-9.682.124-4.822.14-4.822.121-4.823.14-4.8.123-4.804.14-4.781 1.032.04 3.605.138 3.62.137 3.606.12 3.622.116 3.605.12 3.622.1 3.604.08 3.62.098 3.605.077 3.622.059 3.605.058 3.096.06h.526l3.604.041 3.621.043 3.622.038 3.604.02h3.623l3.604.02 3.624-.02h3.604l3.621-.02 3.604-.038 3.622-.023 3.603-.06 3.624-.04 3.622-.06 3.603-.078 3.602-.077 3.622-.079 3.606-.099 2.466-.06-.036.614.14.412.179.378.07.335.087.495.105.234.104.219.088.22.14.868.523 1.346.14.965.157.414.403.853.159 1.204-.317.97-.42.927-.122 1.068.42 1.443.104.79.106.413v.28l-.07.274-.193.454-.07.318.333 1.64.125.355.088.396-.213 1.758.034 1.048.143.948.297.89.769 1.859.21.93.278.848.598.688-.228.617.072.571.452 1.226v.16l-.085.176.034.119.051.04.072.02.034.039.034.06.054.097.418.493.122.317.227.89.245.514.23.376.192.432.123.911.21.691.279.218.07.118.017.177-.034.14-.07.119-.017.099.034.612-.016.495.033.452.176.415.018.375-.245 1.307v.513l.103.14.142.157.155.216.072.259-.036 3.24.07.574.279 1.224.07.533-.017.198-.053.218-.052.257.018.299.26 1.044.037.493-.088 1.68.052.336.088.239.23.375.07.338V77h-.07l.104.058.193.059.175.119.192.059.105.098.07.158-.018.12-.052.116-.087.415-.227.355-.052.259.052.87-.018.277-.052.176-.14.414-.035.258.07.419.262.866.07.572-.052.576-.175.888.052.552.175.357.558.772.123.493.122.95.034.535-.104.531.104.178.28.315.108.198.036.198v.218l.034.256.123.28 1.03 1.638.594.672.265.435.123.533v1.66l.052.513.07.277.07.216.418.675v.178l-.034.198v.295l.07.137.14.951v.314l-.088.733-.192.571.018.617z"/>
        </g>
    </g>
</svg>
