<svg xmlns="http://www.w3.org/2000/svg" xmlns:xlink="http://www.w3.org/1999/xlink" width="128" height="128" viewBox="0 0 128 128">
    <defs>
        <path id="a" d="M0 0h128v128H0z"/>
    </defs>
    <g fill="none" fill-rule="evenodd">
        <mask id="b" fill="#fff">
            <use xlink:href="#a"/>
        </mask>
        <use fill="#AFC7D1" fill-opacity="0" fill-rule="nonzero" xlink:href="#a"/>
        <g fill="#AFC7D1" mask="url(#b)">
            <path d="M111.965 46.066l.558-.328.58-.152.426.178.896-1.012.336-.176-.537-3.462-.563-3.46-.535-3.484-.557-3.44-1.073-6.92-.562-3.46-.537-3.46-1.093-6.899-1.077-6.92-.423-2.6-5.523 3.307-.627.705-.852.328-.38.204-.178.204-.201.455-.112.15-.782.33-.517.53-1.518.604-6.69 5.231-6.304 8.234-.784.455-.693.684-.537.15-.807-.276h-.202l-.224.175-.38.532-.29.15-.578.075-2.842-.199-.964.199-2.883 1.49-1.612 1.392-.937.48-1.546.351-.336.33-.29.403-.892.883-.425.28-1.077.128-1.026-.356-1.79-1.136-.224-.1-.446-.153-.156-.075-.27-.279-.178-.25-.2-.179-.25-.049.384.656 1.095.757.558.506-1.228-.659-.649-.227-.583-.049-.27.075-.333.227-.224.075-.314.026-.178-.077-.512-.25-.921.353-1.004.984-1.008.658-.871-.607-.179.28-.224.177-.224-.051-.132-.377-.224-.029-1.367.178.336-.276.807-.204.359-.279.333.202.135-.15.09-.328.132-.281.201-.15.224-.1.58-.127 1.01-.455.513-.126.558.201.446-.53.74-.327 1.521-.354-.224-.53-.178-.28-.247-.127-.871.025-.245.078-.338.305-.201-.104-.158-.201-.133-.103-.336-.504-.334-.328-.402-.1.044.175v.431l-.021.478-.09.305-.246.353-.334.23-.743.328-.446.05-.825-.179-.402-.026-.698-.201-1.383-1.39-.674-.477-.604.075-.78-.075-1.522-.405-.65-.354-1.227-1.064-.585-.276-.245.025-.514.277-.357.126-.38.029-1.835-.33-.155-.228-.044-.302-1.858.403-1.88.402-1.877.383-1.879.405-1.88.377-1.878.405-1.877.377-1.88.38-1.879.403-1.881.38-1.875.379-1.879.38-1.88.38-1.88.376-1.875.38-1.88.377.314 2.703.29 2.704.624 5.38.318 2.704 1.25 10.812.311 2.73.314 2.703.29 2.703.318 2.704.624 5.404.313 2.727.624 5.407.313 2.727.311 2.703.318 2.732.313 2.701.29 2.704.314 2.724.31 2.703.314 2.73.313 2.703.311 2.727.318 2.73.313 2.703.624 5.456 1.207-1.11.316-.533.18-.227.288-.1.224.077.357.454.135.075.38.179 1.366 1.159 1.004-.05 1.88-1.34.982-.376.535.227.407.58.336.556.288.227.471.026.602.15 1.076.429.403.353.313.532.222.584.112.578.178.455.336.328.357.278.272.28.313.503.222.583.157.656.133.806.29.532.558.356 2.773.682.542-.026 2.03-.81h.563l1.006.356 1.049.152.427.429.38.529.448.478 1.813 1.544 1.026.555 1.054.075.446-.25.38-.455.2-.61.024-.63.244-.253 1.59-.883.514-.051.514.152.49.25.447.38.229.075.848-.15.334.026.713.225.336.204.183.204.716.934.333.302.202.052.802-.354.247-.328.338-.304.537-.153 1.093.055.492-.13.384-.356.135-.377.155-.73.09-.28.178-.2.58-.378.29-.408.268-.532.313-.454.45-.25.581-.202 1.317-1.061.608-.228.314.176.132.48.09.656.157.63.871 2.125.873 1.162 1.118.455 1.139.23.985.477 1.97 1.617.312.428.537 1.012.29.354.02.023.895.28 1.03-.303 1.882-1.164 1.72-.478.4-.256.251-.656.09-.604.088-3.031.179-.785.267-.351 1.162-.026.491-.204.295-.607-.023-.351-.14-.429-.155-.405-.29-.558-.023-.351.09-.509-.2-.805-.27-.53-.267-.405-.245-.555-.045-.785.336-.478.4-.405.158-.834.221-.633.069-.328-.046-1.387.224-1.115.496-1.387.602-1.317.647-.754.56-.103.493.253.403.302.782.202.38.356.29.48.178.506.112.153.09.175.07.228-.048.175-.09.127-.111.075-.046.1v.455l-.09.227-.02.152.222.354.473.152.469-.38.38-.632.2-.53.067-.83.068-.406.222-.227.313.075.47.405.294.078.425-.256-.068-.377-.29-.483-.245-.53-.046-1.21-.137-.581-.334-.204-.158-.05-.2-.128-.202-.202-.112-.201-.178-.403v-.127l.134-.025 1.096-.757.137-.356-.046-.76-.272-1.208-.02-.429.11-.557.898-1.668.2-1.188.447-.25.557-.127.492-.305.183.202.178-.202.112-.077.158.025.222.127.2-.454-.043-1.312.11-.63 1.48-2.198.333-.281.983-.176.268.228.29.531.402.556.517.302.537-.202.693-.983.446-.305.473-.152.469-.254.445-.327.314-.328.535-.935.358-.452.853-.558.268-.583.38-1.211.603-1.062 2.236-2.778 1.433-1.338-.023-.327.135-.964v-.175l-.09-.357v-.15l.067-.152.336-.428.02-.656-.155-.429-.29-.33-.45-.377-.179-.382.133-.326.453-.454.066-.354v-.682l.023-.353.089-.406.11-.33.336-.68.023-.278-.158-.328-.179-.377-.112-.33.023-.53h.247l.334.126.29-.1.09-.357-.067-.3-.135-.255-.066-.227.066-.604.158-.431.112-.507-.046-.754-.244-1.366-.023-.658.132-.857.314-1.263.112-.633-.023-1.213.089-.806.29-1.392.179-.302.519-.681.112-.228.066-1.087.066-.201-.112-.431-.267-.731-.02-.152-.024-.354-.045-.15-.133-.1-.162-.052h-.222l-.09-.757.268-1.392v-.782l-.158-.454-.29-.558-.69-1.01-.917-.986-.268-.53.135-.707z"/>
        </g>
    </g>
</svg>
