<svg xmlns="http://www.w3.org/2000/svg" xmlns:xlink="http://www.w3.org/1999/xlink" width="128" height="128" viewBox="0 0 128 128">
    <defs>
        <path id="a" d="M0 0h128v128H0z"/>
    </defs>
    <g fill="none" fill-rule="evenodd">
        <mask id="b" fill="#fff">
            <use xlink:href="#a"/>
        </mask>
        <use fill="#AFC7D1" fill-opacity="0" fill-rule="nonzero" xlink:href="#a"/>
        <g fill="#AFC7D1" mask="url(#b)">
            <path d="M126.565 67.796l-1.283-.75-.828-.705-.902-.905-.1-.16-.261-.225-1.268-.772-.521-1.067-.362-.432-.725.543-.522-.225-.5-.499-.323-.501-.602-2.248-.526-.68-1.103-.111-.581.292-.28-.067-.326-.773-.14-.271-.1-.318.04-.315-.26-.91-.041-.274.02-.25-.14-.271-.141-.34v-.43l.1-.908h-.059l-.121-.183-.08-.25.08-.137.121-.135.1-.271.08-.546.422.114.38-.158.285-.387.02-.566-.02-.752.181-.339.24-.294.101-.545-.18-.546-.401-.431-.407-.318-.2-.204-.08-.18-.08-.068h-.141l-.12.023-.08-.023-.02-.114v-.137l-.04-.113-.321-.293-.16-.206-.08-.204.118-.522.362-.569.403-.475.26-.228.426-.248.32-.431.581-1.364.08-.068-.02-.067-.08-.362.06-.16.162-.227.178-.184.121-.109.222-.297.746-1.837.201-1.41.04-.884-.04-.202.08-.432.86-1.41.021-.09.041-.316.04-.137.08-.114.221-.067.22-.341.18-.137.447-.158.34-.385-.02-.046-.22-.569-.445-.542-.24-.228-.262-.434-.141-.201-.179-.07-.201.14-.181.155-.222.046-.3-.202-.462-.162-.965.34h-.501l-.341-.201-.261-.274-.327-.204-.943-.023-.42-.25-.342-.386-1.507-2.134-.32-.204-.122-.295-.18-1.543-.12-.614-.507-1.019.02-.297.226-.315v-.3l-.225-.61-.3-.204-.362-.046-.48-.158.34-.747.021-.297-.281-.046-.202-.065-.4-.48-.586-.068-.542-.297-.26-.044-1.065.499-.404-.202-.24-.615-.181-.723-.24-.501-.483-.228-.68-.158-.567-.271-.08-.41-.24.067-.442.113-2.732.685-2.711.703-2.736.68-2.734.681-2.732.68-2.71.659-2.733.68-2.735.656-2.732.66-2.732.658-2.732.659-2.736.659-2.731.633-2.732.659-2.732.635-2.734.636-2.754.638-2.732.61-2.732.636-2.734.612-2.752.613-2.734.615-2.733.61-2.75.589-2.732.615-2.757.591-2.732.613-2.752.589-2.732.57-2.752.588-2.756.566-2.732.589-.742.162-.16-1.023-.142-.84-.279-1.723-.146-.86-.14-.866-.28-1.724-.14-.842-.021-.067-2.352 1.682-.762.881-.787.476-.762 1.025-.8.52-.888.907-.462.274-.04-.228.102-.157.199-.432.082-.114.505-.113.18-.158.161-.295-.483-.113-.345.317-.26.453-.46.455-.142.726-.2.206-.16.09-.5.657-3.018 2.724-1.224.543-.282.271-.265.367-.96.568.38 2.336.966 6.217.982 6.2.483 3.108.505 3.108.964 6.218.5 3.09.481 3.13.506 3.108.482 3.111v.09h.019v.045l.743 4.767.762 4.765.384 2.383.382 2.385.362 2.382.38 2.406.32 2.067.341 2.065.647 4.15 2.712-.543 2.692-.545 2.712-.566 2.696-.545 2.712-.569 2.69-.566 2.693-.566 2.711-.57 2.391-.5 2.372-.521 2.395-.5 2.391-.519 2.391-.524 2.39-.524 2.392-.52 2.39-.522 2.391-.52 2.37-.547 2.391-.545 2.393-.522 2.37-.543 2.391-.545 2.391-.546 2.37-.545 2.391-.566 2.391-.545 2.376-.568 2.391-.569 2.37-.566 2.391-.543 2.37-.589 2.373-.568 2.39-.57 2.371-.588 2.39-.568 4.743-1.183 2.37-.587 2.391-.59 2.37-.591.161-.023.02-.068.302-.95.284-.933.32-1.044.302-.501.382-.453.341-.294.62-.386.446-.204.904-.273 1.006-.09.801.09.684.25.401.25.018.024.387-.93.281-.253.36-.181 1.123-1.021.526.114.482-.228.742-.749 1.128-.819.24-.383-.24-.589-.021-.682.16-.615.32-.294.422-.272.542-.837.442-.344.647-.568.22-.272.601-1.201.261-.316.725-.48.18-.158.582-.886.16-.18.503-.205.62-.43.506-.547.142-.659-.362-.566z"/>
        </g>
    </g>
</svg>
