<svg xmlns="http://www.w3.org/2000/svg" xmlns:xlink="http://www.w3.org/1999/xlink" width="128" height="128" viewBox="0 0 128 128">
    <defs>
        <path id="a" d="M0 0h128v128H0z"/>
    </defs>
    <g fill="none" fill-rule="evenodd">
        <mask id="b" fill="#fff">
            <use xlink:href="#a"/>
        </mask>
        <use fill="#AFC7D1" fill-opacity="0" fill-rule="nonzero" xlink:href="#a"/>
        <g fill="#AFC7D1" mask="url(#b)">
            <path d="M79.011 119.158l-.92-1.156-.178-1.961-.366-1.347-.46-.828-.648-.424-.911.318.638 1.76.094 1.55-.554 1.145-1.37.731-.46 1.03.093 2.088.826 1.76 1.465.52 2.564-1.357 1.107-.923.545-.944-.46-1.145-1.005-.817zm7.54-52.4l-.732-2.895-.366-1.06-.46-.722-.648-.308h-.911l-.282 5.091.282 2.174 1.277.933-.179.721v.52l-.187.52-.46.52.647 1.548.179 3.118.46.838.46-.319 1.099-2.28.272-.838.094-1.962-.094-2.598-.45-3.001zm12.028 1.559l-.188-1.24-.084-1.358-.282-1.655-2.197-9.969v-4.868l-.638-2.704-.827 1.347-1.925 2.28-.648 1.358-.178 1.654.272 3.945-.187 1.655-.357.625-1.127 1.241-.178.636.544 1.856.094 1.05-.094.71-.638 1.676.094 1.443.732 1.453 1.484 1.347-.733 1.24-2.582 2.28-.376.944.742 1.76.827.202.91-.827.845-1.654 1.831-.212 1.108-2.493 1.465-2.481h3.024l-.733-1.241zm-7.812-21.274l1.577-2.492.367-.202-.094-.52-.366-1.77-.179-1.23.085-.308-4.047-4.582-2.019-.933-1.005-.106-1.202-.308-1.737-.827-1.39-1.24-.826-.839-.281-.837-.272-.616-.554-4.677-.451-1.24-.188-.721V22.46l-.094-.838-.178-1.029-.554-1.357-.46-.414h-.733l-1.737.615h-.732l-.46-.615-.282-.827-2.291-8.198-1.211-4.157-.45-1.76-4.77 1.346-8.18 2.599-8.093 2.598-8.263 2.694-8.075 2.587 1.747 7.583 3.662 15.346 1.84 7.689 1.756 7.667 1.83 7.583 3.672 15.346.92 4.05 1.005 5.6 1.38 8.304-1.108.732-.272 1.23-.178 1.994.732 6.936.094 2.8 7.99-3.733 13.68-10.786 4.236-1.453 1.098.106 2.385.51h.92l.733-.934.187-1.336-.093-1.252.178-.731 2.404-11.412-.273-2.386-1.755-6.946-.92-1.867-1.84-2.386.093-1.463 1.014-1.644.45-2.81-.45-2.694-.92-2.588-1.38-1.782-2.376-.52.272-1.028.827-1.251.92-.828 1.098-.201.911.307.826.722.92.933.094-1.347.545-3.001v-1.146l-.638-1.559-1.014-.625-.911-.403-.827-.732-.826-2.174-.92-3.118-.545-3.002-.093-1.877 1.558 1.56 1.193 1.452.826 1.76.732 2.28 1.193 1.655 2.122 1.156 2.019.626.92.106.094-1.156-.46-2.906.187-.721h.911l.733.52.46.933-.545 3.224-.094 2.492v2.588l.272 1.866 1.005 1.241 1.474-.413 1.465-1.347z"/>
        </g>
    </g>
</svg>
