<svg xmlns="http://www.w3.org/2000/svg" xmlns:xlink="http://www.w3.org/1999/xlink" width="128" height="128" viewBox="0 0 128 128">
    <defs>
        <path id="a" d="M0 0h128v128H0z"/>
    </defs>
    <g fill="none" fill-rule="evenodd">
        <mask id="b" fill="#fff">
            <use xlink:href="#a"/>
        </mask>
        <use fill="#AFC7D1" fill-opacity="0" fill-rule="nonzero" xlink:href="#a"/>
        <g fill="#AFC7D1" mask="url(#b)">
            <path d="M112.399 74.045l-.346.393-.185.549-.023.655.116.68.185-.054.277-1.463-.069-.551.092-.051.024-.054-.024-.05-.047-.054zm14.808-31.589l-.185-.187-.23-.104h-.255l-.024-.233.625-.366-1.994-1.57-1.99-1.544-2.015-1.544-3.989-3.09-1.966-1.543-1.994-1.573-1.992-1.568-1.994-1.546-3.96-3.114-3.965-3.141-1.97-1.544-1.967-1.57-1.97-1.57-.971-.76-.538-.078h-.786l-.948.156-.277.053-.815.158-1.25.235-1.6.29-1.925.342-2.127.39-2.271.394-2.364.417-2.364.417-2.271.418-2.155.369-1.902.34-1.62.291-1.253.209-.787.128-.277.054-1.023.182-.209-.025-.16-.157-.093-.209-.047-.235-.462-3.615-.048-.208-.137-.185-1.343-1.436-1.67-1.782-1.16-1.201-.093-.08-.092-.027h-.116l-.138.13-1.828 2.095-.137.078-.145.027-.185-.131-.116-.131-.116-.158-.068-.158-.048-.131v-.29l.024-.154.163-.707.045-.181-.023-.21-.022-.184-.07-.155-.07-.134-.092-.104-.116-.104-.14-.105-.206-.053h-.324l-1.578.209-1.319.184-1.601.211-1.878.236-2.058.286-2.203.29-2.317.285-2.316.313-2.319.313-2.271.265-2.11.29-1.943.232-1.715.208-1.435.188-1.092.13-.694.078-.232.051-1.83.212-1.88.548-.115-.027-.093-.053-.068-.078-.164-.182-.068-.104-.116-.08-.161.026-.185.105-.325.34-.137.208-.092.209-.072.55-.116.159-.184.13-.907.159-.162.104-.16.233-.093.16-.116.105-.185.077-.926.185-.16.077-1.233.707-.786.626-.208.157-.209.08-.282.027-.23.051-.14.185-.044.209-.047.393-.162.262-.232.26-.556.47-.254.262-.208.182-.116.054-.206-.054-.116-.104-.14-.26-.791.34-7.018 4.083-.467.077.024.054.024.42-.095.444-.161.417-.254.367-.649.34-.3.264-.908 1.02-.23.42-.163.548-.23 1.15-.184.551-.28.394-.345.34-.301.417-.14.521-.069.212-.023.262.023.289v.286l-.068.316-.349.68-.045 1.516.972 1.126 2.548 1.308.902.343.602-.318.19.026.092.474.256.39 1.016.447.67.706.583.313.533.733.462.471.902.37 1.184-.263 1.758-.289 1.184.578.393.862.256.915.51 1.075.276.262 1.81 2.277.322.76.883 2.905.209.444.208.13.51.573.625.158.37.29.345.336.26.319.418.914.277.445.646.262.277.34.394.917.393.787.329.861.37.34.44.08.51-.08.485.393.53.653.723.682.878.444.88.289 1.091.551 1.227.81 1.438 1.073.833.81.531 1.491.514.631.324.73.533.945.6.548.672.343.583.182 1.272.182.554.208.606.394 1.32 1.361.601.471 1.16.602.463.548-.093.787.161.155.301.471-.393.158-.021.265.414.808-.322.289.254.473 1.3 1.281.253.182.071-.182.114-.184.28-.027.322.078.187.08.045.235-.325.29.51.312.232.367-.024.369-.325.337.51.706.462.37.492.104.578-.078.209.26.369 1.361.208.442 1.045.709 2.411.628 1.156.498.855.655.417.21h.583l.37.178.416.527.348.656.161.575-.024 1.225.093.682.348.238 1.715 2.355.393.917.163.522.093.5.232.522.322.417.26.527.022.468-.116.29v.417l-.045.395.092.156.14.053.185.209.16.235.093.233.024.682-.069.549.045.527.348.521.37.313.533.29.578.181.79.027.254.077.254.16.232.183.464.444.137.075.116-.024.607.235.16.107.14.286.117.37.184.313.37.077.393.182.208.578.138 1.073 1.231 2.696.417.078.37.34.3.577.162.704.023.447-.14.497-.044.34.023.39.185.889-.024.238-.16.655v.367l.115.233.623 1.024.024.105-.047.155.023.182.116.238.142.128.301.131.164.105.902.914.254.107 1.485-.444.601.054 1.135.34.206.235.26.42.439.286.509.105.533-.051h.021l-.23-.471-.023-.42.116-.42.947-1.83.168-.709-.047-.861.092-.265.486-.835.14-.393-.024-.524-.045-.444v-.418l.16-.369.254 1.308-.554 2.333-.047 1.332 1.944-1.963.652-1.517.556-.969-.047-.366-.462-.605-.277-.283-.353-.236-.417-.026-.438.34-1.042-1.467-.254-.235-.421-.131-.069-.498.166-.888-.374-.813-.694-1.177-.533-1.177.07-.838-.023-.235-.253-.34-.533-.917-.375-.26-.023-.211.49-.105.277.263.185.414.3.396.441.182.346-.027.092.158-.277.682.14.73.51 1.231.951 1.809 2.016 1.412.393.158.256-.131.024-.655-.116-.34-.325-.522-.116-.265-.35-2.354.05-.473.163-.471-.164-.078-.05-.104-.16.08-.072.05-.045-.05-.116-.262.7-.078.253.573-.093 2.592.161.155.858-.65v2.223l.116.918.298.885.303.08.929-.756.185-.054h.416l.278-.131 1.901-1.937.209-.578-.533-.232.071-.054.09-.024.024-.054-.024-.181.163-.027.346.104.187-.629.07-.864-.025-.706-.184.05-.069.314-.163.291-.325.495-.253.42-.583.578-.647.468-.464.185-.069-.366.349-.656.53-.653 1.047-.762.021-.677-.393-.602-.699-.16-2.432.264.583-.42.694-.34.762-.208.718-.08-.045-.26-.372-.08-.694-.316-.37-.024-.277.105-.464.235-.303.107-2.364-.053-.44.366-.024-.235-.045-.209.161-.396.209-.209.814-.157 1.898-.051.627-.209-.208-.289-.185-.313-.14-.369-.045-.393.185-.051.253.42.233.209 1.11.786.346.027.325-.054.537.027.439.209.279.262.277.209h.462l.346-.29.14-.548-.024-.655-.161-.551.393.16.166.34.092.393.209.313.393.233.185-.128.163-.236.3-.182 1.623-1.913.256-.208.206-.238.14-.337.047-.313-.047-.078-.161-.03-1.393-.992-.393-.366.37-.158.558.262.974.837.715.474.348-.187.301-.471.559-.34.554-.209 1.111-.706 1.324-.548.209-.316-.256-.316-.647-.34-.047-.21.208-.234.277-.026.673.026.647-.155.232-.184 1.321-1.544.301-.76-.092-1.072-.161.05v.212l-.069.026-.417-.184-.208-.289-.26-.209-.948-.03-.417-.256-.346-.417-.185-.474.415.286.395.161.254-.083.024-.468-.14-.549-.393-.813-.14-.47.14-.132 1.018.498-.071-.104v-.263l.071-.262.161-.128.538.364-.445.995-.14.6.208.21.493.078.346.366.3.37.301.13.555-.261.722-.525 1.248-1.23.325-.707.277-.864.37-.784.653-.446.116-.131.045-.263.071-.259.185-.158.208-.104 1.109-1.073.163-.316.093-.548-.256.131-.23.209-.163.235-.093.316-.393-.498-.208-.366-.022-.42.391-1.702.256-.521.346-.263.722-.789.44-.257.278.364.116.262.462.605.16.34.325-.367.462-.342.561-.286.578-.158.623-.313.116-.471-.068-.578.092-.653.417-.628 1.023-.81.322-.552-.045-.733-.51-.182-.605-.027-.346-.42.53-.05.63.05.51.238.277.546.16-.102.093-.104.116-.158.069-.208-.322-.263-.256-.366-.024-.34.325-.208.232.077.3.549.254.208.116-.599.254-.393.329-.343.277-.366-.37-.051-.189-.158-.277-.575-.14-.393-.024-.39-.113-.29-.926-.077-.67-.263-.607-.446-.324-.629-.045-.733.092-.784.161-.76.86-2.092.417-.655.533-.417.023.208-.232.367-.718 1.415-.416 1.752-.07.838.14.34 1.064-.212.37.131.348.423.23.599.232 1.257.305.444.161-.026-.137-.81v-4.19l.137-.415-.23-.187.346-1.57 1.921-4.605 1.762-4.264 1.414-2.539 2.227-3.14 2.383-2.461 1-.71 1.039-.312-.14-.287z"/>
        </g>
    </g>
</svg>
