<svg xmlns="http://www.w3.org/2000/svg" xmlns:xlink="http://www.w3.org/1999/xlink" width="128" height="128" viewBox="0 0 128 128">
    <defs>
        <path id="a" d="M0 0h128v128H0z"/>
    </defs>
    <g fill="none" fill-rule="evenodd">
        <mask id="b" fill="#fff">
            <use xlink:href="#a"/>
        </mask>
        <use fill="#AFC7D1" fill-opacity="0" fill-rule="nonzero" xlink:href="#a"/>
        <g fill="#AFC7D1" mask="url(#b)">
            <path d="M124.314 21.93l-.082.268-.067.093-.051.131-.033.114-.1 1.508-.1.416-.317.66-.452 1.226-.069.114-.116.187-.15.189-.434.397-1.169.756-.167.168-.35.472-.617.492-.134.131-.117.15-.2.527-.049.528.45.606.834.962.333.545.637 1.472.384.719.35.3 1.302.113.702.21.483.356.186.209.4.337.167.172.466.904.118.247.084.075v.02l.032.94.3 10.81.171 5.414.6 21.712.167 5.434-2.372.114-.066.075.05.15.05.132.05.17.017.169-.034.285v.226l.017.189.084.245.083.133.316.357.133.208.3.341.067.093.052.264.032 1.282-.05.604-.034.094-.066.095-.084.055-.116.039-.25-.039-.1.039-.05.116.016.167.15.265.133.094.084.095.034.094-.051.093-.15.189-.05.113-.015.132.032.133.116.13.118.04.15.019.267-.039.37.058h.133l.166-.02h.1l.101.056.067.093.05.116.066.266.167 1.072.067.245.05.189.034.152v.206l-.15 1.001-.067.187-.067.133-.534.604-.033.133v.13l.082.132.052.096.032.074.017.115-.034.17-.099.34-.067.13v.04l-.017.055.017.095.033.47-.067.303-.05.15-.303.397-.017.056-.016.17-.017.679-.034.189-.032.13-.067.059-.066.094-.035.114-.032.15v.32l-.017.133-.05.095-.068.056-.25.131-.066.039-.05.075-.066.094-.051.114-.05.131-.017.131-.05.133-.033.112-.25.417-.133.36-.066.245-.034.338.034.208.099.245.283.45.15.192.15.15.917.698.154.15.133.17.067.095.017.113-.05.112-.187.17-.016.039-.051.092v.058l.034.077.287.187.099.058.068.075.067.112.116.228.05.133.017.15v.206l.017.15.083.134.1.056.115.302.034.887-2.204-.322-.3-.206-.183-.322-.083-.47-.171-.396-.7-.567-.217-.3-.017-.322.084-.209.1-.17.05-.225-.099-.189-.2-.131-.234-.075-.184-.02-.703.076-.217-.037-.2-.133-.1-.133-.067-.17-.116-.225-.183-.303-.234-.264-.317-.19-1.52-.074-.317-.112-.186-.17-.116-.17-.168-.113-.45-.093-.385-.21-.165-.054h-.888l-.4-.097-.399-.206-.367-.283-.637-.604-.517-.715-.3-.286-.35-.189-.417-.055-3.358.775h-.452l-1.235-.305-.367.116-.654.395-.4.037-.199-.076-.35-.225-.217-.037-.688.207-1.149-.282-.421.131-.2.095-.183.15-.15.206-.05.34-.2.661-.067.114-.1.075-.334.34-.2.113-.452.056-.45-.037-1.218-.433-.202-.153-.083-.283-.168-.208-2.354-1.055-.7-.662-.72-.509-.084-.019-.2-.02-.116-.018-1.787-1.242-.118-.133-.35-.453-.05-.039h-.1l-1.453.02-5.745.075-2.874.019-2.872.036-2.873.02h-2.872l-2.89.017h-8.618l-2.873-.017-2.873-.02-2.872-.017-2.875-.02-2.87-.036-2.874-.038-2.872-.039-2.873-.039-5.745-.111-2.873-.058-2.873-.075-2.872-.056-2.873-.076-2.873-.094-2.872-.075-2.874-.095-2.87-.094-2.875-.095-2.872-.111-2.873-.114-2.873-.112.1-3.114.086-3.093.1-3.093.083-3.114.1-3.093.084-3.095.1-3.095.166-6.168.1-3.093.083-3.093.1-3.075.168-6.169.1-3.075.083-3.076.534.039.017-.32.036-1.51.084-2.66.066-2.677.082-2.661.135-5.32.082-2.66.067-2.66.083-2.66 3.792.153 3.792.149 3.79.13 3.791.116 3.792.112 3.79.114 3.792.094 3.791.095 3.792.075 3.79.058 3.792.075 3.808.039 3.79.056 3.792.036 3.793.02 3.792.019h7.599l3.791-.02 3.792-.019 3.79-.019 3.792-.037 3.808-.056 3.775-.057 3.807-.056 3.79-.077 3.792-.095 3.791-.094 3.79-.093 3.792-.112 3.792-.117z"/>
        </g>
    </g>
</svg>
