<svg xmlns="http://www.w3.org/2000/svg" xmlns:xlink="http://www.w3.org/1999/xlink" width="128" height="128" viewBox="0 0 128 128">
    <defs>
        <path id="a" d="M0 0h128v128H0z"/>
    </defs>
    <g fill="none" fill-rule="evenodd">
        <mask id="b" fill="#fff">
            <use xlink:href="#a"/>
        </mask>
        <use fill="#AFC7D1" fill-opacity="0" fill-rule="nonzero" xlink:href="#a"/>
        <g fill="#AFC7D1" mask="url(#b)">
            <path d="M97.735 42.724l1.566-.252 1.566-.252 1.564-.253 1.566-.268 1.566-.254 1.565-.27 1.566-.267 1.566-.268 1.564-.268 1.566-.268 1.566-.27 1.566-.267 1.552-.286 1.565-.268 1.566-.284 1.566-.268.727-.142.111-.077.28-.381.126-.063.126-.03 1.034-.144 1.27-.189 1.412-.205-.515 1.452-.07.457.041.095.293.459.029.189-.126.821-.252.947-.027.207v.142l.042.079.208.33.252.283.055.095.056.096-.027.079-.07.032-.474.016-.84-.16-.07.017-.07.046-1.047 1.107-.351.457-.056.094-1.033 3.505-.097.207-.126.174-.14.11-.211.285-.126.142-.126.078-.097.032h-.126l-.237-.032-.111-.03-.167-.096-.07-.078-.043-.079-.027-.095-.029-.111-.041-.095-.042-.08-.056-.062-.07-.047-.087-.033h-.097l-.21.033h-.111l-.083-.033-.155-.095-.082-.016-.056.016-.084.03-.153.114-.419.474-.073.063-.321.047-.126.032-.349.283-.501.253-.14.094-.226.19-.237.284-.433.712-.126.268-.126.536-.041.142-.223.458-.099.158-.082.111-.056.063-.059.047-.628.615-.126.095-.097.047-.098.016-.098-.016-.097-.032-.085-.047-.082-.079-.056-.063-.056-.08-.129-.267-.028-.11-.014-.126.014-.158.044-.285.014-.094-.014-.063-.03-.047-.307-.364-.07-.047-.111-.016-.14.063-.655.537-.353.223-.947.818-.014.032-.029.063v.08l.043.3-.014.11-.029.094-.153.254-.041.19-.015.126-.07.173-.084.079-.097.047-.087-.015-.182-.126-.223-.142-.208-.063-.14-.016-.153.03-.224.096-.112.095-.083.094-.056.189-.028.125v.126l.014.112.027.11.043.096.182.315.013.113-.028.126-.14.282-.027.095v.222l-.014.11-.056.204-.296.697-.307.583-.111.11-.085.048-.237-.032-.644.047-.182-.031-.082.03-.07.05-.74.6-.506.267-.112.081-.083.078-.307.489-.14.125-.363.238-.111.079-.069.093-.043.096-.278.411-.24.537-.1.063-.11.031-.112-.016-.139.016-.154.063-.126.095-.194.284-.14.236-.167.206-.77.538-.126.126-.084.111-.126.252-.293.426-.097.11-.084.063-.966.395-.112.016-.111-.016-.083-.047-.084-.063-.083-.063-.113-.016-.142.016-.293.157-.167.048-.14.03-.084-.015h-.097l-.099.032-.097.032-.14.096-.056.016-.055.014-.548.033-.097.016-.293.142-.278.172-.336.315-.209.253-.143.11-.111.08-.474.206-.238.142-.125.11-.07.096-.182.614-.056.111-.097.173-.097.095-.603.349-.126.11-.097.125-.294.475-.027.111-.029.077v.159l.113.267.013.094v.128l-.013.11-.029.11-.208.475-.029.126-.041.205v.126l.056.678-.043.192-.112.205-.253.379-.125.173-.099.095-.056.016-.39.063-.809.236-.227.032h-.097l-.084-.032-.083-.047-.14-.126-.097-.016-.126.016-.223.126-.113.095-.083.094-.237.332-.143.284-.07.207-.027.095v.172l.027.725.043.79.056 1.185.041 1.01.059.995-1.356.142-1.455.143-1.09.11-.111-.03-.532.077-1.93.316-1.915.299-1.929.3-1.927.3-1.918.284-1.929.286-1.927.299-1.915.284-2.433.314-2.418.318-2.419.316-2.416.315-2.42.317-2.431.298-2.419.3-2.42.3-2.417.286-2.433.284-2.418.284-2.419.283-2.43.284-2.42.27-2.431.269-2.419.268-.53.046-.182.016.223.536-.138.016-.562.063-1.984.238-1.998.237-2 .237-2.014.237-1.997.221-2 .22-2 .22-1.997.222-1.999.205-2 .223-2 .203-2.011.207-1.998.205-2.001.205-1.998.204-2.012.19-.14-.236.153-.173.294-.095.35-.205.532-.428.209-.284.14-.347.07-.363v-.426l.124-.38.377-.046.419.079h.324l.279-.57-.056-.85-.223-.87-.394-1.026-.097-.41-.097-.964.027-.505.167-.349.757-.85.209-.33.154-.366.056-.364-.043-.536.043-.362.167-.238.363-.157.379-.095.335-.142.139-.286-.25-.487-.266-.38-.084-.237.084-.205.237-.27.237-.362-.014-.268-.474-.583-.265-.476-.031-.378.199-.3 2.234-1.39.896-1.01-.167-.363-.436-.3-.418-.174.112-.394.21-.298.265-.193.337-.077.474.347.238.048.084-.411-.266-.617-.433-.426-.337-.503.014-.16.069-.742.394-.914.029-.364.097-.207.223-.236.279-.205.237-.079.098-.41-.474-.807-.937-1.278.267-.142 1.409-.205.184-.077.14-.144.041-.237-.167-.126-.393-.11-.307-.268-.266-.41-.07-.38.28-.205.39-.033.366-.095.252-.235.125-.49-.084-.458-.404-.837-.014-.331.07-.41-.143-.3-.069-.063.979-.144-.029.19-.097.428.042.315.405.08.195-.143.227-.298.293-.507.027-.128 2.612-.284 2.629-.284 2.602-.298 2.625-.3 2.601-.3 2.615-.303 2.612-.314 2.615-.317v-.503l-.056-.76-.055-.331-.308-1.057-.363-.964-.055-.204-.015-.11.029-.032.07-.015.823-.016 1.37-.016.84-.016.126.032.083.11.126.284.084.11.083.064.084-.032.613-.08.21-.03.575-.08.88-.125 1.16-.158 1.37-.207 1.51-.205 1.635-.237 1.678-.253 1.691-.236 1.62-.237 1.525-.236 1.37-.205 1.148-.16.893-.142.574-.077.196-.032.656-.11.519-.207.14-.032.654-.063.447-.047 1.3-.126 2-.204 2.6-.268 3.075-.315 3.425-.365 3.678-.395 3.786-.426 3.79-.44 3.661-.429 3.425-.411 3.075-.362 2.6-.33 2-.254 1.286-.156.46-.05.728-.11.516-.252z"/>
        </g>
    </g>
</svg>
