<svg xmlns="http://www.w3.org/2000/svg" xmlns:xlink="http://www.w3.org/1999/xlink" width="128" height="128" viewBox="0 0 128 128">
    <defs>
        <path id="a" d="M0 0h128v128H0z"/>
    </defs>
    <g fill="none" fill-rule="evenodd">
        <mask id="b" fill="#fff">
            <use xlink:href="#a"/>
        </mask>
        <use fill="#AFC7D1" fill-opacity="0" fill-rule="nonzero" xlink:href="#a"/>
        <g fill="#AFC7D1" mask="url(#b)">
            <path d="M90.357 117.56l.126.516.086.25.11.195.048.116.126.67.094.248.238.455.08.268.125.918.102.311.166.304.078.195.246 2.45.07.206.095.063.071-.215-.008-.204-.118-.633-.15-.366-.025-.24-.008-.509-.038-.276-.15-.471-.095-.714-.07-.267-.088-.143.016-.152-1.072-3.68-.364-2.085-.142-3.066.063-.232-.134.18-.04.56-.07.25.079.214v.223l-.063.455.023.24.095.427.11 1.123-.015.419-.087.41.299.472.04.099.017.044.047.089.008.072-.016.035-.096.036-.016.045.008.096.026.09.04.071.07.071-.07.09.133.277zm2.365-13.751l-.07.321-.056.124-.386.428-.243.366-.49 1.292h-.056l-.07-.134-.111-.08-.23-.098.048.196.064.125-.016.116-.135.134.031.231-.165.32-.205.33-.094.232-.016.144-.165.4-.04.161-.07.5-.278.783-.134 1.318-.063.205.087.053.062-.035.103-.187.15-.41.175-.998.52-1.702.828-1.944 1.145-2.004.103-.124-.08-.108-.143.045zm1.919-3.529l-.128-.053-.11.071-.071.125-.047.124-.063.09-.134.036-.521 1.086v.062l.183.045.007.072-.056.143-.04.08-.276.346-.322.58-.118.367.086.213.048-.232.126-.241.322-.445.372-.678.805-1.078.024-.116.007-.267.024-.116-.031-.098-.087-.116zm4.102-3.323l-.047-.009-.056.027-.086.026-.032.053.016.25v.098l-.11.223-.11.071-.357-.026-.205.035-.118.09-.188.222-.428.24-.07.072-.087.116-.386.258-.086.214-.073.071-.354.258-.11.054-.15.036-.301.116-.19.036-.156.096-.032.215.032.222.078.126v.08l-.11.124-.095.196-.07.232-.032.205h.07l.072-.205.11-.186.244-.286.498-.437.22-.294.868-.553.506-.525.283-.223.308-.106.67-.402.017-.053.07-.135.024-.096.007-.1-.015-.32-.04-.106zm1.208-1.035l-.348.26-.512.543v.088l.189-.026.142-.125.236-.285.22-.08.073-.116.196-.168.071-.054-.008-.037.024-.026.04-.027.078-.008-.008-.08-.393.141zm13.103-11.094l-.015-.062-.032-.01-.016.02-.008.07v-.08l-.008.036v.035l-.007.018h-.048v.08l.166.027.031.142-.055.161-.087.08-.023.009-.197.08-.048.063-.063.187-.377.375-.033.051-.142.019-.102.036-.071.098-.017.16-.102.178-.671.517-.362.4-.165.224-.103.276.063-.01.15-.239 1.293-1.16.411-.195 1.34-1.372-.582-.205-.12-.01zm11.054-21.012l-.134-.126-.269-.428.016-.133.08-.17.008-.115v-.534l-.055-.197-.167-.035-.173.062h-.063l-.024-.01-.024-.017-.031-.035-.023-.036-.024-.063-.055-.32-.016-.063-.047-.08-.032-.062-.031-.08-.016-.099-.032-.063-.023-.061-.032-.045-.104-.116-.244-.205-.047-.054-.031-.07-.025-.125.009-.089.016-.072.031-.107.024-.045.102-.177.008-.036-.024-.035-.126-.09-.15-.16-.094-.134-.04-.08-.023-.098-.039-.188-.024-.098-.04-.07-.04-.036-.046-.017-.112-.028-.047-.026-.031-.027-.032-.053-.024-.054-.023-.098.008-.053.023-.054.094-.071v-.01l.009-.008.023-.036.023-.062-.007-.07-.031-.046-.048-.027-.055-.028-.22-.061-.056-.026-.047-.028-.078-.07-.253-.286-.104-.134-.055-.106-.031-.071-.032-.116-.016-.091v-.08l.032-.123.031-.09.016-.07.008-.099-.008-.338.016-.107.031-.197v-.071l-.015-.053-.048-.09-.031-.026-.039-.09-.04-.142-.087-.464-.031-.106-.244-.366-.079-.15-.04-.116-.047-.108-.086-.16-.136-.17-.181-.196-.086-.072-.3-.15-.047-.027-.039-.036-.032-.044-.207-.375-.038-.053-.119-.098-.063-.026-.125-.1-.048-.061-.023-.037-.009-.026-.039-.891-.063-1.407-.07-1.4-.127-2.816-.072-1.41-.189-4.213-.087-1.434-.236-4.278-.04-.784v-.008l-.086-.036-.141-.064-.262-.204-.158.107-.19.017-.172-.035-.309-.178-.125.062-.111.125-.126.062-.434-.223-.15.019-.087.15-.055.188-.079.116-.19-.106-.18.115-.167-.027-.063-.116.102-.125v-.08l-.22.053-.22-.063-.174-.16-.07-.24-.095-.214-.16-.035-.047-.01-.22.01-.166-.09v.09l-.426-.143-.134-.071.031-.063.024-.053-.19-.01-.227.063-.071-.107-.103-.062-.126-.035-.128-.018h-.063l-.094.062-.063.018-.048-.018-.078-.106-.158-.08-.157-.277-.126-.054h-.112l-.228-.07-.577-.09-.346-.347-.142-.259-.047-.072-.095-.063-.079-.034-.055-.071-.031-.179-.023-.054-.065-.062-.07-.053-.065-.019h-.306l-.134-.035-.142-.107-.3-.312-.159-.107-.275-.062-.055-.07-.04-.08-.047-.073-.102-.07-.592-.188-.142.027-.158.16-.048.188-.009.203-.04.135-.109-.063-.047.098-.063.053-.08.046-.094.062-.102-.062h-.063l-.023.115v.09l-.016.052-.04.036-.055.036-.07.009-.743.009-.094.026-.063-.088-.057-.046-.07-.025h-.088l-.031.025-.055.046-.04.026-.023-.044-.04-.062-.023-.045v-.017l-.275.008-.119-.062.079-.179-.07-.18-.103-.087-.12-.062-.118-.098-.118-.045-.095.107-.11.231h-.063l-.15-.053-.023.026-.207.134-.094.027-.095.072-.086.08-.055.08h-.087l-.134.018-.285.01-.063.078.047.33-.094.09-.063-.027-.048-.053-.047-.08-.07.026-.048.063-.055.08-.244.061-.103-.026-.513-.339-.095-.106-.094-.028-.11.081-.087.116-.033.09h-.063l-.134.088-.158.133-.3.16-.117.019-.458.017-.087.029-.173.123-.095.028-.086.088-.144.42-.079.16-.165.124-.157.027-.378-.036-.23.045-.055.116.007.177-.039.25-.244.205-.268-.276-.27-.436-.212-.277-.165-.035-.592.06-.071-.034-.032-.097-.023-.107-.032-.09-.055-.045-.197-.106-.364-.116-.11-.124-.04-.044-.023-.055-.016-.062v-.063l.008-.063.094-.221-.023-.072-.08-.08-.22-.099-.118-.027h-.094l-.047.037-.031.035-.058.107-.102.375-.024.062-.023.053-.031.044-.04.037-.07.036-.088.036-.165.026h-.095l-.078-.009-.047-.026-.238-.197-.095-.045-.07-.009-.308.054h-.086l-.071-.027-.04-.027-.112-.124-.055-.098-.047-.117-.063-.338-.04-.115-.038-.063-.071-.045-.119-.062-.086-.009h-.071l-.301.071-.056.027-.038.027-.064.098.008.16-.015.286-.127.33-.134.204-.188.071-.317-.088.016.187.063.08.072.053.04.115-.04.09-.167.116-.031.133-.016.348-.071.312-.158.197-.283.026-.214-.142-.174-.268-.125-.312-.048-.294.032-.206.158-.302.031-.197-.024-.15-.07-.134-.103-.106-.11-.09-.055.036-.11.054-.048.044-.032.053-.031.088-.15.314-.048.079-.245-.232-.102-.035-.141.116-.016.036-.047.124-.024.045-.047.06-.095.064-.032.045-.07.062-.097.036-.575.062-.14-.098-.064-.276-.024-.25-.073-.152-.133-.079-.205-.035-.56.052-.135-.079-.086-.224v-.445l-.087-.205-.33-.178-.348.142-.308.285-.741.883-.34.25-.387.08-.378-.125-.204-.117-.087-.115.023-.178.008-.08.016-.117.055-.248v-.116l-.063-.135.055-.133-.024-.125-.062-.097-.088.026-.316-.115-.433-.09-.34-.188-.023-.391-.048-.258.031-.357v-.312l-.141-.133-.22.035-.412.178-.268.045-1.182-.152-.222.08-.142.179-.102.213-.119.206-.055.107-.212.044-.443.01-.126-.08-.3-.385-.118-.089-.055-.062-.15-.286-.096-.072-.29-.06h-.103l-.198.043-.59.286-.103-.063-1.105-.257-.182-.071-.67-.482-.198-.053-.142.044-.134.062-.189.044-.174-.026-.34-.115-.18-.027-.41.027-.199-.045-.15-.143-.03-.187-.032-.65.031-.144.032-.097-.15-.205-.275-.276-.08-.188-.055-.214-.087-.178-.174-.08-.173-.009-.087-.026-.079-.036-.07-.08-.04-.09-.024-.08-.046-.071-.167-.133h-.127l-.086.133-.047.597-.071.179-.134.08-.205-.027-.19-.08-.331-.215-.425-.062-.08.027-.079.054-.096.133-.062.063-.158.053-.536-.053-.166-.063-.11-.133-.174-.295-1.483-1.604-.087-.062-.189-.044-.079-.054-.142-.045-.395.063-.134.018v-.677l-.008-1.365V15.98l-.008-1.364V9.171l-.007-1.354V2.37l-.008-1.353V.419h-2.88L60.605.41l-1.91-.017-2.122-.018-2.28-.027-2.343-.026-2.352-.045-2.27-.044-2.124-.045-1.909-.053-1.61-.044-1.238-.036-.797-.018-.283-.01L39 .02v.214l-.007.374-.52 18.304-.04 1.666-.047 1.658-.048 1.666-.055 1.667-.094 3.333-.048 1.666-.662 23.34-1.997-.064-2.004-.072-2.004-.07-2.004-.08-1.996-.08-2.004-.09-2.003-.09-1.997-.098-2.004-.097-1.996-.107-2.003-.106-1.997-.117-2.004-.116-1.996-.124-2.004-.124-1.997-.135-.236-.017-.15-.01v.206l.166.446.031.257.016.277.047.214.206.383-.072.08.056.142.079.108.102.08.12.027.117.098.505.667.174.063.402-.018.323.179.285.357.22.436.158.417.19.83.094.223.355.535.08.187.03.124.009.072.015.052.056.091.3.223.086.15.206.117.37.152.3.23.166.09.229.045.141.07.388.33.102.125.063.116.055.205.048.107.173.125.102.098v.044l.15.071.158.162.655.962.055.223.08.16.67.542.15.081.055.055.213.302.181.17.15.107.134.133.096.241.102.426.078.18.23.142.283.437.719.695.33.533.112.118.268.09.504.318.056.064.047.08.047.063.095.052h.048l.04-.026.07-.08.032-.017.094.044.055.018.071.044.079.178.086.044.095.018.071.036.04.072.008.133.031-.017.04.035.111.152.063-.08.402.596.173.088.166.055.19.116.173.17.11.187.024.125v.142l.015.124.056.108.095.035.284.062.064.045.047.133.26.384.102.214.016.116.008.258.015.116.151.116.032.062-.009.071-.054.134-.017.08.017.133.086.161.015.124-.023.169-.015.082.015.062.07.143.065.088.118.08.055.08.016.108v.142l.015.116.048.053.173.134.118.295.103.338.103.24.063.063.158.098.087.099.157.436.126.196.016.268-.031.436-.048.276-.142.419-.039.24.008.285.15.669v.107l-.032.178.015.125.032.062.118.17.024.062.031.125.166.25.11.56.033.108.157.222.158.162.118.177.063.517.15.348.056.177.008.17v.125l.031.116.126.169.427.365.126.152.023.08.031.107.04.107.056.045.063.035.733.579.095.16.166-.088.26.009.237.08.142.222.213.197.071.044.064.063.15.436.29.4.19.197.316.196.426.58.347.24.837.356.583.161.647.071.103.045.086.088.04.116-.087.268.063.063.103.043.087.045.425.446.268.178.813.259.253-.01.071.019.08.07.03.082.017.087.055.1.457.552.395.267.11.044.079.072.252.285.135.072.11-.072.087-.115.087-.019.102.214.056-.036.141-.044-.07.25.133.097.561.01.504.169.364.072.236-.126.134-.32.055-.41.087-.027.032.027.063-.205.047-.116.08-.071.378-.215.071-.071.086-.125.269-.587.11-.125.064-.063.205.134.055-.098.426-.348.253-.044.102-.053-.079-.134-.22-.178-.072-.107.008-.152.142-.463.008-.214.024-.125.055-.089.119-.098.047-.019h.118l.087-.052v-.054l-.071-.169.016-.072.086-.16.008-.134-.031-.142-.024-.133.024-.17.054-.107.063-.106.308-.874.088-.072v-.008l.055-.09-.04-.16.087-.044.024-.045-.047-.16.11-.054.055-.071.094-.197.008-.026.15-.32.04-.018.047-.161.277-.535.032-.133.015-.098.024-.089.071-.09h.071l.346.018.159-.044.339-.196.173-.071.031.017.04.125.047.035.063-.017.032-.018.015-.027v-.009l.096-.08V80.8l.078-.143.071-.026 1.003.116h.008l.016-.044.228-.366.032-.115.031-.322.032-.106.07-.08.118-.027.103-.046.096-.213.087-.063.165.063.119.133.117.107.166-.045.04.223.126.072.331.044.426.268.103.107.332.178.876-.09.243.072.15-.152.143.054.126.125.118.071h.095l.079-.018.079-.045.063-.062.079-.035.094.018.181.071h.308l.111-.08.055.009.024.124.078.07 1.5.269.48-.062.143-.062.103-.116v-.009l.04-.223.031-.054.063.027.07.089.024.115-.015.055-.087.204-.032.099.197.061.15-.089.142-.133.182-.07.07.035.064.15.087.063.103.009.102-.01.095-.035.079-.044-.04.142.023.161.063.143.151.275.063.215.103.284.063.117.078.08.119.071.244.01.079.052-.016.188-.079.258-.015.179.102.044.166-.16.23-.152.228-.026.142.15.007.312-.086.357.031.17.094.106.103.018.095.027.08.071.173.259.268.16.616.232.275.116.071.204.032.339.031.17.064.124.07.117.088.097.102.071.67.357.221.232.175.258.079.071.433.241.19.16.119.179.188.41-.07.258.07.16.482.464.031.071.04.071.11.036.11.017.088.036.078.17.07.695.182.472.032.25-.08.258.064.071.04.098.015.134v.152l.055.088.111.09.11.134.049.187.023.045.142.079.047.036.032.098-.063.152.031.08.063.036.134.009.063.043.04.063.046.126.04.06.056.118.23 1.157.117.267.339.508-.016.214.102.08.222.126.095.08.04.116-.016.285.008.134.125.249.19.143.387.178h-.008l-.27.16-.046.09.015.132.064.1.079.07.031.071.048.438.079.419.268.4.142.267.008.196-.063.223.086.233.166.195.158.133.26.054.064.027.031.099.016.168.032.16.078.072.15.027.923.535.174.196.07.267.009.16.024.08.134.17.126.125.07.027-.007.06-.024.082-.008.08.064.197.063.159.094.152.135.188.134.053.205.052.118.09-.11.178.087.17.15.223.165.186.15.072.023.053-.038.125-.08.187.031.135.072.07.086.053.071.108.016.116-.024.257.008.117.049.008.125.125.111.135.007.062.23.053.117.124.088.16.11.153.095.053.166.062.063.045.038.107.025.143.031.114.071.054.165.286.047.054h.34l.056.062.095.205.039.044h.102l.197-.124.119-.037.094.046.12.231.054.054.158.063.19.096.188.197.08.179v.481l-.024.276v.124l.063.055.141.008.072.045.04.097.031.17v.053l.008.446-.031.142-.08.277-.032.241-.046.15-.008.134-.032.107-.158.197-.008.009-.063.125.269.114.063.054.016.027.016.099.031.045.103.052.031.027.134.178.102.197.071.213.016.232-.032.23-.134.518-.023.24.023.055.04.071.047.088.016.107-.024.099-.188.392.172.268.04.071.142.124.087.045h.079l.079.018.064.097.023.135v.24l.04.134.086.098.386.347.103.161.308.418.134.195.166.189.133.196.142.526.127.561.386 1.265.032.196.07.597.064.277.229.106.245.063.118.169.11.33.024.152-.04.143-.086.15-.055.152.023.133.198.18.188.035.175-.026.19.008.047.035.063.098.055.027.062-.019.166-.08.229.009.079.063.087.187.15-.17.355.295.22-.053.087.062.095.028.08-.019.055-.08h.007l.103.071.079-.026.062-.054.088.01.054.044.142.195.333.233.102.142-.04.196.134-.01.118.01.119.045.094.107-.118.16.016.061.087.01.078.026.198.214.11.072.127.027.56-.25.276.16.3.09.276.116.197.267.127-.18.023-.035.268.09.308.197.26.08-.07.24v.124l.11.037h.26l.055.08.228.373.096.117.748.419.364.116.33.009.451-.142.19.043.086.295.095.043.196-.08.301-.177.134-.018.552.08.608-.098.726-.009.188.054.025.176.125.046.845.036.19.044.173.099.19.15.094.161.079.188.102.16.285.125.442.489.172.134.158.064.16.035h.204l.07.088.056.179.102.17.205.035.04-.045v-.072l.015-.052h.079l.064.061.032.082.047.08.095.026.188-.097v-.234l-.07-.275-.032-.215.032-.07.22-.178.166.125.222-.08.055-.063.118-.134.023-.196.127-.036.464.018.632-.07.016-.107-.04-.536-.03-.338-.088-.322-.126-.027-.102.082-.04.178-.007.212-.04.189-.062.134-.088.08-.23.124-.054.063-.008.053-.032.018-.102-.054-.056-.045-.03-.07-.048-.196v-.17l.102-.284.008-.215.142.07.094-.035.064-.107.031-.177-.118-.054-.118-.026h-.26l-.118-.018-.095-.054-.072-.054-.055-.017-.119-.135-.055-.32.008-.356.047-.25-.142-.24-.046-.107-.025-.142.04-.099.056-.08.031-.097-.063-.135-.079-.062-.063.009-.063.036-.087.026-.078-.108-.008-.256.047-.252.087-.115.055-.052-.04-.09-.07-.053-.04.062-.024.045-.047.062-.062.036h-.063l-.026-.08.089-.241-.009-.1-.062-.026-.207-.018-.07-.026-.056-.142-.016-.16-.047-.127-.173-.051h-.127l-.023-.045.023-.116.025-.339.04-.177.006-.109-.324-.114.253-.09.087-.089.048-.161.023.072.071.098.032.08-.071-.392-.228-.784-.11-.785-.247-.758-.07-.525-.056-.197-.079-.177-.117-.125-.158-.053h-.134l-.104-.027-.07-.153-.009-.158.017-.242.038-.23.065-.117.102.053.433.437.11-.24-.133-.151-.378-.18-.11-.143-.089-.167-.055-.215-.04-.508.017-.133.102-.053.53-.063.125-.108-.008-.206-.118-.293.103-.133-.063-.16-.095-.142.008-.073.15-.017.142-.062.118-.108.064-.142-.023-.152-.073-.187-.031-.16.086-.071.041-.09.008-.214-.008-.223-.023-.124.11-.053.063-.135.007-.159-.054-.153-.624.242-.181.142-.174.098h-.238l-.472-.116-.205-.089-.15-.106-.15-.081-.237-.036-.474.054-.204-.063-.134-.223h.228l.22.054.23.027.22-.098.103-.16-.047-.126-.142-.044-.18.098-.025-.044-.015-.036-.016-.08.19-.116-.12-.25-.347-.374h.134l-.103-.25-.33-.355-.04-.286.3.214.245.267.78 1.212.03.107.009.108.033.07.126.027.102-.026.056-.054.007-.08-.039-.081.174-.293.086-.045.063.168.142-.15.078-.054.104-.053-.072-.16.112-.082.213-.248.181-.099-.032.233-.015.23.039.134.071.045.07-.017.016-.045.071.062h.04v.028l-.08.105-.062.045-.103.017-.188-.009.038.046.017.044.023.036.056.035-.11.126-.341.212.183.143.134-.052.196-.258.609-.304.102-.089.023-.268.362-1.247.127-.187.03-.125.027-.231.149-.535.276-.615.031-.098.016-.267.032-.134.046-.098.103-.16.087-.197.031-.186-.079-.152-.844-.383-.15-.16-.252-.33.063-.1-.031-.114.07-.348-.054-.188-.071.109-.103.06h-.117l-.087-.07-.31.089-.211-.036-.174-.16-.158-.286.15-.07.04-.01.079.027.03.053.008.046.017.026.054.026.071.037.071.017.055-.017.024-.109.047-.043.261-.028.529.01.244-.08-.032.08-.007.044-.025.046-.063.07.238-.027.379-.194.212-.036.166.045.135.124.126.178.11.196-.197.009.008.088.244.028.205-.178.71-1.23.331-.713.016.036v.034l.016.018.04-.009.15-.365.063-.098.095-.115.016-.062-.008-.072-.016-.16.047-.473-.031-.134-.103-.088-.063.034-.031.027-.016.009.016.045.04.045-.152.213-.449.232-.094.196-.008.152-.048.16-.055.143-.07.09-.113.052v-.062l.041-.107v-.134l-.104-.168-.133-.126-.174-.08-.205-.026-.086-.108.173-.267.379-.454-.15-.054-.04-.116.032-.133.079-.098.11-.027.136.036.07.097-.055.116.252-.07.362-.188.325-.249.142-.259h.063l.062.169-.046.366.063.124-.024.064-.032.043-.032.036-.031.027.339.116.102-.054.126-.241.089-.249.046-.206-.031-.167-.127-.126.214-.392.126-.187.11-.009.016.178-.087.204-.047.215.134.222-.126.197-.08.197-.102.444.158-.089.3-.097.149-.126.317-.517.15-.195.33-.251.095-.15-.19-.446.033-.214.086-.215.047-.213-.141-.285-.284-.373-.19-.322.15-.16.127.08.197.151.18.09.071-.125-.031-.187-.071-.135-.237-.204-.078.045-.031-.071.031-.125.078-.09.071-.053.087.08.173.295.04.036.112.07.04.045.023.071.008.116.023.097.048.045.173.01.086.071.032.134.031.435.063.188.094.098.159-.062.166.143 1.002-.678.142-.053.315-.24.181-.055.663-.435-.04-.286-.275-.26-.356-.132-.283.097-.094.1-.159.106-.149.01-.07-.197.078-.028.488-.284-.087-.223-.047-.09-.07-.08-.064-.061-.196-.1-.278-.195-.118-.044-.087.115-.07.018-.087-.124v-.08l.04-.295.007-.124-.031-.116-.04-.09-.275-.4-.079-.18-.048-.213-.015-.293.11.061.047.036.04.063.118-.08.126-.019.126.027.11.099.079.106.032.08.015.09.048.16.015.098v.08l.008.072.049.08.047.018.126-.01.056.035.102.028.11-.035.094-.018.04.088.087.285.347-.285.087.224-.055.23-.134.055-.174.027-.142.16.293-.063.323-.16.529-.392-.324-.099-.127-.087.024-.17.032-.107-.024-.09-.04-.08-.007-.098.031-.045.063-.052.055-.072.023-.116-.03-.09-.071.037-.08.08-.07.027-.063-.09-.071-.178-.055-.213-.016-.18h.055l.04.1.173.302.04-.045.086-.062.055-.062.134.16.063.178-.023.17-.088.142.048.116.285.294.055.116.008.08.04.027.157-.062.18-.143.245-.356.19-.117-.054.17.205-.16.125-.072.142-.026h.189l.071.035-.04.125-.204.401-.04.143.048.08.188.027.136-.028.118-.054.134-.034.158.009v.088h-.055l-.142.143-.435.071-.157.107-.032.179h.205l.435-.16.543-.312.19-.054.119-.062.354-.25.181-.035.183.097.063.188-.031.187-.096.089-.197.062-1.317.829-.309.268-.213.32.276-.15.593-.446.529-.224.55-.534.955-.294.6-.375 1.073-.873-.33.053-.355.169-1.255.883-.032.036-.055.025-.07.01-.04-.017-.04-.073.008-.043.024-.054.008-.196.031-.107.008-.125-.063-.142 1.238-.58.348-.062.426.01.418-.045.41-.133.395-.232 1.041-.838.607-.544.167-.08.205-.036.102-.08.482-.516.48-.67.26-.178.648-.632.063-.151.015-.17-.015-.196-.095-.498-.015-.26.07-.276-.125-.302-.08-.099.166.09.15.017.118.063.086.222.254-.187.205-.196.584-.829v-.026l-.016-.107.009-.027.023-.009.078.01.032-.01.181-.169.08-.107.03-.152h.072l.149.125.135-.098.103-.241.031-.258.063-.241.166-.062.197.045.15.107.023-.055.024-.017.031-.01.032-.017-.418-.187-.126-.017-.102-.08-.278-.482v.062l-.015.01h-.016v.052l.04.036.007.09h-.236l-.048-.161-.015-.196-.165-.116v-.089l.134-.054.125-.08.103-.124.063-.17-.693-.204-.317-.205.063-.322.094-.124.129-.215.046-.204-.316-.17-.055-.196.04-.222.164-.152-.046-.107-.056-.044h-.18l-.103-.018-.08-.07-.15-.18.048-.062.552-.01.3.189.284.266.292.135.285-.241.133-.41.08-.384.062-.115.158-.116.332-.178.205-.143.079-.027.07.045.048.223.079.054.181.035.04.124.015.189.07.213-.062.268-.094.579-.11.436-.143.401-.11.188-.095.052-.134.036-.102.045-.009.098.072.097.095.046h.11l.48-.098 1.334-.527h.166l.15.063.149.152.191.062.134-.125.078-.089.016.17-.055.213-.11.107-.167.036-.457-.01-.087.037-.102.08-.261.347-.071.053-.087.064-.102.043-.221.054-.228.151-.719.874-.07.16.039.116.22.036.19-.107.45-.677.323-.294 2.879-1.676 1.082-.534.757-.544.269-.161.377-.151.205-.045 1.122-.035.276.063.102-.01.134-.222-.165-.357-.536-.632-.238-.428.055-.437.663-1.22.08-.224.023-.222.11-.063.238-.027.18.01.167-.383.505-.732-.072-.142.008-.107.103-.25.048-.276-.016-.187-.04-.169-.031-.223-.024-.08-.104-.17-.023-.115.008-.143.079-.24.015-.116-.055-.268-.142-.169-.15-.134-.07-.178-.063-.526.024-.231.11-.277.212-.329.055-.17.016-.222-.016-.089-.126-.357v-.009l-.015-.232-.031-.062-.071-.045-.033-.053-.007-.24.071-.214.126-.16.18-.072.01-.126.103-.605.07-.196.292-.294.079-.179.047-.578.293-.713.047-.205.008-.107-.008-.143-.015-.134-.057-.222-.016-.135.024-.124.08-.106.126-.151.056-.126.008-.054-.08-.151-.07-.088-.16-.242-.094-.267.126-.134.088-.027.244-.097.063-.063.032-.124-.04-.08z"/>
        </g>
    </g>
</svg>
