<svg xmlns="http://www.w3.org/2000/svg" xmlns:xlink="http://www.w3.org/1999/xlink" width="128" height="128" viewBox="0 0 128 128">
    <defs>
        <path id="a" d="M0 0h128v128H0z"/>
    </defs>
    <g fill="none" fill-rule="evenodd">
        <mask id="b" fill="#fff">
            <use xlink:href="#a"/>
        </mask>
        <use fill="#AFC7D1" fill-opacity="0" fill-rule="nonzero" xlink:href="#a"/>
        <g fill="#AFC7D1" mask="url(#b)">
            <path d="M123.392 79.208l-.222.25.147.218v.035l.253-.067.282-.067-.208-.572-.252.203zm-1.278-14.98l-.12.017.03.152.523-.186.178-.384-.015-.574-.15-.738-.106.035-.059.418.015.488-.044.47-.252.302zm1.471-4.737l.09-.503v-.518l-.119.032-.09.268-.237 1.26v.118l.03.169.104-.035.222-.791zm1.903-14.27l-.43.166-.668.286-.76.3-.504.219-.657.268-.37.152-.075.136-.059.354-.06.351.163.05-.149.285-.237.168-.474.234-.327.353-.314.438.029.134.375-.167h.474l.327.184.118.302-.074.201.044.185.105.184.178.168-.163.084-.372.018-.104.05-.059.252.06.252.118.218.178.151-.89.369-.197-.05-.206-.116-.178.015-.119.32.385.284.06.287-.148.336-.268.37.03.167.326-.084.06.117-.416.824.015.185.163.32-.356.1-.282.133-.193.252-.104.385.312.27-.163.168-.311.185-.242.268.226.118.016.186-.12.233-.181.252.7.151-.311.318-.255.407-.134.535.074.637.3-.25.164.084.029.25-.386.354-.122.352-.044.42.03.386.122-.034v-.15l.06-.034h.087l.03-.034.03.218-.06.302-.118.302-.225.22.134.268-.016.437-.148.872.133-.1.075-.034.225.033-.207.338-.152.555.074.52.405.317.029.134-.03.321.534.589.208.419.178.468.237.102.227-.169.133-.369v-.2l-.074-.807.029-.235.105-.27.133-.134.073.067.12.958.163.237.34-.304-.132-.218-.164-.472-.103-.167.074-.436v-.538l-.252-2.014v-.27l.044-.269.222-.602.074-.302v-.169l-.059-.17-.103-.351.015-.287.207-.536.045-.185.163-.2 1.16-.538-.163-.203-.222-.051-.24.017-.224-.033.075-.353.196-.402.222-.2.149.25.149.369.193.218.221.168.178.237.252-.42.224-.538.18-.588.075-.538-.286-.118-.044-.587.089-.721.167-.723.029-.839.712-3.174.446-.89.045-.37-.238-.403.252-.184.015-.134-.103-.135-.09-.25-.118-.538-.045-.355.03-.268.177-.268.224-.184.162-.235-.014-.286-.297.135zm2.276-.96l-.103.051-.03.134-.27.604-.193.572-.059.285-.074.774-.06.2-.045.253-.104.168-.162.117-.193.067-.03.101.133.151.281.285-.118.117-.148.101-.164.05-.178.034.046.169.49-.169.355-.554.223-.736.552-2.841-.149.067zm-5.77 29.808l-.667-1.748-.402-.502-.389.05-.4.269-.504.134-.685-.134-.818.116-1.62-.284-.535.133-.255.505.105.335.196.084.103.103-.149.436v.25l.193.253.371.384-.266.02-.298-.121-.21-.216-.015-.27-.386-.15-.445-.033-.445.084-.404.183-.297.302-.252.354-.296.302-.402.153-.044-.17.386-.47.163-.302.06-.236-.148-.267-.193-.218-.075-.218.222-.27-.015-.15-1.085-.372-.252-.168-.134-.05-.134-.032-.223.032-.103-.067v-.133l.03-.05.132-.168-.029-.134-.997-.067-.282-.102-.163-.286-.267-1.342-.46-1.245-.151-.2-.193.15-.327.706-.298.135-.325-.168-.657-.556-.237-.084-1.457.338-.327-.069-.682-.351-.374-.018-.164-.168-.15-.419-.22-.386-.372-.084-.118.118-.386.553-.163.151-.167-.116-.163-.184-.105-.101-1.352.317-1.099-.2-.162.1-.075-.05-.164-.016-.18-.067-.104-.285.343-.556.312.302.254.067.652-.184.104.033.315.135h.178l.147-.051.298-.218.193-.134.147-.052.134.052.193.134.075.134.165.254.164.2.03-.116.074-.17.401-.572.149-.134.222.018.162.133.613.757.222.352.237.186.357-.134.252-.337.134-.252.029-.235-.119-.589.015-.233.134-.203.134.386.074.505.107.42.237.134.237.018.638.168.283.015.134.052.121.166.088.218.105.151.178.084.06-.134.014-.235.06-.166.28-.168.64-.218.195-.203.386.203.342.418.222.553-.029.656.134.135.252.253.39.317.399.218.282-.084 1.65 1.042.253.27.34.822.238.032.226-.2.356-.538.193-.2.267-.119.386-.117.268-.185.15-.388.046-.469-.016-.468-.136-.623-.193-.102-.608.337-.283-.067.15-.321.31-.352.163-.134-.162-.3-.371-.253-.52-.235-.015.27-.181-.017-.223-.151-.148-.186-.044-.202-.03-.287v-.25l.03-.052-.238-.234-.282.05-.64.302-.343-.017-.415-.101-.728-.318-1.218-.755-1.146-1.007-.476-.605-.281-.303-.567-.234-.906-1.158-.164-.067-.193-.018-.162-.05-.092-.133-.03-.237v-.235l.044-.17.137-.1.965.707.656.89.4.401.386.119.283.134 1.278 1.51.134.084h.208l.162.034.209.27.493.086.698.369.325.05 1.19-.622.046-.153-.134-.269-.193-.268-.164-.134-.148-.017-.492.168-.03-.134.42-.302.058-.067-.059-.2-.105-.067-.121-.017-.49-.253-.103-.168.029-.254.118-.167.163-.051.18.017.177.05-.09-.167-.103-.185-.149-.134-.193-.015.105-.59.34.22.672.87.296.035.209-.168.177-.084.104.336.819.757.193.253.09-.018-.075-.672.134-1.291-.119-.69-.208-.354-.178-.034-.193.034-.18-.101-.046-.233.108-.27.178-.233.149-.151-.03-.136-.537-.403-.239.017v.487l-.103.27-.371-.084-.608-.321h-.345l-.283-.117-.028-.185.386-.27.714-.25.252-.186.223-.318-.682-.084-.672.084-.623-.084-.489-.571-.208.183-.33.086h-.994l-.281-.101-.255-.203-.313-.437-.222-.368-.06-.168-.028-.032-.209-.623-.133-.134-.52-.388-.18-.067-.729.017-.029-.067-.03-.302-.029-.067-.074-.017-.06.034-.059.017-.208-.118-.39-.05-.087-.084-.193-.25-.09-.035-.163-.134-.504-.655-.119-.22-.12-.402-.147-.168-.538-.1-.222-.084-.283-.183-.267-.236-.237-.454-.178-.086-.196-.05-.178-.101-.193-.184-.06-.117-.37-1.208-.09-.118-.355-.287-.09-.1-.207-.168-1.16-.05-.178-.118-.134-.151-.105-.201-.06-.285-.09-.153-.119.017-.18.153-.533.035-.296-.07-.164-.217.09-.252.296-.035.728.035.254.084.238.267.222.321.193.234.149-.067h.726l.27.101.224.168.4.452.669 1.093.162.117.716.386.342.656 1.056.335.356.638.772.924.24.168.223.067.207-.084.149-.268.044.335.12.187.147.1.163.049.149-.252.118.085.105.201.104.151.551.302.09.117.208.402.698.657.255.32.044.25.193.386.237.218.237-.101.015-.838.09-.336.268.302.073.185.177.251.15.151.059.017.062-.134.193.1.208.185.088.102.921.149.464-.016.206-.369-.206.067-.09-.134-.286-.284-.088-.203.044-.167.119-.116.062-.153-.15-.285.165.033h.193l.178-.05.119-.136-.073-.252-.582-.335-.178-.235.013-.1.105-.017h.119l.06-.05.061-.32v-.235l-.03-.201-.122-.32-.459-.654-.193-.403.119-.235.266.084.612.47.282-.034.104-.336-.03-.538-.193-.921-.163-.218-.314-.169-.356-.118-1.547-.27-.653-.302-.82-.135-.192-.083.118-.051.09-.117.088-.05-.163-.133-.177-.102-.193-.067h-.193l-.535.268-.089-.033-.074-.302-.029-.084.148-.268-.016-.302-.266-.238-.612-.285-.43-.3-.09-.085-.06-.47-.072-.151-.149-.033-.178.085-.3.183-.178.05-.134-.033-.132-.084-.15-.067h-.177l-.134.167-.311.336-.36.201-.222-.2-.15-.253-.267-.117-.311.017-.327.05-.64.017-.831-.134-.672-.235-.311-.504.015-.136.015-.134-.046-.168-.147-.151-.164-.067-.163-.05-.134-.067-.849-.673-.088-.017-.164-.1-.119-.116.09-.084.281-.052.134-.05.09-.102.09-.352-.075-.368-.15-.336-.162-.2-.401-.154-.342.272-.34.418-.701.452-.445.539-.268.166-.982.388-.697-.067-.746.084-.03-.15.163-.085.523-.086.15-.116-.06-.169-.239-.22-.162-.2-.657-.503-.222-.235.207-.201.223.101.39.386-.286-.79v-.991l.09-.872-.045-.422-.03-.167.118-.084.256-.302-.104-.084-.092-.134-.088-.033.162-.285.122-.37.045-.404-.015-.353.044-.352.178-.234.223-.051.134.185.088.352.105.151.163-.051.237-.201.164-.201.119-.25-.03-.219-.282-.103-.149-.2-.044-.268.119-.254.252-.117.015.302.103.136.122-.035.015-.437.119-.067.162-.017.15-.117.251-.302.238-.151.133-.234-.044-.556-.415-2.267-.045-.102-.119-.233-.074-.118-.386-.402h.015l-.18-.185-.698-.404-.09-.086-.237-.233-.193-.119-.493.018-.563-.084h-.224l-.237-.067-.149-.268-.132-.335-.149-.287-.418-.317-.49-.17-.519-.051-1.384.17-.415-.136-.657-.503-.28-.185-.253-.234-.15-.32.045-.403.416-.62.163-.387-.015-.453-.237-.304-.327-.082-.37-.035-.33-.153-.4-.485-.193-.134-.728-.034-.714-.134h-.298l-.772.185-.329-.101-.015.101-.06.287-.163.956-.148.738-.193 1.093-.133.704-.06.302-.045.287-.148-.103-.193-.1-1.012-.587-.997-.587-1.009-.59-1.012-.57-1.009-.587-.998-.587-1.012-.59-.994-.586-.283-.151-.195.168-.148.436-.046.234v.185l.046.218.21.64.045.218.015.268v.134l-.03.252-.152.47-.34.857-.031.101-.014.117v.1l.014.1.03.102.03.086.058.232.016.12v.134l-.044.37v.285l.028.117.03.101.12.3.03.102.013.118-.013.083-.061.134-.37.808-.52.67-.475.957-.165.522-.016.1v.084l.03.067.03.084v.084l-.044.2-.298.656-.088.119-.119.135-.223.15-.163.068-.118.083-.075.101-.06.2-.089.437-.088.202-.06.117-.104.119-.33.252-.118.067-.089.034-.09-.017-.074-.033-.059-.068-.06-.084-.059-.067-.059-.035-.074.018-.075.066-.252.656-.34.89-.42 1.041-.311.84-.075.116-.073.101-.118-.017-.61-.3-.76-.388-.52-.252-.074.017-.073.101-.478 1.126-.089.218-.03.201v.117l-.029.135-.045.167-.193.489-.044.2-.016.135.06 1.275-.016.1-.059.103-.103.133-.208.218-.133.17-.133.218-.09.285-.044.168-.015.15-.03.757-.014.067v.185l-.105.805-.044.25-.075.219-.21.489-.282.671-.401.975-.06.082-.074.069-.119.015-1.027-.15-.86-.117-.76-.119-.772-.118-.044-.016-.03-.017.015-.084.03-.185v-.15l-.015-.034-.06-.1-.803-1.091-.06-.069-.06-.034-.044-.017-1.383-.268-.104.017-.074.117-.06.185-.045.404.015.22.015.167.03.117.015.134-.014.119-.046.183-.208.52v.386l.134.924-.014.136-.045.149-.193.42-.045.218-.059.69-.044.134-.149.151-.267.184-.06.084-.028.134-.03.22-.06.2-.122.255-.059.166.015.218.044.136.092.2.045.1.029.101-.029.151-.045.151-.21.37-.312.338-.118.183-.268.537-.608.907-.03.116-.015.12.03.184.075.201v.151l-.15 1.312-.24.871-.341 1.243-.386.738-.683 1.277-.536.974-.432.823-.533.972-.015.086-.044.539-.03.166-.3 1.023-.386 1.312-.03.233.03.084.03.05.03.034.236.169.178.1.508.169.074.067.075.117.044.204-.014.134-.03.117-.134.183-.281.285-.242.203-.088.084-.103.134-.134.22-.046.166-.013.15.013.104.03.1.045.084.074.066.208.102.076.084.03.233-.03.134-.062.119-1.723 1.594-.402.572-.074.1-.088.05-.075.018h-.09l-.074-.033-.074-.053-.06-.082-.044-.101-.015-.117-.029-.186-.03-.084-.029-.084-.074-.067-.163-.015-.12.015-.359.119-.355.218-.594.47-.701.554-1.277 1.241-.059.052-.118.067h-.063l-.059-.016-.044-.051-.046-.084-.059-.069-.074-.05-.073-.017-.298-.015-.073-.035-.046-.067-.029-.183-.03-.052-.06-.032-.058-.017-.461-.018-.132.018-.152.05-.208.133-.104.119-.074.1-.044.135-.015.118-.016.134.016.117.015.118.044.119.311.419.03.118v.166l-.06.253-.073.134-.06.116-.935.893-.104.05h-.09l-.268-.169h-.119l-.149.052-.401.335-.134.067-1.59.552-1.176 1.01-.162.084-.046-.017-.044-.033-.044-.067-.09-.136-.044-.082-.074-.051-.15-.102-.922-.437-.074-.05-.119-.101-.386-.436-.074-.067-.103-.05h-.134l-.208.05-.119.116-.06.102-.028.1-.06.387-.045.168-.06.201-.15.287-.12.134-.103.084-.608.2-.238.119-.119.1-.088.1-.672 1.144-.103.117-.105.084-.37.1-.982.083-.193-.032-.446-.252-.608-.218-.09-.05-.151-.136-.266-.32-.075-.066-.074-.069-.103-.05-.09-.034-.15-.032-.355.017-.208.05-.21.017-.059-.017-.208-.085-.164-.133-.06-.067-.059-.085-.208-.384-.058-.084-.074-.084-.164-.117-.848-.455-.075-.067-.059-.084-.06-.101-.014-.119-.03-.116-.015-.555-.015-.116-.015-.117-.044-.119-.046-.1-.044-.083-.059-.069-.074-.05-.623-.302-.075-.067-.044-.086-.015-.1.03-.118.03-.084.341-.401v-.017l.015-.05v-.101l.015-.117-.03-.134-.03-.101-.06-.102-.059-.068-.163-.134-.76 1.007-1.176 1.53-.83 1.107-1.31 1.713-1.19 1.545-.341.353-1.053.84-1.161.923-1.546 1.226-.682.74-.256.368-.104.236.015.15.103.335.09.488v.27l-.03.133-.089.201-.149.153-1.29 1.023-.345.386-.134.218-.059.204.044.352.03.117.045.25.015.337v.117l-.03.116-.014.12-.046.1-.06.101-.221.184-.906.589-.922.604-.683.134-.104.05-.078.068-.267.436-.207.773-.074.218-.163.27-.03.081v.086l.059.201.015.119-.015.1-.09.102-.118.1-1.592.57-1.56.89-.58.505-.177.235-.103.1-.168.084-1.513.436-1.324.825-.103.033-.3.218-.609.788 1.666-.268 1.665-.268 3.33-.554 1.665-.27 1.665-.286 1.665-.285 1.666-.285 1.664-.285 1.665-.285 1.666-.287 1.666-.285 1.65-.303 1.664-.285 1.666-.302 1.665-.285.774-.151.118-.083.298-.405.134-.067.134-.032 1.1-.153 1.35-.2 1.502-.219.134.234.074.051.122.015.356-.066 2.778-.503 2.796-.486 2.78-.522 2.78-.52 2.795-.503 2.783-.522 2.778-.537 2.78-.537 2.782-.536 2.778-.539 2.78-.554 2.782-.553 2.78-.556 2.779-.572 2.781-.57 2.781-.571 2.764-.572 2.781-.585 2.766-.587 2.778-.589 2.781-.606 2.768-.602 2.762-.606 2.781-.621 2.766-.62 2.765-.623 2.766-.621 2.778-.637 2.767-.639 2.766-.638 2.763-.637 2.335-.572.417-.103-.09-.183-.103-.151-.105-.169-.073-.302.667.738.731-.168-.03-.032-.356-1.176-.226-2.317.03-.253.18-.015.209.1.134.1.147.22.638 1.476.104.134.238.237.104.151.044.268-.015.252.03.253.137.267.208-.05.222-.05-.34-.873-2.397-4.416z"/>
        </g>
    </g>
</svg>
