<svg xmlns="http://www.w3.org/2000/svg" xmlns:xlink="http://www.w3.org/1999/xlink" width="128" height="128" viewBox="0 0 128 128">
    <defs>
        <path id="a" d="M0 0h128v128H0z"/>
    </defs>
    <g fill="none" fill-rule="evenodd">
        <mask id="b" fill="#fff">
            <use xlink:href="#a"/>
        </mask>
        <use fill="#AFC7D1" fill-opacity="0" fill-rule="nonzero" xlink:href="#a"/>
        <g fill="#AFC7D1" mask="url(#b)">
            <path d="M39.313 15.845l-1.623.457-.47.156-2.778.805-1.218.34v-.035l-.81.61.37.687.17.461.07.457-.104.536-.17.191-.166.035-.104.118.07.761.304 1.763-.104 1.41.07.918.169.883.27.536.574.379.405.422.1.613-.2.988-.205.27-.2.04-.204.112-.135.5.034.61.1.152.236.118.543.535.235.191.204.305.1.496-.1.383h-.238l-.201-.191-.474-.727h-.405l-.27.496.032 1.032.439 1.262.035.73-.405.61.304.379.2.383.105.457v.383l.2-.04.104.65.336.996.439.844.339.344.778.113.343.649-.07.84-.442.73.816.997.305.61v.687l-.1.648.03.684.17.653.339.574-.17-.844-.034-1.106.135-.879.373-.113.166.531.509 2.677.135.156.204.227.235.347.609 1.602.412 1.376.235.652.339.496.474.575-1.695 3.403-.744.8.675 1.603-.07 5.24.61 1.988.103-.535.308-.5.239-.11.304.266.031.078.104.57.031.993.574 2.563.34.84.473.801.574.649.305.457.2.54.035.613-.1.992.034.574.27.497.917.648.339.38.135.425.304 1.528.135-.266v.383l-.674 5.31v.46l.065.571.24 1.07.2.575.27.5.339.418.1.114h.1l.104-.075.336-.27.304-.417.204-.457.035-.309-.035-.918.035-.27.1-.27.135-.187.17-.152.207-.153.239-.078.235-.074h.54l.273.035.235.192.204.23.844 1.606.37.348.204.074.37.27.347.304.2 1.067.07.383.2.996.304 1.606.409 2.06.505 2.41.54 2.715 2.338 11.808 1.013 5.165.405 2.063.305 1.602.204 1.036.1.343.066.536.103.84v1.832l.851 1.497.71 1.219 4.94-1.184 1.66-.383 1.657-.383 1.654-.383 1.629-.422 1.653-.383 1.664-.375 1.623-.426 1.66-.379 1.657-.383 1.654-.418 1.63-.383 1.653-.422 1.664-.382v-.04l-.54-1.336-.886-.844-1.792-1.18-.404-.46-.27-.423-.27-.531-.239-.73-.166-.88.031-.648.104-.57.1-.767-.235-2.18.031-.914.509-.536.71-.539.134-.918-.374-2.254-.03-2.907-.17-1.145-.474-1.223-.135-.57-.27-2.067.17-.344.1-.266V95.7l-.066-.305-.135-.117-.11-.074-.066-.117-.07-.649.035-.539.142-.535.235-.536.204-1.027-.17-1.11-.546-1.836-1.622-8.37-.1-1.336.17-.805.874-1.492.274-.992.065-1.032-.17-2.102-.269-1.723.1-.57.713-1.036.277-.762 1.314-2.215.204-.883.035-1.032-.035-1.11-.17-1.066-.034-1.07.239-1.15 1.384-3.934v-.383l-.27-.195-.37-.23-.239-.38.035-.8.778-3.138.1-1.68-.235-1.915-.982-4.243-.301-2.555.3-1.95.983-1.38 1.56-.835 1.623-.383.743-.387.505-.649.751-1.797.37-.649 2.397-2.793.786-.61.17-.535.338-1.18.875-1.344.409-1.032-.17-.875-.27-.84v-.996l.27-.344.405-.117.373-.188.167-.578-.1-.457-.34-.457-.574-.536-1.619-2.48-.311-.692-.44-.801-.608-.497-.474-.691-.17-1.262.408-1.946.98-2.794.92-2.637.03-1.258-.48-.692-.606-.57-.474-1.07-.2-1.302.2-.57.505-.344-3.213.953-3.21.997-3.218.953-3.213.992-3.217.954-3.218.957-3.213.957-3.21.954-3.218.96-3.248.958-3.217.954-3.217.914-6.431 1.91-3.245.919-2.978.844-.236.074-1.055.305z"/>
        </g>
    </g>
</svg>
