<svg xmlns="http://www.w3.org/2000/svg" xmlns:xlink="http://www.w3.org/1999/xlink" width="128" height="128" viewBox="0 0 128 128">
    <defs>
        <path id="a" d="M0 0h128v128H0z"/>
    </defs>
    <g fill="none" fill-rule="evenodd">
        <mask id="b" fill="#fff">
            <use xlink:href="#a"/>
        </mask>
        <use fill="#AFC7D1" fill-opacity="0" fill-rule="nonzero" xlink:href="#a"/>
        <g fill="#AFC7D1" mask="url(#b)">
            <path d="M44.814 9.625l.058.466.265.128.77-.702.974-.38.205-.468-.318-.021.15-.338.416-.423.43-.212.47-.107.28-.19V7.08l-.338-.404-.355.107-.998.637-.186.254-.188.36-1.312.996-.323.594zm3.251-4.283l.319.02.318.087.28.231-.11-.403.055-.295.169-.255.168-.213-.019-.403-.28-.02-.695.317-.88.319-.206.169-.267.487.17.15.978-.19zm-6.701-.552l.3-.167.224-.386.13-.382-.3-.338-.185.276-.488.466v.277l.319.254zm71.134 51.697l-.452-.107-.394-.36-.62-.869-.618-.444-.397.338-.338.382-.468-.254-.618.91-.263.256.056-.49-.472.022-.488.386-.412.529-.28.444-.543 1.207-.472 1.4.205.404-.15.485-.263.447-.13.342-.188.275-1.255.761-.755.768-.374.507-.113.51-.111.656-.374.338-.492.104-.45-.063-.356-.19-.393-.339-.244-.338.188-.169.073-.85.02-.615.074-.254.113-.212.13-.382.114-.106.056-.147-.15-.406-.036-.147.074-.68.075-.274.17-.318.373-.445.187-.275.057-.319v-.316l.06-.364.094-.338.094-.276.898-1.398.243-.786-.28-.761.469-.806.81-.49 1.592-.614.378-.234.302-.275.186-.425.019-.594-.075-.572-.02-.319.04-.232.41-.869.038-.188-1.03-.302-.342-.23-.056-.13-.113-.168-.224-.254-.468-.403-.32-.362-.149-.232-.038-.189v-.893l.038-.338.244-1.166.355-1.168.113-.254.244-.36.075-.17v-.148l-.039-.15-.15-.21-.168-.236-.13-.148-.131-.06h-.113l-.112.039-1.28.934-.13.065-.13.022h-.15l-.432-.087-.15.022-.113.043-.205.169-.154.043-.169-.021-.3-.148-.132-.173-.074-.17.019-.166.15-.594.019-.193v-.234l-.075-.338-.02-.21.039-.17.075-.127.547-.55.075-.111.074-.126.114-.273.075-.3.017-.147v-.086l-.017-.189-.227-.828-.228-.531-.02-.254.08-.128.132-.062.094-.065.094-.107.055-.169.02-.21-.039-.381-.055-.191-.075-.15-.361-.51-.169-.277-.017-.21.017-.15.188-.21.056-.084.038-.171v-.083l-.038-.086-.13-.126-.28-.275-.247-.278-.205-.147-.468-.275-.094-.109-.263-.297-.075-.106-.111-.063-.113-.063-.154-.021-.806.021-.319-.065-.113-.04-.111-.085-.094-.085-.244-.275-.055-.044-.095-.02h-.094l-.358.19-.3.064h-.151l-.3-.043-.3-.084-.281-.126-.15-.128-.205-.234-.075-.19v-.192l.036-.15.039-.147.355-.615.057-.128.056-.169-.02-.254-.074-.19-.585-1.04-.17-.172-.166-.104-.301-.085-.13-.043-.488-.36-.15-.043-.15.022-.263.084-.15.022h-.153l-.338-.085-.337-.169-.15-.043h-.15l-.637.065-.3-.022-.116-.021-.505-.36-.169-.063-.169-.022-.357.17h-.337l-.659-.298-.15-.04-.132.02-.111.064-.15.021-.188-.043-.318-.212-.208-.085-.186-.065h-.15l-.132.046-.13.04-.21.17-.132.043h-.13l-.15-.022h-.133l-.11.063-.377.36-.15.043-.205-.021-.66-.275-.413-.085-.3-.126-.185-.045h-.188l-.133.021-.355.215-.15.02-.187-.02-.15-.128-.134-.043-.133.021-.26.085-.133.022h-.244l-.45-.213-1.147-.53-1.141-.532-1.129-.529-1.124-.529-.413-.169-.66-.128-.205-.021-.545-.109-.847-.147-1.124-.19-1.315-.235-1.462-.275-1.578-.275-1.635-.276-1.615-.297-1.574-.294-1.466-.256-1.315-.256-1.105-.19-.868-.17-.543-.086-.205-.042-.526-.106-.094-.106-.075-.147-.19-.531-.357-.72-.581-1.125-.355-.741-.225-.445-.243-.299-.263-.275-.19-.104-.188-.043h-.17l-.224-.065-.15-.107-.187-.169-.188-.043-.336-.041-.113-.106-.225-.382-.132-.063-.116.02-.318.256-.113.062-.15.022-.205-.022-.133-.062-.094-.107-.092-.275-.132-.51.057-.147-.45.403-.356.022-.81-.403-1.331-.215-1.747-.869-1.447-1.248-.393-.215.132.087.394.425h-.208l-.186.063-.169.084-.168.128.019.17.637-.066-.3.572-.45.406-2.104 1.166-.508.169-.507-.213.188-.574.261-.548 1.054-1.594.075-.338-.112-.253-.15-.256-.093-.256v-.485l.074-.594.17-.51.318-.255.28-.297.376-1.27.261-.401-.111-.258-.058-.107.417-.275-.075-.212-.248-.17-.15-.168-.11-.53-.189-.149-.543.085-.094-.063-.057-.17-.037-.192-.036-.104-.17-.087-.168-.041-.357-.022-.134.109-.058.188-.036.213-.039.128-.167.084-.207.085-.374.062-.15-.021-.282-.085-.111-.02-.17.064-.112.128-.075.125-.056.085-.754.444-.186.213-.075.17-.02.191-.038.148-.15.084-.356.044-.15.065-.15.125-.243.638-.229.232-.355-.213.018-.169-.018-.063-.019-.04-.02-.129-.318.445-.393.19-.263-.128.094-.613-.507.19-.846.911-1.33 1.084-.829.973-.263-.212-1.314.72-1.424.342-3.925 1.948-2.629.66h-.433l-1.18-.532-.283-.065-.318-.169-.472-.4-.413-.467-.13-.253-.244.125-.282.256-.112.273-.13.466-.058.106-.094.085-.28.106-.117.065-.075.085-.075.128-.055.147-.02.169-.036.702-.038.126-.037.063-.057.106-.092.065-.263.106-.3.041h-.337l-.263-.084-.075-.022-.039.106.039.592.094 1.74.111 1.741.094 1.717.113 1.738.094 1.738.225 3.48.094 1.738.037.403.038.89-.338.107-.224.212-.225.317-.169.381-.057.382-.167.255h-.417l-.47-.062h-.317l-.262.275-.357.743-.263.17-.753.062-.168.085-.13.128-.114.147-.056.063-.019.065-.188.4-.092.131-.133.104-.468.106-.96.744-.318.106-.543.338-.491.72-.637 1.55.13.782-.468.852-1.484 1.757-.15.34-.038.469-.019 2.096.413.934.79.148.939-.085.716.234.224.401.338 1.043.169.379.336.425.357.36.28.405.113.529-.038.487-.488.995-.075.638-.075.509-.224.338-.263.278-.242.36-.132.463-.037.512.056 1.229-.094.594-.02.318.095.148.374.893.058.615-.075.55-.225.402-.357.17-.247.298.169.592.508 1.209.246 1.166.15 1.166-.058.191-.225.49-.036.295.15.869.036.342-.075.761-.673 1.782.524.446 1.199.698 1.372 1.335.355.215.132.232.095.256.092.147.848.488 2.907.294.676.215.66.507.581.68.563 1.167.167.297.207.21.267.106 2.195.234 1.011.32 3.025 2.563.788 1.255 1.597 2.84.393.509.749.295 2.308 1.931.227.128.247.041 1.799-.147.113.04 1.128.85.13.061.17.044h.692l.229.106.132.128.092.15.058.166.055.213.15.383.468.55.17.36.824.256.267.146.205.214.13.254.114.299.13.676.058.637.017.807.02.255.055.232.094.213.114.19.28.317.132.19.075.256.111.531.039.53-.13 1.525.016.258.208.72.017.295-.017.87.036.382.173.7.057.36-.019.36-.057.657v.405l.038.336.075.32.113.296.3.55.11.256.078.295.15.767.166.275.227.17 1.671.572.507.591.111 1.04-.3.87-.88 1.59-.15.998.244 1.95.205.933.075 1.018.056.319.113.316.113 1.275.15.613.244.445.58.68.23.38.15.49.13 1.185.113.512.73 1.333.262.34.468.319.848.32 3.303.401.883.276.45.021.47.126.318.381.453 1.104.188.32.543.74.188.403-.02.316-.205.64h.037l.019-.022h.019l3.38-.275 3.377-.297 3.362-.321 3.358-.295 3.382-.318 3.38-.317 3.357-.342 3.363-.317 3.36-.338 3.38-.362 3.361-.34 3.359-.36 3.362-.358 3.377-.383 3.362-.382 3.305-.362-.34-2.122.02-.273.055-.318v-.32l-.207-.463-.056-.342-.036-.38v-.277l.111-.529.323-.932.019-1.91-.079-.507-.282-.574-.898-1.04-.225-.38-.094-.275-.282-2.248-.205-.635-.378-.553-.545-.106-.17-.34.058-.51.28-1.038.02-.236-.02-.338-.093-.148-.394-.296-.111-.254.017-.637.094-.445.02-.466-.206-.637-.207-.485-.111-.297-.114-1 .319-2.163.056-.867.938-2.716.169-1.125-.282-.867.036-.678.152-.572.92-2.376.358-1.357-.169-.169.094-.32-.038-.085-.112-.189.13-.3.037-.272-.036-.258-.094-.316-.488-.741-.055-.128-.173-.297-.094-.72-.037-2.124.018-.293.286-.637.017-.256v-.7l.077-.594.73-2.564.243-.51.243-.274 1.017-.744.319-.425.261-.51.188-.59.038-.595-.168-.422-.864-1.062-.228-.935v-.314l.117-.574.055-.447.208-.613.036-.297-.036-.64.224-3.158.244-1.25.374-1.082.75-1.335.13-.553.21-.507.038-.15v-.316l.037-.319.395-1.887-.038-.616-.394-.212zm-66.742-50.7l.336-.254.17-.19-.056-.276-.283-.425-.13-.087-.338-.147-.186-.106-.056.234-.057.19-.075.191-.117.191.585.425.207.254zm5.518-3.754l-.15-.913.036-.104.039-.087.017-.082V.719l-.562.063-.336.51-.15.806v.912l.749-.446.357-.531zm68.432 38.425l.112-.447.113-.49-.037-.465-.243-.295-.338.02-.338.19-.318.085-.284-.317-.208-.19-.15.212-.055.444v.449l.15.676-.039.275-.224.297.188.106.224-.043.453-.169 1.163.022-.113-.254-.056-.106zm-1.934 2.82l-.036-.234.055-.232.056-.384-.15-.063-.449.15-.562.063-.229-.087-.282-.232-.094.213-.055.19-.02.234.02.254-.039.147-.15.087-.168.041-.112.085-.168 1.25-.02.384-.111.275-.6.338-.114.276-.092.297-.305.021-.355-.084-.244-.022-.224.297-.15.466-.075.553v.888l-.057.297-.206.447v.128l.056.318v.107l-.075.043-.225-.022-.074.022-.923 1.587-.355 1.04-.133 1.207.244 1.062.581.997.735.575.75-.106.28-.302.755-1.439.111-.277.039-.55.075-.235.15-.19.373-.276.15-.21-.487-.445.151-.895.693-1.565.111-.596.094-.277.188-.126.15.041.169.065.154.041.055-.106-.075-.507.02-.128.094-.253.074-.107.15-.02.15-.086.094-.232-.79-.678-.208-.343.226-.147.248.022.543.19-.075-.253-.226-.362-.056-.273v-.276l.13-.89-.092-.172-.15-.15-.057-.127.244-.126.188.041.768.408.168-.598-.13-.232-.094-.232z"/>
        </g>
    </g>
</svg>
