<svg width="270" height="120" viewBox="0 0 270 120" fill="none" xmlns="http://www.w3.org/2000/svg">
<g style="mix-blend-mode:darken">
<path fill-rule="evenodd" clip-rule="evenodd" d="M97.5191 17.1571C95.3116 17.1595 93.5234 18.9496 93.5234 21.1571V119.826H240.757L240.772 21.005C240.773 18.7939 238.979 17.002 236.768 17.0044L97.5191 17.1571Z" fill="#C3D4FA"/>
<path fill-rule="evenodd" clip-rule="evenodd" d="M103.473 103C103.473 104.105 104.368 105 105.473 105H228.824C229.928 105 230.824 104.105 230.824 103V39C230.824 37.8954 229.928 37 228.824 37H105.473C104.368 37 103.473 37.8954 103.473 39V103Z" fill="#FEFEFE"/>
<path d="M194.011 90H110.437V91H194.011V90Z" fill="#376EEE" fill-opacity="0.1"/>
<path d="M194.011 79H110.437V80H194.011V79Z" fill="#376EEE" fill-opacity="0.1"/>
<path d="M194.011 68H110.437V69H194.011V68Z" fill="#376EEE" fill-opacity="0.1"/>
<path d="M126.356 57H110.437V58H126.356V57Z" fill="#376EEE" fill-opacity="0.1"/>
<path d="M226.844 57H210.925V58H226.844V57Z" fill="#376EEE" fill-opacity="0.1"/>
<path d="M226.844 68H210.925V69H226.844V68Z" fill="#376EEE" fill-opacity="0.1"/>
<rect x="136.305" y="56" width="65.6654" height="24" rx="2" fill="#FFC72C"/>
<path fill-rule="evenodd" clip-rule="evenodd" d="M160.364 69.0195L158.565 67.9995L160.364 66.9795C161.046 66.5852 161.29 65.715 160.912 65.0211C160.735 64.689 160.433 64.4424 160.073 64.3369C159.713 64.2313 159.326 64.2757 159 64.4601L157.07 65.5543V63.4401C157.07 62.6445 156.439 62 155.663 62C154.886 62 154.256 62.6445 154.256 63.4401V65.5543L152.327 64.4601C151.999 64.2754 151.612 64.2308 151.252 64.3363C150.892 64.4419 150.589 64.6887 150.412 65.0211C150.035 65.7152 150.279 66.5846 150.96 66.9795L152.759 67.9995L150.96 69.0195C150.278 69.4138 150.034 70.284 150.412 70.978C150.67 71.4527 151.15 71.7198 151.645 71.7198C151.875 71.7198 152.11 71.6614 152.326 71.5399L154.254 70.4457V72.5599C154.254 73.3565 154.885 74 155.662 74C156.438 74 157.07 73.3555 157.07 72.5599V70.4457L158.998 71.5399C159.214 71.6614 159.449 71.7207 159.68 71.7207C160.175 71.7207 160.655 71.4518 160.911 70.9789C161.289 70.2825 161.044 69.4062 160.364 69.0205V69.0195ZM174.476 69.0195L172.677 67.9986L174.476 66.9786C175.158 66.5843 175.402 65.7141 175.024 65.0202C174.847 64.6878 174.545 64.441 174.185 64.3355C173.825 64.2299 173.438 64.2745 173.111 64.4592L171.181 65.5543V63.4401C171.181 62.6445 170.55 62 169.774 62C168.997 62 168.367 62.6445 168.367 63.4401V65.5543L166.438 64.4601C166.111 64.2757 165.724 64.2313 165.364 64.3369C165.004 64.4424 164.702 64.689 164.525 65.0211C164.147 65.7148 164.39 66.5849 165.072 66.9795L166.871 67.9995L165.072 69.0195C164.39 69.4141 164.147 70.2843 164.525 70.978C164.701 71.3106 165.004 71.5578 165.364 71.6635C165.724 71.7693 166.111 71.7247 166.438 71.5399L168.366 70.4457V72.5599C168.366 73.3565 168.997 74 169.774 74C170.55 74 171.181 73.3555 171.181 72.5599V70.4457L173.111 71.5408C173.326 71.6623 173.562 71.7217 173.793 71.7217C174.288 71.7217 174.768 71.4527 175.024 70.9798C175.403 70.2852 175.16 69.4133 174.476 69.0186V69.0195ZM186.242 68.0005L188.041 69.0205C188.721 69.4062 188.967 70.2834 188.589 70.9789C188.333 71.4537 187.852 71.7207 187.358 71.7207C187.126 71.7207 186.891 71.6623 186.676 71.5399L184.746 70.4457V72.5599C184.746 73.3546 184.116 74 183.34 74C182.563 74 181.932 73.3555 181.932 72.5599V70.4457L180.003 71.5399C179.786 71.6623 179.551 71.7207 179.321 71.7207C178.826 71.7207 178.346 71.4537 178.089 70.9789C177.711 70.2847 177.955 69.4144 178.638 69.0205L180.437 67.9995L178.637 66.9795C177.955 66.5852 177.711 65.715 178.089 65.0211C178.266 64.6881 178.568 64.4408 178.929 64.3352C179.289 64.2296 179.677 64.2746 180.003 64.4601L181.932 65.5543V63.4401C181.932 62.6445 182.563 62 183.34 62C184.116 62 184.747 62.6445 184.747 63.4401V65.5543L186.676 64.4601C187.002 64.2749 187.39 64.23 187.75 64.3356C188.11 64.4412 188.413 64.6884 188.589 65.0211C188.967 65.7153 188.724 66.5861 188.041 66.9804L186.242 68.0005Z" fill="white"/>
<path fill-rule="evenodd" clip-rule="evenodd" d="M93.5234 25H240.773V19C240.773 17.8954 239.878 17 238.773 17H95.5234C94.4189 17 93.5234 17.8954 93.5234 19V25Z" fill="#0E3AA1"/>
<path fill-rule="evenodd" clip-rule="evenodd" d="M236.604 97.1274L239.572 120H258.173L260.944 97.1274H236.604Z" fill="#8CACF6"/>
<path fill-rule="evenodd" clip-rule="evenodd" d="M232.445 92.5518L234.424 98.5186H262.854L264.701 92.5518H232.445Z" fill="#C3D4FA"/>
<path fill-rule="evenodd" clip-rule="evenodd" d="M229.829 85.1939C229.829 85.1939 232.995 82.6082 234.182 83.6028C235.37 84.5974 239.129 92.553 239.129 92.553H243.681C243.681 92.553 235.567 73.8571 229.829 85.1939Z" fill="#1ACC94"/>
<path fill-rule="evenodd" clip-rule="evenodd" d="M251.795 92.5531C251.795 92.5531 260.106 81.8128 268.417 80.2217C268.417 80.2217 265.053 87.7797 256.94 92.5531H251.795Z" fill="#1ACC94"/>
<path fill-rule="evenodd" clip-rule="evenodd" d="M237.024 60.5312C237.024 60.5312 234.842 80.8183 242.897 92.5531H246.253C246.253 92.5531 242.226 72.4649 237.024 60.5312Z" fill="#1ACC94"/>
<path fill-rule="evenodd" clip-rule="evenodd" d="M243.394 48C243.394 48 242.008 79.6242 245.966 92.5521H249.825C249.825 92.5521 253.882 69.0828 243.394 48Z" fill="#1ACC94"/>
<path fill-rule="evenodd" clip-rule="evenodd" d="M249.123 92.5529C253.822 78.4529 253.378 57.3487 270 49.3931C259.704 59.8297 267.032 74.4535 251.795 92.5529H249.123Z" fill="#1ACC94"/>
<rect x="57.7059" y="56" width="36.6134" height="64" rx="4" fill="#8CACF6"/>
<path d="M62.4814 65.4678H89.5435V113.537H62.4814V65.4678Z" fill="white"/>
<path d="M104.688 75.5498C105.82 75.5498 106.738 76.4721 106.738 77.6099V97.9727C106.738 99.1105 105.82 100.033 104.688 100.033L82.6152 100.032L72.7221 104.229L73.913 100.032H70.6075C69.4755 100.032 68.5579 99.1098 68.5579 97.9721V77.6106C68.5579 76.4728 69.4755 75.5505 70.6075 75.5505H104.688V75.5498Z" fill="#FFC72C"/>
<path fill-rule="evenodd" clip-rule="evenodd" d="M91.33 88.0191L89.9977 87.2631L91.33 86.5077C91.8352 86.2157 92.0156 85.5713 91.7358 85.0574C91.6048 84.8113 91.3808 84.6285 91.1142 84.5503C90.8476 84.4722 90.5609 84.5052 90.3188 84.6419L88.8902 85.4529V83.8873C88.8902 83.2981 88.4228 82.8208 87.8476 82.8208C87.2723 82.8208 86.8057 83.2981 86.8057 83.8873V85.4529L85.377 84.6426C85.135 84.5061 84.8485 84.4732 84.5821 84.5514C84.3156 84.6295 84.0917 84.8121 83.9607 85.0581C83.6808 85.5718 83.8608 86.2162 84.3659 86.5084L85.6982 87.2638L84.3659 88.0191C83.8608 88.3114 83.6808 88.9557 83.9607 89.4695C84.0913 89.7158 84.3152 89.8988 84.5817 89.9771C84.8483 90.0555 85.135 90.0225 85.377 89.8856L86.805 89.0753V90.641C86.805 91.2309 87.2723 91.7074 87.8476 91.7074C88.4228 91.7074 88.8902 91.2302 88.8902 90.641V89.0753L90.3188 89.8863C90.4787 89.9763 90.6529 90.0202 90.8244 90.0202C91.1906 90.0202 91.5459 89.8211 91.7358 89.4708C92.0165 88.9564 91.8361 88.3108 91.33 88.0185V88.0191ZM80.8796 88.0193L79.5474 87.264L80.8796 86.5086C81.3849 86.2166 81.5652 85.5722 81.2855 85.0583C81.1545 84.8123 80.9306 84.6297 80.6641 84.5516C80.3977 84.4734 80.1112 84.5063 79.8692 84.6428L78.4405 85.4531V83.8874C78.4405 83.2983 77.9732 82.821 77.3979 82.821C76.8227 82.821 76.356 83.2983 76.356 83.8874V85.4531L74.9274 84.6428C74.6852 84.506 74.3984 84.473 74.1317 84.5512C73.865 84.6293 73.6408 84.8121 73.5097 85.0583C73.2307 85.5723 73.4109 86.2161 73.9156 86.5086L75.2478 87.264L73.9156 88.0193C73.4103 88.3113 73.2299 88.9558 73.5097 89.4697C73.701 89.8213 74.0563 90.019 74.4225 90.019C74.5933 90.019 74.7668 89.9758 74.9267 89.8858L76.3547 89.0755V90.6412C76.3547 91.2311 76.822 91.7076 77.3973 91.7076C77.9725 91.7076 78.4399 91.2304 78.4399 90.6412V89.0755L79.8678 89.8858C80.0277 89.9758 80.2019 90.0197 80.3734 90.0197C80.7396 90.0197 81.0949 89.8206 81.2848 89.4703C81.5649 88.9546 81.3832 88.3057 80.8796 88.02V88.0193ZM100.042 87.2645L101.374 88.0198C101.878 88.3055 102.06 88.9551 101.78 89.4702C101.59 89.8217 101.234 90.0195 100.869 90.0195C100.697 90.0195 100.523 89.9763 100.363 89.8856L98.9345 89.0753V90.641C98.9345 91.2295 98.4678 91.7074 97.8926 91.7074C97.3173 91.7074 96.85 91.2302 96.85 90.641V89.0753L95.422 89.8856C95.2608 89.9763 95.0873 90.0195 94.9164 90.0195C94.5502 90.0195 94.1943 89.8217 94.0043 89.4702C93.7247 88.9561 93.9053 88.3116 94.4109 88.0198L95.7431 87.2638L94.4102 86.5084C93.9049 86.2164 93.7246 85.572 94.0043 85.0581C94.135 84.8115 94.3592 84.6283 94.6261 84.5501C94.893 84.4719 95.18 84.5053 95.422 84.6426L96.85 85.4529V83.8873C96.85 83.2981 97.3173 82.8208 97.8926 82.8208C98.4678 82.8208 98.9352 83.2981 98.9352 83.8873V85.4529L100.363 84.6426C100.605 84.5055 100.892 84.4723 101.159 84.5505C101.425 84.6287 101.649 84.8117 101.78 85.0581C102.06 85.5722 101.88 86.2171 101.374 86.5091L100.042 87.2645Z" fill="white"/>
<path fill-rule="evenodd" clip-rule="evenodd" d="M69.645 60.8002C69.645 61.6839 70.3614 62.4002 71.245 62.4002H80.7801C81.6638 62.4002 82.3801 61.6839 82.3801 60.8002V60.8002C82.3801 59.9165 81.6638 59.2002 80.7801 59.2002H71.245C70.3614 59.2002 69.645 59.9165 69.645 60.8002V60.8002Z" fill="#0E3AA1"/>
</g>
</svg>
