<svg width="270" height="120" viewBox="0 0 270 120" fill="none" xmlns="http://www.w3.org/2000/svg">
<g style="mix-blend-mode:darken">
<path d="M211.772 120C207.271 108.335 203.506 95.8394 202.391 88.3809C200.609 76.4592 203.282 68.4132 209.816 67.518C216.349 66.6239 221.166 78.002 221.166 78.002C221.166 78.002 223.946 61.8863 228.887 51.3498C233.829 40.8111 244.329 35.8538 251.125 44.2204C257.92 52.588 252.755 83.3367 252.755 83.3367C253.726 82.6934 261.886 77.4027 266.692 80.4796C271.859 83.788 269.666 94.525 268.731 99.0964C267.181 106.689 263.135 114.265 258.896 120" fill="#C3D4FA"/>
<path d="M230.029 117.5L241.422 58.8003" stroke="#376EEE" stroke-opacity="0.5" stroke-width="1.5" stroke-linecap="round" stroke-linejoin="round"/>
<path fill-rule="evenodd" clip-rule="evenodd" d="M94.9301 24H222.836V120H94.9301V24Z" fill="#E7EEFD"/>
<path opacity="0.8" fill-rule="evenodd" clip-rule="evenodd" d="M94.9301 18C94.9301 15.7909 96.7209 14 98.9301 14H114.912C117.122 14 118.912 15.7909 118.912 18V24H94.9301V18Z" fill="#C3D4FA"/>
<path d="M213.842 111H105.922V112H213.842V111Z" fill="#376EEE" fill-opacity="0.1"/>
<path d="M213.842 102H105.922V103H213.842V102Z" fill="#376EEE" fill-opacity="0.1"/>
<path d="M213.842 93H105.922V94H213.842V93Z" fill="#376EEE" fill-opacity="0.1"/>
<path fill-rule="evenodd" clip-rule="evenodd" d="M75.944 54H91.3612C92.0427 54 92.6962 54.281 93.1781 54.781C93.66 55.2811 93.9307 55.9594 93.9307 56.6667V59.3333C93.9307 60.0406 93.66 60.7189 93.1781 61.219C92.6962 61.719 92.0427 62 91.3612 62H75.944V54Z" fill="#92F1D3"/>
<path fill-rule="evenodd" clip-rule="evenodd" d="M75.944 62H77.9425V72H75.944V62Z" fill="#1ACC94"/>
<path fill-rule="evenodd" clip-rule="evenodd" d="M76.1439 72C81.2323 72 86.1123 74.0229 89.7103 77.6235C93.3084 81.2242 95.3297 86.1078 95.3297 91.2V120H56.958V91.2L56.9676 90.6C57.1234 85.6142 59.212 80.8848 62.7912 77.4131C66.3705 73.9414 71.1593 72.0001 76.1439 72V72Z" fill="#C3D4FA"/>
<path fill-rule="evenodd" clip-rule="evenodd" d="M89.7103 77.6235C86.1123 74.0229 81.2323 72 76.1439 72H104.723C109.707 72.0001 114.496 73.9414 118.075 77.4131C121.655 80.8848 123.743 85.6142 123.899 90.6L123.909 91.2V120H95.3297V91.2C95.3297 86.1078 93.3083 81.2242 89.7103 77.6235ZM75.944 72.001V72H76.1439C76.0772 72 76.0106 72.0003 75.944 72.001Z" fill="#8CACF6"/>
<path opacity="0.5" fill-rule="evenodd" clip-rule="evenodd" d="M76.1441 77.2002C79.8544 77.2002 83.4127 78.7218 86.0363 81.4302C88.6599 84.1386 90.1338 87.812 90.1338 91.6423V120H62.1544V91.6423L62.1624 91.1471C62.2868 87.4048 63.8143 83.8585 66.4228 81.2565C69.0313 78.6545 72.5168 77.2001 76.1441 77.2002Z" fill="#8CACF6"/>
<path d="M89.9337 106H69.9485V120H89.9337V106Z" fill="#0E3AA1"/>
<path d="M119.912 50.85L155.685 24L191.459 50.85H119.912Z" fill="#F0B616"/>
<path d="M119.912 50.8501H191.459V93.6001C191.459 94.7047 190.563 95.6001 189.459 95.6001H121.912C120.807 95.6001 119.912 94.7047 119.912 93.6001V50.8501Z" fill="#F0B616"/>
<path d="M128.855 38.8682C128.855 36.659 130.646 34.8682 132.855 34.8682H178.515C180.725 34.8682 182.515 36.659 182.515 38.8682V88.5682H128.855V38.8682Z" fill="white"/>
<rect x="137.798" y="61.7183" width="35.7736" height="4.475" fill="#C3D4FA" fill-opacity="0.4"/>
<path d="M119.912 50.8501V93.6001C119.912 94.7047 120.807 95.6001 121.912 95.6001H185.497L119.912 50.8501Z" fill="#FFDF85"/>
<rect x="137.798" y="43.8174" width="35.7736" height="4.475" fill="#C3D4FA" fill-opacity="0.4"/>
<rect x="137.798" y="52.7681" width="35.7736" height="4.475" fill="#C3D4FA" fill-opacity="0.4"/>
<path d="M191.492 51V93.75C191.492 94.8546 190.597 95.75 189.492 95.75H125.907L191.492 51Z" fill="#FFC72C"/>
<rect width="11.9956" height="2.99889" rx="1.49945" transform="matrix(0.706846 -0.707367 -0.706846 -0.707367 189.86 34.6064)" fill="#FFC72C"/>
<rect width="9.99349" height="2.99974" rx="1.49987" transform="matrix(0.939612 -0.342243 -0.341798 -0.939774 189.86 41.7646)" fill="#FFC72C"/>
</g>
</svg>
