<svg xmlns="http://www.w3.org/2000/svg" xmlns:xlink="http://www.w3.org/1999/xlink" width="80" height="80" viewBox="0 0 80 80">
    <defs>
        <circle id="a" cx="40" cy="40" r="40"/>
        <linearGradient id="b" x1="13.265%" x2="86.735%" y1="0%" y2="100%">
            <stop offset="0%" stop-color="#FFE557"/>
            <stop offset="100%" stop-color="#FFC72C"/>
        </linearGradient>
        <linearGradient id="c" x1="100%" x2="0%" y1="86.735%" y2="13.265%">
            <stop offset="0%" stop-color="#CEF2FD"/>
            <stop offset="100%" stop-color="#8BDCFB"/>
        </linearGradient>
        <linearGradient id="d" x1="0%" y1="0%" y2="100%">
            <stop offset="0%" stop-color="#2FB7EC"/>
            <stop offset="100%" stop-color="#4A90E2"/>
        </linearGradient>
        <linearGradient id="e" x1="0%" y1="42.969%" y2="57.031%">
            <stop offset="0%" stop-color="#CEF2FD"/>
            <stop offset="100%" stop-color="#EEF2F5"/>
        </linearGradient>
        <linearGradient id="f" x1="72.222%" x2="27.778%" y1="0%" y2="100%">
            <stop offset="0%" stop-color="#2FB7EC"/>
            <stop offset="100%" stop-color="#8BDCFB"/>
        </linearGradient>
        <linearGradient id="g" x1="100%" x2="0%" y1="44.444%" y2="55.556%">
            <stop offset="0%" stop-color="#8BDCFB"/>
            <stop offset="100%" stop-color="#2FB7EC"/>
        </linearGradient>
        <linearGradient id="h" x1="100%" x2="0%" y1="78.125%" y2="21.875%">
            <stop offset="0%" stop-color="#CEF2FD"/>
            <stop offset="100%" stop-color="#8BDCFB"/>
        </linearGradient>
        <linearGradient id="i" x1="53.125%" x2="46.875%" y1="100%" y2="0%">
            <stop offset="0%" stop-color="#8BDCFB"/>
            <stop offset="100%" stop-color="#8BDCFB" stop-opacity=".4"/>
        </linearGradient>
        <linearGradient id="j" x1="100%" x2="0%" y1="21.875%" y2="78.125%">
            <stop offset="0%" stop-color="#8BDCFB"/>
            <stop offset="100%" stop-color="#2FB7EC"/>
        </linearGradient>
    </defs>
    <g fill="none" fill-rule="evenodd">
        <use fill="#CEF2FD" xlink:href="#a"/>
        <path fill="#FFF" fill-rule="nonzero" d="M18.824 52.941h42.353v12.941H18.824z"/>
        <path fill="#FFF" fill-rule="nonzero" d="M18.824 40h14.118v25.882H18.824zM61.176 48.235h9.412v17.647h-9.412zM7.059 51.765h8.235v14.117H7.06z"/>
        <path fill="#FFF" fill-rule="nonzero" d="M47.059 28.235h14.118v30.588H47.059z"/>
        <path fill="#EEF2F5" fill-rule="nonzero" d="M52.941 30.588h2.353v4.706h-2.353zM56.471 30.588h2.353v4.706h-2.353zM21.176 42.353h2.353v4.706h-2.353zM21.176 48.235h2.353v4.706h-2.353zM24.706 42.353h2.353v4.706h-2.353zM52.941 36.471h2.353v4.706h-2.353zM56.471 36.471h2.353v4.706h-2.353z"/>
        <path fill="#FFE557" fill-rule="nonzero" d="M30.588 49.412h18.824v16.47H30.588z"/>
        <path fill="url(#b)" fill-rule="nonzero" d="M30.588 49.412h14.118v16.47H30.588z"/>
        <g fill="#FFF" fill-rule="nonzero" transform="translate(38.588 61.241)">
            <path d="M0 0h3.765v1.904H0z"/>
            <rect width="3.765" height="1" y="2.38" rx=".235"/>
        </g>
        <path fill="#F0B616" fill-rule="nonzero" d="M34.118 49.412h7.058v4.706l-1.167-.47-1.185.47-1.177-.47-1.176.47-1.177-.47-1.176.47zM45.882 49.412h2.353v4.76l-1.176-.476-1.177.476z"/>
        <g fill-rule="nonzero">
            <path fill="url(#c)" d="M0 0h8.235v7.059H0z" transform="translate(48.235 58.824)"/>
            <path fill="#2FB7EC" d="M54.118 58.824h2.353v7.058h-2.353zM49.412 58.824h3.53v2.352l-.883-.47-.73.47-1.035-.47-.882.47z"/>
        </g>
        <path fill="#8BDCFB" fill-rule="nonzero" d="M22.353 58.824h8.235v7.058h-8.235z"/>
        <g fill-rule="nonzero">
            <path fill="#4A90E2" d="M4.706 56.47h18.823v9.412H4.706z"/>
            <path fill="url(#d)" d="M2.353 0h9.412v9.412H2.353z" transform="translate(2.353 56.47)"/>
            <path fill="url(#e)" d="M2.353 0h9.412l-1.177 3.53H2.353z" transform="translate(2.353 56.47)"/>
            <path fill="url(#f)" d="M2.353 0v3.53H0z" opacity=".5" transform="translate(2.353 56.47)"/>
            <path fill="#8BDCFB" d="M10.588 63.53h3.529v1.176h-3.53z"/>
            <path fill="url(#g)" d="M12.941 0h9.412l-1.177 3.53h-9.411z" transform="matrix(-1 0 0 1 36.47 56.47)"/>
        </g>
        <g fill-rule="nonzero">
            <path fill="url(#h)" d="M0 0h18.824v14.118H0z" transform="translate(55.294 51.765)"/>
            <path fill="url(#i)" d="M15.294 0h3.53v14.118h-3.53z" transform="translate(55.294 51.765)"/>
            <path fill="#8BDCFB" d="M65.882 62.353h4.706v2.353h-4.706z"/>
            <path fill="#2FB7EC" fill-opacity=".5" d="M70.588 62.353h1.176v2.353h-1.176z"/>
        </g>
        <path fill="#2FB7EC" fill-opacity=".8" fill-rule="nonzero" d="M58.824 51.765h8.235v4.706L65.697 56l-1.383.47L62.94 56l-1.372.47-1.373-.47-1.372.47z"/>
        <path fill="url(#j)" fill-rule="nonzero" d="M71.765 51.765h3.53l-1.177 3.53h-3.53z" transform="matrix(-1 0 0 1 145.882 0)"/>
        <path fill="url(#f)" fill-rule="nonzero" d="M55.294 51.765v3.53h-2.353z"/>
        <path fill="#FFF" fill-rule="nonzero" d="M54.118 18.824c.65 0 1.176.526 1.176 1.176v3.53h-2.353V20c0-.65.527-1.176 1.177-1.176z"/>
        <rect width="16.471" height="2.353" x="45.882" y="25.882" fill="#FFF" fill-rule="nonzero" rx="1.176"/>
        <path fill="#FFF" fill-rule="nonzero" d="M49.412 23.53h9.412c.65 0 1.176.526 1.176 1.176v1.176H48.235v-1.176c0-.65.527-1.177 1.177-1.177zM15.294 44.706v7.059H7.06z"/>
        <path fill="#2FB7EC" d="M3.529 65.882h71.765v2.353H3.529z"/>
        <g fill-rule="nonzero" transform="translate(29.412 18.824)">
            <path fill="#099691" stroke="#1B807D" stroke-width="1.765" d="M11.176 24.678l6.68-6.215c2.28-1.887 3.615-4.636 3.615-7.597 0-5.508-4.604-9.984-10.295-9.984C5.486.882.882 5.358.882 10.866c0 2.912 1.292 5.621 3.507 7.507l.028.025 6.76 6.28z"/>
            <ellipse cx="11.216" cy="11.133" fill="#FFF" rx="2.98" ry="2.898"/>
        </g>
    </g>
</svg>
