<svg xmlns="http://www.w3.org/2000/svg" xmlns:xlink="http://www.w3.org/1999/xlink" width="56" height="56" viewBox="0 0 56 56">
    <defs>
        <circle id="a" cx="28" cy="28" r="28"/>
    </defs>
    <g fill="none" fill-rule="evenodd">
        <mask id="b" fill="#fff">
            <use xlink:href="#a"/>
        </mask>
        <use fill="#1D4BEA" xlink:href="#a"/>
        <path fill="#C3D4FA" d="M27.658-8.36l22.44-.04-7.914 21.152-7.934.015z" mask="url(#b)" transform="rotate(45 38.878 2.183)"/>
        <path stroke="#5685F1" stroke-linecap="round" stroke-linejoin="round" stroke-width="2.8" d="M21.097 28.795l9.835-19.6" mask="url(#b)"/>
        <path stroke="#FFF" stroke-linecap="round" stroke-linejoin="round" stroke-width="2.8" d="M8.45 28.795l22.482-19.6" mask="url(#b)"/>
        <path stroke="#5685F1" stroke-linecap="round" stroke-linejoin="round" stroke-width="2.8" d="M30.932 9.195l5.62 22.4" mask="url(#b)"/>
        <path stroke="#FFF" stroke-linecap="round" stroke-linejoin="round" stroke-width="2.8" d="M30.932 9.195l16.861 25.2" mask="url(#b)"/>
        <path fill="#5685F1" d="M16.881 25.995l31.264 7.787a2.8 2.8 0 0 1 2.1 3.112L48.21 51.1a2.809 2.809 0 0 1-3.3 2.356L5.537 46.1a2.8 2.8 0 0 1-2.254-3.212l2.055-12.283a2.804 2.804 0 0 1 2.09-2.256l9.453-2.354z" mask="url(#b)"/>
        <path fill="#FFF" d="M39.83 38.425c-.441 0-.851.354-.913.785l-.45 3.21c-.05.35-.22.654-.51.91-.292.258-.62.387-.984.387-.354 0-.641-.125-.86-.377-.22-.252-.304-.558-.253-.918l.271-1.948c.009-.39-.288-.693-.696-.693h-1.071a.953.953 0 0 0-.893.694l-.28 1.949c-.051.36-.222.666-.513.918-.29.252-.613.379-.967.379s-.643-.128-.866-.385a1.09 1.09 0 0 1-.262-.91l.603-4.26c.064-.415-.186-.849-.567-1.024 0 0-4.516-1.849-4.81-1.968-.298-.12-.636.15-.752.599l-.276 1.071a.993.993 0 0 0 .577 1.134l3.027 1.23-.456 3.22c-.153 1.08.104 2.003.771 2.768.667.766 1.547 1.148 2.64 1.148 1.01-.001 1.93-.336 2.765-1.005.665.668 1.497 1.002 2.496 1.001 1.093 0 2.082-.384 2.965-1.151.884-.767 1.403-1.69 1.556-2.77l.485-3.457c.042-.296-.284-.538-.725-.538l-1.053.001z" mask="url(#b)" transform="rotate(11 33.182 40.745)"/>
        <circle cx="30.212" cy="9.895" r="4.9" fill="#C3D4FA" fill-rule="nonzero" mask="url(#b)"/>
        <circle cx="30.1" cy="9.895" r="2.1" fill="#1D4BEA" fill-rule="nonzero" mask="url(#b)"/>
        <path fill="none" d="M15.764 26.089l2.81-.002-.012 19.602-2.81.002z" mask="url(#b)" transform="rotate(10 17.163 35.889)"/>
        <path fill="#C3D4FA" fill-rule="nonzero" d="M16.843 30.757l-2.054 12.278a2.804 2.804 0 0 1-2.09 2.256l-9.454 2.355 2.97-21.651 8.37 1.549a2.8 2.8 0 0 1 2.258 3.213z" mask="url(#b)" transform="rotate(180 10.063 36.82)"/>
    </g>
</svg>
