<svg xmlns="http://www.w3.org/2000/svg" xmlns:xlink="http://www.w3.org/1999/xlink" width="56" height="56" viewBox="0 0 56 56">
    <defs>
        <circle id="a" cx="28" cy="28" r="28"/>
        <linearGradient id="c" x1="100%" x2="0%" y1="86.735%" y2="13.265%">
            <stop offset="0%" stop-color="#8BDCFB"/>
            <stop offset="100%" stop-color="#2FB7EC"/>
        </linearGradient>
        <linearGradient id="d" x1="27.778%" x2="72.222%" y1="0%" y2="100%">
            <stop offset="0%" stop-color="#EEF2F5"/>
            <stop offset="100%" stop-color="#C3D4FA" stop-opacity=".4"/>
        </linearGradient>
    </defs>
    <g fill="none" fill-rule="evenodd">
        <mask id="b" fill="#fff">
            <use xlink:href="#a"/>
        </mask>
        <use fill="#FFF" xlink:href="#a"/>
        <use fill="#C3D4FA" fill-opacity=".6" xlink:href="#a"/>
        <path fill="#FFF" fill-rule="nonzero" d="M14 28h28v16H14zM28 16l14 12H14z" mask="url(#b)"/>
        <path fill="#EEF2F5" fill-rule="nonzero" d="M21 37h14v7H21z" mask="url(#b)"/>
        <path fill="#AFC7D1" fill-opacity=".5" fill-rule="nonzero" d="M28 31a3 3 0 1 1 0-6 3 3 0 0 1 0 6z" mask="url(#b)"/>
        <path fill="#C3D4FA" fill-rule="nonzero" d="M42 31L28 19 14 31v-3l14-12 14 12z" mask="url(#b)"/>
        <path fill="#5685F1" fill-rule="nonzero" d="M44.653 30.802L28 16 11.347 30.802A1.569 1.569 0 0 1 9 30.5l-.013-.02a2 2 0 0 1 .369-2.633L28 12l18.644 15.847a2 2 0 0 1 .369 2.634L47 30.5a1.569 1.569 0 0 1-2.347.302zM39 38h7v6h-7z" mask="url(#b)"/>
        <path fill="url(#c)" d="M10 38h7v6h-7z" mask="url(#b)"/>
        <path fill="url(#d)" fill-rule="nonzero" d="M29 35h6v9h-6z" mask="url(#b)"/>
        <path fill="#C3D4FA" fill-rule="nonzero" d="M21 35h14v2H21z" mask="url(#b)"/>
    </g>
</svg>
