<svg width="24" height="24" viewBox="0 0 24 24" fill="none" xmlns="http://www.w3.org/2000/svg">
<path fill-rule="evenodd" clip-rule="evenodd" d="M23.6269 21.8256L17.4913 15.69C18.7548 14.0456 19.506 11.987 19.506 9.75298C19.506 4.36656 15.1394 0 9.75298 0C4.36656 0 0 4.36656 0 9.75298C0 15.1394 4.36656 19.506 9.75298 19.506C11.987 19.506 14.0456 18.7548 15.69 17.4913L21.8256 23.6269C22.323 24.1244 23.1295 24.1244 23.6269 23.6269C24.1244 23.1295 24.1244 22.323 23.6269 21.8256ZM17.0677 9.75298C17.0677 13.7928 13.7928 17.0677 9.75298 17.0677C5.71316 17.0677 2.43824 13.7928 2.43824 9.75298C2.43824 5.71316 5.71316 2.43824 9.75298 2.43824C13.7928 2.43824 17.0677 5.71316 17.0677 9.75298Z" fill="#376EEE"/>
</svg>
