<svg width="1024" height="128" viewBox="0 0 1024 128" fill="none" xmlns="http://www.w3.org/2000/svg">
<g style="mix-blend-mode:darken">
<path d="M0 4C0 1.79086 1.79086 0 4 0H1020C1022.21 0 1024 1.79086 1024 4V128H0V4Z" fill="#C3D4FA"/>
<rect y="104" width="1024" height="24" fill="white"/>
<path d="M336 42C336 41.4477 336.448 41 337 41H689C689.552 41 690 41.4477 690 42V127H336V42Z" stroke="#0E3AA1" stroke-width="2" stroke-linecap="round" stroke-linejoin="round"/>
<path d="M569.928 128C565.424 116.335 561.656 103.839 560.54 96.3809C558.757 84.4592 561.432 76.4132 567.97 75.518C574.508 74.6239 579.329 86.002 579.329 86.002C579.329 86.002 582.111 69.8863 587.056 59.3498C592.002 48.8111 602.509 43.8538 609.31 52.2204C616.11 60.588 610.941 91.3367 610.941 91.3367C611.913 90.6934 620.079 85.4027 624.889 88.4796C630.059 91.788 627.864 102.525 626.929 107.096C625.378 114.689 621.329 122.265 617.087 128" fill="#8CACF6"/>
<path fill-rule="evenodd" clip-rule="evenodd" d="M453 32H581V128H453V32Z" fill="#E7EEFD"/>
<path d="M467 128V101H482L499 128H467Z" fill="#C3D4FA"/>
<path opacity="0.8" fill-rule="evenodd" clip-rule="evenodd" d="M453 24C453 22.8954 453.895 22 455 22H475C476.105 22 477 22.8954 477 24V32H453V24Z" fill="#8CACF6"/>
<path d="M572 119H464V120H572V119Z" fill="#376EEE" fill-opacity="0.1"/>
<path d="M572 110H464V111H572V110Z" fill="#376EEE" fill-opacity="0.1"/>
<path d="M572 101H464V102H572V101Z" fill="#376EEE" fill-opacity="0.1"/>
<path fill-rule="evenodd" clip-rule="evenodd" d="M434 70H436V80H434V70Z" fill="#97B4F7"/>
<path fill-rule="evenodd" clip-rule="evenodd" d="M434.2 80C439.292 80 444.176 82.0229 447.776 85.6235C451.377 89.2242 453.4 94.1078 453.4 99.2V128H415V99.2L415.01 98.6C415.165 93.6142 417.256 88.8848 420.838 85.4131C424.419 81.9414 429.212 80.0001 434.2 80Z" fill="white"/>
<path fill-rule="evenodd" clip-rule="evenodd" d="M447.776 85.6235C444.176 82.0229 439.292 80 434.2 80H462.8C467.788 80.0001 472.581 81.9414 476.162 85.4131C479.744 88.8848 481.835 93.6142 481.99 98.6L482 99.2V128H453.4V99.2C453.4 94.1078 451.377 89.2242 447.776 85.6235ZM434 80.001V80H434.2C434.133 80 434.067 80.0003 434 80.001Z" fill="#0E3AA1"/>
<path fill-rule="evenodd" clip-rule="evenodd" d="M434.2 85.2002C437.913 85.2002 441.474 86.7218 444.1 89.4302C446.725 92.1386 448.2 95.812 448.2 99.6423V128H420.2V99.6423L420.208 99.1471C420.333 95.4048 421.861 91.8585 424.472 89.2565C427.082 86.6545 430.57 85.2001 434.2 85.2002Z" fill="#C3D4FA"/>
<path d="M448 114H428V128H448V114Z" fill="#8CACF6"/>
<rect width="12" height="3" rx="1.5" transform="matrix(0.707107 -0.707107 -0.707107 -0.707107 548 31.6064)" fill="#FFC72C"/>
<rect width="10" height="3" rx="1.5" transform="matrix(0.939693 -0.34202 -0.34202 -0.939693 548 38.7646)" fill="#FFC72C"/>
<path d="M662.167 28.2375C664.14 27.8897 665.416 28.5854 665.764 29.3971C666.112 30.4406 665.3 31.3682 662.515 32.1799C660.427 32.8756 657.294 33.9192 653.349 36.2382C651.377 37.3977 650.449 39.6008 651.145 41.688C651.493 42.6156 651.841 43.5432 652.305 44.5868C652.537 45.1665 652.885 45.7463 653.117 46.2101C656.134 40.9923 659.151 38.0935 661.471 36.9339C663.211 36.1223 664.72 36.4701 665.3 37.1659C665.996 38.0935 665.416 39.137 663.095 40.6444C661.587 41.572 659.499 43.0794 657.062 45.3984C655.322 47.0217 655.206 49.5727 656.714 51.312C657.642 52.4715 658.686 53.631 659.847 54.6746C661.123 49.6886 662.979 46.6739 664.72 45.1665C666.112 44.007 667.736 44.007 668.549 44.5868C669.477 45.2825 669.361 46.442 667.504 48.5291C666.228 49.9206 662.515 52.8194 663.327 56.066C663.559 57.2255 664.952 58.8489 665.532 59.4287C666.228 56.298 667.272 54.2108 668.316 52.9353C669.477 51.6598 670.869 51.4279 671.681 51.8917C672.609 52.4715 669.477 55.7182 669.245 58.9648C669.129 61.8636 673.886 65.4581 673.886 65.4581C673.886 65.4581 678.759 62.9072 678.643 59.0807C678.643 57.6893 675.51 52.4715 676.438 51.8917C677.134 51.4279 678.643 51.6598 679.687 53.0513C680.731 54.3267 681.891 57.1096 682.587 60.2403C683.284 59.7765 685.836 57.8053 685.256 55.3703C684.328 51.8917 681.891 50.1525 680.731 48.6451C678.991 46.558 678.759 45.2825 679.803 44.7027C680.615 44.123 682.123 44.2389 683.516 45.5144C685.256 47.0218 686.996 50.1525 688.157 55.1384C689.201 54.0949 693.378 50.2684 691.057 45.9782C689.433 42.9634 686.648 42.1518 685.024 41.1082C682.703 39.4849 682.123 38.3254 682.819 37.5137C683.4 36.818 684.908 36.4701 686.648 37.3977C688.969 38.5573 691.869 41.572 694.77 47.0218C695.118 46.442 695.35 45.9782 695.582 45.3984C696.046 44.4708 696.394 43.5432 696.742 42.6156C697.438 40.5284 696.626 38.3254 694.538 37.0499C690.709 34.6149 687.576 33.4554 685.488 32.6437C682.703 31.6001 681.891 30.6725 682.239 29.7449C682.587 28.9332 683.98 28.2375 685.836 28.7013C688.621 29.2811 692.914 31.8321 697.787 37.1659C698.135 34.499 698.251 28.0056 692.798 26.0344C690.941 25.3387 689.201 25.4547 687.925 25.3387C685.024 25.1068 683.864 24.4111 683.748 23.4835C683.632 22.6718 684.56 21.8602 686.416 21.8602C688.157 21.8602 690.709 22.324 693.958 23.5994C690.361 19.0773 685.14 16.7583 681.659 17.1061C678.295 17.5699 676.322 18.9614 674.93 20.2368C674.35 20.7007 673.538 20.7007 673.073 20.2368C671.681 18.8454 669.709 17.454 666.344 16.8742C662.863 16.2945 656.482 18.1497 654.162 22.9037C658.454 22.4399 664.72 21.2804 664.14 23.1356C663.908 23.9473 662.863 24.8749 659.963 24.8749C656.018 24.8749 653.117 24.9909 651.493 27.7737C650.333 29.7449 649.637 33.6873 649.869 36.3542C655.09 31.1363 659.267 28.8173 662.167 28.2375Z" fill="#1ACC94"/>
<path d="M638 73.8367C605.861 45.7776 598 127 598 127" stroke="#00AB75" stroke-width="2" stroke-miterlimit="10" stroke-linecap="round"/>
<path d="M674 21.8151C665.669 -6.49317 597.058 4.17678 590 127" stroke="#00AB75" stroke-width="2" stroke-miterlimit="10" stroke-linecap="round"/>
<path d="M638.614 86.3293C639.31 86.5612 639.426 87.4888 638.498 89.2281C637.918 90.3876 637.106 92.011 636.526 94.33C636.062 95.9533 636.874 97.4607 638.498 98.0405C639.542 98.3884 640.587 98.6203 641.631 98.8522C640.587 95.3736 640.587 92.9386 641.051 91.4312C641.515 90.1557 642.443 89.576 643.139 89.576C643.951 89.576 644.299 90.3876 643.951 92.3588C643.719 93.6343 642.559 96.881 644.183 98.3883C644.763 98.9681 646.156 99.4319 646.736 99.5479C646.04 97.4607 645.924 95.8374 646.04 94.6779C646.272 93.4024 647.084 92.8227 647.664 92.8227C648.476 92.8227 647.664 95.9533 648.824 97.9245C649.752 99.6638 654.045 100.012 654.045 100.012C654.045 100.012 656.134 96.649 654.625 94.4459C654.045 93.6343 650.333 91.7791 650.681 91.0834C650.913 90.5036 651.957 90.1557 653.117 90.5036C654.161 90.8515 656.018 92.1269 657.526 93.7503C657.758 93.1705 658.57 91.0833 657.294 89.8078C655.438 88.0686 653.349 87.9527 652.073 87.6048C650.217 87.025 649.636 86.3293 649.985 85.6336C650.217 85.0538 651.261 84.4741 652.537 84.706C654.161 84.9379 656.366 86.2134 658.918 88.7643C659.266 87.7208 660.311 83.8943 657.294 82.271C655.206 81.1114 653.117 81.6912 651.841 81.5753C649.868 81.4593 649.056 80.9955 649.172 80.2998C649.288 79.7201 650.101 78.9083 651.493 78.7924C653.349 78.6764 656.25 79.2562 659.963 81.4593C659.963 80.9955 659.963 80.6476 659.847 80.1838C659.731 79.4881 659.615 78.7924 659.498 78.0967C659.15 76.5893 657.874 75.5457 656.134 75.5457C652.885 75.5457 650.565 76.0096 649.056 76.3574C646.968 76.8212 646.156 76.5893 646.04 75.7777C645.924 75.1979 646.504 74.2703 647.896 73.8064C649.868 73.1107 653.349 72.9948 658.338 74.3862C657.526 72.6469 655.322 68.7046 651.261 69.6322C649.868 69.9801 648.94 70.6758 648.128 71.0236C646.272 71.9513 645.344 71.9512 644.995 71.4874C644.647 71.0236 644.879 70.2119 646.04 69.5162C647.084 68.8205 648.824 68.2408 651.261 67.661C647.432 66.2696 643.371 66.8493 641.399 68.4727C639.542 69.9801 638.846 71.6034 638.498 72.8788C638.382 73.3427 637.802 73.6905 637.338 73.5745C636.062 73.2267 634.321 73.1107 632.001 74.0384C629.68 74.966 626.432 78.5605 626.78 82.155C629.216 80.2998 632.581 77.1691 632.929 78.5605C633.045 79.1403 632.813 80.0679 631.073 81.1114C628.636 82.5029 626.896 83.7783 627.012 85.9814C627.012 87.6048 628.056 90.1557 629.1 91.6631C630.26 86.6772 632.001 83.6624 633.509 82.271C634.553 81.3433 635.598 81.2274 636.178 81.5753C636.758 82.0391 636.642 82.9667 635.249 84.4741C634.205 85.6336 632.697 87.4888 631.189 90.2717C630.376 91.7791 630.609 93.4024 631.769 94.33C632.349 94.7938 632.813 95.1417 633.509 95.6055C633.857 95.8374 634.205 96.0693 634.669 96.3012C634.553 92.011 635.365 89.2281 636.294 87.6048C636.874 86.4453 638.034 86.0974 638.614 86.3293Z" fill="#1ACC94"/>
<path d="M404.006 128C406.56 125.447 408.156 121.936 408.156 118.043C408.156 110.255 401.836 104 394.111 104C386.386 104 380.065 110.319 380.065 118.043C380.065 121.936 381.661 125.447 384.215 128H404.006Z" fill="#FFE380"/>
<path d="M409.803 126.158L406.866 123.725L405.207 126.286C407.633 126.286 407.696 127.499 410.059 127.562C410.314 127.179 410.314 126.541 409.803 126.158Z" fill="#FFC72C"/>
<path d="M405.283 126.213L404.006 128H409.178C409.561 128 409.88 127.809 410.071 127.553C407.773 127.426 407.645 126.213 405.283 126.213Z" fill="#FFC72C"/>
<path d="M384.726 126.213C382.172 126.213 382.172 127.489 379.619 127.489C377.065 127.489 377.065 126.213 374.575 126.213C375.341 127.298 376.618 128 378.087 128H390.983L390.281 127.489C390.153 127.489 389.961 127.489 389.834 127.489C387.28 127.489 387.28 126.213 384.726 126.213Z" fill="#FFC72C"/>
<path d="M378.15 120.468C375.851 120.468 374 122.128 374 124.234C374 124.936 374.255 125.638 374.638 126.213C377.128 126.277 377.071 127.625 379.625 127.625C382.179 127.625 382.236 126.213 384.789 126.213C387.343 126.213 387.343 127.49 389.897 127.49C390.088 127.49 390.216 127.49 390.344 127.49L380.257 120.468H378.15Z" fill="#FFC72C"/>
<path d="M376.234 120.851L375.276 119.192" stroke="#1B4278" stroke-miterlimit="10" stroke-linecap="round" stroke-linejoin="round"/>
<path d="M377.511 120.404V118.617" stroke="#1B4278" stroke-miterlimit="10" stroke-linecap="round" stroke-linejoin="round"/>
<path d="M401.771 121.043C401.963 120.66 403.368 117.341 401.516 114.021C400.175 111.532 397.558 110.064 394.94 110.064C390.727 110.064 386.96 113.83 386.96 118.043C386.96 121.553 389.833 124.426 393.344 124.426C396.153 124.426 398.452 122.128 398.452 119.319C398.452 117.085 396.6 115.234 394.366 115.234C392.578 115.234 391.11 116.702 391.11 118.489C391.11 119.958 392.259 121.106 393.727 121.106C394.876 121.106 395.834 120.149 395.834 119C395.834 118.17 395.068 117.213 394.174 117.341C393.536 117.404 393.025 117.915 392.833 118.681" stroke="#FFC72C" stroke-miterlimit="10" stroke-linecap="round" stroke-linejoin="round"/>
<rect x="411" y="126" width="6" height="2" rx="1" fill="#0E3AA1"/>
<path fill-rule="evenodd" clip-rule="evenodd" d="M569.097 114.558L570.892 128H581.662L583.816 114.558H569.097Z" fill="white"/>
<path fill-rule="evenodd" clip-rule="evenodd" d="M566.583 111.805L567.779 115.395H584.971L586.088 111.805H566.583Z" fill="white"/>
<path fill-rule="evenodd" clip-rule="evenodd" d="M565 107.378C565 107.378 566.915 105.823 567.633 106.421C568.351 107.019 570.624 111.806 570.624 111.806H573.377C573.377 111.806 568.47 100.557 565 107.378Z" fill="#0E3AA1"/>
<path fill-rule="evenodd" clip-rule="evenodd" d="M578.284 111.806C578.284 111.806 583.31 105.344 588.336 104.387C588.336 104.387 586.301 108.934 581.395 111.806H578.284Z" fill="#0E3AA1"/>
<path fill-rule="evenodd" clip-rule="evenodd" d="M569.351 92.5396C569.351 92.5396 568.032 104.745 572.903 111.806H574.932C574.932 111.806 572.497 99.7195 569.351 92.5396Z" fill="#0E3AA1"/>
<path fill-rule="evenodd" clip-rule="evenodd" d="M573.203 85C573.203 85 572.365 104.027 574.759 111.805H577.092C577.092 111.805 579.545 97.6846 573.203 85Z" fill="#0E3AA1"/>
<path fill-rule="evenodd" clip-rule="evenodd" d="M576.667 111.805C579.509 103.322 579.24 90.6245 589.292 85.8379C583.066 92.1172 587.497 100.916 578.283 111.805H576.667Z" fill="#0E3AA1"/>
<path d="M434 62H443.5L447 66L443.5 70H434V62Z" fill="#8CACF6"/>
<path d="M478 52L513.8 26L549.6 52H478Z" fill="#FFDC7B"/>
<path d="M478 52H549.6V94C549.6 95.1046 548.705 96 547.6 96H480C478.895 96 478 95.1046 478 94V52Z" fill="#FFDC7B"/>
<path d="M486.95 38.8682C486.95 37.7636 487.845 36.8682 488.95 36.8682H538.65C539.754 36.8682 540.65 37.7636 540.65 38.8682V90.5682H486.95V38.8682Z" fill="white"/>
<rect x="495.9" y="63.7183" width="24" height="3" fill="#0E3AA1"/>
<path d="M478 52V94C478 95.1046 478.895 96 480 96H543.633L478 52Z" fill="#FFE380"/>
<rect x="495.9" y="45.8174" width="35.8" height="3" fill="#0E3AA1"/>
<rect x="495.9" y="54.7681" width="35.8" height="3" fill="#0E3AA1"/>
<path d="M549.633 52V94C549.633 95.1046 548.738 96 547.633 96H484L549.633 52Z" fill="#FFC72C"/>
</g>
</svg>
