<svg width="242" height="127" viewBox="0 0 242 127" fill="none" xmlns="http://www.w3.org/2000/svg">
<path fill-rule="evenodd" clip-rule="evenodd" d="M1.15883 127C1.15883 127 -4.26303 80.1919 42.059 88.8167C88.3807 97.4395 79.9273 79.5993 111.435 67.3306C124.477 62.2525 136.153 63.7378 142.014 64.7606C163.485 68.5036 165.066 81.1325 181.015 80.0778C194.021 79.218 196.859 70.5593 209.798 72.6949C212.444 73.1312 221.796 74.8417 229.78 84.3232C242.909 99.9175 241.536 123.712 241.305 127H1.15883Z" fill="#D9F2FD"/>
<path d="M32.4647 10.4783H212.129V112C212.129 112.96 211.351 113.739 210.391 113.739H34.2027C33.2429 113.739 32.4647 112.96 32.4647 112V10.4783Z" fill="url(#paint0_linear)"/>
<path d="M32.4647 10.4782H212.129V2.43469C212.129 1.47419 211.351 0.695557 210.391 0.695557H34.2027C33.2429 0.695557 32.4647 1.47419 32.4647 2.43469V10.4782Z" fill="#E6F7FF"/>
<path d="M43.1099 23.9566C43.1099 23.3564 43.5963 22.8696 44.1961 22.8696H200.398C200.997 22.8696 201.484 23.3564 201.484 23.9566V113.739H43.1099V23.9566Z" fill="#F4F4F4"/>
<path d="M192.931 32H51.0693C50.4787 32 50 32.1472 50 32.3288V79.6712C50 79.8528 50.4787 80 51.0693 80H192.931C193.521 80 194 79.8528 194 79.6712V32.3288C194 32.1472 193.521 32 192.931 32Z" fill="white"/>
<path d="M100 87.2852C100 87.1278 100.146 87 100.327 87H143.673C143.854 87 144 87.1278 144 87.2852V114H100V87.2852Z" fill="white"/>
<path d="M50 87.2852C50 87.1278 50.1464 87 50.3267 87H93.6733C93.8536 87 94 87.1278 94 87.2852V114H50V87.2852Z" fill="white"/>
<path d="M150 87.2872C150 87.1287 150.146 87 150.327 87H193.673C193.854 87 194 87.1287 194 87.2872V114H150V87.2872Z" fill="white"/>
<mask id="mask0" mask-type="alpha" maskUnits="userSpaceOnUse" x="92" y="13" width="40" height="43">
<path fill-rule="evenodd" clip-rule="evenodd" d="M131.636 33.1273C131.636 43.8306 122.905 52.5077 112.142 52.5077C110.933 52.5077 109.747 52.3969 108.599 52.1851L99.6374 55.6958L100.274 48.5964L100.491 48.6719C95.7319 45.1386 92.6425 39.4884 92.6425 33.1273C92.6425 22.4214 101.376 13.7393 112.142 13.7393C122.905 13.7393 131.636 22.4214 131.636 33.1273Z" fill="url(#paint1_linear)"/>
</mask>
<g mask="url(#mask0)">
</g>
<path d="M108 48.1255C111.026 46.1042 116.748 43.8254 122 42C126.033 43.5895 131.136 45.2308 136 48.1255C136 52.5 134.809 57.2589 134.249 59.5C133.083 64.1663 128.999 67.6663 121.999 70C114.999 67.6663 110.915 64.1663 109.749 59.5C109.186 57.2503 108 52.5011 108 48.1255Z" fill="#65BD37"/>
<path fill-rule="evenodd" clip-rule="evenodd" d="M129.177 51.4756C129.079 51.3588 128.957 51.2638 128.82 51.1967C128.683 51.1296 128.534 51.092 128.381 51.0862C128.229 51.0805 128.077 51.1066 127.936 51.1631C127.794 51.2196 127.666 51.3051 127.559 51.4142L120.078 59.0647L116.578 55.4785C116.466 55.3642 116.333 55.2734 116.185 55.2117C116.038 55.15 115.88 55.1185 115.72 55.1192C115.56 55.1199 115.402 55.1528 115.255 55.2158C115.109 55.2788 114.976 55.3707 114.865 55.486C114.636 55.7249 114.508 56.0434 114.508 56.3747C114.508 56.706 114.637 57.0244 114.866 57.263L120.078 62.6788L129.116 53.2687C129.591 52.7733 129.617 52.0011 129.177 51.4756V51.4756Z" fill="white"/>
<path d="M37.8466 7.69565C38.8665 7.69565 39.6932 6.86835 39.6932 5.84783C39.6932 4.8273 38.8665 4 37.8466 4C36.8268 4 36 4.8273 36 5.84783C36 6.86835 36.8268 7.69565 37.8466 7.69565Z" fill="#30B7ED" fill-opacity="0.35"/>
<path d="M43.4951 7.69565C44.5149 7.69565 45.3417 6.86835 45.3417 5.84783C45.3417 4.8273 44.5149 4 43.4951 4C42.4752 4 41.6484 4.8273 41.6484 5.84783C41.6484 6.86835 42.4752 7.69565 43.4951 7.69565Z" fill="#30B7ED" fill-opacity="0.5"/>
<path d="M49.1435 7.69565C50.1633 7.69565 50.9901 6.86835 50.9901 5.84783C50.9901 4.8273 50.1633 4 49.1435 4C48.1236 4 47.2969 4.8273 47.2969 5.84783C47.2969 6.86835 48.1236 7.69565 49.1435 7.69565Z" fill="#30B7ED" fill-opacity="0.75"/>
<defs>
<linearGradient id="paint0_linear" x1="122.297" y1="10.4783" x2="122.297" y2="113.739" gradientUnits="userSpaceOnUse">
<stop stop-color="#2FB7EC"/>
<stop offset="1" stop-color="#30A3ED"/>
</linearGradient>
<linearGradient id="paint1_linear" x1="104.403" y1="18.0884" x2="129.227" y2="62.0776" gradientUnits="userSpaceOnUse">
<stop stop-color="#FFE354"/>
<stop offset="0.385417" stop-color="#FFCA30"/>
</linearGradient>
</defs>
</svg>
