<svg xmlns="http://www.w3.org/2000/svg" width="144" height="53" fill="none" viewBox="0 0 144 53">
    <path fill="#C3D4FA" d="M48.91 16.19l-4.288-.959c-.541-.12-1.078.222-1.195.764L38.162 40.29c-.128.59.294 1.16.896 1.209l3.733.306c.49.04.935-.28 1.053-.757l5.82-23.643c.133-.544-.206-1.093-.754-1.215z"/>
    <path fill="#C4CDD5" d="M67.848 12.887c-3.008-.376-13.528 3.395-18.411 5.328L44.423 38.82l34.785 10.577c.6.339 2.147.908 3.526.47 1.379-.44 1.985-1.437 2.115-1.88.992.078 3.197.015 4.074-.863.877-.877.992-2.611.94-3.368 1.567.235 2.664-.079 3.918-.94 1.002-.69 1.2-2.586 1.175-3.448.888.079 2.804-.172 3.368-1.802.706-2.037-.078-3.682-.705-4.622-.501-.752-16.348-12.692-24.208-18.568-.601-.34-2.555-1.112-5.563-1.489z"/>
    <path fill="#5A7385" fill-rule="evenodd" d="M82.11 30.838c.178-.214.514-.255.748-.092 1.704 1.186 4.344 3.01 6.728 4.628 2.4 1.63 4.5 3.02 5.148 3.365.255.135.342.433.193.666-.149.232-.476.31-.73.175-.716-.38-2.878-1.816-5.25-3.425-2.388-1.62-5.032-3.447-6.737-4.635-.235-.163-.28-.469-.1-.682zM78.087 35.849c.156-.213.467-.266.694-.12l11.002 7.066c.227.146.285.437.129.649-.156.212-.466.266-.693.12l-11.003-7.067c-.227-.146-.284-.436-.129-.648zM79.084 43.921c.157-.28.478-.359.718-.176l4.962 3.787c.24.183.308.559.151.84-.156.28-.478.359-.717.176l-4.963-3.788c-.24-.183-.307-.558-.15-.839z" clip-rule="evenodd"/>
    <path fill="#EEF2F5" d="M98.245 15.549L143.998.27V29.26c-11.229 1.802-35.005 5.469-40.269 5.72l-.686-2.43-4.268 3.135c-.177-.653-.64-2.084-1.079-2.586-.439-.501-2.22-1.932-3.055-2.585L81.087 20.17c-.966-.313-3.338-.893-5.093-.705-2.193.235-8.07 3.682-10.185 4.544-2.115.862-3.447-.47-4.622-.862-.94-.313 5.301-5.197 8.54-7.6 6.382-2.879 10.985-2.743 13.657-2.664l.053.001c2.664.079 11.439 4.936 12.849 4.936 1.128 0 2.13-.261 2.49-.392l-.531-1.88z"/>
    <path fill="#C3D4FA" d="M142.683.711L99.151 15.247c-.507.169-.791.706-.646 1.22l.272.962 4.267 15.12.47 1.665c.126.447.533.75.997.714 6.345-.5 27.63-3.773 38.653-5.535.485-.077.836-.495.836-.986V1.66c0-.683-.669-1.165-1.317-.949z"/>
    <path fill="#EEF2F5" d="M53.745 41.405l1.018.549c.758-.601 2.602-1.865 3.918-2.116 1.645-.313 3.134-.783 3.525 0 .392.784 0 2.742 0 2.977 0 .236 5.014-4.622 6.503-4.779 1.489-.156 2.429-.078 2.742.627.264.595.25 3.026-.652 4.432 1.567-1.333 4.938-3.772 6.215-2.708 1.504 1.253.052 4.544-.862 6.032 1.149-1.07 3.62-3.024 4.309-2.272.862.94.47 3.761-1.019 5.406-1.488 1.646-2.115 3.056-3.682 3.134-1.567.078-2.429-1.097-2.899-2.115-.679.679-2.46 1.786-4.152.783-1.692-1.003-2.272-2.611-2.35-3.29-.967.626-3.228 1.692-4.544.94-1.317-.752-2.116-2.037-2.35-2.586-.889.183-2.868.36-3.683-.391-1.019-.94-2.037-3.056-2.037-4.623z"/>
    <path fill="#326BEE" d="M43.835 13.158L1.295.046C.65-.153 0 .328 0 1v39.796c0 .52.398.954.917.993 9.197.697 27.002 1.257 35.729 1.475.47.012.883-.305.994-.762l6.872-28.152c.126-.515-.171-1.037-.677-1.193z"/>
    <circle cx="32.514" cy="38.586" r="1.88" fill="#C3D4FA"/>
</svg>
