<svg xmlns="http://www.w3.org/2000/svg" width="164" height="89" fill="none" viewBox="0 0 164 89">
    <path fill="#174479" fill-rule="evenodd" d="M30.372 53.536H63.44c.342 0 .62-.253.62-.565 0-.313-.278-.566-.62-.566h-33.07c-.341 0-.619.253-.619.566 0 .312.278.565.62.565zM29.612 41.47h34.212c.338 0 .613-.253.613-.565 0-.312-.275-.565-.613-.565H29.612c-.339 0-.614.253-.614.565 0 .312.275.566.614.566zM8.022 35.44c.168 0 .336-.07.458-.206.229-.255.21-.648-.044-.879l-4.42-4.033c-.254-.23-.644-.212-.872.044-.229.254-.21.648.044.878l4.42 4.034c.119.108.266.161.414.161zM10.247 33.554c.059 0 .119-.008.177-.023.348-.09.55-.422.452-.74l-1.71-5.585c-.097-.32-.46-.508-.806-.415-.347.09-.549.422-.451.74l1.71 5.585c.081.265.343.438.628.438z" clip-rule="evenodd"/>
    <mask id="prefix__a" width="8" height="4" x="0" y="35" maskUnits="userSpaceOnUse">
        <path fill="#fff" fill-rule="evenodd" d="M7.13 35.648H0v3.14h7.13v-3.14z" clip-rule="evenodd"/>
    </mask>
    <g mask="url(#prefix__a)">
        <path fill="#174479" fill-rule="evenodd" d="M6.508 38.788c.262 0 .506-.168.592-.432.105-.326-.075-.677-.402-.783L.813 35.678c-.325-.104-.677.075-.783.402-.106.326.074.677.402.783l5.886 1.895c.063.02.127.03.19.03z" clip-rule="evenodd"/>
    </g>
    <path fill="#C3D4FA" fill-rule="evenodd" d="M156.837 88.222H38.455v-59.19h118.382v59.19z" clip-rule="evenodd"/>
    <path fill="#FEFEFE" fill-rule="evenodd" d="M152.312 88.222h-29.03V38.456h29.03v49.766zM114.988 68.616h-69.37V38.078h69.37v30.538z" clip-rule="evenodd"/>
    <path fill="#5685F1" fill-rule="evenodd" d="M116.12 70.501H44.488v-1.508h71.632v1.508zM147.412 64.657c0 .521.422.943.943.943.521 0 .943-.422.943-.943 0-.52-.422-.942-.943-.942-.521 0-.943.421-.943.942z" clip-rule="evenodd"/>
    <path fill="#326BEE" fill-rule="evenodd" d="M32.046 29.03L37.196 0H158.85L164 29.03H32.046zM157.608 29.031H164v.598c0 1.744-1.421 3.172-3.157 3.172h-.114c-1.624 0-2.971-1.25-3.139-2.837.011-.11.018-.222.018-.335v-.598z" clip-rule="evenodd"/>
    <path fill="#326BEE" fill-rule="evenodd" d="M157.574 29.031v.598c0 .113.007.225.017.335-.167 1.588-1.514 2.837-3.137 2.837h-.115c-1.737 0-3.157-1.428-3.157-3.172v-.598h6.392z" clip-rule="evenodd"/>
    <path fill="#326BEE" fill-rule="evenodd" d="M145.167 29.031h6.391v.598c0 1.744-1.419 3.172-3.156 3.172h-.115c-1.624 0-2.97-1.25-3.138-2.837.011-.11.018-.222.018-.335v-.598z" clip-rule="evenodd"/>
    <path fill="#326BEE" fill-rule="evenodd" d="M145.132 29.031v.598c0 .113.006.225.017.335-.168 1.588-1.514 2.837-3.138 2.837h-.114c-1.737 0-3.157-1.428-3.157-3.172v-.598h6.392z" clip-rule="evenodd"/>
    <path fill="#326BEE" fill-rule="evenodd" d="M132.348 29.031h6.392v.598c0 1.744-1.42 3.172-3.157 3.172h-.115c-1.623 0-2.969-1.25-3.137-2.837.011-.11.017-.222.017-.335v-.598z" clip-rule="evenodd"/>
    <path fill="#326BEE" fill-rule="evenodd" d="M132.689 29.031v.598c0 .113.007.225.019.335-.168 1.588-1.514 2.837-3.138 2.837h-.115c-1.736 0-3.156-1.428-3.156-3.172v-.598h6.39z" clip-rule="evenodd"/>
    <path fill="#326BEE" fill-rule="evenodd" d="M119.907 29.031h6.392v.598c0 1.744-1.42 3.172-3.157 3.172h-.114c-1.624 0-2.971-1.25-3.139-2.837.011-.11.018-.222.018-.335v-.598zM119.872 29.031v.598c0 .113.006.225.017.335-.167 1.588-1.514 2.837-3.138 2.837h-.114c-1.737 0-3.157-1.428-3.157-3.172v-.598h6.392z" clip-rule="evenodd"/>
    <path fill="#326BEE" fill-rule="evenodd" d="M107.466 29.031h6.391v.598c0 1.744-1.42 3.172-3.157 3.172h-.115c-1.623 0-2.969-1.25-3.137-2.837.011-.11.018-.222.018-.335v-.598zM107.43 29.031v.598c0 .113.006.225.018.335-.169 1.588-1.515 2.837-3.138 2.837h-.115c-1.736 0-3.156-1.428-3.156-3.172v-.598h6.391zM94.647 29.031h6.392v.598c0 1.744-1.42 3.172-3.157 3.172h-.114c-1.624 0-2.97-1.25-3.138-2.837.01-.11.017-.222.017-.335v-.598z" clip-rule="evenodd"/>
    <path fill="#326BEE" fill-rule="evenodd" d="M94.99 29.031v.598c0 .113.007.225.018.335-.168 1.588-1.515 2.837-3.139 2.837h-.114c-1.736 0-3.157-1.428-3.157-3.172v-.598h6.392zM82.207 29.031h6.39v.598c0 1.744-1.42 3.172-3.156 3.172h-.115c-1.623 0-2.97-1.25-3.138-2.837.012-.11.019-.222.019-.335v-.598zM82.17 29.031v.598c0 .113.006.225.017.335-.167 1.588-1.514 2.837-3.137 2.837h-.115c-1.737 0-3.157-1.428-3.157-3.172v-.598h6.392z" clip-rule="evenodd"/>
    <path fill="#326BEE" fill-rule="evenodd" d="M69.766 29.031h6.391v.598c0 1.744-1.42 3.172-3.157 3.172h-.114c-1.624 0-2.97-1.25-3.138-2.837.01-.11.017-.222.017-.335v-.598zM69.73 29.031v.598c0 .113.006.225.017.335-.168 1.588-1.514 2.837-3.138 2.837h-.114c-1.738 0-3.157-1.428-3.157-3.172v-.598h6.391zM56.947 29.031h6.39v.598c0 1.744-1.42 3.172-3.156 3.172h-.114c-1.624 0-2.97-1.25-3.138-2.837.01-.11.018-.222.018-.335v-.598z" clip-rule="evenodd"/>
    <path fill="#326BEE" fill-rule="evenodd" d="M57.288 29.031v.598c0 .113.007.225.018.335-.168 1.588-1.515 2.837-3.139 2.837h-.114c-1.736 0-3.157-1.428-3.157-3.172v-.598h6.392z" clip-rule="evenodd"/>
    <path fill="#326BEE" fill-rule="evenodd" d="M44.506 29.031h6.391v.598c0 1.744-1.42 3.172-3.156 3.172h-.114c-1.625 0-2.971-1.25-3.139-2.837.011-.11.018-.222.018-.335v-.598zM44.47 29.031v.598c0 .113.006.225.017.335-.168 1.588-1.514 2.837-3.138 2.837h-.114c-1.737 0-3.157-1.428-3.157-3.172v-.598h6.392z" clip-rule="evenodd"/>
    <path fill="#326BEE" fill-rule="evenodd" d="M38.455 29.629c0 1.744-1.415 3.172-3.148 3.172h-.114c-1.731 0-3.147-1.428-3.147-3.172v-.598h6.409v.598z" clip-rule="evenodd"/>
    <path fill="#E6F5FC" fill-rule="evenodd" d="M31.703 29.406h131.886c.227 0 .411-.169.411-.377s-.184-.377-.411-.377H31.702c-.226 0-.41.17-.41.377 0 .208.184.377.41.377z" clip-rule="evenodd"/>
    <path fill="#C3D4FA" fill-rule="evenodd" d="M85.918 55.044c.107 0 .214-.041.296-.123.163-.163.163-.428 0-.592L76.117 44.233c-.163-.163-.428-.163-.591 0-.163.163-.163.428 0 .591l10.096 10.097c.082.082.19.123.296.123zM85.925 61.076c.105 0 .21-.04.291-.12.16-.162.16-.422 0-.583l-11.241-11.24c-.16-.162-.422-.162-.582 0-.16.16-.16.42 0 .581l11.24 11.242c.08.08.186.12.292.12z" clip-rule="evenodd"/>
    <path fill="#C3D4FA" d="M34.686 46.749c0 7.08-5.74 12.818-12.819 12.818-7.08 0-12.818-5.739-12.818-12.818 0-7.08 5.739-12.818 12.818-12.818 7.08 0 12.819 5.739 12.819 12.818z"/>
    <path fill="#5685F1" fill-rule="evenodd" d="M21.867 57.844c6.128 0 11.095-4.968 11.095-11.095 0-6.128-4.967-11.095-11.095-11.095-6.127 0-11.095 4.967-11.095 11.095 0 6.127 4.968 11.095 11.095 11.095zm0 1.723c7.08 0 12.819-5.739 12.819-12.818 0-7.08-5.74-12.818-12.819-12.818-7.08 0-12.818 5.739-12.818 12.818 0 7.08 5.739 12.818 12.818 12.818z" clip-rule="evenodd"/>
    <path fill="#5685F1" d="M23.874 53.105h3.056l-2.813-4.758c1.35-.318 2.738-1.498 2.738-3.709 0-2.323-1.594-4.028-4.2-4.028h-5.85v12.495h2.662v-4.477h1.95l2.457 4.477zm.262-8.486c0 1.05-.806 1.724-1.875 1.724h-2.794v-3.447h2.794c1.069 0 1.875.674 1.875 1.723z"/>
</svg>
