<svg xmlns="http://www.w3.org/2000/svg" xmlns:xlink="http://www.w3.org/1999/xlink" width="144" height="96" fill="none" viewBox="0 0 144 96">
    <path fill="url(#prefix__paint0_linear)" d="M0 14.693h144v81H0v-81z"/>
    <path fill="#E7EEFD" d="M0 14.534h144V8.087c0-.77-.623-1.394-1.393-1.394H1.393C.623 6.693 0 7.317 0 8.087v6.447z"/>
    <path fill="#F4F4F4" d="M9 25.543c0-.47.387-.85.864-.85h124.272c.477 0 .864.38.864.85v70.15H9v-70.15z"/>
    <path fill="#fff" d="M89.413 31.61h-34.65c-.145 0-.262.117-.262.262v34.673c0 .144.117.261.261.261h34.65c.145 0 .262-.117.262-.26V31.871c0-.145-.117-.262-.261-.262zM49.767 31.61h-34.65c-.145 0-.262.117-.262.262v34.673c0 .144.117.261.262.261h34.65c.144 0 .261-.117.261-.26V31.871c0-.145-.117-.262-.26-.262zM129.462 31.61H94.811c-.144 0-.261.117-.261.262v34.673c0 .144.117.261.261.261h34.651c.144 0 .261-.117.261-.26V31.871c0-.145-.117-.262-.261-.262zM55 72.936c0-.134.116-.243.26-.243h34.48c.144 0 .26.11.26.243v22.757H55V72.936zM15 72.936c0-.134.116-.243.26-.243h34.48c.144 0 .26.11.26.243v22.757H15V72.936zM95 72.938c0-.135.116-.245.26-.245h34.48c.144 0 .26.11.26.245v22.755H95V72.938z"/>
    <path fill="#F4F4F4" d="M81.925 58.443H58.072c-.433 0-.784.351-.784.784 0 .433.35.785.784.785h23.855c.432 0 .783-.352.783-.785 0-.433-.35-.784-.784-.784zM42.28 58.443H18.423c-.433 0-.783.351-.783.784 0 .433.35.785.783.785H42.28c.433 0 .784-.352.784-.785 0-.433-.351-.784-.784-.784z"/>
    <path fill="#E9E9E9" d="M66.864 61.407h-8.88c-.385 0-.697.312-.697.697 0 .385.312.697.697.697h8.88c.385 0 .696-.312.696-.697 0-.385-.311-.697-.696-.697zM27.217 61.407h-8.88c-.384 0-.696.312-.696.697 0 .385.312.697.696.697h8.88c.385 0 .697-.312.697-.697 0-.385-.312-.697-.697-.697z"/>
    <path fill="#F4F4F4" d="M125.107 58.443h-23.855c-.432 0-.783.351-.783.784 0 .433.351.785.783.785h23.855c.433 0 .784-.352.784-.785 0-.433-.351-.784-.784-.784z"/>
    <path fill="#E9E9E9" d="M105.344 61.407h-4.179c-.384 0-.696.312-.696.697 0 .385.312.697.696.697h4.179c.385 0 .697-.312.697-.697 0-.385-.312-.697-.697-.697z"/>
    <path fill="url(#prefix__paint1_linear)" fill-rule="evenodd" d="M140.68 15.54c0 8.578-6.998 15.533-15.624 15.533-.97 0-1.921-.09-2.84-.259l-7.183 2.814.511-5.69.174.06c-3.815-2.832-6.291-7.36-6.291-12.459C109.427 6.96 116.426 0 125.056 0c8.626 0 15.624 6.959 15.624 15.54z" clip-rule="evenodd"/>
    <mask id="prefix__a" width="32" height="34" x="109" y="0" maskUnits="userSpaceOnUse">
        <path fill="url(#prefix__paint2_linear)" fill-rule="evenodd" d="M140.68 15.54c0 8.578-6.998 15.533-15.624 15.533-.97 0-1.921-.09-2.84-.259l-7.183 2.814.511-5.69.174.06c-3.815-2.832-6.291-7.36-6.291-12.459C109.427 6.96 116.426 0 125.056 0c8.626 0 15.624 6.959 15.624 15.54z" clip-rule="evenodd"/>
    </mask>
    <g mask="url(#prefix__a)">
        <path fill="url(#prefix__paint3_linear)" d="M132.274 34.345L119.773-3.486 100-4.306v38.651h32.274z"/>
    </g>
    <mask id="prefix__b" width="24" height="17" x="113" y="6" maskUnits="userSpaceOnUse">
        <path fill="url(#prefix__pattern0)" d="M136.878 6.272h-23.701v15.812h23.701V6.272z"/>
    </mask>
    <g mask="url(#prefix__b)">
        <path fill="#fff" d="M141.185 3.397h-33.039v24.436h33.039V3.397z"/>
    </g>
    <mask id="prefix__c" width="32" height="34" x="24" y="20" maskUnits="userSpaceOnUse">
        <path fill="url(#prefix__paint4_linear)" fill-rule="evenodd" d="M55.352 35.88c0 8.579-6.998 15.534-15.625 15.534-.969 0-1.92-.09-2.84-.259l-7.182 2.814.51-5.69.175.06c-3.815-2.832-6.291-7.36-6.291-12.459 0-8.58 7-15.54 15.628-15.54 8.627 0 15.625 6.96 15.625 15.54z" clip-rule="evenodd"/>
    </mask>
    <g mask="url(#prefix__c)">
        <path fill="url(#prefix__paint5_linear)" fill-rule="evenodd" d="M55.352 35.88c0 8.579-6.998 15.534-15.625 15.534-.969 0-1.92-.09-2.84-.259l-7.182 2.814.51-5.69.175.06c-3.815-2.832-6.291-7.36-6.291-12.459 0-8.58 7-15.54 15.628-15.54 8.627 0 15.625 6.96 15.625 15.54z" clip-rule="evenodd"/>
        <path fill="url(#prefix__paint6_linear)" d="M46.947 54.686l-12.5-37.832-19.774-.82v38.652h32.274z"/>
    </g>
    <mask id="prefix__d" width="18" height="21" x="30" y="25" maskUnits="userSpaceOnUse">
        <path fill="url(#prefix__pattern1)" d="M30.367 25.148l17.433-.102.12 20.615-17.433.102-.12-20.615z"/>
    </mask>
    <g mask="url(#prefix__d)">
        <path fill="#fff" fill-rule="evenodd" d="M26.814 40.484l-1.416 6.468 35.073-.205-1.491-6.451-.13-22.28s-29.925.223-32.166.189" clip-rule="evenodd"/>
    </g>
    <mask id="prefix__e" width="33" height="34" x="70" y="49" maskUnits="userSpaceOnUse">
        <path fill="url(#prefix__paint7_linear)" fill-rule="evenodd" d="M102.123 64.75c0 8.578-6.998 15.533-15.625 15.533-.97 0-1.92-.09-2.84-.259l-7.182 2.814.51-5.69.174.06c-3.815-2.832-6.29-7.36-6.29-12.459 0-8.58 6.999-15.539 15.628-15.539 8.627 0 15.625 6.959 15.625 15.54z" clip-rule="evenodd"/>
    </mask>
    <g mask="url(#prefix__e)">
        <path fill="url(#prefix__paint8_linear)" fill-rule="evenodd" d="M102.123 64.75c0 8.578-6.998 15.533-15.625 15.533-.97 0-1.92-.09-2.84-.259l-7.182 2.814.51-5.69.174.06c-3.815-2.832-6.29-7.36-6.29-12.459 0-8.58 6.999-15.539 15.628-15.539 8.627 0 15.625 6.959 15.625 15.54z" clip-rule="evenodd"/>
        <path fill="url(#prefix__paint9_linear)" d="M97.396 82.809l-12.5-37.832-19.774-.82V82.81h32.274z"/>
        <mask id="prefix__f" width="26" height="14" x="75" y="58" maskUnits="userSpaceOnUse">
            <path fill="url(#prefix__pattern2)" d="M100.204 58.27H75.221v13.194h24.983V58.27z"/>
        </mask>
        <g mask="url(#prefix__f)">
            <path fill="#fff" d="M101.594 53.062H74.876v19.096h26.718V53.062z"/>
            <path fill="#000" d="M100.898 55.492H74.181V74.59h26.717V55.492z"/>
            <path fill="#fff" d="M103.526 54.323H74.061V75.45h29.465V54.323z"/>
        </g>
    </g>
    <defs>
        <linearGradient id="prefix__paint0_linear" x1="71.999" x2="71.999" y1="14.693" y2="95.693" gradientUnits="userSpaceOnUse">
            <stop stop-color="#376EEE"/>
            <stop offset="1" stop-color="#30A3ED"/>
        </linearGradient>
        <linearGradient id="prefix__paint1_linear" x1="125.053" x2="140.792" y1="0" y2="24.801" gradientUnits="userSpaceOnUse">
            <stop stop-color="#FFE050"/>
            <stop offset=".695" stop-color="#FFD038"/>
        </linearGradient>
        <linearGradient id="prefix__paint2_linear" x1="118.852" x2="138.75" y1="3.486" y2="38.743" gradientUnits="userSpaceOnUse">
            <stop stop-color="#FFE354"/>
            <stop offset=".385" stop-color="#FFCA30"/>
        </linearGradient>
        <linearGradient id="prefix__paint3_linear" x1="116.136" x2="122.548" y1="-4.307" y2="31.678" gradientUnits="userSpaceOnUse">
            <stop stop-color="#fff" stop-opacity="0"/>
            <stop offset="1" stop-color="#FFD139"/>
        </linearGradient>
        <linearGradient id="prefix__paint4_linear" x1="33.525" x2="53.421" y1="23.827" y2="59.084" gradientUnits="userSpaceOnUse">
            <stop stop-color="#FFE354"/>
            <stop offset=".385" stop-color="#FFCA30"/>
        </linearGradient>
        <linearGradient id="prefix__paint5_linear" x1="33.525" x2="53.421" y1="23.827" y2="59.084" gradientUnits="userSpaceOnUse">
            <stop stop-color="#FFE354"/>
            <stop offset=".385" stop-color="#FFCA30"/>
        </linearGradient>
        <linearGradient id="prefix__paint6_linear" x1="30.81" x2="37.221" y1="16.034" y2="52.019" gradientUnits="userSpaceOnUse">
            <stop stop-color="#fff" stop-opacity="0"/>
            <stop offset="1" stop-color="#FFD139"/>
        </linearGradient>
        <linearGradient id="prefix__paint7_linear" x1="80.295" x2="100.192" y1="52.696" y2="87.953" gradientUnits="userSpaceOnUse">
            <stop stop-color="#FFE354"/>
            <stop offset=".545" stop-color="#FFCB31"/>
        </linearGradient>
        <linearGradient id="prefix__paint8_linear" x1="86.496" x2="86.496" y1="49.21" y2="82.838" gradientUnits="userSpaceOnUse">
            <stop stop-color="#FFE354"/>
            <stop offset="1" stop-color="#FFCB31"/>
        </linearGradient>
        <linearGradient id="prefix__paint9_linear" x1="81.259" x2="87.671" y1="44.157" y2="80.142" gradientUnits="userSpaceOnUse">
            <stop stop-color="#fff" stop-opacity="0"/>
            <stop offset="1" stop-color="#FFD139"/>
        </linearGradient>
        <pattern id="prefix__pattern0" width="1" height="1" patternContentUnits="objectBoundingBox">
            <use transform="matrix(.00083 0 0 .00125 0 -.007)" xlink:href="#prefix__image0"/>
        </pattern>
        <pattern id="prefix__pattern1" width="1" height="1" patternContentUnits="objectBoundingBox">
            <use transform="matrix(.001 0 0 .00085 0 -.002)" xlink:href="#prefix__image1"/>
        </pattern>
        <pattern id="prefix__pattern2" width="1" height="1" patternContentUnits="objectBoundingBox">
            <use transform="matrix(.00222 0 0 .00421 0 -.005)" xlink:href="#prefix__image2"/>
        </pattern>
    </defs>
</svg>
