<svg width="97" height="97" viewBox="0 0 97 97" fill="none" xmlns="http://www.w3.org/2000/svg">
<path d="M48.5 97C75.2858 97 97 75.2858 97 48.5C97 21.7142 75.2858 0 48.5 0C21.7142 0 0 21.7142 0 48.5C0 75.2858 21.7142 97 48.5 97Z" fill="#E6F7FF"/>
<path d="M48.4823 59.8972L11.9766 36.0726L44.11 15.1014C46.767 13.3673 50.1976 13.3673 52.8546 15.1014L84.988 36.0726L48.4823 59.8972Z" fill="#0098D3"/>
<path d="M11.9766 36.0723H84.988V73.3898C84.988 76.7035 82.3018 79.3898 78.988 79.3898H17.9766C14.6629 79.3898 11.9766 76.7035 11.9766 73.3898V36.0723Z" fill="url(#paint0_linear)"/>
<path d="M21.1055 27.0771C21.1055 24.868 22.8963 23.0771 25.1055 23.0771H71.8641C74.0732 23.0771 75.8641 24.868 75.8641 27.0771V66.3947H21.1055V27.0771Z" fill="#F8FAFB"/>
<path d="M47.309 24.9399C48.0421 23.7802 49.3183 23.0771 50.6902 23.0771L71.8641 23.0771C74.0732 23.0771 75.8641 24.868 75.8641 27.0771V66.3947H21.1055L47.309 24.9399Z" fill="white"/>
<path fill-rule="evenodd" clip-rule="evenodd" d="M11.9768 36.0723V75.3898C11.9768 77.599 13.7677 79.3898 15.9768 79.3898H70.407C74.4743 79.3898 75.946 74.0251 72.448 71.9497L11.9768 36.0723Z" fill="url(#paint1_linear)"/>
<path fill-rule="evenodd" clip-rule="evenodd" d="M84.988 36.0723V75.3898C84.988 77.599 83.1972 79.3898 80.988 79.3898H26.5578C22.4905 79.3898 21.0188 74.0251 24.5168 71.9497L84.988 36.0723Z" fill="url(#paint2_linear)"/>
<rect x="26.8047" y="28.4917" width="22.8161" height="2.16588" rx="1" fill="#AFC7D1" fill-opacity="0.6"/>
<rect x="26.8047" y="33.9062" width="22.8161" height="2.16588" rx="1" fill="#AFC7D1" fill-opacity="0.6"/>
<rect x="26.8047" y="39.3213" width="18.2529" height="2.16588" rx="1" fill="#AFC7D1" fill-opacity="0.6"/>
<path fill-rule="evenodd" clip-rule="evenodd" d="M60.1501 51.9535C56.0038 49.7872 51.8021 47.7309 47.6558 45.5646C43.4034 47.4519 39.0337 49.2874 34.7813 51.1746C32.6074 70.7169 46.7046 74.9228 46.7046 74.9228C46.6182 74.9519 60.9405 71.5942 60.1501 51.9535Z" fill="#376EEE"/>
<path fill-rule="evenodd" clip-rule="evenodd" d="M57.1763 53.8664C54.0001 52.1956 50.7685 50.6347 47.5923 48.9639C44.2286 50.3696 40.9823 51.8271 37.6185 53.2327C35.9453 68.2234 46.7684 71.5219 46.7684 71.5219C46.7684 71.5219 57.7694 68.9164 57.1763 53.8664Z" fill="#2399FF"/>
<path fill-rule="evenodd" clip-rule="evenodd" d="M52.0676 58.4575L50.6365 56.7696L45.864 60.3658L44.0012 58.1632L42.1975 59.5042L45.4913 63.3946L52.0676 58.4575Z" fill="white"/>
<defs>
<linearGradient id="paint0_linear" x1="-24.5292" y1="57.731" x2="13.4888" y2="121.81" gradientUnits="userSpaceOnUse">
<stop stop-color="#2F88EC"/>
<stop offset="1" stop-color="#2FB7EC"/>
</linearGradient>
<linearGradient id="paint1_linear" x1="41.2268" y1="23.0231" x2="83.6813" y2="80.3576" gradientUnits="userSpaceOnUse">
<stop stop-color="#CEF2FD"/>
<stop offset="1" stop-color="#8BDCFB"/>
</linearGradient>
<linearGradient id="paint2_linear" x1="121.494" y1="57.731" x2="83.4758" y2="-6.34807" gradientUnits="userSpaceOnUse">
<stop stop-color="#CEF2FD"/>
<stop offset="1" stop-color="#57CEFC"/>
</linearGradient>
</defs>
</svg>
