<svg width="16" height="12" viewBox="0 0 16 12" fill="none" xmlns="http://www.w3.org/2000/svg">
<rect x="0.75" y="0.25" width="14.5" height="11.5" stroke="#AFC7D1" stroke-width="0.5"/>
<path d="M6.516 8.5H7.116V5.844C7.116 4.908 6.436 4.54 5.62 4.54C4.988 4.54 4.492 4.748 4.076 5.18L4.356 5.596C4.7 5.228 5.076 5.06 5.54 5.06C6.1 5.06 6.516 5.356 6.516 5.876V6.572C6.204 6.212 5.764 6.044 5.236 6.044C4.58 6.044 3.884 6.452 3.884 7.316C3.884 8.156 4.58 8.596 5.236 8.596C5.756 8.596 6.196 8.412 6.516 8.06V8.5ZM6.516 7.684C6.284 8.004 5.876 8.164 5.452 8.164C4.892 8.164 4.5 7.812 4.5 7.324C4.5 6.828 4.892 6.476 5.452 6.476C5.876 6.476 6.284 6.636 6.516 6.956V7.684ZM11.1188 8.5H11.7188V3.164H11.1188V5.22C10.8068 4.796 10.3348 4.54 9.81475 4.54C8.79875 4.54 8.09475 5.34 8.09475 6.572C8.09475 7.828 8.80675 8.596 9.81475 8.596C10.3588 8.596 10.8308 8.316 11.1188 7.924V8.5ZM11.1188 7.452C10.9028 7.788 10.4388 8.06 9.95875 8.06C9.18275 8.06 8.71875 7.428 8.71875 6.572C8.71875 5.716 9.18275 5.076 9.95875 5.076C10.4388 5.076 10.9028 5.364 11.1188 5.7V7.452Z" fill="#AFC7D1"/>
</svg>
