<svg width="34" height="34" viewBox="0 0 34 34" fill="none" xmlns="http://www.w3.org/2000/svg">
<path fill-rule="evenodd" clip-rule="evenodd" d="M16.9999 33.4705C26.0963 33.4705 33.4705 26.0963 33.4705 16.9999C33.4705 7.90343 26.0963 0.529297 16.9999 0.529297C7.90343 0.529297 0.529297 7.90343 0.529297 16.9999C0.529297 26.0963 7.90343 33.4705 16.9999 33.4705Z" fill="url(#paint0_linear)"/>
<path d="M28.5415 17C28.3307 16.7206 23.3307 10.1274 16.9974 10.1274C10.6689 10.1274 5.66404 16.7206 5.45814 17C5.3258 17.1765 5.3258 17.4117 5.45814 17.5882C5.66404 17.8676 10.6689 24.4608 16.9974 24.4608C23.3307 24.4608 28.3307 17.8676 28.5415 17.5882C28.6738 17.4117 28.6738 17.1765 28.5415 17Z" fill="#2FB7EC"/>
<path fill-rule="evenodd" clip-rule="evenodd" d="M16.9979 22.4999C14.1253 22.4999 11.792 20.1666 11.792 17.294C11.792 14.4215 14.1253 12.0881 16.9979 12.0881C19.8704 12.0881 22.2087 14.4215 22.2087 17.294C22.2087 20.1666 19.8704 22.4999 16.9979 22.4999Z" fill="white"/>
<path d="M16.9986 14.5388C15.4789 14.5388 14.2437 15.7741 14.2437 17.2937C14.2437 18.8133 15.4789 20.0486 16.9986 20.0486C18.5231 20.0486 19.7584 18.8133 19.7584 17.2937C19.7584 15.7741 18.5231 14.5388 16.9986 14.5388Z" fill="#326BEE"/>
<path d="M32.4708 6.41165C32.4708 9.1081 30.2849 11.294 27.5884 11.294C24.892 11.294 22.7061 9.1081 22.7061 6.41165C22.7061 3.7152 24.892 1.5293 27.5884 1.5293C30.2849 1.5293 32.4708 3.7152 32.4708 6.41165Z" fill="#326BEE" stroke="white" stroke-width="2"/>
<path d="M25.2354 6.59637L26.9763 8.15432L30.1878 4.64697" stroke="white" stroke-width="2" stroke-linecap="round" stroke-linejoin="round"/>
<defs>
<linearGradient id="paint0_linear" x1="-15.9413" y1="16.9999" x2="16.9999" y2="49.9411" gradientUnits="userSpaceOnUse">
<stop stop-color="#E6F7FF"/>
<stop offset="1" stop-color="#8BDCFB"/>
</linearGradient>
</defs>
</svg>
