<svg width="72" height="72" viewBox="0 0 72 72" fill="none" xmlns="http://www.w3.org/2000/svg">
<path d="M50.4375 35.9997C50.4375 43.9732 43.9736 50.437 36.0001 50.437C28.0265 50.437 21.5627 43.9732 21.5627 35.9997C21.5627 28.0261 28.0265 21.5623 36.0001 21.5623C43.9736 21.5623 50.4375 28.0261 50.4375 35.9997Z" fill="#C3D4FA"/>
<path fill-rule="evenodd" clip-rule="evenodd" d="M62.5983 34.9507C62.8455 41.2178 60.8719 47.371 57.0254 52.325C53.1789 57.279 47.7066 60.7157 41.5737 62.0289C35.4407 63.3422 29.041 62.4477 23.5032 59.5032C22.8432 59.1522 22.5926 58.3327 22.9436 57.6727C23.2945 57.0127 24.114 56.7621 24.7741 57.113C29.7487 59.7581 35.4976 60.5616 41.0069 59.3819C46.5161 58.2022 51.4319 55.115 54.8872 50.6648C58.3425 46.2146 60.1155 40.6872 59.8934 35.0574C59.6713 29.4277 57.4684 24.0571 53.6732 19.893C49.8781 15.7288 44.7344 13.0384 39.1493 12.2964C33.5643 11.5544 27.8965 12.8083 23.1457 15.837C18.3949 18.8658 14.8661 23.4748 13.1817 28.8513C11.4973 34.2277 11.7655 40.0263 13.9389 45.2244C14.2273 45.914 13.902 46.7069 13.2123 46.9953C12.5227 47.2836 11.7298 46.9583 11.4414 46.2686C9.02195 40.4821 8.72342 34.0271 10.5985 28.042C12.4736 22.0568 16.4018 16.926 21.6905 13.5544C26.9792 10.1828 33.2885 8.78692 39.5059 9.61297C45.7232 10.439 51.4492 13.4339 55.674 18.0695C59.8988 22.7051 62.3511 28.6836 62.5983 34.9507Z" fill="#376EEE"/>
<path fill-rule="evenodd" clip-rule="evenodd" d="M45.1327 44.1176C44.636 44.6763 43.7805 44.7266 43.2218 44.23L34.6465 36.6075L34.6465 28.781C34.6465 28.0335 35.2524 27.4275 36 27.4275C36.7475 27.4275 37.3535 28.0335 37.3535 28.781L37.3535 35.3919L45.0202 42.2068C45.579 42.7034 45.6293 43.5589 45.1327 44.1176Z" fill="#376EEE"/>
<path fill-rule="evenodd" clip-rule="evenodd" d="M26.2293 68.9779C25.5184 69.2089 24.7548 68.8198 24.5238 68.1089L21.1778 57.8108C20.9468 57.0998 21.3358 56.3363 22.0468 56.1053L32.3449 52.7592C33.0558 52.5282 33.8194 52.9173 34.0504 53.6282C34.2814 54.3391 33.8923 55.1027 33.1814 55.3337L24.1705 58.2615L27.0983 67.2723C27.3293 67.9833 26.9403 68.7469 26.2293 68.9779Z" fill="#376EEE"/>
</svg>
