<svg width="18" height="16" viewBox="0 0 18 16" fill="none" xmlns="http://www.w3.org/2000/svg">
<path d="M2.75002 13C2.75002 12.8619 2.86194 12.75 3.00002 12.75H15C15.1381 12.75 15.25 12.8619 15.25 13V15C15.25 15.1381 15.1381 15.25 15 15.25H3.00002C2.86194 15.25 2.75002 15.1381 2.75002 15V13Z" fill="url(#paint0_linear)"/>
<path d="M9.00001 0.75C9.07596 0.75 9.14779 0.784522 9.19523 0.843826L13.0562 5.67006L16.8675 3.288C16.958 3.23145 17.0744 3.23856 17.1573 3.30568C17.2402 3.37281 17.2714 3.48517 17.235 3.58544L15.25 9.04404V11C15.25 11.1381 15.1381 11.25 15 11.25H3.00001C2.86194 11.25 2.75001 11.1381 2.75001 11V9.04404L0.765066 3.58544C0.728605 3.48517 0.759794 3.37281 0.842722 3.30568C0.92565 3.23856 1.04204 3.23145 1.13251 3.288L4.94381 5.67006L8.8048 0.843826C8.85224 0.784522 8.92407 0.75 9.00001 0.75Z" fill="url(#paint1_linear)"/>
<defs>
<linearGradient id="paint0_linear" x1="16" y1="15.25" x2="1.00001" y2="15.25" gradientUnits="userSpaceOnUse">
<stop stop-color="#8996A4"/>
<stop offset="0.546875" stop-color="#8996A4" stop-opacity="0.24"/>
<stop offset="0.992188" stop-color="#8996A4"/>
</linearGradient>
<linearGradient id="paint1_linear" x1="14" y1="8" x2="1" y2="11.25" gradientUnits="userSpaceOnUse">
<stop stop-color="#8996A4"/>
<stop offset="0.546875" stop-color="#8996A4" stop-opacity="0.24"/>
<stop offset="0.992188" stop-color="#8996A4"/>
</linearGradient>
</defs>
</svg>
