<svg width="40" height="40" viewBox="0 0 40 40" fill="none" xmlns="http://www.w3.org/2000/svg">
<path d="M20 40C31.0457 40 40 31.0457 40 20C40 8.9543 31.0457 0 20 0C8.9543 0 0 8.9543 0 20C0 31.0457 8.9543 40 20 40Z" fill="#92F1D3" fill-opacity="0.24"/>
<path d="M17.7192 23.2749L27.0889 13.4515C27.663 12.8495 28.5955 12.8495 29.1709 13.4515C29.745 14.0536 29.745 15.0309 29.1709 15.6344L18.7595 26.5485C18.1854 27.1505 17.2529 27.1505 16.6775 26.5485L10.4314 20C10.1543 19.7042 10 19.314 10 18.9086C10 18.5032 10.1543 18.113 10.4314 17.8172C11.0055 17.2151 11.938 17.2151 12.5135 17.8172L17.7192 23.2749Z" fill="#1ACC94"/>
</svg>
