<svg width="40" height="40" viewBox="0 0 40 40" fill="none" xmlns="http://www.w3.org/2000/svg">
<rect width="40" height="40" rx="4" fill="#EEF2F5"/>
<path d="M28.5185 12.2222H11.4815C10.6644 12.2222 10 12.8867 10 13.7037V26.2963C10 27.1141 10.6644 27.7778 11.4815 27.7778H28.5185C29.3363 27.7778 30 27.1141 30 26.2963V13.7037C30 12.8867 29.3363 12.2222 28.5185 12.2222ZM25.7089 21.2645C25.4193 20.9748 24.9511 20.9748 24.6615 21.2645L23.4867 22.4393C23.197 22.7289 22.7289 22.7289 22.4393 22.4393L18.3015 18.3015C18.0119 18.0119 17.5437 18.0119 17.2541 18.3015L16.6667 18.8889C14.7532 20.8024 11.4815 19.4472 11.4815 16.7411C11.4815 15.0636 12.8414 13.7037 14.5189 13.7037H25.4813C27.1587 13.7037 28.5186 15.0635 28.5187 16.741L28.519 20.1004C28.5191 21.5669 26.7459 22.3015 25.7089 21.2645Z" fill="#D5DFE6"/>
<path d="M24.815 18.148C25.6332 18.148 26.2965 17.4847 26.2965 16.6665C26.2965 15.8483 25.6332 15.1851 24.815 15.1851C23.9968 15.1851 23.3335 15.8483 23.3335 16.6665C23.3335 17.4847 23.9968 18.148 24.815 18.148Z" fill="#D5DFE6"/>
</svg>
