<svg width="300" height="190" viewBox="0 0 300 190" fill="none" xmlns="http://www.w3.org/2000/svg">
<rect width="300" height="190" fill="#D8D8D8" fill-opacity="0.01"/>
<mask id="mask0" mask-type="alpha" maskUnits="userSpaceOnUse" x="0" y="0" width="300" height="190">
<rect width="300" height="190" fill="white"/>
</mask>
<g mask="url(#mask0)">
<path d="M57.05 188C72.5416 188 85.1 186.523 85.1 184.7C85.1 182.877 72.5416 181.4 57.05 181.4C41.5584 181.4 29 182.877 29 184.7C29 186.523 41.5584 188 57.05 188Z" fill="#E7EEFD"/>
<path d="M267.631 82.8468C280.656 105.354 285.647 131.566 281.875 157.2L53.2848 157.2C46.608 111.03 68.5125 64.6017 109.854 40.7382C113.189 38.8509 116.523 37.0684 119.963 35.5166C174.037 11.0167 237.879 31.4794 267.631 82.8468Z" fill="#E7EEFD"/>
<path d="M232.5 65.9C232.5 65.9 259.752 85.5616 290.378 86.6616" stroke="#FCB237" stroke-width="1.1" stroke-linecap="round" stroke-dasharray="2.2"/>
<path fill-rule="evenodd" clip-rule="evenodd" d="M276.5 85.7692L266.629 94.596C266.142 95.0316 265.366 94.759 265.258 94.1145L263.3 82.4C263.3 82.4 267.457 83.829 269.747 84.2685C272.037 84.7081 276.5 85.7692 276.5 85.7692Z" fill="white"/>
<path fill-rule="evenodd" clip-rule="evenodd" d="M276.5 85.7692L266.629 94.596C266.142 95.0316 265.366 94.759 265.258 94.1145L263.3 82.4C263.3 82.4 267.457 83.829 269.747 84.2685C272.037 84.7081 276.5 85.7692 276.5 85.7692Z" fill="#FCB237" fill-opacity="0.4"/>
<path fill-rule="evenodd" clip-rule="evenodd" d="M252.75 78.3713L241.208 86.5808C240.513 87.0755 239.544 86.6241 239.475 85.7735L238.218 70.3C238.218 70.3 242.186 72.827 244.646 74.3515C247.107 75.876 252.75 78.3713 252.75 78.3713Z" fill="white"/>
<path fill-rule="evenodd" clip-rule="evenodd" d="M252.75 78.3713L241.208 86.5808C240.513 87.0755 239.544 86.6241 239.475 85.7735L238.218 70.3C238.218 70.3 242.186 72.827 244.646 74.3515C247.107 75.876 252.75 78.3713 252.75 78.3713Z" fill="#FCB237" fill-opacity="0.6"/>
<path d="M104.881 70.3C87.7501 77.6369 68.6 65.9 68.6 65.9C68.6 65.9 48.4731 78.3443 37.9092 81.8126C29.08 84.7114 20.0176 86.3277 10.7222 86.6616" stroke="#FCB237" stroke-width="1.1" stroke-linecap="round" stroke-dasharray="2.2"/>
<path fill-rule="evenodd" clip-rule="evenodd" d="M24.6 84.6692L34.4707 93.496C34.9579 93.9316 35.734 93.659 35.8418 93.0145L37.8 81.3C37.8 81.3 33.6431 82.729 31.3532 83.1685C29.0633 83.6081 24.6 84.6692 24.6 84.6692Z" fill="#FCB237" fill-opacity="0.4"/>
<path fill-rule="evenodd" clip-rule="evenodd" d="M95 14.2L98.3 17.5L95 20.8L91.7 17.5L95 14.2Z" fill="#FFCF71"/>
</g>
<path d="M108.873 92.0293H227.082V157.43H108.873V92.0293Z" fill="white"/>
<path d="M93.9 138.574H120.497V157.2H93.9V138.574Z" fill="#FFCF71"/>
<path d="M93.9 138.574H110.893V157.2H93.9V138.574Z" fill="#FFE380"/>
<path d="M97.0769 138.574H107.878V144.579L105.736 143.974L103.958 144.579L102.194 143.974L100.43 144.579L98.6663 143.974L97.0769 144.579V138.574Z" fill="#1A4379"/>
<path d="M113.597 138.574H117.409V144.579L115.372 143.967L113.597 144.579V138.574Z" fill="#1A4379"/>
<path d="M119.955 113.075C119.955 111.449 121.274 110.13 122.9 110.13H146.562C148.189 110.13 149.507 111.449 149.507 113.075V157.43H119.955V113.075Z" fill="#E7EEFD"/>
<path fill-rule="evenodd" clip-rule="evenodd" d="M142.858 135.989C144.082 135.989 145.075 134.996 145.075 133.772C145.075 132.548 144.082 131.556 142.858 131.556C141.634 131.556 140.642 132.548 140.642 133.772C140.642 134.996 141.634 135.989 142.858 135.989Z" fill="#8CACF6"/>
<path d="M156.157 111.624C156.157 110.808 156.818 110.146 157.634 110.146H213.784C214.6 110.146 215.261 110.808 215.261 111.624V139.699H156.157V111.624Z" fill="#E7EEFD"/>
<path d="M188.664 119.012H209.351V136.743H188.664V119.012Z" fill="white"/>
<path d="M194.575 119.012H203.44V124.922L201.224 123.74L199.393 124.922L196.791 123.74L194.575 124.922V119.012Z" fill="#4CC1BE"/>
<path d="M162.067 119.012H182.754V136.743H162.067V119.012Z" fill="white"/>
<path d="M167.978 119.012H176.843V124.922L174.627 123.74L172.796 124.922L170.194 123.74L167.978 124.922V119.012Z" fill="#4CC1BE"/>
<path d="M108.504 48.0703H225.235L232.254 92.0293H102.593L108.504 48.0703Z" fill="#376EEE"/>
<path d="M115.892 42.1602H218.586V48.0706H115.892L115.892 42.1602Z" fill="#1A4379"/>
<path d="M108.504 40.6827C108.504 39.8666 109.165 39.2051 109.981 39.2051H224.496C225.312 39.2051 225.974 39.8666 225.974 40.6827C225.974 41.4988 225.312 42.1603 224.496 42.1603H109.981C109.165 42.1603 108.504 41.4988 108.504 40.6827Z" fill="#1A4379"/>
<path fill-rule="evenodd" clip-rule="evenodd" d="M204.417 48.0708C204.687 45.0834 205.186 42.1102 205.925 39.2051L218.586 39.2051V48.0708H204.417Z" fill="#001D53"/>
<path d="M220.398 93.1103C220.389 95.845 217.803 98.0599 214.61 98.0681H214.4C211.208 98.0598 208.624 95.8442 208.618 93.1103C208.608 95.845 206.022 98.0599 202.83 98.0681H202.619C199.428 98.0598 196.844 95.8442 196.837 93.1103C196.828 95.845 194.242 98.0599 191.049 98.0681H190.839C187.647 98.0598 185.063 95.8442 185.057 93.1103C185.047 95.845 182.461 98.0599 179.269 98.0681H179.058C175.867 98.0598 173.283 95.8442 173.276 93.1103C173.267 95.845 170.681 98.0599 167.488 98.0681H167.278C164.086 98.0598 161.502 95.8442 161.496 93.1103C161.486 95.845 158.9 98.0599 155.708 98.0681H155.497C152.306 98.0598 149.722 95.8442 149.715 93.1103C149.706 95.845 147.12 98.0599 143.927 98.0681H143.717C140.525 98.0598 137.941 95.8442 137.935 93.1103C137.925 95.845 135.339 98.0599 132.147 98.0681H131.936C128.745 98.0598 126.161 95.8442 126.154 93.1103C126.145 95.845 123.559 98.0599 120.366 98.0681H120.156C116.964 98.0598 114.38 95.8442 114.374 93.1103C114.364 95.845 111.778 98.0599 108.586 98.0681H108.375C105.184 98.0598 102.6 95.8442 102.593 93.1103V92.0293H232.254V93.1103C232.244 95.845 229.583 98.0599 226.391 98.0681H226.18C222.989 98.0598 220.405 95.8442 220.398 93.1103Z" fill="#8CACF6"/>
<path d="M156.157 136.743H215.261V139.698H156.157L156.157 136.743Z" fill="#8CACF6" fill-opacity="0.8"/>
<path d="M252.458 46.3401C252.457 51.9649 249.903 57.298 245.489 60.8954C241.075 64.4928 235.256 65.9824 229.61 64.9608L222.638 67.6547C221.771 67.9899 220.859 67.279 220.973 66.3562L221.569 61.532C214.271 56.206 211.752 46.6162 215.52 38.5015C219.288 30.3869 228.322 25.9438 237.216 27.8312C246.11 29.7186 252.457 37.4256 252.458 46.3401Z" fill="white"/>
<path d="M219.451 40.3575L219.415 40.5418C219.303 41.3449 219.777 42.1914 220.54 42.4996L225.101 44.3628L224.418 49.2307C224.166 51.0231 224.596 52.571 225.707 53.8489C226.817 55.128 228.287 55.77 230.096 55.77L230.477 55.7602C231.864 55.6882 233.148 55.2208 234.324 54.3613L234.435 54.2746L234.246 54.0951C235.352 55.2103 236.742 55.77 238.396 55.77C240.194 55.77 241.821 55.137 243.267 53.8779C244.713 52.6201 245.566 51.0941 245.816 49.3129L246.578 43.8424C246.673 43.1595 245.993 42.6535 245.141 42.6535H243.48C242.638 42.6535 241.866 43.3199 241.75 44.1486L241.044 49.2311C240.976 49.7127 240.742 50.1299 240.334 50.4913C239.928 50.8513 239.48 51.0276 238.979 51.0276C238.505 51.0276 238.134 50.8642 237.846 50.5311C237.557 50.1982 237.447 49.8005 237.515 49.3127L237.941 46.2283C237.961 45.4069 237.353 44.7951 236.548 44.7951H234.859C234.083 44.7951 233.359 45.3637 233.165 46.1139L232.718 49.2301C232.649 49.729 232.415 50.1487 232.01 50.5016C231.604 50.855 231.164 51.0276 230.679 51.0276C230.205 51.0276 229.831 50.8606 229.534 50.5189C229.238 50.1773 229.124 49.7829 229.19 49.3127L230.137 42.5699C230.255 41.7922 229.799 40.9757 229.073 40.6396L221.469 37.5145C220.801 37.2449 220.108 37.7984 219.886 38.661L219.451 40.3575Z" fill="#001D53"/>
<path d="M85.0052 152.284C85.0052 150.858 83.8493 149.702 82.4233 149.702H60.0468V154.865H82.4233C83.8493 154.865 85.0052 153.71 85.0052 152.284Z" fill="#001D53" fill-opacity="0.01"/>
<rect x="88.4479" y="149.702" width="10.3276" height="5.16381" rx="2.58191" fill="#001D53" fill-opacity="0.01"/>
<path fill-rule="evenodd" clip-rule="evenodd" d="M36.414 172.249C36.42 172.124 37.5758 173.264 38.3937 174.087H40.975C40.975 174.087 37.9748 179.463 38.0373 179.63C38.4463 180.728 40.1778 183.158 40.1778 183.158C41.2446 183.7 42.88 186.86 41.8103 187.57C40.3664 187.57 39.6498 187.57 37.3707 187.57C37.3707 187.57 31.3685 179.503 31.2 179.1L36.414 172.249Z" fill="#2FB7EC"/>
<path fill-rule="evenodd" clip-rule="evenodd" d="M72.8675 56.2409C72.8675 56.2409 77.1765 60.129 79.514 66.0372C80.4937 68.5146 81.5764 74.282 81.9886 78.5426C82.327 82.035 85.2224 89.9917 86.7115 93.2611C88.2007 96.5304 89.6281 101.015 89.675 104.158C89.7225 107.301 73.5278 104.31 73.5278 104.31C73.5278 104.31 65.6826 103.971 64.8026 100.929C63.9226 97.8873 67.9646 54.6323 67.9646 54.6323C67.9646 54.6323 71.1271 54.8386 72.8675 56.2409Z" fill="#EF8D2E"/>
<path fill-rule="evenodd" clip-rule="evenodd" d="M76.9327 178.141C76.8751 178.034 78.3141 178.362 79.4388 178.633L80.7373 178.953C80.7373 178.953 87.2718 184.648 89.0949 184.526C91.4298 184.371 93.7257 188 90.9511 187.57C90.9511 187.57 77.1184 187.713 76.9327 187.57V178.141Z" fill="#2FB7EC"/>
<path fill-rule="evenodd" clip-rule="evenodd" d="M39.7602 177.622C44.1745 174.034 61.3988 152.561 61.3988 152.561C64.6855 148.499 64.9088 145.214 62.8933 143.6L62.2176 143.06C60.2026 141.446 54.1566 141.351 54.1413 141.37C42.359 155.772 37.1782 166.722 34.4859 172.128C34.194 172.714 34.2246 173.409 34.5762 173.962C35.4615 175.354 37.363 177.786 39.7602 177.622Z" fill="#376EEE"/>
<path fill-rule="evenodd" clip-rule="evenodd" d="M82.5382 109.181C80.9008 102.746 80.0074 97.6211 76.4346 94.8149L56.64 97.8664C54.7371 106.088 62.4409 112.673 67.9491 127.338C68.8966 129.862 71.4474 140.283 72.8618 146.044C74.2426 151.669 79.1538 153.31 81.4963 152.405C85.3666 150.908 85.5108 146.704 85.5901 145.895C86.4085 137.515 83.9674 114.796 82.5382 109.181Z" fill="#0E3AA1"/>
<path fill-rule="evenodd" clip-rule="evenodd" d="M85.5571 143.666L73.0102 142.838C72.9868 150.761 75.0075 171.479 76.2846 178.316C76.4295 179.091 76.9906 179.714 77.7388 179.923C79.2144 180.333 81.6469 180.883 82.5541 180.35C82.5541 180.35 86.2205 148.28 85.5571 143.666Z" fill="#0E3AA1"/>
<path fill-rule="evenodd" clip-rule="evenodd" d="M69.0817 98.6027C67.7972 92.055 45.2413 85.4262 48.9037 113.26C49.745 119.652 53.0185 143.732 55.7863 148.043C56.8812 149.748 62.0063 151.701 62.4655 151.035C62.8782 150.437 63.7987 149.317 64.5833 147.519C67.0357 141.902 66.5749 132.133 67.5435 125.68C68.3478 120.323 70.5597 106.137 69.0817 98.6027Z" fill="#376EEE"/>
<path fill-rule="evenodd" clip-rule="evenodd" d="M63.3545 71.977L62.5902 72.7583C60.3097 75.0894 56.0281 74.6062 53.0273 71.6794L50.4385 69.1544L50.3976 69.1108C43.4985 62.5158 36.0962 51.7885 35.4341 49.509C35.0729 48.2654 36.8941 46.0034 38.1482 46.3351C40.4454 46.9425 53.3314 56.5293 59.2381 57.319L61.8573 62.7337C64.8581 65.6605 65.635 69.646 63.3545 71.977Z" fill="#EF8D2E"/>
<path fill-rule="evenodd" clip-rule="evenodd" d="M69.0886 60.1202C69.0886 60.1202 76.7818 71.7435 78.8959 68.8791L84.3234 60.7764L84.3517 60.7345C89.2438 54.2687 92.5284 43.2284 92.6157 41.1121C92.6633 39.9568 87.3968 37.8914 85.2451 41.3659C83.3918 44.6582 72.287 56.7217 69.0886 60.1202Z" fill="#EF8D2E"/>
<path fill-rule="evenodd" clip-rule="evenodd" d="M67.0019 59.32C65.8322 59.1049 64.7123 58.4564 63.6969 57.5728L63.7705 58.6018L66.0872 62.9631L68.1083 59.3956C67.7511 59.4078 67.3846 59.3898 67.0019 59.32Z" fill="#B577A1"/>
<path fill-rule="evenodd" clip-rule="evenodd" d="M83.4842 18.9685L82.3511 19.3477C81.1872 19.7373 80.5817 21.06 80.9691 22.3095C85.6545 37.4252 85.2796 42.6871 85.2796 42.6871C86.5379 52.6515 94.1575 44.0498 92.3363 38.9986C92.3363 38.9986 87.2821 22.3716 86.1344 20.1227C85.6187 19.1112 84.498 18.6284 83.4842 18.9685Z" fill="#EF8D2E"/>
<path fill-rule="evenodd" clip-rule="evenodd" d="M55.8255 27.7249C56.4627 28.2833 56.522 29.2593 55.9546 29.8902C54.4935 31.5162 51.2592 34.3157 49.1535 37.41C47.5257 39.8024 43.2693 46.0646 40.5841 55.1225L36.0062 50.0666C35.5091 49.5172 35.2872 48.7635 35.4304 48.0336C36.2003 44.0998 38.2168 39.0476 41.3189 35.7311L43.5955 33.2963L43.6301 33.2619C46.4233 30.2322 50.3052 27.429 52.1062 26.0279C52.6558 25.5997 53.4252 25.6209 53.9491 26.0803L55.8255 27.7249Z" fill="#EF8D2E"/>
<path fill-rule="evenodd" clip-rule="evenodd" d="M68.2004 55.6128C69.2126 55.6186 73.2418 58.9602 75.3858 65.5563C77.2262 71.2202 78.5106 86.0468 78.8904 96.3706C78.9908 99.1055 72.7522 99.2543 65.7565 99.2221C59.1893 99.192 49.1008 98.8955 48.9989 96.4223C48.7909 91.383 53.4875 71.6111 54.2556 67.3769C58.9511 57.071 63.0164 56.1804 63.4469 56.0148L68.2004 55.6128Z" fill="#E7EEFD"/>
<path fill-rule="evenodd" clip-rule="evenodd" d="M64.6905 55.1679L65.1673 54.1867C65.1673 54.1867 62.8495 53.7731 59.5262 55.4778C57.2901 56.6251 54.8817 57.4962 54.2944 57.7036C52.5305 57.8496 50.6623 58.1082 49.9656 58.6636C46.4727 62.6083 50.7549 69.9133 50.7549 74.7541C50.7549 79.5953 50.5492 79.416 47.6729 84.0775C41.0975 95.3738 37.1937 105.593 39.2487 107.207C41.3032 108.821 46.0288 108.552 51.0627 108.462C56.0972 108.373 54.5562 106.311 54.5562 104.966C54.5562 103.621 53.7967 101.088 54.2479 96.6284C54.4646 94.4836 56.0647 90.7599 58.0438 87.6641C61.2138 82.7044 62.4816 79.2981 63.0542 77.331C64.7585 71.4763 62.0319 63.279 62.0319 63.279C61.4326 61.6827 61.3148 60.5762 61.9168 58.0098C62.0073 57.6248 62.7719 56.6068 63.6969 56.417" fill="#EF8D2E"/>
<path fill-rule="evenodd" clip-rule="evenodd" d="M70.1513 57.1613C70.1513 57.1613 66.4673 59.6194 63.6969 56.4167L64.4473 53.8166L64.5051 51.2021L71.0492 53.356C71.0492 53.356 69.926 54.3303 70.1513 57.1613Z" fill="white"/>
<path fill-rule="evenodd" clip-rule="evenodd" d="M56.7697 26.9948C56.7697 26.9948 55.2287 28.5053 54.9455 28.5656C54.8508 28.5859 54.2342 28.9978 53.3626 27.937C53.0353 27.5391 52.79 26.9991 52.98 26.5322C53.0948 26.2507 53.9295 25.652 54.4426 25.182C54.31 24.8588 54.2977 24.6681 54.3443 24.4336C54.4769 23.7617 54.627 23.3862 55.2123 22.6433C55.7982 21.9008 56.5131 20.8219 57.3647 20.4539C58.2169 20.0864 58.3096 20.6574 58.3096 20.6574C58.3096 20.6574 58.5805 20.3978 58.9538 20.5484C59.3266 20.6985 59.4413 21.0922 59.4413 21.0922C59.4413 21.0922 59.8935 20.956 60.1962 21.1002C60.4994 21.2449 60.631 21.6658 60.631 21.6658C60.631 21.6658 61.0781 21.3042 61.4422 21.6161C61.8058 21.9275 61.4806 22.8713 61.3336 23.1154C61.1871 23.359 60.9009 23.8205 60.9009 23.8205C60.9009 23.8205 61.8508 23.9759 61.7249 24.3412C61.6598 24.5293 60.7472 25.1392 60.3765 25.9281C59.9489 26.8383 58.9082 27.0551 58.5559 27.0877C57.735 27.1641 56.7697 26.9948 56.7697 26.9948Z" fill="#E7EEFD"/>
<path fill-rule="evenodd" clip-rule="evenodd" d="M80.9861 18.7789C80.9861 18.7789 81.8027 20.7765 82.0454 20.9519C82.1269 21.0107 82.5352 21.6399 83.8132 21.0804C84.2922 20.8697 84.7546 20.4991 84.7734 20.0057C84.7852 19.708 84.2488 18.8195 83.9632 18.183C84.2258 17.9561 84.319 17.7921 84.3747 17.5657C84.5349 16.9157 84.5532 16.5191 84.3142 15.6114C84.0757 14.7037 83.8576 13.4436 83.2071 12.7514C82.5572 12.0597 82.2255 12.5229 82.2255 12.5229C82.2255 12.5229 82.0797 12.1779 81.6623 12.1492C81.2444 12.1211 80.9684 12.4188 80.9684 12.4188C80.9684 12.4188 80.5976 12.1034 80.2493 12.1008C79.901 12.0977 79.5972 12.4116 79.5972 12.4116C79.5972 12.4116 79.3271 11.8999 78.8497 12.0176C78.3723 12.1362 78.279 13.1085 78.3144 13.3869C78.3492 13.6654 78.4237 14.1962 78.4237 14.1962C78.4237 14.1962 77.4576 13.924 77.4217 14.3003C77.4029 14.4945 78.0074 15.4261 78.0229 16.2823C78.0411 17.2696 78.9349 17.9103 79.2543 18.0909C79.9996 18.5119 80.9861 18.7789 80.9861 18.7789Z" fill="#E7EEFD"/>
<path fill-rule="evenodd" clip-rule="evenodd" d="M72.6891 47.772C72.6891 47.772 73.7558 47.0639 74.1514 46.2132C74.5471 45.3624 74.1802 44.5087 74.1802 44.5087C74.1802 44.5087 75.4808 43.7497 74.7449 42.7848C74.0091 41.82 69.5787 41.8929 69.5787 41.8929L72.6891 47.772Z" fill="#001D53"/>
<path fill-rule="evenodd" clip-rule="evenodd" d="M72.1866 44.1234C74.2778 51.0163 71.8562 54.2591 70.7487 54.5472C68.418 55.1531 64.1447 52.4297 63.1049 49.4835C62.0651 46.5379 63.1853 43.4522 65.6063 42.5916C68.0274 41.7311 71.2795 41.1337 72.1866 44.1234Z" fill="white"/>
<path fill-rule="evenodd" clip-rule="evenodd" d="M75.4553 40.0746C74.8269 39.2486 73.9693 38.1231 71.4414 39.8834C70.8313 40.3085 70.1579 39.238 68.3087 39.0954C65.4518 38.8746 65.3686 40.5145 63.6157 40.8868C62.4237 41.1403 62.4708 42.1269 61.1841 43.7678C60.3543 44.8251 61.5598 45.8486 60.91 46.8796C60.1491 48.0853 62.4588 48.6483 62.3897 49.554C62.2259 51.7167 63.995 52.7344 64.4953 53.6127C64.6434 53.8731 64.8615 52.7825 64.9359 52.4915C65.2686 51.1875 64.5628 49.8318 64.5811 49.7764C64.0149 49.6232 62.6895 48.9784 63.3619 46.8674C64.0856 44.5927 65.2535 47.3285 65.2535 47.3285C65.2535 47.3285 65.7061 46.2537 65.5941 45.5017C65.367 43.978 66.9692 43.5782 69.0031 44.0451C69.8827 44.2468 70.273 43.143 70.9763 43.3838C72.1358 43.7815 73.2838 43.2096 73.9975 43.8232C74.3785 44.1507 75.0058 43.5312 75.4516 43.3759C77.0062 42.8335 76.5112 41.4625 75.4553 40.0746Z" fill="#001D53"/>
<path fill-rule="evenodd" clip-rule="evenodd" d="M73.0098 50.6609C73.0098 50.6609 72.2922 49.9199 71.6469 49.8452C71.001 49.7716 69.2787 49.252 68.2746 50.216C67.2699 51.18 66.9111 50.8092 66.6241 50.216C66.337 49.6233 65.8352 46.2128 65.4046 45.842C64.974 45.4712 65.2611 48.6598 65.2611 48.6598C65.2611 48.6598 65.5838 49.4008 65.656 49.994C65.7273 50.5873 65.9069 51.069 65.8352 51.699C65.7634 52.3291 65.9069 53.2931 66.2296 53.6265C66.5523 53.9604 67.4852 54.702 69.0634 54.6273C70.6422 54.5537 71.1445 54.5537 71.7899 53.7006C72.4357 52.8481 73.0098 51.9215 73.0098 50.6609Z" fill="#001D53"/>
<path d="M24.3806 44.1188C24.3341 44.2225 24.2639 44.3933 24.1788 44.6247C23.5031 46.4608 23.1035 48.6328 23.34 50.8964C23.6897 54.243 25.4139 57.0603 28.7663 58.9596L30.0454 56.488C27.4228 55.0023 26.1684 52.9526 25.9092 50.472C25.7274 48.7319 26.0474 46.9928 26.5774 45.5526C26.6376 45.389 26.6813 45.2824 26.7002 45.2404L24.3806 44.1188Z" fill="#FFE380"/>
<path d="M214.9 37.9664C218.827 29.4388 228.243 24.7696 237.513 26.753C246.783 28.7365 253.399 36.8357 253.4 46.2038C253.398 52.1148 250.737 57.7193 246.136 61.4998" stroke="#E7EEFD" stroke-width="1.15598"/>
<path d="M236.46 153.46H251.86L250.32 147.3H234.92L236.46 153.46Z" fill="#2FB7EC"/>
<path d="M261.1 151.92H231.84C230.989 151.92 230.3 152.61 230.3 153.46V168.86C230.3 169.711 230.989 170.4 231.84 170.4H259.56C260.411 170.4 261.1 169.711 261.1 168.86V151.92Z" fill="#79D6FA"/>
<rect width="15.4" height="18.48" rx="1.54" transform="matrix(-1 0 0 1 261.1 151.92)" fill="#2FB7EC"/>
<path d="M261.1 151.92H245.7L247.24 145.76H262.64L261.1 151.92Z" fill="white"/>
<path d="M261.1 151.92V158.08H265.72L261.1 151.92Z" fill="#001D53"/>
<rect width="6.16" height="2.31" transform="matrix(-1 0 0 1 251.86 165.78)" fill="#006BA0"/>
<rect width="1.54" height="2.31" transform="matrix(-1 0 0 1 245.7 165.78)" fill="#2FB7EC"/>
<path d="M199.5 141.14C199.5 140.29 200.189 139.6 201.04 139.6H234.92C235.771 139.6 236.46 140.29 236.46 141.14V170.4H199.5V141.14Z" fill="#FFC72C"/>
<path d="M199.5 141.14C199.5 140.29 200.189 139.6 201.04 139.6H224.14V170.4H199.5V141.14Z" fill="#FFE380"/>
<rect x="213.36" y="165.01" width="6.16" height="3.08" fill="#1A4379"/>
<path d="M205.66 139.6H214.9V147.3L213.372 146.53L211.82 147.3L210.28 146.53L208.74 147.3L207.2 146.53L205.66 147.3V139.6Z" fill="#1A4379"/>
<path d="M233.38 139.6V147.3L231.84 146.53L231.07 147.3L230.3 146.53L228.76 147.3V139.6H233.38Z" fill="#1A4379"/>
<path d="M190.7 168.922C190.7 168.106 191.362 167.445 192.178 167.445H199.5V170.4H192.178C191.362 170.4 190.7 169.738 190.7 168.922Z" fill="#9EB9F7" fill-opacity="0.5"/>
<path d="M185.2 168.922C185.2 168.106 185.862 167.445 186.678 167.445H187.022C187.838 167.445 188.5 168.106 188.5 168.922C188.5 169.738 187.838 170.4 187.022 170.4H186.678C185.861 170.4 185.2 169.738 185.2 168.922Z" fill="#9EB9F7" fill-opacity="0.5"/>
</svg>
