<svg width="339" height="88" viewBox="0 0 339 88" fill="none" xmlns="http://www.w3.org/2000/svg">
<path d="M257.474 88C257.474 88 271.697 54.5887 266.109 46.1829C260.52 37.7781 251.019 42.2608 247.108 48.4247C247.108 48.4247 247.254 25.1752 228.18 33.9987C209.107 42.8212 213.418 88 213.418 88H257.474Z" fill="white"/>
<path d="M333.339 88C333.339 88 341.443 68.9079 338.259 64.1045C335.074 59.3018 329.661 61.8633 327.433 65.3856C327.433 65.3856 327.516 52.1001 316.649 57.1421C305.782 62.1835 308.238 88 308.238 88H333.339Z" fill="white"/>
<path d="M4.74788 88C4.74788 88 -2.04866 71.891 0.621687 67.8382C3.2925 63.7859 7.83241 65.9471 9.70152 68.9191C9.70152 68.9191 9.63165 57.7095 18.746 61.9637C27.8603 66.2174 25.8004 88 25.8004 88H4.74788Z" fill="white"/>
<path d="M87.2711 88C91.7754 76.3346 95.5432 63.8394 96.6594 56.3809C98.4427 44.4592 95.7677 36.4132 89.2287 35.518C82.6909 34.6239 77.8701 46.002 77.8701 46.002C77.8701 46.002 75.0881 29.8863 70.1433 19.3498C65.1974 8.8111 54.6897 3.85375 47.8888 12.2204C41.089 20.588 46.2584 51.3367 46.2584 51.3367C45.2865 50.6934 37.1203 45.4027 32.3102 48.4796C27.1398 51.788 29.3347 62.525 30.2702 67.0964C31.8216 74.689 35.8701 82.2654 40.1125 88" fill="white"/>
<path d="M134 12L179 57H89L134 12Z" stroke="#C3D4FA"/>
<path d="M134 12L179 57H89L134 12Z" stroke="#C3D4FA"/>
<path d="M318 40H258V88H318V40Z" fill="#C3D4FA"/>
<path d="M298 74H310V80H298V74Z" fill="#E7EEFD"/>
<path opacity="0.3" d="M278 40H258V88H278V40Z" fill="#376EEE"/>
<path d="M100.07 0H227.481C227.99 4.96098e-05 228.493 0.110761 228.955 0.324493C229.418 0.538226 229.828 0.84989 230.159 1.23798C230.489 1.62606 230.731 2.08133 230.869 2.57236C231.007 3.06339 231.036 3.57848 230.956 4.0821L217.539 88H83L96.5961 2.96751C96.7285 2.14 97.1509 1.38679 97.7876 0.842973C98.4243 0.299154 99.2336 0.00029865 100.07 0Z" fill="#C3D4FA"/>
<path d="M103.809 7.00109L92 81H212.191L224 7L103.809 7.00109Z" fill="white"/>
<path d="M54.5128 81H214.487C215.419 81 216.312 81.3687 216.971 82.0251C217.63 82.6815 218 83.5717 218 84.5C218 85.4283 217.63 86.3185 216.971 86.9749C216.312 87.6312 215.419 88 214.487 88H54.5128C53.5812 88 52.6877 87.6312 52.0289 86.9749C51.3701 86.3185 51 85.4283 51 84.5C51 83.5717 51.3701 82.6815 52.0289 82.0251C52.6877 81.3687 53.5812 81 54.5128 81Z" fill="#C3D4FA"/>
<path d="M151.494 81H219L218.384 85.0266C218.257 85.8543 217.838 86.6092 217.204 87.1546C216.57 87.7 215.762 87.9999 214.926 88H151.494C150.567 88 149.678 87.6312 149.023 86.9749C148.368 86.3185 148 85.4283 148 84.5C148 83.5717 148.368 82.6815 149.023 82.0251C149.678 81.3687 150.567 81 151.494 81Z" fill="#C3D4FA"/>
<path d="M141 70H101V71H141V70Z" fill="#376EEE" fill-opacity="0.1"/>
<path d="M141 62H101V63H141V62Z" fill="#376EEE" fill-opacity="0.1"/>
<path d="M246 56H206V88H246V56Z" fill="#C3D4FA"/>
<path d="M232.667 78.6667H240.667V82.6667H232.667V78.6667Z" fill="#E7EEFD"/>
<path opacity="0.3" d="M219.333 56H206V88H219.333V56Z" fill="#376EEE"/>
<path fill-rule="evenodd" clip-rule="evenodd" d="M17.8096 65.1274L20.793 88.0002H39.4889L42.2735 65.1274H17.8096Z" fill="#C3D4FA"/>
<path fill-rule="evenodd" clip-rule="evenodd" d="M13.6299 60.5518L15.6187 66.5186H44.1933L46.0495 60.5518H13.6299Z" fill="#C3D4FA"/>
<path fill-rule="evenodd" clip-rule="evenodd" d="M11 53.1939C11 53.1939 14.1823 50.6082 15.3757 51.6028C16.5692 52.5974 20.348 60.553 20.348 60.553H24.9225C24.9225 60.553 16.768 41.8571 11 53.1939Z" fill="#8CACF6"/>
<path fill-rule="evenodd" clip-rule="evenodd" d="M33.0781 60.5531C33.0781 60.5531 41.4315 49.8128 49.7852 48.2217C49.7852 48.2217 46.4041 55.7797 38.2492 60.5531H33.0781Z" fill="#8CACF6"/>
<path fill-rule="evenodd" clip-rule="evenodd" d="M18.2316 28.5312C18.2316 28.5312 16.039 48.8183 24.1348 60.5531H27.5077C27.5077 60.5531 23.4602 40.4649 18.2316 28.5312Z" fill="#8CACF6"/>
<path fill-rule="evenodd" clip-rule="evenodd" d="M24.634 16C24.634 16 23.2417 47.6242 27.2198 60.5521H31.098C31.098 60.5521 35.1754 37.0828 24.634 16Z" fill="#8CACF6"/>
<path fill-rule="evenodd" clip-rule="evenodd" d="M30.3921 60.5529C35.115 46.4529 34.6684 25.3487 51.3755 17.3931C41.0272 27.8297 48.3921 42.4535 33.0773 60.5529H30.3921Z" fill="#8CACF6"/>
<rect x="181" y="43" width="20" height="28" fill="#E7EEFD"/>
<rect x="145" y="43" width="36" height="28" fill="#C3D4FA"/>
<rect opacity="0.4" x="149" y="47" width="16" height="14" fill="#8CACF6"/>
<rect opacity="0.4" x="149" y="47" width="4" height="14" fill="#8CACF6"/>
<rect x="164" y="57" width="9" height="14" fill="#C3D4FA"/>
<rect x="166" y="59" width="5" height="12" fill="#8CACF6"/>
<path d="M173 57L177 49V71H173V57Z" fill="#E7EEFD"/>
<path d="M191 23L201 43H181L191 23Z" fill="#E7EEFD"/>
<path d="M154.333 23H191L181 43H145L154.333 23Z" fill="#C3D4FA"/>
<path d="M168.232 49H177L173 57H164L168.232 49Z" fill="white"/>
<rect x="156" y="26" width="6" height="6" fill="white"/>
<path opacity="0.4" d="M162 32V26H164V29L162 32Z" fill="#8CACF6"/>
<path opacity="0.4" d="M164 57V71H156L164 57Z" fill="#8CACF6"/>
<path fill-rule="evenodd" clip-rule="evenodd" d="M147 21C148.105 21 149 21.8954 149 23V39C149 40.1046 148.105 41 147 41H140L137 45L134 41H127C125.895 41 125 40.1046 125 39V23C125 21.8954 125.895 21 127 21H147Z" fill="#2FB7EC"/>
<path fill-rule="evenodd" clip-rule="evenodd" d="M143.992 28.5232C143.495 28.5232 143.034 28.9012 142.965 29.3629L142.461 32.8022C142.405 33.1769 142.213 33.502 141.885 33.7773C141.557 34.0528 141.187 34.1905 140.777 34.1905C140.378 34.1905 140.055 34.0556 139.808 33.7854C139.56 33.5155 139.465 33.1881 139.522 32.8022L139.826 30.7151C139.836 30.2985 139.501 29.9725 139.04 29.9725H137.833C137.372 29.9725 136.941 30.2985 136.827 30.7151L136.513 32.8022C136.456 33.1881 136.264 33.5155 135.936 33.7854C135.609 34.0556 135.246 34.1905 134.847 34.1905C134.448 34.1905 134.123 34.0528 133.87 33.7773C133.618 33.502 133.519 33.1769 133.575 32.8022L134.251 28.2388C134.322 27.7945 134.041 27.3302 133.611 27.1417C133.611 27.1417 128.52 25.1581 128.189 25.0306C127.853 24.9021 127.472 25.1902 127.342 25.671L127.031 26.819C126.901 27.2997 127.194 27.8464 127.683 28.0336L131.095 29.3539L130.584 32.8022C130.412 33.9588 130.702 34.9482 131.455 35.7687C132.207 36.5899 133.199 37 134.431 37C135.568 37 136.607 36.6421 137.546 35.9257C138.296 36.6421 139.234 37 140.36 37C141.592 37 142.706 36.5899 143.701 35.7687C144.697 34.9482 145.28 33.9588 145.452 32.8022C145.452 32.8022 145.986 29.1632 145.996 29.0995C146.043 28.7823 145.675 28.5232 145.179 28.5232H143.992Z" fill="white"/>
</svg>
