<svg width="56" height="56" viewBox="0 0 56 56" fill="none" xmlns="http://www.w3.org/2000/svg">
<path fill-rule="evenodd" clip-rule="evenodd" d="M28 56C43.464 56 56 43.464 56 28C56 12.536 43.464 0 28 0C12.536 0 0 12.536 0 28C0 43.464 12.536 56 28 56Z" fill="white"/>
<path fill-rule="evenodd" clip-rule="evenodd" d="M28 56C43.464 56 56 43.464 56 28C56 12.536 43.464 0 28 0C12.536 0 0 12.536 0 28C0 43.464 12.536 56 28 56Z" fill="#E6F7FF"/>
<path d="M11.2 13.2C11.2 12.0954 12.0954 11.2 13.2 11.2H42.7999C43.9045 11.2 44.7999 12.0954 44.7999 13.2V42.8C44.7999 43.9046 43.9045 44.8 42.7999 44.8H13.2C12.0954 44.8 11.2 43.9046 11.2 42.8V13.2Z" fill="#79D6FA"/>
<path d="M15.4 15.4H40.6V21V35L35 40.6H15.4V15.4Z" fill="white"/>
<rect x="19.6" y="22.4" width="16.8" height="2.1" fill="#79D6FA" fill-opacity="0.4"/>
<rect x="19.6" y="26.6" width="16.8" height="2.1" fill="#79D6FA" fill-opacity="0.4"/>
<rect x="19.6" y="30.8" width="16.8" height="2.1" fill="#79D6FA" fill-opacity="0.4"/>
<path d="M21 9.79999H35V15.4H21V9.79999Z" fill="#006BA0"/>
<path d="M37.8 37.8L40.6 35.0416C40.6 35.0186 40.5828 35 40.5616 35H35.0383C35.0173 35 35 35.0186 35 35.0416V40.5585C35 40.5815 35.0173 40.6 35.0383 40.6L37.8 37.8Z" fill="#79D6FA" fill-opacity="0.4"/>
<circle cx="28" cy="11.2" r="4.2" fill="#006BA0"/>
<circle cx="28" cy="11.2" r="1.4" fill="white"/>
</svg>
