<svg width="27" height="22" viewBox="0 0 27 22" fill="none" xmlns="http://www.w3.org/2000/svg">
<path d="M0.899902 2C0.899902 0.89543 1.79533 0 2.8999 0H24.1999C25.3045 0 26.1999 0.895431 26.1999 2V20C26.1999 21.1046 25.3045 22 24.1999 22H2.8999C1.79533 22 0.899902 21.1046 0.899902 20V2Z" fill="#79D6FA"/>
<path d="M19.5996 0H24.1996C25.3042 0 26.1996 0.895431 26.1996 2V20C26.1996 21.1046 25.3042 22 24.1996 22H19.5996V0Z" fill="#2FB7EC"/>
<path d="M6.39941 0L15.1997 0V6.6L12.9997 5.5L10.8193 6.6L8.59968 5.5L6.39941 6.6V0Z" fill="#006BA0"/>
<rect x="11.8994" y="16.5" width="5.5" height="2.2" fill="white"/>
</svg>
