<svg width="14" height="14" viewBox="0 0 14 14" fill="none" xmlns="http://www.w3.org/2000/svg">
<path d="M5.99937 5.99937V1.99687C5.99937 1.44424 6.44737 0.996246 7 0.996246C7.55263 0.996246 8.00062 1.44424 8.00062 1.99687V5.99937H12.0031C12.5558 5.99937 13.0037 6.44737 13.0037 7C13.0037 7.55263 12.5558 8.00062 12.0031 8.00062H8.00062V12.0031C8.00062 12.5558 7.55263 13.0037 7 13.0037C6.44737 13.0037 5.99937 12.5558 5.99937 12.0031V8.00062H1.99687C1.44424 8.00062 0.996246 7.55263 0.996246 7C0.996246 6.44737 1.44424 5.99937 1.99687 5.99937H5.99937Z" fill="#376EEE"/>
</svg>
