<svg width="155" height="140" viewBox="0 0 155 140" fill="none" xmlns="http://www.w3.org/2000/svg">
<path fill-rule="evenodd" clip-rule="evenodd" d="M25.4451 139.472H129.347C144.976 124.875 154.792 103.788 154.792 80.3371C154.792 36.2777 120.141 0.560547 77.3962 0.560547C34.6515 0.560547 0 36.2777 0 80.3371C0 103.788 9.81653 124.875 25.4451 139.472Z" fill="#E7EEFD"/>
<mask id="mask0" mask-type="alpha" maskUnits="userSpaceOnUse" x="0" y="0" width="155" height="140">
<path fill-rule="evenodd" clip-rule="evenodd" d="M25.4451 139.472H129.347C144.976 124.875 154.792 103.788 154.792 80.3371C154.792 36.2777 120.141 0.560547 77.3962 0.560547C34.6515 0.560547 0 36.2777 0 80.3371C0 103.788 9.81653 124.875 25.4451 139.472Z" fill="white"/>
</mask>
<g mask="url(#mask0)">
<rect x="28.0444" y="86.8926" width="15.4224" height="35.8372" rx="2" fill="url(#paint0_linear)"/>
<path opacity="0.48" fill-rule="evenodd" clip-rule="evenodd" d="M34.001 140.5L7.50094 114L56.2007 79.4507L68.1834 91.8173L34.001 140.5Z" fill="#C3D4FA"/>
<rect x="69.6851" y="75.6938" width="15.4224" height="47.0363" rx="2" fill="url(#paint1_linear)"/>
<rect x="90.5054" y="46.5759" width="15.4224" height="76.154" rx="2" fill="url(#paint2_linear)"/>
<rect x="111.326" y="34.2571" width="15.4224" height="88.4731" rx="2" fill="url(#paint3_linear)"/>
<path d="M147.138 125.854C151.023 125.854 154.174 122.607 154.174 118.601C154.174 114.596 151.023 111.349 147.138 111.349C143.252 111.349 140.102 114.596 140.102 118.601C140.102 122.607 143.252 125.854 147.138 125.854Z" fill="#F8FAFB"/>
<path d="M137.954 134.97C142.377 134.97 145.962 131.274 145.962 126.716C145.962 122.157 142.377 118.462 137.954 118.462C133.532 118.462 129.947 122.157 129.947 126.716C129.947 131.274 133.532 134.97 137.954 134.97Z" fill="#F8FAFB"/>
<path d="M9.59242 128.354C13.4783 128.354 16.6284 125.107 16.6284 121.102C16.6284 117.096 13.4783 113.849 9.59242 113.849C5.70653 113.849 2.5564 117.096 2.5564 121.102C2.5564 125.107 5.70653 128.354 9.59242 128.354Z" fill="#F8FAFB"/>
<path d="M16.5386 133.735C20.9611 133.735 24.5463 130.039 24.5463 125.481C24.5463 120.922 20.9611 117.227 16.5386 117.227C12.1161 117.227 8.53101 120.922 8.53101 125.481C8.53101 130.039 12.1161 133.735 16.5386 133.735Z" fill="#F8FAFB"/>
<path d="M115.497 143.861C128.134 143.861 138.379 134.12 138.379 122.104C138.379 110.088 128.134 100.347 115.497 100.347C102.86 100.347 92.6157 110.088 92.6157 122.104C92.6157 134.12 102.86 143.861 115.497 143.861Z" fill="white"/>
<path d="M38.8442 145.347C51.2706 145.347 61.3442 135.273 61.3442 122.847C61.3442 110.421 51.2706 100.347 38.8442 100.347C26.4178 100.347 16.3442 110.421 16.3442 122.847C16.3442 135.273 26.4178 145.347 38.8442 145.347Z" fill="#F8FAFB"/>
<path d="M77.3613 230.517C111.06 230.517 138.378 204.54 138.378 172.497C138.378 140.454 111.06 114.478 77.3613 114.478C43.6625 114.478 16.3442 140.454 16.3442 172.497C16.3442 204.54 43.6625 230.517 77.3613 230.517Z" fill="white"/>
</g>
<path fill-rule="evenodd" clip-rule="evenodd" d="M84.1496 89.1732L85.6807 75.8695L75.7593 86.1089L77.187 96.3589L84.1496 89.1732ZM58.59 62.7959L71.4806 61.2157L61.5592 71.455L51.6274 69.9816L58.59 62.7959Z" fill="#CA213C"/>
<path d="M101.268 62.701C97.6639 71.4127 79.7143 84.3365 74.4056 88.0208C73.5406 88.6212 72.398 88.4908 71.6608 87.73L59.9888 75.684C59.2516 74.9232 59.1253 73.744 59.707 72.8512C63.2768 67.3724 75.7986 48.8467 84.2348 45.1218C88.7647 49.7968 95.5943 56.8453 101.268 62.701Z" fill="white"/>
<path d="M84.2348 45.1218C87.065 48.0427 92.7545 53.9144 92.7545 53.9144L65.8248 81.707L59.9888 75.684C59.2516 74.9232 59.1253 73.744 59.707 72.8512C63.2768 67.3724 75.7986 48.8467 84.2348 45.1218Z" fill="#EEF2F5"/>
<path d="M60.1441 75.8461L54.473 78.7679L68.6724 93.4223L71.5045 87.5686L60.1441 75.8461Z" fill="#CA213C"/>
<path d="M81.4156 65.6165C83.7683 68.0445 87.5791 68.0481 89.9275 65.6245C92.2758 63.2009 92.2724 59.2679 89.9197 56.8399C87.5671 54.4119 83.7562 54.4083 81.4079 56.8319C79.0595 59.2555 79.063 63.1885 81.4156 65.6165Z" fill="#376EEE"/>
<path d="M105.511 40.7494C102.675 37.8228 88.4914 43.6595 84.2348 45.1217C84.2348 45.1217 89.873 50.9405 92.7544 53.9143C95.5527 56.8022 101.274 62.7069 101.274 62.7069C102.691 58.3139 108.35 43.6803 105.511 40.7494Z" fill="#CA213C"/>
<path d="M50.2462 98.2535C50.3126 88.5037 54.3897 85.8199 59.0318 83.4494L64.5907 89.1864C62.2938 93.9773 59.6933 98.185 50.2462 98.2535Z" fill="#FFE380"/>
<path d="M61.484 86.6554C61.484 86.6554 61.0272 92.8639 55.7014 92.6233C55.4737 87.1212 61.484 86.6554 61.484 86.6554Z" fill="url(#paint4_linear)"/>
<defs>
<linearGradient id="paint0_linear" x1="28.0444" y1="86.8926" x2="28.0444" y2="122.73" gradientUnits="userSpaceOnUse">
<stop stop-color="white" stop-opacity="0"/>
<stop offset="0.791667" stop-color="#C3D4FA"/>
</linearGradient>
<linearGradient id="paint1_linear" x1="69.6851" y1="75.6938" x2="69.6851" y2="122.73" gradientUnits="userSpaceOnUse">
<stop stop-color="white" stop-opacity="0"/>
<stop offset="0.791667" stop-color="#C3D4FA"/>
</linearGradient>
<linearGradient id="paint2_linear" x1="90.5054" y1="46.5759" x2="90.5054" y2="122.73" gradientUnits="userSpaceOnUse">
<stop stop-color="white" stop-opacity="0"/>
<stop offset="0.791667" stop-color="#C3D4FA"/>
</linearGradient>
<linearGradient id="paint3_linear" x1="111.326" y1="34.2571" x2="111.326" y2="122.73" gradientUnits="userSpaceOnUse">
<stop stop-color="white" stop-opacity="0"/>
<stop offset="0.791667" stop-color="#C3D4FA"/>
</linearGradient>
<linearGradient id="paint4_linear" x1="57.0912" y1="94.0575" x2="63.056" y2="88.2779" gradientUnits="userSpaceOnUse">
<stop stop-color="#FFD560"/>
<stop offset="1" stop-color="#F0B616"/>
</linearGradient>
</defs>
</svg>
