<svg width="238" height="88" viewBox="0 0 238 88" fill="none" xmlns="http://www.w3.org/2000/svg">
<path d="M101.2 39.6001H57.2001L61.6001 22.0001H105.6L101.2 39.6001Z" fill="url(#paint0_linear)"/>
<path d="M30.7998 35.2002H113.8C116.561 35.2002 118.8 37.4388 118.8 40.2002V83.0002C118.8 85.7616 116.561 88.0002 113.8 88.0002H35.7998C33.0384 88.0002 30.7998 85.7616 30.7998 83.0002V35.2002Z" fill="#79D6FA"/>
<path d="M30.7998 35.2002H74.7998V88.0002H30.7998V35.2002Z" fill="#2FB7EC"/>
<path d="M30.7999 35.2002H74.7999L70.3999 17.6002H26.3999L30.7999 35.2002Z" fill="url(#paint1_linear)"/>
<path d="M30.8001 35.2002V52.8002H17.6001L30.8001 35.2002Z" fill="url(#paint2_linear)"/>
<rect x="57.2002" y="74.7998" width="17.6" height="6.6" fill="#006BA0"/>
<rect x="74.7998" y="74.7998" width="4.4" height="6.6" fill="#2FB7EC"/>
<path d="M92.3999 5C92.3999 2.23858 94.6385 0 97.3999 0H175.4C178.161 0 180.4 2.23858 180.4 5V88H97.3999C94.6385 88 92.3999 85.7614 92.3999 83V5Z" fill="#FFF0BB"/>
<path d="M92.3999 5C92.3999 2.23858 94.6385 0 97.3999 0H154V88H97.3999C94.6385 88 92.3999 85.7614 92.3999 83V5Z" fill="#FFDF85"/>
<path d="M110 0H136.4V22L132.034 19.8L127.6 22L123.2 19.8L118.8 22L114.4 19.8L110 22V0Z" fill="#FFC72C"/>
<path d="M167.2 19.7998H169.4V87.9998H167.2V19.7998Z" fill="#FFC72C"/>
<path d="M162.8 0H171.6V22L167.2 19.8L162.8 22V0Z" fill="#FFC72C"/>
<path d="M180.4 52.7998H215.6V87.9998H180.4V52.7998Z" fill="url(#paint3_linear)"/>
<rect x="196" y="80.0996" width="8.8" height="4.4" fill="white"/>
<path d="M187 52.7998H204.6V63.7998L200.2 61.5998L196.565 63.7998L191.4 61.5998L187 63.7998V52.7998Z" fill="#2FB7EC"/>
<path d="M209 52.7998H215.6V87.9998H209V52.7998Z" fill="#79D6FA"/>
<path d="M0 68.5C0 67.1193 1.11929 66 2.5 66H19.5C20.8807 66 22 67.1193 22 68.5V88H0V68.5Z" fill="#2FB7EC"/>
<rect x="6.6001" y="66" width="8.8" height="6.6" fill="#8BDCFB"/>
<path d="M215.6 66H237.6V88H215.6V66Z" fill="url(#paint4_linear)"/>
<rect x="222.2" y="66" width="8.8" height="6.6" fill="#2FB7EC"/>
<defs>
<linearGradient id="paint0_linear" x1="129.8" y1="33.0634" x2="122.925" y2="7.60945" gradientUnits="userSpaceOnUse">
<stop stop-color="#EEF2F5"/>
<stop offset="1" stop-color="#AFC7D1" stop-opacity="0.8"/>
</linearGradient>
<linearGradient id="paint1_linear" x1="6.93076" y1="28.4361" x2="14.1894" y2="2.46667" gradientUnits="userSpaceOnUse">
<stop stop-color="white"/>
<stop offset="1" stop-color="#EEF2F5"/>
</linearGradient>
<linearGradient id="paint2_linear" x1="24.2001" y1="26.4002" x2="7.3041" y2="39.0722" gradientUnits="userSpaceOnUse">
<stop stop-color="#CEF2FD"/>
<stop offset="1" stop-color="#8BDCFB"/>
</linearGradient>
<linearGradient id="paint3_linear" x1="233.2" y1="70.3998" x2="198" y2="35.1998" gradientUnits="userSpaceOnUse">
<stop stop-color="#CEF2FD"/>
<stop offset="1" stop-color="#8BDCFB"/>
</linearGradient>
<linearGradient id="paint4_linear" x1="248.6" y1="77" x2="226.6" y2="55" gradientUnits="userSpaceOnUse">
<stop stop-color="#CEF2FD"/>
<stop offset="1" stop-color="#8BDCFB"/>
</linearGradient>
</defs>
</svg>
