<svg width="434" height="180" viewBox="0 0 434 180" fill="none" xmlns="http://www.w3.org/2000/svg">
<mask id="mask0" mask-type="alpha" maskUnits="userSpaceOnUse" x="0" y="0" width="434" height="180">
<rect width="433.8" height="180" fill="#C4C4C4"/>
</mask>
<g mask="url(#mask0)">
<path d="M318.857 158.999C295.713 56.539 176.784 84.5402 167.784 137.999C148.498 108.088 114.427 125.907 118.927 148.817C74.5699 111.906 6.42703 137.999 0 180H30.8556H116.998H354.213H390.856H434.571C401.784 120.815 318.857 158.999 318.857 158.999Z" fill="#E6F7FF"/>
<mask id="mask1" mask-type="alpha" maskUnits="userSpaceOnUse" x="216" y="44" width="89" height="70">
<path fill-rule="evenodd" clip-rule="evenodd" d="M229.416 44.958L304.307 64.8377L291.32 113.763L216.428 93.8835L229.416 44.958Z" fill="white"/>
</mask>
<g mask="url(#mask1)">
<path fill-rule="evenodd" clip-rule="evenodd" d="M241.338 68.5591L236.936 83.3012C236.936 83.3012 244.983 95.4693 257.414 99.4747C272.596 100.51 279.504 100.855 287.433 101.2C295.368 101.545 292.429 95.3244 290.928 89.0987C289.428 82.8731 273.41 78.8503 273.08 75.1551C271.407 63.7213 251.986 66.0611 251.718 60.6953C251.542 57.1915 249.857 50.3142 243.248 49.5259C236.639 48.7427 233.608 52.9152 232.151 56.0503L241.338 68.5591Z" fill="#692E20"/>
</g>
<path fill-rule="evenodd" clip-rule="evenodd" d="M229.865 76.9999C232.054 71.8344 221.13 69.8126 230.156 60.486C233.109 62.556 235.768 65.6525 238.718 67.7243L238.836 84.1784L229.865 76.9999Z" fill="#692E20"/>
<path fill-rule="evenodd" clip-rule="evenodd" d="M221.395 76.0809C221.395 76.0809 214.74 74.5376 207.798 84.6777C200.855 94.8177 195.997 96.7145 195.997 96.7145L185.301 76.0121L171.499 73.9418C171.499 73.9418 177.386 104.058 182.885 108.092C188.386 112.129 197.212 123.098 201.835 116.851C206.457 110.607 208.152 108.092 208.152 108.092L209.454 117.762L216.01 119.832L227.198 120.495L227.148 120.511C229.863 127.412 235.173 138.706 244.291 138.874C255.798 139.088 258.035 124.906 258.715 119.119C259.4 113.336 259.357 97.9819 257.129 92.9863C254.904 87.9889 249.892 83.1959 249.892 83.1959L221.395 76.0809Z" fill="#FACFCD"/>
<path fill-rule="evenodd" clip-rule="evenodd" d="M221.394 76.0814C233.553 84.9453 249.891 83.1964 249.891 83.1964C247.293 81.5195 243.811 79.4356 241.533 78.0938C240.138 77.2688 239.464 75.621 239.88 74.0552L241.339 68.5587C241.93 68.4411 244.245 67.8962 245.037 66.1101C245.176 65.7892 245.588 64.8737 245.15 64.2864C244.827 63.8509 244.22 63.8245 244.035 63.8155C243.045 63.7627 242.375 64.5344 242.266 64.659C241.48 63.5464 240.6 62.0968 239.84 60.3078C238.904 58.1087 238.454 56.1059 238.228 54.5636C236.203 55.0591 234.177 55.5545 232.149 56.0493C230.84 58.5993 229.502 61.7443 229.321 64.2709C229.258 65.177 229.172 66.5047 229.916 67.8054C230.708 69.2019 232.165 70.0676 232.734 70.407L233.936 71.0784C233.936 71.0784 232.762 74.1243 231.808 75.2944C230.852 76.4613 224.705 75.5396 221.394 76.0814Z" fill="#D38F64"/>
<path fill-rule="evenodd" clip-rule="evenodd" d="M237.661 62.0681C237.467 62.544 237.113 62.8536 236.874 62.7524C236.639 62.655 236.604 62.1884 236.802 61.7138C236.996 61.2379 237.347 60.9301 237.587 61.0288C237.824 61.1294 237.857 61.5929 237.661 62.0681Z" fill="#231F20"/>
<path fill-rule="evenodd" clip-rule="evenodd" d="M232.284 59.8009C232.088 60.2762 231.737 60.584 231.497 60.4852C231.263 60.3853 231.227 59.9212 231.426 59.4466C231.619 58.9707 231.971 58.6604 232.208 58.761C232.448 58.8597 232.478 59.325 232.284 59.8009Z" fill="#231F20"/>
<path fill-rule="evenodd" clip-rule="evenodd" d="M231.99 56.7797C231.852 56.743 231.752 56.6224 231.749 56.4735C231.742 56.2943 231.887 56.1443 232.066 56.1406C232.363 56.1361 232.656 56.1656 232.935 56.2314C233.224 56.3081 233.519 56.4215 233.793 56.575C233.95 56.6649 234.005 56.8625 233.915 57.0189C233.83 57.1766 233.626 57.2355 233.471 57.1405C233.251 57.0175 233.025 56.9146 232.781 56.8631C232.558 56.8094 232.322 56.7871 232.081 56.7905C232.049 56.79 232.02 56.7877 231.99 56.7797Z" fill="#231F20"/>
<path fill-rule="evenodd" clip-rule="evenodd" d="M232.916 67.3867C232.751 67.3212 232.121 66.5624 232.187 66.3944C232.253 66.2263 232.449 66.1276 232.609 66.2106C233.775 66.6545 234.487 65.9395 234.494 65.9308C234.62 65.8027 234.824 65.7949 234.954 65.9128C235.085 66.0365 235.093 66.2403 234.972 66.3723C234.324 67.0757 233.764 67.7289 232.916 67.3867Z" fill="#231F20"/>
<path fill-rule="evenodd" clip-rule="evenodd" d="M109.633 77.6827L109.627 77.7439C107.801 78.4856 105.476 79.7042 105.263 81.5441C105.142 82.5029 105.665 83.2737 105.85 83.5691C106.885 85.2406 108.053 88.5544 108.394 95.8824L108.411 95.9056L113.277 97.486L113.389 96.4L116.868 96.7604C117.111 94.2047 117.353 91.6514 117.596 89.098C116.913 88.8154 115.948 88.3581 114.973 87.5596C113.399 86.2965 112.658 84.9293 111.859 83.4727C111.149 82.1944 110.27 80.2652 109.67 77.7484C109.653 77.7061 109.655 77.6849 109.633 77.6827Z" fill="#D38F64"/>
<path fill-rule="evenodd" clip-rule="evenodd" d="M203.933 122.938C203.933 122.938 181.779 95.6927 175.969 92.6579C170.159 89.6231 169.427 89.1237 153.555 88.4336C137.683 87.7435 114.221 85.3282 114.221 85.3282L110.425 115.002L164.943 111.207L175.969 138.81L240.851 138.81L242.922 127.768L209.453 117.762L203.933 122.938Z" fill="#225E9B"/>
<path fill-rule="evenodd" clip-rule="evenodd" d="M108.66 95.6213L101.282 93.1804L103.949 67.4407C104.052 66.9558 104.222 66.8057 104.363 66.7628C105.192 66.4943 106.715 69.3175 108.559 72.7294C109.934 75.2737 110.393 76.4444 109.883 77.3638C109.724 77.6514 109.608 77.6634 108.526 78.4924C106.789 79.8187 105.918 80.4972 105.686 81.158C105.372 82.0498 106.02 82.6246 106.727 84.4029C108.59 89.0932 108.627 93.3261 108.64 95.0373C108.642 95.2746 108.639 95.4706 108.639 95.5927L108.66 95.6213Z" fill="#070100"/>
<path fill-rule="evenodd" clip-rule="evenodd" d="M130.571 155.252C131.768 154.624 132.889 154.225 133.825 153.962C132.509 151.735 131.197 149.505 129.879 147.275C129.187 147.441 128.142 147.615 126.876 147.539C124.897 147.417 123.49 146.749 121.987 146.016C120.684 145.381 118.843 144.323 116.887 142.609C116.849 142.581 116.825 142.57 116.82 142.575C116.816 142.578 116.826 142.599 116.853 142.636C115.843 144.268 114.725 146.605 115.629 148.242C116.101 149.093 116.939 149.438 117.265 149.583C119.047 150.376 121.897 152.446 126.538 158.153C126.551 158.156 126.562 158.161 126.572 158.164L130.571 155.252Z" fill="#D38F64"/>
<mask id="mask2" mask-type="alpha" maskUnits="userSpaceOnUse" x="105" y="133" width="22" height="30">
<path fill-rule="evenodd" clip-rule="evenodd" d="M112.409 133.635L126.967 158.85L120.5 162.584L105.941 137.369L112.409 133.635Z" fill="white"/>
</mask>
<g mask="url(#mask2)">
<path fill-rule="evenodd" clip-rule="evenodd" d="M126.572 158.165L120.499 162.585L106.328 138.011C106.128 137.559 106.177 137.338 106.262 137.22C106.762 136.526 109.626 137.938 113.09 139.641C115.671 140.91 116.72 141.598 116.854 142.636C116.895 142.965 116.81 143.041 116.437 144.336C115.835 146.416 115.539 147.473 115.742 148.144C116.014 149.05 116.866 149.138 118.47 150.176C122.695 152.905 125.201 156.321 126.217 157.703C126.358 157.894 126.469 158.053 126.538 158.154" fill="#070100"/>
</g>
<path fill-rule="evenodd" clip-rule="evenodd" d="M240.383 60.3137C240.295 60.2903 240.219 60.2299 240.173 60.1422C240.01 59.8113 239.623 59.1812 238.89 58.7417C238.442 58.4747 237.925 58.3133 237.395 58.2829C237.22 58.2609 237.081 58.1163 237.091 57.9361C237.103 57.759 237.258 57.6225 237.438 57.6327C238.067 57.6758 238.685 57.8614 239.221 58.1839C240.101 58.7107 240.562 59.4572 240.76 59.8568C240.838 60.0175 240.77 60.2121 240.609 60.293C240.538 60.3279 240.456 60.333 240.383 60.3137Z" fill="#231F20"/>
<path fill-rule="evenodd" clip-rule="evenodd" d="M231.999 136.753C231.999 136.753 190.818 119.765 184.263 119.765C177.708 119.764 128.713 146.401 128.713 146.401L139.755 171.934L185.33 140.467C185.33 140.467 212.785 157.371 216.698 159.099C220.611 160.827 230.785 160.585 237.746 153.579C244.706 146.572 241.032 139.15 241.032 139.15L231.999 136.753Z" fill="#1A4379"/>
<path fill-rule="evenodd" clip-rule="evenodd" d="M233.657 64.1437C233.438 64.0856 233.186 63.9703 233.069 63.7321C233.004 63.6019 232.847 63.2912 234.003 61.6554C234.106 61.508 234.308 61.4781 234.459 61.5775C234.603 61.683 234.639 61.8835 234.535 62.0308C234.168 62.5522 233.767 63.2099 233.686 63.4679C233.766 63.5082 233.923 63.5471 234.056 63.5528C234.227 63.5578 234.371 63.7119 234.368 63.8884C234.36 64.0693 234.21 64.2072 234.029 64.202C233.978 64.2019 233.825 64.1884 233.657 64.1437Z" fill="#B56740"/>
<path fill-rule="evenodd" clip-rule="evenodd" d="M208.068 108.407C207.905 108.363 207.798 108.198 207.832 108.029L212.356 85.6141C212.392 85.438 212.565 85.3251 212.738 85.3604L212.759 85.3658C212.922 85.4091 213.029 85.5722 212.995 85.7432L208.471 108.156C208.435 108.334 208.262 108.447 208.088 108.412L208.068 108.407Z" fill="#F7ADAD"/>
<path fill-rule="evenodd" clip-rule="evenodd" d="M198.828 103.262C198.714 103.265 198.605 103.21 198.565 103.12L195.674 96.7379C195.621 96.624 195.695 96.4982 195.839 96.4579C195.979 96.4143 196.138 96.4715 196.189 96.5856L199.08 102.968C199.133 103.08 199.057 103.208 198.915 103.248C198.885 103.257 198.859 103.261 198.828 103.262Z" fill="#F7ADAD"/>
<path fill-rule="evenodd" clip-rule="evenodd" d="M263.404 111.423L220.475 100.027L215.235 119.767C212.089 131.619 219.149 143.781 231.004 146.928C242.859 150.075 255.018 143.015 258.165 131.162L263.404 111.423Z" fill="#EF7D85"/>
<path fill-rule="evenodd" clip-rule="evenodd" d="M236.563 110.875C235.376 108.51 233.95 105.69 232.303 102.464C231.595 101.076 230.62 99.1994 229.887 99.355C229.535 99.4292 229.345 99.9581 229.232 100.428C229.027 100.036 228.82 99.6423 228.612 99.249C228.117 97.7557 227.453 96.8234 226.993 96.9044C226.464 97.0022 226.304 98.4273 226.279 98.6414C226.175 98.5903 226.079 98.5765 225.991 98.5855C225.501 98.6467 225.1 99.505 224.967 100.717C224.261 100.982 223.925 101.349 223.744 101.642C223.469 102.093 223.63 102.274 223.307 102.779C222.95 103.338 222.588 103.374 222.424 103.878C222.312 104.212 222.368 104.51 222.398 104.676C222.557 105.516 224.193 110.645 226.528 117.63L236.563 110.875Z" fill="#D38F64"/>
<path fill-rule="evenodd" clip-rule="evenodd" d="M226.839 100.348C226.742 100.323 226.657 100.256 226.607 100.157L225.96 98.7941C225.877 98.6164 225.949 98.403 226.127 98.318C226.307 98.2392 226.517 98.3126 226.603 98.4883L227.253 99.8521C227.335 100.03 227.261 100.243 227.082 100.328C227.005 100.363 226.915 100.369 226.839 100.348Z" fill="#B56740"/>
<path fill-rule="evenodd" clip-rule="evenodd" d="M225.327 102.236C225.22 102.208 225.128 102.13 225.084 102.019L224.635 100.843C224.566 100.66 224.655 100.455 224.839 100.383C225.022 100.314 225.228 100.404 225.3 100.588L225.752 101.766C225.821 101.947 225.728 102.154 225.544 102.226C225.473 102.251 225.396 102.254 225.327 102.236Z" fill="#B56740"/>
<path fill-rule="evenodd" clip-rule="evenodd" d="M223.76 104.337C223.656 104.309 223.565 104.232 223.521 104.12L223.047 102.901C222.975 102.72 223.066 102.511 223.249 102.442C223.425 102.365 223.636 102.457 223.706 102.646L224.182 103.867C224.255 104.048 224.164 104.256 223.978 104.324C223.909 104.353 223.829 104.355 223.76 104.337Z" fill="#B56740"/>
<path fill-rule="evenodd" clip-rule="evenodd" d="M228.964 99.8814L228.956 99.8794C228.784 99.8283 228.684 99.6483 228.735 99.4763C230.281 94.1506 235.088 81.8188 246.312 82.3043C249.679 82.4527 252.737 84.4725 254.114 87.4531C254.13 87.4843 254.15 87.5325 254.167 87.5775C254.239 87.7444 254.161 87.9338 253.995 88.0027C253.83 88.069 253.636 87.9962 253.57 87.8306L253.532 87.7399C252.249 84.9643 249.417 83.0853 246.283 82.9529C235.521 82.4879 230.863 94.4801 229.359 99.6581C229.309 99.8277 229.132 99.9261 228.964 99.8814Z" fill="#EF7D85"/>
<path fill-rule="evenodd" clip-rule="evenodd" d="M227.198 120.492L227.147 120.51C229.862 127.411 235.172 138.702 244.29 138.873C255.797 139.087 258.031 124.904 258.714 119.118C258.955 117.084 259.106 113.86 259.101 110.321L259.104 110.282C257.639 109.242 255.171 107.766 251.795 106.934C248.804 106.2 246.241 106.248 244.547 106.418C244.118 111.459 243.692 116.5 243.265 121.544L235.715 109.112L225.563 115.947L227.198 120.492Z" fill="#FACFCD"/>
<path fill-rule="evenodd" clip-rule="evenodd" d="M247.547 129.04C247.469 129.02 247.399 128.969 247.351 128.894L242.986 121.712C242.893 121.558 242.943 121.359 243.097 121.265C243.25 121.174 243.45 121.222 243.544 121.376L247.909 128.558C248.002 128.712 247.952 128.911 247.798 129.005C247.719 129.051 247.629 129.062 247.547 129.04Z" fill="#F7ADAD"/>
<path fill-rule="evenodd" clip-rule="evenodd" d="M244.452 106.77C244.306 106.731 244.204 106.599 244.211 106.442L244.672 94.7596C244.683 94.5793 244.833 94.439 245.011 94.446C245.189 94.4555 245.332 94.6064 245.325 94.7848L244.86 106.469C244.853 106.648 244.703 106.788 244.522 106.78C244.5 106.78 244.474 106.776 244.452 106.77Z" fill="#F7ADAD"/>
<path fill-rule="evenodd" clip-rule="evenodd" d="M287.245 145.188L309.71 151.207L313.83 135.833L291.365 129.813L287.245 145.188Z" fill="#C1E6EC"/>
<path fill-rule="evenodd" clip-rule="evenodd" d="M289.125 133.404L313.909 140.045L314.957 136.135L290.172 129.494L289.125 133.404Z" fill="#C1E6EC"/>
<path fill-rule="evenodd" clip-rule="evenodd" d="M290.122 134.452L312.587 140.472L312.8 139.677L290.335 133.657L290.122 134.452Z" fill="#4DC1BD"/>
<path fill-rule="evenodd" clip-rule="evenodd" d="M293.672 138.944C292.431 139.507 292.219 140.565 292.209 141.179C292.194 142.13 292.629 142.893 292.935 143.002C293.359 143.147 294.291 142.453 294.653 141.746C294.787 141.484 295.152 140.55 294.242 139.485C294.079 139.294 293.887 139.114 293.672 138.944ZM307.931 142.704C307.26 143.205 306.886 143.908 306.751 144.544C306.548 145.506 306.839 146.404 307.491 146.831C307.676 146.951 308.073 147.148 308.388 147.118C308.692 147.09 308.949 146.832 309.093 146.412C309.403 145.508 309.157 143.997 307.931 142.704ZM301.534 141.28C300.76 141.743 300.158 142.414 299.824 143.113C299.434 143.934 299.468 144.682 299.916 145.112C300.257 145.439 300.907 145.684 301.366 145.658C301.695 145.639 301.961 145.474 302.158 145.168C302.557 144.545 302.581 143.454 302.216 142.517C302.033 142.05 301.801 141.64 301.534 141.28ZM300.674 146.159C300.236 146.041 299.801 145.816 299.509 145.537C298.869 144.922 298.789 143.921 299.294 142.861C299.661 142.089 300.316 141.349 301.158 140.825C300.404 140.008 299.488 139.507 298.728 139.206C298.624 139.165 296.274 138.248 294.318 138.725C294.452 138.846 294.576 138.972 294.687 139.103C295.835 140.445 295.351 141.67 295.175 142.013C294.76 142.823 293.569 143.878 292.739 143.555C292.106 143.332 291.605 142.262 291.621 141.17C291.639 140.031 292.176 139.115 293.123 138.567C292.096 137.951 290.733 137.554 289.371 137.515L289.388 136.928C290.99 136.973 292.605 137.489 293.754 138.279C293.791 138.266 293.828 138.254 293.865 138.242C296.028 137.547 298.652 138.544 298.945 138.66C299.803 139.001 300.847 139.577 301.689 140.536C302.471 140.168 303.375 139.986 304.337 140.106C305.587 140.261 306.852 140.901 308.006 141.956C308.383 141.749 308.824 141.592 309.331 141.507C310.173 141.368 311.154 141.443 312.248 141.731L312.098 142.299C311.085 142.033 310.186 141.961 309.426 142.087C309.058 142.148 308.731 142.254 308.444 142.393C309.76 143.846 310.006 145.557 309.647 146.603C309.425 147.251 308.986 147.652 308.442 147.703C307.87 147.756 307.282 147.395 307.17 147.323C306.313 146.762 305.923 145.624 306.177 144.423C306.331 143.689 306.751 142.881 307.499 142.292C306.477 141.389 305.337 140.823 304.264 140.689C303.47 140.59 302.721 140.724 302.064 141.008C302.335 141.388 302.573 141.817 302.762 142.303C303.198 143.422 303.154 144.701 302.651 145.486C302.353 145.951 301.92 146.214 301.399 146.245C301.174 146.257 300.924 146.226 300.674 146.159Z" fill="#4DC1BD"/>
<mask id="mask3" mask-type="alpha" maskUnits="userSpaceOnUse" x="273" y="87" width="37" height="43">
<path fill-rule="evenodd" clip-rule="evenodd" d="M273.326 93.8164L302.596 87.761L309.984 123.474L280.715 129.53L273.326 93.8164Z" fill="white"/>
</mask>
<g mask="url(#mask3)">
<path fill-rule="evenodd" clip-rule="evenodd" d="M274.539 93.5654L280.267 121.251L280.714 129.53L309.984 123.474L307.11 115.698L301.382 88.012C301.382 88.012 276.422 93.2373 274.539 93.5654L280.267 121.251Z" fill="#FECF73"/>
</g>
<path fill-rule="evenodd" clip-rule="evenodd" d="M281.493 94.2647C281.436 93.9878 281.614 93.7173 281.891 93.66C282.168 93.6027 282.438 93.7804 282.495 94.0574C282.553 94.3337 282.375 94.6049 282.098 94.6622C281.821 94.7195 281.55 94.541 281.493 94.2647Z" fill="#FBB136"/>
<path fill-rule="evenodd" clip-rule="evenodd" d="M294.156 91.6446C294.099 91.3676 294.277 91.097 294.553 91.0399C294.83 90.9826 295.101 91.1603 295.158 91.4373C295.215 91.7136 295.038 91.9847 294.761 92.042C294.484 92.0992 294.213 91.9209 294.156 91.6446Z" fill="#FBB136"/>
<path fill-rule="evenodd" clip-rule="evenodd" d="M281.865 94.1403C281.357 92.3225 281.628 90.3454 282.605 88.7164C283.57 87.1071 285.146 85.9667 286.928 85.5877L286.963 85.5804C288.748 85.2111 290.648 85.6204 292.18 86.7061C293.744 87.8138 294.787 89.5294 295.044 91.4138L294.629 91.4696C294.387 89.7019 293.407 88.0913 291.94 87.0517C290.502 86.0328 288.721 85.6481 287.049 85.994L287.016 86.0008C285.346 86.3566 283.87 87.4255 282.964 88.9345C282.046 90.465 281.792 92.3206 282.269 94.0266L281.865 94.1403Z" fill="#FBB136"/>
<mask id="mask4" mask-type="alpha" maskUnits="userSpaceOnUse" x="279" y="115" width="31" height="15">
<path fill-rule="evenodd" clip-rule="evenodd" d="M279.047 121.47L308.316 115.414L309.984 123.474L280.714 129.53L279.047 121.47Z" fill="white"/>
</mask>
<g mask="url(#mask4)">
<path fill-rule="evenodd" clip-rule="evenodd" d="M280.26 121.219L307.103 115.665L309.984 123.474L280.714 129.53L280.26 121.219Z" fill="#FBB136"/>
</g>
<path d="M184.888 56.0002C185.15 56.7183 180.949 60.5588 180.949 60.5588C182.598 66.4867 183.362 70.1731 185.301 76.0126L171.5 73.9424L170.464 70.1469C168.739 69.8019 167.014 69.1118 165.979 68.7667C164.944 68.4217 165.463 66.3515 165.463 66.3515C164.254 64.9713 165.463 62.8241 165.463 62.8241C165.463 62.8241 164.6 60.5609 166.713 59.8489C165.202 59.214 162.165 58.038 161.641 57.1803C160.663 55.5807 161.877 55.1448 163.218 55.6552L175.552 58.7042C177.018 57.6928 179.435 55.7972 180.953 55.3535C182.85 54.7989 184.626 55.2822 184.888 56.0002Z" fill="#D38F64"/>
<path fill-rule="evenodd" clip-rule="evenodd" d="M170.21 60.1408L167.461 45.9941L180.913 46.189L186.074 70.8307L178.952 70.7275L173.661 70.6845L172.971 67.7318C172.971 67.7318 174.259 67.0417 174.351 66.3516C174.536 64.9606 173.417 64.3576 173.569 64.2813C174.259 63.9363 174.604 63.5749 174.604 62.9012C174.604 61.521 172.189 60.8309 170.21 60.1408Z" fill="#231F20"/>
<path d="M167.44 60.0511C168.049 60.1409 169.774 60.4859 170.12 60.4859M167.187 63.2937L171.007 64.1229M168.189 66.6473L171.58 67.5018" stroke="#B56740" stroke-linecap="round"/>
<circle cx="200.483" cy="28.0519" r="17.2521" fill="#E6F7FF"/>
<path d="M181.85 44.6141L188.06 37.7129L191.166 39.4384L181.85 44.6141Z" fill="#E6F7FF"/>
<path d="M193.244 21.3463C194.249 21.0698 195.307 21.0634 196.316 21.3276C197.324 21.5919 198.249 22.1178 199.001 22.8546C199.291 21.832 199.835 20.9035 200.58 20.159C201.324 19.4144 202.244 18.8791 203.251 18.6049C206.476 17.721 209.783 19.6527 210.639 22.917C212.286 29.1999 202.896 37.7129 202.896 37.7129C202.896 37.7129 190.601 35.1413 188.954 28.8584C188.099 25.5941 190.019 22.2302 193.244 21.3463Z" fill="#EF7D85"/>
</g>
</svg>
