<svg width="110" height="111" viewBox="0 0 110 111" fill="none" xmlns="http://www.w3.org/2000/svg">
<path d="M54.0742 105.19C83.9386 105.19 108.148 87.0568 108.148 64.688C108.148 42.3193 83.9386 24.1858 54.0742 24.1858C24.2099 24.1858 0 42.3193 0 64.688C0 87.0568 24.2099 105.19 54.0742 105.19Z" fill="url(#paint0_linear)"/>
<path fill-rule="evenodd" clip-rule="evenodd" d="M105.743 52.6216C98.9226 69.1408 78.3695 81.1418 54.0742 81.1418C29.779 81.1418 9.22592 69.1408 2.40534 52.6216C0.841888 56.4082 0 60.4322 0 64.6036C0 86.9723 24.2099 105.106 54.0742 105.106C83.9386 105.106 108.148 86.9723 108.148 64.6036C108.148 60.4322 107.307 56.4082 105.743 52.6216Z" fill="url(#paint1_linear)"/>
<path d="M36.3301 54.5624C34.2145 54.6167 31.2368 57.35 29.6368 59.9627C27.1804 63.9737 35.4852 77.5137 54.9089 78.1835C62.2572 78.4368 66.5056 73.8458 70.2949 72.3909C73.3478 71.2188 78.7512 70.5794 82.0407 72.3909C84.8769 67.1855 81.9467 53.2607 72.5649 50.1587C71.8402 49.9191 71.0579 49.8821 70.2949 49.8565C67.3348 49.7571 64.3713 49.746 61.4098 49.7844C56.143 49.8526 50.0056 49.6729 44.8783 51.5024C43.2695 52.0765 36.3301 54.5624 36.3301 54.5624Z" fill="url(#paint2_linear)"/>
<path fill-rule="evenodd" clip-rule="evenodd" d="M68.1004 10.1787H56.6096V22.2797C56.6094 22.2962 56.6094 22.3127 56.6094 22.3292C56.6094 25.4981 59.1817 28.067 62.3548 28.067C65.5278 28.067 68.1 25.4982 68.1002 22.3294H68.1004V10.1787Z" fill="white"/>
<path fill-rule="evenodd" clip-rule="evenodd" d="M68.1004 10.1787H56.6096V22.2797C56.6094 22.2962 56.6094 22.3127 56.6094 22.3292C56.6094 25.4981 59.1817 28.067 62.3548 28.067C65.5278 28.067 68.1 25.4982 68.1002 22.3294H68.1004V10.1787Z" fill="white"/>
<path fill-rule="evenodd" clip-rule="evenodd" d="M68.1004 10.1787H56.6096V22.2797C56.6094 22.2962 56.6094 22.3127 56.6094 22.3292C56.6094 25.4981 59.1817 28.067 62.3548 28.067C65.5278 28.067 68.1 25.4982 68.1002 22.3294H68.1004V10.1787Z" fill="#FABF86" fill-opacity="0.5"/>
<path d="M55.2577 73.801C59.4741 73.801 64.902 70.0183 64.9786 69.9716C68.7882 67.6499 72.8319 65.0196 72.8319 61.144C72.8319 57.5901 68.2537 59.0552 64.9786 56.7563C61.8119 54.5334 60.0291 48.4871 55.2577 48.4871C45.5518 48.4871 37.6836 54.1538 37.6836 61.144C37.6836 68.1343 45.5518 73.801 55.2577 73.801Z" fill="#4A90E2"/>
<path d="M70.492 100.071C71.1224 102.655 74.0122 107.156 73.6801 108.719C73.348 110.282 72.8811 110.291 71.5572 110.154C68.37 109.826 67.4339 105.327 65.0658 104.028C64.3189 103.618 63.4837 102.795 63.2559 101.728C63.1362 101.167 63.3877 99.2578 63.9118 99.023C64.6815 98.6782 65.6525 99.7022 66.4876 99.8204C67.591 99.9766 68.7125 99.9509 69.825 100.016L70.492 100.071Z" fill="#3FAA7D"/>
<path d="M70.3782 100.354C70.0139 101.316 68.0785 102.188 66.6176 101.541C65.9541 101.247 64.4016 100.443 64.1504 99.6206C65.6817 99.0566 68.3167 98.4073 69.2409 99.7508L70.3782 100.354Z" fill="url(#paint3_linear)"/>
<path d="M82.038 89.5245C81.6633 90.3231 82.7099 91.0409 82.7189 92.7471C82.7389 96.5353 83.0078 100.229 86.0923 100.974C86.5612 101.087 87.1303 100.448 87.3618 100.037C89.5949 96.0671 87.6452 94.2646 88.7404 90.1709C88.7404 90.1709 88.1968 89.8008 87.8863 89.5702C86.311 88.401 85.0256 87.7581 84.0302 87.6414C83.5465 87.5847 82.4128 88.7258 82.038 89.5245Z" fill="#3FAA7D"/>
<path d="M84.4531 89.9677C84.5795 90.3626 85.1939 91.2758 85.8129 92.0361C86.4223 92.165 87.1949 92.4192 87.7983 91.8506C88.1519 91.2529 88.6064 90.4682 88.9013 89.8831C86.2374 90.2991 84.4531 89.9677 84.4531 89.9677Z" fill="url(#paint4_linear)"/>
<path d="M63.4505 69.3587C64.0769 70.1052 64.6422 70.9074 65.3298 71.5981C67.2546 73.5315 69.9574 76.2484 70.9732 79.3224C72.7047 84.5626 70.4286 100.296 70.4286 100.296C70.4286 100.296 67.2627 101.73 64.1465 99.8013C63.1835 94.8611 62.8572 86.3053 60.5065 83.3578C58.8363 81.2635 50.6925 77.3939 48.3141 76.1585C44.5418 74.1992 41.9612 71.104 39.9396 67.3572C39.9126 67.3069 42.7646 68.5799 50.499 69.7668C53.7956 70.2726 63.4505 69.3587 63.4505 69.3587Z" fill="#4A90E2"/>
<path d="M52.3854 24.2937C42.9741 28.1739 37.0139 29.6455 35.9941 39.8687C35.9941 39.8687 40.6488 43.4759 44.2743 42.423C44.2743 43.609 44.2743 55.4063 44.2743 55.4063C44.2743 55.4063 37.515 51.569 37.515 54.3938C37.515 57.2185 37.6919 56.7564 37.515 59.4566C37.3381 62.1567 44.1552 66.3841 58.2542 63.5068C63.4346 62.4496 69.6384 63 69.5095 57.769C67.6307 51.6936 71.3114 42.423 71.3114 40.9636C74.906 39.8687 78.0707 37.8554 78.0707 37.8554C78.0707 37.8554 76.0229 31.4137 73.8888 29.6594C71.7464 27.8983 69.6604 26.5801 67.6307 25.7047C64.3911 24.3075 52.3854 24.2937 52.3854 24.2937Z" fill="url(#paint5_linear)"/>
<path d="M44.2754 42.2428C44.2754 42.2428 45.6779 41.9053 46.2187 41.9053C46.2187 42.4946 45.8695 44.6054 45.4949 46.293C45.1203 47.9806 44.2754 48.8706 44.2754 48.8706V42.2428Z" fill="url(#paint6_linear)"/>
<path fill-rule="evenodd" clip-rule="evenodd" d="M77.7751 38.1738C79.1556 40.0685 80.947 44.796 82.3675 45.9556C84.5093 46.3863 85.8592 47.3832 87.1955 47.9807V49.8371C87.1955 49.8371 78.8084 51.9257 76.0427 49.8371C74.1495 48.4074 72.0262 43.4403 71.2754 41.0007C72.9495 40.5564 77.7751 38.1738 77.7751 38.1738Z" fill="white"/>
<path fill-rule="evenodd" clip-rule="evenodd" d="M77.7751 38.1738C79.1556 40.0685 80.947 44.796 82.3675 45.9556C84.5093 46.3863 85.8592 47.3832 87.1955 47.9807V49.8371C87.1955 49.8371 78.8084 51.9257 76.0427 49.8371C74.1495 48.4074 72.0262 43.4403 71.2754 41.0007C72.9495 40.5564 77.7751 38.1738 77.7751 38.1738Z" fill="white"/>
<path fill-rule="evenodd" clip-rule="evenodd" d="M77.7751 38.1738C79.1556 40.0685 80.947 44.796 82.3675 45.9556C84.5093 46.3863 85.8592 47.3832 87.1955 47.9807V49.8371C87.1955 49.8371 78.8084 51.9257 76.0427 49.8371C74.1495 48.4074 72.0262 43.4403 71.2754 41.0007C72.9495 40.5564 77.7751 38.1738 77.7751 38.1738Z" fill="#FABF86" fill-opacity="0.5"/>
<path d="M49.6836 59.6253L80.1848 53.2124L96.0158 63.351L62.946 70.0883L49.6836 59.6253Z" fill="#8BDCFB"/>
<path fill-rule="evenodd" clip-rule="evenodd" d="M64.3864 59.6678C64.2 59.5207 64.2698 59.2229 64.5023 59.174L83.3168 55.2183L96.0154 63.3508L69.7865 68.6945L64.6343 64.6298C64.4479 64.4827 64.5177 64.1848 64.7501 64.136L65.3448 64.0109C65.6697 63.9426 66.0082 64.022 66.2689 64.2277L71.4763 68.3359L72.1522 68.1671L66.5601 63.7554L68.2322 63.4039L73.8421 67.8296L74.518 67.6609L68.9348 63.2561L87.623 59.327L87.0344 58.95L68.4337 62.8608L67.769 62.3364C67.5825 62.1893 67.6524 61.8915 67.8848 61.8426L86.2711 57.9769L85.6825 57.6L66.798 61.5704L66.1333 61.046C65.9469 60.8989 66.0167 60.601 66.2492 60.5522L81.7086 57.3018L81.12 56.9249L65.6752 60.1722C65.3502 60.2405 65.0117 60.1611 64.751 59.9555L64.3864 59.6678ZM62.6999 59.5527C63.0248 59.4843 63.3633 59.5637 63.624 59.7694L63.9886 60.057C64.1751 60.2041 64.1052 60.502 63.8728 60.5508L63.2992 60.6714C62.9742 60.7398 62.6357 60.6604 62.375 60.4547L62.0105 60.1671C61.824 60.02 61.8939 59.7221 62.1263 59.6733L62.6999 59.5527ZM67.1439 63.1318C67.3763 63.0829 67.4462 62.785 67.2597 62.6379L67.0064 62.4381C66.7457 62.2324 66.4072 62.153 66.0823 62.2213L65.5087 62.3419C65.2762 62.3908 65.2064 62.6887 65.3929 62.8358L65.6462 63.0356C65.9069 63.2413 66.2454 63.3207 66.5703 63.2523L67.1439 63.1318ZM65.6233 61.3474C65.8098 61.4945 65.7399 61.7924 65.5075 61.8412L64.9339 61.9618C64.609 62.0301 64.2705 61.9507 64.0098 61.7451L63.7565 61.5452C63.57 61.3981 63.6399 61.1003 63.8723 61.0514L64.4459 60.9308C64.7708 60.8625 65.1093 60.9419 65.37 61.1475L65.6233 61.3474ZM60.9406 60.0253C60.8755 59.9739 60.7909 59.9541 60.7096 59.9711L59.7304 60.177C59.498 60.2259 59.4281 60.5237 59.6146 60.6708L59.9792 60.9585C60.2398 61.1641 60.5783 61.2435 60.9033 61.1752L61.4979 61.0502C61.7304 61.0013 61.8002 60.7034 61.6137 60.5563L60.9406 60.0253ZM62.0732 61.4301C62.3982 61.3618 62.7367 61.4412 62.9974 61.6469L63.2507 61.8467C63.4372 61.9938 63.3673 62.2917 63.1349 62.3405L62.5403 62.4656C62.2153 62.5339 61.8768 62.4545 61.6161 62.2488L61.3628 62.049C61.1763 61.9019 61.2462 61.604 61.4786 61.5552L62.0732 61.4301ZM64.633 62.9374C64.3723 62.7317 64.0338 62.6523 63.7089 62.7207L63.1142 62.8457C62.8818 62.8946 62.812 63.1924 62.9984 63.3395L63.2518 63.5394C63.5124 63.745 63.851 63.8244 64.1759 63.7561L64.7705 63.6311C65.003 63.5822 65.0728 63.2844 64.8864 63.1372L64.633 62.9374Z" fill="#2FB7EC"/>
<path d="M78.066 68.3363L67.4258 59.9419L68.1284 59.7942L78.742 68.1675L78.066 68.3363Z" fill="#8BDCFB"/>
<path d="M75.8749 49.4999L108.995 42.7495L95.9838 63.3674L62.8633 70.1178L75.8749 49.4999Z" fill="url(#paint7_linear)"/>
<path d="M62.9453 70.0974L95.0155 63.5637C95.0155 63.5637 95.8808 63.3236 95.9839 63.3897C95.9839 63.8635 95.6504 64.2719 95.1862 64.3665L63.5607 70.8158C63.1704 70.8953 62.765 70.7989 62.4525 70.5523L49.6828 60.4781C49.4495 60.2472 49.4495 59.9659 49.6828 59.6343L62.9453 70.0974Z" fill="#0098D3"/>
<path d="M107.73 43.0072L75.874 49.4999L63.4511 69.185L62.892 70.0657L62.1484 69.469L74.6878 49.6321C75.0138 49.1164 75.5361 48.756 76.1339 48.6341L108.319 42.0745C108.319 42.0745 108.703 42.0801 108.881 42.2563C109.06 42.4325 108.995 42.7415 108.995 42.7415L107.73 43.0072Z" fill="white"/>
<path d="M87.0674 59.0305C88.5379 58.7716 89.5986 57.8176 89.4366 56.8997C89.2745 55.9818 87.951 55.4477 86.4805 55.7066C85.01 55.9656 83.9493 56.9196 84.1113 57.8374C84.2734 58.7553 85.5969 59.2895 87.0674 59.0305Z" fill="white"/>
<path fill-rule="evenodd" clip-rule="evenodd" d="M84.8653 58.7661C84.8292 58.6854 84.803 58.6008 84.7874 58.5127C84.6254 57.5948 85.6861 56.6408 87.1566 56.3819C88.0046 56.2325 88.8038 56.347 89.3594 56.6466C89.0198 55.8869 87.8106 55.4728 86.4813 55.7069C85.0107 55.9659 83.95 56.9199 84.1121 57.8377C84.1807 58.2263 84.4574 58.5461 84.8653 58.7661Z" fill="url(#paint8_linear)"/>
<path d="M51.6465 61.1599C53.4128 60.9281 54.6123 60.5298 55.1211 60.5298C56.2282 60.7902 57.5128 61.5095 61.0559 60.889C61.4858 60.7106 61.5161 59.6976 61.0559 59.6276C57.8908 59.1465 54.6484 59.3965 51.4513 59.5658C50.8412 59.5981 49.9117 58.9619 49.8242 59.5658C50.2266 60.1464 51.2778 60.8661 51.6465 61.1599Z" fill="url(#paint9_linear)"/>
<path fill-rule="evenodd" clip-rule="evenodd" d="M36.1699 39.9517C36.2804 43.317 36.189 46.6949 36.5013 50.0476C37.1234 56.7265 40.2144 57.8031 46.2171 59.4565C48.3687 60.0492 52.4444 60.244 55.1736 59.9838C55.1736 59.9838 56.0393 58.6877 56.5997 57.769C51.9968 55.0688 49.0003 51.6488 46.2171 50.5204C45.6255 50.2805 44.4589 49.8925 44.2738 49.8373C44.2738 47.9809 44.2738 42.2431 44.2738 42.2431C44.2738 42.2431 41.5782 42.4473 39.6775 41.8228C37.7768 41.1984 36.1699 39.9517 36.1699 39.9517Z" fill="white"/>
<path fill-rule="evenodd" clip-rule="evenodd" d="M36.1699 39.9517C36.2804 43.317 36.189 46.6949 36.5013 50.0476C37.1234 56.7265 40.2144 57.8031 46.2171 59.4565C48.3687 60.0492 52.4444 60.244 55.1736 59.9838C55.1736 59.9838 56.0393 58.6877 56.5997 57.769C51.9968 55.0688 49.0003 51.6488 46.2171 50.5204C45.6255 50.2805 44.4589 49.8925 44.2738 49.8373C44.2738 47.9809 44.2738 42.2431 44.2738 42.2431C44.2738 42.2431 41.5782 42.4473 39.6775 41.8228C37.7768 41.1984 36.1699 39.9517 36.1699 39.9517Z" fill="white"/>
<path fill-rule="evenodd" clip-rule="evenodd" d="M36.1699 39.9517C36.2804 43.317 36.189 46.6949 36.5013 50.0476C37.1234 56.7265 40.2144 57.8031 46.2171 59.4565C48.3687 60.0492 52.4444 60.244 55.1736 59.9838C55.1736 59.9838 56.0393 58.6877 56.5997 57.769C51.9968 55.0688 49.0003 51.6488 46.2171 50.5204C45.6255 50.2805 44.4589 49.8925 44.2738 49.8373C44.2738 47.9809 44.2738 42.2431 44.2738 42.2431C44.2738 42.2431 41.5782 42.4473 39.6775 41.8228C37.7768 41.1984 36.1699 39.9517 36.1699 39.9517Z" fill="#FABF86" fill-opacity="0.5"/>
<path fill-rule="evenodd" clip-rule="evenodd" d="M56.0407 19.062C55.3591 20.3844 54.6177 21.9831 53.8062 23.2302C53.4068 23.8439 52.243 24.0557 52.256 24.7876C52.2984 27.1899 53.3923 29.1605 55.5927 30.0923C58.2241 31.2066 62.1242 30.8449 63.4353 28.0906C65.8427 23.0331 61.4299 18.8762 61.4299 18.8762L56.0407 19.062Z" fill="white"/>
<path fill-rule="evenodd" clip-rule="evenodd" d="M56.0407 19.062C55.3591 20.3844 54.6177 21.9831 53.8062 23.2302C53.4068 23.8439 52.243 24.0557 52.256 24.7876C52.2984 27.1899 53.3923 29.1605 55.5927 30.0923C58.2241 31.2066 62.1242 30.8449 63.4353 28.0906C65.8427 23.0331 61.4299 18.8762 61.4299 18.8762L56.0407 19.062Z" fill="white"/>
<path fill-rule="evenodd" clip-rule="evenodd" d="M56.0407 19.062C55.3591 20.3844 54.6177 21.9831 53.8062 23.2302C53.4068 23.8439 52.243 24.0557 52.256 24.7876C52.2984 27.1899 53.3923 29.1605 55.5927 30.0923C58.2241 31.2066 62.1242 30.8449 63.4353 28.0906C65.8427 23.0331 61.4299 18.8762 61.4299 18.8762L56.0407 19.062Z" fill="#FABF86" fill-opacity="0.5"/>
<path fill-rule="evenodd" clip-rule="evenodd" d="M53.0723 13.8228C55.6569 16.8345 52.554 20.5894 56.6078 21.2712V14.8525L53.0723 13.8228Z" fill="white"/>
<path fill-rule="evenodd" clip-rule="evenodd" d="M53.0723 13.8228C55.6569 16.8345 52.554 20.5894 56.6078 21.2712V14.8525L53.0723 13.8228Z" fill="#334A5A"/>
<path fill-rule="evenodd" clip-rule="evenodd" d="M56.6097 19.1232C56.6097 18.0207 56.6097 16.5918 56.6097 15.748C55.6765 15.748 54.9199 16.5036 54.9199 17.4356C54.9199 18.3677 55.6765 19.1232 56.6097 19.1232Z" fill="white"/>
<path fill-rule="evenodd" clip-rule="evenodd" d="M56.6097 19.1232C56.6097 18.0207 56.6097 16.5918 56.6097 15.748C55.6765 15.748 54.9199 16.5036 54.9199 17.4356C54.9199 18.3677 55.6765 19.1232 56.6097 19.1232Z" fill="white"/>
<path fill-rule="evenodd" clip-rule="evenodd" d="M56.6097 19.1232C56.6097 18.0207 56.6097 16.5918 56.6097 15.748C55.6765 15.748 54.9199 16.5036 54.9199 17.4356C54.9199 18.3677 55.6765 19.1232 56.6097 19.1232Z" fill="#FBCC9E"/>
<path fill-rule="evenodd" clip-rule="evenodd" d="M68.1012 17.0978C68.1012 15.9953 68.1012 14.5665 68.1012 13.7227C69.0345 13.7227 69.791 14.4782 69.791 15.4102C69.791 16.3423 69.0345 17.0978 68.1012 17.0978Z" fill="white"/>
<path fill-rule="evenodd" clip-rule="evenodd" d="M68.1012 17.0978C68.1012 15.9953 68.1012 14.5665 68.1012 13.7227C69.0345 13.7227 69.791 14.4782 69.791 15.4102C69.791 16.3423 69.0345 17.0978 68.1012 17.0978Z" fill="white"/>
<path fill-rule="evenodd" clip-rule="evenodd" d="M68.1012 17.0978C68.1012 15.9953 68.1012 14.5665 68.1012 13.7227C69.0345 13.7227 69.791 14.4782 69.791 15.4102C69.791 16.3423 69.0345 17.0978 68.1012 17.0978Z" fill="#F3BE8A"/>
<path d="M56.8671 15.0728C57.0065 15.0728 57.1209 15.1836 57.1285 15.3229C57.1735 16.1534 57.4083 18.8142 58.5869 19.6563C60.026 20.6845 62.4535 21.1943 64.5348 20.9174C65.8987 20.7359 67.1082 20.3311 68.1021 19.6563C68.1021 19.6563 68.1021 18.8334 68.1021 18.3581C69.3345 19.968 68.5232 24.9604 66.4761 26.7227C63.2943 29.4619 56.5234 27.8985 56.5234 23.3055C56.5234 21.3661 56.6113 20.2365 56.6113 18.128V15.3285C56.6113 15.1873 56.7258 15.0728 56.8671 15.0728Z" fill="url(#paint10_linear)"/>
<path fill-rule="evenodd" clip-rule="evenodd" d="M65.103 13.0452C65.6479 13.6106 66.5202 15.2592 68.6151 16.8636C70.3848 18.2189 68.6777 18.6205 67.3156 19.116C66.5743 19.3857 65.5054 19.8183 65.103 19.6712C64.649 19.3478 64.5787 18.53 65.103 17.54C65.7759 16.2692 64.3828 14.6711 64.3828 13.7802C64.3828 13.514 64.558 12.4798 65.103 13.0452Z" fill="white"/>
<path fill-rule="evenodd" clip-rule="evenodd" d="M65.103 13.0452C65.6479 13.6106 66.5202 15.2592 68.6151 16.8636C70.3848 18.2189 68.6777 18.6205 67.3156 19.116C66.5743 19.3857 65.5054 19.8183 65.103 19.6712C64.649 19.3478 64.5787 18.53 65.103 17.54C65.7759 16.2692 64.3828 14.6711 64.3828 13.7802C64.3828 13.514 64.558 12.4798 65.103 13.0452Z" fill="white"/>
<path fill-rule="evenodd" clip-rule="evenodd" d="M65.103 13.0452C65.6479 13.6106 66.5202 15.2592 68.6151 16.8636C70.3848 18.2189 68.6777 18.6205 67.3156 19.116C66.5743 19.3857 65.5054 19.8183 65.103 19.6712C64.649 19.3478 64.5787 18.53 65.103 17.54C65.7759 16.2692 64.3828 14.6711 64.3828 13.7802C64.3828 13.514 64.558 12.4798 65.103 13.0452Z" fill="#FBCC9E"/>
<path fill-rule="evenodd" clip-rule="evenodd" d="M70.1265 5.791C70.1265 2.62209 65.4686 0.562235 60.5613 0.0531794C57.3077 -0.284339 54.7021 0.929564 53.7731 5.28472C53.3806 5.71918 53.0389 6.0431 52.7398 6.32672C52.0185 7.01051 51.5442 7.46009 51.2005 8.65991C50.1246 12.4158 53.4968 15.6581 56.608 15.7459C56.7084 15.38 56.7187 14.9478 56.7286 14.5364C56.7523 13.5427 56.7732 12.6706 58.0544 13.1478C59.866 13.8226 61.6753 13.1478 62.2005 11.5308C63.7504 11.4155 65.1813 11.0417 66.3884 10.4794C67.8957 10.016 68.1 11.3671 68.1 12.8788C68.1 12.8788 71.6474 10.4432 69.8964 7.70823C69.8436 7.62576 69.7885 7.55081 69.7313 7.483C69.9882 6.94679 70.1265 6.37839 70.1265 5.791Z" fill="white"/>
<path fill-rule="evenodd" clip-rule="evenodd" d="M70.1265 5.791C70.1265 2.62209 65.4686 0.562235 60.5613 0.0531794C57.3077 -0.284339 54.7021 0.929564 53.7731 5.28472C53.3806 5.71918 53.0389 6.0431 52.7398 6.32672C52.0185 7.01051 51.5442 7.46009 51.2005 8.65991C50.1246 12.4158 53.4968 15.6581 56.608 15.7459C56.7084 15.38 56.7187 14.9478 56.7286 14.5364C56.7523 13.5427 56.7732 12.6706 58.0544 13.1478C59.866 13.8226 61.6753 13.1478 62.2005 11.5308C63.7504 11.4155 65.1813 11.0417 66.3884 10.4794C67.8957 10.016 68.1 11.3671 68.1 12.8788C68.1 12.8788 71.6474 10.4432 69.8964 7.70823C69.8436 7.62576 69.7885 7.55081 69.7313 7.483C69.9882 6.94679 70.1265 6.37839 70.1265 5.791Z" fill="#4A5F6E"/>
<path d="M66.5254 10.4352C67.9121 9.6314 68.3908 9.27254 68.3951 9.48757C68.3995 9.71007 67.9845 10.5659 67.6167 10.6563C67.6167 10.6563 67.3701 10.4484 67.1004 10.3992C66.9617 10.3739 66.5254 10.4352 66.5254 10.4352Z" fill="#152934" fill-opacity="0.5"/>
<path d="M62.1953 11.5083C62.6147 9.96614 63.8834 10.3625 63.8877 10.5776C63.8922 10.8001 63.6837 11.2995 63.3158 11.3899C63.3158 11.3899 62.9201 11.4502 62.7293 11.4704C62.5466 11.4897 62.1953 11.5083 62.1953 11.5083Z" fill="#152934" fill-opacity="0.5"/>
<path fill-rule="evenodd" clip-rule="evenodd" d="M53.3001 5.85024C52.3849 5.47053 53.0087 3.7981 53.0087 3.7981C53.0087 3.7981 53.1855 4.65638 53.3509 4.82417C53.5905 5.0673 53.6329 5.02994 53.9459 5.16656L53.3001 5.85024Z" fill="white"/>
<path fill-rule="evenodd" clip-rule="evenodd" d="M53.3001 5.85024C52.3849 5.47053 53.0087 3.7981 53.0087 3.7981C53.0087 3.7981 53.1855 4.65638 53.3509 4.82417C53.5905 5.0673 53.6329 5.02994 53.9459 5.16656L53.3001 5.85024Z" fill="#4A5F6E"/>
<path fill-rule="evenodd" clip-rule="evenodd" d="M53.6818 5.7624C52.7658 5.3846 52.0488 6.10059 52.0488 6.10059C52.0488 6.10059 52.405 6.00349 52.6407 6.00161C52.9823 5.99888 53.202 6.14514 53.52 6.26956L53.6818 5.7624Z" fill="white"/>
<path fill-rule="evenodd" clip-rule="evenodd" d="M53.6818 5.7624C52.7658 5.3846 52.0488 6.10059 52.0488 6.10059C52.0488 6.10059 52.405 6.00349 52.6407 6.00161C52.9823 5.99888 53.202 6.14514 53.52 6.26956L53.6818 5.7624Z" fill="#4A5F6E"/>
<path d="M56.9533 13.2372C56.6327 13.2547 55.6798 13.0003 55.0776 12.8735C54.4753 12.7466 54.0538 12.7466 54.2233 13.0892C54.8833 14.4234 56.2696 14.7546 56.7119 14.7546C56.7809 14.229 56.7082 13.9803 56.8041 13.6431C56.9 13.306 56.9533 13.2372 56.9533 13.2372Z" fill="#152934" fill-opacity="0.5"/>
<path fill-rule="evenodd" clip-rule="evenodd" d="M56.5814 57.7818C58.2128 57.6725 59.5085 56.9529 61.1441 57.4167C61.7447 57.587 63.3829 57.9035 63.7798 58.2878C63.8628 58.3682 64.6848 58.9451 63.9834 59.045C63.282 59.145 62.8053 58.2547 62.9672 58.4561L63.8861 59.3755C64.1399 59.7585 63.8423 59.8494 63.6433 59.8494C63.3331 59.8494 63.3221 59.6413 63.5635 60.1868C63.6395 60.3586 63.5635 60.4867 63.4868 60.54C63.3446 60.6389 62.9421 60.5027 62.8024 60.4867C62.4343 60.4444 62.0569 59.5612 62.2109 59.8978C62.2343 59.949 62.4191 60.2187 62.8024 60.4867C62.9276 60.5742 63.602 60.7599 63.3255 61.0555C63.2502 61.136 63.1287 61.136 62.6698 61.136C62.2109 61.136 60.9036 60.8798 60.6141 60.8899C59.5368 60.7018 58.3484 60.7146 57.7488 60.4867C56.6996 60.0878 55.253 60.1607 54.6973 59.8978C55.5565 59.2406 55.6096 59.045 56.5814 57.7818Z" fill="white"/>
<path fill-rule="evenodd" clip-rule="evenodd" d="M56.5814 57.7818C58.2128 57.6725 59.5085 56.9529 61.1441 57.4167C61.7447 57.587 63.3829 57.9035 63.7798 58.2878C63.8628 58.3682 64.6848 58.9451 63.9834 59.045C63.282 59.145 62.8053 58.2547 62.9672 58.4561L63.8861 59.3755C64.1399 59.7585 63.8423 59.8494 63.6433 59.8494C63.3331 59.8494 63.3221 59.6413 63.5635 60.1868C63.6395 60.3586 63.5635 60.4867 63.4868 60.54C63.3446 60.6389 62.9421 60.5027 62.8024 60.4867C62.4343 60.4444 62.0569 59.5612 62.2109 59.8978C62.2343 59.949 62.4191 60.2187 62.8024 60.4867C62.9276 60.5742 63.602 60.7599 63.3255 61.0555C63.2502 61.136 63.1287 61.136 62.6698 61.136C62.2109 61.136 60.9036 60.8798 60.6141 60.8899C59.5368 60.7018 58.3484 60.7146 57.7488 60.4867C56.6996 60.0878 55.253 60.1607 54.6973 59.8978C55.5565 59.2406 55.6096 59.045 56.5814 57.7818Z" fill="white"/>
<path fill-rule="evenodd" clip-rule="evenodd" d="M56.5814 57.7818C58.2128 57.6725 59.5085 56.9529 61.1441 57.4167C61.7447 57.587 63.3829 57.9035 63.7798 58.2878C63.8628 58.3682 64.6848 58.9451 63.9834 59.045C63.282 59.145 62.8053 58.2547 62.9672 58.4561L63.8861 59.3755C64.1399 59.7585 63.8423 59.8494 63.6433 59.8494C63.3331 59.8494 63.3221 59.6413 63.5635 60.1868C63.6395 60.3586 63.5635 60.4867 63.4868 60.54C63.3446 60.6389 62.9421 60.5027 62.8024 60.4867C62.4343 60.4444 62.0569 59.5612 62.2109 59.8978C62.2343 59.949 62.4191 60.2187 62.8024 60.4867C62.9276 60.5742 63.602 60.7599 63.3255 61.0555C63.2502 61.136 63.1287 61.136 62.6698 61.136C62.2109 61.136 60.9036 60.8798 60.6141 60.8899C59.5368 60.7018 58.3484 60.7146 57.7488 60.4867C56.6996 60.0878 55.253 60.1607 54.6973 59.8978C55.5565 59.2406 55.6096 59.045 56.5814 57.7818Z" fill="#FABF86" fill-opacity="0.5"/>
<path fill-rule="evenodd" clip-rule="evenodd" d="M103.75 51.1974C102.223 51.3003 101.044 51.2062 99.5564 51.5668C99.2989 51.6292 99.2989 51.8445 99.5564 52.0985L100.612 52.725C99.9155 52.725 98.748 52.3246 99.9155 53.8859C100.03 54.0387 99.4172 53.7032 99.3943 53.8859C99.3655 54.1167 99.3655 54.4343 99.7976 54.8276C99.8903 54.9119 99.3966 54.7059 99.3943 54.8276C99.3914 54.9897 99.5564 55.2282 99.7864 55.4387C100.498 56.0892 101.56 56.3196 102.522 56.4901C107.226 57.3237 107.79 51.8521 104.665 49.6682L103.75 51.1974Z" fill="white"/>
<path fill-rule="evenodd" clip-rule="evenodd" d="M103.75 51.1974C102.223 51.3003 101.044 51.2062 99.5564 51.5668C99.2989 51.6292 99.2989 51.8445 99.5564 52.0985L100.612 52.725C99.9155 52.725 98.748 52.3246 99.9155 53.8859C100.03 54.0387 99.4172 53.7032 99.3943 53.8859C99.3655 54.1167 99.3655 54.4343 99.7976 54.8276C99.8903 54.9119 99.3966 54.7059 99.3943 54.8276C99.3914 54.9897 99.5564 55.2282 99.7864 55.4387C100.498 56.0892 101.56 56.3196 102.522 56.4901C107.226 57.3237 107.79 51.8521 104.665 49.6682L103.75 51.1974Z" fill="white"/>
<path fill-rule="evenodd" clip-rule="evenodd" d="M103.75 51.1974C102.223 51.3003 101.044 51.2062 99.5564 51.5668C99.2989 51.6292 99.2989 51.8445 99.5564 52.0985L100.612 52.725C99.9155 52.725 98.748 52.3246 99.9155 53.8859C100.03 54.0387 99.4172 53.7032 99.3943 53.8859C99.3655 54.1167 99.3655 54.4343 99.7976 54.8276C99.8903 54.9119 99.3966 54.7059 99.3943 54.8276C99.3914 54.9897 99.5564 55.2282 99.7864 55.4387C100.498 56.0892 101.56 56.3196 102.522 56.4901C107.226 57.3237 107.79 51.8521 104.665 49.6682L103.75 51.1974Z" fill="#FABF86" fill-opacity="0.5"/>
<path d="M65.9707 70.2781C68.6645 71.5705 70.5741 72.0517 74.7888 72.498C78.2831 72.868 80.3318 73.5071 81.0764 74.478C83.0024 76.4812 83.0024 88.3808 84.48 90.0292C85.7084 90.8668 87.4997 90.8668 89.024 90.0292C90.8491 81.237 92.0418 76.7641 92.0418 72.498C92.0418 68.2319 90.9798 66.4366 88.1466 65.3815C87.9062 65.2919 65.9707 70.2781 65.9707 70.2781Z" fill="#4A90E2"/>
<path d="M84.8913 66.0278C80.4581 67.5833 76.4287 72.5607 76.0435 72.6359C74.1986 72.3682 71.2208 72.1779 68.8301 71.4131C67.9387 71.128 66.2316 70.476 65.9824 70.2574C69.5848 69.2375 84.8913 66.0278 84.8913 66.0278Z" fill="url(#paint11_linear)"/>
<path d="M61.3398 42.5386C63.5175 42.5386 65.6021 42.7641 68.6131 41.3989C68.6131 41.3989 67.986 45.3938 67.4503 46.8586C66.4165 47.4232 64.4717 48.4158 62.0334 47.9805C61.6713 45.9554 61.3398 42.5386 61.3398 42.5386Z" fill="#F0B616"/>
<path fill-rule="evenodd" clip-rule="evenodd" d="M71.41 41.3006C74.253 41.2438 76.0502 41.2645 78.8057 39.9021C78.6601 39.6447 78.1836 38.9784 77.9797 37.9172C76.0435 39.1116 72.1144 40.652 71.293 40.9859C71.4393 41.4701 71.41 41.3006 71.41 41.3006Z" fill="white"/>
<path fill-rule="evenodd" clip-rule="evenodd" d="M71.41 41.3006C74.253 41.2438 76.0502 41.2645 78.8057 39.9021C78.6601 39.6447 78.1836 38.9784 77.9797 37.9172C76.0435 39.1116 72.1144 40.652 71.293 40.9859C71.4393 41.4701 71.41 41.3006 71.41 41.3006Z" fill="white"/>
<path fill-rule="evenodd" clip-rule="evenodd" d="M71.41 41.3006C74.253 41.2438 76.0502 41.2645 78.8057 39.9021C78.6601 39.6447 78.1836 38.9784 77.9797 37.9172C76.0435 39.1116 72.1144 40.652 71.293 40.9859C71.4393 41.4701 71.41 41.3006 71.41 41.3006Z" fill="url(#paint12_linear)"/>
<defs>
<linearGradient id="paint0_linear" x1="0" y1="24.1858" x2="0" y2="105.19" gradientUnits="userSpaceOnUse">
<stop stop-color="#BFF0FD"/>
<stop offset="1" stop-color="#8BDCFB"/>
</linearGradient>
<linearGradient id="paint1_linear" x1="78.8615" y1="88.9783" x2="49.0414" y2="59.5585" gradientUnits="userSpaceOnUse">
<stop stop-color="#8BDCFB"/>
<stop offset="1" stop-color="#2FB7EC" stop-opacity="0.08"/>
</linearGradient>
<linearGradient id="paint2_linear" x1="5.49371" y1="76.169" x2="35.5358" y2="105.3" gradientUnits="userSpaceOnUse">
<stop stop-color="#8BDCFB"/>
<stop offset="1" stop-color="#2FB7EC"/>
</linearGradient>
<linearGradient id="paint3_linear" x1="69.2136" y1="105.157" x2="70.4098" y2="99.7561" gradientUnits="userSpaceOnUse">
<stop stop-color="#3FAA7D"/>
<stop offset="1" stop-color="#4E6EB9"/>
</linearGradient>
<linearGradient id="paint4_linear" x1="88.0694" y1="95.0131" x2="89.1984" y2="90.6142" gradientUnits="userSpaceOnUse">
<stop stop-color="#3FAA7D"/>
<stop offset="1" stop-color="#4E6EB9"/>
</linearGradient>
<linearGradient id="paint5_linear" x1="60.1697" y1="20.2408" x2="40.5438" y2="55.2186" gradientUnits="userSpaceOnUse">
<stop stop-color="#FFE557"/>
<stop offset="1" stop-color="#FFC72C"/>
</linearGradient>
<linearGradient id="paint6_linear" x1="44.2754" y1="41.9053" x2="44.2754" y2="48.8706" gradientUnits="userSpaceOnUse">
<stop stop-color="#F0B616"/>
<stop offset="1" stop-color="#FFC72C"/>
</linearGradient>
<linearGradient id="paint7_linear" x1="111.69" y1="56.6465" x2="98.249" y2="35.2545" gradientUnits="userSpaceOnUse">
<stop stop-color="#8BDCFB"/>
<stop offset="1" stop-color="#2FB7EC"/>
</linearGradient>
<linearGradient id="paint8_linear" x1="107.969" y1="64.0994" x2="102.3" y2="49.7952" gradientUnits="userSpaceOnUse">
<stop stop-color="#8BDCFB"/>
<stop offset="1" stop-color="#2FB7EC"/>
</linearGradient>
<linearGradient id="paint9_linear" x1="47.3843" y1="61.0017" x2="49.0368" y2="65.6695" gradientUnits="userSpaceOnUse">
<stop stop-color="#8BDCFB"/>
<stop offset="1" stop-color="#2FB7EC"/>
</linearGradient>
<linearGradient id="paint10_linear" x1="62.6036" y1="8.57169" x2="49.6306" y2="20.7049" gradientUnits="userSpaceOnUse">
<stop stop-color="#FFC72C"/>
<stop offset="1" stop-color="#F0B616"/>
</linearGradient>
<linearGradient id="paint11_linear" x1="80.1641" y1="70.6317" x2="81.5317" y2="65.6582" gradientUnits="userSpaceOnUse">
<stop stop-color="#4A90E2" stop-opacity="0.4"/>
<stop offset="1" stop-color="#4E6EB9"/>
</linearGradient>
<linearGradient id="paint12_linear" x1="72.1158" y1="41.1569" x2="78.8057" y2="41.1569" gradientUnits="userSpaceOnUse">
<stop stop-color="#FBCC9E"/>
<stop offset="1" stop-color="#FABF86" stop-opacity="0.5"/>
</linearGradient>
</defs>
</svg>
