<svg width="280" height="120" viewBox="0 0 280 120" fill="none" xmlns="http://www.w3.org/2000/svg">
<g style="mix-blend-mode:darken">
<rect width="280" height="120" fill="transparent"/>
<g style="mix-blend-mode:darken">
<path d="M19 58C19 55.7909 20.7909 54 23 54H165C167.209 54 169 55.7909 169 58V120H19V58Z" fill="#E7EEFD"/>
<path d="M19 86.3812C45.6667 78.175 49.6 71.0628 102 111" stroke="#376EEE" stroke-opacity="0.1" stroke-linecap="round"/>
<path d="M203.01 120C208.533 120 213.01 115.523 213.01 110C213.01 104.477 208.533 100 203.01 100C197.487 100 193.01 104.477 193.01 110C193.01 115.523 197.487 120 203.01 120Z" fill="#0E3AA1"/>
<path d="M98.1123 120C103.635 120 108.112 115.523 108.112 110C108.112 104.477 103.635 100 98.1123 100C92.5895 100 88.1123 104.477 88.1123 110C88.1123 115.523 92.5895 120 98.1123 120Z" fill="#0E3AA1"/>
<path d="M217 20H129V110H219V22C219 20.8954 218.105 20 217 20Z" fill="#FFC72C"/>
<path d="M240.93 47.3408H235.5H219V110H252.917V77.5L242.859 48.5825C242.446 47.8927 241.757 47.3408 240.93 47.3408Z" fill="#FFE380"/>
<path d="M260.16 82.5366L252.53 77.6416V110H262V85.9033C262 84.5409 261.307 83.2723 260.16 82.5366Z" fill="#FFE380"/>
<path d="M242 120C247.523 120 252 115.523 252 110C252 104.477 247.523 100 242 100C236.477 100 232 104.477 232 110C232 115.523 236.477 120 242 120Z" fill="#1A4379"/>
<path d="M242 113C243.657 113 245 111.657 245 110C245 108.343 243.657 107 242 107C240.343 107 239 108.343 239 110C239 111.657 240.343 113 242 113Z" fill="white"/>
<path d="M148.509 120C154.313 120 159.018 115.523 159.018 110C159.018 104.477 154.313 100 148.509 100C142.705 100 138 104.477 138 110C138 115.523 142.705 120 148.509 120Z" fill="#1A4379"/>
<path d="M149 113C150.657 113 152 111.657 152 110C152 108.343 150.657 107 149 107C147.343 107 146 108.343 146 110C146 111.657 147.343 113 149 113Z" fill="white"/>
<rect width="12.151" height="3.03776" rx="1.51888" transform="matrix(1 0 0 -1 55 98.7559)" fill="#FFE380"/>
<rect width="9.11328" height="3.03776" rx="1.51888" transform="matrix(1 0 0 -1 58.0371 104.832)" fill="#FFE380"/>
<circle cx="174" cy="65" r="24" fill="white"/>
<path d="M129 20H75C73.8954 20 73 20.8954 73 22V110H129V20Z" fill="#FFE380"/>
<path fill-rule="evenodd" clip-rule="evenodd" d="M197.668 69C195.764 80.3509 185.892 89 174 89C162.108 89 152.236 80.3509 150.332 69H197.668Z" fill="#FFE380"/>
<path d="M119 28H83C81.8954 28 81 28.8954 81 30V102H121V30C121 28.8954 120.105 28 119 28Z" fill="#FFC72C"/>
<path d="M121 65H81V66H121V65Z" fill="#DAA410"/>
<path d="M121 40H81V41H121V40Z" fill="#DAA410"/>
<path d="M121 90H81V91H121V90Z" fill="#DAA410"/>
<path d="M121 54H91V78H121V54Z" fill="#8CACF6"/>
<path opacity="0.3" d="M101 54H91V78H101V54Z" fill="#376EEE"/>
<path d="M81 78H111V102H81V78Z" fill="#DAA410"/>
<path d="M91 78H111V102H91V78Z" fill="#F0B616"/>
<path d="M102 96H108V99H102V96Z" fill="#FFE380"/>
<path d="M110 72H116V75H110V72Z" fill="#E7EEFD"/>
<g style="mix-blend-mode:darken">
<path d="M119 28H83.5L101.5 54H121V30C121 28.8954 120.105 28 119 28Z" fill="#F0B616"/>
</g>
<g style="mix-blend-mode:darken">
<path d="M119 28H83.5L101.5 54H121V30C121 28.8954 120.105 28 119 28Z" fill="#F0B616"/>
</g>
<g style="mix-blend-mode:darken">
<path d="M219 78H243L234.828 54H219V78Z" fill="#F0B616"/>
</g>
<path d="M111 90H121V102H111V90Z" fill="#DAA410"/>
<path d="M48 54C51.6667 70.3333 51 102.5 19 100.5" stroke="#376EEE" stroke-opacity="0.1"/>
<path d="M262 86H219V87H262V86Z" fill="#FFC72C"/>
<rect x="253" y="87" width="6" height="3" fill="#FFC72C"/>
<rect x="240" y="72" width="4" height="8" fill="#DAA410"/>
<path d="M48.3943 120C49.9708 115.917 51.2895 111.544 51.6802 108.933C52.3044 104.761 51.3681 101.945 49.0795 101.631C46.7912 101.318 45.1039 105.301 45.1039 105.301C45.1039 105.301 44.1303 99.6602 42.3996 95.9724C40.6685 92.2839 36.9908 90.5488 34.6105 93.4771C32.2306 96.4058 34.0398 107.168 34.0398 107.168C33.6997 106.943 30.8415 105.091 29.158 106.168C27.3483 107.326 28.1166 111.084 28.444 112.684C28.987 115.341 30.404 117.993 31.8888 120" fill="#C3D4FA"/>
<path d="M41.999 119.125L38.7218 99.7686" stroke="#376EEE" stroke-opacity="0.5" stroke-linecap="round" stroke-linejoin="round"/>
<path d="M160 55H185V75H160V55Z" fill="#DAA410"/>
<path d="M168.333 55H185V75H168.333V55Z" fill="#F0B616"/>
<path d="M177.5 70H182.5V72.5H177.5V70Z" fill="#FFE380"/>
</g>
</g>
</svg>
