<svg xmlns="http://www.w3.org/2000/svg" xmlns:xlink="http://www.w3.org/1999/xlink" width="32" height="32" viewBox="0 0 32 32">
    <defs>
        <circle id="a" cx="16" cy="16" r="16"/>
    </defs>
    <g fill="none" fill-rule="evenodd">
        <mask id="b" fill="#fff">
            <use xlink:href="#a"/>
        </mask>
        <use fill="#D5DFE6" xlink:href="#a"/>
        <path fill="#006BA0" fill-rule="nonzero" d="M21.62 20L25 25.25 22.104 25l-1.207 3L18 22.25z" mask="url(#b)"/>
        <path fill="#006BA0" fill-rule="nonzero" d="M10.62 20L14 25.25 11.104 25l-1.207 3L7 22.25z" mask="url(#b)" transform="matrix(-1 0 0 1 21 0)"/>
        <path fill="#FFF" fill-rule="nonzero" d="M15.996 23.632l-2.669 1.366-.616-.955L11.7 22.48l-3.008-.15-.06-1.166-.093-1.838L6 17.686l.54-1.054.837-1.634L6 12.31l.983-.636 1.556-1.006.153-3.004 1.14-.057 1.868-.093L13.329 5l1 .512 1.67.855L18.67 5l.617.954 1.01 1.563 3.011.15.059 1.166.093 1.838L26 12.313l-.541 1.054-.838 1.634L26 17.688l-.984.635-1.556 1.006-.152 3.003-1.14.057-1.87.094L18.67 25l-1-.512z" mask="url(#b)"/>
        <circle cx="16" cy="15" r="7" fill="#006BA0" mask="url(#b)"/>
        <circle cx="16" cy="15" r="5" fill="#1A4379" mask="url(#b)"/>
        <path fill="#FFF" fill-rule="nonzero" d="M17.44 17H19l-2.103-5h-1.802L13 17h1.56l.284-.757h2.312l.283.757zm-1.444-3.876l.784 2.032h-1.56l.776-2.032z" mask="url(#b)"/>
    </g>
</svg>
