<svg width="528" height="111" viewBox="0 0 528 111" fill="none" xmlns="http://www.w3.org/2000/svg">
<path d="M0 4C0 1.79086 1.79086 0 4 0H524C526.209 0 528 1.79086 528 4V110H0V4Z" fill="#92F1D3" fill-opacity="0.5"/>
<mask id="mask0" mask-type="alpha" maskUnits="userSpaceOnUse" x="0" y="0" width="528" height="111">
<path d="M0 4C0 1.79086 1.79086 0 4 0H524C526.209 0 528 1.79086 528 4V110.25H0V4Z" fill="#92F1D3"/>
</mask>
<g mask="url(#mask0)">
<path d="M294.381 59.8816V50.3684L528 33.9938V76.2563L294.381 59.8816Z" fill="#2EE3AA" fill-opacity="0.15"/>
<path d="M305.284 44.6353L295.428 37.8877L444.893 -86.3625L488.865 -56.5831L305.284 44.6353Z" fill="#2EE3AA" fill-opacity="0.12"/>
<path d="M299.036 67.3502C300.943 66.059 303.413 65.9461 305.429 67.058L485.725 166.465L441.751 196.244L298.553 77.1337C295.417 74.525 295.658 69.6374 299.036 67.3502Z" fill="#2EE3AA" fill-opacity="0.12"/>
<path d="M235.461 50.2104V59.671L0 75.9568V33.9277L235.461 50.2119V50.2104Z" fill="#2EE3AA" fill-opacity="0.15"/>
<path d="M235.532 67.0592C237.55 65.9457 240.021 66.0521 241.937 67.335C245.355 69.625 245.611 74.5587 242.448 77.19L99.3193 196.244L55.3455 166.465L235.532 67.0592Z" fill="#2EE3AA" fill-opacity="0.12"/>
<path d="M241.959 42.5098C240.032 43.8151 237.535 43.9289 235.497 42.8044L55.3455 -56.5845L99.3175 -86.361L242.446 32.6216C245.617 35.2574 245.374 40.1978 241.959 42.5098Z" fill="#2EE3AA" fill-opacity="0.12"/>
<path d="M331.782 91.5692L331.754 92.423L330.063 144.771H327.22L328.614 92.423L328.641 91.4376L331.782 91.5692Z" fill="#376EEE"/>
<path opacity="0.1" d="M331.782 91.5692L331.754 92.423H328.614L328.641 91.4376L331.782 91.5692Z" fill="black"/>
<rect x="327.707" y="90.2897" width="5.27287" height="1.7404" fill="#376EEE"/>
<path d="M319.204 91.0118L312.184 153.485H308.868L316.366 91.0118L316.448 90.3226L319.291 90.2568L319.204 91.0118Z" fill="#8CACF6"/>
<path d="M349.044 153.485L341.372 91.0118L341.284 90.2568L344.124 90.3226L344.207 91.0118L352.204 153.485H349.044Z" fill="#8CACF6"/>
<rect x="294.381" y="30.3961" width="70.9123" height="59.6302" fill="white"/>
<path d="M331.221 10.4528V24.8523H328.456V10.4528C328.434 10.0073 328.693 9.58722 329.129 9.35881C329.566 9.1304 330.11 9.1304 330.547 9.35881C330.984 9.58722 331.243 10.0073 331.221 10.4528Z" fill="#8CACF6"/>
<rect opacity="0.1" x="328.453" y="23.542" width="2.76782" height="1.31024" fill="black"/>
<path d="M332.307 24.5252V29.2789H327.385V24.5252C327.384 24.3684 327.455 24.2179 327.581 24.1071C327.707 23.9962 327.879 23.9342 328.058 23.9348H331.639C332.009 23.9372 332.307 24.2008 332.307 24.5252Z" fill="#8CACF6"/>
<path opacity="0.1" d="M329.837 27.87C330.415 27.87 330.883 27.4593 330.883 26.9526C330.883 26.4459 330.415 26.0352 329.837 26.0352C329.259 26.0352 328.791 26.4459 328.791 26.9526C328.791 27.4593 329.259 27.87 329.837 27.87Z" fill="black"/>
<path d="M329.837 27.6724C330.415 27.6724 330.883 27.2617 330.883 26.755C330.883 26.2484 330.415 25.8376 329.837 25.8376C329.259 25.8376 328.791 26.2484 328.791 26.755C328.791 27.2617 329.259 27.6724 329.837 27.6724Z" fill="#376EEE"/>
<rect opacity="0.1" x="327.369" y="28.6907" width="4.93753" height="0.590377" fill="black"/>
<rect x="325.35" y="29.0836" width="8.97665" height="1.31244" fill="#376EEE"/>
<path opacity="0.1" d="M316.449 90.3226L319.291 90.2568L319.204 91.0118H316.366L316.449 90.3226Z" fill="black"/>
<rect opacity="0.1" x="327.707" y="90.2897" width="5.27287" height="0.722059" fill="black"/>
<path opacity="0.1" d="M344.207 91.0118H341.372L341.284 90.2568L344.124 90.3226L344.207 91.0118Z" fill="black"/>
<path d="M311.679 88.8785H349.38C350.278 88.8785 351.006 89.5172 351.006 90.305V90.6167H310.052V90.305C310.052 89.9267 310.223 89.5638 310.528 89.2963C310.833 89.0288 311.247 88.8785 311.679 88.8785V88.8785Z" fill="#8CACF6"/>
<path d="M336.341 49.9049C336.327 49.948 336.319 49.9923 336.317 50.037L336.341 49.9049Z" fill="#7F77FF"/>
<path d="M326.208 53.9712C326.203 53.8745 326.184 53.8341 326.166 53.8292C326.179 53.919 326.191 53.9928 326.208 53.9712Z" fill="#7F77FF"/>
<path d="M326.003 56.0128C325.999 56.0547 325.996 56.0935 325.99 56.1406C325.978 56.0979 325.983 56.053 326.003 56.0128V56.0128Z" fill="#7F77FF"/>
<path d="M336.316 50.037L336.255 50.3764C336.319 50.4001 336.302 50.2024 336.316 50.037Z" fill="#7F77FF"/>
<path d="M339.812 46.8747L339.929 46.8744C339.964 46.854 339.997 46.8304 340.027 46.804L339.812 46.8747Z" fill="#7F77FF"/>
<path d="M344.422 47.0531C344.431 47.0036 344.472 46.9636 344.528 46.9523C344.497 46.9144 344.462 46.8794 344.423 46.848C344.366 46.8416 344.426 46.9888 344.422 47.0531Z" fill="#7F77FF"/>
<path d="M336.12 47.2224C336.096 47.2182 336.072 47.2279 336.061 47.2465C336.081 47.2584 336.101 47.2462 336.12 47.2224Z" fill="#7F77FF"/>
<path d="M325.632 58.4922C325.633 58.4922 325.633 58.4932 325.63 58.4953C325.63 58.4964 325.629 58.4974 325.628 58.4985C325.628 58.5006 325.61 58.5027 325.597 58.5048C325.591 58.5031 325.584 58.5021 325.577 58.5016C325.595 58.4995 325.613 58.4964 325.627 58.4953C325.629 58.4932 325.63 58.4922 325.632 58.4922Z" fill="#7F77FF"/>
<path d="M312.185 74.7126C311.714 74.5811 312.951 74.5437 312.242 74.3975C312.308 74.4551 311.598 74.6271 312.185 74.7126Z" fill="#7F77FF"/>
<path d="M315.947 60.3922C315.931 60.4277 315.906 60.4596 315.874 60.4855C315.909 60.4163 315.93 60.3954 315.947 60.3922Z" fill="#7F77FF"/>
<path d="M322.917 58.799C322.852 58.7974 322.788 58.7911 322.725 58.7802L322.917 58.799Z" fill="#7F77FF"/>
<path d="M313.454 60.9122C313.388 60.901 313.321 60.9011 313.255 60.9122C313.269 60.9197 313.283 60.9257 313.299 60.9301C313.348 60.9123 313.401 60.9061 313.454 60.9122Z" fill="#7F77FF"/>
<path d="M313.454 60.9123C313.479 60.9161 313.504 60.9205 313.537 60.9241C313.51 60.9186 313.482 60.9146 313.454 60.9123Z" fill="#7F77FF"/>
<path d="M309.339 60.9249C309.361 60.9362 309.391 60.9446 309.416 60.9546C309.458 60.9521 309.507 60.9492 309.549 60.9467L309.339 60.9249Z" fill="#7F77FF"/>
<path d="M312.824 61.0238C312.824 61.0289 312.82 61.0332 312.815 61.0354C312.82 61.0291 312.824 61.0238 312.824 61.0238Z" fill="#7F77FF"/>
<path d="M354.439 74.499C354.413 74.497 354.386 74.495 354.356 74.4922C354.388 74.4957 354.414 74.4977 354.439 74.499Z" fill="#7F77FF"/>
<path d="M355.572 71.1192C355.571 71.1192 355.57 71.1198 355.569 71.1198C355.57 71.1238 355.571 71.1226 355.572 71.1192Z" fill="#7F77FF"/>
<path d="M322.559 58.8943C322.602 58.8872 322.644 58.8763 322.684 58.8619C322.772 58.8818 322.652 58.8807 322.559 58.8943Z" fill="#7F77FF"/>
<path d="M355.45 58.2119C355.456 58.1871 355.463 58.1592 355.471 58.1251C355.463 58.1544 355.457 58.183 355.45 58.2119Z" fill="#7F77FF"/>
<path d="M355.666 69.3679C355.679 69.3429 355.697 69.3201 355.72 69.3009L355.737 69.3533C355.75 69.2457 355.742 69.1369 355.713 69.0317C355.739 68.8921 355.754 68.751 355.758 68.6096C355.885 68.5499 355.826 68.0104 355.833 67.7507C355.666 67.7716 355.692 67.4375 355.557 67.7423C355.567 67.7245 355.573 67.8135 355.58 67.9727C355.583 68.0101 355.589 68.0472 355.598 68.0837C355.593 68.0785 355.588 68.0722 355.583 68.0659C355.586 68.2367 355.59 68.4598 355.594 68.7133C355.48 68.4905 355.458 68.24 355.53 68.0041C355.422 67.8711 355.311 67.7234 355.26 67.6407C355.494 67.2845 355.621 66.5974 355.764 66.5021C355.671 65.7071 355.702 64.6292 355.387 64.1285C355.346 63.9023 355.477 63.8688 355.528 63.7839C355.559 63.9148 355.554 64.0699 355.599 64.1411C355.518 63.6886 355.568 62.8014 355.347 62.6935C355.446 62.1237 355.55 63.014 355.514 62.2305L355.581 62.3363C355.928 60.8227 355.051 59.8653 355.45 58.2114C355.434 58.2732 355.42 58.3099 355.394 58.3266C355.593 56.3804 355.206 54.3148 355.523 52.3938C355.586 51.848 355.446 51.7883 355.339 51.4552L355.519 51.3369L355.311 50.7671C355.159 49.9595 355.753 49.3687 355.465 48.3453L355.344 48.4773C355.368 48.1096 355.272 47.3136 355.412 47.3754C355.337 47.3043 355.313 47.2027 355.35 47.1114L355.444 47.0999L355.282 46.197C355.35 45.4983 355.657 46.3069 355.674 45.2857C355.639 44.9065 355.4 44.2057 355.336 44.3482C355.333 44.5011 355.278 44.7389 355.184 44.7504L355.135 44.4037C355.117 44.3995 355.1 44.3953 355.082 44.3901V44.3346H354.911C354.84 44.3079 354.758 44.3079 354.687 44.3346H350.405L350.451 44.2937L350.31 44.3346H349.706C349.724 44.3031 349.781 44.277 349.901 44.2644C349.461 44.1565 349.511 44.3419 349.135 44.2214C349.093 44.2026 349.111 44.1921 349.151 44.1837L348.721 44.2487C348.806 44.2026 348.65 44.0947 348.913 44.1261C348.144 44.0004 347.672 44.2895 347.382 44.124L347.446 44.1115C346.647 44.1659 346.985 44.2277 346.871 44.3346H346.371L346.271 44.2613L346.136 44.1628C346.09 44.1258 346.04 44.0928 345.987 44.0643C345.946 44.1149 345.909 44.1681 345.877 44.2235C345.753 44.2183 345.497 44.2068 345.509 44.1418C345.29 44.1974 345.336 44.2141 345.388 44.2309C345.446 44.2476 345.515 44.2633 345.427 44.3157C345.287 44.2867 345.144 44.2695 345 44.2644C344.985 44.4969 345.004 44.7787 344.998 44.9934C344.992 45.2176 344.962 45.3621 344.845 45.4072C344.984 45.5737 344.952 44.962 345.049 45.4585C344.736 45.5978 345.102 46.0388 344.958 46.4525C344.797 46.3331 344.883 45.9225 344.739 46.3499C344.784 46.3921 344.818 46.4431 344.837 46.4986C344.85 46.5548 344.852 46.6127 344.841 46.6694C344.82 46.77 344.788 46.8686 344.745 46.9637C344.674 46.9482 344.601 46.9443 344.528 46.9522C344.6 47.0475 344.44 47.0674 344.2 47.0716C344.055 47.0716 343.889 47.0726 343.72 47.0726C343.542 47.0747 343.359 47.0789 343.187 47.0946C343.23 47.0308 341.896 46.9909 341.258 46.9218L341.276 46.8893C341.153 47.0821 340.495 47.0454 340.015 47.0852C340.034 46.97 340.12 46.925 340.38 46.8736L339.929 46.8747C339.823 46.9365 339.683 46.9689 339.39 46.9909L339.504 46.8464C339.204 46.8506 338.902 46.8935 338.578 46.9229C338.416 46.9375 338.25 46.948 338.074 46.9501C337.987 46.9511 337.897 46.949 337.805 46.9449C337.76 46.9428 337.713 46.9396 337.667 46.9354C337.614 46.9302 337.562 46.925 337.509 46.9197C337.492 46.9532 337.551 46.9941 337.588 47.036C337.634 47.0766 337.675 47.1208 337.712 47.168C337.734 47.1942 337.738 47.2285 337.723 47.2581H337.305C337.306 47.2182 337.333 47.1826 337.422 47.1638C337.299 47.1946 337.17 47.2021 337.043 47.1858C337.139 47.146 337.25 47.1051 337.375 47.0643C336.921 47.0108 337.189 47.1659 336.87 47.1544C336.804 47.0517 336.564 47.081 336.538 46.9993C336.628 46.9888 336.886 47.0412 337 47.0014C336.763 46.9909 336.482 46.9669 336.224 46.9333C336.209 47.0341 336.174 47.1319 336.121 47.2224C336.188 47.2277 336.28 47.3261 336.294 47.5953C336.299 47.94 336.263 47.9955 336.219 48.0175C336.198 48.0279 336.174 48.029 336.151 48.0562C336.137 48.0747 336.126 48.0948 336.119 48.1159C336.106 48.144 336.098 48.1731 336.092 48.2029C336.174 48.3306 336.089 48.6658 336.266 48.6753C336.264 48.8292 336.182 48.8575 336.134 48.9172C336.212 49.1896 336.157 50.1889 336.345 49.8819L336.356 49.8118C336.36 49.8254 336.361 49.84 336.365 49.8568C336.414 50.1273 336.433 50.4012 336.422 50.6749C336.415 50.9032 336.39 51.12 336.366 51.3107C336.19 51.2971 336.028 51.2856 335.876 51.2793C335.8 51.2772 335.726 51.2751 335.652 51.2772L335.508 51.2803C335.458 51.2835 335.407 51.2856 335.357 51.2876L335.359 51.2363C334.756 51.295 334.017 51.2709 333.587 51.383C333.409 51.3819 333.166 51.2876 333.243 51.2269C332.782 51.2656 332.73 51.3233 332.065 51.2384C332.527 51.1483 331.905 51.1578 332.539 51.1724C331.941 51.1274 331.805 51.0446 331.162 51.186C331.381 51.053 330.712 51.0195 330.428 51.0582L330.847 51.1536C330.552 51.1675 330.257 51.1661 329.963 51.1494L330.116 50.9755C329.504 50.8697 328.951 50.9598 328.435 51.0321C328.188 51.0716 327.938 51.0944 327.686 51.1001L327.596 51.0991L327.48 51.0939C327.39 51.0897 327.299 51.0834 327.207 51.074C327.006 51.0529 326.806 51.0221 326.609 50.9818C326.394 51.0425 326.681 51.0635 326.945 51.0876C327.216 51.1117 327.462 51.1389 327.276 51.2101C326.881 51.1872 326.488 51.1428 326.099 51.0771C326.022 51.3054 325.968 51.5392 325.938 51.7758C325.923 51.913 325.919 52.0376 325.919 52.1476C325.919 52.2021 325.92 52.2545 325.923 52.3026C325.925 52.3246 325.926 52.3571 325.928 52.3676C325.931 52.3801 325.933 52.3938 325.935 52.4063C325.956 52.497 325.988 52.5853 326.032 52.6692C326.146 52.8817 326.188 53.1184 326.153 53.3512C326.223 53.26 326.413 53.1752 326.479 53.7041C326.465 53.9974 326.362 54.1577 326.27 54.1724C326.218 54.1818 326.171 54.1451 326.143 54.0634C326.135 54.0427 326.129 54.0213 326.125 53.9995C326.119 53.8812 326.142 53.8246 326.166 53.8288C326.14 53.6696 326.11 53.4601 326.033 53.656L326.104 53.7199C326.081 53.8096 326.066 53.9006 326.058 53.9922C326.026 54.274 326.007 54.6018 325.922 54.4856C325.981 54.805 326.025 54.695 326.06 54.4824C325.984 55.048 326.068 55.4 326.003 56.0128C326.043 55.9091 326.127 55.8127 326.125 55.9164C326.037 56.8738 326.26 56.3385 326.291 56.9869C326.183 57.3556 326.033 56.8549 326.123 57.5075C326.05 57.9066 325.935 57.5923 325.878 57.4342C325.934 57.7056 325.935 57.9837 325.88 58.2554C325.877 58.2732 325.875 58.291 325.871 58.3078C325.869 58.3203 325.866 58.3339 325.864 58.3465L325.859 58.3685C325.858 58.3748 325.857 58.3737 325.855 58.3758L325.846 58.3863C325.835 58.3969 325.823 58.4064 325.81 58.4146C325.793 58.4232 325.777 58.433 325.762 58.4439C325.75 58.4272 325.736 58.4121 325.719 58.3989C325.734 58.4135 325.741 58.4329 325.738 58.4523C325.753 58.4608 325.768 58.4685 325.784 58.4753C325.814 58.4893 325.847 58.5002 325.88 58.5078C325.857 58.5382 325.855 58.5686 325.809 58.5309C325.804 58.5276 325.799 58.5237 325.794 58.5193C325.836 58.5741 325.886 58.6238 325.943 58.667C326.005 58.7226 326.079 58.7823 326.008 58.8378C325.91 58.8165 325.808 58.8129 325.708 58.8273C325.683 58.8283 325.658 58.8283 325.634 58.8273C325.597 58.8254 325.559 58.8216 325.522 58.8158C325.462 58.812 325.406 58.7842 325.372 58.7404C325.483 58.7477 325.563 58.7498 325.622 58.7487C325.655 58.7487 325.667 58.7445 325.676 58.7372C325.693 58.7246 325.681 58.7006 325.67 58.6754C325.65 58.6325 325.643 58.5843 325.679 58.5602C325.673 58.5615 325.668 58.5622 325.662 58.5623C325.651 58.562 325.641 58.5602 325.631 58.5571C325.585 58.5539 325.539 58.5497 325.49 58.5455C325.459 58.5267 325.52 58.511 325.577 58.5015C325.513 58.49 325.455 58.4816 325.405 58.4753C325.306 58.4596 325.204 58.4596 325.105 58.4753C324.888 58.5204 324.935 58.6869 324.318 58.6838C324.428 58.5916 324.115 58.5078 323.973 58.5277C324.325 58.5298 324.141 58.6827 323.819 58.754C323.259 58.6817 323.211 58.8074 322.917 58.799L323.252 58.8336C323.138 58.9268 322.859 58.9142 322.469 58.9436C322.459 58.9205 322.488 58.9079 322.531 58.8985C322.129 58.953 321.646 58.71 321.117 58.8001C321.112 58.8002 321.107 58.8009 321.102 58.8022C320.822 58.7393 321.074 58.6283 320.828 58.5853C320.152 58.7058 320.096 58.4575 319.384 58.557C319.59 58.6827 319.625 58.6524 319.124 58.7739L320.294 58.6859L319.543 58.8671C319.897 58.8692 320.288 58.7885 320.5 58.8105C320.141 58.9121 320.178 58.8807 320.348 58.9844C319.864 58.7969 319.39 59.0944 318.832 58.9677L318.849 58.6576C318.494 58.6081 318.132 58.6096 317.778 58.6618L317.642 58.6775L317.574 58.6848L317.556 58.6869L317.528 58.689L317.472 58.6932C317.325 58.7027 317.176 58.7131 317.022 58.7236C316.72 58.7414 316.411 58.754 316.059 58.7519C316.058 58.8901 316.053 59.0336 316.045 59.1834L316.101 58.7885L316.145 58.7927C316.14 58.7997 316.132 58.8052 316.124 58.8084C316.174 59.0027 316.191 59.2026 316.174 59.4013C316.174 59.4191 316.172 59.438 316.172 59.4568V59.4579C316.17 59.5563 316.167 59.659 316.165 59.7616C316.165 59.8224 316.167 59.8821 316.169 59.9408C316.17 59.9701 316.172 59.9984 316.174 60.0266L316.177 60.0675L316.182 60.0958C316.064 60.0664 316.021 60.2602 315.948 60.3922C315.969 60.388 315.98 60.4299 315.987 60.4959C315.995 60.5231 315.998 60.5567 316.006 60.5965C316.028 60.7054 316.087 60.8061 316.175 60.8856C316.157 60.9014 316.136 60.9152 316.114 60.9264C316.041 60.9024 315.969 60.8748 315.899 60.8437C315.826 60.8301 315.749 60.8378 315.682 60.8657C315.666 60.8719 315.651 60.8793 315.635 60.8866C315.623 60.8924 315.609 60.8963 315.596 60.8981C315.579 60.9023 315.562 60.9065 315.547 60.9107C315.481 60.9285 315.419 60.9474 315.358 60.9662C315.069 61.0709 314.757 61.1178 314.445 61.1034C314.7 60.9914 314.315 60.918 314.883 60.8374C314.599 60.8363 314.346 60.8175 314.342 60.8887C314.311 60.8788 314.278 60.8745 314.245 60.8761C314.103 60.8772 313.874 60.9254 313.665 60.9474C313.565 60.9611 313.463 60.9611 313.363 60.9474C313.341 60.9443 313.319 60.9387 313.299 60.9306C313.286 60.9356 313.274 60.9412 313.262 60.9474C313.143 61.0422 312.984 61.0886 312.823 61.0752C312.816 61.0712 312.81 61.0646 312.809 61.0569C312.807 61.0493 312.81 61.0414 312.815 61.0354C312.752 61.0783 312.349 61.1024 312.606 61.2082C312.23 61.0689 311.725 61.0542 311.21 61.0605C310.535 61.0678 309.846 61.1118 309.416 60.9547C309.108 60.9715 308.768 60.9893 308.435 61.0029C308.269 61.0081 308.104 61.0144 307.947 61.0196C307.868 61.0217 307.79 61.0238 307.716 61.0259C307.633 61.027 307.553 61.0291 307.476 61.0301C307.5 61.0144 307.5 61.0018 307.513 60.9945C307.542 60.9843 307.575 60.9825 307.605 60.9893C307.584 60.9872 307.569 60.984 307.543 60.983C307.517 60.9809 307.49 60.9798 307.465 60.9777C307.415 60.9756 307.369 60.9746 307.326 60.9735C307.252 60.9733 307.179 60.9767 307.106 60.984C307.017 60.9916 306.93 61.0151 306.851 61.0532C306.73 61.1418 306.577 61.192 306.419 61.1956C306.425 61.3083 306.418 61.4212 306.4 61.5329C306.352 61.624 306.322 61.645 306.302 61.6146C306.279 61.5524 306.267 61.4873 306.267 61.4219C306.257 61.2553 306.26 61.0668 306.224 61.2071C306.031 61.1317 306.044 61.5318 306.078 61.9697C306.094 62.2242 306.116 62.3353 306.119 62.4955C306.128 62.6415 306.105 62.7876 306.051 62.926L306.029 62.8003C305.896 63.1963 306.175 63.7671 306.148 64.4145C306.148 64.4145 306.113 64.383 306.089 64.4103C306.287 64.8534 306.352 65.6913 306.407 66.3135C306.255 66.1197 306.327 66.0307 306.173 66.1491C306.195 66.4287 306.42 66.0674 306.463 66.6246C306.381 66.8058 306.308 67.2081 306.143 67.2615L306.134 66.7357C305.921 67.0049 306.142 67.4155 306.105 67.693L306.012 67.6574C306.042 68.4629 306.276 68.4744 306.259 69.3397L306.33 69.2506C306.562 69.7241 306.199 69.6476 306.373 70.119L306.136 70.2625C306.193 70.5746 306.364 71.355 306.408 71.9154C306.234 71.598 306.144 70.9433 306.041 70.538C306.039 70.847 306.058 71.5896 306.174 71.7509C306.152 71.6263 306.094 71.4692 306.13 71.3455C306.315 71.7247 306.406 72.2244 306.402 72.8413C306.253 72.8057 306.189 72.9649 306.158 73.2121C306.156 73.2278 306.154 73.2436 306.153 73.2603C306.152 73.2834 306.149 73.3075 306.148 73.3315C306.146 73.3808 306.143 73.4311 306.14 73.4834C306.137 73.5882 306.134 73.6992 306.13 73.8123C306.124 74.0438 306.118 74.2868 306.112 74.5225C306.658 74.5382 307.16 74.5728 307.451 74.6807L307.549 74.6733L307.61 74.6671L307.727 74.6566C307.805 74.6503 307.882 74.6451 307.96 74.6409C308.115 74.6315 308.27 74.6283 308.427 74.6273C308.739 74.6262 309.054 74.6377 309.375 74.6534C310.018 74.6849 310.685 74.732 311.41 74.7194C310.897 74.4083 311.833 74.7111 311.745 74.3905C312.079 74.3706 312.208 74.3759 312.239 74.3958L312.19 74.3863C312.208 74.3905 312.223 74.3937 312.242 74.3979V74.3968L313.264 74.5875C313.507 74.6807 312.943 74.6576 312.974 74.7299C313.713 74.7551 313.284 74.8661 313.773 74.9509C313.673 74.8368 314.03 74.7865 314.451 74.8305L313.858 74.6828C314.891 74.512 314.751 74.952 315.791 74.7823L315.462 74.8839C315.997 74.8242 317.433 74.886 317.957 74.6283C318.051 74.665 318.177 74.753 317.941 74.776C319.218 74.8148 320.783 74.5026 321.775 74.6608L321.679 74.7393C321.916 74.7163 322.093 74.5917 322.392 74.6702C322.376 74.7027 322.295 74.7488 322.406 74.753C322.531 74.7268 323.038 74.6157 323.354 74.6618L323.084 74.7498C323.868 74.8148 324.422 74.7132 324.986 74.6147C325.333 74.5485 325.685 74.5041 326.039 74.4817C326.037 74.7121 327.016 74.7875 327.506 74.8242L327.488 74.8567C328.069 74.8661 328.651 74.8412 329.228 74.7823C329.671 74.7393 330.101 74.6849 330.557 74.6398H330.558C330.586 74.6367 330.615 74.6335 330.645 74.6304C330.75 74.6199 330.857 74.6105 330.966 74.6011C331 74.5979 331.034 74.5948 331.069 74.5917C331.143 74.5864 331.218 74.5812 331.295 74.5759C331.675 74.6671 332.066 74.7156 332.46 74.7205C333.394 74.7603 334.57 74.7278 335.458 74.821C335.253 74.7791 335.492 74.6409 335.729 74.6178C336.024 74.6618 336.531 74.4827 336.551 74.6346C336.553 74.6462 336.552 74.6578 336.549 74.6692L336.442 74.665H336.436L336.438 74.666C336.675 74.8724 337.32 74.8179 337.824 74.8231L337.907 74.5466C339.227 74.9488 341.365 74.3989 342.085 74.7592C342.404 74.6901 342.798 74.6912 343.113 74.622L343.096 74.7697C343.9 74.8144 344.705 74.8214 345.509 74.7907L345.287 74.8975C345.902 74.9069 346.063 74.4691 346.632 74.4607L346.801 74.6817C347.875 74.6786 348.961 74.8734 350.021 74.6723C350.005 74.7048 349.972 74.7687 349.799 74.7781C350.288 74.7833 351.659 74.9185 351.583 74.6524C351.7 74.8022 352.708 74.6388 353.256 74.556L353.166 74.7016C353.411 74.6084 353.537 74.5487 353.687 74.5068C353.773 74.4831 353.86 74.4653 353.949 74.4534C354.004 74.4461 354.056 74.4387 354.131 74.4324C354.222 74.4262 354.325 74.4199 354.441 74.4125C354.646 74.4303 354.681 74.511 354.439 74.4995C354.619 74.5202 354.801 74.5131 354.978 74.4785C355.127 74.4372 355.281 74.4156 355.437 74.4146C355.436 74.3093 355.442 74.204 355.456 74.0993C355.492 74.2208 355.528 74.3497 355.562 74.4859C355.576 74.2617 355.565 74.0368 355.53 73.8144C355.501 73.6804 355.456 73.5808 355.395 73.3954C355.39 73.3703 355.387 73.3431 355.384 73.3148C355.382 73.2886 355.379 73.2624 355.377 73.2341C355.375 73.188 355.374 73.1378 355.375 73.0875C355.378 72.9832 355.39 72.8793 355.409 72.7764C355.446 72.5742 355.512 72.4024 355.587 72.3668C355.495 72.3008 355.372 72.0348 355.415 71.7478C355.473 71.709 355.508 71.8127 355.525 71.8661C355.639 71.0523 355.332 70.6553 355.495 70.0959C355.546 70.0833 355.584 70.0469 355.594 70.0017C355.591 70.5945 355.583 71.0805 355.572 71.1193C355.723 71.112 355.751 70.5998 355.961 71.0125C355.845 70.5935 355.594 69.877 355.666 69.3679Z" fill="#376EEE"/>
<path d="M355.801 68.2838C355.824 68.4577 355.791 68.5153 355.757 68.5394C355.755 68.4577 355.749 68.3613 355.737 68.2356C355.731 68.2314 355.724 68.2209 355.717 68.2157C355.751 68.2316 355.78 68.2551 355.801 68.2838V68.2838Z" fill="#6C63FF"/>
<path d="M348.964 44.3116C348.984 44.3172 349.004 44.325 349.022 44.3346H348.768C348.829 44.3263 348.894 44.3189 348.964 44.3116V44.3116Z" fill="#6C63FF"/>
<path d="M325.708 58.5477C325.7 58.5551 325.689 58.5596 325.678 58.5602C325.687 58.5546 325.697 58.5504 325.708 58.5477Z" fill="#7F77FF"/>
<path d="M322.531 58.899C322.54 58.8977 322.55 58.8958 322.559 58.8942C322.549 58.8956 322.54 58.8972 322.531 58.899Z" fill="#7F77FF"/>
<path d="M355.58 67.9727C355.574 67.9492 355.57 67.9253 355.568 67.9013C355.553 67.9367 355.541 67.9703 355.53 68.0046L355.583 68.066L355.58 67.9727Z" fill="#7F77FF"/>
<path d="M336.34 49.9049C336.345 49.8876 336.353 49.8712 336.364 49.8565C336.356 49.8719 336.351 49.8719 336.344 49.8818L336.34 49.9049Z" fill="#7F77FF"/>
<path d="M344.688 44.1581C344.742 44.1592 344.803 44.2274 344.791 44.7286L344.827 44.1128L345.091 44.1239C344.878 44.0671 344.526 43.9906 345.013 43.9769C344.845 43.9598 344.718 43.9467 344.627 43.9374C344.587 44.2328 344.634 44.1594 344.688 44.1581Z" fill="#7F77FF"/>
<path d="M344.696 46.7213C344.681 46.6039 344.658 46.6006 344.634 46.6144C344.61 46.6293 344.585 46.6593 344.567 46.6446C344.625 46.7837 344.64 46.8511 344.696 46.7213Z" fill="#7F77FF"/>
<path d="M333.069 51.1744L333.11 51.0404C332.792 51.0597 333.107 51.0923 333.069 51.1744Z" fill="#7F77FF"/>
<path d="M327.555 50.9329L327.581 50.9311L327.631 50.9273L327.827 50.9126L327.966 50.8935L327.7 50.9178L327.567 50.9299L327.35 50.9421L327.514 50.9347L327.555 50.9329Z" fill="#7F77FF"/>
<path d="M310.086 60.7948L310.182 60.9598C310.398 60.9302 310.443 60.7448 310.086 60.7948Z" fill="#7F77FF"/>
<path d="M338.283 74.8102L338.757 74.7641L338.534 74.7549L338.283 74.8102Z" fill="#7F77FF"/>
<path d="M340.606 61.2889C340.577 62.5597 340.375 63.8229 340.003 65.0514C338.555 69.744 334.595 73.1588 332.46 74.7206C332.066 74.7157 331.675 74.6671 331.295 74.576C331.218 74.5812 331.143 74.5865 331.069 74.5917C331.034 74.5949 331 74.598 330.966 74.6011C330.857 74.6106 330.75 74.62 330.645 74.6305C330.615 74.6336 330.586 74.6368 330.558 74.6399H330.556C329.866 73.0564 329.371 71.4126 329.079 69.7367L329.078 69.7357V69.7346C328.709 67.5852 328.649 65.0629 329.427 62.5427C329.76 61.4762 330.22 60.4436 330.801 59.4621C333.577 54.7381 338.377 51.9235 338.377 51.9235C338.377 51.9235 340.749 56.1961 340.606 61.2889Z" fill="white"/>
<path d="M326.003 56.0128C325.999 56.0547 325.996 56.0935 325.99 56.1406C325.978 56.0979 325.983 56.053 326.003 56.0128V56.0128Z" fill="white"/>
<path d="M322.559 58.8943C322.602 58.8872 322.644 58.8763 322.684 58.8619C322.772 58.8818 322.652 58.8807 322.559 58.8943Z" fill="white"/>
<path d="M322.725 58.7802L322.917 58.799C322.852 58.7974 322.788 58.7911 322.725 58.7802V58.7802Z" fill="white"/>
<path d="M325.597 58.5048C325.591 58.5031 325.584 58.5021 325.577 58.5016C325.595 58.4995 325.613 58.4964 325.627 58.4953C325.629 58.4932 325.63 58.4922 325.632 58.4922C325.633 58.4922 325.633 58.4932 325.63 58.4953C325.63 58.4964 325.629 58.4974 325.628 58.4985C325.628 58.5006 325.61 58.5027 325.597 58.5048Z" fill="white"/>
<path d="M325.708 58.5477C325.7 58.5551 325.689 58.5596 325.678 58.5602C325.687 58.5546 325.697 58.5504 325.708 58.5477Z" fill="white"/>
<path d="M332.529 69.7282C332.529 69.7303 332.528 69.7324 332.528 69.7345C332.239 71.3942 331.75 73.0224 331.069 74.5916C331.035 74.5948 331 74.5979 330.967 74.6011C330.858 74.6105 330.75 74.6199 330.645 74.6304C330.615 74.6335 330.587 74.6367 330.558 74.6398H330.557C330.102 74.6848 329.672 74.7393 329.229 74.7823C327.116 73.2498 323.069 69.8068 321.604 65.0513C321.231 63.8226 321.028 62.559 320.999 61.2878C320.978 60.4572 321.017 59.6262 321.118 58.8001C321.647 58.71 322.129 58.953 322.532 58.8985C322.489 58.9079 322.459 58.9205 322.47 58.9436C322.859 58.9142 323.139 58.9268 323.252 58.8336L322.918 58.799C323.211 58.8074 323.259 58.6817 323.819 58.754C324.142 58.6827 324.326 58.5298 323.973 58.5277C324.116 58.5078 324.429 58.5916 324.319 58.6838C324.935 58.6869 324.888 58.5204 325.106 58.4753H325.406C325.456 58.4816 325.513 58.49 325.578 58.5015C325.52 58.5109 325.459 58.5267 325.49 58.5455C325.539 58.5497 325.586 58.5539 325.631 58.557C325.641 58.5602 325.652 58.562 325.662 58.5623C325.668 58.5622 325.674 58.5615 325.679 58.5602C325.643 58.5843 325.65 58.6325 325.671 58.6754C325.681 58.7005 325.693 58.7246 325.677 58.7372C325.667 58.7445 325.655 58.7487 325.623 58.7487C325.563 58.7498 325.483 58.7477 325.372 58.7403C325.407 58.7842 325.462 58.812 325.523 58.8158C325.56 58.8215 325.597 58.8254 325.635 58.8273C325.659 58.8283 325.684 58.8283 325.709 58.8273C325.809 58.8129 325.911 58.8165 326.009 58.8378C326.079 58.7822 326.005 58.7225 325.943 58.667C325.886 58.6237 325.837 58.5741 325.795 58.5193C325.799 58.5237 325.804 58.5276 325.809 58.5309C325.856 58.5686 325.857 58.5382 325.881 58.5078C325.847 58.5002 325.815 58.4893 325.784 58.4753H325.871V58.3077C325.875 58.291 325.877 58.2732 325.881 58.2554C325.936 57.9837 325.935 57.7056 325.879 57.4342C325.936 57.5923 326.051 57.9066 326.123 57.5075C326.034 56.8549 326.183 57.3556 326.292 56.9869C326.261 56.3385 326.037 56.8738 326.126 55.9164C326.127 55.8127 326.043 55.909 326.004 56.0128C326.068 55.4 325.985 55.048 326.06 54.4824C326.025 54.695 325.981 54.805 325.923 54.4855C326.008 54.6018 326.027 54.274 326.059 53.9922C326.086 54.0152 326.115 54.0393 326.144 54.0634C326.185 54.099 326.228 54.1357 326.27 54.1724C327.758 55.4534 329.503 57.2467 330.802 59.4621C330.802 59.462 330.802 59.4622 330.803 59.4624C330.803 59.4625 330.803 59.4628 330.803 59.4631C331.385 60.4439 331.846 61.4762 332.179 62.5426C332.955 65.0607 332.897 67.5789 332.529 69.7282Z" fill="white"/>
<path d="M315.947 60.3922C315.931 60.4277 315.906 60.4596 315.874 60.4855C315.909 60.4163 315.93 60.3954 315.947 60.3922Z" fill="#3F3D56"/>
<path d="M312.824 61.0238C312.824 61.0289 312.82 61.0332 312.815 61.0354C312.82 61.0291 312.824 61.0238 312.824 61.0238Z" fill="#3F3D56"/>
<path d="M330.645 74.6304C330.615 74.6336 330.587 74.6367 330.558 74.6398H330.557C330.102 74.6849 329.672 74.7394 329.228 74.7823C328.651 74.8412 328.07 74.8661 327.488 74.8567L327.506 74.8242C327.016 74.7875 326.037 74.7121 326.039 74.4817C325.685 74.5041 325.333 74.5485 324.986 74.6147C322.403 73.8773 319.394 72.6287 316.932 70.5275C313.463 67.5663 311.897 63.61 311.21 61.0605C311.725 61.0542 312.23 61.0689 312.606 61.2082C312.349 61.1024 312.752 61.0783 312.815 61.0354C312.81 61.0414 312.807 61.0493 312.809 61.0569C312.811 61.0646 312.816 61.0712 312.824 61.0752C312.984 61.0886 313.143 61.0422 313.262 60.9474H314.245V60.8762C314.278 60.8746 314.311 60.8788 314.342 60.8887C314.346 60.8175 314.6 60.8364 314.883 60.8374C314.315 60.9181 314.7 60.9914 314.446 61.1035C314.758 61.1178 315.069 61.0709 315.358 60.9662C315.419 60.9474 315.481 60.9285 315.547 60.9107C315.562 60.9065 315.579 60.9023 315.596 60.8981C315.61 60.8963 315.623 60.8924 315.635 60.8866C315.651 60.8793 315.666 60.872 315.682 60.8657C315.75 60.8378 315.826 60.8301 315.899 60.8437C315.969 60.8748 316.041 60.9024 316.114 60.9264C316.136 60.9152 316.157 60.9015 316.175 60.8856C316.087 60.8061 316.029 60.7054 316.007 60.5965C315.998 60.5567 315.995 60.5232 315.988 60.4959C315.98 60.4299 315.97 60.388 315.948 60.3922C316.021 60.2602 316.064 60.0665 316.182 60.0958L316.177 60.0675L316.174 60.0267C316.173 59.9984 316.17 59.9701 316.169 59.9408C316.167 59.8821 316.165 59.8224 316.165 59.7617C316.167 59.659 316.17 59.5563 316.173 59.4579C317.854 59.9078 319.473 60.5217 320.999 61.2878C322.297 61.9402 323.498 62.7307 324.574 63.6415C326.729 65.4808 328.149 67.7035 329.078 69.7346V69.7356L329.079 69.7367C329.799 71.314 330.324 72.9547 330.645 74.6304Z" fill="#1A4379"/>
<path d="M336.436 74.665H336.442C336.441 74.6657 336.439 74.6661 336.437 74.6661L336.436 74.665Z" fill="#3F3D56"/>
<path d="M350.902 58.5057C350.902 58.5057 350.223 65.7898 344.674 70.5275C342.19 72.6486 339.15 73.9003 336.551 74.6346C336.531 74.4827 336.025 74.6618 335.73 74.6178C335.492 74.6409 335.253 74.7791 335.458 74.8211C334.57 74.7278 333.394 74.7603 332.46 74.7205C332.067 74.7156 331.675 74.6671 331.295 74.5759C331.218 74.5812 331.143 74.5864 331.069 74.5917C331.034 74.5948 331 74.5979 330.966 74.6011C331.288 72.9327 331.812 71.2992 332.529 69.7283C333.46 67.6993 334.88 65.4787 337.031 63.6425C338.108 62.7316 339.308 61.941 340.606 61.2889C345.577 58.7603 350.902 58.5057 350.902 58.5057Z" fill="#1A4379"/>
<path fill-rule="evenodd" clip-rule="evenodd" d="M232.811 90.9896C232.278 91.6559 231.496 92.8229 231.167 94.4056C230.637 96.9614 231.626 98.9746 232.126 99.9573C233.727 103.101 236.577 104.699 237.477 105.181C243.887 108.614 253.142 107.311 259.5 103.598C259.996 103.309 270.812 96.7543 269.873 85.5989C269.042 75.7231 259.712 70.7093 258.368 70.015C257.254 69.4401 253.129 67.4072 247.276 67.2225C242.25 67.0638 238.227 68.1394 235.127 69.6278C234.512 69.9912 233.594 70.5508 232.52 71.2826C228.854 73.7798 227.605 75.3937 227.221 75.9171C227.22 75.9178 225.76 77.9037 226.038 79.4844C226.047 79.5374 226.059 79.5922 226.059 79.5922C226.118 79.8584 226.29 80.4269 226.806 80.9216C227.687 81.7669 228.79 82.119 230.93 82.0429C237.201 81.8217 236.193 86.7331 232.811 90.9896Z" fill="white"/>
<path fill-rule="evenodd" clip-rule="evenodd" d="M259.071 89.8434C257.813 88.5294 258.07 86.5258 259.643 85.3686C261.215 84.2113 263.51 84.3376 264.767 85.6515C266.024 86.9655 265.767 88.969 264.195 90.1263C262.622 91.2836 260.328 91.1573 259.071 89.8434Z" fill="#EF5055"/>
<path fill-rule="evenodd" clip-rule="evenodd" d="M253.52 79.865C252.137 78.4197 252.352 76.2649 253.999 75.0533C255.647 73.8402 258.104 74.0283 259.487 75.4736C260.87 76.9189 260.655 79.0737 259.006 80.2868C257.36 81.4984 254.903 81.3103 253.52 79.865Z" fill="#2EE3AA"/>
<path fill-rule="evenodd" clip-rule="evenodd" d="M253.664 98.6864C252.658 97.6352 252.815 96.0681 254.013 95.1864C255.212 94.3041 256.998 94.4415 258.004 95.4926C259.01 96.5437 258.854 98.1103 257.655 98.9926C256.457 99.8743 254.67 99.7375 253.664 98.6864Z" fill="#FFD560"/>
<path fill-rule="evenodd" clip-rule="evenodd" d="M241.745 99.7558C240.991 98.9676 241.108 97.7919 242.006 97.131C242.905 96.4693 244.246 96.5723 245 97.3605C245.754 98.1487 245.636 99.324 244.737 99.9857C243.839 100.647 242.499 100.544 241.745 99.7558Z" fill="#376EEE"/>
<path fill-rule="evenodd" clip-rule="evenodd" d="M230.248 88.4873L260.925 216.863H228.484L209.859 142.578L218.641 88.4873H230.248Z" fill="#0AA2AD"/>
<path fill-rule="evenodd" clip-rule="evenodd" d="M183.614 88.4985L168.106 216.863H200.847C206.78 174.073 212.709 131.277 218.642 88.4873C206.964 88.4901 195.289 88.4957 183.614 88.4985Z" fill="#1AC0CC"/>
<mask id="mask1" mask-type="alpha" maskUnits="userSpaceOnUse" x="178" y="9" width="41" height="41">
<path fill-rule="evenodd" clip-rule="evenodd" d="M218.639 9.1875H178.958V49.1801H218.639V9.1875Z" fill="white"/>
</mask>
<g mask="url(#mask1)">
<path fill-rule="evenodd" clip-rule="evenodd" d="M203.625 29.8612L204.213 46.6113C204.213 46.6113 195.535 47.4951 178.958 49.1801C182.743 43.0454 185.201 37.7718 186.773 33.9737C189.903 26.4285 191.64 24.2561 193.672 18.6822C194.999 15.0427 199.214 8.27357 207.397 9.29036C215.581 10.3128 217.89 15.5525 218.639 19.26L203.625 29.8612Z" fill="#001D53"/>
</g>
<path fill-rule="evenodd" clip-rule="evenodd" d="M222.59 43.7869C221.608 37.7373 220.627 31.6904 219.645 25.6463C215.44 27.0001 211.238 28.3568 207.037 29.7135L209.533 48.8369L222.59 43.7869Z" fill="#001D53"/>
<path fill-rule="evenodd" clip-rule="evenodd" d="M225.17 43.3522C225.17 43.3522 233.651 43.5872 238.754 56.2023C241.362 62.6521 248.16 77.9605 246.14 96.6352C245.18 105.51 235.991 112.523 235.991 112.523L230.247 88.4873L230.867 80.7527L230.247 88.4876H184.289C184.289 88.4876 175.084 83.8513 166.657 78.232C167.678 71.9526 172.622 55.8002 176.888 51.1638C181.151 46.5243 188.695 42.8792 188.695 42.8792L225.17 43.3522Z" fill="#FFD9DA"/>
<path fill-rule="evenodd" clip-rule="evenodd" d="M225.169 43.3528C207.749 49.2866 188.695 42.8798 188.695 42.8798C192.347 41.8405 197.192 40.6197 200.354 39.8437C202.291 39.365 203.625 37.8186 203.625 36.0541V29.8599C202.953 29.571 200.347 28.3503 199.966 26.2487C199.901 25.872 199.698 24.7929 200.412 24.2973C200.938 23.9291 201.674 24.0707 201.901 24.1132C203.105 24.3341 203.664 25.3339 203.754 25.4953C205.052 24.5437 206.57 23.2635 208.053 21.5924C209.877 19.539 211.056 17.5564 211.819 15.9958C214.092 17.0835 216.366 18.1711 218.643 19.2586C219.402 22.309 220.005 25.9938 219.417 28.7043C219.205 29.6758 218.885 31.0976 217.577 32.2588C216.182 33.5079 214.157 34.012 213.366 34.2103L211.709 34.5813C211.709 34.5813 212.148 38.116 212.92 39.6143C213.695 41.1098 221.368 41.8575 225.169 43.3528Z" fill="#D38F64"/>
<path fill-rule="evenodd" clip-rule="evenodd" d="M210.106 24.056C210.187 24.6111 210.513 25.0359 210.833 24.9963C211.146 24.9595 211.337 24.478 211.25 23.9228C211.169 23.3677 210.846 22.9457 210.526 22.9825C210.21 23.0222 210.023 23.5008 210.106 24.056Z" fill="#001D53"/>
<path fill-rule="evenodd" clip-rule="evenodd" d="M217.285 23.1699C217.369 23.725 217.692 24.147 218.011 24.1102C218.325 24.0705 218.515 23.5919 218.428 23.0368C218.347 22.4816 218.024 22.0568 217.708 22.0964C217.388 22.1333 217.204 22.6147 217.285 23.1699Z" fill="#001D53"/>
<path fill-rule="evenodd" clip-rule="evenodd" d="M218.6 20.0722C218.777 20.0722 218.936 19.9731 218.987 19.8173C219.052 19.6304 218.926 19.4321 218.713 19.3783C218.358 19.2905 217.996 19.2395 217.641 19.231C217.269 19.231 216.878 19.2678 216.501 19.3528C216.284 19.4038 216.155 19.5964 216.213 19.7861C216.265 19.9759 216.491 20.0949 216.707 20.0382C217.011 19.9703 217.315 19.925 217.625 19.9391C217.909 19.9448 218.2 19.9872 218.487 20.058C218.526 20.0666 218.561 20.0722 218.6 20.0722Z" fill="#001D53"/>
<path fill-rule="evenodd" clip-rule="evenodd" d="M214.503 30.5524C214.645 30.5524 214.794 30.5467 214.949 30.5297C215.169 30.5071 215.327 30.3343 215.301 30.1388C215.275 29.9434 215.072 29.7848 214.852 29.8273C213.312 29.9689 212.685 29.0173 212.679 29.0059C212.569 28.836 212.327 28.7709 212.133 28.8587C211.936 28.9521 211.861 29.1646 211.965 29.3373C211.997 29.3911 212.717 30.5524 214.503 30.5524Z" fill="#001D53"/>
<path fill-rule="evenodd" clip-rule="evenodd" d="M207.397 21.4466C207.51 21.4466 207.62 21.4042 207.704 21.3248C208.004 21.0218 208.67 20.4667 209.69 20.2089C210.313 20.0532 210.985 20.0277 211.631 20.1438C211.847 20.1693 212.061 20.056 212.106 19.8634C212.148 19.6736 212.006 19.4867 211.786 19.447C211.018 19.3168 210.217 19.3394 209.471 19.5292C208.247 19.8379 207.456 20.495 207.09 20.8604C206.945 21.0076 206.964 21.2314 207.133 21.3617C207.207 21.4183 207.304 21.4466 207.397 21.4466Z" fill="#001D53"/>
<path fill-rule="evenodd" clip-rule="evenodd" d="M214.253 27.359C214.534 27.359 214.873 27.308 215.089 27.0899C215.209 26.971 215.496 26.6877 214.631 24.6428C214.553 24.4587 214.321 24.3709 214.108 24.4332C213.901 24.504 213.794 24.7051 213.872 24.8892C214.146 25.5406 214.418 26.345 214.434 26.6396C214.324 26.6594 214.124 26.6566 213.962 26.6254C213.756 26.5829 213.533 26.7047 213.481 26.8917C213.433 27.0843 213.568 27.2712 213.788 27.3165C213.849 27.3307 214.037 27.359 214.253 27.359Z" fill="#001D53"/>
<path fill-rule="evenodd" clip-rule="evenodd" d="M230.456 88.7886C230.666 88.7886 230.847 88.6442 230.86 88.4572L232.572 63.5954C232.585 63.4001 232.414 63.233 232.194 63.2215H232.168C231.958 63.2215 231.777 63.3631 231.764 63.5528L230.053 88.4119C230.04 88.6103 230.211 88.7774 230.431 88.7886H230.456Z" fill="#F7ADAD"/>
<path fill-rule="evenodd" clip-rule="evenodd" d="M204.053 88.4848L197.455 86.1906C191.997 92.6964 182.498 99.6999 171.498 97.3321C157.618 94.3412 165.634 84.514 166.658 78.232C167.016 76.0229 167.862 72.5874 168.996 68.8627L169.005 68.8205C171.095 68.1348 174.528 67.2712 178.846 67.3392C182.67 67.4013 185.731 68.169 187.711 68.8205C186.619 74.2469 185.525 79.6736 184.43 85.1031L197.455 74.1252L207.463 84.1572L204.053 88.4848Z" fill="#FFD9DA"/>
<path fill-rule="evenodd" clip-rule="evenodd" d="M170.682 80.7825L198.046 75.3634C198.264 75.3197 198.43 75.0669 198.38 74.8755C198.329 74.6866 198.055 74.5455 197.837 74.5892L170.5 80.0916C170.281 80.1353 170.147 80.3258 170.197 80.5172C170.224 80.6143 170.292 80.6925 170.383 80.7406C170.469 80.7857 170.574 80.802 170.682 80.7825Z" fill="#F7ADAD"/>
<path fill-rule="evenodd" clip-rule="evenodd" d="M186.942 76.7032L190.11 64.275C190.155 64.0825 190.02 63.8928 189.803 63.8502C189.587 63.8105 189.367 63.9297 189.319 64.1195L186.154 76.5504C186.105 76.7401 186.241 76.9299 186.461 76.9721C186.486 76.978 186.519 76.9808 186.548 76.9808C186.735 76.9808 186.9 76.8702 186.942 76.7032Z" fill="#F7ADAD"/>
<path d="M223.397 65.077L222.719 64.5197L226.176 61.286C227.011 60.5031 227.305 59.3888 226.948 58.3637L222.165 44.6943C221.462 42.6739 222.042 40.4778 223.687 38.9347L227.455 35.4101C228.944 34.0205 231.435 33.9501 233.023 35.2527L234.265 36.274L233.629 36.8685L232.387 35.8472C231.174 34.8518 229.271 34.9056 228.133 35.9674L224.365 39.492C222.947 40.8217 222.447 42.7141 223.054 44.4551L227.837 58.1246C228.291 59.4291 227.916 60.8471 226.854 61.8433L223.397 65.077Z" fill="white"/>
<path d="M225.055 66.0419L227.549 61.7887L226.193 60.6744L221.696 63.28L203.03 79.4478L207.678 83.2695L225.055 66.0419Z" fill="white"/>
<rect width="9.69669" height="35.2905" rx="4.84834" transform="matrix(0.730296 -0.683131 0.77243 0.6351 229.111 39.1376)" fill="white"/>
<path fill-rule="evenodd" clip-rule="evenodd" d="M260.471 52.3529C260.428 52.4187 260.337 52.5099 260.285 52.4922L260.349 52.3296C260.341 52.3237 260.333 52.317 260.325 52.3106L260.332 52.2989L260.339 52.2873L258.666 50.9117L258.702 50.9082L258.633 50.8843L258.421 50.7099C258.442 50.7024 258.471 50.7041 258.519 50.7331C258.465 50.6453 258.421 50.6251 258.381 50.6065C258.341 50.5879 258.304 50.5709 258.264 50.4894C258.258 50.4691 258.27 50.4701 258.288 50.4777L258.104 50.3796C258.123 50.3814 258.134 50.3703 258.144 50.3598C258.163 50.3415 258.179 50.3253 258.229 50.3832C258.117 50.2381 257.982 50.1643 257.874 50.1052C257.773 50.05 257.696 50.0077 257.682 49.932L257.711 49.9451C257.49 49.7947 257.473 49.8154 257.449 49.8444C257.439 49.8561 257.428 49.8691 257.402 49.8727L257.224 49.7258L257.217 49.5001L257.105 49.5384C257.068 49.5034 256.996 49.4341 257.04 49.4183C256.933 49.3787 256.94 49.3967 256.947 49.4176C256.954 49.4354 256.961 49.4553 256.9 49.4437C256.846 49.348 256.734 49.2595 256.63 49.178C256.496 49.0729 256.378 48.9794 256.42 48.8975C256.362 48.8959 256.388 48.9372 256.408 48.9684C256.431 49.0041 256.445 49.0266 256.316 48.9573C256.354 48.866 256.273 48.823 256.173 48.7701C256.092 48.7267 255.997 48.6767 255.945 48.5881C255.996 48.5807 256.048 48.6066 256.083 48.6238C256.13 48.6471 256.145 48.6545 256.078 48.5409C255.946 48.5516 255.858 48.4362 255.772 48.3222C255.717 48.2503 255.662 48.179 255.598 48.1402C255.538 48.1887 255.411 48.0848 255.257 47.9577C255.168 47.8841 255.069 47.8027 254.968 47.7388C254.781 47.5134 254.577 47.2989 254.358 47.0964L254.38 47.0881C254.28 47.1233 254.132 47.0142 253.984 46.9053C253.935 46.869 253.886 46.8328 253.838 46.8019C253.898 46.7576 253.95 46.7633 254.067 46.8174L253.905 46.6853C253.813 46.6712 253.727 46.6335 253.659 46.5769L253.766 46.5481C253.495 46.3902 253.246 46.2055 253.024 45.9976C253 46.0116 252.994 46.0491 252.989 46.0883C252.982 46.1352 252.975 46.1847 252.936 46.2L252.79 46.0799C252.813 46.0666 252.841 46.0638 252.867 46.0711L252.871 46.0733L252.871 46.0733C252.882 46.0781 252.89 46.0821 252.897 46.0856C252.888 46.079 252.877 46.0742 252.867 46.0711C252.828 46.053 252.771 46.0251 252.743 45.9834L252.916 46.0265C252.862 45.9579 252.833 45.9608 252.803 45.9638C252.778 45.9664 252.752 45.9691 252.708 45.929C252.734 45.9069 252.723 45.8831 252.713 45.8618C252.703 45.8416 252.695 45.8238 252.72 45.8123C252.732 45.8185 252.744 45.8326 252.758 45.8486C252.781 45.8756 252.81 45.9081 252.846 45.917C252.745 45.8295 252.669 45.7229 252.623 45.6055C252.606 45.6391 252.559 45.6657 252.469 45.6033C252.344 45.5037 252.358 45.4809 252.373 45.4556C252.384 45.4368 252.396 45.4167 252.353 45.3632C252.32 45.3587 252.284 45.3339 252.248 45.3092C252.192 45.2705 252.136 45.2317 252.09 45.2708C252.043 45.2312 252.044 45.1982 252.045 45.1679C252.045 45.1584 252.046 45.1491 252.045 45.14C251.994 45.1181 251.913 45.0591 251.832 44.9999L251.831 44.9998C251.683 44.8922 251.534 44.7838 251.566 44.8961L251.59 44.9242L251.568 44.9122C251.323 44.781 251.127 44.5882 250.933 44.3969C250.782 44.2488 250.632 44.1015 250.461 43.9845L250.486 43.9625C250.266 43.7944 250.031 43.6414 249.784 43.5048C249.721 43.4523 249.678 43.3402 249.733 43.336C249.564 43.2517 249.418 43.1351 249.307 42.9946C249.415 43.0454 249.405 43.0209 249.402 43.0133C249.401 43.0123 249.401 43.0115 249.401 43.0114C249.401 43.0111 249.404 43.0136 249.413 43.0217C249.426 43.0339 249.453 43.0588 249.507 43.1056C249.46 43.0584 249.424 43.0181 249.392 42.9824C249.292 42.8706 249.232 42.8037 249.008 42.7068C249.148 42.7138 248.924 42.5021 248.804 42.4355L248.91 42.5999C248.798 42.5194 248.693 42.432 248.596 42.3383L248.731 42.3082C248.571 42.0954 248.35 41.9735 248.143 41.8595C247.91 41.7314 247.695 41.6132 247.605 41.3868C247.521 41.366 247.566 41.4211 247.615 41.4802C247.666 41.542 247.72 41.6081 247.634 41.596C247.501 41.4355 247.385 41.2652 247.286 41.0872C247.169 40.9513 247.074 40.9269 246.976 40.9015C246.88 40.8767 246.78 40.851 246.652 40.7195C246.66 40.7767 246.619 40.8772 246.376 40.725C246.185 40.5492 246.248 40.4084 246.399 40.4915C246.449 40.529 246.464 40.5568 246.452 40.5642L246.458 40.5679C246.533 40.6112 246.624 40.6641 246.577 40.572L246.522 40.5773C246.495 40.5365 246.44 40.4797 246.387 40.425C246.297 40.3325 246.212 40.2459 246.283 40.2519C246.13 40.167 246.156 40.2198 246.228 40.3032C246.125 40.192 246.028 40.1151 245.928 40.0356C245.834 39.9602 245.736 39.8824 245.627 39.7706C245.654 39.8203 245.659 39.8839 245.617 39.849C245.415 39.6473 245.37 39.6459 245.317 39.6442C245.277 39.6429 245.233 39.6415 245.113 39.5528C245.067 39.4817 245.091 39.462 245.108 39.4478C245.13 39.429 245.141 39.4195 244.969 39.3146C244.836 39.1531 245.011 39.2149 245.099 39.2462C244.878 39.1032 244.693 38.9229 244.553 38.7158L244.704 38.7992C244.626 38.7544 244.554 38.7027 244.488 38.6449L244.504 38.7586C244.49 38.7431 244.475 38.7285 244.462 38.7149L244.462 38.7148C244.415 38.6661 244.381 38.6305 244.401 38.6139C244.353 38.602 244.338 38.6244 244.323 38.6486C244.302 38.6822 244.278 38.7192 244.159 38.6739C244.131 38.6304 244.073 38.5866 244.014 38.5433C243.926 38.4776 243.84 38.4131 243.865 38.353C244.013 38.4975 244.02 38.4682 244.03 38.4326C244.037 38.4052 244.045 38.3741 244.119 38.4156C244.14 38.4315 244.162 38.4464 244.186 38.4602C244.159 38.4403 244.137 38.4258 244.119 38.4156C244.074 38.3822 244.033 38.3446 243.998 38.3033C243.995 38.286 244.024 38.2972 244.049 38.31C243.927 38.1467 243.871 38.1456 243.801 38.1442C243.737 38.1429 243.661 38.1414 243.514 38.0186C243.597 38.011 243.523 37.8829 243.463 37.8496C243.588 37.9538 243.451 37.9662 243.303 37.9021C243.199 37.7803 243.131 37.7498 243.07 37.7226C243.033 37.7061 242.998 37.6907 242.96 37.6568L243.064 37.7698C243 37.7751 242.93 37.7254 242.833 37.6563L242.833 37.6563C242.802 37.6348 242.769 37.6114 242.733 37.5871C242.739 37.5752 242.754 37.5771 242.772 37.5845C242.78 37.5893 242.789 37.5937 242.797 37.5977C242.806 37.6029 242.815 37.6084 242.823 37.6134C242.847 37.6289 242.863 37.6388 242.847 37.615C242.83 37.6107 242.813 37.6048 242.797 37.5977C242.789 37.5927 242.78 37.588 242.772 37.5845C242.697 37.5414 242.644 37.4681 242.587 37.39C242.516 37.2926 242.439 37.1876 242.309 37.1241C242.272 37.0677 242.292 37.0472 242.311 37.0282C242.328 37.0104 242.345 36.9938 242.312 36.9499C242.161 36.8754 242.111 36.8068 242.059 36.7356C242.008 36.6665 241.956 36.595 241.808 36.5132C241.81 36.5259 241.812 36.5371 241.813 36.5469C241.818 36.5741 241.821 36.5906 241.814 36.597C241.803 36.6069 241.77 36.5933 241.685 36.5587C241.665 36.5504 241.642 36.5409 241.615 36.5303L242.074 36.8361L241.722 36.694C241.782 36.7447 241.855 36.7897 241.922 36.8307C241.993 36.8744 242.056 36.9136 242.09 36.9504C242.069 36.943 242.05 36.9364 242.035 36.9308C241.978 36.9106 241.956 36.9024 241.948 36.9095C241.943 36.9144 241.946 36.9262 241.949 36.946C241.951 36.9557 241.953 36.9675 241.955 36.9812C241.91 36.8636 241.803 36.8049 241.691 36.7436C241.591 36.6886 241.488 36.6315 241.421 36.528L241.57 36.3992C241.448 36.2406 241.29 36.1471 241.116 36.0448C240.955 35.9493 240.78 35.8461 240.61 35.6753L240.71 35.8015C240.646 35.8075 240.571 35.74 240.489 35.6668C240.433 35.6161 240.373 35.5625 240.312 35.5289C240.357 35.5025 240.333 35.4502 240.309 35.3953C240.3 35.377 240.292 35.3585 240.286 35.3405C240.275 35.3553 240.231 35.3239 240.174 35.2829C240.081 35.2169 239.954 35.126 239.873 35.1631L239.762 34.9612C239.63 34.8307 239.496 34.7773 239.354 34.7204C239.204 34.6609 239.046 34.5975 238.87 34.4382C238.919 34.4412 238.92 34.4104 238.922 34.3822C238.922 34.376 238.923 34.37 238.923 34.3644C238.93 34.3351 238.952 34.3224 239.121 34.4286C239.093 34.4056 239.066 34.3824 239.039 34.3602L239.039 34.3601C238.914 34.2541 238.813 34.1689 238.814 34.2178C238.8 34.2003 238.785 34.1842 238.768 34.1698L238.738 34.1461C238.731 34.1418 238.726 34.1508 238.721 34.1601L238.721 34.1601C238.718 34.165 238.715 34.1701 238.711 34.1732L238.596 34.3549C238.544 34.4629 238.466 34.5602 238.369 34.6409C238.359 34.6672 238.355 34.6922 238.351 34.7182C238.341 34.7772 238.331 34.8412 238.248 34.936C238.232 34.9413 238.226 34.9289 238.224 34.9212C238.224 34.9191 238.223 34.9172 238.223 34.9156C238.223 34.9156 238.223 34.918 238.224 34.9212C238.224 34.9348 238.215 34.958 238.205 34.9825C238.181 35.0403 238.154 35.1053 238.249 35.0687C238.032 35.1641 237.855 35.3816 237.684 35.5923C237.519 35.7952 237.359 35.9918 237.173 36.067C237.006 36.2871 236.798 36.5477 236.628 36.7347C236.626 36.7279 236.623 36.7234 236.621 36.7196C236.615 36.7104 236.612 36.7058 236.64 36.6838C236.501 36.7892 236.498 36.8558 236.495 36.9241C236.492 36.9976 236.489 37.073 236.316 37.2008C236.177 37.2512 236.245 37.1703 236.292 37.115C236.321 37.0797 236.342 37.0548 236.295 37.081C236.181 37.0324 236.1 37.1405 236.005 37.2684C235.923 37.3792 235.829 37.5049 235.693 37.5563L235.729 37.5027C235.622 37.5558 235.547 37.6659 235.462 37.7907C235.387 37.9014 235.304 38.0237 235.184 38.1282C235.184 38.1282 235.18 38.1048 235.159 38.1062C235.011 38.3941 234.811 38.6594 234.567 38.8922C234.571 38.8493 234.582 38.8208 234.589 38.8013C234.603 38.7651 234.605 38.7596 234.532 38.7498C234.491 38.7931 234.507 38.8111 234.527 38.8322C234.554 38.862 234.587 38.8981 234.469 39.0209C234.44 39.0301 234.403 39.0456 234.365 39.0621C234.266 39.1045 234.15 39.154 234.085 39.1224L234.288 38.9386C234.166 38.9486 234.093 39.0397 234.023 39.1257L234.023 39.1257C233.983 39.176 233.944 39.2245 233.897 39.254L233.873 39.2073C233.734 39.3362 233.676 39.425 233.621 39.5098C233.555 39.6119 233.492 39.7083 233.296 39.8621L233.361 39.8595C233.308 39.9874 233.251 40.0035 233.192 40.0205C233.136 40.0362 233.078 40.0527 233.017 40.1584L232.866 40.1125C232.684 40.3337 232.485 40.5438 232.27 40.7412C232.398 40.5373 232.547 40.344 232.714 40.1637C232.533 40.2836 232.377 40.4301 232.253 40.5967C232.265 40.5847 232.276 40.5711 232.287 40.5571L232.287 40.5571C232.322 40.5155 232.359 40.4703 232.408 40.4523C232.286 40.6813 232.097 40.8786 231.862 41.025C231.813 40.9087 231.543 41.0703 231.219 41.2775L231.096 41.3558L231.034 41.3957C231.03 41.398 231.026 41.4004 231.022 41.4027C231.004 41.4136 230.985 41.4245 231.013 41.4375C231.081 41.4976 231.147 41.5573 231.207 41.6149C231.309 41.7035 231.391 41.8091 231.447 41.9256L231.715 42.1138C231.774 42.1558 231.832 42.1998 231.888 42.2454C232 42.3367 232.108 42.4344 232.215 42.5356C232.255 42.5734 232.296 42.6117 232.336 42.6504C232.513 42.8188 232.697 42.9938 232.912 43.1629C232.893 43.0198 232.931 43.05 232.99 43.0954C233.048 43.1407 233.126 43.2011 233.184 43.1188C233.312 43.2079 233.356 43.2479 233.359 43.2661L233.34 43.2401L233.359 43.2681L233.359 43.2677L233.636 43.6507C233.661 43.7135 233.611 43.6854 233.559 43.656C233.519 43.6331 233.477 43.6094 233.467 43.627C233.611 43.7571 233.606 43.7875 233.601 43.8232C233.597 43.8501 233.592 43.88 233.651 43.9575C233.668 43.8785 233.818 43.9621 233.949 44.1049L233.805 43.8666C234.029 43.9815 234.078 44.0762 234.127 44.1712C234.176 44.2664 234.225 44.3619 234.45 44.4785L234.286 44.4252C234.351 44.4645 234.44 44.5321 234.541 44.6088L234.541 44.6088C234.778 44.7887 235.081 45.0184 235.296 45.0483C235.313 45.0921 235.317 45.1667 235.222 45.1076C235.413 45.2784 235.655 45.4365 235.89 45.5904C236.194 45.7897 236.488 45.9818 236.647 46.1852L236.576 46.1905C236.608 46.2106 236.642 46.2238 236.677 46.237C236.746 46.2633 236.816 46.2895 236.862 46.3706C236.857 46.373 236.85 46.3746 236.843 46.3761C236.822 46.3806 236.801 46.385 236.829 46.4106C236.973 46.4674 237.103 46.5487 237.211 46.6499L237.073 46.6087C237.317 46.8601 237.556 46.9796 237.796 47.0996C237.948 47.1755 238.1 47.2517 238.254 47.3617C238.147 47.4606 238.463 47.7811 238.62 47.9411L238.599 47.9502C239.07 48.3121 239.568 48.6453 240.091 48.9476C240.197 49.1534 240.506 49.4166 240.827 49.6903L240.827 49.6903C241.057 49.8865 241.293 50.088 241.466 50.2778C241.412 50.1995 241.561 50.2099 241.657 50.27C241.693 50.3145 241.761 50.353 241.822 50.388C241.916 50.4414 241.996 50.4867 241.926 50.5331L241.888 50.4984C241.879 50.628 242.047 50.7619 242.205 50.8886C242.242 50.9177 242.278 50.9465 242.311 50.9747L242.469 50.8796C242.618 51.1725 242.966 51.419 243.278 51.6399C243.565 51.8427 243.821 52.0239 243.865 52.1999C243.937 52.2317 244.009 52.2766 244.08 52.3215C244.152 52.3665 244.223 52.4114 244.296 52.4429L244.221 52.502C244.488 52.7575 244.773 52.9975 245.075 53.2208L244.946 53.2012C245.058 53.2968 245.181 53.3052 245.302 53.3135C245.416 53.3213 245.529 53.329 245.629 53.4078L245.587 53.5537C245.716 53.6585 245.835 53.7732 245.954 53.8879L245.954 53.888C246.191 54.1171 246.429 54.3463 246.743 54.4963L246.742 54.4967C246.721 54.5057 246.68 54.5228 246.615 54.4763C246.651 54.5067 246.698 54.5506 246.75 54.6C246.95 54.7873 247.232 55.0526 247.31 54.9482C247.29 55.0426 247.67 55.2451 247.909 55.3728L247.954 55.397L247.854 55.4336C248.061 55.4601 248.255 55.5379 248.413 55.6579C248.457 55.7084 248.419 55.7431 248.367 55.6902C248.361 55.6841 248.356 55.6777 248.35 55.6708C248.356 55.6783 248.361 55.6847 248.367 55.6902C248.434 55.766 248.483 55.7828 248.535 55.8007C248.595 55.8214 248.66 55.8436 248.762 55.9605L248.632 55.9292C248.72 56.0283 248.85 56.0919 248.992 56.1055C249.144 56.1828 249.352 56.431 249.32 56.5122C249.447 56.5116 249.567 56.5647 249.642 56.6549C249.634 56.6894 249.577 56.6678 249.549 56.6567C249.691 56.8129 249.832 56.8959 249.958 56.9701C250.088 57.046 250.201 57.1126 250.283 57.2388C250.268 57.2598 250.267 57.2866 250.281 57.3082C250.042 57.109 249.848 56.9435 249.834 56.9247L249.835 56.9235C249.833 56.9225 249.833 56.9229 249.834 56.9247C249.813 56.9466 249.826 56.985 249.839 57.0219C249.86 57.0857 249.881 57.1452 249.72 57.1081C250.013 57.2094 250.281 57.3587 250.51 57.5479C250.515 57.5617 250.517 57.5762 250.516 57.5907L250.488 57.5795C250.527 57.6206 250.575 57.6542 250.629 57.678C250.675 57.7346 250.726 57.7877 250.782 57.8369C250.762 57.8883 250.895 57.9907 251.006 58.0765C251.043 58.1047 251.077 58.1311 251.103 58.1533C251.127 58.1236 251.164 58.1282 251.193 58.1318C251.233 58.1368 251.258 58.1399 251.218 58.0518C251.218 58.0508 251.217 58.0493 251.216 58.0473L251.218 58.0518C251.218 58.0592 251.179 58.0321 251.114 57.983C251.098 57.9713 251.081 57.961 251.062 57.9523L251.075 57.9527L250.807 57.7399C250.941 57.7697 251.055 57.847 251.122 57.9533C251.22 57.9572 251.325 57.9645 251.38 57.9725C251.405 58.0765 251.475 58.1981 251.536 58.3045C251.597 58.4111 251.649 58.5025 251.639 58.546C251.738 58.6091 251.842 58.6829 251.948 58.7578C252.035 58.8199 252.124 58.8827 252.211 58.9408C252.305 59.0033 252.402 59.0612 252.503 59.1143C252.599 59.178 252.708 59.2247 252.825 59.2517C252.877 59.2817 252.918 59.3242 252.942 59.374C252.96 59.4068 252.976 59.4097 252.996 59.4132L252.996 59.4132C253.002 59.4143 253.008 59.4154 253.014 59.4173C252.992 59.4343 252.968 59.4488 252.941 59.4602L252.879 59.4184C252.849 59.3949 252.814 59.3762 252.776 59.3631C252.798 59.3714 252.82 59.3885 252.842 59.4063C252.9 59.4518 252.963 59.5016 253.046 59.4194L253.368 59.242C253.443 59.2032 253.513 59.1571 253.577 59.1047C253.621 59.0665 253.647 59.0311 253.643 58.9996C253.796 58.9476 253.772 58.9911 253.757 59.0201C253.741 59.0492 253.734 59.0637 253.917 58.9532L253.887 59.0108C254.332 58.8799 254.584 58.6425 254.847 58.3954C255.085 58.1712 255.332 57.9391 255.739 57.7712C255.747 57.7682 255.756 57.7647 255.766 57.7606C255.774 57.7576 255.782 57.7542 255.791 57.7506L255.797 57.7483C255.777 57.7558 255.758 57.7634 255.739 57.7712C255.712 57.781 255.694 57.7845 255.678 57.7799C256.238 57.463 256.696 57.024 257.151 56.5887C257.459 56.2928 257.766 55.9985 258.103 55.7454C258.269 55.6096 258.288 55.5337 258.312 55.4395C258.32 55.4042 258.33 55.3664 258.348 55.322L258.473 55.3329L258.572 55.0441C258.655 54.8844 258.794 54.782 258.938 54.6754C259.126 54.5369 259.324 54.3912 259.422 54.1029L259.32 54.1232C259.367 54.07 259.421 53.987 259.474 53.9066C259.563 53.7688 259.648 53.6387 259.683 53.6793C259.664 53.6324 259.683 53.5806 259.728 53.5512L259.78 53.5715C259.82 53.4785 259.856 53.3842 259.892 53.2901C259.911 53.2408 259.93 53.1917 259.95 53.1428C260.052 53.0145 260.097 53.0315 260.141 53.0482C260.194 53.0686 260.247 53.0887 260.402 52.8454C260.484 52.6687 260.542 52.3048 260.471 52.3529ZM258.161 50.4782C258.166 50.4862 258.169 50.4949 258.17 50.5038L258.084 50.4333L258.099 50.4415C258.119 50.4529 258.139 50.4643 258.161 50.4782ZM250.96 57.953L250.944 57.954C250.888 57.9163 250.846 57.8864 250.812 57.86C250.808 57.8811 250.818 57.913 250.898 57.9621C250.919 57.9638 250.941 57.9607 250.96 57.953Z" fill="#376EEE"/>
<path fill-rule="evenodd" clip-rule="evenodd" d="M197.117 74.6671C200.104 74.3695 203.455 73.8736 207.545 73.4909C209.306 73.3256 211.697 73.1176 212.004 73.8133C212.152 74.1476 211.767 74.5945 211.389 74.9447C211.89 74.9017 212.393 74.8606 212.896 74.8194C213.644 74.6461 215.045 74.5096 216.582 74.4566C216.984 74.026 217.741 73.2987 217.741 73.2987C217.741 73.2987 218.304 74.2569 218.116 74.6671C217.538 75.9324 215.111 76.2977 214.923 76.435C215.036 76.494 215.109 76.5667 215.155 76.6447C215.401 77.0868 214.833 77.889 213.763 78.6601C213.949 79.3935 213.809 79.8733 213.642 80.1838C213.384 80.6587 213.113 80.6232 212.832 81.1674C212.522 81.7694 212.713 82.0918 212.335 82.5021C212.086 82.7782 211.769 82.8929 211.592 82.9593C210.694 83.2833 204.8 84.7115 196.706 86.5675L197.117 74.6671Z" fill="#D38F64"/>
<path fill-rule="evenodd" clip-rule="evenodd" d="M212.951 76.8974C213.035 76.9637 213.151 76.9986 213.276 76.9867L214.975 76.7844C215.194 76.7562 215.353 76.5805 215.323 76.3853C215.287 76.1926 215.087 76.0571 214.866 76.0815L213.165 76.282C212.945 76.3101 212.789 76.4877 212.819 76.6829C212.833 76.7665 212.884 76.8444 212.951 76.8974Z" fill="#B56740"/>
<path fill-rule="evenodd" clip-rule="evenodd" d="M208.177 75.9983L211.212 75.3031C211.433 75.275 211.42 75.1392 211.389 74.9441C211.353 74.7514 211.256 74.6406 211.036 74.665L208.066 75.2934C207.846 75.3215 207.689 75.4994 207.719 75.6943C207.733 75.7779 207.784 75.8558 207.851 75.9088C207.935 75.9751 208.051 76.01 208.177 75.9983Z" fill="#B56740"/>
<path fill-rule="evenodd" clip-rule="evenodd" d="M212.094 79.1871C212.188 79.2611 212.318 79.2951 212.451 79.2709L213.849 79.0062C214.066 78.9641 214.206 78.7771 214.16 78.5847C214.112 78.3945 213.899 78.2719 213.679 78.3121L212.278 78.5771C212.063 78.6171 211.923 78.8077 211.969 79.0002C211.989 79.0736 212.034 79.1397 212.094 79.1871Z" fill="#B56740"/>
<path fill-rule="evenodd" clip-rule="evenodd" d="M211.068 81.6376C211.159 81.7097 211.29 81.7435 211.423 81.7193L212.877 81.4502C213.095 81.4121 213.236 81.2228 213.188 81.0328C213.152 80.8437 212.934 80.7176 212.71 80.7619L211.254 81.0294C211.037 81.0673 210.894 81.2564 210.945 81.4486C210.961 81.5222 211.008 81.5902 211.068 81.6376Z" fill="#B56740"/>
</g>
</svg>
