<svg xmlns="http://www.w3.org/2000/svg" xmlns:xlink="http://www.w3.org/1999/xlink" width="14" height="15" viewBox="0 0 14 15">
    <defs>
        <path id="a" d="M0 2h4.003v-.999a1 1 0 0 1 1-1h4.003a1 1 0 0 1 1 1V2H14v2.001h-1V13a2 2 0 0 1-2 2H3a2 2 0 0 1-2-2V4.001H0V2zm3 2v9h8V4H3zm2.003 1.004h.001a1 1 0 0 1 1 1v4a1 1 0 0 1-2.001 0v-4a1 1 0 0 1 1-1zm4.003 0a1 1 0 0 1 1 1v4a1 1 0 0 1-2.001 0v-4a1 1 0 0 1 1-1z"/>
    </defs>
    <g fill="none" fill-rule="evenodd">
        <mask id="b" fill="#fff">
            <use xlink:href="#a"/>
        </mask>
        <g fill="#2FB7EC" mask="url(#b)">
            <path d="M-1-1h16v16H-1z"/>
        </g>
    </g>
</svg>
