<svg xmlns="http://www.w3.org/2000/svg" width="100" height="80" fill="none" viewBox="0 0 100 80">
    <g style="mix-blend-mode:darken">
        <path fill="#D8D8D8" fill-opacity=".01" d="M0 0H100V80H0z"/>
        <mask id="prefix__a" width="100" height="80" x="0" y="0" maskUnits="userSpaceOnUse">
            <path fill="#fff" d="M0 0H100V80H0z"/>
        </mask>
        <g mask="url(#prefix__a)">
            <path fill="#E7EEFD" d="M19.727 46.16h70.166v38.82H19.727V46.16z"/>
            <path fill="#fff" d="M26.305 58.653c0-.966.782-1.749 1.748-1.749h14.045c.966 0 1.748.783 1.748 1.748V84.98H26.305V58.652z"/>
            <path fill="#8CACF6" fill-rule="evenodd" d="M39.902 72.253c.726 0 1.315-.589 1.315-1.315 0-.727-.589-1.316-1.315-1.316-.727 0-1.316.59-1.316 1.316 0 .726.589 1.315 1.316 1.315z" clip-rule="evenodd"/>
            <path fill="#fff" d="M47.793 57.791c0-.484.393-.877.877-.877H82c.484 0 .876.393.876.877v16.665H47.793V57.79z"/>
            <path fill="#E7EEFD" d="M67.09 62.177h12.279v10.525h-12.28V62.177z"/>
            <path fill="#376EEE" d="M70.598 62.177h5.262v3.508l-1.316-.702-1.086.702-1.545-.702-1.315.702v-3.508z"/>
            <path fill="#E7EEFD" d="M51.3 62.177h12.28v10.525H51.3V62.177z"/>
            <path fill="#376EEE" d="M54.813 62.177h5.262v3.508l-1.316-.702-1.087.702-1.544-.702-1.316.702v-3.508zM19.507 19.804h69.29l4.202 25.943H16.035l3.472-25.943z"/>
            <path fill="#2C65E9" fill-rule="evenodd" d="M71.894 45.747H93l-4.202-25.943h-4.403c-1.554 9.915-6.022 18.865-12.5 25.943z" clip-rule="evenodd"/>
            <path fill="#1A4379" d="M23.895 16.559h60.957v3.508H23.894v-3.508zM19.508 15.682c0-.485.393-.877.877-.877h67.974c.484 0 .877.392.877.877 0 .484-.393.877-.877.877H20.385c-.485 0-.877-.393-.877-.877z"/>
            <path fill="#8CACF6" d="M85.927 46.802c-.006 1.623-1.54 2.938-3.436 2.943h-.125c-1.894-.005-3.428-1.32-3.432-2.943-.006 1.623-1.54 2.938-3.436 2.943h-.125c-1.894-.005-3.428-1.32-3.432-2.943-.005 1.623-1.54 2.938-3.435 2.943h-.125c-1.895-.005-3.428-1.32-3.432-2.943-.006 1.623-1.54 2.938-3.436 2.943h-.125c-1.894-.005-3.428-1.32-3.432-2.943-.006 1.623-1.54 2.938-3.436 2.943h-.125c-1.894-.005-3.428-1.32-3.432-2.943-.005 1.623-1.54 2.938-3.435 2.943h-.125c-1.895-.005-3.428-1.32-3.432-2.943-.006 1.623-1.54 2.938-3.436 2.943h-.125c-1.894-.005-3.428-1.32-3.432-2.943-.006 1.623-1.54 2.938-3.436 2.943h-.125c-1.894-.005-3.428-1.32-3.432-2.943-.005 1.623-1.54 2.938-3.435 2.943h-.125c-1.895-.005-3.428-1.32-3.432-2.943-.006 1.623-1.54 2.938-3.436 2.943h-.125c-1.894-.005-3.428-1.32-3.432-2.943v-.642h76.964v.642c-.006 1.623-1.585 2.938-3.48 2.943h-.125c-1.895-.005-3.428-1.32-3.432-2.943z"/>
            <path fill="#8CACF6" fill-opacity=".8" d="M47.793 72.701h35.083v1.754H47.793v-1.754z"/>
            <path fill="#E7EEFD" d="M71.894 14.044c1.073 1.867 1.831 3.879 2.261 5.956H35c1.14-5.458 4.517-10.356 9.574-13.293.577-.328 1.154-.639 1.75-.91 9.363-4.268 20.418-.703 25.57 8.247z"/>
            <rect width="18" height="2" x="46" y="11" fill="#8CACF6" rx="1"/>
            <rect width="12" height="2" x="49" y="15" fill="#8CACF6" rx="1"/>
        </g>
    </g>
</svg>
