<svg xmlns="http://www.w3.org/2000/svg" xmlns:xlink="http://www.w3.org/1999/xlink" width="24" height="24" viewBox="0 0 24 24">
    <defs>
        <path id="a" d="M12 24C5.373 24 0 18.627 0 12S5.373 0 12 0s12 5.373 12 12-5.373 12-12 12z"/>
    </defs>
    <g fill="none" fill-rule="nonzero">
        <g>
            <use fill="#FFF" xlink:href="#a"/>
            <use fill="#CEF2FD" xlink:href="#a"/>
        </g>
        <path fill="#2FB7EC" d="M10.513 14.339l6.692-7.016c.41-.43 1.076-.43 1.487 0 .41.43.41 1.128 0 1.559l-7.436 7.795c-.41.43-1.076.43-1.487 0L5.308 12a1.14 1.14 0 0 1 0-1.559c.41-.43 1.076-.43 1.487 0l3.718 3.898z"/>
    </g>
</svg>
