<svg xmlns="http://www.w3.org/2000/svg" width="260" height="140" fill="none" viewBox="0 0 260 140">
    <path fill="#D8D8D8" fill-opacity=".01" fill-rule="evenodd" d="M0 0h260v140H0V0z" clip-rule="evenodd"/>
    <mask id="prefix__a" width="260" height="140" x="0" y="0" maskUnits="userSpaceOnUse">
        <path fill="#fff" fill-rule="evenodd" d="M0 0h260v140H0V0z" clip-rule="evenodd"/>
    </mask>
    <g mask="url(#prefix__a)">
        <path fill="url(#prefix__paint0_linear)" d="M118.484 134.627c0 2.967 2.406 5.373 5.374 5.373h104.077V34.807L213.01 20h-91.839c-1.484 0-2.687 1.203-2.687 2.687v111.94z"/>
        <rect width="5.275" height="5.275" x="73.856" y="47" fill="#2F88EC" fill-opacity=".12" rx="2.637"/>
        <path fill="#E7EEFD" d="M85.516 84.615h98.901V140H85.516V84.615z"/>
        <path fill="#FFCF71" d="M63 123.509h22.32V140H63v-16.491z"/>
        <path fill="#FFE380" d="M63 123.509h14.26V140H63v-16.491z"/>
        <path fill="#1A4379" d="M65.664 123.509h9.064v5.039l-1.798-.508-1.491.508-1.48-.508-1.48.508-1.481-.508-1.334.508v-5.039zM79.531 123.509h3.2v5.039l-1.71-.513-1.49.513v-5.039z"/>
        <path fill="#fff" d="M94.746 101.798c0-1.479 1.199-2.678 2.678-2.678h19.7c1.478 0 2.677 1.199 2.677 2.678v38.201H94.746v-38.201z"/>
        <path fill="#8CACF6" fill-rule="evenodd" d="M113.836 121.339c1.028 0 1.86-.833 1.86-1.86 0-1.027-.832-1.86-1.86-1.86-1.027 0-1.859.833-1.859 1.86 0 1.027.832 1.86 1.859 1.86z" clip-rule="evenodd"/>
        <path fill="#fff" d="M125 100.998c0-.742.601-1.344 1.343-1.344h46.912c.742 0 1.343.602 1.343 1.344v23.455H125v-23.455z"/>
        <path fill="#E7EEFD" d="M152.273 107.092h17.36v14.879h-17.36v-14.879z"/>
        <path fill="#8CACF6" d="M157.238 107.092h7.44v4.96l-1.86-.992-1.537.992-2.183-.992-1.86.992v-4.96z"/>
        <path fill="#E7EEFD" d="M129.953 107.092h17.359v14.879h-17.359v-14.879z"/>
        <path fill="#8CACF6" d="M134.918 107.092h7.44v4.96l-1.86-.992-1.537.992-2.183-.992-1.86.992v-4.96z"/>
        <path fill="#376EEE" d="M85.01 47.56h97.957l5.89 36.89H80.051l4.96-36.89z"/>
        <path fill="#1A4379" d="M212.211 50.574c-.002 6.782-3.102 13.212-8.462 17.55-5.36 4.337-12.424 6.133-19.28 4.9l-8.379 3.216c-1.112.427-2.285-.461-2.177-1.647l.531-5.792.262.09c-8.86-6.422-11.918-17.984-7.344-27.768 4.575-9.784 15.543-15.141 26.342-12.866 10.799 2.276 18.505 11.568 18.507 22.317z" opacity=".01"/>
        <path fill="#1A4379" d="M91.207 42.6h86.177v4.96H91.207V42.6z"/>
        <path fill="#1A4379" d="M85.012 41.363c0-.685.555-1.24 1.24-1.24h96.096c.685 0 1.24.555 1.24 1.24 0 .685-.555 1.24-1.24 1.24H86.252c-.685 0-1.24-.555-1.24-1.24z"/>
        <path fill="#001D53" fill-rule="evenodd" d="M165.496 47.562c.226-2.507.645-5.002 1.265-7.44h10.626v7.44h-11.891z" clip-rule="evenodd"/>
        <path fill="#8CACF6" d="M178.908 85.356c-.008 2.295-2.178 4.154-4.857 4.16h-.177c-2.678-.006-4.846-1.866-4.852-4.16-.008 2.295-2.178 4.154-4.857 4.16h-.176c-2.679-.006-4.847-1.866-4.852-4.16-.008 2.295-2.178 4.154-4.857 4.16h-.177c-2.678-.006-4.847-1.866-4.852-4.16-.008 2.295-2.178 4.154-4.857 4.16h-.177c-2.678-.006-4.846-1.866-4.852-4.16-.008 2.295-2.178 4.154-4.857 4.16h-.177c-2.678-.006-4.846-1.866-4.852-4.16-.008 2.295-2.177 4.154-4.856 4.16h-.177c-2.679-.006-4.847-1.866-4.852-4.16-.008 2.295-2.178 4.154-4.857 4.16h-.177c-2.678-.006-4.847-1.866-4.852-4.16-.008 2.295-2.178 4.154-4.857 4.16h-.177c-2.678-.006-4.846-1.866-4.852-4.16-.008 2.295-2.178 4.154-4.857 4.16h-.177c-2.678-.006-4.846-1.866-4.852-4.16-.008 2.295-2.177 4.154-4.856 4.16h-.177c-2.678-.006-4.847-1.866-4.852-4.16v-.907h108.806v.907c-.008 2.295-2.241 4.154-4.92 4.16h-.177c-2.678-.006-4.847-1.866-4.852-4.16zM125 121.972h49.598v2.48H125v-2.48z"/>
        <path fill="#fff" d="M205.81 46.109c-.001 4.72-2.144 9.195-5.849 12.214-3.704 3.019-8.586 4.269-13.325 3.411l-5.716 2.21c-.789.304-1.617-.342-1.514-1.181l.483-3.906c-6.124-4.47-8.238-12.517-5.076-19.326 3.161-6.81 10.742-10.538 18.206-8.954 7.464 1.584 12.79 8.051 12.791 15.532z"/>
        <path fill="#001D53" d="M178.111 41.088l-.031.154c-.094.675.304 1.385.944 1.644l3.827 1.563-.572 4.085c-.212 1.504.149 2.803 1.081 3.875.932 1.074 2.165 1.613 3.683 1.613l.32-.009c1.164-.06 2.242-.452 3.228-1.174l.093-.072-.158-.151c.928.936 2.094 1.406 3.483 1.406 1.508 0 2.873-.532 4.087-1.588 1.213-1.056 1.929-2.336 2.139-3.831l.639-4.59c.08-.574-.49-.998-1.205-.998h-1.394c-.707 0-1.354.559-1.452 1.254l-.593 4.265c-.057.404-.253.755-.595 1.058-.341.302-.717.45-1.137.45-.398 0-.709-.137-.951-.417-.243-.28-.335-.613-.278-1.022l.358-2.589c.016-.689-.494-1.202-1.169-1.202h-1.418c-.651 0-1.259.477-1.421 1.107l-.375 2.614c-.059.42-.254.771-.595 1.067-.34.297-.71.442-1.116.442-.398 0-.712-.14-.961-.427s-.344-.618-.289-1.012l.794-5.659c.1-.652-.283-1.337-.892-1.62l-6.381-2.622c-.56-.226-1.142.238-1.328.962l-.365 1.424z"/>
        <path fill="#fff" fill-rule="evenodd" d="M213.031 20.296l14.88 14.88h-14.88v-14.88z" clip-rule="evenodd"/>
        <path fill="#8CACF6" fill-rule="evenodd" d="M213.031 20.296l14.88 14.88h-14.88v-14.88z" clip-rule="evenodd"/>
        <path fill="#001D53" d="M190.094 94.693h30.999c1.027 0 1.86.833 1.86 1.86 0 1.028-.833 1.86-1.86 1.86h-30.999c-1.027 0-1.86-.832-1.86-1.86 0-1.027.833-1.86 1.86-1.86zM190.109 100.893h16.25c1.036 0 1.875.832 1.875 1.86 0 1.027-.839 1.859-1.875 1.859h-16.25c-1.035 0-1.875-.832-1.875-1.859 0-1.028.84-1.86 1.875-1.86z"/>
        <rect width="20" height="3.74" x="188" y="108" fill="#fff" rx="1.87"/>
        <path fill="#001D53" fill-rule="evenodd" d="M124.301 27.676c1.028 0 1.86-.833 1.86-1.86 0-1.027-.832-1.86-1.86-1.86-1.027 0-1.86.833-1.86 1.86 0 1.027.833 1.86 1.86 1.86z" clip-rule="evenodd"/>
        <path fill="#1651DA" fill-rule="evenodd" d="M130.501 27.676c1.027 0 1.859-.833 1.859-1.86 0-1.027-.832-1.86-1.859-1.86-1.028 0-1.86.833-1.86 1.86 0 1.027.832 1.86 1.86 1.86z" clip-rule="evenodd"/>
        <path fill="#C3D4FA" fill-rule="evenodd" d="M136.704 27.676c1.027 0 1.86-.833 1.86-1.86 0-1.027-.833-1.86-1.86-1.86-1.028 0-1.86.833-1.86 1.86 0 1.027.832 1.86 1.86 1.86z" clip-rule="evenodd"/>
    </g>
    <defs>
        <linearGradient id="prefix__paint0_linear" x1="173.21" x2="173.21" y1="140" y2="20" gradientUnits="userSpaceOnUse">
            <stop stop-color="#8CACF6"/>
            <stop offset="1" stop-color="#376EEE"/>
        </linearGradient>
    </defs>
</svg>
