<svg width="238" height="88" viewBox="0 0 238 88" fill="none" xmlns="http://www.w3.org/2000/svg">
<path d="M101.2 39.6001H57.1996L61.5996 22.0001H105.6L101.2 39.6001Z" fill="url(#paint0_linear)"/>
<path d="M30.7988 35.2002H113.799C116.56 35.2002 118.799 37.4388 118.799 40.2002V83.0002C118.799 85.7616 116.56 88.0002 113.799 88.0002H35.7988C33.0374 88.0002 30.7988 85.7616 30.7988 83.0002V35.2002Z" fill="#79D6FA"/>
<path d="M30.7988 35.2002H74.7988V88.0002H30.7988V35.2002Z" fill="#2FB7EC"/>
<path d="M30.8004 35.2002H74.8004L70.4004 17.6002H26.4004L30.8004 35.2002Z" fill="url(#paint1_linear)"/>
<path d="M30.7996 35.2002V52.8002H17.5996L30.7996 35.2002Z" fill="url(#paint2_linear)"/>
<rect x="57.1992" y="74.7998" width="17.6" height="6.6" fill="#006BA0"/>
<rect x="74.7988" y="74.7998" width="4.4" height="6.6" fill="#2FB7EC"/>
<path d="M92.4004 5C92.4004 2.23858 94.639 0 97.4004 0H175.4C178.162 0 180.4 2.23858 180.4 5V88H97.4004C94.639 88 92.4004 85.7614 92.4004 83V5Z" fill="#FFF0BB"/>
<path d="M92.4004 5C92.4004 2.23858 94.639 0 97.4004 0H154V88H97.4004C94.639 88 92.4004 85.7614 92.4004 83V5Z" fill="#FFDF85"/>
<path d="M110 0H136.4V22L132.034 19.8L127.6 22L123.2 19.8L118.8 22L114.4 19.8L110 22V0Z" fill="#FFC72C"/>
<path d="M167.199 19.7998H169.399V87.9998H167.199V19.7998Z" fill="#FFC72C"/>
<path d="M162.799 0H171.599V22L167.199 19.8L162.799 22V0Z" fill="#FFC72C"/>
<path d="M180.4 52.7998H215.6V87.9998H180.4V52.7998Z" fill="url(#paint3_linear)"/>
<rect x="196" y="80.0996" width="8.8" height="4.4" fill="white"/>
<path d="M187 52.7998H204.6V63.7998L200.2 61.5998L196.565 63.7998L191.4 61.5998L187 63.7998V52.7998Z" fill="#2FB7EC"/>
<path d="M209 52.7998H215.6V87.9998H209V52.7998Z" fill="#79D6FA"/>
<path d="M0 68.5C0 67.1193 1.11929 66 2.5 66H19.5C20.8807 66 22 67.1193 22 68.5V88H0V68.5Z" fill="#2FB7EC"/>
<rect x="6.59961" y="66" width="8.8" height="6.6" fill="#8BDCFB"/>
<path d="M215.6 66H237.6V88H215.6V66Z" fill="url(#paint4_linear)"/>
<rect x="222.199" y="66" width="8.8" height="6.6" fill="#2FB7EC"/>
<defs>
<linearGradient id="paint0_linear" x1="129.8" y1="33.0634" x2="122.924" y2="7.60945" gradientUnits="userSpaceOnUse">
<stop stop-color="#EEF2F5"/>
<stop offset="1" stop-color="#AFC7D1" stop-opacity="0.8"/>
</linearGradient>
<linearGradient id="paint1_linear" x1="6.93125" y1="28.4361" x2="14.1899" y2="2.46667" gradientUnits="userSpaceOnUse">
<stop stop-color="white"/>
<stop offset="1" stop-color="#EEF2F5"/>
</linearGradient>
<linearGradient id="paint2_linear" x1="24.1996" y1="26.4002" x2="7.30361" y2="39.0722" gradientUnits="userSpaceOnUse">
<stop stop-color="#CEF2FD"/>
<stop offset="1" stop-color="#8BDCFB"/>
</linearGradient>
<linearGradient id="paint3_linear" x1="233.2" y1="70.3998" x2="198" y2="35.1998" gradientUnits="userSpaceOnUse">
<stop stop-color="#CEF2FD"/>
<stop offset="1" stop-color="#8BDCFB"/>
</linearGradient>
<linearGradient id="paint4_linear" x1="248.6" y1="77" x2="226.6" y2="55" gradientUnits="userSpaceOnUse">
<stop stop-color="#CEF2FD"/>
<stop offset="1" stop-color="#8BDCFB"/>
</linearGradient>
</defs>
</svg>
