<svg xmlns="http://www.w3.org/2000/svg" width="300" height="200" fill="none" viewBox="0 0 300 200">
    <path fill="#D8D8D8" fill-opacity=".01" d="M0 0H300V200H0z"/>
    <mask id="prefix__a" width="260" height="140" x="20" y="30" maskUnits="userSpaceOnUse">
        <path fill="#fff" d="M20 30H280V170H20z"/>
    </mask>
    <g mask="url(#prefix__a)">
        <path fill="#CEF2FD" d="M259.732 96.773c12.856 22.166 17.782 47.981 14.059 73.227H48.169c-6.59-45.471 15.03-91.195 55.835-114.697 3.291-1.859 6.583-3.614 9.978-5.143 53.371-24.128 116.384-3.976 145.75 46.613z"/>
        <path fill="#E6F7FF" fill-rule="evenodd" d="M224.219 59.05c-31.814-21.085-73.331-25.575-110.237-8.89-3.395 1.529-6.687 3.284-9.978 5.143C63.199 78.805 41.579 124.529 48.169 170h184.834C240.048 155.495 244 139.209 244 122c0-23.412-7.314-45.115-19.781-62.95z" clip-rule="evenodd"/>
        <path fill="#fff" stroke="#2FB7EC" stroke-dasharray="2" d="M212 151v-22.315c0-.93.969-1.685 2.165-1.685h41.67c1.196 0 2.165.755 2.165 1.685V151h-46z"/>
        <path stroke="#2FB7EC" stroke-dasharray="2" d="M20.5 144.685c0-.319.148-.619.412-.842l-.324-.382c.338-.286.793-.461 1.294-.461v.5h1.007v-.5h2.013v.5h2.013v-.5h2.013v.5h2.013v-.5h2.013v.5h2.013v-.5h2.013v.5h2.014v-.5h2.013v.5h2.013v-.5h2.013v.5h2.013v-.5h2.013v.5h2.013v-.5h2.013v.5h2.013v-.5h2.013v.5h1.007c.384 0 .725.134.97.343l.324-.382c.362.307.588.742.588 1.224h-.5v.974h.5v1.947h-.5v1.947h.5v1.948h-.5v1.947h.5v1.947h-.5v1.948h.5v1.947h-.5v1.947h.5v1.947h-.5v1.948h.5v1.947h-.5v1.947h.5v.474h-1v.5h-2v-.5h-2v.5h-2v-.5h-2v.5h-2v-.5h-2v.5h-2v-.5h-2v.5h-2v-.5h-2v.5h-2v-.5h-2v.5h-2v-.5h-2v.5h-2v-.5h-2v.5h-2v-.5h-2v.5h-2v-.5h-.5v-.474H20v-1.947h.5v-1.947H20v-1.948h.5v-1.947H20v-1.947h.5v-1.947H20v-1.948h.5v-1.947H20v-1.947h.5v-1.948H20v-1.947h.5v-1.947H20v-.974h.5z"/>
        <path fill="#0098D3" d="M214.108 143.111v5.549H199.57v-14.228h11.433c.357-.001.712.063 1.048.187.429.153.82.398 1.145.718.128.126.243.265.343.414.374.517.573 1.14.569 1.778v5.582z"/>
        <path fill="#2FB7EC" d="M203.278 106.951c1.711 0 3.099 1.387 3.099 3.098v24.381H191.69v-14.409h5.338v-5.445h-5.344v-7.625h11.594z"/>
        <path fill="url(#prefix__paint0_radial)" d="M182.303 159.278h-4.373v-1.293h4.373v-2.846h-4.373V128.43h18.543c1.706 0 3.092 1.379 3.099 3.085v17.144h-8.754c-.823 0-1.612.327-2.194.91-.581.582-.907 1.372-.905 2.194V170h-9.789v-7.844h4.373v-2.878z"/>
        <path fill="#1A4379" d="M191.691 114.557H197.035V120.00200000000001H191.691z"/>
        <path fill="#006BA0" d="M191.69 114.557v5.445h-9.53v-5.445h9.53z"/>
        <path fill="#79D6FA" d="M191.689 106.951v7.606h-6.806v-7.606h6.806z"/>
        <path fill="#4EC2BE" d="M191.707 83.824v10.037h-8V83.824h8z"/>
        <path fill="#79D6FA" d="M151.352 123.1v-16.168h33.54v7.631h-2.743v5.445h9.53v8.408h-37.228c-1.053 0-2.032-.543-2.588-1.436-.332-.49-.505-1.07-.498-1.662l-.013-2.218z"/>
        <path fill="#4EC2BE" d="M177.93 159.277H182.297V162.136H177.93zM177.93 155.119H182.297V157.965H177.93z"/>
        <path fill="#C5E8EB" d="M174.434 159.277H177.928V162.136H174.434zM174.434 155.119H177.928V157.965H174.434zM174.433 88.74v-4.915h9.272v10.037h-.091c-1.711 0-3.099 13.09-3.099 13.09h-22.367V83.799h8.23v4.915l2.038-2.4 1.987 1.818 1.992-1.817 2.038 2.425z"/>
        <path fill="#fff" d="M186.481 92h15.715v15.09h-21.68V92l5.965.02V92z"/>
        <path fill="#FFCF73" d="M196.677 97.369l-2.678-2.185-2.31 2.185-2.613-2.231-2.596 2.23V92h10.197v5.369z"/>
        <path fill="#4EC2BE" d="M168.417 87.34l-2.038 2.4v-5.916h9.055v5.915l-2.038-2.399-2.49 1.817-2.489-1.817z"/>
        <path fill="#C5E8EB" d="M151.351 125.331c-.007.592.167 1.171.498 1.662v5.219l-2.847-2.251-2.588 2.057-2.516-2.057-2.828 2.277V123.1h10.281v2.231z"/>
        <path fill="#006BA0" d="M146.965 170h-17.637v-8.303h4.063v-3.512h-4.063v-14.874h14.532c.827-.002 1.621.327 2.204.914.584.586.908 1.382.901 2.209V170z"/>
        <path fill="#4EC2BE" d="M141.071 123.1v9.112l2.827-2.277 2.549 2.057 2.588-2.057 2.828 2.277v-5.219c.556.893 1.535 1.436 2.588 1.436h23.479v26.69h-3.494v2.845h3.494v1.294h-3.494v2.865h3.494v7.876h-30.965v-23.566c0-.822-.328-1.611-.91-2.192-.583-.582-1.373-.907-2.196-.905h-8.754v-17.152c.003-1.508 1.099-2.792 2.588-3.033.162-.034.327-.051.492-.051h2.886z"/>
        <path fill="#FCB237" d="M154.552 106.953h-3.202v16.168h-13.147c-.166 0-.33.017-.492.052V97.148h20.439v9.785l-3.598.02z"/>
        <path fill="#1A4379" d="M129.328 158.186H133.391V161.698H129.328z"/>
        <path fill="#006BA0" d="M125.27 158.186H129.333V161.698H125.27z"/>
        <path fill="#FCB237" d="M122.197 97.148v9.119h-10.759v-9.119h10.759z"/>
        <path fill="#FFCF73" d="M108.506 97.148h2.931v9.119h10.76v-9.119h15.528v26.005c-1.49.241-2.585 1.525-2.588 3.033v17.151H99.332v-43.123c.007-1.706 1.393-3.085 3.099-3.085l6.075.02z"/>
        <path fill="#4EC2BE" d="M99.33 143.336h-1.876c-.823-.001-1.613.324-2.196.905-.583.581-.91 1.37-.91 2.193V170H72.415v-21.341h-3.688v-11.117c-.012-.684.217-1.35.647-1.882.567-.774 1.473-1.227 2.433-1.216H99.33v8.892z"/>
        <path fill="#79D6FA" d="M94.352 146.434c0-.823.327-1.612.91-2.193.582-.581 1.372-.907 2.195-.905h31.891v14.875h-4.057v3.511h4.057v8.277H94.352v-23.565z"/>
        <path fill="#FFCF73" d="M66.56 163.015h-2.97v-14.357h8.825v21.341H63.59v-4.5h2.97v-2.484z"/>
        <path fill="#FCB237" d="M63.59 163.016H66.553V165.499H63.59z"/>
        <path fill="#FFCF73" d="M60.609 163.016H63.592V165.499H60.609z"/>
        <path fill="#FDEDBA" d="M63.592 148.658v14.357h-2.983v2.516h2.983v4.468H41v-21.341h22.592z"/>
        <path fill="#FFCF73" d="M48.566 148.658h7.713v6.545l-2.019-1.63-1.837 1.475-1.831-1.475-2.026 1.63v-6.545z"/>
        <path fill="url(#prefix__paint1_radial)" d="M265.507 161.741h-3.499v-1.034h3.499v-2.277h-3.499v-21.368h14.834c1.365 0 2.474 1.104 2.479 2.468v30.469h-17.313v-5.955h3.499v-2.303z"/>
        <path fill="#4EC2BE" d="M262.008 161.742H265.502V164.029H262.008zM262.008 158.416H265.502V160.692H262.008z"/>
        <path fill="#C5E8EB" d="M259.215 161.742H262.01V164.029H259.215zM259.215 158.416H262.01V160.692H259.215z"/>
        <path fill="#4EC2BE" d="M243.226 137.062h18.784v21.353h-2.795v2.276h2.795v1.035h-2.795v2.292h2.795v5.981h-34.26V139.53c.002-1.206.879-2.233 2.07-2.426.13-.027 12.564-.041 13.406-.042z"/>
        <path fill="#C5E8EB" d="M241.147 144.29l-2.278-1.801-2.07 1.646-2.014-1.646-2.262 1.822V137h8.624v7.29z"/>
        <path fill="#FFCF73" d="M208.844 163.015v-14.357h18.821l.087 21.341h-18.75l-.158-4.468h5.952v-2.483l-5.952-.033z"/>
        <path fill="#FCB237" d="M211.812 163.016H214.79500000000002V165.499H211.812zM208.844 163.016H211.807V165.499H208.844z"/>
        <path fill="#FFF6D8" d="M187.719 169.916v-18.154c-.002-.822.324-1.612.905-2.194.582-.583 1.371-.91 2.194-.91h1.216v7.606h10.171v-7.606h3.151v14.875h-4.076v3.512h4.076v2.89h-17.637v-.019z"/>
        <path fill="#FFF6D8" fill-rule="evenodd" d="M187.25 148.658H209v21.341h-21.75v-21.341z" clip-rule="evenodd"/>
        <path fill="#FFCF73" d="M201.712 148.658v5.386l-2.025-1.63-1.837 1.475-1.831-1.475-2.019 1.63v-5.386h7.712z"/>
        <path fill="#006BA0" d="M117.029 152.112l-2.847-2.251-2.588 2.057-2.517-2.057-2.827 2.277v-8.802h10.779v8.776z"/>
        <path fill="#2FB7EC" d="M169 42c0-6.627 5.373-12 12-12s12 5.373 12 12c0 2.612-.835 5.03-2.252 7L181 65l-9.748-16c-1.417-1.97-2.252-4.388-2.252-7z"/>
        <path fill="#fff" d="M181 45c1.657 0 3-1.343 3-3s-1.343-3-3-3-3 1.343-3 3 1.343 3 3 3z"/>
        <path fill="#6DDBF5" d="M244 80.229c0-4.545 3.684-8.229 8.229-8.229 4.544 0 8.228 3.684 8.228 8.229 0 1.79-.572 3.449-1.544 4.8L252.229 96l-6.685-10.971c-.972-1.351-1.544-3.01-1.544-4.8z"/>
        <path fill="#fff" d="M252.229 82.286c1.136 0 2.057-.92 2.057-2.057 0-1.136-.921-2.057-2.057-2.057s-2.057.92-2.057 2.057c0 1.136.921 2.057 2.057 2.057z"/>
        <path fill="#AFE9FF" d="M111 45.829c0-3.22 2.686-5.829 6-5.829s6 2.61 6 5.829c0 1.268-.417 2.443-1.126 3.4L117 57l-4.874-7.771c-.709-.957-1.126-2.132-1.126-3.4zM212 101.829c0-3.22 2.686-5.829 6-5.829s6 2.61 6 5.829c0 1.268-.417 2.443-1.126 3.4L218 113l-4.874-7.771c-.709-.957-1.126-2.132-1.126-3.4z"/>
        <path fill="#79D6FA" d="M77 72.229C77 67.684 80.684 64 85.229 64c4.544 0 8.228 3.684 8.228 8.229 0 1.79-.572 3.449-1.544 4.8L85.229 88l-6.685-10.971c-.972-1.351-1.544-3.01-1.544-4.8z"/>
        <path fill="#2FB7EC" d="M48 105c0-6.627 5.373-12 12-12s12 5.373 12 12c0 2.612-.835 5.03-2.252 7L60 128l-9.748-16c-1.417-1.97-2.252-4.388-2.252-7z"/>
        <path fill="#fff" d="M60 108c1.657 0 3-1.343 3-3s-1.343-3-3-3-3 1.343-3 3 1.343 3 3 3z"/>
    </g>
    <defs>
        <radialGradient id="prefix__paint0_radial" cx="0" cy="0" r="1" gradientTransform="matrix(22.5456 42.01215 -35.02517 18.79607 175.128 125.84)" gradientUnits="userSpaceOnUse">
            <stop stop-color="#4EC2BE"/>
            <stop offset="1" stop-color="#03928B"/>
            <stop offset="1" stop-color="#03928B"/>
        </radialGradient>
        <radialGradient id="prefix__paint1_radial" cx="0" cy="0" r="1" gradientTransform="rotate(61.549 16.527 285.607) scale(37.8593 31.7308)" gradientUnits="userSpaceOnUse">
            <stop stop-color="#4EC2BE"/>
            <stop offset="1" stop-color="#03928B"/>
            <stop offset="1" stop-color="#03928B"/>
        </radialGradient>
    </defs>
</svg>
