<svg xmlns="http://www.w3.org/2000/svg" width="64" height="64" fill="none" viewBox="0 0 64 64">
    <mask id="prefix__a" width="64" height="64" x="0" y="0" maskUnits="userSpaceOnUse">
        <path fill="#fff" d="M32 64c17.673 0 32-14.327 32-32C64 14.327 49.673 0 32 0 14.327 0 0 14.327 0 32c0 17.673 14.327 32 32 32z"/>
    </mask>
    <g mask="url(#prefix__a)">
        <path fill="#F0F5F7" d="M32 64c17.673 0 32-14.327 32-32C64 14.327 49.673 0 32 0 14.327 0 0 14.327 0 32c0 17.673 14.327 32 32 32z"/>
        <path fill="url(#prefix__paint0_linear)" d="M32.502 65.09c18.07 0 32.718-14.513 32.718-32.417 0-11.805-6.368-22.136-15.884-27.805-.336-.197-.673-.39-1.013-.579L17.219 61.343c4.715 2.469 9.96 3.754 15.281 3.746h.002z"/>
    </g>
    <mask id="prefix__b" width="42" height="42" x="11" y="11" maskUnits="userSpaceOnUse">
        <path fill="#fff" d="M11.2 20.3c4.495-3.003 12.996-6.389 20.8-9.1 5.991 2.36 13.572 4.8 20.8 9.1 0 6.5-1.77 13.57-2.602 16.9-1.733 6.932-7.8 12.132-18.2 15.6-10.4-3.468-16.468-8.668-18.2-15.6-.837-3.343-2.599-10.4-2.599-16.9z"/>
    </mask>
    <g mask="url(#prefix__b)">
        <path fill="#65BD37" d="M11.2 20.3c4.495-3.003 12.996-6.389 20.8-9.1 5.991 2.36 13.572 4.8 20.8 9.1 0 6.5-1.77 13.57-2.602 16.9-1.733 6.932-7.8 12.132-18.2 15.6-10.4-3.468-16.468-8.668-18.2-15.6-.837-3.343-2.599-10.4-2.599-16.9z"/>
        <path fill="#43A92D" d="M31.996 59.39c15.127 0 27.39-12.264 27.39-27.391 0-15.127-12.263-27.39-27.39-27.39s-27.39 12.263-27.39 27.39 12.263 27.39 27.39 27.39z"/>
        <path fill="#65BD37" d="M31.996 59.39c15.127 0 27.39-12.264 27.39-27.391 0-15.127-12.263-27.39-27.39-27.39s-27.39 12.263-27.39 27.39 12.263 27.39 27.39 27.39z"/>
        <path fill="url(#prefix__paint1_linear)" d="M32.205 57.733c14.096 0 25.523-11.242 25.523-25.109 0-9.142-4.966-17.142-12.39-21.534-.262-.153-.525-.302-.79-.448l-24.263 44.19c3.682 1.913 7.771 2.908 11.92 2.9z"/>
    </g>
    <path fill="#fff" fill-rule="evenodd" d="M42.664 25.276c-.145-.174-.325-.315-.529-.414-.203-.1-.425-.156-.652-.164-.226-.01-.452.03-.662.114-.21.084-.401.21-.56.373L29.146 36.55l-5.2-5.328c-.166-.17-.364-.305-.583-.396-.219-.092-.454-.139-.691-.138-.238.001-.472.05-.69.144-.219.093-.416.23-.58.401-.34.355-.531.828-.53 1.32 0 .493.19.966.532 1.32l7.742 8.047L42.575 27.94c.706-.736.744-1.883.09-2.664z" clip-rule="evenodd"/>
    <defs>
        <linearGradient id="prefix__paint0_linear" x1="49.089" x2="24.142" y1="8.383" y2="58.747" gradientUnits="userSpaceOnUse">
            <stop stop-color="#F0F5F7"/>
            <stop offset="1" stop-color="#DDE2E5" stop-opacity=".4"/>
        </linearGradient>
        <linearGradient id="prefix__paint1_linear" x1="45.233" x2="27.307" y1="13.813" y2="50.068" gradientUnits="userSpaceOnUse">
            <stop stop-color="#65BD37"/>
            <stop offset="1" stop-color="#47AB2E"/>
        </linearGradient>
    </defs>
</svg>
