<svg xmlns="http://www.w3.org/2000/svg" width="260" height="140" fill="none" viewBox="0 0 260 140">
    <path fill="#D8D8D8" fill-opacity=".01" d="M0 0H260V140H0z"/>
    <mask id="prefix__a" width="260" height="140" x="0" y="0" maskUnits="userSpaceOnUse">
        <path fill="#fff" d="M0 0H260V140H0z"/>
    </mask>
    <g mask="url(#prefix__a)">
        <path fill="#CEF2FD" d="M239.732 66.773c12.856 22.166 17.782 47.981 14.059 73.227H28.169C21.58 94.53 43.2 48.805 84.004 25.303c3.291-1.859 6.583-3.614 9.978-5.143 53.371-24.128 116.384-3.976 145.75 46.613z"/>
        <path fill="#E6F7FF" fill-rule="evenodd" d="M204.219 29.05C172.405 7.964 130.888 3.475 93.982 20.16c-3.395 1.529-6.686 3.284-9.978 5.143C43.2 48.805 21.58 94.529 28.17 140h184.834C220.048 125.495 224 109.209 224 92c0-23.412-7.314-45.115-19.781-62.95z" clip-rule="evenodd"/>
        <path fill="#fff" stroke="#2FB7EC" stroke-dasharray="2" d="M192 121V98.685c0-.93.969-1.685 2.165-1.685h41.67c1.196 0 2.165.754 2.165 1.685V121h-46z"/>
        <path stroke="#2FB7EC" stroke-dasharray="2" d="M.5 114.685c0-.319.148-.619.412-.842l-.324-.382c.338-.286.793-.461 1.294-.461v.5H2.89v-.5h2.013v.5h2.013v-.5h2.013v.5h2.013v-.5h2.013v.5h2.013v-.5h2.013v.5h2.014v-.5h2.012v.5h2.014v-.5h2.013v.5h2.013v-.5h2.013v.5h2.013v-.5h2.013v.5h2.013v-.5h2.013v.5h1.007c.384 0 .725.134.97.343l.324-.382c.362.307.588.742.588 1.224h-.5v.974h.5v1.947h-.5v1.947h.5v1.948h-.5v1.947h.5v1.947h-.5v1.948h.5v1.947h-.5v1.947h.5v1.947h-.5v1.948h.5v1.947h-.5v1.947h.5v.474h-1v.5h-2v-.5h-2v.5h-2v-.5h-2v.5h-2v-.5h-2v.5h-2v-.5h-2v.5h-2v-.5h-2v.5h-2v-.5h-2v.5h-2v-.5h-2v.5H9v-.5H7v.5H5v-.5H3v.5H1v-.5H.5v-.474H0v-1.947h.5v-1.947H0v-1.948h.5v-1.947H0v-1.947h.5v-1.947H0v-1.948h.5v-1.947H0v-1.947h.5v-1.948H0v-1.947h.5v-1.947H0v-.974h.5z"/>
        <path fill="#0098D3" d="M194.108 113.11v5.549H179.57v-14.228h11.433c.357-.001.712.063 1.048.187.429.153.82.398 1.145.718.128.126.243.265.343.414.374.517.573 1.14.569 1.778v5.582z"/>
        <path fill="#2FB7EC" d="M183.278 76.952c1.711 0 3.099 1.387 3.099 3.098v24.381H171.69V90.022h5.338v-5.445h-5.344v-7.625h11.594z"/>
        <path fill="url(#prefix__paint0_radial)" d="M162.303 129.278h-4.373v-1.293h4.373v-2.846h-4.373v-26.71h18.543c1.706 0 3.092 1.38 3.099 3.086v17.144h-8.754c-.823 0-1.612.327-2.194.91-.581.582-.907 1.372-.905 2.194V140h-9.789v-7.844h4.373v-2.878z"/>
        <path fill="#1A4379" d="M171.691 84.558H177.035V90.00300000000001H171.691z"/>
        <path fill="#006BA0" d="M171.69 84.558v5.445h-9.53v-5.445h9.53z"/>
        <path fill="#79D6FA" d="M171.689 76.952v7.606h-6.806v-7.606h6.806z"/>
        <path fill="#4EC2BE" d="M171.707 53.825v10.037h-8V53.825h8z"/>
        <path fill="#79D6FA" d="M131.352 93.1V76.934h33.54v7.63h-2.743v5.446h9.53v8.408h-37.228c-1.053 0-2.032-.543-2.588-1.436-.332-.49-.505-1.07-.498-1.662l-.013-2.218z"/>
        <path fill="#4EC2BE" d="M157.93 129.278H162.297V132.137H157.93zM157.93 125.12H162.297V127.96600000000001H157.93z"/>
        <path fill="#C5E8EB" d="M154.434 129.278H157.928V132.137H154.434zM154.434 125.12H157.928V127.96600000000001H154.434zM154.433 58.74v-4.915h9.272v10.037h-.091c-1.711 0-3.099 13.09-3.099 13.09h-22.367V53.798h8.23v4.915l2.038-2.4 1.987 1.818 1.992-1.817 2.038 2.425z"/>
        <path fill="#fff" d="M166.481 62h15.715v15.09h-21.68V62l5.965.02V62z"/>
        <path fill="#FFCF73" d="M176.677 67.369l-2.678-2.185-2.31 2.185-2.613-2.231-2.596 2.23V62h10.197v5.369z"/>
        <path fill="#4EC2BE" d="M148.417 57.34l-2.038 2.4v-5.915h9.055v5.915l-2.038-2.4-2.49 1.818-2.489-1.817z"/>
        <path fill="#C5E8EB" d="M131.351 95.332c-.007.592.167 1.171.498 1.662v5.219l-2.847-2.25-2.588 2.056-2.516-2.057-2.828 2.277v-9.138h10.281v2.23z"/>
        <path fill="#006BA0" d="M126.965 140h-17.637v-8.303h4.063v-3.512h-4.063v-14.874h14.532c.827-.002 1.621.327 2.204.914.584.586.908 1.382.901 2.209V140z"/>
        <path fill="#4EC2BE" d="M121.071 93.1v9.113l2.827-2.277 2.549 2.057 2.588-2.057 2.828 2.277v-5.22c.556.894 1.535 1.437 2.588 1.437h23.479v26.69h-3.494v2.845h3.494v1.294h-3.494v2.865h3.494V140h-30.965v-23.566c0-.822-.328-1.611-.91-2.192-.583-.582-1.373-.907-2.196-.905h-8.754V96.186c.003-1.509 1.099-2.793 2.588-3.034.162-.034.327-.051.492-.051h2.886z"/>
        <path fill="#FCB237" d="M134.552 76.952h-3.202V93.12h-13.147c-.166 0-.33.017-.492.052V67.147h20.439v9.785l-3.598.02z"/>
        <path fill="#1A4379" d="M109.328 128.186H113.391V131.698H109.328z"/>
        <path fill="#006BA0" d="M105.27 128.186H109.333V131.698H105.27z"/>
        <path fill="#FCB237" d="M102.197 67.147v9.12h-10.76v-9.12H102.198z"/>
        <path fill="#FFCF73" d="M88.506 67.147h2.931v9.12h10.76v-9.12h15.528v26.005c-1.49.24-2.585 1.525-2.588 3.033v17.151H79.332V70.213c.007-1.706 1.393-3.085 3.1-3.085l6.074.02z"/>
        <path fill="#4EC2BE" d="M79.33 113.336h-1.876c-.823-.001-1.613.324-2.196.905-.583.581-.91 1.37-.91 2.193V140H52.415v-21.341h-3.688v-11.117c-.012-.684.217-1.35.647-1.882.567-.774 1.473-1.227 2.433-1.216H79.33v8.892z"/>
        <path fill="#79D6FA" d="M74.352 116.435c0-.823.327-1.612.91-2.193.582-.581 1.372-.907 2.195-.905h31.891v14.875h-4.057v3.511h4.057V140H74.352v-23.565z"/>
        <path fill="#FFCF73" d="M46.56 133.016h-2.97v-14.357h8.825V140H43.59v-4.5h2.97v-2.484z"/>
        <path fill="#FCB237" d="M43.59 133.017H46.553000000000004V135.5H43.59z"/>
        <path fill="#FFCF73" d="M40.609 133.017H43.592V135.5H40.609z"/>
        <path fill="#FDEDBA" d="M43.592 118.659v14.357h-2.983v2.516h2.983V140H21v-21.341h22.592z"/>
        <path fill="#FFCF73" d="M28.566 118.659h7.713v6.545l-2.019-1.63-1.837 1.475-1.832-1.475-2.025 1.63v-6.545z"/>
        <path fill="url(#prefix__paint1_radial)" d="M245.507 131.742h-3.499v-1.034h3.499v-2.277h-3.499v-21.368h14.834c1.365 0 2.474 1.104 2.479 2.468V140h-17.313v-5.955h3.499v-2.303z"/>
        <path fill="#4EC2BE" d="M242.008 131.742H245.502V134.029H242.008zM242.008 128.415H245.502V130.691H242.008z"/>
        <path fill="#C5E8EB" d="M239.215 131.742H242.01V134.029H239.215zM239.215 128.415H242.01V130.691H239.215z"/>
        <path fill="#4EC2BE" d="M223.226 107.063h18.784v21.353h-2.795v2.276h2.795v1.035h-2.795v2.292h2.795V140h-34.26v-30.469c.002-1.206.879-2.233 2.07-2.426.13-.028 12.564-.041 13.406-.042z"/>
        <path fill="#C5E8EB" d="M221.147 114.29l-2.278-1.801-2.07 1.646-2.014-1.646-2.262 1.822V107h8.624v7.29z"/>
        <path fill="#FFCF73" d="M188.844 133.016v-14.357h18.821l.087 21.341h-18.75l-.158-4.468h5.952v-2.483l-5.952-.033z"/>
        <path fill="#FCB237" d="M191.812 133.017H194.79500000000002V135.5H191.812zM188.844 133.017H191.807V135.5H188.844z"/>
        <path fill="#FFF6D8" d="M167.719 139.917v-18.154c-.002-.822.324-1.612.905-2.194.582-.583 1.371-.91 2.194-.91h1.216v7.606h10.171v-7.606h3.151v14.875h-4.076v3.512h4.076v2.89h-17.637v-.019z"/>
        <path fill="#FFF6D8" fill-rule="evenodd" d="M167.25 118.659H189V140h-21.75v-21.341z" clip-rule="evenodd"/>
        <path fill="#FFCF73" d="M181.712 118.659v5.386l-2.025-1.63-1.837 1.475-1.831-1.475-2.019 1.63v-5.386h7.712z"/>
        <path fill="#006BA0" d="M97.029 122.113l-2.847-2.251-2.588 2.057-2.517-2.057-2.827 2.277v-8.802h10.779v8.776z"/>
        <path fill="#2FB7EC" d="M149 12c0-6.627 5.373-12 12-12s12 5.373 12 12c0 2.612-.835 5.03-2.252 7L161 35l-9.748-16c-1.417-1.97-2.252-4.388-2.252-7z"/>
        <path fill="#fff" d="M161 15c1.657 0 3-1.343 3-3s-1.343-3-3-3-3 1.343-3 3 1.343 3 3 3z"/>
        <path fill="#6DDBF5" d="M224 50.229c0-4.545 3.684-8.229 8.229-8.229 4.544 0 8.228 3.684 8.228 8.229 0 1.79-.572 3.449-1.544 4.8L232.229 66l-6.685-10.971c-.972-1.351-1.544-3.01-1.544-4.8z"/>
        <path fill="#fff" d="M232.229 52.286c1.136 0 2.057-.92 2.057-2.057 0-1.136-.921-2.057-2.057-2.057s-2.057.92-2.057 2.057c0 1.136.921 2.057 2.057 2.057z"/>
        <path fill="#AFE9FF" d="M91 15.829C91 12.609 93.686 10 97 10s6 2.61 6 5.829c0 1.268-.417 2.443-1.126 3.4L97 27l-4.874-7.771c-.709-.957-1.126-2.132-1.126-3.4zM192 71.829c0-3.22 2.686-5.829 6-5.829s6 2.61 6 5.829c0 1.268-.417 2.443-1.126 3.4L198 83l-4.874-7.771c-.709-.957-1.126-2.132-1.126-3.4z"/>
        <path fill="#79D6FA" d="M57 42.229C57 37.684 60.684 34 65.229 34c4.544 0 8.228 3.684 8.228 8.229 0 1.79-.572 3.449-1.544 4.8L65.229 58l-6.685-10.971c-.972-1.351-1.544-3.01-1.544-4.8z"/>
        <path fill="#2FB7EC" d="M28 75c0-6.627 5.373-12 12-12s12 5.373 12 12c0 2.612-.835 5.03-2.252 7L40 98l-9.748-16C28.835 80.03 28 77.612 28 75z"/>
        <path fill="#fff" d="M40 78c1.657 0 3-1.343 3-3s-1.343-3-3-3-3 1.343-3 3 1.343 3 3 3z"/>
    </g>
    <defs>
        <radialGradient id="prefix__paint0_radial" cx="0" cy="0" r="1" gradientTransform="matrix(22.5456 42.01215 -35.02517 18.79607 155.128 95.84)" gradientUnits="userSpaceOnUse">
            <stop stop-color="#4EC2BE"/>
            <stop offset="1" stop-color="#03928B"/>
            <stop offset="1" stop-color="#03928B"/>
        </radialGradient>
        <radialGradient id="prefix__paint1_radial" cx="0" cy="0" r="1" gradientTransform="rotate(61.549 31.714 253.816) scale(37.8593 31.7308)" gradientUnits="userSpaceOnUse">
            <stop stop-color="#4EC2BE"/>
            <stop offset="1" stop-color="#03928B"/>
            <stop offset="1" stop-color="#03928B"/>
        </radialGradient>
    </defs>
</svg> 
