<svg xmlns="http://www.w3.org/2000/svg" xmlns:xlink="http://www.w3.org/1999/xlink" width="200" height="120" viewBox="0 0 200 120">
    <defs>
        <path id="a" d="M0 0h200v120H0z"/>
    </defs>
    <g fill="none" fill-rule="evenodd" style="mix-blend-mode:darken">
        <mask id="b" fill="#fff">
            <use xlink:href="#a"/>
        </mask>
        <use fill="#C53C3C" fill-opacity="0" fill-rule="nonzero" xlink:href="#a"/>
        <g fill="#EEF2F5" fill-opacity=".8" mask="url(#b)" style="mix-blend-mode:darken">
            <g transform="rotate(-30 51.053 -26.32)">
                <path d="M24 24c-6.627 0-12-5.373-12-12S17.373 0 24 0h96c6.627 0 12 5.373 12 12s-5.373 12-12 12h28c6.627 0 12 5.373 12 12s-5.373 12-12 12H52c-6.627 0-12-5.373-12-12s5.373-12 12-12H24z"/>
                <rect width="24" height="8" x="12" y="40" rx="4"/>
                <rect width="8" height="8" y="40" rx="4"/>
            </g>
        </g>
    </g>
</svg>
