<svg width="34" height="40" viewBox="0 0 34 40" fill="none" xmlns="http://www.w3.org/2000/svg">
<path d="M0 4C0 1.79086 1.79086 0 4 0H29.6842C31.8933 0 33.6842 1.79086 33.6842 4V36C33.6842 38.2091 31.8933 40 29.6842 40H4C1.79086 40 0 38.2091 0 36V4Z" fill="#D0DBFF"/>
<path d="M5.61401 20C5.61401 18.0621 7.18494 16.4912 9.12279 16.4912C11.0606 16.4912 12.6316 18.0621 12.6316 20C12.6316 21.9378 11.0606 23.5088 9.12279 23.5088C7.18494 23.5088 5.61401 21.9378 5.61401 20Z" fill="white"/>
<path d="M14.3232 20.7963C14.6555 21.1286 14.6555 21.6673 14.3232 21.9996C13.9909 22.3319 13.4522 22.3319 13.1199 21.9996L8.65396 17.5337C8.32167 17.2014 8.32167 16.6626 8.65396 16.3304C8.98625 15.9981 9.52499 15.9981 9.85728 16.3304L14.3232 20.7963Z" fill="#F8868F" stroke="#F8868F"/>
<path d="M8.65401 20.7963C8.32173 21.1286 8.32173 21.6673 8.65401 21.9996C8.9863 22.3319 9.52505 22.3319 9.85734 21.9996L14.3233 17.5337C14.6556 17.2014 14.6556 16.6626 14.3233 16.3304C13.991 15.9981 13.4522 15.9981 13.12 16.3304L8.65401 20.7963Z" fill="#F8868F" stroke="#F8868F"/>
<path d="M5.61407 8.82713C5.61407 6.88929 7.18501 5.31836 9.12285 5.31836C11.0607 5.31836 12.6316 6.88929 12.6316 8.82713C12.6316 10.765 11.0607 12.3359 9.12285 12.3359C7.18501 12.3359 5.61407 10.765 5.61407 8.82713Z" fill="white"/>
<path d="M14.3233 9.62344C14.6556 9.95572 14.6556 10.4945 14.3233 10.8268C13.991 11.159 13.4522 11.159 13.12 10.8268L8.65402 6.36082C8.32173 6.02853 8.32173 5.48979 8.65402 5.1575C8.98631 4.82521 9.52506 4.82521 9.85734 5.1575L14.3233 9.62344Z" fill="#F8868F" stroke="#F8868F"/>
<path d="M8.65401 9.62344C8.32173 9.95572 8.32173 10.4945 8.65401 10.8268C8.9863 11.159 9.52505 11.159 9.85734 10.8268L14.3233 6.36082C14.6556 6.02853 14.6556 5.48979 14.3233 5.1575C13.991 4.82521 13.4522 4.82521 13.12 5.1575L8.65401 9.62344Z" fill="#F8868F" stroke="#F8868F"/>
<path d="M5.61401 31.2285C5.61401 29.2907 7.18494 27.7197 9.12279 27.7197C11.0606 27.7197 12.6316 29.2907 12.6316 31.2285C12.6316 33.1663 11.0606 34.7373 9.12279 34.7373C7.18494 34.7373 5.61401 33.1663 5.61401 31.2285Z" fill="white"/>
<path d="M14.3232 32.0248C14.6555 32.3571 14.6555 32.8958 14.3232 33.2281C13.9909 33.5604 13.4522 33.5604 13.1199 33.2281L8.65396 28.7622C8.32167 28.4299 8.32167 27.8912 8.65396 27.5589C8.98625 27.2266 9.52499 27.2266 9.85728 27.5589L14.3232 32.0248Z" fill="#F8868F" stroke="#F8868F"/>
<path d="M8.65401 32.0248C8.32173 32.3571 8.32173 32.8958 8.65401 33.2281C8.9863 33.5604 9.52505 33.5604 9.85734 33.2281L14.3233 28.7622C14.6556 28.4299 14.6556 27.8912 14.3233 27.5589C13.991 27.2266 13.4522 27.2266 13.12 27.5589L8.65401 32.0248Z" fill="#F8868F" stroke="#F8868F"/>
<g style="mix-blend-mode:darken">
<path d="M24.2105 18.5963C24.2105 18.2087 24.5247 17.8945 24.9123 17.8945H25.614C26.0016 17.8945 26.3158 18.2087 26.3158 18.5963C26.3158 18.9839 26.0016 19.298 25.614 19.298H24.9123C24.5247 19.298 24.2105 18.9839 24.2105 18.5963Z" fill="#7996F9"/>
</g>
<g style="mix-blend-mode:darken">
<path d="M24.2105 7.36826C24.2105 6.98069 24.5247 6.6665 24.9123 6.6665H25.614C26.0016 6.6665 26.3158 6.98069 26.3158 7.36826C26.3158 7.75583 26.0016 8.07001 25.614 8.07001H24.9123C24.5247 8.07001 24.2105 7.75583 24.2105 7.36826Z" fill="#7996F9"/>
</g>
<g style="mix-blend-mode:darken">
<path d="M16.1403 18.5963C16.1403 18.2087 16.4545 17.8945 16.8421 17.8945H22.807C23.1946 17.8945 23.5087 18.2087 23.5087 18.5963C23.5087 18.9839 23.1946 19.298 22.807 19.298H16.8421C16.4545 19.298 16.1403 18.9839 16.1403 18.5963Z" fill="#7996F9"/>
</g>
<g style="mix-blend-mode:darken">
<path d="M16.1403 7.36826C16.1403 6.98069 16.4545 6.6665 16.8421 6.6665H22.807C23.1946 6.6665 23.5087 6.98069 23.5087 7.36826C23.5087 7.75583 23.1946 8.07001 22.807 8.07001H16.8421C16.4545 8.07001 16.1403 7.75583 16.1403 7.36826Z" fill="#7996F9"/>
</g>
<g style="mix-blend-mode:darken">
<path d="M16.1403 21.4034C16.1403 21.0158 16.4545 20.7017 16.8421 20.7017H21.7544C22.1419 20.7017 22.4561 21.0158 22.4561 21.4034C22.4561 21.791 22.1419 22.1052 21.7544 22.1052H16.8421C16.4545 22.1052 16.1403 21.791 16.1403 21.4034Z" fill="#7996F9"/>
</g>
<g style="mix-blend-mode:darken">
<path d="M16.1403 10.1754C16.1403 9.78782 16.4545 9.47363 16.8421 9.47363H21.7544C22.1419 9.47363 22.4561 9.78782 22.4561 10.1754C22.4561 10.563 22.1419 10.8771 21.7544 10.8771H16.8421C16.4545 10.8771 16.1403 10.563 16.1403 10.1754Z" fill="#7996F9"/>
</g>
<g style="mix-blend-mode:darken">
<path d="M16.1403 32.6314C16.1403 32.2439 16.4545 31.9297 16.8421 31.9297H21.7544C22.1419 31.9297 22.4561 32.2439 22.4561 32.6314C22.4561 33.019 22.1419 33.3332 21.7544 33.3332H16.8421C16.4545 33.3332 16.1403 33.019 16.1403 32.6314Z" fill="#7996F9"/>
</g>
<g style="mix-blend-mode:darken">
<path d="M16.1403 29.8243C16.1403 29.4367 16.4545 29.1226 16.8421 29.1226H24.2105C24.5981 29.1226 24.9122 29.4367 24.9122 29.8243C24.9122 30.2119 24.5981 30.5261 24.2105 30.5261H16.8421C16.4545 30.5261 16.1403 30.2119 16.1403 29.8243Z" fill="#7996F9"/>
</g>
<g style="mix-blend-mode:darken">
<path d="M25.6141 29.8243C25.6141 29.4367 25.9283 29.1226 26.3158 29.1226H27.3685C27.756 29.1226 28.0702 29.4367 28.0702 29.8243C28.0702 30.2119 27.756 30.5261 27.3685 30.5261H26.3158C25.9283 30.5261 25.6141 30.2119 25.6141 29.8243Z" fill="#7996F9"/>
</g>
</svg>
