<svg xmlns="http://www.w3.org/2000/svg" xmlns:xlink="http://www.w3.org/1999/xlink" width="40" height="40" viewBox="0 0 40 40">
    <defs>
        <circle id="a" cx="20" cy="20" r="20"/>
        <linearGradient id="c" x1="4.547%" x2="36.948%" y1="55.356%" y2="42.741%">
            <stop offset="0%" stop-color="#A52714" stop-opacity=".6"/>
            <stop offset="66%" stop-color="#A52714" stop-opacity="0"/>
        </linearGradient>
        <circle id="d" cx="20" cy="20" r="20"/>
        <circle id="f" cx="20" cy="20" r="20"/>
        <linearGradient id="h" x1="70.025%" x2="41.909%" y1="87.773%" y2="66.355%">
            <stop offset="0%" stop-color="#055524" stop-opacity=".4"/>
            <stop offset="33%" stop-color="#055524" stop-opacity="0"/>
        </linearGradient>
        <circle id="i" cx="20" cy="20" r="20"/>
        <circle id="k" cx="20" cy="20" r="20"/>
        <path id="m" d="M0 36.364h19.039l8.836-8.837V20.91H12.127L0 .11z"/>
        <linearGradient id="o" x1="40.978%" x2="49.247%" y1="-4.841%" y2="45.414%">
            <stop offset="0%" stop-color="#EA6100" stop-opacity=".3"/>
            <stop offset="66%" stop-color="#EA6100" stop-opacity="0"/>
        </linearGradient>
        <circle id="p" cx="20" cy="20" r="20"/>
        <circle id="r" cx="20" cy="20" r="20"/>
        <path id="t" d="M1.136 0l7.875 13.636L.175 29.091h20.961V0z"/>
        <circle id="v" cx="20" cy="20" r="20"/>
        <radialGradient id="w" cx="-4.878%" cy="-.248%" r="401.327%" fx="-4.878%" fy="-.248%" gradientTransform="matrix(.26722 0 0 1 -.036 0)">
            <stop offset="0%" stop-color="#3E2723" stop-opacity=".2"/>
            <stop offset="100%" stop-color="#3E2723" stop-opacity="0"/>
        </radialGradient>
        <circle id="y" cx="20" cy="20" r="20"/>
        <path id="A" d="M.22 0v9.168l8.953 15.377 7.872-13.636h20V0z"/>
        <circle id="C" cx="20" cy="20" r="20"/>
        <radialGradient id="D" cx="-.166%" cy=".104%" r="136.321%" fx="-.166%" fy=".104%" gradientTransform="matrix(1 0 0 .84752 0 0)">
            <stop offset="0%" stop-color="#3E2723" stop-opacity=".2"/>
            <stop offset="100%" stop-color="#3E2723" stop-opacity="0"/>
        </radialGradient>
        <circle id="F" cx="20" cy="20" r="20"/>
        <radialGradient id="G" cx="10.34%" cy="-12.215%" r="226.352%" fx="10.34%" fy="-12.215%" gradientTransform="matrix(1 0 0 .49642 0 -.062)">
            <stop offset="0%" stop-color="#263238" stop-opacity=".2"/>
            <stop offset="100%" stop-color="#263238" stop-opacity="0"/>
        </radialGradient>
        <circle id="I" cx="20" cy="20" r="20"/>
        <circle id="K" cx="20" cy="20" r="20"/>
        <circle id="M" cx="20" cy="20" r="20"/>
        <radialGradient id="O" cx="14.935%" cy="13.644%" r="100.424%" fx="14.935%" fy="13.644%">
            <stop offset="0%" stop-color="#FFF" stop-opacity=".1"/>
            <stop offset="100%" stop-color="#FFF" stop-opacity="0"/>
        </radialGradient>
    </defs>
    <g fill="none" fill-rule="evenodd">
        <mask id="b" fill="#fff">
            <use xlink:href="#a"/>
        </mask>
        <g fill-rule="nonzero" mask="url(#b)">
            <path fill="#DB4437" d="M3.175 0v24.545h8.952L20 10.91h20V0z"/>
            <path fill="url(#c)" d="M.22 0v24.545h8.953l7.872-13.636h20V0z" transform="translate(2.955)"/>
        </g>
        <mask id="e" fill="#fff">
            <use xlink:href="#d"/>
        </mask>
        <path fill="#3E2723" fill-opacity=".15" fill-rule="nonzero" d="M12.343 24.466L3.291 8.94l-.132.227 8.986 15.41z" mask="url(#e)"/>
        <mask id="g" fill="#fff">
            <use xlink:href="#f"/>
        </mask>
        <g fill-rule="nonzero" mask="url(#g)">
            <path fill="#0F9D58" d="M0 40h19.039l8.836-8.836v-6.619H12.127L0 3.745z"/>
            <path fill="url(#h)" d="M0 36.364h19.039l8.836-8.837V20.91H12.127L0 .11z" transform="translate(0 3.636)"/>
        </g>
        <mask id="j" fill="#fff">
            <use xlink:href="#i"/>
        </mask>
        <path fill="#263238" fill-opacity=".15" fill-rule="nonzero" d="M27.69 24.848l-.188-.11L18.777 40h.262l8.659-15.145z" mask="url(#j)"/>
        <mask id="l" fill="#fff">
            <use xlink:href="#k"/>
        </mask>
        <g mask="url(#l)">
            <g transform="translate(0 3.636)">
                <mask id="n" fill="#fff">
                    <use xlink:href="#m"/>
                </mask>
                <g fill-rule="nonzero" mask="url(#n)">
                    <path fill="#FFCD40" d="M20 7.273l7.875 13.636-8.836 15.455H40V7.273z"/>
                    <path fill="url(#o)" d="M1.136 0l7.875 13.636L.175 29.091h20.961V0z" transform="translate(18.864 7.273)"/>
                </g>
            </g>
        </g>
        <g>
            <mask id="q" fill="#fff">
                <use xlink:href="#p"/>
            </mask>
            <g fill-rule="nonzero" mask="url(#q)">
                <path fill="#FFCD40" d="M20 10.91l7.875 13.635L19.039 40H40V10.91z"/>
                <path fill="url(#o)" d="M1.136 0l7.875 13.636L.175 29.091h20.961V0z" transform="translate(18.864 10.91)"/>
            </g>
        </g>
        <g>
            <mask id="s" fill="#fff">
                <use xlink:href="#r"/>
            </mask>
            <g mask="url(#s)">
                <g transform="translate(18.864 10.91)">
                    <mask id="u" fill="#fff">
                        <use xlink:href="#t"/>
                    </mask>
                    <g fill-rule="nonzero" mask="url(#u)">
                        <path fill="#DB4437" d="M-15.689-10.91v24.546h8.953L1.136 0h20v-10.91z"/>
                        <path fill="url(#c)" d="M.22 0v24.545h8.953l7.872-13.636h20V0z" transform="translate(-15.91 -10.91)"/>
                    </g>
                </g>
            </g>
        </g>
        <g>
            <mask id="x" fill="#fff">
                <use xlink:href="#v"/>
            </mask>
            <path fill="url(#w)" fill-rule="nonzero" d="M20 10.91v4.76l17.818-4.76z" mask="url(#x)"/>
        </g>
        <g>
            <mask id="z" fill="#fff">
                <use xlink:href="#y"/>
            </mask>
            <g mask="url(#z)">
                <g transform="translate(2.955)">
                    <mask id="B" fill="#fff">
                        <use xlink:href="#A"/>
                    </mask>
                    <g fill-rule="nonzero" mask="url(#B)">
                        <path fill="#0F9D58" d="M-2.955 40h19.04l8.835-8.836v-6.619H9.173l-12.128-20.8z"/>
                        <path fill="url(#h)" d="M0 36.364h19.039l8.836-8.837V20.91H12.127L0 .11z" transform="translate(-2.955 3.636)"/>
                    </g>
                </g>
            </g>
        </g>
        <g>
            <mask id="E" fill="#fff">
                <use xlink:href="#C"/>
            </mask>
            <path fill="url(#D)" fill-rule="nonzero" d="M3.175 9.193l13.011 13.01-4.059 2.342z" mask="url(#E)"/>
        </g>
        <g>
            <mask id="H" fill="#fff">
                <use xlink:href="#F"/>
            </mask>
            <path fill="url(#G)" fill-rule="nonzero" d="M19.052 39.975l4.764-17.773 4.059 2.343z" mask="url(#H)"/>
        </g>
        <g>
            <mask id="J" fill="#fff">
                <use xlink:href="#I"/>
            </mask>
            <g fill-rule="nonzero" mask="url(#J)">
                <g transform="translate(10.91 10.91)">
                    <circle cx="9.091" cy="9.091" r="9.091" fill="#F1F1F1"/>
                    <circle cx="9.091" cy="9.091" r="7.273" fill="#4285F4"/>
                </g>
            </g>
        </g>
        <g>
            <mask id="L" fill="#fff">
                <use xlink:href="#K"/>
            </mask>
            <g fill-rule="nonzero" mask="url(#L)">
                <path fill="#3E2723" fill-opacity=".2" d="M20 10.682c-5.02 0-9.09 4.07-9.09 9.09V20c0-5.02 4.07-9.09 9.09-9.09h20v-.228H20z"/>
                <path fill="#FFF" fill-opacity=".1" d="M27.864 24.545C26.29 27.26 23.36 29.091 20 29.091c-3.364 0-6.293-1.832-7.866-4.546h-.009L0 3.745v.228l12.127 20.8h.01c1.572 2.713 4.502 4.545 7.865 4.545 3.362 0 6.291-1.83 7.864-4.545h.011v-.228h-.013z"/>
                <path fill="#3E2723" d="M20.227 10.91c-.038 0-.075.004-.113.006 4.968.061 8.977 4.102 8.977 9.084 0 4.982-4.01 9.023-8.977 9.084.038 0 .075.007.113.007a9.091 9.091 0 0 0 0-18.182z" opacity=".1"/>
                <path fill="#FFF" fill-opacity=".2" d="M27.955 24.848a9.062 9.062 0 0 0 .795-7.284c.216.777.34 1.593.34 2.438 0 1.655-.447 3.2-1.22 4.537l.005.009-8.836 15.454h.263l8.657-15.145-.004-.01z"/>
            </g>
        </g>
        <g>
            <mask id="N" fill="#fff">
                <use xlink:href="#M"/>
            </mask>
            <g fill-rule="nonzero" mask="url(#N)">
                <path fill="#FFF" fill-opacity=".2" d="M20 .227c11.007 0 19.936 8.893 19.998 19.887L40 20C40 8.955 31.045 0 20 0S0 8.955 0 20l.002.114C.064 9.12 8.993.227 20 .227z"/>
                <path fill="#3E2723" fill-opacity=".15" d="M20 39.773c11.007 0 19.936-8.893 19.998-19.887L40 20c0 11.045-8.955 20-20 20S0 31.045 0 20l.002-.114C.064 30.88 8.993 39.773 20 39.773z"/>
            </g>
        </g>
        <circle cx="20" cy="20" r="20" fill="url(#O)" fill-rule="nonzero"/>
    </g>
</svg>
