<svg xmlns="http://www.w3.org/2000/svg" width="329" height="140" fill="none" viewBox="0 0 329 140">
    <mask id="prefix__a" width="1024" height="160" x="-352" y="-20" maskUnits="userSpaceOnUse">
        <path fill="#fff" d="M-352 -20H672V140H-352z"/>
    </mask>
    <g mask="url(#prefix__a)">
        <path fill="#FFD560" fill-opacity=".5" d="M36 69.333c0-2.21 1.79-4 4-4h272c2.209 0 4 1.79 4 4V136c0 2.209-1.791 4-4 4H40c-2.21 0-4-1.791-4-4V69.333z"/>
        <rect width="54.564" height="93.333" y="46.667" fill="#376EEE" rx="4"/>
        <path fill="#8CACF6" d="M0 50.667c0-2.21 1.79-4 4-4h16.102l28.793 93.332H4.005c-3.287 0-4.005-1.076-4.005-4.006V50.667z"/>
        <path fill="#fff" d="M6.48 60.473h41.826v70.101H6.48V60.473z"/>
        <path fill="#FFC72C" d="M68.865 72.844c1.659 0 3.004 1.345 3.004 3.004v29.696c0 1.659-1.345 3.004-3.004 3.004l-32.354-.001-14.501 6.121 1.746-6.121H18.91c-1.66 0-3.005-1.345-3.005-3.004V75.849c0-1.66 1.345-3.004 3.005-3.004h49.954v-.001z"/>
        <rect width="20.102" height="5.744" x="17.23" y="50.975" fill="#0E3AA1" rx="2"/>
        <path fill="#fff" fill-rule="evenodd" d="M33.968 91.028l-1.953-1.101 1.953-1.102c.74-.426 1.005-1.366.595-2.115-.192-.359-.52-.625-.91-.739-.391-.114-.811-.066-1.166.133l-2.094 1.182v-2.284c0-.859-.685-1.555-1.528-1.555s-1.527.696-1.527 1.555v2.284l-2.094-1.182c-.355-.2-.776-.248-1.167-.134-.39.114-.72.381-.911.74-.41.75-.145 1.689.595 2.115l1.952 1.102-1.953 1.101c-.74.426-1.004 1.366-.594 2.115.28.513.8.801 1.338.801.25 0 .504-.063.739-.194l2.093-1.182v2.284c0 .86.685 1.555 1.528 1.555s1.528-.696 1.528-1.555v-2.284l2.093 1.182c.234.131.49.195.741.195.537 0 1.058-.29 1.336-.8.41-.753.144-1.7-.594-2.116zm15.317 0l-1.953-1.102 1.953-1.102c.74-.426 1.005-1.365.595-2.115-.192-.359-.52-.625-.911-.74-.391-.113-.811-.065-1.166.134l-2.094 1.183v-2.283c0-.86-.685-1.556-1.528-1.556s-1.527.696-1.527 1.556v2.283l-2.095-1.182c-.354-.199-.774-.247-1.165-.133-.39.114-.718.38-.91.739-.41.75-.147 1.689.593 2.115l1.953 1.102-1.953 1.101c-.74.426-1.004 1.366-.593 2.115.191.36.52.626.91.74.39.115.81.067 1.166-.133l2.093-1.181v2.283c0 .86.684 1.555 1.528 1.555.843 0 1.528-.696 1.528-1.555v-2.284l2.094 1.183c.234.131.49.195.741.195.537 0 1.058-.29 1.336-.8.411-.75.147-1.692-.595-2.119v.001zm12.773-1.1l1.952 1.101c.739.417 1.006 1.364.595 2.115-.278.513-.8.801-1.336.801-.252 0-.506-.063-.74-.195l-2.095-1.181v2.283c0 .858-.684 1.555-1.527 1.555-.843 0-1.528-.696-1.528-1.555v-2.284l-2.093 1.182c-.236.132-.49.195-.741.195-.537 0-1.059-.288-1.337-.8-.41-.75-.145-1.69.596-2.116l1.953-1.102-1.954-1.102c-.74-.426-1.005-1.365-.595-2.115.192-.36.52-.627.911-.74.391-.115.812-.066 1.167.134l2.093 1.182v-2.283c0-.86.685-1.556 1.528-1.556s1.528.696 1.528 1.556v2.283l2.093-1.182c.355-.2.776-.248 1.166-.134.391.114.72.38.911.74.411.75.147 1.69-.595 2.116l-1.952 1.102z" clip-rule="evenodd"/>
        <path fill="#376EEE" fill-rule="evenodd" d="M148.742 136.371h51.296l.183-16.787h-51.296l-.183 16.787z" clip-rule="evenodd"/>
        <path fill="#376EEE" fill-rule="evenodd" d="M89.055 116.717c.007 2.204 1.796 3.986 4 3.986h166.743c2.173 0 3.939-1.736 3.918-3.909-.023-2.481-.076-5.699-.076-10.48v-5.21s-174.64.415-174.64 0l.055 15.613z" clip-rule="evenodd"/>
        <mask id="prefix__b" width="175" height="103" x="89" y="0" maskUnits="userSpaceOnUse">
            <path fill="#fff" fill-rule="evenodd" d="M89.07 0h174.64v102.373H89.07V0z" clip-rule="evenodd"/>
        </mask>
        <g mask="url(#prefix__b)">
            <path fill="#0E3AA1" fill-rule="evenodd" d="M93.067-.005c-2.208.002-3.997 1.792-3.997 4v98.203c0 .39 174.64 0 174.64 0l.018-98.356c.001-2.21-1.793-4.002-4.003-4L93.067-.005z" clip-rule="evenodd"/>
        </g>
        <path fill="#FEFEFE" fill-rule="evenodd" d="M98.332 91h155.167V16.333H98.332V91z" clip-rule="evenodd"/>
        <rect width="77" height="28" x="138" y="39.667" fill="#FFC72C" rx="2"/>
        <path fill="#fff" fill-rule="evenodd" d="M166.214 54.855l-2.109-1.19 2.109-1.19c.8-.46 1.086-1.475.643-2.284-.208-.388-.562-.675-.984-.799-.422-.123-.876-.071-1.259.144l-2.262 1.277v-2.467c0-.928-.74-1.68-1.651-1.68s-1.65.752-1.65 1.68v2.467l-2.262-1.277c-.383-.215-.837-.267-1.26-.144-.422.123-.777.41-.985.799-.441.81-.156 1.824.643 2.284l2.11 1.19-2.11 1.19c-.8.46-1.086 1.476-.643 2.285.303.554.866.866 1.446.866.27 0 .545-.068.798-.21l2.261-1.277v2.467c0 .93.74 1.68 1.651 1.68s1.651-.752 1.651-1.68v-2.467l2.261 1.277c.253.142.529.21.801.21.579 0 1.142-.313 1.443-.865.443-.812.155-1.834-.642-2.284v-.002zm16.547 0l-2.11-1.19 2.11-1.19c.8-.46 1.085-1.476.642-2.285-.207-.388-.562-.676-.984-.8-.422-.122-.876-.07-1.259.145l-2.262 1.278v-2.467c0-.928-.74-1.68-1.651-1.68s-1.65.752-1.65 1.68v2.467l-2.262-1.277c-.383-.215-.837-.267-1.259-.144-.422.123-.776.411-.984.799-.443.809-.158 1.824.642 2.284l2.109 1.19-2.109 1.19c-.8.46-1.085 1.476-.642 2.285.207.388.561.677.984.8.422.123.876.072 1.259-.144l2.261-1.277v2.467c0 .93.74 1.68 1.651 1.68s1.651-.752 1.651-1.68v-2.467l2.262 1.278c.253.142.529.21.8.21.58 0 1.143-.313 1.443-.864.445-.811.159-1.828-.642-2.289v.002zm13.796-1.188l2.11 1.19c.797.45 1.086 1.473.642 2.284-.301.554-.864.866-1.443.866-.273 0-.547-.068-.801-.211l-2.262-1.277v2.467c0 .927-.739 1.68-1.649 1.68-.911 0-1.651-.752-1.651-1.68v-2.467l-2.261 1.277c-.256.143-.53.21-.801.21-.58 0-1.143-.31-1.444-.865-.443-.81-.157-1.825.644-2.284l2.109-1.191-2.111-1.19c-.8-.46-1.085-1.476-.642-2.285.207-.389.562-.677.984-.8.423-.124.877-.071 1.261.145l2.261 1.277v-2.467c0-.928.74-1.68 1.651-1.68.91 0 1.65.752 1.65 1.68v2.467l2.261-1.277c.384-.216.838-.268 1.26-.145.422.123.777.411.984.8.444.81.158 1.825-.642 2.285l-2.11 1.19z" clip-rule="evenodd"/>
        <path fill-rule="evenodd" stroke="#FEFEFE" stroke-width=".5" d="M177.052 110.088c0 1.002-.822 1.814-1.835 1.814s-1.834-.812-1.834-1.814c0-1.003.821-1.816 1.834-1.816 1.013 0 1.835.813 1.835 1.816z" clip-rule="evenodd"/>
        <path fill="#0E3AA1" fill-rule="evenodd" d="M131.598 140h84.383v-3.63h-84.383V140z" clip-rule="evenodd"/>
        <path fill="#E7EEFD" fill-rule="evenodd" d="M98.332 17.623l155.167-.124v-5.135c0-1.104-.896-2-2-2H100.332c-1.104 0-2 .896-2 2v5.26z" clip-rule="evenodd"/>
        <path fill="url(#prefix__paint0_linear)" d="M149.504 137.165l50.36-16.462h-50.36v16.462z"/>
        <path fill="#8CACF6" fill-rule="evenodd" d="M102.849 15.082c.81 0 1.467-.657 1.467-1.467s-.657-1.467-1.467-1.467-1.466.657-1.466 1.467.656 1.467 1.466 1.467zM107.041 15.082c.81 0 1.466-.657 1.466-1.467s-.656-1.467-1.466-1.467c-.81 0-1.467.657-1.467 1.467s.657 1.467 1.467 1.467zM111.244 15.082c.81 0 1.465-.657 1.465-1.467s-.655-1.467-1.465-1.467-1.467.657-1.467 1.467.657 1.467 1.467 1.467z" clip-rule="evenodd"/>
        <path fill="#376EEE" fill-rule="evenodd" d="M148.742 136.371h51.296l.183-16.787h-51.296l-.183 16.787z" clip-rule="evenodd"/>
        <path fill-rule="evenodd" stroke="#FEFEFE" stroke-width=".5" d="M177.052 110.088c0 1.002-.822 1.814-1.835 1.814s-1.834-.812-1.834-1.814c0-1.003.821-1.816 1.834-1.816 1.013 0 1.835.813 1.835 1.816z" clip-rule="evenodd"/>
        <path fill="#0E3AA1" fill-rule="evenodd" d="M131.598 140h84.383v-3.63h-84.383V140z" clip-rule="evenodd"/>
        <path fill="url(#prefix__paint1_linear)" d="M149.504 137.165l50.36-16.462h-50.36v16.462z"/>
        <path fill="#8CACF6" fill-rule="evenodd" d="M102.849 15.082c.81 0 1.467-.657 1.467-1.467s-.657-1.467-1.467-1.467-1.466.657-1.466 1.467.656 1.467 1.466 1.467zM107.041 15.082c.81 0 1.466-.657 1.466-1.467s-.656-1.467-1.466-1.467c-.81 0-1.467.657-1.467 1.467s.657 1.467 1.467 1.467zM111.244 15.082c.81 0 1.465-.657 1.465-1.467s-.655-1.467-1.465-1.467-1.467.657-1.467 1.467.657 1.467 1.467 1.467z" clip-rule="evenodd"/>
        <path fill="#0657CD" fill-rule="evenodd" d="M288.941 113.314l3.481 26.685h21.812l3.249-26.685h-28.542z" clip-rule="evenodd"/>
        <path fill="#1A72F1" fill-rule="evenodd" d="M289.456 117.259h27.547l.48-3.945h-28.542l.515 3.945z" clip-rule="evenodd"/>
        <path fill="#0657CD" fill-rule="evenodd" d="M284.066 107.977l2.321 6.961h33.337l2.165-6.961h-37.823z" clip-rule="evenodd"/>
        <path fill="#0AA2AD" fill-rule="evenodd" d="M281 99.392s3.713-3.016 5.105-1.856c1.392 1.16 5.801 10.442 5.801 10.442h5.337S287.729 86.166 281 99.393zM306.758 107.978s9.745-12.53 19.491-14.386c0 0-3.944 8.817-13.458 14.386h-6.033z" clip-rule="evenodd"/>
        <path fill="#1AC0CC" fill-rule="evenodd" d="M289.437 70.62s-2.558 23.668 6.887 37.359h3.935s-4.722-23.436-10.822-37.359z" clip-rule="evenodd"/>
        <path fill="#0AA2AD" fill-rule="evenodd" d="M296.908 56s-1.624 36.895 3.017 51.977h4.524s4.758-27.38-7.541-51.977z" clip-rule="evenodd"/>
        <path fill="#1AC0CC" fill-rule="evenodd" d="M303.621 107.979c5.51-16.45 4.989-41.071 24.481-50.353-12.073 12.176-3.481 29.237-21.348 50.353h-3.133z" clip-rule="evenodd"/>
    </g>
    <defs>
        <linearGradient id="prefix__paint0_linear" x1="174.683" x2="164.959" y1="112.472" y2="142.218" gradientUnits="userSpaceOnUse">
            <stop stop-color="#1D4BEA"/>
            <stop offset="1" stop-color="#1D4BEA" stop-opacity=".1"/>
        </linearGradient>
        <linearGradient id="prefix__paint1_linear" x1="174.683" x2="164.959" y1="112.472" y2="142.218" gradientUnits="userSpaceOnUse">
            <stop stop-color="#1D4BEA"/>
            <stop offset="1" stop-color="#1D4BEA" stop-opacity=".1"/>
        </linearGradient>
    </defs>
</svg>
