<svg xmlns="http://www.w3.org/2000/svg" width="40" height="40" viewBox="0 0 40 40">
    <defs>
        <linearGradient id="a" x1="0%" y1="29.066%" y2="70.934%">
            <stop offset="0%" stop-color="#8BDCFB"/>
            <stop offset="100%" stop-color="#2FB7EC"/>
        </linearGradient>
        <linearGradient id="b" x1="50%" x2="50%" y1="0%" y2="100%">
            <stop offset="0%" stop-color="#E6F7FF"/>
            <stop offset="100%" stop-color="#CEF2FD" stop-opacity=".4"/>
        </linearGradient>
        <linearGradient id="c" x1="100%" x2="0%" y1="70.934%" y2="29.066%">
            <stop offset="0%" stop-color="#2FB7EC"/>
            <stop offset="100%" stop-color="#2F88EC"/>
        </linearGradient>
        <linearGradient id="d" x1="50%" x2="83.471%" y1="0%" y2="90.889%">
            <stop offset="0%" stop-color="#E6F7FF"/>
            <stop offset="100%" stop-color="#2FB7EC"/>
        </linearGradient>
    </defs>
    <g fill="none" fill-rule="nonzero">
        <circle cx="20" cy="20" r="20" fill="#E6F7FF"/>
        <g transform="translate(4 10)">
            <rect width="24.286" height="15.714" x="7.429" fill="url(#a)" rx="1.429"/>
            <path fill="url(#b)" d="M8.857 0h7.245l3.47 15.714H8.856c-.789 0-1.428-.64-1.428-1.428V1.429A1.43 1.43 0 0 1 8.856 0h.001z" opacity=".28"/>
            <rect width="24.286" height="15.714" x=".286" y="5.714" fill="url(#c)" rx="1.429" transform="matrix(-1 0 0 1 24.858 0)"/>
            <path fill="url(#d)" d="M1.715 5.714H9.47l3.673 15.715H1.716c-.791 0-1.43-.64-1.43-1.429V7.143c0-.79.64-1.429 1.429-1.429z" opacity=".28"/>
            <path fill="#FFF" d="M24.572 7.857H.286v2.857h24.286V7.857zM7.429 17.143h-5v2.143h5v-2.143z"/>
            <g transform="translate(26.715 2.143)">
                <circle cx="1.429" cy="1.429" r="1.429" fill="#EEF2F5"/>
                <path fill="#FFF" d="M1.429 0a1.429 1.429 0 0 1 0 2.857V0z"/>
            </g>
        </g>
    </g>
</svg>
