<svg width="240" height="136" viewBox="0 0 240 136" fill="none" xmlns="http://www.w3.org/2000/svg">
<g clip-path="url(#clip0)">
<rect width="240" height="136" fill="white"/>
<circle cx="119.5" cy="119.5" r="115.5" fill="#F0F4FF"/>
<path d="M57 52H119V116C119 116 118.39 124 111 124C103.61 124 57 124 57 124V52Z" fill="#7996F9"/>
<rect x="63" y="53.7971" width="32" height="1" rx="0.5" fill="white"/>
<rect x="63.5" y="58.2971" width="2" height="2" rx="1" stroke="white"/>
<rect x="68" y="58.7971" width="20" height="1" rx="0.5" fill="white"/>
<rect x="63.5" y="64.2971" width="2" height="2" rx="1" stroke="white"/>
<rect x="68" y="64.7971" width="13" height="1" rx="0.5" fill="white"/>
<path d="M103.941 116C103.941 120.418 107.102 124 111 124H51V116H103.941Z" fill="url(#paint0_linear)"/>
<path d="M103.941 116C103.941 120.418 107.102 124 111 124H51V116H103.941Z" fill="url(#paint1_linear)"/>
<path fill-rule="evenodd" clip-rule="evenodd" d="M51 124C46.5817 124 43 120.418 43 116H51V124Z" fill="url(#paint2_linear)"/>
<path fill-rule="evenodd" clip-rule="evenodd" d="M51 124C46.5817 124 43 120.418 43 116H51V124Z" fill="url(#paint3_linear)"/>
<path d="M87 32H149V84C149 84 148.39 92 141 92C136.433 92 125.5 92 125.5 92L126.5 44L87 44.1612V32Z" fill="url(#paint4_linear)"/>
<path d="M119 51.5C119 47.3579 122.358 44 126.5 44C130.642 44 134 47.3579 134 51.5V92H119V51.5Z" fill="url(#paint5_linear)"/>
<path d="M119 52C119 46.3969 123.399 44 126 44H65V52H119Z" fill="#7996F9"/>
<path fill-rule="evenodd" clip-rule="evenodd" d="M65 44C60.5817 44 57 47.5817 57 52H65V44Z" fill="#7996F9"/>
<mask id="mask0" mask-type="alpha" maskUnits="userSpaceOnUse" x="57" y="44" width="8" height="8">
<path fill-rule="evenodd" clip-rule="evenodd" d="M65 44C60.5817 44 57 47.5817 57 52H65V44Z" fill="white"/>
</mask>
<g mask="url(#mask0)">
</g>
<path d="M149 31.5C149 27.3579 152.358 24 156.5 24C160.642 24 164 27.3579 164 31.5V40H149V31.5Z" fill="url(#paint6_linear)"/>
<path d="M149 32C149 27.5817 153.105 24 156 24H95V32H149Z" fill="#7996F9"/>
<path fill-rule="evenodd" clip-rule="evenodd" d="M95 24C90.5817 24 87 27.5817 87 32H95V24Z" fill="#7996F9"/>
<mask id="mask1" mask-type="alpha" maskUnits="userSpaceOnUse" x="87" y="24" width="8" height="8">
<path fill-rule="evenodd" clip-rule="evenodd" d="M95 24C90.5817 24 87 27.5817 87 32H95V24Z" fill="white"/>
</mask>
<g mask="url(#mask1)">
</g>
<rect x="94" y="32" width="28" height="1" rx="0.5" fill="white"/>
<rect x="94" y="35.6667" width="16" height="1" rx="0.5" fill="white"/>
<rect width="28" height="6" transform="matrix(0.707107 0.707107 0.707107 -0.707107 37.1211 49.3638)" fill="#FFECAB"/>
<path d="M36.0607 46.182C35.4749 46.7678 35.4749 47.7175 36.0607 48.3033L37.1213 49.364L41.364 45.1214L40.3033 44.0607C39.7175 43.4749 38.7678 43.4749 38.182 44.0607L36.0607 46.182Z" fill="#022786"/>
<rect width="28" height="3" transform="matrix(0.707107 0.707107 0.707107 -0.707107 37.1211 49.3638)" fill="#FFC72C"/>
<path d="M56.9204 69.1626L63.2844 71.2839L61.1631 64.92L56.9204 69.1626Z" fill="#3F5663"/>
<path d="M60.1021 70.2236L63.284 71.2843L62.2234 68.1023L60.1021 70.2236Z" fill="#4A5F6E"/>
<path fill-rule="evenodd" clip-rule="evenodd" d="M155.117 80C155.117 79.4477 154.67 79 154.117 79H100C99.4477 79 99 79.4477 99 80V95.1877V103.821V109.128C99 109.994 100.026 110.45 100.67 109.87L107.095 104.078C107.279 103.913 107.517 103.821 107.764 103.821H154.117C154.67 103.821 155.117 103.373 155.117 102.821V80Z" fill="#9CF0CD"/>
<path d="M106.554 86.5542H146.484" stroke="#10774C" stroke-linecap="round"/>
<path d="M106.554 97.3459H146.484" stroke="#10774C" stroke-linecap="round"/>
<path d="M106.554 91.9502H123.821" stroke="#10774C" stroke-linecap="round"/>
<path d="M129.217 91.9502H146.484" stroke="#10774C" stroke-linecap="round"/>
<g filter="url(#filter0_d)">
<path fill-rule="evenodd" clip-rule="evenodd" d="M138 50C138 49.4477 138.448 49 139 49H193.117C193.669 49 194.117 49.4477 194.117 50V73.8211C194.117 73.8212 194.117 73.8212 194.117 73.8212C194.117 73.8212 194.117 73.8212 194.117 73.8212L194.117 79.1277C194.117 79.9938 193.091 80.4504 192.448 79.8704L186.022 74.0784C185.839 73.9128 185.6 73.8212 185.353 73.8212H139C138.448 73.8212 138 73.3734 138 72.8212V50Z" fill="white"/>
<path d="M185.484 55.4751H145.554" stroke="#7996F9" stroke-linecap="round"/>
<path d="M185.484 66.2668H145.554" stroke="#7996F9" stroke-linecap="round"/>
<path d="M185.484 60.8711H168.217" stroke="#7996F9" stroke-linecap="round"/>
<path d="M162.821 60.8711H145.554" stroke="#7996F9" stroke-linecap="round"/>
</g>
<rect x="63" y="75" width="28" height="1" rx="0.5" fill="white"/>
<rect x="63.5" y="91.5" width="2" height="2" rx="1" stroke="white"/>
<rect x="68" y="92" width="17" height="1" rx="0.5" fill="white"/>
<rect x="63.5" y="97.5" width="2" height="2" rx="1" stroke="white"/>
<rect x="68" y="98" width="9" height="1" rx="0.5" fill="white"/>
<rect x="63.5" y="79.5" width="2" height="2" rx="1" stroke="white"/>
<rect x="68" y="80" width="20" height="1" rx="0.5" fill="white"/>
<rect x="63.5" y="85.5" width="2" height="2" rx="1" stroke="white"/>
<rect x="68" y="86" width="13" height="1" rx="0.5" fill="white"/>
<rect x="157" y="80" width="40" height="40.5698" rx="20" fill="white"/>
<path fill-rule="evenodd" clip-rule="evenodd" d="M167.022 96.9663C167.584 91.9713 171.763 88.138 176.698 88.0037C181.793 87.8647 186.274 91.7078 186.91 96.8609L184.975 96.8765C184.463 92.7265 180.854 89.631 176.75 89.7428C172.776 89.8511 169.41 92.9384 168.958 96.9611L167.022 96.9663Z" fill="#022786"/>
<path d="M168.236 97.0337C168.236 97.0337 167.716 99.0489 167.629 102.022" stroke="#022786" stroke-width="0.539326" stroke-linecap="round" stroke-linejoin="round"/>
<path d="M185.899 96.8315C185.899 96.8315 186.453 98.8432 186.573 101.82" stroke="#022786" stroke-width="0.539326" stroke-linecap="round" stroke-linejoin="round"/>
<path fill-rule="evenodd" clip-rule="evenodd" d="M165.198 106.067L166.416 106.061L166.393 101.955L165.175 101.961C165.078 101.961 164.999 102.039 165 102.133L165.02 105.896C165.021 105.991 165.1 106.068 165.198 106.067Z" fill="#022786"/>
<path fill-rule="evenodd" clip-rule="evenodd" d="M188.831 105.86L187.875 105.865L187.854 101.758L188.81 101.753C188.904 101.752 188.98 101.829 188.981 101.923L189 105.687C189.001 105.782 188.925 105.859 188.831 105.86Z" fill="#022786"/>
<path fill-rule="evenodd" clip-rule="evenodd" d="M166.462 107.079L168.438 107.068L168.405 100.674L166.429 100.684C166.085 100.686 165.807 100.969 165.809 101.316L165.836 106.453C165.838 106.8 166.118 107.08 166.462 107.079Z" fill="#022786"/>
<path fill-rule="evenodd" clip-rule="evenodd" d="M187.647 107L185.662 107.011L185.629 100.618L187.614 100.607C187.954 100.605 188.23 100.885 188.232 101.232L188.259 106.368C188.26 106.716 187.986 106.998 187.647 107Z" fill="#022786"/>
<mask id="mask2" mask-type="alpha" maskUnits="userSpaceOnUse" x="168" y="100" width="2" height="8">
<path fill-rule="evenodd" clip-rule="evenodd" d="M168.145 100.272H169.881V107.472H168.145V100.272Z" fill="white"/>
</mask>
<g mask="url(#mask2)">
<path fill-rule="evenodd" clip-rule="evenodd" d="M169.649 107.466L168.415 107.473C168.286 107.473 168.181 107.372 168.181 107.248L168.145 100.506C168.143 100.382 168.248 100.28 168.375 100.279L169.611 100.272C169.738 100.272 169.843 100.373 169.844 100.498L169.881 107.238C169.881 107.363 169.777 107.466 169.649 107.466Z" fill="#022786"/>
</g>
<path fill-rule="evenodd" clip-rule="evenodd" d="M184.553 107.416L185.8 107.409C185.929 107.409 186.034 107.306 186.034 107.182L185.996 100.428C185.996 100.303 185.889 100.201 185.761 100.202L184.514 100.209C184.385 100.209 184.28 100.312 184.281 100.436L184.317 107.19C184.318 107.315 184.425 107.416 184.553 107.416Z" fill="#022786"/>
<path d="M169.07 106.394C169.398 107.891 171.176 110.97 175.667 111.307" stroke="#022786" stroke-width="0.842105"/>
<circle cx="176.088" cy="111.447" r="1.12281" fill="#022786"/>
</g>
<defs>
<filter id="filter0_d" x="132" y="45" width="68.1174" height="43.1296" filterUnits="userSpaceOnUse" color-interpolation-filters="sRGB">
<feFlood flood-opacity="0" result="BackgroundImageFix"/>
<feColorMatrix in="SourceAlpha" type="matrix" values="0 0 0 0 0 0 0 0 0 0 0 0 0 0 0 0 0 0 127 0"/>
<feOffset dy="2"/>
<feGaussianBlur stdDeviation="3"/>
<feColorMatrix type="matrix" values="0 0 0 0 0.686275 0 0 0 0 0.780392 0 0 0 0 0.819608 0 0 0 0.4 0"/>
<feBlend mode="normal" in2="BackgroundImageFix" result="effect1_dropShadow"/>
<feBlend mode="normal" in="SourceGraphic" in2="effect1_dropShadow" result="shape"/>
</filter>
<linearGradient id="paint0_linear" x1="81" y1="112" x2="78.9039" y2="127.721" gradientUnits="userSpaceOnUse">
<stop stop-color="#7996F9"/>
<stop offset="1" stop-color="#ADC0FD"/>
</linearGradient>
<linearGradient id="paint1_linear" x1="64.2344" y1="116" x2="64.2344" y2="124" gradientUnits="userSpaceOnUse">
<stop stop-color="#305BEF"/>
<stop offset="1" stop-color="#0739CF"/>
</linearGradient>
<linearGradient id="paint2_linear" x1="48" y1="113" x2="48" y2="122" gradientUnits="userSpaceOnUse">
<stop stop-color="#7996F9"/>
<stop offset="1" stop-color="#ADC0FD"/>
</linearGradient>
<linearGradient id="paint3_linear" x1="44.7646" y1="116" x2="44.7646" y2="124" gradientUnits="userSpaceOnUse">
<stop stop-color="#305BEF"/>
<stop offset="1" stop-color="#0739CF"/>
</linearGradient>
<linearGradient id="paint4_linear" x1="118" y1="32" x2="118" y2="92" gradientUnits="userSpaceOnUse">
<stop stop-color="#7996F9"/>
<stop offset="0.522658" stop-color="#2552DA"/>
<stop offset="1" stop-color="#022786"/>
</linearGradient>
<linearGradient id="paint5_linear" x1="122.309" y1="44" x2="122.309" y2="92" gradientUnits="userSpaceOnUse">
<stop stop-color="#305BEF"/>
<stop offset="1" stop-color="#022786"/>
</linearGradient>
<linearGradient id="paint6_linear" x1="152.309" y1="24" x2="152.309" y2="40" gradientUnits="userSpaceOnUse">
<stop stop-color="#305BEF"/>
<stop offset="1" stop-color="#0739CF"/>
</linearGradient>
<clipPath id="clip0">
<rect width="240" height="136" fill="white"/>
</clipPath>
</defs>
</svg>
