<svg xmlns="http://www.w3.org/2000/svg" xmlns:xlink="http://www.w3.org/1999/xlink" width="16" height="16" viewBox="0 0 16 16">
    <defs>
        <path id="a" d="M1 3h4.003v-.999a1 1 0 0 1 1-1h4.003a1 1 0 0 1 1 1V3H15v2.001h-1V14a2 2 0 0 1-2 2H4a2 2 0 0 1-2-2V5.001H1V3zm3 2v9h8V5H4zm2.003 1.004h.001a1 1 0 0 1 1 1v4a1 1 0 0 1-2.001 0v-4a1 1 0 0 1 1-1zm4.003 0a1 1 0 0 1 1 1v4a1 1 0 0 1-2.001 0v-4a1 1 0 0 1 1-1z"/>
    </defs>
    <g fill="none" fill-rule="evenodd">
        <mask id="b" fill="#fff">
            <use xlink:href="#a"/>
        </mask>
        <g fill="#4A5F6E" mask="url(#b)">
            <path d="M0 0h16v16H0z"/>
        </g>
    </g>
</svg>
