<svg xmlns="http://www.w3.org/2000/svg" xmlns:xlink="http://www.w3.org/1999/xlink" width="16" height="16" viewBox="0 0 16 16">
    <defs>
        <path id="a" d="M0 0h16v16H0z"/>
        <path id="b" d="M9.001 9.483l4.204-4.177a1.056 1.056 0 0 1 1.486 0 1.04 1.04 0 0 1 .001 1.477l-5.949 5.911a1.056 1.056 0 0 1-1.486 0l-5.95-5.91a1.04 1.04 0 0 1 0-1.477 1.056 1.056 0 0 1 1.488-.001L7 9.484V1a1 1 0 0 1 1-1h.001a1 1 0 0 1 1 1v8.483zM14 14.009v-1c0-.554.447-1.009 1-1.009.553 0 1 .455 1 1.008V16H0v-2.992C0 12.455.448 12 1 12c.553 0 1.001.455 1.001 1.008v1H14z"/>
    </defs>
    <g fill="none" fill-rule="nonzero">
        <use fill="#4A5F6E" xlink:href="#b"/>
    </g>
</svg>
