<svg width="24" height="24" viewBox="0 0 24 24" fill="none" xmlns="http://www.w3.org/2000/svg">
<path d="M9.05005 11.05C11.25 11.05 13.05 9.24999 13.05 7.04999C13.05 4.84999 11.25 3.04999 9.05005 3.04999C6.85005 3.04999 5.05005 4.84999 5.05005 7.04999C5.05005 9.24999 6.85005 11.05 9.05005 11.05Z" stroke="#022786" stroke-width="1.5" stroke-linecap="round" stroke-linejoin="round"/>
<path d="M2.05005 21.05C2.05005 17.15 5.15005 14.05 9.05005 14.05C12.95 14.05 16.05 17.15 16.05 21.05" stroke="#022786" stroke-width="1.5" stroke-linecap="round" stroke-linejoin="round"/>
<path d="M16.05 10.85C17.75 10.45 19.05 8.84999 19.05 6.94999C19.05 5.04999 17.75 3.54999 16.05 3.04999" stroke="#022786" stroke-width="1.5" stroke-linecap="round" stroke-linejoin="round"/>
<path d="M19.05 15.25C20.85 16.55 22.05 18.65 22.05 20.95" stroke="#022786" stroke-width="1.5" stroke-linecap="round" stroke-linejoin="round"/>
</svg>
