<svg width="24" height="24" viewBox="0 0 24 24" fill="none" xmlns="http://www.w3.org/2000/svg">
<path d="M3.4213 4.45833C3.14824 4.8094 3 5.24146 3 5.68622V18C3 19.6569 4.34315 21 6 21H18C19.6569 21 21 19.6569 21 18V5.68622C21 5.24146 20.8518 4.8094 20.5787 4.45833L19.2672 2.77212C18.8883 2.28495 18.3057 2 17.6885 2H6.3115C5.69432 2 5.11171 2.28495 4.7328 2.77212L3.4213 4.45833Z" stroke="#002271" stroke-width="2"/>
<path d="M3 5.5H21" stroke="#002271" stroke-width="2"/>
<path d="M16 10C16 12.2091 14.2091 14 12 14C9.79086 14 8 12.2091 8 10" stroke="#002271" stroke-width="2" stroke-linecap="round"/>
</svg>
