<svg width="24" height="24" viewBox="0 0 24 24" fill="none" xmlns="http://www.w3.org/2000/svg">
<path fill-rule="evenodd" clip-rule="evenodd" d="M20 17C20 18.6569 18.6569 20 17 20C15.3431 20 14 18.6569 14 17H10C10 18.6569 8.65685 20 7 20C5.34315 20 4 18.6569 4 17H2V4H16V7H20L22 9V17H20ZM4 6V13H14V6H4ZM18 17C18 17.5523 17.5523 18 17 18C16.4477 18 16 17.5523 16 17C16 16.4477 16.4477 16 17 16C17.5523 16 18 16.4477 18 17ZM7 18C7.55228 18 8 17.5523 8 17C8 16.4477 7.55228 16 7 16C6.44772 16 6 16.4477 6 17C6 17.5523 6.44772 18 7 18ZM16 11V9H19L20 10V11H16Z" fill="#002271"/>
</svg>
