<svg xmlns="http://www.w3.org/2000/svg" width="480" height="333" fill="none" viewBox="0 0 480 333">
    <circle cx="341" cy="128" r="128" fill="url(#prefix__paint0_linear)"/>
    <path fill="url(#prefix__paint1_linear)" fill-rule="evenodd" d="M40.07 314.269h71.283v-10.544H40.07v10.544z" clip-rule="evenodd"/>
    <path fill="url(#prefix__paint2_linear)" fill-rule="evenodd" d="M366.96 314.269h71.283v-10.544H366.96v10.544z" clip-rule="evenodd"/>
    <path fill="url(#prefix__paint3_linear)" fill-rule="evenodd" d="M0 202.104c0 .552.448 1 1 1h478c.552 0 1-.448 1-1v-8c0-.553-.448-1-1-1H1c-.552 0-1 .447-1 1v8z" clip-rule="evenodd"/>
    <path fill="url(#prefix__paint4_linear)" fill-rule="evenodd" d="M55.676 211.104c0 .552.448 1 1 1h35.54c.552 0 1-.448 1-1v-7c0-.553-.448-1-1-1h-35.54c-.552 0-1 .447-1 1v7z" clip-rule="evenodd"/>
    <path fill="url(#prefix__paint5_linear)" fill-rule="evenodd" d="M63.878 212.196c-.435 0-.82.281-.953.696L25.301 331.103c-.205.645.276 1.304.953 1.304h8.57c.435 0 .82-.282.953-.697l37.622-118.211c.205-.645-.276-1.303-.953-1.303h-8.568z" clip-rule="evenodd"/>
    <path fill="url(#prefix__paint6_linear)" fill-rule="evenodd" d="M77.29 212.196c-.677 0-1.158.658-.953 1.303l37.626 118.211c.133.415.518.697.953.697h8.567c.677 0 1.158-.659.953-1.304L86.812 212.892c-.132-.415-.518-.696-.953-.696H77.29z" clip-rule="evenodd"/>
    <path fill="url(#prefix__paint7_linear)" fill-rule="evenodd" d="M382.539 211.104c0 .552.448 1 1 1h35.606c.552 0 1-.448 1-1v-7c0-.553-.448-1-1-1h-35.606c-.552 0-1 .447-1 1v7z" clip-rule="evenodd"/>
    <path fill="url(#prefix__paint8_linear)" fill-rule="evenodd" d="M390.592 212.127c-.436 0-.821.283-.953.698l-37.51 118.28c-.205.645.277 1.302.953 1.302h8.536c.436 0 .822-.282.954-.697l37.508-118.28c.204-.645-.277-1.303-.954-1.303h-8.534z" clip-rule="evenodd"/>
    <path fill="url(#prefix__paint9_linear)" fill-rule="evenodd" d="M412.788 212.127c.436 0 .822.283.953.698l37.51 118.28c.205.645-.277 1.302-.953 1.302h-8.536c-.436 0-.822-.282-.953-.697l-37.508-118.28c-.205-.645.276-1.303.953-1.303h8.534z" clip-rule="evenodd"/>
    <path fill="url(#prefix__paint10_linear)" fill-rule="evenodd" d="M297.741 192.585l-115.792.107c-4.254.004-7.816-2.952-8.725-6.917-.246-1.077.671-1.985 1.776-1.986l129.672-.121c1.105-.001 2.024.906 1.78 1.983-.901 3.967-4.457 6.931-8.711 6.934z" clip-rule="evenodd"/>
    <path fill="url(#prefix__paint11_linear)" fill-rule="evenodd" d="M298.484 106l-117.475.11c-1.056 0-1.912.857-1.91 1.917l.07 75.674 121.299-.111-.07-75.677c0-1.055-.859-1.913-1.914-1.913z" clip-rule="evenodd"/>
    <path fill="#fff" fill-rule="evenodd" d="M187.448 116.692l104.611-.096.061 67.009-104.611.097-.061-67.01z" clip-rule="evenodd"/>
    <path fill="url(#prefix__paint12_linear)" d="M197.18 133.676c-.424.192-.748.424-.972.696-.216.272-.34.6-.372.984.08-.024.164-.036.252-.036.32 0 .58.1.78.3.208.192.312.456.312.792 0 .368-.108.664-.324.888-.216.216-.492.324-.828.324-.448 0-.796-.168-1.044-.504-.24-.336-.36-.808-.36-1.416 0-.656.172-1.232.516-1.728.352-.504.88-.916 1.584-1.236l.456.936zm3.18 0c-.424.192-.748.424-.972.696-.216.272-.34.6-.372.984.08-.024.164-.036.252-.036.32 0 .58.1.78.3.208.192.312.456.312.792 0 .368-.108.664-.324.888-.216.216-.492.324-.828.324-.448 0-.796-.168-1.044-.504-.24-.336-.36-.808-.36-1.416 0-.656.172-1.232.516-1.728.352-.504.88-.916 1.584-1.236l.456.936z"/>
    <path fill="url(#prefix__paint13_linear)" d="M202.623 139.232c.344.216.688.388 1.032.516.352.128.728.192 1.128.192.408 0 .7-.044.876-.132.176-.088.264-.212.264-.372 0-.184-.148-.332-.444-.444-.288-.12-.672-.248-1.152-.384-.264-.072-.524-.156-.78-.252-.248-.104-.472-.224-.672-.36-.2-.144-.364-.308-.492-.492-.12-.184-.18-.396-.18-.636 0-.272.064-.524.192-.756.128-.232.308-.428.54-.588.24-.16.528-.284.864-.372.344-.096.728-.144 1.152-.144.528 0 1.008.088 1.44.264.44.168.816.352 1.128.552l-.792 1.056c-.272-.16-.552-.292-.84-.396-.288-.112-.588-.168-.9-.168-.376 0-.644.04-.804.12-.152.08-.228.196-.228.348 0 .088.04.168.12.24.08.072.188.136.324.192.136.056.296.112.48.168.192.048.392.1.6.156.296.08.576.172.84.276.264.096.496.212.696.348.2.136.36.3.48.492s.18.416.18.672c0 .272-.064.524-.192.756-.128.232-.316.436-.564.612-.24.168-.544.304-.912.408-.36.096-.78.144-1.26.144-.536 0-1.06-.088-1.572-.264-.512-.176-.96-.392-1.344-.648l.792-1.104z"/>
    <path fill="url(#prefix__paint14_linear)" d="M210.479 136.532h-1.5v-1.308l1.584-.072.228-1.584h1.452v1.584h2.52v1.38h-2.52v2.088c0 .456.1.78.3.972.2.184.516.276.948.276.232 0 .444-.02.636-.06.192-.04.376-.092.552-.156l.312 1.272c-.264.08-.56.152-.888.216-.32.072-.672.108-1.056.108-.472 0-.872-.064-1.2-.192-.328-.128-.596-.304-.804-.528-.2-.232-.344-.508-.432-.828-.088-.32-.132-.676-.132-1.068v-2.1z"/>
    <path fill="url(#prefix__paint15_linear)" d="M216.318 139.448c0-.336.072-.628.216-.876.144-.256.372-.472.684-.648.32-.176.728-.316 1.224-.42.496-.112 1.096-.188 1.8-.228-.032-.272-.152-.484-.36-.636-.2-.152-.504-.228-.912-.228-.288 0-.58.052-.876.156-.288.096-.6.228-.936.396l-.624-1.152c.408-.232.844-.424 1.308-.576.472-.152.964-.228 1.476-.228.832 0 1.488.22 1.968.66.48.44.72 1.116.72 2.028v3.408h-1.44l-.132-.672h-.048c-.304.232-.636.428-.996.588-.36.152-.732.228-1.116.228-.304 0-.576-.048-.816-.144-.24-.088-.444-.212-.612-.372-.168-.168-.3-.36-.396-.576-.088-.216-.132-.452-.132-.708zm1.692-.132c0 .192.072.336.216.432.152.088.356.132.612.132.264 0 .512-.052.744-.156.232-.112.452-.248.66-.408v-.984c-.44.024-.804.064-1.092.12-.288.056-.516.128-.684.216-.168.08-.288.176-.36.288-.064.112-.096.232-.096.36z"/>
    <path fill="url(#prefix__paint16_linear)" d="M224.173 135.152h1.44l.144 1.296h.036c.296-.488.652-.848 1.068-1.08.416-.24.864-.36 1.344-.36.264 0 .476.02.636.06.168.04.34.1.516.18l-.36 1.476c-.184-.056-.352-.096-.504-.12-.144-.032-.328-.048-.552-.048-.368 0-.732.108-1.092.324-.352.216-.656.592-.912 1.128v3.096h-1.764v-5.952z"/>
    <path fill="url(#prefix__paint17_linear)" d="M232.065 136.532h-1.5v-1.308l1.584-.072.228-1.584h1.452v1.584h2.52v1.38h-2.52v2.088c0 .456.1.78.3.972.2.184.516.276.948.276.232 0 .444-.02.636-.06.192-.04.376-.092.552-.156l.312 1.272c-.264.08-.56.152-.888.216-.32.072-.672.108-1.056.108-.472 0-.872-.064-1.2-.192-.328-.128-.596-.304-.804-.528-.2-.232-.344-.508-.432-.828-.088-.32-.132-.676-.132-1.068v-2.1z"/>
    <path fill="url(#prefix__paint18_linear)" d="M243.652 141.752v1.32h-5.76v-1.32h5.76z"/>
    <path fill="url(#prefix__paint19_linear)" d="M245.099 139.448c0-.336.072-.628.216-.876.144-.256.372-.472.684-.648.32-.176.728-.316 1.224-.42.496-.112 1.096-.188 1.8-.228-.032-.272-.152-.484-.36-.636-.2-.152-.504-.228-.912-.228-.288 0-.58.052-.876.156-.288.096-.6.228-.936.396l-.624-1.152c.408-.232.844-.424 1.308-.576.472-.152.964-.228 1.476-.228.832 0 1.488.22 1.968.66.48.44.72 1.116.72 2.028v3.408h-1.44l-.132-.672h-.048c-.304.232-.636.428-.996.588-.36.152-.732.228-1.116.228-.304 0-.576-.048-.816-.144-.24-.088-.444-.212-.612-.372-.168-.168-.3-.36-.396-.576-.088-.216-.132-.452-.132-.708zm1.692-.132c0 .192.072.336.216.432.152.088.356.132.612.132.264 0 .512-.052.744-.156.232-.112.452-.248.66-.408v-.984c-.44.024-.804.064-1.092.12-.288.056-.516.128-.684.216-.168.08-.288.176-.36.288-.064.112-.096.232-.096.36z"/>
    <path fill="url(#prefix__paint20_linear)" d="M253.651 136.532h-1.5v-1.308l1.584-.072.228-1.584h1.452v1.584h2.52v1.38h-2.52v2.088c0 .456.099.78.3.972.2.184.515.276.947.276.232 0 .444-.02.637-.06.192-.04.376-.092.552-.156l.311 1.272c-.264.08-.559.152-.887.216-.32.072-.673.108-1.057.108-.472 0-.871-.064-1.199-.192-.328-.128-.596-.304-.804-.528-.201-.232-.344-.508-.432-.828-.089-.32-.132-.676-.132-1.068v-2.1z"/>
    <path fill="url(#prefix__paint21_linear)" d="M259.598 136.688c.84-.376 1.288-.932 1.344-1.668-.088.024-.168.036-.24.036-.328 0-.596-.1-.804-.3-.2-.2-.3-.468-.3-.804 0-.368.108-.66.324-.876.216-.224.492-.336.828-.336.456 0 .804.172 1.044.516.24.336.36.804.36 1.404 0 .656-.172 1.236-.516 1.74-.344.496-.868.904-1.572 1.224l-.468-.936zm3.18 0c.84-.376 1.288-.932 1.344-1.668-.088.024-.168.036-.24.036-.328 0-.596-.1-.804-.3-.2-.2-.3-.468-.3-.804 0-.368.108-.66.324-.876.216-.224.492-.336.828-.336.456 0 .804.172 1.044.516.24.336.36.804.36 1.404 0 .656-.172 1.236-.516 1.74-.344.496-.868.904-1.572 1.224l-.468-.936z"/>
    <path fill="url(#prefix__paint22_linear)" d="M268.161 135.968c0-.2.032-.384.096-.552.072-.176.168-.328.288-.456.12-.128.264-.228.432-.3.176-.072.368-.108.576-.108.208 0 .396.036.564.108.176.072.324.172.444.3s.212.28.276.456c.072.168.108.352.108.552 0 .4-.128.736-.384 1.008-.256.264-.592.396-1.008.396-.416 0-.752-.132-1.008-.396-.256-.272-.384-.608-.384-1.008zm0 3.876c0-.2.032-.384.096-.552.072-.176.168-.328.288-.456.12-.128.264-.228.432-.3.176-.072.368-.108.576-.108.208 0 .396.036.564.108.176.072.324.172.444.3s.212.28.276.456c.072.168.108.352.108.552 0 .4-.128.736-.384 1.008-.256.264-.592.396-1.008.396-.416 0-.752-.132-1.008-.396-.256-.272-.384-.608-.384-1.008z"/>
    <path fill="url(#prefix__paint23_linear)" d="M194.696 158.096c.544-.456 1.04-.88 1.488-1.272.448-.4.832-.772 1.152-1.116.32-.344.568-.668.744-.972.176-.304.264-.592.264-.864 0-.376-.108-.66-.324-.852-.216-.2-.524-.3-.924-.3-.304 0-.584.08-.84.24-.248.152-.48.332-.696.54l-.948-.948c.2-.2.396-.376.588-.528.2-.152.408-.276.624-.372.224-.104.456-.18.696-.228.248-.056.52-.084.816-.084.4 0 .764.06 1.092.18.328.112.608.276.84.492.24.208.424.46.552.756.136.296.204.628.204.996 0 .32-.076.648-.228.984-.152.328-.36.66-.624.996-.256.328-.552.66-.888.996-.336.328-.688.652-1.056.972.216-.024.448-.044.696-.06.256-.024.484-.036.684-.036h1.812v1.488h-5.724v-1.008z"/>
    <path fill="url(#prefix__paint24_linear)" d="M204.795 159.248c-.44 0-.84-.084-1.2-.252-.36-.176-.668-.432-.924-.768s-.456-.752-.6-1.248c-.136-.496-.204-1.068-.204-1.716 0-.648.068-1.216.204-1.704.144-.488.344-.896.6-1.224.256-.336.564-.584.924-.744.36-.168.76-.252 1.2-.252.44 0 .84.084 1.2.252.36.16.668.408.924.744.256.328.452.736.588 1.224.144.488.216 1.056.216 1.704 0 .648-.072 1.22-.216 1.716-.136.496-.332.912-.588 1.248-.256.336-.564.592-.924.768-.36.168-.76.252-1.2.252zm0-6.54c-.192 0-.372.04-.54.12-.16.08-.3.22-.42.42-.12.192-.216.452-.288.78-.072.328-.108.74-.108 1.236s.036.912.108 1.248c.072.328.168.596.288.804.12.2.26.344.42.432.168.088.348.132.54.132.192 0 .368-.044.528-.132.168-.088.312-.232.432-.432.12-.208.216-.476.288-.804.072-.336.108-.752.108-1.248s-.036-.908-.108-1.236c-.072-.328-.168-.588-.288-.78-.12-.2-.264-.34-.432-.42-.16-.08-.336-.12-.528-.12zm0 3.444c-.256 0-.472-.08-.648-.24-.168-.168-.252-.392-.252-.672s.084-.5.252-.66c.176-.168.392-.252.648-.252s.468.084.636.252c.176.16.264.38.264.66s-.088.504-.264.672c-.168.16-.38.24-.636.24z"/>
    <path fill="url(#prefix__paint25_linear)" d="M209.087 158.096c.544-.456 1.04-.88 1.488-1.272.448-.4.832-.772 1.152-1.116.32-.344.568-.668.744-.972.176-.304.264-.592.264-.864 0-.376-.108-.66-.324-.852-.216-.2-.524-.3-.924-.3-.304 0-.584.08-.84.24-.248.152-.48.332-.696.54l-.948-.948c.2-.2.396-.376.588-.528.2-.152.408-.276.624-.372.224-.104.456-.18.696-.228.248-.056.52-.084.816-.084.4 0 .764.06 1.092.18.328.112.608.276.84.492.24.208.424.46.552.756.136.296.204.628.204.996 0 .32-.076.648-.228.984-.152.328-.36.66-.624.996-.256.328-.552.66-.888.996-.336.328-.688.652-1.056.972.216-.024.448-.044.696-.06.256-.024.484-.036.684-.036h1.812v1.488h-5.724v-1.008z"/>
    <path fill="url(#prefix__paint26_linear)" d="M219.186 159.248c-.44 0-.84-.084-1.2-.252-.36-.176-.668-.432-.924-.768s-.456-.752-.6-1.248c-.136-.496-.204-1.068-.204-1.716 0-.648.068-1.216.204-1.704.144-.488.344-.896.6-1.224.256-.336.564-.584.924-.744.36-.168.76-.252 1.2-.252.44 0 .84.084 1.2.252.36.16.668.408.924.744.256.328.452.736.588 1.224.144.488.216 1.056.216 1.704 0 .648-.072 1.22-.216 1.716-.136.496-.332.912-.588 1.248-.256.336-.564.592-.924.768-.36.168-.76.252-1.2.252zm0-6.54c-.192 0-.372.04-.54.12-.16.08-.3.22-.42.42-.12.192-.216.452-.288.78-.072.328-.108.74-.108 1.236s.036.912.108 1.248c.072.328.168.596.288.804.12.2.26.344.42.432.168.088.348.132.54.132.192 0 .368-.044.528-.132.168-.088.312-.232.432-.432.12-.208.216-.476.288-.804.072-.336.108-.752.108-1.248s-.036-.908-.108-1.236c-.072-.328-.168-.588-.288-.78-.12-.2-.264-.34-.432-.42-.16-.08-.336-.12-.528-.12zm0 3.444c-.256 0-.472-.08-.648-.24-.168-.168-.252-.392-.252-.672s.084-.5.252-.66c.176-.168.392-.252.648-.252s.468.084.636.252c.176.16.264.38.264.66s-.088.504-.264.672c-.168.16-.38.24-.636.24z"/>
    <path fill="url(#prefix__paint27_linear)" d="M223.621 154.52h5.52v1.248h-5.52v-1.248z"/>
    <path fill="url(#prefix__paint28_linear)" d="M233.577 159.248c-.44 0-.84-.084-1.2-.252-.36-.176-.668-.432-.924-.768s-.456-.752-.6-1.248c-.136-.496-.204-1.068-.204-1.716 0-.648.068-1.216.204-1.704.144-.488.344-.896.6-1.224.256-.336.564-.584.924-.744.36-.168.76-.252 1.2-.252.44 0 .84.084 1.2.252.36.16.668.408.924.744.256.328.452.736.588 1.224.144.488.216 1.056.216 1.704 0 .648-.072 1.22-.216 1.716-.136.496-.332.912-.588 1.248-.256.336-.564.592-.924.768-.36.168-.76.252-1.2.252zm0-6.54c-.192 0-.372.04-.54.12-.16.08-.3.22-.42.42-.12.192-.216.452-.288.78-.072.328-.108.74-.108 1.236s.036.912.108 1.248c.072.328.168.596.288.804.12.2.26.344.42.432.168.088.348.132.54.132.192 0 .368-.044.528-.132.168-.088.312-.232.432-.432.12-.208.216-.476.288-.804.072-.336.108-.752.108-1.248s-.036-.908-.108-1.236c-.072-.328-.168-.588-.288-.78-.12-.2-.264-.34-.432-.42-.16-.08-.336-.12-.528-.12zm0 3.444c-.256 0-.472-.08-.648-.24-.168-.168-.252-.392-.252-.672s.084-.5.252-.66c.176-.168.392-.252.648-.252s.468.084.636.252c.176.16.264.38.264.66s-.088.504-.264.672c-.168.16-.38.24-.636.24z"/>
    <path fill="url(#prefix__paint29_linear)" d="M238.516 157.064c.256.208.528.388.816.54.296.144.624.216.984.216.432 0 .784-.1 1.056-.3.28-.2.42-.496.42-.888 0-.384-.132-.676-.396-.876-.256-.2-.588-.3-.996-.3-.128 0-.244.008-.348.024-.096.008-.192.028-.288.06-.096.032-.196.072-.3.12-.104.048-.22.108-.348.18l-.78-.504.204-3.852h4.668v1.488h-3.144l-.132 1.428c.176-.064.34-.108.492-.132.152-.032.324-.048.516-.048.352 0 .684.048.996.144.32.096.6.24.84.432s.428.436.564.732c.144.296.216.648.216 1.056 0 .424-.084.8-.252 1.128-.16.328-.38.608-.66.84-.272.224-.588.396-.948.516s-.736.18-1.128.18c-.664 0-1.228-.1-1.692-.3-.456-.208-.84-.464-1.152-.768l.792-1.116z"/>
    <path fill="url(#prefix__paint30_linear)" d="M245.207 154.52h5.52v1.248h-5.52v-1.248z"/>
    <path fill="url(#prefix__paint31_linear)" d="M255.162 159.248c-.44 0-.839-.084-1.199-.252-.36-.176-.668-.432-.924-.768s-.456-.752-.601-1.248c-.136-.496-.203-1.068-.203-1.716 0-.648.067-1.216.203-1.704.145-.488.345-.896.601-1.224.256-.336.564-.584.924-.744.36-.168.759-.252 1.199-.252.44 0 .84.084 1.2.252.36.16.668.408.924.744.256.328.452.736.589 1.224.144.488.215 1.056.215 1.704 0 .648-.071 1.22-.215 1.716-.137.496-.333.912-.589 1.248-.256.336-.564.592-.924.768-.36.168-.76.252-1.2.252zm0-6.54c-.192 0-.371.04-.539.12-.16.08-.301.22-.421.42-.119.192-.216.452-.287.78-.072.328-.109.74-.109 1.236s.037.912.109 1.248c.071.328.168.596.287.804.12.2.261.344.421.432.168.088.347.132.539.132.192 0 .368-.044.528-.132.168-.088.313-.232.433-.432.12-.208.216-.476.287-.804.072-.336.109-.752.109-1.248s-.037-.908-.109-1.236c-.071-.328-.167-.588-.287-.78-.12-.2-.265-.34-.433-.42-.16-.08-.336-.12-.528-.12zm0 3.444c-.256 0-.472-.08-.648-.24-.167-.168-.251-.392-.251-.672s.084-.5.251-.66c.176-.168.392-.252.648-.252s.469.084.637.252c.175.16.263.38.263.66s-.088.504-.263.672c-.168.16-.381.24-.637.24z"/>
    <path fill="url(#prefix__paint32_linear)" d="M265.202 157.676v1.428h-5.46v-1.428h1.968v-4.404h-1.572v-1.092c.448-.08.828-.176 1.14-.288.32-.112.62-.248.9-.408h1.296v6.192h1.728z"/>
    <path fill="url(#prefix__paint33_linear)" d="M268.665 152.768h-2.34v-1.488h6.456v1.488h-2.34v6.336h-1.776v-6.336z"/>
    <path fill="url(#prefix__paint34_linear)" d="M279.592 157.676v1.428h-5.46v-1.428h1.968v-4.404h-1.572v-1.092c.448-.08.828-.176 1.14-.288.32-.112.62-.248.9-.408h1.296v6.192h1.728z"/>
    <path fill="url(#prefix__paint35_linear)" d="M197.384 173c.224 0 .456-.056.696-.168.24-.112.476-.309.708-.589-.048-.296-.12-.543-.216-.743-.088-.208-.196-.373-.324-.493-.12-.127-.252-.215-.396-.264-.144-.055-.292-.083-.444-.083-.152 0-.3.023-.444.071-.136.048-.26.125-.372.229-.104.096-.188.223-.252.383-.064.152-.096.337-.096.553 0 .391.104.676.312.852.208.168.484.252.828.252zm-1.704 2.28c.16.144.36.272.6.384.24.104.488.156.744.156.232 0 .452-.04.66-.12.216-.089.404-.224.564-.408.168-.192.304-.44.408-.744.104-.312.164-.692.18-1.14-.28.264-.588.472-.924.624-.328.144-.632.216-.912.216-.336 0-.648-.048-.936-.144-.288-.097-.54-.24-.756-.432-.208-.193-.372-.436-.492-.733-.12-.296-.18-.643-.18-1.043 0-.392.072-.744.216-1.056.152-.32.352-.593.6-.817.256-.224.548-.391.876-.503.328-.12.676-.18 1.044-.18.392 0 .772.072 1.14.216.376.144.708.368.996.672.288.304.516.696.684 1.176.176.472.264 1.043.264 1.715 0 .713-.092 1.328-.276 1.848-.184.52-.428.949-.732 1.285-.304.336-.656.588-1.056.755-.392.16-.796.241-1.212.241-.544 0-1.02-.092-1.428-.276-.408-.184-.744-.396-1.008-.636l.936-1.056z"/>
    <path fill="url(#prefix__paint36_linear)" d="M203.403 171.967c0-.2.032-.383.096-.551.072-.176.168-.328.288-.456.12-.128.264-.229.432-.3.176-.072.368-.109.576-.109.208 0 .396.037.564.109.176.071.324.172.444.3s.212.28.276.456c.072.168.108.351.108.551 0 .401-.128.737-.384 1.009-.256.264-.592.396-1.008.396-.416 0-.752-.132-1.008-.396-.256-.272-.384-.608-.384-1.009zm0 3.877c0-.2.032-.384.096-.552.072-.176.168-.328.288-.456.12-.128.264-.229.432-.301.176-.071.368-.107.576-.107.208 0 .396.036.564.107.176.072.324.173.444.301s.212.28.276.456c.072.168.108.352.108.552 0 .4-.128.736-.384 1.008-.256.264-.592.396-1.008.396-.416 0-.752-.132-1.008-.396-.256-.272-.384-.608-.384-1.008z"/>
    <path fill="url(#prefix__paint37_linear)" d="M209.711 175.051c.256.224.54.408.852.553.32.144.656.216 1.008.216.416 0 .756-.077 1.02-.229.272-.16.408-.383.408-.671 0-.168-.036-.32-.108-.456-.072-.137-.196-.248-.372-.336-.176-.096-.412-.169-.708-.217-.296-.056-.668-.084-1.116-.084v-1.247c.752 0 1.28-.092 1.584-.276.312-.192.468-.44.468-.744 0-.264-.1-.468-.3-.612-.2-.152-.476-.228-.828-.228-.304 0-.584.06-.84.18s-.516.284-.78.492l-.888-1.08c.376-.305.776-.541 1.2-.708.432-.176.896-.264 1.392-.264.416 0 .796.048 1.14.144.344.088.64.224.888.408.248.176.44.392.576.648.136.256.204.552.204.888 0 .4-.128.74-.384 1.02-.256.272-.612.496-1.068.671v.049c.48.128.884.347 1.212.659.328.305.492.705.492 1.201 0 .352-.084.668-.252.948-.16.272-.38.503-.66.696-.272.183-.592.328-.96.432-.368.096-.752.144-1.152.144-.656 0-1.22-.096-1.692-.288-.472-.2-.856-.464-1.152-.792l.816-1.117z"/>
    <path fill="url(#prefix__paint38_linear)" d="M216.282 176.096c.544-.456 1.04-.881 1.488-1.272.448-.4.832-.772 1.152-1.116.32-.344.568-.668.744-.972.176-.304.264-.592.264-.864 0-.376-.108-.66-.324-.852-.216-.201-.524-.3-.924-.3-.304 0-.584.08-.84.24-.248.152-.48.332-.696.54l-.948-.949c.2-.2.396-.376.588-.528.2-.152.408-.275.624-.371.224-.104.456-.18.696-.228.248-.056.52-.084.816-.084.4 0 .764.06 1.092.18.328.112.608.276.84.492.24.208.424.46.552.756.136.296.204.628.204.996 0 .32-.076.648-.228.984-.152.328-.36.66-.624.995-.256.328-.552.661-.888.997-.336.328-.688.652-1.056.972.216-.024.448-.044.696-.06.256-.024.484-.036.684-.036h1.812v1.488h-5.724v-1.008z"/>
    <path fill="url(#prefix__paint39_linear)" d="M224.989 171.967c0-.2.032-.383.096-.551.072-.176.168-.328.288-.456.12-.128.264-.229.432-.3.176-.072.368-.109.576-.109.208 0 .396.037.564.109.176.071.324.172.444.3s.212.28.276.456c.072.168.108.351.108.551 0 .401-.128.737-.384 1.009-.256.264-.592.396-1.008.396-.416 0-.752-.132-1.008-.396-.256-.272-.384-.608-.384-1.009zm0 3.877c0-.2.032-.384.096-.552.072-.176.168-.328.288-.456.12-.128.264-.229.432-.301.176-.071.368-.107.576-.107.208 0 .396.036.564.107.176.072.324.173.444.301s.212.28.276.456c.072.168.108.352.108.552 0 .4-.128.736-.384 1.008-.256.264-.592.396-1.008.396-.416 0-.752-.132-1.008-.396-.256-.272-.384-.608-.384-1.008z"/>
    <path fill="url(#prefix__paint40_linear)" d="M234.069 173.936v-1.284c0-.24.004-.516.012-.828.016-.32.032-.6.048-.84h-.048c-.128.216-.264.432-.408.648-.144.215-.284.432-.42.648l-1.152 1.656h1.968zm2.604 1.344h-.96v1.824h-1.644v-1.824h-3.672v-1.212l3.18-4.584h2.136v4.452h.96v1.344z"/>
    <path fill="url(#prefix__paint41_linear)" d="M237.868 176.096c.544-.456 1.04-.881 1.488-1.272.448-.4.832-.772 1.152-1.116.32-.344.568-.668.744-.972.176-.304.264-.592.264-.864 0-.376-.108-.66-.324-.852-.216-.201-.524-.3-.924-.3-.304 0-.584.08-.84.24-.248.152-.48.332-.696.54l-.948-.949c.2-.2.396-.376.588-.528.2-.152.408-.275.624-.371.224-.104.456-.18.696-.228.248-.056.52-.084.816-.084.4 0 .764.06 1.092.18.328.112.608.276.84.492.24.208.424.46.552.756.136.296.204.628.204.996 0 .32-.076.648-.228.984-.152.328-.36.66-.624.995-.256.328-.552.661-.888.997-.336.328-.688.652-1.056.972.216-.024.448-.044.696-.06.256-.024.484-.036.684-.036h1.812v1.488h-5.724v-1.008z"/>
    <path fill="url(#prefix__paint42_linear)" d="M245.039 176.035l3.672-5.279h-3.324v-1.476h5.496v1.068l-3.66 5.268h3.708v1.488h-5.892v-1.069z"/>
    <path fill="url(#prefix__paint43_linear)" d="M252.403 172.688c.84-.376 1.288-.932 1.344-1.668-.088.024-.169.036-.24.036-.328 0-.597-.1-.805-.3-.2-.2-.299-.469-.299-.805 0-.368.108-.659.324-.875.216-.224.492-.336.828-.336.456 0 .803.171 1.043.516.241.335.36.804.36 1.404 0 .655-.171 1.236-.515 1.74-.345.496-.869.904-1.573 1.224l-.467-.936zm3.18 0c.84-.376 1.287-.932 1.343-1.668-.088.024-.168.036-.239.036-.328 0-.597-.1-.805-.3-.2-.2-.299-.469-.299-.805 0-.368.108-.659.324-.875.216-.224.492-.336.828-.336.456 0 .803.171 1.043.516.241.335.361.804.361 1.404 0 .655-.172 1.236-.516 1.74-.344.496-.869.904-1.573 1.224l-.467-.936z"/>
    <path fill="url(#prefix__paint44_linear)" fill-rule="evenodd" d="M187.403 116.647l104.757-.097.006 8.572-104.755.097-.008-8.572z" clip-rule="evenodd"/>
    <path fill="#fff" fill-rule="evenodd" d="M200.253 121.203c0 .622-.502 1.126-1.123 1.126-.62 0-1.122-.502-1.124-1.123 0-.62.502-1.124 1.121-1.124.622-.002 1.124.502 1.126 1.121zM193.51 121.203c0 .622-.501 1.126-1.125 1.126-.62 0-1.123-.502-1.123-1.123-.002-.62.501-1.124 1.121-1.124.624-.002 1.127.502 1.127 1.121zM207.317 121.203c.003.622-.5 1.126-1.122 1.126-.622 0-1.125-.502-1.125-1.123 0-.62.5-1.124 1.123-1.124.622-.002 1.124.502 1.124 1.121z" clip-rule="evenodd"/>
    <path fill="url(#prefix__paint45_linear)" fill-rule="evenodd" d="M359.018 172.432l1.779 18.057c.147 1.492 1.173 2.615 2.394 2.615h19.778c1.23 0 2.262-1.141 2.399-2.647l1.617-18.057c.157-1.76-.963-3.296-2.398-3.296h-23.175c-1.448 0-2.568 1.558-2.394 3.328z" clip-rule="evenodd"/>
    <path fill="url(#prefix__paint46_linear)" fill-rule="evenodd" stroke="url(#prefix__paint47_linear)" stroke-width="2" d="M388.11 126.061s6.944-19.472 12.408-17.864c5.464 1.609 2.834 13.721-12.408 17.864z" clip-rule="evenodd"/>
    <path fill="url(#prefix__paint48_linear)" fill-rule="evenodd" d="M372.994 168.521s-4.853-19.75-13.1-16.527c-8.249 3.222 13.1 16.527 13.1 16.527z" clip-rule="evenodd"/>
    <path stroke="url(#prefix__paint49_linear)" stroke-width="2" d="M372.994 168.521s-4.853-19.75-13.1-16.527c-8.249 3.222 13.1 16.527 13.1 16.527"/>
    <path fill="url(#prefix__paint50_linear)" fill-rule="evenodd" d="M377.582 149.395s-4.852-19.821-13.102-16.587c-8.254 3.234 13.102 16.587 13.102 16.587z" clip-rule="evenodd"/>
    <path stroke="url(#prefix__paint51_linear)" stroke-width="2" d="M377.582 149.395s-4.852-19.821-13.102-16.587c-8.254 3.234 13.102 16.587 13.102 16.587"/>
    <path fill="url(#prefix__paint52_linear)" fill-rule="evenodd" d="M385.915 129.257s-4.852-19.821-13.102-16.587c-8.254 3.235 13.102 16.587 13.102 16.587z" clip-rule="evenodd"/>
    <path stroke="url(#prefix__paint53_linear)" stroke-width="2" d="M385.915 129.257s-4.852-19.821-13.102-16.587c-8.254 3.235 13.102 16.587 13.102 16.587"/>
    <path fill="url(#prefix__paint54_linear)" fill-rule="evenodd" d="M374.249 164.672s11.421-15.989 16.178-15.252c4.759.732 7.138 7.006-16.178 15.252z" clip-rule="evenodd"/>
    <path stroke="url(#prefix__paint55_linear)" stroke-width="2" d="M374.249 164.672s11.421-15.989 16.178-15.252c4.759.732 7.138 7.006-16.178 15.252"/>
    <path fill="url(#prefix__paint56_linear)" fill-rule="evenodd" d="M379.527 145.367s11.419-15.986 16.176-15.252c4.761.734 7.14 7.005-16.176 15.252z" clip-rule="evenodd"/>
    <path stroke="url(#prefix__paint57_linear)" stroke-width="2" d="M379.527 145.367s11.419-15.986 16.176-15.252c4.761.734 7.14 7.005-16.176 15.252"/>
    <path stroke="url(#prefix__paint58_linear)" stroke-linecap="round" stroke-width="2" d="M373.074 168.907l.93-4.418 1.565-7.43 1.909-6.388 1.701-5.417 5.902-14c.047-.11.103-.216.169-.316l.943-1.445 2.222-3.404"/>
    <path fill="url(#prefix__paint59_linear)" d="M115 116.104c0-1.105.895-2 2-2h10c1.105 0 2 .895 2 2v76c0 1.104-.895 2-2 2h-10c-1.105 0-2-.896-2-2v-76z"/>
    <path fill="url(#prefix__paint60_linear)" d="M128.893 122.527c-.038-1.104.825-2.03 1.929-2.068l10.017-.35c1.095-.038 2.017.811 2.068 1.905l1.196 25.59 1.233 44.246c.031 1.098-.831 2.016-1.929 2.054l-10.008.35c-1.104.038-2.03-.825-2.069-1.929l-.566-16.221-.97-27.788-.901-25.789z"/>
    <path fill="url(#prefix__paint61_linear)" d="M101.185 127.084c.154-1.094 1.165-1.856 2.259-1.702l9.903 1.392c1.094.153 1.856 1.165 1.702 2.258l-4.453 31.689-4.454 31.689c-.154 1.093-1.165 1.856-2.259 1.702l-9.902-1.392c-1.094-.154-1.856-1.165-1.703-2.259l4.454-31.688 4.453-31.689z"/>
    <rect width="7" height="36" x="40.055" y="152.386" fill="url(#prefix__paint62_linear)" rx="3" transform="rotate(-20 40.055 152.386)"/>
    <path fill="url(#prefix__paint63_linear)" d="M50.238 155.125c-.19-1.074.528-2.098 1.602-2.287.633-.112 1.28.092 1.736.546l1.224 1.22 1.273 1.387c.379.412.634.921.738 1.471l.689 3.642 1.43 8.761 2.605 14.772c.287 1.632-.802 3.188-2.434 3.476-1.632.287-3.188-.802-3.475-2.434l-5.388-30.554z"/>
    <rect width="27" height="31" x="40" y="193.104" fill="url(#prefix__paint64_linear)" rx="2" transform="rotate(-90 40 193.104)"/>
    <defs>
        <linearGradient id="prefix__paint0_linear" x1="341" x2="341" y1="0" y2="256" gradientUnits="userSpaceOnUse">
            <stop stop-color="#E6F7FF"/>
            <stop offset="1" stop-color="#C3D4FA"/>
        </linearGradient>
        <linearGradient id="prefix__paint1_linear" x1="75.712" x2="75.712" y1="303.725" y2="314.269" gradientUnits="userSpaceOnUse">
            <stop stop-color="#576877"/>
            <stop offset="1" stop-color="#6B8091"/>
        </linearGradient>
        <linearGradient id="prefix__paint2_linear" x1="402.601" x2="402.601" y1="303.725" y2="314.269" gradientUnits="userSpaceOnUse">
            <stop stop-color="#576877"/>
            <stop offset="1" stop-color="#6B8091"/>
        </linearGradient>
        <linearGradient id="prefix__paint3_linear" x1="240" x2="240" y1="193.104" y2="203.104" gradientUnits="userSpaceOnUse">
            <stop stop-color="#4A5F6E"/>
            <stop offset="1" stop-color="#2B414E"/>
        </linearGradient>
        <linearGradient id="prefix__paint4_linear" x1="74.446" x2="74.446" y1="203.104" y2="212.104" gradientUnits="userSpaceOnUse">
            <stop stop-color="#576877"/>
            <stop offset="1" stop-color="#6B8091"/>
        </linearGradient>
        <linearGradient id="prefix__paint5_linear" x1="49.35" x2="49.35" y1="212.196" y2="332.407" gradientUnits="userSpaceOnUse">
            <stop stop-color="#4A5F6E"/>
            <stop offset="1" stop-color="#2B414E"/>
        </linearGradient>
        <linearGradient id="prefix__paint6_linear" x1="100.387" x2="100.387" y1="212.196" y2="332.407" gradientUnits="userSpaceOnUse">
            <stop stop-color="#4A5F6E"/>
            <stop offset="1" stop-color="#2B414E"/>
        </linearGradient>
        <linearGradient id="prefix__paint7_linear" x1="401.342" x2="401.342" y1="203.104" y2="212.104" gradientUnits="userSpaceOnUse">
            <stop stop-color="#576877"/>
            <stop offset="1" stop-color="#6B8091"/>
        </linearGradient>
        <linearGradient id="prefix__paint8_linear" x1="376.104" x2="376.104" y1="212.127" y2="332.407" gradientUnits="userSpaceOnUse">
            <stop stop-color="#4A5F6E"/>
            <stop offset="1" stop-color="#2B414E"/>
        </linearGradient>
        <linearGradient id="prefix__paint9_linear" x1="427.276" x2="427.276" y1="212.127" y2="332.407" gradientUnits="userSpaceOnUse">
            <stop stop-color="#4A5F6E"/>
            <stop offset="1" stop-color="#2B414E"/>
        </linearGradient>
        <linearGradient id="prefix__paint10_linear" x1="307" x2="186.5" y1="184" y2="199" gradientUnits="userSpaceOnUse">
            <stop stop-color="#fff"/>
            <stop offset="1" stop-color="#D5DFE6"/>
        </linearGradient>
        <linearGradient id="prefix__paint11_linear" x1="296" x2="183" y1="114" y2="188" gradientUnits="userSpaceOnUse">
            <stop stop-color="#fff"/>
            <stop offset="1" stop-color="#D5DFE6"/>
        </linearGradient>
        <linearGradient id="prefix__paint12_linear" x1="200" x2="281.5" y1="134.5" y2="177" gradientUnits="userSpaceOnUse">
            <stop/>
            <stop offset="1" stop-color="#4A5F6E"/>
        </linearGradient>
        <linearGradient id="prefix__paint13_linear" x1="200" x2="281.5" y1="134.5" y2="177" gradientUnits="userSpaceOnUse">
            <stop/>
            <stop offset="1" stop-color="#4A5F6E"/>
        </linearGradient>
        <linearGradient id="prefix__paint14_linear" x1="200" x2="281.5" y1="134.5" y2="177" gradientUnits="userSpaceOnUse">
            <stop/>
            <stop offset="1" stop-color="#4A5F6E"/>
        </linearGradient>
        <linearGradient id="prefix__paint15_linear" x1="200" x2="281.5" y1="134.5" y2="177" gradientUnits="userSpaceOnUse">
            <stop/>
            <stop offset="1" stop-color="#4A5F6E"/>
        </linearGradient>
        <linearGradient id="prefix__paint16_linear" x1="200" x2="281.5" y1="134.5" y2="177" gradientUnits="userSpaceOnUse">
            <stop/>
            <stop offset="1" stop-color="#4A5F6E"/>
        </linearGradient>
        <linearGradient id="prefix__paint17_linear" x1="200" x2="281.5" y1="134.5" y2="177" gradientUnits="userSpaceOnUse">
            <stop/>
            <stop offset="1" stop-color="#4A5F6E"/>
        </linearGradient>
        <linearGradient id="prefix__paint18_linear" x1="200" x2="281.5" y1="134.5" y2="177" gradientUnits="userSpaceOnUse">
            <stop/>
            <stop offset="1" stop-color="#4A5F6E"/>
        </linearGradient>
        <linearGradient id="prefix__paint19_linear" x1="200" x2="281.5" y1="134.5" y2="177" gradientUnits="userSpaceOnUse">
            <stop/>
            <stop offset="1" stop-color="#4A5F6E"/>
        </linearGradient>
        <linearGradient id="prefix__paint20_linear" x1="200" x2="281.5" y1="134.5" y2="177" gradientUnits="userSpaceOnUse">
            <stop/>
            <stop offset="1" stop-color="#4A5F6E"/>
        </linearGradient>
        <linearGradient id="prefix__paint21_linear" x1="200" x2="281.5" y1="134.5" y2="177" gradientUnits="userSpaceOnUse">
            <stop/>
            <stop offset="1" stop-color="#4A5F6E"/>
        </linearGradient>
        <linearGradient id="prefix__paint22_linear" x1="200" x2="281.5" y1="134.5" y2="177" gradientUnits="userSpaceOnUse">
            <stop/>
            <stop offset="1" stop-color="#4A5F6E"/>
        </linearGradient>
        <linearGradient id="prefix__paint23_linear" x1="200" x2="281.5" y1="134.5" y2="177" gradientUnits="userSpaceOnUse">
            <stop/>
            <stop offset="1" stop-color="#4A5F6E"/>
        </linearGradient>
        <linearGradient id="prefix__paint24_linear" x1="200" x2="281.5" y1="134.5" y2="177" gradientUnits="userSpaceOnUse">
            <stop/>
            <stop offset="1" stop-color="#4A5F6E"/>
        </linearGradient>
        <linearGradient id="prefix__paint25_linear" x1="200" x2="281.5" y1="134.5" y2="177" gradientUnits="userSpaceOnUse">
            <stop/>
            <stop offset="1" stop-color="#4A5F6E"/>
        </linearGradient>
        <linearGradient id="prefix__paint26_linear" x1="200" x2="281.5" y1="134.5" y2="177" gradientUnits="userSpaceOnUse">
            <stop/>
            <stop offset="1" stop-color="#4A5F6E"/>
        </linearGradient>
        <linearGradient id="prefix__paint27_linear" x1="200" x2="281.5" y1="134.5" y2="177" gradientUnits="userSpaceOnUse">
            <stop/>
            <stop offset="1" stop-color="#4A5F6E"/>
        </linearGradient>
        <linearGradient id="prefix__paint28_linear" x1="200" x2="281.5" y1="134.5" y2="177" gradientUnits="userSpaceOnUse">
            <stop/>
            <stop offset="1" stop-color="#4A5F6E"/>
        </linearGradient>
        <linearGradient id="prefix__paint29_linear" x1="200" x2="281.5" y1="134.5" y2="177" gradientUnits="userSpaceOnUse">
            <stop/>
            <stop offset="1" stop-color="#4A5F6E"/>
        </linearGradient>
        <linearGradient id="prefix__paint30_linear" x1="200" x2="281.5" y1="134.5" y2="177" gradientUnits="userSpaceOnUse">
            <stop/>
            <stop offset="1" stop-color="#4A5F6E"/>
        </linearGradient>
        <linearGradient id="prefix__paint31_linear" x1="200" x2="281.5" y1="134.5" y2="177" gradientUnits="userSpaceOnUse">
            <stop/>
            <stop offset="1" stop-color="#4A5F6E"/>
        </linearGradient>
        <linearGradient id="prefix__paint32_linear" x1="200" x2="281.5" y1="134.5" y2="177" gradientUnits="userSpaceOnUse">
            <stop/>
            <stop offset="1" stop-color="#4A5F6E"/>
        </linearGradient>
        <linearGradient id="prefix__paint33_linear" x1="200" x2="281.5" y1="134.5" y2="177" gradientUnits="userSpaceOnUse">
            <stop/>
            <stop offset="1" stop-color="#4A5F6E"/>
        </linearGradient>
        <linearGradient id="prefix__paint34_linear" x1="200" x2="281.5" y1="134.5" y2="177" gradientUnits="userSpaceOnUse">
            <stop/>
            <stop offset="1" stop-color="#4A5F6E"/>
        </linearGradient>
        <linearGradient id="prefix__paint35_linear" x1="200" x2="281.5" y1="134.5" y2="177" gradientUnits="userSpaceOnUse">
            <stop/>
            <stop offset="1" stop-color="#4A5F6E"/>
        </linearGradient>
        <linearGradient id="prefix__paint36_linear" x1="200" x2="281.5" y1="134.5" y2="177" gradientUnits="userSpaceOnUse">
            <stop/>
            <stop offset="1" stop-color="#4A5F6E"/>
        </linearGradient>
        <linearGradient id="prefix__paint37_linear" x1="200" x2="281.5" y1="134.5" y2="177" gradientUnits="userSpaceOnUse">
            <stop/>
            <stop offset="1" stop-color="#4A5F6E"/>
        </linearGradient>
        <linearGradient id="prefix__paint38_linear" x1="200" x2="281.5" y1="134.5" y2="177" gradientUnits="userSpaceOnUse">
            <stop/>
            <stop offset="1" stop-color="#4A5F6E"/>
        </linearGradient>
        <linearGradient id="prefix__paint39_linear" x1="200" x2="281.5" y1="134.5" y2="177" gradientUnits="userSpaceOnUse">
            <stop/>
            <stop offset="1" stop-color="#4A5F6E"/>
        </linearGradient>
        <linearGradient id="prefix__paint40_linear" x1="200" x2="281.5" y1="134.5" y2="177" gradientUnits="userSpaceOnUse">
            <stop/>
            <stop offset="1" stop-color="#4A5F6E"/>
        </linearGradient>
        <linearGradient id="prefix__paint41_linear" x1="200" x2="281.5" y1="134.5" y2="177" gradientUnits="userSpaceOnUse">
            <stop/>
            <stop offset="1" stop-color="#4A5F6E"/>
        </linearGradient>
        <linearGradient id="prefix__paint42_linear" x1="200" x2="281.5" y1="134.5" y2="177" gradientUnits="userSpaceOnUse">
            <stop/>
            <stop offset="1" stop-color="#4A5F6E"/>
        </linearGradient>
        <linearGradient id="prefix__paint43_linear" x1="200" x2="281.5" y1="134.5" y2="177" gradientUnits="userSpaceOnUse">
            <stop/>
            <stop offset="1" stop-color="#4A5F6E"/>
        </linearGradient>
        <linearGradient id="prefix__paint44_linear" x1="221" x2="291" y1="116" y2="124" gradientUnits="userSpaceOnUse">
            <stop stop-color="#152934"/>
            <stop offset="1" stop-color="#4A5F6E"/>
        </linearGradient>
        <linearGradient id="prefix__paint45_linear" x1="377" x2="365" y1="191.5" y2="169" gradientUnits="userSpaceOnUse">
            <stop stop-color="#F8FAFB"/>
            <stop offset="1" stop-color="#fff"/>
        </linearGradient>
        <linearGradient id="prefix__paint46_linear" x1="395.621" x2="395.621" y1="108.102" y2="126.061" gradientUnits="userSpaceOnUse">
            <stop stop-color="#1ACC94"/>
            <stop offset="1" stop-color="#3FAA7D"/>
        </linearGradient>
        <linearGradient id="prefix__paint47_linear" x1="395.621" x2="395.621" y1="108.102" y2="126.061" gradientUnits="userSpaceOnUse">
            <stop stop-color="#1ACC94"/>
            <stop offset="1" stop-color="#3FAA7D"/>
        </linearGradient>
        <linearGradient id="prefix__paint48_linear" x1="365.496" x2="365.496" y1="151.638" y2="168.521" gradientUnits="userSpaceOnUse">
            <stop stop-color="#1ACC94"/>
            <stop offset="1" stop-color="#3FAA7D"/>
        </linearGradient>
        <linearGradient id="prefix__paint49_linear" x1="365.496" x2="365.496" y1="151.638" y2="168.521" gradientUnits="userSpaceOnUse">
            <stop stop-color="#1ACC94"/>
            <stop offset="1" stop-color="#3FAA7D"/>
        </linearGradient>
        <linearGradient id="prefix__paint50_linear" x1="370.083" x2="370.083" y1="132.451" y2="149.395" gradientUnits="userSpaceOnUse">
            <stop stop-color="#1ACC94"/>
            <stop offset="1" stop-color="#3FAA7D"/>
        </linearGradient>
        <linearGradient id="prefix__paint51_linear" x1="370.083" x2="370.083" y1="132.451" y2="149.395" gradientUnits="userSpaceOnUse">
            <stop stop-color="#1ACC94"/>
            <stop offset="1" stop-color="#3FAA7D"/>
        </linearGradient>
        <linearGradient id="prefix__paint52_linear" x1="378.416" x2="378.416" y1="112.314" y2="129.257" gradientUnits="userSpaceOnUse">
            <stop stop-color="#1ACC94"/>
            <stop offset="1" stop-color="#3FAA7D"/>
        </linearGradient>
        <linearGradient id="prefix__paint53_linear" x1="378.416" x2="378.416" y1="112.314" y2="129.257" gradientUnits="userSpaceOnUse">
            <stop stop-color="#1ACC94"/>
            <stop offset="1" stop-color="#3FAA7D"/>
        </linearGradient>
        <linearGradient id="prefix__paint54_linear" x1="383.901" x2="383.901" y1="149.395" y2="164.672" gradientUnits="userSpaceOnUse">
            <stop stop-color="#1ACC94"/>
            <stop offset="1" stop-color="#3FAA7D"/>
        </linearGradient>
        <linearGradient id="prefix__paint55_linear" x1="383.901" x2="383.901" y1="149.395" y2="164.672" gradientUnits="userSpaceOnUse">
            <stop stop-color="#1ACC94"/>
            <stop offset="1" stop-color="#3FAA7D"/>
        </linearGradient>
        <linearGradient id="prefix__paint56_linear" x1="389.179" x2="389.179" y1="130.091" y2="145.367" gradientUnits="userSpaceOnUse">
            <stop stop-color="#1ACC94"/>
            <stop offset="1" stop-color="#3FAA7D"/>
        </linearGradient>
        <linearGradient id="prefix__paint57_linear" x1="389.179" x2="389.179" y1="130.091" y2="145.367" gradientUnits="userSpaceOnUse">
            <stop stop-color="#1ACC94"/>
            <stop offset="1" stop-color="#3FAA7D"/>
        </linearGradient>
        <linearGradient id="prefix__paint58_linear" x1="378.617" x2="381.714" y1="146.623" y2="147.897" gradientUnits="userSpaceOnUse">
            <stop stop-color="#1ACC94"/>
            <stop offset="1" stop-color="#3FAA7D"/>
        </linearGradient>
        <linearGradient id="prefix__paint59_linear" x1="129" x2="115" y1="131" y2="194" gradientUnits="userSpaceOnUse">
            <stop stop-color="#EEF2F5"/>
            <stop offset="1" stop-color="#C4CDD5"/>
        </linearGradient>
        <linearGradient id="prefix__paint60_linear" x1="148.5" x2="132.5" y1="152.5" y2="194" gradientUnits="userSpaceOnUse">
            <stop stop-color="#EEF2F5"/>
            <stop offset="1" stop-color="#C4CDD5"/>
        </linearGradient>
        <linearGradient id="prefix__paint61_linear" x1="115" x2="92" y1="139.5" y2="190" gradientUnits="userSpaceOnUse">
            <stop stop-color="#EEF2F5"/>
            <stop offset="1" stop-color="#C4CDD5"/>
        </linearGradient>
        <linearGradient id="prefix__paint62_linear" x1="43.555" x2="43.555" y1="152.386" y2="188.386" gradientUnits="userSpaceOnUse">
            <stop stop-color="#1D4BEA"/>
            <stop offset="1" stop-color="#326BEE"/>
        </linearGradient>
        <linearGradient id="prefix__paint63_linear" x1="52.906" x2="59.157" y1="152.65" y2="188.103" gradientUnits="userSpaceOnUse">
            <stop stop-color="#1ACC94"/>
            <stop offset="1" stop-color="#3FAA7D"/>
        </linearGradient>
        <linearGradient id="prefix__paint64_linear" x1="40.104" x2="60.604" y1="197.604" y2="221.604" gradientUnits="userSpaceOnUse">
            <stop stop-color="#C4CDD5"/>
            <stop offset="1" stop-color="#EEF2F5"/>
        </linearGradient>
    </defs>
</svg>
