<svg width="622" height="489" viewBox="0 0 622 489" fill="none" xmlns="http://www.w3.org/2000/svg">
<mask id="mask0" mask-type="alpha" maskUnits="userSpaceOnUse" x="100" y="0" width="489" height="488">
<circle cx="345" cy="244" r="244" fill="#152934"/>
</mask>
<g mask="url(#mask0)">
<circle cx="345" cy="244" r="244" fill="url(#paint0_linear)"/>
<path d="M202.001 61.9592C207.201 58.3592 215.5 39.5 219 31.5C244.435 16.0746 309.359 -11.8241 366.332 -1.98946C367 -2.03698 367.88 -1.88183 369 -1.50002C368.113 -1.67253 367.223 -1.83561 366.332 -1.98946C353.888 -1.10353 415.387 70.221 376 56.4592C334.5 41.9592 376 84.4996 348.5 80.9592C338.922 79.7261 323 94.4592 316.5 100.959C310 107.459 324.5 119.5 319.5 125.459C316.735 128.754 301.281 109.711 299.5 103.959C297.5 97.4996 280 102.959 261.5 100.959C243 98.9592 244.5 147.459 253 154.459C261.5 161.459 273.5 151.5 281.5 157C289.5 162.5 283 160.459 280 165.959C277 171.459 311 185.459 327 197.459C343 209.459 355.5 165.959 396.5 185.459C437.5 204.959 491 245.459 519 276.959C547 308.459 359 463.459 348.5 468.959C338 474.459 348.5 455.459 348.5 442.459C348.5 429.459 387 329.459 363 327.459C339 325.459 327.5 293.959 311 263.959C294.5 233.959 341.5 242.459 323 211.959C304.5 181.459 278 183.459 269.5 175.959C261 168.459 255 164.459 248 165.959C241 167.459 220.582 151.081 219.001 149.5C214.501 145 217.5 139.459 212.5 135.459C207.5 131.459 199.697 101.244 198 103.959C195.5 107.959 200.5 131.103 195.5 126.959C186.5 119.5 191.501 102.959 188.501 93.9591C185.501 84.9591 195.501 66.4592 202.001 61.9592Z" fill="white"/>
</g>
<path d="M412 89C412 86.7909 413.791 85 416 85H618C620.209 85 622 86.7909 622 89V212C622 214.209 620.209 216 618 216H416C413.791 216 412 214.209 412 212V89Z" fill="url(#paint1_linear)"/>
<g filter="url(#filter0_d)">
<path d="M405 96C405 93.7909 406.791 92 409 92H611C613.209 92 615 93.7909 615 96V219C615 221.209 613.209 223 611 223H409C406.791 223 405 221.209 405 219V96Z" fill="white"/>
</g>
<rect x="423" y="185" width="20" height="13" rx="2" fill="#EEF2F5"/>
<rect x="453" y="173" width="20" height="25" rx="2" fill="#D5DFE6"/>
<rect x="483" y="152" width="20" height="46" rx="2" fill="#C4CDD5"/>
<rect x="513" y="168" width="20" height="30" rx="2" fill="#EEF2F5"/>
<rect x="543" y="136" width="20" height="62" rx="2" fill="#C4CDD5"/>
<rect x="573" y="107" width="20" height="91" rx="2" fill="#D5DFE6"/>
<path fill-rule="evenodd" clip-rule="evenodd" d="M139.822 266.356C141.67 262.287 144.445 256.329 145.206 255.541C145.886 254.837 146.456 254.527 146.612 254.443L146.621 254.438C148.168 253.623 149.631 253.885 151.346 254.191C152.159 254.336 153.028 254.492 153.99 254.547C153.99 254.547 156.768 254.706 159.818 253.644C162.502 252.71 165.773 249.323 168.228 231.663C169.018 225.993 169.855 209.469 169.855 209.469L116.48 229.558L114.058 253.126L112.465 266.702H112.465C112.465 266.702 112.465 266.702 112.465 266.703C115.689 275.944 120.41 282.259 124.347 283.935C128.102 285.536 130.807 284.693 130.807 284.693C131.921 284.346 132.747 283.782 133.274 283.354C135.456 277.688 137.639 272.024 139.823 266.357C139.823 266.357 139.822 266.357 139.822 266.356Z" fill="#D9A860"/>
<path fill-rule="evenodd" clip-rule="evenodd" d="M133.336 237.271C133.829 236.682 133.471 235.773 132.777 235.442C127.953 233.145 129.831 224.742 133.94 223.534C137.257 222.56 138.906 224.864 139.55 226.16L136.535 248.35C136.535 248.35 134.568 257.628 138.226 260.176C141.883 262.726 151.885 265.036 156.555 262.867C161.228 260.699 164.637 256.959 165.094 246.961C165.094 246.961 158.316 245.025 153.224 242.938C150.949 242.006 149.013 241.045 148.161 240.21C147.699 239.755 147.221 239.208 146.748 238.59C144.411 235.54 142.206 230.727 142.632 226.41C142.632 226.41 179.638 222.277 188.174 212.521C196.711 202.768 184.707 200.747 184.707 200.747C184.707 200.747 193.533 187.914 168.818 190.989C168.818 190.989 166.615 183.283 150.596 189.292C134.579 195.302 122.213 200.249 117.764 208.61C113.315 216.97 112.769 223.866 116.476 229.557L114.056 253.125C117.611 251.173 121.878 248.414 126.247 244.554C129.072 242.06 131.414 239.569 133.336 237.271Z" fill="#554C34"/>
<path d="M158.896 248.983C158.896 248.983 159.59 252.25 163.593 252.893" stroke="#152934" stroke-width="2" stroke-linecap="round" stroke-linejoin="round"/>
<path d="M167.5 237C167.5 237 166.984 242.238 166.241 242.719C165.497 243.199 164.062 242.424 164.062 242.424" stroke="#152934" stroke-width="2" stroke-linecap="round" stroke-linejoin="round"/>
<path d="M164.238 228.893C164.238 228.893 160.051 226.496 156.208 227.792" stroke="#152934" stroke-width="2" stroke-linecap="round" stroke-linejoin="round"/>
<path fill-rule="evenodd" clip-rule="evenodd" d="M159.834 237.119C159.669 238.33 158.882 239.223 158.072 239.111C157.262 239.001 156.739 237.931 156.904 236.722C157.069 235.511 157.857 234.618 158.667 234.728C159.477 234.837 160 235.908 159.834 237.119" fill="#152934"/>
<path fill-rule="evenodd" clip-rule="evenodd" d="M174 489C172.886 474.837 170.594 440.161 169.479 426H131V489" fill="url(#paint2_linear)"/>
<path fill-rule="evenodd" clip-rule="evenodd" d="M148.496 489C149.223 475.406 149.745 440.785 150 426H91.818C91.818 426 81.9173 465.801 84.3993 489" fill="url(#paint3_linear)"/>
<path fill-rule="evenodd" clip-rule="evenodd" d="M220.03 326.808L222.456 329.462L243.966 312.308L251.998 305.449L249.521 302.476" fill="#231F20"/>
<path fill-rule="evenodd" clip-rule="evenodd" d="M126.182 270.228C134.938 272.48 142.468 278.06 147.126 285.805C148.694 288.411 150.298 291.378 151.798 294.666C157.886 308.013 168.431 354.85 169.247 373.115C170.064 391.381 169.247 426.393 169.247 426.393H92.1848C92.1848 426.393 78.7342 348.995 77.796 339.628C76.8599 330.261 74.9877 310.121 84.5885 295.602C94.1893 281.083 112.459 266.698 112.459 266.698L126.182 270.228Z" fill="white"/>
<path fill-rule="evenodd" clip-rule="evenodd" d="M139.001 350.5L141.633 358.665C141.819 359.245 142.443 359.54 142.99 359.273C150.451 355.629 197.125 332.824 201.03 330.655C205.272 328.297 211.752 325.352 218.942 318.516C226.131 311.681 226.013 313.094 226.013 314.038C226.013 314.981 221.771 321.699 219.884 324.695C217.999 327.689 223.066 327.59 224.717 327.001C226.366 326.412 235.087 319.341 238.976 315.925C242.865 312.505 244.987 311.327 245.576 312.623C246.165 313.921 244.632 315.805 244.632 315.805C245.812 318.752 242.63 322.17 242.63 322.17C243.925 325.588 239.829 330.487 209.089 355.08C178.348 379.673 143.053 391.058 126.203 390.603C109.353 390.146 103.001 359 103.001 359L139.001 350.5Z" fill="#D9A860"/>
<path d="M244.6 316L229.6 328" stroke="#152934" stroke-width="2" stroke-linecap="round" stroke-linejoin="round"/>
<path d="M243 322L233.5 329.5" stroke="#152934" stroke-width="2" stroke-linecap="round" stroke-linejoin="round"/>
<path d="M87.4292 439.127H97.2304C97.2304 439.127 99.1681 459.232 91.9995 468" stroke="#152934" stroke-width="2" stroke-linecap="round"/>
<rect x="228.001" y="146" width="146" height="125" rx="4" fill="url(#paint4_linear)"/>
<g filter="url(#filter1_d)">
<rect x="221.001" y="153" width="146" height="125" rx="4" fill="white"/>
</g>
<path d="M275.501 208.5L319.501 168.5" stroke="#152934" stroke-width="2"/>
<path d="M241.501 248.5L290.501 245.5" stroke="#152934" stroke-width="2"/>
<circle cx="241.501" cy="248.5" r="4.5" fill="#D5DFE6"/>
<circle cx="257.501" cy="191.5" r="4.5" fill="#7790A3"/>
<circle cx="308.501" cy="263.5" r="4.5" fill="#D5DFE6"/>
<circle cx="275.501" cy="208.5" r="4.5" fill="#D5DFE6"/>
<circle cx="326.501" cy="212.5" r="4.5" fill="#7790A3"/>
<circle cx="346.501" cy="233.5" r="4.5" fill="#FFC72C"/>
<circle cx="290.501" cy="245.5" r="4.5" fill="#FFC72C"/>
<circle cx="319.501" cy="168.5" r="4.5" fill="#FFC72C"/>
<path d="M421 260C421 257.791 422.791 256 425 256H577C579.209 256 581 257.791 581 260V422C581 424.209 579.209 426 577 426H425C422.791 426 421 424.209 421 422V260Z" fill="url(#paint5_linear)"/>
<g filter="url(#filter2_d)">
<mask id="mask1" mask-type="alpha" maskUnits="userSpaceOnUse" x="412" y="263" width="162" height="170">
<path d="M416 264H570C571.657 264 573 265.343 573 267V429C573 430.657 571.657 432 570 432H416C414.343 432 413 430.657 413 429V267C413 265.343 414.343 264 416 264Z" fill="white" stroke="#152934" stroke-width="2"/>
</mask>
<g mask="url(#mask1)">
<path d="M416 264H570C571.657 264 573 265.343 573 267V429C573 430.657 571.657 432 570 432H416C414.343 432 413 430.657 413 429V267C413 265.343 414.343 264 416 264Z" fill="white" stroke="#EEF2F5" stroke-width="2"/>
<line x1="413" y1="285" x2="700" y2="285" stroke="#EEF2F5" stroke-width="2"/>
<line x1="417" y1="264" x2="664" y2="264" stroke="#EEF2F5" stroke-width="2"/>
<line x1="413" y1="306" x2="700" y2="306" stroke="#EEF2F5" stroke-width="2"/>
<line x1="413" y1="327" x2="700" y2="327" stroke="#EEF2F5" stroke-width="2"/>
<line x1="413" y1="348" x2="700" y2="348" stroke="#EEF2F5" stroke-width="2"/>
<line x1="413" y1="369" x2="700" y2="369" stroke="#EEF2F5" stroke-width="2"/>
<line x1="413" y1="390" x2="700" y2="390" stroke="#EEF2F5" stroke-width="2"/>
<line x1="413" y1="411" x2="700" y2="411" stroke="#EEF2F5" stroke-width="2"/>
<line x1="417" y1="432" x2="664" y2="432" stroke="#EEF2F5" stroke-width="2"/>
<line x1="453" y1="265" x2="451" y2="452" stroke="#EEF2F5" stroke-width="2"/>
<line x1="493" y1="265" x2="491" y2="452" stroke="#EEF2F5" stroke-width="2"/>
<line x1="533" y1="265" x2="531" y2="452" stroke="#EEF2F5" stroke-width="2"/>
<line x1="573" y1="265" x2="571" y2="452" stroke="#EEF2F5" stroke-width="2"/>
</g>
</g>
<path d="M516.94 382.6C516.94 384.94 519.2 386.24 521.9 386.24C524.56 386.24 526.82 384.92 526.82 382.6C526.82 380.86 525.38 379.64 523.74 379.12C525.26 378.66 526.62 377.66 526.62 375.94C526.62 373.52 524.16 372.46 521.9 372.46C519.58 372.46 517.16 373.52 517.16 375.94C517.16 377.66 518.5 378.66 520.02 379.12C518.38 379.64 516.94 380.86 516.94 382.6ZM524.6 376.24C524.6 377.66 522.72 378.18 521.9 378.32C521.08 378.18 519.18 377.66 519.18 376.24C519.18 374.98 520.34 374.24 521.9 374.24C523.4 374.24 524.6 374.98 524.6 376.24ZM524.82 382.36C524.82 383.66 523.44 384.46 521.9 384.46C520.3 384.46 518.96 383.66 518.96 382.36C518.96 380.8 521.06 380.12 521.9 380.02C522.7 380.12 524.82 380.8 524.82 382.36Z" fill="#152934"/>
<path d="M518.42 324H520.62L525.94 312.04V310.66H516.58V312.42H523.62L518.42 324Z" fill="#152934"/>
<path d="M477.58 300.68C478.44 301.6 479.66 302.22 481.34 302.22C485.14 302.22 487 299.06 487 295.34C487 291.66 485.5 288.44 481.66 288.44C478.72 288.44 476.86 290.48 476.86 292.86C476.86 295.7 478.9 297.16 481.3 297.16C482.92 297.16 484.36 296.08 484.98 295.18V295.64C484.98 298 483.9 300.44 481.34 300.44C480.02 300.44 479.22 299.94 478.54 299.18L477.58 300.68ZM484.92 293.64C484.24 294.72 483.02 295.42 481.8 295.42C480.22 295.42 478.9 294.58 478.9 292.8C478.9 291.62 479.86 290.22 481.76 290.22C483.94 290.22 484.8 292.1 484.92 293.64Z" fill="#152934"/>
<path d="M436.52 363.06C437.38 364.26 439.1 365.24 441.42 365.24C444.44 365.24 446.3 363.62 446.3 361.38C446.3 359.28 444.46 358.24 443.2 358.12C444.52 357.88 446.1 356.9 446.1 355.04C446.1 352.8 444.14 351.46 441.42 351.46C439.28 351.46 437.7 352.36 436.7 353.54L437.76 354.78C438.74 353.78 439.84 353.24 441.24 353.24C442.82 353.24 444.1 353.96 444.1 355.32C444.1 356.7 442.78 357.3 441.16 357.3C440.64 357.3 439.94 357.3 439.72 357.28V359.1C439.92 359.08 440.62 359.08 441.16 359.08C443.1 359.08 444.3 359.7 444.3 361.18C444.3 362.58 443.2 363.46 441.36 363.46C439.86 363.46 438.48 362.78 437.64 361.76L436.52 363.06Z" fill="#152934"/>
<path d="M557.58 300.68C558.44 301.6 559.66 302.22 561.34 302.22C565.14 302.22 567 299.06 567 295.34C567 291.66 565.5 288.44 561.66 288.44C558.72 288.44 556.86 290.48 556.86 292.86C556.86 295.7 558.9 297.16 561.3 297.16C562.92 297.16 564.36 296.08 564.98 295.18V295.64C564.98 298 563.9 300.44 561.34 300.44C560.02 300.44 559.22 299.94 558.54 299.18L557.58 300.68ZM564.92 293.64C564.24 294.72 563.02 295.42 561.8 295.42C560.22 295.42 558.9 294.58 558.9 292.8C558.9 291.62 559.86 290.22 561.76 290.22C563.94 290.22 564.8 292.1 564.92 293.64Z" fill="#FFC72C"/>
<path d="M482.94 408H484.94V404.8H486.78V403.04H484.94V394.66H482.2L476.6 403.16V404.8H482.94V408ZM482.94 396.48V403.04H478.58L482.94 396.48Z" fill="#FFC72C"/>
<rect x="534" y="349" width="38" height="19" fill="#C4CDD5"/>
<rect x="414" y="307" width="38" height="19" fill="#C4CDD5"/>
<rect x="454" y="370" width="38" height="19" fill="#EEF2F5"/>
<line x1="424" y1="148" x2="592" y2="148" stroke="#FFC72C" stroke-width="2" stroke-linecap="round" stroke-dasharray="4 8"/>
<path d="M52.5033 288.313C51.3757 283.392 15.8398 212.389 89.8844 232.617C89.8844 232.617 90.3286 263.301 89.8844 266.069C89.4402 268.836 89.4998 275.5 84.4998 276.5C83.8505 276.568 82.6957 276.935 81.4998 276.798C78.9029 276.524 74.4399 274.953 72.9364 274.543C69.9295 273.757 66.6493 275.431 65.0092 276.798C61.6948 279.6 60.6697 284.964 62.6515 290.021L52.5033 288.313Z" fill="#A25949"/>
<path d="M84.5 262C85.5 263.334 87.5 263 89.5 263" stroke="#152934" stroke-width="2" stroke-linecap="round"/>
<path d="M89 249.5C90 252.5 91.5 256 88 255" stroke="#152934" stroke-width="2" stroke-linecap="round"/>
<path d="M80 240.001C80.5 240.501 81.5 240.001 83 241.501" stroke="#152934" stroke-width="2" stroke-linecap="round"/>
<path d="M70.7439 290.044L60.869 255.738C60.869 255.738 54.3086 254.234 54.5136 249.382C54.7186 244.53 59.6389 240.191 63.3292 247.879C63.3292 247.879 75.4251 249.451 86.3251 236.842L89.4003 233.289C89.4003 233.289 92.0655 228.949 84.4799 221.876C76.8944 214.769 58.6139 208.687 44.4679 219.723C36.5406 225.908 29.8776 235.68 26.1532 245.624L6.88178 287.754L70.7439 290.044Z" fill="#231F20"/>
<path d="M82.1815 249.503C81.4077 249.497 80.789 248.512 80.7993 247.304C80.8096 246.097 81.4452 245.123 82.2189 245.129C82.9926 245.136 83.6115 246.121 83.6011 247.328C83.5908 248.536 82.9552 249.51 82.1815 249.503Z" fill="#152934"/>
<path d="M0.657204 458.293C-0.948746 430.923 6.1926 415.001 6.1926 415.001H87.5007L82.5 489.001H0.657204C1.12572 479.07 1.24462 468.228 0.657204 458.293Z" fill="#EEF2F5"/>
<path d="M96.3318 415.119H85.5007L80.5007 489.001H101.001L96.3318 415.119Z" fill="#EEF2F5"/>
<rect x="27" y="414.792" width="105.987" height="67.5759" rx="2" transform="rotate(-25 27 414.792)" fill="#C4CDD5"/>
<circle cx="90.0007" cy="423.001" r="10" fill="white"/>
<path d="M89.5007 426.001C94.0939 429.583 101.431 431.83 107.683 436.782C110.384 438.931 114.033 441.835 113.357 443.33C113.034 444.069 111.806 444.265 110.751 444.282C111.508 444.911 112.295 445.522 113.035 446.12C116.048 447.853 117.764 449.663 117.408 450.619C116.985 451.731 113.83 451.461 113.368 451.412C113.428 451.653 113.425 451.853 113.345 452.056C112.994 453.088 110.987 453.576 108.295 453.355C107.416 454.77 106.486 455.346 105.766 455.604C104.658 456.007 104.342 455.597 103.115 456.069C101.77 456.609 101.523 457.343 100.354 457.505C99.579 457.598 98.9676 457.359 98.6067 457.212C96.8489 456.491 92.5948 446.079 78.5007 438.001L89.5007 426.001Z" fill="#A25949"/>
<line x1="1" y1="-1" x2="3.83225" y2="-1" transform="matrix(-0.707107 -0.707107 -0.707107 0.707107 112.417 452.418)" stroke="#152934" stroke-width="2" stroke-linecap="round"/>
<line x1="1" y1="-1" x2="3.83225" y2="-1" transform="matrix(-0.707107 -0.707107 -0.707107 0.707107 107.417 454.418)" stroke="#152934" stroke-width="2" stroke-linecap="round"/>
<line x1="1" y1="-1" x2="3.83225" y2="-1" transform="matrix(-0.707107 -0.707107 -0.707107 0.707107 102.417 456.418)" stroke="#152934" stroke-width="2" stroke-linecap="round"/>
<path fill-rule="evenodd" clip-rule="evenodd" d="M94.8643 383.147C89.2683 316.434 70.0898 289.394 70.0898 289.394L37.2874 288.745C2.29818 303.848 6.22765 341.947 6.22765 341.947V417.119H28.0848L27.8452 416.605C27.3784 415.604 27.8115 414.414 28.8126 413.947L94.8643 383.147Z" fill="url(#paint6_linear)"/>
<defs>
<filter id="filter0_d" x="401" y="88" width="218" height="139" filterUnits="userSpaceOnUse" color-interpolation-filters="sRGB">
<feFlood flood-opacity="0" result="BackgroundImageFix"/>
<feColorMatrix in="SourceAlpha" type="matrix" values="0 0 0 0 0 0 0 0 0 0 0 0 0 0 0 0 0 0 127 0"/>
<feOffset/>
<feGaussianBlur stdDeviation="2"/>
<feColorMatrix type="matrix" values="0 0 0 0 0 0 0 0 0 0 0 0 0 0 0 0 0 0 0.1 0"/>
<feBlend mode="normal" in2="BackgroundImageFix" result="effect1_dropShadow"/>
<feBlend mode="normal" in="SourceGraphic" in2="effect1_dropShadow" result="shape"/>
</filter>
<filter id="filter1_d" x="217.001" y="149" width="154" height="133" filterUnits="userSpaceOnUse" color-interpolation-filters="sRGB">
<feFlood flood-opacity="0" result="BackgroundImageFix"/>
<feColorMatrix in="SourceAlpha" type="matrix" values="0 0 0 0 0 0 0 0 0 0 0 0 0 0 0 0 0 0 127 0"/>
<feOffset/>
<feGaussianBlur stdDeviation="2"/>
<feColorMatrix type="matrix" values="0 0 0 0 0 0 0 0 0 0 0 0 0 0 0 0 0 0 0.1 0"/>
<feBlend mode="normal" in2="BackgroundImageFix" result="effect1_dropShadow"/>
<feBlend mode="normal" in="SourceGraphic" in2="effect1_dropShadow" result="shape"/>
</filter>
<filter id="filter2_d" x="408" y="259" width="170" height="178" filterUnits="userSpaceOnUse" color-interpolation-filters="sRGB">
<feFlood flood-opacity="0" result="BackgroundImageFix"/>
<feColorMatrix in="SourceAlpha" type="matrix" values="0 0 0 0 0 0 0 0 0 0 0 0 0 0 0 0 0 0 127 0"/>
<feOffset/>
<feGaussianBlur stdDeviation="2"/>
<feColorMatrix type="matrix" values="0 0 0 0 0 0 0 0 0 0 0 0 0 0 0 0 0 0 0.1 0"/>
<feBlend mode="normal" in2="BackgroundImageFix" result="effect1_dropShadow"/>
<feBlend mode="normal" in="SourceGraphic" in2="effect1_dropShadow" result="shape"/>
</filter>
<linearGradient id="paint0_linear" x1="358.5" y1="478" x2="387" y2="-1.10588e-05" gradientUnits="userSpaceOnUse">
<stop stop-color="#2561EC"/>
<stop offset="1" stop-color="#4E80F2"/>
</linearGradient>
<linearGradient id="paint1_linear" x1="517" y1="85" x2="517" y2="216" gradientUnits="userSpaceOnUse">
<stop stop-color="#C4CDD5"/>
<stop offset="1" stop-color="#C4CDD5" stop-opacity="0"/>
</linearGradient>
<linearGradient id="paint2_linear" x1="152.5" y1="426" x2="152.5" y2="489" gradientUnits="userSpaceOnUse">
<stop stop-color="#2D438D"/>
<stop offset="1" stop-color="#1B6DAC"/>
</linearGradient>
<linearGradient id="paint3_linear" x1="117" y1="426" x2="117" y2="489" gradientUnits="userSpaceOnUse">
<stop stop-color="#2D438D"/>
<stop offset="1" stop-color="#1B6DAC"/>
</linearGradient>
<linearGradient id="paint4_linear" x1="301.001" y1="146" x2="301.001" y2="271" gradientUnits="userSpaceOnUse">
<stop stop-color="#C4CDD5"/>
<stop offset="1" stop-color="#C4CDD5" stop-opacity="0"/>
</linearGradient>
<linearGradient id="paint5_linear" x1="501" y1="256" x2="501" y2="426" gradientUnits="userSpaceOnUse">
<stop stop-color="#C4CDD5"/>
<stop offset="1" stop-color="#C4CDD5" stop-opacity="0"/>
</linearGradient>
<linearGradient id="paint6_linear" x1="51.2307" y1="288.745" x2="51.2307" y2="417.119" gradientUnits="userSpaceOnUse">
<stop stop-color="#FFD560"/>
<stop offset="1" stop-color="#F8AB60"/>
</linearGradient>
</defs>
</svg>
