<svg xmlns="http://www.w3.org/2000/svg" width="509" height="543" fill="none" viewBox="0 0 509 543">
    <g filter="url(#prefix__filter0_d)">
        <path stroke="#F27573" stroke-linecap="round" stroke-linejoin="round" d="M440.424 83.67l-2.011-.755M440.424 85.178l-2.766-1.006M439.419 86.687l-2.012-.754M439.602 88.205l-2.588-1M438.997 89.785l-2.587-1"/>
        <path fill="#F7A79A" fill-rule="evenodd" d="M478.867 190.577s1.262 4.102.846 7.005l-.138 1.567 3.601 5.024 2.539-1.428s-.647-.185-1.293-2.398c-.646-2.212-.093-9.632-.139-10.508 0 0-4.877-.415-5.416.738z" clip-rule="evenodd"/>
        <path fill="#231F20" fill-rule="evenodd" d="M479.31 197.237v7.076c0 .454.368.822.823.822h1.749c.455 0 .824-.368.824-.822v-.209c3.495 2.144 8.888.45 9.288-.647.399-1.097-.15-1.097-1.698-1.197-1.548-.099-2.547-.349-4.145-1.097-1.598-.748-1.504-2.094-1.504-2.094v-1.606c0-.46-.374-.83-.834-.822-1.006.016-2.689.038-3.691.026h-.313s-.499-.103-.499.57z" clip-rule="evenodd"/>
        <path fill="#F7A79A" fill-rule="evenodd" d="M449.964 184.691s-1.546 4.309-3.758 6.526l-1.121 1.251-.136 6.587 3.083.398s-.434-.569.429-2.871c.862-2.303 6.081-8.29 6.602-9.068 0 0-3.902-3.464-5.099-2.823z" clip-rule="evenodd"/>
        <path fill="url(#prefix__paint0_linear)" fill-rule="evenodd" d="M469.05 123.517s13.895 1.751 18.003-1.014c0 0-.184 33.046-.554 41.28-.369 8.235-1.847 25.319-2.216 26.056-.368.738-2.954 1.352-5.416.738 0 0-3.2-16.101-1.846-28.637l-.695-2.213s-4.845 9.464-11.123 16.593c-6.279 7.129-11.326 12.782-11.326 12.782s-3.447-1.352-4.185-3.688c0 0 6.894-17.206 14.28-22.122 0 0 2.892-38.008 5.078-39.775z" clip-rule="evenodd"/>
        <path fill="#FEFEFE" fill-rule="evenodd" d="M496.229 110.988c.747-1.577 1.507-3.204 2.145-4.69 1.271-2.959 2.154-5.317 2.154-5.317-.821-.176-3.685-1.783-3.685-1.783l-6.903 8.944s-1.144-4.885-2.226-9.595c-.187-.816-.373-1.627-.55-2.407-1.202-5.275-6.496-5.97-6.496-5.97l-6.152-1.402c-.371-.204-.871-.432-1.488-.593-.796-.206-1.489-.224-1.979-.197-1.325.185-3.444.68-5.156 2.308-1.559 1.482-2.877 3.915-2.927 7.907-.123 9.918 1.665 29.138 1.665 29.138h4.073l2.037-28.03-1.691 24.216s-11.514-3.394 0 0c11.513 3.393 18.003-1.014 18.003-1.014l-.001-8.591c1.255 4.803 4.878 2.325 6.781.593 0 0 1.354-1.318 2.396-3.517z" clip-rule="evenodd"/>
        <mask id="prefix__a" width="10" height="15" x="495" y="88" maskUnits="userSpaceOnUse">
            <path fill="#fff" fill-rule="evenodd" d="M495.984 88.758h8.667v14.116h-8.667V88.758z" clip-rule="evenodd"/>
        </mask>
        <g mask="url(#prefix__a)">
            <path fill="#F7A79A" fill-rule="evenodd" d="M504.627 90.84c-.195 1.056-.66 2.709-1.326 4.339-1.022 2.5-4.507 7.695-4.507 7.695l-2.81-1.373s2.636-3.877 2.583-4.49c-.053-.614-.368-7.096.298-6.558.666.538.687 2.206.687 2.206s.291-1.502.546-2.614c0 0 .608-2.413 3.791-.63 0 0 .923.419.738 1.425z" clip-rule="evenodd"/>
        </g>
        <path fill="#F7A79A" fill-rule="evenodd" d="M465.041 135.531c-.178-.904-.329-2.37-.311-3.881.026-2.317 1.168-7.561 1.168-7.561l2.677.212s-.882 3.925-.645 4.398c.236.473 2.534 5.548 1.832 5.328-.702-.22-1.245-1.545-1.245-1.545s.242 1.291.389 2.259c0 0 .277 2.118-2.827 1.695 0 0-.869-.044-1.038-.905z" clip-rule="evenodd"/>
        <path fill="url(#prefix__paint1_linear)" fill-opacity=".9" fill-rule="evenodd" d="M487.281 124.594l-6.18 1.783s1.236-11.655.137-17.551c-1.099-5.896-.57-18.677-.57-18.677s5.294.694 6.496 5.97c.177.78.363 1.59.55 2.407 1.082 4.71 2.226 9.595 2.226 9.595l6.903-8.945s2.864 1.607 3.685 1.784c0 0-.883 2.357-2.154 5.317-.638 1.486-1.398 3.112-2.145 4.69-1.042 2.199-2.396 3.516-2.396 3.516-1.903 1.733-5.526 4.21-6.781-.592l.229 10.703z" clip-rule="evenodd"/>
        <path fill="#0F100F" d="M485.158 72.684c-.01-.04-.061-.047-.082-.012-.788 1.303-9.701 16.226-5.482 17.244 4.412 1.064 7.867.012 8.262.065.396.054 1.604-.897 1.604-.897-.792-1.306-4.075-15.558-4.302-16.4z"/>
        <path fill="#F7A79A" fill-rule="evenodd" d="M479.597 89.897c-.488-3.501-.131-3.856-.131-3.856.434-.343.71-.052 1.88-.213.453-.062 1.609-.221 2.487-.895.814-.625 1.118-1.484 1.319-2.075 1.069-3.15.078-8.82-.057-9.566 0 0-16.473 4.106-15.055 10.356.461 2.037.772 3.41.983 4.336l2.233 1.658c.444 1.304 1.625 2.22 2.983 2.314 1.428.1 2.781-.728 3.358-2.059z" clip-rule="evenodd"/>
        <path fill="#231F20" fill-rule="evenodd" d="M484.38 79.236c-.003.353.178.641.404.644.226.001.411-.284.415-.637.003-.354-.178-.642-.404-.643-.226-.003-.411.282-.415.636zM480.276 79.236c-.003.353.178.641.404.644.226.001.412-.284.415-.637.003-.354-.178-.642-.404-.643-.226-.003-.412.282-.415.636z" clip-rule="evenodd"/>
        <path stroke="#231F20" stroke-linecap="round" stroke-linejoin="round" stroke-width=".5" d="M485.48 76.458c-.126-.057-.302-.122-.519-.157-.233-.037-.431-.028-.573-.011"/>
        <path fill="#E4866E" fill-rule="evenodd" d="M476.486 82.09c.478.757 1.48.984 2.239.507.758-.477.985-1.478.507-2.235-.477-.757-1.479-.984-2.238-.507-.759.477-.986 1.478-.508 2.236zM485.249 82.544c-.002-.002-.149-.171-.209-.265-.478-.758-.251-1.759.508-2.236.023-.015.047-.029.072-.043-.014.423-.053.895-.132 1.408-.066.414-.149.793-.239 1.136z" clip-rule="evenodd"/>
        <path fill="#231F20" fill-rule="evenodd" d="M484.804 72.095s.301.216.469 1.014c.169.798-.469-1.014-.469-1.014z" clip-rule="evenodd"/>
        <path stroke="#231F20" stroke-linecap="round" stroke-linejoin="round" stroke-width=".5" d="M481.219 82.601s.289.803 1.326.828"/>
        <path fill="url(#prefix__paint2_linear)" fill-opacity=".9" fill-rule="evenodd" d="M475.056 91.964c.491 3.512.816 6.513.97 8.878.168 2.578.801 12.307-.137 17.552-.115.64-.575 3.013-.403 6.154.04.732.106 1.333.155 1.731 0 0-4.96.067-6.806-.755l-.131 1.807h-4.073s-1.788-19.22-1.665-29.138c.05-3.992 1.368-6.425 2.927-7.908 1.712-1.628 3.831-2.122 5.156-2.307 0 0 3.629 1.281 4.007 3.986z" clip-rule="evenodd"/>
        <path fill="url(#prefix__paint3_linear)" fill-rule="evenodd" d="M469.576 85.656s-1.553-.526-4.163.484c-2.61 1.01-8.092 2.405-13.661.859-4.726-1.312-9.606-3.267-10.974-3.828-.197-.081-.418.036-.464.244l-1.492 6.788c-.034.154.039.31.18.38 1.453.715 9.287 4.371 16.301 3.7 7.765-.744 10.188-2.78 11.43-3.085 1.241-.303 2.237-.088 3.037-.077.235.003 3.258-4.933 3.258-4.933l-3.452-.532z" clip-rule="evenodd"/>
        <path fill="url(#prefix__paint4_linear)" fill-rule="evenodd" d="M481.066 92.755c.724-.023 1.306-.284 1.54-.703.073-.13.112-.286.103-.472 0 0-.113-.777-.765-1.393-.653-.616.39-1.477.809-2.165.42-.688-.151-1.861-.854-2.007l-10.576-2.183s-1.379-.552-1.684.62c-.305 1.173-.132 2.068.411 2.825.544.756.679 1.614.054 2.707-.625 1.094-.505 1.327-.505 1.327 1.309-.264 2.468-.247 3.494-.044 1.64.324 2.252.984 3.938 1.36.889.199 1.776.252 2.645.195l1.39-.067z" clip-rule="evenodd"/>
        <path fill="#0F100F" d="M479.221 69.11c1.366.235 4.638 2.168 4.638 2.168 1.502.835 2.012 2.556.262 4.531-1.75 1.975-6.047 2.503-6.047 2.503l-3.837 10.23c-.2 1.546-1.87 1.685-2.583 1.574l-3.714-1.573c-1.112-3.178 2.42-12.047 4.054-15.569 1.635-3.522 5.86-4.098 7.227-3.864z"/>
        <path stroke="#231F20" stroke-linecap="round" stroke-linejoin="round" d="M481.515 76.194c-.219-.076-.644-.19-1.173-.117-.677.094-1.127.442-1.305.595"/>
        <path fill="#231F20" fill-rule="evenodd" d="M446.397 190.382l-4.942 5.073c-.317.325-.31.845.016 1.162l1.254 1.218c.326.316.847.309 1.164-.016l.146-.15c1.009 3.97 6.058 6.509 7.111 6.001 1.052-.508.658-.891-.382-2.04s-1.582-2.023-2.205-3.672c-.623-1.647.384-2.547.384-2.547l1.123-1.152c.32-.329.31-.855-.025-1.169-.732-.689-1.954-1.845-2.664-2.551l-.225-.218s-.286-.421-.755.061z" clip-rule="evenodd"/>
        <path stroke="#231F20" stroke-linecap="round" stroke-linejoin="round" stroke-width=".5" d="M483.005 80s.24 1.098.099 1.219c-.141.12-.461 0-.461 0"/>
        <path fill="#1A4278" fill-rule="evenodd" d="M8.475 329.256l-3.183 3.275s5.976 5.1 9.023 5.686h5.741s.585-2.11-3.398-3.516c-.855-.303-1.272-.961-1.402-1.808l-.029-.253-6.752-3.384z" clip-rule="evenodd"/>
        <path fill="url(#prefix__paint5_linear)" fill-rule="evenodd" d="M36.038 266.325s-5.085 17.145-6.725 28.4c0 0-20.271 23.436-25.31 32.464l9.273 4.503 6.194 3.009s15.349-22.743 18.279-28.956c2.93-6.213 8.353-20.016 9.039-24.369l-10.75-15.051z" clip-rule="evenodd"/>
        <path fill="url(#prefix__paint6_linear)" fill-rule="evenodd" d="M37.64 249.311s-7.39 6.61-3.055 14.581c4.335 7.972 23.083 31.536 23.083 31.536s.82.469 2.227 5.626c1.406 5.159 12.888 30.13 12.888 30.13l14.881-6.565-18.044-33.646-20.216-30.481 1.234-5.568-12.999-5.613z" clip-rule="evenodd"/>
        <mask id="prefix__b" width="21" height="12" x="75" y="327" maskUnits="userSpaceOnUse">
            <path fill="#fff" fill-rule="evenodd" d="M75.527 327.568h19.519v10.649H75.527v-10.649z" clip-rule="evenodd"/>
        </mask>
        <g mask="url(#prefix__b)">
            <path fill="#1A4278" fill-rule="evenodd" d="M75.527 329.974l3.466 8.243 16.054-7.864s-1.525-2.687-6.093-.928c-4.571 1.759-7.974-1.857-7.974-1.857l-5.453 2.406z" clip-rule="evenodd"/>
        </g>
        <path fill="#152934" fill-rule="evenodd" d="M55.263 222.216s1.934 1.698 1.875 4.276c-.058 2.577 2.403 4.101 4.277 4.92 1.877.82 1.584 5.74 1.584 5.74l-8.088 2.461-5.156-13.18s-.996-7.967 5.508-4.217z" clip-rule="evenodd"/>
        <path fill="#F7A79A" fill-rule="evenodd" d="M56.715 209.9s.788 8.595.664 9.386c-.125.791-.3 2.168-2.527 2.9 0 0-.38.032-.801-.029-.273-.038-.563-.115-.781-.265-.557-.381-2.199-.85-2.989.469-.791 1.318-.675 3.778-.675 3.778s-2.578.908-2.9-.498c-.323-1.406-11.139-21.51 10.009-15.741z" clip-rule="evenodd"/>
        <path fill="#221E1F" fill-rule="evenodd" d="M55.112 215.095c0 .284.162.486.364.527.202 0 .363-.243.363-.486 0-.284-.161-.486-.363-.527-.202-.04-.364.203-.364.486z" clip-rule="evenodd"/>
        <path stroke="#221E1F" stroke-linecap="round" stroke-linejoin="round" stroke-width=".5" d="M56.046 219.133s.202.729 1.01.729M57.417 216.203s.242 1.094.121 1.215c-.161.122-.484 0-.484 0"/>
        <path fill="url(#prefix__paint7_linear)" fill-rule="evenodd" d="M42.6 224.769s-2.704.786-3.466 4.827c-.762 4.042-2.813 14.235-2.813 14.235s-.762 2.402.997 3.456c0 0-1.443 1.171-1.162 1.406.283.234 14.288 6.209 14.288 6.209s4.747-14.351 4.923-18.159c.176-3.808-4.864-8.962-5.421-10.807 0 0-1.964.205-2.901-.499 0 0-2.62.01-4.445-.668z" clip-rule="evenodd"/>
        <path fill="#152934" fill-rule="evenodd" d="M56.713 211.086l.879-1.054s.762-1.288-1.407-3.397c-2.167-2.11-7.382-3.926-11.427-.645-4.043 3.28-6.915 9.959-5.977 14.235.937 4.276 3.985 5.037 8.264 5.212 0 0 2.87-4.217 2.402-8.727 0 0-1.876-.451-1.817-1.895.06-1.444 1.465-2.733 2.52-.449 0 0 3.457.47 6.563-3.28z" clip-rule="evenodd"/>
        <path fill="#F7A79A" fill-rule="evenodd" d="M75.741 254.761c2.425 1.07 4.12 1.457 4.12 1.943 0 .527-1.23-.176-1.23-.176.587.557 1.671 2.43 1.524 3.003-.147.572-2.432 1.302-2.667 1.038-.233-.263-1.963-2.695-1.963-2.695l-1.013-.627 1.23-2.486z" clip-rule="evenodd"/>
        <path fill="url(#prefix__paint8_linear)" fill-rule="evenodd" d="M56.832 245.399l19.305 8.563-.395.799-1.38 2.79-19.703-6.12c-5.221-2.459-8.797-11.766-8.797-11.766l-2.215-6.027c-.821-5.506 2.109-7.146 5.39-5.974 0 0 1.886.47 2.44 2.594l5.355 15.141z" clip-rule="evenodd"/>
        <path fill="#F7A79A" fill-rule="evenodd" d="M380.344 320.412c-1.247 0-1.779-.584-2.102-1.041-.23-.329-.15-1.435-.15-1.435.05-.616.06-1.243.01-1.859-.141.435-.593 1.637-1.116 1.551-.634-.117.865-3.751.865-3.751-.323-1.839-.795-3.21-.795-3.21l2.484-1.572s2.564 3.209 2.997 7.194c.442 3.985-1.127 4.123-2.193 4.123z" clip-rule="evenodd"/>
        <mask id="prefix__c" width="10" height="11" x="331" y="315" maskUnits="userSpaceOnUse">
            <path fill="#fff" fill-rule="evenodd" d="M331.311 315.51h8.989v9.605h-8.989v-9.605z" clip-rule="evenodd"/>
        </mask>
        <g mask="url(#prefix__c)">
            <path fill="#F7A79A" fill-rule="evenodd" d="M340.3 316.486s-.874 2.269-1.991 4.232v.01c0 .225-.01 3.831-.643 3.667-.663-.155-.453-1.983-.453-1.983-.22.288-.453.535-.674.729-1.769 1.542-2.959 2.897-4.539 1.161-1.581-1.736-.064-3.276.789-3.852.854-.574 2.603-2.506 3.013-3.399.411-.904.769-1.541.769-1.541l3.729.976z" clip-rule="evenodd"/>
        </g>
        <path stroke="#1C4178" stroke-width=".25" d="M378.439 316.586c.03-.093.05-.143.05-.143"/>
        <path fill="url(#prefix__paint9_linear)" fill-rule="evenodd" d="M368.98 287.981c-5.357 4.532.71 15.549.71 15.549s5.027 9.216 7.092 9.085c1.511-.096 3.296-1.323 4.147-1.977.329-.252.489-.662.405-1.07-.978-4.757-8.599-17.66-10.788-21.3l-.971-1.554-.595 1.267z" clip-rule="evenodd"/>
        <path fill="#F7A79A" fill-rule="evenodd" d="M340.616 374.177l-4.577-2.463s-.424.634-.955 1.478l4.712 2.546.82-1.561z" clip-rule="evenodd"/>
        <mask id="prefix__d" width="14" height="10" x="332" y="373" maskUnits="userSpaceOnUse">
            <path fill="#fff" fill-rule="evenodd" d="M332.865 373.042h13.096v8.983h-13.096v-8.983z" clip-rule="evenodd"/>
        </mask>
        <g mask="url(#prefix__d)">
            <path fill="#051D36" fill-rule="evenodd" d="M344.629 380.028c-1.632-.79-4.243-3.621-4.7-4.41l-4.874-2.576c-.989 1.538-2.344 3.779-2.176 4.287.262.79 7.18 4.411 7.768 4.609.588.197 5.287 0 5.287 0s.327-1.119-1.305-1.91z" clip-rule="evenodd"/>
        </g>
        <path fill="#F7A79A" fill-rule="evenodd" d="M384.944 373.475l-5.097 1.593s.179.842.426 1.928l5.107-1.928-.436-1.593z" clip-rule="evenodd"/>
        <path fill="#051D36" fill-rule="evenodd" d="M393.767 375.535c-2.051 0-8.522-.803-8.522-.803l-5.146 1.994c.464 2.097 1.172 5.091 1.426 5.047.387-.067 14.164-4.763 14.164-4.763s.129-1.475-1.922-1.475z" clip-rule="evenodd"/>
        <path fill="url(#prefix__paint10_linear)" fill-rule="evenodd" d="M355.956 267.601s-8.602 3.212-10.504 9.198c-1.903 5.989-10.98 34.799-11.586 37.143-.605 2.341-.259 3.296.952 3.817 1.21.521 4.323 2.082 5.619.347 1.297-1.735 10.288-21.781 10.288-21.781l.174 2.516 17.636.087s1.73-9.371 1.125-16.574c-.605-7.203-3.718-11.889-5.274-12.93-1.557-1.041-8.43-1.823-8.43-1.823z" clip-rule="evenodd"/>
        <path fill="url(#prefix__paint11_linear)" fill-rule="evenodd" d="M352.213 310.051c-1.152-3.002-1.255-5.287-1.255-5.287v-5.979l17.701.084 1.26 5.765L386.889 373l-9.767 2.99s-4.947-14.69-8.986-27.295c-1.444-4.523-3.617-10.135-5.882-15.64 0 0-1.144 6.801-2.449 9.139-1.299 2.339-19.006 32.239-19.006 32.239l-8.985-4.685s14.429-29.501 15.22-32.362c.799-2.859 5.175-27.323 5.175-27.323l.004-.012z" clip-rule="evenodd"/>
        <path fill="#1C4178" fill-rule="evenodd" d="M352.248 310.604c.137.313.295.639.468.965.046.087.098.186.159.293l-.627-1.258z" clip-rule="evenodd"/>
        <path fill="#F7A79A" fill-rule="evenodd" d="M356.81 269.287c-.175-.151-.446-.428-.642-.849-.129-.28-.185-.536-.211-.725.18-.44.179-.784.179-.784s.093-2.725 0-2.805c0 0 6.218-.551 6.037 2.258-.091 1.405.464 2.198 1.042 2.642l.123.086c.062.215.157.604.163 1.033-.483.27-1.529.763-2.918.725-2.061-.057-3.416-1.247-3.773-1.581z" clip-rule="evenodd"/>
        <path fill="#E4866E" fill-rule="evenodd" d="M362.211 266.154s-2.844 1.832-5.965-.463l-.038-1.735s6.548-.922 6.003 2.198z" clip-rule="evenodd"/>
        <path fill="#F7A79A" fill-rule="evenodd" d="M364.844 255.24s1.159 9.723-1.431 10.783c-2.591 1.06-6.611-.599-8.711-3.687-2.099-3.089.671-5.809 2.19-1.982l-.056-7.116 8.008 2.002z" clip-rule="evenodd"/>
        <mask id="prefix__e" width="15" height="12" x="352" y="250" maskUnits="userSpaceOnUse">
            <path fill="#fff" fill-rule="evenodd" d="M352.693 250.235h14.265v10.833h-14.265v-10.833z" clip-rule="evenodd"/>
        </mask>
        <g mask="url(#prefix__e)">
            <path fill="#DE7712" fill-rule="evenodd" d="M354.096 261.067c-.404-2.197 1.692-3.396 2.947-.321v-5.519s-.836-2.962 8.801 1.014c.786.324.236-2.031 0-2.503-.5-1.001-2.193-1.501-3.503-2.002-.374-.142-4.87-2.192-7.226-.578-2.558 1.753-3.39 6.138-1.019 9.909z" clip-rule="evenodd"/>
        </g>
        <path fill="#231F20" fill-rule="evenodd" d="M363.518 260.054c-.003.277.157.503.356.505.199.002.363-.222.365-.5.003-.277-.156-.503-.356-.505-.199-.002-.362.222-.365.5zM359.745 260.054c-.002.277.157.503.356.505.2.002.363-.222.366-.5.003-.277-.157-.503-.357-.505-.198-.002-.362.222-.365.5z" clip-rule="evenodd"/>
        <path stroke="#231F20" stroke-linecap="round" stroke-linejoin="round" stroke-width=".5" d="M360.483 263.086s.219.708 1.006.731M362.235 260.811s.258 1.084.107 1.204c-.153.12-.496 0-.496 0"/>
        <path fill="#231F20" fill-rule="evenodd" d="M361.238 258.634h-2.515s1.523-.954 2.515 0zM364.758 258.634h-1.76s1.066-.954 1.76 0z" clip-rule="evenodd"/>
        <path fill="#fff" fill-rule="evenodd" d="M81.439 39.572c-.011 2.726.033 5.38.121 7.958h24.638l.996-1.834 1.594-6.113v-3.81c0-4.197.181-8.047.308-10.437.077-1.438-.94-2.644-.94-2.644-1.996-1.03-3.679-1.916-3.679-1.916l-5.212-1.427-5.944-.236-7.956 1.663c-.864 0-3.223 2.478-3.223 2.478-.423 5.122-.681 10.574-.703 16.318z" clip-rule="evenodd"/>
        <path fill="#4DC1BD" fill-rule="evenodd" d="M119.914 72.796l-1.752 1.05c-2.686 1.74-7.937 4.381-15.503 4.808-13.759.776-27.005-6.233-27.006-6.233 11.741-6.946 19.861-6.531 23.255-6.042 5.846.84 18.184 4.852 19.291 5.226 0 0 1.446.833 1.715 1.19z" clip-rule="evenodd"/>
        <path fill="url(#prefix__paint12_linear)" fill-rule="evenodd" d="M87.195 47.53h23.65s4.1 26.868 4.232 39.512c.132 12.644 0 32.663 0 32.663h-7.538l-7.801-53.197s.265 17.769-9.785 30.807c-10.05 13.039-17.587 20.81-17.587 20.81l-4.76-5.005s14.81-24.102 16.264-27.395c1.455-3.293.854-12.776.854-12.776l2.47-25.419z" clip-rule="evenodd"/>
        <path fill="url(#prefix__paint13_linear)" fill-rule="evenodd" d="M78.161 49.745c-4.922-22.773 6.843-28.761 6.843-28.761s3.26-1.281 8.317 4.864c6.4 7.776 3.119 38.647 3.119 43.905 0 5.258-6.179 4.075-11.508 3.024-5.33-1.052-8.998 0-9.261-.526-.247-.494 2.164-19.881 2.461-22.266l.012-.092.017-.148z" clip-rule="evenodd"/>
        <path fill="#F7A79A" fill-rule="evenodd" d="M82.192 57.67s.71 1.294 2.308 2.56l1.597 1.132 1.879-2.143-2.725-3.642-3.06 2.092z" clip-rule="evenodd"/>
        <path fill="#F3B39A" fill-rule="evenodd" d="M113.878 122.22H109.1v-2.515h4.778v2.515zM67.103 115.337l1.524-1.416 3.002 3.232-1.558 1.547-2.968-3.363z" clip-rule="evenodd"/>
        <path fill="#231F20" fill-rule="evenodd" d="M108.346 122.997v9.218c0 .591.485 1.07 1.082 1.07h2.302c.598 0 1.083-.479 1.083-1.07v-.272c4.597 2.793 11.692.585 12.217-.844.525-1.429-.197-1.429-2.234-1.559-2.036-.13-3.349-.455-5.451-1.429-2.102-.974-1.978-2.727-1.978-2.727v-2.093c0-.598-.492-1.08-1.096-1.071-1.325.021-3.538.051-4.856.034h-.413s-.656-.134-.656.743zM66.267 115.196l-6.856 6.284c-.44.403-.477 1.093-.081 1.542l1.522 1.725c.395.448 1.072.485 1.512.082l.202-.186c.963 5.351 7.295 9.164 8.705 8.584 1.411-.58.933-1.121-.316-2.737-1.25-1.615-1.877-2.821-2.542-5.061-.666-2.24.721-3.342.721-3.342l1.556-1.427c.446-.407.479-1.105.072-1.552-.891-.978-2.376-2.617-3.236-3.616l-.273-.309s-.334-.584-.986.013z" clip-rule="evenodd"/>
        <path fill="url(#prefix__paint14_linear)" fill-rule="evenodd" d="M93.22 53.817s1.31 16.846-11.783 11.145c0 0 1.833-7.128 11.784-11.145z" clip-rule="evenodd"/>
        <path fill="url(#prefix__paint15_linear)" fill-rule="evenodd" d="M117.737 51.496c.275.197.548.39.821.579.391.27.78.532 1.164.783 4.119 2.706 7.635 4.306 7.635 4.306l2.616-6.367c-10.596-3.769-14.259-12.865-16.613-18.193-2.355-5.327-4.71-8.966-4.71-8.966s-3.439-6.591-6.541 2.729c0 0-10.858 20.272 1.832 47.82 0 0 8.372-4.548 11.381-2.728 3.009 1.819 4.447 1.819 4.84.65.392-1.17-3.475-21.388-3.475-21.388l1.05.775z" clip-rule="evenodd"/>
        <path fill="url(#prefix__paint16_linear)" fill-rule="evenodd" d="M102.404 53.817s10.409 4.954 11.726 11.212c0 0-13.044 5.475-11.726-11.212z" clip-rule="evenodd"/>
        <path fill="#F7A79A" fill-rule="evenodd" d="M129.333 52.057s6.288 1.267 5.869 1.665c-.419.398-2.925.122-2.925.122s4.88.776 4.461 2.645c-.419 1.87-1.396 2.06-2.374 2.106-.977.046-6.403-3.14-6.403-3.14l1.372-3.398z" clip-rule="evenodd"/>
        <path fill="#FFE380" fill-rule="evenodd" d="M104.385 3.29c.02-.033.066-.026.076.012.209.787 1.658 6.191 2.389 7.412.749 1.255 3.764 3.673 3.182 7.308-.055.345-.332.605-.663.671l-1.407.28c-.024.005-.047-.01-.051-.035l-.222-1.14s-.374 1.734-.739 1.683c-.366-.05-3.552.934-7.623-.061-3.892-.953 4.332-14.91 5.058-16.13z" clip-rule="evenodd"/>
        <path fill="#F7A79A" fill-rule="evenodd" d="M99.457 19.456c-.454-3.255-.122-3.584-.122-3.584.403-.32.659-.048 1.747-.198.421-.058 1.496-.206 2.313-.832.756-.58 1.039-1.379 1.226-1.928.993-2.927.072-8.196-.053-8.89 0 0-15.314 3.815-13.997 9.624l.914 4.03 2.076 1.54c.413 1.212 1.511 2.063 2.773 2.15 1.328.093 2.587-.676 3.123-1.912z" clip-rule="evenodd"/>
        <path fill="#231F20" fill-rule="evenodd" d="M103.819 9.427c-.003.348.164.63.372.632.209.002.38-.278.383-.625.002-.347-.164-.63-.372-.632-.209-.002-.38.278-.383.625zM100.047 9.427c-.003.348.164.63.372.632.208.002.38-.278.382-.625.002-.347-.163-.63-.372-.632-.209-.002-.379.278-.382.625zM104.943 6.994c.051 0 .099-.027.122-.073.03-.063 0-.138-.066-.167-.162-.07-.333-.118-.506-.144-.184-.029-.372-.032-.557-.01-.073.008-.125.071-.116.14.009.068.078.118.148.11.162-.02.324-.016.482.008.15.023.298.065.438.125.018.008.037.011.055.011z" clip-rule="evenodd"/>
        <path fill="#EEAE21" fill-rule="evenodd" d="M104.109 2.766s.258.224.402 1.048c.144.824-.402-1.048-.402-1.048z" clip-rule="evenodd"/>
        <path fill="#231F20" fill-rule="evenodd" d="M102.173 13.58c.075 0 .136-.057.137-.128.002-.073-.057-.133-.133-.135-.863-.02-1.108-.65-1.11-.656-.026-.068-.104-.103-.175-.08-.072.025-.108.1-.082.169.012.032.312.805 1.36.83h.003z" clip-rule="evenodd"/>
        <path fill="#FFE380" fill-rule="evenodd" d="M103.292 2.06S100.227.26 98.946.042c-1.28-.219-5.24.318-6.771 3.595-1.532 3.277-.939 5.381-4.166 7.235-3.227 1.855-3.944 5.674-3.378 6.148.565.475 6.555 2.464 7.224 2.567.669.104 2.234-.026 2.421-1.464.186-1.438-.755-4.41.812-5.123 1.568-.714 2.89-2.372 2.783-4.396 0 0 4.027-.492 5.666-2.33 1.641-1.837 1.163-3.438-.245-4.216z" clip-rule="evenodd"/>
        <path fill="#231F20" fill-rule="evenodd" d="M102.207 11.568c.095 0 .192-.02.267-.085.048-.04.197-.168-.055-1.322-.015-.07-.083-.114-.155-.099-.07.016-.114.085-.099.155.097.444.17.987.125 1.086-.035.026-.206-.002-.307-.04-.066-.025-.142.009-.167.076-.026.067.008.142.075.168.039.014.174.061.316.061z" clip-rule="evenodd"/>
        <path fill="#F7A79A" fill-rule="evenodd" d="M228.374 450.441c-1.545-1.306-5.098-1.063-5.098-1.063 2.362-.721 2.281-1.893 2.281-1.893-.714-.074-2.765.382-3.648.536-.7 1.231-2.038 2.54-3.138 3.499 2.956 1.965 6.964 4.668 8.41 2.959 1.485-1.758 2.737-2.732 1.193-4.038z" clip-rule="evenodd"/>
        <path fill="url(#prefix__paint17_linear)" fill-opacity=".9" fill-rule="evenodd" d="M203.706 449.563c6.386 1.195 16.599 2.943 16.599 2.943l1.735-4.926s-17.825-6.508-18.965-7.293c-1.14-.783-2.834-3.548-2.834-3.548s-5.691-9.709-9.214-9.876c-3.523-.167-5.876 2.295-3.457 7.404 0 0 3.995 8.213 6.879 10.499 0 0 4.662 3.937 9.257 4.797z" clip-rule="evenodd"/>
        <path fill="#F7A79A" fill-rule="evenodd" d="M198.599 419.005c2.578-1.283 1.244-10.944 1.244-10.944l-7.734-2.68v6.757c-1.511-4.636-4.266-1.341-2.177 2.401.413.739.9 1.411 1.436 2.003.048.523-.021 2.789-.021 2.789s0 .355-.167.809c.023.196.076.459.196.747.182.436.434.721.597.877.33.345 1.589 1.572 3.504 1.632 1.289.039 2.261-.47 2.709-.748-.005-.444-.094-.844-.151-1.067l-.114-.088c-.454-.387-.893-1.033-.967-2.1.586-.012 1.142-.137 1.645-.388z" clip-rule="evenodd"/>
        <path fill="#231F20" d="M198.225 417.052c-2.502.363-3.503-1.139-4.004-.501-.5.638 4.004 1.364 4.004.501z"/>
        <path fill="#231F20" fill-rule="evenodd" d="M198.362 413.198c-.002.277.157.503.356.505.2.002.363-.222.366-.5.003-.277-.157-.504-.356-.506-.199-.001-.363.223-.366.501zM194.59 413.198c-.002.277.157.503.356.505.2.002.363-.222.366-.5.003-.277-.157-.504-.357-.506-.198-.001-.362.223-.365.501z" clip-rule="evenodd"/>
        <path stroke="#231F20" stroke-linecap="round" stroke-linejoin="round" stroke-width=".5" d="M197.08 413.955s.258 1.084.107 1.204c-.153.119-.496 0-.496 0"/>
        <path fill="#231F20" fill-rule="evenodd" d="M196.082 411.778h-2.514s1.522-.954 2.514 0zM199.603 411.778h-1.76s1.066-.954 1.76 0z" clip-rule="evenodd"/>
        <path fill="#152934" fill-rule="evenodd" d="M189.148 414.389c-.451-2.346 1.602-5.104 3.003-1.82l.285-4.416s8.977 5.845 10.752-.244c.114-.388-3.095-.414-3.997-1.745-.994-1.466-2.004-1.705-4.606-.557-.417-.153-.826-2.28-3.455-.557-1.153 1.671-4.627 5.312-1.982 9.339z" clip-rule="evenodd"/>
        <path fill="#F7A79A" fill-rule="evenodd" d="M230.818 454.244c-1.537-1.297-5.073-1.055-5.073-1.055 2.351-.716 2.27-1.879 2.27-1.879-.711-.073-2.751.38-3.63.533-.697 1.22-2.028 2.52-3.123 3.471 2.942 1.95 6.93 4.633 8.368 2.937 1.479-1.744 2.724-2.712 1.188-4.007zM165.205 524.732l-5.971-3.32s-.586.792-1.322 1.849l6.147 3.433 1.146-1.962z" clip-rule="evenodd"/>
        <path fill="#152934" fill-rule="evenodd" d="M170.019 532.281c-2.049-1.055-5.267-4.714-5.82-5.725l-6.109-3.424c-1.317 1.9-3.125 4.669-2.93 5.314.303 1.004 8.978 5.818 9.719 6.089.74.27 6.731.197 6.731.197s.457-1.396-1.591-2.451z" clip-rule="evenodd"/>
        <path fill="#F7A79A" fill-rule="evenodd" d="M210.903 523.927l-6.718 2.05s.235 1.082.56 2.477l6.733-2.477-.575-2.05z" clip-rule="evenodd"/>
        <mask id="prefix__f" width="22" height="9" x="204" y="526" maskUnits="userSpaceOnUse">
            <path fill="#fff" fill-rule="evenodd" d="M204.681 526.166h20.538v8.826h-20.538v-8.826z" clip-rule="evenodd"/>
        </mask>
        <g mask="url(#prefix__f)">
            <path fill="#152934" fill-rule="evenodd" d="M222.685 527.172c-2.701 0-11.226-1.006-11.226-1.006l-6.778 2.498c.612 2.629 1.545 6.382 1.878 6.328.511-.085 18.658-5.97 18.658-5.97s.169-1.85-2.532-1.85z" clip-rule="evenodd"/>
        </g>
        <path fill="#1C4178" fill-rule="evenodd" d="M182.281 468.098c-.025-.048-.046-.092-.066-.136-.141-.296-.271-.588-.387-.87l.453 1.006z" clip-rule="evenodd"/>
        <path fill="url(#prefix__paint18_linear)" fill-rule="evenodd" d="M214.496 526.376l-9.256 2.832s-4.691-13.925-8.52-25.873c-.554-1.727-1.22-3.625-1.955-5.618-4.079-11.007-10.363-24.874-12.285-29.03l7.455 17.061-1.033 3.603s-1.731 6.309-3.184 8.393c-1.449 2.084-21.003 28.595-21.003 28.595l-.298.6-8.265-5.012.532-.855s16.423-26.459 17.446-29.078c1.017-2.621 7.482-25.279 7.482-25.279l.133.308c.123.309.261.628.41.952.021.048.298.659.325.712l-.735-1.664c-1.214-3.008-1.321-5.33-1.321-5.33v-5.666l16.791.079 1.193 5.464 7.961 32.061 8.127 32.745z" clip-rule="evenodd"/>
        <path fill="#1C4178" fill-rule="evenodd" d="M189.85 485.954v.001l1.258 2.765-1.258-2.766z" clip-rule="evenodd"/>
        <path fill="url(#prefix__paint19_linear)" fill-rule="evenodd" d="M203.316 437.793l-.112-5.635c-.074-1.265-.582-3.562-2.019-6.083-2.739-4.803-6.327-5.614-10.306-6.681l-1.487.012s-6.432-.163-11.053 30.063c-.27 2.429-.245 4.511.245 5.865 0 0 1.432 3.708 11.462 3.537 3.528-.061 5.853-.159 7.445-.327 2.932-.308 3.372-.85 4.249-1.814l1.576-18.937z" clip-rule="evenodd"/>
        <path fill="url(#prefix__paint20_linear)" fill-opacity=".9" fill-rule="evenodd" d="M206.221 453.587c6.385 1.194 16.599 2.943 16.599 2.943l1.735-4.926s-17.825-6.509-18.965-7.293c-1.14-.784-2.834-3.548-2.834-3.548s-5.691-9.709-9.214-9.876c-3.523-.167-5.877 2.295-3.457 7.404 0 0 3.994 8.213 6.879 10.499 0 0 4.662 3.937 9.257 4.797z" clip-rule="evenodd"/>
        <path fill="#F7A79A" fill-rule="evenodd" d="M273.14 225.003l-5.332-.243s-.121.851-.242 1.985l5.452-.081.122-1.661z" clip-rule="evenodd"/>
        <mask id="prefix__g" width="16" height="7" x="267" y="226" maskUnits="userSpaceOnUse">
            <path fill="#fff" fill-rule="evenodd" d="M267.036 226.299h15.149v5.711h-15.149v-5.711z" clip-rule="evenodd"/>
        </mask>
        <g mask="url(#prefix__g)">
            <path fill="#071D35" fill-rule="evenodd" d="M280.773 229.944c-1.938-.688-7.755-3.645-7.755-3.645l-5.533.122c-.283 2.146-.606 5.224-.363 5.265.403.08 14.984.324 14.984.324s.566-1.378-1.333-2.066z" clip-rule="evenodd"/>
        </g>
        <path fill="#C89360" fill-rule="evenodd" d="M272.534 172.435c-1.252-.203-1.656-.851-1.939-1.377-.161-.365.081-1.458.081-1.458.162-.608.242-1.215.283-1.863-.202.405-.848 1.539-1.333 1.377-.606-.202 1.454-3.605 1.454-3.605-.04-1.863-.283-3.321-.283-3.321l2.706-1.174s2.06 3.564 1.858 7.614c-.202 4.09-1.777 3.969-2.827 3.807z" clip-rule="evenodd"/>
        <path stroke="#1A4278" stroke-width=".805" d="M271.241 168.344c.041-.081.081-.121.081-.121"/>
        <path fill="url(#prefix__paint21_linear)" fill-rule="evenodd" d="M266.273 138.496c-6.018 3.686-1.696 15.552-1.696 15.552s3.554 9.922 5.614 10.125c1.495.121 3.474-.81 4.403-1.337.363-.202.605-.567.565-1.012-.242-4.86-5.776-18.873-7.391-22.801l-.727-1.701-.768 1.174z" clip-rule="evenodd"/>
        <path fill="url(#prefix__paint22_linear)" fill-rule="evenodd" d="M253.712 118.571s-8.603 3.24-10.541 9.234c-1.899 6.034 5.291 19.601 5.291 19.601l.161 2.511 17.691.081s1.737-9.396 1.131-16.645c-.606-7.249-3.716-11.947-5.291-13-1.535-1.013-8.442-1.782-8.442-1.782z" clip-rule="evenodd"/>
        <path fill="#1A4278" fill-rule="evenodd" d="M249.997 161.743c.121.324.282.648.484.972.041.081.081.203.162.284l-.646-1.256z" clip-rule="evenodd"/>
        <path fill="url(#prefix__paint23_linear)" fill-rule="evenodd" d="M246.362 157.288c-.162-3.118.484-5.224.484-5.224l1.858-5.468 16.762 5.873-.606 5.67-5.412 67.998-10.178-.486s-.081-15.025.04-27.863c.041-4.617-.242-10.449-.686-16.2l-2.262-24.3z" clip-rule="evenodd"/>
        <path fill="url(#prefix__paint24_linear)" fill-rule="evenodd" d="M249.027 158.382c-.767-3.119-.606-5.387-.606-5.387l.687-5.913 17.004 2.106.525 5.832 8.32 69.619-9.693 1.863s-3.03-15.107-5.453-28.026c-.848-4.657-2.302-10.449-3.837-16.159l-6.947-23.935z" clip-rule="evenodd"/>
        <path fill="#F7A79A" fill-rule="evenodd" d="M256.459 225.57l-5.331.081s-.081.851-.162 1.985l5.453-.365.04-1.701z" clip-rule="evenodd"/>
        <path fill="#071D35" fill-rule="evenodd" d="M264.335 230.106c-1.979-.607-7.957-3.24-7.957-3.24l-5.493.446c-.161 2.146-.323 5.224-.081 5.264.404.041 14.985-.486 14.985-.486s.525-1.417-1.454-1.984z" clip-rule="evenodd"/>
        <path fill="#C89360" fill-rule="evenodd" d="M254.56 120.272c-.161-.162-.444-.446-.646-.851-.121-.283-.202-.526-.202-.729.162-.445.162-.769.162-.769s.081-2.754 0-2.835c0 0 6.22-.567 6.058 2.268-.081 1.417.485 2.227 1.05 2.673l.122.081c.08.202.161.607.161 1.053-.485.283-1.535.769-2.908.729-2.06-.122-3.433-1.296-3.797-1.62z" clip-rule="evenodd"/>
        <path fill="#9B7046" fill-rule="evenodd" d="M259.973 117.113s-2.868 1.822-5.978-.446l-.04-1.782s6.583-.931 6.018 2.228z" clip-rule="evenodd"/>
        <path fill="#C89360" fill-rule="evenodd" d="M262.436 107.919s1.333 8.019-1.252 9.072c-2.585 1.053-6.624-.607-8.724-3.685-2.1-3.119.687-5.832 2.181-1.985v-5.629l7.795 2.227z" clip-rule="evenodd"/>
        <mask id="prefix__h" width="15" height="12" x="250" y="101" maskUnits="userSpaceOnUse">
            <path fill="#fff" fill-rule="evenodd" d="M250.447 101.095h14.288v10.915h-14.288v-10.915z" clip-rule="evenodd"/>
        </mask>
        <g mask="url(#prefix__h)">
            <path fill="#575757" d="M254.803 111.686c-1.252-3.078-3.353-1.904-2.949.324-2.383-3.807-1.534-8.222 1.01-9.963h10.884c.658 1.022-.339 4.485-.798 5.932-.099.315-.48.452-.78.315-2.132-.967-7.367-2.157-7.367-2.157v5.549z"/>
        </g>
        <path fill="#221E1F" fill-rule="evenodd" d="M261.306 110.997c0 .284.161.486.363.527.202 0 .364-.243.364-.486 0-.284-.162-.486-.364-.527-.202-.04-.363.203-.363.486zM257.509 110.997c0 .284.162.486.364.527.202 0 .363-.243.363-.486 0-.284-.161-.486-.363-.527-.202-.04-.364.203-.364.486z" clip-rule="evenodd"/>
        <path stroke="#221E1F" stroke-linecap="round" stroke-linejoin="round" stroke-width=".5" d="M258.236 114.035s.202.729 1.01.729M260.013 111.726s.242 1.094.121 1.215c-.161.122-.484 0-.484 0"/>
        <path fill="#573E0D" fill-rule="evenodd" d="M259.003 109.539h-2.504s1.495-.931 2.504 0zM262.518 109.539h-1.778c.041 0 1.091-.931 1.778 0z" clip-rule="evenodd"/>
        <path fill="url(#prefix__paint25_linear)" fill-rule="evenodd" d="M254.278 122.742s1.131-2.146 2.463-4.009c.041-.243.445-3.807 1.05-3.564.647.243.202 2.025.202 2.025.243-.243.526-.486.768-.648 1.939-1.337 3.271-2.552 4.645-.648 1.373 1.903-.323 3.28-1.212 3.766-.929.486-2.868 2.187-3.393 3.038-.525.85-.929 1.458-.929 1.458l-3.594-1.418z" clip-rule="evenodd"/>
        <path fill="url(#prefix__paint26_linear)" fill-rule="evenodd" d="M242.484 133.231c-.484 3.483-.283 7.047.606 10.449.283 1.053.646 2.106 1.373 2.876.768.769 1.979 1.174 2.908.648.606-.324.97-.932 1.333-1.539.848-1.499 1.535-3.078 2.262-4.698 2.302-5.225 4.604-10.449 6.947-15.674.323-.729.606-1.66.081-2.267-.243-.243-.566-.365-.889-.446-1.656-.324-3.271.689-4.685 1.62-3.433 2.308-6.866 4.617-9.774 7.492l-.162 1.539z" clip-rule="evenodd"/>
        <path fill="#C3D4FA" fill-rule="evenodd" d="M257.913 125.334l1.211-2.632s-2.746-1.944-4.039-1.418l-4.321 4.05M242.646 131.692l.242-1.903.485 1.174-.727.729z" clip-rule="evenodd"/>
        <path fill="#1A4278" fill-rule="evenodd" d="M248.704 146.596l9.775 1.661-7.836.445-1.939-2.106z" clip-rule="evenodd"/>
    </g>
    <defs>
        <linearGradient id="prefix__paint0_linear" x1="468.372" x2="468.372" y1="122.503" y2="190.828" gradientUnits="userSpaceOnUse">
            <stop stop-color="#1A4278"/>
            <stop offset="1" stop-color="#182659"/>
        </linearGradient>
        <linearGradient id="prefix__paint1_linear" x1="490.534" x2="490.534" y1="90.149" y2="126.377" gradientUnits="userSpaceOnUse">
            <stop stop-color="#EB482E"/>
            <stop offset="1" stop-color="#B92D01"/>
        </linearGradient>
        <linearGradient id="prefix__paint2_linear" x1="469.675" x2="469.675" y1="87.978" y2="127.331" gradientUnits="userSpaceOnUse">
            <stop stop-color="#EB482E"/>
            <stop offset="1" stop-color="#B92D01"/>
        </linearGradient>
        <linearGradient id="prefix__paint3_linear" x1="455.921" x2="455.921" y1="83.145" y2="94.365" gradientUnits="userSpaceOnUse">
            <stop stop-color="#F27573"/>
            <stop offset="1" stop-color="#EA7E66"/>
        </linearGradient>
        <linearGradient id="prefix__paint4_linear" x1="476.193" x2="476.193" y1="83.702" y2="92.843" gradientUnits="userSpaceOnUse">
            <stop stop-color="#F27573"/>
            <stop offset="1" stop-color="#EA7E66"/>
        </linearGradient>
        <linearGradient id="prefix__paint5_linear" x1="25.396" x2="25.396" y1="266.325" y2="334.701" gradientUnits="userSpaceOnUse">
            <stop stop-color="#F17D87"/>
            <stop offset="1" stop-color="#F17DD7"/>
        </linearGradient>
        <linearGradient id="prefix__paint6_linear" x1="60.443" x2="60.443" y1="249.311" y2="331.184" gradientUnits="userSpaceOnUse">
            <stop stop-color="#F17D87"/>
            <stop offset="1" stop-color="#F17DD7"/>
        </linearGradient>
        <linearGradient id="prefix__paint7_linear" x1="45.745" x2="45.745" y1="224.769" y2="254.902" gradientUnits="userSpaceOnUse">
            <stop stop-color="#03918B"/>
            <stop offset="1" stop-color="#438AF4"/>
        </linearGradient>
        <linearGradient id="prefix__paint8_linear" x1="59.822" x2="59.822" y1="227.307" y2="257.551" gradientUnits="userSpaceOnUse">
            <stop stop-color="#4DC1BD"/>
            <stop offset="1" stop-color="#2FB7EC"/>
        </linearGradient>
        <linearGradient id="prefix__paint9_linear" x1="374.063" x2="374.063" y1="286.714" y2="312.616" gradientUnits="userSpaceOnUse">
            <stop stop-color="#EF5055"/>
            <stop offset="1" stop-color="#BE6384"/>
        </linearGradient>
        <linearGradient id="prefix__paint10_linear" x1="351.681" x2="351.681" y1="267.601" y2="318.903" gradientUnits="userSpaceOnUse">
            <stop stop-color="#EF5055"/>
            <stop offset="1" stop-color="#BE6384"/>
        </linearGradient>
        <linearGradient id="prefix__paint11_linear" x1="359.352" x2="359.352" y1="298.785" y2="375.99" gradientUnits="userSpaceOnUse">
            <stop stop-color="#1C4178"/>
            <stop offset="1" stop-color="#146179"/>
        </linearGradient>
        <linearGradient id="prefix__paint12_linear" x1="91.371" x2="91.371" y1="47.53" y2="119.705" gradientUnits="userSpaceOnUse">
            <stop stop-color="#F17D87"/>
            <stop offset="1" stop-color="#EC3343"/>
        </linearGradient>
        <linearGradient id="prefix__paint13_linear" x1="86.467" x2="86.467" y1="20.873" y2="73.684" gradientUnits="userSpaceOnUse">
            <stop stop-color="#1A4278"/>
            <stop offset="1" stop-color="#0E295E"/>
        </linearGradient>
        <linearGradient id="prefix__paint14_linear" x1="87.347" x2="87.347" y1="53.817" y2="66.14" gradientUnits="userSpaceOnUse">
            <stop stop-color="#4DC1BD"/>
            <stop offset="1" stop-color="#36A7A4"/>
        </linearGradient>
        <linearGradient id="prefix__paint15_linear" x1="113.878" x2="113.878" y1="21.376" y2="74.187" gradientUnits="userSpaceOnUse">
            <stop stop-color="#1A4278"/>
            <stop offset="1" stop-color="#0E295E"/>
        </linearGradient>
        <linearGradient id="prefix__paint16_linear" x1="108.22" x2="108.22" y1="53.817" y2="65.888" gradientUnits="userSpaceOnUse">
            <stop stop-color="#4DC1BD"/>
            <stop offset="1" stop-color="#36A7A4"/>
        </linearGradient>
        <linearGradient id="prefix__paint17_linear" x1="204.311" x2="204.311" y1="426.855" y2="452.506" gradientUnits="userSpaceOnUse">
            <stop stop-color="#D6EEF6"/>
            <stop offset="1" stop-color="#D2DEE1"/>
        </linearGradient>
        <linearGradient id="prefix__paint18_linear" x1="185.324" x2="185.324" y1="456.027" y2="529.208" gradientUnits="userSpaceOnUse">
            <stop stop-color="#1C4178"/>
            <stop offset="1" stop-color="#112C53"/>
        </linearGradient>
        <linearGradient id="prefix__paint19_linear" x1="190.742" x2="190.742" y1="419.394" y2="458.877" gradientUnits="userSpaceOnUse">
            <stop stop-color="#8ED2F3"/>
            <stop offset="1" stop-color="#83C7E8"/>
        </linearGradient>
        <linearGradient id="prefix__paint20_linear" x1="206.825" x2="206.825" y1="430.879" y2="456.53" gradientUnits="userSpaceOnUse">
            <stop stop-color="#D6EEF6"/>
            <stop offset="1" stop-color="#D2DEE1"/>
        </linearGradient>
        <linearGradient id="prefix__paint21_linear" x1="269.119" x2="269.119" y1="137.322" y2="164.184" gradientUnits="userSpaceOnUse">
            <stop stop-color="#C3D4FA"/>
            <stop offset="1" stop-color="#88CADF"/>
        </linearGradient>
        <linearGradient id="prefix__paint22_linear" x1="255.212" x2="255.212" y1="118.571" y2="149.998" gradientUnits="userSpaceOnUse">
            <stop stop-color="#C3D4FA"/>
            <stop offset="1" stop-color="#88CADF"/>
        </linearGradient>
        <linearGradient id="prefix__paint23_linear" x1="255.901" x2="255.901" y1="146.596" y2="226.137" gradientUnits="userSpaceOnUse">
            <stop stop-color="#1A4278"/>
            <stop offset="1" stop-color="#011938"/>
        </linearGradient>
        <linearGradient id="prefix__paint24_linear" x1="261.682" x2="261.682" y1="147.082" y2="226.502" gradientUnits="userSpaceOnUse">
            <stop stop-color="#1A4278"/>
            <stop offset="1" stop-color="#011938"/>
        </linearGradient>
        <linearGradient id="prefix__paint25_linear" x1="259.1" x2="259.1" y1="114.914" y2="124.16" gradientUnits="userSpaceOnUse">
            <stop stop-color="#C89360"/>
            <stop offset="1" stop-color="#9D6026"/>
        </linearGradient>
        <linearGradient id="prefix__paint26_linear" x1="250.256" x2="250.256" y1="122.518" y2="147.442" gradientUnits="userSpaceOnUse">
            <stop stop-color="#C3D4FA"/>
            <stop offset="1" stop-color="#88CADF"/>
        </linearGradient>
        <filter id="prefix__filter0_d" width="508.655" height="543" x="0" y="0" color-interpolation-filters="sRGB" filterUnits="userSpaceOnUse">
            <feFlood flood-opacity="0" result="BackgroundImageFix"/>
            <feColorMatrix in="SourceAlpha" values="0 0 0 0 0 0 0 0 0 0 0 0 0 0 0 0 0 0 127 0"/>
            <feOffset dy="4"/>
            <feGaussianBlur stdDeviation="2"/>
            <feColorMatrix values="0 0 0 0 0 0 0 0 0 0 0 0 0 0 0 0 0 0 0.05 0"/>
            <feBlend in2="BackgroundImageFix" result="effect1_dropShadow"/>
            <feBlend in="SourceGraphic" in2="effect1_dropShadow" result="shape"/>
        </filter>
    </defs>
</svg>
