<svg width="16" height="16" viewBox="0 0 16 16" fill="none" xmlns="http://www.w3.org/2000/svg">
<path fill-rule="evenodd" clip-rule="evenodd" d="M5.05008 1.65008C5.94654 1.23292 6.94607 1 8 1C11.866 1 15 4.13401 15 8C15 9.05393 14.7671 10.0535 14.3499 10.9499L12.801 9.40105C12.9306 8.9565 13 8.48636 13 8C13 5.23858 10.7614 3 8 3C7.51364 3 7.0435 3.06944 6.59895 3.19895L5.05008 1.65008ZM3.3593 2.7593L4.77714 4.17714C4.41519 4.4826 4.09721 4.83852 3.83407 5.23407L2.39971 3.79971C2.68395 3.42133 3.00565 3.07269 3.3593 2.7593ZM12.2003 13.6003L13.6 15L15 13.6L2.4 1L1 2.4L2.39971 3.79971C1.52081 4.96968 1 6.42402 1 8C1 11.866 4.13401 15 8 15C9.57598 15 11.0303 14.4792 12.2003 13.6003ZM12.2003 13.6003L10.7659 12.1659C11.1615 11.9028 11.5174 11.5848 11.8229 11.2229L13.2407 12.6407C12.9273 12.9944 12.5787 13.316 12.2003 13.6003ZM10.7659 12.1659C9.97379 12.6929 9.02276 13 8 13C5.23858 13 3 10.7614 3 8C3 6.97724 3.30708 6.02621 3.83407 5.23407L10.7659 12.1659Z" fill="#98ABB6"/>
<path d="M2.4 1L15 13.6L13.6 15L1 2.4L2.4 1Z" fill="#98ABB6"/>
</svg>
