<svg xmlns="http://www.w3.org/2000/svg" xmlns:xlink="http://www.w3.org/1999/xlink" width="40" height="40" viewBox="0 0 40 40">
    <defs>
        <path id="a" d="M0 0h40v40H0z"/>
        <rect id="c" width="24" height="28" x="4" y="4" rx="2"/>
        <rect id="d" width="22" height="4" x="5" y="16" rx="2"/>
    </defs>
    <g fill="none" fill-rule="evenodd">
        <mask id="b" fill="#fff">
            <use xlink:href="#a"/>
        </mask>
        <use fill="#D8D8D8" fill-opacity="0" fill-rule="nonzero" xlink:href="#a"/>
        <g mask="url(#b)">
            <g transform="translate(4 4)">
                <g fill-rule="nonzero">
                    <use fill="#FFF" xlink:href="#c"/>
                    <rect width="22" height="26" x="5" y="5" fill="#2F88EC" fill-opacity=".3" fill-rule="evenodd" stroke="#2F88EC" stroke-linejoin="square" stroke-width="2" rx="2"/>
                </g>
                <rect width="3" height="2" x="31" y="10" fill="#2F88EC" rx="1" transform="matrix(1 0 0 -1 0 22)"/>
                <rect width="8" height="2" x="22" y="10" fill="#2F88EC" rx="1" transform="matrix(1 0 0 -1 0 22)"/>
                <path fill="#FFF" fill-rule="nonzero" stroke="#2F88EC" stroke-width="2" d="M10 7h12V4a1 1 0 0 0-1-1h-4V2a1 1 0 0 0-2 0v1h-4a1 1 0 0 0-1 1v3z"/>
                <rect width="4" height="2" x="10" y="30" fill="#2F88EC" rx="1" transform="matrix(1 0 0 -1 0 62)"/>
                <rect width="3" height="2" x="15" y="30" fill="#2F88EC" rx="1" transform="matrix(1 0 0 -1 0 62)"/>
                <path fill="#FFF" fill-rule="nonzero" d="M4 12h24v12H4z"/>
                <circle cx="31" cy="20" r="1" fill="#FED428" fill-rule="nonzero"/>
                <rect width="3" height="2" x="9" y="24" fill="#2F88EC" rx="1" transform="matrix(1 0 0 -1 0 50)"/>
                <rect width="8" height="2" y="24" fill="#2F88EC" rx="1" transform="matrix(1 0 0 -1 0 50)"/>
                <g fill-rule="nonzero">
                    <use fill="#FFF" xlink:href="#d"/>
                    <use fill="#2F88EC" xlink:href="#d"/>
                </g>
                <path fill="#50E3C2" fill-rule="nonzero" d="M7 16h4v4H7a2 2 0 1 1 0-4z"/>
                <path fill="#FED428" stroke="#FFF" stroke-linecap="round" stroke-linejoin="round" d="M29.802 22.198l2.17 1.302-2.17 1.302-1.302 2.17-1.302-2.17-2.17-1.302 2.17-1.302 1.302-2.17 1.302 2.17z"/>
                <rect width="2" height="5" x="4" y="9" fill="#2F88EC" rx="1" transform="matrix(1 0 0 -1 0 23)"/>
                <circle cx="22" cy="2" r="2" fill="#EE6C6B" fill-rule="nonzero"/>
            </g>
        </g>
    </g>
</svg>
