<svg xmlns="http://www.w3.org/2000/svg" xmlns:xlink="http://www.w3.org/1999/xlink" width="256" height="160" viewBox="0 0 256 160">
    <defs>
        <path id="a" d="M0 0h256v160H0z"/>
        <path id="c" d="M0 0h24v24H0z"/>
    </defs>
    <g fill="none" fill-rule="evenodd">
        <mask id="b" fill="#fff">
            <use xlink:href="#a"/>
        </mask>
        <use fill="#E14D4C" fill-opacity="0" fill-rule="nonzero" xlink:href="#a"/>
        <g mask="url(#b)">
            <g transform="translate(12 -3)">
                <g fill="#EEF2F5">
                    <path d="M146.64 65.014c-5.94 1.591-9.47 7.682-7.883 13.604 1.587 5.921 7.689 9.431 13.63 7.84l23.05-6.177c5.941-1.592 12.043 1.918 13.63 7.84 1.587 5.92-1.943 12.012-7.884 13.603l-37.181 9.963c5.258-1.409 10.659 1.698 12.063 6.938l.66 2.465c1.405 5.241-1.72 10.632-6.977 12.04l-98.049 26.273c-5.94 1.591-12.043-1.918-13.63-7.84-1.586-5.921 1.943-12.012 7.884-13.604l23.05-6.176c5.942-1.592 9.472-7.683 7.885-13.604-1.587-5.922-7.689-9.432-13.63-7.84l-23.05 6.176c-5.941 1.592-12.044-1.918-13.63-7.839-1.587-5.921 1.943-12.012 7.884-13.604l38.417-10.294c5.941-1.592 9.471-7.683 7.884-13.604-1.586-5.922-7.689-9.431-13.63-7.84l-10.756 2.883c-5.941 1.592-12.044-1.918-13.63-7.84-1.587-5.921 1.943-12.012 7.884-13.604L162.81 14.715c5.94-1.592 12.043 1.918 13.63 7.84 1.586 5.92-1.943 12.012-7.884 13.603l41.49-11.117c5.942-1.592 12.044 1.918 13.63 7.84 1.587 5.92-1.943 12.012-7.884 13.604l-69.151 18.529z"/>
                    <g transform="rotate(-15 614.002 -425.31)">
                        <rect width="32" height="8" rx="4"/>
                        <rect width="12" height="8" x="36" rx="4"/>
                    </g>
                    <rect width="12" height="8" rx="4" transform="rotate(-15 131.679 -674.267)"/>
                </g>
                <path fill="#DDE6F9" stroke="#5685F1" stroke-width="4" d="M54 133h156V47a6 6 0 0 0-6-6H60a6 6 0 0 0-6 6v86z"/>
                <g transform="translate(74 98)">
                    <rect width="20" height="20" y="1" fill="#FFF" rx="3.333"/>
                    <rect width="21" height="3" x="6.243" y="7.121" fill="#EE6C6B" stroke="#EE6C6B" rx="1.5" transform="scale(-1 1) rotate(-45 0 49.042)"/>
                    <rect width="21" height="3" x="6.243" y="7.121" fill="#EE6C6B" stroke="#EE6C6B" rx="1.5" transform="rotate(-45 16.743 8.621)"/>
                </g>
                <g fill-rule="nonzero">
                    <path fill="#FFF" d="M54 131h52v4H54z"/>
                    <g fill="#5685F1" transform="translate(74 131)">
                        <rect width="6" height="4" rx="2"/>
                        <rect width="25" height="4" x="9" rx="2"/>
                    </g>
                </g>
                <path fill="#FFF" fill-rule="nonzero" d="M60 39h52v4H60z"/>
                <path fill="#C3D4FA" fill-opacity=".6" d="M204.14 39h-41.507a4 4 0 0 0-3.798 2.744L128 135h80.14a4 4 0 0 0 4-4V47a8 8 0 0 0-8-8z" style="mix-blend-mode:darken"/>
                <rect width="12" height="4" x="156" y="71" fill="#5685F1" fill-rule="nonzero" rx="2" style="mix-blend-mode:darken"/>
                <rect width="48" height="4" x="104" y="71" fill="#5685F1" fill-rule="nonzero" rx="2" style="mix-blend-mode:darken"/>
                <rect width="40" height="4" x="104" y="79" fill="#5685F1" fill-rule="nonzero" rx="2" style="mix-blend-mode:darken"/>
                <rect width="40" height="4" x="104" y="111" fill="#5685F1" fill-rule="nonzero" rx="2" style="mix-blend-mode:darken"/>
                <rect width="56" height="4" x="104" y="103" fill="#5685F1" fill-rule="nonzero" rx="2" style="mix-blend-mode:darken"/>
                <rect width="16" height="4" x="164" y="103" fill="#5685F1" fill-rule="nonzero" rx="2" style="mix-blend-mode:darken"/>
                <g fill-rule="nonzero">
                    <path fill="#FFF" d="M60 39h52v4H60z"/>
                    <g fill="#5685F1" transform="translate(58 39)">
                        <rect width="12" height="4" rx="2"/>
                        <rect width="6" height="4" x="22" rx="2"/>
                        <rect width="25" height="4" x="31" rx="2"/>
                    </g>
                </g>
                <path fill="#5685F1" fill-rule="nonzero" d="M108 35h48a4 4 0 0 1 4 4v8a2 2 0 0 1-2 2h-52a2 2 0 0 1-2-2v-8a4 4 0 0 1 4-4z"/>
                <circle cx="132" cy="35" r="8" fill="#5685F1" fill-rule="nonzero"/>
                <circle cx="132" cy="35" r="3" fill="#FFF" fill-rule="nonzero"/>
                <g transform="translate(74 63)">
                    <rect width="20" height="20" y="4" fill="#FFF" rx="3.333"/>
                    <g transform="translate(2)">
                        <mask id="d" fill="#fff">
                            <use xlink:href="#c"/>
                        </mask>
                        <use fill="#E87F7F" fill-opacity="0" xlink:href="#c"/>
                        <path fill="#2EE3AA" stroke="#2EE3AA" d="M4.5 12.5H21a1.5 1.5 0 0 1 0 3H3A1.5 1.5 0 0 1 1.5 14V5a1.5 1.5 0 0 1 3 0v7.5z" mask="url(#d)" transform="rotate(-45 10.5 9.5)"/>
                    </g>
                </g>
                <g transform="translate(0 95)">
                    <g stroke-linejoin="square" stroke-width="4" transform="matrix(1 0 0 -1 0 40)">
                        <rect width="60" height="36" x="2" y="2" fill="#FFF" stroke="#FFF" rx="4"/>
                        <rect width="60" height="36" x="2" y="2" stroke="#2FB7EC" stroke-opacity=".6" rx="4"/>
                    </g>
                    <path fill="#79D6FA" fill-opacity=".4" d="M24 36h40V4H24z" style="mix-blend-mode:darken"/>
                    <rect width="10" height="6" x="8" y="18" fill="#2EE3AA" rx="1"/>
                    <path fill="#FFF" stroke="#2FB7EC" stroke-opacity=".6" stroke-width="4" d="M26 16.898V2h12v14.898a3 3 0 0 0-1.692.182l-1.732.722-1.234-.617a3 3 0 0 0-2.684 0l-1.234.617-1.732-.722A3 3 0 0 0 26 16.898z"/>
                </g>
                <g fill="#2EE3AA" fill-rule="nonzero" transform="translate(142 53)">
                    <rect width="26" height="10" rx="2"/>
                    <rect width="8" height="10" x="34" rx="2"/>
                    <rect width="4" height="10" x="28" rx="2"/>
                    <rect width="12" height="10" x="44" rx="2"/>
                </g>
                <path fill="#FFF" fill-rule="nonzero" d="M208 71h4v60h-4z"/>
                <g fill-rule="nonzero" transform="rotate(-45 202.776 -163.495)">
                    <path fill="#FFF" stroke="#5685F1" stroke-width="4" d="M16 2h44v12H16z"/>
                    <path fill="#2EE3AA" stroke="#5685F1" stroke-width="4" d="M60 2v12h6a2 2 0 0 0 2-2V4a2 2 0 0 0-2-2h-6z"/>
                    <path fill="#FFF" stroke="#5685F1" stroke-width="4" d="M14.472 14H16V2h-1.528l-12 6 12 6z"/>
                    <path fill="#5685F1" d="M2.006 6.18L9 3v10L2.006 9.82a2 2 0 0 1 0-3.64z"/>
                    <path fill="#FFF" d="M14 12h40v4H14z"/>
                    <path fill="#5685F1" d="M14 12h14a2 2 0 1 1 0 4H14v-4z"/>
                    <rect width="4" height="4" x="32" y="12" fill="#5685F1" rx="2"/>
                    <rect width="12" height="4" x="44" y="12" fill="#5685F1" rx="2"/>
                    <rect width="24" height="4" x="38" y="6" fill="#5685F1" rx="2"/>
                </g>
                <rect width="120" height="4" x="98" y="131" fill="#5685F1" fill-rule="nonzero" rx="2"/>
            </g>
        </g>
    </g>
</svg>
