<svg width="38" height="36" viewBox="0 0 38 36" fill="none" xmlns="http://www.w3.org/2000/svg">
<path fill-rule="evenodd" clip-rule="evenodd" d="M4 0C16 0 28 0 28 0V34H15.9995L11.9995 30L7.99952 34L3.99976 30L0 34C0 34 0 5.21454 0 4C0 2 1.53937 0 4 0Z" fill="#7996F9"/>
<path fill-rule="evenodd" clip-rule="evenodd" d="M9.99976 6C9.99976 2.68629 7.31347 0 3.99976 0H27.9998C31.3135 0 33.9998 2.68629 33.9998 6H9.99976Z" fill="#ADC0FD"/>
<path d="M14.9998 17.4286C14.9998 16.6396 15.6393 16 16.4283 16H36.5712C37.3602 16 37.9998 16.6396 37.9998 17.4286V34.5714C37.9998 35.3604 37.3602 36 36.5712 36H16.4283C15.6393 36 14.9998 35.3604 14.9998 34.5714V17.4286Z" fill="#ADC0FD"/>
<path d="M31.9999 16H36.5713C37.3603 16 37.9999 16.6396 37.9999 17.4286V34.5714C37.9999 35.3604 37.3603 36 36.5713 36H31.9999V16Z" fill="#ADC0FD"/>
<path d="M19.9999 16L28.0001 16V22L26.0001 21L24.0179 22L22.0001 21L19.9999 22V16Z" fill="#67D3A6"/>
<rect x="24.9999" y="30" width="6" height="1" rx="0.5" fill="white"/>
<rect x="24.9999" y="32.0005" width="6" height="2" rx="1" fill="white"/>
<rect x="3.99976" y="8.00049" width="16" height="2" rx="1" fill="white"/>
<rect x="3.99976" y="12" width="8" height="2" rx="1" fill="white"/>
<rect x="3.99976" y="16" width="8" height="2" rx="1" fill="white"/>
<rect x="3.99976" y="20.0005" width="8" height="2" rx="1" fill="white"/>
</svg>
