<svg xmlns="http://www.w3.org/2000/svg" xmlns:xlink="http://www.w3.org/1999/xlink" width="40" height="40" viewBox="0 0 40 40">
    <defs>
        <rect id="b" width="56" height="56" rx="4"/>
        <filter id="a" width="121.4%" height="121.4%" x="-10.7%" y="-8.9%" filterUnits="objectBoundingBox">
            <feOffset dy="1" in="SourceAlpha" result="shadowOffsetOuter1"/>
            <feGaussianBlur in="shadowOffsetOuter1" result="shadowBlurOuter1" stdDeviation="1.5"/>
            <feColorMatrix in="shadowBlurOuter1" result="shadowMatrixOuter1" values="0 0 0 0 0.2471 0 0 0 0 0.2471 0 0 0 0 0.2667 0 0 0 0.15 0"/>
            <feMorphology in="SourceAlpha" operator="dilate" radius=".5" result="shadowSpreadOuter2"/>
            <feOffset in="shadowSpreadOuter2" result="shadowOffsetOuter2"/>
            <feColorMatrix in="shadowOffsetOuter2" result="shadowMatrixOuter2" values="0 0 0 0 0.2471 0 0 0 0 0.2471 0 0 0 0 0.2667 0 0 0 0.05 0"/>
            <feMerge>
                <feMergeNode in="shadowMatrixOuter1"/>
                <feMergeNode in="shadowMatrixOuter2"/>
            </feMerge>
        </filter>
    </defs>
    <g fill="none" fill-rule="evenodd" transform="translate(-628 -146)">
        <path fill="#F8FAFB" d="M0 0h1680v1200H0z"/>
        <rect width="488" height="132" x="596" y="114" fill="#1A4379" rx="4"/>
        <g transform="translate(620 138)">
            <use fill="#000" filter="url(#a)" xlink:href="#b"/>
            <use fill="#FFF" xlink:href="#b"/>
        </g>
        <path fill="#C4CDD5" fill-rule="nonzero" d="M667.376 163.492c-.32-.204-2.844-1.712-3.844-2.172l-1.24-3c.368-.992 1.076-3.772 1.2-4.256a1.336 1.336 0 0 0-.36-1.24l-1.956-1.944a1.328 1.328 0 0 0-1.24-.36c-.368.084-3.2.8-4.256 1.2l-3-1.24c-.436-.96-1.904-3.42-2.172-3.844a1.328 1.328 0 0 0-1.132-.636h-2.752c-.46 0-.887.236-1.132.624-.204.32-1.712 2.844-2.172 3.844l-3 1.24c-.992-.368-3.772-1.076-4.256-1.2a1.336 1.336 0 0 0-1.24.36l-1.944 1.956a1.328 1.328 0 0 0-.36 1.24c.084.368.8 3.2 1.2 4.256l-1.24 3c-.96.436-3.42 1.904-3.844 2.172-.395.24-.635.67-.636 1.132v2.748c0 .46.236.887.624 1.132.32.204 2.844 1.712 3.844 2.172l1.24 3c-.368.992-1.076 3.772-1.2 4.256-.101.448.035.916.36 1.24l1.944 1.944c.323.326.792.462 1.24.36.368-.084 3.2-.8 4.256-1.2l3 1.24c.436.96 1.904 3.42 2.172 3.844.242.4.677.643 1.144.64h2.748c.46 0 .887-.236 1.132-.624.204-.32 1.712-2.844 2.172-3.844l3-1.24c.992.368 3.772 1.076 4.256 1.2.448.1.916-.035 1.24-.36l1.944-1.944c.326-.323.462-.792.36-1.24-.084-.368-.8-3.2-1.2-4.256l1.24-3c.96-.436 3.42-1.904 3.844-2.172.4-.242.643-.677.64-1.144v-2.752a1.32 1.32 0 0 0-.624-1.132z"/>
        <path fill="#C4CDD5" fill-rule="nonzero" d="M649.376 146c.462 0 .891.241 1.132.636.268.424 1.736 2.884 2.172 3.844l3 1.24a6.33 6.33 0 0 1 .059-.022c-2.805 12.268-10.124 22.816-20.117 29.804a1.326 1.326 0 0 1-.81-.386l-1.944-1.944a1.336 1.336 0 0 1-.36-1.24c.124-.484.832-3.264 1.2-4.256l-1.24-3c-1-.46-3.524-1.968-3.844-2.172a1.34 1.34 0 0 1-.624-1.132v-2.748c0-.462.241-.891.636-1.132.424-.268 2.884-1.736 3.844-2.172l1.24-3c-.4-1.056-1.116-3.888-1.2-4.256a1.328 1.328 0 0 1 .36-1.24l1.944-1.956a1.336 1.336 0 0 1 1.24-.36c.484.124 3.264.832 4.256 1.2l3-1.24c.46-1 1.968-3.524 2.172-3.844a1.34 1.34 0 0 1 1.132-.624z"/>
        <path fill="#FFF" d="M647.989 178.444c-6.873-.006-12.44-5.583-12.433-12.455.006-6.873 5.583-12.44 12.455-12.433 6.873.006 12.44 5.583 12.433 12.455-.015 6.87-5.586 12.43-12.455 12.433z"/>
        <path fill="#EEF2F5" d="M637 165.99c.006-6.075 4.935-10.996 11.01-10.99 6.075.006 10.996 4.935 10.99 11.01-.014 6.072-4.938 10.987-11.01 10.99-6.075-.006-10.996-4.935-10.99-11.01z"/>
        <path fill="#5A7385" fill-opacity=".56" fill-rule="nonzero" d="M648.468 162.051a.708.708 0 0 1 .883-.472c.364.11.569.494.459.858l-2.278 7.512a.708.708 0 0 1-.883.472.688.688 0 0 1-.459-.858zm-5.164 1.2a.708.708 0 0 1 .99 0l.01.009a.68.68 0 0 1-.01.962L642.483 166l1.813 1.778a.68.68 0 0 1 0 .972.708.708 0 0 1-.991 0L640.5 166zm8.401 0a.708.708 0 0 1 .991 0L655.5 166l-2.804 2.75a.708.708 0 0 1-.99 0l-.01-.01a.68.68 0 0 1 .01-.962l1.812-1.778-1.813-1.778a.68.68 0 0 1 0-.972z"/>
    </g>
</svg>
