<svg xmlns="http://www.w3.org/2000/svg" width="412" height="161" fill="none" viewBox="0 0 412 161">
    <g opacity=".6">
        <path fill="#F9E8B2" d="M71.069 0h47.972v47.702H71.069zM271.35 126.948h34.104v33.912H271.35zM389.563 36.649h22.374v22.248h-22.374z" opacity=".8"/>
        <path fill="#F9E8B2" d="M201.691 71.329h13.161v13.087h-13.161z"/>
        <path fill="#F9E8B2" d="M0 89.65h25.664v25.519H0z" opacity=".8"/>
        <path stroke="#FEE38E" stroke-dasharray="5 5" stroke-width="2" d="M71.069 22.863H7.897V89.65M25.335 102.246h63.172V47.109M304.951 149.195h99.28V58.877M282.902 126.948V76.563h-68.379M404.231 37.303v-13.25H118.54"/>
    </g>
    <path fill="url(#a)" d="M10.699 138.29C22.605 152.401 40.024 161 65.379 161c32.853 0 56.004-19.182 56.004-49.83 0-29.986-22.27-47.404-46.964-47.404-14.11 0-26.238 5.732-33.293 12.788V34h70.555V11.29H15.329v82.241l18.3 5.292c9.26-8.82 19.624-12.788 32.191-12.788 18.08 0 29.545 10.363 29.545 26.238 0 14.331-11.685 25.797-30.206 25.797-16.537 0-29.766-6.174-39.688-17.419L10.7 138.29zm133.308-53.358c0 37.042 17.639 76.068 58.869 76.068 41.231 0 58.87-39.026 58.87-76.068 0-37.041-17.639-75.847-58.87-75.847-41.23 0-58.869 38.806-58.869 75.847zm91.501 0c0 28.002-8.599 53.138-32.632 53.138-24.033 0-32.632-25.136-32.632-53.138 0-28.001 8.599-52.916 32.632-52.916 24.033 0 32.632 24.915 32.632 52.916zm48.774 0c0 37.042 17.639 76.068 58.87 76.068 41.231 0 58.87-39.026 58.87-76.068 0-37.041-17.639-75.847-58.87-75.847-41.231 0-58.87 38.806-58.87 75.847zm91.502 0c0 28.002-8.599 53.138-32.632 53.138-24.033 0-32.632-25.136-32.632-53.138 0-28.001 8.599-52.916 32.632-52.916 24.033 0 32.632 24.915 32.632 52.916z"/>
    <path fill="url(#b)" d="M234.085 71.462c-1.403-8.521-5.05-11.907-5.05-11.907l3.349 12.39c.01 1.444 1.191 5.73 1.414 10.566l1.562-.149s.075-1.711-1.275-10.9z"/>
    <path fill="url(#c)" d="M177.605 107.833c-4.082-19.596-6.669-37.686-6.669-37.686-.536-4.356 3.741-8.102 6.824-10.701 6.08-2.42 26.055-5.144 33.499-5.583 3.805.409 12.694 2.135 17.814 5.767 3.261 9.19 8.728 31.438 4.502 46.915-3.81 17.204-11.063 24.878-14.213 26.565-3.67 2.714-11.161 7.292-23.737 4.316-4.769-1.089-7.432-3.407-8.872-5.662-4.4-6.887-6.046-9.042-9.148-23.931z"/>
    <path fill="#15405E" d="M230.263 33.419s-5.022-3.702-8.389-16.426l-2.958.111 3.609 20.482c2.538-.02 7.738-4.167 7.738-4.167z"/>
    <path fill="#B0E2F8" d="M196.257 55.075v3.447c.835 3.744 3.804 6.558 7.316 7.028 4.255.568 8.59-2.402 9.712-7.051-1.662-8.654-1.215-10.217-1.215-10.217.316-.074 2.437 0 4.321-.48l.019-.006c1.147-.328 4.016-1.15 6.005-3.175 1.862-1.896 2.326-4.21 2.626-5.793.845-4.42-2.174-9.458-3.26-14.432l-2.568-9.04-30.21 8.594 8.543 20.706-1.289 10.42z"/>
    <path fill="#C4C4C4" d="M301.765 25.536c3.9 4.859 4.214 6.845 6.749 8.004 2.536 1.16 11.463 7.105 7.89 12.211l-8.581 4.404-.25.13-1.629 3.543 9.726 22.87s20.947-6.922 21.417 6.782c.47 13.704-1.176 17.251-1.443 24.511-.267 7.259-1.194 9.265.562 9.458 1.756.194 2.969-4.461 2.969-4.461s.135-.204.373-.587c3.207-5.136 25.3-42.998-.054-73.487 0 0-13.045-2.311-14.549-17.727-1.036-10.655-8.768-10.598-14.076-9.035a16.941 16.941 0 0 0-4.848 2.174 22.56 22.56 0 0 0-3.69 3.518c-1.697 2.124-2.799 4.901-.566 7.692z"/>
    <path fill="#000" d="M307.573 50.285l-1.629 3.543 9.726 22.87s20.947-6.922 21.417 6.782c.47 13.704-1.176 17.251-1.443 24.511-.267 7.259-1.194 9.265.562 9.458 1.756.194 2.969-4.461 2.969-4.461s.135-.204.373-.587c1.623-6.639 10.426-45.55-5.991-45.238 0 0-13.81 4.691-15.64 2.012-1.448-2.122-7.599-14.086-10.097-18.992l-.247.102zM302.335 17.811l6.998 9.972s7.921 13.453 9.907 13.14a9.037 9.037 0 0 1 1.778-.012 3.433 3.433 0 0 0 2.849-5.506c-2.802-3.673-7.946-10.625-8.174-12.069-.228-1.444-3.269-7.996-4.799-11.21a16.941 16.941 0 0 0-4.848 2.175 22.548 22.548 0 0 0-3.711 3.51z" opacity=".1"/>
    <path fill="#4588E5" d="M61.61 123.673c1.058 2.864 6.89 13.811 9.44 18.594l1.194 2.251s.149 3.739 9.73.18c9.581-3.559 232.816-70.082 232.816-70.082l1.924-4.183-8.79-16.92-243.755 64.589s-3.929 1.871-2.559 5.571z"/>
    <path fill="#000" d="M71.05 142.268l1.194 2.25s.149 3.74 9.73.18c9.581-3.559 232.816-70.081 232.816-70.081l1.924-4.184-245.663 71.835z" opacity=".1"/>
    <path fill="#B0E2F8" fill-rule="evenodd" d="M166.049 79.858s-11.524 25.017-12.653 27.922c-1.129 2.907-2.111 6.462 1.186 9.296 3.296 2.834 4.326 2.854 18.056.142 0 0 47.31-9.48 53.157-10.564 2.833.064 6.898.026 10.897-.525 1.02-.14 2.442-.369 3.293-1.489.944-1.242.733-2.988.646-3.712-.089-.734-.2-1.648-.812-2.462-1.44-1.912-4.396-1.582-4.656-1.55l-1.985.228s3.718-2.548 2.743-3.344c-.974-.796-2.795.639-5.586 2.296-2.789 1.656-6.101 3.998-7.846 4.284-1.747.286-49.465 2.937-49.465 2.937l8.611-14.876-15.586-8.583z" clip-rule="evenodd"/>
    <path fill="url(#d)" fill-rule="evenodd" d="M161.566 88.447c5.276 2.71 10.552 5.418 15.829 8.127 0 0 11.105-17.513 12.427-20.958 1.321-3.445 2.686-11.85-5.006-15.024-2.923-1.205-5.252-1.594-7.314-.983-3.644 1.078-5.814 4.228-9.392 11.744-2.288 4.806-3.719 8.915-6.544 17.094z" clip-rule="evenodd"/>
    <path fill="#93D4F0" d="M201.987 43.26c2.801 3.336 6.578 4.778 10.064 5.022-2.796 1.69-12.91-.949-14.566-2.083l4.502-2.94z"/>
    <path fill="#15405E" d="M199.197 29.307l5.25-4.906c2.548.298 7.329-1.401 11.492-2.832 4.163-1.431 4.49-3.706 5.953-4.465-.744-6.846-5.878-11.608-9.227-13.022-6.107-2.579-22.609-3.992-30.17 12.676-5.843 12.88.813 22.603 8.293 27.48 1.612 1.175 5.328 3.493 7.293 3.374l8.036-3.348c-3.334 0-5.457-4.911-6.102-7.367-2.385-1.138-6.672-3.648-5.208-6.697.893-1.86 2.056-1.892 4.39-.893z"/>
    <defs>
        <linearGradient id="a" x1="204.73" x2="204.73" y1="-44.092" y2="85.551" gradientUnits="userSpaceOnUse">
            <stop stop-color="#C9E0FF"/>
            <stop offset="1" stop-color="#E8E8E8"/>
        </linearGradient>
        <linearGradient id="b" x1="237.244" x2="226.376" y1="65.595" y2="82.796" gradientUnits="userSpaceOnUse">
            <stop stop-color="#FFC72C"/>
            <stop offset="1" stop-color="#EF8D2E"/>
        </linearGradient>
        <linearGradient id="c" x1="210.624" x2="202.206" y1="60.777" y2="155.711" gradientUnits="userSpaceOnUse">
            <stop stop-color="#FFC72C"/>
            <stop offset="1" stop-color="#EF8D2E"/>
        </linearGradient>
        <linearGradient id="d" x1="166.68" x2="204.783" y1="74.4" y2="94.219" gradientUnits="userSpaceOnUse">
            <stop stop-color="#FFC72C"/>
            <stop offset="1" stop-color="#EF8D2E"/>
        </linearGradient>
    </defs>
</svg>
