<svg xmlns="http://www.w3.org/2000/svg" xmlns:xlink="http://www.w3.org/1999/xlink" width="16" height="16" viewBox="0 0 16 16">
    <defs>
        <path id="a" d="M8 12c1.829 0 3.698-1.247 5.611-4C11.698 5.247 9.83 4 8 4 6.171 4 4.302 5.247 2.389 8 4.302 10.753 6.17 12 8 12zM8 2c2.832 0 5.496 1.943 8 6-2.504 4.057-5.168 6-8 6s-5.496-1.943-8-6c2.504-4.057 5.168-6 8-6zm0 9.002a3.002 3.002 0 1 1 0-6.004 3.002 3.002 0 0 1 0 6.004zM8 9a1 1 0 1 0 0-2 1 1 0 0 0 0 2z"/>
    </defs>
    <g fill="none" fill-rule="evenodd">
        <mask id="b" fill="#fff">
            <use xlink:href="#a"/>
        </mask>
        <g fill="#4A5F6E" mask="url(#b)">
            <path d="M0 0h16v16H0z"/>
        </g>
    </g>
</svg>
