<svg width="16" height="12" viewBox="0 0 16 12" fill="none" xmlns="http://www.w3.org/2000/svg">
<path fill-rule="evenodd" clip-rule="evenodd" d="M16 5.99998C13.4955 1.9429 10.8323 0 8 0C5.16769 0 2.50444 1.94291 0 6.00002C2.50445 10.0571 5.1677 12 8 12C10.8323 12 13.4956 10.0571 16 5.99998ZM13.6112 5.99999C11.6983 8.75257 9.82865 10 8 10C6.17135 10 4.30169 8.75258 2.38878 6.00001C4.30168 3.24743 6.17135 2 8 2C9.82864 2 11.6983 3.24742 13.6112 5.99999Z" fill="#376EEE"/>
<path fill-rule="evenodd" clip-rule="evenodd" d="M4.99817 6C4.99817 7.65789 6.34215 9.00187 8.00004 9.00187C9.65793 9.00187 11.0019 7.65789 11.0019 6C11.0019 4.34211 9.65793 2.99812 8.00004 2.99812C6.34215 2.99812 4.99817 4.34211 4.99817 6ZM9.00004 6C9.00004 6.55228 8.55233 7 8.00004 7C7.44776 7 7.00004 6.55228 7.00004 6C7.00004 5.44771 7.44776 5 8.00004 5C8.55233 5 9.00004 5.44771 9.00004 6Z" fill="#376EEE"/>
</svg>
