<svg xmlns="http://www.w3.org/2000/svg" width="12" height="8" viewBox="0 0 24 16">
    <g fill="#192A32" fill-rule="nonzero">
        <path d="M14.5 13.227c2.449 0 5.22-1.875 7.448-5.174-2.036-2.913-4.652-4.326-7.448-4.326-2.796 0-5.412 1.413-7.448 4.326 2.228 3.3 5 5.174 7.448 5.174zM14.5 2c3.363 0 6.91 1.727 9.5 6.045-2.59 4.319-6.137 6.91-9.5 6.91-3.363 0-6.91-2.591-9.5-6.91C7.59 3.727 11.137 2 14.5 2z"/>
        <path d="M7.449 7.517c-.181.226-.304.402-.368.528 0 .172 1.28 1.903 2.73 3.156-.253 1.56-1.466 2.727-3.674 2.952V15.7H4.522v-1.53c-1.785-.153-3.077-.833-4.012-1.768l1.309-1.836a5.02 5.02 0 0 0 2.703 1.445V9.342C2.771 8.917.867 8.237.867 5.942c0-1.734 1.377-3.196 3.655-3.417V.944h1.615v1.615c1.377.136 2.533.68 3.451 1.513L8.245 5.84c-.595-.561-1.343-.918-2.108-1.105v2.38c.437.113.885.24 1.312.402zm-4.1-1.779c0 .527.544.816 1.326 1.02V4.599c-.867.085-1.326.527-1.326 1.139zm2.635 6.324c.969-.136 1.411-.663 1.411-1.224 0-.629-.595-.918-1.411-1.156v2.38zM14.5 9.773a1.727 1.727 0 1 0 0-3.455 1.727 1.727 0 0 0 0 3.455zm0 1.727a3.455 3.455 0 1 1 0-6.91 3.455 3.455 0 0 1 0 6.91z"/>
    </g>
</svg>
