<svg width="28" height="29" viewBox="0 0 28 29" fill="none" xmlns="http://www.w3.org/2000/svg">
<mask id="path-2-inside-1" fill="white">
<path fill-rule="evenodd" clip-rule="evenodd" d="M4.90801 11.5692C4.6515 11.7576 4.5 12.0569 4.5 12.3751L4.50004 23.1092C4.50004 23.6614 4.94775 24.1092 5.50004 24.1092H22.5C23.0523 24.1092 23.5 23.6614 23.5 23.1092L23.5 12.3751C23.5 12.0569 23.3485 11.7576 23.092 11.5692L14.592 5.32565C14.2398 5.06691 13.7603 5.06691 13.408 5.32565L4.90801 11.5692ZM13.4237 18.5701H9.00977V22.9841H13.4237V18.5701ZM14.4199 18.5701H18.8338V22.9841H14.4199V18.5701ZM13.4481 13.125H9.0342V17.5389H13.4481V13.125Z"/>
</mask>
<path fill-rule="evenodd" clip-rule="evenodd" d="M4.90801 11.5692C4.6515 11.7576 4.5 12.0569 4.5 12.3751L4.50004 23.1092C4.50004 23.6614 4.94775 24.1092 5.50004 24.1092H22.5C23.0523 24.1092 23.5 23.6614 23.5 23.1092L23.5 12.3751C23.5 12.0569 23.3485 11.7576 23.092 11.5692L14.592 5.32565C14.2398 5.06691 13.7603 5.06691 13.408 5.32565L4.90801 11.5692ZM13.4237 18.5701H9.00977V22.9841H13.4237V18.5701ZM14.4199 18.5701H18.8338V22.9841H14.4199V18.5701ZM13.4481 13.125H9.0342V17.5389H13.4481V13.125Z" fill="#376EEE"/>
<path d="M4.5 12.3751L3.5 12.3751L3.5 12.3752L4.5 12.3751ZM4.90801 11.5692L4.31602 10.7633L4.31602 10.7633L4.90801 11.5692ZM4.50004 23.1092L5.50004 23.1092L5.50004 23.1092L4.50004 23.1092ZM23.5 23.1092L22.5 23.1092L22.5 23.1092L23.5 23.1092ZM23.5 12.3751L24.5 12.3751L24.5 12.3751L23.5 12.3751ZM23.092 11.5692L22.5 12.3751L22.5 12.3751L23.092 11.5692ZM14.592 5.32565L15.184 4.51971L15.184 4.51971L14.592 5.32565ZM13.408 5.32565L14 6.13159L14 6.13159L13.408 5.32565ZM9.00977 18.5701V17.5701C8.45748 17.5701 8.00977 18.0179 8.00977 18.5701H9.00977ZM13.4237 18.5701H14.4237C14.4237 18.0179 13.976 17.5701 13.4237 17.5701V18.5701ZM9.00977 22.9841H8.00977C8.00977 23.5364 8.45748 23.9841 9.00977 23.9841V22.9841ZM13.4237 22.9841V23.9841C13.976 23.9841 14.4237 23.5364 14.4237 22.9841H13.4237ZM18.8338 18.5701H19.8338C19.8338 18.0179 19.3861 17.5701 18.8338 17.5701V18.5701ZM14.4199 18.5701V17.5701C13.8676 17.5701 13.4199 18.0179 13.4199 18.5701H14.4199ZM18.8338 22.9841V23.9841C19.3861 23.9841 19.8338 23.5364 19.8338 22.9841H18.8338ZM14.4199 22.9841H13.4199C13.4199 23.5364 13.8676 23.9841 14.4199 23.9841V22.9841ZM9.0342 13.125V12.125C8.48191 12.125 8.0342 12.5727 8.0342 13.125H9.0342ZM13.4481 13.125H14.4481C14.4481 12.5727 14.0004 12.125 13.4481 12.125V13.125ZM9.0342 17.5389H8.0342C8.0342 18.0912 8.48191 18.5389 9.0342 18.5389V17.5389ZM13.4481 17.5389V18.5389C14.0004 18.5389 14.4481 18.0912 14.4481 17.5389H13.4481ZM5.5 12.3751L5.5 12.3751L4.31602 10.7633C3.803 11.1401 3.5 11.7386 3.5 12.3751H5.5ZM5.50004 23.1092L5.5 12.3751L3.5 12.3752L3.50004 23.1092L5.50004 23.1092ZM5.50004 23.1092L5.50004 23.1092L3.50004 23.1092C3.50004 24.2137 4.39547 25.1092 5.50004 25.1092V23.1092ZM22.5 23.1092H5.50004V25.1092H22.5V23.1092ZM22.5 23.1092L22.5 23.1092V25.1092C23.6046 25.1092 24.5 24.2137 24.5 23.1091L22.5 23.1092ZM22.5 12.3751L22.5 23.1092L24.5 23.1091L24.5 12.3751L22.5 12.3751ZM22.5 12.3751L22.5 12.3751L24.5 12.3751C24.5 11.7386 24.197 11.1401 23.684 10.7633L22.5 12.3751ZM14 6.13159L22.5 12.3751L23.684 10.7633L15.184 4.51971L14 6.13159ZM14 6.13159L14 6.13159L15.184 4.51971C14.4795 4.00222 13.5205 4.00222 12.816 4.51971L14 6.13159ZM5.5 12.3751L14 6.13159L12.816 4.51971L4.31602 10.7633L5.5 12.3751ZM9.00977 19.5701H13.4237V17.5701H9.00977V19.5701ZM10.0098 22.9841V18.5701H8.00977V22.9841H10.0098ZM13.4237 21.9841H9.00977V23.9841H13.4237V21.9841ZM12.4237 18.5701V22.9841H14.4237V18.5701H12.4237ZM18.8338 17.5701H14.4199V19.5701H18.8338V17.5701ZM19.8338 22.9841V18.5701H17.8338V22.9841H19.8338ZM14.4199 23.9841H18.8338V21.9841H14.4199V23.9841ZM13.4199 18.5701V22.9841H15.4199V18.5701H13.4199ZM9.0342 14.125H13.4481V12.125H9.0342V14.125ZM10.0342 17.5389V13.125H8.0342V17.5389H10.0342ZM13.4481 16.5389H9.0342V18.5389H13.4481V16.5389ZM12.4481 13.125V17.5389H14.4481V13.125H12.4481Z" fill="#376EEE" mask="url(#path-2-inside-1)"/>
</svg>
