<svg xmlns="http://www.w3.org/2000/svg" width="40" height="40" viewBox="0 0 40 40">
    <defs>
        <linearGradient id="a" x1="0%" y1="32%" y2="68%">
            <stop offset="0%" stop-color="#2F88EC"/>
            <stop offset="100%" stop-color="#326BEE"/>
        </linearGradient>
        <linearGradient id="b" x1="39.349%" x2="60.651%" y1="0%" y2="100%">
            <stop offset="0%" stop-color="#2F88EC"/>
            <stop offset="100%" stop-color="#1D4BEA"/>
        </linearGradient>
    </defs>
    <g fill="none" fill-rule="nonzero">
        <circle cx="20" cy="20" r="20" fill="#E6F7FF"/>
        <circle cx="20" cy="17" r="6" fill="#FFE380"/>
        <path fill="#FFF" d="M15 30h10v-3.182l.5-.289A10.994 10.994 0 0 0 31 17c0-6.075-4.925-11-11-11S9 10.925 9 17c0 3.973 2.123 7.575 5.5 9.529l.5.289V30z"/>
        <path fill="url(#a)" d="M25 30H15v1a5 5 0 0 0 10 0v-1z"/>
        <circle cx="20" cy="17" r="6" fill="#CEF2FD"/>
        <path fill="#8BDCFB" d="M20 11a6 6 0 1 1 0 12V11z"/>
        <path fill="url(#b)" d="M23 20v6a1 1 0 0 1-2 0v-3.17c-.647.23-1.353.23-2 0V30h-2V20a3 3 0 0 1 6 0zm-3 1a1 1 0 1 0 0-2 1 1 0 0 0 0 2z"/>
        <path fill="#FFF" d="M20 21a1 1 0 1 1 0-2 1 1 0 0 1 0 2z"/>
    </g>
</svg>
