<svg width="28" height="28" viewBox="0 0 28 28" fill="none" xmlns="http://www.w3.org/2000/svg">
<path d="M14 16.7273C15.5062 16.7273 16.7273 15.5062 16.7273 14C16.7273 12.4937 15.5062 11.2727 14 11.2727C12.4937 11.2727 11.2727 12.4937 11.2727 14C11.2727 15.5062 12.4937 16.7273 14 16.7273Z" stroke="#5A7385" stroke-miterlimit="10" stroke-linecap="square"/>
<path d="M24 15.3636V12.6364L21.0886 12.3936C20.9041 11.5759 20.5809 10.8123 20.1468 10.125L22.0355 7.89318L20.1068 5.96455L17.875 7.85318C17.1873 7.41864 16.4241 7.09591 15.6064 6.91136L15.3636 4H12.6364L12.3936 6.91136C11.5759 7.09591 10.8123 7.41909 10.125 7.85318L7.89318 5.96455L5.96455 7.89318L7.85318 10.125C7.41864 10.8127 7.09591 11.5759 6.91136 12.3936L4 12.6364V15.3636L6.91136 15.6064C7.09591 16.4241 7.41909 17.1877 7.85318 17.875L5.96455 20.1068L7.89318 22.0355L10.125 20.1468C10.8127 20.5814 11.5759 20.9041 12.3936 21.0886L12.6364 24H15.3636L15.6064 21.0886C16.4241 20.9041 17.1877 20.5809 17.875 20.1468L20.1068 22.0355L22.0355 20.1068L20.1468 17.875C20.5814 17.1873 20.9041 16.4241 21.0886 15.6064L24 15.3636Z" stroke="#5A7385" stroke-miterlimit="10" stroke-linecap="square"/>
</svg>
