<svg width="24" height="24" viewBox="0 0 24 24" fill="none" xmlns="http://www.w3.org/2000/svg">
<path fill-rule="evenodd" clip-rule="evenodd" d="M12 2.75C6.89137 2.75 2.75 6.89137 2.75 12C2.75 17.1086 6.89137 21.25 12 21.25C17.1086 21.25 21.25 17.1086 21.25 12C21.25 6.89137 17.1086 2.75 12 2.75ZM1.25 12C1.25 6.06294 6.06294 1.25 12 1.25C17.9371 1.25 22.75 6.06294 22.75 12C22.75 17.9371 17.9371 22.75 12 22.75C6.06294 22.75 1.25 17.9371 1.25 12ZM17.5303 8.46967C17.8232 8.76256 17.8232 9.23744 17.5303 9.53033L10.5303 16.5303C10.3826 16.6781 10.18 16.7575 9.97122 16.7494C9.76246 16.7414 9.56651 16.6467 9.43056 16.4881L6.43056 12.9881C6.16099 12.6736 6.19741 12.2001 6.51191 11.9306C6.8264 11.661 7.29988 11.6974 7.56944 12.0119L10.0424 14.897L16.4697 8.46967C16.7626 8.17678 17.2374 8.17678 17.5303 8.46967Z" fill="#10774C"/>
</svg>
