<svg xmlns="http://www.w3.org/2000/svg" xmlns:xlink="http://www.w3.org/1999/xlink" width="24" height="24" viewBox="0 0 24 24">
    <defs>
        <circle id="a" cx="12" cy="12" r="12"/>
    </defs>
    <g fill="none" fill-rule="evenodd">
        <g>
            <use fill="#FFF" xlink:href="#a"/>
            <use fill="#92F1D3" fill-opacity=".2" xlink:href="#a"/>
        </g>
        <g fill-rule="nonzero">
            <path fill="#92F1D3" d="M24 12c0 6.627-5.373 12-12 12S0 18.627 0 12 5.373 0 12 0a12 12 0 0 1 10.808 6.779l-1.545 1.447A10.003 10.003 0 0 0 12 2C6.477 2 2 6.477 2 12s4.477 10 10 10 10-4.477 10-10c0-.082.038-.211.114-.388A.983.983 0 0 1 24 12z"/>
            <path fill="#2EE3AA" d="M11.513 14.339l10.14-9.449c.116.145.288.388.517.73.23.34.442.727.638 1.159l-10.552 9.898c-.41.43-1.076.43-1.487 0L6.308 12a1.14 1.14 0 0 1 0-1.559c.41-.43 1.076-.43 1.487 0l3.718 3.898z"/>
        </g>
    </g>
</svg>
