<svg width="20" height="20" viewBox="0 0 20 20" fill="none" xmlns="http://www.w3.org/2000/svg">
<path d="M12.6161 10.0084C12.9362 9.99607 13.2009 9.86657 13.4103 9.65067C13.6196 9.43476 13.7242 9.18185 13.7242 8.89192C13.7242 8.39225 13.4841 7.6803 13.0039 7.48907L6.50075 5.07796C6.36167 5.0264 6.21453 5 6.0662 5H5.73975C5.04939 5 4.48975 5.55964 4.48975 6.25V12.3854C4.48975 12.9432 4.8594 13.4336 5.39571 13.5871L10.5148 15.0527C10.7984 15.1338 11.1015 15.1121 11.3706 14.9914L17.634 12.1813C18.0813 11.9806 18.3692 11.536 18.3692 11.0457V11.0457C18.3692 10.4728 17.9048 10.0084 17.3319 10.0084H12.6161ZM12.6161 10.0084L10.2581 9.99438C10.1076 9.99349 9.95841 9.9654 9.81784 9.91147L8.4144 9.37308" stroke="#0E161C" stroke-width="1.25" stroke-linecap="round"/>
<path d="M1.6665 6.25C1.6665 5.55964 2.22615 5 2.9165 5H3.2396C3.92996 5 4.4896 5.55964 4.4896 6.25V12.0777C4.4896 12.7681 3.92996 13.3277 3.2396 13.3277H2.9165C2.22615 13.3277 1.6665 12.7681 1.6665 12.0777V6.25Z" stroke="#0E161C" stroke-width="1.25"/>
</svg>
