<svg width="345" height="160" viewBox="0 0 345 160" fill="none" xmlns="http://www.w3.org/2000/svg">
<g clip-path="url(#clip0_888_76199)">
<rect width="345" height="160" rx="4" fill="#98ABB6"/>
<path d="M181.433 76.4638C181.433 76.4638 184.82 68.2704 188.546 71.1066C190.239 72.3671 189.562 76.7789 188.207 82.1361C186.514 89.6992 183.127 98.5229 183.127 98.5229" fill="#965C4D"/>
<path d="M164.498 68.585H145.531V127.514H164.498V68.585Z" fill="#965C4D"/>
<path d="M173.64 85.602C173.64 85.602 177.027 77.4086 180.753 80.2448C182.446 81.5053 181.769 85.9171 180.414 91.2743C178.721 98.8374 175.334 107.661 175.334 107.661" fill="#965C4D"/>
<path d="M226.817 213.23C219.705 199.995 214.286 190.541 207.173 177.305C197.351 158.397 187.529 139.49 177.707 120.582C168.224 123.103 160.773 124.679 158.063 124.994C157.386 124.994 156.031 125.309 155.015 124.679C153.66 123.733 153.321 121.842 153.321 121.842L150.273 99.7833C152.983 101.674 155.692 103.88 158.402 105.771C159.079 106.401 159.757 107.031 160.434 107.662C161.45 108.607 163.143 108.922 164.498 108.292C165.853 107.662 166.192 106.086 165.514 104.51C170.595 105.771 168.563 99.1531 168.563 99.1531C168.901 99.1531 169.579 99.1531 169.917 98.8379C170.933 98.2077 170.933 97.2623 171.272 96.9471C171.949 94.4261 169.579 91.5899 169.24 90.9597C165.853 86.5479 160.773 84.0268 154.337 80.2453C151.628 78.6696 147.902 80.5604 147.902 80.5604L145.87 60.3921L140.112 82.136C140.112 82.136 133.677 94.7412 139.096 119.006C141.806 131.296 145.532 142.956 150.951 155.246V154.931C155.692 166.906 160.434 178.881 165.176 191.171C173.643 210.394 182.788 228.987 190.916 241.907C194.642 247.894 201.416 257.348 212.931 261.13C232.236 267.117 248.155 254.827 249.171 254.197C257.234 259.005 242.993 207.655 226.817 213.23Z" fill="#965C4D"/>
<path d="M145.529 65.4338C144.513 55.6648 143.835 46.2109 142.819 36.4419L142.48 30.1393C142.142 26.988 145.529 24.467 148.916 25.0972L177.027 31.3998C179.398 32.0301 181.43 33.9209 181.43 36.4419C184.817 64.8036 187.865 92.8501 191.252 121.212C191.252 121.842 191.252 123.103 190.575 124.048C189.559 125.309 187.865 125.624 184.139 126.254C183.123 126.569 179.736 126.884 172.963 128.145C167.882 129.09 165.511 129.09 164.834 129.405C158.738 130.666 157.383 130.351 155.689 129.72C155.351 129.405 154.673 129.09 154.335 128.145C154.335 127.83 153.996 127.83 153.996 127.514C153.657 126.254 153.657 125.624 153.657 124.993L145.529 65.4338Z" fill="#376EEE"/>
<path d="M190.914 115.539C180.076 116.799 168.56 118.06 157.722 119.321C154.335 91.274 151.287 62.9123 147.9 34.8657C159.077 36.7565 170.931 39.9078 182.108 41.4834C184.817 66.6938 187.866 90.3286 190.914 115.539Z" fill="white"/>
<path d="M147.226 34.5513C158.741 36.7572 169.918 38.648 181.434 40.8539" stroke="#152934" stroke-width="1.41755" stroke-miterlimit="10" stroke-linecap="round" stroke-linejoin="round"/>
<path d="M157.386 119.321C168.224 118.06 179.401 116.8 190.239 115.854" stroke="#152934" stroke-width="1.41755" stroke-miterlimit="10" stroke-linecap="round" stroke-linejoin="round"/>
<path d="M150.271 25.4121C149.593 25.4121 148.577 25.4121 147.9 26.0424C146.545 26.9878 146.545 28.8785 146.545 29.5088C146.545 35.8114 156.706 113.648 158.061 122.787C158.061 124.048 159.415 125.939 161.109 127.199C162.125 127.829 163.141 128.46 163.818 128.775" stroke="#152934" stroke-width="1.41755" stroke-miterlimit="10" stroke-linecap="round" stroke-linejoin="round"/>
<path d="M158.742 54.0891C161.548 54.0891 163.823 51.9728 163.823 49.3622C163.823 46.7516 161.548 44.6353 158.742 44.6353C155.937 44.6353 153.662 46.7516 153.662 49.3622C153.662 51.9728 155.937 54.0891 158.742 54.0891Z" fill="#FFC72C"/>
<path d="M146.886 82.1353L139.096 84.026" stroke="#152934" stroke-width="1.41755" stroke-miterlimit="10" stroke-linecap="round" stroke-linejoin="round"/>
<path d="M183.124 82.1356L174.318 70.1606L164.496 70.7909L158.061 83.3961C155.69 87.8079 159.754 92.85 164.835 92.5349L178.044 91.5895C183.463 91.2743 186.172 85.9171 183.124 82.1356Z" fill="#2EAA77"/>
<path d="M174.323 70.1604C177.372 66.3788 178.388 63.2275 177.033 62.2822C176.017 61.3368 173.307 62.2822 172.63 62.5973C172.291 62.2822 170.937 61.0216 168.566 61.3368C166.195 61.3368 164.84 63.2275 164.84 63.2275C163.824 62.9124 161.115 62.5973 160.437 63.5427C159.421 64.8032 161.115 67.9545 164.84 70.7907L174.323 70.1604Z" fill="#2EAA77"/>
<path d="M166.528 66.6943L168.56 70.4759" stroke="#152934" stroke-width="1.41755" stroke-miterlimit="10" stroke-linecap="round" stroke-linejoin="round"/>
<path d="M172.288 65.4341L170.933 70.4762" stroke="#152934" stroke-width="1.41755" stroke-miterlimit="10" stroke-linecap="round" stroke-linejoin="round"/>
<path d="M164.161 71.106L174.66 70.1606" stroke="#152934" stroke-width="1.41755" stroke-miterlimit="10" stroke-linecap="round" stroke-linejoin="round"/>
<path d="M149.597 101.674C152.306 103.565 155.016 105.771 157.725 107.661C158.403 108.292 159.08 108.922 159.757 109.552C160.773 110.497 162.467 110.813 163.822 110.182C165.176 109.552 165.515 107.976 164.838 106.401C169.918 107.661 167.886 101.044 167.886 101.044C168.225 101.044 168.902 101.044 169.241 100.728C170.257 100.098 170.257 99.1528 170.596 98.8377C171.273 96.3166 168.902 93.4805 168.563 92.8502C165.176 88.4384 160.096 85.9173 153.661 82.1358C150.951 80.5601 147.226 82.4509 147.226 82.4509" fill="#965C4D"/>
<path d="M146.545 88.4379C147.223 88.4379 148.239 88.1228 149.593 88.4379C152.642 88.753 154.674 89.6984 156.029 90.3287C161.786 93.1649 167.205 100.098 167.883 101.043" stroke="#152934" stroke-width="1.41755" stroke-miterlimit="10" stroke-linecap="round"/>
<path d="M164.498 106.086C164.498 106.086 155.692 97.2619 151.628 96.0014C147.563 94.7409 145.531 95.056 145.531 95.056" stroke="#152934" stroke-width="1.41755" stroke-miterlimit="10" stroke-linecap="round"/>
<path d="M181.433 76.4638C181.433 76.4638 184.82 68.2704 188.546 71.1066C190.239 72.3671 189.562 76.7789 188.207 82.1361C186.514 89.6992 183.127 98.5229 183.127 98.5229" fill="#965C4D"/>
<path d="M164.498 68.585H145.531V127.514H164.498V68.585Z" fill="#965C4D"/>
<path d="M173.64 85.602C173.64 85.602 177.027 77.4086 180.753 80.2448C182.446 81.5053 181.769 85.9171 180.414 91.2743C178.721 98.8374 175.334 107.661 175.334 107.661" fill="#965C4D"/>
<path d="M145.529 65.4338C144.513 55.6648 143.835 46.2109 142.819 36.4419L142.48 30.1393C142.142 26.988 145.529 24.467 148.916 25.0972L177.027 31.3998C179.398 32.0301 181.43 33.9209 181.43 36.4419C184.817 64.8036 187.865 92.8501 191.252 121.212C191.252 121.842 191.252 123.103 190.575 124.048C189.559 125.309 187.865 125.624 184.139 126.254C183.123 126.569 179.736 126.884 172.963 128.145C167.882 129.09 165.511 129.09 164.834 129.405C158.738 130.666 157.383 130.351 155.689 129.72C155.351 129.405 154.673 129.09 154.335 128.145C154.335 127.83 153.996 127.83 153.996 127.514C153.657 126.254 153.657 125.624 153.657 124.993L145.529 65.4338Z" fill="#376EEE"/>
<path d="M190.914 115.539C180.076 116.799 168.56 118.06 157.722 119.321C154.335 91.274 151.287 62.9123 147.9 34.8657C159.077 36.7565 170.931 39.9078 182.108 41.4834C184.817 66.6938 187.866 90.3286 190.914 115.539Z" fill="#F0F4FF"/>
<path d="M147.226 34.5513C158.741 36.7572 169.918 38.648 181.434 40.8539" stroke="#152934" stroke-width="1.41755" stroke-miterlimit="10" stroke-linecap="round" stroke-linejoin="round"/>
<path d="M157.386 119.321C168.224 118.06 179.401 116.8 190.239 115.854" stroke="#152934" stroke-width="1.41755" stroke-miterlimit="10" stroke-linecap="round" stroke-linejoin="round"/>
<path d="M150.271 25.4121C149.593 25.4121 148.577 25.4121 147.9 26.0424C146.545 26.9878 146.545 28.8785 146.545 29.5088C146.545 35.8114 156.706 113.648 158.061 122.787C158.061 124.048 159.415 125.939 161.109 127.199C162.125 127.829 163.141 128.46 163.818 128.775" stroke="#152934" stroke-width="1.41755" stroke-miterlimit="10" stroke-linecap="round" stroke-linejoin="round"/>
<path d="M149.597 101.674C152.306 103.565 155.016 105.771 157.725 107.661C158.403 108.292 159.08 108.922 159.757 109.552C160.773 110.497 162.467 110.813 163.822 110.182C165.176 109.552 165.515 107.976 164.838 106.401C169.918 107.661 167.886 101.044 167.886 101.044C168.225 101.044 168.902 101.044 169.241 100.728C170.257 100.098 170.257 99.1528 170.596 98.8377C171.273 96.3166 168.902 93.4805 168.563 92.8502C165.176 88.4384 160.096 85.9173 153.661 82.1358C150.951 80.5601 147.226 82.4509 147.226 82.4509" fill="#965C4D"/>
<path d="M146.545 88.4379C147.223 88.4379 148.239 88.1228 149.593 88.4379C152.642 88.753 154.674 89.6984 156.029 90.3287C161.786 93.1649 167.205 100.098 167.883 101.043" stroke="#152934" stroke-width="1.41755" stroke-miterlimit="10" stroke-linecap="round"/>
<path d="M164.498 106.086C164.498 106.086 155.692 97.2619 151.628 96.0014C147.563 94.7409 145.531 95.056 145.531 95.056" stroke="#152934" stroke-width="1.41755" stroke-miterlimit="10" stroke-linecap="round"/>
<path d="M146.886 82.1353L139.096 84.026" stroke="#152934" stroke-width="1.41755" stroke-miterlimit="10" stroke-linecap="round" stroke-linejoin="round"/>
</g>
<defs>
<clipPath id="clip0_888_76199">
<rect width="345" height="160" rx="4" fill="white"/>
</clipPath>
</defs>
</svg>
