<svg width="506" height="307" viewBox="0 0 506 307" fill="none" xmlns="http://www.w3.org/2000/svg">
<g clip-path="url(#clip0_1702_33962)">
<mask id="mask0_1702_33962" style="mask-type:alpha" maskUnits="userSpaceOnUse" x="-28" y="0" width="557" height="352">
<rect x="-27.0024" width="556" height="352" fill="white"/>
</mask>
<g mask="url(#mask0_1702_33962)">
<mask id="mask1_1702_33962" style="mask-type:alpha" maskUnits="userSpaceOnUse" x="-12" y="17" width="693" height="305">
<rect x="-11.9009" y="17.1697" width="692.9" height="304.83" fill="#C4C4C4"/>
</mask>
<g mask="url(#mask1_1702_33962)">
<path d="M505.977 286.434C469.009 112.919 279.047 160.339 264.671 250.871C233.867 200.217 179.445 230.394 186.633 269.191C115.782 206.683 6.93861 250.871 -3.32715 322H45.9579H183.552H562.45H620.979H690.805C638.435 221.77 505.977 286.434 505.977 286.434Z" fill="#F0F4FF"/>
<mask id="mask2_1702_33962" style="mask-type:alpha" maskUnits="userSpaceOnUse" x="333" y="93" width="142" height="117">
<path fill-rule="evenodd" clip-rule="evenodd" d="M354.552 93.3076L474.174 126.974L453.43 209.83L333.808 176.163L354.552 93.3076Z" fill="white"/>
</mask>
<g mask="url(#mask2_1702_33962)">
<path fill-rule="evenodd" clip-rule="evenodd" d="M373.589 133.276L366.556 158.242C366.556 158.242 379.41 178.849 399.266 185.632C423.515 187.385 434.55 187.97 447.214 188.554C459.89 189.138 455.194 178.604 452.797 168.06C450.401 157.517 424.815 150.705 424.289 144.447C421.617 125.084 390.595 129.046 390.167 119.959C389.887 114.025 387.195 102.379 376.64 101.044C366.082 99.7173 361.241 106.784 358.914 112.093L373.589 133.276Z" fill="#882118"/>
</g>
<path fill-rule="evenodd" clip-rule="evenodd" d="M355.263 147.57C358.76 138.822 341.311 135.398 355.728 119.603C360.445 123.109 364.692 128.353 369.405 131.861L369.593 159.726L355.263 147.57Z" fill="#692E20"/>
<path fill-rule="evenodd" clip-rule="evenodd" d="M341.73 146.014C341.73 146.014 331.1 143.401 320.01 160.573C308.921 177.745 301.162 180.958 301.162 180.958L284.077 145.898L262.032 142.392C262.032 142.392 271.434 193.393 280.218 200.225C289.004 207.063 303.102 225.637 310.486 215.058C317.869 204.484 320.577 200.225 320.577 200.225L322.656 216.602L333.127 220.108L350.998 221.23L350.918 221.257C355.255 232.943 363.736 252.07 378.301 252.355C396.681 252.717 400.253 228.7 401.34 218.9C402.434 209.107 402.365 183.104 398.806 174.644C395.253 166.181 387.246 158.064 387.246 158.064L341.73 146.014Z" fill="#FACFCD"/>
<path fill-rule="evenodd" clip-rule="evenodd" d="M341.733 146.014C361.155 161.025 387.25 158.064 387.25 158.064C383.101 155.224 377.538 151.695 373.9 149.422C371.672 148.025 370.596 145.235 371.26 142.583L373.59 133.275C374.534 133.075 378.233 132.153 379.497 129.128C379.719 128.584 380.378 127.034 379.677 126.039C379.161 125.302 378.193 125.257 377.896 125.242C376.315 125.153 375.245 126.46 375.072 126.671C373.816 124.786 372.411 122.331 371.197 119.302C369.701 115.578 368.982 112.186 368.622 109.574C365.386 110.413 362.151 111.252 358.912 112.09C356.821 116.408 354.684 121.734 354.394 126.013C354.294 127.548 354.156 129.796 355.345 131.999C356.61 134.364 358.937 135.83 359.846 136.405L361.766 137.542C361.766 137.542 359.89 142.7 358.367 144.681C356.841 146.658 347.021 145.097 341.733 146.014Z" fill="#E8BB9A"/>
<path fill-rule="evenodd" clip-rule="evenodd" d="M367.71 122.283C367.401 123.089 366.836 123.614 366.453 123.442C366.078 123.277 366.022 122.487 366.339 121.683C366.648 120.877 367.209 120.356 367.592 120.523C367.971 120.694 368.023 121.478 367.71 122.283Z" fill="#231F20"/>
<path fill-rule="evenodd" clip-rule="evenodd" d="M359.126 118.442C358.813 119.247 358.253 119.768 357.869 119.601C357.495 119.432 357.438 118.646 357.755 117.842C358.064 117.036 358.626 116.511 359.004 116.681C359.388 116.848 359.435 117.636 359.126 118.442Z" fill="#231F20"/>
<path fill-rule="evenodd" clip-rule="evenodd" d="M358.656 113.328C358.436 113.266 358.276 113.061 358.271 112.809C358.261 112.506 358.492 112.252 358.777 112.245C359.252 112.238 359.72 112.288 360.165 112.399C360.627 112.529 361.099 112.721 361.536 112.981C361.786 113.133 361.874 113.468 361.731 113.733C361.595 114 361.269 114.1 361.022 113.939C360.67 113.73 360.31 113.556 359.919 113.469C359.563 113.378 359.186 113.34 358.802 113.346C358.751 113.345 358.705 113.341 358.656 113.328Z" fill="#231F20"/>
<path fill-rule="evenodd" clip-rule="evenodd" d="M360.14 131.29C359.875 131.179 358.869 129.894 358.974 129.61C359.08 129.325 359.392 129.158 359.649 129.298C361.511 130.05 362.648 128.839 362.66 128.825C362.861 128.608 363.186 128.594 363.394 128.794C363.604 129.003 363.616 129.349 363.423 129.572C362.389 130.763 361.493 131.87 360.14 131.29Z" fill="#231F20"/>
<path fill-rule="evenodd" clip-rule="evenodd" d="M163.22 148.727L163.21 148.831C160.293 150.087 156.579 152.151 156.24 155.266C156.046 156.89 156.881 158.195 157.177 158.696C158.83 161.526 160.695 167.138 161.24 179.548L161.267 179.588L169.039 182.264L169.219 180.425L174.775 181.035C175.163 176.707 175.551 172.383 175.939 168.059C174.848 167.58 173.306 166.806 171.75 165.454C169.234 163.314 168.052 160.999 166.775 158.532C165.64 156.368 164.236 153.101 163.279 148.838C163.251 148.767 163.255 148.731 163.22 148.727Z" fill="#E8BB9A"/>
<path fill-rule="evenodd" clip-rule="evenodd" d="M313.845 225.366C313.845 225.366 278.458 179.227 269.178 174.087C259.898 168.948 258.73 168.102 233.378 166.934C208.026 165.765 170.549 161.675 170.549 161.675L164.487 211.927L251.568 205.5L269.178 252.245L372.814 252.245L376.122 233.547L322.662 216.602L313.845 225.366Z" fill="#ADC0FD"/>
<path fill-rule="evenodd" clip-rule="evenodd" d="M161.666 179.106L149.88 174.972L154.14 131.382C154.306 130.561 154.577 130.307 154.802 130.234C156.126 129.779 158.56 134.56 161.505 140.338C163.7 144.647 164.434 146.63 163.619 148.187C163.365 148.674 163.18 148.694 161.452 150.098C158.678 152.344 157.287 153.493 156.916 154.612C156.413 156.123 157.449 157.096 158.578 160.108C161.553 168.05 161.613 175.219 161.634 178.117C161.638 178.519 161.632 178.851 161.632 179.057L161.666 179.106Z" fill="#001340"/>
<path fill-rule="evenodd" clip-rule="evenodd" d="M196.664 280.09C198.575 279.028 200.366 278.351 201.861 277.907C199.759 274.135 197.663 270.358 195.558 266.582C194.453 266.863 192.784 267.157 190.761 267.029C187.601 266.823 185.353 265.69 182.953 264.45C180.872 263.374 177.931 261.583 174.806 258.679C174.745 258.633 174.708 258.613 174.7 258.623C174.693 258.627 174.709 258.664 174.752 258.726C173.139 261.49 171.353 265.447 172.796 268.219C173.55 269.66 174.889 270.244 175.409 270.49C178.257 271.834 182.808 275.338 190.222 285.004C190.243 285.01 190.261 285.017 190.276 285.022L196.664 280.09Z" fill="#E8BB9A"/>
<mask id="mask3_1702_33962" style="mask-type:alpha" maskUnits="userSpaceOnUse" x="157" y="243" width="34" height="50">
<path fill-rule="evenodd" clip-rule="evenodd" d="M167.648 243.481L190.901 286.183L180.57 292.507L157.317 249.805L167.648 243.481Z" fill="white"/>
</mask>
<g mask="url(#mask3_1702_33962)">
<path fill-rule="evenodd" clip-rule="evenodd" d="M190.269 285.022L180.57 292.507L157.934 250.891C157.615 250.126 157.692 249.752 157.83 249.552C158.628 248.377 163.202 250.768 168.736 253.652C172.857 255.802 174.534 256.967 174.748 258.724C174.814 259.281 174.678 259.411 174.082 261.604C173.119 265.126 172.647 266.917 172.971 268.052C173.406 269.586 174.767 269.736 177.329 271.493C184.077 276.115 188.08 281.899 189.702 284.24C189.927 284.564 190.105 284.834 190.215 285.004" fill="#001340"/>
</g>
<path fill-rule="evenodd" clip-rule="evenodd" d="M372.064 119.312C371.924 119.272 371.803 119.17 371.729 119.021C371.47 118.461 370.851 117.394 369.68 116.649C368.964 116.197 368.138 115.924 367.292 115.873C367.013 115.835 366.791 115.59 366.807 115.285C366.826 114.985 367.073 114.754 367.361 114.771C368.366 114.844 369.353 115.159 370.209 115.705C371.614 116.597 372.35 117.861 372.666 118.538C372.792 118.81 372.683 119.14 372.426 119.277C372.312 119.336 372.181 119.344 372.064 119.312Z" fill="#231F20"/>
<path fill-rule="evenodd" clip-rule="evenodd" d="M358.675 248.761C358.675 248.761 292.897 219.992 282.427 219.992C271.957 219.992 193.698 265.101 193.698 265.101L211.335 308.341L284.132 255.052C284.132 255.052 327.985 283.679 334.235 286.605C340.485 289.532 356.736 289.122 367.854 277.256C378.971 265.39 373.103 252.822 373.103 252.822L358.675 248.761Z" fill="#7996F9"/>
<path fill-rule="evenodd" clip-rule="evenodd" d="M361.317 125.798C360.967 125.7 360.565 125.505 360.378 125.101C360.274 124.881 360.024 124.355 361.869 121.584C362.034 121.335 362.356 121.284 362.598 121.452C362.828 121.631 362.885 121.971 362.719 122.22C362.133 123.103 361.493 124.217 361.362 124.654C361.491 124.722 361.741 124.788 361.954 124.798C362.227 124.806 362.458 125.067 362.452 125.366C362.44 125.672 362.201 125.906 361.911 125.897C361.829 125.897 361.585 125.874 361.317 125.798Z" fill="#B56740"/>
<path fill-rule="evenodd" clip-rule="evenodd" d="M320.452 200.758C320.191 200.685 320.02 200.404 320.075 200.119L327.301 162.159C327.358 161.861 327.634 161.669 327.911 161.729L327.943 161.738C328.204 161.812 328.376 162.088 328.321 162.377L321.095 200.333C321.037 200.636 320.761 200.827 320.484 200.767L320.452 200.758Z" fill="#F7ADAD"/>
<path fill-rule="evenodd" clip-rule="evenodd" d="M305.686 192.046C305.504 192.051 305.33 191.958 305.266 191.806L300.649 180.997C300.564 180.804 300.682 180.591 300.912 180.523C301.135 180.449 301.39 180.546 301.472 180.739L306.089 191.548C306.174 191.738 306.053 191.954 305.826 192.022C305.777 192.038 305.735 192.045 305.686 192.046Z" fill="#F7ADAD"/>
<path fill-rule="evenodd" clip-rule="evenodd" d="M408.831 205.865L340.261 186.567L331.892 219.996C326.866 240.068 338.142 260.664 357.078 265.994C376.014 271.323 395.436 259.366 400.462 239.294L408.831 205.865Z" fill="#EF7D85"/>
<path fill-rule="evenodd" clip-rule="evenodd" d="M365.956 204.937C364.06 200.932 361.784 196.156 359.153 190.694C358.022 188.343 356.464 185.165 355.294 185.428C354.732 185.554 354.428 186.45 354.247 187.246C353.92 186.581 353.589 185.915 353.258 185.249C352.467 182.72 351.406 181.141 350.672 181.278C349.827 181.444 349.57 183.857 349.531 184.22C349.365 184.133 349.211 184.11 349.071 184.125C348.289 184.229 347.648 185.682 347.434 187.734C346.307 188.184 345.771 188.805 345.482 189.302C345.042 190.065 345.299 190.371 344.784 191.228C344.214 192.173 343.635 192.234 343.374 193.087C343.194 193.654 343.284 194.158 343.331 194.44C343.586 195.862 346.199 204.547 349.928 216.376L365.956 204.937Z" fill="#E8BB9A"/>
<path fill-rule="evenodd" clip-rule="evenodd" d="M350.422 187.11C350.268 187.066 350.132 186.953 350.051 186.786L349.018 184.478C348.887 184.177 349.001 183.815 349.286 183.672C349.573 183.538 349.908 183.662 350.045 183.96L351.083 186.27C351.214 186.571 351.096 186.931 350.811 187.075C350.688 187.135 350.544 187.144 350.422 187.11Z" fill="#B56740"/>
<path fill-rule="evenodd" clip-rule="evenodd" d="M348.015 190.307C347.844 190.259 347.698 190.129 347.628 189.939L346.909 187.949C346.799 187.639 346.943 187.291 347.236 187.169C347.529 187.052 347.857 187.204 347.972 187.516L348.693 189.512C348.805 189.817 348.656 190.169 348.362 190.291C348.248 190.333 348.125 190.338 348.015 190.307Z" fill="#B56740"/>
<path fill-rule="evenodd" clip-rule="evenodd" d="M345.518 193.865C345.351 193.818 345.206 193.688 345.136 193.498L344.38 191.433C344.264 191.126 344.408 190.773 344.701 190.656C344.982 190.526 345.319 190.681 345.432 191.002L346.192 193.069C346.308 193.375 346.163 193.728 345.867 193.844C345.756 193.892 345.628 193.896 345.518 193.865Z" fill="#B56740"/>
<path fill-rule="evenodd" clip-rule="evenodd" d="M353.82 186.32L353.808 186.317C353.533 186.23 353.373 185.926 353.455 185.634C355.923 176.615 363.601 155.731 381.53 156.554C386.907 156.805 391.792 160.225 393.992 165.273C394.017 165.326 394.048 165.407 394.077 165.484C394.191 165.766 394.067 166.087 393.802 166.204C393.537 166.316 393.229 166.193 393.123 165.912L393.062 165.759C391.012 161.058 386.489 157.876 381.483 157.652C364.293 156.865 356.853 177.173 354.452 185.942C354.371 186.229 354.089 186.396 353.82 186.32Z" fill="#EF7D85"/>
<path fill-rule="evenodd" clip-rule="evenodd" d="M351.004 221.223L350.923 221.255C355.259 232.941 363.742 252.063 378.306 252.353C396.685 252.714 400.253 228.696 401.344 218.898C401.73 215.453 401.971 209.994 401.963 204L401.967 203.933C399.627 202.172 395.685 199.673 390.292 198.264C385.516 197.02 381.421 197.103 378.715 197.389C378.03 205.926 377.35 214.464 376.668 223.006L364.608 201.952L348.393 213.527L351.004 221.223Z" fill="#FACFCD"/>
<path fill-rule="evenodd" clip-rule="evenodd" d="M383.497 235.702C383.372 235.667 383.26 235.581 383.185 235.455L376.213 223.291C376.063 223.031 376.144 222.693 376.39 222.535C376.634 222.38 376.954 222.461 377.103 222.722L384.075 234.885C384.225 235.146 384.144 235.483 383.898 235.642C383.771 235.72 383.629 235.739 383.497 235.702Z" fill="#F7ADAD"/>
<path fill-rule="evenodd" clip-rule="evenodd" d="M378.561 197.986C378.328 197.92 378.165 197.697 378.176 197.431L378.914 177.646C378.93 177.341 379.17 177.103 379.455 177.115C379.739 177.131 379.967 177.387 379.956 177.689L379.213 197.477C379.202 197.779 378.962 198.017 378.673 198.004C378.639 198.003 378.597 197.996 378.561 197.986Z" fill="#F7ADAD"/>
<path fill-rule="evenodd" clip-rule="evenodd" d="M446.907 263.046L482.79 273.24L489.37 247.204L453.487 237.01L446.907 263.046Z" fill="#C7FEE7"/>
<path fill-rule="evenodd" clip-rule="evenodd" d="M449.911 243.09L489.498 254.337L491.172 247.715L451.584 236.469L449.911 243.09Z" fill="#C7FEE7"/>
<path fill-rule="evenodd" clip-rule="evenodd" d="M451.506 244.866L487.389 255.06L487.729 253.713L451.846 243.519L451.506 244.866Z" fill="#67D3A6"/>
<path fill-rule="evenodd" clip-rule="evenodd" d="M457.18 252.472C455.196 253.424 454.858 255.217 454.843 256.257C454.819 257.867 455.514 259.16 456.002 259.344C456.679 259.59 458.168 258.415 458.747 257.216C458.96 256.774 459.544 255.191 458.09 253.388C457.83 253.065 457.524 252.76 457.18 252.472ZM479.945 258.839C478.872 259.688 478.276 260.877 478.061 261.955C477.736 263.584 478.2 265.105 479.242 265.828C479.537 266.031 480.172 266.365 480.675 266.314C481.16 266.266 481.57 265.831 481.801 265.118C482.295 263.589 481.903 261.029 479.945 258.839ZM469.728 256.427C468.492 257.212 467.529 258.347 466.997 259.532C466.373 260.922 466.428 262.188 467.144 262.917C467.688 263.47 468.726 263.885 469.459 263.841C469.985 263.809 470.411 263.53 470.724 263.012C471.362 261.956 471.4 260.109 470.817 258.522C470.526 257.731 470.154 257.037 469.728 256.427ZM468.356 264.689C467.656 264.491 466.961 264.11 466.495 263.636C465.473 262.595 465.345 260.901 466.151 259.104C466.738 257.798 467.784 256.544 469.128 255.658C467.924 254.273 466.46 253.425 465.247 252.916C465.082 252.845 461.328 251.292 458.203 252.1C458.418 252.305 458.615 252.519 458.793 252.74C460.626 255.013 459.853 257.087 459.572 257.669C458.909 259.04 457.007 260.826 455.681 260.281C454.67 259.902 453.869 258.09 453.896 256.242C453.924 254.312 454.782 252.761 456.294 251.833C454.654 250.789 452.476 250.118 450.302 250.052L450.329 249.057C452.888 249.134 455.467 250.008 457.303 251.345C457.361 251.323 457.42 251.303 457.48 251.282C460.934 250.106 465.125 251.794 465.593 251.99C466.965 252.567 468.632 253.543 469.977 255.167C471.226 254.544 472.669 254.235 474.206 254.439C476.203 254.702 478.224 255.785 480.066 257.573C480.67 257.221 481.373 256.955 482.183 256.812C483.528 256.576 485.096 256.703 486.843 257.191L486.603 258.153C484.985 257.702 483.548 257.581 482.335 257.794C481.747 257.897 481.225 258.077 480.766 258.313C482.869 260.773 483.262 263.67 482.688 265.441C482.333 266.54 481.631 267.218 480.763 267.304C479.849 267.395 478.91 266.783 478.731 266.661C477.362 265.711 476.739 263.783 477.145 261.749C477.392 260.507 478.063 259.139 479.258 258.141C477.625 256.612 475.804 255.653 474.09 255.426C472.821 255.259 471.626 255.486 470.575 255.967C471.008 256.61 471.389 257.337 471.691 258.16C472.388 260.055 472.317 262.221 471.513 263.549C471.037 264.338 470.345 264.783 469.514 264.835C469.155 264.857 468.755 264.803 468.356 264.689Z" fill="#67D3A6"/>
<mask id="mask4_1702_33962" style="mask-type:alpha" maskUnits="userSpaceOnUse" x="424" y="165" width="60" height="72">
<path fill-rule="evenodd" clip-rule="evenodd" d="M424.675 176.047L471.427 165.792L483.228 226.273L436.477 236.528L424.675 176.047Z" fill="white"/>
</mask>
<g mask="url(#mask4_1702_33962)">
<path fill-rule="evenodd" clip-rule="evenodd" d="M426.613 175.621L435.762 222.507L436.477 236.527L483.229 226.272L478.638 213.102L469.489 166.216C469.489 166.216 429.62 175.065 426.613 175.621L435.762 222.507L426.613 175.621Z" fill="#FFC72C"/>
</g>
<path fill-rule="evenodd" clip-rule="evenodd" d="M437.717 176.807C437.626 176.338 437.909 175.88 438.352 175.783C438.794 175.686 439.226 175.987 439.318 176.456C439.409 176.924 439.125 177.383 438.683 177.48C438.241 177.577 437.808 177.275 437.717 176.807Z" fill="#FBB136"/>
<path fill-rule="evenodd" clip-rule="evenodd" d="M457.952 172.37C457.861 171.901 458.146 171.443 458.587 171.346C459.03 171.249 459.462 171.55 459.553 172.019C459.644 172.487 459.361 172.946 458.918 173.043C458.477 173.14 458.044 172.838 457.952 172.37Z" fill="#FBB136"/>
<path fill-rule="evenodd" clip-rule="evenodd" d="M438.32 176.597C437.509 173.518 437.94 170.17 439.501 167.412C441.043 164.686 443.56 162.755 446.406 162.113L446.463 162.101C449.313 161.475 452.348 162.168 454.796 164.007C457.293 165.883 458.96 168.788 459.371 171.98L458.707 172.074C458.321 169.081 456.756 166.353 454.412 164.592C452.115 162.867 449.27 162.215 446.599 162.801L446.547 162.813C443.88 163.415 441.522 165.225 440.075 167.781C438.609 170.373 438.203 173.515 438.965 176.404L438.32 176.597Z" fill="#FBB136"/>
<mask id="mask5_1702_33962" style="mask-type:alpha" maskUnits="userSpaceOnUse" x="433" y="212" width="51" height="25">
<path fill-rule="evenodd" clip-rule="evenodd" d="M433.812 222.879L480.564 212.624L483.227 226.274L436.475 236.528L433.812 222.879Z" fill="white"/>
</mask>
<g mask="url(#mask5_1702_33962)">
<path fill-rule="evenodd" clip-rule="evenodd" d="M435.75 222.453L478.626 213.048L483.227 226.272L436.475 236.527L435.75 222.453Z" fill="#FBB136"/>
</g>
<path d="M283.421 112.007C283.839 113.223 277.129 119.727 277.129 119.727C279.763 129.766 280.984 136.009 284.081 145.898L262.036 142.392L260.382 135.964C257.626 135.38 254.871 134.211 253.217 133.627C251.564 133.043 252.393 129.537 252.393 129.537C250.462 127.199 252.393 123.563 252.393 123.563C252.393 123.563 251.016 119.73 254.39 118.525C251.976 117.449 247.125 115.458 246.288 114.005C244.727 111.296 246.666 110.558 248.808 111.422L268.508 116.586C270.849 114.873 274.711 111.663 277.135 110.912C280.166 109.972 283.002 110.791 283.421 112.007Z" fill="#E8BB9A"/>
<path fill-rule="evenodd" clip-rule="evenodd" d="M259.982 119.019L255.591 95.0613L277.077 95.3912L285.32 137.122L273.945 136.947L265.494 136.875L264.391 131.874C264.391 131.874 266.45 130.705 266.596 129.537C266.891 127.181 265.104 126.16 265.347 126.031C266.45 125.446 267.001 124.834 267.001 123.693C267.001 121.356 263.143 120.187 259.982 119.019Z" fill="#001340"/>
<ellipse cx="308.321" cy="64.6764" rx="27.5564" ry="29.2164" fill="#E6F7FF"/>
<path d="M278.566 92.7243L288.486 81.0371L293.447 83.9593L278.566 92.7243Z" fill="#E6F7FF"/>
<path d="M284.199 52.7315C285.738 52.3232 287.358 52.3137 288.902 52.704C290.445 53.0942 291.861 53.871 293.011 54.9592C293.456 53.4489 294.289 52.0775 295.428 50.9778C296.568 49.8781 297.976 49.0875 299.516 48.6824C304.453 47.3769 309.514 50.23 310.826 55.0515C313.347 64.3313 298.973 76.9051 298.973 76.9051C298.973 76.9051 280.154 73.1067 277.633 63.8269C276.324 59.0055 279.263 54.037 284.199 52.7315Z" fill="#EF7D85"/>
</g>
</g>
</g>
<defs>
<clipPath id="clip0_1702_33962">
<rect width="505.354" height="307" fill="white" transform="translate(0.645996)"/>
</clipPath>
</defs>
</svg>
