<svg width="28" height="28" viewBox="0 0 28 28" fill="none" xmlns="http://www.w3.org/2000/svg">
<path d="M4.5 13.0951L14 5.13196L23.5 13.0951" stroke="#376EEE" stroke-width="1.2" stroke-linecap="round" stroke-linejoin="round"/>
<path fill-rule="evenodd" clip-rule="evenodd" d="M21.6943 14.4433L21.6944 22.868H16.6364V15.829H11.3636V22.868H6.3057L6.30566 14.4433L13.9448 8.06946L21.6943 14.4433Z" fill="#376EEE"/>
<path d="M21.6944 22.868V23.468C21.8535 23.468 22.0061 23.4047 22.1186 23.2922C22.2312 23.1797 22.2944 23.0271 22.2944 22.868L21.6944 22.868ZM21.6943 14.4433L22.2943 14.4433C22.2943 14.2639 22.214 14.0939 22.0755 13.98L21.6943 14.4433ZM16.6364 22.868H16.0364C16.0364 23.1993 16.305 23.468 16.6364 23.468V22.868ZM16.6364 15.829H17.2364C17.2364 15.4976 16.9677 15.229 16.6364 15.229V15.829ZM11.3636 15.829V15.229C11.0322 15.229 10.7636 15.4976 10.7636 15.829H11.3636ZM11.3636 22.868V23.468C11.695 23.468 11.9636 23.1993 11.9636 22.868H11.3636ZM6.3057 22.868L5.7057 22.868C5.7057 23.1993 5.97433 23.468 6.3057 23.468V22.868ZM6.30566 14.4433L5.92127 13.9827C5.78464 14.0967 5.70566 14.2654 5.70566 14.4434L6.30566 14.4433ZM13.9448 8.06946L14.3259 7.60606C14.1033 7.42291 13.7818 7.42404 13.5604 7.60876L13.9448 8.06946ZM22.2944 22.868L22.2943 14.4433L21.0943 14.4434L21.0944 22.868L22.2944 22.868ZM16.6364 23.468H21.6944V22.268H16.6364V23.468ZM16.0364 15.829V22.868H17.2364V15.829H16.0364ZM11.3636 16.429H16.6364V15.229H11.3636V16.429ZM11.9636 22.868V15.829H10.7636V22.868H11.9636ZM6.3057 23.468H11.3636V22.268H6.3057V23.468ZM5.70566 14.4434L5.7057 22.868L6.9057 22.868L6.90566 14.4433L5.70566 14.4434ZM13.5604 7.60876L5.92127 13.9827L6.69006 14.904L14.3292 8.53016L13.5604 7.60876ZM22.0755 13.98L14.3259 7.60606L13.5637 8.53285L21.3132 14.9067L22.0755 13.98Z" fill="#376EEE"/>
<path d="M7.56494 7.61926H7.62853L7.62903 9.37759L7.56494 9.42766V7.61926Z" stroke="#376EEE"/>
</svg>
