<svg xmlns="http://www.w3.org/2000/svg" xmlns:xlink="http://www.w3.org/1999/xlink" width="1024" height="162" viewBox="0 0 1024 162">
    <defs>
        <path id="a" d="M0 146h1024v16H0z"/>
        <linearGradient id="c" x1="50%" x2="50%" y1="-6.379%" y2="100%">
            <stop offset="0%" stop-color="#376EEE"/>
            <stop offset="100%" stop-color="#99B8FF"/>
        </linearGradient>
        <path id="b" d="M429 146h164.286l4.152 16H424.462z"/>
        <path id="d" d="M486.8 99.571h48.229l2.9 17.858h-53.572z"/>
    </defs>
    <g fill="none" fill-rule="evenodd">
        <path fill="#E6F7FF" d="M4 0h1016a4 4 0 0 1 4 4v158H0V4a4 4 0 0 1 4-4z" style="mix-blend-mode:darken"/>
        <use fill="#CEF2FD" style="mix-blend-mode:darken" xlink:href="#a"/>
        <path fill="#FFF" d="M393.5 30c4.516 0 8.423 2.037 10.305 5h3.695a6.5 6.5 0 1 1 0 13h-30a6.5 6.5 0 1 1 0-13h5.695c1.882-2.963 5.79-5 10.305-5zM605.5 73c2.563 0 4.716 1.275 5.327 3h1.673c.582 0 1.118.2 1.543.533.329.688.647 1.382.955 2.08L615 78.5a2.5 2.5 0 0 1-2.5 2.5h-15a2.5 2.5 0 1 1 0-5h2.673c.61-1.725 2.764-3 5.327-3zM351.5 50c2.563 0 4.716 1.275 5.327 3h1.673c.582 0 1.118.2 1.543.533.329.688.647 1.382.955 2.08L361 55.5a2.5 2.5 0 0 1-2.5 2.5h-15a2.5 2.5 0 1 1 0-5h2.673c.61-1.725 2.764-3 5.327-3z"/>
        <path fill="#8CACF6" fill-rule="nonzero" d="M353 146h318a1 1 0 1 1 0 2H353a1 1 0 1 1 0-2zM675 146h6a1 1 0 1 1 0 2h-6a1 1 0 1 1 0-2zM343 146h6a1 1 0 1 1 0 2h-6a1 1 0 1 1 0-2z"/>
        <use fill="url(#c)" xlink:href="#b"/>
        <g fill="#5685F1" fill-rule="nonzero">
            <path d="M553.303 61.4c4.216.155 8.43.669 12.646 1.646v-7.325c-4.216-.976-8.43-1.49-12.646-1.646V61.4zm-2.479-44.994l1.383.018c8.754.196 17.508 1.9 26.262 6.037.697.328 1.397.674 2.094 1.037v53.408a63.247 63.247 0 0 0-2.094-1.036c-9.215-4.355-18.43-6.014-27.645-6.055l-1.382.005c-26.723.341-53.447 13.83-80.17 14.172l-1.382.005c-9.215-.041-18.43-1.7-27.644-6.055-.466-.22-.932-.447-1.397-.681l-.697-.356V23.497l.697.356c.465.233.93.46 1.397.68 9.214 4.355 18.43 6.014 27.644 6.055l1.382-.006c27.184-.346 54.369-14.299 81.552-14.176zm-85.542 59.07c1.139.043 2.277.061 3.415.055l1.138-.015a90.822 90.822 0 0 0 6.83-.4l1.138-.114v-7.325l-1.138.115a90.37 90.37 0 0 1-6.828.4l-1.138.015a78.166 78.166 0 0 1-2.277-.02l-1.138-.036v7.325c-3.853-.15-7.705-.598-11.558-1.427l-.963-.215v7.252c3.852.893 7.705 1.398 11.556 1.598l.963.043zm25.167-2.488l-1.405.281c-3.279.641-6.558 1.181-9.836 1.574l-1.405.159v7.251l1.405-.159c3.746-.448 7.494-1.09 11.241-1.854v-7.252zm12.52 4.342c2.81-.71 5.62-1.442 8.43-2.167l4.214-1.078v-7.25c-1.781.45-3.562.908-5.344 1.37-2.432.628-4.865 1.26-7.297 1.875v-7.325l4.215-1.078 1.07-.277-1.07.277 3.395-.878c1.678-.434 3.357-.866 5.035-1.29l-3.967 1.014 1.157-.298 2.81-.717v-7.251c3.578-.905 7.153-1.772 10.731-2.54l1.79-.375v-7.325c3.747-.767 7.495-1.413 11.241-1.866l1.405-.16v7.324c-3.746.403-7.492 1.01-11.24 1.745l-1.405.282v7.25l.559-.113a171.86 171.86 0 0 1 3.027-.581c3.02-.55 6.039-1.006 9.057-1.331v7.325l1.137-.116a88.462 88.462 0 0 1 9.106-.426l1.138.017 1.138.033v7.252c3.915.144 7.83.597 11.744 1.443l.903.203v-7.252a61.771 61.771 0 0 1 12.52 4.357V60.08a61.723 61.723 0 0 0-11.685-4.16l-.085-.02-.75-.18.001 7.326c-3.914-.907-7.828-1.415-11.742-1.607l-.904-.04v-7.324c3.915.144 7.828.599 11.743 1.444l.902.202V48.47a61.771 61.771 0 0 1 12.52 4.357l-.001-.001V45.5a61.8 61.8 0 0 0-11.686-4.158l-.835-.2v7.326c-4.216-.978-8.43-1.491-12.646-1.647v-7.325l-1.139-.033c-3.794-.083-7.588.117-11.382.525v-7.25l-1.402.16a127.51 127.51 0 0 0-7.025 1.058l-1.406.257c-.468.088-.937.178-1.405.27l-1.405.281v-7.324c4.216-.863 8.432-1.574 12.646-2.027v7.323l1.136-.116a89.813 89.813 0 0 1 7.967-.426h1.139c.379.003.758.008 1.138.016l1.138.034V24.92a76.052 76.052 0 0 0-2.277-.05h-1.138c-2.656.019-5.312.17-7.968.426l-1.138.116V18.16c-3.746.403-7.494 1.009-11.241 1.745l-1.406.282v7.251c-3.577.733-7.154 1.576-10.732 2.466l-1.789.45v7.323c-2.809.71-5.62 1.443-8.43 2.168l-4.214 1.078v-7.323l-1.788.448c-2.981.74-5.962 1.448-8.943 2.086l-1.788.374v-7.253c-3.748.765-7.495 1.408-11.242 1.856l-1.405.16v7.25a92.358 92.358 0 0 1-7.967.516l-1.139.014a77.018 77.018 0 0 1-3.415-.055v-7.252c-4.172-.16-8.346-.675-12.519-1.641v7.251a61.928 61.928 0 0 1-12.52-4.357v7.324a61.648 61.648 0 0 0 12.519 4.358v-7.323l.963.215c3.853.829 7.704 1.278 11.557 1.426v7.325c-3.851-.148-7.703-.599-11.555-1.427l-.964-.214v7.251a61.845 61.845 0 0 1-11.686-3.97l-.835-.387V54.9a61.878 61.878 0 0 0 11.687 4.158l.834.2v7.25c3.853.893 7.705 1.4 11.558 1.598l.963.043V60.9c1.139.044 2.277.062 3.415.055l1.138-.014a92.338 92.338 0 0 0 7.968-.515v7.252l1.405-.159c3.746-.447 7.494-1.09 11.241-1.855v7.325l1.789-.374c3.577-.765 7.154-1.632 10.73-2.534v7.25zM440.24 62.152v7.323a61.784 61.784 0 0 0 11.687 4.159l.834.2V66.51a61.771 61.771 0 0 1-12.52-4.358zm87.896-5.558l-.463.095c-1.309.272-2.618.558-3.926.855-1.374.312-2.748.637-4.122.97-1.336.324-2.672.657-4.008.994v7.324c1.357-.343 2.713-.68 4.069-1.01 1.31-.317 2.621-.627 3.932-.925a225.447 225.447 0 0 1 4.516-.979v7.252l1.405-.282c3.748-.737 7.495-1.342 11.241-1.745v-7.251l-1.272.144-.13.016c-3.279.396-6.558.94-9.837 1.584l-1.405.282v-7.324zm-25.164-15.667v7.25l1.716-.435-1.716.436c2.53-.64 5.06-1.297 7.589-1.951 1.685-.436 3.37-.87 5.054-1.295v7.325c-2.81.71-5.62 1.443-8.429 2.168l-4.214 1.078v7.252l-1.789.448c-2.981.74-5.962 1.448-8.944 2.086l-1.79.373v-7.25a174.894 174.894 0 0 1-3.575.69 126.777 126.777 0 0 1-7.663 1.165l-1.404.158V53.1c4.214-.448 8.43-1.153 12.646-2.013v7.323l.293-.06c.926-.19 1.851-.388 2.776-.592 1.768-.39 3.537-.802 5.305-1.23 1.381-.334 2.762-.677 4.143-1.026v-7.323a462.825 462.825 0 0 1-4.27 1.057c-1.422.343-2.844.676-4.266.996-1.328.298-2.655.584-3.983.855v-7.253l1.79-.374 2.022-.443a237.058 237.058 0 0 0 1.963-.448l-1.444.331c.748-.169 1.495-.342 2.243-.518l-.8.187c.665-.154 1.33-.311 1.994-.47l-1.194.283c.686-.161 1.372-.325 2.058-.492l-.864.209c.66-.159 1.322-.32 1.982-.482l-1.118.273c.655-.159 1.31-.32 1.966-.482l-.848.21c.924-.228 1.847-.458 2.771-.691zm-50.21 11.006a66.292 66.292 0 0 0 11.557 1.598l.963.043V60.9l-.963-.044c-3.853-.2-7.705-.706-11.558-1.598v-7.324zm88.02-4.616c4.176-.45 8.347-.648 12.521-.493v7.251c-3.795-.139-7.586.01-11.382.376l-1.139.116zm-62.979-1.47V53.1a92.512 92.512 0 0 1-7.968.516l-1.138.015a77.84 77.84 0 0 1-2.276-.02l-1.139-.036v-7.251l1.139.035c.759.018 1.517.024 2.276.02l1.138-.015a92.492 92.492 0 0 0 7.968-.515zm12.648-9.338v7.325l-1.405.28c-3.747.734-7.494 1.336-11.241 1.734v-7.324c4.214-.448 8.43-1.154 12.646-2.015zm37.685-1.744v7.252c-4.174.855-8.347 1.86-12.521 2.915v-7.253c4.174-1.054 8.347-2.06 12.52-2.914zm25.164-2.52v7.252c4.216.156 8.43.67 12.646 1.647v-7.252c-4.216-.976-8.43-1.49-12.646-1.646zm12.648-5.676v7.323a61.856 61.856 0 0 1 12.52 4.359v-7.324a61.856 61.856 0 0 0-12.52-4.358zM515.61 23.1c-2.809.71-5.62 1.444-8.43 2.169l-4.214 1.078V33.6l4.215-1.079c2.81-.725 5.62-1.458 8.43-2.169v-7.252zm37.69-5.429v7.25c3.915.145 7.829.599 11.743 1.444l.904.203v-7.252c-4.215-.976-8.43-1.49-12.647-1.645z"/>
            <path d="M553.303 61.4c4.216.155 8.43.704 12.646 1.68v-7.324a66.846 66.846 0 0 0-12.646-1.68V61.4z"/>
        </g>
        <path fill="#5685F1" d="M437.929 21.357c.986 0 1.785.8 1.785 1.786V146h-3.571V23.143c0-.986.8-1.786 1.786-1.786zM580.786 21.357c.986 0 1.785.8 1.785 1.786V146H579V23.143c0-.986.8-1.786 1.786-1.786z"/>
        <path fill="#FFF" fill-rule="nonzero" d="M486.143 117.429h50V146h-50z"/>
        <path fill="#8CACF6" fill-rule="nonzero" d="M493.286 126.357h7.143c.986 0 1.785.8 1.785 1.786V146H491.5v-17.857c0-.986.8-1.786 1.786-1.786z"/>
        <circle cx="498.643" cy="135.286" r="1.786" fill="#FFF"/>
        <path fill="#E7EEFD" fill-rule="nonzero" d="M509.357 126.357h17.857c.987 0 1.786.8 1.786 1.786v8.928h-21.429v-8.928c0-.986.8-1.786 1.786-1.786z"/>
        <path fill="#8CACF6" fill-rule="nonzero" d="M511.143 131.714h5.357v5.357h-5.357zM520.071 131.714h5.358v5.357h-5.358z"/>
        <use fill="#376EEE" fill-rule="nonzero" xlink:href="#d"/>
        <path fill="#1A4379" fill-rule="nonzero" d="M489.845 96h42.857v3.571h-42.857z"/>
        <path fill="#1A4379" fill-rule="nonzero" d="M487.036 96h48.214a.893.893 0 0 1 0 1.786h-48.214a.893.893 0 0 1 0-1.786z"/>
        <path fill="#8CACF6" fill-rule="nonzero" d="M533.03 118.068c-.004 1.617-1.072 2.927-2.391 2.932h-.087c-1.319-.005-2.386-1.315-2.389-2.932-.004 1.617-1.072 2.927-2.391 2.932h-.087c-1.32-.005-2.387-1.315-2.39-2.932-.003 1.617-1.072 2.927-2.39 2.932h-.088c-1.318-.005-2.386-1.315-2.389-2.932-.004 1.617-1.072 2.927-2.391 2.932h-.087c-1.319-.005-2.386-1.315-2.389-2.932-.004 1.617-1.072 2.927-2.391 2.932h-.087c-1.319-.005-2.387-1.315-2.39-2.932-.003 1.617-1.072 2.927-2.39 2.932h-.088c-1.318-.005-2.386-1.315-2.389-2.932-.004 1.617-1.072 2.927-2.39 2.932h-.088c-1.319-.005-2.386-1.315-2.389-2.932-.004 1.617-1.072 2.927-2.391 2.932h-.087c-1.319-.005-2.387-1.315-2.39-2.932-.003 1.617-1.072 2.927-2.39 2.932h-.088c-1.318-.005-2.386-1.315-2.389-2.932-.004 1.617-1.072 2.927-2.39 2.932h-.088c-1.319-.005-2.386-1.315-2.389-2.932v-.64h53.572v.64c-.004 1.617-1.104 2.927-2.423 2.932h-.087c-1.318-.005-2.386-1.315-2.389-2.932z"/>
        <path stroke="#FFF" stroke-dasharray="3.571" stroke-linecap="round" stroke-linejoin="round" stroke-width="1.786" d="M512.036 148v12"/>
        <path fill="#4DC1BD" d="M473.643 144.571h-12.5v-28.787c0-3.826 2.798-6.927 6.25-6.927 3.451 0 6.25 3.101 6.25 6.927v28.787z"/>
        <path stroke="#1B4278" stroke-linecap="round" stroke-linejoin="round" stroke-width="1.341" d="M462.929 121.435l4.574 4.574 4.652-4.652M462.929 130.364l4.574 4.575 4.65-4.653"/>
        <path fill="#1B4278" d="M467.393 116c.493 0 .893.4.893.893v27.678H466.5v-27.678c0-.493.4-.893.893-.893z"/>
        <path fill="#006BA0" d="M457.571 144.571h-12.5v-21.644c0-3.826 2.799-6.927 6.25-6.927 3.452 0 6.25 3.101 6.25 6.927v21.644z"/>
        <path stroke="#1B4278" stroke-linecap="round" stroke-linejoin="round" stroke-width="1.341" d="M446.857 133.935l4.574 4.575 4.651-4.653M446.857 126.792l4.574 4.575 4.651-4.653"/>
        <path fill="#1B4278" d="M451.321 123.143c.494 0 .893.4.893.893v20.535h-1.785v-20.535c0-.493.4-.893.892-.893z"/>
        <g>
            <path fill="#4DC1BD" d="M473.643 146h-12.5v-29.216c0-3.826 2.798-6.927 6.25-6.927 3.451 0 6.25 3.101 6.25 6.927V146z"/>
            <path stroke="#1B4278" stroke-linecap="round" stroke-linejoin="round" stroke-width="1.341" d="M462.929 122.435l4.574 4.574 4.652-4.652M462.929 131.364l4.574 4.575 4.65-4.653"/>
            <path fill="#1B4278" d="M467.393 117c.493 0 .893.4.893.893V146H466.5v-28.107c0-.493.4-.893.893-.893z"/>
        </g>
        <g>
            <path fill="#006BA0" d="M457.571 146h-12.5v-22.073c0-3.826 2.799-6.927 6.25-6.927 3.452 0 6.25 3.101 6.25 6.927V146z"/>
            <path stroke="#1B4278" stroke-linecap="round" stroke-linejoin="round" stroke-width="1.341" d="M446.857 134.935l4.574 4.575 4.651-4.653M446.857 127.792l4.574 4.575 4.651-4.653"/>
            <path fill="#1B4278" d="M451.321 124.143c.494 0 .893.4.893.893V146h-1.785v-20.964c0-.493.4-.893.892-.893z"/>
        </g>
        <g>
            <path fill="#4DC1BD" d="M561.143 146h-12.5v-22.073c0-3.826 2.798-6.927 6.25-6.927 3.451 0 6.25 3.101 6.25 6.927V146z"/>
            <path stroke="#1B4278" stroke-linecap="round" stroke-linejoin="round" stroke-width="1.341" d="M550.429 134.935l4.574 4.575 4.65-4.653M550.429 127.792l4.574 4.575 4.65-4.653"/>
            <path fill="#1B4278" d="M554.893 124.143c.493 0 .893.4.893.893V146H554v-20.964c0-.493.4-.893.893-.893z"/>
        </g>
        <g fill="#006BA0">
            <path d="M432.104 138.86l-2.782 2.608c-.032.037-.071.067-.102.104-.064.059-.134.11-.205.162-.008.007-.016.015-.024.015-.04.021-.071.044-.103.059a1.653 1.653 0 0 1-.465.163h-.015c-.103.022-.197.029-.3.029a1.706 1.706 0 0 1-.749-.177c-.07-.03-.134-.074-.197-.112a1.468 1.468 0 0 1-.173-.14c-.04-.036-.071-.066-.103-.103l-2.782-2.607a1.407 1.407 0 0 1 0-2.083 1.64 1.64 0 0 1 2.23 0l.198.184v-.628c0-.82.701-1.477 1.576-1.477.867 0 1.577.658 1.577 1.477v.628l.197-.184a1.63 1.63 0 0 1 2.222 0 1.395 1.395 0 0 1 0 2.083"/>
            <path fill-rule="nonzero" d="M427.214 138.429H429V146h-1.786z"/>
        </g>
        <g fill="#006BA0">
            <path d="M573.176 138.86l-2.783 2.608c-.031.037-.07.067-.102.104-.063.059-.134.11-.205.162-.008.007-.016.015-.024.015-.039.021-.07.044-.102.059a1.653 1.653 0 0 1-.465.163h-.016c-.102.022-.197.029-.3.029a1.706 1.706 0 0 1-.749-.177c-.07-.03-.133-.074-.196-.112a1.468 1.468 0 0 1-.174-.14c-.04-.036-.07-.066-.102-.103l-2.783-2.607a1.407 1.407 0 0 1 0-2.083 1.64 1.64 0 0 1 2.231 0l.197.184v-.628c0-.82.702-1.477 1.577-1.477.867 0 1.576.658 1.576 1.477v.628l.197-.184a1.63 1.63 0 0 1 2.223 0 1.395 1.395 0 0 1 0 2.083"/>
            <path fill-rule="nonzero" d="M568.286 138.429h1.785V146h-1.785z"/>
        </g>
        <g fill="#006BA0">
            <path d="M421.39 138.86l-2.782 2.608c-.032.037-.071.067-.103.104-.063.059-.134.11-.205.162-.008.007-.015.015-.023.015-.04.021-.071.044-.103.059a1.653 1.653 0 0 1-.465.163h-.016c-.102.022-.197.029-.3.029a1.706 1.706 0 0 1-.749-.177c-.07-.03-.133-.074-.196-.112a1.468 1.468 0 0 1-.173-.14c-.04-.036-.071-.066-.103-.103l-2.782-2.607a1.407 1.407 0 0 1 0-2.083 1.64 1.64 0 0 1 2.23 0l.197.184v-.628c0-.82.702-1.477 1.577-1.477.867 0 1.576.658 1.576 1.477v.628l.197-.184a1.63 1.63 0 0 1 2.223 0 1.395 1.395 0 0 1 0 2.083"/>
            <path fill-rule="nonzero" d="M416.5 138.429h1.786V146H416.5z"/>
        </g>
    </g>
</svg>
