<svg xmlns="http://www.w3.org/2000/svg" xmlns:xlink="http://www.w3.org/1999/xlink" width="256" height="160" viewBox="0 0 256 160">
    <defs>
        <path id="a" d="M0 0h256v160H0z"/>
        <path id="c" d="M0 0h24v24H0z"/>
        <path id="e" d="M0 0h24v24H0z"/>
    </defs>
    <g fill="none" fill-rule="evenodd">
        <mask id="b" fill="#fff">
            <use xlink:href="#a"/>
        </mask>
        <use fill="#E14D4C" fill-opacity="0" fill-rule="nonzero" xlink:href="#a"/>
        <g mask="url(#b)">
            <g transform="translate(12 -3)">
                <g fill="#EEF2F5">
                    <path d="M146.64 65.014c-5.94 1.591-9.47 7.682-7.883 13.604 1.587 5.921 7.689 9.431 13.63 7.84l23.05-6.177c5.941-1.592 12.043 1.918 13.63 7.84 1.587 5.92-1.943 12.012-7.884 13.603l-37.181 9.963c5.258-1.409 10.659 1.698 12.063 6.938l.66 2.465c1.405 5.241-1.72 10.632-6.977 12.04l-98.049 26.273c-5.94 1.591-12.043-1.918-13.63-7.84-1.586-5.921 1.943-12.012 7.884-13.604l23.05-6.176c5.942-1.592 9.472-7.683 7.885-13.604-1.587-5.922-7.689-9.432-13.63-7.84l-23.05 6.176c-5.941 1.592-12.044-1.918-13.63-7.839-1.587-5.921 1.943-12.012 7.884-13.604l38.417-10.294c5.941-1.592 9.471-7.683 7.884-13.604-1.586-5.922-7.689-9.431-13.63-7.84l-10.756 2.883c-5.941 1.592-12.044-1.918-13.63-7.84-1.587-5.921 1.943-12.012 7.884-13.604L162.81 14.715c5.94-1.592 12.043 1.918 13.63 7.84 1.586 5.92-1.943 12.012-7.884 13.603l41.49-11.117c5.942-1.592 12.044 1.918 13.63 7.84 1.587 5.92-1.943 12.012-7.884 13.604l-69.151 18.529zM134.864 143.388l23.182-6.212a4 4 0 1 1 2.07 7.727l-23.182 6.212a4 4 0 1 1-2.07-7.727zM169.637 134.07l3.864-1.035a4 4 0 1 1 2.07 7.727l-3.863 1.036a4 4 0 1 1-2.07-7.727z"/>
                    <g>
                        <path d="M182.864 10.07l3.863-1.035a4 4 0 1 1 2.07 7.727l-3.863 1.036a4 4 0 1 1-2.07-7.727z"/>
                    </g>
                </g>
                <path fill="#DDE6F9" stroke="#5685F1" stroke-width="4" d="M54 133h156V47a6 6 0 0 0-6-6H60a6 6 0 0 0-6 6v86z"/>
                <g fill-rule="nonzero">
                    <path fill="#FFF" d="M54 131h52v4H54z"/>
                    <g fill="#5685F1" transform="translate(74 131)">
                        <rect width="6" height="4" rx="2"/>
                        <rect width="25" height="4" x="9" rx="2"/>
                    </g>
                </g>
                <path fill="#FFF" fill-rule="nonzero" d="M60 39h52v4H60z"/>
                <path fill="#C3D4FA" fill-opacity=".6" d="M204.14 39h-41.507a4 4 0 0 0-3.798 2.744L128 135h80.14a4 4 0 0 0 4-4V47a8 8 0 0 0-8-8z" style="mix-blend-mode:darken"/>
                <path fill="#5685F1" fill-rule="nonzero" d="M158 71h8a2 2 0 0 1 0 4h-8a2 2 0 0 1 0-4zM106 71h44a2 2 0 0 1 0 4h-44a2 2 0 0 1 0-4zM106 79h36a2 2 0 0 1 0 4h-36a2 2 0 0 1 0-4zM106 111h36a2 2 0 0 1 0 4h-36a2 2 0 0 1 0-4zM106 103h52a2 2 0 0 1 0 4h-52a2 2 0 0 1 0-4zM166 103h12a2 2 0 0 1 0 4h-12a2 2 0 0 1 0-4z" style="mix-blend-mode:darken"/>
                <g fill-rule="nonzero">
                    <path fill="#FFF" d="M60 39h52v4H60z"/>
                    <g fill="#5685F1" transform="translate(58 39)">
                        <rect width="12" height="4" rx="2"/>
                        <rect width="6" height="4" x="22" rx="2"/>
                        <rect width="25" height="4" x="31" rx="2"/>
                    </g>
                </g>
                <path fill="#5685F1" fill-rule="nonzero" d="M108 35h48a4 4 0 0 1 4 4v8a2 2 0 0 1-2 2h-52a2 2 0 0 1-2-2v-8a4 4 0 0 1 4-4z"/>
                <circle cx="132" cy="35" r="8" fill="#5685F1" fill-rule="nonzero"/>
                <circle cx="132" cy="35" r="3" fill="#FFF" fill-rule="nonzero"/>
                <g transform="translate(74 63)">
                    <rect width="20" height="20" y="4" fill="#FFF" rx="3.333"/>
                    <g transform="translate(2)">
                        <mask id="d" fill="#fff">
                            <use xlink:href="#c"/>
                        </mask>
                        <use fill="#E87F7F" fill-opacity="0" xlink:href="#c"/>
                        <path fill="#2EE3AA" stroke="#2EE3AA" d="M4.5 12.5H21a1.5 1.5 0 0 1 0 3H3A1.5 1.5 0 0 1 1.5 14V5a1.5 1.5 0 0 1 3 0v7.5z" mask="url(#d)" transform="rotate(-45 10.5 9.5)"/>
                    </g>
                </g>
                <g transform="translate(74 95)">
                    <rect width="20" height="20" y="4" fill="#FFF" rx="4"/>
                    <g transform="translate(2)">
                        <mask id="f" fill="#fff">
                            <use xlink:href="#e"/>
                        </mask>
                        <use fill="#E87F7F" fill-opacity="0" xlink:href="#e"/>
                        <path fill="#2EE3AA" stroke="#2EE3AA" d="M4.5 12.5H21a1.5 1.5 0 0 1 0 3H3A1.5 1.5 0 0 1 1.5 14V5a1.5 1.5 0 0 1 3 0v7.5z" mask="url(#f)" transform="rotate(-45 10.5 9.5)"/>
                    </g>
                </g>
                <g transform="translate(0 95)">
                    <g stroke-linejoin="square" stroke-width="4" transform="matrix(1 0 0 -1 0 40)">
                        <rect width="60" height="36" x="2" y="2" fill="#FFF" stroke="#FFF" rx="4"/>
                        <rect width="60" height="36" x="2" y="2" stroke="#2FB7EC" stroke-opacity=".6" rx="4"/>
                    </g>
                    <path fill="#79D6FA" fill-opacity=".4" d="M24 36h40V4H24z" style="mix-blend-mode:darken"/>
                    <rect width="10" height="6" x="8" y="18" fill="#2EE3AA" rx="1"/>
                    <path fill="#FFF" stroke="#2FB7EC" stroke-opacity=".6" stroke-width="4" d="M26 16.898V2h12v14.898a3 3 0 0 0-1.692.182l-1.732.722-1.234-.617a3 3 0 0 0-2.684 0l-1.234.617-1.732-.722A3 3 0 0 0 26 16.898z"/>
                </g>
                <g fill="#2EE3AA" fill-rule="nonzero" transform="translate(142 53)">
                    <rect width="26" height="10" rx="2"/>
                    <path d="M36 0h4a2 2 0 0 1 2 2v6a2 2 0 0 1-2 2h-4a2 2 0 0 1-2-2V2a2 2 0 0 1 2-2zM30 0a2 2 0 0 1 2 2v6a2 2 0 1 1-4 0V2a2 2 0 0 1 2-2zM46 0h8a2 2 0 0 1 2 2v6a2 2 0 0 1-2 2h-8a2 2 0 0 1-2-2V2a2 2 0 0 1 2-2z"/>
                </g>
                <path fill="#FFF" fill-rule="nonzero" d="M208 71h4v60h-4z"/>
                <g fill-rule="nonzero">
                    <path fill="#FFF" stroke="#5685F1" stroke-width="4" d="M187.728 85.598l31.113-31.113 8.485 8.486-31.113 31.112z"/>
                    <path fill="#2EE3AA" stroke="#5685F1" stroke-width="4" d="M218.84 54.485l8.486 8.486 4.243-4.243a2 2 0 0 0 0-2.829l-5.657-5.656a2 2 0 0 0-2.829 0l-4.242 4.242z"/>
                    <path fill="#FFF" stroke="#5685F1" stroke-width="4" d="M195.133 95.164l1.08-1.08-8.485-8.486-1.08 1.08-4.243 12.728 12.728-4.242z"/>
                    <path fill="#5685F1" d="M180.788 98.449l2.697-7.194 7.071 7.07-7.194 2.699a2 2 0 0 1-2.574-2.575z"/>
                    <path fill="#FFF" d="M193.385 94.083L221.669 65.8l2.828 2.828-28.284 28.285z"/>
                    <path fill="#5685F1" d="M193.385 94.083l9.9-9.9a2 2 0 1 1 2.828 2.828l-9.9 9.9-2.828-2.828zM207.527 79.941a2 2 0 1 1 2.828 2.828 2 2 0 1 1-2.828-2.828zM216.012 71.456l5.657-5.657a2 2 0 1 1 2.828 2.828l-5.656 5.657a2 2 0 1 1-2.828-2.828zM207.527 71.456l14.142-14.142a2 2 0 1 1 2.828 2.828l-14.142 14.142a2 2 0 1 1-2.828-2.828z"/>
                </g>
                <rect width="120" height="4" x="98" y="131" fill="#5685F1" fill-rule="nonzero" rx="2"/>
            </g>
        </g>
    </g>
</svg>
