<svg xmlns="http://www.w3.org/2000/svg" xmlns:xlink="http://www.w3.org/1999/xlink" width="128" height="110" viewBox="0 0 128 110">
    <defs>
        <path id="a" d="M0 0h128v110H0z"/>
        <path id="c" d="M28 0h80a4 4 0 0 1 4 4v68L88 96H28a4 4 0 0 1-4-4V4a4 4 0 0 1 4-4z"/>
        <path id="d" d="M88 0l26 26H88z"/>
        <path id="e" d="M73 14l26 26H73z"/>
    </defs>
    <g fill="none" fill-rule="evenodd">
        <mask id="b" fill="#fff">
            <use xlink:href="#a"/>
        </mask>
        <use fill="#D42828" fill-opacity="0" fill-rule="nonzero" xlink:href="#a"/>
        <g mask="url(#b)">
            <g transform="matrix(1 0 0 -1 0 96)">
                <use fill="#FFF" xlink:href="#c"/>
                <use fill="#C3D4FA" fill-opacity=".6" xlink:href="#c"/>
            </g>
            <g style="mix-blend-mode:darken">
                <use fill="#FFF" xlink:href="#d"/>
                <use fill="#2F88EC" fill-opacity=".4" xlink:href="#d"/>
            </g>
            <path fill="#FFF" stroke="#2F88EC" stroke-width="4" d="M73.172 16L96 38.828V106a2 2 0 0 1-2 2H14a2 2 0 0 1-2-2V18a2 2 0 0 1 2-2h59.172z"/>
            <rect width="26" height="4" x="71" y="37" fill="#2F88EC" fill-rule="nonzero" rx="2" transform="matrix(1 0 0 -1 0 78)"/>
            <rect width="4" height="26" x="71" y="15" fill="#2F88EC" fill-rule="nonzero" rx="2" transform="matrix(1 0 0 -1 0 56)"/>
            <rect width="16" height="16" x="21" y="84" fill="#2EE3AA" rx="2"/>
            <path fill="#FFF" fill-rule="nonzero" d="M30.538 91.973l3.13 3.023a1.088 1.088 0 0 1-1.511 1.564l-3.13-3.022-3.023 3.13a1.088 1.088 0 0 1-1.564-1.511l3.022-3.13-3.13-3.023a1.088 1.088 0 1 1 1.511-1.564l3.13 3.022 3.023-3.13a1.088 1.088 0 1 1 1.564 1.511l-3.022 3.13z"/>
            <g fill-rule="nonzero" transform="translate(12 14)">
                <path fill="#DBE5FC" d="M2 0h52v4H2z"/>
                <rect width="19" height="4" fill="#2F88EC" rx="2"/>
                <rect width="6" height="4" x="22" fill="#2F88EC" rx="2"/>
                <rect width="25" height="4" x="31" fill="#2F88EC" rx="2"/>
            </g>
            <path fill="#2F88EC" fill-rule="nonzero" d="M22 28h28a2 2 0 1 1 0 4H22a2 2 0 1 1 0-4zM22 38h38a2 2 0 1 1 0 4H22a2 2 0 1 1 0-4zM22 48h28a2 2 0 1 1 0 4H22a2 2 0 1 1 0-4zM22 58h54a2 2 0 1 1 0 4H22a2 2 0 1 1 0-4z"/>
            <path fill="#2F88EC" fill-opacity=".4" fill-rule="nonzero" d="M23 68h52a2 2 0 1 1 0 4H23a2 2 0 1 1 0-4z"/>
            <g fill-rule="nonzero">
                <path fill="#FFF" stroke="#2F88EC" stroke-width="4" d="M79.728 55.787l31.113-31.113 8.485 8.485-31.113 31.113z"/>
                <path fill="#2EE3AA" stroke="#2F88EC" stroke-width="4" d="M110.84 24.674l8.486 8.485 4.243-4.242a2 2 0 0 0 0-2.829l-5.657-5.657a2 2 0 0 0-2.829 0l-4.242 4.243z"/>
                <path fill="#FFF" stroke="#2F88EC" stroke-width="4" d="M87.133 65.352l1.08-1.08-8.485-8.485-1.08 1.08-4.243 12.728 12.728-4.243z"/>
                <path fill="#2F88EC" d="M72.788 68.638l2.697-7.194 7.071 7.07-7.194 2.698a2 2 0 0 1-2.574-2.574z"/>
                <path fill="#FFF" d="M85.385 64.272l28.284-28.284 2.828 2.828-28.284 28.285z"/>
                <path fill="#2F88EC" d="M85.385 64.272l9.9-9.9a2 2 0 1 1 2.828 2.828l-9.9 9.9-2.828-2.828zM99.527 50.13a2 2 0 1 1 2.828 2.828 2 2 0 1 1-2.828-2.828zM108.012 41.645l5.657-5.657a2 2 0 1 1 2.828 2.828l-5.656 5.657a2 2 0 1 1-2.828-2.828zM99.527 41.645l14.142-14.142a2 2 0 1 1 2.828 2.828l-14.142 14.142a2 2 0 1 1-2.828-2.828z"/>
            </g>
            <rect width="6" height="6" y="15" fill="#2F88EC" fill-opacity=".12" rx="3"/>
            <path fill="#EEF2F5" d="M40 96h37a2 2 0 1 1 0 4H40a2 2 0 1 1 0-4z"/>
            <path stroke="#2EE3AA" stroke-linecap="round" stroke-linejoin="round" stroke-width="2" d="M44.498 87.072c8.846-4.668 20.747-1.174 9.44 8.608-6.33 5.474.445-13.153 7.062-6.694 1.615 1.577 3.67 5.542 4.367 6.282 1.993 2.117 6.29-2.707 7.78-5.883"/>
            <path fill="#2EE3AA" fill-rule="nonzero" d="M76 83a2 2 0 1 1 0 4 2 2 0 1 1 0-4z"/>
            <g style="mix-blend-mode:darken">
                <use fill="#FFF" xlink:href="#e"/>
                <use fill="#2F88EC" fill-opacity=".4" xlink:href="#e"/>
            </g>
        </g>
    </g>
</svg>
