<svg width="380" height="180" viewBox="0 0 380 180" fill="none" xmlns="http://www.w3.org/2000/svg">
<mask id="mask0" mask-type="alpha" maskUnits="userSpaceOnUse" x="0" y="0" width="380" height="180">
<rect width="380" height="180" fill="#C4C4C4"/>
</mask>
<g mask="url(#mask0)">
<path d="M284.623 113.152C296.301 133.3 300.775 156.766 297.393 179.714L92.4553 179.713C86.4693 138.381 106.107 96.8185 143.171 75.4556C146.161 73.7661 149.151 72.1704 152.234 70.7812C200.713 48.8486 257.95 67.167 284.623 113.152Z" fill="#E7EEFD" fill-opacity="0.8"/>
<path fill-rule="evenodd" clip-rule="evenodd" d="M167.076 78.1011C166.639 77.0526 164.762 77.1765 164.732 77.6523C164.708 78.0311 164.732 79.3595 164.732 80.4771C164.732 81.5956 162.771 85.6758 161.812 87.8038C160.813 90.0218 160.322 89.698 160.167 92.7087C160.012 95.7193 160.116 97.2137 160.855 99.4707C161.655 101.915 162.682 101.991 162.433 105.747C162.184 109.503 160.813 139.572 160.105 149.706C159.408 159.673 159.462 175.252 159.462 179.989L184.861 179.971C184.861 179.971 180.953 170.969 181.214 160.8C181.478 150.474 179.701 141.802 176.55 118.967C176.252 116.815 174.71 108.731 175.944 106.823C177.178 104.916 177.525 103.936 177.525 103.936C175.354 95.4414 175.512 79.6874 169.981 81.6645L168.811 82.3912L167.076 78.1011Z" fill="#376EEE"/>
<path fill-rule="evenodd" clip-rule="evenodd" d="M181.233 112.878L182.659 112.301L146.233 22.0638L144.806 22.6406L181.233 112.878Z" fill="#0084B2"/>
<rect x="145" y="23.1971" width="60.2848" height="43.0606" rx="2" transform="rotate(-22 145 23.1971)" fill="white"/>
<mask id="mask1" mask-type="alpha" maskUnits="userSpaceOnUse" x="145" y="1" width="72" height="62">
<rect x="145" y="23.1971" width="60.2848" height="43.0606" rx="2" transform="rotate(-22 145 23.1971)" fill="white"/>
</mask>
<g mask="url(#mask1)">
<rect x="145" y="23.1971" width="60.2848" height="43.0606" transform="rotate(-22 145 23.1971)" fill="#043CAE"/>
<path fill-rule="evenodd" clip-rule="evenodd" d="M174.517 21.201L176.176 19.8893L178.281 19.6801L176.969 18.0208L176.76 15.916L175.101 17.2276L172.996 17.4368L174.307 19.0962L174.517 21.201ZM185.271 47.819L186.93 46.5073L189.035 46.2982L187.724 44.6388L187.514 42.534L185.855 43.8457L183.75 44.0548L185.062 45.7142L185.271 47.819ZM194.856 27.8215L193.196 29.1332L192.987 27.0284L191.675 25.369L193.78 25.1599L195.44 23.8482L195.649 25.953L196.96 27.6124L194.856 27.8215ZM166.583 39.8874L168.242 38.5757L170.347 38.3666L169.035 36.7072L168.826 34.6024L167.167 35.9141L165.062 36.1232L166.374 37.7826L166.583 39.8874ZM190.39 21.8883L188.731 23.1999L188.522 21.0951L187.21 19.4358L189.315 19.2266L190.974 17.915L191.183 20.0198L192.495 21.6791L190.39 21.8883ZM171.057 45.82L172.716 44.5083L174.821 44.2992L173.509 42.6398L173.3 40.535L171.641 41.8467L169.536 42.0558L170.848 43.7152L171.057 45.82ZM183.548 18.9851L181.889 20.2967L181.68 18.1919L180.368 16.5325L182.473 16.3234L184.132 15.0117L184.341 17.1165L185.653 18.7759L183.548 18.9851ZM177.89 48.7238L179.55 47.4122L181.654 47.203L180.343 45.5436L180.134 43.4388L178.474 44.7505L176.369 44.9597L177.681 46.619L177.89 48.7238ZM195.767 35.1953L194.107 36.507L193.898 34.4022L192.586 32.7428L194.691 32.5337L196.351 31.222L196.56 33.3268L197.871 34.9862L195.767 35.1953ZM165.68 32.513L167.34 31.2013L169.445 30.9921L168.133 29.3328L167.924 27.228L166.264 28.5396L164.16 28.7488L165.471 30.4081L165.68 32.513ZM192.861 42.0359L191.202 43.3476L190.993 41.2428L189.681 39.5834L191.786 39.3743L193.445 38.0626L193.655 40.1674L194.966 41.8268L192.861 42.0359ZM168.577 25.6733L170.237 24.3617L172.341 24.1525L171.03 22.4932L170.821 20.3883L169.161 21.7L167.056 21.9092L168.368 23.5685L168.577 25.6733Z" fill="#FFD429"/>
</g>
<path fill-rule="evenodd" clip-rule="evenodd" d="M168.147 76.7569C168.147 76.7569 168.281 77.0747 168.349 77.2806C168.429 77.5225 167.689 78.4641 167.405 79.1598C167.122 79.8545 166.648 81.4958 168.131 82.1905C169.615 82.8852 171.037 81.6227 171.037 81.6227C171.037 81.6227 167.752 86.8954 167.689 87.9999C167.626 89.1054 167.879 89.7681 168.416 90.2099C168.953 90.6527 170.342 90.8107 171.353 89.2634C171.353 89.2634 168.763 92.4519 168.795 93.3995C168.826 94.3471 168.905 95.7165 170.215 95.9564C171.285 96.1533 173.102 94.3081 173.516 93.9953C173.163 94.3641 171.569 95.7345 171.321 96.6511C171.114 97.4138 171.791 98.6802 173.341 98.2934C174.792 97.9315 175.054 97.4058 176.188 96.6721C176.805 98.1734 178.346 102.01 178.346 102.01C178.346 102.01 179.783 100.03 179.909 97.3778C180.035 94.7259 179.53 95.2307 179.403 94.3781C179.277 93.5255 179.909 92.4839 178.74 91.3154C177.572 90.147 176.828 90.5618 176.828 90.5618C176.828 90.5618 177.356 89.6892 177.885 88.4657C178.19 87.761 178.56 86.9944 178.078 86.2007C177.706 85.589 176.991 85.1172 176.467 85.0012C175.616 84.8113 174.627 85.425 174.438 85.6779C174.438 85.6779 175.134 84.5644 175.528 83.6378C175.802 82.9941 176.143 81.7996 175.669 80.979C175.195 80.1574 173.969 79.0539 173.057 79.4437C172.355 79.7436 171.835 80.3563 171.835 80.3563C171.835 80.3563 172.477 79.5307 172.346 78.6291C172.148 77.2667 170.503 76.3461 169.345 76.3541C168.395 76.3601 168.147 76.7569 168.147 76.7569Z" fill="#376EEE"/>
<path d="M179.127 94.1253C179.127 94.1253 177.203 96.0504 176.188 96.6722C175.171 97.2939 174.538 98.0845 173.087 98.4464C171.538 98.8332 171.156 97.4238 171.32 96.6512C171.556 95.5437 173.163 94.3642 173.515 93.9953C173.102 94.3082 171.284 96.1534 170.215 95.9575C168.905 95.7166 168.492 94.692 168.61 93.6885C168.69 93.0158 169.811 90.8807 171.352 89.2634C169.811 90.8807 169.132 90.6948 168.452 90.321C167.495 89.7942 167.432 88.7986 167.735 87.874C168.08 86.8225 170.961 81.5119 170.961 81.5119C170.961 81.5119 169.616 82.8853 168.131 82.1906C166.648 81.4959 167.017 79.8016 167.405 79.1599C167.859 78.4072 168.489 77.6456 168.409 77.4037C168.341 77.1968 168.147 76.757 168.147 76.757" stroke="#0E3AA1" stroke-opacity="0.4" stroke-width="0.5" stroke-linecap="round" stroke-linejoin="round"/>
<path d="M174.438 85.6779L171.353 89.2633" stroke="#0E3AA1" stroke-opacity="0.4" stroke-width="0.5" stroke-linecap="round" stroke-linejoin="round"/>
<path d="M176.828 90.5619L173.516 93.9954" stroke="#0E3AA1" stroke-opacity="0.4" stroke-width="0.5" stroke-linecap="round" stroke-linejoin="round"/>
<path d="M170.661 95.9385C171.179 98.0006 170.775 100.534 168.491 102.744" stroke="#0E3AA1" stroke-opacity="0.4" stroke-width="0.5" stroke-linecap="round" stroke-linejoin="round"/>
<path d="M168.131 82.1906C168.656 84.5595 166.781 89.7042 166.781 89.7042C166.781 89.7042 165.929 91.1866 164.546 91.2735" stroke="#0E3AA1" stroke-opacity="0.4" stroke-width="0.5" stroke-linecap="round" stroke-linejoin="round"/>
<path d="M170.961 81.5117C171.398 80.856 171.836 80.3562 171.836 80.3562" stroke="#0E3AA1" stroke-opacity="0.4" stroke-width="0.5" stroke-linecap="round" stroke-linejoin="round"/>
<path fill-rule="evenodd" clip-rule="evenodd" d="M220.551 180C220.551 180 218.743 155.039 218.279 152.206C217.927 150.063 217.016 141.883 215.274 140.424C213.531 138.966 212.91 138.132 212.91 138.132C212.479 129.376 207.679 114.37 213.547 114.626L214.879 114.976L215.271 110.364C215.379 109.234 217.21 108.798 217.379 109.244C217.513 109.598 217.882 110.875 218.212 111.944C218.541 113.01 221.62 116.331 223.164 118.082C224.772 119.906 225.146 119.452 226.183 122.282C227.22 125.114 227.561 126.572 227.521 128.946C227.478 131.518 226.727 131.821 227.865 135.41C231.497 146.849 240.991 180 240.991 180H220.551Z" fill="#376EEE"/>
<path fill-rule="evenodd" clip-rule="evenodd" d="M212.145 147.724L210.613 147.594L217.869 62.0115L219.401 62.1414L212.145 147.724Z" fill="#0084B2"/>
<path fill-rule="evenodd" clip-rule="evenodd" d="M213.851 109.396C213.851 109.396 213.817 109.74 213.813 109.957C213.808 110.211 214.793 110.894 215.269 111.473C215.745 112.053 216.683 113.481 215.469 114.583C214.257 115.685 212.527 114.897 212.527 114.897C212.527 114.897 217.22 118.967 217.607 120.003C217.993 121.041 217.947 121.749 217.565 122.329C217.183 122.911 215.901 123.472 214.479 122.291C214.479 122.291 217.894 124.574 218.143 125.489C218.393 126.403 218.722 127.735 217.541 128.352C216.577 128.855 214.296 127.628 213.809 127.451C214.255 127.7 216.182 128.539 216.69 129.341C217.113 130.009 216.838 131.418 215.244 131.506C213.75 131.588 213.345 131.164 212.046 130.798C211.898 132.414 211.56 136.534 211.56 136.534C211.56 136.534 209.602 135.066 208.698 132.57C207.795 130.073 208.427 130.406 208.296 129.554C208.166 128.703 207.254 127.893 208.026 126.433C208.797 124.971 209.63 125.148 209.63 125.148C209.63 125.148 208.868 124.471 208.003 123.457C207.503 122.874 206.922 122.25 207.15 121.349C207.325 120.655 207.868 119.993 208.335 119.728C209.092 119.296 210.217 119.591 210.473 119.776C210.473 119.776 209.479 118.918 208.829 118.148C208.378 117.615 207.7 116.574 207.91 115.649C208.121 114.726 208.966 113.309 209.953 113.412C210.712 113.491 211.389 113.923 211.389 113.923C211.389 113.923 210.533 113.324 210.392 112.424C210.179 111.063 211.479 109.699 212.589 109.364C213.497 109.09 213.851 109.396 213.851 109.396Z" fill="#376EEE"/>
<path d="M208.485 129.231C208.485 129.231 210.892 130.503 212.046 130.798C213.2 131.092 214.037 131.66 215.532 131.578C217.126 131.49 217.075 130.031 216.689 129.341C216.137 128.353 214.254 127.7 213.809 127.451C214.296 127.628 216.577 128.854 217.541 128.352C218.722 127.735 218.814 126.634 218.404 125.711C218.131 125.091 216.428 123.382 214.479 122.291C216.428 123.382 217.023 123.005 217.563 122.445C218.322 121.661 218.088 120.691 217.525 119.896C216.884 118.994 212.566 114.77 212.566 114.77C212.566 114.77 214.256 115.685 215.47 114.584C216.682 113.482 215.83 111.972 215.269 111.473C214.613 110.888 213.787 110.346 213.792 110.092C213.796 109.875 213.851 109.396 213.851 109.396" stroke="#0E3AA1" stroke-opacity="0.4" stroke-width="0.5" stroke-linecap="round" stroke-linejoin="round"/>
<path d="M210.473 119.776L214.479 122.292" stroke="#0E3AA1" stroke-opacity="0.4" stroke-width="0.5" stroke-linecap="round" stroke-linejoin="round"/>
<path d="M209.63 125.148L213.809 127.451" stroke="#0E3AA1" stroke-opacity="0.4" stroke-width="0.5" stroke-linecap="round" stroke-linejoin="round"/>
<path d="M217.109 128.466C217.223 130.589 218.357 132.89 221.191 134.328" stroke="#0E3AA1" stroke-opacity="0.4" stroke-width="0.5" stroke-linecap="round" stroke-linejoin="round"/>
<path d="M218.977 121.364C218.977 121.364 218.116 122.642 217.56 124.64" stroke="#0E3AA1" stroke-opacity="0.4" stroke-width="0.5" stroke-linecap="round" stroke-linejoin="round"/>
<path d="M215.469 114.583C215.667 117.001 218.977 121.363 218.977 121.363C218.977 121.363 220.227 122.529 221.576 122.204" stroke="#0E3AA1" stroke-opacity="0.4" stroke-width="0.5" stroke-linecap="round" stroke-linejoin="round"/>
<path d="M212.566 114.77C211.955 114.272 211.389 113.923 211.389 113.923" stroke="#0E3AA1" stroke-opacity="0.4" stroke-width="0.5" stroke-linecap="round" stroke-linejoin="round"/>
<path fill-rule="evenodd" clip-rule="evenodd" d="M280.057 106.719L216.023 101.248L219.362 62.1669L283.395 67.6375L280.057 106.719Z" fill="#2FB7EC"/>
<path fill-rule="evenodd" clip-rule="evenodd" d="M268.99 81.1276C267.742 81.0206 266.555 81.1936 265.322 82.0862C265.322 82.0862 266.617 76.5256 266.618 76.5226C266.701 76.1558 266.324 75.8179 265.781 75.772L264.482 75.66C263.939 75.613 263.395 76.0128 263.274 76.5466C263.274 76.5466 259.959 90.7183 259.958 90.7203C259.876 91.0872 260.251 91.425 260.795 91.472L262.094 91.583C262.627 91.6289 263.159 91.2451 263.294 90.7253H263.296L264.333 86.3053C264.542 85.4117 264.948 84.756 265.551 84.3372C266.153 83.9184 266.786 83.7374 267.449 83.7944C268.792 83.9094 269.257 84.8469 268.845 86.6042C268.845 86.6042 267.735 91.3721 267.735 91.3731C267.652 91.7399 268.028 92.0777 268.572 92.1237L269.869 92.2347C270.413 92.2817 270.957 91.8828 271.078 91.3481L272.328 86.1873C272.661 84.769 272.499 83.5975 271.843 82.6739C271.188 81.7503 270.236 81.2345 268.99 81.1276Z" fill="white"/>
<path fill-rule="evenodd" clip-rule="evenodd" d="M259.764 80.739L259.733 80.718C258.863 80.1443 257.98 79.8814 256.785 79.8374C255.487 79.7895 254.351 80.0763 253.409 80.6911C252.459 81.3098 251.882 82.1464 251.691 83.177C251.498 84.2235 251.787 85.0421 252.548 85.6099C252.91 85.8838 253.244 86.0987 253.54 86.2466C253.834 86.3945 254.27 86.5755 254.836 86.7864C255.386 86.9913 255.8 87.2062 256.065 87.4241C256.309 87.624 256.409 87.8239 256.369 88.0368C256.328 88.2587 256.197 88.4296 255.969 88.5596C255.731 88.6945 255.424 88.7565 255.057 88.7425C254.065 88.7065 253.155 88.3957 252.352 87.8199L251.755 87.4201C251.66 87.3551 251.544 87.3181 251.423 87.3141C251.225 87.3061 251.032 87.3851 250.907 87.525L249.902 88.6435C249.8 88.7575 249.751 88.9024 249.765 89.0484C249.778 89.1893 249.848 89.3172 249.962 89.4092C250.237 89.6671 250.527 89.896 250.824 90.0909C251.212 90.3498 251.634 90.5687 252.078 90.7426C252.909 91.0675 253.745 91.2474 254.562 91.2764C255.795 91.3224 256.888 91.0265 257.813 90.3978C258.744 89.764 259.317 88.8864 259.52 87.7899C259.726 86.6754 259.472 85.8518 258.766 85.339C258.404 85.0791 258.08 84.8832 257.805 84.7543C257.532 84.6273 257.066 84.4424 256.423 84.2025C255.787 83.9666 255.333 83.7617 255.074 83.5938C254.846 83.4458 254.76 83.2679 254.804 83.031C254.886 82.5872 255.366 82.3783 256.232 82.4103C256.928 82.4353 257.609 82.6552 258.255 83.061C258.387 83.149 258.532 83.2529 258.664 83.3549C258.829 83.4668 258.959 83.5168 259.086 83.5208C259.275 83.5288 259.447 83.4378 259.643 83.2269L260.317 82.5033C260.602 82.1974 260.652 81.6926 260.433 81.3248C260.341 81.1289 260.04 80.92 259.764 80.739Z" fill="white"/>
<path fill-rule="evenodd" clip-rule="evenodd" d="M250.323 74.7924C249.818 74.7494 249.351 74.8854 248.923 75.2002C248.493 75.5161 248.22 75.9249 248.101 76.4247C247.983 76.9265 248.058 77.3643 248.324 77.7391C248.592 78.1139 248.977 78.3229 249.482 78.3668C249.986 78.4098 250.454 78.2729 250.884 77.958C251.313 77.6432 251.586 77.2343 251.703 76.7336C251.821 76.2328 251.747 75.794 251.481 75.4191C251.214 75.0443 250.828 74.8354 250.323 74.7924Z" fill="white"/>
<path fill-rule="evenodd" clip-rule="evenodd" d="M250.122 79.6013L248.85 79.4923C248.317 79.4463 247.784 79.8382 247.665 80.3609C247.665 80.3609 245.599 89.4079 245.589 89.4509C245.507 89.8108 245.876 90.1426 246.409 90.1876L247.681 90.2975C248.214 90.3425 248.747 89.9517 248.866 89.4279C248.866 89.4279 250.935 80.3669 250.942 80.3379C251.024 79.9781 250.655 79.6462 250.122 79.6013Z" fill="white"/>
<path fill-rule="evenodd" clip-rule="evenodd" d="M245.565 79.2612L244.149 79.1402C243.556 79.0893 242.963 79.5251 242.83 80.1078L241.853 84.4469C241.745 84.9207 241.48 85.3155 241.058 85.6334C240.636 85.9522 240.181 86.0902 239.691 86.0482C239.214 86.0072 238.843 85.8013 238.578 85.4315C238.312 85.0616 238.234 84.6338 238.344 84.147L238.936 81.5132C238.993 80.9824 238.629 80.5316 238.08 80.4846L236.638 80.3617C236.088 80.3137 235.538 80.6865 235.357 81.2063L234.753 83.8402C234.643 84.3259 234.377 84.7248 233.957 85.0356C233.537 85.3475 233.089 85.4824 232.613 85.4424C232.136 85.4015 231.762 85.1926 231.491 84.8147C231.22 84.4369 231.139 84.0121 231.246 83.5393L232.551 77.7818C232.685 77.2211 232.4 76.5994 231.907 76.3145C231.907 76.3145 226.048 73.2618 225.666 73.0649C225.279 72.867 224.793 73.1959 224.586 73.7956L224.089 75.23C223.88 75.8307 224.171 76.5584 224.734 76.8472L228.663 78.8823L227.675 83.2334C227.344 84.6928 227.582 85.9862 228.391 87.1107C229.198 88.2362 230.338 88.8609 231.808 88.9869C233.166 89.1028 234.445 88.752 235.644 87.9333C236.461 88.9249 237.542 89.4777 238.886 89.5926C240.357 89.7186 241.731 89.3087 243.009 88.3622C244.287 87.4166 245.091 86.2131 245.423 84.7538C245.423 84.7538 246.46 80.1608 246.478 80.0808C246.568 79.68 246.158 79.3122 245.565 79.2612Z" fill="white"/>
<path fill-rule="evenodd" clip-rule="evenodd" d="M53.5215 179.997C55.9584 167.951 59.4878 152.853 62.8454 140.618C63.4191 138.523 65.3063 127.378 64.2168 125.385C63.1282 123.39 62.8544 122.387 62.8544 122.387C65.6521 114.079 66.6657 98.3555 72.0353 100.738L73.1468 101.551L75.1969 97.4009C75.7097 96.3883 77.5729 96.6512 77.5679 97.128C77.5629 97.5068 77.4409 98.8303 77.358 99.9458C77.274 101.059 78.9273 105.275 79.7239 107.468C80.5555 109.754 81.0693 109.468 81.0003 112.482C80.9314 115.497 80.7155 116.978 79.8109 119.174C78.8313 121.552 77.7748 121.551 77.7708 125.316C77.7578 138.245 79.6619 167.091 77.9617 179.997H53.5215Z" fill="#8CACF6"/>
<path fill-rule="evenodd" clip-rule="evenodd" d="M58.6379 131.036L57.2585 130.355L95.2798 53.3405L96.6591 54.0212L58.6379 131.036Z" fill="#0084B2"/>
<path fill-rule="evenodd" clip-rule="evenodd" d="M74.2284 95.9813C74.2284 95.9813 74.0714 96.2882 73.9885 96.4891C73.8905 96.724 74.5582 97.7185 74.7901 98.4322C75.021 99.1459 75.3719 100.818 73.8395 101.401C72.3082 101.983 70.9848 100.618 70.9848 100.618C70.9848 100.618 73.8675 106.121 73.8485 107.227C73.8296 108.334 73.5277 108.977 72.9599 109.377C72.3922 109.778 70.9948 109.832 70.1022 108.214C70.1022 108.214 72.4472 111.587 72.3452 112.529C72.2433 113.472 72.0623 114.832 70.7379 114.974C69.6574 115.09 67.9821 113.116 67.5933 112.773C67.9172 113.167 69.4045 114.652 69.5844 115.585C69.7334 116.36 68.9627 117.573 67.4474 117.072C66.026 116.602 65.8041 116.059 64.7296 115.244C64.0019 116.695 62.1807 120.407 62.1807 120.407C62.1807 120.407 60.8943 118.324 60.9652 115.67C61.0372 113.016 61.504 113.557 61.6929 112.717C61.8818 111.875 61.3301 110.79 62.5815 109.711C63.834 108.634 64.5447 109.102 64.5447 109.102C64.5447 109.102 64.0839 108.193 63.647 106.933C63.3962 106.208 63.0833 105.415 63.6231 104.66C64.0399 104.078 64.7875 103.661 65.3183 103.583C66.1809 103.458 67.1215 104.144 67.2914 104.41C67.2914 104.41 66.6797 103.248 66.3559 102.294C66.131 101.631 65.8801 100.415 66.4138 99.6317C66.9466 98.8491 68.252 97.8385 69.1326 98.2953C69.8103 98.6471 70.2821 99.2959 70.2821 99.2959C70.2821 99.2959 69.7044 98.4252 69.9023 97.5356C70.2002 96.1912 71.9104 95.3966 73.0649 95.4905C74.0115 95.5675 74.2284 95.9813 74.2284 95.9813Z" fill="#8CACF6"/>
<path d="M61.9868 112.484C61.9868 112.484 63.763 114.547 64.7296 115.243C65.6962 115.94 66.2689 116.775 67.6893 117.243C69.2056 117.744 69.6914 116.368 69.5845 115.585C69.4315 114.463 67.9172 113.167 67.5933 112.773C67.9822 113.115 69.6574 115.09 70.738 114.974C72.0634 114.832 72.5501 113.841 72.5072 112.831C72.4782 112.155 71.5186 109.943 70.1022 108.214C71.5186 109.943 72.2093 109.808 72.916 109.485C73.9095 109.031 74.0455 108.042 73.8126 107.098C73.5457 106.023 71.0688 100.514 71.0688 100.514C71.0688 100.514 72.3083 101.983 73.8396 101.401C75.3719 100.819 75.129 99.1023 74.7902 98.4326C74.3933 97.649 73.8216 96.8413 73.9195 96.6064C74.0025 96.4065 74.2284 95.9817 74.2284 95.9817" stroke="#0E3AA1" stroke-opacity="0.4" stroke-width="0.5" stroke-linecap="round" stroke-linejoin="round"/>
<path d="M67.2917 104.409L70.1025 108.215" stroke="#0E3AA1" stroke-opacity="0.4" stroke-width="0.5" stroke-linecap="round" stroke-linejoin="round"/>
<path d="M64.5447 109.102L67.5933 112.772" stroke="#0E3AA1" stroke-opacity="0.4" stroke-width="0.5" stroke-linecap="round" stroke-linejoin="round"/>
<path d="M70.2947 114.923C69.625 116.941 69.8389 119.497 71.953 121.872" stroke="#0E3AA1" stroke-opacity="0.4" stroke-width="0.5" stroke-linecap="round" stroke-linejoin="round"/>
<path d="M73.8399 101.401C73.1412 103.724 74.6275 108.994 74.6275 108.994C74.6275 108.994 75.3662 110.536 76.7396 110.726" stroke="#0E3AA1" stroke-opacity="0.4" stroke-width="0.5" stroke-linecap="round" stroke-linejoin="round"/>
<path d="M71.0689 100.513C70.6821 99.8268 70.2822 99.296 70.2822 99.296" stroke="#0E3AA1" stroke-opacity="0.4" stroke-width="0.5" stroke-linecap="round" stroke-linejoin="round"/>
<path fill-rule="evenodd" clip-rule="evenodd" d="M314.069 180H298.925C299.44 171.286 303.702 157.152 301.431 154.38C300.502 153.246 297.861 150.082 297.316 147.966C296.45 144.593 295.39 140.925 295.806 139.009C296.195 137.225 295.718 134.265 296.896 134.138C298.592 133.954 299.594 137.474 299.387 139.469C299.289 140.409 300.64 143.184 300.875 144.625C300.875 144.625 302.499 139.779 302.759 137.881C303.061 135.693 302.97 123.847 304.549 123.35C306.698 122.672 306.432 125.336 306.371 127.476C306.307 129.693 306.49 137.761 307.069 137.795C307.65 137.83 308.809 128.613 309.259 126.727C309.566 125.433 309.772 123.063 311.346 123.182C313.009 123.308 312.272 126.796 311.963 129.808C311.667 132.695 310.495 138.312 310.802 138.427C310.828 138.436 311.016 138.531 311.077 138.423C311.745 137.246 312.805 130.702 313.253 129.149C313.58 128.016 314.23 125.436 315.186 125.219C316.663 124.884 316.603 127.085 316.356 128.163C316.109 129.24 314.436 139.498 314.296 140.029C314.23 140.281 314.464 140.538 314.726 140.393C314.988 140.248 317.029 134.409 317.376 132.903C317.681 131.573 318.238 129.954 319.471 130.145C320.808 130.351 319.724 134.153 319.46 136.113C319.229 137.834 317.382 142.754 317.382 142.754C317.382 142.754 316.749 149.261 316.546 150.696C316.413 151.637 315.9 152.718 315.456 153.512C314.998 154.329 314.809 155.247 314.902 156.154L314.069 180Z" fill="#8CACF6"/>
<path fill-rule="evenodd" clip-rule="evenodd" d="M263.755 180H281.801C282.402 171.471 277.268 141.305 279.323 138.384C280.163 137.191 283.642 133.463 283.636 131.444C283.627 127.919 285.009 124.324 284.142 122.557C283.273 120.791 283.372 117.803 282.257 117.735C280.652 117.64 280.281 121.361 280.779 123.208C281.027 124.129 279.714 127.028 279.539 128.498C279.539 128.498 278.256 123.573 277.548 121.781C276.84 119.987 270.266 122.619 269.981 122.751C269.957 122.761 269.719 122.883 269.721 122.761C269.74 121.273 263.912 127.467 263.912 127.467C263.912 127.467 264.714 134.01 264.95 135.451C265.106 136.395 265.624 137.46 266.068 138.239C266.525 139.041 266.732 139.959 266.673 140.88L263.755 180Z" fill="#376EEE"/>
<path fill-rule="evenodd" clip-rule="evenodd" d="M272.293 137.449L264.635 133.09C263.769 132.597 263.464 131.486 263.957 130.619L274.553 112.001C275.046 111.136 276.159 110.83 277.024 111.323L284.683 115.682C285.548 116.174 285.854 117.287 285.362 118.152L274.764 136.77C274.271 137.637 273.16 137.942 272.293 137.449Z" fill="#2F95C2"/>
<path fill-rule="evenodd" clip-rule="evenodd" d="M274.63 135.993L264.932 130.474L274.885 112.989L284.582 118.508L274.63 135.993Z" fill="white"/>
<path fill-rule="evenodd" clip-rule="evenodd" d="M273.221 115.911L282.919 121.431L284.582 118.508L274.884 112.989L273.221 115.911Z" fill="#2FB7EC"/>
<path fill-rule="evenodd" clip-rule="evenodd" d="M269.667 135.003L268.079 134.099C267.866 133.978 267.792 133.705 267.913 133.492C268.034 133.28 268.307 133.205 268.52 133.326L270.107 134.229C270.32 134.35 270.395 134.624 270.273 134.836C270.152 135.049 269.879 135.124 269.667 135.003Z" fill="#0084B2"/>
<path fill-rule="evenodd" clip-rule="evenodd" d="M281.306 114.804L279.504 113.778C279.434 113.738 279.41 113.649 279.45 113.579C279.489 113.51 279.578 113.485 279.648 113.525L281.45 114.551C281.519 114.591 281.544 114.68 281.504 114.749C281.465 114.819 281.375 114.844 281.306 114.804Z" fill="#0084B2"/>
<path fill-rule="evenodd" clip-rule="evenodd" d="M275.191 123.385L270.797 120.884L273.298 116.491L277.691 118.991L275.191 123.385Z" fill="#DFF3FB"/>
<path fill-rule="evenodd" clip-rule="evenodd" d="M279.88 126.054L275.486 123.553L277.987 119.16L282.381 121.66L279.88 126.054Z" fill="#DFF3FB"/>
<path fill-rule="evenodd" clip-rule="evenodd" d="M272.543 128.036L268.149 125.535L270.65 121.142L275.044 123.642L272.543 128.036Z" fill="#DFF3FB"/>
<path fill-rule="evenodd" clip-rule="evenodd" d="M277.233 130.705L272.839 128.204L275.34 123.811L279.734 126.311L277.233 130.705Z" fill="#DFF3FB"/>
<path fill-rule="evenodd" clip-rule="evenodd" d="M269.896 132.687L265.502 130.186L268.003 125.793L272.397 128.293L269.896 132.687Z" fill="#DFF3FB"/>
<path fill-rule="evenodd" clip-rule="evenodd" d="M274.586 135.356L270.192 132.856L272.693 128.462L277.087 130.962L274.586 135.356Z" fill="#DFF3FB"/>
<path fill-rule="evenodd" clip-rule="evenodd" d="M283.593 131.292C283.584 127.767 284.967 124.172 284.098 122.405C283.23 120.638 283.329 117.652 282.215 117.585C280.61 117.487 280.24 121.209 280.736 123.056C280.984 123.977 279.469 127.326 279.533 128.838" fill="#376EEE"/>
<path fill-rule="evenodd" clip-rule="evenodd" d="M272.69 115.047C271.635 113.724 270.117 114.344 269.641 115.645C269.163 116.946 269.644 117.655 269.644 117.655C269.644 117.655 269.111 117.136 268.006 117.834C266.902 118.532 267.045 120.16 267.358 120.645C267.358 120.645 266.649 120.377 265.76 121.095C264.873 121.813 264.795 123.03 264.877 123.323C264.96 123.616 265.491 124.381 265.491 124.381C265.491 124.381 264.296 124.507 264 125.328C263.704 126.15 263.912 127.467 263.912 127.467C263.912 127.467 264.988 128.113 266.683 128.184C268.374 128.254 268.645 127.756 268.727 127.125C268.879 125.941 266.478 124.883 266.478 124.883C266.478 124.883 269.244 125.772 269.899 124.926C271.204 123.245 268.719 121.607 268.719 121.607C268.719 121.607 270.988 123.109 272.013 121.33C272.441 120.586 270.816 118.941 270.816 118.941C270.816 118.941 272.509 120.924 273.546 120.548C274.901 120.056 274.909 117.826 272.69 115.047Z" fill="#376EEE"/>
<path fill-rule="evenodd" clip-rule="evenodd" d="M124.701 180L107.395 179.989C108.604 171.525 117.063 156.04 115.669 152.752C115.101 151.408 112.486 147.03 112.916 145.058C113.668 141.614 113.076 137.809 114.296 136.264C115.516 134.72 116.049 131.779 117.154 131.948C118.743 132.192 118.321 135.909 117.445 137.61C117.009 138.456 117.681 141.569 117.544 143.041C117.544 143.041 119.835 138.498 120.905 136.895C121.975 135.292 127.846 139.249 128.097 139.438C128.119 139.455 128.325 139.623 128.349 139.503C128.644 138.045 133.036 145.328 133.036 145.328C133.036 145.328 130.872 151.556 130.338 152.913C129.987 153.804 129.255 154.735 128.658 155.404C128.041 156.092 127.645 156.945 127.509 157.858L124.701 180Z" fill="#1A4379"/>
<path fill-rule="evenodd" clip-rule="evenodd" d="M122.738 153.319L131.144 150.673C132.093 150.373 132.627 149.351 132.327 148.4L125.893 127.967C125.594 127.016 124.57 126.483 123.62 126.783L115.216 129.429C114.265 129.728 113.732 130.751 114.031 131.702L120.465 152.134C120.765 153.086 121.788 153.619 122.738 153.319Z" fill="#115775"/>
<path fill-rule="evenodd" clip-rule="evenodd" d="M120.761 151.404L131.404 148.052L125.361 128.863L114.719 132.213L120.761 151.404Z" fill="white"/>
<path fill-rule="evenodd" clip-rule="evenodd" d="M126.372 132.069L115.728 135.421L114.719 132.213L125.361 128.863L126.372 132.069Z" fill="#2FB7EC"/>
<path fill-rule="evenodd" clip-rule="evenodd" d="M125.821 151.481L127.564 150.933C127.798 150.86 127.927 150.608 127.854 150.375C127.781 150.141 127.53 150.01 127.296 150.084L125.554 150.632C125.321 150.706 125.19 150.958 125.263 151.19C125.337 151.424 125.587 151.555 125.821 151.481Z" fill="#123D50"/>
<path fill-rule="evenodd" clip-rule="evenodd" d="M118.702 129.283L120.68 128.66C120.756 128.636 120.799 128.554 120.775 128.477C120.751 128.401 120.669 128.358 120.592 128.382L118.615 129.005C118.538 129.029 118.495 129.112 118.519 129.188C118.544 129.264 118.626 129.307 118.702 129.283Z" fill="#123D50"/>
<path fill-rule="evenodd" clip-rule="evenodd" d="M122.871 138.96L127.692 137.442L126.174 132.62L121.352 134.138L122.871 138.96Z" fill="#DFF3FB"/>
<path fill-rule="evenodd" clip-rule="evenodd" d="M117.724 140.581L122.546 139.062L121.027 134.241L116.205 135.759L117.724 140.581Z" fill="#DFF3FB"/>
<path fill-rule="evenodd" clip-rule="evenodd" d="M124.478 144.065L129.3 142.546L127.781 137.724L122.959 139.243L124.478 144.065Z" fill="#DFF3FB"/>
<path fill-rule="evenodd" clip-rule="evenodd" d="M119.331 145.686L124.153 144.166L122.635 139.345L117.813 140.864L119.331 145.686Z" fill="#DFF3FB"/>
<path fill-rule="evenodd" clip-rule="evenodd" d="M126.085 149.169L130.907 147.651L129.389 142.829L124.567 144.347L126.085 149.169Z" fill="#DFF3FB"/>
<path fill-rule="evenodd" clip-rule="evenodd" d="M120.938 150.79L125.76 149.271L124.242 144.449L119.42 145.968L120.938 150.79Z" fill="#DFF3FB"/>
<path fill-rule="evenodd" clip-rule="evenodd" d="M112.99 144.919C113.742 141.475 113.15 137.669 114.369 136.125C115.591 134.581 116.123 131.64 117.227 131.809C118.817 132.053 118.394 135.768 117.519 137.47C117.083 138.317 117.859 141.911 117.476 143.376" fill="#1A4379"/>
<path fill-rule="evenodd" clip-rule="evenodd" d="M127.073 131.336C128.384 130.266 129.736 131.191 129.928 132.564C130.12 133.936 129.501 134.527 129.501 134.527C129.501 134.527 130.131 134.133 131.064 135.049C131.995 135.963 131.514 137.525 131.106 137.934C131.106 137.934 131.854 137.821 132.571 138.709C133.289 139.598 133.109 140.804 132.966 141.074C132.823 141.343 132.142 141.978 132.142 141.978C132.142 141.978 133.284 142.353 133.401 143.219C133.517 144.084 133.036 145.328 133.036 145.328C133.036 145.328 131.848 145.732 130.176 145.444C128.508 145.157 128.348 144.614 128.401 143.98C128.501 142.789 131.072 142.262 131.072 142.262C131.072 142.262 128.181 142.547 127.718 141.582C126.798 139.664 129.571 138.586 129.571 138.586C129.571 138.586 127.038 139.577 126.41 137.621C126.148 136.805 128.084 135.54 128.084 135.54C128.084 135.54 126.01 137.12 125.076 136.534C123.855 135.767 124.318 133.585 127.073 131.336Z" fill="#1A4379"/>
<path fill-rule="evenodd" clip-rule="evenodd" d="M131.633 23.9853L135.667 26.1924C136.484 26.6382 136.484 27.8116 135.667 28.2575L131.633 30.4645C131.435 30.5724 131.273 30.7344 131.165 30.9323L128.958 34.9665C128.511 35.7831 127.339 35.7831 126.892 34.9665L124.686 30.9323C124.577 30.7344 124.415 30.5724 124.218 30.4645L120.183 28.2575C119.367 27.8116 119.367 26.6382 120.183 26.1924L124.218 23.9853C124.415 23.8774 124.577 23.7145 124.686 23.5175L126.892 19.4833C127.339 18.6667 128.511 18.6667 128.958 19.4833L131.165 23.5175C131.273 23.7145 131.435 23.8774 131.633 23.9853Z" fill="#1ACC94"/>
<path fill-rule="evenodd" clip-rule="evenodd" d="M356.161 106.758L360.195 108.965C361.013 109.411 361.013 110.585 360.195 111.031L356.161 113.237C355.964 113.345 355.801 113.508 355.693 113.706L353.486 117.74C353.04 118.557 351.867 118.557 351.42 117.74L349.214 113.706C349.106 113.508 348.943 113.345 348.747 113.237L344.711 111.031C343.896 110.585 343.896 109.411 344.711 108.965L348.747 106.758C348.943 106.65 349.106 106.487 349.214 106.29L351.42 102.256C351.867 101.44 353.04 101.44 353.486 102.256L355.693 106.29C355.801 106.487 355.964 106.65 356.161 106.758Z" fill="#1ACC94"/>
<path fill-rule="evenodd" clip-rule="evenodd" d="M260.977 40.2242L263.509 41.6086C264.021 41.8895 264.021 42.6252 263.509 42.905L260.977 44.2894C260.853 44.3574 260.751 44.4594 260.684 44.5833L259.299 47.1152C259.019 47.627 258.283 47.627 258.002 47.1152L256.618 44.5833C256.55 44.4594 256.448 44.3574 256.324 44.2894L253.793 42.905C253.28 42.6252 253.28 41.8895 253.793 41.6086L256.324 40.2242C256.448 40.1563 256.55 40.0543 256.618 39.9304L258.002 37.3985C258.283 36.8867 259.019 36.8867 259.299 37.3985L260.684 39.9304C260.751 40.0543 260.853 40.1563 260.977 40.2242Z" fill="#FFD560"/>
<path fill-rule="evenodd" clip-rule="evenodd" d="M27.5684 91.8354L30.1003 93.2198C30.6121 93.5007 30.6121 94.2364 30.1003 94.5163L27.5684 95.9006C27.4445 95.9686 27.3425 96.0706 27.2755 96.1945L25.8901 98.7264C25.6103 99.2382 24.8746 99.2382 24.5937 98.7264L23.2093 96.1945C23.1414 96.0706 23.0394 95.9686 22.9155 95.9006L20.3846 94.5163C19.8718 94.2364 19.8718 93.5007 20.3846 93.2198L22.9155 91.8354C23.0394 91.7675 23.1414 91.6655 23.2093 91.5416L24.5937 89.0097C24.8746 88.4979 25.6103 88.4979 25.8901 89.0097L27.2755 91.5416C27.3425 91.6655 27.4445 91.7675 27.5684 91.8354Z" fill="#1ACC94"/>
<path fill-rule="evenodd" clip-rule="evenodd" d="M246.729 7.66827C246.729 9.06166 245.599 10.1912 244.205 10.1912C242.812 10.1912 241.682 9.06166 241.682 7.66827C241.682 6.27389 242.812 5.14539 244.205 5.14539C245.599 5.14539 246.729 6.27389 246.729 7.66827Z" fill="#376EEE" fill-opacity="0.5"/>
<path fill-rule="evenodd" clip-rule="evenodd" d="M334.649 56.1459C334.649 57.5393 333.519 58.6688 332.126 58.6688C330.731 58.6688 329.602 57.5393 329.602 56.1459C329.602 54.7515 330.731 53.623 332.126 53.623C333.519 53.623 334.649 54.7515 334.649 56.1459Z" fill="#376EEE" fill-opacity="0.5"/>
<path fill-rule="evenodd" clip-rule="evenodd" d="M50.8959 135.462C50.8959 136.856 49.7664 137.986 48.373 137.986C46.9786 137.986 45.8491 136.856 45.8491 135.462C45.8491 134.068 46.9786 132.939 48.373 132.939C49.7664 132.939 50.8959 134.068 50.8959 135.462Z" fill="#FFD560"/>
<path fill-rule="evenodd" clip-rule="evenodd" d="M329.083 153.926C329.083 155.32 327.953 156.449 326.559 156.449C325.166 156.449 324.036 155.32 324.036 153.926C324.036 152.532 325.166 151.403 326.559 151.403C327.953 151.403 329.083 152.532 329.083 153.926Z" fill="#FFD560"/>
<path fill-rule="evenodd" clip-rule="evenodd" d="M68.5922 56.1459C68.5922 57.5393 67.4627 58.6688 66.0693 58.6688C64.6749 58.6688 63.5454 57.5393 63.5454 56.1459C63.5454 54.7515 64.6749 53.623 66.0693 53.623C67.4627 53.623 68.5922 54.7515 68.5922 56.1459Z" fill="#8CACF6" fill-opacity="0.5"/>
<path fill-rule="evenodd" clip-rule="evenodd" d="M137.581 118.635L78.9939 89.7672L96.6131 54.01L155.2 82.8783L137.581 118.635Z" fill="#2FB7EC"/>
</g>
</svg>
