<svg xmlns="http://www.w3.org/2000/svg" xmlns:xlink="http://www.w3.org/1999/xlink" width="240" height="160" viewBox="0 0 240 160">
    <defs>
        <path id="a" d="M0 0h240v160H0z"/>
        <linearGradient id="c" x1="103.221%" x2="33.167%" y1="13.146%" y2="68.387%">
            <stop offset="0%" stop-color="#E6F7FF" stop-opacity="0"/>
            <stop offset="100%" stop-color="#E6F7FF"/>
        </linearGradient>
        <path id="d" d="M.394 54.626c6.551-42.659 59.86 2.065 87.246 2.065 8.768 0 8.768 5.392 25.02-7.978 16.253-13.37 72.918-90.665 91.346-17.986C230.653 135.825 117.877 192.529 46.65 140.27-2.105 104.5-.853 62.75.394 54.626z"/>
        <rect id="f" width="96" height="96" x="60.8" y="32" rx="48"/>
        <rect id="g" width="32" height="22.4" rx="3.2"/>
        <path id="h" d="M0 4h32v4.8H0z"/>
        <rect id="i" width="8" height="4" x="20.8" y="15.2" rx=".8"/>
        <path id="j" d="M60.475 99.265c5.785-11.513 3.636-12.746.557-10.67-1.8 1.214-2.288 4.945-6.01 4.745-2.008-.108-3.554-11.51-5.222-12.321-1.681-.817-4.308 5.065-4.826 6.71-3.31 10.517 6.254 16.673 10.048 18.716l5.453-7.18z"/>
        <path id="k" d="M122.155 68.828l19.44.027.015 9.705-19.442-.027z"/>
        <path id="l" d="M99.946 59.798l3.243-32.323h35.671v32.323c0 8.926-10.502 16.162-19.457 16.162-8.954 0-19.457-7.236-19.457-16.162z"/>
        <path id="m" d="M103.325 49.087c-8.291 5.756-9.35 6.563 0 8.42v-8.42z"/>
        <path id="n" d="M121.287 75.854c5.805-.445 9.505-2.073 11.099-4.883 1.593-2.811 1.593-.135 0 8.027l-6.35 3.828-4.75-6.972z"/>
        <path id="o" d="M101.168 88.165c-.812-1.557-3.059-3.537-3.02-4.854.135-4.487-1.333-6.008-3.435-5.281-2.043.707-.188 1.767-3.318.928-1.88-.503-1.322-1.625 0-3.344.345-.447 2.529-.63 2.354-1.529-.174-.898-.767-1.176-1.008-1.241-1.793-.48-9.217-1.764-9.848 7.278-.742 10.647 5.351 9.062 8.986 11.03l9.289-2.987z"/>
        <path id="p" d="M121.695 88.426c-4.862 6.33-8.306 10.902-10.329 13.717 1.379.846 2.927 1.865 4.646 3.057 2.352-2.44 4.217-4.973 5.596-7.6a29.787 29.787 0 0 0 2.904-8.397l-2.817-.777z"/>
        <path id="q" d="M98.4 120.08c4.171 2.751 6.571 3.935 7.2 3.552.63-.384-.513-2.395-3.43-6.032l-3.77 2.48z"/>
        <path id="r" d="M120.047 140.492c6.549-2.049 11.281-3.783 14.198-5.204 4.376-2.132 8.698-4.054 11.099-5.45 6.051-3.52 3.829 2.668-2.328 7.33-4.53 3.731-11.878 8.01-22.19 10.603a427.826 427.826 0 0 0-.779-7.279z"/>
    </defs>
    <g fill="none" fill-rule="evenodd">
        <mask id="b" fill="#fff">
            <use xlink:href="#a"/>
        </mask>
        <use fill="#D8D8D8" fill-opacity="0" fill-rule="nonzero" xlink:href="#a"/>
        <g mask="url(#b)">
            <path fill="url(#c)" d="M.394 54.626c6.551-42.659 59.86 2.065 87.246 2.065 8.768 0 8.768 5.392 25.02-7.978 16.253-13.37 72.918-90.665 91.346-17.986C230.653 135.825 117.877 192.529 46.65 140.27-2.105 104.5-.853 62.75.394 54.626z" style="mix-blend-mode:darken" transform="translate(11.2)"/>
            <g transform="translate(11.2)">
                <mask id="e" fill="#fff">
                    <use xlink:href="#d"/>
                </mask>
                <g fill-rule="nonzero" mask="url(#e)">
                    <path fill="#8BDCFB" fill-opacity=".5" d="M169.6 61.6H208a1.6 1.6 0 1 1 0 3.2h-38.4a1.6 1.6 0 1 1 0-3.2zM169.6 68H208a1.6 1.6 0 1 1 0 3.2h-38.4a1.6 1.6 0 1 1 0-3.2zM169.6 74.4h6.4a1.6 1.6 0 1 1 0 3.2h-6.4a1.6 1.6 0 1 1 0-3.2zM169.6 55.2h29.6a1.6 1.6 0 1 1 0 3.2h-29.6a1.6 1.6 0 1 1 0-3.2z"/>
                    <path stroke="#8BDCFB" stroke-linecap="round" stroke-linejoin="round" stroke-opacity=".4" stroke-width="1.6" d="M169.998 43.258c7.077-3.735 16.598-.94 7.552 6.886-5.063 4.38.357-10.522 5.65-5.355 1.292 1.261 2.937 4.433 3.494 5.025 1.594 1.694 5.032-2.166 6.223-4.706"/>
                    <path fill="#8BDCFB" fill-opacity=".4" d="M195.2 40a1.6 1.6 0 1 1 0 3.2 1.6 1.6 0 1 1 0-3.2z"/>
                </g>
                <g mask="url(#e)">
                    <use fill="#FFF" xlink:href="#f"/>
                    <use fill="#2F88EC" xlink:href="#f"/>
                </g>
                <g mask="url(#e)">
                    <path fill="#8BDCFB" fill-opacity=".4" fill-rule="nonzero" d="M7.417 67.447l20.432 5.475a1.024 1.024 0 0 0 1.254-.724l4.264-15.915-4.791-8.013-14.947-4.005a1.024 1.024 0 0 0-1.254.724L6.693 66.193a1.024 1.024 0 0 0 .724 1.254z"/>
                    <path fill="#FFF" fill-rule="nonzero" d="M5.817 64.247l20.432 5.475a1.024 1.024 0 0 0 1.254-.724l4.264-15.915-4.791-8.013-14.947-4.005a1.024 1.024 0 0 0-1.254.724L5.093 62.993a1.024 1.024 0 0 0 .724 1.254z"/>
                    <path fill="#CEF2FD" d="M26.976 45.07l4.791 8.013-6.474-1.735z" style="mix-blend-mode:darken"/>
                    <path fill="#8BDCFB" fill-rule="nonzero" d="M13.84 47.348l3.864 1.035a1.2 1.2 0 1 1-.621 2.318l-3.864-1.035a1.2 1.2 0 1 1 .621-2.318zM12.598 51.984l10.046 2.692a1.2 1.2 0 1 1-.621 2.318l-10.046-2.691a1.2 1.2 0 1 1 .621-2.318zM11.149 57.394l13.91 3.727a1.2 1.2 0 1 1-.621 2.318l-13.91-3.727a1.2 1.2 0 1 1 .621-2.318z"/>
                </g>
                <g mask="url(#e)">
                    <g transform="translate(27.2 115.2)">
                        <use fill="#FFF" xlink:href="#g"/>
                        <use fill="#8BDCFB" xlink:href="#g"/>
                    </g>
                    <g transform="translate(27.2 115.2)">
                        <use fill="#FFF" xlink:href="#h"/>
                        <use fill="#2F88EC" xlink:href="#h"/>
                    </g>
                    <g fill="#FFF" transform="translate(27.2 115.2)">
                        <use xlink:href="#i"/>
                        <use xlink:href="#i"/>
                    </g>
                </g>
            </g>
            <g fill-rule="nonzero" transform="rotate(-15 321.722 -48.4)">
                <rect width="22.4" height="25.6" x=".233" y="1.904" fill="#8BDCFB" fill-opacity=".4" rx="1.6"/>
                <rect width="22.4" height="25.6" x="2.4" fill="#2F88EC" rx="1.6"/>
                <rect width="16" height="4.8" x="5.6" y="3.2" fill="#FFF" rx=".8"/>
                <rect width="4" height="3.2" x="5.6" y="9.6" fill="#8BDCFB" rx=".8"/>
                <rect width="4.8" height="3.2" x="11.2" y="9.6" fill="#8BDCFB" rx=".8"/>
                <rect width="4" height="3.2" x="17.6" y="9.6" fill="#8BDCFB" rx=".8"/>
                <rect width="4" height="3.2" x="5.6" y="14.4" fill="#8BDCFB" rx=".8"/>
                <rect width="4.8" height="3.2" x="11.2" y="14.4" fill="#8BDCFB" rx=".8"/>
                <rect width="4" height="3.2" x="5.6" y="19.2" fill="#8BDCFB" rx=".8"/>
                <rect width="4.8" height="3.2" x="11.2" y="19.2" fill="#8BDCFB" rx=".8"/>
                <rect width="4" height="8" x="17.6" y="14.4" fill="#F8AB60" rx=".8"/>
            </g>
            <path fill="#8BDCFB" fill-opacity=".4" fill-rule="nonzero" d="M46.16 62.987l37.21-25.976a3.232 3.232 0 0 1 4.494.793l33.47 47.656a3.232 3.232 0 0 1-.795 4.508L83.33 115.944a3.232 3.232 0 0 1-4.495-.793l-33.47-47.656a3.232 3.232 0 0 1 .796-4.508z"/>
            <path fill="#FFF" stroke="#CEF2FD" stroke-width="1.6" d="M47.877 60.49l-.006.004a2.432 2.432 0 0 0-.886 3.324l29.188 50.392a2.432 2.432 0 0 0 3.318.889l39.331-22.635.006-.003a2.432 2.432 0 0 0 .886-3.324L90.526 38.746a2.432 2.432 0 0 0-3.318-.89L47.877 60.492z"/>
            <path fill="#2F88EC" fill-rule="nonzero" d="M60.981 66.956l16.86-9.703a1.616 1.616 0 0 1 2.205.591l.002.005a1.613 1.613 0 0 1-.59 2.207l-16.86 9.702a1.616 1.616 0 0 1-2.205-.59l-.003-.006a1.613 1.613 0 0 1 .591-2.206zM65.035 73.954l16.86-9.702a1.616 1.616 0 0 1 2.204.59l.003.005a1.613 1.613 0 0 1-.591 2.207l-16.86 9.702a1.616 1.616 0 0 1-2.205-.59l-.003-.005a1.613 1.613 0 0 1 .592-2.207z"/>
            <path fill="#2F88EC" fill-opacity=".5" fill-rule="nonzero" d="M73.142 87.95l14.051-8.086a1.616 1.616 0 0 1 2.205.59l.003.006a1.613 1.613 0 0 1-.591 2.206l-14.052 8.087a1.616 1.616 0 0 1-2.205-.591l-.003-.005a1.613 1.613 0 0 1 .592-2.206zM69.088 80.952l16.86-9.702a1.616 1.616 0 0 1 2.205.59l.003.006a1.613 1.613 0 0 1-.592 2.206l-16.86 9.703a1.616 1.616 0 0 1-2.204-.591l-.003-.005a1.613 1.613 0 0 1 .591-2.207z"/>
            <path fill="#2F88EC" fill-rule="nonzero" d="M83.448 54.027l2.818-1.622a1.616 1.616 0 0 1 2.205.59l.003.006a1.613 1.613 0 0 1-.592 2.206l-2.818 1.622a1.616 1.616 0 0 1-2.204-.59l-.003-.006a1.613 1.613 0 0 1 .591-2.206z"/>
            <g transform="translate(11.2)">
                <use fill="#FFF" xlink:href="#j"/>
                <use fill="#FFF" xlink:href="#j"/>
                <use fill="#FABF86" fill-opacity=".5" xlink:href="#j"/>
            </g>
            <g transform="rotate(-30 137.482 52.794)">
                <use fill="#FFF" xlink:href="#k"/>
                <use fill="#FFF" xlink:href="#k"/>
                <use fill="#FABF86" fill-opacity=".5" xlink:href="#k"/>
            </g>
            <g transform="translate(11.2)">
                <use fill="#FFF" xlink:href="#l"/>
                <use fill="#FFF" xlink:href="#l"/>
                <use fill="#FABF86" fill-opacity=".5" xlink:href="#l"/>
            </g>
            <g transform="translate(11.2)">
                <use fill="#FFF" xlink:href="#m"/>
                <use fill="#FFF" xlink:href="#m"/>
                <use fill="#FABF86" fill-opacity=".5" xlink:href="#m"/>
            </g>
            <path fill="#7790A3" d="M113.585 36.124c-4.333-.563-11.5-.176-12.162-7.571-.184-2.052 5.213 3.096 6.077 1.224-1.194-1.916-1.15-3.878.128-5.887 1.918-3.012 15.949-8.959 22.682-6.889 24.104 7.41 40.415-16.373 32.932 36.395-.582 4.11-5.28 7.86-14.09 11.25-3.183-3.383-5.353-6.033-6.512-7.947-1.737-2.872 8.355-13.452-3.098-12.083-3.404.408-1.597 5.375-2.829 5.665-2.846.673-8.756-5.2-10.974-10.3-2.218-5.099-2.218-9.484-4.677-10.533-1.249-.533-3.74 1.692-7.477 6.676z"/>
            <g transform="translate(11.2)">
                <use fill="#FFF" xlink:href="#n"/>
                <use fill="#FFF" xlink:href="#n"/>
                <use fill="#FABF86" fill-opacity=".8" xlink:href="#n"/>
            </g>
            <path fill="#8BDCFB" fill-rule="nonzero" d="M184.357 109.26c-3.046-14.508-12.036-26.281-26.969-35.32-9.65 7.02-20.757 10.118-22.85 17.295-3.197 10.97-11.522 20.569-24.973 28.8A6327.756 6327.756 0 0 0 72.262 99.13l-6.074 7.244c13.785 17.192 26.082 28.35 36.891 33.473 10.81 5.123 25.434 3.368 43.872-5.265-10.445 3.863-15.662 5.85-15.65 5.958 1.1 9.836 2.159 18.092 2.854 18.092 27.564-3.728 47.847-19.175 52.819-24.44 0-10.251-2.617-24.932-2.617-24.932z"/>
            <path fill="#FFF" fill-rule="nonzero" d="M135.936 89.287c-.926-1.532-1.623-3.076-2.09-4.634 4.706-5.8 11.192-11.392 19.457-16.774l4.574 6.631c-5.292 3.193-10.003 5.83-14.132 7.914-4.13 2.082-6.733 4.37-7.81 6.863z"/>
            <path fill="#8BDCFB" fill-rule="nonzero" d="M135.56 89.17c-5.353-1.73-17.98-3.266-23.334-4.997l-5.303 8.168 20.335 12.859c2.305-2.835 3.928-5.21 4.87-7.124.822-1.676 1.967-4.644 3.432-8.905z"/>
            <g transform="scale(-1 1) rotate(75 -5.6 -45.371)">
                <use fill="#FFF" xlink:href="#o"/>
                <use fill="#FFF" xlink:href="#o"/>
                <use fill="#FABF86" fill-opacity=".5" xlink:href="#o"/>
            </g>
            <g transform="translate(11.2)">
                <use fill="#FFF" xlink:href="#p"/>
                <use fill="#2FB7EC" fill-opacity=".7" xlink:href="#p"/>
            </g>
            <g transform="translate(11.2)">
                <use fill="#FFF" xlink:href="#q"/>
                <use fill="#2FB7EC" fill-opacity=".8" xlink:href="#q"/>
            </g>
            <g transform="translate(11.2)">
                <use fill="#FFF" xlink:href="#r"/>
                <use fill="#2FB7EC" fill-opacity=".8" xlink:href="#r"/>
            </g>
            <g fill-rule="nonzero">
                <path fill="#2EE3AA" d="M94.203 82.74l14.151-14.152 4.572 4.571-14.152 14.152z"/>
                <path fill="#FFF" stroke="#1ACC94" stroke-width="1.616" d="M108.318 69.767l3.428 3.429 1.824-1.824a.808.808 0 0 0 0-1.143l-2.286-2.285a.808.808 0 0 0-1.143 0l-1.823 1.823z"/>
                <path fill="#EEF2F5" d="M92.319 88.166l1.884-5.427 1.18-1.18 4.57 4.572-1.179 1.18-5.427 1.884a.808.808 0 0 1-1.028-1.029z"/>
                <path fill="#1ACC94" d="M92.436 88.032l1.15-2.962 2.857 2.857-2.961 1.15a.808.808 0 0 1-1.046-1.045z"/>
                <path fill="#FFF" d="M105.544 75.97l2.395-2.396a.808.808 0 1 1 1.143 1.143l-2.395 2.395a.808.808 0 1 1-1.143-1.143z"/>
            </g>
            <path fill="#FCDFC2" fill-rule="nonzero" d="M99.416 86.57c-2.186-1.896-2.201-3.482-.894-3.636 1.04-.122 2.846 1.214 5.734-.977-1.072 1.702-1.96 2.889-2.665 3.56-.371.354-1.096.704-2.175 1.052z"/>
            <path fill="#FBCC9F" fill-rule="nonzero" d="M103.905 82.118c1.434-.305 2.482-.772 3.142-1.402.523-.498.658-1.158.408-1.98l-3.55 3.382zM71.92 98.838c-4.948 3.64-7.954 5.46-9.018 5.46.341.533 1.525 1.248 3.553 2.145l5.783-7.295-.317-.31z"/>
            <path stroke="#2EE3AA" stroke-linecap="round" stroke-linejoin="round" stroke-width="1.034" d="M82.537 100.643c2.671-4.654 9.087-6.029 6.772 1.826-1.295 4.397-3.593-6.691 1.277-5.198 1.189.365 3.267 1.807 3.797 1.994 1.517.536 2.076-3.003 1.836-4.98"/>
        </g>
    </g>
</svg>
