<svg width="28" height="29" viewBox="0 0 28 29" fill="none" xmlns="http://www.w3.org/2000/svg">
<path d="M5.25952 24V5C5.25952 4.72386 5.48338 4.5 5.75952 4.5H14.0001H18.6203H20.5033C20.6397 4.5 20.7702 4.55574 20.8646 4.65429L22.6018 6.4695L22.956 6.13048L22.6018 6.4695C22.6909 6.56256 22.7406 6.6864 22.7406 6.81521V8.82759V13.6552V24C22.7406 24.2761 22.5167 24.5 22.2406 24.5H5.75952C5.48338 24.5 5.25952 24.2761 5.25952 24Z" stroke="#5A7385"/>
<path d="M19.5681 4.79968V7.85024H22.3521" stroke="#5A7385" stroke-linejoin="round"/>
<path d="M10.4106 9.26606L14.0001 7.54956L17.5895 9.26606C17.5895 9.26606 17.5895 12.0315 17.5895 13.3189C17.5895 14.6063 14.0001 16.4658 14.0001 16.4658C14.0001 16.4658 10.4106 14.5109 10.4106 13.3189C10.4106 12.1269 10.4106 9.26606 10.4106 9.26606Z" stroke="#5A7385"/>
<path d="M12.3704 11.8615L13.5902 13.0813L15.9014 10.7701" stroke="#5A7385"/>
<line x1="9.83618" y1="18.8944" x2="18.1638" y2="18.8944" stroke="#5A7385"/>
<line x1="9.83618" y1="21.1875" x2="18.1638" y2="21.1875" stroke="#5A7385"/>
</svg>
