<svg xmlns="http://www.w3.org/2000/svg" xmlns:xlink="http://www.w3.org/1999/xlink" width="720" height="656" viewBox="0 0 720 656">
    <defs>
        <path id="a" d="M0 0h720v656H0z"/>
        <linearGradient id="c" x1="50%" x2="50%" y1="0%" y2="100%">
            <stop offset="0%" stop-color="#AFC7D1"/>
            <stop offset="100%" stop-color="#EEF2F5"/>
        </linearGradient>
        <linearGradient id="d" x1="100%" x2="50%" y1="81.823%" y2="67.733%">
            <stop offset="0%" stop-color="#FFC72C"/>
            <stop offset="100%" stop-color="#F0B616"/>
        </linearGradient>
        <linearGradient id="e" x1="30.716%" x2="69.284%" y1="0%" y2="100%">
            <stop offset="0%" stop-color="#FFE557"/>
            <stop offset="100%" stop-color="#FFC72C"/>
        </linearGradient>
        <linearGradient id="f" x1="50%" x2="50%" y1="0%" y2="100%">
            <stop offset="0%" stop-color="#E6F7FF"/>
            <stop offset="100%" stop-color="#2FB7EC"/>
        </linearGradient>
        <linearGradient id="g" x1="50%" x2="50%" y1="-2.794%" y2="73.096%">
            <stop offset="0%" stop-color="#E6F7FF"/>
            <stop offset="100%" stop-color="#8BDCFB"/>
        </linearGradient>
        <linearGradient id="h" x1="50%" x2="50%" y1="0%" y2="100%">
            <stop offset="0%" stop-color="#FFF"/>
            <stop offset="100%" stop-color="#E6F7FF"/>
        </linearGradient>
        <linearGradient id="i" x1="50%" x2="50%" y1="0%" y2="100%">
            <stop offset="0%" stop-color="#E6F7FF"/>
            <stop offset="100%" stop-color="#CEF2FD"/>
        </linearGradient>
        <linearGradient id="j" x1="50%" x2="50%" y1="100%" y2="0%">
            <stop offset="0%" stop-color="#8BDCFB"/>
            <stop offset="100%" stop-color="#2FB7EC"/>
        </linearGradient>
        <linearGradient id="k" x1="0%" y1="27.778%" y2="72.222%">
            <stop offset="0%" stop-color="#7790A3"/>
            <stop offset="100%" stop-color="#2FB7EC"/>
        </linearGradient>
        <linearGradient id="l" x1="50%" x2="50%" y1="0%" y2="100%">
            <stop offset="0%" stop-color="#AFC7D1"/>
            <stop offset="100%" stop-color="#EEF2F5"/>
        </linearGradient>
        <linearGradient id="n" x1="0%" y1="64.323%" y2="35.677%">
            <stop offset="0%" stop-color="#AFC7D1" stop-opacity=".2"/>
            <stop offset="100%" stop-color="#CEF2FD"/>
        </linearGradient>
        <path id="m" d="M50 475.425c17.077-94.202 50.55-145.298 100.42-153.288 74.805-11.986 4.494 42.108 42.888 64.403 17.06 9.907 36.916 5.455 68.018 0 31.103-5.455 74.5 9.665 78.674 88.071-52.45.999-149.116 1.27-290 .814z"/>
        <linearGradient id="o" x1="70.28%" x2="29.72%" y1="0%" y2="100%">
            <stop offset="0%" stop-color="#1ACC94"/>
            <stop offset="100%" stop-color="#2EE3AA"/>
        </linearGradient>
        <linearGradient id="p" x1="6.463%" y1="94.871%" y2="5.129%">
            <stop offset="0%" stop-color="#2FB7EC"/>
            <stop offset="100%" stop-color="#8BDCFB"/>
        </linearGradient>
        <circle id="q" cx="10" cy="10" r="10"/>
        <path id="s" d="M6 11h8a4 4 0 1 1-8 0z"/>
        <path id="t" d="M8 14c0-.555.996-1.002 2-1 .996.002 2 .45 2 1 0 0-1 .5-2 .5S8 14 8 14z"/>
        <linearGradient id="u" x1="9.5%" x2="90.5%" y1="0%" y2="100%">
            <stop offset="0%" stop-color="#2F88EC"/>
            <stop offset="100%" stop-color="#2FB7EC"/>
        </linearGradient>
        <linearGradient id="v" x1=".927%" x2="99.073%" y1="0%" y2="100%">
            <stop offset="0%" stop-color="#2F88EC"/>
            <stop offset="100%" stop-color="#2FB7EC"/>
        </linearGradient>
        <linearGradient id="w" x1="100%" x2="0%" y1="63.293%" y2="36.707%">
            <stop offset="0%" stop-color="#CEF2FD"/>
            <stop offset="100%" stop-color="#8BDCFB"/>
        </linearGradient>
        <linearGradient id="x" x1="0%" y1="69.175%" y2="30.825%">
            <stop offset="0%" stop-color="#2FB7EC"/>
            <stop offset="100%" stop-color="#2FB7EC" stop-opacity=".6"/>
        </linearGradient>
        <linearGradient id="y" x1="82.784%" x2="35.82%" y1="100%" y2="0%">
            <stop offset="0%" stop-color="#326BEE"/>
            <stop offset="100%" stop-color="#1D4BEA"/>
            <stop offset="100%" stop-color="#1D4BEA"/>
        </linearGradient>
        <linearGradient id="z" x1="50%" x2="50%" y1="0%" y2="100%">
            <stop offset="0%" stop-color="#239464" stop-opacity=".8"/>
            <stop offset="100%" stop-color="#1ACC94"/>
        </linearGradient>
        <linearGradient id="A" x1="62.689%" x2="62.689%" y1="0%" y2="100%">
            <stop offset="0%" stop-color="#2FB7EC"/>
            <stop offset="100%" stop-color="#8BDCFB"/>
        </linearGradient>
        <linearGradient id="B" x1="55.064%" x2="20.313%" y1="0%" y2="26.509%">
            <stop offset="0%" stop-color="#CEF2FD"/>
            <stop offset="100%" stop-color="#8BDCFB"/>
        </linearGradient>
        <linearGradient id="C" x1="36.6%" x2="50%" y1="0%" y2="100%">
            <stop offset="0%" stop-color="#CEF2FD"/>
            <stop offset="100%" stop-color="#8BDCFB"/>
        </linearGradient>
        <linearGradient id="D" x1="100%" x2="-6.882%" y1="1.641%" y2="112.604%">
            <stop offset="0%" stop-color="#326BEE"/>
            <stop offset="100%" stop-color="#1D4BEA"/>
        </linearGradient>
        <linearGradient id="E" x1="13.265%" x2="86.735%" y1="0%" y2="100%">
            <stop offset="0%" stop-color="#2F88EC"/>
            <stop offset="100%" stop-color="#2FB7EC"/>
        </linearGradient>
        <linearGradient id="F" x1="18%" x2="82%" y1="-.006%" y2="100.006%">
            <stop offset="0%" stop-color="#FFE557"/>
            <stop offset="100%" stop-color="#FFC72C"/>
        </linearGradient>
        <path id="G" d="M16.813 5.134c0-.749-.61-1.372-1.342-1.372l-1.78-.15-.833-2.67c-.025-.025-.025-.05-.05-.075a1.32 1.32 0 0 0-1.097-.574H4.622c-.683 0-1.056.75-1.13 1.398H.83a.548.548 0 0 0-.537.55c0 .298.244.548.537.548h2.625c.268.05.464.274.464.549 0 .299-.244.548-.537.548h-1.3a.548.548 0 0 0-.536.55c0 .298.244.548.537.548h2.381c.294 0 .538.25.538.549 0 .299-.244.548-.537.548H3.213c-.335 0-.579.25-.579.55 0 .299.244.548.537.548h.795c-.341.075-.585.4-.585.773v.998c0 .424.341.798.78.798h.813c.244.873 1.05 1.522 1.977 1.522.951 0 1.732-.649 1.976-1.522h2.933c.244.873 1.05 1.522 1.977 1.522.951 0 1.732-.649 1.976-1.522h.952c.414 0 .78-.35.78-.798v-.998c-.048-.449-.366-.798-.732-.823V5.134z"/>
        <path id="H" d="M112.755 46.64c1.155 4.746 1.388 7.629.699 8.65-.709 1.049-2.29.542-4.747-1.523l4.048-7.126z"/>
        <linearGradient id="I" x1="100%" x2="0%" y1="49.426%" y2="51.42%">
            <stop offset="0%" stop-color="#FFE380"/>
            <stop offset="100%" stop-color="#FFD560"/>
        </linearGradient>
    </defs>
    <g fill="none" fill-rule="evenodd">
        <mask id="b" fill="#fff">
            <use xlink:href="#a"/>
        </mask>
        <g mask="url(#b)">
            <g transform="translate(20 165)">
                <path fill="#EEF2F5" fill-rule="nonzero" d="M54.4 82.425H8h46.4H8a8 8 0 1 1 1.601-15.84l-.001-.16a9.6 9.6 0 0 1 9.6-9.6c1.003 0 1.971.154 2.88.44 2.893-4.136 7.69-6.84 13.12-6.84 7.959 0 14.56 5.81 15.793 13.422a9.578 9.578 0 0 1 3.407-.622 9.6 9.6 0 1 1 0 19.2z"/>
                <g fill-rule="nonzero" transform="rotate(-10 155.363 -147.653)">
                    <path fill="url(#c)" d="M45.366 125.687a1 1 0 0 1 2 0v40a1 1 0 1 1-2 0v-40z" transform="rotate(-30 46.366 145.687)"/>
                    <path fill="url(#c)" d="M93.366 125.687a1 1 0 0 1 2 0v40a1 1 0 1 1-2 0v-40z" transform="scale(-1 1) rotate(-30 0 497.865)"/>
                    <path fill="url(#d)" d="M46.5 4.72c1.404.299 2.404 1.509 2.404 2.908v31.745c0 1.366-.955 2.556-2.315 2.888l-20.715 5.043a6 6 0 0 1-2.844-.001L2.315 42.238C.955 41.907 0 40.716 0 39.35V8.278C0 6.912.955 5.72 2.315 5.39L24.452 0 46.5 4.72z" transform="translate(46 160)"/>
                    <path fill="#FFE557" d="M92.5 164.72c1.404.299 2.404 1.509 2.404 2.908v31.745l-24.452-5.722L46 199.35v-31.073c0-1.366.955-2.557 2.315-2.888L70.452 160l22.049 4.72z"/>
                    <path fill="#F0B616" d="M53.336 164.114l9.78-2.32v8.309a.804.804 0 0 1-1.082.753l-1.54-.569-1.452 1.246a1.607 1.607 0 0 1-1.775.214l-1.614-.82-.915 1.023a.804.804 0 0 1-1.402-.535v-7.301zM62.78 196.105l-9.78 2.32v-10.31a.804.804 0 0 1 1.082-.753l1.541.569 1.451-1.246a1.607 1.607 0 0 1 1.775-.214l1.615.82.914-1.023a.804.804 0 0 1 1.403.536v9.3z"/>
                    <path fill="url(#e)" d="M46.5 4.72c1.404.299 2.404 1.509 2.404 2.908v31.745L24.452 33.65V0L46.5 4.72z" transform="translate(46 160)"/>
                    <path fill="#FFF" d="M85.99 189.022l4.913 1.167c.362.086.618.41.618.782v3.114a.804.804 0 0 1-.983.784l-4.913-1.124a.804.804 0 0 1-.625-.783v-3.158a.804.804 0 0 1 .99-.782z"/>
                    <circle cx="70" cy="70" r="70" fill="url(#f)"/>
                    <path fill="url(#g)" d="M20.403 119.398C7.794 106.738 0 89.28 0 70c0-19.28 7.794-36.739 20.403-49.398C33.883 11.479 51.162 6 70 6s36.116 5.48 49.597 14.602C132.206 33.262 140 50.72 140 70c0 19.28-7.794 36.739-20.403 49.398-8.847 5.987-19.33 10.404-30.814 12.734C89.57 130.844 90 129.452 90 128c0-6.627-8.954-12-20-12s-20 5.373-20 12c0 1.452.43 2.844 1.217 4.132-11.485-2.33-21.967-6.747-30.814-12.734z"/>
                    <path fill="url(#h)" d="M50.017 128.497C25.58 119.645 8 95.008 8 66 8 29.55 35.758 0 70 0c34.242 0 62 29.55 62 66 0 29.008-17.58 53.645-42.017 62.497.011-.165.017-.33.017-.497 0-6.627-8.954-12-20-12s-20 5.373-20 12c0 .166.006.332.017.497z"/>
                    <path fill="url(#i)" d="M51.748 123.086C45.78 110.25 42 91.228 42 70 42 31.34 54.536 0 70 0s28 31.34 28 70c0 21.228-3.78 40.249-9.748 53.086C85.122 118.91 78.128 116 70 116c-8.128 0-15.123 2.909-18.252 7.086z"/>
                    <ellipse cx="70" cy="128" fill="url(#j)" rx="20" ry="12"/>
                    <ellipse cx="70" cy="128" fill="url(#k)" rx="6" ry="4"/>
                    <path fill="url(#l)" d="M69 129a1 1 0 1 1 2 0v31a1 1 0 1 1-2 0v-31z"/>
                </g>
                <g fill-rule="nonzero">
                    <use fill="#FFF" xlink:href="#m"/>
                    <use fill="url(#n)" xlink:href="#m"/>
                </g>
                <path fill="url(#o)" d="M239.085 431.565c2.357-9.846 14.122-33.56 35.297-71.143h15.802c-8.72 38.262-11.862 59.783-9.43 64.564 2.432 4.78 4.474 7.094 6.126 6.939-13.01 6.262-25.62 9.348-37.83 9.256-5.582-.042-13.499 5.153-9.965-9.616z"/>
                <path fill="#1ACC94" d="M284.352 431.925c-10.575 1.281-18.62 2.417-24.134 3.406-17.974 3.224-30.763 9.96-35.053 4.918-.781-5.624 6.913-22.544 23.085-50.76l-13.505-5.076c-22.477 24.107-37.097 41.817-43.858 53.128-10.143 16.968-16.506 26.2-10.514 37.884h103.979v-43.5z"/>
                <path fill="url(#p)" fill-rule="nonzero" d="M371.337 386.906a142.732 142.732 0 0 0-19.445 8.219c-34.14 17.528-53.915 36.034-67.54 36.44-4.678 4.009-7.301 13.704-7.301 20.316 0 7.383 1.86 15.196 5.583 23.439l58.126.905 30.577-89.32z"/>
                <path fill="#3FAA7D" fill-rule="nonzero" d="M238.208 385.678c.21-2.627-3.033-6.143-9.73-10.55-10.047-6.608-11.461-10.703-4.35-10.703 7.113 0 22.988 3.089 30.04 10.704 2.915 3.147.518 7.802-7.191 13.967l-8.77-3.418z"/>
                <path fill="#E6F7FF" d="M163 256.425h104v88a4 4 0 0 1-4 4h-96a4 4 0 0 1-4-4v-88z"/>
                <g transform="translate(163 246.425)">
                    <path fill="#8BDCFB" fill-opacity=".8" d="M4 0h96a4 4 0 0 1 4 4v6H0V4a4 4 0 0 1 4-4z"/>
                    <circle cx="16" cy="5" r="2" fill="#2FB7EC"/>
                    <circle cx="6" cy="5" r="2" fill="#2FB7EC"/>
                    <circle cx="11" cy="5" r="2" fill="#2FB7EC"/>
                </g>
                <rect width="60" height="32" x="171" y="264.425" fill="#FFF" rx="2"/>
                <path fill="#FFC72C" fill-rule="nonzero" d="M179 290.425h3v3l-1.5-1.5-1.5 1.5z"/>
                <rect width="60" height="32" x="199" y="306.425" fill="#FFF" rx="2"/>
                <g transform="translate(225 312.425)">
                    <mask id="r" fill="#fff">
                        <use xlink:href="#q"/>
                    </mask>
                    <use fill="#FFF" xlink:href="#q"/>
                    <use fill="#FFE380" xlink:href="#q"/>
                    <path fill="#FFA39E" fill-rule="nonzero" d="M3.154 4C3.91 4 4.61 4.369 5 4.974 5.39 4.369 6.09 3.999 6.846 4 8.036 4 9 4.896 9 6c0 2.125-4 4-4 4S1 8.125 1 6c0-1.104.964-2 2.154-2zM13.154 4c.755 0 1.455.369 1.846.974.39-.605 1.091-.975 1.846-.974C18.036 4 19 4.896 19 6c0 2.125-4 4-4 4s-4-1.875-4-4c0-1.104.964-2 2.154-2z" mask="url(#r)"/>
                    <g mask="url(#r)">
                        <use fill="#FFF" xlink:href="#s"/>
                        <use fill="#4A5F6E" xlink:href="#s"/>
                    </g>
                    <g mask="url(#r)" transform="matrix(1 0 0 -1 0 27.5)">
                        <use fill="#FFF" xlink:href="#t"/>
                        <use fill="#FFA39E" xlink:href="#t"/>
                    </g>
                </g>
                <path fill="#F0B616" fill-rule="nonzero" d="M205.5 324.73l-.458-9.305h3.208l-.417 9.305H205.5zm-.5 3.04c0-.91.75-1.675 1.667-1.675.916 0 1.666.765 1.666 1.675 0 .89-.75 1.655-1.666 1.655A1.679 1.679 0 0 1 205 327.77zm5.833-3.04l-.458-9.305h3.208l-.416 9.305h-2.334zm-.5 3.04c0-.91.75-1.675 1.667-1.675s1.667.765 1.667 1.675c0 .89-.75 1.655-1.667 1.655a1.679 1.679 0 0 1-1.667-1.655zm5.834-3.04l-.459-9.305h3.209l-.417 9.305h-2.333zm-.5 3.04c0-.91.75-1.675 1.666-1.675.917 0 1.667.765 1.667 1.675 0 .89-.75 1.655-1.667 1.655a1.679 1.679 0 0 1-1.666-1.655z"/>
                <g fill-rule="nonzero" transform="translate(178 270.425)">
                    <rect width="18" height="20" fill="url(#u)" rx="1"/>
                    <path fill="#FFF" d="M12 0h3v20h-3z"/>
                    <path fill="#2FB7EC" d="M3 0h1.5v20H3z"/>
                </g>
                <path fill="#CEF2FD" fill-rule="nonzero" d="M218.286 279.291c0 2.633-1.208 5.13-3.295 6.814a9.35 9.35 0 0 1-7.508 1.903l-4.203 1.608.299-3.248.102.035c-3.45-2.493-4.641-6.983-2.86-10.781 1.781-3.8 6.053-5.879 10.258-4.995 4.205.883 7.206 4.49 7.207 8.664z"/>
                <path fill="#2FB7EC" d="M213.732 277.773a.674.674 0 0 0-.649.56l-.318 2.293c-.036.25-.157.467-.364.65-.207.184-.44.276-.7.276a.786.786 0 0 1-.793-.926l.193-1.391a.48.48 0 0 0-.497-.495h-.762a.677.677 0 0 0-.635.495l-.199 1.391a1.038 1.038 0 0 1-.364.656c-.207.18-.436.27-.688.27a.78.78 0 0 1-.617-.276.782.782 0 0 1-.187-.65l.427-3.042a.715.715 0 0 0-.404-.732l-3.424-1.407c-.212-.086-.453.106-.535.427l-.196.765a.711.711 0 0 0 .411.81l2.155.88-.322 2.3c-.109.77.074 1.43.55 1.977.475.547 1.101.82 1.88.82.718 0 1.373-.238 1.966-.716.474.478 1.067.717 1.778.717.778 0 1.481-.274 2.11-.821.629-.547.997-1.207 1.106-1.978l.343-2.468c.03-.212-.202-.385-.516-.385h-.75z"/>
                <path fill="#FFA39E" fill-rule="nonzero" d="M229.154 293.425c.755-.001 1.455.368 1.846.973.39-.605 1.091-.974 1.846-.973 1.19 0 2.154.895 2.154 2 0 2.125-4 4-4 4s-4-1.875-4-4c0-1.105.964-2 2.154-2z"/>
                <path fill="#FFF" d="M175 302.425l6-6h-6z"/>
                <path fill="url(#v)" fill-rule="nonzero" d="M3.752.073L0 7.114l6.976-4.502z" transform="rotate(10 -1044.769 1897.05)"/>
                <path fill="url(#w)" d="M0 6.304l21.797 17.11L45.41 0z" transform="rotate(10 -947.072 1853.295)"/>
                <path fill="url(#x)" d="M.063 12.27l1.48 11.145 3.753-7.042L37.872 0z" transform="rotate(10 -950.84 1896.376)"/>
                <path fill="#C4E1F7" d="M305.882 211.05a1 1 0 0 1 .384 1.963c-24.719 4.83-40.334 9.098-54.689 16.492-20.125 10.366-29.57 24.223-25.732 42.716a1 1 0 1 1-1.958.407c-4.051-19.518 5.933-34.166 26.774-44.9 14.577-7.51 30.322-11.812 55.221-16.677z"/>
                <path fill="#3FAA7D" fill-rule="nonzero" d="M278.288 360.422c-.131-2.741-4.001-5.373-11.611-7.895-11.415-3.784-13.841-7.373-6.971-9.214 6.87-1.841 23.003-2.966 31.786 2.564 3.63 2.286 2.393 7.134-3.71 14.545h-9.494z"/>
                <g fill-rule="nonzero">
                    <path fill="#3FAA7D" d="M175.482 457.6c-.03-.13-.085-.398-.156-.797a45.799 45.799 0 0 1-.356-2.379c-1.33-10.635-.444-23.747 4.315-38.106a1 1 0 1 0-1.898-.63c-4.86 14.664-5.765 28.07-4.402 38.984.118.944.245 1.774.372 2.484.077.43.138.73.175.89a1 1 0 1 0 1.95-.447z"/>
                    <path fill="#326BEE" d="M156.235 451.647h36.297s7.033 10.192-4.078 23.778h-28.642s-10.243-10.44-3.577-23.778z"/>
                    <path fill="url(#y)" d="M39.532 46.222S46.565 56.414 35.454 70h-12.98c11.11-13.586 4.076-23.778 4.076-23.778h12.982z" transform="translate(153 405.425)"/>
                    <path fill="#2EE3AA" d="M179.665 411.248c1.089-1.633 3.607-6.422 12.25-4.446 0 0-7.144 12.168-13.581 8.184.161-1.403.605-2.648 1.33-3.738zM176.378 419.064s-.279-6.568-7.44-8.298c0 0 .742 14.327 6.42 11.98l1.02-3.682zM176.038 428.764s1.32-6.882 15.148-9.846c0 0-4.41 14.233-15.785 13.662l.637-3.816zM172.917 436.488s1.454-7.196-7.188-13.865c0 0-9.383 15.974 6.785 18.978l.403-5.113zM174.354 446.336c0-1.318-.699-10.127 10.165-12.103 0 0-3.968 14.2-9.876 16.732-.193-2.207-.289-3.75-.289-4.629z"/>
                </g>
                <path fill="#239464" d="M238.208 385.725l-.136-1.312 11.304 2.689-2.4 1.994zM278.288 360.422c-.152-.953-.428-1.66-.83-2.122.49-.296 4.414-.215 11.768.24l-1.444 1.882h-9.494z"/>
                <path fill="url(#z)" d="M283.64 432.104c-1.248.142-2.291.306-3.13.493-3.002 3.158-8.6 31.614-3.052 42.723 3.028 0 1.032.105 5.176 0-4.04-20.328-3.705-34.733 1.005-43.216z"/>
                <g>
                    <path fill="url(#A)" fill-rule="nonzero" d="M137.53 175.536l1.738-9.621v-15.881c0-17.487.758-33.528 1.284-43.488.322-5.988-3.922-11.016-3.922-11.016-8.332-4.291-15.355-7.985-15.355-7.985L99.52 81.6l-24.806-.986-33.207 6.93c-3.604 0-13.447 10.328-13.447 10.328-1.872 22.618-2.373 55.074-2.46 77.769 24.127 0 61.437-.035 111.931-.105z" transform="translate(313.293 299.784)"/>
                    <path fill="url(#B)" fill-rule="nonzero" d="M40.196 175.536C26.066 189.993.348 193.218.074 182.213c-.77-30.97 4.473-67.758 13.96-78.458 5.694-6.421 17.434-17.69 26.162-19.125 9.778-1.608 23.07 9.687 34.298 23.33 10.196 12.39 14.543 38.737 16.012 67.877-17.784 0-34.554-.1-50.31-.3z" transform="translate(313.293 299.784)"/>
                    <path fill="url(#C)" fill-rule="nonzero" d="M137.506 87.078c-13.046-4.494-15.98 0-26.143 23.565 0 0-15.433 17.312-17.645 64.893 18.353.105 40.422.105 43.788.105 13.047 16.758 33.375 21.386 40.201 0 6.826-21.386-27.154-84.069-40.2-88.563z" transform="translate(313.293 299.784)"/>
                    <path fill="#1D4BEA" fill-rule="nonzero" d="M434.232 313.915a.175.175 0 0 1 .322.046c.888 3.3 7.027 25.93 10.125 31.046 3.18 5.254 15.958 15.384 13.49 30.605-.235 1.445-1.403 2.537-2.807 2.813l-5.97 1.168a.185.185 0 0 1-.215-.144l-.936-4.776s-1.589 7.26-3.137 7.05c-1.546-.212-15.058 3.911-32.314-.258-16.502-3.988 18.36-62.448 21.44-67.55"/>
                    <path fill="#FFF" fill-rule="nonzero" d="M412.422 368.99c1.939.806 5.004 1.303 9.578.672 1.771-.245 4.009-1.649 7.05-4.696 3.043-3.048 4.692-8.835 5.477-11.149 4.181-12.336.307-34.55-.22-37.476 0 0-64.429 16.085-58.887 40.572l3.845 16.985 8.736 6.495c1.735 5.11 6.355 8.695 11.669 9.064 5.582.39 10.876-2.85 13.132-8.064-1.908-13.718-.38-12.403-.38-12.403z"/>
                    <path fill="#FFE380" fill-rule="nonzero" d="M400.634 350.808a6.348 6.348 0 1 0 10.74-6.766 6.348 6.348 0 0 0-10.74 6.768m34.275 1.776c-.292-.33-.564-.677-.816-1.039a6.346 6.346 0 0 1 2.265-8.926 44.726 44.726 0 0 1-1.45 9.965"/>
                    <path fill="#231F20" fill-rule="nonzero" d="M433.166 311.652s1.181.85 1.839 3.974c.657 3.127-1.839-3.974-1.839-3.974"/>
                    <path stroke="#231F20" stroke-linecap="round" stroke-linejoin="round" stroke-width="2.4" d="M420.305 327.713a9.842 9.842 0 0 0-4.589-.461 9.938 9.938 0 0 0-5.105 2.333"/>
                    <path fill="url(#D)" fill-rule="nonzero" d="M116.178 8.667S103.378 1.099 98.034.18c-5.34-.921-21.867 1.34-28.26 15.135C63.382 29.11 65.859 37.97 52.39 45.778c-13.47 7.807-16.464 23.89-14.104 25.884 2.359 1.997 27.364 10.37 30.156 10.807 2.79.434 9.324-.108 10.104-6.163.777-6.055-3.152-18.564 3.39-21.571 6.543-3.005 12.058-9.987 11.617-18.51 0 0 16.807-2.068 23.652-9.806 6.842-7.735 4.848-14.476-1.025-17.75" transform="translate(313.293 299.784)"/>
                    <path stroke="#FFD560" stroke-linecap="round" stroke-linejoin="round" stroke-width="2.4" d="M388.84 382.125c2.598 4.56 7.482 7.332 12.574 7.042 4.832-.278 9.192-3.278 11.39-7.776"/>
                    <path fill="#FFC72C" fill-rule="nonzero" d="M433 417.425h-32l2-8h32z"/>
                    <g fill-rule="nonzero" transform="rotate(15 -1312.561 1733.863)">
                        <rect width="24" height="28" fill="url(#E)" rx="2"/>
                        <path fill="#FFF" d="M16 0h4v28h-4z"/>
                        <path fill="#2FB7EC" d="M4 0h2v28H4z"/>
                    </g>
                    <path fill="#FFE557" fill-rule="nonzero" d="M373 417.425h60v40h-60z"/>
                    <path fill="url(#F)" fill-rule="nonzero" d="M59.707 117.64h32v40h-32z" transform="translate(313.293 299.784)"/>
                    <g transform="matrix(-1 0 0 1 398 430.425)">
                        <use fill="#F8AB60" xlink:href="#G"/>
                        <use fill="#EF8D2E" fill-opacity=".2" xlink:href="#G"/>
                    </g>
                    <g fill-rule="nonzero">
                        <path fill="#2FB7EC" d="M354.778 453.103l-9.71 4.205 8.42 18.012 8.473-12.365z"/>
                        <path fill="#FFF" d="M383.002 447.559c-4.433-.504-8.868-1.025-13.31-1.426-1.3-.12-2.842-.295-3.906.296-3.741 2.083-7.372 4.384-11.008 6.672a30.895 30.895 0 0 0 7.185 9.854c2.23-1.12 4.584-1.716 7.27-1.574 5.573.292 7.877.11 13.469.11 3.31 0 6.235-1.394 8.781-4.183h-8.472c-3.175 0-4.877-2.892-6.081-3.533l.088-.929c1.896.216 3.788.454 5.684.648.96.103 3.94-.391 5.126-1.377.406-.336.326-.792.36-1.224.125-1.553-4.116-3.214-5.184-3.334h-.002z"/>
                    </g>
                    <g fill-rule="nonzero">
                        <path fill="#2FB7EC" d="M449.537 453.103l9.71 4.205-8.424 18.012-8.472-12.365z"/>
                        <path fill="#FFF" d="M421.31 447.559c4.436-.504 8.87-1.025 13.313-1.426 1.296-.12 2.842-.295 3.905.296 3.742 2.083 7.37 4.384 11.009 6.672a30.895 30.895 0 0 1-7.186 9.854c-2.23-1.12-4.584-1.716-7.27-1.574-5.572.292-7.879.11-13.468.11-3.31 0-6.235-1.394-8.782-4.183h8.472c3.175 0 4.877-2.892 6.082-3.533l-.089-.929c-1.896.216-3.787.454-5.683.648-.96.103-3.941-.391-5.127-1.377-.405-.336-.326-.792-.36-1.224-.124-1.553 4.116-3.214 5.184-3.334z"/>
                    </g>
                    <path fill="#FFF" d="M339 344.425l-6-6h6z"/>
                    <g transform="translate(313.293 299.784)">
                        <use fill="#FFF" xlink:href="#H"/>
                        <use fill="#FFF" xlink:href="#H"/>
                        <use fill="#AFC7D1" fill-opacity=".4" xlink:href="#H"/>
                    </g>
                    <path fill="#FFE380" fill-rule="nonzero" d="M373 417.425h32l-2-8h-32z"/>
                    <g fill="#F0B616" fill-rule="nonzero">
                        <path d="M394 450.425h8v2h-8zM394 453.425h8v1h-8z"/>
                    </g>
                    <path fill="#FFC72C" fill-rule="nonzero" d="M373 417.425v8h-6zM433 417.425v8h6z"/>
                    <g fill-rule="nonzero">
                        <path fill="#FFE380" d="M355 469.425h28v6h-28z"/>
                        <path fill="#4A90E2" d="M353 469.425h2v6h-2a1 1 0 0 1-1-1v-4a1 1 0 0 1 1-1z"/>
                        <path fill="url(#I)" d="M3 0h28v3H3z" transform="translate(352 469.425)"/>
                        <path fill="#FFF" d="M383 469.425l6 3-6 3z"/>
                        <path fill="#4A5F6E" d="M386 470.925l3 1.5-3 1.5z"/>
                    </g>
                    <path fill="#8BDCFB" d="M344.2 440.534c-1.612 3.89-1.634 13.574.867 16.774 1.754-.685 3.88-1.627 6.377-2.824-4.251-4.99-6.666-9.64-7.244-13.95zM466.244 443.425c1.612 3.89 1.634 13.573-.867 16.773-1.754-.685-3.632-1.693-6.13-2.89 4.251-4.99 6.419-9.573 6.997-13.883z"/>
                    <path fill="#8BDCFB" fill-rule="nonzero" d="M439.152 409.559l5.196-3a1.5 1.5 0 0 1 1.5 2.598l-5.196 3a1.5 1.5 0 0 1-1.5-2.598zM435.01 403.374l5.656-5.656a1.5 1.5 0 0 1 2.121 2.12l-5.657 5.658a1.5 1.5 0 0 1-2.12-2.122z"/>
                </g>
            </g>
        </g>
    </g>
</svg>
