<svg xmlns="http://www.w3.org/2000/svg" xmlns:xlink="http://www.w3.org/1999/xlink" viewBox="0 0 1800 957">
    <defs>
        <path id="a" d="M0 0h1680v800H0z"/>
        <linearGradient id="c" x1="50%" x2="50%" y1="0%" y2="100%">
            <stop offset="0%" stop-color="#AFC7D1"/>
            <stop offset="100%" stop-color="#EEF2F5"/>
        </linearGradient>
        <linearGradient id="d" x1="100%" x2="50%" y1="81.823%" y2="67.733%">
            <stop offset="0%" stop-color="#FFC72C"/>
            <stop offset="100%" stop-color="#F0B616"/>
        </linearGradient>
        <linearGradient id="e" x1="30.716%" x2="69.284%" y1="0%" y2="100%">
            <stop offset="0%" stop-color="#FFE557"/>
            <stop offset="100%" stop-color="#FFC72C"/>
        </linearGradient>
        <linearGradient id="f" x1="50%" x2="50%" y1="0%" y2="100%">
            <stop offset="0%" stop-color="#E6F7FF"/>
            <stop offset="100%" stop-color="#2FB7EC"/>
        </linearGradient>
        <linearGradient id="g" x1="50%" x2="50%" y1="-2.794%" y2="73.096%">
            <stop offset="0%" stop-color="#E6F7FF"/>
            <stop offset="100%" stop-color="#8BDCFB"/>
        </linearGradient>
        <linearGradient id="h" x1="50%" x2="50%" y1="0%" y2="100%">
            <stop offset="0%" stop-color="#FFF"/>
            <stop offset="100%" stop-color="#E6F7FF"/>
        </linearGradient>
        <linearGradient id="i" x1="50%" x2="50%" y1="0%" y2="100%">
            <stop offset="0%" stop-color="#E6F7FF"/>
            <stop offset="100%" stop-color="#CEF2FD"/>
        </linearGradient>
        <linearGradient id="j" x1="50%" x2="50%" y1="100%" y2="0%">
            <stop offset="0%" stop-color="#8BDCFB"/>
            <stop offset="100%" stop-color="#2FB7EC"/>
        </linearGradient>
        <linearGradient id="k" x1="0%" y1="27.778%" y2="72.222%">
            <stop offset="0%" stop-color="#7790A3"/>
            <stop offset="100%" stop-color="#2FB7EC"/>
        </linearGradient>
        <linearGradient id="l" x1="50%" x2="50%" y1="0%" y2="100%">
            <stop offset="0%" stop-color="#AFC7D1"/>
            <stop offset="100%" stop-color="#EEF2F5"/>
        </linearGradient>
        <linearGradient id="n" x1="0%" y1="64.323%" y2="35.677%">
            <stop offset="0%" stop-color="#AFC7D1" stop-opacity=".2"/>
            <stop offset="100%" stop-color="#CEF2FD"/>
        </linearGradient>
        <path id="m" d="M34 475.425c17.077-94.202 50.55-145.298 100.42-153.288 74.805-11.986 4.494 42.108 42.888 64.403 17.06 9.907 36.916 5.455 68.018 0 31.103-5.455 74.5 9.665 78.674 88.071-52.45.999-149.116 1.27-290 .814z"/>
        <linearGradient id="o" x1="70.28%" x2="29.72%" y1="0%" y2="100%">
            <stop offset="0%" stop-color="#1ACC94"/>
            <stop offset="100%" stop-color="#2EE3AA"/>
        </linearGradient>
        <linearGradient id="p" x1="6.463%" y1="94.871%" y2="5.129%">
            <stop offset="0%" stop-color="#2FB7EC"/>
            <stop offset="100%" stop-color="#8BDCFB"/>
        </linearGradient>
        <circle id="q" cx="10" cy="10" r="10"/>
        <path id="s" d="M6 11h8a4 4 0 1 1-8 0z"/>
        <path id="t" d="M8 14c0-.555.996-1.002 2-1 .996.002 2 .45 2 1 0 0-1 .5-2 .5S8 14 8 14z"/>
        <linearGradient id="u" x1="9.5%" x2="90.5%" y1="0%" y2="100%">
            <stop offset="0%" stop-color="#2F88EC"/>
            <stop offset="100%" stop-color="#2FB7EC"/>
        </linearGradient>
        <linearGradient id="v" x1=".927%" x2="99.073%" y1="0%" y2="100%">
            <stop offset="0%" stop-color="#2F88EC"/>
            <stop offset="100%" stop-color="#2FB7EC"/>
        </linearGradient>
        <linearGradient id="w" x1="100%" x2="0%" y1="63.293%" y2="36.707%">
            <stop offset="0%" stop-color="#CEF2FD"/>
            <stop offset="100%" stop-color="#8BDCFB"/>
        </linearGradient>
        <linearGradient id="x" x1="0%" y1="69.175%" y2="30.825%">
            <stop offset="0%" stop-color="#2FB7EC"/>
            <stop offset="100%" stop-color="#2FB7EC" stop-opacity=".6"/>
        </linearGradient>
        <linearGradient id="y" x1="82.784%" x2="35.82%" y1="100%" y2="0%">
            <stop offset="0%" stop-color="#326BEE"/>
            <stop offset="100%" stop-color="#1D4BEA"/>
            <stop offset="100%" stop-color="#1D4BEA"/>
        </linearGradient>
        <path id="z" d="M1163 475.425c17.077-94.202 50.55-145.298 100.42-153.288 74.805-11.986 4.494 42.108 42.888 64.403 17.06 9.907 36.916 5.455 68.018 0 31.103-5.455 74.5 9.665 78.674 88.071-52.45.999-149.116 1.27-290 .814z"/>
        <linearGradient id="A" x1="50%" x2="50%" y1="0%" y2="100%">
            <stop offset="0%" stop-color="#239464" stop-opacity=".8"/>
            <stop offset="100%" stop-color="#1ACC94"/>
        </linearGradient>
        <linearGradient id="B" x1="100%" x2="0%" y1="82%" y2="18%">
            <stop offset="0%" stop-color="#CEF2FD"/>
            <stop offset="100%" stop-color="#8BDCFB"/>
        </linearGradient>
        <linearGradient id="C" x1="100%" x2="0%" y1="82%" y2="18%">
            <stop offset="0%" stop-color="#8BDCFB"/>
            <stop offset="100%" stop-color="#8BDCFB"/>
        </linearGradient>
        <linearGradient id="D" x1="53.125%" x2="46.875%" y1="100%" y2="0%">
            <stop offset="0%" stop-color="#8BDCFB"/>
            <stop offset="100%" stop-color="#8BDCFB"/>
        </linearGradient>
        <path id="E" d="M0 475.425h1488v8H0z"/>
        <linearGradient id="F" x1="100%" x2="-42.556%" y1="100%" y2="100%">
            <stop offset="0%" stop-color="#BFF0FD"/>
            <stop offset="100%" stop-color="#8BDCFB"/>
        </linearGradient>
        <linearGradient id="G" x1="0%" x2="74.281%" y1="43.388%" y2="56.612%">
            <stop offset="0%" stop-color="#EEF2F5"/>
            <stop offset="100%" stop-color="#AFC7D1" stop-opacity=".8"/>
        </linearGradient>
        <linearGradient id="H" x1="0%" y1="50%" y2="50%">
            <stop offset="0%" stop-color="#2FB7EC"/>
            <stop offset="100%" stop-color="#2FB7EC"/>
        </linearGradient>
        <linearGradient id="I" x1="0%" y1="43.388%" y2="56.612%">
            <stop offset="0%" stop-color="#CEF2FD"/>
            <stop offset="100%" stop-color="#EEF2F5"/>
        </linearGradient>
        <linearGradient id="J" x1="78.125%" x2="21.875%" y1="0%" y2="100%">
            <stop offset="0%" stop-color="#CEF2FD"/>
            <stop offset="100%" stop-color="#8BDCFB"/>
        </linearGradient>
        <linearGradient id="K" x1="0%" y1="50%" y2="50%">
            <stop offset="0%" stop-color="#FFE557"/>
            <stop offset="100%" stop-color="#FFC72C"/>
        </linearGradient>
        <linearGradient id="L" x1="0%" y1="50%" y2="50%">
            <stop offset="0%" stop-color="#FFD560"/>
            <stop offset="100%" stop-color="#F0B616"/>
        </linearGradient>
        <linearGradient id="M" x1="8.234%" y1="50%" y2="50%">
            <stop offset="0%" stop-color="#FFE557"/>
            <stop offset="100%" stop-color="#FFC72C"/>
        </linearGradient>
        <linearGradient id="N" x1="50%" x2="41.319%" y1="0%" y2="100%">
            <stop offset="0%" stop-color="#8BDCFB"/>
            <stop offset="100%" stop-color="#2FB7EC"/>
        </linearGradient>
        <circle id="O" cx="28" cy="28" r="28"/>
        <linearGradient id="Q" x1="62.689%" x2="62.689%" y1="0%" y2="100%">
            <stop offset="0%" stop-color="#2FB7EC"/>
            <stop offset="100%" stop-color="#8BDCFB"/>
        </linearGradient>
        <linearGradient id="R" x1="55.064%" x2="20.313%" y1="0%" y2="26.509%">
            <stop offset="0%" stop-color="#CEF2FD"/>
            <stop offset="100%" stop-color="#8BDCFB"/>
        </linearGradient>
        <linearGradient id="S" x1="36.6%" x2="50%" y1="0%" y2="100%">
            <stop offset="0%" stop-color="#CEF2FD"/>
            <stop offset="100%" stop-color="#8BDCFB"/>
        </linearGradient>
        <linearGradient id="T" x1="100%" x2="-6.882%" y1="1.641%" y2="112.604%">
            <stop offset="0%" stop-color="#326BEE"/>
            <stop offset="100%" stop-color="#1D4BEA"/>
        </linearGradient>
        <linearGradient id="U" x1="13.265%" x2="86.735%" y1="0%" y2="100%">
            <stop offset="0%" stop-color="#2F88EC"/>
            <stop offset="100%" stop-color="#2FB7EC"/>
        </linearGradient>
        <linearGradient id="V" x1="18%" x2="82%" y1="-.006%" y2="100.006%">
            <stop offset="0%" stop-color="#FFE557"/>
            <stop offset="100%" stop-color="#FFC72C"/>
        </linearGradient>
        <path id="W" d="M16.813 5.134c0-.749-.61-1.372-1.342-1.372l-1.78-.15-.833-2.67c-.025-.025-.025-.05-.05-.075a1.32 1.32 0 0 0-1.097-.574H4.622c-.683 0-1.056.75-1.13 1.398H.83a.548.548 0 0 0-.537.55c0 .298.244.548.537.548h2.625c.268.05.464.274.464.549 0 .299-.244.548-.537.548h-1.3a.548.548 0 0 0-.536.55c0 .298.244.548.537.548h2.381c.294 0 .538.25.538.549 0 .299-.244.548-.537.548H3.213c-.335 0-.579.25-.579.55 0 .299.244.548.537.548h.795c-.341.075-.585.4-.585.773v.998c0 .424.341.798.78.798h.813c.244.873 1.05 1.522 1.977 1.522.951 0 1.732-.649 1.976-1.522h2.933c.244.873 1.05 1.522 1.977 1.522.951 0 1.732-.649 1.976-1.522h.952c.414 0 .78-.35.78-.798v-.998c-.048-.449-.366-.798-.732-.823V5.134z"/>
        <path id="X" d="M112.755 46.64c1.155 4.746 1.388 7.629.699 8.65-.709 1.049-2.29.542-4.747-1.523l4.048-7.126z"/>
        <linearGradient id="Y" x1="100%" x2="0%" y1="49.426%" y2="51.42%">
            <stop offset="0%" stop-color="#FFE380"/>
            <stop offset="100%" stop-color="#FFD560"/>
        </linearGradient>
        <path id="Z" d="M1289 244.425h74v142a2 2 0 0 1-2 2h-70a2 2 0 0 1-2-2v-142z"/>
        <linearGradient id="aa" x1="0%" x2="79.921%" y1="76.657%" y2="43.552%">
            <stop offset="0%" stop-color="#3FAA7D"/>
            <stop offset="100%" stop-color="#4E6EB9"/>
        </linearGradient>
        <linearGradient id="ab" x1="0%" x2="79.921%" y1="85.787%" y2="41.343%">
            <stop offset="0%" stop-color="#3FAA7D"/>
            <stop offset="100%" stop-color="#4E6EB9"/>
        </linearGradient>
        <linearGradient id="ac" x1="100%" x2="50%" y1="17.925%" y2="95.707%">
            <stop offset="0%" stop-color="#FFE557"/>
            <stop offset="100%" stop-color="#FFC72C"/>
        </linearGradient>
        <linearGradient id="ad" x1="50%" x2="50%" y1="0%" y2="100%">
            <stop offset="0%" stop-color="#F0B616"/>
            <stop offset="100%" stop-color="#FFC72C"/>
        </linearGradient>
        <path id="ae" d="M84.232 113.102c4.085 5.613 9.385 19.62 13.589 23.056 6.337 1.276 10.331 4.23 14.285 6v5.5c-16.544 4.125-27.544 4.125-33 0-5.602-4.236-11.884-18.953-14.106-26.18 3.302-.878 9.713-3.67 19.232-8.376z"/>
        <linearGradient id="af" x1="80.149%" x2="25.728%" y1="59.877%" y2="41.744%">
            <stop offset="0%" stop-color="#8BDCFB"/>
            <stop offset="100%" stop-color="#2FB7EC"/>
        </linearGradient>
        <linearGradient id="ag" x1="3.022%" x2="109.46%" y1="49.697%" y2="50.942%">
            <stop offset="0%" stop-color="#8BDCFB"/>
            <stop offset="100%" stop-color="#2FB7EC"/>
        </linearGradient>
        <path id="ah" d="M155.529 118.368c.327 9.971.056 19.98.98 29.913 1.841 19.788 10.987 22.978 28.749 27.877 6.366 1.756 18.425 2.333 26.5 1.562 1.709-2.56 3.115-4.748 4.22-6.562-13.619-8-22.485-18.133-30.72-21.477-1.751-.71-5.203-1.86-5.75-2.023v-22.5c-5.318.403-9.851-.012-13.6-1.246a34.257 34.257 0 0 1-10.379-5.544z"/>
        <path id="ai" d="M144.562 56.477c-2.017 3.918-4.21 8.655-6.612 12.35-1.182 1.818-4.625 2.445-4.587 4.614.125 7.117 3.362 12.956 9.873 15.717 7.786 3.301 19.326 2.23 23.205-5.931 4.75-9.99.792-16.084-11.87-18.284l-10.01-8.466z"/>
        <path id="aj" d="M155.5 66.158c0 9.388-7.611 17-17 17s-17-7.612-17-17v-36h34v36z"/>
        <path id="ak" d="M125.408 47.39c.778-1.695 2.004.44 2.217 1.027.715 1.964-1.152 6.631 1.388 8.878 1.98 1.751 2.476 3.611 1.71 4.697-.792.655-3.554.581-5.446.597-3.475.028-7.655.547-4.743-3.895 3.447-5.26 4.096-9.61 4.874-11.304z"/>
        <path id="al" d="M160.5 56.658v-10a5 5 0 1 0 0 10z"/>
        <linearGradient id="am" x1="100%" x2="-6.882%" y1="17.237%" y2="92.413%">
            <stop offset="0%" stop-color="#326BEE"/>
            <stop offset="100%" stop-color="#1D4BEA"/>
        </linearGradient>
        <path id="an" d="M164.993 17.333c-1.806-.75-2.093-2.777-.863-6.08.35 1.695.687 2.708 1.013 3.04.709.72.834.61 1.76 1.014l-1.91 2.026z"/>
        <path id="ao" d="M167.32 19.892c-1.805-.75-2.708-2.125-2.708-4.125.361.632.705 1.114 1.031 1.446.709.72 1.475.873 2.401 1.278l-.724 1.4z"/>
        <path id="ap" d="M138.423 171.196c4.828-.324 8.661-2.456 13.501-1.081 1.777.504 6.625 1.442 7.799 2.58.245.239 2.678 1.948.602 2.244-2.075.296-3.486-2.342-3.006-1.745l2.718 2.724c.751 1.135-.13 1.404-.718 1.404-.918 0-.95-.616-.236 1 .225.509 0 .888-.227 1.046-.42.293-1.612-.11-2.025-.158-1.09-.125-2.206-2.742-1.75-1.744.069.151.616.95 1.75 1.744.37.26 2.366.81 1.548 1.686-.223.238-.583.238-1.94.238-1.358 0-5.227-.759-6.083-.73-3.188-.556-6.704-.518-8.478-1.194-3.105-1.182-7.385-.965-9.03-1.744 2.543-1.947 2.7-2.527 5.575-6.27z"/>
        <path id="aq" d="M20.515 151.688c-4.518.305-8.007.026-12.408 1.095-.761.184-.761.822 0 1.575l3.124 1.856c-2.061 0-5.515-1.186-2.061 3.44.338.453-1.474-.542-1.542 0-.085.683-.085 1.625 1.193 2.79.275.25-1.186-.36-1.193 0-.009.48.48 1.187 1.16 1.81 2.104 1.928 5.247 2.61 8.094 3.115 13.919 2.47 15.587-13.74 6.342-20.211l-2.709 4.53z"/>
        <linearGradient id="ar" x1="50%" x2="89.342%" y1="50%" y2="43.878%">
            <stop offset="0%" stop-color="#4A90E2" stop-opacity=".4"/>
            <stop offset="100%" stop-color="#4E6EB9"/>
        </linearGradient>
        <path id="as" d="M90.173 122.365c8.412-.168 13.73-.107 21.883-4.144-.43-.762-1.84-2.736-2.444-5.88-5.729 3.538-17.354 8.102-19.785 9.092.288.956.404 1.267.346.932z"/>
        <path id="at" d="M192 129.607c8.056.52 15.825 1.255 23.979-2.782 0-1.097.603-5.312 0-8.457-5.73 3.54-10.677 7.36-23.979 6.79v4.45z"/>
    </defs>
    <g fill="none" fill-rule="evenodd">
        <mask id="b" fill="#fff">
            <use xlink:href="#a"/>
        </mask>
        <g mask="url(#b)">
            <g transform="translate(96 157)">
                <path fill="#EEF2F5" fill-rule="nonzero" d="M116.4 82.425H70h46.4H70a8 8 0 1 1 1.601-15.84l-.001-.16a9.6 9.6 0 0 1 9.6-9.6c1.003 0 1.971.154 2.88.44 2.893-4.136 7.69-6.84 13.12-6.84 7.959 0 14.56 5.81 15.793 13.422a9.578 9.578 0 0 1 3.407-.622 9.6 9.6 0 1 1 0 19.2z"/>
                <g fill-rule="nonzero" transform="rotate(-10 186.363 -501.985)">
                    <path fill="url(#c)" d="M45.366 125.687a1 1 0 0 1 2 0v40a1 1 0 1 1-2 0v-40z" transform="rotate(-30 46.366 145.687)"/>
                    <path fill="url(#c)" d="M93.366 125.687a1 1 0 0 1 2 0v40a1 1 0 1 1-2 0v-40z" transform="scale(-1 1) rotate(-30 0 497.865)"/>
                    <path fill="url(#d)" d="M46.5 4.72c1.404.299 2.404 1.509 2.404 2.908v31.745c0 1.366-.955 2.556-2.315 2.888l-20.715 5.043a6 6 0 0 1-2.844-.001L2.315 42.238C.955 41.907 0 40.716 0 39.35V8.278C0 6.912.955 5.72 2.315 5.39L24.452 0 46.5 4.72z" transform="translate(46 160)"/>
                    <path fill="#FFE557" d="M92.5 164.72c1.404.299 2.404 1.509 2.404 2.908v31.745l-24.452-5.722L46 199.35v-31.073c0-1.366.955-2.557 2.315-2.888L70.452 160l22.049 4.72z"/>
                    <path fill="#F0B616" d="M53.336 164.114l9.78-2.32v8.309a.804.804 0 0 1-1.082.753l-1.54-.569-1.452 1.246a1.607 1.607 0 0 1-1.775.214l-1.614-.82-.915 1.023a.804.804 0 0 1-1.402-.535v-7.301zM62.78 196.105l-9.78 2.32v-10.31a.804.804 0 0 1 1.082-.753l1.541.569 1.451-1.246a1.607 1.607 0 0 1 1.775-.214l1.615.82.914-1.023a.804.804 0 0 1 1.403.536v9.3z"/>
                    <path fill="url(#e)" d="M46.5 4.72c1.404.299 2.404 1.509 2.404 2.908v31.745L24.452 33.65V0L46.5 4.72z" transform="translate(46 160)"/>
                    <path fill="#FFF" d="M85.99 189.022l4.913 1.167c.362.086.618.41.618.782v3.114a.804.804 0 0 1-.983.784l-4.913-1.124a.804.804 0 0 1-.625-.783v-3.158a.804.804 0 0 1 .99-.782z"/>
                    <circle cx="70" cy="70" r="70" fill="url(#f)"/>
                    <path fill="url(#g)" d="M20.403 119.398C7.794 106.738 0 89.28 0 70c0-19.28 7.794-36.739 20.403-49.398C33.883 11.479 51.162 6 70 6s36.116 5.48 49.597 14.602C132.206 33.262 140 50.72 140 70c0 19.28-7.794 36.739-20.403 49.398-8.847 5.987-19.33 10.404-30.814 12.734C89.57 130.844 90 129.452 90 128c0-6.627-8.954-12-20-12s-20 5.373-20 12c0 1.452.43 2.844 1.217 4.132-11.485-2.33-21.967-6.747-30.814-12.734z"/>
                    <path fill="url(#h)" d="M50.017 128.497C25.58 119.645 8 95.008 8 66 8 29.55 35.758 0 70 0c34.242 0 62 29.55 62 66 0 29.008-17.58 53.645-42.017 62.497.011-.165.017-.33.017-.497 0-6.627-8.954-12-20-12s-20 5.373-20 12c0 .166.006.332.017.497z"/>
                    <path fill="url(#i)" d="M51.748 123.086C45.78 110.25 42 91.228 42 70 42 31.34 54.536 0 70 0s28 31.34 28 70c0 21.228-3.78 40.249-9.748 53.086C85.122 118.91 78.128 116 70 116c-8.128 0-15.123 2.909-18.252 7.086z"/>
                    <ellipse cx="70" cy="128" fill="url(#j)" rx="20" ry="12"/>
                    <ellipse cx="70" cy="128" fill="url(#k)" rx="6" ry="4"/>
                    <path fill="url(#l)" d="M69 129a1 1 0 1 1 2 0v31a1 1 0 1 1-2 0v-31z"/>
                </g>
                <g fill-rule="nonzero">
                    <use fill="#FFF" xlink:href="#m"/>
                    <use fill="url(#n)" xlink:href="#m"/>
                </g>
                <path fill="url(#o)" d="M223.085 431.565c2.357-9.846 14.122-33.56 35.297-71.143h15.802c-8.72 38.262-11.862 59.783-9.43 64.564 2.432 4.78 4.474 7.094 6.126 6.939-13.01 6.262-25.62 9.348-37.83 9.256-5.582-.042-13.499 5.153-9.965-9.616z"/>
                <path fill="#1ACC94" d="M268.352 431.925c-10.575 1.281-18.62 2.417-24.134 3.406-17.974 3.224-30.763 9.96-35.053 4.918-.781-5.624 6.913-22.544 23.085-50.76l-13.505-5.076c-22.477 24.107-37.097 41.817-43.858 53.128-10.143 16.968-16.506 26.2-10.514 37.884h103.979v-43.5z"/>
                <path fill="url(#p)" fill-rule="nonzero" d="M355.337 386.906a142.732 142.732 0 0 0-19.445 8.219c-34.14 17.528-53.915 36.034-67.54 36.44-4.678 4.009-7.301 13.704-7.301 20.316 0 7.383 1.86 15.196 5.583 23.439l58.126.905 30.577-89.32z"/>
                <path fill="#3FAA7D" fill-rule="nonzero" d="M222.208 385.678c.21-2.627-3.033-6.143-9.73-10.55-10.047-6.608-11.461-10.703-4.35-10.703 7.113 0 22.988 3.089 30.04 10.704 2.915 3.147.518 7.802-7.191 13.967l-8.77-3.418z"/>
                <path fill="#E6F7FF" d="M147 256.425h104v88a4 4 0 0 1-4 4h-96a4 4 0 0 1-4-4v-88z"/>
                <g transform="translate(147 246.425)">
                    <path fill="#8BDCFB" fill-opacity=".8" d="M4 0h96a4 4 0 0 1 4 4v6H0V4a4 4 0 0 1 4-4z"/>
                    <circle cx="16" cy="5" r="2" fill="#2FB7EC"/>
                    <circle cx="6" cy="5" r="2" fill="#2FB7EC"/>
                    <circle cx="11" cy="5" r="2" fill="#2FB7EC"/>
                </g>
                <rect width="60" height="32" x="155" y="264.425" fill="#FFF" rx="2"/>
                <path fill="#FFC72C" fill-rule="nonzero" d="M163 290.425h3v3l-1.5-1.5-1.5 1.5z"/>
                <rect width="60" height="32" x="183" y="306.425" fill="#FFF" rx="2"/>
                <g transform="translate(209 312.425)">
                    <mask id="r" fill="#fff">
                        <use xlink:href="#q"/>
                    </mask>
                    <use fill="#FFF" xlink:href="#q"/>
                    <use fill="#FFE380" xlink:href="#q"/>
                    <path fill="#FFA39E" fill-rule="nonzero" d="M3.154 4C3.91 4 4.61 4.369 5 4.974 5.39 4.369 6.09 3.999 6.846 4 8.036 4 9 4.896 9 6c0 2.125-4 4-4 4S1 8.125 1 6c0-1.104.964-2 2.154-2zM13.154 4c.755 0 1.455.369 1.846.974.39-.605 1.091-.975 1.846-.974C18.036 4 19 4.896 19 6c0 2.125-4 4-4 4s-4-1.875-4-4c0-1.104.964-2 2.154-2z" mask="url(#r)"/>
                    <g mask="url(#r)">
                        <use fill="#FFF" xlink:href="#s"/>
                        <use fill="#4A5F6E" xlink:href="#s"/>
                    </g>
                    <g mask="url(#r)" transform="matrix(1 0 0 -1 0 27.5)">
                        <use fill="#FFF" xlink:href="#t"/>
                        <use fill="#FFA39E" xlink:href="#t"/>
                    </g>
                </g>
                <path fill="#F0B616" fill-rule="nonzero" d="M189.5 324.73l-.458-9.305h3.208l-.417 9.305H189.5zm-.5 3.04c0-.91.75-1.675 1.667-1.675.916 0 1.666.765 1.666 1.675 0 .89-.75 1.655-1.666 1.655A1.679 1.679 0 0 1 189 327.77zm5.833-3.04l-.458-9.305h3.208l-.416 9.305h-2.334zm-.5 3.04c0-.91.75-1.675 1.667-1.675s1.667.765 1.667 1.675c0 .89-.75 1.655-1.667 1.655a1.679 1.679 0 0 1-1.667-1.655zm5.834-3.04l-.459-9.305h3.209l-.417 9.305h-2.333zm-.5 3.04c0-.91.75-1.675 1.666-1.675.917 0 1.667.765 1.667 1.675 0 .89-.75 1.655-1.667 1.655a1.679 1.679 0 0 1-1.666-1.655z"/>
                <g fill-rule="nonzero" transform="translate(162 270.425)">
                    <rect width="18" height="20" fill="url(#u)" rx="1"/>
                    <path fill="#FFF" d="M12 0h3v20h-3z"/>
                    <path fill="#2FB7EC" d="M3 0h1.5v20H3z"/>
                </g>
                <path fill="#CEF2FD" fill-rule="nonzero" d="M202.286 279.291c0 2.633-1.208 5.13-3.295 6.814a9.35 9.35 0 0 1-7.508 1.903l-4.203 1.608.299-3.248.102.035c-3.45-2.493-4.641-6.983-2.86-10.781 1.781-3.8 6.053-5.879 10.258-4.995 4.205.883 7.206 4.49 7.207 8.664z"/>
                <path fill="#2FB7EC" d="M197.732 277.773a.674.674 0 0 0-.649.56l-.318 2.293c-.036.25-.157.467-.364.65-.207.184-.44.276-.7.276a.786.786 0 0 1-.793-.926l.193-1.391a.48.48 0 0 0-.497-.495h-.762a.677.677 0 0 0-.635.495l-.199 1.391a1.038 1.038 0 0 1-.364.656c-.207.18-.436.27-.688.27a.78.78 0 0 1-.617-.276.782.782 0 0 1-.187-.65l.427-3.042a.715.715 0 0 0-.404-.732l-3.424-1.407c-.212-.086-.453.106-.535.427l-.196.765a.711.711 0 0 0 .411.81l2.155.88-.322 2.3c-.109.77.074 1.43.55 1.977.475.547 1.101.82 1.88.82.718 0 1.373-.238 1.966-.716.474.478 1.067.717 1.778.717.778 0 1.481-.274 2.11-.821.629-.547.997-1.207 1.106-1.978l.343-2.468c.03-.212-.202-.385-.516-.385h-.75z"/>
                <path fill="#FFA39E" fill-rule="nonzero" d="M213.154 293.425c.755-.001 1.455.368 1.846.973.39-.605 1.091-.974 1.846-.973 1.19 0 2.154.895 2.154 2 0 2.125-4 4-4 4s-4-1.875-4-4c0-1.105.964-2 2.154-2z"/>
                <path fill="#FFF" d="M159 302.425l6-6h-6z"/>
                <path fill="url(#v)" fill-rule="nonzero" d="M3.752.073L0 7.114l6.976-4.502z" transform="rotate(10 -1052.769 1805.609)"/>
                <path fill="url(#w)" d="M0 6.304l21.797 17.11L45.41 0z" transform="rotate(10 -955.072 1761.855)"/>
                <path fill="url(#x)" d="M.063 12.27l1.48 11.145 3.753-7.042L37.872 0z" transform="rotate(10 -958.84 1804.935)"/>
                <path fill="#C4E1F7" d="M289.882 211.05a1 1 0 0 1 .384 1.963c-24.719 4.83-40.334 9.098-54.689 16.492-20.125 10.366-29.57 24.223-25.732 42.716a1 1 0 1 1-1.958.407c-4.051-19.518 5.933-34.166 26.774-44.9 14.577-7.51 30.322-11.812 55.221-16.677z"/>
                <path fill="#3FAA7D" fill-rule="nonzero" d="M262.288 360.422c-.131-2.741-4.001-5.373-11.611-7.895-11.415-3.784-13.841-7.373-6.971-9.214 6.87-1.841 23.003-2.966 31.786 2.564 3.63 2.286 2.393 7.134-3.71 14.545h-9.494z"/>
                <g fill-rule="nonzero">
                    <path fill="#3FAA7D" d="M159.482 457.6c-.03-.13-.085-.398-.156-.797a45.799 45.799 0 0 1-.356-2.379c-1.33-10.635-.444-23.747 4.315-38.106a1 1 0 1 0-1.898-.63c-4.86 14.664-5.765 28.07-4.402 38.984.118.944.245 1.774.372 2.484.077.43.138.73.175.89a1 1 0 1 0 1.95-.447z"/>
                    <path fill="#326BEE" d="M140.235 451.647h36.297s7.033 10.192-4.078 23.778h-28.642s-10.243-10.44-3.577-23.778z"/>
                    <path fill="url(#y)" d="M39.532 46.222S46.565 56.414 35.454 70h-12.98c11.11-13.586 4.076-23.778 4.076-23.778h12.982z" transform="translate(137 405.425)"/>
                    <path fill="#2EE3AA" d="M163.665 411.248c1.089-1.633 3.607-6.422 12.25-4.446 0 0-7.144 12.168-13.581 8.184.161-1.403.605-2.648 1.33-3.738zM160.378 419.064s-.279-6.568-7.44-8.298c0 0 .742 14.327 6.42 11.98l1.02-3.682zM160.038 428.764s1.32-6.882 15.148-9.846c0 0-4.41 14.233-15.785 13.662l.637-3.816zM156.917 436.488s1.454-7.196-7.188-13.865c0 0-9.383 15.974 6.785 18.978l.403-5.113zM158.354 446.336c0-1.318-.699-10.127 10.165-12.103 0 0-3.968 14.2-9.876 16.732-.193-2.207-.289-3.75-.289-4.629z"/>
                </g>
                <g fill-rule="nonzero" transform="matrix(-1 0 0 1 2616 0)">
                    <use fill="#FFF" xlink:href="#z"/>
                    <use fill="#EEF2F5" xlink:href="#z"/>
                </g>
                <path fill="#239464" d="M222.208 385.725l-.136-1.312 11.304 2.689-2.4 1.994zM262.288 360.422c-.152-.953-.428-1.66-.83-2.122.49-.296 4.414-.215 11.768.24l-1.444 1.882h-9.494z"/>
                <path fill="url(#A)" d="M267.64 432.104c-1.248.142-2.291.306-3.13.493-3.002 3.158-8.6 31.614-3.052 42.723 3.028 0 1.032.105 5.176 0-4.04-20.328-3.705-34.733 1.005-43.216z"/>
                <g fill-rule="nonzero">
                    <path fill="url(#B)" d="M17.5 0h45A2.5 2.5 0 0 1 65 2.5V40H15V2.5A2.5 2.5 0 0 1 17.5 0z" transform="translate(1298 436.425)"/>
                    <path fill="url(#C)" d="M2.5 0H50v40H0V2.5A2.5 2.5 0 0 1 2.5 0z" transform="translate(1298 436.425)"/>
                    <g fill="#2FB7EC" fill-opacity=".5">
                        <path d="M1334.25 465.175h10v5h-10zM1334.25 471.425h10v1.25h-10z"/>
                    </g>
                    <path fill="#2FB7EC" d="M1319 436.425h15v7.5l-2.48-1.25-2.52 1.25-2.5-1.25-2.5 1.25-2.5-1.25-2.5 1.25z"/>
                    <path fill="#2FB7EC" fill-opacity=".5" d="M1355.5 437.675h1.25v38.75h-1.25z"/>
                    <path fill="#2FB7EC" d="M1353 436.425h5v7.5l-2.5-1.25-2.5 1.25z"/>
                    <path fill="#8BDCFB" d="M1363 461.425h20v15h-20z"/>
                    <path fill="url(#D)" d="M81.25 25H85v15h-3.75z" transform="translate(1298 436.425)"/>
                    <path fill="#2FB7EC" d="M1383 466.425h12.5v10H1383zM1366.75 461.425h10v5l-2.5-1.25-2.065 1.25-2.935-1.25-2.5 1.25z"/>
                </g>
                <use fill="#FFF" xlink:href="#E"/>
                <use fill="#AFC7D1" fill-opacity=".5" xlink:href="#E"/>
                <path fill="#2EE3AA" d="M881 454.678c.008 5.373-3.431 10.172-8.594 11.993-5.164 1.82-10.939.27-14.432-3.873-3.494-4.144-3.952-9.99-1.147-14.607a.858.858 0 0 1 .06-.102 14.006 14.006 0 0 0 1.262-10.997c-.063-.204-.107-.309-.107-.309a10.061 10.061 0 0 1-.022-5.74c.246-.766.563-1.51.946-2.22a23.348 23.348 0 0 0 1.518-4.109c.387-1.604.458-3.265.211-4.896v-.015a.837.837 0 0 0-.034-.164 2.296 2.296 0 0 0-.054-.241.197.197 0 0 0-.016-.068.151.151 0 0 1 0-.043 7.387 7.387 0 0 1-.123-1.332c-.056-2.672 1.369-5.164 3.723-6.516a7.678 7.678 0 0 1 7.627 0c2.355 1.352 3.78 3.844 3.723 6.516 0 .207 0 .411-.025.618v.155c-.17 2.977-.416 3.283-.416 4.386a10.99 10.99 0 0 0 1.697 5.329c.035.052.123.191.237.389a9.959 9.959 0 0 1 .93 7.96l-.025.078a.67.67 0 0 0-.044.139 2.47 2.47 0 0 0-.107.309l-.025.077c-.455 1.544-1.37 5.832.965 10.11a12.462 12.462 0 0 1 2.272 7.173z"/>
                <path fill="#3FAA7D" fill-rule="nonzero" d="M867 455.425v20h2v-20z"/>
                <path fill="#2EE3AA" d="M849 454.678c.008 5.373-3.431 10.172-8.594 11.993-5.164 1.82-10.939.27-14.432-3.873-3.494-4.144-3.952-9.99-1.147-14.607a.858.858 0 0 1 .06-.102 14.006 14.006 0 0 0 1.262-10.997c-.063-.204-.107-.309-.107-.309a10.061 10.061 0 0 1-.022-5.74c.246-.766.563-1.51.946-2.22.373-.777 3.417-5.74 9.034-5.74 5.617 0 8.377 4.697 8.797 5.36.035.052.123.191.237.389a9.959 9.959 0 0 1 .93 7.96l-.025.078a.67.67 0 0 0-.044.139 2.47 2.47 0 0 0-.107.309l-.025.077c-.455 1.544-1.37 5.832.965 10.11a12.464 12.464 0 0 1 2.272 7.173z"/>
                <path fill="#3FAA7D" fill-rule="nonzero" d="M835 455.425v20h2v-20z"/>
                <g transform="translate(870 232.425)">
                    <path fill="url(#F)" fill-rule="nonzero" d="M98 196.658h173v26H102a4 4 0 0 1-4-4v-22z"/>
                    <path fill="#AFC7D1" d="M97 140.658h8a4 4 0 0 1 4 4v52H97v-56zM93 196.658v22a4 4 0 0 1-4 4v-78a4 4 0 0 1 4-4h4v56h-4zM7 218.658h82v4H7a2 2 0 0 1 0-4z"/>
                    <path fill="#AFC7D1" fill-opacity=".5" d="M111 136.658h12l-13 60H98z"/>
                    <path fill="#CEF2FD" d="M111 136.658l11.357-56.785a4 4 0 0 1 3.922-3.215H267a4 4 0 0 1 4 4v56h-12v-48h-56v48h-12v-48h-58.4l-9.6 48-13 60H98l13-60z"/>
                    <path fill="#8BDCFB" fill-rule="nonzero" d="M191 76.658h76a4 4 0 0 1 4 4v56h-12v-48h-56v48h-12v-60z"/>
                    <path fill="#AFC7D1" d="M161 60.658h78a4 4 0 0 1 4 4v12h-86v-12a4 4 0 0 1 4-4z"/>
                    <path fill="#7790A3" d="M203 60.658h36a4 4 0 0 1 4 4v12h-40v-16z"/>
                    <path fill="#8BDCFB" d="M191 136.658h80v60h-80z"/>
                    <g fill="#2FB7EC" fill-opacity=".4">
                        <path d="M195 182.658h12v4h-12zM195 188.658h12v4h-12z"/>
                    </g>
                    <rect width="4" height="20" x="132" y="127.658" fill="#8BDCFB" fill-rule="nonzero" rx="2" transform="rotate(30 134 137.658)"/>
                    <g transform="translate(107 202.658)">
                        <circle cx="20" cy="20" r="20" fill="#AFC7D1"/>
                        <circle cx="20" cy="20" r="6" fill="#7790A3"/>
                    </g>
                    <path fill="#8BDCFB" d="M103 222.658c0-13.255 10.745-24 24-24s24 10.745 24 24h-4c0-11.046-8.954-20-20-20s-20 8.954-20 20h-4z"/>
                    <g transform="translate(231 202.658)">
                        <circle cx="20" cy="20" r="20" fill="#AFC7D1"/>
                        <circle cx="20" cy="20" r="6" fill="#7790A3"/>
                    </g>
                    <path fill="#8BDCFB" d="M227 222.658c0-13.255 10.745-24 24-24s24 10.745 24 24h-4c0-11.046-8.954-20-20-20s-20 8.954-20 20h-4z"/>
                    <g fill-rule="nonzero" transform="translate(0 116.658)">
                        <path fill="url(#G)" d="M20 2h20l-2 8H18z" transform="rotate(180 29 41)"/>
                        <path fill="#4A90E2" d="M6 78h38a2 2 0 0 1 2 2v20a2 2 0 0 1-2 2H8a2 2 0 0 1-2-2V78z"/>
                        <path fill="url(#H)" d="M6 8h20v24H8a2 2 0 0 1-2-2V8z" transform="translate(0 70)"/>
                        <path fill="url(#I)" d="M6 0h20l-2 8H4z" transform="matrix(1 0 0 -1 0 78)"/>
                        <path fill="url(#J)" d="M6 8v8H0z" transform="translate(0 70)"/>
                        <path fill="#8BDCFB" d="M16 96h8v3h-8z"/>
                        <rect width="48" height="34" x="34" y="68" fill="#FFE557" rx="2"/>
                        <g transform="translate(34 68)">
                            <rect width="48" height="34" fill="#FFE557" rx="2"/>
                            <path fill="url(#K)" d="M2 0h30v34H2a2 2 0 0 1-2-2V2a2 2 0 0 1 2-2z"/>
                            <path fill="#F0B616" d="M8 0h12v8l-1.985-1L16 8l-2-1-2 1-2-1-2 1zM38 0h4v8l-2-1-2 1z"/>
                        </g>
                        <g transform="translate(34 34)">
                            <rect width="48" height="34" fill="#FFD560" rx="2"/>
                            <path fill="url(#L)" d="M2 0h30v34H2a2 2 0 0 1-2-2V2a2 2 0 0 1 2-2z"/>
                            <path fill="#F0B616" d="M8 0h12v8l-1.985-1L16 8l-2-1-2 1-2-1-2 1zM38 0h4v8l-2-1-2 1z"/>
                        </g>
                        <g transform="translate(34)">
                            <rect width="48" height="34" fill="#FFE557" rx="2"/>
                            <path fill="url(#M)" d="M2 0h30v34H2a2 2 0 0 1-2-2V2a2 2 0 0 1 2-2z"/>
                            <path fill="#F0B616" d="M8 0h12v8l-1.985-1L16 8l-2-1-2 1-2-1-2 1zM38 0h4v8l-2-1-2 1z"/>
                        </g>
                    </g>
                    <path fill="url(#N)" fill-rule="nonzero" d="M135 196.658h-25l13-60h12z"/>
                    <circle cx="139" cy="129.658" r="4" fill="#8BDCFB" fill-rule="nonzero"/>
                    <g>
                        <path fill="#AFC7D1" d="M189 45a3 3 0 0 1 3 3v13h-6V48a3 3 0 0 1 3-3z"/>
                        <path fill="#7790A3" d="M219 45a3 3 0 0 1 3 3v13h-6V48a3 3 0 0 1 3-3z"/>
                    </g>
                    <g transform="translate(176)">
                        <mask id="P" fill="#fff">
                            <use xlink:href="#O"/>
                        </mask>
                        <use fill="#326BEE" xlink:href="#O"/>
                        <path fill="#C3D4FA" d="M27.658-8.36l22.44-.04-7.914 21.152-7.934.015z" mask="url(#P)" transform="rotate(45 38.878 2.183)"/>
                        <path stroke="#1D4BEA" stroke-linecap="round" stroke-linejoin="round" stroke-width="2.8" d="M21.097 28.795l9.835-19.6M8.45 28.795l22.482-19.6M30.932 9.195l5.62 22.4M30.932 9.195l16.861 25.2" mask="url(#P)"/>
                        <path fill="#5685F1" d="M16.881 25.995l31.264 7.787a2.8 2.8 0 0 1 2.1 3.112L48.21 51.1a2.809 2.809 0 0 1-3.3 2.356L5.537 46.1a2.8 2.8 0 0 1-2.254-3.212l2.055-12.283a2.804 2.804 0 0 1 2.09-2.256l9.453-2.354z" mask="url(#P)"/>
                        <path fill="#FFF" d="M39.83 38.425c-.441 0-.851.354-.913.785l-.45 3.21c-.05.35-.22.654-.51.91-.292.258-.62.387-.984.387-.354 0-.641-.125-.86-.377-.22-.252-.304-.558-.253-.918l.271-1.948c.009-.39-.288-.693-.696-.693h-1.071a.953.953 0 0 0-.893.694l-.28 1.949c-.051.36-.222.666-.513.918-.29.252-.613.379-.967.379s-.643-.128-.866-.385a1.09 1.09 0 0 1-.262-.91l.603-4.26c.064-.415-.186-.849-.567-1.024 0 0-4.516-1.849-4.81-1.968-.298-.12-.636.15-.752.599l-.276 1.071a.993.993 0 0 0 .577 1.134l3.027 1.23-.456 3.22c-.153 1.08.104 2.003.771 2.768.667.766 1.547 1.148 2.64 1.148 1.01-.001 1.93-.336 2.765-1.005.665.668 1.497 1.002 2.496 1.001 1.093 0 2.082-.384 2.965-1.151.884-.767 1.403-1.69 1.556-2.77l.485-3.457c.042-.296-.284-.538-.725-.538l-1.053.001z" mask="url(#P)" transform="rotate(11 33.182 40.745)"/>
                        <circle cx="30.212" cy="9.895" r="4.9" fill="#C3D4FA" fill-rule="nonzero" mask="url(#P)"/>
                        <circle cx="30.1" cy="9.895" r="2.1" fill="#1D4BEA" fill-rule="nonzero" mask="url(#P)"/>
                        <path fill="none" d="M15.764 26.089l2.81-.002-.012 19.602-2.81.002z" mask="url(#P)" transform="rotate(10 17.163 35.889)"/>
                        <path fill="#C3D4FA" fill-rule="nonzero" d="M16.843 30.757l-2.054 12.278a2.804 2.804 0 0 1-2.09 2.256l-9.454 2.355 2.97-21.651 8.37 1.549a2.8 2.8 0 0 1 2.258 3.213z" mask="url(#P)" transform="rotate(180 10.063 36.82)"/>
                    </g>
                </g>
                <path fill="url(#Q)" fill-rule="nonzero" d="M137.53 175.536l1.738-9.621v-15.881c0-17.487.758-33.528 1.284-43.488.322-5.988-3.922-11.016-3.922-11.016-8.332-4.291-15.355-7.985-15.355-7.985L99.52 81.6l-24.806-.986-33.207 6.93c-3.604 0-13.447 10.328-13.447 10.328-1.872 22.618-2.373 55.074-2.46 77.769 24.127 0 61.437-.035 111.931-.105z" transform="translate(297.293 299.784)"/>
                <path fill="url(#R)" fill-rule="nonzero" d="M40.196 175.536C26.066 189.993.348 193.218.074 182.213c-.77-30.97 4.473-67.758 13.96-78.458 5.694-6.421 17.434-17.69 26.162-19.125 9.778-1.608 23.07 9.687 34.298 23.33 10.196 12.39 14.543 38.737 16.012 67.877-17.784 0-34.554-.1-50.31-.3z" transform="translate(297.293 299.784)"/>
                <path fill="url(#S)" fill-rule="nonzero" d="M137.506 87.078c-13.046-4.494-15.98 0-26.143 23.565 0 0-15.433 17.312-17.645 64.893 18.353.105 40.422.105 43.788.105 13.047 16.758 33.375 21.386 40.201 0 6.826-21.386-27.154-84.069-40.2-88.563z" transform="translate(297.293 299.784)"/>
                <path fill="#1D4BEA" fill-rule="nonzero" d="M418.232 313.915a.175.175 0 0 1 .322.046c.888 3.3 7.027 25.93 10.125 31.046 3.18 5.254 15.958 15.384 13.49 30.605-.235 1.445-1.403 2.537-2.807 2.813l-5.97 1.168a.185.185 0 0 1-.215-.144l-.936-4.776s-1.589 7.26-3.137 7.05c-1.546-.212-15.058 3.911-32.314-.258-16.502-3.988 18.36-62.448 21.44-67.55"/>
                <path fill="#FFF" fill-rule="nonzero" d="M396.422 368.99c1.939.806 5.004 1.303 9.578.672 1.771-.245 4.009-1.649 7.05-4.696 3.043-3.048 4.692-8.835 5.477-11.149 4.181-12.336.307-34.55-.22-37.476 0 0-64.429 16.085-58.887 40.572l3.845 16.985 8.736 6.495c1.735 5.11 6.355 8.695 11.669 9.064 5.582.39 10.876-2.85 13.132-8.064-1.908-13.718-.38-12.403-.38-12.403z"/>
                <path fill="#FFE380" fill-rule="nonzero" d="M384.634 350.808a6.348 6.348 0 1 0 10.74-6.766 6.348 6.348 0 0 0-10.74 6.768m34.275 1.776c-.292-.33-.564-.677-.816-1.039a6.346 6.346 0 0 1 2.265-8.926 44.726 44.726 0 0 1-1.45 9.965"/>
                <path fill="#231F20" fill-rule="nonzero" d="M417.166 311.652s1.181.85 1.839 3.974c.657 3.127-1.839-3.974-1.839-3.974"/>
                <path stroke="#231F20" stroke-linecap="round" stroke-linejoin="round" stroke-width="2.4" d="M404.305 327.713a9.842 9.842 0 0 0-4.589-.461 9.938 9.938 0 0 0-5.105 2.333"/>
                <path fill="url(#T)" fill-rule="nonzero" d="M116.178 8.667S103.378 1.099 98.034.18c-5.34-.921-21.867 1.34-28.26 15.135C63.382 29.11 65.859 37.97 52.39 45.778c-13.47 7.807-16.464 23.89-14.104 25.884 2.359 1.997 27.364 10.37 30.156 10.807 2.79.434 9.324-.108 10.104-6.163.777-6.055-3.152-18.564 3.39-21.571 6.543-3.005 12.058-9.987 11.617-18.51 0 0 16.807-2.068 23.652-9.806 6.842-7.735 4.848-14.476-1.025-17.75" transform="translate(297.293 299.784)"/>
                <path stroke="#FFD560" stroke-linecap="round" stroke-linejoin="round" stroke-width="2.4" d="M372.84 382.125c2.598 4.56 7.482 7.332 12.574 7.042 4.832-.278 9.192-3.278 11.39-7.776"/>
                <path fill="#FFC72C" fill-rule="nonzero" d="M417 417.425h-32l2-8h32z"/>
                <g fill-rule="nonzero" transform="rotate(15 -1320.561 1673.097)">
                    <rect width="24" height="28" fill="url(#U)" rx="2"/>
                    <path fill="#FFF" d="M16 0h4v28h-4z"/>
                    <path fill="#2FB7EC" d="M4 0h2v28H4z"/>
                </g>
                <path fill="#FFE557" fill-rule="nonzero" d="M357 417.425h60v40h-60z"/>
                <path fill="url(#V)" fill-rule="nonzero" d="M59.707 117.64h32v40h-32z" transform="translate(297.293 299.784)"/>
                <g transform="matrix(-1 0 0 1 382 430.425)">
                    <use fill="#F8AB60" xlink:href="#W"/>
                    <use fill="#EF8D2E" fill-opacity=".2" xlink:href="#W"/>
                </g>
                <g fill-rule="nonzero">
                    <path fill="#2FB7EC" d="M338.778 453.103l-9.71 4.205 8.42 18.012 8.473-12.365z"/>
                    <path fill="#FFF" d="M367.002 447.559c-4.433-.504-8.868-1.025-13.31-1.426-1.3-.12-2.842-.295-3.906.296-3.741 2.083-7.372 4.384-11.008 6.672a30.895 30.895 0 0 0 7.185 9.854c2.23-1.12 4.584-1.716 7.27-1.574 5.573.292 7.877.11 13.469.11 3.31 0 6.235-1.394 8.781-4.183h-8.472c-3.175 0-4.877-2.892-6.081-3.533l.088-.929c1.896.216 3.788.454 5.684.648.96.103 3.94-.391 5.126-1.377.406-.336.326-.792.36-1.224.125-1.553-4.116-3.214-5.184-3.334h-.002z"/>
                </g>
                <g fill-rule="nonzero">
                    <path fill="#2FB7EC" d="M433.537 453.103l9.71 4.205-8.424 18.012-8.472-12.365z"/>
                    <path fill="#FFF" d="M405.31 447.559c4.436-.504 8.87-1.025 13.313-1.426 1.296-.12 2.842-.295 3.905.296 3.742 2.083 7.37 4.384 11.009 6.672a30.895 30.895 0 0 1-7.186 9.854c-2.23-1.12-4.584-1.716-7.27-1.574-5.572.292-7.879.11-13.468.11-3.31 0-6.235-1.394-8.782-4.183h8.472c3.175 0 4.877-2.892 6.082-3.533l-.089-.929c-1.896.216-3.787.454-5.683.648-.96.103-3.941-.391-5.127-1.377-.405-.336-.326-.792-.36-1.224-.124-1.553 4.116-3.214 5.184-3.334z"/>
                </g>
                <path fill="#FFF" d="M323 344.425l-6-6h6z"/>
                <g transform="translate(297.293 299.784)">
                    <use fill="#FFF" xlink:href="#X"/>
                    <use fill="#FFF" xlink:href="#X"/>
                    <use fill="#AFC7D1" fill-opacity=".4" xlink:href="#X"/>
                </g>
                <path fill="#FFE380" fill-rule="nonzero" d="M357 417.425h32l-2-8h-32z"/>
                <g fill="#F0B616" fill-rule="nonzero">
                    <path d="M378 450.425h8v2h-8zM378 453.425h8v1h-8z"/>
                </g>
                <path fill="#FFC72C" fill-rule="nonzero" d="M357 417.425v8h-6zM417 417.425v8h6z"/>
                <g fill-rule="nonzero">
                    <path fill="#FFE380" d="M339 469.425h28v6h-28z"/>
                    <path fill="#4A90E2" d="M337 469.425h2v6h-2a1 1 0 0 1-1-1v-4a1 1 0 0 1 1-1z"/>
                    <path fill="url(#Y)" d="M3 0h28v3H3z" transform="translate(336 469.425)"/>
                    <path fill="#FFF" d="M367 469.425l6 3-6 3z"/>
                    <path fill="#4A5F6E" d="M370 470.925l3 1.5-3 1.5z"/>
                </g>
                <path fill="#8BDCFB" d="M328.2 440.534c-1.612 3.89-1.634 13.574.867 16.774 1.754-.685 3.88-1.627 6.377-2.824-4.251-4.99-6.666-9.64-7.244-13.95zM450.244 443.425c1.612 3.89 1.634 13.573-.867 16.773-1.754-.685-3.632-1.693-6.13-2.89 4.251-4.99 6.419-9.573 6.997-13.883z"/>
                <path fill="#8BDCFB" fill-rule="nonzero" d="M423.152 409.559l5.196-3a1.5 1.5 0 0 1 1.5 2.598l-5.196 3a1.5 1.5 0 0 1-1.5-2.598zM419.01 403.374l5.656-5.656a1.5 1.5 0 0 1 2.121 2.12l-5.657 5.658a1.5 1.5 0 0 1-2.12-2.122z"/>
                <g fill-rule="nonzero">
                    <use fill="#FFF" xlink:href="#Z"/>
                    <use fill="#CEF2FD" xlink:href="#Z"/>
                </g>
                <g>
                    <path fill="#FFF" fill-rule="nonzero" d="M1299 342.425h54v36h-54z"/>
                    <path fill="#CEF2FD" d="M1315 350.425v10h10c0 5.522-4.477 10-10 10s-10-4.478-10-10c0-5.523 4.477-10 10-10z"/>
                    <path fill="#8BDCFB" d="M1315 350.425c5.523 0 10 4.477 10 10h-10v-10z"/>
                    <g fill="#AFC7D1" fill-opacity=".4" fill-rule="nonzero">
                        <path d="M1330 354.425h16a1 1 0 0 1 0 2h-16a1 1 0 1 1 0-2zM1330 359.425h16a1 1 0 0 1 0 2h-16a1 1 0 1 1 0-2zM1330 364.425h16a1 1 0 0 1 0 2h-16a1 1 0 0 1 0-2z"/>
                    </g>
                </g>
                <path fill="#FFF" fill-rule="nonzero" d="M1299 254.425h54v36h-54z"/>
                <path fill="#E6F7FF" d="M1299 282.492l5.034-3.175H1311l7-4.096 5.667-4.35 29.333-9.446v29h-54z"/>
                <g>
                    <path fill="#FFF" d="M1345 287.425h-14.222l3.252-9.9h7.717z"/>
                    <g fill-rule="nonzero" transform="translate(1329.889 251.425)">
                        <path fill="#E14D4C" d="M12.444 17.1L16 21.679V26.1l-3.556-2.7v-6.3zm-8.888 0L0 21.679V26.1l3.556-2.7v-6.3z"/>
                        <path fill="#EEF2F5" d="M13.33 8.1c1.153 2.914.908 8.374-.736 16.381a.9.9 0 0 1-.881.719H4.287a.9.9 0 0 1-.881-.719c-1.644-8.007-1.89-13.467-.74-16.381H13.33z"/>
                        <path fill="#E14D4C" d="M4.444 25.2l-.888 2.7h8.888l-.888-2.7z"/>
                        <ellipse cx="8" cy="12.6" fill="#8BDCFB" stroke="#2FB7EC" stroke-width=".9" rx="2.217" ry="2.25"/>
                        <path fill="#E14D4C" d="M8 0C6.225 0 3.556 6.299 2.667 8.1h10.666C12.444 6.299 9.778 0 8 0z"/>
                    </g>
                    <path fill="#8BDCFB" fill-rule="nonzero" d="M1353 287.725v2.7h-31.762a1.809 1.809 0 0 1-.238-.9c0-.994.796-1.8 1.778-1.8.324 0 .627.087.889.24.005-2.978 2.39-5.39 5.333-5.39 2.2 0 4.088 1.348 4.904 3.273a14.065 14.065 0 0 1 3.985-.573c1.383 0 2.72.2 3.985.573.816-1.925 2.704-3.273 4.904-3.273 2.942 0 5.328 2.412 5.333 5.39.262-.153.565-.24.889-.24z"/>
                </g>
                <circle cx="1304" cy="279.425" r="1" fill="#8BDCFB"/>
                <circle cx="1311" cy="279.425" r="1" fill="#8BDCFB"/>
                <circle cx="1318" cy="275.425" r="1" fill="#8BDCFB"/>
                <circle cx="1324" cy="271.425" r="1" fill="#8BDCFB"/>
                <g>
                    <path fill="#FFF" fill-rule="nonzero" d="M1299 298.425h54v36h-54z"/>
                    <path fill="#E6F7FF" d="M1300.202 334.425c14.189-.876 25.7-3.86 32.702-12.748 7.002-8.887 15.313-7.253 20.096-7.253v20h-52.798z"/>
                    <path fill="#8BDCFB" fill-rule="nonzero" d="M1299 334.412c.658 0 2.509.002 3.67.007 6.873.033 9.793-.076 13.368-.7 4.752-.828 8.707-2.52 12.184-5.414.485-.404.946-.82 1.39-1.253a27.285 27.285 0 0 0 2.272-2.537c.292-.365.58-.737.939-1.213.053-.07.689-.915.872-1.155 3.879-5.094 8.675-6.724 19.305-6.724v-1.998c-11.602 0-17.25 2.028-21.585 7.722l-.876 1.16c-.35.463-.627.822-.907 1.172a25.251 25.251 0 0 1-2.102 2.347c-.4.392-.817.768-1.254 1.133-5.586 4.648-10.604 5.523-23.589 5.462a991.273 991.273 0 0 0-3.687-.008v2z"/>
                </g>
                <g>
                    <path fill="#4A90E2" fill-rule="nonzero" d="M1232.737 475.736c-11.272-6.878-23.237-14.671-23.237-26.154 0-10.53 13.546-6.189 23.237-13 9.37-6.586 14.645-24.5 28.763-24.5 28.719 0 52 16.79 52 37.5 0 6.688-3.29 31.14-12.832 33.5-9.543 2.36-15.493 5.927-26.654 11.733-11.162 5.805-23.101 14.377-28.043 20.582-6.956 8.733-7.921 34.082-10.77 48.718-6.148 3.81-12.344 4.3-18.589 1.467-4.49-31.077-5.027-51.791-1.611-62.141 3.006-9.108 11.003-17.158 16.698-22.886 1.092-1.098 2.08-2.292 3.047-3.504-1.235-.782-1.962-1.286-2.01-1.315z"/>
                    <path fill="#3FAA7D" fill-rule="nonzero" d="M1216.43 564.915c-1.866 7.656-10.416 20.992-9.433 25.622.982 4.63 2.364 4.658 6.281 4.253 9.43-.975 12.2-14.303 19.207-18.153 2.21-1.214 4.682-3.65 5.355-6.814.355-1.663-.39-7.318-1.94-8.014-2.277-1.021-5.15 2.013-7.622 2.363-3.264.463-6.583.387-9.875.58l-1.973.163z"/>
                    <path fill="url(#aa)" fill-rule="nonzero" d="M133.19 297.33c-1.078 2.85-6.805 5.433-11.127 3.515-1.964-.87-6.558-3.253-7.3-5.69 4.53-1.67 12.327-3.594 15.062.387l3.365 1.787z" transform="matrix(-1 0 0 1 1349.952 268.425)"/>
                    <path fill="#3FAA7D" fill-rule="nonzero" d="M1182.26 533.667c1.11 2.367-1.988 4.493-2.014 9.548-.06 11.224-.855 22.167-9.982 24.374-1.387.336-3.071-1.557-3.756-2.776-6.608-11.761-.839-17.102-4.08-29.23a80.022 80.022 0 0 0 2.528-1.78c4.661-3.464 8.464-5.37 11.41-5.715 1.431-.168 4.785 3.213 5.894 5.58z"/>
                    <path fill="url(#ab)" fill-rule="nonzero" d="M59.951 266.556c.374 1.17 2.192 3.876 4.024 6.129 1.803.381 4.089 1.135 5.874-.55 1.046-1.771 2.391-4.096 3.264-5.83-7.883 1.233-13.162.251-13.162.251z" transform="matrix(-1 0 0 1 1235.064 268.425)"/>
                    <path fill="url(#ac)" fill-rule="nonzero" d="M140.5 71.977C112.653 83.473 95.017 87.833 92 118.123c9.182 7.125 17.348 9.647 24.5 7.568v38.467c-13.333-7.58-20-8.58-20-3 0 8.369.523 7 0 15s19.648 20.525 61.365 12c15.328-3.133 33.685-1.502 33.304-17-5.56-18 5.331-45.467 5.331-49.791a81.067 81.067 0 0 0 20-9.21c-4.04-12.723-8.164-20.817-12.374-24.282-6.339-5.218-12.511-9.124-18.517-11.717-6.39-2.76-21.427-4.154-45.109-4.18z" transform="matrix(-1 0 0 1 1410.5 268.425)"/>
                    <path fill="url(#ad)" fill-rule="nonzero" d="M186.25 125.158c2.767-.667 4.683-1 5.75-1 0 1.746-1.033 8-2.142 13-.739 3.333-1.941 5.878-3.608 7.636v-19.636z" transform="matrix(-1 0 0 1 1480.25 268.425)"/>
                    <g fill="#FFF" transform="matrix(-1 0 0 1 1279.106 268.425)">
                        <use xlink:href="#ae"/>
                        <use xlink:href="#ae"/>
                    </g>
                    <g fill-rule="nonzero">
                        <path fill="#8BDCFB" d="M1278 445.082l-90.25-19-46.842 30.039 97.85 19.961z"/>
                        <path fill="#2FB7EC" d="M1237.229 445.129l-2.114 1.67a.5.5 0 0 0 .207.881l2.986.629a2 2 0 0 0 1.652-.388l2.114-1.67a.5.5 0 0 0-.207-.881l-2.986-.629a2 2 0 0 0-1.652.388zm-2.388-1.238l-56.36-11.865-37.573 24.095 77.609 15.832 15.797-12.48a.5.5 0 0 0-.207-.881l-3.048-.642a2 2 0 0 0-1.652.388l-15.89 12.553-2-.5 16.546-13.071-4.947-1.042-16.6 13.113-2-.5 16.52-13.05-55.296-11.642 1.742-1.117 55.037 11.587 2.52-1.99a.5.5 0 0 0-.207-.882L1169.74 440.2l1.742-1.117 55.877 11.764 2.52-1.99a.5.5 0 0 0-.207-.882l-46.432-9.775 1.742-1.117 46.3 9.748a2 2 0 0 0 1.652-.388l2.113-1.67a.5.5 0 0 0-.206-.881zm-9.198 11.436l2.986.628a2 2 0 0 0 1.652-.387l1.784-1.41a.5.5 0 0 0-.207-.882l-2.986-.628a2 2 0 0 0-1.652.387l-1.784 1.41a.5.5 0 0 0 .207.882zm4.84-3.824l2.986.63a2 2 0 0 0 1.652-.389l1.784-1.41a.5.5 0 0 0-.207-.88l-2.986-.63a2 2 0 0 0-1.652.388l-1.784 1.41a.5.5 0 0 0 .207.881zm14.324-5.33l-2.665 2.105a.5.5 0 0 0 .207.881l3.048.642a2 2 0 0 0 1.652-.388l2.113-1.67a.5.5 0 0 0-.207-.88l-3.736-.787a.5.5 0 0 0-.412.097zm-5.72 4.518l-1.785 1.41a.5.5 0 0 0 .207.882l3.048.641a2 2 0 0 0 1.652-.387l1.784-1.41a.5.5 0 0 0-.206-.881l-3.049-.642a2 2 0 0 0-1.652.387zm-4.84 3.824l-1.785 1.41a.5.5 0 0 0 .207.88l3.049.643a2 2 0 0 0 1.651-.388l1.785-1.41a.5.5 0 0 0-.207-.881l-3.049-.642a2 2 0 0 0-1.651.388z"/>
                        <path fill="#8BDCFB" d="M1194.017 470.89l31.483-24.87-2.079-.438-31.404 24.809z"/>
                        <path fill="url(#af)" d="M78.5 22l98-20L138 63.087l-98 20z" transform="matrix(-1 0 0 1 1279 393.082)"/>
                        <path fill="#0098D3" d="M1238.758 476.108l-94.892-19.358c-1.707-.474-2.663-.646-2.866-.515v.78a2 2 0 0 0 1.6 1.959l94.337 19.263a4 4 0 0 0 3.28-.78L1278 447.607c.69-.684.69-1.517 0-2.5l-39.242 31z"/>
                        <path fill="#FFF" d="M1106.242 395.846l94.258 19.236 36.758 58.323 1.654 2.61 2.2-1.768-37.701-59.722a4 4 0 0 0-2.583-1.784l-96.328-19.659c-.758.011-1.313.19-1.665.539-.352.348-.464.827-.335 1.437l3.742.788z"/>
                    </g>
                    <path fill="url(#ag)" fill-rule="nonzero" d="M146.749 181.204c5.226-.687 8.775-1.867 10.281-1.867 3.276.772 7.077 2.903 17.56 1.064 1.272-.528 1.362-3.53 0-3.737-9.365-1.425-18.959-.684-28.419-.183-1.805.096-4.555-1.789-4.814 0 1.19 1.72 4.301 3.853 5.392 4.723z" transform="matrix(-1 0 0 1 1418.935 268.425)"/>
                    <g fill="#FFF" transform="matrix(-1 0 0 1 1473.508 268.425)">
                        <use xlink:href="#ah"/>
                        <use xlink:href="#ah"/>
                    </g>
                    <g transform="matrix(-1 0 0 1 1403.747 268.425)">
                        <use fill="#FFF" xlink:href="#ai"/>
                        <use fill="#FFF" xlink:href="#ai"/>
                        <use fill="#E6F7FF" xlink:href="#ai"/>
                    </g>
                    <g fill="#FFF" transform="matrix(-1 0 0 1 1379 268.425)">
                        <use xlink:href="#aj"/>
                        <use xlink:href="#aj"/>
                    </g>
                    <g transform="translate(1102 268.425)">
                        <use fill="#FFF" xlink:href="#ak"/>
                        <use fill="#FFF" xlink:href="#ak"/>
                        <use fill="#AFC7D1" fill-opacity=".4" xlink:href="#ak"/>
                    </g>
                    <path fill="#1D4BEA" fill-rule="nonzero" d="M1267.961 309.378c-7.647 8.923 1.534 20.049-10.461 22.069v-19.018l10.461-3.05z"/>
                    <g transform="matrix(-1 0 0 1 1418 268.425)">
                        <use fill="#FFF" xlink:href="#al"/>
                        <use fill="#FFF" xlink:href="#al"/>
                        <use fill="#AFC7D1" fill-opacity=".4" xlink:href="#al"/>
                    </g>
                    <path fill="url(#am)" fill-rule="nonzero" d="M169.913 22.16c.165.21.325.436.48.678 3.454 5.402 1.682 10.509-5.316 15.32 0-4.476-.603-8.476-5.054-7.113-3.573 1.668-7.81 2.777-12.398 3.118-1.554 4.791-6.907 6.79-12.268 4.791-5.36-1.999-3.264 3.995-4.28 7.698-9.205-.26-19.183-9.866-16-20.994 1.44-5.03 3.651-5.61 7.612-10 2.75-12.904 10.459-16.5 20.086-15.5 14.52 1.508 28.302 7.61 28.302 17 0 1.736-.407 3.417-1.164 5.002z" transform="matrix(-1 0 0 1 1388.577 268.425)"/>
                    <path fill="#152934" fill-opacity=".5" fill-rule="nonzero" d="M1228.159 299.343c-4.103-2.381-5.52-3.445-5.532-2.808-.013.66 1.214 3.195 2.303 3.463.486-.41.995-.664 1.527-.761.274-.05.841-.015 1.702.106zM1240.976 302.521c-1.241-4.569-4.995-3.394-5.008-2.757-.013.659.604 2.139 1.692 2.407.78.119 1.359.198 1.735.238.36.038.888.076 1.58.112z"/>
                    <g transform="matrix(-1 0 0 1 1432.286 268.425)">
                        <use fill="#FFF" xlink:href="#an"/>
                        <use fill="#1D4BEA" xlink:href="#an"/>
                    </g>
                    <g transform="rotate(135 661.736 380.273)">
                        <use fill="#FFF" xlink:href="#ao"/>
                        <use fill="#1D4BEA" xlink:href="#ao"/>
                    </g>
                    <path fill="#152934" fill-opacity=".5" fill-rule="nonzero" d="M1256.486 307.643c.948.053 3.768-.701 5.55-1.077s3.029-.376 2.528.64c-1.953 3.952-6.055 4.933-7.364 4.933-.204-1.557.011-2.294-.273-3.293-.189-.666-.336-1.067-.441-1.203z"/>
                    <g fill="#FFF" transform="matrix(-1 0 0 1 1396.006 268.425)">
                        <use xlink:href="#ap"/>
                        <use xlink:href="#ap"/>
                    </g>
                    <g transform="matrix(-1 0 0 1 1138.536 268.425)">
                        <use fill="#FFF" xlink:href="#aq"/>
                        <use fill="#FFF" xlink:href="#aq"/>
                        <use fill="#E6F7FF" fill-opacity=".5" xlink:href="#aq"/>
                    </g>
                    <path fill="#4A90E2" fill-rule="nonzero" d="M1229.808 476.645c-7.971 3.829-13.621 5.255-26.092 6.577-10.34 1.096-16.401 2.99-18.605 5.866-5.698 5.935-5.698 41.191-10.07 46.075-3.635 2.482-8.935 2.482-13.446 0-5.4-26.05-8.929-39.302-8.929-51.941 0-12.64 3.142-17.959 11.525-21.085.475-.177 22.347 4.659 65.617 14.508z"/>
                    <path fill="url(#ar)" fill-rule="nonzero" d="M127.77 195.628c-13.118 4.608-25.04 19.355-26.18 19.578-5.459-.793-14.27-1.357-21.344-3.623-2.637-.845-7.688-2.776-8.426-3.424 10.66-3.022 55.95-12.531 55.95-12.531z" transform="matrix(-1 0 0 1 1301.59 268.425)"/>
                    <path fill="#F0B616" fill-rule="nonzero" d="M1243.5 394.459c-6.444 0-12.612.668-21.521-3.377 1.237 7.89 2.384 13.283 3.44 16.176 3.06 1.673 8.814 4.614 16.029 3.324.714-4 1.398-9.374 2.052-16.123z"/>
                    <g transform="matrix(-1 0 0 1 1303.883 268.425)">
                        <use fill="#FFF" xlink:href="#as"/>
                        <use fill="#FFF" xlink:href="#as"/>
                        <use fill="#AFC7D1" fill-opacity=".4" xlink:href="#as"/>
                    </g>
                    <g transform="translate(1102 268.425)">
                        <use fill="#FFF" xlink:href="#at"/>
                        <use fill="#FFF" xlink:href="#at"/>
                        <use fill="#AFC7D1" fill-opacity=".4" xlink:href="#at"/>
                    </g>
                </g>
                <path fill="#8BDCFB" fill-opacity=".8" d="M1293 234.425h66a4 4 0 0 1 4 4v6h-74v-6a4 4 0 0 1 4-4z"/>
                <circle cx="1305" cy="239.425" r="2" fill="#2FB7EC"/>
                <circle cx="1297" cy="239.425" r="2" fill="#2FB7EC"/>
                <circle cx="1300" cy="239.425" r="2" fill="#2FB7EC"/>
            </g>
        </g>
    </g>
</svg>
