<svg width="30" height="40" viewBox="0 0 30 40" fill="none" xmlns="http://www.w3.org/2000/svg">
<path d="M14.6666 22.6665C19.0849 22.6665 22.6666 19.0848 22.6666 14.6665C22.6666 10.2482 19.0849 6.6665 14.6666 6.6665C10.2483 6.6665 6.66663 10.2482 6.66663 14.6665C6.66663 19.0848 10.2483 22.6665 14.6666 22.6665Z" fill="#FFE380"/>
<path d="M8 32H21.3333V27.7573L22 27.372C24.2307 26.085 26.083 24.2331 27.3704 22.0027C28.6577 19.7722 29.3348 17.242 29.3333 14.6667C29.3333 6.56667 22.7667 0 14.6667 0C6.56667 0 0 6.56667 0 14.6667C0 19.964 2.83067 24.7667 7.33333 27.372L8 27.7573V32Z" fill="#D0DBFF"/>
<path d="M21.3333 32H8V33.3333C8 35.1014 8.70238 36.7971 9.95262 38.0474C11.2029 39.2976 12.8986 40 14.6667 40C16.4348 40 18.1305 39.2976 19.3807 38.0474C20.631 36.7971 21.3333 35.1014 21.3333 33.3333V32Z" fill="#7996F9"/>
<path d="M14.6666 22.6665C19.0849 22.6665 22.6666 19.0848 22.6666 14.6665C22.6666 10.2482 19.0849 6.6665 14.6666 6.6665C10.2483 6.6665 6.66663 10.2482 6.66663 14.6665C6.66663 19.0848 10.2483 22.6665 14.6666 22.6665Z" fill="#67D3A6"/>
<path d="M14.6666 6.6665C15.7172 6.6665 16.7575 6.87343 17.7281 7.27547C18.6987 7.67751 19.5806 8.26678 20.3235 9.00965C21.0663 9.75252 21.6556 10.6344 22.0577 11.605C22.4597 12.5756 22.6666 13.6159 22.6666 14.6665C22.6666 15.7171 22.4597 16.7574 22.0577 17.728C21.6556 18.6986 21.0663 19.5805 20.3235 20.3234C19.5806 21.0662 18.6987 21.6555 17.7281 22.0575C16.7575 22.4596 15.7172 22.6665 14.6666 22.6665V6.6665Z" fill="#2EAA77"/>
<path d="M18.6666 18.6665V26.6665C18.6666 27.0201 18.5262 27.3593 18.2761 27.6093C18.0261 27.8594 17.6869 27.9998 17.3333 27.9998C16.9797 27.9998 16.6405 27.8594 16.3905 27.6093C16.1404 27.3593 16 27.0201 16 26.6665V22.4398C15.1373 22.7465 14.196 22.7465 13.3333 22.4398V31.9998H10.6666V18.6665C10.6666 17.6056 11.0881 16.5882 11.8382 15.8381C12.5883 15.0879 13.6058 14.6665 14.6666 14.6665C15.7275 14.6665 16.7449 15.0879 17.4951 15.8381C18.2452 16.5882 18.6666 17.6056 18.6666 18.6665ZM14.6666 19.9998C15.0202 19.9998 15.3594 19.8594 15.6094 19.6093C15.8595 19.3593 16 19.0201 16 18.6665C16 18.3129 15.8595 17.9737 15.6094 17.7237C15.3594 17.4736 15.0202 17.3332 14.6666 17.3332C14.313 17.3332 13.9739 17.4736 13.7238 17.7237C13.4738 17.9737 13.3333 18.3129 13.3333 18.6665C13.3333 19.0201 13.4738 19.3593 13.7238 19.6093C13.9739 19.8594 14.313 19.9998 14.6666 19.9998Z" fill="#305BEF"/>
<path d="M14.6667 20.0002C14.3131 20.0002 13.9739 19.8597 13.7239 19.6096C13.4738 19.3596 13.3334 19.0205 13.3334 18.6668C13.3334 18.3132 13.4738 17.9741 13.7239 17.724C13.9739 17.474 14.3131 17.3335 14.6667 17.3335C15.0203 17.3335 15.3595 17.474 15.6095 17.724C15.8596 17.9741 16 18.3132 16 18.6668C16 19.0205 15.8596 19.3596 15.6095 19.6096C15.3595 19.8597 15.0203 20.0002 14.6667 20.0002Z" fill="white"/>
</svg>
