<svg xmlns="http://www.w3.org/2000/svg" width="40" height="40" fill="none" viewBox="0 0 40 40">
    <path fill="#fff" d="M20 40c11.046 0 20-8.954 20-20S31.046 0 20 0 0 8.954 0 20s8.954 20 20 20z"/>
    <path fill="#FFE380" fill-opacity=".4" d="M20 40c11.046 0 20-8.954 20-20S31.046 0 20 0 0 8.954 0 20s8.954 20 20 20z"/>
    <path fill="#FFE380" d="M20 23c3.314 0 6-2.686 6-6s-2.686-6-6-6-6 2.686-6 6 2.686 6 6 6z"/>
    <mask id="prefix__a" width="32" height="32" x="4" y="5" maskUnits="userSpaceOnUse">
        <path fill="#fff" d="M4 5h32v32H4V5z"/>
    </mask>
    <g mask="url(#prefix__a)">
        <path fill="#fff" d="M15 30h10v-3.182l.5-.289c1.673-.965 3.062-2.354 4.028-4.027C30.493 20.829 31 18.932 31 17c0-6.075-4.925-11-11-11S9 10.925 9 17c0 3.973 2.123 7.575 5.5 9.529l.5.289V30z"/>
    </g>
    <path fill="url(#prefix__paint0_linear)" d="M25 30H15v1c0 1.326.527 2.598 1.465 3.535C17.402 35.474 18.674 36 20 36s2.598-.527 3.535-1.465C24.473 33.599 25 32.326 25 31v-1z"/>
    <path fill="#FFE380" d="M20 23c3.314 0 6-2.686 6-6s-2.686-6-6-6-6 2.686-6 6 2.686 6 6 6z"/>
    <path fill="#FFD560" d="M20 11c.788 0 1.568.155 2.296.457.728.301 1.39.743 1.947 1.3.557.558.999 1.219 1.3 1.947.302.728.457 1.508.457 2.296 0 .788-.155 1.568-.457 2.296-.301.728-.743 1.39-1.3 1.947-.557.557-1.219.999-1.947 1.3-.728.302-1.508.457-2.296.457V11z"/>
    <path fill="url(#prefix__paint1_linear)" d="M23 20v6c0 .265-.105.52-.293.707-.187.188-.442.293-.707.293-.265 0-.52-.105-.707-.293C21.105 26.52 21 26.265 21 26v-3.17c-.647.23-1.353.23-2 0V30h-2V20c0-.796.316-1.559.879-2.121C18.44 17.316 19.204 17 20 17s1.559.316 2.121.879c.563.562.879 1.325.879 2.121zm-3 1c.265 0 .52-.105.707-.293.188-.187.293-.442.293-.707 0-.265-.105-.52-.293-.707C20.52 19.105 20.265 19 20 19c-.265 0-.52.105-.707.293-.188.187-.293.442-.293.707 0 .265.105.52.293.707.187.188.442.293.707.293z"/>
    <path fill="#fff" d="M20 21c-.265 0-.52-.105-.707-.293C19.105 20.52 19 20.265 19 20c0-.265.105-.52.293-.707.187-.188.442-.293.707-.293.265 0 .52.105.707.293.188.187.293.442.293.707 0 .265-.105.52-.293.707-.187.188-.442.293-.707.293z"/>
    <defs>
        <linearGradient id="prefix__paint0_linear" x1="15" x2="23.306" y1="31.92" y2="36.904" gradientUnits="userSpaceOnUse">
            <stop stop-color="#2F88EC"/>
            <stop offset="1" stop-color="#326BEE"/>
        </linearGradient>
        <linearGradient id="prefix__paint1_linear" x1="19.361" x2="24.532" y1="17" y2="28.203" gradientUnits="userSpaceOnUse">
            <stop stop-color="#2F88EC"/>
            <stop offset="1" stop-color="#1D4BEA"/>
        </linearGradient>
    </defs>
</svg>
