<svg width="12" height="16" viewBox="0 0 12 16" fill="none" xmlns="http://www.w3.org/2000/svg">
<path d="M0 5.83679C0 2.61325 2.68629 6.10352e-05 6 6.10352e-05C9.31371 6.10352e-05 12 2.61325 12 5.83679C12 7.10742 11.5826 8.28323 10.874 9.24154L6.96794 15.4783C6.53226 16.174 5.46774 16.174 5.03206 15.4783L1.12605 9.24154C0.417381 8.28323 0 7.10742 0 5.83679Z" fill="#152934"/>
<path d="M6 7.00006C6.82843 7.00006 7.5 6.32849 7.5 5.50006C7.5 4.67163 6.82843 4.00006 6 4.00006C5.17157 4.00006 4.5 4.67163 4.5 5.50006C4.5 6.32849 5.17157 7.00006 6 7.00006Z" fill="white"/>
</svg>
