<svg xmlns="http://www.w3.org/2000/svg" width="77" height="30" viewBox="0 0 77 30">
    <defs>
        <linearGradient id="a" x1="50%" x2="50%" y1="0%" y2="100%">
            <stop offset="0%" stop-color="#D5DFE6"/>
            <stop offset="100%" stop-color="#EEF2F5"/>
        </linearGradient>
        <linearGradient id="b" x1="50%" x2="50%" y1="0%" y2="100%">
            <stop offset="0%" stop-color="#EEF2F5"/>
            <stop offset="100%" stop-color="#D5DFE6"/>
        </linearGradient>
        <linearGradient id="c" x1="50%" x2="50%" y1="0%" y2="100%">
            <stop offset="0%" stop-color="#F2F5F7"/>
            <stop offset="100%" stop-color="#E1E7EB"/>
        </linearGradient>
        <linearGradient id="d" x1="50%" x2="50%" y1="0%" y2="100%">
            <stop offset="0%" stop-color="#ECF1F4"/>
            <stop offset="100%" stop-color="#D5DFE6"/>
        </linearGradient>
    </defs>
    <g fill="none" fill-rule="evenodd">
        <path fill="url(#a)" d="M10.5 9L21 30H0z"/>
        <circle cx="66.5" cy="19.5" r="10.5" fill="url(#b)"/>
        <g transform="translate(26.5)">
            <path fill="url(#c)" d="M12 0a8 8 0 0 1 7.996 7.75L20 8v8H4V8l.004-.25A8 8 0 0 1 12 0zm0 2a6.013 6.013 0 0 0-6 5.684V14h12V7.684A6.013 6.013 0 0 0 12 2z"/>
            <rect width="24" height="18" y="12" fill="url(#d)" rx="4"/>
            <path fill="#FFF" d="M12 17.5a2 2 0 0 1 .751 3.854l-.001 2.396a.75.75 0 1 1-1.5 0v-2.395A2 2 0 0 1 12 17.5z"/>
        </g>
    </g>
</svg>
