<svg xmlns="http://www.w3.org/2000/svg" width="100" height="80" fill="none" viewBox="0 0 100 80">
    <g style="mix-blend-mode:darken">
        <path fill="#D8D8D8" fill-opacity=".01" d="M0 0h96c2.21 0 4 1.79 4 4v72c0 2.21-1.79 4-4 4H0V0z"/>
        <mask id="prefix__a" width="100" height="80" x="0" y="0" maskUnits="userSpaceOnUse">
            <path fill="#fff" d="M0 0h96c2.21 0 4 1.79 4 4v72c0 2.21-1.79 4-4 4H0V0z"/>
        </mask>
        <g mask="url(#prefix__a)">
            <path fill="#E7EEFD" fill-rule="evenodd" d="M64.511 39.607c-.898.508 2.856 1.423 5.448 1.352 3.849-.107 6.38-2.328 7.044-2.951.327-.283.834-.799 1.2-1.587.241-.52.347-.998.395-1.351-.338-.822-.336-1.465-.336-1.465s-.174-5.087 0-5.236c0 0-11.609-1.029-11.27 4.216 0 0 .62 5.269-2.48 7.022z" clip-rule="evenodd"/>
            <path fill="#F7A79A" fill-rule="evenodd" d="M64.978 38.608l-.228.16.228-.16z" clip-rule="evenodd"/>
            <path fill="#8CACF6" fill-rule="evenodd" d="M66.986 32.423s5.31 3.378 11.136-.852l.073-3.202s-12.227-1.7-11.21 4.054z" clip-rule="evenodd"/>
            <path fill="#E7EEFD" fill-rule="evenodd" d="M62.186 15.405s-2.54 14.645 2.37 16.592c4.91 1.947 12.529-1.101 16.508-6.773 3.979-5.672-1.27-10.667-4.148-3.64V11.34l-14.73 4.064z" clip-rule="evenodd"/>
            <path fill="#1A4379" fill-rule="evenodd" d="M64.59 21.115c.005.593-.298 1.077-.677 1.08-.378.003-.689-.475-.694-1.068-.005-.593.298-1.076.676-1.08.378-.002.69.475.695 1.068zM71.46 21.115c.006.593-.297 1.077-.675 1.08-.379.003-.69-.475-.695-1.068-.005-.593.297-1.076.676-1.08.378-.002.69.475.695 1.068z" clip-rule="evenodd"/>
            <path stroke="#1A4379" stroke-linecap="round" stroke-linejoin="round" stroke-width=".643" d="M69.883 26.759s-.483 1.346-2.22 1.388M66.925 22.18s-.49 2.245-.202 2.492c.289.247.941 0 .941 0"/>
            <path fill="#1A4379" fill-rule="evenodd" d="M69.274 18.409h4.445s-2.691-1.812-4.445 0zM62.251 18.409h3.257s-1.971-1.812-3.257 0z" clip-rule="evenodd"/>
            <path fill="#1A4379" fill-rule="evenodd" d="M82.377 20.83s-1.553-6.25-5.748 1.07v-3.927s-2.35-7.142-7.72-1.786c-5.37 5.357-6.664-.513-6.892-.655l-.527 3.945c-2.895-1.09-6.092-4.619-5.577-7.575.582-3.343 3.855-5.74 7.29-4.999 0 0 5.706-7.498 10.405 1.607 0 0 12.168-3.392 8.77 12.32z" clip-rule="evenodd"/>
            <path fill="#376EEE" fill-rule="evenodd" d="M55.406 67.129l.267-10.055c.141-2.258 1-6.364 3.373-10.885 4.52-8.612 10.357-10.116 16.83-12.08l2.414-.003s10.442-.39 17.473 53.468c.4 4.33.329 8.044-.488 10.469 0 0-2.383 6.638-18.659 6.488-5.725-.053-9.498-.193-12.078-.467-4.756-.505-5.46-1.465-6.869-3.171l-2.263-33.764z" clip-rule="evenodd"/>
            <path fill="#2560EA" d="M75.877 79.494c2.722.506 6.621.506 8.336 0 .119-7.697-1.598-17.489-8.378-27.324 0 0 2.764 21.087.042 27.324z"/>
            <path fill="#376EEE" d="M63.26 41C56.774 52.734 49.02 58.707 46.225 58.707c-2.795 0-7.933-3.69-7.933-3.69l-3.478 4.768s1.332 2.415 5.888 5.694c4.555 3.28 11.072 5.5 19.221 1.522C68.07 63.023 69.183 54.356 63.261 41z"/>
        </g>
        <path fill="#FFC72C" d="M17 41.77c0-.425.345-.77.77-.77h16.94c.425 0 .77.345.77.77V56.4H17V41.77z"/>
        <path fill="#FFE380" d="M17 41.77c0-.425.345-.77.77-.77h11.55v15.4H17V41.77z"/>
        <path fill="#1A4379" d="M23.93 53.705H27.009999999999998V55.245H23.93zM20.078 41h4.62v3.85l-.764-.385-.776.385-.77-.385-.77.385-.77-.385-.77.385V41zM33.939 41v3.85l-.77-.385-.385.385-.385-.385-.77.385V41h2.31z"/>
        <path fill="#E7EEFD" fill-rule="evenodd" d="M38.293 55.017s1.378-2.754-.138-4.969c-.896-1.308-1.473-2.414-1.796-3.1-.172-.367-.644-.487-.914-.185-.632.706-1.442 1.98-.63 3.285.667 1.073-.483 3.888.456 6.996.178.32.912.871.912.871l2.11-2.898z" clip-rule="evenodd"/>
        <path fill="#E7EEFD" fill-rule="evenodd" d="M36.18 57.915l-1.192 1.58s-.405-.487-1.05-.675c-.065.004-1.908-.61-2.677-.575-3.467.158-7.373-1.845-8.872-1.845-.956 0 .18-1.155 1.258-.97 1.078.186 4.237.894 4.611.894 1.825 0 6.835.076 6.835.076l1.087 1.515z" clip-rule="evenodd"/>
        <path fill="#8CACF6" fill-rule="evenodd" d="M35.095 56.4s-.492.396-.688.6c-.196.203-.527-.123-2.2-.4-.338-.056-2.887-.2-2.887-.2h5.775z" clip-rule="evenodd"/>
    </g>
</svg>
