<svg width="175" height="212" viewBox="0 0 175 212" fill="none" xmlns="http://www.w3.org/2000/svg">
<path fill-rule="evenodd" clip-rule="evenodd" d="M31.8013 190.075V107.65C28.2316 115.441 5.5301 130.637 0.276245 172.997C0.276245 175.492 0.744824 179.855 3.19943 182.258C5.65404 184.661 18.7716 189.212 22.644 188.564L31.8013 190.075Z" fill="#022786"/>
<mask id="mask0_584_71634" style="mask-type:alpha" maskUnits="userSpaceOnUse" x="22" y="0" width="131" height="131">
<rect x="22.6064" y="0.925781" width="130.041" height="130.041" rx="4" fill="#C4C4C4"/>
</mask>
<g mask="url(#mask0_584_71634)">
<path d="M101.875 67.2891H77.4189V92.8394H101.875V67.2891Z" fill="#D58F66"/>
<path d="M101.875 66.9219V70.6682C99.1178 75.2461 94.68 78.1609 89.7608 78.1609C84.7102 78.1609 80.1586 75.0885 77.4189 70.2656V67.7534C80.64 70.4056 84.754 71.9637 89.1743 71.9637C94.041 71.9637 98.5314 70.073 101.875 66.9219Z" fill="#9C614E"/>
<path d="M110.139 32.9004V34.5197C110.139 40.0867 109.666 45.6537 108.738 51.1506L107.46 58.6608C106.988 61.4443 105.902 63.9914 104.37 66.1797V66.1885C103.635 67.2388 102.804 68.2017 101.876 69.0507C98.5322 72.2019 94.0418 74.0925 89.1751 74.0925C84.7548 74.0925 80.6408 72.5345 77.4197 69.8823C76.7982 69.3834 76.2117 68.8407 75.6603 68.2542C73.3932 65.8384 71.7477 62.801 71.0299 59.3698L69.7519 53.3302C68.3339 46.6078 67.6249 39.7628 67.6249 32.9004H110.139V32.9004Z" fill="#D58F66"/>
<path d="M70.5889 57.3837C70.5889 57.3837 65.2847 50.1105 64.4312 40.1118L62.0839 43.084C62.0839 43.084 62.7241 37.1244 66.3364 36.0575C66.3364 36.0575 61.4438 22.6446 77.1886 16.0449L74.4298 19.6572C74.4298 19.6572 104.868 5.60426 114.882 40.3099L111.483 38.3895C111.483 38.3895 109.9 53.2129 107.766 55.5449L107.215 39.8679C107.215 39.8679 88.056 24.5346 70.5889 40.0813V57.3837Z" fill="#152934"/>
<path d="M73.3503 49.5714C73.3503 49.5714 64.8335 42.919 64.8422 50.3329C64.8422 51.996 65.3237 53.6328 66.1727 55.0246C69.4464 60.3377 74.0243 56.889 74.0243 56.889L73.3503 49.5714Z" fill="#D58F66"/>
<path d="M104.763 49.5714C104.763 49.5714 113.28 42.919 113.271 50.3329C113.271 51.996 112.79 53.6328 111.941 55.0246C108.667 60.3377 104.089 56.889 104.089 56.889L104.763 49.5714Z" fill="#D58F66"/>
<path d="M67.2239 50.0764C67.2239 50.0764 70.1098 50.4185 69.444 53.1553" stroke="#9C614E" stroke-width="0.75" stroke-miterlimit="10" stroke-linecap="round"/>
<path d="M110.847 50.0355C110.847 50.0355 107.744 50.4033 108.46 53.3461" stroke="#9C614E" stroke-width="0.75" stroke-miterlimit="10" stroke-linecap="round"/>
<path d="M89.8242 55.2402C89.8242 55.2402 87.8836 57.147 86.5461 55.798C85.9301 55.3829 86.5183 53.2503 87.117 50.967" stroke="#152934" stroke-miterlimit="10" stroke-linecap="round"/>
<path d="M85.3583 62.9199C86.1481 64.061 88.6146 65.6585 92.1628 62.9199" stroke="#152934" stroke-linecap="round"/>
<path fill-rule="evenodd" clip-rule="evenodd" d="M83.2602 41.246L73.4578 42.7093C73.4578 42.7093 78.7539 37.3857 83.2602 41.246Z" fill="#152934"/>
<path fill-rule="evenodd" clip-rule="evenodd" d="M93.0869 42.0164L103.2 42.0827C103.2 42.0827 97.0588 38.0232 93.0869 42.0164Z" fill="#152934"/>
<path fill-rule="evenodd" clip-rule="evenodd" d="M99.404 46.2256C99.6114 47.2452 98.7976 48.4724 98.2871 48.5762C97.7765 48.6801 96.5482 47.8683 96.8513 46.7449C96.644 45.7254 97.4576 44.4982 97.9681 44.3943C98.3749 43.7807 99.0929 44.6963 99.404 46.2256Z" fill="#152934"/>
<path fill-rule="evenodd" clip-rule="evenodd" d="M79.5344 45.2572C79.7417 46.2766 78.9281 47.5037 78.4176 47.6075C77.9072 47.7114 76.679 46.8996 76.9821 45.7763C76.7747 44.7569 77.5882 43.5297 78.0986 43.4258C78.6091 43.322 79.327 44.2377 79.5344 45.2572Z" fill="#152934"/>
<path d="M43.1691 154.683C43.1691 154.683 26.5907 184.128 7.99907 179.769C-6.78493 176.303 -27.1797 137.737 -36.2829 115.277C-36.2829 115.277 -42.2788 106.611 -43.3117 100.528C-43.3117 100.528 -47.9858 93.35 -49.7627 90.549C-50.1479 89.9362 -50.0428 89.1397 -49.5264 88.6408C-49.2288 88.3607 -48.8611 88.2294 -48.4848 88.2294C-48.0559 88.2294 -47.627 88.4045 -47.3294 88.7633L-41.7186 95.582C-41.4823 95.8709 -41.0621 95.9059 -40.782 95.6608L-40.5719 95.477C-40.3619 95.2932 -40.3055 95.1314 -40.4193 94.8689L-44.931 83.8791C-45.2199 83.1876 -44.8522 82.3998 -44.1432 82.1722C-44.0119 82.1285 -43.8806 82.111 -43.7493 82.111C-43.3204 82.111 -42.909 82.3298 -42.6727 82.7062L-35.749 93.1399C-35.5564 93.4375 -35.1625 93.525 -34.8649 93.3412L-34.7511 93.2712C-34.506 93.1224 -34.3835 92.8335 -34.4448 92.5622L-37.8497 78.1458C-38.016 77.428 -37.5434 76.719 -36.8169 76.5965L-36.7118 76.579C-36.1166 76.4827 -35.5302 76.8153 -35.3113 77.3843L-29.9719 91.3455C-29.8756 91.5993 -29.6306 91.7656 -29.3592 91.7656H-29.2104C-28.8515 91.7656 -28.5627 91.4768 -28.5539 91.1179V81.6523C-28.5364 80.7595 -27.8362 80.033 -26.9521 79.9805H-26.8471C-26.0243 79.9805 -25.2978 80.5669 -25.1577 81.381L-22.2867 96.1597C-22.1904 96.7112 -21.4902 96.8775 -21.1488 96.4398L-18.3653 92.2208C-17.9276 91.6606 -17.1311 91.4505 -16.5271 91.8182C-15.8969 92.2033 -15.328 93.1049 -15.5906 95.1706C-15.9319 97.8928 -19.7658 106.182 -21.7265 110.707L10.8001 154.806L21.6714 132.835L43.1691 154.683Z" fill="#D58F66"/>
<path d="M163.603 154.312C152.224 159.188 133.37 160.159 133.37 160.159V219.654H49.174V151.38L43.9746 157.56C30.6436 152.684 15.6933 133.182 15.6933 133.182C15.6933 133.182 30.8624 96.7694 67.6255 85.6529C74.2516 83.6485 81.578 82.4668 89.6483 82.4668C97.7362 82.5456 104.975 83.7885 111.435 85.8893C155.445 100.174 163.603 154.312 163.603 154.312Z" fill="#022786"/>
<path d="M111.435 85.8893C110.297 89.4484 104.141 91.612 98.6613 92.8546C92.7337 94.1988 86.568 94.1728 80.6434 92.8158C75.0147 91.5265 68.6447 89.2874 67.6259 85.6529C74.252 83.6485 81.5784 82.4668 89.6487 82.4668C97.7366 82.5456 104.975 83.7885 111.435 85.8893Z" fill="#D58F66"/>
<path opacity="0.5" d="M49.1738 151.385V128.391" stroke="#022786" stroke-width="1.38182" stroke-miterlimit="10" stroke-linecap="round"/>
<path opacity="0.5" d="M124.239 120.281H105.524C105.524 126.427 105.524 139.871 114.742 139.871C123.924 139.871 124.145 126.162 124.238 120.349L124.239 120.281Z" fill="#022786" stroke="#022786" stroke-width="1.38182"/>
<path d="M67.4785 85.9961C70.0541 90.367 83.5622 97.4226 101.975 92.278C105.332 90.9783 108.744 89.1371 111.413 86.3487" stroke="#022786" stroke-linecap="round"/>
</g>
<path d="M32.8007 173.283C32.8007 174.388 33.6961 175.283 34.8007 175.283H139.795C140.9 175.283 141.795 174.388 141.795 173.283V108.352C141.795 107.247 140.9 106.352 139.795 106.352H34.8007C33.6961 106.352 32.8007 107.247 32.8007 108.352V173.283Z" fill="#F0F4FF" stroke="#F0F4FF" stroke-width="2" stroke-linejoin="round"/>
<path d="M104.703 125.056C104.703 123.968 105.585 123.086 106.673 123.086H125.062C126.151 123.086 127.033 123.968 127.033 125.056C127.033 126.144 126.151 127.027 125.062 127.027H106.673C105.585 127.027 104.703 126.144 104.703 125.056Z" fill="#ADC0FD"/>
<path d="M104.703 137.863C104.703 136.956 105.438 136.221 106.344 136.221H125.391C126.298 136.221 127.033 136.956 127.033 137.863C127.033 138.769 126.298 139.505 125.391 139.505H106.344C105.438 139.505 104.703 138.769 104.703 137.863Z" fill="#ADC0FD"/>
<path fill-rule="evenodd" clip-rule="evenodd" d="M27.8574 173.658C23.2634 172.998 30.7086 173.287 33.7185 173.95C36.889 174.647 43.3126 174.147 46.3675 176.641C50.4787 179.997 53.5511 182.124 54.8579 182.994C55.2345 183.245 55.319 183.751 54.9424 184.002C53.7586 184.791 50.6903 185.672 44.4089 181.058C44.4089 181.058 42.3623 180.385 40.8338 181.054C39.3054 181.724 27.8574 173.658 27.8574 173.658Z" fill="#D58F66"/>
<path fill-rule="evenodd" clip-rule="evenodd" d="M40.2474 180.526C49.7301 189.757 57.8547 192.469 58.2165 195.22C58.6191 198.28 51.5013 196.786 42.6954 193.327C42.6954 193.327 39.7218 202.675 36.6121 201.559C30.5502 199.385 26.8347 193.116 22.2553 188.503C19.8631 186.093 17.8272 186.628 16.4537 183.534C15.0801 180.441 17.7997 176.457 18.4007 175.937C28.0354 167.592 40.2474 180.526 40.2474 180.526Z" fill="#D58F66"/>
<path fill-rule="evenodd" clip-rule="evenodd" d="M41.0453 191.573C41.0453 191.573 51.9541 195.051 54.1991 196.727C56.2355 198.248 53.9529 199.778 50.9755 199.975C48.3307 200.149 38.4899 197.564 38.4899 197.564L41.0453 191.573Z" fill="#D58F66"/>
<path fill-rule="evenodd" clip-rule="evenodd" d="M35.8348 194.688C35.8348 194.688 46.6839 199.313 49.306 199.808C50.9235 200.114 49.0741 201.977 46.8818 201.965C46.8161 202.748 45.5561 202.841 44.4116 203.038C41.4242 203.555 35.0823 200.912 35.0823 200.912L35.8348 194.688Z" fill="#D58F66"/>
<path d="M53.5173 196.041C53.5173 196.041 46.054 192.99 43.853 190.773" stroke="#653200" stroke-width="0.8" stroke-linecap="round" stroke-linejoin="round"/>
<path d="M50.0717 199.513C50.0717 199.513 43.4796 196.387 41.2786 194.169" stroke="#653200" stroke-width="0.8" stroke-linecap="round" stroke-linejoin="round"/>
<path d="M45.2477 201.595C45.2477 201.595 40.665 199.756 38.2781 197.778" stroke="#653200" stroke-width="0.8" stroke-linecap="round" stroke-linejoin="round"/>
<path fill-rule="evenodd" clip-rule="evenodd" d="M51.1968 181.21C51.1968 181.21 50.204 181.804 51.0267 182.633C51.8495 183.462 53.5059 183.719 53.8245 183.1C53.7935 182.79 51.1968 181.21 51.1968 181.21Z" fill="#8C533B"/>
<path fill-rule="evenodd" clip-rule="evenodd" d="M31.8013 190.075V107.65C28.2316 115.441 5.5301 130.637 0.276245 172.997C0.276245 175.492 0.744824 179.855 3.19943 182.258C5.65404 184.661 18.7716 189.212 22.644 188.564L31.8013 190.075Z" fill="#022786"/>
<path fill-rule="evenodd" clip-rule="evenodd" d="M27.8574 173.658C23.2634 172.998 30.7086 173.287 33.7185 173.95C36.889 174.647 43.3126 174.147 46.3675 176.641C50.4787 179.997 53.5511 182.124 54.8579 182.994C55.2345 183.245 55.319 183.751 54.9424 184.002C53.7586 184.791 50.6903 185.672 44.4089 181.058C44.4089 181.058 42.3623 180.385 40.8338 181.054C39.3054 181.724 27.8574 173.658 27.8574 173.658Z" fill="#D58F66"/>
<path fill-rule="evenodd" clip-rule="evenodd" d="M40.2474 180.526C49.7301 189.757 57.8547 192.469 58.2165 195.22C58.6191 198.28 51.5013 196.786 42.6954 193.327C42.6954 193.327 39.7218 202.675 36.6121 201.559C30.5502 199.385 26.8347 193.116 22.2553 188.503C19.8631 186.093 17.8272 186.628 16.4537 183.534C15.0801 180.441 17.7997 176.457 18.4007 175.937C28.0354 167.592 40.2474 180.526 40.2474 180.526Z" fill="#D58F66"/>
<path fill-rule="evenodd" clip-rule="evenodd" d="M41.0453 191.573C41.0453 191.573 51.9541 195.051 54.1991 196.727C56.2355 198.248 53.9529 199.778 50.9755 199.975C48.3307 200.149 38.4899 197.564 38.4899 197.564L41.0453 191.573Z" fill="#D58F66"/>
<path fill-rule="evenodd" clip-rule="evenodd" d="M35.8348 194.688C35.8348 194.688 46.6839 199.313 49.306 199.808C50.9235 200.114 49.0741 201.977 46.8818 201.965C46.8161 202.748 45.5561 202.841 44.4116 203.038C41.4242 203.555 35.0823 200.912 35.0823 200.912L35.8348 194.688Z" fill="#D58F66"/>
<path d="M53.5173 196.041C53.5173 196.041 46.054 192.99 43.853 190.773" stroke="#9C614E" stroke-width="0.8" stroke-linecap="round" stroke-linejoin="round"/>
<path d="M50.0717 199.513C50.0717 199.513 43.4796 196.387 41.2786 194.169" stroke="#9C614E" stroke-width="0.8" stroke-linecap="round" stroke-linejoin="round"/>
<path d="M45.2477 201.595C45.2477 201.595 40.665 199.756 38.2781 197.778" stroke="#9C614E" stroke-width="0.8" stroke-linecap="round" stroke-linejoin="round"/>
<path fill-rule="evenodd" clip-rule="evenodd" d="M51.1968 181.21C51.1968 181.21 50.204 181.804 51.0267 182.633C51.8495 183.462 53.5059 183.719 53.8245 183.1C53.7935 182.79 51.1968 181.21 51.1968 181.21Z" fill="#8C533B"/>
<path fill-rule="evenodd" clip-rule="evenodd" d="M142.751 190.405V107.98C146.321 115.771 169.022 130.967 174.276 173.327C174.276 175.822 173.808 180.185 171.353 182.588C168.898 184.992 155.781 189.542 151.909 188.894L142.751 190.405Z" fill="#022786"/>
<path fill-rule="evenodd" clip-rule="evenodd" d="M146.696 173.991C151.29 173.33 143.845 173.619 140.835 174.282C137.664 174.979 131.241 174.48 128.186 176.973C124.075 180.329 121.002 182.456 119.696 183.326C119.319 183.577 119.234 184.083 119.611 184.334C120.795 185.123 123.863 186.004 130.145 181.391C130.145 181.391 132.191 180.717 133.72 181.386C135.248 182.056 146.696 173.991 146.696 173.991Z" fill="#D58F66"/>
<path fill-rule="evenodd" clip-rule="evenodd" d="M134.306 180.858C124.823 190.089 116.699 192.801 116.337 195.552C115.934 198.612 123.052 197.118 131.858 193.659C131.858 193.659 134.832 203.007 137.941 201.891C144.003 199.717 147.719 193.448 152.298 188.835C154.69 186.425 156.726 186.96 158.1 183.866C159.473 180.773 156.754 176.789 156.153 176.269C146.518 167.924 134.306 180.858 134.306 180.858Z" fill="#D58F66"/>
<path fill-rule="evenodd" clip-rule="evenodd" d="M133.508 191.905C133.508 191.905 122.599 195.383 120.354 197.059C118.318 198.58 120.601 200.11 123.578 200.307C126.223 200.482 136.064 197.896 136.064 197.896L133.508 191.905Z" fill="#D58F66"/>
<path fill-rule="evenodd" clip-rule="evenodd" d="M138.719 195.02C138.719 195.02 127.87 199.645 125.248 200.14C123.63 200.446 125.479 202.309 127.672 202.297C127.737 203.08 128.997 203.173 130.142 203.371C133.129 203.887 139.471 201.244 139.471 201.244L138.719 195.02Z" fill="#D58F66"/>
<path d="M121.036 196.373C121.036 196.373 128.499 193.322 130.7 191.105" stroke="#9C614E" stroke-width="0.8" stroke-linecap="round" stroke-linejoin="round"/>
<path d="M124.482 199.845C124.482 199.845 131.074 196.719 133.275 194.501" stroke="#9C614E" stroke-width="0.8" stroke-linecap="round" stroke-linejoin="round"/>
<path d="M129.306 201.927C129.306 201.927 133.888 200.088 136.275 198.11" stroke="#9C614E" stroke-width="0.8" stroke-linecap="round" stroke-linejoin="round"/>
<path fill-rule="evenodd" clip-rule="evenodd" d="M123.357 181.542C123.357 181.542 124.349 182.136 123.527 182.965C122.704 183.794 121.048 184.051 120.729 183.432C120.76 183.122 123.357 181.542 123.357 181.542Z" fill="#8C533B"/>
<path fill-rule="evenodd" clip-rule="evenodd" d="M91.4206 127.244V128.6H86.7797V121.16H88.2644V127.244H91.4206ZM94.1892 128.6H92.7684V121.16H94.0073L97.2718 125.795H97.3603V121.16H98.7811V128.6H97.552L94.2777 123.944H94.1892V128.6Z" fill="#7996F9"/>
<path fill-rule="evenodd" clip-rule="evenodd" d="M88.2607 141.621H86.7797V134.182H91.4141V135.512H88.2607V137.45H91.1395V138.724H88.2607V141.621ZM94.1999 141.621H92.7826V134.182H94.0185L97.2749 138.817H97.3631V134.182H98.7805V141.621H97.5544L94.2882 136.966H94.1999V141.621Z" fill="#7996F9"/>
<path fill-rule="evenodd" clip-rule="evenodd" d="M83.496 161.149C83.496 160.122 84.3287 159.289 85.3559 159.289H125.946C126.973 159.289 127.806 160.122 127.806 161.149C127.806 162.176 126.973 163.009 125.946 163.009H85.3559C84.3287 163.009 83.496 162.176 83.496 161.149Z" fill="#D0DBFF"/>
<rect x="36.7946" y="120.977" width="42.0334" height="42.0334" rx="4" fill="white"/>
<mask id="mask1_584_71634" style="mask-type:alpha" maskUnits="userSpaceOnUse" x="36" y="120" width="43" height="44">
<rect x="36.7946" y="120.977" width="42.0334" height="42.0334" rx="4" fill="#E5ECFF"/>
</mask>
<g mask="url(#mask1_584_71634)">
<path d="M62.4169 142.43H54.5118V150.688H62.4169V142.43Z" fill="#D58F66"/>
<path d="M62.4169 142.312V143.523C61.5256 145.003 60.0912 145.945 58.5011 145.945C56.8686 145.945 55.3974 144.952 54.5118 143.393V142.581C55.553 143.439 56.8828 143.942 58.3116 143.942C59.8847 143.942 61.3361 143.331 62.4169 142.312Z" fill="#9C614E"/>
<path d="M65.0872 131.316V131.84C65.0872 133.639 64.9344 135.439 64.6345 137.215L64.2214 139.643C64.0686 140.543 63.7178 141.366 63.2227 142.073V142.076C62.985 142.416 62.7163 142.727 62.4163 143.001C61.3356 144.02 59.8841 144.631 58.311 144.631C56.8823 144.631 55.5525 144.127 54.5113 143.27C54.3104 143.109 54.1209 142.933 53.9426 142.744C53.2098 141.963 52.6779 140.981 52.4459 139.872L52.0329 137.92C51.5745 135.747 51.3453 133.535 51.3453 131.316H65.0872V131.316Z" fill="#D58F66"/>
<path d="M52.3039 139.229C52.3039 139.229 50.5894 136.878 50.3135 133.646L49.5548 134.607C49.5548 134.607 49.7617 132.681 50.9293 132.336C50.9293 132.336 49.3479 128 54.4371 125.867L53.5454 127.035C53.5454 127.035 63.3839 122.492 66.6208 133.71L65.5221 133.09C65.5221 133.09 65.0106 137.881 64.3208 138.635L64.1426 133.568C64.1426 133.568 57.9498 128.611 52.3039 133.637V139.229Z" fill="#152934"/>
<path d="M53.1965 136.705C53.1965 136.705 50.4436 134.555 50.4464 136.951C50.4464 137.489 50.602 138.018 50.8765 138.468C51.9346 140.185 53.4143 139.07 53.4143 139.07L53.1965 136.705Z" fill="#D58F66"/>
<path d="M63.3498 136.705C63.3498 136.705 66.1027 134.555 66.0999 136.951C66.0999 137.489 65.9443 138.018 65.6698 138.468C64.6117 140.185 63.132 139.07 63.132 139.07L63.3498 136.705Z" fill="#D58F66"/>
<path d="M51.2155 136.868C51.2155 136.868 52.1483 136.979 51.9331 137.864" stroke="#9C614E" stroke-width="0.75" stroke-miterlimit="10" stroke-linecap="round"/>
<path d="M65.3166 136.856C65.3166 136.856 64.3136 136.975 64.545 137.926" stroke="#9C614E" stroke-width="0.75" stroke-miterlimit="10" stroke-linecap="round"/>
<path d="M58.5206 138.538C58.5206 138.538 57.8933 139.154 57.461 138.718C57.2619 138.584 57.452 137.894 57.6455 137.156" stroke="#152934" stroke-width="0.4" stroke-miterlimit="10" stroke-linecap="round"/>
<path d="M57.0778 141.02C57.333 141.388 58.1303 141.905 59.2772 141.02" stroke="#152934" stroke-width="0.4" stroke-linecap="round"/>
<path fill-rule="evenodd" clip-rule="evenodd" d="M56.3995 134.014L53.231 134.487C53.231 134.487 54.9429 132.766 56.3995 134.014Z" fill="#152934"/>
<path fill-rule="evenodd" clip-rule="evenodd" d="M59.5756 134.263L62.8446 134.285C62.8446 134.285 60.8595 132.972 59.5756 134.263Z" fill="#152934"/>
<path fill-rule="evenodd" clip-rule="evenodd" d="M61.618 135.623C61.685 135.952 61.422 136.349 61.2569 136.382C61.0919 136.416 60.6949 136.154 60.7929 135.79C60.7258 135.461 60.9888 135.064 61.1538 135.031C61.2853 134.832 61.5174 135.128 61.618 135.623Z" fill="#152934"/>
<path fill-rule="evenodd" clip-rule="evenodd" d="M55.1951 135.31C55.2621 135.64 54.9991 136.036 54.8341 136.07C54.6691 136.104 54.2721 135.841 54.3701 135.478C54.303 135.149 54.566 134.752 54.731 134.718C54.896 134.685 55.128 134.981 55.1951 135.31Z" fill="#152934"/>
<path d="M43.4413 170.681C43.4413 170.681 38.0826 180.198 32.0732 178.79C27.2945 177.669 20.7023 165.203 17.7598 157.943C17.7598 157.943 15.8218 155.142 15.4879 153.176C15.4879 153.176 13.9771 150.856 13.4027 149.951C13.2783 149.753 13.3122 149.495 13.4791 149.334C13.5753 149.243 13.6942 149.201 13.8158 149.201C13.9545 149.201 14.0931 149.257 14.1893 149.373L16.0029 151.577C16.0792 151.671 16.2151 151.682 16.3056 151.603L16.3735 151.543C16.4414 151.484 16.4596 151.432 16.4228 151.347L14.9645 147.795C14.8711 147.571 14.99 147.316 15.2191 147.243C15.2616 147.229 15.304 147.223 15.3465 147.223C15.4851 147.223 15.6181 147.294 15.6945 147.416L17.9324 150.788C17.9947 150.884 18.122 150.913 18.2182 150.853L18.255 150.83C18.3342 150.782 18.3738 150.689 18.354 150.601L17.2534 145.941C17.1996 145.709 17.3524 145.48 17.5873 145.441L17.6212 145.435C17.8136 145.404 18.0032 145.511 18.0739 145.695L19.7998 150.208C19.8309 150.29 19.9101 150.344 19.9978 150.344H20.0459C20.1619 150.344 20.2553 150.25 20.2581 150.134V147.075C20.2638 146.786 20.4901 146.551 20.7759 146.534H20.8098C21.0758 146.534 21.3106 146.724 21.3559 146.987L22.2839 151.764C22.315 151.942 22.5413 151.996 22.6517 151.855L23.5514 150.491C23.6929 150.31 23.9503 150.242 24.1455 150.361C24.3493 150.485 24.5332 150.777 24.4483 151.444C24.3379 152.324 23.0987 155.004 22.465 156.466L32.9786 170.72L36.4926 163.619L43.4413 170.681Z" fill="#D58F66"/>
<path d="M82.369 170.563C78.6909 172.139 72.5967 172.453 72.5967 172.453V191.683H45.3817V169.615L43.7011 171.612C39.3921 170.036 34.5597 163.733 34.5597 163.733C34.5597 163.733 39.4628 151.963 51.3459 148.37C53.4876 147.722 55.8558 147.34 58.4644 147.34C61.0786 147.365 63.4184 147.767 65.5065 148.446C79.7321 153.063 82.369 170.563 82.369 170.563Z" fill="#022786"/>
<path d="M65.5069 148.446C63.9222 153.402 53.2153 153.345 51.3809 148.475C51.3679 148.44 51.3563 148.405 51.3463 148.37C53.4881 147.722 55.8562 147.34 58.4648 147.34C61.0791 147.365 63.4189 147.767 65.5069 148.446Z" fill="#D58F66"/>
<path opacity="0.5" d="M45.382 169.614V162.182" stroke="#022786" stroke-width="1.38182" stroke-miterlimit="10" stroke-linecap="round"/>
<path opacity="0.5" d="M69.6457 159.562H63.5963C63.5963 161.549 63.5963 165.895 66.5759 165.895C69.5438 165.895 69.6151 161.463 69.6454 159.584L69.6457 159.562Z" fill="#022786" stroke="#022786" stroke-width="1.38182"/>
<path d="M51.5836 148.777C52.4286 150.447 56.8605 153.142 62.9013 151.177C64.4534 150.322 64.4534 150.322 65.483 148.777" stroke="#022786" stroke-width="0.65" stroke-linecap="round"/>
</g>
<path d="M100.113 151.018C108.379 146.557 119.501 149.896 108.934 159.244C103.02 164.476 109.351 146.675 115.534 152.847C117.043 154.354 118.964 158.143 119.614 158.85C121.477 160.874 125.493 156.263 126.884 153.228" stroke="#67D3A6" stroke-width="2" stroke-linecap="round" stroke-linejoin="round"/>
<path d="M127.806 149.059C127.806 148.039 128.633 147.199 129.652 147.199C130.672 147.199 131.499 148.039 131.499 149.059C131.499 150.079 130.672 150.919 129.652 150.919C128.633 150.919 127.806 150.079 127.806 149.059Z" fill="#67D3A6"/>
</svg>
