<svg xmlns="http://www.w3.org/2000/svg" xmlns:xlink="http://www.w3.org/1999/xlink" width="1000" height="160" viewBox="0 0 1000 160">
    <defs>
        <rect id="a" width="1000" height="160" rx="4"/>
        <rect id="d" width="70" height="70" rx="4"/>
        <filter id="c" width="111.4%" height="111.4%" x="-5.7%" y="-2.9%" filterUnits="objectBoundingBox">
            <feOffset dy="2" in="SourceAlpha" result="shadowOffsetOuter1"/>
            <feGaussianBlur in="shadowOffsetOuter1" result="shadowBlurOuter1" stdDeviation="1"/>
            <feColorMatrix in="shadowBlurOuter1" values="0 0 0 0 0.820595562 0 0 0 0 0.820595562 0 0 0 0 0.820595562 0 0 0 0.3 0"/>
        </filter>
        <linearGradient id="e" x1="50%" x2="50%" y1="0%" y2="100%">
            <stop offset="0%" stop-color="#2FB7EC"/>
            <stop offset="100%" stop-color="#0E3AA1"/>
        </linearGradient>
        <linearGradient id="f" x1="50%" x2="50%" y1="0%" y2="100%">
            <stop offset="0%" stop-color="#2FB7EC"/>
            <stop offset="100%" stop-color="#0E3AA1"/>
        </linearGradient>
        <linearGradient id="g" x1="50%" x2="50%" y1="0%" y2="100%">
            <stop offset="0%" stop-color="#2FB7EC"/>
            <stop offset="100%" stop-color="#0E3AA1"/>
        </linearGradient>
        <linearGradient id="h" x1="50%" x2="50%" y1="0%" y2="100%">
            <stop offset="0%" stop-color="#2FB7EC"/>
            <stop offset="100%" stop-color="#0E3AA1"/>
        </linearGradient>
        <linearGradient id="i" x1="50%" x2="50%" y1="0%" y2="100%">
            <stop offset="0%" stop-color="#2FB7EC"/>
            <stop offset="100%" stop-color="#0E3AA1"/>
        </linearGradient>
        <rect id="k" width="70" height="70" rx="4"/>
        <filter id="j" width="111.4%" height="111.4%" x="-5.7%" y="-2.9%" filterUnits="objectBoundingBox">
            <feOffset dy="2" in="SourceAlpha" result="shadowOffsetOuter1"/>
            <feGaussianBlur in="shadowOffsetOuter1" result="shadowBlurOuter1" stdDeviation="1"/>
            <feColorMatrix in="shadowBlurOuter1" values="0 0 0 0 0.820595562 0 0 0 0 0.820595562 0 0 0 0 0.820595562 0 0 0 0.3 0"/>
        </filter>
        <linearGradient id="l" x1="50%" x2="50%" y1="0%" y2="100%">
            <stop offset="0%" stop-color="#3A3A3A"/>
            <stop offset="100%" stop-color="#A4A3A3"/>
        </linearGradient>
        <linearGradient id="m" x1="50%" x2="50%" y1="0%" y2="100%">
            <stop offset="0%" stop-color="#707070"/>
            <stop offset="100%" stop-color="#D9D9D9"/>
        </linearGradient>
        <rect id="o" width="70" height="70" rx="4"/>
        <filter id="n" width="111.4%" height="111.4%" x="-5.7%" y="-2.9%" filterUnits="objectBoundingBox">
            <feOffset dy="2" in="SourceAlpha" result="shadowOffsetOuter1"/>
            <feGaussianBlur in="shadowOffsetOuter1" result="shadowBlurOuter1" stdDeviation="1"/>
            <feColorMatrix in="shadowBlurOuter1" values="0 0 0 0 0.820595562 0 0 0 0 0.820595562 0 0 0 0 0.820595562 0 0 0 0.3 0"/>
        </filter>
        <rect id="q" width="70" height="70" rx="4"/>
        <filter id="p" width="111.4%" height="111.4%" x="-5.7%" y="-2.9%" filterUnits="objectBoundingBox">
            <feOffset dy="2" in="SourceAlpha" result="shadowOffsetOuter1"/>
            <feGaussianBlur in="shadowOffsetOuter1" result="shadowBlurOuter1" stdDeviation="1"/>
            <feColorMatrix in="shadowBlurOuter1" values="0 0 0 0 0.820595562 0 0 0 0 0.820595562 0 0 0 0 0.820595562 0 0 0 0.3 0"/>
        </filter>
        <linearGradient id="r" x1="50%" x2="50%" y1="0%" y2="100%">
            <stop offset="0%" stop-color="#FFD560"/>
            <stop offset="100%" stop-color="#E4AB0F"/>
        </linearGradient>
        <linearGradient id="s" x1="50%" x2="50%" y1="0%" y2="100%">
            <stop offset="0%" stop-color="#FFF0BB"/>
            <stop offset="100%" stop-color="#DE7712"/>
        </linearGradient>
        <rect id="u" width="70" height="70" rx="4"/>
        <filter id="t" width="111.4%" height="111.4%" x="-5.7%" y="-2.9%" filterUnits="objectBoundingBox">
            <feOffset dy="2" in="SourceAlpha" result="shadowOffsetOuter1"/>
            <feGaussianBlur in="shadowOffsetOuter1" result="shadowBlurOuter1" stdDeviation="1"/>
            <feColorMatrix in="shadowBlurOuter1" values="0 0 0 0 0.820595562 0 0 0 0 0.820595562 0 0 0 0 0.820595562 0 0 0 0.3 0"/>
        </filter>
        <rect id="w" width="70" height="70" rx="4"/>
        <filter id="v" width="111.4%" height="111.4%" x="-5.7%" y="-2.9%" filterUnits="objectBoundingBox">
            <feOffset dy="2" in="SourceAlpha" result="shadowOffsetOuter1"/>
            <feGaussianBlur in="shadowOffsetOuter1" result="shadowBlurOuter1" stdDeviation="1"/>
            <feColorMatrix in="shadowBlurOuter1" values="0 0 0 0 0.820595562 0 0 0 0 0.820595562 0 0 0 0 0.820595562 0 0 0 0.3 0"/>
        </filter>
        <linearGradient id="x" x1="50%" x2="50%" y1="0%" y2="100%">
            <stop offset="0%" stop-color="#B8C6CA"/>
            <stop offset="100%" stop-color="#CBB9FF"/>
        </linearGradient>
        <rect id="z" width="70" height="70" rx="4"/>
        <filter id="y" width="111.4%" height="111.4%" x="-5.7%" y="-2.9%" filterUnits="objectBoundingBox">
            <feOffset dy="2" in="SourceAlpha" result="shadowOffsetOuter1"/>
            <feGaussianBlur in="shadowOffsetOuter1" result="shadowBlurOuter1" stdDeviation="1"/>
            <feColorMatrix in="shadowBlurOuter1" values="0 0 0 0 0.820595562 0 0 0 0 0.820595562 0 0 0 0 0.820595562 0 0 0 0.3 0"/>
        </filter>
        <linearGradient id="A" x1="50%" x2="50%" y1="0%" y2="100%">
            <stop offset="0%" stop-color="#FAFAFA"/>
            <stop offset="100%" stop-color="#F4F4F4"/>
        </linearGradient>
        <rect id="C" width="70" height="70" rx="4"/>
        <filter id="B" width="111.4%" height="111.4%" x="-5.7%" y="-2.9%" filterUnits="objectBoundingBox">
            <feOffset dy="2" in="SourceAlpha" result="shadowOffsetOuter1"/>
            <feGaussianBlur in="shadowOffsetOuter1" result="shadowBlurOuter1" stdDeviation="1"/>
            <feColorMatrix in="shadowBlurOuter1" values="0 0 0 0 0.820595562 0 0 0 0 0.820595562 0 0 0 0 0.820595562 0 0 0 0.3 0"/>
        </filter>
        <linearGradient id="D" x1="50%" x2="50%" y1="0%" y2="100%">
            <stop offset="0%" stop-color="#1ACC94"/>
            <stop offset="100%" stop-color="#92F1D3"/>
        </linearGradient>
        <linearGradient id="E" x1="50%" x2="50%" y1="0%" y2="100%">
            <stop offset="0%" stop-color="#92F1D3"/>
            <stop offset="100%" stop-color="#1ACC94"/>
        </linearGradient>
        <rect id="G" width="70" height="70" rx="4"/>
        <filter id="F" width="111.4%" height="111.4%" x="-5.7%" y="-2.9%" filterUnits="objectBoundingBox">
            <feOffset dy="2" in="SourceAlpha" result="shadowOffsetOuter1"/>
            <feGaussianBlur in="shadowOffsetOuter1" result="shadowBlurOuter1" stdDeviation="1"/>
            <feColorMatrix in="shadowBlurOuter1" values="0 0 0 0 0.820595562 0 0 0 0 0.820595562 0 0 0 0 0.820595562 0 0 0 0.3 0"/>
        </filter>
        <rect id="I" width="70" height="70" rx="4"/>
        <filter id="H" width="111.4%" height="111.4%" x="-5.7%" y="-2.9%" filterUnits="objectBoundingBox">
            <feOffset dy="2" in="SourceAlpha" result="shadowOffsetOuter1"/>
            <feGaussianBlur in="shadowOffsetOuter1" result="shadowBlurOuter1" stdDeviation="1"/>
            <feColorMatrix in="shadowBlurOuter1" values="0 0 0 0 0.820595562 0 0 0 0 0.820595562 0 0 0 0 0.820595562 0 0 0 0.3 0"/>
        </filter>
        <rect id="K" width="70" height="70" x="580" y="22" rx="4"/>
        <filter id="J" width="111.4%" height="111.4%" x="-5.7%" y="-2.9%" filterUnits="objectBoundingBox">
            <feOffset dy="2" in="SourceAlpha" result="shadowOffsetOuter1"/>
            <feGaussianBlur in="shadowOffsetOuter1" result="shadowBlurOuter1" stdDeviation="1"/>
            <feColorMatrix in="shadowBlurOuter1" values="0 0 0 0 0.820595562 0 0 0 0 0.820595562 0 0 0 0 0.820595562 0 0 0 0.3 0"/>
        </filter>
        <linearGradient id="L" x1="50%" x2="50%" y1="0%" y2="100%">
            <stop offset="0%" stop-color="#F5F5F5"/>
            <stop offset="100%" stop-color="#DADADA"/>
        </linearGradient>
        <linearGradient id="M" x1="50%" x2="50%" y1="0%" y2="100%">
            <stop offset="0%" stop-color="#F5F5F5"/>
            <stop offset="100%" stop-color="#CBCBCB"/>
        </linearGradient>
        <rect id="O" width="70" height="70" x="376" rx="4"/>
        <filter id="N" width="111.4%" height="111.4%" x="-5.7%" y="-2.9%" filterUnits="objectBoundingBox">
            <feOffset dy="2" in="SourceAlpha" result="shadowOffsetOuter1"/>
            <feGaussianBlur in="shadowOffsetOuter1" result="shadowBlurOuter1" stdDeviation="1"/>
            <feColorMatrix in="shadowBlurOuter1" values="0 0 0 0 0.820595562 0 0 0 0 0.820595562 0 0 0 0 0.820595562 0 0 0 0.3 0"/>
        </filter>
        <rect id="Q" width="70" height="70" rx="4"/>
        <filter id="P" width="111.4%" height="111.4%" x="-5.7%" y="-2.9%" filterUnits="objectBoundingBox">
            <feOffset dy="2" in="SourceAlpha" result="shadowOffsetOuter1"/>
            <feGaussianBlur in="shadowOffsetOuter1" result="shadowBlurOuter1" stdDeviation="1"/>
            <feColorMatrix in="shadowBlurOuter1" values="0 0 0 0 0.820595562 0 0 0 0 0.820595562 0 0 0 0 0.820595562 0 0 0 0.3 0"/>
        </filter>
        <linearGradient id="R" x1="100%" x2="12.151%" y1="41.522%" y2="59.855%">
            <stop offset="0%" stop-color="#C8C8C8"/>
            <stop offset="100%" stop-color="#979797"/>
        </linearGradient>
        <rect id="T" width="70" height="70" x="140" rx="4"/>
        <filter id="S" width="111.4%" height="111.4%" x="-5.7%" y="-2.9%" filterUnits="objectBoundingBox">
            <feOffset dy="2" in="SourceAlpha" result="shadowOffsetOuter1"/>
            <feGaussianBlur in="shadowOffsetOuter1" result="shadowBlurOuter1" stdDeviation="1"/>
            <feColorMatrix in="shadowBlurOuter1" values="0 0 0 0 0.820595562 0 0 0 0 0.820595562 0 0 0 0 0.820595562 0 0 0 0.3 0"/>
        </filter>
        <linearGradient id="U" x1="50%" x2="50%" y1="0%" y2="100%">
            <stop offset="0%" stop-color="#9E9E9E"/>
            <stop offset="100%" stop-color="#858585"/>
        </linearGradient>
        <linearGradient id="V" x1="50%" x2="50%" y1="0%" y2="100%">
            <stop offset="0%" stop-color="#9E9E9E"/>
            <stop offset="100%" stop-color="#858585"/>
        </linearGradient>
        <rect id="X" width="70" height="70" rx="4"/>
        <filter id="W" width="111.4%" height="111.4%" x="-5.7%" y="-2.9%" filterUnits="objectBoundingBox">
            <feOffset dy="2" in="SourceAlpha" result="shadowOffsetOuter1"/>
            <feGaussianBlur in="shadowOffsetOuter1" result="shadowBlurOuter1" stdDeviation="1"/>
            <feColorMatrix in="shadowBlurOuter1" values="0 0 0 0 0.820595562 0 0 0 0 0.820595562 0 0 0 0 0.820595562 0 0 0 0.3 0"/>
        </filter>
        <rect id="Z" width="70" height="70" rx="4"/>
        <filter id="Y" width="111.4%" height="111.4%" x="-5.7%" y="-2.9%" filterUnits="objectBoundingBox">
            <feOffset dy="2" in="SourceAlpha" result="shadowOffsetOuter1"/>
            <feGaussianBlur in="shadowOffsetOuter1" result="shadowBlurOuter1" stdDeviation="1"/>
            <feColorMatrix in="shadowBlurOuter1" values="0 0 0 0 0.820595562 0 0 0 0 0.820595562 0 0 0 0 0.820595562 0 0 0 0.3 0"/>
        </filter>
        <rect id="ab" width="70" height="70" rx="4"/>
        <filter id="aa" width="111.4%" height="111.4%" x="-5.7%" y="-2.9%" filterUnits="objectBoundingBox">
            <feOffset dy="2" in="SourceAlpha" result="shadowOffsetOuter1"/>
            <feGaussianBlur in="shadowOffsetOuter1" result="shadowBlurOuter1" stdDeviation="1"/>
            <feColorMatrix in="shadowBlurOuter1" values="0 0 0 0 0.820595562 0 0 0 0 0.820595562 0 0 0 0 0.820595562 0 0 0 0.3 0"/>
        </filter>
        <linearGradient id="ac" x1="50%" x2="50%" y1="0%" y2="100%">
            <stop offset="0%" stop-color="#787878"/>
            <stop offset="100%" stop-color="#141414"/>
        </linearGradient>
        <linearGradient id="ad" x1="50%" x2="50%" y1="0%" y2="100%">
            <stop offset="0%" stop-color="#DBDBDB"/>
            <stop offset="100%" stop-color="#777"/>
        </linearGradient>
        <rect id="af" width="70" height="70" rx="4"/>
        <filter id="ae" width="111.4%" height="111.4%" x="-5.7%" y="-2.9%" filterUnits="objectBoundingBox">
            <feOffset dy="2" in="SourceAlpha" result="shadowOffsetOuter1"/>
            <feGaussianBlur in="shadowOffsetOuter1" result="shadowBlurOuter1" stdDeviation="1"/>
            <feColorMatrix in="shadowBlurOuter1" values="0 0 0 0 0.820595562 0 0 0 0 0.820595562 0 0 0 0 0.820595562 0 0 0 0.3 0"/>
        </filter>
        <rect id="ah" width="70" height="70" rx="4"/>
        <filter id="ag" width="111.4%" height="111.4%" x="-5.7%" y="-2.9%" filterUnits="objectBoundingBox">
            <feOffset dy="2" in="SourceAlpha" result="shadowOffsetOuter1"/>
            <feGaussianBlur in="shadowOffsetOuter1" result="shadowBlurOuter1" stdDeviation="1"/>
            <feColorMatrix in="shadowBlurOuter1" values="0 0 0 0 0.820595562 0 0 0 0 0.820595562 0 0 0 0 0.820595562 0 0 0 0.3 0"/>
        </filter>
        <rect id="aj" width="70" height="70" rx="4"/>
        <filter id="ai" width="111.4%" height="111.4%" x="-5.7%" y="-2.9%" filterUnits="objectBoundingBox">
            <feOffset dy="2" in="SourceAlpha" result="shadowOffsetOuter1"/>
            <feGaussianBlur in="shadowOffsetOuter1" result="shadowBlurOuter1" stdDeviation="1"/>
            <feColorMatrix in="shadowBlurOuter1" values="0 0 0 0 0.820595562 0 0 0 0 0.820595562 0 0 0 0 0.820595562 0 0 0 0.3 0"/>
        </filter>
        <rect id="al" width="70" height="70" rx="4"/>
        <filter id="ak" width="111.4%" height="111.4%" x="-5.7%" y="-2.9%" filterUnits="objectBoundingBox">
            <feOffset dy="2" in="SourceAlpha" result="shadowOffsetOuter1"/>
            <feGaussianBlur in="shadowOffsetOuter1" result="shadowBlurOuter1" stdDeviation="1"/>
            <feColorMatrix in="shadowBlurOuter1" values="0 0 0 0 0.820595562 0 0 0 0 0.820595562 0 0 0 0 0.820595562 0 0 0 0.3 0"/>
        </filter>
        <linearGradient id="am" x1="50%" x2="50%" y1="0%" y2="100%">
            <stop offset="0%" stop-color="#CCC"/>
            <stop offset="100%" stop-color="#F1F1F1"/>
        </linearGradient>
        <rect id="ao" width="70" height="70" rx="4"/>
        <filter id="an" width="111.4%" height="111.4%" x="-5.7%" y="-2.9%" filterUnits="objectBoundingBox">
            <feOffset dy="2" in="SourceAlpha" result="shadowOffsetOuter1"/>
            <feGaussianBlur in="shadowOffsetOuter1" result="shadowBlurOuter1" stdDeviation="1"/>
            <feColorMatrix in="shadowBlurOuter1" values="0 0 0 0 0.820595562 0 0 0 0 0.820595562 0 0 0 0 0.820595562 0 0 0 0.3 0"/>
        </filter>
        <rect id="aq" width="70" height="70" x="258" rx="4"/>
        <filter id="ap" width="111.4%" height="111.4%" x="-5.7%" y="-2.9%" filterUnits="objectBoundingBox">
            <feOffset dy="2" in="SourceAlpha" result="shadowOffsetOuter1"/>
            <feGaussianBlur in="shadowOffsetOuter1" result="shadowBlurOuter1" stdDeviation="1"/>
            <feColorMatrix in="shadowBlurOuter1" values="0 0 0 0 0.820595562 0 0 0 0 0.820595562 0 0 0 0 0.820595562 0 0 0 0.3 0"/>
        </filter>
        <rect id="as" width="70" height="70" rx="4"/>
        <filter id="ar" width="111.4%" height="111.4%" x="-5.7%" y="-2.9%" filterUnits="objectBoundingBox">
            <feOffset dy="2" in="SourceAlpha" result="shadowOffsetOuter1"/>
            <feGaussianBlur in="shadowOffsetOuter1" result="shadowBlurOuter1" stdDeviation="1"/>
            <feColorMatrix in="shadowBlurOuter1" values="0 0 0 0 0.820595562 0 0 0 0 0.820595562 0 0 0 0 0.820595562 0 0 0 0.3 0"/>
        </filter>
        <rect id="au" width="70" height="70" x="188" y="22" rx="4"/>
        <filter id="at" width="111.4%" height="111.4%" x="-5.7%" y="-2.9%" filterUnits="objectBoundingBox">
            <feOffset dy="2" in="SourceAlpha" result="shadowOffsetOuter1"/>
            <feGaussianBlur in="shadowOffsetOuter1" result="shadowBlurOuter1" stdDeviation="1"/>
            <feColorMatrix in="shadowBlurOuter1" values="0 0 0 0 0.820595562 0 0 0 0 0.820595562 0 0 0 0 0.820595562 0 0 0 0.3 0"/>
        </filter>
        <rect id="aw" width="70" height="70" x="220" y="108" rx="4"/>
        <filter id="av" width="111.4%" height="111.4%" x="-5.7%" y="-2.9%" filterUnits="objectBoundingBox">
            <feOffset dy="2" in="SourceAlpha" result="shadowOffsetOuter1"/>
            <feGaussianBlur in="shadowOffsetOuter1" result="shadowBlurOuter1" stdDeviation="1"/>
            <feColorMatrix in="shadowBlurOuter1" values="0 0 0 0 0.820595562 0 0 0 0 0.820595562 0 0 0 0 0.820595562 0 0 0 0.3 0"/>
        </filter>
        <rect id="ay" width="70" height="70" x="16" y="86" rx="4"/>
        <filter id="ax" width="111.4%" height="111.4%" x="-5.7%" y="-2.9%" filterUnits="objectBoundingBox">
            <feOffset dy="2" in="SourceAlpha" result="shadowOffsetOuter1"/>
            <feGaussianBlur in="shadowOffsetOuter1" result="shadowBlurOuter1" stdDeviation="1"/>
            <feColorMatrix in="shadowBlurOuter1" values="0 0 0 0 0.820595562 0 0 0 0 0.820595562 0 0 0 0 0.820595562 0 0 0 0.3 0"/>
        </filter>
        <rect id="aA" width="70" height="70" rx="4"/>
        <filter id="az" width="111.4%" height="111.4%" x="-5.7%" y="-2.9%" filterUnits="objectBoundingBox">
            <feOffset dy="2" in="SourceAlpha" result="shadowOffsetOuter1"/>
            <feGaussianBlur in="shadowOffsetOuter1" result="shadowBlurOuter1" stdDeviation="1"/>
            <feColorMatrix in="shadowBlurOuter1" values="0 0 0 0 0.820595562 0 0 0 0 0.820595562 0 0 0 0 0.820595562 0 0 0 0.3 0"/>
        </filter>
        <rect id="aC" width="70" height="70" rx="4"/>
        <filter id="aB" width="111.4%" height="111.4%" x="-5.7%" y="-2.9%" filterUnits="objectBoundingBox">
            <feOffset dy="2" in="SourceAlpha" result="shadowOffsetOuter1"/>
            <feGaussianBlur in="shadowOffsetOuter1" result="shadowBlurOuter1" stdDeviation="1"/>
            <feColorMatrix in="shadowBlurOuter1" values="0 0 0 0 0.820595562 0 0 0 0 0.820595562 0 0 0 0 0.820595562 0 0 0 0.3 0"/>
        </filter>
        <rect id="aE" width="70" height="70" rx="4"/>
        <filter id="aD" width="111.4%" height="111.4%" x="-5.7%" y="-2.9%" filterUnits="objectBoundingBox">
            <feOffset dy="2" in="SourceAlpha" result="shadowOffsetOuter1"/>
            <feGaussianBlur in="shadowOffsetOuter1" result="shadowBlurOuter1" stdDeviation="1"/>
            <feColorMatrix in="shadowBlurOuter1" values="0 0 0 0 0.820595562 0 0 0 0 0.820595562 0 0 0 0 0.820595562 0 0 0 0.3 0"/>
        </filter>
    </defs>
    <g fill="none" fill-rule="evenodd">
        <mask id="b" fill="#fff">
            <use xlink:href="#a"/>
        </mask>
        <use fill="#F8FAFB" xlink:href="#a"/>
        <g mask="url(#b)">
            <g transform="translate(502 8)">
                <use fill="#000" filter="url(#c)" xlink:href="#d"/>
                <use fill="#FFF" xlink:href="#d"/>
            </g>
            <g transform="translate(512 23)">
                <rect width="10" height="16" x="10" y="23" fill="url(#e)" fill-opacity=".8" rx="1"/>
                <rect width="10" height="9" y="30" fill="url(#f)" rx="1"/>
                <rect width="10" height="23" x="20" y="16" fill="url(#g)" fill-opacity=".6" rx="1"/>
                <rect width="10" height="31" x="30" y="8" fill="url(#h)" fill-opacity=".4" rx="1"/>
                <rect width="10" height="39" x="40" fill="url(#i)" fill-opacity=".2" rx="1"/>
            </g>
            <g transform="translate(212 18)">
                <use fill="#000" filter="url(#j)" xlink:href="#k"/>
                <use fill="#FFF" xlink:href="#k"/>
            </g>
            <path fill="url(#l)" fill-opacity=".6" d="M31 19.496h8a1 1 0 0 1 1 1v29a1 1 0 0 1-1 1h-8a1 1 0 0 1-1-1v-29a1 1 0 0 1 1-1z" transform="rotate(45 119.272 299.902)"/>
            <path fill="url(#m)" fill-opacity=".6" d="M31 19.496h8a1 1 0 0 1 1 1v29a1 1 0 0 1-1 1h-8a1 1 0 0 1-1-1v-29a1 1 0 0 1 1-1z" transform="scale(-1 1) rotate(45 -127.728 -296.408)"/>
            <g transform="translate(652 148)">
                <use fill="#000" filter="url(#n)" xlink:href="#o"/>
                <use fill="#FFF" xlink:href="#o"/>
            </g>
            <g transform="translate(792 -2)">
                <use fill="#000" filter="url(#p)" xlink:href="#q"/>
                <use fill="#FFF" xlink:href="#q"/>
            </g>
            <path fill="url(#r)" fill-opacity=".8" d="M28.91 1.293l5.657 5.657a1 1 0 0 1 0 1.414L14.06 28.87a1 1 0 0 1-1.415 0L6.99 23.213a1.002 1.002 0 0 1-.154-.197L.293 16.472a1 1 0 0 1 0-1.415L5.95 9.401a1 1 0 0 1 1.414 0l6.011 6.011 14.12-14.12a1 1 0 0 1 1.415 0z" transform="translate(810 18)"/>
            <path fill="url(#s)" fill-opacity=".6" d="M16.778-.419h8a1 1 0 0 1 1 1v29a1 1 0 0 1-1 1h-8a1 1 0 0 1-1-1v-29a1 1 0 0 1 1-1z" transform="rotate(45 404.05 1001.838)"/>
            <g transform="translate(534 94)">
                <use fill="#000" filter="url(#t)" xlink:href="#u"/>
                <use fill="#FFF" xlink:href="#u"/>
            </g>
            <path fill="#CCC" fill-opacity=".7" d="M569.5 105c-13.531 0-24.5 10.969-24.5 24.5h20.5a4 4 0 0 0 4-4" opacity=".7"/>
            <path fill="#838383" fill-opacity=".5" d="M569.5 154c13.531 0 24.5-10.969 24.5-24.5h-20.5a4 4 0 0 0-4 4V154z" opacity=".7"/>
            <path fill="#E9E9E9" d="M569.5 154c-13.531 0-24.5-10.969-24.5-24.5h20.5a4 4 0 0 1 4 4V154z" opacity=".7"/>
            <path fill="#9B9B9B" fill-opacity=".9" d="M569.5 105c13.531 0 24.5 10.969 24.5 24.5h-20.5a4 4 0 0 1-4-4V105z" opacity=".7"/>
            <g transform="translate(448 -66)">
                <g transform="translate(0 192)">
                    <use fill="#000" filter="url(#v)" xlink:href="#w"/>
                    <use fill="#FFF" xlink:href="#w"/>
                </g>
                <g fill="url(#x)" transform="translate(20 212)">
                    <rect width="15" height="30" fill-opacity=".7" rx="1" transform="matrix(1 0 0 -1 0 30)"/>
                    <rect width="15" height="30" x="15" fill-opacity=".7" rx="1"/>
                    <path fill-opacity=".6" d="M30 1v13a1 1 0 0 1-1 1H1a1 1 0 0 1-1-1V1a1 1 0 0 1 1-1h28a1 1 0 0 1 1 1z"/>
                </g>
                <path fill="#CBB9FF" d="M58 250l-46-46h46z"/>
                <path fill="#FBF9FF" fill-opacity=".6" d="M12 250l46-46H12z"/>
                <rect width="70" height="70" x="516" fill="#FFF" rx="4"/>
                <rect width="70" height="70" x="546" y="86" fill="#FFF" rx="4"/>
            </g>
            <g>
                <g transform="translate(588 -24)">
                    <use fill="#000" filter="url(#y)" xlink:href="#z"/>
                    <use fill="#FFF" xlink:href="#z"/>
                </g>
                <g transform="translate(598 -14)">
                    <circle cx="25" cy="25" r="25" fill="#DEDEDE" fill-opacity=".7"/>
                    <circle cx="25" cy="25" r="18" fill="#D1D1D1"/>
                    <circle cx="25" cy="25" r="10" fill="#DBDBDB"/>
                    <circle cx="25" cy="25" r="5" fill="url(#A)" fill-opacity=".7"/>
                </g>
            </g>
            <g>
                <g transform="translate(330 72)">
                    <use fill="#000" filter="url(#B)" xlink:href="#C"/>
                    <use fill="#FFF" xlink:href="#C"/>
                </g>
                <g transform="translate(342 84)">
                    <rect width="46" height="46" fill="#92F1D3" fill-opacity=".2" rx="1"/>
                    <path fill="#D5F1E8" d="M46 46L0 0h46z"/>
                    <g transform="translate(8 8)">
                        <rect width="15" height="30" fill="url(#D)" fill-opacity=".7" rx="1" transform="matrix(1 0 0 -1 0 30)"/>
                        <rect width="15" height="30" x="15" fill="url(#D)" fill-opacity=".7" rx="1"/>
                        <path fill="url(#E)" fill-opacity=".6" d="M8.5 7.5h13a1 1 0 0 1 1 1v28a1 1 0 0 1-1 1h-13a1 1 0 0 1-1-1v-28a1 1 0 0 1 1-1z" transform="rotate(-90 15 22.5)"/>
                        <path fill="url(#E)" fill-opacity=".6" d="M8.5-7.5h13a1 1 0 0 1 1 1v28a1 1 0 0 1-1 1h-13a1 1 0 0 1-1-1v-28a1 1 0 0 1 1-1z" transform="rotate(90 15 7.5)"/>
                    </g>
                </g>
            </g>
            <g>
                <g transform="translate(910 52)">
                    <use fill="#000" filter="url(#F)" xlink:href="#G"/>
                    <use fill="#FFF" xlink:href="#G"/>
                </g>
                <g transform="translate(921 63)">
                    <circle cx="24" cy="24" r="24" fill="#DDD"/>
                    <g fill="#E9E9E9" transform="translate(8 10)">
                        <circle cx="10" cy="10" r="10"/>
                        <circle cx="23" cy="10" r="10"/>
                        <circle cx="17" cy="23" r="10"/>
                    </g>
                </g>
            </g>
            <g>
                <g transform="translate(620 62)">
                    <use fill="#000" filter="url(#H)" xlink:href="#I"/>
                    <use fill="#FFF" xlink:href="#I"/>
                </g>
                <g transform="translate(631 73)">
                    <circle cx="24" cy="24" r="24" fill="#FADDE2"/>
                    <g fill-opacity=".8" transform="translate(8 10)">
                        <circle cx="10" cy="10" r="10" fill="#DB2441"/>
                        <circle cx="23" cy="10" r="10" fill="#EC8998"/>
                        <circle cx="17" cy="23" r="10" fill="#E56175"/>
                    </g>
                </g>
            </g>
            <g>
                <g transform="translate(298 -56)">
                    <use fill="#000" filter="url(#J)" xlink:href="#K"/>
                    <use fill="#FFF" xlink:href="#K"/>
                    <path fill="url(#L)" d="M616.789 36.578l20.764 41.528a2 2 0 0 1-1.79 2.894h-41.527a2 2 0 0 1-1.789-2.894l20.764-41.528a2 2 0 0 1 3.578 0z" transform="matrix(-1 0 0 1 1230 0)"/>
                    <path fill="url(#M)" d="M616.789 36.578L630.5 64h-31l13.711-27.422a2 2 0 0 1 3.578 0z" transform="matrix(-1 0 0 1 1230 0)"/>
                    <use fill="#000" filter="url(#N)" xlink:href="#O"/>
                    <use fill="#FFF" xlink:href="#O"/>
                    <rect width="70" height="70" x="64" y="214" fill="#FFF" rx="4"/>
                    <rect width="70" height="70" y="28" fill="#FFF" rx="4"/>
                </g>
                <g transform="translate(298 -14)">
                    <use fill="#000" filter="url(#P)" xlink:href="#Q"/>
                    <use fill="#FFF" xlink:href="#Q"/>
                </g>
                <path stroke="url(#R)" stroke-linecap="round" stroke-linejoin="round" stroke-width="10" d="M52 28l-7.134 7.06H34.501L27.49 42H18" transform="translate(298 -14)"/>
                <g transform="translate(244 -46)">
                    <use fill="#000" filter="url(#S)" xlink:href="#T"/>
                    <use fill="#FFF" xlink:href="#T"/>
                </g>
                <path fill="url(#U)" fill-opacity=".8" d="M171 35h8a1 1 0 0 1 1 1v14a1 1 0 0 1-1 1h-8a1 1 0 0 1-1-1V36a1 1 0 0 1 1-1z" transform="rotate(-45 241.473 -274.534)"/>
                <path fill="url(#V)" fill-opacity=".6" d="M171 32h8a1 1 0 0 1 1 1v21a1 1 0 0 1-1 1h-8a1 1 0 0 1-1-1V33a1 1 0 0 1 1-1z" transform="rotate(45 352.527 315.034)"/>
                <g transform="translate(824 84)">
                    <use fill="#000" filter="url(#W)" xlink:href="#X"/>
                    <use fill="#FFF" xlink:href="#X"/>
                    <rect width="46" height="46" x="12" y="12" fill="#D5D5D5" fill-opacity=".6" rx="1"/>
                    <path fill="#F5F5F5" d="M58 12L20 51h38z"/>
                </g>
                <g transform="translate(244 104)">
                    <use fill="#000" filter="url(#Y)" xlink:href="#Z"/>
                    <use fill="#FFF" xlink:href="#Z"/>
                </g>
                <g opacity=".7">
                    <path fill="#CCC" fill-opacity=".6" d="M294.071 123.549c-12.714 4.628-19.27 18.687-14.642 31.402l19.263-7.011a4 4 0 0 0 2.39-5.127"/>
                    <path fill="#D3D3D3" d="M287.951 146.571c-12.715 4.628-26.774-1.928-31.402-14.642l19.264-7.012a4 4 0 0 1 5.127 2.39l7.011 19.264z"/>
                </g>
                <g>
                    <g transform="translate(416 40)">
                        <use fill="#000" filter="url(#aa)" xlink:href="#ab"/>
                        <use fill="#FFF" xlink:href="#ab"/>
                    </g>
                    <g fill-opacity=".6">
                        <path fill="url(#ac)" d="M9-7h13a1 1 0 0 1 1 1v28a1 1 0 0 1-1 1H9a1 1 0 0 1-1-1V-6a1 1 0 0 1 1-1z" transform="rotate(-90 263 -172.5)"/>
                        <path fill="url(#ad)" d="M24-7h13a1 1 0 0 1 1 1v28a1 1 0 0 1-1 1H24a1 1 0 0 1-1-1V-6a1 1 0 0 1 1-1z" transform="rotate(90 211 255.5)"/>
                    </g>
                </g>
                <g>
                    <g transform="translate(738 116)">
                        <use fill="#000" filter="url(#ae)" xlink:href="#af"/>
                        <use fill="#FFF" xlink:href="#af"/>
                    </g>
                    <path fill="#838383" fill-opacity=".5" d="M751 169c13.531 0 24.5-10.969 24.5-24.5H755a4 4 0 0 0-4 4V169z" opacity=".7"/>
                    <path fill="#9B9B9B" fill-opacity=".9" d="M775.5 144.5c13.531 0 24.5 10.969 24.5 24.5h-20.5a4 4 0 0 1-4-4v-20.5z" opacity=".7"/>
                    <g transform="translate(362 158)">
                        <use fill="#000" filter="url(#ag)" xlink:href="#ah"/>
                        <use fill="#FFF" xlink:href="#ah"/>
                    </g>
                    <g transform="translate(24 -4)">
                        <use fill="#000" filter="url(#ai)" xlink:href="#aj"/>
                        <use fill="#FFF" xlink:href="#aj"/>
                    </g>
                    <g transform="translate(34 21)">
                        <circle cx="10" cy="10" r="10" fill="#F1F1F1"/>
                        <circle cx="24" cy="10" r="10" fill="#DFDFDF"/>
                        <circle cx="38" cy="10" r="10" fill="#C5C5C5"/>
                    </g>
                    <g>
                        <g transform="translate(706 30)">
                            <use fill="#000" filter="url(#ak)" xlink:href="#al"/>
                            <use fill="#FFF" xlink:href="#al"/>
                        </g>
                        <path fill="url(#am)" d="M15.289 14.078l10.264 20.528a2 2 0 0 1-1.79 2.894H3.237a2 2 0 0 1-1.789-2.894l10.264-20.528a2 2 0 0 1 3.578 0z" transform="rotate(45 317.852 921.067)"/>
                        <path fill="url(#L)" d="M15.289 3.578l10.264 20.528A2 2 0 0 1 23.763 27H3.237a2 2 0 0 1-1.789-2.894L11.711 3.578a2 2 0 0 1 3.578 0z" transform="scale(1 -1) rotate(-45 285.26 -907.567)"/>
                    </g>
                    <g>
                        <g transform="translate(110 -36)">
                            <use fill="#000" filter="url(#an)" xlink:href="#ao"/>
                            <use fill="#FFF" xlink:href="#ao"/>
                        </g>
                        <path fill="url(#l)" fill-opacity=".6" d="M31 20h8a1 1 0 0 1 1 1v29a1 1 0 0 1-1 1h-8a1 1 0 0 1-1-1V21a1 1 0 0 1 1-1z" transform="rotate(65 118.254 103.833)"/>
                        <path fill="url(#m)" fill-opacity=".6" d="M31 20h8a1 1 0 0 1 1 1v29a1 1 0 0 1-1 1h-8a1 1 0 0 1-1-1V21a1 1 0 0 1 1-1z" transform="scale(-1 1) rotate(65 -26.746 -123.772)"/>
                        <g transform="translate(-62 -68)">
                            <use fill="#000" filter="url(#ap)" xlink:href="#aq"/>
                            <use fill="#FFF" xlink:href="#aq"/>
                        </g>
                        <g transform="translate(910 52)">
                            <use fill="#000" filter="url(#ar)" xlink:href="#as"/>
                            <use fill="#FFF" xlink:href="#as"/>
                            <circle cx="21" cy="21" r="4" fill="#F1F1F1"/>
                            <circle cx="35" cy="21" r="4" fill="#DFDFDF"/>
                            <circle cx="49" cy="21" r="4" fill="#C5C5C5"/>
                            <circle cx="21" cy="35" r="4" fill="#F1F1F1"/>
                            <circle cx="35" cy="35" r="4" fill="#DFDFDF"/>
                            <circle cx="49" cy="35" r="4" fill="#C5C5C5"/>
                            <circle cx="21" cy="49" r="4" fill="#F1F1F1"/>
                            <circle cx="35" cy="49" r="4" fill="#DFDFDF"/>
                            <circle cx="49" cy="49" r="4" fill="#C5C5C5"/>
                        </g>
                        <g transform="translate(-62 28)">
                            <use fill="#000" filter="url(#at)" xlink:href="#au"/>
                            <use fill="#FFF" xlink:href="#au"/>
                        </g>
                        <g transform="translate(-62 28)">
                            <use fill="#000" filter="url(#av)" xlink:href="#aw"/>
                            <use fill="#FFF" xlink:href="#aw"/>
                        </g>
                        <g transform="translate(-62 28)">
                            <use fill="#000" filter="url(#ax)" xlink:href="#ay"/>
                            <use fill="#FFF" xlink:href="#ay"/>
                        </g>
                        <g transform="translate(-62 28)">
                            <use fill="#000" filter="url(#az)" xlink:href="#aA"/>
                            <use fill="#FFF" xlink:href="#aA"/>
                        </g>
                        <g fill="#C5C5C5">
                            <path d="M169.662 78A9.954 9.954 0 0 1 171 83c0 5.523-4.477 10-10 10s-10-4.477-10-10c0-1.82.487-3.529 1.338-5 1.73 2.99 4.961 5 8.662 5a9.995 9.995 0 0 0 8.59-4.877zM169.662 95a9.954 9.954 0 0 1 1.338 5c0 5.523-4.477 10-10 10s-10-4.477-10-10c0-1.82.487-3.529 1.338-5 1.73 2.99 4.961 5 8.662 5a9.995 9.995 0 0 0 8.59-4.877zM169.662 61A9.954 9.954 0 0 1 171 66c0 5.523-4.477 10-10 10s-10-4.477-10-10c0-1.82.487-3.529 1.338-5 1.73 2.99 4.961 5 8.662 5a9.995 9.995 0 0 0 8.59-4.877z"/>
                        </g>
                        <g>
                            <g transform="translate(40 82)">
                                <use fill="#000" filter="url(#aB)" xlink:href="#aC"/>
                                <use fill="#FFF" xlink:href="#aC"/>
                            </g>
                            <g fill="url(#ad)" fill-opacity=".3" transform="translate(60 102)">
                                <path d="M17 0h13a1 1 0 0 1 1 1v28a1 1 0 0 1-1 1H17a1 1 0 0 1-1-1V1a1 1 0 0 1 1-1z"/>
                                <path d="M13 0h13a1 1 0 0 1 1 1v28a1 1 0 0 1-1 1H13a1 1 0 0 1-1-1V1a1 1 0 0 1 1-1z"/>
                                <path d="M9 0h13a1 1 0 0 1 1 1v28a1 1 0 0 1-1 1H9a1 1 0 0 1-1-1V1a1 1 0 0 1 1-1z"/>
                                <path d="M5 0h13a1 1 0 0 1 1 1v28a1 1 0 0 1-1 1H5a1 1 0 0 1-1-1V1a1 1 0 0 1 1-1z"/>
                                <path d="M1 0h13a1 1 0 0 1 1 1v28a1 1 0 0 1-1 1H1a1 1 0 0 1-1-1V1a1 1 0 0 1 1-1z"/>
                            </g>
                        </g>
                        <g>
                            <g transform="translate(924 138)">
                                <use fill="#000" filter="url(#aD)" xlink:href="#aE"/>
                                <use fill="#FFF" xlink:href="#aE"/>
                            </g>
                            <g fill-opacity=".7" transform="translate(940 146)">
                                <circle cx="5" cy="13" r="4" fill="#F1F1F1"/>
                                <circle cx="8" cy="10" r="4" fill="#F1F1F1"/>
                                <circle cx="11" cy="7" r="4" fill="#F1F1F1"/>
                                <circle cx="14" cy="4" r="4" fill="#EAEAEA"/>
                                <circle cx="11" cy="10" r="4" fill="#EAEAEA"/>
                                <circle cx="4" cy="8" r="4" fill="#F1F1F1"/>
                                <circle cx="9" cy="15" r="4" fill="#EAEAEA"/>
                            </g>
                        </g>
                    </g>
                </g>
            </g>
        </g>
    </g>
</svg>
