<svg width="470" height="213" viewBox="0 0 470 213" fill="none" xmlns="http://www.w3.org/2000/svg">
<path fill-rule="evenodd" clip-rule="evenodd" d="M0 213C5.36667 140.377 36.5838 107.472 65.2013 90.9264C107.663 66.3777 134.419 83.6169 229.32 60.8054C326.182 37.5219 344.5 21.4695 400.626 17.9791C440.5 15.5 472.843 25.7903 484.5 40.5C533.46 102.285 539.634 200.961 533.79 213H0Z" fill="#F0F4FF"/>
<path d="M418.104 99.7559C418.104 99.7559 441.436 100.472 447.139 82.6785" stroke="#ADC0FD" stroke-width="4.85752"/>
<path fill-rule="evenodd" clip-rule="evenodd" d="M462.002 86.9359L488.763 60.7952L470.714 42.3205L443.954 68.4623L443.741 86.6952L462.002 86.9359Z" fill="#ADC0FD"/>
<rect x="327.879" y="63.5798" width="92.1146" height="84.2191" rx="13.5791" fill="#ADC0FD"/>
<path fill-rule="evenodd" clip-rule="evenodd" d="M352.62 91.9556V90.3562H348.221V91.9556M358.522 91.9556V90.3562H354.12V91.9556" fill="#022786"/>
<path fill-rule="evenodd" clip-rule="evenodd" d="M403.006 88.7749H369.56V91.9696H345.812V97.3549H403.006V88.7749Z" fill="#7996F9"/>
<path fill-rule="evenodd" clip-rule="evenodd" d="M345.812 123.922H403.006V97.3545H345.812V123.922Z" fill="#E5ECFF"/>
<path fill-rule="evenodd" clip-rule="evenodd" d="M398.173 94.6627H391.226C390.436 94.6301 389.814 94.0354 389.814 93.3129C389.814 92.5903 390.436 91.9957 391.226 91.963H398.173C398.984 91.963 399.651 92.5697 399.651 93.3143C399.651 94.0588 398.984 94.6627 398.173 94.6627Z" fill="white"/>
<path fill-rule="evenodd" clip-rule="evenodd" d="M360.055 91.9737H369.59V88.7749H360.055V91.9737Z" fill="#D0DBFF"/>
<path d="M360.774 88.7524V91.9677H361.679V88.7524H360.774ZM365.539 88.7524V91.9677H366.444V88.7524H365.539ZM363.155 88.7524V91.9677H364.061V88.7524H363.155ZM367.923 88.7524V91.9677H368.828V88.7524H367.923Z" fill="#022786"/>
<path d="M345.812 97.3441H403.006" stroke="#D0DBFF" stroke-width="3.01758" stroke-linejoin="round"/>
<path fill-rule="evenodd" clip-rule="evenodd" d="M397.532 109.748C397.532 117.57 390.596 123.912 382.041 123.912C373.485 123.912 366.549 117.57 366.549 109.748C366.549 101.925 373.485 95.584 382.041 95.584C390.596 95.584 397.532 101.925 397.532 109.748Z" fill="#022786"/>
<path fill-rule="evenodd" clip-rule="evenodd" d="M393.97 109.745C394.038 113.681 391.781 117.345 388.063 119.332C384.346 121.318 379.746 121.318 376.029 119.332C372.312 117.345 370.054 113.681 370.123 109.745C370.226 103.792 375.534 99.0156 382.046 99.0156C388.558 99.0156 393.866 103.792 393.97 109.745Z" fill="#FEFEFE"/>
<path fill-rule="evenodd" clip-rule="evenodd" d="M387.882 109.758C387.883 112.714 385.262 115.111 382.029 115.111C378.796 115.112 376.175 112.717 376.174 109.761C376.174 106.805 378.795 104.408 382.028 104.408C385.261 104.408 387.882 106.805 387.882 109.761V109.758Z" fill="#9CF0CD"/>
<path d="M122.365 144.535C122.365 144.535 104.869 142.025 99.1178 158.86" stroke="#ADC0FD" stroke-width="4.62496"/>
<path fill-rule="evenodd" clip-rule="evenodd" d="M83.3483 155.866L57.3994 180.266L74.2467 198.18L100.194 173.779L100.728 156.426L83.3483 155.866Z" fill="#ADC0FD"/>
<rect x="116.15" y="82.2856" width="87.7045" height="80.187" rx="12.929" fill="#7996F9"/>
<path fill-rule="evenodd" clip-rule="evenodd" d="M185.956 122.547C185.956 135.732 174.266 146.419 159.846 146.419C145.426 146.419 133.736 135.732 133.736 122.547C133.736 109.363 145.426 98.6755 159.846 98.6755C174.266 98.6755 185.956 109.363 185.956 122.547Z" fill="#FFDB6C"/>
<path d="M147.178 102.15C151.157 102.977 157.219 104.813 162.988 109.226C176.951 119.896 177.247 136.476 177.25 139.187" stroke="#E3A700" stroke-width="2.15483" stroke-linejoin="bevel"/>
<path d="M156.509 114.65L157.113 115.542L157.113 115.542L156.509 114.65ZM151.503 108.776L151.835 109.801L151.835 109.801L151.503 108.776ZM161.312 132.439L160.238 132.347L160.238 132.348L161.312 132.439ZM165.032 118.58L165.689 119.434L165.689 119.434L165.032 118.58ZM175.033 114.298L174.899 115.367L174.901 115.368L175.033 114.298ZM177.007 104.47C169.399 106.319 162.239 109.469 155.905 113.758L157.113 115.542C163.229 111.401 170.152 108.353 177.516 106.563L177.007 104.47ZM155.905 113.758C145.607 120.73 140.002 128.998 137.296 133.735L139.167 134.803C141.77 130.246 147.174 122.271 157.113 115.542L155.905 113.758ZM163.569 99.2146C162.502 99.3592 162.501 99.3579 162.501 99.3567C162.501 99.3563 162.501 99.3551 162.501 99.3543C162.501 99.3528 162.501 99.3513 162.5 99.35C162.5 99.3472 162.5 99.3447 162.499 99.3426C162.499 99.3383 162.499 99.3352 162.498 99.3333C162.498 99.3294 162.498 99.3303 162.499 99.3357C162.499 99.3465 162.5 99.3754 162.499 99.4209C162.496 99.5118 162.483 99.6699 162.434 99.8839C162.336 100.308 162.093 100.974 161.477 101.789C160.239 103.423 157.447 105.716 151.17 107.751L151.835 109.801C158.357 107.686 161.599 105.198 163.195 103.089C163.995 102.032 164.368 101.086 164.534 100.366C164.616 100.008 164.646 99.7107 164.653 99.4895C164.656 99.379 164.654 99.2876 164.65 99.2171C164.648 99.1818 164.646 99.1518 164.643 99.1272C164.642 99.1149 164.641 99.104 164.64 99.0945C164.639 99.0897 164.639 99.0853 164.638 99.0812C164.638 99.0792 164.638 99.0772 164.638 99.0754C164.637 99.0744 164.637 99.0731 164.637 99.0726C164.637 99.0713 164.637 99.07 163.569 99.2146ZM151.17 107.751C144.742 109.835 140.823 111.411 138.496 112.476C137.332 113.009 136.563 113.415 136.075 113.696C135.831 113.837 135.656 113.946 135.536 114.025C135.477 114.064 135.431 114.096 135.397 114.12C135.38 114.132 135.366 114.142 135.355 114.151C135.349 114.155 135.344 114.159 135.34 114.162C135.338 114.163 135.336 114.165 135.334 114.166C135.333 114.167 135.333 114.168 135.332 114.168C135.331 114.168 135.331 114.169 135.331 114.169C135.33 114.17 135.329 114.17 135.988 115.022C136.647 115.875 136.647 115.875 136.646 115.876C136.646 115.876 136.645 115.876 136.645 115.876C136.644 115.877 136.644 115.877 136.643 115.878C136.642 115.879 136.641 115.879 136.64 115.88C136.639 115.881 136.638 115.882 136.638 115.882C136.638 115.882 136.641 115.88 136.647 115.876C136.659 115.867 136.684 115.85 136.723 115.824C136.802 115.771 136.939 115.685 137.149 115.564C137.57 115.322 138.279 114.945 139.393 114.435C141.623 113.414 145.461 111.867 151.835 109.801L151.17 107.751ZM154.23 145.171C154.981 145.943 154.981 145.943 154.981 145.942C154.981 145.942 154.982 145.942 154.982 145.942C154.982 145.941 154.983 145.941 154.983 145.94C154.985 145.939 154.986 145.937 154.988 145.935C154.992 145.931 154.998 145.926 155.005 145.919C155.02 145.905 155.04 145.884 155.066 145.858C155.118 145.806 155.193 145.73 155.287 145.633C155.476 145.437 155.743 145.153 156.064 144.794C156.706 144.076 157.566 143.05 158.446 141.817C160.182 139.384 162.092 136.006 162.385 132.529L160.238 132.348C159.994 135.235 158.363 138.223 156.692 140.566C155.868 141.72 155.059 142.684 154.457 143.358C154.156 143.695 153.908 143.959 153.737 144.136C153.651 144.225 153.584 144.292 153.54 144.337C153.518 144.359 153.502 144.375 153.491 144.385C153.486 144.391 153.482 144.394 153.48 144.396C153.479 144.397 153.478 144.398 153.478 144.398C153.478 144.399 153.478 144.399 153.478 144.399C153.478 144.399 153.478 144.399 153.478 144.399C153.478 144.398 153.478 144.398 154.23 145.171ZM162.385 132.53C162.662 129.29 162.807 126.524 163.265 124.232C163.72 121.953 164.442 120.393 165.689 119.434L164.375 117.726C162.51 119.16 161.644 121.348 161.152 123.81C160.663 126.258 160.504 129.225 160.238 132.347L162.385 132.53ZM165.689 119.434C167.21 118.263 168.883 117.147 170.519 116.373C172.175 115.59 173.676 115.214 174.899 115.367L175.167 113.229C173.35 113.002 171.405 113.57 169.598 114.425C167.771 115.289 165.962 116.504 164.375 117.726L165.689 119.434ZM174.901 115.368C177.685 115.711 182.04 117.438 183.921 122.724L185.951 122.001C183.712 115.709 178.472 113.637 175.165 113.229L174.901 115.368Z" fill="#E3A700"/>
<path d="M133.025 68.4641C133.025 68.4641 145.213 70.2122 149.22 58.4849" stroke="#7996F9" stroke-width="3.22179"/>
<path fill-rule="evenodd" clip-rule="evenodd" d="M160.206 60.5705L178.282 43.5732L166.546 31.0942L148.47 48.0923L148.099 60.1805L160.206 60.5705Z" fill="#7996F9"/>
<path d="M239.717 38.782C239.717 38.782 227.529 40.5301 223.522 28.8028" stroke="#7996F9" stroke-width="3.22179"/>
<path fill-rule="evenodd" clip-rule="evenodd" d="M212.537 30.8884L194.46 13.8911L206.196 1.41211L224.272 18.4102L224.643 30.4984L212.537 30.8884Z" fill="#7996F9"/>
<rect x="73.0098" y="36.4807" width="61.0958" height="55.859" rx="9.00645" fill="#ADC0FD"/>
<path fill-rule="evenodd" clip-rule="evenodd" d="M95.2988 80.0815C96.6758 75.291 100.458 69.1996 101.661 67.6991C102.944 66.0962 106.278 62.1511 109.699 58.1255C113.117 54.0998 114.98 50.8245 114.98 50.8245C114.98 50.8245 122.133 54.356 123.588 55.8583C125.029 57.346 126.154 65.9791 126.154 65.9791H117.646V80.0815H95.2988Z" fill="#67D3A6"/>
<path fill-rule="evenodd" clip-rule="evenodd" d="M91.1386 65.9809V80.0888H114.218C113.194 75.0477 108.406 69.302 107.126 67.7009C105.841 66.098 102.508 62.1511 99.0881 58.1255C95.6697 54.0998 93.8045 50.8245 93.8045 50.8245C93.8045 50.8245 86.6516 54.3579 85.1966 55.8601C83.7576 57.3478 82.6328 65.9809 82.6328 65.9809H91.1386Z" fill="#9CF0CD"/>
<rect x="236" y="19.2" width="61.0958" height="55.859" rx="9.00645" fill="#D0DBFF"/>
<path fill-rule="evenodd" clip-rule="evenodd" d="M245.846 42.2107C245.931 42.2107 256.492 42.1485 260.494 43.2281C264.497 44.3095 267.139 44.5126 270.822 43.5666C274.5 42.6206 281.959 42.2693 284.809 42.2162C287.657 42.1613 288.536 42.0387 288.542 42.6938C288.546 43.3489 288.414 44.4028 288.36 44.6334C288.314 44.8219 288.217 45.1439 287.679 45.4385C287.382 45.605 287.177 45.8792 287.115 46.1924C286.824 47.6178 285.96 51.4001 284.753 52.5657C283.254 54.0131 280.94 54.8731 278.233 54.9664C275.523 55.0579 271.44 54.6974 269.176 50.3955C269.176 50.3955 267.986 47.8081 267.872 47.5263C267.757 47.2446 266.174 44.6096 264.335 49.3452C262.496 54.0808 258.035 55.4842 254.737 55.1091C251.436 54.7359 246.735 53.5556 246.417 47.9838C246.417 47.9838 246.409 46.573 245.873 45.8813C245.336 45.1915 244.472 45.1952 244.518 43.9893C244.566 42.7816 244.143 42.2016 245.846 42.2089V42.2107Z" fill="#022786"/>
<path fill-rule="evenodd" clip-rule="evenodd" d="M247.808 44.7017L245.655 44.7145C245.601 44.7145 245.558 44.6755 245.557 44.6267L245.551 43.8403C245.551 43.7927 245.595 43.7525 245.649 43.7525L247.8 43.7397C247.854 43.7397 247.898 43.7799 247.9 43.8293L247.904 44.6121C247.905 44.6359 247.895 44.6588 247.877 44.676C247.859 44.6932 247.834 44.7031 247.808 44.7035V44.7017ZM287.326 44.4869L285.172 44.4979C285.119 44.4979 285.075 44.4588 285.074 44.4101L285.068 43.6254C285.068 43.576 285.112 43.5358 285.166 43.5358L287.318 43.523C287.372 43.523 287.416 43.5632 287.416 43.6126L287.422 44.3973C287.422 44.4461 287.379 44.4859 287.326 44.4869ZM259.51 53.0871C258.101 53.7659 256.65 54.2984 254.613 54.0752C251.354 53.7202 248.072 52.0587 247.928 48.3533C247.782 44.6479 249.869 42.8785 254.539 43.2774C254.539 43.2774 259.208 43.3982 261.199 44.9096C262.94 46.2307 263.589 48.7431 262.406 50.5766C262.233 50.8452 262.025 51.0934 261.786 51.3158C261.786 51.3158 260.737 52.4979 259.51 53.0889V53.0871ZM273.609 53.0236C275.024 53.6713 276.481 54.1745 278.512 53.933C281.761 53.5487 285.017 51.8872 285.113 48.266C285.207 44.643 283.097 42.9412 278.44 43.3804C278.44 43.3804 273.779 43.5542 271.812 45.0529C270.091 46.363 269.474 48.8241 270.681 50.6027C270.853 50.8589 271.063 51.0968 271.313 51.3182C271.313 51.3182 272.374 52.46 273.609 53.0236Z" fill="white"/>
<path d="M353.814 184.409C353.814 184.409 366.79 189.714 374.461 177.872" stroke="#7996F9" stroke-width="3.66798"/>
<path fill-rule="evenodd" clip-rule="evenodd" d="M386.016 183.217L410.684 169.451L401.178 152.421L376.512 166.189L372.755 179.435L386.016 183.217Z" fill="#7996F9"/>
<rect x="290" y="139.405" width="69.557" height="63.5949" rx="10.2538" fill="#D0DBFF"/>
<path fill-rule="evenodd" clip-rule="evenodd" d="M326.001 165.772H309.183C308.88 165.772 308.622 165.974 308.575 166.247L304.428 190.086C304.399 190.249 304.45 190.416 304.568 190.542C304.685 190.668 304.857 190.74 305.038 190.74H346.963C347.342 190.74 347.633 190.428 347.574 190.086L343.427 166.247C343.377 165.974 343.119 165.774 342.817 165.772H326.001Z" fill="#FFDB6C"/>
<path d="M343.404 167.952L332.941 180.173C332.826 180.306 332.65 180.385 332.464 180.385H319.543C319.358 180.385 319.183 180.306 319.069 180.173L308.604 167.952" stroke="#E3A700" stroke-width="1.13931"/>
<path fill-rule="evenodd" clip-rule="evenodd" d="M324.484 182.557H327.269V178.195H324.484V182.557Z" fill="#022786"/>
<path d="M315.26 165.767C317.757 155.776 322.125 149.018 325.887 149.22C329.492 149.416 332.773 156.022 334.053 158.601C335.452 161.413 336.143 163.94 336.514 165.767" stroke="#022786" stroke-width="1.13931"/>
</svg>
