<svg xmlns="http://www.w3.org/2000/svg" xmlns:xlink="http://www.w3.org/1999/xlink" width="40" height="40" viewBox="0 0 40 40">
    <defs>
        <path id="a" d="M0 0h40v40H0z"/>
        <rect id="c" width="24" height="28" x="10" y="4" rx="2"/>
        <rect id="d" width="14" height="14" y="11" rx="1"/>
    </defs>
    <g fill="none" fill-rule="evenodd">
        <mask id="b" fill="#fff">
            <use xlink:href="#a"/>
        </mask>
        <use fill="#FFF" fill-opacity=".5" fill-rule="nonzero" xlink:href="#a"/>
        <g mask="url(#b)">
            <g transform="translate(2 4)">
                <circle cx="32" cy="4" r="4" fill="#50E3C2" fill-rule="nonzero"/>
                <g fill-rule="nonzero">
                    <use fill="#FFF" xlink:href="#c"/>
                    <rect width="22" height="26" x="11" y="5" fill="#2F88EC" fill-opacity=".3" fill-rule="evenodd" stroke="#2F88EC" stroke-linejoin="square" stroke-width="2" rx="2"/>
                </g>
                <path fill="#FFF" fill-rule="nonzero" stroke="#2F88EC" stroke-width="2" d="M16 7h12V4a1 1 0 0 0-1-1h-4V2a1 1 0 0 0-2 0v1h-4a1 1 0 0 0-1 1v3z"/>
                <rect width="3" height="2" x="27" y="11" fill="#2F88EC" rx="1" transform="matrix(1 0 0 -1 0 24)"/>
                <rect width="8" height="2" x="18" y="11" fill="#2F88EC" rx="1" transform="matrix(1 0 0 -1 0 24)"/>
                <rect width="12" height="2" x="18" y="15" fill="#2F88EC" rx="1" transform="matrix(1 0 0 -1 0 32)"/>
                <rect width="12" height="2" x="18" y="19" fill="#2F88EC" rx="1" transform="matrix(1 0 0 -1 0 40)"/>
                <rect width="8" height="2" x="18" y="23" fill="#2F88EC" rx="1" transform="matrix(1 0 0 -1 0 48)"/>
                <g transform="matrix(1 0 0 -1 0 36)">
                    <use fill="#FFF" style="mix-blend-mode:darken" xlink:href="#d"/>
                    <rect width="16" height="16" x="-1" y="10" fill="#E2EDF3" stroke="#FFF" stroke-width="2" rx="1"/>
                </g>
                <g fill-rule="nonzero" transform="translate(0 13)">
                    <circle cx="9" cy="6" r="3" fill="#FFF" stroke="#FED428" stroke-width="2"/>
                    <path fill="#2FB7EC" d="M4 0l4 6H0z"/>
                </g>
                <rect width="4" height="2" x="12" y="30" fill="#2F88EC" rx="1" transform="matrix(1 0 0 -1 0 62)"/>
                <rect width="3" height="2" x="17" y="30" fill="#2F88EC" rx="1" transform="matrix(1 0 0 -1 0 62)"/>
            </g>
        </g>
    </g>
</svg>
