<svg width="28" height="29" viewBox="0 0 28 29" fill="none" xmlns="http://www.w3.org/2000/svg">
<path d="M2.39917 5.89319H6.69599L8.95068 19.0456L7.82333 22.1771H21.7273" stroke="#5A7385" stroke-linecap="round" stroke-linejoin="round"/>
<circle cx="10.3912" cy="23.5595" r="0.940498" stroke="#5A7385"/>
<circle cx="19.0342" cy="23.5595" r="0.940498" stroke="#5A7385"/>
<path fill-rule="evenodd" clip-rule="evenodd" d="M22.5747 13.3555L21.7206 19.1188C21.6842 19.364 21.4738 19.5455 21.226 19.5455H8.82517C8.57961 19.5455 8.3704 19.3672 8.33149 19.1248L6.7031 8.97865C6.67979 8.83344 6.7216 8.68533 6.81739 8.57374C6.91319 8.46215 7.05325 8.39839 7.20031 8.39943L16.1674 8.46278C16.18 8.80592 16.2256 9.14061 16.3013 9.46375L7.78409 9.40358L9.25132 18.5455H20.7946L21.5441 13.4889C21.8976 13.4785 22.2422 13.4329 22.5747 13.3555Z" fill="#5A7385"/>
<path d="M18.3213 9.13677L19.958 10.7735L23.0591 7.67236" stroke="#5A7385"/>
<circle cx="20.6904" cy="9.2229" r="4.7229" stroke="#5A7385"/>
</svg>
