<svg width="28" height="29" viewBox="0 0 28 29" fill="none" xmlns="http://www.w3.org/2000/svg">
<g clip-path="url(#clip0)">
<line x1="10.665" y1="23.9429" x2="10.665" y2="27.1288" stroke="#376EEE"/>
<line x1="13.886" y1="23.9429" x2="13.886" y2="28.7148" stroke="#376EEE"/>
<line x1="17.1067" y1="23.9429" x2="17.1067" y2="27.1288" stroke="#376EEE"/>
<path d="M19.2801 21.7613L18.7931 21.6479L18.6503 22.2613H19.2801V21.7613ZM19.6595 13.9943L19.9589 13.5939L19.0373 12.9046L19.1624 14.0486L19.6595 13.9943ZM8.11999 14.0989L8.61541 14.1664L8.7803 12.9568L7.81428 13.7032L8.11999 14.0989ZM8.45691 21.7613V22.2613H9.08094L8.94488 21.6523L8.45691 21.7613ZM21.9797 21.2613H19.2801V22.2613H21.9797V21.2613ZM23.25 20.4557C23.25 20.6613 23.1983 20.7893 23.1385 20.8752C23.0758 20.9651 22.9813 21.0408 22.8516 21.1023C22.5782 21.2317 22.2263 21.2613 21.9797 21.2613V22.2613C22.2681 22.2613 22.8014 22.2324 23.2794 22.0061C23.5253 21.8897 23.7732 21.7133 23.9588 21.4471C24.1473 21.1767 24.25 20.8444 24.25 20.4557H23.25ZM19.36 14.3947C20.7197 15.4116 21.6988 16.7195 22.338 17.8966C22.657 18.4842 22.8881 19.0332 23.0383 19.4883C23.1923 19.955 23.25 20.2887 23.25 20.4557H24.25C24.25 20.1304 24.1539 19.6777 23.9879 19.1749C23.8181 18.6604 23.5628 18.0567 23.2168 17.4194C22.5257 16.1467 21.4596 14.7162 19.9589 13.5939L19.36 14.3947ZM19.1624 14.0486C19.4949 17.0886 19.2061 19.8742 18.7931 21.6479L19.767 21.8747C20.2046 19.9955 20.5017 17.0965 20.1565 13.9399L19.1624 14.0486ZM4.75 20.1406C4.75 20.0208 4.80008 19.7354 4.94607 19.3085C5.08703 18.8962 5.30444 18.3894 5.60552 17.8401C6.20857 16.7399 7.13464 15.4921 8.42571 14.4945L7.81428 13.7032C6.39086 14.8031 5.38194 16.1675 4.72861 17.3594C4.40151 17.9562 4.16038 18.5155 3.99985 18.9849C3.84436 19.4397 3.75 19.8517 3.75 20.1406H4.75ZM5.83537 21.2613C5.54807 21.2613 5.27659 21.188 5.08698 21.0348C4.91633 20.8968 4.75 20.645 4.75 20.1406H3.75C3.75 20.8967 4.01634 21.4552 4.45837 21.8125C4.88144 22.1544 5.40265 22.2613 5.83537 22.2613V21.2613ZM8.45691 21.2613H5.83537V22.2613H8.45691V21.2613ZM8.94488 21.6523C8.34403 18.9628 8.30457 16.4467 8.61541 14.1664L7.62458 14.0314C7.29868 16.4221 7.34066 19.0581 7.96894 21.8703L8.94488 21.6523Z" fill="#376EEE"/>
<path fill-rule="evenodd" clip-rule="evenodd" d="M8.47797 21.7612H19.2585C20.2625 17.5745 20.5109 7.70183 13.789 1.97546C11.0762 4.52652 6.2796 12.1092 8.47797 21.7612ZM13.8542 17.4734C15.6492 17.4734 17.1042 16.0183 17.1042 14.2234C17.1042 12.4285 15.6492 10.9734 13.8542 10.9734C12.0593 10.9734 10.6042 12.4285 10.6042 14.2234C10.6042 16.0183 12.0593 17.4734 13.8542 17.4734Z" fill="#376EEE"/>
<path d="M19.2585 21.7612V22.2612H19.6527L19.7447 21.8778L19.2585 21.7612ZM8.47797 21.7612L7.99046 21.8723L8.07905 22.2612H8.47797V21.7612ZM13.789 1.97546L14.1132 1.59485L13.7725 1.3046L13.4464 1.61122L13.789 1.97546ZM19.2585 21.2612H8.47797V22.2612H19.2585V21.2612ZM13.4647 2.35608C16.7109 5.1215 18.2892 8.9004 18.9285 12.5324C19.5685 16.1679 19.2593 19.6135 18.7722 21.6446L19.7447 21.8778C20.2616 19.7222 20.5787 16.1381 19.9134 12.359C19.2475 8.57641 17.5889 4.5558 14.1132 1.59485L13.4647 2.35608ZM8.96549 21.6502C6.81584 12.2122 11.5141 4.80114 14.1315 2.33971L13.4464 1.61122C10.6384 4.2519 5.74335 12.0063 7.99046 21.8723L8.96549 21.6502ZM16.6042 14.2234C16.6042 15.7422 15.373 16.9734 13.8542 16.9734V17.9734C15.9253 17.9734 17.6042 16.2945 17.6042 14.2234H16.6042ZM13.8542 11.4734C15.373 11.4734 16.6042 12.7046 16.6042 14.2234H17.6042C17.6042 12.1523 15.9253 10.4734 13.8542 10.4734V11.4734ZM11.1042 14.2234C11.1042 12.7046 12.3355 11.4734 13.8542 11.4734V10.4734C11.7832 10.4734 10.1042 12.1523 10.1042 14.2234H11.1042ZM13.8542 16.9734C12.3355 16.9734 11.1042 15.7422 11.1042 14.2234H10.1042C10.1042 16.2945 11.7832 17.9734 13.8542 17.9734V16.9734Z" fill="#376EEE"/>
</g>
<defs>
<clipPath id="clip0">
<rect y="0.5" width="28" height="28" fill="white"/>
</clipPath>
</defs>
</svg>
