<svg width="121" height="168" viewBox="0 0 121 168" fill="none" xmlns="http://www.w3.org/2000/svg">
<path fill-rule="evenodd" clip-rule="evenodd" d="M37.2301 117.602L37.3102 115.553L23.8685 100.935L18.5351 106.209L28.6624 62.8331C30.5682 60.6712 37.635 52.63 37.9015 51.649C38.0269 51.1905 37.8558 50.9789 37.8558 50.9789C37.6742 50.7516 37.2902 50.783 37.1282 50.7947C36.0336 50.8822 34.5823 52.4863 34.2545 52.8586C34.6437 51.9899 35.1414 50.6994 35.6809 49.1175C36.3523 47.1516 36.9388 44.9989 36.5979 44.2439C35.9173 42.7326 28.814 38.1973 26.6979 43.3374C24.5817 48.4748 23.6752 53.1603 22.9189 55.5795C22.6877 56.3175 22.4852 56.9563 22.2514 57.6551C19.0537 67.1776 11.2894 85.2403 6.80901 97.8612C5.04297 102.833 3.42062 106.955 2.21365 112.637C-0.171551 123.871 1.41684 127.907 3.07185 130.204C3.6884 131.061 5.19711 133.153 7.83049 133.944C11.5716 135.063 15.0841 132.805 21.934 128.166C28.3098 123.846 33.5295 120.208 37.2301 117.602Z" fill="#8CACF6"/>
<path d="M50.1204 77.8743C42.7546 101.882 43.0527 122.842 43.0527 122.842C43.2294 135.918 47.841 155.142 62.0471 162.421C66.2288 165.514 78.0554 170.532 91.9081 165.867C99.1525 163.128 100.419 160.544 101.744 159.484C108.149 150.458 110.624 150.022 113.199 132.119C116.447 109.546 120.797 89.1826 120.797 89.1826C121.408 84.2197 116.536 79.9522 113.023 76.9908C106.096 74.2344 83.3385 71.1305 74.8573 70.6299L50.1204 77.8743Z" fill="url(#paint0_linear)"/>
<path d="M37.1335 86.7086C47.1166 77.7856 52.4174 77.6089 52.4174 77.6089L45.7914 95.985C44.9433 100.296 44.0245 106.233 43.5827 112.947L37.0562 117.751L23.8691 100.936C23.8691 100.936 26.783 95.96 37.1335 86.7086Z" fill="url(#paint1_linear)"/>
<path d="M85.3691 71.2674V75.2775C84.3973 79.6339 80.9423 82.9073 76.8564 83.4546C71.9057 84.1156 66.8623 80.6593 65.5574 75.2501C67.5687 65.329 67.3037 63.8272 67.3037 63.8272L82.3667 57.2896L85.3691 71.2674Z" fill="#8CACF6"/>
<path d="M81.5716 54.1084C67.8779 60.7344 68.8497 61.5295 67.3141 63.8341C71.0929 65.3516 80.9531 63.0314 83.0734 60.6239L81.5716 54.1084Z" fill="#769BF0"/>
<path d="M86.8723 41.3872C86.8723 52.5119 77.1543 64.3572 65.6693 63.9155C53.8693 63.4617 51.6223 53.7487 51.6223 42.6241C51.6223 31.4995 58.2685 21.7744 68.3197 21.7744C78.3709 21.7744 86.8723 30.2626 86.8723 41.3872Z" fill="#8CACF6"/>
<path d="M83.0734 13.2928C83.0734 13.2928 98.6769 12.9391 102.156 29.8135C105.69 46.9526 86.4306 54.4621 81.8366 55.3456C82.9674 51.3876 82.7494 49.2496 82.3664 47.571C82.3664 47.571 83.8924 47.9084 84.9737 44.4508C85.7752 41.8976 86.7824 38.1649 84.5316 37.2276C82.9446 36.566 81.3063 37.4996 80.7722 40.1872L79.6277 35.5559C79.6277 35.5559 77.4191 28.5766 70.0863 32.6405C62.258 39.4852 54.9792 31.6687 54.9792 31.6687C53.0356 34.0541 52.7785 35.8087 53.2122 37.7646C48.8391 36.0338 44.1149 30.891 45.7914 21.9506C46.3215 19.1236 49.1485 12.586 57.1879 12.3209C57.1879 12.3209 72.5602 -3.13962 83.0734 13.2928Z" fill="#1C4178"/>
<path fill-rule="evenodd" clip-rule="evenodd" d="M8.45243 53.4393L35.8778 49.1169C39.3395 48.5722 41.8898 45.5885 41.8898 42.0855C41.8898 38.5809 39.3395 35.5987 35.8778 35.0525L8.45243 30.7285V53.4393Z" fill="#FFD560"/>
<path d="M8.55109 52.3205C6.415 52.3205 4.53948 51.1003 3.22186 49.2442C1.9033 47.3868 1.10677 44.8518 1.10677 42.0797C1.10677 39.3075 1.90329 36.7723 3.22183 34.9146C4.53941 33.0582 6.41493 31.8375 8.55109 31.8375C10.6866 31.8375 12.5621 33.0582 13.8798 34.9145C15.1985 36.7723 15.9954 39.3075 15.9954 42.0797C15.9954 44.8519 15.1985 47.3868 13.8798 49.2442C12.562 51.1003 10.6865 52.3205 8.55109 52.3205Z" fill="#CFE1F9" stroke="#F0B616" stroke-width="1.2"/>
<path fill-rule="evenodd" clip-rule="evenodd" d="M27.2828 53.4393L60.0199 49.1169C64.1517 48.5722 67.1942 45.5901 67.1942 42.0855C67.1942 38.5809 64.1517 35.5987 60.0199 35.0525L27.2828 30.7285V53.4393Z" fill="#FFD560"/>
<path d="M26.8833 52.3205C24.7472 52.3205 22.8717 51.1003 21.5541 49.2442C20.2355 47.3868 19.439 44.8518 19.439 42.0797C19.439 39.3075 20.2355 36.7723 21.5541 34.9146C22.8717 33.0582 24.7472 31.8375 26.8833 31.8375C29.0189 31.8375 30.8944 33.0582 32.2121 34.9145C33.5308 36.7723 34.3277 39.3075 34.3277 42.0797C34.3277 44.8519 33.5308 47.3868 32.212 49.2442C30.8943 51.1003 29.0188 52.3205 26.8833 52.3205Z" fill="#CFE1F9" stroke="#F0B616" stroke-width="1.2"/>
<path d="M33.7653 42.0857C33.7653 47.416 30.6972 51.7366 26.9138 51.7366C25.3028 51.7366 22.9086 50.773 21.4122 47.876L31.9018 35.4561C32.523 36.3444 33.7653 38.9139 33.7653 42.0857Z" fill="url(#paint2_linear)"/>
<path d="M15.4422 42.0857C15.4422 47.416 12.3741 51.7366 8.59066 51.7366C6.97969 51.7366 4.58548 50.773 3.08911 47.876L13.5787 35.4561C14.1999 36.3444 15.4422 38.9139 15.4422 42.0857Z" fill="url(#paint3_linear)"/>
<path fill-rule="evenodd" clip-rule="evenodd" d="M90.7965 117.547C86.2037 112.397 81.611 107.246 77.0182 102.096C77.0182 102.096 95.8752 82.1052 99.368 79.6103C102.862 77.1153 111.928 73.1222 117.751 80.8577C119.962 83.7968 121.08 86.3061 120.996 88.8075C120.847 93.2265 117.932 96.5901 110.514 102.816C105.77 106.797 99.1826 111.975 90.7965 117.547Z" fill="#F78E9D"/>
<path fill-rule="evenodd" clip-rule="evenodd" d="M90.8038 117.541C90.8038 117.541 65.4183 137.099 62.4165 139.133C59.4122 141.168 55.6345 143.203 51.5656 140.199C47.4966 137.196 47.2066 136.033 46.7207 119.758C46.7207 119.758 45.2029 63.6388 44.9155 56.7262C44.1082 53.5298 43.0972 48.9084 42.6844 44.2307C42.5786 43.0368 42.4702 41.3648 43.5191 40.1095C44.683 38.7171 46.7181 38.5028 47.5619 38.414C48.4175 38.3239 49.4834 38.2128 50.565 38.6962C53.1069 39.8339 53.5001 43.2719 53.5315 43.575L53.7875 45.8857C53.7875 45.8857 55.7129 41.0082 56.8689 41.9069C58.0236 42.8056 56.8689 45.243 55.7129 48.8378C54.5582 52.4313 52.7608 56.7954 52.8888 58.8489C53.0181 60.9036 62.3878 115.713 62.3878 115.713L77.0268 102.088L90.8038 117.541Z" fill="#8CACF6"/>
<defs>
<linearGradient id="paint0_linear" x1="72.7179" y1="78.5747" x2="88.3756" y2="152.594" gradientUnits="userSpaceOnUse">
<stop stop-color="#F1ABB5"/>
<stop offset="1" stop-color="#F68D9C"/>
</linearGradient>
<linearGradient id="paint1_linear" x1="34.7554" y1="80.8922" x2="41.9599" y2="111.134" gradientUnits="userSpaceOnUse">
<stop stop-color="#F1ABB5"/>
<stop offset="1" stop-color="#F68D9C"/>
</linearGradient>
<linearGradient id="paint2_linear" x1="36.0101" y1="36.207" x2="25.7972" y2="51.5264" gradientUnits="userSpaceOnUse">
<stop stop-color="white" stop-opacity="0.59"/>
<stop offset="1" stop-color="white" stop-opacity="0"/>
</linearGradient>
<linearGradient id="paint3_linear" x1="17.687" y1="36.207" x2="7.47413" y2="51.5264" gradientUnits="userSpaceOnUse">
<stop stop-color="white" stop-opacity="0.59"/>
<stop offset="1" stop-color="white" stop-opacity="0"/>
</linearGradient>
</defs>
</svg>
