<svg width="368" height="137" viewBox="0 0 368 137" fill="none" xmlns="http://www.w3.org/2000/svg">
<path d="M288.538 136.091C282.396 120.183 277.258 103.144 275.736 92.9738C273.304 76.717 276.952 65.7451 285.869 64.5244C294.784 63.3052 301.358 78.8207 301.358 78.8207C301.358 78.8207 305.151 56.8449 311.894 42.4769C318.639 28.106 332.967 21.346 342.241 32.755C351.514 44.1655 344.465 86.0953 344.465 86.0953C345.79 85.2182 356.926 78.0035 363.485 82.1993C370.535 86.7108 367.542 101.352 366.267 107.586C364.151 117.939 358.63 128.271 352.845 136.091" fill="white"/>
<path d="M6.4745 136C6.4745 136 -2.79349 114.033 0.847885 108.506C4.48989 102.981 10.6807 105.928 13.2294 109.98C13.2294 109.98 13.1342 94.6946 25.5627 100.496C37.9913 106.296 35.1824 136 35.1824 136H6.4745Z" fill="white"/>
<path d="M119.006 136C125.148 120.092 130.286 103.054 131.808 92.883C134.24 76.6262 130.592 65.6543 121.675 64.4336C112.76 63.2144 106.186 78.7299 106.186 78.7299C106.186 78.7299 102.393 56.754 95.6496 42.3861C88.9052 28.0152 74.5766 21.2552 65.3027 32.6642C56.0302 44.0746 63.0793 86.0045 63.0793 86.0045C61.7541 85.1274 50.6184 77.9127 44.0591 82.1085C37.0086 86.62 40.0017 101.261 41.2774 107.495C43.3929 117.849 48.9136 128.18 54.6986 136" fill="white"/>
<path d="M250.006 123C256.148 107.092 261.286 90.0537 262.808 79.883C265.24 63.6262 261.592 52.6543 252.675 51.4336C243.76 50.2144 237.186 65.7299 237.186 65.7299C237.186 65.7299 233.393 43.754 226.65 29.3861C219.905 15.0152 205.577 8.25522 196.303 19.6642C187.03 31.0746 194.079 73.0045 194.079 73.0045C192.754 72.1274 181.618 64.9127 175.059 69.1085C168.009 73.62 171.002 88.2613 172.277 94.495C174.393 104.849 179.914 115.18 185.699 123" fill="white"/>
<path d="M203 1H43V105H203V1Z" stroke="#C3D4FA"/>
<path d="M182.727 32.3633L244.09 93.7268H121.363L182.727 32.3633Z" stroke="#C3D4FA"/>
<path d="M182.727 32.3633L244.09 93.7268H121.363L182.727 32.3633Z" stroke="#C3D4FA"/>
<path d="M136.459 16H310.2C310.894 16.0001 311.58 16.151 312.211 16.4425C312.841 16.7339 313.401 17.1589 313.851 17.6881C314.302 18.2174 314.632 18.8382 314.82 19.5078C315.008 20.1773 315.048 20.8797 314.939 21.5665L296.643 136H113.181L131.721 20.0466C131.902 18.9182 132.478 17.8911 133.346 17.1495C134.214 16.4079 135.318 16.0004 136.459 16Z" fill="#8CACF6"/>
<path d="M141.557 25.5474L125.454 126.455H289.35L305.454 25.5459L141.557 25.5474Z" fill="white"/>
<path d="M74.3351 126.454H292.481C293.752 126.454 294.97 126.957 295.869 127.852C296.767 128.747 297.272 129.961 297.272 131.227C297.272 132.493 296.767 133.707 295.869 134.602C294.97 135.497 293.752 136 292.481 136H74.3351C73.0647 136 71.8463 135.497 70.9479 134.602C70.0496 133.707 69.5449 132.493 69.5449 131.227C69.5449 129.961 70.0496 128.747 70.9479 127.852C71.8463 126.957 73.0647 126.454 74.3351 126.454Z" fill="#0E3AA1"/>
<path d="M206.581 126.454H298.635L297.795 131.945C297.622 133.074 297.051 134.103 296.187 134.847C295.322 135.59 294.219 135.999 293.08 136H206.581C205.318 136 204.106 135.497 203.213 134.602C202.319 133.707 201.817 132.493 201.817 131.227C201.817 129.961 202.319 128.747 203.213 127.852C204.106 126.957 205.318 126.454 206.581 126.454Z" fill="#0E3AA1"/>
<path d="M192.272 111.454H137.727V112.818H192.272V111.454Z" fill="#376EEE" fill-opacity="0.1"/>
<path d="M192.272 100.545H137.727V101.909H192.272V100.545Z" fill="#376EEE" fill-opacity="0.1"/>
<path d="M334.545 92.3633H280V136H334.545V92.3633Z" fill="#8CACF6"/>
<path d="M316.363 123.272H327.272V128.727H316.363V123.272Z" fill="#E7EEFD"/>
<path opacity="0.3" d="M298.182 92.3633H280V136H298.182V92.3633Z" fill="#376EEE"/>
<path fill-rule="evenodd" clip-rule="evenodd" d="M24.2856 104.81L28.3539 136H53.8483L57.6454 104.81H24.2856Z" fill="#8CACF6"/>
<path fill-rule="evenodd" clip-rule="evenodd" d="M18.5859 98.5703L21.2979 106.707H60.2633L62.7943 98.5703H18.5859Z" fill="#C3D4FA"/>
<path fill-rule="evenodd" clip-rule="evenodd" d="M15 88.5371C15 88.5371 19.3394 85.0111 20.9669 86.3674C22.5943 87.7236 27.7472 98.5722 27.7472 98.5722H33.9852C33.9852 98.5722 22.8654 73.0779 15 88.5371Z" fill="#1ACC94"/>
<path fill-rule="evenodd" clip-rule="evenodd" d="M45.1064 98.5723C45.1064 98.5723 56.4973 83.9266 67.8888 81.7568C67.8888 81.7568 63.2782 92.0631 52.1579 98.5723H45.1064Z" fill="#1ACC94"/>
<path fill-rule="evenodd" clip-rule="evenodd" d="M24.8613 54.9062C24.8613 54.9062 21.8714 82.5703 32.911 98.5724H37.5104C37.5104 98.5724 31.9912 71.1794 24.8613 54.9062Z" fill="#1ACC94"/>
<path fill-rule="evenodd" clip-rule="evenodd" d="M33.5919 37.8184C33.5919 37.8184 31.6933 80.9422 37.1179 98.5711H42.4064C42.4064 98.5711 47.9665 66.5676 33.5919 37.8184Z" fill="#1ACC94"/>
<path fill-rule="evenodd" clip-rule="evenodd" d="M41.4438 98.5719C47.8841 79.3447 47.2751 50.5664 70.0575 39.7178C55.9462 53.9495 65.9892 73.891 45.1054 98.5719H41.4438Z" fill="#1ACC94"/>
<rect x="246.817" y="74.6357" width="27.2727" height="38.1817" fill="#E7EEFD"/>
<rect x="197.727" y="74.6357" width="49.0908" height="38.1817" fill="#C3D4FA"/>
<rect opacity="0.4" x="203.181" y="80.0908" width="21.8181" height="19.0909" fill="#8CACF6"/>
<rect opacity="0.4" x="203.181" y="80.0908" width="5.45453" height="19.0909" fill="#8CACF6"/>
<rect x="223.636" y="93.7266" width="12.2727" height="19.0909" fill="#C3D4FA"/>
<rect x="226.363" y="96.4541" width="6.81816" height="16.3636" fill="#8CACF6"/>
<path d="M235.909 93.7264L241.363 82.8174V112.817H235.909V93.7264Z" fill="#E7EEFD"/>
<path d="M260.454 47.3633L274.09 74.6359H246.817L260.454 47.3633Z" fill="#E7EEFD"/>
<path d="M210.454 47.3633H260.454L246.817 74.6359H197.727L210.454 47.3633Z" fill="#C3D4FA"/>
<path d="M229.406 82.8174H241.363L235.908 93.7264H223.636L229.406 82.8174Z" fill="white"/>
<rect x="212.727" y="51.4541" width="8.1818" height="8.1818" fill="white"/>
<path opacity="0.4" d="M220.908 59.6357V51.4539H223.636V55.5448L220.908 59.6357Z" fill="#8CACF6"/>
<path opacity="0.4" d="M223.636 93.7266V112.817H212.727L223.636 93.7266Z" fill="#8CACF6"/>
<path fill-rule="evenodd" clip-rule="evenodd" d="M186 59C187.105 59 188 59.8954 188 61V71.7333L192.455 75L188 78.2667V89C188 90.1046 187.105 91 186 91H158C156.895 91 156 90.1046 156 89V61C156 59.8954 156.895 59 158 59H186Z" fill="#2FB7EC"/>
<path fill-rule="evenodd" clip-rule="evenodd" d="M181.656 71.6976C180.994 71.6976 180.378 72.2017 180.287 72.8172L179.614 77.403C179.54 77.9026 179.284 78.3359 178.846 78.703C178.409 79.0704 177.916 79.254 177.369 79.254C176.837 79.254 176.406 79.0741 176.077 78.7139C175.746 78.354 175.62 77.9174 175.696 77.403L176.101 74.6202C176.114 74.0647 175.668 73.6301 175.054 73.6301H173.444C172.83 73.6301 172.255 74.0647 172.103 74.6202L171.684 77.403C171.608 77.9174 171.352 78.354 170.915 78.7139C170.478 79.0741 169.994 79.254 169.463 79.254C168.931 79.254 168.497 79.0704 168.16 78.703C167.824 78.3359 167.693 77.9026 167.766 77.403L168.668 71.3184C168.763 70.726 168.388 70.1069 167.815 69.8556C167.815 69.8556 161.027 67.2108 160.585 67.0408C160.137 66.8695 159.63 67.2536 159.456 67.8946L159.041 69.4254C158.868 70.0663 159.259 70.7952 159.911 71.0448L164.46 72.8052L163.779 77.403C163.55 78.945 163.936 80.2643 164.94 81.3582C165.943 82.4532 167.265 83 168.908 83C170.424 83 171.809 82.5228 173.061 81.5676C174.061 82.5228 175.312 83 176.814 83C178.456 83 179.941 82.4532 181.268 81.3582C182.596 80.2643 183.374 78.945 183.602 77.403C183.602 77.403 184.315 72.5509 184.328 72.4659C184.39 72.0431 183.9 71.6976 183.238 71.6976H181.656Z" fill="white"/>
</svg>
