<svg xmlns="http://www.w3.org/2000/svg" width="1024" height="80" fill="none" viewBox="0 0 1024 80">
    <rect width="1024" height="80" fill="#D8D8D8" opacity=".01" rx="4"/>
    <mask id="prefix__a" width="1024" height="80" x="0" y="0" maskUnits="userSpaceOnUse">
        <rect width="1024" height="80" fill="#fff" rx="4"/>
    </mask>
    <g mask="url(#prefix__a)">
        <path fill="#FFE380" d="M684.941 17.59l-5.922-2.863-.842 1.878-.121.285c-.042.106-.087.223-.133.349-.845 2.293-1.205 4.748-.952 7.17.43 4.106 2.618 7.436 6.43 9.595l1.807 1.024 3.119-6.026-1.675-.95c-1.973-1.117-2.931-2.55-3.133-4.483-.135-1.297.075-2.714.556-4.021l.071-.184.795-1.773z"/>
        <path fill="#FABF86" fill-rule="evenodd" d="M618 5c2.761 0 5-2.239 5-5s-2.239-5-5-5-5 2.239-5 5 2.239 5 5 5z" clip-rule="evenodd"/>
        <path fill="#AE92FF" fill-rule="evenodd" d="M438 27c2.761 0 5-2.239 5-5s-2.239-5-5-5-5 2.239-5 5 2.239 5 5 5z" clip-rule="evenodd"/>
        <path fill="#376EEE" d="M828.367 21.889H845.367V27.889H828.367z" transform="rotate(-45 828.367 21.889)"/>
        <path fill="#2EE3AA" d="M941.473 40.036H963.473V48.036H941.473z" transform="rotate(30 941.473 40.036)"/>
        <path fill="#E56175" fill-rule="evenodd" d="M517 4l5 5-5 5-5-5 5-5z" clip-rule="evenodd"/>
        <path fill="#79D6FA" d="M325.226 5.233L331.687 4l.328 2.032.042.306c.014.114.027.24.039.372.222 2.434-.065 4.898-.937 7.172-1.477 3.855-4.452 6.505-8.694 7.604l-2.011.522-1.452-6.629 1.864-.483c2.195-.57 3.491-1.705 4.186-3.52.467-1.217.63-2.64.504-4.028l-.021-.196-.309-1.919z"/>
        <path fill="#376EEE" d="M0 0H22V8H0z" transform="scale(-1 1) rotate(-45 -78.377 230.02)"/>
        <path fill="#2EE3AA" d="M0 0H11V4H0z" transform="scale(-1 1) rotate(30 -72.453 -147.11)"/>
        <path stroke="#2EE3AA" stroke-width="8" d="M8 0c0 4.418-3.582 8-8 8s-8-3.582-8-8 3.582-8 8-8 8 3.582 8 8z"/>
    </g>
</svg>
