<svg width="300" height="200" viewBox="0 0 300 200" fill="none" xmlns="http://www.w3.org/2000/svg">
<mask id="mask0" mask-type="alpha" maskUnits="userSpaceOnUse" x="0" y="0" width="300" height="200">
<rect width="300" height="200" fill="#EEF2F5"/>
</mask>
<g mask="url(#mask0)">
<path opacity="0.5" d="M220.538 200.091C214.396 184.183 209.258 167.144 207.736 156.974C205.304 140.717 208.952 129.745 217.869 128.524C226.784 127.305 233.358 142.821 233.358 142.821C233.358 142.821 237.151 120.845 243.894 106.477C250.639 92.106 264.967 85.346 274.241 96.755C283.514 108.165 276.465 150.095 276.465 150.095C277.79 149.218 288.926 142.004 295.485 146.199C302.535 150.711 299.542 165.352 298.267 171.586C296.151 181.939 290.63 192.271 284.845 200.091" fill="#E7EEFD"/>
<path opacity="0.2" d="M135 76C135 73.7909 133.209 72 131 72H4C1.79086 72 0 73.7909 0 76V172C0 174.209 1.79086 176 4 176H131C133.209 176 135 174.209 135 172V76Z" fill="#C3D4FA"/>
<path d="M89.4591 80H263.2C263.894 80.0001 264.58 80.151 265.211 80.4425C265.841 80.7339 266.401 81.1589 266.852 81.6881C267.302 82.2174 267.633 82.8382 267.82 83.5078C268.008 84.1773 268.049 84.8797 267.939 85.5665L249.643 200H66.1814L84.7215 84.0466C84.9021 82.9182 85.4781 81.8911 86.3463 81.1495C87.2145 80.4079 88.3181 80.0004 89.4591 80Z" fill="#8CACF6"/>
<path d="M94.5573 89.5469L78.4541 190.454H242.35L258.454 89.5454L94.5573 89.5469Z" fill="white"/>
<path d="M27.3354 190.454H245.482C246.752 190.454 247.971 190.957 248.869 191.852C249.767 192.747 250.272 193.961 250.272 195.227C250.272 196.493 249.767 197.707 248.869 198.602C247.971 199.497 246.752 200 245.482 200H27.3354C26.0649 200 24.8465 199.497 23.9482 198.602C23.0498 197.707 22.5452 196.493 22.5452 195.227C22.5452 193.961 23.0498 192.747 23.9482 191.852C24.8465 190.957 26.0649 190.454 27.3354 190.454Z" fill="#0E3AA1"/>
<path d="M159.581 190.454H251.636L250.795 195.945C250.622 197.074 250.052 198.103 249.187 198.847C248.322 199.591 247.22 200 246.08 200H159.581C158.318 200 157.106 199.497 156.213 198.602C155.319 197.707 154.818 196.493 154.818 195.227C154.818 193.961 155.319 192.747 156.213 191.852C157.106 190.957 158.318 190.454 159.581 190.454Z" fill="#0E3AA1"/>
<path d="M145.272 175.454H90.7268V176.818H145.272V175.454Z" fill="#376EEE" fill-opacity="0.1"/>
<path d="M145.272 164.545H90.7268V165.909H145.272V164.545Z" fill="#376EEE" fill-opacity="0.1"/>
<path d="M287.545 156.364H233V200H287.545V156.364Z" fill="#8CACF6"/>
<path d="M269.363 187.272H280.272V192.727H269.363V187.272Z" fill="#E7EEFD"/>
<path opacity="0.3" d="M251.182 156.364H233V200H251.182V156.364Z" fill="#376EEE"/>
<path fill-rule="evenodd" clip-rule="evenodd" d="M11.5662 174.586L14.8811 200H35.6542L38.7482 174.586H11.5662Z" fill="#8CACF6"/>
<path fill-rule="evenodd" clip-rule="evenodd" d="M6.92212 169.502L9.1319 176.132H40.8814L42.9438 169.502H6.92212Z" fill="#C3D4FA"/>
<path fill-rule="evenodd" clip-rule="evenodd" d="M4 161.326C4 161.326 7.53584 158.453 8.86189 159.559C10.1879 160.664 14.3866 169.503 14.3866 169.503H19.4694C19.4694 169.503 10.4089 148.73 4 161.326Z" fill="#1ACC94"/>
<path fill-rule="evenodd" clip-rule="evenodd" d="M28.5311 169.503C28.5311 169.503 37.8126 157.57 47.0945 155.802C47.0945 155.802 43.3377 164.199 34.2767 169.503H28.5311Z" fill="#1ACC94"/>
<path fill-rule="evenodd" clip-rule="evenodd" d="M12.0351 133.924C12.0351 133.924 9.59892 156.465 18.5942 169.503H22.3418C22.3418 169.503 17.8446 147.183 12.0351 133.924Z" fill="#1ACC94"/>
<path fill-rule="evenodd" clip-rule="evenodd" d="M19.1489 120C19.1489 120 17.6019 155.138 22.0219 169.502H26.331C26.331 169.502 30.8615 143.425 19.1489 120Z" fill="#1ACC94"/>
<path fill-rule="evenodd" clip-rule="evenodd" d="M25.5466 169.503C30.7942 153.836 30.2981 130.387 48.8614 121.548C37.3633 133.144 45.5465 149.393 28.5301 169.503H25.5466Z" fill="#1ACC94"/>
<rect x="199.818" y="138.636" width="27.2727" height="38.1817" fill="#E7EEFD"/>
<rect x="150.727" y="138.636" width="49.0908" height="38.1817" fill="#C3D4FA"/>
<rect opacity="0.4" x="156.182" y="144.091" width="21.8181" height="19.0909" fill="#8CACF6"/>
<rect opacity="0.4" x="156.182" y="144.091" width="5.45453" height="19.0909" fill="#8CACF6"/>
<rect x="176.636" y="157.727" width="12.2727" height="19.0909" fill="#C3D4FA"/>
<rect x="179.363" y="160.454" width="6.81816" height="16.3636" fill="#8CACF6"/>
<path d="M188.909 157.727L194.363 146.818V176.818H188.909V157.727Z" fill="#E7EEFD"/>
<path d="M213.454 111.363L227.09 138.636H199.818L213.454 111.363Z" fill="#E7EEFD"/>
<path d="M163.454 111.364H213.454L199.818 138.636H150.727L163.454 111.364Z" fill="#C3D4FA"/>
<path d="M182.407 146.818H194.363L188.909 157.727H176.636L182.407 146.818Z" fill="white"/>
<rect x="165.727" y="115.454" width="8.1818" height="8.1818" fill="white"/>
<path opacity="0.4" d="M173.909 123.636V115.454H176.636V119.545L173.909 123.636Z" fill="#8CACF6"/>
<path opacity="0.4" d="M176.636 157.727V176.818H165.727L176.636 157.727Z" fill="#8CACF6"/>
<path fill-rule="evenodd" clip-rule="evenodd" d="M139 123C140.105 123 141 123.895 141 125V135.733L145.455 139L141 142.267V153C141 154.105 140.105 155 139 155H111C109.895 155 109 154.105 109 153V125C109 123.895 109.895 123 111 123H139Z" fill="#2FB7EC"/>
<path fill-rule="evenodd" clip-rule="evenodd" d="M134.656 135.697C133.994 135.697 133.378 136.202 133.287 136.817L132.614 141.403C132.54 141.903 132.284 142.336 131.846 142.703C131.409 143.07 130.916 143.254 130.369 143.254C129.837 143.254 129.406 143.074 129.077 142.714C128.747 142.354 128.62 141.917 128.696 141.403L129.102 138.62C129.114 138.065 128.668 137.63 128.054 137.63H126.444C125.83 137.63 125.255 138.065 125.103 138.62L124.684 141.403C124.608 141.917 124.352 142.354 123.915 142.714C123.478 143.074 122.994 143.254 122.463 143.254C121.931 143.254 121.497 143.07 121.16 142.703C120.824 142.336 120.693 141.903 120.766 141.403L121.668 135.318C121.763 134.726 121.388 134.107 120.815 133.856C120.815 133.856 114.027 131.211 113.585 131.041C113.137 130.869 112.63 131.254 112.456 131.895L112.041 133.425C111.868 134.066 112.259 134.795 112.911 135.045L117.46 136.805L116.779 141.403C116.55 142.945 116.936 144.264 117.94 145.358C118.943 146.453 120.265 147 121.908 147C123.424 147 124.809 146.523 126.061 145.568C127.061 146.523 128.312 147 129.814 147C131.456 147 132.941 146.453 134.268 145.358C135.596 144.264 136.374 142.945 136.602 141.403C136.602 141.403 137.315 136.551 137.328 136.466C137.39 136.043 136.9 135.697 136.238 135.697H134.656Z" fill="white"/>
</g>
</svg>
