<svg xmlns="http://www.w3.org/2000/svg" width="295" height="149" fill="none" viewBox="0 0 295 149">
    <rect width="193.893" height="110.328" x="43.102" fill="#fff" rx="5"/>
    <rect width="207.526" height="110.328" x="29.469" fill="#fff" rx="2"/>
    <path fill="#C3D4FA" d="M29.469 2.003C29.469.897 30.365 0 31.472 0h203.52c1.106 0 2.003.897 2.003 2.003v4.323H29.469V2.003z"/>
    <circle cx="224.695" cy="3.246" r="1.173" fill="#fff" opacity=".7"/>
    <circle cx="229.158" cy="3.246" r="1.173" fill="#fff" opacity=".7"/>
    <circle cx="233.621" cy="3.246" r="1.173" fill="#fff" opacity=".7"/>
    <rect width="73.947" height="1.724" x="145.389" y="61.142" fill="#D5DFE6" rx=".861"/>
    <rect width="73.947" height="1.724" x="145.389" y="66.993" fill="#D5DFE6" rx=".861"/>
    <rect width="73.947" height="1.724" x="145.389" y="72.845" fill="#D5DFE6" rx=".861"/>
    <rect width="30.535" height="8.278" x="188.801" y="84.135" fill="#D5DFE6" rx="2"/>
    <path fill="#1B4278" fill-rule="evenodd" d="M66.728 73.92c.042 0 5.319-.034 7.319.556 2 .591 3.32.702 5.16.185 1.838-.517 5.565-.709 6.989-.738 1.423-.03 1.862-.097 1.865.261.002.358-.064.934-.091 1.06-.023.103-.071.279-.34.44a.612.612 0 0 0-.282.412c-.145.779-.577 2.846-1.18 3.483-.749.791-1.905 1.261-3.258 1.312-1.354.05-3.394-.147-4.525-2.498 0 0-.595-1.414-.652-1.568-.057-.154-.848-1.594-1.767.994-.919 2.588-3.148 3.355-4.796 3.15-1.649-.204-3.998-.849-4.157-3.894 0 0-.004-.771-.272-1.149-.268-.377-.7-.375-.677-1.034.024-.66-.187-.977.664-.973z" clip-rule="evenodd"/>
    <path fill="#fff" fill-rule="evenodd" d="M67.708 75.281l-1.076.007a.049.049 0 0 1-.049-.048l-.003-.43c0-.026.022-.048.049-.048l1.075-.007c.027 0 .049.022.05.049l.002.428a.049.049 0 0 1-.048.05zM87.457 75.157l-1.076.006a.049.049 0 0 1-.049-.048l-.003-.429c0-.027.022-.049.049-.049l1.075-.007c.027 0 .049.022.049.049l.003.429a.049.049 0 0 1-.048.049zM73.556 79.86c-.704.371-1.429.662-2.447.54-1.628-.194-3.268-1.102-3.34-3.127-.073-2.025.97-2.992 3.303-2.774 0 0 2.333.066 3.328.892.87.722 1.194 2.095.603 3.097a2.09 2.09 0 0 1-.31.404s-.524.646-1.137.969zM80.595 79.827c.707.354 1.435.629 2.45.497 1.623-.21 3.25-1.118 3.298-3.097.047-1.98-1.007-2.91-3.334-2.67 0 0-2.329.095-3.312.914-.86.716-1.168 2.061-.565 3.033.086.14.191.27.316.391 0 0 .53.624 1.147.932z" clip-rule="evenodd"/>
    <path fill="#92F1D3" fill-rule="evenodd" d="M115.251 84.873c.688-2.618 2.827-5.43 3.428-6.25.641-.876 2.307-3.032 4.016-5.232 1.708-2.2 2.639-3.99 2.639-3.99s3.574 1.93 4.301 2.751c.72.813 1.282 5.531 1.282 5.531H126.666v7.154l-11.415.036z" clip-rule="evenodd"/>
    <path fill="#92F1D3" fill-rule="evenodd" d="M113.419 77.683v7.71h11.532c-.512-2.755-2.904-5.895-3.544-6.77-.642-.876-2.307-3.033-4.016-5.233-1.708-2.2-2.64-3.99-2.64-3.99s-3.574 1.931-4.301 2.752c-.719.813-1.281 5.531-1.281 5.531h4.25z" clip-rule="evenodd"/>
    <path stroke="#3FAA7D" stroke-linecap="round" stroke-linejoin="round" stroke-width=".4" d="M124.834 84.873c-.687-2.618-2.827-5.43-3.427-6.25-.283-.386-.766-1.023-1.364-1.802M113.42 75.505v2.179M126.735 77.683v-2.178"/>
    <path fill-rule="evenodd" stroke="#3FAA7D" stroke-linecap="round" stroke-linejoin="round" stroke-width=".4" d="M124.845 84.875c.056.007-.674-1.522-.985-1.334-.311.19-.563 1.158.985 1.334z" clip-rule="evenodd"/>
    <path fill-rule="evenodd" stroke="#3FAA7D" stroke-linecap="round" stroke-linejoin="round" stroke-width=".4" d="M124.845 84.875s.202-1.391.642-1.35c.44.042.717.985-.642 1.35z" clip-rule="evenodd"/>
    <path stroke="#3FAA7D" stroke-linecap="round" stroke-linejoin="round" stroke-width=".4" d="M124.178 86.31l.667-1.435 1.095 1.133"/>
    <path fill="#E5A694" d="M5.414 47.625c-.128 1.784.017 4.27.665 5.062l2.916-.072c-.206-.985-.236-3.291-.324-5.237-.06-1.328-.027-3.566-.88-3.724-.842-.155-2.198 1.491-2.377 3.97zM47.925 47.704c.1 1.597-.016 4.027-.627 4.775l-2.75-.068c.194-.929-.08-2.656.004-4.492.057-1.252.402-3.27 1.083-3.723.61-.406 2.031-.61 2.29 3.508z"/>
    <path fill="#79D6FA" d="M45.2 50.273c5.115-.298 9.19-4.866 9.19-10.49 0-5.806-4.35-10.511-9.72-10.511-.976 0-1.93.16-2.822.459-1.613-7.322-7.724-12.785-15.003-12.785-7.237 0-13.285 5.371-14.982 12.601a9.33 9.33 0 0 0-2.144-.252C4.35 29.295 0 34 0 39.807c0 5.531 3.947 10.03 8.955 10.466h36.246z"/>
    <path fill="#fff" fill-rule="evenodd" d="M26.368 28.12a.5.5 0 0 1 .764 0l3.35 3.954a.5.5 0 0 1-.382.824H28.21v3.8a.801.801 0 0 1-.802.801h-1.315a.801.801 0 0 1-.801-.801v-3.8H23.4a.5.5 0 0 1-.382-.825l3.35-3.953zm7.017 7.097a.801.801 0 0 0-.802.8v4.04a.5.5 0 0 1-.5.501H21.417a.5.5 0 0 1-.5-.5v-4.04a.801.801 0 0 0-.802-.8h-.675a.801.801 0 0 0-.801.8v5.692c0 .443.359.801.801.801H34.06a.801.801 0 0 0 .8-.802v-5.691a.801.801 0 0 0-.8-.801h-.675z" clip-rule="evenodd"/>
    <path fill="#F7A79A" fill-rule="evenodd" d="M21.384 121.269s-1.73 1.84-2.752 2.139c-1.024.298-4.935.198-5.02 2.088H24.58l2.211-3.183-5.406-1.044z" clip-rule="evenodd"/>
    <path fill="#1C4178" fill-rule="evenodd" d="M25.967 123.189s-2.421 1.492-2.504 2.315l37.404-.067c.33 0 5.619-1.209 5.823-3.927.203-2.708-1.151-4.739-4.942-7.379-5.208-3.627-15.436-5.349-15.436-5.349l-26.268-3.588s-2.258 9.025-.39 14.047c0 0 .964 4.194 6.313 3.948z" clip-rule="evenodd"/>
    <path stroke="#152934" stroke-linecap="round" stroke-linejoin="round" stroke-width=".5" d="M59.417 125.098s2.35-3.301.486-6.333c-1.863-3.032-10.206-5.988-10.206-5.988M47.53 123.209c-5.16-1.298-13.433-.512-16.968-.265 0 0-2.641.447-4.595.245"/>
    <path fill="#152934" d="M28.053 58.34c-5.252-.176-7.92 3.905-8.313 7.543-1.066 4.325-2.273 4.289-2.252 6.921.024 2.959 3.005 5.017 6.546 4.503 2.07-.3 6.603-.937 7.145-.83.541.106 2.035.41 3.446.038.33-.087 1.813-.563 2.46-2.168.647-1.605.167-3.544-.459-4.837-.944-1.95-.322-2.416-.625-4.628-.303-2.211-1.091-6.312-7.948-6.542z"/>
    <path fill="#E5A694" fill-rule="evenodd" d="M30.956 80.196l-5.278.154-.047-1.625-.114-3.898 5.278-.154.161 5.523z" clip-rule="evenodd"/>
    <path fill="#D88577" fill-rule="evenodd" d="M30.81 76.618c-.836 1.273-4.088 1.387-5.23.953l-.149-2.382 5.38 1.43z" clip-rule="evenodd"/>
    <path fill="#E5A694" fill-rule="evenodd" d="M33.601 70.391c.98 3.686-2.225 6.76-4.528 6.813-2.034.047-4.107-1.234-4.98-2.82-.874-1.587-1.103-2.674-1.103-2.674-2.774-1.034-1.27-4.253-.218-2.62 0 0-.002-1.115.024-1.54 2.552-1.522 4.491-3.092 5.483-4.704 1.185 2.364 3.553 3.276 5.115 3.478.717 1.738-.328 2.053.207 4.067zM28.647 86.318a7.086 7.086 0 0 0 6.875-7.29l-14.165.414a7.086 7.086 0 0 0 7.29 6.876z" clip-rule="evenodd"/>
    <path fill="#FFD560" d="M12.818 71.053c2.557 5.115 10.158 8.29 10.158 8.29.443 1.287 2.095 3.902 5.16 4.061 3.065.159 4.832-2.913 5.333-4.47 6.367-4.295 6.606-6.765 8.87-9.465.5-4.67 1.583-17.095 1.583-17.095h4.253c-.166 14.926-.417 18.93-2.168 23.015-2.251 4.336-5.45 9.392-5.45 9.392s1.668 8.712 1.361 22.717c-9.075 7.546-23.36-.375-23.36-.375-.07-9.052-.486-14.389-1.648-21.589 0 0-7.427-5.809-9.679-12.063C4.396 61.63 5.397 52.707 5.397 52.707l4.42-.167c.333 7.005.166 11.925 3.001 18.513z"/>
    <path fill="#231F20" fill-rule="evenodd" d="M26.75 67.703l-2.693.432s1.454-1.359 2.692-.432zM29.346 67.434l2.726-.012s-1.656-1.104-2.727.012z" clip-rule="evenodd"/>
    <path fill="#E47B6E" fill-rule="evenodd" d="M28.331 69.937c-.251.023-.254 1.804-.077 1.985.158.163.42.082.514-.048.201-.28-.225-1.956-.437-1.937zM28.69 74.147c-.914.083-1.43-.831-1.43-.831l2.706-.247s-.39.998-1.277 1.078z" clip-rule="evenodd"/>
    <path fill="#231F20" fill-rule="evenodd" d="M31.327 69.046c.034.337-.114.628-.329.65-.215.02-.417-.236-.45-.573-.034-.337.114-.628.328-.649.216-.022.418.234.451.572zM26.164 69.514c.034.338-.113.629-.33.65-.214.021-.416-.235-.45-.572-.033-.337.114-.628.33-.649.215-.022.417.234.45.572z" clip-rule="evenodd"/>
    <path fill="#E5A694" d="M7.655 47.378c-.948-.068-.722 2.2-.338 3.554l1.472-.288c-.18-1.376-.483-3.22-1.134-3.266zM45.432 47.513c.914-.237.84 1.949.63 3.3l-1.454-.102c.01-1.35.21-3.039.824-3.198z"/>
    <rect width="30.527" height="30.527" x="62.377" y="19.518" stroke="#C4CDD5" stroke-dasharray="3 3" rx="4.5"/>
    <rect width="30.527" height="30.527" x="62.377" y="61.569" stroke="#C4CDD5" stroke-dasharray="3 3" rx="4.5"/>
    <rect width="30.527" height="30.527" x="104.367" y="19.518" stroke="#C4CDD5" stroke-dasharray="3 3" rx="4.5"/>
    <rect width="30.527" height="30.527" x="104.367" y="61.569" stroke="#C4CDD5" stroke-dasharray="3 3" rx="4.5"/>
    <rect width="30.527" height="30.527" x="146.356" y="19.518" stroke="#C4CDD5" stroke-dasharray="3 3" rx="4.5"/>
    <path stroke="#4A5F6E" stroke-linecap="round" stroke-linejoin="round" stroke-width=".3" d="M154.556 29.804v-.58h-1.458v.58M156.513 29.804v-.58h-1.459v.58"/>
    <path fill="#C4CDD5" fill-rule="evenodd" d="M171.253 28.646h-11.084v1.158h-7.87v1.952h18.954v-3.11z" clip-rule="evenodd"/>
    <path fill="#7790A3" fill-rule="evenodd" d="M152.299 41.386h18.954v-9.63h-18.954v9.63z" clip-rule="evenodd"/>
    <path fill-rule="evenodd" stroke="#4A5F6E" stroke-linecap="round" stroke-linejoin="round" stroke-width=".3" d="M169.646 30.783h-2.302a.49.49 0 0 1 0-.979h2.302c.269 0 .49.22.49.49s-.221.489-.49.489z" clip-rule="evenodd"/>
    <path fill="#D5DFE6" fill-rule="evenodd" d="M157.011 29.805h3.16v-1.16h-3.16v1.16z" clip-rule="evenodd"/>
    <path fill-rule="evenodd" stroke="#4A5F6E" stroke-linecap="round" stroke-linejoin="round" stroke-width=".3" d="M158.931 30.807a.34.34 0 1 1-.68.001.34.34 0 0 1 .68 0z" clip-rule="evenodd"/>
    <path stroke="#4A5F6E" stroke-width=".3" d="M157.406 28.638v1.166M158.979 28.638v1.166M158.189 28.638v1.166M159.772 28.638v1.166"/>
    <path stroke="#D5DFE6" stroke-linejoin="round" d="M152.299 31.756h18.954"/>
    <path fill="#4A5F6E" fill-rule="evenodd" d="M169.433 36.252a5.134 5.134 0 1 1-10.268 0 5.134 5.134 0 0 1 10.268 0z" clip-rule="evenodd"/>
    <path fill="#FEFEFE" fill-rule="evenodd" d="M168.25 36.252a3.952 3.952 0 1 1-7.903 0 3.952 3.952 0 0 1 7.903 0z" clip-rule="evenodd"/>
    <path fill-rule="evenodd" stroke="#7790A3" stroke-width=".3" d="M167.269 36.252a2.971 2.971 0 1 1-5.942 0 2.971 2.971 0 0 1 5.942 0z" clip-rule="evenodd"/>
    <path fill="#4A5F6E" fill-rule="evenodd" d="M166.238 36.252a1.94 1.94 0 1 1-3.88.001 1.94 1.94 0 0 1 3.88 0z" clip-rule="evenodd"/>
    <path fill-rule="evenodd" stroke="#7790A3" stroke-width=".2" d="M164.892 36.252a.593.593 0 1 1-1.187.002.593.593 0 0 1 1.187-.002z" clip-rule="evenodd"/>
    <rect width="30.527" height="30.527" x="188.346" y="19.518" stroke="#C4CDD5" stroke-dasharray="3 3" rx="4.5"/>
    <path fill="#DE7712" fill-rule="evenodd" d="M86.672 34.85a9.088 9.088 0 1 1-18.176 0 9.088 9.088 0 0 1 18.176 0z" clip-rule="evenodd"/>
    <path stroke="#BB5F05" stroke-linejoin="bevel" stroke-width=".75" d="M73.175 27.08c1.385.315 3.495 1.014 5.503 2.694 4.86 4.062 4.963 10.374 4.964 11.406"/>
    <path stroke="#BB5F05" stroke-linejoin="bevel" stroke-width=".75" d="M83.642 28.369a21.357 21.357 0 0 0-7.223 3.477c-3.522 2.608-5.438 5.7-6.362 7.469M78.876 25.967s.255 2.06-4.2 3.64c-4.456 1.58-5.4 2.378-5.4 2.378M75.624 43.457s2.278-2.424 2.465-4.847c.189-2.422.212-4.365 1.295-5.276 1.082-.911 2.423-1.775 3.481-1.63 1.06.143 2.73.866 3.447 3.07"/>
    <path fill="#FFC72C" fill-rule="evenodd" d="M120.008 42.981c-2.138-.014-3.86-1.769-3.845-3.919.014-2.15 1.759-3.88 3.898-3.866 2.138.014 3.86 1.769 3.845 3.919-.014 2.15-1.759 3.881-3.898 3.866zm.06-8.845c-2.72-.018-4.94 2.184-4.959 4.92-.018 2.734 2.172 4.966 4.893 4.985 2.72.018 4.94-2.184 4.958-4.92.019-2.734-2.172-4.966-4.892-4.985z" clip-rule="evenodd"/>
    <path fill="#9AE3FF" fill-rule="evenodd" d="M114.415 28.63l1.836-2.769h7.616l1.652 2.768-5.552 6.182-5.552-6.182z" clip-rule="evenodd"/>
    <path stroke="#fff" stroke-linecap="round" stroke-linejoin="round" stroke-width=".4" d="M114.559 28.628h10.814M116.243 25.98l1.924 2.65 1.792-2.65 1.888 2.65 2.012-2.65"/>
    <path stroke="#fff" stroke-linecap="round" stroke-linejoin="round" stroke-width=".4" d="M118.211 28.63s1.719 5.774 1.793 6.061l1.888-6.062"/>
    <path fill="#FFC72C" fill-rule="evenodd" d="M204.149 32.176h-7.381a.27.27 0 0 0-.267.228l-1.82 11.443a.271.271 0 0 0 .268.314h18.4c.166 0 .294-.15.268-.314l-1.82-11.443a.273.273 0 0 0-.268-.228h-7.38z" clip-rule="evenodd"/>
    <path stroke="#D8A20D" stroke-width=".5" d="M211.785 33.217l-4.592 5.866a.267.267 0 0 1-.209.102H201.313a.265.265 0 0 1-.208-.102l-4.593-5.866"/>
    <path fill="#FFFBF1" fill-rule="evenodd" d="M203.488 40.233h1.222v-2.095h-1.222v2.095z" clip-rule="evenodd"/>
    <path stroke="#4A5F6E" stroke-width=".5" d="M199.432 32.176c1.096-4.796 3.013-8.04 4.664-7.943 1.582.094 3.022 3.265 3.584 4.503.614 1.35.917 2.563 1.08 3.44"/>
    <path fill="url(#a)" d="M245.268 41.659h19.089v81.266h-19.089z"/>
    <path fill="url(#b)" d="M272.18 9.006h12.361v82.561H272.18z"/>
    <path fill="url(#c)" d="M279.44 66.694h15.396v82.031H279.44z"/>
    <mask id="d" width="20" height="27" x="245" y="28" maskUnits="userSpaceOnUse">
        <path fill="#fff" fill-rule="evenodd" d="M245.127 28.46h19.49v26.038h-19.49V28.46z" clip-rule="evenodd"/>
    </mask>
    <g mask="url(#d)">
        <path fill="#FFC72C" fill-rule="evenodd" d="M251.495 36.707a.6.6 0 0 1-.194.26l-6.174 4.512 6.174 4.511c.082.06.149.15.194.26l3.376 8.247 3.377-8.247a.599.599 0 0 1 .194-.26l6.175-4.511-6.175-4.512a.608.608 0 0 1-.194-.26l-3.377-8.248-3.376 8.248z" clip-rule="evenodd"/>
    </g>
    <mask id="e" width="13" height="18" x="272" y="0" maskUnits="userSpaceOnUse">
        <path fill="#fff" fill-rule="evenodd" d="M272.045.727h12.639v16.887h-12.639V.727z" clip-rule="evenodd"/>
    </mask>
    <g mask="url(#e)">
        <path fill="#FFC72C" fill-rule="evenodd" d="M276.174 6.076a.385.385 0 0 1-.126.17l-4.004 2.925 4.004 2.926a.377.377 0 0 1 .126.169l2.19 5.348 2.189-5.348a.393.393 0 0 1 .127-.169l4.004-2.926-4.004-2.926a.402.402 0 0 1-.127-.169L278.364.727l-2.19 5.35z" clip-rule="evenodd"/>
    </g>
    <path fill="#FFC72C" fill-rule="evenodd" d="M284.399 62.915a.513.513 0 0 1-.157.21l-4.988 3.645 4.988 3.643a.513.513 0 0 1 .157.21l2.728 6.664 2.728-6.663a.466.466 0 0 1 .157-.21L295 66.77l-4.988-3.644a.466.466 0 0 1-.157-.21l-2.728-6.664-2.728 6.663z" clip-rule="evenodd"/>
    <defs>
        <linearGradient id="a" x1="255.152" x2="255.152" y1="41.717" y2="122.982" gradientUnits="userSpaceOnUse">
            <stop stop-color="#FFEEB0" stop-opacity=".5"/>
            <stop offset="1" stop-color="#C4C4C4" stop-opacity="0"/>
        </linearGradient>
        <linearGradient id="b" x1="278.738" x2="278.738" y1="9.019" y2="91.58" gradientUnits="userSpaceOnUse">
            <stop stop-color="#FFEEB0" stop-opacity=".5"/>
            <stop offset="1" stop-color="#C4C4C4" stop-opacity="0"/>
        </linearGradient>
        <linearGradient id="c" x1="287.526" x2="287.526" y1="66.786" y2="148.817" gradientUnits="userSpaceOnUse">
            <stop stop-color="#FFEEB0" stop-opacity=".5"/>
            <stop offset="1" stop-color="#C4C4C4" stop-opacity="0"/>
        </linearGradient>
    </defs>
</svg>
