<svg width="319" height="143" viewBox="0 0 319 143" fill="none" xmlns="http://www.w3.org/2000/svg">
<path d="M159.684 12.6654C128.657 -16.072 77.8668 11.104 53.1404 25.4043C21.4241 43.7472 -9.43327 56.2315 2.70163 96.3416C17.8702 146.479 145.467 111.997 238.676 111.997C299.812 111.997 328.185 80.9923 314.867 52.0402C307.114 35.1847 284.871 21.5043 238.676 47.1845C192.48 72.8648 190.711 41.4028 159.684 12.6654Z" fill="#E7EEFD"/>
<mask id="mask0" mask-type="alpha" maskUnits="userSpaceOnUse" x="197" y="20" width="65" height="116">
<path fill-rule="evenodd" clip-rule="evenodd" d="M197.901 20.1917H261.559V136H197.901V20.1917Z" fill="white"/>
</mask>
<g mask="url(#mask0)">
<mask id="path-3-inside-1" fill="white">
<path fill-rule="evenodd" clip-rule="evenodd" d="M202.977 135.993L256.467 136.001C259.261 136.001 261.547 133.713 261.547 130.918L261.559 25.2785C261.559 22.4871 259.272 20.1993 256.479 20.1993L202.989 20.1917C200.195 20.1917 197.912 22.4794 197.909 25.2747L197.901 130.914C197.897 133.706 200.18 135.993 202.977 135.993Z"/>
</mask>
<path fill-rule="evenodd" clip-rule="evenodd" d="M202.977 135.993L256.467 136.001C259.261 136.001 261.547 133.713 261.547 130.918L261.559 25.2785C261.559 22.4871 259.272 20.1993 256.479 20.1993L202.989 20.1917C200.195 20.1917 197.912 22.4794 197.909 25.2747L197.901 130.914C197.897 133.706 200.18 135.993 202.977 135.993Z" fill="#F8FAFB"/>
<path d="M256.467 136.001L256.467 136.501H256.467V136.001ZM261.547 130.918L261.047 130.918V130.918H261.547ZM261.559 25.2785L262.059 25.2786V25.2785H261.559ZM256.479 20.1993L256.479 20.6993H256.479V20.1993ZM202.989 20.1917L202.989 19.6917H202.989V20.1917ZM197.909 25.2747L197.409 25.274L197.409 25.2746L197.909 25.2747ZM197.901 130.914L198.401 130.915L198.401 130.914L197.901 130.914ZM202.977 136.493L256.467 136.501L256.467 135.501L202.977 135.493L202.977 136.493ZM256.467 136.501C259.537 136.501 262.047 133.989 262.047 130.918H261.047C261.047 133.438 258.985 135.501 256.467 135.501V136.501ZM262.047 130.918L262.059 25.2786L261.059 25.2784L261.047 130.918L262.047 130.918ZM262.059 25.2785C262.059 22.2109 259.549 19.6993 256.479 19.6993V20.6993C258.996 20.6993 261.059 22.7632 261.059 25.2785H262.059ZM256.479 19.6993L202.989 19.6917L202.989 20.6917L256.479 20.6993L256.479 19.6993ZM202.989 19.6917C199.918 19.6917 197.413 22.204 197.409 25.274L198.409 25.2753C198.412 22.7548 200.472 20.6917 202.989 20.6917V19.6917ZM197.409 25.2746L197.401 130.914L198.401 130.914L198.409 25.2747L197.409 25.2746ZM197.401 130.914C197.397 133.982 199.903 136.493 202.977 136.493V135.493C200.456 135.493 198.397 133.43 198.401 130.915L197.401 130.914Z" fill="#EEF2F5" mask="url(#path-3-inside-1)"/>
</g>
<path fill-rule="evenodd" clip-rule="evenodd" d="M201.299 116.184L258.211 116.191L258.219 32.5141L201.307 32.5103L201.299 116.184Z" fill="url(#paint0_linear)"/>
<path fill-rule="evenodd" clip-rule="evenodd" d="M234.429 126.018C234.429 123.553 232.338 121.558 229.756 121.558C227.178 121.558 225.083 123.553 225.083 126.018C225.083 128.479 227.174 130.478 229.756 130.478C232.338 130.478 234.429 128.483 234.429 126.018Z" fill="#C4CDD5"/>
<path fill-rule="evenodd" clip-rule="evenodd" d="M221.295 26.1966C221.295 27.0339 220.611 27.7143 219.777 27.7143C218.936 27.7143 218.252 27.0339 218.252 26.1928C218.252 25.3556 218.936 24.6751 219.777 24.6751C220.611 24.6751 221.295 25.3556 221.295 26.1966Z" fill="#C4CDD5"/>
<path fill-rule="evenodd" clip-rule="evenodd" d="M239.424 24.677L225.611 24.6731C224.853 24.6731 224.234 25.2887 224.234 26.0418V26.3476C224.234 27.1008 224.853 27.7163 225.611 27.7163H239.424C240.181 27.7163 240.8 27.1008 240.8 26.3476V26.0418C240.8 25.2925 240.181 24.677 239.424 24.677Z" fill="#C4CDD5"/>
<path d="M237.618 73.2431C238.467 73.7336 238.467 74.9598 237.618 75.4503L223.281 83.7274C222.432 84.2179 221.37 83.6048 221.37 82.6238L221.37 66.0697C221.37 65.0887 222.432 64.4756 223.281 64.9661L237.618 73.2431Z" fill="white"/>
<g filter="url(#filter0_d)">
<path d="M287.87 136C293.202 135.689 297.45 130.927 297.45 125.065C297.45 119.012 292.915 114.107 287.317 114.107C286.3 114.107 285.305 114.274 284.375 114.586C282.694 106.953 276.323 101.258 268.735 101.258C261.191 101.258 254.886 106.857 253.117 114.394C252.385 114.22 251.634 114.132 250.882 114.131C245.285 114.131 240.75 119.036 240.75 125.09C240.75 130.855 244.865 135.546 250.085 136H287.871H287.87Z" fill="#8CACF6"/>
</g>
<path fill-rule="evenodd" clip-rule="evenodd" d="M268.238 112.907C268.337 112.789 268.482 112.722 268.636 112.722C268.789 112.722 268.935 112.789 269.034 112.907L272.526 117.029C272.658 117.183 272.688 117.401 272.602 117.586C272.517 117.77 272.332 117.888 272.128 117.888H270.158V121.849C270.158 122.071 270.07 122.283 269.913 122.44C269.756 122.596 269.543 122.684 269.322 122.684H267.951C267.49 122.684 267.116 122.31 267.116 121.849V117.888H265.143C264.94 117.888 264.754 117.77 264.668 117.585C264.583 117.4 264.613 117.182 264.745 117.028L268.238 112.907ZM275.553 120.305C275.332 120.305 275.119 120.392 274.962 120.549C274.805 120.705 274.717 120.917 274.717 121.139V125.35C274.717 125.489 274.662 125.622 274.565 125.72C274.467 125.818 274.334 125.873 274.196 125.873H263.077C262.789 125.873 262.555 125.639 262.555 125.351V121.14C262.555 120.918 262.467 120.706 262.31 120.55C262.153 120.393 261.941 120.306 261.719 120.306H261.016C260.555 120.306 260.181 120.679 260.181 121.14V127.074C260.181 127.535 260.555 127.909 261.016 127.909H276.257C276.478 127.908 276.69 127.82 276.847 127.663C277.003 127.507 277.091 127.294 277.091 127.073V121.14C277.091 120.679 276.717 120.305 276.257 120.305H275.553Z" fill="white"/>
<path fill-rule="evenodd" clip-rule="evenodd" d="M138.838 123.256L175.857 123.261L175.862 68.8338L138.843 68.8313L138.838 123.256Z" fill="url(#paint1_linear)"/>
<path d="M162.462 95.3256C163.014 95.6447 163.014 96.4423 162.462 96.7613L153.137 102.145C152.584 102.464 151.893 102.065 151.893 101.427L151.893 90.6597C151.893 90.0216 152.584 89.6228 153.137 89.9419L162.462 95.3256Z" fill="white"/>
<rect x="49.0081" y="50.802" width="137.97" height="84.6982" rx="1.5" stroke="#4A5F6E"/>
<path d="M48.5081 58.4084H186.899" stroke="#4A5F6E"/>
<rect x="61.2471" y="68.8313" width="64.8527" height="2.31617" rx="1" fill="#8CACF6"/>
<rect x="61.2471" y="74.6218" width="64.8527" height="2.31617" rx="1" fill="#8CACF6"/>
<rect x="61.2471" y="80.4121" width="64.8527" height="2.31617" rx="1" fill="#8CACF6"/>
<rect x="61.2471" y="86.2026" width="27.794" height="4.63233" rx="1" fill="#8CACF6"/>
<path opacity="0.4" d="M175.897 68.8314L197.901 24.8242V132.526L175.897 123.261V68.8314Z" fill="#C4CDD5"/>
<circle cx="53.7193" cy="54.355" r="1.23713" stroke="#4A5F6E"/>
<circle cx="59.5098" cy="54.355" r="1.23713" stroke="#4A5F6E"/>
<circle cx="65.3004" cy="54.355" r="1.23713" stroke="#4A5F6E"/>
<defs>
<filter id="filter0_d" x="229.75" y="92.2576" width="72.7001" height="50.7425" filterUnits="userSpaceOnUse" color-interpolation-filters="sRGB">
<feFlood flood-opacity="0" result="BackgroundImageFix"/>
<feColorMatrix in="SourceAlpha" type="matrix" values="0 0 0 0 0 0 0 0 0 0 0 0 0 0 0 0 0 0 127 0"/>
<feOffset dx="-3" dy="-1"/>
<feGaussianBlur stdDeviation="4"/>
<feColorMatrix type="matrix" values="0 0 0 0 0 0 0 0 0 0.113726 0 0 0 0 0.32549 0 0 0 0.09 0"/>
<feBlend mode="normal" in2="BackgroundImageFix" result="effect1_dropShadow"/>
<feBlend mode="normal" in="SourceGraphic" in2="effect1_dropShadow" result="shape"/>
</filter>
<linearGradient id="paint0_linear" x1="296.237" y1="101.537" x2="201.299" y2="32.5103" gradientUnits="userSpaceOnUse">
<stop stop-color="#FADDE2"/>
<stop offset="1" stop-color="#C3D4FA"/>
</linearGradient>
<linearGradient id="paint1_linear" x1="200.59" y1="113.729" x2="138.838" y2="68.8313" gradientUnits="userSpaceOnUse">
<stop stop-color="#FADDE2"/>
<stop offset="1" stop-color="#8CACF6"/>
</linearGradient>
</defs>
</svg>
