<svg xmlns="http://www.w3.org/2000/svg" xmlns:xlink="http://www.w3.org/1999/xlink" width="264" height="178" viewBox="0 0 264 178">
    <defs>
        <path id="a" d="M0 0h264v178H0z"/>
        <linearGradient id="c" x1="0%" y1="0%" y2="100%">
            <stop offset="0%" stop-color="#CEF2FD"/>
            <stop offset="100%" stop-color="#2FB7EC" stop-opacity=".4"/>
        </linearGradient>
        <linearGradient id="d" x1="28.101%" x2="28.101%" y1="100%" y2="17.09%">
            <stop offset="0%" stop-color="#2FB7EC" stop-opacity=".4"/>
            <stop offset="100%" stop-color="#2FB7EC" stop-opacity=".1"/>
        </linearGradient>
        <linearGradient id="e" x1="50%" x2="50%" y1="0%" y2="100%">
            <stop offset="0%" stop-color="#2FB7EC" stop-opacity=".4"/>
            <stop offset="100%" stop-color="#2FB7EC" stop-opacity=".1"/>
        </linearGradient>
        <linearGradient id="f" x1="50%" x2="50%" y1="0%" y2="100%">
            <stop offset="0%" stop-color="#2F88EC"/>
            <stop offset="100%" stop-color="#2FB7EC"/>
        </linearGradient>
        <linearGradient id="g" x1="0%" y1="0%" y2="100%">
            <stop offset="0%" stop-color="#92F1D3"/>
            <stop offset="100%" stop-color="#2EE3AA"/>
        </linearGradient>
        <linearGradient id="h" x1="143.582%" x2="-4.1%" y1="118.97%" y2="0%">
            <stop offset="0%" stop-color="#1ACC94"/>
            <stop offset="100%" stop-color="#1ACC94" stop-opacity="0"/>
        </linearGradient>
        <path id="i" d="M9.09 8.933c0 1.924-1.25 3.255-3.53 3.528v.58a.879.879 0 0 1-1.758 0v-.58c-1.68-.16-2.9-.77-3.802-1.652L1.441 8.74a4.744 4.744 0 0 0 3.374 1.411c.934 0 1.504-.4 1.504-.914 0-.61-.68-.85-1.805-1.09C2.772 7.794.333 7.345.333 4.81c0-1.62 1.235-3.047 3.468-3.304V.88a.879.879 0 1 1 1.758 0v.645c1.267.16 2.392.657 3.279 1.427l-1.49 1.972c-.886-.737-2.042-1.106-2.977-1.106-.903 0-1.25.369-1.25.834 0 .561.648.753 1.82.978 1.743.369 4.15.882 4.15 3.304z"/>
        <linearGradient id="j" x1="0%" x2="-9.546%" y1="0%" y2="358.057%">
            <stop offset="0%" stop-color="#92F1D3"/>
            <stop offset="100%" stop-color="#2EE3AA"/>
        </linearGradient>
        <linearGradient id="k" x1="0%" y1="0%" y2="100%">
            <stop offset="0%" stop-color="#1ACC94"/>
            <stop offset="100%" stop-color="#2EE3AA"/>
        </linearGradient>
        <linearGradient id="l" x1="0%" y1="0%" y2="100%">
            <stop offset="0%" stop-color="#FFE557"/>
            <stop offset="100%" stop-color="#FFC72C"/>
        </linearGradient>
        <linearGradient id="m" x1="0%" y1="0%" y2="100%">
            <stop offset="0%" stop-color="#E6F7FF"/>
            <stop offset="100%" stop-color="#CEF2FD"/>
        </linearGradient>
        <linearGradient id="n" x1="50%" x2="50%" y1="0%" y2="100%">
            <stop offset="0%" stop-color="#FFE380"/>
            <stop offset="100%" stop-color="#FFE380"/>
        </linearGradient>
        <linearGradient id="o" x1="50%" x2="50%" y1="100%" y2="0%">
            <stop offset="0%" stop-color="#FFD560"/>
            <stop offset="100%" stop-color="#F0B616"/>
        </linearGradient>
    </defs>
    <g fill="none" fill-rule="evenodd">
        <mask id="b" fill="#fff">
            <use xlink:href="#a"/>
        </mask>
        <use fill="#DE3030" fill-opacity="0" fill-rule="nonzero" xlink:href="#a"/>
        <g mask="url(#b)">
            <g transform="translate(12 27)">
                <path fill="url(#c)" fill-rule="nonzero" d="M48 0h184a8 8 0 0 1 8 8v116H48a8 8 0 0 1-8-8V8a8 8 0 0 1 8-8z"/>
                <path fill="url(#d)" d="M32 22H0L7.318 0h17.364z" opacity=".48" transform="translate(190 102)"/>
                <path fill="url(#e)" d="M48 0h72l40 124H48a8 8 0 0 1-8-8V8a8 8 0 0 1 8-8z" opacity=".48"/>
                <g fill-rule="nonzero" transform="translate(188 44)">
                    <path fill="#E14D4C" d="M28 38l8 10.175V58l-8-6V38zM8 38L0 48.175V58l8-6V38z"/>
                    <path fill="#FFF" d="M29.992 18c2.595 6.475 2.043 18.61-1.656 36.407A2 2 0 0 1 26.378 56H9.622a2 2 0 0 1-1.958-1.593C3.964 36.611 3.41 24.475 6 18h23.992z"/>
                    <path fill="#EEF2F5" d="M6 18h12v38H9.622a2 2 0 0 1-1.958-1.593C3.964 36.611 3.41 24.475 6 18z"/>
                    <path fill="#E14D4C" d="M10 56.001L8 62h20l-2-6z"/>
                    <circle cx="18" cy="28" r="5" fill="#8BDCFB" stroke="url(#f)" stroke-width="2"/>
                    <path fill="#E14D4C" d="M18 0C14.006 0 8 13.997 6 18h24c-2-4.003-8-18-12-18z"/>
                </g>
                <rect width="84" height="8" x="52" y="92" fill="#2FB7EC" fill-opacity=".4" fill-rule="nonzero" rx="2"/>
                <rect width="40" height="8" x="52" y="106" fill="#2FB7EC" fill-opacity=".4" fill-rule="nonzero" rx="2"/>
                <rect width="8" height="8" x="97" y="106" fill="#2FB7EC" fill-opacity=".4" fill-rule="nonzero" rx="4"/>
                <g fill-rule="nonzero" transform="translate(52 48)">
                    <rect width="40" height="28" fill="#FFE380" rx="4"/>
                    <path fill="#FFD560" d="M30 4h10v4H30zM30 20h10v4H30zM0 4h10v4H0z"/>
                    <path stroke="#FFD560" stroke-width="4" d="M12 6h16v16H12z"/>
                    <path fill="#FFD560" d="M0 20h10v4H0z"/>
                </g>
                <g fill-rule="nonzero" transform="translate(203 12)">
                    <circle cx="18" cy="7" r="7" fill="url(#g)"/>
                    <path fill="url(#h)" d="M11 0a7 7 0 0 1 0 14V0z" transform="matrix(-1 0 0 1 29 0)"/>
                    <circle cx="7" cy="7" r="7" fill="#EEF2F5"/>
                    <path fill="#FFF" d="M7 0a7 7 0 0 1 0 14V0z"/>
                </g>
                <g transform="translate(0 66)">
                    <path fill="url(#g)" fill-rule="nonzero" d="M18.378 20.88h13.636C48.038 39.307 53.341 51.68 47.924 58H2.468c-7.88-9.192 4.643-23.977 15.909-37.12z"/>
                    <path fill="url(#h)" fill-rule="nonzero" d="M26.136 47.2C21.39 50.11 13.477 53.683 2.402 57.922-5.34 48.723 7.144 33.986 18.378 20.88h13.636c4.028 4.632 7.378 8.881 10.051 12.748C35.512 40.186 30.203 44.71 26.136 47.2z"/>
                    <ellipse cx="25" cy="40.6" fill="#FFF" rx="13.636" ry="12.76"/>
                    <use fill="#1ACC94" transform="translate(20.455 33.64)" xlink:href="#i"/>
                    <path fill="#FFD560" fill-rule="nonzero" d="M18.213 16.24h13.574a2.304 2.304 0 0 1 2.304 2.304v.032a2.304 2.304 0 0 1-2.304 2.304H18.213a2.304 2.304 0 0 1-2.304-2.304v-.032a2.304 2.304 0 0 1 2.304-2.304z"/>
                    <path fill="url(#j)" fill-rule="nonzero" d="M13.636 2.32L25 0l11.364 2.32-4.546 13.92H18.182z"/>
                    <path fill="#92F1D3" fill-rule="nonzero" d="M14.773 4.64l-3.41 1.16 6.819 10.44z"/>
                    <path fill="#1ACC94" fill-rule="nonzero" d="M35.227 4.64l3.41 1.16-6.819 10.44z"/>
                    <path fill="url(#k)" fill-rule="nonzero" d="M25 0l11.364 2.32-4.546 13.92H25z" opacity=".4"/>
                    <path fill="#FFD560" fill-rule="nonzero" d="M25.185 19.145a1.14 1.14 0 0 1 1.284-.987c.621.09 1.054.677.966 1.311-.01.076-.028.238-.047.472-.132 1.674-.038 3.565.446 5.32.468 1.702 1.258 3.06 2.413 3.987.494.396.58 1.125.192 1.629a1.12 1.12 0 0 1-1.596.195c-1.572-1.261-2.608-3.042-3.197-5.183-.568-2.062-.675-4.21-.523-6.134.022-.282.045-.49.062-.61z"/>
                    <path fill="#FFD560" fill-rule="nonzero" d="M27.685 20.093a1.166 1.166 0 0 1 .712-1.47c.595-.205 1.24.12 1.44.727 1.118 3.373 3.585 5.01 7.663 5.01.628 0 1.136.52 1.136 1.16 0 .64-.508 1.16-1.136 1.16-5.013 0-8.372-2.228-9.815-6.587z"/>
                </g>
                <g fill-rule="nonzero" transform="rotate(15 -164.751 69.238)">
                    <path fill="#FFC72C" d="M11.993 4.793c0 1.324-2.685 2.397-5.996 2.397C2.685 7.19 0 6.117 0 4.793V2.397h11.993v2.396z"/>
                    <ellipse cx="5.997" cy="2.397" fill="url(#l)" rx="5.997" ry="2.397"/>
                </g>
                <g fill-rule="nonzero" transform="scale(-1 1) rotate(15 -219.803 -114.136)">
                    <path fill="#FFC72C" d="M11.993 4.793c0 1.324-2.685 2.397-5.996 2.397C2.685 7.19 0 6.117 0 4.793V2.397h11.993v2.396z"/>
                    <ellipse cx="5.997" cy="2.397" fill="url(#l)" rx="5.997" ry="2.397"/>
                </g>
            </g>
            <path fill="url(#m)" fill-rule="nonzero" d="M240 118v6h-71.465a4 4 0 0 1 6.139-4.975c1.64-4.674 6.092-8.025 11.326-8.025 4.95 0 9.198 2.996 11.033 7.273A32.013 32.013 0 0 1 206 117c3.113 0 6.122.444 8.967 1.273C216.802 113.996 221.05 111 226 111c5.234 0 9.686 3.351 11.326 8.025A3.985 3.985 0 0 1 240 118z" transform="translate(12 27)"/>
            <g fill-rule="nonzero">
                <path fill="url(#n)" d="M6 16C-.75 9.42.312 4.8 2 0h8c1.688 4.8 2.75 9.42-4 16z" transform="translate(212 133)"/>
                <path fill="url(#o)" d="M6 0c2.667 2.985 2.667 5.652 0 8-2.667-2.354-2.667-5.02 0-8z" transform="translate(212 133)"/>
            </g>
        </g>
    </g>
</svg>
