<svg width="301" height="240" viewBox="0 0 301 240" fill="none" xmlns="http://www.w3.org/2000/svg">
<rect x="0.0322266" width="300" height="240" fill="white" fill-opacity="0.01"/>
<mask id="mask0" mask-type="alpha" maskUnits="userSpaceOnUse" x="0" y="0" width="301" height="240">
<rect x="0.0322266" width="300" height="240" fill="white"/>
</mask>
<g mask="url(#mask0)">
<path fill-rule="evenodd" clip-rule="evenodd" d="M150.032 213C204.708 213 249.032 168.676 249.032 114C249.032 59.3238 204.708 15 150.032 15C95.356 15 51.0322 59.3238 51.0322 114C51.0322 168.676 95.356 213 150.032 213Z" fill="#EEF2F5"/>
<mask id="mask1" mask-type="alpha" maskUnits="userSpaceOnUse" x="51" y="15" width="199" height="198">
<path fill-rule="evenodd" clip-rule="evenodd" d="M150.032 213C204.708 213 249.032 168.676 249.032 114C249.032 59.3238 204.708 15 150.032 15C95.356 15 51.0322 59.3238 51.0322 114C51.0322 168.676 95.356 213 150.032 213Z" fill="white"/>
</mask>
<g mask="url(#mask1)">
<rect x="48.0322" y="97.5" width="90" height="60" fill="#AFC7D1" fill-opacity="0.2"/>
<rect x="147.032" y="181.5" width="84" height="15" fill="#AFC7D1" fill-opacity="0.2"/>
<rect x="231.032" y="97.5" width="30" height="84" fill="#AFC7D1" fill-opacity="0.2"/>
</g>
<path d="M138.032 91.5H231.032V187.5C231.032 187.5 230.117 199.5 219.032 199.5C207.948 199.5 138.032 199.5 138.032 199.5V91.5Z" fill="#2EE3AA"/>
<rect x="147.032" y="94.1958" width="48" height="4.5" rx="2.25" fill="white"/>
<rect x="147.032" y="103.196" width="42" height="4.5" rx="2.25" fill="white"/>
<rect x="147.032" y="112.196" width="42" height="4.5" rx="2.25" fill="white"/>
<rect x="147.032" y="153" width="21" height="4.5" rx="2.25" fill="white"/>
<rect x="147.032" y="162" width="21" height="4.5" rx="2.25" fill="white"/>
<rect x="147.032" y="175.5" width="30" height="4.5" rx="2.25" fill="#FFD560"/>
<rect x="147.032" y="135" width="42" height="4.5" rx="2.25" fill="white"/>
<rect x="147.032" y="144" width="42" height="4.5" rx="2.25" fill="white"/>
<path d="M91.1425 149.644C115.923 151.182 124.941 165.785 125.611 170.459C126.455 176.337 110.897 174.453 121.222 167.402C123.88 165.586 133.645 161.605 142.187 172.26" stroke="#1ACC94" stroke-width="3" stroke-linecap="round" stroke-linejoin="round"/>
<path d="M208.444 187.5C208.444 194.127 213.185 199.5 219.032 199.5H129.032V187.5H208.444Z" fill="url(#paint0_linear)"/>
<path fill-rule="evenodd" clip-rule="evenodd" d="M129.032 199.5V187.5H117.032C117.032 194.127 122.405 199.5 129.032 199.5Z" fill="#2EE3AA"/>
<mask id="mask2" mask-type="alpha" maskUnits="userSpaceOnUse" x="117" y="187" width="13" height="13">
<path fill-rule="evenodd" clip-rule="evenodd" d="M129.032 199.5V187.5H117.032C117.032 194.127 122.405 199.5 129.032 199.5Z" fill="white"/>
</mask>
<g mask="url(#mask2)">
</g>
<path d="M183.032 61.5H276.032V139.5C276.032 139.5 275.117 151.5 264.032 151.5C257.181 151.5 240.782 151.5 240.782 151.5L242.282 79.5L183.032 79.7417V61.5Z" fill="url(#paint1_linear)"/>
<path d="M231.032 90.75C231.032 84.5368 236.069 79.5 242.282 79.5C248.495 79.5 253.532 84.5368 253.532 90.75V151.5H231.032V90.75Z" fill="url(#paint2_linear)"/>
<path d="M231.032 91.5C231.032 83.0953 237.63 79.5 241.532 79.5H150.032V91.5H231.032Z" fill="#2EE3AA"/>
<path fill-rule="evenodd" clip-rule="evenodd" d="M150.032 79.5V91.5H138.032C138.032 84.8726 143.405 79.5 150.032 79.5Z" fill="#2EE3AA"/>
<mask id="mask3" mask-type="alpha" maskUnits="userSpaceOnUse" x="138" y="79" width="13" height="13">
<path fill-rule="evenodd" clip-rule="evenodd" d="M150.032 79.5V91.5H138.032C138.032 84.8726 143.405 79.5 150.032 79.5Z" fill="white"/>
</mask>
<g mask="url(#mask3)">
</g>
<path d="M236.9 165.078L262.356 190.534C264.699 192.877 264.699 196.676 262.356 199.019C260.013 201.362 256.214 201.362 253.871 199.019L228.415 173.563L236.9 165.078Z" fill="#2F88EC"/>
<path d="M185.988 173.563C200.047 187.622 222.841 187.622 236.9 173.563C250.959 159.504 250.959 136.711 236.9 122.652C222.841 108.593 200.047 108.593 185.988 122.652C171.93 136.711 171.93 159.504 185.988 173.563Z" fill="#2F88EC"/>
<path d="M192.352 167.199C202.897 177.744 219.992 177.744 230.536 167.199C241.08 156.655 241.08 139.56 230.536 129.016C219.992 118.472 202.897 118.472 192.352 129.016C181.808 139.56 181.808 156.655 192.352 167.199Z" fill="white"/>
<path d="M211.532 175.196C226.444 175.196 238.532 163.107 238.532 148.196C238.532 133.284 226.444 121.196 211.532 121.196C196.621 121.196 184.532 133.284 184.532 148.196C184.532 163.107 196.621 175.196 211.532 175.196Z" fill="white"/>
<mask id="mask4" mask-type="alpha" maskUnits="userSpaceOnUse" x="184" y="121" width="55" height="55">
<path d="M211.532 175.196C226.444 175.196 238.532 163.107 238.532 148.196C238.532 133.284 226.444 121.196 211.532 121.196C196.621 121.196 184.532 133.284 184.532 148.196C184.532 163.107 196.621 175.196 211.532 175.196Z" fill="white"/>
</mask>
<g mask="url(#mask4)">
<rect x="180.032" y="134.696" width="42" height="4.5" rx="2.25" fill="#92F1D3"/>
<rect x="180.032" y="143.696" width="42" height="4.5" rx="2.25" fill="#92F1D3"/>
<path d="M195.032 154.946C195.032 153.703 196.04 152.696 197.282 152.696H219.782C221.025 152.696 222.032 153.703 222.032 154.946C222.032 156.188 221.025 157.196 219.782 157.196H197.282C196.04 157.196 195.032 156.188 195.032 154.946Z" fill="#92F1D3"/>
</g>
<path d="M195.676 170.052C188.923 165.144 184.532 157.183 184.532 148.196C184.532 133.284 196.621 121.196 211.532 121.196C220.519 121.196 228.481 125.586 233.388 132.34C228.936 129.104 223.457 127.196 217.532 127.196C202.621 127.196 190.532 139.284 190.532 154.196C190.532 160.121 192.441 165.6 195.676 170.052Z" fill="#EEF2F5" style="mix-blend-mode:darken"/>
<path d="M276.032 60.75C276.032 54.5368 281.069 49.5 287.282 49.5C293.495 49.5 298.532 54.5368 298.532 60.75V73.5H276.032V60.75Z" fill="url(#paint3_linear)"/>
<path d="M276.032 61.5C276.032 54.8726 282.19 49.5 286.532 49.5H195.032V61.5H276.032Z" fill="#92F1D3"/>
<path fill-rule="evenodd" clip-rule="evenodd" d="M195.032 49.5V61.5H183.032C183.032 54.8726 188.405 49.5 195.032 49.5Z" fill="#92F1D3"/>
<mask id="mask5" mask-type="alpha" maskUnits="userSpaceOnUse" x="183" y="49" width="13" height="13">
<path fill-rule="evenodd" clip-rule="evenodd" d="M195.032 49.5V61.5H183.032C183.032 54.8726 188.405 49.5 195.032 49.5Z" fill="white"/>
</mask>
<g mask="url(#mask5)">
</g>
<rect x="193.532" y="61.5" width="42" height="4.5" rx="2.25" fill="#2EE3AA"/>
<rect x="193.532" y="70.5" width="24" height="4.5" rx="2.25" fill="#2EE3AA"/>
<rect x="222.459" y="73.7417" width="42" height="9" transform="rotate(135 222.459 73.7417)" fill="#FFE380"/>
<path d="M224.58 69.4992C225.166 70.0849 225.166 71.0347 224.58 71.6205L222.459 73.7418L216.095 67.3778L218.216 65.2565C218.802 64.6707 219.752 64.6707 220.337 65.2565L224.58 69.4992Z" fill="#4A90E2"/>
<rect x="222.459" y="73.7417" width="42" height="4.5" transform="rotate(135 222.459 73.7417)" fill="url(#paint4_linear)"/>
<path d="M192.76 103.44L183.214 106.622L186.396 97.0762L192.76 103.44Z" fill="white"/>
<path d="M187.987 105.031L183.214 106.622L184.805 101.849L187.987 105.031Z" fill="#4A5F6E"/>
<path d="M51.5991 143.82C63.5309 143.82 72.0537 143.82 72.0537 143.82C72.0537 143.82 108.106 185.28 95.9173 199.5C84.6293 199.5 44.7809 199.5 27.7355 199.5C15.9162 185.711 34.7001 163.535 51.5991 143.82Z" fill="url(#paint5_linear)"/>
<path d="M63.2368 183.301C52.5546 189.844 27.6348 199.382 27.6348 199.382C16.0236 185.585 34.7484 163.479 51.5991 143.82H72.0537C78.0951 150.768 83.1206 157.142 87.1301 162.942C87.1301 162.942 72.3863 177.697 63.2368 183.301Z" fill="url(#paint6_linear)"/>
<path fill-rule="evenodd" clip-rule="evenodd" d="M61.5327 192.54C72.8294 192.54 81.9872 183.971 81.9872 173.4C81.9872 162.829 72.8294 154.26 61.5327 154.26C50.2359 154.26 41.0781 162.829 41.0781 173.4C41.0781 183.971 50.2359 192.54 61.5327 192.54Z" fill="white"/>
<path fill-rule="evenodd" clip-rule="evenodd" d="M68.3502 176.359C68.3502 179.245 66.4734 181.242 63.0525 181.651V182.521C63.0525 183.25 62.4622 183.84 61.734 183.84C61.0058 183.84 60.4155 183.25 60.4155 182.521V181.651C57.8973 181.41 56.068 180.496 54.7139 179.173L56.8757 176.07C58.0161 177.225 59.7741 178.187 61.9359 178.187C63.3376 178.187 64.1928 177.586 64.1928 176.816C64.1928 175.902 63.1713 175.541 61.4845 175.18C58.8713 174.651 55.2128 173.977 55.2128 170.177C55.2128 167.747 57.0658 165.606 60.4155 165.221V164.278C60.4155 163.55 61.0058 162.96 61.734 162.96C62.4622 162.96 63.0525 163.55 63.0525 164.278V165.245C64.953 165.486 66.6397 166.231 67.9701 167.386L65.737 170.345C64.4066 169.238 62.6724 168.685 61.2707 168.685C59.9166 168.685 59.3939 169.238 59.3939 169.936C59.3939 170.778 60.368 171.067 62.126 171.403C64.7392 171.957 68.3502 172.726 68.3502 176.359Z" fill="#1ACC94"/>
<mask id="mask6" mask-type="alpha" maskUnits="userSpaceOnUse" x="54" y="162" width="15" height="22">
<path fill-rule="evenodd" clip-rule="evenodd" d="M68.3502 176.359C68.3502 179.245 66.4734 181.242 63.0525 181.651V182.521C63.0525 183.25 62.4622 183.84 61.734 183.84C61.0058 183.84 60.4155 183.25 60.4155 182.521V181.651C57.8973 181.41 56.068 180.496 54.7139 179.173L56.8757 176.07C58.0161 177.225 59.7741 178.187 61.9359 178.187C63.3376 178.187 64.1928 177.586 64.1928 176.816C64.1928 175.902 63.1713 175.541 61.4845 175.18C58.8713 174.651 55.2128 173.977 55.2128 170.177C55.2128 167.747 57.0658 165.606 60.4155 165.221V164.278C60.4155 163.55 61.0058 162.96 61.734 162.96C62.4622 162.96 63.0525 163.55 63.0525 164.278V165.245C64.953 165.486 66.6397 166.231 67.9701 167.386L65.737 170.345C64.4066 169.238 62.6724 168.685 61.2707 168.685C59.9166 168.685 59.3939 169.238 59.3939 169.936C59.3939 170.778 60.368 171.067 62.126 171.403C64.7392 171.957 68.3502 172.726 68.3502 176.359Z" fill="white"/>
</mask>
<g mask="url(#mask6)">
</g>
<path d="M47.8955 140.34C47.8955 138.431 49.4428 136.86 51.3515 136.86H71.7122C73.6209 136.86 75.1682 138.431 75.1682 140.34C75.1682 142.249 73.6209 143.82 71.7122 143.82H51.3515C49.4428 143.82 47.8955 142.249 47.8955 140.34Z" fill="#FFD560"/>
<path d="M44.4863 115.98L61.5318 112.5L78.5772 115.98L71.7591 136.86H51.3045L44.4863 115.98Z" fill="url(#paint7_linear)"/>
<path d="M46.1911 119.46L41.0774 121.2L51.3047 136.86L46.1911 119.46Z" fill="#92F1D3"/>
<path d="M76.8734 119.46L81.987 121.2L71.7598 136.86L76.8734 119.46Z" fill="#1ACC94"/>
<path opacity="0.4" d="M61.5322 112.5L78.5777 115.98L71.7595 136.86H61.5322V112.5Z" fill="url(#paint8_linear)"/>
<path d="M61.8096 141.218C61.9411 140.266 62.8034 139.603 63.7356 139.738C64.6677 139.872 65.3168 140.752 65.1853 141.704C65.1695 141.818 65.1427 142.06 65.1149 142.412C64.9165 144.923 65.0579 147.758 65.7829 150.392C66.4857 152.944 67.6705 154.982 69.4035 156.372C70.1438 156.965 70.2725 158.059 69.691 158.815C69.1095 159.571 68.0379 159.702 67.2976 159.108C64.9383 157.217 63.3855 154.546 62.501 151.333C61.6494 148.24 61.4888 145.019 61.7169 142.132C61.7503 141.709 61.7846 141.398 61.8096 141.218Z" fill="#FFD560"/>
<path d="M65.56 142.64C65.2585 141.729 65.737 140.742 66.6288 140.434C67.5206 140.126 68.488 140.615 68.7895 141.525C70.465 146.584 74.1661 149.04 80.2826 149.04C81.224 149.04 81.9871 149.819 81.9871 150.78C81.9871 151.741 81.224 152.52 80.2826 152.52C72.7627 152.52 67.7252 149.177 65.56 142.64Z" fill="#FFD560"/>
</g>
<defs>
<linearGradient id="paint0_linear" x1="174.032" y1="181.5" x2="170.888" y2="205.081" gradientUnits="userSpaceOnUse">
<stop stop-color="#1ACC94"/>
<stop offset="1" stop-color="#2EE3AA"/>
</linearGradient>
<linearGradient id="paint1_linear" x1="183.032" y1="61.5" x2="183.032" y2="151.5" gradientUnits="userSpaceOnUse">
<stop stop-color="#92F1D3"/>
<stop offset="1" stop-color="#2EE3AA"/>
</linearGradient>
<linearGradient id="paint2_linear" x1="235.995" y1="79.5" x2="235.995" y2="151.5" gradientUnits="userSpaceOnUse">
<stop stop-color="#1ACC94"/>
<stop offset="1" stop-color="#2EE3AA"/>
</linearGradient>
<linearGradient id="paint3_linear" x1="287.282" y1="37.5" x2="263.332" y2="59.9532" gradientUnits="userSpaceOnUse">
<stop stop-color="#1ACC94"/>
<stop offset="1" stop-color="#2EE3AA"/>
</linearGradient>
<linearGradient id="paint4_linear" x1="227.976" y1="71.4917" x2="227.336" y2="81.8604" gradientUnits="userSpaceOnUse">
<stop stop-color="#FFE380"/>
<stop offset="1" stop-color="#FFD560"/>
</linearGradient>
<linearGradient id="paint5_linear" x1="-13.4501" y1="171.66" x2="39.8551" y2="243.428" gradientUnits="userSpaceOnUse">
<stop stop-color="#92F1D3"/>
<stop offset="1" stop-color="#2EE3AA"/>
</linearGradient>
<linearGradient id="paint6_linear" x1="152.163" y1="168.894" x2="68.5153" y2="92.3691" gradientUnits="userSpaceOnUse">
<stop stop-color="#1ACC94"/>
<stop offset="1" stop-color="#1ACC94" stop-opacity="0.01"/>
</linearGradient>
<linearGradient id="paint7_linear" x1="-16.546" y1="111.337" x2="-18.2083" y2="198.59" gradientUnits="userSpaceOnUse">
<stop stop-color="#92F1D3"/>
<stop offset="1" stop-color="#2EE3AA"/>
</linearGradient>
<linearGradient id="paint8_linear" x1="53.0095" y1="124.68" x2="75.8951" y2="140.694" gradientUnits="userSpaceOnUse">
<stop stop-color="#1ACC94"/>
<stop offset="1" stop-color="#2EE3AA"/>
</linearGradient>
</defs>
</svg>
