<svg xmlns="http://www.w3.org/2000/svg" width="16" height="16" fill="none" viewBox="0 0 16 16">
    <path fill="#AFC7D1" d="M8 16c-4.418 0-8-3.582-8-8s3.582-8 8-8 8 3.582 8 8-3.582 8-8 8z"/>
    <path fill="#AFC7D1" d="M8 14c3.314 0 6-2.686 6-6s-2.686-6-6-6-6 2.686-6 6 2.686 6 6 6z"/>
    <path fill="#CFDDE3" d="M8 14c3.314 0 6-2.686 6-6s-2.686-6-6-6-6 2.686-6 6 2.686 6 6 6z"/>
    <path fill="#4A5F6E" d="M7 5.999h2v6H7v-6zM8 4.998c-.552 0-1-.448-1-1 0-.553.448-1.001 1-1.001.553 0 1 .448 1 1 0 .553-.447 1.001-1 1.001z"/>
</svg>
