<svg xmlns="http://www.w3.org/2000/svg" xmlns:xlink="http://www.w3.org/1999/xlink" width="40" height="40" viewBox="0 0 40 40">
    <defs>
        <path id="a" d="M0 0h40v40H0z"/>
        <circle id="c" cx="16" cy="16" r="16"/>
        <path id="d" d="M0 0h16v16H0z"/>
    </defs>
    <g fill="none" fill-rule="evenodd">
        <mask id="b" fill="#fff">
            <use xlink:href="#a"/>
        </mask>
        <use fill="#DB2B2B" fill-opacity="0" fill-rule="nonzero" xlink:href="#a"/>
        <g mask="url(#b)">
            <g transform="translate(4 3)">
                <g fill-rule="nonzero">
                    <use fill="#FFF" xlink:href="#c"/>
                    <use fill="#E14D4C" fill-opacity=".3" xlink:href="#c"/>
                </g>
                <path stroke="#EE6C6B" stroke-linecap="round" stroke-linejoin="round" stroke-width="2" d="M23.299 2.758A15.932 15.932 0 0 0 16 1C7.163 1 0 8.163 0 17c0 4.849 2.157 9.194 5.563 12.128m5.197 2.994A15.89 15.89 0 0 0 16 33c8.837 0 16-7.163 16-16 0-3.904-1.398-7.481-3.72-10.258"/>
                <circle cx="32" cy="5" r="1" fill="#FED428" fill-rule="nonzero"/>
                <g transform="translate(8 9)">
                    <mask id="e" fill="#fff">
                        <use xlink:href="#d"/>
                    </mask>
                    <use fill="#FF3838" fill-opacity="0" xlink:href="#d"/>
                    <g mask="url(#e)">
                        <path fill="#FFF" stroke="#EE6C6B" stroke-width="2" d="M6 11h4v-.38l.5-.288a5 5 0 1 0-4.999 0L6 10.62V11z"/>
                        <path fill="#EE6C6B" d="M5 13h6a3 3 0 0 1-6 0z"/>
                    </g>
                </g>
                <path fill="#FED428" stroke="#FFF" stroke-linecap="round" stroke-linejoin="round" d="M29.802 7.198l2.17 1.302-2.17 1.302-1.302 2.17-1.302-2.17-2.17-1.302 2.17-1.302 1.302-2.17 1.302 2.17z"/>
                <circle cx="8" cy="31" r="1" fill="#EE6C6B"/>
            </g>
        </g>
    </g>
</svg>
