<svg xmlns="http://www.w3.org/2000/svg" xmlns:xlink="http://www.w3.org/1999/xlink" width="16" height="16" viewBox="0 0 16 16">
    <defs>
        <path id="a" d="M0 0h16v16H0z"/>
        <path id="b" d="M13.003 1a1 1 0 0 1 2.001 0v5a1 1 0 0 1-1 1l-5.003.004a1 1 0 1 1 0-2h3.002A5.002 5.002 0 0 0 3.1 7H1c.492-3.393 3.438-6 7-6 1.954 0 3.723.784 5.003 2.053V1.001zM3.001 12.95v2.053a1 1 0 0 1-2.001 0V10a1 1 0 0 1 1-1h5.004a1 1 0 1 1 0 2.002H4A5.002 5.002 0 0 0 12.9 9h2.099c-.492 3.392-3.438 6-7 6a7.084 7.084 0 0 1-4.999-2.05z"/>
    </defs>
    <g fill="none" fill-rule="nonzero">
        <use fill="#D41D1D" fill-opacity="0" xlink:href="#a"/>
        <use fill="#4A5F6E" xlink:href="#b"/>
    </g>
</svg>
