<svg xmlns="http://www.w3.org/2000/svg" xmlns:xlink="http://www.w3.org/1999/xlink" width="32" height="32" viewBox="0 0 32 32">
    <defs>
        <circle id="a" cx="16" cy="16" r="16"/>
    </defs>
    <g fill="none" fill-rule="evenodd">
        <mask id="b" fill="#fff">
            <use xlink:href="#a"/>
        </mask>
        <use fill="#D5DFE6" xlink:href="#a"/>
        <path fill="#FFF" d="M9.986 10.836l9.738-1.623a2 2 0 0 1 1.993.863L23 12H9c0-.577.417-1.07.986-1.164z" mask="url(#b)"/>
        <path fill="#006BA0" d="M10 11h12a1 1 0 0 1 1 1v10a1 1 0 0 1-1 1H10a1 1 0 0 1-1-1v-5-5a1 1 0 0 1 1-1z" mask="url(#b)"/>
        <path fill="#1A4379" d="M19 15h4.5a.5.5 0 0 1 .5.5v3a.5.5 0 0 1-.5.5H19v-4zM11 15l4 2.5-4 2.5z" mask="url(#b)"/>
        <path fill="#1A4379" d="M6.5 17h6a.5.5 0 1 1 0 1h-6a.5.5 0 1 1 0-1zM4.5 17a.5.5 0 1 1 0 1 .5.5 0 0 1 0-1z" mask="url(#b)"/>
        <circle cx="19" cy="17" r="2" fill="#1A4379" mask="url(#b)"/>
        <circle cx="19" cy="17" r="1" fill="#D5DFE6" mask="url(#b)"/>
    </g>
</svg>
