<svg xmlns="http://www.w3.org/2000/svg" width="32" height="32" viewBox="0 0 32 32">
    <g fill="none" fill-rule="evenodd">
        <circle cx="16" cy="16" r="16" fill="#D5DFE6"/>
        <path fill="#006BA0" d="M8 10l6-1 10 1v13H8z"/>
        <path fill="#FFF" d="M8 10l6-1v14H8z"/>
        <path fill="#D5DFE6" d="M9 21h4v1H9z"/>
        <path fill="#FFF" fill-rule="nonzero" d="M8 10v4H5z"/>
        <path fill="#1A4379" d="M14 9l10 1 3 3H17zM7 15l-4 2.5L7 20z"/>
        <path fill="#1A4379" d="M11.5 17h-6a.5.5 0 1 0 0 1h6a.5.5 0 1 0 0-1zM15.5 17h-2a.5.5 0 1 0 0 1h2a.5.5 0 1 0 0-1zM17.5 17a.5.5 0 1 0 0 1 .5.5 0 0 0 0-1z"/>
    </g>
</svg>
