<svg width="100" height="101" viewBox="0 0 100 101" fill="none" xmlns="http://www.w3.org/2000/svg">
<path d="M69.3004 59.0881C69.669 60.1294 69.1236 61.2723 68.0823 61.6408C67.041 62.0093 65.8981 61.4639 65.5296 60.4226L69.3004 59.0881ZM11.6242 25.7429C10.9386 24.8769 11.0848 23.619 11.9508 22.9334L26.063 11.7601C26.929 11.0744 28.1869 11.2206 28.8726 12.0866C29.5582 12.9526 29.412 14.2105 28.546 14.8961L16.0018 24.828L25.9336 37.3722C26.6193 38.2382 26.4731 39.4961 25.6071 40.1817C24.7411 40.8674 23.4832 40.7212 22.7975 39.8552L11.6242 25.7429ZM65.5296 60.4226C60.1972 45.3552 54.3072 37.9307 46.4324 33.705C38.3574 29.3719 27.9653 28.232 12.9613 26.488L13.4231 22.5148C28.1187 24.2229 39.4208 25.403 48.3238 30.1804C57.4269 35.0652 63.7985 43.5417 69.3004 59.0881L65.5296 60.4226Z" fill="#022786"/>
<path d="M85.3345 52.3384C85.3345 51.2338 84.439 50.3384 83.3345 50.3384H31.8789C30.7744 50.3384 29.8789 51.2338 29.8789 52.3384V84.5635C29.8789 85.6681 30.7744 86.5635 31.8789 86.5635H83.3345C84.439 86.5635 85.3345 85.6681 85.3345 84.5635V52.3384Z" stroke="#022786" stroke-width="4"/>
<path d="M45.2549 52.3384C45.2549 51.2338 44.3595 50.3384 43.2549 50.3384H31.8778C30.7732 50.3384 29.8778 51.2338 29.8778 52.3384V84.5635C29.8778 85.6681 30.7732 86.5635 31.8778 86.5635H43.2549C44.3595 86.5635 45.2549 85.6681 45.2549 84.5635V52.3384Z" stroke="#022786" stroke-width="4"/>
<line x1="66.7432" y1="78.6953" x2="78.2432" y2="78.6953" stroke="#022786" stroke-width="4" stroke-linecap="round"/>
<line x1="58.9932" y1="78.6953" x2="60" y2="78.6953" stroke="#022786" stroke-width="4" stroke-linecap="round"/>
<path d="M57.2913 53.2144C57.2913 52.1098 58.1867 51.2144 59.2913 51.2144H72.028C73.1326 51.2144 74.028 52.1098 74.028 53.2144V59.8703C74.028 61.4114 72.3583 62.3735 71.025 61.6006L70.9494 61.5568C70.2753 61.166 69.4356 61.2023 68.7977 61.6499L67.3577 62.6601C66.7592 63.0801 65.9791 63.1399 65.3235 62.8162L62.4366 61.3906C61.8362 61.0941 61.1273 61.1177 60.548 61.4535L60.2943 61.6006C58.9609 62.3735 57.2913 61.4114 57.2913 59.8703V53.2144Z" fill="#022786"/>
</svg>
