<svg width="72" height="8" viewBox="0 0 72 8" fill="none" xmlns="http://www.w3.org/2000/svg">
<path d="M1 3.47803C0.723858 3.47803 0.5 3.70188 0.5 3.97803C0.5 4.25417 0.723858 4.47803 1 4.47803L1 3.47803ZM71.3536 4.33157C71.5488 4.13631 71.5488 3.81973 71.3536 3.62447L68.1716 0.442488C67.9763 0.247225 67.6597 0.247225 67.4645 0.442488C67.2692 0.63775 67.2692 0.954332 67.4645 1.14959L70.2929 3.97802L67.4645 6.80645C67.2692 7.00171 67.2692 7.31829 67.4645 7.51356C67.6597 7.70882 67.9763 7.70882 68.1716 7.51356L71.3536 4.33157ZM1 4.47803L71 4.47802L71 3.47802L1 3.47803L1 4.47803Z" fill="#BFCDD4"/>
</svg>
