<svg xmlns="http://www.w3.org/2000/svg" width="196" height="128" fill="none" viewBox="0 0 196 128">
    <rect width="139.091" height="81.923" x="23.407" y="2.765" fill="#FEFFFF" stroke="#E7EEFD" rx="1.5"/>
    <rect width="116.212" height="55.831" x="35.157" y="14.497" fill="#E7EEFD" rx="1"/>
    <path fill="#fff" d="M35.157 20.643H151.99099999999999V27.497H35.157zM35.157 33.171H151.99099999999999V40.025H35.157zM35.157 45.699H151.99099999999999V52.553H35.157zM35.157 58.227H151.99099999999999V65.081H35.157z"/>
    <path fill="#E7EEFD" d="M22.908 2c0-1.105.895-2 2-2h136.091c1.104 0 2 .895 2 2v3.896H22.908V2z"/>
    <circle cx="25.966" cy="2.867" r="1.131" fill="#C3D4FA"/>
    <circle cx="29.072" cy="2.867" r="1.131" fill="#C3D4FA"/>
    <circle cx="32.179" cy="2.867" r="1.131" fill="#C3D4FA"/>
    <ellipse cx="92.953" cy="113.114" fill="#E7EEFD" rx="83.803" ry="13.967"/>
    <path fill="#001D53" fill-rule="evenodd" d="M92.37 20.68c1.665-.824 2.809-2.54 2.809-4.523 0-2.787-2.26-5.046-5.046-5.046-2.787 0-5.046 2.26-5.046 5.046 0 1.951 1.108 3.644 2.73 4.484v89.05c-7.572.177-13.382 1.212-13.382 2.462 0 1.374 7.028 2.488 15.698 2.488 8.67 0 15.699-1.114 15.699-2.488 0-1.254-5.851-2.292-13.462-2.464V20.681z" clip-rule="evenodd"/>
    <path fill="#326BEE" d="M83.034 26.47c2.936 0 5.94 2.092 6.842 3.139.933-1.143 3.13-3.14 6.568-3.14 3.438 0 5.569 2.238 5.891 3.381-2.163 5.293-3.394 12.414-3.314 15.489 0 1.596 0 2.622 1.149 5.358 1.74 4.145 2.621 9.935 2.507 12.481-.076 2.964-.25 9.222-.342 10.544-.091 1.322-2.247 1.805-3.314 1.88H81.298c-2.286 0-2.473-1.253-2.393-1.88-.057-.627-.216-3.522-.399-10.088-.228-8.207 1.316-10.686 2.11-12.938.682-1.937.817-4.236.682-5.357.193-1.97-2.723-11.175-3.866-15.73.338-.677 1.932-3.14 5.602-3.14z"/>
    <path fill="#152934" fill-rule="evenodd" d="M160.885 119.485l.58 5.959c.037.382-.243.722-.626.759l-1.473.144c-.383.037-.724-.243-.761-.625l-.017-.175c-2.768 2.092-7.448 1.106-7.875.216-.426-.891.037-.937 1.332-1.148 1.295-.21 2.116-.503 3.401-1.263 1.284-.761 1.094-1.887 1.094-1.887l-.132-1.353c-.037-.386.247-.729.635-.76.849-.069 2.268-.188 3.111-.281l.263-.025s.412-.128.468.439zM190.793 116.002l4.181 4.293c.269.275.263.715-.014.982l-1.061 1.031c-.275.268-.716.261-.985-.013l-.123-.128c-.853 3.36-5.126 5.508-6.016 5.078-.891-.43-.557-.753.322-1.726.881-.972 1.339-1.712 1.866-3.107.528-1.394-.325-2.155-.325-2.155l-.949-.975c-.271-.278-.263-.723.02-.989.62-.583 1.654-1.561 2.254-2.158l.191-.185s.242-.356.639.052z" clip-rule="evenodd"/>
    <path fill="#FFDFD2" d="M145.984 36.658c.771.845 2.87 1.95 2.87 1.95l3.142 3.611 2.993-1.479-2.849-2.63c-.157-.2-.197-2.198-.303-2.43-.399-.877-1.201-2.655-1.579-2.299-.474.447-.054 1.535-.054 1.535s-2.765-1.666-3.211-1.491c-.447.174-1.031.624-1.475 1.807-.077.205-.136.398-.17.567-.048.235.545.76.636.86z"/>
    <path fill="#FFA39E" d="M149.761 40.45l2.621-3.675c1.765 1.237 8.04 5.135 8.75 5.737.709.6 4.176.633 6.971 1.127l-.631 6.854c-1.845-.846-4.612-1.543-5.797-1.968-1.184-.425-8.843-5.747-11.914-8.074z"/>
    <path fill="#152934" fill-rule="evenodd" d="M158.863 30.985v2.737l2.191-.982-.142-2.305-2.049.55z" clip-rule="evenodd"/>
    <path fill="#FFDFD2" fill-rule="evenodd" d="M164.839 34.656c-.388.915-.971 2.229-1.964 2.23-1.045 0-2.343.086-2.697-.899.531-2.491.277-4.382.277-4.382 0-.188-.754.297-1.426.472-.672.175-1.559.055-2.164-.472-.562-.49-.642-1.435-.758-1.87-.621-2.315.862-7.199.998-7.729 0 0 4.071 1.3 7.155 3.268" clip-rule="evenodd"/>
    <path fill="#152934" fill-rule="evenodd" d="M170.604 26.996c-1.125-1.443-2.318-2.89-3.543-4.261-1.233-1.38-3.222-3.512-5.501-3.291-1.525 0-2.872.64-3.545.97-.673.328-1.221 1.038-1.347 1.646-.064.314-.105 1.383.674 2.306 1.498 1.776 3.186 1.86 3.581 2.105.489.303.906.526 1.173.663.022.092.058.24.1.424.265 1.138.395 1.884.544 2.582l.565 2.46 8.848-3.386-1.549-2.218z" clip-rule="evenodd"/>
    <path fill="#1D4BEA" d="M149.849 90.004c0-3.816 1.644-12.524 8.218-29.367l13.695-5.183c.877 3.8-8.217 26.776-12.052 36.71.548 4.75 1.568 27.363 1.568 27.795 0 .346-3.56.3-5.203.444-1.096-1.296-6.226-22.194-6.226-30.4z"/>
    <path fill="#FFD560" d="M139.214 37.214c.867 3.963 1.53 6.013 1.02 8.325-.396 2.986-2.936 10.612-9.188 16.1-7.816 6.861-11.235 5.427-16.851 11.961l-1.48 2.2 3.792 4.083c.878-1.052 2.737-3.246 3.145-3.605 5.653-5.067 10.073-5.572 16.517-11.429 5.906-5.369 7.393-13.814 7.598-16.125.444-4.999 1.391-5.835-3.231-12.265l-1.322.755z"/>
    <path fill="#fff" d="M0 0H0.482V2.099H0z" transform="matrix(.65198 -.74184 .58615 .8217 115.671 72.375)"/>
    <path fill="#fff" d="M0 0H0.488V2.079H0z" transform="matrix(.78518 -.4866 .43617 .96238 126.096 65.508)"/>
    <path fill="#fff" d="M0 0H0.49V2.072H0z" transform="matrix(.80322 -.43556 .40547 .98415 120.654 68.384)"/>
    <path fill="#fff" d="M0 0H0.483V2.096H0z" transform="matrix(.70118 -.66441 .54087 .871 131.331 61.528)"/>
    <path fill="#fff" d="M0 0H0.482V2.098H0z" transform="matrix(.56322 -.85233 .65248 .73553 135.797 56.202)"/>
    <path fill="#fff" d="M0 0H0.488V2.079H0z" transform="matrix(.3902 -.99758 .74747 .56944 138.924 49.975)"/>
    <path fill="#fff" d="M0 0H0.969V3.328H0z" transform="matrix(.73899 -.59351 .49939 .91064 117.905 70.207)"/>
    <path fill="#fff" d="M0 0H0.979V3.302H0z" transform="matrix(.79877 -.4488 .41348 .97867 123.214 67.031)"/>
    <path fill="#fff" d="M0 0H0.97V3.095H0z" transform="matrix(.74955 -.5714 .4864 .92208 128.626 63.82)"/>
    <path fill="#fff" d="M0 0H0.964V2.942H0z" transform="matrix(.63745 -.7622 .5983 .80726 133.654 59.102)"/>
    <path fill="#fff" d="M0 0H0.968V2.656H0z" transform="matrix(.49452 -.91922 .69446 .66992 137.449 53.283)"/>
    <path fill="#F0B616" d="M116.841 78.136c.425.354.482.984.128 1.409l-.404.486-4.43-3.69.404-.486c.354-.425.985-.482 1.409-.129l2.893 2.41z"/>
    <path fill="#326BEE" d="M174.811 68.547c-.494-5.168-1.236-7.347-3.553-10.153 0 0-13.123 1.837-13.098 3.172.268 14.276 5.595 26.953 7.649 31.193 1.616 3.337 19.614 27.03 22.23 26.642 1.024-.152 2.586-2.24 2.984-3.153-12.675-22.63-14.828-22.028-15.102-24.09-1.899-14.294-.351-15.678-1.11-23.611z"/>
    <path fill="#FFDFD2" d="M170.768 47.876s.333-.612.729-1.484l-5.378-1.903c-2.062 3.943-3.963 7.175-4.402 7.703-.48.578-6.497-1.086-8.088-1.569-1.478-.448-6.778.345-9.05-2.23-.192-.2-1.174-.622-1.442-.712-3.814-1.287-1.519.945-1.519.945s-3.57.135-3.796.638c-.224.503-.899.945-.506 2.161.102.23.182.544.469.697.508.271 1.626.303 1.78.312 1.309.065 3.496-.119 3.496-.119 1.518.444 16.986 5.45 18.622 5.307 1.636-.143 3.671.996 9.085-9.746z"/>
    <path fill="#FFA39E" d="M160.164 34.87c1.51.439 3.775-.867 4.936-1.643 1.404 0 4.995 1.096 6.389 6.026 1.742 6.163 3.816 23.158 2.509 24.664-1.307 1.507-18.481 2.728-18.481 2.18s.291-5.204 0-12.326c-.232-5.698.709-13.875 1.634-15.716.435-.867 1.995-3.48 3.013-3.184z"/>
    <path fill="#FFA39E" d="M159.795 51.435c1.086-.199 3.868-7.85 5.124-11.652l7.078 4.062c-2.06 3.976-6.718 12.258-8.872 13.58-2.154 1.324-13.616-2.432-18.539-4.31l1.266-4.873c4.195 1.148 12.857 3.393 13.943 3.194z"/>
    <path fill="#986F5E" d="M61.819 38.379c-1.182.832-4.075 1.62-4.075 1.62l-4.866 3.6-3.29-2.643 4.235-2.469c.248-.204.844-2.659 1.038-2.918.733-.972 2.209-2.947 2.578-2.404.464.68-.352 1.91-.352 1.91s3.868-1.302 4.37-.964c.504.338 1.102 1.052 1.327 2.634.039.275.06.528.055.747-.005.302-.88.789-1.02.887z"/>
    <path fill="#EF8D2E" fill-rule="evenodd" d="M29.527 35.517s-6.591 7.377-4.231 8.274l6.574 2.162.034.012c5.35 2.106 13.553 2.27 15.026 1.934.804-.184 1.26-4.135-1.527-4.943-2.607-.64-12.95-5.908-15.876-7.44z" clip-rule="evenodd"/>
    <path fill="#EF8D2E" fill-rule="evenodd" d="M55.955 38.539l-.41-.747c-.421-.767-1.211-1.012-1.774-.565-6.81 5.393-9.565 5.855-9.565 5.855-4.84 2.265 1.003 6.45 3.23 4.468 0 0 8.126-5.624 9.053-6.744.418-.503-.167-1.6-.534-2.267z" clip-rule="evenodd"/>
    <path fill="#986F5E" fill-rule="evenodd" d="M28.424 23.447c1.963 6.28-.31 9.233-1.352 9.495-2.189.553-6.205-1.928-7.182-4.612-.977-2.684.075-5.495 2.35-6.278 2.275-.784 5.33-1.329 6.183 1.395" clip-rule="evenodd"/>
    <path fill="#986F5E" d="M22.21 34.975l.732-3.232 3.105.482.296 3.292-4.134-.542z"/>
    <path fill="#326BEE" fill-rule="evenodd" d="M3.82 116.358c.004-.09.851.724 1.45 1.312h1.892c-1.466 2.559-2.184 3.879-2.153 3.959.2.522.723 1.362 1.568 2.519.585.801.632 2.587-.008 3.516-.64.929-2.049-.365-2.049-.365S.124 121.538 0 121.25l3.82-4.892z" clip-rule="evenodd"/>
    <path fill="#EF8D2E" fill-rule="evenodd" d="M29.07 35s3.02 2.729 4.657 6.875c.687 1.739 1.445 5.786 1.735 8.777.236 2.45 2.265 8.035 3.31 10.329 1.043 2.295 2.043 5.441 2.076 7.647.033 2.206-11.316.107-11.316.107s-2.708-.46-3.324-2.594c-.617-2.135 0-32.264 0-32.264s1.642.14 2.861 1.123z" clip-rule="evenodd"/>
    <path fill="#326BEE" fill-rule="evenodd" d="M32.117 120.016c-.042-.081.989.17 1.794.378l.93.245c3.12 2.91 1.29 3.741 5.984 4.272 1.672-.118 3.316 2.663 1.33 2.334-6.604.073-9.95.073-10.038 0v-7.229z" clip-rule="evenodd"/>
    <path fill="#1A4379" fill-rule="evenodd" d="M6.064 119.995c3.124-2.528 15.319-17.656 15.319-17.656 2.327-2.862 2.485-5.176 1.058-6.312l-.478-.382c-1.427-1.137-5.707-1.204-5.718-1.19-8.341 10.146-12.01 17.86-13.915 21.669-.102.203-.15.428-.139.654.011.227.081.446.203.638.626.981 1.973 2.694 3.67 2.579z" clip-rule="evenodd"/>
    <path fill="#001D53" fill-rule="evenodd" d="M35.72 72.312c-1.137-4.468-1.758-8.026-4.24-9.974l-13.757 2.118c-1.323 5.708 4.03 10.28 7.859 20.462.659 1.752 2.43 8.987 3.414 12.986.96 3.906 4.373 5.045 6 4.416 2.69-1.039 2.79-3.957 2.845-4.52.569-5.818-1.128-21.59-2.12-25.488z" clip-rule="evenodd"/>
    <path fill="#001D53" fill-rule="evenodd" d="M37.884 96.49l-8.688-.576c-.016 5.517 1.383 19.944 2.268 24.706.047.263.166.507.344.705.178.198.407.341.663.414 1.021.286 2.706.669 3.334.298 1.692-14.889 2.386-23.405 2.08-25.547z" clip-rule="evenodd"/>
    <path fill="#1A4379" fill-rule="evenodd" d="M26.663 64.907c-.89-4.59-16.513-9.236-13.976 10.274.582 4.48 2.85 21.36 4.766 24.381.759 1.195 4.309 2.564 4.627 2.097.286-.419.924-1.204 1.467-2.464 1.698-3.937 1.38-10.785 2.05-15.308.557-3.755 2.09-13.699 1.066-18.98z" clip-rule="evenodd"/>
    <path fill="#E7EEFD" fill-rule="evenodd" d="M26.073 35.293c1.256.219 1.89 1.273 3.409 5.91 1.302 3.981 3.824 14.79 4.093 22.047.07 1.923-4.346 2.028-9.298 2.005-4.65-.02-11.791-.23-11.864-1.968-.147-3.543 3.178-17.44 3.722-20.416 3.324-7.245 6.202-7.871 6.507-7.987l3.43.409z" clip-rule="evenodd"/>
    <path fill="#EF8D2E" fill-rule="evenodd" d="M22.445 34.09l.21-.92s-.256-.292-2.639.92c-1.604.817-3.33 1.437-3.752 1.584-1.265.104-2.604.287-3.103.683-2.505 2.805.566 8.001.566 11.443 0 3.443-.148 3.316-2.21 6.63-4.714 8.035-7.514 15.303-6.04 16.451 1.473 1.148 4.861.957 8.47.893 3.61-.064 2.505-1.53 2.505-2.487 0-.956-.545-2.758-.22-5.93.155-1.525 1.302-4.173 2.72-6.375 2.274-3.528 3.183-5.95 3.593-7.349 1.222-4.164-.733-9.994-.733-9.994-.43-1.135-.514-1.922-.082-3.748.064-.273.082-.917.574-.917" clip-rule="evenodd"/>
    <path fill="#FFD560" d="M56.365 30.905H63.031000000000006V62.522999999999996H56.365z" transform="rotate(18.077 56.365 30.905)"/>
    <path fill="#FFC72C" d="M0 0H2.312V31.618H0z" transform="scale(-1 1) rotate(-18.077 71.205 206.732)"/>
    <path fill="#D5DFE6" d="M46.554 60.963H53.22V62.81H46.554z" transform="rotate(18.077 46.554 60.963)"/>
    <path fill="#FFA39E" d="M45.981 62.718l6.337 2.069-.417 1.279c-.571 1.75-2.453 2.705-4.203 2.134-1.75-.571-2.706-2.453-2.134-4.203l.417-1.279z"/>
    <path fill="#FFE380" d="M61.19 26.867l1.513 6.103-3.508.008-2.827-2.076 4.822-4.035z"/>
    <path fill="#fff" fill-opacity=".5" d="M61.188 26.87l-2.659 5.633-2.163-1.597 4.822-4.035z"/>
    <path fill="#152934" d="M61.19 26.866l.485 1.959-2.033-.664 1.547-1.295z"/>
    <path fill="#986F5E" d="M53.947 55.204c-1.424.248-4.377-.274-4.377-.274l-5.937 1.177-1.71-3.025 4.178-.77c.313-.079 2.468-2.468 2.754-2.619 1.077-.566 3.256-1.722 3.358-1.073.128.813-1.134 1.576-1.134 1.576s4.053.475 4.364.995c.31.52.547 1.422.075 2.948-.083.265-.173.502-.27.699-.133.271-1.133.337-1.3.366z"/>
    <path fill="#EF8D2E" fill-rule="evenodd" d="M20.746 38.332s-9.25 3.507-7.57 5.39l4.836 4.952.025.026c3.775 4.335 10.978 8.264 12.44 8.645.799.208 3.025-3.088.925-5.09-2.017-1.77-8.766-11.214-10.656-13.923z" clip-rule="evenodd"/>
    <path fill="#EF8D2E" fill-rule="evenodd" d="M47.065 54.406l-.084-.832c-.087-.855-.88-1.463-1.774-1.38-10.807 1.009-14.27-.016-14.27-.016-6.85-.59-2.238 5.887 1.412 5.375 0 0 11.873-1.04 13.548-1.5.754-.205 1.244-.903 1.168-1.647z" clip-rule="evenodd"/>
    <mask id="prefix__a" width="17" height="14" x="16" y="16" maskUnits="userSpaceOnUse">
        <path fill="#fff" fill-rule="evenodd" d="M16.483 19.888l12.987-3.646 2.768 9.862-12.987 3.646-2.768-9.862z" clip-rule="evenodd"/>
    </mask>
    <g mask="url(#prefix__a)">
        <path fill="#0B0D0C" fill-rule="evenodd" d="M20.528 29.391c-.929-1.897.673-3.524 2.602-1.046l-1.41-5.024s8.722 2.927 8.715-2.67c-.002-.357.05-2.11-1.005-3.037-1.163-1.022-3.46-.877-5.307.697-.377-.034-3.467-.273-5.2 1.798-1.88 2.25-1.516 6.455 1.605 9.282z" clip-rule="evenodd"/>
    </g>
    <path fill="#FFD560" d="M139.665 32.092c1.169-2.653 4.213-3.505 4.794-3.25l3.171 1.399-4.095 2.866.348 7.48c-1.239-.534-4.081-1.77-4.189-1.846-.135-.095-1.512-3.285-.029-6.65z"/>
    <ellipse cx="146.045" cy="35.552" fill="#FFC72C" rx="3.995" ry="5.494" transform="rotate(23.787 146.045 35.552)"/>
    <path stroke="#fff" d="M147.139 35.986c-.214.486-.543.843-.879 1.038-.337.197-.645.215-.878.112-.233-.103-.427-.342-.51-.723-.083-.38-.041-.864.173-1.35.214-.485.543-.842.879-1.038.337-.196.645-.214.878-.111.233.102.427.342.51.723.082.38.041.864-.173 1.35z"/>
</svg>
