<svg xmlns="http://www.w3.org/2000/svg" width="201" height="140" fill="none" viewBox="0 0 201 140">
    <ellipse cx="96.272" cy="135.2" fill="#E7EEFD" rx="33.256" ry="3.972"/>
    <circle cx="117.341" cy="58.856" r="58.256" stroke="#C3D4FA" stroke-dasharray="4 4" stroke-width="1.2"/>
    <rect width="142.725" height="90.341" x=".5" y="14.131" fill="#FEFFFF" stroke="#C3D4FA" rx="2.5"/>
    <rect width="88.038" height="57.837" x="42.516" y="31.564" fill="#E7EEFD" rx="1"/>
    <path fill="#fff" d="M43.534 38.297H129.528V44.372H43.534zM43.534 51.062H129.528V57.137H43.534zM43.534 63.828H129.528V69.903H43.534zM43.534 76.593H129.528V82.668H43.534z"/>
    <path fill="#fff" d="M63.731 31.564H64.72V89.40100000000001H63.731zM86.164 31.564H87.153V89.40100000000001H86.164zM108.597 31.564H109.71V89.40100000000001H108.597z"/>
    <path fill="#E7EEFD" d="M1 16.631c0-1.105.895-2 2-2h137.725c1.104 0 2 .895 2 2v4.108H1V16.63z"/>
    <ellipse cx="4.115" cy="17.601" fill="#C3D4FA" rx="1.153" ry="1.172"/>
    <ellipse cx="7.28" cy="17.601" fill="#C3D4FA" rx="1.153" ry="1.172"/>
    <ellipse cx="10.444" cy="17.601" fill="#C3D4FA" rx="1.153" ry="1.172"/>
    <path fill="#FFD560" d="M196.366 43.645h-38.47c-1.104 0-2 .896-2 2v26.421c0 1.105.896 2 2 2h38.47c1.105 0 2-.895 2-2v-26.42c0-1.105-.895-2-2-2z"/>
    <rect width="22.23" height="1.448" x="170.812" y="55.595" fill="#fff" rx=".724"/>
    <rect width="22.23" height="1.448" x="170.812" y="51.2" fill="#fff" rx=".724"/>
    <rect width="22.23" height="1.448" x="170.812" y="59.99" fill="#fff" rx=".724"/>
    <rect width="22.23" height="1.448" x="170.812" y="64.385" fill="#fff" rx=".724"/>
    <circle cx="196.34" cy="73.107" r="3.734" fill="#fff"/>
    <path fill="#2EE3AA" d="M201 73.099c0 .983-.292 1.944-.838 2.762-.546.817-1.323 1.454-2.231 1.83-.909.377-1.908.475-2.873.284-.964-.192-1.85-.666-2.545-1.36-.696-.696-1.169-1.582-1.361-2.546-.192-.965-.093-1.964.283-2.873.376-.908 1.014-1.685 1.831-2.231.818-.546 1.779-.838 2.762-.838 1.319 0 2.583.524 3.516 1.456.932.933 1.456 2.197 1.456 3.516zm-5.548 2.63l3.702-3.687c.031-.03.054-.065.071-.104.016-.039.025-.08.025-.123s-.009-.084-.025-.123c-.017-.04-.04-.075-.071-.105l-.452-.452c-.029-.03-.065-.054-.104-.07-.039-.016-.081-.025-.123-.025-.042 0-.084.009-.123.025-.039.016-.075.04-.104.07l-3.009 3.009-1.404-1.405c-.03-.03-.065-.054-.104-.07-.039-.017-.08-.025-.122-.025-.042 0-.084.008-.123.025-.039.016-.074.04-.103.07l-.455.452c-.06.06-.093.142-.093.227 0 .085.033.167.093.228l2.084 2.084c.03.03.065.054.104.07.039.017.081.025.123.025.043 0 .085-.008.124-.025.039-.016.074-.04.104-.07h-.015z"/>
    <path fill="#fff" fill-rule="evenodd" d="M159.731 54.553h7.23c.024 0 .043-.02.043-.045 0-.025-.019-.045-.043-.045h-7.23c-.023 0-.042.02-.042.045 0 .025.019.045.042.045z" clip-rule="evenodd"/>
    <mask id="prefix__a" width="12" height="13" x="157" y="52" maskUnits="userSpaceOnUse">
        <path fill="#fff" fill-rule="evenodd" d="M168.688 52.648h-10.702v11.515h10.702V52.648z" clip-rule="evenodd"/>
    </mask>
    <g mask="url(#prefix__a)">
        <path fill="#fff" fill-rule="evenodd" d="M159.958 58.683l-1.972-.98 1.802-3.564c.045-.075.107-.14.182-.19l1.982-1.301c.192.615.754 1.036 1.385 1.038.631-.002 1.193-.423 1.385-1.038l1.982 1.302c.075.049.136.114.182.189l1.802 3.565-1.973.979v5.48h-6.757v-5.48z" clip-rule="evenodd"/>
    </g>
    <path fill="#E7EEFD" d="M189.588 13.849h-27.977c-1.104 0-2 .895-2 2v18.904c0 1.105.896 2 2 2h27.977c1.105 0 2-.895 2-2V15.85c0-1.105-.895-2-2-2z"/>
    <rect width="15.056" height=".981" x="172.465" y="23.323" fill="#C3D4FA" rx=".49"/>
    <rect width="15.056" height=".981" x="172.465" y="20.346" fill="#C3D4FA" rx=".49"/>
    <rect width="15.056" height=".981" x="172.465" y="26.299" fill="#C3D4FA" rx=".49"/>
    <rect width="15.056" height=".981" x="172.465" y="29.276" fill="#C3D4FA" rx=".49"/>
    <path fill="#C3D4FA" d="M168.37 20.205h-4.397l-1.429 10.64h2.309l1.209-7.629 1.099 7.63h2.309l-1.1-10.641z"/>
    <path fill="#E7EEFD" d="M189.588 81.459h-27.977c-1.104 0-2 .895-2 2v18.905c0 1.104.896 2 2 2h27.977c1.105 0 2-.896 2-2V83.459c0-1.105-.895-2-2-2z"/>
    <rect width="15.056" height=".981" x="172.465" y="90.933" fill="#C3D4FA" rx=".49"/>
    <rect width="15.056" height=".981" x="172.465" y="87.956" fill="#C3D4FA" rx=".49"/>
    <rect width="15.056" height=".981" x="172.465" y="93.909" fill="#C3D4FA" rx=".49"/>
    <rect width="15.056" height=".981" x="172.465" y="96.886" fill="#C3D4FA" rx=".49"/>
    <path fill="#C3D4FA" d="M168.044 91.655c-.034-.115-.068-.223-.1-.32v-1.328l.429-1.823c-1.001-1.465-2.396 0-2.396 0-1.536-1.358-2.323 0-2.323 0 .107.25.357 1.823.357 1.823v1.51c-.568 1.19-.702 1.626-.623 2.953l.267 3.812s2.573 1.001 4.718 0l.226-3.617c.087-1.497-.379-2.413-.555-3.01z"/>
    <path fill="#986F5E" d="M102.966 70.103s-.184 11.063 2.03 9.346c2.213-1.716 0-10.3 0-10.3l-2.03.954z"/>
    <path fill="#326BEE" d="M106.47 43.803l-2.835.832s-2.982 1.808-2.443 8.554c0 4.59.578 6.58 0 8.22-.577 1.639-1.01 10.065 0 11.705.559.933 1.241 1.763 2.022 2.46l2.6-1.024s-.578-5.436.288-5.928c.867-.492 2.022-3.607 2.022-3.607s2.744-10.001 1.011-13.28c-1.733-3.28-2.665-7.931-2.665-7.931z"/>
    <path fill="#986F5E" d="M157.448 52.305c-1.663.87-3.834 1.303-3.834 1.303l-4.869 2.291-2.288-2.526 3.832-1.636c.281-.142 1.828-2.892 2.069-3.098.909-.774 2.689-2.213 2.927-1.614.298.75-1.642 1.227-1.197 2.3.446 1.072 2.718-.92 3.207-1.503.49-.582 2.28.48 2.179 1.804-.19.379-.486 1.641-2.026 2.68z"/>
    <path fill="#1D4BEA" d="M98.888 128.773s.311.604 1.443.761c1.133.156 1.894.384 1.656 0-.237-.385.235.063.881 1.47 0 0 3.249 2.992 4.866 3.148 1.617.156 1.63 2.273.808 2.345-.889.078-2.425.626-4.366 0-1.941-.625-3.72-2.345-4.529-2.345-.808 0-3.558-1.251-2.749-1.876.809-.625 1.99-3.503 1.99-3.503zM116.691 132.098c.825.061.763-.104 1.574-.263 1.112-.261 1.837-.237 1.469-.509-.368-.272.452.003 1.593 1.078 0 0 3.955 1.584 5.516 1.149 1.562-.436 2.387 1.525 1.652 1.887-1.246.661-2.632 1.038-4.051 1.105-2.043.116-4.358-.381-5.109-.091-.751.29-3.784.116-3.273-.755.51-.871.629-3.601.629-3.601z"/>
    <path fill="#986F5E" d="M115.378 40.11c2.1 0 5.162-1.662 5.162-6.179 0-3.207-2.542-5.807-5.86-5.807-3.318 0-6.007 2.6-6.007 5.807 0 3.208 3.388 6.18 6.705 6.18z"/>
    <path fill="#986F5E" d="M111.99 36.24s.51 6.253-.679 7.147c-1.189.893 6.03.595 6.03.595s-1.019-5.658-.764-7.147c.255-1.489-4.587-.596-4.587-.596z"/>
    <path fill="#1A4379" d="M106.455 72.394s-1.924 2.622-1.924 5.683c-.535 1.83-.788 26.245-.788 26.245l-5.642 25.851 4.942.481s6.636-16.682 7.349-18.284c.713-1.601 5.434-24.42 5.434-24.42s-.534 15.785-.534 21.046c0 5.262 1.18 23.758 1.18 23.758l5.074-.525 2.66-23.462s6.419-32.712 2.14-36.373c-4.279-3.66-19.891 0-19.891 0z"/>
    <path fill="#326BEE" d="M126.489 46.671c-1.138-.962-3.859-2.838-6.289-2.391-2.43.447-15.724.298-15.724.298s-1.513 8.033-1.513 17.565c0 9.533 2.442 11.473 2.442 11.473s9.449.612 13.21 0c3.762-.612 7.874-1.4 7.874-1.4s1.137-5.161 1.137-11.198V48.684c0-.875 0-1.05-1.137-2.013z"/>
    <path fill="#326BEE" d="M124.301 45.266l-2.385.964s2.715 5.49 3.281 8.74c.565 3.25 6.653 6.586 6.653 6.586 5.477 2.85 6.886.337 7.887-1.893.836-1.861-3.015-4.14-4.766-4.96-1.359-.683-1.148-.73-3.747-3.699s-6.923-5.738-6.923-5.738z"/>
    <path fill="#1D4BEA" d="M120.736 46.3s4.243.583 4.243-.46c0-1.042-3.183-2.29-4.789-2.886-1.606-.596-8.165-1.995-9.405-2.253-1.239-.258-6.541-1.037-6.979.75-.438 1.787-.584 5.51 1.606 5.956 2.191.447 7.885-.744 10.805-.447 1.167.12 4.519-.66 4.519-.66z"/>
    <path fill="#2F2E41" d="M113.639 39.925c3.106 0 5.624-2.828 5.624-6.316s-2.518-6.316-5.624-6.316-5.624 2.828-5.624 6.316 2.518 6.316 5.624 6.316z"/>
    <path fill="#2F2E41" d="M114.631 33.689c3.106 0 5.624-1.54 5.624-3.438 0-1.899-2.518-3.438-5.624-3.438s-5.624 1.54-5.624 3.438c0 1.899 2.518 3.438 5.624 3.438z"/>
    <path fill="#986F5E" d="M119.014 36.407c.32 0 .579-.43.579-.96 0-.529-.259-.959-.579-.959-.319 0-.578.43-.578.96s.259.96.578.96z"/>
    <path fill="#2F2E41" d="M118.207 29.385c.592-.313 1.097-.879 1.475-1.652.037.172.047.348.03.523.246-.027.484-.096.704-.205l-.052.557c.425-.251.815-.554 1.162-.9.094.814-.047 1.636-.407 2.376-.307.586-.724.967-1.137 1.342"/>
    <path fill="#326BEE" d="M149.585 52.115c-1.593-.123-10.005 2.395-13.125 3.593-1.02.866-3.135 2.966-3.434 4.444-.373 1.847 1.916 2.823 3.251 2.861 1.068.03 10.861-4.448 14.625-7.002-.876-2.79-1.362-3.403-1.317-3.896z"/>
    <path fill="#C3D4FA" fill-rule="evenodd" d="M17.107 30.46c.088 1.506.648 2.773 1.465 3.523v.078c.064.919-.269 2.757-2.114 2.757-2.306 0-4.42.177-4.805 2.223-.084.447-.196.925-.32 1.449-.442 1.873-1.023 4.336-.929 8.088.103 4.094-.057 4.778-.195 5.373-.024.103-.048.204-.07.318-.143.779-.696 4.224-.528 6.603.161 2.273.146 2.313-.17 3.185l-.046.128c-.36 1 .24 2.845 1.538 3.712.336.134.908.232.504-.444-.143-.24-.328-.486-.504-.722-.444-.591-.838-1.117-.409-1.323.396-.191.5.42.58.891.04.243.076.449.141.487.192.111.529-1.045.192-1.912-.045-.116-.092-.234-.14-.352-.31-.764-.635-1.562-.364-2.294.067-.183.178-.441.313-.756.486-1.136 1.287-3.006 1.512-4.713.135-1.014.18-1.928.22-2.72.046-.908.083-1.657.237-2.215.288-1.045.817-3.38.84-6.558.04-.09.145-.214.241 0 .505.622 1.514 2.37 1.514 4.38 0 2.009-.145 2.69-.217 2.778-.087.24-.172.483-.256.722-.106.304-.21.602-.314.878-.538 1.013-1.708 3.827-2.324 7.474-.624 3.69.543 7.38 1.261 9.652.186.589.342 1.082.43 1.456.382 1.644.072 3.376-.304 5.473l-.12.669c-.238 1.356.024 3.564.308 5.96.219 1.848.451 3.808.478 5.575.04 2.775-.144 3.004-.573 3.536-.199.247-.45.558-.756 1.217-.81 1.747-.134 1.99.568 2.245.136.049.272.098.398.158.785.374 1.812-1.175 2.718-2.67.553-.914.475-1.45.372-2.154-.066-.448-.141-.965-.07-1.691.116-1.207.485-3.57.796-5.569.172-1.097.325-2.084.411-2.709.093-.678.066-1.533.037-2.458-.046-1.48-.098-3.138.325-4.538.436-1.444.744-5.43 1-8.745.212-2.725.387-4.997.57-5.033.359-.07.495 1.761.675 4.183.094 1.25.198 2.657.352 4.041.211 1.913.405 2.804.565 3.539.192.88.335 1.536.4 3.457l.01.265c.115 3.369.187 5.484.776 8.867.445 2.564.43 4.137.416 5.602-.005.519-.01 1.024.006 1.554.06 2.03 1.812 3.685 2.536 4.06.725.373 2.294-.642 2.355-1.176.025-.224-.205-.43-.517-.708-.43-.383-1.014-.904-1.294-1.802-.483-1.549-.544-6.729 0-10.467.388-2.674.345-3.107.2-4.544-.058-.572-.132-1.303-.2-2.399-.148-2.35.043-3.124.434-4.712.249-1.01.579-2.35.954-4.633.73-4.44-.806-9.99-1.793-12.602l-.132-.372c-.166-.295-.325-.544-.473-.775-.489-.767-.852-1.335-.927-2.75-.001-.029-.001-.172 0-.511V48.81c0-1.227 1.145-2.916 1.79-3.545.083 1.096.319 3.548.588 4.58.066.255.136.496.204.731.274.954.524 1.82.456 3.192-.084 1.712.721 5.747 1.07 6.692.068.186.143.361.216.534.3.709.587 1.382.384 2.578-.122.722-.256.985-.36 1.189-.11.216-.187.367-.18.934.01.957.038.956.18.954.021 0 .045 0 .072.002.065.008.096-.185.135-.43.085-.527.208-1.298.79-.881.498.357-.107.946-.627 1.452-.37.359-.695.676-.55.838.348.389.888.11 1.177-.2l.075-.08c.332-.35 1.018-1.072 1.018-2.088 0-1.1-.096-1.523-.3-1.845-.176-.277-.112-.686.032-1.6l.076-.49c.192-1.267.288-3.546 0-5.347-.074-.458-.15-.884-.224-1.295-.216-1.205-.41-2.284-.437-3.685-.007-.358-.011-.722-.015-1.09-.019-1.566-.038-3.197-.261-4.645-.137-.883-.217-2.001-.29-3.009-.075-1.035-.141-1.954-.25-2.383-.034-.129-.06-.281-.088-.448-.156-.928-.387-2.298-2.351-2.486-.79-.076-1.402-.086-1.911-.094-.988-.016-1.589-.026-2.341-.495-.799-.498-.95-1.524-.923-2.149 1.093-.694 1.922-2.043 2.003-3.742.087-1.8-.744-3.76-3.507-3.824-1.273-.03-3.743.693-3.435 3.823z" clip-rule="evenodd"/>
    <path stroke="#5685F1" stroke-dasharray="2 2" stroke-width=".75" d="M14.087 45.025L26.626 45.025M12.803 60.953L28.109 60.948M15.767 51.474L24.975 51.474"/>
</svg>
