<svg width="240" height="136" viewBox="0 0 240 136" fill="none" xmlns="http://www.w3.org/2000/svg">
<rect width="240" height="136" rx="4" fill="url(#paint0_linear)"/>
<mask id="mask0" mask-type="alpha" maskUnits="userSpaceOnUse" x="146" y="36" width="40" height="64">
<rect x="146.09" y="36" width="39.8222" height="64" rx="2.13333" fill="#3F5663"/>
</mask>
<g mask="url(#mask0)">
<rect x="146.09" y="36" width="39.8222" height="64" rx="2.13333" fill="#3F5663"/>
<mask id="mask1" mask-type="alpha" maskUnits="userSpaceOnUse" x="145" y="42" width="41" height="43">
<path fill-rule="evenodd" clip-rule="evenodd" d="M145.608 42.9236H185.721V84.368H145.608V42.9236Z" fill="white"/>
</mask>
<g mask="url(#mask1)">
<path fill-rule="evenodd" clip-rule="evenodd" d="M182.801 53.6587C181.634 49.8488 178.989 47.5547 178.07 46.7772C177.258 46.0906 172.787 42.309 166.713 43.0065C159.331 43.8546 155.508 50.6373 155.059 51.4674C152.546 56.098 154.719 57.7997 151.799 62.672C149.426 66.6317 147.194 66.8373 146.099 70.6064C145.876 71.3745 144.748 75.6003 146.923 78.4875C148.601 80.7134 151.364 80.8821 155.106 81.403C174.83 84.1483 179.692 85.1713 181.986 83.6806C182.568 83.3017 182.971 82.7188 183.027 82.6536C186.112 79.1089 185.775 74.221 185.635 72.5286C185.263 68.0251 183.717 68.4072 183.027 63.6637C182.284 58.5592 183.991 57.5424 182.801 53.6587Z" fill="#020303"/>
</g>
<path fill-rule="evenodd" clip-rule="evenodd" d="M178.702 77.376C178.702 77.376 173.8 75.9512 170.748 75.3392V69.7993L162.825 64.5387V74.7288L153.957 77.376C153.957 77.376 157.152 99.5678 163.594 96.107C170.035 92.6455 178.702 77.376 178.702 77.376Z" fill="#F3B39A"/>
<path fill-rule="evenodd" clip-rule="evenodd" d="M170.748 73.0032C170.748 73.0032 166.096 74.5724 162.825 72.3089V69.1094L170.748 73.0032Z" fill="#CD9A89"/>
<path fill-rule="evenodd" clip-rule="evenodd" d="M170.912 47.5933C170.912 47.5933 177.812 58.9548 179.138 60.2831C179.138 60.2831 177.069 73.078 169.85 73.078C162.632 73.078 159.342 67.7154 160.191 59.9104C160.191 59.9104 165.791 52.7166 170.912 47.5933Z" fill="#F3B39A"/>
<path fill-rule="evenodd" clip-rule="evenodd" d="M176.396 57.7224C176.396 57.7224 172.966 57.8111 172.877 57.7224C172.788 57.633 172.937 57.2022 173.263 57.2022H175.535C175.535 57.2022 176.173 57.3207 176.396 57.7224Z" fill="#020303"/>
<path fill-rule="evenodd" clip-rule="evenodd" d="M176.396 57.7224C176.396 57.7224 172.966 57.8111 172.877 57.7224C172.788 57.633 172.937 57.2022 173.263 57.2022H175.535C175.535 57.2022 176.173 57.3207 176.396 57.7224Z" stroke="#020303" stroke-width="0.03774" stroke-linecap="round" stroke-linejoin="round"/>
<path fill-rule="evenodd" clip-rule="evenodd" d="M163.026 57.7224C163.026 57.7224 166.456 57.8111 166.545 57.7224C166.634 57.633 166.486 57.2022 166.159 57.2022H163.887C163.887 57.2022 163.249 57.3207 163.026 57.7224Z" fill="#020303"/>
<path fill-rule="evenodd" clip-rule="evenodd" d="M163.026 57.7224C163.026 57.7224 166.456 57.8111 166.545 57.7224C166.634 57.633 166.486 57.2022 166.159 57.2022H163.887C163.887 57.2022 163.249 57.3207 163.026 57.7224Z" stroke="#020303" stroke-width="0.03774" stroke-linecap="round" stroke-linejoin="round"/>
<path fill-rule="evenodd" clip-rule="evenodd" d="M176.527 68.0598C175.816 67.5201 175.356 66.6649 175.356 65.7022C175.356 64.0679 176.68 62.7435 178.313 62.7435C178.404 62.7435 178.493 62.7475 178.581 62.7553C178.402 63.4763 178.17 64.2593 177.866 65.0879C177.45 66.2224 176.984 67.2149 176.527 68.0598Z" fill="#DD726D"/>
<path fill-rule="evenodd" clip-rule="evenodd" d="M161.521 68.6528C163.089 68.4536 164.301 67.1143 164.301 65.4926C164.301 63.7327 162.876 62.3048 161.116 62.3048C160.746 62.3048 160.391 62.3684 160.061 62.4845C160.051 63.4087 160.135 64.6452 160.511 66.0433C160.793 67.0939 161.169 67.9695 161.521 68.6528Z" fill="#DD726D"/>
<path fill-rule="evenodd" clip-rule="evenodd" d="M169.323 61.0009C169.458 61.4285 170.13 63.5774 170.215 64.6837C170.223 64.7943 170.229 65.0344 170.085 65.2251C169.824 65.5703 169.159 65.6024 168.842 65.2823C168.626 65.0634 168.626 64.7606 168.658 64.1361C168.811 61.3084 168.955 60.9852 169.145 60.9538C169.181 60.9483 169.241 60.9499 169.323 61.0009Z" fill="#DD726D"/>
<path fill-rule="evenodd" clip-rule="evenodd" d="M164.412 59.939C164.412 60.5094 164.692 60.9707 165.04 60.9707C165.386 60.9707 165.667 60.5094 165.667 59.939C165.667 59.3678 165.386 58.9065 165.04 58.9065C164.692 58.9065 164.412 59.3678 164.412 59.939Z" fill="#020303"/>
<path fill-rule="evenodd" clip-rule="evenodd" d="M164.412 59.939C164.412 60.5094 164.692 60.9707 165.04 60.9707C165.386 60.9707 165.667 60.5094 165.667 59.939C165.667 59.3678 165.386 58.9065 165.04 58.9065C164.692 58.9065 164.412 59.3678 164.412 59.939Z" stroke="#020303" stroke-width="0.0436215" stroke-linecap="round" stroke-linejoin="round"/>
<path fill-rule="evenodd" clip-rule="evenodd" d="M173.685 59.939C173.685 60.5094 173.966 60.9707 174.314 60.9707C174.659 60.9707 174.941 60.5094 174.941 59.939C174.941 59.3678 174.659 58.9065 174.314 58.9065C173.966 58.9065 173.685 59.3678 173.685 59.939Z" fill="#020303"/>
<path fill-rule="evenodd" clip-rule="evenodd" d="M173.685 59.939C173.685 60.5094 173.966 60.9707 174.314 60.9707C174.659 60.9707 174.941 60.5094 174.941 59.939C174.941 59.3678 174.659 58.9065 174.314 58.9065C173.966 58.9065 173.685 59.3678 173.685 59.939Z" stroke="#020303" stroke-width="0.0436215" stroke-linecap="round" stroke-linejoin="round"/>
<path fill-rule="evenodd" clip-rule="evenodd" d="M149.021 111.133C148.909 107.88 148.855 104.533 148.869 101.095C148.897 93.8453 149.227 86.9677 149.761 80.5059C149.761 80.5059 152.74 77.3762 153.833 77.3762L166.588 85.8042C167.827 86.6225 169.459 86.4287 170.481 85.3405L177.972 77.3762C177.972 77.3762 180.098 78.499 182.62 79.7943C182.62 79.7943 183.903 81.3195 183.806 83.1311C183.646 86.1455 183.416 91.0067 183.416 96.3011V101.108L181.402 108.817L180.148 111.133H149.021Z" fill="#F17D87"/>
<path fill-rule="evenodd" clip-rule="evenodd" d="M144.533 113.958C138.276 84.9886 153.235 77.3727 153.235 77.3727C153.235 77.3727 157.381 75.7423 163.811 83.5599C171.948 93.4511 167.776 132.72 167.776 139.408C167.776 146.097 159.92 144.592 153.144 143.255C146.366 141.917 141.701 143.255 141.367 142.585C141.054 141.958 144.118 117.297 144.497 114.263C144.502 114.219 144.507 114.18 144.511 114.146L144.533 113.958Z" fill="#FCE1DC"/>
<path fill-rule="evenodd" clip-rule="evenodd" d="M167.458 68.3701H171.371C171.371 68.3701 169.569 71.6967 167.458 68.3701Z" fill="#DD726D"/>
<path d="M144.537 113.958L144.611 114.293C144.63 114.379 144.649 114.465 144.668 114.552C145.401 117.825 146.402 121.366 147.723 125.195C147.723 125.195 153.239 121.349 154.074 120.848C154.074 120.848 146.719 103.793 158.587 86.5696" stroke="#F6B1BA" stroke-width="0.735195" stroke-linecap="round" stroke-linejoin="round"/>
<path fill-rule="evenodd" clip-rule="evenodd" d="M194.938 115.913C195.289 116.166 195.639 116.415 195.987 116.657C196.488 117.005 196.984 117.342 197.474 117.666C202.738 121.147 207.229 123.206 207.229 123.206L210.573 115.013C197.034 110.164 192.353 98.4593 189.345 91.6036C186.336 84.7472 183.328 80.0664 183.328 80.0664C183.328 80.0664 178.933 71.5843 174.97 83.5773C174.97 83.5773 161.097 109.662 177.31 145.111C177.31 145.111 188.008 139.259 191.852 141.599C195.697 143.941 197.536 143.941 198.036 142.436C198.538 140.931 193.597 114.916 193.597 114.916L194.938 115.913Z" fill="#FCE1DC"/>
<rect opacity="0.8" x="146.09" y="36" width="39.8222" height="64" rx="2.13333" fill="#0E161C"/>
</g>
<mask id="mask2" mask-type="alpha" maskUnits="userSpaceOnUse" x="102" y="23" width="56" height="90">
<rect x="102" y="23" width="56" height="90" rx="3" fill="#3F5663"/>
</mask>
<g mask="url(#mask2)">
<rect x="102" y="23" width="56" height="90" rx="3" fill="#3F5663"/>
<path opacity="0.2" d="M173.486 36.0899C169.87 34.6261 165.704 37.0532 161.904 36.1738C159.487 35.6145 157.502 33.7132 156.512 31.4284C155.523 29.1408 155.459 26.5235 155.989 24.0833C156.434 22.0241 157.399 19.9299 159.204 18.8594C161.008 17.7889 163.759 18.2249 164.612 20.1462C165.537 22.2304 163.711 24.7149 161.525 25.342C159.34 25.9691 157.016 25.3112 154.834 24.6746C152.652 24.0379 150.311 23.418 148.142 24.1165C144.821 25.1883 143.096 29.1451 143.478 32.6291C143.86 36.1131 145.846 39.1853 147.922 41.9939C150 44.7998 152.271 47.5713 153.382 50.8899C154.495 54.2092 154.171 58.2997 151.593 60.6663C149.014 63.0328 144.007 62.3896 142.95 59.0525C142.292 56.9754 143.367 54.5834 145.173 53.3673C146.982 52.152 149.349 52.001 151.442 52.5794C156.532 53.9877 159.892 59.9074 158.513 65.0456C157.402 69.1822 153.905 72.1507 151.396 75.6159C148.588 79.4907 146.948 84.2097 146.743 88.9929C146.651 91.1383 146.893 93.4311 148.213 95.1144C149.533 96.7977 152.224 97.515 153.858 96.1263C155.176 95.0027 155.328 92.8681 154.463 91.3721C153.595 89.8753 151.925 88.9826 150.225 88.6988C146.33 88.0423 142.459 90.2138 139.61 92.9765C136.762 95.7393 134.571 99.1348 131.689 101.864C128.808 104.593 124.868 106.676 120.999 105.881" stroke="#F8FAFB" stroke-width="0.61608" stroke-miterlimit="10" stroke-linecap="round"/>
<path fill-rule="evenodd" clip-rule="evenodd" d="M153.581 96.6507C157.131 94.7288 153.891 91.3833 151.202 86.1294C148.513 80.8762 148.14 75.8582 147.769 71.9352C147.398 68.0123 148.468 60.8137 148.788 59.0718C149.109 57.33 148.86 57.7415 145.294 58.8401C141.727 59.9413 136.875 58.6462 135.264 56.0745C133.655 53.505 133.765 49.8899 133.55 48.3912C133.334 46.8914 132.439 46.243 130.179 46.5229C127.919 46.8028 121.787 49.6019 121.787 49.6019C123.865 58.8837 129.075 75.2273 143.292 88.636C146.746 91.8949 150.251 94.5228 153.581 96.6507Z" fill="#FBB036"/>
<path fill-rule="evenodd" clip-rule="evenodd" d="M129.904 62.7394C129.846 62.6572 129.816 62.5547 129.828 62.4472C130.682 54.715 126.538 47.6319 126.496 47.5619C126.377 47.3595 126.443 47.0993 126.644 46.981C126.844 46.8613 127.097 46.9355 127.225 47.1293C127.402 47.4271 131.556 54.5193 130.671 62.5439C130.645 62.7763 130.436 62.943 130.203 62.9172C130.078 62.9028 129.971 62.8345 129.904 62.7394Z" fill="black"/>
<path fill-rule="evenodd" clip-rule="evenodd" d="M136.86 77.3789C136.801 77.2946 136.771 77.1894 136.786 77.0798C136.816 76.8476 137.027 76.6844 137.26 76.7149L146.634 77.9647C146.305 75.6733 146.088 73.3462 145.985 71.0409C145.89 68.9315 145.888 66.7897 145.981 64.6721C145.38 64.393 143.45 63.5073 137.628 60.9095C129.732 57.3839 130.682 46.4952 130.691 46.3865C130.714 46.153 130.921 45.9834 131.152 46.0071C131.386 46.0293 131.557 46.2378 131.534 46.4694C131.525 46.5734 130.626 56.8605 137.972 60.1355C145.604 63.542 146.565 64.013 146.603 64.0309C146.755 64.1042 146.848 64.2618 146.84 64.4324C146.735 66.6172 146.732 68.8281 146.83 71.0055C146.94 73.469 147.183 75.955 147.551 78.3955C147.572 78.5281 147.528 78.6608 147.436 78.755C147.342 78.8498 147.211 78.8961 147.078 78.8776L137.15 77.5559C137.029 77.5393 136.925 77.4717 136.86 77.3789Z" fill="black"/>
<path fill-rule="evenodd" clip-rule="evenodd" d="M126.76 69.4862C132.049 77.0859 135.303 82.5735 139.931 87.2947C144.559 92.0178 150.983 97.9304 151.294 97.9837C151.604 98.0377 153.364 97.8205 153.485 96.439C153.485 96.439 144.97 89.4821 140.045 81.7532C135.12 74.025 133.138 71.0519 131.38 65.9565C129.621 60.8607 129.702 59.7292 126.699 55.4703C123.697 51.2125 121.774 49.5243 121.774 49.5243C121.774 49.5243 116.794 51.7428 116.201 52.4668C115.608 53.1908 116.342 54.9448 116.857 55.8205L126.76 69.4862Z" fill="white"/>
<mask id="mask3" mask-type="alpha" maskUnits="userSpaceOnUse" x="114" y="48" width="42" height="54">
<path fill-rule="evenodd" clip-rule="evenodd" d="M121.875 48.0045L155.745 96.043L148.277 101.308L114.407 53.2696L121.875 48.0045Z" fill="white"/>
</mask>
<g mask="url(#mask3)">
<path fill-rule="evenodd" clip-rule="evenodd" d="M121.683 50.1274C119.654 51.0448 116.845 52.4284 116.49 52.8596C116.129 53.299 116.565 54.6927 117.177 55.7315L127.056 69.3578C128.338 71.2012 129.5 72.9191 130.59 74.533C134.001 79.5738 136.694 83.5526 140.171 87.0957C144.724 91.7323 150.598 97.1072 151.365 97.6448C151.57 97.6403 152.194 97.5527 152.62 97.2078C152.807 97.0583 152.927 96.8824 152.986 96.6741C151.687 95.5877 144.134 89.1132 139.647 82.0689L138.876 80.8595C134.455 73.9266 132.627 71.0568 130.956 66.1861C130.581 65.0951 130.291 64.1831 130.034 63.3844C129.096 60.4435 128.666 59.1012 126.345 55.8086C123.954 52.4182 122.241 50.664 121.683 50.1274ZM116.468 56.1935C116.287 55.8866 114.904 53.4554 115.838 52.3205C116.466 51.5561 120.742 49.6212 121.592 49.2398L121.838 49.1297L122.043 49.3089C122.122 49.3788 124.04 51.0751 127.034 55.3219C129.431 58.7209 129.901 60.1935 130.839 63.1286C131.093 63.9224 131.382 64.8275 131.754 65.9143C133.392 70.6887 135.205 73.5336 139.586 80.4054L140.358 81.6167C145.198 89.1854 153.626 96.1089 153.71 96.1786L153.885 96.321L153.864 96.5461C153.816 97.0883 153.555 97.5554 153.11 97.898C152.437 98.4174 151.5 98.5334 151.171 98.4771C150.583 98.3768 143.204 91.3894 139.57 87.6875C136.034 84.0903 133.323 80.0831 129.89 75.005C128.802 73.396 127.641 71.6821 126.363 69.844L116.468 56.1935Z" fill="#231F20"/>
</g>
<mask id="mask4" mask-type="alpha" maskUnits="userSpaceOnUse" x="129" y="38" width="10" height="10">
<path fill-rule="evenodd" clip-rule="evenodd" d="M134.838 38L138.441 43.111L132.701 47.1585L129.097 42.0475L134.838 38Z" fill="white"/>
</mask>
<g mask="url(#mask4)">
<path fill-rule="evenodd" clip-rule="evenodd" d="M134.728 39.3084C134.728 39.3113 134.635 39.2912 134.386 39.3991C132.704 40.1377 132.712 43.1554 132.981 45.1817C134.285 42.2856 135.11 39.6813 134.728 39.3084ZM132.455 46.8121C132.424 46.7683 132.401 46.7175 132.389 46.6621C132.325 46.3919 130.874 40.0159 134.047 38.624C134.742 38.3175 135.133 38.5085 135.34 38.7224C136.366 39.849 134.181 44.7064 133.181 46.7552C133.102 46.9163 132.931 47.0098 132.754 46.989C132.63 46.9757 132.523 46.9092 132.455 46.8121Z" fill="black"/>
</g>
<path fill-rule="evenodd" clip-rule="evenodd" d="M144.44 62.4597C144.372 62.3631 144.346 62.2383 144.375 62.1151L144.828 60.235C144.858 60.1139 144.937 60.0103 145.048 59.9528C145.159 59.8924 145.289 59.8845 145.406 59.9287L148.524 61.1088C148.745 61.1927 148.853 61.4392 148.767 61.661C148.68 61.8828 148.428 61.9946 148.207 61.9107L145.551 60.9047L145.296 61.9642L148.253 63.3103C148.469 63.4086 148.562 63.663 148.46 63.8783C148.358 64.0947 148.102 64.1898 147.886 64.0915L144.611 62.6009C144.541 62.5684 144.482 62.5198 144.44 62.4597Z" fill="black"/>
<rect opacity="0.5" x="102" y="23" width="56" height="90" rx="3" fill="#0E161C"/>
</g>
<rect x="48" y="14" width="67" height="108" rx="3" fill="#3F5663"/>
<mask id="mask5" mask-type="alpha" maskUnits="userSpaceOnUse" x="48" y="14" width="67" height="108">
<rect x="48" y="14" width="67" height="108" rx="3" fill="#3F5663"/>
</mask>
<g mask="url(#mask5)">
<rect x="-0.367953" y="0.367953" width="37.2641" height="18.2641" rx="0.683342" transform="matrix(-1 0 0 1 119.264 92)" stroke="#2FB7EC" stroke-width="0.735907" stroke-linecap="round" stroke-linejoin="round"/>
<rect x="-0.367953" y="0.367953" width="37.2641" height="42.2641" rx="0.683342" transform="matrix(-1 0 0 1 66.2641 -8)" stroke="#2FB7EC" stroke-width="0.735907" stroke-linecap="round" stroke-linejoin="round"/>
<rect x="-0.367953" y="0.367953" width="17.2641" height="33.2641" rx="0.683342" transform="matrix(-1 0 0 1 105.264 -14)" stroke="#2FB7EC" stroke-width="0.735907" stroke-linecap="round" stroke-linejoin="round"/>
</g>
<mask id="mask6" mask-type="alpha" maskUnits="userSpaceOnUse" x="48" y="14" width="89" height="108">
<rect x="48" y="14" width="89" height="108" rx="3" fill="#3F5663"/>
</mask>
<g mask="url(#mask6)">
<path fill-rule="evenodd" clip-rule="evenodd" d="M54.9576 51.8006C54.6821 51.8811 54.3935 51.724 54.3134 51.45L53.7971 49.6829L49.0776 51.0619L49.5939 52.829C49.674 53.103 49.5133 53.3913 49.2398 53.4712C48.9643 53.5517 48.6758 53.3947 48.5957 53.1207L47.9343 50.8572C47.8549 50.5852 48.0129 50.2955 48.2884 50.215L54.0062 48.5444C54.2817 48.4639 54.5708 48.6229 54.6503 48.8949L55.3116 51.1584C55.3917 51.4324 55.2331 51.7201 54.9576 51.8006Z" fill="#231F20"/>
<path fill-rule="evenodd" clip-rule="evenodd" d="M112.987 29.3225L68.3589 42.3622L69.7321 47.0619L38.0426 56.3211L40.3562 64.2393L116.674 41.9404L112.987 29.3225Z" fill="#F17D86"/>
<mask id="mask7" mask-type="alpha" maskUnits="userSpaceOnUse" x="36" y="29" width="93" height="75">
<path fill-rule="evenodd" clip-rule="evenodd" d="M51.0444 103.085L128.38 80.489L113.335 29L36 51.5963L51.0444 103.085Z" fill="white"/>
</mask>
<g mask="url(#mask7)">
<path fill-rule="evenodd" clip-rule="evenodd" d="M51.6538 102.907L127.971 80.608L116.673 41.9404L40.3557 64.2394L51.6538 102.907Z" fill="#F17D86"/>
<path fill-rule="evenodd" clip-rule="evenodd" d="M98.6401 39.0269C97.8359 39.2619 97.3694 40.0964 97.6004 40.887C97.8314 41.6775 98.6738 42.1296 99.478 41.8946L108.755 39.184C109.559 38.949 110.026 38.1145 109.795 37.3239C109.564 36.5334 108.721 36.0813 107.917 36.3163L98.6401 39.0269ZM109.05 40.1922L99.7734 42.9028C98.4029 43.3032 96.969 42.5337 96.5754 41.1865C96.1818 39.8394 96.9758 38.4189 98.3462 38.0185L107.623 35.3078C108.994 34.9074 110.428 35.677 110.821 37.0241C111.215 38.3712 110.421 39.7917 109.05 40.1922Z" fill="#231F20"/>
<path fill-rule="evenodd" clip-rule="evenodd" d="M56.7595 50.8317L69.5809 47.0855L68.2132 42.4047L55.3918 46.1509L56.7595 50.8317Z" fill="#FCD3C8"/>
<path fill-rule="evenodd" clip-rule="evenodd" d="M64.0713 52.0463C63.5871 52.1877 63.3064 52.697 63.4485 53.1832C63.5906 53.6695 64.1019 53.9496 64.586 53.8081C65.0723 53.666 65.3524 53.1547 65.2103 52.6685C65.0682 52.1822 64.5575 51.9042 64.0713 52.0463ZM64.8949 54.8606C63.8298 55.1718 62.7092 54.558 62.3974 53.4908C62.0862 52.4257 62.7 51.3051 63.7651 50.9939C64.8323 50.6821 65.9529 51.2959 66.2641 52.361C66.5759 53.4282 65.9621 54.5488 64.8949 54.8606Z" fill="#231F20"/>
<path fill-rule="evenodd" clip-rule="evenodd" d="M58.7116 50.7034C58.5712 50.7444 58.4229 50.6605 58.3807 50.5161L56.9876 45.748C56.9448 45.6015 57.0251 45.4531 57.1655 45.412C57.3059 45.371 57.4535 45.4528 57.4964 45.5993L58.8895 50.3674C58.9317 50.5118 58.852 50.6624 58.7116 50.7034Z" fill="#231F20"/>
<path fill-rule="evenodd" clip-rule="evenodd" d="M60.3388 50.2278C60.1983 50.2688 60.0501 50.1849 60.0079 50.0405L58.6148 45.2724C58.572 45.1259 58.6523 44.9775 58.7927 44.9364C58.9331 44.8954 59.0807 44.9772 59.1236 45.1238L60.5167 49.8918C60.5589 50.0363 60.4792 50.1868 60.3388 50.2278Z" fill="#231F20"/>
<path fill-rule="evenodd" clip-rule="evenodd" d="M63.3915 49.3358C63.2511 49.3769 63.1029 49.2929 63.0607 49.1485L61.6675 44.3804C61.6247 44.2339 61.705 44.0855 61.8454 44.0445C61.9859 44.0034 62.1335 44.0853 62.1763 44.2318L63.5695 48.9999C63.6116 49.1443 63.5319 49.2948 63.3915 49.3358Z" fill="#231F20"/>
<path fill-rule="evenodd" clip-rule="evenodd" d="M65.0211 48.86C64.8807 48.901 64.7325 48.8171 64.6903 48.6727L63.2971 43.9046C63.2543 43.7581 63.3347 43.6097 63.4751 43.5686C63.6155 43.5276 63.7631 43.6094 63.8059 43.756L65.1991 48.524C65.2413 48.6685 65.1616 48.819 65.0211 48.86Z" fill="#231F20"/>
<path fill-rule="evenodd" clip-rule="evenodd" d="M61.7643 49.8114C61.6239 49.8524 61.4757 49.7685 61.4335 49.6241L60.0403 44.856C59.9975 44.7095 60.0778 44.5611 60.2183 44.5201C60.3587 44.479 60.5063 44.5609 60.5491 44.7074L61.9423 49.4754C61.9845 49.6199 61.9047 49.7704 61.7643 49.8114Z" fill="#231F20"/>
<path fill-rule="evenodd" clip-rule="evenodd" d="M68.0739 47.968C67.9335 48.0091 67.7852 47.9251 67.743 47.7807L66.3499 43.0126C66.3071 42.8661 66.3874 42.7177 66.5278 42.6767C66.6682 42.6356 66.8159 42.7175 66.8587 42.864L68.2518 47.6321C68.294 47.7765 68.2143 47.927 68.0739 47.968Z" fill="#231F20"/>
<path fill-rule="evenodd" clip-rule="evenodd" d="M66.4445 48.4439C66.3041 48.4849 66.1558 48.401 66.1136 48.2566L64.7205 43.4885C64.6777 43.342 64.758 43.1935 64.8984 43.1525C65.0389 43.1115 65.1865 43.1933 65.2293 43.3398L66.6224 48.1079C66.6646 48.2523 66.5849 48.4028 66.4445 48.4439Z" fill="#231F20"/>
<path fill-rule="evenodd" clip-rule="evenodd" d="M116.716 42.4801L40.4055 64.7769C40.1246 64.8589 39.8264 64.6987 39.7443 64.4178C39.6623 64.137 39.8273 63.8414 40.1082 63.7593L116.418 41.4625C116.701 41.3799 116.997 41.5407 117.08 41.8216C117.162 42.1024 116.999 42.3974 116.716 42.4801Z" fill="#231F20"/>
<path fill-rule="evenodd" clip-rule="evenodd" d="M114.407 62.1525C117.74 73.5589 111.193 85.5106 99.7844 88.844C88.378 92.1768 76.4263 85.6301 73.0935 74.2237C69.7601 62.8153 76.3069 50.8635 87.7132 47.5308C99.1216 44.1974 111.073 50.7441 114.407 62.1525Z" fill="#FCD3C8"/>
<path fill-rule="evenodd" clip-rule="evenodd" d="M109.754 63.621C112.316 72.3874 107.285 81.572 98.5176 84.1336C89.7506 86.6951 80.5678 81.6638 78.0063 72.8974C75.4449 64.131 80.4742 54.947 89.2412 52.3854C98.0082 49.8238 107.193 54.8546 109.754 63.621Z" fill="white"/>
<path fill-rule="evenodd" clip-rule="evenodd" d="M90.394 56.6995C84.0609 58.5499 80.4124 65.2105 82.2629 71.5437C84.1133 77.8768 90.7739 81.5252 97.1071 79.6748C103.44 77.8243 107.089 71.1637 105.238 64.8306C103.388 58.4975 96.7271 54.849 90.394 56.6995ZM97.4075 80.7031C90.5067 82.7195 83.2507 78.7449 81.2344 71.8441C79.2175 64.9412 83.1927 57.6873 90.0935 55.671C96.9943 53.6547 104.25 57.6272 106.267 64.53C108.283 71.4308 104.308 78.6868 97.4075 80.7031Z" fill="#231F20"/>
<path fill-rule="evenodd" clip-rule="evenodd" d="M101.557 65.7958C102.804 70.0654 100.354 74.541 96.0821 75.7892C91.812 77.0369 87.3375 74.5846 86.0899 70.3151C84.8424 66.0455 87.2927 61.5699 91.5628 60.3222C95.835 59.0739 100.309 61.5262 101.557 65.7958Z" fill="#FCD3C8"/>
<path fill-rule="evenodd" clip-rule="evenodd" d="M93.2868 66.212C92.2706 66.5089 91.6853 67.5775 91.9822 68.5937C92.2791 69.6098 93.3477 70.1951 94.3638 69.8982C95.38 69.6013 95.9653 68.5327 95.6684 67.5166C95.3715 66.5005 94.3029 65.9151 93.2868 66.212ZM94.6553 70.9047C93.0838 71.3639 91.4328 70.4595 90.9736 68.888C90.5144 67.3165 91.4188 65.6655 92.9903 65.2063C94.5618 64.7472 96.2128 65.6515 96.672 67.223C97.1312 68.7945 96.2268 70.4455 94.6553 70.9047Z" fill="#231F20"/>
</g>
</g>
<g filter="url(#filter0_d)">
<path d="M140.048 17.8261C139.641 17.4057 139.157 17.0722 138.625 16.8447C138.093 16.6171 137.523 16.5 136.947 16.5C136.371 16.5 135.8 16.6171 135.268 16.8447C134.736 17.0722 134.252 17.4057 133.845 17.8261L133 18.6982L132.155 17.8261C131.332 16.9773 130.216 16.5004 129.053 16.5004C127.89 16.5004 126.774 16.9773 125.951 17.8261C125.129 18.6749 124.667 19.8262 124.667 21.0266C124.667 22.227 125.129 23.3782 125.951 24.227L126.797 25.0991L133 31.5L139.203 25.0991L140.048 24.227C140.456 23.8068 140.779 23.3079 140.999 22.7587C141.22 22.2096 141.333 21.621 141.333 21.0266C141.333 20.4321 141.22 19.8435 140.999 19.2944C140.779 18.7453 140.456 18.2463 140.048 17.8261Z" fill="white" stroke="white" stroke-width="1.25" stroke-linecap="round" stroke-linejoin="round"/>
</g>
<g filter="url(#filter1_d)">
<path d="M73 59.6633C73 58.081 74.7505 57.1253 76.0815 57.981L89.0497 66.3176C90.2743 67.1049 90.2743 68.8951 89.0497 69.6824L76.0815 78.019C74.7505 78.8747 73 77.919 73 76.3367V59.6633Z" fill="white" stroke="white" stroke-width="2" stroke-linecap="round" stroke-linejoin="round"/>
</g>
<g filter="url(#filter2_d)">
<path d="M190.229 64.2957C189.985 64.0434 189.694 63.8433 189.375 63.7068C189.056 63.5703 188.714 63.5 188.368 63.5C188.022 63.5 187.68 63.5703 187.361 63.7068C187.041 63.8433 186.751 64.0434 186.507 64.2957L186 64.8189L185.493 64.2957C184.999 63.7864 184.33 63.5003 183.632 63.5003C182.934 63.5003 182.264 63.7864 181.771 64.2957C181.277 64.805 181 65.4957 181 66.2159C181 66.9362 181.277 67.6269 181.771 68.1362L182.278 68.6595L186 72.5L189.722 68.6595L190.229 68.1362C190.473 67.8841 190.667 67.5847 190.8 67.2552C190.932 66.9257 191 66.5726 191 66.2159C191 65.8593 190.932 65.5061 190.8 65.1766C190.667 64.8472 190.473 64.5478 190.229 64.2957Z" fill="white" stroke="white" stroke-width="0.75" stroke-linecap="round" stroke-linejoin="round"/>
</g>
<defs>
<filter id="filter0_d" x="123" y="14" width="22" height="22" filterUnits="userSpaceOnUse" color-interpolation-filters="sRGB">
<feFlood flood-opacity="0" result="BackgroundImageFix"/>
<feColorMatrix in="SourceAlpha" type="matrix" values="0 0 0 0 0 0 0 0 0 0 0 0 0 0 0 0 0 0 127 0"/>
<feOffset dx="1" dy="1"/>
<feGaussianBlur stdDeviation="0.5"/>
<feColorMatrix type="matrix" values="0 0 0 0 0 0 0 0 0 0 0 0 0 0 0 0 0 0 0.25 0"/>
<feBlend mode="normal" in2="BackgroundImageFix" result="effect1_dropShadow"/>
<feBlend mode="normal" in="SourceGraphic" in2="effect1_dropShadow" result="shape"/>
</filter>
<filter id="filter1_d" x="62" y="50" width="40" height="40" filterUnits="userSpaceOnUse" color-interpolation-filters="sRGB">
<feFlood flood-opacity="0" result="BackgroundImageFix"/>
<feColorMatrix in="SourceAlpha" type="matrix" values="0 0 0 0 0 0 0 0 0 0 0 0 0 0 0 0 0 0 127 0"/>
<feOffset dx="1" dy="2"/>
<feGaussianBlur stdDeviation="2"/>
<feColorMatrix type="matrix" values="0 0 0 0 0 0 0 0 0 0 0 0 0 0 0 0 0 0 0.25 0"/>
<feBlend mode="normal" in2="BackgroundImageFix" result="effect1_dropShadow"/>
<feBlend mode="normal" in="SourceGraphic" in2="effect1_dropShadow" result="shape"/>
</filter>
<filter id="filter2_d" x="180" y="62" width="14" height="14" filterUnits="userSpaceOnUse" color-interpolation-filters="sRGB">
<feFlood flood-opacity="0" result="BackgroundImageFix"/>
<feColorMatrix in="SourceAlpha" type="matrix" values="0 0 0 0 0 0 0 0 0 0 0 0 0 0 0 0 0 0 127 0"/>
<feOffset dx="1" dy="1"/>
<feGaussianBlur stdDeviation="0.5"/>
<feColorMatrix type="matrix" values="0 0 0 0 0 0 0 0 0 0 0 0 0 0 0 0 0 0 0.25 0"/>
<feBlend mode="normal" in2="BackgroundImageFix" result="effect1_dropShadow"/>
<feBlend mode="normal" in="SourceGraphic" in2="effect1_dropShadow" result="shape"/>
</filter>
<linearGradient id="paint0_linear" x1="221.2" y1="-101" x2="166.3" y2="152.065" gradientUnits="userSpaceOnUse">
<stop offset="0.498736" stop-color="#232E34"/>
<stop offset="0.900727" stop-color="white"/>
</linearGradient>
</defs>
</svg>
