<svg width="16" height="16" viewBox="0 0 16 16" fill="none" xmlns="http://www.w3.org/2000/svg">
<circle cx="8" cy="8" r="8" fill="#FFF0BB"/>
<path d="M7.52447 3.46353C7.67415 3.00287 8.32585 3.00287 8.47553 3.46353L9.23483 5.80041C9.30176 6.00642 9.49374 6.1459 9.71036 6.1459H12.1675C12.6519 6.1459 12.8532 6.76571 12.4614 7.05041L10.4735 8.49468C10.2983 8.622 10.2249 8.84768 10.2919 9.0537L11.0512 11.3906C11.2009 11.8512 10.6736 12.2343 10.2818 11.9496L8.29389 10.5053C8.11865 10.378 7.88135 10.378 7.70611 10.5053L5.71824 11.9496C5.32638 12.2343 4.79914 11.8512 4.94882 11.3906L5.70812 9.0537C5.77505 8.84768 5.70172 8.622 5.52648 8.49468L3.53861 7.05041C3.14675 6.76571 3.34814 6.1459 3.8325 6.1459H6.28964C6.50626 6.1459 6.69824 6.00642 6.76517 5.80041L7.52447 3.46353Z" fill="#F0B616"/>
</svg>
