<svg width="560" height="185" viewBox="0 0 560 185" fill="none" xmlns="http://www.w3.org/2000/svg">
<g clip-path="url(#clip0)">
<rect width="560" height="185" fill="#F7F9FA"/>
<g filter="url(#filter0_i)">
<rect width="118" height="185" fill="white"/>
</g>
<rect width="560" height="40" fill="white"/>
<rect width="560" height="1" transform="translate(0 39)" fill="#DCE5E9"/>
<rect width="560" height="1" fill="#DCE5E9"/>
<g clip-path="url(#clip1)">
<path d="M30.9083 18.3732C30.9719 17.9153 31.4027 17.5401 31.8656 17.5401L32.9724 17.5407C33.4353 17.5407 33.7777 17.7978 33.7344 18.1124L33.227 21.7865C33.0676 22.9341 32.5231 23.9161 31.5955 24.73C30.6672 25.5446 29.6296 25.9518 28.4813 25.9518C27.432 25.9518 26.5569 25.5965 25.8579 24.8858C24.9828 25.5965 24.015 25.9518 22.9545 25.9518C21.8056 25.9518 20.8811 25.5452 20.1803 24.73C19.4782 23.9161 19.2081 22.9341 19.3682 21.7865L19.8447 18.3646L16.6644 17.0544C16.2083 16.869 15.9345 16.3264 16.0563 15.8493L16.3461 14.7097C16.4673 14.2332 16.822 13.947 17.1353 14.0737C17.4443 14.2004 22.1894 16.1688 22.1894 16.1688C22.5899 16.356 22.8525 16.8171 22.7858 17.2577L22.1554 21.7858C22.1041 22.1579 22.1956 22.4805 22.431 22.7536C22.6665 23.0274 22.9699 23.164 23.342 23.164C23.7134 23.164 24.0521 23.0299 24.3574 22.7617C24.6627 22.4935 24.8419 22.169 24.895 21.7858L25.188 19.7149C25.2937 19.3015 25.696 18.9782 26.1255 18.9782H27.2503C27.6798 18.9782 27.9913 19.3015 27.9826 19.7149L27.6989 21.7858C27.6458 22.169 27.7342 22.4941 27.9653 22.7617C28.1958 23.0299 28.4968 23.164 28.8688 23.164C29.2508 23.164 29.5956 23.0268 29.9015 22.7536C30.2068 22.4805 30.386 22.1579 30.438 21.7858L30.9083 18.3732Z" fill="#305BEF"/>
<path fill-rule="evenodd" clip-rule="evenodd" d="M36.4938 17.5395H35.5001C35.0842 17.5395 34.6973 17.8763 34.6398 18.2885C34.6398 18.2885 33.6386 25.4036 33.6337 25.4389C33.5948 25.7213 33.9025 25.9531 34.3184 25.9531H35.3122C35.7281 25.9531 36.115 25.6162 36.1725 25.204C36.1725 25.204 37.1755 18.0765 37.1786 18.0543C37.2175 17.7706 36.9098 17.5395 36.4938 17.5395Z" fill="#305BEF"/>
<path fill-rule="evenodd" clip-rule="evenodd" d="M53.5454 18.5468C52.9756 17.8775 52.2044 17.5426 51.231 17.5426C50.2576 17.5426 49.3479 17.7545 48.4518 18.5246C48.4518 18.5246 49.0006 14.5743 49.0006 14.5712C49.0408 14.2838 48.7262 14.0477 48.3023 14.0477H47.2881C46.8635 14.0477 46.4686 14.3913 46.4105 14.8116C46.4105 14.8116 44.8674 25.4259 44.8667 25.4284C44.8266 25.7163 45.1405 25.953 45.5651 25.953H46.5792C46.9958 25.953 47.3833 25.6218 47.4525 25.2121H47.4537L47.9642 21.8451C48.0674 21.1425 48.3387 20.6091 48.7775 20.247C49.2163 19.8842 49.6952 19.7031 50.2138 19.7031C51.2613 19.7031 51.6846 20.3953 51.4813 21.7784C51.4813 21.7784 50.9344 25.4277 50.9344 25.429C50.8942 25.717 51.2087 25.953 51.6327 25.953H52.6462C53.0708 25.953 53.4657 25.6094 53.5244 25.1892L54.1542 21.2259C54.3186 20.1098 54.1152 19.2168 53.5454 18.5468Z" fill="#305BEF"/>
<path fill-rule="evenodd" clip-rule="evenodd" d="M43.571 20.0647C43.7082 20.0585 43.8268 19.9819 43.956 19.8181L44.4004 19.2539C44.5882 19.0153 44.5932 18.647 44.4115 18.3961C44.3318 18.2601 44.1006 18.1278 43.8899 18.0141L43.8658 18.0012C43.1977 17.6409 42.5414 17.5049 41.6712 17.5469C40.7263 17.5933 39.9198 17.8708 39.2746 18.372C38.6238 18.8775 38.2567 19.5177 38.1826 20.2742C38.1072 21.0418 38.368 21.6153 38.9557 21.978C39.235 22.1536 39.4903 22.2877 39.7146 22.3767C39.9377 22.465 40.2653 22.5695 40.6886 22.6863C41.1002 22.8006 41.4141 22.9298 41.6206 23.0707C41.8097 23.1998 41.8943 23.3389 41.8789 23.4946C41.8628 23.6578 41.7781 23.7894 41.6206 23.897C41.4568 24.0094 41.238 24.0725 40.971 24.0854C40.2486 24.1207 39.5688 23.9526 38.9508 23.5867L38.4922 23.3339C38.4187 23.2932 38.3327 23.274 38.2444 23.2783C38.1004 23.2857 37.965 23.3543 37.8828 23.4631L37.2234 24.3333C37.1561 24.4223 37.1295 24.5292 37.1486 24.6336C37.1666 24.735 37.2259 24.8227 37.3143 24.8821L37.3155 24.8833C37.5306 25.0514 37.7549 25.1991 37.9817 25.3215C38.279 25.484 38.5991 25.6169 38.9322 25.7145C39.5552 25.8974 40.1732 25.9759 40.7683 25.9469C41.665 25.903 42.44 25.6218 43.0723 25.1107C43.7082 24.5959 44.0703 23.9266 44.1494 23.122C44.2298 22.305 43.9943 21.7253 43.4492 21.3983C43.1699 21.2333 42.9233 21.1116 42.7157 21.0362C42.5092 20.9614 42.1601 20.8564 41.678 20.7229C41.2015 20.5918 40.8598 20.472 40.6614 20.3669C40.4865 20.2742 40.413 20.1506 40.4303 19.9769C40.4624 19.6519 40.798 19.4714 41.4277 19.4405C41.9345 19.4158 42.4425 19.532 42.9363 19.7847C43.0376 19.8403 43.1495 19.9065 43.2515 19.972C43.2577 19.9757 43.2614 19.9782 43.2614 19.9782C43.2614 19.9782 43.2614 19.9782 43.2614 19.9775C43.3806 20.0412 43.4783 20.0696 43.571 20.0647Z" fill="#305BEF"/>
<path fill-rule="evenodd" clip-rule="evenodd" d="M35.2617 16.1694C35.0522 15.9296 34.9731 15.636 35.0263 15.2881C35.0788 14.9408 35.2463 14.6466 35.5287 14.4068C35.8112 14.1676 36.1307 14.0477 36.4879 14.0477C36.8451 14.0477 37.1288 14.1676 37.3383 14.4074C37.5484 14.6472 37.6269 14.9414 37.5743 15.2887C37.5218 15.6366 37.3537 15.9302 37.0719 16.17C36.7888 16.4098 36.4693 16.5297 36.1121 16.5297C35.7549 16.529 35.4713 16.4091 35.2617 16.1694Z" fill="#305BEF"/>
</g>
<path d="M59.9518 25.9531H60.6343V22.7697H59.6797L58.9065 24.6931L58.1334 22.7697H57.1836V25.9531H57.8613V23.7242L58.7586 25.9531H59.0545L59.9518 23.7242V25.9531Z" fill="#3F5663"/>
<path d="M61.9483 25.9531H64.2011V25.3565H62.6261V24.6358H64.1676V24.0392H62.6261V23.3663H64.2011V22.7697H61.9483V25.9531Z" fill="#3F5663"/>
<path d="M67.212 25.9531H67.99L67.274 24.7408C67.6177 24.6597 67.9709 24.359 67.9709 23.7958C67.9709 23.204 67.5652 22.7697 66.9018 22.7697H65.4127V25.9531H66.0904V24.8219H66.5868L67.212 25.9531ZM67.2788 23.7958C67.2788 24.0631 67.0736 24.2253 66.8015 24.2253H66.0904V23.3663H66.8015C67.0736 23.3663 67.2788 23.5285 67.2788 23.7958Z" fill="#3F5663"/>
<path d="M70.7029 26.0103C71.4045 26.0103 71.8054 25.6238 72.0345 25.2276L71.4523 24.946C71.3186 25.2085 71.0323 25.409 70.7029 25.409C70.1254 25.409 69.7054 24.9651 69.7054 24.3638C69.7054 23.7624 70.1254 23.3185 70.7029 23.3185C71.0323 23.3185 71.3186 23.5238 71.4523 23.7815L72.0345 23.4951C71.8102 23.099 71.4045 22.7172 70.7029 22.7172C69.7484 22.7172 69.0086 23.3853 69.0086 24.3638C69.0086 25.3422 69.7484 26.0103 70.7029 26.0103Z" fill="#3F5663"/>
<path d="M75.3009 25.9531H75.9834V22.7697H75.3009V24.0201H73.7975V22.7697H73.1198V25.9531H73.7975V24.6167H75.3009V25.9531Z" fill="#3F5663"/>
<path d="M79.488 25.9531H80.2612L79.0346 22.7697H78.1851L76.9537 25.9531H77.7269L77.9273 25.4138H79.2923L79.488 25.9531ZM78.6098 23.4474L79.1062 24.8172H78.1135L78.6098 23.4474Z" fill="#3F5663"/>
<path d="M83.4324 25.9531H84.0863V22.7697H83.4086V24.7694L81.9338 22.7697H81.237V25.9531H81.9147V23.8769L83.4324 25.9531Z" fill="#3F5663"/>
<path d="M86.1308 25.9531H86.8133V23.3663H87.7392V22.7697H85.2001V23.3663H86.1308V25.9531Z" fill="#3F5663"/>
<rect x="180" y="10" width="200" height="20" rx="4" fill="#EFF4F6"/>
<rect x="524" y="10" width="20" height="20" rx="10" fill="#305BEF"/>
<rect x="450" y="10" width="70" height="20" rx="4" fill="#EFF4F6"/>
<g filter="url(#filter1_d)">
<rect x="362" y="40" width="182" height="132" rx="4" fill="white"/>
</g>
<rect x="16" y="56" width="86" height="12" rx="4" fill="#EFF4F6"/>
<rect x="16" y="84" width="86" height="12" rx="4" fill="#EFF4F6"/>
<rect x="16" y="112" width="86" height="12" rx="4" fill="#EFF4F6"/>
<rect x="16" y="140" width="86" height="12" rx="4" fill="#EFF4F6"/>
<rect x="16" y="168" width="86" height="12" rx="4" fill="#EFF4F6"/>
<rect x="378" y="56" width="150" height="12" rx="4" fill="#EFF4F6"/>
<rect x="378" y="84" width="150" height="12" rx="4" fill="#EFF4F6"/>
<rect x="362" y="104" width="182" height="32" fill="#E5ECFF"/>
<rect x="378" y="144" width="150" height="12" rx="4" fill="#EFF4F6"/>
<path d="M538 18L534 22L530 18" stroke="white" stroke-linecap="round" stroke-linejoin="round"/>
<g opacity="0.2" filter="url(#filter2_f)">
<path fill-rule="evenodd" clip-rule="evenodd" d="M514.106 134.38V136.231H515.052V137.191H515.992V139.031H516.916V139.955H517.862V141.806H518.779V142.75H519.703V143.686H527.14V142.771H528.974V141.82V137.152H517.842V134.359L514.106 134.38Z" fill="black"/>
</g>
<path fill-rule="evenodd" clip-rule="evenodd" d="M518.764 127.924V133.494H517.834V132.578H515.958V133.494H515.051V135.333H516.003V136.248H516.933V138.112H517.852V139.049H518.765V139.953H519.697V141.812H525.259V140.915H526.198V141.822H528.033V139.053H528.957V137.188H529.919V132.568H528.939V131.656H527.097V130.728H522.477V127.934H521.539V127.003H519.682V127.923L518.764 127.924Z" fill="black"/>
<path fill-rule="evenodd" clip-rule="evenodd" d="M519.695 127.917H521.551V133.473H522.469V131.618H525.269V133.478H526.188V131.639H527.1V133.476H528.035V132.55H528.963V137.187H528.024V139.056H527.114V135.351H526.181V139.041H527.099V140.917H526.194V139.981H525.265V140.91H520.617V139.979H519.691V139.048H518.767V138.137H517.841V136.277H516.898V135.336H515.978V133.483H517.832V134.391H518.784V136.24H519.688L519.695 127.917ZM524.319 135.342H525.246V139.05H524.319V135.342ZM523.392 135.342H522.464V139.05H523.392V135.342Z" fill="#F0F4FF"/>
</g>
<defs>
<filter id="filter0_i" x="0" y="0" width="118" height="185" filterUnits="userSpaceOnUse" color-interpolation-filters="sRGB">
<feFlood flood-opacity="0" result="BackgroundImageFix"/>
<feBlend mode="normal" in="SourceGraphic" in2="BackgroundImageFix" result="shape"/>
<feColorMatrix in="SourceAlpha" type="matrix" values="0 0 0 0 0 0 0 0 0 0 0 0 0 0 0 0 0 0 127 0" result="hardAlpha"/>
<feOffset dx="-1"/>
<feComposite in2="hardAlpha" operator="arithmetic" k2="-1" k3="1"/>
<feColorMatrix type="matrix" values="0 0 0 0 0.862745 0 0 0 0 0.898039 0 0 0 0 0.913725 0 0 0 1 0"/>
<feBlend mode="normal" in2="shape" result="effect1_innerShadow"/>
</filter>
<filter id="filter1_d" x="358" y="38" width="190" height="140" filterUnits="userSpaceOnUse" color-interpolation-filters="sRGB">
<feFlood flood-opacity="0" result="BackgroundImageFix"/>
<feColorMatrix in="SourceAlpha" type="matrix" values="0 0 0 0 0 0 0 0 0 0 0 0 0 0 0 0 0 0 127 0"/>
<feOffset dy="2"/>
<feGaussianBlur stdDeviation="2"/>
<feColorMatrix type="matrix" values="0 0 0 0 0.686275 0 0 0 0 0.780392 0 0 0 0 0.819608 0 0 0 0.2 0"/>
<feBlend mode="normal" in2="BackgroundImageFix" result="effect1_dropShadow"/>
<feBlend mode="normal" in="SourceGraphic" in2="effect1_dropShadow" result="shape"/>
</filter>
<filter id="filter2_f" x="499.582" y="119.834" width="43.9169" height="38.3757" filterUnits="userSpaceOnUse" color-interpolation-filters="sRGB">
<feFlood flood-opacity="0" result="BackgroundImageFix"/>
<feBlend mode="normal" in="SourceGraphic" in2="BackgroundImageFix" result="shape"/>
<feGaussianBlur stdDeviation="7.26215" result="effect1_foregroundBlur"/>
</filter>
<clipPath id="clip0">
<rect width="560" height="185" fill="white"/>
</clipPath>
<clipPath id="clip1">
<rect width="86.1818" height="25.5682" fill="white" transform="translate(9.20947 7.18781)"/>
</clipPath>
</defs>
</svg>
