<svg xmlns="http://www.w3.org/2000/svg" width="64" height="64" fill="none" viewBox="0 0 64 64">
    <mask id="prefix__a" width="64" height="64" x="0" y="0" maskUnits="userSpaceOnUse">
        <path fill="#fff" d="M32 64c17.673 0 32-14.327 32-32C64 14.327 49.673 0 32 0 14.327 0 0 14.327 0 32c0 17.673 14.327 32 32 32z"/>
    </mask>
    <g mask="url(#prefix__a)">
        <path fill="#E6F7FF" d="M32 64c17.673 0 32-14.327 32-32C64 14.327 49.673 0 32 0 14.327 0 0 14.327 0 32c0 17.673 14.327 32 32 32z"/>
        <path fill="url(#prefix__paint0_linear)" d="M30.238 65C49.437 65 65 49.486 65 30.345 65 17.725 58.234 6.68 48.123.619 47.767.41 47.408.202 47.047 0L14 60.996c5.01 2.639 10.582 4.013 16.236 4.004h.002z"/>
    </g>
    <path fill="#376EEE" d="M39.327 11.542l-24.302 6.512c-1.118.3-1.782 1.45-1.482 2.568l7.597 28.352c.3 1.119 1.45 1.783 2.567 1.483l24.303-6.512c1.118-.3 1.782-1.45 1.482-2.568l-7.597-28.352c-.3-1.119-1.45-1.782-2.568-1.483z"/>
    <path fill="#225FEE" d="M39.327 11.543L30 30l-8.86 18.975c.3 1.119 1.45 1.783 2.567 1.483l24.303-6.512c1.118-.3 1.782-1.45 1.482-2.568l-7.597-28.352c-.3-1.119-1.45-1.782-2.568-1.483z"/>
    <path fill="#fff" d="M37.372 16.405L19.145 21.29c-.559.15-.89.725-.74 1.284l1.084 4.05c.15.56.725.892 1.284.742L39 22.48c.56-.15.891-.725.741-1.284l-1.085-4.05c-.15-.56-.725-.891-1.284-.742z"/>
    <path fill="#79D6FA" d="M24.355 28.576l-3.038.814c-.559.15-.89.724-.741 1.284l.543 2.025c.15.56.724.891 1.284.741l3.037-.814c.56-.15.891-.724.742-1.284l-.543-2.025c-.15-.56-.725-.891-1.284-.741zM32.458 26.405l-4.05 1.085c-.56.15-.892.725-.742 1.284l.543 2.025c.15.56.724.892 1.283.742l4.05-1.085c.56-.15.892-.725.742-1.284l-.543-2.026c-.15-.559-.724-.89-1.283-.74zM39.547 24.506l-3.038.814c-.56.15-.891.724-.742 1.283l.543 2.026c.15.559.725.89 1.284.74l3.038-.813c.559-.15.89-.725.741-1.284l-.543-2.025c-.15-.56-.724-.891-1.283-.741zM25.988 34.651l-3.038.814c-.56.15-.891.725-.741 1.284l.543 2.025c.15.56.724.891 1.283.741l3.038-.814c.56-.15.891-.724.741-1.284l-.542-2.025c-.15-.559-.725-.89-1.284-.741zM34.083 32.48l-4.05 1.086c-.56.15-.892.724-.742 1.283l.543 2.026c.15.559.724.89 1.283.741l4.05-1.085c.56-.15.892-.725.742-1.284l-.543-2.025c-.15-.56-.724-.892-1.283-.742zM27.613 40.73l-3.038.814c-.56.15-.891.725-.741 1.284l.543 2.025c.15.56.724.891 1.283.741l3.038-.813c.56-.15.891-.725.741-1.284l-.542-2.026c-.15-.559-.725-.89-1.284-.74zM35.715 38.556l-4.05 1.085c-.56.15-.891.724-.741 1.284l.542 2.025c.15.56.725.891 1.284.741l4.05-1.085c.56-.15.892-.725.742-1.284l-.543-2.025c-.15-.56-.724-.891-1.284-.741z"/>
    <path fill="#8CACF6" d="M41.175 30.583l-3.037.814c-.56.15-.892.724-.742 1.284l2.17 8.1c.15.56.726.891 1.285.742l3.038-.814c.559-.15.89-.725.74-1.284l-2.17-8.101c-.15-.56-.724-.891-1.284-.741z"/>
    <defs>
        <linearGradient id="prefix__paint0_linear" x1="47.86" x2="21.09" y1="4.377" y2="58.087" gradientUnits="userSpaceOnUse">
            <stop stop-color="#E6F7FF"/>
            <stop offset="1" stop-color="#C6EDFF"/>
        </linearGradient>
    </defs>
</svg>
