<svg width="15" height="16" viewBox="0 0 15 16" fill="none" xmlns="http://www.w3.org/2000/svg">
<path d="M4.16671 14.6667H2.16671C1.81309 14.6667 1.47395 14.5262 1.2239 14.2762C0.97385 14.0261 0.833374 13.687 0.833374 13.3333V8.66668C0.833374 8.31306 0.97385 7.97392 1.2239 7.72387C1.47395 7.47382 1.81309 7.33334 2.16671 7.33334H4.16671M8.83337 6.00001V3.33334C8.83337 2.80291 8.62266 2.2942 8.24759 1.91913C7.87252 1.54406 7.36381 1.33334 6.83337 1.33334L4.16671 7.33334V14.6667H11.6867C12.0083 14.6703 12.3203 14.5576 12.5653 14.3493C12.8103 14.1411 12.9718 13.8513 13.02 13.5333L13.94 7.53334C13.969 7.34225 13.9562 7.14713 13.9023 6.96151C13.8484 6.77589 13.7548 6.60421 13.6279 6.45835C13.5011 6.3125 13.3441 6.19596 13.1678 6.11682C12.9914 6.03768 12.8 5.99782 12.6067 6.00001H8.83337Z" stroke="#FFF" stroke-linecap="round" stroke-linejoin="round"/>
</svg>
