<svg width="28" height="29" viewBox="0 0 28 29" fill="none" xmlns="http://www.w3.org/2000/svg">
<path fill-rule="evenodd" clip-rule="evenodd" d="M14.7814 11.5085H4.57007C4.43746 11.5085 4.31028 11.5612 4.21651 11.655C4.12275 11.7488 4.07007 11.8759 4.07007 12.0085V14.4369C4.07007 14.6954 4.2671 14.9113 4.52451 14.9349C4.83345 14.9631 5.3149 15.1005 5.70699 15.4086C6.07975 15.7016 6.3835 16.1548 6.3835 16.88C6.3835 17.6048 6.08031 18.0517 5.71011 18.338C5.31971 18.6399 4.83961 18.771 4.53079 18.7953C4.27069 18.8158 4.07007 19.0328 4.07007 19.2938V21.7222C4.07007 21.9983 4.29393 22.2222 4.57007 22.2222H14.7814V21.2222H5.07007L5.07007 19.7178C5.46479 19.6239 5.91876 19.4408 6.32182 19.1291C6.91555 18.67 7.3835 17.9404 7.3835 16.88C7.3835 15.8201 6.91611 15.0871 6.32494 14.6224C5.92107 14.305 5.46562 14.1162 5.07007 14.0177V12.5085L14.7814 12.5085V11.5085ZM18.2115 12.5085V11.5085H23.43C23.7062 11.5085 23.93 11.7324 23.93 12.0085V21.7222C23.93 21.9983 23.7062 22.2222 23.43 22.2222H18.2115V21.2222H22.93V12.5085L18.2115 12.5085Z" fill="#5A7385"/>
<path d="M14.9612 6.57052L14.9612 3.30322C14.5736 3.30322 12.4138 4.63229 12.4138 7.09661C12.4138 9.06807 13.8536 10.2624 14.5736 10.6131L14.5736 22.563C14.5736 23.1999 14.9778 24.1967 16.3733 24.1967C17.7689 24.1967 18.2562 23.366 18.2562 22.563L18.2562 10.6685C18.9853 10.4285 20.4436 9.06253 20.4436 7.1243C20.4436 4.86488 18.7084 3.6078 17.8962 3.30322L17.8962 6.57052L14.9612 6.57052Z" stroke="#5A7385" stroke-linejoin="round"/>
<path d="M9.4751 11.75L9.4751 21.9375" stroke="#5A7385"/>
</svg>
