<svg width="28" height="29" viewBox="0 0 28 29" fill="none" xmlns="http://www.w3.org/2000/svg">
<path d="M14.9612 6.57052L14.9612 3.30322C14.5736 3.30322 12.4138 4.63229 12.4138 7.09661C12.4138 9.06807 13.8536 10.2624 14.5736 10.6131L14.5736 22.563C14.5736 23.1999 14.9778 24.1967 16.3733 24.1967C17.7689 24.1967 18.2562 23.366 18.2562 22.563L18.2562 10.6685C18.9853 10.4285 20.4436 9.06253 20.4436 7.1243C20.4436 4.86488 18.7084 3.6078 17.8962 3.30322L17.8962 6.57052L14.9612 6.57052Z" stroke="#376EEE" stroke-linejoin="round"/>
<path fill-rule="evenodd" clip-rule="evenodd" d="M9.9751 21.7222H14.7814V12.0085H9.9751V21.7222ZM8.9751 12.0085H4.57007V14.4369C5.34121 14.5075 6.8835 15.0949 6.8835 16.88C6.8835 18.6652 5.34121 19.233 4.57007 19.2938V21.7222H8.9751V12.0085ZM18.2115 12.0085V21.7222H23.43V12.0085H18.2115Z" fill="#376EEE"/>
</svg>
