<?xml version="1.0" encoding="UTF-8"?>
<svg width="40px" height="40px" viewBox="0 0 40 40" version="1.1" xmlns="http://www.w3.org/2000/svg" xmlns:xlink="http://www.w3.org/1999/xlink">
    <!-- Generator: Sketch 52.3 (67297) - http://www.bohemiancoding.com/sketch -->
    <title>Graphic_02@1x</title>
    <desc>Created with Sketch.</desc>
    <defs>
        <rect id="path-1" x="0" y="0" width="24" height="24"></rect>
    </defs>
    <g id="Dashboard-onboarding_V9" stroke="none" stroke-width="1" fill="none" fill-rule="evenodd">
        <g id="Dashboard_store-approved_sell-quality-products" transform="translate(-352.000000, -1004.000000)">
            <g id="Graphic_02" transform="translate(352.000000, 1004.000000)">
                <circle id="Oval-2" fill="#EBCFB5" cx="20" cy="20" r="20"></circle>
                <g id="WishExpress" transform="translate(8.000000, 8.000000)">
                    <mask id="mask-2" fill="white">
                        <use xlink:href="#path-1"></use>
                    </mask>
                    <g id="Mask"></g>
                    <g id="Group-10" mask="url(#mask-2)">
                        <g transform="translate(1.600006, 6.000000)" id="Group-3">
                            <g>
                                <g id="Group-14" fill="#FBBA7B" stroke="#BC7633" stroke-width="1.4">
                                    <path d="M20.8089968,7.87479613 C21.291104,8.15890261 21.6308847,8.71137876 21.7,9.37784381 L21.7,10.5995449 C21.7,11.5245031 20.9524446,12.2769058 20.0495966,12.2769058 L19.3769579,12.2769058 C18.8582053,13.3925496 17.7523483,14.14 16.4855837,14.14 C15.2378154,14.14 14.1174001,13.3864959 13.5956262,12.2769058 L10.9951973,12.2769058 C10.4764448,13.3925496 9.37058779,14.14 8.1038231,14.14 C6.85605485,14.14 5.7356395,13.3864959 5.21386564,12.2769058 L4.70869737,12.2769058 C3.7896487,12.2769058 3.05829393,11.5084568 3.05829393,10.5995449 L3.05829393,9.37784381 C3.05829393,9.27116289 3.06799541,9.16618928 3.0866577,9.06403552 C2.54296678,8.88400606 2.14970435,8.36232328 2.14970435,7.75908984 C2.14970435,7.13169739 2.56844362,6.61029673 3.15078206,6.44328301 C3.08160174,6.44328301 3.06034571,6.44328301 2.94331043,6.44328301 C2.80030182,6.44328301 2.80030182,6.44328301 2.68112798,6.44328301 C2.43476038,6.44328301 2.43476038,6.44328301 2.30221498,6.44328301 C2.18172392,6.44328301 2.18172392,6.44328301 2.1786736,6.44328301 C1.43122363,6.44328301 0.825271236,5.82014325 0.825271236,5.0713474 C0.825271236,4.45547798 1.23518162,3.92461151 1.79658657,3.75554057 L0.653402366,3.75554057 C-0.0940476067,3.75554057 -0.7,3.13240081 -0.7,2.38360496 C-0.7,1.63480911 -0.0940476067,1.01166935 0.653402366,1.01166935 L3.32257009,1.01166935 C3.60630582,0.0386216493 4.28672171,-0.7 5.26924258,-0.7 L13.8981148,-0.7 C14.664029,-0.7 15.3483367,-0.338245889 15.7858243,0.269604795 C15.8126969,0.302328245 15.8348571,0.334354582 15.8533917,0.365256495 L15.9129256,0.426479019 L16.8365282,3.40622939 L18.4754909,3.54669915 C19.7575428,3.54669915 20.8089968,4.62797682 20.8089968,5.92653818 L20.8089968,7.87479613 Z M14.6545429,1.09445394 C14.6562697,1.09689549 14.6579882,1.09934735 14.6596984,1.10180948 L14.6687583,1.11280362 C14.6623569,1.10357753 14.656739,1.09489615 14.6519516,1.08700501 L14.6538558,1.09314845 C14.6540842,1.09358339 14.6543133,1.09401856 14.6545429,1.09445394 Z M14.6687583,1.11280362 L14.7327723,1.19048355 C14.7067956,1.16377005 14.685194,1.13649149 14.6687583,1.11280362 Z M8.04442289,11.3655863 C8.34097392,11.3655863 8.60719522,11.0918138 8.62152751,10.7522576 C8.62152751,10.4015224 8.36617679,10.1389289 8.04442289,10.1389289 C7.73540816,10.1389289 7.46731826,10.4190696 7.46731826,10.7522576 C7.46731826,11.0901187 7.73950838,11.3655863 8.04442289,11.3655863 Z M16.4261834,11.3655863 C16.7479373,11.3655863 17.0032881,11.1029927 17.0032881,10.7522576 C17.0032881,10.4143964 16.7310979,10.1389289 16.4261834,10.1389289 C16.1171687,10.1389289 15.8490788,10.4190696 15.8490788,10.7522576 C15.8490788,11.0901187 16.1212689,11.3655863 16.4261834,11.3655863 Z" id="Shape-Copy-9"></path>
                                </g>
                                <circle id="Oval" fill="#FBBA7B" cx="7.98" cy="10.5" r="2.1"></circle>
                                <circle id="Oval-Copy" fill="#FBBA7B" cx="16.38" cy="10.5" r="2.1"></circle>
                            </g>
                        </g>
                    </g>
                </g>
            </g>
        </g>
    </g>
</svg>