<svg xmlns="http://www.w3.org/2000/svg" width="16" height="16" viewBox="0 0 16 16">
    <g fill="none" fill-rule="evenodd">
        <path fill="none" d="M0 0h16v16H0z"/>
        <path fill="#4A5F6E" fill-rule="nonzero" d="M12.452 3.218C9.847.613 5.66.546 2.965 3.002v-.528a.983.983 0 0 0-1.965 0V5.42c0 .542.44.982.982.982H4.93a.983.983 0 0 0 0-1.964h-.628c1.927-1.739 4.906-1.687 6.761.168a4.88 4.88 0 0 1 1.44 3.474c0 1.312-.51 2.546-1.44 3.473a4.919 4.919 0 0 1-6.947 0 .982.982 0 1 0-1.39 1.39 6.85 6.85 0 0 0 4.863 2.01c1.762 0 3.523-.67 4.863-2.01a6.832 6.832 0 0 0 2.015-4.863 6.83 6.83 0 0 0-2.015-4.863z"/>
    </g>
</svg>
