<svg width="81" height="81" viewBox="0 0 81 81" fill="none" xmlns="http://www.w3.org/2000/svg">
<path d="M40.0413 80.3132C62.1327 80.3132 80.0413 62.4046 80.0413 40.3132C80.0413 18.2218 62.1327 0.313232 40.0413 0.313232C17.9499 0.313232 0.0412598 18.2218 0.0412598 40.3132C0.0412598 62.4046 17.9499 80.3132 40.0413 80.3132Z" fill="#EEF2F5" fill-opacity="0.5"/>
<path d="M40.041 73.2544C58.2339 73.2544 72.9822 58.5062 72.9822 40.3132C72.9822 22.1203 58.2339 7.37207 40.041 7.37207C21.8481 7.37207 7.09985 22.1203 7.09985 40.3132C7.09985 58.5062 21.8481 73.2544 40.041 73.2544Z" fill="#B1E9FF"/>
<path d="M57.3953 53.3375C62.2075 53.0571 66.0412 48.7596 66.0412 43.4686C66.0412 38.0064 61.9487 33.58 56.8967 33.58C55.9785 33.58 55.081 33.7305 54.2418 34.0118C52.7243 27.1234 46.9752 21.9839 40.1272 21.9839C33.3188 21.9839 27.6289 27.0368 26.0324 33.8387C25.3715 33.6819 24.6946 33.6024 24.0153 33.6017C18.9642 33.6017 14.8718 38.028 14.8718 43.4912C14.8718 48.6947 18.5851 52.9273 23.2966 53.3375H57.3963H57.3953Z" fill="white" stroke="#2FB7EC" stroke-width="3"/>
<path fill-rule="evenodd" clip-rule="evenodd" d="M39.6783 32.4965C39.7677 32.3906 39.8991 32.3296 40.0377 32.3296C40.1762 32.3296 40.3077 32.3906 40.397 32.4965L43.5487 36.2163C43.6676 36.3562 43.6944 36.5524 43.6172 36.719C43.5399 36.8856 43.3729 36.992 43.1893 36.9916H41.4112V40.5665C41.4112 40.7666 41.3317 40.9584 41.1902 41.0997C41.0486 41.2411 40.8567 41.3204 40.6567 41.3201H39.4196C39.0034 41.3201 38.666 40.9827 38.666 40.5665V36.9916H36.886C36.7021 36.9923 36.5345 36.8857 36.4573 36.7188C36.38 36.5519 36.4071 36.3552 36.5266 36.2154L39.6783 32.4965ZM46.2798 39.1732C46.08 39.1729 45.8882 39.2521 45.7467 39.3932C45.6052 39.5344 45.5256 39.7259 45.5253 39.9258V43.7266C45.5256 43.8515 45.4761 43.9714 45.3879 44.0598C45.2996 44.1482 45.1798 44.1979 45.0549 44.1979H35.0205C34.7607 44.1979 34.5501 43.9873 34.5501 43.7275V39.9267C34.5498 39.7269 34.4702 39.5353 34.3287 39.3942C34.1872 39.253 33.9954 39.1739 33.7956 39.1741H33.1606C32.7447 39.1741 32.4075 39.5109 32.407 39.9267V45.2817C32.407 45.6985 32.7447 46.0353 33.1606 46.0353H46.9148C47.1147 46.035 47.3063 45.9554 47.4474 45.8139C47.5886 45.6724 47.6677 45.4806 47.6675 45.2807V39.9267C47.6675 39.5109 47.3307 39.1737 46.9148 39.1732H46.2798Z" fill="#326BEE"/>
</svg>

