<svg width="240" height="160" viewBox="0 0 240 160" fill="none" xmlns="http://www.w3.org/2000/svg">
<rect width="240" height="160" fill="white"/>
<mask id="mask0_888_73157" style="mask-type:alpha" maskUnits="userSpaceOnUse" x="0" y="0" width="240" height="160">
<rect width="240" height="160" fill="white"/>
</mask>
<g mask="url(#mask0_888_73157)">
<g filter="url(#filter0_i_888_73157)">
<path d="M0 40.8C0 38.5908 1.79086 36.8 4 36.8H120V60.8H0V40.8Z" fill="#F0F4FF"/>
</g>
<g filter="url(#filter1_i_888_73157)">
<rect y="60.8" width="120" height="24" fill="#D0DBFF"/>
</g>
<g filter="url(#filter2_i_888_73157)">
<rect y="84.8" width="120" height="24" fill="#F0F4FF"/>
</g>
<g filter="url(#filter3_i_888_73157)">
<path d="M0 108.8H120V132.8H4C1.79086 132.8 0 131.009 0 128.8V108.8Z" fill="#D0DBFF"/>
</g>
<path fill-rule="evenodd" clip-rule="evenodd" d="M20.3004 36.8H19.9004V39.8573H20.3004V36.8ZM20.3004 41.6914H19.9004V44.7488H20.3004V41.6914ZM19.9004 46.5837H20.3004V49.641H19.9004V46.5837ZM20.3004 51.475H19.9004V54.5323H20.3004V51.475ZM19.9004 56.3671H20.3004V59.4245H19.9004V56.3671ZM20.3004 61.2585H19.9004V64.3158H20.3004V61.2585ZM19.9004 66.15H20.3004V69.2074H19.9004V66.15ZM20.3004 71.0422H19.9004V74.0995H20.3004V71.0422ZM19.9004 75.9336H20.3004V78.991H19.9004V75.9336ZM20.3004 80.8259H19.9004V83.8832H20.3004V80.8259ZM19.9004 85.7172H20.3004V88.7745H19.9004V85.7172ZM20.3004 90.6087H19.9004V93.666H20.3004V90.6087ZM19.9004 95.5007H20.3004V98.558H19.9004V95.5007ZM20.3004 100.392H19.9004V103.45H20.3004V100.392ZM19.9004 105.284H20.3004V108.342H19.9004V105.284ZM20.3004 110.176H19.9004V113.233H20.3004V110.176ZM19.9004 115.067H20.3004V118.125H19.9004V115.067ZM20.3004 119.959H19.9004V123.017H20.3004V119.959ZM19.9004 124.851H20.3004V127.908H19.9004V124.851ZM20.3004 129.743H19.9004V132.8H20.3004V129.743Z" fill="#ADC0FD"/>
<path fill-rule="evenodd" clip-rule="evenodd" d="M40.1988 36.8H39.7988V39.8573H40.1988V36.8ZM40.1988 41.6914H39.7988V44.7488H40.1988V41.6914ZM39.7988 46.5837H40.1988V49.641H39.7988V46.5837ZM40.1988 51.475H39.7988V54.5323H40.1988V51.475ZM39.7988 56.3671H40.1988V59.4245H39.7988V56.3671ZM40.1988 61.2585H39.7988V64.3158H40.1988V61.2585ZM39.7988 66.15H40.1988V69.2074H39.7988V66.15ZM40.1988 71.0422H39.7988V74.0995H40.1988V71.0422ZM39.7988 75.9336H40.1988V78.991H39.7988V75.9336ZM40.1988 80.8259H39.7988V83.8832H40.1988V80.8259ZM39.7988 85.7172H40.1988V88.7745H39.7988V85.7172ZM40.1988 90.6087H39.7988V93.666H40.1988V90.6087ZM39.7988 95.5007H40.1988V98.558H39.7988V95.5007ZM40.1988 100.392H39.7988V103.45H40.1988V100.392ZM39.7988 105.284H40.1988V108.342H39.7988V105.284ZM40.1988 110.176H39.7988V113.233H40.1988V110.176ZM39.7988 115.067H40.1988V118.125H39.7988V115.067ZM40.1988 119.959H39.7988V123.017H40.1988V119.959ZM39.7988 124.851H40.1988V127.908H39.7988V124.851ZM40.1988 129.743H39.7988V132.8H40.1988V129.743Z" fill="#ADC0FD"/>
<path fill-rule="evenodd" clip-rule="evenodd" d="M60.0973 36.8H59.6973V39.8573H60.0973V36.8ZM60.0973 41.6914H59.6973V44.7488H60.0973V41.6914ZM59.6973 46.5837H60.0973V49.641H59.6973V46.5837ZM60.0973 51.475H59.6973V54.5323H60.0973V51.475ZM59.6973 56.3671H60.0973V59.4245H59.6973V56.3671ZM60.0973 61.2585H59.6973V64.3158H60.0973V61.2585ZM59.6973 66.15H60.0973V69.2074H59.6973V66.15ZM60.0973 71.0422H59.6973V74.0995H60.0973V71.0422ZM59.6973 75.9336H60.0973V78.991H59.6973V75.9336ZM60.0973 80.8259H59.6973V83.8832H60.0973V80.8259ZM59.6973 85.7172H60.0973V88.7745H59.6973V85.7172ZM60.0973 90.6087H59.6973V93.666H60.0973V90.6087ZM59.6973 95.5007H60.0973V98.558H59.6973V95.5007ZM60.0973 100.392H59.6973V103.45H60.0973V100.392ZM59.6973 105.284H60.0973V108.342H59.6973V105.284ZM60.0973 110.176H59.6973V113.233H60.0973V110.176ZM59.6973 115.067H60.0973V118.125H59.6973V115.067ZM60.0973 119.959H59.6973V123.017H60.0973V119.959ZM59.6973 124.851H60.0973V127.908H59.6973V124.851ZM60.0973 129.743H59.6973V132.8H60.0973V129.743Z" fill="#ADC0FD"/>
<path fill-rule="evenodd" clip-rule="evenodd" d="M79.9957 36.8H79.5957V39.8573H79.9957V36.8ZM79.9957 41.6914H79.5957V44.7488H79.9957V41.6914ZM79.5957 46.5837H79.9957V49.641H79.5957V46.5837ZM79.9957 51.475H79.5957V54.5323H79.9957V51.475ZM79.5957 56.3671H79.9957V59.4245H79.5957V56.3671ZM79.9957 61.2585H79.5957V64.3158H79.9957V61.2585ZM79.5957 66.15H79.9957V69.2074H79.5957V66.15ZM79.9957 71.0422H79.5957V74.0995H79.9957V71.0422ZM79.5957 75.9336H79.9957V78.991H79.5957V75.9336ZM79.9957 80.8259H79.5957V83.8832H79.9957V80.8259ZM79.5957 85.7172H79.9957V88.7745H79.5957V85.7172ZM79.9957 90.6087H79.5957V93.666H79.9957V90.6087ZM79.5957 95.5007H79.9957V98.558H79.5957V95.5007ZM79.9957 100.392H79.5957V103.45H79.9957V100.392ZM79.5957 105.284H79.9957V108.342H79.5957V105.284ZM79.9957 110.176H79.5957V113.233H79.9957V110.176ZM79.5957 115.067H79.9957V118.125H79.5957V115.067ZM79.9957 119.959H79.5957V123.017H79.9957V119.959ZM79.5957 124.851H79.9957V127.908H79.5957V124.851ZM79.9957 129.743H79.5957V132.8H79.9957V129.743Z" fill="#ADC0FD"/>
<path fill-rule="evenodd" clip-rule="evenodd" d="M99.8961 36.8H99.4961V39.8573H99.8961V36.8ZM99.8961 41.6914H99.4961V44.7488H99.8961V41.6914ZM99.4961 46.5837H99.8961V49.641H99.4961V46.5837ZM99.8961 51.475H99.4961V54.5323H99.8961V51.475ZM99.4961 56.3671H99.8961V59.4245H99.4961V56.3671ZM99.8961 61.2585H99.4961V64.3158H99.8961V61.2585ZM99.4961 66.15H99.8961V69.2074H99.4961V66.15ZM99.8961 71.0422H99.4961V74.0995H99.8961V71.0422ZM99.4961 75.9336H99.8961V78.991H99.4961V75.9336ZM99.8961 80.8259H99.4961V83.8832H99.8961V80.8259ZM99.4961 85.7172H99.8961V88.7745H99.4961V85.7172ZM99.8961 90.6087H99.4961V93.666H99.8961V90.6087ZM99.4961 95.5007H99.8961V98.558H99.4961V95.5007ZM99.8961 100.392H99.4961V103.45H99.8961V100.392ZM99.4961 105.284H99.8961V108.342H99.4961V105.284ZM99.8961 110.176H99.4961V113.233H99.8961V110.176ZM99.4961 115.067H99.8961V118.125H99.4961V115.067ZM99.8961 119.959H99.4961V123.017H99.8961V119.959ZM99.4961 124.851H99.8961V127.908H99.4961V124.851ZM99.8961 129.743H99.4961V132.8H99.8961V129.743Z" fill="#ADC0FD"/>
<path fill-rule="evenodd" clip-rule="evenodd" d="M120.097 36.8H119.697V39.8573H120.097V36.8ZM120.097 41.6914H119.697V44.7488H120.097V41.6914ZM119.697 46.5837H120.097V49.641H119.697V46.5837ZM120.097 51.475H119.697V54.5323H120.097V51.475ZM119.697 56.3671H120.097V59.4245H119.697V56.3671ZM120.097 61.2585H119.697V64.3158H120.097V61.2585ZM119.697 66.15H120.097V69.2074H119.697V66.15ZM120.097 71.0422H119.697V74.0995H120.097V71.0422ZM119.697 75.9336H120.097V78.991H119.697V75.9336ZM120.097 80.8259H119.697V83.8832H120.097V80.8259ZM119.697 85.7172H120.097V88.7745H119.697V85.7172ZM120.097 90.6087H119.697V93.666H120.097V90.6087ZM119.697 95.5007H120.097V98.558H119.697V95.5007ZM120.097 100.392H119.697V103.45H120.097V100.392ZM119.697 105.284H120.097V108.342H119.697V105.284ZM120.097 110.176H119.697V113.233H120.097V110.176ZM119.697 115.067H120.097V118.125H119.697V115.067ZM120.097 119.959H119.697V123.017H120.097V119.959ZM119.697 124.851H120.097V127.908H119.697V124.851ZM120.097 129.743H119.697V132.8H120.097V129.743Z" fill="#ADC0FD"/>
<path fill-rule="evenodd" clip-rule="evenodd" d="M120.097 36.8H119.697V39.8573H120.097V36.8ZM120.097 41.6914H119.697V44.7488H120.097V41.6914ZM119.697 46.5837H120.097V49.641H119.697V46.5837ZM120.097 51.475H119.697V54.5323H120.097V51.475ZM119.697 56.3671H120.097V59.4245H119.697V56.3671ZM120.097 61.2585H119.697V64.3158H120.097V61.2585ZM119.697 66.15H120.097V69.2074H119.697V66.15ZM120.097 71.0422H119.697V74.0995H120.097V71.0422ZM119.697 75.9336H120.097V78.991H119.697V75.9336ZM120.097 80.8259H119.697V83.8832H120.097V80.8259ZM119.697 85.7172H120.097V88.7745H119.697V85.7172ZM120.097 90.6087H119.697V93.666H120.097V90.6087ZM119.697 95.5007H120.097V98.558H119.697V95.5007ZM120.097 100.392H119.697V103.45H120.097V100.392ZM119.697 105.284H120.097V108.342H119.697V105.284ZM120.097 110.176H119.697V113.233H120.097V110.176ZM119.697 115.067H120.097V118.125H119.697V115.067ZM120.097 119.959H119.697V123.017H120.097V119.959ZM119.697 124.851H120.097V127.908H119.697V124.851ZM120.097 129.743H119.697V132.8H120.097V129.743Z" fill="#F7F9FA"/>
<g filter="url(#filter4_i_888_73157)">
<path d="M120 36.8H236C238.209 36.8 240 38.5908 240 40.8V60.8H120V36.8Z" fill="#F0F4FF"/>
</g>
<g filter="url(#filter5_i_888_73157)">
<rect x="120" y="60.8" width="120" height="24" fill="#D0DBFF"/>
</g>
<g filter="url(#filter6_i_888_73157)">
<rect x="120" y="84.8" width="120" height="24" fill="#F0F4FF"/>
</g>
<g filter="url(#filter7_i_888_73157)">
<path d="M120 108.8H240V128.8C240 131.009 238.209 132.8 236 132.8H120V108.8Z" fill="#D0DBFF"/>
</g>
<path fill-rule="evenodd" clip-rule="evenodd" d="M120.4 36.8H120V39.8573H120.4V36.8ZM120.4 41.6914H120V44.7487H120.4V41.6914ZM120 46.5834H120.4V49.6408H120V46.5834ZM120.4 51.475H120V54.5323H120.4V51.475ZM120 56.3671H120.4V59.4245H120V56.3671ZM120.4 61.2586H120V64.3159H120.4V61.2586ZM120 66.15H120.4V69.2074H120V66.15ZM120.4 71.0422H120V74.0995H120.4V71.0422ZM120 75.9336H120.4V78.9909H120V75.9336ZM120.4 80.8256H120V83.8829H120.4V80.8256ZM120 85.7172H120.4V88.7745H120V85.7172ZM120.4 90.6086H120V93.666H120.4V90.6086ZM120 95.5008H120.4V98.5581H120V95.5008ZM120.4 100.392H120V103.45H120.4V100.392ZM120 105.284H120.4V108.342H120V105.284ZM120.4 110.176H120V113.233H120.4V110.176ZM120 115.067H120.4V118.124H120V115.067ZM120.4 119.959H120V123.017H120.4V119.959ZM120 124.851H120.4V127.908H120V124.851ZM120.4 129.743H120V132.8H120.4V129.743Z" fill="#ADC0FD"/>
<path fill-rule="evenodd" clip-rule="evenodd" d="M140.3 36.8H139.9V39.8573H140.3V36.8ZM140.3 41.6914H139.9V44.7488H140.3V41.6914ZM139.9 46.5837H140.3V49.641H139.9V46.5837ZM140.3 51.475H139.9V54.5323H140.3V51.475ZM139.9 56.3671H140.3V59.4245H139.9V56.3671ZM140.3 61.2585H139.9V64.3158H140.3V61.2585ZM139.9 66.15H140.3V69.2074H139.9V66.15ZM140.3 71.0422H139.9V74.0995H140.3V71.0422ZM139.9 75.9336H140.3V78.991H139.9V75.9336ZM140.3 80.8259H139.9V83.8832H140.3V80.8259ZM139.9 85.7172H140.3V88.7745H139.9V85.7172ZM140.3 90.6087H139.9V93.666H140.3V90.6087ZM139.9 95.5007H140.3V98.558H139.9V95.5007ZM140.3 100.392H139.9V103.45H140.3V100.392ZM139.9 105.284H140.3V108.342H139.9V105.284ZM140.3 110.176H139.9V113.233H140.3V110.176ZM139.9 115.067H140.3V118.125H139.9V115.067ZM140.3 119.959H139.9V123.017H140.3V119.959ZM139.9 124.851H140.3V127.908H139.9V124.851ZM140.3 129.743H139.9V132.8H140.3V129.743Z" fill="#ADC0FD"/>
<path fill-rule="evenodd" clip-rule="evenodd" d="M160.199 36.8H159.799V39.8573H160.199V36.8ZM160.199 41.6914H159.799V44.7488H160.199V41.6914ZM159.799 46.5837H160.199V49.641H159.799V46.5837ZM160.199 51.475H159.799V54.5323H160.199V51.475ZM159.799 56.3671H160.199V59.4245H159.799V56.3671ZM160.199 61.2585H159.799V64.3158H160.199V61.2585ZM159.799 66.15H160.199V69.2074H159.799V66.15ZM160.199 71.0422H159.799V74.0995H160.199V71.0422ZM159.799 75.9336H160.199V78.991H159.799V75.9336ZM160.199 80.8259H159.799V83.8832H160.199V80.8259ZM159.799 85.7172H160.199V88.7745H159.799V85.7172ZM160.199 90.6087H159.799V93.666H160.199V90.6087ZM159.799 95.5007H160.199V98.558H159.799V95.5007ZM160.199 100.392H159.799V103.45H160.199V100.392ZM159.799 105.284H160.199V108.342H159.799V105.284ZM160.199 110.176H159.799V113.233H160.199V110.176ZM159.799 115.067H160.199V118.125H159.799V115.067ZM160.199 119.959H159.799V123.017H160.199V119.959ZM159.799 124.851H160.199V127.908H159.799V124.851ZM160.199 129.743H159.799V132.8H160.199V129.743Z" fill="#ADC0FD"/>
<path fill-rule="evenodd" clip-rule="evenodd" d="M180.097 36.8H179.697V39.8573H180.097V36.8ZM180.097 41.6914H179.697V44.7488H180.097V41.6914ZM179.697 46.5837H180.097V49.641H179.697V46.5837ZM180.097 51.475H179.697V54.5323H180.097V51.475ZM179.697 56.3671H180.097V59.4245H179.697V56.3671ZM180.097 61.2585H179.697V64.3158H180.097V61.2585ZM179.697 66.15H180.097V69.2074H179.697V66.15ZM180.097 71.0422H179.697V74.0995H180.097V71.0422ZM179.697 75.9336H180.097V78.991H179.697V75.9336ZM180.097 80.8259H179.697V83.8832H180.097V80.8259ZM179.697 85.7172H180.097V88.7745H179.697V85.7172ZM180.097 90.6087H179.697V93.666H180.097V90.6087ZM179.697 95.5007H180.097V98.558H179.697V95.5007ZM180.097 100.392H179.697V103.45H180.097V100.392ZM179.697 105.284H180.097V108.342H179.697V105.284ZM180.097 110.176H179.697V113.233H180.097V110.176ZM179.697 115.067H180.097V118.125H179.697V115.067ZM180.097 119.959H179.697V123.017H180.097V119.959ZM179.697 124.851H180.097V127.908H179.697V124.851ZM180.097 129.743H179.697V132.8H180.097V129.743Z" fill="#ADC0FD"/>
<path fill-rule="evenodd" clip-rule="evenodd" d="M199.996 36.8H199.596V39.8573H199.996V36.8ZM199.996 41.6914H199.596V44.7488H199.996V41.6914ZM199.596 46.5837H199.996V49.641H199.596V46.5837ZM199.996 51.475H199.596V54.5323H199.996V51.475ZM199.596 56.3671H199.996V59.4245H199.596V56.3671ZM199.996 61.2585H199.596V64.3158H199.996V61.2585ZM199.596 66.15H199.996V69.2074H199.596V66.15ZM199.996 71.0422H199.596V74.0995H199.996V71.0422ZM199.596 75.9336H199.996V78.991H199.596V75.9336ZM199.996 80.8259H199.596V83.8832H199.996V80.8259ZM199.596 85.7172H199.996V88.7745H199.596V85.7172ZM199.996 90.6087H199.596V93.666H199.996V90.6087ZM199.596 95.5007H199.996V98.558H199.596V95.5007ZM199.996 100.392H199.596V103.45H199.996V100.392ZM199.596 105.284H199.996V108.342H199.596V105.284ZM199.996 110.176H199.596V113.233H199.996V110.176ZM199.596 115.067H199.996V118.125H199.596V115.067ZM199.996 119.959H199.596V123.017H199.996V119.959ZM199.596 124.851H199.996V127.908H199.596V124.851ZM199.996 129.743H199.596V132.8H199.996V129.743Z" fill="#ADC0FD"/>
<path fill-rule="evenodd" clip-rule="evenodd" d="M219.896 36.8H219.496V39.8573H219.896V36.8ZM219.896 41.6914H219.496V44.7488H219.896V41.6914ZM219.496 46.5837H219.896V49.641H219.496V46.5837ZM219.896 51.475H219.496V54.5323H219.896V51.475ZM219.496 56.3671H219.896V59.4245H219.496V56.3671ZM219.896 61.2585H219.496V64.3158H219.896V61.2585ZM219.496 66.15H219.896V69.2074H219.496V66.15ZM219.896 71.0422H219.496V74.0995H219.896V71.0422ZM219.496 75.9336H219.896V78.991H219.496V75.9336ZM219.896 80.8259H219.496V83.8832H219.896V80.8259ZM219.496 85.7172H219.896V88.7745H219.496V85.7172ZM219.896 90.6087H219.496V93.666H219.896V90.6087ZM219.496 95.5007H219.896V98.558H219.496V95.5007ZM219.896 100.392H219.496V103.45H219.896V100.392ZM219.496 105.284H219.896V108.342H219.496V105.284ZM219.896 110.176H219.496V113.233H219.896V110.176ZM219.496 115.067H219.896V118.125H219.496V115.067ZM219.896 119.959H219.496V123.017H219.896V119.959ZM219.496 124.851H219.896V127.908H219.496V124.851ZM219.896 129.743H219.496V132.8H219.896V129.743Z" fill="#ADC0FD"/>
<rect x="2" y="-2" width="164" height="101.6" rx="2" transform="matrix(1 0 0 -1 36 128.8)" fill="white" stroke="#ADC0FD" stroke-width="4"/>
<mask id="path-25-inside-1_888_73157" fill="white">
<path d="M99.1992 122.8C99.1992 123.905 100.095 124.8 101.199 124.8H138.599C139.814 124.8 140.799 123.815 140.799 122.6V91.8003C140.799 90.5853 139.814 89.6003 138.599 89.6003H101.399C100.184 89.6003 99.1992 90.5853 99.1992 91.8003V122.8Z"/>
</mask>
<path d="M99.1992 122.8C99.1992 123.905 100.095 124.8 101.199 124.8H138.599C139.814 124.8 140.799 123.815 140.799 122.6V91.8003C140.799 90.5853 139.814 89.6003 138.599 89.6003H101.399C100.184 89.6003 99.1992 90.5853 99.1992 91.8003V122.8Z" fill="#F0F4FF" stroke="#D0DBFF" stroke-width="6" mask="url(#path-25-inside-1_888_73157)"/>
<path d="M153.5 106.778C153.534 106.761 153.568 106.744 153.6 106.727C153.633 106.744 153.667 106.761 153.701 106.778C154.312 107.084 155.19 107.54 156.247 108.132C158.367 109.32 161.18 111.044 163.982 113.196C166.793 115.356 169.531 117.899 171.552 120.71C173.572 123.52 174.8 126.489 174.8 129.551C174.8 132.817 173.988 135.011 172.815 136.534C171.631 138.071 169.933 139.117 167.834 139.814C163.998 141.089 159.329 141.064 155.165 141.042C154.634 141.04 154.112 141.037 153.6 141.037C153.089 141.037 152.566 141.04 152.036 141.042C147.871 141.064 143.203 141.089 139.367 139.814C137.268 139.117 135.57 138.071 134.386 136.534C133.213 135.011 132.4 132.817 132.4 129.551C132.4 126.489 133.629 123.52 135.649 120.71C137.67 117.899 140.408 115.356 143.219 113.196C146.021 111.044 148.834 109.32 150.953 108.132C152.011 107.54 152.889 107.084 153.5 106.778Z" fill="#F0F4FF" stroke="#7996F9" stroke-width="4"/>
<mask id="path-27-inside-2_888_73157" fill="white">
<path fill-rule="evenodd" clip-rule="evenodd" d="M145.6 100.457C145.6 100.457 148.585 101.151 149.581 101.383C149.789 101.431 150.006 101.411 150.202 101.326L152.806 100.2C153.313 99.9812 153.887 99.9812 154.394 100.2L156.997 101.326C157.194 101.411 157.41 101.431 157.619 101.383C158.26 101.234 159.725 100.893 160.688 100.669C161.201 100.55 161.604 100.87 161.57 101.397C161.196 107.093 157.398 109.257 153.6 109.257C149.6 109.257 145.567 106.857 145.6 100.457Z"/>
</mask>
<path fill-rule="evenodd" clip-rule="evenodd" d="M145.6 100.457C145.6 100.457 148.585 101.151 149.581 101.383C149.789 101.431 150.006 101.411 150.202 101.326L152.806 100.2C153.313 99.9812 153.887 99.9812 154.394 100.2L156.997 101.326C157.194 101.411 157.41 101.431 157.619 101.383C158.26 101.234 159.725 100.893 160.688 100.669C161.201 100.55 161.604 100.87 161.57 101.397C161.196 107.093 157.398 109.257 153.6 109.257C149.6 109.257 145.567 106.857 145.6 100.457Z" fill="#7996F9"/>
<path d="M145.6 100.457L148.6 100.472L148.6 100.465V100.457H145.6ZM153.6 109.257V106.257V109.257ZM161.57 101.397L164.563 101.593L161.57 101.397ZM156.997 101.326L158.188 98.5726L156.997 101.326ZM150.202 101.326L151.393 104.08L150.202 101.326ZM148.6 100.457C147.465 102.806 144.92 103.379 144.92 103.379C144.92 103.379 144.92 103.379 144.92 103.379C144.92 103.379 144.921 103.379 144.921 103.379C144.921 103.379 144.921 103.379 144.921 103.379C144.922 103.379 144.921 103.379 144.922 103.38C144.923 103.38 144.927 103.38 144.929 103.381C144.93 103.381 144.947 103.385 144.954 103.387C144.972 103.391 145.013 103.401 145.05 103.409C145.121 103.426 145.267 103.46 145.402 103.491C145.704 103.561 146.096 103.652 146.537 103.755C147.419 103.96 148.392 104.186 148.901 104.305L150.26 98.4608C149.694 98.3292 148.835 98.1293 147.896 97.911C147.491 97.8167 147.027 97.7088 146.761 97.6471C146.608 97.6113 146.499 97.5861 146.41 97.5652C146.364 97.5547 146.339 97.5488 146.313 97.5428C146.301 97.5399 146.295 97.5386 146.288 97.537C146.283 97.5359 146.285 97.5362 146.282 97.5355C146.28 97.535 146.282 97.5357 146.281 97.5353C146.28 97.5352 146.28 97.5352 146.28 97.5351C146.279 97.535 146.28 97.5351 146.279 97.535C146.279 97.535 146.279 97.535 146.279 97.535C146.279 97.535 143.734 98.1077 142.6 100.457H148.6ZM151.393 104.08L153.997 102.954L151.615 97.4467L149.012 98.5726L151.393 104.08ZM153.203 102.954L155.807 104.08L158.188 98.5726L155.584 97.4467L153.203 102.954ZM158.298 104.305C158.93 104.158 160.414 103.813 161.367 103.591L160.008 97.7471C159.041 97.9721 157.585 98.3106 156.939 98.4608L158.298 104.305ZM158.576 101.2C158.434 103.371 157.684 104.531 156.923 105.179C156.112 105.871 154.956 106.257 153.6 106.257V112.257C156.042 112.257 158.684 111.561 160.814 109.747C162.995 107.889 164.332 105.12 164.563 101.593L158.576 101.2ZM153.6 106.257C152.168 106.257 150.955 105.828 150.131 105.061C149.358 104.341 148.587 103.009 148.6 100.472L142.6 100.441C142.58 104.305 143.808 107.373 146.043 109.453C148.228 111.486 151.031 112.257 153.6 112.257V106.257ZM161.367 103.591C160.872 103.706 160.11 103.664 159.438 103.115C158.747 102.551 158.539 101.769 158.576 101.2L164.563 101.593C164.635 100.498 164.243 99.2924 163.231 98.4664C162.237 97.6555 161.017 97.5124 160.008 97.7471L161.367 103.591ZM155.807 104.08C156.587 104.417 157.459 104.5 158.298 104.305L156.939 98.4608C157.362 98.3624 157.801 98.4051 158.188 98.5726L155.807 104.08ZM153.997 102.954C153.743 103.063 153.456 103.063 153.203 102.954L155.584 97.4467C154.318 96.8991 152.882 96.8991 151.615 97.4467L153.997 102.954ZM148.901 104.305C149.741 104.5 150.613 104.417 151.393 104.08L149.012 98.5726C149.399 98.4051 149.838 98.3624 150.26 98.4608L148.901 104.305Z" fill="#7996F9" mask="url(#path-27-inside-2_888_73157)"/>
<path fill-rule="evenodd" clip-rule="evenodd" d="M153.6 134.4C158.902 134.4 163.2 130.46 163.2 125.6C163.2 120.74 158.902 116.8 153.6 116.8C148.298 116.8 144 120.74 144 125.6C144 130.46 148.298 134.4 153.6 134.4Z" fill="white"/>
<path fill-rule="evenodd" clip-rule="evenodd" d="M156.8 126.96C156.8 128.287 155.92 129.205 154.314 129.393V130.4H153.076V129.393C151.894 129.283 151.036 128.862 150.4 128.254L151.415 126.827C151.95 127.358 152.775 127.801 153.79 127.801C154.448 127.801 154.849 127.524 154.849 127.17C154.849 126.75 154.37 126.584 153.578 126.418C152.352 126.175 150.635 125.865 150.635 124.118C150.635 123.001 151.504 122.016 153.076 121.839V120.8H154.314V121.85C155.206 121.961 155.998 122.304 156.622 122.835L155.574 124.195C154.95 123.686 154.136 123.432 153.478 123.432C152.842 123.432 152.597 123.686 152.597 124.007C152.597 124.394 153.054 124.527 153.879 124.682C155.106 124.936 156.8 125.29 156.8 126.96Z" fill="#42D46C"/>
<mask id="mask1_888_73157" style="mask-type:alpha" maskUnits="userSpaceOnUse" x="150" y="120" width="7" height="11">
<path fill-rule="evenodd" clip-rule="evenodd" d="M156.8 126.96C156.8 128.287 155.92 129.205 154.314 129.393V130.4H153.076V129.393C151.894 129.283 151.036 128.862 150.4 128.254L151.415 126.827C151.95 127.358 152.775 127.801 153.79 127.801C154.448 127.801 154.849 127.524 154.849 127.17C154.849 126.75 154.37 126.584 153.578 126.418C152.352 126.175 150.635 125.865 150.635 124.118C150.635 123.001 151.504 122.016 153.076 121.839V120.8H154.314V121.85C155.206 121.961 155.998 122.304 156.622 122.835L155.574 124.195C154.95 123.686 154.136 123.432 153.478 123.432C152.842 123.432 152.597 123.686 152.597 124.007C152.597 124.394 153.054 124.527 153.879 124.682C155.106 124.936 156.8 125.29 156.8 126.96Z" fill="white"/>
</mask>
<g mask="url(#mask1_888_73157)">
</g>
<path d="M174.4 147.2C174.4 146.316 175.117 145.6 176 145.6H192C192.884 145.6 193.6 146.316 193.6 147.2C193.6 148.084 192.884 148.8 192 148.8H176C175.117 148.8 174.4 148.084 174.4 147.2Z" fill="#ADC0FD"/>
<path d="M172.38 120.106C173.208 119.64 173.902 119.277 174.399 119.025C174.896 119.277 175.591 119.64 176.419 120.106C178.163 121.087 180.476 122.51 182.778 124.284C185.089 126.065 187.327 128.154 188.973 130.452C190.619 132.749 191.599 135.148 191.599 137.6C191.599 140.255 190.942 142.001 190.025 143.195C189.099 144.403 187.76 145.239 186.068 145.803C182.952 146.841 179.152 146.822 175.697 146.804C175.258 146.802 174.825 146.8 174.399 146.8C173.974 146.8 173.541 146.802 173.102 146.804C169.647 146.822 165.846 146.841 162.731 145.803C161.038 145.239 159.7 144.403 158.773 143.195C157.857 142.001 157.199 140.255 157.199 137.6C157.199 135.148 158.18 132.749 159.825 130.452C161.471 128.154 163.709 126.065 166.02 124.284C168.322 122.51 170.636 121.087 172.38 120.106Z" fill="#F0F4FF" stroke="#7996F9" stroke-width="4"/>
<mask id="path-34-inside-3_888_73157" fill="white">
<path fill-rule="evenodd" clip-rule="evenodd" d="M166.401 113.329C166.401 113.329 169.386 114.023 170.381 114.255C170.59 114.303 170.807 114.283 171.003 114.198L173.607 113.072C174.113 112.853 174.688 112.853 175.194 113.072L177.798 114.198C177.995 114.283 178.211 114.303 178.42 114.255C179.061 114.106 180.526 113.765 181.488 113.541C182.002 113.421 182.405 113.742 182.37 114.269C181.996 119.965 178.198 122.129 174.401 122.129C170.401 122.129 166.368 119.729 166.401 113.329Z"/>
</mask>
<path fill-rule="evenodd" clip-rule="evenodd" d="M166.401 113.329C166.401 113.329 169.386 114.023 170.381 114.255C170.59 114.303 170.807 114.283 171.003 114.198L173.607 113.072C174.113 112.853 174.688 112.853 175.194 113.072L177.798 114.198C177.995 114.283 178.211 114.303 178.42 114.255C179.061 114.106 180.526 113.765 181.488 113.541C182.002 113.421 182.405 113.742 182.37 114.269C181.996 119.965 178.198 122.129 174.401 122.129C170.401 122.129 166.368 119.729 166.401 113.329Z" fill="#F0F4FF"/>
<path d="M166.401 113.329L169.401 113.344L169.401 113.337V113.329H166.401ZM174.401 122.129V119.129V122.129ZM182.37 114.269L179.377 114.072L182.37 114.269ZM177.798 114.198L178.989 111.444L177.798 114.198ZM171.003 114.198L172.194 116.952L171.003 114.198ZM169.401 113.329C168.266 115.678 165.721 116.251 165.721 116.251C165.721 116.251 165.721 116.251 165.721 116.251C165.721 116.251 165.721 116.251 165.721 116.251C165.721 116.251 165.722 116.251 165.722 116.251C165.723 116.251 165.722 116.251 165.723 116.251C165.724 116.252 165.727 116.252 165.73 116.253C165.731 116.253 165.748 116.257 165.755 116.259C165.773 116.263 165.814 116.272 165.851 116.281C165.922 116.298 166.068 116.332 166.203 116.363C166.505 116.433 166.897 116.524 167.338 116.627C168.22 116.832 169.193 117.058 169.702 117.177L171.061 111.333C170.495 111.201 169.636 111.001 168.697 110.783C168.292 110.689 167.828 110.581 167.562 110.519C167.408 110.483 167.3 110.458 167.21 110.437C167.165 110.427 167.139 110.421 167.114 110.415C167.101 110.412 167.096 110.41 167.089 110.409C167.084 110.408 167.085 110.408 167.082 110.407C167.08 110.407 167.083 110.407 167.081 110.407C167.081 110.407 167.081 110.407 167.081 110.407C167.08 110.407 167.081 110.407 167.08 110.407C167.08 110.407 167.08 110.407 167.08 110.407C167.08 110.407 164.535 110.979 163.401 113.329H169.401ZM172.194 116.952L174.798 115.826L172.416 110.319L169.812 111.444L172.194 116.952ZM174.004 115.826L176.607 116.952L178.989 111.444L176.385 110.319L174.004 115.826ZM179.099 117.177C179.731 117.03 181.215 116.685 182.168 116.463L180.809 110.619C179.842 110.844 178.386 111.182 177.74 111.333L179.099 117.177ZM179.377 114.072C179.234 116.242 178.485 117.403 177.724 118.051C176.912 118.743 175.756 119.129 174.401 119.129V125.129C176.843 125.129 179.485 124.433 181.615 122.619C183.796 120.761 185.132 117.991 185.364 114.465L179.377 114.072ZM174.401 119.129C172.969 119.129 171.756 118.7 170.932 117.933C170.159 117.213 169.387 115.881 169.401 113.344L163.401 113.313C163.381 117.177 164.609 120.245 166.844 122.325C169.028 124.358 171.832 125.129 174.401 125.129V119.129ZM182.168 116.463C181.673 116.578 180.911 116.536 180.238 115.987C179.547 115.423 179.34 114.641 179.377 114.072L185.364 114.465C185.436 113.37 185.044 112.164 184.032 111.338C183.038 110.527 181.818 110.384 180.809 110.619L182.168 116.463ZM176.607 116.952C177.388 117.289 178.26 117.372 179.099 117.177L177.74 111.333C178.163 111.234 178.601 111.277 178.989 111.444L176.607 116.952ZM174.798 115.826C174.544 115.935 174.257 115.935 174.004 115.826L176.385 110.319C175.119 109.771 173.682 109.771 172.416 110.319L174.798 115.826ZM169.702 117.177C170.542 117.372 171.414 117.289 172.194 116.952L169.812 111.444C170.2 111.277 170.638 111.234 171.061 111.333L169.702 117.177Z" fill="#7996F9" mask="url(#path-34-inside-3_888_73157)"/>
<path fill-rule="evenodd" clip-rule="evenodd" d="M174.399 143.2C179.701 143.2 183.999 139.26 183.999 134.4C183.999 129.54 179.701 125.6 174.399 125.6C169.097 125.6 164.799 129.54 164.799 134.4C164.799 139.26 169.097 143.2 174.399 143.2Z" fill="white"/>
<path fill-rule="evenodd" clip-rule="evenodd" d="M177.601 135.761C177.601 137.088 176.72 138.006 175.115 138.194V139.201H173.877V138.194C172.695 138.084 171.837 137.663 171.201 137.055L172.216 135.628C172.751 136.159 173.576 136.602 174.591 136.602C175.249 136.602 175.65 136.325 175.65 135.971C175.65 135.551 175.171 135.385 174.379 135.219C173.152 134.976 171.435 134.666 171.435 132.919C171.435 131.802 172.305 130.817 173.877 130.64V129.601H175.115V130.651C176.007 130.762 176.798 131.105 177.423 131.636L176.375 132.996C175.75 132.487 174.936 132.233 174.279 132.233C173.643 132.233 173.398 132.487 173.398 132.808C173.398 133.195 173.855 133.328 174.68 133.483C175.906 133.737 177.601 134.091 177.601 135.761Z" fill="#42D46C"/>
<mask id="mask2_888_73157" style="mask-type:alpha" maskUnits="userSpaceOnUse" x="171" y="129" width="7" height="11">
<path fill-rule="evenodd" clip-rule="evenodd" d="M177.601 135.761C177.601 137.088 176.72 138.006 175.115 138.194V139.201H173.877V138.194C172.695 138.084 171.837 137.663 171.201 137.055L172.216 135.628C172.751 136.159 173.576 136.602 174.591 136.602C175.249 136.602 175.65 136.325 175.65 135.971C175.65 135.551 175.171 135.385 174.379 135.219C173.152 134.976 171.435 134.666 171.435 132.919C171.435 131.802 172.305 130.817 173.877 130.64V129.601H175.115V130.651C176.007 130.762 176.798 131.105 177.423 131.636L176.375 132.996C175.75 132.487 174.936 132.233 174.279 132.233C173.643 132.233 173.398 132.487 173.398 132.808C173.398 133.195 173.855 133.328 174.68 133.483C175.906 133.737 177.601 134.091 177.601 135.761Z" fill="white"/>
</mask>
<g mask="url(#mask2_888_73157)">
</g>
<path d="M179.201 108.823C181.305 107.241 184.313 105.625 188.471 106.212C188.999 106.287 192.06 107.158 190.803 108.823C188.788 111.495 185.136 106.488 191.559 105.625C192.69 105.474 194.507 106.012 195.201 107.04" stroke="#ADC0FD" stroke-width="2" stroke-linecap="round" stroke-linejoin="round"/>
<path d="M196 109.2C196 108.537 196.537 108 197.2 108C197.863 108 198.4 108.537 198.4 109.2C198.4 109.863 197.863 110.4 197.2 110.4C196.537 110.4 196 109.863 196 109.2Z" fill="#ADC0FD"/>
<path d="M195.199 147.2C195.199 146.316 195.916 145.6 196.799 145.6H199.999C200.883 145.6 201.599 146.316 201.599 147.2C201.599 148.084 200.883 148.8 199.999 148.8H196.799C195.916 148.8 195.199 148.084 195.199 147.2Z" fill="#ADC0FD"/>
<path d="M148 141.6C148 140.716 147.284 140 146.4 140H130.4C129.516 140 128.8 140.716 128.8 141.6C128.8 142.484 129.516 143.2 130.4 143.2H146.4C147.284 143.2 148 142.484 148 141.6Z" fill="#ADC0FD"/>
<path d="M127.201 141.6C127.201 140.716 126.485 140 125.601 140C124.718 140 124.001 140.716 124.001 141.6C124.001 142.484 124.718 143.2 125.601 143.2C126.485 143.2 127.201 142.484 127.201 141.6Z" fill="#ADC0FD"/>
<path d="M36 40.0001H204V31.2001C204 28.9909 202.209 27.2001 200 27.2001H40C37.7909 27.2001 36 28.9909 36 31.2001V40.0001Z" fill="#D0DBFF"/>
<rect width="17.6" height="4.8" rx="1" transform="matrix(1 0 0 -1 73.5996 64.0002)" fill="#7996F9"/>
<mask id="path-46-inside-4_888_73157" fill="white">
<path d="M56 86.0002C56 87.1048 56.8954 88.0002 58 88.0002H95.4C96.615 88.0002 97.6 87.0152 97.6 85.8002V55.0002C97.6 53.7852 96.615 52.8002 95.4 52.8002H58.2C56.985 52.8002 56 53.7852 56 55.0002V86.0002Z"/>
</mask>
<path d="M56 86.0002C56 87.1048 56.8954 88.0002 58 88.0002H95.4C96.615 88.0002 97.6 87.0152 97.6 85.8002V55.0002C97.6 53.7852 96.615 52.8002 95.4 52.8002H58.2C56.985 52.8002 56 53.7852 56 55.0002V86.0002Z" fill="#F0F4FF" stroke="#D0DBFF" stroke-width="6" mask="url(#path-46-inside-4_888_73157)"/>
<mask id="path-47-inside-5_888_73157" fill="white">
<path d="M56 122.8C56 123.905 56.8954 124.8 58 124.8H95.4C96.615 124.8 97.6 123.815 97.6 122.6V91.8003C97.6 90.5853 96.615 89.6003 95.4 89.6003H58.2C56.985 89.6003 56 90.5853 56 91.8003V122.8Z"/>
</mask>
<path d="M56 122.8C56 123.905 56.8954 124.8 58 124.8H95.4C96.615 124.8 97.6 123.815 97.6 122.6V91.8003C97.6 90.5853 96.615 89.6003 95.4 89.6003H58.2C56.985 89.6003 56 90.5853 56 91.8003V122.8Z" fill="#F0F4FF" stroke="#D0DBFF" stroke-width="6" mask="url(#path-47-inside-5_888_73157)"/>
<rect width="17.6" height="4.8" rx="1" transform="matrix(1 0 0 -1 62.4004 64.0002)" fill="#ADC0FD"/>
<path fill-rule="evenodd" clip-rule="evenodd" d="M64.8004 80.8842L63.5481 81.5744C63.445 81.6311 63.3172 81.5904 63.2625 81.4834C63.2407 81.4407 63.2331 81.3916 63.2409 81.3439L63.4806 79.879L62.4635 78.8397C62.3803 78.7548 62.3792 78.6159 62.461 78.5296C62.4933 78.4955 62.5354 78.4734 62.5809 78.4664L63.9847 78.2526L64.6107 76.923C64.6619 76.8142 64.7884 76.7691 64.8931 76.8223C64.9353 76.8438 64.9695 76.8792 64.9901 76.923L65.6161 78.2526L67.0198 78.4664C67.1352 78.484 67.2151 78.5954 67.1981 78.7152C67.1915 78.7625 67.1701 78.8062 67.1373 78.8397L66.1202 79.879L66.3599 81.3439C66.3794 81.4633 66.302 81.5766 66.1871 81.5968C66.1411 81.605 66.0939 81.597 66.0527 81.5744L64.8004 80.8842Z" fill="#FFC72C"/>
<path fill-rule="evenodd" clip-rule="evenodd" d="M70.8004 80.8842L69.5481 81.5744C69.445 81.6311 69.3172 81.5904 69.2625 81.4834C69.2407 81.4407 69.2331 81.3916 69.2409 81.3439L69.4806 79.879L68.4635 78.8397C68.3803 78.7548 68.3792 78.6159 68.461 78.5296C68.4933 78.4955 68.5354 78.4734 68.5809 78.4664L69.9847 78.2526L70.6107 76.923C70.6619 76.8142 70.7884 76.7691 70.8931 76.8223C70.9353 76.8438 70.9695 76.8792 70.9901 76.923L71.6161 78.2526L73.0198 78.4664C73.1352 78.484 73.2151 78.5954 73.1981 78.7152C73.1915 78.7625 73.1701 78.8062 73.1373 78.8397L72.1202 79.879L72.3599 81.3439C72.3794 81.4633 72.302 81.5766 72.1871 81.5968C72.1411 81.605 72.0939 81.597 72.0527 81.5744L70.8004 80.8842Z" fill="#FFC72C"/>
<path fill-rule="evenodd" clip-rule="evenodd" d="M76.8004 80.8842L75.5481 81.5744C75.445 81.6311 75.3172 81.5904 75.2625 81.4834C75.2407 81.4407 75.2331 81.3916 75.2409 81.3439L75.4806 79.879L74.4635 78.8397C74.3803 78.7548 74.3792 78.6159 74.461 78.5296C74.4933 78.4955 74.5354 78.4734 74.5809 78.4664L75.9847 78.2526L76.6107 76.923C76.6619 76.8142 76.7884 76.7691 76.8931 76.8223C76.9353 76.8438 76.9695 76.8792 76.9901 76.923L77.6161 78.2526L79.0198 78.4664C79.1352 78.484 79.2151 78.5954 79.1981 78.7152C79.1915 78.7625 79.1701 78.8062 79.1373 78.8397L78.1202 79.879L78.3599 81.3439C78.3794 81.4633 78.302 81.5766 78.1871 81.5968C78.1411 81.605 78.0939 81.597 78.0527 81.5744L76.8004 80.8842Z" fill="#FFC72C"/>
<path fill-rule="evenodd" clip-rule="evenodd" d="M82.8004 80.8842L81.5481 81.5744C81.445 81.6311 81.3172 81.5904 81.2625 81.4834C81.2407 81.4407 81.2331 81.3916 81.2409 81.3439L81.4806 79.879L80.4635 78.8397C80.3803 78.7548 80.3792 78.6159 80.461 78.5296C80.4933 78.4955 80.5354 78.4734 80.5809 78.4664L81.9847 78.2526L82.6107 76.923C82.6619 76.8142 82.7884 76.7691 82.8931 76.8223C82.9353 76.8438 82.9695 76.8792 82.9901 76.923L83.6161 78.2526L85.0198 78.4664C85.1352 78.484 85.2151 78.5954 85.1981 78.7152C85.1915 78.7625 85.1701 78.8062 85.1373 78.8397L84.1202 79.879L84.3599 81.3439C84.3794 81.4633 84.302 81.5766 84.1871 81.5968C84.1411 81.605 84.0939 81.597 84.0527 81.5744L82.8004 80.8842Z" fill="#FFC72C"/>
<path fill-rule="evenodd" clip-rule="evenodd" d="M88.8004 80.8842L87.5481 81.5744C87.445 81.6311 87.3172 81.5904 87.2625 81.4834C87.2407 81.4407 87.2331 81.3916 87.2409 81.3439L87.4806 79.879L86.4635 78.8397C86.3803 78.7548 86.3792 78.6159 86.461 78.5296C86.4933 78.4955 86.5354 78.4734 86.5809 78.4664L87.9847 78.2526L88.6107 76.923C88.6619 76.8142 88.7884 76.7691 88.8931 76.8223C88.9353 76.8438 88.9695 76.8792 88.9901 76.923L89.6161 78.2526L91.0198 78.4664C91.1352 78.484 91.2151 78.5954 91.1981 78.7152C91.1915 78.7625 91.1701 78.8062 91.1373 78.8397L90.1202 79.879L90.3599 81.3439C90.3794 81.4633 90.302 81.5766 90.1871 81.5968C90.1411 81.605 90.0939 81.597 90.0527 81.5744L88.8004 80.8842Z" fill="#FFC72C"/>
<rect width="17.6" height="4.8" rx="1" transform="matrix(1 0 0 -1 62.4004 100.8)" fill="#ADC0FD"/>
<path fill-rule="evenodd" clip-rule="evenodd" d="M62.3984 110.257L63.1387 109.353C63.5752 109.796 64.1636 110.031 64.8279 110.031C65.5776 110.031 66.0047 109.607 66.0047 109.089C66.0047 108.514 65.5871 108.127 64.8659 108.127C64.3439 108.127 63.9169 108.287 63.5373 108.646L62.5977 108.391V104.8H66.9442V105.95H63.9169V107.524C64.249 107.232 64.7615 107.006 65.3404 107.006C66.4128 107.006 67.3713 107.76 67.3713 109.032C67.3713 110.361 66.3653 111.2 64.8374 111.2C63.7365 111.2 62.9394 110.842 62.3984 110.257ZM68.1699 110.257L68.9102 109.353C69.3467 109.796 69.9351 110.031 70.5994 110.031C71.3491 110.031 71.7762 109.607 71.7762 109.089C71.7762 108.514 71.3586 108.127 70.6374 108.127C70.1154 108.127 69.6883 108.287 69.3087 108.646L68.3692 108.391V104.8H72.7157V105.95H69.6883V107.524C70.0205 107.232 70.533 107.006 71.1119 107.006C72.1843 107.006 73.1428 107.76 73.1428 109.032C73.1428 110.361 72.1368 111.2 70.6089 111.2C69.508 111.2 68.7109 110.842 68.1699 110.257ZM79.6052 111.087V108.316C79.6052 107.684 79.2731 107.486 78.7511 107.486C78.2861 107.486 77.916 107.75 77.7072 108.024V111.087H76.502V104.8H77.7072V107.128C78.0014 106.779 78.5708 106.421 79.3205 106.421C80.3265 106.421 80.8105 106.968 80.8105 107.854V111.087H79.6052ZM82.3984 111.056V106.504H83.6037V107.126C83.9264 106.721 84.4958 106.4 85.0652 106.4V107.569C84.9798 107.55 84.8659 107.541 84.733 107.541C84.3344 107.541 83.803 107.757 83.6037 108.05V111.056H82.3984Z" fill="#3F5663"/>
<path fill-rule="evenodd" clip-rule="evenodd" d="M62.3984 72.6714L63.1556 71.7797C63.6021 72.2163 64.204 72.4485 64.8835 72.4485C65.6504 72.4485 66.0872 72.0305 66.0872 71.5196C66.0872 70.953 65.6601 70.5722 64.9223 70.5722C64.3884 70.5722 63.9516 70.7301 63.5633 71.083L62.6023 70.8323V67.2932H67.0483V68.4264H63.9516V69.9777C64.2914 69.6897 64.8156 69.4668 65.4077 69.4668C66.5046 69.4668 67.4851 70.2099 67.4851 71.4639C67.4851 72.7736 66.4561 73.6003 64.8932 73.6003C63.7672 73.6003 62.9518 73.2473 62.3984 72.6714ZM68.2812 72.8386C68.2812 72.4299 68.6404 72.0862 69.0675 72.0862C69.4947 72.0862 69.8538 72.4299 69.8538 72.8386C69.8538 73.2473 69.4947 73.591 69.0675 73.591C68.6404 73.591 68.2812 73.2473 68.2812 72.8386ZM70.6387 70.3955C70.6387 68.7978 71.4638 67.2001 73.3179 67.2001C75.1623 67.2001 75.9971 68.7978 75.9971 70.3955C75.9971 71.9932 75.1623 73.6001 73.3179 73.6001C71.4638 73.6001 70.6387 71.9932 70.6387 70.3955ZM74.5901 70.3955C74.5901 69.253 74.2407 68.3705 73.3185 68.3705C72.3866 68.3705 72.0371 69.253 72.0371 70.3955C72.0371 71.538 72.3866 72.4298 73.3185 72.4298C74.2407 72.4298 74.5901 71.538 74.5901 70.3955Z" fill="#3F5663"/>
<mask id="path-57-inside-6_888_73157" fill="white">
<path d="M99.1992 86.0002C99.1992 87.1048 100.095 88.0002 101.199 88.0002H138.599C139.814 88.0002 140.799 87.0152 140.799 85.8002V55.0002C140.799 53.7852 139.814 52.8002 138.599 52.8002H101.399C100.184 52.8002 99.1992 53.7852 99.1992 55.0002V86.0002Z"/>
</mask>
<path d="M99.1992 86.0002C99.1992 87.1048 100.095 88.0002 101.199 88.0002H138.599C139.814 88.0002 140.799 87.0152 140.799 85.8002V55.0002C140.799 53.7852 139.814 52.8002 138.599 52.8002H101.399C100.184 52.8002 99.1992 53.7852 99.1992 55.0002V86.0002Z" fill="#F0F4FF" stroke="#D0DBFF" stroke-width="6" mask="url(#path-57-inside-6_888_73157)"/>
<rect width="17.6" height="4.8" rx="1" transform="matrix(1 0 0 -1 105.6 64.0002)" fill="#ADC0FD"/>
<mask id="path-59-inside-7_888_73157" fill="white">
<path d="M142.4 86.0002C142.4 87.1048 143.296 88.0002 144.4 88.0002H181.8C183.015 88.0002 184 87.0152 184 85.8002V55.0002C184 53.7852 183.015 52.8002 181.8 52.8002H144.6C143.385 52.8002 142.4 53.7852 142.4 55.0002V86.0002Z"/>
</mask>
<path d="M142.4 86.0002C142.4 87.1048 143.296 88.0002 144.4 88.0002H181.8C183.015 88.0002 184 87.0152 184 85.8002V55.0002C184 53.7852 183.015 52.8002 181.8 52.8002H144.6C143.385 52.8002 142.4 53.7852 142.4 55.0002V86.0002Z" fill="#F0F4FF" stroke="#D0DBFF" stroke-width="6" mask="url(#path-59-inside-7_888_73157)"/>
<rect width="27.2" height="2.4" transform="matrix(-1 0 0 1 181.6 85.6)" fill="white"/>
<rect width="3.2" height="2.4" rx="1.2" transform="matrix(-1 0 0 1 177.6 85.6)" fill="#ADC0FD"/>
<rect width="4.8" height="2.4" rx="1.2" transform="matrix(-1 0 0 1 172.799 85.6)" fill="#ADC0FD"/>
<rect width="20" height="2.4" rx="1.2" transform="matrix(-1 0 0 1 166.4 85.6)" fill="#ADC0FD"/>
<path fill-rule="evenodd" clip-rule="evenodd" d="M130.873 69.0789C131.06 68.9184 131.337 68.9184 131.524 69.0789L132.972 70.3204C133.325 70.6225 133.111 71.2 132.647 71.2H129.75C129.286 71.2 129.072 70.6225 129.425 70.3204L130.873 69.0789Z" fill="#42D46C"/>
<path d="M130.398 71.2001H131.998V72.7001C131.998 72.9763 131.775 73.2001 131.498 73.2001H130.898C130.622 73.2001 130.398 72.9763 130.398 72.7001V71.2001Z" fill="#42D46C"/>
<path fill-rule="evenodd" clip-rule="evenodd" d="M107.403 73.4889V68.9931L106.365 70.0427L105.6 69.2531L107.583 67.2932H108.754V73.4889H107.403ZM109.697 70.3955C109.697 68.7978 110.5 67.2001 112.304 67.2001C114.098 67.2001 114.91 68.7978 114.91 70.3955C114.91 71.9932 114.098 73.6001 112.304 73.6001C110.5 73.6001 109.697 71.9932 109.697 70.3955ZM113.542 70.3955C113.542 69.253 113.202 68.3705 112.305 68.3705C111.399 68.3705 111.059 69.253 111.059 70.3955C111.059 71.538 111.399 72.4298 112.305 72.4298C113.202 72.4298 113.542 71.538 113.542 70.3955ZM115.553 70.3955C115.553 68.7978 116.355 67.2001 118.159 67.2001C119.953 67.2001 120.766 68.7978 120.766 70.3955C120.766 71.9932 119.953 73.6001 118.159 73.6001C116.355 73.6001 115.553 71.9932 115.553 70.3955ZM119.398 70.3955C119.398 69.253 119.058 68.3705 118.161 68.3705C117.254 68.3705 116.914 69.253 116.914 70.3955C116.914 71.538 117.254 72.4298 118.161 72.4298C119.058 72.4298 119.398 71.538 119.398 70.3955ZM121.332 68.7607C121.332 67.8875 121.965 67.2001 122.928 67.2001C123.901 67.2001 124.533 67.8875 124.533 68.7607C124.533 69.6245 123.901 70.284 122.928 70.284C121.965 70.284 121.332 69.6245 121.332 68.7607ZM122.316 73.4888L126.339 67.2932H127.057L123.025 73.4888H122.316ZM123.674 68.7605C123.674 68.2403 123.362 67.9338 122.928 67.9338C122.503 67.9338 122.182 68.2403 122.182 68.7605C122.182 69.2435 122.503 69.5593 122.928 69.5593C123.362 69.5593 123.674 69.2435 123.674 68.7605ZM124.799 72.0675C124.799 71.1944 125.432 70.507 126.395 70.507C127.358 70.507 128 71.1944 128 72.0675C128 72.9314 127.358 73.6002 126.395 73.6002C125.432 73.6002 124.799 72.9314 124.799 72.0675ZM127.15 72.0676C127.15 71.5567 126.829 71.2409 126.394 71.2409C125.96 71.2409 125.648 71.5567 125.648 72.0676C125.648 72.5692 125.96 72.8757 126.394 72.8757C126.829 72.8757 127.15 72.5692 127.15 72.0676Z" fill="#3F5663"/>
<rect width="17.6" height="4.8" rx="1" transform="matrix(1 0 0 -1 148.799 64.0002)" fill="#ADC0FD"/>
<path fill-rule="evenodd" clip-rule="evenodd" d="M174.076 69.0789C174.263 68.9184 174.54 68.9184 174.727 69.0789L176.175 70.3204C176.528 70.6225 176.314 71.2 175.85 71.2H172.953C172.489 71.2 172.275 70.6225 172.628 70.3204L174.076 69.0789Z" fill="#42D46C"/>
<path d="M173.602 71.2001H175.202V72.7001C175.202 72.9763 174.978 73.2001 174.702 73.2001H174.102C173.825 73.2001 173.602 72.9763 173.602 72.7001V71.2001Z" fill="#42D46C"/>
<path fill-rule="evenodd" clip-rule="evenodd" d="M150.604 73.4889V68.9931L149.566 70.0427L148.801 69.2531L150.784 67.2932H151.955V73.4889H150.604ZM152.898 70.3955C152.898 68.7978 153.701 67.2001 155.505 67.2001C157.299 67.2001 158.111 68.7978 158.111 70.3955C158.111 71.9932 157.299 73.6001 155.505 73.6001C153.701 73.6001 152.898 71.9932 152.898 70.3955ZM156.743 70.3955C156.743 69.253 156.403 68.3705 155.506 68.3705C154.6 68.3705 154.26 69.253 154.26 70.3955C154.26 71.538 154.6 72.4298 155.506 72.4298C156.403 72.4298 156.743 71.538 156.743 70.3955ZM158.754 70.3955C158.754 68.7978 159.557 67.2001 161.36 67.2001C163.155 67.2001 163.967 68.7978 163.967 70.3955C163.967 71.9932 163.155 73.6001 161.36 73.6001C159.557 73.6001 158.754 71.9932 158.754 70.3955ZM162.599 70.3955C162.599 69.253 162.259 68.3705 161.362 68.3705C160.455 68.3705 160.115 69.253 160.115 70.3955C160.115 71.538 160.455 72.4298 161.362 72.4298C162.259 72.4298 162.599 71.538 162.599 70.3955ZM164.533 68.7607C164.533 67.8875 165.166 67.2001 166.129 67.2001C167.102 67.2001 167.735 67.8875 167.735 68.7607C167.735 69.6245 167.102 70.284 166.129 70.284C165.166 70.284 164.533 69.6245 164.533 68.7607ZM165.518 73.4888L169.541 67.2932H170.258L166.226 73.4888H165.518ZM166.875 68.7605C166.875 68.2403 166.563 67.9338 166.129 67.9338C165.704 67.9338 165.383 68.2403 165.383 68.7605C165.383 69.2435 165.704 69.5593 166.129 69.5593C166.563 69.5593 166.875 69.2435 166.875 68.7605ZM168 72.0675C168 71.1944 168.633 70.507 169.596 70.507C170.559 70.507 171.201 71.1944 171.201 72.0675C171.201 72.9314 170.559 73.6002 169.596 73.6002C168.633 73.6002 168 72.9314 168 72.0675ZM170.351 72.0676C170.351 71.5567 170.03 71.2409 169.596 71.2409C169.161 71.2409 168.85 71.5567 168.85 72.0676C168.85 72.5692 169.161 72.8757 169.596 72.8757C170.03 72.8757 170.351 72.5692 170.351 72.0676Z" fill="#3F5663"/>
<rect width="25.6" height="4.8" rx="1" transform="matrix(1 0 0 -1 105.6 81.6)" fill="#D0DBFF"/>
<rect width="25.6" height="4.8" rx="1" transform="matrix(1 0 0 -1 148.799 81.6)" fill="#D0DBFF"/>
<rect width="17.6" height="4.8" rx="1" transform="matrix(1 0 0 -1 105.6 100.8)" fill="#ADC0FD"/>
<path fill-rule="evenodd" clip-rule="evenodd" d="M105.602 109.067L106.151 108.385C106.492 108.737 107.034 108.942 107.516 108.942C108.117 108.942 108.451 108.685 108.451 108.312C108.451 107.916 108.147 107.732 107.457 107.732C107.249 107.732 106.915 107.732 106.841 107.74V106.831C106.93 106.838 107.264 106.838 107.457 106.838C108.006 106.838 108.369 106.662 108.369 106.296C108.369 105.907 107.969 105.709 107.449 105.709C106.967 105.709 106.536 105.892 106.188 106.222L105.668 105.577C106.069 105.13 106.692 104.8 107.56 104.8C108.718 104.8 109.43 105.313 109.43 106.127C109.43 106.743 108.896 107.146 108.347 107.241C108.852 107.293 109.505 107.681 109.505 108.414C109.505 109.257 108.74 109.851 107.553 109.851C106.64 109.851 105.965 109.507 105.602 109.067ZM114.639 109.763V109.316C114.357 109.661 113.964 109.851 113.533 109.851C112.628 109.851 111.945 109.177 111.945 107.996C111.945 106.838 112.621 106.134 113.533 106.134C113.956 106.134 114.357 106.318 114.639 106.677V104.873H115.589V109.763H114.639ZM114.639 108.619V107.366C114.476 107.131 114.142 106.963 113.823 106.963C113.289 106.963 112.918 107.38 112.918 107.996C112.918 108.605 113.289 109.023 113.823 109.023C114.142 109.023 114.476 108.854 114.639 108.619ZM118.677 109.763V109.397C118.432 109.683 118.009 109.851 117.542 109.851C116.97 109.851 116.295 109.47 116.295 108.678C116.295 107.85 116.97 107.549 117.542 107.549C118.016 107.549 118.439 107.696 118.677 107.982V107.491C118.677 107.131 118.365 106.897 117.89 106.897C117.504 106.897 117.148 107.036 116.844 107.315L116.488 106.692C116.926 106.31 117.49 106.134 118.053 106.134C118.87 106.134 119.619 106.457 119.619 107.476V109.763H118.677ZM118.676 108.913V108.473C118.52 108.267 118.224 108.165 117.919 108.165C117.548 108.165 117.244 108.363 117.244 108.7C117.244 109.03 117.548 109.22 117.919 109.22C118.224 109.22 118.52 109.118 118.676 108.913ZM120.57 110.313C120.651 110.349 120.778 110.371 120.867 110.371C121.111 110.371 121.275 110.305 121.364 110.115L121.497 109.814L120.043 106.222H121.052L121.987 108.685L122.922 106.222H123.939L122.254 110.342C121.987 111.009 121.512 111.185 120.896 111.2C120.785 111.2 120.548 111.178 120.429 111.148L120.57 110.313ZM124.049 109.301L124.457 108.649C124.717 108.891 125.251 109.133 125.696 109.133C126.104 109.133 126.297 108.994 126.297 108.774C126.297 108.524 125.985 108.436 125.577 108.356C124.962 108.238 124.168 108.092 124.168 107.249C124.168 106.655 124.694 106.134 125.637 106.134C126.245 106.134 126.727 106.34 127.076 106.618L126.705 107.256C126.49 107.029 126.082 106.846 125.644 106.846C125.303 106.846 125.08 106.97 125.08 107.175C125.08 107.395 125.362 107.476 125.763 107.557C126.379 107.674 127.202 107.835 127.202 108.715C127.202 109.367 126.646 109.851 125.652 109.851C125.028 109.851 124.427 109.646 124.049 109.301Z" fill="#3F5663"/>
<rect width="25.6" height="4.8" rx="1" transform="matrix(1 0 0 -1 62.4004 119.2)" fill="#D0DBFF"/>
<rect width="25.6" height="4.8" rx="1" transform="matrix(1 0 0 -1 105.6 119.2)" fill="#D0DBFF"/>
<mask id="path-77-outside-8_888_73157" maskUnits="userSpaceOnUse" x="21.5996" y="40.8" width="196" height="96" fill="black">
<rect fill="white" x="21.5996" y="40.8" width="196" height="96"/>
<path fill-rule="evenodd" clip-rule="evenodd" d="M25.7305 132.138C26.0326 132.733 26.7605 132.971 27.3565 132.669L55.8515 118.254H134.784C134.985 118.254 135.183 118.204 135.36 118.108L179.68 94.1381C179.839 94.0518 179.977 93.9307 180.084 93.7838L214.17 46.715C214.562 46.1745 214.44 45.4197 213.898 45.029C213.357 44.6383 212.601 44.7597 212.209 45.3002L178.285 92.146L134.477 115.839H55.5625C55.3724 115.839 55.1851 115.884 55.0156 115.969L26.2627 130.515C25.6668 130.817 25.4285 131.543 25.7305 132.138ZM178.285 92.146L178.527 92.0148L178.123 92.3691L178.285 92.146Z"/>
</mask>
<path fill-rule="evenodd" clip-rule="evenodd" d="M25.7305 132.138C26.0326 132.733 26.7605 132.971 27.3565 132.669L55.8515 118.254H134.784C134.985 118.254 135.183 118.204 135.36 118.108L179.68 94.1381C179.839 94.0518 179.977 93.9307 180.084 93.7838L214.17 46.715C214.562 46.1745 214.44 45.4197 213.898 45.029C213.357 44.6383 212.601 44.7597 212.209 45.3002L178.285 92.146L134.477 115.839H55.5625C55.3724 115.839 55.1851 115.884 55.0156 115.969L26.2627 130.515C25.6668 130.817 25.4285 131.543 25.7305 132.138ZM178.285 92.146L178.527 92.0148L178.123 92.3691L178.285 92.146Z" fill="#42D46C"/>
<path d="M27.3565 132.669L28.7107 135.346L28.7107 135.346L27.3565 132.669ZM25.7305 132.138L23.0556 133.496L23.0556 133.496L25.7305 132.138ZM55.8515 118.254V115.254H55.1359L54.4973 115.577L55.8515 118.254ZM135.36 118.108L136.787 120.747L136.787 120.747L135.36 118.108ZM179.68 94.1381L181.107 96.7769L181.107 96.7769L179.68 94.1381ZM180.084 93.7838L177.654 92.0243L177.654 92.0243L180.084 93.7838ZM214.17 46.715L216.6 48.4746L216.6 48.4745L214.17 46.715ZM213.898 45.029L212.143 47.4618L212.143 47.4618L213.898 45.029ZM212.209 45.3002L209.78 43.5406L209.78 43.5406L212.209 45.3002ZM134.477 115.839V118.839H135.236L135.904 118.478L134.477 115.839ZM55.0156 115.969L53.6614 113.292L53.6613 113.292L55.0156 115.969ZM26.2627 130.515L24.9085 127.838H24.9085L26.2627 130.515ZM178.527 92.0148L180.505 94.2706L177.1 89.3759L178.527 92.0148ZM178.123 92.3691L175.693 90.6097L180.101 94.6249L178.123 92.3691ZM26.0022 129.992C26.8804 129.548 27.9568 129.896 28.4055 130.78L23.0556 133.496C24.1084 135.57 26.6406 136.393 28.7107 135.346L26.0022 129.992ZM54.4973 115.577L26.0022 129.992L28.7107 135.346L57.2058 120.931L54.4973 115.577ZM134.784 115.254H55.8515V121.254H134.784V115.254ZM133.933 115.469C134.194 115.328 134.487 115.254 134.784 115.254V121.254C135.483 121.254 136.172 121.08 136.787 120.747L133.933 115.469ZM178.253 91.4993L133.933 115.469L136.787 120.747L181.107 96.7769L178.253 91.4993ZM177.654 92.0243C177.812 91.8062 178.017 91.6269 178.253 91.4994L181.107 96.7769C181.662 96.4767 182.143 96.0553 182.514 95.5434L177.654 92.0243ZM211.74 44.9554L177.654 92.0243L182.514 95.5434L216.6 48.4746L211.74 44.9554ZM212.143 47.4618C211.341 46.8828 211.158 45.7598 211.74 44.9554L216.6 48.4745C217.965 46.5892 217.539 43.9565 215.654 42.5961L212.143 47.4618ZM214.639 47.0598C214.059 47.8609 212.942 48.0385 212.143 47.4618L215.654 42.5961C213.772 41.2381 211.143 41.6586 209.78 43.5406L214.639 47.0598ZM180.714 93.9055L214.639 47.0598L209.78 43.5406L175.855 90.3864L180.714 93.9055ZM135.904 118.478L179.712 94.7847L176.857 89.5072L133.05 113.2L135.904 118.478ZM55.5625 118.839H134.477V112.839H55.5625V118.839ZM56.3698 118.646C56.1193 118.773 55.8428 118.839 55.5625 118.839V112.839C54.9021 112.839 54.2509 112.994 53.6614 113.292L56.3698 118.646ZM27.6169 133.192L56.3698 118.646L53.6613 113.292L24.9085 127.838L27.6169 133.192ZM28.4055 130.78C28.8557 131.667 28.4982 132.746 27.617 133.192L24.9085 127.838C22.8353 128.887 22.0013 131.42 23.0556 133.496L28.4055 130.78ZM179.711 94.7849L179.954 94.6538L177.1 89.3759L176.858 89.507L179.711 94.7849ZM176.549 89.759L176.145 90.1133L180.101 94.6249L180.505 94.2706L176.549 89.759ZM180.553 94.1286L180.715 93.9054L175.855 90.3865L175.693 90.6097L180.553 94.1286Z" fill="white" mask="url(#path-77-outside-8_888_73157)"/>
<path fill-rule="evenodd" clip-rule="evenodd" d="M218.656 36.5912C219.348 36.2021 220.196 36.7359 220.144 37.5281L219.558 46.4849C219.501 47.3604 218.425 47.743 217.828 47.1001L214.841 43.8835L210.852 42.9763C209.96 42.7733 209.786 41.5779 210.584 41.1295L218.656 36.5912Z" fill="#42D46C"/>
<path d="M225.601 35.0001C228.584 35.0001 231.001 32.5825 231.001 29.6001C231.001 26.6178 228.584 24.2001 225.601 24.2001C222.619 24.2001 220.201 26.6178 220.201 29.6001C220.201 32.5825 222.619 35.0001 225.601 35.0001Z" fill="#42D46C"/>
<path d="M225.601 35.0001C228.584 35.0001 231.001 32.5825 231.001 29.6001C231.001 26.6178 228.584 24.2001 225.601 24.2001C222.619 24.2001 220.201 26.6178 220.201 29.6001C220.201 32.5825 222.619 35.0001 225.601 35.0001Z" stroke="#42D46C" stroke-opacity="0.16" stroke-width="6"/>
<path d="M225.601 35.0001C228.584 35.0001 231.001 32.5825 231.001 29.6001C231.001 26.6178 228.584 24.2001 225.601 24.2001C222.619 24.2001 220.201 26.6178 220.201 29.6001C220.201 32.5825 222.619 35.0001 225.601 35.0001Z" stroke="white" stroke-width="6"/>
<path fill-rule="evenodd" clip-rule="evenodd" d="M213.6 19.9999L214.8 21.9999L216.8 23.1999L214.8 24.3999L213.6 26.3999L212.4 24.3999L210.4 23.1999L212.4 21.9999L213.6 19.9999Z" fill="#FFC72C"/>
<path fill-rule="evenodd" clip-rule="evenodd" d="M210.4 27.2001L211.9 29.7001L214.4 31.2001L211.9 32.7001L210.4 35.2001L208.9 32.7001L206.4 31.2001L208.9 29.7001L210.4 27.2001Z" fill="#FFC72C"/>
<path fill-rule="evenodd" clip-rule="evenodd" d="M229.6 15.2001L230.2 16.2001L231.2 16.8001L230.2 17.4001L229.6 18.4001L229 17.4001L228 16.8001L229 16.2001L229.6 15.2001Z" fill="#FFC72C"/>
<path fill-rule="evenodd" clip-rule="evenodd" d="M233.599 18.3998L234.499 19.8998L235.999 20.7998L234.499 21.6998L233.599 23.1998L232.699 21.6998L231.199 20.7998L232.699 19.8998L233.599 18.3998Z" fill="#FFC72C"/>
<path fill-rule="evenodd" clip-rule="evenodd" d="M44.8004 37.6C46.1259 37.6 47.2004 36.5255 47.2004 35.2C47.2004 33.8745 46.1259 32.8 44.8004 32.8C43.4749 32.8 42.4004 33.8745 42.4004 35.2C42.4004 36.5255 43.4749 37.6 44.8004 37.6Z" fill="#7996F9"/>
<path fill-rule="evenodd" clip-rule="evenodd" d="M51.2008 37.6C52.5263 37.6 53.6008 36.5255 53.6008 35.2C53.6008 33.8745 52.5263 32.8 51.2008 32.8C49.8753 32.8 48.8008 33.8745 48.8008 35.2C48.8008 36.5255 49.8753 37.6 51.2008 37.6Z" fill="#ADC0FD"/>
<path fill-rule="evenodd" clip-rule="evenodd" d="M57.6012 37.6C58.9267 37.6 60.0012 36.5255 60.0012 35.2C60.0012 33.8745 58.9267 32.8 57.6012 32.8C56.2757 32.8 55.2012 33.8745 55.2012 35.2C55.2012 36.5255 56.2757 37.6 57.6012 37.6Z" fill="white"/>
<rect x="61.5977" y="115.84" width="60.8" height="2.4" fill="white"/>
<path d="M56.7988 117.04C56.7988 116.377 57.3361 115.84 57.9988 115.84H100.399C101.062 115.84 101.599 116.377 101.599 117.04C101.599 117.703 101.062 118.24 100.399 118.24H57.9988C57.3361 118.24 56.7988 117.703 56.7988 117.04Z" fill="#42D46C"/>
<rect x="104.799" y="115.84" width="6.4" height="2.4" rx="1.2" fill="#42D46C"/>
<rect x="114.398" y="115.84" width="12.8" height="2.4" rx="1.2" fill="#42D46C"/>
</g>
<defs>
<filter id="filter0_i_888_73157" x="0" y="36.8" width="120" height="24" filterUnits="userSpaceOnUse" color-interpolation-filters="sRGB">
<feFlood flood-opacity="0" result="BackgroundImageFix"/>
<feBlend mode="normal" in="SourceGraphic" in2="BackgroundImageFix" result="shape"/>
<feColorMatrix in="SourceAlpha" type="matrix" values="0 0 0 0 0 0 0 0 0 0 0 0 0 0 0 0 0 0 127 0" result="hardAlpha"/>
<feOffset dy="-1"/>
<feComposite in2="hardAlpha" operator="arithmetic" k2="-1" k3="1"/>
<feColorMatrix type="matrix" values="0 0 0 0 0.686275 0 0 0 0 0.780392 0 0 0 0 0.819608 0 0 0 0.5 0"/>
<feBlend mode="normal" in2="shape" result="effect1_innerShadow_888_73157"/>
</filter>
<filter id="filter1_i_888_73157" x="0" y="60.8" width="120" height="24" filterUnits="userSpaceOnUse" color-interpolation-filters="sRGB">
<feFlood flood-opacity="0" result="BackgroundImageFix"/>
<feBlend mode="normal" in="SourceGraphic" in2="BackgroundImageFix" result="shape"/>
<feColorMatrix in="SourceAlpha" type="matrix" values="0 0 0 0 0 0 0 0 0 0 0 0 0 0 0 0 0 0 127 0" result="hardAlpha"/>
<feOffset dy="-1"/>
<feComposite in2="hardAlpha" operator="arithmetic" k2="-1" k3="1"/>
<feColorMatrix type="matrix" values="0 0 0 0 0.686275 0 0 0 0 0.780392 0 0 0 0 0.819608 0 0 0 0.5 0"/>
<feBlend mode="normal" in2="shape" result="effect1_innerShadow_888_73157"/>
</filter>
<filter id="filter2_i_888_73157" x="0" y="84.8" width="120" height="24" filterUnits="userSpaceOnUse" color-interpolation-filters="sRGB">
<feFlood flood-opacity="0" result="BackgroundImageFix"/>
<feBlend mode="normal" in="SourceGraphic" in2="BackgroundImageFix" result="shape"/>
<feColorMatrix in="SourceAlpha" type="matrix" values="0 0 0 0 0 0 0 0 0 0 0 0 0 0 0 0 0 0 127 0" result="hardAlpha"/>
<feOffset dy="-1"/>
<feComposite in2="hardAlpha" operator="arithmetic" k2="-1" k3="1"/>
<feColorMatrix type="matrix" values="0 0 0 0 0.686275 0 0 0 0 0.780392 0 0 0 0 0.819608 0 0 0 0.5 0"/>
<feBlend mode="normal" in2="shape" result="effect1_innerShadow_888_73157"/>
</filter>
<filter id="filter3_i_888_73157" x="0" y="108.8" width="120" height="24.0001" filterUnits="userSpaceOnUse" color-interpolation-filters="sRGB">
<feFlood flood-opacity="0" result="BackgroundImageFix"/>
<feBlend mode="normal" in="SourceGraphic" in2="BackgroundImageFix" result="shape"/>
<feColorMatrix in="SourceAlpha" type="matrix" values="0 0 0 0 0 0 0 0 0 0 0 0 0 0 0 0 0 0 127 0" result="hardAlpha"/>
<feOffset dy="-1"/>
<feComposite in2="hardAlpha" operator="arithmetic" k2="-1" k3="1"/>
<feColorMatrix type="matrix" values="0 0 0 0 0.686275 0 0 0 0 0.780392 0 0 0 0 0.819608 0 0 0 0.5 0"/>
<feBlend mode="normal" in2="shape" result="effect1_innerShadow_888_73157"/>
</filter>
<filter id="filter4_i_888_73157" x="120" y="36.8" width="120" height="24" filterUnits="userSpaceOnUse" color-interpolation-filters="sRGB">
<feFlood flood-opacity="0" result="BackgroundImageFix"/>
<feBlend mode="normal" in="SourceGraphic" in2="BackgroundImageFix" result="shape"/>
<feColorMatrix in="SourceAlpha" type="matrix" values="0 0 0 0 0 0 0 0 0 0 0 0 0 0 0 0 0 0 127 0" result="hardAlpha"/>
<feOffset dy="-1"/>
<feComposite in2="hardAlpha" operator="arithmetic" k2="-1" k3="1"/>
<feColorMatrix type="matrix" values="0 0 0 0 0.686275 0 0 0 0 0.780392 0 0 0 0 0.819608 0 0 0 0.5 0"/>
<feBlend mode="normal" in2="shape" result="effect1_innerShadow_888_73157"/>
</filter>
<filter id="filter5_i_888_73157" x="120" y="60.8" width="120" height="24" filterUnits="userSpaceOnUse" color-interpolation-filters="sRGB">
<feFlood flood-opacity="0" result="BackgroundImageFix"/>
<feBlend mode="normal" in="SourceGraphic" in2="BackgroundImageFix" result="shape"/>
<feColorMatrix in="SourceAlpha" type="matrix" values="0 0 0 0 0 0 0 0 0 0 0 0 0 0 0 0 0 0 127 0" result="hardAlpha"/>
<feOffset dy="-1"/>
<feComposite in2="hardAlpha" operator="arithmetic" k2="-1" k3="1"/>
<feColorMatrix type="matrix" values="0 0 0 0 0.686275 0 0 0 0 0.780392 0 0 0 0 0.819608 0 0 0 0.5 0"/>
<feBlend mode="normal" in2="shape" result="effect1_innerShadow_888_73157"/>
</filter>
<filter id="filter6_i_888_73157" x="120" y="84.8" width="120" height="24" filterUnits="userSpaceOnUse" color-interpolation-filters="sRGB">
<feFlood flood-opacity="0" result="BackgroundImageFix"/>
<feBlend mode="normal" in="SourceGraphic" in2="BackgroundImageFix" result="shape"/>
<feColorMatrix in="SourceAlpha" type="matrix" values="0 0 0 0 0 0 0 0 0 0 0 0 0 0 0 0 0 0 127 0" result="hardAlpha"/>
<feOffset dy="-1"/>
<feComposite in2="hardAlpha" operator="arithmetic" k2="-1" k3="1"/>
<feColorMatrix type="matrix" values="0 0 0 0 0.686275 0 0 0 0 0.780392 0 0 0 0 0.819608 0 0 0 0.5 0"/>
<feBlend mode="normal" in2="shape" result="effect1_innerShadow_888_73157"/>
</filter>
<filter id="filter7_i_888_73157" x="120" y="108.8" width="120" height="24.0001" filterUnits="userSpaceOnUse" color-interpolation-filters="sRGB">
<feFlood flood-opacity="0" result="BackgroundImageFix"/>
<feBlend mode="normal" in="SourceGraphic" in2="BackgroundImageFix" result="shape"/>
<feColorMatrix in="SourceAlpha" type="matrix" values="0 0 0 0 0 0 0 0 0 0 0 0 0 0 0 0 0 0 127 0" result="hardAlpha"/>
<feOffset dy="-1"/>
<feComposite in2="hardAlpha" operator="arithmetic" k2="-1" k3="1"/>
<feColorMatrix type="matrix" values="0 0 0 0 0.686275 0 0 0 0 0.780392 0 0 0 0 0.819608 0 0 0 0.5 0"/>
<feBlend mode="normal" in2="shape" result="effect1_innerShadow_888_73157"/>
</filter>
</defs>
</svg>
