<svg width="278" height="184" viewBox="0 0 278 184" fill="none" xmlns="http://www.w3.org/2000/svg">
<path d="M250.441 2.76956H209.723V30.4695H250.441V2.76956Z" fill="#C3D4FA"/>
<path d="M92.6438 184C92.6438 161.647 110.871 143.543 133.377 143.543C155.883 143.543 174.11 161.647 174.11 184" fill="#F0F4FF"/>
<path d="M92.6438 184C92.6438 161.647 110.871 143.543 133.377 143.543C155.883 143.543 174.11 161.647 174.11 184" stroke="#F0F4FF" stroke-width="0.635546" stroke-miterlimit="10" stroke-dasharray="0.42 0.42"/>
<path d="M192.617 118.327C210.752 134.491 222.098 157.86 222.098 183.908" stroke="#C3D4FA" stroke-width="0.847395" stroke-miterlimit="10"/>
<path d="M133.378 54.9613C133.471 54.9613 133.564 54.9613 133.75 54.9613" stroke="#022786" stroke-width="0.635546" stroke-miterlimit="10"/>
<path d="M135.05 54.9613C155.789 55.2384 175.318 60.3186 192.616 69.186C198.103 71.957 203.311 75.0975 208.333 78.6075C210.844 80.3625 213.262 82.2099 215.587 84.0572C244.416 107.519 262.923 143.08 263.295 182.983" stroke="#022786" stroke-width="0.423697" stroke-miterlimit="10" stroke-dasharray="0.64 0.64"/>
<path d="M263.297 183.631C263.297 183.723 263.297 183.815 263.297 184" stroke="#022786" stroke-width="0.423697" stroke-miterlimit="10"/>
<path d="M3.45898 184C3.45898 123.591 45.3083 72.7884 101.758 58.8408" stroke="#376EEE" stroke-width="0.423697" stroke-miterlimit="10" stroke-dasharray="0.21 0.21"/>
<path d="M133.378 54.9613C154.768 54.9613 174.948 60.0415 192.711 69.186" stroke="#C3D4FA" stroke-width="0.847395" stroke-miterlimit="10"/>
<path d="M44.4702 184C44.4702 135.23 84.2735 95.6961 133.377 95.6961C148.442 95.6961 162.578 99.3908 175.04 105.949" stroke="#ADC0FD" stroke-width="0.423697" stroke-miterlimit="10" stroke-dasharray="0.85 0.85"/>
<path d="M113.196 32.3314C113.196 32.3314 114.126 29.9298 115.149 30.7611C115.614 31.1306 115.428 32.4237 115.056 33.994C114.591 36.2108 113.661 38.7971 113.661 38.7971" fill="#965C4D"/>
<path d="M108.548 30.0228H103.34V47.2956H108.548V30.0228Z" fill="#965C4D"/>
<path d="M160.998 15.4275C156.813 16.0741 152.628 16.813 148.536 17.4596C148.443 16.0741 148.35 12.4717 150.675 9.23881C154.395 4.25093 162.486 2.95778 167.786 6.56014C173.273 10.2549 173.18 17.1825 173.18 17.9214C172.994 23.3711 169.46 28.4514 164.066 30.9453L163.787 17.6443C163.694 16.2588 162.393 15.2427 160.998 15.4275Z" fill="#965C4D"/>
<path d="M148.533 14.5972C148.533 15.059 148.44 15.5209 148.44 15.9827C148.44 15.9827 148.254 33.2555 154.299 34.5487C160.344 35.8418 168.528 30.9463 172.062 23.7416C175.596 16.5369 168.621 11.7338 166.575 20.324L165.459 13.3964C165.273 12.5651 164.529 11.9185 163.692 12.1032C158.67 12.9346 153.555 13.7659 148.533 14.5972Z" fill="#965C4D"/>
<path d="M156.907 34.5483C157.093 32.6086 159.604 30.1147 169.276 27.6207C169.555 31.1307 169.834 34.6407 170.206 38.0583C169.927 38.7973 168.16 42.7691 164.347 43.9699C162.859 44.4317 161.185 44.4317 160.999 44.4317C159.325 44.4317 157.93 44.0622 157.093 43.6928L156.907 34.5483Z" fill="#965C4D"/>
<path d="M148.911 19.7691C149.19 19.5844 149.562 19.492 150.027 19.3073C150.492 19.2149 150.957 19.1225 151.236 19.2149" stroke="#152934" stroke-width="0.635546" stroke-miterlimit="10" stroke-linecap="round" stroke-linejoin="round"/>
<path d="M159.51 22.3557C159.882 22.2633 160.068 21.7091 159.975 20.9702C159.882 20.2312 159.51 19.7694 159.138 19.7694C158.766 19.8617 158.58 20.4159 158.673 21.1549C158.766 21.8938 159.138 22.448 159.51 22.3557Z" fill="#152934"/>
<path d="M151.514 23.6497C151.886 23.5573 152.072 23.0031 151.979 22.2642C151.886 21.5252 151.514 21.0634 151.142 21.0634C150.77 21.1557 150.584 21.7099 150.677 22.4489C150.77 23.1878 151.142 23.6497 151.514 23.6497Z" fill="#152934"/>
<path d="M156.907 18.1987C157.372 18.014 158.209 17.6445 159.418 17.7369C159.976 17.7369 160.348 17.8293 160.813 18.014" stroke="#152934" stroke-width="0.635546" stroke-miterlimit="10" stroke-linecap="round" stroke-linejoin="round"/>
<path d="M154.952 23.0948C154.952 23.0948 154.766 25.8659 155.231 26.0506C155.603 26.3277 156.347 25.8659 156.347 25.8659" stroke="#152934" stroke-width="0.635546" stroke-miterlimit="10" stroke-linecap="round" stroke-linejoin="round"/>
<path d="M159.415 27.9901C159.415 27.9901 159.136 29.6527 156.997 30.1145" stroke="#152934" stroke-width="0.635546" stroke-miterlimit="10" stroke-linecap="round" stroke-linejoin="round"/>
<path d="M168.157 22.2634C169.273 17.2755 173.086 19.2153 172.249 23.0024C172.156 23.2795 172.156 23.4642 172.063 23.7413C171.97 24.0184 171.877 24.2031 171.784 24.4803C171.691 24.7574 171.505 25.0345 171.319 25.3116C170.947 25.9581 170.575 26.5123 170.11 27.0666" stroke="#152934" stroke-width="0.635546" stroke-miterlimit="10" stroke-linecap="round" stroke-linejoin="round"/>
<path d="M156.907 34.8254C158.302 34.733 159.79 34.3635 161.278 33.8093" stroke="#152934" stroke-width="0.635546" stroke-miterlimit="10" stroke-linecap="round" stroke-linejoin="round"/>
<path d="M111.057 35.0098C111.057 35.0098 111.987 32.6083 113.01 33.4396C113.475 33.8091 113.289 35.1022 112.917 36.6725C112.452 38.8893 111.522 41.4756 111.522 41.4756" fill="#965C4D"/>
<path d="M145.001 56.1625C138.677 61.8893 131.981 66.6924 125.657 72.4192C123.704 68.5398 122.216 65.7687 120.263 61.8893C117.566 56.3472 114.869 50.8051 112.172 45.263C109.568 46.002 107.522 46.4638 106.778 46.5562C106.592 46.5562 106.22 46.6485 105.941 46.4638C105.569 46.1867 105.476 45.6325 105.476 45.6325L104.639 39.1667C105.383 39.7209 106.127 40.3675 106.871 40.9217C107.057 41.1065 107.243 41.2912 107.429 41.4759C107.708 41.753 108.173 41.8454 108.545 41.6607C108.917 41.4759 109.01 41.0141 108.824 40.5522C110.219 40.9217 109.661 38.982 109.661 38.982C109.754 38.982 109.94 38.982 110.033 38.8896C110.312 38.7049 110.312 38.4278 110.405 38.3354C110.591 37.5965 109.94 36.7652 109.847 36.5804C108.917 35.2873 107.522 34.5483 105.755 33.4399C105.011 32.9781 103.988 33.5323 103.988 33.5323L103.43 27.6207L101.849 33.9941C101.849 33.9941 100.082 37.6888 101.57 44.8012C102.314 48.4035 103.337 51.8212 104.825 55.4235V55.3311C106.127 58.8411 107.429 62.3511 108.731 65.9535C111.056 71.5879 113.567 77.0376 115.799 80.8247C116.822 82.5797 118.682 85.3508 121.844 86.4592C127.145 88.2142 131.516 84.6118 131.795 84.4271C139.886 77.4995 148.628 71.1261 153.091 65.584L145.001 56.1625Z" fill="#965C4D"/>
<path d="M43.9136 126.731C46.1455 124.976 47.4475 128.024 50.1445 131.165C52.8414 134.398 56.0034 135.968 58.5143 137.353C60.9323 138.647 65.9542 139.94 67.2562 140.217C68.4652 140.494 68.1862 140.494 66.4192 142.526C64.7452 144.558 64.1872 148.068 65.3962 149.823C66.6052 151.578 69.0231 152.502 69.9531 153.056C70.8831 153.61 71.0691 154.349 70.2321 155.735C69.3951 157.12 65.8612 160.353 65.8612 160.353C60.3743 156.474 51.1674 148.53 46.3315 135.598C45.1226 132.458 44.3786 129.502 43.9136 126.731Z" fill="#2EAA77"/>
<path d="M76.554 133.197C78.693 136.707 80.8319 140.125 82.9709 143.635C78.879 147.145 74.7871 150.655 70.6951 154.165C70.6021 153.703 70.4161 153.426 69.8581 153.056C68.9282 152.502 66.5102 151.578 65.3012 149.823C64.0922 148.068 64.5572 144.558 66.3242 142.526C67.0682 141.603 67.5332 140.864 67.9052 140.494L76.554 133.197Z" fill="#965C4D"/>
<path d="M68.6515 157.675C68.6515 157.675 65.1175 152.964 59.7236 151.302" stroke="#152934" stroke-width="0.635546" stroke-miterlimit="10" stroke-linecap="round" stroke-linejoin="round"/>
<path d="M70.5106 155.273C70.5106 155.273 63.2567 152.964 63.1637 147.053C63.0707 141.049 63.0707 140.402 63.0707 140.402C61.6758 139.94 60.2808 139.294 58.6998 138.555C56.9328 137.723 55.4449 136.892 54.0499 136.061C53.3989 138.37 52.7479 140.587 52.0969 142.896" stroke="#152934" stroke-width="0.635546" stroke-miterlimit="10" stroke-linecap="round" stroke-linejoin="round"/>
<path d="M54.1426 151.579C50.6086 146.037 47.9117 142.435 46.1447 138.093C44.3778 133.752 42.2388 127.933 42.3318 127.748C42.4248 127.563 42.9828 126.455 44.0058 126.732C44.0058 126.732 46.1447 134.214 49.8647 139.571C53.5846 144.929 54.9796 147.053 57.7695 149.547C60.6525 152.133 61.3965 152.318 63.3494 155.459C65.3024 158.599 65.8604 160.354 65.8604 160.354C65.8604 160.354 62.9774 163.033 62.3264 163.217C61.6755 163.402 60.7455 162.478 60.2805 161.832L54.1426 151.579Z" fill="white"/>
<path d="M63.9062 139.386L63.9993 141.88L65.3942 142.064V139.755" stroke="#152934" stroke-width="0.635546" stroke-miterlimit="10" stroke-linecap="round" stroke-linejoin="round"/>
<path d="M167.506 182.984C164.716 182.337 166.204 179.474 167.041 175.409C167.785 171.345 167.041 167.835 166.576 165.064C166.018 162.293 163.879 157.675 163.321 156.566C162.763 155.458 163.042 155.643 165.646 155.735C168.343 155.735 171.319 153.98 171.97 151.856C172.528 149.823 171.784 147.329 171.598 146.313C171.412 145.297 171.97 144.651 173.551 144.374C175.132 144.097 179.875 144.836 179.875 144.836C180.34 151.578 179.968 163.679 172.993 175.502C171.226 178.458 169.366 180.859 167.506 182.984Z" fill="#2EAA77"/>
<path d="M151.883 153.795C153.278 149.916 154.58 146.129 155.975 142.249C161.276 143.173 166.67 144.097 171.971 145.021C171.692 145.298 171.599 145.759 171.599 146.314C171.785 147.33 172.529 149.824 171.971 151.856C171.413 153.888 168.344 155.735 165.647 155.735C164.531 155.735 163.601 155.828 163.043 155.828L151.883 153.795Z" fill="#965C4D"/>
<path d="M175.968 144.374C175.968 144.374 174.48 150.101 176.712 155.273" stroke="#152934" stroke-width="0.635546" stroke-miterlimit="10" stroke-linecap="round" stroke-linejoin="round"/>
<path d="M172.901 144.559C172.901 144.559 175.691 151.579 171.134 155.458C166.577 159.337 166.019 159.799 166.019 159.799C166.484 161.185 166.949 162.663 167.321 164.325C167.786 166.173 168.065 167.928 168.344 169.498C170.483 168.574 172.715 167.558 174.854 166.635" stroke="#152934" stroke-width="0.635546" stroke-miterlimit="10" stroke-linecap="round" stroke-linejoin="round"/>
<path d="M180.434 159.337C178.295 165.526 177.179 169.867 174.947 174.024C172.715 178.181 169.46 183.446 169.274 183.538C169.088 183.63 167.786 183.815 167.414 182.891C167.414 182.891 171.878 176.518 173.645 170.237C175.505 164.048 176.249 161.647 176.435 157.767C176.621 153.98 176.342 153.241 177.551 149.731C178.76 146.221 179.69 144.743 179.69 144.743C179.69 144.743 183.596 145.297 184.154 145.667C184.712 146.036 184.526 147.422 184.34 148.069L180.434 159.337Z" fill="white"/>
<path d="M164.716 159.615L166.576 157.952L165.925 156.751L164.065 158.229" stroke="#152934" stroke-width="0.635546" stroke-miterlimit="10" stroke-linecap="round" stroke-linejoin="round"/>
<path d="M112.826 124.607C111.059 126.547 107.711 130.703 107.897 136.153C107.99 140.587 110.408 144.189 113.198 147.053C116.825 150.655 121.475 152.872 126.404 153.796C136.82 155.735 158.395 159.707 158.395 159.707L163.789 137.908L141.563 134.398C182.017 116.294 181.552 107.981 181.552 107.981C164.161 95.8807 143.051 94.4028 128.357 104.009C118.778 110.29 114.593 119.804 112.826 124.607Z" fill="#022786"/>
<path d="M141.655 134.398L126.962 139.017" stroke="#152934" stroke-width="0.635546" stroke-miterlimit="10" stroke-linecap="round" stroke-linejoin="round"/>
<path d="M134.308 119.342C146.119 120.635 164.346 123.037 164.346 123.037L166.113 121.559L181.737 107.981C181.737 107.981 181.737 107.981 181.737 107.889L175.041 101.608L172.251 98.6517C172.158 98.7441 171.972 98.7441 171.879 98.8365L157.836 96.0654C157.836 96.0654 124.543 89.0454 108.361 100.222C92.1796 111.399 67.907 133.659 67.907 133.659L80.1828 152.04L112.825 124.607C112.825 124.607 118.684 118.234 126.124 118.603" fill="#022786"/>
<path d="M112.824 124.608C112.824 124.608 118.683 118.234 126.123 118.604C127.517 118.696 129.842 118.881 132.632 119.158C133.19 119.25 133.748 119.25 134.306 119.343C146.117 120.636 164.345 123.037 164.345 123.037" stroke="#152934" stroke-width="0.635546" stroke-miterlimit="10" stroke-linecap="round" stroke-linejoin="round"/>
<path d="M187.223 48.496C183.317 38.8897 172.343 39.2592 172.343 39.2592L171.971 37.4118L154.115 41.1065V43.6005C154.115 43.6005 151.232 45.9097 150.023 50.1586C149.093 53.2991 149.558 55.8854 149.744 57.1786C151.139 65.5841 150.767 74.1743 151.604 82.6722C151.883 85.4432 152.348 89.7845 152.813 95.1419C159.23 96.3427 165.554 97.5434 171.971 98.7442L174.854 101.7L181.736 108.166L187.409 113.523C198.476 95.419 191.129 58.1023 187.223 48.496Z" fill="#376EEE"/>
<path d="M149.836 50.8048C149.65 51.5437 139.42 58.3789 139.42 58.3789L151.417 70.6639" fill="#376EEE"/>
<path d="M149.836 50.8048C149.371 52.6521 149.278 54.7766 149.743 57.1782C150.58 61.6118 150.952 66.1379 151.324 70.6639" stroke="#152934" stroke-width="0.635546" stroke-miterlimit="10" stroke-linecap="round" stroke-linejoin="round"/>
<path d="M186.48 65.4916L185.178 93.4792C184.992 95.7884 184.248 100.222 180.714 102.993C179.319 104.102 178.017 104.656 176.529 105.118C170.391 107.057 162.952 107.519 156.814 107.704C151.885 107.704 146.863 107.704 141.841 107.704C140.539 107.704 139.237 107.704 137.935 107.704C137.935 107.704 135.889 107.889 134.215 108.628C132.541 109.366 131.239 109.366 131.239 109.366C129.1 109.551 127.333 109.736 126.031 109.828C125.659 109.828 124.729 109.921 124.264 109.459C124.171 109.366 123.892 109.089 123.892 108.812C123.892 108.258 124.543 107.704 125.752 107.334C124.264 107.334 122.962 107.242 121.474 107.242C120.73 107.242 120.079 106.595 120.172 105.857C120.265 105.302 120.73 104.748 121.474 104.748C120.079 104.84 119.056 104.379 118.684 103.64C118.684 103.547 118.591 103.363 118.591 103.085C118.777 102.439 120.079 101.977 121.939 102.069C120.916 101.885 120.079 101.423 120.079 100.684C120.079 100.407 120.079 100.222 120.079 100.222C120.079 100.222 120.265 99.7602 120.916 99.4831C122.59 98.8365 131.704 99.4831 131.704 99.4831C132.262 99.4831 132.727 99.4831 133.378 99.5755C132.541 98.6518 131.89 97.8205 131.518 97.3586C131.053 96.8044 130.681 96.435 130.774 95.9731C130.867 95.6036 131.332 95.2342 131.797 95.2342C132.076 95.2342 132.355 95.3265 133.471 96.2502C134.122 96.8044 134.308 96.9892 134.68 97.3586C135.238 97.9128 135.982 98.4671 136.633 98.8365C137.842 99.3907 139.051 99.2984 139.702 99.206C141.655 98.9289 146.026 98.5594 151.978 98.0976C154.489 97.9128 157.093 97.5434 159.697 96.9892C163.138 96.2502 167.043 95.3265 171.414 94.3105C172.065 84.15 172.809 73.8971 173.46 63.7366" fill="#965C4D"/>
<path d="M126.031 107.057H128.821" stroke="#152934" stroke-width="0.635546" stroke-miterlimit="10" stroke-linecap="round" stroke-linejoin="round"/>
<path d="M121.381 105.21H127.891" stroke="#152934" stroke-width="0.635546" stroke-miterlimit="10" stroke-linecap="round" stroke-linejoin="round"/>
<path d="M122.31 102.439H127.89" stroke="#152934" stroke-width="0.635546" stroke-miterlimit="10" stroke-linecap="round" stroke-linejoin="round"/>
<path d="M173.273 50.8048L172.25 63.4592L187.688 66.0455C187.688 66.0455 189.362 56.9934 188.525 52.375" fill="#376EEE"/>
<path d="M173.273 50.8048L172.25 63.4592L187.688 66.0455C187.688 66.0455 189.362 56.9934 188.525 52.375" stroke="#152934" stroke-width="0.635546" stroke-miterlimit="10" stroke-linecap="round" stroke-linejoin="round"/>
<path d="M103.338 29.0985C103.059 26.2351 102.873 23.464 102.594 20.6006L102.501 18.7533C102.408 17.8296 103.338 17.0906 104.268 17.2754L111.986 19.1227C112.637 19.3075 113.195 19.8617 113.195 20.6006C114.125 28.9138 114.962 37.1345 115.892 45.4477C115.892 45.6324 115.892 46.0019 115.706 46.279C115.427 46.6484 114.962 46.7408 113.939 46.9255C113.66 47.0179 112.73 47.1103 110.87 47.4798C109.475 47.7569 108.824 47.7569 108.638 47.8492C106.965 48.2187 106.593 48.1263 106.128 47.9416C106.035 47.8492 105.849 47.7569 105.756 47.4798C105.756 47.3874 105.663 47.3874 105.663 47.295C105.57 46.9255 105.57 46.7408 105.57 46.5561L103.338 29.0985Z" fill="#376EEE"/>
<path d="M115.8 43.785C112.824 44.1544 109.662 44.5239 106.686 44.8934C105.756 36.6726 104.919 28.3595 103.989 20.1387C107.058 20.6929 110.313 21.6166 113.382 22.0785C114.126 29.4679 114.963 36.3955 115.8 43.785Z" fill="white"/>
<path d="M103.802 20.0464C106.964 20.693 110.033 21.2472 113.195 21.8937" stroke="#152934" stroke-width="0.635546" stroke-miterlimit="10" stroke-linecap="round" stroke-linejoin="round"/>
<path d="M106.595 44.8935C109.571 44.524 112.64 44.1545 115.616 43.8774" stroke="#152934" stroke-width="0.635546" stroke-miterlimit="10" stroke-linecap="round" stroke-linejoin="round"/>
<path d="M104.64 17.3673C104.454 17.3673 104.175 17.3673 103.989 17.552C103.617 17.8291 103.617 18.3833 103.617 18.5681C103.617 20.4154 106.407 43.2304 106.779 45.909C106.779 46.2785 107.151 46.8327 107.616 47.2022C107.895 47.3869 108.174 47.5717 108.36 47.664" stroke="#152934" stroke-width="0.635546" stroke-miterlimit="10" stroke-linecap="round" stroke-linejoin="round"/>
<path d="M106.966 25.7735C107.737 25.7735 108.361 25.1532 108.361 24.388C108.361 23.6228 107.737 23.0025 106.966 23.0025C106.196 23.0025 105.571 23.6228 105.571 24.388C105.571 25.1532 106.196 25.7735 106.966 25.7735Z" fill="#FFC72C"/>
<path d="M103.712 33.994L101.573 34.5482" stroke="#152934" stroke-width="0.635546" stroke-miterlimit="10" stroke-linecap="round" stroke-linejoin="round"/>
<path d="M113.66 33.9945L111.242 30.4845L108.545 30.6692L106.778 34.3639C106.127 35.6571 107.243 37.135 108.638 37.0426L112.265 36.7655C113.753 36.6731 114.496 35.1029 113.66 33.9945Z" fill="#2EAA77"/>
<path d="M111.244 30.4844C112.08 29.376 112.359 28.4523 111.987 28.1752C111.708 27.8981 110.965 28.1752 110.779 28.2676C110.686 28.1752 110.314 27.8057 109.663 27.8981C109.012 27.8981 108.64 28.4523 108.64 28.4523C108.361 28.3599 107.617 28.2676 107.431 28.5447C107.152 28.9141 107.617 29.8378 108.64 30.6691L111.244 30.4844Z" fill="#2EAA77"/>
<path d="M109.105 29.4681L109.663 30.5765" stroke="#152934" stroke-width="0.635546" stroke-miterlimit="10" stroke-linecap="round" stroke-linejoin="round"/>
<path d="M110.685 29.0981L110.313 30.576" stroke="#152934" stroke-width="0.635546" stroke-miterlimit="10" stroke-linecap="round" stroke-linejoin="round"/>
<path d="M108.454 30.7616L111.337 30.4845" stroke="#152934" stroke-width="0.635546" stroke-miterlimit="10" stroke-linecap="round" stroke-linejoin="round"/>
<path d="M104.453 39.7212C105.197 40.2754 105.941 40.922 106.685 41.4762C106.871 41.6609 107.057 41.8456 107.243 42.0304C107.522 42.3075 107.987 42.3999 108.359 42.2151C108.731 42.0304 108.824 41.5685 108.638 41.1067C110.033 41.4762 109.475 39.5364 109.475 39.5364C109.568 39.5364 109.754 39.5364 109.847 39.4441C110.126 39.2593 110.126 38.9822 110.219 38.8899C110.405 38.1509 109.754 37.3196 109.661 37.1349C108.731 35.8417 107.336 35.1028 105.569 33.9944C104.825 33.5325 103.802 34.0867 103.802 34.0867" fill="#965C4D"/>
<path d="M103.617 35.8413C103.803 35.8413 104.082 35.7489 104.454 35.8413C105.291 35.9337 105.849 36.2108 106.221 36.3955C107.802 37.2268 109.29 39.2589 109.476 39.536" stroke="#152934" stroke-width="0.635546" stroke-miterlimit="10" stroke-linecap="round"/>
<path d="M108.548 41.0143C108.548 41.0143 106.13 38.428 105.014 38.0585C103.898 37.6891 103.34 37.7814 103.34 37.7814" stroke="#152934" stroke-width="0.635546" stroke-miterlimit="10" stroke-linecap="round"/>
<path d="M113.196 32.3314C113.196 32.3314 114.126 29.9298 115.149 30.7611C115.614 31.1306 115.428 32.4237 115.056 33.994C114.591 36.2108 113.661 38.7971 113.661 38.7971" fill="#965C4D"/>
<path d="M108.548 30.0228H103.34V47.2956H108.548V30.0228Z" fill="#965C4D"/>
<path d="M160.998 15.4275C156.813 16.0741 152.628 16.813 148.536 17.4596C148.443 16.0741 148.35 12.4717 150.675 9.23881C154.395 4.25093 162.486 2.95778 167.786 6.56014C173.273 10.2549 173.18 17.1825 173.18 17.9214C172.994 23.3711 169.46 28.4514 164.066 30.9453L163.787 17.6443C163.694 16.2588 162.393 15.2427 160.998 15.4275Z" fill="#B17762"/>
<path d="M148.533 14.5972C148.533 15.059 148.44 15.5209 148.44 15.9827C148.44 15.9827 148.254 33.2555 154.299 34.5487C160.344 35.8418 168.528 30.9463 172.062 23.7416C175.596 16.5369 168.621 11.7338 166.575 20.324L165.459 13.3964C165.273 12.5651 164.529 11.9185 163.692 12.1032C158.67 12.9346 153.555 13.7659 148.533 14.5972Z" fill="#B17762"/>
<path d="M156.907 34.5483C157.093 32.6086 159.604 30.1147 169.276 27.6207C169.555 31.1307 169.834 34.6407 170.206 38.0583C169.927 38.7973 168.16 42.7691 164.347 43.9699C162.859 44.4317 161.185 44.4317 160.999 44.4317C159.325 44.4317 157.93 44.0622 157.093 43.6928L156.907 34.5483Z" fill="#B17762"/>
<path d="M148.911 19.7691C149.19 19.5844 149.562 19.492 150.027 19.3073C150.492 19.2149 150.957 19.1225 151.236 19.2149" stroke="#152934" stroke-width="0.635546" stroke-miterlimit="10" stroke-linecap="round" stroke-linejoin="round"/>
<path d="M159.51 22.3557C159.882 22.2633 160.068 21.7091 159.975 20.9702C159.882 20.2312 159.51 19.7694 159.138 19.7694C158.766 19.8617 158.58 20.4159 158.673 21.1549C158.766 21.8938 159.138 22.448 159.51 22.3557Z" fill="#152934"/>
<path d="M151.514 23.6497C151.886 23.5573 152.072 23.0031 151.979 22.2642C151.886 21.5252 151.514 21.0634 151.142 21.0634C150.77 21.1557 150.584 21.7099 150.677 22.4489C150.77 23.1878 151.142 23.6497 151.514 23.6497Z" fill="#152934"/>
<path d="M156.907 18.1987C157.372 18.014 158.209 17.6445 159.418 17.7369C159.976 17.7369 160.348 17.8293 160.813 18.014" stroke="#152934" stroke-width="0.635546" stroke-miterlimit="10" stroke-linecap="round" stroke-linejoin="round"/>
<path d="M154.952 23.0948C154.952 23.0948 154.766 25.8659 155.231 26.0506C155.603 26.3277 156.347 25.8659 156.347 25.8659" stroke="#152934" stroke-width="0.635546" stroke-miterlimit="10" stroke-linecap="round" stroke-linejoin="round"/>
<path d="M159.415 27.9901C159.415 27.9901 159.136 29.6527 156.997 30.1145" stroke="#152934" stroke-width="0.635546" stroke-miterlimit="10" stroke-linecap="round" stroke-linejoin="round"/>
<path d="M168.157 22.2634C169.273 17.2755 173.086 19.2153 172.249 23.0024C172.156 23.2795 172.156 23.4642 172.063 23.7413C171.97 24.0184 171.877 24.2031 171.784 24.4803C171.691 24.7574 171.505 25.0345 171.319 25.3116C170.947 25.9581 170.575 26.5123 170.11 27.0666" stroke="#152934" stroke-width="0.635546" stroke-miterlimit="10" stroke-linecap="round" stroke-linejoin="round"/>
<path d="M156.907 34.8254C158.302 34.733 159.79 34.3635 161.278 33.8093" stroke="#152934" stroke-width="0.635546" stroke-miterlimit="10" stroke-linecap="round" stroke-linejoin="round"/>
<path d="M111.057 35.0098C111.057 35.0098 111.987 32.6083 113.01 33.4396C113.475 33.8091 113.289 35.1022 112.917 36.6725C112.452 38.8893 111.522 41.4756 111.522 41.4756" fill="#965C4D"/>
<path d="M145.001 56.1625C138.677 61.8893 131.981 66.6924 125.657 72.4192C123.704 68.5398 122.216 65.7687 120.263 61.8893C117.566 56.3472 114.869 50.8051 112.172 45.263C109.568 46.002 107.522 46.4638 106.778 46.5562C106.592 46.5562 106.22 46.6485 105.941 46.4638C105.569 46.1867 105.476 45.6325 105.476 45.6325L104.639 39.1667C105.383 39.7209 106.127 40.3675 106.871 40.9217C107.057 41.1065 107.243 41.2912 107.429 41.4759C107.708 41.753 108.173 41.8454 108.545 41.6607C108.917 41.4759 109.01 41.0141 108.824 40.5522C110.219 40.9217 109.661 38.982 109.661 38.982C109.754 38.982 109.94 38.982 110.033 38.8896C110.312 38.7049 110.312 38.4278 110.405 38.3354C110.591 37.5965 109.94 36.7652 109.847 36.5804C108.917 35.2873 107.522 34.5483 105.755 33.4399C105.011 32.9781 103.988 33.5323 103.988 33.5323L103.43 27.6207L101.849 33.9941C101.849 33.9941 100.082 37.6888 101.57 44.8012C102.314 48.4035 103.337 51.8212 104.825 55.4235V55.3311C106.127 58.8411 107.429 62.3511 108.731 65.9535C111.056 71.5879 113.567 77.0376 115.799 80.8247C116.822 82.5797 118.682 85.3508 121.844 86.4592C127.145 88.2142 131.516 84.6118 131.795 84.4271C139.886 77.4995 148.628 71.1261 153.091 65.584L145.001 56.1625Z" fill="#B17762"/>
<path d="M43.9136 126.731C46.1455 124.976 47.4475 128.024 50.1445 131.165C52.8414 134.398 56.0034 135.968 58.5143 137.353C60.9323 138.647 65.9542 139.94 67.2562 140.217C68.4652 140.494 68.1862 140.494 66.4192 142.526C64.7452 144.558 64.1872 148.068 65.3962 149.823C66.6052 151.578 69.0231 152.502 69.9531 153.056C70.8831 153.61 71.0691 154.349 70.2321 155.735C69.3951 157.12 65.8612 160.353 65.8612 160.353C60.3743 156.474 51.1674 148.53 46.3315 135.598C45.1226 132.458 44.3786 129.502 43.9136 126.731Z" fill="#FFC72C"/>
<path d="M76.554 133.197C78.693 136.707 80.8319 140.125 82.9709 143.635C78.879 147.145 74.7871 150.655 70.6951 154.165C70.6021 153.703 70.4161 153.426 69.8581 153.056C68.9282 152.502 66.5102 151.578 65.3012 149.823C64.0922 148.068 64.5572 144.558 66.3242 142.526C67.0682 141.603 67.5332 140.864 67.9052 140.494L76.554 133.197Z" fill="#B17762"/>
<path d="M68.6515 157.675C68.6515 157.675 65.1175 152.964 59.7236 151.302" stroke="#152934" stroke-width="0.635546" stroke-miterlimit="10" stroke-linecap="round" stroke-linejoin="round"/>
<path d="M70.5106 155.273C70.5106 155.273 63.2567 152.964 63.1637 147.053C63.0707 141.049 63.0707 140.402 63.0707 140.402C61.6758 139.94 60.2808 139.294 58.6998 138.555C56.9328 137.723 55.4449 136.892 54.0499 136.061C53.3989 138.37 52.7479 140.587 52.0969 142.896" stroke="#152934" stroke-width="0.635546" stroke-miterlimit="10" stroke-linecap="round" stroke-linejoin="round"/>
<path d="M54.1426 151.579C50.6086 146.037 47.9117 142.435 46.1447 138.093C44.3778 133.752 42.2388 127.933 42.3318 127.748C42.4248 127.563 42.9828 126.455 44.0058 126.732C44.0058 126.732 46.1447 134.214 49.8647 139.571C53.5846 144.929 54.9796 147.053 57.7695 149.547C60.6525 152.133 61.3965 152.318 63.3494 155.459C65.3024 158.599 65.8604 160.354 65.8604 160.354C65.8604 160.354 62.9774 163.033 62.3264 163.217C61.6755 163.402 60.7455 162.478 60.2805 161.832L54.1426 151.579Z" fill="white"/>
<path d="M63.9062 139.386L63.9993 141.88L65.3942 142.064V139.755" stroke="#152934" stroke-width="0.635546" stroke-miterlimit="10" stroke-linecap="round" stroke-linejoin="round"/>
<path d="M167.506 182.984C164.716 182.337 166.204 179.474 167.041 175.409C167.785 171.345 167.041 167.835 166.576 165.064C166.018 162.293 163.879 157.675 163.321 156.566C162.763 155.458 163.042 155.643 165.646 155.735C168.343 155.735 171.319 153.98 171.97 151.856C172.528 149.823 171.784 147.329 171.598 146.313C171.412 145.297 171.97 144.651 173.551 144.374C175.132 144.097 179.875 144.836 179.875 144.836C180.34 151.578 179.968 163.679 172.993 175.502C171.226 178.458 169.366 180.859 167.506 182.984Z" fill="#FFC72C"/>
<path d="M151.883 153.795C153.278 149.916 154.58 146.129 155.975 142.249C161.276 143.173 166.67 144.097 171.971 145.021C171.692 145.298 171.599 145.759 171.599 146.314C171.785 147.33 172.529 149.824 171.971 151.856C171.413 153.888 168.344 155.735 165.647 155.735C164.531 155.735 163.601 155.828 163.043 155.828L151.883 153.795Z" fill="#B17762"/>
<path d="M175.968 144.374C175.968 144.374 174.48 150.101 176.712 155.273" stroke="#152934" stroke-width="0.635546" stroke-miterlimit="10" stroke-linecap="round" stroke-linejoin="round"/>
<path d="M172.901 144.559C172.901 144.559 175.691 151.579 171.134 155.458C166.577 159.337 166.019 159.799 166.019 159.799C166.484 161.185 166.949 162.663 167.321 164.325C167.786 166.173 168.065 167.928 168.344 169.498C170.483 168.574 172.715 167.558 174.854 166.635" stroke="#152934" stroke-width="0.635546" stroke-miterlimit="10" stroke-linecap="round" stroke-linejoin="round"/>
<path d="M180.434 159.337C178.295 165.526 177.179 169.867 174.947 174.024C172.715 178.181 169.46 183.446 169.274 183.538C169.088 183.63 167.786 183.815 167.414 182.891C167.414 182.891 171.878 176.518 173.645 170.237C175.505 164.048 176.249 161.647 176.435 157.767C176.621 153.98 176.342 153.241 177.551 149.731C178.76 146.221 179.69 144.743 179.69 144.743C179.69 144.743 183.596 145.297 184.154 145.667C184.712 146.036 184.526 147.422 184.34 148.069L180.434 159.337Z" fill="white"/>
<path d="M164.716 159.615L166.576 157.952L165.925 156.751L164.065 158.229" stroke="#152934" stroke-width="0.635546" stroke-miterlimit="10" stroke-linecap="round" stroke-linejoin="round"/>
<path d="M112.826 124.607C111.059 126.547 107.711 130.703 107.897 136.153C107.99 140.587 110.408 144.189 113.198 147.053C116.825 150.655 121.475 152.872 126.404 153.796C136.82 155.735 158.395 159.707 158.395 159.707L163.789 137.908L141.563 134.398C182.017 116.294 181.552 107.981 181.552 107.981C164.161 95.8807 143.051 94.4028 128.357 104.009C118.778 110.29 114.593 119.804 112.826 124.607Z" fill="#ADC0FD"/>
<path d="M141.655 134.398L126.962 139.017" stroke="#7996F9" stroke-width="0.635546" stroke-miterlimit="10" stroke-linecap="round" stroke-linejoin="round"/>
<path d="M134.308 119.342C146.119 120.635 164.346 123.037 164.346 123.037L166.113 121.559L181.737 107.981C181.737 107.981 181.737 107.981 181.737 107.889L175.041 101.608L172.251 98.6517C172.158 98.7441 171.972 98.7441 171.879 98.8365L157.836 96.0654C157.836 96.0654 124.543 89.0454 108.361 100.222C92.1796 111.399 67.907 133.659 67.907 133.659L80.1828 152.04L112.825 124.607C112.825 124.607 118.684 118.234 126.124 118.603" fill="#ADC0FD"/>
<path d="M112.824 124.608C112.824 124.608 118.683 118.234 126.123 118.604C127.517 118.696 129.842 118.881 132.632 119.158C133.19 119.25 133.748 119.25 134.306 119.343C146.117 120.636 164.345 123.037 164.345 123.037" stroke="#7996F9" stroke-width="0.635546" stroke-miterlimit="10" stroke-linecap="round" stroke-linejoin="round"/>
<path d="M187.223 48.496C183.317 38.8897 172.343 39.2592 172.343 39.2592L171.971 37.4118L154.115 41.1065V43.6005C154.115 43.6005 151.232 45.9097 150.023 50.1586C149.093 53.2991 149.558 55.8854 149.744 57.1786C151.139 65.5841 150.767 74.1743 151.604 82.6722C151.883 85.4432 152.348 89.7845 152.813 95.1419C159.23 96.3427 165.554 97.5434 171.971 98.7442L174.854 101.7L181.736 108.166L187.409 113.523C198.476 95.419 191.129 58.1023 187.223 48.496Z" fill="#D0DBFF"/>
<path d="M149.836 50.8048C149.65 51.5437 139.42 58.3789 139.42 58.3789L151.417 70.6639" fill="#D0DBFF"/>
<path d="M149.836 50.8048C149.371 52.6521 149.278 54.7766 149.743 57.1782C150.58 61.6118 150.952 66.1379 151.324 70.6639" stroke="#ADC0FD" stroke-width="0.635546" stroke-miterlimit="10" stroke-linecap="round" stroke-linejoin="round"/>
<path d="M186.48 65.4916L185.178 93.4792C184.992 95.7884 184.248 100.222 180.714 102.993C179.319 104.102 178.017 104.656 176.529 105.118C170.391 107.057 162.952 107.519 156.814 107.704C151.885 107.704 146.863 107.704 141.841 107.704C140.539 107.704 139.237 107.704 137.935 107.704C137.935 107.704 135.889 107.889 134.215 108.628C132.541 109.366 131.239 109.366 131.239 109.366C129.1 109.551 127.333 109.736 126.031 109.828C125.659 109.828 124.729 109.921 124.264 109.459C124.171 109.366 123.892 109.089 123.892 108.812C123.892 108.258 124.543 107.704 125.752 107.334C124.264 107.334 122.962 107.242 121.474 107.242C120.73 107.242 120.079 106.595 120.172 105.857C120.265 105.302 120.73 104.748 121.474 104.748C120.079 104.84 119.056 104.379 118.684 103.64C118.684 103.547 118.591 103.363 118.591 103.085C118.777 102.439 120.079 101.977 121.939 102.069C120.916 101.885 120.079 101.423 120.079 100.684C120.079 100.407 120.079 100.222 120.079 100.222C120.079 100.222 120.265 99.7602 120.916 99.4831C122.59 98.8365 131.704 99.4831 131.704 99.4831C132.262 99.4831 132.727 99.4831 133.378 99.5755C132.541 98.6518 131.89 97.8205 131.518 97.3586C131.053 96.8044 130.681 96.435 130.774 95.9731C130.867 95.6036 131.332 95.2342 131.797 95.2342C132.076 95.2342 132.355 95.3265 133.471 96.2502C134.122 96.8044 134.308 96.9892 134.68 97.3586C135.238 97.9128 135.982 98.4671 136.633 98.8365C137.842 99.3907 139.051 99.2984 139.702 99.206C141.655 98.9289 146.026 98.5594 151.978 98.0976C154.489 97.9128 157.093 97.5434 159.697 96.9892C163.138 96.2502 167.043 95.3265 171.414 94.3105C172.065 84.15 172.809 73.8971 173.46 63.7366" fill="#B17762"/>
<path d="M126.031 107.057H128.821" stroke="#152934" stroke-width="0.635546" stroke-miterlimit="10" stroke-linecap="round" stroke-linejoin="round"/>
<path d="M121.381 105.21H127.891" stroke="#152934" stroke-width="0.635546" stroke-miterlimit="10" stroke-linecap="round" stroke-linejoin="round"/>
<path d="M122.31 102.439H127.89" stroke="#152934" stroke-width="0.635546" stroke-miterlimit="10" stroke-linecap="round" stroke-linejoin="round"/>
<path d="M173.273 50.8048L172.25 63.4592L187.688 66.0455C187.688 66.0455 189.362 56.9934 188.525 52.375" fill="#D0DBFF"/>
<path d="M173.273 50.8048L172.25 63.4592L187.688 66.0455C187.688 66.0455 189.362 56.9934 188.525 52.375" stroke="#ADC0FD" stroke-width="0.635546" stroke-miterlimit="10" stroke-linecap="round" stroke-linejoin="round"/>
<path d="M103.338 29.0985C103.059 26.2351 102.873 23.464 102.594 20.6006L102.501 18.7533C102.408 17.8296 103.338 17.0906 104.268 17.2754L111.986 19.1227C112.637 19.3075 113.195 19.8617 113.195 20.6006C114.125 28.9138 114.962 37.1345 115.892 45.4477C115.892 45.6324 115.892 46.0019 115.706 46.279C115.427 46.6484 114.962 46.7408 113.939 46.9255C113.66 47.0179 112.73 47.1103 110.87 47.4798C109.475 47.7569 108.824 47.7569 108.638 47.8492C106.965 48.2187 106.593 48.1263 106.128 47.9416C106.035 47.8492 105.849 47.7569 105.756 47.4798C105.756 47.3874 105.663 47.3874 105.663 47.295C105.57 46.9255 105.57 46.7408 105.57 46.5561L103.338 29.0985Z" fill="#7996F9"/>
<path d="M115.8 43.785C112.824 44.1544 109.662 44.5239 106.686 44.8934C105.756 36.6726 104.919 28.3595 103.989 20.1387C107.058 20.6929 110.313 21.6166 113.382 22.0785C114.126 29.4679 114.963 36.3955 115.8 43.785Z" fill="#F0F4FF"/>
<path d="M103.802 20.0464C106.964 20.693 110.033 21.2472 113.195 21.8937" stroke="#ADC0FD" stroke-width="0.635546" stroke-miterlimit="10" stroke-linecap="round" stroke-linejoin="round"/>
<path d="M106.595 44.8935C109.571 44.524 112.64 44.1545 115.616 43.8774" stroke="#ADC0FD" stroke-width="0.635546" stroke-miterlimit="10" stroke-linecap="round" stroke-linejoin="round"/>
<path d="M104.64 17.3673C104.454 17.3673 104.175 17.3673 103.989 17.552C103.617 17.8291 103.617 18.3833 103.617 18.5681C103.617 20.4154 106.407 43.2304 106.779 45.909C106.779 46.2785 107.151 46.8327 107.616 47.2022C107.895 47.3869 108.174 47.5717 108.36 47.664" stroke="#ADC0FD" stroke-width="0.635546" stroke-miterlimit="10" stroke-linecap="round" stroke-linejoin="round"/>
<path d="M104.453 39.7212C105.197 40.2754 105.941 40.922 106.685 41.4762C106.871 41.6609 107.057 41.8456 107.243 42.0304C107.522 42.3075 107.987 42.3999 108.359 42.2151C108.731 42.0304 108.824 41.5685 108.638 41.1067C110.033 41.4762 109.475 39.5364 109.475 39.5364C109.568 39.5364 109.754 39.5364 109.847 39.4441C110.126 39.2593 110.126 38.9822 110.219 38.8899C110.405 38.1509 109.754 37.3196 109.661 37.1349C108.731 35.8417 107.336 35.1028 105.569 33.9944C104.825 33.5325 103.802 34.0867 103.802 34.0867" fill="#965C4D"/>
<path d="M103.617 35.8413C103.803 35.8413 104.082 35.7489 104.454 35.8413C105.291 35.9337 105.849 36.2108 106.221 36.3955C107.802 37.2268 109.29 39.2589 109.476 39.536" stroke="#152934" stroke-width="0.635546" stroke-miterlimit="10" stroke-linecap="round"/>
<path d="M108.548 41.0143C108.548 41.0143 106.13 38.428 105.014 38.0585C103.898 37.6891 103.34 37.7814 103.34 37.7814" stroke="#152934" stroke-width="0.635546" stroke-miterlimit="10" stroke-linecap="round"/>
<path d="M103.712 33.994L101.573 34.5482" stroke="#152934" stroke-width="0.635546" stroke-miterlimit="10" stroke-linecap="round" stroke-linejoin="round"/>
<path d="M250.089 174.578L243.393 174.393C238.278 174.393 234 170.144 234 165.064C234 162.478 235.023 160.076 236.697 158.413C238.371 156.843 240.696 155.827 243.114 155.735C243.858 150.1 248.694 145.851 254.553 145.851C259.296 145.851 263.295 148.53 264.969 152.502H266.643C272.781 152.502 277.803 157.49 277.803 163.586C277.803 166.542 276.501 169.405 274.548 171.345C272.595 173.285 269.712 174.578 266.736 174.578H261.714H250.089Z" fill="#D0DBFF"/>
<path d="M252.137 159.153L255.857 156.012L259.67 159.153" stroke="#ADC0FD" stroke-width="1.27109" stroke-miterlimit="10" stroke-linecap="round" stroke-linejoin="round"/>
<path d="M255.765 156.012V164.88" stroke="#ADC0FD" stroke-width="1.27109" stroke-miterlimit="10" stroke-linecap="round" stroke-linejoin="round"/>
<path d="M250.649 164.695V168.39H260.879V164.695" stroke="#ADC0FD" stroke-width="1.27109" stroke-miterlimit="10" stroke-linecap="round" stroke-linejoin="round"/>
<path d="M235.862 86.5514C227.678 86.5514 221.075 91.9087 221.075 98.5592C221.075 101.146 222.098 103.547 223.865 105.579L221.726 112.414L229.91 109.551C231.77 110.198 233.723 110.567 235.862 110.567C244.046 110.567 250.649 105.21 250.649 98.5592C250.649 92.0011 244.046 86.6437 235.862 86.5514Z" fill="#FFC72C"/>
<path d="M230.285 100.591C231.055 100.591 231.68 99.9706 231.68 99.2054C231.68 98.4402 231.055 97.8199 230.285 97.8199C229.514 97.8199 228.89 98.4402 228.89 99.2054C228.89 99.9706 229.514 100.591 230.285 100.591Z" fill="white"/>
<path d="M235.862 100.591C236.633 100.591 237.257 99.9706 237.257 99.2054C237.257 98.4402 236.633 97.8199 235.862 97.8199C235.092 97.8199 234.467 98.4402 234.467 99.2054C234.467 99.9706 235.092 100.591 235.862 100.591Z" fill="white"/>
<path d="M241.532 100.591C242.303 100.591 242.927 99.9706 242.927 99.2054C242.927 98.4402 242.303 97.8199 241.532 97.8199C240.762 97.8199 240.137 98.4402 240.137 99.2054C240.137 99.9706 240.762 100.591 241.532 100.591Z" fill="white"/>
<path d="M52.6544 64.5683H7.08521V92.1864H52.6544V64.5683Z" fill="#D0DBFF"/>
<path d="M13.3169 64.5683V70.2028" stroke="#ADC0FD" stroke-width="0.635546" stroke-miterlimit="10" stroke-linecap="round" stroke-linejoin="round"/>
<path d="M26.1521 64.5683V70.2028" stroke="#ADC0FD" stroke-width="0.635546" stroke-miterlimit="10" stroke-linecap="round" stroke-linejoin="round"/>
<path d="M41.4954 64.5683V70.2028" stroke="#ADC0FD" stroke-width="0.635546" stroke-miterlimit="10" stroke-linecap="round" stroke-linejoin="round"/>
<path d="M6.99536 70.2023H52.5646" stroke="#ADC0FD" stroke-width="0.635546" stroke-miterlimit="10" stroke-linecap="round" stroke-linejoin="round"/>
<path d="M13.3169 86.5514V92.1858" stroke="#ADC0FD" stroke-width="0.635546" stroke-miterlimit="10" stroke-linecap="round" stroke-linejoin="round"/>
<path d="M26.1521 86.5514V92.1858" stroke="#ADC0FD" stroke-width="0.635546" stroke-miterlimit="10" stroke-linecap="round" stroke-linejoin="round"/>
<path d="M41.4954 86.5514V92.1858" stroke="#ADC0FD" stroke-width="0.635546" stroke-miterlimit="10" stroke-linecap="round" stroke-linejoin="round"/>
<path d="M6.99536 86.5514H52.5646" stroke="#ADC0FD" stroke-width="0.635546" stroke-miterlimit="10" stroke-linecap="round" stroke-linejoin="round"/>
<path d="M26.0571 78.2384V73.8971L29.7771 76.0216L33.497 78.146L29.7771 80.2705L26.0571 82.395V78.2384Z" fill="white"/>
<path d="M5.41064 166.727C5.41064 166.727 8.66559 170.237 14.9895 170.976C21.3134 171.715 28.5673 170.052 30.5202 168.482C32.4732 166.912 34.0542 164.048 24.7543 162.016" fill="#ADC0FD"/>
<path d="M0.482429 159.707L0.0174372 163.032C0.0174372 163.032 -0.261558 165.711 1.41241 166.08C3.08638 166.45 5.69034 166.819 9.31728 166.912C12.9442 166.912 22.709 164.88 22.709 164.88C22.709 164.88 25.22 164.418 24.662 161.924C24.104 159.43 23.732 157.767 23.732 156.105C23.639 154.442 23.36 151.024 17.4081 150.008C11.5492 148.9 4.66736 150.747 3.17938 152.502C1.78441 154.442 1.04042 156.382 0.482429 159.707Z" fill="#D0DBFF"/>
<path d="M13.6873 149.731C13.6873 149.454 13.2223 149.177 12.7574 149.269C12.2924 149.269 11.9204 149.639 12.0134 149.916C12.0134 150.193 12.4784 150.47 12.9434 150.378C13.3153 150.378 13.6873 150.1 13.6873 149.731Z" fill="#ADC0FD"/>
<path d="M6.15233 154.812C6.33832 154.812 6.52432 154.535 6.43132 154.35C6.43132 154.165 6.15233 153.981 5.96633 154.073C5.78033 154.073 5.59434 154.35 5.68733 154.535C5.78033 154.719 5.96633 154.904 6.15233 154.812Z" stroke="#ADC0FD" stroke-width="0.635546" stroke-miterlimit="10" stroke-linecap="round" stroke-linejoin="round"/>
<path d="M15.4536 155.181C15.6396 155.181 15.8256 154.904 15.7326 154.719C15.7326 154.535 15.4536 154.35 15.2676 154.442C15.0816 154.442 14.8956 154.719 14.9886 154.904C15.0816 155.089 15.2676 155.181 15.4536 155.181Z" stroke="#ADC0FD" stroke-width="0.635546" stroke-miterlimit="10" stroke-linecap="round" stroke-linejoin="round"/>
<path d="M21.7803 154.165C21.9663 154.165 22.1523 153.888 22.0593 153.703C22.0593 153.518 21.7803 153.334 21.5943 153.426C21.4083 153.426 21.2223 153.703 21.3153 153.888C21.4083 154.072 21.5943 154.165 21.7803 154.165Z" stroke="#ADC0FD" stroke-width="0.635546" stroke-miterlimit="10" stroke-linecap="round" stroke-linejoin="round"/>
<path d="M9.87388 166.912L9.78088 155.366C9.78088 155.366 9.68788 151.856 12.4778 150.286" stroke="#ADC0FD" stroke-width="0.635546" stroke-miterlimit="10" stroke-linecap="round" stroke-linejoin="round"/>
<path d="M13.5938 150.008C13.5938 150.008 18.8017 151.763 19.8246 153.98C20.8476 156.197 21.4986 161.924 22.0566 165.064" stroke="#ADC0FD" stroke-width="0.635546" stroke-miterlimit="10" stroke-linecap="round" stroke-linejoin="round"/>
<path d="M72.587 7.36143L78.9112 13.6425L88.4778 4.1395V8.0374H90.9194V0H82.8275V2.42501H86.7517L78.9112 10.2129L72.587 3.93186L57.4526 18.9633L59.1794 20.6778L72.587 7.36143Z" fill="#D0DBFF"/>
<path d="M235.062 21.9403C234.553 21.5746 233.874 21.3526 233.142 21.3526C231.558 21.3526 230.213 22.3947 230.213 23.7369C230.213 25.1011 231.557 26.1438 233.142 26.1438C233.812 26.1438 234.534 25.923 235.091 25.5142C235.65 25.1042 236.048 24.4998 236.048 23.7369V10.0216V9.9401L235.969 9.91922C232.395 8.97176 228.797 8.02424 225.2 7.09926L225.068 7.06525V7.20185V19.1472C224.547 18.7801 223.884 18.5554 223.147 18.5554C221.539 18.5554 220.218 19.6217 220.218 20.9623C220.218 22.304 221.54 23.3466 223.147 23.3466C223.817 23.3466 224.54 23.1258 225.096 22.72C225.655 22.3131 226.053 21.7144 226.053 20.9623V10.7005C229.056 11.4939 232.059 12.287 235.062 13.0589V21.9403Z" fill="white" stroke="white" stroke-width="0.211849"/>
</svg>
