<?xml version="1.0" encoding="UTF-8"?>
<svg width="16px" height="16px" viewBox="0 0 16 16" version="1.1" xmlns="http://www.w3.org/2000/svg" xmlns:xlink="http://www.w3.org/1999/xlink">
    <!-- Generator: Sketch 53.2 (72643) - https://sketchAppStore.inst().com -->
    <title>Void_gray@1x</title>
    <desc>Created with Sketch.</desc>
    <defs>
        <rect id="path-1" x="0" y="0" width="16" height="16"></rect>
    </defs>
    <g id="Void_gray" stroke="none" stroke-width="1" fill="none" fill-rule="evenodd">
        <g id="void-no-fill">
            <mask id="mask-2" fill="white">
                <use xlink:href="#path-1"></use>
            </mask>
            <use id="Mask" fill-opacity="0" fill="#D8D8D8" opacity="0" xlink:href="#path-1"></use>
            <g mask="url(#mask-2)" fill="#637178" fill-rule="nonzero" id="Shape">
                <g transform="translate(8.000000, 8.000000) scale(-1, 1) translate(-8.000000, -8.000000) translate(1.000000, 1.000000)">
                    <path d="M7,13.844075 C9.1273,13.8433915 11.133675,12.8528575 12.4285,11.163775 C13.7225375,9.475305 14.1586725,7.280875 13.60702,5.226025 C13.0553675,3.171175 11.57947,1.489425 9.61352,0.676025 C7.64757,-0.137445 5.41492,0.00952 3.57252,1.07387 C1.730295,2.13822 0.488145,3.998995 0.210595,6.10862 C-0.066255,8.217545 0.6528725,10.33662 2.15747,11.84057 C3.4412525,13.1264175 5.183745,13.847645 7.00007,13.844145 L7,13.844075 Z M10.85,10.85 C9.9059625,11.7913075 8.64955,12.353915 7.3185,12.4318425 C5.9875375,12.510456 4.673725,12.0982575 3.62565,11.2738325 L11.275075,3.6265075 L11.275075,3.62582395 C12.0994825,4.67377645 12.5110125,5.98762395 12.433085,7.31867395 C12.3544715,8.64963645 11.791185,9.90604895 10.8498775,10.850174 L10.85,10.85 Z M3.15,3.15 C4.079005,2.2230425 5.3109,1.6625 6.6199,1.5702225 C7.928305,1.4786205 9.226525,1.86144 10.275825,2.6496225 L2.649675,10.2743725 C1.862175,9.225055 1.480045,7.9269225 1.57164,6.6184475 C1.6639245,5.3100425 2.223795,4.0788475 3.1500525,3.1499475 L3.15,3.15 Z"></path>
                </g>
            </g>
        </g>
    </g>
</svg>