<svg xmlns="http://www.w3.org/2000/svg" width="68" height="68" viewBox="0 0 68 68">
    <defs>
        <linearGradient id="a" x1="0%" y1="0%" y2="100%">
            <stop offset="0%" stop-color="#E6F7FF"/>
            <stop offset="100%" stop-color="#8BDCFB"/>
        </linearGradient>
    </defs>
    <g fill="none" fill-rule="evenodd">
        <circle cx="34" cy="34" r="34" fill="#EEF2F5" fill-opacity=".5" fill-rule="nonzero"/>
        <g transform="translate(6 6)">
            <circle cx="28" cy="28" r="28" fill="url(#a)"/>
            <path fill="#2FB7EC" fill-rule="nonzero" d="M47.62 28c-.358-.475-8.858-11.683-19.624-11.683C17.237 16.317 8.729 27.525 8.379 28c-.225.3-.225.7 0 1 .35.475 8.858 11.683 19.617 11.683 10.766 0 19.266-11.208 19.625-11.683.225-.3.225-.7 0-1z"/>
            <path fill="#FFF" d="M27.996 37.35c-4.884 0-8.85-3.967-8.85-8.85 0-4.883 3.966-8.85 8.85-8.85 4.883 0 8.858 3.967 8.858 8.85 0 4.883-3.975 8.85-8.858 8.85z"/>
            <path fill="#326BEE" fill-rule="nonzero" d="M27.998 23.816a4.687 4.687 0 0 0-4.683 4.683 4.687 4.687 0 0 0 9.375 0 4.69 4.69 0 0 0-4.692-4.683z"/>
            <g stroke="#FFF" stroke-width="2" transform="translate(36)">
                <circle cx="10" cy="10" r="9" fill="#326BEE"/>
                <path stroke-linecap="round" stroke-linejoin="round" d="M6 10.314l2.96 2.648L14.42 7"/>
            </g>
        </g>
    </g>
</svg>
