<svg xmlns="http://www.w3.org/2000/svg" xmlns:xlink="http://www.w3.org/1999/xlink" width="68" height="68" viewBox="0 0 68 68">
    <defs>
        <linearGradient id="b" x1="0%" y1="0%" y2="100%">
            <stop offset="0%" stop-color="#E6F7FF"/>
            <stop offset="100%" stop-color="#8BDCFB"/>
        </linearGradient>
        <circle id="a" cx="28" cy="28" r="28"/>
        <rect id="e" width="56" height="42" y="7" rx="3"/>
        <filter id="d" width="114.3%" height="138.1%" x="-7.1%" y="-9.5%" filterUnits="objectBoundingBox">
            <feOffset dy="8" in="SourceAlpha" result="shadowOffsetOuter1"/>
            <feColorMatrix in="shadowOffsetOuter1" values="0 0 0 0 0.184313725 0 0 0 0 0.717647059 0 0 0 0 0.925490196 0 0 0 1 0"/>
        </filter>
        <path id="f" d="M0 0h12v12H0z"/>
    </defs>
    <g fill="none" fill-rule="evenodd">
        <circle cx="34" cy="34" r="34" fill="#EEF2F5" fill-opacity=".5" fill-rule="nonzero"/>
        <g transform="translate(6 6)">
            <mask id="c" fill="#fff">
                <use xlink:href="#a"/>
            </mask>
            <use fill="url(#b)" xlink:href="#a"/>
            <g mask="url(#c)">
                <use fill="#000" filter="url(#d)" xlink:href="#e"/>
                <use fill="#FFF" xlink:href="#e"/>
            </g>
            <g mask="url(#c)">
                <g transform="translate(38 33)">
                    <mask id="g" fill="#fff">
                        <use xlink:href="#f"/>
                    </mask>
                    <g mask="url(#g)">
                        <path fill="#BC7633" fill-rule="nonzero" d="M11.996 7.614l.004.075v.61c0 .656-.53 1.19-1.175 1.19h-.128c-.347.564-.96.931-1.654.931a1.954 1.954 0 0 1-1.653-.932h-.884c-.346.565-.96.932-1.654.932a1.954 1.954 0 0 1-1.653-.932h-.045A1.185 1.185 0 0 1 1.98 8.3v-.561a1.041 1.041 0 0 1-.392-1.213 1.04 1.04 0 0 1-.67-1.32 1.038 1.038 0 0 1 .21-2.05h1.089c.218-.496.632-.856 1.219-.856h4.314a1.5 1.5 0 0 1 1.254.664l.063.065.417 1.345.589.05c.82.018 1.483.71 1.483 1.54v.793c.242.209.404.517.441.857z"/>
                        <path fill="#FBBA7B" d="M10.855 5.963c0-.458-.372-.84-.817-.84l-1.084-.091-.507-1.635c-.015-.015-.015-.03-.03-.046A.802.802 0 0 0 7.75 3H3.435c-.416 0-.643.459-.688.856h-1.62a.334.334 0 0 0-.327.336c0 .183.149.336.327.336h1.597a.34.34 0 0 1 .283.336.334.334 0 0 1-.327.336h-.79a.334.334 0 0 0-.327.336c0 .183.148.336.326.336h1.45c.178 0 .327.152.327.336a.334.334 0 0 1-.327.336h-.762a.34.34 0 0 0-.352.336c0 .183.148.336.327.336h.484a.475.475 0 0 0-.357.473v.61c0 .26.208.49.475.49h.495c.149.534.639.931 1.203.931.58 0 1.054-.397 1.203-.932H7.84c.148.535.638.932 1.203.932.579 0 1.054-.397 1.203-.932h.579A.485.485 0 0 0 11.3 8.3v-.611c-.03-.275-.223-.489-.445-.504V5.963z"/>
                    </g>
                </g>
            </g>
            <rect width="44" height="6" x="6" y="12" fill="#AFC7D1" fill-opacity=".4" rx="1"/>
            <rect width="16" height="6" x="16" y="36" fill="#AFC7D1" fill-opacity=".4" rx="1"/>
            <path fill="#326BEE" fill-rule="nonzero" d="M9 26.975L7.146 28l.354-2.17L6 24.291l2.073-.317L9 22l.927 1.975 2.073.317-1.5 1.537.354 2.171zM17 26.975L15.146 28l.354-2.17-1.5-1.538 2.073-.317L17 22l.927 1.975 2.073.317-1.5 1.537.354 2.171zM25 26.975L23.146 28l.354-2.17-1.5-1.538 2.073-.317L25 22l.927 1.975 2.073.317-1.5 1.537.354 2.171zM33 26.975L31.146 28l.354-2.17-1.5-1.538 2.073-.317L33 22l.927 1.975 2.073.317-1.5 1.537.354 2.171zM41 26.975L39.146 28l.354-2.17-1.5-1.538 2.073-.317L41 22l.927 1.975 2.073.317-1.5 1.537.354 2.171z"/>
            <path fill="#4A5F6E" d="M14 40.477c0 1.647-1.047 2.935-3.185 3.16V45H9.433v-1.348C7.905 43.517 6.8 42.918 6 42.094l1.12-1.617a4.26 4.26 0 0 0 2.313 1.273v-2.351c-1.498-.375-3.128-.974-3.128-2.996 0-1.527 1.179-2.815 3.128-3.01V32h1.382v1.423c1.178.12 2.167.599 2.952 1.333l-1.149 1.557c-.509-.494-1.149-.808-1.803-.973v2.097C12.327 37.84 14 38.44 14 40.477zm-5.57-4.253c0 .464.465.718 1.134.898V35.22c-.742.075-1.135.464-1.135 1.004zm2.254 5.57c.829-.119 1.207-.583 1.207-1.077 0-.555-.51-.81-1.207-1.019v2.097z"/>
        </g>
    </g>
</svg>
