<svg width="24" height="24" viewBox="0 0 24 24" fill="none" xmlns="http://www.w3.org/2000/svg">
<path d="M12 24C18.6274 24 24 18.6274 24 12C24 5.37258 18.6274 0 12 0C5.37258 0 0 5.37258 0 12C0 18.6274 5.37258 24 12 24Z" fill="#2FB7EC"/>
<path d="M10.5129 14.3386L17.2049 7.32289C17.6156 6.89237 18.2814 6.89237 18.692 7.32289C19.1027 7.7534 19.1027 8.45141 18.692 8.88192L11.2564 16.6771C10.8458 17.1076 10.18 17.1076 9.76933 16.6771L5.30799 12C4.89734 11.5695 4.89734 10.8715 5.30799 10.441C5.71865 10.0104 6.38445 10.0104 6.7951 10.441L10.5129 14.3386Z" fill="white"/>
</svg>