<svg xmlns="http://www.w3.org/2000/svg" xmlns:xlink="http://www.w3.org/1999/xlink" width="200" height="200" viewBox="0 0 200 200">
    <defs>
        <path id="a" d="M0 0h200v200H0z"/>
        <linearGradient id="c" x1="54.082%" x2="45.918%" y1="0%" y2="100%">
            <stop offset="0%" stop-color="#8BDCFB"/>
            <stop offset="100%" stop-color="#CEF2FD"/>
        </linearGradient>
        <linearGradient id="d" x1="15.879%" x2="84.121%" y1="0%" y2="100%">
            <stop offset="0%" stop-color="#1ACC94"/>
            <stop offset="100%" stop-color="#2EE3AA"/>
        </linearGradient>
        <linearGradient id="e" x1="70.674%" x2="70.674%" y1="0%" y2="100%">
            <stop offset="0%" stop-color="#FFF"/>
            <stop offset="100%" stop-color="#FFF" stop-opacity=".1"/>
        </linearGradient>
        <linearGradient id="f" x1="53.666%" x2="53.666%" y1="25.024%" y2="100%">
            <stop offset="0%" stop-color="#FFF"/>
            <stop offset="100%" stop-color="#92F1D3"/>
        </linearGradient>
        <linearGradient id="g" x1="0%" y1="49.959%" y2="50.041%">
            <stop offset="0%" stop-color="#1ACC94"/>
            <stop offset="100%" stop-color="#2EE3AA"/>
        </linearGradient>
        <linearGradient id="h" x1="100%" x2="0%" y1="49.426%" y2="51.42%">
            <stop offset="0%" stop-color="#FFE380"/>
            <stop offset="100%" stop-color="#FFD560"/>
        </linearGradient>
        <linearGradient id="i" x1="0%" y1="3.92%" y2="96.08%">
            <stop offset="0%" stop-color="#8BDCFB" stop-opacity=".4"/>
            <stop offset="100%" stop-color="#2FB7EC"/>
        </linearGradient>
        <linearGradient id="j" x1="100%" x2="0%" y1="100%" y2="0%">
            <stop offset="0%" stop-color="#FFE380"/>
            <stop offset="100%" stop-color="#FFD560"/>
        </linearGradient>
        <path id="k" d="M0 0h160v24H0z"/>
        <path id="m" d="M0 .343h30.01V21.13H0z"/>
        <path id="o" d="M.036.114h15.416v21.91H.036z"/>
    </defs>
    <g fill="none" fill-rule="evenodd">
        <path fill="#F8FAFB" d="M-1152-96H528V904h-1680z"/>
        <path fill="#CEF2FD" d="M-1152 0H528v200h-1680z"/>
        <g>
            <mask id="b" fill="#fff">
                <use xlink:href="#a"/>
            </mask>
            <use fill="#CEF2FD" xlink:href="#a"/>
            <g mask="url(#b)">
                <g transform="translate(18 19)">
                    <path fill="#2EE3AA" fill-rule="nonzero" d="M12 27h140v96H12z"/>
                    <path fill="url(#c)" fill-rule="nonzero" d="M12 83v42H0z" transform="matrix(1 0 0 -1 0 208)"/>
                    <path fill="url(#c)" fill-rule="nonzero" d="M164 83v42h-12z" transform="rotate(180 158 104)"/>
                    <rect width="28" height="2" x="75" y="37" fill="#FFF" fill-rule="nonzero" rx="1"/>
                    <rect width="8" height="7" x="64" y="37" fill="#FFF" fill-rule="nonzero" rx="1"/>
                    <rect width="8" height="7" x="64" y="48" fill="#FFF" fill-rule="nonzero" rx="1"/>
                    <rect width="28" height="2" x="75" y="42" fill="#FFF" fill-rule="nonzero" rx="1"/>
                    <rect width="28" height="2" x="75" y="48" fill="#FFF" fill-rule="nonzero" rx="1"/>
                    <rect width="24" height="2" x="75" y="53" fill="#FFF" fill-rule="nonzero" rx="1"/>
                    <rect width="24" height="2" x="64" y="59" fill="#FFF" fill-opacity=".4" fill-rule="nonzero" rx="1"/>
                    <rect width="24" height="2" x="64" y="64" fill="#FFF" fill-opacity=".4" fill-rule="nonzero" rx="1"/>
                    <rect width="16" height="2" x="64" y="69" fill="#FFF" fill-opacity=".4" fill-rule="nonzero" rx="1"/>
                    <path fill="url(#d)" d="M12 43h38v46H12z"/>
                    <g fill-rule="nonzero" transform="translate(18 37)">
                        <path fill="#FFF" d="M38 40l-6 6H0V0h38v40z"/>
                        <rect width="28.5" height="2.421" x="4.75" y="7.263" fill="#AFC7D1" rx="1.211"/>
                        <rect width="22.167" height="2.421" x="7.917" y="12.105" fill="#AFC7D1" fill-opacity=".4" rx="1.211"/>
                        <rect width="28.5" height="2.421" x="4.75" y="31.474" fill="#AFC7D1" rx="1.211"/>
                        <rect width="22.167" height="2.421" x="4.75" y="36.316" fill="#AFC7D1" rx="1.211"/>
                        <rect width="28.5" height="2.421" x="4.75" y="21.789" fill="#AFC7D1" rx="1.211"/>
                        <rect width="28.5" height="2.421" x="4.75" y="26.632" fill="#AFC7D1" rx="1.211"/>
                    </g>
                    <g transform="translate(12 70)">
                        <path fill="url(#e)" d="M14.443 31.621c7.475-.039 7.637-9.494 12.318-9.552 4.681-.059 6.707 15.492 12.49 15.394 5.783-.099 6.776-11.982 12.567-12 5.79-.02 5.535 7.247 12.647 7.204 7.113-.043 6.089-17.637 11.942-17.637s3.688 7.931 12.062 7.914c8.375-.018 5.088-21.851 12.63-21.851 7.54 0 5.034 26.255 12.229 26.276 7.195.02 6.18-9.645 12.23-9.613 6.049.03 3.503 13.588 12.578 13.53H140V53H0V27.063c4.645 3.065 9.459 4.584 14.443 4.558z"/>
                        <path fill="url(#f)" d="M13.917 19.124c6.116.1 5.234 15.592 12.86 15.659 7.626.067 4.634-8.984 12.474-9.11 7.84-.125 5.999-18.459 12.58-18.459 6.58 0 4.184 13.465 12.695 13.453 8.51-.01 5.392-1.397 11.881-1.354 6.49.042 4.964 17.808 12.062 17.77 7.1-.036 6.902-9.15 12.618-9.164 5.715-.015 6.042 7.545 12.206 7.521 6.163-.023 6.405-6.177 12.318-6.254 5.913-.076 6.936-12.087 12.566-12.08H140V53H0V17.45c5.2 1.05 9.84 1.607 13.917 1.674z"/>
                        <ellipse cx="51.692" cy="7.649" fill="#FFE380" rx="1.077" ry="1.093"/>
                        <ellipse cx="16.077" cy="20.093" fill="#FFE380" rx="1.077" ry="1.093"/>
                        <ellipse cx="37.154" cy="26.227" fill="#FFE380" rx="1.077" ry="1.093"/>
                        <ellipse cx="114.154" cy="27.32" fill="#FFE380" rx="1.077" ry="1.093"/>
                        <ellipse cx="125.462" cy="18.031" fill="#FFE380" rx="1.077" ry="1.093"/>
                        <ellipse cx="77" cy="14.753" fill="#FFE380" rx="1.077" ry="1.093"/>
                        <ellipse cx="101.231" cy="1.093" fill="#FFE380" rx="1.077" ry="1.093"/>
                        <ellipse cx="26.923" cy="21.856" fill="#FFE380" rx="1.077" ry="1.093"/>
                        <ellipse cx="101.077" cy="28.093" fill="#FFE380" rx="1.077" ry="1.093"/>
                        <ellipse cx="64.615" cy="20.763" fill="#FFE380" rx="1.077" ry="1.093"/>
                    </g>
                    <path fill="#FFF" d="M6 19h152v8H6z"/>
                    <path fill="#1ACC94" d="M12 123h140v2H12z"/>
                    <path fill="url(#g)" d="M12 27h140v4H12z"/>
                    <path fill="#8BDCFB" d="M81 15h2v4h-2z"/>
                    <circle cx="82" cy="8" r="7" stroke="#8BDCFB" stroke-width="2"/>
                    <g fill-rule="nonzero">
                        <path fill="#FFE380" d="M164.284 63.364l-19.799 19.799-4.242-4.243 19.799-19.799z"/>
                        <path fill="#4A90E2" d="M165.698 61.95l-1.414 1.414-4.242-4.243 1.414-1.414a1 1 0 0 1 1.414 0l2.828 2.829a1 1 0 0 1 0 1.414z"/>
                        <path fill="url(#h)" d="M3 0h28v3H3z" transform="rotate(135 70.519 65.085)"/>
                        <path fill="#FFF" d="M144.485 83.163l-6.364 2.121 2.122-6.364z"/>
                        <path fill="#4A5F6E" d="M141.303 84.224l-3.182 1.06 1.061-3.182z"/>
                    </g>
                    <g transform="translate(118 11)">
                        <rect width="40" height="24" fill="#2FB7EC" rx="2"/>
                        <path fill="url(#i)" fill-rule="nonzero" d="M2 0h17l6 24H2a2 2 0 0 1-2-2V2a2 2 0 0 1 2-2z"/>
                        <g fill="#FFF" transform="translate(11 10)">
                            <rect width="4" height="4" rx="1"/>
                            <rect width="4" height="4" x="7" fill-opacity=".8" rx="1"/>
                            <rect width="4" height="4" x="14" fill-opacity=".6" rx="1"/>
                        </g>
                        <path fill="#2FB7EC" d="M4.356 24C3.86 25.454 3.074 26.802 2 28.044c3.18 0 5.835-1.348 7.961-4.044H4.356z"/>
                    </g>
                    <path fill="#FFE380" d="M146 27h22a2 2 0 0 1 2 2v12a2 2 0 0 1-2 2h-22a2 2 0 0 1-2-2V29a2 2 0 0 1 2-2z"/>
                    <path fill="url(#j)" d="M2 0h10l4 16H2a2 2 0 0 1-2-2V2a2 2 0 0 1 2-2z" transform="translate(144 27)"/>
                    <g fill="#FFF" transform="translate(151 34)">
                        <rect width="3" height="3" fill-opacity=".6" rx="1"/>
                        <rect width="3" height="3" x="5" fill-opacity=".8" rx="1"/>
                        <rect width="3" height="3" x="10" rx="1"/>
                    </g>
                    <path fill="#FFD560" d="M165.956 43c.497 1.454 1.283 2.802 2.357 4.044-3.181 0-5.835-1.348-7.962-4.044h5.605z"/>
                    <path stroke="#FFF" stroke-linecap="round" stroke-linejoin="round" d="M121.755 44.59c-4.823 6.977-8.406 6.839-11.163 5.32-3.468-1.909 3.389-9.179 3.389-1.11 0 2.767-1.899 8.94-10.998 9.213"/>
                    <g transform="translate(2 139)">
                        <mask id="l" fill="#fff">
                            <use xlink:href="#k"/>
                        </mask>
                        <g mask="url(#l)" opacity=".7">
                            <g transform="translate(0 .923)">
                                <mask id="n" fill="#fff">
                                    <use xlink:href="#m"/>
                                </mask>
                                <path fill="#2FB7EC" d="M16.69 19.307c-.678.393-1.303.837-1.987 1.136-2.02.883-4.07.99-6.04-.124-1.932-1.093-2.96-2.823-3.071-5.11-.052-1.058.158-2.092.294-3.132.182-1.384.372-2.768.561-4.178-.115-.066-.215-.137-.325-.184-1.6-.68-3.189-1.394-4.808-2.021C.269 5.289-.228 4.242.1 3.219c.19-.593.295-1.214.464-1.815.063-.225.17-.452.308-.635.345-.454.662-.528 1.182-.306 2.754 1.177 5.509 2.353 8.26 3.54.813.35 1.222 1.042 1.112 1.928-.216 1.735-.46 3.466-.694 5.199-.118.875-.215 1.755-.362 2.625-.255 1.512 1.102 3.036 2.911 2.298.936-.381 1.557-1.103 1.715-2.169.17-1.147.324-2.296.491-3.443.135-.924.782-1.5 1.698-1.513a60.919 60.919 0 0 1 1.72 0c.947.015 1.446.624 1.314 1.588-.152 1.112-.302 2.225-.457 3.337-.213 1.525 1.121 2.708 2.58 2.317.901-.24 1.968-1.233 2.11-2.533.203-1.865.496-3.72.736-5.58.087-.676.388-1.18.99-1.467.158-.075.341-.124.513-.127.735-.014 1.47-.026 2.204.005.254.011.525.112.75.242.283.163.403.445.354.8-.31 2.224-.584 4.454-.929 6.673-.297 1.912-1.248 3.464-2.654 4.736-1.04.941-2.196 1.645-3.553 1.959-2.286.527-4.363.155-6.125-1.543-.026-.024-.063-.035-.049-.028" mask="url(#n)"/>
                            </g>
                            <g transform="translate(48.736)">
                                <mask id="p" fill="#fff">
                                    <use xlink:href="#o"/>
                                </mask>
                                <path fill="#2FB7EC" d="M5.984 8.682c.174-.116.308-.193.428-.29 1.141-.915 2.44-1.307 3.85-1.345.773-.02 1.529.05 2.255.357 1.818.769 2.895 2.497 2.933 4.59.022 1.243-.215 2.445-.374 3.659-.212 1.619-.474 3.23-.713 4.846-.15 1.005-.683 1.508-1.625 1.52-.47.006-.942.01-1.413-.004a2.117 2.117 0 0 1-.614-.101c-.526-.181-.704-.489-.626-1.054.295-2.132.608-4.262.882-6.397.073-.567.096-1.16.03-1.727-.175-1.494-1.178-2.087-2.528-1.877-1.756.274-2.9 1.492-3.23 3.38-.246 1.407-.42 2.827-.621 4.242-.102.715-.178 1.436-.296 2.149-.15.913-.695 1.384-1.56 1.39-.542.002-1.083-.005-1.624.001-.309.004-.59-.077-.825-.291a.765.765 0 0 1-.266-.733c.522-3.712 1.029-7.427 1.54-11.141.376-2.74.75-5.479 1.13-8.218.122-.877.565-1.415 1.377-1.49a9.788 9.788 0 0 1 2.132.06c.651.082.831.44.737 1.13-.32 2.336-.635 4.672-.951 7.007-.012.09-.015.18-.028.337" mask="url(#p)"/>
                            </g>
                            <path fill="#2FB7EC" d="M43.882 6.462c1.452.026 2.802.386 4.04 1.149.924.57 1.072 1.427.389 2.273-.208.257-.409.52-.617.778-.504.625-.804.686-1.507.263a6.395 6.395 0 0 0-1.876-.776c-.707-.163-1.419-.191-2.128-.032a2.343 2.343 0 0 0-.709.288c-.577.357-.56 1.071.05 1.356.514.24 1.064.404 1.606.576.525.168 1.062.3 1.59.456a7.798 7.798 0 0 1 2.146.996c.58.387.924.939 1.067 1.617.21 1.001.094 1.982-.274 2.92-.598 1.526-1.741 2.527-3.213 3.176a7.68 7.68 0 0 1-3.605.636c-2-.124-3.867-.677-5.49-1.91-.475-.361-.538-.722-.175-1.218.347-.476.698-.948 1.06-1.413.349-.449.801-.526 1.327-.266.69.342 1.374.704 2.083 1.002.85.356 1.757.371 2.664.312a2.02 2.02 0 0 0 1.07-.4c.388-.28.58-.965.053-1.317-.363-.241-.749-.47-1.156-.618-.705-.26-1.452-.41-2.15-.685a11.65 11.65 0 0 1-1.92-.952c-1.052-.66-1.428-1.684-1.353-2.891.114-1.849 1.1-3.158 2.61-4.118 1.044-.664 2.197-1.018 3.434-1.099.328-.021.656-.068.984-.103M34.075 7.403c.313 0 .627-.012.94.003.61.028.918.46.833 1.144l-1.272 10.19c-.084.678-.173 1.357-.266 2.034-.109.792-.63 1.332-1.346 1.362-.527.022-1.056.027-1.581-.007a1.63 1.63 0 0 1-.698-.23c-.265-.156-.377-.424-.33-.793.451-3.505.891-7.012 1.334-10.519.074-.587.159-1.173.212-1.762.082-.896.774-1.539 1.483-1.428.227.035.46.006.691.006M32.185 3.622C32.183 2.062 33.422.98 34.807.925c1.281-.052 2.155 1.102 1.943 2.391-.191 1.162-1.36 2.284-2.696 2.22-1.18-.057-1.896-.953-1.87-1.914M84.382 7.417c.04-.297 0-.496-.12-.598-.119-.101-.35-.152-.69-.152h-3.47l-.407 3h4.382l.305-2.25zm-5.02 4.712l-.41 3.024h3.493c.34 0 .583-.066.728-.199.143-.133.243-.402.298-.809l.273-2.016h-4.382zm-6.897-2.462h4.516l.406-3h-3.626c-.385 0-.636.047-.752.14-.117.094-.2.321-.248.68l-.296 2.18zm-.615 4.548c-.056.407-.024.665.095.774.119.11.386.164.801.164h3.492l.41-3.024h-4.516l-.282 2.086zm6.128-11.908c.074-.547.246-.915.516-1.103.27-.187.62-.28 1.05-.28.401 0 .71.105.925.316.216.21.29.566.223 1.067l-.245 1.805h4.85c.845 0 1.401.191 1.668.574.267.383.344.996.23 1.84l-1.181 8.72c-.115.845-.358 1.466-.731 1.865-.373.398-.982.597-1.827.597h-4.85l-.187 1.384c-.055.406-.028.699.081.879.11.18.244.277.405.293 1 .062 1.919.097 2.755.106.837.007 1.727-.02 2.67-.083.314-.016.566-.184.758-.504.191-.32.328-.887.408-1.7.05-.593.212-1.019.485-1.277.271-.258.638-.387 1.097-.387.49 0 .822.121.997.363.175.243.235.668.183 1.278-.32 3.016-1.64 4.657-3.96 4.923-.33.031-.752.055-1.266.07-.513.016-1.048.024-1.605.024-.556 0-1.104-.004-1.644-.012a21.14 21.14 0 0 1-1.382-.058c-.645-.063-1.164-.169-1.56-.317-.395-.149-.693-.38-.895-.691-.203-.313-.312-.735-.33-1.266-.017-.532.03-1.212.143-2.04l.133-.985h-5.005c-.845 0-1.397-.199-1.654-.597-.258-.4-.329-1.02-.215-1.864l1.181-8.72c.114-.845.353-1.458.717-1.841.363-.383.967-.574 1.812-.574h5.005l.245-1.805zM108.487 12.742c.049.08.097.147.143.202.045.056.093.123.143.203l.314-2.31c.05-.364.012-.61-.115-.737s-.418-.19-.873-.19h-2.367a.689.689 0 0 1 .155.119c.047.047.105.095.174.143.566.523 1.027.98 1.383 1.368.357.389.704.79 1.043 1.202zm-7.894-5.689c.04.255.058.461.052.62h4.733c.42-.635.735-1.167.946-1.595.13-.286.26-.516.39-.69h-6.667a.26.26 0 0 1 .052.119.25.25 0 0 0 .051.118c.124.318.215.568.274.75.058.183.114.41.169.678zm4.078 9.973c.043-.317 0-.523-.132-.619-.131-.095-.417-.143-.857-.143h-3.959c-.334 0-.548.239-.644.714l-.126.762c-.061.334-.034.552.081.655.115.103.324.155.627.155h4.074c.257 0 .45-.052.578-.155.128-.103.211-.298.25-.583l.108-.786zm-3.086-7.069c.282.27.358.603.227 1-.13.396-.35.738-.663 1.023-.448.397-.877.758-1.285 1.083a47.03 47.03 0 0 1-1.22.94 5.886 5.886 0 0 1 .735-.048h5.802c.515 0 .938.072 1.267.215a36.47 36.47 0 0 0-1.12-1.213c-.339-.35-.643-.651-.911-.905-.406-.365-.604-.722-.594-1.072.01-.348.2-.657.57-.927a.682.682 0 0 1 .09-.072.692.692 0 0 0 .09-.071h-3.05c.026.031.046.047.062.047zm-1.964.381c.158-.158.315-.301.469-.428h-2.686c-.486 0-.81.067-.972.202-.162.135-.27.393-.321.774l-.318 2.332c.169-.127.352-.246.549-.357a16.578 16.578 0 0 0 1.635-1.06c.48-.356 1.029-.844 1.644-1.463zm7.368 8.045c-.126.92-.402 1.555-.829 1.904-.427.349-1.065.524-1.914.524h-5.803c-.85 0-1.436-.175-1.76-.524-.325-.35-.424-.984-.298-1.904l.273-2c.075-.555.194-.983.357-1.285-.312.175-.591.274-.837.298-.246.024-.452-.131-.62-.464L94.51 22.62c-.07.507-.217.864-.442 1.07-.226.207-.543.31-.953.31-.44 0-.757-.095-.95-.286-.195-.19-.254-.555-.18-1.094l1.69-12.4c.124-.905.372-1.556.745-1.953.373-.396.999-.595 1.879-.595h1.843a19.857 19.857 0 0 0-.195-.488 4.912 4.912 0 0 1-.173-.487c-.173-.508-.114-.944.18-1.31h-3.46c-.485 0-.816-.079-.991-.238-.176-.158-.232-.467-.17-.928.059-.428.199-.734.422-.916.221-.182.575-.274 1.06-.274h7.374l-.05-.143c-.16-.603-.147-1.03.04-1.285.185-.254.47-.444.851-.571.396-.127.755-.143 1.076-.048.32.095.551.35.692.762.063.317.141.746.235 1.285h7.805c.485 0 .815.08.991.238.176.159.232.468.17.928-.06.429-.2.734-.421.917-.223.182-.576.273-1.062.273h-3.982a.891.891 0 0 1 .233.631c-.004.246-.108.568-.314.964a10.6 10.6 0 0 1-.185.357l-.182.333h1.638c.865 0 1.44.199 1.728.595.287.397.369 1.048.246 1.952L110.3 20.453c-.198 1.46-.643 2.408-1.332 2.845-.689.436-1.725.496-3.107.178-.575-.127-.908-.357-.999-.69-.09-.333-.04-.706.153-1.119.232-.476.5-.745.804-.809.305-.063.65-.008 1.036.167.355.174.589.186.7.035.112-.15.198-.448.259-.892l.698-5.117c-.289.222-.526.321-.712.297-.187-.024-.374-.123-.562-.297.086.365.094.809.022 1.332l-.272 2zM122.082 4.034c.269.552.353.973.252 1.264h2.82a1.643 1.643 0 0 0-.086-.195 1.04 1.04 0 0 1-.082-.219l-.211-.505a3.153 3.153 0 0 0-.36-.655 10.89 10.89 0 0 1-.325-.493 3.621 3.621 0 0 1-.376-.62.861.861 0 0 1-.08-.472.874.874 0 0 1 .195-.424c.11-.138.273-.291.493-.46a1.6 1.6 0 0 1 .512-.276c.189-.06.378-.072.569-.034.19.038.376.13.56.275.181.146.35.364.505.655.206.353.4.682.583.988.183.307.325.582.426.827.307.704.322 1.24.045 1.608h1.534c.5-.566.929-1.099 1.284-1.597.355-.497.705-1.006 1.049-1.527.344-.52.645-.85.905-.988s.588-.168.983-.092c.464.123.756.349.875.678.12.33-.013.792-.397 1.39-.323.475-.596.87-.82 1.183a9.464 9.464 0 0 1-.788.953h1.669c.812 0 1.416.146 1.811.436.396.291.539.827.43 1.608-.055.383-.158.8-.312 1.252a6.982 6.982 0 0 1-.723 1.459 2.932 2.932 0 0 1-.493.62c-.155.138-.314.23-.478.275a1.19 1.19 0 0 1-.523.024 6.686 6.686 0 0 1-.623-.138c-.449-.123-.666-.371-.65-.747.014-.375.294-.953.84-1.734.3-.428.158-.643-.429-.643H118.77c-.196 0-.332.03-.408.092-.076.061-.124.16-.143.298l-.238 1.7c-.063.444-.223.758-.482.942-.26.184-.606.276-1.043.276-.436 0-.752-.08-.947-.242-.195-.16-.259-.486-.19-.976l.293-2.09c.117-.842.399-1.455.844-1.838.444-.382 1.095-.574 1.953-.574h1.286l.003-.023a3.282 3.282 0 0 0-.35-.563 139.06 139.06 0 0 1-.682-.93c-.329-.444-.466-.804-.412-1.08.053-.275.218-.543.496-.804.296-.29.633-.44 1.01-.448.377-.007.737.219 1.078.678.292.383.55.746.772 1.091.222.345.38.617.472.815m1.2 10.75c-.43-.137-.718-.32-.858-.55-.141-.23-.126-.475.046-.736.172-.26.514-.524 1.025-.792.511-.267 1.204-.517 2.079-.747h-5.956c-.887 0-1.273-.413-1.157-1.24.062-.444.215-.758.46-.942.243-.184.59-.275 1.042-.275h10.151c.646 0 1.145.118 1.496.355.35.238.496.564.438.977a1.654 1.654 0 0 1-.435.93c-.239.253-.67.463-1.296.632-.343.092-.653.18-.928.264-.275.085-.548.18-.818.287-.271.107-.56.234-.865.38l-1.088.516c.615.337 1.112.704 1.492 1.103h5.933c.497 0 .82.103.972.31.151.206.2.51.144.907a1.68 1.68 0 0 1-.397.896c-.215.245-.57.367-1.066.367h-4.715a5.524 5.524 0 0 1-.515 2.309 5.707 5.707 0 0 1-1.3 1.78 6.001 6.001 0 0 1-1.83 1.149 5.554 5.554 0 0 1-2.087.413c-.377 0-.742-.019-1.098-.057a12.398 12.398 0 0 1-1.104-.173c-.38-.076-.784-.176-1.21-.298a43.702 43.702 0 0 1-1.416-.437c-.681-.183-1.116-.41-1.304-.677-.188-.268-.164-.655.073-1.16.234-.49.544-.77.93-.839.385-.068.901.004 1.548.218.861.291 1.581.517 2.16.678.58.16 1.155.241 1.727.241.36 0 .688-.088.984-.264a2.78 2.78 0 0 0 .773-.689c.22-.283.395-.616.524-1 .128-.382.207-.78.235-1.194h-10.896c-.482 0-.803-.118-.965-.356-.163-.237-.22-.531-.17-.884.056-.398.196-.704.422-.919.226-.214.579-.321 1.06-.321h8.212a1.884 1.884 0 0 0-.226-.08 1.932 1.932 0 0 1-.225-.081M155.648 7.456c.423 0 .728.095.913.286.013-.318.119-.706.318-1.166.172-.382.236-.627.19-.738-.045-.111-.241-.167-.59-.167h-7.594c-.272 0-.447.036-.525.107-.078.071-.135.242-.171.512l-.172 1.261a.92.92 0 0 1-.058.262c.228-.238.593-.357 1.091-.357h6.598zm-9.576 7.07c-.5 0-.822-.123-.97-.369-.149-.246-.192-.59-.132-1.036.062-.46.198-.789.406-.987.209-.199.562-.298 1.061-.298h11.132c.484 0 .81.1.98.298.17.198.223.528.16.987-.06.445-.205.79-.435 1.036s-.587.369-1.07.369h-2.676l-.709 5.213a8.085 8.085 0 0 0-.069.679c-.007.166.006.289.04.369.035.079.086.126.152.143.065.015.159.023.28.023.227 0 .406-.02.54-.06a.587.587 0 0 0 .33-.261c.087-.135.152-.338.196-.607.045-.27.092-.643.142-1.12.051-.38.21-.737.474-1.07.264-.334.615-.5 1.054-.5.423 0 .747.115.973.345.226.23.293.678.203 1.345-.151 1-.33 1.813-.536 2.44-.206.627-.476 1.11-.81 1.452-.333.341-.75.571-1.25.69-.5.12-1.112.179-1.838.179-.65 0-1.171-.056-1.564-.167-.393-.111-.686-.317-.88-.619-.193-.301-.295-.718-.306-1.25-.01-.531.041-1.218.156-2.058l.702-5.166h-1.451c-.212 1.222-.502 2.297-.87 3.226-.368.928-.827 1.749-1.378 2.463a9.601 9.601 0 0 1-1.97 1.904 17.07 17.07 0 0 1-2.625 1.548c-.583.285-1.038.38-1.365.285-.327-.095-.572-.38-.734-.857-.145-.492-.098-.892.141-1.201.238-.31.673-.616 1.304-.917 1.32-.603 2.361-1.42 3.121-2.452.76-1.031 1.311-2.364 1.655-4h-1.564zm-6.715 2.857c.123-.35.323-.568.6-.655.276-.087.56-.091.852-.012.673.159 1.072-.167 1.198-.976.051-.27.078-.575.08-.916a6.167 6.167 0 0 0-.087-1.036 6.858 6.858 0 0 0-.248-1.012 3.877 3.877 0 0 0-.403-.868c-.402-.603-.61-1.163-.622-1.679-.013-.515.106-.98.359-1.392.334-.571.652-1.186.953-1.845.302-.658.61-1.321.928-1.987.125-.254.183-.425.172-.512-.011-.087-.084-.131-.22-.131h-1.225c-.242 0-.403.051-.486.155-.082.103-.144.313-.188.63l-1.663 12.236zM157.65 2.91c.529 0 .96.051 1.294.154.333.104.584.262.751.477.167.213.265.496.293.844.029.35.01.77-.057 1.262a8.308 8.308 0 0 1-.073.452 4.15 4.15 0 0 1-.099.393 9.149 9.149 0 0 1-.408 1.083c-.255.54-.535.901-.838 1.083-.305.183-.675.203-1.109.06-.278-.063-.483-.167-.615-.31.008.048-.003.19-.036.429-.06.444-.195.774-.406.988-.21.214-.565.32-1.064.32h-6.597c-.5 0-.825-.106-.977-.32-.152-.214-.198-.544-.138-.988.026-.19.05-.31.071-.357-.302.333-.695.5-1.178.5-.484 0-.809-.115-.974-.346-.165-.23-.215-.583-.15-1.059l.245-1.81.093-.677c.033-.246.075-.448.127-.607-.369.714-.758 1.491-1.167 2.332a64.67 64.67 0 0 1-1.19 2.333c-.138.238-.213.425-.223.56-.011.135.015.25.078.345.57.81.957 1.71 1.163 2.702.205.992.233 2.035.084 3.13-.364 2.682-1.79 3.888-4.278 3.618-.358-.031-.619-.115-.782-.25a.905.905 0 0 1-.313-.536l-.537 3.952c-.066.491-.212.837-.435 1.035-.223.199-.547.298-.97.298-.439 0-.752-.088-.94-.262-.188-.175-.244-.531-.171-1.07l2.51-18.473c.136-1 .396-1.69.78-2.071.385-.38.962-.571 1.733-.571h3.174c.741 0 1.266.226 1.575.678.308.452.372 1.012.191 1.678.218-.38.522-.642.912-.785.39-.143.924-.214 1.604-.214h2.88c-.26-.984.107-1.62 1.098-1.905.865-.253 1.424.08 1.677 1 .015.111.04.238.073.38a7.4 7.4 0 0 1 .1.525h3.219z"/>
                        </g>
                    </g>
                </g>
            </g>
            <path fill="#AFC7D1" fill-opacity=".4" fill-rule="nonzero" d="M68 96h6v6z" mask="url(#b)" transform="matrix(-1 0 0 1 142 0)"/>
        </g>
    </g>
</svg>
