<svg xmlns="http://www.w3.org/2000/svg" xmlns:xlink="http://www.w3.org/1999/xlink" width="85" height="28" viewBox="0 0 85 28">
    <defs>
        <path id="a" d="M0 0h85v28H0z"/>
    </defs>
    <g fill="none" fill-rule="evenodd">
        <mask id="b" fill="#fff">
            <use xlink:href="#a"/>
        </mask>
        <use fill="#D8D8D8" fill-opacity="0" fill-rule="nonzero" xlink:href="#a"/>
        <g fill="#152934" mask="url(#b)">
            <path d="M42.162 6.19c-.506-.594-.695-1.322-.568-2.184.127-.86.53-1.589 1.212-2.182.68-.594 1.45-.89 2.312-.89.861 0 1.545.296 2.05.89.507.593.696 1.322.569 2.182-.127.862-.531 1.59-1.211 2.183-.682.594-1.453.89-2.314.89-.86 0-1.544-.296-2.05-.89M35.227 8.64c-1.03 0-1.987.827-2.129 1.837l-1.046 7.524c-.115.82-.513 1.53-1.193 2.133-.68.602-1.447.904-2.297.904-.827 0-1.498-.296-2.01-.887-.513-.59-.71-1.306-.592-2.15l.63-4.566c.02-.911-.673-1.624-1.628-1.624h-2.503c-.955 0-1.85.713-2.085 1.624l-.651 4.566c-.119.844-.517 1.56-1.196 2.15-.68.591-1.432.887-2.258.887-.828 0-1.503-.302-2.026-.904-.523-.603-.727-1.314-.613-2.133l1.402-9.983c.148-.972-.435-1.987-1.326-2.4 0 0-10.554-4.339-11.242-4.618C1.768.72.98 1.35.71 2.401L.064 4.912C-.206 5.964.403 7.16 1.416 7.57l7.074 2.888-1.06 7.544c-.356 2.53.245 4.694 1.806 6.489 1.559 1.796 3.615 2.693 6.17 2.693 2.357 0 4.51-.783 6.457-2.35 1.555 1.567 3.5 2.35 5.835 2.35 2.554 0 4.862-.897 6.926-2.693 2.064-1.795 3.274-3.96 3.63-6.49l1.128-8.1c.097-.693-.665-1.26-1.694-1.26h-2.46zM45.797 8.4h-2.128c-.89 0-1.719.736-1.842 1.635l-2.153 15.617c-.084.618.575 1.123 1.465 1.123h2.127c.89 0 1.719-.736 1.842-1.635L47.26 9.523c.084-.618-.575-1.123-1.464-1.123M83.48 10.736c-1.263-1.46-2.975-2.19-5.134-2.19-2.16 0-4.177.463-6.165 2.142l1.408-9.545C73.677.514 72.981 0 72.04 0h-2.25c-.941 0-1.817.75-1.946 1.666L64.23 25.982c-.089.628.607 1.143 1.55 1.143h2.248c.924 0 1.783-.722 1.937-1.616h.003l1.132-7.584c.23-1.532.83-2.694 1.805-3.484.974-.791 2.037-1.187 3.186-1.187 2.324 0 3.262 1.51 2.812 4.525l-1.206 8.18c-.089.628.608 1.143 1.55 1.143h2.248c.942 0 1.817-.75 1.948-1.666l1.39-8.861c.362-2.433-.088-4.38-1.352-5.839M61.282 13.916c.32-.014.597-.18.9-.539l1.036-1.232c.438-.522.45-1.325.026-1.874-.186-.298-.726-.586-1.218-.835l-.056-.028c-1.559-.787-3.09-1.084-5.122-.992-2.206.1-4.089.707-5.595 1.803-1.518 1.104-2.376 2.502-2.549 4.154-.176 1.677.432 2.93 1.805 3.722.652.383 1.249.676 1.772.87.52.194 1.285.42 2.274.677.961.25 1.693.532 2.175.839.441.283.638.585.602.926-.037.356-.234.643-.602.878-.383.245-.893.384-1.517.412a8.757 8.757 0 0 1-4.715-1.089l-1.07-.552a1.148 1.148 0 0 0-.578-.122 1.16 1.16 0 0 0-.844.403l-1.539 1.9a.79.79 0 0 0-.175.657c.043.222.18.414.387.543l.003.002c.501.368 1.025.69 1.556.957.694.355 1.44.645 2.218.858 1.455.4 2.897.572 4.287.508 2.093-.095 3.903-.71 5.378-1.827 1.484-1.124 2.33-2.586 2.515-4.344.187-1.785-.363-3.051-1.635-3.764-.651-.36-1.227-.626-1.712-.792-.481-.163-1.296-.393-2.421-.684-1.112-.286-1.91-.548-2.373-.778-.407-.201-.579-.472-.54-.852.075-.71.859-1.104 2.33-1.171 1.182-.054 2.368.2 3.52.752a13.917 13.917 0 0 1 .76.422h-.001c.273.141.5.202.718.192"/>
        </g>
    </g>
</svg>
