<svg width="100" height="101" viewBox="0 0 100 101" fill="none" xmlns="http://www.w3.org/2000/svg">
<path fill-rule="evenodd" clip-rule="evenodd" d="M34.7493 47.7217C34.7147 47.6963 34.6736 47.6653 34.6255 47.628C34.3787 47.4362 34.0362 47.1448 33.6193 46.7619C32.7895 45.9998 31.7359 44.9413 30.6718 43.7416C29.6057 42.5396 28.5557 41.226 27.7156 39.9528C26.856 38.6503 26.3038 37.5201 26.1017 36.6674L22.2095 37.5895C22.5712 39.1165 23.4213 40.7077 24.377 42.1559C25.352 43.6335 26.5301 45.1002 27.6793 46.3958C28.8305 47.6937 29.9795 48.8501 30.9137 49.708C31.3788 50.1351 31.8088 50.505 32.1715 50.7868C32.3512 50.9264 32.5369 51.062 32.7169 51.1766C32.8406 51.2554 33.1557 51.4542 33.5459 51.5541C34.5384 51.8082 35.7497 51.7934 36.6359 51.7826C36.6876 51.7819 36.7382 51.7813 36.7876 51.7808C37.7851 51.7696 38.4675 51.7762 38.9298 51.8698C38.9722 51.9137 39.0519 52.0078 39.1606 52.1877C39.4055 52.5932 39.6484 53.1968 39.8499 53.9287C40.0473 54.6459 40.1818 55.4021 40.2482 56.0609C40.319 56.7643 40.296 57.1993 40.2698 57.3368L40.2344 57.5222L40.2344 57.7111C40.2345 61.074 38.9393 62.4036 37.1845 64.2051C36.7126 64.6896 36.2074 65.2082 35.6852 65.8097C34.4467 67.2363 33.33 69.014 33.0732 71.6575C32.8256 74.2062 33.3983 77.3529 35.0323 81.5289L38.7573 80.0713C37.2324 76.1743 36.8931 73.705 37.0544 72.0442C37.2066 70.4781 37.8196 69.4527 38.7058 68.4319C39.0117 68.0795 39.3751 67.7147 39.7673 67.321C41.6435 65.4378 44.1786 62.8931 44.2335 57.8776C44.3291 57.2079 44.3034 56.4077 44.2281 55.6601C44.1403 54.7889 43.9662 53.8112 43.7065 52.8673C43.4507 51.938 43.0879 50.9532 42.5846 50.1198C42.1172 49.346 41.3142 48.348 40.0356 48.0207C38.9969 47.7547 37.7546 47.7692 36.8496 47.7798C36.8135 47.7802 36.778 47.7806 36.743 47.781C35.8106 47.7914 35.1783 47.7889 34.7493 47.7217ZM34.8938 47.8194C34.8941 47.82 34.8855 47.8154 34.8671 47.8037C34.8843 47.813 34.8935 47.8188 34.8938 47.8194Z" fill="#022786"/>
<path fill-rule="evenodd" clip-rule="evenodd" d="M74.6954 50.1486C75.5339 49.0086 76.7997 48.2947 78.433 47.9339L79.2958 51.8397C78.3324 52.0525 78.0337 52.361 77.9178 52.5185C77.7651 52.7262 77.6378 53.0723 77.5709 53.7916C77.541 54.1128 77.527 54.4456 77.5104 54.8429C77.5086 54.8859 77.5068 54.9296 77.5049 54.9741C77.4866 55.4065 77.4632 55.9099 77.4029 56.4193C77.2822 57.4401 76.9957 58.6739 76.128 59.7798C74.3691 62.0391 72.1871 62.5577 70.4282 62.6936C70.0073 62.7261 69.6027 62.7378 69.252 62.7464C69.2085 62.7475 69.1662 62.7485 69.1247 62.7496C68.8155 62.757 68.5598 62.7632 68.3162 62.7781C67.8263 62.8081 67.6089 62.8662 67.5163 62.9042C67.4898 62.9352 67.4254 63.0164 67.332 63.1856C67.1582 63.5001 66.9866 63.925 66.7787 64.4933C66.737 64.6071 66.6932 64.7289 66.6475 64.856C66.4863 65.3039 66.3013 65.8177 66.105 66.2813C65.8547 66.8724 65.5046 67.5883 64.9835 68.1815C64.2566 69.0091 63.2426 69.5494 62.3401 69.9309C61.402 70.3275 60.3473 70.6472 59.3586 70.9251C58.9664 71.0353 58.5929 71.1368 58.2322 71.2349C57.6333 71.3977 57.0699 71.5509 56.5151 71.7182C55.6319 71.9845 54.9969 72.2235 54.5929 72.4507C54.5888 72.4553 54.5732 72.4736 54.5499 72.5161C54.4923 72.6213 54.4138 72.8253 54.3459 73.1926C54.2271 73.8355 54.1963 74.6002 54.1557 75.6104C54.1463 75.8447 54.1363 76.0924 54.1246 76.3547C54.0114 78.8908 53.7483 82.5031 51.1224 85.2919L48.2102 82.5499C49.7233 80.9429 50.0138 78.7479 50.1286 76.1763C50.1374 75.9797 50.1452 75.7762 50.1533 75.5681C50.1927 74.5479 50.2363 73.4191 50.4126 72.4654C50.6281 71.2999 51.1372 69.8062 52.6288 68.9662L53.6102 70.7088L52.6288 68.9662C53.4394 68.5097 54.4321 68.1684 55.3602 67.8885C55.9588 67.708 56.6253 67.5266 57.2674 67.3518C57.6158 67.2569 57.9571 67.164 58.2764 67.0743C59.2387 66.8038 60.0898 66.5395 60.7826 66.2466C61.511 65.9387 61.8531 65.6842 61.9782 65.5418C62.0694 65.438 62.2199 65.1978 62.4217 64.7214C62.5709 64.3691 62.7036 64.0008 62.8567 63.5758C62.909 63.4307 62.9636 63.279 63.0221 63.1191C63.2325 62.544 63.4937 61.8614 63.8307 61.2514C64.1563 60.662 64.6738 59.9109 65.5141 59.4376C66.4014 58.938 67.3642 58.8288 68.0722 58.7856C68.3951 58.7658 68.7306 58.7578 69.0305 58.7506C69.0721 58.7496 69.113 58.7487 69.1531 58.7477C69.4993 58.7391 69.8126 58.7293 70.1201 58.7055C71.2737 58.6164 72.1702 58.3534 72.9736 57.3203L72.98 57.312L72.9801 57.312C73.2014 57.0304 73.3498 56.6326 73.4306 55.9495C73.4712 55.6064 73.4901 55.2393 73.5085 54.8051C73.5103 54.7613 73.5122 54.7165 73.5141 54.6708C73.5299 54.2897 73.548 53.8508 73.5881 53.4208C73.677 52.4653 73.8939 51.2385 74.6954 50.1486Z" fill="#022786"/>
<path d="M27.9131 24.1092C27.9131 18.6641 32.3061 14.25 37.7252 14.25C43.1442 14.25 47.5372 18.6641 47.5372 24.1092C47.5372 26.2556 46.8547 28.2417 45.6957 29.8605L37.7252 43.0061L29.7546 29.8605C28.5956 28.2417 27.9131 26.2556 27.9131 24.1092Z" fill="#022786"/>
<path d="M62.4658 30.0459C62.4658 25.8274 65.8692 22.4077 70.0675 22.4077C74.2657 22.4077 77.6691 25.8274 77.6691 30.0459C77.6691 31.7087 77.1403 33.2474 76.2425 34.5015L70.0675 44.6858L63.8925 34.5015C62.9946 33.2474 62.4658 31.7087 62.4658 30.0459Z" fill="#022786"/>
<path fill-rule="evenodd" clip-rule="evenodd" d="M74.882 32.9303C72.5562 30.052 69.7508 27.5773 66.5873 25.6278C65.5355 26.4678 64.7896 27.6807 64.5491 29.071C67.7093 31.0288 70.4599 33.5847 72.6428 36.5808L74.5718 33.3993L74.6163 33.3373C74.7104 33.2057 74.7991 33.0699 74.882 32.9303ZM60.9035 27.1613C61.3122 25.8522 61.9916 24.6626 62.8764 23.6592C58.7948 21.8214 54.2668 20.7988 49.5001 20.7988C49.357 20.7988 49.2141 20.7997 49.0714 20.8016C49.3747 21.8518 49.5372 22.9617 49.5372 24.1092C49.5372 24.3407 49.5306 24.5706 49.5175 24.7988C53.5643 24.8013 57.4146 25.6437 60.9035 27.1613ZM74.9977 40.412L77.381 36.4813C80.3851 41.4171 82.1154 47.2135 82.1154 53.4141C82.1154 71.4271 67.513 86.0294 49.5001 86.0294C31.4871 86.0294 16.8848 71.4271 16.8848 53.4141C16.8848 44.006 20.8682 35.5283 27.2405 29.5756C27.49 30.0573 27.7715 30.5196 28.0821 30.9597L29.3673 33.0793C24.1294 38.2654 20.8848 45.4608 20.8848 53.4141C20.8848 69.2179 33.6963 82.0294 49.5001 82.0294C65.3039 82.0294 78.1154 69.2179 78.1154 53.4141C78.1154 48.7324 76.9911 44.3133 74.9977 40.412ZM30.4372 26.9468C34.6356 23.9176 39.5837 21.8627 44.9501 21.1137C45.3284 22.0363 45.5372 23.0478 45.5372 24.1092C45.5372 24.4379 45.5173 24.7616 45.4785 25.0792C40.6393 25.7598 36.1887 27.6509 32.4426 30.4363L31.4252 28.7583L31.3808 28.6962C30.9967 28.1597 30.6782 27.5728 30.4372 26.9468Z" fill="#022786"/>
<path d="M48.3125 48.2216C48.3125 44.2944 51.4809 41.1108 55.3893 41.1108C59.2977 41.1108 62.466 44.2944 62.466 48.2216C62.466 49.7696 61.9737 51.2021 61.1379 52.3696L55.3893 61.8506L49.6406 52.3696C48.8048 51.2021 48.3125 49.7696 48.3125 48.2216Z" fill="#022786"/>
</svg>
