<svg width="228" height="105" viewBox="0 0 228 105" fill="none" xmlns="http://www.w3.org/2000/svg">
<path fill-rule="evenodd" clip-rule="evenodd" d="M27.6362 66.9091C26.8329 66.9091 26.1816 67.5603 26.1816 68.3636V98.8123C26.1816 99.9747 27.4778 100.668 28.4443 100.022L34.1999 96.1757C34.705 95.8382 35.3667 95.8501 35.8593 96.2056L41.3304 100.154C42.2924 100.848 43.6362 100.161 43.6362 98.9746V68.3636C43.6362 67.5603 42.985 66.9091 42.1816 66.9091H27.6362Z" fill="#6B828F"/>
<circle cx="34.9085" cy="64" r="23.2727" fill="#BFCDD4"/>
<circle cx="34.9086" cy="64" r="17.4545" fill="#6B828F"/>
<path d="M33.6032 54.2792C34.1367 53.1981 35.6783 53.1981 36.2119 54.2792L38.4164 58.7461C38.6283 59.1754 39.0378 59.473 39.5116 59.5418L44.4411 60.2581C45.6342 60.4315 46.1105 61.8976 45.2472 62.7391L41.6802 66.2161C41.3374 66.5503 41.181 67.0318 41.2619 67.5036L42.1039 72.4132C42.3077 73.6014 41.0606 74.5076 39.9935 73.9465L35.5844 71.6285C35.1606 71.4058 34.6544 71.4058 34.2307 71.6285L29.8216 73.9466C28.7545 74.5076 27.5073 73.6014 27.7111 72.4132L28.5532 67.5036C28.6341 67.0318 28.4776 66.5503 28.1348 66.2161L24.5678 62.7391C23.7045 61.8976 24.1809 60.4315 25.3739 60.2581L30.3034 59.5418C30.7772 59.473 31.1868 59.1754 31.3986 58.7461L33.6032 54.2792Z" fill="white"/>
<mask id="mask0" style="mask-type:alpha" maskUnits="userSpaceOnUse" x="11" y="40" width="48" height="48">
<circle cx="34.9085" cy="64" r="23.2727" fill="#BFCDD4"/>
</mask>
<g mask="url(#mask0)">
<rect x="62.3574" y="26.1818" width="13.2987" height="96.4156" transform="rotate(45 62.3574 26.1818)" fill="#F7F9FA" fill-opacity="0.2"/>
</g>
<path d="M80.7275 70.1819C80.7275 69.1777 81.5416 68.3637 82.5457 68.3637H111.637C112.641 68.3637 113.455 69.1777 113.455 70.1819V88.3637C113.455 89.3678 112.641 90.1819 111.637 90.1819H82.5457C81.5416 90.1819 80.7275 89.3678 80.7275 88.3637V70.1819Z" fill="#916A00"/>
<path fill-rule="evenodd" clip-rule="evenodd" d="M87.9998 57.4546C86.9957 57.4546 86.1816 58.2686 86.1816 59.2728V97.3336C86.1816 98.7867 87.8018 99.6526 89.01 98.8453L96.2045 94.0379C96.8358 93.616 97.6629 93.6309 98.2787 94.0753L105.118 99.0109C106.32 99.8787 108 99.0195 108 97.5366V59.2728C108 58.2686 107.186 57.4546 106.182 57.4546H87.9998Z" fill="#BE8B00"/>
<circle cx="97.0909" cy="53.8182" r="29.0909" fill="#FFC72C"/>
<circle cx="97.0906" cy="53.8182" r="21.8182" fill="#BE8B00"/>
<path d="M95.4612 39.8491C96.1281 38.4977 98.0551 38.4977 98.722 39.8491L102.012 46.5154C102.277 47.052 102.789 47.424 103.381 47.51L110.738 48.579C112.229 48.7957 112.825 50.6284 111.745 51.6803L106.422 56.8693C105.994 57.287 105.798 57.8888 105.899 58.4786L107.156 65.8056C107.411 67.2909 105.852 68.4236 104.518 67.7223L97.9377 64.263C97.408 63.9845 96.7752 63.9845 96.2455 64.263L89.6655 67.7223C88.3316 68.4236 86.7726 67.2909 87.0274 65.8056L88.2841 58.4786C88.3852 57.8888 88.1897 57.287 87.7612 56.8693L82.4378 51.6803C81.3587 50.6284 81.9541 48.7957 83.4454 48.579L90.8022 47.51C91.3944 47.424 91.9063 47.052 92.1712 46.5154L95.4612 39.8491Z" fill="white"/>
<mask id="mask1" style="mask-type:alpha" maskUnits="userSpaceOnUse" x="68" y="24" width="59" height="59">
<circle cx="97.0909" cy="53.8182" r="29.0909" fill="#BFCDD4"/>
</mask>
<g mask="url(#mask1)">
<rect x="131.402" y="6.54547" width="16.6234" height="120.519" transform="rotate(45 131.402 6.54547)" fill="#F7F9FA" fill-opacity="0.2"/>
</g>
<path d="M142.541 86.5608L148.808 75.706L161.454 53.8017C162.057 52.7582 163.391 52.4006 164.435 53.0031L179.551 61.7304C180.594 62.3329 180.952 63.6673 180.349 64.7108L161.436 97.4699C160.613 98.8945 158.57 98.9311 157.697 97.5367L153.683 91.1252C153.299 90.5116 152.635 90.1285 151.912 90.1026L144.352 89.8321C142.708 89.7733 141.718 87.9854 142.541 86.5608Z" fill="#305BEF"/>
<path d="M208.73 86.5608L202.463 75.706L189.816 53.8017C189.214 52.7582 187.88 52.4006 186.836 53.0031L171.72 61.7304C170.676 62.3329 170.319 63.6673 170.921 64.7108L189.835 97.4699C190.657 98.8945 192.701 98.9311 193.574 97.5367L197.588 91.1252C197.972 90.5116 198.635 90.1285 199.359 90.1026L206.918 89.8321C208.562 89.7733 209.552 87.9854 208.73 86.5608Z" fill="#305BEF"/>
<path d="M171.272 6.88292C173.972 5.32394 177.299 5.32394 180 6.88292L209.062 23.6624C211.763 25.2214 213.426 28.1025 213.426 31.2204V64.7794C213.426 67.8974 211.763 70.7785 209.062 72.3375L180 89.117C177.299 90.6759 173.972 90.6759 171.272 89.117L142.209 72.3375C139.509 70.7785 137.846 67.8974 137.846 64.7794V31.2204C137.846 28.1025 139.509 25.2214 142.209 23.6624L171.272 6.88292Z" fill="#D0DBFF"/>
<path d="M174.545 13.7208C175.22 13.331 176.051 13.331 176.726 13.7208L204.777 29.9156C205.452 30.3054 205.868 31.0257 205.868 31.8052V64.1949C205.868 64.9744 205.452 65.6947 204.777 66.0844L176.726 82.2793C176.051 82.669 175.22 82.669 174.545 82.2793L146.494 66.0844C145.819 65.6947 145.403 64.9744 145.403 64.1949V31.8052C145.403 31.0257 145.819 30.3054 146.494 29.9156L174.545 13.7208Z" fill="#7996F9"/>
<path d="M173.315 28.6406C174.22 26.8168 176.833 26.8168 177.737 28.6406L182.199 37.6374C182.558 38.3616 183.252 38.8636 184.055 38.9798L194.031 40.4225C196.053 40.7149 196.861 43.1883 195.397 44.6079L188.179 51.611C187.598 52.1747 187.332 52.9869 187.47 53.7829L189.174 63.6714C189.519 65.6759 187.405 67.2046 185.596 66.2582L176.674 61.5894C175.955 61.2136 175.097 61.2136 174.379 61.5894L165.456 66.2582C163.648 67.2046 161.534 65.6759 161.879 63.6714L163.583 53.7829C163.72 52.9869 163.455 52.1747 162.874 51.611L155.655 44.6079C154.192 43.1883 155 40.7149 157.022 40.4225L166.998 38.9798C167.801 38.8636 168.495 38.3616 168.854 37.6374L173.315 28.6406Z" fill="white"/>
<mask id="mask2" style="mask-type:alpha" maskUnits="userSpaceOnUse" x="137" y="4" width="77" height="88">
<path d="M174.545 4.99351C175.22 4.60377 176.052 4.60377 176.727 4.99351L212.335 25.552C213.01 25.9418 213.426 26.662 213.426 27.4415V68.5585C213.426 69.338 213.01 70.0583 212.335 70.4481L176.727 91.0066C176.052 91.3963 175.22 91.3963 174.545 91.0066L138.937 70.4481C138.262 70.0583 137.846 69.338 137.846 68.5585V27.4415C137.846 26.662 138.262 25.9418 138.937 25.552L174.545 4.99351Z" fill="#D0DBFF"/>
</mask>
<g mask="url(#mask2)">
<rect x="221.172" y="-8.72723" width="19.948" height="144.623" transform="rotate(45 221.172 -8.72723)" fill="#F7F9FA" fill-opacity="0.2"/>
</g>
</svg>
