<svg xmlns="http://www.w3.org/2000/svg" width="32" height="32" viewBox="0 0 32 32">
    <g fill="none" fill-rule="evenodd">
        <circle cx="16" cy="16" r="16" fill="#D5DFE6"/>
        <path fill="#006BA0" d="M8 10l6-1 10 1v13H8z"/>
        <path fill="#1A4379" d="M8 10l6-1v14H8z"/>
        <path fill="#FFF" fill-rule="nonzero" d="M8 10v4H5z"/>
        <path fill="#FFF" d="M14 9l10 1 3 3H17z"/>
        <path fill="#FFF" fill-rule="nonzero" d="M21.976 16.864c-.035-.033-.104-.043-.157-.063-.005-.002-.012 0-.018 0H19.17l.019-.082c.215-.84.43-1.682.647-2.522.022-.086.008-.152-.089-.197h-.053c-.05.036-.11.066-.146.11-1.04 1.213-2.076 2.428-3.114 3.643-.134.157-.271.313-.398.473-.03.038-.047.105-.025.14.021.034.098.046.151.066.013.004.03 0 .044 0h2.61l-.127.457-.534 1.915c-.031.11-.012.147.1.196h.053c.046-.036.099-.068.136-.11l3.112-3.44.397-.44c.041-.045.071-.102.024-.146z"/>
    </g>
</svg>
