<svg width="100" height="100" viewBox="0 0 100 100" fill="none" xmlns="http://www.w3.org/2000/svg">
<path d="M74.4472 41.5928H64.7587L61.4683 56.7654L63.2961 59.6902H69.3286L72.8018 62.9807H77.5547L79.9311 49.0877L74.4472 41.5928Z" fill="#022786"/>
<mask id="mask0_85_120" style="mask-type:alpha" maskUnits="userSpaceOnUse" x="0" y="0" width="100" height="100">
<rect width="100" height="100" fill="white"/>
</mask>
<g mask="url(#mask0_85_120)">
</g>
<path fill-rule="evenodd" clip-rule="evenodd" d="M66.6576 60.5153C64.7845 60.5153 63.2661 62.0114 63.2661 63.857C63.2661 65.7025 64.7845 67.1986 66.6576 67.1986C68.5307 67.1986 70.0491 65.7025 70.0491 63.857C70.0491 62.0114 68.5307 60.5153 66.6576 60.5153ZM59.1963 63.857C59.1963 59.7968 62.5368 56.5054 66.6576 56.5054C70.7784 56.5054 74.1189 59.7968 74.1189 63.857C74.1189 67.9171 70.7784 71.2086 66.6576 71.2086C62.5368 71.2086 59.1963 67.9171 59.1963 63.857Z" fill="#022786"/>
<path fill-rule="evenodd" clip-rule="evenodd" d="M43.6088 60.5153C41.7357 60.5153 40.2173 62.0114 40.2173 63.857C40.2173 65.7025 41.7357 67.1986 43.6088 67.1986C45.4819 67.1986 47.0003 65.7025 47.0003 63.857C47.0003 62.0114 45.4819 60.5153 43.6088 60.5153ZM36.1475 63.857C36.1475 59.7968 39.488 56.5054 43.6088 56.5054C47.7296 56.5054 51.0701 59.7968 51.0701 63.857C51.0701 67.9171 47.7296 71.2086 43.6088 71.2086C39.488 71.2086 36.1475 67.9171 36.1475 63.857Z" fill="#022786"/>
<mask id="path-5-inside-1_85_120" fill="white">
<path fill-rule="evenodd" clip-rule="evenodd" d="M37.3118 29.772C35.8221 29.772 33.5255 29.772 32.56 30.4789C31.7342 31.0836 31.6272 31.921 31.4935 32.9668C31.4609 33.2224 31.4266 33.4905 31.3799 33.7707H38.1783V33.7819H63.6053L58.9393 61.8517H50.7715C50.9544 62.489 51.0523 63.1614 51.0523 63.8565C51.0523 64.5516 50.9544 65.2242 50.7714 65.8616H60.668C61.6649 65.8616 62.515 65.15 62.6761 64.1807L66.174 43.1385H73.7517L77.6031 48.7493C77.8863 49.1618 78.0035 49.6634 77.932 50.1564L75.9737 61.8517H72.4035V65.8616H77.7383C78.7508 65.8616 79.6094 65.1281 79.7527 64.1405L81.9608 50.7241C82.1755 49.2451 81.8238 47.7404 80.9743 46.5028L76.5177 40.0103C76.1392 39.4589 75.5076 39.1285 74.8321 39.1285H66.8406L68.0088 32.101C68.1053 31.5204 67.9381 30.9273 67.5514 30.4788C67.1648 30.0304 66.5978 29.772 66.0006 29.772H37.3144H37.3118ZM36.4106 65.8616C36.2276 65.2242 36.1297 64.5516 36.1297 63.8565C36.1297 63.1614 36.2276 62.489 36.4105 61.8517H34.4128V61.8536H27.3153C27.0281 63.4871 27.316 64.4137 28.1323 65.0282C29.2394 65.8616 31.2318 65.8616 33.4619 65.8616H36.4106ZM27.8957 57.8436H31.5021L31.5053 57.7331C32.3039 57.4623 32.8777 56.7155 32.8777 55.8367C32.8777 54.9981 32.3552 54.2798 31.6134 53.9805L31.6179 53.8273H28.4769L28.4763 53.8317H27.3686V53.8273H22.8476C22.8169 53.8295 22.786 53.831 22.7551 53.8317H21.3466C20.2227 53.8317 19.3117 54.7294 19.3117 55.8367C19.3117 56.944 20.2227 57.8417 21.3466 57.8417H27.896L27.8957 57.8436ZM29.0564 49.8236H31.7332L31.7333 49.8218H34.9126C36.0365 49.8218 36.9475 48.9241 36.9475 47.8168C36.9475 46.7095 36.0365 45.8118 34.9126 45.8118H34.4644V45.8199H22.8898V45.8118H19.99C18.8661 45.8118 17.9551 46.7095 17.9551 47.8168C17.9551 48.9241 18.8661 49.8218 19.99 49.8218H29.0566L29.0564 49.8236ZM27.3686 49.8224V49.8236H22.7741C22.7505 49.8228 22.7269 49.8224 22.7032 49.8224H27.3686ZM30.7976 37.7919L30.7993 37.7806H32.0804L32.08 37.7919H33.556C34.6799 37.7919 35.5909 38.6896 35.5909 39.7969C35.5909 40.9042 34.6799 41.8019 33.556 41.8019H31.9645L31.9642 41.81H30.2161L30.2173 41.8019H24.0604H24.0598C22.9359 41.8019 22.0249 40.9042 22.0249 39.7969C22.0249 38.6896 22.9359 37.7919 24.0598 37.7919H30.7976ZM24.0604 41.8019L28.7252 41.8025V41.81H24.2426C24.1822 41.8046 24.1215 41.8019 24.0604 41.8019Z"/>
</mask>
<path fill-rule="evenodd" clip-rule="evenodd" d="M37.3118 29.772C35.8221 29.772 33.5255 29.772 32.56 30.4789C31.7342 31.0836 31.6272 31.921 31.4935 32.9668C31.4609 33.2224 31.4266 33.4905 31.3799 33.7707H38.1783V33.7819H63.6053L58.9393 61.8517H50.7715C50.9544 62.489 51.0523 63.1614 51.0523 63.8565C51.0523 64.5516 50.9544 65.2242 50.7714 65.8616H60.668C61.6649 65.8616 62.515 65.15 62.6761 64.1807L66.174 43.1385H73.7517L77.6031 48.7493C77.8863 49.1618 78.0035 49.6634 77.932 50.1564L75.9737 61.8517H72.4035V65.8616H77.7383C78.7508 65.8616 79.6094 65.1281 79.7527 64.1405L81.9608 50.7241C82.1755 49.2451 81.8238 47.7404 80.9743 46.5028L76.5177 40.0103C76.1392 39.4589 75.5076 39.1285 74.8321 39.1285H66.8406L68.0088 32.101C68.1053 31.5204 67.9381 30.9273 67.5514 30.4788C67.1648 30.0304 66.5978 29.772 66.0006 29.772H37.3144H37.3118ZM36.4106 65.8616C36.2276 65.2242 36.1297 64.5516 36.1297 63.8565C36.1297 63.1614 36.2276 62.489 36.4105 61.8517H34.4128V61.8536H27.3153C27.0281 63.4871 27.316 64.4137 28.1323 65.0282C29.2394 65.8616 31.2318 65.8616 33.4619 65.8616H36.4106ZM27.8957 57.8436H31.5021L31.5053 57.7331C32.3039 57.4623 32.8777 56.7155 32.8777 55.8367C32.8777 54.9981 32.3552 54.2798 31.6134 53.9805L31.6179 53.8273H28.4769L28.4763 53.8317H27.3686V53.8273H22.8476C22.8169 53.8295 22.786 53.831 22.7551 53.8317H21.3466C20.2227 53.8317 19.3117 54.7294 19.3117 55.8367C19.3117 56.944 20.2227 57.8417 21.3466 57.8417H27.896L27.8957 57.8436ZM29.0564 49.8236H31.7332L31.7333 49.8218H34.9126C36.0365 49.8218 36.9475 48.9241 36.9475 47.8168C36.9475 46.7095 36.0365 45.8118 34.9126 45.8118H34.4644V45.8199H22.8898V45.8118H19.99C18.8661 45.8118 17.9551 46.7095 17.9551 47.8168C17.9551 48.9241 18.8661 49.8218 19.99 49.8218H29.0566L29.0564 49.8236ZM27.3686 49.8224V49.8236H22.7741C22.7505 49.8228 22.7269 49.8224 22.7032 49.8224H27.3686ZM30.7976 37.7919L30.7993 37.7806H32.0804L32.08 37.7919H33.556C34.6799 37.7919 35.5909 38.6896 35.5909 39.7969C35.5909 40.9042 34.6799 41.8019 33.556 41.8019H31.9645L31.9642 41.81H30.2161L30.2173 41.8019H24.0604H24.0598C22.9359 41.8019 22.0249 40.9042 22.0249 39.7969C22.0249 38.6896 22.9359 37.7919 24.0598 37.7919H30.7976ZM24.0604 41.8019L28.7252 41.8025V41.81H24.2426C24.1822 41.8046 24.1215 41.8019 24.0604 41.8019Z" fill="#022786"/>
<path d="M32.56 30.4789L30.197 27.2515L30.197 27.2515L32.56 30.4789ZM37.3118 29.772L37.3118 25.772L37.3118 25.772L37.3118 29.772ZM31.4935 32.9668L35.4613 33.4738L35.4613 33.4738L31.4935 32.9668ZM31.3799 33.7707L27.4344 33.1125L26.6574 37.7707H31.3799V33.7707ZM38.1783 33.7707H42.1783V29.7707H38.1783V33.7707ZM38.1783 33.7819H34.1783V37.7819H38.1783V33.7819ZM63.6053 33.7819L67.5512 34.4379L68.3251 29.7819H63.6053V33.7819ZM58.9393 61.8517V65.8517H62.3292L62.8851 62.5076L58.9393 61.8517ZM50.7715 61.8517V57.8517H45.4619L46.9267 62.9552L50.7715 61.8517ZM50.7714 65.8616L46.9267 64.7579L45.4615 69.8616H50.7714V65.8616ZM62.6761 64.1807L58.7303 63.5248L58.7303 63.5248L62.6761 64.1807ZM66.174 43.1385V39.1385H62.784L62.2281 42.4826L66.174 43.1385ZM73.7517 43.1385L77.0495 40.8748L75.8577 39.1385H73.7517V43.1385ZM77.6031 48.7493L74.3053 51.013L74.3053 51.013L77.6031 48.7493ZM77.932 50.1564L81.8771 50.817L81.8842 50.7741L81.8905 50.731L77.932 50.1564ZM75.9737 61.8517V65.8517H79.3596L79.9188 62.5122L75.9737 61.8517ZM72.4035 61.8517V57.8517H68.4035V61.8517H72.4035ZM72.4035 65.8616H68.4035V69.8616H72.4035V65.8616ZM79.7527 64.1405L75.8058 63.4909L75.7996 63.5284L75.7942 63.5659L79.7527 64.1405ZM81.9608 50.7241L85.9077 51.3737L85.9139 51.3362L85.9193 51.2987L81.9608 50.7241ZM80.9743 46.5028L84.2721 44.2391L84.2721 44.2391L80.9743 46.5028ZM76.5177 40.0103L79.8155 37.7466L79.8155 37.7465L76.5177 40.0103ZM66.8406 39.1285L62.8947 38.4726L62.1208 43.1285H66.8406V39.1285ZM68.0088 32.101L64.0629 31.4451L64.0629 31.4451L68.0088 32.101ZM67.5514 30.4788L70.5809 27.8668L70.5809 27.8668L67.5514 30.4788ZM36.4106 65.8616V69.8616H41.7205L40.2553 64.7579L36.4106 65.8616ZM36.4105 61.8517L40.2552 62.9552L41.7201 57.8517H36.4105V61.8517ZM34.4128 61.8517V57.8517H30.4128V61.8517H34.4128ZM34.4128 61.8536V65.8536H38.4128V61.8536H34.4128ZM27.3153 61.8536V57.8536H23.9573L23.3757 61.1609L27.3153 61.8536ZM28.1323 65.0282L30.5381 61.8325L30.5381 61.8325L28.1323 65.0282ZM31.5021 57.8436V61.8436H35.3885L35.5004 57.9589L31.5021 57.8436ZM27.8957 57.8436L23.9369 57.2709L23.2753 61.8436H27.8957V57.8436ZM31.5053 57.7331L30.2208 53.9449L27.5871 54.8379L27.5069 57.6178L31.5053 57.7331ZM31.6134 53.9805L27.6151 53.8653L27.5349 56.6483L30.1168 57.69L31.6134 53.9805ZM31.6179 53.8273L35.6162 53.9426L35.7348 49.8273H31.6179V53.8273ZM28.4769 53.8273V49.8273H25.0138L24.5181 53.2548L28.4769 53.8273ZM28.4763 53.8317V57.8317H31.9394L32.4351 54.4043L28.4763 53.8317ZM27.3686 53.8317H23.3686V57.8317H27.3686V53.8317ZM27.3686 53.8273H31.3686V49.8273H27.3686V53.8273ZM22.8476 53.8273V49.8273H22.7077L22.5682 49.8371L22.8476 53.8273ZM22.7551 53.8317V57.8317H22.8055L22.8558 57.8305L22.7551 53.8317ZM27.896 57.8417L31.8548 58.4145L32.5164 53.8417H27.896V57.8417ZM31.7332 49.8236V53.8236H35.6204L35.7316 49.9381L31.7332 49.8236ZM29.0564 49.8236L25.0976 49.2509L24.436 53.8236H29.0564V49.8236ZM31.7333 49.8218V45.8218H27.8462L27.7349 49.7073L31.7333 49.8218ZM34.4644 45.8118V41.8118H30.4644V45.8118H34.4644ZM34.4644 45.8199V49.8199H38.4644V45.8199H34.4644ZM22.8898 45.8199H18.8898V49.8199H22.8898V45.8199ZM22.8898 45.8118H26.8898V41.8118H22.8898V45.8118ZM29.0566 49.8218L33.0154 50.3946L33.677 45.8218H29.0566V49.8218ZM27.3686 49.8236V53.8236H31.3686V49.8236H27.3686ZM27.3686 49.8224H31.3686V45.8224H27.3686V49.8224ZM22.7741 49.8236L22.6369 53.8213L22.7055 53.8236H22.7741V49.8236ZM30.7993 37.7806V33.7806H27.3364L26.8405 37.2078L30.7993 37.7806ZM30.7976 37.7919V41.7919H34.2605L34.7564 38.3648L30.7976 37.7919ZM32.0804 37.7806L36.0787 37.8959L36.1974 33.7806H32.0804V37.7806ZM32.08 37.7919L28.0817 37.6766L27.963 41.7919H32.08V37.7919ZM31.9645 41.8019V37.8019H28.0783L27.9661 41.6864L31.9645 41.8019ZM31.9642 41.81V45.81H35.8504L35.9626 41.9255L31.9642 41.81ZM30.2161 41.81L26.2574 41.2369L25.5954 45.81H30.2161V41.81ZM30.2173 41.8019L34.176 42.3749L34.838 37.8019H30.2173V41.8019ZM28.7252 41.8025H32.7252V37.8031L28.7257 37.8025L28.7252 41.8025ZM28.7252 41.81V45.81H32.7252V41.81H28.7252ZM24.2426 41.81L23.8877 45.7942L24.0648 45.81H24.2426V41.81ZM34.9231 33.7063C34.6011 33.942 34.3926 33.9719 34.527 33.9362C34.6243 33.9104 34.8211 33.8722 35.1385 33.8404C35.7876 33.7753 36.5344 33.772 37.3118 33.772L37.3118 25.772C36.5995 25.772 35.4531 25.7687 34.3401 25.8803C33.4475 25.9699 31.6366 26.1974 30.197 27.2515L34.9231 33.7063ZM35.4613 33.4738C35.4973 33.1915 35.5172 33.0429 35.5388 32.9212C35.5585 32.8102 35.5638 32.819 35.5392 32.8886C35.5103 32.9705 35.4453 33.1231 35.3206 33.2979C35.1926 33.4775 35.0488 33.6142 34.9231 33.7063L30.197 27.2515C27.7881 29.0153 27.6249 31.6842 27.5258 32.4597L35.4613 33.4738ZM35.3253 34.4288C35.3865 34.062 35.4297 33.7205 35.4613 33.4738L27.5258 32.4597C27.492 32.7242 27.4667 32.9189 27.4344 33.1125L35.3253 34.4288ZM38.1783 29.7707H31.3799V37.7707H38.1783V29.7707ZM42.1783 33.7819V33.7707H34.1783V33.7819H42.1783ZM63.6053 29.7819H38.1783V37.7819H63.6053V29.7819ZM62.8851 62.5076L67.5512 34.4379L59.6595 33.126L54.9934 61.1957L62.8851 62.5076ZM50.7715 65.8517H58.9393V57.8517H50.7715V65.8517ZM46.9267 62.9552C47.0078 63.2376 47.0523 63.5388 47.0523 63.8565H55.0523C55.0523 62.7841 54.901 61.7403 54.6163 60.7481L46.9267 62.9552ZM47.0523 63.8565C47.0523 64.1742 47.0078 64.4754 46.9267 64.7579L54.6161 66.9654C54.901 65.973 55.0523 64.929 55.0523 63.8565H47.0523ZM60.668 61.8616H50.7714V69.8616H60.668V61.8616ZM58.7303 63.5248C58.8969 62.5226 59.7518 61.8616 60.668 61.8616V69.8616C63.578 69.8616 66.1331 67.7775 66.622 64.8366L58.7303 63.5248ZM62.2281 42.4826L58.7303 63.5248L66.622 64.8366L70.1199 43.7944L62.2281 42.4826ZM73.7517 39.1385H66.174V47.1385H73.7517V39.1385ZM80.901 46.4856L77.0495 40.8748L70.4539 45.4022L74.3053 51.013L80.901 46.4856ZM81.8905 50.731C82.1073 49.2376 81.7506 47.7234 80.901 46.4856L74.3053 51.013C74.022 50.6002 73.8998 50.0892 73.9735 49.5819L81.8905 50.731ZM79.9188 62.5122L81.8771 50.817L73.9869 49.4958L72.0286 61.1911L79.9188 62.5122ZM72.4035 65.8517H75.9737V57.8517H72.4035V65.8517ZM76.4035 65.8616V61.8517H68.4035V65.8616H76.4035ZM77.7383 61.8616H72.4035V69.8616H77.7383V61.8616ZM75.7942 63.5659C75.9426 62.5433 76.8081 61.8616 77.7383 61.8616V69.8616C80.6936 69.8616 83.2761 67.7129 83.7112 64.7151L75.7942 63.5659ZM78.0139 50.0745L75.8058 63.4909L83.6996 64.7901L85.9077 51.3737L78.0139 50.0745ZM77.6765 48.7665C77.9595 49.1788 78.0717 49.671 78.0023 50.1496L85.9193 51.2987C86.2792 48.8193 85.6881 46.3019 84.2721 44.2391L77.6765 48.7665ZM73.2198 42.274L77.6765 48.7665L84.2721 44.2391L79.8155 37.7466L73.2198 42.274ZM74.8321 43.1285C74.2055 43.1285 73.5964 42.8226 73.2199 42.274L79.8155 37.7465C78.6819 36.0952 76.8098 35.1285 74.8321 35.1285V43.1285ZM66.8406 43.1285H74.8321V35.1285H66.8406V43.1285ZM64.0629 31.4451L62.8947 38.4726L70.7864 39.7845L71.9546 32.7569L64.0629 31.4451ZM64.522 33.0909C64.1386 32.6461 63.9634 32.0438 64.0629 31.4451L71.9546 32.757C72.2472 30.997 71.7376 29.2084 70.5809 27.8668L64.522 33.0909ZM66.0006 33.772C65.4457 33.772 64.9027 33.5324 64.522 33.0909L70.5809 27.8668C69.4269 26.5284 67.7499 25.772 66.0006 25.772V33.772ZM37.3144 33.772H66.0006V25.772H37.3144V33.772ZM37.3118 33.772H37.3144V25.772H37.3118V33.772ZM40.2553 64.7579C40.1742 64.4754 40.1297 64.1742 40.1297 63.8565H32.1297C32.1297 64.929 32.281 65.973 32.5659 66.9654L40.2553 64.7579ZM40.1297 63.8565C40.1297 63.5388 40.1742 63.2376 40.2552 62.9552L32.5657 60.7481C32.2809 61.7403 32.1297 62.7841 32.1297 63.8565H40.1297ZM34.4128 65.8517H36.4105V57.8517H34.4128V65.8517ZM38.4128 61.8536V61.8517H30.4128V61.8536H38.4128ZM27.3153 65.8536H34.4128V57.8536H27.3153V65.8536ZM30.5381 61.8325C30.6348 61.9054 30.7766 62.0346 30.9112 62.2295C31.0479 62.4274 31.1296 62.6242 31.1723 62.7824C31.2119 62.9296 31.2069 63.0025 31.207 62.9603C31.2071 62.9151 31.2128 62.7856 31.2549 62.5463L23.3757 61.1609C23.1794 62.2776 23.0981 63.5661 23.4477 64.8636C23.8322 66.2909 24.6524 67.4153 25.7266 68.2239L30.5381 61.8325ZM33.4619 61.8616C32.2829 61.8616 31.4726 61.8564 30.8284 61.7831C30.1317 61.7038 30.2263 61.5978 30.5381 61.8325L25.7266 68.2239C27.1455 69.292 28.7898 69.6027 29.9236 69.7318C31.1098 69.8668 32.4108 69.8616 33.4619 69.8616V61.8616ZM36.4106 61.8616H33.4619V69.8616H36.4106V61.8616ZM31.5021 53.8436H27.8957V61.8436H31.5021V53.8436ZM27.5069 57.6178L27.5038 57.7284L35.5004 57.9589L35.5036 57.8483L27.5069 57.6178ZM28.8777 55.8367C28.8777 54.9183 29.4761 54.1974 30.2208 53.9449L32.7897 61.5212C35.1316 60.7271 36.8777 58.5127 36.8777 55.8367H28.8777ZM30.1168 57.69C29.4244 57.4106 28.8777 56.7125 28.8777 55.8367H36.8777C36.8777 53.2837 35.286 51.1489 33.11 50.271L30.1168 57.69ZM27.6195 53.7121L27.6151 53.8653L35.6118 54.0957L35.6162 53.9426L27.6195 53.7121ZM28.4769 57.8273H31.6179V49.8273H28.4769V57.8273ZM32.4351 54.4043L32.4358 54.3999L24.5181 53.2548L24.5175 53.2592L32.4351 54.4043ZM27.3686 57.8317H28.4763V49.8317H27.3686V57.8317ZM23.3686 53.8273V53.8317H31.3686V53.8273H23.3686ZM22.8476 57.8273H27.3686V49.8273H22.8476V57.8273ZM22.8558 57.8305C22.9464 57.8282 23.0368 57.8239 23.127 57.8176L22.5682 49.8371C22.5969 49.8351 22.6257 49.8337 22.6545 49.833L22.8558 57.8305ZM21.3466 57.8317H22.7551V49.8317H21.3466V57.8317ZM23.3117 55.8367C23.3117 56.9942 22.3758 57.8317 21.3466 57.8317V49.8317C18.0697 49.8317 15.3117 52.4646 15.3117 55.8367H23.3117ZM21.3466 53.8417C22.3758 53.8417 23.3117 54.6792 23.3117 55.8367H15.3117C15.3117 59.2088 18.0697 61.8417 21.3466 61.8417V53.8417ZM27.896 53.8417H21.3466V61.8417H27.896V53.8417ZM31.8545 58.4164L31.8548 58.4145L23.9372 57.2689L23.9369 57.2709L31.8545 58.4164ZM31.7332 45.8236H29.0564V53.8236H31.7332V45.8236ZM27.7349 49.7073L27.7349 49.7092L35.7316 49.9381L35.7317 49.9363L27.7349 49.7073ZM34.9126 45.8218H31.7333V53.8218H34.9126V45.8218ZM32.9475 47.8168C32.9475 46.6593 33.8834 45.8218 34.9126 45.8218V53.8218C38.1895 53.8218 40.9475 51.1889 40.9475 47.8168H32.9475ZM34.9126 49.8118C33.8834 49.8118 32.9475 48.9743 32.9475 47.8168H40.9475C40.9475 44.4447 38.1895 41.8118 34.9126 41.8118V49.8118ZM34.4644 49.8118H34.9126V41.8118H34.4644V49.8118ZM38.4644 45.8199V45.8118H30.4644V45.8199H38.4644ZM22.8898 49.8199H34.4644V41.8199H22.8898V49.8199ZM18.8898 45.8118V45.8199H26.8898V45.8118H18.8898ZM19.99 49.8118H22.8898V41.8118H19.99V49.8118ZM21.9551 47.8168C21.9551 48.9743 21.0192 49.8118 19.99 49.8118V41.8118C16.7131 41.8118 13.9551 44.4447 13.9551 47.8168H21.9551ZM19.99 45.8218C21.0192 45.8218 21.9551 46.6593 21.9551 47.8168H13.9551C13.9551 51.1889 16.7131 53.8218 19.99 53.8218V45.8218ZM29.0566 45.8218H19.99V53.8218H29.0566V45.8218ZM33.0152 50.3964L33.0154 50.3946L25.0979 49.249L25.0976 49.2509L33.0152 50.3964ZM31.3686 49.8236V49.8224H23.3686V49.8236H31.3686ZM22.7741 53.8236H27.3686V45.8236H22.7741V53.8236ZM22.7032 53.8224C22.6811 53.8224 22.659 53.8221 22.6369 53.8213L22.9112 45.826C22.842 45.8236 22.7726 45.8224 22.7032 45.8224V53.8224ZM27.3686 45.8224H22.7032V53.8224H27.3686V45.8224ZM26.8405 37.2078L26.8389 37.219L34.7564 38.3648L34.758 38.3535L26.8405 37.2078ZM32.0804 33.7806H30.7993V41.7806H32.0804V33.7806ZM36.0784 37.9072L36.0787 37.8959L28.082 37.6653L28.0817 37.6766L36.0784 37.9072ZM33.556 33.7919H32.08V41.7919H33.556V33.7919ZM39.5909 39.7969C39.5909 36.4248 36.8329 33.7919 33.556 33.7919V41.7919C32.5268 41.7919 31.5909 40.9544 31.5909 39.7969H39.5909ZM33.556 45.8019C36.8329 45.8019 39.5909 43.169 39.5909 39.7969H31.5909C31.5909 38.6394 32.5268 37.8019 33.556 37.8019V45.8019ZM31.9645 45.8019H33.556V37.8019H31.9645V45.8019ZM35.9626 41.9255L35.9628 41.9173L27.9661 41.6864L27.9659 41.6945L35.9626 41.9255ZM30.2161 45.81H31.9642V37.81H30.2161V45.81ZM26.2586 41.2288L26.2574 41.2369L34.1749 42.383L34.176 42.3749L26.2586 41.2288ZM24.0604 45.8019H30.2173V37.8019H24.0604V45.8019ZM24.0598 45.8019H24.0604V37.8019H24.0598V45.8019ZM18.0249 39.7969C18.0249 43.169 20.7829 45.8019 24.0598 45.8019V37.8019C25.089 37.8019 26.0249 38.6394 26.0249 39.7969H18.0249ZM24.0598 33.7919C20.7829 33.7919 18.0249 36.4248 18.0249 39.7969H26.0249C26.0249 40.9544 25.089 41.7919 24.0598 41.7919V33.7919ZM30.7976 33.7919H24.0598V41.7919H30.7976V33.7919ZM28.7257 37.8025L24.0609 37.8019L24.0598 45.8019L28.7246 45.8025L28.7257 37.8025ZM32.7252 41.81V41.8025H24.7252V41.81H32.7252ZM24.2426 45.81H28.7252V37.81H24.2426V45.81ZM24.0592 45.8019C24.0018 45.8018 23.9446 45.7993 23.8877 45.7942L24.5975 37.8258C24.4199 37.8099 24.2411 37.8019 24.0615 37.8019L24.0592 45.8019Z" fill="#022786" mask="url(#path-5-inside-1_85_120)"/>
</svg>
