<svg xmlns="http://www.w3.org/2000/svg" xmlns:xlink="http://www.w3.org/1999/xlink" width="32" height="32" viewBox="0 0 32 32">
    <defs>
        <circle id="a" cx="16" cy="16" r="16"/>
        <circle id="b" cx="16" cy="24" r="12"/>
    </defs>
    <g fill="none" fill-rule="evenodd">
        <use fill="#D5DFE6" xlink:href="#a"/>
        <mask id="c" fill="#fff">
            <use xlink:href="#b"/>
        </mask>
        <use fill="#FFF" fill-rule="nonzero" xlink:href="#b"/>
        <path fill="#EEF2F5" d="M16.34 22.166c.284.142.891.034 1.211.034.162.033.973.056 1.073.157.511.512.792 2.234 1.42 2.864.303.304 1.074-.12 1.333.14.124.124-.287 1.562-.572 1.579-.097 0-1.139.979-.969 1.32.063.126.411.499.38.59-.113.342-.467.592-.64.937-.133.267.19.955-.017 1.163-.615.617-1.628 2.179-2.821 1.58-.236-.118-.371-1.138-.416-1.406-.08-.478-.463-.847-.554-1.302-.08-.407.128-.707.277-1.007.047-.095-.062-.42-.104-.503-.184-.37-.001-1.078-.294-1.372-.12-.12-.192-.366-.363-.451-.313-.157-.798.15-1.074.243-.423.141-1.47-.502-1.627-.816-.124-.249-.335-.577-.432-.868-.238-.716.859-2.598 1.315-3.056.307-.308 1.26-.333 1.68-.417.617-.124.787.387 1.193.59zm4.83 6.944c.468.363.109 1.115-.101 1.55-.039.08-.217.787-.27.732-.486-.504-.36-2.03.37-2.282zm-5.123-16.39c.252-.035.468-.05.717-.05h.495c1.099 0-.055 1.117-.786.751-.116-.058-.458.09-.529-.051-.052-.104.074-.533.103-.65zm6.727 1.093c.09-.034.88-.3 1.036-.142a.72.72 0 0 1 0 .177c-.115.117-.419.086-.545.213-.202.204-1.217 1.04-1.475.78-.085-.086.417-.58.51-.673.132-.134.3-.239.474-.355zm-11.052 2.22h.544c1.001 0 .381.523.12.794-.105.108-1.478-.057-1.09-.458.111-.115.227-.19.426-.335zm2.356 1.303c.13.3.332.713.54.914.258.251-.75.593-.767.576-.091-.089.14-.474.14-.593 0-.28-.55-1.103.087-.897zm-.65 1.043c.118.657-.223.688-.287.407-.049-.22.176-.776.287-.407zm.608.954c.175-.008 1.01-.234 1.023-.259.068-.135-.026-.423.07-.519.043-.043.38.027.468-.017.506-.252 2.056-.219 2.22-1.037.078-.39-.488-.267-.572-.519-.092-.276.517-.556.295-.778-.188-.188-.663.309-.694.432-.063.25.08.384.173.57.07.139-.193.23-.225.295-.048.096-.065.41-.121.467-.083.082-.37.034-.52.034-.516 0-.106-.157-.278-.328-.042-.042-.388.288-.538.138-.054-.054 0-.223-.035-.294-.35-.7.224-.667.555-1.106.156-.207.332-.987.538-1.09.953-.475 1.543-.138 2.446.087.286.071 1.066.242 1.196.501.077.153-.031.575-.069.726-.113.451-.004.942-.208 1.349-.242.482-.875.803-1.214 1.14-.243.243.96.386.746.813-.085.169-.682.094-.868.156-.232.077-.037.58-.26.692-.471.235-.875-.164-1.318-.312-.26-.086-.43.21-.798.087-.343-.114-.603-.526-1.04-.38-.78.259-.301.714-.625 1.037-.464.463-1.497.367-1.283-.484.218-.87.545-.112.901-.467.124-.123-.016-.728.035-.934zm5.861-.84c.361-.724.715-1.691.47-2.677.624-.625 1.39-.402 2.264-.694.533-.178.764-.506 1.183-.715.264-.132.822.061 1.163.061 1.242 0 2.37-.71 3.489-1.083.248-.082 1.29.141 1.366.368.102.305-.537.415-.448.592.05.101 1.043 0 1.162 0 1.187 0 2.312.198 3.469.43 1.284.257 2.525.622 3.815.837.3.05 1.443.148 1.673-.082.11-.11.509.349.367.49-.134.135-2.258 1.08-2.632 1.267-.036.018-.04.047-.04.082 0 .175-.168.367-.266.53-.066.11-.705 1.133-.816 1.022-.372-.373-.31-.998.102-1.307.176-.132.69-.217.592-.51-.04-.12-1.079.264-1.245.306-.465.116-.884-.119-1.305.163-.3.2-.782.477-.572.899.112.223.913.577.592.898-.11.11-.385.142-.51.205-.227.114-.282.548-.449.715-.29.29-.794.34-1.142.572-.228.152.025.485-.123.633-.137.138-.776-.735-1.101-.409-.034.033.033.156.04.164.216.216.562 1.153.266 1.45-.432.432-.899.885-1.47 1.267-.202.135-.542.127-.652.347-.186.372.163 1.004.163 1.41 0 0 .008.138 0 .142-.15.075-.272-.143-.408-.163-.36-.36-.99-.358-1.367-.736-.318-.319-.234-.928-.571-1.266-.016-.016-.094-.07-.123-.04-.407.407-.88.577-1.142 1.102-.105.21-.41 1.486-.576 1.327-.165-.16-.125-.545-.24-.775-.49-.98-.314-1.576-1.53-1.982-.814-.271-.607.73-.877 1.001-.386.386-.594.634-1.204.756-1.495.3-1.148-1.374-1.897-2.124-.202-.202.2-1.065.02-1.246-.247-.248-.987.128-1.204-.307-.279-.559 1.753-.3 1.836-.551.162-.486-.433-1.23-.652-1.45-.048-.049-.416-.23-.368-.327.133-.267.746-.288.898-.593zm8.104-5.99c.581.397.326.649-.265.508-.144-.035-.546-.881-.388-.957.264-.126.478.393.653.45zm6.431 7.72c-.178 1.02-.074 1.346-1.027 1.826-.21.106-.417.51-.704.365-.085-.043-.17-.33-.06-.386.315-.159.78-.274.966-.649.194-.39.334-.99.825-1.156zm-6.019 5.86c1.101.751.032 1.195.699 1.858.113.112 1.424.627 1.15.898-.087.087-.557-.195-.657-.245-.154-.076-.441-.079-.616-.122-.553-.138-.874-1.057-.966-1.512-.041-.204.012-1.442.39-.878zm2.3.107c.22.406.164.37.164.747 0 .168.415.764.29.887-.058.056-.535-.02-.64-.02-.133 0-.29.152-.434.081-.095-.046-.56-.542-.392-.706.091-.09.34-.182.412-.323.13-.252.273-.666.6-.666zm3.212 1.564c.25.058 1.445.876 1.164 1.154-.087.087-.53-.364-.612-.405-.316-.156-1.245-.444-1.45-.749-.312-.463.757-.105.898 0zm-1.665 1.547c.33-.098 1.15-.583 1.5-.407.608.305.713.838.995 1.404.2.4.81.507.994.876.112.224-.312.663-.365.875-.094.375.024.924-.365 1.12-.792.396-1.602-1.08-2.252-1.242-.898-.225-2.134 1.821-2.678.183-.06-.18-.04-.377-.04-.57 0-.217-.013-.525.08-.712.4-.801 1.756-.587 2.13-1.527zm6.814 4.17c-.165.258-.3.496-.543.656-.354.23-.354.764-.752.92-.786.309.674-1.926.793-1.984.228-.112.333.354.502.409zm.24-1.947c.027.054.307.675.164.816-.076.076-.55-.48-.575-.55-.103-.308.203-.266.411-.266zM5.11 25.365c.39.178.805.08 1.14.248.85.428 1.555 1.41 2.25 2.108.4.403.988.004 1.264.558.271.546-.374 1.09-.586 1.303-.154.155.104.732-.061.899-.232.233-.643.274-.925.558-.217.218-.531 1.255-.709 1.612-.247.497-1.118.69-1.48 1.054-.421.425-.74.966-.74 1.674 0 .159.158 1.35-.122 1.21-1.007-.507-1.046-2.424-.524-3.473.18-.363-.008-.938.123-1.333.102-.31.196-1.446-.031-1.674-.17-.172-.485-.24-.647-.403-.102-.103-.643-1.904-.586-2.078.144-.434.384-.975.709-1.302.088-.089.02-.63.093-.775.1-.203.597-.186.832-.186zm1.685-13.783c1.241-.338 2.981-.157 4.228.155.407.102 1.326-.156 1.512.216.193.387-.648.926-.772 1.174-.246.493.098 1.6-.34 2.038-.364.365-1.398.685-1.943.958-.277.138-.652.625-.803.926-.026.054-.263.601-.37.494-1.13-1.132-.315-1.526-.617-2.13-.13-.261-.506-.044-.648-.186-.325-.326-.311-1.084-.71-1.483-.232-.232-.878.218-1.049-.123-.288-.577 1.512-1.24 1.512-2.039zm-5.708.405c.718-.195 1.883.217 2.505-.092.155-.078.613-.216.773-.216.248 0 .816-.296 1.052-.062.078.078-.114.227-.124.247-.245.488-.683.99-.928 1.478-.11.219-.587.16-.587.339a.44.44 0 0 0 .03.185c.364.724 1.325 1.041 1.887 1.601.04.04-.015.214-.03.246-.317.63-.08 1.445.154 1.91.171.341.799.549 1.082.831.15.15-.055.561.093.709.062.061.436.301.34.492-.029.059-.09.062-.154.062-.756 0-.462-.241-.68-.678-.061-.12-.898.031-.96.093-.28.28.758.461.557.862-.2.4-.909-.252-1.175.277-.262.521-.506 1.243-.928 1.663-.102.103-.35-.02-.464.093-.236.235.272 1.023.031 1.262-.066.066-.167-.104-.185-.123-.32-.317-.223-.465-.712-.708-.063-.032-.407.238-.525.277-.594.197-1.021-.003-1.021.708 0 .271.058.8.31.924.433.216.43-.688.927-.523.436.145.09.704.247 1.016.166.33.437-.058.65.154.154.153-.23.387-.062.554.14.14 1.018.342.866.493-.315.314-1.304-.603-1.392-.647-.186-.092-2.209-.906-2.227-.923-.391-.39-.386-1.125-.835-1.571-.017-.017-.265-.352-.309-.308-.093.093.238.636.124.862-.022.044-1.04-.594-1.144-.8-.46-.916-.635-2.326-1.207-2.895-.17-.17.338-.435.186-.586-.12-.118-.477-.012-.588-.123-.824-.82-.883-1.49-2.072-1.786-.742-.185-1.488.83-1.67.74-.224-.112-.837-.746-.928-1.017-.095-.283.394-.293.279-.524-.113-.224-.48-.706-.34-.985.056-.113.069-.59.185-.647 1.144-.57 2.697.668 3.897.37.153-.038 1.615-1.547 1.855-1.787.153-.151.927.116 1.083.154.74.184 1.947.618 2.536.031.236-.234-.402-1.352-.402-1.632zm1.575 4.428c-.22.073-.409.468-.521.58-.173.173-.665.052-.828.214-.007.007 0 .02 0 .03 0 .348 1.39.5 1.686.795.273.272.292.97.674 1.162.22.11.071-.57.123-.673.086-.172.43-.73.368-.917-.045-.134-.004-.032-.062-.06-.617-.308-.895-.709-1.44-1.131zm.556 7.351c.088-.024.777-.06.84-.123.045-.045.09-.558.217-.494.096.047.035.717.094.834.048.095.728.357.528.556-.01.01-.997-.094-1.026-.124-.27-.268-.164-.527-.653-.649zm-9.943.837c-.108-.17-.748-.904-.484-1.183.086-.09.167.113.181.128.242.255.544.728.303 1.055zm32.07 1.792c-.02-.072.03-.189.1-.189.068 0 .123.211.06.236-.063.025-.14.026-.16-.047z" mask="url(#c)"/>
        <path fill="#006BA0" d="M8.432 19.784c.831-1.12 2.568-3.62 2.568-4.853C11 13.316 9.653 12 8 12s-3 1.316-3 2.93c0 1.235 1.737 3.733 2.568 4.854a.54.54 0 0 0 .864 0z"/>
        <path fill="#FFF" d="M7 15a1 1 0 1 1 2 0 1 1 0 0 1-2 0z"/>
        <path fill="#1C4178" d="M16.432 13.784c.831-1.12 2.568-3.62 2.568-4.853C19 7.316 17.653 6 16 6s-3 1.316-3 2.93c0 1.235 1.737 3.733 2.568 4.854a.54.54 0 0 0 .864 0z"/>
        <path fill="#FFF" d="M15 9a1 1 0 1 1 2 0 1 1 0 0 1-2 0z"/>
        <path fill="#1C4178" d="M23.432 22.784c.831-1.12 2.568-3.62 2.568-4.853C26 16.316 24.653 15 23 15s-3 1.316-3 2.93c0 1.235 1.737 3.733 2.568 4.854a.54.54 0 0 0 .864 0z"/>
        <path fill="#FFF" d="M22 18a1 1 0 1 1 2 0 1 1 0 0 1-2 0z"/>
    </g>
</svg>
