<svg xmlns="http://www.w3.org/2000/svg" width="494" height="160" fill="none" viewBox="0 0 494 160">
    <mask id="prefix__a" width="500" height="160" x="-6" y="0" maskUnits="userSpaceOnUse">
        <path fill="#C4C4C4" d="M-6 0H494V160H-6z"/>
    </mask>
    <g mask="url(#prefix__a)">
        <path fill="#D6E3FF" fill-rule="evenodd" d="M56.859 49.787H-.001s12.107-27.25 32.126-5.13c0 0 16.984-9.617 24.734 5.13z" clip-rule="evenodd"/>
        <path fill="#C3D4FA" d="M384.973 160c-3.63-9.376-6.666-19.419-7.565-25.413-1.437-9.582.718-16.049 5.987-16.769 5.268-.718 9.153 8.427 9.153 8.427s2.242-12.953 6.226-21.422c3.985-8.47 12.452-12.454 17.933-5.73 5.479 6.726 1.313 31.44 1.313 31.44.783-.517 7.364-4.77 11.24-2.297 4.166 2.659 2.397 11.289 1.643 14.963-1.25 6.103-4.485 12.192-7.903 16.801"/>
        <path stroke="#376EEE" stroke-linecap="round" stroke-linejoin="round" stroke-opacity=".5" stroke-width="2" d="M400.805 158.264l6.435-45.723"/>
        <path fill="#E7EEFD" d="M311.898 160s-12.738-29.845-7.733-37.354c5.005-7.508 13.513-3.504 17.016 2.002 0 0-.131-20.768 16.951-12.886 17.081 7.881 13.22 48.238 13.22 48.238h-39.454z"/>
        <path fill="#E7EEFD" fill-opacity=".4" d="M317 19.5L216 0l1 56 100-21.5v-15z"/>
        <path stroke="#376EEE" stroke-linecap="round" stroke-linejoin="round" stroke-opacity=".5" stroke-width="2" d="M323.5 158.006l-8.5-25.919"/>
        <path fill="#F5B335" d="M387.001 160h-48.524L344 113.5h43.129c.001 1.023-.007 2.233-.007 2.233L387.001 160z"/>
        <path fill="#E7EEFD" fill-rule="evenodd" d="M437.001 34.721h56.859s-12.107-27.25-32.126-5.13c0 0-16.984-9.616-24.734 5.13h.001z" clip-rule="evenodd"/>
        <path fill="#E7EEFD" fill-opacity=".6" fill-rule="evenodd" d="M168.001 106.787h56.859s-12.107-27.25-32.126-5.13c0 0-16.984-9.617-24.734 5.13h.001z" clip-rule="evenodd"/>
        <path fill="#A25949" d="M336.123 86.381h2.361l-13.174-13.49-4.316 4.27 8.195-35.11c1.543-1.75 7.262-8.258 7.478-9.053.101-.37-.037-.542-.037-.542-.147-.184-.458-.158-.59-.149-.885.07-2.059 1.37-2.325 1.67.315-.703.718-1.747 1.154-3.028.543-1.59 1.019-3.333.742-3.945-.55-1.223-6.298-4.894-8.012-.733-1.712 4.159-2.445 7.95-3.057 9.91-.187.597-.351 1.114-.541 1.679-2.587 7.708-8.871 22.328-12.496 32.543-1.43 4.024-2.742 7.36-3.719 11.96-1.93 9.093-.644 12.36.694 14.218.5.694 1.721 2.387 3.851 3.027 3.028.906 5.871-.922 11.414-4.676 4.151-2.813 8.278-5.663 12.378-8.55z"/>
        <path fill="#F5B335" d="M348.02 52.26s-2.123.037-9.755 7.67L325.307 72.89l11.142 12.111 11.571-32.741z"/>
        <path stroke="#FFCD74" stroke-linecap="round" stroke-linejoin="round" stroke-width="1.226" d="M337.738 81.356l-10.21-10.687"/>
        <path fill="#FED16D" d="M335.926 89.015s-.911-8.436 9.296-36.918l47.006.03 9.85 12.45s-13.02 37.906-14.123 41.216c-.743 2.234-.858 5.812-.854 7.926h-43.202l.77-4.202c-6.34-8.327-8.206-15.506-8.744-20.502"/>
        <mask id="prefix__b" width="57" height="56" x="115" y="0" maskUnits="userSpaceOnUse">
            <path fill="#fff" d="M143.5 56c15.464 0 28-12.536 28-28s-12.536-28-28-28-28 12.536-28 28 12.536 28 28 28z"/>
        </mask>
        <g mask="url(#prefix__b)">
            <path fill="#E6F7FF" d="M143.5 56c15.464 0 28-12.536 28-28s-12.536-28-28-28-28 12.536-28 28 12.536 28 28 28z"/>
            <path fill="url(#prefix__paint0_linear)" d="M141.958 56.875c16.799 0 30.417-13.575 30.417-30.323 0-11.043-5.92-20.707-14.767-26.01-.312-.185-.626-.365-.942-.542L127.75 53.371c4.383 2.31 9.259 3.512 14.207 3.504h.001z"/>
        </g>
        <path fill="#376EEE" d="M149.911 10.1l-21.264 5.698c-.979.262-1.559 1.268-1.297 2.246l6.647 24.809c.262.979 1.268 1.56 2.247 1.297l21.265-5.698c.978-.262 1.559-1.268 1.297-2.246l-6.648-24.809c-.262-.979-1.268-1.56-2.247-1.297z"/>
        <path fill="#225FEE" d="M149.911 10.1l-8.161 16.15-7.753 16.604c.262.979 1.268 1.56 2.247 1.297l21.265-5.698c.978-.262 1.559-1.268 1.297-2.246l-6.648-24.809c-.262-.979-1.268-1.56-2.247-1.297z"/>
        <path fill="#fff" d="M148.202 14.354l-15.949 4.274c-.489.13-.78.634-.648 1.123l.949 3.544c.131.49.634.78 1.124.649l15.948-4.273c.489-.131.78-.634.649-1.124l-.95-3.544c-.131-.49-.634-.78-1.123-.649z"/>
        <path fill="#79D6FA" d="M136.814 25.003l-2.658.713c-.49.13-.78.634-.649 1.123l.475 1.772c.131.49.634.78 1.123.649l2.658-.712c.49-.132.78-.634.649-1.124l-.475-1.772c-.131-.49-.634-.78-1.123-.649zM143.899 23.105l-3.544.95c-.49.13-.78.634-.649 1.123l.475 1.772c.131.49.634.78 1.123.649l3.544-.95c.49-.131.78-.634.649-1.123l-.475-1.772c-.131-.49-.634-.78-1.123-.649zM150.103 21.443l-2.658.712c-.49.131-.78.634-.649 1.124l.475 1.772c.131.489.634.78 1.123.648l2.658-.712c.49-.131.78-.634.649-1.123l-.475-1.772c-.131-.49-.634-.78-1.123-.65zM138.239 30.32l-2.658.712c-.489.131-.779.634-.648 1.124l.475 1.772c.131.489.634.78 1.123.648l2.658-.712c.489-.131.78-.634.649-1.123l-.475-1.773c-.131-.489-.634-.78-1.124-.648zM145.321 28.42l-3.544.95c-.49.131-.78.634-.649 1.123l.475 1.773c.131.489.634.78 1.123.648l3.544-.95c.49-.13.78-.634.649-1.123l-.475-1.772c-.131-.49-.634-.78-1.123-.649zM139.661 35.638l-2.658.712c-.489.132-.78.635-.648 1.124l.474 1.772c.132.49.635.78 1.124.649l2.658-.713c.489-.13.78-.634.649-1.123l-.475-1.772c-.131-.49-.634-.78-1.124-.649zM146.75 33.736l-3.544.95c-.489.13-.779.633-.648 1.123l.475 1.772c.131.49.634.78 1.123.648l3.544-.95c.489-.13.78-.633.649-1.123l-.475-1.772c-.131-.489-.634-.78-1.124-.648z"/>
        <path fill="#8CACF6" d="M151.528 26.76l-2.658.713c-.489.13-.779.634-.648 1.123l1.899 7.088c.131.49.634.78 1.123.649l2.659-.712c.489-.132.779-.635.648-1.124l-1.899-7.088c-.131-.49-.634-.78-1.124-.649z"/>
        <mask id="prefix__c" width="56" height="56" x="189" y="0" maskUnits="userSpaceOnUse">
            <path fill="#fff" d="M217 56c15.464 0 28-12.536 28-28S232.464 0 217 0s-28 12.536-28 28 12.536 28 28 28z"/>
        </mask>
        <g mask="url(#prefix__c)">
            <path fill="#F0F5F7" d="M217 56c15.464 0 28-12.536 28-28S232.464 0 217 0s-28 12.536-28 28 12.536 28 28 28z"/>
            <path fill="url(#prefix__paint1_linear)" d="M217.439 56.953c15.812 0 28.629-12.698 28.629-28.364 0-10.33-5.572-19.37-13.899-24.33-.294-.172-.589-.34-.887-.506l-27.216 49.922c4.126 2.16 8.715 3.285 13.372 3.278h.001z"/>
        </g>
        <mask id="prefix__d" width="38" height="38" x="198" y="9" maskUnits="userSpaceOnUse">
            <path fill="#fff" d="M198.801 17.762c3.934-2.628 11.372-5.59 18.2-7.963 5.243 2.066 11.876 4.2 18.2 7.963 0 5.687-1.549 11.873-2.277 14.787-1.516 6.066-6.825 10.616-15.925 13.65-9.1-3.034-14.408-7.584-15.925-13.65-.732-2.925-2.273-9.099-2.273-14.787z"/>
        </mask>
        <g mask="url(#prefix__d)">
            <path fill="#65BD37" d="M198.801 17.762c3.934-2.628 11.372-5.59 18.2-7.963 5.243 2.066 11.876 4.2 18.2 7.963 0 5.687-1.549 11.873-2.277 14.787-1.516 6.066-6.825 10.616-15.925 13.65-9.1-3.034-14.408-7.584-15.925-13.65-.732-2.925-2.273-9.099-2.273-14.787z"/>
            <path fill="#43A92D" d="M216.998 51.965c13.236 0 23.966-10.73 23.966-23.966 0-13.237-10.73-23.967-23.966-23.967-13.237 0-23.967 10.73-23.967 23.967 0 13.236 10.73 23.966 23.967 23.966z"/>
            <path fill="#65BD37" d="M216.998 51.965c13.236 0 23.966-10.73 23.966-23.966 0-13.237-10.73-23.967-23.966-23.967-13.237 0-23.967 10.73-23.967 23.967 0 13.236 10.73 23.966 23.967 23.966z"/>
            <path fill="url(#prefix__paint2_linear)" d="M217.184 50.515c12.334 0 22.333-9.836 22.333-21.97 0-8-4.346-15-10.842-18.842-.229-.134-.459-.265-.692-.392l-21.229 38.666c3.222 1.674 6.8 2.544 10.43 2.538z"/>
        </g>
        <path fill="#fff" fill-rule="evenodd" d="M226.331 22.116c-.127-.151-.285-.275-.463-.362-.178-.087-.373-.136-.571-.144-.198-.007-.395.027-.579.1-.185.074-.351.185-.49.327l-9.726 9.945-4.55-4.662c-.145-.148-.318-.266-.51-.346-.191-.08-.397-.122-.605-.12-.207 0-.413.043-.604.125-.19.082-.363.201-.507.351-.298.31-.465.725-.464 1.155 0 .431.167.845.466 1.155l6.774 7.04 11.751-12.232c.617-.645.651-1.648.078-2.332z" clip-rule="evenodd"/>
        <mask id="prefix__e" width="56" height="56" x="42" y="0" maskUnits="userSpaceOnUse">
            <path fill="#fff" d="M70 56c15.464 0 28-12.536 28-28S85.464 0 70 0 42 12.536 42 28s12.536 28 28 28z"/>
        </mask>
        <g mask="url(#prefix__e)">
            <path fill="#fff" d="M70 56c15.464 0 28-12.536 28-28S85.464 0 70 0 42 12.536 42 28s12.536 28 28 28z"/>
            <path fill="#4AD2DC" fill-opacity=".2" d="M70 56c15.464 0 28-12.536 28-28S85.464 0 70 0 42 12.536 42 28s12.536 28 28 28z"/>
            <path fill="url(#prefix__paint3_linear)" d="M68.458 56.875c16.8 0 30.417-13.575 30.417-30.323 0-11.043-5.92-20.707-14.767-26.01-.312-.185-.626-.365-.942-.542L54.25 53.371c4.383 2.31 9.259 3.512 14.207 3.504h.001z"/>
        </g>
        <path fill="#1AC0CC" d="M65.34 23.099h8.227c9.669 11.118 12.869 18.584 9.6 22.398-4.502.003-20.57 0-27.427 0-4.755-5.547 2.801-14.468 9.6-22.398z"/>
        <path fill="#fff" d="M69.72 42.794c4.544 0 8.228-3.447 8.228-7.7 0-4.251-3.684-7.699-8.228-7.699s-8.228 3.448-8.228 7.7c0 4.252 3.684 7.7 8.228 7.7z"/>
        <path fill="#FFD560" d="M65.238 20.299h8.19c.37 0 .723.146.983.407.261.26.408.614.408.983v.02c0 .368-.147.722-.408.982-.26.261-.614.408-.983.408h-8.19c-.369 0-.722-.147-.983-.408-.26-.26-.407-.614-.407-.983v-.019c0-.369.146-.722.407-.983.26-.26.614-.407.983-.407z"/>
        <path fill="#4AD2DC" d="M62.477 11.9l6.857-1.4 6.856 1.4-2.742 8.4H65.22l-2.743-8.4z"/>
        <path fill="#0AA2AD" d="M63.163 13.3l-2.057.7 4.114 6.3-2.057-7zm12.342 0l2.058.7-4.115 6.3 2.057-7z"/>
        <path fill="#1AC0CC" d="M69.336 10.5l6.857 1.4-2.743 8.4h-4.114v-9.8z"/>
        <path fill="#FFD560" d="M69.446 22.052c.012-.09.04-.177.086-.256.045-.079.105-.148.178-.203.072-.056.154-.096.242-.12.087-.023.179-.029.269-.017.375.055.636.409.583.791-.006.046-.017.144-.029.285-.08 1.01-.022 2.151.27 3.21.282 1.027.759 1.847 1.456 2.406.298.239.35.679.115.983-.054.072-.123.133-.201.178-.079.045-.165.074-.255.085-.09.01-.181.003-.268-.021-.087-.025-.168-.068-.239-.124-.948-.761-1.573-1.836-1.929-3.128-.342-1.244-.407-2.54-.315-3.701.013-.17.027-.296.037-.368z"/>
        <path fill="#FFD560" d="M70.955 22.624c-.06-.174-.047-.365.033-.531.08-.166.223-.294.396-.356.36-.123.749.073.87.439.674 2.035 2.162 3.023 4.623 3.023.379 0 .686.314.686.7 0 .386-.307.7-.686.7-3.025 0-5.051-1.345-5.922-3.975z"/>
        <path fill="#1A4379" d="M64.529 32.77l-.015.072c-.044.318.145.652.45.775l1.822.736-.273 1.923c-.101.708.071 1.32.515 1.825.443.505 1.03.759 1.753.759l.152-.004c.554-.029 1.067-.213 1.537-.552l.044-.035-.075-.071c.442.44.997.662 1.658.662.718 0 1.368-.25 1.946-.748.577-.497.918-1.1 1.018-1.804l.304-2.161c.038-.27-.233-.47-.574-.47h-.663c-.337 0-.645.264-.691.591l-.283 2.008c-.027.19-.12.355-.283.498-.148.136-.34.212-.541.212-.19 0-.338-.065-.453-.196-.115-.132-.16-.289-.132-.482l.17-1.219c.003-.074-.009-.148-.035-.218-.027-.07-.067-.133-.12-.186-.052-.053-.115-.095-.184-.123-.069-.027-.143-.04-.217-.039h-.676c-.31 0-.599.225-.676.522l-.179 1.23c-.027.198-.128.377-.283.503-.162.14-.338.208-.53.208-.087.003-.173-.014-.252-.048-.08-.035-.15-.087-.206-.153-.058-.064-.1-.14-.124-.222-.024-.083-.028-.17-.014-.255l.378-2.664c.048-.307-.134-.63-.425-.762l-3.037-1.236c-.267-.106-.544.113-.632.453l-.174.67z"/>
        <path fill="#001D53" d="M338.991 33.868c1.786-2.079 1.982-2.079 2.831-3.278.273-.38 1.404-2.003 2.57-4.834.174-.425.458-1.134 1.622-5.076 1.253-4.248 1.96-6.752 3.605-9.366.152-.247.315-.487.489-.719 1.18-1.593 2.615-2.98 4.248-4.105 1.677-1.198 5.966-3.9 11.672-3.584 7.405.404 12.13 5.61 13.785 7.417 2.352 2.604 3.745 5.391 4.248 6.405.282.555 1.414 2.897 2.318 6.316 1.154 4.356.446 4.89 1.557 7.938.62 1.678 1.557 3.159 3.441 6.133 2.233 3.517 3.136 4.29 4.256 6.751.731 1.602 1.272 3.283 1.613 5.01h-31.109l-.357-13.527c.906-.45 4.408-2.32 4.919-5.542.087-.577.36-2.233-.599-2.995-.707-.566-1.698-.348-2.003-.285-1.623.338-2.373 1.875-2.494 2.125-2.472-4.858-4.94-9.72-7.404-14.583l-9.179 5.01c-.767 3.512-1.42 7.57-1.361 11.134.018 1.19.117 2.321.315 3.362.284 1.492.72 3.67 2.472 5.456 1.885 1.918 4.607 2.69 5.673 2.995 2.766.784 3.528.175 4.454 1.154 0 0 .007.01.017.035l.003.006c.079.202.331 1.274-.707 5.633l-1.709-.261c-8.319-1.23-16.627-2.461-24.935-3.703.348-2.875 1.253-4.879 1.982-6.153.827-1.438 1.807-2.581 3.767-4.869z"/>
        <path fill="#A25949" d="M375.078 52.123v-3.246h-8.94l-.359-13.526c.904-.447 4.41-2.32 4.922-5.543.086-.577.359-2.233-.6-2.995-.706-.567-1.697-.35-2.003-.284-1.623.337-2.373 1.873-2.492 2.124-2.473-4.857-4.944-9.724-7.405-14.583l-9.18 5.01c-1.023 4.683-1.84 10.334-1.045 14.496.283 1.492.719 3.67 2.472 5.456 1.884 1.918 4.606 2.69 5.672 2.995 2.766.784 3.529.175 4.455 1.154 0 0 .72.945-1.53 8.92 1.057 4.378 5.138 7.176 9.144 6.64 3.306-.442 6.103-3.093 6.889-6.618z"/>
        <path fill="#000" d="M360.504 26.443c-.112.853-.55 1.5-.974 1.443-.427-.056-.681-.793-.569-1.646.114-.854.55-1.499.975-1.444.427.057.681.794.569 1.647"/>
        <path fill="#000" fill-rule="evenodd" d="M357.527 34.291s-.966 1.838-3.469 1.547l3.469-1.547zM358.352 19.902c.95-.188 1.931-.149 2.863.116 1.139.33 2.159.983 2.937 1.878M354.928 27.531s-1.051 2.836-.72 3.21c.33.376 1.226.173 1.226.173" clip-rule="evenodd"/>
        <path fill="#001D53" d="M377.089 7.056c0 2.521 1.345 4.85 3.528 6.111 2.183 1.26 4.872 1.26 7.055 0s3.527-3.59 3.527-6.11c0-3.898-3.158-7.057-7.055-7.057-3.896 0-7.055 3.16-7.055 7.056z"/>
        <path fill="#0AA2AD" d="M317.264 34.548l18.257-2.878c2.306-.36 4.006-2.347 4.006-4.682 0-2.335-1.7-4.322-4.006-4.682l-18.257-2.878v15.12z"/>
        <path fill="#48DCE7" d="M311.898 26.988c0 4.176 2.402 7.56 5.365 7.56 2.964 0 5.366-3.384 5.366-7.56 0-4.175-2.403-7.56-5.366-7.56-2.963 0-5.365 3.385-5.365 7.56z"/>
        <path fill="#221F1F" d="M350.344 25.507c-.049.862-.534 1.535-1.084 1.505-.55-.031-.957-.756-.909-1.616.048-.864.534-1.537 1.084-1.506.551.03.956.755.909 1.617z"/>
        <path fill="#0AA2AD" d="M329.799 34.548l21.793-2.878c2.75-.362 4.775-2.348 4.775-4.681s-2.024-4.32-4.775-4.683l-21.793-2.878v15.12z"/>
        <path fill="#48DCE7" d="M324.432 26.988c0 4.176 2.402 7.56 5.367 7.56 2.962 0 5.365-3.384 5.365-7.56 0-4.175-2.404-7.56-5.365-7.56-2.964 0-5.367 3.385-5.367 7.56z"/>
        <path fill="#F5B335" d="M378.183 85.621l-11.15-12.506s15.26-16.18 18.087-18.2c2.827-2.02 10.163-5.252 14.875 1.01 1.79 2.379 2.695 4.41 2.626 6.434-.12 3.577-2.478 6.3-8.482 11.339-5.092 4.269-10.419 8.25-15.956 11.923z"/>
        <path fill="#A25949" d="M378.191 85.615s-20.543 15.831-22.973 17.478c-2.431 1.646-5.488 3.294-8.78.861-3.293-2.429-3.528-3.37-3.921-16.544 0 0-1.229-45.422-1.461-51.018-.653-2.587-1.472-6.328-1.805-10.114-.086-.967-.174-2.32.675-3.335.942-1.127 2.588-1.302 3.272-1.373.692-.073 1.555-.163 2.43.228 2.057.922 2.375 3.704 2.4 3.95l.208 1.87s1.558-3.948 2.493-3.22c.935.726 0 2.7-.935 5.609s-2.389 6.44-2.285 8.103c.104 1.663 7.686 46.027 7.686 46.027l11.847-11.029 11.149 12.507z"/>
        <path stroke="#FFCD74" stroke-linecap="round" stroke-linejoin="round" stroke-width="1.226" d="M381.211 83.565l-11.856-12.896"/>
        <path stroke="#221F1F" stroke-linecap="round" stroke-linejoin="round" stroke-width="1.226" d="M387.137 118.238h-44.054"/>
        <path fill="#C3D4FA" d="M276 160c2.708-6.977 2.243-14.949 2.914-19.411 1.072-7.13-.536-11.943-4.467-12.478-3.931-.535-6.829 6.271-6.829 6.271s-1.672-9.64-4.645-15.942c-2.974-6.303-9.291-9.269-13.379-4.264-4.088 5.005-.98 23.396-.98 23.396-.585-.384-5.494-3.549-8.386-1.709-3.108 1.979-1.789 8.401-1.226 11.136.932 4.541 3.686 9.571 6.236 13.001"/>
        <path fill="#0657CD" fill-rule="evenodd" d="M270 137.198L273 160h18.679l2.785-22.802H270z" clip-rule="evenodd"/>
        <path fill="#1A72F1" fill-rule="evenodd" d="M270.269 140.071h23.612l.411-3.371h-24.464l.441 3.371z" clip-rule="evenodd"/>
        <path fill="#0657CD" fill-rule="evenodd" d="M265.648 132.139l1.989 5.948h28.575l1.856-5.948h-32.42z" clip-rule="evenodd"/>
        <path fill="#0AA2AD" fill-rule="evenodd" d="M263.02 124.803s3.182-2.578 4.375-1.586c1.194.991 4.972 8.922 4.972 8.922h4.575s-8.154-18.637-13.922-7.336zM285.098 132.14s8.353-10.707 16.707-12.293c0 0-3.381 7.534-11.536 12.293h-5.171z" clip-rule="evenodd"/>
        <path fill="#1AC0CC" fill-rule="evenodd" d="M270.251 100.218s-2.192 20.224 5.903 31.922h3.373s-4.047-20.026-9.276-31.922z" clip-rule="evenodd"/>
        <path fill="#0AA2AD" fill-rule="evenodd" d="M276.654 87.726s-1.392 31.525 2.586 44.413h3.878s4.077-23.396-6.464-44.413z" clip-rule="evenodd"/>
        <path fill="#1AC0CC" fill-rule="evenodd" d="M282.41 132.141c4.723-14.056 4.276-35.095 20.984-43.026-10.349 10.404-2.984 24.983-18.299 43.026h-2.685z" clip-rule="evenodd"/>
    </g>
    <defs>
        <linearGradient id="prefix__paint0_linear" x1="157.378" x2="133.954" y1="3.83" y2="50.827" gradientUnits="userSpaceOnUse">
            <stop stop-color="#E6F7FF"/>
            <stop offset="1" stop-color="#C6EDFF"/>
        </linearGradient>
        <linearGradient id="prefix__paint1_linear" x1="231.952" x2="210.124" y1="7.335" y2="51.403" gradientUnits="userSpaceOnUse">
            <stop stop-color="#F0F5F7"/>
            <stop offset="1" stop-color="#DDE2E5" stop-opacity=".4"/>
        </linearGradient>
        <linearGradient id="prefix__paint2_linear" x1="228.583" x2="212.898" y1="12.085" y2="43.809" gradientUnits="userSpaceOnUse">
            <stop stop-color="#65BD37"/>
            <stop offset="1" stop-color="#47AB2E"/>
        </linearGradient>
        <linearGradient id="prefix__paint3_linear" x1="83.878" x2="60.454" y1="3.83" y2="50.827" gradientUnits="userSpaceOnUse">
            <stop stop-color="#4AD2DC" stop-opacity=".1"/>
            <stop offset="1" stop-color="#4AD2DC" stop-opacity=".2"/>
        </linearGradient>
    </defs>
</svg>
