<svg width="481" height="481" viewBox="0 0 481 481" fill="none" xmlns="http://www.w3.org/2000/svg">
<mask id="mask0" style="mask-type:alpha" maskUnits="userSpaceOnUse" x="0" y="0" width="481" height="481">
<rect width="481" height="481" fill="#C4C4C4"/>
</mask>
<g mask="url(#mask0)">
<rect width="292" height="292" rx="8" transform="matrix(0.866025 0.5 -0.499983 0.866035 179.995 41)" fill="#F0F4FF"/>
<path d="M189.807 303.216L206.981 273.469L241.638 213.441C243.289 210.581 246.946 209.601 249.806 211.252L291.231 235.169C294.09 236.82 295.07 240.477 293.419 243.337L241.588 333.111C239.334 337.016 233.734 337.116 231.342 333.295L220.342 315.724C219.289 314.042 217.47 312.993 215.488 312.922L194.771 312.18C190.266 312.019 187.553 307.12 189.807 303.216Z" fill="#305BEF"/>
<path d="M371.193 303.216L354.019 273.469L319.362 213.441C317.711 210.581 314.054 209.601 311.194 211.252L269.769 235.169C266.91 236.82 265.93 240.477 267.581 243.337L319.412 333.111C321.666 337.016 327.266 337.116 329.658 333.295L340.658 315.724C341.711 314.042 343.53 312.993 345.512 312.922L366.229 312.18C370.734 312.019 373.447 307.12 371.193 303.216Z" fill="#305BEF"/>
<path d="M268.543 84.8623C275.943 80.59 285.06 80.59 292.46 84.8623L372.105 130.846C379.505 135.118 384.063 143.014 384.063 151.558V243.525C384.063 252.069 379.505 259.965 372.105 264.237L292.46 310.221C285.06 314.493 275.943 314.493 268.543 310.221L188.897 264.237C181.497 259.965 176.939 252.069 176.939 243.525V151.558C176.939 143.014 181.497 135.118 188.897 130.846L268.543 84.8623Z" fill="#D0DBFF"/>
<path d="M277.51 103.601C279.36 102.533 281.639 102.533 283.489 103.601L360.36 147.982C362.21 149.05 363.349 151.024 363.349 153.161V241.923C363.349 244.059 362.21 246.033 360.36 247.101L283.489 291.482C281.639 292.55 279.36 292.55 277.51 291.482L200.639 247.101C198.79 246.033 197.65 244.059 197.65 241.923V153.161C197.65 151.024 198.79 149.05 200.639 147.982L277.51 103.601Z" fill="#7996F9"/>
<path d="M274.142 144.488C276.62 139.49 283.781 139.49 286.26 144.488L298.486 169.143C299.47 171.128 301.372 172.504 303.573 172.822L330.912 176.776C336.453 177.577 338.666 184.355 334.656 188.246L314.874 207.437C313.281 208.982 312.555 211.208 312.931 213.389L317.601 240.488C318.547 245.982 312.754 250.171 307.797 247.577L283.345 234.783C281.377 233.753 279.025 233.753 277.057 234.783L252.604 247.577C247.648 250.171 241.854 245.982 242.801 240.488L247.471 213.389C247.847 211.208 247.12 208.982 245.528 207.437L225.746 188.246C221.735 184.355 223.948 177.577 229.49 176.776L256.829 172.822C259.029 172.504 260.932 171.128 261.916 169.143L274.142 144.488Z" fill="white"/>
<mask id="mask1" style="mask-type:alpha" maskUnits="userSpaceOnUse" x="176" y="78" width="209" height="239">
<path d="M277.512 79.6845C279.362 78.6164 281.641 78.6164 283.491 79.6845L381.074 136.024C382.924 137.092 384.063 139.066 384.063 141.202V253.881C384.063 256.018 382.924 257.991 381.074 259.059L283.491 315.399C281.641 316.467 279.362 316.467 277.512 315.399L179.929 259.059C178.079 257.991 176.939 256.018 176.939 253.881V141.202C176.939 139.066 178.079 137.092 179.929 136.024L277.512 79.6845Z" fill="#D0DBFF"/>
</mask>
<g mask="url(#mask1)">
<rect x="405.292" y="42.0835" width="54.6667" height="396.333" transform="rotate(45 405.292 42.0835)" fill="#F7F9FA" fill-opacity="0.2"/>
</g>
<path d="M93.8784 279.299C93.8784 276.837 95.8746 274.841 98.337 274.841H169.675C172.137 274.841 174.133 276.837 174.133 279.299V323.885C174.133 326.348 172.137 328.344 169.675 328.344H98.337C95.8746 328.344 93.8784 326.348 93.8784 323.885V279.299Z" fill="#916A00"/>
<path fill-rule="evenodd" clip-rule="evenodd" d="M111.713 248.089C109.251 248.089 107.254 250.086 107.254 252.548V345.882C107.254 349.445 111.227 351.569 114.19 349.589L131.833 337.8C133.381 336.765 135.409 336.802 136.919 337.892L153.69 349.995C156.639 352.123 160.758 350.016 160.758 346.38V252.548C160.758 250.086 158.761 248.089 156.299 248.089H111.713Z" fill="#BE8B00"/>
<circle cx="134.002" cy="239.172" r="71.3376" fill="#FFC72C"/>
<circle cx="134.007" cy="239.172" r="53.5032" fill="#BE8B00"/>
<path d="M130.006 204.917C131.641 201.603 136.366 201.603 138.002 204.917L146.07 221.264C146.719 222.58 147.975 223.492 149.427 223.703L167.467 226.324C171.124 226.856 172.585 231.35 169.938 233.929L156.884 246.654C155.833 247.678 155.354 249.154 155.602 250.601L158.683 268.568C159.308 272.21 155.485 274.988 152.214 273.268L136.078 264.785C134.78 264.102 133.228 264.102 131.929 264.785L115.793 273.268C112.522 274.988 108.699 272.21 109.324 268.568L112.406 250.601C112.654 249.154 112.174 247.678 111.123 246.654L98.0691 233.929C95.4228 231.35 96.8831 226.856 100.54 226.324L118.581 223.703C120.033 223.492 121.288 222.58 121.938 221.264L130.006 204.917Z" fill="white"/>
<mask id="mask2" style="mask-type:alpha" maskUnits="userSpaceOnUse" x="62" y="167" width="144" height="144">
<circle cx="134.002" cy="239.172" r="71.3376" fill="#BFCDD4"/>
</mask>
<g mask="url(#mask2)">
<rect x="218.144" y="123.248" width="40.7643" height="295.541" transform="rotate(45 218.144 123.248)" fill="#F7F9FA" fill-opacity="0.2"/>
</g>
<path d="M401.618 403.693C403.532 404.798 404.187 407.244 403.083 409.157L395.083 423.014C393.978 424.927 391.532 425.583 389.618 424.478L375.762 416.478C373.849 415.373 373.194 412.927 374.298 411.013L382.298 397.157C383.403 395.244 385.849 394.588 387.762 395.693L401.618 403.693Z" fill="#E5ECFF"/>
<path d="M425.265 341.881C426.369 339.968 428.816 339.312 430.729 340.417L451.513 352.417C453.427 353.521 454.082 355.968 452.978 357.881L440.978 378.666C439.873 380.579 437.427 381.234 435.514 380.13L414.729 368.13C412.816 367.025 412.16 364.579 413.265 362.666L425.265 341.881Z" fill="#D0DBFF"/>
<path d="M66.3201 61.0003C68.2333 62.1049 68.8887 64.5513 67.7842 66.4645L59.7842 80.3209C58.6796 82.2341 56.2333 82.8895 54.3201 81.7849L40.4639 73.7847C38.5507 72.6801 37.8952 70.2337 38.9998 68.3205L46.9998 54.4641C48.1044 52.5509 50.5507 51.8955 52.4639 53.0001L66.3201 61.0003Z" fill="#D0DBFF"/>
<path d="M101.648 84.663C103.561 85.7676 104.217 88.214 103.112 90.1272L99.1123 97.0554C98.0077 98.9685 95.5614 99.624 93.6482 98.5194L86.7201 94.5193C84.807 93.4147 84.1515 90.9683 85.2561 89.0551L89.2561 82.1269C90.3606 80.2137 92.807 79.5582 94.7201 80.6629L101.648 84.663Z" fill="#E5ECFF"/>
</g>
</svg>
