<svg width="80" height="64" viewBox="0 0 80 64" fill="none" xmlns="http://www.w3.org/2000/svg">
<mask id="mask0" mask-type="alpha" maskUnits="userSpaceOnUse" x="0" y="0" width="80" height="64">
<rect width="80" height="64" fill="#C4C4C4"/>
</mask>
<g mask="url(#mask0)">
<path fill-rule="evenodd" clip-rule="evenodd" d="M4.95625 34.2833L12.8577 42.1953L15.4211 42.1953L15.4211 19.3046L12.8577 19.3046L4.95617 27.217C3.00677 29.1691 3.0068 32.3313 4.95625 34.2833ZM11.8698 30.75C11.8698 29.4892 10.8448 28.4671 9.58046 28.4671C8.31611 28.4671 7.29114 29.4892 7.29114 30.75C7.29114 32.0108 8.31611 33.0328 9.58046 33.0328C10.8448 33.0328 11.8698 32.0108 11.8698 30.75Z" fill="#8CACF6"/>
<path d="M14.3857 19.3047H38.4885V42.1943H14.3857V19.3047Z" fill="white"/>
<path d="M35.9995 19.3047H37.812C40.0211 19.3047 41.812 21.0955 41.812 23.3047V38.1943C41.812 40.4034 40.0211 42.1943 37.812 42.1943H35.9995V19.3047Z" fill="#8CACF6"/>
<path fill-rule="evenodd" clip-rule="evenodd" d="M4.08099 28.9816C3.10438 29.9596 3.10439 31.5408 4.08103 32.5188L12.9347 41.3843C13.0526 41.5023 13.2129 41.5687 13.38 41.5687L39.2995 41.5687C40.3406 41.5687 41.1846 40.7271 41.1846 39.6889L41.1846 21.811C41.1846 20.7728 40.3406 19.9312 39.2995 19.9312L13.38 19.9312C13.2129 19.9312 13.0526 19.9976 12.9347 20.1157L4.08099 28.9816ZM3.19053 33.4031C1.72558 31.9361 1.72555 29.5643 3.19047 28.0973L12.0442 19.2314C12.398 18.8772 12.8786 18.678 13.38 18.678L39.2995 18.678C41.0347 18.678 42.4413 20.0807 42.4413 21.811L42.4413 39.6889C42.4413 41.4192 41.0347 42.8219 39.2995 42.8219L13.38 42.8219C12.8786 42.8219 12.398 42.6228 12.0442 42.2686L3.19053 33.4031ZM9.58145 33.6594C7.97006 33.6594 6.66376 32.3568 6.66376 30.7499C6.66376 29.1431 7.97006 27.8405 9.58145 27.8405C11.1929 27.8405 12.4991 29.1431 12.4991 30.7499C12.4991 32.3568 11.1929 33.6594 9.58145 33.6594Z" fill="#1A4379"/>
<path fill-rule="evenodd" clip-rule="evenodd" d="M21.1409 28.4893C21.791 28.5178 22.3411 28.0153 22.3696 27.3671C22.3982 26.7189 21.8943 26.1703 21.2442 26.1419C20.5941 26.1134 20.044 26.6159 20.0155 27.2641C19.987 27.9123 20.4909 28.4609 21.1409 28.4893ZM21.0859 29.7413C22.4294 29.8001 23.5662 28.7617 23.6252 27.422C23.6841 26.0823 22.6428 24.9486 21.2993 24.8899C19.9558 24.8311 18.8189 25.8695 18.76 27.2092C18.701 28.5489 19.7424 29.6826 21.0859 29.7413Z" fill="#1A4379"/>
<path fill-rule="evenodd" clip-rule="evenodd" d="M28.7684 36.0965C29.4185 36.125 29.9686 35.6225 29.9971 34.9743C30.0256 34.326 29.5217 33.7775 28.8717 33.749C28.2216 33.7206 27.6715 34.223 27.643 34.8713C27.6144 35.5195 28.1183 36.0681 28.7684 36.0965ZM28.7133 37.3485C30.0568 37.4073 31.1937 36.3689 31.2526 35.0292C31.3116 33.6895 30.2702 32.5558 28.9267 32.497C27.5833 32.4383 26.4464 33.4767 26.3874 34.8164C26.3285 36.1561 27.3698 37.2897 28.7133 37.3485Z" fill="#1A4379"/>
<path d="M28.7876 26.4186C29.0656 26.1453 29.5132 26.1485 29.7873 26.4257C30.0614 26.703 30.0582 27.1493 29.7801 27.4226L21.3894 35.6704C21.1114 35.9437 20.6638 35.9405 20.3897 35.6632C20.1156 35.386 20.1188 34.9396 20.3969 34.6663L28.7876 26.4186Z" fill="#1A4379"/>
<path fill-rule="evenodd" clip-rule="evenodd" d="M0 63.9591H43.862C38.9103 56.1719 34.6551 54.323 30.931 54.0236C27.2068 54.1733 24.9586 55.4644 23.3793 57.5419C23.3793 57.5419 12.2069 44.6665 0 63.9591Z" fill="#92F1D3"/>
<path d="M43.6298 63.9591C50.1103 49.1074 59.7729 59.9568 59.7729 59.9568C60.4727 60.8531 61.8979 62.9414 62 63.9723L43.6298 63.9591Z" fill="#92F1D3"/>
<path d="M42.3639 18.4111C42.3639 17.7821 42.8738 17.2722 43.5028 17.2722C44.1319 17.2722 44.6418 17.7821 44.6418 18.4111L44.6416 63.9526H42.3638L42.3639 18.4111Z" fill="#8CACF6"/>
<path fill-rule="evenodd" clip-rule="evenodd" d="M45.8983 63.9538H41.1069V18.4079C41.1069 17.0886 42.1795 16.019 43.5026 16.019C44.8257 16.019 45.8983 17.0886 45.8983 18.4079V63.9538ZM43.5026 17.2722C42.8736 17.2722 42.3637 17.7807 42.3637 18.4079V63.9526H44.6415V18.4079C44.6415 17.7807 44.1316 17.2722 43.5026 17.2722Z" fill="#1A4379"/>
<path d="M60.9005 63.9756C59.5981 60.6121 58.5086 57.0093 58.1859 54.8588C57.6702 51.4214 58.4437 49.1014 60.3345 48.8433C62.2249 48.5855 63.6188 51.8662 63.6188 51.8662C63.6188 51.8662 64.4232 47.2195 65.853 44.1815C67.2831 41.1428 70.3214 39.7134 72.2879 42.1258C74.2541 44.5385 72.7594 53.4044 72.7594 53.4044C73.0404 53.2189 75.4016 51.6934 76.7925 52.5806C78.2875 53.5345 77.6528 56.6303 77.3823 57.9484C76.9338 60.1376 75.7631 62.3222 74.5364 63.9756" fill="#C3D4FA"/>
<path d="M66.1846 63.2547L68.892 47.3087" stroke="#8CACF6" stroke-linecap="round" stroke-linejoin="round"/>
</g>
</svg>
