<svg xmlns="http://www.w3.org/2000/svg" xmlns:xlink="http://www.w3.org/1999/xlink" width="400" height="200" viewBox="0 0 400 200">
    <defs>
        <path id="a" d="M0 0h400v200H0z"/>
        <linearGradient id="b" x1="72.565%" x2="72.565%" y1="100%" y2="0%">
            <stop offset="0%" stop-color="#E6F7FF"/>
            <stop offset="100%" stop-color="#2FB7EC" stop-opacity=".5"/>
        </linearGradient>
        <linearGradient id="d" x1="100%" x2="0%" y1="86.735%" y2="13.265%">
            <stop offset="0%" stop-color="#CEF2FD"/>
            <stop offset="100%" stop-color="#8BDCFB"/>
        </linearGradient>
        <linearGradient id="e" x1="55.556%" x2="44.444%" y1="100%" y2="0%">
            <stop offset="0%" stop-color="#8BDCFB"/>
            <stop offset="100%" stop-color="#8BDCFB"/>
        </linearGradient>
        <linearGradient id="f" x1="10.092%" x2="89.908%" y1="0%" y2="100%">
            <stop offset="0%" stop-color="#FFE557"/>
            <stop offset="100%" stop-color="#FFC72C"/>
        </linearGradient>
    </defs>
    <g fill="none" fill-rule="evenodd">
        <mask id="c" fill="#fff">
            <use xlink:href="#a"/>
        </mask>
        <use fill="#D8D8D8" fill-opacity="0" xlink:href="#a"/>
        <path fill="url(#b)" fill-rule="nonzero" d="M383.951 176.497c-8.998-3.685-18.247 5.312-18.247 5.312s11.198-22.906-14.958-19.509c0 0-1.948-4.091-5.782-5.18-4.134-1.171-12.995-.754-13.108 13.06 0 0-22.104-9.962-23.215 12.822-5.8-22.023-38.545-15.798-39.056-7.76-3.97-7.22-17.737-10.758-22.22 4.972 0 0 .134-7.193-7.646-10.587-7.78-3.393-17.436 3.462-13.95 16.368 0 0-2.838-6.79-9.958-6.385-6.501.369-7.728 6.57-7.728 6.57.216-4.356 1.182-11.466-13.887-11.282 7.18-5.399-5.962-24.216-16.791-11.69 0 0-5.073-11.173-16.082-.81 0 0 .297-8.488-9.283-8.397-5.757.052-10.801 4.207-9.59 11.04-3.039-4.75-14.983-4.648-15.82 4.201 0 0 .273-10.354-10.287-8.878-10.56 1.477-9.829 9.916-9.829 9.916-1.138-3.553-7.19-7.077-10.115-.46 0 0-.397-9.008-11.5-9.053-10.259-.042-10.62 13.186-7.613 15.447 0 0-20.534-18.258-27.328 3.433 0 0 .054-5.445-4.549-8.071-7.073-4.037-12.906 2.671-12.906 2.671s3.808-8.032-2.96-10.426c-6.765-2.394-7.863 4.424-7.863 4.424s-7.61-4.424-11.732-2.213c-4.122 2.212-6.525 4.248-8.074 12.414C.842 183.89.217 191.075 0 200h400.002c.008-4.454-.352-8.266-1.079-11.438-1.09-4.757-8.613-9.791-9.665-3.626 0 0 .557-6.039-5.307-8.439z" mask="url(#c)"/>
        <path fill="#006BA0" d="M298 52.697c.636-.957 6.112-8.906 16.394-9.643 9.17-.657 15.291 4.915 16.284 5.85.852-.419 5.372-2.545 10.493-.656 3.25 1.198 5.131 3.417 5.9 4.449h-49.07z" mask="url(#c)"/>
        <path fill="#4DC1BD" d="M97.758 200H81.536v-33.706a8.11 8.11 0 1 1 16.222 0V200z" mask="url(#c)"/>
        <path fill="#1B4278" fill-rule="nonzero" d="M90.398 200v-33.216a.751.751 0 1 0-1.502 0V200h1.502z" mask="url(#c)"/>
        <path stroke="#1B4278" stroke-linecap="round" stroke-linejoin="round" stroke-width="1.502" d="M84.571 173.635l5.124 5.123 5.21-5.21M84.48 184.262l5.124 5.124 5.209-5.212" mask="url(#c)"/>
        <path fill="#006BA0" d="M75.223 200H59v-33.706a8.11 8.11 0 1 1 16.222 0V200z" mask="url(#c)"/>
        <path fill="#1B4278" fill-rule="nonzero" d="M67.863 200v-33.216a.751.751 0 1 0-1.503 0V200h1.503z" mask="url(#c)"/>
        <path stroke="#1B4278" stroke-linecap="round" stroke-linejoin="round" stroke-width="1.502" d="M62.036 173.635l5.123 5.123 5.21-5.21M61.945 184.262l5.123 5.124 5.21-5.212" mask="url(#c)"/>
        <path fill="#006BA0" d="M59 80.744c.636-.957 6.112-8.906 16.394-9.643 9.17-.657 15.291 4.915 16.284 5.85.852-.419 5.372-2.545 10.493-.656 3.25 1.198 5.131 3.417 5.9 4.449h-49.07zM369.987 74.052c-.328-.421-4.655-5.766-12.945-6.002-5.688-.162-11.083 2.14-14.098 6.002h27.043z" mask="url(#c)"/>
        <path fill="#E6F7FF" fill-rule="nonzero" d="M128.816 122.392h141.397V200H128.816z" mask="url(#c)"/>
        <path fill="#79D6FA" fill-opacity=".5" fill-rule="nonzero" d="M146.49 143.601h28.28a3.535 3.535 0 0 1 3.535 3.535v53.113h-35.35v-53.113a3.535 3.535 0 0 1 3.535-3.535z" mask="url(#c)"/>
        <path fill="#FFF" fill-rule="nonzero" d="M188.91 143.601h63.628a3.535 3.535 0 0 1 3.535 3.535v31.815h-70.698v-31.815a3.535 3.535 0 0 1 3.535-3.535z" mask="url(#c)"/>
        <path fill="url(#d)" fill-rule="nonzero" d="M224.259 154.206h24.744v21.21H224.26z" mask="url(#c)"/>
        <path fill="url(#e)" fill-rule="nonzero" d="M241.934 154.206h7.07v21.21h-7.07z" mask="url(#c)"/>
        <path fill="#2FB7EC" fill-rule="nonzero" d="M227.794 154.206h10.605v7.07l-2.652-1.414-2.19 1.414-3.112-1.414-2.651 1.414z" mask="url(#c)"/>
        <path fill="url(#d)" fill-rule="nonzero" d="M192.444 154.206h24.745v21.21h-24.745z" mask="url(#c)"/>
        <path fill="url(#e)" fill-rule="nonzero" d="M210.12 154.206h7.069v21.21h-7.07z" mask="url(#c)"/>
        <path fill="#2FB7EC" fill-rule="nonzero" d="M195.98 154.206h10.604v7.07l-2.651-1.414-2.19 1.414-3.112-1.414-2.652 1.414z" mask="url(#c)"/>
        <path fill="#006BA0" fill-rule="nonzero" d="M128.816 69.368h141.397l7.07 53.024H121.746z" mask="url(#c)"/>
        <path fill="#2FB7EC" fill-rule="nonzero" d="M135.886 62.298h120.187v7.07H135.886z" mask="url(#c)"/>
        <path fill="#006BA0" fill-rule="nonzero" d="M130.583 58.763h137.863a1.767 1.767 0 1 1 0 3.535H130.583a1.767 1.767 0 0 1 0-3.535z" mask="url(#c)"/>
        <path fill="#E6F7FF" fill-rule="nonzero" d="M309.45 73.663c-.002 9.7-4.437 18.898-12.103 25.102-7.666 6.204-17.77 8.773-27.576 7.01l-12.434 4.772a2 2 0 0 1-2.708-2.05l.803-8.763.375.129c-12.673-9.185-17.047-25.724-10.504-39.718 6.542-13.994 22.231-21.656 37.677-18.401 15.446 3.255 26.468 16.546 26.47 31.92z" mask="url(#c)"/>
        <path fill="#2FB7EC" d="M290.828 70.512c-1.109 0-2.14.891-2.293 1.98l-1.126 8.105c-.124.883-.553 1.649-1.286 2.297-.732.65-1.558.974-2.473.974-.89 0-1.613-.318-2.164-.955-.553-.635-.765-1.407-.638-2.316l.68-4.919c.02-.982-.726-1.75-1.755-1.75h-2.695c-1.029 0-1.992.768-2.245 1.75l-.702 4.919c-.127.909-.557 1.68-1.288 2.316-.731.637-1.542.955-2.431.955-.891 0-1.618-.324-2.182-.974-.564-.648-.783-1.414-.66-2.297l1.51-10.755c.16-1.047-.469-2.141-1.428-2.585 0 0-11.366-4.675-12.106-4.975-.75-.303-1.6.376-1.89 1.509l-.695 2.705c-.291 1.133.365 2.422 1.456 2.863l7.617 3.111-1.14 8.127c-.384 2.725.263 5.057 1.944 6.99 1.679 1.936 3.893 2.902 6.644 2.902 2.54 0 4.858-.843 6.954-2.532 1.674 1.689 3.77 2.532 6.284 2.532 2.75 0 5.236-.966 7.459-2.902 2.222-1.933 3.525-4.265 3.908-6.99l1.215-8.727c.104-.747-.716-1.358-1.824-1.358h-2.65z" mask="url(#c)"/>
        <path fill="#2FB7EC" fill-rule="nonzero" d="M263.143 123.511c-.011 3.282-3.115 5.94-6.947 5.95h-.253c-3.83-.01-6.932-2.669-6.94-5.95-.011 3.282-3.115 5.94-6.946 5.95h-.253c-3.831-.01-6.933-2.669-6.94-5.95-.012 3.282-3.115 5.94-6.947 5.95h-.253c-3.83-.01-6.932-2.669-6.94-5.95-.012 3.282-3.115 5.94-6.947 5.95h-.253c-3.83-.01-6.932-2.669-6.94-5.95-.011 3.282-3.115 5.94-6.947 5.95h-.253c-3.83-.01-6.932-2.669-6.94-5.95-.011 3.282-3.115 5.94-6.946 5.95h-.253c-3.831-.01-6.933-2.669-6.94-5.95-.012 3.282-3.115 5.94-6.947 5.95h-.253c-3.83-.01-6.932-2.669-6.94-5.95-.012 3.282-3.115 5.94-6.947 5.95h-.253c-3.83-.01-6.932-2.669-6.94-5.95-.011 3.282-3.115 5.94-6.947 5.95h-.253c-3.83-.01-6.932-2.669-6.94-5.95-.011 3.282-3.115 5.94-6.946 5.95h-.253c-3.831-.01-6.932-2.669-6.94-5.95v-1.12h155.537v1.12c-.012 3.282-3.115 5.94-6.947 5.95h-.253c-3.83-.01-6.932-2.669-6.94-5.95z" mask="url(#c)"/>
        <circle cx="173.002" cy="170.114" r="1.767" fill="#006BA0" fill-rule="nonzero" mask="url(#c)"/>
        <path fill="#2FB7EC" fill-rule="nonzero" d="M185.375 175.416h70.698v3.535h-70.698z" mask="url(#c)"/>
        <path fill="#4DC1BD" d="M309.097 167.398c0 8.506-7.408 15.358-16.428 15.08-8.133-.25-15.371-7.337-15.386-15.05-.007-3.282 1.09-6.317 2.963-8.792 1.861-2.462 2.329-5.549 1.592-8.494a10.632 10.632 0 0 1-.135-4.49c.805-4.455 4.549-8.086 9.238-8.92 7.437-1.32 13.931 4.054 13.931 10.866 0 1.042-.15 2.05-.435 3.005-.82 2.757-.054 5.714 1.703 8.043 1.861 2.469 2.957 5.493 2.957 8.752" mask="url(#c)"/>
        <path fill="#006BA0" fill-rule="nonzero" d="M293.19 154.206c.976 0 1.767.792 1.767 1.768V200h-3.534v-44.026c0-.976.79-1.768 1.767-1.768z" mask="url(#c)"/>
        <path fill="#FFE557" fill-rule="nonzero" d="M104.071 168.346h42.42V200h-42.42z" mask="url(#c)"/>
        <path fill="url(#f)" fill-rule="nonzero" d="M104.071 168.346h28.28V200h-28.28z" mask="url(#c)"/>
        <path fill="#FFF" fill-rule="nonzero" d="M121.746 193.091h7.07v3.535h-7.07z" mask="url(#c)"/>
        <path fill="#F0B616" fill-rule="nonzero" d="M109.639 168.346h17.674v10.1l-2.923-1.01-2.968 1.01-2.946-1.01-2.946 1.01-2.946-1.01-2.945 1.01zM136.896 168.346h5.05v10.216l-2.526-1.022-2.524 1.022z" mask="url(#c)"/>
        <path fill="#006BA0" d="M313.633 187.143l-3.206 3.206c-.037.045-.082.082-.118.127a2.494 2.494 0 0 1-.236.2c-.01.008-.019.018-.028.018-.045.026-.081.054-.118.073a4.46 4.46 0 0 1-.227.108c-.1.036-.2.072-.309.091h-.018a1.486 1.486 0 0 1-.345.037 1.881 1.881 0 0 1-.863-.218c-.081-.037-.154-.091-.227-.137a1.716 1.716 0 0 1-.2-.172c-.045-.045-.081-.082-.118-.127l-3.205-3.206a1.809 1.809 0 0 1 0-2.561 1.804 1.804 0 0 1 2.57 0l.227.227v-.772a1.81 1.81 0 0 1 1.816-1.816c1 0 1.817.808 1.817 1.816v.772l.227-.227a1.793 1.793 0 0 1 2.56 0 1.793 1.793 0 0 1 0 2.561" mask="url(#c)"/>
        <path fill="#006BA0" fill-rule="nonzero" d="M309.142 189.732c.414 0 .75.337.75.752V200h-1.502v-9.516c0-.415.337-.752.752-.752z" mask="url(#c)"/>
        <path fill="#006BA0" d="M327.154 187.143l-3.206 3.206c-.036.045-.082.082-.118.127a2.494 2.494 0 0 1-.236.2c-.01.008-.018.018-.028.018-.045.026-.081.054-.118.073a4.46 4.46 0 0 1-.227.108c-.1.036-.2.072-.308.091h-.019a1.486 1.486 0 0 1-.345.037 1.881 1.881 0 0 1-.863-.218c-.081-.037-.154-.091-.227-.137a1.716 1.716 0 0 1-.2-.172c-.045-.045-.081-.082-.117-.127l-3.206-3.206a1.809 1.809 0 0 1 0-2.561 1.804 1.804 0 0 1 2.57 0l.227.227v-.772a1.81 1.81 0 0 1 1.816-1.816c1 0 1.817.808 1.817 1.816v.772l.227-.227a1.793 1.793 0 0 1 2.56 0 1.793 1.793 0 0 1 0 2.561" mask="url(#c)"/>
        <path fill="#006BA0" fill-rule="nonzero" d="M322.663 189.732c.415 0 .75.337.75.752V200h-1.502v-9.516c0-.415.337-.752.752-.752z" mask="url(#c)"/>
    </g>
</svg>
