<svg xmlns="http://www.w3.org/2000/svg" xmlns:xlink="http://www.w3.org/1999/xlink" width="60" height="96" viewBox="0 0 60 96">
    <defs>
        <path id="a" d="M0 0h60v96H0z"/>
    </defs>
    <g fill="none" fill-rule="evenodd" transform="matrix(-1 0 0 1 60 0)">
        <mask id="b" fill="#fff">
            <use xlink:href="#a"/>
        </mask>
        <path stroke="#2FB7EC" stroke-width=".5" d="M25.55 67.888c-.7-.905-9.051-9.97-3.928-15.996 4.765-5.603 10.295 2.684 6.653 6.173-2.553 2.445-7.81 2.389-10.37-2.744-2.962-5.937.235-8.95 1.248-15.688.511-3.41-1.787-5.34-1.787-5.34" mask="url(#b)"/>
        <path fill="#006BA0" d="M31.32 68.085l7.968 9.363-6.438 5.523-7.967-9.364.468-5.984z" mask="url(#b)"/>
        <path fill="#00948B" d="M23.957 28.31c-.281-2.986-.629-5.114-2.205-9.187-1.575-4.073.8-4.869 1.555-3.515.756 1.354.347 1.836.347 1.836s.71-.898 1.488-.55c.777.346.901 2.2.901 2.2s.765-.86 1.734-.313c.969.546.324 2.574.324 2.574s1.503-.794 2.06-.255c.557.54.49 1.398-.106 2.051 0 0 1.676-.39 1.758 1.382l-7.856 3.777z" mask="url(#b)"/>
        <path stroke="#000" stroke-linecap="round" stroke-width=".4" d="M40.218 28.676s-2.077.746-3.644.965M41.13 27.347s-1.23.396-.978 1.304M40.152 28.65c.714.672 1.497-.327 1.497-.327M41.48 27.704c-.447.435-.893.817-1.328.946" mask="url(#b)"/>
        <path fill="#02C4BD" d="M18.27 33.625c-1.855-2.457-.054-5.74 3.122-6.05 3.174-.308 9.557-1.878 15.135-5.727a4.407 4.407 0 0 0 1.503-1.794c.79-1.726 1.195-2.924 1.586-3.5.631-.93 2.072.913 1.492 1.721.857-.3 1.882 1.031 1.464 1.799.975-.222 1.54 1.888.824 1.973-.97.116-2.633-.021-4.195-.078a.721.721 0 0 0-.748.759c.33 5.614-.292 9.794-6.352 12.603-8.152 3.778-12.852-.411-13.83-1.706" mask="url(#b)"/>
        <path fill="#000" d="M17.794 32.768L16 35.166l2.555-1.193.178-.548z" mask="url(#b)"/>
        <path fill="#00948B" d="M23.733 31.387a1.262 1.262 0 0 1-.426 1.729 1.251 1.251 0 0 1-1.721-.428 1.262 1.262 0 0 1 .425-1.728 1.251 1.251 0 0 1 1.722.427" mask="url(#b)"/>
        <path fill="#000" d="M20.139 31.21a.534.534 0 0 1-.18.733.53.53 0 0 1-.73-.18.536.536 0 0 1 .18-.734.53.53 0 0 1 .73.181" mask="url(#b)"/>
        <path stroke="#00948B" stroke-linecap="round" stroke-width=".4" d="M38.489 20.435s.992-1.836 1.83-3.27M38.805 20.865l3.13-1.723M39.093 21.367s2.425-.21 3.938-.284M39.168 20.107l1.384-1.313M39.657 20.908l1.914-.592" mask="url(#b)"/>
        <path stroke="#000" stroke-linecap="round" stroke-width=".4" d="M39.96 30.937s-2.194.242-3.768.09M41.154 29.856s-1.288.099-1.253 1.04M39.901 30.896c.54.82 1.533.03 1.533.03M41.412 30.285c-.536.319-1.057.587-1.51.611" mask="url(#b)"/>
        <path fill="#FFF" d="M22.743 36.453c2.296.667 5.424.701 9.358-1.122 4.293-1.99 5.855-4.67 6.285-8.058-6.219 1.145-12.559 3.818-15.643 9.18" mask="url(#b)"/>
        <path fill="#00948B" d="M24.81 30.6s.807 4.538.843 8.375c.036 3.836.859 7.431 1.561 8.116.703.684 1.89.14 1.627-2.04 0 0 .89 1.403 1.892.49 1.002-.912.129-2.061.129-2.061s.8.522 1.518.147c.718-.373-.158-2.133-.158-2.133s.704.765 1.43.355c.726-.41-.39-2.42-.39-2.42s.783.747 1.344.162c.56-.584.483-1.27-.68-2.396 0 0 .705.213 1.097-.299.391-.512 1.552-1.483-.953-3.475-2.506-1.993-7.614-3.605-9.26-2.821" mask="url(#b)"/>
    </g>
</svg>
