<svg xmlns="http://www.w3.org/2000/svg" xmlns:xlink="http://www.w3.org/1999/xlink" width="148" height="133" viewBox="0 0 148 133">
    <defs>
        <path id="a" d="M0 0h167v167H0z"/>
        <linearGradient id="d" x1="50%" x2="50%" y1="0%" y2="100%">
            <stop offset="0%" stop-color="#CEF2FD"/>
            <stop offset="100%" stop-color="#8BDCFB"/>
        </linearGradient>
        <path id="c" d="M14.276 116.844C5.301 104.685 0 89.68 0 73.444 0 32.883 33.087 0 73.903 0c40.815 0 73.903 32.882 73.903 73.445 0 16.235-5.301 31.24-14.277 43.399H90.7v11.684H57.107v-11.684h-42.83z"/>
        <linearGradient id="f" x1="50%" x2="50%" y1="0%" y2="100%">
            <stop offset="0%" stop-color="#FFF" stop-opacity=".4"/>
            <stop offset="100%" stop-color="#FFC72C"/>
        </linearGradient>
        <linearGradient id="g" x1="50%" x2="50%" y1="0%" y2="100%">
            <stop offset="0%" stop-color="#FFF" stop-opacity=".4"/>
            <stop offset="100%" stop-color="#FFC72C"/>
        </linearGradient>
        <linearGradient id="h" x1="50%" x2="50%" y1="0%" y2="100%">
            <stop offset="0%" stop-color="#FFF" stop-opacity=".4"/>
            <stop offset="100%" stop-color="#FFC72C"/>
        </linearGradient>
        <linearGradient id="i" x1="50%" x2="50%" y1="0%" y2="100%">
            <stop offset="0%" stop-color="#FFF" stop-opacity=".4"/>
            <stop offset="100%" stop-color="#FFC72C"/>
        </linearGradient>
        <linearGradient id="j" x1="50%" x2="50%" y1="0%" y2="100%">
            <stop offset="0%" stop-color="#FFF" stop-opacity=".4"/>
            <stop offset="100%" stop-color="#FFC72C"/>
        </linearGradient>
        <linearGradient id="k" x1="50%" x2="50%" y1="0%" y2="100%">
            <stop offset="0%" stop-color="#FFF" stop-opacity=".4"/>
            <stop offset="100%" stop-color="#FFC72C"/>
        </linearGradient>
        <linearGradient id="l" x1="50%" x2="50%" y1="0%" y2="100%">
            <stop offset="0%" stop-color="#EEF2F5" stop-opacity=".5"/>
            <stop offset="100%" stop-color="#FFF"/>
        </linearGradient>
        <linearGradient id="m" x1="50%" x2="50%" y1="0%" y2="100%">
            <stop offset="0%" stop-color="#FFE380"/>
            <stop offset="100%" stop-color="#FFE380"/>
        </linearGradient>
        <linearGradient id="n" x1="50%" x2="50%" y1="100%" y2="0%">
            <stop offset="0%" stop-color="#FFD560"/>
            <stop offset="100%" stop-color="#F0B616"/>
        </linearGradient>
        <linearGradient id="o" x1="50%" x2="50%" y1="0%" y2="100%">
            <stop offset="0%" stop-color="#2F88EC"/>
            <stop offset="100%" stop-color="#2FB7EC"/>
        </linearGradient>
        <linearGradient id="p" x1="100%" y1="0%" y2="100%">
            <stop offset="0%" stop-color="#FFA39E"/>
            <stop offset="100%" stop-color="#E14D4C"/>
        </linearGradient>
    </defs>
    <g fill="none" fill-rule="evenodd" transform="translate(-8 -26)">
        <mask id="b" fill="#fff">
            <use xlink:href="#a"/>
        </mask>
        <use fill="#E14D4C" fill-opacity="0" fill-rule="nonzero" xlink:href="#a"/>
        <g mask="url(#b)">
            <g transform="translate(8 29.338)">
                <mask id="e" fill="#fff">
                    <use xlink:href="#c"/>
                </mask>
                <use fill="url(#d)" fill-rule="nonzero" xlink:href="#c"/>
                <g mask="url(#e)">
                    <path fill="url(#f)" d="M0 0h20v38H0z" transform="translate(-1 84.662)"/>
                    <text fill="#EF8D2E" font-family="ProximaNova-Regular, Proxima Nova" font-size="11" transform="translate(-1 84.662)">
                        <tspan x="7" y="16">$</tspan>
                    </text>
                    <path fill="url(#g)" d="M0 0h20v70H0z" transform="translate(25 52.662)"/>
                    <text fill="#EF8D2E" font-family="ProximaNova-Regular, Proxima Nova" font-size="11" transform="translate(25 52.662)">
                        <tspan x="7" y="16">$</tspan>
                    </text>
                    <path fill="url(#h)" d="M52 32h20v63H52z" transform="translate(-1 27.662)"/>
                    <path fill="url(#i)" d="M78 41h20v54H78z" transform="translate(-1 27.662)"/>
                    <g>
                        <path fill="url(#j)" d="M0 0h20v82H0z" transform="translate(103 40.662)"/>
                        <text fill="#EF8D2E" font-family="ProximaNova-Regular, Proxima Nova" font-size="11" transform="translate(103 40.662)">
                            <tspan x="7" y="16">$</tspan>
                        </text>
                    </g>
                    <g>
                        <path fill="url(#k)" d="M0 0h20v95H0z" transform="translate(128 27.662)"/>
                        <text fill="#EF8D2E" font-family="ProximaNova-Regular, Proxima Nova" font-size="11" transform="translate(128 27.662)">
                            <tspan x="7" y="16">$</tspan>
                        </text>
                    </g>
                </g>
                <ellipse cx="131.01" cy="113.505" fill="#EEF2F5" fill-rule="nonzero" mask="url(#e)" rx="6.718" ry="6.677"/>
                <ellipse cx="16.796" cy="113.505" fill="#EEF2F5" fill-rule="nonzero" mask="url(#e)" rx="6.718" ry="6.677"/>
                <path fill="#F8FAFB" fill-rule="nonzero" d="M87.618 123.52c-.185-1.467-.278-2.58-.278-3.338 0-11.062 9.024-20.03 20.155-20.03 8.81 0 16.3 5.617 19.04 13.445.363-.06.736-.092 1.115-.092a6.718 6.718 0 0 1 6.342 4.466 6.717 6.717 0 0 1 3.736-1.127c3.71 0 6.719 2.99 6.719 6.677H87.618zM60.187 123.52H3.36c0-3.687 3.008-6.676 6.719-6.676 1.383 0 2.668.415 3.736 1.127a6.718 6.718 0 0 1 6.341-4.466c.38 0 .752.032 1.115.092 2.74-7.828 10.23-13.445 19.04-13.445 11.132 0 20.156 8.968 20.156 20.03 0 1.138-.095 2.253-.279 3.339z" mask="url(#e)"/>
                <ellipse cx="127.65" cy="123.521" fill="#FFF" fill-rule="nonzero" mask="url(#e)" rx="6.718" ry="6.677"/>
                <g fill="#F8FAFB" fill-rule="nonzero" mask="url(#e)">
                    <ellipse cx="53.748" cy="53.414" rx="53.748" ry="53.414" transform="translate(20.155 116.844)"/>
                </g>
            </g>
            <path fill="url(#l)" fill-rule="nonzero" d="M93.61 132.49H54.195l6.271-29H87.34z" transform="translate(8 26)"/>
            <path fill="url(#m)" fill-rule="nonzero" d="M73.903 126.859c-11.338-10.985-9.553-18.695-6.719-26.707h13.437c2.835 8.012 4.62 15.722-6.718 26.707z" transform="translate(8 26)"/>
            <path fill="url(#n)" fill-rule="nonzero" d="M73.903 100.152c4.479 4.982 4.479 9.433 0 13.353-4.48-3.928-4.48-8.38 0-13.353z" transform="translate(8 26)"/>
            <g fill-rule="nonzero" transform="translate(51.67 26)">
                <path fill="#E14D4C" d="M47.03 63.43l13.436 16.984v16.4L47.029 86.797V63.43zm-33.593 0L0 80.414v16.4l13.437-10.016V63.43z"/>
                <path fill="#FFF" d="M49.984 30c4.334 10.744 3.443 30.826-2.67 60.243a4 4 0 0 1-3.917 3.187H16.288a4 4 0 0 1-3.916-3.187C6.258 60.826 5.362 40.744 9.687 30h40.297z"/>
                <path fill="#EEF2F5" d="M10.078 30.046h20.155v63.43H16.678a4 4 0 0 1-3.916-3.187C6.648 60.871 5.753 40.79 10.078 30.046z"/>
                <path fill="#E14D4C" d="M16.796 93.477l-3.36 10.013H47.03l-3.36-10.015z"/>
                <ellipse cx="30.233" cy="46.738" fill="#8BDCFB" stroke="url(#o)" stroke-width="4" rx="8.078" ry="8.015"/>
                <path fill="url(#p)" d="M30.233 0c-6.709 0-16.796 23.364-20.155 30.046h40.31C47.03 23.364 36.951 0 30.233 0z"/>
            </g>
        </g>
    </g>
</svg>
