<svg width="70" height="73" viewBox="0 0 70 73" fill="none"
    xmlns="http://www.w3.org/2000/svg">
    <g clip-path="url(#clip0_980_57590)">
        <path d="M58.2911 31.145C58.2911 37.1867 56.268 42.789 52.8777 47.2928C51.0185 49.7094 48.7765 51.8515 46.2064 53.4993C42.0506 56.2453 37.0745 57.838 31.7157 57.838C17.0062 57.838 5.08545 45.8648 5.08545 31.145C5.08545 16.3703 17.0062 4.45166 31.661 4.45166C37.0198 4.45166 41.9959 6.04445 46.1518 8.73577C48.7218 10.3835 50.9638 12.5256 52.823 14.9422C56.268 19.446 58.2911 25.0484 58.2911 31.145Z" fill="#EAEEF9"/>
        <path d="M0.929596 34.2208C1.42174 34.2208 1.85919 33.8363 1.85919 33.287C1.85919 32.7927 1.47642 32.3533 0.929596 32.3533C0.382775 32.4082 0 32.8476 0 33.3419C0 33.8363 0.382775 34.2208 0.929596 34.2208Z" fill="url(#paint0_linear_980_57590)"/>
        <path d="M64.1422 22.9612C64.9626 22.1923 65.0171 20.929 64.2513 20.1052C63.486 19.2812 62.2282 19.2263 61.3533 19.9953C60.5329 20.7642 60.4784 22.0275 61.2442 22.8514C62.0095 23.6752 63.2673 23.7301 64.1422 22.9612Z" fill="#EFF4F6"/>
        <path d="M63.7047 14.0634C64.1967 14.0634 64.5797 13.679 64.5797 13.1847C64.5797 12.6903 64.1967 12.3059 63.7047 12.3059C63.2122 12.3059 62.8298 12.6903 62.8298 13.1847C62.8298 13.679 63.2122 14.0634 63.7047 14.0634Z" fill="url(#paint1_linear_980_57590)"/>
        <path d="M48.5579 32.6279L64.9625 49.1053C65.6187 49.7644 65.6187 50.8629 64.9625 51.522L51.7294 64.8138C51.0732 65.4727 49.9796 65.4727 49.3234 64.8138L32.9188 48.3364L48.5579 32.6279Z" fill="url(#paint2_linear_980_57590)"/>
        <path d="M45.2513 35.9098L42.3514 38.8225L59.9831 56.5322L62.8827 53.6195L45.2513 35.9098Z" fill="#305BEF"/>
        <path d="M51.7862 60.9455C52.6618 60.0656 52.6618 58.6398 51.7862 57.7606C50.9107 56.8813 49.4912 56.8813 48.6157 57.7606C47.7401 58.6398 47.7401 60.0656 48.6157 60.9455C49.4912 61.8247 50.9107 61.8247 51.7862 60.9455Z" fill="#305BEF"/>
        <path d="M49.6448 58.8242C50.5204 57.9449 50.5204 56.5191 49.6448 55.6398C48.7693 54.7601 47.3497 54.7601 46.4742 55.6398C45.5987 56.5191 45.5987 57.9449 46.4742 58.8242C47.3497 59.7035 48.7693 59.7035 49.6448 58.8242Z" fill="#D0DBFF"/>
        <path d="M28.6516 13.0202L13.4513 28.3414L1.2321 16.068C1.07847 15.9137 1.16754 15.6544 1.42161 15.6544H2.24184C2.667 15.6544 3.0067 15.3114 3.0067 14.8873V13.3494C3.0067 13.2243 3.10446 13.1278 3.22612 13.1278H4.75721C5.20222 13.1278 5.50346 12.77 5.57306 12.3505L5.57677 12.3284V12.3059V10.768C5.57677 10.6557 5.66655 10.5329 5.82659 10.4915H7.3273C7.77228 10.4915 8.07353 10.1336 8.14313 9.7141L8.14684 9.69195V9.66948V8.13157C8.14684 8.0299 8.22479 7.89888 8.44548 7.85508H9.95202C10.397 7.85508 10.6983 7.49726 10.7679 7.07775L10.7716 7.05555V7.03308V5.49521C10.7716 5.38881 10.85 5.27362 11.0457 5.27362H12.5768C13.0218 5.27362 13.323 4.9158 13.3926 4.4963L13.3963 4.47412V4.45165V2.91376C13.3963 2.78863 13.4941 2.69217 13.6157 2.69217H15.1468C15.5918 2.69217 15.8931 2.33435 15.9627 1.91484L15.9664 1.89267V1.8702V1.05956C15.989 0.844353 16.0913 0.734847 16.1747 0.694549C16.2562 0.655121 16.3493 0.663368 16.43 0.74443L28.6516 13.0202Z" fill="white" stroke="#E5E9F4"/>
        <path d="M17.7172 7.52741L16.022 9.17512C15.858 9.3399 15.5846 9.3399 15.4205 9.17512C15.2565 9.01039 15.2565 8.73575 15.4205 8.57097L17.1156 6.86834C17.2797 6.70356 17.5531 6.70356 17.7172 6.86834C17.8812 7.08799 17.8812 7.36263 17.7172 7.52741Z" fill="#DCE5E9"/>
        <path d="M14.6 10.6581L7.7647 17.4687C7.60068 17.6335 7.32725 17.6335 7.16317 17.4687C6.99916 17.304 6.99916 17.0293 7.16317 16.8645L13.9438 10.0539C14.1078 9.88916 14.3812 9.88916 14.5453 10.0539C14.764 10.2187 14.764 10.4933 14.6 10.6581Z" fill="#DCE5E9"/>
        <path d="M15.3658 12.91L13.6159 14.6676L14.3815 13.8987C12.577 15.7111 11.1552 17.1392 9.29605 19.0066C9.13203 19.1714 9.13203 19.446 9.29605 19.6108C9.46012 19.7756 9.7335 19.7756 9.89758 19.6108C12.9598 16.5351 11.9755 17.5237 14.983 14.5028L14.2175 15.2718L15.9673 13.5142C16.35 13.0748 15.7486 12.4706 15.3658 12.91Z" fill="#DCE5E9"/>
        <path d="M33.6294 8.13157L55.7209 30.3211C56.5413 31.145 56.76 32.3533 56.3226 33.3969C51.8933 43.5579 43.855 51.6318 33.7388 56.0806C32.6999 56.5202 31.4969 56.3004 30.6766 55.4768L8.53033 33.287C7.71008 32.4632 7.49135 31.2548 7.9288 30.2112C12.4128 20.0502 20.451 11.9763 30.5672 7.52742C31.6062 7.088 32.8092 7.30771 33.6294 8.13157Z" fill="#BFCDD4"/>
        <path d="M38.8791 21.1487L21.4901 38.5598C20.998 39.0541 20.1778 39.0541 19.6856 38.5598L12.6863 31.5294C12.1942 31.0351 12.1942 30.2112 12.6863 29.717L30.0752 12.3059C30.5674 11.8115 31.3876 11.8115 31.8797 12.3059L38.8791 19.3362C39.3712 19.8305 39.3712 20.5995 38.8791 21.1487Z" fill="white"/>
        <path d="M32.0984 41.3609L27.9425 45.5352C27.5598 45.9197 27.0129 45.9197 26.6301 45.5352L23.896 42.789C23.5132 42.4045 23.5132 41.8552 23.896 41.4708L28.0519 37.2965C28.4347 36.912 28.9815 36.912 29.3643 37.2965L32.0984 40.0427C32.4265 40.4272 32.4265 40.9764 32.0984 41.3609Z" fill="url(#paint3_linear_980_57590)"/>
        <path d="M38.9338 34.4404L34.778 38.6147C34.3952 38.9992 33.8483 38.9992 33.4655 38.6147L30.7315 35.8685C30.3487 35.484 30.3487 34.9348 30.7315 34.5503L34.8873 30.376C35.2701 29.9915 35.8169 29.9915 36.1997 30.376L38.9338 33.1222C39.3166 33.5067 39.3166 34.1109 38.9338 34.4404Z" fill="white"/>
        <path d="M45.7688 27.5749L41.613 31.7491C41.2302 32.1336 40.6834 32.1336 40.3006 31.7491L37.5665 29.0029C37.1837 28.6185 37.1837 28.0692 37.5665 27.6847L41.7224 23.5104C42.1051 23.126 42.652 23.126 43.0348 23.5104L45.7688 26.2567C46.1516 26.6411 46.1516 27.1904 45.7688 27.5749Z" fill="white"/>
        <path d="M37.7307 47.0182L33.5749 51.1924C33.1921 51.5769 32.6453 51.5769 32.2625 51.1924L29.5284 48.4462C29.1456 48.0617 29.1456 47.5124 29.5284 47.128L33.6843 42.9537C34.067 42.5693 34.6139 42.5693 34.9966 42.9537L37.7307 45.7C38.0588 46.0844 38.0588 46.6337 37.7307 47.0182Z" fill="white"/>
        <path d="M44.5658 40.1526L40.41 44.3268C40.0272 44.7113 39.4804 44.7113 39.0976 44.3268L36.3635 41.5806C35.9807 41.1961 35.9807 40.6469 36.3635 40.2624L40.5193 36.0882C40.9021 35.7037 41.449 35.7037 41.8317 36.0882L44.5658 38.8344C44.9486 39.1639 44.9486 39.7681 44.5658 40.1526Z" fill="white"/>
        <path d="M51.4558 33.2321L47.2999 37.4064C46.9171 37.7908 46.3703 37.7908 45.9876 37.4064L43.2534 34.6601C42.8707 34.2756 42.8707 33.7264 43.2534 33.3419L47.4093 29.1677C47.792 28.7832 48.3389 28.7832 48.7217 29.1677L51.4558 31.9139C51.7838 32.2984 51.7838 32.8476 51.4558 33.2321Z" fill="white"/>
        <path d="M19.631 29.3874C19.8497 29.3325 20.0684 29.4972 20.0684 29.7169L20.1778 31.0351H20.2325L20.9433 29.9915C21.0527 29.8268 21.3261 29.7719 21.4902 29.9366L21.5995 30.0465C21.7636 30.2112 21.7089 30.4859 21.5449 30.5957L20.5059 31.3097V31.3647L21.7636 31.4196C21.9823 31.4196 22.1463 31.6393 22.0917 31.859L22.037 32.0787C21.9823 32.2984 21.7636 32.4082 21.5449 32.2984L20.3418 31.7491L20.8886 32.9026C20.998 33.1223 20.8886 33.3419 20.6699 33.3969L20.5059 33.4518C20.2872 33.5067 20.0684 33.3419 20.0684 33.1222L19.9591 31.8041L19.2482 32.8476C19.1388 33.0124 18.8654 33.0674 18.7014 32.9026L18.592 32.8476C18.428 32.6829 18.4826 32.4082 18.6467 32.2984L19.631 31.6393L18.3186 31.5294C18.0999 31.5294 17.9358 31.3097 17.9905 31.09L18.0452 30.8704C18.0999 30.6507 18.3186 30.5408 18.5373 30.6507L19.6856 31.1999L19.1388 30.0465C19.0295 29.8268 19.1388 29.6071 19.3575 29.5522L19.631 29.3874Z" fill="#3F5663"/>
        <path d="M23.5681 25.4877C23.7869 25.4328 24.0056 25.5976 24.0056 25.8173L24.115 27.1355H24.1696L24.8805 26.0919C24.9899 25.9271 25.2632 25.8722 25.4273 26.037L25.5367 26.1468C25.7007 26.3116 25.646 26.5862 25.482 26.6961L24.443 27.4101V27.465L25.7007 27.52C25.9194 27.52 26.0835 27.7396 26.0288 27.9593L25.9741 28.179C25.9194 28.3987 25.7007 28.5086 25.482 28.3987L24.279 27.8495L24.8258 29.0029C24.9352 29.2226 24.8258 29.4423 24.6071 29.4972L24.443 29.5522C24.2243 29.6071 24.0056 29.4423 24.0056 29.2226L23.8962 27.9044L23.1853 28.948C23.076 29.1127 22.8025 29.1677 22.6385 29.0029L22.4744 28.948C22.3104 28.7832 22.3651 28.5086 22.5292 28.3987L23.5134 27.7396L22.2011 27.6298C21.9823 27.6298 21.8183 27.4101 21.873 27.1904L21.9276 26.9707C21.9823 26.751 22.2011 26.6411 22.4198 26.751L23.5681 27.3003L23.0213 26.1468C22.9119 25.9271 23.0213 25.7074 23.24 25.6525L23.5681 25.4877Z" fill="#3F5663"/>
        <path d="M27.4504 21.5881C27.6691 21.5332 27.8878 21.698 27.8878 21.9177L27.9972 23.2358H28.0519L28.7627 22.1922C28.8721 21.9726 29.1455 21.9726 29.3095 22.1373L29.4189 22.2472C29.583 22.412 29.583 22.6866 29.3642 22.7964L28.3253 23.5104V23.5654L29.583 23.6203C29.8017 23.6203 29.9658 23.84 29.9111 24.0597L29.8564 24.2245C29.8017 24.4442 29.5283 24.554 29.3642 24.4442L28.2159 23.8949L28.7627 25.0484C28.8721 25.2681 28.7627 25.4877 28.4893 25.5426L28.3253 25.5976C28.1065 25.6525 27.8878 25.4877 27.8878 25.2681L27.7784 24.0048L27.0676 25.1033C26.9582 25.2681 26.6848 25.323 26.5208 25.1582L26.4114 25.0484C26.2474 24.8836 26.2474 24.6089 26.4661 24.4991L27.4504 23.84L26.1927 23.7302C25.974 23.7302 25.8099 23.5104 25.8646 23.2907L25.9193 23.126C25.974 22.9063 26.2474 22.7964 26.4114 22.9063L27.5597 23.4555L27.0129 22.3021C26.9035 22.0824 27.0129 21.8627 27.2316 21.8078L27.4504 21.5881Z" fill="#3F5663"/>
        <path d="M31.4423 17.6335C31.6064 17.5786 31.8251 17.6885 31.8251 17.9081L31.9345 19.2812H31.9891L32.7 18.1828C32.8094 18.018 33.0281 18.018 33.1921 18.1278L33.4108 18.3475C33.5202 18.4574 33.5202 18.732 33.3562 18.8419L32.2625 19.6108V19.6657L33.5749 19.7207C33.7936 19.7207 33.903 19.9404 33.8483 20.1051L33.7389 20.4347C33.6843 20.5994 33.4655 20.7093 33.3015 20.6544L32.0985 20.1051L32.6453 21.3134C32.7 21.4782 32.6453 21.6979 32.4266 21.7529L32.1532 21.8078C31.9891 21.8627 31.7704 21.6979 31.7704 21.5332L31.661 20.16L30.9502 21.2585C30.8408 21.4233 30.6221 21.4233 30.458 21.3134L30.2393 21.0937C30.0752 20.929 30.1299 20.7093 30.294 20.5994L31.3329 19.8854L29.9659 19.7756C29.7471 19.7756 29.6378 19.5559 29.6925 19.3911L29.8018 19.0615C29.8565 18.8968 30.0752 18.787 30.2393 18.8419L31.4423 19.3911L30.8955 18.1828C30.8408 18.018 30.8955 17.7983 31.1142 17.7434L31.4423 17.6335Z" fill="#3F5663"/>
    </g>
    <defs>
        <linearGradient id="paint0_linear_980_57590" x1="1.92414" y1="33.2253" x2="0.329456" y2="33.7998" gradientUnits="userSpaceOnUse">
            <stop stop-color="#7996F9"/>
            <stop offset="1" stop-color="#305BEF"/>
        </linearGradient>
        <linearGradient id="paint1_linear_980_57590" x1="64.6408" y1="13.1265" x2="63.1399" y2="13.6673" gradientUnits="userSpaceOnUse">
            <stop stop-color="#7996F9"/>
            <stop offset="1" stop-color="#305BEF"/>
        </linearGradient>
        <linearGradient id="paint2_linear_980_57590" x1="66.5912" y1="47.8872" x2="38.6844" y2="57.9413" gradientUnits="userSpaceOnUse">
            <stop stop-color="#7996F9"/>
            <stop offset="1" stop-color="#305BEF"/>
        </linearGradient>
        <linearGradient id="paint3_linear_980_57590" x1="32.6496" y1="41.1243" x2="25.1489" y2="43.814" gradientUnits="userSpaceOnUse">
            <stop stop-color="#7996F9"/>
            <stop offset="1" stop-color="#305BEF"/>
        </linearGradient>
        <clipPath id="clip0_980_57590">
            <rect width="69.8182" height="72" fill="white" transform="translate(0 0.398926)"/>
        </clipPath>
    </defs>
</svg>
