<svg width="158" height="94" viewBox="0 0 158 94" fill="none" xmlns="http://www.w3.org/2000/svg">
<path opacity="0.5" d="M147.138 64.0334L140.793 81.4673L126.432 73.0995L130.759 61.2127L147.138 64.0334Z" fill="url(#paint0_linear)"/>
<path d="M142.953 72.4797C135.731 75.9651 132.351 73.7723 129.008 71.0271L131.337 64.6287C135.662 64.6746 139.661 65.1677 142.953 72.4797Z" fill="url(#paint1_linear)"/>
<path d="M130.172 67.8276C130.172 67.8276 134.913 65.9302 136.562 70.1536C132.578 72.3264 130.172 67.8276 130.172 67.8276Z" fill="url(#paint2_linear)"/>
<path fill-rule="evenodd" clip-rule="evenodd" d="M101.181 44.7771L93.52 65.8267L93.5202 65.8268L92.3036 69.1695L125.799 81.3609C126.448 81.597 127.165 81.2625 127.401 80.6138L127.763 79.6204C127.999 78.9716 127.665 78.2543 127.016 78.0182L126.539 77.8448L134.201 56.7951C134.673 55.4977 134.004 54.0631 132.707 53.5908L104.386 43.2829C103.088 42.8106 101.654 43.4796 101.181 44.7771Z" fill="#1E6458"/>
<path d="M101.182 44.7775C101.654 43.48 103.089 42.811 104.386 43.2833L115.245 47.2354L113.332 73.038L93.5206 65.8271L101.182 44.7775Z" fill="url(#paint3_linear)"/>
<path d="M128.144 79.8748C128.38 79.2261 128.045 78.5088 127.397 78.2727L93.5073 65.938L92.2907 69.2807L126.18 81.6154C126.829 81.8515 127.546 81.517 127.782 80.8683L128.144 79.8748Z" fill="url(#paint4_linear)"/>
<path d="M75.7935 63.1607L92.3032 69.1697L99.9072 48.2778L92.5722 45.6081C92.032 45.4115 91.4273 45.6087 91.1068 46.0861L87.5681 51.3578L80.1159 52.9857C79.6972 53.0771 79.3546 53.3767 79.208 53.7794L77.0102 59.818C76.5543 59.652 76.0485 59.8917 75.8805 60.3532L75.2722 62.0246C75.1042 62.4861 75.3376 62.9947 75.7935 63.1607Z" fill="url(#paint5_linear)"/>
<path fill-rule="evenodd" clip-rule="evenodd" d="M107.561 58.5438C107.816 57.8438 108.587 57.464 109.259 57.7084L110.943 58.163L112.616 55.943C112.647 55.9278 112.656 55.9045 112.686 55.8893C113.029 55.644 113.464 55.5643 113.889 55.7191L120.391 58.0856C121.017 58.3137 121.104 59.1392 120.951 59.7704L123.393 60.6594C123.662 60.7571 123.8 61.0719 123.698 61.3519C123.597 61.632 123.288 61.7839 123.019 61.6861L120.612 60.8098C120.348 60.7669 120.093 60.9117 119.999 61.1684C119.898 61.4484 120.036 61.7633 120.305 61.861L121.496 62.2946C121.765 62.3923 121.904 62.7072 121.802 62.9872C121.7 63.2672 121.391 63.4191 121.123 63.3214L120.259 63.0071L118.938 62.5262C118.669 62.4285 118.361 62.5804 118.259 62.8604C118.157 63.1404 118.296 63.4552 118.564 63.553L119.712 63.971C120.019 64.0827 120.158 64.3975 120.056 64.6775C119.954 64.9575 119.646 65.1094 119.377 65.0117L118.648 64.7462C118.936 64.9303 119.049 65.3151 118.921 65.6651L118.582 66.5986C118.437 66.9953 117.997 67.2313 117.594 67.0846L116.848 66.8133C116.327 67.5486 115.368 67.8865 114.517 67.577C113.645 67.2593 113.149 66.3919 113.223 65.4937L110.532 64.5145C110.011 65.2498 109.052 65.5878 108.202 65.2782C107.329 64.9606 106.833 64.0932 106.907 63.195L106.034 62.8773C105.654 62.7388 105.437 62.2899 105.59 61.8699L105.93 60.9364C106.127 60.5327 106.537 60.3119 106.881 60.4107L107.561 58.5438Z" fill="#92F1D3"/>
<path d="M99.9072 48.2778L94.9543 46.4751L87.3503 67.367L92.3032 69.1697L99.9072 48.2778Z" fill="url(#paint6_linear)"/>
<path fill-rule="evenodd" clip-rule="evenodd" d="M95.3048 55.7855C95.4229 55.4612 95.2556 55.1025 94.9312 54.9845L92.8039 54.2102C92.4796 54.0921 92.1209 54.2594 92.0029 54.5837L91.9741 54.6626C91.8561 54.987 92.0233 55.3457 92.3477 55.4637L94.475 56.238C94.7994 56.3561 95.158 56.1888 95.2761 55.8644L95.3048 55.7855Z" fill="#C4CDD5"/>
<path d="M93.5205 65.8271L77.36 59.9452C76.7112 59.7091 75.9939 60.0436 75.7578 60.6923L75.3962 61.6857C75.1601 62.3345 75.4946 63.0518 76.1433 63.2879L92.3039 69.1698L93.5205 65.8271Z" fill="url(#paint7_linear)"/>
<path d="M115.243 83.1971C112.507 82.2015 111.107 79.1495 112.115 76.3803C113.123 73.6111 116.157 72.1734 118.893 73.169C121.628 74.1646 123.029 77.2165 122.021 79.9857C121.013 82.7549 117.978 84.1927 115.243 83.1971Z" fill="#393939"/>
<path d="M82.2233 71.179C79.4879 70.1834 78.0875 67.1314 79.0954 64.3622C80.1033 61.5931 83.1379 60.1553 85.8733 61.1509C88.6087 62.1465 90.0091 65.1985 89.0012 67.9677C87.9933 70.7368 84.9587 72.1746 82.2233 71.179Z" fill="#393939"/>
<path d="M83.44 67.8365C82.5282 67.5047 82.0614 66.4873 82.3974 65.5643C82.7333 64.6412 83.7448 64.162 84.6566 64.4938C85.5685 64.8257 86.0353 65.843 85.6993 66.7661C85.3633 67.6891 84.3518 68.1684 83.44 67.8365Z" fill="#7790A3"/>
<path d="M116.46 79.8546C115.548 79.5227 115.081 78.5054 115.417 77.5823C115.753 76.6593 116.764 76.18 117.676 76.5119C118.588 76.8438 119.055 77.8611 118.719 78.7841C118.383 79.7072 117.371 80.1865 116.46 79.8546Z" fill="#7790A3"/>
<path d="M97.3723 50.1053C97.6084 49.4566 97.2739 48.7393 96.6252 48.5031L90.8856 46.4141L87.5679 51.358L94.6481 53.935C95.2969 54.1711 96.0142 53.8367 96.2503 53.1879L97.3723 50.1053Z" fill="url(#paint8_linear)"/>
<path d="M122.808 80.3883C123.984 77.1576 122.35 73.597 119.159 72.4354C115.968 71.2739 112.427 72.9513 111.252 76.182L112.077 76.4824C113.085 73.7132 116.12 72.2755 118.855 73.2711C121.59 74.2667 122.991 77.3187 121.983 80.0878L122.808 80.3883Z" fill="#D5DFE6"/>
<path d="M89.8269 68.2682C91.0028 65.0375 89.369 61.4768 86.1777 60.3153C82.9863 59.1538 79.446 60.8311 78.2702 64.0619L79.0956 64.3623C80.1035 61.5931 83.1381 60.1554 85.8735 61.151C88.6089 62.1466 90.0093 65.1985 89.0014 67.9677L89.8269 68.2682Z" fill="#D5DFE6"/>
<path fill-rule="evenodd" clip-rule="evenodd" d="M94.1717 53.7613L87.5679 51.3577L90.9063 46.4213L94.6318 47.7773L94.1717 53.7613Z" fill="url(#paint9_linear)"/>
<path d="M113.773 67.09L114.597 55.9764L113.889 55.7189C113.464 55.5641 113.03 55.6438 112.687 55.8891C112.656 55.9043 112.648 55.9276 112.617 55.9428L110.944 58.1628L109.259 57.7082C108.588 57.4638 107.816 57.8436 107.561 58.5437L106.882 60.4105C106.538 60.3117 106.128 60.5325 105.93 60.9362L105.59 61.8697C105.437 62.2897 105.654 62.7386 106.035 62.8771L106.908 63.1948C106.834 64.093 107.329 64.9604 108.202 65.278C109.053 65.5876 110.012 65.2496 110.533 64.5143L113.223 65.4935C113.175 66.0899 113.377 66.6727 113.773 67.09L113.773 67.09Z" fill="url(#paint10_linear)"/>
<path d="M130.623 0L130.931 3.31583L134.247 3.62327L130.931 3.93072L130.623 7.24654L130.316 3.93072L127 3.62327L130.316 3.31583L130.623 0Z" fill="#FFFCE1"/>
<path d="M86.3987 11.5557L86.6041 13.7713L88.8198 13.9768L86.6041 14.1822L86.3987 16.3979L86.1932 14.1822L83.9775 13.9768L86.1932 13.7713L86.3987 11.5557Z" fill="#FFFCE1"/>
<path d="M55.3987 87.5557L55.6041 89.7713L57.8198 89.9768L55.6041 90.1822L55.3987 92.3979L55.1932 90.1822L52.9775 89.9768L55.1932 89.7713L55.3987 87.5557Z" fill="#FFFCE1"/>
<circle cx="31" cy="34" r="31" fill="url(#paint11_radial)"/>
<circle cx="31" cy="34" r="31" fill="url(#paint12_linear)" fill-opacity="0.5"/>
<circle cx="44.3415" cy="40.7644" r="5.31124" fill="url(#paint13_radial)"/>
<circle cx="17.6784" cy="21.8635" r="5.31124" fill="url(#paint14_radial)" fill-opacity="0.6"/>
<circle cx="20.2314" cy="50.6239" r="3.37004" fill="url(#paint15_radial)"/>
<circle cx="39.03" cy="21.8635" r="5.31124" fill="url(#paint16_radial)"/>
<defs>
<linearGradient id="paint0_linear" x1="125.423" y1="75.873" x2="140.793" y2="81.4673" gradientUnits="userSpaceOnUse">
<stop stop-color="white"/>
<stop offset="1" stop-color="#EEF2F5" stop-opacity="0"/>
</linearGradient>
<linearGradient id="paint1_linear" x1="128.64" y1="72.0391" x2="141.42" y2="76.6909" gradientUnits="userSpaceOnUse">
<stop stop-color="#FFF280"/>
<stop offset="1" stop-color="#FFE380"/>
</linearGradient>
<linearGradient id="paint2_linear" x1="137.145" y1="68.554" x2="130.754" y2="66.228" gradientUnits="userSpaceOnUse">
<stop stop-color="#F7A14D"/>
<stop offset="1" stop-color="#F0B616"/>
</linearGradient>
<linearGradient id="paint3_linear" x1="103.426" y1="69.4325" x2="111.943" y2="46.0336" gradientUnits="userSpaceOnUse">
<stop stop-color="#1E6458"/>
<stop offset="1" stop-color="#1ACC94"/>
</linearGradient>
<linearGradient id="paint4_linear" x1="75.367" y1="61.2282" x2="78.41" y2="54.8329" gradientUnits="userSpaceOnUse">
<stop stop-color="#318562"/>
<stop offset="1" stop-color="#1ACC94"/>
</linearGradient>
<linearGradient id="paint5_linear" x1="99.9072" y1="48.2778" x2="92.3032" y2="69.1697" gradientUnits="userSpaceOnUse">
<stop stop-color="#F8FAFB"/>
<stop offset="1" stop-color="#EEF2F5"/>
</linearGradient>
<linearGradient id="paint6_linear" x1="86.0247" y1="78.7143" x2="77.4553" y2="73.0773" gradientUnits="userSpaceOnUse">
<stop stop-color="#EEF2F5"/>
<stop offset="1" stop-color="#F8FAFB"/>
</linearGradient>
<linearGradient id="paint7_linear" x1="92.9122" y1="67.4985" x2="75.577" y2="61.189" gradientUnits="userSpaceOnUse">
<stop stop-color="#D5DFE6"/>
<stop offset="1" stop-color="#7790A3" stop-opacity="0.28"/>
</linearGradient>
<linearGradient id="paint8_linear" x1="100.939" y1="53.1489" x2="93.1908" y2="58.9143" gradientUnits="userSpaceOnUse">
<stop stop-color="#4A5F6E"/>
<stop offset="1" stop-color="#4A5F6E"/>
</linearGradient>
<linearGradient id="paint9_linear" x1="94.7513" y1="52.2955" x2="96.5642" y2="48.7687" gradientUnits="userSpaceOnUse">
<stop stop-color="#5A7385"/>
<stop offset="1" stop-color="#D5DFE6"/>
</linearGradient>
<linearGradient id="paint10_linear" x1="109.252" y1="65.6602" x2="112.99" y2="55.3914" gradientUnits="userSpaceOnUse">
<stop stop-color="#2EE3AA"/>
<stop offset="1" stop-color="#92F1D3"/>
</linearGradient>
<radialGradient id="paint11_radial" cx="0" cy="0" r="1" gradientUnits="userSpaceOnUse" gradientTransform="translate(31 34) rotate(90) scale(31)">
<stop stop-color="white"/>
<stop offset="1" stop-color="white" stop-opacity="0.7"/>
</radialGradient>
<linearGradient id="paint12_linear" x1="13.9434" y1="7.28658" x2="31" y2="65" gradientUnits="userSpaceOnUse">
<stop stop-color="#EAE5BE"/>
<stop offset="1" stop-color="white" stop-opacity="0"/>
</linearGradient>
<radialGradient id="paint13_radial" cx="0" cy="0" r="1" gradientUnits="userSpaceOnUse" gradientTransform="translate(44.3415 40.7644) rotate(90) scale(5.31124)">
<stop stop-color="#ABB4BB"/>
<stop offset="1" stop-color="#D5DFE6" stop-opacity="0"/>
</radialGradient>
<radialGradient id="paint14_radial" cx="0" cy="0" r="1" gradientUnits="userSpaceOnUse" gradientTransform="translate(17.6784 21.8635) rotate(90) scale(5.31124)">
<stop stop-color="#BCC5CC"/>
<stop offset="1" stop-color="#D5DFE6" stop-opacity="0"/>
</radialGradient>
<radialGradient id="paint15_radial" cx="0" cy="0" r="1" gradientUnits="userSpaceOnUse" gradientTransform="translate(20.2314 50.6239) rotate(90) scale(3.37004)">
<stop stop-color="#BABABA"/>
<stop offset="1" stop-color="#D5DFE6" stop-opacity="0"/>
</radialGradient>
<radialGradient id="paint16_radial" cx="0" cy="0" r="1" gradientUnits="userSpaceOnUse" gradientTransform="translate(39.03 21.8635) rotate(90) scale(5.31124)">
<stop stop-color="#A5B0B8"/>
<stop offset="1" stop-color="#D5DFE6" stop-opacity="0.59"/>
</radialGradient>
</defs>
</svg>
