<?xml version="1.0" encoding="UTF-8"?>
<svg width="400px" height="112px" viewBox="0 0 400 112" version="1.1" xmlns="http://www.w3.org/2000/svg" xmlns:xlink="http://www.w3.org/1999/xlink">
    <!-- Generator: Sketch 53.2 (72643) - https://sketchAppStore.inst().com -->
    <title>ProductBoost automated campaign Copy 3@1x</title>
    <desc>Created with Sketch.</desc>
    <defs>
        <linearGradient x1="50%" y1="0%" x2="50%" y2="100%" id="linearGradient-1">
            <stop stop-color="#2F88EC" offset="0%"></stop>
            <stop stop-color="#2FB7EC" offset="100%"></stop>
        </linearGradient>
        <linearGradient x1="0%" y1="100%" x2="100%" y2="100%" id="linearGradient-2">
            <stop stop-color="#E6F7FF" offset="0%"></stop>
            <stop stop-color="#CEF2FD" offset="100%"></stop>
        </linearGradient>
        <linearGradient x1="50%" y1="0%" x2="50%" y2="100%" id="linearGradient-3">
            <stop stop-color="#FFE380" offset="0%"></stop>
            <stop stop-color="#FFE380" offset="100%"></stop>
        </linearGradient>
        <linearGradient x1="50%" y1="100%" x2="50%" y2="0%" id="linearGradient-4">
            <stop stop-color="#FFD560" offset="0%"></stop>
            <stop stop-color="#F0B616" offset="100%"></stop>
        </linearGradient>
    </defs>
    <g id="T83509_Dashboard-carousel_V3" stroke="none" stroke-width="1" fill="none" fill-rule="evenodd">
        <g id="ProductBoost-automated-campaign">
            <rect id="Mask" fill-opacity="0" fill="#D8D8D8" x="0" y="0" width="400" height="150"></rect>
            <g id="Group-4">
                <rect id="Combined-Shape" fill-opacity="0" fill="#FFFFFF" opacity="0" x="0" y="0" width="400" height="112" rx="4"></rect>
                <text id="off" font-family="ProximaNova-Medium, Proxima Nova" font-size="20" font-weight="400" line-spacing="28" fill="#4A5F6E">
                    <tspan x="218" y="75">off</tspan>
                </text>
                <g id="ProductBoost-logo" transform="translate(132.000000, 27.000000)" fill="#2FB7EC">
                    <path d="M0,9.82608696 L0,0.15942029 L3.62410987,0.15942029 C5.47965412,0.15942029 6.5378942,1.46376812 6.5378942,2.98550725 C6.5378942,4.50724638 5.46515768,5.8115942 3.62410987,5.8115942 L0.82629705,5.8115942 L0.82629705,9.82608696 L0,9.82608696 Z M5.66810783,2.98550725 C5.66810783,1.76811594 4.8128179,0.913043478 3.53713123,0.913043478 L0.82629705,0.913043478 L0.82629705,5.05797101 L3.53713123,5.05797101 C4.8128179,5.05797101 5.66810783,4.20289855 5.66810783,2.98550725 Z M13.9455748,9.82608696 L11.2347406,5.82608696 L9.10376399,5.82608696 L9.10376399,9.82608696 L8.27746694,9.82608696 L8.27746694,0.15942029 L11.8870804,0.15942029 C13.5541709,0.15942029 14.8298576,1.2173913 14.8298576,2.98550725 C14.8298576,4.73913043 13.5831638,5.71014493 12.1480163,5.76811594 L14.9458291,9.82608696 L13.9455748,9.82608696 Z M13.9600712,2.98550725 C13.9600712,1.76811594 13.0902848,0.913043478 11.8145982,0.913043478 L9.10376399,0.913043478 L9.10376399,5.07246377 L11.8145982,5.07246377 C13.0902848,5.07246377 13.9600712,4.20289855 13.9600712,2.98550725 Z M16.525941,5 C16.525941,2.17391304 18.3814852,0 21.2227874,0 C24.0495931,0 25.9196338,2.17391304 25.9196338,5 C25.9196338,7.82608696 24.0495931,10 21.2227874,10 C18.3814852,10 16.525941,7.82608696 16.525941,5 Z M25.0498474,5 C25.0498474,2.53623188 23.5422177,0.753623188 21.2227874,0.753623188 C18.8743642,0.753623188 17.3957274,2.53623188 17.3957274,5 C17.3957274,7.43478261 18.8743642,9.24637681 21.2227874,9.24637681 C23.5422177,9.24637681 25.0498474,7.43478261 25.0498474,5 Z M27.9636317,9.82608696 L27.9636317,0.15942029 L31.0513733,0.15942029 C34.0521363,0.15942029 35.9366734,2.34782609 35.9366734,5 C35.9366734,7.68115942 34.0521363,9.82608696 31.0513733,9.82608696 L27.9636317,9.82608696 Z M28.7899288,9.07246377 L31.0513733,9.07246377 C33.6027467,9.07246377 35.0668871,7.26086957 35.0668871,5 C35.0668871,2.73913043 33.6172431,0.913043478 31.0513733,0.913043478 L28.7899288,0.913043478 L28.7899288,9.07246377 Z M37.9951679,6.11594203 L37.9951679,0.15942029 L38.8359613,0.15942029 L38.8359613,6.10144928 C38.8359613,8.05797101 39.8652085,9.24637681 41.7642421,9.24637681 C43.6777721,9.24637681 44.6925229,8.05797101 44.6925229,6.10144928 L44.6925229,0.15942029 L45.5333164,0.15942029 L45.5333164,6.11594203 C45.5333164,8.50724638 44.2576297,10 41.7642421,10 C39.285351,10 37.9951679,8.49275362 37.9951679,6.11594203 Z M52.448118,10 C49.7372838,10 47.5773143,7.97101449 47.5773143,5 C47.5773143,2.02898551 49.7372838,0 52.448118,0 C54.0137335,0 55.1734486,0.68115942 55.9997457,1.71014493 L55.3039166,2.15942029 C54.6950661,1.31884058 53.636826,0.753623188 52.448118,0.753623188 C50.2011699,0.753623188 48.4471007,2.47826087 48.4471007,5 C48.4471007,7.49275362 50.2011699,9.24637681 52.448118,9.24637681 C53.636826,9.24637681 54.6950661,8.68115942 55.3039166,7.84057971 L55.9997457,8.27536232 C55.1444557,9.33333333 54.0137335,10 52.448118,10 Z M60.1457274,9.82608696 L60.1457274,0.913043478 L56.9855036,0.913043478 L56.9855036,0.15942029 L64.1467447,0.15942029 L64.1467447,0.913043478 L60.9865209,0.913043478 L60.9865209,9.82608696 L60.1457274,9.82608696 Z M64.9005595,9.82608696 L67.0315361,0.15942029 L71.4384537,0.15942029 C73.0040692,0.15942029 73.9898271,1.17391304 73.9898271,2.43478261 C73.9898271,3.76811594 72.9605799,4.86956522 71.7718718,4.98550725 C72.6416582,5.2173913 73.1780264,6.08695652 73.1780264,6.95652174 C73.1780264,8.33333333 72.1922686,9.82608696 69.8293489,9.82608696 L64.9005595,9.82608696 Z M72.1777721,2.72463768 C72.1777721,2.11594203 71.6414039,1.65217391 70.9890641,1.65217391 L68.3942014,1.65217391 L67.8433367,4.15942029 L70.6121567,4.15942029 C71.7863683,4.15942029 72.1777721,3.4057971 72.1777721,2.72463768 Z M71.4674466,6.8115942 C71.4674466,6.13043478 70.9890641,5.65217391 70.1917599,5.65217391 L67.5099186,5.65217391 L66.9155646,8.33333333 L69.7423703,8.33333333 C70.8585961,8.33333333 71.4674466,7.60869565 71.4674466,6.8115942 Z M74.7871312,5.71014493 C74.7871312,2.52173913 77.2080366,0 80.3247711,0 C82.9196338,0 84.9491353,1.62318841 84.9491353,4.27536232 C84.9491353,7.47826087 82.5282299,10 79.4114954,10 C76.8166328,10 74.7871312,8.37681159 74.7871312,5.71014493 Z M83.1805697,4.39130435 C83.1805697,2.57971014 81.8758901,1.50724638 80.223296,1.50724638 C78.2082909,1.50724638 76.5556968,3.27536232 76.5556968,5.60869565 C76.5556968,7.43478261 77.84588,8.49275362 79.5129705,8.49275362 C81.5134791,8.49275362 83.1805697,6.72463768 83.1805697,4.39130435 Z M85.8769074,5.71014493 C85.8769074,2.52173913 88.2978128,0 91.4145473,0 C94.00941,0 96.0389115,1.62318841 96.0389115,4.27536232 C96.0389115,7.47826087 93.6180061,10 90.5012716,10 C87.906409,10 85.8769074,8.37681159 85.8769074,5.71014493 Z M94.2703459,4.39130435 C94.2703459,2.57971014 92.9656663,1.50724638 91.3130722,1.50724638 C89.2980671,1.50724638 87.645473,3.27536232 87.645473,5.60869565 C87.645473,7.43478261 88.9356562,8.49275362 90.6027467,8.49275362 C92.6032553,8.49275362 94.2703459,6.72463768 94.2703459,4.39130435 Z M96.3143438,8.23188406 L97.4015768,6.98550725 C98.068413,7.89855072 99.2861139,8.49275362 100.634283,8.49275362 C101.86648,8.49275362 102.373856,7.73913043 102.373856,7.10144928 C102.373856,6.42028986 101.504069,6.08695652 100.518311,5.71014493 C99.1846389,5.20289855 97.6335198,4.60869565 97.6335198,3.01449275 C97.6335198,1.46376812 99.0396745,0.0144927536 101.25763,0.0144927536 C102.779756,0.0144927536 104.171414,0.594202899 104.954222,1.56521739 L103.866989,2.76811594 C103.185656,1.91304348 102.040437,1.50724638 101.025687,1.50724638 C100.112411,1.50724638 99.4310783,2.08695652 99.4310783,2.73913043 C99.4310783,3.34782609 100.271872,3.68115942 101.25763,4.05797101 C102.605799,4.56521739 104.18591,5.1884058 104.18591,6.79710145 C104.18591,8.46376812 102.837742,10 100.489318,10 C98.662767,10 97.0681587,9.26086957 96.3143438,8.23188406 Z M107.244659,9.82608696 L109.042218,1.65217391 L106.113937,1.65217391 L106.447355,0.15942029 L114,0.15942029 L113.666582,1.65217391 L110.738301,1.65217391 L108.940743,9.82608696 L107.244659,9.82608696 Z" id="PRODUCTBOOST"></path>
                </g>
                <g id="Illustration" transform="translate(324.000000, 32.000000)">
                    <polygon id="Path" fill="#8BDCFB" points="54 80 22 80 29.3181818 58 46.6818182 58"></polygon>
                    <g id="Group-3" transform="translate(20.000000, 0.000000)" fill-rule="nonzero">
                        <g id="Group-2">
                            <path d="M28,38 L36,48.1751762 L36,58 L28,52 L28,38 Z M8,38 L-1.42108547e-14,48.1751762 L-1.42108547e-14,58 L8,52 L8,38 Z" id="Shape" fill="#E14D4C"></path>
                            <path d="M29.9916992,18 C32.5871783,24.4752604 32.0353724,36.6109352 28.3362813,54.4070247 L28.3362765,54.4070237 C28.1434123,55.3348812 27.3258255,56 26.3781356,56 L9.62185338,55.9999969 C8.67416887,55.9999969 7.85658495,55.3348861 7.66371406,54.4070355 C3.96446669,36.6109401 3.40989534,24.4752617 6,18 C12.3803711,18 22,18 29.9916992,18 Z" id="Shape" fill="#F8FAFB"></path>
                            <path d="M6,18 C8.65755208,18 12.6575521,18 18,18 L18,56 L9.62185338,55.9999969 C8.67416887,55.9999969 7.85658495,55.3348861 7.66371406,54.4070355 C3.96446669,36.6109401 3.40989534,24.4752617 6,18 Z" id="Rectangle" fill="#EEF2F5"></path>
                            <polygon id="Path" fill="#E14D4C" points="10 56.0013875 8 62 28 62 26 56"></polygon>
                            <circle id="Oval" stroke="url(#linearGradient-1)" stroke-width="2" fill="#8BDCFB" cx="18" cy="28" r="5"></circle>
                            <path d="M18,-1.59872116e-14 C14.0058594,-1.59872116e-14 8,13.9971924 6,18 C11.2942708,18 15.2942708,18 18,18 C20.6276042,18 24.6276042,18 30,18 C28,13.9971924 22,-1.59872116e-14 18,-1.59872116e-14 Z" id="Shape" fill="#E14D4C"></path>
                        </g>
                    </g>
                    <path d="M76,80 L0,80 C0,77.790861 1.790861,76 4,76 C5.02800835,76 5.96544088,76.3878011 6.67398576,77.0250915 C8.31422594,72.3512198 12.7657533,69 18,69 C22.9490878,69 27.1984174,71.996021 29.0332323,76.2733066 C31.8783555,75.4444337 34.8872762,75 38,75 C41.1127238,75 44.1216445,75.4444337 46.9667677,76.2733066 C48.8015826,71.996021 53.0509122,69 58,69 C63.2342467,69 67.6857741,72.3512198 69.3260142,77.0250915 C70.0345591,76.3878011 70.9719917,76 72,76 C74.209139,76 76,77.790861 76,80 Z" id="Combined-Shape" fill="url(#linearGradient-2)" fill-rule="nonzero"></path>
                    <g id="Group" transform="translate(32.000000, 62.000000)" fill-rule="nonzero">
                        <path d="M6,16 C-0.75,9.41913043 0.3125,4.8 2,0 L10,5.45696821e-12 C11.6875,4.8 12.75,9.41913043 6,16 Z" id="Path" fill="url(#linearGradient-3)"></path>
                        <path d="M6,1.11022302e-16 C8.66666667,2.98484848 8.66666667,5.65151515 6,8 C3.33333333,5.64646465 3.33333333,2.97979798 6,1.11022302e-16 Z" id="Shape" fill="url(#linearGradient-4)"></path>
                    </g>
                </g>
            </g>
        </g>
    </g>
</svg>