<svg width="240" height="136" viewBox="0 0 240 136" fill="none" xmlns="http://www.w3.org/2000/svg">
<g clip-path="url(#clip0)">
<rect width="240" height="136" fill="white"/>
<rect x="15.3679" y="2" width="215.15" height="131.724" rx="4.39081" fill="#EFF4F6"/>
<rect x="15.3679" y="2" width="215.15" height="131.724" rx="4.39081" fill="url(#paint0_linear)"/>
<path d="M47.2012 33.8334H93.3047" stroke="#305BEF" stroke-width="1.0977" stroke-linecap="round"/>
<path d="M47.2012 39.3219H79.0346" stroke="#7996F9" stroke-width="1.0977" stroke-linecap="round"/>
<path d="M15.3679 6.39081C15.3679 3.96584 17.3338 2 19.7587 2H226.127C228.552 2 230.518 3.96583 230.518 6.39081V10.7816H15.3679V6.39081Z" fill="#022786"/>
<circle cx="20.8564" cy="6.39079" r="1.0977" fill="white"/>
<circle cx="25.2472" cy="6.39079" r="1.0977" fill="white"/>
<circle cx="29.638" cy="6.39079" r="1.0977" fill="white"/>
<rect x="163.219" y="60.9871" width="55.8745" height="57.2048" rx="2.19541" fill="#DCE5E9"/>
<circle cx="171.202" cy="68.9692" r="3.99103" fill="#6B828F"/>
<path d="M180.514 67.6388H200.469" stroke="#6B828F" stroke-width="1.0977" stroke-linecap="round"/>
<path d="M180.514 70.2995H189.826" stroke="#98ABB6" stroke-width="1.0977" stroke-linecap="round"/>
<path fill-rule="evenodd" clip-rule="evenodd" d="M184.442 80.9831C182.365 81.3989 180.041 82.9847 179.942 83.6491C179.844 84.3143 180.041 86.3802 180.041 86.3802C180.041 86.3802 178.088 84.9872 178.315 89.5236C178.543 94.0608 181.786 108.366 183.759 109.87C185.732 111.374 188.935 111.378 190.42 110.843C191.903 110.309 196.487 109.013 200.046 108.319C203.605 107.624 202.181 108.005 205.191 106.461C208.201 104.918 207.382 102.975 207.02 101.958C206.658 100.939 204.209 95.2472 204.1 93.2473C204.047 92.2787 203.661 90.1271 203.15 86.1796C202.998 85.0026 202.835 83.6662 202.666 82.1541C202.591 81.4854 202.415 79.8867 201.312 79.2661C200.844 79.0029 200.234 79.0329 199.016 79.0921C197.073 79.1855 196.643 79.7153 196.521 79.8893C196.411 80.0462 196.354 80.2005 196.323 80.3085C196.302 80.5176 196.26 80.8108 196.172 81.1511C196.095 81.4477 195.262 84.4574 192.587 85.2075C191.655 85.4681 190.529 85.4329 189.193 84.8766C189.193 84.8766 187.476 84.196 186.252 81.284C186.252 81.284 186.093 80.6522 184.442 80.9831Z" fill="#305BEF"/>
<path fill-rule="evenodd" clip-rule="evenodd" d="M202.978 86.0769C202.978 86.0769 189.18 90.4074 183.314 90.4856C183.314 90.4856 183.735 92.9287 183.858 93.0947C183.982 93.2616 201.426 90.5476 203.386 89.0921L202.978 86.0769Z" fill="#7996F9"/>
<path fill-rule="evenodd" clip-rule="evenodd" d="M204.015 91.0949C204.015 91.0949 191.467 95.73 184.74 95.2858L184.318 98.12C184.318 98.12 199.46 97.5094 204.39 93.8785C204.39 93.8785 204.167 92.1394 204.015 91.0949Z" fill="#7996F9"/>
<path fill-rule="evenodd" clip-rule="evenodd" d="M207.161 102.134C207.161 102.134 195.56 106.945 185.322 107.131L185.462 109.156C185.462 109.156 197.379 109.443 206.926 104.938C206.926 104.938 207.385 104.907 207.4 103.205C207.4 103.205 207.426 102.864 207.161 102.134Z" fill="#7996F9"/>
<path fill-rule="evenodd" clip-rule="evenodd" d="M204.449 97.1164C204.449 97.1164 191.656 103.603 185.035 102.02C185.035 102.02 184.341 104.679 184.318 104.84C184.294 105.003 194.748 106.731 205.393 99.7314L204.449 97.1164Z" fill="#7996F9"/>
<path fill-rule="evenodd" clip-rule="evenodd" d="M197.364 79.0518C197.364 79.0518 197.439 81.9071 196.273 83.3633C195.108 84.8203 193.177 86.8526 189.09 85.773C185.003 84.6934 184.318 80.6159 184.318 80.6159C184.318 80.6159 185.616 80.368 185.78 80.9856C185.945 81.6022 186.932 83.0627 187.391 83.5015C187.849 83.9411 189.22 85.2738 191.872 85.0483C194.524 84.8238 196.045 81.7309 196.236 80.4872C196.428 79.2444 196.649 79.316 197.364 79.0518Z" fill="#7996F9"/>
<rect x="26.3448" y="60.9871" width="55.8745" height="57.2048" rx="2.19541" fill="#DCE5E9"/>
<circle cx="34.3272" cy="68.9692" r="3.99103" fill="#6B828F"/>
<path d="M43.6394 67.6388H63.5946" stroke="#6B828F" stroke-width="1.0977" stroke-linecap="round"/>
<path d="M43.6394 70.2995H52.9518" stroke="#98ABB6" stroke-width="1.0977" stroke-linecap="round"/>
<path fill-rule="evenodd" clip-rule="evenodd" d="M42.7332 98.8841C42.7332 98.8841 45.4253 102.853 51.0746 104.243C56.7239 105.633 63.4928 104.591 65.427 103.143C67.3606 101.696 69.0914 98.8 60.7444 95.8466" fill="#7996F9"/>
<path fill-rule="evenodd" clip-rule="evenodd" d="M38.86 91.0983L38.0966 94.5144C38.0966 94.5144 37.5365 97.301 39.114 97.8479C40.6922 98.3948 42.9825 99.0897 46.2902 99.4948C49.5986 99.9 58.709 98.6839 58.709 98.6839C58.709 98.6839 61.1006 98.4525 60.7446 95.8466C60.3885 93.2407 60.2865 91.4457 60.3372 89.6501C60.3885 87.8551 60.4392 84.3229 55.1459 82.701C49.8533 81.0798 43.4912 82.2959 41.9644 84.0332C40.4375 85.7704 39.6234 87.6814 38.86 91.0983Z" fill="#305BEF"/>
<path fill-rule="evenodd" clip-rule="evenodd" d="M54.8788 93.9932V97.4101L59.5228 97.1203V93.7618L54.8788 93.9932Z" fill="white"/>
<rect x="26.3448" y="10.7816" width="193.196" height="15.3678" fill="#DCE5E9"/>
<path d="M88.3821 55.7874C88.3821 54.575 89.365 53.592 90.5775 53.592H154.806C156.018 53.592 157.001 54.575 157.001 55.7874V123.845H88.3821V55.7874Z" fill="#DCE5E9"/>
<rect x="134.128" y="58.4934" width="17.9717" height="7.68392" rx="3.84196" fill="#FFECAB"/>
<path d="M142.456 62.7764H141.148L140.854 63.5911H140.43L141.622 60.4695H141.982L143.176 63.5911H142.754L142.456 62.7764ZM141.272 62.4377H142.333L141.802 60.9776L141.272 62.4377ZM143.438 62.412C143.438 62.0561 143.522 61.7702 143.691 61.5544C143.859 61.3371 144.08 61.2285 144.353 61.2285C144.625 61.2285 144.84 61.3214 144.998 61.5072V60.298H145.395V63.5911H145.031L145.011 63.3424C144.853 63.5368 144.632 63.634 144.349 63.634C144.08 63.634 143.861 63.5239 143.691 63.3038C143.522 63.0837 143.438 62.7964 143.438 62.442V62.412ZM143.834 62.457C143.834 62.72 143.889 62.9258 143.997 63.0744C144.106 63.2231 144.256 63.2974 144.447 63.2974C144.699 63.2974 144.883 63.1845 144.998 62.9587V61.8931C144.88 61.6744 144.698 61.5651 144.452 61.5651C144.257 61.5651 144.106 61.6401 143.997 61.7902C143.889 61.9403 143.834 62.1625 143.834 62.457Z" fill="#614700"/>
<path fill-rule="evenodd" clip-rule="evenodd" d="M103.511 60.8856C103.212 60.8858 102.934 61.1435 102.893 61.4579L102.588 63.8002C102.554 64.0554 102.438 64.2768 102.24 64.4645C102.043 64.6523 101.82 64.7462 101.573 64.7464C101.333 64.7466 101.139 64.6548 100.99 64.4709C100.841 64.2873 100.784 64.0643 100.819 63.8015L101.003 62.3801C101.008 62.0964 100.807 61.8746 100.53 61.8748L99.8032 61.8753C99.5258 61.8755 99.266 62.0977 99.1974 62.3814L99.0074 63.8028C98.9729 64.0656 98.857 64.2887 98.6597 64.4726C98.4624 64.6568 98.2438 64.7488 98.004 64.749C97.7637 64.7492 97.5677 64.6555 97.416 64.468C97.264 64.2806 97.205 64.0593 97.2384 63.8041L97.6474 60.6962C97.6906 60.3937 97.5214 60.0776 97.2628 59.9494C97.2628 59.9494 94.1993 58.6008 93.9997 58.5142C93.7975 58.4268 93.5684 58.6232 93.4896 58.9506L93.3019 59.7326C93.2233 60.06 93.3998 60.4321 93.694 60.5594L95.7472 61.457L95.4381 63.8054C95.3343 64.5931 95.5084 65.2668 95.9611 65.8252C96.4135 66.384 97.0103 66.6629 97.752 66.6624C98.4367 66.6619 99.062 66.4177 99.6275 65.9294C100.079 66.417 100.643 66.6602 101.321 66.6598C102.063 66.6592 102.733 66.3794 103.333 65.8198C103.933 65.2606 104.284 64.5866 104.388 63.7989C104.388 63.7989 104.711 61.3206 104.717 61.2772C104.746 61.0612 104.524 60.8849 104.226 60.8851L103.511 60.8856Z" fill="#305BEF"/>
<path d="M109.621 61.761H125.959" stroke="#305BEF" stroke-width="1.0977" stroke-linecap="round"/>
<path d="M109.621 65.0286H121.058" stroke="#7996F9" stroke-width="1.0977" stroke-linecap="round"/>
<path fill-rule="evenodd" clip-rule="evenodd" d="M144.292 108.636C144.331 108.389 144.362 108.155 144.371 107.96C144.43 106.672 144.267 105.334 140.776 103.483C137.285 101.632 129.105 97.1283 127.718 96.1294C126.335 95.131 124.86 94.1898 124.692 91.1672C124.692 91.1672 124.664 85.8017 124.495 84.8454C124.326 83.8892 125.251 83.1761 120.9 82.4346C116.548 81.6944 116.492 82.2937 116.068 83.5007C115.647 84.7069 115.045 87.2148 115.045 87.2148C115.045 87.2148 114.489 87.0146 112.48 85.5897C110.469 84.1645 106.907 83.2942 105.833 85.7599C104.756 88.2226 100.43 98.001 100.178 98.787C100.115 98.9889 100.008 99.4199 99.8874 99.9461C99.923 99.9556 131.236 107.859 144.292 108.636Z" fill="#FFC72C"/>
<path fill-rule="evenodd" clip-rule="evenodd" d="M99.3267 102.519C99.1691 103.263 99.0553 103.819 99.0553 103.819C99.0553 103.819 129.894 111.083 135.599 111.591C141.304 112.098 143.476 111.971 143.476 111.971C143.476 111.971 143.595 111.583 143.746 111.031C133.046 111.018 99.3267 102.519 99.3267 102.519Z" fill="#FFC72C"/>
<path fill-rule="evenodd" clip-rule="evenodd" d="M144.292 108.636C131.236 107.859 99.9227 99.9556 99.8871 99.9461C99.7069 100.733 99.4924 101.731 99.3263 102.519C99.3263 102.519 133.046 111.018 143.747 111.031C143.936 110.342 144.171 109.402 144.292 108.636Z" fill="#916A00"/>
<path fill-rule="evenodd" clip-rule="evenodd" d="M124.58 109.82C112.172 107.426 99.2091 104.088 99.0015 104.034C98.8823 104.003 98.8115 103.882 98.8422 103.763C98.8715 103.645 98.9806 103.581 99.1117 103.604C99.4431 103.691 132.466 112.193 143.468 111.75C143.593 111.744 143.693 111.841 143.698 111.962C143.702 112.086 143.608 112.187 143.485 112.193C139.326 112.362 132.055 111.262 124.58 109.82Z" fill="#916A00"/>
<rect x="15.3679" y="2" width="215.15" height="131.724" rx="4.39081" fill="url(#paint1_linear)"/>
<circle cx="17.0142" cy="36.5776" r="7.13507" fill="#7996F9"/>
<path fill-rule="evenodd" clip-rule="evenodd" d="M240 98.1182L230.087 85.4679V102.873L240 110.333V98.1182ZM195.391 98.1182L205.304 85.4679V102.873L195.391 110.333V98.1182Z" fill="#E52533"/>
<path d="M232.556 60.6029C236.818 71.2727 231.947 98.4249 230.479 105.91C230.256 107.052 229.256 107.847 228.092 107.847H207.3C206.137 107.847 205.137 107.052 204.913 105.91C203.446 98.4249 198.573 71.2727 202.826 60.6029C210.733 60.6029 222.653 60.6029 232.556 60.6029Z" fill="url(#paint2_linear)"/>
<path d="M232.562 60.6029C227.622 60.6029 217.692 60.6029 217.692 60.6029V107.847H228.088C229.252 107.847 230.251 107.052 230.475 105.91C231.943 98.4249 236.815 71.2727 232.562 60.6029Z" fill="#D0DBFF"/>
<path d="M207.782 107.848L205.304 115.306H230.087L227.609 107.846L207.782 107.848Z" fill="#E52533"/>
<path d="M223.897 73.0354C223.897 76.4779 221.116 79.2616 217.695 79.2616C214.274 79.2616 211.494 76.4779 211.494 73.0354C211.494 69.5929 214.274 66.8092 217.695 66.8092C221.116 66.8092 223.897 69.5929 223.897 73.0354Z" fill="#8BDCFB" stroke="url(#paint3_linear)" stroke-width="2.46675"/>
<path d="M217.695 38.2242C212.746 38.2242 205.304 55.6263 202.826 60.6028C202.826 60.6028 212.666 60.6028 217.695 60.6028C222.579 60.6028 232.565 60.6028 232.565 60.6028C230.087 55.6263 222.652 38.2242 217.695 38.2242Z" fill="#E52533"/>
<path d="M217.696 135.198C209.332 127.017 210.648 121.274 212.739 115.306L222.652 115.306C224.744 121.274 226.06 127.017 217.696 135.198Z" fill="url(#paint4_linear)"/>
<path d="M217.697 115.306C217.697 115.306 222.654 120.873 217.697 125.252C212.739 120.863 217.697 115.306 217.697 115.306Z" fill="url(#paint5_linear)"/>
<rect x="6.59778" y="23.5518" width="60.0806" height="110.575" rx="3.69541" fill="white" stroke="#022786" stroke-width="3"/>
<rect x="8.09778" y="25.0518" width="57.0806" height="32.9311" rx="2.19541" fill="#DCE5E9"/>
<g clip-path="url(#clip1)">
<rect x="10.2931" y="76.6438" width="33.2374" height="34.0288" rx="2.19541" fill="#DCE5E9"/>
<rect x="32.4517" y="79.0179" width="8.70504" height="4.17897" rx="2.08949" fill="#FFECAB"/>
<path d="M36.4462 81.1718H35.7349L35.5752 81.6149H35.3443L35.9926 79.9172H36.1885L36.838 81.6149H36.6082L36.4462 81.1718ZM35.8025 80.9876H36.3797L36.0905 80.1935L35.8025 80.9876ZM36.9802 80.9736C36.9802 80.78 37.0261 80.6245 37.1178 80.5072C37.2095 80.389 37.3296 80.3299 37.4781 80.3299C37.6258 80.3299 37.7428 80.3805 37.8291 80.4815V79.8239H38.0448V81.6149H37.8465L37.8361 81.4796C37.7498 81.5853 37.6297 81.6382 37.4758 81.6382C37.3296 81.6382 37.2103 81.5783 37.1178 81.4586C37.0261 81.3389 36.9802 81.1827 36.9802 80.9899V80.9736ZM37.1959 80.998C37.1959 81.1411 37.2255 81.253 37.2845 81.3339C37.3436 81.4147 37.4252 81.4551 37.5294 81.4551C37.6662 81.4551 37.7661 81.3937 37.8291 81.2709V80.6914C37.7645 80.5725 37.6654 80.513 37.5317 80.513C37.426 80.513 37.3436 80.5538 37.2845 80.6354C37.2255 80.717 37.1959 80.8379 37.1959 80.998Z" fill="#614700"/>
<path fill-rule="evenodd" clip-rule="evenodd" d="M17.6217 80.1766C17.4769 80.1767 17.3421 80.3015 17.322 80.4538L17.1743 81.5884C17.1579 81.712 17.1019 81.8192 17.0062 81.9101C16.9104 82.0011 16.8026 82.0466 16.683 82.0467C16.5667 82.0467 16.4724 82.0023 16.4005 81.9132C16.3283 81.8243 16.3007 81.7163 16.3174 81.589L16.4065 80.9005C16.4094 80.7631 16.3119 80.6556 16.1776 80.6557L15.8256 80.656C15.6912 80.6561 15.5654 80.7637 15.5322 80.9011L15.4401 81.5896C15.4234 81.7169 15.3673 81.825 15.2717 81.9141C15.1762 82.0033 15.0703 82.0478 14.9541 82.0479C14.8377 82.048 14.7428 82.0027 14.6693 81.9118C14.5957 81.8211 14.5671 81.7139 14.5833 81.5903L14.7814 80.0849C14.8023 79.9383 14.7204 79.7852 14.5951 79.7231C14.5951 79.7231 13.1112 79.0699 13.0145 79.0279C12.9166 78.9856 12.8056 79.0808 12.7675 79.2393L12.6765 79.6181C12.6385 79.7767 12.7239 79.957 12.8665 80.0186L13.861 80.4534L13.7113 81.5909C13.661 81.9724 13.7453 82.2987 13.9646 82.5692C14.1837 82.8399 14.4728 82.975 14.8321 82.9747C15.1637 82.9745 15.4666 82.8562 15.7405 82.6197C15.959 82.8559 16.2326 82.9737 16.561 82.9735C16.9201 82.9732 17.2449 82.8377 17.5353 82.5666C17.8258 82.2957 17.9961 81.9693 18.0464 81.5877C18.0464 81.5877 18.2031 80.3873 18.2059 80.3663C18.2195 80.2617 18.1125 80.1762 17.9677 80.1763L17.6217 80.1766Z" fill="#305BEF"/>
<path d="M20.5812 80.6006H28.4948" stroke="#305BEF" stroke-width="0.596996" stroke-linecap="round"/>
<path d="M20.5812 82.1833H26.1207" stroke="#7996F9" stroke-width="0.596996" stroke-linecap="round"/>
<path fill-rule="evenodd" clip-rule="evenodd" d="M37.3762 103.306C37.3949 103.187 37.4099 103.073 37.4144 102.978C37.4429 102.355 37.3643 101.707 35.6733 100.81C33.9823 99.9137 30.0198 97.732 29.3483 97.2481C28.678 96.7645 27.9637 96.3086 27.8825 94.8446C27.8825 94.8446 27.869 92.2457 27.7872 91.7825C27.7053 91.3193 28.1531 90.9739 26.0454 90.6147C23.9376 90.2562 23.9103 90.5465 23.705 91.1311C23.5011 91.7154 23.2099 92.9301 23.2099 92.9301C23.2099 92.9301 22.9405 92.8332 21.967 92.143C20.993 91.4526 19.2678 91.0311 18.7475 92.2254C18.2261 93.4183 16.1307 98.1547 16.0085 98.5354C15.9778 98.6332 15.9262 98.842 15.8677 99.0969C15.8849 99.1014 31.0522 102.929 37.3762 103.306Z" fill="#FFC72C"/>
<path fill-rule="evenodd" clip-rule="evenodd" d="M15.5946 100.343C15.5183 100.703 15.4632 100.972 15.4632 100.972C15.4632 100.972 30.4008 104.491 33.164 104.737C35.9272 104.983 36.9794 104.921 36.9794 104.921C36.9794 104.921 37.037 104.733 37.1104 104.466C31.9272 104.459 15.5946 100.343 15.5946 100.343Z" fill="#FFC72C"/>
<path fill-rule="evenodd" clip-rule="evenodd" d="M37.3746 103.306C31.0506 102.929 15.8833 99.1012 15.8661 99.0966C15.7788 99.4778 15.6748 99.9614 15.5944 100.343C15.5944 100.343 31.9276 104.459 37.1108 104.466C37.202 104.132 37.3161 103.677 37.3746 103.306Z" fill="#916A00"/>
<path fill-rule="evenodd" clip-rule="evenodd" d="M27.8269 103.879C21.817 102.72 15.538 101.103 15.4374 101.077C15.3797 101.062 15.3454 101.003 15.3602 100.945C15.3744 100.888 15.4273 100.857 15.4908 100.868C15.6513 100.91 31.6467 105.029 36.9757 104.814C37.0362 104.811 37.0847 104.858 37.0871 104.917C37.0893 104.977 37.0436 105.026 36.9843 105.029C34.9696 105.111 31.4475 104.578 27.8269 103.879Z" fill="#916A00"/>
<rect x="46.5173" y="76.6438" width="33.2374" height="34.0288" rx="2.19541" fill="#DCE5E9"/>
<circle cx="51.2655" cy="81.392" r="2.3741" fill="#305BEF"/>
<path d="M56.8049 80.6006H68.6754" stroke="#6B828F" stroke-width="0.647645" stroke-linecap="round"/>
<path d="M56.8049 82.1833H62.3445" stroke="#98ABB6" stroke-width="0.647645" stroke-linecap="round"/>
<path fill-rule="evenodd" clip-rule="evenodd" d="M57.1222 99.4577C57.1222 99.4577 58.9443 101.819 62.768 102.646C66.5917 103.472 71.1731 102.852 72.4823 101.991C73.791 101.13 74.9625 99.4076 69.3129 97.6508" fill="#7996F9"/>
<path fill-rule="evenodd" clip-rule="evenodd" d="M54.5009 94.8263L53.9842 96.8584C53.9842 96.8584 53.6051 98.516 54.6729 98.8413C55.741 99.1667 57.2911 99.58 59.53 99.821C61.7692 100.062 67.9355 99.3386 67.9355 99.3386C67.9355 99.3386 69.5542 99.201 69.3132 97.6508C69.0722 96.1007 69.0032 95.0329 69.0375 93.9648C69.0722 92.897 69.1066 90.7959 65.5239 89.8311C61.9416 88.8667 57.6355 89.5901 56.6021 90.6235C55.5686 91.6569 55.0176 92.7937 54.5009 94.8263Z" fill="#305BEF"/>
</g>
<rect x="7" y="23.954" width="59.276" height="109.77" rx="4.39081" fill="url(#paint6_linear)"/>
<path d="M26.7588 65.6668H53.1037" stroke="#6B828F" stroke-width="1.0977" stroke-linecap="round"/>
<path d="M26.7588 68.9599H44.9493" stroke="#BFCDD4" stroke-width="1.0977" stroke-linecap="round"/>
<circle cx="16.8795" cy="66.7645" r="4.39081" fill="#BFCDD4"/>
<path d="M26.7588 122.747H53.1037" stroke="#6B828F" stroke-width="1.0977" stroke-linecap="round"/>
<path d="M26.7588 126.04H44.9493" stroke="#BFCDD4" stroke-width="1.0977" stroke-linecap="round"/>
<circle cx="16.8795" cy="123.845" r="4.39081" fill="#BFCDD4"/>
<path d="M23 24H50V27C50 29.2091 48.2091 31 46 31H27C24.7909 31 23 29.2091 23 27V24Z" fill="#022786"/>
<path d="M32.5 27.3448H45.9683" stroke="white" stroke-width="1.0977" stroke-linecap="round"/>
<path d="M27.8564 27.3448H28.9541" stroke="white" stroke-width="1.0977" stroke-linecap="round"/>
</g>
<defs>
<linearGradient id="paint0_linear" x1="226.85" y1="4.74426" x2="31.8185" y2="151.018" gradientUnits="userSpaceOnUse">
<stop stop-color="#F7F9FA"/>
<stop offset="1" stop-color="#EFF4F6"/>
</linearGradient>
<linearGradient id="paint1_linear" x1="226.85" y1="4.74426" x2="31.8185" y2="151.018" gradientUnits="userSpaceOnUse">
<stop offset="0.4999" stop-color="#E5ECFF" stop-opacity="0"/>
<stop offset="0.5" stop-color="#6B828F" stop-opacity="0.07"/>
</linearGradient>
<linearGradient id="paint2_linear" x1="217.694" y1="60.6029" x2="217.694" y2="107.847" gradientUnits="userSpaceOnUse">
<stop stop-color="#F0F4FF"/>
<stop offset="1" stop-color="#E5ECFF"/>
</linearGradient>
<linearGradient id="paint3_linear" x1="210.26" y1="65.5759" x2="210.26" y2="80.495" gradientUnits="userSpaceOnUse">
<stop stop-color="#2F88EC"/>
<stop offset="1" stop-color="#2FB7EC"/>
</linearGradient>
<linearGradient id="paint4_linear" x1="211.172" y1="115.306" x2="211.172" y2="135.198" gradientUnits="userSpaceOnUse">
<stop stop-color="#FFE380"/>
<stop offset="1" stop-color="#FFE380"/>
</linearGradient>
<linearGradient id="paint5_linear" x1="220.175" y1="125.252" x2="220.175" y2="115.306" gradientUnits="userSpaceOnUse">
<stop stop-color="#FFD560"/>
<stop offset="1" stop-color="#F0B616"/>
</linearGradient>
<linearGradient id="paint6_linear" x1="54.6325" y1="27.6482" x2="-5.30405" y2="63.7681" gradientUnits="userSpaceOnUse">
<stop offset="0.484275" stop-color="#E5ECFF" stop-opacity="0"/>
<stop offset="0.484375" stop-color="#6B828F" stop-opacity="0.07"/>
</linearGradient>
<clipPath id="clip0">
<rect width="240" height="136" fill="white"/>
</clipPath>
<clipPath id="clip1">
<rect width="55.9828" height="37.3219" fill="white" transform="translate(9.19531 74.4484)"/>
</clipPath>
</defs>
</svg>
