<svg xmlns="http://www.w3.org/2000/svg" xmlns:xlink="http://www.w3.org/1999/xlink" width="90" height="90" viewBox="0 0 90 90">
    <defs>
        <path id="a" d="M0 0h90v90H0z"/>
        <linearGradient id="d" x1="50%" x2="50%" y1="0%" y2="100%">
            <stop offset="0%" stop-color="#AFC7D1" stop-opacity=".5"/>
            <stop offset="100%" stop-color="#EEF2F5"/>
        </linearGradient>
        <circle id="c" cx="44" cy="44" r="44"/>
        <linearGradient id="f" x1="50%" x2="50%" y1="0%" y2="100%">
            <stop offset="0%" stop-color="#EEF2F5" stop-opacity=".5"/>
            <stop offset="100%" stop-color="#FFF"/>
        </linearGradient>
        <linearGradient id="g" x1="50%" x2="50%" y1="0%" y2="100%">
            <stop offset="0%" stop-color="#FFE380"/>
            <stop offset="100%" stop-color="#FFE380"/>
        </linearGradient>
        <linearGradient id="h" x1="50%" x2="50%" y1="100%" y2="0%">
            <stop offset="0%" stop-color="#FFD560"/>
            <stop offset="100%" stop-color="#F0B616"/>
        </linearGradient>
        <linearGradient id="i" x1="100%" x2="50%" y1="0%" y2="100%">
            <stop offset="0%" stop-color="#FFF"/>
            <stop offset="100%" stop-color="#F8FAFB"/>
        </linearGradient>
        <linearGradient id="j" x1="0%" y1="0%" y2="100%">
            <stop offset="0%" stop-color="#FFF"/>
            <stop offset="100%" stop-color="#F8FAFB"/>
            <stop offset="100%" stop-color="#F8FAFB"/>
        </linearGradient>
        <linearGradient id="k" x1="50%" x2="50%" y1="0%" y2="100%">
            <stop offset="0%" stop-color="#2F88EC"/>
            <stop offset="100%" stop-color="#2FB7EC"/>
        </linearGradient>
        <linearGradient id="l" x1="100%" y1="0%" y2="100%">
            <stop offset="0%" stop-color="#FFA39E"/>
            <stop offset="100%" stop-color="#E14D4C"/>
        </linearGradient>
        <linearGradient id="m" x1="0%" y1="100%" y2="0%">
            <stop offset="0%" stop-color="#AFC7D1" stop-opacity=".5"/>
            <stop offset="100%" stop-color="#EEF2F5" stop-opacity=".4"/>
        </linearGradient>
    </defs>
    <g fill="none" fill-rule="evenodd">
        <mask id="b" fill="#fff">
            <use xlink:href="#a"/>
        </mask>
        <use fill="#E14D4C" fill-opacity="0" fill-rule="nonzero" xlink:href="#a"/>
        <g mask="url(#b)">
            <g transform="translate(1 2)">
                <mask id="e" fill="#fff">
                    <use xlink:href="#c"/>
                </mask>
                <use fill="url(#d)" fill-rule="nonzero" xlink:href="#c"/>
                <path fill="url(#d)" fill-rule="nonzero" d="M26 50h36v42H26z" mask="url(#e)"/>
                <circle cx="78" cy="68" r="4" fill="#EEF2F5" fill-rule="nonzero" mask="url(#e)"/>
                <circle cx="76" cy="74" r="4" fill="#FFF" fill-rule="nonzero" mask="url(#e)"/>
                <circle cx="10" cy="68" r="4" fill="#EEF2F5" fill-rule="nonzero" mask="url(#e)"/>
                <circle cx="12" cy="72" r="4" fill="#FFF" fill-rule="nonzero" mask="url(#e)"/>
                <g fill-rule="nonzero" mask="url(#e)">
                    <g transform="translate(12 58)">
                        <path fill="url(#f)" d="M24 2h16l8 30H16z"/>
                        <circle cx="22" cy="34" r="8" fill="#FFF"/>
                        <circle cx="44" cy="34" r="8" fill="#FFF"/>
                        <circle cx="32" cy="44" r="32" fill="#F8FAFB"/>
                        <path fill="url(#g)" d="M32 16c-6.75-6.58-5.688-11.2-4-16h8c1.688 4.8 2.75 9.42-4 16z"/>
                        <path fill="url(#h)" d="M32 0c2.667 2.985 2.667 5.652 0 8-2.667-2.354-2.667-5.02 0-8z"/>
                        <circle cx="52" cy="14" r="12" fill="url(#i)"/>
                        <circle cx="12" cy="14" r="12" fill="url(#j)"/>
                    </g>
                </g>
            </g>
            <g fill-rule="nonzero" transform="translate(27)">
                <path fill="#E14D4C" d="M28 38l8 10.175V58l-8-6V38zM8 38L0 48.175V58l8-6V38z"/>
                <path fill="#FFF" d="M29.992 18c2.595 6.475 2.043 18.61-1.656 36.407A2 2 0 0 1 26.378 56H9.622a2 2 0 0 1-1.958-1.593C3.964 36.611 3.41 24.475 6 18h23.992z"/>
                <path fill="#EEF2F5" d="M6 18h12v38H9.622a2 2 0 0 1-1.958-1.593C3.964 36.611 3.41 24.475 6 18z"/>
                <path fill="#E14D4C" d="M10 56.001L8 62h20l-2-6z"/>
                <circle cx="18" cy="28" r="5" fill="#8BDCFB" stroke="url(#k)" stroke-width="2"/>
                <path fill="url(#l)" d="M18 0C14.006 0 8 13.997 6 18h24c-2-4.003-8-18-12-18z"/>
            </g>
            <g fill-rule="nonzero">
                <path fill="#AFC7D1" d="M75.528 36c-2.22 4.115-5.989 4-7.528 4 1.068-.377 1.719-2.426 1.927-4A4 4 0 0 1 66 32V22a4 4 0 0 1 4-4h16a4 4 0 0 1 4 4v10a4 4 0 0 1-4 4H75.528z"/>
                <path fill="url(#m)" d="M12 0h8a4 4 0 0 1 4 4v10a4 4 0 0 1-4 4H8l4-18z" transform="translate(66 18)"/>
                <path fill="#FFF" d="M77.14 31.926l-4.196-4.65a3.58 3.58 0 0 1-.61-2.695 3.58 3.58 0 0 1 1.495-2.323 3.714 3.714 0 0 1 4.37.136c.07.056.114.14.117.23a.3.3 0 0 1-.101.235l-1.64 1.471 1.357 1.588a.302.302 0 0 1-.068.45l-1.637 1.025 1.092 1.43-.057-1.028a.3.3 0 0 1 .13-.263l2.333-1.617-1.454-1.284a.3.3 0 0 1-.04-.411l1.207-1.547a.305.305 0 0 1 .16-.107 3.675 3.675 0 0 1 4.253 1.951 3.57 3.57 0 0 1-1.177 4.474l-5.534 2.935z"/>
            </g>
        </g>
    </g>
</svg>
