<svg xmlns="http://www.w3.org/2000/svg" xmlns:xlink="http://www.w3.org/1999/xlink" width="240" height="120" viewBox="0 0 240 120">
    <defs>
        <path id="a" d="M0 0h240v120H0z"/>
        <linearGradient id="c" x1="93.945%" x2="6.055%" y1="0%" y2="100%">
            <stop offset="0%" stop-color="#F8FAFB"/>
            <stop offset="100%" stop-color="#EEF2F5"/>
        </linearGradient>
    </defs>
    <g fill="none" fill-rule="evenodd">
        <mask id="b" fill="#fff">
            <use xlink:href="#a"/>
        </mask>
        <use fill="#D8D8D8" fill-opacity="0" xlink:href="#a"/>
        <g mask="url(#b)">
            <g fill-rule="nonzero" transform="translate(12 25)">
                <path fill="#AFC7D1" fill-opacity=".5" d="M52 6l8 8v56H0V6z"/>
                <path fill="#EEF2F5" d="M58 0l8 8v56H6V0z"/>
                <path fill="#AFC7D1" fill-opacity=".5" d="M66 8h-8V0z"/>
                <rect width="32" height="3" x="11" y="6" fill="#AFC7D1" rx="1.5"/>
                <rect width="28" height="3" x="11" y="12" fill="#AFC7D1" rx="1.5"/>
                <rect width="28" height="3" x="11" y="18" fill="#AFC7D1" rx="1.5"/>
                <rect width="14" height="3" x="11" y="45" fill="#AFC7D1" rx="1.5"/>
                <rect width="14" height="3" x="11" y="51" fill="#AFC7D1" rx="1.5"/>
                <rect width="28" height="3" x="11" y="33" fill="#AFC7D1" rx="1.5"/>
                <rect width="28" height="3" x="11" y="39" fill="#AFC7D1" rx="1.5"/>
            </g>
            <path fill="#0098D3" d="M2 71h16v16H2l4-8zM94 71H78v16h16l-4-8z"/>
            <path fill="#2FB7EC" d="M9 67h78v16H9z"/>
            <path fill="#FFF" fill-rule="nonzero" d="M34.907 79C32.73 79 31 77.44 31 75.156s1.73-3.844 3.907-3.844c1.697 0 2.646.891 3.171 1.816l-1.362.669a2.04 2.04 0 0 0-1.809-1.081c-1.295 0-2.277 1.036-2.277 2.44s.982 2.44 2.277 2.44a2.02 2.02 0 0 0 1.81-1.08l1.361.657c-.536.924-1.474 1.827-3.17 1.827zm4.087-.134v-7.431h1.417v7.431h-1.417zm6.062 0v-.557c-.369.435-1.005.691-1.708.691-.86 0-1.876-.58-1.876-1.783 0-1.259 1.016-1.716 1.876-1.716.714 0 1.35.223 1.708.658v-.747c0-.546-.47-.902-1.184-.902-.58 0-1.116.211-1.574.635l-.536-.947c.66-.58 1.508-.847 2.356-.847 1.228 0 2.356.49 2.356 2.039v3.476h-1.418zm0-1.292v-.669c-.235-.312-.681-.468-1.139-.468-.558 0-1.016.301-1.016.814 0 .501.458.79 1.016.79.458 0 .904-.155 1.139-.467zm2.355.59l.615-.991c.39.367 1.194.735 1.864.735.614 0 .904-.212.904-.546 0-.379-.469-.512-1.083-.635-.926-.178-2.12-.401-2.12-1.682 0-.903.792-1.694 2.21-1.694.915 0 1.64.312 2.166.735l-.559.97c-.323-.346-.938-.624-1.596-.624-.514 0-.849.19-.849.501 0 .334.425.457 1.027.58.927.178 2.166.423 2.166 1.76 0 .992-.837 1.727-2.333 1.727-.938 0-1.842-.312-2.412-.836zm5.326 0l.614-.991c.39.367 1.194.735 1.864.735.614 0 .905-.212.905-.546 0-.379-.47-.512-1.083-.635-.927-.178-2.122-.401-2.122-1.682 0-.903.793-1.694 2.211-1.694.915 0 1.641.312 2.166.735l-.558.97c-.324-.346-.938-.624-1.597-.624-.513 0-.848.19-.848.501 0 .334.424.457 1.027.58.926.178 2.166.423 2.166 1.76 0 .992-.838 1.727-2.334 1.727-.937 0-1.842-.312-2.411-.836zm6.497-5.47a.854.854 0 0 1-.848-.847.847.847 0 1 1 .848.847zm-.703 6.172v-5.381h1.418v5.381h-1.418zm2.479-2.696c0-1.65 1.194-2.819 2.858-2.819 1.105 0 1.775.48 2.132.98l-.927.858c-.256-.367-.647-.579-1.138-.579-.86 0-1.463.624-1.463 1.56s.603 1.57 1.463 1.57c.49 0 .882-.222 1.138-.578l.927.857c-.357.502-1.027.981-2.132.981-1.664 0-2.858-1.17-2.858-2.83z"/>
            <path fill="#0098D3" d="M78 67h9l-9-6zM18 67H9l9-6z"/>
            <g fill-opacity=".4">
                <path fill="#AFC7D1" d="M124 51v-6l12 12-12 12v-6h-20V51h20z"/>
            </g>
            <g>
                <g fill-rule="nonzero" transform="translate(156 25)">
                    <path fill="#AFC7D1" fill-opacity=".5" d="M52 6l8 8v56H0V6z"/>
                    <path fill="url(#c)" d="M58 0l8 8v56H6V0z"/>
                    <path fill="#AFC7D1" fill-opacity=".5" d="M66 8h-8V0z"/>
                    <rect width="32" height="3" x="11" y="6" fill="#AFC7D1" rx="1.5"/>
                    <rect width="28" height="3" x="11" y="12" fill="#AFC7D1" rx="1.5"/>
                    <rect width="28" height="3" x="11" y="18" fill="#AFC7D1" rx="1.5"/>
                    <rect width="14" height="3" x="11" y="45" fill="#AFC7D1" rx="1.5"/>
                    <rect width="14" height="3" x="11" y="51" fill="#AFC7D1" rx="1.5"/>
                    <rect width="28" height="3" x="11" y="33" fill="#AFC7D1" rx="1.5"/>
                    <rect width="28" height="3" x="11" y="39" fill="#AFC7D1" rx="1.5"/>
                </g>
                <path fill="#1ACC94" d="M146 71h16v16h-16l4-8zM238 71h-16v16h16l-4-8z"/>
                <path fill="#2EE3AA" d="M153 67h78v16h-78z"/>
                <path fill="#FFF" fill-rule="nonzero" d="M175 76.876l.87-1.213a3.253 3.253 0 0 0 2.366 1.011c.87 0 1.294-.416 1.294-.843 0-.561-.647-.752-1.506-.955-1.216-.28-2.779-.618-2.779-2.292 0-1.247 1.072-2.258 2.824-2.258 1.182 0 2.164.36 2.9 1.045l-.88 1.168c-.603-.561-1.407-.82-2.132-.82-.714 0-1.094.315-1.094.764 0 .506.625.663 1.485.865 1.227.281 2.79.652 2.79 2.315 0 1.37-.972 2.404-2.98 2.404-1.428 0-2.455-.483-3.158-1.19zm7.878-5.168a.858.858 0 0 1-.848-.854c0-.472.39-.854.848-.854a.85.85 0 0 1 .848.854.85.85 0 0 1-.848.854zm-.703 6.225v-5.427h1.417v5.427h-1.417zm9.507 0v-3.427c0-.506-.223-.866-.803-.866-.503 0-.915.338-1.116.63v3.663h-1.429v-3.427c0-.506-.223-.866-.803-.866-.491 0-.904.338-1.116.64v3.653h-1.417v-5.427h1.417v.707c.223-.325.937-.842 1.763-.842.792 0 1.295.37 1.495.989.313-.495 1.027-.99 1.853-.99.993 0 1.584.529 1.584 1.641v3.922h-1.428zm4.24 2.067h-1.417v-7.494h1.417v.685a2.077 2.077 0 0 1 1.663-.82c1.383 0 2.388 1.033 2.388 2.842 0 1.81-1.005 2.854-2.388 2.854-.636 0-1.228-.27-1.663-.831V80zm2.578-4.787c0-.932-.547-1.573-1.362-1.573-.457 0-.981.27-1.216.618v1.922c.235.337.759.618 1.216.618.815 0 1.362-.64 1.362-1.585zm2.533 2.72v-7.495h1.417v7.495h-1.417zm2.477-2.72c0-1.573 1.15-2.842 2.79-2.842 1.606 0 2.7 1.213 2.7 2.989v.314h-4.006c.09.686.636 1.259 1.551 1.259.502 0 1.094-.203 1.44-.54l.624.922c-.546.505-1.383.752-2.22.752-1.64 0-2.879-1.112-2.879-2.854zm2.79-1.707c-.882 0-1.261.663-1.328 1.202h2.656c-.034-.517-.391-1.202-1.328-1.202z"/>
                <path fill="#1ACC94" d="M222 67h9l-9-6zM162 67h-9l9-6z"/>
            </g>
        </g>
    </g>
</svg>
