<svg width="81" height="80" viewBox="0 0 81 80" fill="none" xmlns="http://www.w3.org/2000/svg">
<path d="M40.9509 80C63.0423 80 80.9509 62.0914 80.9509 40C80.9509 17.9086 63.0423 0 40.9509 0C18.8595 0 0.950928 17.9086 0.950928 40C0.950928 62.0914 18.8595 80 40.9509 80Z" fill="#F9B087"/>
<path d="M62.0201 28.7829L19.9998 28.7915L20.0113 58.2892L62.0316 58.2806L62.0201 28.7829Z" fill="#FFF066"/>
<path d="M63.8846 23.9397L18.0151 23.9492L18.017 28.7587L63.8865 28.7492L63.8846 23.9397Z" fill="#FFF066"/>
<path d="M62.0093 28.8116L19.989 28.8203L19.9894 29.7822L62.0097 29.7735L62.0093 28.8116Z" fill="#F0C039"/>
<rect x="37.1628" y="23.9399" width="8.29266" height="4.88058" fill="#EDAD0A"/>
<rect x="37.1628" y="28.7583" width="8.29266" height="29.5228" fill="#FFAAAA"/>
<rect x="37.1628" y="28.7583" width="8.29266" height="29.5228" fill="#EDAD0A"/>
<rect x="37.1628" y="28.7583" width="8.29266" height="1.01529" fill="#FFAAAA"/>
<rect x="37.1628" y="28.7583" width="8.29266" height="1.01529" fill="#D0A223"/>
<path d="M40.3819 24.3031C40.3819 24.3031 35.8142 15.9425 33.9829 18.4393C32.1931 20.7812 34.9707 22.1893 40.3819 24.3031Z" stroke="#EA4E1C" stroke-width="3.34524" stroke-miterlimit="10" stroke-linecap="round" stroke-linejoin="round"/>
<path d="M40.3814 24.3022C40.3814 24.3022 46.0717 16.6988 47.5049 19.4063C48.9795 21.959 45.8894 22.9567 40.3814 24.3022Z" stroke="#EA4E1C" stroke-width="3.34524" stroke-miterlimit="10" stroke-linecap="round" stroke-linejoin="round"/>
<path d="M34.2821 34.7334C33.7821 32.9001 34.1821 28.3334 39.7821 24.7334C40.6154 25.9001 43.4821 28.9334 48.2821 31.7334" stroke="#EA4E1C" stroke-width="4.46032"/>
<path d="M41.3093 50.899C46.0921 50.899 49.9694 47.2802 49.9694 42.8162C49.9694 38.3522 46.0921 34.7334 41.3093 34.7334C36.5264 34.7334 32.6492 38.3522 32.6492 42.8162C32.6492 47.2802 36.5264 50.899 41.3093 50.899Z" fill="white"/>
<path d="M42.3966 48.0367L41.1114 48.0252L41.056 46.807C39.8369 46.713 38.6872 46.2026 37.7998 45.3613L38.7409 43.9399C39.3437 44.5383 40.1132 44.9408 40.9486 45.0946L40.9348 42.9076C39.5191 42.5497 37.9788 41.9758 37.898 40.1653C37.8988 39.8018 37.9722 39.4422 38.1139 39.1075C38.2556 38.7729 38.4627 38.4699 38.7231 38.2163C38.9835 37.9628 39.292 37.7639 39.6303 37.6312C39.9687 37.4985 40.3301 37.4348 40.6934 37.4437L40.5745 36.2578L41.8597 36.2694L41.9174 37.5534C42.9664 37.6559 43.955 38.0917 44.7383 38.797L43.7129 40.2011C43.2346 39.7521 42.6476 39.4354 42.0098 39.2819L42.0929 41.1895C43.527 41.5659 45.1159 42.1236 45.1967 43.9665C45.2143 44.3442 45.1526 44.7215 45.0158 45.0741C44.879 45.4266 44.67 45.7467 44.4023 46.0137C43.863 46.5449 43.1206 46.8243 42.3412 46.7862L42.3966 48.0367ZM40.69 40.6641L40.6957 39.0221C40.0561 38.9782 39.8413 39.3362 39.8147 39.7103C39.7882 40.0833 40.1022 40.5186 40.69 40.6641ZM43.161 44.0935C43.1541 43.6639 42.7511 43.4723 42.1772 43.3129L42.2003 44.9699C42.87 44.8567 43.1668 44.493 43.1598 44.0923L43.161 44.0935Z" fill="#4A5F6E"/>
</svg>
