<svg width="442" height="160" viewBox="0 0 442 160" fill="none" xmlns="http://www.w3.org/2000/svg">
<path d="M307.471 66.5061H431.736C432.84 66.5061 433.736 67.4015 433.736 68.5061V135.904H307.471V66.5061Z" fill="url(#paint0_linear)"/>
<rect x="352.772" y="71.3254" width="2.89157" height="2.89157" rx="1" fill="#E7EEFD"/>
<rect x="352.772" y="71.3254" width="2.89157" height="2.89157" rx="1" fill="#E7EEFD"/>
<rect x="352.772" y="71.3254" width="2.89157" height="2.89157" rx="1" fill="#E7EEFD"/>
<rect x="352.772" y="80.9639" width="2.89157" height="2.89157" rx="1" fill="#E7EEFD"/>
<rect x="352.772" y="80.9639" width="2.89157" height="2.89157" rx="1" fill="#E7EEFD"/>
<rect x="352.772" y="80.9639" width="2.89157" height="2.89157" rx="1" fill="#E7EEFD"/>
<rect x="362.409" y="80.9639" width="2.89157" height="2.89157" rx="1" fill="#E7EEFD"/>
<rect x="362.409" y="80.9639" width="2.89157" height="2.89157" rx="1" fill="#E7EEFD"/>
<rect x="362.409" y="80.9639" width="2.89157" height="2.89157" rx="1" fill="#E7EEFD"/>
<rect x="403.855" y="80.9639" width="2.89157" height="2.89157" rx="1" fill="#E7EEFD"/>
<rect x="403.855" y="80.9639" width="2.89157" height="2.89157" rx="1" fill="#E7EEFD"/>
<rect x="403.855" y="80.9639" width="2.89157" height="2.89157" rx="1" fill="#E7EEFD"/>
<rect x="413.495" y="80.9639" width="2.89157" height="2.89157" rx="1" fill="#E7EEFD"/>
<rect x="413.495" y="80.9639" width="2.89157" height="2.89157" rx="1" fill="#E7EEFD"/>
<rect x="413.495" y="80.9639" width="2.89157" height="2.89157" rx="1" fill="#E7EEFD"/>
<rect x="423.134" y="90.6023" width="2.89157" height="2.89157" rx="1" fill="#E7EEFD"/>
<rect x="423.134" y="90.6023" width="2.89157" height="2.89157" rx="1" fill="#E7EEFD"/>
<rect x="423.134" y="90.6023" width="2.89157" height="2.89157" rx="1" fill="#E7EEFD"/>
<path d="M289.156 32.8435C289.156 31.7389 290.052 30.8435 291.156 30.8435H345.951C347.056 30.8435 347.951 31.7389 347.951 32.8435V135.904H289.156V32.8435Z" fill="url(#paint1_linear)"/>
<rect x="328.676" y="65.542" width="2.89157" height="2.89157" rx="1" fill="#E7EEFD"/>
<rect x="328.676" y="65.542" width="2.89157" height="2.89157" rx="1" fill="#E7EEFD"/>
<rect x="328.676" y="65.542" width="2.89157" height="2.89157" rx="1" fill="#E7EEFD"/>
<rect x="319.036" y="55.9038" width="2.89157" height="2.89157" rx="1" fill="#E7EEFD"/>
<rect x="319.036" y="55.9038" width="2.89157" height="2.89157" rx="1" fill="#E7EEFD"/>
<rect x="319.036" y="55.9038" width="2.89157" height="2.89157" rx="1" fill="#E7EEFD"/>
<rect x="328.676" y="46.2651" width="2.89157" height="2.89157" rx="1" fill="#E7EEFD"/>
<rect x="328.676" y="46.2651" width="2.89157" height="2.89157" rx="1" fill="#E7EEFD"/>
<rect x="328.676" y="46.2651" width="2.89157" height="2.89157" rx="1" fill="#E7EEFD"/>
<rect x="327.712" y="93.4941" width="79.0362" height="42.4097" fill="url(#paint2_linear)"/>
<path d="M123.374 23.2048C123.374 22.1003 124.269 21.2048 125.374 21.2048H180.169C181.274 21.2048 182.169 22.1003 182.169 23.2048V134.94H123.374V23.2048Z" fill="url(#paint3_linear)"/>
<path d="M31.8066 83.928C31.8066 82.8234 32.7021 81.928 33.8066 81.928H180.168C181.273 81.928 182.168 82.8234 182.168 83.928V135.904H31.8066V83.928Z" fill="url(#paint4_linear)"/>
<rect x="338.314" y="36.6265" width="2.89157" height="2.89157" rx="1" fill="#E7EEFD"/>
<rect x="338.314" y="36.6265" width="2.89157" height="2.89157" rx="1" fill="#E7EEFD"/>
<rect x="338.314" y="36.6265" width="2.89157" height="2.89157" rx="1" fill="#E7EEFD"/>
<path d="M172.529 55.9761C172.529 54.8715 173.425 53.9761 174.529 53.9761H305.469C306.574 53.9761 307.469 54.8715 307.469 55.9761V135.904H172.529V55.9761Z" fill="url(#paint5_linear)"/>
<path d="M87.7119 68.5061C87.7119 67.4015 88.6073 66.5061 89.7119 66.5061H134.869C135.973 66.5061 136.869 67.4015 136.869 68.5061V135.904H87.7119V68.5061Z" fill="url(#paint6_linear)"/>
<rect x="126.265" y="72.2891" width="2.89157" height="2.89157" rx="1" fill="#E7EEFD"/>
<rect x="126.265" y="72.2891" width="2.89157" height="2.89157" rx="1" fill="#E7EEFD"/>
<rect x="126.265" y="72.2891" width="2.89157" height="2.89157" rx="1" fill="#E7EEFD"/>
<rect x="97.3486" y="72.2891" width="2.89157" height="2.89157" rx="1" fill="#E7EEFD"/>
<rect x="97.3486" y="72.2891" width="2.89157" height="2.89157" rx="1" fill="#E7EEFD"/>
<rect x="97.3486" y="72.2891" width="2.89157" height="2.89157" rx="1" fill="#E7EEFD"/>
<rect x="116.626" y="72.2891" width="2.89157" height="2.89157" rx="1" fill="#E7EEFD"/>
<rect x="116.626" y="72.2891" width="2.89157" height="2.89157" rx="1" fill="#E7EEFD"/>
<rect x="116.626" y="72.2891" width="2.89157" height="2.89157" rx="1" fill="#E7EEFD"/>
<path d="M27.7058 135.903H441.446L413.74 160H0L27.7058 135.903Z" fill="url(#paint7_linear)" fill-opacity="0.6"/>
<path d="M173.737 82.6508L233.978 30.8435L294.219 82.6508V146.506H173.737V82.6508Z" fill="#EEF2F5"/>
<path fill-rule="evenodd" clip-rule="evenodd" d="M233.388 86.2651C241.707 86.2651 248.451 79.7921 248.451 71.8072C248.451 63.8224 241.707 57.3494 233.388 57.3494C225.069 57.3494 218.325 63.8224 218.325 71.8072C218.325 79.7921 225.069 86.2651 233.388 86.2651Z" fill="#1E6458"/>
<mask id="mask0" mask-type="alpha" maskUnits="userSpaceOnUse" x="218" y="57" width="31" height="30">
<path fill-rule="evenodd" clip-rule="evenodd" d="M233.388 86.2651C241.707 86.2651 248.451 79.7921 248.451 71.8072C248.451 63.8224 241.707 57.3494 233.388 57.3494C225.069 57.3494 218.325 63.8224 218.325 71.8072C218.325 79.7921 225.069 86.2651 233.388 86.2651Z" fill="white"/>
</mask>
<g mask="url(#mask0)">
<path fill-rule="evenodd" clip-rule="evenodd" d="M238.898 50.1206L247.419 58.2992L236.402 63.1327L233.39 60.2411L238.898 50.1206Z" fill="#A0CFBB"/>
</g>
<mask id="mask1" mask-type="alpha" maskUnits="userSpaceOnUse" x="218" y="57" width="31" height="30">
<path fill-rule="evenodd" clip-rule="evenodd" d="M233.388 86.2651C241.707 86.2651 248.451 79.7921 248.451 71.8072C248.451 63.8224 241.707 57.3494 233.388 57.3494C225.069 57.3494 218.325 63.8224 218.325 71.8072C218.325 79.7921 225.069 86.2651 233.388 86.2651Z" fill="white"/>
</mask>
<g mask="url(#mask1)">
<path fill-rule="evenodd" clip-rule="evenodd" d="M244.96 55.9399L246.946 57.8455V58.5064L236.401 63.1325L235.931 62.6807L244.96 55.9399Z" fill="#A0CFBB"/>
</g>
<mask id="mask2" mask-type="alpha" maskUnits="userSpaceOnUse" x="218" y="57" width="31" height="30">
<path fill-rule="evenodd" clip-rule="evenodd" d="M233.388 86.2651C241.707 86.2651 248.451 79.7921 248.451 71.8072C248.451 63.8224 241.707 57.3494 233.388 57.3494C225.069 57.3494 218.325 63.8224 218.325 71.8072C218.325 79.7921 225.069 86.2651 233.388 86.2651Z" fill="white"/>
</mask>
<g mask="url(#mask2)">
<path d="M229.623 71.807L234.895 61.6865" stroke="#318562" stroke-width="1.5" stroke-linecap="round" stroke-linejoin="round"/>
</g>
<mask id="mask3" mask-type="alpha" maskUnits="userSpaceOnUse" x="218" y="57" width="31" height="30">
<path fill-rule="evenodd" clip-rule="evenodd" d="M233.388 86.2651C241.707 86.2651 248.451 79.7921 248.451 71.8072C248.451 63.8224 241.707 57.3494 233.388 57.3494C225.069 57.3494 218.325 63.8224 218.325 71.8072C218.325 79.7921 225.069 86.2651 233.388 86.2651Z" fill="white"/>
</mask>
<g mask="url(#mask3)">
<path d="M222.845 71.807L234.895 61.6865" stroke="white" stroke-width="1.5" stroke-linecap="round" stroke-linejoin="round"/>
</g>
<mask id="mask4" mask-type="alpha" maskUnits="userSpaceOnUse" x="218" y="57" width="31" height="30">
<path fill-rule="evenodd" clip-rule="evenodd" d="M233.388 86.2651C241.707 86.2651 248.451 79.7921 248.451 71.8072C248.451 63.8224 241.707 57.3494 233.388 57.3494C225.069 57.3494 218.325 63.8224 218.325 71.8072C218.325 79.7921 225.069 86.2651 233.388 86.2651Z" fill="white"/>
</mask>
<g mask="url(#mask4)">
<path d="M234.896 61.6865L237.908 73.2528" stroke="#318562" stroke-width="1.5" stroke-linecap="round" stroke-linejoin="round"/>
</g>
<mask id="mask5" mask-type="alpha" maskUnits="userSpaceOnUse" x="218" y="57" width="31" height="30">
<path fill-rule="evenodd" clip-rule="evenodd" d="M233.388 86.2651C241.707 86.2651 248.451 79.7921 248.451 71.8072C248.451 63.8224 241.707 57.3494 233.388 57.3494C225.069 57.3494 218.325 63.8224 218.325 71.8072C218.325 79.7921 225.069 86.2651 233.388 86.2651Z" fill="white"/>
</mask>
<g mask="url(#mask5)">
<path d="M234.896 61.6865L243.933 74.6986" stroke="white" stroke-width="1.5" stroke-linecap="round" stroke-linejoin="round"/>
</g>
<mask id="mask6" mask-type="alpha" maskUnits="userSpaceOnUse" x="218" y="57" width="31" height="30">
<path fill-rule="evenodd" clip-rule="evenodd" d="M233.388 86.2651C241.707 86.2651 248.451 79.7921 248.451 71.8072C248.451 63.8224 241.707 57.3494 233.388 57.3494C225.069 57.3494 218.325 63.8224 218.325 71.8072C218.325 79.7921 225.069 86.2651 233.388 86.2651Z" fill="white"/>
</mask>
<g mask="url(#mask6)">
<path fill-rule="evenodd" clip-rule="evenodd" d="M227.364 70.3613L244.122 74.3824C244.871 74.5621 245.357 75.2561 245.248 75.9895L244.156 83.3243C244.038 84.1148 243.275 84.6641 242.452 84.5511C242.43 84.5482 242.409 84.5448 242.387 84.5409L221.284 80.7429C220.478 80.5979 219.941 79.8606 220.075 79.0842L221.177 72.7421C221.275 72.1744 221.715 71.7168 222.297 71.5772L227.364 70.3613Z" fill="#318562"/>
</g>
<mask id="mask7" mask-type="alpha" maskUnits="userSpaceOnUse" x="218" y="57" width="31" height="30">
<path fill-rule="evenodd" clip-rule="evenodd" d="M233.388 86.2651C241.707 86.2651 248.451 79.7921 248.451 71.8072C248.451 63.8224 241.707 57.3494 233.388 57.3494C225.069 57.3494 218.325 63.8224 218.325 71.8072C218.325 79.7921 225.069 86.2651 233.388 86.2651Z" fill="white"/>
</mask>
<g mask="url(#mask7)">
<path fill-rule="evenodd" clip-rule="evenodd" d="M239.835 77.4573C239.603 77.414 239.351 77.5526 239.275 77.7651L238.71 79.3482C238.648 79.5206 238.527 79.6576 238.348 79.7593C238.168 79.861 237.982 79.894 237.791 79.8582C237.604 79.8235 237.466 79.7315 237.377 79.5822C237.287 79.4329 237.274 79.2697 237.338 79.0922L237.68 78.1313C237.724 77.935 237.599 77.7517 237.384 77.7116L236.82 77.6064C236.605 77.5663 236.373 77.6829 236.28 77.8701L235.933 78.83C235.869 79.0076 235.748 79.1458 235.569 79.2449C235.391 79.3442 235.208 79.3764 235.022 79.3417C234.836 79.3069 234.697 79.2134 234.605 79.0611C234.514 78.9088 234.499 78.7465 234.561 78.5741L235.314 76.4741C235.39 76.2702 235.303 76.026 235.12 75.8994C235.12 75.8994 232.933 74.5175 232.791 74.4283C232.646 74.3383 232.441 74.4414 232.334 74.6575L232.079 75.1735C231.972 75.3896 232.056 75.6738 232.267 75.8049L233.733 76.7267L233.164 78.3135C232.973 78.8457 233.014 79.339 233.287 79.7927C233.559 80.2467 233.983 80.5272 234.558 80.6345C235.09 80.7336 235.609 80.6547 236.116 80.3976C236.397 80.8019 236.801 81.0529 237.327 81.1511C237.902 81.2584 238.462 81.1613 239.005 80.8596C239.548 80.5582 239.916 80.1409 240.107 79.6087C240.107 79.6087 240.705 77.9338 240.716 77.9045C240.768 77.7585 240.621 77.6039 240.389 77.5607L239.835 77.4573Z" fill="white"/>
</g>
<mask id="mask8" mask-type="alpha" maskUnits="userSpaceOnUse" x="218" y="57" width="31" height="30">
<path fill-rule="evenodd" clip-rule="evenodd" d="M233.388 86.2651C241.707 86.2651 248.451 79.7921 248.451 71.8072C248.451 63.8224 241.707 57.3494 233.388 57.3494C225.069 57.3494 218.325 63.8224 218.325 71.8072C218.325 79.7921 225.069 86.2651 233.388 86.2651Z" fill="white"/>
</mask>
<g mask="url(#mask8)">
<path d="M234.142 64.5783C235.39 64.5783 236.402 63.6074 236.402 62.4096C236.402 61.2119 235.39 60.241 234.142 60.241C232.894 60.241 231.883 61.2119 231.883 62.4096C231.883 63.6074 232.894 64.5783 234.142 64.5783Z" fill="#A0CFBB"/>
<path d="M234.143 63.1323C234.559 63.1323 234.896 62.8087 234.896 62.4094C234.896 62.0102 234.559 61.6865 234.143 61.6865C233.727 61.6865 233.39 62.0102 233.39 62.4094C233.39 62.8087 233.727 63.1323 234.143 63.1323Z" fill="#1E6458"/>
</g>
<mask id="mask9" mask-type="alpha" maskUnits="userSpaceOnUse" x="218" y="57" width="31" height="30">
<path fill-rule="evenodd" clip-rule="evenodd" d="M233.388 86.2651C241.707 86.2651 248.451 79.7921 248.451 71.8072C248.451 63.8224 241.707 57.3494 233.388 57.3494C225.069 57.3494 218.325 63.8224 218.325 71.8072C218.325 79.7921 225.069 86.2651 233.388 86.2651Z" fill="white"/>
</mask>
<g mask="url(#mask9)">
<path d="M227.69 70.3616L229.173 70.6127L227.342 80.5794L225.859 80.3284L227.69 70.3616Z" fill="white" fill-opacity="0.01"/>
</g>
<mask id="mask10" mask-type="alpha" maskUnits="userSpaceOnUse" x="218" y="57" width="31" height="30">
<path fill-rule="evenodd" clip-rule="evenodd" d="M233.388 86.2651C241.707 86.2651 248.451 79.7921 248.451 71.8072C248.451 63.8224 241.707 57.3494 233.388 57.3494C225.069 57.3494 218.325 63.8224 218.325 71.8072C218.325 79.7921 225.069 86.2651 233.388 86.2651Z" fill="white"/>
</mask>
<g mask="url(#mask10)">
<path d="M220.075 79.0823L221.176 72.7425C221.274 72.1748 221.714 71.7172 222.296 71.5776L227.363 70.3617L225.771 81.5415L221.285 80.7415C220.478 80.5975 219.94 79.8596 220.075 79.0823Z" fill="#A0CFBB"/>
</g>
<path d="M193.013 95.9941C193.013 94.6134 194.132 93.4941 195.513 93.4941H272.44C273.821 93.4941 274.94 94.6134 274.94 95.9941V146.506H193.013V95.9941Z" fill="white"/>
<path d="M193.013 95.9941C193.013 94.6134 194.132 93.4941 195.513 93.4941H272.44C273.821 93.4941 274.94 94.6134 274.94 95.9941V98.3134H193.013V95.9941Z" fill="#B6E6D6"/>
<path d="M294.219 92.2893L233.978 40.4821L173.737 92.2893V82.6508L233.978 30.8435L294.219 82.6508V92.2893Z" fill="url(#paint8_linear)"/>
<path d="M166.863 131.748C166.863 130.367 167.983 129.248 169.363 129.248H198.88C200.26 129.248 201.38 130.367 201.38 131.748V144.006C201.38 145.387 200.26 146.506 198.88 146.506H169.363C167.983 146.506 166.863 145.387 166.863 144.006V131.748Z" fill="#318562"/>
<path d="M166.863 129.248H184.122V146.506H166.863V129.248Z" fill="url(#paint9_linear)"/>
<rect x="177.218" y="141.329" width="6.9033" height="2.58874" fill="#92F1D3"/>
<rect x="184.122" y="141.329" width="1.72582" height="2.58874" fill="#1ACC94"/>
<path d="M191.025 121.393C191.025 120.012 192.145 118.893 193.525 118.893H223.042C224.423 118.893 225.542 120.012 225.542 121.393V146.506H191.025V121.393Z" fill="#FFE557"/>
<path d="M191.025 121.393C191.025 120.012 192.145 118.893 193.525 118.893H215.187V146.506H191.025V121.393Z" fill="url(#paint10_linear)"/>
<rect x="205.694" y="138.74" width="6.9033" height="3.45165" fill="white"/>
<rect x="205.694" y="143.055" width="6.9033" height="0.862912" rx="0.431456" fill="white"/>
<path d="M197.928 118.893H208.283V124.071L206.57 123.208L204.831 124.071L203.105 123.208L201.379 124.071L199.654 123.208L197.928 124.071V118.893Z" fill="#F0B616"/>
<path d="M220.363 119.756H221.226V146.506H220.363V119.756Z" fill="#FFC72C"/>
<path d="M218.638 118.893H222.089V124.071L220.364 123.208L218.638 124.071V118.893Z" fill="#F0B616"/>
<path d="M314.988 95.7744C313.079 97.6834 310.015 97.7808 307.989 95.9969L235.292 32.0015C234.539 31.3387 233.412 31.3362 232.656 31.9957L159.265 96.0272C157.238 97.7962 154.186 97.6924 152.284 95.7897C150.198 93.7036 150.303 90.2901 152.514 88.3371L232.647 17.5597C233.406 16.8897 234.546 16.892 235.301 17.5651L314.773 88.3349C316.97 90.2916 317.069 93.6939 314.988 95.7744Z" fill="url(#paint11_linear)"/>
<path d="M250.845 132.048H270.122V146.506H250.845V132.048Z" fill="url(#paint12_linear)"/>
<path d="M266.508 132.048H270.122V146.506H266.508V132.048Z" fill="url(#paint13_linear)"/>
<path d="M152.05 136.868H164.098V146.506H152.05V136.868Z" fill="url(#paint14_linear)"/>
<rect x="155.664" y="136.868" width="4.81928" height="2.40964" fill="#92F1D3"/>
<path d="M270.123 136.868H282.171V146.506H270.123V136.868Z" fill="url(#paint15_linear)"/>
<rect x="273.737" y="136.868" width="4.81928" height="2.40964" fill="#1ACC94"/>
<path d="M254.46 132.048H264.099V136.868L261.689 135.663L259.698 136.868L256.87 135.663L254.46 136.868V132.048Z" fill="#1ACC94"/>
<path opacity="0.5" d="M40.1458 110.784L40.1458 136.229L62.5791 132.181L62.5791 114.832L40.1458 110.784Z" fill="url(#paint16_linear)"/>
<path d="M41.5784 123.632C49.2509 131.512 54.6362 130.272 60.2324 128.302L60.2324 118.963C54.6362 116.993 49.2509 115.753 41.5784 123.632Z" fill="url(#paint17_linear)"/>
<path d="M60.2324 123.632C60.2324 123.632 55.0125 118.963 50.9054 123.632C55.0213 128.301 60.2324 123.632 60.2324 123.632Z" fill="url(#paint18_linear)"/>
<path fill-rule="evenodd" clip-rule="evenodd" d="M60.2158 138.247H59.0566C58.3663 138.247 57.8066 138.807 57.8066 139.497V141.876C57.8066 142.566 58.3663 143.126 59.0566 143.126H108.409V138.247H108.409V106.596C108.409 105.215 107.289 104.096 105.909 104.096H62.7157C61.335 104.096 60.2158 105.215 60.2158 106.596V138.247Z" fill="#1E6458"/>
<path d="M108.409 106.596C108.409 105.215 107.29 104.096 105.909 104.096H89.1321L79.4935 138.247H108.409V106.596Z" fill="url(#paint19_linear)"/>
<path d="M57.1973 139.646C57.1973 138.956 57.7569 138.396 58.4473 138.396H108.374V143.275H58.4473C57.7569 143.275 57.1973 142.715 57.1973 142.025V139.646Z" fill="url(#paint20_linear)"/>
<path d="M132.506 143.126H108.409V112.633L119.479 112.633C120.053 112.633 120.554 113.025 120.692 113.584L122.867 122.391L131.924 128.121C132.286 128.35 132.506 128.749 132.506 129.178V138.247C133.171 138.247 133.71 138.793 133.71 139.467V141.906C133.71 142.58 133.171 143.126 132.506 143.126Z" fill="url(#paint21_linear)"/>
<path fill-rule="evenodd" clip-rule="evenodd" d="M93.7308 122.275C93.7308 121.253 92.9142 120.401 91.9343 120.401L89.5498 120.197L88.4354 116.551C88.4027 116.517 88.4027 116.483 88.37 116.449C88.0434 115.972 87.5208 115.666 86.9002 115.666H77.4103C76.4957 115.666 75.9966 116.689 75.8986 117.574H72.3338C71.9419 117.574 71.6152 117.915 71.6152 118.324C71.6152 118.732 71.9419 119.073 72.3338 119.073H75.848C76.2073 119.141 76.4686 119.448 76.4686 119.822C76.4686 120.231 76.142 120.572 75.75 120.572H74.0113C73.6193 120.572 73.2927 120.912 73.2927 121.321C73.2927 121.73 73.6193 122.07 74.0113 122.07H75.2717H77.1999C77.5919 122.07 77.9186 122.411 77.9186 122.819C77.9186 123.228 77.5919 123.569 77.1999 123.569H75.5238C75.0759 123.569 74.7493 123.909 74.7493 124.318C74.7493 124.727 75.0759 125.067 75.4679 125.067H76.5325C76.0752 125.17 75.7485 125.612 75.7485 126.123V127.486C75.7485 128.065 76.2058 128.576 76.7938 128.576H77.8819C78.2086 129.768 79.2865 130.653 80.5277 130.653C81.8016 130.653 82.8468 129.768 83.1735 128.576H87.1001C87.4267 129.768 88.5046 130.653 89.7458 130.653C91.0197 130.653 92.065 129.768 92.3916 128.576H93.6655C94.2208 128.576 94.7107 128.099 94.7107 127.486V126.123C94.6454 125.51 94.2208 125.033 93.7308 124.999V122.275Z" fill="#92F1D3"/>
<path d="M108.409 112.633H115.638V143.126H108.409V112.633Z" fill="url(#paint22_linear)"/>
<path fill-rule="evenodd" clip-rule="evenodd" d="M110.819 124.236C110.819 123.891 111.099 123.611 111.444 123.611H115.014C115.359 123.611 115.639 123.891 115.639 124.236V124.815C115.639 125.161 115.359 125.44 115.014 125.44H111.444C111.099 125.44 110.819 125.161 110.819 124.815V124.236Z" fill="#C4CDD5"/>
<path d="M108.409 138.247H132.46C133.151 138.247 133.71 138.807 133.71 139.497V141.876C133.71 142.566 133.151 143.126 132.46 143.126H108.409V138.247Z" fill="url(#paint23_linear)"/>
<path d="M72.2641 150.444C76.2565 150.444 79.493 147.168 79.493 143.126C79.493 139.085 76.2565 135.808 72.2641 135.808C68.2717 135.808 65.0352 139.085 65.0352 143.126C65.0352 147.168 68.2717 150.444 72.2641 150.444Z" fill="#393939"/>
<path d="M120.457 150.444C124.45 150.444 127.686 147.168 127.686 143.126C127.686 139.085 124.45 135.808 120.457 135.808C116.465 135.808 113.229 139.085 113.229 143.126C113.229 147.168 116.465 150.444 120.457 150.444Z" fill="#393939"/>
<path d="M120.457 145.565C121.788 145.565 122.867 144.473 122.867 143.126C122.867 141.779 121.788 140.687 120.457 140.687C119.127 140.687 118.048 141.779 118.048 143.126C118.048 144.473 119.127 145.565 120.457 145.565Z" fill="#7790A3"/>
<path d="M72.2641 145.565C73.5949 145.565 74.6738 144.473 74.6738 143.126C74.6738 141.779 73.5949 140.687 72.2641 140.687C70.9333 140.687 69.8545 141.779 69.8545 143.126C69.8545 144.473 70.9333 145.565 72.2641 145.565Z" fill="#7790A3"/>
<path d="M110.819 115.713C110.819 115.023 111.379 114.463 112.069 114.463H120.911L122.868 122.391H112.069C111.379 122.391 110.819 121.832 110.819 121.141V115.713Z" fill="url(#paint24_linear)"/>
<path d="M63.8311 143.126C63.8311 138.41 67.607 134.588 72.2648 134.588C76.9226 134.588 80.6985 138.41 80.6985 143.126H79.4937C79.4937 139.084 76.2572 135.808 72.2648 135.808C68.2724 135.808 65.0359 139.084 65.0359 143.126H63.8311Z" fill="#D5DFE6"/>
<path d="M112.023 143.126C112.023 138.41 115.799 134.588 120.457 134.588C125.115 134.588 128.891 138.41 128.891 143.126H127.686C127.686 139.084 124.45 135.808 120.457 135.808C116.465 135.808 113.228 139.084 113.228 143.126H112.023Z" fill="#D5DFE6"/>
<path fill-rule="evenodd" clip-rule="evenodd" d="M113.229 122.391H122.867L120.88 114.463L115.443 114.463L113.229 122.391Z" fill="url(#paint25_linear)"/>
<path d="M81.7148 130.375L85.8663 115.666H86.8991C87.5197 115.666 88.0423 115.972 88.369 116.449C88.4016 116.483 88.4016 116.517 88.4343 116.551L89.5488 120.197L91.9332 120.401C92.9131 120.401 93.7297 121.253 93.7297 122.275V124.999C94.2197 125.033 94.6443 125.51 94.7097 126.123V127.486C94.7097 128.099 94.2197 128.576 93.6644 128.576H92.3905C92.0639 129.768 91.0186 130.653 89.7448 130.653C88.5035 130.653 87.4256 129.768 87.099 128.576H83.1724C82.9555 129.367 82.4219 130.023 81.7148 130.375H81.7148Z" fill="url(#paint26_linear)"/>
<path opacity="0.5" d="M309.814 110.919L309.814 136.364L332.247 132.316L332.247 114.967L309.814 110.919Z" fill="url(#paint27_linear)"/>
<path d="M311.246 123.767C318.919 131.647 324.304 130.406 329.9 128.437L329.9 119.098C324.304 117.128 318.919 115.888 311.246 123.767Z" fill="url(#paint28_linear)"/>
<path d="M329.9 123.767C329.9 123.767 324.68 119.098 320.573 123.767C324.689 128.437 329.9 123.767 329.9 123.767Z" fill="url(#paint29_linear)"/>
<path fill-rule="evenodd" clip-rule="evenodd" d="M378.076 106.731V138.382H329.883V106.731C329.883 105.35 331.002 104.231 332.383 104.231H375.576C376.956 104.231 378.076 105.35 378.076 106.731ZM328.724 138.382C328.033 138.382 327.474 138.942 327.474 139.632V142.011C327.474 142.701 328.033 143.261 328.724 143.261H378.076V138.382H328.724Z" fill="#1E6458"/>
<path d="M378.076 106.731C378.076 105.35 376.957 104.231 375.576 104.231H358.799L349.16 138.382H378.076V106.731Z" fill="url(#paint30_linear)"/>
<path d="M326.863 139.781C326.863 139.091 327.423 138.531 328.113 138.531H378.04V143.41H328.113C327.423 143.41 326.863 142.85 326.863 142.16V139.781Z" fill="url(#paint31_linear)"/>
<path d="M402.173 143.261H378.076V112.769L389.146 112.769C389.72 112.769 390.221 113.161 390.359 113.719L392.534 122.526L401.591 128.257C401.953 128.486 402.173 128.884 402.173 129.313V138.382C402.838 138.382 403.377 138.928 403.377 139.602V142.041C403.377 142.715 402.838 143.261 402.173 143.261Z" fill="url(#paint32_linear)"/>
<path fill-rule="evenodd" clip-rule="evenodd" d="M363.396 122.409C363.396 121.387 362.579 120.536 361.599 120.536L359.215 120.332L358.1 116.686C358.068 116.652 358.068 116.618 358.035 116.584C357.708 116.107 357.186 115.8 356.565 115.8H347.075C346.161 115.8 345.662 116.824 345.564 117.709H341.999C341.607 117.709 341.28 118.05 341.28 118.458C341.28 118.867 341.607 119.208 341.999 119.208H345.513C345.872 119.276 346.134 119.582 346.134 119.957C346.134 120.366 345.807 120.706 345.415 120.706H343.676C343.284 120.706 342.958 121.047 342.958 121.456C342.958 121.864 343.284 122.205 343.676 122.205H344.937H346.865C347.257 122.205 347.584 122.546 347.584 122.954C347.584 123.363 347.257 123.704 346.865 123.704H345.189C344.741 123.704 344.414 124.044 344.414 124.453C344.414 124.862 344.741 125.202 345.133 125.202H346.198C345.74 125.304 345.414 125.747 345.414 126.258V127.62C345.414 128.199 345.871 128.71 346.459 128.71H347.547C347.874 129.902 348.952 130.788 350.193 130.788C351.467 130.788 352.512 129.902 352.838 128.71H356.765C357.092 129.902 358.17 130.788 359.411 130.788C360.685 130.788 361.73 129.902 362.057 128.71H363.331C363.886 128.71 364.376 128.233 364.376 127.62V126.258C364.31 125.645 363.886 125.168 363.396 125.134V122.409Z" fill="#92F1D3"/>
<path d="M378.076 112.769H385.305V143.261H378.076V112.769Z" fill="url(#paint33_linear)"/>
<path fill-rule="evenodd" clip-rule="evenodd" d="M380.485 124.371C380.485 124.026 380.765 123.746 381.11 123.746H384.68C385.025 123.746 385.305 124.026 385.305 124.371V124.951C385.305 125.296 385.025 125.576 384.68 125.576H381.11C380.765 125.576 380.485 125.296 380.485 124.951V124.371Z" fill="#C4CDD5"/>
<path d="M378.076 138.382H402.127C402.818 138.382 403.377 138.942 403.377 139.632V142.011C403.377 142.701 402.818 143.261 402.127 143.261H378.076V138.382Z" fill="url(#paint34_linear)"/>
<path d="M341.932 150.579C345.924 150.579 349.161 147.303 349.161 143.261C349.161 139.219 345.924 135.943 341.932 135.943C337.94 135.943 334.703 139.219 334.703 143.261C334.703 147.303 337.94 150.579 341.932 150.579Z" fill="#393939"/>
<path d="M390.123 150.579C394.116 150.579 397.352 147.303 397.352 143.261C397.352 139.219 394.116 135.943 390.123 135.943C386.131 135.943 382.895 139.219 382.895 143.261C382.895 147.303 386.131 150.579 390.123 150.579Z" fill="#393939"/>
<path d="M390.125 145.701C391.456 145.701 392.535 144.608 392.535 143.261C392.535 141.914 391.456 140.822 390.125 140.822C388.795 140.822 387.716 141.914 387.716 143.261C387.716 144.608 388.795 145.701 390.125 145.701Z" fill="#7790A3"/>
<path d="M341.931 145.701C343.262 145.701 344.341 144.608 344.341 143.261C344.341 141.914 343.262 140.822 341.931 140.822C340.6 140.822 339.521 141.914 339.521 143.261C339.521 144.608 340.6 145.701 341.931 145.701Z" fill="#7790A3"/>
<path d="M380.485 115.848C380.485 115.158 381.045 114.598 381.735 114.598H390.577L392.534 122.526H381.735C381.045 122.526 380.485 121.967 380.485 121.276V115.848Z" fill="url(#paint35_linear)"/>
<path d="M333.498 143.261C333.498 138.545 337.274 134.723 341.932 134.723C346.59 134.723 350.366 138.545 350.366 143.261H349.161C349.161 139.219 345.924 135.942 341.932 135.942C337.939 135.942 334.703 139.219 334.703 143.261H333.498Z" fill="#D5DFE6"/>
<path d="M381.69 143.261C381.69 138.545 385.466 134.723 390.124 134.723C394.782 134.723 398.558 138.545 398.558 143.261H397.353C397.353 139.219 394.117 135.942 390.124 135.942C386.132 135.942 382.895 139.219 382.895 143.261H381.69Z" fill="#D5DFE6"/>
<path fill-rule="evenodd" clip-rule="evenodd" d="M382.896 122.526H392.534L390.547 114.598L385.11 114.598L382.896 122.526Z" fill="url(#paint36_linear)"/>
<path d="M351.382 130.51L355.533 115.8H356.566C357.187 115.8 357.709 116.107 358.036 116.584C358.069 116.618 358.069 116.652 358.101 116.686L359.216 120.332L361.6 120.536C362.58 120.536 363.397 121.387 363.397 122.409V125.134C363.887 125.168 364.311 125.645 364.377 126.258V127.62C364.377 128.233 363.887 128.71 363.331 128.71H362.058C361.731 129.902 360.686 130.788 359.412 130.788C358.171 130.788 357.093 129.902 356.766 128.71H352.839C352.623 129.502 352.089 130.158 351.382 130.51H351.382Z" fill="url(#paint37_linear)"/>
<path fill-rule="evenodd" clip-rule="evenodd" d="M86.5321 9.03406C85.5999 8.82698 84.6308 8.71777 83.6362 8.71777C76.2934 8.71777 70.3408 14.6703 70.3408 22.0132C70.3408 29.356 76.2934 35.3085 83.6362 35.3085C84.3916 35.3085 85.1324 35.2455 85.8534 35.1245C80.2435 33.4881 76.1448 28.3071 76.1448 22.1687C76.1448 15.7853 80.5772 10.4372 86.5321 9.03406Z" fill="url(#paint38_radial)"/>
<path fill-rule="evenodd" clip-rule="evenodd" d="M86.5321 9.03406C85.5999 8.82698 84.6308 8.71777 83.6362 8.71777C76.2934 8.71777 70.3408 14.6703 70.3408 22.0132C70.3408 29.356 76.2934 35.3085 83.6362 35.3085C84.3916 35.3085 85.1324 35.2455 85.8534 35.1245C80.2435 33.4881 76.1448 28.3071 76.1448 22.1687C76.1448 15.7853 80.5772 10.4372 86.5321 9.03406Z" fill="url(#paint39_linear)" fill-opacity="0.5"/>
<circle cx="75.0308" cy="16.8084" r="2.2779" fill="url(#paint40_radial)" fill-opacity="0.6"/>
<circle cx="76.127" cy="29.1431" r="1.44535" fill="url(#paint41_radial)"/>
<path d="M50.3107 0.5354L50.607 3.73138L53.803 4.02771L50.607 4.32405L50.3107 7.52003L50.0143 4.32405L46.8184 4.02771L50.0143 3.73138L50.3107 0.5354Z" fill="#FFFCE1"/>
<path d="M188.916 0L189.08 1.76414L190.844 1.92771L189.08 2.09128L188.916 3.85543L188.752 2.09128L186.988 1.92771L188.752 1.76414L188.916 0Z" fill="#FFFCE1"/>
<path d="M276.626 12.53L276.953 16.0583L280.481 16.3855L276.953 16.7126L276.626 20.2409L276.299 16.7126L272.771 16.3855L276.299 16.0583L276.626 12.53Z" fill="#FFFCE1"/>
<path d="M57.832 58.7952L58.0774 61.4414L60.7236 61.6867L58.0774 61.9321L57.832 64.5783L57.5866 61.9321L54.9404 61.6867L57.5866 61.4414L57.832 58.7952Z" fill="#FFFCE1"/>
<path d="M379.35 0.5354L379.758 4.94575L384.169 5.35468L379.758 5.76361L379.35 10.174L378.941 5.76361L374.53 5.35468L378.941 4.94575L379.35 0.5354Z" fill="#FFFCE1"/>
<path d="M397.863 39.0896L398.111 41.7695L400.791 42.018L398.111 42.2664L397.863 44.9463L397.614 42.2664L394.935 42.018L397.614 41.7695L397.863 39.0896Z" fill="#FFFCE1"/>
<rect x="128.193" y="26.0242" width="2.89157" height="2.89157" rx="1" fill="#E7EEFD"/>
<rect x="128.193" y="26.0242" width="2.89157" height="2.89157" rx="1" fill="#E7EEFD"/>
<rect x="128.193" y="26.0242" width="2.89157" height="2.89157" rx="1" fill="#E7EEFD"/>
<rect x="43.374" y="98.3135" width="2.89157" height="2.89157" rx="1" fill="#E7EEFD"/>
<rect x="43.374" y="98.3135" width="2.89157" height="2.89157" rx="1" fill="#E7EEFD"/>
<rect x="43.374" y="98.3135" width="2.89157" height="2.89157" rx="1" fill="#E7EEFD"/>
<rect x="137.832" y="26.0242" width="2.89157" height="2.89157" rx="1" fill="#E7EEFD"/>
<rect x="137.832" y="26.0242" width="2.89157" height="2.89157" rx="1" fill="#E7EEFD"/>
<rect x="137.832" y="26.0242" width="2.89157" height="2.89157" rx="1" fill="#E7EEFD"/>
<rect x="157.108" y="26.0242" width="2.89157" height="2.89157" rx="1" fill="#E7EEFD"/>
<rect x="157.108" y="26.0242" width="2.89157" height="2.89157" rx="1" fill="#E7EEFD"/>
<rect x="157.108" y="26.0242" width="2.89157" height="2.89157" rx="1" fill="#E7EEFD"/>
<rect x="137.832" y="45.3013" width="2.89157" height="2.89157" rx="1" fill="#E7EEFD"/>
<rect x="137.832" y="45.3013" width="2.89157" height="2.89157" rx="1" fill="#E7EEFD"/>
<rect x="137.832" y="45.3013" width="2.89157" height="2.89157" rx="1" fill="#E7EEFD"/>
<rect x="137.832" y="54.9397" width="2.89157" height="2.89157" rx="1" fill="#E7EEFD"/>
<rect x="137.832" y="54.9397" width="2.89157" height="2.89157" rx="1" fill="#E7EEFD"/>
<rect x="137.832" y="54.9397" width="2.89157" height="2.89157" rx="1" fill="#E7EEFD"/>
<rect x="147.47" y="64.5786" width="2.89157" height="2.89157" rx="1" fill="#E7EEFD"/>
<rect x="147.47" y="64.5786" width="2.89157" height="2.89157" rx="1" fill="#E7EEFD"/>
<rect x="147.47" y="64.5786" width="2.89157" height="2.89157" rx="1" fill="#E7EEFD"/>
<rect x="157.108" y="45.3013" width="2.89157" height="2.89157" rx="1" fill="#E7EEFD"/>
<rect x="157.108" y="45.3013" width="2.89157" height="2.89157" rx="1" fill="#E7EEFD"/>
<rect x="157.108" y="45.3013" width="2.89157" height="2.89157" rx="1" fill="#E7EEFD"/>
<rect x="53.0127" y="88.6748" width="2.89157" height="2.89157" rx="1" fill="#E7EEFD"/>
<rect x="53.0127" y="88.6748" width="2.89157" height="2.89157" rx="1" fill="#E7EEFD"/>
<rect x="53.0127" y="88.6748" width="2.89157" height="2.89157" rx="1" fill="#E7EEFD"/>
<rect x="166.746" y="35.6628" width="2.89157" height="2.89157" rx="1" fill="#E7EEFD"/>
<rect x="166.746" y="35.6628" width="2.89157" height="2.89157" rx="1" fill="#E7EEFD"/>
<rect x="166.746" y="35.6628" width="2.89157" height="2.89157" rx="1" fill="#E7EEFD"/>
<defs>
<linearGradient id="paint0_linear" x1="370.603" y1="66.5061" x2="370.603" y2="135.904" gradientUnits="userSpaceOnUse">
<stop stop-color="#001D53"/>
<stop offset="1" stop-color="#1A4379" stop-opacity="0.9"/>
</linearGradient>
<linearGradient id="paint1_linear" x1="318.554" y1="30.8435" x2="318.554" y2="135.904" gradientUnits="userSpaceOnUse">
<stop stop-color="#001D53"/>
<stop offset="1" stop-color="#1A4379" stop-opacity="0.9"/>
</linearGradient>
<linearGradient id="paint2_linear" x1="367.23" y1="93.4941" x2="367.23" y2="135.904" gradientUnits="userSpaceOnUse">
<stop stop-color="#001D53"/>
<stop offset="1" stop-color="#1A4379" stop-opacity="0.9"/>
</linearGradient>
<linearGradient id="paint3_linear" x1="152.772" y1="21.2048" x2="152.772" y2="134.94" gradientUnits="userSpaceOnUse">
<stop stop-color="#001D53"/>
<stop offset="1" stop-color="#1A4379" stop-opacity="0.9"/>
</linearGradient>
<linearGradient id="paint4_linear" x1="106.987" y1="81.928" x2="106.987" y2="135.904" gradientUnits="userSpaceOnUse">
<stop stop-color="#001D53"/>
<stop offset="1" stop-color="#1A4379" stop-opacity="0.9"/>
</linearGradient>
<linearGradient id="paint5_linear" x1="239.999" y1="53.9761" x2="239.999" y2="135.904" gradientUnits="userSpaceOnUse">
<stop stop-color="#001D53"/>
<stop offset="1" stop-color="#1A4379" stop-opacity="0.9"/>
</linearGradient>
<linearGradient id="paint6_linear" x1="112.29" y1="66.5061" x2="112.29" y2="135.904" gradientUnits="userSpaceOnUse">
<stop stop-color="#001D53"/>
<stop offset="1" stop-color="#1A4379" stop-opacity="0.9"/>
</linearGradient>
<linearGradient id="paint7_linear" x1="234.576" y1="135.903" x2="234.576" y2="160" gradientUnits="userSpaceOnUse">
<stop stop-color="#5A7385"/>
<stop offset="1" stop-color="#626262" stop-opacity="0.58"/>
</linearGradient>
<linearGradient id="paint8_linear" x1="173.737" y1="30.8435" x2="173.737" y2="92.2893" gradientUnits="userSpaceOnUse">
<stop stop-color="#ACD8CA"/>
<stop offset="1" stop-color="#2EE3AA" stop-opacity="0"/>
</linearGradient>
<linearGradient id="paint9_linear" x1="158.234" y1="137.877" x2="175.492" y2="155.135" gradientUnits="userSpaceOnUse">
<stop stop-color="#47A980"/>
<stop offset="1" stop-color="#3EA795"/>
</linearGradient>
<linearGradient id="paint10_linear" x1="178.945" y1="132.7" x2="206.313" y2="156.647" gradientUnits="userSpaceOnUse">
<stop stop-color="#FFE557"/>
<stop offset="1" stop-color="#FFC72C"/>
</linearGradient>
<linearGradient id="paint11_linear" x1="318.822" y1="99.1695" x2="318.822" y2="16.3855" gradientUnits="userSpaceOnUse">
<stop stop-color="#427E74"/>
<stop offset="1" stop-color="#1E6458"/>
</linearGradient>
<linearGradient id="paint12_linear" x1="279.76" y1="139.277" x2="265.881" y2="120.771" gradientUnits="userSpaceOnUse">
<stop stop-color="#729B71"/>
<stop offset="1" stop-color="#9BFCB1"/>
</linearGradient>
<linearGradient id="paint13_linear" x1="271.93" y1="139.277" x2="265.126" y2="137.576" gradientUnits="userSpaceOnUse">
<stop stop-color="#166C51"/>
<stop offset="1" stop-color="#6DBFA5"/>
</linearGradient>
<linearGradient id="paint14_linear" x1="169.699" y1="141.01" x2="160.143" y2="129.904" gradientUnits="userSpaceOnUse">
<stop stop-color="#1ACC94"/>
<stop offset="1" stop-color="#1AB483"/>
</linearGradient>
<linearGradient id="paint15_linear" x1="288.195" y1="141.687" x2="278.792" y2="129.933" gradientUnits="userSpaceOnUse">
<stop stop-color="#9DC69C"/>
<stop offset="1" stop-color="#7FE295"/>
</linearGradient>
<linearGradient id="paint16_linear" x1="62.5791" y1="136.229" x2="40.1458" y2="136.229" gradientUnits="userSpaceOnUse">
<stop stop-color="white"/>
<stop offset="1" stop-color="#EEF2F5" stop-opacity="0"/>
</linearGradient>
<linearGradient id="paint17_linear" x1="60.2324" y1="129.779" x2="41.5784" y2="129.779" gradientUnits="userSpaceOnUse">
<stop stop-color="#FFF280"/>
<stop offset="1" stop-color="#FFE380"/>
</linearGradient>
<linearGradient id="paint18_linear" x1="50.9054" y1="121.297" x2="60.2324" y2="121.297" gradientUnits="userSpaceOnUse">
<stop stop-color="#F7A14D"/>
<stop offset="1" stop-color="#F0B616"/>
</linearGradient>
<linearGradient id="paint19_linear" x1="93.9513" y1="138.247" x2="93.9513" y2="104.096" gradientUnits="userSpaceOnUse">
<stop stop-color="#1E6458"/>
<stop offset="1" stop-color="#1ACC94"/>
</linearGradient>
<linearGradient id="paint20_linear" x1="133.963" y1="140.835" x2="133.041" y2="131.166" gradientUnits="userSpaceOnUse">
<stop stop-color="#318562"/>
<stop offset="1" stop-color="#1ACC94"/>
</linearGradient>
<linearGradient id="paint21_linear" x1="108.409" y1="112.633" x2="108.409" y2="143.126" gradientUnits="userSpaceOnUse">
<stop stop-color="#F8FAFB"/>
<stop offset="1" stop-color="#EEF2F5"/>
</linearGradient>
<linearGradient id="paint22_linear" x1="112.024" y1="158.372" x2="125.712" y2="155.127" gradientUnits="userSpaceOnUse">
<stop stop-color="#EEF2F5"/>
<stop offset="1" stop-color="#F8FAFB"/>
</linearGradient>
<linearGradient id="paint23_linear" x1="108.409" y1="140.686" x2="133.71" y2="140.686" gradientUnits="userSpaceOnUse">
<stop stop-color="#D5DFE6"/>
<stop offset="1" stop-color="#7790A3" stop-opacity="0.28"/>
</linearGradient>
<linearGradient id="paint24_linear" x1="104.795" y1="118.427" x2="112.076" y2="129.492" gradientUnits="userSpaceOnUse">
<stop stop-color="#4A5F6E"/>
<stop offset="1" stop-color="#4A5F6E"/>
</linearGradient>
<linearGradient id="paint25_linear" x1="113.169" y1="120.23" x2="112.487" y2="114.835" gradientUnits="userSpaceOnUse">
<stop stop-color="#5A7385"/>
<stop offset="1" stop-color="#D5DFE6"/>
</linearGradient>
<linearGradient id="paint26_linear" x1="88.2122" y1="130.653" x2="88.2122" y2="115.666" gradientUnits="userSpaceOnUse">
<stop stop-color="#2EE3AA"/>
<stop offset="1" stop-color="#92F1D3"/>
</linearGradient>
<linearGradient id="paint27_linear" x1="332.247" y1="136.364" x2="309.814" y2="136.364" gradientUnits="userSpaceOnUse">
<stop stop-color="white"/>
<stop offset="1" stop-color="#EEF2F5" stop-opacity="0"/>
</linearGradient>
<linearGradient id="paint28_linear" x1="329.9" y1="129.914" x2="311.246" y2="129.914" gradientUnits="userSpaceOnUse">
<stop stop-color="#FFF280"/>
<stop offset="1" stop-color="#FFE380"/>
</linearGradient>
<linearGradient id="paint29_linear" x1="320.573" y1="121.433" x2="329.9" y2="121.433" gradientUnits="userSpaceOnUse">
<stop stop-color="#F7A14D"/>
<stop offset="1" stop-color="#F0B616"/>
</linearGradient>
<linearGradient id="paint30_linear" x1="363.618" y1="138.382" x2="363.618" y2="104.231" gradientUnits="userSpaceOnUse">
<stop stop-color="#1E6458"/>
<stop offset="1" stop-color="#1ACC94"/>
</linearGradient>
<linearGradient id="paint31_linear" x1="403.629" y1="140.971" x2="402.707" y2="131.301" gradientUnits="userSpaceOnUse">
<stop stop-color="#318562"/>
<stop offset="1" stop-color="#1ACC94"/>
</linearGradient>
<linearGradient id="paint32_linear" x1="378.076" y1="112.769" x2="378.076" y2="143.261" gradientUnits="userSpaceOnUse">
<stop stop-color="#F8FAFB"/>
<stop offset="1" stop-color="#EEF2F5"/>
</linearGradient>
<linearGradient id="paint33_linear" x1="381.691" y1="158.507" x2="395.379" y2="155.262" gradientUnits="userSpaceOnUse">
<stop stop-color="#EEF2F5"/>
<stop offset="1" stop-color="#F8FAFB"/>
</linearGradient>
<linearGradient id="paint34_linear" x1="378.076" y1="140.822" x2="403.377" y2="140.822" gradientUnits="userSpaceOnUse">
<stop stop-color="#D5DFE6"/>
<stop offset="1" stop-color="#7790A3" stop-opacity="0.28"/>
</linearGradient>
<linearGradient id="paint35_linear" x1="374.461" y1="118.562" x2="381.742" y2="129.627" gradientUnits="userSpaceOnUse">
<stop stop-color="#4A5F6E"/>
<stop offset="1" stop-color="#4A5F6E"/>
</linearGradient>
<linearGradient id="paint36_linear" x1="382.836" y1="120.365" x2="382.154" y2="114.969" gradientUnits="userSpaceOnUse">
<stop stop-color="#5A7385"/>
<stop offset="1" stop-color="#D5DFE6"/>
</linearGradient>
<linearGradient id="paint37_linear" x1="357.879" y1="130.788" x2="357.879" y2="115.8" gradientUnits="userSpaceOnUse">
<stop stop-color="#2EE3AA"/>
<stop offset="1" stop-color="#92F1D3"/>
</linearGradient>
<radialGradient id="paint38_radial" cx="0" cy="0" r="1" gradientUnits="userSpaceOnUse" gradientTransform="translate(83.6365 22.0132) rotate(90) scale(13.2954 13.2956)">
<stop stop-color="white"/>
<stop offset="1" stop-color="white" stop-opacity="0.7"/>
</radialGradient>
<linearGradient id="paint39_linear" x1="76.321" y1="10.5562" x2="83.6362" y2="35.3086" gradientUnits="userSpaceOnUse">
<stop stop-color="#EAE5BE"/>
<stop offset="1" stop-color="white" stop-opacity="0"/>
</linearGradient>
<radialGradient id="paint40_radial" cx="0" cy="0" r="1" gradientUnits="userSpaceOnUse" gradientTransform="translate(75.0308 16.8084) rotate(90) scale(2.2779)">
<stop stop-color="#BCC5CC"/>
<stop offset="1" stop-color="#D5DFE6" stop-opacity="0"/>
</radialGradient>
<radialGradient id="paint41_radial" cx="0" cy="0" r="1" gradientUnits="userSpaceOnUse" gradientTransform="translate(76.127 29.1431) rotate(90) scale(1.44535)">
<stop stop-color="#BABABA"/>
<stop offset="1" stop-color="#D5DFE6" stop-opacity="0"/>
</radialGradient>
</defs>
</svg>
