<svg width="446" height="185" viewBox="0 0 446 185" fill="none" xmlns="http://www.w3.org/2000/svg">
<path d="M118.215 76.9104L22.1348 183.782H226.194L130.114 76.9104C126.935 73.3751 121.394 73.3751 118.215 76.9104Z" fill="url(#paint0_linear)"/>
<path d="M288.25 19.6009L155.963 183.782H445.93L300.472 19.3202C297.19 15.6093 291.358 15.7433 288.25 19.6009Z" fill="url(#paint1_linear)"/>
<path d="M224.234 46.8064L103.47 183.782H357L236.236 46.8064C233.051 43.1938 227.419 43.1938 224.234 46.8064Z" fill="url(#paint2_linear)"/>
<path d="M143.703 51.7031L122 30" stroke="#5A7385" stroke-width="2" stroke-miterlimit="6.33314" stroke-linecap="round"/>
<rect x="99.8848" y="53.3525" width="31.1431" height="19.2989" transform="rotate(-45 99.8848 53.3525)" fill="url(#paint3_linear)"/>
<path d="M111.969 58.9629C112.978 59.0053 114.013 58.615 114.998 57.6307C116.364 56.2646 116.508 54.61 115.312 53.4135C114.166 52.268 112.622 52.4377 111.663 53.3966C111.145 53.9142 110.899 54.5845 110.865 55.1445L109.448 53.7275L112.155 51.0207L111.12 49.9855L107.234 53.8717L110.467 57.1046L111.536 56.4937C111.553 55.8319 111.79 55.3058 112.257 54.8391C112.902 54.1942 113.623 54.1687 114.141 54.6863C114.607 55.153 114.607 55.9167 113.937 56.587C113.343 57.181 112.605 57.495 111.816 57.4865L111.969 58.9629Z" fill="white"/>
<path d="M114.925 51.8489C116.384 53.3083 118.573 54.055 120.194 52.4344C121.806 50.8222 121.068 48.6245 119.609 47.165C118.149 45.7055 115.96 44.9758 114.348 46.588C112.727 48.2087 113.465 50.3894 114.925 51.8489ZM118.378 48.3954C119.422 49.4391 119.931 50.5591 119.125 51.3652C118.31 52.1798 117.19 51.6707 116.147 50.627C115.103 49.5833 114.602 48.4717 115.417 47.6571C116.223 46.851 117.335 47.3517 118.378 48.3954Z" fill="white"/>
<path d="M118.625 45.1615C119.415 45.9506 120.585 45.9845 121.451 45.119C122.325 44.2451 122.291 43.0741 121.502 42.285C120.704 41.4873 119.508 41.428 118.634 42.3019C117.768 43.1674 117.828 44.3639 118.625 45.1615ZM123.827 48.598L124.463 47.9616L122.427 38.6787L121.782 39.3236L123.827 48.598ZM120.73 43.0571C121.171 43.4984 121.179 44.0669 120.789 44.4572C120.407 44.839 119.83 44.839 119.389 44.3978C118.914 43.9226 118.922 43.3541 119.304 42.9723C119.695 42.5819 120.255 42.582 120.73 43.0571ZM124.76 45.0681C125.549 45.8573 126.729 45.8997 127.594 45.0342C128.46 44.1687 128.426 42.9808 127.637 42.1916C126.839 41.394 125.634 41.3431 124.769 42.2086C123.903 43.0741 123.963 44.2705 124.76 45.0681ZM126.873 42.9553C127.331 43.4135 127.323 43.982 126.932 44.3723C126.542 44.7627 125.982 44.7627 125.524 44.3045C125.057 43.8378 125.049 43.2693 125.439 42.8789C125.829 42.4886 126.406 42.4886 126.873 42.9553Z" fill="white"/>
<mask id="mask0" mask-type="alpha" maskUnits="userSpaceOnUse" x="129" y="1" width="84" height="184">
<rect x="129.974" y="1.76855" width="82.8833" height="182.676" fill="white"/>
</mask>
<g mask="url(#mask0)">
<path d="M198.079 183.769H145.079L153.511 140.769H189.647L198.079 183.769Z" fill="url(#paint4_linear)"/>
<path d="M171.579 172.791C156.392 158.003 158.782 147.623 162.579 136.836L180.579 136.836C184.376 147.623 186.767 158.003 171.579 172.791Z" fill="url(#paint5_linear)"/>
<path d="M171.579 136.836C171.579 136.836 180.579 146.897 171.579 154.814C162.579 146.88 171.579 136.836 171.579 136.836Z" fill="url(#paint6_linear)"/>
<path fill-rule="evenodd" clip-rule="evenodd" d="M131.079 110.264L149.079 87.3979V118.859L131.079 132.342V110.264ZM212.079 110.264L194.079 87.3979V118.859L212.079 132.342V110.264Z" fill="#1ACC94"/>
<path d="M198.561 42.4541C206.296 61.7281 197.466 110.758 194.796 124.323C194.387 126.402 192.566 127.847 190.447 127.847H152.712C150.593 127.847 148.772 126.402 148.363 124.323C145.693 110.758 136.86 61.7281 144.579 42.4541C158.935 42.4541 180.579 42.4541 198.561 42.4541Z" fill="white"/>
<path d="M144.579 42.4541C153.549 42.4541 171.579 42.4541 171.579 42.4541V127.847H152.712C150.593 127.847 148.772 126.402 148.363 124.323C145.693 110.758 136.86 61.7281 144.579 42.4541Z" fill="#EEF2F5"/>
<path d="M153.579 127.851L149.079 141.331H194.079L189.579 127.847L153.579 127.851Z" fill="#1ACC94"/>
<path d="M182.832 64.926C182.832 71.1288 177.797 76.162 171.579 76.162C165.362 76.162 160.326 71.1288 160.326 64.926C160.326 58.7232 165.362 53.6901 171.579 53.6901C177.797 53.6901 182.832 58.7232 182.832 64.926Z" fill="#8BDCFB" stroke="url(#paint7_linear)" stroke-width="4.49438"/>
<path d="M171.579 2.00464C162.592 2.00464 149.079 33.459 144.579 42.4541C144.579 42.4541 162.447 42.4541 171.579 42.4541C180.447 42.4541 198.579 42.4541 198.579 42.4541C194.079 33.459 180.579 2.00464 171.579 2.00464Z" fill="url(#paint8_linear)"/>
</g>
<path fill-rule="evenodd" clip-rule="evenodd" d="M171.588 79.0505C179.644 79.0505 186.174 72.7825 186.174 65.0505C186.174 57.3186 179.644 51.0505 171.588 51.0505C163.532 51.0505 157.002 57.3186 157.002 65.0505C157.002 72.7825 163.532 79.0505 171.588 79.0505Z" fill="#1E6458"/>
<mask id="mask1" mask-type="alpha" maskUnits="userSpaceOnUse" x="157" y="51" width="30" height="29">
<path fill-rule="evenodd" clip-rule="evenodd" d="M171.588 79.0505C179.644 79.0505 186.174 72.7825 186.174 65.0505C186.174 57.3186 179.644 51.0505 171.588 51.0505C163.532 51.0505 157.002 57.3186 157.002 65.0505C157.002 72.7825 163.532 79.0505 171.588 79.0505Z" fill="white"/>
</mask>
<g mask="url(#mask1)">
<path fill-rule="evenodd" clip-rule="evenodd" d="M176.921 44.0505L185.172 51.9701L174.504 56.6505L171.587 53.8505L176.921 44.0505Z" fill="#EEF2F5"/>
</g>
<mask id="mask2" mask-type="alpha" maskUnits="userSpaceOnUse" x="157" y="51" width="30" height="29">
<path fill-rule="evenodd" clip-rule="evenodd" d="M171.588 79.0505C179.644 79.0505 186.174 72.7825 186.174 65.0505C186.174 57.3186 179.644 51.0505 171.588 51.0505C163.532 51.0505 157.002 57.3186 157.002 65.0505C157.002 72.7825 163.532 79.0505 171.588 79.0505Z" fill="white"/>
</mask>
<g mask="url(#mask2)">
<path fill-rule="evenodd" clip-rule="evenodd" d="M182.793 49.6858L184.716 51.531V52.171L174.506 56.6506L174.05 56.2131L182.793 49.6858Z" fill="#EEF2F5"/>
</g>
<mask id="mask3" mask-type="alpha" maskUnits="userSpaceOnUse" x="157" y="51" width="30" height="29">
<path fill-rule="evenodd" clip-rule="evenodd" d="M171.588 79.0505C179.644 79.0505 186.174 72.7825 186.174 65.0505C186.174 57.3186 179.644 51.0505 171.588 51.0505C163.532 51.0505 157.002 57.3186 157.002 65.0505C157.002 72.7825 163.532 79.0505 171.588 79.0505Z" fill="white"/>
</mask>
<g mask="url(#mask3)">
<path d="M167.941 65.0505L173.047 55.2505" stroke="#2EE3AA" stroke-width="1.5" stroke-linecap="round" stroke-linejoin="round"/>
</g>
<mask id="mask4" mask-type="alpha" maskUnits="userSpaceOnUse" x="157" y="51" width="30" height="29">
<path fill-rule="evenodd" clip-rule="evenodd" d="M171.588 79.0505C179.644 79.0505 186.174 72.7825 186.174 65.0505C186.174 57.3186 179.644 51.0505 171.588 51.0505C163.532 51.0505 157.002 57.3186 157.002 65.0505C157.002 72.7825 163.532 79.0505 171.588 79.0505Z" fill="white"/>
</mask>
<g mask="url(#mask4)">
<path d="M161.378 65.0505L173.047 55.2505" stroke="white" stroke-width="1.5" stroke-linecap="round" stroke-linejoin="round"/>
</g>
<mask id="mask5" mask-type="alpha" maskUnits="userSpaceOnUse" x="157" y="51" width="30" height="29">
<path fill-rule="evenodd" clip-rule="evenodd" d="M171.588 79.0505C179.644 79.0505 186.174 72.7825 186.174 65.0505C186.174 57.3186 179.644 51.0505 171.588 51.0505C163.532 51.0505 157.002 57.3186 157.002 65.0505C157.002 72.7825 163.532 79.0505 171.588 79.0505Z" fill="white"/>
</mask>
<g mask="url(#mask5)">
<path d="M173.046 55.2505L175.963 66.4505" stroke="#2EE3AA" stroke-width="1.5" stroke-linecap="round" stroke-linejoin="round"/>
</g>
<mask id="mask6" mask-type="alpha" maskUnits="userSpaceOnUse" x="157" y="51" width="30" height="29">
<path fill-rule="evenodd" clip-rule="evenodd" d="M171.588 79.0505C179.644 79.0505 186.174 72.7825 186.174 65.0505C186.174 57.3186 179.644 51.0505 171.588 51.0505C163.532 51.0505 157.002 57.3186 157.002 65.0505C157.002 72.7825 163.532 79.0505 171.588 79.0505Z" fill="white"/>
</mask>
<g mask="url(#mask6)">
<path d="M173.046 55.2505L181.798 67.8505" stroke="white" stroke-width="1.5" stroke-linecap="round" stroke-linejoin="round"/>
</g>
<mask id="mask7" mask-type="alpha" maskUnits="userSpaceOnUse" x="157" y="51" width="30" height="29">
<path fill-rule="evenodd" clip-rule="evenodd" d="M171.588 79.0505C179.644 79.0505 186.174 72.7825 186.174 65.0505C186.174 57.3186 179.644 51.0505 171.588 51.0505C163.532 51.0505 157.002 57.3186 157.002 65.0505C157.002 72.7825 163.532 79.0505 171.588 79.0505Z" fill="white"/>
</mask>
<g mask="url(#mask7)">
<path fill-rule="evenodd" clip-rule="evenodd" d="M165.753 63.6504L181.98 67.5442C182.705 67.7182 183.176 68.3901 183.07 69.1003L182.013 76.2029C181.899 76.9683 181.16 77.5002 180.363 77.3908C180.342 77.388 180.321 77.3847 180.3 77.3809L159.865 73.7032C159.084 73.5628 158.564 72.8489 158.695 72.0971L159.761 65.9558C159.857 65.406 160.283 64.9629 160.846 64.8278L165.753 63.6504Z" fill="#2EE3AA"/>
</g>
<mask id="mask8" mask-type="alpha" maskUnits="userSpaceOnUse" x="157" y="51" width="30" height="29">
<path fill-rule="evenodd" clip-rule="evenodd" d="M171.588 79.0505C179.644 79.0505 186.174 72.7825 186.174 65.0505C186.174 57.3186 179.644 51.0505 171.588 51.0505C163.532 51.0505 157.002 57.3186 157.002 65.0505C157.002 72.7825 163.532 79.0505 171.588 79.0505Z" fill="white"/>
</mask>
<g mask="url(#mask8)">
<path fill-rule="evenodd" clip-rule="evenodd" d="M177.831 70.5213C177.606 70.4794 177.362 70.6136 177.288 70.8193L176.741 72.3523C176.681 72.5192 176.564 72.6519 176.39 72.7504C176.216 72.8489 176.036 72.8808 175.851 72.8462C175.671 72.8126 175.537 72.7235 175.45 72.5789C175.363 72.4343 175.351 72.2763 175.412 72.1044L175.744 71.174C175.787 70.9839 175.666 70.8064 175.457 70.7675L174.911 70.6657C174.703 70.6268 174.478 70.7397 174.388 70.921L174.052 71.8506C173.99 72.0225 173.873 72.1563 173.7 72.2523C173.527 72.3484 173.35 72.3796 173.17 72.346C172.99 72.3123 172.855 72.2218 172.767 72.0743C172.678 71.9269 172.664 71.7697 172.723 71.6027L173.452 69.5692C173.526 69.3718 173.442 69.1353 173.265 69.0127C173.265 69.0127 171.147 67.6746 171.009 67.5882C170.869 67.501 170.67 67.6009 170.567 67.8101L170.32 68.3098C170.216 68.519 170.298 68.7942 170.502 68.9212L171.922 69.8138L171.371 71.3504C171.186 71.8657 171.226 72.3434 171.49 72.7828C171.754 73.2224 172.164 73.4939 172.721 73.5979C173.235 73.6938 173.738 73.6175 174.229 73.3685C174.502 73.76 174.893 74.0031 175.402 74.0981C175.959 74.202 176.501 74.108 177.027 73.8158C177.553 73.524 177.909 73.1199 178.094 72.6046C178.094 72.6046 178.673 70.9827 178.683 70.9543C178.734 70.813 178.592 70.6633 178.367 70.6214L177.831 70.5213Z" fill="white"/>
</g>
<mask id="mask9" mask-type="alpha" maskUnits="userSpaceOnUse" x="157" y="51" width="30" height="29">
<path fill-rule="evenodd" clip-rule="evenodd" d="M171.588 79.0505C179.644 79.0505 186.174 72.7825 186.174 65.0505C186.174 57.3186 179.644 51.0505 171.588 51.0505C163.532 51.0505 157.002 57.3186 157.002 65.0505C157.002 72.7825 163.532 79.0505 171.588 79.0505Z" fill="white"/>
</mask>
<g mask="url(#mask9)">
<path d="M172.317 58.0506C173.525 58.0506 174.505 57.1104 174.505 55.9506C174.505 54.7908 173.525 53.8506 172.317 53.8506C171.108 53.8506 170.129 54.7908 170.129 55.9506C170.129 57.1104 171.108 58.0506 172.317 58.0506Z" fill="#EEF2F5"/>
<path d="M172.317 56.6505C172.72 56.6505 173.046 56.3371 173.046 55.9505C173.046 55.5639 172.72 55.2505 172.317 55.2505C171.914 55.2505 171.588 55.5639 171.588 55.9505C171.588 56.3371 171.914 56.6505 172.317 56.6505Z" fill="#1E6458"/>
</g>
<mask id="mask10" mask-type="alpha" maskUnits="userSpaceOnUse" x="157" y="51" width="30" height="29">
<path fill-rule="evenodd" clip-rule="evenodd" d="M171.588 79.0505C179.644 79.0505 186.174 72.7825 186.174 65.0505C186.174 57.3186 179.644 51.0505 171.588 51.0505C163.532 51.0505 157.002 57.3186 157.002 65.0505C157.002 72.7825 163.532 79.0505 171.588 79.0505Z" fill="white"/>
</mask>
<g mask="url(#mask10)">
<path d="M166.067 63.6505L167.504 63.8936L165.731 73.5447L164.294 73.3016L166.067 63.6505Z" fill="white" fill-opacity="0.01"/>
</g>
<mask id="mask11" mask-type="alpha" maskUnits="userSpaceOnUse" x="157" y="51" width="30" height="29">
<path fill-rule="evenodd" clip-rule="evenodd" d="M171.588 79.0505C179.644 79.0505 186.174 72.7825 186.174 65.0505C186.174 57.3186 179.644 51.0505 171.588 51.0505C163.532 51.0505 157.002 57.3186 157.002 65.0505C157.002 72.7825 163.532 79.0505 171.588 79.0505Z" fill="white"/>
</mask>
<g mask="url(#mask11)">
<path d="M158.695 72.0948L159.761 65.9558C159.857 65.406 160.283 64.9629 160.846 64.8277L165.753 63.6503L164.211 74.4761L159.868 73.7014C159.086 73.562 158.565 72.8475 158.695 72.0948Z" fill="#EEF2F5"/>
</g>
<path opacity="0.5" d="M97.9571 142.635L97.9571 169.034L74.6826 164.834L74.6826 146.835L97.9571 142.635Z" fill="url(#paint9_linear)"/>
<path d="M96.4708 155.965C88.5105 164.14 82.9233 162.853 77.1172 160.809L77.1172 151.121C82.9233 149.077 88.5105 147.79 96.4708 155.965Z" fill="url(#paint10_linear)"/>
<path d="M77.1172 155.965C77.1172 155.965 82.5329 151.12 86.794 155.965C82.5237 160.809 77.1172 155.965 77.1172 155.965Z" fill="url(#paint11_linear)"/>
<path fill-rule="evenodd" clip-rule="evenodd" d="M27.1348 138.196V171.128V176.19H78.3848C79.0751 176.19 79.6348 175.63 79.6348 174.94V172.378C79.6348 171.688 79.0751 171.128 78.3848 171.128H77.1348V138.196C77.1348 136.815 76.0155 135.696 74.6348 135.696L29.6348 135.696C28.2541 135.696 27.1348 136.815 27.1348 138.196Z" fill="#1E6458"/>
<path d="M27.1348 138.196C27.1348 136.815 28.2541 135.696 29.6348 135.696H47.1348L57.1348 171.128H27.1348V138.196Z" fill="url(#paint12_linear)"/>
<path d="M80.2676 172.532C80.2676 171.842 79.7079 171.282 79.0176 171.282H27.1715V176.344H79.0176C79.7079 176.344 80.2676 175.785 80.2676 175.094V172.532Z" fill="url(#paint13_linear)"/>
<path d="M2.13477 176.19H27.1348V144.554L15.6136 144.554C15.0387 144.554 14.5379 144.946 14.4001 145.504L12.1348 154.677L2.71642 160.637C2.35428 160.866 2.13477 161.264 2.13477 161.693V171.128C1.44441 171.128 0.884766 171.695 0.884766 172.393V174.924C0.884766 175.623 1.44441 176.19 2.13477 176.19Z" fill="url(#paint14_linear)"/>
<path fill-rule="evenodd" clip-rule="evenodd" d="M42.3647 154.556C42.3647 153.496 43.2119 152.613 44.2286 152.613L46.7024 152.401L47.8587 148.618C47.8926 148.583 47.8926 148.548 47.9265 148.512C48.2654 148.017 48.8076 147.699 49.4515 147.699H59.2972C60.2461 147.699 60.7639 148.761 60.8656 149.68H64.564C64.9707 149.68 65.3096 150.033 65.3096 150.457C65.3096 150.881 64.9707 151.235 64.564 151.235H60.918C60.5453 151.305 60.2742 151.623 60.2742 152.012C60.2742 152.436 60.613 152.789 61.0197 152.789H62.8236C63.2303 152.789 63.5692 153.143 63.5692 153.567C63.5692 153.991 63.2303 154.344 62.8236 154.344H61.516H59.5154C59.1088 154.344 58.7699 154.698 58.7699 155.122C58.7699 155.546 59.1088 155.899 59.5154 155.899H61.2544C61.7191 155.899 62.058 156.252 62.058 156.676C62.058 157.101 61.7191 157.454 61.3124 157.454H60.2079C60.6824 157.56 61.0213 158.019 61.0213 158.549V159.963C61.0213 160.564 60.5468 161.094 59.9368 161.094H58.8079C58.469 162.33 57.3507 163.249 56.0629 163.249C54.7412 163.249 53.6568 162.33 53.3179 161.094H49.2441C48.9052 162.33 47.7869 163.249 46.4991 163.249C45.1774 163.249 44.093 162.33 43.7541 161.094H42.4325C41.8564 161.094 41.348 160.599 41.348 159.963V158.549C41.4158 157.913 41.8564 157.419 42.3647 157.383V154.556Z" fill="#92F1D3"/>
<path d="M27.1348 144.554H19.6348V176.19H27.1348V144.554Z" fill="url(#paint15_linear)"/>
<path fill-rule="evenodd" clip-rule="evenodd" d="M24.6348 156.568C24.6348 156.222 24.3549 155.943 24.0098 155.943H20.2598C19.9146 155.943 19.6348 156.222 19.6348 156.568V157.216C19.6348 157.561 19.9146 157.841 20.2598 157.841H24.0098C24.3549 157.841 24.6348 157.561 24.6348 157.216V156.568Z" fill="#C4CDD5"/>
<path d="M27.1348 171.128H2.13477C1.44441 171.128 0.884766 171.688 0.884766 172.378V174.94C0.884766 175.63 1.44441 176.19 2.13477 176.19H27.1348V171.128Z" fill="url(#paint16_linear)"/>
<path d="M64.6348 183.782C60.4926 183.782 57.1348 180.383 57.1348 176.19C57.1348 171.996 60.4926 168.597 64.6348 168.597C68.7769 168.597 72.1348 171.996 72.1348 176.19C72.1348 180.383 68.7769 183.782 64.6348 183.782Z" fill="#393939"/>
<path d="M14.6348 183.782C10.4926 183.782 7.13477 180.383 7.13477 176.19C7.13477 171.996 10.4926 168.597 14.6348 168.597C18.7769 168.597 22.1348 171.996 22.1348 176.19C22.1348 180.383 18.7769 183.782 14.6348 183.782Z" fill="#393939"/>
<path d="M14.6348 178.721C13.2541 178.721 12.1348 177.588 12.1348 176.19C12.1348 174.792 13.2541 173.659 14.6348 173.659C16.0155 173.659 17.1348 174.792 17.1348 176.19C17.1348 177.588 16.0155 178.721 14.6348 178.721Z" fill="#7790A3"/>
<path d="M64.6348 178.721C63.2541 178.721 62.1348 177.588 62.1348 176.19C62.1348 174.792 63.2541 173.659 64.6348 173.659C66.0155 173.659 67.1348 174.792 67.1348 176.19C67.1348 177.588 66.0155 178.721 64.6348 178.721Z" fill="#7790A3"/>
<path d="M24.6348 147.702C24.6348 147.012 24.0751 146.452 23.3848 146.452H14.1648L12.1348 154.677H23.3848C24.0751 154.677 24.6348 154.118 24.6348 153.427V147.702Z" fill="url(#paint17_linear)"/>
<path d="M73.3848 176.344C73.3848 171.452 69.4673 167.486 64.6348 167.486C59.8023 167.486 55.8848 171.452 55.8848 176.344H57.1348C57.1348 172.151 60.4926 168.752 64.6348 168.752C68.7769 168.752 72.1348 172.151 72.1348 176.344H73.3848Z" fill="#D5DFE6"/>
<path d="M23.3848 176.19C23.3848 171.297 19.4673 167.332 14.6348 167.332C9.80227 167.332 5.88477 171.297 5.88477 176.19H7.13477C7.13477 171.996 10.4926 168.597 14.6348 168.597C18.7769 168.597 22.1348 171.996 22.1348 176.19H23.3848Z" fill="#D5DFE6"/>
<path fill-rule="evenodd" clip-rule="evenodd" d="M22.1348 154.677H12.1348L14.1963 146.452L19.8376 146.452L22.1348 154.677Z" fill="url(#paint18_linear)"/>
<path d="M54.8301 162.961L50.5229 147.699H49.4514C48.8075 147.699 48.2653 148.017 47.9264 148.512C47.8925 148.548 47.8925 148.583 47.8586 148.618L46.7024 152.401L44.2285 152.613C43.2119 152.613 42.3646 153.496 42.3646 154.556V157.383C41.8563 157.419 41.4158 157.913 41.348 158.549V159.963C41.348 160.599 41.8563 161.094 42.4324 161.094H43.7541C44.093 162.33 45.1774 163.249 46.499 163.249C47.7868 163.249 48.9051 162.33 49.244 161.094H53.3179C53.5429 161.915 54.0965 162.596 54.8301 162.961H54.8301Z" fill="url(#paint19_linear)"/>
<path fill-rule="evenodd" clip-rule="evenodd" d="M314.803 138.196V171.128V176.19H263.553C262.862 176.19 262.303 175.63 262.303 174.94V172.378C262.303 171.688 262.862 171.128 263.553 171.128H264.803V138.196C264.803 136.815 265.922 135.696 267.303 135.696H312.303C313.683 135.696 314.803 136.815 314.803 138.196Z" fill="#1E6458"/>
<path opacity="0.5" d="M243.682 168.034V141.635L266.956 145.835V163.834L243.682 168.034Z" fill="url(#paint20_linear)"/>
<path d="M245.603 154.835C253.564 163.01 259.151 161.723 264.957 159.679L264.957 149.99C259.151 147.946 253.564 146.66 245.603 154.835Z" fill="url(#paint21_linear)"/>
<path d="M264.956 154.834C264.956 154.834 259.54 149.99 255.279 154.834C259.55 159.679 264.956 154.834 264.956 154.834Z" fill="url(#paint22_linear)"/>
<path d="M264.805 138.2C264.805 136.82 265.924 135.7 267.305 135.7H282.523L291.383 171.133H264.805V138.2Z" fill="url(#paint23_linear)"/>
<path d="M261.671 172.532C261.671 171.842 262.231 171.282 262.921 171.282H314.767V176.344H262.921C262.231 176.344 261.671 175.785 261.671 175.094V172.532Z" fill="url(#paint24_linear)"/>
<path d="M339.803 176.19H314.803V144.554L326.324 144.554C326.899 144.554 327.4 144.946 327.537 145.504L329.803 154.677L339.221 160.636C339.583 160.865 339.803 161.264 339.803 161.693V171.128C340.493 171.128 341.053 171.694 341.053 172.393V174.924C341.053 175.623 340.493 176.19 339.803 176.19Z" fill="url(#paint25_linear)"/>
<path fill-rule="evenodd" clip-rule="evenodd" d="M299.574 154.556C299.574 153.496 298.727 152.613 297.71 152.613L295.236 152.4L294.08 148.618C294.046 148.583 294.046 148.547 294.012 148.512C293.673 148.017 293.131 147.699 292.487 147.699H282.641C281.692 147.699 281.175 148.761 281.073 149.68H277.374C276.968 149.68 276.629 150.033 276.629 150.457C276.629 150.881 276.968 151.234 277.374 151.234H281.02C281.393 151.305 281.664 151.623 281.664 152.012C281.664 152.436 281.325 152.789 280.919 152.789H279.115C278.708 152.789 278.369 153.143 278.369 153.567C278.369 153.991 278.708 154.344 279.115 154.344H280.422H282.423C282.83 154.344 283.169 154.697 283.169 155.121C283.169 155.545 282.83 155.899 282.423 155.899H280.684C280.219 155.899 279.88 156.252 279.88 156.676C279.88 157.1 280.219 157.454 280.626 157.454H281.731C281.256 157.56 280.917 158.019 280.917 158.549V159.963C280.917 160.563 281.392 161.093 282.002 161.093H283.131C283.469 162.33 284.588 163.249 285.876 163.249C287.197 163.249 288.282 162.33 288.621 161.093H292.694C293.033 162.33 294.152 163.249 295.439 163.249C296.761 163.249 297.845 162.33 298.184 161.093H299.506C300.082 161.093 300.59 160.599 300.59 159.963V158.549C300.523 157.913 300.082 157.418 299.574 157.383V154.556Z" fill="#92F1D3"/>
<path d="M314.803 144.554H322.303V176.19H314.803V144.554Z" fill="url(#paint26_linear)"/>
<path fill-rule="evenodd" clip-rule="evenodd" d="M317.303 156.568C317.303 156.222 317.583 155.943 317.928 155.943H321.678C322.023 155.943 322.303 156.222 322.303 156.568V157.216C322.303 157.561 322.023 157.841 321.678 157.841H317.928C317.583 157.841 317.303 157.561 317.303 157.216V156.568Z" fill="#C4CDD5"/>
<path d="M314.803 171.128H339.803C340.493 171.128 341.053 171.688 341.053 172.378V174.94C341.053 175.63 340.493 176.19 339.803 176.19H314.803V171.128Z" fill="url(#paint27_linear)"/>
<path d="M277.303 183.782C281.445 183.782 284.803 180.383 284.803 176.19C284.803 171.996 281.445 168.597 277.303 168.597C273.161 168.597 269.803 171.996 269.803 176.19C269.803 180.383 273.161 183.782 277.303 183.782Z" fill="#393939"/>
<path d="M327.303 183.782C331.445 183.782 334.803 180.383 334.803 176.19C334.803 171.996 331.445 168.597 327.303 168.597C323.161 168.597 319.803 171.996 319.803 176.19C319.803 180.383 323.161 183.782 327.303 183.782Z" fill="#393939"/>
<path d="M327.303 178.72C328.683 178.72 329.803 177.587 329.803 176.19C329.803 174.792 328.683 173.659 327.303 173.659C325.922 173.659 324.803 174.792 324.803 176.19C324.803 177.587 325.922 178.72 327.303 178.72Z" fill="#7790A3"/>
<path d="M277.303 178.72C278.683 178.72 279.803 177.587 279.803 176.19C279.803 174.792 278.683 173.659 277.303 173.659C275.922 173.659 274.803 174.792 274.803 176.19C274.803 177.587 275.922 178.72 277.303 178.72Z" fill="#7790A3"/>
<path d="M317.303 147.702C317.303 147.012 317.862 146.452 318.553 146.452H327.773L329.803 154.677H318.553C317.862 154.677 317.303 154.118 317.303 153.427V147.702Z" fill="url(#paint28_linear)"/>
<path d="M268.553 176.344C268.553 171.452 272.47 167.486 277.303 167.486C282.135 167.486 286.053 171.452 286.053 176.344H284.803C284.803 172.151 281.445 168.752 277.303 168.752C273.161 168.752 269.803 172.151 269.803 176.344H268.553Z" fill="#D5DFE6"/>
<path d="M318.553 176.19C318.553 171.297 322.47 167.332 327.303 167.332C332.135 167.332 336.053 171.297 336.053 176.19H334.803C334.803 171.996 331.445 168.597 327.303 168.597C323.161 168.597 319.803 171.996 319.803 176.19H318.553Z" fill="#D5DFE6"/>
<path fill-rule="evenodd" clip-rule="evenodd" d="M321.598 154.677H329.803L327.741 146.452H318.924L321.598 154.677Z" fill="url(#paint29_linear)"/>
<path d="M292.487 147.699H291.415L285.523 147.684L288.876 161.102L292.694 161.093C293.033 162.33 294.151 163.249 295.439 163.249C296.761 163.249 297.845 162.33 298.184 161.093H299.506C300.082 161.093 300.59 160.599 300.59 159.963V158.549C300.522 157.913 300.082 157.418 299.574 157.383V154.556C299.574 153.496 298.726 152.613 297.71 152.613L295.236 152.401L294.08 148.618C294.046 148.583 294.046 148.547 294.012 148.512C293.673 148.017 293.131 147.699 292.487 147.699Z" fill="url(#paint30_linear)"/>
<circle cx="36.1982" cy="30.2832" r="13.7939" fill="url(#paint31_radial)"/>
<circle cx="36.1982" cy="30.2832" r="13.7939" fill="url(#paint32_linear)" fill-opacity="0.5"/>
<circle cx="42.1348" cy="33.293" r="2.36332" fill="url(#paint33_radial)"/>
<circle cx="30.2705" cy="24.8833" r="2.36332" fill="url(#paint34_radial)" fill-opacity="0.6"/>
<circle cx="31.4068" cy="37.6805" r="1.49955" fill="url(#paint35_radial)"/>
<circle cx="39.7715" cy="24.8833" r="2.36332" fill="url(#paint36_radial)"/>
<path d="M94.6233 27L94.9307 30.3158L98.2465 30.6233L94.9307 30.9307L94.6233 34.2465L94.3158 30.9307L91 30.6233L94.3158 30.3158L94.6233 27Z" fill="#FFFCE1"/>
<path d="M3.62327 0L3.93072 3.31583L7.24654 3.62327L3.93072 3.93072L3.62327 7.24654L3.31583 3.93072L0 3.62327L3.31583 3.31583L3.62327 0Z" fill="#FFFCE1"/>
<path d="M135.617 0L135.84 2.4071L138.247 2.63028L135.84 2.85347L135.617 5.26057L135.393 2.85347L132.986 2.63028L135.393 2.4071L135.617 0Z" fill="#FFFCE1"/>
<path d="M243.623 10L243.931 13.3158L247.247 13.6233L243.931 13.9307L243.623 17.2465L243.316 13.9307L240 13.6233L243.316 13.3158L243.623 10Z" fill="#FFFCE1"/>
<path d="M345 0L345.424 4.57574L350 5L345.424 5.42426L345 10L344.576 5.42426L340 5L344.576 4.57574L345 0Z" fill="#FFFCE1"/>
<path d="M364.208 40L364.466 42.7804L367.246 43.0382L364.466 43.296L364.208 46.0763L363.95 43.296L361.17 43.0382L363.95 42.7804L364.208 40Z" fill="#FFFCE1"/>
<path d="M24.8254 68L25.0309 70.2157L27.2465 70.4211L25.0309 70.6266L24.8254 72.8422L24.62 70.6266L22.4043 70.4211L24.62 70.2157L24.8254 68Z" fill="#FFFCE1"/>
<defs>
<linearGradient id="paint0_linear" x1="124.165" y1="70.293" x2="124.165" y2="183.782" gradientUnits="userSpaceOnUse">
<stop offset="0.322917" stop-color="#1A4379"/>
<stop offset="1" stop-color="#5A7385" stop-opacity="0.6"/>
</linearGradient>
<linearGradient id="paint1_linear" x1="294.195" y1="12.2229" x2="294.195" y2="183.782" gradientUnits="userSpaceOnUse">
<stop offset="0.322917" stop-color="#1A4379"/>
<stop offset="1" stop-color="#5A7385" stop-opacity="0.55"/>
</linearGradient>
<linearGradient id="paint2_linear" x1="230.235" y1="40" x2="230.235" y2="183.782" gradientUnits="userSpaceOnUse">
<stop offset="0.322917" stop-color="#1A4379"/>
<stop offset="1" stop-color="#5A7385" stop-opacity="0.62"/>
</linearGradient>
<linearGradient id="paint3_linear" x1="115.456" y1="53.3525" x2="115.456" y2="72.6514" gradientUnits="userSpaceOnUse">
<stop stop-color="#454C50"/>
<stop offset="1" stop-color="#303B41"/>
</linearGradient>
<linearGradient id="paint4_linear" x1="145.079" y1="140.769" x2="145.079" y2="183.769" gradientUnits="userSpaceOnUse">
<stop stop-color="white"/>
<stop offset="1" stop-color="#EEF2F5" stop-opacity="0"/>
</linearGradient>
<linearGradient id="paint5_linear" x1="159.732" y1="136.836" x2="159.732" y2="172.791" gradientUnits="userSpaceOnUse">
<stop stop-color="#FFE380"/>
<stop offset="1" stop-color="#FFE380"/>
</linearGradient>
<linearGradient id="paint6_linear" x1="176.079" y1="154.814" x2="176.079" y2="136.836" gradientUnits="userSpaceOnUse">
<stop stop-color="#FFD560"/>
<stop offset="1" stop-color="#F0B616"/>
</linearGradient>
<linearGradient id="paint7_linear" x1="158.079" y1="51.4429" x2="158.079" y2="78.4092" gradientUnits="userSpaceOnUse">
<stop stop-color="#2F88EC"/>
<stop offset="1" stop-color="#2FB7EC"/>
</linearGradient>
<linearGradient id="paint8_linear" x1="171.579" y1="2.00464" x2="171.579" y2="42.4541" gradientUnits="userSpaceOnUse">
<stop stop-color="#92F1D3"/>
<stop offset="1" stop-color="#1ACC94"/>
</linearGradient>
<linearGradient id="paint9_linear" x1="74.6826" y1="169.034" x2="97.9571" y2="169.034" gradientUnits="userSpaceOnUse">
<stop stop-color="white"/>
<stop offset="1" stop-color="#EEF2F5" stop-opacity="0"/>
</linearGradient>
<linearGradient id="paint10_linear" x1="77.1172" y1="162.342" x2="96.4708" y2="162.342" gradientUnits="userSpaceOnUse">
<stop stop-color="#FFF280"/>
<stop offset="1" stop-color="#FFE380"/>
</linearGradient>
<linearGradient id="paint11_linear" x1="86.794" y1="153.543" x2="77.1172" y2="153.543" gradientUnits="userSpaceOnUse">
<stop stop-color="#F7A14D"/>
<stop offset="1" stop-color="#F0B616"/>
</linearGradient>
<linearGradient id="paint12_linear" x1="42.1348" y1="171.128" x2="42.1348" y2="135.696" gradientUnits="userSpaceOnUse">
<stop stop-color="#1E6458"/>
<stop offset="1" stop-color="#1ACC94"/>
</linearGradient>
<linearGradient id="paint13_linear" x1="0.623503" y1="173.813" x2="1.5799" y2="163.781" gradientUnits="userSpaceOnUse">
<stop stop-color="#318562"/>
<stop offset="1" stop-color="#1ACC94"/>
</linearGradient>
<linearGradient id="paint14_linear" x1="27.1348" y1="144.554" x2="27.1348" y2="176.19" gradientUnits="userSpaceOnUse">
<stop stop-color="#F8FAFB"/>
<stop offset="1" stop-color="#EEF2F5"/>
</linearGradient>
<linearGradient id="paint15_linear" x1="23.3848" y1="192.008" x2="9.18296" y2="188.641" gradientUnits="userSpaceOnUse">
<stop stop-color="#EEF2F5"/>
<stop offset="1" stop-color="#F8FAFB"/>
</linearGradient>
<linearGradient id="paint16_linear" x1="27.1348" y1="173.659" x2="0.884766" y2="173.659" gradientUnits="userSpaceOnUse">
<stop stop-color="#D5DFE6"/>
<stop offset="1" stop-color="#7790A3" stop-opacity="0.28"/>
</linearGradient>
<linearGradient id="paint17_linear" x1="30.8848" y1="150.565" x2="23.3307" y2="162.044" gradientUnits="userSpaceOnUse">
<stop stop-color="#4A5F6E"/>
<stop offset="1" stop-color="#4A5F6E"/>
</linearGradient>
<linearGradient id="paint18_linear" x1="22.1963" y1="152.435" x2="22.904" y2="146.837" gradientUnits="userSpaceOnUse">
<stop stop-color="#5A7385"/>
<stop offset="1" stop-color="#D5DFE6"/>
</linearGradient>
<linearGradient id="paint19_linear" x1="48.089" y1="163.249" x2="48.089" y2="147.699" gradientUnits="userSpaceOnUse">
<stop stop-color="#2EE3AA"/>
<stop offset="1" stop-color="#92F1D3"/>
</linearGradient>
<linearGradient id="paint20_linear" x1="266.956" y1="141.635" x2="243.682" y2="141.635" gradientUnits="userSpaceOnUse">
<stop stop-color="white"/>
<stop offset="1" stop-color="#EEF2F5" stop-opacity="0"/>
</linearGradient>
<linearGradient id="paint21_linear" x1="264.957" y1="161.211" x2="245.603" y2="161.211" gradientUnits="userSpaceOnUse">
<stop stop-color="#FFF280"/>
<stop offset="1" stop-color="#FFE380"/>
</linearGradient>
<linearGradient id="paint22_linear" x1="255.279" y1="152.412" x2="264.956" y2="152.412" gradientUnits="userSpaceOnUse">
<stop stop-color="#F7A14D"/>
<stop offset="1" stop-color="#F0B616"/>
</linearGradient>
<linearGradient id="paint23_linear" x1="278.094" y1="171.133" x2="278.094" y2="135.7" gradientUnits="userSpaceOnUse">
<stop stop-color="#1E6458"/>
<stop offset="1" stop-color="#1ACC94"/>
</linearGradient>
<linearGradient id="paint24_linear" x1="341.315" y1="173.813" x2="340.359" y2="163.781" gradientUnits="userSpaceOnUse">
<stop stop-color="#318562"/>
<stop offset="1" stop-color="#1ACC94"/>
</linearGradient>
<linearGradient id="paint25_linear" x1="314.803" y1="144.554" x2="314.803" y2="176.19" gradientUnits="userSpaceOnUse">
<stop stop-color="#F8FAFB"/>
<stop offset="1" stop-color="#EEF2F5"/>
</linearGradient>
<linearGradient id="paint26_linear" x1="318.553" y1="192.007" x2="332.755" y2="188.641" gradientUnits="userSpaceOnUse">
<stop stop-color="#EEF2F5"/>
<stop offset="1" stop-color="#F8FAFB"/>
</linearGradient>
<linearGradient id="paint27_linear" x1="314.803" y1="173.659" x2="341.053" y2="173.659" gradientUnits="userSpaceOnUse">
<stop stop-color="#D5DFE6"/>
<stop offset="1" stop-color="#7790A3" stop-opacity="0.28"/>
</linearGradient>
<linearGradient id="paint28_linear" x1="311.053" y1="150.565" x2="318.607" y2="162.044" gradientUnits="userSpaceOnUse">
<stop stop-color="#4A5F6E"/>
<stop offset="1" stop-color="#4A5F6E"/>
</linearGradient>
<linearGradient id="paint29_linear" x1="319.741" y1="152.435" x2="319.033" y2="146.837" gradientUnits="userSpaceOnUse">
<stop stop-color="#5A7385"/>
<stop offset="1" stop-color="#D5DFE6"/>
</linearGradient>
<linearGradient id="paint30_linear" x1="293.057" y1="147.684" x2="293.057" y2="163.249" gradientUnits="userSpaceOnUse">
<stop stop-color="#2EE3AA" stop-opacity="0"/>
<stop offset="1" stop-color="#2EE3AA"/>
</linearGradient>
<radialGradient id="paint31_radial" cx="0" cy="0" r="1" gradientUnits="userSpaceOnUse" gradientTransform="translate(36.1982 30.2832) rotate(90) scale(13.7939)">
<stop stop-color="white"/>
<stop offset="1" stop-color="white" stop-opacity="0.7"/>
</radialGradient>
<linearGradient id="paint32_linear" x1="28.6086" y1="18.3966" x2="36.1982" y2="44.0771" gradientUnits="userSpaceOnUse">
<stop stop-color="#EAE5BE"/>
<stop offset="1" stop-color="white" stop-opacity="0"/>
</linearGradient>
<radialGradient id="paint33_radial" cx="0" cy="0" r="1" gradientUnits="userSpaceOnUse" gradientTransform="translate(42.1348 33.293) rotate(90) scale(2.36332)">
<stop stop-color="#ABB4BB"/>
<stop offset="1" stop-color="#D5DFE6" stop-opacity="0"/>
</radialGradient>
<radialGradient id="paint34_radial" cx="0" cy="0" r="1" gradientUnits="userSpaceOnUse" gradientTransform="translate(30.2705 24.8833) rotate(90) scale(2.36332)">
<stop stop-color="#BCC5CC"/>
<stop offset="1" stop-color="#D5DFE6" stop-opacity="0"/>
</radialGradient>
<radialGradient id="paint35_radial" cx="0" cy="0" r="1" gradientUnits="userSpaceOnUse" gradientTransform="translate(31.4068 37.6805) rotate(90) scale(1.49955)">
<stop stop-color="#BABABA"/>
<stop offset="1" stop-color="#D5DFE6" stop-opacity="0"/>
</radialGradient>
<radialGradient id="paint36_radial" cx="0" cy="0" r="1" gradientUnits="userSpaceOnUse" gradientTransform="translate(39.7715 24.8833) rotate(90) scale(2.36332)">
<stop stop-color="#A5B0B8"/>
<stop offset="1" stop-color="#D5DFE6" stop-opacity="0.59"/>
</radialGradient>
</defs>
</svg>
