<svg width="414" height="172" viewBox="0 0 414 172" fill="none" xmlns="http://www.w3.org/2000/svg">
<path d="M109.325 71.8772L20.5498 170.623H209.998L121.223 71.8772C118.045 68.3419 112.503 68.3419 109.325 71.8772Z" fill="url(#paint0_linear)"/>
<path d="M267.185 18.7257L144.796 170.623H414L279.407 18.445C276.125 14.7341 270.294 14.868 267.185 18.7257Z" fill="url(#paint1_linear)"/>
<path d="M207.749 43.9426L96.0615 170.623H331.438L219.751 43.9426C216.566 40.33 210.934 40.33 207.749 43.9426Z" fill="url(#paint2_linear)"/>
<path d="M133.413 48.0011L113.264 27.8521" stroke="#5A7385" stroke-width="2" stroke-miterlimit="6.33314" stroke-linecap="round"/>
<rect x="92.7324" y="49.5327" width="28.9132" height="17.917" transform="rotate(-45 92.7324 49.5327)" fill="url(#paint3_linear)"/>
<path d="M103.951 54.741C104.888 54.7804 105.849 54.4181 106.763 53.5042C108.031 52.2359 108.165 50.6998 107.054 49.589C105.991 48.5255 104.557 48.6831 103.667 49.5733C103.186 50.0538 102.958 50.6761 102.926 51.1961L101.611 49.8805L104.124 47.3675L103.163 46.4064L99.5548 50.0144L102.556 53.0158L103.549 52.4486C103.565 51.8342 103.785 51.3458 104.218 50.9125C104.817 50.3138 105.487 50.2901 105.967 50.7707C106.4 51.204 106.4 51.9129 105.778 52.5353C105.227 53.0867 104.541 53.3782 103.809 53.3703L103.951 54.741Z" fill="white"/>
<path d="M106.695 48.1364C108.05 49.4914 110.083 50.1846 111.587 48.6799C113.084 47.1832 112.399 45.1429 111.044 43.7879C109.689 42.4329 107.656 41.7554 106.159 43.2522C104.655 44.7568 105.34 46.7814 106.695 48.1364ZM109.901 44.9302C110.87 45.8991 111.343 46.939 110.595 47.6874C109.838 48.4436 108.798 47.971 107.829 47.002C106.861 46.033 106.396 45.0011 107.152 44.2448C107.9 43.4964 108.932 43.9612 109.901 44.9302Z" fill="white"/>
<path d="M110.131 41.9278C110.863 42.6604 111.95 42.692 112.754 41.8884C113.565 41.077 113.534 39.9899 112.801 39.2573C112.061 38.5168 110.95 38.4616 110.139 39.273C109.335 40.0766 109.39 41.1873 110.131 41.9278ZM114.96 45.1183L115.551 44.5275L113.66 35.9092L113.061 36.508L114.96 45.1183ZM112.084 39.9741C112.494 40.3838 112.502 40.9116 112.14 41.274C111.785 41.6285 111.249 41.6285 110.84 41.2188C110.399 40.7777 110.406 40.2499 110.761 39.8954C111.123 39.533 111.643 39.533 112.084 39.9741ZM115.826 41.8412C116.559 42.5738 117.654 42.6132 118.457 41.8097C119.261 41.0061 119.229 39.9032 118.497 39.1706C117.756 38.4301 116.638 38.3828 115.834 39.1864C115.031 39.9899 115.086 41.1007 115.826 41.8412ZM117.788 39.8796C118.213 40.305 118.205 40.8328 117.843 41.1952C117.481 41.5576 116.961 41.5576 116.535 41.1322C116.102 40.6989 116.094 40.1711 116.457 39.8087C116.819 39.4463 117.355 39.4463 117.788 39.8796Z" fill="white"/>
<mask id="mask0" mask-type="alpha" maskUnits="userSpaceOnUse" x="120" y="1" width="78" height="171">
<rect x="120.667" y="1.64209" width="76.9487" height="169.596" fill="white"/>
</mask>
<g mask="url(#mask0)">
<path d="M183.896 170.611H134.691L142.519 130.689H176.068L183.896 170.611Z" fill="url(#paint4_linear)"/>
<path d="M159.294 160.419C145.194 146.69 147.413 137.053 150.938 127.039L167.649 127.039C171.174 137.053 173.394 146.69 159.294 160.419Z" fill="url(#paint5_linear)"/>
<path d="M159.293 127.039C159.293 127.039 167.649 136.379 159.293 143.729C150.937 136.364 159.293 127.039 159.293 127.039Z" fill="url(#paint6_linear)"/>
<path fill-rule="evenodd" clip-rule="evenodd" d="M196.894 102.368L180.183 81.1401V110.348L196.894 122.866V102.368ZM121.693 102.369L138.405 81.1404V110.348L121.693 122.866V102.369Z" fill="#1ACC94"/>
<path d="M184.343 39.4141C191.476 57.1858 183.438 102.207 180.899 115.158C180.492 117.237 178.669 118.693 176.55 118.693H142.037C139.918 118.693 138.096 117.237 137.688 115.158C135.149 102.207 127.109 57.1858 134.227 39.4141C147.555 39.4141 167.649 39.4141 184.343 39.4141Z" fill="white"/>
<path d="M134.227 39.4141C142.554 39.4141 159.294 39.4141 159.294 39.4141V118.693H142.037C139.918 118.693 138.096 117.237 137.688 115.158C135.149 102.207 127.109 57.1858 134.227 39.4141Z" fill="#EEF2F5"/>
<path d="M142.582 118.696L138.404 131.211H180.182L176.004 118.693L142.582 118.696Z" fill="#1ACC94"/>
<path d="M169.579 60.277C169.579 65.9466 164.977 70.5475 159.293 70.5475C153.61 70.5475 149.007 65.9466 149.007 60.277C149.007 54.6074 153.61 50.0065 159.293 50.0065C164.977 50.0065 169.579 54.6074 169.579 60.277Z" fill="#8BDCFB" stroke="url(#paint7_linear)" stroke-width="4.49438"/>
<path d="M159.293 1.86133C150.95 1.86133 138.404 31.0635 134.227 39.4145C134.227 39.4145 150.815 39.4145 159.293 39.4145C167.526 39.4145 184.36 39.4145 184.36 39.4145C180.182 31.0635 167.649 1.86133 159.293 1.86133Z" fill="url(#paint8_linear)"/>
</g>
<path fill-rule="evenodd" clip-rule="evenodd" d="M159.302 73.3902C166.781 73.3902 172.844 67.5709 172.844 60.3926C172.844 53.2142 166.781 47.395 159.302 47.395C151.824 47.395 145.761 53.2142 145.761 60.3926C145.761 67.5709 151.824 73.3902 159.302 73.3902Z" fill="#1E6458"/>
<mask id="mask1" mask-type="alpha" maskUnits="userSpaceOnUse" x="145" y="47" width="28" height="27">
<path fill-rule="evenodd" clip-rule="evenodd" d="M159.302 73.3902C166.781 73.3902 172.844 67.5709 172.844 60.3926C172.844 53.2142 166.781 47.395 159.302 47.395C151.824 47.395 145.761 53.2142 145.761 60.3926C145.761 67.5709 151.824 73.3902 159.302 73.3902Z" fill="white"/>
</mask>
<g mask="url(#mask1)">
<path fill-rule="evenodd" clip-rule="evenodd" d="M164.253 40.8961L171.914 48.2486L162.01 52.5939L159.301 49.9944L164.253 40.8961Z" fill="#EEF2F5"/>
</g>
<mask id="mask2" mask-type="alpha" maskUnits="userSpaceOnUse" x="145" y="47" width="28" height="27">
<path fill-rule="evenodd" clip-rule="evenodd" d="M159.302 73.3902C166.781 73.3902 172.844 67.5709 172.844 60.3926C172.844 53.2142 166.781 47.395 159.302 47.395C151.824 47.395 145.761 53.2142 145.761 60.3926C145.761 67.5709 151.824 73.3902 159.302 73.3902Z" fill="white"/>
</mask>
<g mask="url(#mask2)">
<path fill-rule="evenodd" clip-rule="evenodd" d="M169.705 46.1279L171.49 47.841V48.4352L162.011 52.5941L161.588 52.1879L169.705 46.1279Z" fill="#EEF2F5"/>
</g>
<mask id="mask3" mask-type="alpha" maskUnits="userSpaceOnUse" x="145" y="47" width="28" height="27">
<path fill-rule="evenodd" clip-rule="evenodd" d="M159.302 73.3902C166.781 73.3902 172.844 67.5709 172.844 60.3926C172.844 53.2142 166.781 47.395 159.302 47.395C151.824 47.395 145.761 53.2142 145.761 60.3926C145.761 67.5709 151.824 73.3902 159.302 73.3902Z" fill="white"/>
</mask>
<g mask="url(#mask3)">
<path d="M155.916 60.3922L160.656 51.2939" stroke="#2EE3AA" stroke-width="1.5" stroke-linecap="round" stroke-linejoin="round"/>
</g>
<mask id="mask4" mask-type="alpha" maskUnits="userSpaceOnUse" x="145" y="47" width="28" height="27">
<path fill-rule="evenodd" clip-rule="evenodd" d="M159.302 73.3902C166.781 73.3902 172.844 67.5709 172.844 60.3926C172.844 53.2142 166.781 47.395 159.302 47.395C151.824 47.395 145.761 53.2142 145.761 60.3926C145.761 67.5709 151.824 73.3902 159.302 73.3902Z" fill="white"/>
</mask>
<g mask="url(#mask4)">
<path d="M149.823 60.3922L160.657 51.2939" stroke="white" stroke-width="1.5" stroke-linecap="round" stroke-linejoin="round"/>
</g>
<mask id="mask5" mask-type="alpha" maskUnits="userSpaceOnUse" x="145" y="47" width="28" height="27">
<path fill-rule="evenodd" clip-rule="evenodd" d="M159.302 73.3902C166.781 73.3902 172.844 67.5709 172.844 60.3926C172.844 53.2142 166.781 47.395 159.302 47.395C151.824 47.395 145.761 53.2142 145.761 60.3926C145.761 67.5709 151.824 73.3902 159.302 73.3902Z" fill="white"/>
</mask>
<g mask="url(#mask5)">
<path d="M160.655 51.2939L163.364 61.692" stroke="#2EE3AA" stroke-width="1.5" stroke-linecap="round" stroke-linejoin="round"/>
</g>
<mask id="mask6" mask-type="alpha" maskUnits="userSpaceOnUse" x="145" y="47" width="28" height="27">
<path fill-rule="evenodd" clip-rule="evenodd" d="M159.302 73.3902C166.781 73.3902 172.844 67.5709 172.844 60.3926C172.844 53.2142 166.781 47.395 159.302 47.395C151.824 47.395 145.761 53.2142 145.761 60.3926C145.761 67.5709 151.824 73.3902 159.302 73.3902Z" fill="white"/>
</mask>
<g mask="url(#mask6)">
<path d="M160.655 51.2939L168.78 62.9918" stroke="white" stroke-width="1.5" stroke-linecap="round" stroke-linejoin="round"/>
</g>
<mask id="mask7" mask-type="alpha" maskUnits="userSpaceOnUse" x="145" y="47" width="28" height="27">
<path fill-rule="evenodd" clip-rule="evenodd" d="M159.302 73.3902C166.781 73.3902 172.844 67.5709 172.844 60.3926C172.844 53.2142 166.781 47.395 159.302 47.395C151.824 47.395 145.761 53.2142 145.761 60.3926C145.761 67.5709 151.824 73.3902 159.302 73.3902Z" fill="white"/>
</mask>
<g mask="url(#mask7)">
<path fill-rule="evenodd" clip-rule="evenodd" d="M153.885 59.0928L168.95 62.7077C169.623 62.8693 170.06 63.4931 169.962 64.1525L168.981 70.7465C168.875 71.4571 168.189 71.9509 167.449 71.8494C167.429 71.8467 167.41 71.8436 167.39 71.8402L148.418 68.4258C147.694 68.2954 147.211 67.6326 147.332 66.9346L148.322 61.2331C148.411 60.7227 148.806 60.3114 149.329 60.1858L153.885 59.0928Z" fill="#2EE3AA"/>
</g>
<mask id="mask8" mask-type="alpha" maskUnits="userSpaceOnUse" x="145" y="47" width="28" height="27">
<path fill-rule="evenodd" clip-rule="evenodd" d="M159.302 73.3902C166.781 73.3902 172.844 67.5709 172.844 60.3926C172.844 53.2142 166.781 47.395 159.302 47.395C151.824 47.395 145.761 53.2142 145.761 60.3926C145.761 67.5709 151.824 73.3902 159.302 73.3902Z" fill="white"/>
</mask>
<g mask="url(#mask8)">
<path fill-rule="evenodd" clip-rule="evenodd" d="M165.097 65.4714C164.889 65.4325 164.662 65.5571 164.594 65.7481L164.086 67.1713C164.03 67.3263 163.922 67.4495 163.76 67.5409C163.599 67.6324 163.432 67.662 163.26 67.6299C163.092 67.5986 162.968 67.5159 162.888 67.3817C162.807 67.2475 162.795 67.1008 162.852 66.9412L163.16 66.0774C163.2 65.9009 163.087 65.7361 162.894 65.7L162.387 65.6055C162.194 65.5694 161.985 65.6742 161.901 65.8425L161.589 66.7055C161.532 66.8652 161.423 66.9894 161.263 67.0785C161.102 67.1678 160.938 67.1967 160.77 67.1655C160.603 67.1342 160.478 67.0502 160.396 66.9132C160.314 66.7764 160.3 66.6304 160.356 66.4754L161.033 64.5876C161.101 64.4042 161.023 64.1847 160.859 64.0709C160.859 64.0709 158.893 62.8286 158.764 62.7484C158.634 62.6674 158.45 62.7602 158.354 62.9544L158.124 63.4183C158.028 63.6126 158.104 63.868 158.293 63.9859L159.612 64.8146L159.1 66.2412C158.929 66.7196 158.965 67.1631 159.21 67.571C159.455 67.9791 159.836 68.2312 160.354 68.3277C160.831 68.4168 161.298 68.3459 161.754 68.1148C162.007 68.4782 162.37 68.7039 162.843 68.7921C163.36 68.8886 163.863 68.8014 164.351 68.5301C164.84 68.2591 165.17 67.884 165.341 67.4056C165.341 67.4056 165.879 65.8998 165.889 65.8735C165.936 65.7422 165.804 65.6032 165.595 65.5644L165.097 65.4714Z" fill="white"/>
</g>
<mask id="mask9" mask-type="alpha" maskUnits="userSpaceOnUse" x="145" y="47" width="28" height="27">
<path fill-rule="evenodd" clip-rule="evenodd" d="M159.302 73.3902C166.781 73.3902 172.844 67.5709 172.844 60.3926C172.844 53.2142 166.781 47.395 159.302 47.395C151.824 47.395 145.761 53.2142 145.761 60.3926C145.761 67.5709 151.824 73.3902 159.302 73.3902Z" fill="white"/>
</mask>
<g mask="url(#mask9)">
<path d="M159.979 53.8939C161.1 53.8939 162.01 53.021 162.01 51.9443C162.01 50.8675 161.1 49.9946 159.979 49.9946C158.857 49.9946 157.947 50.8675 157.947 51.9443C157.947 53.021 158.857 53.8939 159.979 53.8939Z" fill="#EEF2F5"/>
<path d="M159.979 52.5937C160.353 52.5937 160.656 52.3027 160.656 51.9438C160.656 51.5849 160.353 51.2939 159.979 51.2939C159.605 51.2939 159.302 51.5849 159.302 51.9438C159.302 52.3027 159.605 52.5937 159.979 52.5937Z" fill="#1E6458"/>
</g>
<mask id="mask10" mask-type="alpha" maskUnits="userSpaceOnUse" x="145" y="47" width="28" height="27">
<path fill-rule="evenodd" clip-rule="evenodd" d="M159.302 73.3902C166.781 73.3902 172.844 67.5709 172.844 60.3926C172.844 53.2142 166.781 47.395 159.302 47.395C151.824 47.395 145.761 53.2142 145.761 60.3926C145.761 67.5709 151.824 73.3902 159.302 73.3902Z" fill="white"/>
</mask>
<g mask="url(#mask10)">
<path d="M154.177 59.0927L155.51 59.3184L153.864 68.2785L152.531 68.0528L154.177 59.0927Z" fill="white" fill-opacity="0.01"/>
</g>
<mask id="mask11" mask-type="alpha" maskUnits="userSpaceOnUse" x="145" y="47" width="28" height="27">
<path fill-rule="evenodd" clip-rule="evenodd" d="M159.302 73.3902C166.781 73.3902 172.844 67.5709 172.844 60.3926C172.844 53.2142 166.781 47.395 159.302 47.395C151.824 47.395 145.761 53.2142 145.761 60.3926C145.761 67.5709 151.824 73.3902 159.302 73.3902Z" fill="white"/>
</mask>
<g mask="url(#mask11)">
<path d="M147.332 66.9328L148.322 61.2333C148.411 60.7229 148.806 60.3115 149.329 60.186L153.885 59.093L152.454 69.1436L148.421 68.4243C147.695 68.2949 147.211 67.6316 147.332 66.9328Z" fill="#EEF2F5"/>
</g>
<path opacity="0.5" d="M90.9429 132.422L90.9429 156.931L69.335 153.032L69.335 136.321L90.9429 132.422Z" fill="url(#paint9_linear)"/>
<path d="M89.5635 144.798C82.1733 152.388 76.986 151.193 71.5957 149.296L71.5957 140.3C76.986 138.403 82.1733 137.208 89.5635 144.798Z" fill="url(#paint10_linear)"/>
<path d="M71.5957 144.798C71.5957 144.798 76.6236 140.3 80.5796 144.798C76.6151 149.295 71.5957 144.798 71.5957 144.798Z" fill="url(#paint11_linear)"/>
<path fill-rule="evenodd" clip-rule="evenodd" d="M25.1917 128.48V158.875H71.6116V128.48C71.6116 127.099 70.4923 125.98 69.1116 125.98H27.6917C26.311 125.98 25.1917 127.099 25.1917 128.48ZM72.6826 158.875C73.373 158.875 73.9326 159.435 73.9326 160.125V162.324C73.9326 163.015 73.373 163.574 72.6826 163.574H25.1917V158.875H72.6826Z" fill="#1E6458"/>
<path d="M25.1924 128.48C25.1924 127.099 26.3117 125.98 27.6924 125.98H43.7603L53.0443 158.875H25.1924V128.48Z" fill="url(#paint12_linear)"/>
<path d="M74.5205 160.269C74.5205 159.578 73.9609 159.019 73.2705 159.019H25.2262V163.718H73.2705C73.9609 163.718 74.5205 163.158 74.5205 162.468V160.269Z" fill="url(#paint13_linear)"/>
<path d="M1.98244 163.574H25.1924V134.204L14.5663 134.204C13.9913 134.204 13.4906 134.596 13.3527 135.154L11.2664 143.602L2.56409 149.108C2.20196 149.337 1.98244 149.736 1.98244 150.165V158.875C1.34151 158.875 0.821941 159.401 0.821941 160.05V162.399C0.821941 163.048 1.34151 163.574 1.98244 163.574Z" fill="url(#paint14_linear)"/>
<path fill-rule="evenodd" clip-rule="evenodd" d="M39.3318 143.49C39.3318 142.506 40.1184 141.686 41.0622 141.686L43.359 141.489L44.4324 137.977C44.4639 137.944 44.4639 137.911 44.4954 137.879C44.81 137.419 45.3134 137.124 45.9112 137.124H55.0519C55.9329 137.124 56.4136 138.11 56.508 138.963H59.9416C60.3192 138.963 60.6338 139.291 60.6338 139.684C60.6338 140.078 60.3192 140.406 59.9416 140.406H56.5567C56.2106 140.472 55.9589 140.767 55.9589 141.128C55.9589 141.521 56.2735 141.85 56.6511 141.85H58.3259C58.7034 141.85 59.018 142.178 59.018 142.571C59.018 142.965 58.7034 143.293 58.3259 143.293H57.1119H55.2545C54.877 143.293 54.5624 143.621 54.5624 144.015C54.5624 144.408 54.877 144.737 55.2545 144.737H56.869C57.3004 144.737 57.615 145.065 57.615 145.458C57.615 145.852 57.3004 146.18 56.9229 146.18H55.8974C56.3379 146.278 56.6525 146.705 56.6525 147.197V148.509C56.6525 149.067 56.2121 149.559 55.6457 149.559H54.5976C54.283 150.707 53.2448 151.56 52.0492 151.56C50.8222 151.56 49.8154 150.707 49.5008 149.559H45.7186C45.404 150.707 44.3657 151.56 43.1702 151.56C41.9432 151.56 40.9364 150.707 40.6218 149.559H39.3947C38.8599 149.559 38.3879 149.1 38.3879 148.509V147.197C38.4509 146.606 38.8599 146.147 39.3318 146.114V143.49Z" fill="#92F1D3"/>
<path d="M25.1924 134.204H18.2294V163.574H25.1924V134.204Z" fill="url(#paint15_linear)"/>
<path fill-rule="evenodd" clip-rule="evenodd" d="M22.8711 145.402C22.8711 145.057 22.5913 144.777 22.2461 144.777H18.8541C18.5089 144.777 18.2291 145.057 18.2291 145.402V145.915C18.2291 146.26 18.5089 146.54 18.8541 146.54H22.2461C22.5913 146.54 22.8711 146.26 22.8711 145.915V145.402Z" fill="#C4CDD5"/>
<path d="M25.1924 158.875H2.07194C1.38159 158.875 0.821941 159.435 0.821941 160.125V162.324C0.821941 163.015 1.38159 163.574 2.07194 163.574H25.1924V158.875Z" fill="url(#paint16_linear)"/>
<path d="M60.0067 170.623C56.1612 170.623 53.0438 167.467 53.0438 163.574C53.0438 159.681 56.1612 156.525 60.0067 156.525C63.8523 156.525 66.9697 159.681 66.9697 163.574C66.9697 167.467 63.8523 170.623 60.0067 170.623Z" fill="#393939"/>
<path d="M13.5868 170.623C9.74127 170.623 6.62384 167.467 6.62384 163.574C6.62384 159.681 9.74127 156.525 13.5868 156.525C17.4324 156.525 20.5498 159.681 20.5498 163.574C20.5498 167.467 17.4324 170.623 13.5868 170.623Z" fill="#393939"/>
<path d="M13.5872 165.924C12.3054 165.924 11.2662 164.872 11.2662 163.574C11.2662 162.277 12.3054 161.225 13.5872 161.225C14.8691 161.225 15.9082 162.277 15.9082 163.574C15.9082 164.872 14.8691 165.924 13.5872 165.924Z" fill="#7790A3"/>
<path d="M60.0071 165.924C58.7253 165.924 57.6861 164.872 57.6861 163.574C57.6861 162.277 58.7253 161.225 60.0071 161.225C61.289 161.225 62.3281 162.277 62.3281 163.574C62.3281 164.872 61.289 165.924 60.0071 165.924Z" fill="#7790A3"/>
<path d="M22.8711 137.216C22.8711 136.526 22.3114 135.966 21.6211 135.966H13.1508L11.2661 143.603H21.6211C22.3115 143.603 22.8711 143.043 22.8711 142.353V137.216Z" fill="url(#paint17_linear)"/>
<path d="M68.1299 163.718C68.1299 159.176 64.4929 155.494 60.0064 155.494C55.5199 155.494 51.8829 159.176 51.8829 163.718H53.0434C53.0434 159.825 56.1609 156.669 60.0064 156.669C63.852 156.669 66.9694 159.825 66.9694 163.718H68.1299Z" fill="#D5DFE6"/>
<path d="M21.71 163.574C21.71 159.032 18.073 155.351 13.5865 155.351C9.10001 155.351 5.463 159.032 5.463 163.574H6.6235C6.6235 159.681 9.74093 156.525 13.5865 156.525C17.432 156.525 20.5495 159.681 20.5495 163.574H21.71Z" fill="#D5DFE6"/>
<path fill-rule="evenodd" clip-rule="evenodd" d="M20.5496 143.603H11.2656L13.1795 135.966L18.417 135.966L20.5496 143.603Z" fill="url(#paint18_linear)"/>
<path d="M50.9043 151.292L46.9055 137.124H45.9108C45.313 137.124 44.8096 137.419 44.495 137.879C44.4635 137.911 44.4635 137.944 44.432 137.977L43.3586 141.489L41.0618 141.686C40.118 141.686 39.3314 142.506 39.3314 143.49V146.114C38.8595 146.147 38.4505 146.606 38.3875 147.197V148.509C38.3875 149.1 38.8595 149.559 39.3943 149.559H40.6214C40.936 150.707 41.9428 151.56 43.1698 151.56C44.3653 151.56 45.4036 150.707 45.7182 149.559H49.5004C49.7093 150.321 50.2233 150.954 50.9043 151.292H50.9043Z" fill="url(#paint19_linear)"/>
<path fill-rule="evenodd" clip-rule="evenodd" d="M292.262 128.479V158.875H245.842V128.479C245.842 127.099 246.962 125.979 248.342 125.979H289.762C291.143 125.979 292.262 127.099 292.262 128.479ZM244.771 158.875C244.081 158.875 243.521 159.434 243.521 160.125V162.324C243.521 163.014 244.081 163.574 244.771 163.574H292.262V158.875H244.771Z" fill="#1E6458"/>
<path opacity="0.5" d="M226.234 156.002V131.493L247.842 135.392V152.103L226.234 156.002Z" fill="url(#paint20_linear)"/>
<path d="M228.019 143.748C235.409 151.337 240.596 150.143 245.986 148.245L245.986 139.25C240.596 137.353 235.409 136.158 228.019 143.748Z" fill="url(#paint21_linear)"/>
<path d="M245.985 143.748C245.985 143.748 240.957 139.25 237.001 143.748C240.966 148.245 245.985 143.748 245.985 143.748Z" fill="url(#paint22_linear)"/>
<path d="M245.845 128.484C245.845 127.103 246.964 125.984 248.345 125.984H262.295L270.52 158.879H245.845V128.484Z" fill="url(#paint23_linear)"/>
<path d="M242.936 160.268C242.936 159.578 243.495 159.018 244.186 159.018H292.23V163.717H244.186C243.495 163.717 242.936 163.158 242.936 162.467V160.268Z" fill="url(#paint24_linear)"/>
<path d="M315.473 163.574H292.263V134.203L302.889 134.203C303.464 134.203 303.965 134.595 304.102 135.153L306.189 143.602L314.891 149.108C315.253 149.337 315.473 149.736 315.473 150.164V158.874C316.114 158.874 316.633 159.4 316.633 160.049V162.399C316.633 163.048 316.114 163.574 315.473 163.574Z" fill="url(#paint25_linear)"/>
<path fill-rule="evenodd" clip-rule="evenodd" d="M278.124 143.489C278.124 142.505 277.338 141.685 276.394 141.685L274.097 141.488L273.024 137.977C272.992 137.944 272.992 137.911 272.961 137.878C272.646 137.419 272.143 137.124 271.545 137.124H262.404C261.523 137.124 261.042 138.109 260.948 138.962H257.514C257.137 138.962 256.822 139.29 256.822 139.684C256.822 140.078 257.137 140.406 257.514 140.406H260.899C261.245 140.471 261.497 140.766 261.497 141.127C261.497 141.521 261.183 141.849 260.805 141.849H259.13C258.753 141.849 258.438 142.177 258.438 142.571C258.438 142.964 258.753 143.293 259.13 143.293H260.344H262.202C262.579 143.293 262.894 143.621 262.894 144.014C262.894 144.408 262.579 144.736 262.202 144.736H260.587C260.156 144.736 259.841 145.064 259.841 145.458C259.841 145.851 260.156 146.18 260.533 146.18H261.559C261.118 146.278 260.804 146.704 260.804 147.197V148.509C260.804 149.066 261.244 149.559 261.81 149.559H262.858C263.173 150.707 264.211 151.56 265.407 151.56C266.634 151.56 267.641 150.707 267.955 149.559H271.737C272.052 150.707 273.09 151.56 274.286 151.56C275.513 151.56 276.52 150.707 276.834 149.559H278.061C278.596 149.559 279.068 149.099 279.068 148.509V147.197C279.005 146.606 278.596 146.147 278.124 146.114V143.489Z" fill="#92F1D3"/>
<path d="M292.263 134.203H299.226V163.574H292.263V134.203Z" fill="url(#paint26_linear)"/>
<path fill-rule="evenodd" clip-rule="evenodd" d="M294.584 145.402C294.584 145.057 294.864 144.777 295.209 144.777H298.601C298.946 144.777 299.226 145.057 299.226 145.402V145.914C299.226 146.259 298.946 146.539 298.601 146.539H295.209C294.864 146.539 294.584 146.259 294.584 145.914V145.402Z" fill="#C4CDD5"/>
<path d="M292.263 158.875H315.383C316.073 158.875 316.633 159.434 316.633 160.125V162.324C316.633 163.014 316.073 163.574 315.383 163.574H292.263V158.875Z" fill="url(#paint27_linear)"/>
<path d="M257.447 170.623C261.293 170.623 264.41 167.467 264.41 163.574C264.41 159.681 261.293 156.525 257.447 156.525C253.602 156.525 250.484 159.681 250.484 163.574C250.484 167.467 253.602 170.623 257.447 170.623Z" fill="#393939"/>
<path d="M303.867 170.623C307.713 170.623 310.83 167.467 310.83 163.574C310.83 159.681 307.713 156.525 303.867 156.525C300.022 156.525 296.904 159.681 296.904 163.574C296.904 167.467 300.022 170.623 303.867 170.623Z" fill="#393939"/>
<path d="M303.868 165.923C305.15 165.923 306.189 164.871 306.189 163.574C306.189 162.276 305.15 161.224 303.868 161.224C302.586 161.224 301.547 162.276 301.547 163.574C301.547 164.871 302.586 165.923 303.868 165.923Z" fill="#7790A3"/>
<path d="M257.448 165.923C258.73 165.923 259.769 164.871 259.769 163.574C259.769 162.276 258.73 161.224 257.448 161.224C256.166 161.224 255.127 162.276 255.127 163.574C255.127 164.871 256.166 165.923 257.448 165.923Z" fill="#7790A3"/>
<path d="M294.584 137.216C294.584 136.525 295.144 135.966 295.834 135.966H304.304L306.189 143.602H295.834C295.144 143.602 294.584 143.043 294.584 142.352V137.216Z" fill="url(#paint28_linear)"/>
<path d="M249.324 163.717C249.324 159.176 252.961 155.494 257.448 155.494C261.934 155.494 265.571 159.176 265.571 163.717H264.411C264.411 159.824 261.293 156.668 257.448 156.668C253.602 156.668 250.485 159.824 250.485 163.717H249.324Z" fill="#D5DFE6"/>
<path d="M295.744 163.574C295.744 159.032 299.381 155.35 303.868 155.35C308.354 155.35 311.991 159.032 311.991 163.574H310.831C310.831 159.681 307.713 156.525 303.868 156.525C300.022 156.525 296.905 159.681 296.905 163.574H295.744Z" fill="#D5DFE6"/>
<path fill-rule="evenodd" clip-rule="evenodd" d="M298.571 143.602H306.188L304.275 135.966H296.088L298.571 143.602Z" fill="url(#paint29_linear)"/>
<path d="M271.545 137.124H270.55L265.08 137.11L268.193 149.567L271.737 149.559C272.052 150.707 273.09 151.56 274.286 151.56C275.513 151.56 276.52 150.707 276.834 149.559H278.061C278.596 149.559 279.068 149.1 279.068 148.509V147.197C279.005 146.606 278.596 146.147 278.124 146.114V143.49C278.124 142.505 277.338 141.685 276.394 141.685L274.097 141.488L273.024 137.977C272.992 137.944 272.992 137.911 272.961 137.878C272.646 137.419 272.143 137.124 271.545 137.124Z" fill="url(#paint30_linear)"/>
<path d="M87.8482 25.0669L88.1336 28.1453L91.212 28.4307L88.1336 28.7162L87.8482 31.7946L87.5628 28.7162L84.4844 28.4307L87.5628 28.1453L87.8482 25.0669Z" fill="#FFFCE1"/>
<path d="M3.36384 0L3.64927 3.07841L6.72767 3.36384L3.64927 3.64927L3.36384 6.72767L3.07841 3.64927L0 3.36384L3.07841 3.07841L3.36384 0Z" fill="#FFFCE1"/>
<path d="M125.906 0L126.113 2.23474L128.348 2.44195L126.113 2.64916L125.906 4.8839L125.699 2.64916L123.464 2.44195L125.699 2.23474L125.906 0Z" fill="#FFFCE1"/>
<path d="M226.179 9.28418L226.465 12.3626L229.543 12.648L226.465 12.9334L226.179 16.0119L225.894 12.9334L222.815 12.648L225.894 12.3626L226.179 9.28418Z" fill="#FFFCE1"/>
<path d="M320.297 0L320.691 4.2481L324.939 4.64199L320.691 5.03588L320.297 9.28398L319.903 5.03588L315.655 4.64199L319.903 4.2481L320.297 0Z" fill="#FFFCE1"/>
<path d="M338.13 37.1362L338.37 39.7175L340.951 39.9569L338.37 40.1962L338.13 42.7775L337.891 40.1962L335.31 39.9569L337.891 39.7175L338.13 37.1362Z" fill="#FFFCE1"/>
<path d="M23.0476 63.1313L23.2383 65.1884L25.2953 65.3791L23.2383 65.5698L23.0476 67.6269L22.8568 65.5698L20.7998 65.3791L22.8568 65.1884L23.0476 63.1313Z" fill="#FFFCE1"/>
<defs>
<linearGradient id="paint0_linear" x1="115.274" y1="65.2598" x2="115.274" y2="170.623" gradientUnits="userSpaceOnUse">
<stop offset="0.322917" stop-color="#1A4379"/>
<stop offset="1" stop-color="#5A7385" stop-opacity="0.6"/>
</linearGradient>
<linearGradient id="paint1_linear" x1="273.13" y1="11.3477" x2="273.13" y2="170.623" gradientUnits="userSpaceOnUse">
<stop offset="0.322917" stop-color="#1A4379"/>
<stop offset="1" stop-color="#5A7385" stop-opacity="0.55"/>
</linearGradient>
<linearGradient id="paint2_linear" x1="213.75" y1="37.1362" x2="213.75" y2="170.623" gradientUnits="userSpaceOnUse">
<stop offset="0.322917" stop-color="#1A4379"/>
<stop offset="1" stop-color="#5A7385" stop-opacity="0.62"/>
</linearGradient>
<linearGradient id="paint3_linear" x1="107.189" y1="49.5327" x2="107.189" y2="67.4498" gradientUnits="userSpaceOnUse">
<stop stop-color="#454C50"/>
<stop offset="1" stop-color="#303B41"/>
</linearGradient>
<linearGradient id="paint4_linear" x1="134.691" y1="130.689" x2="134.691" y2="170.611" gradientUnits="userSpaceOnUse">
<stop stop-color="white"/>
<stop offset="1" stop-color="#EEF2F5" stop-opacity="0"/>
</linearGradient>
<linearGradient id="paint5_linear" x1="148.295" y1="127.039" x2="148.295" y2="160.419" gradientUnits="userSpaceOnUse">
<stop stop-color="#FFE380"/>
<stop offset="1" stop-color="#FFE380"/>
</linearGradient>
<linearGradient id="paint6_linear" x1="163.471" y1="143.729" x2="163.471" y2="127.039" gradientUnits="userSpaceOnUse">
<stop stop-color="#FFD560"/>
<stop offset="1" stop-color="#F0B616"/>
</linearGradient>
<linearGradient id="paint7_linear" x1="146.76" y1="47.7593" x2="146.76" y2="72.7947" gradientUnits="userSpaceOnUse">
<stop stop-color="#2F88EC"/>
<stop offset="1" stop-color="#2FB7EC"/>
</linearGradient>
<linearGradient id="paint8_linear" x1="159.293" y1="1.86133" x2="159.293" y2="39.4145" gradientUnits="userSpaceOnUse">
<stop stop-color="#92F1D3"/>
<stop offset="1" stop-color="#1ACC94"/>
</linearGradient>
<linearGradient id="paint9_linear" x1="69.335" y1="156.931" x2="90.9429" y2="156.931" gradientUnits="userSpaceOnUse">
<stop stop-color="white"/>
<stop offset="1" stop-color="#EEF2F5" stop-opacity="0"/>
</linearGradient>
<linearGradient id="paint10_linear" x1="71.5957" y1="150.718" x2="89.5635" y2="150.718" gradientUnits="userSpaceOnUse">
<stop stop-color="#FFF280"/>
<stop offset="1" stop-color="#FFE380"/>
</linearGradient>
<linearGradient id="paint11_linear" x1="80.5796" y1="142.549" x2="71.5957" y2="142.549" gradientUnits="userSpaceOnUse">
<stop stop-color="#F7A14D"/>
<stop offset="1" stop-color="#F0B616"/>
</linearGradient>
<linearGradient id="paint12_linear" x1="39.1184" y1="158.875" x2="39.1184" y2="125.98" gradientUnits="userSpaceOnUse">
<stop stop-color="#1E6458"/>
<stop offset="1" stop-color="#1ACC94"/>
</linearGradient>
<linearGradient id="paint13_linear" x1="0.579121" y1="161.368" x2="1.46703" y2="152.054" gradientUnits="userSpaceOnUse">
<stop stop-color="#318562"/>
<stop offset="1" stop-color="#1ACC94"/>
</linearGradient>
<linearGradient id="paint14_linear" x1="25.1924" y1="134.204" x2="25.1924" y2="163.574" gradientUnits="userSpaceOnUse">
<stop stop-color="#F8FAFB"/>
<stop offset="1" stop-color="#EEF2F5"/>
</linearGradient>
<linearGradient id="paint15_linear" x1="21.7109" y1="178.26" x2="8.52597" y2="175.134" gradientUnits="userSpaceOnUse">
<stop stop-color="#EEF2F5"/>
<stop offset="1" stop-color="#F8FAFB"/>
</linearGradient>
<linearGradient id="paint16_linear" x1="25.1924" y1="161.225" x2="0.821941" y2="161.225" gradientUnits="userSpaceOnUse">
<stop stop-color="#D5DFE6"/>
<stop offset="1" stop-color="#7790A3" stop-opacity="0.28"/>
</linearGradient>
<linearGradient id="paint17_linear" x1="28.6736" y1="139.784" x2="21.6604" y2="150.442" gradientUnits="userSpaceOnUse">
<stop stop-color="#4A5F6E"/>
<stop offset="1" stop-color="#4A5F6E"/>
</linearGradient>
<linearGradient id="paint18_linear" x1="20.6067" y1="141.521" x2="21.2638" y2="136.324" gradientUnits="userSpaceOnUse">
<stop stop-color="#5A7385"/>
<stop offset="1" stop-color="#D5DFE6"/>
</linearGradient>
<linearGradient id="paint19_linear" x1="44.6459" y1="151.56" x2="44.6459" y2="137.124" gradientUnits="userSpaceOnUse">
<stop stop-color="#2EE3AA"/>
<stop offset="1" stop-color="#92F1D3"/>
</linearGradient>
<linearGradient id="paint20_linear" x1="247.842" y1="131.493" x2="226.234" y2="131.493" gradientUnits="userSpaceOnUse">
<stop stop-color="white"/>
<stop offset="1" stop-color="#EEF2F5" stop-opacity="0"/>
</linearGradient>
<linearGradient id="paint21_linear" x1="245.986" y1="149.668" x2="228.019" y2="149.668" gradientUnits="userSpaceOnUse">
<stop stop-color="#FFF280"/>
<stop offset="1" stop-color="#FFE380"/>
</linearGradient>
<linearGradient id="paint22_linear" x1="237.001" y1="141.499" x2="245.985" y2="141.499" gradientUnits="userSpaceOnUse">
<stop stop-color="#F7A14D"/>
<stop offset="1" stop-color="#F0B616"/>
</linearGradient>
<linearGradient id="paint23_linear" x1="258.182" y1="158.879" x2="258.182" y2="125.984" gradientUnits="userSpaceOnUse">
<stop stop-color="#1E6458"/>
<stop offset="1" stop-color="#1ACC94"/>
</linearGradient>
<linearGradient id="paint24_linear" x1="316.877" y1="161.368" x2="315.989" y2="152.054" gradientUnits="userSpaceOnUse">
<stop stop-color="#318562"/>
<stop offset="1" stop-color="#1ACC94"/>
</linearGradient>
<linearGradient id="paint25_linear" x1="292.263" y1="134.203" x2="292.263" y2="163.574" gradientUnits="userSpaceOnUse">
<stop stop-color="#F8FAFB"/>
<stop offset="1" stop-color="#EEF2F5"/>
</linearGradient>
<linearGradient id="paint26_linear" x1="295.744" y1="178.259" x2="308.929" y2="175.133" gradientUnits="userSpaceOnUse">
<stop stop-color="#EEF2F5"/>
<stop offset="1" stop-color="#F8FAFB"/>
</linearGradient>
<linearGradient id="paint27_linear" x1="292.263" y1="161.224" x2="316.633" y2="161.224" gradientUnits="userSpaceOnUse">
<stop stop-color="#D5DFE6"/>
<stop offset="1" stop-color="#7790A3" stop-opacity="0.28"/>
</linearGradient>
<linearGradient id="paint28_linear" x1="288.781" y1="139.784" x2="295.795" y2="150.442" gradientUnits="userSpaceOnUse">
<stop stop-color="#4A5F6E"/>
<stop offset="1" stop-color="#4A5F6E"/>
</linearGradient>
<linearGradient id="paint29_linear" x1="296.847" y1="141.521" x2="296.19" y2="136.323" gradientUnits="userSpaceOnUse">
<stop stop-color="#5A7385"/>
<stop offset="1" stop-color="#D5DFE6"/>
</linearGradient>
<linearGradient id="paint30_linear" x1="272.074" y1="137.11" x2="272.074" y2="151.56" gradientUnits="userSpaceOnUse">
<stop stop-color="#2EE3AA" stop-opacity="0"/>
<stop offset="1" stop-color="#2EE3AA"/>
</linearGradient>
</defs>
</svg>
