<svg width="135" height="100" viewBox="0 0 135 100" fill="none" xmlns="http://www.w3.org/2000/svg">
<path d="M130.623 0L130.931 3.31583L134.247 3.62327L130.931 3.93072L130.623 7.24654L130.316 3.93072L127 3.62327L130.316 3.31583L130.623 0Z" fill="#FFFCE1"/>
<path d="M86.3987 11.5557L86.6041 13.7713L88.8198 13.9768L86.6041 14.1822L86.3987 16.3979L86.1932 14.1822L83.9775 13.9768L86.1932 13.7713L86.3987 11.5557Z" fill="#FFFCE1"/>
<path d="M55.3987 87.5557L55.6041 89.7713L57.8198 89.9768L55.6041 90.1822L55.3987 92.3979L55.1932 90.1822L52.9775 89.9768L55.1932 89.7713L55.3987 87.5557Z" fill="#FFFCE1"/>
<circle cx="31" cy="34" r="31" fill="url(#paint0_radial)"/>
<circle cx="31" cy="34" r="31" fill="url(#paint1_linear)" fill-opacity="0.5"/>
<circle cx="44.3415" cy="40.7644" r="5.31124" fill="url(#paint2_radial)"/>
<circle cx="17.6784" cy="21.8635" r="5.31124" fill="url(#paint3_radial)" fill-opacity="0.6"/>
<circle cx="20.2314" cy="50.6239" r="3.37004" fill="url(#paint4_radial)"/>
<circle cx="39.03" cy="21.8635" r="5.31124" fill="url(#paint5_radial)"/>
<mask id="mask0" mask-type="alpha" maskUnits="userSpaceOnUse" x="68" y="25" width="51" height="75">
<rect x="89.2324" y="25" width="31.1754" height="68.7109" transform="rotate(18 89.2324 25)" fill="white"/>
</mask>
<g mask="url(#mask0)">
<path d="M92.441 98.022L73.4815 91.8617L81.4958 77.4595L94.4227 81.6598L92.441 98.022Z" fill="url(#paint6_linear)"/>
<path d="M84.2375 91.0149C80.5235 83.9594 82.5851 80.5241 85.1971 77.1068L91.6362 79.199C91.7407 83.4989 91.3894 87.49 84.2375 91.0149Z" fill="url(#paint7_linear)"/>
<path d="M88.4164 78.1529C88.4164 78.1529 90.4665 82.7982 86.3268 84.584C84.0294 80.6999 88.4164 78.1529 88.4164 78.1529Z" fill="url(#paint8_linear)"/>
<path fill-rule="evenodd" clip-rule="evenodd" d="M105.993 73.3547L102.212 63.0829L98.5549 74.3372L103.427 81.2527L105.993 73.3547ZM77.0169 63.9405L86.1137 57.853L82.4569 69.1073L74.4507 71.8384L77.0169 63.9405Z" fill="#1ACC94"/>
<path d="M109.039 47.5263C109.506 54.431 102.607 68.1788 99.2664 74.3839C98.262 76.2495 96.0708 77.0851 94.0556 76.4304L84.8672 73.4448C82.852 72.7901 81.5704 70.8261 81.8544 68.7264C82.7988 61.7428 85.2972 46.5653 89.7282 41.2519C94.8637 42.9205 102.606 45.4363 109.039 47.5263Z" fill="white"/>
<path d="M89.7282 41.2519C92.9368 42.2944 99.3868 44.3902 99.3868 44.3902L89.4614 74.9376L84.8672 73.4448C82.852 72.7901 81.5704 70.8261 81.8544 68.7264C82.7988 61.7428 85.2972 46.5653 89.7282 41.2519Z" fill="#EEF2F5"/>
<path d="M83.0225 72.8464L79.8459 77.1455L95.9436 82.376L95.901 77.0297L83.0225 72.8464Z" fill="#1ACC94"/>
<path d="M99.4669 53.3037C98.9857 54.7847 97.3914 55.599 95.9021 55.1151C94.4127 54.6312 93.6015 53.0353 94.0827 51.5543C94.5639 50.0734 96.1583 49.2591 97.6476 49.743C99.1369 50.2269 99.9481 51.8228 99.4669 53.3037Z" fill="#8BDCFB" stroke="url(#paint9_linear)" stroke-width="4.49438"/>
<path d="M104.088 29.92C100.873 28.8755 92.3834 38.5568 89.7282 41.2516C89.7282 41.2516 96.1201 43.3284 99.3868 44.3898C102.559 45.4206 109.045 47.5281 109.045 47.5281C108.481 43.7873 107.308 30.9661 104.088 29.92Z" fill="url(#paint10_linear)"/>
</g>
<path fill-rule="evenodd" clip-rule="evenodd" d="M99.1541 57.1666C101.854 55.791 102.972 52.5752 101.652 49.9839C100.331 47.3926 97.0725 46.4071 94.3727 47.7827C91.673 49.1583 90.5547 52.3741 91.875 54.9654C93.1954 57.5567 96.4543 58.5422 99.1541 57.1666Z" fill="#1E6458"/>
<mask id="mask1" mask-type="alpha" maskUnits="userSpaceOnUse" x="89" y="45" width="16" height="15">
<path fill-rule="evenodd" clip-rule="evenodd" d="M99.1541 57.1666C101.854 55.791 102.972 52.5752 101.652 49.9839C100.331 47.3926 97.0725 46.4071 94.3727 47.7827C91.673 49.1583 90.5547 52.3741 91.875 54.9654C93.1954 57.5567 96.4543 58.5422 99.1541 57.1666Z" fill="white"/>
</mask>
<g mask="url(#mask1)">
<path fill-rule="evenodd" clip-rule="evenodd" d="M94.9649 44.5258L99.0826 45.7709L96.3066 49.1612L94.8508 48.7209L94.9649 44.5258Z" fill="#EEF2F5"/>
</g>
<mask id="mask2" mask-type="alpha" maskUnits="userSpaceOnUse" x="89" y="45" width="16" height="15">
<path fill-rule="evenodd" clip-rule="evenodd" d="M99.1541 57.1666C101.854 55.791 102.972 52.5752 101.652 49.9839C100.331 47.3926 97.0725 46.4071 94.3727 47.7827C91.673 49.1583 90.5547 52.3741 91.875 54.9654C93.1954 57.5567 96.4543 58.5422 99.1541 57.1666Z" fill="white"/>
</mask>
<g mask="url(#mask2)">
<path fill-rule="evenodd" clip-rule="evenodd" d="M97.8952 45.4117L98.8545 45.7018L98.9638 45.9163L96.3069 49.1611L96.0795 49.0923L97.8952 45.4117Z" fill="#EEF2F5"/>
</g>
<mask id="mask3" mask-type="alpha" maskUnits="userSpaceOnUse" x="89" y="45" width="16" height="15">
<path fill-rule="evenodd" clip-rule="evenodd" d="M99.1541 57.1666C101.854 55.791 102.972 52.5752 101.652 49.9839C100.331 47.3926 97.0725 46.4071 94.3727 47.7827C91.673 49.1583 90.5547 52.3741 91.875 54.9654C93.1954 57.5567 96.4543 58.5422 99.1541 57.1666Z" fill="white"/>
</mask>
<g mask="url(#mask3)">
<path d="M95.5407 53.0974L95.5781 48.9412" stroke="#2EE3AA" stroke-width="1.5" stroke-linecap="round" stroke-linejoin="round"/>
</g>
<mask id="mask4" mask-type="alpha" maskUnits="userSpaceOnUse" x="89" y="45" width="16" height="15">
<path fill-rule="evenodd" clip-rule="evenodd" d="M99.1541 57.1666C101.854 55.791 102.972 52.5752 101.652 49.9839C100.331 47.3926 97.0725 46.4071 94.3727 47.7827C91.673 49.1583 90.5547 52.3741 91.875 54.9654C93.1954 57.5567 96.4543 58.5422 99.1541 57.1666Z" fill="white"/>
</mask>
<g mask="url(#mask4)">
<path d="M93.3414 54.218L95.5787 48.941" stroke="white" stroke-width="1.5" stroke-linecap="round" stroke-linejoin="round"/>
</g>
<mask id="mask5" mask-type="alpha" maskUnits="userSpaceOnUse" x="89" y="45" width="16" height="15">
<path fill-rule="evenodd" clip-rule="evenodd" d="M99.1541 57.1666C101.854 55.791 102.972 52.5752 101.652 49.9839C100.331 47.3926 97.0725 46.4071 94.3727 47.7827C91.673 49.1583 90.5547 52.3741 91.875 54.9654C93.1954 57.5567 96.4543 58.5422 99.1541 57.1666Z" fill="white"/>
</mask>
<g mask="url(#mask5)">
<path d="M95.5781 48.9409L98.4683 52.1963" stroke="#2EE3AA" stroke-width="1.5" stroke-linecap="round" stroke-linejoin="round"/>
</g>
<mask id="mask6" mask-type="alpha" maskUnits="userSpaceOnUse" x="89" y="45" width="16" height="15">
<path fill-rule="evenodd" clip-rule="evenodd" d="M99.1541 57.1666C101.854 55.791 102.972 52.5752 101.652 49.9839C100.331 47.3926 97.0725 46.4071 94.3727 47.7827C91.673 49.1583 90.5547 52.3741 91.875 54.9654C93.1954 57.5567 96.4543 58.5422 99.1541 57.1666Z" fill="white"/>
</mask>
<g mask="url(#mask6)">
<path d="M95.5781 48.9409L100.663 51.6692" stroke="white" stroke-width="1.5" stroke-linecap="round" stroke-linejoin="round"/>
</g>
<mask id="mask7" mask-type="alpha" maskUnits="userSpaceOnUse" x="89" y="45" width="16" height="15">
<path fill-rule="evenodd" clip-rule="evenodd" d="M99.1541 57.1666C101.854 55.791 102.972 52.5752 101.652 49.9839C100.331 47.3926 97.0725 46.4071 94.3727 47.7827C91.673 49.1583 90.5547 52.3741 91.875 54.9654C93.1954 57.5567 96.4543 58.5422 99.1541 57.1666Z" fill="white"/>
</mask>
<g mask="url(#mask7)">
<path fill-rule="evenodd" clip-rule="evenodd" d="M94.5684 53.0018L100.672 51.5358C100.944 51.4703 101.217 51.6151 101.303 51.8712L102.161 54.432C102.254 54.708 102.097 55.0124 101.811 55.1119C101.804 55.1145 101.796 55.117 101.788 55.1193L94.3118 57.3763C94.0262 57.4625 93.73 57.3121 93.6454 57.0378L92.9541 54.7976C92.8922 54.597 92.9594 54.3757 93.1251 54.2342L94.5684 53.0018Z" fill="#2EE3AA"/>
</g>
<mask id="mask8" mask-type="alpha" maskUnits="userSpaceOnUse" x="89" y="45" width="16" height="15">
<path fill-rule="evenodd" clip-rule="evenodd" d="M99.1541 57.1666C101.854 55.791 102.972 52.5752 101.652 49.9839C100.331 47.3926 97.0725 46.4071 94.3727 47.7827C91.673 49.1583 90.5547 52.3741 91.875 54.9654C93.1954 57.5567 96.4543 58.5422 99.1541 57.1666Z" fill="white"/>
</mask>
<g mask="url(#mask8)">
<path fill-rule="evenodd" clip-rule="evenodd" d="M99.7896 53.2422C99.7071 53.2665 99.6483 53.3532 99.6587 53.4347L99.7371 54.0419C99.7455 54.1081 99.729 54.1725 99.6875 54.2352C99.646 54.2979 99.5912 54.3394 99.5231 54.3594C99.4569 54.3789 99.3969 54.3719 99.3432 54.3382C99.2894 54.3047 99.2582 54.2538 99.2495 54.1857L99.2016 53.8173C99.1835 53.7463 99.1127 53.7075 99.0362 53.73L98.8359 53.7891C98.7594 53.8116 98.7032 53.888 98.704 53.9641L98.7502 54.3329C98.759 54.4011 98.7425 54.466 98.7008 54.5277C98.6592 54.5895 98.6053 54.6301 98.5392 54.6496C98.473 54.6691 98.4125 54.6617 98.3576 54.6274C98.3027 54.5932 98.2711 54.5429 98.2626 54.4768L98.1597 53.6708C98.1506 53.592 98.082 53.5272 98.0019 53.5163C98.0019 53.5163 97.0636 53.4294 97.0026 53.4241C96.9408 53.4188 96.8912 53.4862 96.8922 53.574L96.8947 53.7836C96.8958 53.8714 96.9703 53.9497 97.0602 53.9574L97.6886 54.0141L97.7663 54.6231C97.7923 54.8274 97.8871 54.9808 98.0507 55.0829C98.2142 55.1852 98.3981 55.2061 98.6025 55.1458C98.7913 55.0902 98.9467 54.9787 99.0688 54.8114C99.227 54.8961 99.3996 54.9108 99.5865 54.8556C99.7908 54.7954 99.9563 54.6714 100.083 54.4836C100.209 54.2959 100.259 54.0998 100.233 53.8955C100.233 53.8955 100.151 53.253 100.149 53.2417C100.142 53.1858 100.069 53.1598 99.9865 53.1841L99.7896 53.2422Z" fill="white"/>
</g>
<mask id="mask9" mask-type="alpha" maskUnits="userSpaceOnUse" x="89" y="45" width="16" height="15">
<path fill-rule="evenodd" clip-rule="evenodd" d="M99.1541 57.1666C101.854 55.791 102.972 52.5752 101.652 49.9839C100.331 47.3926 97.0725 46.4071 94.3727 47.7827C91.673 49.1583 90.5547 52.3741 91.875 54.9654C93.1954 57.5567 96.4543 58.5422 99.1541 57.1666Z" fill="white"/>
</mask>
<g mask="url(#mask9)">
<path d="M95.8118 50.0042C96.2167 49.7978 96.3845 49.3155 96.1864 48.9268C95.9884 48.5381 95.4995 48.3903 95.0946 48.5966C94.6896 48.8029 94.5219 49.2853 94.7199 49.674C94.918 50.0627 95.4068 50.2105 95.8118 50.0042Z" fill="#EEF2F5"/>
<path d="M95.5724 49.5351C95.7073 49.4663 95.7633 49.3055 95.6972 49.176C95.6312 49.0464 95.4683 48.9971 95.3333 49.0659C95.1983 49.1347 95.1424 49.2955 95.2084 49.425C95.2744 49.5546 95.4374 49.6039 95.5724 49.5351Z" fill="#1E6458"/>
</g>
<mask id="mask10" mask-type="alpha" maskUnits="userSpaceOnUse" x="89" y="45" width="16" height="15">
<path fill-rule="evenodd" clip-rule="evenodd" d="M99.1541 57.1666C101.854 55.791 102.972 52.5752 101.652 49.9839C100.331 47.3926 97.0725 46.4071 94.3727 47.7827C91.673 49.1583 90.5547 52.3741 91.875 54.9654C93.1954 57.5567 96.4543 58.5422 99.1541 57.1666Z" fill="white"/>
</mask>
<g mask="url(#mask10)">
<path d="M94.6738 52.948L95.1967 52.7842L96.2506 56.3214L95.7276 56.4853L94.6738 52.948Z" fill="white" fill-opacity="0.01"/>
</g>
<mask id="mask11" mask-type="alpha" maskUnits="userSpaceOnUse" x="89" y="45" width="16" height="15">
<path fill-rule="evenodd" clip-rule="evenodd" d="M99.1541 57.1666C101.854 55.791 102.972 52.5752 101.652 49.9839C100.331 47.3926 97.0725 46.4071 94.3727 47.7827C91.673 49.1583 90.5547 52.3741 91.875 54.9654C93.1954 57.5567 96.4543 58.5422 99.1541 57.1666Z" fill="white"/>
</mask>
<g mask="url(#mask11)">
<path d="M93.6451 57.037L92.954 54.7975C92.8921 54.597 92.9593 54.3757 93.125 54.2342L94.5684 53.0018L95.9003 56.8931L94.3123 57.3752C94.0265 57.462 93.7298 57.3116 93.6451 57.037Z" fill="#EEF2F5"/>
</g>
<defs>
<radialGradient id="paint0_radial" cx="0" cy="0" r="1" gradientUnits="userSpaceOnUse" gradientTransform="translate(31 34) rotate(90) scale(31)">
<stop stop-color="white"/>
<stop offset="1" stop-color="white" stop-opacity="0.7"/>
</radialGradient>
<linearGradient id="paint1_linear" x1="13.9434" y1="7.28658" x2="31" y2="65" gradientUnits="userSpaceOnUse">
<stop stop-color="#EAE5BE"/>
<stop offset="1" stop-color="white" stop-opacity="0"/>
</linearGradient>
<radialGradient id="paint2_radial" cx="0" cy="0" r="1" gradientUnits="userSpaceOnUse" gradientTransform="translate(44.3415 40.7644) rotate(90) scale(5.31124)">
<stop stop-color="#ABB4BB"/>
<stop offset="1" stop-color="#D5DFE6" stop-opacity="0"/>
</radialGradient>
<radialGradient id="paint3_radial" cx="0" cy="0" r="1" gradientUnits="userSpaceOnUse" gradientTransform="translate(17.6784 21.8635) rotate(90) scale(5.31124)">
<stop stop-color="#BCC5CC"/>
<stop offset="1" stop-color="#D5DFE6" stop-opacity="0"/>
</radialGradient>
<radialGradient id="paint4_radial" cx="0" cy="0" r="1" gradientUnits="userSpaceOnUse" gradientTransform="translate(20.2314 50.6239) rotate(90) scale(3.37004)">
<stop stop-color="#BABABA"/>
<stop offset="1" stop-color="#D5DFE6" stop-opacity="0"/>
</radialGradient>
<radialGradient id="paint5_radial" cx="0" cy="0" r="1" gradientUnits="userSpaceOnUse" gradientTransform="translate(39.03 21.8635) rotate(90) scale(5.31124)">
<stop stop-color="#A5B0B8"/>
<stop offset="1" stop-color="#D5DFE6" stop-opacity="0.59"/>
</radialGradient>
<linearGradient id="paint6_linear" x1="78.4795" y1="76.4795" x2="73.4815" y2="91.8617" gradientUnits="userSpaceOnUse">
<stop stop-color="white"/>
<stop offset="1" stop-color="#EEF2F5" stop-opacity="0"/>
</linearGradient>
<linearGradient id="paint7_linear" x1="84.1787" y1="76.7759" x2="79.9996" y2="89.6379" gradientUnits="userSpaceOnUse">
<stop stop-color="#FFE380"/>
<stop offset="1" stop-color="#FFE380"/>
</linearGradient>
<linearGradient id="paint8_linear" x1="87.9366" y1="85.107" x2="90.0262" y2="78.676" gradientUnits="userSpaceOnUse">
<stop stop-color="#FFD560"/>
<stop offset="1" stop-color="#F0B616"/>
</linearGradient>
<linearGradient id="paint9_linear" x1="93.5127" y1="46.0366" x2="90.3783" y2="55.6832" gradientUnits="userSpaceOnUse">
<stop stop-color="#2F88EC"/>
<stop offset="1" stop-color="#2FB7EC"/>
</linearGradient>
<linearGradient id="paint10_linear" x1="104.088" y1="29.92" x2="99.3868" y2="44.3898" gradientUnits="userSpaceOnUse">
<stop stop-color="#92F1D3"/>
<stop offset="1" stop-color="#1ACC94"/>
</linearGradient>
</defs>
</svg>
