<svg width="473" height="193" viewBox="0 0 473 193" fill="none" xmlns="http://www.w3.org/2000/svg">
<mask id="mask0" mask-type="alpha" maskUnits="userSpaceOnUse" x="0" y="0" width="473" height="193">
<rect width="473" height="193" fill="#C4C4C4"/>
</mask>
<g mask="url(#mask0)">
<path opacity="0.1" d="M385.689 106.826C361.322 89.6028 231.655 124.008 211.902 124.137C211.369 124.14 210.972 124.563 211.017 125.095C212.556 143.274 318.567 124.453 320.433 124.12C320.492 124.11 320.43 124.116 320.49 124.116C322.411 124.118 410.18 124.135 385.689 106.826Z" fill="url(#paint0_radial)"/>
<path opacity="0.1" d="M379.665 86.8255C355.159 69.601 224.743 104.015 204.901 104.137C204.368 104.14 203.972 104.563 204.017 105.094C205.561 123.277 312.188 104.449 314.045 104.12C314.103 104.11 314.041 104.116 314.101 104.116C316.012 104.118 404.295 104.137 379.665 86.8255Z" fill="url(#paint1_radial)"/>
<path opacity="0.1" d="M379.665 126.826C355.159 109.601 224.743 144.015 204.901 144.137C204.368 144.14 203.972 144.563 204.017 145.094C205.561 163.277 312.188 144.449 314.045 144.12C314.103 144.11 314.041 144.116 314.101 144.116C316.012 144.118 404.295 144.137 379.665 126.826Z" fill="url(#paint2_radial)"/>
<path opacity="0.1" d="M379.665 126.826C355.159 109.601 224.743 144.015 204.901 144.137C204.368 144.14 203.972 144.563 204.017 145.094C205.561 163.277 312.188 144.449 314.045 144.12C314.103 144.11 314.041 144.116 314.101 144.116C316.012 144.118 404.295 144.137 379.665 126.826Z" fill="url(#paint3_radial)"/>
<path opacity="0.1" d="M229.665 26.8255C205.159 9.60103 74.7431 44.0151 54.9011 44.1366C54.3678 44.1398 53.9718 44.5627 54.0169 45.0941C55.5614 63.2766 162.188 44.4491 164.045 44.12C164.103 44.1096 164.041 44.1156 164.101 44.1157C166.012 44.1181 254.295 44.1372 229.665 26.8255Z" fill="url(#paint4_radial)"/>
<path opacity="0.1" d="M385.665 134.826C361.159 117.601 230.743 152.015 210.901 152.137C210.368 152.14 209.972 152.563 210.017 153.094C211.561 171.277 318.188 152.449 320.045 152.12C320.103 152.11 320.041 152.116 320.101 152.116C322.012 152.118 410.295 152.137 385.665 134.826Z" fill="url(#paint5_radial)"/>
<path opacity="0.1" d="M189.665 132.826C165.159 115.601 34.7431 150.015 14.9011 150.137C14.3678 150.14 13.9718 150.563 14.0169 151.094C15.5614 169.277 122.188 150.449 124.045 150.12C124.103 150.11 124.041 150.116 124.101 150.116C126.012 150.118 214.295 150.137 189.665 132.826Z" fill="url(#paint6_radial)"/>
<path opacity="0.1" d="M349.689 141.826C325.322 124.603 195.655 159.008 175.902 159.137C175.369 159.14 174.972 159.563 175.017 160.095C176.556 178.274 282.567 159.453 284.433 159.12C284.492 159.11 284.43 159.116 284.49 159.116C286.411 159.118 374.18 159.135 349.689 141.826Z" fill="url(#paint7_radial)"/>
<path opacity="0.1" d="M-16.2601 160.128C29.2281 160.78 373.636 125.411 437.778 142.826C502.135 160.298 268.716 160.116 267.959 160.116C267.958 160.116 267.957 160.116 267.957 160.116C267.956 160.116 267.956 160.116 267.955 160.116C267.211 160.167 -14.8556 179.544 -16.9878 160.904C-17.0395 160.452 -16.715 160.121 -16.2601 160.128Z" fill="url(#paint8_radial)"/>
<path opacity="0.1" d="M437.298 160.218C373.721 139.857 29.2978 157.165 -16.0551 154.219C-16.5075 154.19 -16.8398 154.501 -16.796 154.954C-15.017 173.368 266.744 168.617 267.477 168.605C267.5 168.604 267.458 168.604 267.48 168.605C268.225 168.643 501.089 180.647 437.298 160.218Z" fill="url(#paint9_radial)"/>
<path opacity="0.1" d="M-16.2601 80.128C29.2281 80.7798 373.636 45.4113 437.778 62.8255C502.135 80.2979 268.716 80.1163 267.959 80.1156C267.958 80.1156 267.957 80.1156 267.957 80.1156C267.956 80.1157 267.956 80.1157 267.955 80.1157C267.211 80.1669 -14.8556 99.5444 -16.9878 80.904C-17.0395 80.4521 -16.715 80.1215 -16.2601 80.128Z" fill="url(#paint10_radial)"/>
<path opacity="0.1" d="M457.778 91.6698C393.633 74.8165 49.1943 109.048 3.73317 108.414C3.28187 108.408 2.95697 108.734 3.01417 109.182C5.31545 127.194 287.235 108.45 287.955 108.402C287.978 108.401 287.936 108.402 287.958 108.402C288.692 108.403 522.138 108.58 457.778 91.6698Z" fill="url(#paint11_radial)"/>
<path opacity="0.1" d="M345.981 5.81022C295.136 -11.2234 33.4952 97.5491 -3.22446 98.0185C-3.70047 98.0246 -4.04713 98.4086 -3.97925 98.8798C-1.55126 115.732 213.098 58.8342 213.791 58.6505C213.812 58.6448 213.773 58.6539 213.794 58.6497C214.51 58.5103 397.066 22.9242 345.981 5.81022Z" fill="url(#paint12_radial)"/>
<path opacity="0.1" d="M435.669 45.8102C371.686 28.7478 41.9933 137.917 -3.25696 138.02C-3.70993 138.021 -4.04816 138.377 -3.98277 138.826C-1.49717 155.863 269.035 98.7705 269.605 98.6503C269.605 98.6502 269.605 98.6501 269.605 98.6501C269.606 98.65 269.606 98.65 269.607 98.6499C270.192 98.5592 499.89 62.9359 435.669 45.8102Z" fill="url(#paint13_radial)"/>
<path opacity="0.1" d="M435.669 45.8102C371.686 28.7478 41.9933 137.917 -3.25696 138.02C-3.70993 138.021 -4.04816 138.377 -3.98277 138.826C-1.49717 155.863 269.035 98.7705 269.605 98.6503C269.605 98.6502 269.605 98.6501 269.605 98.6501C269.606 98.65 269.606 98.65 269.607 98.6499C270.192 98.5592 499.89 62.9359 435.669 45.8102Z" fill="url(#paint14_radial)"/>
<path opacity="0.1" d="M435.669 45.8102C371.686 28.7478 41.9933 137.917 -3.25696 138.02C-3.70993 138.021 -4.04816 138.377 -3.98277 138.826C-1.49717 155.863 269.035 98.7705 269.605 98.6503C269.605 98.6502 269.605 98.6501 269.605 98.6501C269.606 98.65 269.606 98.65 269.607 98.6499C270.192 98.5592 499.89 62.9359 435.669 45.8102Z" fill="url(#paint15_radial)"/>
<path opacity="0.1" d="M435.669 24.2166C371.705 3.32992 42.1838 136.923 -3.21766 137.126C-3.69127 137.128 -4.02621 137.517 -3.99428 137.989C-2.55815 159.245 268.924 89.0947 269.604 88.9188C269.625 88.9133 269.586 88.9222 269.607 88.9181C270.308 88.7852 499.874 45.1816 435.669 24.2166Z" fill="url(#paint16_radial)"/>
<path opacity="0.1" d="M356.704 61.8102C304.288 44.7724 34.51 153.603 -3.22887 154.019C-3.70202 154.024 -4.04743 154.405 -3.9796 154.873C-1.53509 171.749 219.789 114.824 220.464 114.65C220.485 114.645 220.446 114.654 220.468 114.65C221.165 114.518 409.36 78.926 356.704 61.8102Z" fill="url(#paint17_radial)"/>
<path opacity="0.1" d="M432.391 118.688C376.027 84.7929 52.9751 147.588 10.7299 138.375C10.2632 138.273 9.88071 138.589 9.84831 139.069C8.41602 160.277 269.122 147.814 269.838 147.779C269.861 147.778 269.819 147.779 269.842 147.779C270.573 147.796 488.977 152.718 432.391 118.688Z" fill="url(#paint18_radial)"/>
<mask id="mask1" mask-type="alpha" maskUnits="userSpaceOnUse" x="150" y="-1" width="188" height="188">
<rect x="279.172" y="-1" width="82.8833" height="182.676" transform="rotate(45 279.172 -1)" fill="white"/>
</mask>
<g mask="url(#mask1)">
<path d="M198.636 175.851L161.16 138.375L197.528 113.931L223.08 139.484L198.636 175.851Z" fill="url(#paint19_linear)"/>
<path d="M187.661 149.351C187.379 128.154 196.409 122.505 206.721 117.563L219.449 130.291C214.507 140.603 208.857 149.633 187.661 149.351Z" fill="url(#paint20_linear)"/>
<path d="M213.084 123.927C213.084 123.927 212.334 137.405 200.372 136.639C199.618 124.665 213.084 123.927 213.084 123.927Z" fill="url(#paint21_linear)"/>
<path fill-rule="evenodd" clip-rule="evenodd" d="M203.237 76.499L232.133 73.0585L209.887 95.3045L187.625 92.1106L203.237 76.499ZM260.513 133.775L263.953 104.878L241.707 127.124L244.901 149.386L260.513 133.775Z" fill="#1ACC94"/>
<path d="M298.902 76.2672C290.743 95.3656 249.829 123.791 238.35 131.495C236.59 132.675 234.281 132.41 232.782 130.912L206.099 104.229C204.601 102.731 204.336 100.421 205.517 98.6618C213.22 87.1823 241.644 46.2671 260.731 38.0966C270.882 48.2477 286.187 63.5525 298.902 76.2672Z" fill="white"/>
<path d="M260.731 38.0966C267.073 44.4388 279.823 57.1885 279.823 57.1885L219.441 117.571L206.099 104.229C204.601 102.731 204.336 100.421 205.517 98.6618C213.22 87.1823 241.644 46.2671 260.731 38.0966Z" fill="#EEF2F5"/>
<path d="M206.711 104.845L193.997 111.195L225.817 143.014L232.169 130.298L206.711 104.845Z" fill="#1ACC94"/>
<path d="M271.89 81.0354C267.504 85.4215 260.384 85.4199 255.988 81.0235C251.591 76.6272 251.59 69.5076 255.976 65.1216C260.362 60.7355 267.481 60.7371 271.878 65.1335C276.274 69.5298 276.276 76.6494 271.89 81.0354Z" fill="#8BDCFB" stroke="url(#paint22_linear)" stroke-width="4.49438"/>
<path d="M308.425 28.5863C302.07 22.2316 270.273 34.918 260.731 38.0965C260.731 38.0965 273.366 50.7312 279.823 57.1883C286.094 63.4591 298.915 76.2802 298.915 76.2802C302.093 66.7378 314.789 34.9502 308.425 28.5863Z" fill="url(#paint23_linear)"/>
</g>
<path fill-rule="evenodd" clip-rule="evenodd" d="M263.851 87.1728C271.906 87.1728 278.437 80.9048 278.437 73.1728C278.437 65.4409 271.906 59.1729 263.851 59.1729C255.795 59.1729 249.265 65.4409 249.265 73.1728C249.265 80.9048 255.795 87.1728 263.851 87.1728Z" fill="#1E6458"/>
<mask id="mask2" mask-type="alpha" maskUnits="userSpaceOnUse" x="249" y="59" width="30" height="29">
<path fill-rule="evenodd" clip-rule="evenodd" d="M263.851 87.1728C271.906 87.1728 278.437 80.9048 278.437 73.1728C278.437 65.4409 271.906 59.1729 263.851 59.1729C255.795 59.1729 249.265 65.4409 249.265 73.1728C249.265 80.9048 255.795 87.1728 263.851 87.1728Z" fill="white"/>
</mask>
<g mask="url(#mask2)">
<path fill-rule="evenodd" clip-rule="evenodd" d="M269.184 52.1728L277.435 60.0924L266.767 64.7728L263.85 61.9728L269.184 52.1728Z" fill="#EEF2F5"/>
</g>
<mask id="mask3" mask-type="alpha" maskUnits="userSpaceOnUse" x="249" y="59" width="30" height="29">
<path fill-rule="evenodd" clip-rule="evenodd" d="M263.851 87.1728C271.906 87.1728 278.437 80.9048 278.437 73.1728C278.437 65.4409 271.906 59.1729 263.851 59.1729C255.795 59.1729 249.265 65.4409 249.265 73.1728C249.265 80.9048 255.795 87.1728 263.851 87.1728Z" fill="white"/>
</mask>
<g mask="url(#mask3)">
<path fill-rule="evenodd" clip-rule="evenodd" d="M275.056 57.8081L276.979 59.6533V60.2933L266.768 64.7729L266.312 64.3354L275.056 57.8081Z" fill="#EEF2F5"/>
</g>
<mask id="mask4" mask-type="alpha" maskUnits="userSpaceOnUse" x="249" y="59" width="30" height="29">
<path fill-rule="evenodd" clip-rule="evenodd" d="M263.851 87.1728C271.906 87.1728 278.437 80.9048 278.437 73.1728C278.437 65.4409 271.906 59.1729 263.851 59.1729C255.795 59.1729 249.265 65.4409 249.265 73.1728C249.265 80.9048 255.795 87.1728 263.851 87.1728Z" fill="white"/>
</mask>
<g mask="url(#mask4)">
<path d="M260.204 73.1728L265.309 63.3728" stroke="#2EE3AA" stroke-width="1.5" stroke-linecap="round" stroke-linejoin="round"/>
</g>
<mask id="mask5" mask-type="alpha" maskUnits="userSpaceOnUse" x="249" y="59" width="30" height="29">
<path fill-rule="evenodd" clip-rule="evenodd" d="M263.851 87.1728C271.906 87.1728 278.437 80.9048 278.437 73.1728C278.437 65.4409 271.906 59.1729 263.851 59.1729C255.795 59.1729 249.265 65.4409 249.265 73.1728C249.265 80.9048 255.795 87.1728 263.851 87.1728Z" fill="white"/>
</mask>
<g mask="url(#mask5)">
<path d="M253.641 73.1728L265.309 63.3728" stroke="white" stroke-width="1.5" stroke-linecap="round" stroke-linejoin="round"/>
</g>
<mask id="mask6" mask-type="alpha" maskUnits="userSpaceOnUse" x="249" y="59" width="30" height="29">
<path fill-rule="evenodd" clip-rule="evenodd" d="M263.851 87.1728C271.906 87.1728 278.437 80.9048 278.437 73.1728C278.437 65.4409 271.906 59.1729 263.851 59.1729C255.795 59.1729 249.265 65.4409 249.265 73.1728C249.265 80.9048 255.795 87.1728 263.851 87.1728Z" fill="white"/>
</mask>
<g mask="url(#mask6)">
<path d="M265.309 63.3728L268.226 74.5728" stroke="#2EE3AA" stroke-width="1.5" stroke-linecap="round" stroke-linejoin="round"/>
</g>
<mask id="mask7" mask-type="alpha" maskUnits="userSpaceOnUse" x="249" y="59" width="30" height="29">
<path fill-rule="evenodd" clip-rule="evenodd" d="M263.851 87.1728C271.906 87.1728 278.437 80.9048 278.437 73.1728C278.437 65.4409 271.906 59.1729 263.851 59.1729C255.795 59.1729 249.265 65.4409 249.265 73.1728C249.265 80.9048 255.795 87.1728 263.851 87.1728Z" fill="white"/>
</mask>
<g mask="url(#mask7)">
<path d="M265.309 63.3728L274.06 75.9728" stroke="white" stroke-width="1.5" stroke-linecap="round" stroke-linejoin="round"/>
</g>
<mask id="mask8" mask-type="alpha" maskUnits="userSpaceOnUse" x="249" y="59" width="30" height="29">
<path fill-rule="evenodd" clip-rule="evenodd" d="M263.851 87.1728C271.906 87.1728 278.437 80.9048 278.437 73.1728C278.437 65.4409 271.906 59.1729 263.851 59.1729C255.795 59.1729 249.265 65.4409 249.265 73.1728C249.265 80.9048 255.795 87.1728 263.851 87.1728Z" fill="white"/>
</mask>
<g mask="url(#mask8)">
<path fill-rule="evenodd" clip-rule="evenodd" d="M258.016 71.7727L274.243 75.6665C274.968 75.8405 275.439 76.5124 275.333 77.2227L274.276 84.3252C274.162 85.0906 273.423 85.6225 272.625 85.5131C272.605 85.5103 272.584 85.507 272.563 85.5032L252.128 81.8255C251.347 81.6851 250.827 80.9712 250.958 80.2194L252.024 74.0781C252.119 73.5283 252.546 73.0853 253.109 72.9501L258.016 71.7727Z" fill="#2EE3AA"/>
</g>
<mask id="mask9" mask-type="alpha" maskUnits="userSpaceOnUse" x="249" y="59" width="30" height="29">
<path fill-rule="evenodd" clip-rule="evenodd" d="M263.851 87.1728C271.906 87.1728 278.437 80.9048 278.437 73.1728C278.437 65.4409 271.906 59.1729 263.851 59.1729C255.795 59.1729 249.265 65.4409 249.265 73.1728C249.265 80.9048 255.795 87.1728 263.851 87.1728Z" fill="white"/>
</mask>
<g mask="url(#mask9)">
<path fill-rule="evenodd" clip-rule="evenodd" d="M270.093 78.6436C269.869 78.6017 269.625 78.7359 269.551 78.9416L269.004 80.4746C268.944 80.6415 268.827 80.7742 268.653 80.8727C268.479 80.9712 268.299 81.0031 268.114 80.9685C267.933 80.9349 267.8 80.8458 267.713 80.7012C267.626 80.5567 267.614 80.3986 267.675 80.2267L268.006 79.2963C268.049 79.1062 267.928 78.9287 267.72 78.8898L267.174 78.788C266.966 78.7491 266.74 78.862 266.65 79.0433L266.315 79.9729C266.253 80.1448 266.136 80.2786 265.963 80.3746C265.79 80.4708 265.613 80.5019 265.433 80.4683C265.252 80.4347 265.118 80.3441 265.029 80.1966C264.941 80.0492 264.926 79.892 264.986 79.725L265.715 77.6916C265.789 77.4941 265.705 77.2576 265.528 77.135C265.528 77.135 263.41 75.7969 263.272 75.7105C263.132 75.6234 262.933 75.7232 262.83 75.9324L262.582 76.4321C262.479 76.6414 262.561 76.9165 262.765 77.0435L264.185 77.9362L263.634 79.4727C263.449 79.988 263.488 80.4657 263.752 80.9051C264.016 81.3447 264.427 81.6163 264.984 81.7202C265.498 81.8161 266.001 81.7398 266.492 81.4908C266.764 81.8823 267.156 82.1254 267.665 82.2204C268.222 82.3243 268.763 82.2304 269.29 81.9382C269.816 81.6463 270.171 81.2422 270.356 80.7269C270.356 80.7269 270.936 79.105 270.946 79.0766C270.996 78.9353 270.854 78.7856 270.63 78.7437L270.093 78.6436Z" fill="white"/>
</g>
<mask id="mask10" mask-type="alpha" maskUnits="userSpaceOnUse" x="249" y="59" width="30" height="29">
<path fill-rule="evenodd" clip-rule="evenodd" d="M263.851 87.1728C271.906 87.1728 278.437 80.9048 278.437 73.1728C278.437 65.4409 271.906 59.1729 263.851 59.1729C255.795 59.1729 249.265 65.4409 249.265 73.1728C249.265 80.9048 255.795 87.1728 263.851 87.1728Z" fill="white"/>
</mask>
<g mask="url(#mask10)">
<path d="M264.58 66.1729C265.788 66.1729 266.767 65.2327 266.767 64.0729C266.767 62.9131 265.788 61.9729 264.58 61.9729C263.371 61.9729 262.392 62.9131 262.392 64.0729C262.392 65.2327 263.371 66.1729 264.58 66.1729Z" fill="#EEF2F5"/>
<path d="M264.58 64.7728C264.983 64.7728 265.309 64.4594 265.309 64.0728C265.309 63.6862 264.983 63.3728 264.58 63.3728C264.177 63.3728 263.851 63.6862 263.851 64.0728C263.851 64.4594 264.177 64.7728 264.58 64.7728Z" fill="#1E6458"/>
</g>
<mask id="mask11" mask-type="alpha" maskUnits="userSpaceOnUse" x="249" y="59" width="30" height="29">
<path fill-rule="evenodd" clip-rule="evenodd" d="M263.851 87.1728C271.906 87.1728 278.437 80.9048 278.437 73.1728C278.437 65.4409 271.906 59.1729 263.851 59.1729C255.795 59.1729 249.265 65.4409 249.265 73.1728C249.265 80.9048 255.795 87.1728 263.851 87.1728Z" fill="white"/>
</mask>
<g mask="url(#mask11)">
<path d="M258.33 71.7728L259.766 72.0159L257.993 81.667L256.557 81.4239L258.33 71.7728Z" fill="white" fill-opacity="0.01"/>
</g>
<mask id="mask12" mask-type="alpha" maskUnits="userSpaceOnUse" x="249" y="59" width="30" height="29">
<path fill-rule="evenodd" clip-rule="evenodd" d="M263.851 87.1728C271.906 87.1728 278.437 80.9048 278.437 73.1728C278.437 65.4409 271.906 59.1729 263.851 59.1729C255.795 59.1729 249.265 65.4409 249.265 73.1728C249.265 80.9048 255.795 87.1728 263.851 87.1728Z" fill="white"/>
</mask>
<g mask="url(#mask12)">
<path d="M250.958 80.2171L252.024 74.0781C252.119 73.5283 252.546 73.0852 253.109 72.95L258.016 71.7727L256.474 82.5984L252.13 81.8237C251.349 81.6843 250.827 80.9698 250.958 80.2171Z" fill="#EEF2F5"/>
</g>
<path opacity="0.5" d="M44.2101 162.766L62.8774 181.434L76.3652 162.006L63.6375 149.279L44.2101 162.766Z" fill="url(#paint24_linear)"/>
<path d="M54.6867 171.141C66.096 171.293 69.1369 166.432 71.7973 160.882L64.9462 154.03C59.3955 156.691 54.5348 159.732 54.6867 171.141Z" fill="url(#paint25_linear)"/>
<path d="M68.3722 157.456C68.3722 157.456 61.1172 157.86 61.5297 164.298C67.9747 164.704 68.3722 157.456 68.3722 157.456Z" fill="url(#paint26_linear)"/>
<path fill-rule="evenodd" clip-rule="evenodd" d="M91.1487 109.549L114.435 132.836L118.014 136.415L81.7752 172.654C81.287 173.142 80.4955 173.142 80.0074 172.654L78.196 170.843C77.7078 170.355 77.7078 169.563 78.196 169.075L79.0799 168.191L55.7933 144.905C54.817 143.928 54.817 142.345 55.7933 141.369L87.6132 109.549C88.5895 108.573 90.1724 108.573 91.1487 109.549Z" fill="#1E6458"/>
<path d="M91.1486 109.549C90.1723 108.573 88.5894 108.573 87.6131 109.549L75.2387 121.924L93.2219 154.049L114.435 132.836L91.1486 109.549Z" fill="url(#paint27_linear)"/>
<path d="M77.8585 171.399C77.3703 170.911 77.3703 170.119 77.8585 169.631L114.519 132.971L118.098 136.55L81.4377 173.21C80.9495 173.699 80.1581 173.699 79.6699 173.21L77.8585 171.399Z" fill="url(#paint28_linear)"/>
<path d="M135.692 118.737L118.014 136.415L95.6445 114.045L103.791 105.898C104.198 105.492 104.829 105.415 105.321 105.712L113.409 110.597L124.283 108.151C124.701 108.057 125.138 108.184 125.441 108.487L132.113 115.158C132.601 114.67 133.397 114.675 133.892 115.169L135.681 116.959C136.175 117.453 136.18 118.249 135.692 118.737Z" fill="url(#paint29_linear)"/>
<path fill-rule="evenodd" clip-rule="evenodd" d="M91.949 131.886C91.1993 131.137 89.9756 131.111 89.2567 131.83L87.3575 133.43L83.8653 131.572C83.8163 131.571 83.7913 131.546 83.7424 131.545C83.1529 131.435 82.5446 131.594 82.0894 132.049L75.1273 139.011C74.4564 139.682 74.8409 140.799 75.4187 141.52L72.8035 144.136C72.5159 144.423 72.5262 144.913 72.826 145.212C73.1258 145.512 73.6153 145.523 73.9029 145.235L76.481 142.657C76.7946 142.443 77.2111 142.476 77.486 142.751C77.7858 143.051 77.7961 143.541 77.5085 143.828L76.2329 145.104C75.9454 145.391 75.9556 145.881 76.2555 146.181C76.5553 146.481 77.0448 146.491 77.3324 146.203L78.257 145.279L79.6716 143.864C79.9592 143.576 80.4487 143.587 80.7485 143.886C81.0484 144.186 81.0586 144.676 80.771 144.963L79.5414 146.193C79.2128 146.522 79.2231 147.011 79.5229 147.311C79.8227 147.611 80.3122 147.621 80.5998 147.333L81.3808 146.552C81.1203 146.963 81.2055 147.527 81.5803 147.902L82.5797 148.902C83.0045 149.326 83.7148 149.366 84.1461 148.934L84.9444 148.136C86.0586 148.771 87.499 148.63 88.4096 147.719C89.3442 146.785 89.4613 145.368 88.8264 144.254L91.7071 141.373C92.8212 142.008 94.2617 141.867 95.1722 140.957C96.1068 140.022 96.2239 138.606 95.589 137.492L96.5236 136.557C96.931 136.15 96.9406 135.44 96.4908 134.991L95.4913 133.991C94.9937 133.589 94.3323 133.551 93.9479 133.885L91.949 131.886Z" fill="#92F1D3"/>
<path d="M95.6445 114.045L100.948 108.742L123.318 131.112L118.014 136.415L95.6445 114.045Z" fill="url(#paint30_linear)"/>
<path fill-rule="evenodd" clip-rule="evenodd" d="M105.908 120.772C105.664 120.528 105.664 120.132 105.908 119.888L108.559 117.237C108.803 116.993 109.199 116.993 109.443 117.237L109.902 117.695C110.146 117.939 110.146 118.335 109.902 118.579L107.25 121.231C107.006 121.475 106.61 121.475 106.366 121.231L105.908 120.772Z" fill="#C4CDD5"/>
<path d="M114.436 132.836L132.113 115.158C132.601 114.67 133.393 114.67 133.881 115.158L135.692 116.969C136.181 117.458 136.181 118.249 135.692 118.737L118.015 136.415L114.436 132.836Z" fill="url(#paint31_linear)"/>
<path d="M96.867 168.3C99.796 165.371 99.7666 160.593 96.8015 157.628C93.8365 154.663 89.0584 154.634 86.1295 157.563C83.2005 160.492 83.2299 165.27 86.1949 168.235C89.16 171.2 93.9381 171.229 96.867 168.3Z" fill="#393939"/>
<path d="M132.222 132.945C135.151 130.016 135.122 125.238 132.157 122.273C129.192 119.308 124.414 119.279 121.485 122.207C118.556 125.136 118.585 129.914 121.55 132.88C124.516 135.845 129.294 135.874 132.222 132.945Z" fill="#393939"/>
<path d="M128.643 129.366C129.619 128.389 129.609 126.797 128.621 125.808C127.633 124.82 126.04 124.81 125.064 125.786C124.087 126.763 124.097 128.355 125.085 129.344C126.074 130.332 127.667 130.342 128.643 129.366Z" fill="#7790A3"/>
<path d="M93.2874 164.721C94.2637 163.745 94.2539 162.152 93.2656 161.164C92.2772 160.175 90.6845 160.166 89.7082 161.142C88.7319 162.118 88.7417 163.711 89.73 164.699C90.7184 165.688 92.3111 165.697 93.2874 164.721Z" fill="#7790A3"/>
<path d="M99.6388 114.503C99.1506 114.015 99.1506 113.224 99.6388 112.736L106.158 106.216L113.41 110.597L105.455 118.552C104.967 119.04 104.175 119.04 103.687 118.552L99.6388 114.503Z" fill="url(#paint32_linear)"/>
<path d="M85.3114 169.119C81.8521 165.659 81.8179 160.085 85.235 156.668C88.6521 153.251 94.2265 153.285 97.6858 156.744L96.8019 157.628C93.8368 154.663 89.0588 154.634 86.1298 157.563C83.2009 160.492 83.2302 165.27 86.1953 168.235L85.3114 169.119Z" fill="#D5DFE6"/>
<path d="M120.666 133.763C117.207 130.304 117.172 124.73 120.59 121.313C124.007 117.895 129.581 117.93 133.04 121.389L132.156 122.273C129.191 119.308 124.413 119.278 121.484 122.207C118.555 125.136 118.585 129.914 121.55 132.879L120.666 133.763Z" fill="#D5DFE6"/>
<path fill-rule="evenodd" clip-rule="evenodd" d="M106.339 117.668L113.41 110.597L106.136 106.238L102.147 110.227L106.339 117.668Z" fill="url(#paint33_linear)"/>
<path d="M89.0774 146.644L81.3318 132.807L82.0894 132.049C82.5447 131.594 83.153 131.435 83.7424 131.546C83.7914 131.547 83.8164 131.572 83.8653 131.573L87.3576 133.43L89.2568 131.83C89.9757 131.111 91.1994 131.137 91.949 131.887L93.948 133.886C94.3324 133.551 94.9937 133.589 95.4914 133.991L96.4909 134.991C96.9407 135.44 96.931 136.15 96.5237 136.557L95.5891 137.492C96.224 138.606 96.1069 140.022 95.1723 140.957C94.2617 141.867 92.8213 142.009 91.7071 141.374L88.8265 144.254C89.248 144.994 89.338 145.867 89.0774 146.644L89.0774 146.644Z" fill="url(#paint34_linear)"/>
<path opacity="0.5" d="M309.21 162.766L327.877 181.434L341.365 162.006L328.637 149.279L309.21 162.766Z" fill="url(#paint35_linear)"/>
<path d="M319.687 171.141C331.096 171.293 334.137 166.432 336.797 160.882L329.946 154.03C324.396 156.691 319.535 159.732 319.687 171.141Z" fill="url(#paint36_linear)"/>
<path d="M333.372 157.456C333.372 157.456 326.117 157.86 326.53 164.298C332.975 164.704 333.372 157.456 333.372 157.456Z" fill="url(#paint37_linear)"/>
<path fill-rule="evenodd" clip-rule="evenodd" d="M356.149 109.549L379.435 132.836L383.014 136.415L346.775 172.654C346.287 173.142 345.496 173.142 345.007 172.654L343.196 170.843C342.708 170.355 342.708 169.563 343.196 169.075L344.08 168.191L320.793 144.905C319.817 143.928 319.817 142.345 320.793 141.369L352.613 109.549C353.589 108.573 355.172 108.573 356.149 109.549Z" fill="#1E6458"/>
<path d="M356.149 109.549C355.172 108.573 353.589 108.573 352.613 109.549L340.239 121.924L358.222 154.049L379.435 132.836L356.149 109.549Z" fill="url(#paint38_linear)"/>
<path d="M342.858 171.399C342.37 170.911 342.37 170.119 342.858 169.631L379.519 132.971L383.098 136.55L346.438 173.21C345.95 173.699 345.158 173.699 344.67 173.21L342.858 171.399Z" fill="url(#paint39_linear)"/>
<path d="M400.692 118.737L383.014 136.415L360.645 114.045L368.791 105.898C369.198 105.492 369.829 105.415 370.321 105.712L378.409 110.597L389.283 108.151C389.701 108.057 390.138 108.184 390.441 108.487L397.113 115.158C397.601 114.67 398.397 114.675 398.892 115.169L400.681 116.959C401.175 117.453 401.18 118.249 400.692 118.737Z" fill="url(#paint40_linear)"/>
<path fill-rule="evenodd" clip-rule="evenodd" d="M356.949 131.886C356.199 131.137 354.976 131.111 354.257 131.83L352.358 133.43L348.865 131.572C348.816 131.571 348.791 131.546 348.742 131.545C348.153 131.435 347.545 131.594 347.089 132.049L340.127 139.011C339.456 139.682 339.841 140.799 340.419 141.52L337.803 144.136C337.516 144.423 337.526 144.913 337.826 145.212C338.126 145.512 338.615 145.523 338.903 145.235L341.481 142.657C341.795 142.443 342.211 142.476 342.486 142.751C342.786 143.051 342.796 143.541 342.509 143.828L341.233 145.104C340.945 145.391 340.956 145.881 341.255 146.181C341.555 146.481 342.045 146.491 342.332 146.203L343.257 145.279L344.672 143.864C344.959 143.576 345.449 143.587 345.749 143.886C346.048 144.186 346.059 144.676 345.771 144.963L344.541 146.193C344.213 146.522 344.223 147.011 344.523 147.311C344.823 147.611 345.312 147.621 345.6 147.333L346.381 146.552C346.12 146.963 346.205 147.527 346.58 147.902L347.58 148.902C348.005 149.326 348.715 149.366 349.146 148.934L349.944 148.136C351.059 148.771 352.499 148.63 353.41 147.719C354.344 146.785 354.461 145.368 353.826 144.254L356.707 141.373C357.821 142.008 359.262 141.867 360.172 140.957C361.107 140.022 361.224 138.606 360.589 137.492L361.524 136.557C361.931 136.15 361.941 135.44 361.491 134.991L360.491 133.991C359.994 133.589 359.332 133.551 358.948 133.885L356.949 131.886Z" fill="#92F1D3"/>
<path d="M360.645 114.045L365.948 108.742L388.318 131.112L383.014 136.415L360.645 114.045Z" fill="url(#paint41_linear)"/>
<path fill-rule="evenodd" clip-rule="evenodd" d="M370.908 120.772C370.664 120.528 370.664 120.132 370.908 119.888L373.559 117.237C373.803 116.993 374.199 116.993 374.443 117.237L374.902 117.695C375.146 117.939 375.146 118.335 374.902 118.579L372.25 121.231C372.006 121.475 371.61 121.475 371.366 121.231L370.908 120.772Z" fill="#C4CDD5"/>
<path d="M379.436 132.836L397.113 115.158C397.601 114.67 398.393 114.67 398.881 115.158L400.692 116.969C401.181 117.458 401.181 118.249 400.692 118.737L383.015 136.415L379.436 132.836Z" fill="url(#paint42_linear)"/>
<path d="M361.867 168.3C364.796 165.371 364.767 160.593 361.802 157.628C358.836 154.663 354.058 154.634 351.129 157.563C348.201 160.492 348.23 165.27 351.195 168.235C354.16 171.2 358.938 171.229 361.867 168.3Z" fill="#393939"/>
<path d="M397.222 132.945C400.151 130.016 400.122 125.238 397.157 122.273C394.192 119.308 389.414 119.279 386.485 122.207C383.556 125.136 383.585 129.914 386.55 132.88C389.516 135.845 394.294 135.874 397.222 132.945Z" fill="#393939"/>
<path d="M393.643 129.366C394.619 128.389 394.609 126.797 393.621 125.808C392.633 124.82 391.04 124.81 390.064 125.786C389.087 126.763 389.097 128.355 390.085 129.344C391.074 130.332 392.667 130.342 393.643 129.366Z" fill="#7790A3"/>
<path d="M358.287 164.721C359.264 163.745 359.254 162.152 358.266 161.164C357.277 160.175 355.685 160.166 354.708 161.142C353.732 162.118 353.742 163.711 354.73 164.699C355.718 165.688 357.311 165.697 358.287 164.721Z" fill="#7790A3"/>
<path d="M364.639 114.503C364.151 114.015 364.151 113.224 364.639 112.736L371.158 106.216L378.41 110.597L370.455 118.552C369.967 119.04 369.175 119.04 368.687 118.552L364.639 114.503Z" fill="url(#paint43_linear)"/>
<path d="M350.311 169.119C346.852 165.659 346.818 160.085 350.235 156.668C353.652 153.251 359.227 153.285 362.686 156.744L361.802 157.628C358.837 154.663 354.059 154.634 351.13 157.563C348.201 160.492 348.23 165.27 351.195 168.235L350.311 169.119Z" fill="#D5DFE6"/>
<path d="M385.666 133.763C382.207 130.304 382.172 124.73 385.59 121.313C389.007 117.895 394.581 117.93 398.04 121.389L397.156 122.273C394.191 119.308 389.413 119.278 386.484 122.207C383.555 125.136 383.585 129.914 386.55 132.879L385.666 133.763Z" fill="#D5DFE6"/>
<path fill-rule="evenodd" clip-rule="evenodd" d="M371.339 117.668L378.41 110.597L371.136 106.238L367.147 110.227L371.339 117.668Z" fill="url(#paint44_linear)"/>
<path d="M354.077 146.644L346.332 132.807L347.089 132.049C347.545 131.594 348.153 131.435 348.742 131.546C348.791 131.547 348.816 131.572 348.865 131.573L352.358 133.43L354.257 131.83C354.976 131.111 356.199 131.137 356.949 131.887L358.948 133.886C359.332 133.551 359.994 133.589 360.491 133.991L361.491 134.991C361.941 135.44 361.931 136.15 361.524 136.557L360.589 137.492C361.224 138.606 361.107 140.022 360.172 140.957C359.262 141.867 357.821 142.009 356.707 141.374L353.826 144.254C354.248 144.994 354.338 145.867 354.077 146.644L354.077 146.644Z" fill="url(#paint45_linear)"/>
<circle cx="118.794" cy="27.7939" r="13.7939" fill="url(#paint46_radial)"/>
<circle cx="118.794" cy="27.7939" r="13.7939" fill="url(#paint47_linear)" fill-opacity="0.5"/>
<circle cx="124.731" cy="30.8038" r="2.36332" fill="url(#paint48_radial)"/>
<circle cx="112.866" cy="22.3938" r="2.36332" fill="url(#paint49_radial)" fill-opacity="0.6"/>
<circle cx="114.002" cy="35.191" r="1.49955" fill="url(#paint50_radial)"/>
<circle cx="122.367" cy="22.3938" r="2.36332" fill="url(#paint51_radial)"/>
<path d="M109.623 60L109.931 63.3158L113.247 63.6233L109.931 63.9307L109.623 67.2465L109.316 63.9307L106 63.6233L109.316 63.3158L109.623 60Z" fill="#FFFCE1"/>
<path d="M44.1965 3.55542L44.504 6.87125L47.8198 7.17869L44.504 7.48614L44.1965 10.802L43.8891 7.48614L40.5732 7.17869L43.8891 6.87125L44.1965 3.55542Z" fill="#FFFCE1"/>
<path d="M176.189 3.55542L176.412 5.96252L178.819 6.1857L176.412 6.40889L176.189 8.81599L175.966 6.40889L173.559 6.1857L175.966 5.96252L176.189 3.55542Z" fill="#FFFCE1"/>
<path d="M326.189 47.5554L326.412 49.9625L328.819 50.1857L326.412 50.4089L326.189 52.816L325.966 50.4089L323.559 50.1857L325.966 49.9625L326.189 47.5554Z" fill="#FFFCE1"/>
<path d="M284.197 13.5554L284.504 16.8712L287.82 17.1787L284.504 17.4861L284.197 20.802L283.889 17.4861L280.573 17.1787L283.889 16.8712L284.197 13.5554Z" fill="#FFFCE1"/>
<path d="M224.197 56.5554L224.504 59.8712L227.82 60.1787L224.504 60.4861L224.197 63.802L223.889 60.4861L220.573 60.1787L223.889 59.8712L224.197 56.5554Z" fill="#FFFCE1"/>
<path d="M294.197 116.555L294.504 119.871L297.82 120.179L294.504 120.486L294.197 123.802L293.889 120.486L290.573 120.179L293.889 119.871L294.197 116.555Z" fill="#FFFCE1"/>
<path d="M385.573 3.55542L385.998 8.13116L390.573 8.55542L385.998 8.97968L385.573 13.5554L385.149 8.97968L380.573 8.55542L385.149 8.13116L385.573 3.55542Z" fill="#FFFCE1"/>
<path d="M404.781 43.5554L405.039 46.3358L407.819 46.5936L405.039 46.8514L404.781 49.6318L404.524 46.8514L401.743 46.5936L404.524 46.3358L404.781 43.5554Z" fill="#FFFCE1"/>
<path d="M379.781 86.5554L380.039 89.3358L382.819 89.5936L380.039 89.8514L379.781 92.6318L379.524 89.8514L376.743 89.5936L379.524 89.3358L379.781 86.5554Z" fill="#FFFCE1"/>
<path d="M395.781 156.555L396.039 159.336L398.819 159.594L396.039 159.851L395.781 162.632L395.524 159.851L392.743 159.594L395.524 159.336L395.781 156.555Z" fill="#FFFCE1"/>
<path d="M65.3987 71.5554L65.6041 73.7711L67.8198 73.9765L65.6041 74.182L65.3987 76.3977L65.1932 74.182L62.9775 73.9765L65.1932 73.7711L65.3987 71.5554Z" fill="#FFFCE1"/>
<path d="M134.399 101.555L134.604 103.771L136.82 103.977L134.604 104.182L134.399 106.398L134.193 104.182L131.978 103.977L134.193 103.771L134.399 101.555Z" fill="#FFFCE1"/>
<path d="M129.399 157.555L129.604 159.771L131.82 159.977L129.604 160.182L129.399 162.398L129.193 160.182L126.978 159.977L129.193 159.771L129.399 157.555Z" fill="#FFFCE1"/>
<path d="M224.399 171.555L224.604 173.771L226.82 173.977L224.604 174.182L224.399 176.398L224.193 174.182L221.978 173.977L224.193 173.771L224.399 171.555Z" fill="#FFFCE1"/>
<path d="M34.3987 147.555L34.6041 149.771L36.8198 149.977L34.6041 150.182L34.3987 152.398L34.1932 150.182L31.9775 149.977L34.1932 149.771L34.3987 147.555Z" fill="#FFFCE1"/>
</g>
<defs>
<radialGradient id="paint0_radial" cx="0" cy="0" r="1" gradientUnits="userSpaceOnUse" gradientTransform="translate(300.5 117.5) rotate(90) scale(15.5 89.5)">
<stop stop-color="#F8FAFB"/>
<stop offset="1" stop-color="#F8FAFB" stop-opacity="0"/>
</radialGradient>
<radialGradient id="paint1_radial" cx="0" cy="0" r="1" gradientUnits="userSpaceOnUse" gradientTransform="translate(294 97.5) rotate(90) scale(15.5 90)">
<stop stop-color="#F8FAFB"/>
<stop offset="1" stop-color="#F8FAFB" stop-opacity="0"/>
</radialGradient>
<radialGradient id="paint2_radial" cx="0" cy="0" r="1" gradientUnits="userSpaceOnUse" gradientTransform="translate(294 137.5) rotate(90) scale(15.5 90)">
<stop stop-color="#F8FAFB"/>
<stop offset="1" stop-color="#F8FAFB" stop-opacity="0"/>
</radialGradient>
<radialGradient id="paint3_radial" cx="0" cy="0" r="1" gradientUnits="userSpaceOnUse" gradientTransform="translate(294 137.5) rotate(90) scale(15.5 90)">
<stop stop-color="#F8FAFB"/>
<stop offset="1" stop-color="#F8FAFB" stop-opacity="0"/>
</radialGradient>
<radialGradient id="paint4_radial" cx="0" cy="0" r="1" gradientUnits="userSpaceOnUse" gradientTransform="translate(144 37.5) rotate(90) scale(15.5 90)">
<stop stop-color="#F8FAFB"/>
<stop offset="1" stop-color="#F8FAFB" stop-opacity="0"/>
</radialGradient>
<radialGradient id="paint5_radial" cx="0" cy="0" r="1" gradientUnits="userSpaceOnUse" gradientTransform="translate(300 145.5) rotate(90) scale(15.5 90)">
<stop stop-color="#F8FAFB"/>
<stop offset="1" stop-color="#F8FAFB" stop-opacity="0"/>
</radialGradient>
<radialGradient id="paint6_radial" cx="0" cy="0" r="1" gradientUnits="userSpaceOnUse" gradientTransform="translate(104 143.5) rotate(90) scale(15.5 90)">
<stop stop-color="#F8FAFB"/>
<stop offset="1" stop-color="#F8FAFB" stop-opacity="0"/>
</radialGradient>
<radialGradient id="paint7_radial" cx="0" cy="0" r="1" gradientUnits="userSpaceOnUse" gradientTransform="translate(264.5 152.5) rotate(90) scale(15.5 89.5)">
<stop stop-color="#F8FAFB"/>
<stop offset="1" stop-color="#F8FAFB" stop-opacity="0"/>
</radialGradient>
<radialGradient id="paint8_radial" cx="0" cy="0" r="1" gradientUnits="userSpaceOnUse" gradientTransform="translate(216 153.5) rotate(90) scale(15.5 233)">
<stop stop-color="#F8FAFB"/>
<stop offset="1" stop-color="#F8FAFB" stop-opacity="0"/>
</radialGradient>
<radialGradient id="paint9_radial" cx="0" cy="0" r="1" gradientUnits="userSpaceOnUse" gradientTransform="translate(215.803 159.472) rotate(91.3757) scale(15.235 232.654)">
<stop stop-color="#F8FAFB"/>
<stop offset="1" stop-color="#F8FAFB" stop-opacity="0"/>
</radialGradient>
<radialGradient id="paint10_radial" cx="0" cy="0" r="1" gradientUnits="userSpaceOnUse" gradientTransform="translate(216 73.5) rotate(90) scale(15.5 233)">
<stop stop-color="#F8FAFB"/>
<stop offset="1" stop-color="#F8FAFB" stop-opacity="0"/>
</radialGradient>
<radialGradient id="paint11_radial" cx="0" cy="0" r="1" gradientUnits="userSpaceOnUse" gradientTransform="translate(236 102) rotate(90) scale(15 233)">
<stop stop-color="#F8FAFB"/>
<stop offset="1" stop-color="#F8FAFB" stop-opacity="0"/>
</radialGradient>
<radialGradient id="paint12_radial" cx="0" cy="0" r="1" gradientUnits="userSpaceOnUse" gradientTransform="translate(175.5 53) rotate(90) scale(49 179.5)">
<stop stop-color="#F8FAFB"/>
<stop offset="1" stop-color="#F8FAFB" stop-opacity="0"/>
</radialGradient>
<radialGradient id="paint13_radial" cx="0" cy="0" r="1" gradientUnits="userSpaceOnUse" gradientTransform="translate(221.5 93) rotate(90) scale(49 225.5)">
<stop stop-color="#F8FAFB"/>
<stop offset="1" stop-color="#F8FAFB" stop-opacity="0"/>
</radialGradient>
<radialGradient id="paint14_radial" cx="0" cy="0" r="1" gradientUnits="userSpaceOnUse" gradientTransform="translate(221.5 93) rotate(90) scale(49 225.5)">
<stop stop-color="#F8FAFB"/>
<stop offset="1" stop-color="#F8FAFB" stop-opacity="0"/>
</radialGradient>
<radialGradient id="paint15_radial" cx="0" cy="0" r="1" gradientUnits="userSpaceOnUse" gradientTransform="translate(221.5 93) rotate(90) scale(49 225.5)">
<stop stop-color="#F8FAFB"/>
<stop offset="1" stop-color="#F8FAFB" stop-opacity="0"/>
</radialGradient>
<radialGradient id="paint16_radial" cx="0" cy="0" r="1" gradientUnits="userSpaceOnUse" gradientTransform="translate(221.5 82) rotate(90) scale(32.5 122.146)">
<stop stop-color="#F8FAFB"/>
<stop offset="1" stop-color="#F8FAFB" stop-opacity="0"/>
</radialGradient>
<radialGradient id="paint17_radial" cx="0" cy="0" r="1" gradientUnits="userSpaceOnUse" gradientTransform="translate(181 109) rotate(90) scale(49 185)">
<stop stop-color="#F8FAFB"/>
<stop offset="1" stop-color="#F8FAFB" stop-opacity="0"/>
</radialGradient>
<radialGradient id="paint18_radial" cx="0" cy="0" r="1" gradientUnits="userSpaceOnUse" gradientTransform="translate(226.241 130.935) rotate(97.86) scale(59.6489 213.254)">
<stop stop-color="#F8FAFB"/>
<stop offset="1" stop-color="#F8FAFB" stop-opacity="0"/>
</radialGradient>
<linearGradient id="paint19_linear" x1="191.565" y1="107.969" x2="161.16" y2="138.375" gradientUnits="userSpaceOnUse">
<stop stop-color="white"/>
<stop offset="1" stop-color="#EEF2F5" stop-opacity="0"/>
</linearGradient>
<linearGradient id="paint20_linear" x1="204.708" y1="115.55" x2="179.284" y2="140.974" gradientUnits="userSpaceOnUse">
<stop stop-color="#FFE380"/>
<stop offset="1" stop-color="#FFE380"/>
</linearGradient>
<linearGradient id="paint21_linear" x1="203.554" y1="139.821" x2="216.266" y2="127.109" gradientUnits="userSpaceOnUse">
<stop stop-color="#FFD560"/>
<stop offset="1" stop-color="#F0B616"/>
</linearGradient>
<linearGradient id="paint22_linear" x1="263.921" y1="53.9985" x2="244.853" y2="73.0666" gradientUnits="userSpaceOnUse">
<stop stop-color="#2F88EC"/>
<stop offset="1" stop-color="#2FB7EC"/>
</linearGradient>
<linearGradient id="paint23_linear" x1="308.425" y1="28.5863" x2="279.823" y2="57.1883" gradientUnits="userSpaceOnUse">
<stop stop-color="#92F1D3"/>
<stop offset="1" stop-color="#1ACC94"/>
</linearGradient>
<linearGradient id="paint24_linear" x1="79.335" y1="164.976" x2="62.8774" y2="181.434" gradientUnits="userSpaceOnUse">
<stop stop-color="white"/>
<stop offset="1" stop-color="#EEF2F5" stop-opacity="0"/>
</linearGradient>
<linearGradient id="paint25_linear" x1="72.8809" y1="161.965" x2="59.1958" y2="175.65" gradientUnits="userSpaceOnUse">
<stop stop-color="#FFF280"/>
<stop offset="1" stop-color="#FFE380"/>
</linearGradient>
<linearGradient id="paint26_linear" x1="59.8169" y1="162.586" x2="66.6594" y2="155.743" gradientUnits="userSpaceOnUse">
<stop stop-color="#F7A14D"/>
<stop offset="1" stop-color="#F0B616"/>
</linearGradient>
<linearGradient id="paint27_linear" x1="103.829" y1="143.442" x2="78.7743" y2="118.388" gradientUnits="userSpaceOnUse">
<stop stop-color="#1E6458"/>
<stop offset="1" stop-color="#1ACC94"/>
</linearGradient>
<linearGradient id="paint28_linear" x1="135.081" y1="115.988" x2="127.311" y2="109.57" gradientUnits="userSpaceOnUse">
<stop stop-color="#318562"/>
<stop offset="1" stop-color="#1ACC94"/>
</linearGradient>
<linearGradient id="paint29_linear" x1="95.6445" y1="114.045" x2="118.014" y2="136.415" gradientUnits="userSpaceOnUse">
<stop stop-color="#F8FAFB"/>
<stop offset="1" stop-color="#EEF2F5"/>
</linearGradient>
<linearGradient id="paint30_linear" x1="131.851" y1="144.948" x2="139.512" y2="132.525" gradientUnits="userSpaceOnUse">
<stop stop-color="#EEF2F5"/>
<stop offset="1" stop-color="#F8FAFB"/>
</linearGradient>
<linearGradient id="paint31_linear" x1="116.225" y1="134.625" x2="134.787" y2="116.064" gradientUnits="userSpaceOnUse">
<stop stop-color="#D5DFE6"/>
<stop offset="1" stop-color="#7790A3" stop-opacity="0.28"/>
</linearGradient>
<linearGradient id="paint32_linear" x1="97.2436" y1="120.947" x2="110.703" y2="123.723" gradientUnits="userSpaceOnUse">
<stop stop-color="#4A5F6E"/>
<stop offset="1" stop-color="#4A5F6E"/>
</linearGradient>
<linearGradient id="paint33_linear" x1="104.71" y1="116.126" x2="100.251" y2="112.668" gradientUnits="userSpaceOnUse">
<stop stop-color="#5A7385"/>
<stop offset="1" stop-color="#D5DFE6"/>
</linearGradient>
<linearGradient id="paint34_linear" x1="94.048" y1="142.081" x2="83.0528" y2="131.086" gradientUnits="userSpaceOnUse">
<stop stop-color="#2EE3AA"/>
<stop offset="1" stop-color="#92F1D3"/>
</linearGradient>
<linearGradient id="paint35_linear" x1="344.335" y1="164.976" x2="327.877" y2="181.434" gradientUnits="userSpaceOnUse">
<stop stop-color="white"/>
<stop offset="1" stop-color="#EEF2F5" stop-opacity="0"/>
</linearGradient>
<linearGradient id="paint36_linear" x1="337.881" y1="161.965" x2="324.196" y2="175.65" gradientUnits="userSpaceOnUse">
<stop stop-color="#FFF280"/>
<stop offset="1" stop-color="#FFE380"/>
</linearGradient>
<linearGradient id="paint37_linear" x1="324.817" y1="162.586" x2="331.659" y2="155.743" gradientUnits="userSpaceOnUse">
<stop stop-color="#F7A14D"/>
<stop offset="1" stop-color="#F0B616"/>
</linearGradient>
<linearGradient id="paint38_linear" x1="368.829" y1="143.442" x2="343.774" y2="118.388" gradientUnits="userSpaceOnUse">
<stop stop-color="#1E6458"/>
<stop offset="1" stop-color="#1ACC94"/>
</linearGradient>
<linearGradient id="paint39_linear" x1="400.081" y1="115.988" x2="392.311" y2="109.57" gradientUnits="userSpaceOnUse">
<stop stop-color="#318562"/>
<stop offset="1" stop-color="#1ACC94"/>
</linearGradient>
<linearGradient id="paint40_linear" x1="360.645" y1="114.045" x2="383.014" y2="136.415" gradientUnits="userSpaceOnUse">
<stop stop-color="#F8FAFB"/>
<stop offset="1" stop-color="#EEF2F5"/>
</linearGradient>
<linearGradient id="paint41_linear" x1="396.851" y1="144.948" x2="404.512" y2="132.525" gradientUnits="userSpaceOnUse">
<stop stop-color="#EEF2F5"/>
<stop offset="1" stop-color="#F8FAFB"/>
</linearGradient>
<linearGradient id="paint42_linear" x1="381.225" y1="134.625" x2="399.787" y2="116.064" gradientUnits="userSpaceOnUse">
<stop stop-color="#D5DFE6"/>
<stop offset="1" stop-color="#7790A3" stop-opacity="0.28"/>
</linearGradient>
<linearGradient id="paint43_linear" x1="362.244" y1="120.947" x2="375.703" y2="123.723" gradientUnits="userSpaceOnUse">
<stop stop-color="#4A5F6E"/>
<stop offset="1" stop-color="#4A5F6E"/>
</linearGradient>
<linearGradient id="paint44_linear" x1="369.71" y1="116.126" x2="365.251" y2="112.668" gradientUnits="userSpaceOnUse">
<stop stop-color="#5A7385"/>
<stop offset="1" stop-color="#D5DFE6"/>
</linearGradient>
<linearGradient id="paint45_linear" x1="359.048" y1="142.081" x2="348.053" y2="131.086" gradientUnits="userSpaceOnUse">
<stop stop-color="#2EE3AA"/>
<stop offset="1" stop-color="#92F1D3"/>
</linearGradient>
<radialGradient id="paint46_radial" cx="0" cy="0" r="1" gradientUnits="userSpaceOnUse" gradientTransform="translate(118.794 27.7939) rotate(90) scale(13.7939)">
<stop stop-color="white"/>
<stop offset="1" stop-color="white" stop-opacity="0.7"/>
</radialGradient>
<linearGradient id="paint47_linear" x1="111.204" y1="15.9074" x2="118.794" y2="41.5879" gradientUnits="userSpaceOnUse">
<stop stop-color="#EAE5BE"/>
<stop offset="1" stop-color="white" stop-opacity="0"/>
</linearGradient>
<radialGradient id="paint48_radial" cx="0" cy="0" r="1" gradientUnits="userSpaceOnUse" gradientTransform="translate(124.731 30.8038) rotate(90) scale(2.36332)">
<stop stop-color="#ABB4BB"/>
<stop offset="1" stop-color="#D5DFE6" stop-opacity="0"/>
</radialGradient>
<radialGradient id="paint49_radial" cx="0" cy="0" r="1" gradientUnits="userSpaceOnUse" gradientTransform="translate(112.866 22.3938) rotate(90) scale(2.36332)">
<stop stop-color="#BCC5CC"/>
<stop offset="1" stop-color="#D5DFE6" stop-opacity="0"/>
</radialGradient>
<radialGradient id="paint50_radial" cx="0" cy="0" r="1" gradientUnits="userSpaceOnUse" gradientTransform="translate(114.002 35.191) rotate(90) scale(1.49955)">
<stop stop-color="#BABABA"/>
<stop offset="1" stop-color="#D5DFE6" stop-opacity="0"/>
</radialGradient>
<radialGradient id="paint51_radial" cx="0" cy="0" r="1" gradientUnits="userSpaceOnUse" gradientTransform="translate(122.367 22.3938) rotate(90) scale(2.36332)">
<stop stop-color="#A5B0B8"/>
<stop offset="1" stop-color="#D5DFE6" stop-opacity="0.59"/>
</radialGradient>
</defs>
</svg>
