<svg width="212" height="136" viewBox="0 0 212 136" fill="none" xmlns="http://www.w3.org/2000/svg">
<path d="M89.7028 96.0838L12.4736 68.6519L0.295403 103.252L77.5246 130.684L89.7028 96.0838Z" fill="url(#paint0_linear)"/>
<path fill-rule="evenodd" clip-rule="evenodd" d="M6.32874 96.1498L12.7219 77.9859C15.6322 79.0197 18.823 77.4889 19.852 74.5653L80.2714 96.0263C79.2423 98.95 80.7661 102.155 83.6765 103.189L77.2833 121.353C74.373 120.319 71.1822 121.85 70.1532 124.774L9.73381 103.313C10.7629 100.389 9.23909 97.1835 6.32874 96.1498Z" fill="url(#paint1_linear)"/>
<path fill-rule="evenodd" clip-rule="evenodd" d="M12.8451 101.441C12.84 98.9089 11.6931 96.4848 9.73375 94.8958L14.5856 81.1109C17.1061 81.1057 19.5191 79.9536 21.1008 77.9853L77.1547 97.8957C77.1598 100.428 78.3067 102.852 80.266 104.441L75.4165 118.219C72.896 118.224 70.483 119.376 68.9013 121.345L12.8475 101.434L12.8451 101.441Z" fill="url(#paint2_linear)"/>
<path fill-rule="evenodd" clip-rule="evenodd" d="M12.6989 99.8931C12.3319 97.9437 11.2887 96.1568 9.73375 94.8958L14.5856 81.1109C17.1061 81.1057 19.5191 79.9536 21.1008 77.9853L77.1547 97.8957C77.1598 100.428 78.3067 102.852 80.266 104.441L75.4165 118.219C72.896 118.224 70.483 119.376 68.9013 121.345L12.8475 101.434L12.8451 101.441C12.8451 101.438 12.8451 101.436 12.8451 101.433C12.8436 100.913 12.7939 100.398 12.6989 99.8931ZM14.1873 100.422C13.9502 98.1811 12.9515 96.0726 11.3614 94.4806L15.5923 82.46C17.8257 82.2234 19.9276 81.2196 21.5142 79.6204L75.8117 98.907C76.0473 101.151 77.0465 103.262 78.6383 104.856L74.4098 116.87C72.1764 117.107 70.0745 118.11 68.4879 119.709L14.1873 100.422Z" fill="url(#paint3_linear)"/>
<path d="M19.7728 94.2575C20.9584 94.6786 22.4168 93.6074 23.0301 91.8648C23.6434 90.1222 23.1795 88.3682 21.9939 87.947C20.8082 87.5259 19.3499 88.5971 18.7366 90.3397C18.1232 92.0823 18.5872 93.8363 19.7728 94.2575Z" fill="url(#paint4_linear)"/>
<path d="M68.2877 111.49C69.4733 111.911 70.9317 110.84 71.545 109.097C72.1583 107.355 71.6944 105.601 70.5088 105.179C69.3231 104.758 67.8648 105.829 67.2515 107.572C66.6381 109.315 67.102 111.069 68.2877 111.49Z" fill="url(#paint5_linear)"/>
<path d="M41.9348 108.827C45.9295 110.246 50.6032 107.318 52.3737 102.287C54.1443 97.2571 52.3412 92.0288 48.3465 90.6099C44.3518 89.191 39.6781 92.1187 37.9076 97.1491C36.137 102.179 37.9401 107.408 41.9348 108.827Z" fill="url(#paint6_linear)"/>
<path fill-rule="evenodd" clip-rule="evenodd" d="M42.4004 107.504C45.4058 108.571 49.4397 106.414 51.0568 101.82C52.6739 97.2254 50.8863 93.0003 47.8809 91.9328C44.8755 90.8653 40.8415 93.0225 39.2245 97.6168C37.6074 102.211 39.395 106.436 42.4004 107.504ZM52.3737 102.287C50.6032 107.318 45.9295 110.246 41.9348 108.827C37.9401 107.408 36.137 102.179 37.9076 97.1491C39.6781 92.1187 44.3518 89.191 48.3465 90.6099C52.3412 92.0288 54.1443 97.2571 52.3737 102.287Z" fill="url(#paint7_linear)"/>
<rect width="81.9565" height="36.6315" transform="matrix(0.94232 0.334714 -0.332006 0.943277 12.4736 68.6519)" fill="url(#paint8_linear)"/>
<path d="M89.9136 95.4278L8.00018 95.8845L8.20504 132.583L90.1185 132.126L89.9136 95.4278Z" fill="url(#paint9_linear)"/>
<path fill-rule="evenodd" clip-rule="evenodd" d="M11.4879 123.848L11.3804 104.583C14.4673 104.565 16.9535 102.04 16.9362 98.9388L81.0202 98.5815C81.0375 101.682 83.5517 104.18 86.6386 104.163L86.7461 123.429C83.6593 123.446 81.1731 125.971 81.1904 129.072L17.1064 129.43C17.0891 126.329 14.5748 123.831 11.4879 123.848Z" fill="url(#paint10_linear)"/>
<path fill-rule="evenodd" clip-rule="evenodd" d="M19.4008 126.609C18.5425 124.229 16.6463 122.338 14.2671 121.509L14.1859 106.888C16.5557 106.026 18.4378 104.121 19.2626 101.731L78.7163 101.398C79.5746 103.779 81.4708 105.669 83.85 106.498L83.9312 121.112C81.5614 121.974 79.6793 123.879 78.8545 126.269L19.4007 126.602L19.4008 126.609Z" fill="url(#paint11_linear)"/>
<path fill-rule="evenodd" clip-rule="evenodd" d="M18.7415 125.203C17.7391 123.494 16.1552 122.167 14.2671 121.509L14.1859 106.888C16.5557 106.026 18.4378 104.121 19.2626 101.731L78.7163 101.398C79.5746 103.779 81.4708 105.669 83.85 106.498L83.9312 121.112C81.5614 121.974 79.6793 123.879 78.8545 126.269L19.4007 126.602L19.4008 126.609C19.3999 126.607 19.3991 126.605 19.3983 126.602C19.2215 126.114 19.001 125.645 18.7415 125.203ZM20.3201 125.194C19.3418 123.166 17.6914 121.522 15.6587 120.565L15.5879 107.815C17.6095 106.833 19.2489 105.174 20.2027 103.129L77.7936 102.806C78.7715 104.837 80.4234 106.484 82.4585 107.442L82.5292 120.185C80.5076 121.167 78.8682 122.827 77.9144 124.871L20.3201 125.194Z" fill="url(#paint12_linear)"/>
<path d="M23.4991 117.494C24.7567 117.487 25.7678 115.983 25.7575 114.135C25.7472 112.286 24.7195 110.794 23.462 110.801C22.2044 110.808 21.1933 112.312 21.2036 114.16C21.2138 116.008 22.2416 117.501 23.4991 117.494Z" fill="url(#paint13_linear)"/>
<path d="M74.9564 117.205C76.2139 117.198 77.225 115.694 77.2148 113.846C77.2045 111.998 76.1768 110.505 74.9192 110.512C73.6617 110.519 72.6506 112.023 72.6609 113.872C72.6711 115.72 73.6989 117.212 74.9564 117.205Z" fill="url(#paint14_linear)"/>
<path d="M49.2624 123.664C53.4994 123.64 56.9102 119.296 56.8805 113.96C56.8509 108.624 53.3921 104.318 49.1551 104.342C44.9181 104.366 41.5074 108.71 41.537 114.046C41.5666 119.382 45.0254 123.688 49.2624 123.664Z" fill="url(#paint15_linear)"/>
<path fill-rule="evenodd" clip-rule="evenodd" d="M49.2546 122.261C52.4423 122.243 55.5108 118.841 55.4838 113.968C55.4567 109.095 52.3506 105.727 49.1629 105.745C45.9753 105.763 42.9067 109.165 42.9338 114.038C42.9608 118.911 46.067 122.279 49.2546 122.261ZM56.8805 113.96C56.9102 119.296 53.4994 123.64 49.2624 123.664C45.0254 123.688 41.5666 119.382 41.537 114.046C41.5074 108.71 44.9181 104.366 49.1551 104.342C53.3921 104.318 56.8509 108.624 56.8805 113.96Z" fill="url(#paint16_linear)"/>
<path d="M153.497 132.187V8.8972V0L147.651 3.81308L142.362 0L136.795 3.81308L131.228 0L125.661 3.81308L120.058 0L114.455 3.81308L108.852 0L103.249 3.81308L97.6455 0L92.3225 3.81308L86.4391 0L80.4609 3.81308L75.052 0L69.3584 3.81308L63.6649 0L57.9713 3.81308L52.2778 0V8.8972V58.4673V78.8037V132.187L58.1232 136L63.4118 132.187L68.9789 136L74.5459 132.187L80.1129 136L85.7161 132.187L91.3193 136L96.9225 132.187L102.526 136L108.129 132.187L113.452 136L119.335 132.187L125.313 136L130.722 132.187L136.416 136L142.109 132.187L147.803 136L153.497 132.187Z" fill="url(#paint17_linear)"/>
<path d="M63.6652 55.9253C63.6652 54.5214 64.8033 53.3832 66.2072 53.3832H96.5497C97.9536 53.3832 99.0918 54.5214 99.0918 55.9253V55.9253C99.0918 57.3292 97.9536 58.4674 96.5497 58.4674H66.2073C64.8033 58.4674 63.6652 57.3292 63.6652 55.9253V55.9253Z" fill="#98ABB6"/>
<path d="M63.665 66.0934C63.665 64.6894 64.8031 63.5513 66.207 63.5513H96.5495C97.9534 63.5513 99.0915 64.6894 99.0915 66.0934V66.0934C99.0915 67.4973 97.9534 68.6354 96.5495 68.6354H66.207C64.8031 68.6354 63.665 67.4973 63.665 66.0934V66.0934Z" fill="#98ABB6"/>
<path d="M104.153 68.6354C105.55 68.6354 106.683 67.4973 106.683 66.0934C106.683 64.6894 105.55 63.5513 104.153 63.5513C102.755 63.5513 101.622 64.6894 101.622 66.0934C101.622 67.4973 102.755 68.6354 104.153 68.6354Z" fill="#98ABB6"/>
<path d="M63.6652 30.5047C63.6652 29.1008 64.8033 27.9627 66.2072 27.9627H104.141C105.545 27.9627 106.683 29.1008 106.683 30.5047V30.5047C106.683 31.9087 105.545 33.0468 104.141 33.0468H66.2073C64.8033 33.0468 63.6652 31.9087 63.6652 30.5047V30.5047Z" fill="#98ABB6"/>
<path d="M63.665 40.6729C63.665 39.269 64.8031 38.1309 66.207 38.1309H96.5495C97.9534 38.1309 99.0915 39.269 99.0915 40.6729V40.6729C99.0915 42.0769 97.9534 43.215 96.5495 43.215H66.207C64.8031 43.215 63.665 42.0769 63.665 40.6729V40.6729Z" fill="#98ABB6"/>
<path d="M134.518 55.9253C134.518 54.5214 135.656 53.3832 137.06 53.3832H138.228C139.632 53.3832 140.77 54.5214 140.77 55.9253V55.9253C140.77 57.3292 139.632 58.4674 138.228 58.4674H137.06C135.656 58.4674 134.518 57.3292 134.518 55.9253V55.9253Z" fill="#98ABB6"/>
<path d="M134.518 66.0934C134.518 64.6895 135.656 63.5514 137.06 63.5514H138.228C139.632 63.5514 140.77 64.6895 140.77 66.0934V66.0934C140.77 67.4974 139.632 68.6355 138.228 68.6355H137.06C135.656 68.6355 134.518 67.4974 134.518 66.0934V66.0934Z" fill="#98ABB6"/>
<path d="M133.253 30.5047C133.253 29.1008 134.391 27.9627 135.795 27.9627H138.303C139.707 27.9627 140.845 29.1008 140.845 30.5047V30.5047C140.845 31.9087 139.707 33.0468 138.303 33.0468H135.795C134.391 33.0468 133.253 31.9087 133.253 30.5047V30.5047Z" fill="#98ABB6"/>
<path d="M134.518 40.6729C134.518 39.269 135.656 38.1309 137.06 38.1309H138.228C139.632 38.1309 140.77 39.269 140.77 40.6729V40.6729C140.77 42.0769 139.632 43.215 138.228 43.215H137.06C135.656 43.215 134.518 42.0769 134.518 40.6729V40.6729Z" fill="#98ABB6"/>
<path d="M63.665 83.8878H142.742" stroke="#98ABB6" stroke-width="2" stroke-linecap="round" stroke-linejoin="round"/>
<path d="M62.3996 97.2718C62.3996 95.8679 63.5377 94.7297 64.9417 94.7297H95.2841C96.688 94.7297 97.8262 95.8679 97.8262 97.2718V97.2718C97.8262 98.6757 96.688 99.8139 95.2841 99.8139H64.9417C63.5377 99.8139 62.3996 98.6757 62.3996 97.2718V97.2718Z" fill="#F8868F"/>
<path d="M102.888 99.8139C104.286 99.8139 105.419 98.6757 105.419 97.2718C105.419 95.8679 104.286 94.7297 102.888 94.7297C101.49 94.7297 100.357 95.8679 100.357 97.2718C100.357 98.6757 101.49 99.8139 102.888 99.8139Z" fill="#F8868F"/>
<path fill-rule="evenodd" clip-rule="evenodd" d="M185.846 90.8334L175.384 77.4827V95.8519L185.846 103.724V90.8334ZM138.767 90.8334L149.229 77.4827V95.8519L138.767 103.724V90.8334Z" fill="#E14D4C"/>
<path d="M177.989 51.2411C182.542 62.637 177.221 91.8485 175.744 99.3325C175.538 100.373 174.627 101.1 173.566 101.1H151.047C149.987 101.1 149.076 100.373 148.87 99.3325C147.392 91.8485 142.071 62.637 146.614 51.2411C154.958 51.2411 167.538 51.2411 177.989 51.2411Z" fill="url(#paint18_linear)"/>
<path d="M177.995 51.2411C172.782 51.2411 162.303 51.2411 162.303 51.2411V101.1H173.562C174.622 101.1 175.534 100.373 175.739 99.3325C177.217 91.8485 182.539 62.637 177.995 51.2411Z" fill="#EEF2F5"/>
<path d="M151.844 101.102L149.229 108.973H175.384L172.768 101.1L151.844 101.102Z" fill="#E14D4C"/>
<path d="M169.029 64.362C169.029 68.0928 166.015 71.1109 162.306 71.1109C158.597 71.1109 155.583 68.0928 155.583 64.362C155.583 60.6311 158.597 57.613 162.306 57.613C166.015 57.613 169.029 60.6311 169.029 64.362Z" fill="#8BDCFB" stroke="url(#paint19_linear)" stroke-width="2.24719"/>
<path d="M162.306 27.6235C157.083 27.6235 149.229 45.989 146.613 51.241C146.613 51.241 156.999 51.241 162.306 51.241C167.46 51.241 177.999 51.241 177.999 51.241C175.383 45.989 167.537 27.6235 162.306 27.6235Z" fill="#E14D4C"/>
<path fill-rule="evenodd" clip-rule="evenodd" d="M211.3 132.59H113.312C112.867 131.819 112.612 130.922 112.612 129.966C112.612 127.068 114.954 124.718 117.843 124.718C119.187 124.718 120.413 125.227 121.34 126.063C123.485 119.93 129.306 115.533 136.151 115.533C142.623 115.533 148.18 119.464 150.579 125.077C154.3 123.989 158.235 123.406 162.306 123.406C166.376 123.406 170.311 123.989 174.032 125.077C176.431 119.464 181.988 115.533 188.46 115.533C195.305 115.533 201.127 119.93 203.272 126.063C204.198 125.227 205.424 124.718 206.769 124.718C209.658 124.718 212 127.068 212 129.966C212 130.922 211.745 131.819 211.3 132.59Z" fill="url(#paint20_linear)"/>
<path d="M162.306 129.966C153.479 121.332 154.869 115.271 157.076 108.973L167.537 108.973C169.744 115.271 171.134 121.332 162.306 129.966Z" fill="url(#paint21_linear)"/>
<path d="M162.307 108.973C162.307 108.973 167.539 114.847 162.307 119.47C157.076 114.838 162.307 108.973 162.307 108.973Z" fill="url(#paint22_linear)"/>
<defs>
<linearGradient id="paint0_linear" x1="-32.2301" y1="72.2359" x2="-26.8732" y2="139.054" gradientUnits="userSpaceOnUse">
<stop stop-color="#2EAA77"/>
<stop offset="1" stop-color="#2EAA77"/>
</linearGradient>
<linearGradient id="paint1_linear" x1="154.104" y1="136.847" x2="143.84" y2="55.0729" gradientUnits="userSpaceOnUse">
<stop stop-color="#2EAA77"/>
<stop offset="1" stop-color="#9CF0CD"/>
</linearGradient>
<linearGradient id="paint2_linear" x1="145.937" y1="134.236" x2="140.709" y2="65.6318" gradientUnits="userSpaceOnUse">
<stop stop-color="#2EAA77"/>
<stop offset="1" stop-color="#9CF0CD"/>
</linearGradient>
<linearGradient id="paint3_linear" x1="-20.6805" y1="76.3385" x2="-20.6007" y2="123.221" gradientUnits="userSpaceOnUse">
<stop stop-color="#2EAA77"/>
<stop offset="1" stop-color="#2EAA77"/>
</linearGradient>
<linearGradient id="paint4_linear" x1="16.5898" y1="89.5772" x2="21.0546" y2="95.6554" gradientUnits="userSpaceOnUse">
<stop stop-color="#2EAA77"/>
<stop offset="1" stop-color="#2EAA77"/>
</linearGradient>
<linearGradient id="paint5_linear" x1="65.1047" y1="106.81" x2="69.5695" y2="112.888" gradientUnits="userSpaceOnUse">
<stop stop-color="#2EAA77"/>
<stop offset="1" stop-color="#2EAA77"/>
</linearGradient>
<linearGradient id="paint6_linear" x1="67.5959" y1="106.696" x2="48.2195" y2="81.8305" gradientUnits="userSpaceOnUse">
<stop stop-color="#2EAA77"/>
<stop offset="1" stop-color="#9CF0CD"/>
</linearGradient>
<linearGradient id="paint7_linear" x1="30.6745" y1="94.5799" x2="43.4515" y2="114.977" gradientUnits="userSpaceOnUse">
<stop stop-color="#2EAA77"/>
<stop offset="1" stop-color="#2EAA77"/>
</linearGradient>
<linearGradient id="paint8_linear" x1="35.4417" y1="12.7082" x2="35.4522" y2="12.7379" gradientUnits="userSpaceOnUse">
<stop stop-color="#488300" stop-opacity="0"/>
<stop offset="1" stop-color="#488300" stop-opacity="0.12"/>
</linearGradient>
<linearGradient id="paint9_linear" x1="-32.8541" y1="114.462" x2="-5.12702" y2="175.437" gradientUnits="userSpaceOnUse">
<stop stop-color="#2EAA77"/>
<stop offset="1" stop-color="#2EAA77"/>
</linearGradient>
<linearGradient id="paint10_linear" x1="164.25" y1="111.878" x2="126.842" y2="38.5196" gradientUnits="userSpaceOnUse">
<stop stop-color="#2EAA77"/>
<stop offset="1" stop-color="#9CF0CD"/>
</linearGradient>
<linearGradient id="paint11_linear" x1="155.685" y1="112.194" x2="127.47" y2="49.498" gradientUnits="userSpaceOnUse">
<stop stop-color="#2EAA77"/>
<stop offset="1" stop-color="#9CF0CD"/>
</linearGradient>
<linearGradient id="paint12_linear" x1="-20.6056" y1="114.394" x2="-4.59974" y2="158.434" gradientUnits="userSpaceOnUse">
<stop stop-color="#2EAA77"/>
<stop offset="1" stop-color="#2EAA77"/>
</linearGradient>
<linearGradient id="paint13_linear" x1="18.9266" y1="114.173" x2="25.1759" y2="118.374" gradientUnits="userSpaceOnUse">
<stop stop-color="#2EAA77"/>
<stop offset="1" stop-color="#2EAA77"/>
</linearGradient>
<linearGradient id="paint14_linear" x1="70.3839" y1="113.884" x2="76.6332" y2="118.085" gradientUnits="userSpaceOnUse">
<stop stop-color="#2EAA77"/>
<stop offset="1" stop-color="#2EAA77"/>
</linearGradient>
<linearGradient id="paint15_linear" x1="72.6895" y1="112.93" x2="46.0815" y2="96.1165" gradientUnits="userSpaceOnUse">
<stop stop-color="#2EAA77"/>
<stop offset="1" stop-color="#9CF0CD"/>
</linearGradient>
<linearGradient id="paint16_linear" x1="33.8652" y1="114.089" x2="52.7674" y2="128.928" gradientUnits="userSpaceOnUse">
<stop stop-color="#2EAA77"/>
<stop offset="1" stop-color="#2EAA77"/>
</linearGradient>
<linearGradient id="paint17_linear" x1="171.842" y1="52.1121" x2="51.9348" y2="132.949" gradientUnits="userSpaceOnUse">
<stop offset="0.520833" stop-color="#F2F5F7"/>
<stop offset="0.520933" stop-color="#E8EFF2"/>
</linearGradient>
<linearGradient id="paint18_linear" x1="162.305" y1="51.2411" x2="162.305" y2="101.1" gradientUnits="userSpaceOnUse">
<stop stop-color="#F3F6F7"/>
<stop offset="1" stop-color="#BFCDD4"/>
</linearGradient>
<linearGradient id="paint19_linear" x1="154.46" y1="56.4894" x2="154.46" y2="72.2345" gradientUnits="userSpaceOnUse">
<stop stop-color="#2F88EC"/>
<stop offset="1" stop-color="#2FB7EC"/>
</linearGradient>
<linearGradient id="paint20_linear" x1="65.5335" y1="124.062" x2="71.5171" y2="157.092" gradientUnits="userSpaceOnUse">
<stop stop-color="#2FB7EC"/>
<stop offset="1" stop-color="#C8EEFD"/>
</linearGradient>
<linearGradient id="paint21_linear" x1="155.421" y1="108.973" x2="155.421" y2="129.966" gradientUnits="userSpaceOnUse">
<stop stop-color="#FFE380"/>
<stop offset="1" stop-color="#FFE380"/>
</linearGradient>
<linearGradient id="paint22_linear" x1="164.923" y1="119.47" x2="164.923" y2="108.973" gradientUnits="userSpaceOnUse">
<stop stop-color="#FFD560"/>
<stop offset="1" stop-color="#F0B616"/>
</linearGradient>
</defs>
</svg>
