<svg xmlns="http://www.w3.org/2000/svg" width="80" height="80" viewBox="0 0 80 80">
    <defs>
        <linearGradient id="a" x1="50%" x2="50%" y1="0%" y2="100%">
            <stop offset="0%" stop-color="#7CAAEC"/>
            <stop offset="100%" stop-color="#4672D5"/>
        </linearGradient>
        <linearGradient id="b" x1="50%" x2="50%" y1="0%" y2="100%">
            <stop offset="0%" stop-color="#7CAAEC"/>
            <stop offset="100%" stop-color="#4672D5"/>
        </linearGradient>
        <linearGradient id="c" x1="50%" x2="50%" y1="0%" y2="100%">
            <stop offset="0%" stop-color="#A5C4F5"/>
            <stop offset="100%" stop-color="#6C92E8"/>
        </linearGradient>
        <linearGradient id="d" x1="64.191%" x2="82.943%" y1="23.579%" y2="93.341%">
            <stop offset="0%" stop-color="#7CAAEC"/>
            <stop offset="100%" stop-color="#4672D5"/>
        </linearGradient>
        <linearGradient id="e" x1="50%" x2="50%" y1="0%" y2="100%">
            <stop offset="0%" stop-color="#A5C4F5"/>
            <stop offset="100%" stop-color="#6C92E8"/>
        </linearGradient>
        <linearGradient id="f" x1="50%" x2="80.279%" y1="0%" y2="100%">
            <stop offset="0%" stop-color="#A5C4F5"/>
            <stop offset="100%" stop-color="#6C92E8"/>
        </linearGradient>
    </defs>
    <g fill="none" fill-rule="evenodd">
        <g>
            <circle cx="40" cy="40" r="40" fill="#2EE3AA" fill-opacity=".404" fill-rule="nonzero"/>
            <g fill-rule="nonzero" transform="rotate(63 -12.79 25.902)">
                <circle cx="4.5" cy="4.5" r="4.5" fill="#2F88EC"/>
                <path fill="#65AEFF" d="M4.5 9a4.5 4.5 0 1 1 0-9 4.5 4.5 0 0 1 0 9zm0-7.675a3.182 3.182 0 1 0 .012 6.364 3.182 3.182 0 0 0-.013-6.364z"/>
                <path fill="#FFF" d="M3.668 5.712l-.263.28-.277-.295.263-.279A1.651 1.651 0 0 1 3 4.364l.54-.099c0 .27.076.533.22.754l.463-.49c-.235-.4-.441-.866-.05-1.288a.853.853 0 0 1 1.223.045L5.666 3l.277.293-.277.295c.202.254.32.572.334.904l-.533.075a1.311 1.311 0 0 0-.178-.588l-.405.437c.22.407.44.89.043 1.311A.856.856 0 0 1 4.294 6a.859.859 0 0 1-.626-.288zm1.024-1.62l.37-.392c-.164-.143-.32-.15-.427-.037-.106.113-.043.256.057.43zm-.235 1.243c.107-.113.057-.279-.042-.467l-.413.43c.192.128.356.128.455.037z"/>
            </g>
            <g fill-rule="nonzero" transform="rotate(34 -8.251 35.309)">
                <circle cx="6" cy="6" r="6" fill="#2F88EC"/>
                <path fill="#65AEFF" d="M6 12a6 6 0 1 1 4.242-1.757A5.965 5.965 0 0 1 5.999 12zM6 1.766a4.243 4.243 0 1 0 2.995 7.23 4.234 4.234 0 0 0-2.996-7.23z"/>
                <path fill="#FFF" d="M6.429 7.662l.039.504-.517.05-.039-.49a1.99 1.99 0 0 1-1.328-.447l.359-.616c.252.218.569.348.903.374L5.81 6.15c-.574-.084-1.2-.25-1.258-.98A1.205 1.205 0 0 1 5.64 3.948l-.064-.474.516-.05.04.516c.418-.005.823.13 1.151.383l-.393.613c-.2-.162-.44-.266-.697-.3l.06.77c.581.09 1.227.248 1.285.991a1.181 1.181 0 0 1-1.11 1.265zm-.649-2.33l-.06-.696c-.276.053-.41.214-.367.437.044.223.17.217.427.259zm.97 1.222c-.016-.199-.209-.274-.48-.327l.06.769c.307-.076.434-.256.42-.442z"/>
            </g>
            <path stroke="#326BEE" stroke-dasharray="2" stroke-linecap="round" d="M23.928 28.628c4.092-.286 5.979.121 5.663 1.224-.474 1.654-7.657 5.748-6.199 7.146 1.459 1.397 6.52-2.926 7.936-1.128 1.415 1.798-1.46 2.062-1.161 4.05.298 1.987 2.733.155 3.847 1.103"/>
            <path fill="#326BEE" fill-rule="nonzero" d="M34.52 43.17l4.042 1.675c.141.058.302.024.394-.084a.293.293 0 0 0 0-.377l-2.686-3.248a.359.359 0 0 0-.268-.133.324.324 0 0 0-.264.116l-1.357 1.6a.291.291 0 0 0-.035.249c.027.085.09.159.175.202z"/>
        </g>
        <g transform="translate(41 23)">
            <path fill="url(#a)" stroke="url(#a)" d="M7.23 5.739L10.975 11h8.319L23 4.742l-1.464-.405-1.942-1h-.001L15.32 1.128a1 1 0 0 0-.656-.092L8.91 2.196a.87.87 0 0 0-.674 1.057l.018.074a1 1 0 0 1-.56 1.145l-.14.063a.807.807 0 0 0-.324 1.204z"/>
            <path fill="url(#b)" stroke="url(#b)" d="M21.359 4.776L20 9l3.739-3.927a.635.635 0 0 0-.513-1.07l-.998.083a1 1 0 0 0-.869.69z"/>
            <path fill="url(#c)" stroke="url(#c)" d="M14.762.908L13 11l3.085-.277 5.5-7.697a1 1 0 0 0-.551-1.547L16.009.115a1 1 0 0 0-1.247.793z"/>
            <path fill="url(#d)" d="M11.067 13C.852 24.665-2.292 32.308 1.637 35.928c5.892 5.43 22.256 5.43 26.586 0 2.38-3.494-.71-11.136-9.273-22.928h-7.883z"/>
            <path fill="url(#e)" stroke="url(#e)" d="M11 11L6.872 6.051a.799.799 0 1 1 1.264-.976C8.302 5.308 9.256 7.283 11 11z"/>
            <path fill="url(#f)" d="M10.628 13C.818 24.665-2.2 32.308 1.572 35.928c5.659 5.43 20.429 5.43 24.588 0 2.285-3.494-.092-11.136-7.133-22.928h-8.399z"/>
            <path fill="#F6CE5F" stroke="#F6CE5F" d="M9 12a1 1 0 0 0 1 1h9a1 1 0 0 0 0-2h-9a1 1 0 0 0-1 1z"/>
            <ellipse cx="15.5" cy="27" fill="#FFF" rx="7.5" ry="7"/>
            <path fill="#4A5F6E" fill-rule="nonzero" d="M16.442 31.521l-1.113-.01-.048-1.055a4.614 4.614 0 0 1-2.82-1.252l.815-1.231a3.653 3.653 0 0 0 1.912 1l-.012-1.894c-1.226-.31-2.56-.807-2.63-2.375a2.363 2.363 0 0 1 2.421-2.357l-.103-1.027 1.113.01.05 1.112a4.272 4.272 0 0 1 2.443 1.077l-.888 1.216a3.275 3.275 0 0 0-1.475-.796l.072 1.652c1.242.326 2.618.809 2.688 2.405a2.35 2.35 0 0 1-.688 1.773c-.467.46-1.11.702-1.785.669l.048 1.083zm-1.478-6.385l.005-1.422c-.554-.038-.74.272-.763.596-.023.323.249.7.758.826zm2.14 2.97c-.006-.372-.355-.538-.852-.676l.02 1.435c.58-.098.837-.413.831-.76z"/>
        </g>
    </g>
</svg>
