<?xml version="1.0" encoding="UTF-8"?>
<svg width="1180px" height="286px" viewBox="0 0 1180 286" version="1.1" xmlns="http://www.w3.org/2000/svg" xmlns:xlink="http://www.w3.org/1999/xlink">
    <title>Artboard Copy</title>
    <g id="Artboard-Copy" stroke="none" stroke-width="1" fill="none" fill-rule="evenodd">
        <path d="M72.080441,193 L72.080441,159.208 L93.860441,159.208 C99.756441,159.208 104.772441,158.35 108.908441,156.634 C113.044441,154.918 116.410441,152.652 119.006441,149.836 C121.602441,147.02 123.494441,143.786 124.682441,140.134 C125.870441,136.482 126.464441,132.764 126.464441,128.98 C126.464441,125.108 125.870441,121.368 124.682441,117.76 C123.494441,114.152 121.602441,110.94 119.006441,108.124 C116.410441,105.308 113.044441,103.042 108.908441,101.326 C104.772441,99.61 99.756441,98.752 93.860441,98.752 L51.356441,98.752 L51.356441,193 L72.080441,193 Z M88.184441,143.104 L72.080441,143.104 L72.080441,114.856 L88.184441,114.856 C90.560441,114.856 92.848441,115.032 95.048441,115.384 C97.248441,115.736 99.184441,116.418 100.856441,117.43 C102.528441,118.442 103.870441,119.872 104.882441,121.72 C105.894441,123.568 106.400441,125.988 106.400441,128.98 C106.400441,131.972 105.894441,134.392 104.882441,136.24 C103.870441,138.088 102.528441,139.518 100.856441,140.53 C99.184441,141.542 97.248441,142.224 95.048441,142.576 C92.848441,142.928 90.560441,143.104 88.184441,143.104 Z M155.748886,193 L155.748886,156.172 L176.472886,156.172 C181.664886,156.172 185.404886,157.316 187.692886,159.604 C189.980886,161.892 191.476886,165.5 192.180886,170.428 C192.708886,174.212 193.104886,178.172 193.368886,182.308 C193.632886,186.444 194.336886,190.008 195.480886,193 L216.204886,193 C215.236886,191.68 214.510886,190.074 214.026886,188.182 C213.542886,186.29 213.190886,184.288 212.970886,182.176 C212.750886,180.064 212.596886,177.996 212.508886,175.972 C212.420886,173.948 212.332886,172.188 212.244886,170.692 C212.068886,168.316 211.738886,165.94 211.254886,163.564 C210.770886,161.188 210.000886,159.01 208.944886,157.03 C207.888886,155.05 206.524886,153.334 204.852886,151.882 C203.180886,150.43 201.068886,149.352 198.516886,148.648 L198.516886,148.384 C203.796886,146.272 207.602886,143.192 209.934886,139.144 C212.266886,135.096 213.432886,130.3 213.432886,124.756 C213.432886,121.148 212.794886,117.782 211.518886,114.658 C210.242886,111.534 208.394886,108.784 205.974886,106.408 C203.554886,104.032 200.650886,102.162 197.262886,100.798 C193.874886,99.434 190.068886,98.752 185.844886,98.752 L135.024886,98.752 L135.024886,193 L155.748886,193 Z M178.452886,141.388 L155.748886,141.388 L155.748886,114.856 L178.452886,114.856 C183.204886,114.856 186.768886,115.89 189.144886,117.958 C191.520886,120.026 192.708886,123.348 192.708886,127.924 C192.708886,132.676 191.520886,136.108 189.144886,138.22 C186.768886,140.332 183.204886,141.388 178.452886,141.388 Z M268.193332,195.112 C275.497332,195.112 282.009332,193.858 287.729332,191.35 C293.449332,188.842 298.289332,185.388 302.249332,180.988 C306.209332,176.588 309.245332,171.418 311.357332,165.478 C313.469332,159.538 314.525332,153.136 314.525332,146.272 C314.525332,139.232 313.469332,132.698 311.357332,126.67 C309.245332,120.642 306.209332,115.384 302.249332,110.896 C298.289332,106.408 293.449332,102.888 287.729332,100.336 C282.009332,97.784 275.497332,96.508 268.193332,96.508 C260.977332,96.508 254.487332,97.784 248.723332,100.336 C242.959332,102.888 238.097332,106.408 234.137332,110.896 C230.177332,115.384 227.141332,120.642 225.029332,126.67 C222.917332,132.698 221.861332,139.232 221.861332,146.272 C221.861332,153.136 222.917332,159.538 225.029332,165.478 C227.141332,171.418 230.177332,176.588 234.137332,180.988 C238.097332,185.388 242.959332,188.842 248.723332,191.35 C254.487332,193.858 260.977332,195.112 268.193332,195.112 Z M268.193332,177.82 C263.529332,177.82 259.569332,176.918 256.313332,175.114 C253.057332,173.31 250.417332,170.912 248.393332,167.92 C246.369332,164.928 244.895332,161.562 243.971332,157.822 C243.047332,154.082 242.585332,150.232 242.585332,146.272 C242.585332,142.136 243.047332,138.132 243.971332,134.26 C244.895332,130.388 246.369332,126.934 248.393332,123.898 C250.417332,120.862 253.057332,118.442 256.313332,116.638 C259.569332,114.834 263.529332,113.932 268.193332,113.932 C272.857332,113.932 276.817332,114.834 280.073332,116.638 C283.329332,118.442 285.969332,120.862 287.993332,123.898 C290.017332,126.934 291.491332,130.388 292.415332,134.26 C293.339332,138.132 293.801332,142.136 293.801332,146.272 C293.801332,150.232 293.339332,154.082 292.415332,157.822 C291.491332,161.562 290.017332,164.928 287.993332,167.92 C285.969332,170.912 283.329332,173.31 280.073332,175.114 C276.817332,176.918 272.857332,177.82 268.193332,177.82 Z M364.929777,193 C372.145777,193 378.415777,191.79 383.739777,189.37 C389.063777,186.95 393.507777,183.628 397.071777,179.404 C400.635777,175.18 403.297777,170.164 405.057777,164.356 C406.817777,158.548 407.697777,152.212 407.697777,145.348 C407.697777,137.516 406.619777,130.696 404.463777,124.888 C402.307777,119.08 399.315777,114.24 395.487777,110.368 C391.659777,106.496 387.127777,103.592 381.891777,101.656 C376.655777,99.72 371.001777,98.752 364.929777,98.752 L324.273777,98.752 L324.273777,193 L364.929777,193 Z M363.477777,175.576 L344.997777,175.576 L344.997777,116.176 L359.781777,116.176 C364.885777,116.176 369.175777,116.902 372.651777,118.354 C376.127777,119.806 378.921777,121.896 381.033777,124.624 C383.145777,127.352 384.663777,130.63 385.587777,134.458 C386.511777,138.286 386.973777,142.576 386.973777,147.328 C386.973777,152.52 386.313777,156.92 384.993777,160.528 C383.673777,164.136 381.913777,167.062 379.713777,169.306 C377.513777,171.55 375.005777,173.156 372.189777,174.124 C369.373777,175.092 366.469777,175.576 363.477777,175.576 Z M457.442223,195.112 C470.026223,195.112 479.882223,192.01 487.010223,185.806 C494.138223,179.602 497.702223,170.12 497.702223,157.36 L497.702223,98.752 L476.978223,98.752 L476.978223,157.36 C476.978223,164.4 475.570223,169.57 472.754223,172.87 C469.938223,176.17 464.834223,177.82 457.442223,177.82 C453.218223,177.82 449.852223,177.226 447.344223,176.038 C444.836223,174.85 442.878223,173.31 441.470223,171.418 C440.062223,169.526 439.138223,167.348 438.698223,164.884 C438.258223,162.42 438.038223,159.912 438.038223,157.36 L438.038223,98.752 L417.314223,98.752 L417.314223,157.36 C417.314223,170.208 420.812223,179.712 427.808223,185.872 C434.804223,192.032 444.682223,195.112 457.442223,195.112 Z M553.386668,195.112 C559.194668,195.112 564.518668,194.232 569.358668,192.472 C574.198668,190.712 578.422668,188.16 582.030668,184.816 C585.638668,181.472 588.542668,177.424 590.742668,172.672 C592.942668,167.92 594.306668,162.596 594.834668,156.7 L574.770668,156.7 C573.978668,163.036 571.800668,168.14 568.236668,172.012 C564.672668,175.884 559.722668,177.82 553.386668,177.82 C548.722668,177.82 544.762668,176.918 541.506668,175.114 C538.250668,173.31 535.610668,170.912 533.586668,167.92 C531.562668,164.928 530.088668,161.562 529.164668,157.822 C528.240668,154.082 527.778668,150.232 527.778668,146.272 C527.778668,142.136 528.240668,138.132 529.164668,134.26 C530.088668,130.388 531.562668,126.934 533.586668,123.898 C535.610668,120.862 538.250668,118.442 541.506668,116.638 C544.762668,114.834 548.722668,113.932 553.386668,113.932 C555.938668,113.932 558.380668,114.35 560.712668,115.186 C563.044668,116.022 565.134668,117.188 566.982668,118.684 C568.830668,120.18 570.370668,121.918 571.602668,123.898 C572.834668,125.878 573.626668,128.056 573.978668,130.432 L594.042668,130.432 C593.426668,124.976 591.930668,120.136 589.554668,115.912 C587.178668,111.688 584.164668,108.146 580.512668,105.286 C576.860668,102.426 572.724668,100.248 568.104668,98.752 C563.484668,97.256 558.578668,96.508 553.386668,96.508 C546.170668,96.508 539.680668,97.784 533.916668,100.336 C528.152668,102.888 523.290668,106.408 519.330668,110.896 C515.370668,115.384 512.334668,120.642 510.222668,126.67 C508.110668,132.698 507.054668,139.232 507.054668,146.272 C507.054668,153.136 508.110668,159.538 510.222668,165.478 C512.334668,171.418 515.370668,176.588 519.330668,180.988 C523.290668,185.388 528.152668,188.842 533.916668,191.35 C539.680668,193.858 546.170668,195.112 553.386668,195.112 Z M646.163114,193 L646.163114,116.176 L674.411114,116.176 L674.411114,98.752 L597.191114,98.752 L597.191114,116.176 L625.439114,116.176 L625.439114,193 L646.163114,193 Z" id="PRODUCT" fill="#000000" fill-rule="nonzero"></path>
        <path d="M722.224042,193 C726.976042,193 731.508042,192.34 735.820042,191.02 C740.132042,189.7 743.960042,187.764 747.304042,185.212 C750.648042,182.66 753.310042,179.448 755.290042,175.576 C757.270042,171.704 758.260042,167.216 758.260042,162.112 C758.260042,157.536 757.050042,153.51 754.630042,150.034 C752.210042,146.558 748.756042,144.204 744.268042,142.972 L744.268042,142.708 C747.084042,142.356 749.570042,141.52 751.726042,140.2 C753.882042,138.88 755.730042,137.23 757.270042,135.25 C758.810042,133.27 759.976042,131.026 760.768042,128.518 C761.560042,126.01 761.956042,123.436 761.956042,120.796 C761.956042,116.308 761.252042,112.634 759.844042,109.774 C758.436042,106.914 756.412042,104.67 753.772042,103.042 C751.132042,101.414 747.920042,100.292 744.136042,99.676 C740.352042,99.06 736.084042,98.752 731.332042,98.752 L691.732042,98.752 L672.064042,193 L722.224042,193 Z M727.240042,136.9 L703.744042,136.9 L708.364042,114.856 L730.276042,114.856 C733.620042,114.856 736.282042,115.538 738.262042,116.902 C740.242042,118.266 741.232042,120.796 741.232042,124.492 C741.232042,128.628 739.846042,131.73 737.074042,133.798 C734.302042,135.866 731.024042,136.9 727.240042,136.9 Z M721.300042,176.896 L695.296042,176.896 L700.840042,151.024 L721.168042,151.024 C723.016042,151.024 724.908042,151.112 726.844042,151.288 C728.780042,151.464 730.540042,151.926 732.124042,152.674 C733.708042,153.422 735.006042,154.5 736.018042,155.908 C737.030042,157.316 737.536042,159.252 737.536042,161.716 C737.536042,166.732 736.018042,170.516 732.982042,173.068 C729.946042,175.62 726.052042,176.896 721.300042,176.896 Z M815.731225,195.112 C824.003225,195.112 831.329225,193.55 837.709225,190.426 C844.089225,187.302 849.457225,183.056 853.813225,177.688 C858.169225,172.32 861.491225,166.116 863.779225,159.076 C866.067225,152.036 867.211225,144.644 867.211225,136.9 C867.211225,130.3 866.221225,124.492 864.241225,119.476 C862.261225,114.46 859.467225,110.236 855.859225,106.804 C852.251225,103.372 847.851225,100.798 842.659225,99.082 C837.467225,97.366 831.703225,96.508 825.367225,96.508 C817.447225,96.508 810.297225,98.048 803.917225,101.128 C797.537225,104.208 792.125225,108.366 787.681225,113.602 C783.237225,118.838 779.827225,124.888 777.451225,131.752 C775.075225,138.616 773.887225,145.876 773.887225,153.532 C773.887225,166.996 777.517225,177.292 784.777225,184.42 C792.037225,191.548 802.355225,195.112 815.731225,195.112 Z M815.995225,177.82 C812.211225,177.82 808.977225,177.16 806.293225,175.84 C803.609225,174.52 801.409225,172.738 799.693225,170.494 C797.977225,168.25 796.701225,165.676 795.865225,162.772 C795.029225,159.868 794.611225,156.788 794.611225,153.532 C794.611225,149.044 795.227225,144.446 796.459225,139.738 C797.691225,135.03 799.561225,130.762 802.069225,126.934 C804.577225,123.106 807.789225,119.982 811.705225,117.562 C815.621225,115.142 820.219225,113.932 825.499225,113.932 C829.371225,113.932 832.627225,114.592 835.267225,115.912 C837.907225,117.232 840.063225,118.992 841.735225,121.192 C843.407225,123.392 844.617225,125.966 845.365225,128.914 C846.113225,131.862 846.487225,135.008 846.487225,138.352 C846.487225,142.84 845.849225,147.416 844.573225,152.08 C843.297225,156.744 841.383225,160.99 838.831225,164.818 C836.279225,168.646 833.111225,171.77 829.327225,174.19 C825.543225,176.61 821.099225,177.82 815.995225,177.82 Z M919.666408,195.112 C927.938408,195.112 935.264408,193.55 941.644408,190.426 C948.024408,187.302 953.392408,183.056 957.748408,177.688 C962.104408,172.32 965.426408,166.116 967.714408,159.076 C970.002408,152.036 971.146408,144.644 971.146408,136.9 C971.146408,130.3 970.156408,124.492 968.176408,119.476 C966.196408,114.46 963.402408,110.236 959.794408,106.804 C956.186408,103.372 951.786408,100.798 946.594408,99.082 C941.402408,97.366 935.638408,96.508 929.302408,96.508 C921.382408,96.508 914.232408,98.048 907.852408,101.128 C901.472408,104.208 896.060408,108.366 891.616408,113.602 C887.172408,118.838 883.762408,124.888 881.386408,131.752 C879.010408,138.616 877.822408,145.876 877.822408,153.532 C877.822408,166.996 881.452408,177.292 888.712408,184.42 C895.972408,191.548 906.290408,195.112 919.666408,195.112 Z M919.930408,177.82 C916.146408,177.82 912.912408,177.16 910.228408,175.84 C907.544408,174.52 905.344408,172.738 903.628408,170.494 C901.912408,168.25 900.636408,165.676 899.800408,162.772 C898.964408,159.868 898.546408,156.788 898.546408,153.532 C898.546408,149.044 899.162408,144.446 900.394408,139.738 C901.626408,135.03 903.496408,130.762 906.004408,126.934 C908.512408,123.106 911.724408,119.982 915.640408,117.562 C919.556408,115.142 924.154408,113.932 929.434408,113.932 C933.306408,113.932 936.562408,114.592 939.202408,115.912 C941.842408,117.232 943.998408,118.992 945.670408,121.192 C947.342408,123.392 948.552408,125.966 949.300408,128.914 C950.048408,131.862 950.422408,135.008 950.422408,138.352 C950.422408,142.84 949.784408,147.416 948.508408,152.08 C947.232408,156.744 945.318408,160.99 942.766408,164.818 C940.214408,168.646 937.046408,171.77 933.262408,174.19 C929.478408,176.61 925.034408,177.82 919.930408,177.82 Z M1016.73759,195.112 C1021.22559,195.112 1025.75759,194.562 1030.33359,193.462 C1034.90959,192.362 1039.02359,190.58 1042.67559,188.116 C1046.32759,185.652 1049.31959,182.44 1051.65159,178.48 C1053.98359,174.52 1055.14959,169.724 1055.14959,164.092 C1055.14959,159.868 1054.53359,156.304 1053.30159,153.4 C1052.06959,150.496 1050.33159,148.032 1048.08759,146.008 C1045.84359,143.984 1043.18159,142.334 1040.10159,141.058 C1037.02159,139.782 1033.63359,138.66 1029.93759,137.692 C1028.35359,137.34 1026.28559,136.878 1023.73359,136.306 C1021.18159,135.734 1018.69559,134.942 1016.27559,133.93 C1013.85559,132.918 1011.78759,131.642 1010.07159,130.102 C1008.35559,128.562 1007.49759,126.648 1007.49759,124.36 C1007.49759,122.16 1007.98159,120.312 1008.94959,118.816 C1009.91759,117.32 1011.19359,116.11 1012.77759,115.186 C1014.36159,114.262 1016.14359,113.602 1018.12359,113.206 C1020.10359,112.81 1022.06159,112.612 1023.99759,112.612 C1026.37359,112.612 1028.61759,112.854 1030.72959,113.338 C1032.84159,113.822 1034.66759,114.636 1036.20759,115.78 C1037.74759,116.924 1038.93559,118.398 1039.77159,120.202 C1040.60759,122.006 1040.98159,124.228 1040.89359,126.868 L1060.56159,126.868 C1060.56159,121.412 1059.61559,116.77 1057.72359,112.942 C1055.83159,109.114 1053.27959,105.968 1050.06759,103.504 C1046.85559,101.04 1043.11559,99.258 1038.84759,98.158 C1034.57959,97.058 1030.02559,96.508 1025.18559,96.508 C1020.60959,96.508 1016.09959,97.058 1011.65559,98.158 C1007.21159,99.258 1003.22959,100.974 999.709592,103.306 C996.189592,105.638 993.329592,108.652 991.129592,112.348 C988.929592,116.044 987.829592,120.532 987.829592,125.812 C987.829592,129.86 988.511592,133.292 989.875592,136.108 C991.239592,138.924 993.043592,141.3 995.287592,143.236 C997.531592,145.172 1000.06159,146.756 1002.87759,147.988 C1005.69359,149.22 1008.59759,150.276 1011.58959,151.156 C1014.49359,152.036 1017.37559,152.872 1020.23559,153.664 C1023.09559,154.456 1025.64759,155.38 1027.89159,156.436 C1030.13559,157.492 1031.96159,158.746 1033.36959,160.198 C1034.77759,161.65 1035.48159,163.52 1035.48159,165.808 C1035.48159,168.184 1034.93159,170.208 1033.83159,171.88 C1032.73159,173.552 1031.32359,174.916 1029.60759,175.972 C1027.89159,177.028 1025.97759,177.82 1023.86559,178.348 C1021.75359,178.876 1019.64159,179.14 1017.52959,179.14 C1014.53759,179.14 1011.76559,178.854 1009.21359,178.282 C1006.66159,177.71 1004.46159,176.764 1002.61359,175.444 C1000.76559,174.124 999.357592,172.342 998.389592,170.098 C997.421592,167.854 997.025592,165.06 997.201592,161.716 L977.533592,161.716 C977.533592,173.244 980.767592,181.692 987.235592,187.06 C993.703592,192.428 1003.53759,195.112 1016.73759,195.112 Z M1105.09677,193 L1121.20077,116.176 L1149.44877,116.176 L1153.14477,98.752 L1074.47277,98.752 L1070.77677,116.176 L1100.34477,116.176 L1084.24077,193 L1105.09677,193 Z" id="BOOST" fill="#00B0EF" fill-rule="nonzero"></path>
    </g>
</svg>