<svg xmlns="http://www.w3.org/2000/svg" xmlns:xlink="http://www.w3.org/1999/xlink" width="90" height="90" viewBox="0 0 90 90">
    <defs>
        <linearGradient id="b" x1="50%" x2="50%" y1="0%" y2="100%">
            <stop offset="0%" stop-color="#CEF2FD"/>
            <stop offset="100%" stop-color="#8BDCFB"/>
        </linearGradient>
        <circle id="a" cx="44" cy="44" r="44"/>
        <linearGradient id="c" x1="50%" x2="50%" y1="0%" y2="100%">
            <stop offset="0%" stop-color="#8BDCFB" stop-opacity=".24"/>
            <stop offset="100%" stop-color="#8BDCFB"/>
        </linearGradient>
        <linearGradient id="e" x1="50%" x2="50%" y1="0%" y2="100%">
            <stop offset="0%" stop-color="#EEF2F5" stop-opacity=".5"/>
            <stop offset="100%" stop-color="#FFF"/>
        </linearGradient>
        <linearGradient id="f" x1="50%" x2="50%" y1="0%" y2="100%">
            <stop offset="0%" stop-color="#FFE380"/>
            <stop offset="100%" stop-color="#FFE380"/>
        </linearGradient>
        <linearGradient id="g" x1="50%" x2="50%" y1="100%" y2="0%">
            <stop offset="0%" stop-color="#FFD560"/>
            <stop offset="100%" stop-color="#F0B616"/>
        </linearGradient>
        <linearGradient id="h" x1="100%" x2="50%" y1="0%" y2="100%">
            <stop offset="0%" stop-color="#FFF"/>
            <stop offset="100%" stop-color="#F8FAFB"/>
        </linearGradient>
        <linearGradient id="i" x1="0%" y1="0%" y2="100%">
            <stop offset="0%" stop-color="#FFF"/>
            <stop offset="100%" stop-color="#F8FAFB"/>
            <stop offset="100%" stop-color="#F8FAFB"/>
        </linearGradient>
        <linearGradient id="j" x1="50%" x2="50%" y1="0%" y2="100%">
            <stop offset="0%" stop-color="#2F88EC"/>
            <stop offset="100%" stop-color="#2FB7EC"/>
        </linearGradient>
        <linearGradient id="k" x1="100%" y1="0%" y2="100%">
            <stop offset="0%" stop-color="#FFA39E"/>
            <stop offset="100%" stop-color="#E14D4C"/>
        </linearGradient>
    </defs>
    <g fill="none" fill-rule="evenodd">
        <g transform="translate(1 2)">
            <mask id="d" fill="#fff">
                <use xlink:href="#a"/>
            </mask>
            <use fill="url(#b)" fill-rule="nonzero" xlink:href="#a"/>
            <path fill="url(#c)" fill-rule="nonzero" d="M26 54h36v38H26z" mask="url(#d)"/>
            <circle cx="78" cy="68" r="4" fill="#EEF2F5" fill-rule="nonzero" mask="url(#d)"/>
            <circle cx="76" cy="74" r="4" fill="#FFF" fill-rule="nonzero" mask="url(#d)"/>
            <circle cx="10" cy="68" r="4" fill="#EEF2F5" fill-rule="nonzero" mask="url(#d)"/>
            <circle cx="12" cy="72" r="4" fill="#FFF" fill-rule="nonzero" mask="url(#d)"/>
            <g fill-rule="nonzero" mask="url(#d)">
                <g transform="translate(12 58)">
                    <path fill="url(#e)" d="M24 2h16l8 30H16z"/>
                    <circle cx="22" cy="34" r="8" fill="#FFF"/>
                    <circle cx="44" cy="34" r="8" fill="#FFF"/>
                    <circle cx="32" cy="44" r="32" fill="#F8FAFB"/>
                    <path fill="url(#f)" d="M32 16c-6.75-6.58-5.688-11.2-4-16h8c1.688 4.8 2.75 9.42-4 16z"/>
                    <path fill="url(#g)" d="M32 0c2.667 2.985 2.667 5.652 0 8-2.667-2.354-2.667-5.02 0-8z"/>
                    <circle cx="52" cy="14" r="12" fill="url(#h)"/>
                    <circle cx="12" cy="14" r="12" fill="url(#i)"/>
                </g>
            </g>
        </g>
        <g fill-rule="nonzero" transform="translate(27)">
            <path fill="#E14D4C" d="M28 38l8 10.175V58l-8-6V38zM8 38L0 48.175V58l8-6V38z"/>
            <path fill="#FFF" d="M29.992 18c2.595 6.475 2.043 18.61-1.656 36.407A2 2 0 0 1 26.378 56H9.622a2 2 0 0 1-1.958-1.593C3.964 36.611 3.41 24.475 6 18h23.992z"/>
            <path fill="#EEF2F5" d="M6 18h12v38H9.622a2 2 0 0 1-1.958-1.593C3.964 36.611 3.41 24.475 6 18z"/>
            <path fill="#E14D4C" d="M10 56.001L8 62h20l-2-6z"/>
            <circle cx="18" cy="28" r="5" fill="#8BDCFB" stroke="url(#j)" stroke-width="2"/>
            <path fill="url(#k)" d="M18 0C14.006 0 8 13.997 6 18h24c-2-4.003-8-18-12-18z"/>
        </g>
    </g>
</svg>
