<svg width="240" height="200" viewBox="0 0 240 200" fill="none" xmlns="http://www.w3.org/2000/svg">
<mask id="mask0" mask-type="alpha" maskUnits="userSpaceOnUse" x="0" y="0" width="240" height="200">
<rect width="240" height="200" fill="white"/>
</mask>
<g mask="url(#mask0)">
<path d="M56.5352 148.014H66.2495C66.786 148.014 67.2209 148.449 67.2209 148.985V152.871C67.2209 153.407 66.786 153.842 66.2495 153.842H56.5352C55.9987 153.842 55.5638 153.407 55.5638 152.871V148.985C55.5638 148.449 55.9987 148.014 56.5352 148.014Z" fill="#CEF2FD"/>
<path d="M48.764 140.242H58.4783C59.0148 140.242 59.4497 140.677 59.4497 141.214V145.099C59.4497 145.636 59.0148 146.071 58.4783 146.071H48.764C48.2275 146.071 47.7926 145.636 47.7926 145.099V141.214C47.7926 140.677 48.2275 140.242 48.764 140.242Z" fill="#CEF2FD"/>
<path d="M185.589 58.9526L228.216 166.018H185.589V58.9526Z" fill="#E6F7FF"/>
<rect x="24" y="166.057" width="206.914" height="1.94286" rx="0.971429" fill="#79D6FA"/>
<path fill-rule="evenodd" clip-rule="evenodd" d="M150.574 44.7837C153.793 44.7837 156.403 47.3932 156.403 50.6123C156.403 53.8313 153.793 56.4408 150.574 56.4408C147.355 56.4408 144.746 53.8313 144.746 50.6123C144.746 47.3932 147.355 44.7837 150.574 44.7837ZM150.574 46.7265C148.428 46.7265 146.688 48.4662 146.688 50.6123C146.688 52.7583 148.428 54.498 150.574 54.498C152.72 54.498 154.46 52.7583 154.46 50.6123C154.46 48.4662 152.72 46.7265 150.574 46.7265Z" fill="#326BEE"/>
<path fill-rule="evenodd" clip-rule="evenodd" d="M138.917 58.3844H150.574L151.485 42.8986C151.516 42.363 151.108 41.9033 150.572 41.8718C150.553 41.8707 150.534 41.8701 150.515 41.8701H138.976C138.439 41.8701 138.004 42.305 138.004 42.8415C138.004 42.8606 138.005 42.8796 138.006 42.8986L138.917 58.3844Z" fill="#5685F1"/>
<path d="M142.802 41.8701H141.831V50.613H142.802V41.8701Z" fill="#2FB7EC"/>
<path fill-rule="evenodd" clip-rule="evenodd" d="M142.317 47.6992L144.746 51.5849H139.888L142.317 47.6992Z" fill="#2FB7EC"/>
<path fill-rule="evenodd" clip-rule="evenodd" d="M139.888 41.87C138.593 39.4326 139.403 37.6899 142.317 36.642C146.688 35.07 148.143 36.4703 147.415 32.9417C146.688 29.4132 153.304 36.8509 149.025 38.0431C146.172 38.838 146.172 40.1136 149.025 41.87H139.888Z" fill="url(#paint0_linear)"/>
<path d="M183.586 104.037H193.3C193.837 104.037 194.272 104.472 194.272 105.009V108.894C194.272 109.431 193.837 109.866 193.3 109.866H183.586C183.05 109.866 182.615 109.431 182.615 108.894V105.009C182.615 104.472 183.05 104.037 183.586 104.037Z" fill="#2FB7EC" fill-opacity="0.4"/>
<path d="M195.243 86.5513H204.957C205.494 86.5513 205.929 86.9862 205.929 87.5227V91.4084C205.929 91.9449 205.494 92.3798 204.957 92.3798H195.243C194.706 92.3798 194.272 91.9449 194.272 91.4084V87.5227C194.272 86.9862 194.706 86.5513 195.243 86.5513Z" fill="#2FB7EC" fill-opacity="0.4"/>
<path d="M199.128 78.7793H208.843C209.379 78.7793 209.814 79.2142 209.814 79.7507V83.6364C209.814 84.1729 209.379 84.6079 208.843 84.6079H199.128C198.592 84.6079 198.157 84.1729 198.157 83.6364V79.7507C198.157 79.2142 198.592 78.7793 199.128 78.7793Z" fill="#CEF2FD"/>
<path d="M179.623 166.018C176.89 158.941 174.605 151.361 173.927 146.836C172.845 139.603 174.468 134.722 178.435 134.179C182.401 133.637 185.326 140.539 185.326 140.539C185.326 140.539 187.014 130.763 190.013 124.371C193.014 117.977 199.388 114.97 203.514 120.046C207.639 125.122 204.503 143.776 204.503 143.776C205.093 143.385 210.047 140.176 212.965 142.042C216.102 144.049 214.77 150.563 214.203 153.336C213.261 157.942 210.805 162.539 208.232 166.018" fill="#A8DFF5"/>
<path d="M190.708 164.501L196.389 130.951" stroke="#79D6FA" stroke-linecap="round" stroke-linejoin="round"/>
<rect x="161.942" y="60.1714" width="23.3143" height="105.886" fill="url(#paint1_linear)"/>
<rect x="96.8564" y="60.1719" width="65.0857" height="105.886" fill="url(#paint2_linear)"/>
<rect x="99.7708" y="63.0854" width="57.3143" height="29.1429" rx="1" fill="url(#paint3_linear)"/>
<path d="M154.171 63.0854H156.085C156.638 63.0854 157.085 63.5332 157.085 64.0854V91.2283C157.085 91.7806 156.638 92.2283 156.085 92.2283H154.171V63.0854Z" fill="#C3D4FA"/>
<rect x="114.342" y="70.856" width="25.2572" height="13.6" rx="1" fill="#8CACF6"/>
<rect x="116.285" y="72.7998" width="21.3714" height="3.88572" rx="1" fill="#E7EEFD"/>
<rect x="99.7708" y="95.1436" width="57.3143" height="32.0571" rx="1" fill="#E7EEFD"/>
<path d="M154.171 95.1426H156.086C156.638 95.1426 157.086 95.5903 157.086 96.1426V126.2C157.086 126.752 156.638 127.2 156.086 127.2H154.171V95.1426Z" fill="#C3D4FA"/>
<rect x="114.343" y="102.914" width="25.2572" height="13.6" rx="1" fill="#8CACF6"/>
<rect x="116.286" y="104.857" width="21.3714" height="3.88572" rx="1" fill="#E7EEFD"/>
<rect width="93.2572" height="1.94286" transform="matrix(1 0 0 -1 93.9421 60.1719)" fill="#C3D4FA"/>
<rect x="103.656" y="130.114" width="53.4286" height="32.0571" rx="1" fill="#376EEE"/>
<path fill-rule="evenodd" clip-rule="evenodd" d="M68.1999 150.029L71.5999 131.086V89.3145H39.5427L68.1999 150.029Z" fill="url(#paint4_linear)"/>
<path d="M107.43 97.311H68.2114C68.2114 124.3 68.2114 137.794 68.2114 137.794C68.2114 137.794 68.5974 142.855 73.2718 142.855C76.3881 142.855 87.7741 142.855 107.43 142.855V97.311Z" fill="#2EE3AA"/>
<path d="M102.685 111.859H72.9554C72.4314 111.859 72.0066 112.284 72.0066 112.808C72.0066 113.332 72.4314 113.757 72.9554 113.757H102.685C103.209 113.757 103.634 113.332 103.634 112.808C103.634 112.284 103.209 111.859 102.685 111.859Z" fill="white"/>
<path d="M90.0343 101.105H72.9554C72.4314 101.105 72.0066 101.53 72.0066 102.054C72.0066 102.578 72.4314 103.003 72.9554 103.003H90.0343C90.5584 103.003 90.9832 102.578 90.9832 102.054C90.9832 101.53 90.5584 101.105 90.0343 101.105Z" fill="#92F1D3"/>
<path d="M81.1786 104.901H72.9554C72.4314 104.901 72.0066 105.326 72.0066 105.85C72.0066 106.374 72.4314 106.799 72.9554 106.799H81.1786C81.7026 106.799 82.1274 106.374 82.1274 105.85C82.1274 105.326 81.7026 104.901 81.1786 104.901Z" fill="#92F1D3"/>
<path d="M83.7088 123.245H72.9554C72.4314 123.245 72.0066 123.669 72.0066 124.193C72.0066 124.717 72.4314 125.142 72.9554 125.142H83.7088C84.2328 125.142 84.6576 124.717 84.6576 124.193C84.6576 123.669 84.2328 123.245 83.7088 123.245Z" fill="white"/>
<path d="M83.7088 127.041H72.9554C72.4314 127.041 72.0066 127.466 72.0066 127.99C72.0066 128.514 72.4314 128.939 72.9554 128.939H83.7088C84.2328 128.939 84.6576 128.514 84.6576 127.99C84.6576 127.466 84.2328 127.041 83.7088 127.041Z" fill="white"/>
<path d="M83.7088 132.733H72.9554C72.4314 132.733 72.0066 133.158 72.0066 133.682C72.0066 134.206 72.4314 134.631 72.9554 134.631H83.7088C84.2328 134.631 84.6576 134.206 84.6576 133.682C84.6576 133.158 84.2328 132.733 83.7088 132.733Z" fill="#FFD560"/>
<path d="M102.685 115.655H72.9554C72.4314 115.655 72.0066 116.08 72.0066 116.604C72.0066 117.128 72.4314 117.552 72.9554 117.552H102.685C103.209 117.552 103.634 117.128 103.634 116.604C103.634 116.08 103.209 115.655 102.685 115.655Z" fill="white"/>
<path d="M102.685 119.449H72.9554C72.4314 119.449 72.0066 119.874 72.0066 120.398C72.0066 120.922 72.4314 121.347 72.9554 121.347H102.685C103.209 121.347 103.634 120.922 103.634 120.398C103.634 119.874 103.209 119.449 102.685 119.449Z" fill="white"/>
<path d="M77.737 137.793C77.737 140.588 75.7379 142.853 73.2719 142.853H111.225V137.793H77.737Z" fill="url(#paint5_linear)"/>
<mask id="mask1" mask-type="alpha" maskUnits="userSpaceOnUse" x="111" y="137" width="6" height="6">
<path d="M111.225 137.793V142.854L111.383 142.851C114.104 142.768 116.285 140.536 116.285 137.793H111.225Z" fill="white"/>
</mask>
<g mask="url(#mask1)">
<path d="M111.225 137.793V142.854L111.383 142.851C114.104 142.768 116.285 140.536 116.285 137.793H111.225Z" fill="#2EE3AA"/>
</g>
<path d="M88.4502 84.5019C88.3686 81.8324 86.2194 79.6832 83.5498 79.6015L83.3922 79.5991H44.8065C46.6017 79.5991 49.1328 81.7768 49.2314 84.4958L49.2344 84.6595V117.552C49.2344 117.552 49.6204 122.613 54.2948 122.613H64.0994L63.4668 92.2502L88.4526 92.3521V84.6595L88.4502 84.5019Z" fill="#FFD560"/>
<path d="M63.4668 92.2495C60.8467 92.2495 58.7226 94.3735 58.7226 96.9937V118.192C58.3948 120.743 56.9189 122.216 54.2948 122.612C56.8138 122.612 61.4525 122.612 68.2109 122.612V96.9937C68.2109 94.3735 66.0869 92.2495 63.4668 92.2495Z" fill="url(#paint6_linear)"/>
<path d="M68.2113 97.3096C68.2113 93.7653 65.4289 92.2491 63.7834 92.2491H102.369V97.3096H68.2113Z" fill="#2EE3AA"/>
<mask id="mask2" mask-type="alpha" maskUnits="userSpaceOnUse" x="102" y="92" width="6" height="6">
<path d="M102.369 97.3096V92.2491L102.527 92.2516C105.249 92.3348 107.43 94.5675 107.43 97.3096H102.369Z" fill="white"/>
</mask>
<g mask="url(#mask2)">
<path d="M102.369 97.3096V92.2491L102.527 92.2516C105.249 92.3348 107.43 94.5675 107.43 97.3096H102.369Z" fill="#2EE3AA"/>
</g>
<path d="M44.4907 79.5991C41.8706 79.5991 39.7466 81.7231 39.7466 84.3433V89.72H49.2349V84.3433C49.2349 81.7231 47.1108 79.5991 44.4907 79.5991Z" fill="url(#paint7_linear)"/>
<path d="M69.9055 84.6597H54.0917C53.5676 84.6597 53.1428 85.0845 53.1428 85.6085C53.1428 86.1325 53.5676 86.5573 54.0917 86.5573H69.9055C70.4295 86.5573 70.8543 86.1325 70.8543 85.6085C70.8543 85.0845 70.4295 84.6597 69.9055 84.6597Z" fill="white"/>
<path d="M62.3148 88.4561H54.0917C53.5676 88.4561 53.1428 88.8809 53.1428 89.4049C53.1428 89.9289 53.5676 90.3537 54.0917 90.3537H62.3148C62.8389 90.3537 63.2637 89.9289 63.2637 89.4049C63.2637 88.8809 62.8389 88.4561 62.3148 88.4561Z" fill="white"/>
<path d="M103.656 136.942C103.656 136.39 104.104 135.942 104.656 135.942H157.085V161.17C157.085 161.723 156.637 162.17 156.085 162.17H104.656C104.104 162.17 103.656 161.723 103.656 161.17V136.942Z" fill="url(#paint8_linear)"/>
<rect x="58.9714" y="131.086" width="57.3143" height="32.0571" rx="1" fill="url(#paint9_linear)"/>
<path d="M113.371 131.085H115.285C115.838 131.085 116.285 131.533 116.285 132.085V162.143C116.285 162.695 115.838 163.143 115.285 163.143H113.371V131.085Z" fill="#C3D4FA"/>
<rect x="73.5425" y="138.857" width="25.2572" height="13.6" rx="1" fill="#8CACF6"/>
<rect x="75.4854" y="140.8" width="21.3714" height="3.88572" rx="1" fill="#E7EEFD"/>
<path fill-rule="evenodd" clip-rule="evenodd" d="M46.7996 152.478L45.0374 166.056H33.9948L32.3501 152.478H46.7996Z" fill="#8CACF6"/>
<path fill-rule="evenodd" clip-rule="evenodd" d="M49.2681 149.763L48.0934 153.305H31.216L30.1197 149.763H49.2681Z" fill="#C3D4FA"/>
<path fill-rule="evenodd" clip-rule="evenodd" d="M50.8218 145.394C50.8218 145.394 48.9422 143.859 48.2373 144.449C47.5324 145.04 45.3005 149.763 45.3005 149.763H42.5986C42.5986 149.763 47.4149 138.664 50.8218 145.394Z" fill="#1ACC94"/>
<path fill-rule="evenodd" clip-rule="evenodd" d="M37.7815 149.763C37.7815 149.763 32.8477 143.387 27.9136 142.442C27.9136 142.442 29.9106 146.929 34.7272 149.763H37.7815Z" fill="#1ACC94"/>
<path fill-rule="evenodd" clip-rule="evenodd" d="M46.5506 130.753C46.5506 130.753 47.8456 142.796 43.0639 149.763H41.0718C41.0718 149.763 43.4624 137.837 46.5506 130.753Z" fill="#1ACC94"/>
<path fill-rule="evenodd" clip-rule="evenodd" d="M42.7685 123.314C42.7685 123.314 43.5909 142.088 41.2413 149.762H38.9507C38.9507 149.762 36.5423 135.83 42.7685 123.314Z" fill="#1ACC94"/>
<path fill-rule="evenodd" clip-rule="evenodd" d="M39.3677 149.764C36.5782 141.394 36.8419 128.865 26.974 124.142C33.0862 130.338 28.7361 139.019 37.7817 149.764H39.3677Z" fill="#1ACC94"/>
</g>
<defs>
<linearGradient id="paint0_linear" x1="144.884" y1="32" x2="144.884" y2="41.87" gradientUnits="userSpaceOnUse">
<stop stop-color="#FFD560"/>
<stop offset="1" stop-color="#FFE380"/>
</linearGradient>
<linearGradient id="paint1_linear" x1="158.5" y1="171.5" x2="202.5" y2="113" gradientUnits="userSpaceOnUse">
<stop stop-color="#6090FF"/>
<stop offset="1" stop-color="#376EEE"/>
</linearGradient>
<linearGradient id="paint2_linear" x1="171.656" y1="173.829" x2="117.742" y2="87.3719" gradientUnits="userSpaceOnUse">
<stop stop-color="#C3D4FA"/>
<stop offset="1" stop-color="#8CACF6"/>
</linearGradient>
<linearGradient id="paint3_linear" x1="113.856" y1="85.914" x2="97.7235" y2="42.61" gradientUnits="userSpaceOnUse">
<stop stop-color="#E7EEFD"/>
<stop offset="1" stop-color="#C3D4FA"/>
</linearGradient>
<linearGradient id="paint4_linear" x1="50.3364" y1="140.8" x2="36.6523" y2="93.2528" gradientUnits="userSpaceOnUse">
<stop stop-color="#FFE380" stop-opacity="0"/>
<stop offset="1" stop-color="#FFF0BB"/>
</linearGradient>
<linearGradient id="paint5_linear" x1="73.2719" y1="140.278" x2="110.574" y2="145.252" gradientUnits="userSpaceOnUse">
<stop stop-color="#1ACC94"/>
<stop offset="1" stop-color="#2EE3AA"/>
</linearGradient>
<linearGradient id="paint6_linear" x1="62.7145" y1="92.2495" x2="50.7067" y2="118.448" gradientUnits="userSpaceOnUse">
<stop stop-color="#1ACC94"/>
<stop offset="1" stop-color="#2EE3AA"/>
</linearGradient>
<linearGradient id="paint7_linear" x1="40.3211" y1="79.5991" x2="49.2719" y2="89.1467" gradientUnits="userSpaceOnUse">
<stop stop-color="#F0B616"/>
<stop offset="1" stop-color="#FFC72C"/>
</linearGradient>
<linearGradient id="paint8_linear" x1="130.371" y1="135.942" x2="162.914" y2="170.913" gradientUnits="userSpaceOnUse">
<stop stop-color="#8CACF6"/>
<stop offset="1" stop-color="#8CACF6" stop-opacity="0"/>
</linearGradient>
<linearGradient id="paint9_linear" x1="62.3714" y1="134.486" x2="81.8" y2="184.029" gradientUnits="userSpaceOnUse">
<stop stop-color="#E7EEFD"/>
<stop offset="1" stop-color="#C3D4FA"/>
</linearGradient>
</defs>
</svg>
