<svg xmlns="http://www.w3.org/2000/svg" xmlns:xlink="http://www.w3.org/1999/xlink" width="260" height="160" viewBox="0 0 260 160">
    <defs>
        <path id="a" d="M0 0h260v160H0z"/>
        <linearGradient id="c" x1="70.674%" x2="70.674%" y1="0%" y2="100%">
            <stop offset="0%" stop-color="#EEF2F5"/>
            <stop offset="100%" stop-color="#EEF2F5" stop-opacity="0"/>
        </linearGradient>
        <linearGradient id="d" x1="53.666%" x2="53.666%" y1="25.024%" y2="75.398%">
            <stop offset="0%" stop-color="#EEF2F5"/>
            <stop offset="100%" stop-color="#EEF2F5" stop-opacity="0"/>
        </linearGradient>
        <linearGradient id="e" x1="-4.066%" y1="50%" y2="50%">
            <stop offset="0%" stop-color="#FFF"/>
            <stop offset="100%" stop-color="#FFF" stop-opacity="0"/>
        </linearGradient>
        <path id="f" d="M112 99a2 2 0 0 1-2 2H52a2 2 0 0 1-2-2V55a2 2 0 0 1 2-2h52l8 8v38z"/>
        <linearGradient id="g" x1="98.188%" x2="0%" y1="39.407%" y2="60.593%">
            <stop offset="0%" stop-color="#FFE380"/>
            <stop offset="100%" stop-color="#FFD560"/>
        </linearGradient>
        <path id="h" d="M210 99a2 2 0 0 1-2 2h-58a2 2 0 0 1-2-2V55a2 2 0 0 1 2-2h52l8 8v38z"/>
        <linearGradient id="i" x1="0%" y1="0%" y2="100%">
            <stop offset="0%" stop-color="#FFE380"/>
            <stop offset="100%" stop-color="#FFD560"/>
        </linearGradient>
        <linearGradient id="j" x1="100%" x2="31.308%" y1="37.226%" y2="62.774%">
            <stop offset="0%" stop-color="#79D6FA" stop-opacity=".28"/>
            <stop offset="100%" stop-color="#E6F7FF"/>
        </linearGradient>
    </defs>
    <g fill="none" fill-rule="evenodd">
        <mask id="b" fill="#fff">
            <use xlink:href="#a"/>
        </mask>
        <use fill="#D8D8D8" fill-opacity="0" xlink:href="#a"/>
        <g mask="url(#b)">
            <path fill="url(#c)" d="M26.822 57.873c13.883-.071 14.183-17.376 22.877-17.483 8.694-.108 12.456 28.354 23.196 28.174 10.74-.18 12.583-21.93 23.338-21.963 10.755-.034 10.28 13.264 23.488 13.185 13.209-.079 11.308-32.278 22.178-32.278 10.87 0 6.848 14.515 22.401 14.483C179.854 41.959 173.75 2 187.754 2s9.35 48.052 22.712 48.09c13.362.038 11.478-17.65 22.712-17.594 11.234.057 6.506 24.87 23.361 24.765H260v28.72H0V49.53c8.626 5.609 17.567 8.39 26.822 8.343z"/>
            <path fill="url(#d)" d="M26.865 36.173c11.359.182 8.7 27.365 22.864 27.486 14.163.122 8.606-16.442 23.166-16.672 14.56-.23 11.14-33.783 23.361-33.783s7.772 24.642 23.578 24.621c15.805-.02 10.013-2.557 22.065-2.48 12.051.078 9.218 32.593 22.401 32.525 13.184-.068 12.817-16.746 23.432-16.773 10.615-.028 11.223 13.809 22.669 13.766 11.445-.043 11.896-11.307 22.876-11.447 10.981-.14 12.882-22.12 23.337-22.11.745.002 1.874.002 3.386 0v55.535H0V31.937c10.338 2.703 19.293 4.115 26.865 4.236z"/>
            <circle cx="96" cy="14" r="2" fill="#C4CDD5"/>
            <circle cx="96" cy="46" r="2" fill="#C4CDD5"/>
            <circle cx="69" cy="48" r="2" fill="#C4CDD5"/>
            <circle cx="212" cy="50" r="2" fill="#C4CDD5"/>
            <circle cx="143" cy="27" r="2" fill="#C4CDD5"/>
            <circle cx="188" cy="2" r="2" fill="#C4CDD5"/>
            <circle cx="120" cy="38" r="2" fill="#C4CDD5"/>
        </g>
        <rect width="24" height="2" x="84" y="131" fill="#AFC7D1" mask="url(#b)" rx="1"/>
        <rect width="20" height="2" x="142" y="131" fill="#AFC7D1" mask="url(#b)" rx="1"/>
        <rect width="2" height="2" x="164" y="131" fill="#AFC7D1" mask="url(#b)" rx="1"/>
        <rect width="4" height="2" x="148" y="131" fill="#AFC7D1" mask="url(#b)" rx="1"/>
        <path fill="url(#e)" d="M180 0h80v160h-80z" mask="url(#b)" transform="matrix(-1 0 0 1 440 0)"/>
        <path fill="url(#e)" d="M0 0h80v160H0z" mask="url(#b)"/>
        <g fill-rule="nonzero" mask="url(#b)" transform="rotate(-10 81 77)">
            <use fill="#FFF" xlink:href="#f"/>
            <use fill="#AFC7D1" fill-opacity=".5" xlink:href="#f"/>
        </g>
        <path fill="#FFF" fill-rule="nonzero" d="M54 59h54v36H54z" mask="url(#b)" transform="rotate(-10 81 77)"/>
        <path fill="#EEF2F5" fill-rule="nonzero" d="M61.651 68.443a1 1 0 0 1 1 1v26a1 1 0 0 1-2 0v-26a1 1 0 0 1 1-1z" mask="url(#b)" transform="rotate(-10 61.651 82.443)"/>
        <path fill="#D5DFE6" fill-rule="nonzero" d="M61.084 87.818h44a1 1 0 1 1 0 2h-44a1 1 0 1 1 0-2z" mask="url(#b)" transform="rotate(-10 83.084 88.818)"/>
        <path fill="url(#g)" d="M62.285 80.53l5.034-3.176h7.617l6.386-3.712h10.626l10.575-4.383v18.52H62.285z" mask="url(#b)" transform="rotate(-10 82.404 78.519)"/>
        <circle cx="100.465" cy="66.46" r="1" fill="#FFC72C" mask="url(#b)" transform="rotate(-10 100.465 66.46)"/>
        <circle cx="91.312" cy="72.135" r="1" fill="#FFC72C" mask="url(#b)" transform="rotate(-10 91.312 72.135)"/>
        <circle cx="80.479" cy="74.046" r="1" fill="#FFC72C" mask="url(#b)" transform="rotate(-10 80.48 74.046)"/>
        <circle cx="75.265" cy="79.027" r="1" fill="#FFC72C" mask="url(#b)" transform="rotate(-10 75.265 79.027)"/>
        <circle cx="67.386" cy="80.416" r="1" fill="#FFC72C" mask="url(#b)" transform="rotate(-10 67.386 80.416)"/>
        <path fill="#AFC7D1" fill-rule="nonzero" d="M100.117 48.615h8v8z" mask="url(#b)" transform="rotate(-170 104.117 52.615)"/>
        <g fill-rule="nonzero" mask="url(#b)" transform="rotate(10 179 77)">
            <use fill="#FFF" xlink:href="#h"/>
            <use fill="#AFC7D1" fill-opacity=".5" xlink:href="#h"/>
        </g>
        <path fill="#FFF" fill-rule="nonzero" d="M152 59h54v36h-54z" mask="url(#b)" transform="rotate(10 179 77)"/>
        <g mask="url(#b)">
            <path fill="url(#i)" d="M20 10c0 5.523-4.477 10-10 10S0 15.523 0 10 4.477 0 10 0v10z" transform="rotate(10 -282.907 946.474)"/>
            <path fill="#FFC72C" d="M169.904 65.242c5.439.959 9.07 6.145 8.111 11.584l-9.848-1.736 1.737-9.848z"/>
            <path fill="#FFD560" d="M169.904 65.242a9.957 9.957 0 0 1 5.664 3.122c-1.671 1.675-4.138 3.916-7.4 6.726l1.736-9.848z"/>
            <g fill="#AFC7D1" fill-opacity=".4" fill-rule="nonzero">
                <path d="M183.981 71.786l15.757 2.778a1 1 0 0 1-.347 1.97l-15.757-2.779a1 1 0 1 1 .347-1.97zM183.113 76.71l15.757 2.778a1 1 0 0 1-.347 1.97l-15.757-2.779a1 1 0 1 1 .347-1.97zM182.245 81.634l11.817 2.084a1 1 0 0 1-.347 1.97l-11.818-2.085a1 1 0 0 1 .348-1.97z"/>
            </g>
        </g>
        <path fill="#AFC7D1" fill-rule="nonzero" d="M205.063 57.992h8v8z" mask="url(#b)" transform="rotate(170 209.063 61.992)"/>
        <path fill="#1A4379" fill-rule="nonzero" d="M156 131a2 2 0 0 1-2 2H96a2 2 0 0 1-2-2V87a2 2 0 0 1 2-2h52l8 8v38z" mask="url(#b)"/>
        <path fill="#FFF" fill-rule="nonzero" d="M98 91h54v36H98z" mask="url(#b)"/>
        <path fill="url(#j)" d="M107.202 120c10.656-.875 19.3-3.86 24.56-12.747 5.258-8.888 11.65-7.254 15.243-7.254V120h-39.803z" mask="url(#b)"/>
        <path fill="#EEF2F5" fill-rule="nonzero" d="M105 97a1 1 0 0 1 1 1v26a1 1 0 1 1-2 0V98a1 1 0 0 1 1-1z" mask="url(#b)"/>
        <path fill="#D5DFE6" fill-rule="nonzero" d="M103 120h44a1 1 0 1 1 0 2h-44a1 1 0 1 1 0-2z" mask="url(#b)"/>
        <path fill="#006BA0" fill-rule="nonzero" d="M148 85h8v8z" mask="url(#b)" transform="rotate(180 152 89)"/>
        <path fill="#2FB7EC" fill-rule="nonzero" d="M107 119.987c.5 0 .905.002 1.787.008 5.219.032 7.436-.077 10.15-.7 3.61-.829 6.612-2.52 9.253-5.414.368-.404.718-.821 1.055-1.254a26.248 26.248 0 0 0 1.726-2.536c.221-.366.44-.738.713-1.213l.662-1.156c2.945-5.094 5.587-6.723 13.659-6.723a1 1 0 1 0 0-1.999c-8.81 0-12.1 2.029-15.391 7.722l-.665 1.16a55.12 55.12 0 0 1-.689 1.172 24.299 24.299 0 0 1-1.595 2.347c-.305.392-.62.769-.953 1.133-4.242 4.649-8.052 5.524-17.912 5.462-.887-.005-1.295-.007-1.8-.007a1 1 0 1 0 0 1.998z" mask="url(#b)"/>
    </g>
</svg>
