<svg xmlns="http://www.w3.org/2000/svg" xmlns:xlink="http://www.w3.org/1999/xlink" width="400" height="200" viewBox="0 0 400 200">
    <defs>
        <path id="a" d="M0 0h400v200H0z"/>
        <linearGradient id="c" x1="100%" x2="0%" y1="0%" y2="0%">
            <stop offset="0%" stop-color="#006BA0" stop-opacity=".4"/>
            <stop offset="100%" stop-color="#006BA0"/>
        </linearGradient>
        <linearGradient id="d" x1="100%" x2="0%" y1="88.236%" y2="11.764%">
            <stop offset="0%" stop-color="#CEF2FD"/>
            <stop offset="100%" stop-color="#8BDCFB"/>
        </linearGradient>
        <linearGradient id="e" x1="55.337%" x2="44.663%" y1="100%" y2="0%">
            <stop offset="0%" stop-color="#8BDCFB"/>
            <stop offset="100%" stop-color="#8BDCFB"/>
        </linearGradient>
        <linearGradient id="f" x1="100%" x2="0%" y1="86.735%" y2="13.265%">
            <stop offset="0%" stop-color="#CEF2FD"/>
            <stop offset="100%" stop-color="#8BDCFB"/>
        </linearGradient>
        <path id="g" d="M141 26h132l7.726 49.622h-146.59z"/>
        <linearGradient id="i" x1="9.5%" x2="90.5%" y1="0%" y2="100%">
            <stop offset="0%" stop-color="#FFE557"/>
            <stop offset="100%" stop-color="#FFC72C"/>
        </linearGradient>
        <linearGradient id="j" x1="20.414%" x2="79.586%" y1="100%" y2="0%">
            <stop offset="0%" stop-color="#006BA0" stop-opacity=".2"/>
            <stop offset="100%" stop-color="#2FB7EC"/>
        </linearGradient>
        <linearGradient id="k" x1="50%" x2="50%" y1="0%" y2="100%">
            <stop offset="0%" stop-color="#CEF2FD"/>
            <stop offset="100%" stop-color="#CEF2FD"/>
        </linearGradient>
    </defs>
    <g fill="none" fill-rule="evenodd">
        <mask id="b" fill="#fff">
            <use xlink:href="#a"/>
        </mask>
        <use fill="#D8D8D8" fill-opacity="0" xlink:href="#a"/>
        <g mask="url(#b)">
            <g transform="translate(5 31)">
                <path fill="#006BA0" d="M299 10.14c.6-.903 5.76-8.394 15.45-9.09 8.643-.618 14.412 4.634 15.348 5.515.802-.395 5.062-2.4 9.89-.62 3.062 1.13 4.835 3.222 5.56 4.194H299zM352.046 149H216.043A43.49 43.49 0 0 1 214 135.806C214 112.163 233.163 93 256.805 93c18.25 0 33.83 11.437 39.982 27.523 5.894-5.403 13.748-8.705 22.38-8.705 18.292 0 33.12 14.829 33.12 33.121 0 1.343-.09 2.76-.24 4.061z"/>
                <path fill="url(#c)" fill-rule="nonzero" d="M102 103h38v19h-39v-18a1 1 0 0 1 1-1z"/>
                <path fill="#006BA0" d="M80 26c.596-.877 5.729-8.275 15.368-8.95 8.596-.602 14.334 4.504 15.264 5.36.799-.384 5.036-2.332 9.837-.601 3.046 1.098 4.81 3.246 5.531 4.191H80z"/>
                <path fill="#E6F7FF" fill-rule="nonzero" d="M140 75.622h134.063V149H140z"/>
                <path fill="#79D6FA" fill-opacity=".5" fill-rule="nonzero" d="M157.332 96h26.336A3.332 3.332 0 0 1 187 99.332V149h-33V99.332A3.332 3.332 0 0 1 157.332 96z"/>
                <path fill="#FFF" fill-rule="nonzero" d="M197.436 96h59.969a3.332 3.332 0 0 1 3.332 3.332v29.595h-66.632V99.332A3.332 3.332 0 0 1 197.436 96z"/>
                <path fill="url(#d)" fill-rule="nonzero" d="M230.752 105.606h23.321V126h-23.32z"/>
                <path fill="url(#e)" fill-rule="nonzero" d="M247.41 105.606h6.663V126h-6.663z"/>
                <path fill="#2FB7EC" fill-rule="nonzero" d="M234.084 105.606h9.995v6.663l-2.5-1.333-2.063 1.333-2.933-1.333-2.5 1.333z"/>
                <path fill="url(#d)" fill-rule="nonzero" d="M200.768 105.606h23.321V126h-23.321z"/>
                <path fill="url(#e)" fill-rule="nonzero" d="M217.426 105.606h6.663V126h-6.663z"/>
                <path fill="#2FB7EC" fill-rule="nonzero" d="M204.1 105.606h9.994v6.663l-2.498-1.333-2.065 1.333-2.933-1.333-2.499 1.333z"/>
                <path fill="url(#f)" fill-rule="nonzero" d="M173 137h14v12h-14z"/>
                <mask id="h" fill="#fff">
                    <use xlink:href="#g"/>
                </mask>
                <use fill="#006BA0" fill-rule="nonzero" xlink:href="#g"/>
                <path fill="#1A4379" fill-opacity=".2" fill-rule="nonzero" d="M312.3 29.784c-.002 9.143-4.182 17.81-11.407 23.658-7.225 5.847-16.748 8.268-25.99 6.608l-11.546 4.43a2 2 0 0 1-2.708-2.05l.74-8.074.353.12c-11.944-8.656-16.066-24.243-9.9-37.432 6.167-13.19 20.953-20.41 35.51-17.343 14.558 3.068 24.946 15.594 24.948 30.083z" mask="url(#h)"/>
                <path fill="#2FB7EC" fill-opacity=".9" fill-rule="nonzero" d="M147.462 18.984h113.275V26H147.462z"/>
                <path fill="#006BA0" fill-rule="nonzero" d="M142.465 15.653h129.932a1.666 1.666 0 0 1 0 3.331H142.465a1.666 1.666 0 0 1 0-3.331z"/>
                <path fill="#E6F7FF" fill-rule="nonzero" d="M310 24.486c-.002 7.272-3.304 14.167-9.01 18.818-5.707 4.65-13.23 6.577-20.53 5.256l-9.1 3.517a1.59 1.59 0 0 1-2.158-1.628l.584-6.418.28.096c-9.436-6.886-12.692-19.284-7.821-29.775 4.87-10.49 16.55-16.235 28.049-13.794 11.499 2.44 19.704 12.404 19.706 23.928z"/>
                <path fill="#2FB7EC" d="M296.83 20.872c-.785 0-1.514.63-1.622 1.4l-.797 5.732c-.088.624-.39 1.166-.909 1.625-.518.459-1.102.689-1.75.689-.63 0-1.14-.225-1.53-.676-.39-.45-.54-.995-.45-1.638l.48-3.479c.015-.694-.513-1.237-1.241-1.237h-1.906c-.728 0-1.409.543-1.588 1.237l-.496 3.479c-.09.643-.394 1.189-.91 1.638-.518.45-1.091.676-1.72.676-.63 0-1.145-.23-1.543-.69-.4-.458-.554-1-.467-1.624l1.068-7.606c.112-.74-.332-1.514-1.01-1.828 0 0-8.038-3.307-8.562-3.519-.53-.214-1.131.266-1.337 1.067l-.491 1.914c-.206.8.258 1.712 1.03 2.024l5.387 2.2-.807 5.748c-.271 1.927.187 3.576 1.375 4.944 1.187 1.368 2.753 2.052 4.699 2.052 1.796 0 3.435-.596 4.918-1.79 1.184 1.194 2.666 1.79 4.444 1.79 1.945 0 3.703-.684 5.275-2.052 1.572-1.368 2.493-3.017 2.764-4.944 0 0 .844-6.065.86-6.172.073-.528-.507-.96-1.29-.96h-1.875z"/>
                <path fill="#2FB7EC" fill-rule="nonzero" d="M267.4 76.676c-.011 3.094-2.936 5.6-6.548 5.609h-.238c-3.61-.01-6.533-2.516-6.54-5.609-.012 3.094-2.936 5.6-6.548 5.609h-.238c-3.61-.01-6.534-2.516-6.541-5.609-.01 3.094-2.936 5.6-6.547 5.609h-.239c-3.61-.01-6.533-2.516-6.54-5.609-.011 3.094-2.936 5.6-6.548 5.609h-.238c-3.61-.01-6.534-2.516-6.54-5.609-.012 3.094-2.937 5.6-6.548 5.609h-.238c-3.61-.01-6.534-2.516-6.541-5.609-.011 3.094-2.936 5.6-6.548 5.609h-.238c-3.61-.01-6.533-2.516-6.54-5.609-.011 3.094-2.936 5.6-6.548 5.609h-.238c-3.61-.01-6.534-2.516-6.541-5.609-.01 3.094-2.936 5.6-6.547 5.609h-.239c-3.61-.01-6.533-2.516-6.54-5.609-.011 3.094-2.936 5.6-6.548 5.609h-.238c-3.61-.01-6.533-2.516-6.54-5.609-.012 3.094-2.937 5.6-6.548 5.609h-.238c-3.61-.01-6.534-2.516-6.541-5.609v-1.054h146.59v1.054c-.01 3.094-2.936 5.6-6.547 5.609h-.238c-3.61-.01-6.534-2.516-6.541-5.609zM194.105 126h66.632v2.927h-66.632z"/>
                <path fill="#FFE557" fill-rule="nonzero" d="M117 119h41v30h-41z"/>
                <path fill="url(#i)" fill-rule="nonzero" d="M117 119h27v30h-27z"/>
                <path fill="#FFF" fill-rule="nonzero" d="M134.136 142.254h6.663v3.332h-6.663z"/>
                <path fill="#F0B616" fill-rule="nonzero" d="M122 119h17v9.451l-3.372-.952-2.798.952-2.776-.952-2.776.952-2.777-.952-2.501.952zM148 119h6v9.451l-3.206-.963-2.794.963z"/>
                <path fill="#2FB7EC" fill-rule="nonzero" d="M26 115V82a2 2 0 0 1 2-2h46a2 2 0 0 1 2 2v33H26zM79 115H26v4h53z"/>
                <path fill="url(#j)" fill-rule="nonzero" d="M48 80h19l9 39H46V82a2 2 0 0 1 2-2z" transform="matrix(-1 0 0 1 122 0)"/>
                <path fill="#79D6FA" fill-rule="nonzero" d="M26 82a2 2 0 0 1 2-2h46a2 2 0 0 1 2 2H26z"/>
                <path fill="url(#k)" fill-rule="nonzero" d="M24 119H0V87.022h11.44a2 2 0 0 1 1.94 1.514L15.5 97l9.492 5.424A2 2 0 0 1 26 104.161V117a2 2 0 0 1-2 2z" transform="matrix(-1 0 0 1 26 0)"/>
                <circle cx="13" cy="119" r="7" fill="#006BA0" fill-rule="nonzero" transform="matrix(-1 0 0 1 26 0)"/>
                <ellipse cx="13" cy="118.657" fill="#1A4379" fill-rule="nonzero" rx="2.5" ry="2.531" transform="matrix(-1 0 0 1 26 0)"/>
                <ellipse cx="63" cy="118.657" fill="#2FB7EC" fill-rule="nonzero" rx="2.5" ry="2.531" transform="matrix(-1 0 0 1 126 0)"/>
                <path fill="#2FB7EC" fill-rule="nonzero" d="M17 91h-5.083L10.5 97H18v-5a1 1 0 0 0-1-1z"/>
                <g transform="translate(40 82)">
                    <path fill="#79D6FA" d="M6 0h8l-1 7H7z"/>
                    <path stroke="#FFF" d="M10 7l9 7M10 7l2 7M10 7l-9 7"/>
                    <circle cx="10" cy="7" r="3" fill="#FFF" fill-rule="nonzero"/>
                    <circle cx="10" cy="7" r="1" fill="#006BA0" fill-rule="nonzero"/>
                    <path fill="#006BA0" d="M0 13l7-1 13 1v13L7 27l-7-1z"/>
                    <path fill="#006BA0" d="M0 13l7-1v15l-7-1z"/>
                    <path fill="#FFF" d="M17.049 17.757a.507.507 0 0 0-.487.42l-.24 1.72a.787.787 0 0 1-.273.489.772.772 0 0 1-.525.207.589.589 0 0 1-.594-.694l.145-1.044a.359.359 0 0 0-.372-.371h-.572a.509.509 0 0 0-.477.372l-.15 1.044a.78.78 0 0 1-.273.492.768.768 0 0 1-.516.203.583.583 0 0 1-.463-.207.586.586 0 0 1-.14-.487l.322-2.283a.535.535 0 0 0-.302-.549l-2.568-1.054c-.16-.064-.34.08-.402.32l-.147.575a.533.533 0 0 0 .308.607l1.616.66-.243 1.725c-.082.578.055 1.073.411 1.483.356.41.826.615 1.41.615a2.3 2.3 0 0 0 1.476-.538c.355.358.8.536 1.333.536.583 0 1.11-.206 1.583-.617.472-.41.748-.906.83-1.484l.26-1.852c.021-.159-.153-.289-.388-.288h-.562z"/>
                </g>
                <path fill="#006BA0" fill-rule="nonzero" d="M85 115h-9v4h9zM117 122H97v4h20zM97 122l-12-7v4l12 7zM76 103h8a1 1 0 0 1 1 1v11h-9v-12z"/>
                <path fill="#4DC1BD" d="M121 149c-1.667-3.386-5.17-5.535-9.234-5.535-1.891 0-3.654.507-5.178 1.388A10.278 10.278 0 0 0 97.291 139C91.608 139 87 143.378 87 149h34z"/>
                <path fill="#4DC1BD" d="M73 149c1.667-3.386 5.17-5.535 9.234-5.535 1.891 0 3.654.507 5.178 1.388A10.278 10.278 0 0 1 96.709 139c5.683 0 10.291 4.378 10.291 10H73z"/>
                <path fill="#006BA0" d="M373.528 149h-15.29v-32.002a7.644 7.644 0 1 1 15.29 0V149z"/>
                <path fill="#1B4278" fill-rule="nonzero" d="M366.591 149v-31.54a.708.708 0 1 0-1.416 0V149h1.416z"/>
                <path stroke="#1B4278" stroke-linecap="round" stroke-linejoin="round" stroke-width="1.416" d="M361.1 123.917l4.828 4.828 4.91-4.91M361.014 133.932l4.829 4.83 4.91-4.912"/>
                <path fill="#4DC1BD" d="M352.289 149H337v-32.002a7.644 7.644 0 1 1 15.289 0V149z"/>
                <path fill="#1B4278" fill-rule="nonzero" d="M345.352 149v-31.54a.708.708 0 1 0-1.416 0V149h1.416z"/>
                <path stroke="#1B4278" stroke-linecap="round" stroke-linejoin="round" stroke-width="1.416" d="M339.861 123.917l4.828 4.828 4.91-4.91M339.775 133.932l4.829 4.83 4.91-4.912"/>
                <g>
                    <path fill="#4DC1BD" d="M76 149H60v-32.002c0-4.222 3.582-7.644 8-7.644s8 3.422 8 7.644V149z"/>
                    <path fill="#1B4278" fill-rule="nonzero" d="M68.352 149v-31.54a.708.708 0 1 0-1.416 0V149h1.416z"/>
                    <path stroke="#1B4278" stroke-linecap="round" stroke-linejoin="round" stroke-width="1.416" d="M62.861 123.917l4.828 4.828 4.91-4.91M62.775 133.932l4.829 4.83 4.91-4.912"/>
                </g>
                <path fill="#4DC1BD" d="M308 118.554c0 8.144-6.52 14.704-14.458 14.438-7.158-.24-13.53-7.025-13.542-14.41a14.65 14.65 0 0 1 2.608-8.418c1.638-2.357 2.05-5.312 1.4-8.132a11.052 11.052 0 0 1-.118-4.3c.708-4.265 4.004-7.741 8.13-8.54 6.546-1.264 12.262 3.881 12.262 10.404 0 .998-.133 1.963-.383 2.877-.722 2.64-.049 5.471 1.498 7.701a14.678 14.678 0 0 1 2.603 8.38"/>
                <path fill="#1A4379" fill-rule="nonzero" d="M295.052 105.606a1 1 0 0 1 1 1V149h-2v-42.394a1 1 0 0 1 1-1z"/>
                <g fill="#2FB7EC">
                    <path d="M314.985 136.648l-3.021 3.022c-.035.042-.078.077-.112.12a2.35 2.35 0 0 1-.222.188c-.009.007-.017.017-.026.017-.043.025-.077.051-.111.068-.069.034-.137.069-.214.102a1.707 1.707 0 0 1-.291.087h-.017a1.4 1.4 0 0 1-.326.034 1.773 1.773 0 0 1-.813-.205c-.077-.035-.145-.086-.214-.13a1.617 1.617 0 0 1-.188-.162c-.043-.042-.077-.077-.111-.12l-3.022-3.021a1.705 1.705 0 0 1 0-2.414 1.7 1.7 0 0 1 2.422 0l.214.214v-.727c0-.95.762-1.712 1.712-1.712.942 0 1.712.762 1.712 1.712v.727l.214-.214a1.69 1.69 0 0 1 2.414 0 1.69 1.69 0 0 1 0 2.414"/>
                    <path fill-rule="nonzero" d="M310.752 139.088c.391 0 .708.317.708.708V149h-1.416v-9.204c0-.39.317-.708.708-.708z"/>
                    <path d="M327.728 136.648l-3.021 3.022c-.034.042-.077.077-.111.12a2.35 2.35 0 0 1-.223.188c-.009.007-.017.017-.026.017-.042.025-.077.051-.11.068a1.707 1.707 0 0 1-.505.188h-.018a1.4 1.4 0 0 1-.325.035 1.773 1.773 0 0 1-.813-.205c-.077-.035-.146-.086-.214-.13a1.617 1.617 0 0 1-.3-.281l-3.021-3.022a1.705 1.705 0 0 1 0-2.414 1.7 1.7 0 0 1 2.422 0l.214.214v-.727c0-.95.762-1.712 1.712-1.712.941 0 1.712.762 1.712 1.712v.727l.214-.214a1.69 1.69 0 0 1 2.413 0 1.69 1.69 0 0 1 0 2.414"/>
                    <path fill-rule="nonzero" d="M323.496 139.088c.39 0 .708.317.708.708V149h-1.416v-9.204c0-.39.317-.708.708-.708z"/>
                </g>
            </g>
        </g>
    </g>
</svg>
