<svg width="24" height="24" viewBox="0 0 24 24" fill="none" xmlns="http://www.w3.org/2000/svg">
<g clip-path="url(#clip0_1314_1826)">
<path d="M0.631677 0.600098H23.3685C23.3859 0.600098 23.4001 0.614236 23.4001 0.631677V23.3685C23.4001 23.3859 23.3859 23.4001 23.3685 23.4001H0.631677C0.614236 23.4001 0.600098 23.3859 0.600098 23.3685V0.631677C0.600098 0.614236 0.614236 0.600098 0.631677 0.600098Z" fill="white" stroke="#EEEEEE" stroke-width="1.2"/>
<path d="M3.1582 6.83984C3.60822 6.84443 4.05824 6.85056 4.50789 6.85247C4.98309 6.85476 5.45866 6.86089 5.9335 6.84826C6.0887 6.84404 6.14462 6.90374 6.19018 7.04534C7.16208 10.0854 8.13878 13.1242 9.11438 16.1631C9.13364 16.2228 9.15438 16.2817 9.18364 16.3694C9.21327 16.3086 9.23512 16.2738 9.24808 16.2358C9.68811 14.9427 10.0715 13.6344 10.2848 12.2778C10.5611 10.5205 10.4904 8.78616 9.98071 7.07825C9.96145 7.01358 9.94886 6.94661 9.92923 6.86509C10.0007 6.86012 10.0541 6.85362 10.1074 6.85362C10.9467 6.85285 11.786 6.85553 12.6257 6.85056C12.7478 6.84979 12.8116 6.88117 12.8534 7.0086C14.0268 10.5832 15.2042 14.1567 16.3806 17.7306C16.3939 17.7715 16.404 17.814 16.4214 17.876C16.3506 17.8809 16.2925 17.8886 16.2347 17.8886C15.4013 17.8894 14.5684 17.8856 13.735 17.8924C13.5953 17.8936 13.5331 17.8519 13.4868 17.7115C12.7786 15.5665 12.0637 13.4242 11.3504 11.2812C11.3326 11.2277 11.3145 11.1741 11.2578 11.1155C10.7282 13.3672 10.1989 15.6193 9.66589 17.886H9.10549C8.40176 17.886 7.69839 17.8802 6.99466 17.8905C6.83095 17.8928 6.76206 17.8416 6.70946 17.6809C5.55608 14.1464 4.39566 10.6142 3.23524 7.08169C3.21634 7.0243 3.18412 6.97148 3.1582 6.91638C3.1582 6.89074 3.1582 6.86548 3.1582 6.83984Z" fill="#1E1E1E"/>
<path d="M15.3164 9.67784C16.3914 8.8865 17.307 7.94256 18.0528 6.83984C18.8037 7.94075 19.7202 8.89086 20.8426 9.71236C19.6387 10.8285 18.7184 12.0849 18.0861 13.4714C17.6816 12.8178 17.316 12.1383 16.8565 11.5083C16.3965 10.8779 15.8427 10.2966 15.3164 9.67784Z" fill="#1E1E1E"/>
</g>
<defs>
<clipPath id="clip0_1314_1826">
<rect width="24" height="24" fill="white"/>
</clipPath>
</defs>
</svg>
