<svg width="29" height="22" viewBox="0 0 29 22" fill="none" xmlns="http://www.w3.org/2000/svg">
<path d="M24.1171 0.312012H5.22185C3.93989 0.312012 2.71042 0.86371 1.80393 1.84574C0.897444 2.82777 0.388184 4.15969 0.388184 5.54849V16.4975C0.388184 17.8863 0.897444 19.2182 1.80393 20.2002C2.71042 21.1823 3.93989 21.734 5.22185 21.734H24.1171C25.3991 21.734 26.6285 21.1823 27.535 20.2002C28.4415 19.2182 28.9508 17.8863 28.9508 16.4975V5.54849C28.9508 4.15969 28.4415 2.82777 27.535 1.84574C26.6285 0.86371 25.3991 0.312012 24.1171 0.312012ZM20.4655 11.6561L11.8967 16.4166C11.7963 16.4729 11.6842 16.5003 11.5712 16.4962C11.4582 16.492 11.348 16.4564 11.2514 16.3929C11.1547 16.3293 11.0748 16.2398 11.0193 16.1331C10.9637 16.0263 10.9345 15.9059 10.9344 15.7834V6.26255C10.9345 6.14004 10.9637 6.01963 11.0193 5.9129C11.0748 5.80617 11.1547 5.71671 11.2514 5.65312C11.348 5.58952 11.4582 5.55394 11.5712 5.54979C11.6842 5.54564 11.7963 5.57306 11.8967 5.62941L20.4655 10.3898C20.5735 10.4498 20.6641 10.5408 20.7273 10.6529C20.7906 10.7651 20.8241 10.8939 20.8241 11.0254C20.8241 11.1568 20.7906 11.2857 20.7273 11.3978C20.6641 11.5099 20.5735 11.601 20.4655 11.6609V11.6561Z" fill="white"/>
</svg>
