<svg width="80" height="80" viewBox="0 0 80 80" fill="none" xmlns="http://www.w3.org/2000/svg">
<path d="M78.7176 18.3751H1.28259C0.951072 18.3751 0.63313 18.2434 0.398709 18.0089C0.164289 17.7745 0.0325928 17.4566 0.0325928 17.1251V8.57131C0.033585 7.81442 0.334697 7.08882 0.869899 6.55362C1.4051 6.01841 2.1307 5.7173 2.88759 5.71631H77.1126C77.8695 5.7173 78.5951 6.01841 79.1303 6.55362C79.6655 7.08882 79.9666 7.81442 79.9676 8.57131V17.1251C79.9676 17.4566 79.8359 17.7745 79.6015 18.0089C79.3671 18.2434 79.0491 18.3751 78.7176 18.3751ZM2.53259 15.8751H77.4676V8.57131C77.4676 8.47716 77.4302 8.38686 77.3636 8.32029C77.297 8.25371 77.2067 8.21631 77.1126 8.21631H2.88759C2.79344 8.21631 2.70315 8.25371 2.63657 8.32029C2.56999 8.38686 2.53259 8.47716 2.53259 8.57131V15.8751Z" fill="white"/>
<path d="M40.2038 57.2413C25.23 57.3188 18.1313 38.2888 29.7425 28.54C33.0525 25.787 37.3158 24.4525 41.6047 24.8271C45.8937 25.2017 49.8611 27.2549 52.6438 30.54C61.5363 40.9588 53.7613 57.4038 40.2038 57.2413ZM40.1675 27.2413C28.645 27.145 22.1575 41.0538 29.6538 49.8413C41.9575 63.3413 61.9038 46.58 50.7288 32.1563C49.4377 30.611 47.822 29.369 45.9967 28.5187C44.1714 27.6683 42.1812 27.2305 40.1675 27.2363V27.2413Z" fill="#FFC72C"/>
<path d="M53.45 57.75C53.2673 57.7502 53.0867 57.7103 52.9211 57.6332C52.7555 57.5561 52.6087 57.4436 52.4912 57.3037L49.0225 53.17C48.9169 53.0442 48.8372 52.8989 48.7878 52.7424C48.7384 52.5858 48.7203 52.421 48.7346 52.2575C48.7489 52.094 48.7952 51.9348 48.871 51.7892C48.9468 51.6435 49.0505 51.5143 49.1762 51.4087C49.302 51.3032 49.4473 51.2234 49.6038 51.174C49.7604 51.1246 49.9252 51.1065 50.0887 51.1208C50.2523 51.1351 50.4114 51.1815 50.557 51.2572C50.7027 51.333 50.8319 51.4367 50.9375 51.5625L54.4062 55.6962C54.5561 55.8793 54.6512 56.101 54.6807 56.3358C54.7102 56.5705 54.6729 56.8089 54.573 57.0234C54.4732 57.2379 54.3148 57.4198 54.1161 57.5484C53.9175 57.6769 53.6866 57.7468 53.45 57.75Z" fill="#FFC72C"/>
<path d="M77.1125 64.8488H62.95C62.7675 64.8488 62.5872 64.8088 62.4218 64.7317C62.2564 64.6547 62.1098 64.5423 61.9925 64.4025L55.3675 56.5275L53.0212 58.4963L56.6462 62.8013C56.7992 62.9834 56.897 63.2055 56.9281 63.4413C56.9593 63.6771 56.9225 63.917 56.8221 64.1326C56.7217 64.3483 56.5618 64.5308 56.3613 64.6588C56.1607 64.7867 55.9279 64.8548 55.69 64.855H2.88748C2.13026 64.8524 1.40499 64.5495 0.87073 64.0129C0.336465 63.4763 0.0368102 62.7497 0.0374767 61.9925V17.125C0.0374767 16.7935 0.169173 16.4755 0.403593 16.2411C0.638014 16.0067 0.955956 15.875 1.28748 15.875H78.7125C79.044 15.875 79.3619 16.0067 79.5964 16.2411C79.8308 16.4755 79.9625 16.7935 79.9625 17.125V61.9875C79.9628 62.7445 79.663 63.4708 79.1288 64.0071C78.5946 64.5434 77.8695 64.8461 77.1125 64.8488ZM63.5325 62.3488H77.1125C77.1593 62.3479 77.2054 62.3379 77.2483 62.3193C77.2913 62.3006 77.3301 62.2737 77.3626 62.24C77.3951 62.2063 77.4206 62.1666 77.4378 62.1231C77.4549 62.0795 77.4633 62.033 77.4625 61.9863V18.375H2.53748V61.9875C2.53665 62.0343 2.54505 62.0808 2.56219 62.1243C2.57933 62.1679 2.60488 62.2076 2.63738 62.2413C2.66989 62.2749 2.7087 62.3018 2.75161 62.3205C2.79452 62.3392 2.84069 62.3492 2.88748 62.35H53L50.3037 59.1425C50.1981 59.0168 50.1182 58.8716 50.0687 58.7151C50.0192 58.5586 50.001 58.3938 50.0152 58.2303C50.0294 58.0667 50.0756 57.9076 50.1513 57.7619C50.2269 57.6162 50.3306 57.4869 50.4562 57.3813L54.72 53.805C54.974 53.5923 55.3021 53.4892 55.6321 53.5183C55.9621 53.5473 56.267 53.7062 56.48 53.96L63.5325 62.3488Z" fill="white"/>
<path d="M30.6562 47.68C30.4187 47.6762 30.1872 47.6054 29.9883 47.4756C29.7895 47.3458 29.6314 47.1624 29.5323 46.9466C29.4332 46.7308 29.3972 46.4914 29.4284 46.256C29.4596 46.0206 29.5568 45.7988 29.7087 45.6163L35.4874 38.875C35.6093 38.7375 35.7596 38.6281 35.9279 38.5545C36.0963 38.4808 36.2786 38.4446 36.4623 38.4484C36.646 38.4522 36.8267 38.4959 36.9918 38.5765C37.157 38.6571 37.3026 38.7726 37.4187 38.915L40.0824 42.2988L44.8674 37.1963C45.0966 36.9647 45.4071 36.8317 45.7328 36.8257C46.0585 36.8196 46.3737 36.941 46.6113 37.1639C46.8489 37.3868 46.99 37.6936 47.0047 38.0191C47.0194 38.3445 46.9065 38.6629 46.6899 38.9063L40.9112 45.07C40.7896 45.2031 40.6399 45.3074 40.473 45.3755C40.3061 45.4436 40.1262 45.4737 39.9462 45.4638C39.7663 45.4562 39.5902 45.4098 39.4299 45.3278C39.2696 45.2458 39.1289 45.1302 39.0174 44.9888L36.3924 41.6563L31.6062 47.25C31.4881 47.3859 31.3421 47.4946 31.1782 47.5688C31.0142 47.643 30.8361 47.681 30.6562 47.68Z" fill="#FFC72C"/>
<path d="M64.915 74.2838C64.323 74.2865 63.7377 74.1579 63.2012 73.9074C62.6648 73.6569 62.1905 73.2907 61.8125 72.835L50.3063 59.1413C50.2006 59.0156 50.1208 58.8704 50.0713 58.7139C50.0218 58.5573 50.0036 58.3926 50.0177 58.2291C50.0319 58.0655 50.0781 57.9063 50.1538 57.7607C50.2295 57.615 50.3331 57.4856 50.4588 57.38L54.7225 53.8038C54.9765 53.5911 55.3046 53.488 55.6346 53.517C55.9646 53.5461 56.2696 53.705 56.4825 53.9588L67.9825 67.66C68.4663 68.2491 68.774 68.9627 68.8705 69.7189C68.967 70.475 68.8483 71.2431 68.5279 71.9348C68.2076 72.6265 67.6987 73.2138 67.0596 73.6293C66.4205 74.0448 65.6772 74.2717 64.915 74.2838ZM53.0238 58.49L63.7313 71.2325C63.8583 71.3916 64.0159 71.5237 64.1947 71.621C64.3736 71.7183 64.5701 71.7788 64.7726 71.7991C64.9752 71.8194 65.1798 71.7989 65.3744 71.739C65.5689 71.6791 65.7496 71.5809 65.9056 71.4501C66.0617 71.3194 66.1901 71.1588 66.2832 70.9777C66.3763 70.7967 66.4322 70.5988 66.4478 70.3958C66.4633 70.1928 66.4381 69.9888 66.3737 69.7957C66.3093 69.6025 66.2069 69.4242 66.0725 69.2713L55.375 56.5213L53.0238 58.49Z" fill="#FFC72C"/>
<path d="M49.3425 42.0462C49.0109 42.0462 48.693 41.9145 48.4586 41.6801C48.2242 41.4457 48.0925 41.1278 48.0925 40.7962V35.6537L42.6087 36.1187C42.4451 36.1325 42.2803 36.1139 42.1238 36.064C41.9673 36.0142 41.8222 35.9339 41.6967 35.828C41.5713 35.722 41.4679 35.5923 41.3925 35.4464C41.3171 35.3005 41.2713 35.1411 41.2575 34.9775C41.2437 34.8138 41.2623 34.649 41.3122 34.4926C41.362 34.3361 41.4423 34.191 41.5482 34.0655C41.6542 33.94 41.7839 33.8366 41.9298 33.7613C42.0757 33.6859 42.2351 33.64 42.3987 33.6262L49.2375 33.0487C49.4102 33.0342 49.5841 33.0557 49.7481 33.112C49.9121 33.1682 50.0626 33.258 50.19 33.3755C50.3175 33.4931 50.419 33.6359 50.4883 33.7948C50.5576 33.9538 50.5931 34.1254 50.5925 34.2987V40.7987C50.5918 41.1298 50.4598 41.4471 50.2255 41.681C49.9911 41.9149 49.6735 42.0462 49.3425 42.0462Z" fill="#FFC72C"/>
<path d="M52.3887 15.2038C51.5656 15.1874 50.7818 14.8489 50.2055 14.261C49.6292 13.6731 49.3064 12.8827 49.3064 12.0594C49.3064 11.2362 49.6292 10.4457 50.2055 9.85784C50.7818 9.26994 51.5656 8.93145 52.3887 8.91504C53.2118 8.93145 53.9956 9.26994 54.5719 9.85784C55.1482 10.4457 55.471 11.2362 55.471 12.0594C55.471 12.8827 55.1482 13.6731 54.5719 14.261C53.9956 14.8489 53.2118 15.1874 52.3887 15.2038ZM52.3887 11.415C52.2227 11.4224 52.066 11.4934 51.9511 11.6135C51.8362 11.7335 51.7721 11.8933 51.7721 12.0594C51.7721 12.2256 51.8362 12.3853 51.9511 12.5053C52.066 12.6254 52.2227 12.6965 52.3887 12.7038C52.5547 12.6965 52.7115 12.6254 52.8263 12.5053C52.9412 12.3853 53.0053 12.2256 53.0053 12.0594C53.0053 11.8933 52.9412 11.7335 52.8263 11.6135C52.7115 11.4934 52.5547 11.4224 52.3887 11.415Z" fill="white"/>
<path d="M60.1349 15.2038C59.3118 15.1874 58.528 14.8489 57.9517 14.261C57.3754 13.6731 57.0526 12.8827 57.0526 12.0594C57.0526 11.2362 57.3754 10.4457 57.9517 9.85784C58.528 9.26994 59.3118 8.93145 60.1349 8.91504C60.958 8.93145 61.7418 9.26994 62.3181 9.85784C62.8944 10.4457 63.2172 11.2362 63.2172 12.0594C63.2172 12.8827 62.8944 13.6731 62.3181 14.261C61.7418 14.8489 60.958 15.1874 60.1349 15.2038ZM60.1349 11.415C59.9689 11.4224 59.8122 11.4934 59.6973 11.6135C59.5824 11.7335 59.5183 11.8933 59.5183 12.0594C59.5183 12.2256 59.5824 12.3853 59.6973 12.5053C59.8122 12.6254 59.9689 12.6965 60.1349 12.7038C60.3009 12.6965 60.4577 12.6254 60.5725 12.5053C60.6874 12.3853 60.7515 12.2256 60.7515 12.0594C60.7515 11.8933 60.6874 11.7335 60.5725 11.6135C60.4577 11.4934 60.3009 11.4224 60.1349 11.415Z" fill="white"/>
<path d="M67.8825 15.2038C67.0594 15.1874 66.2756 14.8489 65.6993 14.261C65.123 13.6731 64.8002 12.8827 64.8002 12.0594C64.8002 11.2362 65.123 10.4457 65.6993 9.85784C66.2756 9.26994 67.0594 8.93145 67.8825 8.91504C68.7056 8.93145 69.4894 9.26994 70.0657 9.85784C70.642 10.4457 70.9648 11.2362 70.9648 12.0594C70.9648 12.8827 70.642 13.6731 70.0657 14.261C69.4894 14.8489 68.7056 15.1874 67.8825 15.2038ZM67.8825 11.415C67.7165 11.4224 67.5597 11.4934 67.4449 11.6135C67.33 11.7335 67.2659 11.8933 67.2659 12.0594C67.2659 12.2256 67.33 12.3853 67.4449 12.5053C67.5597 12.6254 67.7165 12.6965 67.8825 12.7038C68.0485 12.6965 68.2052 12.6254 68.3201 12.5053C68.435 12.3853 68.4991 12.2256 68.4991 12.0594C68.4991 11.8933 68.435 11.7335 68.3201 11.6135C68.2052 11.4934 68.0485 11.4224 67.8825 11.415Z" fill="white"/>
</svg>
