<svg width="80" height="80" viewBox="0 0 80 80" fill="none" xmlns="http://www.w3.org/2000/svg">
<path d="M16.6808 51.7112C21.0664 51.7112 24.6344 48.1432 24.6344 43.7576C24.6344 39.3728 21.0664 35.8048 16.6808 35.8048C12.2952 35.8048 8.72717 39.3728 8.72717 43.7576C8.72717 48.1432 12.2952 51.7112 16.6808 51.7112ZM16.6808 38.204C19.7432 38.204 22.2344 40.6952 22.2344 43.7568C22.2344 46.8192 19.7432 49.3104 16.6808 49.3104C13.6184 49.3104 11.1272 46.8192 11.1272 43.7568C11.1272 40.6952 13.6184 38.204 16.6808 38.204Z" fill="white"/>
<path d="M16.6808 53.8936C9.6888 53.8936 4 59.5824 4 66.5744C4 68.7256 5.7504 70.476 7.9016 70.476H25.4608C27.612 70.476 29.3616 68.7256 29.3616 66.5744C29.3616 59.5824 23.6728 53.8936 16.6808 53.8936ZM25.4608 68.076H7.9016C7.0736 68.076 6.4 67.4024 6.4 66.5744C6.4 60.9056 11.012 56.2936 16.6808 56.2936C22.3496 56.2936 26.9616 60.9056 26.9616 66.5744C26.9616 67.4024 26.288 68.076 25.4608 68.076Z" fill="white"/>
<path d="M40 36.8736C44.3856 36.8736 47.9536 33.3056 47.9536 28.9208C47.9536 24.5352 44.3856 20.9672 40 20.9672C35.6144 20.9672 32.0464 24.5352 32.0464 28.9208C32.0464 33.3056 35.6144 36.8736 40 36.8736ZM40 23.3664C43.0624 23.3664 45.5536 25.8576 45.5536 28.92C45.5536 31.9816 43.0624 34.4728 40 34.4728C36.9376 34.4728 34.4464 31.9816 34.4464 28.92C34.4464 25.8576 36.9376 23.3664 40 23.3664Z" fill="white"/>
<path d="M52.6808 51.7376C52.6808 44.7456 46.992 39.056 40 39.056C33.008 39.056 27.3192 44.7448 27.3192 51.7376C27.3192 53.8888 29.0696 55.6392 31.22 55.6392H48.7792C50.9312 55.6392 52.6808 53.8888 52.6808 51.7376ZM48.78 53.2392H31.22C30.392 53.2392 29.7192 52.5656 29.7192 51.7376C29.7192 46.0688 34.3312 41.456 40 41.456C45.6688 41.456 50.2808 46.0688 50.2808 51.7376C50.2808 52.5656 49.6072 53.2392 48.78 53.2392Z" fill="white"/>
<path d="M63.3192 51.7112C67.7048 51.7112 71.2728 48.1432 71.2728 43.7576C71.2728 39.3728 67.7048 35.8048 63.3192 35.8048C58.9336 35.8048 55.3656 39.3728 55.3656 43.7576C55.3656 48.1432 58.9336 51.7112 63.3192 51.7112ZM63.3192 38.204C66.3816 38.204 68.8728 40.6952 68.8728 43.7568C68.8728 46.8192 66.3816 49.3104 63.3192 49.3104C60.2568 49.3104 57.7656 46.8192 57.7656 43.7568C57.7656 40.6952 60.2568 38.204 63.3192 38.204Z" fill="white"/>
<path d="M63.3192 54.1936C56.3272 54.1936 50.6384 59.8816 50.6384 66.8744C50.6384 69.0256 52.3888 70.776 54.5392 70.776H72.0984C74.2496 70.776 76 69.0256 76 66.8744C76 59.8824 70.3112 54.1936 63.3192 54.1936ZM72.0984 68.376H54.5392C53.7112 68.376 53.0384 67.7024 53.0384 66.8744C53.0384 61.2056 57.6504 56.5936 63.3192 56.5936C68.988 56.5936 73.6 61.2056 73.6 66.8744C73.6 67.7024 72.9264 68.376 72.0984 68.376Z" fill="white"/>
<path d="M39.9999 16.5416C40.6631 16.5416 41.1999 16.004 41.1999 15.3416V9.1248C41.1999 8.4624 40.6631 7.9248 39.9999 7.9248C39.3367 7.9248 38.7999 8.4624 38.7999 9.1248V15.3416C38.7999 16.004 39.3367 16.5416 39.9999 16.5416Z" fill="#FFC72C"/>
<path d="M58.5032 24.2056C58.8104 24.2056 59.1176 24.0888 59.352 23.8544L63.748 19.4584C64.2168 18.9896 64.2168 18.2304 63.748 17.7616C63.2792 17.2928 62.52 17.2928 62.0512 17.7616L57.6552 22.1576C57.1864 22.6264 57.1864 23.3856 57.6552 23.8544C57.8888 24.088 58.196 24.2056 58.5032 24.2056Z" fill="#FFC72C"/>
<path d="M20.6488 23.8536C20.8832 24.088 21.1904 24.2048 21.4976 24.2048C21.8048 24.2048 22.112 24.088 22.3464 23.8536C22.8152 23.3848 22.8152 22.6256 22.3464 22.1568L17.9504 17.7608C17.4816 17.292 16.7224 17.292 16.2536 17.7608C15.7848 18.2296 15.7848 18.9888 16.2536 19.4576L20.6488 23.8536Z" fill="#FFC72C"/>
<path d="M28.8776 17.792C29.0688 18.2536 29.516 18.5328 29.9864 18.5328C30.1392 18.5328 30.2952 18.504 30.4455 18.4416C31.0575 18.188 31.3479 17.4864 31.0951 16.8736L28.716 11.1296C28.4624 10.5168 27.76 10.2256 27.148 10.48C26.536 10.7336 26.2456 11.4352 26.4984 12.048L28.8776 17.792Z" fill="#FFC72C"/>
<path d="M49.5544 18.4416C49.7048 18.504 49.86 18.5328 50.0136 18.5328C50.484 18.5328 50.9312 18.2536 51.1224 17.792L53.5016 12.048C53.7552 11.4352 53.4648 10.7336 52.852 10.48C52.2384 10.2256 51.5376 10.5168 51.284 11.1296L48.9048 16.8736C48.6512 17.4856 48.9424 18.1872 49.5544 18.4416Z" fill="#FFC72C"/>
</svg>
