<svg width="80" height="80" viewBox="0 0 80 80" fill="none" xmlns="http://www.w3.org/2000/svg">
<path d="M23.6185 44.6607C23.0752 44.6585 22.538 44.5474 22.0384 44.3341C21.5388 44.1208 21.0871 43.8095 20.7098 43.4187C19.9423 42.6452 19.5116 41.5997 19.5116 40.5101C19.5116 39.4204 19.9423 38.3749 20.7098 37.6014L33.7032 24.6081C34.4808 23.8299 35.4042 23.2128 36.4206 22.792C37.4371 22.3712 38.5265 22.1551 39.6266 22.1559H45.6986C45.91 22.1548 46.1169 22.2169 46.2928 22.3342C46.4687 22.4514 46.6056 22.6185 46.6859 22.8141C46.7636 23.007 46.7828 23.2185 46.7413 23.4224C46.6998 23.6262 46.5993 23.8133 46.4523 23.9605L36.9515 33.5145C36.8759 33.5897 36.7901 33.654 36.6967 33.7055C36.1493 33.9803 35.648 34.3384 35.2106 34.7671L26.5271 43.4399C26.148 43.8269 25.6955 44.1343 25.196 44.3439C24.6965 44.5535 24.1602 44.6612 23.6185 44.6607ZM39.6266 24.279C37.9684 24.2819 36.378 24.9379 35.1999 26.1049L22.2066 39.0982C21.8641 39.4775 21.6802 39.9737 21.6928 40.4846C21.7053 40.9955 21.9134 41.4821 22.274 41.8441C22.6347 42.2062 23.1205 42.416 23.6314 42.4305C24.1422 42.445 24.6391 42.2629 25.0197 41.9219L33.7032 33.2597C34.2467 32.697 34.8732 32.2209 35.5609 31.8478L43.1403 24.279H39.6266Z" fill="#305BEF"/>
<path d="M58.9149 53.0045H53.1932C50.6327 53.0075 48.1259 52.2702 45.9747 50.8814C45.3043 50.4471 44.523 50.2149 43.7242 50.2126H32.2595C30.8347 50.2042 29.4706 49.6345 28.463 48.627C27.4555 47.6195 26.8858 46.2554 26.8774 44.8306C26.8802 43.403 27.4478 42.0346 28.4563 41.0242C29.4647 40.0138 30.832 39.4435 32.2595 39.4379H42.9811C43.2802 39.4404 43.5769 39.3835 43.8538 39.2705C44.1308 39.1575 44.3826 38.9907 44.5947 38.7797C45.0256 38.3529 45.2699 37.7727 45.2741 37.1662C45.2725 36.5407 45.1327 35.9233 44.8648 35.3581C44.5969 34.7928 44.2074 34.2938 43.7242 33.8966C43.4997 33.6987 43.3624 33.4203 43.342 33.1217C43.3355 32.9749 43.3594 32.8283 43.4124 32.6913C43.4654 32.5543 43.5463 32.4297 43.6499 32.3255L53.501 22.4638C53.6002 22.3654 53.7179 22.2875 53.8472 22.2347C53.9765 22.1819 54.115 22.1551 54.2547 22.1559H55.1677C56.2702 22.1556 57.3619 22.3731 58.3802 22.7957C59.3985 23.2183 60.3234 23.8378 61.1017 24.6187L67.5878 31.1047C67.6881 31.2031 67.7679 31.3203 67.8225 31.4497C67.8772 31.5791 67.9057 31.718 67.9062 31.8584V49.1511C67.9059 49.3287 67.8611 49.5034 67.7758 49.6592C67.6905 49.8149 67.5674 49.9468 67.4179 50.0427L66.1335 50.8814C63.9823 52.2702 61.4755 53.0075 58.9149 53.0045ZM32.2595 41.561C31.3942 41.5638 30.5653 41.9095 29.9544 42.5224C29.3435 43.1352 29.0005 43.9652 29.0005 44.8306C29.0115 45.6915 29.3584 46.514 29.9672 47.1228C30.576 47.7316 31.3986 48.0785 32.2595 48.0895H43.703C44.9141 48.1074 46.0941 48.4762 47.0999 49.1511C48.9217 50.3033 51.0378 50.9042 53.1932 50.8814H58.9362C61.0864 50.884 63.1914 50.2646 64.9976 49.098L65.8044 48.5778V32.3043L59.5625 26.1155C58.3888 24.9407 56.7965 24.2801 55.1358 24.279H54.6581L45.8791 33.0792C46.8387 34.225 47.3647 35.6717 47.3653 37.1662C47.3644 37.7452 47.2485 38.3184 47.0244 38.8523C46.8002 39.3862 46.4723 39.8703 46.0596 40.2765C45.656 40.6913 45.172 41.0191 44.6371 41.24C44.1022 41.4609 43.5279 41.5701 42.9493 41.561H32.2595Z" fill="#305BEF"/>
<path d="M23.5759 54.9577C23.4355 54.9571 23.2966 54.9287 23.1672 54.874C23.0378 54.8194 22.9206 54.7396 22.8222 54.6393L18.5761 50.3931C18.4777 50.2939 18.3998 50.1763 18.347 50.0469C18.2942 49.9176 18.2674 49.7791 18.2682 49.6394C18.2694 49.3609 18.3799 49.094 18.5761 48.8963L54.2547 13.1858C55.0236 12.4261 56.0611 12 57.1421 12C58.2231 12 59.2605 12.4261 60.0295 13.1858C60.7912 13.9517 61.2187 14.9878 61.2187 16.0679C61.2187 17.1481 60.7912 18.1842 60.0295 18.95L45.1678 33.8117C45.1368 33.8522 45.0968 33.8849 45.051 33.9072L37.7264 41.2425C37.6272 41.3409 37.5095 41.4188 37.3802 41.4716C37.2509 41.5244 37.1124 41.5512 36.9727 41.5504H32.2594C31.3941 41.5532 30.5652 41.8989 29.9543 42.5118C29.3435 43.1246 29.0004 43.9547 29.0004 44.82C28.9938 45.2759 29.0852 45.7279 29.2683 46.1454C29.4514 46.563 29.7221 46.9364 30.062 47.2403C30.1732 47.3352 30.2637 47.4521 30.3276 47.5836C30.3915 47.7152 30.4276 47.8585 30.4335 48.0046C30.4387 48.1522 30.4131 48.2992 30.3583 48.4363C30.3034 48.5734 30.2206 48.6975 30.1151 48.8008L24.3296 54.6393C24.2313 54.7396 24.1141 54.8194 23.9847 54.874C23.8553 54.9287 23.7164 54.9571 23.5759 54.9577ZM20.7947 49.65L23.5759 52.4206L27.9389 48.0577C27.2539 47.1368 26.8819 46.0207 26.8774 44.873C26.8772 44.3631 26.9487 43.8557 27.0897 43.3656L20.7947 49.65ZM57.1208 14.12C56.5998 14.1201 56.1 14.3262 55.7302 14.6932L30.7626 39.6608C31.2485 39.5163 31.7525 39.4412 32.2594 39.4379H36.5056L43.618 32.3255L43.7347 32.23L58.5009 17.4533C58.6823 17.2727 58.8256 17.0574 58.9222 16.8204C59.0189 16.5833 59.0669 16.3292 59.0635 16.0733C59.0671 15.8157 59.0193 15.5599 58.9226 15.3211C58.826 15.0823 58.6826 14.8652 58.5009 14.6826C58.1314 14.323 57.6365 14.1212 57.1208 14.12Z" fill="#FFC72C"/>
<path d="M16.0391 58.2166C15.8639 58.2165 15.6914 58.173 15.5371 58.09C15.3828 58.007 15.2514 57.8871 15.1547 57.741C15.058 57.5949 14.999 57.4271 14.9829 57.2526C14.9668 57.0781 14.9941 56.9024 15.0625 56.7411L18.3214 49.2041C18.3937 49.0485 18.5025 48.9127 18.6387 48.8084C18.7749 48.7041 18.9344 48.6343 19.1034 48.6051C19.2725 48.5759 19.4461 48.5881 19.6094 48.6406C19.7727 48.6932 19.9208 48.7845 20.0411 48.9068L24.2873 53.153C24.408 53.2755 24.4972 53.4255 24.5471 53.5901C24.5971 53.7546 24.6062 53.9289 24.5739 54.0978C24.542 54.2673 24.4692 54.4264 24.3619 54.5614C24.2546 54.6964 24.1161 54.8033 23.9582 54.8727L16.4637 58.1317C16.3295 58.1889 16.1849 58.2178 16.0391 58.2166ZM19.6483 51.4758L18.0772 55.1169L21.7184 53.5352L19.6483 51.4758Z" fill="#FFC72C"/>
<path d="M75.4856 54.5331H66.8446C66.5631 54.5331 66.2931 54.4213 66.094 54.2222C65.8949 54.0231 65.7831 53.7531 65.7831 53.4716V27.538C65.7831 27.2564 65.8949 26.9864 66.094 26.7874C66.2931 26.5883 66.5631 26.4764 66.8446 26.4764H75.4856C75.7672 26.4764 76.0372 26.5883 76.2362 26.7874C76.4353 26.9864 76.5472 27.2564 76.5472 27.538V53.4716C76.5472 53.7531 76.4353 54.0231 76.2362 54.2222C76.0372 54.4213 75.7672 54.5331 75.4856 54.5331ZM67.9062 52.41H74.4241V28.5995H67.9062V52.41Z" fill="#305BEF"/>
<path d="M56.3778 22.1451C56.2381 22.1459 56.0996 22.1191 55.9703 22.0663C55.841 22.0134 55.7233 21.9356 55.6241 21.8372L51.3779 17.591C51.204 17.388 51.1132 17.1267 51.1235 16.8596C51.1338 16.5924 51.2445 16.339 51.4336 16.1499C51.6227 15.9609 51.8761 15.8501 52.1433 15.8398C52.4104 15.8295 52.6716 15.9203 52.8747 16.0942L57.1209 20.3404C57.3186 20.5393 57.4296 20.8084 57.4296 21.0888C57.4296 21.3693 57.3186 21.6383 57.1209 21.8372C56.9232 22.0333 56.6563 22.1439 56.3778 22.1451Z" fill="#FFC72C"/>
<line x1="1" y1="63.4243" x2="45.1833" y2="63.4243" stroke="#305BEF" stroke-width="2" stroke-linecap="round"/>
</svg>
