<svg width="56" height="56" viewBox="0 0 56 56" fill="none" xmlns="http://www.w3.org/2000/svg">
<path fill-rule="evenodd" clip-rule="evenodd" d="M28 56C43.464 56 56 43.464 56 28C56 12.536 43.464 0 28 0C12.536 0 0 12.536 0 28C0 43.464 12.536 56 28 56Z" fill="white"/>
<path fill-rule="evenodd" clip-rule="evenodd" d="M28 56C43.464 56 56 43.464 56 28C56 12.536 43.464 0 28 0C12.536 0 0 12.536 0 28C0 43.464 12.536 56 28 56Z" fill="#E6F7FF"/>
<path d="M12.6 16C12.6 14.8954 13.4954 14 14.6 14H42.8C43.9045 14 44.8 14.8954 44.8 16V40C44.8 41.1046 43.9045 42 42.8 42H14.6C13.4954 42 12.6 41.1046 12.6 40V16Z" fill="#79D6FA"/>
<path d="M36.4 14H42.8C43.9046 14 44.8 14.8954 44.8 16V40C44.8 41.1046 43.9046 42 42.8 42H36.4V14Z" fill="#2FB7EC"/>
<path d="M19.6 14L30.8003 14V22.4L28.0003 21L25.2253 22.4L22.4003 21L19.6 22.4V14Z" fill="#006BA0"/>
<rect x="26.6" y="35" width="7" height="2.8" fill="white"/>
</svg>
