<svg width="280" height="120" viewBox="0 0 280 120" fill="none" xmlns="http://www.w3.org/2000/svg">
<g style="mix-blend-mode:darken">
<path fill-rule="evenodd" clip-rule="evenodd" d="M76.9956 17.1571C74.7882 17.1595 73 18.9497 73 21.1571V119.826H220.984L220.999 21.005C221 18.7939 219.206 17.002 216.995 17.0044L76.9956 17.1571Z" fill="#C3D4FA"/>
<path fill-rule="evenodd" clip-rule="evenodd" d="M83 103C83 104.105 83.8954 105 85 105H209C210.105 105 211 104.105 211 103V39C211 37.8954 210.105 37 209 37H85C83.8954 37 83 37.8954 83 39V103Z" fill="#FEFEFE"/>
<path d="M174 90H90V91H174V90Z" fill="#376EEE" fill-opacity="0.1"/>
<path d="M174 79H90V80H174V79Z" fill="#376EEE" fill-opacity="0.1"/>
<path d="M174 68H90V69H174V68Z" fill="#376EEE" fill-opacity="0.1"/>
<path d="M106 57H90V58H106V57Z" fill="#376EEE" fill-opacity="0.1"/>
<path d="M207 57H191V58H207V57Z" fill="#376EEE" fill-opacity="0.1"/>
<path d="M207 68H191V69H207V68Z" fill="#376EEE" fill-opacity="0.1"/>
<rect x="116" y="56" width="66" height="24" rx="2" fill="#FFC72C"/>
<path fill-rule="evenodd" clip-rule="evenodd" d="M140.181 69.0195L138.373 67.9995L140.181 66.9795C140.867 66.5852 141.112 65.715 140.732 65.0211C140.554 64.689 140.25 64.4424 139.889 64.3369C139.527 64.2313 139.138 64.2757 138.81 64.4601L136.871 65.5543V63.4401C136.871 62.6445 136.237 62 135.456 62C134.675 62 134.042 62.6445 134.042 63.4401V65.5543L132.103 64.4601C131.774 64.2754 131.385 64.2308 131.023 64.3363C130.661 64.4419 130.357 64.6887 130.179 65.0211C129.8 65.7152 130.045 66.5846 130.73 66.9795L132.538 67.9995L130.73 69.0195C130.044 69.4138 129.799 70.284 130.179 70.978C130.438 71.4527 130.921 71.7198 131.418 71.7198C131.649 71.7198 131.885 71.6614 132.102 71.5399L134.04 70.4457V72.5599C134.04 73.3565 134.674 74 135.455 74C136.236 74 136.87 73.3555 136.87 72.5599V70.4457L138.808 71.5399C139.025 71.6614 139.261 71.7207 139.494 71.7207C139.991 71.7207 140.473 71.4518 140.731 70.9789C141.111 70.2825 140.865 69.4062 140.181 69.0205V69.0195ZM154.365 69.0195L152.557 67.9986L154.365 66.9786C155.051 66.5843 155.296 65.7141 154.916 65.0202C154.738 64.6878 154.434 64.441 154.072 64.3355C153.71 64.2299 153.321 64.2745 152.993 64.4592L151.054 65.5543V63.4401C151.054 62.6445 150.42 62 149.639 62C148.858 62 148.225 62.6445 148.225 63.4401V65.5543L146.286 64.4601C145.957 64.2757 145.568 64.2313 145.207 64.3369C144.845 64.4424 144.541 64.689 144.363 65.0211C143.984 65.7148 144.228 66.5849 144.913 66.9795L146.722 67.9995L144.913 69.0195C144.228 69.4141 143.984 70.2843 144.363 70.978C144.541 71.3106 144.845 71.5578 145.206 71.6635C145.568 71.7693 145.957 71.7247 146.286 71.5399L148.224 70.4457V72.5599C148.224 73.3565 148.858 74 149.639 74C150.42 74 151.054 73.3555 151.054 72.5599V70.4457L152.993 71.5408C153.21 71.6623 153.446 71.7217 153.679 71.7217C154.176 71.7217 154.658 71.4527 154.916 70.9798C155.297 70.2852 155.052 69.4133 154.365 69.0186V69.0195ZM166.191 68.0005L167.999 69.0205C168.683 69.4062 168.93 70.2834 168.55 70.9789C168.292 71.4537 167.809 71.7207 167.313 71.7207C167.079 71.7207 166.844 71.6623 166.627 71.5399L164.688 70.4457V72.5599C164.688 73.3546 164.055 74 163.274 74C162.493 74 161.859 73.3555 161.859 72.5599V70.4457L159.921 71.5399C159.702 71.6623 159.466 71.7207 159.235 71.7207C158.738 71.7207 158.254 71.4537 157.997 70.9789C157.617 70.2847 157.862 69.4144 158.548 69.0205L160.357 67.9995L158.547 66.9795C157.862 66.5852 157.617 65.715 157.997 65.0211C158.174 64.6881 158.478 64.4408 158.84 64.3352C159.203 64.2296 159.592 64.2746 159.921 64.4601L161.859 65.5543V63.4401C161.859 62.6445 162.493 62 163.274 62C164.055 62 164.689 62.6445 164.689 63.4401V65.5543L166.627 64.4601C166.955 64.2749 167.345 64.23 167.707 64.3356C168.069 64.4412 168.373 64.6884 168.55 65.0211C168.93 65.7153 168.686 66.5861 167.999 66.9804L166.191 68.0005Z" fill="white"/>
<path fill-rule="evenodd" clip-rule="evenodd" d="M73 25H221V19C221 17.8954 220.105 17 219 17H75C73.8954 17 73 17.8954 73 19V25Z" fill="#0E3AA1"/>
<path fill-rule="evenodd" clip-rule="evenodd" d="M216.809 97.127L219.792 120H238.488L241.273 97.127H216.809Z" fill="#8CACF6"/>
<path fill-rule="evenodd" clip-rule="evenodd" d="M212.629 92.5518L214.618 98.5186H243.192L245.048 92.5518H212.629Z" fill="#C3D4FA"/>
<path fill-rule="evenodd" clip-rule="evenodd" d="M210 85.1944C210 85.1944 213.182 82.6086 214.376 83.6033C215.569 84.5979 219.348 92.5535 219.348 92.5535H223.923C223.923 92.5535 215.768 73.8576 210 85.1944Z" fill="#1ACC94"/>
<path fill-rule="evenodd" clip-rule="evenodd" d="M232.078 92.5531C232.078 92.5531 240.431 81.8128 248.785 80.2217C248.785 80.2217 245.404 87.7797 237.249 92.5531H232.078Z" fill="#1ACC94"/>
<path fill-rule="evenodd" clip-rule="evenodd" d="M217.232 60.5312C217.232 60.5312 215.039 80.8183 223.135 92.5531H226.508C226.508 92.5531 222.46 72.4649 217.232 60.5312Z" fill="#1ACC94"/>
<path fill-rule="evenodd" clip-rule="evenodd" d="M223.634 48C223.634 48 222.242 79.6242 226.22 92.5521H230.098C230.098 92.5521 234.176 69.0828 223.634 48Z" fill="#1ACC94"/>
<path fill-rule="evenodd" clip-rule="evenodd" d="M229.393 92.5524C234.115 78.4524 233.669 57.3482 250.376 49.3926C240.028 59.8292 247.393 74.453 232.078 92.5524H229.393Z" fill="#1ACC94"/>
<rect x="37" y="56" width="36.8" height="64" rx="4" fill="#8CACF6"/>
<path d="M41.8008 65.4678H69.0008V113.537H41.8008V65.4678Z" fill="white"/>
<path d="M84.2205 75.5498C85.3583 75.5498 86.2806 76.4721 86.2806 77.6099V97.9727C86.2806 99.1105 85.3583 100.033 84.2205 100.033L62.0352 100.032L52.0917 104.229L53.2886 100.032H49.9664C48.8286 100.032 47.9062 99.1098 47.9062 97.9721V77.6106C47.9062 76.4728 48.8286 75.5505 49.9664 75.5505H84.2205V75.5498Z" fill="#FFC72C"/>
<path fill-rule="evenodd" clip-rule="evenodd" d="M70.7954 88.0187L69.4564 87.2626L70.7954 86.5072C71.3033 86.2152 71.4845 85.5708 71.2033 85.0569C71.0717 84.8108 70.8465 84.628 70.5785 84.5499C70.3106 84.4717 70.0225 84.5047 69.7791 84.6415L68.3432 85.4524V83.8868C68.3432 83.2976 67.8735 82.8203 67.2953 82.8203C66.7171 82.8203 66.2481 83.2976 66.2481 83.8868V85.4524L64.8122 84.6421C64.5689 84.5056 64.281 84.4727 64.0132 84.5509C63.7454 84.629 63.5203 84.8117 63.3887 85.0576C63.1073 85.5713 63.2883 86.2157 63.7959 86.5079L65.1349 87.2633L63.7959 88.0187C63.2883 88.3109 63.1073 88.9552 63.3887 89.469C63.5199 89.7153 63.7449 89.8983 64.0128 89.9767C64.2808 90.055 64.5689 90.022 64.8122 89.8851L66.2474 89.0748V90.6405C66.2474 91.2304 66.7171 91.7069 67.2953 91.7069C67.8735 91.7069 68.3432 91.2297 68.3432 90.6405V89.0748L69.7791 89.8858C69.9398 89.9758 70.1149 90.0197 70.2873 90.0197C70.6554 90.0197 71.0124 89.8206 71.2033 89.4704C71.4855 88.9559 71.3042 88.3103 70.7954 88.018V88.0187ZM60.2918 88.0189L58.9527 87.2635L60.2918 86.5081C60.7996 86.2161 60.9809 85.5717 60.6997 85.0578C60.568 84.8118 60.3429 84.6292 60.0752 84.5511C59.8074 84.4729 59.5194 84.5058 59.2761 84.6423L57.8402 85.4526V83.887C57.8402 83.2978 57.3705 82.8205 56.7923 82.8205C56.2141 82.8205 55.7451 83.2978 55.7451 83.887V85.4526L54.3092 84.6423C54.0658 84.5056 53.7775 84.4725 53.5095 84.5507C53.2414 84.6288 53.0161 84.8116 52.8843 85.0578C52.6039 85.5718 52.785 86.2156 53.2922 86.5081L54.6313 87.2635L53.2922 88.0189C52.7843 88.3108 52.6031 88.9553 52.8843 89.4692C53.0766 89.8208 53.4337 90.0185 53.8017 90.0185C53.9734 90.0185 54.1478 89.9753 54.3085 89.8853L55.7437 89.075V90.6407C55.7437 91.2306 56.2134 91.7071 56.7916 91.7071C57.3698 91.7071 57.8395 91.2299 57.8395 90.6407V89.075L59.2748 89.8853C59.4354 89.9753 59.6106 90.0192 59.7829 90.0192C60.151 90.0192 60.5081 89.8201 60.699 89.4699C60.9805 88.9541 60.7979 88.3052 60.2918 88.0195V88.0189ZM79.5518 87.264L80.8909 88.0193C81.397 88.305 81.5803 88.9546 81.2988 89.4697C81.1079 89.8213 80.7501 90.019 80.3827 90.019C80.2097 90.019 80.0353 89.9758 79.8746 89.8851L78.4387 89.0748V90.6405C78.4387 91.229 77.9696 91.7069 77.3914 91.7069C76.8132 91.7069 76.3435 91.2297 76.3435 90.6405V89.0748L74.9083 89.8851C74.7463 89.9758 74.5718 90.019 74.4002 90.019C74.0321 90.019 73.6743 89.8213 73.4834 89.4697C73.2023 88.9556 73.3839 88.3111 73.892 88.0193L75.2311 87.2633L73.8913 86.5079C73.3835 86.2159 73.2022 85.5715 73.4834 85.0576C73.6148 84.811 73.8401 84.6279 74.1083 84.5496C74.3766 84.4714 74.665 84.5048 74.9083 84.6421L76.3435 85.4524V83.8868C76.3435 83.2976 76.8132 82.8203 77.3914 82.8203C77.9696 82.8203 78.4394 83.2976 78.4394 83.8868V85.4524L79.8746 84.6421C80.1178 84.505 80.4061 84.4718 80.6742 84.55C80.9422 84.6282 81.1674 84.8112 81.2988 85.0576C81.5804 85.5717 81.3991 86.2166 80.8909 86.5086L79.5518 87.264Z" fill="white"/>
<path fill-rule="evenodd" clip-rule="evenodd" d="M49 60.8002C49 61.6839 49.7163 62.4002 50.6 62.4002H60.2C61.0837 62.4002 61.8 61.6839 61.8 60.8002C61.8 59.9165 61.0837 59.2002 60.2 59.2002H50.6C49.7163 59.2002 49 59.9165 49 60.8002Z" fill="#0E3AA1"/>
</g>
</svg>
