<svg width="24" height="24" viewBox="0 0 24 24" fill="none" xmlns="http://www.w3.org/2000/svg">
<path fill-rule="evenodd" clip-rule="evenodd" d="M12 24C18.6274 24 24 18.6274 24 12C24 5.37258 18.6274 0 12 0C5.37258 0 0 5.37258 0 12C0 18.6274 5.37258 24 12 24Z" fill="#C3D4FA"/>
<mask id="path-2-inside-1" fill="white">
<path fill-rule="evenodd" clip-rule="evenodd" d="M12.0297 15.4285C12.0197 15.4285 12.0098 15.4285 11.9998 15.4285C11.9898 15.4285 11.9799 15.4285 11.9699 15.4285H9.42832V14.7405C7.89114 13.8513 6.85693 12.1892 6.85693 10.2857C6.85693 7.44536 9.15947 5.14282 11.9998 5.14282C14.8401 5.14282 17.1426 7.44536 17.1426 10.2857C17.1426 12.1893 16.1084 13.8513 14.5712 14.7405V15.4285H12.0297Z"/>
</mask>
<path fill-rule="evenodd" clip-rule="evenodd" d="M12.0297 15.4285C12.0197 15.4285 12.0098 15.4285 11.9998 15.4285C11.9898 15.4285 11.9799 15.4285 11.9699 15.4285H9.42832V14.7405C7.89114 13.8513 6.85693 12.1892 6.85693 10.2857C6.85693 7.44536 9.15947 5.14282 11.9998 5.14282C14.8401 5.14282 17.1426 7.44536 17.1426 10.2857C17.1426 12.1893 16.1084 13.8513 14.5712 14.7405V15.4285H12.0297Z" fill="white"/>
<path d="M12.0297 15.4285V13.4284L12.0183 13.4285L12.0297 15.4285ZM11.9699 15.4285L11.9812 13.4285H11.9699V15.4285ZM9.42832 15.4285H7.42832V17.4285H9.42832V15.4285ZM9.42832 14.7405H11.4283V13.5869L10.4298 13.0093L9.42832 14.7405ZM14.5712 14.7405L13.5697 13.0093L12.5712 13.5869V14.7405H14.5712ZM14.5712 15.4285V17.4285H16.5712V15.4285H14.5712ZM11.9998 17.4285C12.0136 17.4285 12.0273 17.4285 12.041 17.4284L12.0183 13.4285C12.0121 13.4285 12.0059 13.4285 11.9998 13.4285V17.4285ZM11.9586 17.4284C11.9723 17.4285 11.986 17.4285 11.9998 17.4285V13.4285C11.9937 13.4285 11.9875 13.4285 11.9812 13.4285L11.9586 17.4284ZM11.9699 13.4285H9.42832V17.4285H11.9699V13.4285ZM11.4283 15.4285V14.7405H7.42832V15.4285H11.4283ZM4.85693 10.2857C4.85693 12.932 6.29709 15.2397 8.42685 16.4717L10.4298 13.0093C9.48518 12.4628 8.85693 11.4465 8.85693 10.2857H4.85693ZM11.9998 3.14282C8.0549 3.14282 4.85693 6.34079 4.85693 10.2857H8.85693C8.85693 8.54993 10.264 7.14282 11.9998 7.14282V3.14282ZM19.1426 10.2857C19.1426 6.34079 15.9447 3.14282 11.9998 3.14282V7.14282C13.7355 7.14282 15.1426 8.54993 15.1426 10.2857H19.1426ZM15.5726 16.4718C17.7024 15.2398 19.1426 12.9321 19.1426 10.2857H15.1426C15.1426 11.4465 14.5144 12.4629 13.5697 13.0093L15.5726 16.4718ZM12.5712 14.7405V15.4285H16.5712V14.7405H12.5712ZM14.5712 13.4285H12.0297V17.4285H14.5712V13.4285Z" fill="#376EEE" mask="url(#path-2-inside-1)"/>
<path fill-rule="evenodd" clip-rule="evenodd" d="M9.42822 16.2859C9.42841 17.7059 10.5796 18.857 11.9997 18.857C13.4197 18.857 14.5709 17.7059 14.5711 16.2859H9.42822Z" fill="#376EEE"/>
</svg>
