<svg width="32" height="18" viewBox="0 0 32 18" fill="none" xmlns="http://www.w3.org/2000/svg">
<path d="M6.82324 2.17651C6.82324 1.07195 7.71867 0.176514 8.82324 0.176514H29.5291C30.6337 0.176514 31.5291 1.07194 31.5291 2.17651V15.8236C31.5291 16.9281 30.6337 17.8236 29.5291 17.8236H8.82324C7.71867 17.8236 6.82324 16.9281 6.82324 15.8236V2.17651Z" fill="url(#paint0_linear)"/>
<path d="M4.4701 4.11777C4.4701 3.56548 4.91782 3.11777 5.4701 3.11777L28.176 3.11777C28.7283 3.11777 29.176 3.56549 29.176 4.11778L29.1759 13.8825C29.1759 14.4348 28.7282 14.8825 28.1759 14.8825L5.4701 14.8824C4.91781 14.8824 4.4701 14.4347 4.4701 13.8824L4.4701 4.11777Z" fill="#79D6FA"/>
<path d="M13.5501 4.88232L6.23486 4.88232V13.1176H13.526C12.3693 12.0405 11.7123 10.5443 11.712 8.96377C11.7109 7.37219 12.3778 5.95878 13.5501 4.88232Z" fill="white"/>
<path d="M20.7004 4.88232C21.8712 6.0586 22.5265 7.09997 22.522 8.75962C22.5175 10.4193 21.8535 11.9477 20.6763 13.1176H27.4113L27.4354 4.88232H20.7004Z" fill="white"/>
<rect x="0.940918" y="6.05884" width="6.47059" height="1.17647" rx="0.588235" fill="#326BEE"/>
<rect x="0.940918" y="10.7646" width="4.70588" height="1.17647" rx="0.588235" fill="#326BEE"/>
<rect x="3.88232" y="8.41187" width="3.52941" height="1.17647" rx="0.588235" fill="#326BEE"/>
<defs>
<linearGradient id="paint0_linear" x1="-5.5297" y1="9.00004" x2="11.1635" y2="32.3705" gradientUnits="userSpaceOnUse">
<stop stop-color="#8BDCFB"/>
<stop offset="1" stop-color="#326BEE"/>
</linearGradient>
</defs>
</svg>
