<svg width="20" height="24" viewBox="0 0 20 24" fill="none" xmlns="http://www.w3.org/2000/svg">
<path d="M19 5H1V21.7143L2.797 23L4.59775 21.7143L6.3985 23L8.19925 21.7143L10 23L11.8008 21.7143L13.6015 23L15.4023 21.7143L17.203 23L19 21.7143V5Z" fill="white" stroke="#5A7385"/>
<line x1="4.5" y1="12.5" x2="12.5" y2="12.5" stroke="#5A7385" stroke-linecap="round"/>
<line x1="14.5" y1="12.5" x2="15.5" y2="12.5" stroke="#5A7385" stroke-linecap="round"/>
<line x1="0.5" y1="-0.5" x2="11.5" y2="-0.5" transform="matrix(1 0 0 -1 4 15)" stroke="#5A7385" stroke-linecap="round"/>
<line x1="0.5" y1="-0.5" x2="11.5" y2="-0.5" transform="matrix(1 0 0 -1 4 18)" stroke="#5A7385" stroke-linecap="round"/>
<path d="M10 12C13.3137 12 16 9.31371 16 6C16 2.68629 13.3137 0 10 0C6.68629 0 4 2.68629 4 6C4 9.31371 6.68629 12 10 12Z" fill="white"/>
<path d="M10 11.1428C12.8404 11.1428 15.1429 8.8403 15.1429 5.99997C15.1429 3.15965 12.8404 0.857117 10 0.857117C7.15972 0.857117 4.85719 3.15965 4.85719 5.99997C4.85719 8.8403 7.15972 11.1428 10 11.1428Z" fill="#5A7385"/>
<path fill-rule="evenodd" clip-rule="evenodd" d="M12.5102 5.07119C12.3273 5.07119 12.1571 5.21297 12.1318 5.3861L11.946 6.67583C11.9255 6.81635 11.8547 6.93823 11.7339 7.04147C11.6129 7.1448 11.4768 7.19645 11.3256 7.19645C11.1787 7.19645 11.0596 7.14585 10.9686 7.04452C10.8773 6.94333 10.8423 6.82053 10.8633 6.67583L10.9754 5.89317C10.9789 5.73693 10.8557 5.61471 10.6859 5.61471H10.2412C10.0714 5.61471 9.9125 5.73693 9.87064 5.89317L9.75487 6.67583C9.73387 6.82053 9.66301 6.94333 9.54236 7.04452C9.42167 7.14585 9.2879 7.19645 9.14112 7.19645C8.99405 7.19645 8.87409 7.1448 8.78113 7.04147C8.68809 6.93823 8.65188 6.81635 8.67224 6.67583L8.92132 4.96455C8.94764 4.79795 8.84398 4.62381 8.68567 4.55314C8.68567 4.55314 6.81016 3.80928 6.68796 3.76147C6.56422 3.71331 6.42403 3.82134 6.37598 4.00161L6.26139 4.43213C6.21339 4.61241 6.32156 4.81741 6.50168 4.88761L7.75866 5.3827L7.57038 6.67583C7.50712 7.10953 7.61397 7.48057 7.89124 7.78826C8.16833 8.0962 8.53374 8.25 8.98768 8.25C9.40673 8.25 9.7893 8.1158 10.1353 7.84713C10.4115 8.1158 10.7573 8.25 11.1722 8.25C11.626 8.25 12.0363 8.0962 12.403 7.78826C12.7698 7.48057 12.9848 7.10953 13.048 6.67583C13.048 6.67583 13.245 5.3112 13.2485 5.2873C13.2657 5.16838 13.1303 5.07119 12.9474 5.07119H12.5102Z" fill="white"/>
</svg>
