<svg width="178" height="172" viewBox="0 0 178 172" fill="none" xmlns="http://www.w3.org/2000/svg">
<rect width="78" height="78" rx="4" fill="#E7EEFD"/>
<path d="M69.6436 38.9997C69.6436 38.2305 69.02 37.6069 68.2507 37.6069H9.75069C8.98144 37.6069 8.35784 38.2305 8.35784 38.9997C8.35784 39.769 8.98145 40.3926 9.7507 40.3926H68.2507C69.02 40.3926 69.6436 39.769 69.6436 38.9997Z" fill="#8CACF6"/>
<path d="M13.9287 34.4283C13.9287 33.876 13.481 33.4283 12.9287 33.4283H12.143C11.5907 33.4283 11.143 33.876 11.143 34.4283V43.5711C11.143 44.1234 11.5907 44.5711 12.143 44.5711H12.9287C13.481 44.5711 13.9287 44.1234 13.9287 43.5711V34.4283Z" fill="#8CACF6"/>
<path d="M20.8936 31.6426C20.8936 31.0903 20.4458 30.6426 19.8936 30.6426H16.3221C15.7698 30.6426 15.3221 31.0903 15.3221 31.6426V46.3569C15.3221 46.9091 15.7698 47.3569 16.3221 47.3569H19.8936C20.4458 47.3569 20.8936 46.9091 20.8936 46.3569V31.6426Z" fill="#8CACF6"/>
<path d="M27.8574 28.8569C27.8574 28.3046 27.4097 27.8569 26.8574 27.8569H23.286C22.7337 27.8569 22.286 28.3046 22.286 28.8569V49.1426C22.286 49.6949 22.7337 50.1426 23.286 50.1426H26.8574C27.4097 50.1426 27.8574 49.6949 27.8574 49.1426V28.8569Z" fill="#8CACF6"/>
<path d="M55.7148 28.8569C55.7148 28.3046 55.2671 27.8569 54.7148 27.8569H51.1434C50.5911 27.8569 50.1434 28.3046 50.1434 28.8569V49.1426C50.1434 49.6949 50.5911 50.1426 51.1434 50.1426H54.7148C55.2671 50.1426 55.7148 49.6949 55.7148 49.1426V28.8569Z" fill="#8CACF6"/>
<path d="M66.8574 34.4283C66.8574 33.876 66.4097 33.4283 65.8574 33.4283H65.0717C64.5194 33.4283 64.0717 33.876 64.0717 34.4283V43.5711C64.0717 44.1234 64.5194 44.5711 65.0717 44.5711H65.8574C66.4097 44.5711 66.8574 44.1234 66.8574 43.5711V34.4283Z" fill="#8CACF6"/>
<path d="M62.6787 31.6426C62.6787 31.0903 62.231 30.6426 61.6787 30.6426H58.1073C57.555 30.6426 57.1073 31.0903 57.1073 31.6426V46.3569C57.1073 46.9091 57.555 47.3569 58.1073 47.3569H61.6787C62.231 47.3569 62.6787 46.9091 62.6787 46.3569V31.6426Z" fill="#8CACF6"/>
<path d="M70.597 63.0014C71.4318 62.9811 72.2552 63.1841 72.9876 63.5907C73.72 63.9974 74.5281 64.7883 74.9693 65.5171C75.3931 64.7678 75.9956 64.1426 76.7183 63.7018C77.4409 63.2611 78.2594 63.0198 79.0943 63.0014C81.7712 62.9384 83.9663 65.112 83.9997 67.8547C84.0621 73.133 75.1171 78 75.1171 78C75.1171 78 66.0628 73.5546 66.0004 68.2762C65.9685 65.5339 67.9202 63.0643 70.597 63.0014Z" fill="#FFA39E"/>
<rect y="94" width="78" height="78" rx="4" fill="#E7EEFD"/>
<path d="M18.293 131.877C19.7476 121.237 28.4754 113.5 38.6579 113.5C49.3253 113.5 58.5382 121.237 59.9928 131.877H56.1137C55.1439 123.172 47.3858 116.885 39.1428 116.885C30.8998 116.885 23.6266 123.655 22.6569 131.877H18.293Z" fill="#8CACF6"/>
<path d="M19.2628 142.999C18.7779 142.999 18.2931 142.516 18.778 142.032C18.778 135.745 20.2327 131.393 20.2327 131.393C20.2327 130.909 20.7176 130.909 21.2025 130.909C21.6875 130.909 21.6873 131.393 21.6873 131.876C21.6873 131.876 20.7176 136.229 20.2327 142.032C20.2327 142.516 19.7477 142.999 19.2628 142.999Z" fill="#8CACF6"/>
<path d="M59.0225 142.999C58.5376 142.999 58.5376 142.515 58.5376 142.515C58.5376 136.228 57.083 132.359 57.083 132.359C57.083 131.876 57.083 131.392 57.5679 131.392C58.0528 131.392 58.5376 131.392 58.5376 131.876C58.5376 131.876 59.5075 136.228 59.9924 142.515C59.9924 142.515 59.5074 142.999 59.0225 142.999Z" fill="#8CACF6"/>
<path d="M20.8926 139.572C20.8926 139.019 21.3403 138.572 21.8926 138.572H24.0712C24.6234 138.572 25.0711 139.019 25.0711 139.572V152.893C25.0711 153.445 24.6234 153.893 24.0711 153.893H21.8926C21.3403 153.893 20.8926 153.445 20.8926 152.893V139.572Z" fill="#8CACF6"/>
<path d="M15.3213 141.964C15.3213 140.86 16.2167 139.964 17.3213 139.964H20.8927V152.5H17.3213C16.2167 152.5 15.3213 151.605 15.3213 150.5V141.964Z" fill="#8CACF6"/>
<rect x="13.9287" y="142.75" width="1.39286" height="6.96429" fill="#8CACF6"/>
<path d="M58.5 139.572C58.5 139.019 58.0523 138.572 57.5 138.572H55.3214C54.7691 138.572 54.3214 139.019 54.3214 139.572V152.893C54.3214 153.445 54.7691 153.893 55.3214 153.893H57.5C58.0523 153.893 58.5 153.445 58.5 152.893V139.572Z" fill="#8CACF6"/>
<path d="M64.0713 141.964C64.0713 140.86 63.1759 139.964 62.0713 139.964H58.4999V152.5H62.0713C63.1759 152.5 64.0713 151.605 64.0713 150.5V141.964Z" fill="#8CACF6"/>
<rect width="1.39286" height="6.96429" transform="matrix(-1 0 0 1 65.4639 142.75)" fill="#8CACF6"/>
<rect x="94" width="78" height="78" rx="4" fill="#E7EEFD"/>
<rect x="108.929" y="14.9286" width="48.1429" height="48.1429" rx="1" stroke="#8CACF6" stroke-width="2"/>
<path d="M144.143 13.9286H156.071C157.176 13.9286 158.071 14.824 158.071 15.9286V27.8572H144.143V13.9286Z" fill="#8CACF6"/>
<path d="M107.929 50.1429H121.857V64.0715H109.929C108.824 64.0715 107.929 63.176 107.929 62.0715V50.1429Z" fill="#8CACF6"/>
<rect x="107.929" y="37.6071" width="13.9286" height="2.78571" fill="#8CACF6"/>
<rect x="144.143" y="37.6071" width="13.9286" height="2.78571" fill="#8CACF6"/>
<rect x="131.607" y="50.1429" width="2.78571" height="13.9286" fill="#8CACF6"/>
<rect x="131.607" y="13.9286" width="2.78571" height="13.9286" fill="#8CACF6"/>
<path d="M144.143 50.1429H158.071V62.0715C158.071 63.176 157.176 64.0715 156.071 64.0715H144.143V50.1429Z" fill="#8CACF6"/>
<path d="M107.929 15.9286C107.929 14.824 108.824 13.9286 109.929 13.9286H121.857V27.8572H107.929V15.9286Z" fill="#8CACF6"/>
<rect x="120.071" y="26.0714" width="25.8571" height="25.8571" fill="white" stroke="#8CACF6" stroke-width="2"/>
<rect x="94" y="94" width="78" height="78" rx="4" fill="#E7EEFD"/>
<path d="M149.88 126.462C149.786 125.432 148.922 124.643 147.888 124.643H118.112C117.078 124.643 116.214 125.432 116.12 126.462L113.698 153.105C113.592 154.276 114.514 155.286 115.69 155.286H150.31C151.486 155.286 152.408 154.276 152.302 153.105L149.88 126.462Z" fill="#8CACF6"/>
<circle cx="133" cy="139.964" r="9.75" fill="white"/>
<path d="M144.143 119.071H121.857V121.857H144.143V119.071Z" fill="#8CACF6"/>
<path d="M152.5 113.5H113.5V117.071C113.5 118.176 114.395 119.071 115.5 119.071H150.5C151.605 119.071 152.5 118.176 152.5 117.071V113.5Z" fill="#8CACF6"/>
<path d="M127.429 121.857H124.643V124.643H127.429V121.857Z" fill="#8CACF6"/>
<path d="M141.357 121.857H138.572V124.643H141.357V121.857Z" fill="#8CACF6"/>
<path d="M139.964 139.964C139.964 139.195 139.34 138.571 138.571 138.571H134.392C133.623 138.571 133 139.195 133 139.964C133 140.734 133.623 141.357 134.392 141.357H138.571C139.34 141.357 139.964 140.734 139.964 139.964Z" fill="#8CACF6"/>
<path d="M164.597 63.0014C165.432 62.9811 166.255 63.1841 166.988 63.5907C167.72 63.9974 168.528 64.7883 168.969 65.5171C169.393 64.7678 169.996 64.1426 170.718 63.7018C171.441 63.2611 172.259 63.0198 173.094 63.0014C175.771 62.9384 177.966 65.112 178 67.8547C178.062 73.133 169.117 78 169.117 78C169.117 78 160.063 73.5546 160 68.2762C159.969 65.5339 161.92 63.0643 164.597 63.0014Z" fill="#FFA39E"/>
<path d="M164.597 157.001C165.432 156.981 166.255 157.184 166.988 157.591C167.72 157.997 168.528 158.788 168.969 159.517C169.393 158.768 169.996 158.143 170.718 157.702C171.441 157.261 172.259 157.02 173.094 157.001C175.771 156.938 177.966 159.112 178 161.855C178.062 167.133 169.117 172 169.117 172C169.117 172 160.063 167.555 160 162.276C159.969 159.534 161.92 157.064 164.597 157.001Z" fill="#FFA39E"/>
<path d="M70.597 157.001C71.4318 156.981 72.2552 157.184 72.9876 157.591C73.72 157.997 74.5281 158.788 74.9693 159.517C75.3931 158.768 75.9956 158.143 76.7183 157.702C77.4409 157.261 78.2594 157.02 79.0943 157.001C81.7712 156.938 83.9663 159.112 83.9997 161.855C84.0621 167.133 75.1171 172 75.1171 172C75.1171 172 66.0628 167.555 66.0004 162.276C65.9685 159.534 67.9202 157.064 70.597 157.001Z" fill="#FFA39E"/>
</svg>
