<svg width="110" height="110" viewBox="0 0 110 110" fill="none" xmlns="http://www.w3.org/2000/svg">
<g clip-path="url(#clip0)">
<path d="M55 110C85.3757 110 110 85.3757 110 55C110 24.6243 85.3757 0 55 0C24.6243 0 0 24.6243 0 55C0 85.3757 24.6243 110 55 110Z" fill="#FFF4D3"/>
<path fill-rule="evenodd" clip-rule="evenodd" d="M101.696 83.0229C92.0365 99.2118 74.7359 110 55.0004 110C35.265 110 17.9644 99.2118 8.30469 83.0229H101.696Z" fill="url(#paint0_linear)"/>
<path d="M70.3415 91.3208C70.2756 91.3208 70.2254 91.3172 70.1874 91.3097L36.4417 91.1547C36.0508 91.1547 35.7157 90.9886 35.4923 90.6565C35.2689 90.3244 35.2131 89.9369 35.3806 89.6047C35.8833 88.4423 36.4976 87.2798 37.2236 86.228C37.9496 85.1209 38.7874 84.1245 39.6809 83.2388C40.5745 82.3531 41.5798 81.5227 42.6409 80.8031C43.702 80.0835 44.8748 79.4746 46.0476 78.9764C46.4385 78.8103 46.8853 78.6996 47.2763 78.5335H47.3321L45.4333 74.2711C41.5798 65.5802 41.6356 55.8375 45.545 47.2573C45.0356 47.3078 48.375 44.5749 50.683 46.1502C53.2454 47.8992 55.6824 47.1597 54.5668 49.9054C54.8748 50.2129 54.9783 50.6742 54.8158 51.0769C51.6883 59.2696 52.7494 68.5141 57.664 75.8211L59.3953 78.3675C60.1213 78.5335 60.7915 78.8103 61.4617 79.0871C62.6345 79.5853 63.8073 80.1942 64.8684 80.9138C65.9295 81.6335 66.9348 82.4638 67.8284 83.3495C68.7778 84.2906 69.5597 85.287 70.2857 86.3387C70.9 87.1691 71.4026 88.1101 71.8494 89.0512H82.0138C82.6281 89.0512 83.0191 89.7154 83.0191 90.3244C83.0191 90.9333 82.5723 91.3208 81.9579 91.3208H70.3415Z" fill="url(#paint1_linear)"/>
<path d="M57.807 94.7466H31.0253C30.4077 94.7466 29.9023 95.2611 29.9023 95.8898C29.9023 96.5186 30.4077 97.0331 31.0253 97.0331H57.807C58.4246 97.0331 58.9299 96.5186 58.9299 95.8898C58.9299 95.2611 58.4246 94.7466 57.807 94.7466Z" fill="#2FA2EC"/>
<path d="M78.8068 94.7466H67.746C67.1284 94.7466 66.623 95.2611 66.623 95.8898C66.623 96.5186 67.1284 97.0331 67.746 97.0331H78.8068C79.4244 97.0331 79.9297 96.5186 79.9297 95.8898C79.9297 95.2611 79.4244 94.7466 78.8068 94.7466Z" fill="#2FA2EC"/>
<path d="M83.3547 89.7158H73.1361C72.6869 88.744 72.1816 87.7723 71.564 86.9148C70.8341 85.8287 70.0481 84.7998 69.0936 83.828C68.1952 82.9134 67.1846 82.0559 66.1178 81.3128C65.0511 80.5697 63.872 79.9409 62.6929 79.4264C62.0192 79.1406 61.3454 78.8548 60.6155 78.6833L58.875 76.0538C53.9341 68.5082 52.8673 58.9619 56.0115 50.5017C56.2361 49.9301 55.9554 49.2441 55.3378 49.0155C54.7763 48.7868 54.1026 49.0726 53.878 49.7014C50.4531 58.8476 51.6321 69.1942 56.966 77.3685L57.4152 78.0545C56.573 77.9402 55.6747 77.883 54.8325 77.883C54.2149 77.883 53.7095 78.3975 53.7095 79.0263C53.7095 79.6551 54.2149 80.1695 54.8325 80.1695C56.0677 80.1695 57.2467 80.2839 58.4258 80.5697C59.5487 80.7983 60.6717 81.1985 61.7946 81.6558C62.8614 82.1131 63.872 82.6847 64.8265 83.3707C65.781 84.0566 66.6793 84.7998 67.4653 85.6C68.2514 86.4575 69.0374 87.3721 69.655 88.3439C70.2727 89.3157 70.8341 90.4018 71.2833 91.4879C71.4517 91.888 71.8447 92.1738 72.2939 92.1738H83.2424C83.86 92.1738 84.3653 91.6594 84.3653 91.0306C84.3653 90.4018 83.9723 89.7158 83.3547 89.7158Z" fill="#FFD560"/>
<path d="M46.6896 46.5576C42.7594 55.4179 42.7032 65.4786 46.5773 74.4533L48.4863 78.8549C48.4863 78.8549 48.4863 78.8549 48.4301 78.8549C48.0371 79.0264 47.5879 79.1407 47.1949 79.3122C46.0158 79.8267 44.8368 80.4555 43.77 81.1986C42.7032 81.9417 41.6926 82.7992 40.7942 83.7138C39.8959 84.6284 39.0537 85.6573 38.3238 86.8006C37.5939 87.8867 36.9763 89.0871 36.471 90.2876C36.3025 90.6305 36.3587 91.0307 36.5833 91.3737C36.8079 91.7166 37.1447 91.8881 37.5378 91.8881H66.9022C67.5198 91.8881 68.0251 91.3737 68.0251 90.7449C68.0251 90.1161 67.5198 89.6016 66.9022 89.6016H39.2783C39.559 89.0871 39.8398 88.5727 40.1766 88.0582C40.7942 87.0864 41.5241 86.1718 42.3663 85.3143C43.1524 84.4569 44.0507 83.7138 45.0052 83.085C45.9597 82.399 46.9703 81.8274 48.0371 81.3701C48.374 81.1986 48.767 81.0842 49.1039 80.9128C49.4407 80.7984 49.8338 80.6841 50.1706 80.5698C50.2268 80.5698 50.2268 80.5698 50.2829 80.5698C50.8444 80.3983 51.1251 79.7695 51.0128 79.1979C51.0128 79.1407 50.9567 79.0835 50.9567 79.0264L48.5986 73.4815C44.7245 64.5069 45.1175 54.3318 49.553 45.6429C49.7215 45.2428 49.7215 44.7855 49.4969 44.4425C49.2723 44.0995 48.8793 43.928 48.4301 43.9852C47.9809 44.0424 47.4756 44.0995 46.9703 44.1567C45.7351 44.271 45.5667 46.6719 46.6896 46.5576Z" fill="#FDCE37"/>
<path d="M32.1487 92.0024C32.7663 92.0024 33.2716 91.4879 33.2716 90.8591C33.2716 90.2303 32.7663 89.7158 32.1487 89.7158H26.4218C25.8041 89.7158 25.2988 90.2303 25.2988 90.8591C25.2988 91.4879 25.8041 92.0024 26.4218 92.0024H32.1487Z" fill="#2FA2EC"/>
<path d="M84.8985 33.5196L83.5514 31.6188C81.194 28.2644 77.9385 25.7486 74.0656 24.295C70.5295 22.9533 66.7128 22.6737 63.0644 23.4564C61.3806 20.102 58.7986 17.3067 55.5432 15.3499C52.0071 13.2255 48.0219 12.2191 43.9245 12.4987L41.511 12.7223C41.0059 12.7782 40.613 13.1137 40.5007 13.6168C40.3884 14.12 40.613 14.6231 41.062 14.8468L43.3633 16.0767C44.9349 16.9153 46.3942 17.8657 47.7413 18.9839C48.1342 19.3193 48.471 19.5988 48.8077 19.9343C46.6749 19.5429 44.4858 19.4311 42.3529 19.5988C38.8168 19.9343 35.4491 20.9965 32.4182 22.7855L30.0046 24.2391C29.5556 24.5186 29.3872 25.0218 29.4995 25.4691C29.6117 25.9722 30.0608 26.3077 30.5659 26.3077L33.7091 26.3636C36.4033 26.4195 39.1536 26.8667 41.7355 27.5935C42.1284 27.7053 42.5775 27.8171 42.9704 27.9849C41.2304 28.0408 39.5465 28.2644 37.8626 28.7117C33.8214 29.718 30.1169 31.7865 27.1982 34.6937L25.2337 36.7063C24.8969 37.0418 24.7847 37.6008 25.0653 38.0481C25.2898 38.4954 25.795 38.719 26.3001 38.6072L29.3311 37.9363C32.4182 37.2654 35.2807 36.9859 38.1433 37.1536C40.4446 37.2654 42.6336 37.7127 44.8226 38.3835C43.1387 38.9426 41.5671 39.7812 40.2201 40.8993C38.3117 42.4647 36.7962 44.4774 35.842 46.7137L35.1685 48.2791C35.0001 48.7263 35.1123 49.2854 35.5052 49.5649C35.8981 49.9004 36.4594 49.9004 36.8523 49.6208L38.3678 48.5027C39.322 47.8318 40.8936 47.2727 43.0265 46.8814C44.1491 46.6578 45.3278 46.5459 46.4503 46.4341C43.7655 55.1556 47.876 60.6248 48.2558 58.7336C49.1538 54.2611 55.1277 52.3152 55.2064 52.4721C57.0025 54.2611 58.967 57.4478 59.0232 58.51L59.1354 60.4108C59.1915 60.914 59.5283 61.3053 60.0335 61.4172C60.5386 61.529 61.0438 61.3053 61.2683 60.8581L62.1102 59.3486C63.2889 57.1682 63.9064 54.7083 63.9064 52.2484C63.9064 50.4594 63.5696 48.7263 63.0083 47.105C64.9167 48.3909 66.6005 49.8444 68.116 51.5217C70.0244 53.5902 71.596 55.9942 72.9992 58.8455L74.3463 61.6408C74.5708 62.088 75.076 62.3117 75.525 62.2558C76.0301 62.144 76.3669 61.7526 76.423 61.2494L76.7037 58.4541C77.1527 54.3729 76.4792 50.1799 74.7392 46.3782C74.0095 44.8128 73.1115 43.3033 72.1011 41.9616C72.4379 42.1852 72.8308 42.4088 73.1676 42.6884C75.4127 44.2538 77.4334 46.0987 79.1734 48.1672L81.194 50.5712C81.5308 50.9626 82.0359 51.0744 82.4849 50.8508C82.934 50.6271 83.2146 50.1799 83.1585 49.6767L82.7656 46.8814C82.2604 43.3593 81.0256 40.1167 79.0611 37.1536C77.8824 35.3646 76.423 33.7433 74.7953 32.3456C75.3005 32.4015 75.7495 32.5133 76.2547 32.6251C77.9947 32.9606 79.6785 33.5196 81.3062 34.2464L83.6636 35.2528C84.1127 35.4764 84.674 35.3087 84.9546 34.9173C85.123 34.4701 85.1791 33.911 84.8985 33.5196Z" fill="url(#paint2_linear)"/>
<path d="M84.8965 33.5196L83.5395 31.6188C81.1648 28.2644 77.8854 25.7486 73.9841 24.295C70.422 22.9533 66.5772 22.6737 62.9021 23.4564C61.2058 20.102 58.6049 17.3067 55.3256 15.3499C51.7635 13.2255 47.7491 12.2191 43.6216 12.4987L41.1903 12.7223C40.6815 12.7782 40.2857 13.1137 40.1726 13.6168C40.0595 14.12 40.2857 14.6231 40.738 14.8468L43.0562 16.0767C44.6393 16.9153 46.1094 17.8657 47.4664 18.9839C47.8622 19.3193 48.2014 19.5988 48.5407 19.9343C46.3921 19.5429 44.187 19.4311 42.0384 19.5988C38.4764 19.9343 35.0839 20.9965 32.0307 22.7855L29.5994 24.2391C29.1471 24.5186 28.9775 25.0218 29.0906 25.4691C29.2036 25.9722 29.656 26.3077 30.1648 26.3077C32.238 25.2641 33.6515 24.5559 34.4054 24.1832C36.8932 22.8973 39.6072 22.1147 42.4908 21.8351C45.6571 21.5556 48.8799 22.0028 51.8766 23.0651C52.3289 23.2328 52.8943 23.0651 53.177 22.6737C53.4597 22.2824 53.4597 21.7233 53.1205 21.332C51.9331 19.8225 50.5761 18.4807 49.1061 17.2508C47.9752 16.3562 46.7879 15.5176 45.6005 14.7909C48.6537 14.9027 51.6504 15.7413 54.3078 17.3626C57.4741 19.2634 59.9054 22.0028 61.3754 25.3013C61.6016 25.8045 62.167 26.084 62.6759 25.9163C66.1814 25.0218 69.9131 25.1895 73.3621 26.4754C76.3023 27.5376 78.8466 29.3266 80.8255 31.6188C79.4686 31.1157 78.1116 30.7243 76.698 30.4448C74.8322 30.0534 72.9098 29.8857 70.9874 29.8857C70.4785 29.8857 70.0262 30.2211 69.9131 30.7243C69.8 31.2275 69.9697 31.7306 70.422 31.9543C73.136 33.5756 75.4541 35.8677 77.2069 38.4394C78.7901 40.7875 79.8643 43.4152 80.4297 46.1546C78.677 44.1979 76.698 42.4088 74.4929 40.8993C72.1182 39.2221 69.4608 37.8804 66.7468 36.8741C66.238 36.7063 65.616 36.93 65.3333 37.3772C65.0506 37.8245 65.2202 38.4954 65.6726 38.8308C68.7258 41.0112 71.157 43.9742 72.7402 47.3845C74.1537 50.4594 74.7757 53.8138 74.606 57.1682C73.1925 54.4288 71.6094 52.1366 69.687 50.0681C67.595 47.72 65.1071 45.7632 62.3366 44.1979C61.7147 43.8065 60.9231 43.9183 60.3577 44.4215C59.7923 44.9246 59.6792 45.7073 60.0185 46.3782C60.9797 48.1672 61.4885 50.2358 61.4885 52.3043C61.4885 53.702 61.2624 55.1556 60.7535 56.4974C60.4708 55.5469 60.0185 54.5406 59.4531 53.3666C59.1704 52.8075 58.4919 52.5839 57.9264 52.8634C57.361 53.1429 57.1349 53.8138 57.4176 54.3729C58.3222 56.0501 58.7746 57.4478 58.8311 58.51L58.9442 60.4108C59.0007 60.914 59.34 61.3053 59.8488 61.4172C60.3577 61.529 60.8666 61.3053 61.0927 60.8581L61.9409 59.3486C63.1282 57.1682 63.7502 54.7083 63.7502 52.2484C63.7502 50.4594 63.4109 48.7263 62.8455 47.105C64.7679 48.3909 66.4641 49.8444 67.9907 51.5217C69.9131 53.5902 71.4963 55.9942 72.9098 58.8455L74.2668 61.6408C74.4929 62.088 75.0018 62.3117 75.4541 62.2558C75.963 62.144 76.3023 61.7526 76.3588 61.2494L76.6415 58.4541C77.0938 54.3729 76.4153 50.1799 74.6626 46.3782C73.9275 44.8128 73.0229 43.3033 72.0051 41.9616C72.3444 42.1852 72.7402 42.4088 73.0794 42.6884C75.3411 44.2538 77.3765 46.0987 79.1293 48.1672L81.1648 50.5712C81.504 50.9626 82.0129 51.0744 82.4652 50.8508C82.9175 50.6271 83.2003 50.1799 83.1437 49.6767L82.7479 46.8814C82.2391 43.3593 80.9952 40.1167 79.0162 37.1536C77.8289 35.3646 76.3588 33.7433 74.7191 32.3456C75.228 32.4015 75.6803 32.5133 76.1892 32.6251C77.9419 32.9606 79.6382 33.5196 81.2779 34.2464L83.6526 35.2528C84.1049 35.4764 84.6703 35.3087 84.953 34.9173C85.1226 34.4701 85.1792 33.911 84.8965 33.5196Z" fill="#1ACC94"/>
</g>
<defs>
<linearGradient id="paint0_linear" x1="55.0004" y1="83.0229" x2="55.0004" y2="110" gradientUnits="userSpaceOnUse">
<stop stop-color="#C2EFFB"/>
<stop offset="1" stop-color="#3ABCEE"/>
</linearGradient>
<linearGradient id="paint1_linear" x1="59.1511" y1="71.1446" x2="59.1511" y2="91.3208" gradientUnits="userSpaceOnUse">
<stop stop-color="#FFD560"/>
<stop offset="1" stop-color="#FFEC99"/>
</linearGradient>
<linearGradient id="paint2_linear" x1="55.0006" y1="12.4529" x2="55.0006" y2="62.2642" gradientUnits="userSpaceOnUse">
<stop stop-color="#56E3B6"/>
<stop offset="1" stop-color="#1ACC94"/>
</linearGradient>
<clipPath id="clip0">
<rect width="110" height="110" fill="white"/>
</clipPath>
</defs>
</svg>
