<svg width="30" height="37" viewBox="0 0 30 37" fill="none" xmlns="http://www.w3.org/2000/svg">
<path d="M22.5019 35.2022C22.4697 35.2022 22.4452 35.2005 22.4265 35.1972L5.92398 35.1267C5.7328 35.1267 5.56893 35.0513 5.45968 34.9004C5.35044 34.7495 5.32313 34.5735 5.40506 34.4226C5.65086 33.8944 5.95129 33.3663 6.30633 32.8885C6.66138 32.3855 7.07105 31.9328 7.50803 31.5305C7.94501 31.1281 8.43662 30.7508 8.95553 30.4239C9.47445 30.097 10.048 29.8203 10.6215 29.594C10.8127 29.5186 11.0312 29.4683 11.2224 29.3928H11.2497L10.3211 27.4564C8.43662 23.508 8.46393 19.0818 10.3757 15.1838C10.1266 15.2067 11.7597 13.9651 12.8884 14.6808C14.1415 15.4753 15.3332 15.1394 14.7876 16.3868C14.9383 16.5265 14.9889 16.7361 14.9094 16.919C13.38 20.641 13.8989 24.8409 16.3023 28.1605L17.1489 29.3174C17.504 29.3928 17.8317 29.5186 18.1594 29.6443C18.733 29.8706 19.3065 30.1473 19.8254 30.4742C20.3443 30.8011 20.8359 31.1784 21.2729 31.5808C21.7372 32.0083 22.1196 32.461 22.4746 32.9388C22.775 33.316 23.0208 33.7435 23.2393 34.1711H28.21C28.5104 34.1711 28.7016 34.4729 28.7016 34.7495C28.7016 35.0261 28.4831 35.2022 28.1827 35.2022H22.5019Z" fill="url(#paint0_linear)"/>
<path d="M22.4702 34.951L22.4495 34.9473L22.4276 34.9472L5.92504 34.8767H5.92398C5.8037 34.8767 5.71923 34.8326 5.66218 34.7538C5.59484 34.6608 5.59949 34.5884 5.62476 34.5419L5.62845 34.5351L5.63172 34.5281C5.87179 34.0122 6.16392 33.4993 6.507 33.0376L6.50706 33.0376L6.51058 33.0327C6.8542 32.5459 7.25173 32.1063 7.67738 31.7144L7.50803 31.5305L7.67738 31.7144C8.10318 31.3223 8.58271 30.9543 9.0888 30.6354C9.59185 30.3185 10.1509 30.0485 10.7133 29.8265C10.7982 29.793 10.891 29.7644 10.9953 29.7324L10.9997 29.731C11.0848 29.7049 11.1778 29.6764 11.2685 29.6428H11.6468L11.4751 29.2847L10.5467 27.3487C10.5467 27.3486 10.5466 27.3485 10.5466 27.3484C8.69508 23.4689 8.72214 19.1231 10.6002 15.2938L10.63 15.2331C10.6376 15.227 10.6459 15.2207 10.6547 15.214C10.7734 15.1249 10.9714 15.0043 11.2123 14.9029C11.7071 14.6947 12.2961 14.6013 12.7545 14.8919C13.0897 15.1044 13.4183 15.2397 13.7065 15.3426C13.8201 15.3832 13.9219 15.417 14.0145 15.4478C14.1685 15.4991 14.2968 15.5418 14.4112 15.5925C14.5881 15.6709 14.6421 15.7333 14.6612 15.7881C14.6835 15.852 14.6885 15.9897 14.5586 16.2866L14.4874 16.4493L14.6176 16.5701C14.6971 16.6438 14.7138 16.7418 14.6801 16.8194L14.68 16.8194L14.6782 16.824C13.1151 20.6278 13.6467 24.9188 16.0998 28.3071L16.1005 28.3082L16.9472 29.465L17.0036 29.5421L17.097 29.5619C17.4294 29.6325 17.7388 29.7507 18.0688 29.8773C18.6308 30.0992 19.1894 30.369 19.6922 30.6857C20.1983 31.0046 20.6778 31.3726 21.1036 31.7647C21.5532 32.1786 21.9252 32.6186 22.274 33.0879L22.2738 33.088L22.2791 33.0945C22.5644 33.4529 22.8014 33.8636 23.0167 34.2848L23.0863 34.4211H23.2393H28.21C28.2683 34.4211 28.3232 34.4482 28.3709 34.5098C28.4211 34.5745 28.4516 34.6648 28.4516 34.7495C28.4516 34.8168 28.4274 34.8596 28.3926 34.8893C28.3541 34.9222 28.2855 34.9522 28.1827 34.9522H22.5019C22.4898 34.9522 22.4814 34.9519 22.4758 34.9515C22.4725 34.9513 22.4708 34.9511 22.4702 34.951Z" stroke="black" stroke-opacity="0.5" stroke-width="0.5"/>
<path d="M29.6211 9.94266L28.9623 9.07909C27.8095 7.55515 26.2175 6.41219 24.3235 5.75182C22.5943 5.14224 20.7278 5.01525 18.9436 5.37083C18.1202 3.84689 16.8575 2.57694 15.2655 1.68798C13.5363 0.722818 11.5874 0.265636 9.58369 0.392631L8.4034 0.494227C8.15636 0.519626 7.96422 0.67202 7.90933 0.900611C7.85443 1.1292 7.96422 1.35779 8.18381 1.45939L9.3092 2.01817C10.0778 2.39915 10.7914 2.83093 11.4502 3.33891C11.6423 3.49131 11.807 3.6183 11.9717 3.7707C10.9287 3.5929 9.85817 3.54211 8.81513 3.6183C7.08587 3.7707 5.43896 4.25328 3.95674 5.06605L2.77646 5.72642C2.55687 5.85342 2.47452 6.08201 2.52942 6.2852C2.58432 6.51379 2.80391 6.66618 3.05094 6.66618L4.58806 6.69158C5.90559 6.71698 7.25056 6.92017 8.5132 7.25036C8.70533 7.30116 8.92492 7.35196 9.11706 7.42815C8.26616 7.45355 7.4427 7.55515 6.61925 7.75834C4.64296 8.21552 2.83135 9.15529 1.40403 10.476L0.443334 11.3904C0.278643 11.5428 0.223746 11.7968 0.360988 12C0.470782 12.2032 0.717819 12.3048 0.964856 12.254L2.44707 11.9492C3.95674 11.6444 5.35662 11.5174 6.75649 11.5936C7.88188 11.6444 8.95237 11.8476 10.0229 12.1524C9.19941 12.4064 8.43085 12.7873 7.77209 13.2953C6.83884 14.0065 6.09773 14.9209 5.6311 15.9368L5.30172 16.648C5.21937 16.8512 5.27427 17.1052 5.46641 17.2322C5.65855 17.3846 5.93304 17.3846 6.12517 17.2576L6.86628 16.7496C7.33291 16.4448 8.10147 16.1908 9.14451 16.013C9.69348 15.9114 10.2699 15.8606 10.8189 15.8098C9.5059 19.7721 11.5161 22.2568 11.7018 21.3976C12.141 19.3657 15.0623 18.4817 15.1008 18.5529C15.9792 19.3657 16.9399 20.8134 16.9673 21.296L17.0222 22.1596C17.0497 22.3882 17.2144 22.566 17.4614 22.6168C17.7084 22.6676 17.9555 22.566 18.0653 22.3628L18.477 21.677C19.0534 20.6864 19.3554 19.5689 19.3554 18.4513C19.3554 17.6386 19.1907 16.8512 18.9162 16.1146C19.8494 16.6988 20.6729 17.3592 21.414 18.1211C22.3472 19.0609 23.1158 20.1531 23.802 21.4484L24.4608 22.7184C24.5706 22.9215 24.8176 23.0231 25.0372 22.9977C25.2842 22.9469 25.4489 22.7691 25.4764 22.5406L25.6136 21.2706C25.8332 19.4165 25.5038 17.5116 24.6529 15.7844C24.2961 15.0733 23.8569 14.3875 23.3628 13.7779C23.5275 13.8795 23.7197 13.9811 23.8844 14.1081C24.9823 14.8193 25.9704 15.6574 26.8213 16.5972L27.8095 17.6894C27.9742 17.8671 28.2212 17.9179 28.4408 17.8163C28.6604 17.7147 28.7976 17.5116 28.7702 17.283L28.5781 16.013C28.331 14.4129 27.7271 12.9397 26.7664 11.5936C26.19 10.7808 25.4764 10.0443 24.6804 9.40928C24.9274 9.43467 25.147 9.48547 25.394 9.53627C26.2449 9.68867 27.0684 9.94265 27.8644 10.2728L29.0172 10.73C29.2368 10.8316 29.5113 10.7554 29.6485 10.5776C29.7309 10.3744 29.7583 10.1204 29.6211 9.94266Z" fill="url(#paint1_linear)"/>
<path d="M29.4232 10.0954L29.4223 10.0943L28.7636 9.23072L28.7629 9.22992C27.6413 7.74723 26.0909 6.63283 24.2412 5.98788L24.2404 5.9876C22.5539 5.39308 20.733 5.26913 18.9925 5.61601L18.8114 5.6521L18.7237 5.48968C17.9237 4.00927 16.696 2.77306 15.1437 1.90628L29.4232 10.0954ZM29.4232 10.0954C29.4742 10.1614 29.4861 10.2891 29.4307 10.4472C29.3565 10.5194 29.2233 10.5499 29.1222 10.5031L29.1224 10.5028L29.1094 10.4976L27.9583 10.0412C27.1495 9.70577 26.3104 9.44668 25.4413 9.29077C25.4056 9.28341 25.3699 9.27593 25.3342 9.26845C25.1318 9.22605 24.9285 9.18347 24.7059 9.16059L23.8585 9.07346L24.5245 9.60471C25.3041 10.2266 26.001 10.9464 26.5625 11.7382L26.563 11.7388C27.5014 13.0537 28.0899 14.4901 28.3309 16.0506C28.3309 16.0508 28.3309 16.051 28.331 16.0512L28.5223 17.3159C28.5327 17.4142 28.4772 17.524 28.3358 17.5895C28.2166 17.6446 28.0861 17.6193 27.9937 17.5204C27.9935 17.5201 27.9932 17.5198 27.9929 17.5195L27.0067 16.4295L27.0067 16.4294C26.143 15.4755 25.141 14.6252 24.0286 13.9037M29.4232 10.0954L24.0286 13.9037M24.0286 13.9037C23.8985 13.8045 23.7476 13.7155 23.6201 13.6404C23.5744 13.6135 23.5317 13.5883 23.4941 13.5651L23.1686 13.9353C23.6507 14.5301 24.08 15.2003 24.429 15.8957C25.2588 17.5802 25.5791 19.4363 25.3653 21.2412L25.3651 21.2437L25.2282 22.5108C25.2281 22.5112 25.2281 22.5116 25.228 22.512C25.2141 22.6237 25.1386 22.7177 24.9978 22.7505C24.8647 22.7617 24.7333 22.6949 24.6815 22.601L24.0239 21.3333L24.0229 21.3314C23.3278 20.0192 22.5457 18.9061 21.5923 17.9459C20.8368 17.1693 19.9979 16.4968 19.0488 15.9027L18.4249 15.5121L18.6819 16.2019C18.9475 16.9147 19.1054 17.6725 19.1054 18.4513C19.1054 19.5235 18.8157 20.5972 18.2618 21.5498C18.2615 21.5503 18.2612 21.5508 18.2609 21.5513L17.8509 22.2341L17.8507 22.2339L17.8453 22.2439C17.7957 22.3357 17.6677 22.4039 17.5118 22.3719C17.3659 22.3419 17.287 22.2482 17.2712 22.1357L17.2169 21.2818C17.2169 21.2814 17.2169 21.281 17.2169 21.2807C17.2066 21.105 17.1199 20.8847 17.0114 20.6667C16.8976 20.438 16.7414 20.1767 16.5604 19.9085C16.2015 19.3764 15.733 18.7989 15.2786 18.3768C15.2376 18.3351 15.1923 18.3184 15.1742 18.3125C15.1429 18.3023 15.1159 18.3001 15.1022 18.2994C15.0732 18.2978 15.0464 18.3006 15.0291 18.3029C14.9913 18.3078 14.9468 18.3173 14.9005 18.329C14.8057 18.3529 14.6783 18.3924 14.5294 18.4468C14.2311 18.5558 13.8345 18.7294 13.4245 18.9712C12.6347 19.4372 11.7431 20.1882 11.4759 21.2652C11.4733 21.2629 11.4705 21.2605 11.4678 21.2581C11.3166 21.1225 11.1072 20.8115 10.9337 20.3274C10.5913 19.3721 10.4169 17.8177 11.0562 15.8885L11.1764 15.5257L10.7958 15.5609C10.7698 15.5633 10.7437 15.5657 10.7175 15.5681C10.1946 15.6164 9.63584 15.668 9.10078 15.7669M24.0286 13.9037L9.42038 1.79425C10.2011 2.18127 10.9291 2.62141 11.6028 3.14094L11.6056 3.14303L11.6055 3.14304C11.6295 3.16204 11.6532 3.18079 11.6767 3.19938C11.8382 3.32699 11.9901 3.44709 12.1415 3.5872L12.7589 4.15848L11.9297 4.01714C10.9071 3.84284 9.85753 3.79297 8.83522 3.8675C7.1393 4.0172 5.52714 4.49022 4.07787 5.28475L2.9003 5.9436C2.77806 6.01497 2.74604 6.12847 2.77077 6.21999L2.7726 6.2268L2.77251 6.22682C2.7962 6.32548 2.90042 6.41618 3.05094 6.41618H3.05507L3.05507 6.41622L4.59219 6.44162L4.59288 6.44163C5.93212 6.46745 7.29674 6.67384 8.57644 7.00849L8.5771 7.00866C8.60825 7.0169 8.64123 7.02539 8.67555 7.03422C8.84 7.07654 9.0353 7.12679 9.20922 7.19576L9.12452 7.67804C8.28902 7.70298 7.48334 7.80262 6.67914 8.00106L6.6756 8.00193L6.67559 8.00191C4.73988 8.4497 2.96851 9.36941 1.57509 10.6584L0.61569 11.5715L0.613144 11.5739L0.613128 11.5739C0.524955 11.6555 0.510183 11.7742 0.568159 11.86L0.575066 11.8703L0.580933 11.8811C0.630525 11.9729 0.758598 12.0411 0.914502 12.0091L2.39672 11.7043L2.3976 11.7041C3.92352 11.396 5.34456 11.2665 6.76901 11.3439C7.91732 11.3958 9.0069 11.6032 10.0913 11.9119L10.9021 12.1428L10.0965 12.3913C9.29812 12.6375 8.55708 13.0057 7.92475 13.4933L7.92362 13.4942C7.02128 14.1818 6.30696 15.0643 5.85828 16.0412L5.85795 16.0419L5.53155 16.7466C5.48946 16.8564 5.5281 16.9733 5.60426 17.0236L5.61329 17.0296L5.62176 17.0363C5.72361 17.1171 5.87839 17.12 5.98585 17.05L6.72494 16.5434L6.72954 16.5402L6.72957 16.5403C7.23911 16.2075 8.04756 15.9465 9.10078 15.7669M9.10078 15.7669C9.10136 15.7668 9.10193 15.7667 9.1025 15.7666L9.14451 16.013L9.09902 15.7672C9.0996 15.7671 9.10019 15.767 9.10078 15.7669ZM9.42024 1.79418L8.29499 1.23547L8.29503 1.23539L8.28879 1.2325C8.17609 1.18036 8.12566 1.07041 8.15242 0.95899C8.17914 0.847708 8.27201 0.759675 8.42712 0.743109L9.6023 0.641953C11.5561 0.518663 13.4563 0.964478 15.1436 1.90626L9.42024 1.79418Z" stroke="black" stroke-opacity="0.5" stroke-width="0.5"/>
<defs>
<linearGradient id="paint0_linear" x1="17.0295" y1="26.036" x2="17.0295" y2="35.2022" gradientUnits="userSpaceOnUse">
<stop stop-color="#FFE380"/>
<stop offset="1" stop-color="#F0B616"/>
</linearGradient>
<linearGradient id="paint1_linear" x1="15.0002" y1="0.371826" x2="15.0002" y2="23.0016" gradientUnits="userSpaceOnUse">
<stop stop-color="#2EE3AA"/>
<stop offset="1" stop-color="#3FAA7D"/>
</linearGradient>
</defs>
</svg>
