<svg width="122" height="112" viewBox="0 0 122 112" fill="none" xmlns="http://www.w3.org/2000/svg">
<rect x="4" width="112" height="112" rx="56" fill="white"/>
<path d="M119.541 47.8101H106.729H97.886C97.3337 47.8101 96.886 48.2578 96.886 48.8101V67.3164C96.886 67.8687 97.3337 68.3164 97.886 68.3164H119.541C120.356 68.3164 120.829 67.3936 120.353 66.7321L114.532 58.6476C114.281 58.2986 114.281 57.828 114.532 57.479L120.353 49.3944C120.829 48.7329 120.356 47.8101 119.541 47.8101Z" fill="#D0DBFF"/>
<path d="M2.41129 47.8101H14.6557H23.0886C23.6409 47.8101 24.0886 48.2578 24.0886 48.8101V67.3164C24.0886 67.8687 23.6409 68.3164 23.0886 68.3164H2.41129C1.60534 68.3164 1.13049 67.4119 1.58821 66.7485L7.18916 58.6312C7.42505 58.2893 7.42505 57.8372 7.18916 57.4954L1.58821 49.378C1.13049 48.7147 1.60534 47.8101 2.41129 47.8101Z" fill="#D0DBFF"/>
<path d="M59.8047 15.2427C60.2926 14.9191 60.9268 14.9191 61.4148 15.2427L63.9844 16.9465C64.3813 17.2096 64.8816 17.2622 65.3245 17.0873L68.1922 15.955C68.7368 15.74 69.3572 15.8718 69.7672 16.2898L71.9264 18.4906C72.2599 18.8305 72.7384 18.9859 73.2079 18.907L76.2484 18.3956C76.8258 18.2985 77.4052 18.5565 77.7193 19.0505L79.3738 21.6522C79.6293 22.054 80.065 22.3055 80.5408 22.3259L83.6211 22.4579C84.206 22.483 84.7191 22.8558 84.9237 23.4043L86.0011 26.2931C86.1675 26.7393 86.5414 27.0759 87.0025 27.1948L89.9881 27.9643C90.555 28.1104 90.9794 28.5817 91.0655 29.1609L91.5187 32.2105C91.5887 32.6815 91.8844 33.0885 92.3107 33.3007L95.0711 34.6741C95.5953 34.9349 95.9124 35.4842 95.8761 36.0685L95.6854 39.1458C95.656 39.621 95.8606 40.0807 96.2335 40.3768L98.648 42.2941C99.1065 42.6582 99.3024 43.2614 99.1455 43.8255L98.3192 46.7958C98.1916 47.2545 98.2962 47.7467 98.5993 48.1138L100.562 50.4913C100.935 50.9428 101.001 51.5735 100.731 52.0926L99.3048 54.8263C99.0846 55.2484 99.0846 55.7516 99.3048 56.1737L100.731 58.9074C101.001 59.4265 100.935 60.0572 100.562 60.5087L98.5993 62.8862C98.2962 63.2533 98.1916 63.7455 98.3192 64.2042L99.1455 67.1745C99.3024 67.7386 99.1065 68.3418 98.648 68.7059L96.2335 70.6232C95.8606 70.9193 95.656 71.379 95.6854 71.8542L95.8761 74.9315C95.9124 75.5158 95.5953 76.0651 95.0711 76.3259L92.3107 77.6993C91.8844 77.9115 91.5887 78.3185 91.5187 78.7895L91.0655 81.8391C90.9794 82.4183 90.555 82.8896 89.9881 83.0357L87.0025 83.8052C86.5414 83.9241 86.1675 84.2608 86.0011 84.7069L84.9237 87.5957C84.7191 88.1442 84.206 88.517 83.6211 88.5421L80.5408 88.6741C80.065 88.6945 79.6293 88.946 79.3738 89.3478L77.7193 91.9495C77.4052 92.4435 76.8258 92.7015 76.2484 92.6044L73.2079 92.093C72.7384 92.0141 72.2599 92.1695 71.9264 92.5094L69.7672 94.7103C69.3572 95.1282 68.7368 95.26 68.1922 95.045L65.3245 93.9127C64.8816 93.7378 64.3813 93.7904 63.9844 94.0536L61.4148 95.7573C60.9268 96.0809 60.2926 96.0809 59.8047 95.7573L57.235 94.0536C56.8382 93.7904 56.3378 93.7378 55.895 93.9127L53.0272 95.045C52.4827 95.26 51.8623 95.1282 51.4523 94.7103L49.2931 92.5094C48.9596 92.1695 48.4811 92.0141 48.0115 92.093L44.9711 92.6044C44.3937 92.7015 43.8143 92.4435 43.5001 91.9495L41.8457 89.3478C41.5902 88.946 41.1544 88.6945 40.6787 88.6741L37.5984 88.5421C37.0134 88.517 36.5003 88.1442 36.2958 87.5957L35.2183 84.7069C35.052 84.2608 34.6781 83.9241 34.217 83.8052L31.2314 83.0357C30.6645 82.8896 30.2401 82.4183 30.154 81.8391L29.7008 78.7895C29.6308 78.3185 29.335 77.9115 28.9087 77.6993L26.1484 76.3259C25.6242 76.0651 25.3071 75.5158 25.3433 74.9315L25.534 71.8542C25.5635 71.379 25.3589 70.9193 24.986 70.6232L22.5715 68.7059C22.113 68.3418 21.917 67.7386 22.0739 67.1745L22.9003 64.2042C23.0279 63.7455 22.9233 63.2533 22.6201 62.8862L20.6571 60.5087C20.2843 60.0572 20.218 59.4265 20.4888 58.9074L21.9146 56.1737C22.1348 55.7516 22.1348 55.2484 21.9146 54.8263L20.4888 52.0926C20.218 51.5735 20.2843 50.9428 20.6571 50.4913L22.6201 48.1138C22.9233 47.7467 23.0279 47.2545 22.9003 46.7958L22.0739 43.8255C21.917 43.2614 22.113 42.6582 22.5715 42.2941L24.986 40.3768C25.3589 40.0807 25.5635 39.621 25.534 39.1458L25.3433 36.0685C25.3071 35.4842 25.6242 34.9349 26.1484 34.6741L28.9087 33.3007C29.335 33.0885 29.6308 32.6815 29.7008 32.2105L30.154 29.1609C30.2401 28.5818 30.6645 28.1104 31.2314 27.9643L34.217 27.1948C34.6781 27.0759 35.052 26.7393 35.2183 26.2931L36.2958 23.4043C36.5003 22.8558 37.0134 22.483 37.5984 22.4579L40.6787 22.3259C41.1544 22.3055 41.5902 22.054 41.8457 21.6522L43.5001 19.0505C43.8143 18.5565 44.3937 18.2985 44.9711 18.3956L48.0115 18.907C48.4811 18.9859 48.9596 18.8305 49.2931 18.4906L51.4523 16.2898C51.8623 15.8718 52.4827 15.74 53.0272 15.955L55.895 17.0873C56.3378 17.2622 56.8382 17.2096 57.235 16.9465L59.8047 15.2427Z" fill="#022786"/>
<circle cx="61.024" cy="55.423" r="28.8736" fill="#FFC72C"/>
<ellipse cx="61" cy="55.5" rx="26" ry="25.5" fill="#7996F9"/>
<ellipse cx="61" cy="55.5" rx="35" ry="34.5" fill="#7996F9"/>
<circle cx="61" cy="55" r="23" fill="#ADC0FD"/>
<rect x="18.364" y="45.302" width="84.4959" height="20.3956" rx="1" fill="white"/>
<path d="M60.6087 48.215L62.8008 52.4819L67.5363 53.2482L64.1556 56.6516L64.8902 61.3921L60.6087 59.2286L56.3271 61.3921L57.0617 56.6516L53.681 53.2482L58.4165 52.4819L60.6087 48.215Z" fill="#FFC72C"/>
<path d="M81.0008 51.1297L82.3161 53.6899L85.1574 54.1497L83.129 56.1917L83.5697 59.036L81.0008 57.7379L78.4319 59.036L78.8726 56.1917L76.8442 54.1497L79.6855 53.6899L81.0008 51.1297Z" fill="#FFC72C"/>
<path d="M40.2142 51.1297L41.5295 53.6899L44.3708 54.1497L42.3424 56.1917L42.7831 59.036L40.2142 57.7379L37.6453 59.036L38.086 56.1917L36.0576 54.1497L38.8989 53.6899L40.2142 51.1297Z" fill="#FFC72C"/>
</svg>
