<svg width="163" height="154" viewBox="0 0 163 154" fill="none" xmlns="http://www.w3.org/2000/svg">
<ellipse cx="56.5" cy="54.5" rx="41.5" ry="54.5" fill="#67D3A6"/>
<path d="M56.5 16C56.5 15.7239 56.2761 15.5 56 15.5C55.7239 15.5 55.5 15.7239 55.5 16L56.5 16ZM55.5 16L55.5 155L56.5 155L56.5 16L55.5 16Z" fill="#004F2F"/>
<path d="M39.3123 38.1096C39.0967 37.9371 38.7821 37.972 38.6096 38.1877C38.4371 38.4033 38.472 38.7179 38.6877 38.8904L39.3123 38.1096ZM38.6877 38.8904L56.1877 52.8904L56.8123 52.1096L39.3123 38.1096L38.6877 38.8904Z" fill="#004F2F"/>
<path d="M56.3201 36.3841C56.108 36.5609 55.7927 36.5322 55.6159 36.3201C55.4391 36.108 55.4678 35.7927 55.6799 35.6159L56.3201 36.3841ZM68.3201 26.3841L56.3201 36.3841L55.6799 35.6159L67.6799 25.6159L68.3201 26.3841Z" fill="#004F2F"/>
<path d="M56.3226 78.382C56.1116 78.5602 55.7961 78.5336 55.618 78.3226C55.4398 78.1116 55.4664 77.7961 55.6774 77.618L56.3226 78.382ZM78.8226 59.382L56.3226 78.382L55.6774 77.618L78.1774 58.618L78.8226 59.382Z" fill="#004F2F"/>
<path d="M34.3226 72.618C34.1116 72.4398 33.7961 72.4664 33.618 72.6774C33.4398 72.8884 33.4664 73.2039 33.6774 73.382L34.3226 72.618ZM33.6774 73.382L56.1774 92.382L56.8226 91.618L34.3226 72.618L33.6774 73.382Z" fill="#004F2F"/>
<path d="M86 155H4.00618C-0.353408 145.333 -4.84714 126 12.0547 126C28.9564 126 37.2061 137 39.2182 142.5C41.398 140 42.9405 131.1 57.8302 131.5C72.7199 131.9 84.9939 148.667 86 155Z" fill="#67D3A6"/>
<ellipse cx="104.5" cy="86" rx="31.5" ry="42" fill="#9CF0CD"/>
<path d="M104.5 56C104.5 55.7239 104.276 55.5 104 55.5C103.724 55.5 103.5 55.7239 103.5 56L104.5 56ZM103.5 155C103.5 155.276 103.724 155.5 104 155.5C104.276 155.5 104.5 155.276 104.5 155L103.5 155ZM103.5 56L103.5 155L104.5 155L104.5 56L103.5 56Z" fill="#004F2F"/>
<path d="M92.3201 76.6159C92.108 76.4391 91.7927 76.4678 91.6159 76.6799C91.4391 76.892 91.4678 77.2073 91.6799 77.3841L92.3201 76.6159ZM103.68 87.3841C103.892 87.5609 104.207 87.5322 104.384 87.3201C104.561 87.108 104.532 86.7927 104.32 86.6159L103.68 87.3841ZM91.6799 77.3841L103.68 87.3841L104.32 86.6159L92.3201 76.6159L91.6799 77.3841Z" fill="#004F2F"/>
<path d="M112.693 67.6053C112.911 67.4358 113.225 67.4751 113.395 67.693C113.564 67.911 113.525 68.2251 113.307 68.3947L112.693 67.6053ZM104.307 75.3947C104.089 75.5642 103.775 75.5249 103.605 75.307C103.436 75.089 103.475 74.7749 103.693 74.6053L104.307 75.3947ZM113.307 68.3947L104.307 75.3947L103.693 74.6053L112.693 67.6053L113.307 68.3947Z" fill="#004F2F"/>
<path d="M119.671 90.6237C119.879 90.4419 120.194 90.4629 120.376 90.6707C120.558 90.8786 120.537 91.1944 120.329 91.3763L119.671 90.6237ZM104.329 105.376C104.121 105.558 103.806 105.537 103.624 105.329C103.442 105.121 103.463 104.806 103.671 104.624L104.329 105.376ZM120.329 91.3763L104.329 105.376L103.671 104.624L119.671 90.6237L120.329 91.3763Z" fill="#004F2F"/>
<path d="M88.3293 100.624C88.1214 100.442 87.8056 100.463 87.6237 100.671C87.4419 100.879 87.4629 101.194 87.6707 101.376L88.3293 100.624ZM103.671 115.376C103.879 115.558 104.194 115.537 104.376 115.329C104.558 115.121 104.537 114.806 104.329 114.624L103.671 115.376ZM87.6707 101.376L103.671 115.376L104.329 114.624L88.3293 100.624L87.6707 101.376Z" fill="#004F2F"/>
<path d="M143 158H66C69.1874 151 81.098 137 103.242 137C125.386 137 138.974 151 143 158Z" fill="#9CF0CD"/>
<path d="M163 155H128C129.449 149 134.863 137 144.928 137C154.993 137 161.17 149 163 155Z" fill="#9CF0CD"/>
</svg>
