<svg width="244" height="118" viewBox="0 0 244 118" fill="none" xmlns="http://www.w3.org/2000/svg">
<path d="M173.656 117.348C180.189 117.348 185.485 112.051 185.485 105.518C185.485 98.985 180.189 93.6888 173.656 93.6888C167.122 93.6888 161.826 98.985 161.826 105.518C161.826 112.051 167.122 117.348 173.656 117.348Z" fill="#001340"/>
<path d="M50.6297 117.348C57.1629 117.348 62.4591 112.051 62.4591 105.518C62.4591 98.985 57.1629 93.6888 50.6297 93.6888C44.0965 93.6888 38.8003 98.985 38.8003 105.518C38.8003 112.051 44.0965 117.348 50.6297 117.348Z" fill="#001340"/>
<path d="M190.67 0H87.0645V105.045H192.109V1.43986C192.109 0.644647 191.465 0 190.67 0Z" fill="#ADC0FD"/>
<path d="M217.809 32.176H211.445H192.109V105.045H231.856V67.2494L220.069 33.62C219.585 32.8178 218.778 32.176 217.809 32.176Z" fill="#FFDB6C"/>
<path d="M241.86 73.4522L231.856 67.1909V105.045H243.212V75.8932C243.212 74.901 242.702 73.9786 241.86 73.4522Z" fill="#FFDB6C"/>
<path d="M220.027 117.348C226.56 117.348 231.856 112.051 231.856 105.518C231.856 98.985 226.56 93.6888 220.027 93.6888C213.494 93.6888 208.198 98.985 208.198 105.518C208.198 112.051 213.494 117.348 220.027 117.348Z" fill="#001340"/>
<path d="M109.447 117.411C115.98 117.411 121.277 112.115 121.277 105.581C121.277 99.0483 115.98 93.7521 109.447 93.7521C102.914 93.7521 97.6179 99.0483 97.6179 105.581C97.6179 112.115 102.914 117.411 109.447 117.411Z" fill="#001340"/>
<path d="M109.304 109.777C111.656 109.777 113.562 107.87 113.562 105.518C113.562 103.166 111.656 101.26 109.304 101.26C106.952 101.26 105.045 103.166 105.045 105.518C105.045 107.87 106.952 109.777 109.304 109.777Z" fill="white"/>
<path d="M220.027 109.777C222.379 109.777 224.285 107.87 224.285 105.518C224.285 103.166 222.379 101.26 220.027 101.26C217.675 101.26 215.768 103.166 215.768 105.518C215.768 107.87 217.675 109.777 220.027 109.777Z" fill="white"/>
<rect width="14.1953" height="3.78541" rx="1.8927" transform="matrix(1 0 0 -1 0 92.7425)" fill="#7996F9"/>
<rect width="10.4099" height="3.78541" rx="1.8927" transform="matrix(1 0 0 -1 3.78564 99.3669)" fill="#7996F9"/>
<circle cx="139.587" cy="52.5225" r="27.9174" fill="white"/>
<path d="M149.447 49.0891C148.705 49.0891 148.015 49.6854 147.912 50.4136L147.158 55.8382C147.075 56.4292 146.788 56.9419 146.298 57.3761C145.808 57.8107 145.255 58.0279 144.642 58.0279C144.046 58.0279 143.563 57.8151 143.194 57.3889C142.824 56.9633 142.682 56.4468 142.767 55.8382L143.222 52.5463C143.236 51.8892 142.736 51.3751 142.048 51.3751H140.244C139.555 51.3751 138.911 51.8892 138.741 52.5463L138.272 55.8382C138.187 56.4468 137.899 56.9633 137.41 57.3889C136.92 57.8151 136.378 58.0279 135.782 58.0279C135.186 58.0279 134.699 57.8107 134.322 57.3761C133.945 56.9419 133.798 56.4292 133.881 55.8382L134.891 48.6405C134.998 47.9398 134.577 47.2074 133.935 46.9102C133.935 46.9102 126.329 43.7815 125.833 43.5804C125.331 43.3778 124.762 43.8322 124.568 44.5904L124.103 46.4012C123.908 47.1594 124.347 48.0217 125.077 48.3169L130.175 50.3993L129.412 55.8382C129.155 57.6624 129.589 59.223 130.713 60.5171C131.837 61.8123 133.319 62.4592 135.16 62.4592C136.86 62.4592 138.411 61.8947 139.814 60.7647C140.935 61.8947 142.337 62.4592 144.02 62.4592C145.861 62.4592 147.525 61.8123 149.012 60.5171C150.5 59.223 151.372 57.6624 151.628 55.8382C151.628 55.8382 152.427 50.0986 152.441 49.998C152.511 49.4979 151.962 49.0891 151.22 49.0891H149.447Z" fill="#305BEF"/>
<path d="M87.0644 0H23.206C22.4108 0 21.7661 0.644644 21.7661 1.43986V105.045H87.0644V0Z" fill="#7996F9"/>
<path d="M76.1609 9.46352H32.6694C31.8741 9.46352 31.2295 10.1082 31.2295 10.9034V96.5279H77.6007V10.9034C77.6007 10.1082 76.9561 9.46352 76.1609 9.46352Z" fill="#D0DBFF"/>
<path d="M77.6007 52.9957H31.2295V53.942H77.6007V52.9957Z" fill="#7996F9"/>
<path d="M77.6007 82.3326H31.2295V83.279H77.6007V82.3326Z" fill="#7996F9"/>
<path d="M77.6011 43.5322H48.2642V68.1373H77.6011V43.5322Z" fill="#D0DBFF"/>
<path d="M57.7275 43.5322H44.4786V68.1373H57.7275V43.5322Z" fill="#ADC0FD"/>
<path d="M38.8003 68.1372H68.1372V96.5277H38.8003V68.1372Z" fill="#67D3A6"/>
<path d="M51.1025 68.1373H77.6004V96.5279H51.1025V68.1373Z" fill="#9CF0CD"/>
<path d="M64.3516 89.0644H71.383V92.5801H64.3516V89.0644Z" fill="#E6FFF4"/>
<path d="M61.5127 47.633H68.5441V50.6799H61.5127V47.633Z" fill="#E7EEFD"/>
<g style="mix-blend-mode:darken">
<path d="M76.1612 9.4635H34.0688L54.9643 39.7468H77.601V10.9034C77.601 10.1081 76.9564 9.4635 76.1612 9.4635Z" fill="#E3A700"/>
</g>
<path d="M76.1612 9.4635H34.0688L57.7276 43.5322H77.601V10.9034C77.601 10.1081 76.9564 9.4635 76.1612 9.4635Z" fill="#ADC0FD"/>
<g style="mix-blend-mode:darken">
<path d="M192.109 68.1374H220.5L210.834 39.7468H192.109V68.1374Z" fill="#E3A700"/>
</g>
<path d="M243.212 77.6008H192.109V78.5471H243.212V77.6008Z" fill="#E3A700"/>
<rect x="232.802" y="78.5472" width="6.62446" height="3.78541" fill="#E3A700"/>
<rect x="213.875" y="57.7275" width="6.62446" height="12.3026" fill="#FFC72C"/>
<path d="M77.6007 23.6588H31.2295V24.6051H77.6007V23.6588Z" fill="#7996F9"/>
</svg>
