<svg width="512" height="302" viewBox="0 0 512 302" fill="none" xmlns="http://www.w3.org/2000/svg">
<path fill-rule="evenodd" clip-rule="evenodd" d="M21.043 211.408L33.0186 301.19H108.065L119.243 211.408H21.043Z" fill="#D0DBFF"/>
<path fill-rule="evenodd" clip-rule="evenodd" d="M9.81982 201.588L17.1349 222.631H122.235L129.062 201.588H9.81982Z" fill="#D0DBFF"/>
<path fill-rule="evenodd" clip-rule="evenodd" d="M0 175.33C0 175.33 11.8641 166.103 16.3135 169.652C20.7629 173.201 34.8508 201.588 34.8508 201.588H51.9056C51.9056 201.588 21.5042 134.879 0 175.33Z" fill="#67D3A6"/>
<path fill-rule="evenodd" clip-rule="evenodd" d="M81.3657 201.588C81.3657 201.588 112.228 162.489 143.091 156.696C143.091 156.696 130.6 184.211 100.471 201.588H81.3657Z" fill="#67D3A6"/>
<path fill-rule="evenodd" clip-rule="evenodd" d="M26.2851 83.748C26.2851 83.748 17.9081 158.404 48.8387 201.588H61.7252C61.7252 201.588 46.2614 127.664 26.2851 83.748Z" fill="#67D3A6"/>
<path fill-rule="evenodd" clip-rule="evenodd" d="M49.9413 37.4538C49.9413 37.4538 44.9771 153.96 59.1605 201.588H72.988C72.988 201.588 87.5259 115.125 49.9413 37.4538Z" fill="#67D3A6"/>
<path fill-rule="evenodd" clip-rule="evenodd" d="M71.5459 201.588C88.5964 149.8 86.9842 72.2857 147.3 43.0652C109.941 81.3981 136.529 135.11 81.2399 201.588H71.5459Z" fill="#67D3A6"/>
<path d="M128.289 71.1354H460.212C461.539 71.1356 462.85 71.425 464.054 71.9837C465.259 72.5424 466.328 73.3571 467.189 74.3715C468.05 75.386 468.681 76.5761 469.04 77.8596C469.398 79.1432 469.476 80.4897 469.266 81.8061L434.313 301.169H83.8184L119.238 78.8926C119.583 76.7294 120.684 74.7605 122.342 73.339C124.001 71.9174 126.109 71.1362 128.289 71.1354Z" fill="#ADC0FD"/>
<path d="M138.236 88.3103L107.38 282.314H421.426L452.282 88.3075L138.236 88.3103Z" fill="#E7EEFD"/>
<path d="M9.14856 282.543H425.774C428.2 282.543 430.527 283.524 432.243 285.271C433.958 287.017 434.922 289.386 434.922 291.856C434.922 294.326 433.958 296.695 432.243 298.441C430.527 300.188 428.2 301.169 425.774 301.169H9.14856C6.72221 301.169 4.39524 300.188 2.67955 298.441C0.963862 296.695 0 294.326 0 291.856C0 289.386 0.963862 287.017 2.67955 285.271C4.39524 283.524 6.72221 282.543 9.14856 282.543Z" fill="#7996F9"/>
<path d="M263.367 282.543H439.579L437.97 293.257C437.639 295.46 436.547 297.468 434.891 298.92C433.236 300.371 431.126 301.169 428.944 301.169H263.367C260.949 301.169 258.629 300.188 256.919 298.441C255.209 296.695 254.248 294.326 254.248 291.856C254.248 289.386 255.209 287.017 256.919 285.271C258.629 283.524 260.949 282.543 263.367 282.543Z" fill="#022786"/>
<path d="M461.803 286.332L388.513 200.609L407.564 184.323L480.856 270.047L461.803 286.332Z" fill="#FFECAB"/>
<path d="M467.234 292.683L461.806 286.335L480.858 270.049L486.287 276.399C487.785 278.152 487.579 280.787 485.825 282.287L473.123 293.144C471.371 294.642 468.735 294.436 467.234 292.683Z" fill="#022786"/>
<path d="M461.808 286.333L388.515 200.608L398.04 192.464L471.333 278.19L461.808 286.333Z" fill="#FFDB6C"/>
<path d="M388.513 200.609L381.752 173.414L407.565 184.323L388.513 200.609Z" fill="white"/>
<path d="M385.131 187.01L381.752 173.414L394.658 178.87L385.131 187.01Z" fill="#022786"/>
<path d="M167.556 6.21778C167.96 3.80918 170.045 2.04486 172.487 2.04486H347.681C350.773 2.04486 353.124 4.82275 352.612 7.87195L315.034 231.916C314.63 234.325 312.545 236.089 310.103 236.089H134.908C131.817 236.089 129.466 233.311 129.977 230.262L167.556 6.21778Z" fill="#9CF0CD"/>
<path d="M212.34 65.09C223.549 65.09 232.636 56.0034 232.636 44.7946C232.636 33.5858 223.549 24.4993 212.34 24.4993C201.131 24.4993 192.045 33.5858 192.045 44.7946C192.045 56.0034 201.131 65.09 212.34 65.09Z" fill="white"/>
<path d="M209.825 48.7473L221.143 36.8818C221.837 36.1537 222.963 36.1537 223.658 36.8818C224.353 37.61 224.353 38.7905 223.658 39.5186L211.082 52.7025C210.388 53.4306 209.262 53.4306 208.567 52.7025L201.022 44.7922C200.327 44.064 200.327 42.8835 201.022 42.1554C201.716 41.4273 202.842 41.4273 203.537 42.1554L209.825 48.7473Z" fill="#2EAA77"/>
<path d="M162.682 197.226H249.045" stroke="white" stroke-width="5" stroke-linecap="round"/>
<path d="M168.591 167.862H283.454" stroke="white" stroke-width="5" stroke-linecap="round"/>
<path d="M176.227 116.044H291.09" stroke="white" stroke-width="5" stroke-linecap="round"/>
<path d="M172.909 141.953H266.181" stroke="white" stroke-width="5" stroke-linecap="round"/>
<path d="M182.136 89.2717H275.408" stroke="white" stroke-width="5" stroke-linecap="round"/>
<path d="M370.574 104.931L417.513 135.543L368.433 160.929L370.574 104.931Z" fill="white"/>
<path d="M365.133 186.81C361.329 191.17 358.476 201.628 364.355 206.143C373.78 213.38 366.365 198.427 362.57 200.286C354.678 204.153 355.718 217.806 349.516 223.471C344.726 227.847 337.904 227.613 332.078 229.207" stroke="#ADC0FD" stroke-width="1.37104" stroke-linecap="round" stroke-linejoin="round"/>
<circle cx="437.375" cy="49.1846" r="48.375" fill="#FFDB6C"/>
<rect x="452.596" y="61.3994" width="63.2164" height="63.2164" transform="rotate(20 452.596 61.3994)" fill="#ADC0FD"/>
<path fill-rule="evenodd" clip-rule="evenodd" d="M480.092 71.407C472.167 86.185 457.029 96.5171 439.385 97.6968L452.597 61.3994L480.092 71.407Z" fill="#7996F9"/>
</svg>
