<svg width="116" height="112" viewBox="0 0 116 112" fill="none" xmlns="http://www.w3.org/2000/svg">
<g clip-path="url(#clip0_438_26532)">
<rect x="3.5" width="112" height="112" rx="56" fill="white"/>
<mask id="mask0_438_26532" style="mask-type:alpha" maskUnits="userSpaceOnUse" x="-15" y="0" width="131" height="112">
<path d="M-14.5 56C-14.5 25.0721 10.5721 0 41.5 0H59.5C90.4279 0 115.5 25.0721 115.5 56C115.5 86.9279 90.4279 112 59.5 112H41.5C10.5721 112 -14.5 86.9279 -14.5 56Z" fill="#F0F4FF"/>
</mask>
<g mask="url(#mask0_438_26532)">
<path d="M84.3157 88.5888H104.14V24.2411H84.3157V88.5888Z" fill="#E5ECFF"/>
<path d="M61 88.5357H80.7143V43.3571H61V88.5357Z" fill="#E5ECFF"/>
<path d="M37.0596 88.5889H56.8841V47.719H37.0596V88.5889Z" fill="#E5ECFF"/>
<path d="M13.431 88.5888H33.2555V61.6269H13.431V88.5888Z" fill="#E5ECFF"/>
<path d="M84.3157 88.5888H104.14V33.7638H84.3157V88.5888Z" fill="#FFC72C"/>
<path d="M61 88.5357H80.7143V49.9286H61V88.5357Z" fill="#FFC72C"/>
<path d="M37.0596 88.5889H56.8841V56.9496H37.0596V88.5889Z" fill="#FFC72C"/>
<path d="M13.431 88.5888H33.2555V67.7162H13.431V88.5888Z" fill="#FFC72C"/>
<path d="M84.3152 88.5888H104.14V55.9676H84.3152V88.5888Z" fill="#ADC0FD"/>
<path d="M61 88.5357H80.7143V62.25H61V88.5357Z" fill="#ADC0FD"/>
<path d="M37.059 88.5888H56.8835V69.7632H37.059V88.5888Z" fill="#ADC0FD"/>
<path d="M13.4307 88.5888H33.2552V70.9365H13.4307V88.5888Z" fill="#ADC0FD"/>
<path d="M84.3151 88.5891H104.14V74.3273H84.3151V88.5891Z" fill="#7996F9"/>
<path d="M61 88.5357H80.7143V77.0357H61V88.5357Z" fill="#7996F9"/>
<path d="M37.0587 88.5891H56.8832V74.6602H37.0587V88.5891Z" fill="#7996F9"/>
<path d="M13.4304 88.5892H33.2549V83.1594H13.4304V88.5892Z" fill="#7996F9"/>
<path d="M3.5 91H116.036V88.5357H3.5V91Z" fill="#022786"/>
<path fill-rule="evenodd" clip-rule="evenodd" d="M94.6241 24.7843L71.1027 43.3538L47.2443 47.8786L23.5113 62.2003L22.9171 61.2157L46.827 46.7873L70.6114 42.2764L93.9115 23.8817L94.6241 24.7843Z" fill="#022786"/>
<path d="M21.7052 61.6269C21.7052 60.7317 22.4382 60.006 23.3428 60.006C24.2469 60.006 24.9803 60.7317 24.9803 61.6269C24.9803 62.5221 24.2469 63.2475 23.3428 63.2475C22.4382 63.2475 21.7052 62.5221 21.7052 61.6269Z" fill="white"/>
<path fill-rule="evenodd" clip-rule="evenodd" d="M21.0848 61.6266C21.0848 62.8624 22.0977 63.8679 23.3428 63.8679C24.5879 63.8679 25.6004 62.8624 25.6004 61.6266C25.6004 60.3908 24.5879 59.3856 23.3428 59.3856C22.0977 59.3856 21.0848 60.3908 21.0848 61.6266ZM22.3252 61.6266C22.3252 61.075 22.7818 60.626 23.3427 60.626C23.9037 60.626 24.3599 61.075 24.3599 61.6266C24.3599 62.1785 23.9037 62.6271 23.3427 62.6271C22.7818 62.6271 22.3252 62.1785 22.3252 61.6266Z" fill="#022786"/>
<path d="M68.9614 43.0027C68.9614 42.1075 69.6945 41.3821 70.599 41.3821C71.5035 41.3821 72.2365 42.1075 72.2365 43.0027C72.2365 43.8979 71.5035 44.6237 70.599 44.6237C69.6945 44.6237 68.9614 43.8979 68.9614 43.0027Z" fill="white"/>
<path fill-rule="evenodd" clip-rule="evenodd" d="M68.3412 43.0026C68.3412 44.2385 69.354 45.2436 70.5991 45.2436C71.8443 45.2436 72.8568 44.2385 72.8568 43.0026C72.8568 41.7668 71.8443 40.7616 70.5991 40.7616C69.354 40.7616 68.3412 41.7668 68.3412 43.0026ZM69.5817 43.0026C69.5817 42.451 70.0383 42.0021 70.5992 42.0021C71.1601 42.0021 71.6167 42.451 71.6167 43.0026C71.6167 43.5545 71.1601 44.0031 70.5992 44.0031C70.0383 44.0031 69.5817 43.5545 69.5817 43.0026Z" fill="#022786"/>
<path d="M45.3333 47.7191C45.3333 46.8239 46.0666 46.0981 46.9708 46.0981C47.8753 46.0981 48.6084 46.8239 48.6084 47.7191C48.6084 48.6143 47.8753 49.3397 46.9708 49.3397C46.0666 49.3397 45.3333 48.6143 45.3333 47.7191Z" fill="white"/>
<path fill-rule="evenodd" clip-rule="evenodd" d="M44.7133 47.7189C44.7133 48.9547 45.7258 49.9599 46.9709 49.9599C48.216 49.9599 49.2288 48.9547 49.2288 47.7189C49.2288 46.483 48.216 45.4778 46.9709 45.4778C45.7258 45.4778 44.7133 46.483 44.7133 47.7189ZM45.9535 47.7189C45.9535 47.1672 46.4101 46.7183 46.971 46.7183C47.5319 46.7183 47.9885 47.1672 47.9885 47.7189C47.9885 48.2705 47.5319 48.7194 46.971 48.7194C46.4101 48.7194 45.9535 48.2705 45.9535 47.7189Z" fill="#022786"/>
<path d="M92.5901 24.2412C92.5901 23.346 93.3235 22.6206 94.2276 22.6206C95.1322 22.6206 95.8652 23.346 95.8652 24.2412C95.8652 25.1364 95.1322 25.8622 94.2276 25.8622C93.3235 25.8622 92.5901 25.1364 92.5901 24.2412Z" fill="white"/>
<path fill-rule="evenodd" clip-rule="evenodd" d="M91.9698 24.241C91.9698 25.4768 92.9827 26.482 94.2278 26.482C95.4729 26.482 96.4858 25.4768 96.4858 24.241C96.4858 23.0052 95.4729 22 94.2278 22C92.9827 22 91.9698 23.0052 91.9698 24.241ZM93.2104 24.2411C93.2104 23.6895 93.667 23.2405 94.2279 23.2405C94.7888 23.2405 95.2454 23.6895 95.2454 24.2411C95.2454 24.793 94.7888 25.2419 94.2279 25.2419C93.667 25.2419 93.2104 24.793 93.2104 24.2411Z" fill="#022786"/>
</g>
</g>
<defs>
<clipPath id="clip0_438_26532">
<rect width="115" height="112" fill="white" transform="translate(0.5)"/>
</clipPath>
</defs>
</svg>
