<svg width="817" height="738" viewBox="0 0 817 738" fill="none" xmlns="http://www.w3.org/2000/svg">
<path opacity="0.2" d="M186 671L358.5 0H656L833 671H186Z" fill="#ADC0FD"/>
<path d="M6.49991 738.848C4.24341 739.065 2.14197 739.035 0 738.848H6.49991C20.4006 737.51 40.1854 726.789 111.577 685.59C143.792 667 148.822 667 168.147 667H819V738.848H6.49991Z" fill="#F7F9FA"/>
<path d="M416 706.525C428.163 700.59 464.286 689.183 511.478 691.041C570.467 693.364 654.998 719.428 734.664 712.976C814.33 706.525 805.816 629.107 662.904 652.332" stroke="#ADC0FD"/>
<path d="M484 612H703C719.569 612 733 625.431 733 642V667H484V612Z" fill="#ADC0FD"/>
<path d="M248 642C248 625.431 261.431 612 278 612H569V667H248V642Z" fill="#D0DBFF"/>
<path d="M470.704 539.09H539.707V612.212H470.704V539.09Z" fill="#7996F9"/>
<path d="M414.061 612.212C414.061 605.387 419.594 599.853 426.419 599.853H528.378C528.378 606.679 522.845 612.212 516.02 612.212H414.061Z" fill="#ADC0FD"/>
<path d="M522.199 612.212C522.199 605.387 527.732 599.853 534.558 599.853H582.963C589.788 599.853 595.321 605.387 595.321 612.212H522.199Z" fill="#7996F9"/>
<path d="M312.102 323.245C312.102 312.199 321.056 303.245 332.102 303.245H682.951C689.721 303.245 696.031 306.669 699.72 312.345L702.289 316.297C704.397 319.541 705.52 323.327 705.52 327.197V533.676C705.52 537.545 704.397 541.331 702.289 544.576L699.72 548.527C696.031 554.203 689.721 557.628 682.951 557.628H332.102C321.056 557.628 312.102 548.673 312.102 537.628V323.245Z" fill="#7996F9"/>
<rect x="312.102" y="303.245" width="382.089" height="254.383" rx="10" fill="#022786"/>
<path d="M581.371 342.296C599.678 342.296 614.519 327.455 614.519 309.148C614.519 290.841 599.678 276 581.371 276C563.064 276 548.223 290.841 548.223 309.148C548.223 327.455 563.064 342.296 581.371 342.296Z" fill="#C7FEE7"/>
<path d="M577.252 314.217L593.749 297.649C594.759 296.634 596.401 296.634 597.414 297.649C598.425 298.665 598.425 300.313 597.414 301.331L579.084 319.738C578.073 320.754 576.432 320.754 575.418 319.738L564.422 308.694C563.934 308.195 563.662 307.537 563.662 306.853C563.662 306.169 563.934 305.511 564.422 305.012C565.432 303.997 567.074 303.997 568.087 305.012L577.252 314.217Z" fill="#2EAA77"/>
<path d="M312.102 512.313H694.191V547.628C694.191 553.151 689.714 557.628 684.191 557.628H322.102C316.579 557.628 312.102 553.151 312.102 547.628V512.313Z" fill="#ADC0FD"/>
<circle cx="499.542" cy="534.97" r="9.26902" fill="white"/>
<path d="M285.813 335.463C285.813 332.702 288.052 330.463 290.813 330.463H522.632C525.393 330.463 527.632 332.702 527.632 335.463V351.641H285.813V335.463Z" fill="#9CF0CD"/>
<rect x="285.813" y="330.325" width="241.427" height="160.275" rx="5" fill="white"/>
<rect x="299" y="384" width="76" height="82" rx="5" fill="#F0F4FF"/>
<rect x="390" y="384" width="77" height="82" rx="5" fill="#F0F4FF"/>
<rect x="479" y="384" width="76" height="82" rx="5" fill="#F0F4FF"/>
<rect x="309" y="441" width="54" height="5" rx="2.5" fill="#D0DBFF"/>
<rect x="400" y="441" width="55" height="5" rx="2.5" fill="#D0DBFF"/>
<rect x="488" y="441" width="55" height="5" rx="2.5" fill="#D0DBFF"/>
<rect x="309" y="451" width="37" height="5" rx="2.5" fill="#D0DBFF"/>
<rect x="400" y="451" width="37" height="5" rx="2.5" fill="#D0DBFF"/>
<rect x="488" y="451" width="37" height="5" rx="2.5" fill="#D0DBFF"/>
<path d="M309.144 354.388C309.144 355.782 308.724 357.162 307.909 358.449C307.093 359.737 305.898 360.907 304.39 361.892C302.883 362.877 301.094 363.659 299.125 364.192C297.156 364.726 295.045 365 292.914 365C290.782 365 288.672 364.726 286.703 364.192C284.733 363.659 282.944 362.877 281.437 361.892C279.93 360.907 278.734 359.737 277.919 358.449C277.103 357.162 276.683 355.782 276.683 354.388L292.914 354.388H309.144Z" fill="#FFC72C"/>
<path d="M276.683 334C276.683 328.477 281.161 324 286.683 324H309.144V354.388H276.683V334Z" fill="#FFC72C"/>
<path d="M438.987 354.388C438.987 355.782 438.568 357.162 437.752 358.449C436.936 359.737 435.741 360.907 434.234 361.892C432.727 362.877 430.937 363.659 428.968 364.192C426.999 364.726 424.888 365 422.757 365C420.626 365 418.515 364.726 416.546 364.192C414.577 363.659 412.788 362.877 411.28 361.892C409.773 360.907 408.578 359.737 407.762 358.449C406.946 357.162 406.527 355.782 406.527 354.388L422.757 354.388H438.987Z" fill="#FFC72C"/>
<rect x="406.527" y="324" width="32.4608" height="30.3882" fill="#FFC72C"/>
<path d="M374.066 354.388C374.066 355.782 373.646 357.162 372.83 358.449C372.015 359.737 370.819 360.907 369.312 361.892C367.805 362.877 366.016 363.659 364.047 364.192C362.077 364.726 359.967 365 357.835 365C355.704 365 353.593 364.726 351.624 364.192C349.655 363.659 347.866 362.877 346.359 361.892C344.852 360.907 343.656 359.737 342.84 358.449C342.025 357.162 341.605 355.782 341.605 354.388L357.835 354.388H374.066Z" fill="#FFC72C"/>
<rect x="341.605" y="324" width="32.4608" height="30.3882" fill="#FFC72C"/>
<path d="M503.909 354.388C503.909 355.782 503.489 357.162 502.674 358.449C501.858 359.737 500.662 360.907 499.155 361.892C497.648 362.877 495.859 363.659 493.89 364.192C491.921 364.726 489.81 365 487.679 365C485.547 365 483.437 364.726 481.468 364.192C479.498 363.659 477.709 362.877 476.202 361.892C474.695 360.907 473.499 359.737 472.684 358.449C471.868 357.162 471.448 355.782 471.448 354.388L487.679 354.388H503.909Z" fill="#FFC72C"/>
<rect x="471.448" y="324" width="32.4608" height="30.3882" fill="#FFC72C"/>
<path d="M341.605 354.388C341.605 355.782 341.186 357.162 340.37 358.449C339.554 359.737 338.359 360.907 336.852 361.892C335.344 362.877 333.555 363.659 331.586 364.192C329.617 364.726 327.506 365 325.375 365C323.244 365 321.133 364.726 319.164 364.192C317.195 363.659 315.405 362.877 313.898 361.892C312.391 360.907 311.196 359.737 310.38 358.449C309.564 357.162 309.145 355.782 309.145 354.388L325.375 354.388H341.605Z" fill="#FFECAB"/>
<rect x="309.145" y="324" width="32.4608" height="30.3882" fill="#FFECAB"/>
<path d="M471.448 354.388C471.448 355.782 471.029 357.162 470.213 358.449C469.397 359.737 468.202 360.907 466.695 361.892C465.187 362.877 463.398 363.659 461.429 364.192C459.46 364.726 457.349 365 455.218 365C453.087 365 450.976 364.726 449.007 364.192C447.038 363.659 445.248 362.877 443.741 361.892C442.234 360.907 441.039 359.737 440.223 358.449C439.407 357.162 438.988 355.782 438.988 354.388L455.218 354.388H471.448Z" fill="#FFECAB"/>
<rect x="438.988" y="324" width="32.4608" height="30.3882" fill="#FFECAB"/>
<path d="M406.527 354.388C406.527 355.782 406.107 357.162 405.291 358.449C404.476 359.737 403.28 360.907 401.773 361.892C400.266 362.877 398.477 363.659 396.507 364.192C394.538 364.726 392.428 365 390.296 365C388.165 365 386.054 364.726 384.085 364.192C382.116 363.659 380.327 362.877 378.82 361.892C377.313 360.907 376.117 359.737 375.301 358.449C374.486 357.162 374.066 355.782 374.066 354.388L390.296 354.388H406.527Z" fill="#FFECAB"/>
<rect x="374.066" y="324" width="32.4608" height="30.3882" fill="#FFECAB"/>
<path d="M536.37 354.388C536.37 355.782 535.95 357.162 535.135 358.449C534.319 359.737 533.123 360.907 531.616 361.892C530.109 362.877 528.32 363.659 526.351 364.192C524.382 364.726 522.271 365 520.14 365C518.008 365 515.898 364.726 513.928 364.192C511.959 363.659 510.17 362.877 508.663 361.892C507.156 360.907 505.96 359.737 505.145 358.449C504.329 357.162 503.909 355.782 503.909 354.388L520.14 354.388H536.37Z" fill="#FFECAB"/>
<path d="M503.909 324H526.37C531.893 324 536.37 328.477 536.37 334V354.388H503.909V324Z" fill="#FFECAB"/>
<rect x="631" y="339" width="115" height="64" rx="5" fill="white"/>
<rect x="646" y="369" width="14" height="21" fill="#E5ECFF"/>
<rect x="660" y="365" width="14" height="25" fill="#ADC0FD"/>
<rect x="716" y="358" width="14" height="32" fill="#ADC0FD"/>
<rect x="688" y="365" width="14" height="25" fill="#ADC0FD"/>
<rect x="674" y="358" width="14" height="32" fill="#E5ECFF"/>
<rect x="702" y="352" width="14" height="38" fill="#E5ECFF"/>
<rect x="582" y="421" width="73" height="73.4954" rx="5" fill="white"/>
<ellipse cx="619.737" cy="457.748" rx="22.8898" ry="23.0452" fill="#9CF0CD"/>
<path d="M642.627 457.748C642.627 452.857 641.081 448.094 638.214 444.146C635.347 440.198 631.307 437.271 626.679 435.788C622.05 434.305 617.073 434.343 612.467 435.896C607.861 437.449 603.865 440.437 601.057 444.428C598.25 448.419 596.776 453.205 596.85 458.095C596.923 462.985 598.539 467.725 601.465 471.628C604.391 475.532 608.474 478.398 613.125 479.81C617.775 481.223 622.751 481.11 627.333 479.487L619.737 457.748H642.627Z" fill="#67D3A6"/>
<path d="M540 739V702H271.5L211 726.935V739H540Z" fill="#D0DBFF"/>
<path d="M543 739V702L437 726.935V739H543Z" fill="#7996F9"/>
<rect x="211" y="727" width="227" height="12" fill="#7996F9"/>
<path d="M650.391 699.953C622.478 699.228 605.833 724.723 601 737.562H688C687.094 725.328 678.303 700.678 650.391 699.953Z" fill="#D0DBFF"/>
<path d="M671.938 713.541C660.017 713.07 652.908 729.651 650.844 738H688C687.613 730.043 683.859 714.013 671.938 713.541Z" fill="#7996F9"/>
<path d="M375.922 666.883H284.35L284.352 647H375.926L375.922 666.883Z" fill="#FFDB6C"/>
<path d="M382.707 666.883H375.926L375.927 647H382.711C384.583 647 386.101 648.483 386.101 650.314L386.099 663.569C386.099 665.398 384.581 666.881 382.707 666.883Z" fill="#022786"/>
<path d="M375.926 666.881H284.35V656.94H375.926V666.881Z" fill="#FFC72C"/>
<path d="M284.35 666.883L264 656.94L284.352 647L284.35 666.883Z" fill="white"/>
<path d="M274.173 661.912L264 656.94L274.177 651.971L274.173 661.912Z" fill="#022786"/>
<rect x="680.055" y="612.111" width="27.3857" height="55.4736" fill="#67D3A6"/>
<rect x="617.559" y="612.111" width="62.4956" height="55.4736" fill="#9CF0CD"/>
<rect x="623.771" y="656.078" width="17.3929" height="6.21175" fill="#E6FFF4"/>
<rect x="628.78" y="575" width="42.1323" height="37.6637" fill="#ADC0FD"/>
<rect x="632.831" y="605.494" width="6.21181" height="3.95297" fill="#F0F4FF"/>
<rect x="670.912" y="575" width="17.8743" height="37.6637" fill="#7996F9"/>
</svg>
