<svg width="112" height="112" viewBox="0 0 112 112" fill="none" xmlns="http://www.w3.org/2000/svg">
<rect width="112" height="112" rx="56" fill="white"/>
<rect x="23" y="28.3486" width="61.1776" height="5.77148" rx="2.88574" fill="#022786"/>
<path d="M39.1602 27.1943C39.1602 24.3256 36.8346 22 33.9658 22C31.0971 22 28.7715 24.3256 28.7715 27.1943V34.1201H39.1602V27.1943Z" fill="#7996F9"/>
<path fill-rule="evenodd" clip-rule="evenodd" d="M76.0093 22C79.0519 22 81.5189 24.7342 81.5232 28.1089V28.1178L76.0093 28.1178H38.7905C38.7905 23.8329 35.7587 22 33.9658 22M81.4655 83.1777V28.1178H38.7566V77.0599C38.7566 77.0599 39.177 83.1777 44.2674 83.1777H81.4655Z" fill="#ADC0FD"/>
<path fill-rule="evenodd" clip-rule="evenodd" d="M55.8974 41.623C58.7662 41.623 61.0918 43.9486 61.0918 46.8174V83.1776H50.7031V46.8173C50.7031 43.9486 53.0287 41.623 55.8974 41.623ZM43.7773 83.1776H44.9747C44.5846 83.2097 44.1844 83.209 43.7773 83.1776ZM44.9747 83.1776H50.7031V74.5204C50.7031 80.4375 48.1802 82.9143 44.9747 83.1776Z" fill="#7996F9"/>
<path fill-rule="evenodd" clip-rule="evenodd" d="M98.3446 48.5488L103.858 48.5488C103.858 44.7259 101.393 41.6265 98.3497 41.623H98.3446V48.5488ZM61.1257 48.5488C61.1257 43.698 58.094 41.623 56.301 41.623H98.3446V48.5488H61.1257ZM103.801 110.881V48.5488H61.0919V103.955C61.0919 103.955 61.5123 110.881 66.6027 110.881H103.801Z" fill="#D0DBFF"/>
<path d="M69.997 103.955C69.997 107.78 67.8188 110.881 65.1318 110.881H106.486V103.955H69.997Z" fill="#7996F9"/>
<path fill-rule="evenodd" clip-rule="evenodd" d="M112 103.955C112 107.778 109.534 110.877 106.492 110.881H106.486V103.955H112C112 103.955 112 103.955 112 103.955Z" fill="#7996F9"/>
<mask id="mask0_417_26795" style="mask-type:alpha" maskUnits="userSpaceOnUse" x="106" y="103" width="6" height="8">
<path fill-rule="evenodd" clip-rule="evenodd" d="M112 103.955C112 107.778 109.534 110.877 106.492 110.881H106.486V103.955H112C112 103.955 112 103.955 112 103.955Z" fill="white"/>
</mask>
<g mask="url(#mask0_417_26795)">
</g>
<rect x="69.749" y="56.0517" width="26.5488" height="1.73144" rx="0.865721" fill="white"/>
<rect x="47.8174" y="28.9258" width="26.5488" height="1.73144" rx="0.865721" fill="white"/>
<rect x="69.749" y="83.1776" width="26.5488" height="1.73144" rx="0.865721" fill="white"/>
<rect x="69.749" y="64.7089" width="26.5488" height="1.73144" rx="0.865721" fill="white"/>
<rect x="47.8174" y="37.583" width="26.5488" height="1.73144" rx="0.865721" fill="white"/>
<rect x="69.749" y="91.8349" width="22.5088" height="1.73144" rx="0.865721" fill="white"/>
<rect x="69.749" y="73.3661" width="16.1601" height="1.73144" rx="0.865721" fill="white"/>
<path d="M16.9549 84.474L34.5417 45.6319L42.975 49.4512L25.3879 88.294L16.9549 84.474Z" fill="#FFDB6C"/>
<path d="M15.6518 87.3521L16.9543 84.4755L25.3876 88.2948L24.0848 91.1721C23.7253 91.9662 22.8048 92.3252 22.0282 91.9736L16.4061 89.4271C15.6302 89.0758 15.2926 88.1472 15.6518 87.3521Z" fill="#022786"/>
<path d="M16.9548 84.4758L34.5422 45.6322L38.759 47.5415L21.1716 86.3851L16.9548 84.4758Z" fill="#FFC72C"/>
<path d="M34.5416 45.6319L42.6674 38.9096L42.9749 49.4512L34.5416 45.6319Z" fill="white"/>
<path d="M38.6045 42.2698L42.6674 38.9096L42.8207 44.1806L38.6045 42.2698Z" fill="#022786"/>
</svg>
