<svg width="112" height="125" viewBox="0 0 112 125" fill="none" xmlns="http://www.w3.org/2000/svg">
<rect y="13" width="112" height="112" rx="56" fill="white"/>
<mask id="mask0_438_26505" style="mask-type:alpha" maskUnits="userSpaceOnUse" x="0" y="13" width="112" height="112">
<rect y="13" width="112" height="112" rx="56" fill="#C4C4C4"/>
</mask>
<g mask="url(#mask0_438_26505)">
<path d="M52.6905 75.7348C52.6905 75.7348 92.3967 60.8658 96.059 68.9577C99.7216 77.0499 95.8058 87.0981 95.8058 87.0981C91.3597 91.2554 74.6807 98.2952 74.6807 98.2952C74.6807 98.2952 66.9721 97.7101 61.3533 92.7443" fill="#ADC0FD"/>
<path d="M-4.03317 50.9834C-4.03317 50.9834 17.1016 58.6166 24.2371 59.0883C35.2047 57.4432 39.5917 54.9529 47.8174 55.7981C52.2044 56.2488 68.0403 66.3115 68.0403 66.3115L47.8174 71.701C47.8174 71.701 60.3801 83.9024 62.6236 85.9588C69.2041 91.991 80.72 95.8296 80.72 95.8296C80.72 95.8296 84.0103 102.41 73.0427 101.313C71.946 107.346 62.6236 105.152 62.6236 105.152C62.6236 105.152 56.393 103.305 45.0755 101.313C37.9466 98.5855 27.8774 92.5833 20.3612 90.8973C12.8449 89.2112 -8.05634 87.4647 -8.05634 87.4647C-8.05634 87.4647 -10.8235 81.0858 -9.57846 69.4137" fill="#D0DBFF"/>
<path d="M46.7205 88.7007C58.7848 95.8297 59.3332 98.0232 73.0426 101.313" stroke="#ADC0FD" stroke-width="1.09676" stroke-linecap="round" stroke-linejoin="round"/>
<path d="M96.8738 73.5965C92.4578 78.3175 81.8384 82.9467 72.0277 82.6662C62.2169 82.3858 54.9385 77.639 54.9385 77.639C54.9385 77.639 49.8792 81.0441 45.0753 81.5718C40.2714 82.0999 35.3256 80.8351 40.2477 76.2561C50.0106 71.1526 47.707 66.4212 57.6879 63.4753C68.5022 60.2829 82.5186 57.6154 88.7784 57.0014L96.8738 73.5965Z" fill="#ADC0FD"/>
<path d="M22.7992 57.4786C20.7234 57.1962 14.8705 56.3717 10.9546 55.6043C9.4262 58.2472 7.1999 63.2089 5.94471 71.1662C4.67638 79.207 4.68496 85.8042 4.87288 89.6456C8.95333 90.0862 13.3055 90.6114 16.7006 91.1566C17.1239 91.2247 17.4948 90.8845 17.4377 90.477C15.7103 78.1547 19.1809 64.4851 23.1579 58.1921C23.341 57.9024 23.1504 57.5263 22.7992 57.4786Z" fill="#ADC0FD"/>
<path d="M9.34361 71.1448C10.6786 63.3467 13.0972 58.3171 14.9081 55.452C15.0842 55.1733 14.8689 54.8294 14.4769 54.7585C5.77606 53.1884 -3.18193 49.7659 -3.18193 49.7659C-3.18193 49.7659 -7.47355 55.732 -9.50809 70.0579C-11.4897 84.0103 -8.5555 88.8201 -8.5555 88.8201C-8.5555 88.8201 -0.33024 89.62 7.35213 90.4077C7.84753 90.458 8.27016 90.152 8.24636 89.7568C8.00207 85.6479 7.98894 79.058 9.34361 71.1448Z" fill="#022786"/>
<path d="M87.2849 56.3476C89.4569 55.9482 95.5795 54.7944 99.659 53.8142C101.477 56.275 104.211 60.9339 106.148 68.5468C108.105 76.2398 108.603 82.6156 108.699 86.3389C104.42 87.0136 99.8606 87.7865 96.3146 88.5206C95.8723 88.6121 95.454 88.3061 95.4834 87.9088C96.3632 75.8956 91.6464 62.8978 86.9605 57.0589C86.7451 56.7904 86.9172 56.4151 87.2849 56.3476Z" fill="#D0DBFF"/>
<path d="M103.984 68.3573C102.261 60.6676 99.8626 55.7766 98.138 53.0099C97.97 52.7408 98.1206 52.3895 98.4393 52.3018C105.51 50.3546 118.391 46.5823 118.391 46.5823C118.391 46.5823 121.323 50.5204 121.629 66.4075C121.905 80.6972 120.187 85.1268 120.187 85.1268C120.187 85.1268 113.449 86.2873 107.159 87.4112C106.753 87.4836 106.38 87.1979 106.368 86.8044C106.244 82.7103 105.732 76.1608 103.984 68.3573Z" fill="#022786"/>
<path d="M54.3979 77.7332L60.9785 72.2494C63.3548 75.1741 71.1783 80.5847 83.462 78.8299" stroke="#7996F9" stroke-width="1.09676" stroke-linecap="round" stroke-linejoin="round"/>
<path fill-rule="evenodd" clip-rule="evenodd" d="M33.3822 93.9655C31.5736 95.5777 31.4143 98.3509 33.0265 100.16C34.6387 101.968 37.4119 102.127 39.2205 100.515L40.4584 99.4118C40.0035 100.84 40.2932 102.466 41.3632 103.666C42.9754 105.475 45.7485 105.634 47.5572 104.022L48.7769 102.935C48.752 104.007 49.1179 105.091 49.888 105.955C51.5002 107.763 54.2733 107.922 56.0819 106.31L56.4761 105.959C56.5618 106.656 56.8533 107.335 57.356 107.899C58.6705 109.374 60.9315 109.504 62.4061 108.189L63.6891 107.045C65.1638 105.731 65.2936 103.47 63.9791 101.995C62.692 100.551 60.4974 100.397 59.0221 101.625C59.0003 100.618 58.6336 99.6137 57.9109 98.8029C56.5069 97.2279 54.2226 96.9037 52.4615 97.9109C52.5207 96.7961 52.157 95.6584 51.3554 94.7591C50.1472 93.4036 48.2868 92.9745 46.6691 93.5233C47.5188 91.9452 47.3421 89.939 46.0803 88.5235C44.4681 86.7149 41.695 86.5556 39.8864 88.1678L33.3822 93.9655Z" fill="#ADC0FD"/>
<path d="M40.1082 99.348L46.6887 93.3159" stroke="#7996F9" stroke-width="1.09676" stroke-linecap="round" stroke-linejoin="round"/>
<path d="M48.8823 102.638L52.721 98.2513" stroke="#7996F9" stroke-width="1.09676" stroke-linecap="round" stroke-linejoin="round"/>
<path d="M56.5596 105.929L59.3015 102.09" stroke="#7996F9" stroke-width="1.09676" stroke-linecap="round" stroke-linejoin="round"/>
</g>
<path d="M65.7225 41.9104C65.5536 41.478 66.0137 41.0689 66.4233 41.2871L69.836 43.1053C69.9648 43.1739 70.1171 43.1828 70.2531 43.1297L73.8547 41.7225C74.2871 41.5536 74.6962 42.0137 74.478 42.4233L72.6598 45.836C72.5912 45.9648 72.5823 46.1172 72.6354 46.2531L74.0426 49.8547C74.2115 50.2871 73.7514 50.6962 73.3418 50.478L69.9291 48.6598C69.8003 48.5912 69.648 48.5823 69.512 48.6354L65.9104 50.0426C65.478 50.2115 65.0689 49.7514 65.2871 49.3418L67.1053 45.9291C67.1739 45.8003 67.1828 45.648 67.1297 45.512L65.7225 41.9104Z" fill="#FFDB6C"/>
<path d="M41.582 30.9864C42.0339 30.478 42.8743 30.8062 42.8621 31.4863L42.8025 34.8196C42.7987 35.0334 42.8885 35.2382 43.0483 35.3803L45.5399 37.5953C46.0483 38.0472 45.7201 38.8876 45.04 38.8755L41.7067 38.8159C41.4929 38.812 41.2881 38.9018 41.146 39.0616L38.931 41.5532C38.4791 42.0616 37.6387 41.7334 37.6508 41.0533L37.7104 37.72C37.7143 37.5062 37.6245 37.3014 37.4647 37.1593L34.9731 34.9443C34.4647 34.4924 34.7929 33.652 35.473 33.6642L38.8063 33.7238C39.0201 33.7276 39.2249 33.6378 39.367 33.478L41.582 30.9864Z" fill="#FFDB6C"/>
<path d="M56.3319 7.17984C56.2975 6.64451 56.9477 6.35531 57.3223 6.73931L63.5626 13.1369C63.6804 13.2576 63.845 13.3208 64.0133 13.31L72.9319 12.7372C73.4673 12.7028 73.7565 13.353 73.3725 13.7275L66.9749 19.9679C66.8542 20.0856 66.7909 20.2503 66.8018 20.4186L67.3746 29.3372C67.409 29.8725 66.7588 30.1617 66.3843 29.7777L60.1439 23.3802C60.0262 23.2595 59.8615 23.1962 59.6932 23.207L50.7746 23.7799C50.2392 23.8142 49.95 23.1641 50.334 22.7895L56.7316 16.5492C56.8523 16.4314 56.9156 16.2668 56.9048 16.0985L56.3319 7.17984Z" fill="#FFC72C"/>
</svg>
