<svg width="112" height="112" viewBox="0 0 112 112" fill="none" xmlns="http://www.w3.org/2000/svg">
<rect width="112" height="112" rx="56" fill="white"/>
<path d="M19.6185 9.5938C18.7266 11.1389 21.0115 14.1285 24.7225 16.2715C28.4324 18.4138 32.1635 18.8981 33.0554 17.353L34.6698 14.5563L21.2329 6.79708L19.6185 9.5938Z" fill="#FFC72C"/>
<path d="M26.3299 13.4785C22.6181 11.3387 20.333 8.35206 21.2261 6.80755C22.1191 5.26304 25.8521 5.74559 29.564 7.88535C33.2758 10.0251 35.5608 13.0118 34.6678 14.5563C33.7747 16.1008 30.0417 15.6183 26.3299 13.4785Z" fill="#FFDB6C"/>
<path d="M15.9107 48.8808C16.7142 50.7853 21.0739 50.7655 25.6489 48.8362C30.2225 46.9074 33.2794 43.7996 32.4759 41.8951L31.0215 38.4478L14.4564 45.4335L15.9107 48.8808Z" fill="#FFC72C"/>
<path d="M24.1932 45.398C19.6206 47.3302 15.2635 47.3522 14.4614 45.447C13.6592 43.5419 16.7158 40.431 21.2884 38.4987C25.8609 36.5665 30.218 36.5445 31.0202 38.4497C31.8223 40.3548 28.7658 43.4657 24.1932 45.398Z" fill="#FFDB6C"/>
<path d="M50.1431 36.2857V27.9286C50.1431 20.236 56.3791 14 64.0716 14V14C71.7642 14 78.0002 20.236 78.0002 27.9286V36.2857" stroke="#ADC0FD" stroke-linecap="round"/>
<path d="M30.0933 35.1714H88.7638L92.6255 88.7845C92.7507 90.5217 91.375 92 89.6333 92H29.2239C27.4821 92 26.1065 90.5217 26.2316 88.7845L30.0933 35.1714Z" fill="#7996F9"/>
<path d="M29.2974 35.1714H76.5598L79.673 88.8262C79.7729 90.5485 78.4032 92 76.678 92H29.1791C27.4539 92 26.0842 90.5485 26.1842 88.8262L29.2974 35.1714Z" fill="#ADC0FD"/>
<path d="M41.7856 36.2857V27.9286C41.7856 20.236 48.0217 14 55.7142 14V14C63.4068 14 69.6428 20.236 69.6428 27.9286V36.2857" stroke="#ADC0FD"/>
<path d="M59.8572 35C57.3572 35 54.6572 37.52 51.8572 47.6" stroke="white" stroke-linecap="round"/>
<path d="M45.776 49.0837C45.8507 48.7571 46.0839 48.4897 46.3972 48.3712L51.4503 46.4611C51.8267 46.3188 52.2518 46.416 52.5289 46.7078L56.2493 50.6245C56.48 50.8674 56.5738 51.2097 56.4991 51.5362L53.9459 62.6994C53.8227 63.2378 53.2865 63.5744 52.7481 63.4513L43.9746 61.4447C43.4363 61.3215 43.0996 60.7853 43.2228 60.2469L45.776 49.0837Z" fill="white"/>
<path fill-rule="evenodd" clip-rule="evenodd" d="M38.0001 81.6421C38.0001 77.9552 35.0114 74.9659 31.324 74.9659C27.6371 74.9659 24.6478 77.9552 24.6478 81.6421C24.6478 85.329 27.6371 88.3182 31.324 88.3182C35.0114 88.3182 38.0001 85.329 38.0001 81.6421ZM26.8732 81.6421C26.8732 79.1841 28.866 77.1913 31.324 77.1913C33.7819 77.1913 35.7747 79.1841 35.7747 81.6421C35.7747 84.1 33.7819 86.0928 31.324 86.0928C28.866 86.0928 26.8732 84.1 26.8732 81.6421Z" fill="#022786"/>
<path d="M14.3519 91.7273H30.3453L31.7476 70.4158C31.7699 70.0481 31.6375 69.6878 31.3821 69.4198C31.1261 69.1517 30.7702 69 30.398 69H14.3519C13.9797 69 13.6237 69.1517 13.3684 69.4198C13.1131 69.6878 12.9807 70.0481 13.0023 70.4158L14.3519 91.7273Z" fill="#022786"/>
<path d="M18.3977 69H18.9659V80.9318H18.3977V69Z" fill="#E5ECFF"/>
<path d="M18.6818 78.375L20.6704 80.9318V84.7273H16.6931V80.9318L18.6818 78.375Z" fill="#E5ECFF"/>
<path d="M105.968 19.6729C107.129 21.6846 104.154 25.577 99.3224 28.367C94.4922 31.1562 89.6344 31.7868 88.4732 29.7751L86.3713 26.1339L103.866 16.0317L105.968 19.6729Z" fill="#FFC72C"/>
<path d="M97.2297 24.7306C102.062 21.9447 105.037 18.0561 103.875 16.0453C102.712 14.0344 97.8517 14.6626 93.0191 17.4485C88.1864 20.2344 85.2114 24.1229 86.3741 26.1338C87.5368 28.1447 92.397 27.5165 97.2297 24.7306Z" fill="#FFDB6C"/>
<path d="M101.061 70.3133C100.655 72.0487 96.9464 72.665 92.7778 71.6895C88.6104 70.7144 85.561 68.5168 85.9673 66.7814L86.7029 63.6402L101.797 67.1721L101.061 70.3133Z" fill="#FFC72C"/>
<path d="M93.516 68.5558C97.683 69.5341 101.389 68.92 101.795 67.1843C102.2 65.4485 99.15 63.2484 94.983 62.2701C90.816 61.2918 87.1096 61.9058 86.7045 63.6416C86.2993 65.3773 89.349 67.5775 93.516 68.5558Z" fill="#FFDB6C"/>
</svg>
