<svg width="112" height="123" viewBox="0 0 112 123" fill="none" xmlns="http://www.w3.org/2000/svg">
<g clip-path="url(#clip0_417_27007)">
<rect y="10.5" width="112" height="112" rx="56" fill="white"/>
<mask id="mask0_417_27007" style="mask-type:alpha" maskUnits="userSpaceOnUse" x="0" y="-22" width="112" height="145">
<path d="M0 34C0 3.07206 25.0721 -22 56 -22C86.9279 -22 112 3.07206 112 34V66.5C112 97.4279 86.9279 122.5 56 122.5C25.0721 122.5 0 97.4279 0 66.5V34Z" fill="#F0F4FF"/>
</mask>
<g mask="url(#mask0_417_27007)">
<path d="M38.2353 23.1053V129.5H61.7647V23.1053H70L50 3.5L30 23.1053H38.2353Z" fill="#ADC0FD"/>
<path d="M13.3824 73.5081V135.112L31.6176 139V73.5081H38L22.5 51.5L7 73.5081H13.3824Z" fill="#7996F9"/>
<path d="M42.2851 93.2157C41.0732 86.6336 38.618 81.9552 35.9089 78.9825L35.9609 78.967C31.6577 74.6222 29 68.6441 29 62.0451C29 48.7654 39.7631 38 53.04 38C66.3169 38 77.08 48.7654 77.08 62.0451C77.08 68.7031 74.3746 74.729 70.0033 79.0831C67.0572 82.4382 64.7559 86.913 63.643 93.27C63.1682 95.9822 42.7916 95.9664 42.2851 93.2157Z" fill="#FFC72C"/>
<path d="M72.5904 61.003C72.5904 67.8697 69.8023 74.0845 65.2974 78.5751C62.2612 82.0353 59.8897 86.6504 58.7427 93.2067C58.5399 94.3661 54.8131 95.0422 50.4814 95.2343C46.2095 95.0428 42.4976 94.37 42.2851 93.2157C41.0732 86.6336 38.618 81.9552 35.9089 78.9825L35.9609 78.967C31.6577 74.6222 29 68.6441 29 62.0451C29 48.7654 39.7631 38 53.04 38C54.9188 38 56.7472 38.2156 58.5019 38.6233C66.8351 42.6173 72.5904 51.1374 72.5904 61.003Z" fill="#FFC72C"/>
<path d="M42.8411 96.6721H62.5102C62.5102 99.8908 60.3392 102.5 57.6611 102.5H47.6901C45.0121 102.5 42.8411 99.8908 42.8411 96.6721Z" fill="#022786"/>
<path d="M41.3288 87.9303H64.0227C64.7967 87.9303 65.4242 88.7958 65.4242 89.8634V95.4675C65.4242 96.5351 64.7967 97.4006 64.0227 97.4006H41.3288C40.5547 97.4006 39.9272 96.5351 39.9272 95.4675V89.8634C39.9272 88.7958 40.5547 87.9303 41.3288 87.9303Z" fill="#022786"/>
<path d="M41.3178 87.9303H58.8679V97.4006H41.3178C40.5498 97.4006 39.9272 96.5351 39.9272 95.4675V89.8634C39.9272 88.7958 40.5498 87.9303 41.3178 87.9303Z" fill="#022786"/>
<path d="M39.9978 93.5272H65.6593V94.7965H39.9978V93.5272Z" fill="white"/>
<path fill-rule="evenodd" clip-rule="evenodd" d="M41.9972 53.7286L43.6768 56.304C43.2291 57.0865 42.8763 57.9302 42.6339 58.8196L39.6262 59.4528C39.4751 59.4846 39.3669 59.6179 39.3669 59.7723V63.5731C39.3669 63.7275 39.4751 63.8608 39.6262 63.8926L42.6339 64.5258C42.8763 65.4151 43.2291 66.2589 43.6768 67.0414L41.9972 69.6168C41.9129 69.7461 41.9307 69.9168 42.0398 70.026L44.7274 72.7136C44.8366 72.8228 45.0073 72.8406 45.1367 72.7562L47.712 71.0766C48.4945 71.5243 49.3383 71.8772 50.2276 72.1195L50.8608 75.1273C50.8927 75.2783 51.026 75.3865 51.1804 75.3865H54.9812C55.1356 75.3865 55.2689 75.2783 55.3007 75.1273L55.9339 72.1195C56.8232 71.8772 57.667 71.5243 58.4495 71.0766L61.0249 72.7562C61.1542 72.8406 61.3249 72.8228 61.4341 72.7136L64.309 69.8387L62.4847 67.0414C62.9324 66.2589 63.2853 65.4151 63.5276 64.5258L66.5353 63.8926C66.6864 63.8608 66.7946 63.7275 66.7946 63.5731V59.7723C66.7946 59.6179 66.6864 59.4846 66.5353 59.4528L63.5276 58.8196C63.2853 57.9302 62.9324 57.0865 62.4847 56.304L64.1643 53.7286C64.2486 53.5993 64.2309 53.4285 64.1217 53.3193L61.4341 50.6318C61.3249 50.5226 61.1542 50.5048 61.0249 50.5891L58.4495 52.2687C57.667 51.821 56.8232 51.4682 55.9339 51.2259L55.3007 48.2181C55.2689 48.067 55.1356 47.9589 54.9812 47.9589H51.1804C51.026 47.9589 50.8927 48.067 50.8608 48.2181L50.2276 51.2259C49.3383 51.4682 48.4945 51.821 47.712 52.2687L45.1367 50.5891C45.0073 50.5048 44.8366 50.5226 44.7274 50.6318L42.0398 53.3193C41.9307 53.4285 41.9129 53.5993 41.9972 53.7286ZM58.1418 61.6727C58.1418 64.4678 55.8759 66.7337 53.0807 66.7337C50.2856 66.7337 48.0197 64.4678 48.0197 61.6727C48.0197 58.8775 50.2856 56.6116 53.0807 56.6116C55.8759 56.6116 58.1418 58.8775 58.1418 61.6727Z" fill="white"/>
<path d="M75.3824 53.6498V141H93.6176V53.6498H100L84.5 31.5L69 53.6498H75.3824Z" fill="#7996F9"/>
</g>
</g>
<defs>
<clipPath id="clip0_417_27007">
<rect width="112" height="123" fill="white"/>
</clipPath>
</defs>
</svg>
